<svg xmlns="http://www.w3.org/2000/svg" viewBox="0 0 800 600" width="800" height="600">
<rect x="0" y="0" width="800" height="600" fill="#FFFFFF" />
<rect x="60" y="40" width="720" height="510" fill="#FFFFFF" />
<line x1="92.72727272727272" y1="40" x2="92.72727272727272" y2="550" stroke="#B0B0B0" stroke-width="0.8" />
<line x1="256.3636363636364" y1="40" x2="256.3636363636364" y2="550" stroke="#B0B0B0" stroke-width="0.8" />
<line x1="420" y1="40" x2="420" y2="550" stroke="#B0B0B0" stroke-width="0.8" />
<line x1="583.6363636363636" y1="40" x2="583.6363636363636" y2="550" stroke="#B0B0B0" stroke-width="0.8" />
<line x1="747.2727272727273" y1="40" x2="747.2727272727273" y2="550" stroke="#B0B0B0" stroke-width="0.8" />
<line x1="60" y1="526.8181818181819" x2="780" y2="526.8181818181819" stroke="#B0B0B0" stroke-width="0.8" />
<line x1="60" y1="393.58934169279" x2="780" y2="393.58934169279" stroke="#B0B0B0" stroke-width="0.8" />
<line x1="60" y1="260.36050156739816" x2="780" y2="260.36050156739816" stroke="#B0B0B0" stroke-width="0.8" />
<line x1="60" y1="127.1316614420063" x2="780" y2="127.1316614420063" stroke="#B0B0B0" stroke-width="0.8" />
<text x="174.54545454545453" y="565" font-family="sans-serif" font-size="13" text-anchor="middle" fill="#000000">Alpha</text>
<text x="338.18181818181813" y="565" font-family="sans-serif" font-size="13" text-anchor="middle" fill="#000000">Beta</text>
<text x="501.81818181818176" y="565" font-family="sans-serif" font-size="13" text-anchor="middle" fill="#000000">Gamma</text>
<text x="665.4545454545455" y="565" font-family="sans-serif" font-size="13" text-anchor="middle" fill="#000000">Delta</text>
<line x1="87.72727272727272" y1="526.8181818181819" x2="92.72727272727272" y2="526.8181818181819" stroke="#000000" stroke-width="1" />
<text x="52" y="530.8181818181819" font-family="sans-serif" font-size="13" text-anchor="end" fill="#000000">0</text>
<line x1="87.72727272727272" y1="393.58934169279" x2="92.72727272727272" y2="393.58934169279" stroke="#000000" stroke-width="1" />
<text x="52" y="397.58934169279" font-family="sans-serif" font-size="13" text-anchor="end" fill="#000000">10k</text>
<line x1="87.72727272727272" y1="260.36050156739816" x2="92.72727272727272" y2="260.36050156739816" stroke="#000000" stroke-width="1" />
<text x="52" y="264.36050156739816" font-family="sans-serif" font-size="13" text-anchor="end" fill="#000000">20k</text>
<line x1="87.72727272727272" y1="127.1316614420063" x2="92.72727272727272" y2="127.1316614420063" stroke="#000000" stroke-width="1" />
<text x="52" y="131.1316614420063" font-family="sans-serif" font-size="13" text-anchor="end" fill="#000000">30k</text>
<line x1="89.72727272727272" y1="500.1724137931035" x2="92.72727272727272" y2="500.1724137931035" stroke="#000000" stroke-width="0.5" />
<line x1="89.72727272727272" y1="473.5266457680251" x2="92.72727272727272" y2="473.5266457680251" stroke="#000000" stroke-width="0.5" />
<line x1="89.72727272727272" y1="446.8808777429468" x2="92.72727272727272" y2="446.8808777429468" stroke="#000000" stroke-width="0.5" />
<line x1="89.72727272727272" y1="420.2351097178684" x2="92.72727272727272" y2="420.2351097178684" stroke="#000000" stroke-width="0.5" />
<line x1="89.72727272727272" y1="366.9435736677117" x2="92.72727272727272" y2="366.9435736677117" stroke="#000000" stroke-width="0.5" />
<line x1="89.72727272727272" y1="340.2978056426333" x2="92.72727272727272" y2="340.2978056426333" stroke="#000000" stroke-width="0.5" />
<line x1="89.72727272727272" y1="313.6520376175549" x2="92.72727272727272" y2="313.6520376175549" stroke="#000000" stroke-width="0.5" />
<line x1="89.72727272727272" y1="287.00626959247654" x2="92.72727272727272" y2="287.00626959247654" stroke="#000000" stroke-width="0.5" />
<line x1="89.72727272727272" y1="233.71473354231978" x2="92.72727272727272" y2="233.71473354231978" stroke="#000000" stroke-width="0.5" />
<line x1="89.72727272727272" y1="207.06896551724145" x2="92.72727272727272" y2="207.06896551724145" stroke="#000000" stroke-width="0.5" />
<line x1="89.72727272727272" y1="180.42319749216307" x2="92.72727272727272" y2="180.42319749216307" stroke="#000000" stroke-width="0.5" />
<line x1="89.72727272727272" y1="153.7774294670847" x2="92.72727272727272" y2="153.7774294670847" stroke="#000000" stroke-width="0.5" />
<line x1="89.72727272727272" y1="100.48589341692792" x2="92.72727272727272" y2="100.48589341692792" stroke="#000000" stroke-width="0.5" />
<line x1="89.72727272727272" y1="73.8401253918496" x2="92.72727272727272" y2="73.8401253918496" stroke="#000000" stroke-width="0.5" />
<line x1="89.72727272727272" y1="47.194357366771214" x2="92.72727272727272" y2="47.194357366771214" stroke="#000000" stroke-width="0.5" />
<rect x="109.09090909090908" y="360.28213166144207" width="130.90909090909093" height="166.5360501567398" fill="#1F77B4" />
<text x="174.54545454545453" y="356.28213166144207" font-family="sans-serif" font-size="11" text-anchor="middle">12500</text>
<rect x="272.72727272727275" y="63.181818181818244" width="130.90909090909088" height="463.6363636363636" fill="#1F77B4" />
<text x="338.1818181818182" y="59.181818181818244" font-family="sans-serif" font-size="11" text-anchor="middle">34800</text>
<rect x="436.3636363636364" y="417.57053291536056" width="130.90909090909088" height="109.24764890282131" fill="#1F77B4" />
<text x="501.8181818181818" y="413.57053291536056" font-family="sans-serif" font-size="11" text-anchor="middle">8200</text>
<rect x="600" y="159.10658307210036" width="130.90909090909088" height="367.7115987460815" fill="#1F77B4" />
<text x="665.4545454545455" y="155.10658307210036" font-family="sans-serif" font-size="11" text-anchor="middle">27600</text>
<g class="spine">
<line x1="60" y1="550" x2="780" y2="550" stroke="#000000" stroke-width="1" />
</g>
<g class="spine">
<line x1="60" y1="40" x2="780" y2="40" stroke="#000000" stroke-width="1" />
</g>
<g class="spine">
<line x1="60" y1="40" x2="60" y2="550" stroke="#000000" stroke-width="1" />
</g>
<g class="spine">
<line x1="780" y1="40" x2="780" y2="550" stroke="#000000" stroke-width="1" />
</g>
<rect x="681.92" y="50" width="88.08" height="28" fill="#FFFFFF" fill-opacity="0.8627450980392157" stroke="#000000" stroke-width="0.5" />
<g class="legend">
<rect x="689.92" y="58" width="12" height="12" fill="#1F77B4" />
<text x="707.92" y="69" font-family="sans-serif" font-size="13" text-anchor="start" fill="#000000">Q1 Sales</text>
</g>
<text x="420" y="32" font-family="sans-serif" font-size="15" text-anchor="middle" font-weight="bold" fill="#000000">Sales by Product</text>
<text x="15" y="295" font-family="sans-serif" font-size="13" text-anchor="middle" fill="#000000">Revenue ()</text>
</svg>
