<svg xmlns="http://www.w3.org/2000/svg" viewBox="0 0 800 500" width="800" height="500">
<rect x="0" y="0" width="800" height="500" fill="#FFFFFF" />
<text x="400" y="25" font-family="sans-serif" font-size="15" text-anchor="middle" font-weight="bold" fill="#262626">Sales Trend</text>
<rect x="60" y="70" width="720" height="380" fill="#EAEAF2" />
<line x1="165.45454545454547" y1="70" x2="165.45454545454547" y2="450" stroke="#FFFFFF" stroke-width="0.5" />
<line x1="310.90909090909093" y1="70" x2="310.90909090909093" y2="450" stroke="#FFFFFF" stroke-width="0.5" />
<line x1="456.3636363636364" y1="70" x2="456.3636363636364" y2="450" stroke="#FFFFFF" stroke-width="0.5" />
<line x1="601.8181818181819" y1="70" x2="601.8181818181819" y2="450" stroke="#FFFFFF" stroke-width="0.5" />
<line x1="747.2727272727274" y1="70" x2="747.2727272727274" y2="450" stroke="#FFFFFF" stroke-width="0.5" />
<line x1="60" y1="437.45952677459525" x2="780" y2="437.45952677459525" stroke="#FFFFFF" stroke-width="0.5" />
<line x1="60" y1="342.81444582814447" x2="780" y2="342.81444582814447" stroke="#FFFFFF" stroke-width="0.5" />
<line x1="60" y1="248.16936488169364" x2="780" y2="248.16936488169364" stroke="#FFFFFF" stroke-width="0.5" />
<line x1="60" y1="153.52428393524286" x2="780" y2="153.52428393524286" stroke="#FFFFFF" stroke-width="0.5" />
<line x1="165.45454545454547" y1="449.99999999999994" x2="165.45454545454547" y2="454.99999999999994" stroke="#262626" stroke-width="1" />
<text x="165.45454545454547" y="465" font-family="sans-serif" font-size="11" text-anchor="middle" fill="#262626">2</text>
<line x1="310.90909090909093" y1="449.99999999999994" x2="310.90909090909093" y2="454.99999999999994" stroke="#262626" stroke-width="1" />
<text x="310.90909090909093" y="465" font-family="sans-serif" font-size="11" text-anchor="middle" fill="#262626">4</text>
<line x1="456.3636363636364" y1="449.99999999999994" x2="456.3636363636364" y2="454.99999999999994" stroke="#262626" stroke-width="1" />
<text x="456.3636363636364" y="465" font-family="sans-serif" font-size="11" text-anchor="middle" fill="#262626">6</text>
<line x1="601.8181818181819" y1="449.99999999999994" x2="601.8181818181819" y2="454.99999999999994" stroke="#262626" stroke-width="1" />
<text x="601.8181818181819" y="465" font-family="sans-serif" font-size="11" text-anchor="middle" fill="#262626">8</text>
<line x1="747.2727272727274" y1="449.99999999999994" x2="747.2727272727274" y2="454.99999999999994" stroke="#262626" stroke-width="1" />
<text x="747.2727272727274" y="465" font-family="sans-serif" font-size="11" text-anchor="middle" fill="#262626">10</text>
<line x1="78.18181818181819" y1="449.99999999999994" x2="78.18181818181819" y2="452.99999999999994" stroke="#262626" stroke-width="0.5" />
<line x1="107.27272727272728" y1="449.99999999999994" x2="107.27272727272728" y2="452.99999999999994" stroke="#262626" stroke-width="0.5" />
<line x1="136.36363636363637" y1="449.99999999999994" x2="136.36363636363637" y2="452.99999999999994" stroke="#262626" stroke-width="0.5" />
<line x1="194.54545454545456" y1="449.99999999999994" x2="194.54545454545456" y2="452.99999999999994" stroke="#262626" stroke-width="0.5" />
<line x1="223.63636363636365" y1="449.99999999999994" x2="223.63636363636365" y2="452.99999999999994" stroke="#262626" stroke-width="0.5" />
<line x1="252.72727272727275" y1="449.99999999999994" x2="252.72727272727275" y2="452.99999999999994" stroke="#262626" stroke-width="0.5" />
<line x1="281.81818181818187" y1="449.99999999999994" x2="281.81818181818187" y2="452.99999999999994" stroke="#262626" stroke-width="0.5" />
<line x1="340.00000000000006" y1="449.99999999999994" x2="340.00000000000006" y2="452.99999999999994" stroke="#262626" stroke-width="0.5" />
<line x1="369.0909090909091" y1="449.99999999999994" x2="369.0909090909091" y2="452.99999999999994" stroke="#262626" stroke-width="0.5" />
<line x1="398.18181818181824" y1="449.99999999999994" x2="398.18181818181824" y2="452.99999999999994" stroke="#262626" stroke-width="0.5" />
<line x1="427.2727272727273" y1="449.99999999999994" x2="427.2727272727273" y2="452.99999999999994" stroke="#262626" stroke-width="0.5" />
<line x1="485.4545454545455" y1="449.99999999999994" x2="485.4545454545455" y2="452.99999999999994" stroke="#262626" stroke-width="0.5" />
<line x1="514.5454545454545" y1="449.99999999999994" x2="514.5454545454545" y2="452.99999999999994" stroke="#262626" stroke-width="0.5" />
<line x1="543.6363636363637" y1="449.99999999999994" x2="543.6363636363637" y2="452.99999999999994" stroke="#262626" stroke-width="0.5" />
<line x1="572.7272727272727" y1="449.99999999999994" x2="572.7272727272727" y2="452.99999999999994" stroke="#262626" stroke-width="0.5" />
<line x1="630.909090909091" y1="449.99999999999994" x2="630.909090909091" y2="452.99999999999994" stroke="#262626" stroke-width="0.5" />
<line x1="660.0000000000001" y1="449.99999999999994" x2="660.0000000000001" y2="452.99999999999994" stroke="#262626" stroke-width="0.5" />
<line x1="689.0909090909091" y1="449.99999999999994" x2="689.0909090909091" y2="452.99999999999994" stroke="#262626" stroke-width="0.5" />
<line x1="718.1818181818182" y1="449.99999999999994" x2="718.1818181818182" y2="452.99999999999994" stroke="#262626" stroke-width="0.5" />
<line x1="776.3636363636365" y1="449.99999999999994" x2="776.3636363636365" y2="452.99999999999994" stroke="#262626" stroke-width="0.5" />
<line x1="14.999999999999993" y1="437.45952677459525" x2="19.999999999999993" y2="437.45952677459525" stroke="#262626" stroke-width="1" />
<text x="52" y="441.45952677459525" font-family="sans-serif" font-size="11" text-anchor="end" fill="#262626">2</text>
<line x1="14.999999999999993" y1="342.81444582814447" x2="19.999999999999993" y2="342.81444582814447" stroke="#262626" stroke-width="1" />
<text x="52" y="346.81444582814447" font-family="sans-serif" font-size="11" text-anchor="end" fill="#262626">4</text>
<line x1="14.999999999999993" y1="248.16936488169364" x2="19.999999999999993" y2="248.16936488169364" stroke="#262626" stroke-width="1" />
<text x="52" y="252.16936488169364" font-family="sans-serif" font-size="11" text-anchor="end" fill="#262626">6</text>
<line x1="14.999999999999993" y1="153.52428393524286" x2="19.999999999999993" y2="153.52428393524286" stroke="#262626" stroke-width="1" />
<text x="52" y="157.52428393524286" font-family="sans-serif" font-size="11" text-anchor="end" fill="#262626">8</text>
<line x1="16.999999999999993" y1="418.5305105853051" x2="19.999999999999993" y2="418.5305105853051" stroke="#262626" stroke-width="0.5" />
<line x1="16.999999999999993" y1="399.6014943960149" x2="19.999999999999993" y2="399.6014943960149" stroke="#262626" stroke-width="0.5" />
<line x1="16.999999999999993" y1="380.67247820672475" x2="19.999999999999993" y2="380.67247820672475" stroke="#262626" stroke-width="0.5" />
<line x1="16.999999999999993" y1="361.7434620174346" x2="19.999999999999993" y2="361.7434620174346" stroke="#262626" stroke-width="0.5" />
<line x1="16.999999999999993" y1="323.88542963885425" x2="19.999999999999993" y2="323.88542963885425" stroke="#262626" stroke-width="0.5" />
<line x1="16.999999999999993" y1="304.95641344956414" x2="19.999999999999993" y2="304.95641344956414" stroke="#262626" stroke-width="0.5" />
<line x1="16.999999999999993" y1="286.027397260274" x2="19.999999999999993" y2="286.027397260274" stroke="#262626" stroke-width="0.5" />
<line x1="16.999999999999993" y1="267.0983810709838" x2="19.999999999999993" y2="267.0983810709838" stroke="#262626" stroke-width="0.5" />
<line x1="16.999999999999993" y1="229.24034869240347" x2="19.999999999999993" y2="229.24034869240347" stroke="#262626" stroke-width="0.5" />
<line x1="16.999999999999993" y1="210.31133250311336" x2="19.999999999999993" y2="210.31133250311336" stroke="#262626" stroke-width="0.5" />
<line x1="16.999999999999993" y1="191.3823163138232" x2="19.999999999999993" y2="191.3823163138232" stroke="#262626" stroke-width="0.5" />
<line x1="16.999999999999993" y1="172.45330012453303" x2="19.999999999999993" y2="172.45330012453303" stroke="#262626" stroke-width="0.5" />
<line x1="16.999999999999993" y1="134.5952677459527" x2="19.999999999999993" y2="134.5952677459527" stroke="#262626" stroke-width="0.5" />
<line x1="16.999999999999993" y1="115.66625155666253" x2="19.999999999999993" y2="115.66625155666253" stroke="#262626" stroke-width="0.5" />
<line x1="16.999999999999993" y1="96.73723536737242" x2="19.999999999999993" y2="96.73723536737242" stroke="#262626" stroke-width="0.5" />
<line x1="16.999999999999993" y1="77.80821917808225" x2="19.999999999999993" y2="77.80821917808225" stroke="#262626" stroke-width="0.5" />
<polyline points="92.72727272727272,432.7272727272727 165.45454545454547,319.15317559153175 238.1818181818182,380.67247820672475 310.90909090909093,210.31133250311333 383.6363636363637,290.7596513075965 456.3636363636364,186.65006226650064 529.0909090909091,224.50809464508094 601.8181818181819,110.93399750933999 674.5454545454546,191.3823163138232 747.2727272727274,87.27272727272731" fill="none" stroke="#0000FF" stroke-width="1.5" />
<g class="spine">
<line x1="60" y1="450" x2="780" y2="450" stroke="#262626" stroke-width="1" />
</g>
<g class="spine">
<line x1="60" y1="70" x2="780" y2="70" stroke="#262626" stroke-width="1" />
</g>
<g class="spine">
<line x1="60" y1="70" x2="60" y2="450" stroke="#262626" stroke-width="1" />
</g>
<g class="spine">
<line x1="780" y1="70" x2="780" y2="450" stroke="#262626" stroke-width="1" />
</g>
<rect x="691.56" y="80" width="78.44000000000001" height="28" fill="#FFFFFF" fill-opacity="0.8627450980392157" stroke="#262626" stroke-width="0.5" />
<g class="legend">
<rect x="699.56" y="88" width="12" height="12" fill="#0000FF" />
<text x="717.56" y="99" font-family="sans-serif" font-size="11" text-anchor="start" fill="#262626">Revenue</text>
</g>
</svg>
