<svg xmlns="http://www.w3.org/2000/svg" viewBox="0 0 800 600" width="800" height="600">
<rect x="0" y="0" width="800" height="600" fill="#1C1C1C" />
<text x="400" y="25" font-family="sans-serif" font-size="17" text-anchor="middle" font-weight="bold" fill="#E0E0E0">Dashboard</text>
<rect x="60" y="70" width="340" height="480" fill="#2D2D2D" />
<line x1="75.45454545454545" y1="70" x2="75.45454545454545" y2="550" stroke="#404040" stroke-width="0.5" />
<line x1="137.27272727272728" y1="70" x2="137.27272727272728" y2="550" stroke="#404040" stroke-width="0.5" />
<line x1="199.0909090909091" y1="70" x2="199.0909090909091" y2="550" stroke="#404040" stroke-width="0.5" />
<line x1="260.90909090909093" y1="70" x2="260.90909090909093" y2="550" stroke="#404040" stroke-width="0.5" />
<line x1="322.72727272727275" y1="70" x2="322.72727272727275" y2="550" stroke="#404040" stroke-width="0.5" />
<line x1="384.54545454545456" y1="70" x2="384.54545454545456" y2="550" stroke="#404040" stroke-width="0.5" />
<line x1="60" y1="528.1818181818181" x2="400" y2="528.1818181818181" stroke="#404040" stroke-width="0.5" />
<line x1="60" y1="463.0529172320216" x2="400" y2="463.0529172320216" stroke="#404040" stroke-width="0.5" />
<line x1="60" y1="397.9240162822251" x2="400" y2="397.9240162822251" stroke="#404040" stroke-width="0.5" />
<line x1="60" y1="332.7951153324287" x2="400" y2="332.7951153324287" stroke="#404040" stroke-width="0.5" />
<line x1="60" y1="267.6662143826322" x2="400" y2="267.6662143826322" stroke="#404040" stroke-width="0.5" />
<line x1="60" y1="202.53731343283567" x2="400" y2="202.53731343283567" stroke="#404040" stroke-width="0.5" />
<line x1="60" y1="137.40841248303923" x2="400" y2="137.40841248303923" stroke="#404040" stroke-width="0.5" />
<line x1="60" y1="72.27951153324273" x2="400" y2="72.27951153324273" stroke="#404040" stroke-width="0.5" />
<text x="106.36363636363636" y="565" font-family="sans-serif" font-size="13" text-anchor="middle" fill="#E0E0E0">Q1</text>
<text x="168.1818181818182" y="565" font-family="sans-serif" font-size="13" text-anchor="middle" fill="#E0E0E0">Q2</text>
<text x="230" y="565" font-family="sans-serif" font-size="13" text-anchor="middle" fill="#E0E0E0">Q3</text>
<text x="291.8181818181818" y="565" font-family="sans-serif" font-size="13" text-anchor="middle" fill="#E0E0E0">Q4</text>
<text x="353.6363636363636" y="565" font-family="sans-serif" font-size="13" text-anchor="middle" fill="#E0E0E0">Q5</text>
<line x1="70.45454545454545" y1="528.1818181818181" x2="75.45454545454545" y2="528.1818181818181" stroke="#E0E0E0" stroke-width="1" />
<text x="52" y="532.1818181818181" font-family="sans-serif" font-size="13" text-anchor="end" fill="#E0E0E0">0</text>
<line x1="70.45454545454545" y1="463.0529172320216" x2="75.45454545454545" y2="463.0529172320216" stroke="#E0E0E0" stroke-width="1" />
<text x="52" y="467.0529172320216" font-family="sans-serif" font-size="13" text-anchor="end" fill="#E0E0E0">10</text>
<line x1="70.45454545454545" y1="397.9240162822251" x2="75.45454545454545" y2="397.9240162822251" stroke="#E0E0E0" stroke-width="1" />
<text x="52" y="401.9240162822251" font-family="sans-serif" font-size="13" text-anchor="end" fill="#E0E0E0">20</text>
<line x1="70.45454545454545" y1="332.7951153324287" x2="75.45454545454545" y2="332.7951153324287" stroke="#E0E0E0" stroke-width="1" />
<text x="52" y="336.7951153324287" font-family="sans-serif" font-size="13" text-anchor="end" fill="#E0E0E0">30</text>
<line x1="70.45454545454545" y1="267.6662143826322" x2="75.45454545454545" y2="267.6662143826322" stroke="#E0E0E0" stroke-width="1" />
<text x="52" y="271.6662143826322" font-family="sans-serif" font-size="13" text-anchor="end" fill="#E0E0E0">40</text>
<line x1="70.45454545454545" y1="202.53731343283567" x2="75.45454545454545" y2="202.53731343283567" stroke="#E0E0E0" stroke-width="1" />
<text x="52" y="206.53731343283567" font-family="sans-serif" font-size="13" text-anchor="end" fill="#E0E0E0">50</text>
<line x1="70.45454545454545" y1="137.40841248303923" x2="75.45454545454545" y2="137.40841248303923" stroke="#E0E0E0" stroke-width="1" />
<text x="52" y="141.40841248303923" font-family="sans-serif" font-size="13" text-anchor="end" fill="#E0E0E0">60</text>
<line x1="70.45454545454545" y1="72.27951153324273" x2="75.45454545454545" y2="72.27951153324273" stroke="#E0E0E0" stroke-width="1" />
<text x="52" y="76.27951153324273" font-family="sans-serif" font-size="13" text-anchor="end" fill="#E0E0E0">70</text>
<line x1="72.45454545454545" y1="541.2075983717774" x2="75.45454545454545" y2="541.2075983717774" stroke="#E0E0E0" stroke-width="0.5" />
<line x1="72.45454545454545" y1="515.1560379918589" x2="75.45454545454545" y2="515.1560379918589" stroke="#E0E0E0" stroke-width="0.5" />
<line x1="72.45454545454545" y1="502.1302578018995" x2="75.45454545454545" y2="502.1302578018995" stroke="#E0E0E0" stroke-width="0.5" />
<line x1="72.45454545454545" y1="489.10447761194024" x2="75.45454545454545" y2="489.10447761194024" stroke="#E0E0E0" stroke-width="0.5" />
<line x1="72.45454545454545" y1="476.07869742198096" x2="75.45454545454545" y2="476.07869742198096" stroke="#E0E0E0" stroke-width="0.5" />
<line x1="72.45454545454545" y1="450.02713704206235" x2="75.45454545454545" y2="450.02713704206235" stroke="#E0E0E0" stroke-width="0.5" />
<line x1="72.45454545454545" y1="437.0013568521031" x2="75.45454545454545" y2="437.0013568521031" stroke="#E0E0E0" stroke-width="0.5" />
<line x1="72.45454545454545" y1="423.97557666214374" x2="75.45454545454545" y2="423.97557666214374" stroke="#E0E0E0" stroke-width="0.5" />
<line x1="72.45454545454545" y1="410.94979647218446" x2="75.45454545454545" y2="410.94979647218446" stroke="#E0E0E0" stroke-width="0.5" />
<line x1="72.45454545454545" y1="384.89823609226585" x2="75.45454545454545" y2="384.89823609226585" stroke="#E0E0E0" stroke-width="0.5" />
<line x1="72.45454545454545" y1="371.87245590230657" x2="75.45454545454545" y2="371.87245590230657" stroke="#E0E0E0" stroke-width="0.5" />
<line x1="72.45454545454545" y1="358.8466757123473" x2="75.45454545454545" y2="358.8466757123473" stroke="#E0E0E0" stroke-width="0.5" />
<line x1="72.45454545454545" y1="345.82089552238796" x2="75.45454545454545" y2="345.82089552238796" stroke="#E0E0E0" stroke-width="0.5" />
<line x1="72.45454545454545" y1="319.76933514246934" x2="75.45454545454545" y2="319.76933514246934" stroke="#E0E0E0" stroke-width="0.5" />
<line x1="72.45454545454545" y1="306.74355495251007" x2="75.45454545454545" y2="306.74355495251007" stroke="#E0E0E0" stroke-width="0.5" />
<line x1="72.45454545454545" y1="293.7177747625508" x2="75.45454545454545" y2="293.7177747625508" stroke="#E0E0E0" stroke-width="0.5" />
<line x1="72.45454545454545" y1="280.6919945725915" x2="75.45454545454545" y2="280.6919945725915" stroke="#E0E0E0" stroke-width="0.5" />
<line x1="72.45454545454545" y1="254.6404341926729" x2="75.45454545454545" y2="254.6404341926729" stroke="#E0E0E0" stroke-width="0.5" />
<line x1="72.45454545454545" y1="241.61465400271356" x2="75.45454545454545" y2="241.61465400271356" stroke="#E0E0E0" stroke-width="0.5" />
<line x1="72.45454545454545" y1="228.5888738127543" x2="75.45454545454545" y2="228.5888738127543" stroke="#E0E0E0" stroke-width="0.5" />
<line x1="72.45454545454545" y1="215.563093622795" x2="75.45454545454545" y2="215.563093622795" stroke="#E0E0E0" stroke-width="0.5" />
<line x1="72.45454545454545" y1="189.5115332428764" x2="75.45454545454545" y2="189.5115332428764" stroke="#E0E0E0" stroke-width="0.5" />
<line x1="72.45454545454545" y1="176.48575305291712" x2="75.45454545454545" y2="176.48575305291712" stroke="#E0E0E0" stroke-width="0.5" />
<line x1="72.45454545454545" y1="163.45997286295778" x2="75.45454545454545" y2="163.45997286295778" stroke="#E0E0E0" stroke-width="0.5" />
<line x1="72.45454545454545" y1="150.4341926729985" x2="75.45454545454545" y2="150.4341926729985" stroke="#E0E0E0" stroke-width="0.5" />
<line x1="72.45454545454545" y1="124.3826322930799" x2="75.45454545454545" y2="124.3826322930799" stroke="#E0E0E0" stroke-width="0.5" />
<line x1="72.45454545454545" y1="111.35685210312062" x2="75.45454545454545" y2="111.35685210312062" stroke="#E0E0E0" stroke-width="0.5" />
<line x1="72.45454545454545" y1="98.33107191316134" x2="75.45454545454545" y2="98.33107191316134" stroke="#E0E0E0" stroke-width="0.5" />
<line x1="72.45454545454545" y1="85.305291723202" x2="75.45454545454545" y2="85.305291723202" stroke="#E0E0E0" stroke-width="0.5" />
<rect x="81.63636363636364" y="378.3853459972862" width="49.45454545454545" height="149.79647218453192" fill="#FFA500" />
<rect x="143.45454545454547" y="235.10176390773393" width="49.45454545454544" height="293.0800542740842" fill="#FFA500" />
<rect x="205.2727272727273" y="450.02713704206235" width="49.45454545454544" height="78.15468113975578" fill="#FFA500" />
<rect x="267.0909090909091" y="91.81818181818164" width="49.45454545454544" height="436.3636363636365" fill="#FFA500" />
<rect x="328.9090909090909" y="306.74355495251007" width="49.454545454545496" height="221.43826322930806" fill="#FFA500" />
<g class="spine">
<line x1="60" y1="550" x2="400" y2="550" stroke="#E0E0E0" stroke-width="1" />
</g>
<g class="spine">
<line x1="60" y1="70" x2="400" y2="70" stroke="#E0E0E0" stroke-width="1" />
</g>
<g class="spine">
<line x1="60" y1="70" x2="60" y2="550" stroke="#E0E0E0" stroke-width="1" />
</g>
<g class="spine">
<line x1="400" y1="70" x2="400" y2="550" stroke="#E0E0E0" stroke-width="1" />
</g>
<rect x="294.9" y="80" width="95.1" height="28" fill="#1C1C1C" fill-opacity="0.8627450980392157" stroke="#E0E0E0" stroke-width="0.5" />
<g class="legend">
<rect x="302.9" y="88" width="12" height="12" fill="#FFA500" />
<text x="320.9" y="99" font-family="sans-serif" font-size="13" text-anchor="start" fill="#E0E0E0">Units sold</text>
</g>
<rect x="440" y="70" width="340" height="480" fill="#2D2D2D" />
<line x1="443.33333333333337" y1="70" x2="443.33333333333337" y2="550" stroke="#404040" stroke-width="0.5" />
<line x1="503.939393939394" y1="70" x2="503.939393939394" y2="550" stroke="#404040" stroke-width="0.5" />
<line x1="564.5454545454545" y1="70" x2="564.5454545454545" y2="550" stroke="#404040" stroke-width="0.5" />
<line x1="625.1515151515152" y1="70" x2="625.1515151515152" y2="550" stroke="#404040" stroke-width="0.5" />
<line x1="685.7575757575758" y1="70" x2="685.7575757575758" y2="550" stroke="#404040" stroke-width="0.5" />
<line x1="746.3636363636364" y1="70" x2="746.3636363636364" y2="550" stroke="#404040" stroke-width="0.5" />
<line x1="440" y1="528.1818181818181" x2="780" y2="528.1818181818181" stroke="#404040" stroke-width="0.5" />
<line x1="440" y1="455.4545454545454" x2="780" y2="455.4545454545454" stroke="#404040" stroke-width="0.5" />
<line x1="440" y1="382.72727272727263" x2="780" y2="382.72727272727263" stroke="#404040" stroke-width="0.5" />
<line x1="440" y1="309.99999999999994" x2="780" y2="309.99999999999994" stroke="#404040" stroke-width="0.5" />
<line x1="440" y1="237.2727272727272" x2="780" y2="237.2727272727272" stroke="#404040" stroke-width="0.5" />
<line x1="440" y1="164.54545454545445" x2="780" y2="164.54545454545445" stroke="#404040" stroke-width="0.5" />
<line x1="440" y1="91.81818181818176" x2="780" y2="91.81818181818176" stroke="#404040" stroke-width="0.5" />
<line x1="443.33333333333337" y1="550" x2="443.33333333333337" y2="555" stroke="#E0E0E0" stroke-width="1" />
<text x="443.33333333333337" y="565" font-family="sans-serif" font-size="13" text-anchor="middle" fill="#E0E0E0">1</text>
<line x1="503.939393939394" y1="550" x2="503.939393939394" y2="555" stroke="#E0E0E0" stroke-width="1" />
<text x="503.939393939394" y="565" font-family="sans-serif" font-size="13" text-anchor="middle" fill="#E0E0E0">2</text>
<line x1="564.5454545454545" y1="550" x2="564.5454545454545" y2="555" stroke="#E0E0E0" stroke-width="1" />
<text x="564.5454545454545" y="565" font-family="sans-serif" font-size="13" text-anchor="middle" fill="#E0E0E0">3</text>
<line x1="625.1515151515152" y1="550" x2="625.1515151515152" y2="555" stroke="#E0E0E0" stroke-width="1" />
<text x="625.1515151515152" y="565" font-family="sans-serif" font-size="13" text-anchor="middle" fill="#E0E0E0">4</text>
<line x1="685.7575757575758" y1="550" x2="685.7575757575758" y2="555" stroke="#E0E0E0" stroke-width="1" />
<text x="685.7575757575758" y="565" font-family="sans-serif" font-size="13" text-anchor="middle" fill="#E0E0E0">5</text>
<line x1="746.3636363636364" y1="550" x2="746.3636363636364" y2="555" stroke="#E0E0E0" stroke-width="1" />
<text x="746.3636363636364" y="565" font-family="sans-serif" font-size="13" text-anchor="middle" fill="#E0E0E0">6</text>
<line x1="455.4545454545455" y1="550" x2="455.4545454545455" y2="553" stroke="#E0E0E0" stroke-width="0.5" />
<line x1="467.5757575757576" y1="550" x2="467.5757575757576" y2="553" stroke="#E0E0E0" stroke-width="0.5" />
<line x1="479.69696969696975" y1="550" x2="479.69696969696975" y2="553" stroke="#E0E0E0" stroke-width="0.5" />
<line x1="491.81818181818187" y1="550" x2="491.81818181818187" y2="553" stroke="#E0E0E0" stroke-width="0.5" />
<line x1="516.0606060606061" y1="550" x2="516.0606060606061" y2="553" stroke="#E0E0E0" stroke-width="0.5" />
<line x1="528.1818181818182" y1="550" x2="528.1818181818182" y2="553" stroke="#E0E0E0" stroke-width="0.5" />
<line x1="540.3030303030304" y1="550" x2="540.3030303030304" y2="553" stroke="#E0E0E0" stroke-width="0.5" />
<line x1="552.4242424242425" y1="550" x2="552.4242424242425" y2="553" stroke="#E0E0E0" stroke-width="0.5" />
<line x1="576.6666666666667" y1="550" x2="576.6666666666667" y2="553" stroke="#E0E0E0" stroke-width="0.5" />
<line x1="588.7878787878788" y1="550" x2="588.7878787878788" y2="553" stroke="#E0E0E0" stroke-width="0.5" />
<line x1="600.909090909091" y1="550" x2="600.909090909091" y2="553" stroke="#E0E0E0" stroke-width="0.5" />
<line x1="613.030303030303" y1="550" x2="613.030303030303" y2="553" stroke="#E0E0E0" stroke-width="0.5" />
<line x1="637.2727272727273" y1="550" x2="637.2727272727273" y2="553" stroke="#E0E0E0" stroke-width="0.5" />
<line x1="649.3939393939395" y1="550" x2="649.3939393939395" y2="553" stroke="#E0E0E0" stroke-width="0.5" />
<line x1="661.5151515151515" y1="550" x2="661.5151515151515" y2="553" stroke="#E0E0E0" stroke-width="0.5" />
<line x1="673.6363636363637" y1="550" x2="673.6363636363637" y2="553" stroke="#E0E0E0" stroke-width="0.5" />
<line x1="697.878787878788" y1="550" x2="697.878787878788" y2="553" stroke="#E0E0E0" stroke-width="0.5" />
<line x1="710" y1="550" x2="710" y2="553" stroke="#E0E0E0" stroke-width="0.5" />
<line x1="722.1212121212121" y1="550" x2="722.1212121212121" y2="553" stroke="#E0E0E0" stroke-width="0.5" />
<line x1="734.2424242424242" y1="550" x2="734.2424242424242" y2="553" stroke="#E0E0E0" stroke-width="0.5" />
<line x1="758.4848484848485" y1="550" x2="758.4848484848485" y2="553" stroke="#E0E0E0" stroke-width="0.5" />
<line x1="770.6060606060607" y1="550" x2="770.6060606060607" y2="553" stroke="#E0E0E0" stroke-width="0.5" />
<line x1="377.72727272727275" y1="528.1818181818181" x2="382.72727272727275" y2="528.1818181818181" stroke="#E0E0E0" stroke-width="1" />
<text x="432" y="532.1818181818181" font-family="sans-serif" font-size="13" text-anchor="end" fill="#E0E0E0">0</text>
<line x1="377.72727272727275" y1="455.4545454545454" x2="382.72727272727275" y2="455.4545454545454" stroke="#E0E0E0" stroke-width="1" />
<text x="432" y="459.4545454545454" font-family="sans-serif" font-size="13" text-anchor="end" fill="#E0E0E0">0.5</text>
<line x1="377.72727272727275" y1="382.72727272727263" x2="382.72727272727275" y2="382.72727272727263" stroke="#E0E0E0" stroke-width="1" />
<text x="432" y="386.72727272727263" font-family="sans-serif" font-size="13" text-anchor="end" fill="#E0E0E0">1</text>
<line x1="377.72727272727275" y1="309.99999999999994" x2="382.72727272727275" y2="309.99999999999994" stroke="#E0E0E0" stroke-width="1" />
<text x="432" y="313.99999999999994" font-family="sans-serif" font-size="13" text-anchor="end" fill="#E0E0E0">1.5</text>
<line x1="377.72727272727275" y1="237.2727272727272" x2="382.72727272727275" y2="237.2727272727272" stroke="#E0E0E0" stroke-width="1" />
<text x="432" y="241.2727272727272" font-family="sans-serif" font-size="13" text-anchor="end" fill="#E0E0E0">2</text>
<line x1="377.72727272727275" y1="164.54545454545445" x2="382.72727272727275" y2="164.54545454545445" stroke="#E0E0E0" stroke-width="1" />
<text x="432" y="168.54545454545445" font-family="sans-serif" font-size="13" text-anchor="end" fill="#E0E0E0">2.5</text>
<line x1="377.72727272727275" y1="91.81818181818176" x2="382.72727272727275" y2="91.81818181818176" stroke="#E0E0E0" stroke-width="1" />
<text x="432" y="95.81818181818176" font-family="sans-serif" font-size="13" text-anchor="end" fill="#E0E0E0">3</text>
<line x1="379.72727272727275" y1="542.7272727272726" x2="382.72727272727275" y2="542.7272727272726" stroke="#E0E0E0" stroke-width="0.5" />
<line x1="379.72727272727275" y1="513.6363636363636" x2="382.72727272727275" y2="513.6363636363636" stroke="#E0E0E0" stroke-width="0.5" />
<line x1="379.72727272727275" y1="499.090909090909" x2="382.72727272727275" y2="499.090909090909" stroke="#E0E0E0" stroke-width="0.5" />
<line x1="379.72727272727275" y1="484.5454545454545" x2="382.72727272727275" y2="484.5454545454545" stroke="#E0E0E0" stroke-width="0.5" />
<line x1="379.72727272727275" y1="469.99999999999994" x2="382.72727272727275" y2="469.99999999999994" stroke="#E0E0E0" stroke-width="0.5" />
<line x1="379.72727272727275" y1="440.9090909090909" x2="382.72727272727275" y2="440.9090909090909" stroke="#E0E0E0" stroke-width="0.5" />
<line x1="379.72727272727275" y1="426.3636363636363" x2="382.72727272727275" y2="426.3636363636363" stroke="#E0E0E0" stroke-width="0.5" />
<line x1="379.72727272727275" y1="411.81818181818176" x2="382.72727272727275" y2="411.81818181818176" stroke="#E0E0E0" stroke-width="0.5" />
<line x1="379.72727272727275" y1="397.2727272727272" x2="382.72727272727275" y2="397.2727272727272" stroke="#E0E0E0" stroke-width="0.5" />
<line x1="379.72727272727275" y1="368.18181818181813" x2="382.72727272727275" y2="368.18181818181813" stroke="#E0E0E0" stroke-width="0.5" />
<line x1="379.72727272727275" y1="353.63636363636357" x2="382.72727272727275" y2="353.63636363636357" stroke="#E0E0E0" stroke-width="0.5" />
<line x1="379.72727272727275" y1="339.090909090909" x2="382.72727272727275" y2="339.090909090909" stroke="#E0E0E0" stroke-width="0.5" />
<line x1="379.72727272727275" y1="324.5454545454545" x2="382.72727272727275" y2="324.5454545454545" stroke="#E0E0E0" stroke-width="0.5" />
<line x1="379.72727272727275" y1="295.4545454545454" x2="382.72727272727275" y2="295.4545454545454" stroke="#E0E0E0" stroke-width="0.5" />
<line x1="379.72727272727275" y1="280.9090909090909" x2="382.72727272727275" y2="280.9090909090909" stroke="#E0E0E0" stroke-width="0.5" />
<line x1="379.72727272727275" y1="266.36363636363626" x2="382.72727272727275" y2="266.36363636363626" stroke="#E0E0E0" stroke-width="0.5" />
<line x1="379.72727272727275" y1="251.81818181818176" x2="382.72727272727275" y2="251.81818181818176" stroke="#E0E0E0" stroke-width="0.5" />
<line x1="379.72727272727275" y1="222.72727272727263" x2="382.72727272727275" y2="222.72727272727263" stroke="#E0E0E0" stroke-width="0.5" />
<line x1="379.72727272727275" y1="208.18181818181807" x2="382.72727272727275" y2="208.18181818181807" stroke="#E0E0E0" stroke-width="0.5" />
<line x1="379.72727272727275" y1="193.63636363636357" x2="382.72727272727275" y2="193.63636363636357" stroke="#E0E0E0" stroke-width="0.5" />
<line x1="379.72727272727275" y1="179.090909090909" x2="382.72727272727275" y2="179.090909090909" stroke="#E0E0E0" stroke-width="0.5" />
<line x1="379.72727272727275" y1="149.9999999999999" x2="382.72727272727275" y2="149.9999999999999" stroke="#E0E0E0" stroke-width="0.5" />
<line x1="379.72727272727275" y1="135.45454545454533" x2="382.72727272727275" y2="135.45454545454533" stroke="#E0E0E0" stroke-width="0.5" />
<line x1="379.72727272727275" y1="120.90909090909082" x2="382.72727272727275" y2="120.90909090909082" stroke="#E0E0E0" stroke-width="0.5" />
<line x1="379.72727272727275" y1="106.36363636363626" x2="382.72727272727275" y2="106.36363636363626" stroke="#E0E0E0" stroke-width="0.5" />
<line x1="379.72727272727275" y1="77.2727272727272" x2="382.72727272727275" y2="77.2727272727272" stroke="#E0E0E0" stroke-width="0.5" />
<rect x="455.4545454545455" y="382.72727272727263" width="51.5151515151515" height="145.4545454545455" fill="#1F77B4" stroke="#FFFFFF" stroke-width="0.5" />
<rect x="506.969696969697" y="237.2727272727272" width="51.5151515151515" height="290.90909090909093" fill="#1F77B4" stroke="#FFFFFF" stroke-width="0.5" />
<rect x="558.4848484848485" y="91.81818181818176" width="51.5151515151515" height="436.3636363636364" fill="#1F77B4" stroke="#FFFFFF" stroke-width="0.5" />
<rect x="610" y="382.72727272727263" width="51.5151515151515" height="145.4545454545455" fill="#1F77B4" stroke="#FFFFFF" stroke-width="0.5" />
<rect x="661.5151515151515" y="237.2727272727272" width="51.5151515151515" height="290.90909090909093" fill="#1F77B4" stroke="#FFFFFF" stroke-width="0.5" />
<rect x="713.030303030303" y="91.81818181818176" width="51.5151515151515" height="436.3636363636364" fill="#1F77B4" stroke="#FFFFFF" stroke-width="0.5" />
<g class="spine">
<line x1="440" y1="550" x2="780" y2="550" stroke="#E0E0E0" stroke-width="1" />
</g>
<g class="spine">
<line x1="440" y1="70" x2="780" y2="70" stroke="#E0E0E0" stroke-width="1" />
</g>
<g class="spine">
<line x1="440" y1="70" x2="440" y2="550" stroke="#E0E0E0" stroke-width="1" />
</g>
<g class="spine">
<line x1="780" y1="70" x2="780" y2="550" stroke="#E0E0E0" stroke-width="1" />
</g>
</svg>
