<svg xmlns="http://www.w3.org/2000/svg" viewBox="0 0 900 400" width="900" height="400">
<rect x="0" y="0" width="900" height="400" fill="#FFFFFF" />
<text x="450" y="25" font-family="sans-serif" font-size="17" text-anchor="middle" font-weight="bold" fill="#000000">Stock Price — Jan to Mar 2025</text>
<rect x="60" y="70" width="820" height="280" fill="#FFFFFF" />
<line x1="80.52093973441515" y1="70" x2="80.52093973441515" y2="350" stroke="#B0B0B0" stroke-width="0.8" />
<line x1="197.78345250256825" y1="70" x2="197.78345250256825" y2="350" stroke="#B0B0B0" stroke-width="0.8" />
<line x1="315.04596527066315" y1="70" x2="315.04596527066315" y2="350" stroke="#B0B0B0" stroke-width="0.8" />
<line x1="432.30847803881625" y1="70" x2="432.30847803881625" y2="350" stroke="#B0B0B0" stroke-width="0.8" />
<line x1="549.5709908069693" y1="70" x2="549.5709908069693" y2="350" stroke="#B0B0B0" stroke-width="0.8" />
<line x1="666.8335035751224" y1="70" x2="666.8335035751224" y2="350" stroke="#B0B0B0" stroke-width="0.8" />
<line x1="784.0960163432173" y1="70" x2="784.0960163432173" y2="350" stroke="#B0B0B0" stroke-width="0.8" />
<line x1="60" y1="309.2572361813932" x2="880" y2="309.2572361813932" stroke="#B0B0B0" stroke-width="0.8" />
<line x1="60" y1="248.47888035434698" x2="880" y2="248.47888035434698" stroke="#B0B0B0" stroke-width="0.8" />
<line x1="60" y1="187.70052452730124" x2="880" y2="187.70052452730124" stroke="#B0B0B0" stroke-width="0.8" />
<line x1="60" y1="126.92216870025504" x2="880" y2="126.92216870025504" stroke="#B0B0B0" stroke-width="0.8" />
<line x1="80.52093973441515" y1="350" x2="80.52093973441515" y2="355" stroke="#000000" stroke-width="1" />
<text x="80.52093973441515" y="365" font-family="sans-serif" font-size="13" text-anchor="middle" fill="#000000">Dec 30</text>
<line x1="197.78345250256825" y1="350" x2="197.78345250256825" y2="355" stroke="#000000" stroke-width="1" />
<text x="197.78345250256825" y="365" font-family="sans-serif" font-size="13" text-anchor="middle" fill="#000000">Jan 13</text>
<line x1="315.04596527066315" y1="350" x2="315.04596527066315" y2="355" stroke="#000000" stroke-width="1" />
<text x="315.04596527066315" y="365" font-family="sans-serif" font-size="13" text-anchor="middle" fill="#000000">Jan 27</text>
<line x1="432.30847803881625" y1="350" x2="432.30847803881625" y2="355" stroke="#000000" stroke-width="1" />
<text x="432.30847803881625" y="365" font-family="sans-serif" font-size="13" text-anchor="middle" fill="#000000">Feb 10</text>
<line x1="549.5709908069693" y1="350" x2="549.5709908069693" y2="355" stroke="#000000" stroke-width="1" />
<text x="549.5709908069693" y="365" font-family="sans-serif" font-size="13" text-anchor="middle" fill="#000000">Feb 24</text>
<line x1="666.8335035751224" y1="350" x2="666.8335035751224" y2="355" stroke="#000000" stroke-width="1" />
<text x="666.8335035751224" y="365" font-family="sans-serif" font-size="13" text-anchor="middle" fill="#000000">Mar 10</text>
<line x1="784.0960163432173" y1="350" x2="784.0960163432173" y2="355" stroke="#000000" stroke-width="1" />
<text x="784.0960163432173" y="365" font-family="sans-serif" font-size="13" text-anchor="middle" fill="#000000">Mar 24</text>
<line x1="103.97344228805741" y1="350" x2="103.97344228805741" y2="353" stroke="#000000" stroke-width="0.5" />
<line x1="127.42594484164147" y1="350" x2="127.42594484164147" y2="353" stroke="#000000" stroke-width="0.5" />
<line x1="150.87844739528373" y1="350" x2="150.87844739528373" y2="353" stroke="#000000" stroke-width="0.5" />
<line x1="174.330949948926" y1="350" x2="174.330949948926" y2="353" stroke="#000000" stroke-width="0.5" />
<line x1="221.2359550562105" y1="350" x2="221.2359550562105" y2="353" stroke="#000000" stroke-width="0.5" />
<line x1="244.68845760979457" y1="350" x2="244.68845760979457" y2="353" stroke="#000000" stroke-width="0.5" />
<line x1="268.14096016343683" y1="350" x2="268.14096016343683" y2="353" stroke="#000000" stroke-width="0.5" />
<line x1="291.5934627170209" y1="350" x2="291.5934627170209" y2="353" stroke="#000000" stroke-width="0.5" />
<line x1="338.4984678243636" y1="350" x2="338.4984678243636" y2="353" stroke="#000000" stroke-width="0.5" />
<line x1="361.95097037794767" y1="350" x2="361.95097037794767" y2="353" stroke="#000000" stroke-width="0.5" />
<line x1="385.40347293158993" y1="350" x2="385.40347293158993" y2="353" stroke="#000000" stroke-width="0.5" />
<line x1="408.855975485174" y1="350" x2="408.855975485174" y2="353" stroke="#000000" stroke-width="0.5" />
<line x1="455.7609805924585" y1="350" x2="455.7609805924585" y2="353" stroke="#000000" stroke-width="0.5" />
<line x1="479.21348314610077" y1="350" x2="479.21348314610077" y2="353" stroke="#000000" stroke-width="0.5" />
<line x1="502.66598569974303" y1="350" x2="502.66598569974303" y2="353" stroke="#000000" stroke-width="0.5" />
<line x1="526.1184882533271" y1="350" x2="526.1184882533271" y2="353" stroke="#000000" stroke-width="0.5" />
<line x1="573.0234933606116" y1="350" x2="573.0234933606116" y2="353" stroke="#000000" stroke-width="0.5" />
<line x1="596.4759959141957" y1="350" x2="596.4759959141957" y2="353" stroke="#000000" stroke-width="0.5" />
<line x1="619.9284984678379" y1="350" x2="619.9284984678379" y2="353" stroke="#000000" stroke-width="0.5" />
<line x1="643.3810010214802" y1="350" x2="643.3810010214802" y2="353" stroke="#000000" stroke-width="0.5" />
<line x1="690.2860061287647" y1="350" x2="690.2860061287647" y2="353" stroke="#000000" stroke-width="0.5" />
<line x1="713.7385086823488" y1="350" x2="713.7385086823488" y2="353" stroke="#000000" stroke-width="0.5" />
<line x1="737.191011235991" y1="350" x2="737.191011235991" y2="353" stroke="#000000" stroke-width="0.5" />
<line x1="760.6435137895751" y1="350" x2="760.6435137895751" y2="353" stroke="#000000" stroke-width="0.5" />
<line x1="807.5485188969178" y1="350" x2="807.5485188969178" y2="353" stroke="#000000" stroke-width="0.5" />
<line x1="831.0010214505019" y1="350" x2="831.0010214505019" y2="353" stroke="#000000" stroke-width="0.5" />
<line x1="854.4535240041441" y1="350" x2="854.4535240041441" y2="353" stroke="#000000" stroke-width="0.5" />
<line x1="877.9060265577282" y1="350" x2="877.9060265577282" y2="353" stroke="#000000" stroke-width="0.5" />
<line x1="-382334.284984701" y1="309.2572361813932" x2="-382329.284984701" y2="309.2572361813932" stroke="#000000" stroke-width="1" />
<text x="52" y="313.2572361813932" font-family="sans-serif" font-size="13" text-anchor="end" fill="#000000">50</text>
<line x1="-382334.284984701" y1="248.47888035434698" x2="-382329.284984701" y2="248.47888035434698" stroke="#000000" stroke-width="1" />
<text x="52" y="252.47888035434698" font-family="sans-serif" font-size="13" text-anchor="end" fill="#000000">51</text>
<line x1="-382334.284984701" y1="187.70052452730124" x2="-382329.284984701" y2="187.70052452730124" stroke="#000000" stroke-width="1" />
<text x="52" y="191.70052452730124" font-family="sans-serif" font-size="13" text-anchor="end" fill="#000000">52</text>
<line x1="-382334.284984701" y1="126.92216870025504" x2="-382329.284984701" y2="126.92216870025504" stroke="#000000" stroke-width="1" />
<text x="52" y="130.92216870025504" font-family="sans-serif" font-size="13" text-anchor="end" fill="#000000">53</text>
<line x1="-382332.284984701" y1="345.7242496776207" x2="-382329.284984701" y2="345.7242496776207" stroke="#000000" stroke-width="0.5" />
<line x1="-382332.284984701" y1="333.5685785122114" x2="-382329.284984701" y2="333.5685785122114" stroke="#000000" stroke-width="0.5" />
<line x1="-382332.284984701" y1="321.4129073468025" x2="-382329.284984701" y2="321.4129073468025" stroke="#000000" stroke-width="0.5" />
<line x1="-382332.284984701" y1="297.10156501598385" x2="-382329.284984701" y2="297.10156501598385" stroke="#000000" stroke-width="0.5" />
<line x1="-382332.284984701" y1="284.9458938505745" x2="-382329.284984701" y2="284.9458938505745" stroke="#000000" stroke-width="0.5" />
<line x1="-382332.284984701" y1="272.7902226851652" x2="-382329.284984701" y2="272.7902226851652" stroke="#000000" stroke-width="0.5" />
<line x1="-382332.284984701" y1="260.6345515197563" x2="-382329.284984701" y2="260.6345515197563" stroke="#000000" stroke-width="0.5" />
<line x1="-382332.284984701" y1="236.32320918893765" x2="-382329.284984701" y2="236.32320918893765" stroke="#000000" stroke-width="0.5" />
<line x1="-382332.284984701" y1="224.16753802352878" x2="-382329.284984701" y2="224.16753802352878" stroke="#000000" stroke-width="0.5" />
<line x1="-382332.284984701" y1="212.01186685811945" x2="-382329.284984701" y2="212.01186685811945" stroke="#000000" stroke-width="0.5" />
<line x1="-382332.284984701" y1="199.85619569271057" x2="-382329.284984701" y2="199.85619569271057" stroke="#000000" stroke-width="0.5" />
<line x1="-382332.284984701" y1="175.54485336189146" x2="-382329.284984701" y2="175.54485336189146" stroke="#000000" stroke-width="0.5" />
<line x1="-382332.284984701" y1="163.38918219648258" x2="-382329.284984701" y2="163.38918219648258" stroke="#000000" stroke-width="0.5" />
<line x1="-382332.284984701" y1="151.23351103107325" x2="-382329.284984701" y2="151.23351103107325" stroke="#000000" stroke-width="0.5" />
<line x1="-382332.284984701" y1="139.07783986566437" x2="-382329.284984701" y2="139.07783986566437" stroke="#000000" stroke-width="0.5" />
<line x1="-382332.284984701" y1="114.76649753484571" x2="-382329.284984701" y2="114.76649753484571" stroke="#000000" stroke-width="0.5" />
<line x1="-382332.284984701" y1="102.61082636943684" x2="-382329.284984701" y2="102.61082636943684" stroke="#000000" stroke-width="0.5" />
<line x1="-382332.284984701" y1="90.4551552040275" x2="-382329.284984701" y2="90.4551552040275" stroke="#000000" stroke-width="0.5" />
<line x1="-382332.284984701" y1="78.29948403861863" x2="-382329.284984701" y2="78.29948403861863" stroke="#000000" stroke-width="0.5" />
<polyline points="97.27272727272175,309.257236181393 105.64862104187445,318.08038731262104 114.02451481102713,282.4105716569295 122.40040858017983,265.9148436635143 130.77630234933252,304.9106890563173 139.15219611848522,315.26428205844246 147.52808988763792,297.3799978910631 155.90398365679061,337.27272727272697 164.2798774259433,294.0621704602947 172.655771195096,260.91669507883796 181.0316649642487,226.73232142087147 189.4075587334014,229.55669340665767 197.7834525025541,188.32017593487274 206.1593462717068,191.52777024500048 214.5352400408595,225.14135268704985 222.91113381001216,188.49616927614184 231.28702757916486,195.6060275902941 239.66292134831755,165.98718693892832 248.03881511747025,179.17526624849606 256.414708886623,143.92316464908765 264.7906026557757,185.40202489400588 273.16649642492837,161.0601405669039 281.542390194081,153.27364313215793 289.9182839632337,181.0854618821685 298.2941777323864,181.263571000483 306.6700715015391,189.83496218454732 315.0459652706918,230.99115809642632 323.4218590398445,187.92603971868098 331.7977528089972,229.41857231097893 340.1736465781499,229.39063800762162 348.5495403473026,207.6355951984281 356.9254341164553,181.07222342678 365.301327885608,197.73993325075287 373.6772216547607,231.28597262324192 382.05311542391337,260.09143582160084 390.42900919306607,295.92503207302565 398.80490296221876,333.63833268378005 407.18079673137146,301.83550162366333 415.55669050052416,331.7843799258532 423.93258426967685,326.1406348464064 432.30847803882955,284.925915602411 440.68437180798225,248.54999380634058 449.06026557713494,232.07243068435147 457.43615934628764,264.52947489212363 465.81205311544034,302.30934749814367 474.18794688459303,291.5743892491645 482.56384065374573,247.88279108258254 490.9397344228984,226.12021826596984 499.3156281920511,218.20048989655658 507.6915219612038,186.22976754575586 516.0674157303565,216.6341093242458 524.4433094995092,240.03418540354235 532.8192032686619,204.14790801590047 541.1950970378145,183.44075405022411 549.5709908069673,143.86889922260866 557.9468845761199,133.2459599166238 566.3227783452727,102.44849093750186 574.6986721144253,82.72727272727278 583.0745658835781,109.81385181101616 591.4504596527307,92.83118847465889 599.8263534218835,105.7890017603781 608.2022471910361,83.56271842564813 616.5781409601889,125.72333141048708 624.9540347293415,126.30112509688519 633.3299284984943,158.671108720095 641.7058222676469,194.81052302925008 650.0817160367997,224.72760138653643 658.4576098059523,193.7054607377355 666.833503575105,211.8680080449778 675.2093973442577,253.4084104310754 683.5852911134104,222.81034260488607 691.9611848825631,214.31591443405912 700.3370786517157,198.50861167597645 708.7129724208685,169.93331851989512 717.0888661900211,128.48881861938574 725.4647599591739,158.9364831152784 733.8406537283265,194.8325781056386 742.2165474974793,198.34945265859352 750.5924412666319,232.14181499805704 758.9683350357847,195.64776482025485 767.3442288049373,200.50363662580514 775.72012257409,216.0152878092009 784.0960163432427,224.6303139963423 792.4719101123954,250.68645139434503 800.8478038815481,264.01459150797126 809.2236976507008,262.6198888149542 817.5995914198535,224.53567688585207 825.9754851890062,214.50342313040537 834.3513789581484,240.21419978541417 842.7272727272939,232.23548474466224" fill="none" stroke="#1F77B4" stroke-width="1.5" />
<g class="spine">
<line x1="60" y1="350" x2="880" y2="350" stroke="#000000" stroke-width="1" />
</g>
<g class="spine">
<line x1="60" y1="70" x2="880" y2="70" stroke="#000000" stroke-width="1" />
</g>
<g class="spine">
<line x1="60" y1="70" x2="60" y2="350" stroke="#000000" stroke-width="1" />
</g>
<g class="spine">
<line x1="880" y1="70" x2="880" y2="350" stroke="#000000" stroke-width="1" />
</g>
<rect x="800.9" y="80" width="69.1" height="28" fill="#FFFFFF" fill-opacity="0.8627450980392157" stroke="#000000" stroke-width="0.5" />
<g class="legend">
<rect x="808.9" y="88" width="12" height="12" fill="#1F77B4" />
<text x="826.9" y="99" font-family="sans-serif" font-size="13" text-anchor="start" fill="#000000">ACME</text>
</g>
<text x="470" y="385" font-family="sans-serif" font-size="13" text-anchor="middle" fill="#000000">Date</text>
<text x="15" y="210" font-family="sans-serif" font-size="13" text-anchor="middle" fill="#000000">Price ()</text>
</svg>
