<svg xmlns="http://www.w3.org/2000/svg" viewBox="0 0 800 600" width="800" height="600">
<rect x="0" y="0" width="800" height="600" fill="#FFFFFF" />
<rect x="60" y="40" width="510" height="313.3333333333333" fill="#FFFFFF" />
<line x1="134.69696969696972" y1="40" x2="134.69696969696972" y2="353.3333333333333" stroke="#B0B0B0" stroke-width="0.8" />
<line x1="237.72727272727275" y1="40" x2="237.72727272727275" y2="353.3333333333333" stroke="#B0B0B0" stroke-width="0.8" />
<line x1="340.7575757575758" y1="40" x2="340.7575757575758" y2="353.3333333333333" stroke="#B0B0B0" stroke-width="0.8" />
<line x1="443.78787878787887" y1="40" x2="443.78787878787887" y2="353.3333333333333" stroke="#B0B0B0" stroke-width="0.8" />
<line x1="546.8181818181819" y1="40" x2="546.8181818181819" y2="353.3333333333333" stroke="#B0B0B0" stroke-width="0.8" />
<line x1="60" y1="342.9929431299294" x2="570" y2="342.9929431299294" stroke="#B0B0B0" stroke-width="0.8" />
<line x1="60" y1="264.9522623495226" x2="570" y2="264.9522623495226" stroke="#B0B0B0" stroke-width="0.8" />
<line x1="60" y1="186.9115815691158" x2="570" y2="186.9115815691158" stroke="#B0B0B0" stroke-width="0.8" />
<line x1="60" y1="108.87090078870904" x2="570" y2="108.87090078870904" stroke="#B0B0B0" stroke-width="0.8" />
<line x1="134.69696969696972" y1="353.3333333333333" x2="134.69696969696972" y2="358.3333333333333" stroke="#000000" stroke-width="1" />
<text x="134.69696969696972" y="368.3333333333333" font-family="sans-serif" font-size="13" text-anchor="middle" fill="#000000">2</text>
<line x1="237.72727272727275" y1="353.3333333333333" x2="237.72727272727275" y2="358.3333333333333" stroke="#000000" stroke-width="1" />
<text x="237.72727272727275" y="368.3333333333333" font-family="sans-serif" font-size="13" text-anchor="middle" fill="#000000">4</text>
<line x1="340.7575757575758" y1="353.3333333333333" x2="340.7575757575758" y2="358.3333333333333" stroke="#000000" stroke-width="1" />
<text x="340.7575757575758" y="368.3333333333333" font-family="sans-serif" font-size="13" text-anchor="middle" fill="#000000">6</text>
<line x1="443.78787878787887" y1="353.3333333333333" x2="443.78787878787887" y2="358.3333333333333" stroke="#000000" stroke-width="1" />
<text x="443.78787878787887" y="368.3333333333333" font-family="sans-serif" font-size="13" text-anchor="middle" fill="#000000">8</text>
<line x1="546.8181818181819" y1="353.3333333333333" x2="546.8181818181819" y2="358.3333333333333" stroke="#000000" stroke-width="1" />
<text x="546.8181818181819" y="368.3333333333333" font-family="sans-serif" font-size="13" text-anchor="middle" fill="#000000">10</text>
<line x1="72.87878787878788" y1="353.3333333333333" x2="72.87878787878788" y2="356.3333333333333" stroke="#000000" stroke-width="0.5" />
<line x1="93.48484848484848" y1="353.3333333333333" x2="93.48484848484848" y2="356.3333333333333" stroke="#000000" stroke-width="0.5" />
<line x1="114.0909090909091" y1="353.3333333333333" x2="114.0909090909091" y2="356.3333333333333" stroke="#000000" stroke-width="0.5" />
<line x1="155.3030303030303" y1="353.3333333333333" x2="155.3030303030303" y2="356.3333333333333" stroke="#000000" stroke-width="0.5" />
<line x1="175.9090909090909" y1="353.3333333333333" x2="175.9090909090909" y2="356.3333333333333" stroke="#000000" stroke-width="0.5" />
<line x1="196.51515151515153" y1="353.3333333333333" x2="196.51515151515153" y2="356.3333333333333" stroke="#000000" stroke-width="0.5" />
<line x1="217.12121212121215" y1="353.3333333333333" x2="217.12121212121215" y2="356.3333333333333" stroke="#000000" stroke-width="0.5" />
<line x1="258.33333333333337" y1="353.3333333333333" x2="258.33333333333337" y2="356.3333333333333" stroke="#000000" stroke-width="0.5" />
<line x1="278.939393939394" y1="353.3333333333333" x2="278.939393939394" y2="356.3333333333333" stroke="#000000" stroke-width="0.5" />
<line x1="299.5454545454546" y1="353.3333333333333" x2="299.5454545454546" y2="356.3333333333333" stroke="#000000" stroke-width="0.5" />
<line x1="320.1515151515152" y1="353.3333333333333" x2="320.1515151515152" y2="356.3333333333333" stroke="#000000" stroke-width="0.5" />
<line x1="361.36363636363643" y1="353.3333333333333" x2="361.36363636363643" y2="356.3333333333333" stroke="#000000" stroke-width="0.5" />
<line x1="381.96969696969705" y1="353.3333333333333" x2="381.96969696969705" y2="356.3333333333333" stroke="#000000" stroke-width="0.5" />
<line x1="402.5757575757577" y1="353.3333333333333" x2="402.5757575757577" y2="356.3333333333333" stroke="#000000" stroke-width="0.5" />
<line x1="423.18181818181824" y1="353.3333333333333" x2="423.18181818181824" y2="356.3333333333333" stroke="#000000" stroke-width="0.5" />
<line x1="464.3939393939395" y1="353.3333333333333" x2="464.3939393939395" y2="356.3333333333333" stroke="#000000" stroke-width="0.5" />
<line x1="485.0000000000001" y1="353.3333333333333" x2="485.0000000000001" y2="356.3333333333333" stroke="#000000" stroke-width="0.5" />
<line x1="505.6060606060607" y1="353.3333333333333" x2="505.6060606060607" y2="356.3333333333333" stroke="#000000" stroke-width="0.5" />
<line x1="526.2121212121212" y1="353.3333333333333" x2="526.2121212121212" y2="356.3333333333333" stroke="#000000" stroke-width="0.5" />
<line x1="567.4242424242425" y1="353.3333333333333" x2="567.4242424242425" y2="356.3333333333333" stroke="#000000" stroke-width="0.5" />
<line x1="26.66666666666666" y1="342.9929431299294" x2="31.66666666666666" y2="342.9929431299294" stroke="#000000" stroke-width="1" />
<text x="52" y="346.9929431299294" font-family="sans-serif" font-size="13" text-anchor="end" fill="#000000">2</text>
<line x1="26.66666666666666" y1="264.9522623495226" x2="31.66666666666666" y2="264.9522623495226" stroke="#000000" stroke-width="1" />
<text x="52" y="268.9522623495226" font-family="sans-serif" font-size="13" text-anchor="end" fill="#000000">4</text>
<line x1="26.66666666666666" y1="186.9115815691158" x2="31.66666666666666" y2="186.9115815691158" stroke="#000000" stroke-width="1" />
<text x="52" y="190.9115815691158" font-family="sans-serif" font-size="13" text-anchor="end" fill="#000000">6</text>
<line x1="26.66666666666666" y1="108.87090078870904" x2="31.66666666666666" y2="108.87090078870904" stroke="#000000" stroke-width="1" />
<text x="52" y="112.87090078870904" font-family="sans-serif" font-size="13" text-anchor="end" fill="#000000">8</text>
<line x1="28.66666666666666" y1="327.3848069738481" x2="31.66666666666666" y2="327.3848069738481" stroke="#000000" stroke-width="0.5" />
<line x1="28.66666666666666" y1="311.77667081776667" x2="31.66666666666666" y2="311.77667081776667" stroke="#000000" stroke-width="0.5" />
<line x1="28.66666666666666" y1="296.1685346616853" x2="31.66666666666666" y2="296.1685346616853" stroke="#000000" stroke-width="0.5" />
<line x1="28.66666666666666" y1="280.560398505604" x2="31.66666666666666" y2="280.560398505604" stroke="#000000" stroke-width="0.5" />
<line x1="28.66666666666666" y1="249.34412619344124" x2="31.66666666666666" y2="249.34412619344124" stroke="#000000" stroke-width="0.5" />
<line x1="28.66666666666666" y1="233.7359900373599" x2="31.66666666666666" y2="233.7359900373599" stroke="#000000" stroke-width="0.5" />
<line x1="28.66666666666666" y1="218.12785388127853" x2="31.66666666666666" y2="218.12785388127853" stroke="#000000" stroke-width="0.5" />
<line x1="28.66666666666666" y1="202.51971772519718" x2="31.66666666666666" y2="202.51971772519718" stroke="#000000" stroke-width="0.5" />
<line x1="28.66666666666666" y1="171.30344541303447" x2="31.66666666666666" y2="171.30344541303447" stroke="#000000" stroke-width="0.5" />
<line x1="28.66666666666666" y1="155.69530925695312" x2="31.66666666666666" y2="155.69530925695312" stroke="#000000" stroke-width="0.5" />
<line x1="28.66666666666666" y1="140.08717310087172" x2="31.66666666666666" y2="140.08717310087172" stroke="#000000" stroke-width="0.5" />
<line x1="28.66666666666666" y1="124.47903694479038" x2="31.66666666666666" y2="124.47903694479038" stroke="#000000" stroke-width="0.5" />
<line x1="28.66666666666666" y1="93.2627646326277" x2="31.66666666666666" y2="93.2627646326277" stroke="#000000" stroke-width="0.5" />
<line x1="28.66666666666666" y1="77.65462847654629" x2="31.66666666666666" y2="77.65462847654629" stroke="#000000" stroke-width="0.5" />
<line x1="28.66666666666666" y1="62.046492320465006" x2="31.66666666666666" y2="62.046492320465006" stroke="#000000" stroke-width="0.5" />
<line x1="28.66666666666666" y1="46.438356164383606" x2="31.66666666666666" y2="46.438356164383606" stroke="#000000" stroke-width="0.5" />
<polyline points="83.18181818181819,339.09090909090907 134.69696969696972,245.44209215442092 186.21212121212122,296.1685346616853 237.72727272727275,155.69530925695312 289.24242424242425,222.0298879202989 340.7575757575758,136.18513906185143 392.2727272727273,167.40141137401412 443.78787878787887,73.75259443752597 495.30303030303037,140.08717310087172 546.8181818181819,54.24242424242425" fill="none" stroke="#1F77B4" stroke-width="1.5" />
<g class="spine">
<line x1="60" y1="353.3333333333333" x2="570" y2="353.3333333333333" stroke="#000000" stroke-width="1" />
</g>
<g class="spine">
<line x1="60" y1="40" x2="570" y2="40" stroke="#000000" stroke-width="1" />
</g>
<g class="spine">
<line x1="60" y1="40" x2="60" y2="353.3333333333333" stroke="#000000" stroke-width="1" />
</g>
<g class="spine">
<line x1="570" y1="40" x2="570" y2="353.3333333333333" stroke="#000000" stroke-width="1" />
</g>
<text x="315" y="32" font-family="sans-serif" font-size="15" text-anchor="middle" font-weight="bold" fill="#000000">Main plot</text>
<rect x="610" y="40" width="170" height="313.3333333333333" fill="#FFFFFF" />
<line x1="634.8989898989898" y1="40" x2="634.8989898989898" y2="353.3333333333333" stroke="#B0B0B0" stroke-width="0.8" />
<line x1="669.2424242424242" y1="40" x2="669.2424242424242" y2="353.3333333333333" stroke="#B0B0B0" stroke-width="0.8" />
<line x1="703.5858585858585" y1="40" x2="703.5858585858585" y2="353.3333333333333" stroke="#B0B0B0" stroke-width="0.8" />
<line x1="737.929292929293" y1="40" x2="737.929292929293" y2="353.3333333333333" stroke="#B0B0B0" stroke-width="0.8" />
<line x1="772.2727272727273" y1="40" x2="772.2727272727273" y2="353.3333333333333" stroke="#B0B0B0" stroke-width="0.8" />
<line x1="610" y1="342.9929431299294" x2="780" y2="342.9929431299294" stroke="#B0B0B0" stroke-width="0.8" />
<line x1="610" y1="264.9522623495226" x2="780" y2="264.9522623495226" stroke="#B0B0B0" stroke-width="0.8" />
<line x1="610" y1="186.9115815691158" x2="780" y2="186.9115815691158" stroke="#B0B0B0" stroke-width="0.8" />
<line x1="610" y1="108.87090078870904" x2="780" y2="108.87090078870904" stroke="#B0B0B0" stroke-width="0.8" />
<line x1="634.8989898989898" y1="353.3333333333333" x2="634.8989898989898" y2="358.3333333333333" stroke="#000000" stroke-width="1" />
<text x="634.8989898989898" y="368.3333333333333" font-family="sans-serif" font-size="13" text-anchor="middle" fill="#000000">2</text>
<line x1="669.2424242424242" y1="353.3333333333333" x2="669.2424242424242" y2="358.3333333333333" stroke="#000000" stroke-width="1" />
<text x="669.2424242424242" y="368.3333333333333" font-family="sans-serif" font-size="13" text-anchor="middle" fill="#000000">4</text>
<line x1="703.5858585858585" y1="353.3333333333333" x2="703.5858585858585" y2="358.3333333333333" stroke="#000000" stroke-width="1" />
<text x="703.5858585858585" y="368.3333333333333" font-family="sans-serif" font-size="13" text-anchor="middle" fill="#000000">6</text>
<line x1="737.929292929293" y1="353.3333333333333" x2="737.929292929293" y2="358.3333333333333" stroke="#000000" stroke-width="1" />
<text x="737.929292929293" y="368.3333333333333" font-family="sans-serif" font-size="13" text-anchor="middle" fill="#000000">8</text>
<line x1="772.2727272727273" y1="353.3333333333333" x2="772.2727272727273" y2="358.3333333333333" stroke="#000000" stroke-width="1" />
<text x="772.2727272727273" y="368.3333333333333" font-family="sans-serif" font-size="13" text-anchor="middle" fill="#000000">10</text>
<line x1="614.2929292929293" y1="353.3333333333333" x2="614.2929292929293" y2="356.3333333333333" stroke="#000000" stroke-width="0.5" />
<line x1="621.1616161616162" y1="353.3333333333333" x2="621.1616161616162" y2="356.3333333333333" stroke="#000000" stroke-width="0.5" />
<line x1="628.030303030303" y1="353.3333333333333" x2="628.030303030303" y2="356.3333333333333" stroke="#000000" stroke-width="0.5" />
<line x1="641.7676767676768" y1="353.3333333333333" x2="641.7676767676768" y2="356.3333333333333" stroke="#000000" stroke-width="0.5" />
<line x1="648.6363636363636" y1="353.3333333333333" x2="648.6363636363636" y2="356.3333333333333" stroke="#000000" stroke-width="0.5" />
<line x1="655.5050505050505" y1="353.3333333333333" x2="655.5050505050505" y2="356.3333333333333" stroke="#000000" stroke-width="0.5" />
<line x1="662.3737373737374" y1="353.3333333333333" x2="662.3737373737374" y2="356.3333333333333" stroke="#000000" stroke-width="0.5" />
<line x1="676.1111111111111" y1="353.3333333333333" x2="676.1111111111111" y2="356.3333333333333" stroke="#000000" stroke-width="0.5" />
<line x1="682.9797979797979" y1="353.3333333333333" x2="682.9797979797979" y2="356.3333333333333" stroke="#000000" stroke-width="0.5" />
<line x1="689.8484848484849" y1="353.3333333333333" x2="689.8484848484849" y2="356.3333333333333" stroke="#000000" stroke-width="0.5" />
<line x1="696.7171717171717" y1="353.3333333333333" x2="696.7171717171717" y2="356.3333333333333" stroke="#000000" stroke-width="0.5" />
<line x1="710.4545454545455" y1="353.3333333333333" x2="710.4545454545455" y2="356.3333333333333" stroke="#000000" stroke-width="0.5" />
<line x1="717.3232323232323" y1="353.3333333333333" x2="717.3232323232323" y2="356.3333333333333" stroke="#000000" stroke-width="0.5" />
<line x1="724.1919191919192" y1="353.3333333333333" x2="724.1919191919192" y2="356.3333333333333" stroke="#000000" stroke-width="0.5" />
<line x1="731.060606060606" y1="353.3333333333333" x2="731.060606060606" y2="356.3333333333333" stroke="#000000" stroke-width="0.5" />
<line x1="744.7979797979798" y1="353.3333333333333" x2="744.7979797979798" y2="356.3333333333333" stroke="#000000" stroke-width="0.5" />
<line x1="751.6666666666667" y1="353.3333333333333" x2="751.6666666666667" y2="356.3333333333333" stroke="#000000" stroke-width="0.5" />
<line x1="758.5353535353536" y1="353.3333333333333" x2="758.5353535353536" y2="356.3333333333333" stroke="#000000" stroke-width="0.5" />
<line x1="765.4040404040404" y1="353.3333333333333" x2="765.4040404040404" y2="356.3333333333333" stroke="#000000" stroke-width="0.5" />
<line x1="779.1414141414141" y1="353.3333333333333" x2="779.1414141414141" y2="356.3333333333333" stroke="#000000" stroke-width="0.5" />
<line x1="595.5555555555555" y1="342.9929431299294" x2="600.5555555555555" y2="342.9929431299294" stroke="#000000" stroke-width="1" />
<text x="602" y="346.9929431299294" font-family="sans-serif" font-size="13" text-anchor="end" fill="#000000">2</text>
<line x1="595.5555555555555" y1="264.9522623495226" x2="600.5555555555555" y2="264.9522623495226" stroke="#000000" stroke-width="1" />
<text x="602" y="268.9522623495226" font-family="sans-serif" font-size="13" text-anchor="end" fill="#000000">4</text>
<line x1="595.5555555555555" y1="186.9115815691158" x2="600.5555555555555" y2="186.9115815691158" stroke="#000000" stroke-width="1" />
<text x="602" y="190.9115815691158" font-family="sans-serif" font-size="13" text-anchor="end" fill="#000000">6</text>
<line x1="595.5555555555555" y1="108.87090078870904" x2="600.5555555555555" y2="108.87090078870904" stroke="#000000" stroke-width="1" />
<text x="602" y="112.87090078870904" font-family="sans-serif" font-size="13" text-anchor="end" fill="#000000">8</text>
<line x1="597.5555555555555" y1="327.3848069738481" x2="600.5555555555555" y2="327.3848069738481" stroke="#000000" stroke-width="0.5" />
<line x1="597.5555555555555" y1="311.77667081776667" x2="600.5555555555555" y2="311.77667081776667" stroke="#000000" stroke-width="0.5" />
<line x1="597.5555555555555" y1="296.1685346616853" x2="600.5555555555555" y2="296.1685346616853" stroke="#000000" stroke-width="0.5" />
<line x1="597.5555555555555" y1="280.560398505604" x2="600.5555555555555" y2="280.560398505604" stroke="#000000" stroke-width="0.5" />
<line x1="597.5555555555555" y1="249.34412619344124" x2="600.5555555555555" y2="249.34412619344124" stroke="#000000" stroke-width="0.5" />
<line x1="597.5555555555555" y1="233.7359900373599" x2="600.5555555555555" y2="233.7359900373599" stroke="#000000" stroke-width="0.5" />
<line x1="597.5555555555555" y1="218.12785388127853" x2="600.5555555555555" y2="218.12785388127853" stroke="#000000" stroke-width="0.5" />
<line x1="597.5555555555555" y1="202.51971772519718" x2="600.5555555555555" y2="202.51971772519718" stroke="#000000" stroke-width="0.5" />
<line x1="597.5555555555555" y1="171.30344541303447" x2="600.5555555555555" y2="171.30344541303447" stroke="#000000" stroke-width="0.5" />
<line x1="597.5555555555555" y1="155.69530925695312" x2="600.5555555555555" y2="155.69530925695312" stroke="#000000" stroke-width="0.5" />
<line x1="597.5555555555555" y1="140.08717310087172" x2="600.5555555555555" y2="140.08717310087172" stroke="#000000" stroke-width="0.5" />
<line x1="597.5555555555555" y1="124.47903694479038" x2="600.5555555555555" y2="124.47903694479038" stroke="#000000" stroke-width="0.5" />
<line x1="597.5555555555555" y1="93.2627646326277" x2="600.5555555555555" y2="93.2627646326277" stroke="#000000" stroke-width="0.5" />
<line x1="597.5555555555555" y1="77.65462847654629" x2="600.5555555555555" y2="77.65462847654629" stroke="#000000" stroke-width="0.5" />
<line x1="597.5555555555555" y1="62.046492320465006" x2="600.5555555555555" y2="62.046492320465006" stroke="#000000" stroke-width="0.5" />
<line x1="597.5555555555555" y1="46.438356164383606" x2="600.5555555555555" y2="46.438356164383606" stroke="#000000" stroke-width="0.5" />
<circle cx="617.7272727272727" cy="339.09090909090907" r="3" fill="#1F77B4" />
<circle cx="634.8989898989898" cy="245.44209215442092" r="3" fill="#1F77B4" />
<circle cx="652.070707070707" cy="296.1685346616853" r="3" fill="#1F77B4" />
<circle cx="669.2424242424242" cy="155.69530925695312" r="3" fill="#1F77B4" />
<circle cx="686.4141414141415" cy="222.0298879202989" r="3" fill="#1F77B4" />
<circle cx="703.5858585858585" cy="136.18513906185143" r="3" fill="#1F77B4" />
<circle cx="720.7575757575758" cy="167.40141137401412" r="3" fill="#1F77B4" />
<circle cx="737.929292929293" cy="73.75259443752597" r="3" fill="#1F77B4" />
<circle cx="755.1010101010102" cy="140.08717310087172" r="3" fill="#1F77B4" />
<circle cx="772.2727272727273" cy="54.24242424242425" r="3" fill="#1F77B4" />
<g class="spine">
<line x1="610" y1="353.3333333333333" x2="780" y2="353.3333333333333" stroke="#000000" stroke-width="1" />
</g>
<g class="spine">
<line x1="610" y1="40" x2="780" y2="40" stroke="#000000" stroke-width="1" />
</g>
<g class="spine">
<line x1="610" y1="40" x2="610" y2="353.3333333333333" stroke="#000000" stroke-width="1" />
</g>
<g class="spine">
<line x1="780" y1="40" x2="780" y2="353.3333333333333" stroke="#000000" stroke-width="1" />
</g>
<text x="695" y="32" font-family="sans-serif" font-size="15" text-anchor="middle" font-weight="bold" fill="#000000">Scatter</text>
<rect x="60" y="393.3333333333333" width="720" height="156.66666666666666" fill="#FFFFFF" />
<line x1="92.72727272727272" y1="393.3333333333333" x2="92.72727272727272" y2="550" stroke="#B0B0B0" stroke-width="0.8" />
<line x1="256.3636363636364" y1="393.3333333333333" x2="256.3636363636364" y2="550" stroke="#B0B0B0" stroke-width="0.8" />
<line x1="420" y1="393.3333333333333" x2="420" y2="550" stroke="#B0B0B0" stroke-width="0.8" />
<line x1="583.6363636363636" y1="393.3333333333333" x2="583.6363636363636" y2="550" stroke="#B0B0B0" stroke-width="0.8" />
<line x1="747.2727272727273" y1="393.3333333333333" x2="747.2727272727273" y2="550" stroke="#B0B0B0" stroke-width="0.8" />
<line x1="60" y1="542.8787878787879" x2="780" y2="542.8787878787879" stroke="#B0B0B0" stroke-width="0.8" />
<line x1="60" y1="508.968253968254" x2="780" y2="508.968253968254" stroke="#B0B0B0" stroke-width="0.8" />
<line x1="60" y1="475.0577200577201" x2="780" y2="475.0577200577201" stroke="#B0B0B0" stroke-width="0.8" />
<line x1="60" y1="441.1471861471862" x2="780" y2="441.1471861471862" stroke="#B0B0B0" stroke-width="0.8" />
<line x1="60" y1="407.2366522366523" x2="780" y2="407.2366522366523" stroke="#B0B0B0" stroke-width="0.8" />
<text x="174.54545454545453" y="565" font-family="sans-serif" font-size="13" text-anchor="middle" fill="#000000">A</text>
<text x="338.18181818181813" y="565" font-family="sans-serif" font-size="13" text-anchor="middle" fill="#000000">B</text>
<text x="501.81818181818176" y="565" font-family="sans-serif" font-size="13" text-anchor="middle" fill="#000000">C</text>
<text x="665.4545454545455" y="565" font-family="sans-serif" font-size="13" text-anchor="middle" fill="#000000">D</text>
<line x1="87.72727272727272" y1="542.8787878787879" x2="92.72727272727272" y2="542.8787878787879" stroke="#000000" stroke-width="1" />
<text x="52" y="546.8787878787879" font-family="sans-serif" font-size="13" text-anchor="end" fill="#000000">0</text>
<line x1="87.72727272727272" y1="508.968253968254" x2="92.72727272727272" y2="508.968253968254" stroke="#000000" stroke-width="1" />
<text x="52" y="512.968253968254" font-family="sans-serif" font-size="13" text-anchor="end" fill="#000000">10</text>
<line x1="87.72727272727272" y1="475.0577200577201" x2="92.72727272727272" y2="475.0577200577201" stroke="#000000" stroke-width="1" />
<text x="52" y="479.0577200577201" font-family="sans-serif" font-size="13" text-anchor="end" fill="#000000">20</text>
<line x1="87.72727272727272" y1="441.1471861471862" x2="92.72727272727272" y2="441.1471861471862" stroke="#000000" stroke-width="1" />
<text x="52" y="445.1471861471862" font-family="sans-serif" font-size="13" text-anchor="end" fill="#000000">30</text>
<line x1="87.72727272727272" y1="407.2366522366523" x2="92.72727272727272" y2="407.2366522366523" stroke="#000000" stroke-width="1" />
<text x="52" y="411.2366522366523" font-family="sans-serif" font-size="13" text-anchor="end" fill="#000000">40</text>
<line x1="89.72727272727272" y1="549.6608946608947" x2="92.72727272727272" y2="549.6608946608947" stroke="#000000" stroke-width="0.5" />
<line x1="89.72727272727272" y1="536.0966810966811" x2="92.72727272727272" y2="536.0966810966811" stroke="#000000" stroke-width="0.5" />
<line x1="89.72727272727272" y1="529.3145743145743" x2="92.72727272727272" y2="529.3145743145743" stroke="#000000" stroke-width="0.5" />
<line x1="89.72727272727272" y1="522.5324675324675" x2="92.72727272727272" y2="522.5324675324675" stroke="#000000" stroke-width="0.5" />
<line x1="89.72727272727272" y1="515.7503607503608" x2="92.72727272727272" y2="515.7503607503608" stroke="#000000" stroke-width="0.5" />
<line x1="89.72727272727272" y1="502.1861471861472" x2="92.72727272727272" y2="502.1861471861472" stroke="#000000" stroke-width="0.5" />
<line x1="89.72727272727272" y1="495.4040404040404" x2="92.72727272727272" y2="495.4040404040404" stroke="#000000" stroke-width="0.5" />
<line x1="89.72727272727272" y1="488.62193362193364" x2="92.72727272727272" y2="488.62193362193364" stroke="#000000" stroke-width="0.5" />
<line x1="89.72727272727272" y1="481.83982683982686" x2="92.72727272727272" y2="481.83982683982686" stroke="#000000" stroke-width="0.5" />
<line x1="89.72727272727272" y1="468.2756132756133" x2="92.72727272727272" y2="468.2756132756133" stroke="#000000" stroke-width="0.5" />
<line x1="89.72727272727272" y1="461.4935064935065" x2="92.72727272727272" y2="461.4935064935065" stroke="#000000" stroke-width="0.5" />
<line x1="89.72727272727272" y1="454.71139971139974" x2="92.72727272727272" y2="454.71139971139974" stroke="#000000" stroke-width="0.5" />
<line x1="89.72727272727272" y1="447.92929292929296" x2="92.72727272727272" y2="447.92929292929296" stroke="#000000" stroke-width="0.5" />
<line x1="89.72727272727272" y1="434.3650793650794" x2="92.72727272727272" y2="434.3650793650794" stroke="#000000" stroke-width="0.5" />
<line x1="89.72727272727272" y1="427.5829725829726" x2="92.72727272727272" y2="427.5829725829726" stroke="#000000" stroke-width="0.5" />
<line x1="89.72727272727272" y1="420.80086580086584" x2="92.72727272727272" y2="420.80086580086584" stroke="#000000" stroke-width="0.5" />
<line x1="89.72727272727272" y1="414.01875901875906" x2="92.72727272727272" y2="414.01875901875906" stroke="#000000" stroke-width="0.5" />
<line x1="89.72727272727272" y1="400.4545454545455" x2="92.72727272727272" y2="400.4545454545455" stroke="#000000" stroke-width="0.5" />
<line x1="89.72727272727272" y1="393.6724386724387" x2="92.72727272727272" y2="393.6724386724387" stroke="#000000" stroke-width="0.5" />
<rect x="109.09090909090908" y="492.012987012987" width="130.90909090909093" height="50.86580086580085" fill="#1F77B4" />
<rect x="272.72727272727275" y="400.4545454545455" width="130.90909090909088" height="142.42424242424238" fill="#1F77B4" />
<rect x="436.3636363636364" y="447.92929292929296" width="130.90909090909088" height="94.94949494949492" fill="#1F77B4" />
<rect x="600" y="417.40981240981245" width="130.90909090909088" height="125.46897546897543" fill="#1F77B4" />
<g class="spine">
<line x1="60" y1="550" x2="780" y2="550" stroke="#000000" stroke-width="1" />
</g>
<g class="spine">
<line x1="60" y1="393.3333333333333" x2="780" y2="393.3333333333333" stroke="#000000" stroke-width="1" />
</g>
<g class="spine">
<line x1="60" y1="393.3333333333333" x2="60" y2="550" stroke="#000000" stroke-width="1" />
</g>
<g class="spine">
<line x1="780" y1="393.3333333333333" x2="780" y2="550" stroke="#000000" stroke-width="1" />
</g>
<text x="420" y="385.3333333333333" font-family="sans-serif" font-size="15" text-anchor="middle" font-weight="bold" fill="#000000">Wide bar</text>
</svg>
