<svg xmlns="http://www.w3.org/2000/svg" viewBox="0 0 800 600" width="800" height="600">
<rect x="0" y="0" width="800" height="600" fill="#FFFFFF" />
<rect x="60" y="40" width="720" height="510" fill="#FFFFFF" />
<line x1="92.72727272727272" y1="40" x2="92.72727272727272" y2="550" stroke="#B0B0B0" stroke-width="0.8" />
<line x1="223.64945585467635" y1="40" x2="223.64945585467635" y2="550" stroke="#B0B0B0" stroke-width="0.8" />
<line x1="354.57163898208" y1="40" x2="354.57163898208" y2="550" stroke="#B0B0B0" stroke-width="0.8" />
<line x1="485.49382210948363" y1="40" x2="485.49382210948363" y2="550" stroke="#B0B0B0" stroke-width="0.8" />
<line x1="616.4160052368873" y1="40" x2="616.4160052368873" y2="550" stroke="#B0B0B0" stroke-width="0.8" />
<line x1="747.338188364291" y1="40" x2="747.338188364291" y2="550" stroke="#B0B0B0" stroke-width="0.8" />
<line x1="60" y1="528.9826573909277" x2="780" y2="528.9826573909277" stroke="#B0B0B0" stroke-width="0.8" />
<line x1="60" y1="451.3491841894094" x2="780" y2="451.3491841894094" stroke="#B0B0B0" stroke-width="0.8" />
<line x1="60" y1="373.71571098789116" x2="780" y2="373.71571098789116" stroke="#B0B0B0" stroke-width="0.8" />
<line x1="60" y1="296.08223778637296" x2="780" y2="296.08223778637296" stroke="#B0B0B0" stroke-width="0.8" />
<line x1="60" y1="218.4487645848547" x2="780" y2="218.4487645848547" stroke="#B0B0B0" stroke-width="0.8" />
<line x1="60" y1="140.81529138333644" x2="780" y2="140.81529138333644" stroke="#B0B0B0" stroke-width="0.8" />
<line x1="60" y1="63.18181818181819" x2="780" y2="63.18181818181819" stroke="#B0B0B0" stroke-width="0.8" />
<line x1="92.72727272727272" y1="550" x2="92.72727272727272" y2="555" stroke="#000000" stroke-width="1" />
<text x="92.72727272727272" y="565" font-family="sans-serif" font-size="13" text-anchor="middle" fill="#000000">0</text>
<line x1="223.64945585467635" y1="550" x2="223.64945585467635" y2="555" stroke="#000000" stroke-width="1" />
<text x="223.64945585467635" y="565" font-family="sans-serif" font-size="13" text-anchor="middle" fill="#000000">2000</text>
<line x1="354.57163898208" y1="550" x2="354.57163898208" y2="555" stroke="#000000" stroke-width="1" />
<text x="354.57163898208" y="565" font-family="sans-serif" font-size="13" text-anchor="middle" fill="#000000">4000</text>
<line x1="485.49382210948363" y1="550" x2="485.49382210948363" y2="555" stroke="#000000" stroke-width="1" />
<text x="485.49382210948363" y="565" font-family="sans-serif" font-size="13" text-anchor="middle" fill="#000000">6000</text>
<line x1="616.4160052368873" y1="550" x2="616.4160052368873" y2="555" stroke="#000000" stroke-width="1" />
<text x="616.4160052368873" y="565" font-family="sans-serif" font-size="13" text-anchor="middle" fill="#000000">8000</text>
<line x1="747.338188364291" y1="550" x2="747.338188364291" y2="555" stroke="#000000" stroke-width="1" />
<text x="747.338188364291" y="565" font-family="sans-serif" font-size="13" text-anchor="middle" fill="#000000">10000</text>
<line x1="66.54283610179199" y1="550" x2="66.54283610179199" y2="553" stroke="#000000" stroke-width="0.5" />
<line x1="118.91170935275345" y1="550" x2="118.91170935275345" y2="553" stroke="#000000" stroke-width="0.5" />
<line x1="145.09614597823418" y1="550" x2="145.09614597823418" y2="553" stroke="#000000" stroke-width="0.5" />
<line x1="171.2805826037149" y1="550" x2="171.2805826037149" y2="553" stroke="#000000" stroke-width="0.5" />
<line x1="197.46501922919563" y1="550" x2="197.46501922919563" y2="553" stroke="#000000" stroke-width="0.5" />
<line x1="249.8338924801571" y1="550" x2="249.8338924801571" y2="553" stroke="#000000" stroke-width="0.5" />
<line x1="276.0183291056378" y1="550" x2="276.0183291056378" y2="553" stroke="#000000" stroke-width="0.5" />
<line x1="302.2027657311186" y1="550" x2="302.2027657311186" y2="553" stroke="#000000" stroke-width="0.5" />
<line x1="328.38720235659923" y1="550" x2="328.38720235659923" y2="553" stroke="#000000" stroke-width="0.5" />
<line x1="380.7560756075608" y1="550" x2="380.7560756075608" y2="553" stroke="#000000" stroke-width="0.5" />
<line x1="406.94051223304143" y1="550" x2="406.94051223304143" y2="553" stroke="#000000" stroke-width="0.5" />
<line x1="433.1249488585222" y1="550" x2="433.1249488585222" y2="553" stroke="#000000" stroke-width="0.5" />
<line x1="459.30938548400286" y1="550" x2="459.30938548400286" y2="553" stroke="#000000" stroke-width="0.5" />
<line x1="511.6782587349644" y1="550" x2="511.6782587349644" y2="553" stroke="#000000" stroke-width="0.5" />
<line x1="537.8626953604451" y1="550" x2="537.8626953604451" y2="553" stroke="#000000" stroke-width="0.5" />
<line x1="564.0471319859258" y1="550" x2="564.0471319859258" y2="553" stroke="#000000" stroke-width="0.5" />
<line x1="590.2315686114066" y1="550" x2="590.2315686114066" y2="553" stroke="#000000" stroke-width="0.5" />
<line x1="642.600441862368" y1="550" x2="642.600441862368" y2="553" stroke="#000000" stroke-width="0.5" />
<line x1="668.7848784878488" y1="550" x2="668.7848784878488" y2="553" stroke="#000000" stroke-width="0.5" />
<line x1="694.9693151133295" y1="550" x2="694.9693151133295" y2="553" stroke="#000000" stroke-width="0.5" />
<line x1="721.1537517388102" y1="550" x2="721.1537517388102" y2="553" stroke="#000000" stroke-width="0.5" />
<line x1="773.5226249897717" y1="550" x2="773.5226249897717" y2="553" stroke="#000000" stroke-width="0.5" />
<line x1="87.72727272727272" y1="528.9826573909277" x2="92.72727272727272" y2="528.9826573909277" stroke="#000000" stroke-width="1" />
<text x="52" y="532.9826573909277" font-family="sans-serif" font-size="13" text-anchor="end" fill="#000000">-1</text>
<line x1="87.72727272727272" y1="451.3491841894094" x2="92.72727272727272" y2="451.3491841894094" stroke="#000000" stroke-width="1" />
<text x="52" y="455.3491841894094" font-family="sans-serif" font-size="13" text-anchor="end" fill="#000000">0</text>
<line x1="87.72727272727272" y1="373.71571098789116" x2="92.72727272727272" y2="373.71571098789116" stroke="#000000" stroke-width="1" />
<text x="52" y="377.71571098789116" font-family="sans-serif" font-size="13" text-anchor="end" fill="#000000">1</text>
<line x1="87.72727272727272" y1="296.08223778637296" x2="92.72727272727272" y2="296.08223778637296" stroke="#000000" stroke-width="1" />
<text x="52" y="300.08223778637296" font-family="sans-serif" font-size="13" text-anchor="end" fill="#000000">2</text>
<line x1="87.72727272727272" y1="218.4487645848547" x2="92.72727272727272" y2="218.4487645848547" stroke="#000000" stroke-width="1" />
<text x="52" y="222.4487645848547" font-family="sans-serif" font-size="13" text-anchor="end" fill="#000000">3</text>
<line x1="87.72727272727272" y1="140.81529138333644" x2="92.72727272727272" y2="140.81529138333644" stroke="#000000" stroke-width="1" />
<text x="52" y="144.81529138333644" font-family="sans-serif" font-size="13" text-anchor="end" fill="#000000">4</text>
<line x1="87.72727272727272" y1="63.18181818181819" x2="92.72727272727272" y2="63.18181818181819" stroke="#000000" stroke-width="1" />
<text x="52" y="67.18181818181819" font-family="sans-serif" font-size="13" text-anchor="end" fill="#000000">5</text>
<line x1="89.72727272727272" y1="544.5093520312313" x2="92.72727272727272" y2="544.5093520312313" stroke="#000000" stroke-width="0.5" />
<line x1="89.72727272727272" y1="513.455962750624" x2="92.72727272727272" y2="513.455962750624" stroke="#000000" stroke-width="0.5" />
<line x1="89.72727272727272" y1="497.9292681103204" x2="92.72727272727272" y2="497.9292681103204" stroke="#000000" stroke-width="0.5" />
<line x1="89.72727272727272" y1="482.4025734700167" x2="92.72727272727272" y2="482.4025734700167" stroke="#000000" stroke-width="0.5" />
<line x1="89.72727272727272" y1="466.8758788297131" x2="92.72727272727272" y2="466.8758788297131" stroke="#000000" stroke-width="0.5" />
<line x1="89.72727272727272" y1="435.82248954910574" x2="92.72727272727272" y2="435.82248954910574" stroke="#000000" stroke-width="0.5" />
<line x1="89.72727272727272" y1="420.2957949088021" x2="92.72727272727272" y2="420.2957949088021" stroke="#000000" stroke-width="0.5" />
<line x1="89.72727272727272" y1="404.76910026849845" x2="92.72727272727272" y2="404.76910026849845" stroke="#000000" stroke-width="0.5" />
<line x1="89.72727272727272" y1="389.24240562819483" x2="92.72727272727272" y2="389.24240562819483" stroke="#000000" stroke-width="0.5" />
<line x1="89.72727272727272" y1="358.18901634758754" x2="92.72727272727272" y2="358.18901634758754" stroke="#000000" stroke-width="0.5" />
<line x1="89.72727272727272" y1="342.66232170728387" x2="92.72727272727272" y2="342.66232170728387" stroke="#000000" stroke-width="0.5" />
<line x1="89.72727272727272" y1="327.1356270669802" x2="92.72727272727272" y2="327.1356270669802" stroke="#000000" stroke-width="0.5" />
<line x1="89.72727272727272" y1="311.6089324266766" x2="92.72727272727272" y2="311.6089324266766" stroke="#000000" stroke-width="0.5" />
<line x1="89.72727272727272" y1="280.5555431460692" x2="92.72727272727272" y2="280.5555431460692" stroke="#000000" stroke-width="0.5" />
<line x1="89.72727272727272" y1="265.0288485057656" x2="92.72727272727272" y2="265.0288485057656" stroke="#000000" stroke-width="0.5" />
<line x1="89.72727272727272" y1="249.50215386546196" x2="92.72727272727272" y2="249.50215386546196" stroke="#000000" stroke-width="0.5" />
<line x1="89.72727272727272" y1="233.97545922515835" x2="92.72727272727272" y2="233.97545922515835" stroke="#000000" stroke-width="0.5" />
<line x1="89.72727272727272" y1="202.92206994455103" x2="92.72727272727272" y2="202.92206994455103" stroke="#000000" stroke-width="0.5" />
<line x1="89.72727272727272" y1="187.3953753042474" x2="92.72727272727272" y2="187.3953753042474" stroke="#000000" stroke-width="0.5" />
<line x1="89.72727272727272" y1="171.86868066394373" x2="92.72727272727272" y2="171.86868066394373" stroke="#000000" stroke-width="0.5" />
<line x1="89.72727272727272" y1="156.34198602364012" x2="92.72727272727272" y2="156.34198602364012" stroke="#000000" stroke-width="0.5" />
<line x1="89.72727272727272" y1="125.28859674303277" x2="92.72727272727272" y2="125.28859674303277" stroke="#000000" stroke-width="0.5" />
<line x1="89.72727272727272" y1="109.7619021027291" x2="92.72727272727272" y2="109.7619021027291" stroke="#000000" stroke-width="0.5" />
<line x1="89.72727272727272" y1="94.23520746242554" x2="92.72727272727272" y2="94.23520746242554" stroke="#000000" stroke-width="0.5" />
<line x1="89.72727272727272" y1="78.70851282212186" x2="92.72727272727272" y2="78.70851282212186" stroke="#000000" stroke-width="0.5" />
<line x1="89.72727272727272" y1="47.65512354151451" x2="92.72727272727272" y2="47.65512354151451" stroke="#000000" stroke-width="0.5" />
<polyline points="92.72727272727272,63.1818181818182 92.79273381883642,447.4702915335644 94.49472219949267,376.2114780186207 95.6730218476393,391.7546409171102 97.76777677767775,500.7060588787347 98.8806153342607,526.8181818181819 99.86253170771622,506.9555709950494 101.82636445462727,405.2950205480738 102.8737419196465,377.6432857087203 103.85565829310202,392.4420481237772 105.81949104001308,491.1239013722917 106.86686850503231,522.7244122569374 107.84878487848783,512.9341917935528 109.7471565338352,421.1777451468054 110.85999509041812,382.8318493387862 111.90737255543735,389.3949289987559 112.49652237951067,410.8461316906187 114.52581621798542,508.16659084332156 115.70411586613206,518.6688831281064 116.55511005646018,493.44698508790964 118.51894280337123,399.5065789037212 119.69724245151787,383.8460195110137 120.6136977334097,407.8006405010829 122.57753048032075,500.3352902880903 123.95221340315848,515.8594291933155 125.45781850912363,72.0255289854018 125.58874069225104,453.5352420118193 127.35619016447099,387.225891188981 128.5344898126176,398.759116462077 130.62924474265608,492.16062242919367 131.742083299239,516.2058683213809 132.72399967269453,500.5785759507684 134.6878324196056,413.4026421109513 135.73520988462482,388.19855236805927 136.71712625808036,399.45431352054453 138.6809590049914,483.81728928338987 139.72833647001062,512.3144970101577 140.77571393502984,503.7343841204761 142.6086244988135,427.2447528116204 143.72146305539644,393.0125263466782 144.76884052041567,397.10288046287144 145.4234514360527,417.38820480250195 147.38728418296375,499.0333753274064 148.56558383111036,509.75316024421375 149.41657802143848,489.1027367861958 151.38041076834955,408.05977710113416 152.55871041649618,392.96944556594 153.475165698388,412.4268528658244 155.43899844529906,492.1478886237153 156.87914245970052,506.53178908318284 158.18836429097453,78.27159724571437 158.45020865722935,455.1080261899407 160.2176581294493,396.68828409854103 161.39595777759592,405.01837056532133 163.5561737991981,487.1947398127038 164.669012355781,507.156793689063 165.65092872923654,493.0554115968726 167.5493003845839,420.17841737558444 168.66213894116683,396.92297540074435 169.64405531462236,407.2717235612318 171.5424269699697,477.74633957077634 172.58980443498893,503.36402888693476 173.63718190000816,497.33534991270955 174.2263317240815,480.7165796478872 176.19016447099253,409.27525726354054 177.43392521070288,401.0030042798181 178.21945830946729,418.6259338480875 180.24875214794204,491.29941854691407 181.4925128876524,501.3545201001468 182.34350707798052,483.12028861752793 184.30733982489156,413.5264877683481 185.4856394730382,401.28215942388164 186.40209475493003,418.53699577756566 188.30046641027738,485.25470251023273 189.7406104246788,499.28109381024933 190.91891007282544,82.37750860565417 191.31167662220767,456.1948385775212 193.0791260944276,404.80861104508716 194.25742574257424,410.59809627183085 196.4176417641764,480.9509954447122 197.53048032075932,499.2848883489358 198.51239669421486,488.23976144660514 200.47622944112592,423.87414003056205 201.52360690614515,404.74126538368523 202.50552327960068,412.5484683921072 204.40389493494803,472.7139558157448 205.45127239996725,495.6766508293007 206.49864986498648,491.6592511335938 207.0877996890598,477.8543383951814 209.11709352753456,414.6964944322296 210.2953931756812,407.6305994838575 211.14638736600932,423.8222074896017 213.17568120448408,486.1921951247297 214.3539808526307,494.7084984680807 215.20497504295884,479.8045859396808 217.16880778986987,419.7962223485795 218.3471074380165,408.07148070646133 219.26356271990835,422.0572358676301 221.2273954668194,481.048699057853 222.73300057278453,491.6877958384494 223.64945585467635,84.75611038539962 224.173144587186,456.89982066718346 225.94059405940592,411.7696933962439 227.11889370755256,415.5608106748585 229.34457082071842,477.36681846913484 230.39194828573764,492.4790644521619 231.37386465919317,483.92142774038615 233.33769740610424,428.81497854363926 234.38507487112346,411.48024005061086 235.366991244579,417.24707724422126 237.26536289992634,468.5530427352242 238.31274036494557,489.08121898179934 239.3601178299648,486.63425441499567 240.01472874560181,473.5811319416843 241.97856149251288,420.59881052741275 243.15686114065952,413.4294036121526 244.00785533098764,426.6767602133068 246.0371491694624,480.5162683151547 247.21544881760903,488.9034137649519 248.13190409950084,475.311664513223 250.0302757548482,425.08122401197204 251.20857540299482,413.98092664558055 252.12503068488664,425.26152538927465 254.0888634317977,476.00397657631777 255.65992962932654,485.8208975009796 256.38000163652725,85.77291884510352 257.0346125521643,457.3078453019545 258.8020620243842,417.73053399742753 259.9803616725309,419.96540126205787 262.2060387856967,472.80661893038064 263.253416250716,486.6013702246441 264.23533262417146,480.0594626233841 266.19916537108253,432.9320910078315 267.24654283610175,417.282661208126 268.2284592095573,421.42173310655295 270.12683086490466,465.12212395131553 271.2396694214876,483.98104005782164 272.2870468865068,481.4192036535659 272.9416578021438,469.97930230995775 274.8400294574912,425.59552062564967 276.0837901972015,418.8784184820097 276.93478438752965,430.5803089032292 278.8986171344407,475.7194777799391 280.0769167825873,483.83938407997005 280.99337206447916,472.7839821906236 282.9572048113902,428.3613971255354 284.13550445953683,419.274651242097 285.0519597414287,429.31645235429255 286.950331396776,471.7665922707955 288.52139759430486,481.3477191425254 289.1105474183782,85.74575944952441 289.8960805171426,457.4877906667527 291.7289910809263,422.2417941920687 292.9072907290729,424.62912808252514 295.067506750675,468.99319234441424 296.1148842156943,481.53073371992963 297.0968005891498,476.61422642762653 298.99517224449716,437.67776762882784 300.10801080108007,422.27333231140125 301.1553882660993,425.879006028209 301.7445380901726,435.2440189622588 303.7083708370837,474.99208792700006 304.95213157679405,479.321187098347 305.73766467555845,469.34644105855506 307.7669585140332,428.8835448872796 308.9452581621798,423.2004525743787 309.79625235250796,432.75789320797963 311.76008509941903,471.6713689357537 312.93838474756564,479.427335609211 313.8548400294575,470.47493894263675 315.81867277636854,432.2314522290603 316.99697242451515,423.6685362765386 317.913427706407,431.7474496262729 319.87726045331806,469.2674950343135 321.3828655592832,477.4238595332264 321.84109320022907,84.94614789037884 322.7575484821209,457.49529019709604 324.5904590459046,426.6399743265594 325.7687586940512,427.9334964180683 327.92897471565334,465.810380008546 328.97635218067256,477.1610510266199 329.9582685541281,473.54785881180135 331.8566402094755,440.352623401317 332.9694787660584,426.5612143707075 334.0168562310776,429.01239013176547 334.60600605515094,436.79746012759693 336.6352998936257,471.93983272390057 337.81359954177236,475.64812657751577 338.66459373210046,466.48117857752186 340.6284264790115,432.5501391112447 341.80672612715813,426.97461354188323 342.72318140904997,435.6889391731351 344.68701415596104,469.117822081564 345.86531380410764,475.43866385774606 346.7817690859995,467.48648344944104 348.68014074134686,435.486330447247 349.85844038949347,427.4862809746237 350.840356762949,434.78512951241663 352.7387284182964,466.1699376309132 354.2443335242615,473.9867723165399 354.57163898208,83.60191298508812 355.6190164470992,457.37503841714613 357.45192701088286,430.40007653886715 358.6302266590295,430.85777839842416 360.79044268063166,463.15932498084214 361.8378201456509,473.3994653045102 362.8851976106701,470.2299084990825 364.7181081744538,442.55691073768446 365.8309467310367,430.2413158430258 366.8783241960559,431.78807256910477 367.53293511169295,439.1505225474661 369.496767858604,468.63348471071316 370.6750675067506,472.4329594710211 371.5260616970788,464.9243246048408 373.48989444398984,435.64794755924777 374.66819409213645,430.2661358676773 375.5846493740283,437.34818641482514 377.54848212093935,466.15182712813584 378.72678176908596,472.1566603524259 379.6432370509778,465.73196257234355 381.5416087063252,438.2193988503421 382.7199083544718,430.79957919077094 383.7018247279273,436.62787026369756 385.6656574748384,464.36433137718967 387.1058014892398,470.98021413308726 387.30218476393094,81.90064896981973 388.48048441207754,457.1627209998437 390.3133949758612,433.611082654461 391.5571557155715,433.88399232794967 393.65191064561,460.9559958498792 394.6992881106292,470.1648222459493 395.7466655756484,467.92657452948805 396.33581539972175,461.8966205085798 398.2996481466328,436.09931898862186 399.5434088863432,433.1788682880368 400.3289419851076,439.5838659202826 402.35823582358233,465.8332375443589 403.6019965632927,469.3997332432517 404.4529907536208,462.77116557146246 406.41682350053185,437.6324879330469 407.59512314867845,433.2694380384399 408.5115784305703,439.54800635796755 410.40995008591767,463.6542128633667 411.5882497340643,469.30231267285944 412.5701661075198,463.49166757083975 414.4685377628672,439.8233138408224 415.5813763194501,433.67180455056126 416.56329269290563,438.2926906286804 418.5271254398167,462.10086538537286 419.9672694542181,468.35375660986017 420.0327305457818,79.99366296040697 421.34195237705586,456.886627272567 423.1748629408395,436.35007208920797 424.41862368054984,436.0749477978021 426.5133786105883,459.1290510434935 427.5607560756075,467.38628769369376 428.60813354062674,465.8829566302623 429.19728336470007,460.87258749636203 431.2265772031748,438.065697037149 432.4048768513215,435.56857766028577 433.2558710416496,441.4539373566002 435.21970378856065,463.4647860183078 436.39800343670726,467.16877831609924 437.3144587185991,461.5825353319672 439.27829146551016,439.9034568803321 440.45659111365677,435.71904369079004 441.3730463955486,440.8109247724883 443.3368791424597,462.1261787654545 444.4497176990426,466.8228241775348 445.4316340724981,462.15974682515775 447.3300057278455,441.8208793001606 448.4428442844284,436.15887713835167 449.42476065788395,439.791786207311 451.4540544963587,460.79736858954436 452.76327632763275,78.00015287411163 452.82873741919644,466.0623062430842 454.1379592504705,457.25701280684376 456.0363309058178,438.6837396200693 457.28009164552816,438.0087400337609 458.13108583585625,444.352602312183 460.0949185827673,463.4669374189074 461.273218230914,464.9264667822385 462.0587513296784,459.91994623308955 464.08804516815314,440.20248426011244 465.2663448162998,437.65979840829175 466.1173390066279,442.4770688645614 468.08117175353897,461.46431133569575 469.2594714016856,465.02946106393074 470.1759266835774,460.4935721893972 472.1397594304885,441.818090046544 473.3180590786351,437.85150368201136 474.23451436052693,441.9610969294851 476.198347107438,460.29815338661575 477.3111856640209,464.6714562948885 478.29310203747644,460.952944180031 480.2569347843875,442.9793155235321 481.3697733409704,438.2776968796387 482.35168971442596,441.55719397999513 484.315522461337,459.1440461673346 485.49382210948363,76.01141175096332 485.69020538417476,464.0656399490639 486.9994272154488,456.8109189799427 488.9632599623598,440.34899276328235 490.1415596105065,439.71266791958095 490.99255380083457,444.97486706231405 492.95638654774564,461.54725114167815 494.200147287456,462.9545626171508 494.9856803862204,458.54872182270566 496.94951313313146,442.01171176407803 498.1932738728418,439.6278004019818 499.0442680631699,443.8820795145243 501.008100810081,460.1876888043239 502.1864004582276,463.08206741070194 503.1028557401194,459.05887165292285 505.0666884870305,443.0094345221954 506.2449881351771,439.7644434421226 507.16144341706894,443.421480093477 509.0598150724163,458.7623719772393 510.2381147205629,462.8015565067154 511.22003109401845,459.4707916423862 513.1184027493658,444.4387442789898 514.2312413059487,440.12245731140865 515.2131576794043,442.68912261159085 517.1769904263153,457.7611553955516 518.2243678913345,74.09490639037124 518.551673349153,462.3279617147579 519.8608951804271,456.3690479487897 521.8247279273381,442.0667481547628 523.0684886670485,441.414284671104 523.854021765813,445.5657712973278 525.817854512724,459.9180800824253 527.0616152524343,461.44401972291246 527.8471483511987,457.8191986195415 529.8764421896735,443.20479143553985 531.0547418378201,441.18657385152824 531.9057360281482,444.66281277801994 533.8695687750593,458.7213651229932 535.047868423206,461.49014007668444 535.9643237050977,458.2303890260286 537.9281564520088,444.4115888578794 539.1064561001555,441.35011310953934 540.0229113820473,444.29428047420583 541.9867441289583,457.8539287118308 543.0995826855412,461.20428361431107 544.0814990589968,458.55707010056653 545.9798707143441,445.6600646567597 547.092709270927,441.7172435212899 548.0746256443825,443.7039278391503 550.0384583912936,456.606670603323 550.9549136731855,72.29812197807841 551.4131413141314,460.8174839353241 552.7223631454054,455.9393458793155 554.6861958923165,443.5277630474114 555.9299566320268,442.6883898593166 556.6500286392276,445.7442894537048 558.6793224777023,458.5372163936982 559.9230832174126,460.11969901487197 560.7740774077407,456.7881179295346 562.7379101546518,444.5325095704011 563.9162098027984,442.54796902461015 564.8326650846902,445.7179157769545 566.7310367400376,457.48549188812774 567.9093363881842,460.1046565892042 568.8257916700761,457.4765228682504 570.7896244169871,445.59108601508314 571.9024629735701,442.71275885717546 572.8843793470256,445.08449399417316 574.8482120939366,456.73115210039794 575.9610506505196,459.8206958110991 576.942967023975,457.7334464956799 578.9067997708861,446.34057687333404 579.9541772359054,443.094423653205 580.9360936093609,444.611298542082 582.899926356272,455.64482064250774 583.6854594550364,70.65210053844481 584.2746092791097,459.50603558763487 585.5838311103837,455.52744329719167 587.5476638572948,444.7689033760695 588.7914245970051,443.80841075225743 589.5769576957696,446.63948944905945 591.6062515342443,457.61414161905236 592.7845511823909,458.9602763617083 593.6355453727191,456.2302337337698 595.5993781196302,445.65445411398315 596.7776777677767,443.73545256481214 597.6941330496686,446.3129818747043 599.6579657965796,456.7197263655782 600.8362654447262,458.8646697773722 601.7527207266181,456.52461277248943 603.6510923819654,446.58169008705727 604.8293920301121,443.92410827495627 605.8113084035676,446.05015792074994 607.709680058915,455.7902160305168 608.8225186154979,458.62353978443883 609.8044349889534,456.99334728735494 611.7682677358645,447.23174156587703 612.8156452008836,444.28240190696584 613.8630226659029,445.627491331347 615.7613943212502,454.8451944504152 616.4160052368873,69.17463032798076 617.136077244088,458.3686982805848 618.4452990753621,455.1371420691138 620.4091318222731,445.8219478222182 621.6528925619834,444.79149506128397 622.4384256607478,447.11925682276524 624.4677194992227,456.6002714219181 625.6460191473692,457.946598205803 626.4970133376974,455.7175313735953 628.5263071761722,446.37486073334674 629.7046068243187,444.8204988813742 630.6210621062106,447.1049542856798 632.5194337615579,455.8147845726977 633.6977334097046,457.8345597505309 634.6141886915964,455.95276268834203 636.5780214385074,447.1647771015878 637.6908599950904,444.9610777304194 638.6727763685459,446.648263644919 640.636609115457,455.2541408096955 641.6839865804761,457.58883403827804 642.6659029539317,456.3301989072909 644.6951967924065,447.7214294932049 645.7425742574256,445.2560419949708 646.7244906308812,446.3104796304236 648.6228622862286,454.1819695167087 649.1465510187381,67.87306645936663 649.9975452090663,457.38347038173043 651.3067670403403,454.77081316446026 653.3360608788151,446.53516627213617 654.5143605269617,445.6531337602011 655.3653547172898,447.7922492979489 657.3291874642009,455.7425973673413 658.5074871123476,457.0615091041638 659.4239423942394,455.0292371218234 661.3877751411504,447.19741370522473 662.5660747892971,445.70430709261353 663.4825300711889,447.5580068749737 665.4463628180999,455.2596770494727 666.5592013746829,456.9396054653743 667.5411177481384,455.2397037874422 669.4394894034857,447.8888686899421 670.5523279600687,445.85911656894103 671.5342443335243,447.1870401604936 673.4980770804352,454.5670822828571 674.5454545454545,456.69550885372365 675.52737091891,455.73756231689197 677.4912036658211,448.5947423881015 678.604042222404,446.13563896748167 679.5859585958596,446.9189771858432 681.4843302512069,453.6332470828048 681.8770968005891,66.74678089333727 682.8590131740447,456.53095879323314 684.1682350053187,454.42972025915606 686.1975288437934,447.3087221139655 687.3758284919401,446.4072748780524 688.2268226822682,448.15893062250603 690.1906554291793,455.01805269748803 691.3689550773258,456.289683222627 692.2854103592177,454.6386488630157 694.2492431061288,447.8910252030368 695.4275427542754,446.4738046568458 696.3439980361672,447.9708332766749 698.3078307830783,454.5972823271437 699.4206693396612,456.1629752122857 700.4025857131168,454.80629240406057 702.3664184600277,448.3100939326435 703.4792570166107,446.62522488509507 704.4611733900663,447.82323819750894 706.3595450454136,453.9928420248417 707.4723836019965,455.95679016010376 708.454299975452,455.0763670448804 710.3526716307994,449.10937772635384 711.4655101873823,446.8931918409968 712.4474265608378,447.45990185592797 714.3457982161852,453.1804799232314 714.60764258244,65.78925322238145 715.7204811390229,455.79409749519414 717.029702970297,454.11428184431736 719.0589968087718,447.96380087239294 720.3027575484821,447.1180398529116 721.1537517388102,448.66462240249183 723.1175844857213,454.5545982607398 724.2958841338678,455.58610153153154 725.2123394157597,454.1221070947058 727.1107110711071,448.47503195345814 728.2890107192537,447.14296999247813 729.2709270927093,448.4967764169211 731.1692987480566,454.04067340603723 732.3475983962032,455.4870311069182 733.3295147696588,454.2723627642814 735.2278864250061,448.83917145399255 736.340724981589,447.2913784727144 737.3226413550445,448.2301244802802 739.2864741019556,453.6792333970099 740.3338515669748,455.29508979631663 741.3157679404303,454.6303857528948 743.2141395957777,449.53601697105813 744.2615170607969,447.59558306263807 745.3088945258162,447.93975547829956 746.0289665330168,449.4399961630789 747.2727272727273,452.98468113493396" fill="none" stroke="#1F77B4" stroke-width="1.5" />
<g class="spine">
<line x1="60" y1="550" x2="780" y2="550" stroke="#000000" stroke-width="1" />
</g>
<g class="spine">
<line x1="60" y1="40" x2="780" y2="40" stroke="#000000" stroke-width="1" />
</g>
<g class="spine">
<line x1="60" y1="40" x2="60" y2="550" stroke="#000000" stroke-width="1" />
</g>
<g class="spine">
<line x1="780" y1="40" x2="780" y2="550" stroke="#000000" stroke-width="1" />
</g>
<rect x="698.8199999999999" y="50" width="71.18" height="28" fill="#FFFFFF" fill-opacity="0.8627450980392157" stroke="#000000" stroke-width="0.5" />
<g class="legend">
<rect x="706.8199999999999" y="58" width="12" height="12" fill="#1F77B4" />
<text x="724.8199999999999" y="69" font-family="sans-serif" font-size="13" text-anchor="start" fill="#000000">Signal</text>
</g>
<text x="420" y="32" font-family="sans-serif" font-size="15" text-anchor="middle" font-weight="bold" fill="#000000">10 000-point signal (LTTB → 500 display points)</text>
<text x="420" y="585" font-family="sans-serif" font-size="13" text-anchor="middle" fill="#000000">Time</text>
<text x="15" y="295" font-family="sans-serif" font-size="13" text-anchor="middle" fill="#000000">Amplitude</text>
</svg>
