<svg xmlns="http://www.w3.org/2000/svg" viewBox="0 0 1000 450" width="1000" height="450">
<rect x="0" y="0" width="1000" height="450" fill="#FFFFFF" />
<text x="500" y="25" font-family="sans-serif" font-size="17" text-anchor="middle" font-weight="bold" fill="#000000">α decay and β noise — ω = 0.4 rad/ms</text>
<rect x="60" y="70" width="440" height="330" fill="#FFFFFF" />
<line x1="80" y1="70" x2="80" y2="400" stroke="#B0B0B0" stroke-width="0.8" />
<line x1="160.8080808080808" y1="70" x2="160.8080808080808" y2="400" stroke="#B0B0B0" stroke-width="0.8" />
<line x1="241.6161616161616" y1="70" x2="241.6161616161616" y2="400" stroke="#B0B0B0" stroke-width="0.8" />
<line x1="322.4242424242424" y1="70" x2="322.4242424242424" y2="400" stroke="#B0B0B0" stroke-width="0.8" />
<line x1="403.2323232323232" y1="70" x2="403.2323232323232" y2="400" stroke="#B0B0B0" stroke-width="0.8" />
<line x1="484.040404040404" y1="70" x2="484.040404040404" y2="400" stroke="#B0B0B0" stroke-width="0.8" />
<line x1="60" y1="352.7915930546337" x2="500" y2="352.7915930546337" stroke="#B0B0B0" stroke-width="0.8" />
<line x1="60" y1="263.52772870308917" x2="500" y2="263.52772870308917" stroke="#B0B0B0" stroke-width="0.8" />
<line x1="60" y1="174.26386435154458" x2="500" y2="174.26386435154458" stroke="#B0B0B0" stroke-width="0.8" />
<line x1="60" y1="85" x2="500" y2="85" stroke="#B0B0B0" stroke-width="0.8" />
<line x1="80" y1="400" x2="80" y2="405" stroke="#000000" stroke-width="1" />
<text x="80" y="415" font-family="sans-serif" font-size="13" text-anchor="middle" fill="#000000">0</text>
<line x1="160.8080808080808" y1="400" x2="160.8080808080808" y2="405" stroke="#000000" stroke-width="1" />
<text x="160.8080808080808" y="415" font-family="sans-serif" font-size="13" text-anchor="middle" fill="#000000">10</text>
<line x1="241.6161616161616" y1="400" x2="241.6161616161616" y2="405" stroke="#000000" stroke-width="1" />
<text x="241.6161616161616" y="415" font-family="sans-serif" font-size="13" text-anchor="middle" fill="#000000">20</text>
<line x1="322.4242424242424" y1="400" x2="322.4242424242424" y2="405" stroke="#000000" stroke-width="1" />
<text x="322.4242424242424" y="415" font-family="sans-serif" font-size="13" text-anchor="middle" fill="#000000">30</text>
<line x1="403.2323232323232" y1="400" x2="403.2323232323232" y2="405" stroke="#000000" stroke-width="1" />
<text x="403.2323232323232" y="415" font-family="sans-serif" font-size="13" text-anchor="middle" fill="#000000">40</text>
<line x1="484.040404040404" y1="400" x2="484.040404040404" y2="405" stroke="#000000" stroke-width="1" />
<text x="484.040404040404" y="415" font-family="sans-serif" font-size="13" text-anchor="middle" fill="#000000">50</text>
<line x1="63.83838383838384" y1="400" x2="63.83838383838384" y2="403" stroke="#000000" stroke-width="0.5" />
<line x1="96.16161616161617" y1="400" x2="96.16161616161617" y2="403" stroke="#000000" stroke-width="0.5" />
<line x1="112.32323232323232" y1="400" x2="112.32323232323232" y2="403" stroke="#000000" stroke-width="0.5" />
<line x1="128.48484848484847" y1="400" x2="128.48484848484847" y2="403" stroke="#000000" stroke-width="0.5" />
<line x1="144.64646464646464" y1="400" x2="144.64646464646464" y2="403" stroke="#000000" stroke-width="0.5" />
<line x1="176.96969696969694" y1="400" x2="176.96969696969694" y2="403" stroke="#000000" stroke-width="0.5" />
<line x1="193.1313131313131" y1="400" x2="193.1313131313131" y2="403" stroke="#000000" stroke-width="0.5" />
<line x1="209.29292929292927" y1="400" x2="209.29292929292927" y2="403" stroke="#000000" stroke-width="0.5" />
<line x1="225.45454545454544" y1="400" x2="225.45454545454544" y2="403" stroke="#000000" stroke-width="0.5" />
<line x1="257.7777777777777" y1="400" x2="257.7777777777777" y2="403" stroke="#000000" stroke-width="0.5" />
<line x1="273.9393939393939" y1="400" x2="273.9393939393939" y2="403" stroke="#000000" stroke-width="0.5" />
<line x1="290.10101010101005" y1="400" x2="290.10101010101005" y2="403" stroke="#000000" stroke-width="0.5" />
<line x1="306.2626262626262" y1="400" x2="306.2626262626262" y2="403" stroke="#000000" stroke-width="0.5" />
<line x1="338.58585858585855" y1="400" x2="338.58585858585855" y2="403" stroke="#000000" stroke-width="0.5" />
<line x1="354.7474747474747" y1="400" x2="354.7474747474747" y2="403" stroke="#000000" stroke-width="0.5" />
<line x1="370.9090909090909" y1="400" x2="370.9090909090909" y2="403" stroke="#000000" stroke-width="0.5" />
<line x1="387.07070707070704" y1="400" x2="387.07070707070704" y2="403" stroke="#000000" stroke-width="0.5" />
<line x1="419.3939393939393" y1="400" x2="419.3939393939393" y2="403" stroke="#000000" stroke-width="0.5" />
<line x1="435.5555555555555" y1="400" x2="435.5555555555555" y2="403" stroke="#000000" stroke-width="0.5" />
<line x1="451.71717171717165" y1="400" x2="451.71717171717165" y2="403" stroke="#000000" stroke-width="0.5" />
<line x1="467.8787878787878" y1="400" x2="467.8787878787878" y2="403" stroke="#000000" stroke-width="0.5" />
<line x1="75" y1="352.7915930546337" x2="80" y2="352.7915930546337" stroke="#000000" stroke-width="1" />
<text x="52" y="356.7915930546337" font-family="sans-serif" font-size="13" text-anchor="end" fill="#000000">-0.5</text>
<line x1="75" y1="263.52772870308917" x2="80" y2="263.52772870308917" stroke="#000000" stroke-width="1" />
<text x="52" y="267.52772870308917" font-family="sans-serif" font-size="13" text-anchor="end" fill="#000000">0</text>
<line x1="75" y1="174.26386435154458" x2="80" y2="174.26386435154458" stroke="#000000" stroke-width="1" />
<text x="52" y="178.26386435154458" font-family="sans-serif" font-size="13" text-anchor="end" fill="#000000">0.5</text>
<line x1="75" y1="85" x2="80" y2="85" stroke="#000000" stroke-width="1" />
<text x="52" y="89" font-family="sans-serif" font-size="13" text-anchor="end" fill="#000000">1</text>
<line x1="77" y1="388.49713879525154" x2="80" y2="388.49713879525154" stroke="#000000" stroke-width="0.5" />
<line x1="77" y1="370.6443659249427" x2="80" y2="370.6443659249427" stroke="#000000" stroke-width="0.5" />
<line x1="77" y1="334.93882018432487" x2="80" y2="334.93882018432487" stroke="#000000" stroke-width="0.5" />
<line x1="77" y1="317.0860473140159" x2="80" y2="317.0860473140159" stroke="#000000" stroke-width="0.5" />
<line x1="77" y1="299.233274443707" x2="80" y2="299.233274443707" stroke="#000000" stroke-width="0.5" />
<line x1="77" y1="281.3805015733981" x2="80" y2="281.3805015733981" stroke="#000000" stroke-width="0.5" />
<line x1="77" y1="245.67495583278026" x2="80" y2="245.67495583278026" stroke="#000000" stroke-width="0.5" />
<line x1="77" y1="227.82218296247135" x2="80" y2="227.82218296247135" stroke="#000000" stroke-width="0.5" />
<line x1="77" y1="209.96941009216243" x2="80" y2="209.96941009216243" stroke="#000000" stroke-width="0.5" />
<line x1="77" y1="192.1166372218535" x2="80" y2="192.1166372218535" stroke="#000000" stroke-width="0.5" />
<line x1="77" y1="156.41109148123567" x2="80" y2="156.41109148123567" stroke="#000000" stroke-width="0.5" />
<line x1="77" y1="138.55831861092676" x2="80" y2="138.55831861092676" stroke="#000000" stroke-width="0.5" />
<line x1="77" y1="120.70554574061782" x2="80" y2="120.70554574061782" stroke="#000000" stroke-width="0.5" />
<line x1="77" y1="102.85277287030891" x2="80" y2="102.85277287030891" stroke="#000000" stroke-width="0.5" />
<polyline points="80,85 84.04040404040404,92.87867006996093 88.08080808080808,107.11238748121961 92.12121212121212,126.82909311533663 96.16161616161617,150.98272380146818 100.2020202020202,178.40300985568834 104.24242424242424,207.84774914528117 108.28282828282828,238.0553724823705 112.32323232323232,267.79571021928996 116.36363636363636,295.9170428931918 120.4040404040404,321.38775901883196 124.44444444444444,343.33123788709776 128.48484848484847,361.05291019367127 132.5252525252525,374.05880930772145 136.56565656565655,382.0652955579128 140.6060606060606,385 144.64646464646464,382.99437862555425 148.68686868686868,376.3685802255821 152.72727272727272,365.6096003767937 156.76767676767676,351.34391173576955 160.8080808080808,334.3059209226206 164.84848484848484,315.30370123858756 168.88888888888889,295.1834873646597 172.92929292929293,274.7943946000482 176.96969696969694,254.95474500195732 181.01010101010098,236.4212519095798 185.05050505050502,219.862140416022 189.09090909090907,205.83507335950102 193.1313131313131,194.77052021547206 197.17171717171715,186.96096023413142 201.2121212121212,182.55606167487568 205.25252525252523,181.56373606232307 209.29292929292927,183.85673930089973 213.33333333333331,189.18428843243856 217.37373737373736,197.1879906505064 221.4141414141414,207.42124518953025 225.45454545454544,219.37118249271495 229.49494949494948,232.4821504897583 233.53535353535352,246.17974500782216 237.57575757575756,259.8944087659813 241.6161616161616,273.0836880190515 245.65656565656562,285.2523333557634 249.69696969696966,295.9695559698027 253.7373737373737,304.88289664606395 257.77777777777777,311.72832494615227 261.8181818181818,316.3363536101503 265.85858585858585,318.63412104410526 269.8989898989899,318.643556290149 273.9393939393939,316.47589000806676 277.9797979797979,312.32290644846097 282.02020202020196,306.44544083942867 286.060606060606,299.15971079220884 290.10101010101005,290.8221271638311 294.1414141414141,281.8132583858907 298.18181818181813,272.52162282819137 302.2222222222222,263.327957658155 306.2626262626262,254.59056221325972 310.30303030303025,246.63224230330988 314.3434343434343,239.72929296156687 318.38383838383834,234.10285532302925 322.4242424242424,229.91287317759011 326.4646464646464,227.25476107901514 330.50505050505046,226.15878334907174 334.5454545454545,226.59203628934216 338.58585858585855,228.46282835901923 342.6262626262626,231.62716838595767 346.66666666666663,235.8970027677193 350.70707070707067,241.04979105875765 354.7474747474747,246.8389765095577 358.78787878787875,253.00489440652674 362.8282828282828,259.28566606727793 366.86868686868684,265.4276489638352 370.9090909090909,271.1950519240439 374.9494949494949,276.3783764060308 378.98989898989896,280.80140773490695 383.030303030303,284.3265509220698 387.07070707070704,286.8583810798983 391.1111111111111,288.34535529361864 395.1515151515151,288.77970801166686 399.19191919191917,288.19562267665435 403.2323232323232,286.66583587185966 407.2727272727272,284.2968845398504 411.31313131313124,281.22325014884365 415.3535353535353,277.60068486263475 419.3939393939393,273.5990231720085 423.43434343434336,269.39478796595125 427.4747474747474,265.1638930699414 431.51515151515144,261.07472573886156 435.5555555555555,257.2818637610088 439.5959595959595,253.9206443477914 443.63636363636357,251.1027577531432 447.6767676767676,248.91298966334676 451.71717171717165,247.40718498103246 455.7575757575757,246.6114538497613 459.79797979797974,246.52259069018265 463.8383838383838,247.1096305398648 467.8787878787878,248.31642576667 471.91919191919186,250.06509163157259 475.9595959595959,252.2601422540222 479.99999999999994,254.79311997044522" fill="none" stroke="#1F77B4" stroke-width="1.5" />
<g class="spine">
<line x1="60" y1="400" x2="500" y2="400" stroke="#000000" stroke-width="1" />
</g>
<g class="spine">
<line x1="60" y1="70" x2="500" y2="70" stroke="#000000" stroke-width="1" />
</g>
<g class="spine">
<line x1="60" y1="70" x2="60" y2="400" stroke="#000000" stroke-width="1" />
</g>
<g class="spine">
<line x1="500" y1="70" x2="500" y2="400" stroke="#000000" stroke-width="1" />
</g>
<rect x="361.62" y="80" width="128.38" height="28" fill="#FFFFFF" fill-opacity="0.8627450980392157" stroke="#000000" stroke-width="0.5" />
<g class="legend">
<rect x="369.62" y="88" width="12" height="12" fill="#1F77B4" />
<text x="387.62" y="99" font-family="sans-serif" font-size="13" text-anchor="start" fill="#000000">$\alpha$ decay</text>
</g>
<text x="280" y="62" font-family="sans-serif" font-size="15" text-anchor="middle" font-weight="bold" fill="#000000">R<tspan baseline-shift="super" font-size="70%">2</tspan> = 0.97</text>
<text x="280" y="435" font-family="sans-serif" font-size="13" text-anchor="middle" fill="#000000">Δ t (ms)</text>
<text x="15" y="235" font-family="sans-serif" font-size="13" text-anchor="middle" fill="#000000">σ (normalised)</text>
<rect x="540" y="70" width="440" height="330" fill="#FFFFFF" />
<line x1="560" y1="70" x2="560" y2="400" stroke="#B0B0B0" stroke-width="0.8" />
<line x1="640.8080808080808" y1="70" x2="640.8080808080808" y2="400" stroke="#B0B0B0" stroke-width="0.8" />
<line x1="721.6161616161617" y1="70" x2="721.6161616161617" y2="400" stroke="#B0B0B0" stroke-width="0.8" />
<line x1="802.4242424242424" y1="70" x2="802.4242424242424" y2="400" stroke="#B0B0B0" stroke-width="0.8" />
<line x1="883.2323232323232" y1="70" x2="883.2323232323232" y2="400" stroke="#B0B0B0" stroke-width="0.8" />
<line x1="964.0404040404039" y1="70" x2="964.0404040404039" y2="400" stroke="#B0B0B0" stroke-width="0.8" />
<line x1="540" y1="385.222425806254" x2="980" y2="385.222425806254" stroke="#B0B0B0" stroke-width="0.8" />
<line x1="540" y1="335.15066363310314" x2="980" y2="335.15066363310314" stroke="#B0B0B0" stroke-width="0.8" />
<line x1="540" y1="285.07890145995225" x2="980" y2="285.07890145995225" stroke="#B0B0B0" stroke-width="0.8" />
<line x1="540" y1="235.0071392868013" x2="980" y2="235.0071392868013" stroke="#B0B0B0" stroke-width="0.8" />
<line x1="540" y1="184.9353771136504" x2="980" y2="184.9353771136504" stroke="#B0B0B0" stroke-width="0.8" />
<line x1="540" y1="134.86361494049947" x2="980" y2="134.86361494049947" stroke="#B0B0B0" stroke-width="0.8" />
<line x1="540" y1="84.79185276734856" x2="980" y2="84.79185276734856" stroke="#B0B0B0" stroke-width="0.8" />
<line x1="560" y1="400" x2="560" y2="405" stroke="#000000" stroke-width="1" />
<text x="560" y="415" font-family="sans-serif" font-size="13" text-anchor="middle" fill="#000000">0</text>
<line x1="640.8080808080808" y1="400" x2="640.8080808080808" y2="405" stroke="#000000" stroke-width="1" />
<text x="640.8080808080808" y="415" font-family="sans-serif" font-size="13" text-anchor="middle" fill="#000000">10</text>
<line x1="721.6161616161617" y1="400" x2="721.6161616161617" y2="405" stroke="#000000" stroke-width="1" />
<text x="721.6161616161617" y="415" font-family="sans-serif" font-size="13" text-anchor="middle" fill="#000000">20</text>
<line x1="802.4242424242424" y1="400" x2="802.4242424242424" y2="405" stroke="#000000" stroke-width="1" />
<text x="802.4242424242424" y="415" font-family="sans-serif" font-size="13" text-anchor="middle" fill="#000000">30</text>
<line x1="883.2323232323232" y1="400" x2="883.2323232323232" y2="405" stroke="#000000" stroke-width="1" />
<text x="883.2323232323232" y="415" font-family="sans-serif" font-size="13" text-anchor="middle" fill="#000000">40</text>
<line x1="964.0404040404039" y1="400" x2="964.0404040404039" y2="405" stroke="#000000" stroke-width="1" />
<text x="964.0404040404039" y="415" font-family="sans-serif" font-size="13" text-anchor="middle" fill="#000000">50</text>
<line x1="543.8383838383838" y1="400" x2="543.8383838383838" y2="403" stroke="#000000" stroke-width="0.5" />
<line x1="576.1616161616162" y1="400" x2="576.1616161616162" y2="403" stroke="#000000" stroke-width="0.5" />
<line x1="592.3232323232323" y1="400" x2="592.3232323232323" y2="403" stroke="#000000" stroke-width="0.5" />
<line x1="608.4848484848485" y1="400" x2="608.4848484848485" y2="403" stroke="#000000" stroke-width="0.5" />
<line x1="624.6464646464647" y1="400" x2="624.6464646464647" y2="403" stroke="#000000" stroke-width="0.5" />
<line x1="656.969696969697" y1="400" x2="656.969696969697" y2="403" stroke="#000000" stroke-width="0.5" />
<line x1="673.1313131313132" y1="400" x2="673.1313131313132" y2="403" stroke="#000000" stroke-width="0.5" />
<line x1="689.2929292929293" y1="400" x2="689.2929292929293" y2="403" stroke="#000000" stroke-width="0.5" />
<line x1="705.4545454545455" y1="400" x2="705.4545454545455" y2="403" stroke="#000000" stroke-width="0.5" />
<line x1="737.7777777777777" y1="400" x2="737.7777777777777" y2="403" stroke="#000000" stroke-width="0.5" />
<line x1="753.9393939393939" y1="400" x2="753.9393939393939" y2="403" stroke="#000000" stroke-width="0.5" />
<line x1="770.10101010101" y1="400" x2="770.10101010101" y2="403" stroke="#000000" stroke-width="0.5" />
<line x1="786.2626262626262" y1="400" x2="786.2626262626262" y2="403" stroke="#000000" stroke-width="0.5" />
<line x1="818.5858585858585" y1="400" x2="818.5858585858585" y2="403" stroke="#000000" stroke-width="0.5" />
<line x1="834.7474747474747" y1="400" x2="834.7474747474747" y2="403" stroke="#000000" stroke-width="0.5" />
<line x1="850.9090909090909" y1="400" x2="850.9090909090909" y2="403" stroke="#000000" stroke-width="0.5" />
<line x1="867.070707070707" y1="400" x2="867.070707070707" y2="403" stroke="#000000" stroke-width="0.5" />
<line x1="899.3939393939393" y1="400" x2="899.3939393939393" y2="403" stroke="#000000" stroke-width="0.5" />
<line x1="915.5555555555554" y1="400" x2="915.5555555555554" y2="403" stroke="#000000" stroke-width="0.5" />
<line x1="931.7171717171716" y1="400" x2="931.7171717171716" y2="403" stroke="#000000" stroke-width="0.5" />
<line x1="947.8787878787878" y1="400" x2="947.8787878787878" y2="403" stroke="#000000" stroke-width="0.5" />
<line x1="555" y1="385.222425806254" x2="560" y2="385.222425806254" stroke="#000000" stroke-width="1" />
<text x="532" y="389.222425806254" font-family="sans-serif" font-size="13" text-anchor="end" fill="#000000">-0.3</text>
<line x1="555" y1="335.15066363310314" x2="560" y2="335.15066363310314" stroke="#000000" stroke-width="1" />
<text x="532" y="339.15066363310314" font-family="sans-serif" font-size="13" text-anchor="end" fill="#000000">-0.2</text>
<line x1="555" y1="285.07890145995225" x2="560" y2="285.07890145995225" stroke="#000000" stroke-width="1" />
<text x="532" y="289.07890145995225" font-family="sans-serif" font-size="13" text-anchor="end" fill="#000000">-0.1</text>
<line x1="555" y1="235.0071392868013" x2="560" y2="235.0071392868013" stroke="#000000" stroke-width="1" />
<text x="532" y="239.0071392868013" font-family="sans-serif" font-size="13" text-anchor="end" fill="#000000">0</text>
<line x1="555" y1="184.9353771136504" x2="560" y2="184.9353771136504" stroke="#000000" stroke-width="1" />
<text x="532" y="188.9353771136504" font-family="sans-serif" font-size="13" text-anchor="end" fill="#000000">0.1</text>
<line x1="555" y1="134.86361494049947" x2="560" y2="134.86361494049947" stroke="#000000" stroke-width="1" />
<text x="532" y="138.86361494049947" font-family="sans-serif" font-size="13" text-anchor="end" fill="#000000">0.2</text>
<line x1="555" y1="84.79185276734856" x2="560" y2="84.79185276734856" stroke="#000000" stroke-width="1" />
<text x="532" y="88.79185276734856" font-family="sans-serif" font-size="13" text-anchor="end" fill="#000000">0.3</text>
<line x1="557" y1="395.2367782408843" x2="560" y2="395.2367782408843" stroke="#000000" stroke-width="0.5" />
<line x1="557" y1="375.20807337162387" x2="560" y2="375.20807337162387" stroke="#000000" stroke-width="0.5" />
<line x1="557" y1="365.1937209369937" x2="560" y2="365.1937209369937" stroke="#000000" stroke-width="0.5" />
<line x1="557" y1="355.1793685023635" x2="560" y2="355.1793685023635" stroke="#000000" stroke-width="0.5" />
<line x1="557" y1="345.16501606773335" x2="560" y2="345.16501606773335" stroke="#000000" stroke-width="0.5" />
<line x1="557" y1="325.136311198473" x2="560" y2="325.136311198473" stroke="#000000" stroke-width="0.5" />
<line x1="557" y1="315.12195876384277" x2="560" y2="315.12195876384277" stroke="#000000" stroke-width="0.5" />
<line x1="557" y1="305.1076063292126" x2="560" y2="305.1076063292126" stroke="#000000" stroke-width="0.5" />
<line x1="557" y1="295.0932538945824" x2="560" y2="295.0932538945824" stroke="#000000" stroke-width="0.5" />
<line x1="557" y1="275.06454902532204" x2="560" y2="275.06454902532204" stroke="#000000" stroke-width="0.5" />
<line x1="557" y1="265.0501965906919" x2="560" y2="265.0501965906919" stroke="#000000" stroke-width="0.5" />
<line x1="557" y1="255.03584415606167" x2="560" y2="255.03584415606167" stroke="#000000" stroke-width="0.5" />
<line x1="557" y1="245.0214917214315" x2="560" y2="245.0214917214315" stroke="#000000" stroke-width="0.5" />
<line x1="557" y1="224.99278685217112" x2="560" y2="224.99278685217112" stroke="#000000" stroke-width="0.5" />
<line x1="557" y1="214.97843441754094" x2="560" y2="214.97843441754094" stroke="#000000" stroke-width="0.5" />
<line x1="557" y1="204.96408198291076" x2="560" y2="204.96408198291076" stroke="#000000" stroke-width="0.5" />
<line x1="557" y1="194.94972954828057" x2="560" y2="194.94972954828057" stroke="#000000" stroke-width="0.5" />
<line x1="557" y1="174.9210246790202" x2="560" y2="174.9210246790202" stroke="#000000" stroke-width="0.5" />
<line x1="557" y1="164.90667224439" x2="560" y2="164.90667224439" stroke="#000000" stroke-width="0.5" />
<line x1="557" y1="154.89231980975984" x2="560" y2="154.89231980975984" stroke="#000000" stroke-width="0.5" />
<line x1="557" y1="144.87796737512966" x2="560" y2="144.87796737512966" stroke="#000000" stroke-width="0.5" />
<line x1="557" y1="124.84926250586928" x2="560" y2="124.84926250586928" stroke="#000000" stroke-width="0.5" />
<line x1="557" y1="114.8349100712391" x2="560" y2="114.8349100712391" stroke="#000000" stroke-width="0.5" />
<line x1="557" y1="104.8205576366089" x2="560" y2="104.8205576366089" stroke="#000000" stroke-width="0.5" />
<line x1="557" y1="94.80620520197871" x2="560" y2="94.80620520197871" stroke="#000000" stroke-width="0.5" />
<line x1="557" y1="74.77750033271835" x2="560" y2="74.77750033271835" stroke="#000000" stroke-width="0.5" />
<polyline points="560,235.0071392868013 564.040404040404,144.09888995148432 568.0808080808081,90.26597038619367 572.1212121212121,95.4631895324659 576.1616161616162,157.57095301746912 580.2020202020202,251.25970242025227 584.2424242424242,338.3201299470055 588.2828282828283,383.24617224182725 592.3232323232323,367.7155335227486 596.3636363636364,298.0621114971724 600.4040404040404,202.69282864012882 604.4444444444445,120.50236874223567 608.4848484848485,85.01066455926215 612.5252525252525,110.69238309123332 616.5656565656566,187.0736873586052 620.6060606060606,283.0038065052356 624.6464646464647,359.3593295288897 628.6868686868687,385 632.7272727272727,349.4687216683182 636.7676767676768,267.2563011540301 640.8080808080808,171.891627463858 644.8484848484849,102.2675046208194 648.8888888888889,86.77890594392706 652.929292929293,131.742583849161 656.969696969697,218.8208935331231 661.010101010101,312.50047871676804 665.0505050505051,374.57576907179833 669.0909090909091,379.730449771889 673.1313131313132,325.86227500093054 677.1717171717172,234.94043191570123 681.2121212121212,144.04579425791934 685.2525252525253,90.24814051445382 689.2929292929293,95.48789708198645 693.3333333333333,157.62812144895904 697.3737373737373,251.32601659492732 701.4141414141413,338.368544795661 705.4545454545454,383.2569426204003 709.4949494949494,367.68426692186534 713.5353535353535,298.00155944980196 717.5757575757575,202.62768623325042 721.6161616161615,120.45920316017786 725.6565656565656,85.00708012507795 729.6969696969696,110.72984165332917 733.7373737373737,187.1369121015923 737.7777777777777,283.06701233025893 741.8181818181818,359.3967390524521 745.8585858585858,384.99635640621597 749.8989898989898,349.4255109327959 753.9393939393939,267.19114601486814 757.9797979797979,171.83110029802282 762.020202020202,102.2362903677943 766.060606060606,86.78973478752773 770.10101010101,131.79103943608163 774.1414141414141,218.8872141049154 778.1818181818181,312.55761659527633 782.2222222222222,374.60042157873363 786.2626262626262,379.71256281611085 790.3030303030303,325.8091434625937 794.3434343434343,234.87372455775625 798.3838383838383,143.99271650244776 802.4242424242424,90.23033919001041 806.4646464646464,95.51263214549338 810.5050505050505,157.68530514003126 814.5454545454545,251.39232755142712 818.5858585858585,338.41693926086083 822.6262626262626,383.2676837632704 826.6666666666666,367.65297415629954 830.7070707070707,297.9409949795734 834.7474747474747,202.5625502117839 838.7878787878788,120.41606016762309 842.8282828282828,85.00352527175693 846.8686868686868,110.76732472361341 850.9090909090909,187.20014628486064 854.9494949494949,283.1302086776024 858.989898989899,359.43412404567954 863.030303030303,384.9926832337069 867.070707070707,349.3822776333213 871.1111111111111,267.12598452883765 875.1515151515151,171.77058559086117 879.1919191919192,102.20510229793415 883.2323232323232,86.80059286044205 887.2727272727273,131.83951537780206 891.3131313131313,218.95353785564842 895.3535353535353,312.61473918039025 899.3939393939394,374.6250465570815 903.4343434343434,379.6946473236016 907.4747474747475,325.7559940175874 911.5151515151515,234.8070172261214 915.5555555555555,143.939656695537 919.5959595959596,90.21256641637366 923.6363636363636,95.53739471810916 927.6767676767677,157.74250407940673 931.7171717171717,251.45863527667478 935.7575757575758,338.4653133330611 939.7979797979798,383.27839566831966 943.8383838383838,367.6216552322219 947.8787878787878,297.88041809843173 951.9191919191918,202.49742058857456 955.9595959595958,120.37293977307961 959.9999999999999,84.99999999999999" fill="none" stroke="#FFA500" stroke-width="1.5" />
<g class="spine">
<line x1="540" y1="400" x2="980" y2="400" stroke="#000000" stroke-width="1" />
</g>
<g class="spine">
<line x1="540" y1="70" x2="980" y2="70" stroke="#000000" stroke-width="1" />
</g>
<g class="spine">
<line x1="540" y1="70" x2="540" y2="400" stroke="#000000" stroke-width="1" />
</g>
<g class="spine">
<line x1="980" y1="70" x2="980" y2="400" stroke="#000000" stroke-width="1" />
</g>
<rect x="851.24" y="80" width="118.76000000000002" height="28" fill="#FFFFFF" fill-opacity="0.8627450980392157" stroke="#000000" stroke-width="0.5" />
<g class="legend">
<rect x="859.24" y="88" width="12" height="12" fill="#FFA500" />
<text x="877.24" y="99" font-family="sans-serif" font-size="13" text-anchor="start" fill="#000000">$\beta$ noise</text>
</g>
<text x="760" y="62" font-family="sans-serif" font-size="15" text-anchor="middle" font-weight="bold" fill="#000000">Noise — μ ± 2σ</text>
<text x="760" y="435" font-family="sans-serif" font-size="13" text-anchor="middle" fill="#000000">Δ t (ms)</text>
<text x="495" y="235" font-family="sans-serif" font-size="13" text-anchor="middle" fill="#000000">Amplitude (× 10<tspan baseline-shift="super" font-size="70%">-3</tspan>)</text>
</svg>
