<svg xmlns="http://www.w3.org/2000/svg" viewBox="0 0 800 600" width="800" height="600">
<rect x="0" y="0" width="800" height="600" fill="#FFFFFF" />
<text x="400" y="25" font-family="sans-serif" font-size="17" text-anchor="middle" font-weight="bold" fill="#000000">Damped Oscillation</text>
<rect x="60" y="70" width="720" height="480" fill="#FFFFFF" />
<line x1="92.72727272727272" y1="70" x2="92.72727272727272" y2="550" stroke="#B0B0B0" stroke-width="0.8" />
<line x1="223.63636363636363" y1="70" x2="223.63636363636363" y2="550" stroke="#B0B0B0" stroke-width="0.8" />
<line x1="354.5454545454545" y1="70" x2="354.5454545454545" y2="550" stroke="#B0B0B0" stroke-width="0.8" />
<line x1="485.4545454545454" y1="70" x2="485.4545454545454" y2="550" stroke="#B0B0B0" stroke-width="0.8" />
<line x1="616.3636363636364" y1="70" x2="616.3636363636364" y2="550" stroke="#B0B0B0" stroke-width="0.8" />
<line x1="747.2727272727273" y1="70" x2="747.2727272727273" y2="550" stroke="#B0B0B0" stroke-width="0.8" />
<line x1="60" y1="528.1818181818181" x2="780" y2="528.1818181818181" stroke="#B0B0B0" stroke-width="0.8" />
<line x1="60" y1="440.9090909090909" x2="780" y2="440.9090909090909" stroke="#B0B0B0" stroke-width="0.8" />
<line x1="60" y1="353.6363636363636" x2="780" y2="353.6363636363636" stroke="#B0B0B0" stroke-width="0.8" />
<line x1="60" y1="266.3636363636364" x2="780" y2="266.3636363636364" stroke="#B0B0B0" stroke-width="0.8" />
<line x1="60" y1="179.09090909090907" x2="780" y2="179.09090909090907" stroke="#B0B0B0" stroke-width="0.8" />
<line x1="60" y1="91.81818181818181" x2="780" y2="91.81818181818181" stroke="#B0B0B0" stroke-width="0.8" />
<line x1="92.72727272727272" y1="550" x2="92.72727272727272" y2="555" stroke="#000000" stroke-width="1" />
<text x="92.72727272727272" y="565" font-family="sans-serif" font-size="13" text-anchor="middle" fill="#000000">0</text>
<line x1="223.63636363636363" y1="550" x2="223.63636363636363" y2="555" stroke="#000000" stroke-width="1" />
<text x="223.63636363636363" y="565" font-family="sans-serif" font-size="13" text-anchor="middle" fill="#000000">0.2</text>
<line x1="354.5454545454545" y1="550" x2="354.5454545454545" y2="555" stroke="#000000" stroke-width="1" />
<text x="354.5454545454545" y="565" font-family="sans-serif" font-size="13" text-anchor="middle" fill="#000000">0.4</text>
<line x1="485.4545454545454" y1="550" x2="485.4545454545454" y2="555" stroke="#000000" stroke-width="1" />
<text x="485.4545454545454" y="565" font-family="sans-serif" font-size="13" text-anchor="middle" fill="#000000">0.6</text>
<line x1="616.3636363636364" y1="550" x2="616.3636363636364" y2="555" stroke="#000000" stroke-width="1" />
<text x="616.3636363636364" y="565" font-family="sans-serif" font-size="13" text-anchor="middle" fill="#000000">0.8</text>
<line x1="747.2727272727273" y1="550" x2="747.2727272727273" y2="555" stroke="#000000" stroke-width="1" />
<text x="747.2727272727273" y="565" font-family="sans-serif" font-size="13" text-anchor="middle" fill="#000000">1</text>
<line x1="66.54545454545453" y1="550" x2="66.54545454545453" y2="553" stroke="#000000" stroke-width="0.5" />
<line x1="118.9090909090909" y1="550" x2="118.9090909090909" y2="553" stroke="#000000" stroke-width="0.5" />
<line x1="145.09090909090907" y1="550" x2="145.09090909090907" y2="553" stroke="#000000" stroke-width="0.5" />
<line x1="171.27272727272725" y1="550" x2="171.27272727272725" y2="553" stroke="#000000" stroke-width="0.5" />
<line x1="197.45454545454544" y1="550" x2="197.45454545454544" y2="553" stroke="#000000" stroke-width="0.5" />
<line x1="249.81818181818178" y1="550" x2="249.81818181818178" y2="553" stroke="#000000" stroke-width="0.5" />
<line x1="276" y1="550" x2="276" y2="553" stroke="#000000" stroke-width="0.5" />
<line x1="302.18181818181813" y1="550" x2="302.18181818181813" y2="553" stroke="#000000" stroke-width="0.5" />
<line x1="328.3636363636364" y1="550" x2="328.3636363636364" y2="553" stroke="#000000" stroke-width="0.5" />
<line x1="380.72727272727275" y1="550" x2="380.72727272727275" y2="553" stroke="#000000" stroke-width="0.5" />
<line x1="406.9090909090909" y1="550" x2="406.9090909090909" y2="553" stroke="#000000" stroke-width="0.5" />
<line x1="433.0909090909091" y1="550" x2="433.0909090909091" y2="553" stroke="#000000" stroke-width="0.5" />
<line x1="459.27272727272725" y1="550" x2="459.27272727272725" y2="553" stroke="#000000" stroke-width="0.5" />
<line x1="511.6363636363636" y1="550" x2="511.6363636363636" y2="553" stroke="#000000" stroke-width="0.5" />
<line x1="537.8181818181819" y1="550" x2="537.8181818181819" y2="553" stroke="#000000" stroke-width="0.5" />
<line x1="564" y1="550" x2="564" y2="553" stroke="#000000" stroke-width="0.5" />
<line x1="590.1818181818181" y1="550" x2="590.1818181818181" y2="553" stroke="#000000" stroke-width="0.5" />
<line x1="642.5454545454545" y1="550" x2="642.5454545454545" y2="553" stroke="#000000" stroke-width="0.5" />
<line x1="668.7272727272727" y1="550" x2="668.7272727272727" y2="553" stroke="#000000" stroke-width="0.5" />
<line x1="694.9090909090909" y1="550" x2="694.9090909090909" y2="553" stroke="#000000" stroke-width="0.5" />
<line x1="721.090909090909" y1="550" x2="721.090909090909" y2="553" stroke="#000000" stroke-width="0.5" />
<line x1="773.4545454545455" y1="550" x2="773.4545454545455" y2="553" stroke="#000000" stroke-width="0.5" />
<line x1="87.72727272727272" y1="528.1818181818181" x2="92.72727272727272" y2="528.1818181818181" stroke="#000000" stroke-width="1" />
<text x="52" y="532.1818181818181" font-family="sans-serif" font-size="13" text-anchor="end" fill="#000000">0</text>
<line x1="87.72727272727272" y1="440.9090909090909" x2="92.72727272727272" y2="440.9090909090909" stroke="#000000" stroke-width="1" />
<text x="52" y="444.9090909090909" font-family="sans-serif" font-size="13" text-anchor="end" fill="#000000">0.2</text>
<line x1="87.72727272727272" y1="353.6363636363636" x2="92.72727272727272" y2="353.6363636363636" stroke="#000000" stroke-width="1" />
<text x="52" y="357.6363636363636" font-family="sans-serif" font-size="13" text-anchor="end" fill="#000000">0.4</text>
<line x1="87.72727272727272" y1="266.3636363636364" x2="92.72727272727272" y2="266.3636363636364" stroke="#000000" stroke-width="1" />
<text x="52" y="270.3636363636364" font-family="sans-serif" font-size="13" text-anchor="end" fill="#000000">0.6</text>
<line x1="87.72727272727272" y1="179.09090909090907" x2="92.72727272727272" y2="179.09090909090907" stroke="#000000" stroke-width="1" />
<text x="52" y="183.09090909090907" font-family="sans-serif" font-size="13" text-anchor="end" fill="#000000">0.8</text>
<line x1="87.72727272727272" y1="91.81818181818181" x2="92.72727272727272" y2="91.81818181818181" stroke="#000000" stroke-width="1" />
<text x="52" y="95.81818181818181" font-family="sans-serif" font-size="13" text-anchor="end" fill="#000000">1</text>
<line x1="89.72727272727272" y1="545.6363636363636" x2="92.72727272727272" y2="545.6363636363636" stroke="#000000" stroke-width="0.5" />
<line x1="89.72727272727272" y1="510.7272727272727" x2="92.72727272727272" y2="510.7272727272727" stroke="#000000" stroke-width="0.5" />
<line x1="89.72727272727272" y1="493.27272727272725" x2="92.72727272727272" y2="493.27272727272725" stroke="#000000" stroke-width="0.5" />
<line x1="89.72727272727272" y1="475.81818181818176" x2="92.72727272727272" y2="475.81818181818176" stroke="#000000" stroke-width="0.5" />
<line x1="89.72727272727272" y1="458.3636363636363" x2="92.72727272727272" y2="458.3636363636363" stroke="#000000" stroke-width="0.5" />
<line x1="89.72727272727272" y1="423.45454545454544" x2="92.72727272727272" y2="423.45454545454544" stroke="#000000" stroke-width="0.5" />
<line x1="89.72727272727272" y1="405.99999999999994" x2="92.72727272727272" y2="405.99999999999994" stroke="#000000" stroke-width="0.5" />
<line x1="89.72727272727272" y1="388.5454545454545" x2="92.72727272727272" y2="388.5454545454545" stroke="#000000" stroke-width="0.5" />
<line x1="89.72727272727272" y1="371.09090909090907" x2="92.72727272727272" y2="371.09090909090907" stroke="#000000" stroke-width="0.5" />
<line x1="89.72727272727272" y1="336.18181818181813" x2="92.72727272727272" y2="336.18181818181813" stroke="#000000" stroke-width="0.5" />
<line x1="89.72727272727272" y1="318.72727272727275" x2="92.72727272727272" y2="318.72727272727275" stroke="#000000" stroke-width="0.5" />
<line x1="89.72727272727272" y1="301.27272727272725" x2="92.72727272727272" y2="301.27272727272725" stroke="#000000" stroke-width="0.5" />
<line x1="89.72727272727272" y1="283.81818181818176" x2="92.72727272727272" y2="283.81818181818176" stroke="#000000" stroke-width="0.5" />
<line x1="89.72727272727272" y1="248.90909090909088" x2="92.72727272727272" y2="248.90909090909088" stroke="#000000" stroke-width="0.5" />
<line x1="89.72727272727272" y1="231.45454545454544" x2="92.72727272727272" y2="231.45454545454544" stroke="#000000" stroke-width="0.5" />
<line x1="89.72727272727272" y1="214" x2="92.72727272727272" y2="214" stroke="#000000" stroke-width="0.5" />
<line x1="89.72727272727272" y1="196.5454545454545" x2="92.72727272727272" y2="196.5454545454545" stroke="#000000" stroke-width="0.5" />
<line x1="89.72727272727272" y1="161.63636363636363" x2="92.72727272727272" y2="161.63636363636363" stroke="#000000" stroke-width="0.5" />
<line x1="89.72727272727272" y1="144.1818181818182" x2="92.72727272727272" y2="144.1818181818182" stroke="#000000" stroke-width="0.5" />
<line x1="89.72727272727272" y1="126.72727272727269" x2="92.72727272727272" y2="126.72727272727269" stroke="#000000" stroke-width="0.5" />
<line x1="89.72727272727272" y1="109.27272727272731" x2="92.72727272727272" y2="109.27272727272731" stroke="#000000" stroke-width="0.5" />
<line x1="89.72727272727272" y1="74.36363636363632" x2="92.72727272727272" y2="74.36363636363632" stroke="#000000" stroke-width="0.5" />
<g class="spine">
<line x1="60" y1="550" x2="780" y2="550" stroke="#000000" stroke-width="1" />
</g>
<g class="spine">
<line x1="60" y1="70" x2="60" y2="550" stroke="#000000" stroke-width="1" />
</g>
</svg>
