<svg xmlns="http://www.w3.org/2000/svg" viewBox="0 0 900 450" width="900" height="450" role="img" aria-labelledby="chart-title">
<title id="chart-title">High-contrast line chart showing monthly revenue for 2025</title>
<rect x="0" y="0" width="900" height="450" fill="#FFFFFF" />
<path d="M1.56055 -12.3931L4.75635 -12.3931L4.75635 -7.66992L9.47119 -7.66992L9.47119 -12.3931L12.667 -12.3931L12.667 0L9.47119 0L9.47119 -5.25439L4.75635 -5.25439L4.75635 0L1.56055 0L1.56055 -12.3931ZM15.6553 -9.29688L18.627 -9.29688L18.627 0L15.6553 0L15.6553 -9.29688ZM15.6553 -12.916L18.627 -12.916L18.627 -10.4922L15.6553 -10.4922L15.6553 -12.916ZM27.8076 -1.57715Q27.1934 -0.763672 26.4546 -0.381836Q25.7158 0 24.7446 0Q23.043 0 21.9307 -1.34058Q20.8184 -2.68115 20.8184 -4.75635Q20.8184 -6.83984 21.9307 -8.17212Q23.043 -9.50439 24.7446 -9.50439Q25.7158 -9.50439 26.4546 -9.12256Q27.1934 -8.74072 27.8076 -7.91895L27.8076 -9.29688L30.7959 -9.29688L30.7959 -0.937988Q30.7959 1.30322 29.3806 2.48608Q27.9653 3.66895 25.2759 3.66895Q24.4043 3.66895 23.5908 3.53613Q22.7773 3.40332 21.9556 3.12939L21.9556 0.813477Q22.7358 1.26172 23.4829 1.48169Q24.23 1.70166 24.9854 1.70166Q26.4463 1.70166 27.127 1.0625Q27.8076 0.42334 27.8076 -0.937988L27.8076 -1.57715ZM25.8486 -7.36279Q24.9272 -7.36279 24.4126 -6.68213Q23.8979 -6.00146 23.8979 -4.75635Q23.8979 -3.47803 24.396 -2.81812Q24.894 -2.1582 25.8486 -2.1582Q26.7783 -2.1582 27.293 -2.83887Q27.8076 -3.51953 27.8076 -4.75635Q27.8076 -6.00146 27.293 -6.68213Q26.7783 -7.36279 25.8486 -7.36279ZM42.998 -5.66113L42.998 0L40.0098 0L40.0098 -0.921387L40.0098 -4.31641Q40.0098 -5.53662 39.9558 -5.99316Q39.9019 -6.44971 39.769 -6.66553Q39.5947 -6.95605 39.2959 -7.11792Q38.9971 -7.27979 38.6152 -7.27979Q37.6855 -7.27979 37.1543 -6.56177Q36.623 -5.84375 36.623 -4.57373L36.623 0L33.6514 0L33.6514 -12.916L36.623 -12.916L36.623 -7.93555Q37.2954 -8.74902 38.0508 -9.13501Q38.8062 -9.521 39.7192 -9.521Q41.3296 -9.521 42.1638 -8.5332Q42.998 -7.54541 42.998 -5.66113ZM45.2476 -6.10107L50.4604 -6.10107L50.4604 -3.68555L45.2476 -3.68555L45.2476 -6.10107ZM62.7705 -0.680664Q61.8906 -0.224121 60.936 0.00830078Q59.9814 0.240723 58.9438 0.240723Q55.8477 0.240723 54.0381 -1.48999Q52.2285 -3.2207 52.2285 -6.18408Q52.2285 -9.15576 54.0381 -10.8865Q55.8477 -12.6172 58.9438 -12.6172Q59.9814 -12.6172 60.936 -12.3848Q61.8906 -12.1523 62.7705 -11.6958L62.7705 -9.13086Q61.8823 -9.73682 61.019 -10.019Q60.1558 -10.3013 59.2012 -10.3013Q57.4912 -10.3013 56.5117 -9.20557Q55.5322 -8.10986 55.5322 -6.18408Q55.5322 -4.2666 56.5117 -3.1709Q57.4912 -2.0752 59.2012 -2.0752Q60.1558 -2.0752 61.019 -2.35742Q61.8823 -2.63965 62.7705 -3.24561L62.7705 -0.680664ZM69.71 -7.396Q68.7222 -7.396 68.2034 -6.68628Q67.6846 -5.97656 67.6846 -4.64014Q67.6846 -3.30371 68.2034 -2.59399Q68.7222 -1.88428 69.71 -1.88428Q70.6812 -1.88428 71.1958 -2.59399Q71.7104 -3.30371 71.7104 -4.64014Q71.7104 -5.97656 71.1958 -6.68628Q70.6812 -7.396 69.71 -7.396ZM69.71 -9.521Q72.1089 -9.521 73.4578 -8.22607Q74.8066 -6.93115 74.8066 -4.64014Q74.8066 -2.34912 73.4578 -1.0542Q72.1089 0.240723 69.71 0.240723Q67.3027 0.240723 65.9456 -1.0542Q64.5884 -2.34912 64.5884 -4.64014Q64.5884 -6.93115 65.9456 -8.22607Q67.3027 -9.521 69.71 -9.521ZM86.3115 -5.66113L86.3115 0L83.3232 0L83.3232 -0.921387L83.3232 -4.33301Q83.3232 -5.53662 83.2693 -5.99316Q83.2153 -6.44971 83.0825 -6.66553Q82.9082 -6.95605 82.6094 -7.11792Q82.3105 -7.27979 81.9287 -7.27979Q80.999 -7.27979 80.4678 -6.56177Q79.9365 -5.84375 79.9365 -4.57373L79.9365 0L76.9648 0L76.9648 -9.29688L79.9365 -9.29688L79.9365 -7.93555Q80.6089 -8.74902 81.3643 -9.13501Q82.1196 -9.521 83.0327 -9.521Q84.6431 -9.521 85.4773 -8.5332Q86.3115 -7.54541 86.3115 -5.66113ZM92.313 -11.9365L92.313 -9.29688L95.376 -9.29688L95.376 -7.17188L92.313 -7.17188L92.313 -3.229Q92.313 -2.58154 92.5703 -2.35327Q92.8276 -2.125 93.5913 -2.125L95.1187 -2.125L95.1187 0L92.5703 0Q90.8105 0 90.0759 -0.734619Q89.3413 -1.46924 89.3413 -3.229L89.3413 -7.17188L87.8638 -7.17188L87.8638 -9.29688L89.3413 -9.29688L89.3413 -11.9365L92.313 -11.9365ZM104.1 -6.76514Q103.71 -6.94775 103.324 -7.03491Q102.938 -7.12207 102.548 -7.12207Q101.402 -7.12207 100.784 -6.38745Q100.166 -5.65283 100.166 -4.2832L100.166 0L97.1938 0L97.1938 -9.29688L100.166 -9.29688L100.166 -7.76953Q100.738 -8.68262 101.481 -9.10181Q102.224 -9.521 103.262 -9.521Q103.411 -9.521 103.585 -9.50854Q103.76 -9.49609 104.092 -9.45459L104.1 -6.76514ZM109.745 -4.18359Q108.815 -4.18359 108.346 -3.86816Q107.877 -3.55273 107.877 -2.93848Q107.877 -2.37402 108.255 -2.05444Q108.632 -1.73486 109.305 -1.73486Q110.143 -1.73486 110.716 -2.33667Q111.289 -2.93848 111.289 -3.84326L111.289 -4.18359L109.745 -4.18359ZM114.285 -5.3042L114.285 0L111.289 0L111.289 -1.37793Q110.691 -0.53125 109.944 -0.145264Q109.197 0.240723 108.126 0.240723Q106.682 0.240723 105.781 -0.601807Q104.88 -1.44434 104.88 -2.78906Q104.88 -4.42432 106.005 -5.18799Q107.13 -5.95166 109.537 -5.95166L111.289 -5.95166L111.289 -6.18408Q111.289 -6.88965 110.732 -7.21753Q110.176 -7.54541 108.998 -7.54541Q108.043 -7.54541 107.221 -7.35449Q106.399 -7.16357 105.694 -6.78174L105.694 -9.04785Q106.648 -9.28027 107.611 -9.40063Q108.574 -9.521 109.537 -9.521Q112.052 -9.521 113.169 -8.52905Q114.285 -7.53711 114.285 -5.3042ZM124.313 -9.00635L124.313 -6.74854Q123.358 -7.14697 122.47 -7.34619Q121.582 -7.54541 120.793 -7.54541Q119.946 -7.54541 119.535 -7.33374Q119.125 -7.12207 119.125 -6.68213Q119.125 -6.3252 119.436 -6.13428Q119.747 -5.94336 120.552 -5.85205L121.075 -5.77734Q123.358 -5.48682 124.146 -4.82275Q124.935 -4.15869 124.935 -2.73926Q124.935 -1.25342 123.839 -0.506348Q122.744 0.240723 120.569 0.240723Q119.647 0.240723 118.664 0.095459Q117.68 -0.0498047 116.643 -0.340332L116.643 -2.59814Q117.531 -2.1665 118.465 -1.95068Q119.398 -1.73486 120.361 -1.73486Q121.233 -1.73486 121.673 -1.97559Q122.113 -2.21631 122.113 -2.68945Q122.113 -3.08789 121.81 -3.28296Q121.507 -3.47803 120.602 -3.58594L120.079 -3.65234Q118.095 -3.90137 117.298 -4.57373Q116.501 -5.24609 116.501 -6.61572Q116.501 -8.09326 117.514 -8.80713Q118.527 -9.521 120.619 -9.521Q121.44 -9.521 122.345 -9.39648Q123.25 -9.27197 124.313 -9.00635ZM130.414 -11.9365L130.414 -9.29688L133.477 -9.29688L133.477 -7.17188L130.414 -7.17188L130.414 -3.229Q130.414 -2.58154 130.671 -2.35327Q130.928 -2.125 131.692 -2.125L133.219 -2.125L133.219 0L130.671 0Q128.911 0 128.177 -0.734619Q127.442 -1.46924 127.442 -3.229L127.442 -7.17188L125.964 -7.17188L125.964 -9.29688L127.442 -9.29688L127.442 -11.9365L130.414 -11.9365ZM135.768 -9.29688L138.764 -9.29688L138.764 -6.08447L135.768 -6.08447L135.768 -9.29688ZM135.768 -3.2124L138.764 -3.2124L138.764 0L135.768 0L135.768 -3.2124ZM152.685 -6.89795Q153.689 -6.89795 154.125 -7.27148Q154.561 -7.64502 154.561 -8.5Q154.561 -9.34668 154.125 -9.71191Q153.689 -10.0771 152.685 -10.0771L151.34 -10.0771L151.34 -6.89795L152.685 -6.89795ZM151.34 -4.68994L151.34 0L148.144 0L148.144 -12.3931L153.025 -12.3931Q155.474 -12.3931 156.615 -11.5713Q157.756 -10.7495 157.756 -8.97314Q157.756 -7.74463 157.163 -6.95605Q156.569 -6.16748 155.374 -5.79395Q156.03 -5.64453 156.549 -5.11743Q157.067 -4.59033 157.599 -3.51953L159.333 0L155.93 0L154.419 -3.07959Q153.963 -4.00928 153.494 -4.34961Q153.025 -4.68994 152.245 -4.68994L151.34 -4.68994ZM170.382 -4.67334L170.382 -3.82666L163.434 -3.82666Q163.542 -2.78076 164.189 -2.25781Q164.837 -1.73486 165.999 -1.73486Q166.937 -1.73486 167.921 -2.01294Q168.904 -2.29102 169.942 -2.85547L169.942 -0.564453Q168.888 -0.166016 167.833 0.0373535Q166.779 0.240723 165.725 0.240723Q163.202 0.240723 161.803 -1.04175Q160.404 -2.32422 160.404 -4.64014Q160.404 -6.91455 161.778 -8.21777Q163.152 -9.521 165.559 -9.521Q167.75 -9.521 169.066 -8.20117Q170.382 -6.88135 170.382 -4.67334ZM167.327 -5.66113Q167.327 -6.50781 166.833 -7.02661Q166.339 -7.54541 165.542 -7.54541Q164.679 -7.54541 164.14 -7.05981Q163.6 -6.57422 163.467 -5.66113L167.327 -5.66113ZM171.461 -9.29688L174.433 -9.29688L176.749 -2.87207L179.056 -9.29688L182.036 -9.29688L178.375 0L175.113 0L171.461 -9.29688ZM192.993 -4.67334L192.993 -3.82666L186.045 -3.82666Q186.153 -2.78076 186.801 -2.25781Q187.448 -1.73486 188.61 -1.73486Q189.548 -1.73486 190.532 -2.01294Q191.516 -2.29102 192.553 -2.85547L192.553 -0.564453Q191.499 -0.166016 190.445 0.0373535Q189.391 0.240723 188.336 0.240723Q185.813 0.240723 184.414 -1.04175Q183.016 -2.32422 183.016 -4.64014Q183.016 -6.91455 184.389 -8.21777Q185.763 -9.521 188.17 -9.521Q190.362 -9.521 191.677 -8.20117Q192.993 -6.88135 192.993 -4.67334ZM189.938 -5.66113Q189.938 -6.50781 189.445 -7.02661Q188.951 -7.54541 188.154 -7.54541Q187.291 -7.54541 186.751 -7.05981Q186.211 -6.57422 186.079 -5.66113L189.938 -5.66113ZM204.589 -5.66113L204.589 0L201.601 0L201.601 -0.921387L201.601 -4.33301Q201.601 -5.53662 201.547 -5.99316Q201.493 -6.44971 201.36 -6.66553Q201.186 -6.95605 200.887 -7.11792Q200.588 -7.27979 200.207 -7.27979Q199.277 -7.27979 198.746 -6.56177Q198.214 -5.84375 198.214 -4.57373L198.214 0L195.243 0L195.243 -9.29688L198.214 -9.29688L198.214 -7.93555Q198.887 -8.74902 199.642 -9.13501Q200.397 -9.521 201.311 -9.521Q202.921 -9.521 203.755 -8.5332Q204.589 -7.54541 204.589 -5.66113ZM207.246 -3.61914L207.246 -9.29688L210.234 -9.29688L210.234 -8.36719Q210.234 -7.61182 210.226 -6.47046Q210.217 -5.3291 210.217 -4.94727Q210.217 -3.82666 210.275 -3.33276Q210.333 -2.83887 210.475 -2.61475Q210.657 -2.32422 210.952 -2.1665Q211.247 -2.00879 211.628 -2.00879Q212.558 -2.00879 213.089 -2.72266Q213.621 -3.43652 213.621 -4.70654L213.621 -9.29688L216.592 -9.29688L216.592 0L213.621 0L213.621 -1.34473Q212.948 -0.53125 212.197 -0.145264Q211.446 0.240723 210.541 0.240723Q208.931 0.240723 208.088 -0.74707Q207.246 -1.73486 207.246 -3.61914ZM228.728 -4.67334L228.728 -3.82666L221.78 -3.82666Q221.888 -2.78076 222.536 -2.25781Q223.183 -1.73486 224.345 -1.73486Q225.283 -1.73486 226.267 -2.01294Q227.25 -2.29102 228.288 -2.85547L228.288 -0.564453Q227.234 -0.166016 226.18 0.0373535Q225.125 0.240723 224.071 0.240723Q221.548 0.240723 220.149 -1.04175Q218.75 -2.32422 218.75 -4.64014Q218.75 -6.91455 220.124 -8.21777Q221.498 -9.521 223.905 -9.521Q226.097 -9.521 227.412 -8.20117Q228.728 -6.88135 228.728 -4.67334ZM225.673 -5.66113Q225.673 -6.50781 225.179 -7.02661Q224.686 -7.54541 223.889 -7.54541Q223.025 -7.54541 222.486 -7.05981Q221.946 -6.57422 221.813 -5.66113L225.673 -5.66113ZM235.551 -12.3931L246.973 -12.3931L246.973 -9.97754L242.864 -9.97754L242.864 0L239.668 0L239.668 -9.97754L235.551 -9.97754L235.551 -12.3931ZM255.398 -6.76514Q255.008 -6.94775 254.622 -7.03491Q254.236 -7.12207 253.846 -7.12207Q252.701 -7.12207 252.082 -6.38745Q251.464 -5.65283 251.464 -4.2832L251.464 0L248.492 0L248.492 -9.29688L251.464 -9.29688L251.464 -7.76953Q252.037 -8.68262 252.78 -9.10181Q253.522 -9.521 254.56 -9.521Q254.709 -9.521 254.884 -9.50854Q255.058 -9.49609 255.39 -9.45459L255.398 -6.76514ZM266.156 -4.67334L266.156 -3.82666L259.208 -3.82666Q259.316 -2.78076 259.964 -2.25781Q260.611 -1.73486 261.773 -1.73486Q262.711 -1.73486 263.695 -2.01294Q264.679 -2.29102 265.716 -2.85547L265.716 -0.564453Q264.662 -0.166016 263.608 0.0373535Q262.554 0.240723 261.5 0.240723Q258.976 0.240723 257.577 -1.04175Q256.179 -2.32422 256.179 -4.64014Q256.179 -6.91455 257.552 -8.21777Q258.926 -9.521 261.333 -9.521Q263.525 -9.521 264.841 -8.20117Q266.156 -6.88135 266.156 -4.67334ZM263.102 -5.66113Q263.102 -6.50781 262.608 -7.02661Q262.114 -7.54541 261.317 -7.54541Q260.454 -7.54541 259.914 -7.05981Q259.375 -6.57422 259.242 -5.66113L263.102 -5.66113ZM277.752 -5.66113L277.752 0L274.764 0L274.764 -0.921387L274.764 -4.33301Q274.764 -5.53662 274.71 -5.99316Q274.656 -6.44971 274.523 -6.66553Q274.349 -6.95605 274.05 -7.11792Q273.751 -7.27979 273.37 -7.27979Q272.44 -7.27979 271.909 -6.56177Q271.377 -5.84375 271.377 -4.57373L271.377 0L268.406 0L268.406 -9.29688L271.377 -9.29688L271.377 -7.93555Q272.05 -8.74902 272.805 -9.13501Q273.561 -9.521 274.474 -9.521Q276.084 -9.521 276.918 -8.5332Q277.752 -7.54541 277.752 -5.66113ZM286.833 -7.93555L286.833 -12.916L289.822 -12.916L289.822 0L286.833 0L286.833 -1.34473Q286.219 -0.522949 285.48 -0.141113Q284.742 0.240723 283.771 0.240723Q282.052 0.240723 280.948 -1.12476Q279.844 -2.49023 279.844 -4.64014Q279.844 -6.79004 280.948 -8.15552Q282.052 -9.521 283.771 -9.521Q284.733 -9.521 285.476 -9.13501Q286.219 -8.74902 286.833 -7.93555ZM284.875 -1.91748Q285.829 -1.91748 286.331 -2.61475Q286.833 -3.31201 286.833 -4.64014Q286.833 -5.96826 286.331 -6.66553Q285.829 -7.36279 284.875 -7.36279Q283.928 -7.36279 283.426 -6.66553Q282.924 -5.96826 282.924 -4.64014Q282.924 -3.31201 283.426 -2.61475Q283.928 -1.91748 284.875 -1.91748Z" fill="#000000" transform="translate(450,23.299999999999997) translate(-145.624755859375,0)" />
<rect x="90.43110894097222" y="40.4" width="789.5688910590278" height="357.6777777777778" fill="#FFFFFF" />
<line x1="125.03372966467464" y1="40.4" x2="125.03372966467464" y2="398.0777777777778" stroke="#666666" stroke-width="1.5" />
<line x1="250.86144138722887" y1="40.4" x2="250.86144138722887" y2="398.0777777777778" stroke="#666666" stroke-width="1.5" />
<line x1="376.6891531097831" y1="40.4" x2="376.6891531097831" y2="398.0777777777778" stroke="#666666" stroke-width="1.5" />
<line x1="502.5168648323373" y1="40.4" x2="502.5168648323373" y2="398.0777777777778" stroke="#666666" stroke-width="1.5" />
<line x1="628.3445765548915" y1="40.4" x2="628.3445765548915" y2="398.0777777777778" stroke="#666666" stroke-width="1.5" />
<line x1="754.1722882774458" y1="40.4" x2="754.1722882774458" y2="398.0777777777778" stroke="#666666" stroke-width="1.5" />
<line x1="880" y1="40.4" x2="880" y2="398.0777777777778" stroke="#666666" stroke-width="1.5" />
<line x1="90.43110894097222" y1="398.0777777777778" x2="880" y2="398.0777777777778" stroke="#666666" stroke-width="1.5" />
<line x1="90.43110894097222" y1="363.88296154663266" x2="880" y2="363.88296154663266" stroke="#666666" stroke-width="1.5" />
<line x1="90.43110894097222" y1="329.68814531548753" x2="880" y2="329.68814531548753" stroke="#666666" stroke-width="1.5" />
<line x1="90.43110894097222" y1="295.49332908434246" x2="880" y2="295.49332908434246" stroke="#666666" stroke-width="1.5" />
<line x1="90.43110894097222" y1="261.29851285319734" x2="880" y2="261.29851285319734" stroke="#666666" stroke-width="1.5" />
<line x1="90.43110894097222" y1="227.1036966220522" x2="880" y2="227.1036966220522" stroke="#666666" stroke-width="1.5" />
<line x1="90.43110894097222" y1="192.90888039090714" x2="880" y2="192.90888039090714" stroke="#666666" stroke-width="1.5" />
<line x1="90.43110894097222" y1="158.71406415976202" x2="880" y2="158.71406415976202" stroke="#666666" stroke-width="1.5" />
<line x1="90.43110894097222" y1="124.51924792861689" x2="880" y2="124.51924792861689" stroke="#666666" stroke-width="1.5" />
<line x1="90.43110894097222" y1="90.32443169747182" x2="880" y2="90.32443169747182" stroke="#666666" stroke-width="1.5" />
<line x1="90.43110894097222" y1="56.1296154663267" x2="880" y2="56.1296154663267" stroke="#666666" stroke-width="1.5" />
<line x1="125.03372966467464" y1="397.6777777777778" x2="125.03372966467464" y2="402.93888888888887" stroke="#000000" stroke-width="1.1111111111111112" />
<path d="M4.13232 -8.63281Q3.14209 -8.63281 2.6438 -7.65845Q2.14551 -6.68408 2.14551 -4.729Q2.14551 -2.78027 2.6438 -1.80591Q3.14209 -0.831543 4.13232 -0.831543Q5.12891 -0.831543 5.6272 -1.80591Q6.12549 -2.78027 6.12549 -4.729Q6.12549 -6.68408 5.6272 -7.65845Q5.12891 -8.63281 4.13232 -8.63281ZM4.13232 -9.64844Q5.72559 -9.64844 6.56665 -8.38843Q7.40771 -7.12842 7.40771 -4.729Q7.40771 -2.33594 6.56665 -1.07593Q5.72559 0.184082 4.13232 0.184082Q2.53906 0.184082 1.698 -1.07593Q0.856933 -2.33594 0.856934 -4.729Q0.856934 -7.12842 1.698 -8.38843Q2.53906 -9.64844 4.13232 -9.64844Z" fill="#000000" transform="translate(125.03372966467464,420.79999999999995) translate(-4.135498046875,0)" />
<line x1="250.86144138722887" y1="397.6777777777778" x2="250.86144138722887" y2="402.93888888888887" stroke="#000000" stroke-width="1.1111111111111112" />
<path d="M2.49463 -1.0791L6.96973 -1.0791L6.96973 0L0.952148 0L0.952148 -1.0791Q1.68213 -1.83447 2.94214 -3.10718Q4.20215 -4.37988 4.52588 -4.74805Q5.1416 -5.43994 5.38599 -5.91919Q5.63037 -6.39844 5.63037 -6.86182Q5.63037 -7.61719 5.10034 -8.09326Q4.57031 -8.56934 3.71973 -8.56934Q3.1167 -8.56934 2.44702 -8.35986Q1.77734 -8.15039 1.01563 -7.7251L1.01563 -9.02002Q1.79004 -9.33105 2.46289 -9.48975Q3.13574 -9.64844 3.69434 -9.64844Q5.16699 -9.64844 6.04297 -8.91211Q6.91895 -8.17578 6.91895 -6.94434Q6.91895 -6.36035 6.69995 -5.83667Q6.48096 -5.31299 5.90332 -4.60205Q5.74463 -4.41797 4.89404 -3.53882Q4.04346 -2.65967 2.49463 -1.0791Z" fill="#000000" transform="translate(250.86144138722887,420.79999999999995) translate(-4.135498046875,0)" />
<line x1="376.6891531097831" y1="397.6777777777778" x2="376.6891531097831" y2="402.93888888888887" stroke="#000000" stroke-width="1.1111111111111112" />
<path d="M4.91309 -8.35986L1.67578 -3.30078L4.91309 -3.30078L4.91309 -8.35986ZM4.57666 -9.47705L6.18896 -9.47705L6.18896 -3.30078L7.54102 -3.30078L7.54102 -2.23438L6.18896 -2.23438L6.18896 0L4.91309 0L4.91309 -2.23438L0.634766 -2.23438L0.634766 -3.47217L4.57666 -9.47705Z" fill="#000000" transform="translate(376.6891531097831,420.79999999999995) translate(-4.135498046875,0)" />
<line x1="502.5168648323373" y1="397.6777777777778" x2="502.5168648323373" y2="402.93888888888887" stroke="#000000" stroke-width="1.1111111111111112" />
<path d="M4.29102 -5.24951Q3.42773 -5.24951 2.9231 -4.65918Q2.41846 -4.06885 2.41846 -3.04053Q2.41846 -2.01855 2.9231 -1.42505Q3.42773 -0.831543 4.29102 -0.831543Q5.1543 -0.831543 5.65894 -1.42505Q6.16357 -2.01855 6.16357 -3.04053Q6.16357 -4.06885 5.65894 -4.65918Q5.1543 -5.24951 4.29102 -5.24951ZM6.83643 -9.26758L6.83643 -8.09961Q6.354 -8.32813 5.86206 -8.44873Q5.37012 -8.56934 4.8877 -8.56934Q3.61816 -8.56934 2.94849 -7.7124Q2.27881 -6.85547 2.18359 -5.12256Q2.55811 -5.6748 3.12305 -5.96997Q3.68799 -6.26514 4.36719 -6.26514Q5.79541 -6.26514 6.62378 -5.39868Q7.45215 -4.53223 7.45215 -3.04053Q7.45215 -1.58057 6.58887 -0.698242Q5.72559 0.184082 4.29102 0.184082Q2.64697 0.184082 1.77734 -1.07593Q0.907715 -2.33594 0.907715 -4.729Q0.907715 -6.97607 1.97412 -8.31226Q3.04053 -9.64844 4.83691 -9.64844Q5.31934 -9.64844 5.81128 -9.55322Q6.30322 -9.45801 6.83643 -9.26758Z" fill="#000000" transform="translate(502.5168648323373,420.79999999999995) translate(-4.135498046875,0)" />
<line x1="628.3445765548915" y1="397.6777777777778" x2="628.3445765548915" y2="402.93888888888887" stroke="#000000" stroke-width="1.1111111111111112" />
<path d="M4.13232 -4.50049Q3.21826 -4.50049 2.69458 -4.01172Q2.1709 -3.52295 2.1709 -2.66602Q2.1709 -1.80908 2.69458 -1.32031Q3.21826 -0.831543 4.13232 -0.831543Q5.04639 -0.831543 5.57324 -1.32349Q6.1001 -1.81543 6.1001 -2.66602Q6.1001 -3.52295 5.57642 -4.01172Q5.05273 -4.50049 4.13232 -4.50049ZM2.8501 -5.04639Q2.0249 -5.24951 1.5647 -5.81445Q1.10449 -6.37939 1.10449 -7.19189Q1.10449 -8.32812 1.91382 -8.98828Q2.72314 -9.64844 4.13232 -9.64844Q5.54785 -9.64844 6.354 -8.98828Q7.16016 -8.32813 7.16016 -7.19189Q7.16016 -6.37939 6.69995 -5.81445Q6.23975 -5.24951 5.4209 -5.04639Q6.34766 -4.83057 6.86499 -4.20215Q7.38232 -3.57373 7.38232 -2.66602Q7.38232 -1.28857 6.54126 -0.552246Q5.70019 0.184082 4.13232 0.184082Q2.56445 0.184082 1.72339 -0.552246Q0.882324 -1.28857 0.882324 -2.66602Q0.882324 -3.57373 1.40283 -4.20215Q1.92334 -4.83057 2.8501 -5.04639ZM2.38037 -7.07129Q2.38037 -6.33496 2.84058 -5.92236Q3.30078 -5.50977 4.13232 -5.50977Q4.95752 -5.50977 5.42407 -5.92236Q5.89063 -6.33496 5.89063 -7.07129Q5.89063 -7.80762 5.42407 -8.22021Q4.95752 -8.63281 4.13232 -8.63281Q3.30078 -8.63281 2.84058 -8.22021Q2.38037 -7.80762 2.38037 -7.07129Z" fill="#000000" transform="translate(628.3445765548915,420.79999999999995) translate(-4.135498046875,0)" />
<line x1="754.1722882774458" y1="397.6777777777778" x2="754.1722882774458" y2="402.93888888888887" stroke="#000000" stroke-width="1.1111111111111112" />
<path d="M1.6123 -1.0791L3.70703 -1.0791L3.70703 -8.30908L1.42822 -7.85205L1.42822 -9.02002L3.69434 -9.47705L4.97656 -9.47705L4.97656 -1.0791L7.07129 -1.0791L7.07129 0L1.6123 0L1.6123 -1.0791ZM12.4033 -8.63281Q11.4131 -8.63281 10.9148 -7.65845Q10.4165 -6.68408 10.4165 -4.729Q10.4165 -2.78027 10.9148 -1.80591Q11.4131 -0.831543 12.4033 -0.831543Q13.3999 -0.831543 13.8982 -1.80591Q14.3965 -2.78027 14.3965 -4.729Q14.3965 -6.68408 13.8982 -7.65845Q13.3999 -8.63281 12.4033 -8.63281ZM12.4033 -9.64844Q13.9966 -9.64844 14.8376 -8.38843Q15.6787 -7.12842 15.6787 -4.729Q15.6787 -2.33594 14.8376 -1.07593Q13.9966 0.184082 12.4033 0.184082Q10.8101 0.184082 9.96899 -1.07593Q9.12793 -2.33594 9.12793 -4.729Q9.12793 -7.12842 9.96899 -8.38843Q10.8101 -9.64844 12.4033 -9.64844Z" fill="#000000" transform="translate(754.1722882774458,420.79999999999995) translate(-8.27099609375,0)" />
<line x1="880" y1="397.6777777777778" x2="880" y2="402.93888888888887" stroke="#000000" stroke-width="1.1111111111111112" />
<path d="M1.6123 -1.0791L3.70703 -1.0791L3.70703 -8.30908L1.42822 -7.85205L1.42822 -9.02002L3.69434 -9.47705L4.97656 -9.47705L4.97656 -1.0791L7.07129 -1.0791L7.07129 0L1.6123 0L1.6123 -1.0791ZM10.7656 -1.0791L15.2407 -1.0791L15.2407 0L9.22314 0L9.22314 -1.0791Q9.95313 -1.83447 11.2131 -3.10718Q12.4731 -4.37988 12.7969 -4.74805Q13.4126 -5.43994 13.657 -5.91919Q13.9014 -6.39844 13.9014 -6.86182Q13.9014 -7.61719 13.3713 -8.09326Q12.8413 -8.56934 11.9907 -8.56934Q11.3877 -8.56934 10.718 -8.35986Q10.0483 -8.15039 9.28662 -7.7251L9.28662 -9.02002Q10.061 -9.33105 10.7339 -9.48975Q11.4067 -9.64844 11.9653 -9.64844Q13.438 -9.64844 14.314 -8.91211Q15.1899 -8.17578 15.1899 -6.94434Q15.1899 -6.36035 14.9709 -5.83667Q14.752 -5.31299 14.1743 -4.60205Q14.0156 -4.41797 13.165 -3.53882Q12.3145 -2.65967 10.7656 -1.0791Z" fill="#000000" transform="translate(880,420.79999999999995) translate(-8.27099609375,0)" />
<line x1="85.56999782986111" y1="398.0777777777778" x2="90.83110894097223" y2="398.0777777777778" stroke="#000000" stroke-width="1.1111111111111112" />
<path d="M1.6123 -1.0791L3.70703 -1.0791L3.70703 -8.30908L1.42822 -7.85205L1.42822 -9.02002L3.69434 -9.47705L4.97656 -9.47705L4.97656 -1.0791L7.07129 -1.0791L7.07129 0L1.6123 0L1.6123 -1.0791ZM9.66113 -1.6123L11.0005 -1.6123L11.0005 0L9.66113 0L9.66113 -1.6123ZM16.5356 -8.63281Q15.5454 -8.63281 15.0471 -7.65845Q14.5488 -6.68408 14.5488 -4.729Q14.5488 -2.78027 15.0471 -1.80591Q15.5454 -0.831543 16.5356 -0.831543Q17.5322 -0.831543 18.0305 -1.80591Q18.5288 -2.78027 18.5288 -4.729Q18.5288 -6.68408 18.0305 -7.65845Q17.5322 -8.63281 16.5356 -8.63281ZM16.5356 -9.64844Q18.1289 -9.64844 18.97 -8.38843Q19.811 -7.12842 19.811 -4.729Q19.811 -2.33594 18.97 -1.07593Q18.1289 0.184082 16.5356 0.184082Q14.9424 0.184082 14.1013 -1.07593Q13.2603 -2.33594 13.2603 -4.729Q13.2603 -7.12842 14.1013 -8.38843Q14.9424 -9.64844 16.5356 -9.64844ZM24.8066 -8.63281Q23.8164 -8.63281 23.3181 -7.65845Q22.8198 -6.68408 22.8198 -4.729Q22.8198 -2.78027 23.3181 -1.80591Q23.8164 -0.831543 24.8066 -0.831543Q25.8032 -0.831543 26.3015 -1.80591Q26.7998 -2.78027 26.7998 -4.729Q26.7998 -6.68408 26.3015 -7.65845Q25.8032 -8.63281 24.8066 -8.63281ZM24.8066 -9.64844Q26.3999 -9.64844 27.241 -8.38843Q28.082 -7.12842 28.082 -4.729Q28.082 -2.33594 27.241 -1.07593Q26.3999 0.184082 24.8066 0.184082Q23.2134 0.184082 22.3723 -1.07593Q21.5313 -2.33594 21.5313 -4.729Q21.5313 -7.12842 22.3723 -8.38843Q23.2134 -9.64844 24.8066 -9.64844Z" fill="#000000" transform="translate(80.70888671875,402.0777777777778) translate(-28.9453125,0)" />
<line x1="85.56999782986111" y1="363.88296154663266" x2="90.83110894097223" y2="363.88296154663266" stroke="#000000" stroke-width="1.1111111111111112" />
<path d="M1.6123 -1.0791L3.70703 -1.0791L3.70703 -8.30908L1.42822 -7.85205L1.42822 -9.02002L3.69434 -9.47705L4.97656 -9.47705L4.97656 -1.0791L7.07129 -1.0791L7.07129 0L1.6123 0L1.6123 -1.0791ZM9.66113 -1.6123L11.0005 -1.6123L11.0005 0L9.66113 0L9.66113 -1.6123ZM14.8979 -1.0791L19.373 -1.0791L19.373 0L13.3555 0L13.3555 -1.0791Q14.0854 -1.83447 15.3455 -3.10718Q16.6055 -4.37988 16.9292 -4.74805Q17.5449 -5.43994 17.7893 -5.91919Q18.0337 -6.39844 18.0337 -6.86182Q18.0337 -7.61719 17.5037 -8.09326Q16.9736 -8.56934 16.123 -8.56934Q15.52 -8.56934 14.8503 -8.35986Q14.1807 -8.15039 13.4189 -7.7251L13.4189 -9.02002Q14.1934 -9.33105 14.8662 -9.48975Q15.5391 -9.64844 16.0977 -9.64844Q17.5703 -9.64844 18.4463 -8.91211Q19.3223 -8.17578 19.3223 -6.94434Q19.3223 -6.36035 19.1033 -5.83667Q18.8843 -5.31299 18.3066 -4.60205Q18.1479 -4.41797 17.2974 -3.53882Q16.4468 -2.65967 14.8979 -1.0791ZM22.0771 -9.47705L27.1108 -9.47705L27.1108 -8.39795L23.2515 -8.39795L23.2515 -6.07471Q23.5308 -6.16992 23.8101 -6.21753Q24.0894 -6.26514 24.3687 -6.26514Q25.9556 -6.26514 26.8823 -5.39551Q27.8091 -4.52588 27.8091 -3.04053Q27.8091 -1.51074 26.8569 -0.66333Q25.9048 0.184082 24.1719 0.184082Q23.5752 0.184082 22.9563 0.0825195C22.5437 0.0148112 22.1173 -0.0867513 21.6772 -0.222168L21.6772 -1.51074Q22.2485 -1.19971 22.8579 -1.04736Q23.4673 -0.89502 24.1465 -0.89502Q25.2446 -0.89502 25.8857 -1.47266Q26.5269 -2.05029 26.5269 -3.04053Q26.5269 -4.03076 25.8857 -4.6084Q25.2446 -5.18603 24.1465 -5.18604Q23.6323 -5.18604 23.1213 -5.07178Q22.6104 -4.95752 22.0771 -4.71631L22.0771 -9.47705Z" fill="#000000" transform="translate(80.70888671875,367.88296154663266) translate(-28.9453125,0)" />
<line x1="85.56999782986111" y1="329.68814531548753" x2="90.83110894097223" y2="329.68814531548753" stroke="#000000" stroke-width="1.1111111111111112" />
<path d="M1.6123 -1.0791L3.70703 -1.0791L3.70703 -8.30908L1.42822 -7.85205L1.42822 -9.02002L3.69434 -9.47705L4.97656 -9.47705L4.97656 -1.0791L7.07129 -1.0791L7.07129 0L1.6123 0L1.6123 -1.0791ZM9.66113 -1.6123L11.0005 -1.6123L11.0005 0L9.66113 0L9.66113 -1.6123ZM13.8062 -9.47705L18.8398 -9.47705L18.8398 -8.39795L14.9805 -8.39795L14.9805 -6.07471Q15.2598 -6.16992 15.5391 -6.21753Q15.8184 -6.26514 16.0977 -6.26514Q17.6846 -6.26514 18.6113 -5.39551Q19.5381 -4.52588 19.5381 -3.04053Q19.5381 -1.51074 18.5859 -0.66333Q17.6338 0.184082 15.9009 0.184082Q15.3042 0.184082 14.6853 0.0825195C14.2727 0.0148112 13.8464 -0.0867513 13.4063 -0.222168L13.4063 -1.51074Q13.9775 -1.19971 14.5869 -1.04736Q15.1963 -0.89502 15.8755 -0.89502Q16.9736 -0.89502 17.6147 -1.47266Q18.2559 -2.05029 18.2559 -3.04053Q18.2559 -4.03076 17.6147 -4.6084Q16.9736 -5.18603 15.8755 -5.18604Q15.3613 -5.18604 14.8503 -5.07178Q14.3394 -4.95752 13.8062 -4.71631L13.8062 -9.47705ZM24.8066 -8.63281Q23.8164 -8.63281 23.3181 -7.65845Q22.8198 -6.68408 22.8198 -4.729Q22.8198 -2.78027 23.3181 -1.80591Q23.8164 -0.831543 24.8066 -0.831543Q25.8032 -0.831543 26.3015 -1.80591Q26.7998 -2.78027 26.7998 -4.729Q26.7998 -6.68408 26.3015 -7.65845Q25.8032 -8.63281 24.8066 -8.63281ZM24.8066 -9.64844Q26.3999 -9.64844 27.241 -8.38843Q28.082 -7.12842 28.082 -4.729Q28.082 -2.33594 27.241 -1.07593Q26.3999 0.184082 24.8066 0.184082Q23.2134 0.184082 22.3723 -1.07593Q21.5313 -2.33594 21.5313 -4.729Q21.5313 -7.12842 22.3723 -8.38843Q23.2134 -9.64844 24.8066 -9.64844Z" fill="#000000" transform="translate(80.70888671875,333.68814531548753) translate(-28.9453125,0)" />
<line x1="85.56999782986111" y1="295.49332908434246" x2="90.83110894097223" y2="295.49332908434246" stroke="#000000" stroke-width="1.1111111111111112" />
<path d="M1.6123 -1.0791L3.70703 -1.0791L3.70703 -8.30908L1.42822 -7.85205L1.42822 -9.02002L3.69434 -9.47705L4.97656 -9.47705L4.97656 -1.0791L7.07129 -1.0791L7.07129 0L1.6123 0L1.6123 -1.0791ZM9.66113 -1.6123L11.0005 -1.6123L11.0005 0L9.66113 0L9.66113 -1.6123ZM13.4697 -9.47705L19.5635 -9.47705L19.5635 -8.93115L16.123 0L14.7837 0L18.021 -8.39795L13.4697 -8.39795L13.4697 -9.47705ZM22.0771 -9.47705L27.1108 -9.47705L27.1108 -8.39795L23.2515 -8.39795L23.2515 -6.07471Q23.5308 -6.16992 23.8101 -6.21753Q24.0894 -6.26514 24.3687 -6.26514Q25.9556 -6.26514 26.8823 -5.39551Q27.8091 -4.52588 27.8091 -3.04053Q27.8091 -1.51074 26.8569 -0.66333Q25.9048 0.184082 24.1719 0.184082Q23.5752 0.184082 22.9563 0.0825195C22.5437 0.0148112 22.1173 -0.0867513 21.6772 -0.222168L21.6772 -1.51074Q22.2485 -1.19971 22.8579 -1.04736Q23.4673 -0.89502 24.1465 -0.89502Q25.2446 -0.89502 25.8857 -1.47266Q26.5269 -2.05029 26.5269 -3.04053Q26.5269 -4.03076 25.8857 -4.6084Q25.2446 -5.18603 24.1465 -5.18604Q23.6323 -5.18604 23.1213 -5.07178Q22.6104 -4.95752 22.0771 -4.71631L22.0771 -9.47705Z" fill="#000000" transform="translate(80.70888671875,299.49332908434246) translate(-28.9453125,0)" />
<line x1="85.56999782986111" y1="261.29851285319734" x2="90.83110894097223" y2="261.29851285319734" stroke="#000000" stroke-width="1.1111111111111112" />
<path d="M2.49463 -1.0791L6.96973 -1.0791L6.96973 0L0.952148 0L0.952148 -1.0791Q1.68213 -1.83447 2.94214 -3.10718Q4.20215 -4.37988 4.52588 -4.74805Q5.1416 -5.43994 5.38599 -5.91919Q5.63037 -6.39844 5.63037 -6.86182Q5.63037 -7.61719 5.10034 -8.09326Q4.57031 -8.56934 3.71973 -8.56934Q3.1167 -8.56934 2.44702 -8.35986Q1.77734 -8.15039 1.01563 -7.7251L1.01563 -9.02002Q1.79004 -9.33105 2.46289 -9.48975Q3.13574 -9.64844 3.69434 -9.64844Q5.16699 -9.64844 6.04297 -8.91211Q6.91895 -8.17578 6.91895 -6.94434Q6.91895 -6.36035 6.69995 -5.83667Q6.48096 -5.31299 5.90332 -4.60205Q5.74463 -4.41797 4.89404 -3.53882Q4.04346 -2.65967 2.49463 -1.0791ZM9.66113 -1.6123L11.0005 -1.6123L11.0005 0L9.66113 0L9.66113 -1.6123ZM16.5356 -8.63281Q15.5454 -8.63281 15.0471 -7.65845Q14.5488 -6.68408 14.5488 -4.729Q14.5488 -2.78027 15.0471 -1.80591Q15.5454 -0.831543 16.5356 -0.831543Q17.5322 -0.831543 18.0305 -1.80591Q18.5288 -2.78027 18.5288 -4.729Q18.5288 -6.68408 18.0305 -7.65845Q17.5322 -8.63281 16.5356 -8.63281ZM16.5356 -9.64844Q18.1289 -9.64844 18.97 -8.38843Q19.811 -7.12842 19.811 -4.729Q19.811 -2.33594 18.97 -1.07593Q18.1289 0.184082 16.5356 0.184082Q14.9424 0.184082 14.1013 -1.07593Q13.2603 -2.33594 13.2603 -4.729Q13.2603 -7.12842 14.1013 -8.38843Q14.9424 -9.64844 16.5356 -9.64844ZM24.8066 -8.63281Q23.8164 -8.63281 23.3181 -7.65845Q22.8198 -6.68408 22.8198 -4.729Q22.8198 -2.78027 23.3181 -1.80591Q23.8164 -0.831543 24.8066 -0.831543Q25.8032 -0.831543 26.3015 -1.80591Q26.7998 -2.78027 26.7998 -4.729Q26.7998 -6.68408 26.3015 -7.65845Q25.8032 -8.63281 24.8066 -8.63281ZM24.8066 -9.64844Q26.3999 -9.64844 27.241 -8.38843Q28.082 -7.12842 28.082 -4.729Q28.082 -2.33594 27.241 -1.07593Q26.3999 0.184082 24.8066 0.184082Q23.2134 0.184082 22.3723 -1.07593Q21.5313 -2.33594 21.5313 -4.729Q21.5313 -7.12842 22.3723 -8.38843Q23.2134 -9.64844 24.8066 -9.64844Z" fill="#000000" transform="translate(80.70888671875,265.29851285319734) translate(-28.9453125,0)" />
<line x1="85.56999782986111" y1="227.1036966220522" x2="90.83110894097223" y2="227.1036966220522" stroke="#000000" stroke-width="1.1111111111111112" />
<path d="M2.49463 -1.0791L6.96973 -1.0791L6.96973 0L0.952148 0L0.952148 -1.0791Q1.68213 -1.83447 2.94214 -3.10718Q4.20215 -4.37988 4.52588 -4.74805Q5.1416 -5.43994 5.38599 -5.91919Q5.63037 -6.39844 5.63037 -6.86182Q5.63037 -7.61719 5.10034 -8.09326Q4.57031 -8.56934 3.71973 -8.56934Q3.1167 -8.56934 2.44702 -8.35986Q1.77734 -8.15039 1.01563 -7.7251L1.01563 -9.02002Q1.79004 -9.33105 2.46289 -9.48975Q3.13574 -9.64844 3.69434 -9.64844Q5.16699 -9.64844 6.04297 -8.91211Q6.91895 -8.17578 6.91895 -6.94434Q6.91895 -6.36035 6.69995 -5.83667Q6.48096 -5.31299 5.90332 -4.60205Q5.74463 -4.41797 4.89404 -3.53882Q4.04346 -2.65967 2.49463 -1.0791ZM9.66113 -1.6123L11.0005 -1.6123L11.0005 0L9.66113 0L9.66113 -1.6123ZM14.8979 -1.0791L19.373 -1.0791L19.373 0L13.3555 0L13.3555 -1.0791Q14.0854 -1.83447 15.3455 -3.10718Q16.6055 -4.37988 16.9292 -4.74805Q17.5449 -5.43994 17.7893 -5.91919Q18.0337 -6.39844 18.0337 -6.86182Q18.0337 -7.61719 17.5037 -8.09326Q16.9736 -8.56934 16.123 -8.56934Q15.52 -8.56934 14.8503 -8.35986Q14.1807 -8.15039 13.4189 -7.7251L13.4189 -9.02002Q14.1934 -9.33105 14.8662 -9.48975Q15.5391 -9.64844 16.0977 -9.64844Q17.5703 -9.64844 18.4463 -8.91211Q19.3223 -8.17578 19.3223 -6.94434Q19.3223 -6.36035 19.1033 -5.83667Q18.8843 -5.31299 18.3066 -4.60205Q18.1479 -4.41797 17.2974 -3.53882Q16.4468 -2.65967 14.8979 -1.0791ZM22.0771 -9.47705L27.1108 -9.47705L27.1108 -8.39795L23.2515 -8.39795L23.2515 -6.07471Q23.5308 -6.16992 23.8101 -6.21753Q24.0894 -6.26514 24.3687 -6.26514Q25.9556 -6.26514 26.8823 -5.39551Q27.8091 -4.52588 27.8091 -3.04053Q27.8091 -1.51074 26.8569 -0.66333Q25.9048 0.184082 24.1719 0.184082Q23.5752 0.184082 22.9563 0.0825195C22.5437 0.0148112 22.1173 -0.0867513 21.6772 -0.222168L21.6772 -1.51074Q22.2485 -1.19971 22.8579 -1.04736Q23.4673 -0.89502 24.1465 -0.89502Q25.2446 -0.89502 25.8857 -1.47266Q26.5269 -2.05029 26.5269 -3.04053Q26.5269 -4.03076 25.8857 -4.6084Q25.2446 -5.18603 24.1465 -5.18604Q23.6323 -5.18604 23.1213 -5.07178Q22.6104 -4.95752 22.0771 -4.71631L22.0771 -9.47705Z" fill="#000000" transform="translate(80.70888671875,231.1036966220522) translate(-28.9453125,0)" />
<line x1="85.56999782986111" y1="192.90888039090714" x2="90.83110894097223" y2="192.90888039090714" stroke="#000000" stroke-width="1.1111111111111112" />
<path d="M2.49463 -1.0791L6.96973 -1.0791L6.96973 0L0.952148 0L0.952148 -1.0791Q1.68213 -1.83447 2.94214 -3.10718Q4.20215 -4.37988 4.52588 -4.74805Q5.1416 -5.43994 5.38599 -5.91919Q5.63037 -6.39844 5.63037 -6.86182Q5.63037 -7.61719 5.10034 -8.09326Q4.57031 -8.56934 3.71973 -8.56934Q3.1167 -8.56934 2.44702 -8.35986Q1.77734 -8.15039 1.01563 -7.7251L1.01563 -9.02002Q1.79004 -9.33105 2.46289 -9.48975Q3.13574 -9.64844 3.69434 -9.64844Q5.16699 -9.64844 6.04297 -8.91211Q6.91895 -8.17578 6.91895 -6.94434Q6.91895 -6.36035 6.69995 -5.83667Q6.48096 -5.31299 5.90332 -4.60205Q5.74463 -4.41797 4.89404 -3.53882Q4.04346 -2.65967 2.49463 -1.0791ZM9.66113 -1.6123L11.0005 -1.6123L11.0005 0L9.66113 0L9.66113 -1.6123ZM13.8062 -9.47705L18.8398 -9.47705L18.8398 -8.39795L14.9805 -8.39795L14.9805 -6.07471Q15.2598 -6.16992 15.5391 -6.21753Q15.8184 -6.26514 16.0977 -6.26514Q17.6846 -6.26514 18.6113 -5.39551Q19.5381 -4.52588 19.5381 -3.04053Q19.5381 -1.51074 18.5859 -0.66333Q17.6338 0.184082 15.9009 0.184082Q15.3042 0.184082 14.6853 0.0825195C14.2727 0.0148112 13.8464 -0.0867513 13.4063 -0.222168L13.4063 -1.51074Q13.9775 -1.19971 14.5869 -1.04736Q15.1963 -0.89502 15.8755 -0.89502Q16.9736 -0.89502 17.6147 -1.47266Q18.2559 -2.05029 18.2559 -3.04053Q18.2559 -4.03076 17.6147 -4.6084Q16.9736 -5.18603 15.8755 -5.18604Q15.3613 -5.18604 14.8503 -5.07178Q14.3394 -4.95752 13.8062 -4.71631L13.8062 -9.47705ZM24.8066 -8.63281Q23.8164 -8.63281 23.3181 -7.65845Q22.8198 -6.68408 22.8198 -4.729Q22.8198 -2.78027 23.3181 -1.80591Q23.8164 -0.831543 24.8066 -0.831543Q25.8032 -0.831543 26.3015 -1.80591Q26.7998 -2.78027 26.7998 -4.729Q26.7998 -6.68408 26.3015 -7.65845Q25.8032 -8.63281 24.8066 -8.63281ZM24.8066 -9.64844Q26.3999 -9.64844 27.241 -8.38843Q28.082 -7.12842 28.082 -4.729Q28.082 -2.33594 27.241 -1.07593Q26.3999 0.184082 24.8066 0.184082Q23.2134 0.184082 22.3723 -1.07593Q21.5313 -2.33594 21.5313 -4.729Q21.5313 -7.12842 22.3723 -8.38843Q23.2134 -9.64844 24.8066 -9.64844Z" fill="#000000" transform="translate(80.70888671875,196.90888039090714) translate(-28.9453125,0)" />
<line x1="85.56999782986111" y1="158.71406415976202" x2="90.83110894097223" y2="158.71406415976202" stroke="#000000" stroke-width="1.1111111111111112" />
<path d="M2.49463 -1.0791L6.96973 -1.0791L6.96973 0L0.952148 0L0.952148 -1.0791Q1.68213 -1.83447 2.94214 -3.10718Q4.20215 -4.37988 4.52588 -4.74805Q5.1416 -5.43994 5.38599 -5.91919Q5.63037 -6.39844 5.63037 -6.86182Q5.63037 -7.61719 5.10034 -8.09326Q4.57031 -8.56934 3.71973 -8.56934Q3.1167 -8.56934 2.44702 -8.35986Q1.77734 -8.15039 1.01563 -7.7251L1.01563 -9.02002Q1.79004 -9.33105 2.46289 -9.48975Q3.13574 -9.64844 3.69434 -9.64844Q5.16699 -9.64844 6.04297 -8.91211Q6.91895 -8.17578 6.91895 -6.94434Q6.91895 -6.36035 6.69995 -5.83667Q6.48096 -5.31299 5.90332 -4.60205Q5.74463 -4.41797 4.89404 -3.53882Q4.04346 -2.65967 2.49463 -1.0791ZM9.66113 -1.6123L11.0005 -1.6123L11.0005 0L9.66113 0L9.66113 -1.6123ZM13.4697 -9.47705L19.5635 -9.47705L19.5635 -8.93115L16.123 0L14.7837 0L18.021 -8.39795L13.4697 -8.39795L13.4697 -9.47705ZM22.0771 -9.47705L27.1108 -9.47705L27.1108 -8.39795L23.2515 -8.39795L23.2515 -6.07471Q23.5308 -6.16992 23.8101 -6.21753Q24.0894 -6.26514 24.3687 -6.26514Q25.9556 -6.26514 26.8823 -5.39551Q27.8091 -4.52588 27.8091 -3.04053Q27.8091 -1.51074 26.8569 -0.66333Q25.9048 0.184082 24.1719 0.184082Q23.5752 0.184082 22.9563 0.0825195C22.5437 0.0148112 22.1173 -0.0867513 21.6772 -0.222168L21.6772 -1.51074Q22.2485 -1.19971 22.8579 -1.04736Q23.4673 -0.89502 24.1465 -0.89502Q25.2446 -0.89502 25.8857 -1.47266Q26.5269 -2.05029 26.5269 -3.04053Q26.5269 -4.03076 25.8857 -4.6084Q25.2446 -5.18603 24.1465 -5.18604Q23.6323 -5.18604 23.1213 -5.07178Q22.6104 -4.95752 22.0771 -4.71631L22.0771 -9.47705Z" fill="#000000" transform="translate(80.70888671875,162.71406415976202) translate(-28.9453125,0)" />
<line x1="85.56999782986111" y1="124.51924792861689" x2="90.83110894097223" y2="124.51924792861689" stroke="#000000" stroke-width="1.1111111111111112" />
<path d="M5.2749 -5.10986Q6.19531 -4.91308 6.71265 -4.29102Q7.22998 -3.66894 7.22998 -2.75488Q7.22998 -1.35205 6.26514 -0.583984Q5.30029 0.184082 3.52295 0.184082Q2.92627 0.184082 2.29468 0.0666504Q1.66309 -0.0507813 0.990234 -0.285645L0.990234 -1.52344Q1.52344 -1.2124 2.1582 -1.05371Q2.79297 -0.89502 3.48486 -0.89502Q4.69092 -0.89502 5.32251 -1.37109Q5.9541 -1.84717 5.9541 -2.75488Q5.9541 -3.59277 5.36694 -4.06567Q4.77979 -4.53857 3.73242 -4.53857L2.62793 -4.53857L2.62793 -5.59229L3.7832 -5.59229Q4.729 -5.59229 5.23047 -5.96997Q5.73193 -6.34766 5.73193 -7.05859Q5.73193 -7.78857 5.2146 -8.17896Q4.69727 -8.56934 3.73242 -8.56934Q3.20557 -8.56934 2.60254 -8.45508Q1.99951 -8.34082 1.27588 -8.09961L1.27588 -9.24219Q2.00586 -9.44531 2.6438 -9.54688Q3.28174 -9.64844 3.84668 -9.64844Q5.30664 -9.64844 6.15723 -8.98511Q7.00781 -8.32178 7.00781 -7.19189Q7.00781 -6.40478 6.55713 -5.86206Q6.10644 -5.31934 5.2749 -5.10986ZM9.66113 -1.6123L11.0005 -1.6123L11.0005 0L9.66113 0L9.66113 -1.6123ZM16.5356 -8.63281Q15.5454 -8.63281 15.0471 -7.65845Q14.5488 -6.68408 14.5488 -4.729Q14.5488 -2.78027 15.0471 -1.80591Q15.5454 -0.831543 16.5356 -0.831543Q17.5322 -0.831543 18.0305 -1.80591Q18.5288 -2.78027 18.5288 -4.729Q18.5288 -6.68408 18.0305 -7.65845Q17.5322 -8.63281 16.5356 -8.63281ZM16.5356 -9.64844Q18.1289 -9.64844 18.97 -8.38843Q19.811 -7.12842 19.811 -4.729Q19.811 -2.33594 18.97 -1.07593Q18.1289 0.184082 16.5356 0.184082Q14.9424 0.184082 14.1013 -1.07593Q13.2603 -2.33594 13.2603 -4.729Q13.2603 -7.12842 14.1013 -8.38843Q14.9424 -9.64844 16.5356 -9.64844ZM24.8066 -8.63281Q23.8164 -8.63281 23.3181 -7.65845Q22.8198 -6.68408 22.8198 -4.729Q22.8198 -2.78027 23.3181 -1.80591Q23.8164 -0.831543 24.8066 -0.831543Q25.8032 -0.831543 26.3015 -1.80591Q26.7998 -2.78027 26.7998 -4.729Q26.7998 -6.68408 26.3015 -7.65845Q25.8032 -8.63281 24.8066 -8.63281ZM24.8066 -9.64844Q26.3999 -9.64844 27.241 -8.38843Q28.082 -7.12842 28.082 -4.729Q28.082 -2.33594 27.241 -1.07593Q26.3999 0.184082 24.8066 0.184082Q23.2134 0.184082 22.3723 -1.07593Q21.5313 -2.33594 21.5313 -4.729Q21.5313 -7.12842 22.3723 -8.38843Q23.2134 -9.64844 24.8066 -9.64844Z" fill="#000000" transform="translate(80.70888671875,128.5192479286169) translate(-28.9453125,0)" />
<line x1="85.56999782986111" y1="90.32443169747182" x2="90.83110894097223" y2="90.32443169747182" stroke="#000000" stroke-width="1.1111111111111112" />
<path d="M5.2749 -5.10986Q6.19531 -4.91308 6.71265 -4.29102Q7.22998 -3.66894 7.22998 -2.75488Q7.22998 -1.35205 6.26514 -0.583984Q5.30029 0.184082 3.52295 0.184082Q2.92627 0.184082 2.29468 0.0666504Q1.66309 -0.0507813 0.990234 -0.285645L0.990234 -1.52344Q1.52344 -1.2124 2.1582 -1.05371Q2.79297 -0.89502 3.48486 -0.89502Q4.69092 -0.89502 5.32251 -1.37109Q5.9541 -1.84717 5.9541 -2.75488Q5.9541 -3.59277 5.36694 -4.06567Q4.77979 -4.53857 3.73242 -4.53857L2.62793 -4.53857L2.62793 -5.59229L3.7832 -5.59229Q4.729 -5.59229 5.23047 -5.96997Q5.73193 -6.34766 5.73193 -7.05859Q5.73193 -7.78857 5.2146 -8.17896Q4.69727 -8.56934 3.73242 -8.56934Q3.20557 -8.56934 2.60254 -8.45508Q1.99951 -8.34082 1.27588 -8.09961L1.27588 -9.24219Q2.00586 -9.44531 2.6438 -9.54688Q3.28174 -9.64844 3.84668 -9.64844Q5.30664 -9.64844 6.15723 -8.98511Q7.00781 -8.32178 7.00781 -7.19189Q7.00781 -6.40478 6.55713 -5.86206Q6.10644 -5.31934 5.2749 -5.10986ZM9.66113 -1.6123L11.0005 -1.6123L11.0005 0L9.66113 0L9.66113 -1.6123ZM14.8979 -1.0791L19.373 -1.0791L19.373 0L13.3555 0L13.3555 -1.0791Q14.0854 -1.83447 15.3455 -3.10718Q16.6055 -4.37988 16.9292 -4.74805Q17.5449 -5.43994 17.7893 -5.91919Q18.0337 -6.39844 18.0337 -6.86182Q18.0337 -7.61719 17.5037 -8.09326Q16.9736 -8.56934 16.123 -8.56934Q15.52 -8.56934 14.8503 -8.35986Q14.1807 -8.15039 13.4189 -7.7251L13.4189 -9.02002Q14.1934 -9.33105 14.8662 -9.48975Q15.5391 -9.64844 16.0977 -9.64844Q17.5703 -9.64844 18.4463 -8.91211Q19.3223 -8.17578 19.3223 -6.94434Q19.3223 -6.36035 19.1033 -5.83667Q18.8843 -5.31299 18.3066 -4.60205Q18.1479 -4.41797 17.2974 -3.53882Q16.4468 -2.65967 14.8979 -1.0791ZM22.0771 -9.47705L27.1108 -9.47705L27.1108 -8.39795L23.2515 -8.39795L23.2515 -6.07471Q23.5308 -6.16992 23.8101 -6.21753Q24.0894 -6.26514 24.3687 -6.26514Q25.9556 -6.26514 26.8823 -5.39551Q27.8091 -4.52588 27.8091 -3.04053Q27.8091 -1.51074 26.8569 -0.66333Q25.9048 0.184082 24.1719 0.184082Q23.5752 0.184082 22.9563 0.0825195C22.5437 0.0148112 22.1173 -0.0867513 21.6772 -0.222168L21.6772 -1.51074Q22.2485 -1.19971 22.8579 -1.04736Q23.4673 -0.89502 24.1465 -0.89502Q25.2446 -0.89502 25.8857 -1.47266Q26.5269 -2.05029 26.5269 -3.04053Q26.5269 -4.03076 25.8857 -4.6084Q25.2446 -5.18603 24.1465 -5.18604Q23.6323 -5.18604 23.1213 -5.07178Q22.6104 -4.95752 22.0771 -4.71631L22.0771 -9.47705Z" fill="#000000" transform="translate(80.70888671875,94.32443169747182) translate(-28.9453125,0)" />
<line x1="85.56999782986111" y1="56.1296154663267" x2="90.83110894097223" y2="56.1296154663267" stroke="#000000" stroke-width="1.1111111111111112" />
<path d="M5.2749 -5.10986Q6.19531 -4.91308 6.71265 -4.29102Q7.22998 -3.66894 7.22998 -2.75488Q7.22998 -1.35205 6.26514 -0.583984Q5.30029 0.184082 3.52295 0.184082Q2.92627 0.184082 2.29468 0.0666504Q1.66309 -0.0507813 0.990234 -0.285645L0.990234 -1.52344Q1.52344 -1.2124 2.1582 -1.05371Q2.79297 -0.89502 3.48486 -0.89502Q4.69092 -0.89502 5.32251 -1.37109Q5.9541 -1.84717 5.9541 -2.75488Q5.9541 -3.59277 5.36694 -4.06567Q4.77979 -4.53857 3.73242 -4.53857L2.62793 -4.53857L2.62793 -5.59229L3.7832 -5.59229Q4.729 -5.59229 5.23047 -5.96997Q5.73193 -6.34766 5.73193 -7.05859Q5.73193 -7.78857 5.2146 -8.17896Q4.69727 -8.56934 3.73242 -8.56934Q3.20557 -8.56934 2.60254 -8.45508Q1.99951 -8.34082 1.27588 -8.09961L1.27588 -9.24219Q2.00586 -9.44531 2.6438 -9.54688Q3.28174 -9.64844 3.84668 -9.64844Q5.30664 -9.64844 6.15723 -8.98511Q7.00781 -8.32178 7.00781 -7.19189Q7.00781 -6.40478 6.55713 -5.86206Q6.10644 -5.31934 5.2749 -5.10986ZM9.66113 -1.6123L11.0005 -1.6123L11.0005 0L9.66113 0L9.66113 -1.6123ZM13.8062 -9.47705L18.8398 -9.47705L18.8398 -8.39795L14.9805 -8.39795L14.9805 -6.07471Q15.2598 -6.16992 15.5391 -6.21753Q15.8184 -6.26514 16.0977 -6.26514Q17.6846 -6.26514 18.6113 -5.39551Q19.5381 -4.52588 19.5381 -3.04053Q19.5381 -1.51074 18.5859 -0.66333Q17.6338 0.184082 15.9009 0.184082Q15.3042 0.184082 14.6853 0.0825195C14.2727 0.0148112 13.8464 -0.0867513 13.4063 -0.222168L13.4063 -1.51074Q13.9775 -1.19971 14.5869 -1.04736Q15.1963 -0.89502 15.8755 -0.89502Q16.9736 -0.89502 17.6147 -1.47266Q18.2559 -2.05029 18.2559 -3.04053Q18.2559 -4.03076 17.6147 -4.6084Q16.9736 -5.18603 15.8755 -5.18604Q15.3613 -5.18604 14.8503 -5.07178Q14.3394 -4.95752 13.8062 -4.71631L13.8062 -9.47705ZM24.8066 -8.63281Q23.8164 -8.63281 23.3181 -7.65845Q22.8198 -6.68408 22.8198 -4.729Q22.8198 -2.78027 23.3181 -1.80591Q23.8164 -0.831543 24.8066 -0.831543Q25.8032 -0.831543 26.3015 -1.80591Q26.7998 -2.78027 26.7998 -4.729Q26.7998 -6.68408 26.3015 -7.65845Q25.8032 -8.63281 24.8066 -8.63281ZM24.8066 -9.64844Q26.3999 -9.64844 27.241 -8.38843Q28.082 -7.12842 28.082 -4.729Q28.082 -2.33594 27.241 -1.07593Q26.3999 0.184082 24.8066 0.184082Q23.2134 0.184082 22.3723 -1.07593Q21.5313 -2.33594 21.5313 -4.729Q21.5313 -7.12842 22.3723 -8.38843Q23.2134 -9.64844 24.8066 -9.64844Z" fill="#000000" transform="translate(80.70888671875,60.1296154663267) translate(-28.9453125,0)" />
<g class="series" aria-label="Revenue">
<polyline points="125.03372966467464,370.72192479286167 187.94758552595175,329.68814531548753 250.86144138722887,357.04399830040364 313.775297248506,288.6543658381134 376.6891531097831,247.62058636073928 439.6030089710602,261.29851285319734 502.5168648323373,206.58680688336517 565.4307206936144,165.55302740599103 628.3445765548915,192.90888039090714 691.2584324161687,124.51924792861692 754.1722882774458,97.16339494370081 817.0861441387228,56.12961546632671" fill="none" stroke="#0000FF" stroke-width="3" />
</g>
<g class="spine">
<line x1="90.43110894097222" y1="398.0777777777778" x2="880" y2="398.0777777777778" stroke="#000000" stroke-width="0.8" />
</g>
<g class="spine">
<line x1="90.43110894097222" y1="40.4" x2="880" y2="40.4" stroke="#000000" stroke-width="0.8" />
</g>
<g class="spine">
<line x1="90.43110894097222" y1="40.4" x2="90.43110894097222" y2="398.0777777777778" stroke="#000000" stroke-width="0.8" />
</g>
<g class="spine">
<line x1="880" y1="40.4" x2="880" y2="398.0777777777778" stroke="#000000" stroke-width="0.8" />
</g>
<rect x="100.43110894097222" y="50.4" width="109.59873046875" height="25.1" fill="#FFFFFF" fill-opacity="0.8" stroke="#CCCCCC" stroke-width="0.5" />
<g class="legend" aria-label="Chart legend">
<line x1="108.43110894097222" y1="62.949999999999996" x2="134.43110894097222" y2="62.949999999999996" stroke="#0000FF" stroke-width="3" />
<path d="M5.77002 -4.44336Q6.18262 -4.30371 6.573 -3.84668Q6.96338 -3.38965 7.35693 -2.58984L8.6582 0L7.28076 0L6.06836 -2.43115Q5.59863 -3.3833 5.15747 -3.69434Q4.71631 -4.00537 3.95459 -4.00537L2.55811 -4.00537L2.55811 0L1.27588 0L1.27588 -9.47705L4.17041 -9.47705Q5.79541 -9.47705 6.59521 -8.79785Q7.39502 -8.11865 7.39502 -6.74756Q7.39502 -5.85254 6.97925 -5.26221Q6.56348 -4.67188 5.77002 -4.44336ZM2.55811 -8.42334L2.55811 -5.05908L4.17041 -5.05908Q5.09717 -5.05908 5.57007 -5.48755Q6.04297 -5.91602 6.04297 -6.74756Q6.04297 -7.5791 5.57007 -8.00122Q5.09717 -8.42334 4.17041 -8.42334L2.55811 -8.42334ZM16.3389 -3.84668L16.3389 -3.27539L10.9688 -3.27539Q11.0449 -2.06934 11.6956 -1.43774Q12.3462 -0.806152 13.5078 -0.806152Q14.1807 -0.806152 14.8123 -0.971191Q15.4438 -1.13623 16.0659 -1.46631L16.0659 -0.361816Q15.4375 -0.0952148 14.7773 0.0444336Q14.1172 0.184082 13.438 0.184082Q11.7368 0.184082 10.7434 -0.806152Q9.75 -1.79639 9.75 -3.48486Q9.75 -5.23047 10.6926 -6.25562Q11.6353 -7.28076 13.2349 -7.28076Q14.6694 -7.28076 15.5042 -6.35718Q16.3389 -5.43359 16.3389 -3.84668ZM15.1709 -4.18945Q15.1582 -5.14795 14.6345 -5.71924Q14.1108 -6.29053 13.2476 -6.29053Q12.27 -6.29053 11.6829 -5.73828Q11.0957 -5.18604 11.0068 -4.18311L15.1709 -4.18945ZM17.418 -7.10938L18.6558 -7.10938L20.8774 -1.14258L23.0991 -7.10938L24.3369 -7.10938L21.6709 0L20.084 0L17.418 -7.10938ZM32.0303 -3.84668L32.0303 -3.27539L26.6602 -3.27539Q26.7363 -2.06934 27.387 -1.43774Q28.0376 -0.806152 29.1992 -0.806152Q29.8721 -0.806152 30.5037 -0.971191Q31.1353 -1.13623 31.7573 -1.46631L31.7573 -0.361816Q31.1289 -0.0952148 30.4688 0.0444336Q29.8086 0.184082 29.1294 0.184082Q27.4282 0.184082 26.4348 -0.806152Q25.4414 -1.79639 25.4414 -3.48486Q25.4414 -5.23047 26.384 -6.25562Q27.3267 -7.28076 28.9263 -7.28076Q30.3608 -7.28076 31.1956 -6.35718Q32.0303 -5.43359 32.0303 -3.84668ZM30.8623 -4.18945Q30.8496 -5.14795 30.3259 -5.71924Q29.8022 -6.29053 28.939 -6.29053Q27.9614 -6.29053 27.3743 -5.73828Q26.7871 -5.18604 26.6982 -4.18311L30.8623 -4.18945ZM39.8569 -4.29102L39.8569 0L38.689 0L38.689 -4.25293Q38.689 -5.26221 38.2954 -5.76367Q37.9019 -6.26514 37.1147 -6.26514Q36.1689 -6.26514 35.623 -5.66211Q35.0771 -5.05908 35.0771 -4.01807L35.0771 0L33.9028 0L33.9028 -7.10938L35.0771 -7.10938L35.0771 -6.00488Q35.4961 -6.646 36.0642 -6.96338Q36.6323 -7.28076 37.375 -7.28076Q38.6001 -7.28076 39.2285 -6.52222Q39.8569 -5.76367 39.8569 -4.29102ZM42.0659 -2.80566L42.0659 -7.10938L43.2339 -7.10938L43.2339 -2.8501Q43.2339 -1.84082 43.6274 -1.33618Q44.021 -0.831543 44.8081 -0.831543Q45.7539 -0.831543 46.303 -1.43457Q46.8521 -2.0376 46.8521 -3.07861L46.8521 -7.10938L48.02 -7.10938L48.02 0L46.8521 0L46.8521 -1.0918Q46.4268 -0.444336 45.865 -0.130127Q45.3032 0.184082 44.5605 0.184082Q43.3354 0.184082 42.7007 -0.577637Q42.0659 -1.33936 42.0659 -2.80566ZM56.5068 -3.84668L56.5068 -3.27539L51.1367 -3.27539Q51.2129 -2.06934 51.8635 -1.43774Q52.5142 -0.806152 53.6758 -0.806152Q54.3486 -0.806152 54.9802 -0.971191Q55.6118 -1.13623 56.2339 -1.46631L56.2339 -0.361816Q55.6055 -0.0952148 54.9453 0.0444336Q54.2852 0.184082 53.606 0.184082Q51.9048 0.184082 50.9114 -0.806152Q49.918 -1.79639 49.918 -3.48486Q49.918 -5.23047 50.8606 -6.25562Q51.8032 -7.28076 53.4028 -7.28076Q54.8374 -7.28076 55.6721 -6.35718Q56.5068 -5.43359 56.5068 -3.84668ZM55.3389 -4.18945Q55.3262 -5.14795 54.8025 -5.71924Q54.2788 -6.29053 53.4155 -6.29053Q52.438 -6.29053 51.8508 -5.73828Q51.2637 -5.18604 51.1748 -4.18311L55.3389 -4.18945Z" fill="#000000" transform="translate(144.83110894097223,66.5)" />
</g>
<path d="M1.27588 -9.47705L3.18652 -9.47705L5.60498 -3.02783L8.03613 -9.47705L9.94678 -9.47705L9.94678 0L8.69629 0L8.69629 -8.32178L6.25244 -1.82178L4.96387 -1.82178L2.52002 -8.32178L2.52002 0L1.27588 0L1.27588 -9.47705ZM15.1963 -6.29053Q14.2568 -6.29053 13.7109 -5.55737Q13.165 -4.82422 13.165 -3.54834Q13.165 -2.27246 13.7078 -1.53931Q14.2505 -0.806152 15.1963 -0.806152Q16.1294 -0.806152 16.6753 -1.54248Q17.2212 -2.27881 17.2212 -3.54834Q17.2212 -4.81152 16.6753 -5.55103Q16.1294 -6.29053 15.1963 -6.29053ZM15.1963 -7.28076Q16.7197 -7.28076 17.5894 -6.29053Q18.459 -5.30029 18.459 -3.54834Q18.459 -1.80273 17.5894 -0.809326Q16.7197 0.184082 15.1963 0.184082Q13.6665 0.184082 12.8 -0.809326Q11.9336 -1.80273 11.9336 -3.54834Q11.9336 -5.30029 12.8 -6.29053Q13.6665 -7.28076 15.1963 -7.28076ZM26.3047 -4.29102L26.3047 0L25.1367 0L25.1367 -4.25293Q25.1367 -5.26221 24.7432 -5.76367Q24.3496 -6.26514 23.5625 -6.26514Q22.6167 -6.26514 22.0708 -5.66211Q21.5249 -5.05908 21.5249 -4.01807L21.5249 0L20.3506 0L20.3506 -7.10938L21.5249 -7.10938L21.5249 -6.00488Q21.9438 -6.646 22.512 -6.96338Q23.0801 -7.28076 23.8228 -7.28076Q25.0479 -7.28076 25.6763 -6.52222Q26.3047 -5.76367 26.3047 -4.29102ZM29.7896 -9.12793L29.7896 -7.10938L32.1953 -7.10938L32.1953 -6.20166L29.7896 -6.20166L29.7896 -2.34229Q29.7896 -1.47266 30.0276 -1.2251Q30.2656 -0.977539 30.9956 -0.977539L32.1953 -0.977539L32.1953 0L30.9956 0Q29.6436 0 29.1294 -0.504639Q28.6152 -1.00928 28.6152 -2.34229L28.6152 -6.20166L27.7583 -6.20166L27.7583 -7.10938L28.6152 -7.10938L28.6152 -9.12793L29.7896 -9.12793ZM39.6411 -4.29102L39.6411 0L38.4731 0L38.4731 -4.25293Q38.4731 -5.26221 38.0796 -5.76367Q37.686 -6.26514 36.8989 -6.26514Q35.9531 -6.26514 35.4072 -5.66211Q34.8613 -5.05908 34.8613 -4.01807L34.8613 0L33.687 0L33.687 -9.87695L34.8613 -9.87695L34.8613 -6.00488Q35.2803 -6.646 35.8484 -6.96338Q36.4165 -7.28076 37.1592 -7.28076Q38.3843 -7.28076 39.0127 -6.52222Q39.6411 -5.76367 39.6411 -4.29102Z" fill="#000000" transform="translate(485.21555447048615,439.8) translate(-20.372802734375,0)" />
<path d="M4.39258 1.91064L3.75781 1.91064L3.75146 0Q3.08496 -0.0126953 2.41846 -0.155518Q1.75195 -0.29834 1.0791 -0.583984L1.0791 -1.72656Q1.72656 -1.32031 2.38989 -1.11401Q3.05322 -0.907715 3.75781 -0.901367L3.75781 -3.7959Q2.35498 -4.02441 1.71704 -4.57031Q1.0791 -5.11621 1.0791 -6.06836Q1.0791 -7.10303 1.771 -7.69971Q2.46289 -8.29639 3.75781 -8.38525L3.75781 -9.87695L4.39258 -9.87695L4.39258 -8.4043Q4.98291 -8.37891 5.53516 -8.28052Q6.0874 -8.18213 6.61426 -8.01074L6.61426 -6.8999Q6.0874 -7.1665 5.53198 -7.3125Q4.97656 -7.4585 4.39258 -7.48389L4.39258 -4.77344Q5.8335 -4.55127 6.5127 -3.97998Q7.19189 -3.40869 7.19189 -2.41846Q7.19189 -1.3457 6.47144 -0.726807Q5.75098 -0.10791 4.39258 -0.0126953L4.39258 1.91064ZM3.75781 -4.8877L3.75781 -7.49023Q3.02148 -7.40771 2.63428 -7.07129Q2.24707 -6.73486 2.24707 -6.17627Q2.24707 -5.63037 2.60571 -5.32568Q2.96436 -5.021 3.75781 -4.8877ZM4.39258 -3.66895L4.39258 -0.92041Q5.19873 -1.02832 5.60815 -1.37744Q6.01758 -1.72656 6.01758 -2.29785Q6.01758 -2.85644 5.6272 -3.18652Q5.23682 -3.5166 4.39258 -3.66895ZM13.6792 -9.47705L15.5898 -9.47705L18.0083 -3.02783L20.4395 -9.47705L22.3501 -9.47705L22.3501 0L21.0996 0L21.0996 -8.32178L18.6558 -1.82178L17.3672 -1.82178L14.9233 -8.32178L14.9233 0L13.6792 0L13.6792 -9.47705Z" fill="#000000" transform="translate(39.76357421875,219.2388888888889) rotate(-90) translate(-11.809814453125,0)" />
</svg>
