<svg xmlns="http://www.w3.org/2000/svg" viewBox="0 0 900 450" width="900" height="450" role="img" aria-labelledby="chart-title" aria-describedby="chart-desc">
<title id="chart-title">Line chart: revenue and cost trends over 12 months of 2025</title>
<desc id="chart-desc">Revenue grew from $1.2M to $3.5M. Cost grew from $0.9M to $2.4M. Margin expanded each quarter.</desc>
<rect x="0" y="0" width="900" height="450" fill="#FFFFFF" />
<path d="M14.9248 0L12.2769 0L12.2769 -7.12207Q12.2769 -8.27588 12.3765 -9.67041L12.3101 -9.67041Q12.1025 -8.57471 11.9365 -8.09326L9.14746 0L6.95605 0L4.11719 -8.01025Q4.00098 -8.33398 3.74365 -9.67041L3.66895 -9.67041Q3.77686 -7.91064 3.77686 -6.58252L3.77686 0L1.36133 0L1.36133 -11.9033L5.2876 -11.9033L7.71973 -4.84766Q8.01025 -4.00098 8.14307 -3.146L8.19287 -3.146Q8.41699 -4.13379 8.66602 -4.86426L11.0981 -11.9033L14.9248 -11.9033L14.9248 0ZM21.4243 0.20752Q19.2993 0.20752 18.0833 -0.983643Q16.8672 -2.1748 16.8672 -4.2168Q16.8672 -6.3252 18.1289 -7.51636Q19.3906 -8.70752 21.5405 -8.70752Q23.6572 -8.70752 24.8608 -7.51636Q26.0645 -6.3252 26.0645 -4.36621Q26.0645 -2.24951 24.8235 -1.021Q23.5825 0.20752 21.4243 0.20752ZM21.4907 -6.69873Q20.561 -6.69873 20.0464 -6.05957Q19.5317 -5.42041 19.5317 -4.25Q19.5317 -1.80127 21.5073 -1.80127Q23.3916 -1.80127 23.3916 -4.31641Q23.3916 -6.69873 21.4907 -6.69873ZM35.9756 0L33.3608 0L33.3608 -4.72314Q33.3608 -6.69873 31.9497 -6.69873Q31.269 -6.69873 30.8291 -6.17578Q30.3892 -5.65283 30.3892 -4.84766L30.3892 0L27.7661 0L27.7661 -8.5L30.3892 -8.5L30.3892 -7.15527L30.4224 -7.15527Q31.3604 -8.70752 33.1533 -8.70752Q35.9756 -8.70752 35.9756 -5.20459L35.9756 0ZM43.189 -0.0996094Q42.6079 0.20752 41.4375 0.20752Q38.665 0.20752 38.665 -2.67285L38.665 -6.56592L37.2871 -6.56592L37.2871 -8.5L38.665 -8.5L38.665 -10.3345L41.2798 -11.0815L41.2798 -8.5L43.189 -8.5L43.189 -6.56592L41.2798 -6.56592L41.2798 -3.12939Q41.2798 -1.80127 42.334 -1.80127Q42.749 -1.80127 43.189 -2.04199L43.189 -0.0996094ZM52.8262 0L50.2114 0L50.2114 -4.83105Q50.2114 -6.69873 48.8501 -6.69873Q48.1528 -6.69873 47.7212 -6.17578Q47.2896 -5.65283 47.2896 -4.84766L47.2896 0L44.6665 0L44.6665 -12.584L47.2896 -12.584L47.2896 -7.23828L47.3228 -7.23828Q48.2856 -8.70752 49.9375 -8.70752Q52.8262 -8.70752 52.8262 -5.22119L52.8262 0ZM57.5244 0L54.9014 0L54.9014 -12.584L57.5244 -12.584L57.5244 0ZM67.8257 -8.5L64.3726 0.680664Q63.1274 3.99268 60.6206 3.99268Q59.666 3.99268 59.0518 3.77686L59.0518 1.68506Q59.5747 1.99219 60.189 1.99219Q61.2017 1.99219 61.6001 1.0376L62.0483 -0.0166016L58.5952 -8.5L61.5005 -8.5L63.0859 -3.32861Q63.2354 -2.84717 63.3184 -2.19141L63.3516 -2.19141Q63.4263 -2.67285 63.6255 -3.31201L65.2275 -8.5L67.8257 -8.5ZM83.813 0L80.7334 0L78.8823 -3.06299Q78.6748 -3.41162 78.4839 -3.68555Q78.293 -3.95947 78.0979 -4.15454Q77.9028 -4.34961 77.6912 -4.45337Q77.4795 -4.55713 77.2305 -4.55713L76.5083 -4.55713L76.5083 0L73.8271 0L73.8271 -11.9033L78.0771 -11.9033Q82.4102 -11.9033 82.4102 -8.66602Q82.4102 -8.04346 82.2192 -7.51636Q82.0283 -6.98926 81.6797 -6.56592Q81.3311 -6.14258 80.8372 -5.83545Q80.3433 -5.52832 79.7373 -5.354L79.7373 -5.3208Q80.0029 -5.23779 80.252 -5.05103Q80.501 -4.86426 80.7334 -4.61523Q80.9658 -4.36621 81.1775 -4.07983Q81.3892 -3.79346 81.5635 -3.51953L83.813 0ZM76.5083 -9.89453L76.5083 -6.58252L77.6704 -6.58252Q78.5337 -6.58252 79.0566 -7.08057Q79.5879 -7.58691 79.5879 -8.33398Q79.5879 -9.89453 77.7202 -9.89453L76.5083 -9.89453ZM92.3047 -3.50293L86.7598 -3.50293Q86.8926 -1.65186 89.0923 -1.65186Q90.4951 -1.65186 91.5576 -2.31592L91.5576 -0.42334Q90.3789 0.20752 88.4946 0.20752Q86.436 0.20752 85.2988 -0.933838Q84.1616 -2.0752 84.1616 -4.11719Q84.1616 -6.23389 85.3901 -7.4707Q86.6187 -8.70752 88.4116 -8.70752Q90.271 -8.70752 91.2878 -7.60352Q92.3047 -6.49951 92.3047 -4.60693L92.3047 -3.50293ZM89.8726 -5.11328Q89.8726 -6.93945 88.395 -6.93945Q87.7642 -6.93945 87.3035 -6.4165Q86.8428 -5.89355 86.7432 -5.11328L89.8726 -5.11328ZM101.958 -8.5L98.7959 0L95.8076 0L92.7944 -8.5L95.6001 -8.5L97.0776 -3.26221Q97.3267 -2.37402 97.3682 -1.75146L97.4014 -1.75146Q97.4595 -2.34082 97.7085 -3.2124L99.2192 -8.5L101.958 -8.5ZM110.716 -3.50293L105.171 -3.50293Q105.304 -1.65186 107.503 -1.65186Q108.906 -1.65186 109.969 -2.31592L109.969 -0.42334Q108.79 0.20752 106.906 0.20752Q104.847 0.20752 103.71 -0.933838Q102.573 -2.0752 102.573 -4.11719Q102.573 -6.23389 103.801 -7.4707Q105.03 -8.70752 106.823 -8.70752Q108.682 -8.70752 109.699 -7.60352Q110.716 -6.49951 110.716 -4.60693L110.716 -3.50293ZM108.284 -5.11328Q108.284 -6.93945 106.806 -6.93945Q106.175 -6.93945 105.715 -6.4165Q105.254 -5.89355 105.154 -5.11328L108.284 -5.11328ZM120.486 0L117.871 0L117.871 -4.72314Q117.871 -6.69873 116.46 -6.69873Q115.779 -6.69873 115.339 -6.17578Q114.899 -5.65283 114.899 -4.84766L114.899 0L112.276 0L112.276 -8.5L114.899 -8.5L114.899 -7.15527L114.933 -7.15527Q115.871 -8.70752 117.664 -8.70752Q120.486 -8.70752 120.486 -5.20459L120.486 0ZM130.638 0L128.023 0L128.023 -1.29492L127.981 -1.29492Q127.01 0.20752 125.383 0.20752C123.413 0.20752 122.428 -0.985026 122.428 -3.37012L122.428 -8.5L125.043 -8.5L125.043 -3.60254Q125.043 -1.80127 126.471 -1.80127Q127.176 -1.80127 127.6 -2.29517Q128.023 -2.78906 128.023 -3.63574L128.023 -8.5L130.638 -8.5L130.638 0ZM140.482 -3.50293L134.938 -3.50293Q135.07 -1.65186 137.27 -1.65186Q138.673 -1.65186 139.735 -2.31592L139.735 -0.42334Q138.557 0.20752 136.672 0.20752Q134.614 0.20752 133.477 -0.933838Q132.339 -2.0752 132.339 -4.11719Q132.339 -6.23389 133.568 -7.4707Q134.796 -8.70752 136.589 -8.70752Q138.449 -8.70752 139.466 -7.60352Q140.482 -6.49951 140.482 -4.60693L140.482 -3.50293ZM138.05 -5.11328Q138.05 -6.93945 136.573 -6.93945Q135.942 -6.93945 135.481 -6.4165Q135.021 -5.89355 134.921 -5.11328L138.05 -5.11328ZM154.826 -8.5L151.664 0L148.675 0L145.662 -8.5L148.468 -8.5L149.945 -3.26221Q150.194 -2.37402 150.236 -1.75146L150.269 -1.75146Q150.327 -2.34082 150.576 -3.2124L152.087 -8.5L154.826 -8.5ZM155.391 -0.224121L155.391 -2.34912Q156.038 -1.95898 156.681 -1.76807Q157.325 -1.57715 157.897 -1.57715Q158.595 -1.57715 158.997 -1.76807Q159.4 -1.95898 159.4 -2.34912Q159.4 -2.59814 159.217 -2.76416Q159.035 -2.93018 158.748 -3.05469Q158.462 -3.1792 158.122 -3.27881Q157.781 -3.37842 157.466 -3.50293Q156.959 -3.69385 156.573 -3.91382Q156.188 -4.13379 155.926 -4.42432Q155.665 -4.71484 155.528 -5.09668Q155.391 -5.47852 155.391 -6.00146Q155.391 -6.71533 155.702 -7.22998Q156.013 -7.74463 156.532 -8.07251Q157.051 -8.40039 157.719 -8.55396Q158.387 -8.70752 159.109 -8.70752Q159.674 -8.70752 160.255 -8.62036Q160.836 -8.5332 161.4 -8.36719L161.4 -6.3418Q160.902 -6.63232 160.334 -6.77759Q159.765 -6.92285 159.217 -6.92285Q158.96 -6.92285 158.732 -6.8772Q158.503 -6.83154 158.329 -6.74438Q158.155 -6.65723 158.055 -6.52026Q157.956 -6.3833 157.956 -6.20898Q157.956 -5.97656 158.105 -5.81055Q158.254 -5.64453 158.495 -5.52417Q158.736 -5.40381 159.031 -5.30835Q159.325 -5.21289 159.616 -5.11328Q160.139 -4.93066 160.562 -4.71484Q160.985 -4.49902 161.288 -4.2085Q161.591 -3.91797 161.753 -3.52783Q161.915 -3.1377 161.915 -2.59814Q161.915 -1.84277 161.587 -1.30737Q161.259 -0.771973 160.716 -0.435791Q160.172 -0.0996094 159.462 0.0539551Q158.752 0.20752 157.989 0.20752Q156.586 0.20752 155.391 -0.224121ZM176.906 -0.42334Q175.603 0.20752 173.503 0.20752Q170.764 0.20752 169.195 -1.40283Q167.626 -3.01318 167.626 -5.69434Q167.626 -8.5498 169.39 -10.3262Q171.154 -12.1025 173.968 -12.1025Q175.711 -12.1025 176.906 -11.6626L176.906 -9.08105Q175.711 -9.79492 174.184 -9.79492Q172.507 -9.79492 171.478 -8.74072Q170.448 -7.68652 170.448 -5.88525Q170.448 -4.15869 171.419 -3.13354Q172.391 -2.1084 174.034 -2.1084Q175.603 -2.1084 176.906 -2.87207L176.906 -0.42334ZM182.775 0.20752Q180.65 0.20752 179.434 -0.983643Q178.218 -2.1748 178.218 -4.2168Q178.218 -6.3252 179.479 -7.51636Q180.741 -8.70752 182.891 -8.70752Q185.008 -8.70752 186.211 -7.51636Q187.415 -6.3252 187.415 -4.36621Q187.415 -2.24951 186.174 -1.021Q184.933 0.20752 182.775 0.20752ZM182.841 -6.69873Q181.912 -6.69873 181.397 -6.05957Q180.882 -5.42041 180.882 -4.25Q180.882 -1.80127 182.858 -1.80127Q184.742 -1.80127 184.742 -4.31641Q184.742 -6.69873 182.841 -6.69873ZM188.561 -0.224121L188.561 -2.34912Q189.208 -1.95898 189.851 -1.76807Q190.495 -1.57715 191.067 -1.57715Q191.765 -1.57715 192.167 -1.76807Q192.57 -1.95898 192.57 -2.34912Q192.57 -2.59814 192.387 -2.76416Q192.205 -2.93018 191.918 -3.05469Q191.632 -3.1792 191.292 -3.27881Q190.951 -3.37842 190.636 -3.50293Q190.129 -3.69385 189.743 -3.91382Q189.357 -4.13379 189.096 -4.42432Q188.834 -4.71484 188.698 -5.09668Q188.561 -5.47852 188.561 -6.00146Q188.561 -6.71533 188.872 -7.22998Q189.183 -7.74463 189.702 -8.07251Q190.221 -8.40039 190.889 -8.55396Q191.557 -8.70752 192.279 -8.70752Q192.844 -8.70752 193.425 -8.62036Q194.006 -8.5332 194.57 -8.36719L194.57 -6.3418Q194.072 -6.63232 193.504 -6.77759Q192.935 -6.92285 192.387 -6.92285Q192.13 -6.92285 191.902 -6.8772Q191.673 -6.83154 191.499 -6.74438Q191.325 -6.65723 191.225 -6.52026Q191.125 -6.3833 191.125 -6.20898Q191.125 -5.97656 191.275 -5.81055Q191.424 -5.64453 191.665 -5.52417Q191.906 -5.40381 192.2 -5.30835Q192.495 -5.21289 192.786 -5.11328Q193.309 -4.93066 193.732 -4.71484Q194.155 -4.49902 194.458 -4.2085Q194.761 -3.91797 194.923 -3.52783Q195.085 -3.1377 195.085 -2.59814Q195.085 -1.84277 194.757 -1.30737Q194.429 -0.771973 193.885 -0.435791Q193.342 -0.0996094 192.632 0.0539551Q191.922 0.20752 191.159 0.20752Q189.756 0.20752 188.561 -0.224121ZM201.734 -0.0996094Q201.153 0.20752 199.982 0.20752Q197.21 0.20752 197.21 -2.67285L197.21 -6.56592L195.832 -6.56592L195.832 -8.5L197.21 -8.5L197.21 -10.3345L199.825 -11.0815L199.825 -8.5L201.734 -8.5L201.734 -6.56592L199.825 -6.56592L199.825 -3.12939Q199.825 -1.80127 200.879 -1.80127Q201.294 -1.80127 201.734 -2.04199L201.734 -0.0996094ZM212.932 2.70605L210.79 2.70605Q208.109 -0.249023 208.109 -4.55713Q208.109 -8.71582 210.79 -11.9033L212.915 -11.9033Q210.4 -8.56641 210.4 -4.55713Q210.4 -0.547852 212.932 2.70605ZM216.634 -2.1748L221.681 -2.1748L221.681 0L213.762 0L213.762 -0.896484Q213.762 -1.80957 214.069 -2.53589Q214.376 -3.26221 214.841 -3.83911Q215.306 -4.41602 215.858 -4.86011Q216.41 -5.3042 216.908 -5.66113Q217.431 -6.03467 217.825 -6.375Q218.219 -6.71533 218.489 -7.05151Q218.759 -7.3877 218.892 -7.73218Q219.024 -8.07666 219.024 -8.4668Q219.024 -9.23047 218.593 -9.62061Q218.161 -10.0107 217.273 -10.0107Q215.737 -10.0107 214.334 -8.79053L214.334 -11.0981Q215.887 -12.1025 217.837 -12.1025Q218.742 -12.1025 219.46 -11.866Q220.178 -11.6294 220.676 -11.1895Q221.174 -10.7495 221.436 -10.1228Q221.697 -9.49609 221.697 -8.72412Q221.697 -7.90234 221.444 -7.26318Q221.191 -6.62402 220.772 -6.10107Q220.353 -5.57813 219.805 -5.14233Q219.257 -4.70654 218.667 -4.2998Q218.269 -4.01758 217.9 -3.7395Q217.53 -3.46143 217.248 -3.19165Q216.966 -2.92187 216.8 -2.66455Q216.634 -2.40723 216.634 -2.1748ZM227.674 0.20752Q223.424 0.20752 223.424 -5.76074Q223.424 -8.85693 224.573 -10.4797Q225.723 -12.1025 227.906 -12.1025Q232.057 -12.1025 232.057 -6.03467Q232.057 -3.01318 230.924 -1.40283Q229.791 0.20752 227.674 0.20752ZM227.79 -10.1021Q226.088 -10.1021 226.088 -5.82715Q226.088 -1.80127 227.757 -1.80127Q229.384 -1.80127 229.384 -5.95166Q229.384 -10.102 227.79 -10.1021ZM236.19 -2.1748L241.237 -2.1748L241.237 0L233.318 0L233.318 -0.896484Q233.318 -1.80957 233.625 -2.53589Q233.933 -3.26221 234.397 -3.83911Q234.862 -4.41602 235.414 -4.86011Q235.966 -5.3042 236.464 -5.66113Q236.987 -6.03467 237.382 -6.375Q237.776 -6.71533 238.046 -7.05151Q238.315 -7.3877 238.448 -7.73218Q238.581 -8.07666 238.581 -8.4668Q238.581 -9.23047 238.149 -9.62061Q237.718 -10.0107 236.83 -10.0107Q235.294 -10.0107 233.891 -8.79053L233.891 -11.0981Q235.443 -12.1025 237.394 -12.1025Q238.299 -12.1025 239.017 -11.866Q239.735 -11.6294 240.233 -11.1895Q240.731 -10.7495 240.992 -10.1228Q241.254 -9.49609 241.254 -8.72412Q241.254 -7.90234 241.001 -7.26318Q240.748 -6.62402 240.328 -6.10107Q239.909 -5.57813 239.361 -5.14233Q238.813 -4.70654 238.224 -4.2998Q237.826 -4.01758 237.456 -3.7395Q237.087 -3.46143 236.805 -3.19165Q236.522 -2.92187 236.356 -2.66455Q236.19 -2.40723 236.19 -2.1748ZM243.586 -0.307129L243.586 -2.54834Q244.807 -1.80127 246.185 -1.80127Q247.222 -1.80127 247.807 -2.29517Q248.393 -2.78906 248.393 -3.63574Q248.393 -5.40381 245.894 -5.40381Q244.973 -5.40381 243.769 -5.2627L244.217 -11.9033L250.518 -11.9033L250.518 -9.76172L246.218 -9.76172L246.052 -7.37939Q246.691 -7.4292 247.156 -7.4292Q248.99 -7.4292 250.028 -6.46631Q251.065 -5.50342 251.065 -3.87646Q251.065 -2.0752 249.829 -0.933838Q248.592 0.20752 246.475 0.20752Q244.757 0.20752 243.586 -0.307129ZM254.46 2.70605L252.335 2.70605Q254.875 -0.53125 254.875 -4.55713Q254.875 -8.5498 252.335 -11.9033L254.477 -11.9033Q257.167 -8.70752 257.167 -4.55713Q257.167 -0.282227 254.46 2.70605Z" fill="#000000" transform="translate(450,23.299999999999997) translate(-129.230712890625,0)" />
<rect x="82.06489800347222" y="40.4" width="797.9351019965278" height="357.6777777777778" fill="#FFFFFF" />
<line x1="117.03416542164675" y1="40.4" x2="117.03416542164675" y2="398.0777777777778" stroke="#B0B0B0" stroke-width="0.8" />
<line x1="244.1951378513723" y1="40.4" x2="244.1951378513723" y2="398.0777777777778" stroke="#B0B0B0" stroke-width="0.8" />
<line x1="371.3561102810978" y1="40.4" x2="371.3561102810978" y2="398.0777777777778" stroke="#B0B0B0" stroke-width="0.8" />
<line x1="498.5170827108234" y1="40.4" x2="498.5170827108234" y2="398.0777777777778" stroke="#B0B0B0" stroke-width="0.8" />
<line x1="625.6780551405488" y1="40.4" x2="625.6780551405488" y2="398.0777777777778" stroke="#B0B0B0" stroke-width="0.8" />
<line x1="752.8390275702744" y1="40.4" x2="752.8390275702744" y2="398.0777777777778" stroke="#B0B0B0" stroke-width="0.8" />
<line x1="880" y1="40.4" x2="880" y2="398.0777777777778" stroke="#B0B0B0" stroke-width="0.8" />
<line x1="82.06489800347222" y1="398.0777777777778" x2="880" y2="398.0777777777778" stroke="#B0B0B0" stroke-width="0.8" />
<line x1="82.06489800347222" y1="340.94075257365995" x2="880" y2="340.94075257365995" stroke="#B0B0B0" stroke-width="0.8" />
<line x1="82.06489800347222" y1="283.8037273695421" x2="880" y2="283.8037273695421" stroke="#B0B0B0" stroke-width="0.8" />
<line x1="82.06489800347222" y1="226.66670216542423" x2="880" y2="226.66670216542423" stroke="#B0B0B0" stroke-width="0.8" />
<line x1="82.06489800347222" y1="169.52967696130634" x2="880" y2="169.52967696130634" stroke="#B0B0B0" stroke-width="0.8" />
<line x1="82.06489800347222" y1="112.3926517571885" x2="880" y2="112.3926517571885" stroke="#B0B0B0" stroke-width="0.8" />
<line x1="82.06489800347222" y1="55.25562655307067" x2="880" y2="55.25562655307067" stroke="#B0B0B0" stroke-width="0.8" />
<line x1="117.03416542164675" y1="397.6777777777778" x2="117.03416542164675" y2="402.93888888888887" stroke="#000000" stroke-width="1.1111111111111112" />
<path d="M6.47461 -4.58936Q6.47461 -3.44678 6.26831 -2.56445Q6.06201 -1.68213 5.67163 -1.07593Q5.28125 -0.469727 4.71313 -0.155518Q4.14502 0.158691 3.42139 0.158691Q2.73584 0.158691 2.19946 -0.142822Q1.66309 -0.444336 1.29492 -1.02197Q0.926758 -1.59961 0.736328 -2.44067Q0.545898 -3.28174 0.545898 -4.36719Q0.545898 -5.56055 0.74585 -6.47461Q0.945801 -7.38867 1.33301 -8.00757Q1.72021 -8.62646 2.29468 -8.94067Q2.86914 -9.25488 3.61182 -9.25488Q6.47461 -9.25488 6.47461 -4.58936ZM5.4082 -4.48779Q5.4082 -8.37256 3.56104 -8.37256Q1.6123 -8.37256 1.6123 -4.41797Q1.6123 -0.72998 3.52295 -0.72998Q5.4082 -0.72998 5.4082 -4.48779Z" fill="#000000" transform="translate(117.03416542164675,420.79999999999995) translate(-3.50390625,0)" />
<line x1="244.1951378513723" y1="397.6777777777778" x2="244.1951378513723" y2="402.93888888888887" stroke="#000000" stroke-width="1.1111111111111112" />
<path d="M4.90039 -6.71582Q4.90039 -7.13477 4.77026 -7.4458Q4.64014 -7.75684 4.41479 -7.96313Q4.18945 -8.16943 3.88477 -8.271Q3.58008 -8.37256 3.22461 -8.37256Q2.91992 -8.37256 2.62793 -8.29004Q2.33594 -8.20752 2.05981 -8.06152Q1.78369 -7.91553 1.52661 -7.7124Q1.26953 -7.50928 1.04736 -7.26172L1.04736 -8.37891Q1.48535 -8.8042 2.02808 -9.02954Q2.5708 -9.25488 3.35156 -9.25488Q3.91016 -9.25488 4.38623 -9.09302Q4.8623 -8.93115 5.21143 -8.62012Q5.56055 -8.30908 5.7605 -7.85205Q5.96045 -7.39502 5.96045 -6.80469Q5.96045 -6.26514 5.83667 -5.82715Q5.71289 -5.38916 5.46216 -5.00195Q5.21143 -4.61475 4.83057 -4.25928Q4.44971 -3.90381 3.93555 -3.53564Q3.29443 -3.07861 2.87866 -2.75488Q2.46289 -2.43115 2.21851 -2.14868Q1.97412 -1.86621 1.87573 -1.58374Q1.77734 -1.30127 1.77734 -0.933105L6.30957 -0.933105L6.30957 0L0.691895 0L0.691895 -0.450684Q0.691895 -1.03467 0.818848 -1.479Q0.945801 -1.92334 1.23779 -2.32324Q1.52979 -2.72314 2.00269 -3.12305Q2.47559 -3.52295 3.16113 -4.02441Q3.65625 -4.37988 3.9895 -4.70361Q4.32275 -5.02734 4.52588 -5.35107Q4.729 -5.6748 4.8147 -6.00806Q4.90039 -6.34131 4.90039 -6.71582Z" fill="#000000" transform="translate(244.1951378513723,420.79999999999995) translate(-3.50390625,0)" />
<line x1="371.3561102810978" y1="397.6777777777778" x2="371.3561102810978" y2="402.93888888888887" stroke="#000000" stroke-width="1.1111111111111112" />
<path d="M5.39551 -9.10254L5.39551 -3.09131L6.56348 -3.09131L6.56348 -2.13916L5.39551 -2.13916L5.39551 0L4.36719 0L4.36719 -2.13916L0.0888672 -2.13916L0.0888672 -3.04053Q0.685547 -3.71338 1.29492 -4.47827Q1.9043 -5.24316 2.45972 -6.03027Q3.01514 -6.81738 3.48804 -7.60132Q3.96094 -8.38525 4.28467 -9.10254L5.39551 -9.10254ZM1.26318 -3.09131L4.36719 -3.09131L4.36719 -7.54736Q3.89111 -6.71582 3.46582 -6.06201Q3.04053 -5.4082 2.65649 -4.875Q2.27246 -4.3418 1.92334 -3.91016Q1.57422 -3.47852 1.26318 -3.09131Z" fill="#000000" transform="translate(371.3561102810978,420.79999999999995) translate(-3.50390625,0)" />
<line x1="498.5170827108234" y1="397.6777777777778" x2="498.5170827108234" y2="402.93888888888887" stroke="#000000" stroke-width="1.1111111111111112" />
<path d="M6.4873 -2.88818Q6.4873 -2.22168 6.27148 -1.66309Q6.05566 -1.10449 5.6748 -0.698242Q5.29394 -0.291992 4.76709 -0.0666504Q4.24023 0.158691 3.62451 0.158691Q2.93896 0.158691 2.39624 -0.126953Q1.85352 -0.412598 1.47583 -0.948975Q1.09814 -1.48535 0.901367 -2.25977Q0.70459 -3.03418 0.70459 -4.00537Q0.70459 -5.19238 0.968018 -6.1604Q1.23145 -7.12842 1.71704 -7.81714Q2.20264 -8.50586 2.88818 -8.88037Q3.57373 -9.25488 4.41797 -9.25488Q5.35742 -9.25488 5.92871 -8.99463L5.92871 -8.01074Q5.22412 -8.37256 4.44336 -8.37256Q3.83398 -8.37256 3.34521 -8.09961Q2.85644 -7.82666 2.50732 -7.32837Q2.1582 -6.83008 1.97095 -6.12549Q1.78369 -5.4209 1.78369 -4.55762L1.80908 -4.55762Q2.4375 -5.69385 3.88477 -5.69385Q4.48144 -5.69385 4.96069 -5.49072Q5.43994 -5.2876 5.77954 -4.91626Q6.11914 -4.54492 6.30322 -4.03076Q6.4873 -3.5166 6.4873 -2.88818ZM5.4209 -2.75488Q5.4209 -3.23096 5.30029 -3.61182Q5.17969 -3.99268 4.95435 -4.25928Q4.729 -4.52588 4.39893 -4.6687Q4.06885 -4.81152 3.6499 -4.81152Q3.2627 -4.81152 2.93262 -4.66553Q2.60254 -4.51953 2.36133 -4.2688Q2.12012 -4.01807 1.98364 -3.68481Q1.84717 -3.35156 1.84717 -2.97705Q1.84717 -2.50732 1.98047 -2.0979Q2.11377 -1.68848 2.35498 -1.38379Q2.59619 -1.0791 2.92944 -0.904541Q3.2627 -0.72998 3.66895 -0.72998Q4.0625 -0.72998 4.38623 -0.87915Q4.70996 -1.02832 4.93848 -1.29492Q5.16699 -1.56152 5.29395 -1.93286Q5.4209 -2.3042 5.4209 -2.75488Z" fill="#000000" transform="translate(498.5170827108234,420.79999999999995) translate(-3.50390625,0)" />
<line x1="625.6780551405488" y1="397.6777777777778" x2="625.6780551405488" y2="402.93888888888887" stroke="#000000" stroke-width="1.1111111111111112" />
<path d="M0.571289 -2.53906Q0.571289 -2.90088 0.685547 -3.26587Q0.799805 -3.63086 1.01245 -3.94824Q1.2251 -4.26563 1.53931 -4.52588Q1.85352 -4.78613 2.25342 -4.93848Q1.66309 -5.26855 1.31396 -5.78589Q0.964844 -6.30322 0.964844 -6.93164Q0.964844 -7.43311 1.15845 -7.8584Q1.35205 -8.28369 1.69482 -8.59473Q2.0376 -8.90576 2.50732 -9.08032Q2.97705 -9.25488 3.52295 -9.25488Q4.0752 -9.25488 4.54492 -9.07715Q5.01465 -8.89941 5.35742 -8.58838Q5.7002 -8.27734 5.89063 -7.85205Q6.08105 -7.42676 6.08105 -6.93164Q6.08105 -6.30322 5.73193 -5.78589Q5.38281 -5.26855 4.80518 -4.93848Q5.19873 -4.78613 5.50977 -4.52588Q5.8208 -4.26562 6.03345 -3.94824Q6.24609 -3.63086 6.36035 -3.26587Q6.47461 -2.90088 6.47461 -2.53906Q6.47461 -1.94238 6.25879 -1.44727Q6.04297 -0.952148 5.65259 -0.599854Q5.26221 -0.247559 4.71948 -0.0507813Q4.17676 0.145996 3.52295 0.145996Q2.87549 0.145996 2.33594 -0.0507813Q1.79639 -0.247559 1.40283 -0.599854Q1.00928 -0.952148 0.790283 -1.44727Q0.571289 -1.94238 0.571289 -2.53906ZM1.70117 -2.62793Q1.70117 -2.20264 1.8313 -1.85986Q1.96143 -1.51709 2.19946 -1.27588Q2.4375 -1.03467 2.7771 -0.904541Q3.1167 -0.774414 3.5293 -0.774414Q3.9292 -0.774414 4.26563 -0.907715Q4.60205 -1.04102 4.84644 -1.28223Q5.09082 -1.52344 5.22729 -1.86621Q5.36377 -2.20898 5.36377 -2.62793Q5.36377 -3.00879 5.23364 -3.34204Q5.10351 -3.67529 4.8623 -3.9292Q4.62109 -4.1831 4.28467 -4.3291Q3.94824 -4.4751 3.5293 -4.4751Q3.13574 -4.4751 2.80249 -4.33862Q2.46924 -4.20215 2.22485 -3.95776Q1.98047 -3.71338 1.84082 -3.37378Q1.70117 -3.03418 1.70117 -2.62793ZM2.0249 -6.84912Q2.0249 -6.52539 2.14233 -6.24927Q2.25977 -5.97314 2.46606 -5.76685Q2.67236 -5.56055 2.94531 -5.44312Q3.21826 -5.32568 3.5293 -5.32568Q3.84033 -5.32568 4.11646 -5.44629Q4.39258 -5.56689 4.5957 -5.77319Q4.79883 -5.97949 4.91943 -6.25562Q5.04004 -6.53174 5.04004 -6.84912Q5.04004 -7.1792 4.92261 -7.4585Q4.80518 -7.73779 4.60205 -7.94092Q4.39893 -8.14404 4.1228 -8.26147Q3.84668 -8.37891 3.5293 -8.37891Q3.19287 -8.37891 2.91675 -8.2583Q2.64063 -8.13769 2.44067 -7.9314Q2.24072 -7.7251 2.13281 -7.4458Q2.0249 -7.1665 2.0249 -6.84912Z" fill="#000000" transform="translate(625.6780551405488,420.79999999999995) translate(-3.50390625,0)" />
<line x1="752.8390275702744" y1="397.6777777777778" x2="752.8390275702744" y2="402.93888888888887" stroke="#000000" stroke-width="1.1111111111111112" />
<path d="M4.5957 0L3.55469 0L3.55469 -7.86475Q3.43408 -7.74414 3.20239 -7.58862Q2.9707 -7.43311 2.68188 -7.28076Q2.39307 -7.12842 2.07251 -6.99512Q1.75195 -6.86182 1.44727 -6.78564L1.44727 -7.83936Q1.79004 -7.93457 2.17407 -8.09644Q2.55811 -8.2583 2.92944 -8.45825Q3.30078 -8.6582 3.63086 -8.8772Q3.96094 -9.09619 4.20215 -9.30566L4.5957 -9.30566L4.5957 0ZM13.4824 -4.58936Q13.4824 -3.44678 13.2761 -2.56445Q13.0698 -1.68213 12.6794 -1.07593Q12.2891 -0.469727 11.7209 -0.155518Q11.1528 0.158691 10.4292 0.158691Q9.74365 0.158691 9.20728 -0.142822Q8.6709 -0.444336 8.30273 -1.02197Q7.93457 -1.59961 7.74414 -2.44067Q7.55371 -3.28174 7.55371 -4.36719Q7.55371 -5.56055 7.75366 -6.47461Q7.95361 -7.38867 8.34082 -8.00757Q8.72803 -8.62646 9.30249 -8.94067Q9.87695 -9.25488 10.6196 -9.25488Q13.4824 -9.25488 13.4824 -4.58936ZM12.416 -4.48779Q12.416 -8.37256 10.5688 -8.37256Q8.62012 -8.37256 8.62012 -4.41797Q8.62012 -0.72998 10.5308 -0.72998Q12.416 -0.72998 12.416 -4.48779Z" fill="#000000" transform="translate(752.8390275702744,420.79999999999995) translate(-7.0078125,0)" />
<line x1="880" y1="397.6777777777778" x2="880" y2="402.93888888888887" stroke="#000000" stroke-width="1.1111111111111112" />
<path d="M4.5957 0L3.55469 0L3.55469 -7.86475Q3.43408 -7.74414 3.20239 -7.58862Q2.9707 -7.43311 2.68188 -7.28076Q2.39307 -7.12842 2.07251 -6.99512Q1.75195 -6.86182 1.44727 -6.78564L1.44727 -7.83936Q1.79004 -7.93457 2.17407 -8.09644Q2.55811 -8.2583 2.92944 -8.45825Q3.30078 -8.6582 3.63086 -8.8772Q3.96094 -9.09619 4.20215 -9.30566L4.5957 -9.30566L4.5957 0ZM11.9082 -6.71582Q11.9082 -7.13477 11.7781 -7.4458Q11.6479 -7.75684 11.4226 -7.96313Q11.1973 -8.16943 10.8926 -8.271Q10.5879 -8.37256 10.2324 -8.37256Q9.92773 -8.37256 9.63574 -8.29004Q9.34375 -8.20752 9.06763 -8.06152Q8.7915 -7.91553 8.53442 -7.7124Q8.27734 -7.50928 8.05518 -7.26172L8.05518 -8.37891Q8.49316 -8.8042 9.03589 -9.02954Q9.57861 -9.25488 10.3594 -9.25488Q10.918 -9.25488 11.394 -9.09302Q11.8701 -8.93115 12.2192 -8.62012Q12.5684 -8.30908 12.7683 -7.85205Q12.9683 -7.39502 12.9683 -6.80469Q12.9683 -6.26514 12.8445 -5.82715Q12.7207 -5.38916 12.47 -5.00195Q12.2192 -4.61475 11.8384 -4.25928Q11.4575 -3.90381 10.9434 -3.53564Q10.3022 -3.07861 9.88647 -2.75488Q9.4707 -2.43115 9.22632 -2.14868Q8.98193 -1.86621 8.88354 -1.58374Q8.78516 -1.30127 8.78516 -0.933105L13.3174 -0.933105L13.3174 0L7.69971 0L7.69971 -0.450684Q7.69971 -1.03467 7.82666 -1.479Q7.95361 -1.92334 8.24561 -2.32324Q8.5376 -2.72314 9.0105 -3.12305Q9.4834 -3.52295 10.1689 -4.02441Q10.6641 -4.37988 10.9973 -4.70361Q11.3306 -5.02734 11.5337 -5.35107Q11.7368 -5.6748 11.8225 -6.00806Q11.9082 -6.34131 11.9082 -6.71582Z" fill="#000000" transform="translate(880,420.79999999999995) translate(-7.0078125,0)" />
<line x1="77.20378689236111" y1="398.0777777777778" x2="82.46489800347223" y2="398.0777777777778" stroke="#000000" stroke-width="1.1111111111111112" />
<path d="M6.47461 -4.58936Q6.47461 -3.44678 6.26831 -2.56445Q6.06201 -1.68213 5.67163 -1.07593Q5.28125 -0.469727 4.71313 -0.155518Q4.14502 0.158691 3.42139 0.158691Q2.73584 0.158691 2.19946 -0.142822Q1.66309 -0.444336 1.29492 -1.02197Q0.926758 -1.59961 0.736328 -2.44067Q0.545898 -3.28174 0.545898 -4.36719Q0.545898 -5.56055 0.74585 -6.47461Q0.945801 -7.38867 1.33301 -8.00757Q1.72021 -8.62646 2.29468 -8.94067Q2.86914 -9.25488 3.61182 -9.25488Q6.47461 -9.25488 6.47461 -4.58936ZM5.4082 -4.48779Q5.4082 -8.37256 3.56104 -8.37256Q1.6123 -8.37256 1.6123 -4.41797Q1.6123 -0.72998 3.52295 -0.72998Q5.4082 -0.72998 5.4082 -4.48779ZM8.42334 0.139648Q8.13135 0.139648 7.92505 -0.0698242Q7.71875 -0.279297 7.71875 -0.571289Q7.71875 -0.863281 7.92505 -1.07593Q8.13135 -1.28857 8.42334 -1.28857Q8.72168 -1.28857 8.93115 -1.07593Q9.14063 -0.863281 9.14063 -0.571289Q9.14063 -0.279297 8.93115 -0.0698242Q8.72168 0.139648 8.42334 0.139648ZM15.9771 -2.78027Q15.977 -2.11377 15.7485 -1.57422Q15.52 -1.03467 15.0979 -0.647461Q14.6758 -0.260254 14.0791 -0.0507813Q13.4824 0.158691 12.7524 0.158691Q11.4829 0.158691 10.8672 -0.222168L10.8672 -1.32666Q11.7939 -0.729981 12.7651 -0.72998Q13.2603 -0.72998 13.657 -0.875977Q14.0537 -1.02197 14.333 -1.28223Q14.6123 -1.54248 14.7615 -1.91064Q14.9106 -2.27881 14.9106 -2.7168Q14.9106 -3.60547 14.314 -4.11011Q13.7173 -4.61475 12.5811 -4.61475Q12.397 -4.61475 12.1938 -4.6084Q11.9907 -4.60205 11.7876 -4.59253Q11.5845 -4.58301 11.3909 -4.57031Q11.1973 -4.55762 11.0386 -4.53857L11.3496 -9.10254L15.5581 -9.10254L15.5581 -8.16309L12.251 -8.16309L12.0669 -5.49072Q12.27 -5.50342 12.4985 -5.51294Q12.7271 -5.52246 12.9048 -5.52246Q13.6284 -5.52246 14.1997 -5.33203Q14.771 -5.1416 15.1677 -4.78931Q15.5645 -4.43701 15.7708 -3.92603Q15.9771 -3.41504 15.9771 -2.78027Z" fill="#000000" transform="translate(72.34267578125,402.0777777777778) translate(-16.833984375,0)" />
<line x1="77.20378689236111" y1="340.94075257365995" x2="82.46489800347223" y2="340.94075257365995" stroke="#000000" stroke-width="1.1111111111111112" />
<path d="M4.5957 0L3.55469 0L3.55469 -7.86475Q3.43408 -7.74414 3.20239 -7.58862Q2.9707 -7.43311 2.68188 -7.28076Q2.39307 -7.12842 2.07251 -6.99512Q1.75195 -6.86182 1.44727 -6.78564L1.44727 -7.83936Q1.79004 -7.93457 2.17407 -8.09644Q2.55811 -8.2583 2.92944 -8.45825Q3.30078 -8.6582 3.63086 -8.8772Q3.96094 -9.09619 4.20215 -9.30566L4.5957 -9.30566L4.5957 0ZM8.42334 0.139648Q8.13135 0.139648 7.92505 -0.0698242Q7.71875 -0.279297 7.71875 -0.571289Q7.71875 -0.863281 7.92505 -1.07593Q8.13135 -1.28857 8.42334 -1.28857Q8.72168 -1.28857 8.93115 -1.07593Q9.14063 -0.863281 9.14063 -0.571289Q9.14063 -0.279297 8.93115 -0.0698242Q8.72168 0.139648 8.42334 0.139648ZM16.3008 -4.58936Q16.3008 -3.44678 16.0945 -2.56445Q15.8882 -1.68213 15.4978 -1.07593Q15.1074 -0.469727 14.5393 -0.155518Q13.9712 0.158691 13.2476 0.158691Q12.562 0.158691 12.0256 -0.142822Q11.4893 -0.444336 11.1211 -1.02197Q10.7529 -1.59961 10.5625 -2.44067Q10.3721 -3.28174 10.3721 -4.36719Q10.3721 -5.56055 10.572 -6.47461Q10.772 -7.38867 11.1592 -8.00757Q11.5464 -8.62646 12.1208 -8.94067Q12.6953 -9.25488 13.438 -9.25488Q16.3008 -9.25488 16.3008 -4.58936ZM15.2344 -4.48779Q15.2344 -8.37256 13.3872 -8.37256Q11.4385 -8.37256 11.4385 -4.41797Q11.4385 -0.72998 13.3491 -0.72998Q15.2344 -0.72998 15.2344 -4.48779Z" fill="#000000" transform="translate(72.34267578125,344.94075257365995) translate(-16.833984375,0)" />
<line x1="77.20378689236111" y1="283.8037273695421" x2="82.46489800347223" y2="283.8037273695421" stroke="#000000" stroke-width="1.1111111111111112" />
<path d="M4.5957 0L3.55469 0L3.55469 -7.86475Q3.43408 -7.74414 3.20239 -7.58862Q2.9707 -7.43311 2.68188 -7.28076Q2.39307 -7.12842 2.07251 -6.99512Q1.75195 -6.86182 1.44727 -6.78564L1.44727 -7.83936Q1.79004 -7.93457 2.17407 -8.09644Q2.55811 -8.2583 2.92944 -8.45825Q3.30078 -8.6582 3.63086 -8.8772Q3.96094 -9.09619 4.20215 -9.30566L4.5957 -9.30566L4.5957 0ZM8.42334 0.139648Q8.13135 0.139648 7.92505 -0.0698242Q7.71875 -0.279297 7.71875 -0.571289Q7.71875 -0.863281 7.92505 -1.07593Q8.13135 -1.28857 8.42334 -1.28857Q8.72168 -1.28857 8.93115 -1.07593Q9.14063 -0.863281 9.14063 -0.571289Q9.14063 -0.279297 8.93115 -0.0698242Q8.72168 0.139648 8.42334 0.139648ZM15.9771 -2.78027Q15.977 -2.11377 15.7485 -1.57422Q15.52 -1.03467 15.0979 -0.647461Q14.6758 -0.260254 14.0791 -0.0507813Q13.4824 0.158691 12.7524 0.158691Q11.4829 0.158691 10.8672 -0.222168L10.8672 -1.32666Q11.7939 -0.729981 12.7651 -0.72998Q13.2603 -0.72998 13.657 -0.875977Q14.0537 -1.02197 14.333 -1.28223Q14.6123 -1.54248 14.7615 -1.91064Q14.9106 -2.27881 14.9106 -2.7168Q14.9106 -3.60547 14.314 -4.11011Q13.7173 -4.61475 12.5811 -4.61475Q12.397 -4.61475 12.1938 -4.6084Q11.9907 -4.60205 11.7876 -4.59253Q11.5845 -4.58301 11.3909 -4.57031Q11.1973 -4.55762 11.0386 -4.53857L11.3496 -9.10254L15.5581 -9.10254L15.5581 -8.16309L12.251 -8.16309L12.0669 -5.49072Q12.27 -5.50342 12.4985 -5.51294Q12.7271 -5.52246 12.9048 -5.52246Q13.6284 -5.52246 14.1997 -5.33203Q14.771 -5.1416 15.1677 -4.78931Q15.5645 -4.43701 15.7708 -3.92603Q15.9771 -3.41504 15.9771 -2.78027Z" fill="#000000" transform="translate(72.34267578125,287.8037273695421) translate(-16.833984375,0)" />
<line x1="77.20378689236111" y1="226.66670216542423" x2="82.46489800347223" y2="226.66670216542423" stroke="#000000" stroke-width="1.1111111111111112" />
<path d="M4.90039 -6.71582Q4.90039 -7.13477 4.77026 -7.4458Q4.64014 -7.75684 4.41479 -7.96313Q4.18945 -8.16943 3.88477 -8.271Q3.58008 -8.37256 3.22461 -8.37256Q2.91992 -8.37256 2.62793 -8.29004Q2.33594 -8.20752 2.05981 -8.06152Q1.78369 -7.91553 1.52661 -7.7124Q1.26953 -7.50928 1.04736 -7.26172L1.04736 -8.37891Q1.48535 -8.8042 2.02808 -9.02954Q2.5708 -9.25488 3.35156 -9.25488Q3.91016 -9.25488 4.38623 -9.09302Q4.8623 -8.93115 5.21143 -8.62012Q5.56055 -8.30908 5.7605 -7.85205Q5.96045 -7.39502 5.96045 -6.80469Q5.96045 -6.26514 5.83667 -5.82715Q5.71289 -5.38916 5.46216 -5.00195Q5.21143 -4.61475 4.83057 -4.25928Q4.44971 -3.90381 3.93555 -3.53564Q3.29443 -3.07861 2.87866 -2.75488Q2.46289 -2.43115 2.21851 -2.14868Q1.97412 -1.86621 1.87573 -1.58374Q1.77734 -1.30127 1.77734 -0.933105L6.30957 -0.933105L6.30957 0L0.691895 0L0.691895 -0.450684Q0.691895 -1.03467 0.818848 -1.479Q0.945801 -1.92334 1.23779 -2.32324Q1.52979 -2.72314 2.00269 -3.12305Q2.47559 -3.52295 3.16113 -4.02441Q3.65625 -4.37988 3.9895 -4.70361Q4.32275 -5.02734 4.52588 -5.35107Q4.729 -5.6748 4.8147 -6.00806Q4.90039 -6.34131 4.90039 -6.71582ZM8.42334 0.139648Q8.13135 0.139648 7.92505 -0.0698242Q7.71875 -0.279297 7.71875 -0.571289Q7.71875 -0.863281 7.92505 -1.07593Q8.13135 -1.28857 8.42334 -1.28857Q8.72168 -1.28857 8.93115 -1.07593Q9.14063 -0.863281 9.14063 -0.571289Q9.14063 -0.279297 8.93115 -0.0698242Q8.72168 0.139648 8.42334 0.139648ZM16.3008 -4.58936Q16.3008 -3.44678 16.0945 -2.56445Q15.8882 -1.68213 15.4978 -1.07593Q15.1074 -0.469727 14.5393 -0.155518Q13.9712 0.158691 13.2476 0.158691Q12.562 0.158691 12.0256 -0.142822Q11.4893 -0.444336 11.1211 -1.02197Q10.7529 -1.59961 10.5625 -2.44067Q10.3721 -3.28174 10.3721 -4.36719Q10.3721 -5.56055 10.572 -6.47461Q10.772 -7.38867 11.1592 -8.00757Q11.5464 -8.62646 12.1208 -8.94067Q12.6953 -9.25488 13.438 -9.25488Q16.3008 -9.25488 16.3008 -4.58936ZM15.2344 -4.48779Q15.2344 -8.37256 13.3872 -8.37256Q11.4385 -8.37256 11.4385 -4.41797Q11.4385 -0.72998 13.3491 -0.72998Q15.2344 -0.72998 15.2344 -4.48779Z" fill="#000000" transform="translate(72.34267578125,230.66670216542423) translate(-16.833984375,0)" />
<line x1="77.20378689236111" y1="169.52967696130634" x2="82.46489800347223" y2="169.52967696130634" stroke="#000000" stroke-width="1.1111111111111112" />
<path d="M4.90039 -6.71582Q4.90039 -7.13477 4.77026 -7.4458Q4.64014 -7.75684 4.41479 -7.96313Q4.18945 -8.16943 3.88477 -8.271Q3.58008 -8.37256 3.22461 -8.37256Q2.91992 -8.37256 2.62793 -8.29004Q2.33594 -8.20752 2.05981 -8.06152Q1.78369 -7.91553 1.52661 -7.7124Q1.26953 -7.50928 1.04736 -7.26172L1.04736 -8.37891Q1.48535 -8.8042 2.02808 -9.02954Q2.5708 -9.25488 3.35156 -9.25488Q3.91016 -9.25488 4.38623 -9.09302Q4.8623 -8.93115 5.21143 -8.62012Q5.56055 -8.30908 5.7605 -7.85205Q5.96045 -7.39502 5.96045 -6.80469Q5.96045 -6.26514 5.83667 -5.82715Q5.71289 -5.38916 5.46216 -5.00195Q5.21143 -4.61475 4.83057 -4.25928Q4.44971 -3.90381 3.93555 -3.53564Q3.29443 -3.07861 2.87866 -2.75488Q2.46289 -2.43115 2.21851 -2.14868Q1.97412 -1.86621 1.87573 -1.58374Q1.77734 -1.30127 1.77734 -0.933105L6.30957 -0.933105L6.30957 0L0.691895 0L0.691895 -0.450684Q0.691895 -1.03467 0.818848 -1.479Q0.945801 -1.92334 1.23779 -2.32324Q1.52979 -2.72314 2.00269 -3.12305Q2.47559 -3.52295 3.16113 -4.02441Q3.65625 -4.37988 3.9895 -4.70361Q4.32275 -5.02734 4.52588 -5.35107Q4.729 -5.6748 4.8147 -6.00806Q4.90039 -6.34131 4.90039 -6.71582ZM8.42334 0.139648Q8.13135 0.139648 7.92505 -0.0698242Q7.71875 -0.279297 7.71875 -0.571289Q7.71875 -0.863281 7.92505 -1.07593Q8.13135 -1.28857 8.42334 -1.28857Q8.72168 -1.28857 8.93115 -1.07593Q9.14063 -0.863281 9.14063 -0.571289Q9.14063 -0.279297 8.93115 -0.0698242Q8.72168 0.139648 8.42334 0.139648ZM15.9771 -2.78027Q15.977 -2.11377 15.7485 -1.57422Q15.52 -1.03467 15.0979 -0.647461Q14.6758 -0.260254 14.0791 -0.0507813Q13.4824 0.158691 12.7524 0.158691Q11.4829 0.158691 10.8672 -0.222168L10.8672 -1.32666Q11.7939 -0.729981 12.7651 -0.72998Q13.2603 -0.72998 13.657 -0.875977Q14.0537 -1.02197 14.333 -1.28223Q14.6123 -1.54248 14.7615 -1.91064Q14.9106 -2.27881 14.9106 -2.7168Q14.9106 -3.60547 14.314 -4.11011Q13.7173 -4.61475 12.5811 -4.61475Q12.397 -4.61475 12.1938 -4.6084Q11.9907 -4.60205 11.7876 -4.59253Q11.5845 -4.58301 11.3909 -4.57031Q11.1973 -4.55762 11.0386 -4.53857L11.3496 -9.10254L15.5581 -9.10254L15.5581 -8.16309L12.251 -8.16309L12.0669 -5.49072Q12.27 -5.50342 12.4985 -5.51294Q12.7271 -5.52246 12.9048 -5.52246Q13.6284 -5.52246 14.1997 -5.33203Q14.771 -5.1416 15.1677 -4.78931Q15.5645 -4.43701 15.7708 -3.92603Q15.9771 -3.41504 15.9771 -2.78027Z" fill="#000000" transform="translate(72.34267578125,173.52967696130634) translate(-16.833984375,0)" />
<line x1="77.20378689236111" y1="112.3926517571885" x2="82.46489800347223" y2="112.3926517571885" stroke="#000000" stroke-width="1.1111111111111112" />
<path d="M6.04932 -2.57715Q6.04932 -1.96143 5.81763 -1.45679Q5.58594 -0.952148 5.16382 -0.593506Q4.7417 -0.234863 4.15137 -0.0380859Q3.56104 0.158691 2.8501 0.158691Q1.54883 0.158691 0.780762 -0.336426L0.780762 -1.45361Q1.70117 -0.72998 2.88818 -0.72998Q3.36426 -0.72998 3.74829 -0.850586Q4.13232 -0.971191 4.40845 -1.19971Q4.68457 -1.42822 4.83374 -1.75195Q4.98291 -2.07568 4.98291 -2.48193Q4.98291 -4.26563 2.44385 -4.26563L1.68848 -4.26563L1.68848 -5.14795L2.40576 -5.14795Q4.65283 -5.14795 4.65283 -6.82373Q4.65283 -8.37256 2.93896 -8.37256Q1.97412 -8.37256 1.12988 -7.7251L1.12988 -8.73438Q1.99951 -9.25488 3.19922 -9.25488Q3.77051 -9.25488 4.23389 -9.09619Q4.69727 -8.9375 5.02734 -8.65186Q5.35742 -8.36621 5.53833 -7.96631Q5.71924 -7.56641 5.71924 -7.08398Q5.71924 -5.2876 3.90381 -4.77344L3.90381 -4.74805Q4.36719 -4.69727 4.76074 -4.52271Q5.1543 -4.34814 5.43994 -4.06885Q5.72559 -3.78955 5.88745 -3.41187Q6.04932 -3.03418 6.04932 -2.57715ZM8.42334 0.139648Q8.13135 0.139648 7.92505 -0.0698242Q7.71875 -0.279297 7.71875 -0.571289Q7.71875 -0.863281 7.92505 -1.07593Q8.13135 -1.28857 8.42334 -1.28857Q8.72168 -1.28857 8.93115 -1.07593Q9.14063 -0.863281 9.14063 -0.571289Q9.14063 -0.279297 8.93115 -0.0698242Q8.72168 0.139648 8.42334 0.139648ZM16.3008 -4.58936Q16.3008 -3.44678 16.0945 -2.56445Q15.8882 -1.68213 15.4978 -1.07593Q15.1074 -0.469727 14.5393 -0.155518Q13.9712 0.158691 13.2476 0.158691Q12.562 0.158691 12.0256 -0.142822Q11.4893 -0.444336 11.1211 -1.02197Q10.7529 -1.59961 10.5625 -2.44067Q10.3721 -3.28174 10.3721 -4.36719Q10.3721 -5.56055 10.572 -6.47461Q10.772 -7.38867 11.1592 -8.00757Q11.5464 -8.62646 12.1208 -8.94067Q12.6953 -9.25488 13.438 -9.25488Q16.3008 -9.25488 16.3008 -4.58936ZM15.2344 -4.48779Q15.2344 -8.37256 13.3872 -8.37256Q11.4385 -8.37256 11.4385 -4.41797Q11.4385 -0.72998 13.3491 -0.72998Q15.2344 -0.72998 15.2344 -4.48779Z" fill="#000000" transform="translate(72.34267578125,116.3926517571885) translate(-16.833984375,0)" />
<line x1="77.20378689236111" y1="55.25562655307067" x2="82.46489800347223" y2="55.25562655307067" stroke="#000000" stroke-width="1.1111111111111112" />
<path d="M6.04932 -2.57715Q6.04932 -1.96143 5.81763 -1.45679Q5.58594 -0.952148 5.16382 -0.593506Q4.7417 -0.234863 4.15137 -0.0380859Q3.56104 0.158691 2.8501 0.158691Q1.54883 0.158691 0.780762 -0.336426L0.780762 -1.45361Q1.70117 -0.72998 2.88818 -0.72998Q3.36426 -0.72998 3.74829 -0.850586Q4.13232 -0.971191 4.40845 -1.19971Q4.68457 -1.42822 4.83374 -1.75195Q4.98291 -2.07568 4.98291 -2.48193Q4.98291 -4.26563 2.44385 -4.26563L1.68848 -4.26563L1.68848 -5.14795L2.40576 -5.14795Q4.65283 -5.14795 4.65283 -6.82373Q4.65283 -8.37256 2.93896 -8.37256Q1.97412 -8.37256 1.12988 -7.7251L1.12988 -8.73438Q1.99951 -9.25488 3.19922 -9.25488Q3.77051 -9.25488 4.23389 -9.09619Q4.69727 -8.9375 5.02734 -8.65186Q5.35742 -8.36621 5.53833 -7.96631Q5.71924 -7.56641 5.71924 -7.08398Q5.71924 -5.2876 3.90381 -4.77344L3.90381 -4.74805Q4.36719 -4.69727 4.76074 -4.52271Q5.1543 -4.34814 5.43994 -4.06885Q5.72559 -3.78955 5.88745 -3.41187Q6.04932 -3.03418 6.04932 -2.57715ZM8.42334 0.139648Q8.13135 0.139648 7.92505 -0.0698242Q7.71875 -0.279297 7.71875 -0.571289Q7.71875 -0.863281 7.92505 -1.07593Q8.13135 -1.28857 8.42334 -1.28857Q8.72168 -1.28857 8.93115 -1.07593Q9.14063 -0.863281 9.14063 -0.571289Q9.14063 -0.279297 8.93115 -0.0698242Q8.72168 0.139648 8.42334 0.139648ZM15.9771 -2.78027Q15.977 -2.11377 15.7485 -1.57422Q15.52 -1.03467 15.0979 -0.647461Q14.6758 -0.260254 14.0791 -0.0507813Q13.4824 0.158691 12.7524 0.158691Q11.4829 0.158691 10.8672 -0.222168L10.8672 -1.32666Q11.7939 -0.729981 12.7651 -0.72998Q13.2603 -0.72998 13.657 -0.875977Q14.0537 -1.02197 14.333 -1.28223Q14.6123 -1.54248 14.7615 -1.91064Q14.9106 -2.27881 14.9106 -2.7168Q14.9106 -3.60547 14.314 -4.11011Q13.7173 -4.61475 12.5811 -4.61475Q12.397 -4.61475 12.1938 -4.6084Q11.9907 -4.60205 11.7876 -4.59253Q11.5845 -4.58301 11.3909 -4.57031Q11.1973 -4.55762 11.0386 -4.53857L11.3496 -9.10254L15.5581 -9.10254L15.5581 -8.16309L12.251 -8.16309L12.0669 -5.49072Q12.27 -5.50342 12.4985 -5.51294Q12.7271 -5.52246 12.9048 -5.52246Q13.6284 -5.52246 14.1997 -5.33203Q14.771 -5.1416 15.1677 -4.78931Q15.5645 -4.43701 15.7708 -3.92603Q15.9771 -3.41504 15.9771 -2.78027Z" fill="#000000" transform="translate(72.34267578125,59.25562655307067) translate(-16.833984375,0)" />
<g class="series" aria-label="Revenue">
<polyline points="117.03416542164675,318.0859424920128 180.6146516365095,283.8037273695421 244.1951378513723,306.6585374511892 307.775624066235,249.52151224707137 371.3561102810978,215.23929712460065 434.9365964959606,226.66670216542423 498.51708271082333,180.95708200212994 562.0975689256861,146.6748668796592 625.6780551405488,169.52967696130636 689.2585413554117,112.3926517571885 752.8390275702744,89.53784167554134 816.4195137851372,55.25562655307064" fill="none" stroke="#E69F00" stroke-width="2.5" />
</g>
<g class="series" aria-label="Cost">
<polyline points="117.03416542164675,352.3681576144835 180.6146516365095,329.51334753283635 244.1951378513723,340.94075257365995 307.775624066235,306.6585374511892 371.3561102810978,283.8037273695421 434.9365964959606,295.23113241036566 498.51708271082333,272.3763223287185 562.0975689256861,238.0941072062478 625.6780551405488,249.52151224707137 689.2585413554117,215.23929712460065 752.8390275702744,203.81189208377705 816.4195137851372,180.95708200212994" fill="none" stroke="#56B4E9" stroke-width="2.5" stroke-dasharray="5,2" />
</g>
<g class="spine">
<line x1="82.06489800347222" y1="398.0777777777778" x2="880" y2="398.0777777777778" stroke="#000000" stroke-width="0.8" />
</g>
<g class="spine">
<line x1="82.06489800347222" y1="40.4" x2="880" y2="40.4" stroke="#000000" stroke-width="0.8" />
</g>
<g class="spine">
<line x1="82.06489800347222" y1="40.4" x2="82.06489800347222" y2="398.0777777777778" stroke="#000000" stroke-width="0.8" />
</g>
<g class="spine">
<line x1="880" y1="40.4" x2="880" y2="398.0777777777778" stroke="#000000" stroke-width="0.8" />
</g>
<rect x="92.06489800347222" y="50.4" width="101.51181640625" height="40.7" fill="#FFFFFF" fill-opacity="0.8" stroke="#CCCCCC" stroke-width="0.5" />
<g class="legend" aria-label="Chart legend">
<line x1="100.06489800347222" y1="62.949999999999996" x2="126.06489800347222" y2="62.949999999999996" stroke="#E69F00" stroke-width="2.5" />
<path d="M7.71875 0L6.44922 0L4.92578 -2.55176Q4.71631 -2.90723 4.51953 -3.15796Q4.32275 -3.40869 4.11646 -3.56738Q3.91016 -3.72607 3.67212 -3.79907Q3.43408 -3.87207 3.13574 -3.87207L2.25977 -3.87207L2.25977 0L1.19336 0L1.19336 -9.10254L3.91016 -9.10254Q4.50684 -9.10254 5.01147 -8.95337Q5.51611 -8.8042 5.88745 -8.49951Q6.25879 -8.19482 6.46826 -7.74097Q6.67773 -7.28711 6.67773 -6.67773Q6.67773 -6.20166 6.53491 -5.80493Q6.39209 -5.4082 6.12866 -5.09717Q5.86523 -4.78613 5.4939 -4.56714Q5.12256 -4.34814 4.65918 -4.22754L4.65918 -4.20215Q4.8877 -4.10059 5.05591 -3.97046Q5.22412 -3.84033 5.37646 -3.6626Q5.52881 -3.48486 5.67798 -3.25952Q5.82715 -3.03418 6.01123 -2.73584L7.71875 0ZM2.25977 -8.1377L2.25977 -4.83691L3.70703 -4.83691Q4.10693 -4.83691 4.44653 -4.95752Q4.78613 -5.07812 5.03369 -5.30347Q5.28125 -5.52881 5.4209 -5.85571Q5.56055 -6.18262 5.56055 -6.58887Q5.56055 -7.31885 5.08765 -7.72827Q4.61475 -8.1377 3.71973 -8.1377L2.25977 -8.1377ZM14.0537 -2.98975L9.46436 -2.98975Q9.48975 -1.9043 10.0483 -1.31396Q10.6069 -0.723633 11.5845 -0.723633Q12.6826 -0.723633 13.603 -1.44727L13.603 -0.469727Q12.7461 0.152344 11.3369 0.152344Q9.95947 0.152344 9.17236 -0.733154Q8.38525 -1.61865 8.38525 -3.22461Q8.38525 -4.7417 9.24536 -5.69702Q10.1055 -6.65234 11.3813 -6.65234Q12.6572 -6.65234 13.3555 -5.82715Q14.0537 -5.00195 14.0537 -3.53564L14.0537 -2.98975ZM12.9873 -3.87207Q12.981 -4.77344 12.5525 -5.2749Q12.124 -5.77637 11.3623 -5.77637Q10.626 -5.77637 10.1118 -5.24951Q9.59766 -4.72266 9.47705 -3.87207L12.9873 -3.87207ZM20.7378 -6.5L18.1479 0L17.126 0L14.6631 -6.5L15.8057 -6.5L17.4561 -1.77734Q17.6401 -1.25684 17.6846 -0.869629L17.71 -0.869629Q17.7734 -1.3584 17.9131 -1.75195L19.6396 -6.5L20.7378 -6.5ZM27.0791 -2.98975L22.4897 -2.98975Q22.5151 -1.9043 23.0737 -1.31396Q23.6323 -0.723633 24.6099 -0.723633Q25.708 -0.723633 26.6284 -1.44727L26.6284 -0.469727Q25.7715 0.152344 24.3623 0.152344Q22.9849 0.152344 22.1978 -0.733154Q21.4106 -1.61865 21.4106 -3.22461Q21.4106 -4.7417 22.2708 -5.69702Q23.1309 -6.65234 24.4067 -6.65234Q25.6826 -6.65234 26.3809 -5.82715Q27.0791 -5.00195 27.0791 -3.53564L27.0791 -2.98975ZM26.0127 -3.87207Q26.0063 -4.77344 25.5779 -5.2749Q25.1494 -5.77637 24.3877 -5.77637Q23.6514 -5.77637 23.1372 -5.24951Q22.623 -4.72266 22.5024 -3.87207L26.0127 -3.87207ZM34.0488 0L33.0078 0L33.0078 -3.70703Q33.0078 -5.77637 31.4971 -5.77637Q30.7163 -5.77637 30.2053 -5.18921Q29.6943 -4.60205 29.6943 -3.70703L29.6943 0L28.6533 0L28.6533 -6.5L29.6943 -6.5L29.6943 -5.4209L29.7197 -5.4209Q30.4561 -6.65234 31.8525 -6.65234Q32.9189 -6.65234 33.4839 -5.96362Q34.0488 -5.2749 34.0488 -3.97363L34.0488 0ZM41.2661 0L40.2251 0L40.2251 -1.02832L40.1997 -1.02832Q39.5522 0.152344 38.1938 0.152344Q35.8706 0.152344 35.8706 -2.61523L35.8706 -6.5L36.9053 -6.5L36.9053 -2.78027Q36.9053 -0.723633 38.4795 -0.723633Q39.2412 -0.723633 39.7332 -1.2854Q40.2251 -1.84717 40.2251 -2.75488L40.2251 -6.5L41.2661 -6.5L41.2661 0ZM48.5913 -2.98975L44.002 -2.98975Q44.0273 -1.9043 44.5859 -1.31396Q45.1445 -0.723633 46.1221 -0.723633Q47.2202 -0.723633 48.1406 -1.44727L48.1406 -0.469727Q47.2837 0.152344 45.8745 0.152344Q44.4971 0.152344 43.71 -0.733154Q42.9229 -1.61865 42.9229 -3.22461Q42.9229 -4.7417 43.783 -5.69702Q44.6431 -6.65234 45.9189 -6.65234Q47.1948 -6.65234 47.8931 -5.82715Q48.5913 -5.00195 48.5913 -3.53564L48.5913 -2.98975ZM47.5249 -3.87207Q47.5186 -4.77344 47.0901 -5.2749Q46.6616 -5.77637 45.8999 -5.77637Q45.1636 -5.77637 44.6494 -5.24951Q44.1353 -4.72266 44.0146 -3.87207L47.5249 -3.87207Z" fill="#000000" transform="translate(136.46489800347223,66.5)" />
<line x1="100.06489800347222" y1="78.55" x2="126.06489800347222" y2="78.55" stroke="#56B4E9" stroke-width="2.5" stroke-dasharray="5,2" />
<path d="M7.38867 -0.380859Q6.37939 0.152344 4.875 0.152344Q2.93262 0.152344 1.76465 -1.09814Q0.59668 -2.34863 0.59668 -4.37988Q0.59668 -6.56348 1.91064 -7.90918Q3.22461 -9.25488 5.24316 -9.25488Q6.53809 -9.25488 7.38867 -8.88037L7.38867 -7.74414Q6.41113 -8.29004 5.23047 -8.29004Q3.6626 -8.29004 2.68823 -7.24268Q1.71387 -6.19531 1.71387 -4.44336Q1.71387 -2.78027 2.62476 -1.79321Q3.53564 -0.806152 5.01465 -0.806152Q6.38574 -0.806152 7.38867 -1.41553L7.38867 -0.380859ZM11.8193 0.152344Q10.3784 0.152344 9.51831 -0.758545Q8.6582 -1.66943 8.6582 -3.17383Q8.6582 -4.81152 9.55322 -5.73193Q10.4482 -6.65234 11.9717 -6.65234Q13.4253 -6.65234 14.241 -5.75732Q15.0566 -4.8623 15.0566 -3.27539Q15.0566 -1.72021 14.1775 -0.783936Q13.2983 0.152344 11.8193 0.152344ZM11.8955 -5.77637Q10.8926 -5.77637 10.3086 -5.09399Q9.72461 -4.41162 9.72461 -3.21191Q9.72461 -2.05664 10.3149 -1.39014Q10.9053 -0.723633 11.8955 -0.723633Q12.9048 -0.723633 13.4475 -1.37744Q13.9902 -2.03125 13.9902 -3.2373Q13.9902 -4.45605 13.4475 -5.11621Q12.9048 -5.77637 11.8955 -5.77637ZM16.3262 -0.234863L16.3262 -1.35205Q17.1768 -0.723633 18.1987 -0.723633Q19.5698 -0.723633 19.5698 -1.6377Q19.5698 -1.89795 19.4524 -2.07886Q19.335 -2.25977 19.135 -2.39941Q18.9351 -2.53906 18.6653 -2.65015Q18.3955 -2.76123 18.0845 -2.88184Q17.6528 -3.05322 17.3259 -3.22778Q16.999 -3.40234 16.78 -3.62134Q16.561 -3.84033 16.45 -4.11963Q16.3389 -4.39893 16.3389 -4.77344Q16.3389 -5.23047 16.5483 -5.58276Q16.7578 -5.93506 17.1069 -6.1731Q17.4561 -6.41113 17.9036 -6.53174Q18.3511 -6.65234 18.8271 -6.65234Q19.6714 -6.65234 20.3379 -6.36035L20.3379 -5.30664Q19.6206 -5.77637 18.6875 -5.77637Q18.3955 -5.77637 18.1606 -5.70972Q17.9258 -5.64307 17.7576 -5.52246Q17.5894 -5.40186 17.4973 -5.23364Q17.4053 -5.06543 17.4053 -4.8623Q17.4053 -4.6084 17.4973 -4.43701Q17.5894 -4.26563 17.7671 -4.13232Q17.9448 -3.99902 18.1987 -3.89111Q18.4526 -3.7832 18.7764 -3.65625Q19.208 -3.49121 19.5508 -3.31665Q19.8936 -3.14209 20.1348 -2.9231Q20.376 -2.7041 20.5061 -2.41846Q20.6362 -2.13281 20.6362 -1.73926Q20.6362 -1.25684 20.4236 -0.901367Q20.2109 -0.545898 19.8555 -0.311035Q19.5 -0.0761719 19.0366 0.0380859Q18.5732 0.152344 18.0654 0.152344Q17.0625 0.152344 16.3262 -0.234863ZM25.251 -0.0634766Q24.8828 0.139648 24.2798 0.139648Q22.5723 0.139648 22.5723 -1.76465L22.5723 -5.61133L21.4551 -5.61133L21.4551 -6.5L22.5723 -6.5L22.5723 -8.08691L23.6133 -8.42334L23.6133 -6.5L25.251 -6.5L25.251 -5.61133L23.6133 -5.61133L23.6133 -1.94873Q23.6133 -1.29492 23.8354 -1.01563Q24.0576 -0.736328 24.5718 -0.736328Q24.9653 -0.736328 25.251 -0.952148L25.251 -0.0634766Z" fill="#000000" transform="translate(136.46489800347223,82.1)" />
</g>
<path d="M10.4736 0L9.41357 0L9.41357 -6.10645Q9.41357 -6.83008 9.50244 -7.87744L9.47705 -7.87744Q9.32471 -7.26172 9.2041 -6.99512L6.09375 0L5.57324 0L2.46924 -6.94434Q2.33594 -7.24902 2.19629 -7.87744L2.1709 -7.87744Q2.22168 -7.33154 2.22168 -6.09375L2.22168 0L1.19336 0L1.19336 -9.10254L2.60254 -9.10254L5.39551 -2.75488Q5.71924 -2.0249 5.81445 -1.66309L5.85254 -1.66309Q6.12549 -2.41211 6.29053 -2.78027L9.14063 -9.10254L10.4736 -9.10254L10.4736 0ZM15.4438 0.152344Q14.0029 0.152344 13.1428 -0.758545Q12.2827 -1.66943 12.2827 -3.17383Q12.2827 -4.81152 13.1777 -5.73193Q14.0728 -6.65234 15.5962 -6.65234Q17.0498 -6.65234 17.8655 -5.75732Q18.6812 -4.8623 18.6812 -3.27539Q18.6812 -1.72021 17.802 -0.783936Q16.9229 0.152344 15.4438 0.152344ZM15.52 -5.77637Q14.5171 -5.77637 13.9331 -5.09399Q13.3491 -4.41162 13.3491 -3.21191Q13.3491 -2.05664 13.9395 -1.39014Q14.5298 -0.723633 15.52 -0.723633Q16.5293 -0.723633 17.072 -1.37744Q17.6147 -2.03125 17.6147 -3.2373Q17.6147 -4.45605 17.072 -5.11621Q16.5293 -5.77637 15.52 -5.77637ZM25.7397 0L24.6987 0L24.6987 -3.70703Q24.6987 -5.77637 23.188 -5.77637Q22.4072 -5.77637 21.8962 -5.18921Q21.3853 -4.60205 21.3853 -3.70703L21.3853 0L20.3442 0L20.3442 -6.5L21.3853 -6.5L21.3853 -5.4209L21.4106 -5.4209Q22.147 -6.65234 23.5435 -6.65234Q24.6099 -6.65234 25.1748 -5.96362Q25.7397 -5.2749 25.7397 -3.97363L25.7397 0ZM30.7163 -0.0634766Q30.3481 0.139648 29.7451 0.139648Q28.0376 0.139648 28.0376 -1.76465L28.0376 -5.61133L26.9204 -5.61133L26.9204 -6.5L28.0376 -6.5L28.0376 -8.08691L29.0786 -8.42334L29.0786 -6.5L30.7163 -6.5L30.7163 -5.61133L29.0786 -5.61133L29.0786 -1.94873Q29.0786 -1.29492 29.3008 -1.01563Q29.5229 -0.736328 30.0371 -0.736328Q30.4307 -0.736328 30.7163 -0.952148L30.7163 -0.0634766ZM37.502 0L36.4609 0L36.4609 -3.74512Q36.4609 -5.77637 34.9502 -5.77637Q34.1885 -5.77637 33.668 -5.18921Q33.1475 -4.60205 33.1475 -3.68164L33.1475 0L32.1064 0L32.1064 -9.62305L33.1475 -9.62305L33.1475 -5.4209L33.1729 -5.4209Q33.9219 -6.65234 35.3057 -6.65234Q37.502 -6.65234 37.502 -4.00537L37.502 0Z" fill="#000000" transform="translate(481.03244900173615,439.8) translate(-19.204833984375,0)" />
<path d="M3.91016 -0.0507813L3.91016 1.32666L3.25 1.32666L3.25 0Q1.89795 0 1.05371 -0.545898L1.05371 -1.65039Q1.42187 -1.32666 2.05981 -1.10767Q2.69775 -0.888672 3.25 -0.888672L3.25 -4.13867Q1.85352 -4.81152 1.44092 -5.37964Q1.02832 -5.94775 1.02832 -6.72217Q1.02832 -7.64258 1.65674 -8.31226Q2.28516 -8.98193 3.25 -9.11523L3.25 -10.2578L3.91016 -10.2578L3.91016 -9.14063Q5.1543 -9.10254 5.63037 -8.78516L5.63037 -7.70605Q4.98291 -8.21387 3.91016 -8.25195L3.91016 -4.90039Q5.23047 -4.27197 5.71606 -3.68481Q6.20166 -3.09766 6.20166 -2.34863Q6.20166 -1.44727 5.59546 -0.834717Q4.98926 -0.222168 3.91016 -0.0507813ZM3.25 -5.25586L3.25 -8.21387Q2.7168 -8.10596 2.40576 -7.74097Q2.09473 -7.37598 2.09473 -6.85547Q2.09473 -6.30957 2.34863 -5.96045Q2.60254 -5.61133 3.25 -5.25586ZM3.91016 -3.80859L3.91016 -0.939453Q5.13525 -1.20605 5.13525 -2.25977Q5.13525 -3.13574 3.91016 -3.80859ZM21.0425 0L19.9824 0L19.9824 -6.10645Q19.9824 -6.83008 20.0713 -7.87744L20.0459 -7.87744Q19.8936 -7.26172 19.7729 -6.99512L16.6626 0L16.1421 0L13.0381 -6.94434Q12.9048 -7.24902 12.7651 -7.87744L12.7397 -7.87744Q12.7905 -7.33154 12.7905 -6.09375L12.7905 0L11.7622 0L11.7622 -9.10254L13.1714 -9.10254L15.9644 -2.75488Q16.2881 -2.0249 16.3833 -1.66309L16.4214 -1.66309Q16.6943 -2.41211 16.8594 -2.78027L19.7095 -9.10254L21.0425 -9.10254L21.0425 0Z" fill="#000000" transform="translate(43.50869140625,219.2388888888889) rotate(-90) translate(-11.12109375,0)" />
</svg>
