<svg xmlns="http://www.w3.org/2000/svg" viewBox="0 0 900 450" width="900" height="450" role="img" aria-labelledby="chart-title" aria-describedby="chart-desc">
<title id="chart-title">Line chart: revenue and cost trends over 12 months of 2025</title>
<desc id="chart-desc">Revenue grew from $1.2M to $3.5M. Cost grew from $0.9M to $2.4M. Margin expanded each quarter.</desc>
<rect x="0" y="0" width="900" height="450" fill="#FFFFFF" />
<text x="450" y="23.299999999999997" font-family="sans-serif" font-size="17" text-anchor="middle" font-weight="bold" fill="#000000">Monthly Revenue vs Cost (2025)</text>
<rect x="60" y="40.4" width="820" height="359.6" fill="#FFFFFF" />
<line x1="97.27272727272727" y1="40.4" x2="97.27272727272727" y2="400" stroke="#B0B0B0" stroke-width="0.8" />
<line x1="232.80991735537185" y1="40.4" x2="232.80991735537185" y2="400" stroke="#B0B0B0" stroke-width="0.8" />
<line x1="368.34710743801645" y1="40.4" x2="368.34710743801645" y2="400" stroke="#B0B0B0" stroke-width="0.8" />
<line x1="503.88429752066105" y1="40.4" x2="503.88429752066105" y2="400" stroke="#B0B0B0" stroke-width="0.8" />
<line x1="639.4214876033056" y1="40.4" x2="639.4214876033056" y2="400" stroke="#B0B0B0" stroke-width="0.8" />
<line x1="774.9586776859503" y1="40.4" x2="774.9586776859503" y2="400" stroke="#B0B0B0" stroke-width="0.8" />
<line x1="60" y1="371.08111888111887" x2="880" y2="371.08111888111887" stroke="#B0B0B0" stroke-width="0.8" />
<line x1="60" y1="308.213986013986" x2="880" y2="308.213986013986" stroke="#B0B0B0" stroke-width="0.8" />
<line x1="60" y1="245.34685314685314" x2="880" y2="245.34685314685314" stroke="#B0B0B0" stroke-width="0.8" />
<line x1="60" y1="182.47972027972025" x2="880" y2="182.47972027972025" stroke="#B0B0B0" stroke-width="0.8" />
<line x1="60" y1="119.6125874125874" x2="880" y2="119.6125874125874" stroke="#B0B0B0" stroke-width="0.8" />
<line x1="60" y1="56.74545454545449" x2="880" y2="56.74545454545449" stroke="#B0B0B0" stroke-width="0.8" />
<line x1="97.27272727272727" y1="399.6" x2="97.27272727272727" y2="404.8611111111111" stroke="#000000" stroke-width="1.1111111111111112" />
<text x="97.27272727272727" y="422.7222222222222" font-family="sans-serif" font-size="13" text-anchor="middle" fill="#000000">0</text>
<line x1="232.80991735537185" y1="399.6" x2="232.80991735537185" y2="404.8611111111111" stroke="#000000" stroke-width="1.1111111111111112" />
<text x="232.80991735537185" y="422.7222222222222" font-family="sans-serif" font-size="13" text-anchor="middle" fill="#000000">2</text>
<line x1="368.34710743801645" y1="399.6" x2="368.34710743801645" y2="404.8611111111111" stroke="#000000" stroke-width="1.1111111111111112" />
<text x="368.34710743801645" y="422.7222222222222" font-family="sans-serif" font-size="13" text-anchor="middle" fill="#000000">4</text>
<line x1="503.88429752066105" y1="399.6" x2="503.88429752066105" y2="404.8611111111111" stroke="#000000" stroke-width="1.1111111111111112" />
<text x="503.88429752066105" y="422.7222222222222" font-family="sans-serif" font-size="13" text-anchor="middle" fill="#000000">6</text>
<line x1="639.4214876033056" y1="399.6" x2="639.4214876033056" y2="404.8611111111111" stroke="#000000" stroke-width="1.1111111111111112" />
<text x="639.4214876033056" y="422.7222222222222" font-family="sans-serif" font-size="13" text-anchor="middle" fill="#000000">8</text>
<line x1="774.9586776859503" y1="399.6" x2="774.9586776859503" y2="404.8611111111111" stroke="#000000" stroke-width="1.1111111111111112" />
<text x="774.9586776859503" y="422.7222222222222" font-family="sans-serif" font-size="13" text-anchor="middle" fill="#000000">10</text>
<line x1="70.16528925619835" y1="399.6" x2="70.16528925619835" y2="404.8611111111111" stroke="#000000" stroke-width="1.1111111111111112" />
<line x1="124.38016528925618" y1="399.6" x2="124.38016528925618" y2="404.8611111111111" stroke="#000000" stroke-width="1.1111111111111112" />
<line x1="151.48760330578511" y1="399.6" x2="151.48760330578511" y2="404.8611111111111" stroke="#000000" stroke-width="1.1111111111111112" />
<line x1="178.59504132231402" y1="399.6" x2="178.59504132231402" y2="404.8611111111111" stroke="#000000" stroke-width="1.1111111111111112" />
<line x1="205.70247933884295" y1="399.6" x2="205.70247933884295" y2="404.8611111111111" stroke="#000000" stroke-width="1.1111111111111112" />
<line x1="259.9173553719008" y1="399.6" x2="259.9173553719008" y2="404.8611111111111" stroke="#000000" stroke-width="1.1111111111111112" />
<line x1="287.0247933884297" y1="399.6" x2="287.0247933884297" y2="404.8611111111111" stroke="#000000" stroke-width="1.1111111111111112" />
<line x1="314.13223140495865" y1="399.6" x2="314.13223140495865" y2="404.8611111111111" stroke="#000000" stroke-width="1.1111111111111112" />
<line x1="341.2396694214876" y1="399.6" x2="341.2396694214876" y2="404.8611111111111" stroke="#000000" stroke-width="1.1111111111111112" />
<line x1="395.4545454545454" y1="399.6" x2="395.4545454545454" y2="404.8611111111111" stroke="#000000" stroke-width="1.1111111111111112" />
<line x1="422.56198347107426" y1="399.6" x2="422.56198347107426" y2="404.8611111111111" stroke="#000000" stroke-width="1.1111111111111112" />
<line x1="449.66942148760324" y1="399.6" x2="449.66942148760324" y2="404.8611111111111" stroke="#000000" stroke-width="1.1111111111111112" />
<line x1="476.7768595041321" y1="399.6" x2="476.7768595041321" y2="404.8611111111111" stroke="#000000" stroke-width="1.1111111111111112" />
<line x1="530.99173553719" y1="399.6" x2="530.99173553719" y2="404.8611111111111" stroke="#000000" stroke-width="1.1111111111111112" />
<line x1="558.0991735537189" y1="399.6" x2="558.0991735537189" y2="404.8611111111111" stroke="#000000" stroke-width="1.1111111111111112" />
<line x1="585.2066115702479" y1="399.6" x2="585.2066115702479" y2="404.8611111111111" stroke="#000000" stroke-width="1.1111111111111112" />
<line x1="612.3140495867767" y1="399.6" x2="612.3140495867767" y2="404.8611111111111" stroke="#000000" stroke-width="1.1111111111111112" />
<line x1="666.5289256198346" y1="399.6" x2="666.5289256198346" y2="404.8611111111111" stroke="#000000" stroke-width="1.1111111111111112" />
<line x1="693.6363636363635" y1="399.6" x2="693.6363636363635" y2="404.8611111111111" stroke="#000000" stroke-width="1.1111111111111112" />
<line x1="720.7438016528923" y1="399.6" x2="720.7438016528923" y2="404.8611111111111" stroke="#000000" stroke-width="1.1111111111111112" />
<line x1="747.8512396694213" y1="399.6" x2="747.8512396694213" y2="404.8611111111111" stroke="#000000" stroke-width="1.1111111111111112" />
<line x1="802.0661157024792" y1="399.6" x2="802.0661157024792" y2="404.8611111111111" stroke="#000000" stroke-width="1.1111111111111112" />
<line x1="829.1735537190082" y1="399.6" x2="829.1735537190082" y2="404.8611111111111" stroke="#000000" stroke-width="1.1111111111111112" />
<line x1="856.280991735537" y1="399.6" x2="856.280991735537" y2="404.8611111111111" stroke="#000000" stroke-width="1.1111111111111112" />
<line x1="55.138888888888886" y1="371.08111888111887" x2="60.4" y2="371.08111888111887" stroke="#000000" stroke-width="1.1111111111111112" />
<text x="50.27777777777777" y="375.08111888111887" font-family="sans-serif" font-size="13" text-anchor="end" fill="#000000">1</text>
<line x1="55.138888888888886" y1="308.213986013986" x2="60.4" y2="308.213986013986" stroke="#000000" stroke-width="1.1111111111111112" />
<text x="50.27777777777777" y="312.213986013986" font-family="sans-serif" font-size="13" text-anchor="end" fill="#000000">1.5</text>
<line x1="55.138888888888886" y1="245.34685314685314" x2="60.4" y2="245.34685314685314" stroke="#000000" stroke-width="1.1111111111111112" />
<text x="50.27777777777777" y="249.34685314685314" font-family="sans-serif" font-size="13" text-anchor="end" fill="#000000">2</text>
<line x1="55.138888888888886" y1="182.47972027972025" x2="60.4" y2="182.47972027972025" stroke="#000000" stroke-width="1.1111111111111112" />
<text x="50.27777777777777" y="186.47972027972025" font-family="sans-serif" font-size="13" text-anchor="end" fill="#000000">2.5</text>
<line x1="55.138888888888886" y1="119.6125874125874" x2="60.4" y2="119.6125874125874" stroke="#000000" stroke-width="1.1111111111111112" />
<text x="50.27777777777777" y="123.6125874125874" font-family="sans-serif" font-size="13" text-anchor="end" fill="#000000">3</text>
<line x1="55.138888888888886" y1="56.74545454545449" x2="60.4" y2="56.74545454545449" stroke="#000000" stroke-width="1.1111111111111112" />
<text x="50.27777777777777" y="60.74545454545449" font-family="sans-serif" font-size="13" text-anchor="end" fill="#000000">3.5</text>
<line x1="55.138888888888886" y1="396.22797202797204" x2="60.4" y2="396.22797202797204" stroke="#000000" stroke-width="1.1111111111111112" />
<line x1="55.138888888888886" y1="383.6545454545454" x2="60.4" y2="383.6545454545454" stroke="#000000" stroke-width="1.1111111111111112" />
<line x1="55.138888888888886" y1="358.5076923076923" x2="60.4" y2="358.5076923076923" stroke="#000000" stroke-width="1.1111111111111112" />
<line x1="55.138888888888886" y1="345.93426573426575" x2="60.4" y2="345.93426573426575" stroke="#000000" stroke-width="1.1111111111111112" />
<line x1="55.138888888888886" y1="333.3608391608392" x2="60.4" y2="333.3608391608392" stroke="#000000" stroke-width="1.1111111111111112" />
<line x1="55.138888888888886" y1="320.78741258741263" x2="60.4" y2="320.78741258741263" stroke="#000000" stroke-width="1.1111111111111112" />
<line x1="55.138888888888886" y1="295.6405594405594" x2="60.4" y2="295.6405594405594" stroke="#000000" stroke-width="1.1111111111111112" />
<line x1="55.138888888888886" y1="283.06713286713284" x2="60.4" y2="283.06713286713284" stroke="#000000" stroke-width="1.1111111111111112" />
<line x1="55.138888888888886" y1="270.4937062937063" x2="60.4" y2="270.4937062937063" stroke="#000000" stroke-width="1.1111111111111112" />
<line x1="55.138888888888886" y1="257.9202797202797" x2="60.4" y2="257.9202797202797" stroke="#000000" stroke-width="1.1111111111111112" />
<line x1="55.138888888888886" y1="232.77342657342655" x2="60.4" y2="232.77342657342655" stroke="#000000" stroke-width="1.1111111111111112" />
<line x1="55.138888888888886" y1="220.2" x2="60.4" y2="220.2" stroke="#000000" stroke-width="1.1111111111111112" />
<line x1="55.138888888888886" y1="207.62657342657343" x2="60.4" y2="207.62657342657343" stroke="#000000" stroke-width="1.1111111111111112" />
<line x1="55.138888888888886" y1="195.05314685314687" x2="60.4" y2="195.05314685314687" stroke="#000000" stroke-width="1.1111111111111112" />
<line x1="55.138888888888886" y1="169.9062937062937" x2="60.4" y2="169.9062937062937" stroke="#000000" stroke-width="1.1111111111111112" />
<line x1="55.138888888888886" y1="157.33286713286708" x2="60.4" y2="157.33286713286708" stroke="#000000" stroke-width="1.1111111111111112" />
<line x1="55.138888888888886" y1="144.75944055944058" x2="60.4" y2="144.75944055944058" stroke="#000000" stroke-width="1.1111111111111112" />
<line x1="55.138888888888886" y1="132.18601398601396" x2="60.4" y2="132.18601398601396" stroke="#000000" stroke-width="1.1111111111111112" />
<line x1="55.138888888888886" y1="107.03916083916079" x2="60.4" y2="107.03916083916079" stroke="#000000" stroke-width="1.1111111111111112" />
<line x1="55.138888888888886" y1="94.46573426573423" x2="60.4" y2="94.46573426573423" stroke="#000000" stroke-width="1.1111111111111112" />
<line x1="55.138888888888886" y1="81.89230769230767" x2="60.4" y2="81.89230769230767" stroke="#000000" stroke-width="1.1111111111111112" />
<line x1="55.138888888888886" y1="69.31888111888111" x2="60.4" y2="69.31888111888111" stroke="#000000" stroke-width="1.1111111111111112" />
<line x1="55.138888888888886" y1="44.172027972027934" x2="60.4" y2="44.172027972027934" stroke="#000000" stroke-width="1.1111111111111112" />
<g class="series" aria-label="Revenue">
<polyline points="97.27272727272727,345.93426573426575 165.04132231404958,308.213986013986 232.80991735537185,333.36083916083913 300.5785123966942,270.4937062937063 368.34710743801645,232.77342657342655 436.1157024793388,245.34685314685314 503.88429752066105,195.05314685314684 571.6528925619833,157.33286713286708 639.4214876033056,182.47972027972025 707.190082644628,119.61258741258739 774.9586776859503,94.46573426573421 842.7272727272725,56.745454545454514" fill="none" stroke="#E69F00" stroke-width="2.5" />
</g>
<g class="series" aria-label="Cost">
<polyline points="97.27272727272727,383.6545454545454 165.04132231404958,358.5076923076923 232.80991735537185,371.08111888111887 300.5785123966942,333.36083916083913 368.34710743801645,308.213986013986 436.1157024793388,320.7874125874126 503.88429752066105,295.6405594405594 571.6528925619833,257.9202797202797 639.4214876033056,270.4937062937063 707.190082644628,232.77342657342655 774.9586776859503,220.19999999999996 842.7272727272725,195.05314685314684" fill="none" stroke="#56B4E9" stroke-width="2.5" stroke-dasharray="5,2" />
</g>
<g class="spine">
<line x1="60" y1="400" x2="880" y2="400" stroke="#000000" stroke-width="0.8" />
</g>
<g class="spine">
<line x1="60" y1="40.4" x2="880" y2="40.4" stroke="#000000" stroke-width="0.8" />
</g>
<g class="spine">
<line x1="60" y1="40.4" x2="60" y2="400" stroke="#000000" stroke-width="0.8" />
</g>
<g class="spine">
<line x1="880" y1="40.4" x2="880" y2="400" stroke="#000000" stroke-width="0.8" />
</g>
<rect x="70" y="50.4" width="104.92000000000002" height="40.7" fill="#FFFFFF" fill-opacity="0.8" stroke="#CCCCCC" stroke-width="0.5" />
<g class="legend" aria-label="Chart legend">
<line x1="78" y1="62.949999999999996" x2="104" y2="62.949999999999996" stroke="#E69F00" stroke-width="2.5" />
<text x="114.4" y="66.5" font-family="sans-serif" font-size="13" text-anchor="start" fill="#000000">Revenue</text>
<line x1="78" y1="78.55" x2="104" y2="78.55" stroke="#56B4E9" stroke-width="2.5" stroke-dasharray="5,2" />
<text x="114.4" y="82.1" font-family="sans-serif" font-size="13" text-anchor="start" fill="#000000">Cost</text>
</g>
<text x="470" y="435" font-family="sans-serif" font-size="13" text-anchor="middle" fill="#000000">Month</text>
<text x="18.77777777777778" y="220.20000000000002" font-family="sans-serif" font-size="13" text-anchor="middle" transform="rotate(-90,18.77777777777778,220.20000000000002)" fill="#000000">$ M</text>
</svg>
