<svg xmlns="http://www.w3.org/2000/svg" viewBox="0 0 900 450" width="900" height="450" role="img" aria-labelledby="chart-title">
<title id="chart-title">High-contrast line chart showing monthly revenue for 2025</title>
<rect x="0" y="0" width="900" height="450" fill="#FFFFFF" />
<text x="450" y="23.299999999999997" font-family="sans-serif" font-size="17" text-anchor="middle" font-weight="bold" fill="#000000">High-Contrast: Revenue Trend</text>
<rect x="60" y="40.4" width="820" height="359.6" fill="#FFFFFF" />
<line x1="97.27272727272727" y1="40.4" x2="97.27272727272727" y2="400" stroke="#666666" stroke-width="1.5" />
<line x1="232.80991735537185" y1="40.4" x2="232.80991735537185" y2="400" stroke="#666666" stroke-width="1.5" />
<line x1="368.34710743801645" y1="40.4" x2="368.34710743801645" y2="400" stroke="#666666" stroke-width="1.5" />
<line x1="503.88429752066105" y1="40.4" x2="503.88429752066105" y2="400" stroke="#666666" stroke-width="1.5" />
<line x1="639.4214876033056" y1="40.4" x2="639.4214876033056" y2="400" stroke="#666666" stroke-width="1.5" />
<line x1="774.9586776859503" y1="40.4" x2="774.9586776859503" y2="400" stroke="#666666" stroke-width="1.5" />
<line x1="60" y1="383.6545454545454" x2="880" y2="383.6545454545454" stroke="#666666" stroke-width="1.5" />
<line x1="60" y1="355.2276679841897" x2="880" y2="355.2276679841897" stroke="#666666" stroke-width="1.5" />
<line x1="60" y1="326.80079051383393" x2="880" y2="326.80079051383393" stroke="#666666" stroke-width="1.5" />
<line x1="60" y1="298.3739130434782" x2="880" y2="298.3739130434782" stroke="#666666" stroke-width="1.5" />
<line x1="60" y1="269.9470355731225" x2="880" y2="269.9470355731225" stroke="#666666" stroke-width="1.5" />
<line x1="60" y1="241.52015810276674" x2="880" y2="241.52015810276674" stroke="#666666" stroke-width="1.5" />
<line x1="60" y1="213.09328063241105" x2="880" y2="213.09328063241105" stroke="#666666" stroke-width="1.5" />
<line x1="60" y1="184.6664031620553" x2="880" y2="184.6664031620553" stroke="#666666" stroke-width="1.5" />
<line x1="60" y1="156.2395256916996" x2="880" y2="156.2395256916996" stroke="#666666" stroke-width="1.5" />
<line x1="60" y1="127.8126482213438" x2="880" y2="127.8126482213438" stroke="#666666" stroke-width="1.5" />
<line x1="60" y1="99.38577075098806" x2="880" y2="99.38577075098806" stroke="#666666" stroke-width="1.5" />
<line x1="60" y1="70.95889328063237" x2="880" y2="70.95889328063237" stroke="#666666" stroke-width="1.5" />
<line x1="60" y1="42.53201581027662" x2="880" y2="42.53201581027662" stroke="#666666" stroke-width="1.5" />
<line x1="97.27272727272727" y1="399.6" x2="97.27272727272727" y2="404.8611111111111" stroke="#000000" stroke-width="1.1111111111111112" />
<text x="97.27272727272727" y="422.7222222222222" font-family="sans-serif" font-size="13" text-anchor="middle" fill="#000000">0</text>
<line x1="232.80991735537185" y1="399.6" x2="232.80991735537185" y2="404.8611111111111" stroke="#000000" stroke-width="1.1111111111111112" />
<text x="232.80991735537185" y="422.7222222222222" font-family="sans-serif" font-size="13" text-anchor="middle" fill="#000000">2</text>
<line x1="368.34710743801645" y1="399.6" x2="368.34710743801645" y2="404.8611111111111" stroke="#000000" stroke-width="1.1111111111111112" />
<text x="368.34710743801645" y="422.7222222222222" font-family="sans-serif" font-size="13" text-anchor="middle" fill="#000000">4</text>
<line x1="503.88429752066105" y1="399.6" x2="503.88429752066105" y2="404.8611111111111" stroke="#000000" stroke-width="1.1111111111111112" />
<text x="503.88429752066105" y="422.7222222222222" font-family="sans-serif" font-size="13" text-anchor="middle" fill="#000000">6</text>
<line x1="639.4214876033056" y1="399.6" x2="639.4214876033056" y2="404.8611111111111" stroke="#000000" stroke-width="1.1111111111111112" />
<text x="639.4214876033056" y="422.7222222222222" font-family="sans-serif" font-size="13" text-anchor="middle" fill="#000000">8</text>
<line x1="774.9586776859503" y1="399.6" x2="774.9586776859503" y2="404.8611111111111" stroke="#000000" stroke-width="1.1111111111111112" />
<text x="774.9586776859503" y="422.7222222222222" font-family="sans-serif" font-size="13" text-anchor="middle" fill="#000000">10</text>
<line x1="70.16528925619835" y1="399.6" x2="70.16528925619835" y2="404.8611111111111" stroke="#000000" stroke-width="1.1111111111111112" />
<line x1="124.38016528925618" y1="399.6" x2="124.38016528925618" y2="404.8611111111111" stroke="#000000" stroke-width="1.1111111111111112" />
<line x1="151.48760330578511" y1="399.6" x2="151.48760330578511" y2="404.8611111111111" stroke="#000000" stroke-width="1.1111111111111112" />
<line x1="178.59504132231402" y1="399.6" x2="178.59504132231402" y2="404.8611111111111" stroke="#000000" stroke-width="1.1111111111111112" />
<line x1="205.70247933884295" y1="399.6" x2="205.70247933884295" y2="404.8611111111111" stroke="#000000" stroke-width="1.1111111111111112" />
<line x1="259.9173553719008" y1="399.6" x2="259.9173553719008" y2="404.8611111111111" stroke="#000000" stroke-width="1.1111111111111112" />
<line x1="287.0247933884297" y1="399.6" x2="287.0247933884297" y2="404.8611111111111" stroke="#000000" stroke-width="1.1111111111111112" />
<line x1="314.13223140495865" y1="399.6" x2="314.13223140495865" y2="404.8611111111111" stroke="#000000" stroke-width="1.1111111111111112" />
<line x1="341.2396694214876" y1="399.6" x2="341.2396694214876" y2="404.8611111111111" stroke="#000000" stroke-width="1.1111111111111112" />
<line x1="395.4545454545454" y1="399.6" x2="395.4545454545454" y2="404.8611111111111" stroke="#000000" stroke-width="1.1111111111111112" />
<line x1="422.56198347107426" y1="399.6" x2="422.56198347107426" y2="404.8611111111111" stroke="#000000" stroke-width="1.1111111111111112" />
<line x1="449.66942148760324" y1="399.6" x2="449.66942148760324" y2="404.8611111111111" stroke="#000000" stroke-width="1.1111111111111112" />
<line x1="476.7768595041321" y1="399.6" x2="476.7768595041321" y2="404.8611111111111" stroke="#000000" stroke-width="1.1111111111111112" />
<line x1="530.99173553719" y1="399.6" x2="530.99173553719" y2="404.8611111111111" stroke="#000000" stroke-width="1.1111111111111112" />
<line x1="558.0991735537189" y1="399.6" x2="558.0991735537189" y2="404.8611111111111" stroke="#000000" stroke-width="1.1111111111111112" />
<line x1="585.2066115702479" y1="399.6" x2="585.2066115702479" y2="404.8611111111111" stroke="#000000" stroke-width="1.1111111111111112" />
<line x1="612.3140495867767" y1="399.6" x2="612.3140495867767" y2="404.8611111111111" stroke="#000000" stroke-width="1.1111111111111112" />
<line x1="666.5289256198346" y1="399.6" x2="666.5289256198346" y2="404.8611111111111" stroke="#000000" stroke-width="1.1111111111111112" />
<line x1="693.6363636363635" y1="399.6" x2="693.6363636363635" y2="404.8611111111111" stroke="#000000" stroke-width="1.1111111111111112" />
<line x1="720.7438016528923" y1="399.6" x2="720.7438016528923" y2="404.8611111111111" stroke="#000000" stroke-width="1.1111111111111112" />
<line x1="747.8512396694213" y1="399.6" x2="747.8512396694213" y2="404.8611111111111" stroke="#000000" stroke-width="1.1111111111111112" />
<line x1="802.0661157024792" y1="399.6" x2="802.0661157024792" y2="404.8611111111111" stroke="#000000" stroke-width="1.1111111111111112" />
<line x1="829.1735537190082" y1="399.6" x2="829.1735537190082" y2="404.8611111111111" stroke="#000000" stroke-width="1.1111111111111112" />
<line x1="856.280991735537" y1="399.6" x2="856.280991735537" y2="404.8611111111111" stroke="#000000" stroke-width="1.1111111111111112" />
<line x1="55.138888888888886" y1="383.6545454545454" x2="60.4" y2="383.6545454545454" stroke="#000000" stroke-width="1.1111111111111112" />
<text x="50.27777777777777" y="387.6545454545454" font-family="sans-serif" font-size="13" text-anchor="end" fill="#000000">1.2</text>
<line x1="55.138888888888886" y1="355.2276679841897" x2="60.4" y2="355.2276679841897" stroke="#000000" stroke-width="1.1111111111111112" />
<text x="50.27777777777777" y="359.2276679841897" font-family="sans-serif" font-size="13" text-anchor="end" fill="#000000">1.4</text>
<line x1="55.138888888888886" y1="326.80079051383393" x2="60.4" y2="326.80079051383393" stroke="#000000" stroke-width="1.1111111111111112" />
<text x="50.27777777777777" y="330.80079051383393" font-family="sans-serif" font-size="13" text-anchor="end" fill="#000000">1.6</text>
<line x1="55.138888888888886" y1="298.3739130434782" x2="60.4" y2="298.3739130434782" stroke="#000000" stroke-width="1.1111111111111112" />
<text x="50.27777777777777" y="302.3739130434782" font-family="sans-serif" font-size="13" text-anchor="end" fill="#000000">1.8</text>
<line x1="55.138888888888886" y1="269.9470355731225" x2="60.4" y2="269.9470355731225" stroke="#000000" stroke-width="1.1111111111111112" />
<text x="50.27777777777777" y="273.9470355731225" font-family="sans-serif" font-size="13" text-anchor="end" fill="#000000">2</text>
<line x1="55.138888888888886" y1="241.52015810276674" x2="60.4" y2="241.52015810276674" stroke="#000000" stroke-width="1.1111111111111112" />
<text x="50.27777777777777" y="245.52015810276674" font-family="sans-serif" font-size="13" text-anchor="end" fill="#000000">2.2</text>
<line x1="55.138888888888886" y1="213.09328063241105" x2="60.4" y2="213.09328063241105" stroke="#000000" stroke-width="1.1111111111111112" />
<text x="50.27777777777777" y="217.09328063241105" font-family="sans-serif" font-size="13" text-anchor="end" fill="#000000">2.4</text>
<line x1="55.138888888888886" y1="184.6664031620553" x2="60.4" y2="184.6664031620553" stroke="#000000" stroke-width="1.1111111111111112" />
<text x="50.27777777777777" y="188.6664031620553" font-family="sans-serif" font-size="13" text-anchor="end" fill="#000000">2.6</text>
<line x1="55.138888888888886" y1="156.2395256916996" x2="60.4" y2="156.2395256916996" stroke="#000000" stroke-width="1.1111111111111112" />
<text x="50.27777777777777" y="160.2395256916996" font-family="sans-serif" font-size="13" text-anchor="end" fill="#000000">2.8</text>
<line x1="55.138888888888886" y1="127.8126482213438" x2="60.4" y2="127.8126482213438" stroke="#000000" stroke-width="1.1111111111111112" />
<text x="50.27777777777777" y="131.8126482213438" font-family="sans-serif" font-size="13" text-anchor="end" fill="#000000">3</text>
<line x1="55.138888888888886" y1="99.38577075098806" x2="60.4" y2="99.38577075098806" stroke="#000000" stroke-width="1.1111111111111112" />
<text x="50.27777777777777" y="103.38577075098806" font-family="sans-serif" font-size="13" text-anchor="end" fill="#000000">3.2</text>
<line x1="55.138888888888886" y1="70.95889328063237" x2="60.4" y2="70.95889328063237" stroke="#000000" stroke-width="1.1111111111111112" />
<text x="50.27777777777777" y="74.95889328063237" font-family="sans-serif" font-size="13" text-anchor="end" fill="#000000">3.4</text>
<line x1="55.138888888888886" y1="42.53201581027662" x2="60.4" y2="42.53201581027662" stroke="#000000" stroke-width="1.1111111111111112" />
<text x="50.27777777777777" y="46.53201581027662" font-family="sans-serif" font-size="13" text-anchor="end" fill="#000000">3.6</text>
<line x1="55.138888888888886" y1="395.0252964426877" x2="60.4" y2="395.0252964426877" stroke="#000000" stroke-width="1.1111111111111112" />
<line x1="55.138888888888886" y1="389.33992094861657" x2="60.4" y2="389.33992094861657" stroke="#000000" stroke-width="1.1111111111111112" />
<line x1="55.138888888888886" y1="377.96916996047423" x2="60.4" y2="377.96916996047423" stroke="#000000" stroke-width="1.1111111111111112" />
<line x1="55.138888888888886" y1="372.28379446640315" x2="60.4" y2="372.28379446640315" stroke="#000000" stroke-width="1.1111111111111112" />
<line x1="55.138888888888886" y1="366.59841897233196" x2="60.4" y2="366.59841897233196" stroke="#000000" stroke-width="1.1111111111111112" />
<line x1="55.138888888888886" y1="360.9130434782608" x2="60.4" y2="360.9130434782608" stroke="#000000" stroke-width="1.1111111111111112" />
<line x1="55.138888888888886" y1="349.54229249011854" x2="60.4" y2="349.54229249011854" stroke="#000000" stroke-width="1.1111111111111112" />
<line x1="55.138888888888886" y1="343.8569169960474" x2="60.4" y2="343.8569169960474" stroke="#000000" stroke-width="1.1111111111111112" />
<line x1="55.138888888888886" y1="338.1715415019762" x2="60.4" y2="338.1715415019762" stroke="#000000" stroke-width="1.1111111111111112" />
<line x1="55.138888888888886" y1="332.4861660079051" x2="60.4" y2="332.4861660079051" stroke="#000000" stroke-width="1.1111111111111112" />
<line x1="55.138888888888886" y1="321.11541501976285" x2="60.4" y2="321.11541501976285" stroke="#000000" stroke-width="1.1111111111111112" />
<line x1="55.138888888888886" y1="315.43003952569165" x2="60.4" y2="315.43003952569165" stroke="#000000" stroke-width="1.1111111111111112" />
<line x1="55.138888888888886" y1="309.7446640316205" x2="60.4" y2="309.7446640316205" stroke="#000000" stroke-width="1.1111111111111112" />
<line x1="55.138888888888886" y1="304.0592885375494" x2="60.4" y2="304.0592885375494" stroke="#000000" stroke-width="1.1111111111111112" />
<line x1="55.138888888888886" y1="292.68853754940704" x2="60.4" y2="292.68853754940704" stroke="#000000" stroke-width="1.1111111111111112" />
<line x1="55.138888888888886" y1="287.00316205533596" x2="60.4" y2="287.00316205533596" stroke="#000000" stroke-width="1.1111111111111112" />
<line x1="55.138888888888886" y1="281.31778656126477" x2="60.4" y2="281.31778656126477" stroke="#000000" stroke-width="1.1111111111111112" />
<line x1="55.138888888888886" y1="275.63241106719363" x2="60.4" y2="275.63241106719363" stroke="#000000" stroke-width="1.1111111111111112" />
<line x1="55.138888888888886" y1="264.26166007905135" x2="60.4" y2="264.26166007905135" stroke="#000000" stroke-width="1.1111111111111112" />
<line x1="55.138888888888886" y1="258.5762845849802" x2="60.4" y2="258.5762845849802" stroke="#000000" stroke-width="1.1111111111111112" />
<line x1="55.138888888888886" y1="252.89090909090902" x2="60.4" y2="252.89090909090902" stroke="#000000" stroke-width="1.1111111111111112" />
<line x1="55.138888888888886" y1="247.20553359683788" x2="60.4" y2="247.20553359683788" stroke="#000000" stroke-width="1.1111111111111112" />
<line x1="55.138888888888886" y1="235.8347826086956" x2="60.4" y2="235.8347826086956" stroke="#000000" stroke-width="1.1111111111111112" />
<line x1="55.138888888888886" y1="230.14940711462452" x2="60.4" y2="230.14940711462452" stroke="#000000" stroke-width="1.1111111111111112" />
<line x1="55.138888888888886" y1="224.46403162055333" x2="60.4" y2="224.46403162055333" stroke="#000000" stroke-width="1.1111111111111112" />
<line x1="55.138888888888886" y1="218.7786561264822" x2="60.4" y2="218.7786561264822" stroke="#000000" stroke-width="1.1111111111111112" />
<line x1="55.138888888888886" y1="207.4079051383399" x2="60.4" y2="207.4079051383399" stroke="#000000" stroke-width="1.1111111111111112" />
<line x1="55.138888888888886" y1="201.72252964426872" x2="60.4" y2="201.72252964426872" stroke="#000000" stroke-width="1.1111111111111112" />
<line x1="55.138888888888886" y1="196.03715415019758" x2="60.4" y2="196.03715415019758" stroke="#000000" stroke-width="1.1111111111111112" />
<line x1="55.138888888888886" y1="190.35177865612644" x2="60.4" y2="190.35177865612644" stroke="#000000" stroke-width="1.1111111111111112" />
<line x1="55.138888888888886" y1="178.9810276679841" x2="60.4" y2="178.9810276679841" stroke="#000000" stroke-width="1.1111111111111112" />
<line x1="55.138888888888886" y1="173.29565217391297" x2="60.4" y2="173.29565217391297" stroke="#000000" stroke-width="1.1111111111111112" />
<line x1="55.138888888888886" y1="167.61027667984183" x2="60.4" y2="167.61027667984183" stroke="#000000" stroke-width="1.1111111111111112" />
<line x1="55.138888888888886" y1="161.92490118577075" x2="60.4" y2="161.92490118577075" stroke="#000000" stroke-width="1.1111111111111112" />
<line x1="55.138888888888886" y1="150.55415019762842" x2="60.4" y2="150.55415019762842" stroke="#000000" stroke-width="1.1111111111111112" />
<line x1="55.138888888888886" y1="144.86877470355728" x2="60.4" y2="144.86877470355728" stroke="#000000" stroke-width="1.1111111111111112" />
<line x1="55.138888888888886" y1="139.18339920948614" x2="60.4" y2="139.18339920948614" stroke="#000000" stroke-width="1.1111111111111112" />
<line x1="55.138888888888886" y1="133.498023715415" x2="60.4" y2="133.498023715415" stroke="#000000" stroke-width="1.1111111111111112" />
<line x1="55.138888888888886" y1="122.12727272727267" x2="60.4" y2="122.12727272727267" stroke="#000000" stroke-width="1.1111111111111112" />
<line x1="55.138888888888886" y1="116.44189723320153" x2="60.4" y2="116.44189723320153" stroke="#000000" stroke-width="1.1111111111111112" />
<line x1="55.138888888888886" y1="110.75652173913039" x2="60.4" y2="110.75652173913039" stroke="#000000" stroke-width="1.1111111111111112" />
<line x1="55.138888888888886" y1="105.07114624505925" x2="60.4" y2="105.07114624505925" stroke="#000000" stroke-width="1.1111111111111112" />
<line x1="55.138888888888886" y1="93.70039525691692" x2="60.4" y2="93.70039525691692" stroke="#000000" stroke-width="1.1111111111111112" />
<line x1="55.138888888888886" y1="88.01501976284584" x2="60.4" y2="88.01501976284584" stroke="#000000" stroke-width="1.1111111111111112" />
<line x1="55.138888888888886" y1="82.3296442687747" x2="60.4" y2="82.3296442687747" stroke="#000000" stroke-width="1.1111111111111112" />
<line x1="55.138888888888886" y1="76.64426877470356" x2="60.4" y2="76.64426877470356" stroke="#000000" stroke-width="1.1111111111111112" />
<line x1="55.138888888888886" y1="65.27351778656123" x2="60.4" y2="65.27351778656123" stroke="#000000" stroke-width="1.1111111111111112" />
<line x1="55.138888888888886" y1="59.58814229249009" x2="60.4" y2="59.58814229249009" stroke="#000000" stroke-width="1.1111111111111112" />
<line x1="55.138888888888886" y1="53.90276679841895" x2="60.4" y2="53.90276679841895" stroke="#000000" stroke-width="1.1111111111111112" />
<line x1="55.138888888888886" y1="48.21739130434776" x2="60.4" y2="48.21739130434776" stroke="#000000" stroke-width="1.1111111111111112" />
<g class="series" aria-label="Revenue">
<polyline points="97.27272727272727,383.6545454545454 165.04132231404958,341.0142292490118 232.80991735537185,369.44110671936755 300.5785123966942,298.37391304347824 368.34710743801645,255.73359683794462 436.1157024793388,269.9470355731225 503.88429752066105,213.09328063241105 571.6528925619833,170.4529644268774 639.4214876033056,198.87984189723318 707.190082644628,127.81264822134384 774.9586776859503,99.38577075098807 842.7272727272725,56.74545454545451" fill="none" stroke="#0000FF" stroke-width="3" />
</g>
<g class="spine">
<line x1="60" y1="400" x2="880" y2="400" stroke="#000000" stroke-width="0.8" />
</g>
<g class="spine">
<line x1="60" y1="40.4" x2="880" y2="40.4" stroke="#000000" stroke-width="0.8" />
</g>
<g class="spine">
<line x1="60" y1="40.4" x2="60" y2="400" stroke="#000000" stroke-width="0.8" />
</g>
<g class="spine">
<line x1="880" y1="40.4" x2="880" y2="400" stroke="#000000" stroke-width="0.8" />
</g>
<rect x="70" y="50.4" width="104.92000000000002" height="25.1" fill="#FFFFFF" fill-opacity="0.8" stroke="#CCCCCC" stroke-width="0.5" />
<g class="legend" aria-label="Chart legend">
<line x1="78" y1="62.949999999999996" x2="104" y2="62.949999999999996" stroke="#0000FF" stroke-width="3" />
<text x="114.4" y="66.5" font-family="sans-serif" font-size="13" text-anchor="start" fill="#000000">Revenue</text>
</g>
<text x="470" y="435" font-family="sans-serif" font-size="13" text-anchor="middle" fill="#000000">Month</text>
<text x="18.77777777777778" y="220.20000000000002" font-family="sans-serif" font-size="13" text-anchor="middle" transform="rotate(-90,18.77777777777778,220.20000000000002)" fill="#000000">$ M</text>
</svg>
