<svg xmlns="http://www.w3.org/2000/svg" viewBox="0 0 800 600" width="800" height="600" style="width:100%;height:auto" role="img" aria-labelledby="chart-title">
<title id="chart-title"></title>
<rect x="0" y="0" width="800" height="600" fill="#FFFFFF" />
<rect x="100" y="72" width="620" height="462" fill="#FFFFFF" />
<line x1="100" y1="533.6" x2="100" y2="538.8611111111111" stroke="#262626" stroke-width="1.1111111111111112" />
<path d="M4.41488 -9.22309Q3.35693 -9.22309 2.82457 -8.1821Q2.29221 -7.14111 2.29221 -5.05235Q2.29221 -2.97038 2.82457 -1.92939Q3.35693 -0.888401 4.41488 -0.888401Q5.4796 -0.888401 6.01196 -1.92939Q6.54433 -2.97038 6.54433 -5.05235Q6.54433 -7.14111 6.01196 -8.1821Q5.4796 -9.22309 4.41488 -9.22309ZM4.41488 -10.3082Q6.11708 -10.3082 7.01565 -8.962Q7.91422 -7.61583 7.91423 -5.05235Q7.91423 -2.49566 7.01565 -1.1495Q6.11708 0.196669 4.41488 0.196669Q2.71267 0.196669 1.8141 -1.1495Q0.915527 -2.49566 0.915527 -5.05235Q0.915527 -7.61583 1.8141 -8.962Q2.71267 -10.3082 4.41488 -10.3082Z" fill="#262626" transform="translate(100,557.6111111111111) translate(-4.418267250061035,0)" />
<line x1="159.33014354066987" y1="533.6" x2="159.33014354066987" y2="538.8611111111111" stroke="#262626" stroke-width="1.1111111111111112" />
<path d="M1.72255 -1.15289L3.9605 -1.15289L3.9605 -8.87722L1.52588 -8.38894L1.52588 -9.63677L3.94694 -10.1251L5.31684 -10.1251L5.31684 -1.15289L7.5548 -1.15289L7.5548 0L1.72255 0L1.72255 -1.15289Z" fill="#262626" transform="translate(159.33014354066987,557.6111111111111) translate(-4.418267250061035,0)" />
<line x1="218.66028708133973" y1="533.6" x2="218.66028708133973" y2="538.8611111111111" stroke="#262626" stroke-width="1.1111111111111112" />
<path d="M2.6652 -1.15289L7.44629 -1.15289L7.44629 0L1.01725 0L1.01725 -1.15289Q1.79715 -1.95991 3.14331 -3.31963Q4.48947 -4.67936 4.83534 -5.0727Q5.49316 -5.8119 5.75426 -6.32392Q6.01535 -6.83594 6.01535 -7.331Q6.01535 -8.13802 5.44908 -8.64665Q4.88281 -9.15527 3.97407 -9.15527Q3.32981 -9.15527 2.61434 -8.93148Q1.89887 -8.70768 1.08507 -8.25331L1.08507 -9.63677Q1.91243 -9.96908 2.63129 -10.1386Q3.35015 -10.3082 3.94694 -10.3082Q5.52029 -10.3082 6.45616 -9.52148Q7.39204 -8.73481 7.39204 -7.41916Q7.39204 -6.79525 7.15807 -6.23576Q6.9241 -5.67627 6.30697 -4.91672Q6.13742 -4.72005 5.22868 -3.78079Q4.31993 -2.84153 2.6652 -1.15289Z" fill="#262626" transform="translate(218.66028708133973,557.6111111111111) translate(-4.418267250061035,0)" />
<line x1="277.99043062200957" y1="533.6" x2="277.99043062200957" y2="538.8611111111111" stroke="#262626" stroke-width="1.1111111111111112" />
<path d="M5.63558 -5.45926Q6.61892 -5.24902 7.17163 -4.58442Q7.72434 -3.91981 7.72434 -2.94325Q7.72434 -1.4445 6.69352 -0.623915Q5.66271 0.196669 3.76383 0.196669Q3.12636 0.196669 2.45158 0.0712077Q1.7768 -0.0542535 1.05794 -0.305176L1.05794 -1.6276Q1.6276 -1.2953 2.30577 -1.12576Q2.98394 -0.956217 3.72314 -0.956217Q5.01166 -0.956217 5.68644 -1.46484Q6.36122 -1.97347 6.36122 -2.94325Q6.36122 -3.83843 5.73391 -4.34367Q5.10661 -4.8489 3.98763 -4.8489L2.80762 -4.8489L2.80762 -5.97466L4.04188 -5.97466Q5.05235 -5.97466 5.58811 -6.37817Q6.12386 -6.78168 6.12386 -7.54123Q6.12386 -8.32113 5.57115 -8.7382Q5.01845 -9.15527 3.98763 -9.15527Q3.42475 -9.15527 2.78049 -9.0332Q2.13623 -8.91113 1.36312 -8.65343L1.36312 -9.87413Q2.14301 -10.0911 2.82457 -10.1997Q3.50613 -10.3082 4.1097 -10.3082Q5.66949 -10.3082 6.57823 -9.59947Q7.48698 -8.89079 7.48698 -7.68365Q7.48698 -6.84272 7.00548 -6.26289Q6.52398 -5.68305 5.63558 -5.45926Z" fill="#262626" transform="translate(277.99043062200957,557.6111111111111) translate(-4.418267250061035,0)" />
<line x1="337.32057416267946" y1="533.6" x2="337.32057416267946" y2="538.8611111111111" stroke="#262626" stroke-width="1.1111111111111112" />
<path d="M5.24902 -8.93148L1.79036 -3.52648L5.24902 -3.52648L5.24902 -8.93148ZM4.88959 -10.1251L6.61214 -10.1251L6.61214 -3.52648L8.05664 -3.52648L8.05664 -2.38715L6.61214 -2.38715L6.61214 0L5.24902 0L5.24902 -2.38715L0.678168 -2.38715L0.678168 -3.70958L4.88959 -10.1251Z" fill="#262626" transform="translate(337.32057416267946,557.6111111111111) translate(-4.418267250061035,0)" />
<line x1="396.6507177033493" y1="533.6" x2="396.6507177033493" y2="538.8611111111111" stroke="#262626" stroke-width="1.1111111111111112" />
<path d="M1.49875 -10.1251L6.87663 -10.1251L6.87663 -8.97217L2.75336 -8.97217L2.75336 -6.49007Q3.05176 -6.5918 3.35015 -6.64266Q3.64855 -6.69352 3.94694 -6.69352Q5.64236 -6.69352 6.63249 -5.76443Q7.62261 -4.83534 7.62261 -3.24843Q7.62261 -1.61404 6.60536 -0.708686Q5.58811 0.196669 3.73671 0.196669Q3.09923 0.196669 2.43802 0.0881619C1.99721 0.0158239 1.5417 -0.092683 1.07151 -0.237359L1.07151 -1.61404Q1.68186 -1.28174 2.3329 -1.11898Q2.98394 -0.956217 3.70958 -0.956217Q4.88281 -0.956217 5.56776 -1.57335Q6.25271 -2.19048 6.25271 -3.24843Q6.25271 -4.30637 5.56776 -4.9235Q4.88281 -5.54064 3.70958 -5.54064Q3.16026 -5.54064 2.61434 -5.41857Q2.06841 -5.2965 1.49875 -5.03879L1.49875 -10.1251Z" fill="#262626" transform="translate(396.6507177033493,557.6111111111111) translate(-4.418267250061035,0)" />
<line x1="455.98086124401914" y1="533.6" x2="455.98086124401914" y2="538.8611111111111" stroke="#262626" stroke-width="1.1111111111111112" />
<path d="M4.58442 -5.60845Q3.66211 -5.60845 3.12297 -4.97776Q2.58382 -4.34706 2.58382 -3.24843Q2.58382 -2.15658 3.12297 -1.52249Q3.66211 -0.888401 4.58442 -0.888401Q5.50673 -0.888401 6.04587 -1.52249Q6.58502 -2.15658 6.58502 -3.24843Q6.58502 -4.34706 6.04587 -4.97776Q5.50673 -5.60845 4.58442 -5.60845ZM7.30387 -9.90126L7.30387 -8.65343Q6.78847 -8.89757 6.26289 -9.02642Q5.7373 -9.15527 5.2219 -9.15527Q3.86556 -9.15527 3.15009 -8.23975Q2.43462 -7.32422 2.3329 -5.47282Q2.73302 -6.06282 3.33659 -6.37817Q3.94016 -6.69352 4.6658 -6.69352Q6.19168 -6.69352 7.07669 -5.76782Q7.9617 -4.84212 7.9617 -3.24843Q7.9617 -1.68864 7.03939 -0.745985Q6.11708 0.196669 4.58442 0.196669Q2.82796 0.196669 1.89887 -1.1495Q0.969781 -2.49566 0.969781 -5.05235Q0.969781 -7.45307 2.1091 -8.88062Q3.24843 -10.3082 5.16764 -10.3082Q5.68305 -10.3082 6.20863 -10.2064Q6.73421 -10.1047 7.30387 -9.90126Z" fill="#262626" transform="translate(455.98086124401914,557.6111111111111) translate(-4.418267250061035,0)" />
<line x1="515.311004784689" y1="533.6" x2="515.311004784689" y2="538.8611111111111" stroke="#262626" stroke-width="1.1111111111111112" />
<path d="M1.13932 -10.1251L7.64974 -10.1251L7.64974 -9.54183L3.97407 0L2.54313 0L6.00179 -8.97217L1.13932 -8.97217L1.13932 -10.1251Z" fill="#262626" transform="translate(515.311004784689,557.6111111111111) translate(-4.418267250061035,0)" />
<line x1="574.6411483253589" y1="533.6" x2="574.6411483253589" y2="538.8611111111111" stroke="#262626" stroke-width="1.1111111111111112" />
<path d="M4.41488 -4.80821Q3.43831 -4.80821 2.87882 -4.28602Q2.31934 -3.76383 2.31934 -2.84831Q2.31934 -1.93278 2.87882 -1.41059Q3.43831 -0.888401 4.41488 -0.888401Q5.39144 -0.888401 5.95432 -1.41398Q6.5172 -1.93956 6.5172 -2.84831Q6.5172 -3.76383 5.95771 -4.28602Q5.39822 -4.80821 4.41488 -4.80821ZM3.04498 -5.39144Q2.16336 -5.60845 1.67169 -6.21202Q1.18001 -6.81559 1.18001 -7.68365Q1.18001 -8.89757 2.04468 -9.60287Q2.90934 -10.3082 4.41488 -10.3082Q5.92719 -10.3082 6.78847 -9.60287Q7.64974 -8.89757 7.64974 -7.68365Q7.64974 -6.81559 7.15807 -6.21202Q6.6664 -5.60845 5.79156 -5.39144Q6.78168 -5.16086 7.33439 -4.48947Q7.8871 -3.81809 7.8871 -2.84831Q7.8871 -1.37668 6.98853 -0.590007Q6.08995 0.196669 4.41488 0.196669Q2.7398 0.196669 1.84123 -0.590007Q0.942654 -1.37668 0.942654 -2.84831Q0.942654 -3.81809 1.49875 -4.48947Q2.05485 -5.16086 3.04498 -5.39144ZM2.54313 -7.5548Q2.54313 -6.76812 3.0348 -6.32731Q3.52648 -5.8865 4.41488 -5.8865Q5.29649 -5.8865 5.79495 -6.32731Q6.2934 -6.76812 6.2934 -7.5548Q6.2934 -8.34147 5.79495 -8.78228Q5.2965 -9.22309 4.41488 -9.22309Q3.52648 -9.22309 3.0348 -8.78228Q2.54313 -8.34147 2.54313 -7.5548Z" fill="#262626" transform="translate(574.6411483253589,557.6111111111111) translate(-4.418267250061035,0)" />
<line x1="633.9712918660288" y1="533.6" x2="633.9712918660288" y2="538.8611111111111" stroke="#262626" stroke-width="1.1111111111111112" />
<path d="M1.52588 -0.210232L1.52588 -1.45806Q2.04129 -1.21392 2.57026 -1.08507Q3.09923 -0.956217 3.60786 -0.956217Q4.96419 -0.956217 5.67966 -1.86835Q6.39513 -2.78049 6.49685 -4.63867Q6.10352 -4.05545 5.49995 -3.74349Q4.89638 -3.43153 4.16395 -3.43153Q2.64486 -3.43153 1.75985 -4.35045Q0.874837 -5.26937 0.874837 -6.86306Q0.874837 -8.42285 1.79715 -9.36551Q2.71946 -10.3082 4.25212 -10.3082Q6.00857 -10.3082 6.93427 -8.962Q7.85997 -7.61583 7.85997 -5.05235Q7.85997 -2.65842 6.72404 -1.23088Q5.58811 0.196669 3.66889 0.196669Q3.15348 0.196669 2.62451 0.0949436Q2.09554 -0.00678168 1.52588 -0.210232ZM4.25212 -4.50304Q5.17442 -4.50304 5.71357 -5.13374Q6.25271 -5.76443 6.25271 -6.86306Q6.25271 -7.95491 5.71357 -8.589Q5.17443 -9.22309 4.25212 -9.22309Q3.32981 -9.22309 2.79066 -8.589Q2.25152 -7.95492 2.25152 -6.86306Q2.25152 -5.76443 2.79066 -5.13374Q3.32981 -4.50304 4.25212 -4.50304Z" fill="#262626" transform="translate(633.9712918660288,557.6111111111111) translate(-4.418267250061035,0)" />
<line x1="693.3014354066986" y1="533.6" x2="693.3014354066986" y2="538.8611111111111" stroke="#262626" stroke-width="1.1111111111111112" />
<path d="M1.72255 -1.15289L3.9605 -1.15289L3.9605 -8.87722L1.52588 -8.38894L1.52588 -9.63677L3.94694 -10.1251L5.31684 -10.1251L5.31684 -1.15289L7.5548 -1.15289L7.5548 0L1.72255 0L1.72255 -1.15289ZM13.2514 -9.22309Q12.1935 -9.22309 11.6611 -8.1821Q11.1287 -7.14111 11.1287 -5.05235Q11.1287 -2.97038 11.6611 -1.92939Q12.1935 -0.888401 13.2514 -0.888401Q14.3161 -0.888401 14.8485 -1.92939Q15.3809 -2.97038 15.3809 -5.05235Q15.3809 -7.14111 14.8485 -8.1821Q14.3161 -9.22309 13.2514 -9.22309ZM13.2514 -10.3082Q14.9536 -10.3082 15.8522 -8.962Q16.7508 -7.61583 16.7508 -5.05235Q16.7508 -2.49566 15.8522 -1.1495Q14.9536 0.196669 13.2514 0.196669Q11.5492 0.196669 10.6506 -1.1495Q9.75206 -2.49566 9.75206 -5.05235Q9.75206 -7.61583 10.6506 -8.962Q11.5492 -10.3082 13.2514 -10.3082Z" fill="#262626" transform="translate(693.3014354066986,557.6111111111111) translate(-8.83653450012207,0)" />
<line x1="95.13888888888889" y1="519.1869328493648" x2="100.4" y2="519.1869328493648" stroke="#262626" stroke-width="1.1111111111111112" />
<path d="M2.6652 -1.15289L7.44629 -1.15289L7.44629 0L1.01725 0L1.01725 -1.15289Q1.79715 -1.95991 3.14331 -3.31963Q4.48947 -4.67936 4.83534 -5.0727Q5.49316 -5.8119 5.75426 -6.32392Q6.01535 -6.83594 6.01535 -7.331Q6.01535 -8.13802 5.44908 -8.64665Q4.88281 -9.15527 3.97407 -9.15527Q3.32981 -9.15527 2.61434 -8.93148Q1.89887 -8.70768 1.08507 -8.25331L1.08507 -9.63677Q1.91243 -9.96908 2.63129 -10.1386Q3.35015 -10.3082 3.94694 -10.3082Q5.52029 -10.3082 6.45616 -9.52148Q7.39204 -8.73481 7.39204 -7.41916Q7.39204 -6.79525 7.15807 -6.23576Q6.9241 -5.67627 6.30697 -4.91672Q6.13742 -4.72005 5.22868 -3.78079Q4.31993 -2.84153 2.6652 -1.15289Z" fill="#262626" transform="translate(90.27777777777777,523.1869328493648) translate(-8.83653450012207,0)" />
<line x1="95.13888888888889" y1="463.2885662431942" x2="100.4" y2="463.2885662431942" stroke="#262626" stroke-width="1.1111111111111112" />
<path d="M5.63558 -5.45926Q6.61892 -5.24902 7.17163 -4.58442Q7.72434 -3.91981 7.72434 -2.94325Q7.72434 -1.4445 6.69352 -0.623915Q5.66271 0.196669 3.76383 0.196669Q3.12636 0.196669 2.45158 0.0712077Q1.7768 -0.0542535 1.05794 -0.305176L1.05794 -1.6276Q1.6276 -1.2953 2.30577 -1.12576Q2.98394 -0.956217 3.72314 -0.956217Q5.01166 -0.956217 5.68644 -1.46484Q6.36122 -1.97347 6.36122 -2.94325Q6.36122 -3.83843 5.73391 -4.34367Q5.10661 -4.8489 3.98763 -4.8489L2.80762 -4.8489L2.80762 -5.97466L4.04188 -5.97466Q5.05235 -5.97466 5.58811 -6.37817Q6.12386 -6.78168 6.12386 -7.54123Q6.12386 -8.32113 5.57115 -8.7382Q5.01845 -9.15527 3.98763 -9.15527Q3.42475 -9.15527 2.78049 -9.0332Q2.13623 -8.91113 1.36312 -8.65343L1.36312 -9.87413Q2.14301 -10.0911 2.82457 -10.1997Q3.50613 -10.3082 4.1097 -10.3082Q5.66949 -10.3082 6.57823 -9.59947Q7.48698 -8.89079 7.48698 -7.68365Q7.48698 -6.84272 7.00548 -6.26289Q6.52398 -5.68305 5.63558 -5.45926Z" fill="#262626" transform="translate(90.27777777777777,467.2885662431942) translate(-8.83653450012207,0)" />
<line x1="95.13888888888889" y1="407.3901996370236" x2="100.4" y2="407.3901996370236" stroke="#262626" stroke-width="1.1111111111111112" />
<path d="M5.24902 -8.93148L1.79036 -3.52648L5.24902 -3.52648L5.24902 -8.93148ZM4.88959 -10.1251L6.61214 -10.1251L6.61214 -3.52648L8.05664 -3.52648L8.05664 -2.38715L6.61214 -2.38715L6.61214 0L5.24902 0L5.24902 -2.38715L0.678168 -2.38715L0.678168 -3.70958L4.88959 -10.1251Z" fill="#262626" transform="translate(90.27777777777777,411.3901996370236) translate(-8.83653450012207,0)" />
<line x1="95.13888888888889" y1="351.491833030853" x2="100.4" y2="351.491833030853" stroke="#262626" stroke-width="1.1111111111111112" />
<path d="M1.49875 -10.1251L6.87663 -10.1251L6.87663 -8.97217L2.75336 -8.97217L2.75336 -6.49007Q3.05176 -6.5918 3.35015 -6.64266Q3.64855 -6.69352 3.94694 -6.69352Q5.64236 -6.69352 6.63249 -5.76443Q7.62261 -4.83534 7.62261 -3.24843Q7.62261 -1.61404 6.60536 -0.708686Q5.58811 0.196669 3.73671 0.196669Q3.09923 0.196669 2.43802 0.0881619C1.99721 0.0158239 1.5417 -0.092683 1.07151 -0.237359L1.07151 -1.61404Q1.68186 -1.28174 2.3329 -1.11898Q2.98394 -0.956217 3.70958 -0.956217Q4.88281 -0.956217 5.56776 -1.57335Q6.25271 -2.19048 6.25271 -3.24843Q6.25271 -4.30637 5.56776 -4.9235Q4.88281 -5.54064 3.70958 -5.54064Q3.16026 -5.54064 2.61434 -5.41857Q2.06841 -5.2965 1.49875 -5.03879L1.49875 -10.1251Z" fill="#262626" transform="translate(90.27777777777777,355.491833030853) translate(-8.83653450012207,0)" />
<line x1="95.13888888888889" y1="295.59346642468245" x2="100.4" y2="295.59346642468245" stroke="#262626" stroke-width="1.1111111111111112" />
<path d="M4.58442 -5.60845Q3.66211 -5.60845 3.12297 -4.97776Q2.58382 -4.34706 2.58382 -3.24843Q2.58382 -2.15658 3.12297 -1.52249Q3.66211 -0.888401 4.58442 -0.888401Q5.50673 -0.888401 6.04587 -1.52249Q6.58502 -2.15658 6.58502 -3.24843Q6.58502 -4.34706 6.04587 -4.97776Q5.50673 -5.60845 4.58442 -5.60845ZM7.30387 -9.90126L7.30387 -8.65343Q6.78847 -8.89757 6.26289 -9.02642Q5.7373 -9.15527 5.2219 -9.15527Q3.86556 -9.15527 3.15009 -8.23975Q2.43462 -7.32422 2.3329 -5.47282Q2.73302 -6.06282 3.33659 -6.37817Q3.94016 -6.69352 4.6658 -6.69352Q6.19168 -6.69352 7.07669 -5.76782Q7.9617 -4.84212 7.9617 -3.24843Q7.9617 -1.68864 7.03939 -0.745985Q6.11708 0.196669 4.58442 0.196669Q2.82796 0.196669 1.89887 -1.1495Q0.969781 -2.49566 0.969781 -5.05235Q0.969781 -7.45307 2.1091 -8.88062Q3.24843 -10.3082 5.16764 -10.3082Q5.68305 -10.3082 6.20863 -10.2064Q6.73421 -10.1047 7.30387 -9.90126Z" fill="#262626" transform="translate(90.27777777777777,299.59346642468245) translate(-8.83653450012207,0)" />
<line x1="95.13888888888889" y1="239.69509981851184" x2="100.4" y2="239.69509981851184" stroke="#262626" stroke-width="1.1111111111111112" />
<path d="M1.13932 -10.1251L7.64974 -10.1251L7.64974 -9.54183L3.97407 0L2.54313 0L6.00179 -8.97217L1.13932 -8.97217L1.13932 -10.1251Z" fill="#262626" transform="translate(90.27777777777777,243.69509981851184) translate(-8.83653450012207,0)" />
<line x1="95.13888888888889" y1="183.79673321234122" x2="100.4" y2="183.79673321234122" stroke="#262626" stroke-width="1.1111111111111112" />
<path d="M4.41488 -4.80821Q3.43831 -4.80821 2.87882 -4.28602Q2.31934 -3.76383 2.31934 -2.84831Q2.31934 -1.93278 2.87882 -1.41059Q3.43831 -0.888401 4.41488 -0.888401Q5.39144 -0.888401 5.95432 -1.41398Q6.5172 -1.93956 6.5172 -2.84831Q6.5172 -3.76383 5.95771 -4.28602Q5.39822 -4.80821 4.41488 -4.80821ZM3.04498 -5.39144Q2.16336 -5.60845 1.67169 -6.21202Q1.18001 -6.81559 1.18001 -7.68365Q1.18001 -8.89757 2.04468 -9.60287Q2.90934 -10.3082 4.41488 -10.3082Q5.92719 -10.3082 6.78847 -9.60287Q7.64974 -8.89757 7.64974 -7.68365Q7.64974 -6.81559 7.15807 -6.21202Q6.6664 -5.60845 5.79156 -5.39144Q6.78168 -5.16086 7.33439 -4.48947Q7.8871 -3.81809 7.8871 -2.84831Q7.8871 -1.37668 6.98853 -0.590007Q6.08995 0.196669 4.41488 0.196669Q2.7398 0.196669 1.84123 -0.590007Q0.942654 -1.37668 0.942654 -2.84831Q0.942654 -3.81809 1.49875 -4.48947Q2.05485 -5.16086 3.04498 -5.39144ZM2.54313 -7.5548Q2.54313 -6.76812 3.0348 -6.32731Q3.52648 -5.8865 4.41488 -5.8865Q5.29649 -5.8865 5.79495 -6.32731Q6.2934 -6.76812 6.2934 -7.5548Q6.2934 -8.34147 5.79495 -8.78228Q5.2965 -9.22309 4.41488 -9.22309Q3.52648 -9.22309 3.0348 -8.78228Q2.54313 -8.34147 2.54313 -7.5548Z" fill="#262626" transform="translate(90.27777777777777,187.79673321234122) translate(-8.83653450012207,0)" />
<line x1="95.13888888888889" y1="127.89836660617061" x2="100.4" y2="127.89836660617061" stroke="#262626" stroke-width="1.1111111111111112" />
<path d="M1.52588 -0.210232L1.52588 -1.45806Q2.04129 -1.21392 2.57026 -1.08507Q3.09923 -0.956217 3.60786 -0.956217Q4.96419 -0.956217 5.67966 -1.86835Q6.39513 -2.78049 6.49685 -4.63867Q6.10352 -4.05545 5.49995 -3.74349Q4.89638 -3.43153 4.16395 -3.43153Q2.64486 -3.43153 1.75985 -4.35045Q0.874837 -5.26937 0.874837 -6.86306Q0.874837 -8.42285 1.79715 -9.36551Q2.71946 -10.3082 4.25212 -10.3082Q6.00857 -10.3082 6.93427 -8.962Q7.85997 -7.61583 7.85997 -5.05235Q7.85997 -2.65842 6.72404 -1.23088Q5.58811 0.196669 3.66889 0.196669Q3.15348 0.196669 2.62451 0.0949436Q2.09554 -0.00678168 1.52588 -0.210232ZM4.25212 -4.50304Q5.17442 -4.50304 5.71357 -5.13374Q6.25271 -5.76443 6.25271 -6.86306Q6.25271 -7.95491 5.71357 -8.589Q5.17443 -9.22309 4.25212 -9.22309Q3.32981 -9.22309 2.79066 -8.589Q2.25152 -7.95492 2.25152 -6.86306Q2.25152 -5.76443 2.79066 -5.13374Q3.32981 -4.50304 4.25212 -4.50304Z" fill="#262626" transform="translate(90.27777777777777,131.8983666061706) translate(-8.83653450012207,0)" />
<line x1="95.13888888888889" y1="72" x2="100.4" y2="72" stroke="#262626" stroke-width="1.1111111111111112" />
<path d="M1.72255 -1.15289L3.9605 -1.15289L3.9605 -8.87722L1.52588 -8.38894L1.52588 -9.63677L3.94694 -10.1251L5.31684 -10.1251L5.31684 -1.15289L7.5548 -1.15289L7.5548 0L1.72255 0L1.72255 -1.15289ZM13.2514 -9.22309Q12.1935 -9.22309 11.6611 -8.1821Q11.1287 -7.14111 11.1287 -5.05235Q11.1287 -2.97038 11.6611 -1.92939Q12.1935 -0.888401 13.2514 -0.888401Q14.3161 -0.888401 14.8485 -1.92939Q15.3809 -2.97038 15.3809 -5.05235Q15.3809 -7.14111 14.8485 -8.1821Q14.3161 -9.22309 13.2514 -9.22309ZM13.2514 -10.3082Q14.9536 -10.3082 15.8522 -8.962Q16.7508 -7.61583 16.7508 -5.05235Q16.7508 -2.49566 15.8522 -1.1495Q14.9536 0.196669 13.2514 0.196669Q11.5492 0.196669 10.6506 -1.1495Q9.75206 -2.49566 9.75206 -5.05235Q9.75206 -7.61583 10.6506 -8.962Q11.5492 -10.3082 13.2514 -10.3082Z" fill="#262626" transform="translate(90.27777777777777,76) translate(-17.67306900024414,0)" />
<g class="series" aria-label="Data">
<polyline points="159.33014354066987,513.5970961887477 218.66028708133973,379.4410163339383 277.99043062200957,452.1088929219601 337.32057416267946,250.87477313974594 396.6507177033493,345.90199637023596 455.98086124401914,222.92558983666066 515.311004784689,267.64428312159714 574.6411483253589,133.48820326678768 633.9712918660288,228.5154264972777 693.3014354066986,105.53901996370234" fill="none" stroke="#1F77B4" stroke-width="1.5" />
</g>
<rect x="572.6411483253589" y="121.48820326678765" width="28.1015625" height="14" fill="#FFFFFF" />
<path d="M1.96777 -6.47949L1.96777 -3.74023L3.20801 -3.74023Q3.89648 -3.74023 4.27246 -4.09668Q4.64844 -4.45312 4.64844 -5.1123Q4.64844 -5.7666 4.27246 -6.12305Q3.89648 -6.47949 3.20801 -6.47949L1.96777 -6.47949ZM0.981445 -7.29004L3.20801 -7.29004Q4.43359 -7.29004 5.06104 -6.73584Q5.68848 -6.18164 5.68848 -5.1123Q5.68848 -4.0332 5.06104 -3.48145Q4.43359 -2.92969 3.20801 -2.92969L1.96777 -2.92969L1.96777 0L0.981445 0L0.981445 -7.29004ZM11.6504 -2.95898L11.6504 -2.51953L7.51953 -2.51953Q7.57813 -1.5918 8.07861 -1.10596Q8.5791 -0.620117 9.47266 -0.620117Q9.99023 -0.620117 10.4761 -0.74707Q10.9619 -0.874023 11.4404 -1.12793L11.4404 -0.27832Q10.957 -0.0732422 10.4492 0.0341797Q9.94141 0.141602 9.41895 0.141602Q8.11035 0.141602 7.34619 -0.620117Q6.58203 -1.38184 6.58203 -2.68066Q6.58203 -4.02344 7.30713 -4.81201Q8.03223 -5.60059 9.2627 -5.60059Q10.3662 -5.60059 11.0083 -4.89014Q11.6504 -4.17969 11.6504 -2.95898ZM10.752 -3.22266Q10.7422 -3.95996 10.3394 -4.39941Q9.93652 -4.83887 9.27246 -4.83887Q8.52051 -4.83887 8.06885 -4.41406Q7.61719 -3.98926 7.54883 -3.21777L10.752 -3.22266ZM15.6104 -2.74902Q14.5215 -2.74902 14.1016 -2.5Q13.6816 -2.25098 13.6816 -1.65039Q13.6816 -1.17187 13.9966 -0.891113Q14.3115 -0.610352 14.8535 -0.610352Q15.6006 -0.610352 16.0522 -1.14014Q16.5039 -1.66992 16.5039 -2.54883L16.5039 -2.74902L15.6104 -2.74902ZM17.4023 -3.12012L17.4023 0L16.5039 0L16.5039 -0.830078Q16.1963 -0.332031 15.7373 -0.0952148Q15.2783 0.141602 14.6143 0.141602Q13.7744 0.141602 13.2788 -0.32959Q12.7832 -0.800781 12.7832 -1.5918Q12.7832 -2.51465 13.4009 -2.9834Q14.0186 -3.45215 15.2441 -3.45215L16.5039 -3.45215L16.5039 -3.54004Q16.5039 -4.16016 16.0962 -4.49951Q15.6885 -4.83887 14.9512 -4.83887Q14.4824 -4.83887 14.0381 -4.72656Q13.5938 -4.61426 13.1836 -4.38965L13.1836 -5.21973Q13.6768 -5.41016 14.1406 -5.50537Q14.6045 -5.60059 15.0439 -5.60059Q16.2305 -5.60059 16.8164 -4.98535Q17.4023 -4.37012 17.4023 -3.12012ZM19.2188 -7.59766L20.1221 -7.59766L20.1221 -3.11035L22.8027 -5.46875L23.9502 -5.46875L21.0498 -2.91016L24.0723 0L22.9004 0L20.1221 -2.6709L20.1221 0L19.2188 0L19.2188 -7.59766Z" fill="#262626" transform="translate(574.6411483253589,133.48820326678765)" />
<path d="M 574.6411483253589 133.48820326678765 L 574.6411483253589 133.48820326678765 " fill="none" stroke="#262626" stroke-width="1" />
<path d="M4.43848 -3.41797Q4.75586 -3.31055 5.05615 -2.95898Q5.35645 -2.60742 5.65918 -1.99219L6.66016 0L5.60059 0L4.66797 -1.87012Q4.30664 -2.60254 3.96729 -2.8418Q3.62793 -3.08105 3.04199 -3.08105L1.96777 -3.08105L1.96777 0L0.981445 0L0.981445 -7.29004L3.20801 -7.29004Q4.45801 -7.29004 5.07324 -6.76758Q5.68848 -6.24512 5.68848 -5.19043Q5.68848 -4.50195 5.36865 -4.04785Q5.04883 -3.59375 4.43848 -3.41797ZM1.96777 -6.47949L1.96777 -3.8916L3.20801 -3.8916Q3.9209 -3.8916 4.28467 -4.22119Q4.64844 -4.55078 4.64844 -5.19043Q4.64844 -5.83008 4.28467 -6.15479Q3.9209 -6.47949 3.20801 -6.47949L1.96777 -6.47949ZM10.0098 -4.83887Q9.28711 -4.83887 8.86719 -4.2749Q8.44727 -3.71094 8.44727 -2.72949Q8.44727 -1.74805 8.86475 -1.18408Q9.28223 -0.620117 10.0098 -0.620117Q10.7275 -0.620117 11.1475 -1.18652Q11.5674 -1.75293 11.5674 -2.72949Q11.5674 -3.70117 11.1475 -4.27002Q10.7275 -4.83887 10.0098 -4.83887ZM10.0098 -5.60059Q11.1816 -5.60059 11.8506 -4.83887Q12.5195 -4.07715 12.5195 -2.72949Q12.5195 -1.38672 11.8506 -0.622559Q11.1816 0.141602 10.0098 0.141602Q8.83301 0.141602 8.1665 -0.622559Q7.5 -1.38672 7.5 -2.72949Q7.5 -4.07715 8.1665 -4.83887Q8.83301 -5.60059 10.0098 -5.60059ZM14.8975 -7.02148L14.8975 -5.46875L16.748 -5.46875L16.748 -4.77051L14.8975 -4.77051L14.8975 -1.80176Q14.8975 -1.13281 15.0806 -0.942383Q15.2637 -0.751953 15.8252 -0.751953L16.748 -0.751953L16.748 0L15.8252 0Q14.7852 0 14.3896 -0.388184Q13.9941 -0.776367 13.9941 -1.80176L13.9941 -4.77051L13.335 -4.77051L13.335 -5.46875L13.9941 -5.46875L13.9941 -7.02148L14.8975 -7.02148ZM20.415 -2.74902Q19.3262 -2.74902 18.9063 -2.5Q18.4863 -2.25098 18.4863 -1.65039Q18.4863 -1.17187 18.8013 -0.891113Q19.1162 -0.610352 19.6582 -0.610352Q20.4053 -0.610352 20.8569 -1.14014Q21.3086 -1.66992 21.3086 -2.54883L21.3086 -2.74902L20.415 -2.74902ZM22.207 -3.12012L22.207 0L21.3086 0L21.3086 -0.830078Q21.001 -0.332031 20.542 -0.0952148Q20.083 0.141602 19.4189 0.141602Q18.5791 0.141602 18.0835 -0.32959Q17.5879 -0.800781 17.5879 -1.5918Q17.5879 -2.51465 18.2056 -2.9834Q18.8232 -3.45215 20.0488 -3.45215L21.3086 -3.45215L21.3086 -3.54004Q21.3086 -4.16016 20.9009 -4.49951Q20.4932 -4.83887 19.7559 -4.83887Q19.2871 -4.83887 18.8428 -4.72656Q18.3984 -4.61426 17.9883 -4.38965L17.9883 -5.21973Q18.4814 -5.41016 18.9453 -5.50537Q19.4092 -5.60059 19.8486 -5.60059Q21.0352 -5.60059 21.6211 -4.98535Q22.207 -4.37012 22.207 -3.12012ZM24.9463 -7.02148L24.9463 -5.46875L26.7969 -5.46875L26.7969 -4.77051L24.9463 -4.77051L24.9463 -1.80176Q24.9463 -1.13281 25.1294 -0.942383Q25.3125 -0.751953 25.874 -0.751953L26.7969 -0.751953L26.7969 0L25.874 0Q24.834 0 24.4385 -0.388184Q24.043 -0.776367 24.043 -1.80176L24.043 -4.77051L23.3838 -4.77051L23.3838 -5.46875L24.043 -5.46875L24.043 -7.02148L24.9463 -7.02148ZM32.6563 -2.95898L32.6563 -2.51953L28.5254 -2.51953Q28.584 -1.5918 29.0845 -1.10596Q29.585 -0.620117 30.4785 -0.620117Q30.9961 -0.620117 31.4819 -0.74707Q31.9678 -0.874023 32.4463 -1.12793L32.4463 -0.27832Q31.9629 -0.0732422 31.4551 0.0341797Q30.9473 0.141602 30.4248 0.141602Q29.1162 0.141602 28.3521 -0.620117Q27.5879 -1.38184 27.5879 -2.68066Q27.5879 -4.02344 28.313 -4.81201Q29.0381 -5.60059 30.2686 -5.60059Q31.3721 -5.60059 32.0142 -4.89014Q32.6563 -4.17969 32.6563 -2.95898ZM31.7578 -3.22266Q31.748 -3.95996 31.3452 -4.39941Q30.9424 -4.83887 30.2783 -4.83887Q29.5264 -4.83887 29.0747 -4.41406Q28.623 -3.98926 28.5547 -3.21777L31.7578 -3.22266ZM37.7295 -4.63867L37.7295 -7.59766L38.6279 -7.59766L38.6279 0L37.7295 0L37.7295 -0.820313Q37.4463 -0.332031 37.0142 -0.0952148Q36.582 0.141602 35.9766 0.141602Q34.9854 0.141602 34.3628 -0.649414Q33.7402 -1.44043 33.7402 -2.72949Q33.7402 -4.01855 34.3628 -4.80957Q34.9854 -5.60059 35.9766 -5.60059Q36.582 -5.60059 37.0142 -5.36377Q37.4463 -5.12695 37.7295 -4.63867ZM34.668 -2.72949Q34.668 -1.73828 35.0757 -1.17432Q35.4834 -0.610352 36.1963 -0.610352Q36.9092 -0.610352 37.3193 -1.17432Q37.7295 -1.73828 37.7295 -2.72949Q37.7295 -3.7207 37.3193 -4.28467Q36.9092 -4.84863 36.1963 -4.84863Q35.4834 -4.84863 35.0757 -4.28467Q34.668 -3.7207 34.668 -2.72949ZM43.6572 -7.59766L44.5557 -7.59766L44.5557 0L43.6572 0L43.6572 -7.59766ZM48.9209 -2.74902Q47.832 -2.74902 47.4121 -2.5Q46.9922 -2.25098 46.9922 -1.65039Q46.9922 -1.17187 47.3071 -0.891113Q47.6221 -0.610352 48.1641 -0.610352Q48.9111 -0.610352 49.3628 -1.14014Q49.8145 -1.66992 49.8145 -2.54883L49.8145 -2.74902L48.9209 -2.74902ZM50.7129 -3.12012L50.7129 0L49.8145 0L49.8145 -0.830078Q49.5068 -0.332031 49.0479 -0.0952148Q48.5889 0.141602 47.9248 0.141602Q47.085 0.141602 46.5894 -0.32959Q46.0938 -0.800781 46.0938 -1.5918Q46.0938 -2.51465 46.7114 -2.9834Q47.3291 -3.45215 48.5547 -3.45215L49.8145 -3.45215L49.8145 -3.54004Q49.8145 -4.16016 49.4067 -4.49951Q48.999 -4.83887 48.2617 -4.83887Q47.793 -4.83887 47.3486 -4.72656Q46.9043 -4.61426 46.4941 -4.38965L46.4941 -5.21973Q46.9873 -5.41016 47.4512 -5.50537Q47.915 -5.60059 48.3545 -5.60059Q49.541 -5.60059 50.127 -4.98535Q50.7129 -4.37012 50.7129 -3.12012ZM56.4893 -2.72949Q56.4893 -3.7207 56.0815 -4.28467Q55.6738 -4.84863 54.9609 -4.84863Q54.248 -4.84863 53.8403 -4.28467Q53.4326 -3.7207 53.4326 -2.72949Q53.4326 -1.73828 53.8403 -1.17432Q54.248 -0.610352 54.9609 -0.610352Q55.6738 -0.610352 56.0815 -1.17432Q56.4893 -1.73828 56.4893 -2.72949ZM53.4326 -4.63867Q53.7158 -5.12695 54.1479 -5.36377Q54.5801 -5.60059 55.1807 -5.60059Q56.1768 -5.60059 56.7993 -4.80957Q57.4219 -4.01855 57.4219 -2.72949Q57.4219 -1.44043 56.7993 -0.649414Q56.1768 0.141602 55.1807 0.141602Q54.5801 0.141602 54.1479 -0.0952148Q53.7158 -0.332031 53.4326 -0.820313L53.4326 0L52.5293 0L52.5293 -7.59766L53.4326 -7.59766L53.4326 -4.63867ZM63.5889 -2.95898L63.5889 -2.51953L59.458 -2.51953Q59.5166 -1.5918 60.0171 -1.10596Q60.5176 -0.620117 61.4111 -0.620117Q61.9287 -0.620117 62.4146 -0.74707Q62.9004 -0.874023 63.3789 -1.12793L63.3789 -0.27832Q62.8955 -0.0732422 62.3877 0.0341797Q61.8799 0.141602 61.3574 0.141602Q60.0488 0.141602 59.2847 -0.620117Q58.5205 -1.38184 58.5205 -2.68066Q58.5205 -4.02344 59.2456 -4.81201Q59.9707 -5.60059 61.2012 -5.60059Q62.3047 -5.60059 62.9468 -4.89014Q63.5889 -4.17969 63.5889 -2.95898ZM62.6904 -3.22266Q62.6807 -3.95996 62.2778 -4.39941Q61.875 -4.83887 61.2109 -4.83887Q60.459 -4.83887 60.0073 -4.41406Q59.5557 -3.98926 59.4873 -3.21777L62.6904 -3.22266ZM65.0635 -7.59766L65.9619 -7.59766L65.9619 0L65.0635 0L65.0635 -7.59766Z" fill="#262626" transform="translate(218.66028708133973,379.4410163339383) rotate(30) translate(-33.44970703125,0)" />
<g class="spine">
<line x1="100" y1="534" x2="720" y2="534" stroke="#262626" stroke-width="0.8" />
</g>
<g class="spine">
<line x1="100" y1="72" x2="720" y2="72" stroke="#262626" stroke-width="0.8" />
</g>
<g class="spine">
<line x1="100" y1="72" x2="100" y2="534" stroke="#262626" stroke-width="0.8" />
</g>
<g class="spine">
<line x1="720" y1="72" x2="720" y2="534" stroke="#262626" stroke-width="0.8" />
</g>
<g class="legend" aria-label="Chart legend">
<rect x="621.9486736721462" y="82" width="88.05132632785373" height="25.72222222222222" fill="#FFFFFF" fill-opacity="0.8" stroke="#CCCCCC" stroke-width="0.5" />
<line x1="629.9486736721462" y1="94.86111111111111" x2="657.7264514499241" y2="94.86111111111111" stroke="#1F77B4" stroke-width="1.5" />
<path d="M2.73302 -8.9993L2.73302 -1.12576L4.38775 -1.12576Q6.48329 -1.12576 7.45646 -2.0752Q8.42963 -3.02463 8.42963 -5.0727Q8.42963 -7.1072 7.45646 -8.05325Q6.48329 -8.9993 4.38775 -8.9993L2.73302 -8.9993ZM1.36312 -10.1251L4.17752 -10.1251Q7.12077 -10.1251 8.49745 -8.90096Q9.87413 -7.67687 9.87413 -5.0727Q9.87413 -2.45497 8.49067 -1.22748Q7.1072 0 4.17752 0L1.36312 0L1.36312 -10.1251ZM15.4555 -3.81809Q13.9431 -3.81809 13.3599 -3.47222Q12.7767 -3.12636 12.7767 -2.29221Q12.7767 -1.6276 13.2141 -1.23766Q13.6515 -0.84771 14.4043 -0.847711Q15.4419 -0.847711 16.0692 -1.58352Q16.6965 -2.31934 16.6965 -3.54004L16.6965 -3.81809L15.4555 -3.81809ZM17.9443 -4.3335L17.9443 0L16.6965 0L16.6965 -1.15289Q16.2693 -0.461155 15.6318 -0.132243Q14.9943 0.196669 14.072 0.196669Q12.9055 0.196669 12.2172 -0.457764Q11.5289 -1.1122 11.5289 -2.21083Q11.5289 -3.49257 12.3867 -4.14361Q13.2446 -4.79465 14.9468 -4.79465L16.6965 -4.79465L16.6965 -4.91672Q16.6965 -5.77799 16.1302 -6.24932Q15.564 -6.72065 14.5399 -6.72065Q13.8889 -6.72065 13.2718 -6.56467Q12.6546 -6.40869 12.085 -6.09673L12.085 -7.24962Q12.7699 -7.51411 13.4142 -7.64635Q14.0584 -7.77859 14.6688 -7.77859Q16.3167 -7.77859 17.1305 -6.9241Q17.9443 -6.06961 17.9443 -4.3335ZM21.7489 -9.75206L21.7489 -7.59549L24.3191 -7.59549L24.3191 -6.62571L21.7489 -6.62571L21.7489 -2.50244Q21.7489 -1.57335 22.0032 -1.30887Q22.2575 -1.04438 23.0374 -1.04438L24.3191 -1.04438L24.3191 0L23.0374 0Q21.5929 0 21.0436 -0.539144Q20.4943 -1.07829 20.4943 -2.50244L20.4943 -6.62571L19.5787 -6.62571L19.5787 -7.59549L20.4943 -7.59549L20.4943 -9.75206L21.7489 -9.75206ZM29.4122 -3.81809Q27.8998 -3.81809 27.3166 -3.47222Q26.7334 -3.12636 26.7334 -2.29221Q26.7334 -1.6276 27.1708 -1.23766Q27.6082 -0.84771 28.361 -0.847711Q29.3986 -0.847711 30.0259 -1.58352Q30.6532 -2.31934 30.6532 -3.54004L30.6532 -3.81809L29.4122 -3.81809ZM31.901 -4.3335L31.901 0L30.6532 0L30.6532 -1.15289Q30.226 -0.461155 29.5885 -0.132243Q28.951 0.196669 28.0287 0.196669Q26.8623 0.196669 26.1739 -0.457764Q25.4856 -1.1122 25.4856 -2.21083Q25.4856 -3.49257 26.3435 -4.14361Q27.2013 -4.79465 28.9035 -4.79465L30.6532 -4.79465L30.6532 -4.91672Q30.6532 -5.77799 30.0869 -6.24932Q29.5207 -6.72065 28.4966 -6.72065Q27.8456 -6.72065 27.2285 -6.56467Q26.6113 -6.40869 26.0417 -6.09673L26.0417 -7.24962Q26.7266 -7.51411 27.3709 -7.64635Q28.0151 -7.77859 28.6255 -7.77859Q30.2734 -7.77859 31.0872 -6.9241Q31.901 -6.06961 31.901 -4.3335Z" fill="#262626" transform="translate(668.8375625610352,98.72222222222223)" />
</g>
<path d="M8.48752 -2.11024L3.81706 -2.11024L3.08002 0L0.0775825 0L4.36789 -11.5831L7.92893 -11.5831L12.2192 0L9.2168 0L8.48752 -2.11024ZM4.56185 -4.25928L7.73497 -4.25928L6.15229 -8.86768L4.56185 -4.25928ZM22.367 -5.29112L22.367 0L19.5741 0L19.5741 -0.861165L19.5741 -4.0498Q19.5741 -5.17475 19.5236 -5.60145Q19.4732 -6.02816 19.3491 -6.22987Q19.1861 -6.50141 18.9068 -6.6527Q18.6275 -6.80398 18.2707 -6.80398Q17.4017 -6.80398 16.9052 -6.13289Q16.4087 -5.46181 16.4087 -4.27479L16.4087 0L13.6312 0L13.6312 -8.68924L16.4087 -8.68924L16.4087 -7.41688Q17.0371 -8.17719 17.7431 -8.53795Q18.4491 -8.89871 19.3025 -8.89871Q20.8076 -8.89871 21.5873 -7.97548Q22.367 -7.05225 22.367 -5.29112ZM33.6786 -5.29112L33.6786 0L30.8856 0L30.8856 -0.861165L30.8856 -4.0498Q30.8856 -5.17475 30.8352 -5.60145Q30.7847 -6.02816 30.6606 -6.22987Q30.4977 -6.50141 30.2184 -6.6527Q29.9391 -6.80398 29.5822 -6.80398Q28.7133 -6.80398 28.2167 -6.13289Q27.7202 -5.46181 27.7202 -4.27479L27.7202 0L24.9428 0L24.9428 -8.68924L27.7202 -8.68924L27.7202 -7.41688Q28.3486 -8.17719 29.0546 -8.53795Q29.7606 -8.89871 30.614 -8.89871Q32.1191 -8.89871 32.8988 -7.97548Q33.6786 -7.05225 33.6786 -5.29112ZM40.3894 -6.9126Q39.4662 -6.9126 38.9813 -6.24927Q38.4964 -5.58594 38.4964 -4.33686Q38.4964 -3.08778 38.9813 -2.42445Q39.4662 -1.76112 40.3894 -1.76112Q41.2971 -1.76112 41.7782 -2.42445Q42.2592 -3.08778 42.2592 -4.33686Q42.2592 -5.58594 41.7782 -6.24927Q41.2971 -6.9126 40.3894 -6.9126ZM40.3894 -8.89871Q42.6316 -8.89871 43.8923 -7.68842Q45.153 -6.47814 45.153 -4.33686Q45.153 -2.19558 43.8923 -0.985297Q42.6316 0.224989 40.3894 0.224989Q38.1395 0.224989 36.8711 -0.985297Q35.6026 -2.19558 35.6026 -4.33686Q35.6026 -6.47814 36.8711 -7.68842Q38.1395 -8.89871 40.3894 -8.89871ZM50.2036 -11.1564L50.2036 -8.68924L53.0664 -8.68924L53.0664 -6.70313L50.2036 -6.70313L50.2036 -3.01796Q50.2036 -2.41281 50.4441 -2.19946Q50.6846 -1.98611 51.3984 -1.98611L52.8259 -1.98611L52.8259 0L50.4441 0Q48.7994 0 48.1128 -0.686605Q47.4262 -1.37321 47.4262 -3.01796L47.4262 -6.70313L46.0452 -6.70313L46.0452 -8.68924L47.4262 -8.68924L47.4262 -11.1564L50.2036 -11.1564ZM58.6601 -3.91016Q57.7912 -3.91016 57.3528 -3.61534Q56.9145 -3.32053 56.9145 -2.74642Q56.9145 -2.21886 57.2675 -1.92017Q57.6205 -1.62147 58.2489 -1.62147Q59.0325 -1.62147 59.5678 -2.18395Q60.1031 -2.74642 60.1031 -3.59207L60.1031 -3.91016L58.6601 -3.91016ZM62.9039 -4.95752L62.9039 0L60.1031 0L60.1031 -1.28787Q59.5445 -0.496528 58.8463 -0.135769Q58.1481 0.224989 57.1472 0.224989Q55.7973 0.224989 54.9555 -0.562473Q54.1138 -1.34993 54.1138 -2.60677Q54.1138 -4.13515 55.165 -4.8489Q56.2163 -5.56266 58.4661 -5.56266L60.1031 -5.56266L60.1031 -5.77989Q60.1031 -6.43934 59.5833 -6.7458Q59.0635 -7.05225 57.9619 -7.05225Q57.0697 -7.05225 56.3016 -6.87381Q55.5335 -6.69537 54.8741 -6.33849L54.8741 -8.45649Q55.7663 -8.67372 56.6662 -8.78621Q57.5662 -8.89871 58.4661 -8.89871Q60.8169 -8.89871 61.8604 -7.9716Q62.9039 -7.04449 62.9039 -4.95752ZM68.5208 -11.1564L68.5208 -8.68924L71.3836 -8.68924L71.3836 -6.70313L68.5208 -6.70313L68.5208 -3.01796Q68.5208 -2.41281 68.7613 -2.19946Q69.0018 -1.98611 69.7156 -1.98611L71.1431 -1.98611L71.1431 0L68.7613 0Q67.1166 0 66.43 -0.686605Q65.7434 -1.37321 65.7434 -3.01796L65.7434 -6.70313L64.3624 -6.70313L64.3624 -8.68924L65.7434 -8.68924L65.7434 -11.1564L68.5208 -11.1564ZM73.0827 -8.68924L75.8601 -8.68924L75.8601 0L73.0827 0L73.0827 -8.68924ZM73.0827 -12.0718L75.8601 -12.0718L75.8601 -9.80642L73.0827 -9.80642L73.0827 -12.0718ZM82.6641 -6.9126Q81.7409 -6.9126 81.256 -6.24927Q80.7711 -5.58594 80.7711 -4.33686Q80.7711 -3.08778 81.256 -2.42445Q81.7409 -1.76112 82.6641 -1.76112Q83.5718 -1.76112 84.0528 -2.42445Q84.5339 -3.08778 84.5339 -4.33686Q84.5339 -5.58594 84.0528 -6.24927Q83.5718 -6.9126 82.6641 -6.9126ZM82.6641 -8.89871Q84.9063 -8.89871 86.167 -7.68842Q87.4277 -6.47814 87.4277 -4.33686Q87.4277 -2.19558 86.167 -0.985297Q84.9063 0.224989 82.6641 0.224989Q80.4142 0.224989 79.1458 -0.985297Q77.8773 -2.19558 77.8773 -4.33686Q77.8773 -6.47814 79.1458 -7.68842Q80.4142 -8.89871 82.6641 -8.89871ZM98.1806 -5.29112L98.1806 0L95.3876 0L95.3876 -0.861165L95.3876 -4.0498Q95.3876 -5.17475 95.3372 -5.60145Q95.2868 -6.02816 95.1627 -6.22987Q94.9997 -6.50141 94.7204 -6.6527Q94.4411 -6.80398 94.0843 -6.80398Q93.2153 -6.80398 92.7188 -6.13289Q92.2223 -5.46181 92.2223 -4.27479L92.2223 0L89.4448 0L89.4448 -8.68924L92.2223 -8.68924L92.2223 -7.41688Q92.8507 -8.17719 93.5567 -8.53795Q94.2627 -8.89871 95.1161 -8.89871Q96.6212 -8.89871 97.4009 -7.97548Q98.1806 -7.05225 98.1806 -5.29112ZM106.412 -11.5831L114.473 -11.5831L114.473 -9.32541L109.399 -9.32541L109.399 -7.16862L114.17 -7.16862L114.17 -4.91097L109.399 -4.91097L109.399 -2.25765L114.644 -2.25765L114.644 0L106.412 0L106.412 -11.5831ZM125.878 -5.29112L125.878 0L123.085 0L123.085 -0.861165L123.085 -4.0498Q123.085 -5.17475 123.034 -5.60145Q122.984 -6.02816 122.86 -6.22987Q122.697 -6.50141 122.417 -6.6527Q122.138 -6.80398 121.781 -6.80398Q120.912 -6.80398 120.416 -6.13289Q119.919 -5.46181 119.919 -4.27479L119.919 0L117.142 0L117.142 -8.68924L119.919 -8.68924L119.919 -7.41688Q120.548 -8.17719 121.254 -8.53795Q121.96 -8.89871 122.813 -8.89871Q124.318 -8.89871 125.098 -7.97548Q125.878 -7.05225 125.878 -5.29112ZM137.189 -5.29112L137.189 0L134.396 0L134.396 -0.861165L134.396 -4.03429Q134.396 -5.17475 134.346 -5.60145Q134.295 -6.02816 134.171 -6.22987Q134.008 -6.50141 133.729 -6.6527Q133.45 -6.80398 133.093 -6.80398Q132.224 -6.80398 131.727 -6.13289Q131.231 -5.46181 131.231 -4.27479L131.231 0L128.453 0L128.453 -12.0718L131.231 -12.0718L131.231 -7.41688Q131.859 -8.17719 132.565 -8.53795Q133.271 -8.89871 134.125 -8.89871Q135.63 -8.89871 136.409 -7.97548Q137.189 -7.05225 137.189 -5.29112ZM143.659 -3.91016Q142.791 -3.91016 142.352 -3.61534Q141.914 -3.32053 141.914 -2.74642Q141.914 -2.21886 142.267 -1.92017Q142.62 -1.62147 143.248 -1.62147Q144.032 -1.62147 144.567 -2.18395Q145.102 -2.74642 145.102 -3.59207L145.102 -3.91016L143.659 -3.91016ZM147.903 -4.95752L147.903 0L145.102 0L145.102 -1.28787Q144.544 -0.496528 143.846 -0.135769Q143.147 0.224989 142.147 0.224989Q140.797 0.224989 139.955 -0.562473Q139.113 -1.34993 139.113 -2.60677Q139.113 -4.13515 140.164 -4.8489Q141.216 -5.56266 143.465 -5.56266L145.102 -5.56266L145.102 -5.77989Q145.102 -6.43934 144.583 -6.7458Q144.063 -7.05225 142.961 -7.05225Q142.069 -7.05225 141.301 -6.87381Q140.533 -6.69537 139.873 -6.33849L139.873 -8.45649Q140.766 -8.67372 141.666 -8.78621Q142.566 -8.89871 143.465 -8.89871Q145.816 -8.89871 146.86 -7.9716Q147.903 -7.04449 147.903 -4.95752ZM159.222 -5.29112L159.222 0L156.43 0L156.43 -0.861165L156.43 -4.0498Q156.43 -5.17475 156.379 -5.60145Q156.329 -6.02816 156.205 -6.22987Q156.042 -6.50141 155.762 -6.6527Q155.483 -6.80398 155.126 -6.80398Q154.257 -6.80398 153.761 -6.13289Q153.264 -5.46181 153.264 -4.27479L153.264 0L150.487 0L150.487 -8.68924L153.264 -8.68924L153.264 -7.41688Q153.893 -8.17719 154.599 -8.53795Q155.305 -8.89871 156.158 -8.89871Q157.663 -8.89871 158.443 -7.97548Q159.222 -7.05225 159.222 -5.29112ZM168.819 -8.4177L168.819 -6.15229Q168.253 -6.5402 167.683 -6.7264Q167.113 -6.9126 166.5 -6.9126Q165.336 -6.9126 164.688 -6.23375Q164.04 -5.5549 164.04 -4.33686Q164.04 -3.11881 164.688 -2.43997Q165.336 -1.76112 166.5 -1.76112Q167.151 -1.76112 167.737 -1.95508Q168.323 -2.14903 168.819 -2.52919L168.819 -0.256022C168.385 -0.095685 167.944 0.0245678 167.497 0.104736Q166.826 0.224989 166.151 0.224989Q163.8 0.224989 162.473 -0.981418Q161.147 -2.18783 161.147 -4.33686Q161.147 -6.48589 162.473 -7.6923Q163.8 -8.89871 166.151 -8.89871Q166.833 -8.89871 167.497 -8.77846Q168.16 -8.6582 168.819 -8.4177ZM179.89 -4.36789L179.89 -3.57655L173.397 -3.57655Q173.498 -2.59901 174.103 -2.11024Q174.708 -1.62147 175.794 -1.62147Q176.671 -1.62147 177.59 -1.88137Q178.509 -2.14128 179.479 -2.66884L179.479 -0.527561Q178.494 -0.155165 177.509 0.0349121Q176.523 0.224989 175.538 0.224989Q173.18 0.224989 171.872 -0.97366Q170.565 -2.17231 170.565 -4.33686Q170.565 -6.46262 171.849 -7.68066Q173.133 -8.89871 175.383 -8.89871Q177.431 -8.89871 178.661 -7.66515Q179.89 -6.43159 179.89 -4.36789ZM177.035 -5.29112Q177.035 -6.08247 176.574 -6.56736Q176.112 -7.05225 175.367 -7.05225Q174.561 -7.05225 174.056 -6.59839Q173.552 -6.14453 173.428 -5.29112L177.035 -5.29112ZM190.046 -7.2462Q190.574 -8.05306 191.299 -8.47588Q192.024 -8.89871 192.893 -8.89871Q194.391 -8.89871 195.174 -7.97548Q195.958 -7.05225 195.958 -5.29112L195.958 0L193.165 0L193.165 -4.53082Q193.173 -4.63167 193.176 -4.74029Q193.18 -4.8489 193.18 -5.05062Q193.18 -5.97385 192.909 -6.38892Q192.637 -6.80398 192.032 -6.80398Q191.241 -6.80398 190.81 -6.15229Q190.38 -5.5006 190.364 -4.26704L190.364 0L187.571 0L187.571 -4.53082Q187.571 -5.97385 187.323 -6.38892Q187.075 -6.80398 186.438 -6.80398Q185.639 -6.80398 185.205 -6.14841Q184.77 -5.49284 184.77 -4.27479L184.77 0L181.977 0L181.977 -8.68924L184.77 -8.68924L184.77 -7.41688Q185.282 -8.15392 185.946 -8.52631Q186.609 -8.89871 187.408 -8.89871Q188.308 -8.89871 188.999 -8.46425Q189.689 -8.02979 190.046 -7.2462ZM207.223 -4.36789L207.223 -3.57655L200.729 -3.57655Q200.83 -2.59901 201.435 -2.11024Q202.04 -1.62147 203.126 -1.62147Q204.003 -1.62147 204.922 -1.88137Q205.842 -2.14128 206.812 -2.66884L206.812 -0.527561Q205.826 -0.155165 204.841 0.0349121Q203.856 0.224989 202.87 0.224989Q200.512 0.224989 199.205 -0.97366Q197.897 -2.17231 197.897 -4.33686Q197.897 -6.46262 199.181 -7.68066Q200.465 -8.89871 202.715 -8.89871Q204.763 -8.89871 205.993 -7.66515Q207.223 -6.43159 207.223 -4.36789ZM204.368 -5.29112Q204.368 -6.08247 203.906 -6.56736Q203.445 -7.05225 202.7 -7.05225Q201.893 -7.05225 201.389 -6.59839Q200.884 -6.14453 200.76 -5.29112L204.368 -5.29112ZM218.061 -5.29112L218.061 0L215.268 0L215.268 -0.861165L215.268 -4.0498Q215.268 -5.17475 215.218 -5.60145Q215.167 -6.02816 215.043 -6.22987Q214.88 -6.50141 214.601 -6.6527Q214.322 -6.80398 213.965 -6.80398Q213.096 -6.80398 212.599 -6.13289Q212.103 -5.46181 212.103 -4.27479L212.103 0L209.325 0L209.325 -8.68924L212.103 -8.68924L212.103 -7.41688Q212.731 -8.17719 213.437 -8.53795Q214.143 -8.89871 214.997 -8.89871Q216.502 -8.89871 217.281 -7.97548Q218.061 -7.05225 218.061 -5.29112ZM223.67 -11.1564L223.67 -8.68924L226.533 -8.68924L226.533 -6.70313L223.67 -6.70313L223.67 -3.01796Q223.67 -2.41281 223.911 -2.19946Q224.151 -1.98611 224.865 -1.98611L226.293 -1.98611L226.293 0L223.911 0Q222.266 0 221.579 -0.686605Q220.893 -1.37321 220.893 -3.01796L220.893 -6.70313L219.512 -6.70313L219.512 -8.68924L220.893 -8.68924L220.893 -11.1564L223.67 -11.1564ZM235.021 -8.4177L235.021 -6.30745Q234.128 -6.67985 233.298 -6.86605Q232.468 -7.05225 231.731 -7.05225Q230.94 -7.05225 230.556 -6.85441Q230.172 -6.65657 230.172 -6.24539Q230.172 -5.91178 230.463 -5.73334Q230.754 -5.5549 231.506 -5.46956L231.995 -5.39974Q234.128 -5.1282 234.865 -4.50754Q235.602 -3.88688 235.602 -2.56022Q235.602 -1.1715 234.578 -0.473253Q233.554 0.224989 231.522 0.224989Q230.66 0.224989 229.741 0.0892198Q228.822 -0.0465495 227.852 -0.318088L227.852 -2.42833Q228.682 -2.0249 229.555 -1.82319Q230.428 -1.62147 231.328 -1.62147Q232.142 -1.62147 232.553 -1.84646Q232.965 -2.07145 232.965 -2.51367Q232.965 -2.88607 232.681 -3.06839Q232.398 -3.25071 231.553 -3.35156L231.064 -3.41363Q229.21 -3.64638 228.465 -4.27479Q227.72 -4.90321 227.72 -6.18332Q227.72 -7.56429 228.667 -8.2315Q229.613 -8.89871 231.568 -8.89871Q232.336 -8.89871 233.182 -8.78234Q234.027 -8.66596 235.021 -8.4177Z" fill="#262626" transform="translate(410,64) translate(-118.177490234375,0)" />
</svg>
