<svg xmlns="http://www.w3.org/2000/svg" viewBox="0 0 800 600" width="800" height="600" role="img" aria-labelledby="chart-title">
<title id="chart-title"></title>
<rect x="0" y="0" width="800" height="600" fill="#FFFFFF" />
<rect x="100" y="72" width="620" height="462" fill="#FFFFFF" />
<line x1="128.1818181818182" y1="533.6" x2="128.1818181818182" y2="538.8611111111111" stroke="#262626" stroke-width="1.1111111111111112" />
<text x="128.1818181818182" y="557.6111111111111" font-family="DejaVu Sans, sans-serif" font-size="13.88888888888889" text-anchor="middle" fill="#262626">1</text>
<line x1="190.80808080808083" y1="533.6" x2="190.80808080808083" y2="538.8611111111111" stroke="#262626" stroke-width="1.1111111111111112" />
<text x="190.80808080808083" y="557.6111111111111" font-family="DejaVu Sans, sans-serif" font-size="13.88888888888889" text-anchor="middle" fill="#262626">2</text>
<line x1="253.43434343434345" y1="533.6" x2="253.43434343434345" y2="538.8611111111111" stroke="#262626" stroke-width="1.1111111111111112" />
<text x="253.43434343434345" y="557.6111111111111" font-family="DejaVu Sans, sans-serif" font-size="13.88888888888889" text-anchor="middle" fill="#262626">3</text>
<line x1="316.0606060606061" y1="533.6" x2="316.0606060606061" y2="538.8611111111111" stroke="#262626" stroke-width="1.1111111111111112" />
<text x="316.0606060606061" y="557.6111111111111" font-family="DejaVu Sans, sans-serif" font-size="13.88888888888889" text-anchor="middle" fill="#262626">4</text>
<line x1="378.6868686868687" y1="533.6" x2="378.6868686868687" y2="538.8611111111111" stroke="#262626" stroke-width="1.1111111111111112" />
<text x="378.6868686868687" y="557.6111111111111" font-family="DejaVu Sans, sans-serif" font-size="13.88888888888889" text-anchor="middle" fill="#262626">5</text>
<line x1="441.31313131313135" y1="533.6" x2="441.31313131313135" y2="538.8611111111111" stroke="#262626" stroke-width="1.1111111111111112" />
<text x="441.31313131313135" y="557.6111111111111" font-family="DejaVu Sans, sans-serif" font-size="13.88888888888889" text-anchor="middle" fill="#262626">6</text>
<line x1="503.939393939394" y1="533.6" x2="503.939393939394" y2="538.8611111111111" stroke="#262626" stroke-width="1.1111111111111112" />
<text x="503.939393939394" y="557.6111111111111" font-family="DejaVu Sans, sans-serif" font-size="13.88888888888889" text-anchor="middle" fill="#262626">7</text>
<line x1="566.5656565656566" y1="533.6" x2="566.5656565656566" y2="538.8611111111111" stroke="#262626" stroke-width="1.1111111111111112" />
<text x="566.5656565656566" y="557.6111111111111" font-family="DejaVu Sans, sans-serif" font-size="13.88888888888889" text-anchor="middle" fill="#262626">8</text>
<line x1="629.1919191919193" y1="533.6" x2="629.1919191919193" y2="538.8611111111111" stroke="#262626" stroke-width="1.1111111111111112" />
<text x="629.1919191919193" y="557.6111111111111" font-family="DejaVu Sans, sans-serif" font-size="13.88888888888889" text-anchor="middle" fill="#262626">9</text>
<line x1="691.8181818181819" y1="533.6" x2="691.8181818181819" y2="538.8611111111111" stroke="#262626" stroke-width="1.1111111111111112" />
<text x="691.8181818181819" y="557.6111111111111" font-family="DejaVu Sans, sans-serif" font-size="13.88888888888889" text-anchor="middle" fill="#262626">10</text>
<line x1="103.13131313131312" y1="533.6" x2="103.13131313131312" y2="538.8611111111111" stroke="#262626" stroke-width="1.1111111111111112" />
<line x1="115.65656565656565" y1="533.6" x2="115.65656565656565" y2="538.8611111111111" stroke="#262626" stroke-width="1.1111111111111112" />
<line x1="140.7070707070707" y1="533.6" x2="140.7070707070707" y2="538.8611111111111" stroke="#262626" stroke-width="1.1111111111111112" />
<line x1="153.2323232323232" y1="533.6" x2="153.2323232323232" y2="538.8611111111111" stroke="#262626" stroke-width="1.1111111111111112" />
<line x1="165.75757575757575" y1="533.6" x2="165.75757575757575" y2="538.8611111111111" stroke="#262626" stroke-width="1.1111111111111112" />
<line x1="178.2828282828283" y1="533.6" x2="178.2828282828283" y2="538.8611111111111" stroke="#262626" stroke-width="1.1111111111111112" />
<line x1="203.33333333333334" y1="533.6" x2="203.33333333333334" y2="538.8611111111111" stroke="#262626" stroke-width="1.1111111111111112" />
<line x1="215.85858585858585" y1="533.6" x2="215.85858585858585" y2="538.8611111111111" stroke="#262626" stroke-width="1.1111111111111112" />
<line x1="228.3838383838384" y1="533.6" x2="228.3838383838384" y2="538.8611111111111" stroke="#262626" stroke-width="1.1111111111111112" />
<line x1="240.9090909090909" y1="533.6" x2="240.9090909090909" y2="538.8611111111111" stroke="#262626" stroke-width="1.1111111111111112" />
<line x1="265.95959595959596" y1="533.6" x2="265.95959595959596" y2="538.8611111111111" stroke="#262626" stroke-width="1.1111111111111112" />
<line x1="278.4848484848485" y1="533.6" x2="278.4848484848485" y2="538.8611111111111" stroke="#262626" stroke-width="1.1111111111111112" />
<line x1="291.01010101010104" y1="533.6" x2="291.01010101010104" y2="538.8611111111111" stroke="#262626" stroke-width="1.1111111111111112" />
<line x1="303.5353535353536" y1="533.6" x2="303.5353535353536" y2="538.8611111111111" stroke="#262626" stroke-width="1.1111111111111112" />
<line x1="328.5858585858586" y1="533.6" x2="328.5858585858586" y2="538.8611111111111" stroke="#262626" stroke-width="1.1111111111111112" />
<line x1="341.11111111111114" y1="533.6" x2="341.11111111111114" y2="538.8611111111111" stroke="#262626" stroke-width="1.1111111111111112" />
<line x1="353.6363636363636" y1="533.6" x2="353.6363636363636" y2="538.8611111111111" stroke="#262626" stroke-width="1.1111111111111112" />
<line x1="366.16161616161617" y1="533.6" x2="366.16161616161617" y2="538.8611111111111" stroke="#262626" stroke-width="1.1111111111111112" />
<line x1="391.21212121212125" y1="533.6" x2="391.21212121212125" y2="538.8611111111111" stroke="#262626" stroke-width="1.1111111111111112" />
<line x1="403.7373737373738" y1="533.6" x2="403.7373737373738" y2="538.8611111111111" stroke="#262626" stroke-width="1.1111111111111112" />
<line x1="416.26262626262627" y1="533.6" x2="416.26262626262627" y2="538.8611111111111" stroke="#262626" stroke-width="1.1111111111111112" />
<line x1="428.7878787878788" y1="533.6" x2="428.7878787878788" y2="538.8611111111111" stroke="#262626" stroke-width="1.1111111111111112" />
<line x1="453.8383838383839" y1="533.6" x2="453.8383838383839" y2="538.8611111111111" stroke="#262626" stroke-width="1.1111111111111112" />
<line x1="466.36363636363643" y1="533.6" x2="466.36363636363643" y2="538.8611111111111" stroke="#262626" stroke-width="1.1111111111111112" />
<line x1="478.8888888888889" y1="533.6" x2="478.8888888888889" y2="538.8611111111111" stroke="#262626" stroke-width="1.1111111111111112" />
<line x1="491.41414141414145" y1="533.6" x2="491.41414141414145" y2="538.8611111111111" stroke="#262626" stroke-width="1.1111111111111112" />
<line x1="516.4646464646465" y1="533.6" x2="516.4646464646465" y2="538.8611111111111" stroke="#262626" stroke-width="1.1111111111111112" />
<line x1="528.9898989898991" y1="533.6" x2="528.9898989898991" y2="538.8611111111111" stroke="#262626" stroke-width="1.1111111111111112" />
<line x1="541.5151515151515" y1="533.6" x2="541.5151515151515" y2="538.8611111111111" stroke="#262626" stroke-width="1.1111111111111112" />
<line x1="554.0404040404042" y1="533.6" x2="554.0404040404042" y2="538.8611111111111" stroke="#262626" stroke-width="1.1111111111111112" />
<line x1="579.0909090909091" y1="533.6" x2="579.0909090909091" y2="538.8611111111111" stroke="#262626" stroke-width="1.1111111111111112" />
<line x1="591.6161616161617" y1="533.6" x2="591.6161616161617" y2="538.8611111111111" stroke="#262626" stroke-width="1.1111111111111112" />
<line x1="604.1414141414142" y1="533.6" x2="604.1414141414142" y2="538.8611111111111" stroke="#262626" stroke-width="1.1111111111111112" />
<line x1="616.6666666666667" y1="533.6" x2="616.6666666666667" y2="538.8611111111111" stroke="#262626" stroke-width="1.1111111111111112" />
<line x1="641.7171717171717" y1="533.6" x2="641.7171717171717" y2="538.8611111111111" stroke="#262626" stroke-width="1.1111111111111112" />
<line x1="654.2424242424244" y1="533.6" x2="654.2424242424244" y2="538.8611111111111" stroke="#262626" stroke-width="1.1111111111111112" />
<line x1="666.7676767676768" y1="533.6" x2="666.7676767676768" y2="538.8611111111111" stroke="#262626" stroke-width="1.1111111111111112" />
<line x1="679.2929292929294" y1="533.6" x2="679.2929292929294" y2="538.8611111111111" stroke="#262626" stroke-width="1.1111111111111112" />
<line x1="704.3434343434344" y1="533.6" x2="704.3434343434344" y2="538.8611111111111" stroke="#262626" stroke-width="1.1111111111111112" />
<line x1="716.868686868687" y1="533.6" x2="716.868686868687" y2="538.8611111111111" stroke="#262626" stroke-width="1.1111111111111112" />
<line x1="95.13888888888889" y1="518.7534246575342" x2="100.4" y2="518.7534246575342" stroke="#262626" stroke-width="1.1111111111111112" />
<text x="90.27777777777777" y="522.7534246575342" font-family="DejaVu Sans, sans-serif" font-size="13.88888888888889" text-anchor="end" fill="#262626">2</text>
<line x1="95.13888888888889" y1="461.2191780821918" x2="100.4" y2="461.2191780821918" stroke="#262626" stroke-width="1.1111111111111112" />
<text x="90.27777777777777" y="465.2191780821918" font-family="DejaVu Sans, sans-serif" font-size="13.88888888888889" text-anchor="end" fill="#262626">3</text>
<line x1="95.13888888888889" y1="403.68493150684935" x2="100.4" y2="403.68493150684935" stroke="#262626" stroke-width="1.1111111111111112" />
<text x="90.27777777777777" y="407.68493150684935" font-family="DejaVu Sans, sans-serif" font-size="13.88888888888889" text-anchor="end" fill="#262626">4</text>
<line x1="95.13888888888889" y1="346.1506849315069" x2="100.4" y2="346.1506849315069" stroke="#262626" stroke-width="1.1111111111111112" />
<text x="90.27777777777777" y="350.1506849315069" font-family="DejaVu Sans, sans-serif" font-size="13.88888888888889" text-anchor="end" fill="#262626">5</text>
<line x1="95.13888888888889" y1="288.6164383561644" x2="100.4" y2="288.6164383561644" stroke="#262626" stroke-width="1.1111111111111112" />
<text x="90.27777777777777" y="292.6164383561644" font-family="DejaVu Sans, sans-serif" font-size="13.88888888888889" text-anchor="end" fill="#262626">6</text>
<line x1="95.13888888888889" y1="231.08219178082197" x2="100.4" y2="231.08219178082197" stroke="#262626" stroke-width="1.1111111111111112" />
<text x="90.27777777777777" y="235.08219178082197" font-family="DejaVu Sans, sans-serif" font-size="13.88888888888889" text-anchor="end" fill="#262626">7</text>
<line x1="95.13888888888889" y1="173.5479452054795" x2="100.4" y2="173.5479452054795" stroke="#262626" stroke-width="1.1111111111111112" />
<text x="90.27777777777777" y="177.5479452054795" font-family="DejaVu Sans, sans-serif" font-size="13.88888888888889" text-anchor="end" fill="#262626">8</text>
<line x1="95.13888888888889" y1="116.01369863013701" x2="100.4" y2="116.01369863013701" stroke="#262626" stroke-width="1.1111111111111112" />
<text x="90.27777777777777" y="120.01369863013701" font-family="DejaVu Sans, sans-serif" font-size="13.88888888888889" text-anchor="end" fill="#262626">9</text>
<line x1="95.13888888888889" y1="530.2602739726027" x2="100.4" y2="530.2602739726027" stroke="#262626" stroke-width="1.1111111111111112" />
<line x1="95.13888888888889" y1="507.24657534246575" x2="100.4" y2="507.24657534246575" stroke="#262626" stroke-width="1.1111111111111112" />
<line x1="95.13888888888889" y1="495.7397260273973" x2="100.4" y2="495.7397260273973" stroke="#262626" stroke-width="1.1111111111111112" />
<line x1="95.13888888888889" y1="484.2328767123288" x2="100.4" y2="484.2328767123288" stroke="#262626" stroke-width="1.1111111111111112" />
<line x1="95.13888888888889" y1="472.7260273972603" x2="100.4" y2="472.7260273972603" stroke="#262626" stroke-width="1.1111111111111112" />
<line x1="95.13888888888889" y1="449.71232876712327" x2="100.4" y2="449.71232876712327" stroke="#262626" stroke-width="1.1111111111111112" />
<line x1="95.13888888888889" y1="438.2054794520548" x2="100.4" y2="438.2054794520548" stroke="#262626" stroke-width="1.1111111111111112" />
<line x1="95.13888888888889" y1="426.6986301369863" x2="100.4" y2="426.6986301369863" stroke="#262626" stroke-width="1.1111111111111112" />
<line x1="95.13888888888889" y1="415.19178082191786" x2="100.4" y2="415.19178082191786" stroke="#262626" stroke-width="1.1111111111111112" />
<line x1="95.13888888888889" y1="392.17808219178085" x2="100.4" y2="392.17808219178085" stroke="#262626" stroke-width="1.1111111111111112" />
<line x1="95.13888888888889" y1="380.67123287671234" x2="100.4" y2="380.67123287671234" stroke="#262626" stroke-width="1.1111111111111112" />
<line x1="95.13888888888889" y1="369.1643835616439" x2="100.4" y2="369.1643835616439" stroke="#262626" stroke-width="1.1111111111111112" />
<line x1="95.13888888888889" y1="357.6575342465754" x2="100.4" y2="357.6575342465754" stroke="#262626" stroke-width="1.1111111111111112" />
<line x1="95.13888888888889" y1="334.64383561643837" x2="100.4" y2="334.64383561643837" stroke="#262626" stroke-width="1.1111111111111112" />
<line x1="95.13888888888889" y1="323.13698630136986" x2="100.4" y2="323.13698630136986" stroke="#262626" stroke-width="1.1111111111111112" />
<line x1="95.13888888888889" y1="311.6301369863014" x2="100.4" y2="311.6301369863014" stroke="#262626" stroke-width="1.1111111111111112" />
<line x1="95.13888888888889" y1="300.1232876712329" x2="100.4" y2="300.1232876712329" stroke="#262626" stroke-width="1.1111111111111112" />
<line x1="95.13888888888889" y1="277.1095890410959" x2="100.4" y2="277.1095890410959" stroke="#262626" stroke-width="1.1111111111111112" />
<line x1="95.13888888888889" y1="265.6027397260274" x2="100.4" y2="265.6027397260274" stroke="#262626" stroke-width="1.1111111111111112" />
<line x1="95.13888888888889" y1="254.09589041095893" x2="100.4" y2="254.09589041095893" stroke="#262626" stroke-width="1.1111111111111112" />
<line x1="95.13888888888889" y1="242.58904109589048" x2="100.4" y2="242.58904109589048" stroke="#262626" stroke-width="1.1111111111111112" />
<line x1="95.13888888888889" y1="219.57534246575347" x2="100.4" y2="219.57534246575347" stroke="#262626" stroke-width="1.1111111111111112" />
<line x1="95.13888888888889" y1="208.06849315068496" x2="100.4" y2="208.06849315068496" stroke="#262626" stroke-width="1.1111111111111112" />
<line x1="95.13888888888889" y1="196.5616438356165" x2="100.4" y2="196.5616438356165" stroke="#262626" stroke-width="1.1111111111111112" />
<line x1="95.13888888888889" y1="185.054794520548" x2="100.4" y2="185.054794520548" stroke="#262626" stroke-width="1.1111111111111112" />
<line x1="95.13888888888889" y1="162.04109589041104" x2="100.4" y2="162.04109589041104" stroke="#262626" stroke-width="1.1111111111111112" />
<line x1="95.13888888888889" y1="150.53424657534248" x2="100.4" y2="150.53424657534248" stroke="#262626" stroke-width="1.1111111111111112" />
<line x1="95.13888888888889" y1="139.02739726027403" x2="100.4" y2="139.02739726027403" stroke="#262626" stroke-width="1.1111111111111112" />
<line x1="95.13888888888889" y1="127.52054794520546" x2="100.4" y2="127.52054794520546" stroke="#262626" stroke-width="1.1111111111111112" />
<line x1="95.13888888888889" y1="104.50684931506862" x2="100.4" y2="104.50684931506862" stroke="#262626" stroke-width="1.1111111111111112" />
<line x1="95.13888888888889" y1="93" x2="100.4" y2="93" stroke="#262626" stroke-width="1.1111111111111112" />
<line x1="95.13888888888889" y1="81.4931506849316" x2="100.4" y2="81.4931506849316" stroke="#262626" stroke-width="1.1111111111111112" />
<g class="series" aria-label="Data">
<polyline points="128.1818181818182,513 190.80808080808083,374.9178082191781 253.43434343434345,449.71232876712327 316.0606060606061,242.58904109589045 378.6868686868687,340.3972602739726 441.31313131313135,213.8219178082192 503.939393939394,259.8493150684932 566.5656565656566,121.76712328767127 629.1919191919193,219.57534246575347 691.8181818181819,93" fill="none" stroke="#1F77B4" stroke-width="1.5" />
</g>
<rect x="564.5656565656566" y="109.76712328767121" width="26.6" height="14" fill="#FFFFFF" />
<text x="566.5656565656566" y="121.76712328767121" font-family="DejaVu Sans, sans-serif" font-size="10" text-anchor="start" fill="#262626">Peak</text>
<path d="M 566.5656565656566 121.76712328767121 L 566.5656565656566 121.76712328767121 " fill="none" stroke="#262626" stroke-width="1" />
<text x="190.80808080808083" y="374.9178082191781" font-family="DejaVu Sans, sans-serif" font-size="10" text-anchor="middle" transform="rotate(30,190.80808080808083,374.9178082191781)" fill="#262626">Rotated label</text>
<g class="spine">
<line x1="100" y1="534" x2="720" y2="534" stroke="#262626" stroke-width="0.8" />
</g>
<g class="spine">
<line x1="100" y1="72" x2="720" y2="72" stroke="#262626" stroke-width="0.8" />
</g>
<g class="spine">
<line x1="100" y1="72" x2="100" y2="534" stroke="#262626" stroke-width="0.8" />
</g>
<g class="spine">
<line x1="720" y1="72" x2="720" y2="534" stroke="#262626" stroke-width="0.8" />
</g>
<rect x="624.2777777777778" y="82" width="85.72222222222223" height="25.72222222222222" fill="#FFFFFF" fill-opacity="0.8" stroke="#CCCCCC" stroke-width="0.5" />
<g class="legend" aria-label="Chart legend">
<line x1="632.2777777777778" y1="94.86111111111111" x2="660.0555555555557" y2="94.86111111111111" stroke="#1F77B4" stroke-width="1.5" />
<text x="671.1666666666667" y="98.72222222222223" font-family="DejaVu Sans, sans-serif" font-size="13.88888888888889" text-anchor="start" fill="#262626">Data</text>
</g>
<text x="410" y="64" font-family="DejaVu Sans, sans-serif" font-size="15.88888888888889" text-anchor="middle" font-weight="bold" fill="#262626">Annotation Enhancements</text>
</svg>
