<svg xmlns="http://www.w3.org/2000/svg" viewBox="0 0 800 600" width="800" height="600" role="img" aria-labelledby="chart-title">
<title id="chart-title"></title>
<rect x="0" y="0" width="800" height="600" fill="#FFFFFF" />
<rect x="60" y="40" width="720" height="510" fill="#FFFFFF" />
<line x1="165.45454545454547" y1="40" x2="165.45454545454547" y2="550" stroke="#B0B0B0" stroke-width="0.8" />
<line x1="310.90909090909093" y1="40" x2="310.90909090909093" y2="550" stroke="#B0B0B0" stroke-width="0.8" />
<line x1="456.3636363636364" y1="40" x2="456.3636363636364" y2="550" stroke="#B0B0B0" stroke-width="0.8" />
<line x1="601.8181818181819" y1="40" x2="601.8181818181819" y2="550" stroke="#B0B0B0" stroke-width="0.8" />
<line x1="747.2727272727274" y1="40" x2="747.2727272727274" y2="550" stroke="#B0B0B0" stroke-width="0.8" />
<line x1="60" y1="533.1693648816936" x2="780" y2="533.1693648816936" stroke="#B0B0B0" stroke-width="0.8" />
<line x1="60" y1="406.145703611457" x2="780" y2="406.145703611457" stroke="#B0B0B0" stroke-width="0.8" />
<line x1="60" y1="279.12204234122044" x2="780" y2="279.12204234122044" stroke="#B0B0B0" stroke-width="0.8" />
<line x1="60" y1="152.0983810709838" x2="780" y2="152.0983810709838" stroke="#B0B0B0" stroke-width="0.8" />
<line x1="165.45454545454547" y1="549.6" x2="165.45454545454547" y2="553.5" stroke="#000000" stroke-width="0.8" />
<text x="165.45454545454547" y="569.5" font-family="sans-serif" font-size="13" text-anchor="middle" fill="#000000">2</text>
<line x1="310.90909090909093" y1="549.6" x2="310.90909090909093" y2="553.5" stroke="#000000" stroke-width="0.8" />
<text x="310.90909090909093" y="569.5" font-family="sans-serif" font-size="13" text-anchor="middle" fill="#000000">4</text>
<line x1="456.3636363636364" y1="549.6" x2="456.3636363636364" y2="553.5" stroke="#000000" stroke-width="0.8" />
<text x="456.3636363636364" y="569.5" font-family="sans-serif" font-size="13" text-anchor="middle" fill="#000000">6</text>
<line x1="601.8181818181819" y1="549.6" x2="601.8181818181819" y2="553.5" stroke="#000000" stroke-width="0.8" />
<text x="601.8181818181819" y="569.5" font-family="sans-serif" font-size="13" text-anchor="middle" fill="#000000">8</text>
<line x1="747.2727272727274" y1="549.6" x2="747.2727272727274" y2="553.5" stroke="#000000" stroke-width="0.8" />
<text x="747.2727272727274" y="569.5" font-family="sans-serif" font-size="13" text-anchor="middle" fill="#000000">10</text>
<line x1="78.18181818181819" y1="549.6" x2="78.18181818181819" y2="553.5" stroke="#000000" stroke-width="0.8" />
<line x1="107.27272727272728" y1="549.6" x2="107.27272727272728" y2="553.5" stroke="#000000" stroke-width="0.8" />
<line x1="136.36363636363637" y1="549.6" x2="136.36363636363637" y2="553.5" stroke="#000000" stroke-width="0.8" />
<line x1="194.54545454545456" y1="549.6" x2="194.54545454545456" y2="553.5" stroke="#000000" stroke-width="0.8" />
<line x1="223.63636363636365" y1="549.6" x2="223.63636363636365" y2="553.5" stroke="#000000" stroke-width="0.8" />
<line x1="252.72727272727275" y1="549.6" x2="252.72727272727275" y2="553.5" stroke="#000000" stroke-width="0.8" />
<line x1="281.81818181818187" y1="549.6" x2="281.81818181818187" y2="553.5" stroke="#000000" stroke-width="0.8" />
<line x1="340.00000000000006" y1="549.6" x2="340.00000000000006" y2="553.5" stroke="#000000" stroke-width="0.8" />
<line x1="369.0909090909091" y1="549.6" x2="369.0909090909091" y2="553.5" stroke="#000000" stroke-width="0.8" />
<line x1="398.18181818181824" y1="549.6" x2="398.18181818181824" y2="553.5" stroke="#000000" stroke-width="0.8" />
<line x1="427.2727272727273" y1="549.6" x2="427.2727272727273" y2="553.5" stroke="#000000" stroke-width="0.8" />
<line x1="485.4545454545455" y1="549.6" x2="485.4545454545455" y2="553.5" stroke="#000000" stroke-width="0.8" />
<line x1="514.5454545454545" y1="549.6" x2="514.5454545454545" y2="553.5" stroke="#000000" stroke-width="0.8" />
<line x1="543.6363636363637" y1="549.6" x2="543.6363636363637" y2="553.5" stroke="#000000" stroke-width="0.8" />
<line x1="572.7272727272727" y1="549.6" x2="572.7272727272727" y2="553.5" stroke="#000000" stroke-width="0.8" />
<line x1="630.909090909091" y1="549.6" x2="630.909090909091" y2="553.5" stroke="#000000" stroke-width="0.8" />
<line x1="660.0000000000001" y1="549.6" x2="660.0000000000001" y2="553.5" stroke="#000000" stroke-width="0.8" />
<line x1="689.0909090909091" y1="549.6" x2="689.0909090909091" y2="553.5" stroke="#000000" stroke-width="0.8" />
<line x1="718.1818181818182" y1="549.6" x2="718.1818181818182" y2="553.5" stroke="#000000" stroke-width="0.8" />
<line x1="776.3636363636365" y1="549.6" x2="776.3636363636365" y2="553.5" stroke="#000000" stroke-width="0.8" />
<line x1="529.6693648816936" y1="60" x2="533.5693648816936" y2="60" stroke="#000000" stroke-width="0.8" />
<text x="53.5" y="537.1693648816936" font-family="sans-serif" font-size="13" text-anchor="end" fill="#000000">2</text>
<line x1="402.645703611457" y1="60" x2="406.545703611457" y2="60" stroke="#000000" stroke-width="0.8" />
<text x="53.5" y="410.145703611457" font-family="sans-serif" font-size="13" text-anchor="end" fill="#000000">4</text>
<line x1="275.62204234122044" y1="60" x2="279.5220423412204" y2="60" stroke="#000000" stroke-width="0.8" />
<text x="53.5" y="283.12204234122044" font-family="sans-serif" font-size="13" text-anchor="end" fill="#000000">6</text>
<line x1="148.5983810709838" y1="60" x2="152.4983810709838" y2="60" stroke="#000000" stroke-width="0.8" />
<text x="53.5" y="156.0983810709838" font-family="sans-serif" font-size="13" text-anchor="end" fill="#000000">8</text>
<line x1="504.2646326276463" y1="60" x2="508.16463262764626" y2="60" stroke="#000000" stroke-width="0.8" />
<line x1="478.859900373599" y1="60" x2="482.75990037359895" y2="60" stroke="#000000" stroke-width="0.8" />
<line x1="453.4551681195517" y1="60" x2="457.35516811955165" y2="60" stroke="#000000" stroke-width="0.8" />
<line x1="428.0504358655043" y1="60" x2="431.9504358655043" y2="60" stroke="#000000" stroke-width="0.8" />
<line x1="377.24097135740965" y1="60" x2="381.1409713574096" y2="60" stroke="#000000" stroke-width="0.8" />
<line x1="351.8362391033624" y1="60" x2="355.7362391033624" y2="60" stroke="#000000" stroke-width="0.8" />
<line x1="326.43150684931504" y1="60" x2="330.331506849315" y2="60" stroke="#000000" stroke-width="0.8" />
<line x1="301.02677459526774" y1="60" x2="304.9267745952677" y2="60" stroke="#000000" stroke-width="0.8" />
<line x1="250.21731008717308" y1="60" x2="254.11731008717308" y2="60" stroke="#000000" stroke-width="0.8" />
<line x1="224.81257783312577" y1="60" x2="228.71257783312578" y2="60" stroke="#000000" stroke-width="0.8" />
<line x1="199.4078455790784" y1="60" x2="203.30784557907842" y2="60" stroke="#000000" stroke-width="0.8" />
<line x1="174.00311332503117" y1="60" x2="177.90311332503117" y2="60" stroke="#000000" stroke-width="0.8" />
<line x1="123.1936488169365" y1="60" x2="127.09364881693651" y2="60" stroke="#000000" stroke-width="0.8" />
<line x1="97.78891656288909" y1="60" x2="101.68891656288909" y2="60" stroke="#000000" stroke-width="0.8" />
<line x1="72.3841843088419" y1="60" x2="76.2841843088419" y2="60" stroke="#000000" stroke-width="0.8" />
<line x1="46.97945205479459" y1="60" x2="50.87945205479459" y2="60" stroke="#000000" stroke-width="0.8" />
<g class="series" aria-label="Data">
<polyline points="92.72727272727272,526.8181818181818 165.45454545454547,374.3897882938979 238.1818181818182,456.9551681195516 310.90909090909093,228.31257783312577 383.6363636363637,336.2826899128269 456.3636363636364,196.55666251556661 529.0909090909091,247.36612702366125 601.8181818181819,94.93773349937732 674.5454545454546,202.9078455790784 747.2727272727274,63.18181818181813" fill="none" stroke="#1F77B4" stroke-width="1.5" />
</g>
<rect x="599.8181818181819" y="82.93773349937726" width="26.6" height="14" fill="#FFFFFF" />
<text x="601.8181818181819" y="94.93773349937726" font-family="sans-serif" font-size="10" text-anchor="start" fill="#000000">Peak</text>
<path d="M 601.8181818181819 94.93773349937726 L 601.8181818181819 94.93773349937726 " fill="none" stroke="#000000" stroke-width="1" />
<text x="165.45454545454547" y="374.3897882938979" font-family="sans-serif" font-size="10" text-anchor="middle" transform="rotate(30,165.45454545454547,374.3897882938979)" fill="#000000">Rotated label</text>
<g class="spine">
<line x1="60" y1="550" x2="780" y2="550" stroke="#000000" stroke-width="0.8" />
</g>
<g class="spine">
<line x1="60" y1="40" x2="780" y2="40" stroke="#000000" stroke-width="0.8" />
</g>
<g class="spine">
<line x1="60" y1="40" x2="60" y2="550" stroke="#000000" stroke-width="0.8" />
</g>
<g class="spine">
<line x1="780" y1="40" x2="780" y2="550" stroke="#000000" stroke-width="0.8" />
</g>
<rect x="707.14" y="50" width="62.86" height="28" fill="#FFFFFF" fill-opacity="0.8" stroke="#000000" stroke-width="0.5" />
<g class="legend" aria-label="Chart legend">
<rect x="715.14" y="58" width="12" height="12" fill="#1F77B4" />
<text x="733.14" y="69" font-family="sans-serif" font-size="13" text-anchor="start" fill="#000000">Data</text>
</g>
<text x="420" y="32" font-family="sans-serif" font-size="15" text-anchor="middle" font-weight="bold" fill="#000000">Annotation Enhancements</text>
</svg>
