<svg xmlns="http://www.w3.org/2000/svg" viewBox="0 0 800 600" width="800" height="600" role="img" aria-labelledby="chart-title">
<title id="chart-title"></title>
<rect x="0" y="0" width="800" height="600" fill="#FFFFFF" />
<rect x="60" y="40" width="720" height="510" fill="#FFFFFF" />
<line x1="92.72727272727272" y1="40" x2="92.72727272727272" y2="550" stroke="#B0B0B0" stroke-width="0.8" />
<line x1="256.3636363636364" y1="40" x2="256.3636363636364" y2="550" stroke="#B0B0B0" stroke-width="0.8" />
<line x1="420" y1="40" x2="420" y2="550" stroke="#B0B0B0" stroke-width="0.8" />
<line x1="583.6363636363636" y1="40" x2="583.6363636363636" y2="550" stroke="#B0B0B0" stroke-width="0.8" />
<line x1="747.2727272727273" y1="40" x2="747.2727272727273" y2="550" stroke="#B0B0B0" stroke-width="0.8" />
<line x1="60" y1="526.8181818181819" x2="780" y2="526.8181818181819" stroke="#B0B0B0" stroke-width="0.8" />
<line x1="60" y1="393.58934169279" x2="780" y2="393.58934169279" stroke="#B0B0B0" stroke-width="0.8" />
<line x1="60" y1="260.36050156739816" x2="780" y2="260.36050156739816" stroke="#B0B0B0" stroke-width="0.8" />
<line x1="60" y1="127.1316614420063" x2="780" y2="127.1316614420063" stroke="#B0B0B0" stroke-width="0.8" />
<text x="174.54545454545453" y="565" font-family="sans-serif" font-size="13" text-anchor="middle" fill="#000000">Alpha</text>
<text x="338.18181818181813" y="565" font-family="sans-serif" font-size="13" text-anchor="middle" fill="#000000">Beta</text>
<text x="501.81818181818176" y="565" font-family="sans-serif" font-size="13" text-anchor="middle" fill="#000000">Gamma</text>
<text x="665.4545454545455" y="565" font-family="sans-serif" font-size="13" text-anchor="middle" fill="#000000">Delta</text>
<line x1="523.3181818181819" y1="60" x2="527.2181818181818" y2="60" stroke="#000000" stroke-width="0.8" />
<text x="53.5" y="530.8181818181819" font-family="sans-serif" font-size="13" text-anchor="end" fill="#000000">0</text>
<line x1="390.08934169279" y1="60" x2="393.98934169279" y2="60" stroke="#000000" stroke-width="0.8" />
<text x="53.5" y="397.58934169279" font-family="sans-serif" font-size="13" text-anchor="end" fill="#000000">10k</text>
<line x1="256.86050156739816" y1="60" x2="260.76050156739814" y2="60" stroke="#000000" stroke-width="0.8" />
<text x="53.5" y="264.36050156739816" font-family="sans-serif" font-size="13" text-anchor="end" fill="#000000">20k</text>
<line x1="123.6316614420063" y1="60" x2="127.53166144200631" y2="60" stroke="#000000" stroke-width="0.8" />
<text x="53.5" y="131.1316614420063" font-family="sans-serif" font-size="13" text-anchor="end" fill="#000000">30k</text>
<line x1="496.6724137931035" y1="60" x2="500.57241379310346" y2="60" stroke="#000000" stroke-width="0.8" />
<line x1="470.0266457680251" y1="60" x2="473.9266457680251" y2="60" stroke="#000000" stroke-width="0.8" />
<line x1="443.3808777429468" y1="60" x2="447.28087774294676" y2="60" stroke="#000000" stroke-width="0.8" />
<line x1="416.7351097178684" y1="60" x2="420.6351097178684" y2="60" stroke="#000000" stroke-width="0.8" />
<line x1="363.4435736677117" y1="60" x2="367.34357366771167" y2="60" stroke="#000000" stroke-width="0.8" />
<line x1="336.7978056426333" y1="60" x2="340.6978056426333" y2="60" stroke="#000000" stroke-width="0.8" />
<line x1="310.1520376175549" y1="60" x2="314.0520376175549" y2="60" stroke="#000000" stroke-width="0.8" />
<line x1="283.50626959247654" y1="60" x2="287.4062695924765" y2="60" stroke="#000000" stroke-width="0.8" />
<line x1="230.21473354231978" y1="60" x2="234.11473354231978" y2="60" stroke="#000000" stroke-width="0.8" />
<line x1="203.56896551724145" y1="60" x2="207.46896551724146" y2="60" stroke="#000000" stroke-width="0.8" />
<line x1="176.92319749216307" y1="60" x2="180.82319749216308" y2="60" stroke="#000000" stroke-width="0.8" />
<line x1="150.2774294670847" y1="60" x2="154.1774294670847" y2="60" stroke="#000000" stroke-width="0.8" />
<line x1="96.98589341692792" y1="60" x2="100.88589341692793" y2="60" stroke="#000000" stroke-width="0.8" />
<line x1="70.3401253918496" y1="60" x2="74.2401253918496" y2="60" stroke="#000000" stroke-width="0.8" />
<line x1="43.694357366771214" y1="60" x2="47.59435736677121" y2="60" stroke="#000000" stroke-width="0.8" />
<g class="series" aria-label="Q1 Sales">
<rect x="109.09090909090908" y="360.28213166144207" width="130.90909090909093" height="166.5360501567398" fill="#1F77B4" />
<text x="174.54545454545453" y="356.28213166144207" font-family="sans-serif" font-size="11" text-anchor="middle">12500</text>
<rect x="272.72727272727275" y="63.181818181818244" width="130.90909090909088" height="463.6363636363636" fill="#1F77B4" />
<text x="338.1818181818182" y="59.181818181818244" font-family="sans-serif" font-size="11" text-anchor="middle">34800</text>
<rect x="436.3636363636364" y="417.57053291536056" width="130.90909090909088" height="109.24764890282131" fill="#1F77B4" />
<text x="501.8181818181818" y="413.57053291536056" font-family="sans-serif" font-size="11" text-anchor="middle">8200</text>
<rect x="600" y="159.10658307210036" width="130.90909090909088" height="367.7115987460815" fill="#1F77B4" />
<text x="665.4545454545455" y="155.10658307210036" font-family="sans-serif" font-size="11" text-anchor="middle">27600</text>
</g>
<g class="spine">
<line x1="60" y1="550" x2="780" y2="550" stroke="#000000" stroke-width="0.8" />
</g>
<g class="spine">
<line x1="60" y1="40" x2="780" y2="40" stroke="#000000" stroke-width="0.8" />
</g>
<g class="spine">
<line x1="60" y1="40" x2="60" y2="550" stroke="#000000" stroke-width="0.8" />
</g>
<g class="spine">
<line x1="780" y1="40" x2="780" y2="550" stroke="#000000" stroke-width="0.8" />
</g>
<rect x="681.92" y="50" width="88.08" height="28" fill="#FFFFFF" fill-opacity="0.8" stroke="#000000" stroke-width="0.5" />
<g class="legend" aria-label="Chart legend">
<rect x="689.92" y="58" width="12" height="12" fill="#1F77B4" />
<text x="707.92" y="69" font-family="sans-serif" font-size="13" text-anchor="start" fill="#000000">Q1 Sales</text>
</g>
<text x="420" y="32" font-family="sans-serif" font-size="15" text-anchor="middle" font-weight="bold" fill="#000000">Sales by Product</text>
<text x="15" y="295" font-family="sans-serif" font-size="13" text-anchor="middle" transform="rotate(-90,15,295)" fill="#000000">Revenue ($)</text>
</svg>
