<svg xmlns="http://www.w3.org/2000/svg" viewBox="0 0 800 600" width="800" height="600" style="width:100%;height:auto" role="img" aria-labelledby="chart-title">
<title id="chart-title"></title>
<rect x="0" y="0" width="800" height="600" fill="#FFFFFF" />
<rect x="100" y="72" width="620" height="462" fill="#FFFFFF" />
<line x1="165.26315789473685" y1="533.6" x2="165.26315789473685" y2="538.8611111111111" stroke="#262626" stroke-width="1.1111111111111112" />
<path d="M4.74718 -8.7755L2.889 -3.73671L6.61214 -3.73671L4.74718 -8.7755ZM3.97407 -10.1251L5.52707 -10.1251L9.38585 0L7.9617 0L7.03939 -2.59739L2.47531 -2.59739L1.55301 0L0.108507 0L3.97407 -10.1251ZM10.81 -10.5523L12.0578 -10.5523L12.0578 0L10.81 0L10.81 -10.5523ZM15.8759 -1.13932L15.8759 2.889L14.6213 2.889L14.6213 -7.59549L15.8759 -7.59549L15.8759 -6.4426Q16.2693 -7.12077 16.8694 -7.44968Q17.4696 -7.77859 18.3038 -7.77859Q19.6872 -7.77859 20.5519 -6.67996Q21.4166 -5.58133 21.4166 -3.79096Q21.4166 -2.0006 20.5519 -0.901964Q19.6872 0.196669 18.3038 0.196669Q17.4696 0.196669 16.8694 -0.132243Q16.2693 -0.461155 15.8759 -1.13932ZM20.1213 -3.79096Q20.1213 -5.16764 19.555 -5.95093Q18.9887 -6.73421 17.9986 -6.73421Q17.0085 -6.73421 16.4422 -5.95093Q15.8759 -5.16764 15.8759 -3.79096Q15.8759 -2.41428 16.4422 -1.631Q17.0085 -0.847711 17.9986 -0.847711Q18.9887 -0.847711 19.555 -1.631Q20.1213 -2.41428 20.1213 -3.79096ZM29.7987 -4.58442L29.7987 0L28.5509 0L28.5509 -4.54373Q28.5509 -5.62202 28.1304 -6.15777Q27.71 -6.69352 26.869 -6.69352Q25.8586 -6.69352 25.2753 -6.04926Q24.6921 -5.405 24.6921 -4.29281L24.6921 0L23.4375 0L23.4375 -10.5523L24.6921 -10.5523L24.6921 -6.41547Q25.1397 -7.10042 25.7467 -7.43951Q26.3536 -7.77859 27.1471 -7.77859Q28.4559 -7.77859 29.1273 -6.96818Q29.7987 -6.15777 29.7987 -4.58442ZM35.7395 -3.81809Q34.2272 -3.81809 33.6439 -3.47222Q33.0607 -3.12636 33.0607 -2.29221Q33.0607 -1.6276 33.4981 -1.23766Q33.9355 -0.84771 34.6883 -0.847711Q35.7259 -0.847711 36.3532 -1.58352Q36.9805 -2.31934 36.9805 -3.54004L36.9805 -3.81809L35.7395 -3.81809ZM38.2284 -4.3335L38.2284 0L36.9805 0L36.9805 -1.15289Q36.5533 -0.461155 35.9158 -0.132243Q35.2783 0.196669 34.356 0.196669Q33.1896 0.196669 32.5012 -0.457764Q31.8129 -1.1122 31.8129 -2.21083Q31.8129 -3.49257 32.6708 -4.14361Q33.5286 -4.79465 35.2309 -4.79465L36.9805 -4.79465L36.9805 -4.91672Q36.9805 -5.77799 36.4143 -6.24932Q35.848 -6.72065 34.8239 -6.72065Q34.1729 -6.72065 33.5558 -6.56467Q32.9386 -6.40869 32.369 -6.09673L32.369 -7.24962Q33.0539 -7.51411 33.6982 -7.64635Q34.3424 -7.77859 34.9528 -7.77859Q36.6007 -7.77859 37.4146 -6.9241Q38.2284 -6.06961 38.2284 -4.3335Z" fill="#262626" transform="translate(165.26315789473685,549) translate(-19.744873046875,0)" />
<line x1="328.42105263157896" y1="533.6" x2="328.42105263157896" y2="538.8611111111111" stroke="#262626" stroke-width="1.1111111111111112" />
<path d="M2.73302 -4.83534L2.73302 -1.12576L4.93028 -1.12576Q6.0357 -1.12576 6.56806 -1.58352Q7.10042 -2.04129 7.10042 -2.98394Q7.10042 -3.93338 6.56806 -4.38436Q6.0357 -4.83534 4.93028 -4.83534L2.73302 -4.83534ZM2.73302 -8.9993L2.73302 -5.94754L4.76074 -5.94754Q5.76443 -5.94754 6.2561 -6.32392Q6.74778 -6.7003 6.74778 -7.47342Q6.74778 -8.23975 6.2561 -8.61952Q5.76443 -8.99929 4.76074 -8.9993L2.73302 -8.9993ZM1.36312 -10.1251L4.86247 -10.1251Q6.42904 -10.1251 7.27675 -9.47401Q8.12446 -8.82297 8.12446 -7.62261Q8.12446 -6.69352 7.69043 -6.14421Q7.2564 -5.59489 6.41547 -5.45926Q7.42594 -5.24224 7.98543 -4.5539Q8.54492 -3.86556 8.54492 -2.83474Q8.54492 -1.47841 7.62261 -0.739204Q6.7003 0 4.9981 0L1.36312 0L1.36312 -10.1251ZM17.334 -4.1097L17.334 -3.49935L11.5967 -3.49935Q11.6781 -2.21083 12.3732 -1.53605Q13.0683 -0.861274 14.3094 -0.861274Q15.0282 -0.861274 15.703 -1.0376Q16.3778 -1.21392 17.0424 -1.56657L17.0424 -0.386556Q16.371 -0.101725 15.6657 0.0474718Q14.9604 0.196669 14.2348 0.196669Q12.4173 0.196669 11.3559 -0.861274Q10.2946 -1.91922 10.2946 -3.72314Q10.2946 -5.58811 11.3017 -6.68335Q12.3088 -7.77859 14.0177 -7.77859Q15.5504 -7.77859 16.4422 -6.79186Q17.334 -5.80512 17.334 -4.1097ZM16.0862 -4.47591Q16.0726 -5.49995 15.5131 -6.1103Q14.9536 -6.72065 14.0313 -6.72065Q12.9869 -6.72065 12.3596 -6.13064Q11.7323 -5.54064 11.6374 -4.46913L16.0862 -4.47591ZM20.6163 -9.75206L20.6163 -7.59549L23.1866 -7.59549L23.1866 -6.62571L20.6163 -6.62571L20.6163 -2.50244Q20.6163 -1.57335 20.8706 -1.30887Q21.1249 -1.04438 21.9048 -1.04438L23.1866 -1.04438L23.1866 0L21.9048 0Q20.4603 0 19.911 -0.539144Q19.3617 -1.07829 19.3617 -2.50244L19.3617 -6.62571L18.4462 -6.62571L18.4462 -7.59549L19.3617 -7.59549L19.3617 -9.75206L20.6163 -9.75206ZM28.2796 -3.81809Q26.7673 -3.81809 26.1841 -3.47222Q25.6009 -3.12636 25.6009 -2.29221Q25.6009 -1.6276 26.0383 -1.23766Q26.4757 -0.84771 27.2285 -0.847711Q28.2661 -0.847711 28.8934 -1.58352Q29.5207 -2.31934 29.5207 -3.54004L29.5207 -3.81809L28.2796 -3.81809ZM30.7685 -4.3335L30.7685 0L29.5207 0L29.5207 -1.15289Q29.0934 -0.461155 28.4559 -0.132243Q27.8185 0.196669 26.8962 0.196669Q25.7297 0.196669 25.0414 -0.457764Q24.353 -1.1122 24.353 -2.21083Q24.353 -3.49257 25.2109 -4.14361Q26.0688 -4.79465 27.771 -4.79465L29.5207 -4.79465L29.5207 -4.91672Q29.5207 -5.77799 28.9544 -6.24932Q28.3881 -6.72065 27.3641 -6.72065Q26.7131 -6.72065 26.0959 -6.56467Q25.4788 -6.40869 24.9091 -6.09673L24.9091 -7.24962Q25.5941 -7.51411 26.2383 -7.64635Q26.8826 -7.77859 27.4929 -7.77859Q29.1409 -7.77859 29.9547 -6.9241Q30.7685 -6.06961 30.7685 -4.3335Z" fill="#262626" transform="translate(328.42105263157896,549) translate(-16.01494789123535,0)" />
<line x1="491.57894736842104" y1="533.6" x2="491.57894736842104" y2="538.8611111111111" stroke="#262626" stroke-width="1.1111111111111112" />
<path d="M8.26687 -1.4445L8.26687 -4.16395L6.02892 -4.16395L6.02892 -5.28971L9.62321 -5.28971L9.62321 -0.942654Q8.82975 -0.379774 7.87354 -0.0915527Q6.91732 0.196669 5.83225 0.196669Q3.45866 0.196669 2.11928 -1.19019Q0.779894 -2.57704 0.779894 -5.05235Q0.779894 -7.53445 2.11928 -8.92131Q3.45866 -10.3082 5.83225 -10.3082Q6.82237 -10.3082 7.71417 -10.064Q8.60596 -9.81988 9.35872 -9.34516L9.35872 -7.8871Q8.59917 -8.53136 7.74468 -8.85688Q6.89019 -9.1824 5.94754 -9.1824Q4.08936 -9.1824 3.15687 -8.1448Q2.22439 -7.1072 2.22439 -5.05235Q2.22439 -3.00429 3.15687 -1.96669Q4.08935 -0.929091 5.94754 -0.929091Q6.67318 -0.929091 7.24284 -1.05455Q7.8125 -1.18001 8.26687 -1.4445ZM15.5233 -3.81809Q14.011 -3.81809 13.4277 -3.47222Q12.8445 -3.12636 12.8445 -2.29221Q12.8445 -1.6276 13.2819 -1.23766Q13.7193 -0.84771 14.4721 -0.847711Q15.5097 -0.847711 16.137 -1.58352Q16.7643 -2.31934 16.7643 -3.54004L16.7643 -3.81809L15.5233 -3.81809ZM18.0122 -4.3335L18.0122 0L16.7643 0L16.7643 -1.15289Q16.3371 -0.461155 15.6996 -0.132243Q15.0621 0.196669 14.1398 0.196669Q12.9734 0.196669 12.285 -0.457764Q11.5967 -1.1122 11.5967 -2.21083Q11.5967 -3.49257 12.4546 -4.14361Q13.3124 -4.79465 15.0146 -4.79465L16.7643 -4.79465L16.7643 -4.91672Q16.7643 -5.77799 16.1981 -6.24932Q15.6318 -6.72065 14.6077 -6.72065Q13.9567 -6.72065 13.3396 -6.56467Q12.7224 -6.40869 12.1528 -6.09673L12.1528 -7.24962Q12.8377 -7.51411 13.482 -7.64635Q14.1262 -7.77859 14.7366 -7.77859Q16.3846 -7.77859 17.1984 -6.9241Q18.0122 -6.06961 18.0122 -4.3335ZM26.496 -6.13742Q26.964 -6.97835 27.615 -7.37847Q28.2661 -7.77859 29.1477 -7.77859Q30.3345 -7.77859 30.9787 -6.94784Q31.623 -6.11708 31.623 -4.58442L31.623 0L30.3684 0L30.3684 -4.54373Q30.3684 -5.63558 29.9818 -6.16455Q29.5953 -6.69352 28.8018 -6.69352Q27.832 -6.69352 27.2692 -6.04926Q26.7063 -5.405 26.7063 -4.29281L26.7063 0L25.4517 0L25.4517 -4.54373Q25.4517 -5.64236 25.0651 -6.16794Q24.6786 -6.69352 23.8715 -6.69352Q22.9153 -6.69352 22.3524 -6.04587Q21.7896 -5.39822 21.7896 -4.29281L21.7896 0L20.5349 0L20.5349 -7.59549L21.7896 -7.59549L21.7896 -6.41547Q22.2168 -7.11399 22.8136 -7.44629Q23.4104 -7.77859 24.231 -7.77859Q25.0583 -7.77859 25.6382 -7.35813Q26.218 -6.93766 26.496 -6.13742ZM40.0255 -6.13742Q40.4934 -6.97835 41.1445 -7.37847Q41.7955 -7.77859 42.6771 -7.77859Q43.8639 -7.77859 44.5082 -6.94784Q45.1525 -6.11708 45.1525 -4.58442L45.1525 0L43.8978 0L43.8978 -4.54373Q43.8978 -5.63558 43.5113 -6.16455Q43.1247 -6.69352 42.3313 -6.69352Q41.3615 -6.69352 40.7986 -6.04926Q40.2357 -5.405 40.2357 -4.29281L40.2357 0L38.9811 0L38.9811 -4.54373Q38.9811 -5.64236 38.5946 -6.16794Q38.208 -6.69352 37.401 -6.69352Q36.4448 -6.69352 35.8819 -6.04587Q35.319 -5.39822 35.319 -4.29281L35.319 0L34.0644 0L34.0644 -7.59549L35.319 -7.59549L35.319 -6.41547Q35.7463 -7.11399 36.343 -7.44629Q36.9398 -7.77859 37.7604 -7.77859Q38.5878 -7.77859 39.1676 -7.35813Q39.7475 -6.93766 40.0255 -6.13742ZM51.0932 -3.81809Q49.5809 -3.81809 48.9977 -3.47222Q48.4144 -3.12636 48.4144 -2.29221Q48.4144 -1.6276 48.8519 -1.23766Q49.2893 -0.84771 50.0421 -0.847711Q51.0797 -0.847711 51.707 -1.58352Q52.3343 -2.31934 52.3343 -3.54004L52.3343 -3.81809L51.0932 -3.81809ZM53.5821 -4.3335L53.5821 0L52.3343 0L52.3343 -1.15289Q51.907 -0.461155 51.2695 -0.132243Q50.6321 0.196669 49.7097 0.196669Q48.5433 0.196669 47.855 -0.457764Q47.1666 -1.1122 47.1666 -2.21083Q47.1666 -3.49257 48.0245 -4.14361Q48.8824 -4.79465 50.5846 -4.79465L52.3343 -4.79465L52.3343 -4.91672Q52.3343 -5.77799 51.768 -6.24932Q51.2017 -6.72065 50.1777 -6.72065Q49.5266 -6.72065 48.9095 -6.56467Q48.2924 -6.40869 47.7227 -6.09673L47.7227 -7.24962Q48.4077 -7.51411 49.0519 -7.64635Q49.6962 -7.77859 50.3065 -7.77859Q51.9545 -7.77859 52.7683 -6.9241Q53.5821 -6.06961 53.5821 -4.3335Z" fill="#262626" transform="translate(491.57894736842104,549) translate(-27.421741485595703,0)" />
<line x1="654.7368421052632" y1="533.6" x2="654.7368421052632" y2="538.8611111111111" stroke="#262626" stroke-width="1.1111111111111112" />
<path d="M2.73302 -8.9993L2.73302 -1.12576L4.38775 -1.12576Q6.48329 -1.12576 7.45646 -2.0752Q8.42963 -3.02463 8.42963 -5.0727Q8.42963 -7.1072 7.45646 -8.05325Q6.48329 -8.9993 4.38775 -8.9993L2.73302 -8.9993ZM1.36312 -10.1251L4.17752 -10.1251Q7.12077 -10.1251 8.49745 -8.90096Q9.87413 -7.67687 9.87413 -5.0727Q9.87413 -2.45497 8.49067 -1.22748Q7.1072 0 4.17752 0L1.36312 0L1.36312 -10.1251ZM18.5004 -4.1097L18.5004 -3.49935L12.7631 -3.49935Q12.8445 -2.21083 13.5396 -1.53605Q14.2348 -0.861274 15.4758 -0.861274Q16.1947 -0.861274 16.8694 -1.0376Q17.5442 -1.21392 18.2088 -1.56657L18.2088 -0.386556Q17.5374 -0.101725 16.8321 0.0474718Q16.1268 0.196669 15.4012 0.196669Q13.5837 0.196669 12.5224 -0.861274Q11.461 -1.91922 11.461 -3.72314Q11.461 -5.58811 12.4681 -6.68335Q13.4752 -7.77859 15.1842 -7.77859Q16.7169 -7.77859 17.6086 -6.79186Q18.5004 -5.80512 18.5004 -4.1097ZM17.2526 -4.47591Q17.239 -5.49995 16.6796 -6.1103Q16.1201 -6.72065 15.1978 -6.72065Q14.1534 -6.72065 13.5261 -6.13064Q12.8988 -5.54064 12.8038 -4.46913L17.2526 -4.47591ZM20.5485 -10.5523L21.7963 -10.5523L21.7963 0L20.5485 0L20.5485 -10.5523ZM25.6415 -9.75206L25.6415 -7.59549L28.2118 -7.59549L28.2118 -6.62571L25.6415 -6.62571L25.6415 -2.50244Q25.6415 -1.57335 25.8959 -1.30887Q26.1502 -1.04438 26.9301 -1.04438L28.2118 -1.04438L28.2118 0L26.9301 0Q25.4856 0 24.9363 -0.539144Q24.3869 -1.07829 24.3869 -2.50244L24.3869 -6.62571L23.4714 -6.62571L23.4714 -7.59549L24.3869 -7.59549L24.3869 -9.75206L25.6415 -9.75206ZM33.3049 -3.81809Q31.7925 -3.81809 31.2093 -3.47222Q30.6261 -3.12636 30.6261 -2.29221Q30.6261 -1.6276 31.0635 -1.23766Q31.5009 -0.84771 32.2537 -0.847711Q33.2913 -0.847711 33.9186 -1.58352Q34.5459 -2.31934 34.5459 -3.54004L34.5459 -3.81809L33.3049 -3.81809ZM35.7937 -4.3335L35.7937 0L34.5459 0L34.5459 -1.15289Q34.1187 -0.461155 33.4812 -0.132243Q32.8437 0.196669 31.9214 0.196669Q30.7549 0.196669 30.0666 -0.457764Q29.3783 -1.1122 29.3783 -2.21083Q29.3783 -3.49257 30.2361 -4.14361Q31.094 -4.79465 32.7962 -4.79465L34.5459 -4.79465L34.5459 -4.91672Q34.5459 -5.77799 33.9796 -6.24932Q33.4134 -6.72065 32.3893 -6.72065Q31.7383 -6.72065 31.1211 -6.56467Q30.504 -6.40869 29.9344 -6.09673L29.9344 -7.24962Q30.6193 -7.51411 31.2636 -7.64635Q31.9078 -7.77859 32.5182 -7.77859Q34.1661 -7.77859 34.9799 -6.9241Q35.7937 -6.06961 35.7937 -4.3335Z" fill="#262626" transform="translate(654.7368421052632,549) translate(-18.52756118774414,0)" />
<line x1="95.13888888888889" y1="534" x2="100.4" y2="534" stroke="#262626" stroke-width="1.1111111111111112" />
<path d="M4.41488 -9.22309Q3.35693 -9.22309 2.82457 -8.1821Q2.29221 -7.14111 2.29221 -5.05235Q2.29221 -2.97038 2.82457 -1.92939Q3.35693 -0.888401 4.41488 -0.888401Q5.4796 -0.888401 6.01196 -1.92939Q6.54433 -2.97038 6.54433 -5.05235Q6.54433 -7.14111 6.01196 -8.1821Q5.4796 -9.22309 4.41488 -9.22309ZM4.41488 -10.3082Q6.11708 -10.3082 7.01565 -8.962Q7.91422 -7.61583 7.91423 -5.05235Q7.91423 -2.49566 7.01565 -1.1495Q6.11708 0.196669 4.41488 0.196669Q2.71267 0.196669 1.8141 -1.1495Q0.915527 -2.49566 0.915527 -5.05235Q0.915527 -7.61583 1.8141 -8.962Q2.71267 -10.3082 4.41488 -10.3082Z" fill="#262626" transform="translate(90.27777777777777,538) translate(-8.83653450012207,0)" />
<line x1="95.13888888888889" y1="470.7816091954023" x2="100.4" y2="470.7816091954023" stroke="#262626" stroke-width="1.1111111111111112" />
<path d="M1.49875 -10.1251L6.87663 -10.1251L6.87663 -8.97217L2.75336 -8.97217L2.75336 -6.49007Q3.05176 -6.5918 3.35015 -6.64266Q3.64855 -6.69352 3.94694 -6.69352Q5.64236 -6.69352 6.63249 -5.76443Q7.62261 -4.83534 7.62261 -3.24843Q7.62261 -1.61404 6.60536 -0.708686Q5.58811 0.196669 3.73671 0.196669Q3.09923 0.196669 2.43802 0.0881619C1.99721 0.0158239 1.5417 -0.092683 1.07151 -0.237359L1.07151 -1.61404Q1.68186 -1.28174 2.3329 -1.11898Q2.98394 -0.956217 3.70958 -0.956217Q4.88281 -0.956217 5.56776 -1.57335Q6.25271 -2.19048 6.25271 -3.24843Q6.25271 -4.30637 5.56776 -4.9235Q4.88281 -5.54064 3.70958 -5.54064Q3.16026 -5.54064 2.61434 -5.41857Q2.06841 -5.2965 1.49875 -5.03879L1.49875 -10.1251ZM14.5128 -10.5523L15.7674 -10.5523L15.7674 -4.31993L19.4906 -7.59549L21.0843 -7.59549L17.0559 -4.04188L21.2538 0L19.6262 0L15.7674 -3.70958L15.7674 0L14.5128 0L14.5128 -10.5523Z" fill="#262626" transform="translate(90.27777777777777,474.7816091954023) translate(-21.29448890686035,0)" />
<line x1="95.13888888888889" y1="407.5632183908046" x2="100.4" y2="407.5632183908046" stroke="#262626" stroke-width="1.1111111111111112" />
<path d="M1.72255 -1.15289L3.9605 -1.15289L3.9605 -8.87722L1.52588 -8.38894L1.52588 -9.63677L3.94694 -10.1251L5.31684 -10.1251L5.31684 -1.15289L7.5548 -1.15289L7.5548 0L1.72255 0L1.72255 -1.15289ZM13.2514 -9.22309Q12.1935 -9.22309 11.6611 -8.1821Q11.1287 -7.14111 11.1287 -5.05235Q11.1287 -2.97038 11.6611 -1.92939Q12.1935 -0.888401 13.2514 -0.888401Q14.3161 -0.888401 14.8485 -1.92939Q15.3809 -2.97038 15.3809 -5.05235Q15.3809 -7.14111 14.8485 -8.1821Q14.3161 -9.22309 13.2514 -9.22309ZM13.2514 -10.3082Q14.9536 -10.3082 15.8522 -8.962Q16.7508 -7.61583 16.7508 -5.05235Q16.7508 -2.49566 15.8522 -1.1495Q14.9536 0.196669 13.2514 0.196669Q11.5492 0.196669 10.6506 -1.1495Q9.75206 -2.49566 9.75206 -5.05235Q9.75206 -7.61583 10.6506 -8.962Q11.5492 -10.3082 13.2514 -10.3082ZM23.3493 -10.5523L24.604 -10.5523L24.604 -4.31993L28.3271 -7.59549L29.9208 -7.59549L25.8925 -4.04188L30.0903 0L28.4627 0L24.604 -3.70958L24.604 0L23.3493 0L23.3493 -10.5523Z" fill="#262626" transform="translate(90.27777777777777,411.5632183908046) translate(-30.131023406982422,0)" />
<line x1="95.13888888888889" y1="344.34482758620686" x2="100.4" y2="344.34482758620686" stroke="#262626" stroke-width="1.1111111111111112" />
<path d="M1.72255 -1.15289L3.9605 -1.15289L3.9605 -8.87722L1.52588 -8.38894L1.52588 -9.63677L3.94694 -10.1251L5.31684 -10.1251L5.31684 -1.15289L7.5548 -1.15289L7.5548 0L1.72255 0L1.72255 -1.15289ZM10.3353 -10.1251L15.7132 -10.1251L15.7132 -8.97217L11.5899 -8.97217L11.5899 -6.49007Q11.8883 -6.5918 12.1867 -6.64266Q12.4851 -6.69352 12.7835 -6.69352Q14.4789 -6.69352 15.469 -5.76443Q16.4591 -4.83534 16.4591 -3.24843Q16.4591 -1.61404 15.4419 -0.708686Q14.4246 0.196669 12.5732 0.196669Q11.9358 0.196669 11.2745 0.0881619C10.8337 0.0158239 10.3782 -0.092683 9.90804 -0.237359L9.90804 -1.61404Q10.5184 -1.28174 11.1694 -1.11898Q11.8205 -0.956217 12.5461 -0.956217Q13.7193 -0.956217 14.4043 -1.57335Q15.0892 -2.19048 15.0892 -3.24843Q15.0892 -4.30637 14.4043 -4.9235Q13.7193 -5.54064 12.5461 -5.54064Q11.9968 -5.54064 11.4509 -5.41857Q10.9049 -5.2965 10.3353 -5.03879L10.3353 -10.1251ZM23.3493 -10.5523L24.604 -10.5523L24.604 -4.31993L28.3271 -7.59549L29.9208 -7.59549L25.8925 -4.04188L30.0903 0L28.4627 0L24.604 -3.70958L24.604 0L23.3493 0L23.3493 -10.5523Z" fill="#262626" transform="translate(90.27777777777777,348.34482758620686) translate(-30.131023406982422,0)" />
<line x1="95.13888888888889" y1="281.1264367816092" x2="100.4" y2="281.1264367816092" stroke="#262626" stroke-width="1.1111111111111112" />
<path d="M2.6652 -1.15289L7.44629 -1.15289L7.44629 0L1.01725 0L1.01725 -1.15289Q1.79715 -1.95991 3.14331 -3.31963Q4.48947 -4.67936 4.83534 -5.0727Q5.49316 -5.8119 5.75426 -6.32392Q6.01535 -6.83594 6.01535 -7.331Q6.01535 -8.13802 5.44908 -8.64665Q4.88281 -9.15527 3.97407 -9.15527Q3.32981 -9.15527 2.61434 -8.93148Q1.89887 -8.70768 1.08507 -8.25331L1.08507 -9.63677Q1.91243 -9.96908 2.63129 -10.1386Q3.35015 -10.3082 3.94694 -10.3082Q5.52029 -10.3082 6.45616 -9.52148Q7.39204 -8.73481 7.39204 -7.41916Q7.39204 -6.79525 7.15807 -6.23576Q6.9241 -5.67627 6.30697 -4.91672Q6.13742 -4.72005 5.22868 -3.78079Q4.31993 -2.84153 2.6652 -1.15289ZM13.2514 -9.22309Q12.1935 -9.22309 11.6611 -8.1821Q11.1287 -7.14111 11.1287 -5.05235Q11.1287 -2.97038 11.6611 -1.92939Q12.1935 -0.888401 13.2514 -0.888401Q14.3161 -0.888401 14.8485 -1.92939Q15.3809 -2.97038 15.3809 -5.05235Q15.3809 -7.14111 14.8485 -8.1821Q14.3161 -9.22309 13.2514 -9.22309ZM13.2514 -10.3082Q14.9536 -10.3082 15.8522 -8.962Q16.7508 -7.61583 16.7508 -5.05235Q16.7508 -2.49566 15.8522 -1.1495Q14.9536 0.196669 13.2514 0.196669Q11.5492 0.196669 10.6506 -1.1495Q9.75206 -2.49566 9.75206 -5.05235Q9.75206 -7.61583 10.6506 -8.962Q11.5492 -10.3082 13.2514 -10.3082ZM23.3493 -10.5523L24.604 -10.5523L24.604 -4.31993L28.3271 -7.59549L29.9208 -7.59549L25.8925 -4.04188L30.0903 0L28.4627 0L24.604 -3.70958L24.604 0L23.3493 0L23.3493 -10.5523Z" fill="#262626" transform="translate(90.27777777777777,285.1264367816092) translate(-30.131023406982422,0)" />
<line x1="95.13888888888889" y1="217.9080459770115" x2="100.4" y2="217.9080459770115" stroke="#262626" stroke-width="1.1111111111111112" />
<path d="M2.6652 -1.15289L7.44629 -1.15289L7.44629 0L1.01725 0L1.01725 -1.15289Q1.79715 -1.95991 3.14331 -3.31963Q4.48947 -4.67936 4.83534 -5.0727Q5.49316 -5.8119 5.75426 -6.32392Q6.01535 -6.83594 6.01535 -7.331Q6.01535 -8.13802 5.44908 -8.64665Q4.88281 -9.15527 3.97407 -9.15527Q3.32981 -9.15527 2.61434 -8.93148Q1.89887 -8.70768 1.08507 -8.25331L1.08507 -9.63677Q1.91243 -9.96908 2.63129 -10.1386Q3.35015 -10.3082 3.94694 -10.3082Q5.52029 -10.3082 6.45616 -9.52148Q7.39204 -8.73481 7.39204 -7.41916Q7.39204 -6.79525 7.15807 -6.23576Q6.9241 -5.67627 6.30697 -4.91672Q6.13742 -4.72005 5.22868 -3.78079Q4.31993 -2.84153 2.6652 -1.15289ZM10.3353 -10.1251L15.7132 -10.1251L15.7132 -8.97217L11.5899 -8.97217L11.5899 -6.49007Q11.8883 -6.5918 12.1867 -6.64266Q12.4851 -6.69352 12.7835 -6.69352Q14.4789 -6.69352 15.469 -5.76443Q16.4591 -4.83534 16.4591 -3.24843Q16.4591 -1.61404 15.4419 -0.708686Q14.4246 0.196669 12.5732 0.196669Q11.9358 0.196669 11.2745 0.0881619C10.8337 0.0158239 10.3782 -0.092683 9.90804 -0.237359L9.90804 -1.61404Q10.5184 -1.28174 11.1694 -1.11898Q11.8205 -0.956217 12.5461 -0.956217Q13.7193 -0.956217 14.4043 -1.57335Q15.0892 -2.19048 15.0892 -3.24843Q15.0892 -4.30637 14.4043 -4.9235Q13.7193 -5.54064 12.5461 -5.54064Q11.9968 -5.54064 11.4509 -5.41857Q10.9049 -5.2965 10.3353 -5.03879L10.3353 -10.1251ZM23.3493 -10.5523L24.604 -10.5523L24.604 -4.31993L28.3271 -7.59549L29.9208 -7.59549L25.8925 -4.04188L30.0903 0L28.4627 0L24.604 -3.70958L24.604 0L23.3493 0L23.3493 -10.5523Z" fill="#262626" transform="translate(90.27777777777777,221.9080459770115) translate(-30.131023406982422,0)" />
<line x1="95.13888888888889" y1="154.68965517241378" x2="100.4" y2="154.68965517241378" stroke="#262626" stroke-width="1.1111111111111112" />
<path d="M5.63558 -5.45926Q6.61892 -5.24902 7.17163 -4.58442Q7.72434 -3.91981 7.72434 -2.94325Q7.72434 -1.4445 6.69352 -0.623915Q5.66271 0.196669 3.76383 0.196669Q3.12636 0.196669 2.45158 0.0712077Q1.7768 -0.0542535 1.05794 -0.305176L1.05794 -1.6276Q1.6276 -1.2953 2.30577 -1.12576Q2.98394 -0.956217 3.72314 -0.956217Q5.01166 -0.956217 5.68644 -1.46484Q6.36122 -1.97347 6.36122 -2.94325Q6.36122 -3.83843 5.73391 -4.34367Q5.10661 -4.8489 3.98763 -4.8489L2.80762 -4.8489L2.80762 -5.97466L4.04188 -5.97466Q5.05235 -5.97466 5.58811 -6.37817Q6.12386 -6.78168 6.12386 -7.54123Q6.12386 -8.32113 5.57115 -8.7382Q5.01845 -9.15527 3.98763 -9.15527Q3.42475 -9.15527 2.78049 -9.0332Q2.13623 -8.91113 1.36312 -8.65343L1.36312 -9.87413Q2.14301 -10.0911 2.82457 -10.1997Q3.50613 -10.3082 4.1097 -10.3082Q5.66949 -10.3082 6.57823 -9.59947Q7.48698 -8.89079 7.48698 -7.68365Q7.48698 -6.84272 7.00548 -6.26289Q6.52398 -5.68305 5.63558 -5.45926ZM13.2514 -9.22309Q12.1935 -9.22309 11.6611 -8.1821Q11.1287 -7.14111 11.1287 -5.05235Q11.1287 -2.97038 11.6611 -1.92939Q12.1935 -0.888401 13.2514 -0.888401Q14.3161 -0.888401 14.8485 -1.92939Q15.3809 -2.97038 15.3809 -5.05235Q15.3809 -7.14111 14.8485 -8.1821Q14.3161 -9.22309 13.2514 -9.22309ZM13.2514 -10.3082Q14.9536 -10.3082 15.8522 -8.962Q16.7508 -7.61583 16.7508 -5.05235Q16.7508 -2.49566 15.8522 -1.1495Q14.9536 0.196669 13.2514 0.196669Q11.5492 0.196669 10.6506 -1.1495Q9.75206 -2.49566 9.75206 -5.05235Q9.75206 -7.61583 10.6506 -8.962Q11.5492 -10.3082 13.2514 -10.3082ZM23.3493 -10.5523L24.604 -10.5523L24.604 -4.31993L28.3271 -7.59549L29.9208 -7.59549L25.8925 -4.04188L30.0903 0L28.4627 0L24.604 -3.70958L24.604 0L23.3493 0L23.3493 -10.5523Z" fill="#262626" transform="translate(90.27777777777777,158.68965517241378) translate(-30.131023406982422,0)" />
<line x1="95.13888888888889" y1="91.4712643678161" x2="100.4" y2="91.4712643678161" stroke="#262626" stroke-width="1.1111111111111112" />
<path d="M5.63558 -5.45926Q6.61892 -5.24902 7.17163 -4.58442Q7.72434 -3.91981 7.72434 -2.94325Q7.72434 -1.4445 6.69352 -0.623915Q5.66271 0.196669 3.76383 0.196669Q3.12636 0.196669 2.45158 0.0712077Q1.7768 -0.0542535 1.05794 -0.305176L1.05794 -1.6276Q1.6276 -1.2953 2.30577 -1.12576Q2.98394 -0.956217 3.72314 -0.956217Q5.01166 -0.956217 5.68644 -1.46484Q6.36122 -1.97347 6.36122 -2.94325Q6.36122 -3.83843 5.73391 -4.34367Q5.10661 -4.8489 3.98763 -4.8489L2.80762 -4.8489L2.80762 -5.97466L4.04188 -5.97466Q5.05235 -5.97466 5.58811 -6.37817Q6.12386 -6.78168 6.12386 -7.54123Q6.12386 -8.32113 5.57115 -8.7382Q5.01845 -9.15527 3.98763 -9.15527Q3.42475 -9.15527 2.78049 -9.0332Q2.13623 -8.91113 1.36312 -8.65343L1.36312 -9.87413Q2.14301 -10.0911 2.82457 -10.1997Q3.50613 -10.3082 4.1097 -10.3082Q5.66949 -10.3082 6.57823 -9.59947Q7.48698 -8.89079 7.48698 -7.68365Q7.48698 -6.84272 7.00548 -6.26289Q6.52398 -5.68305 5.63558 -5.45926ZM10.3353 -10.1251L15.7132 -10.1251L15.7132 -8.97217L11.5899 -8.97217L11.5899 -6.49007Q11.8883 -6.5918 12.1867 -6.64266Q12.4851 -6.69352 12.7835 -6.69352Q14.4789 -6.69352 15.469 -5.76443Q16.4591 -4.83534 16.4591 -3.24843Q16.4591 -1.61404 15.4419 -0.708686Q14.4246 0.196669 12.5732 0.196669Q11.9358 0.196669 11.2745 0.0881619C10.8337 0.0158239 10.3782 -0.092683 9.90804 -0.237359L9.90804 -1.61404Q10.5184 -1.28174 11.1694 -1.11898Q11.8205 -0.956217 12.5461 -0.956217Q13.7193 -0.956217 14.4043 -1.57335Q15.0892 -2.19048 15.0892 -3.24843Q15.0892 -4.30637 14.4043 -4.9235Q13.7193 -5.54064 12.5461 -5.54064Q11.9968 -5.54064 11.4509 -5.41857Q10.9049 -5.2965 10.3353 -5.03879L10.3353 -10.1251ZM23.3493 -10.5523L24.604 -10.5523L24.604 -4.31993L28.3271 -7.59549L29.9208 -7.59549L25.8925 -4.04188L30.0903 0L28.4627 0L24.604 -3.70958L24.604 0L23.3493 0L23.3493 -10.5523Z" fill="#262626" transform="translate(90.27777777777777,95.4712643678161) translate(-30.131023406982422,0)" />
<g class="series" aria-label="Q1 Sales">
<rect x="100" y="375.95402298850576" width="130.5263157894737" height="158.04597701149424" fill="#1F77B4" />
<rect x="263.15789473684214" y="94" width="130.52631578947364" height="440" fill="#1F77B4" />
<rect x="426.3157894736842" y="430.32183908045977" width="130.5263157894737" height="103.67816091954023" fill="#1F77B4" />
<rect x="589.4736842105264" y="185.0344827586207" width="130.52631578947364" height="348.9655172413793" fill="#1F77B4" />
<path d="M1.72255 -1.15289L3.9605 -1.15289L3.9605 -8.87722L1.52588 -8.38894L1.52588 -9.63677L3.94694 -10.1251L5.31684 -10.1251L5.31684 -1.15289L7.5548 -1.15289L7.5548 0L1.72255 0L1.72255 -1.15289ZM11.5017 -1.15289L16.2828 -1.15289L16.2828 0L9.85379 0L9.85379 -1.15289Q10.6337 -1.95991 11.9798 -3.31963Q13.326 -4.67936 13.6719 -5.0727Q14.3297 -5.8119 14.5908 -6.32392Q14.8519 -6.83594 14.8519 -7.331Q14.8519 -8.13802 14.2856 -8.64665Q13.7193 -9.15527 12.8106 -9.15527Q12.1663 -9.15527 11.4509 -8.93148Q10.7354 -8.70768 9.9216 -8.25331L9.9216 -9.63677Q10.749 -9.96908 11.4678 -10.1386Q12.1867 -10.3082 12.7835 -10.3082Q14.3568 -10.3082 15.2927 -9.52148Q16.2286 -8.73481 16.2286 -7.41916Q16.2286 -6.79525 15.9946 -6.23576Q15.7606 -5.67627 15.1435 -4.91672Q14.974 -4.72005 14.0652 -3.78079Q13.1565 -2.84153 11.5017 -1.15289ZM19.1718 -10.1251L24.5497 -10.1251L24.5497 -8.97217L20.4264 -8.97217L20.4264 -6.49007Q20.7248 -6.5918 21.0232 -6.64266Q21.3216 -6.69352 21.62 -6.69352Q23.3154 -6.69352 24.3056 -5.76443Q25.2957 -4.83534 25.2957 -3.24843Q25.2957 -1.61404 24.2784 -0.708686Q23.2612 0.196669 21.4098 0.196669Q20.7723 0.196669 20.1111 0.0881619C19.6703 0.0158239 19.2148 -0.092683 18.7446 -0.237359L18.7446 -1.61404Q19.3549 -1.28174 20.006 -1.11898Q20.657 -0.956217 21.3827 -0.956217Q22.5559 -0.956217 23.2408 -1.57335Q23.9258 -2.19048 23.9258 -3.24843Q23.9258 -4.30637 23.2408 -4.9235Q22.5559 -5.54064 21.3827 -5.54064Q20.8333 -5.54064 20.2874 -5.41857Q19.7415 -5.2965 19.1718 -5.03879L19.1718 -10.1251ZM30.9245 -9.22309Q29.8665 -9.22309 29.3342 -8.1821Q28.8018 -7.14111 28.8018 -5.05235Q28.8018 -2.97038 29.3342 -1.92939Q29.8665 -0.888401 30.9245 -0.888401Q31.9892 -0.888401 32.5216 -1.92939Q33.0539 -2.97038 33.0539 -5.05235Q33.0539 -7.14111 32.5216 -8.1821Q31.9892 -9.22309 30.9245 -9.22309ZM30.9245 -10.3082Q32.6267 -10.3082 33.5253 -8.962Q34.4238 -7.61583 34.4238 -5.05235Q34.4238 -2.49566 33.5253 -1.1495Q32.6267 0.196669 30.9245 0.196669Q29.2223 0.196669 28.3237 -1.1495Q27.4251 -2.49566 27.4251 -5.05235Q27.4251 -7.61583 28.3237 -8.962Q29.2223 -10.3082 30.9245 -10.3082ZM39.761 -9.22309Q38.7031 -9.22309 38.1707 -8.1821Q37.6383 -7.14111 37.6383 -5.05235Q37.6383 -2.97038 38.1707 -1.92939Q38.7031 -0.888401 39.761 -0.888401Q40.8257 -0.888401 41.3581 -1.92939Q41.8905 -2.97038 41.8905 -5.05235Q41.8905 -7.14111 41.3581 -8.1821Q40.8257 -9.22309 39.761 -9.22309ZM39.761 -10.3082Q41.4632 -10.3082 42.3618 -8.962Q43.2604 -7.61583 43.2604 -5.05235Q43.2604 -2.49566 42.3618 -1.1495Q41.4632 0.196669 39.761 0.196669Q38.0588 0.196669 37.1602 -1.1495Q36.2617 -2.49566 36.2617 -5.05235Q36.2617 -7.61583 37.1602 -8.962Q38.0588 -10.3082 39.761 -10.3082Z" fill="#262626" transform="translate(165.26315789473685,371.95402298850576) translate(-22.09133529663086,0)" />
<path d="M5.63558 -5.45926Q6.61892 -5.24902 7.17163 -4.58442Q7.72434 -3.91981 7.72434 -2.94325Q7.72434 -1.4445 6.69352 -0.623915Q5.66271 0.196669 3.76383 0.196669Q3.12636 0.196669 2.45158 0.0712077Q1.7768 -0.0542535 1.05794 -0.305176L1.05794 -1.6276Q1.6276 -1.2953 2.30577 -1.12576Q2.98394 -0.956217 3.72314 -0.956217Q5.01166 -0.956217 5.68644 -1.46484Q6.36122 -1.97347 6.36122 -2.94325Q6.36122 -3.83843 5.73391 -4.34367Q5.10661 -4.8489 3.98763 -4.8489L2.80762 -4.8489L2.80762 -5.97466L4.04188 -5.97466Q5.05235 -5.97466 5.58811 -6.37817Q6.12386 -6.78168 6.12386 -7.54123Q6.12386 -8.32113 5.57115 -8.7382Q5.01845 -9.15527 3.98763 -9.15527Q3.42475 -9.15527 2.78049 -9.0332Q2.13623 -8.91113 1.36312 -8.65343L1.36312 -9.87413Q2.14301 -10.0911 2.82457 -10.1997Q3.50613 -10.3082 4.1097 -10.3082Q5.66949 -10.3082 6.57823 -9.59947Q7.48698 -8.89079 7.48698 -7.68365Q7.48698 -6.84272 7.00548 -6.26289Q6.52398 -5.68305 5.63558 -5.45926ZM14.0856 -8.93148L10.6269 -3.52648L14.0856 -3.52648L14.0856 -8.93148ZM13.7261 -10.1251L15.4487 -10.1251L15.4487 -3.52648L16.8932 -3.52648L16.8932 -2.38715L15.4487 -2.38715L15.4487 0L14.0856 0L14.0856 -2.38715L9.5147 -2.38715L9.5147 -3.70958L13.7261 -10.1251ZM22.0879 -4.80821Q21.1114 -4.80821 20.5519 -4.28602Q19.9924 -3.76383 19.9924 -2.84831Q19.9924 -1.93278 20.5519 -1.41059Q21.1114 -0.888401 22.0879 -0.888401Q23.0645 -0.888401 23.6274 -1.41398Q24.1903 -1.93956 24.1903 -2.84831Q24.1903 -3.76383 23.6308 -4.28602Q23.0713 -4.80821 22.0879 -4.80821ZM20.718 -5.39144Q19.8364 -5.60845 19.3448 -6.21202Q18.8531 -6.81559 18.8531 -7.68365Q18.8531 -8.89757 19.7177 -9.60287Q20.5824 -10.3082 22.0879 -10.3082Q23.6003 -10.3082 24.4615 -9.60287Q25.3228 -8.89757 25.3228 -7.68365Q25.3228 -6.81559 24.8311 -6.21202Q24.3395 -5.60845 23.4646 -5.39144Q24.4548 -5.16086 25.0075 -4.48947Q25.5602 -3.81809 25.5602 -2.84831Q25.5602 -1.37668 24.6616 -0.590007Q23.763 0.196669 22.0879 0.196669Q20.4129 0.196669 19.5143 -0.590007Q18.6157 -1.37668 18.6157 -2.84831Q18.6157 -3.81809 19.1718 -4.48947Q19.7279 -5.16086 20.718 -5.39144ZM20.2162 -7.5548Q20.2162 -6.76812 20.7079 -6.32731Q21.1995 -5.8865 22.0879 -5.8865Q22.9696 -5.8865 23.468 -6.32731Q23.9665 -6.76812 23.9665 -7.5548Q23.9665 -8.34147 23.468 -8.78228Q22.9696 -9.22309 22.0879 -9.22309Q21.1995 -9.22309 20.7079 -8.78228Q20.2162 -8.34147 20.2162 -7.5548ZM30.9245 -9.22309Q29.8665 -9.22309 29.3342 -8.1821Q28.8018 -7.14111 28.8018 -5.05235Q28.8018 -2.97038 29.3342 -1.92939Q29.8665 -0.888401 30.9245 -0.888401Q31.9892 -0.888401 32.5216 -1.92939Q33.0539 -2.97038 33.0539 -5.05235Q33.0539 -7.14111 32.5216 -8.1821Q31.9892 -9.22309 30.9245 -9.22309ZM30.9245 -10.3082Q32.6267 -10.3082 33.5253 -8.962Q34.4238 -7.61583 34.4238 -5.05235Q34.4238 -2.49566 33.5253 -1.1495Q32.6267 0.196669 30.9245 0.196669Q29.2223 0.196669 28.3237 -1.1495Q27.4251 -2.49566 27.4251 -5.05235Q27.4251 -7.61583 28.3237 -8.962Q29.2223 -10.3082 30.9245 -10.3082ZM39.761 -9.22309Q38.7031 -9.22309 38.1707 -8.1821Q37.6383 -7.14111 37.6383 -5.05235Q37.6383 -2.97038 38.1707 -1.92939Q38.7031 -0.888401 39.761 -0.888401Q40.8257 -0.888401 41.3581 -1.92939Q41.8905 -2.97038 41.8905 -5.05235Q41.8905 -7.14111 41.3581 -8.1821Q40.8257 -9.22309 39.761 -9.22309ZM39.761 -10.3082Q41.4632 -10.3082 42.3618 -8.962Q43.2604 -7.61583 43.2604 -5.05235Q43.2604 -2.49566 42.3618 -1.1495Q41.4632 0.196669 39.761 0.196669Q38.0588 0.196669 37.1602 -1.1495Q36.2617 -2.49566 36.2617 -5.05235Q36.2617 -7.61583 37.1602 -8.962Q38.0588 -10.3082 39.761 -10.3082Z" fill="#262626" transform="translate(328.42105263157896,90) translate(-22.09133529663086,0)" />
<path d="M4.41488 -4.80821Q3.43831 -4.80821 2.87882 -4.28602Q2.31934 -3.76383 2.31934 -2.84831Q2.31934 -1.93278 2.87882 -1.41059Q3.43831 -0.888401 4.41488 -0.888401Q5.39144 -0.888401 5.95432 -1.41398Q6.5172 -1.93956 6.5172 -2.84831Q6.5172 -3.76383 5.95771 -4.28602Q5.39822 -4.80821 4.41488 -4.80821ZM3.04498 -5.39144Q2.16336 -5.60845 1.67169 -6.21202Q1.18001 -6.81559 1.18001 -7.68365Q1.18001 -8.89757 2.04468 -9.60287Q2.90934 -10.3082 4.41488 -10.3082Q5.92719 -10.3082 6.78847 -9.60287Q7.64974 -8.89757 7.64974 -7.68365Q7.64974 -6.81559 7.15807 -6.21202Q6.6664 -5.60845 5.79156 -5.39144Q6.78168 -5.16086 7.33439 -4.48947Q7.8871 -3.81809 7.8871 -2.84831Q7.8871 -1.37668 6.98853 -0.590007Q6.08995 0.196669 4.41488 0.196669Q2.7398 0.196669 1.84123 -0.590007Q0.942654 -1.37668 0.942654 -2.84831Q0.942654 -3.81809 1.49875 -4.48947Q2.05485 -5.16086 3.04498 -5.39144ZM2.54313 -7.5548Q2.54313 -6.76812 3.0348 -6.32731Q3.52648 -5.8865 4.41488 -5.8865Q5.29649 -5.8865 5.79495 -6.32731Q6.2934 -6.76812 6.2934 -7.5548Q6.2934 -8.34147 5.79495 -8.78228Q5.2965 -9.22309 4.41488 -9.22309Q3.52648 -9.22309 3.0348 -8.78228Q2.54313 -8.34147 2.54313 -7.5548ZM11.5017 -1.15289L16.2828 -1.15289L16.2828 0L9.85379 0L9.85379 -1.15289Q10.6337 -1.95991 11.9798 -3.31963Q13.326 -4.67936 13.6719 -5.0727Q14.3297 -5.8119 14.5908 -6.32392Q14.8519 -6.83594 14.8519 -7.331Q14.8519 -8.13802 14.2856 -8.64665Q13.7193 -9.15527 12.8106 -9.15527Q12.1663 -9.15527 11.4509 -8.93148Q10.7354 -8.70768 9.9216 -8.25331L9.9216 -9.63677Q10.749 -9.96908 11.4678 -10.1386Q12.1867 -10.3082 12.7835 -10.3082Q14.3568 -10.3082 15.2927 -9.52148Q16.2286 -8.73481 16.2286 -7.41916Q16.2286 -6.79525 15.9946 -6.23576Q15.7606 -5.67627 15.1435 -4.91672Q14.974 -4.72005 14.0652 -3.78079Q13.1565 -2.84153 11.5017 -1.15289ZM22.0879 -9.22309Q21.03 -9.22309 20.4976 -8.1821Q19.9653 -7.14111 19.9653 -5.05235Q19.9653 -2.97038 20.4976 -1.92939Q21.03 -0.888401 22.0879 -0.888401Q23.1527 -0.888401 23.685 -1.92939Q24.2174 -2.97038 24.2174 -5.05235Q24.2174 -7.14111 23.685 -8.1821Q23.1527 -9.22309 22.0879 -9.22309ZM22.0879 -10.3082Q23.7901 -10.3082 24.6887 -8.962Q25.5873 -7.61583 25.5873 -5.05235Q25.5873 -2.49566 24.6887 -1.1495Q23.7901 0.196669 22.0879 0.196669Q20.3857 0.196669 19.4872 -1.1495Q18.5886 -2.49566 18.5886 -5.05235Q18.5886 -7.61583 19.4872 -8.962Q20.3857 -10.3082 22.0879 -10.3082ZM30.9245 -9.22309Q29.8665 -9.22309 29.3342 -8.1821Q28.8018 -7.14111 28.8018 -5.05235Q28.8018 -2.97038 29.3342 -1.92939Q29.8665 -0.888401 30.9245 -0.888401Q31.9892 -0.888401 32.5216 -1.92939Q33.0539 -2.97038 33.0539 -5.05235Q33.0539 -7.14111 32.5216 -8.1821Q31.9892 -9.22309 30.9245 -9.22309ZM30.9245 -10.3082Q32.6267 -10.3082 33.5253 -8.962Q34.4238 -7.61583 34.4238 -5.05235Q34.4238 -2.49566 33.5253 -1.1495Q32.6267 0.196669 30.9245 0.196669Q29.2223 0.196669 28.3237 -1.1495Q27.4251 -2.49566 27.4251 -5.05235Q27.4251 -7.61583 28.3237 -8.962Q29.2223 -10.3082 30.9245 -10.3082Z" fill="#262626" transform="translate(491.57894736842104,426.32183908045977) translate(-17.67306900024414,0)" />
<path d="M2.6652 -1.15289L7.44629 -1.15289L7.44629 0L1.01725 0L1.01725 -1.15289Q1.79715 -1.95991 3.14331 -3.31963Q4.48947 -4.67936 4.83534 -5.0727Q5.49316 -5.8119 5.75426 -6.32392Q6.01535 -6.83594 6.01535 -7.331Q6.01535 -8.13802 5.44908 -8.64665Q4.88281 -9.15527 3.97407 -9.15527Q3.32981 -9.15527 2.61434 -8.93148Q1.89887 -8.70768 1.08507 -8.25331L1.08507 -9.63677Q1.91243 -9.96908 2.63129 -10.1386Q3.35015 -10.3082 3.94694 -10.3082Q5.52029 -10.3082 6.45616 -9.52148Q7.39204 -8.73481 7.39204 -7.41916Q7.39204 -6.79525 7.15807 -6.23576Q6.9241 -5.67627 6.30697 -4.91672Q6.13742 -4.72005 5.22868 -3.78079Q4.31993 -2.84153 2.6652 -1.15289ZM9.97586 -10.1251L16.4863 -10.1251L16.4863 -9.54183L12.8106 0L11.3797 0L14.8383 -8.97217L9.97586 -8.97217L9.97586 -10.1251ZM22.2575 -5.60845Q21.3352 -5.60845 20.796 -4.97776Q20.2569 -4.34706 20.2569 -3.24843Q20.2569 -2.15658 20.796 -1.52249Q21.3352 -0.888401 22.2575 -0.888401Q23.1798 -0.888401 23.7189 -1.52249Q24.2581 -2.15658 24.2581 -3.24843Q24.2581 -4.34706 23.7189 -4.97776Q23.1798 -5.60845 22.2575 -5.60845ZM24.9769 -9.90126L24.9769 -8.65343Q24.4615 -8.89757 23.936 -9.02642Q23.4104 -9.15527 22.895 -9.15527Q21.5386 -9.15527 20.8232 -8.23975Q20.1077 -7.32422 20.006 -5.47282Q20.4061 -6.06282 21.0097 -6.37817Q21.6132 -6.69352 22.3389 -6.69352Q23.8647 -6.69352 24.7498 -5.76782Q25.6348 -4.84212 25.6348 -3.24843Q25.6348 -1.68864 24.7125 -0.745985Q23.7901 0.196669 22.2575 0.196669Q20.501 0.196669 19.5719 -1.1495Q18.6428 -2.49566 18.6428 -5.05235Q18.6428 -7.45307 19.7822 -8.88062Q20.9215 -10.3082 22.8407 -10.3082Q23.3561 -10.3082 23.8817 -10.2064Q24.4073 -10.1047 24.9769 -9.90126ZM30.9245 -9.22309Q29.8665 -9.22309 29.3342 -8.1821Q28.8018 -7.14111 28.8018 -5.05235Q28.8018 -2.97038 29.3342 -1.92939Q29.8665 -0.888401 30.9245 -0.888401Q31.9892 -0.888401 32.5216 -1.92939Q33.0539 -2.97038 33.0539 -5.05235Q33.0539 -7.14111 32.5216 -8.1821Q31.9892 -9.22309 30.9245 -9.22309ZM30.9245 -10.3082Q32.6267 -10.3082 33.5253 -8.962Q34.4238 -7.61583 34.4238 -5.05235Q34.4238 -2.49566 33.5253 -1.1495Q32.6267 0.196669 30.9245 0.196669Q29.2223 0.196669 28.3237 -1.1495Q27.4251 -2.49566 27.4251 -5.05235Q27.4251 -7.61583 28.3237 -8.962Q29.2223 -10.3082 30.9245 -10.3082ZM39.761 -9.22309Q38.7031 -9.22309 38.1707 -8.1821Q37.6383 -7.14111 37.6383 -5.05235Q37.6383 -2.97038 38.1707 -1.92939Q38.7031 -0.888401 39.761 -0.888401Q40.8257 -0.888401 41.3581 -1.92939Q41.8905 -2.97038 41.8905 -5.05235Q41.8905 -7.14111 41.3581 -8.1821Q40.8257 -9.22309 39.761 -9.22309ZM39.761 -10.3082Q41.4632 -10.3082 42.3618 -8.962Q43.2604 -7.61583 43.2604 -5.05235Q43.2604 -2.49566 42.3618 -1.1495Q41.4632 0.196669 39.761 0.196669Q38.0588 0.196669 37.1602 -1.1495Q36.2617 -2.49566 36.2617 -5.05235Q36.2617 -7.61583 37.1602 -8.962Q38.0588 -10.3082 39.761 -10.3082Z" fill="#262626" transform="translate(654.7368421052631,181.0344827586207) translate(-22.09133529663086,0)" />
</g>
<g class="spine">
<line x1="100" y1="534" x2="720" y2="534" stroke="#262626" stroke-width="0.8" />
</g>
<g class="spine">
<line x1="100" y1="72" x2="720" y2="72" stroke="#262626" stroke-width="0.8" />
</g>
<g class="spine">
<line x1="100" y1="72" x2="100" y2="534" stroke="#262626" stroke-width="0.8" />
</g>
<g class="spine">
<line x1="720" y1="72" x2="720" y2="534" stroke="#262626" stroke-width="0.8" />
</g>
<g class="legend" aria-label="Chart legend">
<rect x="593.9606632656521" y="82" width="116.03933673434787" height="25.72222222222222" fill="#FFFFFF" fill-opacity="0.8" stroke="#CCCCCC" stroke-width="0.5" />
<rect x="601.9606632656521" y="90" width="27.77777777777778" height="9.722222222222221" fill="#1F77B4" />
<path d="M5.47282 -9.19596Q3.98085 -9.19596 3.10262 -8.08377Q2.22439 -6.97157 2.22439 -5.05235Q2.22439 -3.13992 3.10262 -2.02772Q3.98085 -0.915527 5.47282 -0.915527Q6.96479 -0.915527 7.83624 -2.02772Q8.70768 -3.13992 8.70768 -5.05235Q8.70768 -6.97157 7.83624 -8.08377Q6.96479 -9.19596 5.47282 -9.19596ZM7.39204 -0.183105L9.19596 1.79036L7.54123 1.79036L6.04248 0.169542Q5.81868 0.183105 5.70001 0.189887Q5.58133 0.196669 5.47282 0.196669Q3.33659 0.196669 2.05824 -1.23088Q0.779894 -2.65842 0.779894 -5.05235Q0.779894 -7.45307 2.05824 -8.88062Q3.33659 -10.3082 5.47282 -10.3082Q7.60227 -10.3082 8.87722 -8.88062Q10.1522 -7.45307 10.1522 -5.05235Q10.1522 -3.28912 9.4435 -2.03451Q8.73481 -0.779894 7.39204 -0.183105ZM12.6546 -1.15289L14.8926 -1.15289L14.8926 -8.87722L12.458 -8.38894L12.458 -9.63677L14.879 -10.1251L16.2489 -10.1251L16.2489 -1.15289L18.4869 -1.15289L18.4869 0L12.6546 0L12.6546 -1.15289ZM31.6162 -9.79275L31.6162 -8.45676Q30.8363 -8.82975 30.1446 -9.01286Q29.4529 -9.19596 28.8086 -9.19596Q27.6896 -9.19596 27.0827 -8.76194Q26.4757 -8.32791 26.4757 -7.52767Q26.4757 -6.85628 26.8792 -6.51381Q27.2827 -6.17133 28.4085 -5.9611L29.2358 -5.79156Q30.7685 -5.49995 31.4975 -4.76413Q32.2266 -4.02832 32.2266 -2.79405Q32.2266 -1.32243 31.2398 -0.56288Q30.2531 0.196669 28.3474 0.196669Q27.6286 0.196669 26.8182 0.0339084Q26.0078 -0.128852 25.1397 -0.447591L25.1397 -1.85818Q25.9739 -1.39025 26.7741 -1.15289Q27.5743 -0.915527 28.3474 -0.915527Q29.5207 -0.915527 30.1581 -1.37668Q30.7956 -1.83784 30.7956 -2.69233Q30.7956 -3.43831 30.3379 -3.85878Q29.8801 -4.27924 28.8357 -4.48947L28.0016 -4.65224Q26.4689 -4.95741 25.784 -5.60845Q25.099 -6.25949 25.099 -7.41916Q25.099 -8.76194 26.0451 -9.53505Q26.9911 -10.3082 28.6526 -10.3082Q29.3647 -10.3082 30.1039 -10.1793Q30.8431 -10.0505 31.6162 -9.79275ZM37.7604 -3.81809Q36.2481 -3.81809 35.6649 -3.47222Q35.0817 -3.12636 35.0817 -2.29221Q35.0817 -1.6276 35.5191 -1.23766Q35.9565 -0.84771 36.7093 -0.847711Q37.7469 -0.847711 38.3742 -1.58352Q39.0015 -2.31934 39.0015 -3.54004L39.0015 -3.81809L37.7604 -3.81809ZM40.2493 -4.3335L40.2493 0L39.0015 0L39.0015 -1.15289Q38.5742 -0.461155 37.9367 -0.132243Q37.2993 0.196669 36.377 0.196669Q35.2105 0.196669 34.5222 -0.457764Q33.8338 -1.1122 33.8338 -2.21083Q33.8338 -3.49257 34.6917 -4.14361Q35.5496 -4.79465 37.2518 -4.79465L39.0015 -4.79465L39.0015 -4.91672Q39.0015 -5.77799 38.4352 -6.24932Q37.8689 -6.72065 36.8449 -6.72065Q36.1938 -6.72065 35.5767 -6.56467Q34.9596 -6.40869 34.3899 -6.09673L34.3899 -7.24962Q35.0749 -7.51411 35.7191 -7.64635Q36.3634 -7.77859 36.9737 -7.77859Q38.6217 -7.77859 39.4355 -6.9241Q40.2493 -6.06961 40.2493 -4.3335ZM42.8196 -10.5523L44.0674 -10.5523L44.0674 0L42.8196 0L42.8196 -10.5523ZM53.1752 -4.1097L53.1752 -3.49935L47.4379 -3.49935Q47.5193 -2.21083 48.2144 -1.53605Q48.9095 -0.861274 50.1506 -0.861274Q50.8694 -0.861274 51.5442 -1.0376Q52.219 -1.21392 52.8836 -1.56657L52.8836 -0.386556Q52.2122 -0.101725 51.5069 0.0474718Q50.8016 0.196669 50.076 0.196669Q48.2585 0.196669 47.1971 -0.861274Q46.1358 -1.91922 46.1358 -3.72314Q46.1358 -5.58811 47.1429 -6.68335Q48.15 -7.77859 49.8589 -7.77859Q51.3916 -7.77859 52.2834 -6.79186Q53.1752 -5.80512 53.1752 -4.1097ZM51.9274 -4.47591Q51.9138 -5.49995 51.3543 -6.1103Q50.7948 -6.72065 49.8725 -6.72065Q48.8281 -6.72065 48.2008 -6.13064Q47.5735 -5.54064 47.4786 -4.46913L51.9274 -4.47591ZM60.0654 -7.37169L60.0654 -6.19168Q59.5364 -6.46294 58.9667 -6.59858Q58.3971 -6.73421 57.7867 -6.73421Q56.8576 -6.73421 56.3931 -6.44938Q55.9286 -6.16455 55.9286 -5.59489Q55.9286 -5.16086 56.2609 -4.91333Q56.5932 -4.6658 57.5968 -4.442L58.0241 -4.34706Q59.3533 -4.06223 59.9128 -3.54343Q60.4723 -3.02463 60.4723 -2.09554Q60.4723 -1.0376 59.6347 -0.420464Q58.7972 0.196669 57.3324 0.196669Q56.722 0.196669 56.0608 0.0779894Q55.3996 -0.0406901 54.6672 -0.278049L54.6672 -1.56657Q55.3589 -1.20714 56.0303 -1.02743Q56.7017 -0.84771 57.3595 -0.847711Q58.2411 -0.847711 58.7158 -1.1495Q59.1905 -1.45128 59.1905 -2.0006Q59.1905 -2.50922 58.8481 -2.78049Q58.5056 -3.05176 57.3459 -3.30268L56.9119 -3.40441Q55.7522 -3.64855 55.2368 -4.15378Q54.7214 -4.65902 54.7214 -5.54064Q54.7214 -6.61214 55.481 -7.19537Q56.2405 -7.77859 57.6375 -7.77859Q58.3293 -7.77859 58.9396 -7.67687Q59.55 -7.57514 60.0654 -7.37169Z" fill="#262626" transform="translate(640.849552154541,98.72222222222223)" />
</g>
<path d="M9.51937 -11.2184L9.51937 -8.76682Q8.5651 -9.19352 7.65739 -9.41075Q6.74967 -9.62798 5.94282 -9.62798Q4.87218 -9.62798 4.36013 -9.33317Q3.84809 -9.03836 3.84809 -8.4177Q3.84809 -7.9522 4.19333 -7.6923Q4.53857 -7.4324 5.44629 -7.2462L6.71864 -6.99018Q8.65044 -6.60227 9.46506 -5.81093Q10.2797 -5.01959 10.2797 -3.56104Q10.2797 -1.64475 9.14309 -0.70988Q8.00651 0.224989 5.67128 0.224989Q4.56961 0.224989 3.46018 0.0155165Q2.35075 -0.193956 1.24132 -0.605143L1.24132 -3.12657Q2.35075 -2.53695 3.38647 -2.23825Q4.4222 -1.93956 5.38422 -1.93956Q6.36176 -1.93956 6.88156 -2.26541Q7.40137 -2.59125 7.40137 -3.1964Q7.40137 -3.73948 7.04837 -4.03429Q6.69537 -4.3291 5.64025 -4.56185L4.48427 -4.81787Q2.74642 -5.19027 1.94344 -6.00488Q1.14046 -6.8195 1.14046 -8.20047Q1.14046 -9.93056 2.25765 -10.8615Q3.37484 -11.7925 5.46956 -11.7925Q6.42383 -11.7925 7.4324 -11.649Q8.44097 -11.5055 9.51937 -11.2184ZM16.6725 -3.91016Q15.8035 -3.91016 15.3652 -3.61534Q14.9269 -3.32053 14.9269 -2.74642Q14.9269 -2.21886 15.2799 -1.92017Q15.6329 -1.62147 16.2613 -1.62147Q17.0449 -1.62147 17.5802 -2.18395Q18.1155 -2.74642 18.1155 -3.59207L18.1155 -3.91016L16.6725 -3.91016ZM20.9162 -4.95752L20.9162 0L18.1155 0L18.1155 -1.28787Q17.5569 -0.496528 16.8587 -0.135769Q16.1604 0.224989 15.1596 0.224989Q13.8097 0.224989 12.9679 -0.562473Q12.1261 -1.34993 12.1261 -2.60677Q12.1261 -4.13515 13.1774 -4.8489Q14.2286 -5.56266 16.4785 -5.56266L18.1155 -5.56266L18.1155 -5.77989Q18.1155 -6.43934 17.5957 -6.7458Q17.0759 -7.05225 15.9742 -7.05225Q15.082 -7.05225 14.314 -6.87381Q13.5459 -6.69537 12.8864 -6.33849L12.8864 -8.45649Q13.7786 -8.67372 14.6786 -8.78621Q15.5786 -8.89871 16.4785 -8.89871Q18.8293 -8.89871 19.8727 -7.9716Q20.9162 -7.04449 20.9162 -4.95752ZM23.4997 -12.0718L26.2772 -12.0718L26.2772 0L23.4997 0L23.4997 -12.0718ZM37.6197 -4.36789L37.6197 -3.57655L31.1261 -3.57655Q31.2269 -2.59901 31.8321 -2.11024Q32.4372 -1.62147 33.5234 -1.62147Q34.4001 -1.62147 35.3194 -1.88137Q36.2388 -2.14128 37.2085 -2.66884L37.2085 -0.527561Q36.2233 -0.155165 35.238 0.0349121Q34.2527 0.224989 33.2674 0.224989Q30.9089 0.224989 29.6016 -0.97366Q28.2943 -2.17231 28.2943 -4.33686Q28.2943 -6.46262 29.5783 -7.68066Q30.8623 -8.89871 33.1122 -8.89871Q35.1604 -8.89871 36.3901 -7.66515Q37.6197 -6.43159 37.6197 -4.36789ZM34.7647 -5.29112Q34.7647 -6.08247 34.3031 -6.56736Q33.8415 -7.05225 33.0967 -7.05225Q32.2898 -7.05225 31.7855 -6.59839Q31.2813 -6.14453 31.1571 -5.29112L34.7647 -5.29112ZM46.5107 -8.4177L46.5107 -6.30745Q45.6185 -6.67985 44.7884 -6.86605Q43.9582 -7.05225 43.2212 -7.05225Q42.4298 -7.05225 42.0458 -6.85441Q41.6618 -6.65657 41.6618 -6.24539Q41.6618 -5.91178 41.9527 -5.73334Q42.2437 -5.5549 42.9962 -5.46956L43.485 -5.39974Q45.6185 -5.1282 46.3555 -4.50754Q47.0926 -3.88688 47.0926 -2.56022Q47.0926 -1.1715 46.0685 -0.473253Q45.0444 0.224989 43.0117 0.224989Q42.1506 0.224989 41.2312 0.0892198Q40.3118 -0.0465495 39.3421 -0.318088L39.3421 -2.42833Q40.1722 -2.0249 41.045 -1.82319Q41.9178 -1.62147 42.8178 -1.62147Q43.6324 -1.62147 44.0436 -1.84646Q44.4548 -2.07145 44.4548 -2.51367Q44.4548 -2.88607 44.1716 -3.06839Q43.8884 -3.25071 43.0428 -3.35156L42.554 -3.41363Q40.6998 -3.64638 39.955 -4.27479Q39.2102 -4.90321 39.2102 -6.18332Q39.2102 -7.56429 40.1567 -8.2315Q41.1032 -8.89871 43.0583 -8.89871Q43.8263 -8.89871 44.672 -8.78234Q45.5176 -8.66596 46.5107 -8.4177ZM59.3351 -1.79216Q60.2273 -1.79215 60.6966 -2.44385Q61.166 -3.09554 61.166 -4.33686Q61.166 -5.57818 60.6966 -6.22987Q60.2273 -6.88156 59.3351 -6.88156Q58.4429 -6.88156 57.9657 -6.22599Q57.4886 -5.57042 57.4886 -4.33686Q57.4886 -3.1033 57.9657 -2.44773Q58.4429 -1.79215 59.3351 -1.79216ZM57.4886 -7.41688Q58.0627 -8.17719 58.761 -8.53795Q59.4592 -8.89871 60.3669 -8.89871Q61.9729 -8.89871 63.0047 -7.62248Q64.0366 -6.34625 64.0366 -4.33686Q64.0366 -2.32747 63.0047 -1.05124Q61.9729 0.224989 60.3669 0.224989Q59.4592 0.224989 58.761 -0.135769Q58.0627 -0.496528 57.4886 -1.25684L57.4886 0L54.7112 0L54.7112 -12.0718L57.4886 -12.0718L57.4886 -7.41688ZM64.9443 -8.68924L67.7217 -8.68924L70.057 -2.79297L72.0431 -8.68924L74.8205 -8.68924L71.1664 0.822374Q70.6156 2.27317 69.8824 2.85116Q69.1493 3.42915 67.9467 3.42915L66.3408 3.42915L66.3408 1.60596L67.2097 1.60596Q67.9157 1.60596 68.2377 1.38097Q68.5596 1.15598 68.7381 0.57411L68.8157 0.333605L64.9443 -8.68924ZM82.0978 -11.5831L87.0553 -11.5831Q89.2664 -11.5831 90.4495 -10.6016Q91.6327 -9.62023 91.6327 -7.8048Q91.6327 -5.98161 90.4495 -5.00019Q89.2664 -4.01877 87.0553 -4.01877L85.0847 -4.01877L85.0847 0L82.0978 0L82.0978 -11.5831ZM85.0847 -9.41851L85.0847 -6.18332L86.7372 -6.18332Q87.6061 -6.18332 88.0794 -6.60615Q88.5526 -7.02897 88.5526 -7.8048Q88.5526 -8.58062 88.0794 -8.99957Q87.6061 -9.41851 86.7372 -9.41851L85.0847 -9.41851ZM100.074 -6.32297Q99.709 -6.49365 99.3482 -6.57511Q98.9875 -6.65657 98.6228 -6.65658Q97.5522 -6.65657 96.9742 -5.96997Q96.3962 -5.28337 96.3962 -4.00326L96.3962 0L93.6188 0L93.6188 -8.68924L96.3962 -8.68924L96.3962 -7.26172Q96.9315 -8.11513 97.6259 -8.50692Q98.3203 -8.89871 99.29 -8.89871Q99.4297 -8.89871 99.5926 -8.88707Q99.7555 -8.87543 100.066 -8.83664L100.074 -6.32297ZM105.59 -6.9126Q104.667 -6.9126 104.182 -6.24927Q103.697 -5.58594 103.697 -4.33686Q103.697 -3.08778 104.182 -2.42445Q104.667 -1.76112 105.59 -1.76112Q106.497 -1.76112 106.978 -2.42445Q107.459 -3.08778 107.459 -4.33686Q107.459 -5.58594 106.978 -6.24927Q106.497 -6.9126 105.59 -6.9126ZM105.59 -8.89871Q107.832 -8.89871 109.093 -7.68842Q110.353 -6.47814 110.353 -4.33686Q110.353 -2.19558 109.093 -0.985297Q107.832 0.224989 105.59 0.224989Q103.34 0.224989 102.071 -0.985297Q100.803 -2.19558 100.803 -4.33686Q100.803 -6.47814 102.071 -7.68842Q103.34 -8.89871 105.59 -8.89871ZM118.282 -7.41688L118.282 -12.0718L121.075 -12.0718L121.075 0L118.282 0L118.282 -1.25684Q117.708 -0.48877 117.018 -0.13189Q116.327 0.224989 115.419 0.224989Q113.813 0.224989 112.782 -1.05124Q111.75 -2.32747 111.75 -4.33686Q111.75 -6.34625 112.782 -7.62248Q113.813 -8.89871 115.419 -8.89871Q116.319 -8.89871 117.014 -8.53795Q117.708 -8.17719 118.282 -7.41688ZM116.451 -1.79216Q117.343 -1.79215 117.813 -2.44385Q118.282 -3.09554 118.282 -4.33686Q118.282 -5.57818 117.813 -6.22987Q117.343 -6.88156 116.451 -6.88156Q115.567 -6.88156 115.097 -6.22987Q114.628 -5.57818 114.628 -4.33686Q114.628 -3.09554 115.097 -2.44385Q115.567 -1.79216 116.451 -1.79216ZM123.651 -3.3826L123.651 -8.68924L126.444 -8.68924L126.444 -7.82031Q126.444 -7.11431 126.436 -6.04755Q126.428 -4.98079 126.428 -4.62392Q126.428 -3.57655 126.483 -3.11494Q126.537 -2.65332 126.669 -2.44385Q126.84 -2.17231 127.115 -2.0249Q127.39 -1.8775 127.747 -1.8775Q128.616 -1.8775 129.113 -2.5447Q129.609 -3.21191 129.609 -4.39893L129.609 -8.68924L132.387 -8.68924L132.387 0L129.609 0L129.609 -1.25684Q128.981 -0.496528 128.279 -0.135769Q127.577 0.224989 126.731 0.224989Q125.226 0.224989 124.438 -0.698242Q123.651 -1.62147 123.651 -3.3826ZM142.077 -8.4177L142.077 -6.15229Q141.51 -6.5402 140.94 -6.7264Q140.37 -6.9126 139.757 -6.9126Q138.593 -6.9126 137.946 -6.23375Q137.298 -5.5549 137.298 -4.33686Q137.298 -3.11881 137.946 -2.43997Q138.593 -1.76112 139.757 -1.76112Q140.409 -1.76112 140.995 -1.95508Q141.58 -2.14903 142.077 -2.52919L142.077 -0.256022C141.642 -0.095685 141.201 0.0245678 140.754 0.104736Q140.083 0.224989 139.408 0.224989Q137.057 0.224989 135.731 -0.981418Q134.404 -2.18783 134.404 -4.33686Q134.404 -6.48589 135.731 -7.6923Q137.057 -8.89871 139.408 -8.89871Q140.091 -8.89871 140.754 -8.77846Q141.417 -8.6582 142.077 -8.4177ZM147.508 -11.1564L147.508 -8.68924L150.37 -8.68924L150.37 -6.70313L147.508 -6.70313L147.508 -3.01796Q147.508 -2.41281 147.748 -2.19946Q147.989 -1.98611 148.702 -1.98611L150.13 -1.98611L150.13 0L147.748 0Q146.103 0 145.417 -0.686605Q144.73 -1.37321 144.73 -3.01796L144.73 -6.70313L143.349 -6.70313L143.349 -8.68924L144.73 -8.68924L144.73 -11.1564L147.508 -11.1564Z" fill="#262626" transform="translate(410,64) translate(-75.36749267578125,0)" />
<path d="M6.16455 -4.74718Q6.60536 -4.59798 7.02243 -4.1097Q7.43951 -3.62142 7.85997 -2.76693L9.25022 0L7.77859 0L6.48329 -2.59739Q5.98145 -3.61464 5.51012 -3.94694Q5.03879 -4.27924 4.22499 -4.27924L2.73302 -4.27924L2.73302 0L1.36312 0L1.36312 -10.1251L4.45557 -10.1251Q6.19168 -10.1251 7.04617 -9.39941Q7.90066 -8.67377 7.90066 -7.20893Q7.90066 -6.25271 7.45646 -5.62202Q7.01226 -4.99132 6.16455 -4.74718ZM2.73302 -8.9993L2.73302 -5.405L4.45557 -5.405Q5.44569 -5.405 5.95093 -5.86277Q6.45616 -6.32053 6.45616 -7.20893Q6.45616 -8.09733 5.95093 -8.54831Q5.44569 -8.99929 4.45557 -8.9993L2.73302 -8.9993ZM17.4561 -4.1097L17.4561 -3.49935L11.7188 -3.49935Q11.8001 -2.21083 12.4953 -1.53605Q13.1904 -0.861274 14.4314 -0.861274Q15.1503 -0.861274 15.8251 -1.0376Q16.4998 -1.21392 17.1644 -1.56657L17.1644 -0.386556Q16.4931 -0.101725 15.7878 0.0474718Q15.0825 0.196669 14.3568 0.196669Q12.5393 0.196669 11.478 -0.861274Q10.4167 -1.91922 10.4167 -3.72314Q10.4167 -5.58811 11.4237 -6.68335Q12.4308 -7.77859 14.1398 -7.77859Q15.6725 -7.77859 16.5643 -6.79186Q17.4561 -5.80512 17.4561 -4.1097ZM16.2082 -4.47591Q16.1947 -5.49995 15.6352 -6.1103Q15.0757 -6.72065 14.1534 -6.72065Q13.109 -6.72065 12.4817 -6.13064Q11.8544 -5.54064 11.7594 -4.46913L16.2082 -4.47591ZM18.6089 -7.59549L19.9314 -7.59549L22.305 -1.2207L24.6785 -7.59549L26.001 -7.59549L23.1527 0L21.4572 0L18.6089 -7.59549ZM34.2204 -4.1097L34.2204 -3.49935L28.4831 -3.49935Q28.5645 -2.21083 29.2596 -1.53605Q29.9547 -0.861274 31.1957 -0.861274Q31.9146 -0.861274 32.5894 -1.0376Q33.2642 -1.21392 33.9288 -1.56657L33.9288 -0.386556Q33.2574 -0.101725 32.5521 0.0474718Q31.8468 0.196669 31.1212 0.196669Q29.3037 0.196669 28.2423 -0.861274Q27.181 -1.91922 27.181 -3.72314Q27.181 -5.58811 28.1881 -6.68335Q29.1952 -7.77859 30.9041 -7.77859Q32.4368 -7.77859 33.3286 -6.79186Q34.2204 -5.80512 34.2204 -4.1097ZM32.9725 -4.47591Q32.959 -5.49995 32.3995 -6.1103Q31.84 -6.72065 30.9177 -6.72065Q29.8733 -6.72065 29.246 -6.13064Q28.6187 -5.54064 28.5238 -4.46913L32.9725 -4.47591ZM42.5822 -4.58442L42.5822 0L41.3344 0L41.3344 -4.54373Q41.3344 -5.62202 40.9139 -6.15777Q40.4934 -6.69352 39.6525 -6.69352Q38.642 -6.69352 38.0588 -6.04926Q37.4756 -5.405 37.4756 -4.29281L37.4756 0L36.221 0L36.221 -7.59549L37.4756 -7.59549L37.4756 -6.41547Q37.9232 -7.10042 38.5301 -7.43951Q39.1371 -7.77859 39.9306 -7.77859Q41.2394 -7.77859 41.9108 -6.96818Q42.5822 -6.15777 42.5822 -4.58442ZM44.9422 -2.9975L44.9422 -7.59549L46.1901 -7.59549L46.1901 -3.04498Q46.1901 -1.96669 46.6105 -1.42754Q47.031 -0.888401 47.8719 -0.888401Q48.8824 -0.888401 49.469 -1.53266Q50.0556 -2.17692 50.0556 -3.28912L50.0556 -7.59549L51.3034 -7.59549L51.3034 0L50.0556 0L50.0556 -1.16645Q49.6012 -0.474718 49.0011 -0.139025Q48.4009 0.196669 47.6074 0.196669Q46.2986 0.196669 45.6204 -0.617133Q44.9422 -1.43094 44.9422 -2.9975ZM60.3706 -4.1097L60.3706 -3.49935L54.6333 -3.49935Q54.7146 -2.21083 55.4098 -1.53605Q56.1049 -0.861274 57.3459 -0.861274Q58.0648 -0.861274 58.7396 -1.0376Q59.4143 -1.21392 60.0789 -1.56657L60.0789 -0.386556Q59.4076 -0.101725 58.7023 0.0474718Q57.997 0.196669 57.2713 0.196669Q55.4538 0.196669 54.3925 -0.861274Q53.3312 -1.91922 53.3312 -3.72314Q53.3312 -5.58811 54.3382 -6.68335Q55.3453 -7.77859 57.0543 -7.77859Q58.587 -7.77859 59.4788 -6.79186Q60.3706 -5.80512 60.3706 -4.1097ZM59.1227 -4.47591Q59.1092 -5.49995 58.5497 -6.1103Q57.9902 -6.72065 57.0679 -6.72065Q56.0235 -6.72065 55.3962 -6.13064Q54.7689 -5.54064 54.6739 -4.46913L59.1227 -4.47591ZM69.831 -10.5387Q68.9223 -8.97895 68.4815 -7.45307Q68.0406 -5.92719 68.0406 -4.36062Q68.0406 -2.79405 68.4848 -1.258Q68.929 0.278049 69.831 1.83105L68.7459 1.83105Q67.7287 0.237359 67.2234 -1.30208Q66.7182 -2.84153 66.7182 -4.36062Q66.7182 -5.87294 67.2201 -7.4056Q67.7219 -8.93826 68.7459 -10.5387L69.831 -10.5387ZM75.6361 2.04129L74.958 2.04129L74.9512 0Q74.2391 -0.0135634 73.527 -0.166151Q72.8149 -0.318739 72.0961 -0.623915L72.0961 -1.84462Q72.7878 -1.41059 73.4965 -1.19019Q74.2052 -0.969781 74.958 -0.962999L74.958 -4.05545Q73.4592 -4.29959 72.7776 -4.88281Q72.0961 -5.46604 72.0961 -6.48329Q72.0961 -7.5887 72.8353 -8.22618Q73.5745 -8.86366 74.958 -8.9586L74.958 -10.5523L75.6361 -10.5523L75.6361 -8.97895Q76.2668 -8.95182 76.8568 -8.84671Q77.4468 -8.74159 78.0097 -8.55849L78.0097 -7.37169Q77.4468 -7.65652 76.8534 -7.8125Q76.26 -7.96848 75.6361 -7.99561L75.6361 -5.09983Q77.1756 -4.86247 77.9012 -4.25212Q78.6268 -3.64176 78.6268 -2.58382Q78.6268 -1.43772 77.8571 -0.776503Q77.0874 -0.115289 75.6361 -0.0135634L75.6361 2.04129ZM74.958 -5.2219L74.958 -8.00239Q74.1713 -7.91422 73.7576 -7.5548Q73.3439 -7.19537 73.3439 -6.59858Q73.3439 -6.01535 73.7271 -5.68983Q74.1102 -5.36431 74.958 -5.2219ZM75.6361 -3.91981L75.6361 -0.983344Q76.4974 -1.09863 76.9348 -1.47163Q77.3722 -1.84462 77.3722 -2.45497Q77.3722 -3.05176 76.9552 -3.40441Q76.5381 -3.75705 75.6361 -3.91981ZM80.8919 -10.5387L81.977 -10.5387Q82.9942 -8.93826 83.4995 -7.4056Q84.0047 -5.87294 84.0047 -4.36062Q84.0047 -2.84153 83.4995 -1.30208Q82.9942 0.237359 81.977 1.83105L80.8919 1.83105Q81.7939 0.278049 82.2381 -1.258Q82.6823 -2.79405 82.6823 -4.36062Q82.6823 -5.92719 82.2381 -7.45307Q81.7939 -8.97895 80.8919 -10.5387Z" fill="#262626" transform="translate(48.14675437079536,303) rotate(-90) translate(-42.59914779663086,0)" />
</svg>
