<svg xmlns="http://www.w3.org/2000/svg" viewBox="0 0 800 600" width="800" height="600" role="img" aria-labelledby="chart-title">
<title id="chart-title">Broken Y-Axis</title>
<rect x="0" y="0" width="800" height="600" fill="#FFFFFF" />
<path d="M6.86556 -7.99235Q7.66043 -7.99235 8.07096 -8.34174Q8.4815 -8.69113 8.4815 -9.37245Q8.4815 -10.045 8.07096 -10.3988Q7.66043 -10.7526 6.86556 -10.7526L5.00505 -10.7526L5.00505 -7.99235L6.86556 -7.99235ZM6.97911 -2.28852Q7.99235 -2.28852 8.50334 -2.71653Q9.01432 -3.14453 9.01432 -4.00928Q9.01432 -4.85655 8.5077 -5.28019Q8.00109 -5.70383 6.97911 -5.70383L5.00505 -5.70383L5.00505 -2.28852L6.97911 -2.28852ZM10.1062 -6.97911Q11.1893 -6.66466 11.7833 -5.81738Q12.3772 -4.97011 12.3772 -3.7385Q12.3772 -1.85178 11.1019 -0.92589Q9.82666 0 7.22369 0L1.64214 0L1.64214 -13.0411L6.69086 -13.0411Q9.40739 -13.0411 10.6259 -12.22Q11.8444 -11.3989 11.8444 -9.59082Q11.8444 -8.63873 11.3989 -7.97051Q10.9535 -7.3023 10.1062 -6.97911ZM22.4048 -7.11887Q21.9942 -7.31103 21.5881 -7.40275Q21.1819 -7.49447 20.7714 -7.49447Q19.566 -7.49447 18.9152 -6.72144Q18.2645 -5.94841 18.2645 -4.50716L18.2645 0L15.1374 0L15.1374 -9.78299L18.2645 -9.78299L18.2645 -8.17578Q18.8672 -9.13661 19.649 -9.57772Q20.4307 -10.0188 21.5226 -10.0188Q21.6798 -10.0188 21.8632 -10.0057Q22.0467 -9.99262 22.3961 -9.94895L22.4048 -7.11887ZM28.6152 -7.78271Q27.5758 -7.78271 27.0299 -7.03589Q26.4839 -6.28906 26.4839 -4.88276Q26.4839 -3.47645 27.0299 -2.72963Q27.5758 -1.9828 28.6152 -1.9828Q29.6372 -1.9828 30.1788 -2.72963Q30.7203 -3.47645 30.7203 -4.88276Q30.7203 -6.28906 30.1788 -7.03589Q29.6372 -7.78271 28.6152 -7.78271ZM28.6152 -10.0188Q31.1396 -10.0188 32.559 -8.6562Q33.9784 -7.29357 33.9784 -4.88276Q33.9784 -2.47195 32.559 -1.10932Q31.1396 0.253309 28.6152 0.253309Q26.0821 0.253309 24.654 -1.10932Q23.2259 -2.47195 23.2259 -4.88276Q23.2259 -7.29357 24.654 -8.6562Q26.0821 -10.0188 28.6152 -10.0188ZM36.2495 -13.5914L39.3765 -13.5914L39.3765 -6.19298L42.9753 -9.78299L46.6089 -9.78299L41.831 -5.29329L46.9845 0L43.1936 0L39.3765 -4.07916L39.3765 0L36.2495 0L36.2495 -13.5914ZM57.9118 -4.9177L57.9118 -4.02675L50.6007 -4.02675Q50.7143 -2.92616 51.3956 -2.37587Q52.0769 -1.82558 53.2998 -1.82558Q54.2868 -1.82558 55.3219 -2.11819Q56.357 -2.41081 57.4488 -3.00477L57.4488 -0.593967Q56.3395 -0.174696 55.2302 0.0393066Q54.1209 0.253309 53.0116 0.253309Q50.3562 0.253309 48.8844 -1.09622Q47.4125 -2.44575 47.4125 -4.88276Q47.4125 -7.2761 48.8582 -8.64746Q50.3038 -10.0188 52.8369 -10.0188Q55.1429 -10.0188 56.5273 -8.62999Q57.9118 -7.24116 57.9118 -4.9177ZM54.6974 -5.95714Q54.6974 -6.84809 54.1777 -7.39402Q53.6579 -7.93994 52.8194 -7.93994Q51.911 -7.93994 51.3432 -7.42896Q50.7754 -6.91797 50.6357 -5.95714L54.6974 -5.95714ZM70.1143 -5.95714L70.1143 0L66.9698 0L66.9698 -0.969564L66.9698 -4.55957Q66.9698 -5.82612 66.913 -6.30653Q66.8562 -6.78695 66.7165 -7.01405Q66.533 -7.31977 66.2186 -7.4901Q65.9041 -7.66043 65.5023 -7.66043Q64.524 -7.66043 63.965 -6.90487Q63.406 -6.14931 63.406 -4.81288L63.406 0L60.2789 0L60.2789 -9.78299L63.406 -9.78299L63.406 -8.35048Q64.1135 -9.20649 64.9084 -9.61266Q65.7032 -10.0188 66.6641 -10.0188Q68.3586 -10.0188 69.2365 -8.97938Q70.1143 -7.93994 70.1143 -5.95714ZM77.5651 -13.0411L81.2425 -13.0411L84.2123 -8.39415L87.1821 -13.0411L90.8682 -13.0411L85.8981 -5.49419L85.8981 0L82.5352 0L82.5352 -5.49419L77.5651 -13.0411ZM91.6631 -6.42008L97.1486 -6.42008L97.1486 -3.87826L91.6631 -3.87826L91.6631 -6.42008ZM107.674 -2.37587L102.416 -2.37587L101.586 0L98.2055 0L103.036 -13.0411L107.045 -13.0411L111.875 0L108.495 0L107.674 -2.37587ZM103.254 -4.79541L106.827 -4.79541L105.045 -9.98389L103.254 -4.79541ZM115.937 -5.00505L112.408 -9.78299L115.719 -9.78299L117.719 -6.88303L119.746 -9.78299L123.056 -9.78299L119.527 -5.02252L123.231 0L119.92 0L117.719 -3.09212L115.544 0L112.234 0L115.937 -5.00505ZM125.004 -9.78299L128.131 -9.78299L128.131 0L125.004 0L125.004 -9.78299ZM125.004 -13.5914L128.131 -13.5914L128.131 -11.0408L125.004 -11.0408L125.004 -13.5914ZM138.779 -9.47727L138.779 -7.1014Q137.774 -7.52067 136.84 -7.73031Q135.905 -7.93994 135.075 -7.93994Q134.184 -7.93994 133.752 -7.7172Q133.319 -7.49447 133.319 -7.03152Q133.319 -6.65592 133.647 -6.45502Q133.975 -6.25412 134.822 -6.15804L135.372 -6.07943Q137.774 -5.77371 138.604 -5.07492Q139.434 -4.37614 139.434 -2.88249Q139.434 -1.31896 138.281 -0.532823Q137.128 0.253309 134.839 0.253309Q133.87 0.253309 132.835 0.10045Q131.8 -0.0524089 130.708 -0.358127L130.708 -2.734Q131.642 -2.27978 132.625 -2.05268Q133.608 -1.82557 134.621 -1.82558Q135.538 -1.82558 136.001 -2.07888Q136.464 -2.33219 136.464 -2.83008Q136.464 -3.24935 136.145 -3.45462Q135.826 -3.65989 134.874 -3.77344L134.324 -3.84332Q132.236 -4.10536 131.398 -4.81288Q130.559 -5.5204 130.559 -6.96164Q130.559 -8.51644 131.625 -9.26763Q132.69 -10.0188 134.892 -10.0188Q135.756 -10.0188 136.708 -9.8878Q137.661 -9.75678 138.779 -9.47727Z" fill="#262626" transform="translate(400,24.099999999999998) translate(-70.14051818847656,0)" />
<rect x="100" y="72" width="620" height="462" fill="#FFFFFF" />
<line x1="128.1145584725537" y1="533.6" x2="128.1145584725537" y2="538.8611111111111" stroke="#262626" stroke-width="1.1111111111111112" />
<path d="M4.41488 -9.22309Q3.35693 -9.22309 2.82457 -8.1821Q2.29221 -7.14111 2.29221 -5.05235Q2.29221 -2.97038 2.82457 -1.92939Q3.35693 -0.888401 4.41488 -0.888401Q5.4796 -0.888401 6.01196 -1.92939Q6.54433 -2.97038 6.54433 -5.05235Q6.54433 -7.14111 6.01196 -8.1821Q5.4796 -9.22309 4.41488 -9.22309ZM4.41488 -10.3082Q6.11708 -10.3082 7.01565 -8.962Q7.91422 -7.61583 7.91423 -5.05235Q7.91423 -2.49566 7.01565 -1.1495Q6.11708 0.196669 4.41488 0.196669Q2.71267 0.196669 1.8141 -1.1495Q0.915527 -2.49566 0.915527 -5.05235Q0.915527 -7.61583 1.8141 -8.962Q2.71267 -10.3082 4.41488 -10.3082ZM10.3217 -1.72255L11.7527 -1.72255L11.7527 0L10.3217 0L10.3217 -1.72255ZM17.6663 -9.22309Q16.6083 -9.22309 16.076 -8.1821Q15.5436 -7.14111 15.5436 -5.05235Q15.5436 -2.97038 16.076 -1.92939Q16.6083 -0.888401 17.6663 -0.888401Q18.731 -0.888401 19.2634 -1.92939Q19.7957 -2.97038 19.7957 -5.05235Q19.7957 -7.14111 19.2634 -8.1821Q18.731 -9.22309 17.6663 -9.22309ZM17.6663 -10.3082Q19.3685 -10.3082 20.2671 -8.962Q21.1656 -7.61583 21.1656 -5.05235Q21.1656 -2.49566 20.2671 -1.1495Q19.3685 0.196669 17.6663 0.196669Q15.9641 0.196669 15.0655 -1.1495Q14.1669 -2.49566 14.1669 -5.05235Q14.1669 -7.61583 15.0655 -8.962Q15.9641 -10.3082 17.6663 -10.3082Z" fill="#262626" transform="translate(128.1145584725537,557.6111111111111) translate(-11.043972969055176,0)" />
<line x1="202.1002386634845" y1="533.6" x2="202.1002386634845" y2="538.8611111111111" stroke="#262626" stroke-width="1.1111111111111112" />
<path d="M2.6652 -1.15289L7.44629 -1.15289L7.44629 0L1.01725 0L1.01725 -1.15289Q1.79715 -1.95991 3.14331 -3.31963Q4.48947 -4.67936 4.83534 -5.0727Q5.49316 -5.8119 5.75426 -6.32392Q6.01535 -6.83594 6.01535 -7.331Q6.01535 -8.13802 5.44908 -8.64665Q4.88281 -9.15527 3.97407 -9.15527Q3.32981 -9.15527 2.61434 -8.93148Q1.89887 -8.70768 1.08507 -8.25331L1.08507 -9.63677Q1.91243 -9.96908 2.63129 -10.1386Q3.35015 -10.3082 3.94694 -10.3082Q5.52029 -10.3082 6.45616 -9.52148Q7.39204 -8.73481 7.39204 -7.41916Q7.39204 -6.79525 7.15807 -6.23576Q6.9241 -5.67627 6.30697 -4.91672Q6.13742 -4.72005 5.22868 -3.78079Q4.31993 -2.84153 2.6652 -1.15289ZM10.3217 -1.72255L11.7527 -1.72255L11.7527 0L10.3217 0L10.3217 -1.72255ZM14.7502 -10.1251L20.128 -10.1251L20.128 -8.97217L16.0048 -8.97217L16.0048 -6.49007Q16.3032 -6.5918 16.6016 -6.64266Q16.9 -6.69352 17.1984 -6.69352Q18.8938 -6.69352 19.8839 -5.76443Q20.874 -4.83534 20.874 -3.24843Q20.874 -1.61404 19.8568 -0.708686Q18.8395 0.196669 16.9881 0.196669Q16.3506 0.196669 15.6894 0.0881619C15.2486 0.0158239 14.7931 -0.092683 14.3229 -0.237359L14.3229 -1.61404Q14.9333 -1.28174 15.5843 -1.11898Q16.2354 -0.956217 16.961 -0.956217Q18.1342 -0.956217 18.8192 -1.57335Q19.5041 -2.19048 19.5041 -3.24843Q19.5041 -4.30637 18.8192 -4.9235Q18.1342 -5.54064 16.961 -5.54064Q16.4117 -5.54064 15.8658 -5.41857Q15.3198 -5.2965 14.7502 -5.03879L14.7502 -10.1251Z" fill="#262626" transform="translate(202.1002386634845,557.6111111111111) translate(-11.043972969055176,0)" />
<line x1="276.0859188544153" y1="533.6" x2="276.0859188544153" y2="538.8611111111111" stroke="#262626" stroke-width="1.1111111111111112" />
<path d="M1.49875 -10.1251L6.87663 -10.1251L6.87663 -8.97217L2.75336 -8.97217L2.75336 -6.49007Q3.05176 -6.5918 3.35015 -6.64266Q3.64855 -6.69352 3.94694 -6.69352Q5.64236 -6.69352 6.63249 -5.76443Q7.62261 -4.83534 7.62261 -3.24843Q7.62261 -1.61404 6.60536 -0.708686Q5.58811 0.196669 3.73671 0.196669Q3.09923 0.196669 2.43802 0.0881619C1.99721 0.0158239 1.5417 -0.092683 1.07151 -0.237359L1.07151 -1.61404Q1.68186 -1.28174 2.3329 -1.11898Q2.98394 -0.956217 3.70958 -0.956217Q4.88281 -0.956217 5.56776 -1.57335Q6.25271 -2.19048 6.25271 -3.24843Q6.25271 -4.30637 5.56776 -4.9235Q4.88281 -5.54064 3.70958 -5.54064Q3.16026 -5.54064 2.61434 -5.41857Q2.06841 -5.2965 1.49875 -5.03879L1.49875 -10.1251ZM10.3217 -1.72255L11.7527 -1.72255L11.7527 0L10.3217 0L10.3217 -1.72255ZM17.6663 -9.22309Q16.6083 -9.22309 16.076 -8.1821Q15.5436 -7.14111 15.5436 -5.05235Q15.5436 -2.97038 16.076 -1.92939Q16.6083 -0.888401 17.6663 -0.888401Q18.731 -0.888401 19.2634 -1.92939Q19.7957 -2.97038 19.7957 -5.05235Q19.7957 -7.14111 19.2634 -8.1821Q18.731 -9.22309 17.6663 -9.22309ZM17.6663 -10.3082Q19.3685 -10.3082 20.2671 -8.962Q21.1656 -7.61583 21.1656 -5.05235Q21.1656 -2.49566 20.2671 -1.1495Q19.3685 0.196669 17.6663 0.196669Q15.9641 0.196669 15.0655 -1.1495Q14.1669 -2.49566 14.1669 -5.05235Q14.1669 -7.61583 15.0655 -8.962Q15.9641 -10.3082 17.6663 -10.3082Z" fill="#262626" transform="translate(276.0859188544153,557.6111111111111) translate(-11.043972969055176,0)" />
<line x1="350.0715990453461" y1="533.6" x2="350.0715990453461" y2="538.8611111111111" stroke="#262626" stroke-width="1.1111111111111112" />
<path d="M1.13932 -10.1251L7.64974 -10.1251L7.64974 -9.54183L3.97407 0L2.54313 0L6.00179 -8.97217L1.13932 -8.97217L1.13932 -10.1251ZM10.3217 -1.72255L11.7527 -1.72255L11.7527 0L10.3217 0L10.3217 -1.72255ZM14.7502 -10.1251L20.128 -10.1251L20.128 -8.97217L16.0048 -8.97217L16.0048 -6.49007Q16.3032 -6.5918 16.6016 -6.64266Q16.9 -6.69352 17.1984 -6.69352Q18.8938 -6.69352 19.8839 -5.76443Q20.874 -4.83534 20.874 -3.24843Q20.874 -1.61404 19.8568 -0.708686Q18.8395 0.196669 16.9881 0.196669Q16.3506 0.196669 15.6894 0.0881619C15.2486 0.0158239 14.7931 -0.092683 14.3229 -0.237359L14.3229 -1.61404Q14.9333 -1.28174 15.5843 -1.11898Q16.2354 -0.956217 16.961 -0.956217Q18.1342 -0.956217 18.8192 -1.57335Q19.5041 -2.19048 19.5041 -3.24843Q19.5041 -4.30637 18.8192 -4.9235Q18.1342 -5.54064 16.961 -5.54064Q16.4117 -5.54064 15.8658 -5.41857Q15.3198 -5.2965 14.7502 -5.03879L14.7502 -10.1251Z" fill="#262626" transform="translate(350.0715990453461,557.6111111111111) translate(-11.043972969055176,0)" />
<line x1="424.0572792362769" y1="533.6" x2="424.0572792362769" y2="538.8611111111111" stroke="#262626" stroke-width="1.1111111111111112" />
<path d="M1.72255 -1.15289L3.9605 -1.15289L3.9605 -8.87722L1.52588 -8.38894L1.52588 -9.63677L3.94694 -10.1251L5.31684 -10.1251L5.31684 -1.15289L7.5548 -1.15289L7.5548 0L1.72255 0L1.72255 -1.15289ZM13.2514 -9.22309Q12.1935 -9.22309 11.6611 -8.1821Q11.1287 -7.14111 11.1287 -5.05235Q11.1287 -2.97038 11.6611 -1.92939Q12.1935 -0.888401 13.2514 -0.888401Q14.3161 -0.888401 14.8485 -1.92939Q15.3809 -2.97038 15.3809 -5.05235Q15.3809 -7.14111 14.8485 -8.1821Q14.3161 -9.22309 13.2514 -9.22309ZM13.2514 -10.3082Q14.9536 -10.3082 15.8522 -8.962Q16.7508 -7.61583 16.7508 -5.05235Q16.7508 -2.49566 15.8522 -1.1495Q14.9536 0.196669 13.2514 0.196669Q11.5492 0.196669 10.6506 -1.1495Q9.75206 -2.49566 9.75206 -5.05235Q9.75206 -7.61583 10.6506 -8.962Q11.5492 -10.3082 13.2514 -10.3082ZM19.1583 -1.72255L20.5892 -1.72255L20.5892 0L19.1583 0L19.1583 -1.72255ZM26.5028 -9.22309Q25.4449 -9.22309 24.9125 -8.1821Q24.3802 -7.14111 24.3802 -5.05235Q24.3802 -2.97038 24.9125 -1.92939Q25.4449 -0.888401 26.5028 -0.888401Q27.5675 -0.888401 28.0999 -1.92939Q28.6323 -2.97038 28.6323 -5.05235Q28.6323 -7.14111 28.0999 -8.1821Q27.5675 -9.22309 26.5028 -9.22309ZM26.5028 -10.3082Q28.205 -10.3082 29.1036 -8.962Q30.0022 -7.61583 30.0022 -5.05235Q30.0022 -2.49566 29.1036 -1.1495Q28.205 0.196669 26.5028 0.196669Q24.8006 0.196669 23.902 -1.1495Q23.0035 -2.49566 23.0035 -5.05235Q23.0035 -7.61583 23.902 -8.962Q24.8006 -10.3082 26.5028 -10.3082Z" fill="#262626" transform="translate(424.0572792362769,557.6111111111111) translate(-15.462240219116211,0)" />
<line x1="498.0429594272077" y1="533.6" x2="498.0429594272077" y2="538.8611111111111" stroke="#262626" stroke-width="1.1111111111111112" />
<path d="M1.72255 -1.15289L3.9605 -1.15289L3.9605 -8.87722L1.52588 -8.38894L1.52588 -9.63677L3.94694 -10.1251L5.31684 -10.1251L5.31684 -1.15289L7.5548 -1.15289L7.5548 0L1.72255 0L1.72255 -1.15289ZM11.5017 -1.15289L16.2828 -1.15289L16.2828 0L9.85379 0L9.85379 -1.15289Q10.6337 -1.95991 11.9798 -3.31963Q13.326 -4.67936 13.6719 -5.0727Q14.3297 -5.8119 14.5908 -6.32392Q14.8519 -6.83594 14.8519 -7.331Q14.8519 -8.13802 14.2856 -8.64665Q13.7193 -9.15527 12.8106 -9.15527Q12.1663 -9.15527 11.4509 -8.93148Q10.7354 -8.70768 9.9216 -8.25331L9.9216 -9.63677Q10.749 -9.96908 11.4678 -10.1386Q12.1867 -10.3082 12.7835 -10.3082Q14.3568 -10.3082 15.2927 -9.52148Q16.2286 -8.73481 16.2286 -7.41916Q16.2286 -6.79525 15.9946 -6.23576Q15.7606 -5.67627 15.1435 -4.91672Q14.974 -4.72005 14.0652 -3.78079Q13.1565 -2.84153 11.5017 -1.15289ZM19.1583 -1.72255L20.5892 -1.72255L20.5892 0L19.1583 0L19.1583 -1.72255ZM23.5867 -10.1251L28.9646 -10.1251L28.9646 -8.97217L24.8413 -8.97217L24.8413 -6.49007Q25.1397 -6.5918 25.4381 -6.64266Q25.7365 -6.69352 26.0349 -6.69352Q27.7303 -6.69352 28.7204 -5.76443Q29.7106 -4.83534 29.7106 -3.24843Q29.7106 -1.61404 28.6933 -0.708686Q27.6761 0.196669 25.8247 0.196669Q25.1872 0.196669 24.526 0.0881619C24.0852 0.0158239 23.6296 -0.092683 23.1595 -0.237359L23.1595 -1.61404Q23.7698 -1.28174 24.4208 -1.11898Q25.0719 -0.956217 25.7975 -0.956217Q26.9708 -0.956217 27.6557 -1.57335Q28.3407 -2.19048 28.3407 -3.24843Q28.3407 -4.30637 27.6557 -4.9235Q26.9708 -5.54064 25.7975 -5.54064Q25.2482 -5.54064 24.7023 -5.41857Q24.1564 -5.2965 23.5867 -5.03879L23.5867 -10.1251Z" fill="#262626" transform="translate(498.0429594272077,557.6111111111111) translate(-15.462240219116211,0)" />
<line x1="572.0286396181384" y1="533.6" x2="572.0286396181384" y2="538.8611111111111" stroke="#262626" stroke-width="1.1111111111111112" />
<path d="M1.72255 -1.15289L3.9605 -1.15289L3.9605 -8.87722L1.52588 -8.38894L1.52588 -9.63677L3.94694 -10.1251L5.31684 -10.1251L5.31684 -1.15289L7.5548 -1.15289L7.5548 0L1.72255 0L1.72255 -1.15289ZM10.3353 -10.1251L15.7132 -10.1251L15.7132 -8.97217L11.5899 -8.97217L11.5899 -6.49007Q11.8883 -6.5918 12.1867 -6.64266Q12.4851 -6.69352 12.7835 -6.69352Q14.4789 -6.69352 15.469 -5.76443Q16.4591 -4.83534 16.4591 -3.24843Q16.4591 -1.61404 15.4419 -0.708686Q14.4246 0.196669 12.5732 0.196669Q11.9358 0.196669 11.2745 0.0881619C10.8337 0.0158239 10.3782 -0.092683 9.90804 -0.237359L9.90804 -1.61404Q10.5184 -1.28174 11.1694 -1.11898Q11.8205 -0.956217 12.5461 -0.956217Q13.7193 -0.956217 14.4043 -1.57335Q15.0892 -2.19048 15.0892 -3.24843Q15.0892 -4.30637 14.4043 -4.9235Q13.7193 -5.54064 12.5461 -5.54064Q11.9968 -5.54064 11.4509 -5.41857Q10.9049 -5.2965 10.3353 -5.03879L10.3353 -10.1251ZM19.1583 -1.72255L20.5892 -1.72255L20.5892 0L19.1583 0L19.1583 -1.72255ZM26.5028 -9.22309Q25.4449 -9.22309 24.9125 -8.1821Q24.3802 -7.14111 24.3802 -5.05235Q24.3802 -2.97038 24.9125 -1.92939Q25.4449 -0.888401 26.5028 -0.888401Q27.5675 -0.888401 28.0999 -1.92939Q28.6323 -2.97038 28.6323 -5.05235Q28.6323 -7.14111 28.0999 -8.1821Q27.5675 -9.22309 26.5028 -9.22309ZM26.5028 -10.3082Q28.205 -10.3082 29.1036 -8.962Q30.0022 -7.61583 30.0022 -5.05235Q30.0022 -2.49566 29.1036 -1.1495Q28.205 0.196669 26.5028 0.196669Q24.8006 0.196669 23.902 -1.1495Q23.0035 -2.49566 23.0035 -5.05235Q23.0035 -7.61583 23.902 -8.962Q24.8006 -10.3082 26.5028 -10.3082Z" fill="#262626" transform="translate(572.0286396181384,557.6111111111111) translate(-15.462240219116211,0)" />
<line x1="646.0143198090693" y1="533.6" x2="646.0143198090693" y2="538.8611111111111" stroke="#262626" stroke-width="1.1111111111111112" />
<path d="M1.72255 -1.15289L3.9605 -1.15289L3.9605 -8.87722L1.52588 -8.38894L1.52588 -9.63677L3.94694 -10.1251L5.31684 -10.1251L5.31684 -1.15289L7.5548 -1.15289L7.5548 0L1.72255 0L1.72255 -1.15289ZM9.97586 -10.1251L16.4863 -10.1251L16.4863 -9.54183L12.8106 0L11.3797 0L14.8383 -8.97217L9.97586 -8.97217L9.97586 -10.1251ZM19.1583 -1.72255L20.5892 -1.72255L20.5892 0L19.1583 0L19.1583 -1.72255ZM23.5867 -10.1251L28.9646 -10.1251L28.9646 -8.97217L24.8413 -8.97217L24.8413 -6.49007Q25.1397 -6.5918 25.4381 -6.64266Q25.7365 -6.69352 26.0349 -6.69352Q27.7303 -6.69352 28.7204 -5.76443Q29.7106 -4.83534 29.7106 -3.24843Q29.7106 -1.61404 28.6933 -0.708686Q27.6761 0.196669 25.8247 0.196669Q25.1872 0.196669 24.526 0.0881619C24.0852 0.0158239 23.6296 -0.092683 23.1595 -0.237359L23.1595 -1.61404Q23.7698 -1.28174 24.4208 -1.11898Q25.0719 -0.956217 25.7975 -0.956217Q26.9708 -0.956217 27.6557 -1.57335Q28.3407 -2.19048 28.3407 -3.24843Q28.3407 -4.30637 27.6557 -4.9235Q26.9708 -5.54064 25.7975 -5.54064Q25.2482 -5.54064 24.7023 -5.41857Q24.1564 -5.2965 23.5867 -5.03879L23.5867 -10.1251Z" fill="#262626" transform="translate(646.0143198090693,557.6111111111111) translate(-15.462240219116211,0)" />
<line x1="720" y1="533.6" x2="720" y2="538.8611111111111" stroke="#262626" stroke-width="1.1111111111111112" />
<path d="M2.6652 -1.15289L7.44629 -1.15289L7.44629 0L1.01725 0L1.01725 -1.15289Q1.79715 -1.95991 3.14331 -3.31963Q4.48947 -4.67936 4.83534 -5.0727Q5.49316 -5.8119 5.75426 -6.32392Q6.01535 -6.83594 6.01535 -7.331Q6.01535 -8.13802 5.44908 -8.64665Q4.88281 -9.15527 3.97407 -9.15527Q3.32981 -9.15527 2.61434 -8.93148Q1.89887 -8.70768 1.08507 -8.25331L1.08507 -9.63677Q1.91243 -9.96908 2.63129 -10.1386Q3.35015 -10.3082 3.94694 -10.3082Q5.52029 -10.3082 6.45616 -9.52148Q7.39204 -8.73481 7.39204 -7.41916Q7.39204 -6.79525 7.15807 -6.23576Q6.9241 -5.67627 6.30697 -4.91672Q6.13742 -4.72005 5.22868 -3.78079Q4.31993 -2.84153 2.6652 -1.15289ZM13.2514 -9.22309Q12.1935 -9.22309 11.6611 -8.1821Q11.1287 -7.14111 11.1287 -5.05235Q11.1287 -2.97038 11.6611 -1.92939Q12.1935 -0.888401 13.2514 -0.888401Q14.3161 -0.888401 14.8485 -1.92939Q15.3809 -2.97038 15.3809 -5.05235Q15.3809 -7.14111 14.8485 -8.1821Q14.3161 -9.22309 13.2514 -9.22309ZM13.2514 -10.3082Q14.9536 -10.3082 15.8522 -8.962Q16.7508 -7.61583 16.7508 -5.05235Q16.7508 -2.49566 15.8522 -1.1495Q14.9536 0.196669 13.2514 0.196669Q11.5492 0.196669 10.6506 -1.1495Q9.75206 -2.49566 9.75206 -5.05235Q9.75206 -7.61583 10.6506 -8.962Q11.5492 -10.3082 13.2514 -10.3082ZM19.1583 -1.72255L20.5892 -1.72255L20.5892 0L19.1583 0L19.1583 -1.72255ZM26.5028 -9.22309Q25.4449 -9.22309 24.9125 -8.1821Q24.3802 -7.14111 24.3802 -5.05235Q24.3802 -2.97038 24.9125 -1.92939Q25.4449 -0.888401 26.5028 -0.888401Q27.5675 -0.888401 28.0999 -1.92939Q28.6323 -2.97038 28.6323 -5.05235Q28.6323 -7.14111 28.0999 -8.1821Q27.5675 -9.22309 26.5028 -9.22309ZM26.5028 -10.3082Q28.205 -10.3082 29.1036 -8.962Q30.0022 -7.61583 30.0022 -5.05235Q30.0022 -2.49566 29.1036 -1.1495Q28.205 0.196669 26.5028 0.196669Q24.8006 0.196669 23.902 -1.1495Q23.0035 -2.49566 23.0035 -5.05235Q23.0035 -7.61583 23.902 -8.962Q24.8006 -10.3082 26.5028 -10.3082Z" fill="#262626" transform="translate(720,557.6111111111111) translate(-15.462240219116211,0)" />
<line x1="95.13888888888889" y1="495.5543018335684" x2="100.4" y2="495.5543018335684" stroke="#262626" stroke-width="1.1111111111111112" />
<path d="M4.41488 -9.22309Q3.35693 -9.22309 2.82457 -8.1821Q2.29221 -7.14111 2.29221 -5.05235Q2.29221 -2.97038 2.82457 -1.92939Q3.35693 -0.888401 4.41488 -0.888401Q5.4796 -0.888401 6.01196 -1.92939Q6.54433 -2.97038 6.54433 -5.05235Q6.54433 -7.14111 6.01196 -8.1821Q5.4796 -9.22309 4.41488 -9.22309ZM4.41488 -10.3082Q6.11708 -10.3082 7.01565 -8.962Q7.91422 -7.61583 7.91423 -5.05235Q7.91423 -2.49566 7.01565 -1.1495Q6.11708 0.196669 4.41488 0.196669Q2.71267 0.196669 1.8141 -1.1495Q0.915527 -2.49566 0.915527 -5.05235Q0.915527 -7.61583 1.8141 -8.962Q2.71267 -10.3082 4.41488 -10.3082Z" fill="#262626" transform="translate(90.27777777777777,499.5543018335684) translate(-8.83653450012207,0)" />
<line x1="95.13888888888889" y1="365.2299012693935" x2="100.4" y2="365.2299012693935" stroke="#262626" stroke-width="1.1111111111111112" />
<path d="M2.6652 -1.15289L7.44629 -1.15289L7.44629 0L1.01725 0L1.01725 -1.15289Q1.79715 -1.95991 3.14331 -3.31963Q4.48947 -4.67936 4.83534 -5.0727Q5.49316 -5.8119 5.75426 -6.32392Q6.01535 -6.83594 6.01535 -7.331Q6.01535 -8.13802 5.44908 -8.64665Q4.88281 -9.15527 3.97407 -9.15527Q3.32981 -9.15527 2.61434 -8.93148Q1.89887 -8.70768 1.08507 -8.25331L1.08507 -9.63677Q1.91243 -9.96908 2.63129 -10.1386Q3.35015 -10.3082 3.94694 -10.3082Q5.52029 -10.3082 6.45616 -9.52148Q7.39204 -8.73481 7.39204 -7.41916Q7.39204 -6.79525 7.15807 -6.23576Q6.9241 -5.67627 6.30697 -4.91672Q6.13742 -4.72005 5.22868 -3.78079Q4.31993 -2.84153 2.6652 -1.15289ZM13.2514 -9.22309Q12.1935 -9.22309 11.6611 -8.1821Q11.1287 -7.14111 11.1287 -5.05235Q11.1287 -2.97038 11.6611 -1.92939Q12.1935 -0.888401 13.2514 -0.888401Q14.3161 -0.888401 14.8485 -1.92939Q15.3809 -2.97038 15.3809 -5.05235Q15.3809 -7.14111 14.8485 -8.1821Q14.3161 -9.22309 13.2514 -9.22309ZM13.2514 -10.3082Q14.9536 -10.3082 15.8522 -8.962Q16.7508 -7.61583 16.7508 -5.05235Q16.7508 -2.49566 15.8522 -1.1495Q14.9536 0.196669 13.2514 0.196669Q11.5492 0.196669 10.6506 -1.1495Q9.75206 -2.49566 9.75206 -5.05235Q9.75206 -7.61583 10.6506 -8.962Q11.5492 -10.3082 13.2514 -10.3082Z" fill="#262626" transform="translate(90.27777777777777,369.2299012693935) translate(-17.67306900024414,0)" />
<line x1="95.13888888888889" y1="234.90550070521863" x2="100.4" y2="234.90550070521863" stroke="#262626" stroke-width="1.1111111111111112" />
<path d="M1.72255 -1.15289L3.9605 -1.15289L3.9605 -8.87722L1.52588 -8.38894L1.52588 -9.63677L3.94694 -10.1251L5.31684 -10.1251L5.31684 -1.15289L7.5548 -1.15289L7.5548 0L1.72255 0L1.72255 -1.15289ZM13.2514 -9.22309Q12.1935 -9.22309 11.6611 -8.1821Q11.1287 -7.14111 11.1287 -5.05235Q11.1287 -2.97038 11.6611 -1.92939Q12.1935 -0.888401 13.2514 -0.888401Q14.3161 -0.888401 14.8485 -1.92939Q15.3809 -2.97038 15.3809 -5.05235Q15.3809 -7.14111 14.8485 -8.1821Q14.3161 -9.22309 13.2514 -9.22309ZM13.2514 -10.3082Q14.9536 -10.3082 15.8522 -8.962Q16.7508 -7.61583 16.7508 -5.05235Q16.7508 -2.49566 15.8522 -1.1495Q14.9536 0.196669 13.2514 0.196669Q11.5492 0.196669 10.6506 -1.1495Q9.75206 -2.49566 9.75206 -5.05235Q9.75206 -7.61583 10.6506 -8.962Q11.5492 -10.3082 13.2514 -10.3082ZM22.0879 -9.22309Q21.03 -9.22309 20.4976 -8.1821Q19.9653 -7.14111 19.9653 -5.05235Q19.9653 -2.97038 20.4976 -1.92939Q21.03 -0.888401 22.0879 -0.888401Q23.1527 -0.888401 23.685 -1.92939Q24.2174 -2.97038 24.2174 -5.05235Q24.2174 -7.14111 23.685 -8.1821Q23.1527 -9.22309 22.0879 -9.22309ZM22.0879 -10.3082Q23.7901 -10.3082 24.6887 -8.962Q25.5873 -7.61583 25.5873 -5.05235Q25.5873 -2.49566 24.6887 -1.1495Q23.7901 0.196669 22.0879 0.196669Q20.3857 0.196669 19.4872 -1.1495Q18.5886 -2.49566 18.5886 -5.05235Q18.5886 -7.61583 19.4872 -8.962Q20.3857 -10.3082 22.0879 -10.3082Z" fill="#262626" transform="translate(90.27777777777777,238.90550070521863) translate(-26.50960350036621,0)" />
<line x1="95.13888888888889" y1="104.58110014104375" x2="100.4" y2="104.58110014104375" stroke="#262626" stroke-width="1.1111111111111112" />
<path d="M1.72255 -1.15289L3.9605 -1.15289L3.9605 -8.87722L1.52588 -8.38894L1.52588 -9.63677L3.94694 -10.1251L5.31684 -10.1251L5.31684 -1.15289L7.5548 -1.15289L7.5548 0L1.72255 0L1.72255 -1.15289ZM11.5017 -1.15289L16.2828 -1.15289L16.2828 0L9.85379 0L9.85379 -1.15289Q10.6337 -1.95991 11.9798 -3.31963Q13.326 -4.67936 13.6719 -5.0727Q14.3297 -5.8119 14.5908 -6.32392Q14.8519 -6.83594 14.8519 -7.331Q14.8519 -8.13802 14.2856 -8.64665Q13.7193 -9.15527 12.8106 -9.15527Q12.1663 -9.15527 11.4509 -8.93148Q10.7354 -8.70768 9.9216 -8.25331L9.9216 -9.63677Q10.749 -9.96908 11.4678 -10.1386Q12.1867 -10.3082 12.7835 -10.3082Q14.3568 -10.3082 15.2927 -9.52148Q16.2286 -8.73481 16.2286 -7.41916Q16.2286 -6.79525 15.9946 -6.23576Q15.7606 -5.67627 15.1435 -4.91672Q14.974 -4.72005 14.0652 -3.78079Q13.1565 -2.84153 11.5017 -1.15289ZM22.0879 -9.22309Q21.03 -9.22309 20.4976 -8.1821Q19.9653 -7.14111 19.9653 -5.05235Q19.9653 -2.97038 20.4976 -1.92939Q21.03 -0.888401 22.0879 -0.888401Q23.1527 -0.888401 23.685 -1.92939Q24.2174 -2.97038 24.2174 -5.05235Q24.2174 -7.14111 23.685 -8.1821Q23.1527 -9.22309 22.0879 -9.22309ZM22.0879 -10.3082Q23.7901 -10.3082 24.6887 -8.962Q25.5873 -7.61583 25.5873 -5.05235Q25.5873 -2.49566 24.6887 -1.1495Q23.7901 0.196669 22.0879 0.196669Q20.3857 0.196669 19.4872 -1.1495Q18.5886 -2.49566 18.5886 -5.05235Q18.5886 -7.61583 19.4872 -8.962Q20.3857 -10.3082 22.0879 -10.3082Z" fill="#262626" transform="translate(90.27777777777777,108.58110014104375) translate(-26.50960350036621,0)" />
<g class="series" aria-label="Data">
<polyline points="128.1145584725537,495.5543018335684 157.70883054892602,482.5218617771509 187.30310262529835,469.4894217207334 216.89737470167066,456.4569816643159 246.491646778043,443.42454160789845 276.0859188544153,430.39210155148095 305.6801909307876,417.35966149506345 335.27446300715997,404.32722143864595 364.8687350835322,391.2947813822285 394.4630071599046,378.262341325811 424.0572792362769,234.90550070521863 453.6515513126492,221.87306064880113 483.2458233890215,208.84062059238363 512.8400954653938,195.80818053596613 542.4343675417662,182.77574047954863 572.0286396181384,169.7433004231312 601.6229116945108,156.7108603667137 631.2171837708831,143.6784203102962 660.8114558472555,130.6459802538787 690.4057279236276,117.61354019746119" fill="none" stroke="#0000FF" stroke-width="1.5" />
</g>
<rect x="100" y="328.64880112834976" width="620" height="8" fill="#FFFFFF" />
<line x1="348" y1="326.64880112834976" x2="410" y2="332.64880112834976" stroke="#262626" stroke-width="1.5" />
<line x1="410" y1="332.64880112834976" x2="472" y2="338.64880112834976" stroke="#262626" stroke-width="1.5" />
<g class="spine">
<line x1="100" y1="534" x2="720" y2="534" stroke="#262626" stroke-width="0.8" />
</g>
<g class="spine">
<line x1="100" y1="72" x2="720" y2="72" stroke="#262626" stroke-width="0.8" />
</g>
<g class="spine">
<line x1="100" y1="72" x2="100" y2="534" stroke="#262626" stroke-width="0.8" />
</g>
<g class="spine">
<line x1="720" y1="72" x2="720" y2="534" stroke="#262626" stroke-width="0.8" />
</g>
<rect x="621.9486736721462" y="82" width="88.05132632785373" height="25.72222222222222" fill="#FFFFFF" fill-opacity="0.8" stroke="#CCCCCC" stroke-width="0.5" />
<g class="legend" aria-label="Chart legend">
<line x1="629.9486736721462" y1="94.86111111111111" x2="657.7264514499241" y2="94.86111111111111" stroke="#0000FF" stroke-width="1.5" />
<path d="M2.73302 -8.9993L2.73302 -1.12576L4.38775 -1.12576Q6.48329 -1.12576 7.45646 -2.0752Q8.42963 -3.02463 8.42963 -5.0727Q8.42963 -7.1072 7.45646 -8.05325Q6.48329 -8.9993 4.38775 -8.9993L2.73302 -8.9993ZM1.36312 -10.1251L4.17752 -10.1251Q7.12077 -10.1251 8.49745 -8.90096Q9.87413 -7.67687 9.87413 -5.0727Q9.87413 -2.45497 8.49067 -1.22748Q7.1072 0 4.17752 0L1.36312 0L1.36312 -10.1251ZM15.4555 -3.81809Q13.9431 -3.81809 13.3599 -3.47222Q12.7767 -3.12636 12.7767 -2.29221Q12.7767 -1.6276 13.2141 -1.23766Q13.6515 -0.84771 14.4043 -0.847711Q15.4419 -0.847711 16.0692 -1.58352Q16.6965 -2.31934 16.6965 -3.54004L16.6965 -3.81809L15.4555 -3.81809ZM17.9443 -4.3335L17.9443 0L16.6965 0L16.6965 -1.15289Q16.2693 -0.461155 15.6318 -0.132243Q14.9943 0.196669 14.072 0.196669Q12.9055 0.196669 12.2172 -0.457764Q11.5289 -1.1122 11.5289 -2.21083Q11.5289 -3.49257 12.3867 -4.14361Q13.2446 -4.79465 14.9468 -4.79465L16.6965 -4.79465L16.6965 -4.91672Q16.6965 -5.77799 16.1302 -6.24932Q15.564 -6.72065 14.5399 -6.72065Q13.8889 -6.72065 13.2718 -6.56467Q12.6546 -6.40869 12.085 -6.09673L12.085 -7.24962Q12.7699 -7.51411 13.4142 -7.64635Q14.0584 -7.77859 14.6688 -7.77859Q16.3167 -7.77859 17.1305 -6.9241Q17.9443 -6.06961 17.9443 -4.3335ZM21.7489 -9.75206L21.7489 -7.59549L24.3191 -7.59549L24.3191 -6.62571L21.7489 -6.62571L21.7489 -2.50244Q21.7489 -1.57335 22.0032 -1.30887Q22.2575 -1.04438 23.0374 -1.04438L24.3191 -1.04438L24.3191 0L23.0374 0Q21.5929 0 21.0436 -0.539144Q20.4943 -1.07829 20.4943 -2.50244L20.4943 -6.62571L19.5787 -6.62571L19.5787 -7.59549L20.4943 -7.59549L20.4943 -9.75206L21.7489 -9.75206ZM29.4122 -3.81809Q27.8998 -3.81809 27.3166 -3.47222Q26.7334 -3.12636 26.7334 -2.29221Q26.7334 -1.6276 27.1708 -1.23766Q27.6082 -0.84771 28.361 -0.847711Q29.3986 -0.847711 30.0259 -1.58352Q30.6532 -2.31934 30.6532 -3.54004L30.6532 -3.81809L29.4122 -3.81809ZM31.901 -4.3335L31.901 0L30.6532 0L30.6532 -1.15289Q30.226 -0.461155 29.5885 -0.132243Q28.951 0.196669 28.0287 0.196669Q26.8623 0.196669 26.1739 -0.457764Q25.4856 -1.1122 25.4856 -2.21083Q25.4856 -3.49257 26.3435 -4.14361Q27.2013 -4.79465 28.9035 -4.79465L30.6532 -4.79465L30.6532 -4.91672Q30.6532 -5.77799 30.0869 -6.24932Q29.5207 -6.72065 28.4966 -6.72065Q27.8456 -6.72065 27.2285 -6.56467Q26.6113 -6.40869 26.0417 -6.09673L26.0417 -7.24962Q26.7266 -7.51411 27.3709 -7.64635Q28.0151 -7.77859 28.6255 -7.77859Q30.2734 -7.77859 31.0872 -6.9241Q31.901 -6.06961 31.901 -4.3335Z" fill="#262626" transform="translate(668.8375625610352,98.72222222222223)" />
</g>
</svg>
