<svg xmlns="http://www.w3.org/2000/svg" viewBox="0 0 900 450" width="900" height="450" style="width:100%;height:auto" role="img" aria-labelledby="chart-title">
<title id="chart-title">Bump Chart — Brand Ranking over Time</title>
<rect x="0" y="0" width="900" height="450" fill="#FFFFFF" />
<path d="M6.86556 -7.99235Q7.66043 -7.99235 8.07096 -8.34174Q8.4815 -8.69113 8.4815 -9.37245Q8.4815 -10.045 8.07096 -10.3988Q7.66043 -10.7526 6.86556 -10.7526L5.00505 -10.7526L5.00505 -7.99235L6.86556 -7.99235ZM6.97911 -2.28852Q7.99235 -2.28852 8.50334 -2.71653Q9.01432 -3.14453 9.01432 -4.00928Q9.01432 -4.85655 8.5077 -5.28019Q8.00109 -5.70383 6.97911 -5.70383L5.00505 -5.70383L5.00505 -2.28852L6.97911 -2.28852ZM10.1062 -6.97911Q11.1893 -6.66466 11.7833 -5.81738Q12.3772 -4.97011 12.3772 -3.7385Q12.3772 -1.85178 11.1019 -0.92589Q9.82666 0 7.22369 0L1.64214 0L1.64214 -13.0411L6.69086 -13.0411Q9.40739 -13.0411 10.6259 -12.22Q11.8444 -11.3989 11.8444 -9.59082Q11.8444 -8.63873 11.3989 -7.97051Q10.9535 -7.3023 10.1062 -6.97911ZM15.0326 -3.80838L15.0326 -9.78299L18.1771 -9.78299L18.1771 -8.80469Q18.1771 -8.00982 18.1684 -6.80878Q18.1597 -5.60775 18.1597 -5.20595Q18.1597 -4.02675 18.2208 -3.50703Q18.282 -2.9873 18.4304 -2.75146Q18.6226 -2.44575 18.9327 -2.27979Q19.2428 -2.11382 19.6446 -2.11382Q20.6229 -2.11382 21.1819 -2.86502Q21.7409 -3.61621 21.7409 -4.95264L21.7409 -9.78299L24.868 -9.78299L24.868 0L21.7409 0L21.7409 -1.41504Q21.0334 -0.559028 20.2429 -0.152859Q19.4524 0.253309 18.5003 0.253309Q16.8058 0.253309 15.9192 -0.786133Q15.0326 -1.82558 15.0326 -3.80838ZM36.9395 -8.15831Q37.5335 -9.06673 38.3502 -9.54278Q39.1669 -10.0188 40.1452 -10.0188Q41.831 -10.0188 42.7132 -8.97938Q43.5954 -7.93994 43.5954 -5.95714L43.5954 0L40.4509 0L40.4509 -5.10113Q40.4596 -5.21468 40.464 -5.33697Q40.4684 -5.45926 40.4684 -5.68636Q40.4684 -6.7258 40.1627 -7.19312Q39.8569 -7.66043 39.1756 -7.66043Q38.2847 -7.66043 37.7999 -6.9267Q37.3151 -6.19298 37.2976 -4.80414L37.2976 0L34.1531 0L34.1531 -5.10113Q34.1531 -6.7258 33.8736 -7.19312Q33.5941 -7.66043 32.8778 -7.66043Q31.9781 -7.66043 31.489 -6.92234Q30.9998 -6.18424 30.9998 -4.81288L30.9998 0L27.8553 0L27.8553 -9.78299L30.9998 -9.78299L30.9998 -8.35048Q31.5763 -9.18028 32.3232 -9.59956Q33.07 -10.0188 33.9697 -10.0188Q34.9829 -10.0188 35.7603 -9.52968Q36.5377 -9.04053 36.9395 -8.15831ZM49.6399 -1.41504L49.6399 3.72103L46.5129 3.72103L46.5129 -9.78299L49.6399 -9.78299L49.6399 -8.35048Q50.2863 -9.20649 51.0724 -9.61266Q51.8586 -10.0188 52.8805 -10.0188Q54.6886 -10.0188 55.8504 -8.58195Q57.0121 -7.14507 57.0121 -4.88276Q57.0121 -2.62044 55.8504 -1.18357Q54.6886 0.253309 52.8805 0.253309Q51.8586 0.253309 51.0724 -0.152859Q50.2863 -0.559028 49.6399 -1.41504ZM51.7188 -7.74778Q50.7143 -7.74778 50.1771 -7.00968Q49.6399 -6.27159 49.6399 -4.88276Q49.6399 -3.49392 50.1771 -2.75583Q50.7143 -2.01774 51.7188 -2.01774Q52.7233 -2.01774 53.2518 -2.75146Q53.7802 -3.48519 53.7802 -4.88276Q53.7802 -6.28033 53.2518 -7.01405Q52.7233 -7.74778 51.7188 -7.74778ZM76.0278 -0.716254Q75.1019 -0.23584 74.0974 0.00873481Q73.0929 0.253309 72.001 0.253309Q68.7429 0.253309 66.8388 -1.5679Q64.9346 -3.38911 64.9346 -6.50743Q64.9346 -9.63449 66.8388 -11.4557Q68.7429 -13.2769 72.001 -13.2769Q73.0929 -13.2769 74.0974 -13.0323Q75.1019 -12.7878 76.0278 -12.3073L76.0278 -9.60829Q75.0932 -10.2459 74.1847 -10.5429Q73.2763 -10.8399 72.2718 -10.8399Q70.4724 -10.8399 69.4417 -9.6869Q68.411 -8.53391 68.411 -6.50743Q68.411 -4.48969 69.4417 -3.3367Q70.4724 -2.1837 72.2718 -2.1837Q73.2763 -2.1837 74.1847 -2.48069Q75.0931 -2.77767 76.0278 -3.41531L76.0278 -0.716254ZM88.5098 -5.95714L88.5098 0L85.3653 0L85.3653 -0.969564L85.3653 -4.5421Q85.3653 -5.82612 85.3085 -6.30653Q85.2517 -6.78695 85.112 -7.01405Q84.9285 -7.31977 84.6141 -7.4901Q84.2996 -7.66043 83.8978 -7.66043Q82.9195 -7.66043 82.3605 -6.90487Q81.8015 -6.14931 81.8015 -4.81288L81.8015 0L78.6744 0L78.6744 -13.5914L81.8015 -13.5914L81.8015 -8.35048Q82.509 -9.20649 83.3039 -9.61266Q84.0987 -10.0188 85.0596 -10.0188Q86.7541 -10.0188 87.632 -8.97938Q88.5098 -7.93994 88.5098 -5.95714ZM95.7946 -4.40234Q94.8164 -4.40234 94.3228 -4.07042Q93.8293 -3.7385 93.8293 -3.09212Q93.8293 -2.49816 94.2268 -2.16187Q94.6242 -1.82558 95.3317 -1.82558Q96.2139 -1.82558 96.8166 -2.45885Q97.4193 -3.09212 97.4193 -4.04422L97.4193 -4.40234L95.7946 -4.40234ZM100.573 -5.58154L100.573 0L97.4193 0L97.4193 -1.44998Q96.7904 -0.559028 96.0043 -0.152859Q95.2181 0.253309 94.0914 0.253309Q92.5715 0.253309 91.6238 -0.633274Q90.676 -1.51986 90.676 -2.9349Q90.676 -4.65565 91.8596 -5.45926Q93.0432 -6.26286 95.5763 -6.26286L97.4193 -6.26286L97.4193 -6.50743Q97.4193 -7.24989 96.8341 -7.59492Q96.2489 -7.93994 95.0085 -7.93994Q94.004 -7.93994 93.1393 -7.73904Q92.2745 -7.53814 91.5321 -7.13634L91.5321 -9.52094Q92.5366 -9.76552 93.5498 -9.89217Q94.563 -10.0188 95.5763 -10.0188Q98.2229 -10.0188 99.3978 -8.97502Q100.573 -7.93121 100.573 -5.58154ZM110.749 -7.11887Q110.338 -7.31103 109.932 -7.40275Q109.526 -7.49447 109.115 -7.49447Q107.91 -7.49447 107.259 -6.72144Q106.608 -5.94841 106.608 -4.50716L106.608 0L103.481 0L103.481 -9.78299L106.608 -9.78299L106.608 -8.17578Q107.211 -9.13661 107.993 -9.57772Q108.775 -10.0188 109.866 -10.0188Q110.024 -10.0188 110.207 -10.0057Q110.391 -9.99262 110.74 -9.94895L110.749 -7.11887ZM115.719 -12.5607L115.719 -9.78299L118.942 -9.78299L118.942 -7.54688L115.719 -7.54688L115.719 -3.39784Q115.719 -2.71653 115.99 -2.47632Q116.26 -2.23611 117.064 -2.23611L118.671 -2.23611L118.671 0L115.99 0Q114.138 0 113.365 -0.773031Q112.592 -1.54606 112.592 -3.39784L112.592 -7.54688L111.037 -7.54688L111.037 -9.78299L112.592 -9.78299L112.592 -12.5607L115.719 -12.5607ZM126.541 -6.02702L142.508 -6.02702L142.508 -3.77344L126.541 -3.77344L126.541 -6.02702ZM156.563 -7.99235Q157.358 -7.99235 157.768 -8.34174Q158.179 -8.69113 158.179 -9.37245Q158.179 -10.045 157.768 -10.3988Q157.358 -10.7526 156.563 -10.7526L154.702 -10.7526L154.702 -7.99235L156.563 -7.99235ZM156.676 -2.28852Q157.69 -2.28852 158.201 -2.71653Q158.711 -3.14453 158.711 -4.00928Q158.711 -4.85655 158.205 -5.28019Q157.698 -5.70383 156.676 -5.70383L154.702 -5.70383L154.702 -2.28852L156.676 -2.28852ZM159.803 -6.97911Q160.886 -6.66466 161.48 -5.81738Q162.074 -4.97011 162.074 -3.7385Q162.074 -1.85178 160.799 -0.92589Q159.524 0 156.921 0L151.339 0L151.339 -13.0411L156.388 -13.0411Q159.105 -13.0411 160.323 -12.22Q161.542 -11.3989 161.542 -9.59082Q161.542 -8.63873 161.096 -7.97051Q160.651 -7.3023 159.803 -6.97911ZM172.102 -7.11887Q171.691 -7.31103 171.285 -7.40275Q170.879 -7.49447 170.469 -7.49447Q169.263 -7.49447 168.612 -6.72144Q167.962 -5.94841 167.962 -4.50716L167.962 0L164.835 0L164.835 -9.78299L167.962 -9.78299L167.962 -8.17578Q168.564 -9.13661 169.346 -9.57772Q170.128 -10.0188 171.22 -10.0188Q171.377 -10.0188 171.56 -10.0057Q171.744 -9.99262 172.093 -9.94895L172.102 -7.11887ZM178.042 -4.40234Q177.063 -4.40234 176.57 -4.07042Q176.076 -3.7385 176.076 -3.09212Q176.076 -2.49816 176.474 -2.16187Q176.871 -1.82558 177.579 -1.82558Q178.461 -1.82558 179.064 -2.45885Q179.666 -3.09212 179.666 -4.04422L179.666 -4.40234L178.042 -4.40234ZM182.82 -5.58154L182.82 0L179.666 0L179.666 -1.44998Q179.037 -0.559028 178.251 -0.152859Q177.465 0.253309 176.338 0.253309Q174.818 0.253309 173.871 -0.633274Q172.923 -1.51986 172.923 -2.9349Q172.923 -4.65565 174.107 -5.45926Q175.29 -6.26286 177.823 -6.26286L179.666 -6.26286L179.666 -6.50743Q179.666 -7.24989 179.081 -7.59492Q178.496 -7.93994 177.255 -7.93994Q176.251 -7.93994 175.386 -7.73904Q174.521 -7.53814 173.779 -7.13634L173.779 -9.52094Q174.784 -9.76552 175.797 -9.89217Q176.81 -10.0188 177.823 -10.0188Q180.47 -10.0188 181.645 -8.97502Q182.82 -7.93121 182.82 -5.58154ZM195.564 -5.95714L195.564 0L192.419 0L192.419 -0.969564L192.419 -4.55957Q192.419 -5.82612 192.362 -6.30653Q192.306 -6.78695 192.166 -7.01405Q191.982 -7.31977 191.668 -7.4901Q191.353 -7.66043 190.952 -7.66043Q189.973 -7.66043 189.414 -6.90487Q188.855 -6.14931 188.855 -4.81288L188.855 0L185.728 0L185.728 -9.78299L188.855 -9.78299L188.855 -8.35048Q189.563 -9.20649 190.358 -9.61266Q191.153 -10.0188 192.113 -10.0188Q193.808 -10.0188 194.686 -8.97938Q195.564 -7.93994 195.564 -5.95714ZM205.12 -8.35048L205.12 -13.5914L208.264 -13.5914L208.264 0L205.12 0L205.12 -1.41504Q204.473 -0.550293 203.696 -0.148492Q202.918 0.253309 201.896 0.253309Q200.088 0.253309 198.927 -1.18357Q197.765 -2.62044 197.765 -4.88276Q197.765 -7.14507 198.927 -8.58195Q200.088 -10.0188 201.896 -10.0188Q202.91 -10.0188 203.691 -9.61266Q204.473 -9.20649 205.12 -8.35048ZM203.058 -2.01774Q204.063 -2.01774 204.591 -2.75146Q205.12 -3.48519 205.12 -4.88276Q205.12 -6.28033 204.591 -7.01405Q204.063 -7.74778 203.058 -7.74778Q202.062 -7.74778 201.534 -7.01405Q201.005 -6.28033 201.005 -4.88276Q201.005 -3.48519 201.534 -2.75146Q202.062 -2.01774 203.058 -2.01774ZM222.414 -7.25863Q223.471 -7.25863 223.93 -7.65169Q224.389 -8.04476 224.389 -8.94444Q224.389 -9.83539 223.93 -10.2197Q223.471 -10.6041 222.414 -10.6041L220.999 -10.6041L220.999 -7.25863L222.414 -7.25863ZM220.999 -4.93517L220.999 0L217.637 0L217.637 -13.0411L222.773 -13.0411Q225.349 -13.0411 226.55 -12.1763Q227.751 -11.3116 227.751 -9.44233Q227.751 -8.14958 227.127 -7.31977Q226.502 -6.48996 225.245 -6.0969Q225.935 -5.93967 226.481 -5.38501Q227.026 -4.83035 227.585 -3.70356L229.411 0L225.83 0L224.24 -3.24061Q223.76 -4.21891 223.266 -4.57704Q222.773 -4.93517 221.952 -4.93517L220.999 -4.93517ZM235.656 -4.40234Q234.678 -4.40234 234.185 -4.07042Q233.691 -3.7385 233.691 -3.09212Q233.691 -2.49816 234.089 -2.16187Q234.486 -1.82558 235.193 -1.82558Q236.076 -1.82558 236.678 -2.45885Q237.281 -3.09212 237.281 -4.04422L237.281 -4.40234L235.656 -4.40234ZM240.434 -5.58154L240.434 0L237.281 0L237.281 -1.44998Q236.652 -0.559028 235.866 -0.152859Q235.08 0.253309 233.953 0.253309Q232.433 0.253309 231.486 -0.633274Q230.538 -1.51986 230.538 -2.9349Q230.538 -4.65565 231.721 -5.45926Q232.905 -6.26286 235.438 -6.26286L237.281 -6.26286L237.281 -6.50743Q237.281 -7.24989 236.696 -7.59492Q236.111 -7.93994 234.87 -7.93994Q233.866 -7.93994 233.001 -7.73904Q232.136 -7.53814 231.394 -7.13634L231.394 -9.52094Q232.398 -9.76552 233.412 -9.89217Q234.425 -10.0188 235.438 -10.0188Q238.085 -10.0188 239.26 -8.97502Q240.434 -7.93121 240.434 -5.58154ZM253.178 -5.95714L253.178 0L250.034 0L250.034 -0.969564L250.034 -4.55957Q250.034 -5.82612 249.977 -6.30653Q249.92 -6.78695 249.781 -7.01405Q249.597 -7.31977 249.283 -7.4901Q248.968 -7.66043 248.566 -7.66043Q247.588 -7.66043 247.029 -6.90487Q246.47 -6.14931 246.47 -4.81288L246.47 0L243.343 0L243.343 -9.78299L246.47 -9.78299L246.47 -8.35048Q247.178 -9.20649 247.973 -9.61266Q248.767 -10.0188 249.728 -10.0188Q251.423 -10.0188 252.301 -8.97938Q253.178 -7.93994 253.178 -5.95714ZM256.078 -13.5914L259.205 -13.5914L259.205 -6.19298L262.804 -9.78299L266.438 -9.78299L261.66 -5.29329L266.813 0L263.023 0L259.205 -4.07916L259.205 0L256.078 0L256.078 -13.5914ZM267.975 -9.78299L271.102 -9.78299L271.102 0L267.975 0L267.975 -9.78299ZM267.975 -13.5914L271.102 -13.5914L271.102 -11.0408L267.975 -11.0408L267.975 -13.5914ZM283.942 -5.95714L283.942 0L280.798 0L280.798 -0.969564L280.798 -4.55957Q280.798 -5.82612 280.741 -6.30653Q280.684 -6.78695 280.545 -7.01405Q280.361 -7.31977 280.047 -7.4901Q279.732 -7.66043 279.33 -7.66043Q278.352 -7.66043 277.793 -6.90487Q277.234 -6.14931 277.234 -4.81288L277.234 0L274.107 0L274.107 -9.78299L277.234 -9.78299L277.234 -8.35048Q277.942 -9.20649 278.737 -9.61266Q279.531 -10.0188 280.492 -10.0188Q282.187 -10.0188 283.065 -8.97938Q283.942 -7.93994 283.942 -5.95714ZM293.498 -1.65961Q292.852 -0.803602 292.075 -0.401801Q291.297 0 290.275 0Q288.485 0 287.314 -1.41067Q286.144 -2.82134 286.144 -5.00505Q286.144 -7.19748 287.314 -8.59942Q288.485 -10.0014 290.275 -10.0014Q291.297 -10.0014 292.075 -9.59956Q292.852 -9.19775 293.498 -8.33301L293.498 -9.78299L296.643 -9.78299L296.643 -0.987033Q296.643 1.37137 295.154 2.61608Q293.664 3.86079 290.834 3.86079Q289.917 3.86079 289.061 3.72103Q288.205 3.58127 287.34 3.29302L287.34 0.856011Q288.161 1.32769 288.948 1.55916Q289.734 1.79064 290.529 1.79064Q292.066 1.79064 292.782 1.11806Q293.498 0.445475 293.498 -0.987033L293.498 -1.65961ZM291.437 -7.74778Q290.467 -7.74778 289.926 -7.03152Q289.384 -6.31527 289.384 -5.00505Q289.384 -3.65988 289.908 -2.96547Q290.432 -2.27105 291.437 -2.27105Q292.415 -2.27105 292.957 -2.9873Q293.498 -3.70356 293.498 -5.00505Q293.498 -6.31527 292.957 -7.03152Q292.415 -7.74778 291.437 -7.74778ZM310.531 -7.78271Q309.492 -7.78271 308.946 -7.03589Q308.4 -6.28906 308.4 -4.88276Q308.4 -3.47645 308.946 -2.72963Q309.492 -1.9828 310.531 -1.9828Q311.553 -1.9828 312.095 -2.72963Q312.636 -3.47645 312.636 -4.88276Q312.636 -6.28906 312.095 -7.03589Q311.553 -7.78271 310.531 -7.78271ZM310.531 -10.0188Q313.056 -10.0188 314.475 -8.6562Q315.894 -7.29357 315.894 -4.88276Q315.894 -2.47195 314.475 -1.10932Q313.056 0.253309 310.531 0.253309Q307.998 0.253309 306.57 -1.10932Q305.142 -2.47195 305.142 -4.88276Q305.142 -7.29357 306.57 -8.6562Q307.998 -10.0188 310.531 -10.0188ZM316.934 -9.78299L320.061 -9.78299L322.498 -3.02224L324.926 -9.78299L328.062 -9.78299L324.21 0L320.777 0L316.934 -9.78299ZM339.592 -4.9177L339.592 -4.02675L332.281 -4.02675Q332.394 -2.92616 333.076 -2.37587Q333.757 -1.82558 334.98 -1.82558Q335.967 -1.82558 337.002 -2.11819Q338.037 -2.41081 339.129 -3.00477L339.129 -0.593967Q338.02 -0.174696 336.91 0.0393066Q335.801 0.253309 334.692 0.253309Q332.036 0.253309 330.565 -1.09622Q329.093 -2.44575 329.093 -4.88276Q329.093 -7.2761 330.538 -8.64746Q331.984 -10.0188 334.517 -10.0188Q336.823 -10.0188 338.207 -8.62999Q339.592 -7.24116 339.592 -4.9177ZM336.378 -5.95714Q336.378 -6.84809 335.858 -7.39402Q335.338 -7.93994 334.5 -7.93994Q333.591 -7.93994 333.023 -7.42896Q332.456 -6.91797 332.316 -5.95714L336.378 -5.95714ZM349.226 -7.11887Q348.816 -7.31103 348.41 -7.40275Q348.004 -7.49447 347.593 -7.49447Q346.388 -7.49447 345.737 -6.72144Q345.086 -5.94841 345.086 -4.50716L345.086 0L341.959 0L341.959 -9.78299L345.086 -9.78299L345.086 -8.17578Q345.689 -9.13661 346.471 -9.57772Q347.252 -10.0188 348.344 -10.0188Q348.501 -10.0188 348.685 -10.0057Q348.868 -9.99262 349.218 -9.94895L349.226 -7.11887ZM355.594 -13.0411L367.613 -13.0411L367.613 -10.4992L363.289 -10.4992L363.289 0L359.927 0L359.927 -10.4992L355.594 -10.4992L355.594 -13.0411ZM369.212 -9.78299L372.339 -9.78299L372.339 0L369.212 0L369.212 -9.78299ZM369.212 -13.5914L372.339 -13.5914L372.339 -11.0408L369.212 -11.0408L369.212 -13.5914ZM384.41 -8.15831Q385.004 -9.06673 385.821 -9.54278Q386.638 -10.0188 387.616 -10.0188Q389.302 -10.0188 390.184 -8.97938Q391.066 -7.93994 391.066 -5.95714L391.066 0L387.922 0L387.922 -5.10113Q387.93 -5.21468 387.935 -5.33697Q387.939 -5.45926 387.939 -5.68636Q387.939 -6.7258 387.633 -7.19312Q387.328 -7.66043 386.646 -7.66043Q385.755 -7.66043 385.271 -6.9267Q384.786 -6.19298 384.768 -4.80414L384.768 0L381.624 0L381.624 -5.10113Q381.624 -6.7258 381.344 -7.19312Q381.065 -7.66043 380.349 -7.66043Q379.449 -7.66043 378.96 -6.92234Q378.471 -6.18424 378.471 -4.81288L378.471 0L375.326 0L375.326 -9.78299L378.471 -9.78299L378.471 -8.35048Q379.047 -9.18028 379.794 -9.59956Q380.541 -10.0188 381.44 -10.0188Q382.454 -10.0188 383.231 -9.52968Q384.008 -9.04053 384.41 -8.15831ZM403.749 -4.9177L403.749 -4.02675L396.438 -4.02675Q396.552 -2.92616 397.233 -2.37587Q397.914 -1.82558 399.137 -1.82558Q400.124 -1.82558 401.159 -2.11819Q402.194 -2.41081 403.286 -3.00477L403.286 -0.593967Q402.177 -0.174696 401.067 0.0393066Q399.958 0.253309 398.849 0.253309Q396.193 0.253309 394.722 -1.09622Q393.25 -2.44575 393.25 -4.88276Q393.25 -7.2761 394.695 -8.64746Q396.141 -10.0188 398.674 -10.0188Q400.98 -10.0188 402.365 -8.62999Q403.749 -7.24116 403.749 -4.9177ZM400.535 -5.95714Q400.535 -6.84809 400.015 -7.39402Q399.495 -7.93994 398.657 -7.93994Q397.748 -7.93994 397.181 -7.42896Q396.613 -6.91797 396.473 -5.95714L400.535 -5.95714Z" fill="#262626" transform="translate(450,24.099999999999998) translate(-202.30691528320312,0)" />
<rect x="112" y="54" width="698" height="346" fill="#FFFFFF" />
<line x1="143.72727272727275" y1="399.6" x2="143.72727272727275" y2="404.8611111111111" stroke="#262626" stroke-width="1.1111111111111112" />
<path d="M1.72255 -1.15289L3.9605 -1.15289L3.9605 -8.87722L1.52588 -8.38894L1.52588 -9.63677L3.94694 -10.1251L5.31684 -10.1251L5.31684 -1.15289L7.5548 -1.15289L7.5548 0L1.72255 0L1.72255 -1.15289Z" fill="#262626" transform="translate(143.72727272727275,423.6111111111111) translate(-4.418267250061035,0)" />
<line x1="234.3766233766234" y1="399.6" x2="234.3766233766234" y2="404.8611111111111" stroke="#262626" stroke-width="1.1111111111111112" />
<path d="M2.6652 -1.15289L7.44629 -1.15289L7.44629 0L1.01725 0L1.01725 -1.15289Q1.79715 -1.95991 3.14331 -3.31963Q4.48947 -4.67936 4.83534 -5.0727Q5.49316 -5.8119 5.75426 -6.32392Q6.01535 -6.83594 6.01535 -7.331Q6.01535 -8.13802 5.44908 -8.64665Q4.88281 -9.15527 3.97407 -9.15527Q3.32981 -9.15527 2.61434 -8.93148Q1.89887 -8.70768 1.08507 -8.25331L1.08507 -9.63677Q1.91243 -9.96908 2.63129 -10.1386Q3.35015 -10.3082 3.94694 -10.3082Q5.52029 -10.3082 6.45616 -9.52148Q7.39204 -8.73481 7.39204 -7.41916Q7.39204 -6.79525 7.15807 -6.23576Q6.9241 -5.67627 6.30697 -4.91672Q6.13742 -4.72005 5.22868 -3.78079Q4.31993 -2.84153 2.6652 -1.15289Z" fill="#262626" transform="translate(234.3766233766234,423.6111111111111) translate(-4.418267250061035,0)" />
<line x1="325.02597402597405" y1="399.6" x2="325.02597402597405" y2="404.8611111111111" stroke="#262626" stroke-width="1.1111111111111112" />
<path d="M5.63558 -5.45926Q6.61892 -5.24902 7.17163 -4.58442Q7.72434 -3.91981 7.72434 -2.94325Q7.72434 -1.4445 6.69352 -0.623915Q5.66271 0.196669 3.76383 0.196669Q3.12636 0.196669 2.45158 0.0712077Q1.7768 -0.0542535 1.05794 -0.305176L1.05794 -1.6276Q1.6276 -1.2953 2.30577 -1.12576Q2.98394 -0.956217 3.72314 -0.956217Q5.01166 -0.956217 5.68644 -1.46484Q6.36122 -1.97347 6.36122 -2.94325Q6.36122 -3.83843 5.73391 -4.34367Q5.10661 -4.8489 3.98763 -4.8489L2.80762 -4.8489L2.80762 -5.97466L4.04188 -5.97466Q5.05235 -5.97466 5.58811 -6.37817Q6.12386 -6.78168 6.12386 -7.54123Q6.12386 -8.32113 5.57115 -8.7382Q5.01845 -9.15527 3.98763 -9.15527Q3.42475 -9.15527 2.78049 -9.0332Q2.13623 -8.91113 1.36312 -8.65343L1.36312 -9.87413Q2.14301 -10.0911 2.82457 -10.1997Q3.50613 -10.3082 4.1097 -10.3082Q5.66949 -10.3082 6.57823 -9.59947Q7.48698 -8.89079 7.48698 -7.68365Q7.48698 -6.84272 7.00548 -6.26289Q6.52398 -5.68305 5.63558 -5.45926Z" fill="#262626" transform="translate(325.02597402597405,423.6111111111111) translate(-4.418267250061035,0)" />
<line x1="415.6753246753247" y1="399.6" x2="415.6753246753247" y2="404.8611111111111" stroke="#262626" stroke-width="1.1111111111111112" />
<path d="M5.24902 -8.93148L1.79036 -3.52648L5.24902 -3.52648L5.24902 -8.93148ZM4.88959 -10.1251L6.61214 -10.1251L6.61214 -3.52648L8.05664 -3.52648L8.05664 -2.38715L6.61214 -2.38715L6.61214 0L5.24902 0L5.24902 -2.38715L0.678168 -2.38715L0.678168 -3.70958L4.88959 -10.1251Z" fill="#262626" transform="translate(415.6753246753247,423.6111111111111) translate(-4.418267250061035,0)" />
<line x1="506.32467532467535" y1="399.6" x2="506.32467532467535" y2="404.8611111111111" stroke="#262626" stroke-width="1.1111111111111112" />
<path d="M1.49875 -10.1251L6.87663 -10.1251L6.87663 -8.97217L2.75336 -8.97217L2.75336 -6.49007Q3.05176 -6.5918 3.35015 -6.64266Q3.64855 -6.69352 3.94694 -6.69352Q5.64236 -6.69352 6.63249 -5.76443Q7.62261 -4.83534 7.62261 -3.24843Q7.62261 -1.61404 6.60536 -0.708686Q5.58811 0.196669 3.73671 0.196669Q3.09923 0.196669 2.43802 0.0881619C1.99721 0.0158239 1.5417 -0.092683 1.07151 -0.237359L1.07151 -1.61404Q1.68186 -1.28174 2.3329 -1.11898Q2.98394 -0.956217 3.70958 -0.956217Q4.88281 -0.956217 5.56776 -1.57335Q6.25271 -2.19048 6.25271 -3.24843Q6.25271 -4.30637 5.56776 -4.9235Q4.88281 -5.54064 3.70958 -5.54064Q3.16026 -5.54064 2.61434 -5.41857Q2.06841 -5.2965 1.49875 -5.03879L1.49875 -10.1251Z" fill="#262626" transform="translate(506.32467532467535,423.6111111111111) translate(-4.418267250061035,0)" />
<line x1="596.974025974026" y1="399.6" x2="596.974025974026" y2="404.8611111111111" stroke="#262626" stroke-width="1.1111111111111112" />
<path d="M4.58442 -5.60845Q3.66211 -5.60845 3.12297 -4.97776Q2.58382 -4.34706 2.58382 -3.24843Q2.58382 -2.15658 3.12297 -1.52249Q3.66211 -0.888401 4.58442 -0.888401Q5.50673 -0.888401 6.04587 -1.52249Q6.58502 -2.15658 6.58502 -3.24843Q6.58502 -4.34706 6.04587 -4.97776Q5.50673 -5.60845 4.58442 -5.60845ZM7.30387 -9.90126L7.30387 -8.65343Q6.78847 -8.89757 6.26289 -9.02642Q5.7373 -9.15527 5.2219 -9.15527Q3.86556 -9.15527 3.15009 -8.23975Q2.43462 -7.32422 2.3329 -5.47282Q2.73302 -6.06282 3.33659 -6.37817Q3.94016 -6.69352 4.6658 -6.69352Q6.19168 -6.69352 7.07669 -5.76782Q7.9617 -4.84212 7.9617 -3.24843Q7.9617 -1.68864 7.03939 -0.745985Q6.11708 0.196669 4.58442 0.196669Q2.82796 0.196669 1.89887 -1.1495Q0.969781 -2.49566 0.969781 -5.05235Q0.969781 -7.45307 2.1091 -8.88062Q3.24843 -10.3082 5.16764 -10.3082Q5.68305 -10.3082 6.20863 -10.2064Q6.73421 -10.1047 7.30387 -9.90126Z" fill="#262626" transform="translate(596.974025974026,423.6111111111111) translate(-4.418267250061035,0)" />
<line x1="687.6233766233765" y1="399.6" x2="687.6233766233765" y2="404.8611111111111" stroke="#262626" stroke-width="1.1111111111111112" />
<path d="M1.13932 -10.1251L7.64974 -10.1251L7.64974 -9.54183L3.97407 0L2.54313 0L6.00179 -8.97217L1.13932 -8.97217L1.13932 -10.1251Z" fill="#262626" transform="translate(687.6233766233765,423.6111111111111) translate(-4.418267250061035,0)" />
<line x1="778.2727272727273" y1="399.6" x2="778.2727272727273" y2="404.8611111111111" stroke="#262626" stroke-width="1.1111111111111112" />
<path d="M4.41488 -4.80821Q3.43831 -4.80821 2.87882 -4.28602Q2.31934 -3.76383 2.31934 -2.84831Q2.31934 -1.93278 2.87882 -1.41059Q3.43831 -0.888401 4.41488 -0.888401Q5.39144 -0.888401 5.95432 -1.41398Q6.5172 -1.93956 6.5172 -2.84831Q6.5172 -3.76383 5.95771 -4.28602Q5.39822 -4.80821 4.41488 -4.80821ZM3.04498 -5.39144Q2.16336 -5.60845 1.67169 -6.21202Q1.18001 -6.81559 1.18001 -7.68365Q1.18001 -8.89757 2.04468 -9.60287Q2.90934 -10.3082 4.41488 -10.3082Q5.92719 -10.3082 6.78847 -9.60287Q7.64974 -8.89757 7.64974 -7.68365Q7.64974 -6.81559 7.15807 -6.21202Q6.6664 -5.60845 5.79156 -5.39144Q6.78168 -5.16086 7.33439 -4.48947Q7.8871 -3.81809 7.8871 -2.84831Q7.8871 -1.37668 6.98853 -0.590007Q6.08995 0.196669 4.41488 0.196669Q2.7398 0.196669 1.84123 -0.590007Q0.942654 -1.37668 0.942654 -2.84831Q0.942654 -3.81809 1.49875 -4.48947Q2.05485 -5.16086 3.04498 -5.39144ZM2.54313 -7.5548Q2.54313 -6.76812 3.0348 -6.32731Q3.52648 -5.8865 4.41488 -5.8865Q5.29649 -5.8865 5.79495 -6.32731Q6.2934 -6.76812 6.2934 -7.5548Q6.2934 -8.34147 5.79495 -8.78228Q5.2965 -9.22309 4.41488 -9.22309Q3.52648 -9.22309 3.0348 -8.78228Q2.54313 -8.34147 2.54313 -7.5548Z" fill="#262626" transform="translate(778.2727272727273,423.6111111111111) translate(-4.418267250061035,0)" />
<line x1="107.13888888888889" y1="400" x2="112.4" y2="400" stroke="#262626" stroke-width="1.1111111111111112" />
<path d="M1.72255 -1.15289L3.9605 -1.15289L3.9605 -8.87722L1.52588 -8.38894L1.52588 -9.63677L3.94694 -10.1251L5.31684 -10.1251L5.31684 -1.15289L7.5548 -1.15289L7.5548 0L1.72255 0L1.72255 -1.15289ZM10.3217 -1.72255L11.7527 -1.72255L11.7527 0L10.3217 0L10.3217 -1.72255ZM17.6663 -9.22309Q16.6083 -9.22309 16.076 -8.1821Q15.5436 -7.14111 15.5436 -5.05235Q15.5436 -2.97038 16.076 -1.92939Q16.6083 -0.888401 17.6663 -0.888401Q18.731 -0.888401 19.2634 -1.92939Q19.7957 -2.97038 19.7957 -5.05235Q19.7957 -7.14111 19.2634 -8.1821Q18.731 -9.22309 17.6663 -9.22309ZM17.6663 -10.3082Q19.3685 -10.3082 20.2671 -8.962Q21.1656 -7.61583 21.1656 -5.05235Q21.1656 -2.49566 20.2671 -1.1495Q19.3685 0.196669 17.6663 0.196669Q15.9641 0.196669 15.0655 -1.1495Q14.1669 -2.49566 14.1669 -5.05235Q14.1669 -7.61583 15.0655 -8.962Q15.9641 -10.3082 17.6663 -10.3082Z" fill="#262626" transform="translate(102.27777777777777,404) translate(-22.08794593811035,0)" />
<line x1="107.13888888888889" y1="356.75" x2="112.4" y2="356.75" stroke="#262626" stroke-width="1.1111111111111112" />
<path d="M1.72255 -1.15289L3.9605 -1.15289L3.9605 -8.87722L1.52588 -8.38894L1.52588 -9.63677L3.94694 -10.1251L5.31684 -10.1251L5.31684 -1.15289L7.5548 -1.15289L7.5548 0L1.72255 0L1.72255 -1.15289ZM10.3217 -1.72255L11.7527 -1.72255L11.7527 0L10.3217 0L10.3217 -1.72255ZM14.7502 -10.1251L20.128 -10.1251L20.128 -8.97217L16.0048 -8.97217L16.0048 -6.49007Q16.3032 -6.5918 16.6016 -6.64266Q16.9 -6.69352 17.1984 -6.69352Q18.8938 -6.69352 19.8839 -5.76443Q20.874 -4.83534 20.874 -3.24843Q20.874 -1.61404 19.8568 -0.708686Q18.8395 0.196669 16.9881 0.196669Q16.3506 0.196669 15.6894 0.0881619C15.2486 0.0158239 14.7931 -0.092683 14.3229 -0.237359L14.3229 -1.61404Q14.9333 -1.28174 15.5843 -1.11898Q16.2354 -0.956217 16.961 -0.956217Q18.1342 -0.956217 18.8192 -1.57335Q19.5041 -2.19048 19.5041 -3.24843Q19.5041 -4.30637 18.8192 -4.9235Q18.1342 -5.54064 16.961 -5.54064Q16.4117 -5.54064 15.8658 -5.41857Q15.3198 -5.2965 14.7502 -5.03879L14.7502 -10.1251Z" fill="#262626" transform="translate(102.27777777777777,360.75) translate(-22.08794593811035,0)" />
<line x1="107.13888888888889" y1="313.5" x2="112.4" y2="313.5" stroke="#262626" stroke-width="1.1111111111111112" />
<path d="M2.6652 -1.15289L7.44629 -1.15289L7.44629 0L1.01725 0L1.01725 -1.15289Q1.79715 -1.95991 3.14331 -3.31963Q4.48947 -4.67936 4.83534 -5.0727Q5.49316 -5.8119 5.75426 -6.32392Q6.01535 -6.83594 6.01535 -7.331Q6.01535 -8.13802 5.44908 -8.64665Q4.88281 -9.15527 3.97407 -9.15527Q3.32981 -9.15527 2.61434 -8.93148Q1.89887 -8.70768 1.08507 -8.25331L1.08507 -9.63677Q1.91243 -9.96908 2.63129 -10.1386Q3.35015 -10.3082 3.94694 -10.3082Q5.52029 -10.3082 6.45616 -9.52148Q7.39204 -8.73481 7.39204 -7.41916Q7.39204 -6.79525 7.15807 -6.23576Q6.9241 -5.67627 6.30697 -4.91672Q6.13742 -4.72005 5.22868 -3.78079Q4.31993 -2.84153 2.6652 -1.15289ZM10.3217 -1.72255L11.7527 -1.72255L11.7527 0L10.3217 0L10.3217 -1.72255ZM17.6663 -9.22309Q16.6083 -9.22309 16.076 -8.1821Q15.5436 -7.14111 15.5436 -5.05235Q15.5436 -2.97038 16.076 -1.92939Q16.6083 -0.888401 17.6663 -0.888401Q18.731 -0.888401 19.2634 -1.92939Q19.7957 -2.97038 19.7957 -5.05235Q19.7957 -7.14111 19.2634 -8.1821Q18.731 -9.22309 17.6663 -9.22309ZM17.6663 -10.3082Q19.3685 -10.3082 20.2671 -8.962Q21.1656 -7.61583 21.1656 -5.05235Q21.1656 -2.49566 20.2671 -1.1495Q19.3685 0.196669 17.6663 0.196669Q15.9641 0.196669 15.0655 -1.1495Q14.1669 -2.49566 14.1669 -5.05235Q14.1669 -7.61583 15.0655 -8.962Q15.9641 -10.3082 17.6663 -10.3082Z" fill="#262626" transform="translate(102.27777777777777,317.5) translate(-22.08794593811035,0)" />
<line x1="107.13888888888889" y1="270.25" x2="112.4" y2="270.25" stroke="#262626" stroke-width="1.1111111111111112" />
<path d="M2.6652 -1.15289L7.44629 -1.15289L7.44629 0L1.01725 0L1.01725 -1.15289Q1.79715 -1.95991 3.14331 -3.31963Q4.48947 -4.67936 4.83534 -5.0727Q5.49316 -5.8119 5.75426 -6.32392Q6.01535 -6.83594 6.01535 -7.331Q6.01535 -8.13802 5.44908 -8.64665Q4.88281 -9.15527 3.97407 -9.15527Q3.32981 -9.15527 2.61434 -8.93148Q1.89887 -8.70768 1.08507 -8.25331L1.08507 -9.63677Q1.91243 -9.96908 2.63129 -10.1386Q3.35015 -10.3082 3.94694 -10.3082Q5.52029 -10.3082 6.45616 -9.52148Q7.39204 -8.73481 7.39204 -7.41916Q7.39204 -6.79525 7.15807 -6.23576Q6.9241 -5.67627 6.30697 -4.91672Q6.13742 -4.72005 5.22868 -3.78079Q4.31993 -2.84153 2.6652 -1.15289ZM10.3217 -1.72255L11.7527 -1.72255L11.7527 0L10.3217 0L10.3217 -1.72255ZM14.7502 -10.1251L20.128 -10.1251L20.128 -8.97217L16.0048 -8.97217L16.0048 -6.49007Q16.3032 -6.5918 16.6016 -6.64266Q16.9 -6.69352 17.1984 -6.69352Q18.8938 -6.69352 19.8839 -5.76443Q20.874 -4.83534 20.874 -3.24843Q20.874 -1.61404 19.8568 -0.708686Q18.8395 0.196669 16.9881 0.196669Q16.3506 0.196669 15.6894 0.0881619C15.2486 0.0158239 14.7931 -0.092683 14.3229 -0.237359L14.3229 -1.61404Q14.9333 -1.28174 15.5843 -1.11898Q16.2354 -0.956217 16.961 -0.956217Q18.1342 -0.956217 18.8192 -1.57335Q19.5041 -2.19048 19.5041 -3.24843Q19.5041 -4.30637 18.8192 -4.9235Q18.1342 -5.54064 16.961 -5.54064Q16.4117 -5.54064 15.8658 -5.41857Q15.3198 -5.2965 14.7502 -5.03879L14.7502 -10.1251Z" fill="#262626" transform="translate(102.27777777777777,274.25) translate(-22.08794593811035,0)" />
<line x1="107.13888888888889" y1="227" x2="112.4" y2="227" stroke="#262626" stroke-width="1.1111111111111112" />
<path d="M5.63558 -5.45926Q6.61892 -5.24902 7.17163 -4.58442Q7.72434 -3.91981 7.72434 -2.94325Q7.72434 -1.4445 6.69352 -0.623915Q5.66271 0.196669 3.76383 0.196669Q3.12636 0.196669 2.45158 0.0712077Q1.7768 -0.0542535 1.05794 -0.305176L1.05794 -1.6276Q1.6276 -1.2953 2.30577 -1.12576Q2.98394 -0.956217 3.72314 -0.956217Q5.01166 -0.956217 5.68644 -1.46484Q6.36122 -1.97347 6.36122 -2.94325Q6.36122 -3.83843 5.73391 -4.34367Q5.10661 -4.8489 3.98763 -4.8489L2.80762 -4.8489L2.80762 -5.97466L4.04188 -5.97466Q5.05235 -5.97466 5.58811 -6.37817Q6.12386 -6.78168 6.12386 -7.54123Q6.12386 -8.32113 5.57115 -8.7382Q5.01845 -9.15527 3.98763 -9.15527Q3.42475 -9.15527 2.78049 -9.0332Q2.13623 -8.91113 1.36312 -8.65343L1.36312 -9.87413Q2.14301 -10.0911 2.82457 -10.1997Q3.50613 -10.3082 4.1097 -10.3082Q5.66949 -10.3082 6.57823 -9.59947Q7.48698 -8.89079 7.48698 -7.68365Q7.48698 -6.84272 7.00548 -6.26289Q6.52398 -5.68305 5.63558 -5.45926ZM10.3217 -1.72255L11.7527 -1.72255L11.7527 0L10.3217 0L10.3217 -1.72255ZM17.6663 -9.22309Q16.6083 -9.22309 16.076 -8.1821Q15.5436 -7.14111 15.5436 -5.05235Q15.5436 -2.97038 16.076 -1.92939Q16.6083 -0.888401 17.6663 -0.888401Q18.731 -0.888401 19.2634 -1.92939Q19.7957 -2.97038 19.7957 -5.05235Q19.7957 -7.14111 19.2634 -8.1821Q18.731 -9.22309 17.6663 -9.22309ZM17.6663 -10.3082Q19.3685 -10.3082 20.2671 -8.962Q21.1656 -7.61583 21.1656 -5.05235Q21.1656 -2.49566 20.2671 -1.1495Q19.3685 0.196669 17.6663 0.196669Q15.9641 0.196669 15.0655 -1.1495Q14.1669 -2.49566 14.1669 -5.05235Q14.1669 -7.61583 15.0655 -8.962Q15.9641 -10.3082 17.6663 -10.3082Z" fill="#262626" transform="translate(102.27777777777777,231) translate(-22.08794593811035,0)" />
<line x1="107.13888888888889" y1="183.75" x2="112.4" y2="183.75" stroke="#262626" stroke-width="1.1111111111111112" />
<path d="M5.63558 -5.45926Q6.61892 -5.24902 7.17163 -4.58442Q7.72434 -3.91981 7.72434 -2.94325Q7.72434 -1.4445 6.69352 -0.623915Q5.66271 0.196669 3.76383 0.196669Q3.12636 0.196669 2.45158 0.0712077Q1.7768 -0.0542535 1.05794 -0.305176L1.05794 -1.6276Q1.6276 -1.2953 2.30577 -1.12576Q2.98394 -0.956217 3.72314 -0.956217Q5.01166 -0.956217 5.68644 -1.46484Q6.36122 -1.97347 6.36122 -2.94325Q6.36122 -3.83843 5.73391 -4.34367Q5.10661 -4.8489 3.98763 -4.8489L2.80762 -4.8489L2.80762 -5.97466L4.04188 -5.97466Q5.05235 -5.97466 5.58811 -6.37817Q6.12386 -6.78168 6.12386 -7.54123Q6.12386 -8.32113 5.57115 -8.7382Q5.01845 -9.15527 3.98763 -9.15527Q3.42475 -9.15527 2.78049 -9.0332Q2.13623 -8.91113 1.36312 -8.65343L1.36312 -9.87413Q2.14301 -10.0911 2.82457 -10.1997Q3.50613 -10.3082 4.1097 -10.3082Q5.66949 -10.3082 6.57823 -9.59947Q7.48698 -8.89079 7.48698 -7.68365Q7.48698 -6.84272 7.00548 -6.26289Q6.52398 -5.68305 5.63558 -5.45926ZM10.3217 -1.72255L11.7527 -1.72255L11.7527 0L10.3217 0L10.3217 -1.72255ZM14.7502 -10.1251L20.128 -10.1251L20.128 -8.97217L16.0048 -8.97217L16.0048 -6.49007Q16.3032 -6.5918 16.6016 -6.64266Q16.9 -6.69352 17.1984 -6.69352Q18.8938 -6.69352 19.8839 -5.76443Q20.874 -4.83534 20.874 -3.24843Q20.874 -1.61404 19.8568 -0.708686Q18.8395 0.196669 16.9881 0.196669Q16.3506 0.196669 15.6894 0.0881619C15.2486 0.0158239 14.7931 -0.092683 14.3229 -0.237359L14.3229 -1.61404Q14.9333 -1.28174 15.5843 -1.11898Q16.2354 -0.956217 16.961 -0.956217Q18.1342 -0.956217 18.8192 -1.57335Q19.5041 -2.19048 19.5041 -3.24843Q19.5041 -4.30637 18.8192 -4.9235Q18.1342 -5.54064 16.961 -5.54064Q16.4117 -5.54064 15.8658 -5.41857Q15.3198 -5.2965 14.7502 -5.03879L14.7502 -10.1251Z" fill="#262626" transform="translate(102.27777777777777,187.75) translate(-22.08794593811035,0)" />
<line x1="107.13888888888889" y1="140.5" x2="112.4" y2="140.5" stroke="#262626" stroke-width="1.1111111111111112" />
<path d="M5.24902 -8.93148L1.79036 -3.52648L5.24902 -3.52648L5.24902 -8.93148ZM4.88959 -10.1251L6.61214 -10.1251L6.61214 -3.52648L8.05664 -3.52648L8.05664 -2.38715L6.61214 -2.38715L6.61214 0L5.24902 0L5.24902 -2.38715L0.678168 -2.38715L0.678168 -3.70958L4.88959 -10.1251ZM10.3217 -1.72255L11.7527 -1.72255L11.7527 0L10.3217 0L10.3217 -1.72255ZM17.6663 -9.22309Q16.6083 -9.22309 16.076 -8.1821Q15.5436 -7.14111 15.5436 -5.05235Q15.5436 -2.97038 16.076 -1.92939Q16.6083 -0.888401 17.6663 -0.888401Q18.731 -0.888401 19.2634 -1.92939Q19.7957 -2.97038 19.7957 -5.05235Q19.7957 -7.14111 19.2634 -8.1821Q18.731 -9.22309 17.6663 -9.22309ZM17.6663 -10.3082Q19.3685 -10.3082 20.2671 -8.962Q21.1656 -7.61583 21.1656 -5.05235Q21.1656 -2.49566 20.2671 -1.1495Q19.3685 0.196669 17.6663 0.196669Q15.9641 0.196669 15.0655 -1.1495Q14.1669 -2.49566 14.1669 -5.05235Q14.1669 -7.61583 15.0655 -8.962Q15.9641 -10.3082 17.6663 -10.3082Z" fill="#262626" transform="translate(102.27777777777777,144.5) translate(-22.08794593811035,0)" />
<line x1="107.13888888888889" y1="97.25" x2="112.4" y2="97.25" stroke="#262626" stroke-width="1.1111111111111112" />
<path d="M5.24902 -8.93148L1.79036 -3.52648L5.24902 -3.52648L5.24902 -8.93148ZM4.88959 -10.1251L6.61214 -10.1251L6.61214 -3.52648L8.05664 -3.52648L8.05664 -2.38715L6.61214 -2.38715L6.61214 0L5.24902 0L5.24902 -2.38715L0.678168 -2.38715L0.678168 -3.70958L4.88959 -10.1251ZM10.3217 -1.72255L11.7527 -1.72255L11.7527 0L10.3217 0L10.3217 -1.72255ZM14.7502 -10.1251L20.128 -10.1251L20.128 -8.97217L16.0048 -8.97217L16.0048 -6.49007Q16.3032 -6.5918 16.6016 -6.64266Q16.9 -6.69352 17.1984 -6.69352Q18.8938 -6.69352 19.8839 -5.76443Q20.874 -4.83534 20.874 -3.24843Q20.874 -1.61404 19.8568 -0.708686Q18.8395 0.196669 16.9881 0.196669Q16.3506 0.196669 15.6894 0.0881619C15.2486 0.0158239 14.7931 -0.092683 14.3229 -0.237359L14.3229 -1.61404Q14.9333 -1.28174 15.5843 -1.11898Q16.2354 -0.956217 16.961 -0.956217Q18.1342 -0.956217 18.8192 -1.57335Q19.5041 -2.19048 19.5041 -3.24843Q19.5041 -4.30637 18.8192 -4.9235Q18.1342 -5.54064 16.961 -5.54064Q16.4117 -5.54064 15.8658 -5.41857Q15.3198 -5.2965 14.7502 -5.03879L14.7502 -10.1251Z" fill="#262626" transform="translate(102.27777777777777,101.25) translate(-22.08794593811035,0)" />
<line x1="107.13888888888889" y1="54" x2="112.4" y2="54" stroke="#262626" stroke-width="1.1111111111111112" />
<path d="M1.49875 -10.1251L6.87663 -10.1251L6.87663 -8.97217L2.75336 -8.97217L2.75336 -6.49007Q3.05176 -6.5918 3.35015 -6.64266Q3.64855 -6.69352 3.94694 -6.69352Q5.64236 -6.69352 6.63249 -5.76443Q7.62261 -4.83534 7.62261 -3.24843Q7.62261 -1.61404 6.60536 -0.708686Q5.58811 0.196669 3.73671 0.196669Q3.09923 0.196669 2.43802 0.0881619C1.99721 0.0158239 1.5417 -0.092683 1.07151 -0.237359L1.07151 -1.61404Q1.68186 -1.28174 2.3329 -1.11898Q2.98394 -0.956217 3.70958 -0.956217Q4.88281 -0.956217 5.56776 -1.57335Q6.25271 -2.19048 6.25271 -3.24843Q6.25271 -4.30637 5.56776 -4.9235Q4.88281 -5.54064 3.70958 -5.54064Q3.16026 -5.54064 2.61434 -5.41857Q2.06841 -5.2965 1.49875 -5.03879L1.49875 -10.1251ZM10.3217 -1.72255L11.7527 -1.72255L11.7527 0L10.3217 0L10.3217 -1.72255ZM17.6663 -9.22309Q16.6083 -9.22309 16.076 -8.1821Q15.5436 -7.14111 15.5436 -5.05235Q15.5436 -2.97038 16.076 -1.92939Q16.6083 -0.888401 17.6663 -0.888401Q18.731 -0.888401 19.2634 -1.92939Q19.7957 -2.97038 19.7957 -5.05235Q19.7957 -7.14111 19.2634 -8.1821Q18.731 -9.22309 17.6663 -9.22309ZM17.6663 -10.3082Q19.3685 -10.3082 20.2671 -8.962Q21.1656 -7.61583 21.1656 -5.05235Q21.1656 -2.49566 20.2671 -1.1495Q19.3685 0.196669 17.6663 0.196669Q15.9641 0.196669 15.0655 -1.1495Q14.1669 -2.49566 14.1669 -5.05235Q14.1669 -7.61583 15.0655 -8.962Q15.9641 -10.3082 17.6663 -10.3082Z" fill="#262626" transform="translate(102.27777777777777,58) translate(-22.08794593811035,0)" />
<g class="series" aria-label="Alpha">
<polyline points="143.72727272727275,400 234.3766233766234,400 325.02597402597405,400 415.6753246753247,140.5 506.32467532467535,313.5 596.974025974026,227 687.6233766233767,227 778.2727272727273,313.5" fill="none" stroke="#E41A1C" stroke-width="3" />
<circle cx="143.72727272727275" cy="400" r="5" fill="#E41A1C" />
<circle cx="234.3766233766234" cy="400" r="5" fill="#E41A1C" />
<circle cx="325.02597402597405" cy="400" r="5" fill="#E41A1C" />
<circle cx="415.6753246753247" cy="140.5" r="5" fill="#E41A1C" />
<circle cx="506.32467532467535" cy="313.5" r="5" fill="#E41A1C" />
<circle cx="596.974025974026" cy="227" r="5" fill="#E41A1C" />
<circle cx="687.6233766233767" cy="227" r="5" fill="#E41A1C" />
<circle cx="778.2727272727273" cy="313.5" r="5" fill="#E41A1C" />
</g>
<g class="series" aria-label="Beta">
<polyline points="143.72727272727275,140.5 234.3766233766234,227 325.02597402597405,54 415.6753246753247,227 506.32467532467535,54 596.974025974026,313.5 687.6233766233767,54 778.2727272727273,400" fill="none" stroke="#377EB8" stroke-width="3" />
<circle cx="143.72727272727275" cy="140.5" r="5" fill="#377EB8" />
<circle cx="234.3766233766234" cy="227" r="5" fill="#377EB8" />
<circle cx="325.02597402597405" cy="54" r="5" fill="#377EB8" />
<circle cx="415.6753246753247" cy="227" r="5" fill="#377EB8" />
<circle cx="506.32467532467535" cy="54" r="5" fill="#377EB8" />
<circle cx="596.974025974026" cy="313.5" r="5" fill="#377EB8" />
<circle cx="687.6233766233767" cy="54" r="5" fill="#377EB8" />
<circle cx="778.2727272727273" cy="400" r="5" fill="#377EB8" />
</g>
<g class="series" aria-label="Gamma">
<polyline points="143.72727272727275,313.5 234.3766233766234,140.5 325.02597402597405,227 415.6753246753247,313.5 506.32467532467535,140.5 596.974025974026,400 687.6233766233767,140.5 778.2727272727273,54" fill="none" stroke="#4DAF4A" stroke-width="3" />
<circle cx="143.72727272727275" cy="313.5" r="5" fill="#4DAF4A" />
<circle cx="234.3766233766234" cy="140.5" r="5" fill="#4DAF4A" />
<circle cx="325.02597402597405" cy="227" r="5" fill="#4DAF4A" />
<circle cx="415.6753246753247" cy="313.5" r="5" fill="#4DAF4A" />
<circle cx="506.32467532467535" cy="140.5" r="5" fill="#4DAF4A" />
<circle cx="596.974025974026" cy="400" r="5" fill="#4DAF4A" />
<circle cx="687.6233766233767" cy="140.5" r="5" fill="#4DAF4A" />
<circle cx="778.2727272727273" cy="54" r="5" fill="#4DAF4A" />
</g>
<g class="series" aria-label="Delta">
<polyline points="143.72727272727275,54 234.3766233766234,313.5 325.02597402597405,313.5 415.6753246753247,54 506.32467532467535,227 596.974025974026,54 687.6233766233767,313.5 778.2727272727273,140.5" fill="none" stroke="#984EA3" stroke-width="3" />
<circle cx="143.72727272727275" cy="54" r="5" fill="#984EA3" />
<circle cx="234.3766233766234" cy="313.5" r="5" fill="#984EA3" />
<circle cx="325.02597402597405" cy="313.5" r="5" fill="#984EA3" />
<circle cx="415.6753246753247" cy="54" r="5" fill="#984EA3" />
<circle cx="506.32467532467535" cy="227" r="5" fill="#984EA3" />
<circle cx="596.974025974026" cy="54" r="5" fill="#984EA3" />
<circle cx="687.6233766233767" cy="313.5" r="5" fill="#984EA3" />
<circle cx="778.2727272727273" cy="140.5" r="5" fill="#984EA3" />
</g>
<g class="series" aria-label="Epsilon">
<polyline points="143.72727272727275,227 234.3766233766234,54 325.02597402597405,140.5 415.6753246753247,400 506.32467532467535,400 596.974025974026,140.5 687.6233766233767,400 778.2727272727273,227" fill="none" stroke="#FF7F00" stroke-width="3" />
<circle cx="143.72727272727275" cy="227" r="5" fill="#FF7F00" />
<circle cx="234.3766233766234" cy="54" r="5" fill="#FF7F00" />
<circle cx="325.02597402597405" cy="140.5" r="5" fill="#FF7F00" />
<circle cx="415.6753246753247" cy="400" r="5" fill="#FF7F00" />
<circle cx="506.32467532467535" cy="400" r="5" fill="#FF7F00" />
<circle cx="596.974025974026" cy="140.5" r="5" fill="#FF7F00" />
<circle cx="687.6233766233767" cy="400" r="5" fill="#FF7F00" />
<circle cx="778.2727272727273" cy="227" r="5" fill="#FF7F00" />
</g>
<g class="spine">
<line x1="112" y1="400" x2="810" y2="400" stroke="#262626" stroke-width="0.8" />
</g>
<g class="spine">
<line x1="112" y1="54" x2="810" y2="54" stroke="#262626" stroke-width="0.8" />
</g>
<g class="spine">
<line x1="112" y1="54" x2="112" y2="400" stroke="#262626" stroke-width="0.8" />
</g>
<g class="spine">
<line x1="810" y1="54" x2="810" y2="400" stroke="#262626" stroke-width="0.8" />
</g>
<g class="legend" aria-label="Chart legend">
<rect x="690.2676281399197" y="64" width="109.73237186008029" height="92.38888888888887" fill="#FFFFFF" fill-opacity="0.8" stroke="#CCCCCC" stroke-width="0.5" />
<line x1="698.2676281399197" y1="76.86111111111111" x2="726.0454059176975" y2="76.86111111111111" stroke="#E41A1C" stroke-width="3" />
<circle cx="712.1565170288086" cy="76.86111111111111" r="2.4779501613232933" fill="#E41A1C" />
<path d="M4.74718 -8.7755L2.889 -3.73671L6.61214 -3.73671L4.74718 -8.7755ZM3.97407 -10.1251L5.52707 -10.1251L9.38585 0L7.9617 0L7.03939 -2.59739L2.47531 -2.59739L1.55301 0L0.108507 0L3.97407 -10.1251ZM10.81 -10.5523L12.0578 -10.5523L12.0578 0L10.81 0L10.81 -10.5523ZM15.8759 -1.13932L15.8759 2.889L14.6213 2.889L14.6213 -7.59549L15.8759 -7.59549L15.8759 -6.4426Q16.2693 -7.12077 16.8694 -7.44968Q17.4696 -7.77859 18.3038 -7.77859Q19.6872 -7.77859 20.5519 -6.67996Q21.4166 -5.58133 21.4166 -3.79096Q21.4166 -2.0006 20.5519 -0.901964Q19.6872 0.196669 18.3038 0.196669Q17.4696 0.196669 16.8694 -0.132243Q16.2693 -0.461155 15.8759 -1.13932ZM20.1213 -3.79096Q20.1213 -5.16764 19.555 -5.95093Q18.9887 -6.73421 17.9986 -6.73421Q17.0085 -6.73421 16.4422 -5.95093Q15.8759 -5.16764 15.8759 -3.79096Q15.8759 -2.41428 16.4422 -1.631Q17.0085 -0.847711 17.9986 -0.847711Q18.9887 -0.847711 19.555 -1.631Q20.1213 -2.41428 20.1213 -3.79096ZM29.7987 -4.58442L29.7987 0L28.5509 0L28.5509 -4.54373Q28.5509 -5.62202 28.1304 -6.15777Q27.71 -6.69352 26.869 -6.69352Q25.8586 -6.69352 25.2753 -6.04926Q24.6921 -5.405 24.6921 -4.29281L24.6921 0L23.4375 0L23.4375 -10.5523L24.6921 -10.5523L24.6921 -6.41547Q25.1397 -7.10042 25.7467 -7.43951Q26.3536 -7.77859 27.1471 -7.77859Q28.4559 -7.77859 29.1273 -6.96818Q29.7987 -6.15777 29.7987 -4.58442ZM35.7395 -3.81809Q34.2272 -3.81809 33.6439 -3.47222Q33.0607 -3.12636 33.0607 -2.29221Q33.0607 -1.6276 33.4981 -1.23766Q33.9355 -0.84771 34.6883 -0.847711Q35.7259 -0.847711 36.3532 -1.58352Q36.9805 -2.31934 36.9805 -3.54004L36.9805 -3.81809L35.7395 -3.81809ZM38.2284 -4.3335L38.2284 0L36.9805 0L36.9805 -1.15289Q36.5533 -0.461155 35.9158 -0.132243Q35.2783 0.196669 34.356 0.196669Q33.1896 0.196669 32.5012 -0.457764Q31.8129 -1.1122 31.8129 -2.21083Q31.8129 -3.49257 32.6708 -4.14361Q33.5286 -4.79465 35.2309 -4.79465L36.9805 -4.79465L36.9805 -4.91672Q36.9805 -5.77799 36.4143 -6.24932Q35.848 -6.72065 34.8239 -6.72065Q34.1729 -6.72065 33.5558 -6.56467Q32.9386 -6.40869 32.369 -6.09673L32.369 -7.24962Q33.0539 -7.51411 33.6982 -7.64635Q34.3424 -7.77859 34.9528 -7.77859Q36.6007 -7.77859 37.4146 -6.9241Q38.2284 -6.06961 38.2284 -4.3335Z" fill="#262626" transform="translate(737.1565170288086,80.72222222222223)" />
<line x1="698.2676281399197" y1="93.52777777777777" x2="726.0454059176975" y2="93.52777777777777" stroke="#377EB8" stroke-width="3" />
<circle cx="712.1565170288086" cy="93.52777777777777" r="2.4779501613232933" fill="#377EB8" />
<path d="M2.73302 -4.83534L2.73302 -1.12576L4.93028 -1.12576Q6.0357 -1.12576 6.56806 -1.58352Q7.10042 -2.04129 7.10042 -2.98394Q7.10042 -3.93338 6.56806 -4.38436Q6.0357 -4.83534 4.93028 -4.83534L2.73302 -4.83534ZM2.73302 -8.9993L2.73302 -5.94754L4.76074 -5.94754Q5.76443 -5.94754 6.2561 -6.32392Q6.74778 -6.7003 6.74778 -7.47342Q6.74778 -8.23975 6.2561 -8.61952Q5.76443 -8.99929 4.76074 -8.9993L2.73302 -8.9993ZM1.36312 -10.1251L4.86247 -10.1251Q6.42904 -10.1251 7.27675 -9.47401Q8.12446 -8.82297 8.12446 -7.62261Q8.12446 -6.69352 7.69043 -6.14421Q7.2564 -5.59489 6.41547 -5.45926Q7.42594 -5.24224 7.98543 -4.5539Q8.54492 -3.86556 8.54492 -2.83474Q8.54492 -1.47841 7.62261 -0.739204Q6.7003 0 4.9981 0L1.36312 0L1.36312 -10.1251ZM17.334 -4.1097L17.334 -3.49935L11.5967 -3.49935Q11.6781 -2.21083 12.3732 -1.53605Q13.0683 -0.861274 14.3094 -0.861274Q15.0282 -0.861274 15.703 -1.0376Q16.3778 -1.21392 17.0424 -1.56657L17.0424 -0.386556Q16.371 -0.101725 15.6657 0.0474718Q14.9604 0.196669 14.2348 0.196669Q12.4173 0.196669 11.3559 -0.861274Q10.2946 -1.91922 10.2946 -3.72314Q10.2946 -5.58811 11.3017 -6.68335Q12.3088 -7.77859 14.0177 -7.77859Q15.5504 -7.77859 16.4422 -6.79186Q17.334 -5.80512 17.334 -4.1097ZM16.0862 -4.47591Q16.0726 -5.49995 15.5131 -6.1103Q14.9536 -6.72065 14.0313 -6.72065Q12.9869 -6.72065 12.3596 -6.13064Q11.7323 -5.54064 11.6374 -4.46913L16.0862 -4.47591ZM20.6163 -9.75206L20.6163 -7.59549L23.1866 -7.59549L23.1866 -6.62571L20.6163 -6.62571L20.6163 -2.50244Q20.6163 -1.57335 20.8706 -1.30887Q21.1249 -1.04438 21.9048 -1.04438L23.1866 -1.04438L23.1866 0L21.9048 0Q20.4603 0 19.911 -0.539144Q19.3617 -1.07829 19.3617 -2.50244L19.3617 -6.62571L18.4462 -6.62571L18.4462 -7.59549L19.3617 -7.59549L19.3617 -9.75206L20.6163 -9.75206ZM28.2796 -3.81809Q26.7673 -3.81809 26.1841 -3.47222Q25.6009 -3.12636 25.6009 -2.29221Q25.6009 -1.6276 26.0383 -1.23766Q26.4757 -0.84771 27.2285 -0.847711Q28.2661 -0.847711 28.8934 -1.58352Q29.5207 -2.31934 29.5207 -3.54004L29.5207 -3.81809L28.2796 -3.81809ZM30.7685 -4.3335L30.7685 0L29.5207 0L29.5207 -1.15289Q29.0934 -0.461155 28.4559 -0.132243Q27.8185 0.196669 26.8962 0.196669Q25.7297 0.196669 25.0414 -0.457764Q24.353 -1.1122 24.353 -2.21083Q24.353 -3.49257 25.2109 -4.14361Q26.0688 -4.79465 27.771 -4.79465L29.5207 -4.79465L29.5207 -4.91672Q29.5207 -5.77799 28.9544 -6.24932Q28.3881 -6.72065 27.3641 -6.72065Q26.7131 -6.72065 26.0959 -6.56467Q25.4788 -6.40869 24.9091 -6.09673L24.9091 -7.24962Q25.5941 -7.51411 26.2383 -7.64635Q26.8826 -7.77859 27.4929 -7.77859Q29.1409 -7.77859 29.9547 -6.9241Q30.7685 -6.06961 30.7685 -4.3335Z" fill="#262626" transform="translate(737.1565170288086,97.38888888888889)" />
<line x1="698.2676281399197" y1="110.19444444444444" x2="726.0454059176975" y2="110.19444444444444" stroke="#4DAF4A" stroke-width="3" />
<circle cx="712.1565170288086" cy="110.19444444444444" r="2.4779501613232933" fill="#4DAF4A" />
<path d="M8.26687 -1.4445L8.26687 -4.16395L6.02892 -4.16395L6.02892 -5.28971L9.62321 -5.28971L9.62321 -0.942654Q8.82975 -0.379774 7.87354 -0.0915527Q6.91732 0.196669 5.83225 0.196669Q3.45866 0.196669 2.11928 -1.19019Q0.779894 -2.57704 0.779894 -5.05235Q0.779894 -7.53445 2.11928 -8.92131Q3.45866 -10.3082 5.83225 -10.3082Q6.82237 -10.3082 7.71417 -10.064Q8.60596 -9.81988 9.35872 -9.34516L9.35872 -7.8871Q8.59917 -8.53136 7.74468 -8.85688Q6.89019 -9.1824 5.94754 -9.1824Q4.08936 -9.1824 3.15687 -8.1448Q2.22439 -7.1072 2.22439 -5.05235Q2.22439 -3.00429 3.15687 -1.96669Q4.08935 -0.929091 5.94754 -0.929091Q6.67318 -0.929091 7.24284 -1.05455Q7.8125 -1.18001 8.26687 -1.4445ZM15.5233 -3.81809Q14.011 -3.81809 13.4277 -3.47222Q12.8445 -3.12636 12.8445 -2.29221Q12.8445 -1.6276 13.2819 -1.23766Q13.7193 -0.84771 14.4721 -0.847711Q15.5097 -0.847711 16.137 -1.58352Q16.7643 -2.31934 16.7643 -3.54004L16.7643 -3.81809L15.5233 -3.81809ZM18.0122 -4.3335L18.0122 0L16.7643 0L16.7643 -1.15289Q16.3371 -0.461155 15.6996 -0.132243Q15.0621 0.196669 14.1398 0.196669Q12.9734 0.196669 12.285 -0.457764Q11.5967 -1.1122 11.5967 -2.21083Q11.5967 -3.49257 12.4546 -4.14361Q13.3124 -4.79465 15.0146 -4.79465L16.7643 -4.79465L16.7643 -4.91672Q16.7643 -5.77799 16.1981 -6.24932Q15.6318 -6.72065 14.6077 -6.72065Q13.9567 -6.72065 13.3396 -6.56467Q12.7224 -6.40869 12.1528 -6.09673L12.1528 -7.24962Q12.8377 -7.51411 13.482 -7.64635Q14.1262 -7.77859 14.7366 -7.77859Q16.3846 -7.77859 17.1984 -6.9241Q18.0122 -6.06961 18.0122 -4.3335ZM26.496 -6.13742Q26.964 -6.97835 27.615 -7.37847Q28.2661 -7.77859 29.1477 -7.77859Q30.3345 -7.77859 30.9787 -6.94784Q31.623 -6.11708 31.623 -4.58442L31.623 0L30.3684 0L30.3684 -4.54373Q30.3684 -5.63558 29.9818 -6.16455Q29.5953 -6.69352 28.8018 -6.69352Q27.832 -6.69352 27.2692 -6.04926Q26.7063 -5.405 26.7063 -4.29281L26.7063 0L25.4517 0L25.4517 -4.54373Q25.4517 -5.64236 25.0651 -6.16794Q24.6786 -6.69352 23.8715 -6.69352Q22.9153 -6.69352 22.3524 -6.04587Q21.7896 -5.39822 21.7896 -4.29281L21.7896 0L20.5349 0L20.5349 -7.59549L21.7896 -7.59549L21.7896 -6.41547Q22.2168 -7.11399 22.8136 -7.44629Q23.4104 -7.77859 24.231 -7.77859Q25.0583 -7.77859 25.6382 -7.35813Q26.218 -6.93766 26.496 -6.13742ZM40.0255 -6.13742Q40.4934 -6.97835 41.1445 -7.37847Q41.7955 -7.77859 42.6771 -7.77859Q43.8639 -7.77859 44.5082 -6.94784Q45.1525 -6.11708 45.1525 -4.58442L45.1525 0L43.8978 0L43.8978 -4.54373Q43.8978 -5.63558 43.5113 -6.16455Q43.1247 -6.69352 42.3313 -6.69352Q41.3615 -6.69352 40.7986 -6.04926Q40.2357 -5.405 40.2357 -4.29281L40.2357 0L38.9811 0L38.9811 -4.54373Q38.9811 -5.64236 38.5946 -6.16794Q38.208 -6.69352 37.401 -6.69352Q36.4448 -6.69352 35.8819 -6.04587Q35.319 -5.39822 35.319 -4.29281L35.319 0L34.0644 0L34.0644 -7.59549L35.319 -7.59549L35.319 -6.41547Q35.7463 -7.11399 36.343 -7.44629Q36.9398 -7.77859 37.7604 -7.77859Q38.5878 -7.77859 39.1676 -7.35813Q39.7475 -6.93766 40.0255 -6.13742ZM51.0932 -3.81809Q49.5809 -3.81809 48.9977 -3.47222Q48.4144 -3.12636 48.4144 -2.29221Q48.4144 -1.6276 48.8519 -1.23766Q49.2893 -0.84771 50.0421 -0.847711Q51.0797 -0.847711 51.707 -1.58352Q52.3343 -2.31934 52.3343 -3.54004L52.3343 -3.81809L51.0932 -3.81809ZM53.5821 -4.3335L53.5821 0L52.3343 0L52.3343 -1.15289Q51.907 -0.461155 51.2695 -0.132243Q50.6321 0.196669 49.7097 0.196669Q48.5433 0.196669 47.855 -0.457764Q47.1666 -1.1122 47.1666 -2.21083Q47.1666 -3.49257 48.0245 -4.14361Q48.8824 -4.79465 50.5846 -4.79465L52.3343 -4.79465L52.3343 -4.91672Q52.3343 -5.77799 51.768 -6.24932Q51.2017 -6.72065 50.1777 -6.72065Q49.5266 -6.72065 48.9095 -6.56467Q48.2924 -6.40869 47.7227 -6.09673L47.7227 -7.24962Q48.4077 -7.51411 49.0519 -7.64635Q49.6962 -7.77859 50.3065 -7.77859Q51.9545 -7.77859 52.7683 -6.9241Q53.5821 -6.06961 53.5821 -4.3335Z" fill="#262626" transform="translate(737.1565170288086,114.05555555555554)" />
<line x1="698.2676281399197" y1="126.86111111111111" x2="726.0454059176975" y2="126.86111111111111" stroke="#984EA3" stroke-width="3" />
<circle cx="712.1565170288086" cy="126.86111111111111" r="2.4779501613232933" fill="#984EA3" />
<path d="M2.73302 -8.9993L2.73302 -1.12576L4.38775 -1.12576Q6.48329 -1.12576 7.45646 -2.0752Q8.42963 -3.02463 8.42963 -5.0727Q8.42963 -7.1072 7.45646 -8.05325Q6.48329 -8.9993 4.38775 -8.9993L2.73302 -8.9993ZM1.36312 -10.1251L4.17752 -10.1251Q7.12077 -10.1251 8.49745 -8.90096Q9.87413 -7.67687 9.87413 -5.0727Q9.87413 -2.45497 8.49067 -1.22748Q7.1072 0 4.17752 0L1.36312 0L1.36312 -10.1251ZM18.5004 -4.1097L18.5004 -3.49935L12.7631 -3.49935Q12.8445 -2.21083 13.5396 -1.53605Q14.2348 -0.861274 15.4758 -0.861274Q16.1947 -0.861274 16.8694 -1.0376Q17.5442 -1.21392 18.2088 -1.56657L18.2088 -0.386556Q17.5374 -0.101725 16.8321 0.0474718Q16.1268 0.196669 15.4012 0.196669Q13.5837 0.196669 12.5224 -0.861274Q11.461 -1.91922 11.461 -3.72314Q11.461 -5.58811 12.4681 -6.68335Q13.4752 -7.77859 15.1842 -7.77859Q16.7169 -7.77859 17.6086 -6.79186Q18.5004 -5.80512 18.5004 -4.1097ZM17.2526 -4.47591Q17.239 -5.49995 16.6796 -6.1103Q16.1201 -6.72065 15.1978 -6.72065Q14.1534 -6.72065 13.5261 -6.13064Q12.8988 -5.54064 12.8038 -4.46913L17.2526 -4.47591ZM20.5485 -10.5523L21.7963 -10.5523L21.7963 0L20.5485 0L20.5485 -10.5523ZM25.6415 -9.75206L25.6415 -7.59549L28.2118 -7.59549L28.2118 -6.62571L25.6415 -6.62571L25.6415 -2.50244Q25.6415 -1.57335 25.8959 -1.30887Q26.1502 -1.04438 26.9301 -1.04438L28.2118 -1.04438L28.2118 0L26.9301 0Q25.4856 0 24.9363 -0.539144Q24.3869 -1.07829 24.3869 -2.50244L24.3869 -6.62571L23.4714 -6.62571L23.4714 -7.59549L24.3869 -7.59549L24.3869 -9.75206L25.6415 -9.75206ZM33.3049 -3.81809Q31.7925 -3.81809 31.2093 -3.47222Q30.6261 -3.12636 30.6261 -2.29221Q30.6261 -1.6276 31.0635 -1.23766Q31.5009 -0.84771 32.2537 -0.847711Q33.2913 -0.847711 33.9186 -1.58352Q34.5459 -2.31934 34.5459 -3.54004L34.5459 -3.81809L33.3049 -3.81809ZM35.7937 -4.3335L35.7937 0L34.5459 0L34.5459 -1.15289Q34.1187 -0.461155 33.4812 -0.132243Q32.8437 0.196669 31.9214 0.196669Q30.7549 0.196669 30.0666 -0.457764Q29.3783 -1.1122 29.3783 -2.21083Q29.3783 -3.49257 30.2361 -4.14361Q31.094 -4.79465 32.7962 -4.79465L34.5459 -4.79465L34.5459 -4.91672Q34.5459 -5.77799 33.9796 -6.24932Q33.4134 -6.72065 32.3893 -6.72065Q31.7383 -6.72065 31.1211 -6.56467Q30.504 -6.40869 29.9344 -6.09673L29.9344 -7.24962Q30.6193 -7.51411 31.2636 -7.64635Q31.9078 -7.77859 32.5182 -7.77859Q34.1661 -7.77859 34.9799 -6.9241Q35.7937 -6.06961 35.7937 -4.3335Z" fill="#262626" transform="translate(737.1565170288086,130.72222222222223)" />
<line x1="698.2676281399197" y1="143.52777777777777" x2="726.0454059176975" y2="143.52777777777777" stroke="#FF7F00" stroke-width="3" />
<circle cx="712.1565170288086" cy="143.52777777777777" r="2.4779501613232933" fill="#FF7F00" />
<path d="M1.36312 -10.1251L7.76503 -10.1251L7.76503 -8.97217L2.73302 -8.97217L2.73302 -5.97466L7.5548 -5.97466L7.5548 -4.82178L2.73302 -4.82178L2.73302 -1.15289L7.8871 -1.15289L7.8871 0L1.36312 0L1.36312 -10.1251ZM11.2915 -1.13932L11.2915 2.889L10.0369 2.889L10.0369 -7.59549L11.2915 -7.59549L11.2915 -6.4426Q11.6848 -7.12077 12.285 -7.44968Q12.8852 -7.77859 13.7193 -7.77859Q15.1028 -7.77859 15.9675 -6.67996Q16.8321 -5.58133 16.8321 -3.79096Q16.8321 -2.0006 15.9675 -0.901964Q15.1028 0.196669 13.7193 0.196669Q12.8852 0.196669 12.285 -0.132243Q11.6848 -0.461155 11.2915 -1.13932ZM15.5368 -3.79096Q15.5368 -5.16764 14.9706 -5.95093Q14.4043 -6.73421 13.4142 -6.73421Q12.424 -6.73421 11.8578 -5.95093Q11.2915 -5.16764 11.2915 -3.79096Q11.2915 -2.41428 11.8578 -1.631Q12.424 -0.847711 13.4142 -0.847711Q14.4043 -0.847711 14.9706 -1.631Q15.5368 -2.41428 15.5368 -3.79096ZM23.7427 -7.37169L23.7427 -6.19168Q23.2137 -6.46294 22.644 -6.59858Q22.0744 -6.73421 21.464 -6.73421Q20.5349 -6.73421 20.0704 -6.44938Q19.6059 -6.16455 19.6059 -5.59489Q19.6059 -5.16086 19.9382 -4.91333Q20.2705 -4.6658 21.2741 -4.442L21.7014 -4.34706Q23.0306 -4.06223 23.5901 -3.54343Q24.1496 -3.02463 24.1496 -2.09554Q24.1496 -1.0376 23.312 -0.420464Q22.4745 0.196669 21.0097 0.196669Q20.3993 0.196669 19.7381 0.0779894Q19.0769 -0.0406901 18.3445 -0.278049L18.3445 -1.56657Q19.0362 -1.20714 19.7076 -1.02743Q20.379 -0.84771 21.0368 -0.847711Q21.9184 -0.847711 22.3931 -1.1495Q22.8678 -1.45128 22.8678 -2.0006Q22.8678 -2.50922 22.5254 -2.78049Q22.1829 -3.05176 21.0232 -3.30268L20.5892 -3.40441Q19.4295 -3.64855 18.9141 -4.15378Q18.3987 -4.65902 18.3987 -5.54064Q18.3987 -6.61214 19.1583 -7.19537Q19.9178 -7.77859 21.3148 -7.77859Q22.0066 -7.77859 22.6169 -7.67687Q23.2273 -7.57514 23.7427 -7.37169ZM26.1366 -7.59549L27.3844 -7.59549L27.3844 0L26.1366 0L26.1366 -7.59549ZM26.1366 -10.5523L27.3844 -10.5523L27.3844 -8.97217L26.1366 -8.97217L26.1366 -10.5523ZM29.9954 -10.5523L31.2432 -10.5523L31.2432 0L29.9954 0L29.9954 -10.5523ZM36.7974 -6.72065Q35.7937 -6.72065 35.2105 -5.93736Q34.6273 -5.15408 34.6273 -3.79096Q34.6273 -2.42784 35.2071 -1.64456Q35.7869 -0.861274 36.7974 -0.861274Q37.7943 -0.861274 38.3776 -1.64795Q38.9608 -2.43462 38.9608 -3.79096Q38.9608 -5.14052 38.3776 -5.93058Q37.7943 -6.72065 36.7974 -6.72065ZM36.7974 -7.77859Q38.425 -7.77859 39.3541 -6.72065Q40.2832 -5.66271 40.2832 -3.79096Q40.2832 -1.926 39.3541 -0.864665Q38.425 0.196669 36.7974 0.196669Q35.163 0.196669 34.2373 -0.864665Q33.3116 -1.926 33.3116 -3.79096Q33.3116 -5.66271 34.2373 -6.72065Q35.163 -7.77859 36.7974 -7.77859ZM48.6654 -4.58442L48.6654 0L47.4175 0L47.4175 -4.54373Q47.4175 -5.62202 46.9971 -6.15777Q46.5766 -6.69352 45.7357 -6.69352Q44.7252 -6.69352 44.142 -6.04926Q43.5588 -5.405 43.5588 -4.29281L43.5588 0L42.3041 0L42.3041 -7.59549L43.5588 -7.59549L43.5588 -6.41547Q44.0064 -7.10042 44.6133 -7.43951Q45.2203 -7.77859 46.0137 -7.77859Q47.3226 -7.77859 47.994 -6.96818Q48.6654 -6.15777 48.6654 -4.58442Z" fill="#262626" transform="translate(737.1565170288086,147.38888888888889)" />
</g>
<path d="M2.73302 -8.9993L2.73302 -5.19477L4.45557 -5.19477Q5.41178 -5.19477 5.93397 -5.68983Q6.45616 -6.1849 6.45616 -7.10042Q6.45616 -8.00917 5.93397 -8.50423Q5.41178 -8.9993 4.45557 -8.9993L2.73302 -8.9993ZM1.36312 -10.1251L4.45557 -10.1251Q6.15777 -10.1251 7.02922 -9.35533Q7.90066 -8.58561 7.90066 -7.10042Q7.90066 -5.60167 7.02922 -4.83534Q6.15777 -4.06901 4.45557 -4.06901L2.73302 -4.06901L2.73302 0L1.36312 0L1.36312 -10.1251ZM16.1811 -4.1097L16.1811 -3.49935L10.4438 -3.49935Q10.5252 -2.21083 11.2203 -1.53605Q11.9154 -0.861274 13.1565 -0.861274Q13.8753 -0.861274 14.5501 -1.0376Q15.2249 -1.21392 15.8895 -1.56657L15.8895 -0.386556Q15.2181 -0.101725 14.5128 0.0474718Q13.8075 0.196669 13.0819 0.196669Q11.2644 0.196669 10.203 -0.861274Q9.14171 -1.91922 9.14171 -3.72314Q9.14171 -5.58811 10.1488 -6.68335Q11.1559 -7.77859 12.8649 -7.77859Q14.3975 -7.77859 15.2893 -6.79186Q16.1811 -5.80512 16.1811 -4.1097ZM14.9333 -4.47591Q14.9197 -5.49995 14.3602 -6.1103Q13.8007 -6.72065 12.8784 -6.72065Q11.834 -6.72065 11.2067 -6.13064Q10.5794 -5.54064 10.4845 -4.46913L14.9333 -4.47591ZM22.6305 -6.42904Q22.4202 -6.55111 22.1727 -6.60875Q21.9252 -6.6664 21.6268 -6.6664Q20.5688 -6.6664 20.0026 -5.97805Q19.4363 -5.28971 19.4363 -4.00119L19.4363 0L18.1817 0L18.1817 -7.59549L19.4363 -7.59549L19.4363 -6.41547Q19.8296 -7.1072 20.4603 -7.4429Q21.091 -7.77859 21.993 -7.77859Q22.1219 -7.77859 22.2778 -7.76164Q22.4338 -7.74468 22.6237 -7.71077L22.6305 -6.42904ZM23.9393 -7.59549L25.1872 -7.59549L25.1872 0L23.9393 0L23.9393 -7.59549ZM23.9393 -10.5523L25.1872 -10.5523L25.1872 -8.97217L23.9393 -8.97217L23.9393 -10.5523ZM30.7414 -6.72065Q29.7377 -6.72065 29.1545 -5.93736Q28.5712 -5.15408 28.5712 -3.79096Q28.5712 -2.42784 29.1511 -1.64456Q29.7309 -0.861274 30.7414 -0.861274Q31.7383 -0.861274 32.3215 -1.64795Q32.9047 -2.43462 32.9047 -3.79096Q32.9047 -5.14052 32.3215 -5.93058Q31.7383 -6.72065 30.7414 -6.72065ZM30.7414 -7.77859Q32.369 -7.77859 33.2981 -6.72065Q34.2272 -5.66271 34.2272 -3.79096Q34.2272 -1.926 33.2981 -0.864665Q32.369 0.196669 30.7414 0.196669Q29.107 0.196669 28.1813 -0.864665Q27.2556 -1.926 27.2556 -3.79096Q27.2556 -5.66271 28.1813 -6.72065Q29.107 -7.77859 30.7414 -7.77859ZM41.2937 -6.4426L41.2937 -10.5523L42.5415 -10.5523L42.5415 0L41.2937 0L41.2937 -1.13932Q40.9003 -0.461154 40.3002 -0.132243Q39.7 0.196669 38.8591 0.196669Q37.4824 0.196669 36.6177 -0.901964Q35.753 -2.0006 35.753 -3.79096Q35.753 -5.58133 36.6177 -6.67996Q37.4824 -7.77859 38.8591 -7.77859Q39.7 -7.77859 40.3002 -7.44968Q40.9003 -7.12077 41.2937 -6.4426ZM37.0416 -3.79096Q37.0416 -2.41428 37.6078 -1.631Q38.1741 -0.847711 39.1642 -0.847711Q40.1544 -0.847711 40.724 -1.631Q41.2937 -2.41428 41.2937 -3.79096Q41.2937 -5.16764 40.724 -5.95093Q40.1544 -6.73421 39.1642 -6.73421Q38.1741 -6.73421 37.6078 -5.95093Q37.0416 -5.16764 37.0416 -3.79096Z" fill="#262626" transform="translate(461,443.5) translate(-21.90144920349121,0)" />
<path d="M6.16455 -4.74718Q6.60536 -4.59798 7.02243 -4.1097Q7.43951 -3.62142 7.85997 -2.76693L9.25022 0L7.77859 0L6.48329 -2.59739Q5.98145 -3.61464 5.51012 -3.94694Q5.03879 -4.27924 4.22499 -4.27924L2.73302 -4.27924L2.73302 0L1.36312 0L1.36312 -10.1251L4.45557 -10.1251Q6.19168 -10.1251 7.04617 -9.39941Q7.90066 -8.67377 7.90066 -7.20893Q7.90066 -6.25271 7.45646 -5.62202Q7.01226 -4.99132 6.16455 -4.74718ZM2.73302 -8.9993L2.73302 -5.405L4.45557 -5.405Q5.44569 -5.405 5.95093 -5.86277Q6.45616 -6.32053 6.45616 -7.20893Q6.45616 -8.09733 5.95093 -8.54831Q5.44569 -8.99929 4.45557 -8.9993L2.73302 -8.9993ZM14.4111 -3.81809Q12.8988 -3.81809 12.3155 -3.47222Q11.7323 -3.12636 11.7323 -2.29221Q11.7323 -1.6276 12.1697 -1.23766Q12.6072 -0.84771 13.3599 -0.847711Q14.3975 -0.847711 15.0248 -1.58352Q15.6521 -2.31934 15.6521 -3.54004L15.6521 -3.81809L14.4111 -3.81809ZM16.9 -4.3335L16.9 0L15.6521 0L15.6521 -1.15289Q15.2249 -0.461155 14.5874 -0.132243Q13.9499 0.196669 13.0276 0.196669Q11.8612 0.196669 11.1728 -0.457764Q10.4845 -1.1122 10.4845 -2.21083Q10.4845 -3.49257 11.3424 -4.14361Q12.2002 -4.79465 13.9025 -4.79465L15.6521 -4.79465L15.6521 -4.91672Q15.6521 -5.77799 15.0859 -6.24932Q14.5196 -6.72065 13.4956 -6.72065Q12.8445 -6.72065 12.2274 -6.56467Q11.6102 -6.40869 11.0406 -6.09673L11.0406 -7.24962Q11.7255 -7.51411 12.3698 -7.64635Q13.0141 -7.77859 13.6244 -7.77859Q15.2724 -7.77859 16.0862 -6.9241Q16.9 -6.06961 16.9 -4.3335ZM25.784 -4.58442L25.784 0L24.5361 0L24.5361 -4.54373Q24.5361 -5.62202 24.1157 -6.15777Q23.6952 -6.69352 22.8543 -6.69352Q21.8438 -6.69352 21.2606 -6.04926Q20.6774 -5.405 20.6774 -4.29281L20.6774 0L19.4227 0L19.4227 -7.59549L20.6774 -7.59549L20.6774 -6.41547Q21.1249 -7.10042 21.7319 -7.43951Q22.3389 -7.77859 23.1323 -7.77859Q24.4412 -7.77859 25.1126 -6.96818Q25.784 -6.15777 25.784 -4.58442ZM28.2254 -10.5523L29.48 -10.5523L29.48 -4.31993L33.2031 -7.59549L34.7968 -7.59549L30.7685 -4.04188L34.9664 0L33.3388 0L29.48 -3.70958L29.48 0L28.2254 0L28.2254 -10.5523Z" fill="#262626" transform="translate(68.18983183966742,227) rotate(-90) translate(-17.503528594970703,0)" />
</svg>
