<svg xmlns="http://www.w3.org/2000/svg" viewBox="0 0 1100 300" width="1100" height="300" style="width:100%;height:auto" role="img" aria-labelledby="chart-title">
<title id="chart-title">Calendar Heatmap — GitHub-style Contributions</title>
<rect x="0" y="0" width="1100" height="300" fill="#FFFFFF" />
<path d="M11.9842 -0.716254Q11.0583 -0.23584 10.0538 0.00873481Q9.04926 0.253309 7.95741 0.253309Q4.69933 0.253309 2.79514 -1.5679Q0.89095 -3.38911 0.890951 -6.50743Q0.89095 -9.63449 2.79514 -11.4557Q4.69933 -13.2769 7.95741 -13.2769Q9.04926 -13.2769 10.0538 -13.0323Q11.0583 -12.7878 11.9842 -12.3073L11.9842 -9.60829Q11.0495 -10.2459 10.1411 -10.5429Q9.23269 -10.8399 8.22819 -10.8399Q6.42882 -10.8399 5.39811 -9.6869Q4.3674 -8.53391 4.3674 -6.50743Q4.3674 -4.48969 5.39811 -3.3367Q6.42882 -2.1837 8.22819 -2.1837Q9.23269 -2.1837 10.1411 -2.48069Q11.0495 -2.77767 11.9842 -3.41531L11.9842 -0.716254ZM19.0157 -4.40234Q18.0374 -4.40234 17.5439 -4.07042Q17.0503 -3.7385 17.0503 -3.09212Q17.0503 -2.49816 17.4478 -2.16187Q17.8452 -1.82558 18.5527 -1.82558Q19.4349 -1.82558 20.0377 -2.45885Q20.6404 -3.09212 20.6404 -4.04422L20.6404 -4.40234L19.0157 -4.40234ZM23.7936 -5.58154L23.7936 0L20.6404 0L20.6404 -1.44998Q20.0114 -0.559028 19.2253 -0.152859Q18.4392 0.253309 17.3124 0.253309Q15.7925 0.253309 14.8448 -0.633274Q13.8971 -1.51986 13.8971 -2.9349Q13.8971 -4.65565 15.0806 -5.45926Q16.2642 -6.26286 18.7973 -6.26286L20.6404 -6.26286L20.6404 -6.50743Q20.6404 -7.24989 20.0551 -7.59492Q19.4699 -7.93994 18.2295 -7.93994Q17.225 -7.93994 16.3603 -7.73904Q15.4956 -7.53814 14.7531 -7.13634L14.7531 -9.52094Q15.7576 -9.76552 16.7708 -9.89217Q17.7841 -10.0188 18.7973 -10.0188Q21.444 -10.0188 22.6188 -8.97502Q23.7936 -7.93121 23.7936 -5.58154ZM26.7023 -13.5914L29.8294 -13.5914L29.8294 0L26.7023 0L26.7023 -13.5914ZM42.5997 -4.9177L42.5997 -4.02675L35.2886 -4.02675Q35.4022 -2.92616 36.0835 -2.37587Q36.7648 -1.82558 37.9877 -1.82558Q38.9747 -1.82558 40.0098 -2.11819Q41.0449 -2.41081 42.1367 -3.00477L42.1367 -0.593967Q41.0274 -0.174696 39.9181 0.0393066Q38.8088 0.253309 37.6994 0.253309Q35.0441 0.253309 33.5722 -1.09622Q32.1004 -2.44575 32.1004 -4.88276Q32.1004 -7.2761 33.546 -8.64746Q34.9916 -10.0188 37.5247 -10.0188Q39.8307 -10.0188 41.2152 -8.62999Q42.5997 -7.24116 42.5997 -4.9177ZM39.3853 -5.95714Q39.3853 -6.84809 38.8655 -7.39402Q38.3458 -7.93994 37.5073 -7.93994Q36.5989 -7.93994 36.0311 -7.42896Q35.4633 -6.91797 35.3236 -5.95714L39.3853 -5.95714ZM54.8022 -5.95714L54.8022 0L51.6577 0L51.6577 -0.969564L51.6577 -4.55957Q51.6577 -5.82612 51.6009 -6.30653Q51.5441 -6.78695 51.4044 -7.01405Q51.2209 -7.31977 50.9065 -7.4901Q50.592 -7.66043 50.1902 -7.66043Q49.2119 -7.66043 48.6529 -6.90487Q48.0939 -6.14931 48.0939 -4.81288L48.0939 0L44.9668 0L44.9668 -9.78299L48.0939 -9.78299L48.0939 -8.35048Q48.8014 -9.20649 49.5962 -9.61266Q50.3911 -10.0188 51.3519 -10.0188Q53.0465 -10.0188 53.9243 -8.97938Q54.8022 -7.93994 54.8022 -5.95714ZM64.3581 -8.35048L64.3581 -13.5914L67.5026 -13.5914L67.5026 0L64.3581 0L64.3581 -1.41504Q63.7117 -0.550293 62.9343 -0.148492Q62.1569 0.253309 61.1349 0.253309Q59.3268 0.253309 58.1651 -1.18357Q57.0034 -2.62044 57.0034 -4.88276Q57.0034 -7.14507 58.1651 -8.58195Q59.3268 -10.0188 61.1349 -10.0188Q62.1482 -10.0188 62.9299 -9.61266Q63.7117 -9.20649 64.3581 -8.35048ZM62.2967 -2.01774Q63.3012 -2.01774 63.8296 -2.75146Q64.3581 -3.48519 64.3581 -4.88276Q64.3581 -6.28033 63.8296 -7.01405Q63.3012 -7.74778 62.2967 -7.74778Q61.3009 -7.74778 60.7724 -7.01405Q60.244 -6.28033 60.244 -4.88276Q60.244 -3.48519 60.7724 -2.75146Q61.3009 -2.01774 62.2967 -2.01774ZM74.8923 -4.40234Q73.914 -4.40234 73.4204 -4.07042Q72.9269 -3.7385 72.9269 -3.09212Q72.9269 -2.49816 73.3244 -2.16187Q73.7218 -1.82558 74.4293 -1.82558Q75.3115 -1.82558 75.9142 -2.45885Q76.5169 -3.09212 76.5169 -4.04422L76.5169 -4.40234L74.8923 -4.40234ZM79.6702 -5.58154L79.6702 0L76.5169 0L76.5169 -1.44998Q75.888 -0.559028 75.1019 -0.152859Q74.3158 0.253309 73.189 0.253309Q71.6691 0.253309 70.7214 -0.633274Q69.7737 -1.51986 69.7737 -2.9349Q69.7737 -4.65565 70.9572 -5.45926Q72.1408 -6.26286 74.6739 -6.26286L76.5169 -6.26286L76.5169 -6.50743Q76.5169 -7.24989 75.9317 -7.59492Q75.3465 -7.93994 74.1061 -7.93994Q73.1016 -7.93994 72.2369 -7.73904Q71.3721 -7.53814 70.6297 -7.13634L70.6297 -9.52094Q71.6342 -9.76552 72.6474 -9.89217Q73.6606 -10.0188 74.6739 -10.0188Q77.3205 -10.0188 78.4954 -8.97502Q79.6702 -7.93121 79.6702 -5.58154ZM89.8462 -7.11887Q89.4357 -7.31103 89.0295 -7.40275Q88.6234 -7.49447 88.2128 -7.49447Q87.0074 -7.49447 86.3567 -6.72144Q85.7059 -5.94841 85.7059 -4.50716L85.7059 0L82.5789 0L82.5789 -9.78299L85.7059 -9.78299L85.7059 -8.17578Q86.3086 -9.13661 87.0904 -9.57772Q87.8722 -10.0188 88.964 -10.0188Q89.1212 -10.0188 89.3047 -10.0057Q89.4881 -9.99262 89.8375 -9.94895L89.8462 -7.11887ZM97.7687 -13.0411L101.132 -13.0411L101.132 -8.07096L106.093 -8.07096L106.093 -13.0411L109.456 -13.0411L109.456 0L106.093 0L106.093 -5.52913L101.132 -5.52913L101.132 0L97.7687 0L97.7687 -13.0411ZM122.366 -4.9177L122.366 -4.02675L115.055 -4.02675Q115.168 -2.92616 115.85 -2.37587Q116.531 -1.82558 117.754 -1.82558Q118.741 -1.82558 119.776 -2.11819Q120.811 -2.41081 121.903 -3.00477L121.903 -0.593967Q120.794 -0.174696 119.684 0.0393066Q118.575 0.253309 117.466 0.253309Q114.81 0.253309 113.339 -1.09622Q111.867 -2.44575 111.867 -4.88276Q111.867 -7.2761 113.312 -8.64746Q114.758 -10.0188 117.291 -10.0188Q119.597 -10.0188 120.981 -8.62999Q122.366 -7.24116 122.366 -4.9177ZM119.152 -5.95714Q119.152 -6.84809 118.632 -7.39402Q118.112 -7.93994 117.274 -7.93994Q116.365 -7.93994 115.797 -7.42896Q115.23 -6.91797 115.09 -5.95714L119.152 -5.95714ZM129.118 -4.40234Q128.14 -4.40234 127.646 -4.07042Q127.153 -3.7385 127.153 -3.09212Q127.153 -2.49816 127.55 -2.16187Q127.947 -1.82558 128.655 -1.82558Q129.537 -1.82558 130.14 -2.45885Q130.743 -3.09212 130.743 -4.04422L130.743 -4.40234L129.118 -4.40234ZM133.896 -5.58154L133.896 0L130.743 0L130.743 -1.44998Q130.114 -0.559028 129.328 -0.152859Q128.541 0.253309 127.415 0.253309Q125.895 0.253309 124.947 -0.633274Q123.999 -1.51986 123.999 -2.9349Q123.999 -4.65565 125.183 -5.45926Q126.366 -6.26286 128.9 -6.26286L130.743 -6.26286L130.743 -6.50743Q130.743 -7.24989 130.157 -7.59492Q129.572 -7.93994 128.332 -7.93994Q127.327 -7.93994 126.463 -7.73904Q125.598 -7.53814 124.855 -7.13634L124.855 -9.52094Q125.86 -9.76552 126.873 -9.89217Q127.886 -10.0188 128.9 -10.0188Q131.546 -10.0188 132.721 -8.97502Q133.896 -7.93121 133.896 -5.58154ZM140.22 -12.5607L140.22 -9.78299L143.443 -9.78299L143.443 -7.54688L140.22 -7.54688L140.22 -3.39784Q140.22 -2.71653 140.491 -2.47632Q140.761 -2.23611 141.565 -2.23611L143.172 -2.23611L143.172 0L140.491 0Q138.639 0 137.866 -0.773031Q137.093 -1.54606 137.093 -3.39784L137.093 -7.54688L135.538 -7.54688L135.538 -9.78299L137.093 -9.78299L137.093 -12.5607L140.22 -12.5607ZM154.423 -8.15831Q155.017 -9.06673 155.833 -9.54278Q156.65 -10.0188 157.628 -10.0188Q159.314 -10.0188 160.196 -8.97938Q161.079 -7.93994 161.079 -5.95714L161.079 0L157.934 0L157.934 -5.10113Q157.943 -5.21468 157.947 -5.33697Q157.952 -5.45926 157.952 -5.68636Q157.952 -6.7258 157.646 -7.19312Q157.34 -7.66043 156.659 -7.66043Q155.768 -7.66043 155.283 -6.9267Q154.798 -6.19298 154.781 -4.80414L154.781 0L151.636 0L151.636 -5.10113Q151.636 -6.7258 151.357 -7.19312Q151.077 -7.66043 150.361 -7.66043Q149.461 -7.66043 148.972 -6.92234Q148.483 -6.18424 148.483 -4.81288L148.483 0L145.339 0L145.339 -9.78299L148.483 -9.78299L148.483 -8.35048Q149.06 -9.18028 149.806 -9.59956Q150.553 -10.0188 151.453 -10.0188Q152.466 -10.0188 153.243 -9.52968Q154.021 -9.04053 154.423 -8.15831ZM168.381 -4.40234Q167.403 -4.40234 166.909 -4.07042Q166.416 -3.7385 166.416 -3.09212Q166.416 -2.49816 166.813 -2.16187Q167.21 -1.82558 167.918 -1.82558Q168.8 -1.82558 169.403 -2.45885Q170.006 -3.09212 170.006 -4.04422L170.006 -4.40234L168.381 -4.40234ZM173.159 -5.58154L173.159 0L170.006 0L170.006 -1.44998Q169.377 -0.559028 168.591 -0.152859Q167.804 0.253309 166.678 0.253309Q165.158 0.253309 164.21 -0.633274Q163.262 -1.51986 163.262 -2.9349Q163.262 -4.65565 164.446 -5.45926Q165.629 -6.26286 168.163 -6.26286L170.006 -6.26286L170.006 -6.50743Q170.006 -7.24989 169.42 -7.59492Q168.835 -7.93994 167.595 -7.93994Q166.59 -7.93994 165.726 -7.73904Q164.861 -7.53814 164.118 -7.13634L164.118 -9.52094Q165.123 -9.76552 166.136 -9.89217Q167.149 -10.0188 168.163 -10.0188Q170.809 -10.0188 171.984 -8.97502Q173.159 -7.93121 173.159 -5.58154ZM179.195 -1.41504L179.195 3.72103L176.068 3.72103L176.068 -9.78299L179.195 -9.78299L179.195 -8.35048Q179.841 -9.20649 180.627 -9.61266Q181.413 -10.0188 182.435 -10.0188Q184.243 -10.0188 185.405 -8.58195Q186.567 -7.14507 186.567 -4.88276Q186.567 -2.62044 185.405 -1.18357Q184.243 0.253309 182.435 0.253309Q181.413 0.253309 180.627 -0.152859Q179.841 -0.559028 179.195 -1.41504ZM181.273 -7.74778Q180.269 -7.74778 179.732 -7.00968Q179.195 -6.27159 179.195 -4.88276Q179.195 -3.49392 179.732 -2.75583Q180.269 -2.01774 181.273 -2.01774Q182.278 -2.01774 182.806 -2.75146Q183.335 -3.48519 183.335 -4.88276Q183.335 -6.28033 182.806 -7.01405Q182.278 -7.74778 181.273 -7.74778ZM194.559 -6.02702L210.526 -6.02702L210.526 -3.77344L194.559 -3.77344L194.559 -6.02702ZM231.079 -0.969564Q229.822 -0.358127 228.468 -0.0524089Q227.114 0.253309 225.673 0.253309Q222.414 0.253309 220.51 -1.5679Q218.606 -3.38911 218.606 -6.50743Q218.606 -9.6607 220.545 -11.4688Q222.484 -13.2769 225.856 -13.2769Q227.157 -13.2769 228.35 -13.0323Q229.542 -12.7878 230.599 -12.3073L230.599 -9.60829Q229.507 -10.2285 228.428 -10.5342Q227.35 -10.8399 226.266 -10.8399Q224.257 -10.8399 223.17 -9.71747Q222.083 -8.59505 222.083 -6.50743Q222.083 -4.43728 223.131 -3.31049Q224.179 -2.1837 226.109 -2.1837Q226.633 -2.1837 227.083 -2.24921Q227.533 -2.31472 227.891 -2.45448L227.891 -4.98758L225.838 -4.98758L225.838 -7.24116L231.079 -7.24116L231.079 -0.969564ZM233.901 -9.78299L237.028 -9.78299L237.028 0L233.901 0L233.901 -9.78299ZM233.901 -13.5914L237.028 -13.5914L237.028 -11.0408L233.901 -11.0408L233.901 -13.5914ZM243.448 -12.5607L243.448 -9.78299L246.671 -9.78299L246.671 -7.54688L243.448 -7.54688L243.448 -3.39784Q243.448 -2.71653 243.719 -2.47632Q243.989 -2.23611 244.793 -2.23611L246.4 -2.23611L246.4 0L243.719 0Q241.867 0 241.094 -0.773031Q240.321 -1.54606 240.321 -3.39784L240.321 -7.54688L238.766 -7.54688L238.766 -9.78299L240.321 -9.78299L240.321 -12.5607L243.448 -12.5607ZM248.724 -13.0411L252.087 -13.0411L252.087 -8.07096L257.048 -8.07096L257.048 -13.0411L260.411 -13.0411L260.411 0L257.048 0L257.048 -5.52913L252.087 -5.52913L252.087 0L248.724 0L248.724 -13.0411ZM263.451 -3.80838L263.451 -9.78299L266.595 -9.78299L266.595 -8.80469Q266.595 -8.00982 266.586 -6.80878Q266.578 -5.60775 266.578 -5.20595Q266.578 -4.02675 266.639 -3.50703Q266.7 -2.9873 266.848 -2.75146Q267.041 -2.44575 267.351 -2.27979Q267.661 -2.11382 268.063 -2.11382Q269.041 -2.11382 269.6 -2.86502Q270.159 -3.61621 270.159 -4.95264L270.159 -9.78299L273.286 -9.78299L273.286 0L270.159 0L270.159 -1.41504Q269.451 -0.559028 268.661 -0.152859Q267.87 0.253309 266.918 0.253309Q265.224 0.253309 264.337 -0.786133Q263.451 -1.82558 263.451 -3.80838ZM281.497 -2.01774Q282.501 -2.01774 283.03 -2.75146Q283.558 -3.48519 283.558 -4.88276Q283.558 -6.28033 283.03 -7.01405Q282.501 -7.74778 281.497 -7.74778Q280.492 -7.74778 279.955 -7.00968Q279.418 -6.27159 279.418 -4.88276Q279.418 -3.49392 279.955 -2.75583Q280.492 -2.01774 281.497 -2.01774ZM279.418 -8.35048Q280.064 -9.20649 280.85 -9.61266Q281.636 -10.0188 282.658 -10.0188Q284.467 -10.0188 285.628 -8.58195Q286.79 -7.14507 286.79 -4.88276Q286.79 -2.62044 285.628 -1.18357Q284.467 0.253309 282.658 0.253309Q281.636 0.253309 280.85 -0.152859Q280.064 -0.559028 279.418 -1.41504L279.418 0L276.291 0L276.291 -13.5914L279.418 -13.5914L279.418 -8.35048ZM288.563 -6.42008L294.049 -6.42008L294.049 -3.87826L288.563 -3.87826L288.563 -6.42008ZM304.164 -9.47727L304.164 -7.1014Q303.159 -7.52067 302.224 -7.73031Q301.29 -7.93994 300.46 -7.93994Q299.569 -7.93994 299.137 -7.7172Q298.704 -7.49447 298.704 -7.03152Q298.704 -6.65592 299.032 -6.45502Q299.359 -6.25412 300.207 -6.15804L300.757 -6.07943Q303.159 -5.77371 303.989 -5.07492Q304.819 -4.37614 304.819 -2.88249Q304.819 -1.31896 303.666 -0.532823Q302.513 0.253309 300.224 0.253309Q299.255 0.253309 298.219 0.10045Q297.184 -0.0524089 296.093 -0.358127L296.093 -2.734Q297.027 -2.27978 298.01 -2.05268Q298.993 -1.82557 300.006 -1.82558Q300.923 -1.82558 301.386 -2.07888Q301.849 -2.33219 301.849 -2.83008Q301.849 -3.24935 301.53 -3.45462Q301.211 -3.65989 300.259 -3.77344L299.709 -3.84332Q297.621 -4.10536 296.783 -4.81288Q295.944 -5.5204 295.944 -6.96164Q295.944 -8.51644 297.01 -9.26763Q298.075 -10.0188 300.277 -10.0188Q301.141 -10.0188 302.093 -9.8878Q303.045 -9.75678 304.164 -9.47727ZM310.584 -12.5607L310.584 -9.78299L313.807 -9.78299L313.807 -7.54688L310.584 -7.54688L310.584 -3.39784Q310.584 -2.71653 310.854 -2.47632Q311.125 -2.23611 311.929 -2.23611L313.536 -2.23611L313.536 0L310.854 0Q309.003 0 308.23 -0.773031Q307.457 -1.54606 307.457 -3.39784L307.457 -7.54688L305.902 -7.54688L305.902 -9.78299L307.457 -9.78299L307.457 -12.5607L310.584 -12.5607ZM314.436 -9.78299L317.563 -9.78299L320.192 -3.14453L322.428 -9.78299L325.555 -9.78299L321.441 0.92589Q320.821 2.5593 319.995 3.21004Q319.17 3.86079 317.816 3.86079L316.008 3.86079L316.008 1.80811L316.986 1.80811Q317.781 1.80811 318.144 1.5548Q318.506 1.30149 318.707 0.646376L318.794 0.375597L314.436 -9.78299ZM327.381 -13.5914L330.508 -13.5914L330.508 0L327.381 0L327.381 -13.5914ZM343.278 -4.9177L343.278 -4.02675L335.967 -4.02675Q336.081 -2.92616 336.762 -2.37587Q337.443 -1.82558 338.666 -1.82558Q339.653 -1.82558 340.688 -2.11819Q341.723 -2.41081 342.815 -3.00477L342.815 -0.593967Q341.706 -0.174696 340.596 0.0393066Q339.487 0.253309 338.378 0.253309Q335.722 0.253309 334.251 -1.09622Q332.779 -2.44575 332.779 -4.88276Q332.779 -7.2761 334.224 -8.64746Q335.67 -10.0188 338.203 -10.0188Q340.509 -10.0188 341.894 -8.62999Q343.278 -7.24116 343.278 -4.9177ZM340.064 -5.95714Q340.064 -6.84809 339.544 -7.39402Q339.024 -7.93994 338.186 -7.93994Q337.277 -7.93994 336.709 -7.42896Q336.142 -6.91797 336.002 -5.95714L340.064 -5.95714ZM362.355 -0.716254Q361.429 -0.23584 360.424 0.00873481Q359.42 0.253309 358.328 0.253309Q355.07 0.253309 353.166 -1.5679Q351.262 -3.38911 351.262 -6.50743Q351.262 -9.63449 353.166 -11.4557Q355.07 -13.2769 358.328 -13.2769Q359.42 -13.2769 360.424 -13.0323Q361.429 -12.7878 362.355 -12.3073L362.355 -9.60829Q361.42 -10.2459 360.512 -10.5429Q359.603 -10.8399 358.599 -10.8399Q356.8 -10.8399 355.769 -9.6869Q354.738 -8.53391 354.738 -6.50743Q354.738 -4.48969 355.769 -3.3367Q356.8 -2.1837 358.599 -2.1837Q359.603 -2.1837 360.512 -2.48069Q361.42 -2.77767 362.355 -3.41531L362.355 -0.716254ZM369.657 -7.78271Q368.618 -7.78271 368.072 -7.03589Q367.526 -6.28906 367.526 -4.88276Q367.526 -3.47645 368.072 -2.72963Q368.618 -1.9828 369.657 -1.9828Q370.679 -1.9828 371.221 -2.72963Q371.762 -3.47645 371.762 -4.88276Q371.762 -6.28906 371.221 -7.03589Q370.679 -7.78271 369.657 -7.78271ZM369.657 -10.0188Q372.182 -10.0188 373.601 -8.6562Q375.02 -7.29357 375.02 -4.88276Q375.02 -2.47195 373.601 -1.10932Q372.182 0.253309 369.657 0.253309Q367.124 0.253309 365.696 -1.10932Q364.268 -2.47195 364.268 -4.88276Q364.268 -7.29357 365.696 -8.6562Q367.124 -10.0188 369.657 -10.0188ZM387.127 -5.95714L387.127 0L383.982 0L383.982 -0.969564L383.982 -4.55957Q383.982 -5.82612 383.925 -6.30653Q383.869 -6.78695 383.729 -7.01405Q383.546 -7.31977 383.231 -7.4901Q382.917 -7.66043 382.515 -7.66043Q381.536 -7.66043 380.977 -6.90487Q380.418 -6.14931 380.418 -4.81288L380.418 0L377.291 0L377.291 -9.78299L380.418 -9.78299L380.418 -8.35048Q381.126 -9.20649 381.921 -9.61266Q382.716 -10.0188 383.677 -10.0188Q385.371 -10.0188 386.249 -8.97938Q387.127 -7.93994 387.127 -5.95714ZM393.442 -12.5607L393.442 -9.78299L396.665 -9.78299L396.665 -7.54688L393.442 -7.54688L393.442 -3.39784Q393.442 -2.71653 393.713 -2.47632Q393.984 -2.23611 394.787 -2.23611L396.394 -2.23611L396.394 0L393.713 0Q391.861 0 391.088 -0.773031Q390.315 -1.54606 390.315 -3.39784L390.315 -7.54688L388.76 -7.54688L388.76 -9.78299L390.315 -9.78299L390.315 -12.5607L393.442 -12.5607ZM405.845 -7.11887Q405.435 -7.31103 405.029 -7.40275Q404.623 -7.49447 404.212 -7.49447Q403.007 -7.49447 402.356 -6.72144Q401.705 -5.94841 401.705 -4.50716L401.705 0L398.578 0L398.578 -9.78299L401.705 -9.78299L401.705 -8.17578Q402.308 -9.13661 403.09 -9.57772Q403.871 -10.0188 404.963 -10.0188Q405.121 -10.0188 405.304 -10.0057Q405.487 -9.99262 405.837 -9.94895L405.845 -7.11887ZM407.4 -9.78299L410.527 -9.78299L410.527 0L407.4 0L407.4 -9.78299ZM407.4 -13.5914L410.527 -13.5914L410.527 -11.0408L407.4 -11.0408L407.4 -13.5914ZM418.738 -2.01774Q419.743 -2.01774 420.271 -2.75146Q420.799 -3.48519 420.799 -4.88276Q420.799 -6.28033 420.271 -7.01405Q419.743 -7.74778 418.738 -7.74778Q417.734 -7.74778 417.196 -7.00968Q416.659 -6.27159 416.659 -4.88276Q416.659 -3.49392 417.196 -2.75583Q417.734 -2.01774 418.738 -2.01774ZM416.659 -8.35048Q417.306 -9.20649 418.092 -9.61266Q418.878 -10.0188 419.9 -10.0188Q421.708 -10.0188 422.87 -8.58195Q424.031 -7.14507 424.031 -4.88276Q424.031 -2.62044 422.87 -1.18357Q421.708 0.253309 419.9 0.253309Q418.878 0.253309 418.092 -0.152859Q417.306 -0.559028 416.659 -1.41504L416.659 0L413.532 0L413.532 -13.5914L416.659 -13.5914L416.659 -8.35048ZM426.233 -3.80838L426.233 -9.78299L429.377 -9.78299L429.377 -8.80469Q429.377 -8.00982 429.368 -6.80878Q429.36 -5.60775 429.36 -5.20595Q429.36 -4.02675 429.421 -3.50703Q429.482 -2.9873 429.63 -2.75146Q429.823 -2.44575 430.133 -2.27979Q430.443 -2.11382 430.845 -2.11382Q431.823 -2.11382 432.382 -2.86502Q432.941 -3.61621 432.941 -4.95264L432.941 -9.78299L436.068 -9.78299L436.068 0L432.941 0L432.941 -1.41504Q432.233 -0.559028 431.443 -0.152859Q430.652 0.253309 429.7 0.253309Q428.006 0.253309 427.119 -0.786133Q426.233 -1.82558 426.233 -3.80838ZM442.488 -12.5607L442.488 -9.78299L445.711 -9.78299L445.711 -7.54688L442.488 -7.54688L442.488 -3.39784Q442.488 -2.71653 442.759 -2.47632Q443.03 -2.23611 443.833 -2.23611L445.44 -2.23611L445.44 0L442.759 0Q440.907 0 440.134 -0.773031Q439.361 -1.54606 439.361 -3.39784L439.361 -7.54688L437.806 -7.54688L437.806 -9.78299L439.361 -9.78299L439.361 -12.5607L442.488 -12.5607ZM447.624 -9.78299L450.751 -9.78299L450.751 0L447.624 0L447.624 -9.78299ZM447.624 -13.5914L450.751 -13.5914L450.751 -11.0408L447.624 -11.0408L447.624 -13.5914ZM458.412 -7.78271Q457.372 -7.78271 456.826 -7.03589Q456.28 -6.28906 456.28 -4.88276Q456.28 -3.47645 456.826 -2.72963Q457.372 -1.9828 458.412 -1.9828Q459.434 -1.9828 459.975 -2.72963Q460.517 -3.47645 460.517 -4.88276Q460.517 -6.28906 459.975 -7.03589Q459.434 -7.78271 458.412 -7.78271ZM458.412 -10.0188Q460.936 -10.0188 462.355 -8.6562Q463.775 -7.29357 463.775 -4.88276Q463.775 -2.47195 462.355 -1.10932Q460.936 0.253309 458.412 0.253309Q455.878 0.253309 454.45 -1.10932Q453.022 -2.47195 453.022 -4.88276Q453.022 -7.29357 454.45 -8.6562Q455.878 -10.0188 458.412 -10.0188ZM475.881 -5.95714L475.881 0L472.737 0L472.737 -0.969564L472.737 -4.55957Q472.737 -5.82612 472.68 -6.30653Q472.623 -6.78695 472.483 -7.01405Q472.3 -7.31977 471.985 -7.4901Q471.671 -7.66043 471.269 -7.66043Q470.291 -7.66043 469.732 -6.90487Q469.173 -6.14931 469.173 -4.81288L469.173 0L466.046 0L466.046 -9.78299L469.173 -9.78299L469.173 -8.35048Q469.88 -9.20649 470.675 -9.61266Q471.47 -10.0188 472.431 -10.0188Q474.126 -10.0188 475.003 -8.97938Q475.881 -7.93994 475.881 -5.95714ZM486.424 -9.47727L486.424 -7.1014Q485.42 -7.52067 484.485 -7.73031Q483.55 -7.93994 482.721 -7.93994Q481.83 -7.93994 481.397 -7.7172Q480.965 -7.49447 480.965 -7.03152Q480.965 -6.65592 481.292 -6.45502Q481.62 -6.25412 482.467 -6.15804L483.018 -6.07943Q485.42 -5.77371 486.249 -5.07492Q487.079 -4.37614 487.079 -2.88249Q487.079 -1.31896 485.926 -0.532823Q484.773 0.253309 482.485 0.253309Q481.515 0.253309 480.48 0.10045Q479.445 -0.0524089 478.353 -0.358127L478.353 -2.734Q479.288 -2.27978 480.27 -2.05268Q481.253 -1.82557 482.266 -1.82558Q483.184 -1.82558 483.646 -2.07888Q484.109 -2.33219 484.109 -2.83008Q484.109 -3.24935 483.791 -3.45462Q483.472 -3.65989 482.52 -3.77344L481.969 -3.84332Q479.882 -4.10536 479.043 -4.81288Q478.205 -5.5204 478.205 -6.96164Q478.205 -8.51644 479.27 -9.26763Q480.336 -10.0188 482.537 -10.0188Q483.402 -10.0188 484.354 -9.8878Q485.306 -9.75678 486.424 -9.47727Z" fill="#262626" transform="translate(550,24.099999999999998) translate(-243.9632568359375,0)" />
<rect x="138" y="41.46666666666667" width="852" height="225.5333333333333" fill="#FFFFFF" />
<line x1="138" y1="266.6" x2="138" y2="271.8611111111111" stroke="#262626" stroke-width="1.1111111111111112" />
<path d="M4.41488 -9.22309Q3.35693 -9.22309 2.82457 -8.1821Q2.29221 -7.14111 2.29221 -5.05235Q2.29221 -2.97038 2.82457 -1.92939Q3.35693 -0.888401 4.41488 -0.888401Q5.4796 -0.888401 6.01196 -1.92939Q6.54433 -2.97038 6.54433 -5.05235Q6.54433 -7.14111 6.01196 -8.1821Q5.4796 -9.22309 4.41488 -9.22309ZM4.41488 -10.3082Q6.11708 -10.3082 7.01565 -8.962Q7.91422 -7.61583 7.91423 -5.05235Q7.91423 -2.49566 7.01565 -1.1495Q6.11708 0.196669 4.41488 0.196669Q2.71267 0.196669 1.8141 -1.1495Q0.915527 -2.49566 0.915527 -5.05235Q0.915527 -7.61583 1.8141 -8.962Q2.71267 -10.3082 4.41488 -10.3082Z" fill="#262626" transform="translate(138,290.6111111111111) translate(-4.418267250061035,0)" />
<line x1="259.7142857142857" y1="266.6" x2="259.7142857142857" y2="271.8611111111111" stroke="#262626" stroke-width="1.1111111111111112" />
<path d="M1.72255 -1.15289L3.9605 -1.15289L3.9605 -8.87722L1.52588 -8.38894L1.52588 -9.63677L3.94694 -10.1251L5.31684 -10.1251L5.31684 -1.15289L7.5548 -1.15289L7.5548 0L1.72255 0L1.72255 -1.15289Z" fill="#262626" transform="translate(259.7142857142857,290.6111111111111) translate(-4.418267250061035,0)" />
<line x1="381.42857142857144" y1="266.6" x2="381.42857142857144" y2="271.8611111111111" stroke="#262626" stroke-width="1.1111111111111112" />
<path d="M2.6652 -1.15289L7.44629 -1.15289L7.44629 0L1.01725 0L1.01725 -1.15289Q1.79715 -1.95991 3.14331 -3.31963Q4.48947 -4.67936 4.83534 -5.0727Q5.49316 -5.8119 5.75426 -6.32392Q6.01535 -6.83594 6.01535 -7.331Q6.01535 -8.13802 5.44908 -8.64665Q4.88281 -9.15527 3.97407 -9.15527Q3.32981 -9.15527 2.61434 -8.93148Q1.89887 -8.70768 1.08507 -8.25331L1.08507 -9.63677Q1.91243 -9.96908 2.63129 -10.1386Q3.35015 -10.3082 3.94694 -10.3082Q5.52029 -10.3082 6.45616 -9.52148Q7.39204 -8.73481 7.39204 -7.41916Q7.39204 -6.79525 7.15807 -6.23576Q6.9241 -5.67627 6.30697 -4.91672Q6.13742 -4.72005 5.22868 -3.78079Q4.31993 -2.84153 2.6652 -1.15289Z" fill="#262626" transform="translate(381.42857142857144,290.6111111111111) translate(-4.418267250061035,0)" />
<line x1="503.1428571428571" y1="266.6" x2="503.1428571428571" y2="271.8611111111111" stroke="#262626" stroke-width="1.1111111111111112" />
<path d="M5.63558 -5.45926Q6.61892 -5.24902 7.17163 -4.58442Q7.72434 -3.91981 7.72434 -2.94325Q7.72434 -1.4445 6.69352 -0.623915Q5.66271 0.196669 3.76383 0.196669Q3.12636 0.196669 2.45158 0.0712077Q1.7768 -0.0542535 1.05794 -0.305176L1.05794 -1.6276Q1.6276 -1.2953 2.30577 -1.12576Q2.98394 -0.956217 3.72314 -0.956217Q5.01166 -0.956217 5.68644 -1.46484Q6.36122 -1.97347 6.36122 -2.94325Q6.36122 -3.83843 5.73391 -4.34367Q5.10661 -4.8489 3.98763 -4.8489L2.80762 -4.8489L2.80762 -5.97466L4.04188 -5.97466Q5.05235 -5.97466 5.58811 -6.37817Q6.12386 -6.78168 6.12386 -7.54123Q6.12386 -8.32113 5.57115 -8.7382Q5.01845 -9.15527 3.98763 -9.15527Q3.42475 -9.15527 2.78049 -9.0332Q2.13623 -8.91113 1.36312 -8.65343L1.36312 -9.87413Q2.14301 -10.0911 2.82457 -10.1997Q3.50613 -10.3082 4.1097 -10.3082Q5.66949 -10.3082 6.57823 -9.59947Q7.48698 -8.89079 7.48698 -7.68365Q7.48698 -6.84272 7.00548 -6.26289Q6.52398 -5.68305 5.63558 -5.45926Z" fill="#262626" transform="translate(503.1428571428571,290.6111111111111) translate(-4.418267250061035,0)" />
<line x1="624.8571428571429" y1="266.6" x2="624.8571428571429" y2="271.8611111111111" stroke="#262626" stroke-width="1.1111111111111112" />
<path d="M5.24902 -8.93148L1.79036 -3.52648L5.24902 -3.52648L5.24902 -8.93148ZM4.88959 -10.1251L6.61214 -10.1251L6.61214 -3.52648L8.05664 -3.52648L8.05664 -2.38715L6.61214 -2.38715L6.61214 0L5.24902 0L5.24902 -2.38715L0.678168 -2.38715L0.678168 -3.70958L4.88959 -10.1251Z" fill="#262626" transform="translate(624.8571428571429,290.6111111111111) translate(-4.418267250061035,0)" />
<line x1="746.5714285714286" y1="266.6" x2="746.5714285714286" y2="271.8611111111111" stroke="#262626" stroke-width="1.1111111111111112" />
<path d="M1.49875 -10.1251L6.87663 -10.1251L6.87663 -8.97217L2.75336 -8.97217L2.75336 -6.49007Q3.05176 -6.5918 3.35015 -6.64266Q3.64855 -6.69352 3.94694 -6.69352Q5.64236 -6.69352 6.63249 -5.76443Q7.62261 -4.83534 7.62261 -3.24843Q7.62261 -1.61404 6.60536 -0.708686Q5.58811 0.196669 3.73671 0.196669Q3.09923 0.196669 2.43802 0.0881619C1.99721 0.0158239 1.5417 -0.092683 1.07151 -0.237359L1.07151 -1.61404Q1.68186 -1.28174 2.3329 -1.11898Q2.98394 -0.956217 3.70958 -0.956217Q4.88281 -0.956217 5.56776 -1.57335Q6.25271 -2.19048 6.25271 -3.24843Q6.25271 -4.30637 5.56776 -4.9235Q4.88281 -5.54064 3.70958 -5.54064Q3.16026 -5.54064 2.61434 -5.41857Q2.06841 -5.2965 1.49875 -5.03879L1.49875 -10.1251Z" fill="#262626" transform="translate(746.5714285714286,290.6111111111111) translate(-4.418267250061035,0)" />
<line x1="868.2857142857142" y1="266.6" x2="868.2857142857142" y2="271.8611111111111" stroke="#262626" stroke-width="1.1111111111111112" />
<path d="M4.58442 -5.60845Q3.66211 -5.60845 3.12297 -4.97776Q2.58382 -4.34706 2.58382 -3.24843Q2.58382 -2.15658 3.12297 -1.52249Q3.66211 -0.888401 4.58442 -0.888401Q5.50673 -0.888401 6.04587 -1.52249Q6.58502 -2.15658 6.58502 -3.24843Q6.58502 -4.34706 6.04587 -4.97776Q5.50673 -5.60845 4.58442 -5.60845ZM7.30387 -9.90126L7.30387 -8.65343Q6.78847 -8.89757 6.26289 -9.02642Q5.7373 -9.15527 5.2219 -9.15527Q3.86556 -9.15527 3.15009 -8.23975Q2.43462 -7.32422 2.3329 -5.47282Q2.73302 -6.06282 3.33659 -6.37817Q3.94016 -6.69352 4.6658 -6.69352Q6.19168 -6.69352 7.07669 -5.76782Q7.9617 -4.84212 7.9617 -3.24843Q7.9617 -1.68864 7.03939 -0.745985Q6.11708 0.196669 4.58442 0.196669Q2.82796 0.196669 1.89887 -1.1495Q0.969781 -2.49566 0.969781 -5.05235Q0.969781 -7.45307 2.1091 -8.88062Q3.24843 -10.3082 5.16764 -10.3082Q5.68305 -10.3082 6.20863 -10.2064Q6.73421 -10.1047 7.30387 -9.90126Z" fill="#262626" transform="translate(868.2857142857142,290.6111111111111) translate(-4.418267250061035,0)" />
<line x1="990" y1="266.6" x2="990" y2="271.8611111111111" stroke="#262626" stroke-width="1.1111111111111112" />
<path d="M1.13932 -10.1251L7.64974 -10.1251L7.64974 -9.54183L3.97407 0L2.54313 0L6.00179 -8.97217L1.13932 -8.97217L1.13932 -10.1251Z" fill="#262626" transform="translate(990,290.6111111111111) translate(-4.418267250061035,0)" />
<line x1="133.13888888888889" y1="267" x2="138.4" y2="267" stroke="#262626" stroke-width="1.1111111111111112" />
<path d="M4.41488 -9.22309Q3.35693 -9.22309 2.82457 -8.1821Q2.29221 -7.14111 2.29221 -5.05235Q2.29221 -2.97038 2.82457 -1.92939Q3.35693 -0.888401 4.41488 -0.888401Q5.4796 -0.888401 6.01196 -1.92939Q6.54433 -2.97038 6.54433 -5.05235Q6.54433 -7.14111 6.01196 -8.1821Q5.4796 -9.22309 4.41488 -9.22309ZM4.41488 -10.3082Q6.11708 -10.3082 7.01565 -8.962Q7.91422 -7.61583 7.91423 -5.05235Q7.91423 -2.49566 7.01565 -1.1495Q6.11708 0.196669 4.41488 0.196669Q2.71267 0.196669 1.8141 -1.1495Q0.915527 -2.49566 0.915527 -5.05235Q0.915527 -7.61583 1.8141 -8.962Q2.71267 -10.3082 4.41488 -10.3082Z" fill="#262626" transform="translate(128.27777777777777,271) translate(-8.83653450012207,0)" />
<line x1="133.13888888888889" y1="223.62820512820514" x2="138.4" y2="223.62820512820514" stroke="#262626" stroke-width="1.1111111111111112" />
<path d="M1.72255 -1.15289L3.9605 -1.15289L3.9605 -8.87722L1.52588 -8.38894L1.52588 -9.63677L3.94694 -10.1251L5.31684 -10.1251L5.31684 -1.15289L7.5548 -1.15289L7.5548 0L1.72255 0L1.72255 -1.15289ZM13.2514 -9.22309Q12.1935 -9.22309 11.6611 -8.1821Q11.1287 -7.14111 11.1287 -5.05235Q11.1287 -2.97038 11.6611 -1.92939Q12.1935 -0.888401 13.2514 -0.888401Q14.3161 -0.888401 14.8485 -1.92939Q15.3809 -2.97038 15.3809 -5.05235Q15.3809 -7.14111 14.8485 -8.1821Q14.3161 -9.22309 13.2514 -9.22309ZM13.2514 -10.3082Q14.9536 -10.3082 15.8522 -8.962Q16.7508 -7.61583 16.7508 -5.05235Q16.7508 -2.49566 15.8522 -1.1495Q14.9536 0.196669 13.2514 0.196669Q11.5492 0.196669 10.6506 -1.1495Q9.75206 -2.49566 9.75206 -5.05235Q9.75206 -7.61583 10.6506 -8.962Q11.5492 -10.3082 13.2514 -10.3082Z" fill="#262626" transform="translate(128.27777777777777,227.62820512820514) translate(-17.67306900024414,0)" />
<line x1="133.13888888888889" y1="180.25641025641028" x2="138.4" y2="180.25641025641028" stroke="#262626" stroke-width="1.1111111111111112" />
<path d="M2.6652 -1.15289L7.44629 -1.15289L7.44629 0L1.01725 0L1.01725 -1.15289Q1.79715 -1.95991 3.14331 -3.31963Q4.48947 -4.67936 4.83534 -5.0727Q5.49316 -5.8119 5.75426 -6.32392Q6.01535 -6.83594 6.01535 -7.331Q6.01535 -8.13802 5.44908 -8.64665Q4.88281 -9.15527 3.97407 -9.15527Q3.32981 -9.15527 2.61434 -8.93148Q1.89887 -8.70768 1.08507 -8.25331L1.08507 -9.63677Q1.91243 -9.96908 2.63129 -10.1386Q3.35015 -10.3082 3.94694 -10.3082Q5.52029 -10.3082 6.45616 -9.52148Q7.39204 -8.73481 7.39204 -7.41916Q7.39204 -6.79525 7.15807 -6.23576Q6.9241 -5.67627 6.30697 -4.91672Q6.13742 -4.72005 5.22868 -3.78079Q4.31993 -2.84153 2.6652 -1.15289ZM13.2514 -9.22309Q12.1935 -9.22309 11.6611 -8.1821Q11.1287 -7.14111 11.1287 -5.05235Q11.1287 -2.97038 11.6611 -1.92939Q12.1935 -0.888401 13.2514 -0.888401Q14.3161 -0.888401 14.8485 -1.92939Q15.3809 -2.97038 15.3809 -5.05235Q15.3809 -7.14111 14.8485 -8.1821Q14.3161 -9.22309 13.2514 -9.22309ZM13.2514 -10.3082Q14.9536 -10.3082 15.8522 -8.962Q16.7508 -7.61583 16.7508 -5.05235Q16.7508 -2.49566 15.8522 -1.1495Q14.9536 0.196669 13.2514 0.196669Q11.5492 0.196669 10.6506 -1.1495Q9.75206 -2.49566 9.75206 -5.05235Q9.75206 -7.61583 10.6506 -8.962Q11.5492 -10.3082 13.2514 -10.3082Z" fill="#262626" transform="translate(128.27777777777777,184.25641025641028) translate(-17.67306900024414,0)" />
<line x1="133.13888888888889" y1="136.8846153846154" x2="138.4" y2="136.8846153846154" stroke="#262626" stroke-width="1.1111111111111112" />
<path d="M5.63558 -5.45926Q6.61892 -5.24902 7.17163 -4.58442Q7.72434 -3.91981 7.72434 -2.94325Q7.72434 -1.4445 6.69352 -0.623915Q5.66271 0.196669 3.76383 0.196669Q3.12636 0.196669 2.45158 0.0712077Q1.7768 -0.0542535 1.05794 -0.305176L1.05794 -1.6276Q1.6276 -1.2953 2.30577 -1.12576Q2.98394 -0.956217 3.72314 -0.956217Q5.01166 -0.956217 5.68644 -1.46484Q6.36122 -1.97347 6.36122 -2.94325Q6.36122 -3.83843 5.73391 -4.34367Q5.10661 -4.8489 3.98763 -4.8489L2.80762 -4.8489L2.80762 -5.97466L4.04188 -5.97466Q5.05235 -5.97466 5.58811 -6.37817Q6.12386 -6.78168 6.12386 -7.54123Q6.12386 -8.32113 5.57115 -8.7382Q5.01845 -9.15527 3.98763 -9.15527Q3.42475 -9.15527 2.78049 -9.0332Q2.13623 -8.91113 1.36312 -8.65343L1.36312 -9.87413Q2.14301 -10.0911 2.82457 -10.1997Q3.50613 -10.3082 4.1097 -10.3082Q5.66949 -10.3082 6.57823 -9.59947Q7.48698 -8.89079 7.48698 -7.68365Q7.48698 -6.84272 7.00548 -6.26289Q6.52398 -5.68305 5.63558 -5.45926ZM13.2514 -9.22309Q12.1935 -9.22309 11.6611 -8.1821Q11.1287 -7.14111 11.1287 -5.05235Q11.1287 -2.97038 11.6611 -1.92939Q12.1935 -0.888401 13.2514 -0.888401Q14.3161 -0.888401 14.8485 -1.92939Q15.3809 -2.97038 15.3809 -5.05235Q15.3809 -7.14111 14.8485 -8.1821Q14.3161 -9.22309 13.2514 -9.22309ZM13.2514 -10.3082Q14.9536 -10.3082 15.8522 -8.962Q16.7508 -7.61583 16.7508 -5.05235Q16.7508 -2.49566 15.8522 -1.1495Q14.9536 0.196669 13.2514 0.196669Q11.5492 0.196669 10.6506 -1.1495Q9.75206 -2.49566 9.75206 -5.05235Q9.75206 -7.61583 10.6506 -8.962Q11.5492 -10.3082 13.2514 -10.3082Z" fill="#262626" transform="translate(128.27777777777777,140.8846153846154) translate(-17.67306900024414,0)" />
<line x1="133.13888888888889" y1="93.51282051282053" x2="138.4" y2="93.51282051282053" stroke="#262626" stroke-width="1.1111111111111112" />
<path d="M5.24902 -8.93148L1.79036 -3.52648L5.24902 -3.52648L5.24902 -8.93148ZM4.88959 -10.1251L6.61214 -10.1251L6.61214 -3.52648L8.05664 -3.52648L8.05664 -2.38715L6.61214 -2.38715L6.61214 0L5.24902 0L5.24902 -2.38715L0.678168 -2.38715L0.678168 -3.70958L4.88959 -10.1251ZM13.2514 -9.22309Q12.1935 -9.22309 11.6611 -8.1821Q11.1287 -7.14111 11.1287 -5.05235Q11.1287 -2.97038 11.6611 -1.92939Q12.1935 -0.888401 13.2514 -0.888401Q14.3161 -0.888401 14.8485 -1.92939Q15.3809 -2.97038 15.3809 -5.05235Q15.3809 -7.14111 14.8485 -8.1821Q14.3161 -9.22309 13.2514 -9.22309ZM13.2514 -10.3082Q14.9536 -10.3082 15.8522 -8.962Q16.7508 -7.61583 16.7508 -5.05235Q16.7508 -2.49566 15.8522 -1.1495Q14.9536 0.196669 13.2514 0.196669Q11.5492 0.196669 10.6506 -1.1495Q9.75206 -2.49566 9.75206 -5.05235Q9.75206 -7.61583 10.6506 -8.962Q11.5492 -10.3082 13.2514 -10.3082Z" fill="#262626" transform="translate(128.27777777777777,97.51282051282053) translate(-17.67306900024414,0)" />
<line x1="133.13888888888889" y1="50.141025641025664" x2="138.4" y2="50.141025641025664" stroke="#262626" stroke-width="1.1111111111111112" />
<path d="M1.49875 -10.1251L6.87663 -10.1251L6.87663 -8.97217L2.75336 -8.97217L2.75336 -6.49007Q3.05176 -6.5918 3.35015 -6.64266Q3.64855 -6.69352 3.94694 -6.69352Q5.64236 -6.69352 6.63249 -5.76443Q7.62261 -4.83534 7.62261 -3.24843Q7.62261 -1.61404 6.60536 -0.708686Q5.58811 0.196669 3.73671 0.196669Q3.09923 0.196669 2.43802 0.0881619C1.99721 0.0158239 1.5417 -0.092683 1.07151 -0.237359L1.07151 -1.61404Q1.68186 -1.28174 2.3329 -1.11898Q2.98394 -0.956217 3.70958 -0.956217Q4.88281 -0.956217 5.56776 -1.57335Q6.25271 -2.19048 6.25271 -3.24843Q6.25271 -4.30637 5.56776 -4.9235Q4.88281 -5.54064 3.70958 -5.54064Q3.16026 -5.54064 2.61434 -5.41857Q2.06841 -5.2965 1.49875 -5.03879L1.49875 -10.1251ZM13.2514 -9.22309Q12.1935 -9.22309 11.6611 -8.1821Q11.1287 -7.14111 11.1287 -5.05235Q11.1287 -2.97038 11.6611 -1.92939Q12.1935 -0.888401 13.2514 -0.888401Q14.3161 -0.888401 14.8485 -1.92939Q15.3809 -2.97038 15.3809 -5.05235Q15.3809 -7.14111 14.8485 -8.1821Q14.3161 -9.22309 13.2514 -9.22309ZM13.2514 -10.3082Q14.9536 -10.3082 15.8522 -8.962Q16.7508 -7.61583 16.7508 -5.05235Q16.7508 -2.49566 15.8522 -1.1495Q14.9536 0.196669 13.2514 0.196669Q11.5492 0.196669 10.6506 -1.1495Q9.75206 -2.49566 9.75206 -5.05235Q9.75206 -7.61583 10.6506 -8.962Q11.5492 -10.3082 13.2514 -10.3082Z" fill="#262626" transform="translate(128.27777777777777,54.141025641025664) translate(-17.67306900024414,0)" />
<g class="series" aria-label="Commits">
<rect x="138" y="41.46666666666667" width="121.71428571428571" height="4.337179487179487" fill="#32658E" />
<rect x="259.7142857142857" y="41.46666666666667" width="121.71428571428571" height="4.337179487179487" fill="#2D718E" />
<rect x="381.42857142857144" y="41.46666666666667" width="121.71428571428571" height="4.337179487179487" fill="#38598C" />
<rect x="503.1428571428571" y="41.46666666666667" width="121.71428571428571" height="4.337179487179487" fill="#482575" />
<rect x="624.8571428571429" y="41.46666666666667" width="121.71428571428571" height="4.337179487179487" fill="#56C067" />
<rect x="746.5714285714286" y="41.46666666666667" width="121.71428571428571" height="4.337179487179487" fill="#45337E" />
<rect x="868.2857142857142" y="41.46666666666667" width="121.71428571428571" height="4.337179487179487" fill="#440457" />
<rect x="138" y="45.80384615384615" width="121.71428571428571" height="4.337179487179487" fill="#35AB7C" />
<rect x="259.7142857142857" y="45.80384615384615" width="121.71428571428571" height="4.337179487179487" fill="#21968B" />
<rect x="381.42857142857144" y="45.80384615384615" width="121.71428571428571" height="4.337179487179487" fill="#22938C" />
<rect x="503.1428571428571" y="45.80384615384615" width="121.71428571428571" height="4.337179487179487" fill="#21968B" />
<rect x="624.8571428571429" y="45.80384615384615" width="121.71428571428571" height="4.337179487179487" fill="#472A78" />
<rect x="746.5714285714286" y="45.80384615384615" width="121.71428571428571" height="4.337179487179487" fill="#440154" />
<rect x="868.2857142857142" y="45.80384615384615" width="121.71428571428571" height="4.337179487179487" fill="#471E6F" />
<rect x="138" y="50.14102564102564" width="121.71428571428571" height="4.337179487179487" fill="#2D718E" />
<rect x="259.7142857142857" y="50.14102564102564" width="121.71428571428571" height="4.337179487179487" fill="#23908D" />
<rect x="381.42857142857144" y="50.14102564102564" width="121.71428571428571" height="4.337179487179487" fill="#450A5D" />
<rect x="503.1428571428571" y="50.14102564102564" width="121.71428571428571" height="4.337179487179487" fill="#440154" />
<rect x="624.8571428571429" y="50.14102564102564" width="121.71428571428571" height="4.337179487179487" fill="#22938C" />
<rect x="746.5714285714286" y="50.14102564102564" width="121.71428571428571" height="4.337179487179487" fill="#433B82" />
<rect x="868.2857142857142" y="50.14102564102564" width="121.71428571428571" height="4.337179487179487" fill="#423E84" />
<rect x="138" y="54.47820512820513" width="121.71428571428571" height="4.337179487179487" fill="#45095B" />
<rect x="259.7142857142857" y="54.47820512820513" width="121.71428571428571" height="4.337179487179487" fill="#238F8D" />
<rect x="381.42857142857144" y="54.47820512820513" width="121.71428571428571" height="4.337179487179487" fill="#22938C" />
<rect x="503.1428571428571" y="54.47820512820513" width="121.71428571428571" height="4.337179487179487" fill="#21948C" />
<rect x="624.8571428571429" y="54.47820512820513" width="121.71428571428571" height="4.337179487179487" fill="#3E4C8A" />
<rect x="746.5714285714286" y="54.47820512820513" width="121.71428571428571" height="4.337179487179487" fill="#414487" />
<rect x="868.2857142857142" y="54.47820512820513" width="121.71428571428571" height="4.337179487179487" fill="#433981" />
<rect x="138" y="58.815384615384616" width="121.71428571428571" height="4.337179487179487" fill="#27818F" />
<rect x="259.7142857142857" y="58.815384615384616" width="121.71428571428571" height="4.337179487179487" fill="#26838F" />
<rect x="381.42857142857144" y="58.815384615384616" width="121.71428571428571" height="4.337179487179487" fill="#287F8F" />
<rect x="503.1428571428571" y="58.815384615384616" width="121.71428571428571" height="4.337179487179487" fill="#38588C" />
<rect x="624.8571428571429" y="58.815384615384616" width="121.71428571428571" height="4.337179487179487" fill="#450659" />
<rect x="746.5714285714286" y="58.815384615384616" width="121.71428571428571" height="4.337179487179487" fill="#472A78" />
<rect x="868.2857142857142" y="58.815384615384616" width="121.71428571428571" height="4.337179487179487" fill="#471B6C" />
<rect x="138" y="63.1525641025641" width="121.71428571428571" height="4.337179487179487" fill="#27818F" />
<rect x="259.7142857142857" y="63.1525641025641" width="121.71428571428571" height="4.337179487179487" fill="#56C067" />
<rect x="381.42857142857144" y="63.1525641025641" width="121.71428571428571" height="4.337179487179487" fill="#461264" />
<rect x="503.1428571428571" y="63.1525641025641" width="121.71428571428571" height="4.337179487179487" fill="#3B538B" />
<rect x="624.8571428571429" y="63.1525641025641" width="121.71428571428571" height="4.337179487179487" fill="#43B473" />
<rect x="746.5714285714286" y="63.1525641025641" width="121.71428571428571" height="4.337179487179487" fill="#461465" />
<rect x="868.2857142857142" y="63.1525641025641" width="121.71428571428571" height="4.337179487179487" fill="#450A5C" />
<rect x="138" y="67.4897435897436" width="121.71428571428571" height="4.337179487179487" fill="#277F8F" />
<rect x="259.7142857142857" y="67.4897435897436" width="121.71428571428571" height="4.337179487179487" fill="#2D728E" />
<rect x="381.42857142857144" y="67.4897435897436" width="121.71428571428571" height="4.337179487179487" fill="#2D718E" />
<rect x="503.1428571428571" y="67.4897435897436" width="121.71428571428571" height="4.337179487179487" fill="#355F8D" />
<rect x="624.8571428571429" y="67.4897435897436" width="121.71428571428571" height="4.337179487179487" fill="#35608D" />
<rect x="746.5714285714286" y="67.4897435897436" width="121.71428571428571" height="4.337179487179487" fill="#472B79" />
<rect x="868.2857142857142" y="67.4897435897436" width="121.71428571428571" height="4.337179487179487" fill="#45317C" />
<rect x="138" y="71.82692307692308" width="121.71428571428571" height="4.337179487179487" fill="#7BD150" />
<rect x="259.7142857142857" y="71.82692307692308" width="121.71428571428571" height="4.337179487179487" fill="#482877" />
<rect x="381.42857142857144" y="71.82692307692308" width="121.71428571428571" height="4.337179487179487" fill="#33638D" />
<rect x="503.1428571428571" y="71.82692307692308" width="121.71428571428571" height="4.337179487179487" fill="#27808F" />
<rect x="624.8571428571429" y="71.82692307692308" width="121.71428571428571" height="4.337179487179487" fill="#462D7A" />
<rect x="746.5714285714286" y="71.82692307692308" width="121.71428571428571" height="4.337179487179487" fill="#443780" />
<rect x="868.2857142857142" y="71.82692307692308" width="121.71428571428571" height="4.337179487179487" fill="#482676" />
<rect x="138" y="76.16410256410256" width="121.71428571428571" height="4.337179487179487" fill="#414285" />
<rect x="259.7142857142857" y="76.16410256410256" width="121.71428571428571" height="4.337179487179487" fill="#450A5C" />
<rect x="381.42857142857144" y="76.16410256410256" width="121.71428571428571" height="4.337179487179487" fill="#20988B" />
<rect x="503.1428571428571" y="76.16410256410256" width="121.71428571428571" height="4.337179487179487" fill="#2A7A8F" />
<rect x="624.8571428571429" y="76.16410256410256" width="121.71428571428571" height="4.337179487179487" fill="#27818F" />
<rect x="746.5714285714286" y="76.16410256410256" width="121.71428571428571" height="4.337179487179487" fill="#414386" />
<rect x="868.2857142857142" y="76.16410256410256" width="121.71428571428571" height="4.337179487179487" fill="#423D83" />
<rect x="138" y="80.50128205128205" width="121.71428571428571" height="4.337179487179487" fill="#433981" />
<rect x="259.7142857142857" y="80.50128205128205" width="121.71428571428571" height="4.337179487179487" fill="#238F8D" />
<rect x="381.42857142857144" y="80.50128205128205" width="121.71428571428571" height="4.337179487179487" fill="#5AC265" />
<rect x="503.1428571428571" y="80.50128205128205" width="121.71428571428571" height="4.337179487179487" fill="#482877" />
<rect x="624.8571428571429" y="80.50128205128205" width="121.71428571428571" height="4.337179487179487" fill="#365E8D" />
<rect x="746.5714285714286" y="80.50128205128205" width="121.71428571428571" height="4.337179487179487" fill="#472C7A" />
<rect x="868.2857142857142" y="80.50128205128205" width="121.71428571428571" height="4.337179487179487" fill="#3D4F8B" />
<rect x="138" y="84.83846153846153" width="121.71428571428571" height="4.337179487179487" fill="#62C85F" />
<rect x="259.7142857142857" y="84.83846153846153" width="121.71428571428571" height="4.337179487179487" fill="#3A548B" />
<rect x="381.42857142857144" y="84.83846153846153" width="121.71428571428571" height="4.337179487179487" fill="#81D34C" />
<rect x="503.1428571428571" y="84.83846153846153" width="121.71428571428571" height="4.337179487179487" fill="#3E4D8A" />
<rect x="624.8571428571429" y="84.83846153846153" width="121.71428571428571" height="4.337179487179487" fill="#3F4B8A" />
<rect x="746.5714285714286" y="84.83846153846153" width="121.71428571428571" height="4.337179487179487" fill="#440154" />
<rect x="868.2857142857142" y="84.83846153846153" width="121.71428571428571" height="4.337179487179487" fill="#44357F" />
<rect x="138" y="89.17564102564103" width="121.71428571428571" height="4.337179487179487" fill="#61C760" />
<rect x="259.7142857142857" y="89.17564102564103" width="121.71428571428571" height="4.337179487179487" fill="#36AC7B" />
<rect x="381.42857142857144" y="89.17564102564103" width="121.71428571428571" height="4.337179487179487" fill="#25868E" />
<rect x="503.1428571428571" y="89.17564102564103" width="121.71428571428571" height="4.337179487179487" fill="#33638D" />
<rect x="624.8571428571429" y="89.17564102564103" width="121.71428571428571" height="4.337179487179487" fill="#471B6C" />
<rect x="746.5714285714286" y="89.17564102564103" width="121.71428571428571" height="4.337179487179487" fill="#3F4B8A" />
<rect x="868.2857142857142" y="89.17564102564103" width="121.71428571428571" height="4.337179487179487" fill="#423F84" />
<rect x="138" y="93.51282051282051" width="121.71428571428571" height="4.337179487179487" fill="#5AC265" />
<rect x="259.7142857142857" y="93.51282051282051" width="121.71428571428571" height="4.337179487179487" fill="#297B8F" />
<rect x="381.42857142857144" y="93.51282051282051" width="121.71428571428571" height="4.337179487179487" fill="#306A8E" />
<rect x="503.1428571428571" y="93.51282051282051" width="121.71428571428571" height="4.337179487179487" fill="#30698E" />
<rect x="624.8571428571429" y="93.51282051282051" width="121.71428571428571" height="4.337179487179487" fill="#404688" />
<rect x="746.5714285714286" y="93.51282051282051" width="121.71428571428571" height="4.337179487179487" fill="#3F4B8A" />
<rect x="868.2857142857142" y="93.51282051282051" width="121.71428571428571" height="4.337179487179487" fill="#3F4A8A" />
<rect x="138" y="97.85" width="121.71428571428571" height="4.337179487179487" fill="#2B778F" />
<rect x="259.7142857142857" y="97.85" width="121.71428571428571" height="4.337179487179487" fill="#375A8C" />
<rect x="381.42857142857144" y="97.85" width="121.71428571428571" height="4.337179487179487" fill="#471B6C" />
<rect x="503.1428571428571" y="97.85" width="121.71428571428571" height="4.337179487179487" fill="#248A8E" />
<rect x="624.8571428571429" y="97.85" width="121.71428571428571" height="4.337179487179487" fill="#471C6D" />
<rect x="746.5714285714286" y="97.85" width="121.71428571428571" height="4.337179487179487" fill="#472171" />
<rect x="868.2857142857142" y="97.85" width="121.71428571428571" height="4.337179487179487" fill="#482878" />
<rect x="138" y="102.18717948717949" width="121.71428571428571" height="4.337179487179487" fill="#68CB5C" />
<rect x="259.7142857142857" y="102.18717948717949" width="121.71428571428571" height="4.337179487179487" fill="#26828F" />
<rect x="381.42857142857144" y="102.18717948717949" width="121.71428571428571" height="4.337179487179487" fill="#38588C" />
<rect x="503.1428571428571" y="102.18717948717949" width="121.71428571428571" height="4.337179487179487" fill="#433C82" />
<rect x="624.8571428571429" y="102.18717948717949" width="121.71428571428571" height="4.337179487179487" fill="#365D8D" />
<rect x="746.5714285714286" y="102.18717948717949" width="121.71428571428571" height="4.337179487179487" fill="#414386" />
<rect x="868.2857142857142" y="102.18717948717949" width="121.71428571428571" height="4.337179487179487" fill="#47196A" />
<rect x="138" y="106.52435897435898" width="121.71428571428571" height="4.337179487179487" fill="#404688" />
<rect x="259.7142857142857" y="106.52435897435898" width="121.71428571428571" height="4.337179487179487" fill="#ACDC31" />
<rect x="381.42857142857144" y="106.52435897435898" width="121.71428571428571" height="4.337179487179487" fill="#482474" />
<rect x="503.1428571428571" y="106.52435897435898" width="121.71428571428571" height="4.337179487179487" fill="#461768" />
<rect x="624.8571428571429" y="106.52435897435898" width="121.71428571428571" height="4.337179487179487" fill="#39568C" />
<rect x="746.5714285714286" y="106.52435897435898" width="121.71428571428571" height="4.337179487179487" fill="#45327D" />
<rect x="868.2857142857142" y="106.52435897435898" width="121.71428571428571" height="4.337179487179487" fill="#461768" />
<rect x="138" y="110.86153846153846" width="121.71428571428571" height="4.337179487179487" fill="#461768" />
<rect x="259.7142857142857" y="110.86153846153846" width="121.71428571428571" height="4.337179487179487" fill="#461364" />
<rect x="381.42857142857144" y="110.86153846153846" width="121.71428571428571" height="4.337179487179487" fill="#482877" />
<rect x="503.1428571428571" y="110.86153846153846" width="121.71428571428571" height="4.337179487179487" fill="#79D151" />
<rect x="624.8571428571429" y="110.86153846153846" width="121.71428571428571" height="4.337179487179487" fill="#38598C" />
<rect x="746.5714285714286" y="110.86153846153846" width="121.71428571428571" height="4.337179487179487" fill="#461567" />
<rect x="868.2857142857142" y="110.86153846153846" width="121.71428571428571" height="4.337179487179487" fill="#44357F" />
<rect x="138" y="115.19871794871794" width="121.71428571428571" height="4.337179487179487" fill="#25878E" />
<rect x="259.7142857142857" y="115.19871794871794" width="121.71428571428571" height="4.337179487179487" fill="#423D83" />
<rect x="381.42857142857144" y="115.19871794871794" width="121.71428571428571" height="4.337179487179487" fill="#6FCF57" />
<rect x="503.1428571428571" y="115.19871794871794" width="121.71428571428571" height="4.337179487179487" fill="#355F8D" />
<rect x="624.8571428571429" y="115.19871794871794" width="121.71428571428571" height="4.337179487179487" fill="#414285" />
<rect x="746.5714285714286" y="115.19871794871794" width="121.71428571428571" height="4.337179487179487" fill="#440255" />
<rect x="868.2857142857142" y="115.19871794871794" width="121.71428571428571" height="4.337179487179487" fill="#472C7A" />
<rect x="138" y="119.53589743589743" width="121.71428571428571" height="4.337179487179487" fill="#38AD7A" />
<rect x="259.7142857142857" y="119.53589743589743" width="121.71428571428571" height="4.337179487179487" fill="#472071" />
<rect x="381.42857142857144" y="119.53589743589743" width="121.71428571428571" height="4.337179487179487" fill="#472978" />
<rect x="503.1428571428571" y="119.53589743589743" width="121.71428571428571" height="4.337179487179487" fill="#44367F" />
<rect x="624.8571428571429" y="119.53589743589743" width="121.71428571428571" height="4.337179487179487" fill="#355F8D" />
<rect x="746.5714285714286" y="119.53589743589743" width="121.71428571428571" height="4.337179487179487" fill="#46307C" />
<rect x="868.2857142857142" y="119.53589743589743" width="121.71428571428571" height="4.337179487179487" fill="#450C5E" />
<rect x="138" y="123.87307692307692" width="121.71428571428571" height="4.337179487179487" fill="#32A97E" />
<rect x="259.7142857142857" y="123.87307692307692" width="121.71428571428571" height="4.337179487179487" fill="#209A8B" />
<rect x="381.42857142857144" y="123.87307692307692" width="121.71428571428571" height="4.337179487179487" fill="#7CD14F" />
<rect x="503.1428571428571" y="123.87307692307692" width="121.71428571428571" height="4.337179487179487" fill="#209A8B" />
<rect x="624.8571428571429" y="123.87307692307692" width="121.71428571428571" height="4.337179487179487" fill="#25888E" />
<rect x="746.5714285714286" y="123.87307692307692" width="121.71428571428571" height="4.337179487179487" fill="#423F84" />
<rect x="868.2857142857142" y="123.87307692307692" width="121.71428571428571" height="4.337179487179487" fill="#38598C" />
<rect x="138" y="128.21025641025642" width="121.71428571428571" height="4.337179487179487" fill="#39568C" />
<rect x="259.7142857142857" y="128.21025641025642" width="121.71428571428571" height="4.337179487179487" fill="#433981" />
<rect x="381.42857142857144" y="128.21025641025642" width="121.71428571428571" height="4.337179487179487" fill="#42B374" />
<rect x="503.1428571428571" y="128.21025641025642" width="121.71428571428571" height="4.337179487179487" fill="#25858F" />
<rect x="624.8571428571429" y="128.21025641025642" width="121.71428571428571" height="4.337179487179487" fill="#2BA582" />
<rect x="746.5714285714286" y="128.21025641025642" width="121.71428571428571" height="4.337179487179487" fill="#3C518B" />
<rect x="868.2857142857142" y="128.21025641025642" width="121.71428571428571" height="4.337179487179487" fill="#44367F" />
<rect x="138" y="132.5474358974359" width="121.71428571428571" height="4.337179487179487" fill="#248A8E" />
<rect x="259.7142857142857" y="132.5474358974359" width="121.71428571428571" height="4.337179487179487" fill="#90D643" />
<rect x="381.42857142857144" y="132.5474358974359" width="121.71428571428571" height="4.337179487179487" fill="#3E4D8A" />
<rect x="503.1428571428571" y="132.5474358974359" width="121.71428571428571" height="4.337179487179487" fill="#433A81" />
<rect x="624.8571428571429" y="132.5474358974359" width="121.71428571428571" height="4.337179487179487" fill="#482877" />
<rect x="746.5714285714286" y="132.5474358974359" width="121.71428571428571" height="4.337179487179487" fill="#462E7B" />
<rect x="868.2857142857142" y="132.5474358974359" width="121.71428571428571" height="4.337179487179487" fill="#404688" />
<rect x="138" y="136.8846153846154" width="121.71428571428571" height="4.337179487179487" fill="#414185" />
<rect x="259.7142857142857" y="136.8846153846154" width="121.71428571428571" height="4.337179487179487" fill="#89D447" />
<rect x="381.42857142857144" y="136.8846153846154" width="121.71428571428571" height="4.337179487179487" fill="#38598C" />
<rect x="503.1428571428571" y="136.8846153846154" width="121.71428571428571" height="4.337179487179487" fill="#27828F" />
<rect x="624.8571428571429" y="136.8846153846154" width="121.71428571428571" height="4.337179487179487" fill="#414286" />
<rect x="746.5714285714286" y="136.8846153846154" width="121.71428571428571" height="4.337179487179487" fill="#3D4F8B" />
<rect x="868.2857142857142" y="136.8846153846154" width="121.71428571428571" height="4.337179487179487" fill="#44367F" />
<rect x="138" y="141.22179487179488" width="121.71428571428571" height="4.337179487179487" fill="#3E4C8A" />
<rect x="259.7142857142857" y="141.22179487179488" width="121.71428571428571" height="4.337179487179487" fill="#47196A" />
<rect x="381.42857142857144" y="141.22179487179488" width="121.71428571428571" height="4.337179487179487" fill="#3C508B" />
<rect x="503.1428571428571" y="141.22179487179488" width="121.71428571428571" height="4.337179487179487" fill="#A6DB35" />
<rect x="624.8571428571429" y="141.22179487179488" width="121.71428571428571" height="4.337179487179487" fill="#238F8D" />
<rect x="746.5714285714286" y="141.22179487179488" width="121.71428571428571" height="4.337179487179487" fill="#423F84" />
<rect x="868.2857142857142" y="141.22179487179488" width="121.71428571428571" height="4.337179487179487" fill="#433981" />
<rect x="138" y="145.55897435897435" width="121.71428571428571" height="4.337179487179487" fill="#433A81" />
<rect x="259.7142857142857" y="145.55897435897435" width="121.71428571428571" height="4.337179487179487" fill="#80D24C" />
<rect x="381.42857142857144" y="145.55897435897435" width="121.71428571428571" height="4.337179487179487" fill="#2A798F" />
<rect x="503.1428571428571" y="145.55897435897435" width="121.71428571428571" height="4.337179487179487" fill="#32658E" />
<rect x="624.8571428571429" y="145.55897435897435" width="121.71428571428571" height="4.337179487179487" fill="#3B538B" />
<rect x="746.5714285714286" y="145.55897435897435" width="121.71428571428571" height="4.337179487179487" fill="#472071" />
<rect x="868.2857142857142" y="145.55897435897435" width="121.71428571428571" height="4.337179487179487" fill="#3B528B" />
<rect x="138" y="149.89615384615382" width="121.71428571428571" height="4.337179487179487" fill="#21958C" />
<rect x="259.7142857142857" y="149.89615384615382" width="121.71428571428571" height="4.337179487179487" fill="#95D73F" />
<rect x="381.42857142857144" y="149.89615384615382" width="121.71428571428571" height="4.337179487179487" fill="#99D83D" />
<rect x="503.1428571428571" y="149.89615384615382" width="121.71428571428571" height="4.337179487179487" fill="#A4DA36" />
<rect x="624.8571428571429" y="149.89615384615382" width="121.71428571428571" height="4.337179487179487" fill="#3E4D8A" />
<rect x="746.5714285714286" y="149.89615384615382" width="121.71428571428571" height="4.337179487179487" fill="#423F84" />
<rect x="868.2857142857142" y="149.89615384615382" width="121.71428571428571" height="4.337179487179487" fill="#45337E" />
<rect x="138" y="154.23333333333332" width="121.71428571428571" height="4.337179487179487" fill="#45337D" />
<rect x="259.7142857142857" y="154.23333333333332" width="121.71428571428571" height="4.337179487179487" fill="#287E8F" />
<rect x="381.42857142857144" y="154.23333333333332" width="121.71428571428571" height="4.337179487179487" fill="#2F6B8E" />
<rect x="503.1428571428571" y="154.23333333333332" width="121.71428571428571" height="4.337179487179487" fill="#40B275" />
<rect x="624.8571428571429" y="154.23333333333332" width="121.71428571428571" height="4.337179487179487" fill="#2E6F8E" />
<rect x="746.5714285714286" y="154.23333333333332" width="121.71428571428571" height="4.337179487179487" fill="#472C79" />
<rect x="868.2857142857142" y="154.23333333333332" width="121.71428571428571" height="4.337179487179487" fill="#414085" />
<rect x="138" y="158.57051282051282" width="121.71428571428571" height="4.337179487179487" fill="#3B518B" />
<rect x="259.7142857142857" y="158.57051282051282" width="121.71428571428571" height="4.337179487179487" fill="#443880" />
<rect x="381.42857142857144" y="158.57051282051282" width="121.71428571428571" height="4.337179487179487" fill="#39568C" />
<rect x="503.1428571428571" y="158.57051282051282" width="121.71428571428571" height="4.337179487179487" fill="#31668E" />
<rect x="624.8571428571429" y="158.57051282051282" width="121.71428571428571" height="4.337179487179487" fill="#3CAF78" />
<rect x="746.5714285714286" y="158.57051282051282" width="121.71428571428571" height="4.337179487179487" fill="#3A548B" />
<rect x="868.2857142857142" y="158.57051282051282" width="121.71428571428571" height="4.337179487179487" fill="#443880" />
<rect x="138" y="162.9076923076923" width="121.71428571428571" height="4.337179487179487" fill="#461667" />
<rect x="259.7142857142857" y="162.9076923076923" width="121.71428571428571" height="4.337179487179487" fill="#D5E228" />
<rect x="381.42857142857144" y="162.9076923076923" width="121.71428571428571" height="4.337179487179487" fill="#2FA780" />
<rect x="503.1428571428571" y="162.9076923076923" width="121.71428571428571" height="4.337179487179487" fill="#3F4A8A" />
<rect x="624.8571428571429" y="162.9076923076923" width="121.71428571428571" height="4.337179487179487" fill="#462E7B" />
<rect x="746.5714285714286" y="162.9076923076923" width="121.71428571428571" height="4.337179487179487" fill="#38588C" />
<rect x="868.2857142857142" y="162.9076923076923" width="121.71428571428571" height="4.337179487179487" fill="#3E4C8A" />
<rect x="138" y="167.24487179487178" width="121.71428571428571" height="4.337179487179487" fill="#3C518B" />
<rect x="259.7142857142857" y="167.24487179487178" width="121.71428571428571" height="4.337179487179487" fill="#39568C" />
<rect x="381.42857142857144" y="167.24487179487178" width="121.71428571428571" height="4.337179487179487" fill="#D9E228" />
<rect x="503.1428571428571" y="167.24487179487178" width="121.71428571428571" height="4.337179487179487" fill="#238D8D" />
<rect x="624.8571428571429" y="167.24487179487178" width="121.71428571428571" height="4.337179487179487" fill="#21978B" />
<rect x="746.5714285714286" y="167.24487179487178" width="121.71428571428571" height="4.337179487179487" fill="#472A78" />
<rect x="868.2857142857142" y="167.24487179487178" width="121.71428571428571" height="4.337179487179487" fill="#471E6F" />
<rect x="138" y="171.58205128205128" width="121.71428571428571" height="4.337179487179487" fill="#27808F" />
<rect x="259.7142857142857" y="171.58205128205128" width="121.71428571428571" height="4.337179487179487" fill="#25868E" />
<rect x="381.42857142857144" y="171.58205128205128" width="121.71428571428571" height="4.337179487179487" fill="#423E84" />
<rect x="503.1428571428571" y="171.58205128205128" width="121.71428571428571" height="4.337179487179487" fill="#462F7B" />
<rect x="624.8571428571429" y="171.58205128205128" width="121.71428571428571" height="4.337179487179487" fill="#2B768F" />
<rect x="746.5714285714286" y="171.58205128205128" width="121.71428571428571" height="4.337179487179487" fill="#38598C" />
<rect x="868.2857142857142" y="171.58205128205128" width="121.71428571428571" height="4.337179487179487" fill="#482374" />
<rect x="138" y="175.91923076923075" width="121.71428571428571" height="4.337179487179487" fill="#423E84" />
<rect x="259.7142857142857" y="175.91923076923075" width="121.71428571428571" height="4.337179487179487" fill="#3F4A8A" />
<rect x="381.42857142857144" y="175.91923076923075" width="121.71428571428571" height="4.337179487179487" fill="#84D34A" />
<rect x="503.1428571428571" y="175.91923076923075" width="121.71428571428571" height="4.337179487179487" fill="#4BB96E" />
<rect x="624.8571428571429" y="175.91923076923075" width="121.71428571428571" height="4.337179487179487" fill="#92D642" />
<rect x="746.5714285714286" y="175.91923076923075" width="121.71428571428571" height="4.337179487179487" fill="#39578C" />
<rect x="868.2857142857142" y="175.91923076923075" width="121.71428571428571" height="4.337179487179487" fill="#471F70" />
<rect x="138" y="180.25641025641025" width="121.71428571428571" height="4.337179487179487" fill="#25868E" />
<rect x="259.7142857142857" y="180.25641025641025" width="121.71428571428571" height="4.337179487179487" fill="#297B8F" />
<rect x="381.42857142857144" y="180.25641025641025" width="121.71428571428571" height="4.337179487179487" fill="#EEE526" />
<rect x="503.1428571428571" y="180.25641025641025" width="121.71428571428571" height="4.337179487179487" fill="#24898E" />
<rect x="624.8571428571429" y="180.25641025641025" width="121.71428571428571" height="4.337179487179487" fill="#219E89" />
<rect x="746.5714285714286" y="180.25641025641025" width="121.71428571428571" height="4.337179487179487" fill="#443780" />
<rect x="868.2857142857142" y="180.25641025641025" width="121.71428571428571" height="4.337179487179487" fill="#39578C" />
<rect x="138" y="184.59358974358975" width="121.71428571428571" height="4.337179487179487" fill="#375B8C" />
<rect x="259.7142857142857" y="184.59358974358975" width="121.71428571428571" height="4.337179487179487" fill="#8ED544" />
<rect x="381.42857142857144" y="184.59358974358975" width="121.71428571428571" height="4.337179487179487" fill="#5DC463" />
<rect x="503.1428571428571" y="184.59358974358975" width="121.71428571428571" height="4.337179487179487" fill="#29A483" />
<rect x="624.8571428571429" y="184.59358974358975" width="121.71428571428571" height="4.337179487179487" fill="#34618D" />
<rect x="746.5714285714286" y="184.59358974358975" width="121.71428571428571" height="4.337179487179487" fill="#443880" />
<rect x="868.2857142857142" y="184.59358974358975" width="121.71428571428571" height="4.337179487179487" fill="#443780" />
<rect x="138" y="188.93076923076922" width="121.71428571428571" height="4.337179487179487" fill="#297A8F" />
<rect x="259.7142857142857" y="188.93076923076922" width="121.71428571428571" height="4.337179487179487" fill="#53BE69" />
<rect x="381.42857142857144" y="188.93076923076922" width="121.71428571428571" height="4.337179487179487" fill="#287E8F" />
<rect x="503.1428571428571" y="188.93076923076922" width="121.71428571428571" height="4.337179487179487" fill="#BDDF2A" />
<rect x="624.8571428571429" y="188.93076923076922" width="121.71428571428571" height="4.337179487179487" fill="#39568C" />
<rect x="746.5714285714286" y="188.93076923076922" width="121.71428571428571" height="4.337179487179487" fill="#3F4B8A" />
<rect x="868.2857142857142" y="188.93076923076922" width="121.71428571428571" height="4.337179487179487" fill="#365C8C" />
<rect x="138" y="193.2679487179487" width="121.71428571428571" height="4.337179487179487" fill="#24898E" />
<rect x="259.7142857142857" y="193.2679487179487" width="121.71428571428571" height="4.337179487179487" fill="#2A798F" />
<rect x="381.42857142857144" y="193.2679487179487" width="121.71428571428571" height="4.337179487179487" fill="#2C738E" />
<rect x="503.1428571428571" y="193.2679487179487" width="121.71428571428571" height="4.337179487179487" fill="#45357E" />
<rect x="624.8571428571429" y="193.2679487179487" width="121.71428571428571" height="4.337179487179487" fill="#3A548B" />
<rect x="746.5714285714286" y="193.2679487179487" width="121.71428571428571" height="4.337179487179487" fill="#32648E" />
<rect x="868.2857142857142" y="193.2679487179487" width="121.71428571428571" height="4.337179487179487" fill="#34618D" />
<rect x="138" y="197.60512820512818" width="121.71428571428571" height="4.337179487179487" fill="#21948C" />
<rect x="259.7142857142857" y="197.60512820512818" width="121.71428571428571" height="4.337179487179487" fill="#20998B" />
<rect x="381.42857142857144" y="197.60512820512818" width="121.71428571428571" height="4.337179487179487" fill="#26848F" />
<rect x="503.1428571428571" y="197.60512820512818" width="121.71428571428571" height="4.337179487179487" fill="#33648E" />
<rect x="624.8571428571429" y="197.60512820512818" width="121.71428571428571" height="4.337179487179487" fill="#71CF56" />
<rect x="746.5714285714286" y="197.60512820512818" width="121.71428571428571" height="4.337179487179487" fill="#31688E" />
<rect x="868.2857142857142" y="197.60512820512818" width="121.71428571428571" height="4.337179487179487" fill="#34608D" />
<rect x="138" y="201.94230769230768" width="121.71428571428571" height="4.337179487179487" fill="#20998B" />
<rect x="259.7142857142857" y="201.94230769230768" width="121.71428571428571" height="4.337179487179487" fill="#2D728E" />
<rect x="381.42857142857144" y="201.94230769230768" width="121.71428571428571" height="4.337179487179487" fill="#3B528B" />
<rect x="503.1428571428571" y="201.94230769230768" width="121.71428571428571" height="4.337179487179487" fill="#3A558C" />
<rect x="624.8571428571429" y="201.94230769230768" width="121.71428571428571" height="4.337179487179487" fill="#287F8F" />
<rect x="746.5714285714286" y="201.94230769230768" width="121.71428571428571" height="4.337179487179487" fill="#423D83" />
<rect x="868.2857142857142" y="201.94230769230768" width="121.71428571428571" height="4.337179487179487" fill="#462E7B" />
<rect x="138" y="206.27948717948718" width="121.71428571428571" height="4.337179487179487" fill="#25868E" />
<rect x="259.7142857142857" y="206.27948717948718" width="121.71428571428571" height="4.337179487179487" fill="#433A81" />
<rect x="381.42857142857144" y="206.27948717948718" width="121.71428571428571" height="4.337179487179487" fill="#3D4F8B" />
<rect x="503.1428571428571" y="206.27948717948718" width="121.71428571428571" height="4.337179487179487" fill="#365E8D" />
<rect x="624.8571428571429" y="206.27948717948718" width="121.71428571428571" height="4.337179487179487" fill="#375B8C" />
<rect x="746.5714285714286" y="206.27948717948718" width="121.71428571428571" height="4.337179487179487" fill="#355F8D" />
<rect x="868.2857142857142" y="206.27948717948718" width="121.71428571428571" height="4.337179487179487" fill="#462F7B" />
<rect x="138" y="210.61666666666665" width="121.71428571428571" height="4.337179487179487" fill="#E6E427" />
<rect x="259.7142857142857" y="210.61666666666665" width="121.71428571428571" height="4.337179487179487" fill="#1F9C8A" />
<rect x="381.42857142857144" y="210.61666666666665" width="121.71428571428571" height="4.337179487179487" fill="#E8E427" />
<rect x="503.1428571428571" y="210.61666666666665" width="121.71428571428571" height="4.337179487179487" fill="#53BE69" />
<rect x="624.8571428571429" y="210.61666666666665" width="121.71428571428571" height="4.337179487179487" fill="#229F88" />
<rect x="746.5714285714286" y="210.61666666666665" width="121.71428571428571" height="4.337179487179487" fill="#39578C" />
<rect x="868.2857142857142" y="210.61666666666665" width="121.71428571428571" height="4.337179487179487" fill="#2E6F8E" />
<rect x="138" y="214.95384615384614" width="121.71428571428571" height="4.337179487179487" fill="#297B8F" />
<rect x="259.7142857142857" y="214.95384615384614" width="121.71428571428571" height="4.337179487179487" fill="#31678E" />
<rect x="381.42857142857144" y="214.95384615384614" width="121.71428571428571" height="4.337179487179487" fill="#472A79" />
<rect x="503.1428571428571" y="214.95384615384614" width="121.71428571428571" height="4.337179487179487" fill="#D4E228" />
<rect x="624.8571428571429" y="214.95384615384614" width="121.71428571428571" height="4.337179487179487" fill="#59C265" />
<rect x="746.5714285714286" y="214.95384615384614" width="121.71428571428571" height="4.337179487179487" fill="#35608D" />
<rect x="868.2857142857142" y="214.95384615384614" width="121.71428571428571" height="4.337179487179487" fill="#45347E" />
<rect x="138" y="219.29102564102564" width="121.71428571428571" height="4.337179487179487" fill="#F8E625" />
<rect x="259.7142857142857" y="219.29102564102564" width="121.71428571428571" height="4.337179487179487" fill="#3C508B" />
<rect x="381.42857142857144" y="219.29102564102564" width="121.71428571428571" height="4.337179487179487" fill="#3B538B" />
<rect x="503.1428571428571" y="219.29102564102564" width="121.71428571428571" height="4.337179487179487" fill="#2DA681" />
<rect x="624.8571428571429" y="219.29102564102564" width="121.71428571428571" height="4.337179487179487" fill="#34608D" />
<rect x="746.5714285714286" y="219.29102564102564" width="121.71428571428571" height="4.337179487179487" fill="#3A548B" />
<rect x="868.2857142857142" y="219.29102564102564" width="121.71428571428571" height="4.337179487179487" fill="#3A538B" />
<rect x="138" y="223.6282051282051" width="121.71428571428571" height="4.337179487179487" fill="#287E8F" />
<rect x="259.7142857142857" y="223.6282051282051" width="121.71428571428571" height="4.337179487179487" fill="#9FD939" />
<rect x="381.42857142857144" y="223.6282051282051" width="121.71428571428571" height="4.337179487179487" fill="#2D728E" />
<rect x="503.1428571428571" y="223.6282051282051" width="121.71428571428571" height="4.337179487179487" fill="#33628D" />
<rect x="624.8571428571429" y="223.6282051282051" width="121.71428571428571" height="4.337179487179487" fill="#DDE328" />
<rect x="746.5714285714286" y="223.6282051282051" width="121.71428571428571" height="4.337179487179487" fill="#404788" />
<rect x="868.2857142857142" y="223.6282051282051" width="121.71428571428571" height="4.337179487179487" fill="#423D83" />
<rect x="138" y="227.9653846153846" width="121.71428571428571" height="4.337179487179487" fill="#B1DD2E" />
<rect x="259.7142857142857" y="227.9653846153846" width="121.71428571428571" height="4.337179487179487" fill="#3A548B" />
<rect x="381.42857142857144" y="227.9653846153846" width="121.71428571428571" height="4.337179487179487" fill="#277F8F" />
<rect x="503.1428571428571" y="227.9653846153846" width="121.71428571428571" height="4.337179487179487" fill="#414386" />
<rect x="624.8571428571429" y="227.9653846153846" width="121.71428571428571" height="4.337179487179487" fill="#73CF55" />
<rect x="746.5714285714286" y="227.9653846153846" width="121.71428571428571" height="4.337179487179487" fill="#355E8D" />
<rect x="868.2857142857142" y="227.9653846153846" width="121.71428571428571" height="4.337179487179487" fill="#38588C" />
<rect x="138" y="232.3025641025641" width="121.71428571428571" height="4.337179487179487" fill="#77D052" />
<rect x="259.7142857142857" y="232.3025641025641" width="121.71428571428571" height="4.337179487179487" fill="#3CB077" />
<rect x="381.42857142857144" y="232.3025641025641" width="121.71428571428571" height="4.337179487179487" fill="#209A8B" />
<rect x="503.1428571428571" y="232.3025641025641" width="121.71428571428571" height="4.337179487179487" fill="#287D8F" />
<rect x="624.8571428571429" y="232.3025641025641" width="121.71428571428571" height="4.337179487179487" fill="#98D83E" />
<rect x="746.5714285714286" y="232.3025641025641" width="121.71428571428571" height="4.337179487179487" fill="#414386" />
<rect x="868.2857142857142" y="232.3025641025641" width="121.71428571428571" height="4.337179487179487" fill="#2F6B8E" />
<rect x="138" y="236.63974358974357" width="121.71428571428571" height="4.337179487179487" fill="#F8E625" />
<rect x="259.7142857142857" y="236.63974358974357" width="121.71428571428571" height="4.337179487179487" fill="#DCE328" />
<rect x="381.42857142857144" y="236.63974358974357" width="121.71428571428571" height="4.337179487179487" fill="#39AE79" />
<rect x="503.1428571428571" y="236.63974358974357" width="121.71428571428571" height="4.337179487179487" fill="#41B374" />
<rect x="624.8571428571429" y="236.63974358974357" width="121.71428571428571" height="4.337179487179487" fill="#287E8F" />
<rect x="746.5714285714286" y="236.63974358974357" width="121.71428571428571" height="4.337179487179487" fill="#443880" />
<rect x="868.2857142857142" y="236.63974358974357" width="121.71428571428571" height="4.337179487179487" fill="#32658E" />
<rect x="138" y="240.97692307692307" width="121.71428571428571" height="4.337179487179487" fill="#287D8F" />
<rect x="259.7142857142857" y="240.97692307692307" width="121.71428571428571" height="4.337179487179487" fill="#27808F" />
<rect x="381.42857142857144" y="240.97692307692307" width="121.71428571428571" height="4.337179487179487" fill="#9AD83C" />
<rect x="503.1428571428571" y="240.97692307692307" width="121.71428571428571" height="4.337179487179487" fill="#5AC364" />
<rect x="624.8571428571429" y="240.97692307692307" width="121.71428571428571" height="4.337179487179487" fill="#B8DE2B" />
<rect x="746.5714285714286" y="240.97692307692307" width="121.71428571428571" height="4.337179487179487" fill="#31678E" />
<rect x="868.2857142857142" y="240.97692307692307" width="121.71428571428571" height="4.337179487179487" fill="#32668E" />
<rect x="138" y="245.31410256410254" width="121.71428571428571" height="4.337179487179487" fill="#2D728E" />
<rect x="259.7142857142857" y="245.31410256410254" width="121.71428571428571" height="4.337179487179487" fill="#209A8B" />
<rect x="381.42857142857144" y="245.31410256410254" width="121.71428571428571" height="4.337179487179487" fill="#20998B" />
<rect x="503.1428571428571" y="245.31410256410254" width="121.71428571428571" height="4.337179487179487" fill="#22928C" />
<rect x="624.8571428571429" y="245.31410256410254" width="121.71428571428571" height="4.337179487179487" fill="#297B8F" />
<rect x="746.5714285714286" y="245.31410256410254" width="121.71428571428571" height="4.337179487179487" fill="#45337E" />
<rect x="868.2857142857142" y="245.31410256410254" width="121.71428571428571" height="4.337179487179487" fill="#2F6C8E" />
<rect x="138" y="249.65128205128204" width="121.71428571428571" height="4.337179487179487" fill="#287D8F" />
<rect x="259.7142857142857" y="249.65128205128204" width="121.71428571428571" height="4.337179487179487" fill="#2B768F" />
<rect x="381.42857142857144" y="249.65128205128204" width="121.71428571428571" height="4.337179487179487" fill="#375B8C" />
<rect x="503.1428571428571" y="249.65128205128204" width="121.71428571428571" height="4.337179487179487" fill="#32658E" />
<rect x="624.8571428571429" y="249.65128205128204" width="121.71428571428571" height="4.337179487179487" fill="#248B8D" />
<rect x="746.5714285714286" y="249.65128205128204" width="121.71428571428571" height="4.337179487179487" fill="#404889" />
<rect x="868.2857142857142" y="249.65128205128204" width="121.71428571428571" height="4.337179487179487" fill="#2B758F" />
<rect x="138" y="253.98846153846154" width="121.71428571428571" height="4.337179487179487" fill="#64C95E" />
<rect x="259.7142857142857" y="253.98846153846154" width="121.71428571428571" height="4.337179487179487" fill="#42B374" />
<rect x="381.42857142857144" y="253.98846153846154" width="121.71428571428571" height="4.337179487179487" fill="#22928C" />
<rect x="503.1428571428571" y="253.98846153846154" width="121.71428571428571" height="4.337179487179487" fill="#FDE725" />
<rect x="624.8571428571429" y="253.98846153846154" width="121.71428571428571" height="4.337179487179487" fill="#D7E228" />
<rect x="746.5714285714286" y="253.98846153846154" width="121.71428571428571" height="4.337179487179487" fill="#2B758F" />
<rect x="868.2857142857142" y="253.98846153846154" width="121.71428571428571" height="4.337179487179487" fill="#414487" />
<rect x="138" y="258.325641025641" width="121.71428571428571" height="4.337179487179487" fill="#25898E" />
<rect x="259.7142857142857" y="258.325641025641" width="121.71428571428571" height="4.337179487179487" fill="#32A97E" />
<rect x="381.42857142857144" y="258.325641025641" width="121.71428571428571" height="4.337179487179487" fill="#6BCD5A" />
<rect x="503.1428571428571" y="258.325641025641" width="121.71428571428571" height="4.337179487179487" fill="#C5E02A" />
<rect x="624.8571428571429" y="258.325641025641" width="121.71428571428571" height="4.337179487179487" fill="#ABDC32" />
<rect x="746.5714285714286" y="258.325641025641" width="121.71428571428571" height="4.337179487179487" fill="#33648E" />
<rect x="868.2857142857142" y="258.325641025641" width="121.71428571428571" height="4.337179487179487" fill="#433981" />
<rect x="138" y="262.66282051282053" width="121.71428571428571" height="4.337179487179487" fill="#27818F" />
<rect x="259.7142857142857" y="262.66282051282053" width="121.71428571428571" height="4.337179487179487" fill="#404688" />
<rect x="381.42857142857144" y="262.66282051282053" width="121.71428571428571" height="4.337179487179487" fill="#92D641" />
<rect x="503.1428571428571" y="262.66282051282053" width="121.71428571428571" height="4.337179487179487" fill="#73D055" />
<rect x="624.8571428571429" y="262.66282051282053" width="121.71428571428571" height="4.337179487179487" fill="#D5E228" />
<rect x="746.5714285714286" y="262.66282051282053" width="121.71428571428571" height="4.337179487179487" fill="#30698E" />
<rect x="868.2857142857142" y="262.66282051282053" width="121.71428571428571" height="4.337179487179487" fill="#31678E" />
</g>
<g class="spine">
<line x1="138" y1="267" x2="990" y2="267" stroke="#262626" stroke-width="0.8" />
</g>
<g class="spine">
<line x1="138" y1="41.46666666666667" x2="990" y2="41.46666666666667" stroke="#262626" stroke-width="0.8" />
</g>
<g class="spine">
<line x1="138" y1="41.46666666666667" x2="138" y2="267" stroke="#262626" stroke-width="0.8" />
</g>
<g class="spine">
<line x1="990" y1="41.46666666666667" x2="990" y2="267" stroke="#262626" stroke-width="0.8" />
</g>
<g class="legend" aria-label="Chart legend">
<rect x="863.3163990444607" y="51.46666666666667" width="116.68360095553928" height="25.72222222222222" fill="#FFFFFF" fill-opacity="0.8" stroke="#CCCCCC" stroke-width="0.5" />
<rect x="871.3163990444607" y="59.46666666666667" width="27.77777777777778" height="9.722222222222221" fill="#1F77B4" />
<path d="M8.94504 -9.34516L8.94504 -7.90066Q8.25331 -8.54492 7.47003 -8.86366Q6.68674 -9.1824 5.80512 -9.1824Q4.06901 -9.1824 3.1467 -8.12107Q2.22439 -7.05973 2.22439 -5.05235Q2.22439 -3.05176 3.1467 -1.99042Q4.06901 -0.929091 5.80512 -0.929091Q6.68674 -0.929091 7.47003 -1.24783Q8.25331 -1.56657 8.94504 -2.21083L8.94504 -0.779894Q8.22618 -0.291612 7.42255 -0.0474718Q6.61892 0.196669 5.72374 0.196669Q3.42475 0.196669 2.10232 -1.21053Q0.779894 -2.61773 0.779894 -5.05235Q0.779894 -7.49376 2.10232 -8.90096Q3.42475 -10.3082 5.72374 -10.3082Q6.63249 -10.3082 7.43612 -10.0674Q8.23975 -9.82666 8.94504 -9.34516ZM13.9499 -6.72065Q12.9462 -6.72065 12.363 -5.93736Q11.7798 -5.15408 11.7798 -3.79096Q11.7798 -2.42784 12.3596 -1.64456Q12.9395 -0.861274 13.9499 -0.861274Q14.9468 -0.861274 15.5301 -1.64795Q16.1133 -2.43462 16.1133 -3.79096Q16.1133 -5.14052 15.5301 -5.93058Q14.9468 -6.72065 13.9499 -6.72065ZM13.9499 -7.77859Q15.5775 -7.77859 16.5066 -6.72065Q17.4357 -5.66271 17.4357 -3.79096Q17.4357 -1.926 16.5066 -0.864665Q15.5775 0.196669 13.9499 0.196669Q12.3155 0.196669 11.3898 -0.864665Q10.4641 -1.926 10.4641 -3.79096Q10.4641 -5.66271 11.3898 -6.72065Q12.3155 -7.77859 13.9499 -7.77859ZM25.4178 -6.13742Q25.8857 -6.97835 26.5367 -7.37847Q27.1878 -7.77859 28.0694 -7.77859Q29.2562 -7.77859 29.9004 -6.94784Q30.5447 -6.11708 30.5447 -4.58442L30.5447 0L29.2901 0L29.2901 -4.54373Q29.2901 -5.63558 28.9035 -6.16455Q28.517 -6.69352 27.7235 -6.69352Q26.7537 -6.69352 26.1909 -6.04926Q25.628 -5.405 25.628 -4.29281L25.628 0L24.3734 0L24.3734 -4.54373Q24.3734 -5.64236 23.9868 -6.16794Q23.6003 -6.69352 22.7932 -6.69352Q21.837 -6.69352 21.2741 -6.04587Q20.7113 -5.39822 20.7113 -4.29281L20.7113 0L19.4567 0L19.4567 -7.59549L20.7113 -7.59549L20.7113 -6.41547Q21.1385 -7.11399 21.7353 -7.44629Q22.3321 -7.77859 23.1527 -7.77859Q23.98 -7.77859 24.5599 -7.35813Q25.1397 -6.93766 25.4178 -6.13742ZM38.9472 -6.13742Q39.4151 -6.97835 40.0662 -7.37847Q40.7172 -7.77859 41.5989 -7.77859Q42.7856 -7.77859 43.4299 -6.94784Q44.0742 -6.11708 44.0742 -4.58442L44.0742 0L42.8196 0L42.8196 -4.54373Q42.8196 -5.63558 42.433 -6.16455Q42.0464 -6.69352 41.253 -6.69352Q40.2832 -6.69352 39.7203 -6.04926Q39.1574 -5.405 39.1574 -4.29281L39.1574 0L37.9028 0L37.9028 -4.54373Q37.9028 -5.64236 37.5163 -6.16794Q37.1297 -6.69352 36.3227 -6.69352Q35.3665 -6.69352 34.8036 -6.04587Q34.2407 -5.39822 34.2407 -4.29281L34.2407 0L32.9861 0L32.9861 -7.59549L34.2407 -7.59549L34.2407 -6.41547Q34.668 -7.11399 35.2648 -7.44629Q35.8615 -7.77859 36.6821 -7.77859Q37.5095 -7.77859 38.0893 -7.35813Q38.6692 -6.93766 38.9472 -6.13742ZM46.563 -7.59549L47.8109 -7.59549L47.8109 0L46.563 0L46.563 -7.59549ZM46.563 -10.5523L47.8109 -10.5523L47.8109 -8.97217L46.563 -8.97217L46.563 -10.5523ZM51.6561 -9.75206L51.6561 -7.59549L54.2263 -7.59549L54.2263 -6.62571L51.6561 -6.62571L51.6561 -2.50244Q51.6561 -1.57335 51.9104 -1.30887Q52.1647 -1.04438 52.9446 -1.04438L54.2263 -1.04438L54.2263 0L52.9446 0Q51.5001 0 50.9508 -0.539144Q50.4015 -1.07829 50.4015 -2.50244L50.4015 -6.62571L49.486 -6.62571L49.486 -7.59549L50.4015 -7.59549L50.4015 -9.75206L51.6561 -9.75206ZM60.7096 -7.37169L60.7096 -6.19168Q60.1807 -6.46294 59.611 -6.59858Q59.0413 -6.73421 58.431 -6.73421Q57.5019 -6.73421 57.0374 -6.44938Q56.5728 -6.16455 56.5728 -5.59489Q56.5728 -5.16086 56.9051 -4.91333Q57.2374 -4.6658 58.2411 -4.442L58.6684 -4.34706Q59.9976 -4.06223 60.5571 -3.54343Q61.1165 -3.02463 61.1165 -2.09554Q61.1165 -1.0376 60.279 -0.420464Q59.4415 0.196669 57.9766 0.196669Q57.3663 0.196669 56.7051 0.0779894Q56.0438 -0.0406901 55.3114 -0.278049L55.3114 -1.56657Q56.0032 -1.20714 56.6745 -1.02743Q57.3459 -0.84771 58.0037 -0.847711Q58.8854 -0.847711 59.3601 -1.1495Q59.8348 -1.45128 59.8348 -2.0006Q59.8348 -2.50922 59.4923 -2.78049Q59.1499 -3.05176 57.9902 -3.30268L57.5562 -3.40441Q56.3965 -3.64855 55.8811 -4.15378Q55.3657 -4.65902 55.3657 -5.54064Q55.3657 -6.61214 56.1252 -7.19537Q56.8848 -7.77859 58.2818 -7.77859Q58.9735 -7.77859 59.5839 -7.67687Q60.1942 -7.57514 60.7096 -7.37169Z" fill="#262626" transform="translate(910.2052879333496,68.1888888888889)" />
</g>
<g class="colorbar" aria-label="Color bar">
<rect x="1000" y="41.46666666666667" width="20" height="5.510666666666666" fill="#FDE725" />
<rect x="1000" y="45.977333333333334" width="20" height="5.510666666666666" fill="#F2E626" />
<rect x="1000" y="50.488" width="20" height="5.510666666666666" fill="#E6E427" />
<rect x="1000" y="54.998666666666665" width="20" height="5.510666666666666" fill="#DBE328" />
<rect x="1000" y="59.50933333333333" width="20" height="5.510666666666666" fill="#D0E129" />
<rect x="1000" y="64.02" width="20" height="5.510666666666666" fill="#C4E02A" />
<rect x="1000" y="68.53066666666666" width="20" height="5.510666666666666" fill="#B9DE2B" />
<rect x="1000" y="73.04133333333333" width="20" height="5.510666666666666" fill="#ADDC31" />
<rect x="1000" y="77.55199999999999" width="20" height="5.510666666666666" fill="#A1DA38" />
<rect x="1000" y="82.06266666666667" width="20" height="5.510666666666666" fill="#95D73F" />
<rect x="1000" y="86.57333333333332" width="20" height="5.510666666666666" fill="#8AD447" />
<rect x="1000" y="91.084" width="20" height="5.510666666666666" fill="#7ED24E" />
<rect x="1000" y="95.59466666666665" width="20" height="5.510666666666666" fill="#72CF55" />
<rect x="1000" y="100.10533333333333" width="20" height="5.510666666666666" fill="#66CA5D" />
<rect x="1000" y="104.61599999999999" width="20" height="5.510666666666666" fill="#5AC265" />
<rect x="1000" y="109.12666666666667" width="20" height="5.510666666666666" fill="#4DBA6D" />
<rect x="1000" y="113.63733333333333" width="20" height="5.510666666666666" fill="#41B374" />
<rect x="1000" y="118.148" width="20" height="5.510666666666666" fill="#35AB7C" />
<rect x="1000" y="122.65866666666666" width="20" height="5.510666666666666" fill="#28A384" />
<rect x="1000" y="127.16933333333333" width="20" height="5.510666666666666" fill="#1F9C8A" />
<rect x="1000" y="131.68" width="20" height="5.510666666666666" fill="#20988B" />
<rect x="1000" y="136.19066666666663" width="20" height="5.510666666666666" fill="#22948C" />
<rect x="1000" y="140.7013333333333" width="20" height="5.510666666666666" fill="#238F8D" />
<rect x="1000" y="145.212" width="20" height="5.510666666666666" fill="#248B8D" />
<rect x="1000" y="149.72266666666667" width="20" height="5.510666666666666" fill="#25878E" />
<rect x="1000" y="154.2333333333333" width="20" height="5.510666666666666" fill="#26838F" />
<rect x="1000" y="158.74399999999997" width="20" height="5.510666666666666" fill="#287F8F" />
<rect x="1000" y="163.25466666666665" width="20" height="5.510666666666666" fill="#2A7A8F" />
<rect x="1000" y="167.76533333333333" width="20" height="5.510666666666666" fill="#2B768F" />
<rect x="1000" y="172.27599999999998" width="20" height="5.510666666666666" fill="#2D718E" />
<rect x="1000" y="176.78666666666666" width="20" height="5.510666666666666" fill="#2F6D8E" />
<rect x="1000" y="181.2973333333333" width="20" height="5.510666666666666" fill="#31688E" />
<rect x="1000" y="185.808" width="20" height="5.510666666666666" fill="#33648E" />
<rect x="1000" y="190.31866666666664" width="20" height="5.510666666666666" fill="#355F8D" />
<rect x="1000" y="194.82933333333332" width="20" height="5.510666666666666" fill="#375A8C" />
<rect x="1000" y="199.34" width="20" height="5.510666666666666" fill="#39568C" />
<rect x="1000" y="203.85066666666665" width="20" height="5.510666666666666" fill="#3C518B" />
<rect x="1000" y="208.3613333333333" width="20" height="5.510666666666666" fill="#3E4C8A" />
<rect x="1000" y="212.87199999999999" width="20" height="5.510666666666666" fill="#404788" />
<rect x="1000" y="217.38266666666667" width="20" height="5.510666666666666" fill="#414285" />
<rect x="1000" y="221.89333333333332" width="20" height="5.510666666666666" fill="#433C82" />
<rect x="1000" y="226.40399999999997" width="20" height="5.510666666666666" fill="#44367F" />
<rect x="1000" y="230.91466666666662" width="20" height="5.510666666666666" fill="#45317C" />
<rect x="1000" y="235.42533333333333" width="20" height="5.510666666666666" fill="#472B79" />
<rect x="1000" y="239.93599999999998" width="20" height="5.510666666666666" fill="#482576" />
<rect x="1000" y="244.44666666666663" width="20" height="5.510666666666666" fill="#471F70" />
<rect x="1000" y="248.95733333333334" width="20" height="5.510666666666666" fill="#47196A" />
<rect x="1000" y="253.468" width="20" height="5.510666666666666" fill="#461365" />
<rect x="1000" y="257.97866666666664" width="20" height="5.510666666666666" fill="#450D5F" />
<rect x="1000" y="262.4893333333333" width="20" height="5.510666666666666" fill="#45075A" />
<rect x="1000" y="41.46666666666667" width="20" height="225.5333333333333" fill="none" stroke="#262626" stroke-width="0.5" />
<path d="M1.72255 -1.15289L3.9605 -1.15289L3.9605 -8.87722L1.52588 -8.38894L1.52588 -9.63677L3.94694 -10.1251L5.31684 -10.1251L5.31684 -1.15289L7.5548 -1.15289L7.5548 0L1.72255 0L1.72255 -1.15289ZM13.2514 -9.22309Q12.1935 -9.22309 11.6611 -8.1821Q11.1287 -7.14111 11.1287 -5.05235Q11.1287 -2.97038 11.6611 -1.92939Q12.1935 -0.888401 13.2514 -0.888401Q14.3161 -0.888401 14.8485 -1.92939Q15.3809 -2.97038 15.3809 -5.05235Q15.3809 -7.14111 14.8485 -8.1821Q14.3161 -9.22309 13.2514 -9.22309ZM13.2514 -10.3082Q14.9536 -10.3082 15.8522 -8.962Q16.7508 -7.61583 16.7508 -5.05235Q16.7508 -2.49566 15.8522 -1.1495Q14.9536 0.196669 13.2514 0.196669Q11.5492 0.196669 10.6506 -1.1495Q9.75206 -2.49566 9.75206 -5.05235Q9.75206 -7.61583 10.6506 -8.962Q11.5492 -10.3082 13.2514 -10.3082Z" fill="#262626" transform="translate(1024,45.46666666666667)" />
<path d="M4.41488 -4.80821Q3.43831 -4.80821 2.87882 -4.28602Q2.31934 -3.76383 2.31934 -2.84831Q2.31934 -1.93278 2.87882 -1.41059Q3.43831 -0.888401 4.41488 -0.888401Q5.39144 -0.888401 5.95432 -1.41398Q6.5172 -1.93956 6.5172 -2.84831Q6.5172 -3.76383 5.95771 -4.28602Q5.39822 -4.80821 4.41488 -4.80821ZM3.04498 -5.39144Q2.16336 -5.60845 1.67169 -6.21202Q1.18001 -6.81559 1.18001 -7.68365Q1.18001 -8.89757 2.04468 -9.60287Q2.90934 -10.3082 4.41488 -10.3082Q5.92719 -10.3082 6.78847 -9.60287Q7.64974 -8.89757 7.64974 -7.68365Q7.64974 -6.81559 7.15807 -6.21202Q6.6664 -5.60845 5.79156 -5.39144Q6.78168 -5.16086 7.33439 -4.48947Q7.8871 -3.81809 7.8871 -2.84831Q7.8871 -1.37668 6.98853 -0.590007Q6.08995 0.196669 4.41488 0.196669Q2.7398 0.196669 1.84123 -0.590007Q0.942654 -1.37668 0.942654 -2.84831Q0.942654 -3.81809 1.49875 -4.48947Q2.05485 -5.16086 3.04498 -5.39144ZM2.54313 -7.5548Q2.54313 -6.76812 3.0348 -6.32731Q3.52648 -5.8865 4.41488 -5.8865Q5.29649 -5.8865 5.79495 -6.32731Q6.2934 -6.76812 6.2934 -7.5548Q6.2934 -8.34147 5.79495 -8.78228Q5.2965 -9.22309 4.41488 -9.22309Q3.52648 -9.22309 3.0348 -8.78228Q2.54313 -8.34147 2.54313 -7.5548Z" fill="#262626" transform="translate(1024,90.57333333333332)" />
<path d="M4.58442 -5.60845Q3.66211 -5.60845 3.12297 -4.97776Q2.58382 -4.34706 2.58382 -3.24843Q2.58382 -2.15658 3.12297 -1.52249Q3.66211 -0.888401 4.58442 -0.888401Q5.50673 -0.888401 6.04587 -1.52249Q6.58502 -2.15658 6.58502 -3.24843Q6.58502 -4.34706 6.04587 -4.97776Q5.50673 -5.60845 4.58442 -5.60845ZM7.30387 -9.90126L7.30387 -8.65343Q6.78847 -8.89757 6.26289 -9.02642Q5.7373 -9.15527 5.2219 -9.15527Q3.86556 -9.15527 3.15009 -8.23975Q2.43462 -7.32422 2.3329 -5.47282Q2.73302 -6.06282 3.33659 -6.37817Q3.94016 -6.69352 4.6658 -6.69352Q6.19168 -6.69352 7.07669 -5.76782Q7.9617 -4.84212 7.9617 -3.24843Q7.9617 -1.68864 7.03939 -0.745985Q6.11708 0.196669 4.58442 0.196669Q2.82796 0.196669 1.89887 -1.1495Q0.969781 -2.49566 0.969781 -5.05235Q0.969781 -7.45307 2.1091 -8.88062Q3.24843 -10.3082 5.16764 -10.3082Q5.68305 -10.3082 6.20863 -10.2064Q6.73421 -10.1047 7.30387 -9.90126Z" fill="#262626" transform="translate(1024,135.68)" />
<path d="M5.24902 -8.93148L1.79036 -3.52648L5.24902 -3.52648L5.24902 -8.93148ZM4.88959 -10.1251L6.61214 -10.1251L6.61214 -3.52648L8.05664 -3.52648L8.05664 -2.38715L6.61214 -2.38715L6.61214 0L5.24902 0L5.24902 -2.38715L0.678168 -2.38715L0.678168 -3.70958L4.88959 -10.1251Z" fill="#262626" transform="translate(1024,180.78666666666663)" />
<path d="M2.6652 -1.15289L7.44629 -1.15289L7.44629 0L1.01725 0L1.01725 -1.15289Q1.79715 -1.95991 3.14331 -3.31963Q4.48947 -4.67936 4.83534 -5.0727Q5.49316 -5.8119 5.75426 -6.32392Q6.01535 -6.83594 6.01535 -7.331Q6.01535 -8.13802 5.44908 -8.64665Q4.88281 -9.15527 3.97407 -9.15527Q3.32981 -9.15527 2.61434 -8.93148Q1.89887 -8.70768 1.08507 -8.25331L1.08507 -9.63677Q1.91243 -9.96908 2.63129 -10.1386Q3.35015 -10.3082 3.94694 -10.3082Q5.52029 -10.3082 6.45616 -9.52148Q7.39204 -8.73481 7.39204 -7.41916Q7.39204 -6.79525 7.15807 -6.23576Q6.9241 -5.67627 6.30697 -4.91672Q6.13742 -4.72005 5.22868 -3.78079Q4.31993 -2.84153 2.6652 -1.15289Z" fill="#262626" transform="translate(1024,225.89333333333332)" />
<path d="M4.41488 -9.22309Q3.35693 -9.22309 2.82457 -8.1821Q2.29221 -7.14111 2.29221 -5.05235Q2.29221 -2.97038 2.82457 -1.92939Q3.35693 -0.888401 4.41488 -0.888401Q5.4796 -0.888401 6.01196 -1.92939Q6.54433 -2.97038 6.54433 -5.05235Q6.54433 -7.14111 6.01196 -8.1821Q5.4796 -9.22309 4.41488 -9.22309ZM4.41488 -10.3082Q6.11708 -10.3082 7.01565 -8.962Q7.91422 -7.61583 7.91423 -5.05235Q7.91423 -2.49566 7.01565 -1.1495Q6.11708 0.196669 4.41488 0.196669Q2.71267 0.196669 1.8141 -1.1495Q0.915527 -2.49566 0.915527 -5.05235Q0.915527 -7.61583 1.8141 -8.962Q2.71267 -10.3082 4.41488 -10.3082Z" fill="#262626" transform="translate(1024,271)" />
</g>
<path d="M0.461155 -10.1251L1.84462 -10.1251L3.97407 -1.56657L6.09673 -10.1251L7.63618 -10.1251L9.76563 -1.56657L11.8883 -10.1251L13.2785 -10.1251L10.7354 0L9.01286 0L6.87663 -8.78906L4.72005 0L2.9975 0L0.461155 -10.1251ZM21.5386 -4.1097L21.5386 -3.49935L15.8013 -3.49935Q15.8827 -2.21083 16.5778 -1.53605Q17.2729 -0.861274 18.514 -0.861274Q19.2329 -0.861274 19.9076 -1.0376Q20.5824 -1.21392 21.247 -1.56657L21.247 -0.386556Q20.5756 -0.101725 19.8703 0.0474718Q19.165 0.196669 18.4394 0.196669Q16.6219 0.196669 15.5606 -0.861274Q14.4992 -1.91922 14.4992 -3.72314Q14.4992 -5.58811 15.5063 -6.68335Q16.5134 -7.77859 18.2224 -7.77859Q19.755 -7.77859 20.6468 -6.79186Q21.5386 -5.80512 21.5386 -4.1097ZM20.2908 -4.47591Q20.2772 -5.49995 19.7177 -6.1103Q19.1583 -6.72065 18.2359 -6.72065Q17.1916 -6.72065 16.5643 -6.13064Q15.937 -5.54064 15.842 -4.46913L20.2908 -4.47591ZM30.0835 -4.1097L30.0835 -3.49935L24.3462 -3.49935Q24.4276 -2.21083 25.1227 -1.53605Q25.8179 -0.861274 27.0589 -0.861274Q27.7778 -0.861274 28.4526 -1.0376Q29.1273 -1.21392 29.7919 -1.56657L29.7919 -0.386556Q29.1206 -0.101725 28.4153 0.0474718Q27.71 0.196669 26.9843 0.196669Q25.1668 0.196669 24.1055 -0.861274Q23.0442 -1.91922 23.0442 -3.72314Q23.0442 -5.58811 24.0512 -6.68335Q25.0583 -7.77859 26.7673 -7.77859Q28.3 -7.77859 29.1918 -6.79186Q30.0835 -5.80512 30.0835 -4.1097ZM28.8357 -4.47591Q28.8222 -5.49995 28.2627 -6.1103Q27.7032 -6.72065 26.7809 -6.72065Q25.7365 -6.72065 25.1092 -6.13064Q24.4819 -5.54064 24.3869 -4.46913L28.8357 -4.47591ZM32.0841 -10.5523L33.3388 -10.5523L33.3388 -4.31993L37.0619 -7.59549L38.6556 -7.59549L34.6273 -4.04188L38.8251 0L37.1975 0L33.3388 -3.70958L33.3388 0L32.0841 0L32.0841 -10.5523Z" fill="#262626" transform="translate(564,310.5) translate(-19.43291473388672,0)" />
<path d="M2.73302 -8.9993L2.73302 -1.12576L4.38775 -1.12576Q6.48329 -1.12576 7.45646 -2.0752Q8.42963 -3.02463 8.42963 -5.0727Q8.42963 -7.1072 7.45646 -8.05325Q6.48329 -8.9993 4.38775 -8.9993L2.73302 -8.9993ZM1.36312 -10.1251L4.17752 -10.1251Q7.12077 -10.1251 8.49745 -8.90096Q9.87413 -7.67687 9.87413 -5.0727Q9.87413 -2.45497 8.49067 -1.22748Q7.1072 0 4.17752 0L1.36312 0L1.36312 -10.1251ZM15.4555 -3.81809Q13.9431 -3.81809 13.3599 -3.47222Q12.7767 -3.12636 12.7767 -2.29221Q12.7767 -1.6276 13.2141 -1.23766Q13.6515 -0.84771 14.4043 -0.847711Q15.4419 -0.847711 16.0692 -1.58352Q16.6965 -2.31934 16.6965 -3.54004L16.6965 -3.81809L15.4555 -3.81809ZM17.9443 -4.3335L17.9443 0L16.6965 0L16.6965 -1.15289Q16.2693 -0.461155 15.6318 -0.132243Q14.9943 0.196669 14.072 0.196669Q12.9055 0.196669 12.2172 -0.457764Q11.5289 -1.1122 11.5289 -2.21083Q11.5289 -3.49257 12.3867 -4.14361Q13.2446 -4.79465 14.9468 -4.79465L16.6965 -4.79465L16.6965 -4.91672Q16.6965 -5.77799 16.1302 -6.24932Q15.564 -6.72065 14.5399 -6.72065Q13.8889 -6.72065 13.2718 -6.56467Q12.6546 -6.40869 12.085 -6.09673L12.085 -7.24962Q12.7699 -7.51411 13.4142 -7.64635Q14.0584 -7.77859 14.6688 -7.77859Q16.3167 -7.77859 17.1305 -6.9241Q17.9443 -6.06961 17.9443 -4.3335ZM23.6749 0.705295Q23.1459 2.06163 22.644 2.47531Q22.1422 2.889 21.3013 2.889L20.3044 2.889L20.3044 1.84462L21.0368 1.84462Q21.5522 1.84462 21.837 1.60048Q22.1219 1.35634 22.4677 0.447591L22.6915 -0.12207L19.6194 -7.59549L20.9418 -7.59549L23.3154 -1.65473L25.689 -7.59549L27.0114 -7.59549L23.6749 0.705295Z" fill="#262626" transform="translate(98.60470877753363,154.23333333333332) rotate(-90) translate(-13.712566375732422,0)" />
</svg>
