<svg xmlns="http://www.w3.org/2000/svg" viewBox="0 0 800 500" width="800" height="500" role="img" aria-labelledby="chart-title">
<title id="chart-title">Sales Trend</title>
<rect x="0" y="0" width="800" height="500" fill="#FFFFFF" />
<text x="400" y="21.5" font-family="sans-serif" font-size="15" text-anchor="middle" font-weight="bold" fill="#262626">Sales Trend</text>
<rect x="60" y="40" width="720" height="410" fill="#EAEAF2" />
<line x1="92.72727272727272" y1="40" x2="92.72727272727272" y2="450" stroke="#FFFFFF" stroke-width="0.5" />
<line x1="165.45454545454547" y1="40" x2="165.45454545454547" y2="450" stroke="#FFFFFF" stroke-width="0.5" />
<line x1="238.1818181818182" y1="40" x2="238.1818181818182" y2="450" stroke="#FFFFFF" stroke-width="0.5" />
<line x1="310.90909090909093" y1="40" x2="310.90909090909093" y2="450" stroke="#FFFFFF" stroke-width="0.5" />
<line x1="383.6363636363637" y1="40" x2="383.6363636363637" y2="450" stroke="#FFFFFF" stroke-width="0.5" />
<line x1="456.3636363636364" y1="40" x2="456.3636363636364" y2="450" stroke="#FFFFFF" stroke-width="0.5" />
<line x1="529.0909090909091" y1="40" x2="529.0909090909091" y2="450" stroke="#FFFFFF" stroke-width="0.5" />
<line x1="601.8181818181819" y1="40" x2="601.8181818181819" y2="450" stroke="#FFFFFF" stroke-width="0.5" />
<line x1="674.5454545454546" y1="40" x2="674.5454545454546" y2="450" stroke="#FFFFFF" stroke-width="0.5" />
<line x1="747.2727272727274" y1="40" x2="747.2727272727274" y2="450" stroke="#FFFFFF" stroke-width="0.5" />
<line x1="60" y1="436.469489414695" x2="780" y2="436.469489414695" stroke="#FFFFFF" stroke-width="0.5" />
<line x1="60" y1="385.41095890410963" x2="780" y2="385.41095890410963" stroke="#FFFFFF" stroke-width="0.5" />
<line x1="60" y1="334.35242839352435" x2="780" y2="334.35242839352435" stroke="#FFFFFF" stroke-width="0.5" />
<line x1="60" y1="283.29389788293906" x2="780" y2="283.29389788293906" stroke="#FFFFFF" stroke-width="0.5" />
<line x1="60" y1="232.23536737235372" x2="780" y2="232.23536737235372" stroke="#FFFFFF" stroke-width="0.5" />
<line x1="60" y1="181.17683686176844" x2="780" y2="181.17683686176844" stroke="#FFFFFF" stroke-width="0.5" />
<line x1="60" y1="130.11830635118315" x2="780" y2="130.11830635118315" stroke="#FFFFFF" stroke-width="0.5" />
<line x1="60" y1="79.05977584059787" x2="780" y2="79.05977584059787" stroke="#FFFFFF" stroke-width="0.5" />
<line x1="92.72727272727272" y1="449.6" x2="92.72727272727272" y2="454.8611111111111" stroke="#262626" stroke-width="1.1111111111111112" />
<text x="92.72727272727272" y="470.7222222222222" font-family="sans-serif" font-size="11" text-anchor="middle" fill="#262626">1</text>
<line x1="165.45454545454547" y1="449.6" x2="165.45454545454547" y2="454.8611111111111" stroke="#262626" stroke-width="1.1111111111111112" />
<text x="165.45454545454547" y="470.7222222222222" font-family="sans-serif" font-size="11" text-anchor="middle" fill="#262626">2</text>
<line x1="238.1818181818182" y1="449.6" x2="238.1818181818182" y2="454.8611111111111" stroke="#262626" stroke-width="1.1111111111111112" />
<text x="238.1818181818182" y="470.7222222222222" font-family="sans-serif" font-size="11" text-anchor="middle" fill="#262626">3</text>
<line x1="310.90909090909093" y1="449.6" x2="310.90909090909093" y2="454.8611111111111" stroke="#262626" stroke-width="1.1111111111111112" />
<text x="310.90909090909093" y="470.7222222222222" font-family="sans-serif" font-size="11" text-anchor="middle" fill="#262626">4</text>
<line x1="383.6363636363637" y1="449.6" x2="383.6363636363637" y2="454.8611111111111" stroke="#262626" stroke-width="1.1111111111111112" />
<text x="383.6363636363637" y="470.7222222222222" font-family="sans-serif" font-size="11" text-anchor="middle" fill="#262626">5</text>
<line x1="456.3636363636364" y1="449.6" x2="456.3636363636364" y2="454.8611111111111" stroke="#262626" stroke-width="1.1111111111111112" />
<text x="456.3636363636364" y="470.7222222222222" font-family="sans-serif" font-size="11" text-anchor="middle" fill="#262626">6</text>
<line x1="529.0909090909091" y1="449.6" x2="529.0909090909091" y2="454.8611111111111" stroke="#262626" stroke-width="1.1111111111111112" />
<text x="529.0909090909091" y="470.7222222222222" font-family="sans-serif" font-size="11" text-anchor="middle" fill="#262626">7</text>
<line x1="601.8181818181819" y1="449.6" x2="601.8181818181819" y2="454.8611111111111" stroke="#262626" stroke-width="1.1111111111111112" />
<text x="601.8181818181819" y="470.7222222222222" font-family="sans-serif" font-size="11" text-anchor="middle" fill="#262626">8</text>
<line x1="674.5454545454546" y1="449.6" x2="674.5454545454546" y2="454.8611111111111" stroke="#262626" stroke-width="1.1111111111111112" />
<text x="674.5454545454546" y="470.7222222222222" font-family="sans-serif" font-size="11" text-anchor="middle" fill="#262626">9</text>
<line x1="747.2727272727274" y1="449.6" x2="747.2727272727274" y2="454.8611111111111" stroke="#262626" stroke-width="1.1111111111111112" />
<text x="747.2727272727274" y="470.7222222222222" font-family="sans-serif" font-size="11" text-anchor="middle" fill="#262626">10</text>
<line x1="63.63636363636363" y1="449.6" x2="63.63636363636363" y2="454.8611111111111" stroke="#262626" stroke-width="1.1111111111111112" />
<line x1="78.18181818181819" y1="449.6" x2="78.18181818181819" y2="454.8611111111111" stroke="#262626" stroke-width="1.1111111111111112" />
<line x1="107.27272727272728" y1="449.6" x2="107.27272727272728" y2="454.8611111111111" stroke="#262626" stroke-width="1.1111111111111112" />
<line x1="121.81818181818181" y1="449.6" x2="121.81818181818181" y2="454.8611111111111" stroke="#262626" stroke-width="1.1111111111111112" />
<line x1="136.36363636363637" y1="449.6" x2="136.36363636363637" y2="454.8611111111111" stroke="#262626" stroke-width="1.1111111111111112" />
<line x1="150.90909090909093" y1="449.6" x2="150.90909090909093" y2="454.8611111111111" stroke="#262626" stroke-width="1.1111111111111112" />
<line x1="180.00000000000003" y1="449.6" x2="180.00000000000003" y2="454.8611111111111" stroke="#262626" stroke-width="1.1111111111111112" />
<line x1="194.54545454545456" y1="449.6" x2="194.54545454545456" y2="454.8611111111111" stroke="#262626" stroke-width="1.1111111111111112" />
<line x1="209.09090909090912" y1="449.6" x2="209.09090909090912" y2="454.8611111111111" stroke="#262626" stroke-width="1.1111111111111112" />
<line x1="223.63636363636365" y1="449.6" x2="223.63636363636365" y2="454.8611111111111" stroke="#262626" stroke-width="1.1111111111111112" />
<line x1="252.72727272727275" y1="449.6" x2="252.72727272727275" y2="454.8611111111111" stroke="#262626" stroke-width="1.1111111111111112" />
<line x1="267.27272727272725" y1="449.6" x2="267.27272727272725" y2="454.8611111111111" stroke="#262626" stroke-width="1.1111111111111112" />
<line x1="281.81818181818187" y1="449.6" x2="281.81818181818187" y2="454.8611111111111" stroke="#262626" stroke-width="1.1111111111111112" />
<line x1="296.3636363636364" y1="449.6" x2="296.3636363636364" y2="454.8611111111111" stroke="#262626" stroke-width="1.1111111111111112" />
<line x1="325.4545454545455" y1="449.6" x2="325.4545454545455" y2="454.8611111111111" stroke="#262626" stroke-width="1.1111111111111112" />
<line x1="340.00000000000006" y1="449.6" x2="340.00000000000006" y2="454.8611111111111" stroke="#262626" stroke-width="1.1111111111111112" />
<line x1="354.54545454545456" y1="449.6" x2="354.54545454545456" y2="454.8611111111111" stroke="#262626" stroke-width="1.1111111111111112" />
<line x1="369.0909090909091" y1="449.6" x2="369.0909090909091" y2="454.8611111111111" stroke="#262626" stroke-width="1.1111111111111112" />
<line x1="398.18181818181824" y1="449.6" x2="398.18181818181824" y2="454.8611111111111" stroke="#262626" stroke-width="1.1111111111111112" />
<line x1="412.7272727272728" y1="449.6" x2="412.7272727272728" y2="454.8611111111111" stroke="#262626" stroke-width="1.1111111111111112" />
<line x1="427.2727272727273" y1="449.6" x2="427.2727272727273" y2="454.8611111111111" stroke="#262626" stroke-width="1.1111111111111112" />
<line x1="441.81818181818187" y1="449.6" x2="441.81818181818187" y2="454.8611111111111" stroke="#262626" stroke-width="1.1111111111111112" />
<line x1="470.90909090909093" y1="449.6" x2="470.90909090909093" y2="454.8611111111111" stroke="#262626" stroke-width="1.1111111111111112" />
<line x1="485.4545454545455" y1="449.6" x2="485.4545454545455" y2="454.8611111111111" stroke="#262626" stroke-width="1.1111111111111112" />
<line x1="500" y1="449.6" x2="500" y2="454.8611111111111" stroke="#262626" stroke-width="1.1111111111111112" />
<line x1="514.5454545454545" y1="449.6" x2="514.5454545454545" y2="454.8611111111111" stroke="#262626" stroke-width="1.1111111111111112" />
<line x1="543.6363636363637" y1="449.6" x2="543.6363636363637" y2="454.8611111111111" stroke="#262626" stroke-width="1.1111111111111112" />
<line x1="558.1818181818182" y1="449.6" x2="558.1818181818182" y2="454.8611111111111" stroke="#262626" stroke-width="1.1111111111111112" />
<line x1="572.7272727272727" y1="449.6" x2="572.7272727272727" y2="454.8611111111111" stroke="#262626" stroke-width="1.1111111111111112" />
<line x1="587.2727272727274" y1="449.6" x2="587.2727272727274" y2="454.8611111111111" stroke="#262626" stroke-width="1.1111111111111112" />
<line x1="616.3636363636364" y1="449.6" x2="616.3636363636364" y2="454.8611111111111" stroke="#262626" stroke-width="1.1111111111111112" />
<line x1="630.909090909091" y1="449.6" x2="630.909090909091" y2="454.8611111111111" stroke="#262626" stroke-width="1.1111111111111112" />
<line x1="645.4545454545455" y1="449.6" x2="645.4545454545455" y2="454.8611111111111" stroke="#262626" stroke-width="1.1111111111111112" />
<line x1="660.0000000000001" y1="449.6" x2="660.0000000000001" y2="454.8611111111111" stroke="#262626" stroke-width="1.1111111111111112" />
<line x1="689.0909090909091" y1="449.6" x2="689.0909090909091" y2="454.8611111111111" stroke="#262626" stroke-width="1.1111111111111112" />
<line x1="703.6363636363637" y1="449.6" x2="703.6363636363637" y2="454.8611111111111" stroke="#262626" stroke-width="1.1111111111111112" />
<line x1="718.1818181818182" y1="449.6" x2="718.1818181818182" y2="454.8611111111111" stroke="#262626" stroke-width="1.1111111111111112" />
<line x1="732.7272727272729" y1="449.6" x2="732.7272727272729" y2="454.8611111111111" stroke="#262626" stroke-width="1.1111111111111112" />
<line x1="761.8181818181819" y1="449.6" x2="761.8181818181819" y2="454.8611111111111" stroke="#262626" stroke-width="1.1111111111111112" />
<line x1="776.3636363636365" y1="449.6" x2="776.3636363636365" y2="454.8611111111111" stroke="#262626" stroke-width="1.1111111111111112" />
<line x1="55.138888888888886" y1="436.469489414695" x2="60.4" y2="436.469489414695" stroke="#262626" stroke-width="1.1111111111111112" />
<text x="50.27777777777777" y="440.469489414695" font-family="sans-serif" font-size="11" text-anchor="end" fill="#262626">2</text>
<line x1="55.138888888888886" y1="385.41095890410963" x2="60.4" y2="385.41095890410963" stroke="#262626" stroke-width="1.1111111111111112" />
<text x="50.27777777777777" y="389.41095890410963" font-family="sans-serif" font-size="11" text-anchor="end" fill="#262626">3</text>
<line x1="55.138888888888886" y1="334.35242839352435" x2="60.4" y2="334.35242839352435" stroke="#262626" stroke-width="1.1111111111111112" />
<text x="50.27777777777777" y="338.35242839352435" font-family="sans-serif" font-size="11" text-anchor="end" fill="#262626">4</text>
<line x1="55.138888888888886" y1="283.29389788293906" x2="60.4" y2="283.29389788293906" stroke="#262626" stroke-width="1.1111111111111112" />
<text x="50.27777777777777" y="287.29389788293906" font-family="sans-serif" font-size="11" text-anchor="end" fill="#262626">5</text>
<line x1="55.138888888888886" y1="232.23536737235372" x2="60.4" y2="232.23536737235372" stroke="#262626" stroke-width="1.1111111111111112" />
<text x="50.27777777777777" y="236.23536737235372" font-family="sans-serif" font-size="11" text-anchor="end" fill="#262626">6</text>
<line x1="55.138888888888886" y1="181.17683686176844" x2="60.4" y2="181.17683686176844" stroke="#262626" stroke-width="1.1111111111111112" />
<text x="50.27777777777777" y="185.17683686176844" font-family="sans-serif" font-size="11" text-anchor="end" fill="#262626">7</text>
<line x1="55.138888888888886" y1="130.11830635118315" x2="60.4" y2="130.11830635118315" stroke="#262626" stroke-width="1.1111111111111112" />
<text x="50.27777777777777" y="134.11830635118315" font-family="sans-serif" font-size="11" text-anchor="end" fill="#262626">8</text>
<line x1="55.138888888888886" y1="79.05977584059787" x2="60.4" y2="79.05977584059787" stroke="#262626" stroke-width="1.1111111111111112" />
<text x="50.27777777777777" y="83.05977584059787" font-family="sans-serif" font-size="11" text-anchor="end" fill="#262626">9</text>
<line x1="55.138888888888886" y1="446.681195516812" x2="60.4" y2="446.681195516812" stroke="#262626" stroke-width="1.1111111111111112" />
<line x1="55.138888888888886" y1="426.2577833125779" x2="60.4" y2="426.2577833125779" stroke="#262626" stroke-width="1.1111111111111112" />
<line x1="55.138888888888886" y1="416.04607721046085" x2="60.4" y2="416.04607721046085" stroke="#262626" stroke-width="1.1111111111111112" />
<line x1="55.138888888888886" y1="405.83437110834376" x2="60.4" y2="405.83437110834376" stroke="#262626" stroke-width="1.1111111111111112" />
<line x1="55.138888888888886" y1="395.6226650062267" x2="60.4" y2="395.6226650062267" stroke="#262626" stroke-width="1.1111111111111112" />
<line x1="55.138888888888886" y1="375.19925280199254" x2="60.4" y2="375.19925280199254" stroke="#262626" stroke-width="1.1111111111111112" />
<line x1="55.138888888888886" y1="364.98754669987557" x2="60.4" y2="364.98754669987557" stroke="#262626" stroke-width="1.1111111111111112" />
<line x1="55.138888888888886" y1="354.7758405977585" x2="60.4" y2="354.7758405977585" stroke="#262626" stroke-width="1.1111111111111112" />
<line x1="55.138888888888886" y1="344.5641344956414" x2="60.4" y2="344.5641344956414" stroke="#262626" stroke-width="1.1111111111111112" />
<line x1="55.138888888888886" y1="324.1407222914073" x2="60.4" y2="324.1407222914073" stroke="#262626" stroke-width="1.1111111111111112" />
<line x1="55.138888888888886" y1="313.9290161892902" x2="60.4" y2="313.9290161892902" stroke="#262626" stroke-width="1.1111111111111112" />
<line x1="55.138888888888886" y1="303.7173100871732" x2="60.4" y2="303.7173100871732" stroke="#262626" stroke-width="1.1111111111111112" />
<line x1="55.138888888888886" y1="293.50560398505615" x2="60.4" y2="293.50560398505615" stroke="#262626" stroke-width="1.1111111111111112" />
<line x1="55.138888888888886" y1="273.082191780822" x2="60.4" y2="273.082191780822" stroke="#262626" stroke-width="1.1111111111111112" />
<line x1="55.138888888888886" y1="262.87048567870494" x2="60.4" y2="262.87048567870494" stroke="#262626" stroke-width="1.1111111111111112" />
<line x1="55.138888888888886" y1="252.6587795765879" x2="60.4" y2="252.6587795765879" stroke="#262626" stroke-width="1.1111111111111112" />
<line x1="55.138888888888886" y1="242.4470734744708" x2="60.4" y2="242.4470734744708" stroke="#262626" stroke-width="1.1111111111111112" />
<line x1="55.138888888888886" y1="222.0236612702367" x2="60.4" y2="222.0236612702367" stroke="#262626" stroke-width="1.1111111111111112" />
<line x1="55.138888888888886" y1="211.8119551681196" x2="60.4" y2="211.8119551681196" stroke="#262626" stroke-width="1.1111111111111112" />
<line x1="55.138888888888886" y1="201.60024906600256" x2="60.4" y2="201.60024906600256" stroke="#262626" stroke-width="1.1111111111111112" />
<line x1="55.138888888888886" y1="191.38854296388553" x2="60.4" y2="191.38854296388553" stroke="#262626" stroke-width="1.1111111111111112" />
<line x1="55.138888888888886" y1="170.9651307596514" x2="60.4" y2="170.9651307596514" stroke="#262626" stroke-width="1.1111111111111112" />
<line x1="55.138888888888886" y1="160.7534246575343" x2="60.4" y2="160.7534246575343" stroke="#262626" stroke-width="1.1111111111111112" />
<line x1="55.138888888888886" y1="150.54171855541728" x2="60.4" y2="150.54171855541728" stroke="#262626" stroke-width="1.1111111111111112" />
<line x1="55.138888888888886" y1="140.33001245330024" x2="60.4" y2="140.33001245330024" stroke="#262626" stroke-width="1.1111111111111112" />
<line x1="55.138888888888886" y1="119.90660024906612" x2="60.4" y2="119.90660024906612" stroke="#262626" stroke-width="1.1111111111111112" />
<line x1="55.138888888888886" y1="109.69489414694903" x2="60.4" y2="109.69489414694903" stroke="#262626" stroke-width="1.1111111111111112" />
<line x1="55.138888888888886" y1="99.48318804483199" x2="60.4" y2="99.48318804483199" stroke="#262626" stroke-width="1.1111111111111112" />
<line x1="55.138888888888886" y1="89.2714819427149" x2="60.4" y2="89.2714819427149" stroke="#262626" stroke-width="1.1111111111111112" />
<line x1="55.138888888888886" y1="68.84806973848083" x2="60.4" y2="68.84806973848083" stroke="#262626" stroke-width="1.1111111111111112" />
<line x1="55.138888888888886" y1="58.63636363636374" x2="60.4" y2="58.63636363636374" stroke="#262626" stroke-width="1.1111111111111112" />
<line x1="55.138888888888886" y1="48.424657534246705" x2="60.4" y2="48.424657534246705" stroke="#262626" stroke-width="1.1111111111111112" />
<g class="series" aria-label="Revenue">
<polyline points="92.72727272727272,431.36363636363643 165.45454545454547,308.8231631382317 238.1818181818182,375.1992528019926 310.90909090909093,191.38854296388553 383.6363636363637,278.1880448318805 456.3636363636364,165.85927770859286 529.0909090909091,206.7061021170611 601.8181818181819,84.16562889165637 674.5454545454546,170.9651307596514 747.2727272727274,58.63636363636374" fill="none" stroke="#0000FF" stroke-width="1.5" />
</g>
<g class="spine">
<line x1="60" y1="450" x2="780" y2="450" stroke="#262626" stroke-width="0.8" />
</g>
<g class="spine">
<line x1="60" y1="40" x2="780" y2="40" stroke="#262626" stroke-width="0.8" />
</g>
<g class="spine">
<line x1="60" y1="40" x2="60" y2="450" stroke="#262626" stroke-width="0.8" />
</g>
<g class="spine">
<line x1="780" y1="40" x2="780" y2="450" stroke="#262626" stroke-width="0.8" />
</g>
<rect x="678.76" y="50" width="91.24000000000001" height="23.7" fill="#FFFFFF" fill-opacity="0.8" stroke="#CCCCCC" stroke-width="0.5" />
<g class="legend" aria-label="Chart legend">
<line x1="686.76" y1="61.85" x2="708.76" y2="61.85" stroke="#0000FF" stroke-width="1.5" />
<text x="717.56" y="64.7" font-family="sans-serif" font-size="11" text-anchor="start" fill="#262626">Revenue</text>
</g>
</svg>
