<svg xmlns="http://www.w3.org/2000/svg" viewBox="0 0 800 500" width="800" height="500" role="img" aria-labelledby="chart-title">
<title id="chart-title">Sales Trend</title>
<rect x="0" y="0" width="800" height="500" fill="#FFFFFF" />
<path d="M0.717773 -0.402832L0.717773 -2.74658Q1.35498 -2.21191 2.10205 -1.94458Q2.84912 -1.67725 3.61084 -1.67725Q4.05762 -1.67725 4.39087 -1.75781Q4.72412 -1.83838 4.94751 -1.9812Q5.1709 -2.12402 5.28076 -2.31812Q5.39063 -2.51221 5.39063 -2.73926Q5.39063 -3.04688 5.21484 -3.28857Q5.03906 -3.53027 4.73511 -3.73535Q4.43115 -3.94043 4.01367 -4.13086Q3.59619 -4.32129 3.11279 -4.51904Q1.88232 -5.03174 1.27808 -5.77148Q0.673828 -6.51123 0.673828 -7.55859Q0.673828 -8.37891 1.00342 -8.96851Q1.33301 -9.55811 1.90063 -9.93896Q2.46826 -10.3198 3.21533 -10.4993Q3.9624 -10.6787 4.79736 -10.6787Q5.61768 -10.6787 6.25122 -10.5798Q6.88477 -10.481 7.41943 -10.2759L7.41943 -8.08594Q7.15576 -8.26904 6.84448 -8.4082Q6.5332 -8.54736 6.20361 -8.63892Q5.87402 -8.73047 5.5481 -8.77441Q5.22217 -8.81836 4.9292 -8.81836Q4.52637 -8.81836 4.19678 -8.74146Q3.86719 -8.66455 3.64014 -8.52539Q3.41309 -8.38623 3.28857 -8.19214Q3.16406 -7.99805 3.16406 -7.75635Q3.16406 -7.49268 3.30322 -7.28394Q3.44238 -7.07519 3.69873 -6.88843Q3.95508 -6.70166 4.32129 -6.52222Q4.6875 -6.34277 5.14893 -6.15234Q5.77881 -5.88867 6.28052 -5.59204Q6.78223 -5.29541 7.14111 -4.92188Q7.5 -4.54834 7.69043 -4.0686Q7.88086 -3.58887 7.88086 -2.95166Q7.88086 -2.07275 7.54761 -1.47583Q7.21435 -0.878906 6.64307 -0.509033Q6.07178 -0.13916 5.31372 0.0219727Q4.55566 0.183105 3.71338 0.183105Q2.84912 0.183105 2.06909 0.0366211Q1.28906 -0.109863 0.717773 -0.402832ZM15.6226 0L13.4326 0L13.4326 -1.07666L13.4033 -1.07666Q12.6489 0.183105 11.1694 0.183105Q10.0781 0.183105 9.4519 -0.435791Q8.82568 -1.05469 8.82568 -2.0874Q8.82568 -4.27002 11.4111 -4.60693L13.4473 -4.87793Q13.4473 -6.1084 12.1143 -6.1084Q10.7739 -6.1084 9.56543 -5.31006L9.56543 -7.05322Q10.0488 -7.30225 10.8875 -7.49268Q11.7261 -7.6831 12.4146 -7.68311Q15.6226 -7.68311 15.6226 -4.48242L15.6226 0ZM13.4473 -3.04688L13.4473 -3.55225L12.085 -3.37646Q10.957 -3.22998 10.957 -2.3584Q10.957 -1.96289 11.2317 -1.71021Q11.5063 -1.45752 11.9751 -1.45752Q12.627 -1.45752 13.0371 -1.90796Q13.4473 -2.3584 13.4473 -3.04688ZM19.7681 0L17.4536 0L17.4536 -11.1035L19.7681 -11.1035L19.7681 0ZM28.4546 -3.09082L23.562 -3.09082Q23.6792 -1.45752 25.6201 -1.45752Q26.8579 -1.45752 27.7954 -2.04346L27.7954 -0.373535Q26.7554 0.183105 25.0928 0.183105Q23.2764 0.183105 22.2729 -0.823975Q21.2695 -1.83105 21.2695 -3.63281Q21.2695 -5.50049 22.3535 -6.5918Q23.4375 -7.68311 25.0195 -7.68311Q26.6602 -7.68311 27.5574 -6.70898Q28.4546 -5.73486 28.4546 -4.06494L28.4546 -3.09082ZM26.3086 -4.51172Q26.3086 -6.12305 25.0049 -6.12305Q24.4482 -6.12305 24.0417 -5.66162Q23.6353 -5.2002 23.5474 -4.51172L26.3086 -4.51172ZM29.3408 -0.197754L29.3408 -2.07275Q29.9121 -1.72852 30.4797 -1.56006Q31.0474 -1.3916 31.5527 -1.3916Q32.168 -1.3916 32.5232 -1.56006Q32.8784 -1.72852 32.8784 -2.07275Q32.8784 -2.29248 32.7173 -2.43896Q32.5562 -2.58545 32.3035 -2.69531Q32.0508 -2.80518 31.7505 -2.89307Q31.4502 -2.98096 31.1719 -3.09082Q30.7251 -3.25928 30.3845 -3.45337Q30.0439 -3.64746 29.8132 -3.90381Q29.5825 -4.16016 29.4617 -4.49707Q29.3408 -4.83398 29.3408 -5.29541Q29.3408 -5.92529 29.6155 -6.37939Q29.8901 -6.8335 30.3479 -7.1228Q30.8057 -7.41211 31.3953 -7.54761Q31.9849 -7.6831 32.6221 -7.68311Q33.1201 -7.68311 33.6328 -7.6062Q34.1455 -7.5293 34.6436 -7.38281L34.6436 -5.5957Q34.2041 -5.85205 33.7024 -5.98022Q33.2007 -6.1084 32.7173 -6.1084Q32.4902 -6.1084 32.2888 -6.06812Q32.0874 -6.02783 31.9336 -5.95093Q31.7798 -5.87402 31.6919 -5.75317Q31.604 -5.63232 31.604 -5.47852Q31.604 -5.27344 31.7358 -5.12695Q31.8677 -4.98047 32.0801 -4.87427Q32.2925 -4.76807 32.5525 -4.68384Q32.8125 -4.59961 33.0688 -4.51172Q33.5303 -4.35059 33.9038 -4.16016Q34.2773 -3.96973 34.5447 -3.71338Q34.812 -3.45703 34.9548 -3.11279Q35.0977 -2.76855 35.0977 -2.29248Q35.0977 -1.62598 34.8083 -1.15356Q34.519 -0.681152 34.0393 -0.384521Q33.5596 -0.0878906 32.9333 0.0476074Q32.3071 0.183105 31.6333 0.183105Q30.3955 0.183105 29.3408 -0.197754ZM48.1714 -8.57666L45.1758 -8.57666L45.1758 0L42.8027 0L42.8027 -8.57666L39.8218 -8.57666L39.8218 -10.5029L48.1714 -10.5029L48.1714 -8.57666ZM54.2505 -5.4126Q53.833 -5.63965 53.2764 -5.63965Q52.522 -5.63965 52.0972 -5.08667Q51.6724 -4.53369 51.6724 -3.58154L51.6724 0L49.3579 0L49.3579 -7.5L51.6724 -7.5L51.6724 -6.1084L51.7017 -6.1084Q52.251 -7.63184 53.6792 -7.63184Q54.0454 -7.63184 54.2505 -7.54395L54.2505 -5.4126ZM62.0654 -3.09082L57.1729 -3.09082Q57.29 -1.45752 59.231 -1.45752Q60.4688 -1.45752 61.4063 -2.04346L61.4063 -0.373535Q60.3662 0.183105 58.7036 0.183105Q56.8872 0.183105 55.8838 -0.823975Q54.8804 -1.83105 54.8804 -3.63281Q54.8804 -5.50049 55.9644 -6.5918Q57.0483 -7.68311 58.6304 -7.68311Q60.271 -7.68311 61.1682 -6.70898Q62.0654 -5.73486 62.0654 -4.06494L62.0654 -3.09082ZM59.9194 -4.51172Q59.9194 -6.12305 58.6157 -6.12305Q58.0591 -6.12305 57.6526 -5.66162Q57.2461 -5.2002 57.1582 -4.51172L59.9194 -4.51172ZM70.686 0L68.3789 0L68.3789 -4.16748Q68.3789 -5.91064 67.1338 -5.91064Q66.5332 -5.91064 66.145 -5.44922Q65.7568 -4.98779 65.7568 -4.27734L65.7568 0L63.4424 0L63.4424 -7.5L65.7568 -7.5L65.7568 -6.31348L65.7861 -6.31348Q66.6138 -7.68311 68.1958 -7.68311Q70.686 -7.68311 70.686 -4.59229L70.686 0ZM79.856 0L77.5415 0L77.5415 -1.03271L77.5122 -1.03271Q76.7212 0.183105 75.1904 0.183105Q73.7842 0.183105 72.9272 -0.809326Q72.0703 -1.80176 72.0703 -3.58154Q72.0703 -5.44189 73.0151 -6.5625Q73.96 -7.68311 75.4907 -7.68311Q76.9409 -7.68311 77.5122 -6.64307L77.5415 -6.64307L77.5415 -11.1035L79.856 -11.1035L79.856 0ZM77.5854 -3.64746L77.5854 -4.21143Q77.5854 -4.94385 77.1606 -5.42725Q76.7358 -5.91064 76.0547 -5.91064Q75.2856 -5.91064 74.8535 -5.3064Q74.4214 -4.70215 74.4214 -3.64746Q74.4214 -2.65869 74.8389 -2.12402Q75.2563 -1.58936 75.9961 -1.58936Q76.6992 -1.58936 77.1423 -2.15332Q77.5854 -2.71728 77.5854 -3.64746Z" fill="#262626" transform="translate(400,21.5) translate(-40.4150390625,0)" />
<rect x="60" y="40" width="720" height="410" fill="#EAEAF2" />
<line x1="60" y1="40" x2="60" y2="450" stroke="#FFFFFF" stroke-width="0.5" />
<line x1="128.8995215311005" y1="40" x2="128.8995215311005" y2="450" stroke="#FFFFFF" stroke-width="0.5" />
<line x1="197.79904306220098" y1="40" x2="197.79904306220098" y2="450" stroke="#FFFFFF" stroke-width="0.5" />
<line x1="266.69856459330146" y1="40" x2="266.69856459330146" y2="450" stroke="#FFFFFF" stroke-width="0.5" />
<line x1="335.59808612440196" y1="40" x2="335.59808612440196" y2="450" stroke="#FFFFFF" stroke-width="0.5" />
<line x1="404.49760765550246" y1="40" x2="404.49760765550246" y2="450" stroke="#FFFFFF" stroke-width="0.5" />
<line x1="473.3971291866029" y1="40" x2="473.3971291866029" y2="450" stroke="#FFFFFF" stroke-width="0.5" />
<line x1="542.2966507177034" y1="40" x2="542.2966507177034" y2="450" stroke="#FFFFFF" stroke-width="0.5" />
<line x1="611.1961722488039" y1="40" x2="611.1961722488039" y2="450" stroke="#FFFFFF" stroke-width="0.5" />
<line x1="680.0956937799044" y1="40" x2="680.0956937799044" y2="450" stroke="#FFFFFF" stroke-width="0.5" />
<line x1="748.9952153110049" y1="40" x2="748.9952153110049" y2="450" stroke="#FFFFFF" stroke-width="0.5" />
<line x1="60" y1="436.854204476709" x2="780" y2="436.854204476709" stroke="#FFFFFF" stroke-width="0.5" />
<line x1="60" y1="387.24742891712043" x2="780" y2="387.24742891712043" stroke="#FFFFFF" stroke-width="0.5" />
<line x1="60" y1="337.6406533575318" x2="780" y2="337.6406533575318" stroke="#FFFFFF" stroke-width="0.5" />
<line x1="60" y1="288.03387779794315" x2="780" y2="288.03387779794315" stroke="#FFFFFF" stroke-width="0.5" />
<line x1="60" y1="238.42710223835456" x2="780" y2="238.42710223835456" stroke="#FFFFFF" stroke-width="0.5" />
<line x1="60" y1="188.82032667876592" x2="780" y2="188.82032667876592" stroke="#FFFFFF" stroke-width="0.5" />
<line x1="60" y1="139.21355111917728" x2="780" y2="139.21355111917728" stroke="#FFFFFF" stroke-width="0.5" />
<line x1="60" y1="89.60677555958864" x2="780" y2="89.60677555958864" stroke="#FFFFFF" stroke-width="0.5" />
<line x1="60" y1="40" x2="780" y2="40" stroke="#FFFFFF" stroke-width="0.5" />
<line x1="60" y1="449.6" x2="60" y2="454.8611111111111" stroke="#262626" stroke-width="1.1111111111111112" />
<path d="M5.47852 -3.8833Q5.47852 -2.9165 5.30396 -2.16992Q5.12939 -1.42334 4.79907 -0.9104Q4.46875 -0.397461 3.98804 -0.131592Q3.50732 0.134277 2.89502 0.134277Q2.31494 0.134277 1.86108 -0.12085Q1.40723 -0.375977 1.0957 -0.864746Q0.78418 -1.35352 0.623047 -2.06519Q0.461914 -2.77686 0.461914 -3.69531Q0.461914 -4.70508 0.631104 -5.47852Q0.800293 -6.25195 1.12793 -6.77563Q1.45557 -7.29932 1.94165 -7.56519Q2.42773 -7.83105 3.05615 -7.83105Q5.47852 -7.83105 5.47852 -3.8833ZM4.57617 -3.79736Q4.57617 -7.08447 3.01318 -7.08447Q1.36426 -7.08447 1.36426 -3.73828Q1.36426 -0.617676 2.98096 -0.617676Q4.57617 -0.617676 4.57617 -3.79736Z" fill="#262626" transform="translate(60,470.7222222222222) translate(-2.96484375,0)" />
<line x1="128.8995215311005" y1="449.6" x2="128.8995215311005" y2="454.8611111111111" stroke="#262626" stroke-width="1.1111111111111112" />
<path d="M3.88867 0L3.00781 0L3.00781 -6.65479Q2.90576 -6.55273 2.70972 -6.42114Q2.51367 -6.28955 2.26929 -6.16064Q2.0249 -6.03174 1.75366 -5.91895Q1.48242 -5.80615 1.22461 -5.7417L1.22461 -6.6333Q1.51465 -6.71387 1.8396 -6.85083Q2.16455 -6.98779 2.47876 -7.15698Q2.79297 -7.32617 3.07227 -7.51147Q3.35156 -7.69678 3.55566 -7.87402L3.88867 -7.87402L3.88867 0Z" fill="#262626" transform="translate(128.8995215311005,470.7222222222222) translate(-2.96484375,0)" />
<line x1="197.79904306220098" y1="449.6" x2="197.79904306220098" y2="454.8611111111111" stroke="#262626" stroke-width="1.1111111111111112" />
<path d="M4.14648 -5.68262Q4.14648 -6.03711 4.03638 -6.30029Q3.92627 -6.56348 3.7356 -6.73804Q3.54492 -6.9126 3.28711 -6.99854Q3.0293 -7.08447 2.72852 -7.08447Q2.4707 -7.08447 2.22363 -7.01465Q1.97656 -6.94482 1.74292 -6.82129Q1.50928 -6.69775 1.29175 -6.52588Q1.07422 -6.354 0.88623 -6.14453L0.88623 -7.08984Q1.25684 -7.44971 1.71606 -7.64038Q2.17529 -7.83105 2.83594 -7.83105Q3.30859 -7.83105 3.71143 -7.69409Q4.11426 -7.55713 4.40967 -7.29395Q4.70508 -7.03076 4.87427 -6.64404Q5.04346 -6.25732 5.04346 -5.75781Q5.04346 -5.30127 4.93872 -4.93066Q4.83398 -4.56006 4.62183 -4.23242Q4.40967 -3.90479 4.0874 -3.604Q3.76514 -3.30322 3.33008 -2.9917Q2.7876 -2.60498 2.43579 -2.33105Q2.08398 -2.05713 1.8772 -1.81812Q1.67041 -1.5791 1.58716 -1.34009Q1.50391 -1.10107 1.50391 -0.789551L5.33887 -0.789551L5.33887 0L0.585449 0L0.585449 -0.381348Q0.585449 -0.875488 0.692871 -1.25146Q0.800293 -1.62744 1.04736 -1.96582Q1.29443 -2.3042 1.69458 -2.64258Q2.09473 -2.98096 2.6748 -3.40527Q3.09375 -3.70605 3.37573 -3.97998Q3.65771 -4.25391 3.82959 -4.52783Q4.00146 -4.80176 4.07397 -5.08374Q4.14648 -5.36572 4.14648 -5.68262Z" fill="#262626" transform="translate(197.79904306220098,470.7222222222222) translate(-2.96484375,0)" />
<line x1="266.69856459330146" y1="449.6" x2="266.69856459330146" y2="454.8611111111111" stroke="#262626" stroke-width="1.1111111111111112" />
<path d="M5.11865 -2.18066Q5.11865 -1.65967 4.92261 -1.23267Q4.72656 -0.805664 4.36938 -0.502197Q4.01221 -0.19873 3.5127 -0.0322266Q3.01318 0.134277 2.41162 0.134277Q1.31055 0.134277 0.660645 -0.284668L0.660645 -1.22998Q1.43945 -0.617676 2.44385 -0.617676Q2.84668 -0.617676 3.17163 -0.719727Q3.49658 -0.821777 3.73022 -1.01514Q3.96387 -1.2085 4.09009 -1.48242Q4.21631 -1.75635 4.21631 -2.1001Q4.21631 -3.60938 2.06787 -3.60938L1.42871 -3.60938L1.42871 -4.35596L2.03564 -4.35596Q3.93701 -4.35596 3.93701 -5.77393Q3.93701 -7.08447 2.48682 -7.08447Q1.67041 -7.08447 0.956055 -6.53662L0.956055 -7.39063Q1.69189 -7.83105 2.70703 -7.83105Q3.19043 -7.83105 3.58252 -7.69678Q3.97461 -7.5625 4.25391 -7.3208Q4.5332 -7.0791 4.68628 -6.74072Q4.83936 -6.40234 4.83936 -5.99414Q4.83936 -4.47412 3.30322 -4.03906L3.30322 -4.01758Q3.69531 -3.97461 4.02832 -3.8269Q4.36133 -3.6792 4.60303 -3.44287Q4.84473 -3.20654 4.98169 -2.88696Q5.11865 -2.56738 5.11865 -2.18066Z" fill="#262626" transform="translate(266.69856459330146,470.7222222222222) translate(-2.96484375,0)" />
<line x1="335.59808612440196" y1="449.6" x2="335.59808612440196" y2="454.8611111111111" stroke="#262626" stroke-width="1.1111111111111112" />
<path d="M4.56543 -7.70215L4.56543 -2.61572L5.55371 -2.61572L5.55371 -1.81006L4.56543 -1.81006L4.56543 0L3.69531 0L3.69531 -1.81006L0.0751953 -1.81006L0.0751953 -2.57275Q0.580078 -3.14209 1.0957 -3.78931Q1.61133 -4.43652 2.0813 -5.10254Q2.55127 -5.76855 2.95142 -6.43188Q3.35156 -7.09521 3.62549 -7.70215L4.56543 -7.70215ZM1.06885 -2.61572L3.69531 -2.61572L3.69531 -6.38623Q3.29248 -5.68262 2.93262 -5.12939Q2.57275 -4.57617 2.2478 -4.125Q1.92285 -3.67383 1.62744 -3.30859Q1.33203 -2.94336 1.06885 -2.61572Z" fill="#262626" transform="translate(335.59808612440196,470.7222222222222) translate(-2.96484375,0)" />
<line x1="404.49760765550246" y1="449.6" x2="404.49760765550246" y2="454.8611111111111" stroke="#262626" stroke-width="1.1111111111111112" />
<path d="M5.20459 -2.35254Q5.20459 -1.78857 5.01123 -1.33203Q4.81787 -0.875488 4.46069 -0.547852Q4.10352 -0.220215 3.59863 -0.0429688Q3.09375 0.134277 2.47607 0.134277Q1.40186 0.134277 0.880859 -0.187988L0.880859 -1.12256Q1.66504 -0.617676 2.48682 -0.617676Q2.90576 -0.617676 3.24146 -0.741211Q3.57715 -0.864746 3.81348 -1.08496Q4.0498 -1.30518 4.17603 -1.6167Q4.30225 -1.92822 4.30225 -2.29883Q4.30225 -3.05078 3.79736 -3.47778Q3.29248 -3.90479 2.33105 -3.90479Q2.17529 -3.90479 2.00342 -3.89941Q1.83154 -3.89404 1.65967 -3.88599Q1.48779 -3.87793 1.32397 -3.86719Q1.16016 -3.85645 1.02588 -3.84033L1.28906 -7.70215L4.8501 -7.70215L4.8501 -6.90723L2.05176 -6.90723L1.896 -4.646Q2.06787 -4.65674 2.26123 -4.66479Q2.45459 -4.67285 2.60498 -4.67285Q3.21729 -4.67285 3.70068 -4.51172Q4.18408 -4.35059 4.51978 -4.05249Q4.85547 -3.75439 5.03003 -3.32202Q5.20459 -2.88965 5.20459 -2.35254Z" fill="#262626" transform="translate(404.49760765550246,470.7222222222222) translate(-2.96484375,0)" />
<line x1="473.3971291866029" y1="449.6" x2="473.3971291866029" y2="454.8611111111111" stroke="#262626" stroke-width="1.1111111111111112" />
<path d="M5.48926 -2.44385Q5.48926 -1.87988 5.30664 -1.40723Q5.12402 -0.93457 4.80176 -0.59082Q4.47949 -0.24707 4.03369 -0.0563965Q3.58789 0.134277 3.06689 0.134277Q2.48682 0.134277 2.02759 -0.107422Q1.56836 -0.349121 1.24878 -0.802979Q0.929199 -1.25684 0.762695 -1.91211Q0.596191 -2.56738 0.596191 -3.38916Q0.596191 -4.39355 0.819092 -5.21265Q1.04199 -6.03174 1.45288 -6.6145Q1.86377 -7.19727 2.44385 -7.51416Q3.02393 -7.83105 3.73828 -7.83105Q4.5332 -7.83105 5.0166 -7.61084L5.0166 -6.77832Q4.42041 -7.08447 3.75977 -7.08447Q3.24414 -7.08447 2.83057 -6.85352Q2.41699 -6.62256 2.12158 -6.20093Q1.82617 -5.7793 1.66772 -5.18311Q1.50928 -4.58691 1.50928 -3.85645L1.53076 -3.85645Q2.0625 -4.81787 3.28711 -4.81787Q3.79199 -4.81787 4.19751 -4.646Q4.60303 -4.47412 4.89038 -4.15991Q5.17773 -3.8457 5.3335 -3.41064Q5.48926 -2.97559 5.48926 -2.44385ZM4.58691 -2.33105Q4.58691 -2.73389 4.48486 -3.05615Q4.38281 -3.37842 4.19214 -3.604Q4.00146 -3.82959 3.72217 -3.95044Q3.44287 -4.07129 3.08838 -4.07129Q2.76074 -4.07129 2.48145 -3.94775Q2.20215 -3.82422 1.99805 -3.61206Q1.79395 -3.3999 1.67847 -3.11792Q1.56299 -2.83594 1.56299 -2.51904Q1.56299 -2.12158 1.67578 -1.77515Q1.78857 -1.42871 1.99268 -1.1709Q2.19678 -0.913086 2.47876 -0.765381Q2.76074 -0.617676 3.10449 -0.617676Q3.4375 -0.617676 3.71143 -0.743896Q3.98535 -0.870117 4.17871 -1.0957Q4.37207 -1.32129 4.47949 -1.6355Q4.58691 -1.94971 4.58691 -2.33105Z" fill="#262626" transform="translate(473.3971291866029,470.7222222222222) translate(-2.96484375,0)" />
<line x1="542.2966507177034" y1="449.6" x2="542.2966507177034" y2="454.8611111111111" stroke="#262626" stroke-width="1.1111111111111112" />
<path d="M5.4248 -7.19189Q5.24756 -6.88574 4.9978 -6.4292Q4.74805 -5.97266 4.46875 -5.40332Q4.18945 -4.83398 3.89941 -4.17871Q3.60938 -3.52344 3.35693 -2.8252Q3.10449 -2.12695 2.91382 -1.40991Q2.72314 -0.692871 2.63721 0L1.69189 0Q1.78857 -0.6875 1.98999 -1.40454Q2.19141 -2.12158 2.44653 -2.81177Q2.70166 -3.50195 2.98633 -4.14111Q3.271 -4.78027 3.53955 -5.31738Q3.80811 -5.85449 4.03101 -6.26538Q4.25391 -6.67627 4.38818 -6.90723L0.526367 -6.90723L0.526367 -7.70215L5.4248 -7.70215L5.4248 -7.19189Z" fill="#262626" transform="translate(542.2966507177034,470.7222222222222) translate(-2.96484375,0)" />
<line x1="611.1961722488039" y1="449.6" x2="611.1961722488039" y2="454.8611111111111" stroke="#262626" stroke-width="1.1111111111111112" />
<path d="M0.483398 -2.14844Q0.483398 -2.45459 0.580078 -2.76343Q0.676758 -3.07227 0.856689 -3.34082Q1.03662 -3.60938 1.30249 -3.82959Q1.56836 -4.0498 1.90674 -4.17871Q1.40723 -4.45801 1.11182 -4.89575Q0.816406 -5.3335 0.816406 -5.86523Q0.816406 -6.28955 0.980225 -6.64941Q1.14404 -7.00928 1.43408 -7.27246Q1.72412 -7.53564 2.12158 -7.68335Q2.51904 -7.83105 2.98096 -7.83105Q3.44824 -7.83105 3.8457 -7.68066Q4.24316 -7.53027 4.5332 -7.26709Q4.82324 -7.00391 4.98438 -6.64404Q5.14551 -6.28418 5.14551 -5.86523Q5.14551 -5.3335 4.8501 -4.89575Q4.55469 -4.45801 4.06592 -4.17871Q4.39893 -4.0498 4.66211 -3.82959Q4.92529 -3.60937 5.10522 -3.34082Q5.28516 -3.07227 5.38184 -2.76343Q5.47852 -2.45459 5.47852 -2.14844Q5.47852 -1.64355 5.2959 -1.22461Q5.11328 -0.805664 4.78296 -0.507568Q4.45264 -0.209473 3.99341 -0.0429688Q3.53418 0.123535 2.98096 0.123535Q2.43311 0.123535 1.97656 -0.0429688Q1.52002 -0.209473 1.18701 -0.507568Q0.854004 -0.805664 0.668701 -1.22461Q0.483398 -1.64355 0.483398 -2.14844ZM1.43945 -2.22363Q1.43945 -1.86377 1.54956 -1.57373Q1.65967 -1.28369 1.86108 -1.07959Q2.0625 -0.875488 2.34985 -0.765381Q2.63721 -0.655273 2.98633 -0.655273Q3.32471 -0.655273 3.60938 -0.768066Q3.89404 -0.880859 4.10083 -1.08496Q4.30762 -1.28906 4.4231 -1.5791Q4.53857 -1.86914 4.53857 -2.22363Q4.53857 -2.5459 4.42847 -2.82788Q4.31836 -3.10986 4.11426 -3.32471Q3.91016 -3.53955 3.62549 -3.66309Q3.34082 -3.78662 2.98633 -3.78662Q2.65332 -3.78662 2.37134 -3.67114Q2.08936 -3.55566 1.88257 -3.34888Q1.67578 -3.14209 1.55762 -2.85474Q1.43945 -2.56738 1.43945 -2.22363ZM1.71338 -5.79541Q1.71338 -5.52148 1.81274 -5.28784Q1.91211 -5.0542 2.08667 -4.87964Q2.26123 -4.70508 2.49219 -4.60571Q2.72314 -4.50635 2.98633 -4.50635Q3.24951 -4.50635 3.48315 -4.6084Q3.7168 -4.71045 3.88867 -4.88501Q4.06055 -5.05957 4.1626 -5.29321Q4.26465 -5.52685 4.26465 -5.79541Q4.26465 -6.07471 4.16528 -6.31104Q4.06592 -6.54736 3.89404 -6.71924Q3.72217 -6.89111 3.48853 -6.99048Q3.25488 -7.08984 2.98633 -7.08984Q2.70166 -7.08984 2.46802 -6.98779Q2.23438 -6.88574 2.06519 -6.71118Q1.896 -6.53662 1.80469 -6.30029Q1.71338 -6.06396 1.71338 -5.79541Z" fill="#262626" transform="translate(611.1961722488039,470.7222222222222) translate(-2.96484375,0)" />
<line x1="680.0956937799044" y1="449.6" x2="680.0956937799044" y2="454.8611111111111" stroke="#262626" stroke-width="1.1111111111111112" />
<path d="M5.39258 -4.31299Q5.39258 -3.25488 5.18311 -2.43042Q4.97363 -1.60596 4.5708 -1.03394Q4.16797 -0.461914 3.58789 -0.163818Q3.00781 0.134277 2.2666 0.134277Q1.50391 0.134277 0.923828 -0.134277L0.923828 -0.977539Q1.56299 -0.617676 2.28809 -0.617676Q2.80908 -0.617676 3.21997 -0.83252Q3.63086 -1.04736 3.91553 -1.45825Q4.2002 -1.86914 4.35059 -2.4707Q4.50098 -3.07227 4.50098 -3.85107L4.47949 -3.85107Q3.98535 -2.85742 2.76074 -2.85742Q2.2666 -2.85742 1.85303 -3.03198Q1.43945 -3.20654 1.13867 -3.52612Q0.837891 -3.8457 0.671387 -4.28613Q0.504883 -4.72656 0.504883 -5.2583Q0.504883 -5.82764 0.690186 -6.30029Q0.875488 -6.77295 1.20581 -7.11401Q1.53613 -7.45508 1.98999 -7.64307Q2.44385 -7.83105 2.98096 -7.83105Q3.56104 -7.83105 4.00952 -7.59741Q4.45801 -7.36377 4.76416 -6.91528Q5.07031 -6.4668 5.23145 -5.81152Q5.39258 -5.15625 5.39258 -4.31299ZM4.44189 -5.10254Q4.44189 -5.54834 4.32642 -5.91357Q4.21094 -6.27881 4.00684 -6.53931Q3.80273 -6.7998 3.52075 -6.94214Q3.23877 -7.08447 2.90576 -7.08447Q2.58887 -7.08447 2.31494 -6.95825Q2.04102 -6.83203 1.8396 -6.60376Q1.63818 -6.37549 1.52271 -6.06128Q1.40723 -5.74707 1.40723 -5.37646Q1.40723 -4.96826 1.51733 -4.646Q1.62744 -4.32373 1.83154 -4.10083Q2.03564 -3.87793 2.323 -3.75977Q2.61035 -3.6416 2.95947 -3.6416Q3.26563 -3.6416 3.53687 -3.75708Q3.80811 -3.87256 4.00952 -4.0686Q4.21094 -4.26465 4.32642 -4.53052Q4.44189 -4.79639 4.44189 -5.10254Z" fill="#262626" transform="translate(680.0956937799044,470.7222222222222) translate(-2.96484375,0)" />
<line x1="748.9952153110049" y1="449.6" x2="748.9952153110049" y2="454.8611111111111" stroke="#262626" stroke-width="1.1111111111111112" />
<path d="M3.88867 0L3.00781 0L3.00781 -6.65479Q2.90576 -6.55273 2.70972 -6.42114Q2.51367 -6.28955 2.26929 -6.16064Q2.0249 -6.03174 1.75366 -5.91895Q1.48242 -5.80615 1.22461 -5.7417L1.22461 -6.6333Q1.51465 -6.71387 1.8396 -6.85083Q2.16455 -6.98779 2.47876 -7.15698Q2.79297 -7.32617 3.07227 -7.51147Q3.35156 -7.69678 3.55566 -7.87402L3.88867 -7.87402L3.88867 0ZM11.4082 -3.8833Q11.4082 -2.9165 11.2336 -2.16992Q11.0591 -1.42334 10.7288 -0.9104Q10.3984 -0.397461 9.91772 -0.131592Q9.43701 0.134277 8.82471 0.134277Q8.24463 0.134277 7.79077 -0.12085Q7.33691 -0.375977 7.02539 -0.864746Q6.71387 -1.35352 6.55273 -2.06519Q6.3916 -2.77686 6.3916 -3.69531Q6.3916 -4.70508 6.56079 -5.47852Q6.72998 -6.25195 7.05762 -6.77563Q7.38525 -7.29932 7.87134 -7.56519Q8.35742 -7.83105 8.98584 -7.83105Q11.4082 -7.83105 11.4082 -3.8833ZM10.5059 -3.79736Q10.5059 -7.08447 8.94287 -7.08447Q7.29395 -7.08447 7.29395 -3.73828Q7.29395 -0.617676 8.91064 -0.617676Q10.5059 -0.617676 10.5059 -3.79736Z" fill="#262626" transform="translate(748.9952153110049,470.7222222222222) translate(-5.9296875,0)" />
<line x1="55.138888888888886" y1="436.854204476709" x2="60.4" y2="436.854204476709" stroke="#262626" stroke-width="1.1111111111111112" />
<path d="M4.14648 -5.68262Q4.14648 -6.03711 4.03638 -6.30029Q3.92627 -6.56348 3.7356 -6.73804Q3.54492 -6.9126 3.28711 -6.99854Q3.0293 -7.08447 2.72852 -7.08447Q2.4707 -7.08447 2.22363 -7.01465Q1.97656 -6.94482 1.74292 -6.82129Q1.50928 -6.69775 1.29175 -6.52588Q1.07422 -6.354 0.88623 -6.14453L0.88623 -7.08984Q1.25684 -7.44971 1.71606 -7.64038Q2.17529 -7.83105 2.83594 -7.83105Q3.30859 -7.83105 3.71143 -7.69409Q4.11426 -7.55713 4.40967 -7.29395Q4.70508 -7.03076 4.87427 -6.64404Q5.04346 -6.25732 5.04346 -5.75781Q5.04346 -5.30127 4.93872 -4.93066Q4.83398 -4.56006 4.62183 -4.23242Q4.40967 -3.90479 4.0874 -3.604Q3.76514 -3.30322 3.33008 -2.9917Q2.7876 -2.60498 2.43579 -2.33105Q2.08398 -2.05713 1.8772 -1.81812Q1.67041 -1.5791 1.58716 -1.34009Q1.50391 -1.10107 1.50391 -0.789551L5.33887 -0.789551L5.33887 0L0.585449 0L0.585449 -0.381348Q0.585449 -0.875488 0.692871 -1.25146Q0.800293 -1.62744 1.04736 -1.96582Q1.29443 -2.3042 1.69458 -2.64258Q2.09473 -2.98096 2.6748 -3.40527Q3.09375 -3.70605 3.37573 -3.97998Q3.65771 -4.25391 3.82959 -4.52783Q4.00146 -4.80176 4.07397 -5.08374Q4.14648 -5.36572 4.14648 -5.68262Z" fill="#262626" transform="translate(50.27777777777777,440.854204476709) translate(-5.9296875,0)" />
<line x1="55.138888888888886" y1="387.24742891712043" x2="60.4" y2="387.24742891712043" stroke="#262626" stroke-width="1.1111111111111112" />
<path d="M5.11865 -2.18066Q5.11865 -1.65967 4.92261 -1.23267Q4.72656 -0.805664 4.36938 -0.502197Q4.01221 -0.19873 3.5127 -0.0322266Q3.01318 0.134277 2.41162 0.134277Q1.31055 0.134277 0.660645 -0.284668L0.660645 -1.22998Q1.43945 -0.617676 2.44385 -0.617676Q2.84668 -0.617676 3.17163 -0.719727Q3.49658 -0.821777 3.73022 -1.01514Q3.96387 -1.2085 4.09009 -1.48242Q4.21631 -1.75635 4.21631 -2.1001Q4.21631 -3.60938 2.06787 -3.60938L1.42871 -3.60938L1.42871 -4.35596L2.03564 -4.35596Q3.93701 -4.35596 3.93701 -5.77393Q3.93701 -7.08447 2.48682 -7.08447Q1.67041 -7.08447 0.956055 -6.53662L0.956055 -7.39063Q1.69189 -7.83105 2.70703 -7.83105Q3.19043 -7.83105 3.58252 -7.69678Q3.97461 -7.5625 4.25391 -7.3208Q4.5332 -7.0791 4.68628 -6.74072Q4.83936 -6.40234 4.83936 -5.99414Q4.83936 -4.47412 3.30322 -4.03906L3.30322 -4.01758Q3.69531 -3.97461 4.02832 -3.8269Q4.36133 -3.6792 4.60303 -3.44287Q4.84473 -3.20654 4.98169 -2.88696Q5.11865 -2.56738 5.11865 -2.18066Z" fill="#262626" transform="translate(50.27777777777777,391.24742891712043) translate(-5.9296875,0)" />
<line x1="55.138888888888886" y1="337.6406533575318" x2="60.4" y2="337.6406533575318" stroke="#262626" stroke-width="1.1111111111111112" />
<path d="M4.56543 -7.70215L4.56543 -2.61572L5.55371 -2.61572L5.55371 -1.81006L4.56543 -1.81006L4.56543 0L3.69531 0L3.69531 -1.81006L0.0751953 -1.81006L0.0751953 -2.57275Q0.580078 -3.14209 1.0957 -3.78931Q1.61133 -4.43652 2.0813 -5.10254Q2.55127 -5.76855 2.95142 -6.43188Q3.35156 -7.09521 3.62549 -7.70215L4.56543 -7.70215ZM1.06885 -2.61572L3.69531 -2.61572L3.69531 -6.38623Q3.29248 -5.68262 2.93262 -5.12939Q2.57275 -4.57617 2.2478 -4.125Q1.92285 -3.67383 1.62744 -3.30859Q1.33203 -2.94336 1.06885 -2.61572Z" fill="#262626" transform="translate(50.27777777777777,341.6406533575318) translate(-5.9296875,0)" />
<line x1="55.138888888888886" y1="288.03387779794315" x2="60.4" y2="288.03387779794315" stroke="#262626" stroke-width="1.1111111111111112" />
<path d="M5.20459 -2.35254Q5.20459 -1.78857 5.01123 -1.33203Q4.81787 -0.875488 4.46069 -0.547852Q4.10352 -0.220215 3.59863 -0.0429688Q3.09375 0.134277 2.47607 0.134277Q1.40186 0.134277 0.880859 -0.187988L0.880859 -1.12256Q1.66504 -0.617676 2.48682 -0.617676Q2.90576 -0.617676 3.24146 -0.741211Q3.57715 -0.864746 3.81348 -1.08496Q4.0498 -1.30518 4.17603 -1.6167Q4.30225 -1.92822 4.30225 -2.29883Q4.30225 -3.05078 3.79736 -3.47778Q3.29248 -3.90479 2.33105 -3.90479Q2.17529 -3.90479 2.00342 -3.89941Q1.83154 -3.89404 1.65967 -3.88599Q1.48779 -3.87793 1.32397 -3.86719Q1.16016 -3.85645 1.02588 -3.84033L1.28906 -7.70215L4.8501 -7.70215L4.8501 -6.90723L2.05176 -6.90723L1.896 -4.646Q2.06787 -4.65674 2.26123 -4.66479Q2.45459 -4.67285 2.60498 -4.67285Q3.21729 -4.67285 3.70068 -4.51172Q4.18408 -4.35059 4.51978 -4.05249Q4.85547 -3.75439 5.03003 -3.32202Q5.20459 -2.88965 5.20459 -2.35254Z" fill="#262626" transform="translate(50.27777777777777,292.03387779794315) translate(-5.9296875,0)" />
<line x1="55.138888888888886" y1="238.42710223835456" x2="60.4" y2="238.42710223835456" stroke="#262626" stroke-width="1.1111111111111112" />
<path d="M5.48926 -2.44385Q5.48926 -1.87988 5.30664 -1.40723Q5.12402 -0.93457 4.80176 -0.59082Q4.47949 -0.24707 4.03369 -0.0563965Q3.58789 0.134277 3.06689 0.134277Q2.48682 0.134277 2.02759 -0.107422Q1.56836 -0.349121 1.24878 -0.802979Q0.929199 -1.25684 0.762695 -1.91211Q0.596191 -2.56738 0.596191 -3.38916Q0.596191 -4.39355 0.819092 -5.21265Q1.04199 -6.03174 1.45288 -6.6145Q1.86377 -7.19727 2.44385 -7.51416Q3.02393 -7.83105 3.73828 -7.83105Q4.5332 -7.83105 5.0166 -7.61084L5.0166 -6.77832Q4.42041 -7.08447 3.75977 -7.08447Q3.24414 -7.08447 2.83057 -6.85352Q2.41699 -6.62256 2.12158 -6.20093Q1.82617 -5.7793 1.66772 -5.18311Q1.50928 -4.58691 1.50928 -3.85645L1.53076 -3.85645Q2.0625 -4.81787 3.28711 -4.81787Q3.79199 -4.81787 4.19751 -4.646Q4.60303 -4.47412 4.89038 -4.15991Q5.17773 -3.8457 5.3335 -3.41064Q5.48926 -2.97559 5.48926 -2.44385ZM4.58691 -2.33105Q4.58691 -2.73389 4.48486 -3.05615Q4.38281 -3.37842 4.19214 -3.604Q4.00146 -3.82959 3.72217 -3.95044Q3.44287 -4.07129 3.08838 -4.07129Q2.76074 -4.07129 2.48145 -3.94775Q2.20215 -3.82422 1.99805 -3.61206Q1.79395 -3.3999 1.67847 -3.11792Q1.56299 -2.83594 1.56299 -2.51904Q1.56299 -2.12158 1.67578 -1.77515Q1.78857 -1.42871 1.99268 -1.1709Q2.19678 -0.913086 2.47876 -0.765381Q2.76074 -0.617676 3.10449 -0.617676Q3.4375 -0.617676 3.71143 -0.743896Q3.98535 -0.870117 4.17871 -1.0957Q4.37207 -1.32129 4.47949 -1.6355Q4.58691 -1.94971 4.58691 -2.33105Z" fill="#262626" transform="translate(50.27777777777777,242.42710223835456) translate(-5.9296875,0)" />
<line x1="55.138888888888886" y1="188.82032667876592" x2="60.4" y2="188.82032667876592" stroke="#262626" stroke-width="1.1111111111111112" />
<path d="M5.4248 -7.19189Q5.24756 -6.88574 4.9978 -6.4292Q4.74805 -5.97266 4.46875 -5.40332Q4.18945 -4.83398 3.89941 -4.17871Q3.60938 -3.52344 3.35693 -2.8252Q3.10449 -2.12695 2.91382 -1.40991Q2.72314 -0.692871 2.63721 0L1.69189 0Q1.78857 -0.6875 1.98999 -1.40454Q2.19141 -2.12158 2.44653 -2.81177Q2.70166 -3.50195 2.98633 -4.14111Q3.271 -4.78027 3.53955 -5.31738Q3.80811 -5.85449 4.03101 -6.26538Q4.25391 -6.67627 4.38818 -6.90723L0.526367 -6.90723L0.526367 -7.70215L5.4248 -7.70215L5.4248 -7.19189Z" fill="#262626" transform="translate(50.27777777777777,192.82032667876592) translate(-5.9296875,0)" />
<line x1="55.138888888888886" y1="139.21355111917728" x2="60.4" y2="139.21355111917728" stroke="#262626" stroke-width="1.1111111111111112" />
<path d="M0.483398 -2.14844Q0.483398 -2.45459 0.580078 -2.76343Q0.676758 -3.07227 0.856689 -3.34082Q1.03662 -3.60938 1.30249 -3.82959Q1.56836 -4.0498 1.90674 -4.17871Q1.40723 -4.45801 1.11182 -4.89575Q0.816406 -5.3335 0.816406 -5.86523Q0.816406 -6.28955 0.980225 -6.64941Q1.14404 -7.00928 1.43408 -7.27246Q1.72412 -7.53564 2.12158 -7.68335Q2.51904 -7.83105 2.98096 -7.83105Q3.44824 -7.83105 3.8457 -7.68066Q4.24316 -7.53027 4.5332 -7.26709Q4.82324 -7.00391 4.98438 -6.64404Q5.14551 -6.28418 5.14551 -5.86523Q5.14551 -5.3335 4.8501 -4.89575Q4.55469 -4.45801 4.06592 -4.17871Q4.39893 -4.0498 4.66211 -3.82959Q4.92529 -3.60937 5.10522 -3.34082Q5.28516 -3.07227 5.38184 -2.76343Q5.47852 -2.45459 5.47852 -2.14844Q5.47852 -1.64355 5.2959 -1.22461Q5.11328 -0.805664 4.78296 -0.507568Q4.45264 -0.209473 3.99341 -0.0429688Q3.53418 0.123535 2.98096 0.123535Q2.43311 0.123535 1.97656 -0.0429688Q1.52002 -0.209473 1.18701 -0.507568Q0.854004 -0.805664 0.668701 -1.22461Q0.483398 -1.64355 0.483398 -2.14844ZM1.43945 -2.22363Q1.43945 -1.86377 1.54956 -1.57373Q1.65967 -1.28369 1.86108 -1.07959Q2.0625 -0.875488 2.34985 -0.765381Q2.63721 -0.655273 2.98633 -0.655273Q3.32471 -0.655273 3.60938 -0.768066Q3.89404 -0.880859 4.10083 -1.08496Q4.30762 -1.28906 4.4231 -1.5791Q4.53857 -1.86914 4.53857 -2.22363Q4.53857 -2.5459 4.42847 -2.82788Q4.31836 -3.10986 4.11426 -3.32471Q3.91016 -3.53955 3.62549 -3.66309Q3.34082 -3.78662 2.98633 -3.78662Q2.65332 -3.78662 2.37134 -3.67114Q2.08936 -3.55566 1.88257 -3.34888Q1.67578 -3.14209 1.55762 -2.85474Q1.43945 -2.56738 1.43945 -2.22363ZM1.71338 -5.79541Q1.71338 -5.52148 1.81274 -5.28784Q1.91211 -5.0542 2.08667 -4.87964Q2.26123 -4.70508 2.49219 -4.60571Q2.72314 -4.50635 2.98633 -4.50635Q3.24951 -4.50635 3.48315 -4.6084Q3.7168 -4.71045 3.88867 -4.88501Q4.06055 -5.05957 4.1626 -5.29321Q4.26465 -5.52685 4.26465 -5.79541Q4.26465 -6.07471 4.16528 -6.31104Q4.06592 -6.54736 3.89404 -6.71924Q3.72217 -6.89111 3.48853 -6.99048Q3.25488 -7.08984 2.98633 -7.08984Q2.70166 -7.08984 2.46802 -6.98779Q2.23438 -6.88574 2.06519 -6.71118Q1.896 -6.53662 1.80469 -6.30029Q1.71338 -6.06396 1.71338 -5.79541Z" fill="#262626" transform="translate(50.27777777777777,143.21355111917728) translate(-5.9296875,0)" />
<line x1="55.138888888888886" y1="89.60677555958864" x2="60.4" y2="89.60677555958864" stroke="#262626" stroke-width="1.1111111111111112" />
<path d="M5.39258 -4.31299Q5.39258 -3.25488 5.18311 -2.43042Q4.97363 -1.60596 4.5708 -1.03394Q4.16797 -0.461914 3.58789 -0.163818Q3.00781 0.134277 2.2666 0.134277Q1.50391 0.134277 0.923828 -0.134277L0.923828 -0.977539Q1.56299 -0.617676 2.28809 -0.617676Q2.80908 -0.617676 3.21997 -0.83252Q3.63086 -1.04736 3.91553 -1.45825Q4.2002 -1.86914 4.35059 -2.4707Q4.50098 -3.07227 4.50098 -3.85107L4.47949 -3.85107Q3.98535 -2.85742 2.76074 -2.85742Q2.2666 -2.85742 1.85303 -3.03198Q1.43945 -3.20654 1.13867 -3.52612Q0.837891 -3.8457 0.671387 -4.28613Q0.504883 -4.72656 0.504883 -5.2583Q0.504883 -5.82764 0.690186 -6.30029Q0.875488 -6.77295 1.20581 -7.11401Q1.53613 -7.45508 1.98999 -7.64307Q2.44385 -7.83105 2.98096 -7.83105Q3.56104 -7.83105 4.00952 -7.59741Q4.45801 -7.36377 4.76416 -6.91528Q5.07031 -6.4668 5.23145 -5.81152Q5.39258 -5.15625 5.39258 -4.31299ZM4.44189 -5.10254Q4.44189 -5.54834 4.32642 -5.91357Q4.21094 -6.27881 4.00684 -6.53931Q3.80273 -6.7998 3.52075 -6.94214Q3.23877 -7.08447 2.90576 -7.08447Q2.58887 -7.08447 2.31494 -6.95825Q2.04102 -6.83203 1.8396 -6.60376Q1.63818 -6.37549 1.52271 -6.06128Q1.40723 -5.74707 1.40723 -5.37646Q1.40723 -4.96826 1.51733 -4.646Q1.62744 -4.32373 1.83154 -4.10083Q2.03564 -3.87793 2.323 -3.75977Q2.61035 -3.6416 2.95947 -3.6416Q3.26563 -3.6416 3.53687 -3.75708Q3.80811 -3.87256 4.00952 -4.0686Q4.21094 -4.26465 4.32642 -4.53052Q4.44189 -4.79639 4.44189 -5.10254Z" fill="#262626" transform="translate(50.27777777777777,93.60677555958864) translate(-5.9296875,0)" />
<line x1="55.138888888888886" y1="40" x2="60.4" y2="40" stroke="#262626" stroke-width="1.1111111111111112" />
<path d="M3.88867 0L3.00781 0L3.00781 -6.65479Q2.90576 -6.55273 2.70972 -6.42114Q2.51367 -6.28955 2.26929 -6.16064Q2.0249 -6.03174 1.75366 -5.91895Q1.48242 -5.80615 1.22461 -5.7417L1.22461 -6.6333Q1.51465 -6.71387 1.8396 -6.85083Q2.16455 -6.98779 2.47876 -7.15698Q2.79297 -7.32617 3.07227 -7.51147Q3.35156 -7.69678 3.55566 -7.87402L3.88867 -7.87402L3.88867 0ZM11.4082 -3.8833Q11.4082 -2.9165 11.2336 -2.16992Q11.0591 -1.42334 10.7288 -0.9104Q10.3984 -0.397461 9.91772 -0.131592Q9.43701 0.134277 8.82471 0.134277Q8.24463 0.134277 7.79077 -0.12085Q7.33691 -0.375977 7.02539 -0.864746Q6.71387 -1.35352 6.55273 -2.06519Q6.3916 -2.77686 6.3916 -3.69531Q6.3916 -4.70508 6.56079 -5.47852Q6.72998 -6.25195 7.05762 -6.77563Q7.38525 -7.29932 7.87134 -7.56519Q8.35742 -7.83105 8.98584 -7.83105Q11.4082 -7.83105 11.4082 -3.8833ZM10.5059 -3.79736Q10.5059 -7.08447 8.94287 -7.08447Q7.29395 -7.08447 7.29395 -3.73828Q7.29395 -0.617676 8.91064 -0.617676Q10.5059 -0.617676 10.5059 -3.79736Z" fill="#262626" transform="translate(50.27777777777777,44) translate(-11.859375,0)" />
<g class="series" aria-label="Revenue">
<polyline points="128.8995215311005,431.89352692075016 197.79904306220098,312.83726557773747 266.69856459330146,377.32607380520267 335.59808612440196,198.74168179068366 404.49760765550246,283.0732002419843 473.3971291866029,173.93829401088934 542.2966507177034,213.62371445856022 611.1961722488039,94.5674531155475 680.0956937799044,178.89897156684816 748.9952153110049,69.76406533575317" fill="none" stroke="#0000FF" stroke-width="1.5" />
</g>
<g class="spine">
<line x1="60" y1="450" x2="780" y2="450" stroke="#262626" stroke-width="0.8" />
</g>
<g class="spine">
<line x1="60" y1="40" x2="780" y2="40" stroke="#262626" stroke-width="0.8" />
</g>
<g class="spine">
<line x1="60" y1="40" x2="60" y2="450" stroke="#262626" stroke-width="0.8" />
</g>
<g class="spine">
<line x1="780" y1="40" x2="780" y2="450" stroke="#262626" stroke-width="0.8" />
</g>
<rect x="681.64384765625" y="50" width="88.35615234375" height="23.7" fill="#FFFFFF" fill-opacity="0.8" stroke="#CCCCCC" stroke-width="0.5" />
<g class="legend" aria-label="Chart legend">
<line x1="689.64384765625" y1="61.85" x2="711.64384765625" y2="61.85" stroke="#0000FF" stroke-width="1.5" />
<path d="M6.53125 0L5.45703 0L4.16797 -2.15918Q3.99072 -2.45996 3.82422 -2.67212Q3.65771 -2.88428 3.48315 -3.01855Q3.30859 -3.15283 3.10718 -3.2146Q2.90576 -3.27637 2.65332 -3.27637L1.91211 -3.27637L1.91211 0L1.00977 0L1.00977 -7.70215L3.30859 -7.70215Q3.81348 -7.70215 4.24048 -7.57593Q4.66748 -7.44971 4.98169 -7.19189Q5.2959 -6.93408 5.47314 -6.55005Q5.65039 -6.16602 5.65039 -5.65039Q5.65039 -5.24756 5.52954 -4.91187Q5.40869 -4.57617 5.18579 -4.31299Q4.96289 -4.0498 4.64868 -3.8645Q4.33447 -3.6792 3.94238 -3.57715L3.94238 -3.55566Q4.13574 -3.46973 4.27808 -3.35962Q4.42041 -3.24951 4.54932 -3.09912Q4.67822 -2.94873 4.80444 -2.75806Q4.93066 -2.56738 5.08643 -2.31494L6.53125 0ZM1.91211 -6.88574L1.91211 -4.09277L3.13672 -4.09277Q3.4751 -4.09277 3.76245 -4.19482Q4.0498 -4.29687 4.25928 -4.48755Q4.46875 -4.67822 4.58691 -4.95483Q4.70508 -5.23145 4.70508 -5.5752Q4.70508 -6.19287 4.30493 -6.53931Q3.90479 -6.88574 3.14746 -6.88574L1.91211 -6.88574ZM11.8916 -2.52979L8.0083 -2.52979Q8.02979 -1.61133 8.50244 -1.11182Q8.9751 -0.612305 9.80225 -0.612305Q10.7314 -0.612305 11.5103 -1.22461L11.5103 -0.397461Q10.7852 0.128906 9.59277 0.128906Q8.42725 0.128906 7.76123 -0.620361Q7.09521 -1.36963 7.09521 -2.72852Q7.09521 -4.01221 7.823 -4.82056Q8.55078 -5.62891 9.63037 -5.62891Q10.71 -5.62891 11.3008 -4.93066Q11.8916 -4.23242 11.8916 -2.9917L11.8916 -2.52979ZM10.9893 -3.27637Q10.9839 -4.03906 10.6213 -4.46338Q10.2588 -4.88769 9.61426 -4.8877Q8.99121 -4.8877 8.55615 -4.44189Q8.12109 -3.99609 8.01904 -3.27637L10.9893 -3.27637ZM17.5474 -5.5L15.356 0L14.4912 0L12.4072 -5.5L13.374 -5.5L14.7705 -1.50391Q14.9263 -1.06348 14.9639 -0.73584L14.9854 -0.73584Q15.0391 -1.14941 15.1572 -1.48242L16.6182 -5.5L17.5474 -5.5ZM22.9131 -2.52979L19.0298 -2.52979Q19.0513 -1.61133 19.5239 -1.11182Q19.9966 -0.612305 20.8237 -0.612305Q21.7529 -0.612305 22.5317 -1.22461L22.5317 -0.397461Q21.8066 0.128906 20.6143 0.128906Q19.4487 0.128906 18.7827 -0.620361Q18.1167 -1.36963 18.1167 -2.72852Q18.1167 -4.01221 18.8445 -4.82056Q19.5723 -5.62891 20.6519 -5.62891Q21.7314 -5.62891 22.3223 -4.93066Q22.9131 -4.23242 22.9131 -2.9917L22.9131 -2.52979ZM22.0107 -3.27637Q22.0054 -4.03906 21.6428 -4.46338Q21.2803 -4.88769 20.6357 -4.8877Q20.0127 -4.8877 19.5776 -4.44189Q19.1426 -3.99609 19.0405 -3.27637L22.0107 -3.27637ZM28.8105 0L27.9297 0L27.9297 -3.13672Q27.9297 -4.8877 26.6514 -4.8877Q25.9907 -4.8877 25.5583 -4.39087Q25.126 -3.89404 25.126 -3.13672L25.126 0L24.2451 0L24.2451 -5.5L25.126 -5.5L25.126 -4.58691L25.1475 -4.58691Q25.7705 -5.62891 26.9521 -5.62891Q27.8545 -5.62891 28.3325 -5.04614Q28.8105 -4.46338 28.8105 -3.3623L28.8105 0ZM34.9175 0L34.0366 0L34.0366 -0.870117L34.0151 -0.870117Q33.4673 0.128906 32.3179 0.128906Q30.3521 0.128906 30.3521 -2.21289L30.3521 -5.5L31.2275 -5.5L31.2275 -2.35254Q31.2275 -0.612305 32.5596 -0.612305Q33.2041 -0.612305 33.6204 -1.08765Q34.0366 -1.56299 34.0366 -2.33105L34.0366 -5.5L34.9175 -5.5L34.9175 0ZM41.1157 -2.52979L37.2324 -2.52979Q37.2539 -1.61133 37.7266 -1.11182Q38.1992 -0.612305 39.0264 -0.612305Q39.9556 -0.612305 40.7344 -1.22461L40.7344 -0.397461Q40.0093 0.128906 38.8169 0.128906Q37.6514 0.128906 36.9854 -0.620361Q36.3193 -1.36963 36.3193 -2.72852Q36.3193 -4.01221 37.0471 -4.82056Q37.7749 -5.62891 38.8545 -5.62891Q39.9341 -5.62891 40.5249 -4.93066Q41.1157 -4.23242 41.1157 -2.9917L41.1157 -2.52979ZM40.2134 -3.27637Q40.208 -4.03906 39.8455 -4.46338Q39.4829 -4.88769 38.8384 -4.8877Q38.2153 -4.8877 37.7803 -4.44189Q37.3452 -3.99609 37.2432 -3.27637L40.2134 -3.27637Z" fill="#262626" transform="translate(720.44384765625,64.7)" />
</g>
</svg>
