<svg xmlns="http://www.w3.org/2000/svg" viewBox="0 0 800 500" width="800" height="500" role="img" aria-labelledby="chart-title">
<title id="chart-title">Sales Trend</title>
<rect x="0" y="0" width="800" height="500" fill="#FFFFFF" />
<text x="400" y="25" font-family="sans-serif" font-size="15" text-anchor="middle" font-weight="bold" fill="#262626">Sales Trend</text>
<rect x="60" y="70" width="720" height="380" fill="#EAEAF2" />
<line x1="165.45454545454547" y1="70" x2="165.45454545454547" y2="450" stroke="#FFFFFF" stroke-width="0.5" />
<line x1="310.90909090909093" y1="70" x2="310.90909090909093" y2="450" stroke="#FFFFFF" stroke-width="0.5" />
<line x1="456.3636363636364" y1="70" x2="456.3636363636364" y2="450" stroke="#FFFFFF" stroke-width="0.5" />
<line x1="601.8181818181819" y1="70" x2="601.8181818181819" y2="450" stroke="#FFFFFF" stroke-width="0.5" />
<line x1="747.2727272727274" y1="70" x2="747.2727272727274" y2="450" stroke="#FFFFFF" stroke-width="0.5" />
<line x1="60" y1="437.45952677459525" x2="780" y2="437.45952677459525" stroke="#FFFFFF" stroke-width="0.5" />
<line x1="60" y1="342.81444582814447" x2="780" y2="342.81444582814447" stroke="#FFFFFF" stroke-width="0.5" />
<line x1="60" y1="248.16936488169364" x2="780" y2="248.16936488169364" stroke="#FFFFFF" stroke-width="0.5" />
<line x1="60" y1="153.52428393524286" x2="780" y2="153.52428393524286" stroke="#FFFFFF" stroke-width="0.5" />
<line x1="165.45454545454547" y1="449.6" x2="165.45454545454547" y2="453.5" stroke="#262626" stroke-width="0.8" />
<text x="165.45454545454547" y="467.5" font-family="sans-serif" font-size="11" text-anchor="middle" fill="#262626">2</text>
<line x1="310.90909090909093" y1="449.6" x2="310.90909090909093" y2="453.5" stroke="#262626" stroke-width="0.8" />
<text x="310.90909090909093" y="467.5" font-family="sans-serif" font-size="11" text-anchor="middle" fill="#262626">4</text>
<line x1="456.3636363636364" y1="449.6" x2="456.3636363636364" y2="453.5" stroke="#262626" stroke-width="0.8" />
<text x="456.3636363636364" y="467.5" font-family="sans-serif" font-size="11" text-anchor="middle" fill="#262626">6</text>
<line x1="601.8181818181819" y1="449.6" x2="601.8181818181819" y2="453.5" stroke="#262626" stroke-width="0.8" />
<text x="601.8181818181819" y="467.5" font-family="sans-serif" font-size="11" text-anchor="middle" fill="#262626">8</text>
<line x1="747.2727272727274" y1="449.6" x2="747.2727272727274" y2="453.5" stroke="#262626" stroke-width="0.8" />
<text x="747.2727272727274" y="467.5" font-family="sans-serif" font-size="11" text-anchor="middle" fill="#262626">10</text>
<line x1="78.18181818181819" y1="449.6" x2="78.18181818181819" y2="453.5" stroke="#262626" stroke-width="0.8" />
<line x1="107.27272727272728" y1="449.6" x2="107.27272727272728" y2="453.5" stroke="#262626" stroke-width="0.8" />
<line x1="136.36363636363637" y1="449.6" x2="136.36363636363637" y2="453.5" stroke="#262626" stroke-width="0.8" />
<line x1="194.54545454545456" y1="449.6" x2="194.54545454545456" y2="453.5" stroke="#262626" stroke-width="0.8" />
<line x1="223.63636363636365" y1="449.6" x2="223.63636363636365" y2="453.5" stroke="#262626" stroke-width="0.8" />
<line x1="252.72727272727275" y1="449.6" x2="252.72727272727275" y2="453.5" stroke="#262626" stroke-width="0.8" />
<line x1="281.81818181818187" y1="449.6" x2="281.81818181818187" y2="453.5" stroke="#262626" stroke-width="0.8" />
<line x1="340.00000000000006" y1="449.6" x2="340.00000000000006" y2="453.5" stroke="#262626" stroke-width="0.8" />
<line x1="369.0909090909091" y1="449.6" x2="369.0909090909091" y2="453.5" stroke="#262626" stroke-width="0.8" />
<line x1="398.18181818181824" y1="449.6" x2="398.18181818181824" y2="453.5" stroke="#262626" stroke-width="0.8" />
<line x1="427.2727272727273" y1="449.6" x2="427.2727272727273" y2="453.5" stroke="#262626" stroke-width="0.8" />
<line x1="485.4545454545455" y1="449.6" x2="485.4545454545455" y2="453.5" stroke="#262626" stroke-width="0.8" />
<line x1="514.5454545454545" y1="449.6" x2="514.5454545454545" y2="453.5" stroke="#262626" stroke-width="0.8" />
<line x1="543.6363636363637" y1="449.6" x2="543.6363636363637" y2="453.5" stroke="#262626" stroke-width="0.8" />
<line x1="572.7272727272727" y1="449.6" x2="572.7272727272727" y2="453.5" stroke="#262626" stroke-width="0.8" />
<line x1="630.909090909091" y1="449.6" x2="630.909090909091" y2="453.5" stroke="#262626" stroke-width="0.8" />
<line x1="660.0000000000001" y1="449.6" x2="660.0000000000001" y2="453.5" stroke="#262626" stroke-width="0.8" />
<line x1="689.0909090909091" y1="449.6" x2="689.0909090909091" y2="453.5" stroke="#262626" stroke-width="0.8" />
<line x1="718.1818181818182" y1="449.6" x2="718.1818181818182" y2="453.5" stroke="#262626" stroke-width="0.8" />
<line x1="776.3636363636365" y1="449.6" x2="776.3636363636365" y2="453.5" stroke="#262626" stroke-width="0.8" />
<line x1="433.95952677459525" y1="60" x2="437.8595267745952" y2="60" stroke="#262626" stroke-width="0.8" />
<text x="53.5" y="441.45952677459525" font-family="sans-serif" font-size="11" text-anchor="end" fill="#262626">2</text>
<line x1="339.31444582814447" y1="60" x2="343.21444582814445" y2="60" stroke="#262626" stroke-width="0.8" />
<text x="53.5" y="346.81444582814447" font-family="sans-serif" font-size="11" text-anchor="end" fill="#262626">4</text>
<line x1="244.66936488169364" y1="60" x2="248.56936488169364" y2="60" stroke="#262626" stroke-width="0.8" />
<text x="53.5" y="252.16936488169364" font-family="sans-serif" font-size="11" text-anchor="end" fill="#262626">6</text>
<line x1="150.02428393524286" y1="60" x2="153.92428393524287" y2="60" stroke="#262626" stroke-width="0.8" />
<text x="53.5" y="157.52428393524286" font-family="sans-serif" font-size="11" text-anchor="end" fill="#262626">8</text>
<line x1="415.0305105853051" y1="60" x2="418.93051058530506" y2="60" stroke="#262626" stroke-width="0.8" />
<line x1="396.1014943960149" y1="60" x2="400.0014943960149" y2="60" stroke="#262626" stroke-width="0.8" />
<line x1="377.17247820672475" y1="60" x2="381.0724782067247" y2="60" stroke="#262626" stroke-width="0.8" />
<line x1="358.2434620174346" y1="60" x2="362.14346201743456" y2="60" stroke="#262626" stroke-width="0.8" />
<line x1="320.38542963885425" y1="60" x2="324.2854296388542" y2="60" stroke="#262626" stroke-width="0.8" />
<line x1="301.45641344956414" y1="60" x2="305.3564134495641" y2="60" stroke="#262626" stroke-width="0.8" />
<line x1="282.527397260274" y1="60" x2="286.42739726027395" y2="60" stroke="#262626" stroke-width="0.8" />
<line x1="263.5983810709838" y1="60" x2="267.4983810709838" y2="60" stroke="#262626" stroke-width="0.8" />
<line x1="225.74034869240347" y1="60" x2="229.64034869240348" y2="60" stroke="#262626" stroke-width="0.8" />
<line x1="206.81133250311336" y1="60" x2="210.71133250311337" y2="60" stroke="#262626" stroke-width="0.8" />
<line x1="187.8823163138232" y1="60" x2="191.7823163138232" y2="60" stroke="#262626" stroke-width="0.8" />
<line x1="168.95330012453303" y1="60" x2="172.85330012453304" y2="60" stroke="#262626" stroke-width="0.8" />
<line x1="131.0952677459527" y1="60" x2="134.9952677459527" y2="60" stroke="#262626" stroke-width="0.8" />
<line x1="112.16625155666253" y1="60" x2="116.06625155666254" y2="60" stroke="#262626" stroke-width="0.8" />
<line x1="93.23723536737242" y1="60" x2="97.13723536737243" y2="60" stroke="#262626" stroke-width="0.8" />
<line x1="74.30821917808225" y1="60" x2="78.20821917808226" y2="60" stroke="#262626" stroke-width="0.8" />
<g class="series" aria-label="Revenue">
<polyline points="92.72727272727272,432.7272727272727 165.45454545454547,319.15317559153175 238.1818181818182,380.67247820672475 310.90909090909093,210.31133250311333 383.6363636363637,290.7596513075965 456.3636363636364,186.65006226650064 529.0909090909091,224.50809464508094 601.8181818181819,110.93399750933999 674.5454545454546,191.3823163138232 747.2727272727274,87.27272727272731" fill="none" stroke="#0000FF" stroke-width="1.5" />
</g>
<g class="spine">
<line x1="60" y1="450" x2="780" y2="450" stroke="#262626" stroke-width="0.8" />
</g>
<g class="spine">
<line x1="60" y1="70" x2="780" y2="70" stroke="#262626" stroke-width="0.8" />
</g>
<g class="spine">
<line x1="60" y1="70" x2="60" y2="450" stroke="#262626" stroke-width="0.8" />
</g>
<g class="spine">
<line x1="780" y1="70" x2="780" y2="450" stroke="#262626" stroke-width="0.8" />
</g>
<rect x="691.56" y="80" width="78.44000000000001" height="28" fill="#FFFFFF" fill-opacity="0.8" stroke="#262626" stroke-width="0.5" />
<g class="legend" aria-label="Chart legend">
<rect x="699.56" y="88" width="12" height="12" fill="#0000FF" />
<text x="717.56" y="99" font-family="sans-serif" font-size="11" text-anchor="start" fill="#262626">Revenue</text>
</g>
</svg>
