<svg xmlns="http://www.w3.org/2000/svg" viewBox="0 0 800 600" width="800" height="600" role="img" aria-labelledby="chart-title">
<title id="chart-title"></title>
<rect x="0" y="0" width="800" height="600" fill="#FFFFFF" />
<rect x="60" y="40" width="720" height="510" fill="#FFFFFF" />
<line x1="92.72727272727272" y1="40" x2="92.72727272727272" y2="550" stroke="#B0B0B0" stroke-width="0.8" />
<line x1="223.63636363636363" y1="40" x2="223.63636363636363" y2="550" stroke="#B0B0B0" stroke-width="0.8" />
<line x1="354.5454545454545" y1="40" x2="354.5454545454545" y2="550" stroke="#B0B0B0" stroke-width="0.8" />
<line x1="485.4545454545454" y1="40" x2="485.4545454545454" y2="550" stroke="#B0B0B0" stroke-width="0.8" />
<line x1="616.3636363636364" y1="40" x2="616.3636363636364" y2="550" stroke="#B0B0B0" stroke-width="0.8" />
<line x1="747.2727272727273" y1="40" x2="747.2727272727273" y2="550" stroke="#B0B0B0" stroke-width="0.8" />
<line x1="60" y1="526.8181818181819" x2="780" y2="526.8181818181819" stroke="#B0B0B0" stroke-width="0.8" />
<line x1="60" y1="434.0909090909091" x2="780" y2="434.0909090909091" stroke="#B0B0B0" stroke-width="0.8" />
<line x1="60" y1="341.3636363636364" x2="780" y2="341.3636363636364" stroke="#B0B0B0" stroke-width="0.8" />
<line x1="60" y1="248.63636363636368" x2="780" y2="248.63636363636368" stroke="#B0B0B0" stroke-width="0.8" />
<line x1="60" y1="155.90909090909093" x2="780" y2="155.90909090909093" stroke="#B0B0B0" stroke-width="0.8" />
<line x1="60" y1="63.181818181818244" x2="780" y2="63.181818181818244" stroke="#B0B0B0" stroke-width="0.8" />
<line x1="92.72727272727272" y1="549.6" x2="92.72727272727272" y2="553.5" stroke="#000000" stroke-width="0.8" />
<text x="92.72727272727272" y="569.5" font-family="sans-serif" font-size="13" text-anchor="middle" fill="#000000">0</text>
<line x1="223.63636363636363" y1="549.6" x2="223.63636363636363" y2="553.5" stroke="#000000" stroke-width="0.8" />
<text x="223.63636363636363" y="569.5" font-family="sans-serif" font-size="13" text-anchor="middle" fill="#000000">0.2</text>
<line x1="354.5454545454545" y1="549.6" x2="354.5454545454545" y2="553.5" stroke="#000000" stroke-width="0.8" />
<text x="354.5454545454545" y="569.5" font-family="sans-serif" font-size="13" text-anchor="middle" fill="#000000">0.4</text>
<line x1="485.4545454545454" y1="549.6" x2="485.4545454545454" y2="553.5" stroke="#000000" stroke-width="0.8" />
<text x="485.4545454545454" y="569.5" font-family="sans-serif" font-size="13" text-anchor="middle" fill="#000000">0.6</text>
<line x1="616.3636363636364" y1="549.6" x2="616.3636363636364" y2="553.5" stroke="#000000" stroke-width="0.8" />
<text x="616.3636363636364" y="569.5" font-family="sans-serif" font-size="13" text-anchor="middle" fill="#000000">0.8</text>
<line x1="747.2727272727273" y1="549.6" x2="747.2727272727273" y2="553.5" stroke="#000000" stroke-width="0.8" />
<text x="747.2727272727273" y="569.5" font-family="sans-serif" font-size="13" text-anchor="middle" fill="#000000">1</text>
<line x1="66.54545454545453" y1="549.6" x2="66.54545454545453" y2="553.5" stroke="#000000" stroke-width="0.8" />
<line x1="118.9090909090909" y1="549.6" x2="118.9090909090909" y2="553.5" stroke="#000000" stroke-width="0.8" />
<line x1="145.09090909090907" y1="549.6" x2="145.09090909090907" y2="553.5" stroke="#000000" stroke-width="0.8" />
<line x1="171.27272727272725" y1="549.6" x2="171.27272727272725" y2="553.5" stroke="#000000" stroke-width="0.8" />
<line x1="197.45454545454544" y1="549.6" x2="197.45454545454544" y2="553.5" stroke="#000000" stroke-width="0.8" />
<line x1="249.81818181818178" y1="549.6" x2="249.81818181818178" y2="553.5" stroke="#000000" stroke-width="0.8" />
<line x1="276" y1="549.6" x2="276" y2="553.5" stroke="#000000" stroke-width="0.8" />
<line x1="302.18181818181813" y1="549.6" x2="302.18181818181813" y2="553.5" stroke="#000000" stroke-width="0.8" />
<line x1="328.3636363636364" y1="549.6" x2="328.3636363636364" y2="553.5" stroke="#000000" stroke-width="0.8" />
<line x1="380.72727272727275" y1="549.6" x2="380.72727272727275" y2="553.5" stroke="#000000" stroke-width="0.8" />
<line x1="406.9090909090909" y1="549.6" x2="406.9090909090909" y2="553.5" stroke="#000000" stroke-width="0.8" />
<line x1="433.0909090909091" y1="549.6" x2="433.0909090909091" y2="553.5" stroke="#000000" stroke-width="0.8" />
<line x1="459.27272727272725" y1="549.6" x2="459.27272727272725" y2="553.5" stroke="#000000" stroke-width="0.8" />
<line x1="511.6363636363636" y1="549.6" x2="511.6363636363636" y2="553.5" stroke="#000000" stroke-width="0.8" />
<line x1="537.8181818181819" y1="549.6" x2="537.8181818181819" y2="553.5" stroke="#000000" stroke-width="0.8" />
<line x1="564" y1="549.6" x2="564" y2="553.5" stroke="#000000" stroke-width="0.8" />
<line x1="590.1818181818181" y1="549.6" x2="590.1818181818181" y2="553.5" stroke="#000000" stroke-width="0.8" />
<line x1="642.5454545454545" y1="549.6" x2="642.5454545454545" y2="553.5" stroke="#000000" stroke-width="0.8" />
<line x1="668.7272727272727" y1="549.6" x2="668.7272727272727" y2="553.5" stroke="#000000" stroke-width="0.8" />
<line x1="694.9090909090909" y1="549.6" x2="694.9090909090909" y2="553.5" stroke="#000000" stroke-width="0.8" />
<line x1="721.090909090909" y1="549.6" x2="721.090909090909" y2="553.5" stroke="#000000" stroke-width="0.8" />
<line x1="773.4545454545455" y1="549.6" x2="773.4545454545455" y2="553.5" stroke="#000000" stroke-width="0.8" />
<line x1="523.3181818181819" y1="60" x2="527.2181818181818" y2="60" stroke="#000000" stroke-width="0.8" />
<text x="53.5" y="530.8181818181819" font-family="sans-serif" font-size="13" text-anchor="end" fill="#000000">0</text>
<line x1="430.5909090909091" y1="60" x2="434.4909090909091" y2="60" stroke="#000000" stroke-width="0.8" />
<text x="53.5" y="438.0909090909091" font-family="sans-serif" font-size="13" text-anchor="end" fill="#000000">0.2</text>
<line x1="337.8636363636364" y1="60" x2="341.76363636363635" y2="60" stroke="#000000" stroke-width="0.8" />
<text x="53.5" y="345.3636363636364" font-family="sans-serif" font-size="13" text-anchor="end" fill="#000000">0.4</text>
<line x1="245.13636363636368" y1="60" x2="249.0363636363637" y2="60" stroke="#000000" stroke-width="0.8" />
<text x="53.5" y="252.63636363636368" font-family="sans-serif" font-size="13" text-anchor="end" fill="#000000">0.6</text>
<line x1="152.40909090909093" y1="60" x2="156.30909090909094" y2="60" stroke="#000000" stroke-width="0.8" />
<text x="53.5" y="159.90909090909093" font-family="sans-serif" font-size="13" text-anchor="end" fill="#000000">0.8</text>
<line x1="59.681818181818244" y1="60" x2="63.58181818181824" y2="60" stroke="#000000" stroke-width="0.8" />
<text x="53.5" y="67.18181818181824" font-family="sans-serif" font-size="13" text-anchor="end" fill="#000000">1</text>
<line x1="541.8636363636364" y1="60" x2="545.7636363636364" y2="60" stroke="#000000" stroke-width="0.8" />
<line x1="504.7727272727273" y1="60" x2="508.6727272727273" y2="60" stroke="#000000" stroke-width="0.8" />
<line x1="486.22727272727275" y1="60" x2="490.1272727272727" y2="60" stroke="#000000" stroke-width="0.8" />
<line x1="467.68181818181824" y1="60" x2="471.5818181818182" y2="60" stroke="#000000" stroke-width="0.8" />
<line x1="449.1363636363637" y1="60" x2="453.03636363636366" y2="60" stroke="#000000" stroke-width="0.8" />
<line x1="412.0454545454546" y1="60" x2="415.9454545454546" y2="60" stroke="#000000" stroke-width="0.8" />
<line x1="393.5" y1="60" x2="397.4" y2="60" stroke="#000000" stroke-width="0.8" />
<line x1="374.9545454545455" y1="60" x2="378.8545454545455" y2="60" stroke="#000000" stroke-width="0.8" />
<line x1="356.409090909091" y1="60" x2="360.30909090909097" y2="60" stroke="#000000" stroke-width="0.8" />
<line x1="319.31818181818187" y1="60" x2="323.21818181818185" y2="60" stroke="#000000" stroke-width="0.8" />
<line x1="300.77272727272737" y1="60" x2="304.67272727272734" y2="60" stroke="#000000" stroke-width="0.8" />
<line x1="282.22727272727275" y1="60" x2="286.1272727272727" y2="60" stroke="#000000" stroke-width="0.8" />
<line x1="263.6818181818182" y1="60" x2="267.58181818181816" y2="60" stroke="#000000" stroke-width="0.8" />
<line x1="226.59090909090912" y1="60" x2="230.49090909090913" y2="60" stroke="#000000" stroke-width="0.8" />
<line x1="208.04545454545456" y1="60" x2="211.94545454545457" y2="60" stroke="#000000" stroke-width="0.8" />
<line x1="189.50000000000006" y1="60" x2="193.40000000000006" y2="60" stroke="#000000" stroke-width="0.8" />
<line x1="170.9545454545455" y1="60" x2="174.8545454545455" y2="60" stroke="#000000" stroke-width="0.8" />
<line x1="133.86363636363643" y1="60" x2="137.76363636363644" y2="60" stroke="#000000" stroke-width="0.8" />
<line x1="115.31818181818187" y1="60" x2="119.21818181818188" y2="60" stroke="#000000" stroke-width="0.8" />
<line x1="96.77272727272731" y1="60" x2="100.67272727272731" y2="60" stroke="#000000" stroke-width="0.8" />
<line x1="78.2272727272728" y1="60" x2="82.12727272727281" y2="60" stroke="#000000" stroke-width="0.8" />
<line x1="41.13636363636368" y1="60" x2="45.03636363636368" y2="60" stroke="#000000" stroke-width="0.8" />
<polyline points="-3180,2219.51818856326 -2852.7272727272725,2232.7965276891537 -2695.532580288974,2149.5454545454545 -2625.655163851651,1917.727272727273 -2852.7272727272725,1727.3365406556563 -3180,1747.2217165340076" fill="none" stroke="#5772DD" stroke-width="1.5" />
<rect x="-2639.155163851651" y="1911.427272727273" width="27" height="12.6" fill="#FFFFFF" />
<text x="-2625.655163851651" y="1917.727272727273" font-family="sans-serif" font-size="9" text-anchor="middle">-0.82</text>
<polyline points="810.2839227156205,2149.5454545454545 1074.5454545454545,2246.493811607361 1401.8181818181818,2181.443623629483 1441.6041391546075,2149.5454545454545 1491.2266055020418,1917.727272727273 1401.8181818181818,1804.2407660050826 1074.5454545454545,1706.824052984064 747.2727272727273,1893.0478871952405 731.8253101002086,1917.727272727273 747.2727272727273,2004.7845532677388 810.2839227156205,2149.5454545454545" fill="none" stroke="#5772DD" stroke-width="1.5" />
<rect x="1388.3181818181818" y="1797.9407660050827" width="27" height="12.6" fill="#FFFFFF" />
<text x="1401.8181818181818" y="1804.2407660050826" font-family="sans-serif" font-size="9" text-anchor="middle">-0.82</text>
<polyline points="-1139.625616940585,758.6363636363637 -889.090909090909,799.463445598429 -747.4681663513182,758.6363636363637 -561.8181818181818,583.8411450792444 -538.9131311936811,526.8181818181819 -561.8181818181818,469.7952185571194 -747.4681663513182,295.00000000000006 -889.090909090909,254.17291803793478 -1139.625616940585,295.00000000000006 -1216.3636363636363,332.79581189155584 -1314.4587499445133,526.8181818181819 -1216.3636363636363,720.840551744808 -1139.625616940585,758.6363636363637" fill="none" stroke="#5772DD" stroke-width="1.5" />
<rect x="-760.9681663513182" y="288.70000000000005" width="27" height="12.6" fill="#FFFFFF" />
<text x="-747.4681663513182" y="295.00000000000006" font-family="sans-serif" font-size="9" text-anchor="middle">-0.82</text>
<polyline points="2967.6758089932523,758.6363636363637 3038.1818181818176,787.9781404408542" fill="none" stroke="#5772DD" stroke-width="1.5" />
<rect x="3024.6818181818176" y="781.6781404408542" width="27" height="12.6" fill="#FFFFFF" />
<text x="3038.1818181818176" y="787.9781404408542" font-family="sans-serif" font-size="9" text-anchor="middle">-0.82</text>
<polyline points="2967.6758089932523,758.6363636363637 2798.877431696111,526.8181818181819 2967.6758089932523,295.00000000000006 3038.1818181818176,265.65822319550955" fill="none" stroke="#5772DD" stroke-width="1.5" />
<rect x="2954.1758089932523" y="288.70000000000005" width="27" height="12.6" fill="#FFFFFF" />
<text x="2967.6758089932523" y="295.00000000000006" font-family="sans-serif" font-size="9" text-anchor="middle">-0.82</text>
<polyline points="-3180,-693.5853528976439 -2852.7272727272725,-673.7001770192925 -2625.655163851651,-864.0909090909091 -2695.532580288974,-1095.909090909091 -2852.7272727272725,-1179.1601640527897 -3180,-1165.8818249268966" fill="none" stroke="#5772DD" stroke-width="1.5" />
<rect x="-2709.032580288974" y="-1102.209090909091" width="27" height="12.6" fill="#FFFFFF" />
<text x="-2695.532580288974" y="-1095.909090909091" font-family="sans-serif" font-size="9" text-anchor="middle">-0.82</text>
<polyline points="731.8253101002086,-864.0909090909091 747.2727272727273,-839.4115235588766 1074.5454545454545,-653.1876893477005 1401.8181818181818,-750.6044023687188 1491.2266055020418,-864.0909090909091 1441.6041391546075,-1095.909090909091 1401.8181818181818,-1127.8072599931197 1074.5454545454545,-1192.8574479709973 810.2839227156205,-1095.909090909091 747.2727272727273,-951.1481896313752 731.8253101002086,-864.0909090909091" fill="none" stroke="#5772DD" stroke-width="1.5" />
<rect x="1428.1041391546075" y="-1102.209090909091" width="27" height="12.6" fill="#FFFFFF" />
<text x="1441.6041391546075" y="-1095.909090909091" font-family="sans-serif" font-size="9" text-anchor="middle">-0.82</text>
<polyline points="-2965.3951887650924,2381.3636363636365 -2852.7272727272725,2383.605598969893 -2843.2300290194426,2381.3636363636365 -2525.4545454545455,2229.632776000283 -2461.808124889027,2149.5454545454545 -2432.2617686878552,1917.727272727273 -2525.4545454545455,1732.074485692111 -2578.1299313631926,1685.909090909091 -2852.7272727272725,1594.5158975774593 -3180,1602.102446122603" fill="none" stroke="#7596F3" stroke-width="1.5" />
<rect x="-2445.7617686878552" y="1911.427272727273" width="27" height="12.6" fill="#FFFFFF" />
<text x="-2432.2617686878552" y="1917.727272727273" font-family="sans-serif" font-size="9" text-anchor="middle">-0.63</text>
<polyline points="1019.2319453846325,2381.3636363636365 1074.5454545454545,2390.4093066128817 1172.396652915261,2381.3636363636365 1401.8181818181818,2344.9332362955265 1645.5213130604136,2149.5454545454545 1684.1165646639736,1917.727272727273 1524.975700378418,1685.909090909091 1401.8181818181818,1623.8561820983887 1074.5454545454545,1586.6901415044613 747.2727272727273,1657.737430225719 702.8508203679864,1685.909090909091 566.2243210185658,1917.727272727273 599.3593753467907,2149.5454545454545 747.2727272727273,2298.8101781498303 1019.2319453846325,2381.3636363636365" fill="none" stroke="#7596F3" stroke-width="1.5" />
<rect x="1388.3181818181818" y="1617.5561820983887" width="27" height="12.6" fill="#FFFFFF" />
<text x="1401.8181818181818" y="1623.8561820983887" font-family="sans-serif" font-size="9" text-anchor="middle">-0.63</text>
<polyline points="-2965.3951887650924,2381.3636363636365 -3180,2374.546774517406" fill="none" stroke="#7596F3" stroke-width="1.5" />
<rect x="-3193.5" y="2368.246774517406" width="27" height="12.6" fill="#FFFFFF" />
<text x="-3180" y="2374.546774517406" font-family="sans-serif" font-size="9" text-anchor="middle">-0.63</text>
<polyline points="-1412.1863521229136,758.6363636363637 -1216.3636363636363,882.0059603994544 -889.090909090909,924.4300344857303 -561.8181818181818,843.3312763951042 -455.0114484266801,758.6363636363637 -374.96941566467285,526.8181818181819 -455.0114484266801,295.00000000000006 -561.8181818181818,210.30508724125957 -889.090909090909,129.20632915063345 -1216.3636363636363,171.6304032369094 -1412.1863521229136,295.00000000000006 -1505.4182988947086,526.8181818181819 -1412.1863521229136,758.6363636363637" fill="none" stroke="#7596F3" stroke-width="1.5" />
<rect x="-468.5114484266801" y="288.70000000000005" width="27" height="12.6" fill="#FFFFFF" />
<text x="-455.0114484266801" y="295.00000000000006" font-family="sans-serif" font-size="9" text-anchor="middle">-0.63</text>
<polyline points="2683.9172120527783,758.6363636363637 2710.9090909090905,785.3253024274653 3038.1818181818176,915.4970316453414" fill="none" stroke="#7596F3" stroke-width="1.5" />
<rect x="2697.4090909090905" y="779.0253024274654" width="27" height="12.6" fill="#FFFFFF" />
<text x="2710.9090909090905" y="785.3253024274653" font-family="sans-serif" font-size="9" text-anchor="middle">-0.63</text>
<polyline points="2683.9172120527783,758.6363636363637 2612.5441568548026,526.8181818181819 2683.9172120527783,295.00000000000006 2710.9090909090905,268.3110612088984 3038.1818181818176,138.13933199102235" fill="none" stroke="#7596F3" stroke-width="1.5" />
<rect x="2670.4172120527783" y="288.70000000000005" width="27" height="12.6" fill="#FFFFFF" />
<text x="2683.9172120527783" y="295.00000000000006" font-family="sans-serif" font-size="9" text-anchor="middle">-0.63</text>
<polyline points="-3180,-548.4660824862393 -2852.7272727272725,-540.8795339410955 -2578.1299313631926,-632.2727272727271 -2525.4545454545455,-678.4381220557472 -2432.2617686878552,-864.0909090909091 -2461.808124889027,-1095.909090909091 -2525.4545454545455,-1175.9964123639193 -2843.2300290194426,-1327.7272727272725 -2852.7272727272725,-1329.9692353335295 -2965.3951887650924,-1327.7272727272725 -3180,-1320.9104108810425" fill="none" stroke="#7596F3" stroke-width="1.5" />
<rect x="-2475.308124889027" y="-1102.209090909091" width="27" height="12.6" fill="#FFFFFF" />
<text x="-2461.808124889027" y="-1095.909090909091" font-family="sans-serif" font-size="9" text-anchor="middle">-0.63</text>
<polyline points="702.8508203679864,-632.2727272727271 747.2727272727273,-604.1010665893554 1074.5454545454545,-533.0537778680974 1401.8181818181818,-570.219818462025 1524.975700378418,-632.2727272727271 1684.1165646639736,-864.0909090909091 1645.5213130604136,-1095.909090909091 1401.8181818181818,-1291.296872659163 1172.396652915261,-1327.7272727272725 1074.5454545454545,-1336.7729429765182 1019.2319453846325,-1327.7272727272725 747.2727272727273,-1245.1738145134664 599.3593753467907,-1095.909090909091 566.2243210185658,-864.0909090909091 702.8508203679864,-632.2727272727271" fill="none" stroke="#7596F3" stroke-width="1.5" />
<rect x="1388.3181818181818" y="-1297.596872659163" width="27" height="12.6" fill="#FFFFFF" />
<text x="1401.8181818181818" y="-1291.296872659163" font-family="sans-serif" font-size="9" text-anchor="middle">-0.63</text>
<polyline points="-3180,2476.0150926763363 -2852.7272727272725,2480.7260660691695 -2525.4545454545455,2409.9111314253373 -2474.5588198575106,2381.3636363636365 -2305.70067319003,2149.5454545454545 -2284.596155340021,1917.727272727273 -2371.617081382058,1685.909090909091 -2525.4545454545455,1564.257692857222 -2852.7272727272725,1482.8017815676603 -3180,1488.220650066029" fill="none" stroke="#95B6FD" stroke-width="1.5" />
<rect x="-2298.096155340021" y="1911.427272727273" width="27" height="12.6" fill="#FFFFFF" />
<text x="-2284.596155340021" y="1917.727272727273" font-family="sans-serif" font-size="9" text-anchor="middle">-0.45</text>
<polyline points="613.6588070609353,2381.3636363636365 747.2727272727273,2441.4670701460404 1074.5454545454545,2485.585825660012 1401.8181818181818,2462.506720803001 1628.8654778220437,2381.3636363636365 1729.090909090909,2296.1460651050916 1810.8814690329812,2149.5454545454545 1829.617215936834,1917.727272727273 1752.363510131836,1685.909090909091 1729.090909090909,1659.6945324811068 1401.8181818181818,1503.7590802799573 1074.5454545454545,1477.2119084271517 747.2727272727273,1527.9600507562811 498.2137220556085,1685.909090909091 420,1863.3927861126986 405.367447679693,1917.727272727273 420,2109.3932992761784 424.29126132618296,2149.5454545454545 613.6588070609353,2381.3636363636365" fill="none" stroke="#95B6FD" stroke-width="1.5" />
<rect x="1715.590909090909" y="1653.3945324811068" width="27" height="12.6" fill="#FFFFFF" />
<text x="1729.090909090909" y="1659.6945324811068" font-family="sans-serif" font-size="9" text-anchor="middle">-0.45</text>
<polyline points="-1290.1992520419033,990.4545454545455 -1216.3636363636363,1011.0255638035861 -889.090909090909,1032.791569666429 -561.8181818181818,991.1831667206504 -559.7404159199107,990.4545454545455 -268.1985751065341,758.6363636363637 -234.54545454545453,629.5888282765043 -216.78415905345568,526.8181818181819 -234.54545454545453,424.0475353598595 -268.1985751065341,295.00000000000006 -559.7404159199107,63.181818181818244 -561.8181818181818,62.453196915713306 -889.090909090909,20.8447939699347 -1216.3636363636363,42.610799832777616 -1290.1992520419033,63.181818181818244 -1543.6363636363635,212.53900809721517 -1602.183661027388,295.00000000000006 -1647.442495172674,526.8181818181819 -1602.183661027388,758.6363636363637 -1543.6363636363635,841.0973555391486 -1290.1992520419033,990.4545454545455" fill="none" stroke="#95B6FD" stroke-width="1.5" />
<rect x="-573.2404159199107" y="56.88181818181825" width="27" height="12.6" fill="#FFFFFF" />
<text x="-559.7404159199107" y="63.181818181818244" font-family="sans-serif" font-size="9" text-anchor="middle">-0.45</text>
<polyline points="2833.038982044566,990.4545454545455 3038.1818181818176,1028.2084352319891" fill="none" stroke="#95B6FD" stroke-width="1.5" />
<rect x="3024.6818181818176" y="1021.9084352319892" width="27" height="12.6" fill="#FFFFFF" />
<text x="3038.1818181818176" y="1028.2084352319891" font-family="sans-serif" font-size="9" text-anchor="middle">-0.45</text>
<polyline points="2517.3371679132633,758.6363636363637 2710.9090909090905,950.0361004742709 2833.038982044566,990.4545454545455" fill="none" stroke="#95B6FD" stroke-width="1.5" />
<rect x="2697.4090909090905" y="943.736100474271" width="27" height="12.6" fill="#FFFFFF" />
<text x="2710.9090909090905" y="950.0361004742709" font-family="sans-serif" font-size="9" text-anchor="middle">-0.45</text>
<polyline points="2517.3371679132633,758.6363636363637 2466.356391906738,526.8181818181819 2517.3371679132633,295.00000000000006 2710.9090909090905,103.6002631620928 2833.038982044566,63.181818181818244 3038.1818181818176,25.427928404374597" fill="none" stroke="#95B6FD" stroke-width="1.5" />
<rect x="2697.4090909090905" y="97.3002631620928" width="27" height="12.6" fill="#FFFFFF" />
<text x="2710.9090909090905" y="103.6002631620928" font-family="sans-serif" font-size="9" text-anchor="middle">-0.45</text>
<polyline points="-3180,-434.5842864296652 -2852.7272727272725,-429.1654179312966 -2525.4545454545455,-510.62132922085846 -2371.617081382058,-632.2727272727271 -2284.596155340021,-864.0909090909091 -2305.70067319003,-1095.909090909091 -2474.5588198575106,-1327.7272727272725 -2525.4545454545455,-1356.2747677889738 -2852.7272727272725,-1427.0897024328056 -3180,-1422.3787290399723" fill="none" stroke="#95B6FD" stroke-width="1.5" />
<rect x="-2319.20067319003" y="-1102.209090909091" width="27" height="12.6" fill="#FFFFFF" />
<text x="-2305.70067319003" y="-1095.909090909091" font-family="sans-serif" font-size="9" text-anchor="middle">-0.45</text>
<polyline points="498.2137220556085,-632.2727272727271 747.2727272727273,-474.3236871199174 1074.5454545454545,-423.57554479078806 1401.8181818181818,-450.12271664359344 1729.090909090909,-606.0581688447431 1752.363510131836,-632.2727272727271 1829.617215936834,-864.0909090909091 1810.8814690329812,-1095.909090909091 1729.090909090909,-1242.5097014687276 1628.8654778220437,-1327.7272727272725 1401.8181818181818,-1408.870357166637 1074.5454545454545,-1431.9494620236483 747.2727272727273,-1387.830706509677 613.6588070609353,-1327.7272727272725 424.29126132618296,-1095.909090909091 420,-1055.7569356398149 405.367447679693,-864.0909090909091 420,-809.7564224763349 498.2137220556085,-632.2727272727271" fill="none" stroke="#95B6FD" stroke-width="1.5" />
<rect x="1615.3654778220437" y="-1334.0272727272725" width="27" height="12.6" fill="#FFFFFF" />
<text x="1628.8654778220437" y="-1327.7272727272725" font-family="sans-serif" font-size="9" text-anchor="middle">-0.45</text>
<polyline points="-1031.775767586448,2845 -889.090909090909,2839.873398000544 -808.4337043762206,2845" fill="none" stroke="#B4CAF6" stroke-width="1.5" />
<rect x="-902.590909090909" y="2833.573398000544" width="27" height="12.6" fill="#FFFFFF" />
<text x="-889.090909090909" y="2839.873398000544" font-family="sans-serif" font-size="9" text-anchor="middle">-0.27</text>
<polyline points="3010.7703052867537,2845 3038.1818181818176,2842.4847836927934" fill="none" stroke="#B4CAF6" stroke-width="1.5" />
<rect x="3024.6818181818176" y="2836.184783692793" width="27" height="12.6" fill="#FFFFFF" />
<text x="3038.1818181818176" y="2842.4847836927934" font-family="sans-serif" font-size="9" text-anchor="middle">-0.27</text>
<polyline points="-3180,2575.0200375643644 -2852.7272727272725,2577.8467542474923 -2525.4545454545455,2535.3577934611926 -2250.9082343361597,2381.3636363636365 -2198.1818181818185,2281.4522673866963 -2158.076726740057,2149.5454545454545 -2147.624733664773,1917.727272727273 -2190.721258683638,1685.909090909091 -2198.1818181818185,1670.488385287198 -2442.365757335316,1454.090909090909 -2525.4545454545455,1427.1032372387972 -2852.7272727272725,1388.457182970914 -3180,1391.0281664674933" fill="none" stroke="#B4CAF6" stroke-width="1.5" />
<rect x="-2161.124733664773" y="1911.427272727273" width="27" height="12.6" fill="#FFFFFF" />
<text x="-2147.624733664773" y="1917.727272727273" font-family="sans-serif" font-size="9" text-anchor="middle">-0.27</text>
<polyline points="376.8375218998302,2381.3636363636365 420,2426.4900701696224 747.2727272727273,2554.291224046187 1074.5454545454545,2580.7625657861886 1401.8181818181818,2566.914837577126 1729.090909090909,2485.5758771029386 1859.5240610296075,2381.3636363636365 1949.4674439863725,2149.5454545454545 1960.7089233398438,1917.727272727273 1914.3567622791636,1685.909090909091 1729.090909090909,1477.2232939980247 1670.9181456132367,1454.090909090909 1401.8181818181818,1398.400213068182 1074.5454545454545,1385.8051187341864 747.2727272727273,1409.8821191354232 577.5555714693936,1454.090909090909 420,1545.187635421753 324.5294718308882,1685.909090909091 280.31137379732996,1917.727272727273 291.0352745923129,2149.5454545454545 376.8375218998302,2381.3636363636365" fill="none" stroke="#B4CAF6" stroke-width="1.5" />
<rect x="1715.590909090909" y="1470.9232939980247" width="27" height="12.6" fill="#FFFFFF" />
<text x="1729.090909090909" y="1477.2232939980247" font-family="sans-serif" font-size="9" text-anchor="middle">-0.27</text>
<polyline points="-1611.5941377119584,990.4545454545455 -1543.6363636363635,1032.7822843464937 -1216.3636363636363,1109.493231339888 -889.090909090909,1122.5528680194507 -561.8181818181818,1097.5877930901268 -256.3108296827836,990.4545454545455 -234.54545454545453,971.8040131438863 -118.88456387953323,758.6363636363637 -92.97959414395419,526.8181818181819 -118.88456387953323,295.00000000000006 -234.54545454545453,81.83235049247747 -256.3108296827836,63.181818181818244 -561.8181818181818,-43.95142945376301 -889.090909090909,-68.91650438308704 -1216.3636363636363,-55.85686770352447 -1543.6363636363635,20.8540792898699 -1611.5941377119584,63.181818181818244 -1750.0669722123578,295.00000000000006 -1777.22224148837,526.8181818181819 -1750.0669722123578,758.6363636363637 -1611.5941377119584,990.4545454545455" fill="none" stroke="#B4CAF6" stroke-width="1.5" />
<rect x="-248.04545454545453" y="75.53235049247748" width="27" height="12.6" fill="#FFFFFF" />
<text x="-234.54545454545453" y="81.83235049247747" font-family="sans-serif" font-size="9" text-anchor="middle">-0.27</text>
<polyline points="2506.7369218306103,990.4545454545455 2710.9090909090905,1079.7315148873763 3038.1818181818176,1119.8029763048346" fill="none" stroke="#B4CAF6" stroke-width="1.5" />
<rect x="2697.4090909090905" y="1073.4315148873764" width="27" height="12.6" fill="#FFFFFF" />
<text x="2710.9090909090905" y="1079.7315148873763" font-family="sans-serif" font-size="9" text-anchor="middle">-0.27</text>
<polyline points="2356.4976362748575,758.6363636363637 2383.6363636363635,828.7764544920489 2506.7369218306103,990.4545454545455" fill="none" stroke="#B4CAF6" stroke-width="1.5" />
<rect x="2370.1363636363635" y="822.4764544920489" width="27" height="12.6" fill="#FFFFFF" />
<text x="2383.6363636363635" y="828.7764544920489" font-family="sans-serif" font-size="9" text-anchor="middle">-0.27</text>
<polyline points="2356.4976362748575,758.6363636363637 2331.249680952592,526.8181818181819 2356.4976362748575,295.00000000000006 2383.6363636363635,224.85990914431488 2506.7369218306103,63.181818181818244 2710.9090909090905,-26.095151251012567 3038.1818181818176,-66.16661266847086" fill="none" stroke="#B4CAF6" stroke-width="1.5" />
<rect x="2370.1363636363635" y="218.55990914431487" width="27" height="12.6" fill="#FFFFFF" />
<text x="2383.6363636363635" y="224.85990914431488" font-family="sans-serif" font-size="9" text-anchor="middle">-0.27</text>
<polyline points="-3180,-337.39180283112955 -2852.7272727272725,-334.82081933455027 -2525.4545454545455,-373.46687360243357 -2442.365757335316,-400.4545454545454 -2198.1818181818185,-616.8520216508344 -2190.721258683638,-632.2727272727271 -2147.624733664773,-864.0909090909091 -2158.076726740057,-1095.909090909091 -2198.1818181818185,-1227.8159037503328 -2250.9082343361597,-1327.7272727272725 -2525.4545454545455,-1481.721429824829 -2852.7272727272725,-1524.2103906111283 -3180,-1521.3836739280005" fill="none" stroke="#B4CAF6" stroke-width="1.5" />
<rect x="-2161.124733664773" y="-870.3909090909091" width="27" height="12.6" fill="#FFFFFF" />
<text x="-2147.624733664773" y="-864.0909090909091" font-family="sans-serif" font-size="9" text-anchor="middle">-0.27</text>
<polyline points="577.5555714693936,-400.4545454545454 747.2727272727273,-356.24575549905944 1074.5454545454545,-332.16875509782267 1401.8181818181818,-344.76384943181813 1670.9181456132367,-400.4545454545454 1729.090909090909,-423.58693036166096 1914.3567622791636,-632.2727272727271 1960.7089233398438,-864.0909090909091 1949.4674439863725,-1095.909090909091 1859.5240610296075,-1327.7272727272725 1729.090909090909,-1431.9395134665747 1401.8181818181818,-1513.2784739407625 1074.5454545454545,-1527.1262021498246 747.2727272727273,-1500.6548604098234 420,-1372.8537065332584 376.8375218998302,-1327.7272727272725 291.0352745923129,-1095.909090909091 280.31137379732996,-864.0909090909091 324.5294718308882,-632.2727272727271 420,-491.5512717853892 577.5555714693936,-400.4545454545454" fill="none" stroke="#B4CAF6" stroke-width="1.5" />
<rect x="1715.590909090909" y="-1438.2395134665746" width="27" height="12.6" fill="#FFFFFF" />
<text x="1729.090909090909" y="-1431.9395134665747" font-family="sans-serif" font-size="9" text-anchor="middle">-0.27</text>
<polyline points="-3180,2667.6742657748136 -2852.7272727272725,2668.5181244936857 -2525.4545454545455,2655.8334931460295 -2262.184514132413,2613.1818181818185 -2198.1818181818185,2588.2043075561523 -2057.1000428633256,2381.3636363636365 -2029.224888194691,2149.5454545454545 -2025.7409425215285,1917.727272727273 -2040.1063468239524,1685.909090909091 -2109.776833274148,1454.090909090909 -2198.1818181818185,1379.0364521200008 -2525.4545454545455,1313.002794005654 -2852.7272727272725,1300.1207943396134 -3180,1300.9777519919655" fill="none" stroke="#D0D8EA" stroke-width="1.5" />
<rect x="-2039.2409425215285" y="1911.427272727273" width="27" height="12.6" fill="#FFFFFF" />
<text x="-2025.7409425215285" y="1917.727272727273" font-family="sans-serif" font-size="9" text-anchor="middle">-0.09</text>
<polyline points="-1743.13419342041,2845 -1543.6363636363635,2783.0481243133545 -1216.3636363636363,2758.7650229714136 -889.090909090909,2754.6310658888383 -561.8181818181818,2762.533757469871 -234.54545454545453,2800.687579241666 -125.49809152429754,2845" fill="none" stroke="#D0D8EA" stroke-width="1.5" />
<rect x="-902.590909090909" y="2748.331065888838" width="27" height="12.6" fill="#FFFFFF" />
<text x="-889.090909090909" y="2754.6310658888383" font-family="sans-serif" font-size="9" text-anchor="middle">-0.09</text>
<polyline points="386.38723936947906,2613.1818181818185 420,2623.331999345259 747.2727272727273,2661.4858211170545 1074.5454545454545,2669.388733777133 1401.8181818181818,2665.254555615512 1729.090909090909,2640.971675352617 1849.5135498046875,2613.1818181818185 2056.363636363636,2387.1534755013204 2057.952284379439,2381.3636363636365 2085.8275951038704,2149.5454545454545 2089.311540777033,1917.727272727273 2074.9461364746094,1685.909090909091 2056.363636363636,1590.4351100054655 2001.416234103116,1454.090909090909 1729.090909090909,1328.0958604812622 1401.8181818181818,1303.435100858862 1074.5454545454545,1299.236754504117 747.2727272727273,1307.2624213045294 420,1346.0098403150387 241.4783419262279,1454.090909090909 169.99467730522156,1685.909090909091 155.25530966845423,1917.727272727273 158.82994326678187,2149.5454545454545 187.4306891181252,2381.3636363636365 386.38723936947906,2613.1818181818185" fill="none" stroke="#D0D8EA" stroke-width="1.5" />
<rect x="2042.863636363636" y="1584.1351100054655" width="27" height="12.6" fill="#FFFFFF" />
<text x="2056.363636363636" y="1590.4351100054655" font-family="sans-serif" font-size="9" text-anchor="middle">-0.09</text>
<polyline points="2362.9433649236503,2845 2383.6363636363635,2833.208306919445 2710.9090909090905,2768.186085440896 3038.1818181818176,2755.5014540932398" fill="none" stroke="#D0D8EA" stroke-width="1.5" />
<rect x="2697.4090909090905" y="2761.886085440896" width="27" height="12.6" fill="#FFFFFF" />
<text x="2710.9090909090905" y="2768.186085440896" font-family="sans-serif" font-size="9" text-anchor="middle">-0.09</text>
<polyline points="-1851.7927239157934,990.4545454545455 -1543.6363636363635,1182.3906200582333 -1216.3636363636363,1207.9608988761902 -889.090909090909,1212.3141111027112 -561.8181818181818,1203.992419459603 -234.54545454545453,1163.8158902254972 -21.842446543953642,990.4545454545455 22.189993858337402,758.6363636363637 30.824985395778306,526.8181818181819 22.189993858337402,295.00000000000006 -21.842446543953642,63.181818181818244 -234.54545454545453,-110.1795265891335 -561.8181818181818,-150.35605582323933 -889.090909090909,-158.67774746634734 -1216.3636363636363,-154.32453523982645 -1543.6363636363635,-128.7542564218694 -1851.7927239157934,63.181818181818244 -1870.9090909090908,133.4812241250819 -1896.05092828924,295.00000000000006 -1904.4668613780627,526.8181818181819 -1896.05092828924,758.6363636363637 -1870.9090909090908,920.1551395112818 -1851.7927239157934,990.4545454545455" fill="none" stroke="#D0D8EA" stroke-width="1.5" />
<rect x="-248.04545454545453" y="-116.4795265891335" width="27" height="12.6" fill="#FFFFFF" />
<text x="-234.54545454545453" y="-110.1795265891335" font-family="sans-serif" font-size="9" text-anchor="middle">-0.09</text>
<polyline points="2261.9170553034,990.4545454545455 2383.6363636363635,1129.5711881464179 2710.9090909090905,1198.0403635718608 3038.1818181818176,1211.39751737768" fill="none" stroke="#D0D8EA" stroke-width="1.5" />
<rect x="2697.4090909090905" y="1191.7403635718608" width="27" height="12.6" fill="#FFFFFF" />
<text x="2710.9090909090905" y="1198.0403635718608" font-family="sans-serif" font-size="9" text-anchor="middle">-0.09</text>
<polyline points="2261.9170553034,990.4545454545455 2219.0015550093212,758.6363636363637 2210.5856219204984,526.8181818181819 2219.0015550093212,295.00000000000006 2261.9170553034,63.181818181818244 2383.6363636363635,-75.93482451005411 2710.9090909090905,-144.40399993549693 3038.1818181818176,-157.76115374131632" fill="none" stroke="#D0D8EA" stroke-width="1.5" />
<rect x="2248.4170553034" y="56.88181818181825" width="27" height="12.6" fill="#FFFFFF" />
<text x="2261.9170553034" y="63.181818181818244" font-family="sans-serif" font-size="9" text-anchor="middle">-0.09</text>
<polyline points="-3180,-247.3413883556018 -2852.7272727272725,-246.4844307032498 -2525.4545454545455,-259.36643036929036 -2198.1818181818185,-325.400088483637 -2109.776833274148,-400.4545454545454 -2040.1063468239524,-632.2727272727271 -2025.7409425215285,-864.0909090909091 -2029.224888194691,-1095.909090909091 -2057.1000428633256,-1327.7272727272725 -2198.1818181818185,-1534.5679439197884 -2262.184514132413,-1559.5454545454545" fill="none" stroke="#D0D8EA" stroke-width="1.5" />
<rect x="-2053.6063468239527" y="-638.5727272727271" width="27" height="12.6" fill="#FFFFFF" />
<text x="-2040.1063468239524" y="-632.2727272727271" font-family="sans-serif" font-size="9" text-anchor="middle">-0.09</text>
<polyline points="241.4783419262279,-400.4545454545454 420,-292.3734766786748 747.2727272727273,-253.62605766816569 1074.5454545454545,-245.6003908677534 1401.8181818181818,-249.79873722249806 1729.090909090909,-274.45949684489847 2001.416234103116,-400.4545454545454 2056.363636363636,-536.7987463691017 2074.9461364746094,-632.2727272727271 2089.311540777033,-864.0909090909091 2085.8275951038704,-1095.909090909091 2057.952284379439,-1327.7272727272725 2056.363636363636,-1333.5171118649569 1849.5135498046875,-1559.5454545454545" fill="none" stroke="#D0D8EA" stroke-width="1.5" />
<rect x="2042.863636363636" y="-543.0987463691016" width="27" height="12.6" fill="#FFFFFF" />
<text x="2056.363636363636" y="-536.7987463691017" font-family="sans-serif" font-size="9" text-anchor="middle">-0.09</text>
<polyline points="241.4783419262279,-400.4545454545454 169.99467730522156,-632.2727272727271 155.25530966845423,-864.0909090909091 158.82994326678187,-1095.909090909091 187.4306891181252,-1327.7272727272725 386.38723936947906,-1559.5454545454545" fill="none" stroke="#D0D8EA" stroke-width="1.5" />
<rect x="145.32994326678187" y="-1102.209090909091" width="27" height="12.6" fill="#FFFFFF" />
<text x="158.82994326678187" y="-1095.909090909091" font-family="sans-serif" font-size="9" text-anchor="middle">-0.09</text>
<polyline points="-3180,2756.345312812112 -2852.7272727272725,2755.5014540932398 -2525.4545454545455,2768.186085440896 -2198.1818181818185,2833.208306919445 -2177.4888194691052,2845" fill="none" stroke="#E6DADA" stroke-width="1.5" />
<rect x="-2536.2545454545457" y="2761.886085440896" width="21.599999999999998" height="12.6" fill="#FFFFFF" />
<text x="-2525.4545454545455" y="2768.186085440896" font-family="sans-serif" font-size="9" text-anchor="middle">0.09</text>
<polyline points="-1664.059004350142,2613.1818181818185 -1543.6363636363635,2640.971675352617 -1216.3636363636363,2665.254555615512 -889.090909090909,2669.388733777133 -561.8181818181818,2661.4858211170545 -234.54545454545453,2623.331999345259 -200.93269391493365,2613.1818181818185 -1.9761436635797622,2381.3636363636365 26.624602187763557,2149.5454545454545 30.199235786091194,1917.727272727273 15.459868149323896,1685.909090909091 -56.02379647168246,1454.090909090909 -234.54545454545453,1346.0098403150387 -561.8181818181818,1307.2624213045294 -889.090909090909,1299.236754504117 -1216.3636363636363,1303.435100858862 -1543.6363636363635,1328.0958604812622 -1815.9616886485705,1454.090909090909 -1870.9090909090908,1590.4351100054655 -1889.4915910200639,1685.909090909091 -1903.8569953224874,1917.727272727273 -1900.3730496493251,2149.5454545454545 -1872.4977389248934,2381.3636363636365 -1870.9090909090908,2387.1534755013204 -1664.059004350142,2613.1818181818185" fill="none" stroke="#E6DADA" stroke-width="1.5" />
<rect x="-245.34545454545454" y="1339.7098403150387" width="21.599999999999998" height="12.6" fill="#FFFFFF" />
<text x="-234.54545454545453" y="1346.0098403150387" font-family="sans-serif" font-size="9" text-anchor="middle">0.09</text>
<polyline points="310.952636978843,2845 420,2800.687579241666 747.2727272727273,2762.533757469871 1074.5454545454545,2754.6310658888383 1401.8181818181818,2758.7650229714136 1729.090909090909,2783.0481243133545 1928.5887388749554,2845" fill="none" stroke="#E6DADA" stroke-width="1.5" />
<rect x="1063.7454545454545" y="2748.331065888838" width="21.599999999999998" height="12.6" fill="#FFFFFF" />
<text x="1074.5454545454545" y="2754.6310658888383" font-family="sans-serif" font-size="9" text-anchor="middle">0.09</text>
<polyline points="2447.639059586958,2613.1818181818185 2710.9090909090905,2655.8334931460295 3038.1818181818176,2668.5181244936857" fill="none" stroke="#E6DADA" stroke-width="1.5" />
<rect x="2700.1090909090904" y="2649.5334931460293" width="21.599999999999998" height="12.6" fill="#FFFFFF" />
<text x="2710.9090909090905" y="2655.8334931460295" font-family="sans-serif" font-size="9" text-anchor="middle">0.09</text>
<polyline points="2242.5545883178706,2381.3636363636365 2383.6363636363635,2588.2043075561523 2447.639059586958,2613.1818181818185" fill="none" stroke="#E6DADA" stroke-width="1.5" />
<rect x="2372.8363636363633" y="2581.904307556152" width="21.599999999999998" height="12.6" fill="#FFFFFF" />
<text x="2383.6363636363635" y="2588.2043075561523" font-family="sans-serif" font-size="9" text-anchor="middle">0.09</text>
<polyline points="2242.5545883178706,2381.3636363636365 2214.679433649236,2149.5454545454545 2211.1954879760738,1917.727272727273 2225.5608922784977,1685.909090909091 2295.231378728693,1454.090909090909 2383.6363636363635,1379.0364521200008 2710.9090909090905,1313.002794005654 3038.1818181818176,1300.1207943396134" fill="none" stroke="#E6DADA" stroke-width="1.5" />
<rect x="2284.431378728693" y="1447.790909090909" width="21.599999999999998" height="12.6" fill="#FFFFFF" />
<text x="2295.231378728693" y="1454.090909090909" font-family="sans-serif" font-size="9" text-anchor="middle">0.09</text>
<polyline points="-3180,1210.5088901519775 -2852.7272727272725,1211.39751737768 -2525.4545454545455,1198.0403635718608 -2198.1818181818185,1129.5711881464179 -2076.462509848855,990.4545454545455 -2033.547009554776,758.6363636363637 -2025.1310764659531,526.8181818181819 -2033.547009554776,295.00000000000006 -2076.462509848855,63.181818181818244 -2198.1818181818185,-75.93482451005411 -2525.4545454545455,-144.40399993549693 -2852.7272727272725,-157.76115374131632 -3180,-156.8725265156138" fill="none" stroke="#E6DADA" stroke-width="1.5" />
<rect x="-2035.931076465953" y="520.5181818181819" width="21.599999999999998" height="12.6" fill="#FFFFFF" />
<text x="-2025.1310764659531" y="526.8181818181819" font-family="sans-serif" font-size="9" text-anchor="middle">0.09</text>
<polyline points="207.2969919984991,990.4545454545455 420,1163.8158902254972 747.2727272727273,1203.992419459603 1074.5454545454545,1212.3141111027112 1401.8181818181818,1207.9608988761902 1729.090909090909,1182.3906200582333 2037.247269370339,990.4545454545455 2056.363636363636,920.1551395112818 2081.5054737437854,758.6363636363637 2089.921406832608,526.8181818181819 2081.5054737437854,295.00000000000006 2056.363636363636,133.4812241250819 2037.247269370339,63.181818181818244 1729.090909090909,-128.7542564218694 1401.8181818181818,-154.32453523982645 1074.5454545454545,-158.67774746634734 747.2727272727273,-150.35605582323933 420,-110.1795265891335 207.2969919984991,63.181818181818244 163.26455159620804,295.00000000000006 154.62956005876714,526.8181818181819 163.26455159620804,758.6363636363637 207.2969919984991,990.4545454545455" fill="none" stroke="#E6DADA" stroke-width="1.5" />
<rect x="2045.563636363636" y="127.1812241250819" width="21.599999999999998" height="12.6" fill="#FFFFFF" />
<text x="2056.363636363636" y="133.4812241250819" font-family="sans-serif" font-size="9" text-anchor="middle">0.09</text>
<polyline points="-1815.9616886485705,-400.4545454545454 -1543.6363636363635,-274.45949684489847 -1216.3636363636363,-249.79873722249806 -889.090909090909,-245.6003908677534 -561.8181818181818,-253.62605766816569 -234.54545454545453,-292.3734766786748 -56.02379647168246,-400.4545454545454 15.459868149323896,-632.2727272727271 30.199235786091194,-864.0909090909091 26.624602187763557,-1095.909090909091 -1.9761436635797622,-1327.7272727272725 -200.93269391493365,-1559.5454545454545" fill="none" stroke="#E6DADA" stroke-width="1.5" />
<rect x="-66.82379647168246" y="-406.7545454545454" width="21.599999999999998" height="12.6" fill="#FFFFFF" />
<text x="-56.02379647168246" y="-400.4545454545454" font-family="sans-serif" font-size="9" text-anchor="middle">0.09</text>
<polyline points="2295.231378728693,-400.4545454545454 2383.6363636363635,-325.400088483637 2710.9090909090905,-259.36643036929036 3038.1818181818176,-246.4844307032498" fill="none" stroke="#E6DADA" stroke-width="1.5" />
<rect x="2700.1090909090904" y="-265.66643036929037" width="21.599999999999998" height="12.6" fill="#FFFFFF" />
<text x="2710.9090909090905" y="-259.36643036929036" font-family="sans-serif" font-size="9" text-anchor="middle">0.09</text>
<polyline points="-1889.4915910200639,-632.2727272727271 -1870.9090909090908,-536.7987463691017 -1815.9616886485705,-400.4545454545454" fill="none" stroke="#E6DADA" stroke-width="1.5" />
<rect x="-1881.7090909090907" y="-543.0987463691016" width="21.599999999999998" height="12.6" fill="#FFFFFF" />
<text x="-1870.9090909090908" y="-536.7987463691017" font-family="sans-serif" font-size="9" text-anchor="middle">0.09</text>
<polyline points="2295.231378728693,-400.4545454545454 2225.5608922784977,-632.2727272727271 2211.1954879760738,-864.0909090909091 2214.679433649236,-1095.909090909091 2242.5545883178706,-1327.7272727272725 2383.6363636363635,-1534.5679439197884 2447.639059586958,-1559.5454545454545" fill="none" stroke="#E6DADA" stroke-width="1.5" />
<rect x="2203.879433649236" y="-1102.209090909091" width="21.599999999999998" height="12.6" fill="#FFFFFF" />
<text x="2214.679433649236" y="-1095.909090909091" font-family="sans-serif" font-size="9" text-anchor="middle">0.09</text>
<polyline points="-1889.4915910200639,-632.2727272727271 -1903.8569953224874,-864.0909090909091 -1900.3730496493251,-1095.909090909091 -1872.4977389248934,-1327.7272727272725 -1870.9090909090908,-1333.5171118649569 -1664.059004350142,-1559.5454545454545" fill="none" stroke="#E6DADA" stroke-width="1.5" />
<rect x="-1883.2977389248933" y="-1334.0272727272725" width="21.599999999999998" height="12.6" fill="#FFFFFF" />
<text x="-1872.4977389248934" y="-1327.7272727272725" font-family="sans-serif" font-size="9" text-anchor="middle">0.09</text>
<polyline points="-3177.920712557706,2845 -2852.7272727272725,2842.4847836927934 -2825.3157598322086,2845" fill="none" stroke="#EEC2AF" stroke-width="1.5" />
<rect x="-2863.5272727272727" y="2836.184783692793" width="21.599999999999998" height="12.6" fill="#FFFFFF" />
<text x="-2852.7272727272725" y="2842.4847836927934" font-family="sans-serif" font-size="9" text-anchor="middle">0.27</text>
<polyline points="993.8882498307661,2845 1074.5454545454545,2839.873398000544 1217.2303130409935,2845" fill="none" stroke="#EEC2AF" stroke-width="1.5" />
<rect x="1063.7454545454545" y="2833.573398000544" width="21.599999999999998" height="12.6" fill="#FFFFFF" />
<text x="1074.5454545454545" y="2839.873398000544" font-family="sans-serif" font-size="9" text-anchor="middle">0.27</text>
<polyline points="-1674.069515575062,2381.3636363636365 -1543.6363636363635,2485.5758771029386 -1216.3636363636363,2566.914837577126 -889.090909090909,2580.7625657861886 -561.8181818181818,2554.291224046187 -234.54545454545453,2426.4900701696224 -191.38297644528475,2381.3636363636365 -105.58072913776743,2149.5454545454545 -94.85682834278452,1917.727272727273 -139.07492637634277,1685.909090909091 -234.54545454545453,1545.187635421753 -392.1010260148481,1454.090909090909 -561.8181818181818,1409.8821191354232 -889.090909090909,1385.8051187341864 -1216.3636363636363,1398.400213068182 -1485.4636001586912,1454.090909090909 -1543.6363636363635,1477.2232939980247 -1728.902216824618,1685.909090909091 -1775.2543778852983,1917.727272727273 -1764.012898531827,2149.5454545454545 -1674.069515575062,2381.3636363636365" fill="none" stroke="#EEC2AF" stroke-width="1.5" />
<rect x="-245.34545454545454" y="1538.887635421753" width="21.599999999999998" height="12.6" fill="#FFFFFF" />
<text x="-234.54545454545453" y="1545.187635421753" font-family="sans-serif" font-size="9" text-anchor="middle">0.27</text>
<polyline points="2436.3627797907047,2381.3636363636365 2710.9090909090905,2535.3577934611926 3038.1818181818176,2577.8467542474923" fill="none" stroke="#EEC2AF" stroke-width="1.5" />
<rect x="2700.1090909090904" y="2529.0577934611924" width="21.599999999999998" height="12.6" fill="#FFFFFF" />
<text x="2710.9090909090905" y="2535.3577934611926" font-family="sans-serif" font-size="9" text-anchor="middle">0.27</text>
<polyline points="2343.531272194602,2149.5454545454545 2383.6363636363635,2281.4522673866963 2436.3627797907047,2381.3636363636365" fill="none" stroke="#EEC2AF" stroke-width="1.5" />
<rect x="2372.8363636363633" y="2275.152267386696" width="21.599999999999998" height="12.6" fill="#FFFFFF" />
<text x="2383.6363636363635" y="2281.4522673866963" font-family="sans-serif" font-size="9" text-anchor="middle">0.27</text>
<polyline points="2343.531272194602,2149.5454545454545 2333.079279119318,1917.727272727273 2376.175804138183,1685.909090909091 2383.6363636363635,1670.488385287198 2627.820302789861,1454.090909090909 2710.9090909090905,1427.1032372387972 3038.1818181818176,1388.457182970914" fill="none" stroke="#EEC2AF" stroke-width="1.5" />
<rect x="2372.8363636363633" y="1664.1883852871981" width="21.599999999999998" height="12.6" fill="#FFFFFF" />
<text x="2383.6363636363635" y="1670.488385287198" font-family="sans-serif" font-size="9" text-anchor="middle">0.27</text>
<polyline points="-3180,1117.1371498974886 -2852.7272727272725,1119.8029763048346 -2525.4545454545455,1079.7315148873763 -2321.2823763760653,990.4545454545455 -2198.1818181818185,828.7764544920489 -2171.0430908203125,758.6363636363637 -2145.795135498047,526.8181818181819 -2171.0430908203125,295.00000000000006 -2198.1818181818185,224.85990914431488 -2321.2823763760653,63.181818181818244 -2525.4545454545455,-26.095151251012567 -2852.7272727272725,-66.16661266847086 -3180,-63.50078626112497" fill="none" stroke="#EEC2AF" stroke-width="1.5" />
<rect x="-2156.595135498047" y="520.5181818181819" width="21.599999999999998" height="12.6" fill="#FFFFFF" />
<text x="-2145.795135498047" y="526.8181818181819" font-family="sans-serif" font-size="9" text-anchor="middle">0.27</text>
<polyline points="441.7653751373291,990.4545454545455 747.2727272727273,1097.5877930901268 1074.5454545454545,1122.5528680194507 1401.8181818181818,1109.493231339888 1729.090909090909,1032.7822843464937 1797.048683166504,990.4545454545455 1935.5215176669033,758.6363636363637 1962.6767869429154,526.8181818181819 1935.5215176669033,295.00000000000006 1797.048683166504,63.181818181818244 1729.090909090909,20.8540792898699 1401.8181818181818,-55.85686770352447 1074.5454545454545,-68.91650438308704 747.2727272727273,-43.95142945376301 441.7653751373291,63.181818181818244 420,81.83235049247747 304.33910933407867,295.00000000000006 278.43413959849966,526.8181818181819 304.33910933407867,758.6363636363637 420,971.8040131438863 441.7653751373291,990.4545454545455" fill="none" stroke="#EEC2AF" stroke-width="1.5" />
<rect x="1718.290909090909" y="14.5540792898699" width="21.599999999999998" height="12.6" fill="#FFFFFF" />
<text x="1729.090909090909" y="20.8540792898699" font-family="sans-serif" font-size="9" text-anchor="middle">0.27</text>
<polyline points="-1485.4636001586912,-400.4545454545454 -1216.3636363636363,-344.76384943181813 -889.090909090909,-332.16875509782267 -561.8181818181818,-356.24575549905944 -392.1010260148481,-400.4545454545454 -234.54545454545453,-491.5512717853892 -139.07492637634277,-632.2727272727271 -94.85682834278452,-864.0909090909091 -105.58072913776743,-1095.909090909091 -191.38297644528475,-1327.7272727272725 -234.54545454545453,-1372.8537065332584 -561.8181818181818,-1500.6548604098234 -889.090909090909,-1527.1262021498246 -1216.3636363636363,-1513.2784739407625 -1543.6363636363635,-1431.9395134665747 -1674.069515575062,-1327.7272727272725 -1764.012898531827,-1095.909090909091 -1775.2543778852983,-864.0909090909091 -1728.902216824618,-632.2727272727271 -1543.6363636363635,-423.58693036166096 -1485.4636001586912,-400.4545454545454" fill="none" stroke="#EEC2AF" stroke-width="1.5" />
<rect x="-245.34545454545454" y="-1379.1537065332584" width="21.599999999999998" height="12.6" fill="#FFFFFF" />
<text x="-234.54545454545453" y="-1372.8537065332584" font-family="sans-serif" font-size="9" text-anchor="middle">0.27</text>
<polyline points="2627.820302789861,-400.4545454545454 2710.9090909090905,-373.46687360243357 3038.1818181818176,-334.82081933455027" fill="none" stroke="#EEC2AF" stroke-width="1.5" />
<rect x="2700.1090909090904" y="-379.7668736024336" width="21.599999999999998" height="12.6" fill="#FFFFFF" />
<text x="2710.9090909090905" y="-373.46687360243357" font-family="sans-serif" font-size="9" text-anchor="middle">0.27</text>
<polyline points="2376.175804138183,-632.2727272727271 2383.6363636363635,-616.8520216508344 2627.820302789861,-400.4545454545454" fill="none" stroke="#EEC2AF" stroke-width="1.5" />
<rect x="2372.8363636363633" y="-623.1520216508344" width="21.599999999999998" height="12.6" fill="#FFFFFF" />
<text x="2383.6363636363635" y="-616.8520216508344" font-family="sans-serif" font-size="9" text-anchor="middle">0.27</text>
<polyline points="2376.175804138183,-632.2727272727271 2333.079279119318,-864.0909090909091 2343.531272194602,-1095.909090909091 2383.6363636363635,-1227.8159037503328 2436.3627797907047,-1327.7272727272725 2710.9090909090905,-1481.721429824829 3038.1818181818176,-1524.2103906111283" fill="none" stroke="#EEC2AF" stroke-width="1.5" />
<rect x="2372.8363636363633" y="-1234.1159037503328" width="21.599999999999998" height="12.6" fill="#FFFFFF" />
<text x="2383.6363636363635" y="-1227.8159037503328" font-family="sans-serif" font-size="9" text-anchor="middle">0.27</text>
<polyline points="-1443.4109323674982,2381.3636363636365 -1216.3636363636363,2462.506720803001 -889.090909090909,2485.585825660012 -561.8181818181818,2441.4670701460404 -428.20426160638976,2381.3636363636365 -238.8367158716375,2149.5454545454545 -234.54545454545453,2109.3932992761784 -219.91290222514758,1917.727272727273 -234.54545454545453,1863.3927861126986 -312.75917660106313,1685.909090909091 -561.8181818181818,1527.9600507562811 -889.090909090909,1477.2119084271517 -1216.3636363636363,1503.7590802799573 -1543.6363636363635,1659.6945324811068 -1566.9089646772904,1685.909090909091 -1644.1626704822886,1917.727272727273 -1625.4269235784357,2149.5454545454545 -1543.6363636363635,2296.1460651050916 -1443.4109323674982,2381.3636363636365" fill="none" stroke="#EFA07E" stroke-width="1.5" />
<rect x="-323.55917660106314" y="1679.609090909091" width="21.599999999999998" height="12.6" fill="#FFFFFF" />
<text x="-312.75917660106313" y="1685.909090909091" font-family="sans-serif" font-size="9" text-anchor="middle">0.45</text>
<polyline points="2660.0133653120556,2381.3636363636365 2710.9090909090905,2409.9111314253373 3038.1818181818176,2480.7260660691695" fill="none" stroke="#EFA07E" stroke-width="1.5" />
<rect x="2700.1090909090904" y="2403.611131425337" width="21.599999999999998" height="12.6" fill="#FFFFFF" />
<text x="2710.9090909090905" y="2409.9111314253373" font-family="sans-serif" font-size="9" text-anchor="middle">0.45</text>
<polyline points="2660.0133653120556,2381.3636363636365 2491.155218644575,2149.5454545454545 2470.050700794566,1917.727272727273 2557.071626836603,1685.909090909091 2710.9090909090905,1564.257692857222 3038.1818181818176,1482.8017815676603" fill="none" stroke="#EFA07E" stroke-width="1.5" />
<rect x="2546.271626836603" y="1679.609090909091" width="21.599999999999998" height="12.6" fill="#FFFFFF" />
<text x="2557.071626836603" y="1685.909090909091" font-family="sans-serif" font-size="9" text-anchor="middle">0.45</text>
<polyline points="-3180,1023.7654649127614 -2852.7272727272725,1028.2084352319891 -2647.584436590021,990.4545454545455 -2525.4545454545455,950.0361004742709 -2331.8826224587183,758.6363636363637 -2280.901846452193,526.8181818181819 -2331.8826224587183,295.00000000000006 -2525.4545454545455,103.6002631620928 -2647.584436590021,63.181818181818244 -2852.7272727272725,25.427928404374597 -3180,29.87089872360235" fill="none" stroke="#EFA07E" stroke-width="1.5" />
<rect x="-2291.701846452193" y="520.5181818181819" width="21.599999999999998" height="12.6" fill="#FFFFFF" />
<text x="-2280.901846452193" y="526.8181818181819" font-family="sans-serif" font-size="9" text-anchor="middle">0.45</text>
<polyline points="745.1949613744562,990.4545454545455 747.2727272727273,991.1831667206504 1074.5454545454545,1032.791569666429 1401.8181818181818,1011.0255638035861 1475.6537974964488,990.4545454545455 1729.090909090909,841.0973555391486 1787.6382064819336,758.6363636363637 1832.8970406272194,526.8181818181819 1787.6382064819336,295.00000000000006 1729.090909090909,212.53900809721517 1475.6537974964488,63.181818181818244 1401.8181818181818,42.610799832777616 1074.5454545454545,20.8447939699347 747.2727272727273,62.453196915713306 745.1949613744562,63.181818181818244 453.6531205610795,295.00000000000006 420,424.0475353598595 402.2387045080011,526.8181818181819 420,629.5888282765043 453.6531205610795,758.6363636363637 745.1949613744562,990.4545454545455" fill="none" stroke="#EFA07E" stroke-width="1.5" />
<rect x="1464.8537974964488" y="56.88181818181825" width="21.599999999999998" height="12.6" fill="#FFFFFF" />
<text x="1475.6537974964488" y="63.181818181818244" font-family="sans-serif" font-size="9" text-anchor="middle">0.45</text>
<polyline points="-1566.9089646772904,-632.2727272727271 -1543.6363636363635,-606.0581688447431 -1216.3636363636363,-450.12271664359344 -889.090909090909,-423.57554479078806 -561.8181818181818,-474.3236871199174 -312.75917660106313,-632.2727272727271 -234.54545454545453,-809.7564224763349 -219.91290222514758,-864.0909090909091 -234.54545454545453,-1055.7569356398149 -238.8367158716375,-1095.909090909091 -428.20426160638976,-1327.7272727272725 -561.8181818181818,-1387.830706509677 -889.090909090909,-1431.9494620236483 -1216.3636363636363,-1408.870357166637 -1443.4109323674982,-1327.7272727272725 -1543.6363636363635,-1242.5097014687276 -1625.4269235784357,-1095.909090909091 -1644.1626704822886,-864.0909090909091 -1566.9089646772904,-632.2727272727271" fill="none" stroke="#EFA07E" stroke-width="1.5" />
<rect x="-249.6367158716375" y="-1102.209090909091" width="21.599999999999998" height="12.6" fill="#FFFFFF" />
<text x="-238.8367158716375" y="-1095.909090909091" font-family="sans-serif" font-size="9" text-anchor="middle">0.45</text>
<polyline points="2557.071626836603,-632.2727272727271 2710.9090909090905,-510.62132922085846 3038.1818181818176,-429.1654179312966" fill="none" stroke="#EFA07E" stroke-width="1.5" />
<rect x="2700.1090909090904" y="-516.9213292208584" width="21.599999999999998" height="12.6" fill="#FFFFFF" />
<text x="2710.9090909090905" y="-510.62132922085846" font-family="sans-serif" font-size="9" text-anchor="middle">0.45</text>
<polyline points="2557.071626836603,-632.2727272727271 2470.050700794566,-864.0909090909091 2491.155218644575,-1095.909090909091 2660.0133653120556,-1327.7272727272725 2710.9090909090905,-1356.2747677889738 3038.1818181818176,-1427.0897024328056" fill="none" stroke="#EFA07E" stroke-width="1.5" />
<rect x="2649.2133653120554" y="-1334.0272727272725" width="21.599999999999998" height="12.6" fill="#FFFFFF" />
<text x="2660.0133653120556" y="-1327.7272727272725" font-family="sans-serif" font-size="9" text-anchor="middle">0.45</text>
<polyline points="-986.9421074607155,2381.3636363636365 -889.090909090909,2390.4093066128817 -833.777399930087,2381.3636363636365 -561.8181818181818,2298.8101781498303 -413.9048298922452,2149.5454545454545 -380.7697755640203,1917.727272727273 -517.396274913441,1685.909090909091 -561.8181818181818,1657.737430225719 -889.090909090909,1586.6901415044613 -1216.3636363636363,1623.8561820983887 -1339.5211549238725,1685.909090909091 -1498.662019209428,1917.727272727273 -1460.066767605868,2149.5454545454545 -1216.3636363636363,2344.9332362955265 -986.9421074607155,2381.3636363636365" fill="none" stroke="#E6795F" stroke-width="1.5" />
<rect x="-572.6181818181817" y="1651.437430225719" width="21.599999999999998" height="12.6" fill="#FFFFFF" />
<text x="-561.8181818181818" y="1657.737430225719" font-family="sans-serif" font-size="9" text-anchor="middle">0.63</text>
<polyline points="3028.6845744739876,2381.3636363636365 3038.1818181818176,2383.605598969893" fill="none" stroke="#E6795F" stroke-width="1.5" />
<rect x="3027.3818181818174" y="2377.305598969893" width="21.599999999999998" height="12.6" fill="#FFFFFF" />
<text x="3038.1818181818176" y="2383.605598969893" font-family="sans-serif" font-size="9" text-anchor="middle">0.63</text>
<polyline points="2647.262670343572,2149.5454545454545 2710.9090909090905,2229.632776000283 3028.6845744739876,2381.3636363636365" fill="none" stroke="#E6795F" stroke-width="1.5" />
<rect x="2700.1090909090904" y="2223.3327760002826" width="21.599999999999998" height="12.6" fill="#FFFFFF" />
<text x="2710.9090909090905" y="2229.632776000283" font-family="sans-serif" font-size="9" text-anchor="middle">0.63</text>
<polyline points="2647.262670343572,2149.5454545454545 2617.7163141424003,1917.727272727273 2710.9090909090905,1732.074485692111 2763.5844768177376,1685.909090909091 3038.1818181818176,1594.5158975774593" fill="none" stroke="#E6795F" stroke-width="1.5" />
<rect x="2700.1090909090904" y="1725.774485692111" width="21.599999999999998" height="12.6" fill="#FFFFFF" />
<text x="2710.9090909090905" y="1732.074485692111" font-family="sans-serif" font-size="9" text-anchor="middle">0.63</text>
<polyline points="-3180,906.837227236141 -2852.7272727272725,915.4970316453414 -2525.4545454545455,785.3253024274653 -2498.462666598233,758.6363636363637 -2427.0896114002576,526.8181818181819 -2498.462666598233,295.00000000000006 -2525.4545454545455,268.3110612088984 -2852.7272727272725,138.13933199102235 -3180,146.79913640022284" fill="none" stroke="#E6795F" stroke-width="1.5" />
<rect x="-2437.8896114002578" y="520.5181818181819" width="21.599999999999998" height="12.6" fill="#FFFFFF" />
<text x="-2427.0896114002576" y="526.8181818181819" font-family="sans-serif" font-size="9" text-anchor="middle">0.63</text>
<polyline points="640.4659938812256,758.6363636363637 747.2727272727273,843.3312763951042 1074.5454545454545,924.4300344857303 1401.8181818181818,882.0059603994544 1597.640897577459,758.6363636363637 1690.8728443492541,526.8181818181819 1597.640897577459,295.00000000000006 1401.8181818181818,171.6304032369094 1074.5454545454545,129.20632915063345 747.2727272727273,210.30508724125957 640.4659938812256,295.00000000000006 560.4239611192182,526.8181818181819 640.4659938812256,758.6363636363637" fill="none" stroke="#E6795F" stroke-width="1.5" />
<rect x="1586.8408975774591" y="288.70000000000005" width="21.599999999999998" height="12.6" fill="#FFFFFF" />
<text x="1597.640897577459" y="295.00000000000006" font-family="sans-serif" font-size="9" text-anchor="middle">0.63</text>
<polyline points="-1339.5211549238725,-632.2727272727271 -1216.3636363636363,-570.219818462025 -889.090909090909,-533.0537778680974 -561.8181818181818,-604.1010665893554 -517.396274913441,-632.2727272727271 -380.7697755640203,-864.0909090909091 -413.9048298922452,-1095.909090909091 -561.8181818181818,-1245.1738145134664 -833.777399930087,-1327.7272727272725 -889.090909090909,-1336.7729429765182 -986.9421074607155,-1327.7272727272725 -1216.3636363636363,-1291.296872659163 -1460.066767605868,-1095.909090909091 -1498.662019209428,-864.0909090909091 -1339.5211549238725,-632.2727272727271" fill="none" stroke="#E6795F" stroke-width="1.5" />
<rect x="-572.6181818181817" y="-1251.4738145134663" width="21.599999999999998" height="12.6" fill="#FFFFFF" />
<text x="-561.8181818181818" y="-1245.1738145134664" font-family="sans-serif" font-size="9" text-anchor="middle">0.63</text>
<polyline points="2763.5844768177376,-632.2727272727271 3038.1818181818176,-540.8795339410955" fill="none" stroke="#E6795F" stroke-width="1.5" />
<rect x="3027.3818181818174" y="-547.1795339410954" width="21.599999999999998" height="12.6" fill="#FFFFFF" />
<text x="3038.1818181818176" y="-540.8795339410955" font-family="sans-serif" font-size="9" text-anchor="middle">0.63</text>
<polyline points="2617.7163141424003,-864.0909090909091 2710.9090909090905,-678.4381220557472 2763.5844768177376,-632.2727272727271" fill="none" stroke="#E6795F" stroke-width="1.5" />
<rect x="2700.1090909090904" y="-684.7381220557471" width="21.599999999999998" height="12.6" fill="#FFFFFF" />
<text x="2710.9090909090905" y="-678.4381220557472" font-family="sans-serif" font-size="9" text-anchor="middle">0.63</text>
<polyline points="2617.7163141424003,-864.0909090909091 2647.262670343572,-1095.909090909091 2710.9090909090905,-1175.9964123639193 3028.6845744739876,-1327.7272727272725 3038.1818181818176,-1329.9692353335295" fill="none" stroke="#E6795F" stroke-width="1.5" />
<rect x="2700.1090909090904" y="-1182.2964123639192" width="21.599999999999998" height="12.6" fill="#FFFFFF" />
<text x="2710.9090909090905" y="-1175.9964123639193" font-family="sans-serif" font-size="9" text-anchor="middle">0.63</text>
<polyline points="-1256.149593700062,2149.5454545454545 -1216.3636363636363,2181.443623629483 -889.090909090909,2246.493811607361 -624.829377261075,2149.5454545454545 -561.8181818181818,2004.7845532677388 -546.3707646456631,1917.727272727273 -561.8181818181818,1893.0478871952405 -889.090909090909,1706.824052984064 -1216.3636363636363,1804.2407660050826 -1305.7720600474963,1917.727272727273 -1256.149593700062,2149.5454545454545" fill="none" stroke="#D14442" stroke-width="1.5" />
<rect x="-557.1707646456631" y="1911.427272727273" width="21.599999999999998" height="12.6" fill="#FFFFFF" />
<text x="-546.3707646456631" y="1917.727272727273" font-family="sans-serif" font-size="9" text-anchor="middle">0.82</text>
<polyline points="2880.987125743519,2149.5454545454545 3038.1818181818176,2232.7965276891537" fill="none" stroke="#D14442" stroke-width="1.5" />
<rect x="3027.3818181818174" y="2226.4965276891535" width="21.599999999999998" height="12.6" fill="#FFFFFF" />
<text x="3038.1818181818176" y="2232.7965276891537" font-family="sans-serif" font-size="9" text-anchor="middle">0.82</text>
<polyline points="2880.987125743519,2149.5454545454545 2811.1097093061962,1917.727272727273 3038.1818181818176,1727.3365406556563" fill="none" stroke="#D14442" stroke-width="1.5" />
<rect x="2800.309709306196" y="1911.427272727273" width="21.599999999999998" height="12.6" fill="#FFFFFF" />
<text x="2811.1097093061962" y="1917.727272727273" font-family="sans-serif" font-size="9" text-anchor="middle">0.82</text>
<polyline points="-3180,776.8441298874942 -2852.7272727272725,787.9781404408542 -2782.2212635387073,758.6363636363637 -2613.422886241566,526.8181818181819 -2782.2212635387073,295.00000000000006 -2852.7272727272725,265.65822319550955 -3180,276.79223374886953" fill="none" stroke="#D14442" stroke-width="1.5" />
<rect x="-2624.2228862415664" y="520.5181818181819" width="21.599999999999998" height="12.6" fill="#FFFFFF" />
<text x="-2613.422886241566" y="526.8181818181819" font-family="sans-serif" font-size="9" text-anchor="middle">0.82</text>
<polyline points="932.9227118058637,758.6363636363637 1074.5454545454545,799.463445598429 1325.0801623951304,758.6363636363637 1401.8181818181818,720.840551744808 1499.9132953990588,526.8181818181819 1401.8181818181818,332.79581189155584 1325.0801623951304,295.00000000000006 1074.5454545454545,254.17291803793478 932.9227118058637,295.00000000000006 747.2727272727273,469.7952185571194 724.3676766482266,526.8181818181819 747.2727272727273,583.8411450792444 932.9227118058637,758.6363636363637" fill="none" stroke="#D14442" stroke-width="1.5" />
<rect x="1314.2801623951304" y="288.70000000000005" width="21.599999999999998" height="12.6" fill="#FFFFFF" />
<text x="1325.0801623951304" y="295.00000000000006" font-family="sans-serif" font-size="9" text-anchor="middle">0.82</text>
<polyline points="-1305.7720600474963,-864.0909090909091 -1216.3636363636363,-750.6044023687188 -889.090909090909,-653.1876893477005 -561.8181818181818,-839.4115235588766 -546.3707646456631,-864.0909090909091 -561.8181818181818,-951.1481896313752 -624.829377261075,-1095.909090909091 -889.090909090909,-1192.8574479709973 -1216.3636363636363,-1127.8072599931197 -1256.149593700062,-1095.909090909091 -1305.7720600474963,-864.0909090909091" fill="none" stroke="#D14442" stroke-width="1.5" />
<rect x="-572.6181818181817" y="-957.4481896313752" width="21.599999999999998" height="12.6" fill="#FFFFFF" />
<text x="-561.8181818181818" y="-951.1481896313752" font-family="sans-serif" font-size="9" text-anchor="middle">0.82</text>
<polyline points="2811.1097093061962,-864.0909090909091 3038.1818181818176,-673.7001770192925" fill="none" stroke="#D14442" stroke-width="1.5" />
<rect x="3027.3818181818174" y="-680.0001770192924" width="21.599999999999998" height="12.6" fill="#FFFFFF" />
<text x="3038.1818181818176" y="-673.7001770192925" font-family="sans-serif" font-size="9" text-anchor="middle">0.82</text>
<polyline points="2811.1097093061962,-864.0909090909091 2880.987125743519,-1095.909090909091 3038.1818181818176,-1179.1601640527897" fill="none" stroke="#D14442" stroke-width="1.5" />
<rect x="2870.1871257435187" y="-1102.209090909091" width="21.599999999999998" height="12.6" fill="#FFFFFF" />
<text x="2880.987125743519" y="-1095.909090909091" font-family="sans-serif" font-size="9" text-anchor="middle">0.82</text>
<g class="spine">
<line x1="60" y1="550" x2="780" y2="550" stroke="#000000" stroke-width="0.8" />
</g>
<g class="spine">
<line x1="60" y1="40" x2="780" y2="40" stroke="#000000" stroke-width="0.8" />
</g>
<g class="spine">
<line x1="60" y1="40" x2="60" y2="550" stroke="#000000" stroke-width="0.8" />
</g>
<g class="spine">
<line x1="780" y1="40" x2="780" y2="550" stroke="#000000" stroke-width="0.8" />
</g>
<text x="420" y="32" font-family="sans-serif" font-size="15" text-anchor="middle" font-weight="bold" fill="#000000">Contour with Labels</text>
</svg>
