<svg xmlns="http://www.w3.org/2000/svg" viewBox="0 0 800 600" width="800" height="600" role="img" aria-labelledby="chart-title">
<title id="chart-title"></title>
<rect x="0" y="0" width="800" height="600" fill="#FFFFFF" />
<rect x="100" y="72" width="620" height="462" fill="#FFFFFF" />
<line x1="128.1818181818182" y1="533.6" x2="128.1818181818182" y2="538.8611111111111" stroke="#262626" stroke-width="1.1111111111111112" />
<text x="128.1818181818182" y="557.6111111111111" font-family="DejaVu Sans, sans-serif" font-size="13.88888888888889" text-anchor="middle" fill="#262626">0</text>
<line x1="184.54545454545456" y1="533.6" x2="184.54545454545456" y2="538.8611111111111" stroke="#262626" stroke-width="1.1111111111111112" />
<text x="184.54545454545456" y="557.6111111111111" font-family="DejaVu Sans, sans-serif" font-size="13.88888888888889" text-anchor="middle" fill="#262626">0.1</text>
<line x1="240.90909090909093" y1="533.6" x2="240.90909090909093" y2="538.8611111111111" stroke="#262626" stroke-width="1.1111111111111112" />
<text x="240.90909090909093" y="557.6111111111111" font-family="DejaVu Sans, sans-serif" font-size="13.88888888888889" text-anchor="middle" fill="#262626">0.2</text>
<line x1="297.27272727272725" y1="533.6" x2="297.27272727272725" y2="538.8611111111111" stroke="#262626" stroke-width="1.1111111111111112" />
<text x="297.27272727272725" y="557.6111111111111" font-family="DejaVu Sans, sans-serif" font-size="13.88888888888889" text-anchor="middle" fill="#262626">0.3</text>
<line x1="353.6363636363636" y1="533.6" x2="353.6363636363636" y2="538.8611111111111" stroke="#262626" stroke-width="1.1111111111111112" />
<text x="353.6363636363636" y="557.6111111111111" font-family="DejaVu Sans, sans-serif" font-size="13.88888888888889" text-anchor="middle" fill="#262626">0.4</text>
<line x1="410" y1="533.6" x2="410" y2="538.8611111111111" stroke="#262626" stroke-width="1.1111111111111112" />
<text x="410" y="557.6111111111111" font-family="DejaVu Sans, sans-serif" font-size="13.88888888888889" text-anchor="middle" fill="#262626">0.5</text>
<line x1="466.3636363636364" y1="533.6" x2="466.3636363636364" y2="538.8611111111111" stroke="#262626" stroke-width="1.1111111111111112" />
<text x="466.3636363636364" y="557.6111111111111" font-family="DejaVu Sans, sans-serif" font-size="13.88888888888889" text-anchor="middle" fill="#262626">0.6</text>
<line x1="522.7272727272727" y1="533.6" x2="522.7272727272727" y2="538.8611111111111" stroke="#262626" stroke-width="1.1111111111111112" />
<text x="522.7272727272727" y="557.6111111111111" font-family="DejaVu Sans, sans-serif" font-size="13.88888888888889" text-anchor="middle" fill="#262626">0.7</text>
<line x1="579.0909090909091" y1="533.6" x2="579.0909090909091" y2="538.8611111111111" stroke="#262626" stroke-width="1.1111111111111112" />
<text x="579.0909090909091" y="557.6111111111111" font-family="DejaVu Sans, sans-serif" font-size="13.88888888888889" text-anchor="middle" fill="#262626">0.8</text>
<line x1="635.4545454545455" y1="533.6" x2="635.4545454545455" y2="538.8611111111111" stroke="#262626" stroke-width="1.1111111111111112" />
<text x="635.4545454545455" y="557.6111111111111" font-family="DejaVu Sans, sans-serif" font-size="13.88888888888889" text-anchor="middle" fill="#262626">0.9</text>
<line x1="691.8181818181818" y1="533.6" x2="691.8181818181818" y2="538.8611111111111" stroke="#262626" stroke-width="1.1111111111111112" />
<text x="691.8181818181818" y="557.6111111111111" font-family="DejaVu Sans, sans-serif" font-size="13.88888888888889" text-anchor="middle" fill="#262626">1</text>
<line x1="105.63636363636364" y1="533.6" x2="105.63636363636364" y2="538.8611111111111" stroke="#262626" stroke-width="1.1111111111111112" />
<line x1="116.9090909090909" y1="533.6" x2="116.9090909090909" y2="538.8611111111111" stroke="#262626" stroke-width="1.1111111111111112" />
<line x1="139.45454545454547" y1="533.6" x2="139.45454545454547" y2="538.8611111111111" stroke="#262626" stroke-width="1.1111111111111112" />
<line x1="150.72727272727275" y1="533.6" x2="150.72727272727275" y2="538.8611111111111" stroke="#262626" stroke-width="1.1111111111111112" />
<line x1="162" y1="533.6" x2="162" y2="538.8611111111111" stroke="#262626" stroke-width="1.1111111111111112" />
<line x1="173.27272727272728" y1="533.6" x2="173.27272727272728" y2="538.8611111111111" stroke="#262626" stroke-width="1.1111111111111112" />
<line x1="195.8181818181818" y1="533.6" x2="195.8181818181818" y2="538.8611111111111" stroke="#262626" stroke-width="1.1111111111111112" />
<line x1="207.09090909090912" y1="533.6" x2="207.09090909090912" y2="538.8611111111111" stroke="#262626" stroke-width="1.1111111111111112" />
<line x1="218.36363636363637" y1="533.6" x2="218.36363636363637" y2="538.8611111111111" stroke="#262626" stroke-width="1.1111111111111112" />
<line x1="229.63636363636363" y1="533.6" x2="229.63636363636363" y2="538.8611111111111" stroke="#262626" stroke-width="1.1111111111111112" />
<line x1="252.1818181818182" y1="533.6" x2="252.1818181818182" y2="538.8611111111111" stroke="#262626" stroke-width="1.1111111111111112" />
<line x1="263.45454545454544" y1="533.6" x2="263.45454545454544" y2="538.8611111111111" stroke="#262626" stroke-width="1.1111111111111112" />
<line x1="274.72727272727275" y1="533.6" x2="274.72727272727275" y2="538.8611111111111" stroke="#262626" stroke-width="1.1111111111111112" />
<line x1="286" y1="533.6" x2="286" y2="538.8611111111111" stroke="#262626" stroke-width="1.1111111111111112" />
<line x1="308.54545454545456" y1="533.6" x2="308.54545454545456" y2="538.8611111111111" stroke="#262626" stroke-width="1.1111111111111112" />
<line x1="319.81818181818187" y1="533.6" x2="319.81818181818187" y2="538.8611111111111" stroke="#262626" stroke-width="1.1111111111111112" />
<line x1="331.0909090909091" y1="533.6" x2="331.0909090909091" y2="538.8611111111111" stroke="#262626" stroke-width="1.1111111111111112" />
<line x1="342.3636363636364" y1="533.6" x2="342.3636363636364" y2="538.8611111111111" stroke="#262626" stroke-width="1.1111111111111112" />
<line x1="364.9090909090909" y1="533.6" x2="364.9090909090909" y2="538.8611111111111" stroke="#262626" stroke-width="1.1111111111111112" />
<line x1="376.1818181818182" y1="533.6" x2="376.1818181818182" y2="538.8611111111111" stroke="#262626" stroke-width="1.1111111111111112" />
<line x1="387.45454545454544" y1="533.6" x2="387.45454545454544" y2="538.8611111111111" stroke="#262626" stroke-width="1.1111111111111112" />
<line x1="398.7272727272727" y1="533.6" x2="398.7272727272727" y2="538.8611111111111" stroke="#262626" stroke-width="1.1111111111111112" />
<line x1="421.2727272727273" y1="533.6" x2="421.2727272727273" y2="538.8611111111111" stroke="#262626" stroke-width="1.1111111111111112" />
<line x1="432.54545454545456" y1="533.6" x2="432.54545454545456" y2="538.8611111111111" stroke="#262626" stroke-width="1.1111111111111112" />
<line x1="443.81818181818187" y1="533.6" x2="443.81818181818187" y2="538.8611111111111" stroke="#262626" stroke-width="1.1111111111111112" />
<line x1="455.09090909090907" y1="533.6" x2="455.09090909090907" y2="538.8611111111111" stroke="#262626" stroke-width="1.1111111111111112" />
<line x1="477.6363636363636" y1="533.6" x2="477.6363636363636" y2="538.8611111111111" stroke="#262626" stroke-width="1.1111111111111112" />
<line x1="488.90909090909093" y1="533.6" x2="488.90909090909093" y2="538.8611111111111" stroke="#262626" stroke-width="1.1111111111111112" />
<line x1="500.1818181818182" y1="533.6" x2="500.1818181818182" y2="538.8611111111111" stroke="#262626" stroke-width="1.1111111111111112" />
<line x1="511.4545454545455" y1="533.6" x2="511.4545454545455" y2="538.8611111111111" stroke="#262626" stroke-width="1.1111111111111112" />
<line x1="534" y1="533.6" x2="534" y2="538.8611111111111" stroke="#262626" stroke-width="1.1111111111111112" />
<line x1="545.2727272727273" y1="533.6" x2="545.2727272727273" y2="538.8611111111111" stroke="#262626" stroke-width="1.1111111111111112" />
<line x1="556.5454545454545" y1="533.6" x2="556.5454545454545" y2="538.8611111111111" stroke="#262626" stroke-width="1.1111111111111112" />
<line x1="567.8181818181818" y1="533.6" x2="567.8181818181818" y2="538.8611111111111" stroke="#262626" stroke-width="1.1111111111111112" />
<line x1="590.3636363636363" y1="533.6" x2="590.3636363636363" y2="538.8611111111111" stroke="#262626" stroke-width="1.1111111111111112" />
<line x1="601.6363636363636" y1="533.6" x2="601.6363636363636" y2="538.8611111111111" stroke="#262626" stroke-width="1.1111111111111112" />
<line x1="612.9090909090909" y1="533.6" x2="612.9090909090909" y2="538.8611111111111" stroke="#262626" stroke-width="1.1111111111111112" />
<line x1="624.1818181818182" y1="533.6" x2="624.1818181818182" y2="538.8611111111111" stroke="#262626" stroke-width="1.1111111111111112" />
<line x1="646.7272727272727" y1="533.6" x2="646.7272727272727" y2="538.8611111111111" stroke="#262626" stroke-width="1.1111111111111112" />
<line x1="658" y1="533.6" x2="658" y2="538.8611111111111" stroke="#262626" stroke-width="1.1111111111111112" />
<line x1="669.2727272727273" y1="533.6" x2="669.2727272727273" y2="538.8611111111111" stroke="#262626" stroke-width="1.1111111111111112" />
<line x1="680.5454545454545" y1="533.6" x2="680.5454545454545" y2="538.8611111111111" stroke="#262626" stroke-width="1.1111111111111112" />
<line x1="703.090909090909" y1="533.6" x2="703.090909090909" y2="538.8611111111111" stroke="#262626" stroke-width="1.1111111111111112" />
<line x1="714.3636363636365" y1="533.6" x2="714.3636363636365" y2="538.8611111111111" stroke="#262626" stroke-width="1.1111111111111112" />
<line x1="95.13888888888889" y1="513" x2="100.4" y2="513" stroke="#262626" stroke-width="1.1111111111111112" />
<text x="90.27777777777777" y="517" font-family="DejaVu Sans, sans-serif" font-size="13.88888888888889" text-anchor="end" fill="#262626">0</text>
<line x1="95.13888888888889" y1="471" x2="100.4" y2="471" stroke="#262626" stroke-width="1.1111111111111112" />
<text x="90.27777777777777" y="475" font-family="DejaVu Sans, sans-serif" font-size="13.88888888888889" text-anchor="end" fill="#262626">0.1</text>
<line x1="95.13888888888889" y1="429" x2="100.4" y2="429" stroke="#262626" stroke-width="1.1111111111111112" />
<text x="90.27777777777777" y="433" font-family="DejaVu Sans, sans-serif" font-size="13.88888888888889" text-anchor="end" fill="#262626">0.2</text>
<line x1="95.13888888888889" y1="387" x2="100.4" y2="387" stroke="#262626" stroke-width="1.1111111111111112" />
<text x="90.27777777777777" y="391" font-family="DejaVu Sans, sans-serif" font-size="13.88888888888889" text-anchor="end" fill="#262626">0.3</text>
<line x1="95.13888888888889" y1="345" x2="100.4" y2="345" stroke="#262626" stroke-width="1.1111111111111112" />
<text x="90.27777777777777" y="349" font-family="DejaVu Sans, sans-serif" font-size="13.88888888888889" text-anchor="end" fill="#262626">0.4</text>
<line x1="95.13888888888889" y1="303" x2="100.4" y2="303" stroke="#262626" stroke-width="1.1111111111111112" />
<text x="90.27777777777777" y="307" font-family="DejaVu Sans, sans-serif" font-size="13.88888888888889" text-anchor="end" fill="#262626">0.5</text>
<line x1="95.13888888888889" y1="261.00000000000006" x2="100.4" y2="261.00000000000006" stroke="#262626" stroke-width="1.1111111111111112" />
<text x="90.27777777777777" y="265.00000000000006" font-family="DejaVu Sans, sans-serif" font-size="13.88888888888889" text-anchor="end" fill="#262626">0.6</text>
<line x1="95.13888888888889" y1="219.00000000000006" x2="100.4" y2="219.00000000000006" stroke="#262626" stroke-width="1.1111111111111112" />
<text x="90.27777777777777" y="223.00000000000006" font-family="DejaVu Sans, sans-serif" font-size="13.88888888888889" text-anchor="end" fill="#262626">0.7</text>
<line x1="95.13888888888889" y1="177" x2="100.4" y2="177" stroke="#262626" stroke-width="1.1111111111111112" />
<text x="90.27777777777777" y="181" font-family="DejaVu Sans, sans-serif" font-size="13.88888888888889" text-anchor="end" fill="#262626">0.8</text>
<line x1="95.13888888888889" y1="135.00000000000006" x2="100.4" y2="135.00000000000006" stroke="#262626" stroke-width="1.1111111111111112" />
<text x="90.27777777777777" y="139.00000000000006" font-family="DejaVu Sans, sans-serif" font-size="13.88888888888889" text-anchor="end" fill="#262626">0.9</text>
<line x1="95.13888888888889" y1="93.00000000000006" x2="100.4" y2="93.00000000000006" stroke="#262626" stroke-width="1.1111111111111112" />
<text x="90.27777777777777" y="97.00000000000006" font-family="DejaVu Sans, sans-serif" font-size="13.88888888888889" text-anchor="end" fill="#262626">1</text>
<line x1="95.13888888888889" y1="529.8" x2="100.4" y2="529.8" stroke="#262626" stroke-width="1.1111111111111112" />
<line x1="95.13888888888889" y1="521.4" x2="100.4" y2="521.4" stroke="#262626" stroke-width="1.1111111111111112" />
<line x1="95.13888888888889" y1="504.6" x2="100.4" y2="504.6" stroke="#262626" stroke-width="1.1111111111111112" />
<line x1="95.13888888888889" y1="496.2" x2="100.4" y2="496.2" stroke="#262626" stroke-width="1.1111111111111112" />
<line x1="95.13888888888889" y1="487.8" x2="100.4" y2="487.8" stroke="#262626" stroke-width="1.1111111111111112" />
<line x1="95.13888888888889" y1="479.4" x2="100.4" y2="479.4" stroke="#262626" stroke-width="1.1111111111111112" />
<line x1="95.13888888888889" y1="462.6" x2="100.4" y2="462.6" stroke="#262626" stroke-width="1.1111111111111112" />
<line x1="95.13888888888889" y1="454.2" x2="100.4" y2="454.2" stroke="#262626" stroke-width="1.1111111111111112" />
<line x1="95.13888888888889" y1="445.8" x2="100.4" y2="445.8" stroke="#262626" stroke-width="1.1111111111111112" />
<line x1="95.13888888888889" y1="437.40000000000003" x2="100.4" y2="437.40000000000003" stroke="#262626" stroke-width="1.1111111111111112" />
<line x1="95.13888888888889" y1="420.6" x2="100.4" y2="420.6" stroke="#262626" stroke-width="1.1111111111111112" />
<line x1="95.13888888888889" y1="412.20000000000005" x2="100.4" y2="412.20000000000005" stroke="#262626" stroke-width="1.1111111111111112" />
<line x1="95.13888888888889" y1="403.8" x2="100.4" y2="403.8" stroke="#262626" stroke-width="1.1111111111111112" />
<line x1="95.13888888888889" y1="395.4" x2="100.4" y2="395.4" stroke="#262626" stroke-width="1.1111111111111112" />
<line x1="95.13888888888889" y1="378.6" x2="100.4" y2="378.6" stroke="#262626" stroke-width="1.1111111111111112" />
<line x1="95.13888888888889" y1="370.20000000000005" x2="100.4" y2="370.20000000000005" stroke="#262626" stroke-width="1.1111111111111112" />
<line x1="95.13888888888889" y1="361.80000000000007" x2="100.4" y2="361.80000000000007" stroke="#262626" stroke-width="1.1111111111111112" />
<line x1="95.13888888888889" y1="353.4" x2="100.4" y2="353.4" stroke="#262626" stroke-width="1.1111111111111112" />
<line x1="95.13888888888889" y1="336.6" x2="100.4" y2="336.6" stroke="#262626" stroke-width="1.1111111111111112" />
<line x1="95.13888888888889" y1="328.20000000000005" x2="100.4" y2="328.20000000000005" stroke="#262626" stroke-width="1.1111111111111112" />
<line x1="95.13888888888889" y1="319.8" x2="100.4" y2="319.8" stroke="#262626" stroke-width="1.1111111111111112" />
<line x1="95.13888888888889" y1="311.40000000000003" x2="100.4" y2="311.40000000000003" stroke="#262626" stroke-width="1.1111111111111112" />
<line x1="95.13888888888889" y1="294.6" x2="100.4" y2="294.6" stroke="#262626" stroke-width="1.1111111111111112" />
<line x1="95.13888888888889" y1="286.20000000000005" x2="100.4" y2="286.20000000000005" stroke="#262626" stroke-width="1.1111111111111112" />
<line x1="95.13888888888889" y1="277.8" x2="100.4" y2="277.8" stroke="#262626" stroke-width="1.1111111111111112" />
<line x1="95.13888888888889" y1="269.4000000000001" x2="100.4" y2="269.4000000000001" stroke="#262626" stroke-width="1.1111111111111112" />
<line x1="95.13888888888889" y1="252.60000000000002" x2="100.4" y2="252.60000000000002" stroke="#262626" stroke-width="1.1111111111111112" />
<line x1="95.13888888888889" y1="244.20000000000005" x2="100.4" y2="244.20000000000005" stroke="#262626" stroke-width="1.1111111111111112" />
<line x1="95.13888888888889" y1="235.8" x2="100.4" y2="235.8" stroke="#262626" stroke-width="1.1111111111111112" />
<line x1="95.13888888888889" y1="227.40000000000003" x2="100.4" y2="227.40000000000003" stroke="#262626" stroke-width="1.1111111111111112" />
<line x1="95.13888888888889" y1="210.60000000000008" x2="100.4" y2="210.60000000000008" stroke="#262626" stroke-width="1.1111111111111112" />
<line x1="95.13888888888889" y1="202.20000000000005" x2="100.4" y2="202.20000000000005" stroke="#262626" stroke-width="1.1111111111111112" />
<line x1="95.13888888888889" y1="193.8" x2="100.4" y2="193.8" stroke="#262626" stroke-width="1.1111111111111112" />
<line x1="95.13888888888889" y1="185.40000000000003" x2="100.4" y2="185.40000000000003" stroke="#262626" stroke-width="1.1111111111111112" />
<line x1="95.13888888888889" y1="168.60000000000008" x2="100.4" y2="168.60000000000008" stroke="#262626" stroke-width="1.1111111111111112" />
<line x1="95.13888888888889" y1="160.20000000000005" x2="100.4" y2="160.20000000000005" stroke="#262626" stroke-width="1.1111111111111112" />
<line x1="95.13888888888889" y1="151.80000000000007" x2="100.4" y2="151.80000000000007" stroke="#262626" stroke-width="1.1111111111111112" />
<line x1="95.13888888888889" y1="143.40000000000003" x2="100.4" y2="143.40000000000003" stroke="#262626" stroke-width="1.1111111111111112" />
<line x1="95.13888888888889" y1="126.60000000000002" x2="100.4" y2="126.60000000000002" stroke="#262626" stroke-width="1.1111111111111112" />
<line x1="95.13888888888889" y1="118.2000000000001" x2="100.4" y2="118.2000000000001" stroke="#262626" stroke-width="1.1111111111111112" />
<line x1="95.13888888888889" y1="109.80000000000007" x2="100.4" y2="109.80000000000007" stroke="#262626" stroke-width="1.1111111111111112" />
<line x1="95.13888888888889" y1="101.40000000000009" x2="100.4" y2="101.40000000000009" stroke="#262626" stroke-width="1.1111111111111112" />
<line x1="95.13888888888889" y1="84.60000000000002" x2="100.4" y2="84.60000000000002" stroke="#262626" stroke-width="1.1111111111111112" />
<line x1="95.13888888888889" y1="76.20000000000005" x2="100.4" y2="76.20000000000005" stroke="#262626" stroke-width="1.1111111111111112" />
<polyline points="-2690,2046.3870649337766 -2408.1818181818185,2058.415678024292 -2272.8197219155054,1982.9999999999998 -2212.647502205589,1772.9999999999998 -2408.1818181818185,1600.5283956527708 -2690,1618.5420255661008" fill="none" stroke="#5772DD" stroke-width="1.5" />
<rect x="-2226.147502205589" y="1766.6999999999998" width="27" height="12.6" fill="#FFFFFF" />
<text x="-2212.647502205589" y="1772.9999999999998" font-family="sans-serif" font-size="9" text-anchor="middle">-0.82</text>
<polyline points="746.0778223384511,1982.9999999999998 973.6363636363637,2070.823805809021 1255.4545454545455,2011.8959884643552 1289.7146753831344,1982.9999999999998 1332.4451325156472,1772.9999999999998 1255.4545454545455,1670.1945762634275 973.6363636363637,1581.9464950561521 691.8181818181818,1750.6433801650999 678.5162392529573,1772.9999999999998 691.8181818181818,1851.8636541366575 746.0778223384511,1982.9999999999998" fill="none" stroke="#5772DD" stroke-width="1.5" />
<rect x="1241.9545454545455" y="1663.8945762634276" width="27" height="12.6" fill="#FFFFFF" />
<text x="1255.4545454545455" y="1670.1945762634275" font-family="sans-serif" font-size="9" text-anchor="middle">-0.82</text>
<polyline points="-933.0109479210594,723 -717.2727272727273,759.984533071518 -595.3198099136353,723 -435.45454545454544,564.6560961306095 -415.73075186122543,513 -435.45454545454544,461.3439038693905 -595.3198099136353,303 -717.2727272727273,266.01546692848206 -933.0109479210594,303 -999.090909090909,337.23855900764465 -1083.5617013411088,513 -999.090909090909,688.7614409923553 -933.0109479210594,723" fill="none" stroke="#5772DD" stroke-width="1.5" />
<rect x="-608.8198099136353" y="296.7" width="27" height="12.6" fill="#FFFFFF" />
<text x="-595.3198099136353" y="303" font-family="sans-serif" font-size="9" text-anchor="middle">-0.82</text>
<polyline points="2603.8319466330786,723 2664.5454545454545,749.5801978111267" fill="none" stroke="#5772DD" stroke-width="1.5" />
<rect x="2651.0454545454545" y="743.2801978111268" width="27" height="12.6" fill="#FFFFFF" />
<text x="2664.5454545454545" y="749.5801978111267" font-family="sans-serif" font-size="9" text-anchor="middle">-0.82</text>
<polyline points="2603.8319466330786,723 2458.4777884049845,513 2603.8319466330786,303 2664.5454545454545,276.4198021888733" fill="none" stroke="#5772DD" stroke-width="1.5" />
<rect x="2590.3319466330786" y="296.7" width="27" height="12.6" fill="#FFFFFF" />
<text x="2603.8319466330786" y="303" font-family="sans-serif" font-size="9" text-anchor="middle">-0.82</text>
<polyline points="-2690,-592.5420255661008 -2408.1818181818185,-574.5283956527708 -2212.647502205589,-746.9999999999998 -2272.8197219155054,-956.9999999999998 -2408.1818181818185,-1032.4156780242918 -2690,-1020.3870649337766" fill="none" stroke="#5772DD" stroke-width="1.5" />
<rect x="-2286.3197219155054" y="-963.2999999999997" width="27" height="12.6" fill="#FFFFFF" />
<text x="-2272.8197219155054" y="-956.9999999999998" font-family="sans-serif" font-size="9" text-anchor="middle">-0.82</text>
<polyline points="678.5162392529573,-746.9999999999998 691.8181818181818,-724.6433801650999 973.6363636363637,-555.9464950561521 1255.4545454545455,-644.1945762634275 1332.4451325156472,-746.9999999999998 1289.7146753831344,-956.9999999999998 1255.4545454545455,-985.8959884643552 973.6363636363637,-1044.8238058090208 746.0778223384511,-956.9999999999998 691.8181818181818,-825.8636541366575 678.5162392529573,-746.9999999999998" fill="none" stroke="#5772DD" stroke-width="1.5" />
<rect x="1276.2146753831344" y="-963.2999999999997" width="27" height="12.6" fill="#FFFFFF" />
<text x="1289.7146753831344" y="-956.9999999999998" font-family="sans-serif" font-size="9" text-anchor="middle">-0.82</text>
<polyline points="-2505.2014125477185,2193 -2408.1818181818185,2195.030954360962 -2400.0036361000757,2193 -2126.3636363636365,2055.5496912002563 -2071.5569964322176,1982.9999999999998 -2046.1143008145416,1772.9999999999998 -2126.3636363636365,1604.8204164505003 -2171.722996451638,1562.9999999999998 -2408.1818181818185,1480.2085189819336 -2690,1487.081039428711" fill="none" stroke="#7596F3" stroke-width="1.5" />
<rect x="-2059.614300814542" y="1766.6999999999998" width="27" height="12.6" fill="#FFFFFF" />
<text x="-2046.1143008145416" y="1772.9999999999998" font-family="sans-serif" font-size="9" text-anchor="middle">-0.63</text>
<polyline points="926.0052863034334,2193 973.6363636363637,2201.1943130493164 1057.8971177881415,2193 1255.4545454545455,2159.9983434677124 1465.3100195798008,1982.9999999999998 1498.5448195717552,1772.9999999999998 1361.5068531036377,1562.9999999999998 1255.4545454545455,1506.7873649597168 973.6363636363637,1473.1193046569824 691.8181818181818,1537.4797897338865 653.5659842057662,1562.9999999999998 535.9153875437651,1772.9999999999998 564.4483509930697,1982.9999999999998 691.8181818181818,2118.216279029846 926.0052863034334,2193" fill="none" stroke="#7596F3" stroke-width="1.5" />
<rect x="1241.9545454545455" y="1500.4873649597168" width="27" height="12.6" fill="#FFFFFF" />
<text x="1255.4545454545455" y="1506.7873649597168" font-family="sans-serif" font-size="9" text-anchor="middle">-0.63</text>
<polyline points="-2505.2014125477185,2193 -2690,2186.824725151062" fill="none" stroke="#7596F3" stroke-width="1.5" />
<rect x="-2703.5" y="2180.524725151062" width="27" height="12.6" fill="#FFFFFF" />
<text x="-2690" y="2186.824725151062" font-family="sans-serif" font-size="9" text-anchor="middle">-0.63</text>
<polyline points="-1167.7160254391756,723 -999.090909090909,834.7583405971527 -717.2727272727273,873.1895606517792 -435.45454545454544,799.7236268520355 -343.4820805896412,723 -274.5569968223572,513 -343.4820805896412,303 -435.45454545454544,226.27637314796453 -717.2727272727273,152.81043934822088 -999.090909090909,191.24165940284735 -1167.7160254391756,303 -1247.999090714888,513 -1167.7160254391756,723" fill="none" stroke="#7596F3" stroke-width="1.5" />
<rect x="-356.9820805896412" y="296.7" width="27" height="12.6" fill="#FFFFFF" />
<text x="-343.4820805896412" y="303" font-family="sans-serif" font-size="9" text-anchor="middle">-0.63</text>
<polyline points="2359.484265934337,723 2382.7272727272725,747.1770386695862 2664.5454545454545,865.0973110198975" fill="none" stroke="#7596F3" stroke-width="1.5" />
<rect x="2369.2272727272725" y="740.8770386695862" width="27" height="12.6" fill="#FFFFFF" />
<text x="2382.7272727272725" y="747.1770386695862" font-family="sans-serif" font-size="9" text-anchor="middle">-0.63</text>
<polyline points="2359.484265934337,723 2298.024135069413,513 2359.484265934337,303 2382.7272727272725,278.8229613304138 2664.5454545454545,160.9026889801026" fill="none" stroke="#7596F3" stroke-width="1.5" />
<rect x="2345.984265934337" y="296.7" width="27" height="12.6" fill="#FFFFFF" />
<text x="2359.484265934337" y="303" font-family="sans-serif" font-size="9" text-anchor="middle">-0.63</text>
<polyline points="-2690,-461.0810394287108 -2408.1818181818185,-454.2085189819335 -2171.722996451638,-536.9999999999998 -2126.3636363636365,-578.8204164505003 -2046.1143008145416,-746.9999999999998 -2071.5569964322176,-956.9999999999998 -2126.3636363636365,-1029.5496912002561 -2400.0036361000757,-1166.9999999999998 -2408.1818181818185,-1169.0309543609617 -2505.2014125477185,-1166.9999999999998 -2690,-1160.8247251510618" fill="none" stroke="#7596F3" stroke-width="1.5" />
<rect x="-2085.0569964322176" y="-963.2999999999997" width="27" height="12.6" fill="#FFFFFF" />
<text x="-2071.5569964322176" y="-956.9999999999998" font-family="sans-serif" font-size="9" text-anchor="middle">-0.63</text>
<polyline points="653.5659842057662,-536.9999999999998 691.8181818181818,-511.4797897338865 973.6363636363637,-447.1193046569823 1255.4545454545455,-480.7873649597167 1361.5068531036377,-536.9999999999998 1498.5448195717552,-746.9999999999998 1465.3100195798008,-956.9999999999998 1255.4545454545455,-1133.9983434677122 1057.8971177881415,-1166.9999999999998 973.6363636363637,-1175.1943130493162 926.0052863034334,-1166.9999999999998 691.8181818181818,-1092.216279029846 564.4483509930697,-956.9999999999998 535.9153875437651,-746.9999999999998 653.5659842057662,-536.9999999999998" fill="none" stroke="#7596F3" stroke-width="1.5" />
<rect x="1241.9545454545455" y="-1140.2983434677121" width="27" height="12.6" fill="#FFFFFF" />
<text x="1255.4545454545455" y="-1133.9983434677122" font-family="sans-serif" font-size="9" text-anchor="middle">-0.63</text>
<polyline points="-2690,2278.7430839538574 -2408.1818181818185,2283.0106716156006 -2126.3636363636365,2218.8606719970703 -2082.5367615439677,2193 -1937.1311352469704,1982.9999999999998 -1918.957800431685,1772.9999999999998 -1993.892486745661,1562.9999999999998 -2126.3636363636365,1452.7981452941895 -2408.1818181818185,1379.0086727142334 -2690,1383.9175300598145" fill="none" stroke="#95B6FD" stroke-width="1.5" />
<rect x="-1932.457800431685" y="1766.6999999999998" width="27" height="12.6" fill="#FFFFFF" />
<text x="-1918.957800431685" y="1772.9999999999998" font-family="sans-serif" font-size="9" text-anchor="middle">-0.45</text>
<polyline points="576.7617505246942,2193 691.8181818181818,2247.4466400146484 973.6363636363637,2287.4130420684814 1255.4545454545455,2266.506088256836 1450.9674947912042,2193 1537.2727272727273,2115.802906036377 1607.7034872228448,1982.9999999999998 1623.8370470567183,1772.9999999999998 1557.3130226135254,1562.9999999999998 1537.2727272727273,1539.2526941299436 1255.4545454545455,1397.99351978302 973.6363636363637,1373.944905281067 691.8181818181818,1419.9167518615723 477.3507051034407,1562.9999999999998 410,1723.7793474197385 397.399746613069,1772.9999999999998 410,1946.6268711090086 413.6952528086576,1982.9999999999998 576.7617505246942,2193" fill="none" stroke="#95B6FD" stroke-width="1.5" />
<rect x="1523.7727272727273" y="1532.9526941299437" width="27" height="12.6" fill="#FFFFFF" />
<text x="1537.2727272727273" y="1539.2526941299436" font-family="sans-serif" font-size="9" text-anchor="middle">-0.45</text>
<polyline points="-1062.6715781471946,933 -999.090909090909,951.634922504425 -717.2727272727273,971.3523631095886 -435.45454545454544,933.6600451469421 -433.6653581532565,933 -182.615439675071,723 -153.63636363636363,606.0981150269508 -138.34191474047572,513 -153.63636363636363,419.90188497304916 -182.615439675071,303 -433.6653581532565,93.00000000000006 -435.45454545454544,92.33995485305792 -717.2727272727273,54.647636890411434 -999.090909090909,74.36507749557501 -1062.6715781471946,93.00000000000006 -1280.9090909090908,228.300042629242 -1331.3248192180286,303 -1370.297704176469,513 -1331.3248192180286,723 -1280.9090909090908,797.699957370758 -1062.6715781471946,933" fill="none" stroke="#95B6FD" stroke-width="1.5" />
<rect x="-447.1653581532565" y="86.70000000000006" width="27" height="12.6" fill="#FFFFFF" />
<text x="-433.6653581532565" y="93.00000000000006" font-family="sans-serif" font-size="9" text-anchor="middle">-0.45</text>
<polyline points="2487.894678982821,933 2664.5454545454545,967.2005825042725" fill="none" stroke="#95B6FD" stroke-width="1.5" />
<rect x="2651.0454545454545" y="960.9005825042725" width="27" height="12.6" fill="#FFFFFF" />
<text x="2664.5454545454545" y="967.2005825042725" font-family="sans-serif" font-size="9" text-anchor="middle">-0.45</text>
<polyline points="2216.0403390364213,723 2382.7272727272725,896.3856439590454 2487.894678982821,933" fill="none" stroke="#95B6FD" stroke-width="1.5" />
<rect x="2369.2272727272725" y="890.0856439590455" width="27" height="12.6" fill="#FFFFFF" />
<text x="2382.7272727272725" y="896.3856439590454" font-family="sans-serif" font-size="9" text-anchor="middle">-0.45</text>
<polyline points="2216.0403390364213,723 2172.1402263641357,513 2216.0403390364213,303 2382.7272727272725,129.61435604095465 2487.894678982821,93.00000000000006 2664.5454545454545,58.799417495727596" fill="none" stroke="#95B6FD" stroke-width="1.5" />
<rect x="2369.2272727272725" y="123.31435604095465" width="27" height="12.6" fill="#FFFFFF" />
<text x="2382.7272727272725" y="129.61435604095465" font-family="sans-serif" font-size="9" text-anchor="middle">-0.45</text>
<polyline points="-2690,-357.91753005981434 -2408.1818181818185,-353.0086727142333 -2126.3636363636365,-426.79814529418934 -1993.892486745661,-536.9999999999998 -1918.957800431685,-746.9999999999998 -1937.1311352469704,-956.9999999999998 -2082.5367615439677,-1166.9999999999998 -2126.3636363636365,-1192.86067199707 -2408.1818181818185,-1257.0106716156004 -2690,-1252.7430839538572" fill="none" stroke="#95B6FD" stroke-width="1.5" />
<rect x="-1950.6311352469704" y="-963.2999999999997" width="27" height="12.6" fill="#FFFFFF" />
<text x="-1937.1311352469704" y="-956.9999999999998" font-family="sans-serif" font-size="9" text-anchor="middle">-0.45</text>
<polyline points="477.3507051034407,-536.9999999999998 691.8181818181818,-393.91675186157215 973.6363636363637,-347.9449052810668 1255.4545454545455,-371.9935197830199 1537.2727272727273,-513.2526941299436 1557.3130226135254,-536.9999999999998 1623.8370470567183,-746.9999999999998 1607.7034872228448,-956.9999999999998 1537.2727272727273,-1089.8029060363767 1450.9674947912042,-1166.9999999999998 1255.4545454545455,-1240.5060882568357 973.6363636363637,-1261.4130420684812 691.8181818181818,-1221.4466400146482 576.7617505246942,-1166.9999999999998 413.6952528086576,-956.9999999999998 410,-920.6268711090086 397.399746613069,-746.9999999999998 410,-697.7793474197385 477.3507051034407,-536.9999999999998" fill="none" stroke="#95B6FD" stroke-width="1.5" />
<rect x="1437.4674947912042" y="-1173.2999999999997" width="27" height="12.6" fill="#FFFFFF" />
<text x="1450.9674947912042" y="-1166.9999999999998" font-family="sans-serif" font-size="9" text-anchor="middle">-0.45</text>
<polyline points="-840.1402443105524,2612.9999999999995 -717.2727272727273,2608.355901718139 -647.8179121017456,2612.9999999999995" fill="none" stroke="#B4CAF6" stroke-width="1.5" />
<rect x="-730.7727272727273" y="2602.055901718139" width="27" height="12.6" fill="#FFFFFF" />
<text x="-717.2727272727273" y="2608.355901718139" font-family="sans-serif" font-size="9" text-anchor="middle">-0.27</text>
<polyline points="2640.941096219149,2612.9999999999995 2664.5454545454545,2610.721509933471" fill="none" stroke="#B4CAF6" stroke-width="1.5" />
<rect x="2651.0454545454545" y="2604.421509933471" width="27" height="12.6" fill="#FFFFFF" />
<text x="2664.5454545454545" y="2610.721509933471" font-family="sans-serif" font-size="9" text-anchor="middle">-0.27</text>
<polyline points="-2690,2368.429916381836 -2408.1818181818185,2370.9905891418457 -2126.3636363636365,2332.5005893707275 -1889.948757345026,2193 -1844.5454545454545,2102.4920539855957 -1810.0105146928265,1982.9999999999998 -1801.010187322443,1772.9999999999998 -1838.121083866466,1562.9999999999998 -1844.5454545454545,1549.0306549072263 -2054.814957705411,1353 -2126.3636363636365,1328.5523443222046 -2408.1818181818185,1293.543565750122 -2690,1295.8725743293762" fill="none" stroke="#B4CAF6" stroke-width="1.5" />
<rect x="-1814.510187322443" y="1766.6999999999998" width="27" height="12.6" fill="#FFFFFF" />
<text x="-1801.010187322443" y="1772.9999999999998" font-family="sans-serif" font-size="9" text-anchor="middle">-0.27</text>
<polyline points="372.8323105248538,2193 410,2233.8792400360107 691.8181818181818,2349.6520500183105 973.6363636363637,2373.631971359253 1255.4545454545455,2361.087558746338 1537.2727272727273,2287.4040298461914 1649.5901636643844,2193 1727.0414100993764,1982.9999999999998 1736.7215728759766,1772.9999999999998 1696.8072119626133,1562.9999999999998 1537.2727272727273,1373.9552192687988 1487.1795142780652,1353 1255.4545454545455,1302.55078125 973.6363636363637,1291.141107559204 691.8181818181818,1312.9520373344421 545.6728532097557,1353 410,1435.5229167938232 327.78926740993154,1562.9999999999998 289.71257188103414,1772.9999999999998 298.9470420100472,1982.9999999999998 372.8323105248538,2193" fill="none" stroke="#B4CAF6" stroke-width="1.5" />
<rect x="1523.7727272727273" y="1367.6552192687989" width="27" height="12.6" fill="#FFFFFF" />
<text x="1537.2727272727273" y="1373.9552192687988" font-family="sans-serif" font-size="9" text-anchor="middle">-0.27</text>
<polyline points="-1339.428285251964,933 -1280.9090909090908,971.3439517021179 -999.090909090909,1040.8350448608398 -717.2727272727273,1052.665539264679 -435.45454545454544,1030.05011844635 -172.37877000461924,933 -153.63636363636363,916.1048119068146 -54.03948556293139,723 -31.73242829062721,513 -54.03948556293139,303 -153.63636363636363,109.89518809318548 -172.37877000461924,93.00000000000006 -435.45454545454544,-4.050118446349984 -717.2727272727273,-26.66553926467884 -999.090909090909,-14.83504486083973 -1280.9090909090908,54.65604829788214 -1339.428285251964,93.00000000000006 -1458.6687816273081,303 -1482.0524857260964,513 -1458.6687816273081,723 -1339.428285251964,933" fill="none" stroke="#B4CAF6" stroke-width="1.5" />
<rect x="-167.13636363636363" y="103.59518809318548" width="27" height="12.6" fill="#FFFFFF" />
<text x="-153.63636363636363" y="109.89518809318548" font-family="sans-serif" font-size="9" text-anchor="middle">-0.27</text>
<polyline points="2206.912349354137,933 2382.7272727272725,1013.8744311332703 2664.5454545454545,1050.174460887909" fill="none" stroke="#B4CAF6" stroke-width="1.5" />
<rect x="2369.2272727272725" y="1007.5744311332703" width="27" height="12.6" fill="#FFFFFF" />
<text x="2382.7272727272725" y="1013.8744311332703" font-family="sans-serif" font-size="9" text-anchor="middle">-0.27</text>
<polyline points="2077.5396312366834,723 2100.909090909091,786.538670539856 2206.912349354137,933" fill="none" stroke="#B4CAF6" stroke-width="1.5" />
<rect x="2087.409090909091" y="780.238670539856" width="27" height="12.6" fill="#FFFFFF" />
<text x="2100.909090909091" y="786.538670539856" font-family="sans-serif" font-size="9" text-anchor="middle">-0.27</text>
<polyline points="2077.5396312366834,723 2055.7983363758435,513 2077.5396312366834,303 2100.909090909091,239.4613294601441 2206.912349354137,93.00000000000006 2382.7272727272725,12.125568866729793 2664.5454545454545,-24.174460887908822" fill="none" stroke="#B4CAF6" stroke-width="1.5" />
<rect x="2087.409090909091" y="233.1613294601441" width="27" height="12.6" fill="#FFFFFF" />
<text x="2100.909090909091" y="239.4613294601441" font-family="sans-serif" font-size="9" text-anchor="middle">-0.27</text>
<polyline points="-2690,-269.8725743293761 -2408.1818181818185,-267.54356575012196 -2126.3636363636365,-302.5523443222045 -2054.814957705411,-326.9999999999999 -1844.5454545454545,-523.0306549072263 -1838.121083866466,-536.9999999999998 -1801.010187322443,-746.9999999999998 -1810.0105146928265,-956.9999999999998 -1844.5454545454545,-1076.4920539855955 -1889.948757345026,-1166.9999999999998 -2126.3636363636365,-1306.5005893707273 -2408.1818181818185,-1344.9905891418455 -2690,-1342.4299163818357" fill="none" stroke="#B4CAF6" stroke-width="1.5" />
<rect x="-1814.510187322443" y="-753.2999999999997" width="27" height="12.6" fill="#FFFFFF" />
<text x="-1801.010187322443" y="-746.9999999999998" font-family="sans-serif" font-size="9" text-anchor="middle">-0.27</text>
<polyline points="545.6728532097557,-326.9999999999999 691.8181818181818,-286.952037334442 973.6363636363637,-265.141107559204 1255.4545454545455,-276.5507812499999 1487.1795142780652,-326.9999999999999 1537.2727272727273,-347.9552192687987 1696.8072119626133,-536.9999999999998 1736.7215728759766,-746.9999999999998 1727.0414100993764,-956.9999999999998 1649.5901636643844,-1166.9999999999998 1537.2727272727273,-1261.4040298461912 1255.4545454545455,-1335.0875587463377 973.6363636363637,-1347.6319713592527 691.8181818181818,-1323.6520500183103 410,-1207.8792400360105 372.8323105248538,-1166.9999999999998 298.9470420100472,-956.9999999999998 289.71257188103414,-746.9999999999998 327.78926740993154,-536.9999999999998 410,-409.52291679382313 545.6728532097557,-326.9999999999999" fill="none" stroke="#B4CAF6" stroke-width="1.5" />
<rect x="1523.7727272727273" y="-1267.7040298461911" width="27" height="12.6" fill="#FFFFFF" />
<text x="1537.2727272727273" y="-1261.4040298461912" font-family="sans-serif" font-size="9" text-anchor="middle">-0.27</text>
<polyline points="-2690,2452.3637466430664 -2408.1818181818185,2453.128183364868 -2126.3636363636365,2441.637399673462 -1899.6588871695778,2403 -1844.5454545454545,2380.3733139038086 -1723.0583702434192,2193 -1699.0547648343172,1982.9999999999998 -1696.0547005046496,1772.9999999999998 -1708.42490976507,1562.9999999999998 -1768.4189397638493,1353 -1844.5454545454545,1285.0094919204712 -2126.3636363636365,1225.1907663345337 -2408.1818181818185,1213.5211901664734 -2690,1214.297492980957" fill="none" stroke="#D0D8EA" stroke-width="1.5" />
<rect x="-1709.5547005046496" y="1766.6999999999998" width="27" height="12.6" fill="#FFFFFF" />
<text x="-1696.0547005046496" y="1772.9999999999998" font-family="sans-serif" font-size="9" text-anchor="middle">-0.09</text>
<polyline points="-1452.6988887786865,2612.9999999999995 -1280.9090909090908,2556.8788890838623 -999.090909090909,2534.8812561035156 -717.2727272727273,2531.1363773345947 -435.45454545454544,2538.295286178589 -153.63636363636363,2572.8581600189204 -59.73446770147842,2612.9999999999995" fill="none" stroke="#D0D8EA" stroke-width="1.5" />
<rect x="-730.7727272727273" y="2524.8363773345945" width="27" height="12.6" fill="#FFFFFF" />
<text x="-717.2727272727273" y="2531.1363773345947" font-family="sans-serif" font-size="9" text-anchor="middle">-0.09</text>
<polyline points="381.05567834594035,2403 410,2412.194869995117 691.8181818181818,2446.757743835449 973.6363636363637,2453.91685295105 1255.4545454545455,2450.1717739105225 1537.2727272727273,2428.174341201782 1640.9700012207031,2403 1819.0909090909092,2198.2449131011963 1820.4589115489614,2193 1844.4626513394442,1982.9999999999998 1847.4627156691117,1772.9999999999998 1835.0925064086914,1562.9999999999998 1819.0909090909092,1476.5118055343628 1771.7750904776833,1353 1537.2727272727273,1238.8633089065552 1255.4545454545455,1216.5235619544983 973.6363636363637,1212.7203540802002 691.8181818181818,1219.9906640052795 410,1255.0912671089172 256.2730166586963,1353 194.71763879060745,1562.9999999999998 182.02540554783562,1772.9999999999998 185.10356225750664,1982.9999999999998 209.73198229616338,2193 381.05567834594035,2403" fill="none" stroke="#D0D8EA" stroke-width="1.5" />
<rect x="1805.5909090909092" y="1470.2118055343628" width="27" height="12.6" fill="#FFFFFF" />
<text x="1819.0909090909092" y="1476.5118055343628" font-family="sans-serif" font-size="9" text-anchor="middle">-0.09</text>
<polyline points="2083.090119795366,2612.9999999999995 2100.909090909091,2602.318113327026 2382.7272727272725,2543.415630340576 2664.5454545454545,2531.92484664917" fill="none" stroke="#D0D8EA" stroke-width="1.5" />
<rect x="2369.2272727272725" y="2537.115630340576" width="27" height="12.6" fill="#FFFFFF" />
<text x="2382.7272727272725" y="2543.415630340576" font-family="sans-serif" font-size="9" text-anchor="middle">-0.09</text>
<polyline points="-1546.2659567052667,933 -1280.9090909090908,1106.8715028762817 -999.090909090909,1130.0351672172546 -717.2727272727273,1133.9786653518677 -435.45454545454544,1126.440191745758 -153.63636363636363,1090.0449829101562 29.52455992048438,933 67.44138360023499,723 74.87707075747576,513 67.44138360023499,303 29.52455992048438,93.00000000000006 -153.63636363636363,-64.04498291015614 -435.45454545454544,-100.44019174575794 -717.2727272727273,-107.97866535186756 -999.090909090909,-104.03516721725452 -1280.9090909090908,-80.87150287628162 -1546.2659567052667,93.00000000000006 -1562.7272727272727,156.68299126625067 -1584.3771882490678,303 -1591.6242417422206,513 -1584.3771882490678,723 -1562.7272727272727,869.3170087337494 -1546.2659567052667,933" fill="none" stroke="#D0D8EA" stroke-width="1.5" />
<rect x="-167.13636363636363" y="-70.34498291015613" width="27" height="12.6" fill="#FFFFFF" />
<text x="-153.63636363636363" y="-64.04498291015614" font-family="sans-serif" font-size="9" text-anchor="middle">-0.09</text>
<polyline points="1996.0952420668168,933 2100.909090909091,1059.0233116149902 2382.7272727272725,1121.0483293533325 2664.5454545454545,1133.1483392715454" fill="none" stroke="#D0D8EA" stroke-width="1.5" />
<rect x="2369.2272727272725" y="1114.7483293533326" width="27" height="12.6" fill="#FFFFFF" />
<text x="2382.7272727272725" y="1121.0483293533325" font-family="sans-serif" font-size="9" text-anchor="middle">-0.09</text>
<polyline points="1996.0952420668168,933 1959.1402279246938,723 1951.8931744315407,513 1959.1402279246938,303 1996.0952420668168,93.00000000000006 2100.909090909091,-33.02331161499012 2382.7272727272725,-95.0483293533324 2664.5454545454545,-107.1483392715453" fill="none" stroke="#D0D8EA" stroke-width="1.5" />
<rect x="1982.5952420668168" y="86.70000000000006" width="27" height="12.6" fill="#FFFFFF" />
<text x="1996.0952420668168" y="93.00000000000006" font-family="sans-serif" font-size="9" text-anchor="middle">-0.09</text>
<polyline points="-2690,-188.29749298095692 -2408.1818181818185,-187.52119016647327 -2126.3636363636365,-199.19076633453358 -1844.5454545454545,-259.0094919204711 -1768.4189397638493,-326.9999999999999 -1708.42490976507,-536.9999999999998 -1696.0547005046496,-746.9999999999998 -1699.0547648343172,-956.9999999999998 -1723.0583702434192,-1166.9999999999998 -1844.5454545454545,-1354.3733139038084 -1899.6588871695778,-1376.9999999999998" fill="none" stroke="#D0D8EA" stroke-width="1.5" />
<rect x="-1721.92490976507" y="-543.2999999999997" width="27" height="12.6" fill="#FFFFFF" />
<text x="-1708.42490976507" y="-536.9999999999998" font-family="sans-serif" font-size="9" text-anchor="middle">-0.09</text>
<polyline points="256.2730166586963,-326.9999999999999 410,-229.09126710891712 691.8181818181818,-193.99066400527943 973.6363636363637,-186.72035408020008 1255.4545454545455,-190.52356195449818 1537.2727272727273,-212.86330890655506 1771.7750904776833,-326.9999999999999 1819.0909090909092,-450.5118055343627 1835.0925064086914,-536.9999999999998 1847.4627156691117,-746.9999999999998 1844.4626513394442,-956.9999999999998 1820.4589115489614,-1166.9999999999998 1819.0909090909092,-1172.244913101196 1640.9700012207031,-1376.9999999999998" fill="none" stroke="#D0D8EA" stroke-width="1.5" />
<rect x="1805.5909090909092" y="-456.8118055343627" width="27" height="12.6" fill="#FFFFFF" />
<text x="1819.0909090909092" y="-450.5118055343627" font-family="sans-serif" font-size="9" text-anchor="middle">-0.09</text>
<polyline points="256.2730166586963,-326.9999999999999 194.71763879060745,-536.9999999999998 182.02540554783562,-746.9999999999998 185.10356225750664,-956.9999999999998 209.73198229616338,-1166.9999999999998 381.05567834594035,-1376.9999999999998" fill="none" stroke="#D0D8EA" stroke-width="1.5" />
<rect x="171.60356225750664" y="-963.2999999999997" width="27" height="12.6" fill="#FFFFFF" />
<text x="185.10356225750664" y="-956.9999999999998" font-family="sans-serif" font-size="9" text-anchor="middle">-0.09</text>
<polyline points="-2690,2532.6892833709717 -2408.1818181818185,2531.92484664917 -2126.3636363636365,2543.415630340576 -1844.5454545454545,2602.318113327026 -1826.7264834317293,2612.9999999999995" fill="none" stroke="#E6DADA" stroke-width="1.5" />
<rect x="-2137.1636363636367" y="2537.115630340576" width="21.599999999999998" height="12.6" fill="#FFFFFF" />
<text x="-2126.3636363636365" y="2543.415630340576" font-family="sans-serif" font-size="9" text-anchor="middle">0.09</text>
<polyline points="-1384.6063648570666,2403 -1280.9090909090908,2428.174341201782 -999.090909090909,2450.1717739105225 -717.2727272727273,2453.91685295105 -435.45454545454544,2446.757743835449 -153.63636363636363,2412.194869995117 -124.69204198230395,2403 46.63165406747298,2193 71.26007410612974,1982.9999999999998 74.33823081580076,1772.9999999999998 61.64599757302892,1562.9999999999998 0.09061970494011007,1353 -153.63636363636363,1255.0912671089172 -435.45454545454544,1219.9906640052795 -717.2727272727273,1212.7203540802002 -999.090909090909,1216.5235619544983 -1280.9090909090908,1238.8633089065552 -1515.4114541140468,1353 -1562.7272727272727,1476.5118055343628 -1578.728870045055,1562.9999999999998 -1591.0990793054752,1772.9999999999998 -1588.0990149758077,1982.9999999999998 -1564.095275185325,2193 -1562.7272727272727,2198.2449131011963 -1384.6063648570666,2403" fill="none" stroke="#E6DADA" stroke-width="1.5" />
<rect x="-164.43636363636364" y="1248.7912671089173" width="21.599999999999998" height="12.6" fill="#FFFFFF" />
<text x="-153.63636363636363" y="1255.0912671089172" font-family="sans-serif" font-size="9" text-anchor="middle">0.09</text>
<polyline points="316.0981040651148,2612.9999999999995 410,2572.8581600189204 691.8181818181818,2538.295286178589 973.6363636363637,2531.1363773345947 1255.4545454545455,2534.8812561035156 1537.2727272727273,2556.8788890838623 1709.062525142323,2612.9999999999995" fill="none" stroke="#E6DADA" stroke-width="1.5" />
<rect x="962.8363636363638" y="2524.8363773345945" width="21.599999999999998" height="12.6" fill="#FFFFFF" />
<text x="973.6363636363637" y="2531.1363773345947" font-family="sans-serif" font-size="9" text-anchor="middle">0.09</text>
<polyline points="2156.022523533214,2403 2382.7272727272725,2441.637399673462 2664.5454545454545,2453.128183364868" fill="none" stroke="#E6DADA" stroke-width="1.5" />
<rect x="2371.9272727272723" y="2435.3373996734617" width="21.599999999999998" height="12.6" fill="#FFFFFF" />
<text x="2382.7272727272725" y="2441.637399673462" font-family="sans-serif" font-size="9" text-anchor="middle">0.09</text>
<polyline points="1979.4220066070557,2193 2100.909090909091,2380.3733139038086 2156.022523533214,2403" fill="none" stroke="#E6DADA" stroke-width="1.5" />
<rect x="2090.109090909091" y="2374.0733139038084" width="21.599999999999998" height="12.6" fill="#FFFFFF" />
<text x="2100.909090909091" y="2380.3733139038086" font-family="sans-serif" font-size="9" text-anchor="middle">0.09</text>
<polyline points="1979.4220066070557,2193 1955.4184011979537,1982.9999999999998 1952.4183368682861,1772.9999999999998 1964.7885461287065,1562.9999999999998 2024.7825761274858,1353 2100.909090909091,1285.0094919204712 2382.7272727272725,1225.1907663345337 2664.5454545454545,1213.5211901664734" fill="none" stroke="#E6DADA" stroke-width="1.5" />
<rect x="2013.9825761274858" y="1346.7" width="21.599999999999998" height="12.6" fill="#FFFFFF" />
<text x="2024.7825761274858" y="1353" font-family="sans-serif" font-size="9" text-anchor="middle">0.09</text>
<polyline points="-2690,1132.3433475494385 -2408.1818181818185,1133.1483392715454 -2126.3636363636365,1121.0483293533325 -1844.5454545454545,1059.0233116149902 -1739.7316057031803,933 -1702.7765915610573,723 -1695.5295380679042,513 -1702.7765915610573,303 -1739.7316057031803,93.00000000000006 -1844.5454545454545,-33.02331161499012 -2126.3636363636365,-95.0483293533324 -2408.1818181818185,-107.1483392715453 -2690,-106.34334754943836" fill="none" stroke="#E6DADA" stroke-width="1.5" />
<rect x="-1706.3295380679042" y="506.7" width="21.599999999999998" height="12.6" fill="#FFFFFF" />
<text x="-1695.5295380679042" y="513" font-family="sans-serif" font-size="9" text-anchor="middle">0.09</text>
<polyline points="226.839076443152,933 410,1090.0449829101562 691.8181818181818,1126.440191745758 973.6363636363637,1133.9786653518677 1255.4545454545455,1130.0351672172546 1537.2727272727273,1106.8715028762817 1802.6295930689032,933 1819.0909090909092,869.3170087337494 1840.7408246127043,723 1847.9878781058571,513 1840.7408246127043,303 1819.0909090909092,156.68299126625067 1802.6295930689032,93.00000000000006 1537.2727272727273,-80.87150287628162 1255.4545454545455,-104.03516721725452 973.6363636363637,-107.97866535186756 691.8181818181818,-100.44019174575794 410,-64.04498291015614 226.839076443152,93.00000000000006 188.9222527634014,303 181.4865656061606,513 188.9222527634014,723 226.839076443152,933" fill="none" stroke="#E6DADA" stroke-width="1.5" />
<rect x="1808.2909090909093" y="150.38299126625066" width="21.599999999999998" height="12.6" fill="#FFFFFF" />
<text x="1819.0909090909092" y="156.68299126625067" font-family="sans-serif" font-size="9" text-anchor="middle">0.09</text>
<polyline points="-1515.4114541140468,-326.9999999999999 -1280.9090909090908,-212.86330890655506 -999.090909090909,-190.52356195449818 -717.2727272727273,-186.72035408020008 -435.45454545454544,-193.99066400527943 -153.63636363636363,-229.09126710891712 0.09061970494011007,-326.9999999999999 61.64599757302892,-536.9999999999998 74.33823081580076,-746.9999999999998 71.26007410612974,-956.9999999999998 46.63165406747298,-1166.9999999999998 -124.69204198230395,-1376.9999999999998" fill="none" stroke="#E6DADA" stroke-width="1.5" />
<rect x="-10.709380295059889" y="-333.2999999999999" width="21.599999999999998" height="12.6" fill="#FFFFFF" />
<text x="0.09061970494011007" y="-326.9999999999999" font-family="sans-serif" font-size="9" text-anchor="middle">0.09</text>
<polyline points="2024.7825761274858,-326.9999999999999 2100.909090909091,-259.0094919204711 2382.7272727272725,-199.19076633453358 2664.5454545454545,-187.52119016647327" fill="none" stroke="#E6DADA" stroke-width="1.5" />
<rect x="2371.9272727272723" y="-205.4907663345336" width="21.599999999999998" height="12.6" fill="#FFFFFF" />
<text x="2382.7272727272725" y="-199.19076633453358" font-family="sans-serif" font-size="9" text-anchor="middle">0.09</text>
<polyline points="-1578.728870045055,-536.9999999999998 -1562.7272727272727,-450.5118055343627 -1515.4114541140468,-326.9999999999999" fill="none" stroke="#E6DADA" stroke-width="1.5" />
<rect x="-1573.5272727272727" y="-456.8118055343627" width="21.599999999999998" height="12.6" fill="#FFFFFF" />
<text x="-1562.7272727272727" y="-450.5118055343627" font-family="sans-serif" font-size="9" text-anchor="middle">0.09</text>
<polyline points="2024.7825761274858,-326.9999999999999 1964.7885461287065,-536.9999999999998 1952.4183368682861,-746.9999999999998 1955.4184011979537,-956.9999999999998 1979.4220066070557,-1166.9999999999998 2100.909090909091,-1354.3733139038084 2156.022523533214,-1376.9999999999998" fill="none" stroke="#E6DADA" stroke-width="1.5" />
<rect x="1944.6184011979537" y="-963.2999999999997" width="21.599999999999998" height="12.6" fill="#FFFFFF" />
<text x="1955.4184011979537" y="-956.9999999999998" font-family="sans-serif" font-size="9" text-anchor="middle">0.09</text>
<polyline points="-1578.728870045055,-536.9999999999998 -1591.0990793054752,-746.9999999999998 -1588.0990149758077,-956.9999999999998 -1564.095275185325,-1166.9999999999998 -1562.7272727272727,-1172.244913101196 -1384.6063648570666,-1376.9999999999998" fill="none" stroke="#E6DADA" stroke-width="1.5" />
<rect x="-1574.8952751853249" y="-1173.2999999999997" width="21.599999999999998" height="12.6" fill="#FFFFFF" />
<text x="-1564.095275185325" y="-1166.9999999999998" font-family="sans-serif" font-size="9" text-anchor="middle">0.09</text>
<polyline points="-2688.209502480247,2612.9999999999995 -2408.1818181818185,2610.721509933471 -2384.577459855513,2612.9999999999995" fill="none" stroke="#EEC2AF" stroke-width="1.5" />
<rect x="-2418.9818181818187" y="2604.421509933471" width="21.599999999999998" height="12.6" fill="#FFFFFF" />
<text x="-2408.1818181818185" y="2610.721509933471" font-family="sans-serif" font-size="9" text-anchor="middle">0.27</text>
<polyline points="904.1815484653819,2612.9999999999995 973.6363636363637,2608.355901718139 1096.5038806741888,2612.9999999999995" fill="none" stroke="#EEC2AF" stroke-width="1.5" />
<rect x="962.8363636363638" y="2602.055901718139" width="21.599999999999998" height="12.6" fill="#FFFFFF" />
<text x="973.6363636363637" y="2608.355901718139" font-family="sans-serif" font-size="9" text-anchor="middle">0.27</text>
<polyline points="-1393.2265273007479,2193 -1280.9090909090908,2287.4040298461914 -999.090909090909,2361.087558746338 -717.2727272727273,2373.631971359253 -435.45454545454544,2349.6520500183105 -153.63636363636363,2233.8792400360107 -116.46867416121742,2193 -42.58340564641085,1982.9999999999998 -33.34893551739779,1772.9999999999998 -71.42563104629517,1562.9999999999998 -153.63636363636363,1435.5229167938232 -289.3092168461193,1353 -435.45454545454544,1312.9520373344421 -717.2727272727273,1291.141107559204 -999.090909090909,1302.55078125 -1230.8158779144287,1353 -1280.9090909090908,1373.9552192687988 -1440.4435755989768,1562.9999999999998 -1480.35793651234,1772.9999999999998 -1470.67777373574,1982.9999999999998 -1393.2265273007479,2193" fill="none" stroke="#EEC2AF" stroke-width="1.5" />
<rect x="-164.43636363636364" y="1429.2229167938233" width="21.599999999999998" height="12.6" fill="#FFFFFF" />
<text x="-153.63636363636363" y="1435.5229167938232" font-family="sans-serif" font-size="9" text-anchor="middle">0.27</text>
<polyline points="2146.3123937086625,2193 2382.7272727272725,2332.5005893707275 2664.5454545454545,2370.9905891418457" fill="none" stroke="#EEC2AF" stroke-width="1.5" />
<rect x="2371.9272727272723" y="2326.2005893707274" width="21.599999999999998" height="12.6" fill="#FFFFFF" />
<text x="2382.7272727272725" y="2332.5005893707275" font-family="sans-serif" font-size="9" text-anchor="middle">0.27</text>
<polyline points="2066.374151056463,1982.9999999999998 2100.909090909091,2102.4920539855957 2146.3123937086625,2193" fill="none" stroke="#EEC2AF" stroke-width="1.5" />
<rect x="2090.109090909091" y="2096.1920539855955" width="21.599999999999998" height="12.6" fill="#FFFFFF" />
<text x="2100.909090909091" y="2102.4920539855957" font-family="sans-serif" font-size="9" text-anchor="middle">0.27</text>
<polyline points="2066.374151056463,1982.9999999999998 2057.3738236860795,1772.9999999999998 2094.4847202301025,1562.9999999999998 2100.909090909091,1549.0306549072263 2311.178594069047,1353 2382.7272727272725,1328.5523443222046 2664.5454545454545,1293.543565750122" fill="none" stroke="#EEC2AF" stroke-width="1.5" />
<rect x="2090.109090909091" y="1542.7306549072264" width="21.599999999999998" height="12.6" fill="#FFFFFF" />
<text x="2100.909090909091" y="1549.0306549072263" font-family="sans-serif" font-size="9" text-anchor="middle">0.27</text>
<polyline points="-2690,1047.7595357894897 -2408.1818181818185,1050.174460887909 -2126.3636363636365,1013.8744311332703 -1950.5487129905007,933 -1844.5454545454545,786.538670539856 -1821.1759948730469,723 -1799.434700012207,513 -1821.1759948730469,303 -1844.5454545454545,239.4613294601441 -1950.5487129905007,93.00000000000006 -2126.3636363636365,12.125568866729793 -2408.1818181818185,-24.174460887908822 -2690,-21.759535789489632" fill="none" stroke="#EEC2AF" stroke-width="1.5" />
<rect x="-1810.234700012207" y="506.7" width="21.599999999999998" height="12.6" fill="#FFFFFF" />
<text x="-1799.434700012207" y="513" font-family="sans-serif" font-size="9" text-anchor="middle">0.27</text>
<polyline points="428.7424063682556,933 691.8181818181818,1030.05011844635 973.6363636363637,1052.665539264679 1255.4545454545455,1040.8350448608398 1537.2727272727273,971.3439517021179 1595.7919216156006,933 1715.0324179909446,723 1738.4161220897329,513 1715.0324179909446,303 1595.7919216156006,93.00000000000006 1537.2727272727273,54.65604829788214 1255.4545454545455,-14.83504486083973 973.6363636363637,-26.66553926467884 691.8181818181818,-4.050118446349984 428.7424063682556,93.00000000000006 410,109.89518809318548 310.4031219265678,303 288.0960646542636,513 310.4031219265678,723 410,916.1048119068146 428.7424063682556,933" fill="none" stroke="#EEC2AF" stroke-width="1.5" />
<rect x="1526.4727272727273" y="48.35604829788214" width="21.599999999999998" height="12.6" fill="#FFFFFF" />
<text x="1537.2727272727273" y="54.65604829788214" font-family="sans-serif" font-size="9" text-anchor="middle">0.27</text>
<polyline points="-1230.8158779144287,-326.9999999999999 -999.090909090909,-276.5507812499999 -717.2727272727273,-265.141107559204 -435.45454545454544,-286.952037334442 -289.3092168461193,-326.9999999999999 -153.63636363636363,-409.52291679382313 -71.42563104629517,-536.9999999999998 -33.34893551739779,-746.9999999999998 -42.58340564641085,-956.9999999999998 -116.46867416121742,-1166.9999999999998 -153.63636363636363,-1207.8792400360105 -435.45454545454544,-1323.6520500183103 -717.2727272727273,-1347.6319713592527 -999.090909090909,-1335.0875587463377 -1280.9090909090908,-1261.4040298461912 -1393.2265273007479,-1166.9999999999998 -1470.67777373574,-956.9999999999998 -1480.35793651234,-746.9999999999998 -1440.4435755989768,-536.9999999999998 -1280.9090909090908,-347.9552192687987 -1230.8158779144287,-326.9999999999999" fill="none" stroke="#EEC2AF" stroke-width="1.5" />
<rect x="-164.43636363636364" y="-1214.1792400360105" width="21.599999999999998" height="12.6" fill="#FFFFFF" />
<text x="-153.63636363636363" y="-1207.8792400360105" font-family="sans-serif" font-size="9" text-anchor="middle">0.27</text>
<polyline points="2311.178594069047,-326.9999999999999 2382.7272727272725,-302.5523443222045 2664.5454545454545,-267.54356575012196" fill="none" stroke="#EEC2AF" stroke-width="1.5" />
<rect x="2371.9272727272723" y="-308.8523443222045" width="21.599999999999998" height="12.6" fill="#FFFFFF" />
<text x="2382.7272727272725" y="-302.5523443222045" font-family="sans-serif" font-size="9" text-anchor="middle">0.27</text>
<polyline points="2094.4847202301025,-536.9999999999998 2100.909090909091,-523.0306549072263 2311.178594069047,-326.9999999999999" fill="none" stroke="#EEC2AF" stroke-width="1.5" />
<rect x="2090.109090909091" y="-529.3306549072263" width="21.599999999999998" height="12.6" fill="#FFFFFF" />
<text x="2100.909090909091" y="-523.0306549072263" font-family="sans-serif" font-size="9" text-anchor="middle">0.27</text>
<polyline points="2094.4847202301025,-536.9999999999998 2057.3738236860795,-746.9999999999998 2066.374151056463,-956.9999999999998 2100.909090909091,-1076.4920539855955 2146.3123937086625,-1166.9999999999998 2382.7272727272725,-1306.5005893707273 2664.5454545454545,-1344.9905891418455" fill="none" stroke="#EEC2AF" stroke-width="1.5" />
<rect x="2090.109090909091" y="-1082.7920539855954" width="21.599999999999998" height="12.6" fill="#FFFFFF" />
<text x="2100.909090909091" y="-1076.4920539855955" font-family="sans-serif" font-size="9" text-anchor="middle">0.27</text>
<polyline points="-1194.6038584275677,2193 -999.090909090909,2266.506088256836 -717.2727272727273,2287.4130420684814 -435.45454545454544,2247.4466400146484 -320.3981141610579,2193 -157.3316164450212,1982.9999999999998 -153.63636363636363,1946.6268711090086 -141.03611024943262,1772.9999999999998 -153.63636363636363,1723.7793474197385 -220.98706873980433,1562.9999999999998 -435.45454545454544,1419.9167518615723 -717.2727272727273,1373.944905281067 -999.090909090909,1397.99351978302 -1280.9090909090908,1539.2526941299436 -1300.949386249889,1562.9999999999998 -1367.4734106930819,1772.9999999999998 -1351.3398508592084,1982.9999999999998 -1280.9090909090908,2115.802906036377 -1194.6038584275677,2193" fill="none" stroke="#EFA07E" stroke-width="1.5" />
<rect x="-231.78706873980434" y="1556.6999999999998" width="21.599999999999998" height="12.6" fill="#FFFFFF" />
<text x="-220.98706873980433" y="1562.9999999999998" font-family="sans-serif" font-size="9" text-anchor="middle">0.45</text>
<polyline points="2338.9003979076037,2193 2382.7272727272725,2218.8606719970703 2664.5454545454545,2283.0106716156006" fill="none" stroke="#EFA07E" stroke-width="1.5" />
<rect x="2371.9272727272723" y="2212.56067199707" width="21.599999999999998" height="12.6" fill="#FFFFFF" />
<text x="2382.7272727272725" y="2218.8606719970703" font-family="sans-serif" font-size="9" text-anchor="middle">0.45</text>
<polyline points="2338.9003979076037,2193 2193.4947716106067,1982.9999999999998 2175.3214367953215,1772.9999999999998 2250.2561231092973,1562.9999999999998 2382.7272727272725,1452.7981452941895 2664.5454545454545,1379.0086727142334" fill="none" stroke="#EFA07E" stroke-width="1.5" />
<rect x="2239.456123109297" y="1556.6999999999998" width="21.599999999999998" height="12.6" fill="#FFFFFF" />
<text x="2250.2561231092973" y="1562.9999999999998" font-family="sans-serif" font-size="9" text-anchor="middle">0.45</text>
<polyline points="-2690,963.1757740974426 -2408.1818181818185,967.2005825042725 -2231.531042619185,933 -2126.3636363636365,896.3856439590454 -1959.676702672785,723 -1915.7765900004993,513 -1959.676702672785,303 -2126.3636363636365,129.61435604095465 -2231.531042619185,93.00000000000006 -2408.1818181818185,58.799417495727596 -2690,62.82422590255743" fill="none" stroke="#EFA07E" stroke-width="1.5" />
<rect x="-1926.5765900004992" y="506.7" width="21.599999999999998" height="12.6" fill="#FFFFFF" />
<text x="-1915.7765900004993" y="513" font-family="sans-serif" font-size="9" text-anchor="middle">0.45</text>
<polyline points="690.0289945168929,933 691.8181818181818,933.6600451469421 973.6363636363637,971.3523631095886 1255.4545454545455,951.634922504425 1319.035214510831,933 1537.2727272727273,797.699957370758 1587.688455581665,723 1626.6613405401056,513 1587.688455581665,303 1537.2727272727273,228.300042629242 1319.035214510831,93.00000000000006 1255.4545454545455,74.36507749557501 973.6363636363637,54.647636890411434 691.8181818181818,92.33995485305792 690.0289945168929,93.00000000000006 438.9790760387074,303 410,419.90188497304916 394.7055511041121,513 410,606.0981150269508 438.9790760387074,723 690.0289945168929,933" fill="none" stroke="#EFA07E" stroke-width="1.5" />
<rect x="1308.2352145108312" y="86.70000000000006" width="21.599999999999998" height="12.6" fill="#FFFFFF" />
<text x="1319.035214510831" y="93.00000000000006" font-family="sans-serif" font-size="9" text-anchor="middle">0.45</text>
<polyline points="-1300.949386249889,-536.9999999999998 -1280.9090909090908,-513.2526941299436 -999.090909090909,-371.9935197830199 -717.2727272727273,-347.9449052810668 -435.45454545454544,-393.91675186157215 -220.98706873980433,-536.9999999999998 -153.63636363636363,-697.7793474197385 -141.03611024943262,-746.9999999999998 -153.63636363636363,-920.6268711090086 -157.3316164450212,-956.9999999999998 -320.3981141610579,-1166.9999999999998 -435.45454545454544,-1221.4466400146482 -717.2727272727273,-1261.4130420684812 -999.090909090909,-1240.5060882568357 -1194.6038584275677,-1166.9999999999998 -1280.9090909090908,-1089.8029060363767 -1351.3398508592084,-956.9999999999998 -1367.4734106930819,-746.9999999999998 -1300.949386249889,-536.9999999999998" fill="none" stroke="#EFA07E" stroke-width="1.5" />
<rect x="-168.13161644502122" y="-963.2999999999997" width="21.599999999999998" height="12.6" fill="#FFFFFF" />
<text x="-157.3316164450212" y="-956.9999999999998" font-family="sans-serif" font-size="9" text-anchor="middle">0.45</text>
<polyline points="2250.2561231092973,-536.9999999999998 2382.7272727272725,-426.79814529418934 2664.5454545454545,-353.0086727142333" fill="none" stroke="#EFA07E" stroke-width="1.5" />
<rect x="2371.9272727272723" y="-433.09814529418935" width="21.599999999999998" height="12.6" fill="#FFFFFF" />
<text x="2382.7272727272725" y="-426.79814529418934" font-family="sans-serif" font-size="9" text-anchor="middle">0.45</text>
<polyline points="2250.2561231092973,-536.9999999999998 2175.3214367953215,-746.9999999999998 2193.4947716106067,-956.9999999999998 2338.9003979076037,-1166.9999999999998 2382.7272727272725,-1192.86067199707 2664.5454545454545,-1257.0106716156004" fill="none" stroke="#EFA07E" stroke-width="1.5" />
<rect x="2328.1003979076036" y="-1173.2999999999997" width="21.599999999999998" height="12.6" fill="#FFFFFF" />
<text x="2338.9003979076037" y="-1166.9999999999998" font-family="sans-serif" font-size="9" text-anchor="middle">0.45</text>
<polyline points="-801.533481424505,2193 -717.2727272727273,2201.1943130493164 -669.6416499397972,2193 -435.45454545454544,2118.216279029846 -308.08471462943334,1982.9999999999998 -279.55175118012863,1772.9999999999998 -397.20234784212977,1562.9999999999998 -435.45454545454544,1537.4797897338865 -717.2727272727273,1473.1193046569824 -999.090909090909,1506.7873649597168 -1105.1432167400012,1562.9999999999998 -1242.1811832081187,1772.9999999999998 -1208.9463832161643,1982.9999999999998 -999.090909090909,2159.9983434677124 -801.533481424505,2193" fill="none" stroke="#E6795F" stroke-width="1.5" />
<rect x="-446.25454545454545" y="1531.1797897338865" width="21.599999999999998" height="12.6" fill="#FFFFFF" />
<text x="-435.45454545454544" y="1537.4797897338865" font-family="sans-serif" font-size="9" text-anchor="middle">0.63</text>
<polyline points="2656.3672724637117,2193 2664.5454545454545,2195.030954360962" fill="none" stroke="#E6795F" stroke-width="1.5" />
<rect x="2653.7454545454543" y="2188.7309543609617" width="21.599999999999998" height="12.6" fill="#FFFFFF" />
<text x="2664.5454545454545" y="2195.030954360962" font-family="sans-serif" font-size="9" text-anchor="middle">0.63</text>
<polyline points="2327.9206327958536,1982.9999999999998 2382.7272727272725,2055.5496912002563 2656.3672724637117,2193" fill="none" stroke="#E6795F" stroke-width="1.5" />
<rect x="2371.9272727272723" y="2049.249691200256" width="21.599999999999998" height="12.6" fill="#FFFFFF" />
<text x="2382.7272727272725" y="2055.5496912002563" font-family="sans-serif" font-size="9" text-anchor="middle">0.63</text>
<polyline points="2327.9206327958536,1982.9999999999998 2302.477937178178,1772.9999999999998 2382.7272727272725,1604.8204164505003 2428.0866328152742,1562.9999999999998 2664.5454545454545,1480.2085189819336" fill="none" stroke="#E6795F" stroke-width="1.5" />
<rect x="2371.9272727272723" y="1598.5204164505003" width="21.599999999999998" height="12.6" fill="#FFFFFF" />
<text x="2382.7272727272725" y="1604.8204164505003" font-family="sans-serif" font-size="9" text-anchor="middle">0.63</text>
<polyline points="-2690,857.2525470256805 -2408.1818181818185,865.0973110198975 -2126.3636363636365,747.1770386695862 -2103.120629570701,723 -2041.660498705777,513 -2103.120629570701,303 -2126.3636363636365,278.8229613304138 -2408.1818181818185,160.9026889801026 -2690,168.74745297431951" fill="none" stroke="#E6795F" stroke-width="1.5" />
<rect x="-2052.460498705777" y="506.7" width="21.599999999999998" height="12.6" fill="#FFFFFF" />
<text x="-2041.660498705777" y="513" font-family="sans-serif" font-size="9" text-anchor="middle">0.63</text>
<polyline points="599.8457169532776,723 691.8181818181818,799.7236268520355 973.6363636363637,873.1895606517792 1255.4545454545455,834.7583405971527 1424.079661802812,723 1504.3627270785246,513 1424.079661802812,303 1255.4545454545455,191.24165940284735 973.6363636363637,152.81043934822088 691.8181818181818,226.27637314796453 599.8457169532776,303 530.9206331859936,513 599.8457169532776,723" fill="none" stroke="#E6795F" stroke-width="1.5" />
<rect x="1413.2796618028121" y="296.7" width="21.599999999999998" height="12.6" fill="#FFFFFF" />
<text x="1424.079661802812" y="303" font-family="sans-serif" font-size="9" text-anchor="middle">0.63</text>
<polyline points="-1105.1432167400012,-536.9999999999998 -999.090909090909,-480.7873649597167 -717.2727272727273,-447.1193046569823 -435.45454545454544,-511.4797897338865 -397.20234784212977,-536.9999999999998 -279.55175118012863,-746.9999999999998 -308.08471462943334,-956.9999999999998 -435.45454545454544,-1092.216279029846 -669.6416499397972,-1166.9999999999998 -717.2727272727273,-1175.1943130493162 -801.533481424505,-1166.9999999999998 -999.090909090909,-1133.9983434677122 -1208.9463832161643,-956.9999999999998 -1242.1811832081187,-746.9999999999998 -1105.1432167400012,-536.9999999999998" fill="none" stroke="#E6795F" stroke-width="1.5" />
<rect x="-446.25454545454545" y="-1098.516279029846" width="21.599999999999998" height="12.6" fill="#FFFFFF" />
<text x="-435.45454545454544" y="-1092.216279029846" font-family="sans-serif" font-size="9" text-anchor="middle">0.63</text>
<polyline points="2428.0866328152742,-536.9999999999998 2664.5454545454545,-454.2085189819335" fill="none" stroke="#E6795F" stroke-width="1.5" />
<rect x="2653.7454545454543" y="-460.5085189819335" width="21.599999999999998" height="12.6" fill="#FFFFFF" />
<text x="2664.5454545454545" y="-454.2085189819335" font-family="sans-serif" font-size="9" text-anchor="middle">0.63</text>
<polyline points="2302.477937178178,-746.9999999999998 2382.7272727272725,-578.8204164505003 2428.0866328152742,-536.9999999999998" fill="none" stroke="#E6795F" stroke-width="1.5" />
<rect x="2371.9272727272723" y="-585.1204164505002" width="21.599999999999998" height="12.6" fill="#FFFFFF" />
<text x="2382.7272727272725" y="-578.8204164505003" font-family="sans-serif" font-size="9" text-anchor="middle">0.63</text>
<polyline points="2302.477937178178,-746.9999999999998 2327.9206327958536,-956.9999999999998 2382.7272727272725,-1029.5496912002561 2656.3672724637117,-1166.9999999999998 2664.5454545454545,-1169.0309543609617" fill="none" stroke="#E6795F" stroke-width="1.5" />
<rect x="2371.9272727272723" y="-1035.849691200256" width="21.599999999999998" height="12.6" fill="#FFFFFF" />
<text x="2382.7272727272725" y="-1029.5496912002561" font-family="sans-serif" font-size="9" text-anchor="middle">0.63</text>
<polyline points="-1033.3510390194979,1982.9999999999998 -999.090909090909,2011.8959884643552 -717.2727272727273,2070.823805809021 -489.7141859748147,1982.9999999999998 -435.45454545454544,1851.8636541366575 -422.15260288932103,1772.9999999999998 -435.45454545454544,1750.6433801650999 -717.2727272727273,1581.9464950561521 -999.090909090909,1670.1945762634275 -1076.0814961520107,1772.9999999999998 -1033.3510390194979,1982.9999999999998" fill="none" stroke="#D14442" stroke-width="1.5" />
<rect x="-432.95260288932104" y="1766.6999999999998" width="21.599999999999998" height="12.6" fill="#FFFFFF" />
<text x="-422.15260288932103" y="1772.9999999999998" font-family="sans-serif" font-size="9" text-anchor="middle">0.82</text>
<polyline points="2529.1833582791414,1982.9999999999998 2664.5454545454545,2058.415678024292" fill="none" stroke="#D14442" stroke-width="1.5" />
<rect x="2653.7454545454543" y="2052.115678024292" width="21.599999999999998" height="12.6" fill="#FFFFFF" />
<text x="2664.5454545454545" y="2058.415678024292" font-family="sans-serif" font-size="9" text-anchor="middle">0.82</text>
<polyline points="2529.1833582791414,1982.9999999999998 2469.011138569225,1772.9999999999998 2664.5454545454545,1600.5283956527708" fill="none" stroke="#D14442" stroke-width="1.5" />
<rect x="2458.2111385692247" y="1766.6999999999998" width="21.599999999999998" height="12.6" fill="#FFFFFF" />
<text x="2469.011138569225" y="1772.9999999999998" font-family="sans-serif" font-size="9" text-anchor="middle">0.82</text>
<polyline points="-2690,739.4940941333771 -2408.1818181818185,749.5801978111267 -2347.4683102694426,723 -2202.1141520413485,513 -2347.4683102694426,303 -2408.1818181818185,276.4198021888733 -2690,286.5059058666229" fill="none" stroke="#D14442" stroke-width="1.5" />
<rect x="-2212.9141520413486" y="506.7" width="21.599999999999998" height="12.6" fill="#FFFFFF" />
<text x="-2202.1141520413485" y="513" font-family="sans-serif" font-size="9" text-anchor="middle">0.82</text>
<polyline points="851.6834462772715,723 973.6363636363637,759.984533071518 1189.3745842846959,723 1255.4545454545455,688.7614409923553 1339.9253377047453,513 1255.4545454545455,337.23855900764465 1189.3745842846959,303 973.6363636363637,266.01546692848206 851.6834462772715,303 691.8181818181818,461.3439038693905 672.0943882248619,513 691.8181818181818,564.6560961306095 851.6834462772715,723" fill="none" stroke="#D14442" stroke-width="1.5" />
<rect x="1178.574584284696" y="296.7" width="21.599999999999998" height="12.6" fill="#FFFFFF" />
<text x="1189.3745842846959" y="303" font-family="sans-serif" font-size="9" text-anchor="middle">0.82</text>
<polyline points="-1076.0814961520107,-746.9999999999998 -999.090909090909,-644.1945762634275 -717.2727272727273,-555.9464950561521 -435.45454545454544,-724.6433801650999 -422.15260288932103,-746.9999999999998 -435.45454545454544,-825.8636541366575 -489.7141859748147,-956.9999999999998 -717.2727272727273,-1044.8238058090208 -999.090909090909,-985.8959884643552 -1033.3510390194979,-956.9999999999998 -1076.0814961520107,-746.9999999999998" fill="none" stroke="#D14442" stroke-width="1.5" />
<rect x="-446.25454545454545" y="-832.1636541366574" width="21.599999999999998" height="12.6" fill="#FFFFFF" />
<text x="-435.45454545454544" y="-825.8636541366575" font-family="sans-serif" font-size="9" text-anchor="middle">0.82</text>
<polyline points="2469.011138569225,-746.9999999999998 2664.5454545454545,-574.5283956527708" fill="none" stroke="#D14442" stroke-width="1.5" />
<rect x="2653.7454545454543" y="-580.8283956527707" width="21.599999999999998" height="12.6" fill="#FFFFFF" />
<text x="2664.5454545454545" y="-574.5283956527708" font-family="sans-serif" font-size="9" text-anchor="middle">0.82</text>
<polyline points="2469.011138569225,-746.9999999999998 2529.1833582791414,-956.9999999999998 2664.5454545454545,-1032.4156780242918" fill="none" stroke="#D14442" stroke-width="1.5" />
<rect x="2518.3833582791412" y="-963.2999999999997" width="21.599999999999998" height="12.6" fill="#FFFFFF" />
<text x="2529.1833582791414" y="-956.9999999999998" font-family="sans-serif" font-size="9" text-anchor="middle">0.82</text>
<g class="spine">
<line x1="100" y1="534" x2="720" y2="534" stroke="#262626" stroke-width="0.8" />
</g>
<g class="spine">
<line x1="100" y1="72" x2="720" y2="72" stroke="#262626" stroke-width="0.8" />
</g>
<g class="spine">
<line x1="100" y1="72" x2="100" y2="534" stroke="#262626" stroke-width="0.8" />
</g>
<g class="spine">
<line x1="720" y1="72" x2="720" y2="534" stroke="#262626" stroke-width="0.8" />
</g>
<text x="410" y="64" font-family="DejaVu Sans, sans-serif" font-size="15.88888888888889" text-anchor="middle" font-weight="bold" fill="#262626">Contour with Labels</text>
</svg>
