<svg xmlns="http://www.w3.org/2000/svg" viewBox="0 0 800 600" width="800" height="600" role="img" aria-labelledby="chart-title">
<title id="chart-title">Dashboard</title>
<rect x="0" y="0" width="800" height="600" fill="#1C1C1C" />
<text x="400" y="23.299999999999997" font-family="sans-serif" font-size="17" text-anchor="middle" font-weight="bold" fill="#E0E0E0">Dashboard</text>
<rect x="60" y="40.4" width="340" height="509.6" fill="#2D2D2D" />
<line x1="69.01515151515152" y1="40.4" x2="69.01515151515152" y2="550" stroke="#404040" stroke-width="0.5" />
<line x1="101.21212121212122" y1="40.4" x2="101.21212121212122" y2="550" stroke="#404040" stroke-width="0.5" />
<line x1="133.4090909090909" y1="40.4" x2="133.4090909090909" y2="550" stroke="#404040" stroke-width="0.5" />
<line x1="165.60606060606062" y1="40.4" x2="165.60606060606062" y2="550" stroke="#404040" stroke-width="0.5" />
<line x1="197.8030303030303" y1="40.4" x2="197.8030303030303" y2="550" stroke="#404040" stroke-width="0.5" />
<line x1="230" y1="40.4" x2="230" y2="550" stroke="#404040" stroke-width="0.5" />
<line x1="262.1969696969697" y1="40.4" x2="262.1969696969697" y2="550" stroke="#404040" stroke-width="0.5" />
<line x1="294.3939393939394" y1="40.4" x2="294.3939393939394" y2="550" stroke="#404040" stroke-width="0.5" />
<line x1="326.59090909090907" y1="40.4" x2="326.59090909090907" y2="550" stroke="#404040" stroke-width="0.5" />
<line x1="358.78787878787875" y1="40.4" x2="358.78787878787875" y2="550" stroke="#404040" stroke-width="0.5" />
<line x1="390.98484848484844" y1="40.4" x2="390.98484848484844" y2="550" stroke="#404040" stroke-width="0.5" />
<line x1="60" y1="550" x2="400" y2="550" stroke="#404040" stroke-width="0.5" />
<line x1="60" y1="477.56218905472633" x2="400" y2="477.56218905472633" stroke="#404040" stroke-width="0.5" />
<line x1="60" y1="405.1243781094527" x2="400" y2="405.1243781094527" stroke="#404040" stroke-width="0.5" />
<line x1="60" y1="332.6865671641791" x2="400" y2="332.6865671641791" stroke="#404040" stroke-width="0.5" />
<line x1="60" y1="260.24875621890544" x2="400" y2="260.24875621890544" stroke="#404040" stroke-width="0.5" />
<line x1="60" y1="187.81094527363177" x2="400" y2="187.81094527363177" stroke="#404040" stroke-width="0.5" />
<line x1="60" y1="115.37313432835816" x2="400" y2="115.37313432835816" stroke="#404040" stroke-width="0.5" />
<line x1="60" y1="42.93532338308455" x2="400" y2="42.93532338308455" stroke="#404040" stroke-width="0.5" />
<line x1="101.21212121212122" y1="549.6" x2="101.21212121212122" y2="554.8611111111111" stroke="#E0E0E0" stroke-width="1.1111111111111112" />
<text x="101.21212121212122" y="565" font-family="sans-serif" font-size="13" text-anchor="middle" fill="#E0E0E0">Q1</text>
<line x1="165.60606060606062" y1="549.6" x2="165.60606060606062" y2="554.8611111111111" stroke="#E0E0E0" stroke-width="1.1111111111111112" />
<text x="165.60606060606062" y="565" font-family="sans-serif" font-size="13" text-anchor="middle" fill="#E0E0E0">Q2</text>
<line x1="230" y1="549.6" x2="230" y2="554.8611111111111" stroke="#E0E0E0" stroke-width="1.1111111111111112" />
<text x="230" y="565" font-family="sans-serif" font-size="13" text-anchor="middle" fill="#E0E0E0">Q3</text>
<line x1="294.3939393939394" y1="549.6" x2="294.3939393939394" y2="554.8611111111111" stroke="#E0E0E0" stroke-width="1.1111111111111112" />
<text x="294.3939393939394" y="565" font-family="sans-serif" font-size="13" text-anchor="middle" fill="#E0E0E0">Q4</text>
<line x1="358.78787878787875" y1="549.6" x2="358.78787878787875" y2="554.8611111111111" stroke="#E0E0E0" stroke-width="1.1111111111111112" />
<text x="358.78787878787875" y="565" font-family="sans-serif" font-size="13" text-anchor="middle" fill="#E0E0E0">Q5</text>
<line x1="55.138888888888886" y1="550" x2="60.4" y2="550" stroke="#E0E0E0" stroke-width="1.1111111111111112" />
<text x="50.27777777777777" y="554" font-family="sans-serif" font-size="13" text-anchor="end" fill="#E0E0E0">0</text>
<line x1="55.138888888888886" y1="477.56218905472633" x2="60.4" y2="477.56218905472633" stroke="#E0E0E0" stroke-width="1.1111111111111112" />
<text x="50.27777777777777" y="481.56218905472633" font-family="sans-serif" font-size="13" text-anchor="end" fill="#E0E0E0">10</text>
<line x1="55.138888888888886" y1="405.1243781094527" x2="60.4" y2="405.1243781094527" stroke="#E0E0E0" stroke-width="1.1111111111111112" />
<text x="50.27777777777777" y="409.1243781094527" font-family="sans-serif" font-size="13" text-anchor="end" fill="#E0E0E0">20</text>
<line x1="55.138888888888886" y1="332.6865671641791" x2="60.4" y2="332.6865671641791" stroke="#E0E0E0" stroke-width="1.1111111111111112" />
<text x="50.27777777777777" y="336.6865671641791" font-family="sans-serif" font-size="13" text-anchor="end" fill="#E0E0E0">30</text>
<line x1="55.138888888888886" y1="260.24875621890544" x2="60.4" y2="260.24875621890544" stroke="#E0E0E0" stroke-width="1.1111111111111112" />
<text x="50.27777777777777" y="264.24875621890544" font-family="sans-serif" font-size="13" text-anchor="end" fill="#E0E0E0">40</text>
<line x1="55.138888888888886" y1="187.81094527363177" x2="60.4" y2="187.81094527363177" stroke="#E0E0E0" stroke-width="1.1111111111111112" />
<text x="50.27777777777777" y="191.81094527363177" font-family="sans-serif" font-size="13" text-anchor="end" fill="#E0E0E0">50</text>
<line x1="55.138888888888886" y1="115.37313432835816" x2="60.4" y2="115.37313432835816" stroke="#E0E0E0" stroke-width="1.1111111111111112" />
<text x="50.27777777777777" y="119.37313432835816" font-family="sans-serif" font-size="13" text-anchor="end" fill="#E0E0E0">60</text>
<line x1="55.138888888888886" y1="42.93532338308455" x2="60.4" y2="42.93532338308455" stroke="#E0E0E0" stroke-width="1.1111111111111112" />
<text x="50.27777777777777" y="46.93532338308455" font-family="sans-serif" font-size="13" text-anchor="end" fill="#E0E0E0">70</text>
<line x1="55.138888888888886" y1="535.5124378109452" x2="60.4" y2="535.5124378109452" stroke="#E0E0E0" stroke-width="1.1111111111111112" />
<line x1="55.138888888888886" y1="521.0248756218905" x2="60.4" y2="521.0248756218905" stroke="#E0E0E0" stroke-width="1.1111111111111112" />
<line x1="55.138888888888886" y1="506.53731343283584" x2="60.4" y2="506.53731343283584" stroke="#E0E0E0" stroke-width="1.1111111111111112" />
<line x1="55.138888888888886" y1="492.0497512437811" x2="60.4" y2="492.0497512437811" stroke="#E0E0E0" stroke-width="1.1111111111111112" />
<line x1="55.138888888888886" y1="463.07462686567163" x2="60.4" y2="463.07462686567163" stroke="#E0E0E0" stroke-width="1.1111111111111112" />
<line x1="55.138888888888886" y1="448.58706467661693" x2="60.4" y2="448.58706467661693" stroke="#E0E0E0" stroke-width="1.1111111111111112" />
<line x1="55.138888888888886" y1="434.0995024875622" x2="60.4" y2="434.0995024875622" stroke="#E0E0E0" stroke-width="1.1111111111111112" />
<line x1="55.138888888888886" y1="419.6119402985074" x2="60.4" y2="419.6119402985074" stroke="#E0E0E0" stroke-width="1.1111111111111112" />
<line x1="55.138888888888886" y1="390.636815920398" x2="60.4" y2="390.636815920398" stroke="#E0E0E0" stroke-width="1.1111111111111112" />
<line x1="55.138888888888886" y1="376.14925373134326" x2="60.4" y2="376.14925373134326" stroke="#E0E0E0" stroke-width="1.1111111111111112" />
<line x1="55.138888888888886" y1="361.6616915422885" x2="60.4" y2="361.6616915422885" stroke="#E0E0E0" stroke-width="1.1111111111111112" />
<line x1="55.138888888888886" y1="347.1741293532338" x2="60.4" y2="347.1741293532338" stroke="#E0E0E0" stroke-width="1.1111111111111112" />
<line x1="55.138888888888886" y1="318.19900497512435" x2="60.4" y2="318.19900497512435" stroke="#E0E0E0" stroke-width="1.1111111111111112" />
<line x1="55.138888888888886" y1="303.7114427860696" x2="60.4" y2="303.7114427860696" stroke="#E0E0E0" stroke-width="1.1111111111111112" />
<line x1="55.138888888888886" y1="289.2238805970149" x2="60.4" y2="289.2238805970149" stroke="#E0E0E0" stroke-width="1.1111111111111112" />
<line x1="55.138888888888886" y1="274.7363184079602" x2="60.4" y2="274.7363184079602" stroke="#E0E0E0" stroke-width="1.1111111111111112" />
<line x1="55.138888888888886" y1="245.76119402985069" x2="60.4" y2="245.76119402985069" stroke="#E0E0E0" stroke-width="1.1111111111111112" />
<line x1="55.138888888888886" y1="231.27363184079599" x2="60.4" y2="231.27363184079599" stroke="#E0E0E0" stroke-width="1.1111111111111112" />
<line x1="55.138888888888886" y1="216.7860696517413" x2="60.4" y2="216.7860696517413" stroke="#E0E0E0" stroke-width="1.1111111111111112" />
<line x1="55.138888888888886" y1="202.29850746268653" x2="60.4" y2="202.29850746268653" stroke="#E0E0E0" stroke-width="1.1111111111111112" />
<line x1="55.138888888888886" y1="173.32338308457707" x2="60.4" y2="173.32338308457707" stroke="#E0E0E0" stroke-width="1.1111111111111112" />
<line x1="55.138888888888886" y1="158.83582089552237" x2="60.4" y2="158.83582089552237" stroke="#E0E0E0" stroke-width="1.1111111111111112" />
<line x1="55.138888888888886" y1="144.34825870646762" x2="60.4" y2="144.34825870646762" stroke="#E0E0E0" stroke-width="1.1111111111111112" />
<line x1="55.138888888888886" y1="129.86069651741286" x2="60.4" y2="129.86069651741286" stroke="#E0E0E0" stroke-width="1.1111111111111112" />
<line x1="55.138888888888886" y1="100.88557213930346" x2="60.4" y2="100.88557213930346" stroke="#E0E0E0" stroke-width="1.1111111111111112" />
<line x1="55.138888888888886" y1="86.3980099502487" x2="60.4" y2="86.3980099502487" stroke="#E0E0E0" stroke-width="1.1111111111111112" />
<line x1="55.138888888888886" y1="71.91044776119395" x2="60.4" y2="71.91044776119395" stroke="#E0E0E0" stroke-width="1.1111111111111112" />
<line x1="55.138888888888886" y1="57.42288557213925" x2="60.4" y2="57.42288557213925" stroke="#E0E0E0" stroke-width="1.1111111111111112" />
<g class="series" aria-label="Units sold">
<rect x="75.45454545454545" y="383.39303482587064" width="51.515151515151516" height="166.60696517412936" fill="#FFA500" />
<rect x="139.84848484848487" y="224.0298507462686" width="51.51515151515147" height="325.9701492537314" fill="#FFA500" />
<rect x="204.24242424242425" y="463.07462686567163" width="51.5151515151515" height="86.92537313432837" fill="#FFA500" />
<rect x="268.6363636363636" y="64.66666666666663" width="51.5151515151515" height="485.33333333333337" fill="#FFA500" />
<rect x="333.030303030303" y="303.7114427860696" width="51.51515151515156" height="246.2885572139304" fill="#FFA500" />
</g>
<g class="spine">
<line x1="60" y1="550" x2="400" y2="550" stroke="#E0E0E0" stroke-width="0.8" />
</g>
<g class="spine">
<line x1="60" y1="40.4" x2="400" y2="40.4" stroke="#E0E0E0" stroke-width="0.8" />
</g>
<g class="spine">
<line x1="60" y1="40.4" x2="60" y2="550" stroke="#E0E0E0" stroke-width="0.8" />
</g>
<g class="spine">
<line x1="400" y1="40.4" x2="400" y2="550" stroke="#E0E0E0" stroke-width="0.8" />
</g>
<rect x="276.5" y="50.4" width="113.5" height="25.1" fill="#1C1C1C" fill-opacity="0.8" stroke="#CCCCCC" stroke-width="0.5" />
<g class="legend" aria-label="Chart legend">
<rect x="284.5" y="58.4" width="26" height="9.1" fill="#FFA500" />
<text x="320.9" y="66.5" font-family="sans-serif" font-size="13" text-anchor="start" fill="#E0E0E0">Units sold</text>
</g>
<rect x="440" y="40.4" width="340" height="509.6" fill="#2D2D2D" />
<line x1="443.33333333333337" y1="40.4" x2="443.33333333333337" y2="550" stroke="#404040" stroke-width="0.5" />
<line x1="473.6363636363636" y1="40.4" x2="473.6363636363636" y2="550" stroke="#404040" stroke-width="0.5" />
<line x1="503.939393939394" y1="40.4" x2="503.939393939394" y2="550" stroke="#404040" stroke-width="0.5" />
<line x1="534.2424242424242" y1="40.4" x2="534.2424242424242" y2="550" stroke="#404040" stroke-width="0.5" />
<line x1="564.5454545454545" y1="40.4" x2="564.5454545454545" y2="550" stroke="#404040" stroke-width="0.5" />
<line x1="594.8484848484849" y1="40.4" x2="594.8484848484849" y2="550" stroke="#404040" stroke-width="0.5" />
<line x1="625.1515151515152" y1="40.4" x2="625.1515151515152" y2="550" stroke="#404040" stroke-width="0.5" />
<line x1="655.4545454545455" y1="40.4" x2="655.4545454545455" y2="550" stroke="#404040" stroke-width="0.5" />
<line x1="685.7575757575758" y1="40.4" x2="685.7575757575758" y2="550" stroke="#404040" stroke-width="0.5" />
<line x1="716.0606060606061" y1="40.4" x2="716.0606060606061" y2="550" stroke="#404040" stroke-width="0.5" />
<line x1="746.3636363636364" y1="40.4" x2="746.3636363636364" y2="550" stroke="#404040" stroke-width="0.5" />
<line x1="776.6666666666667" y1="40.4" x2="776.6666666666667" y2="550" stroke="#404040" stroke-width="0.5" />
<line x1="440" y1="526.8363636363637" x2="780" y2="526.8363636363637" stroke="#404040" stroke-width="0.5" />
<line x1="440" y1="449.6242424242424" x2="780" y2="449.6242424242424" stroke="#404040" stroke-width="0.5" />
<line x1="440" y1="372.41212121212124" x2="780" y2="372.41212121212124" stroke="#404040" stroke-width="0.5" />
<line x1="440" y1="295.20000000000005" x2="780" y2="295.20000000000005" stroke="#404040" stroke-width="0.5" />
<line x1="440" y1="217.9878787878788" x2="780" y2="217.9878787878788" stroke="#404040" stroke-width="0.5" />
<line x1="440" y1="140.77575757575755" x2="780" y2="140.77575757575755" stroke="#404040" stroke-width="0.5" />
<line x1="440" y1="63.56363636363636" x2="780" y2="63.56363636363636" stroke="#404040" stroke-width="0.5" />
<line x1="443.33333333333337" y1="549.6" x2="443.33333333333337" y2="554.8611111111111" stroke="#E0E0E0" stroke-width="1.1111111111111112" />
<text x="443.33333333333337" y="572.7222222222222" font-family="sans-serif" font-size="13" text-anchor="middle" fill="#E0E0E0">1</text>
<line x1="473.6363636363636" y1="549.6" x2="473.6363636363636" y2="554.8611111111111" stroke="#E0E0E0" stroke-width="1.1111111111111112" />
<text x="473.6363636363636" y="572.7222222222222" font-family="sans-serif" font-size="13" text-anchor="middle" fill="#E0E0E0">1.5</text>
<line x1="503.939393939394" y1="549.6" x2="503.939393939394" y2="554.8611111111111" stroke="#E0E0E0" stroke-width="1.1111111111111112" />
<text x="503.939393939394" y="572.7222222222222" font-family="sans-serif" font-size="13" text-anchor="middle" fill="#E0E0E0">2</text>
<line x1="534.2424242424242" y1="549.6" x2="534.2424242424242" y2="554.8611111111111" stroke="#E0E0E0" stroke-width="1.1111111111111112" />
<text x="534.2424242424242" y="572.7222222222222" font-family="sans-serif" font-size="13" text-anchor="middle" fill="#E0E0E0">2.5</text>
<line x1="564.5454545454545" y1="549.6" x2="564.5454545454545" y2="554.8611111111111" stroke="#E0E0E0" stroke-width="1.1111111111111112" />
<text x="564.5454545454545" y="572.7222222222222" font-family="sans-serif" font-size="13" text-anchor="middle" fill="#E0E0E0">3</text>
<line x1="594.8484848484849" y1="549.6" x2="594.8484848484849" y2="554.8611111111111" stroke="#E0E0E0" stroke-width="1.1111111111111112" />
<text x="594.8484848484849" y="572.7222222222222" font-family="sans-serif" font-size="13" text-anchor="middle" fill="#E0E0E0">3.5</text>
<line x1="625.1515151515152" y1="549.6" x2="625.1515151515152" y2="554.8611111111111" stroke="#E0E0E0" stroke-width="1.1111111111111112" />
<text x="625.1515151515152" y="572.7222222222222" font-family="sans-serif" font-size="13" text-anchor="middle" fill="#E0E0E0">4</text>
<line x1="655.4545454545455" y1="549.6" x2="655.4545454545455" y2="554.8611111111111" stroke="#E0E0E0" stroke-width="1.1111111111111112" />
<text x="655.4545454545455" y="572.7222222222222" font-family="sans-serif" font-size="13" text-anchor="middle" fill="#E0E0E0">4.5</text>
<line x1="685.7575757575758" y1="549.6" x2="685.7575757575758" y2="554.8611111111111" stroke="#E0E0E0" stroke-width="1.1111111111111112" />
<text x="685.7575757575758" y="572.7222222222222" font-family="sans-serif" font-size="13" text-anchor="middle" fill="#E0E0E0">5</text>
<line x1="716.0606060606061" y1="549.6" x2="716.0606060606061" y2="554.8611111111111" stroke="#E0E0E0" stroke-width="1.1111111111111112" />
<text x="716.0606060606061" y="572.7222222222222" font-family="sans-serif" font-size="13" text-anchor="middle" fill="#E0E0E0">5.5</text>
<line x1="746.3636363636364" y1="549.6" x2="746.3636363636364" y2="554.8611111111111" stroke="#E0E0E0" stroke-width="1.1111111111111112" />
<text x="746.3636363636364" y="572.7222222222222" font-family="sans-serif" font-size="13" text-anchor="middle" fill="#E0E0E0">6</text>
<line x1="776.6666666666667" y1="549.6" x2="776.6666666666667" y2="554.8611111111111" stroke="#E0E0E0" stroke-width="1.1111111111111112" />
<text x="776.6666666666667" y="572.7222222222222" font-family="sans-serif" font-size="13" text-anchor="middle" fill="#E0E0E0">6.5</text>
<line x1="449.39393939393943" y1="549.6" x2="449.39393939393943" y2="554.8611111111111" stroke="#E0E0E0" stroke-width="1.1111111111111112" />
<line x1="455.4545454545455" y1="549.6" x2="455.4545454545455" y2="554.8611111111111" stroke="#E0E0E0" stroke-width="1.1111111111111112" />
<line x1="461.51515151515156" y1="549.6" x2="461.51515151515156" y2="554.8611111111111" stroke="#E0E0E0" stroke-width="1.1111111111111112" />
<line x1="467.5757575757576" y1="549.6" x2="467.5757575757576" y2="554.8611111111111" stroke="#E0E0E0" stroke-width="1.1111111111111112" />
<line x1="479.69696969696975" y1="549.6" x2="479.69696969696975" y2="554.8611111111111" stroke="#E0E0E0" stroke-width="1.1111111111111112" />
<line x1="485.75757575757575" y1="549.6" x2="485.75757575757575" y2="554.8611111111111" stroke="#E0E0E0" stroke-width="1.1111111111111112" />
<line x1="491.81818181818187" y1="549.6" x2="491.81818181818187" y2="554.8611111111111" stroke="#E0E0E0" stroke-width="1.1111111111111112" />
<line x1="497.8787878787879" y1="549.6" x2="497.8787878787879" y2="554.8611111111111" stroke="#E0E0E0" stroke-width="1.1111111111111112" />
<line x1="510" y1="549.6" x2="510" y2="554.8611111111111" stroke="#E0E0E0" stroke-width="1.1111111111111112" />
<line x1="516.0606060606061" y1="549.6" x2="516.0606060606061" y2="554.8611111111111" stroke="#E0E0E0" stroke-width="1.1111111111111112" />
<line x1="522.1212121212121" y1="549.6" x2="522.1212121212121" y2="554.8611111111111" stroke="#E0E0E0" stroke-width="1.1111111111111112" />
<line x1="528.1818181818182" y1="549.6" x2="528.1818181818182" y2="554.8611111111111" stroke="#E0E0E0" stroke-width="1.1111111111111112" />
<line x1="540.3030303030304" y1="549.6" x2="540.3030303030304" y2="554.8611111111111" stroke="#E0E0E0" stroke-width="1.1111111111111112" />
<line x1="546.3636363636364" y1="549.6" x2="546.3636363636364" y2="554.8611111111111" stroke="#E0E0E0" stroke-width="1.1111111111111112" />
<line x1="552.4242424242425" y1="549.6" x2="552.4242424242425" y2="554.8611111111111" stroke="#E0E0E0" stroke-width="1.1111111111111112" />
<line x1="558.4848484848485" y1="549.6" x2="558.4848484848485" y2="554.8611111111111" stroke="#E0E0E0" stroke-width="1.1111111111111112" />
<line x1="570.6060606060606" y1="549.6" x2="570.6060606060606" y2="554.8611111111111" stroke="#E0E0E0" stroke-width="1.1111111111111112" />
<line x1="576.6666666666667" y1="549.6" x2="576.6666666666667" y2="554.8611111111111" stroke="#E0E0E0" stroke-width="1.1111111111111112" />
<line x1="582.7272727272727" y1="549.6" x2="582.7272727272727" y2="554.8611111111111" stroke="#E0E0E0" stroke-width="1.1111111111111112" />
<line x1="588.7878787878788" y1="549.6" x2="588.7878787878788" y2="554.8611111111111" stroke="#E0E0E0" stroke-width="1.1111111111111112" />
<line x1="600.909090909091" y1="549.6" x2="600.909090909091" y2="554.8611111111111" stroke="#E0E0E0" stroke-width="1.1111111111111112" />
<line x1="606.969696969697" y1="549.6" x2="606.969696969697" y2="554.8611111111111" stroke="#E0E0E0" stroke-width="1.1111111111111112" />
<line x1="613.030303030303" y1="549.6" x2="613.030303030303" y2="554.8611111111111" stroke="#E0E0E0" stroke-width="1.1111111111111112" />
<line x1="619.0909090909091" y1="549.6" x2="619.0909090909091" y2="554.8611111111111" stroke="#E0E0E0" stroke-width="1.1111111111111112" />
<line x1="631.2121212121212" y1="549.6" x2="631.2121212121212" y2="554.8611111111111" stroke="#E0E0E0" stroke-width="1.1111111111111112" />
<line x1="637.2727272727273" y1="549.6" x2="637.2727272727273" y2="554.8611111111111" stroke="#E0E0E0" stroke-width="1.1111111111111112" />
<line x1="643.3333333333334" y1="549.6" x2="643.3333333333334" y2="554.8611111111111" stroke="#E0E0E0" stroke-width="1.1111111111111112" />
<line x1="649.3939393939395" y1="549.6" x2="649.3939393939395" y2="554.8611111111111" stroke="#E0E0E0" stroke-width="1.1111111111111112" />
<line x1="661.5151515151515" y1="549.6" x2="661.5151515151515" y2="554.8611111111111" stroke="#E0E0E0" stroke-width="1.1111111111111112" />
<line x1="667.5757575757576" y1="549.6" x2="667.5757575757576" y2="554.8611111111111" stroke="#E0E0E0" stroke-width="1.1111111111111112" />
<line x1="673.6363636363637" y1="549.6" x2="673.6363636363637" y2="554.8611111111111" stroke="#E0E0E0" stroke-width="1.1111111111111112" />
<line x1="679.6969696969697" y1="549.6" x2="679.6969696969697" y2="554.8611111111111" stroke="#E0E0E0" stroke-width="1.1111111111111112" />
<line x1="691.8181818181818" y1="549.6" x2="691.8181818181818" y2="554.8611111111111" stroke="#E0E0E0" stroke-width="1.1111111111111112" />
<line x1="697.878787878788" y1="549.6" x2="697.878787878788" y2="554.8611111111111" stroke="#E0E0E0" stroke-width="1.1111111111111112" />
<line x1="703.939393939394" y1="549.6" x2="703.939393939394" y2="554.8611111111111" stroke="#E0E0E0" stroke-width="1.1111111111111112" />
<line x1="710" y1="549.6" x2="710" y2="554.8611111111111" stroke="#E0E0E0" stroke-width="1.1111111111111112" />
<line x1="722.1212121212121" y1="549.6" x2="722.1212121212121" y2="554.8611111111111" stroke="#E0E0E0" stroke-width="1.1111111111111112" />
<line x1="728.1818181818182" y1="549.6" x2="728.1818181818182" y2="554.8611111111111" stroke="#E0E0E0" stroke-width="1.1111111111111112" />
<line x1="734.2424242424242" y1="549.6" x2="734.2424242424242" y2="554.8611111111111" stroke="#E0E0E0" stroke-width="1.1111111111111112" />
<line x1="740.3030303030304" y1="549.6" x2="740.3030303030304" y2="554.8611111111111" stroke="#E0E0E0" stroke-width="1.1111111111111112" />
<line x1="752.4242424242425" y1="549.6" x2="752.4242424242425" y2="554.8611111111111" stroke="#E0E0E0" stroke-width="1.1111111111111112" />
<line x1="758.4848484848485" y1="549.6" x2="758.4848484848485" y2="554.8611111111111" stroke="#E0E0E0" stroke-width="1.1111111111111112" />
<line x1="764.5454545454545" y1="549.6" x2="764.5454545454545" y2="554.8611111111111" stroke="#E0E0E0" stroke-width="1.1111111111111112" />
<line x1="770.6060606060607" y1="549.6" x2="770.6060606060607" y2="554.8611111111111" stroke="#E0E0E0" stroke-width="1.1111111111111112" />
<line x1="435.1388888888889" y1="526.8363636363637" x2="440.4" y2="526.8363636363637" stroke="#E0E0E0" stroke-width="1.1111111111111112" />
<text x="430.2777777777778" y="530.8363636363637" font-family="sans-serif" font-size="13" text-anchor="end" fill="#E0E0E0">0</text>
<line x1="435.1388888888889" y1="449.6242424242424" x2="440.4" y2="449.6242424242424" stroke="#E0E0E0" stroke-width="1.1111111111111112" />
<text x="430.2777777777778" y="453.6242424242424" font-family="sans-serif" font-size="13" text-anchor="end" fill="#E0E0E0">0.5</text>
<line x1="435.1388888888889" y1="372.41212121212124" x2="440.4" y2="372.41212121212124" stroke="#E0E0E0" stroke-width="1.1111111111111112" />
<text x="430.2777777777778" y="376.41212121212124" font-family="sans-serif" font-size="13" text-anchor="end" fill="#E0E0E0">1</text>
<line x1="435.1388888888889" y1="295.20000000000005" x2="440.4" y2="295.20000000000005" stroke="#E0E0E0" stroke-width="1.1111111111111112" />
<text x="430.2777777777778" y="299.20000000000005" font-family="sans-serif" font-size="13" text-anchor="end" fill="#E0E0E0">1.5</text>
<line x1="435.1388888888889" y1="217.9878787878788" x2="440.4" y2="217.9878787878788" stroke="#E0E0E0" stroke-width="1.1111111111111112" />
<text x="430.2777777777778" y="221.9878787878788" font-family="sans-serif" font-size="13" text-anchor="end" fill="#E0E0E0">2</text>
<line x1="435.1388888888889" y1="140.77575757575755" x2="440.4" y2="140.77575757575755" stroke="#E0E0E0" stroke-width="1.1111111111111112" />
<text x="430.2777777777778" y="144.77575757575755" font-family="sans-serif" font-size="13" text-anchor="end" fill="#E0E0E0">2.5</text>
<line x1="435.1388888888889" y1="63.56363636363636" x2="440.4" y2="63.56363636363636" stroke="#E0E0E0" stroke-width="1.1111111111111112" />
<text x="430.2777777777778" y="67.56363636363636" font-family="sans-serif" font-size="13" text-anchor="end" fill="#E0E0E0">3</text>
<line x1="435.1388888888889" y1="542.278787878788" x2="440.4" y2="542.278787878788" stroke="#E0E0E0" stroke-width="1.1111111111111112" />
<line x1="435.1388888888889" y1="511.39393939393943" x2="440.4" y2="511.39393939393943" stroke="#E0E0E0" stroke-width="1.1111111111111112" />
<line x1="435.1388888888889" y1="495.9515151515152" x2="440.4" y2="495.9515151515152" stroke="#E0E0E0" stroke-width="1.1111111111111112" />
<line x1="435.1388888888889" y1="480.50909090909096" x2="440.4" y2="480.50909090909096" stroke="#E0E0E0" stroke-width="1.1111111111111112" />
<line x1="435.1388888888889" y1="465.0666666666667" x2="440.4" y2="465.0666666666667" stroke="#E0E0E0" stroke-width="1.1111111111111112" />
<line x1="435.1388888888889" y1="434.18181818181824" x2="440.4" y2="434.18181818181824" stroke="#E0E0E0" stroke-width="1.1111111111111112" />
<line x1="435.1388888888889" y1="418.73939393939395" x2="440.4" y2="418.73939393939395" stroke="#E0E0E0" stroke-width="1.1111111111111112" />
<line x1="435.1388888888889" y1="403.2969696969697" x2="440.4" y2="403.2969696969697" stroke="#E0E0E0" stroke-width="1.1111111111111112" />
<line x1="435.1388888888889" y1="387.8545454545455" x2="440.4" y2="387.8545454545455" stroke="#E0E0E0" stroke-width="1.1111111111111112" />
<line x1="435.1388888888889" y1="356.969696969697" x2="440.4" y2="356.969696969697" stroke="#E0E0E0" stroke-width="1.1111111111111112" />
<line x1="435.1388888888889" y1="341.52727272727276" x2="440.4" y2="341.52727272727276" stroke="#E0E0E0" stroke-width="1.1111111111111112" />
<line x1="435.1388888888889" y1="326.0848484848485" x2="440.4" y2="326.0848484848485" stroke="#E0E0E0" stroke-width="1.1111111111111112" />
<line x1="435.1388888888889" y1="310.6424242424243" x2="440.4" y2="310.6424242424243" stroke="#E0E0E0" stroke-width="1.1111111111111112" />
<line x1="435.1388888888889" y1="279.75757575757575" x2="440.4" y2="279.75757575757575" stroke="#E0E0E0" stroke-width="1.1111111111111112" />
<line x1="435.1388888888889" y1="264.3151515151515" x2="440.4" y2="264.3151515151515" stroke="#E0E0E0" stroke-width="1.1111111111111112" />
<line x1="435.1388888888889" y1="248.87272727272727" x2="440.4" y2="248.87272727272727" stroke="#E0E0E0" stroke-width="1.1111111111111112" />
<line x1="435.1388888888889" y1="233.43030303030304" x2="440.4" y2="233.43030303030304" stroke="#E0E0E0" stroke-width="1.1111111111111112" />
<line x1="435.1388888888889" y1="202.54545454545456" x2="440.4" y2="202.54545454545456" stroke="#E0E0E0" stroke-width="1.1111111111111112" />
<line x1="435.1388888888889" y1="187.10303030303027" x2="440.4" y2="187.10303030303027" stroke="#E0E0E0" stroke-width="1.1111111111111112" />
<line x1="435.1388888888889" y1="171.66060606060609" x2="440.4" y2="171.66060606060609" stroke="#E0E0E0" stroke-width="1.1111111111111112" />
<line x1="435.1388888888889" y1="156.21818181818185" x2="440.4" y2="156.21818181818185" stroke="#E0E0E0" stroke-width="1.1111111111111112" />
<line x1="435.1388888888889" y1="125.33333333333331" x2="440.4" y2="125.33333333333331" stroke="#E0E0E0" stroke-width="1.1111111111111112" />
<line x1="435.1388888888889" y1="109.89090909090908" x2="440.4" y2="109.89090909090908" stroke="#E0E0E0" stroke-width="1.1111111111111112" />
<line x1="435.1388888888889" y1="94.4484848484849" x2="440.4" y2="94.4484848484849" stroke="#E0E0E0" stroke-width="1.1111111111111112" />
<line x1="435.1388888888889" y1="79.0060606060606" x2="440.4" y2="79.0060606060606" stroke="#E0E0E0" stroke-width="1.1111111111111112" />
<line x1="435.1388888888889" y1="48.121212121212125" x2="440.4" y2="48.121212121212125" stroke="#E0E0E0" stroke-width="1.1111111111111112" />
<rect x="455.4545454545455" y="372.41212121212124" width="51.5151515151515" height="154.42424242424244" fill="#1F77B4" />
<rect x="506.969696969697" y="217.9878787878788" width="51.5151515151515" height="308.8484848484849" fill="#1F77B4" />
<rect x="558.4848484848485" y="63.56363636363636" width="51.5151515151515" height="463.2727272727273" fill="#1F77B4" />
<rect x="610" y="372.41212121212124" width="51.5151515151515" height="154.42424242424244" fill="#1F77B4" />
<rect x="661.5151515151515" y="217.9878787878788" width="51.5151515151515" height="308.8484848484849" fill="#1F77B4" />
<rect x="713.030303030303" y="63.56363636363636" width="51.5151515151515" height="463.2727272727273" fill="#1F77B4" />
<g class="spine">
<line x1="440" y1="550" x2="780" y2="550" stroke="#E0E0E0" stroke-width="0.8" />
</g>
<g class="spine">
<line x1="440" y1="40.4" x2="780" y2="40.4" stroke="#E0E0E0" stroke-width="0.8" />
</g>
<g class="spine">
<line x1="440" y1="40.4" x2="440" y2="550" stroke="#E0E0E0" stroke-width="0.8" />
</g>
<g class="spine">
<line x1="780" y1="40.4" x2="780" y2="550" stroke="#E0E0E0" stroke-width="0.8" />
</g>
</svg>
