<svg xmlns="http://www.w3.org/2000/svg" viewBox="0 0 800 600" width="800" height="600" style="width:100%;height:auto" role="img" aria-labelledby="chart-title">
<title id="chart-title">Dashboard</title>
<rect x="0" y="0" width="800" height="600" fill="#1C1C1C" />
<path d="M1.36133 0L1.36133 -11.9033L5.57813 -11.9033Q11.9199 -11.9033 11.9199 -6.10107Q11.9199 -3.32031 10.1892 -1.66016Q8.4585 0 5.57813 0L1.36133 0ZM4.04248 -9.72021L4.04248 -2.1748L5.37061 -2.1748Q7.11377 -2.1748 8.10571 -3.2207Q9.09766 -4.2666 9.09766 -6.06787Q9.09766 -7.76953 8.11401 -8.74487Q7.13037 -9.72021 5.354 -9.72021L4.04248 -9.72021ZM20.7104 0L18.2285 0L18.2285 -1.22021L18.1953 -1.22021Q17.3403 0.20752 15.6636 0.20752Q14.4268 0.20752 13.717 -0.493896Q13.0073 -1.19531 13.0073 -2.36572Q13.0073 -4.83936 15.9375 -5.22119L18.2451 -5.52832Q18.2451 -6.92285 16.7344 -6.92285Q15.2153 -6.92285 13.8457 -6.01807L13.8457 -7.99365Q14.3936 -8.27588 15.344 -8.4917Q16.2944 -8.70752 17.0747 -8.70752Q20.7104 -8.70752 20.7104 -5.08008L20.7104 0ZM18.2451 -3.45313L18.2451 -4.02588L16.7012 -3.82666Q15.4229 -3.66064 15.4229 -2.67285Q15.4229 -2.22461 15.7341 -1.93823Q16.0454 -1.65186 16.5767 -1.65186Q17.3154 -1.65186 17.7803 -2.16235Q18.2451 -2.67285 18.2451 -3.45313ZM22.2295 -0.224121L22.2295 -2.34912Q22.877 -1.95898 23.5203 -1.76807Q24.1636 -1.57715 24.7363 -1.57715Q25.4336 -1.57715 25.8362 -1.76807Q26.2388 -1.95898 26.2388 -2.34912Q26.2388 -2.59814 26.0562 -2.76416Q25.8735 -2.93018 25.5872 -3.05469Q25.3008 -3.1792 24.9604 -3.27881Q24.6201 -3.37842 24.3047 -3.50293Q23.7983 -3.69385 23.4124 -3.91382Q23.0264 -4.13379 22.7649 -4.42432Q22.5034 -4.71484 22.3665 -5.09668Q22.2295 -5.47852 22.2295 -6.00146Q22.2295 -6.71533 22.5408 -7.22998Q22.8521 -7.74463 23.3708 -8.07251Q23.8896 -8.40039 24.5579 -8.55396Q25.2261 -8.70752 25.9482 -8.70752Q26.5127 -8.70752 27.0938 -8.62036Q27.6748 -8.5332 28.2393 -8.36719L28.2393 -6.3418Q27.7412 -6.63232 27.1726 -6.77759Q26.604 -6.92285 26.0562 -6.92285Q25.7988 -6.92285 25.5706 -6.8772Q25.3423 -6.83154 25.168 -6.74438Q24.9937 -6.65723 24.894 -6.52026Q24.7944 -6.3833 24.7944 -6.20898Q24.7944 -5.97656 24.9438 -5.81055Q25.0933 -5.64453 25.334 -5.52417Q25.5747 -5.40381 25.8694 -5.30835Q26.1641 -5.21289 26.4546 -5.11328Q26.9775 -4.93066 27.4009 -4.71484Q27.8242 -4.49902 28.1272 -4.2085Q28.4302 -3.91797 28.592 -3.52783Q28.7539 -3.1377 28.7539 -2.59814Q28.7539 -1.84277 28.426 -1.30737Q28.0981 -0.771973 27.5544 -0.435791Q27.0107 -0.0996094 26.301 0.0539551Q25.5913 0.20752 24.8276 0.20752Q23.4248 0.20752 22.2295 -0.224121ZM38.4243 0L35.8096 0L35.8096 -4.83105Q35.8096 -6.69873 34.4482 -6.69873Q33.751 -6.69873 33.3193 -6.17578Q32.8877 -5.65283 32.8877 -4.84766L32.8877 0L30.2646 0L30.2646 -12.584L32.8877 -12.584L32.8877 -7.23828L32.9209 -7.23828Q33.8838 -8.70752 35.5356 -8.70752Q38.4243 -8.70752 38.4243 -5.22119L38.4243 0ZM43.1558 -0.987793L43.1226 -0.987793L43.1226 0L40.4995 0L40.4995 -12.584L43.1226 -12.584L43.1226 -7.22168L43.1558 -7.22168Q44.127 -8.70752 45.9199 -8.70752Q47.5635 -8.70752 48.4517 -7.57861Q49.3398 -6.44971 49.3398 -4.49072Q49.3398 -2.36572 48.3022 -1.0791Q47.2646 0.20752 45.5298 0.20752Q43.9609 0.20752 43.1558 -0.987793ZM43.0811 -4.57373L43.0811 -3.70215Q43.0811 -2.88037 43.5542 -2.34082Q44.0273 -1.80127 44.7661 -1.80127Q45.6626 -1.80127 46.1565 -2.49438Q46.6504 -3.1875 46.6504 -4.45752Q46.6504 -5.51172 46.198 -6.10522Q45.7456 -6.69873 44.9072 -6.69873Q44.1187 -6.69873 43.5999 -6.10938Q43.0811 -5.52002 43.0811 -4.57373ZM55.0923 0.20752Q52.9673 0.20752 51.7512 -0.983643Q50.5352 -2.1748 50.5352 -4.2168Q50.5352 -6.3252 51.7969 -7.51636Q53.0586 -8.70752 55.2085 -8.70752Q57.3252 -8.70752 58.5288 -7.51636Q59.7324 -6.3252 59.7324 -4.36621Q59.7324 -2.24951 58.4915 -1.021Q57.2505 0.20752 55.0923 0.20752ZM55.1587 -6.69873Q54.229 -6.69873 53.7144 -6.05957Q53.1997 -5.42041 53.1997 -4.25Q53.1997 -1.80127 55.1753 -1.80127Q57.0596 -1.80127 57.0596 -4.31641Q57.0596 -6.69873 55.1587 -6.69873ZM68.5063 0L66.0244 0L66.0244 -1.22021L65.9912 -1.22021Q65.1362 0.20752 63.4595 0.20752Q62.2227 0.20752 61.5129 -0.493896Q60.8032 -1.19531 60.8032 -2.36572Q60.8032 -4.83936 63.7334 -5.22119L66.041 -5.52832Q66.041 -6.92285 64.5303 -6.92285Q63.0112 -6.92285 61.6416 -6.01807L61.6416 -7.99365Q62.1895 -8.27588 63.1399 -8.4917Q64.0903 -8.70752 64.8706 -8.70752Q68.5063 -8.70752 68.5063 -5.08008L68.5063 0ZM66.041 -3.45313L66.041 -4.02588L64.4971 -3.82666Q63.2188 -3.66064 63.2188 -2.67285Q63.2188 -2.22461 63.53 -1.93823Q63.8413 -1.65186 64.3726 -1.65186Q65.1113 -1.65186 65.5762 -2.16235Q66.041 -2.67285 66.041 -3.45313ZM76.1265 -6.13428Q75.6533 -6.3916 75.0225 -6.3916Q74.1675 -6.3916 73.686 -5.76489Q73.2046 -5.13818 73.2046 -4.05908L73.2046 0L70.5815 0L70.5815 -8.5L73.2046 -8.5L73.2046 -6.92285L73.2378 -6.92285Q73.8604 -8.64941 75.479 -8.64941Q75.894 -8.64941 76.1265 -8.5498L76.1265 -6.13428ZM85.6641 0L83.041 0L83.041 -1.17041L83.0078 -1.17041Q82.1113 0.20752 80.3765 0.20752Q78.7827 0.20752 77.8115 -0.917236Q76.8403 -2.04199 76.8403 -4.05908Q76.8403 -6.16748 77.9111 -7.4375Q78.9819 -8.70752 80.7168 -8.70752Q82.3604 -8.70752 83.0078 -7.52881L83.041 -7.52881L83.041 -12.584L85.6641 -12.584L85.6641 0ZM83.0908 -4.13379L83.0908 -4.77295Q83.0908 -5.60303 82.6094 -6.15088Q82.1279 -6.69873 81.356 -6.69873Q80.4844 -6.69873 79.9946 -6.01392Q79.5049 -5.3291 79.5049 -4.13379Q79.5049 -3.01318 79.978 -2.40723Q80.4512 -1.80127 81.2896 -1.80127Q82.0864 -1.80127 82.5886 -2.44043Q83.0908 -3.07959 83.0908 -4.13379Z" fill="#E0E0E0" transform="translate(400,23.299999999999997) translate(-43.384033203125,0)" />
<rect x="60" y="40.4" width="340" height="509.6" fill="#2D2D2D" />
<line x1="88.33333333333334" y1="40.4" x2="88.33333333333334" y2="550" stroke="#404040" stroke-width="0.5" />
<line x1="123.75" y1="40.4" x2="123.75" y2="550" stroke="#404040" stroke-width="0.5" />
<line x1="159.16666666666669" y1="40.4" x2="159.16666666666669" y2="550" stroke="#404040" stroke-width="0.5" />
<line x1="194.58333333333331" y1="40.4" x2="194.58333333333331" y2="550" stroke="#404040" stroke-width="0.5" />
<line x1="230" y1="40.4" x2="230" y2="550" stroke="#404040" stroke-width="0.5" />
<line x1="265.4166666666667" y1="40.4" x2="265.4166666666667" y2="550" stroke="#404040" stroke-width="0.5" />
<line x1="300.8333333333333" y1="40.4" x2="300.8333333333333" y2="550" stroke="#404040" stroke-width="0.5" />
<line x1="336.25" y1="40.4" x2="336.25" y2="550" stroke="#404040" stroke-width="0.5" />
<line x1="371.6666666666667" y1="40.4" x2="371.6666666666667" y2="550" stroke="#404040" stroke-width="0.5" />
<line x1="60" y1="550" x2="400" y2="550" stroke="#404040" stroke-width="0.5" />
<line x1="60" y1="477.56218905472633" x2="400" y2="477.56218905472633" stroke="#404040" stroke-width="0.5" />
<line x1="60" y1="405.1243781094527" x2="400" y2="405.1243781094527" stroke="#404040" stroke-width="0.5" />
<line x1="60" y1="332.6865671641791" x2="400" y2="332.6865671641791" stroke="#404040" stroke-width="0.5" />
<line x1="60" y1="260.24875621890544" x2="400" y2="260.24875621890544" stroke="#404040" stroke-width="0.5" />
<line x1="60" y1="187.81094527363177" x2="400" y2="187.81094527363177" stroke="#404040" stroke-width="0.5" />
<line x1="60" y1="115.37313432835816" x2="400" y2="115.37313432835816" stroke="#404040" stroke-width="0.5" />
<line x1="60" y1="42.93532338308455" x2="400" y2="42.93532338308455" stroke="#404040" stroke-width="0.5" />
<line x1="88.33333333333334" y1="549.6" x2="88.33333333333334" y2="554.8611111111111" stroke="#E0E0E0" stroke-width="1.1111111111111112" />
<path d="M4.8623 0.152344Q2.93262 0.152344 1.7583 -1.12354Q0.59668 -2.39941 0.59668 -4.44336Q0.59668 -6.646 1.78369 -7.94727Q2.97705 -9.25488 5.01465 -9.25488Q6.89355 -9.25488 8.04883 -7.98535Q9.2041 -6.71582 9.2041 -4.66553Q9.2041 -2.4375 8.02344 -1.14258Q7.74414 -0.831543 7.42676 -0.609375L9.98486 1.2251L8.04883 1.2251L6.33496 -0.0571289Q5.66211 0.152344 4.8623 0.152344ZM4.93848 -8.29004Q3.50391 -8.29004 2.60889 -7.25537Q1.71387 -6.2207 1.71387 -4.53857Q1.71387 -2.86279 2.5835 -1.82813Q3.45947 -0.806152 4.8623 -0.806152Q6.36035 -0.806152 7.22363 -1.78369Q8.08691 -2.76123 8.08691 -4.51953Q8.08691 -6.32861 7.24902 -7.30615Q6.41113 -8.29004 4.93848 -8.29004ZM14.3965 0L13.3555 0L13.3555 -7.86475Q13.2349 -7.74414 13.0032 -7.58862Q12.7715 -7.43311 12.4827 -7.28076Q12.1938 -7.12842 11.8733 -6.99512Q11.5527 -6.86182 11.248 -6.78564L11.248 -7.83936Q11.5908 -7.93457 11.9749 -8.09644Q12.3589 -8.2583 12.7302 -8.45825Q13.1016 -8.6582 13.4316 -8.8772Q13.7617 -9.09619 14.0029 -9.30566L14.3965 -9.30566L14.3965 0Z" fill="#E0E0E0" transform="translate(88.33333333333334,565) translate(-8.404296875,0)" />
<line x1="159.16666666666669" y1="549.6" x2="159.16666666666669" y2="554.8611111111111" stroke="#E0E0E0" stroke-width="1.1111111111111112" />
<path d="M4.8623 0.152344Q2.93262 0.152344 1.7583 -1.12354Q0.59668 -2.39941 0.59668 -4.44336Q0.59668 -6.646 1.78369 -7.94727Q2.97705 -9.25488 5.01465 -9.25488Q6.89355 -9.25488 8.04883 -7.98535Q9.2041 -6.71582 9.2041 -4.66553Q9.2041 -2.4375 8.02344 -1.14258Q7.74414 -0.831543 7.42676 -0.609375L9.98486 1.2251L8.04883 1.2251L6.33496 -0.0571289Q5.66211 0.152344 4.8623 0.152344ZM4.93848 -8.29004Q3.50391 -8.29004 2.60889 -7.25537Q1.71387 -6.2207 1.71387 -4.53857Q1.71387 -2.86279 2.5835 -1.82813Q3.45947 -0.806152 4.8623 -0.806152Q6.36035 -0.806152 7.22363 -1.78369Q8.08691 -2.76123 8.08691 -4.51953Q8.08691 -6.32861 7.24902 -7.30615Q6.41113 -8.29004 4.93848 -8.29004ZM14.7012 -6.71582Q14.7012 -7.13477 14.571 -7.4458Q14.4409 -7.75684 14.2156 -7.96313Q13.9902 -8.16943 13.6855 -8.271Q13.3809 -8.37256 13.0254 -8.37256Q12.7207 -8.37256 12.4287 -8.29004Q12.1367 -8.20752 11.8606 -8.06152Q11.5845 -7.91553 11.3274 -7.7124Q11.0703 -7.50928 10.8481 -7.26172L10.8481 -8.37891Q11.2861 -8.8042 11.8289 -9.02954Q12.3716 -9.25488 13.1523 -9.25488Q13.7109 -9.25488 14.187 -9.09302Q14.6631 -8.93115 15.0122 -8.62012Q15.3613 -8.30908 15.5613 -7.85205Q15.7612 -7.39502 15.7612 -6.80469Q15.7612 -6.26514 15.6375 -5.82715Q15.5137 -5.38916 15.2629 -5.00195Q15.0122 -4.61475 14.6313 -4.25928Q14.2505 -3.90381 13.7363 -3.53564Q13.0952 -3.07861 12.6794 -2.75488Q12.2637 -2.43115 12.0193 -2.14868Q11.7749 -1.86621 11.6765 -1.58374Q11.5781 -1.30127 11.5781 -0.933105L16.1104 -0.933105L16.1104 0L10.4927 0L10.4927 -0.450684Q10.4927 -1.03467 10.6196 -1.479Q10.7466 -1.92334 11.0386 -2.32324Q11.3306 -2.72314 11.8035 -3.12305Q12.2764 -3.52295 12.9619 -4.02441Q13.457 -4.37988 13.7903 -4.70361Q14.1235 -5.02734 14.3267 -5.35107Q14.5298 -5.6748 14.6155 -6.00806Q14.7012 -6.34131 14.7012 -6.71582Z" fill="#E0E0E0" transform="translate(159.16666666666669,565) translate(-8.404296875,0)" />
<line x1="230" y1="549.6" x2="230" y2="554.8611111111111" stroke="#E0E0E0" stroke-width="1.1111111111111112" />
<path d="M4.8623 0.152344Q2.93262 0.152344 1.7583 -1.12354Q0.59668 -2.39941 0.59668 -4.44336Q0.59668 -6.646 1.78369 -7.94727Q2.97705 -9.25488 5.01465 -9.25488Q6.89355 -9.25488 8.04883 -7.98535Q9.2041 -6.71582 9.2041 -4.66553Q9.2041 -2.4375 8.02344 -1.14258Q7.74414 -0.831543 7.42676 -0.609375L9.98486 1.2251L8.04883 1.2251L6.33496 -0.0571289Q5.66211 0.152344 4.8623 0.152344ZM4.93848 -8.29004Q3.50391 -8.29004 2.60889 -7.25537Q1.71387 -6.2207 1.71387 -4.53857Q1.71387 -2.86279 2.5835 -1.82813Q3.45947 -0.806152 4.8623 -0.806152Q6.36035 -0.806152 7.22363 -1.78369Q8.08691 -2.76123 8.08691 -4.51953Q8.08691 -6.32861 7.24902 -7.30615Q6.41113 -8.29004 4.93848 -8.29004ZM15.8501 -2.57715Q15.8501 -1.96143 15.6184 -1.45679Q15.3867 -0.952148 14.9646 -0.593506Q14.5425 -0.234863 13.9521 -0.0380859Q13.3618 0.158691 12.6509 0.158691Q11.3496 0.158691 10.5815 -0.336426L10.5815 -1.45361Q11.502 -0.72998 12.689 -0.72998Q13.165 -0.72998 13.5491 -0.850586Q13.9331 -0.971191 14.2092 -1.19971Q14.4854 -1.42822 14.6345 -1.75195Q14.7837 -2.07568 14.7837 -2.48193Q14.7837 -4.26563 12.2446 -4.26563L11.4893 -4.26563L11.4893 -5.14795L12.2065 -5.14795Q14.4536 -5.14795 14.4536 -6.82373Q14.4536 -8.37256 12.7397 -8.37256Q11.7749 -8.37256 10.9307 -7.7251L10.9307 -8.73438Q11.8003 -9.25488 13 -9.25488Q13.5713 -9.25488 14.0347 -9.09619Q14.498 -8.9375 14.8281 -8.65186Q15.1582 -8.36621 15.3391 -7.96631Q15.52 -7.56641 15.52 -7.08398Q15.52 -5.2876 13.7046 -4.77344L13.7046 -4.74805Q14.168 -4.69727 14.5615 -4.52271Q14.9551 -4.34814 15.2407 -4.06885Q15.5264 -3.78955 15.6882 -3.41187Q15.8501 -3.03418 15.8501 -2.57715Z" fill="#E0E0E0" transform="translate(230,565) translate(-8.404296875,0)" />
<line x1="300.8333333333333" y1="549.6" x2="300.8333333333333" y2="554.8611111111111" stroke="#E0E0E0" stroke-width="1.1111111111111112" />
<path d="M4.8623 0.152344Q2.93262 0.152344 1.7583 -1.12354Q0.59668 -2.39941 0.59668 -4.44336Q0.59668 -6.646 1.78369 -7.94727Q2.97705 -9.25488 5.01465 -9.25488Q6.89355 -9.25488 8.04883 -7.98535Q9.2041 -6.71582 9.2041 -4.66553Q9.2041 -2.4375 8.02344 -1.14258Q7.74414 -0.831543 7.42676 -0.609375L9.98486 1.2251L8.04883 1.2251L6.33496 -0.0571289Q5.66211 0.152344 4.8623 0.152344ZM4.93848 -8.29004Q3.50391 -8.29004 2.60889 -7.25537Q1.71387 -6.2207 1.71387 -4.53857Q1.71387 -2.86279 2.5835 -1.82813Q3.45947 -0.806152 4.8623 -0.806152Q6.36035 -0.806152 7.22363 -1.78369Q8.08691 -2.76123 8.08691 -4.51953Q8.08691 -6.32861 7.24902 -7.30615Q6.41113 -8.29004 4.93848 -8.29004ZM15.1963 -9.10254L15.1963 -3.09131L16.3643 -3.09131L16.3643 -2.13916L15.1963 -2.13916L15.1963 0L14.168 0L14.168 -2.13916L9.88965 -2.13916L9.88965 -3.04053Q10.4863 -3.71338 11.0957 -4.47827Q11.7051 -5.24316 12.2605 -6.03027Q12.8159 -6.81738 13.2888 -7.60132Q13.7617 -8.38525 14.0854 -9.10254L15.1963 -9.10254ZM11.064 -3.09131L14.168 -3.09131L14.168 -7.54736Q13.6919 -6.71582 13.2666 -6.06201Q12.8413 -5.4082 12.4573 -4.875Q12.0732 -4.3418 11.7241 -3.91016Q11.375 -3.47852 11.064 -3.09131Z" fill="#E0E0E0" transform="translate(300.8333333333333,565) translate(-8.404296875,0)" />
<line x1="371.6666666666667" y1="549.6" x2="371.6666666666667" y2="554.8611111111111" stroke="#E0E0E0" stroke-width="1.1111111111111112" />
<path d="M4.8623 0.152344Q2.93262 0.152344 1.7583 -1.12354Q0.59668 -2.39941 0.59668 -4.44336Q0.59668 -6.646 1.78369 -7.94727Q2.97705 -9.25488 5.01465 -9.25488Q6.89355 -9.25488 8.04883 -7.98535Q9.2041 -6.71582 9.2041 -4.66553Q9.2041 -2.4375 8.02344 -1.14258Q7.74414 -0.831543 7.42676 -0.609375L9.98486 1.2251L8.04883 1.2251L6.33496 -0.0571289Q5.66211 0.152344 4.8623 0.152344ZM4.93848 -8.29004Q3.50391 -8.29004 2.60889 -7.25537Q1.71387 -6.2207 1.71387 -4.53857Q1.71387 -2.86279 2.5835 -1.82813Q3.45947 -0.806152 4.8623 -0.806152Q6.36035 -0.806152 7.22363 -1.78369Q8.08691 -2.76123 8.08691 -4.51953Q8.08691 -6.32861 7.24902 -7.30615Q6.41113 -8.29004 4.93848 -8.29004ZM15.9517 -2.78027Q15.9517 -2.11377 15.7231 -1.57422Q15.4946 -1.03467 15.0725 -0.647461Q14.6504 -0.260254 14.0537 -0.0507813Q13.457 0.158691 12.7271 0.158691Q11.4575 0.158691 10.8418 -0.222168L10.8418 -1.32666Q11.7686 -0.729981 12.7397 -0.72998Q13.2349 -0.72998 13.6316 -0.875977Q14.0283 -1.02197 14.3076 -1.28223Q14.5869 -1.54248 14.7361 -1.91064Q14.8853 -2.27881 14.8853 -2.7168Q14.8853 -3.60547 14.2886 -4.11011Q13.6919 -4.61475 12.5557 -4.61475Q12.3716 -4.61475 12.1685 -4.6084Q11.9653 -4.60205 11.7622 -4.59253Q11.5591 -4.58301 11.3655 -4.57031Q11.1719 -4.55762 11.0132 -4.53857L11.3242 -9.10254L15.5327 -9.10254L15.5327 -8.16309L12.2256 -8.16309L12.0415 -5.49072Q12.2446 -5.50342 12.4731 -5.51294Q12.7017 -5.52246 12.8794 -5.52246Q13.603 -5.52246 14.1743 -5.33203Q14.7456 -5.1416 15.1423 -4.78931Q15.5391 -4.43701 15.7454 -3.92603Q15.9517 -3.41504 15.9517 -2.78027Z" fill="#E0E0E0" transform="translate(371.6666666666667,565) translate(-8.404296875,0)" />
<line x1="55.138888888888886" y1="550" x2="60.4" y2="550" stroke="#E0E0E0" stroke-width="1.1111111111111112" />
<path d="M6.47461 -4.58936Q6.47461 -3.44678 6.26831 -2.56445Q6.06201 -1.68213 5.67163 -1.07593Q5.28125 -0.469727 4.71313 -0.155518Q4.14502 0.158691 3.42139 0.158691Q2.73584 0.158691 2.19946 -0.142822Q1.66309 -0.444336 1.29492 -1.02197Q0.926758 -1.59961 0.736328 -2.44067Q0.545898 -3.28174 0.545898 -4.36719Q0.545898 -5.56055 0.74585 -6.47461Q0.945801 -7.38867 1.33301 -8.00757Q1.72021 -8.62646 2.29468 -8.94067Q2.86914 -9.25488 3.61182 -9.25488Q6.47461 -9.25488 6.47461 -4.58936ZM5.4082 -4.48779Q5.4082 -8.37256 3.56104 -8.37256Q1.6123 -8.37256 1.6123 -4.41797Q1.6123 -0.72998 3.52295 -0.72998Q5.4082 -0.72998 5.4082 -4.48779Z" fill="#E0E0E0" transform="translate(50.27777777777777,554) translate(-7.0078125,0)" />
<line x1="55.138888888888886" y1="477.56218905472633" x2="60.4" y2="477.56218905472633" stroke="#E0E0E0" stroke-width="1.1111111111111112" />
<path d="M4.5957 0L3.55469 0L3.55469 -7.86475Q3.43408 -7.74414 3.20239 -7.58862Q2.9707 -7.43311 2.68188 -7.28076Q2.39307 -7.12842 2.07251 -6.99512Q1.75195 -6.86182 1.44727 -6.78564L1.44727 -7.83936Q1.79004 -7.93457 2.17407 -8.09644Q2.55811 -8.2583 2.92944 -8.45825Q3.30078 -8.6582 3.63086 -8.8772Q3.96094 -9.09619 4.20215 -9.30566L4.5957 -9.30566L4.5957 0ZM13.4824 -4.58936Q13.4824 -3.44678 13.2761 -2.56445Q13.0698 -1.68213 12.6794 -1.07593Q12.2891 -0.469727 11.7209 -0.155518Q11.1528 0.158691 10.4292 0.158691Q9.74365 0.158691 9.20728 -0.142822Q8.6709 -0.444336 8.30273 -1.02197Q7.93457 -1.59961 7.74414 -2.44067Q7.55371 -3.28174 7.55371 -4.36719Q7.55371 -5.56055 7.75366 -6.47461Q7.95361 -7.38867 8.34082 -8.00757Q8.72803 -8.62646 9.30249 -8.94067Q9.87695 -9.25488 10.6196 -9.25488Q13.4824 -9.25488 13.4824 -4.58936ZM12.416 -4.48779Q12.416 -8.37256 10.5688 -8.37256Q8.62012 -8.37256 8.62012 -4.41797Q8.62012 -0.72998 10.5308 -0.72998Q12.416 -0.72998 12.416 -4.48779Z" fill="#E0E0E0" transform="translate(50.27777777777777,481.56218905472633) translate(-14.015625,0)" />
<line x1="55.138888888888886" y1="405.1243781094527" x2="60.4" y2="405.1243781094527" stroke="#E0E0E0" stroke-width="1.1111111111111112" />
<path d="M4.90039 -6.71582Q4.90039 -7.13477 4.77026 -7.4458Q4.64014 -7.75684 4.41479 -7.96313Q4.18945 -8.16943 3.88477 -8.271Q3.58008 -8.37256 3.22461 -8.37256Q2.91992 -8.37256 2.62793 -8.29004Q2.33594 -8.20752 2.05981 -8.06152Q1.78369 -7.91553 1.52661 -7.7124Q1.26953 -7.50928 1.04736 -7.26172L1.04736 -8.37891Q1.48535 -8.8042 2.02808 -9.02954Q2.5708 -9.25488 3.35156 -9.25488Q3.91016 -9.25488 4.38623 -9.09302Q4.8623 -8.93115 5.21143 -8.62012Q5.56055 -8.30908 5.7605 -7.85205Q5.96045 -7.39502 5.96045 -6.80469Q5.96045 -6.26514 5.83667 -5.82715Q5.71289 -5.38916 5.46216 -5.00195Q5.21143 -4.61475 4.83057 -4.25928Q4.44971 -3.90381 3.93555 -3.53564Q3.29443 -3.07861 2.87866 -2.75488Q2.46289 -2.43115 2.21851 -2.14868Q1.97412 -1.86621 1.87573 -1.58374Q1.77734 -1.30127 1.77734 -0.933105L6.30957 -0.933105L6.30957 0L0.691895 0L0.691895 -0.450684Q0.691895 -1.03467 0.818848 -1.479Q0.945801 -1.92334 1.23779 -2.32324Q1.52979 -2.72314 2.00269 -3.12305Q2.47559 -3.52295 3.16113 -4.02441Q3.65625 -4.37988 3.9895 -4.70361Q4.32275 -5.02734 4.52588 -5.35107Q4.729 -5.6748 4.8147 -6.00806Q4.90039 -6.34131 4.90039 -6.71582ZM13.4824 -4.58936Q13.4824 -3.44678 13.2761 -2.56445Q13.0698 -1.68213 12.6794 -1.07593Q12.2891 -0.469727 11.7209 -0.155518Q11.1528 0.158691 10.4292 0.158691Q9.74365 0.158691 9.20728 -0.142822Q8.6709 -0.444336 8.30273 -1.02197Q7.93457 -1.59961 7.74414 -2.44067Q7.55371 -3.28174 7.55371 -4.36719Q7.55371 -5.56055 7.75366 -6.47461Q7.95361 -7.38867 8.34082 -8.00757Q8.72803 -8.62646 9.30249 -8.94067Q9.87695 -9.25488 10.6196 -9.25488Q13.4824 -9.25488 13.4824 -4.58936ZM12.416 -4.48779Q12.416 -8.37256 10.5688 -8.37256Q8.62012 -8.37256 8.62012 -4.41797Q8.62012 -0.72998 10.5308 -0.72998Q12.416 -0.72998 12.416 -4.48779Z" fill="#E0E0E0" transform="translate(50.27777777777777,409.1243781094527) translate(-14.015625,0)" />
<line x1="55.138888888888886" y1="332.6865671641791" x2="60.4" y2="332.6865671641791" stroke="#E0E0E0" stroke-width="1.1111111111111112" />
<path d="M6.04932 -2.57715Q6.04932 -1.96143 5.81763 -1.45679Q5.58594 -0.952148 5.16382 -0.593506Q4.7417 -0.234863 4.15137 -0.0380859Q3.56104 0.158691 2.8501 0.158691Q1.54883 0.158691 0.780762 -0.336426L0.780762 -1.45361Q1.70117 -0.72998 2.88818 -0.72998Q3.36426 -0.72998 3.74829 -0.850586Q4.13232 -0.971191 4.40845 -1.19971Q4.68457 -1.42822 4.83374 -1.75195Q4.98291 -2.07568 4.98291 -2.48193Q4.98291 -4.26563 2.44385 -4.26563L1.68848 -4.26563L1.68848 -5.14795L2.40576 -5.14795Q4.65283 -5.14795 4.65283 -6.82373Q4.65283 -8.37256 2.93896 -8.37256Q1.97412 -8.37256 1.12988 -7.7251L1.12988 -8.73438Q1.99951 -9.25488 3.19922 -9.25488Q3.77051 -9.25488 4.23389 -9.09619Q4.69727 -8.9375 5.02734 -8.65186Q5.35742 -8.36621 5.53833 -7.96631Q5.71924 -7.56641 5.71924 -7.08398Q5.71924 -5.2876 3.90381 -4.77344L3.90381 -4.74805Q4.36719 -4.69727 4.76074 -4.52271Q5.1543 -4.34814 5.43994 -4.06885Q5.72559 -3.78955 5.88745 -3.41187Q6.04932 -3.03418 6.04932 -2.57715ZM13.4824 -4.58936Q13.4824 -3.44678 13.2761 -2.56445Q13.0698 -1.68213 12.6794 -1.07593Q12.2891 -0.469727 11.7209 -0.155518Q11.1528 0.158691 10.4292 0.158691Q9.74365 0.158691 9.20728 -0.142822Q8.6709 -0.444336 8.30273 -1.02197Q7.93457 -1.59961 7.74414 -2.44067Q7.55371 -3.28174 7.55371 -4.36719Q7.55371 -5.56055 7.75366 -6.47461Q7.95361 -7.38867 8.34082 -8.00757Q8.72803 -8.62646 9.30249 -8.94067Q9.87695 -9.25488 10.6196 -9.25488Q13.4824 -9.25488 13.4824 -4.58936ZM12.416 -4.48779Q12.416 -8.37256 10.5688 -8.37256Q8.62012 -8.37256 8.62012 -4.41797Q8.62012 -0.72998 10.5308 -0.72998Q12.416 -0.72998 12.416 -4.48779Z" fill="#E0E0E0" transform="translate(50.27777777777777,336.6865671641791) translate(-14.015625,0)" />
<line x1="55.138888888888886" y1="260.24875621890544" x2="60.4" y2="260.24875621890544" stroke="#E0E0E0" stroke-width="1.1111111111111112" />
<path d="M5.39551 -9.10254L5.39551 -3.09131L6.56348 -3.09131L6.56348 -2.13916L5.39551 -2.13916L5.39551 0L4.36719 0L4.36719 -2.13916L0.0888672 -2.13916L0.0888672 -3.04053Q0.685547 -3.71338 1.29492 -4.47827Q1.9043 -5.24316 2.45972 -6.03027Q3.01514 -6.81738 3.48804 -7.60132Q3.96094 -8.38525 4.28467 -9.10254L5.39551 -9.10254ZM1.26318 -3.09131L4.36719 -3.09131L4.36719 -7.54736Q3.89111 -6.71582 3.46582 -6.06201Q3.04053 -5.4082 2.65649 -4.875Q2.27246 -4.3418 1.92334 -3.91016Q1.57422 -3.47852 1.26318 -3.09131ZM13.4824 -4.58936Q13.4824 -3.44678 13.2761 -2.56445Q13.0698 -1.68213 12.6794 -1.07593Q12.2891 -0.469727 11.7209 -0.155518Q11.1528 0.158691 10.4292 0.158691Q9.74365 0.158691 9.20728 -0.142822Q8.6709 -0.444336 8.30273 -1.02197Q7.93457 -1.59961 7.74414 -2.44067Q7.55371 -3.28174 7.55371 -4.36719Q7.55371 -5.56055 7.75366 -6.47461Q7.95361 -7.38867 8.34082 -8.00757Q8.72803 -8.62646 9.30249 -8.94067Q9.87695 -9.25488 10.6196 -9.25488Q13.4824 -9.25488 13.4824 -4.58936ZM12.416 -4.48779Q12.416 -8.37256 10.5688 -8.37256Q8.62012 -8.37256 8.62012 -4.41797Q8.62012 -0.72998 10.5308 -0.72998Q12.416 -0.72998 12.416 -4.48779Z" fill="#E0E0E0" transform="translate(50.27777777777777,264.24875621890544) translate(-14.015625,0)" />
<line x1="55.138888888888886" y1="187.81094527363177" x2="60.4" y2="187.81094527363177" stroke="#E0E0E0" stroke-width="1.1111111111111112" />
<path d="M6.15088 -2.78027Q6.15088 -2.11377 5.92236 -1.57422Q5.69385 -1.03467 5.27173 -0.647461Q4.84961 -0.260254 4.25293 -0.0507813Q3.65625 0.158691 2.92627 0.158691Q1.65674 0.158691 1.04102 -0.222168L1.04102 -1.32666Q1.96777 -0.729981 2.93896 -0.72998Q3.43408 -0.72998 3.83081 -0.875977Q4.22754 -1.02197 4.50684 -1.28223Q4.78613 -1.54248 4.9353 -1.91064Q5.08447 -2.27881 5.08447 -2.7168Q5.08447 -3.60547 4.48779 -4.11011Q3.89111 -4.61475 2.75488 -4.61475Q2.5708 -4.61475 2.36768 -4.6084Q2.16455 -4.60205 1.96143 -4.59253Q1.7583 -4.58301 1.5647 -4.57031Q1.37109 -4.55762 1.2124 -4.53857L1.52344 -9.10254L5.73193 -9.10254L5.73193 -8.16309L2.4248 -8.16309L2.24072 -5.49072Q2.44385 -5.50342 2.67236 -5.51294Q2.90088 -5.52246 3.07861 -5.52246Q3.80225 -5.52246 4.37354 -5.33203Q4.94482 -5.1416 5.34155 -4.78931Q5.73828 -4.43701 5.94458 -3.92603Q6.15088 -3.41504 6.15088 -2.78027ZM13.4824 -4.58936Q13.4824 -3.44678 13.2761 -2.56445Q13.0698 -1.68213 12.6794 -1.07593Q12.2891 -0.469727 11.7209 -0.155518Q11.1528 0.158691 10.4292 0.158691Q9.74365 0.158691 9.20728 -0.142822Q8.6709 -0.444336 8.30273 -1.02197Q7.93457 -1.59961 7.74414 -2.44067Q7.55371 -3.28174 7.55371 -4.36719Q7.55371 -5.56055 7.75366 -6.47461Q7.95361 -7.38867 8.34082 -8.00757Q8.72803 -8.62646 9.30249 -8.94067Q9.87695 -9.25488 10.6196 -9.25488Q13.4824 -9.25488 13.4824 -4.58936ZM12.416 -4.48779Q12.416 -8.37256 10.5688 -8.37256Q8.62012 -8.37256 8.62012 -4.41797Q8.62012 -0.72998 10.5308 -0.72998Q12.416 -0.72998 12.416 -4.48779Z" fill="#E0E0E0" transform="translate(50.27777777777777,191.81094527363177) translate(-14.015625,0)" />
<line x1="55.138888888888886" y1="115.37313432835816" x2="60.4" y2="115.37313432835816" stroke="#E0E0E0" stroke-width="1.1111111111111112" />
<path d="M6.4873 -2.88818Q6.4873 -2.22168 6.27148 -1.66309Q6.05566 -1.10449 5.6748 -0.698242Q5.29394 -0.291992 4.76709 -0.0666504Q4.24023 0.158691 3.62451 0.158691Q2.93896 0.158691 2.39624 -0.126953Q1.85352 -0.412598 1.47583 -0.948975Q1.09814 -1.48535 0.901367 -2.25977Q0.70459 -3.03418 0.70459 -4.00537Q0.70459 -5.19238 0.968018 -6.1604Q1.23145 -7.12842 1.71704 -7.81714Q2.20264 -8.50586 2.88818 -8.88037Q3.57373 -9.25488 4.41797 -9.25488Q5.35742 -9.25488 5.92871 -8.99463L5.92871 -8.01074Q5.22412 -8.37256 4.44336 -8.37256Q3.83398 -8.37256 3.34521 -8.09961Q2.85644 -7.82666 2.50732 -7.32837Q2.1582 -6.83008 1.97095 -6.12549Q1.78369 -5.4209 1.78369 -4.55762L1.80908 -4.55762Q2.4375 -5.69385 3.88477 -5.69385Q4.48144 -5.69385 4.96069 -5.49072Q5.43994 -5.2876 5.77954 -4.91626Q6.11914 -4.54492 6.30322 -4.03076Q6.4873 -3.5166 6.4873 -2.88818ZM5.4209 -2.75488Q5.4209 -3.23096 5.30029 -3.61182Q5.17969 -3.99268 4.95435 -4.25928Q4.729 -4.52588 4.39893 -4.6687Q4.06885 -4.81152 3.6499 -4.81152Q3.2627 -4.81152 2.93262 -4.66553Q2.60254 -4.51953 2.36133 -4.2688Q2.12012 -4.01807 1.98364 -3.68481Q1.84717 -3.35156 1.84717 -2.97705Q1.84717 -2.50732 1.98047 -2.0979Q2.11377 -1.68848 2.35498 -1.38379Q2.59619 -1.0791 2.92944 -0.904541Q3.2627 -0.72998 3.66895 -0.72998Q4.0625 -0.72998 4.38623 -0.87915Q4.70996 -1.02832 4.93848 -1.29492Q5.16699 -1.56152 5.29395 -1.93286Q5.4209 -2.3042 5.4209 -2.75488ZM13.4824 -4.58936Q13.4824 -3.44678 13.2761 -2.56445Q13.0698 -1.68213 12.6794 -1.07593Q12.2891 -0.469727 11.7209 -0.155518Q11.1528 0.158691 10.4292 0.158691Q9.74365 0.158691 9.20728 -0.142822Q8.6709 -0.444336 8.30273 -1.02197Q7.93457 -1.59961 7.74414 -2.44067Q7.55371 -3.28174 7.55371 -4.36719Q7.55371 -5.56055 7.75366 -6.47461Q7.95361 -7.38867 8.34082 -8.00757Q8.72803 -8.62646 9.30249 -8.94067Q9.87695 -9.25488 10.6196 -9.25488Q13.4824 -9.25488 13.4824 -4.58936ZM12.416 -4.48779Q12.416 -8.37256 10.5688 -8.37256Q8.62012 -8.37256 8.62012 -4.41797Q8.62012 -0.72998 10.5308 -0.72998Q12.416 -0.72998 12.416 -4.48779Z" fill="#E0E0E0" transform="translate(50.27777777777777,119.37313432835816) translate(-14.015625,0)" />
<line x1="55.138888888888886" y1="42.93532338308455" x2="60.4" y2="42.93532338308455" stroke="#E0E0E0" stroke-width="1.1111111111111112" />
<path d="M6.41113 -8.49951Q6.20166 -8.1377 5.90649 -7.59814Q5.61133 -7.05859 5.28125 -6.38574Q4.95117 -5.71289 4.6084 -4.93848Q4.26563 -4.16406 3.96729 -3.33887Q3.66894 -2.51367 3.4436 -1.66626Q3.21826 -0.818848 3.1167 0L1.99951 0Q2.11377 -0.8125 2.35181 -1.65991Q2.58984 -2.50732 2.89136 -3.323Q3.19287 -4.13867 3.5293 -4.89404Q3.86572 -5.64941 4.18311 -6.28418Q4.50049 -6.91895 4.76392 -7.40454Q5.02734 -7.89014 5.18604 -8.16309L0.62207 -8.16309L0.62207 -9.10254L6.41113 -9.10254L6.41113 -8.49951ZM13.4824 -4.58936Q13.4824 -3.44678 13.2761 -2.56445Q13.0698 -1.68213 12.6794 -1.07593Q12.2891 -0.469727 11.7209 -0.155518Q11.1528 0.158691 10.4292 0.158691Q9.74365 0.158691 9.20728 -0.142822Q8.6709 -0.444336 8.30273 -1.02197Q7.93457 -1.59961 7.74414 -2.44067Q7.55371 -3.28174 7.55371 -4.36719Q7.55371 -5.56055 7.75366 -6.47461Q7.95361 -7.38867 8.34082 -8.00757Q8.72803 -8.62646 9.30249 -8.94067Q9.87695 -9.25488 10.6196 -9.25488Q13.4824 -9.25488 13.4824 -4.58936ZM12.416 -4.48779Q12.416 -8.37256 10.5688 -8.37256Q8.62012 -8.37256 8.62012 -4.41797Q8.62012 -0.72998 10.5308 -0.72998Q12.416 -0.72998 12.416 -4.48779Z" fill="#E0E0E0" transform="translate(50.27777777777777,46.93532338308455) translate(-14.015625,0)" />
<g class="series" aria-label="Units sold">
<rect x="60" y="383.39303482587064" width="56.66666666666667" height="166.60696517412936" fill="#FFA500" />
<rect x="130.83333333333334" y="224.0298507462686" width="56.66666666666666" height="325.9701492537314" fill="#FFA500" />
<rect x="201.66666666666669" y="463.07462686567163" width="56.66666666666663" height="86.92537313432837" fill="#FFA500" />
<rect x="272.5" y="64.66666666666663" width="56.666666666666686" height="485.33333333333337" fill="#FFA500" />
<rect x="343.3333333333333" y="303.7114427860696" width="56.666666666666686" height="246.2885572139304" fill="#FFA500" />
</g>
<g class="spine">
<line x1="60" y1="550" x2="400" y2="550" stroke="#E0E0E0" stroke-width="0.8" />
</g>
<g class="spine">
<line x1="60" y1="40.4" x2="400" y2="40.4" stroke="#E0E0E0" stroke-width="0.8" />
</g>
<g class="spine">
<line x1="60" y1="40.4" x2="60" y2="550" stroke="#E0E0E0" stroke-width="0.8" />
</g>
<g class="spine">
<line x1="400" y1="40.4" x2="400" y2="550" stroke="#E0E0E0" stroke-width="0.8" />
</g>
<g class="legend" aria-label="Chart legend">
<rect x="280.74404296875" y="50.4" width="109.25595703125" height="25.1" fill="#1C1C1C" fill-opacity="0.8" stroke="#CCCCCC" stroke-width="0.5" />
<rect x="288.74404296875" y="58.4" width="26" height="9.1" fill="#FFA500" />
<path d="M7.85205 -3.68164Q7.85205 0.152344 4.39258 0.152344Q1.0791 0.152344 1.0791 -3.53564L1.0791 -9.10254L2.14551 -9.10254L2.14551 -3.60547Q2.14551 -0.806152 4.50684 -0.806152Q6.78564 -0.806152 6.78564 -3.51025L6.78564 -9.10254L7.85205 -9.10254L7.85205 -3.68164ZM15.3804 0L14.3394 0L14.3394 -3.70703Q14.3394 -5.77637 12.8286 -5.77637Q12.0479 -5.77637 11.5369 -5.18921Q11.0259 -4.60205 11.0259 -3.70703L11.0259 0L9.98486 0L9.98486 -6.5L11.0259 -6.5L11.0259 -5.4209L11.0513 -5.4209Q11.7876 -6.65234 13.1841 -6.65234Q14.2505 -6.65234 14.8154 -5.96362Q15.3804 -5.2749 15.3804 -3.97363L15.3804 0ZM17.875 -8.15039Q17.5957 -8.15039 17.3989 -8.34082Q17.2021 -8.53125 17.2021 -8.82324Q17.2021 -9.11523 17.3989 -9.30884Q17.5957 -9.50244 17.875 -9.50244Q18.1606 -9.50244 18.3606 -9.30884Q18.5605 -9.11523 18.5605 -8.82324Q18.5605 -8.54395 18.3606 -8.34717Q18.1606 -8.15039 17.875 -8.15039ZM18.3828 0L17.3418 0L17.3418 -6.5L18.3828 -6.5L18.3828 0ZM23.5054 -0.0634766Q23.1372 0.139648 22.5342 0.139648Q20.8267 0.139648 20.8267 -1.76465L20.8267 -5.61133L19.7095 -5.61133L19.7095 -6.5L20.8267 -6.5L20.8267 -8.08691L21.8677 -8.42334L21.8677 -6.5L23.5054 -6.5L23.5054 -5.61133L21.8677 -5.61133L21.8677 -1.94873Q21.8677 -1.29492 22.0898 -1.01563Q22.312 -0.736328 22.8262 -0.736328Q23.2197 -0.736328 23.5054 -0.952148L23.5054 -0.0634766ZM24.502 -0.234863L24.502 -1.35205Q25.3525 -0.723633 26.3745 -0.723633Q27.7456 -0.723633 27.7456 -1.6377Q27.7456 -1.89795 27.6282 -2.07886Q27.5107 -2.25977 27.3108 -2.39941Q27.1108 -2.53906 26.8411 -2.65015Q26.5713 -2.76123 26.2603 -2.88184Q25.8286 -3.05322 25.5017 -3.22778Q25.1748 -3.40234 24.9558 -3.62134Q24.7368 -3.84033 24.6257 -4.11963Q24.5146 -4.39893 24.5146 -4.77344Q24.5146 -5.23047 24.7241 -5.58276Q24.9336 -5.93506 25.2827 -6.1731Q25.6318 -6.41113 26.0793 -6.53174Q26.5269 -6.65234 27.0029 -6.65234Q27.8472 -6.65234 28.5137 -6.36035L28.5137 -5.30664Q27.7964 -5.77637 26.8633 -5.77637Q26.5713 -5.77637 26.3364 -5.70972Q26.1016 -5.64307 25.9333 -5.52246Q25.7651 -5.40186 25.6731 -5.23364Q25.5811 -5.06543 25.5811 -4.8623Q25.5811 -4.6084 25.6731 -4.43701Q25.7651 -4.26563 25.9429 -4.13232Q26.1206 -3.99902 26.3745 -3.89111Q26.6284 -3.7832 26.9521 -3.65625Q27.3838 -3.49121 27.7266 -3.31665Q28.0693 -3.14209 28.3105 -2.9231Q28.5518 -2.7041 28.6819 -2.41846Q28.812 -2.13281 28.812 -1.73926Q28.812 -1.25684 28.5994 -0.901367Q28.3867 -0.545898 28.0313 -0.311035Q27.6758 -0.0761719 27.2124 0.0380859Q26.749 0.152344 26.2412 0.152344Q25.2383 0.152344 24.502 -0.234863ZM33.5791 -0.234863L33.5791 -1.35205Q34.4297 -0.723633 35.4517 -0.723633Q36.8228 -0.723633 36.8228 -1.6377Q36.8228 -1.89795 36.7053 -2.07886Q36.5879 -2.25977 36.3879 -2.39941Q36.188 -2.53906 35.9182 -2.65015Q35.6484 -2.76123 35.3374 -2.88184Q34.9058 -3.05322 34.5789 -3.22778Q34.252 -3.40234 34.033 -3.62134Q33.814 -3.84033 33.7029 -4.11963Q33.5918 -4.39893 33.5918 -4.77344Q33.5918 -5.23047 33.8013 -5.58276Q34.0107 -5.93506 34.3599 -6.1731Q34.709 -6.41113 35.1565 -6.53174Q35.604 -6.65234 36.0801 -6.65234Q36.9243 -6.65234 37.5908 -6.36035L37.5908 -5.30664Q36.8735 -5.77637 35.9404 -5.77637Q35.6484 -5.77637 35.4136 -5.70972Q35.1787 -5.64307 35.0105 -5.52246Q34.8423 -5.40186 34.7502 -5.23364Q34.6582 -5.06543 34.6582 -4.8623Q34.6582 -4.6084 34.7502 -4.43701Q34.8423 -4.26563 35.02 -4.13232Q35.1978 -3.99902 35.4517 -3.89111Q35.7056 -3.7832 36.0293 -3.65625Q36.4609 -3.49121 36.8037 -3.31665Q37.1465 -3.14209 37.3877 -2.9231Q37.6289 -2.7041 37.759 -2.41846Q37.8892 -2.13281 37.8892 -1.73926Q37.8892 -1.25684 37.6765 -0.901367Q37.4639 -0.545898 37.1084 -0.311035Q36.7529 -0.0761719 36.2896 0.0380859Q35.8262 0.152344 35.3184 0.152344Q34.3154 0.152344 33.5791 -0.234863ZM42.2056 0.152344Q40.7646 0.152344 39.9045 -0.758545Q39.0444 -1.66943 39.0444 -3.17383Q39.0444 -4.81152 39.9395 -5.73193Q40.8345 -6.65234 42.3579 -6.65234Q43.8115 -6.65234 44.6272 -5.75732Q45.4429 -4.8623 45.4429 -3.27539Q45.4429 -1.72021 44.5637 -0.783936Q43.6846 0.152344 42.2056 0.152344ZM42.2817 -5.77637Q41.2788 -5.77637 40.6948 -5.09399Q40.1108 -4.41162 40.1108 -3.21191Q40.1108 -2.05664 40.7012 -1.39014Q41.2915 -0.723633 42.2817 -0.723633Q43.291 -0.723633 43.8337 -1.37744Q44.3765 -2.03125 44.3765 -3.2373Q44.3765 -4.45605 43.8337 -5.11621Q43.291 -5.77637 42.2817 -5.77637ZM48.147 0L47.106 0L47.106 -9.62305L48.147 -9.62305L48.147 0ZM55.8022 0L54.7612 0L54.7612 -1.10449L54.7358 -1.10449Q54.0122 0.152344 52.5015 0.152344Q51.2764 0.152344 50.5432 -0.720459Q49.8101 -1.59326 49.8101 -3.09766Q49.8101 -4.70996 50.6226 -5.68115Q51.4351 -6.65234 52.7871 -6.65234Q54.1265 -6.65234 54.7358 -5.59863L54.7612 -5.59863L54.7612 -9.62305L55.8022 -9.62305L55.8022 0ZM54.7612 -2.93896L54.7612 -3.89746Q54.7612 -4.68457 54.2407 -5.23047Q53.7202 -5.77637 52.9204 -5.77637Q51.9683 -5.77637 51.4224 -5.07813Q50.8765 -4.37988 50.8765 -3.14844Q50.8765 -2.0249 51.4001 -1.37427Q51.9238 -0.723633 52.8062 -0.723633Q53.6758 -0.723633 54.2185 -1.35205Q54.7612 -1.98047 54.7612 -2.93896Z" fill="#E0E0E0" transform="translate(325.14404296875,66.5)" />
</g>
<rect x="440" y="40.4" width="340" height="509.6" fill="#2D2D2D" />
<line x1="460" y1="40.4" x2="460" y2="550" stroke="#404040" stroke-width="0.5" />
<line x1="493.33333333333337" y1="40.4" x2="493.33333333333337" y2="550" stroke="#404040" stroke-width="0.5" />
<line x1="526.6666666666667" y1="40.4" x2="526.6666666666667" y2="550" stroke="#404040" stroke-width="0.5" />
<line x1="560" y1="40.4" x2="560" y2="550" stroke="#404040" stroke-width="0.5" />
<line x1="593.3333333333334" y1="40.4" x2="593.3333333333334" y2="550" stroke="#404040" stroke-width="0.5" />
<line x1="626.6666666666667" y1="40.4" x2="626.6666666666667" y2="550" stroke="#404040" stroke-width="0.5" />
<line x1="660" y1="40.4" x2="660" y2="550" stroke="#404040" stroke-width="0.5" />
<line x1="693.3333333333334" y1="40.4" x2="693.3333333333334" y2="550" stroke="#404040" stroke-width="0.5" />
<line x1="726.6666666666667" y1="40.4" x2="726.6666666666667" y2="550" stroke="#404040" stroke-width="0.5" />
<line x1="760" y1="40.4" x2="760" y2="550" stroke="#404040" stroke-width="0.5" />
<line x1="440" y1="550" x2="780" y2="550" stroke="#404040" stroke-width="0.5" />
<line x1="440" y1="469.1111111111111" x2="780" y2="469.1111111111111" stroke="#404040" stroke-width="0.5" />
<line x1="440" y1="388.2222222222222" x2="780" y2="388.2222222222222" stroke="#404040" stroke-width="0.5" />
<line x1="440" y1="307.3333333333333" x2="780" y2="307.3333333333333" stroke="#404040" stroke-width="0.5" />
<line x1="440" y1="226.4444444444444" x2="780" y2="226.4444444444444" stroke="#404040" stroke-width="0.5" />
<line x1="440" y1="145.5555555555555" x2="780" y2="145.5555555555555" stroke="#404040" stroke-width="0.5" />
<line x1="440" y1="64.66666666666663" x2="780" y2="64.66666666666663" stroke="#404040" stroke-width="0.5" />
<line x1="460" y1="549.6" x2="460" y2="554.8611111111111" stroke="#E0E0E0" stroke-width="1.1111111111111112" />
<path d="M4.5957 0L3.55469 0L3.55469 -7.86475Q3.43408 -7.74414 3.20239 -7.58862Q2.9707 -7.43311 2.68188 -7.28076Q2.39307 -7.12842 2.07251 -6.99512Q1.75195 -6.86182 1.44727 -6.78564L1.44727 -7.83936Q1.79004 -7.93457 2.17407 -8.09644Q2.55811 -8.2583 2.92944 -8.45825Q3.30078 -8.6582 3.63086 -8.8772Q3.96094 -9.09619 4.20215 -9.30566L4.5957 -9.30566L4.5957 0ZM8.42334 0.139648Q8.13135 0.139648 7.92505 -0.0698242Q7.71875 -0.279297 7.71875 -0.571289Q7.71875 -0.863281 7.92505 -1.07593Q8.13135 -1.28857 8.42334 -1.28857Q8.72168 -1.28857 8.93115 -1.07593Q9.14063 -0.863281 9.14063 -0.571289Q9.14063 -0.279297 8.93115 -0.0698242Q8.72168 0.139648 8.42334 0.139648ZM15.9771 -2.78027Q15.977 -2.11377 15.7485 -1.57422Q15.52 -1.03467 15.0979 -0.647461Q14.6758 -0.260254 14.0791 -0.0507813Q13.4824 0.158691 12.7524 0.158691Q11.4829 0.158691 10.8672 -0.222168L10.8672 -1.32666Q11.7939 -0.729981 12.7651 -0.72998Q13.2603 -0.72998 13.657 -0.875977Q14.0537 -1.02197 14.333 -1.28223Q14.6123 -1.54248 14.7615 -1.91064Q14.9106 -2.27881 14.9106 -2.7168Q14.9106 -3.60547 14.314 -4.11011Q13.7173 -4.61475 12.5811 -4.61475Q12.397 -4.61475 12.1938 -4.6084Q11.9907 -4.60205 11.7876 -4.59253Q11.5845 -4.58301 11.3909 -4.57031Q11.1973 -4.55762 11.0386 -4.53857L11.3496 -9.10254L15.5581 -9.10254L15.5581 -8.16309L12.251 -8.16309L12.0669 -5.49072Q12.27 -5.50342 12.4985 -5.51294Q12.7271 -5.52246 12.9048 -5.52246Q13.6284 -5.52246 14.1997 -5.33203Q14.771 -5.1416 15.1677 -4.78931Q15.5645 -4.43701 15.7708 -3.92603Q15.9771 -3.41504 15.9771 -2.78027Z" fill="#E0E0E0" transform="translate(460,572.7222222222222) translate(-8.4169921875,0)" />
<line x1="493.33333333333337" y1="549.6" x2="493.33333333333337" y2="554.8611111111111" stroke="#E0E0E0" stroke-width="1.1111111111111112" />
<path d="M4.90039 -6.71582Q4.90039 -7.13477 4.77026 -7.4458Q4.64014 -7.75684 4.41479 -7.96313Q4.18945 -8.16943 3.88477 -8.271Q3.58008 -8.37256 3.22461 -8.37256Q2.91992 -8.37256 2.62793 -8.29004Q2.33594 -8.20752 2.05981 -8.06152Q1.78369 -7.91553 1.52661 -7.7124Q1.26953 -7.50928 1.04736 -7.26172L1.04736 -8.37891Q1.48535 -8.8042 2.02808 -9.02954Q2.5708 -9.25488 3.35156 -9.25488Q3.91016 -9.25488 4.38623 -9.09302Q4.8623 -8.93115 5.21143 -8.62012Q5.56055 -8.30908 5.7605 -7.85205Q5.96045 -7.39502 5.96045 -6.80469Q5.96045 -6.26514 5.83667 -5.82715Q5.71289 -5.38916 5.46216 -5.00195Q5.21143 -4.61475 4.83057 -4.25928Q4.44971 -3.90381 3.93555 -3.53564Q3.29443 -3.07861 2.87866 -2.75488Q2.46289 -2.43115 2.21851 -2.14868Q1.97412 -1.86621 1.87573 -1.58374Q1.77734 -1.30127 1.77734 -0.933105L6.30957 -0.933105L6.30957 0L0.691895 0L0.691895 -0.450684Q0.691895 -1.03467 0.818848 -1.479Q0.945801 -1.92334 1.23779 -2.32324Q1.52979 -2.72314 2.00269 -3.12305Q2.47559 -3.52295 3.16113 -4.02441Q3.65625 -4.37988 3.9895 -4.70361Q4.32275 -5.02734 4.52588 -5.35107Q4.729 -5.6748 4.8147 -6.00806Q4.90039 -6.34131 4.90039 -6.71582ZM8.42334 0.139648Q8.13135 0.139648 7.92505 -0.0698242Q7.71875 -0.279297 7.71875 -0.571289Q7.71875 -0.863281 7.92505 -1.07593Q8.13135 -1.28857 8.42334 -1.28857Q8.72168 -1.28857 8.93115 -1.07593Q9.14063 -0.863281 9.14063 -0.571289Q9.14063 -0.279297 8.93115 -0.0698242Q8.72168 0.139648 8.42334 0.139648ZM16.3008 -4.58936Q16.3008 -3.44678 16.0945 -2.56445Q15.8882 -1.68213 15.4978 -1.07593Q15.1074 -0.469727 14.5393 -0.155518Q13.9712 0.158691 13.2476 0.158691Q12.562 0.158691 12.0256 -0.142822Q11.4893 -0.444336 11.1211 -1.02197Q10.7529 -1.59961 10.5625 -2.44067Q10.3721 -3.28174 10.3721 -4.36719Q10.3721 -5.56055 10.572 -6.47461Q10.772 -7.38867 11.1592 -8.00757Q11.5464 -8.62646 12.1208 -8.94067Q12.6953 -9.25488 13.438 -9.25488Q16.3008 -9.25488 16.3008 -4.58936ZM15.2344 -4.48779Q15.2344 -8.37256 13.3872 -8.37256Q11.4385 -8.37256 11.4385 -4.41797Q11.4385 -0.72998 13.3491 -0.72998Q15.2344 -0.72998 15.2344 -4.48779Z" fill="#E0E0E0" transform="translate(493.33333333333337,572.7222222222222) translate(-8.4169921875,0)" />
<line x1="526.6666666666667" y1="549.6" x2="526.6666666666667" y2="554.8611111111111" stroke="#E0E0E0" stroke-width="1.1111111111111112" />
<path d="M4.90039 -6.71582Q4.90039 -7.13477 4.77026 -7.4458Q4.64014 -7.75684 4.41479 -7.96313Q4.18945 -8.16943 3.88477 -8.271Q3.58008 -8.37256 3.22461 -8.37256Q2.91992 -8.37256 2.62793 -8.29004Q2.33594 -8.20752 2.05981 -8.06152Q1.78369 -7.91553 1.52661 -7.7124Q1.26953 -7.50928 1.04736 -7.26172L1.04736 -8.37891Q1.48535 -8.8042 2.02808 -9.02954Q2.5708 -9.25488 3.35156 -9.25488Q3.91016 -9.25488 4.38623 -9.09302Q4.8623 -8.93115 5.21143 -8.62012Q5.56055 -8.30908 5.7605 -7.85205Q5.96045 -7.39502 5.96045 -6.80469Q5.96045 -6.26514 5.83667 -5.82715Q5.71289 -5.38916 5.46216 -5.00195Q5.21143 -4.61475 4.83057 -4.25928Q4.44971 -3.90381 3.93555 -3.53564Q3.29443 -3.07861 2.87866 -2.75488Q2.46289 -2.43115 2.21851 -2.14868Q1.97412 -1.86621 1.87573 -1.58374Q1.77734 -1.30127 1.77734 -0.933105L6.30957 -0.933105L6.30957 0L0.691895 0L0.691895 -0.450684Q0.691895 -1.03467 0.818848 -1.479Q0.945801 -1.92334 1.23779 -2.32324Q1.52979 -2.72314 2.00269 -3.12305Q2.47559 -3.52295 3.16113 -4.02441Q3.65625 -4.37988 3.9895 -4.70361Q4.32275 -5.02734 4.52588 -5.35107Q4.729 -5.6748 4.8147 -6.00806Q4.90039 -6.34131 4.90039 -6.71582ZM8.42334 0.139648Q8.13135 0.139648 7.92505 -0.0698242Q7.71875 -0.279297 7.71875 -0.571289Q7.71875 -0.863281 7.92505 -1.07593Q8.13135 -1.28857 8.42334 -1.28857Q8.72168 -1.28857 8.93115 -1.07593Q9.14063 -0.863281 9.14063 -0.571289Q9.14063 -0.279297 8.93115 -0.0698242Q8.72168 0.139648 8.42334 0.139648ZM15.9771 -2.78027Q15.977 -2.11377 15.7485 -1.57422Q15.52 -1.03467 15.0979 -0.647461Q14.6758 -0.260254 14.0791 -0.0507813Q13.4824 0.158691 12.7524 0.158691Q11.4829 0.158691 10.8672 -0.222168L10.8672 -1.32666Q11.7939 -0.729981 12.7651 -0.72998Q13.2603 -0.72998 13.657 -0.875977Q14.0537 -1.02197 14.333 -1.28223Q14.6123 -1.54248 14.7615 -1.91064Q14.9106 -2.27881 14.9106 -2.7168Q14.9106 -3.60547 14.314 -4.11011Q13.7173 -4.61475 12.5811 -4.61475Q12.397 -4.61475 12.1938 -4.6084Q11.9907 -4.60205 11.7876 -4.59253Q11.5845 -4.58301 11.3909 -4.57031Q11.1973 -4.55762 11.0386 -4.53857L11.3496 -9.10254L15.5581 -9.10254L15.5581 -8.16309L12.251 -8.16309L12.0669 -5.49072Q12.27 -5.50342 12.4985 -5.51294Q12.7271 -5.52246 12.9048 -5.52246Q13.6284 -5.52246 14.1997 -5.33203Q14.771 -5.1416 15.1677 -4.78931Q15.5645 -4.43701 15.7708 -3.92603Q15.9771 -3.41504 15.9771 -2.78027Z" fill="#E0E0E0" transform="translate(526.6666666666667,572.7222222222222) translate(-8.4169921875,0)" />
<line x1="560" y1="549.6" x2="560" y2="554.8611111111111" stroke="#E0E0E0" stroke-width="1.1111111111111112" />
<path d="M6.04932 -2.57715Q6.04932 -1.96143 5.81763 -1.45679Q5.58594 -0.952148 5.16382 -0.593506Q4.7417 -0.234863 4.15137 -0.0380859Q3.56104 0.158691 2.8501 0.158691Q1.54883 0.158691 0.780762 -0.336426L0.780762 -1.45361Q1.70117 -0.72998 2.88818 -0.72998Q3.36426 -0.72998 3.74829 -0.850586Q4.13232 -0.971191 4.40845 -1.19971Q4.68457 -1.42822 4.83374 -1.75195Q4.98291 -2.07568 4.98291 -2.48193Q4.98291 -4.26563 2.44385 -4.26563L1.68848 -4.26563L1.68848 -5.14795L2.40576 -5.14795Q4.65283 -5.14795 4.65283 -6.82373Q4.65283 -8.37256 2.93896 -8.37256Q1.97412 -8.37256 1.12988 -7.7251L1.12988 -8.73438Q1.99951 -9.25488 3.19922 -9.25488Q3.77051 -9.25488 4.23389 -9.09619Q4.69727 -8.9375 5.02734 -8.65186Q5.35742 -8.36621 5.53833 -7.96631Q5.71924 -7.56641 5.71924 -7.08398Q5.71924 -5.2876 3.90381 -4.77344L3.90381 -4.74805Q4.36719 -4.69727 4.76074 -4.52271Q5.1543 -4.34814 5.43994 -4.06885Q5.72559 -3.78955 5.88745 -3.41187Q6.04932 -3.03418 6.04932 -2.57715ZM8.42334 0.139648Q8.13135 0.139648 7.92505 -0.0698242Q7.71875 -0.279297 7.71875 -0.571289Q7.71875 -0.863281 7.92505 -1.07593Q8.13135 -1.28857 8.42334 -1.28857Q8.72168 -1.28857 8.93115 -1.07593Q9.14063 -0.863281 9.14063 -0.571289Q9.14063 -0.279297 8.93115 -0.0698242Q8.72168 0.139648 8.42334 0.139648ZM16.3008 -4.58936Q16.3008 -3.44678 16.0945 -2.56445Q15.8882 -1.68213 15.4978 -1.07593Q15.1074 -0.469727 14.5393 -0.155518Q13.9712 0.158691 13.2476 0.158691Q12.562 0.158691 12.0256 -0.142822Q11.4893 -0.444336 11.1211 -1.02197Q10.7529 -1.59961 10.5625 -2.44067Q10.3721 -3.28174 10.3721 -4.36719Q10.3721 -5.56055 10.572 -6.47461Q10.772 -7.38867 11.1592 -8.00757Q11.5464 -8.62646 12.1208 -8.94067Q12.6953 -9.25488 13.438 -9.25488Q16.3008 -9.25488 16.3008 -4.58936ZM15.2344 -4.48779Q15.2344 -8.37256 13.3872 -8.37256Q11.4385 -8.37256 11.4385 -4.41797Q11.4385 -0.72998 13.3491 -0.72998Q15.2344 -0.72998 15.2344 -4.48779Z" fill="#E0E0E0" transform="translate(560,572.7222222222222) translate(-8.4169921875,0)" />
<line x1="593.3333333333334" y1="549.6" x2="593.3333333333334" y2="554.8611111111111" stroke="#E0E0E0" stroke-width="1.1111111111111112" />
<path d="M6.04932 -2.57715Q6.04932 -1.96143 5.81763 -1.45679Q5.58594 -0.952148 5.16382 -0.593506Q4.7417 -0.234863 4.15137 -0.0380859Q3.56104 0.158691 2.8501 0.158691Q1.54883 0.158691 0.780762 -0.336426L0.780762 -1.45361Q1.70117 -0.72998 2.88818 -0.72998Q3.36426 -0.72998 3.74829 -0.850586Q4.13232 -0.971191 4.40845 -1.19971Q4.68457 -1.42822 4.83374 -1.75195Q4.98291 -2.07568 4.98291 -2.48193Q4.98291 -4.26563 2.44385 -4.26563L1.68848 -4.26563L1.68848 -5.14795L2.40576 -5.14795Q4.65283 -5.14795 4.65283 -6.82373Q4.65283 -8.37256 2.93896 -8.37256Q1.97412 -8.37256 1.12988 -7.7251L1.12988 -8.73438Q1.99951 -9.25488 3.19922 -9.25488Q3.77051 -9.25488 4.23389 -9.09619Q4.69727 -8.9375 5.02734 -8.65186Q5.35742 -8.36621 5.53833 -7.96631Q5.71924 -7.56641 5.71924 -7.08398Q5.71924 -5.2876 3.90381 -4.77344L3.90381 -4.74805Q4.36719 -4.69727 4.76074 -4.52271Q5.1543 -4.34814 5.43994 -4.06885Q5.72559 -3.78955 5.88745 -3.41187Q6.04932 -3.03418 6.04932 -2.57715ZM8.42334 0.139648Q8.13135 0.139648 7.92505 -0.0698242Q7.71875 -0.279297 7.71875 -0.571289Q7.71875 -0.863281 7.92505 -1.07593Q8.13135 -1.28857 8.42334 -1.28857Q8.72168 -1.28857 8.93115 -1.07593Q9.14063 -0.863281 9.14063 -0.571289Q9.14063 -0.279297 8.93115 -0.0698242Q8.72168 0.139648 8.42334 0.139648ZM15.9771 -2.78027Q15.977 -2.11377 15.7485 -1.57422Q15.52 -1.03467 15.0979 -0.647461Q14.6758 -0.260254 14.0791 -0.0507813Q13.4824 0.158691 12.7524 0.158691Q11.4829 0.158691 10.8672 -0.222168L10.8672 -1.32666Q11.7939 -0.729981 12.7651 -0.72998Q13.2603 -0.72998 13.657 -0.875977Q14.0537 -1.02197 14.333 -1.28223Q14.6123 -1.54248 14.7615 -1.91064Q14.9106 -2.27881 14.9106 -2.7168Q14.9106 -3.60547 14.314 -4.11011Q13.7173 -4.61475 12.5811 -4.61475Q12.397 -4.61475 12.1938 -4.6084Q11.9907 -4.60205 11.7876 -4.59253Q11.5845 -4.58301 11.3909 -4.57031Q11.1973 -4.55762 11.0386 -4.53857L11.3496 -9.10254L15.5581 -9.10254L15.5581 -8.16309L12.251 -8.16309L12.0669 -5.49072Q12.27 -5.50342 12.4985 -5.51294Q12.7271 -5.52246 12.9048 -5.52246Q13.6284 -5.52246 14.1997 -5.33203Q14.771 -5.1416 15.1677 -4.78931Q15.5645 -4.43701 15.7708 -3.92603Q15.9771 -3.41504 15.9771 -2.78027Z" fill="#E0E0E0" transform="translate(593.3333333333334,572.7222222222222) translate(-8.4169921875,0)" />
<line x1="626.6666666666667" y1="549.6" x2="626.6666666666667" y2="554.8611111111111" stroke="#E0E0E0" stroke-width="1.1111111111111112" />
<path d="M5.39551 -9.10254L5.39551 -3.09131L6.56348 -3.09131L6.56348 -2.13916L5.39551 -2.13916L5.39551 0L4.36719 0L4.36719 -2.13916L0.0888672 -2.13916L0.0888672 -3.04053Q0.685547 -3.71338 1.29492 -4.47827Q1.9043 -5.24316 2.45972 -6.03027Q3.01514 -6.81738 3.48804 -7.60132Q3.96094 -8.38525 4.28467 -9.10254L5.39551 -9.10254ZM1.26318 -3.09131L4.36719 -3.09131L4.36719 -7.54736Q3.89111 -6.71582 3.46582 -6.06201Q3.04053 -5.4082 2.65649 -4.875Q2.27246 -4.3418 1.92334 -3.91016Q1.57422 -3.47852 1.26318 -3.09131ZM8.42334 0.139648Q8.13135 0.139648 7.92505 -0.0698242Q7.71875 -0.279297 7.71875 -0.571289Q7.71875 -0.863281 7.92505 -1.07593Q8.13135 -1.28857 8.42334 -1.28857Q8.72168 -1.28857 8.93115 -1.07593Q9.14063 -0.863281 9.14063 -0.571289Q9.14063 -0.279297 8.93115 -0.0698242Q8.72168 0.139648 8.42334 0.139648ZM16.3008 -4.58936Q16.3008 -3.44678 16.0945 -2.56445Q15.8882 -1.68213 15.4978 -1.07593Q15.1074 -0.469727 14.5393 -0.155518Q13.9712 0.158691 13.2476 0.158691Q12.562 0.158691 12.0256 -0.142822Q11.4893 -0.444336 11.1211 -1.02197Q10.7529 -1.59961 10.5625 -2.44067Q10.3721 -3.28174 10.3721 -4.36719Q10.3721 -5.56055 10.572 -6.47461Q10.772 -7.38867 11.1592 -8.00757Q11.5464 -8.62646 12.1208 -8.94067Q12.6953 -9.25488 13.438 -9.25488Q16.3008 -9.25488 16.3008 -4.58936ZM15.2344 -4.48779Q15.2344 -8.37256 13.3872 -8.37256Q11.4385 -8.37256 11.4385 -4.41797Q11.4385 -0.72998 13.3491 -0.72998Q15.2344 -0.72998 15.2344 -4.48779Z" fill="#E0E0E0" transform="translate(626.6666666666667,572.7222222222222) translate(-8.4169921875,0)" />
<line x1="660" y1="549.6" x2="660" y2="554.8611111111111" stroke="#E0E0E0" stroke-width="1.1111111111111112" />
<path d="M5.39551 -9.10254L5.39551 -3.09131L6.56348 -3.09131L6.56348 -2.13916L5.39551 -2.13916L5.39551 0L4.36719 0L4.36719 -2.13916L0.0888672 -2.13916L0.0888672 -3.04053Q0.685547 -3.71338 1.29492 -4.47827Q1.9043 -5.24316 2.45972 -6.03027Q3.01514 -6.81738 3.48804 -7.60132Q3.96094 -8.38525 4.28467 -9.10254L5.39551 -9.10254ZM1.26318 -3.09131L4.36719 -3.09131L4.36719 -7.54736Q3.89111 -6.71582 3.46582 -6.06201Q3.04053 -5.4082 2.65649 -4.875Q2.27246 -4.3418 1.92334 -3.91016Q1.57422 -3.47852 1.26318 -3.09131ZM8.42334 0.139648Q8.13135 0.139648 7.92505 -0.0698242Q7.71875 -0.279297 7.71875 -0.571289Q7.71875 -0.863281 7.92505 -1.07593Q8.13135 -1.28857 8.42334 -1.28857Q8.72168 -1.28857 8.93115 -1.07593Q9.14063 -0.863281 9.14063 -0.571289Q9.14063 -0.279297 8.93115 -0.0698242Q8.72168 0.139648 8.42334 0.139648ZM15.9771 -2.78027Q15.977 -2.11377 15.7485 -1.57422Q15.52 -1.03467 15.0979 -0.647461Q14.6758 -0.260254 14.0791 -0.0507813Q13.4824 0.158691 12.7524 0.158691Q11.4829 0.158691 10.8672 -0.222168L10.8672 -1.32666Q11.7939 -0.729981 12.7651 -0.72998Q13.2603 -0.72998 13.657 -0.875977Q14.0537 -1.02197 14.333 -1.28223Q14.6123 -1.54248 14.7615 -1.91064Q14.9106 -2.27881 14.9106 -2.7168Q14.9106 -3.60547 14.314 -4.11011Q13.7173 -4.61475 12.5811 -4.61475Q12.397 -4.61475 12.1938 -4.6084Q11.9907 -4.60205 11.7876 -4.59253Q11.5845 -4.58301 11.3909 -4.57031Q11.1973 -4.55762 11.0386 -4.53857L11.3496 -9.10254L15.5581 -9.10254L15.5581 -8.16309L12.251 -8.16309L12.0669 -5.49072Q12.27 -5.50342 12.4985 -5.51294Q12.7271 -5.52246 12.9048 -5.52246Q13.6284 -5.52246 14.1997 -5.33203Q14.771 -5.1416 15.1677 -4.78931Q15.5645 -4.43701 15.7708 -3.92603Q15.9771 -3.41504 15.9771 -2.78027Z" fill="#E0E0E0" transform="translate(660,572.7222222222222) translate(-8.4169921875,0)" />
<line x1="693.3333333333334" y1="549.6" x2="693.3333333333334" y2="554.8611111111111" stroke="#E0E0E0" stroke-width="1.1111111111111112" />
<path d="M6.15088 -2.78027Q6.15088 -2.11377 5.92236 -1.57422Q5.69385 -1.03467 5.27173 -0.647461Q4.84961 -0.260254 4.25293 -0.0507813Q3.65625 0.158691 2.92627 0.158691Q1.65674 0.158691 1.04102 -0.222168L1.04102 -1.32666Q1.96777 -0.729981 2.93896 -0.72998Q3.43408 -0.72998 3.83081 -0.875977Q4.22754 -1.02197 4.50684 -1.28223Q4.78613 -1.54248 4.9353 -1.91064Q5.08447 -2.27881 5.08447 -2.7168Q5.08447 -3.60547 4.48779 -4.11011Q3.89111 -4.61475 2.75488 -4.61475Q2.5708 -4.61475 2.36768 -4.6084Q2.16455 -4.60205 1.96143 -4.59253Q1.7583 -4.58301 1.5647 -4.57031Q1.37109 -4.55762 1.2124 -4.53857L1.52344 -9.10254L5.73193 -9.10254L5.73193 -8.16309L2.4248 -8.16309L2.24072 -5.49072Q2.44385 -5.50342 2.67236 -5.51294Q2.90088 -5.52246 3.07861 -5.52246Q3.80225 -5.52246 4.37354 -5.33203Q4.94482 -5.1416 5.34155 -4.78931Q5.73828 -4.43701 5.94458 -3.92603Q6.15088 -3.41504 6.15088 -2.78027ZM8.42334 0.139648Q8.13135 0.139648 7.92505 -0.0698242Q7.71875 -0.279297 7.71875 -0.571289Q7.71875 -0.863281 7.92505 -1.07593Q8.13135 -1.28857 8.42334 -1.28857Q8.72168 -1.28857 8.93115 -1.07593Q9.14063 -0.863281 9.14063 -0.571289Q9.14063 -0.279297 8.93115 -0.0698242Q8.72168 0.139648 8.42334 0.139648ZM16.3008 -4.58936Q16.3008 -3.44678 16.0945 -2.56445Q15.8882 -1.68213 15.4978 -1.07593Q15.1074 -0.469727 14.5393 -0.155518Q13.9712 0.158691 13.2476 0.158691Q12.562 0.158691 12.0256 -0.142822Q11.4893 -0.444336 11.1211 -1.02197Q10.7529 -1.59961 10.5625 -2.44067Q10.3721 -3.28174 10.3721 -4.36719Q10.3721 -5.56055 10.572 -6.47461Q10.772 -7.38867 11.1592 -8.00757Q11.5464 -8.62646 12.1208 -8.94067Q12.6953 -9.25488 13.438 -9.25488Q16.3008 -9.25488 16.3008 -4.58936ZM15.2344 -4.48779Q15.2344 -8.37256 13.3872 -8.37256Q11.4385 -8.37256 11.4385 -4.41797Q11.4385 -0.72998 13.3491 -0.72998Q15.2344 -0.72998 15.2344 -4.48779Z" fill="#E0E0E0" transform="translate(693.3333333333334,572.7222222222222) translate(-8.4169921875,0)" />
<line x1="726.6666666666667" y1="549.6" x2="726.6666666666667" y2="554.8611111111111" stroke="#E0E0E0" stroke-width="1.1111111111111112" />
<path d="M6.15088 -2.78027Q6.15088 -2.11377 5.92236 -1.57422Q5.69385 -1.03467 5.27173 -0.647461Q4.84961 -0.260254 4.25293 -0.0507813Q3.65625 0.158691 2.92627 0.158691Q1.65674 0.158691 1.04102 -0.222168L1.04102 -1.32666Q1.96777 -0.729981 2.93896 -0.72998Q3.43408 -0.72998 3.83081 -0.875977Q4.22754 -1.02197 4.50684 -1.28223Q4.78613 -1.54248 4.9353 -1.91064Q5.08447 -2.27881 5.08447 -2.7168Q5.08447 -3.60547 4.48779 -4.11011Q3.89111 -4.61475 2.75488 -4.61475Q2.5708 -4.61475 2.36768 -4.6084Q2.16455 -4.60205 1.96143 -4.59253Q1.7583 -4.58301 1.5647 -4.57031Q1.37109 -4.55762 1.2124 -4.53857L1.52344 -9.10254L5.73193 -9.10254L5.73193 -8.16309L2.4248 -8.16309L2.24072 -5.49072Q2.44385 -5.50342 2.67236 -5.51294Q2.90088 -5.52246 3.07861 -5.52246Q3.80225 -5.52246 4.37354 -5.33203Q4.94482 -5.1416 5.34155 -4.78931Q5.73828 -4.43701 5.94458 -3.92603Q6.15088 -3.41504 6.15088 -2.78027ZM8.42334 0.139648Q8.13135 0.139648 7.92505 -0.0698242Q7.71875 -0.279297 7.71875 -0.571289Q7.71875 -0.863281 7.92505 -1.07593Q8.13135 -1.28857 8.42334 -1.28857Q8.72168 -1.28857 8.93115 -1.07593Q9.14063 -0.863281 9.14063 -0.571289Q9.14063 -0.279297 8.93115 -0.0698242Q8.72168 0.139648 8.42334 0.139648ZM15.9771 -2.78027Q15.977 -2.11377 15.7485 -1.57422Q15.52 -1.03467 15.0979 -0.647461Q14.6758 -0.260254 14.0791 -0.0507813Q13.4824 0.158691 12.7524 0.158691Q11.4829 0.158691 10.8672 -0.222168L10.8672 -1.32666Q11.7939 -0.729981 12.7651 -0.72998Q13.2603 -0.72998 13.657 -0.875977Q14.0537 -1.02197 14.333 -1.28223Q14.6123 -1.54248 14.7615 -1.91064Q14.9106 -2.27881 14.9106 -2.7168Q14.9106 -3.60547 14.314 -4.11011Q13.7173 -4.61475 12.5811 -4.61475Q12.397 -4.61475 12.1938 -4.6084Q11.9907 -4.60205 11.7876 -4.59253Q11.5845 -4.58301 11.3909 -4.57031Q11.1973 -4.55762 11.0386 -4.53857L11.3496 -9.10254L15.5581 -9.10254L15.5581 -8.16309L12.251 -8.16309L12.0669 -5.49072Q12.27 -5.50342 12.4985 -5.51294Q12.7271 -5.52246 12.9048 -5.52246Q13.6284 -5.52246 14.1997 -5.33203Q14.771 -5.1416 15.1677 -4.78931Q15.5645 -4.43701 15.7708 -3.92603Q15.9771 -3.41504 15.9771 -2.78027Z" fill="#E0E0E0" transform="translate(726.6666666666667,572.7222222222222) translate(-8.4169921875,0)" />
<line x1="760" y1="549.6" x2="760" y2="554.8611111111111" stroke="#E0E0E0" stroke-width="1.1111111111111112" />
<path d="M6.4873 -2.88818Q6.4873 -2.22168 6.27148 -1.66309Q6.05566 -1.10449 5.6748 -0.698242Q5.29394 -0.291992 4.76709 -0.0666504Q4.24023 0.158691 3.62451 0.158691Q2.93896 0.158691 2.39624 -0.126953Q1.85352 -0.412598 1.47583 -0.948975Q1.09814 -1.48535 0.901367 -2.25977Q0.70459 -3.03418 0.70459 -4.00537Q0.70459 -5.19238 0.968018 -6.1604Q1.23145 -7.12842 1.71704 -7.81714Q2.20264 -8.50586 2.88818 -8.88037Q3.57373 -9.25488 4.41797 -9.25488Q5.35742 -9.25488 5.92871 -8.99463L5.92871 -8.01074Q5.22412 -8.37256 4.44336 -8.37256Q3.83398 -8.37256 3.34521 -8.09961Q2.85644 -7.82666 2.50732 -7.32837Q2.1582 -6.83008 1.97095 -6.12549Q1.78369 -5.4209 1.78369 -4.55762L1.80908 -4.55762Q2.4375 -5.69385 3.88477 -5.69385Q4.48144 -5.69385 4.96069 -5.49072Q5.43994 -5.2876 5.77954 -4.91626Q6.11914 -4.54492 6.30322 -4.03076Q6.4873 -3.5166 6.4873 -2.88818ZM5.4209 -2.75488Q5.4209 -3.23096 5.30029 -3.61182Q5.17969 -3.99268 4.95435 -4.25928Q4.729 -4.52588 4.39893 -4.6687Q4.06885 -4.81152 3.6499 -4.81152Q3.2627 -4.81152 2.93262 -4.66553Q2.60254 -4.51953 2.36133 -4.2688Q2.12012 -4.01807 1.98364 -3.68481Q1.84717 -3.35156 1.84717 -2.97705Q1.84717 -2.50732 1.98047 -2.0979Q2.11377 -1.68848 2.35498 -1.38379Q2.59619 -1.0791 2.92944 -0.904541Q3.2627 -0.72998 3.66895 -0.72998Q4.0625 -0.72998 4.38623 -0.87915Q4.70996 -1.02832 4.93848 -1.29492Q5.16699 -1.56152 5.29395 -1.93286Q5.4209 -2.3042 5.4209 -2.75488ZM8.42334 0.139648Q8.13135 0.139648 7.92505 -0.0698242Q7.71875 -0.279297 7.71875 -0.571289Q7.71875 -0.863281 7.92505 -1.07593Q8.13135 -1.28857 8.42334 -1.28857Q8.72168 -1.28857 8.93115 -1.07593Q9.14063 -0.863281 9.14063 -0.571289Q9.14063 -0.279297 8.93115 -0.0698242Q8.72168 0.139648 8.42334 0.139648ZM16.3008 -4.58936Q16.3008 -3.44678 16.0945 -2.56445Q15.8882 -1.68213 15.4978 -1.07593Q15.1074 -0.469727 14.5393 -0.155518Q13.9712 0.158691 13.2476 0.158691Q12.562 0.158691 12.0256 -0.142822Q11.4893 -0.444336 11.1211 -1.02197Q10.7529 -1.59961 10.5625 -2.44067Q10.3721 -3.28174 10.3721 -4.36719Q10.3721 -5.56055 10.572 -6.47461Q10.772 -7.38867 11.1592 -8.00757Q11.5464 -8.62646 12.1208 -8.94067Q12.6953 -9.25488 13.438 -9.25488Q16.3008 -9.25488 16.3008 -4.58936ZM15.2344 -4.48779Q15.2344 -8.37256 13.3872 -8.37256Q11.4385 -8.37256 11.4385 -4.41797Q11.4385 -0.72998 13.3491 -0.72998Q15.2344 -0.72998 15.2344 -4.48779Z" fill="#E0E0E0" transform="translate(760,572.7222222222222) translate(-8.4169921875,0)" />
<line x1="435.1388888888889" y1="550" x2="440.4" y2="550" stroke="#E0E0E0" stroke-width="1.1111111111111112" />
<path d="M6.47461 -4.58936Q6.47461 -3.44678 6.26831 -2.56445Q6.06201 -1.68213 5.67163 -1.07593Q5.28125 -0.469727 4.71313 -0.155518Q4.14502 0.158691 3.42139 0.158691Q2.73584 0.158691 2.19946 -0.142822Q1.66309 -0.444336 1.29492 -1.02197Q0.926758 -1.59961 0.736328 -2.44067Q0.545898 -3.28174 0.545898 -4.36719Q0.545898 -5.56055 0.74585 -6.47461Q0.945801 -7.38867 1.33301 -8.00757Q1.72021 -8.62646 2.29468 -8.94067Q2.86914 -9.25488 3.61182 -9.25488Q6.47461 -9.25488 6.47461 -4.58936ZM5.4082 -4.48779Q5.4082 -8.37256 3.56104 -8.37256Q1.6123 -8.37256 1.6123 -4.41797Q1.6123 -0.72998 3.52295 -0.72998Q5.4082 -0.72998 5.4082 -4.48779ZM8.42334 0.139648Q8.13135 0.139648 7.92505 -0.0698242Q7.71875 -0.279297 7.71875 -0.571289Q7.71875 -0.863281 7.92505 -1.07593Q8.13135 -1.28857 8.42334 -1.28857Q8.72168 -1.28857 8.93115 -1.07593Q9.14063 -0.863281 9.14063 -0.571289Q9.14063 -0.279297 8.93115 -0.0698242Q8.72168 0.139648 8.42334 0.139648ZM16.3008 -4.58936Q16.3008 -3.44678 16.0945 -2.56445Q15.8882 -1.68213 15.4978 -1.07593Q15.1074 -0.469727 14.5393 -0.155518Q13.9712 0.158691 13.2476 0.158691Q12.562 0.158691 12.0256 -0.142822Q11.4893 -0.444336 11.1211 -1.02197Q10.7529 -1.59961 10.5625 -2.44067Q10.3721 -3.28174 10.3721 -4.36719Q10.3721 -5.56055 10.572 -6.47461Q10.772 -7.38867 11.1592 -8.00757Q11.5464 -8.62646 12.1208 -8.94067Q12.6953 -9.25488 13.438 -9.25488Q16.3008 -9.25488 16.3008 -4.58936ZM15.2344 -4.48779Q15.2344 -8.37256 13.3872 -8.37256Q11.4385 -8.37256 11.4385 -4.41797Q11.4385 -0.72998 13.3491 -0.72998Q15.2344 -0.72998 15.2344 -4.48779Z" fill="#E0E0E0" transform="translate(430.2777777777778,554) translate(-16.833984375,0)" />
<line x1="435.1388888888889" y1="469.1111111111111" x2="440.4" y2="469.1111111111111" stroke="#E0E0E0" stroke-width="1.1111111111111112" />
<path d="M6.47461 -4.58936Q6.47461 -3.44678 6.26831 -2.56445Q6.06201 -1.68213 5.67163 -1.07593Q5.28125 -0.469727 4.71313 -0.155518Q4.14502 0.158691 3.42139 0.158691Q2.73584 0.158691 2.19946 -0.142822Q1.66309 -0.444336 1.29492 -1.02197Q0.926758 -1.59961 0.736328 -2.44067Q0.545898 -3.28174 0.545898 -4.36719Q0.545898 -5.56055 0.74585 -6.47461Q0.945801 -7.38867 1.33301 -8.00757Q1.72021 -8.62646 2.29468 -8.94067Q2.86914 -9.25488 3.61182 -9.25488Q6.47461 -9.25488 6.47461 -4.58936ZM5.4082 -4.48779Q5.4082 -8.37256 3.56104 -8.37256Q1.6123 -8.37256 1.6123 -4.41797Q1.6123 -0.72998 3.52295 -0.72998Q5.4082 -0.72998 5.4082 -4.48779ZM8.42334 0.139648Q8.13135 0.139648 7.92505 -0.0698242Q7.71875 -0.279297 7.71875 -0.571289Q7.71875 -0.863281 7.92505 -1.07593Q8.13135 -1.28857 8.42334 -1.28857Q8.72168 -1.28857 8.93115 -1.07593Q9.14063 -0.863281 9.14063 -0.571289Q9.14063 -0.279297 8.93115 -0.0698242Q8.72168 0.139648 8.42334 0.139648ZM15.9771 -2.78027Q15.977 -2.11377 15.7485 -1.57422Q15.52 -1.03467 15.0979 -0.647461Q14.6758 -0.260254 14.0791 -0.0507813Q13.4824 0.158691 12.7524 0.158691Q11.4829 0.158691 10.8672 -0.222168L10.8672 -1.32666Q11.7939 -0.729981 12.7651 -0.72998Q13.2603 -0.72998 13.657 -0.875977Q14.0537 -1.02197 14.333 -1.28223Q14.6123 -1.54248 14.7615 -1.91064Q14.9106 -2.27881 14.9106 -2.7168Q14.9106 -3.60547 14.314 -4.11011Q13.7173 -4.61475 12.5811 -4.61475Q12.397 -4.61475 12.1938 -4.6084Q11.9907 -4.60205 11.7876 -4.59253Q11.5845 -4.58301 11.3909 -4.57031Q11.1973 -4.55762 11.0386 -4.53857L11.3496 -9.10254L15.5581 -9.10254L15.5581 -8.16309L12.251 -8.16309L12.0669 -5.49072Q12.27 -5.50342 12.4985 -5.51294Q12.7271 -5.52246 12.9048 -5.52246Q13.6284 -5.52246 14.1997 -5.33203Q14.771 -5.1416 15.1677 -4.78931Q15.5645 -4.43701 15.7708 -3.92603Q15.9771 -3.41504 15.9771 -2.78027Z" fill="#E0E0E0" transform="translate(430.2777777777778,473.1111111111111) translate(-16.833984375,0)" />
<line x1="435.1388888888889" y1="388.2222222222222" x2="440.4" y2="388.2222222222222" stroke="#E0E0E0" stroke-width="1.1111111111111112" />
<path d="M4.5957 0L3.55469 0L3.55469 -7.86475Q3.43408 -7.74414 3.20239 -7.58862Q2.9707 -7.43311 2.68188 -7.28076Q2.39307 -7.12842 2.07251 -6.99512Q1.75195 -6.86182 1.44727 -6.78564L1.44727 -7.83936Q1.79004 -7.93457 2.17407 -8.09644Q2.55811 -8.2583 2.92944 -8.45825Q3.30078 -8.6582 3.63086 -8.8772Q3.96094 -9.09619 4.20215 -9.30566L4.5957 -9.30566L4.5957 0ZM8.42334 0.139648Q8.13135 0.139648 7.92505 -0.0698242Q7.71875 -0.279297 7.71875 -0.571289Q7.71875 -0.863281 7.92505 -1.07593Q8.13135 -1.28857 8.42334 -1.28857Q8.72168 -1.28857 8.93115 -1.07593Q9.14063 -0.863281 9.14063 -0.571289Q9.14063 -0.279297 8.93115 -0.0698242Q8.72168 0.139648 8.42334 0.139648ZM16.3008 -4.58936Q16.3008 -3.44678 16.0945 -2.56445Q15.8882 -1.68213 15.4978 -1.07593Q15.1074 -0.469727 14.5393 -0.155518Q13.9712 0.158691 13.2476 0.158691Q12.562 0.158691 12.0256 -0.142822Q11.4893 -0.444336 11.1211 -1.02197Q10.7529 -1.59961 10.5625 -2.44067Q10.3721 -3.28174 10.3721 -4.36719Q10.3721 -5.56055 10.572 -6.47461Q10.772 -7.38867 11.1592 -8.00757Q11.5464 -8.62646 12.1208 -8.94067Q12.6953 -9.25488 13.438 -9.25488Q16.3008 -9.25488 16.3008 -4.58936ZM15.2344 -4.48779Q15.2344 -8.37256 13.3872 -8.37256Q11.4385 -8.37256 11.4385 -4.41797Q11.4385 -0.72998 13.3491 -0.72998Q15.2344 -0.72998 15.2344 -4.48779Z" fill="#E0E0E0" transform="translate(430.2777777777778,392.2222222222222) translate(-16.833984375,0)" />
<line x1="435.1388888888889" y1="307.3333333333333" x2="440.4" y2="307.3333333333333" stroke="#E0E0E0" stroke-width="1.1111111111111112" />
<path d="M4.5957 0L3.55469 0L3.55469 -7.86475Q3.43408 -7.74414 3.20239 -7.58862Q2.9707 -7.43311 2.68188 -7.28076Q2.39307 -7.12842 2.07251 -6.99512Q1.75195 -6.86182 1.44727 -6.78564L1.44727 -7.83936Q1.79004 -7.93457 2.17407 -8.09644Q2.55811 -8.2583 2.92944 -8.45825Q3.30078 -8.6582 3.63086 -8.8772Q3.96094 -9.09619 4.20215 -9.30566L4.5957 -9.30566L4.5957 0ZM8.42334 0.139648Q8.13135 0.139648 7.92505 -0.0698242Q7.71875 -0.279297 7.71875 -0.571289Q7.71875 -0.863281 7.92505 -1.07593Q8.13135 -1.28857 8.42334 -1.28857Q8.72168 -1.28857 8.93115 -1.07593Q9.14063 -0.863281 9.14063 -0.571289Q9.14063 -0.279297 8.93115 -0.0698242Q8.72168 0.139648 8.42334 0.139648ZM15.9771 -2.78027Q15.977 -2.11377 15.7485 -1.57422Q15.52 -1.03467 15.0979 -0.647461Q14.6758 -0.260254 14.0791 -0.0507813Q13.4824 0.158691 12.7524 0.158691Q11.4829 0.158691 10.8672 -0.222168L10.8672 -1.32666Q11.7939 -0.729981 12.7651 -0.72998Q13.2603 -0.72998 13.657 -0.875977Q14.0537 -1.02197 14.333 -1.28223Q14.6123 -1.54248 14.7615 -1.91064Q14.9106 -2.27881 14.9106 -2.7168Q14.9106 -3.60547 14.314 -4.11011Q13.7173 -4.61475 12.5811 -4.61475Q12.397 -4.61475 12.1938 -4.6084Q11.9907 -4.60205 11.7876 -4.59253Q11.5845 -4.58301 11.3909 -4.57031Q11.1973 -4.55762 11.0386 -4.53857L11.3496 -9.10254L15.5581 -9.10254L15.5581 -8.16309L12.251 -8.16309L12.0669 -5.49072Q12.27 -5.50342 12.4985 -5.51294Q12.7271 -5.52246 12.9048 -5.52246Q13.6284 -5.52246 14.1997 -5.33203Q14.771 -5.1416 15.1677 -4.78931Q15.5645 -4.43701 15.7708 -3.92603Q15.9771 -3.41504 15.9771 -2.78027Z" fill="#E0E0E0" transform="translate(430.2777777777778,311.3333333333333) translate(-16.833984375,0)" />
<line x1="435.1388888888889" y1="226.4444444444444" x2="440.4" y2="226.4444444444444" stroke="#E0E0E0" stroke-width="1.1111111111111112" />
<path d="M4.90039 -6.71582Q4.90039 -7.13477 4.77026 -7.4458Q4.64014 -7.75684 4.41479 -7.96313Q4.18945 -8.16943 3.88477 -8.271Q3.58008 -8.37256 3.22461 -8.37256Q2.91992 -8.37256 2.62793 -8.29004Q2.33594 -8.20752 2.05981 -8.06152Q1.78369 -7.91553 1.52661 -7.7124Q1.26953 -7.50928 1.04736 -7.26172L1.04736 -8.37891Q1.48535 -8.8042 2.02808 -9.02954Q2.5708 -9.25488 3.35156 -9.25488Q3.91016 -9.25488 4.38623 -9.09302Q4.8623 -8.93115 5.21143 -8.62012Q5.56055 -8.30908 5.7605 -7.85205Q5.96045 -7.39502 5.96045 -6.80469Q5.96045 -6.26514 5.83667 -5.82715Q5.71289 -5.38916 5.46216 -5.00195Q5.21143 -4.61475 4.83057 -4.25928Q4.44971 -3.90381 3.93555 -3.53564Q3.29443 -3.07861 2.87866 -2.75488Q2.46289 -2.43115 2.21851 -2.14868Q1.97412 -1.86621 1.87573 -1.58374Q1.77734 -1.30127 1.77734 -0.933105L6.30957 -0.933105L6.30957 0L0.691895 0L0.691895 -0.450684Q0.691895 -1.03467 0.818848 -1.479Q0.945801 -1.92334 1.23779 -2.32324Q1.52979 -2.72314 2.00269 -3.12305Q2.47559 -3.52295 3.16113 -4.02441Q3.65625 -4.37988 3.9895 -4.70361Q4.32275 -5.02734 4.52588 -5.35107Q4.729 -5.6748 4.8147 -6.00806Q4.90039 -6.34131 4.90039 -6.71582ZM8.42334 0.139648Q8.13135 0.139648 7.92505 -0.0698242Q7.71875 -0.279297 7.71875 -0.571289Q7.71875 -0.863281 7.92505 -1.07593Q8.13135 -1.28857 8.42334 -1.28857Q8.72168 -1.28857 8.93115 -1.07593Q9.14063 -0.863281 9.14063 -0.571289Q9.14063 -0.279297 8.93115 -0.0698242Q8.72168 0.139648 8.42334 0.139648ZM16.3008 -4.58936Q16.3008 -3.44678 16.0945 -2.56445Q15.8882 -1.68213 15.4978 -1.07593Q15.1074 -0.469727 14.5393 -0.155518Q13.9712 0.158691 13.2476 0.158691Q12.562 0.158691 12.0256 -0.142822Q11.4893 -0.444336 11.1211 -1.02197Q10.7529 -1.59961 10.5625 -2.44067Q10.3721 -3.28174 10.3721 -4.36719Q10.3721 -5.56055 10.572 -6.47461Q10.772 -7.38867 11.1592 -8.00757Q11.5464 -8.62646 12.1208 -8.94067Q12.6953 -9.25488 13.438 -9.25488Q16.3008 -9.25488 16.3008 -4.58936ZM15.2344 -4.48779Q15.2344 -8.37256 13.3872 -8.37256Q11.4385 -8.37256 11.4385 -4.41797Q11.4385 -0.72998 13.3491 -0.72998Q15.2344 -0.72998 15.2344 -4.48779Z" fill="#E0E0E0" transform="translate(430.2777777777778,230.4444444444444) translate(-16.833984375,0)" />
<line x1="435.1388888888889" y1="145.5555555555555" x2="440.4" y2="145.5555555555555" stroke="#E0E0E0" stroke-width="1.1111111111111112" />
<path d="M4.90039 -6.71582Q4.90039 -7.13477 4.77026 -7.4458Q4.64014 -7.75684 4.41479 -7.96313Q4.18945 -8.16943 3.88477 -8.271Q3.58008 -8.37256 3.22461 -8.37256Q2.91992 -8.37256 2.62793 -8.29004Q2.33594 -8.20752 2.05981 -8.06152Q1.78369 -7.91553 1.52661 -7.7124Q1.26953 -7.50928 1.04736 -7.26172L1.04736 -8.37891Q1.48535 -8.8042 2.02808 -9.02954Q2.5708 -9.25488 3.35156 -9.25488Q3.91016 -9.25488 4.38623 -9.09302Q4.8623 -8.93115 5.21143 -8.62012Q5.56055 -8.30908 5.7605 -7.85205Q5.96045 -7.39502 5.96045 -6.80469Q5.96045 -6.26514 5.83667 -5.82715Q5.71289 -5.38916 5.46216 -5.00195Q5.21143 -4.61475 4.83057 -4.25928Q4.44971 -3.90381 3.93555 -3.53564Q3.29443 -3.07861 2.87866 -2.75488Q2.46289 -2.43115 2.21851 -2.14868Q1.97412 -1.86621 1.87573 -1.58374Q1.77734 -1.30127 1.77734 -0.933105L6.30957 -0.933105L6.30957 0L0.691895 0L0.691895 -0.450684Q0.691895 -1.03467 0.818848 -1.479Q0.945801 -1.92334 1.23779 -2.32324Q1.52979 -2.72314 2.00269 -3.12305Q2.47559 -3.52295 3.16113 -4.02441Q3.65625 -4.37988 3.9895 -4.70361Q4.32275 -5.02734 4.52588 -5.35107Q4.729 -5.6748 4.8147 -6.00806Q4.90039 -6.34131 4.90039 -6.71582ZM8.42334 0.139648Q8.13135 0.139648 7.92505 -0.0698242Q7.71875 -0.279297 7.71875 -0.571289Q7.71875 -0.863281 7.92505 -1.07593Q8.13135 -1.28857 8.42334 -1.28857Q8.72168 -1.28857 8.93115 -1.07593Q9.14063 -0.863281 9.14063 -0.571289Q9.14063 -0.279297 8.93115 -0.0698242Q8.72168 0.139648 8.42334 0.139648ZM15.9771 -2.78027Q15.977 -2.11377 15.7485 -1.57422Q15.52 -1.03467 15.0979 -0.647461Q14.6758 -0.260254 14.0791 -0.0507813Q13.4824 0.158691 12.7524 0.158691Q11.4829 0.158691 10.8672 -0.222168L10.8672 -1.32666Q11.7939 -0.729981 12.7651 -0.72998Q13.2603 -0.72998 13.657 -0.875977Q14.0537 -1.02197 14.333 -1.28223Q14.6123 -1.54248 14.7615 -1.91064Q14.9106 -2.27881 14.9106 -2.7168Q14.9106 -3.60547 14.314 -4.11011Q13.7173 -4.61475 12.5811 -4.61475Q12.397 -4.61475 12.1938 -4.6084Q11.9907 -4.60205 11.7876 -4.59253Q11.5845 -4.58301 11.3909 -4.57031Q11.1973 -4.55762 11.0386 -4.53857L11.3496 -9.10254L15.5581 -9.10254L15.5581 -8.16309L12.251 -8.16309L12.0669 -5.49072Q12.27 -5.50342 12.4985 -5.51294Q12.7271 -5.52246 12.9048 -5.52246Q13.6284 -5.52246 14.1997 -5.33203Q14.771 -5.1416 15.1677 -4.78931Q15.5645 -4.43701 15.7708 -3.92603Q15.9771 -3.41504 15.9771 -2.78027Z" fill="#E0E0E0" transform="translate(430.2777777777778,149.5555555555555) translate(-16.833984375,0)" />
<line x1="435.1388888888889" y1="64.66666666666663" x2="440.4" y2="64.66666666666663" stroke="#E0E0E0" stroke-width="1.1111111111111112" />
<path d="M6.04932 -2.57715Q6.04932 -1.96143 5.81763 -1.45679Q5.58594 -0.952148 5.16382 -0.593506Q4.7417 -0.234863 4.15137 -0.0380859Q3.56104 0.158691 2.8501 0.158691Q1.54883 0.158691 0.780762 -0.336426L0.780762 -1.45361Q1.70117 -0.72998 2.88818 -0.72998Q3.36426 -0.72998 3.74829 -0.850586Q4.13232 -0.971191 4.40845 -1.19971Q4.68457 -1.42822 4.83374 -1.75195Q4.98291 -2.07568 4.98291 -2.48193Q4.98291 -4.26563 2.44385 -4.26563L1.68848 -4.26563L1.68848 -5.14795L2.40576 -5.14795Q4.65283 -5.14795 4.65283 -6.82373Q4.65283 -8.37256 2.93896 -8.37256Q1.97412 -8.37256 1.12988 -7.7251L1.12988 -8.73438Q1.99951 -9.25488 3.19922 -9.25488Q3.77051 -9.25488 4.23389 -9.09619Q4.69727 -8.9375 5.02734 -8.65186Q5.35742 -8.36621 5.53833 -7.96631Q5.71924 -7.56641 5.71924 -7.08398Q5.71924 -5.2876 3.90381 -4.77344L3.90381 -4.74805Q4.36719 -4.69727 4.76074 -4.52271Q5.1543 -4.34814 5.43994 -4.06885Q5.72559 -3.78955 5.88745 -3.41187Q6.04932 -3.03418 6.04932 -2.57715ZM8.42334 0.139648Q8.13135 0.139648 7.92505 -0.0698242Q7.71875 -0.279297 7.71875 -0.571289Q7.71875 -0.863281 7.92505 -1.07593Q8.13135 -1.28857 8.42334 -1.28857Q8.72168 -1.28857 8.93115 -1.07593Q9.14063 -0.863281 9.14063 -0.571289Q9.14063 -0.279297 8.93115 -0.0698242Q8.72168 0.139648 8.42334 0.139648ZM16.3008 -4.58936Q16.3008 -3.44678 16.0945 -2.56445Q15.8882 -1.68213 15.4978 -1.07593Q15.1074 -0.469727 14.5393 -0.155518Q13.9712 0.158691 13.2476 0.158691Q12.562 0.158691 12.0256 -0.142822Q11.4893 -0.444336 11.1211 -1.02197Q10.7529 -1.59961 10.5625 -2.44067Q10.3721 -3.28174 10.3721 -4.36719Q10.3721 -5.56055 10.572 -6.47461Q10.772 -7.38867 11.1592 -8.00757Q11.5464 -8.62646 12.1208 -8.94067Q12.6953 -9.25488 13.438 -9.25488Q16.3008 -9.25488 16.3008 -4.58936ZM15.2344 -4.48779Q15.2344 -8.37256 13.3872 -8.37256Q11.4385 -8.37256 11.4385 -4.41797Q11.4385 -0.72998 13.3491 -0.72998Q15.2344 -0.72998 15.2344 -4.48779Z" fill="#E0E0E0" transform="translate(430.2777777777778,68.66666666666663) translate(-16.833984375,0)" />
<rect x="440" y="388.2222222222222" width="56.66666666666663" height="161.77777777777783" fill="#1F77B4" />
<rect x="496.66666666666663" y="226.4444444444444" width="56.66666666666674" height="323.5555555555556" fill="#1F77B4" />
<rect x="553.3333333333334" y="64.66666666666663" width="56.66666666666663" height="485.33333333333337" fill="#1F77B4" />
<rect x="610" y="388.2222222222222" width="56.66666666666674" height="161.77777777777783" fill="#1F77B4" />
<rect x="666.6666666666667" y="226.4444444444444" width="56.666666666666515" height="323.5555555555556" fill="#1F77B4" />
<rect x="723.3333333333334" y="64.66666666666663" width="56.66666666666663" height="485.33333333333337" fill="#1F77B4" />
<g class="spine">
<line x1="440" y1="550" x2="780" y2="550" stroke="#E0E0E0" stroke-width="0.8" />
</g>
<g class="spine">
<line x1="440" y1="40.4" x2="780" y2="40.4" stroke="#E0E0E0" stroke-width="0.8" />
</g>
<g class="spine">
<line x1="440" y1="40.4" x2="440" y2="550" stroke="#E0E0E0" stroke-width="0.8" />
</g>
<g class="spine">
<line x1="780" y1="40.4" x2="780" y2="550" stroke="#E0E0E0" stroke-width="0.8" />
</g>
</svg>
