<svg xmlns="http://www.w3.org/2000/svg" viewBox="0 0 800 600" width="800" height="600" role="img" aria-labelledby="chart-title">
<title id="chart-title">Dashboard</title>
<rect x="0" y="0" width="800" height="600" fill="#1C1C1C" />
<text x="400" y="25" font-family="sans-serif" font-size="17" text-anchor="middle" font-weight="bold" fill="#E0E0E0">Dashboard</text>
<rect x="60" y="70" width="340" height="480" fill="#2D2D2D" />
<line x1="75.45454545454545" y1="70" x2="75.45454545454545" y2="550" stroke="#404040" stroke-width="0.5" />
<line x1="137.27272727272728" y1="70" x2="137.27272727272728" y2="550" stroke="#404040" stroke-width="0.5" />
<line x1="199.0909090909091" y1="70" x2="199.0909090909091" y2="550" stroke="#404040" stroke-width="0.5" />
<line x1="260.90909090909093" y1="70" x2="260.90909090909093" y2="550" stroke="#404040" stroke-width="0.5" />
<line x1="322.72727272727275" y1="70" x2="322.72727272727275" y2="550" stroke="#404040" stroke-width="0.5" />
<line x1="384.54545454545456" y1="70" x2="384.54545454545456" y2="550" stroke="#404040" stroke-width="0.5" />
<line x1="60" y1="528.1818181818181" x2="400" y2="528.1818181818181" stroke="#404040" stroke-width="0.5" />
<line x1="60" y1="463.0529172320216" x2="400" y2="463.0529172320216" stroke="#404040" stroke-width="0.5" />
<line x1="60" y1="397.9240162822251" x2="400" y2="397.9240162822251" stroke="#404040" stroke-width="0.5" />
<line x1="60" y1="332.7951153324287" x2="400" y2="332.7951153324287" stroke="#404040" stroke-width="0.5" />
<line x1="60" y1="267.6662143826322" x2="400" y2="267.6662143826322" stroke="#404040" stroke-width="0.5" />
<line x1="60" y1="202.53731343283567" x2="400" y2="202.53731343283567" stroke="#404040" stroke-width="0.5" />
<line x1="60" y1="137.40841248303923" x2="400" y2="137.40841248303923" stroke="#404040" stroke-width="0.5" />
<line x1="60" y1="72.27951153324273" x2="400" y2="72.27951153324273" stroke="#404040" stroke-width="0.5" />
<text x="106.36363636363636" y="565" font-family="sans-serif" font-size="13" text-anchor="middle" fill="#E0E0E0">Q1</text>
<text x="168.1818181818182" y="565" font-family="sans-serif" font-size="13" text-anchor="middle" fill="#E0E0E0">Q2</text>
<text x="230" y="565" font-family="sans-serif" font-size="13" text-anchor="middle" fill="#E0E0E0">Q3</text>
<text x="291.8181818181818" y="565" font-family="sans-serif" font-size="13" text-anchor="middle" fill="#E0E0E0">Q4</text>
<text x="353.6363636363636" y="565" font-family="sans-serif" font-size="13" text-anchor="middle" fill="#E0E0E0">Q5</text>
<line x1="524.6818181818181" y1="60" x2="528.5818181818181" y2="60" stroke="#E0E0E0" stroke-width="0.8" />
<text x="53.5" y="532.1818181818181" font-family="sans-serif" font-size="13" text-anchor="end" fill="#E0E0E0">0</text>
<line x1="459.5529172320216" y1="60" x2="463.4529172320216" y2="60" stroke="#E0E0E0" stroke-width="0.8" />
<text x="53.5" y="467.0529172320216" font-family="sans-serif" font-size="13" text-anchor="end" fill="#E0E0E0">10</text>
<line x1="394.4240162822251" y1="60" x2="398.3240162822251" y2="60" stroke="#E0E0E0" stroke-width="0.8" />
<text x="53.5" y="401.9240162822251" font-family="sans-serif" font-size="13" text-anchor="end" fill="#E0E0E0">20</text>
<line x1="329.2951153324287" y1="60" x2="333.19511533242866" y2="60" stroke="#E0E0E0" stroke-width="0.8" />
<text x="53.5" y="336.7951153324287" font-family="sans-serif" font-size="13" text-anchor="end" fill="#E0E0E0">30</text>
<line x1="264.1662143826322" y1="60" x2="268.06621438263215" y2="60" stroke="#E0E0E0" stroke-width="0.8" />
<text x="53.5" y="271.6662143826322" font-family="sans-serif" font-size="13" text-anchor="end" fill="#E0E0E0">40</text>
<line x1="199.03731343283567" y1="60" x2="202.93731343283568" y2="60" stroke="#E0E0E0" stroke-width="0.8" />
<text x="53.5" y="206.53731343283567" font-family="sans-serif" font-size="13" text-anchor="end" fill="#E0E0E0">50</text>
<line x1="133.90841248303923" y1="60" x2="137.80841248303923" y2="60" stroke="#E0E0E0" stroke-width="0.8" />
<text x="53.5" y="141.40841248303923" font-family="sans-serif" font-size="13" text-anchor="end" fill="#E0E0E0">60</text>
<line x1="68.77951153324273" y1="60" x2="72.67951153324273" y2="60" stroke="#E0E0E0" stroke-width="0.8" />
<text x="53.5" y="76.27951153324273" font-family="sans-serif" font-size="13" text-anchor="end" fill="#E0E0E0">70</text>
<line x1="537.7075983717774" y1="60" x2="541.6075983717774" y2="60" stroke="#E0E0E0" stroke-width="0.8" />
<line x1="511.65603799185885" y1="60" x2="515.5560379918588" y2="60" stroke="#E0E0E0" stroke-width="0.8" />
<line x1="498.6302578018995" y1="60" x2="502.5302578018995" y2="60" stroke="#E0E0E0" stroke-width="0.8" />
<line x1="485.60447761194024" y1="60" x2="489.5044776119402" y2="60" stroke="#E0E0E0" stroke-width="0.8" />
<line x1="472.57869742198096" y1="60" x2="476.47869742198094" y2="60" stroke="#E0E0E0" stroke-width="0.8" />
<line x1="446.52713704206235" y1="60" x2="450.4271370420623" y2="60" stroke="#E0E0E0" stroke-width="0.8" />
<line x1="433.5013568521031" y1="60" x2="437.40135685210305" y2="60" stroke="#E0E0E0" stroke-width="0.8" />
<line x1="420.47557666214374" y1="60" x2="424.3755766621437" y2="60" stroke="#E0E0E0" stroke-width="0.8" />
<line x1="407.44979647218446" y1="60" x2="411.34979647218444" y2="60" stroke="#E0E0E0" stroke-width="0.8" />
<line x1="381.39823609226585" y1="60" x2="385.2982360922658" y2="60" stroke="#E0E0E0" stroke-width="0.8" />
<line x1="368.37245590230657" y1="60" x2="372.27245590230655" y2="60" stroke="#E0E0E0" stroke-width="0.8" />
<line x1="355.3466757123473" y1="60" x2="359.24667571234727" y2="60" stroke="#E0E0E0" stroke-width="0.8" />
<line x1="342.32089552238796" y1="60" x2="346.22089552238793" y2="60" stroke="#E0E0E0" stroke-width="0.8" />
<line x1="316.26933514246934" y1="60" x2="320.1693351424693" y2="60" stroke="#E0E0E0" stroke-width="0.8" />
<line x1="303.24355495251007" y1="60" x2="307.14355495251004" y2="60" stroke="#E0E0E0" stroke-width="0.8" />
<line x1="290.2177747625508" y1="60" x2="294.11777476255077" y2="60" stroke="#E0E0E0" stroke-width="0.8" />
<line x1="277.1919945725915" y1="60" x2="281.0919945725915" y2="60" stroke="#E0E0E0" stroke-width="0.8" />
<line x1="251.1404341926729" y1="60" x2="255.0404341926729" y2="60" stroke="#E0E0E0" stroke-width="0.8" />
<line x1="238.11465400271356" y1="60" x2="242.01465400271357" y2="60" stroke="#E0E0E0" stroke-width="0.8" />
<line x1="225.0888738127543" y1="60" x2="228.9888738127543" y2="60" stroke="#E0E0E0" stroke-width="0.8" />
<line x1="212.063093622795" y1="60" x2="215.96309362279501" y2="60" stroke="#E0E0E0" stroke-width="0.8" />
<line x1="186.0115332428764" y1="60" x2="189.9115332428764" y2="60" stroke="#E0E0E0" stroke-width="0.8" />
<line x1="172.98575305291712" y1="60" x2="176.88575305291712" y2="60" stroke="#E0E0E0" stroke-width="0.8" />
<line x1="159.95997286295778" y1="60" x2="163.8599728629578" y2="60" stroke="#E0E0E0" stroke-width="0.8" />
<line x1="146.9341926729985" y1="60" x2="150.8341926729985" y2="60" stroke="#E0E0E0" stroke-width="0.8" />
<line x1="120.8826322930799" y1="60" x2="124.7826322930799" y2="60" stroke="#E0E0E0" stroke-width="0.8" />
<line x1="107.85685210312062" y1="60" x2="111.75685210312062" y2="60" stroke="#E0E0E0" stroke-width="0.8" />
<line x1="94.83107191316134" y1="60" x2="98.73107191316134" y2="60" stroke="#E0E0E0" stroke-width="0.8" />
<line x1="81.805291723202" y1="60" x2="85.70529172320201" y2="60" stroke="#E0E0E0" stroke-width="0.8" />
<g class="series" aria-label="Units sold">
<rect x="81.63636363636364" y="378.3853459972862" width="49.45454545454545" height="149.79647218453192" fill="#FFA500" />
<rect x="143.45454545454547" y="235.10176390773393" width="49.45454545454544" height="293.0800542740842" fill="#FFA500" />
<rect x="205.2727272727273" y="450.02713704206235" width="49.45454545454544" height="78.15468113975578" fill="#FFA500" />
<rect x="267.0909090909091" y="91.81818181818164" width="49.45454545454544" height="436.3636363636365" fill="#FFA500" />
<rect x="328.9090909090909" y="306.74355495251007" width="49.454545454545496" height="221.43826322930806" fill="#FFA500" />
</g>
<g class="spine">
<line x1="60" y1="550" x2="400" y2="550" stroke="#E0E0E0" stroke-width="0.8" />
</g>
<g class="spine">
<line x1="60" y1="70" x2="400" y2="70" stroke="#E0E0E0" stroke-width="0.8" />
</g>
<g class="spine">
<line x1="60" y1="70" x2="60" y2="550" stroke="#E0E0E0" stroke-width="0.8" />
</g>
<g class="spine">
<line x1="400" y1="70" x2="400" y2="550" stroke="#E0E0E0" stroke-width="0.8" />
</g>
<rect x="294.9" y="80" width="95.1" height="28" fill="#1C1C1C" fill-opacity="0.8" stroke="#E0E0E0" stroke-width="0.5" />
<g class="legend" aria-label="Chart legend">
<rect x="302.9" y="88" width="12" height="12" fill="#FFA500" />
<text x="320.9" y="99" font-family="sans-serif" font-size="13" text-anchor="start" fill="#E0E0E0">Units sold</text>
</g>
<rect x="440" y="70" width="340" height="480" fill="#2D2D2D" />
<line x1="443.33333333333337" y1="70" x2="443.33333333333337" y2="550" stroke="#404040" stroke-width="0.5" />
<line x1="503.939393939394" y1="70" x2="503.939393939394" y2="550" stroke="#404040" stroke-width="0.5" />
<line x1="564.5454545454545" y1="70" x2="564.5454545454545" y2="550" stroke="#404040" stroke-width="0.5" />
<line x1="625.1515151515152" y1="70" x2="625.1515151515152" y2="550" stroke="#404040" stroke-width="0.5" />
<line x1="685.7575757575758" y1="70" x2="685.7575757575758" y2="550" stroke="#404040" stroke-width="0.5" />
<line x1="746.3636363636364" y1="70" x2="746.3636363636364" y2="550" stroke="#404040" stroke-width="0.5" />
<line x1="440" y1="528.1818181818181" x2="780" y2="528.1818181818181" stroke="#404040" stroke-width="0.5" />
<line x1="440" y1="455.4545454545454" x2="780" y2="455.4545454545454" stroke="#404040" stroke-width="0.5" />
<line x1="440" y1="382.72727272727263" x2="780" y2="382.72727272727263" stroke="#404040" stroke-width="0.5" />
<line x1="440" y1="309.99999999999994" x2="780" y2="309.99999999999994" stroke="#404040" stroke-width="0.5" />
<line x1="440" y1="237.2727272727272" x2="780" y2="237.2727272727272" stroke="#404040" stroke-width="0.5" />
<line x1="440" y1="164.54545454545445" x2="780" y2="164.54545454545445" stroke="#404040" stroke-width="0.5" />
<line x1="440" y1="91.81818181818176" x2="780" y2="91.81818181818176" stroke="#404040" stroke-width="0.5" />
<line x1="443.33333333333337" y1="549.6" x2="443.33333333333337" y2="553.5" stroke="#E0E0E0" stroke-width="0.8" />
<text x="443.33333333333337" y="569.5" font-family="sans-serif" font-size="13" text-anchor="middle" fill="#E0E0E0">1</text>
<line x1="503.939393939394" y1="549.6" x2="503.939393939394" y2="553.5" stroke="#E0E0E0" stroke-width="0.8" />
<text x="503.939393939394" y="569.5" font-family="sans-serif" font-size="13" text-anchor="middle" fill="#E0E0E0">2</text>
<line x1="564.5454545454545" y1="549.6" x2="564.5454545454545" y2="553.5" stroke="#E0E0E0" stroke-width="0.8" />
<text x="564.5454545454545" y="569.5" font-family="sans-serif" font-size="13" text-anchor="middle" fill="#E0E0E0">3</text>
<line x1="625.1515151515152" y1="549.6" x2="625.1515151515152" y2="553.5" stroke="#E0E0E0" stroke-width="0.8" />
<text x="625.1515151515152" y="569.5" font-family="sans-serif" font-size="13" text-anchor="middle" fill="#E0E0E0">4</text>
<line x1="685.7575757575758" y1="549.6" x2="685.7575757575758" y2="553.5" stroke="#E0E0E0" stroke-width="0.8" />
<text x="685.7575757575758" y="569.5" font-family="sans-serif" font-size="13" text-anchor="middle" fill="#E0E0E0">5</text>
<line x1="746.3636363636364" y1="549.6" x2="746.3636363636364" y2="553.5" stroke="#E0E0E0" stroke-width="0.8" />
<text x="746.3636363636364" y="569.5" font-family="sans-serif" font-size="13" text-anchor="middle" fill="#E0E0E0">6</text>
<line x1="455.4545454545455" y1="549.6" x2="455.4545454545455" y2="553.5" stroke="#E0E0E0" stroke-width="0.8" />
<line x1="467.5757575757576" y1="549.6" x2="467.5757575757576" y2="553.5" stroke="#E0E0E0" stroke-width="0.8" />
<line x1="479.69696969696975" y1="549.6" x2="479.69696969696975" y2="553.5" stroke="#E0E0E0" stroke-width="0.8" />
<line x1="491.81818181818187" y1="549.6" x2="491.81818181818187" y2="553.5" stroke="#E0E0E0" stroke-width="0.8" />
<line x1="516.0606060606061" y1="549.6" x2="516.0606060606061" y2="553.5" stroke="#E0E0E0" stroke-width="0.8" />
<line x1="528.1818181818182" y1="549.6" x2="528.1818181818182" y2="553.5" stroke="#E0E0E0" stroke-width="0.8" />
<line x1="540.3030303030304" y1="549.6" x2="540.3030303030304" y2="553.5" stroke="#E0E0E0" stroke-width="0.8" />
<line x1="552.4242424242425" y1="549.6" x2="552.4242424242425" y2="553.5" stroke="#E0E0E0" stroke-width="0.8" />
<line x1="576.6666666666667" y1="549.6" x2="576.6666666666667" y2="553.5" stroke="#E0E0E0" stroke-width="0.8" />
<line x1="588.7878787878788" y1="549.6" x2="588.7878787878788" y2="553.5" stroke="#E0E0E0" stroke-width="0.8" />
<line x1="600.909090909091" y1="549.6" x2="600.909090909091" y2="553.5" stroke="#E0E0E0" stroke-width="0.8" />
<line x1="613.030303030303" y1="549.6" x2="613.030303030303" y2="553.5" stroke="#E0E0E0" stroke-width="0.8" />
<line x1="637.2727272727273" y1="549.6" x2="637.2727272727273" y2="553.5" stroke="#E0E0E0" stroke-width="0.8" />
<line x1="649.3939393939395" y1="549.6" x2="649.3939393939395" y2="553.5" stroke="#E0E0E0" stroke-width="0.8" />
<line x1="661.5151515151515" y1="549.6" x2="661.5151515151515" y2="553.5" stroke="#E0E0E0" stroke-width="0.8" />
<line x1="673.6363636363637" y1="549.6" x2="673.6363636363637" y2="553.5" stroke="#E0E0E0" stroke-width="0.8" />
<line x1="697.878787878788" y1="549.6" x2="697.878787878788" y2="553.5" stroke="#E0E0E0" stroke-width="0.8" />
<line x1="710" y1="549.6" x2="710" y2="553.5" stroke="#E0E0E0" stroke-width="0.8" />
<line x1="722.1212121212121" y1="549.6" x2="722.1212121212121" y2="553.5" stroke="#E0E0E0" stroke-width="0.8" />
<line x1="734.2424242424242" y1="549.6" x2="734.2424242424242" y2="553.5" stroke="#E0E0E0" stroke-width="0.8" />
<line x1="758.4848484848485" y1="549.6" x2="758.4848484848485" y2="553.5" stroke="#E0E0E0" stroke-width="0.8" />
<line x1="770.6060606060607" y1="549.6" x2="770.6060606060607" y2="553.5" stroke="#E0E0E0" stroke-width="0.8" />
<line x1="524.6818181818181" y1="440" x2="528.5818181818181" y2="440" stroke="#E0E0E0" stroke-width="0.8" />
<text x="433.5" y="532.1818181818181" font-family="sans-serif" font-size="13" text-anchor="end" fill="#E0E0E0">0</text>
<line x1="451.9545454545454" y1="440" x2="455.85454545454536" y2="440" stroke="#E0E0E0" stroke-width="0.8" />
<text x="433.5" y="459.4545454545454" font-family="sans-serif" font-size="13" text-anchor="end" fill="#E0E0E0">0.5</text>
<line x1="379.22727272727263" y1="440" x2="383.1272727272726" y2="440" stroke="#E0E0E0" stroke-width="0.8" />
<text x="433.5" y="386.72727272727263" font-family="sans-serif" font-size="13" text-anchor="end" fill="#E0E0E0">1</text>
<line x1="306.49999999999994" y1="440" x2="310.3999999999999" y2="440" stroke="#E0E0E0" stroke-width="0.8" />
<text x="433.5" y="313.99999999999994" font-family="sans-serif" font-size="13" text-anchor="end" fill="#E0E0E0">1.5</text>
<line x1="233.7727272727272" y1="440" x2="237.6727272727272" y2="440" stroke="#E0E0E0" stroke-width="0.8" />
<text x="433.5" y="241.2727272727272" font-family="sans-serif" font-size="13" text-anchor="end" fill="#E0E0E0">2</text>
<line x1="161.04545454545445" y1="440" x2="164.94545454545445" y2="440" stroke="#E0E0E0" stroke-width="0.8" />
<text x="433.5" y="168.54545454545445" font-family="sans-serif" font-size="13" text-anchor="end" fill="#E0E0E0">2.5</text>
<line x1="88.31818181818176" y1="440" x2="92.21818181818176" y2="440" stroke="#E0E0E0" stroke-width="0.8" />
<text x="433.5" y="95.81818181818176" font-family="sans-serif" font-size="13" text-anchor="end" fill="#E0E0E0">3</text>
<line x1="539.2272727272726" y1="440" x2="543.1272727272726" y2="440" stroke="#E0E0E0" stroke-width="0.8" />
<line x1="510.1363636363636" y1="440" x2="514.0363636363636" y2="440" stroke="#E0E0E0" stroke-width="0.8" />
<line x1="495.590909090909" y1="440" x2="499.490909090909" y2="440" stroke="#E0E0E0" stroke-width="0.8" />
<line x1="481.0454545454545" y1="440" x2="484.9454545454545" y2="440" stroke="#E0E0E0" stroke-width="0.8" />
<line x1="466.49999999999994" y1="440" x2="470.3999999999999" y2="440" stroke="#E0E0E0" stroke-width="0.8" />
<line x1="437.4090909090909" y1="440" x2="441.30909090909086" y2="440" stroke="#E0E0E0" stroke-width="0.8" />
<line x1="422.8636363636363" y1="440" x2="426.7636363636363" y2="440" stroke="#E0E0E0" stroke-width="0.8" />
<line x1="408.31818181818176" y1="440" x2="412.21818181818173" y2="440" stroke="#E0E0E0" stroke-width="0.8" />
<line x1="393.7727272727272" y1="440" x2="397.6727272727272" y2="440" stroke="#E0E0E0" stroke-width="0.8" />
<line x1="364.68181818181813" y1="440" x2="368.5818181818181" y2="440" stroke="#E0E0E0" stroke-width="0.8" />
<line x1="350.13636363636357" y1="440" x2="354.03636363636355" y2="440" stroke="#E0E0E0" stroke-width="0.8" />
<line x1="335.590909090909" y1="440" x2="339.490909090909" y2="440" stroke="#E0E0E0" stroke-width="0.8" />
<line x1="321.0454545454545" y1="440" x2="324.9454545454545" y2="440" stroke="#E0E0E0" stroke-width="0.8" />
<line x1="291.9545454545454" y1="440" x2="295.85454545454536" y2="440" stroke="#E0E0E0" stroke-width="0.8" />
<line x1="277.4090909090909" y1="440" x2="281.30909090909086" y2="440" stroke="#E0E0E0" stroke-width="0.8" />
<line x1="262.86363636363626" y1="440" x2="266.76363636363624" y2="440" stroke="#E0E0E0" stroke-width="0.8" />
<line x1="248.31818181818176" y1="440" x2="252.21818181818176" y2="440" stroke="#E0E0E0" stroke-width="0.8" />
<line x1="219.22727272727263" y1="440" x2="223.12727272727264" y2="440" stroke="#E0E0E0" stroke-width="0.8" />
<line x1="204.68181818181807" y1="440" x2="208.58181818181808" y2="440" stroke="#E0E0E0" stroke-width="0.8" />
<line x1="190.13636363636357" y1="440" x2="194.03636363636357" y2="440" stroke="#E0E0E0" stroke-width="0.8" />
<line x1="175.590909090909" y1="440" x2="179.490909090909" y2="440" stroke="#E0E0E0" stroke-width="0.8" />
<line x1="146.4999999999999" y1="440" x2="150.3999999999999" y2="440" stroke="#E0E0E0" stroke-width="0.8" />
<line x1="131.95454545454533" y1="440" x2="135.85454545454533" y2="440" stroke="#E0E0E0" stroke-width="0.8" />
<line x1="117.40909090909082" y1="440" x2="121.30909090909083" y2="440" stroke="#E0E0E0" stroke-width="0.8" />
<line x1="102.86363636363626" y1="440" x2="106.76363636363627" y2="440" stroke="#E0E0E0" stroke-width="0.8" />
<line x1="73.7727272727272" y1="440" x2="77.6727272727272" y2="440" stroke="#E0E0E0" stroke-width="0.8" />
<rect x="455.4545454545455" y="382.72727272727263" width="51.5151515151515" height="145.4545454545455" fill="#1F77B4" />
<rect x="506.969696969697" y="237.2727272727272" width="51.5151515151515" height="290.90909090909093" fill="#1F77B4" />
<rect x="558.4848484848485" y="91.81818181818176" width="51.5151515151515" height="436.3636363636364" fill="#1F77B4" />
<rect x="610" y="382.72727272727263" width="51.5151515151515" height="145.4545454545455" fill="#1F77B4" />
<rect x="661.5151515151515" y="237.2727272727272" width="51.5151515151515" height="290.90909090909093" fill="#1F77B4" />
<rect x="713.030303030303" y="91.81818181818176" width="51.5151515151515" height="436.3636363636364" fill="#1F77B4" />
<g class="spine">
<line x1="440" y1="550" x2="780" y2="550" stroke="#E0E0E0" stroke-width="0.8" />
</g>
<g class="spine">
<line x1="440" y1="70" x2="780" y2="70" stroke="#E0E0E0" stroke-width="0.8" />
</g>
<g class="spine">
<line x1="440" y1="70" x2="440" y2="550" stroke="#E0E0E0" stroke-width="0.8" />
</g>
<g class="spine">
<line x1="780" y1="70" x2="780" y2="550" stroke="#E0E0E0" stroke-width="0.8" />
</g>
</svg>
