<svg xmlns="http://www.w3.org/2000/svg" viewBox="0 0 900 400" width="900" height="400" style="width:100%;height:auto" role="img" aria-labelledby="chart-title">
<title id="chart-title">Stock Price — Jan to Mar 2025</title>
<rect x="0" y="0" width="900" height="400" fill="#FFFFFF" />
<path d="M10.7176 -12.6305L10.7176 -9.87033Q9.64323 -10.3507 8.62126 -10.5953Q7.59928 -10.8399 6.69086 -10.8399Q5.48546 -10.8399 4.90896 -10.508Q4.33247 -10.1761 4.33247 -9.47727Q4.33247 -8.95318 4.72116 -8.66056Q5.10986 -8.36795 6.13184 -8.15831L7.56434 -7.87006Q9.73931 -7.43332 10.6565 -6.54237Q11.5736 -5.65142 11.5736 -4.00928Q11.5736 -1.85178 10.294 -0.799235Q9.01432 0.253309 6.38515 0.253309Q5.1448 0.253309 3.89573 0.0174696Q2.64665 -0.21837 1.39757 -0.681315L1.39757 -3.52013Q2.64665 -2.85628 3.81274 -2.51999Q4.97884 -2.1837 6.06196 -2.1837Q7.16254 -2.1837 7.74778 -2.55056Q8.33301 -2.91743 8.33301 -3.59874Q8.33301 -4.21018 7.93557 -4.5421Q7.53814 -4.87402 6.35021 -5.13607L5.04872 -5.42432Q3.09212 -5.84359 2.18807 -6.76074Q1.28402 -7.6779 1.28402 -9.23269Q1.28402 -11.1806 2.54183 -12.2287Q3.79964 -13.2769 6.15804 -13.2769Q7.23242 -13.2769 8.36795 -13.1153Q9.50347 -12.9537 10.7176 -12.6305ZM17.8015 -12.5607L17.8015 -9.78299L21.0247 -9.78299L21.0247 -7.54688L17.8015 -7.54688L17.8015 -3.39784Q17.8015 -2.71653 18.0723 -2.47632Q18.3431 -2.23611 19.1467 -2.23611L20.7539 -2.23611L20.7539 0L18.0723 0Q16.2205 0 15.4475 -0.773031Q14.6745 -1.54606 14.6745 -3.39784L14.6745 -7.54688L13.1197 -7.54688L13.1197 -9.78299L14.6745 -9.78299L14.6745 -12.5607L17.8015 -12.5607ZM27.5933 -7.78271Q26.5538 -7.78271 26.0079 -7.03589Q25.462 -6.28906 25.462 -4.88276Q25.462 -3.47645 26.0079 -2.72963Q26.5538 -1.9828 27.5933 -1.9828Q28.6152 -1.9828 29.1568 -2.72963Q29.6984 -3.47645 29.6984 -4.88276Q29.6984 -6.28906 29.1568 -7.03589Q28.6152 -7.78271 27.5933 -7.78271ZM27.5933 -10.0188Q30.1176 -10.0188 31.537 -8.6562Q32.9564 -7.29357 32.9564 -4.88276Q32.9564 -2.47195 31.537 -1.10932Q30.1176 0.253309 27.5933 0.253309Q25.0602 0.253309 23.632 -1.10932Q22.2039 -2.47195 22.2039 -4.88276Q22.2039 -7.29357 23.632 -8.6562Q25.0602 -10.0188 27.5933 -10.0188ZM43.1325 -9.47727L43.1325 -6.9267Q42.4948 -7.36344 41.8528 -7.57308Q41.2108 -7.78271 40.5208 -7.78271Q39.2106 -7.78271 38.4812 -7.01842Q37.7518 -6.25412 37.7518 -4.88276Q37.7518 -3.51139 38.4812 -2.7471Q39.2106 -1.9828 40.5208 -1.9828Q41.2545 -1.9828 41.914 -2.20117Q42.5735 -2.41954 43.1325 -2.84755L43.1325 -0.288249C42.6433 -0.107729 42.1469 0.0276602 41.6432 0.11792Q40.8876 0.253309 40.1277 0.253309Q37.4811 0.253309 35.9874 -1.10495Q34.4938 -2.46322 34.4938 -4.88276Q34.4938 -7.3023 35.9874 -8.66056Q37.4811 -10.0188 40.1277 -10.0188Q40.8964 -10.0188 41.6432 -9.88344Q42.39 -9.74805 43.1325 -9.47727ZM45.8315 -13.5914L48.9586 -13.5914L48.9586 -6.19298L52.5573 -9.78299L56.191 -9.78299L51.4131 -5.29329L56.5666 0L52.7757 0L48.9586 -4.07916L48.9586 0L45.8315 0L45.8315 -13.5914ZM64.096 -13.0411L69.6776 -13.0411Q72.167 -13.0411 73.4991 -11.9361Q74.8311 -10.8312 74.8311 -8.78722Q74.8311 -6.73454 73.4991 -5.62958Q72.167 -4.52463 69.6776 -4.52463L67.4589 -4.52463L67.4589 0L64.096 0L64.096 -13.0411ZM67.4589 -10.6041L67.4589 -6.96164L69.3195 -6.96164Q70.2977 -6.96164 70.8306 -7.43769Q71.3634 -7.91374 71.3634 -8.78722Q71.3634 -9.6607 70.8306 -10.1324Q70.2977 -10.6041 69.3195 -10.6041L67.4589 -10.6041ZM84.3346 -7.11887Q83.924 -7.31103 83.5179 -7.40275Q83.1117 -7.49447 82.7012 -7.49447Q81.4958 -7.49447 80.845 -6.72144Q80.1943 -5.94841 80.1943 -4.50716L80.1943 0L77.0672 0L77.0672 -9.78299L80.1943 -9.78299L80.1943 -8.17578Q80.797 -9.13661 81.5788 -9.57772Q82.3605 -10.0188 83.4524 -10.0188Q83.6096 -10.0188 83.793 -10.0057Q83.9765 -9.99262 84.3259 -9.94895L84.3346 -7.11887ZM85.8894 -9.78299L89.0164 -9.78299L89.0164 0L85.8894 0L85.8894 -9.78299ZM85.8894 -13.5914L89.0164 -13.5914L89.0164 -11.0408L85.8894 -11.0408L85.8894 -13.5914ZM99.9262 -9.47727L99.9262 -6.9267Q99.2886 -7.36344 98.6466 -7.57308Q98.0046 -7.78271 97.3145 -7.78271Q96.0043 -7.78271 95.2749 -7.01842Q94.5456 -6.25412 94.5456 -4.88276Q94.5456 -3.51139 95.2749 -2.7471Q96.0043 -1.9828 97.3145 -1.9828Q98.0482 -1.9828 98.7077 -2.20117Q99.3672 -2.41954 99.9262 -2.84755L99.9262 -0.288249C99.4371 -0.107729 98.9406 0.0276602 98.4369 0.11792Q97.6814 0.253309 96.9214 0.253309Q94.2748 0.253309 92.7811 -1.10495Q91.2875 -2.46322 91.2875 -4.88276Q91.2875 -7.3023 92.7811 -8.66056Q94.2748 -10.0188 96.9214 -10.0188Q97.6901 -10.0188 98.4369 -9.88344Q99.1838 -9.74805 99.9262 -9.47727ZM112.391 -4.9177L112.391 -4.02675L105.08 -4.02675Q105.193 -2.92616 105.875 -2.37587Q106.556 -1.82558 107.779 -1.82558Q108.766 -1.82558 109.801 -2.11819Q110.836 -2.41081 111.928 -3.00477L111.928 -0.593967Q110.819 -0.174696 109.709 0.0393066Q108.6 0.253309 107.491 0.253309Q104.835 0.253309 103.363 -1.09622Q101.892 -2.44575 101.892 -4.88276Q101.892 -7.2761 103.337 -8.64746Q104.783 -10.0188 107.316 -10.0188Q109.622 -10.0188 111.006 -8.62999Q112.391 -7.24116 112.391 -4.9177ZM109.176 -5.95714Q109.176 -6.84809 108.657 -7.39402Q108.137 -7.93994 107.298 -7.93994Q106.39 -7.93994 105.822 -7.42896Q105.254 -6.91797 105.115 -5.95714L109.176 -5.95714ZM120.444 -6.02702L136.412 -6.02702L136.412 -3.77344L120.444 -3.77344L120.444 -6.02702ZM145.242 -13.0411L148.605 -13.0411L148.605 -1.26655Q148.605 1.17046 147.282 2.37587Q145.959 3.58127 143.277 3.58127L142.596 3.58127L142.596 1.03944L143.12 1.03944Q144.168 1.03944 144.705 0.45421Q145.242 -0.131022 145.242 -1.26655L145.242 -13.0411ZM156.143 -4.40234Q155.165 -4.40234 154.672 -4.07042Q154.178 -3.7385 154.178 -3.09212Q154.178 -2.49816 154.576 -2.16187Q154.973 -1.82558 155.681 -1.82558Q156.563 -1.82558 157.165 -2.45885Q157.768 -3.09212 157.768 -4.04422L157.768 -4.40234L156.143 -4.40234ZM160.921 -5.58154L160.921 0L157.768 0L157.768 -1.44998Q157.139 -0.559028 156.353 -0.152859Q155.567 0.253309 154.44 0.253309Q152.92 0.253309 151.973 -0.633274Q151.025 -1.51986 151.025 -2.9349Q151.025 -4.65565 152.208 -5.45926Q153.392 -6.26286 155.925 -6.26286L157.768 -6.26286L157.768 -6.50743Q157.768 -7.24989 157.183 -7.59492Q156.598 -7.93994 155.357 -7.93994Q154.353 -7.93994 153.488 -7.73904Q152.623 -7.53814 151.881 -7.13634L151.881 -9.52094Q152.885 -9.76552 153.899 -9.89217Q154.912 -10.0188 155.925 -10.0188Q158.572 -10.0188 159.747 -8.97502Q160.921 -7.93121 160.921 -5.58154ZM173.665 -5.95714L173.665 0L170.521 0L170.521 -0.969564L170.521 -4.55957Q170.521 -5.82612 170.464 -6.30653Q170.407 -6.78695 170.268 -7.01405Q170.084 -7.31977 169.77 -7.4901Q169.455 -7.66043 169.053 -7.66043Q168.075 -7.66043 167.516 -6.90487Q166.957 -6.14931 166.957 -4.81288L166.957 0L163.83 0L163.83 -9.78299L166.957 -9.78299L166.957 -8.35048Q167.665 -9.20649 168.46 -9.61266Q169.254 -10.0188 170.215 -10.0188Q171.91 -10.0188 172.788 -8.97938Q173.665 -7.93994 173.665 -5.95714ZM186.209 -12.5607L186.209 -9.78299L189.432 -9.78299L189.432 -7.54688L186.209 -7.54688L186.209 -3.39784Q186.209 -2.71653 186.479 -2.47632Q186.75 -2.23611 187.554 -2.23611L189.161 -2.23611L189.161 0L186.479 0Q184.628 0 183.855 -0.773031Q183.082 -1.54606 183.082 -3.39784L183.082 -7.54688L181.527 -7.54688L181.527 -9.78299L183.082 -9.78299L183.082 -12.5607L186.209 -12.5607ZM196 -7.78271Q194.961 -7.78271 194.415 -7.03589Q193.869 -6.28906 193.869 -4.88276Q193.869 -3.47645 194.415 -2.72963Q194.961 -1.9828 196 -1.9828Q197.022 -1.9828 197.564 -2.72963Q198.105 -3.47645 198.105 -4.88276Q198.105 -6.28906 197.564 -7.03589Q197.022 -7.78271 196 -7.78271ZM196 -10.0188Q198.525 -10.0188 199.944 -8.6562Q201.364 -7.29357 201.364 -4.88276Q201.364 -2.47195 199.944 -1.10932Q198.525 0.253309 196 0.253309Q193.467 0.253309 192.039 -1.10932Q190.611 -2.47195 190.611 -4.88276Q190.611 -7.29357 192.039 -8.6562Q193.467 -10.0188 196 -10.0188ZM210.002 -13.0411L214.282 -13.0411L217.252 -6.06196L220.239 -13.0411L224.511 -13.0411L224.511 0L221.331 0L221.331 -9.53841L218.327 -2.50689L216.195 -2.50689L213.19 -9.53841L213.19 0L210.002 0L210.002 -13.0411ZM232.049 -4.40234Q231.071 -4.40234 230.577 -4.07042Q230.084 -3.7385 230.084 -3.09212Q230.084 -2.49816 230.481 -2.16187Q230.878 -1.82558 231.586 -1.82558Q232.468 -1.82558 233.071 -2.45885Q233.674 -3.09212 233.674 -4.04422L233.674 -4.40234L232.049 -4.40234ZM236.827 -5.58154L236.827 0L233.674 0L233.674 -1.44998Q233.045 -0.559028 232.259 -0.152859Q231.472 0.253309 230.346 0.253309Q228.826 0.253309 227.878 -0.633274Q226.93 -1.51986 226.93 -2.9349Q226.93 -4.65565 228.114 -5.45926Q229.297 -6.26286 231.831 -6.26286L233.674 -6.26286L233.674 -6.50743Q233.674 -7.24989 233.088 -7.59492Q232.503 -7.93994 231.263 -7.93994Q230.258 -7.93994 229.394 -7.73904Q228.529 -7.53814 227.786 -7.13634L227.786 -9.52094Q228.791 -9.76552 229.804 -9.89217Q230.817 -10.0188 231.831 -10.0188Q234.477 -10.0188 235.652 -8.97502Q236.827 -7.93121 236.827 -5.58154ZM247.003 -7.11887Q246.592 -7.31103 246.186 -7.40275Q245.78 -7.49447 245.37 -7.49447Q244.164 -7.49447 243.513 -6.72144Q242.863 -5.94841 242.863 -4.50716L242.863 0L239.736 0L239.736 -9.78299L242.863 -9.78299L242.863 -8.17578Q243.465 -9.13661 244.247 -9.57772Q245.029 -10.0188 246.121 -10.0188Q246.278 -10.0188 246.461 -10.0057Q246.645 -9.99262 246.994 -9.94895L247.003 -7.11887ZM258.437 -2.47195L264.176 -2.47195L264.176 0L254.698 0L254.698 -2.47195L259.459 -6.67339Q260.096 -7.24989 260.402 -7.80018Q260.708 -8.35048 260.708 -8.94444Q260.708 -9.8616 260.092 -10.4206Q259.476 -10.9797 258.454 -10.9797Q257.668 -10.9797 256.734 -10.6434Q255.799 -10.3071 254.733 -9.64323L254.733 -12.5082Q255.869 -12.8838 256.978 -13.0804Q258.087 -13.2769 259.153 -13.2769Q261.494 -13.2769 262.791 -12.2462Q264.088 -11.2155 264.088 -9.37245Q264.088 -8.3068 263.538 -7.38528Q262.988 -6.46376 261.223 -4.9177L258.437 -2.47195ZM273.959 -6.53364Q273.959 -8.97938 273.5 -9.97952Q273.041 -10.9797 271.958 -10.9797Q270.875 -10.9797 270.412 -9.97952Q269.949 -8.97938 269.949 -6.53364Q269.949 -4.06169 270.412 -3.04845Q270.875 -2.03521 271.958 -2.03521Q273.033 -2.03521 273.496 -3.04845Q273.959 -4.06169 273.959 -6.53364ZM277.321 -6.50743Q277.321 -3.26682 275.924 -1.50675Q274.526 0.253309 271.958 0.253309Q269.382 0.253309 267.984 -1.50675Q266.586 -3.26682 266.586 -6.50743Q266.586 -9.75678 267.984 -11.5168Q269.382 -13.2769 271.958 -13.2769Q274.526 -13.2769 275.924 -11.5168Q277.321 -9.75678 277.321 -6.50743ZM283.331 -2.47195L289.07 -2.47195L289.07 0L279.593 0L279.593 -2.47195L284.353 -6.67339Q284.991 -7.24989 285.296 -7.80018Q285.602 -8.35048 285.602 -8.94444Q285.602 -9.8616 284.986 -10.4206Q284.37 -10.9797 283.349 -10.9797Q282.562 -10.9797 281.628 -10.6434Q280.693 -10.3071 279.627 -9.64323L279.627 -12.5082Q280.763 -12.8838 281.872 -13.0804Q282.982 -13.2769 284.047 -13.2769Q286.388 -13.2769 287.685 -12.2462Q288.982 -11.2155 288.982 -9.37245Q288.982 -8.3068 288.432 -7.38528Q287.882 -6.46376 286.117 -4.9177L283.331 -2.47195ZM292.52 -13.0411L300.879 -13.0411L300.879 -10.5691L295.202 -10.5691L295.202 -8.55138Q295.586 -8.6562 295.975 -8.71297Q296.363 -8.76975 296.783 -8.76975Q299.167 -8.76975 300.495 -7.57745Q301.823 -6.38515 301.823 -4.25385Q301.823 -2.14003 300.377 -0.943359Q298.931 0.253309 296.363 0.253309Q295.254 0.253309 294.167 0.0393066Q293.079 -0.174696 292.005 -0.611437L292.005 -3.25808Q293.07 -2.64665 294.027 -2.34093Q294.983 -2.03521 295.831 -2.03521Q297.053 -2.03521 297.757 -2.63354Q298.46 -3.23188 298.46 -4.25385Q298.46 -5.28456 297.757 -5.87853Q297.053 -6.47249 295.831 -6.47249Q295.106 -6.47249 294.284 -6.2847Q293.463 -6.0969 292.52 -5.70383L292.52 -13.0411Z" fill="#262626" transform="translate(450,24.099999999999998) translate(-151.53585815429688,0)" />
<rect x="112" y="48" width="698" height="308" fill="#FFFFFF" />
<line x1="129.46782431052998" y1="355.6" x2="129.46782431052998" y2="360.8611111111111" stroke="#262626" stroke-width="1.1111111111111112" />
<path d="M2.73302 -8.9993L2.73302 -1.12576L4.38775 -1.12576Q6.48329 -1.12576 7.45646 -2.0752Q8.42963 -3.02463 8.42963 -5.0727Q8.42963 -7.1072 7.45646 -8.05325Q6.48329 -8.9993 4.38775 -8.9993L2.73302 -8.9993ZM1.36312 -10.1251L4.17752 -10.1251Q7.12077 -10.1251 8.49745 -8.90096Q9.87413 -7.67687 9.87413 -5.0727Q9.87413 -2.45497 8.49067 -1.22748Q7.1072 0 4.17752 0L1.36312 0L1.36312 -10.1251ZM18.5004 -4.1097L18.5004 -3.49935L12.7631 -3.49935Q12.8445 -2.21083 13.5396 -1.53605Q14.2348 -0.861274 15.4758 -0.861274Q16.1947 -0.861274 16.8694 -1.0376Q17.5442 -1.21392 18.2088 -1.56657L18.2088 -0.386556Q17.5374 -0.101725 16.8321 0.0474718Q16.1268 0.196669 15.4012 0.196669Q13.5837 0.196669 12.5224 -0.861274Q11.461 -1.91922 11.461 -3.72314Q11.461 -5.58811 12.4681 -6.68335Q13.4752 -7.77859 15.1842 -7.77859Q16.7169 -7.77859 17.6086 -6.79186Q18.5004 -5.80512 18.5004 -4.1097ZM17.2526 -4.47591Q17.239 -5.49995 16.6796 -6.1103Q16.1201 -6.72065 15.1978 -6.72065Q14.1534 -6.72065 13.5261 -6.13064Q12.8988 -5.54064 12.8038 -4.46913L17.2526 -4.47591ZM26.0145 -7.30387L26.0145 -6.13742Q25.4856 -6.42904 24.9532 -6.57484Q24.4208 -6.72065 23.8783 -6.72065Q22.6644 -6.72065 21.993 -5.95093Q21.3216 -5.18121 21.3216 -3.79096Q21.3216 -2.40072 21.993 -1.631Q22.6644 -0.861274 23.8783 -0.861274Q24.4208 -0.861274 24.9532 -1.00708Q25.4856 -1.15289 26.0145 -1.4445L26.0145 -0.291612Q25.4924 -0.0474718 24.9329 0.0745985Q24.3734 0.196669 23.7427 0.196669Q22.0269 0.196669 21.0164 -0.881619Q20.006 -1.95991 20.006 -3.79096Q20.006 -5.64914 21.0266 -6.71387Q22.0473 -7.77859 23.8241 -7.77859Q24.4005 -7.77859 24.9498 -7.65991Q25.4991 -7.54123 26.0145 -7.30387ZM36.9263 -5.45926Q37.9096 -5.24902 38.4623 -4.58442Q39.015 -3.91981 39.015 -2.94325Q39.015 -1.4445 37.9842 -0.623915Q36.9534 0.196669 35.0545 0.196669Q34.417 0.196669 33.7423 0.0712077Q33.0675 -0.0542535 32.3486 -0.305176L32.3486 -1.6276Q32.9183 -1.2953 33.5965 -1.12576Q34.2746 -0.956217 35.0138 -0.956217Q36.3024 -0.956217 36.9771 -1.46484Q37.6519 -1.97347 37.6519 -2.94325Q37.6519 -3.83843 37.0246 -4.34367Q36.3973 -4.8489 35.2783 -4.8489L34.0983 -4.8489L34.0983 -5.97466L35.3326 -5.97466Q36.343 -5.97466 36.8788 -6.37817Q37.4146 -6.78168 37.4146 -7.54123Q37.4146 -8.32113 36.8618 -8.7382Q36.3091 -9.15527 35.2783 -9.15527Q34.7154 -9.15527 34.0712 -9.0332Q33.4269 -8.91113 32.6538 -8.65343L32.6538 -9.87413Q33.4337 -10.0911 34.1153 -10.1997Q34.7968 -10.3082 35.4004 -10.3082Q36.9602 -10.3082 37.8689 -9.59947Q38.7777 -8.89079 38.7777 -7.68365Q38.7777 -6.84272 38.2962 -6.26289Q37.8147 -5.68305 36.9263 -5.45926ZM44.5421 -9.22309Q43.4842 -9.22309 42.9518 -8.1821Q42.4194 -7.14111 42.4194 -5.05235Q42.4194 -2.97038 42.9518 -1.92939Q43.4842 -0.888401 44.5421 -0.888401Q45.6068 -0.888401 46.1392 -1.92939Q46.6716 -2.97038 46.6716 -5.05235Q46.6716 -7.14111 46.1392 -8.1821Q45.6068 -9.22309 44.5421 -9.22309ZM44.5421 -10.3082Q46.2443 -10.3082 47.1429 -8.962Q48.0415 -7.61583 48.0415 -5.05235Q48.0415 -2.49566 47.1429 -1.1495Q46.2443 0.196669 44.5421 0.196669Q42.8399 0.196669 41.9413 -1.1495Q41.0428 -2.49566 41.0428 -5.05235Q41.0428 -7.61583 41.9413 -8.962Q42.8399 -10.3082 44.5421 -10.3082Z" fill="#262626" transform="translate(129.46782431052998,379.6111111111111) translate(-24.48188018798828,0)" />
<line x1="229.28396322776098" y1="355.6" x2="229.28396322776098" y2="360.8611111111111" stroke="#262626" stroke-width="1.1111111111111112" />
<path d="M1.36312 -10.1251L2.73302 -10.1251L2.73302 -0.705295Q2.73302 1.12576 2.0379 1.95313Q1.34277 2.78049 -0.196669 2.78049L-0.718859 2.78049L-0.718859 1.6276L-0.291612 1.6276Q0.617133 1.6276 0.990126 1.11898Q1.36312 0.610352 1.36312 -0.705295L1.36312 -10.1251ZM8.85688 -3.81809Q7.34456 -3.81809 6.76134 -3.47222Q6.17811 -3.12636 6.17811 -2.29221Q6.17811 -1.6276 6.61553 -1.23766Q7.05295 -0.84771 7.80572 -0.847711Q8.84332 -0.847711 9.47062 -1.58352Q10.0979 -2.31934 10.0979 -3.54004L10.0979 -3.81809L8.85688 -3.81809ZM11.3458 -4.3335L11.3458 0L10.0979 0L10.0979 -1.15289Q9.67068 -0.461155 9.0332 -0.132243Q8.39573 0.196669 7.47342 0.196669Q6.30697 0.196669 5.61863 -0.457764Q4.93028 -1.1122 4.93028 -2.21083Q4.93028 -3.49257 5.78817 -4.14361Q6.64605 -4.79465 8.34825 -4.79465L10.0979 -4.79465L10.0979 -4.91672Q10.0979 -5.77799 9.53166 -6.24932Q8.96539 -6.72065 7.94135 -6.72065Q7.29031 -6.72065 6.67318 -6.56467Q6.05604 -6.40869 5.48638 -6.09673L5.48638 -7.24962Q6.17133 -7.51411 6.81559 -7.64635Q7.45985 -7.77859 8.0702 -7.77859Q9.71815 -7.77859 10.532 -6.9241Q11.3458 -6.06961 11.3458 -4.3335ZM20.2298 -4.58442L20.2298 0L18.9819 0L18.9819 -4.54373Q18.9819 -5.62202 18.5615 -6.15777Q18.141 -6.69352 17.3001 -6.69352Q16.2896 -6.69352 15.7064 -6.04926Q15.1232 -5.405 15.1232 -4.29281L15.1232 0L13.8685 0L13.8685 -7.59549L15.1232 -7.59549L15.1232 -6.41547Q15.5707 -7.10042 16.1777 -7.43951Q16.7847 -7.77859 17.5781 -7.77859Q18.887 -7.77859 19.5584 -6.96818Q20.2298 -6.15777 20.2298 -4.58442ZM27.5472 -1.15289L29.7852 -1.15289L29.7852 -8.87722L27.3505 -8.38894L27.3505 -9.63677L29.7716 -10.1251L31.1415 -10.1251L31.1415 -1.15289L33.3795 -1.15289L33.3795 0L27.5472 0L27.5472 -1.15289ZM40.2968 -5.45926Q41.2801 -5.24902 41.8328 -4.58442Q42.3855 -3.91981 42.3855 -2.94325Q42.3855 -1.4445 41.3547 -0.623915Q40.3239 0.196669 38.425 0.196669Q37.7875 0.196669 37.1128 0.0712077Q36.438 -0.0542535 35.7191 -0.305176L35.7191 -1.6276Q36.2888 -1.2953 36.967 -1.12576Q37.6451 -0.956217 38.3843 -0.956217Q39.6729 -0.956217 40.3476 -1.46484Q41.0224 -1.97347 41.0224 -2.94325Q41.0224 -3.83843 40.3951 -4.34367Q39.7678 -4.8489 38.6488 -4.8489L37.4688 -4.8489L37.4688 -5.97466L38.7031 -5.97466Q39.7135 -5.97466 40.2493 -6.37817Q40.785 -6.78168 40.785 -7.54123Q40.785 -8.32113 40.2323 -8.7382Q39.6796 -9.15527 38.6488 -9.15527Q38.0859 -9.15527 37.4417 -9.0332Q36.7974 -8.91113 36.0243 -8.65343L36.0243 -9.87413Q36.8042 -10.0911 37.4858 -10.1997Q38.1673 -10.3082 38.7709 -10.3082Q40.3307 -10.3082 41.2394 -9.59947Q42.1482 -8.89079 42.1482 -7.68365Q42.1482 -6.84272 41.6667 -6.26289Q41.1852 -5.68305 40.2968 -5.45926Z" fill="#262626" transform="translate(229.28396322776098,379.6111111111111) translate(-21.748863220214844,0)" />
<line x1="329.1001021450502" y1="355.6" x2="329.1001021450502" y2="360.8611111111111" stroke="#262626" stroke-width="1.1111111111111112" />
<path d="M1.36312 -10.1251L2.73302 -10.1251L2.73302 -0.705295Q2.73302 1.12576 2.0379 1.95313Q1.34277 2.78049 -0.196669 2.78049L-0.718859 2.78049L-0.718859 1.6276L-0.291612 1.6276Q0.617133 1.6276 0.990126 1.11898Q1.36312 0.610352 1.36312 -0.705295L1.36312 -10.1251ZM8.85688 -3.81809Q7.34456 -3.81809 6.76134 -3.47222Q6.17811 -3.12636 6.17811 -2.29221Q6.17811 -1.6276 6.61553 -1.23766Q7.05295 -0.84771 7.80572 -0.847711Q8.84332 -0.847711 9.47062 -1.58352Q10.0979 -2.31934 10.0979 -3.54004L10.0979 -3.81809L8.85688 -3.81809ZM11.3458 -4.3335L11.3458 0L10.0979 0L10.0979 -1.15289Q9.67068 -0.461155 9.0332 -0.132243Q8.39573 0.196669 7.47342 0.196669Q6.30697 0.196669 5.61863 -0.457764Q4.93028 -1.1122 4.93028 -2.21083Q4.93028 -3.49257 5.78817 -4.14361Q6.64605 -4.79465 8.34825 -4.79465L10.0979 -4.79465L10.0979 -4.91672Q10.0979 -5.77799 9.53166 -6.24932Q8.96539 -6.72065 7.94135 -6.72065Q7.29031 -6.72065 6.67318 -6.56467Q6.05604 -6.40869 5.48638 -6.09673L5.48638 -7.24962Q6.17133 -7.51411 6.81559 -7.64635Q7.45985 -7.77859 8.0702 -7.77859Q9.71815 -7.77859 10.532 -6.9241Q11.3458 -6.06961 11.3458 -4.3335ZM20.2298 -4.58442L20.2298 0L18.9819 0L18.9819 -4.54373Q18.9819 -5.62202 18.5615 -6.15777Q18.141 -6.69352 17.3001 -6.69352Q16.2896 -6.69352 15.7064 -6.04926Q15.1232 -5.405 15.1232 -4.29281L15.1232 0L13.8685 0L13.8685 -7.59549L15.1232 -7.59549L15.1232 -6.41547Q15.5707 -7.10042 16.1777 -7.43951Q16.7847 -7.77859 17.5781 -7.77859Q18.887 -7.77859 19.5584 -6.96818Q20.2298 -6.15777 20.2298 -4.58442ZM28.4899 -1.15289L33.2709 -1.15289L33.2709 0L26.8419 0L26.8419 -1.15289Q27.6218 -1.95991 28.968 -3.31963Q30.3141 -4.67936 30.66 -5.0727Q31.3178 -5.8119 31.5789 -6.32392Q31.84 -6.83594 31.84 -7.331Q31.84 -8.13802 31.2737 -8.64665Q30.7075 -9.15527 29.7987 -9.15527Q29.1545 -9.15527 28.439 -8.93148Q27.7235 -8.70768 26.9097 -8.25331L26.9097 -9.63677Q27.7371 -9.96908 28.4559 -10.1386Q29.1748 -10.3082 29.7716 -10.3082Q31.3449 -10.3082 32.2808 -9.52148Q33.2167 -8.73481 33.2167 -7.41916Q33.2167 -6.79525 32.9827 -6.23576Q32.7488 -5.67627 32.1316 -4.91672Q31.9621 -4.72005 31.0533 -3.78079Q30.1446 -2.84153 28.4899 -1.15289ZM35.8005 -10.1251L42.3109 -10.1251L42.3109 -9.54183L38.6353 0L37.2043 0L40.663 -8.97217L35.8005 -8.97217L35.8005 -10.1251Z" fill="#262626" transform="translate(329.1001021450502,379.6111111111111) translate(-21.748863220214844,0)" />
<line x1="428.9162410622812" y1="355.6" x2="428.9162410622812" y2="360.8611111111111" stroke="#262626" stroke-width="1.1111111111111112" />
<path d="M1.36312 -10.1251L7.1818 -10.1251L7.1818 -8.97217L2.73302 -8.97217L2.73302 -5.98823L6.74778 -5.98823L6.74778 -4.83534L2.73302 -4.83534L2.73302 0L1.36312 0L1.36312 -10.1251ZM15.7945 -4.1097L15.7945 -3.49935L10.0572 -3.49935Q10.1386 -2.21083 10.8337 -1.53605Q11.5289 -0.861274 12.7699 -0.861274Q13.4888 -0.861274 14.1635 -1.0376Q14.8383 -1.21392 15.5029 -1.56657L15.5029 -0.386556Q14.8315 -0.101725 14.1262 0.0474718Q13.421 0.196669 12.6953 0.196669Q10.8778 0.196669 9.81649 -0.861274Q8.75515 -1.91922 8.75515 -3.72314Q8.75515 -5.58811 9.76223 -6.68335Q10.7693 -7.77859 12.4783 -7.77859Q14.011 -7.77859 14.9028 -6.79186Q15.7945 -5.80512 15.7945 -4.1097ZM14.5467 -4.47591Q14.5331 -5.49995 13.9737 -6.1103Q13.4142 -6.72065 12.4919 -6.72065Q11.4475 -6.72065 10.8202 -6.13064Q10.1929 -5.54064 10.0979 -4.46913L14.5467 -4.47591ZM23.2951 -3.79096Q23.2951 -5.16764 22.7288 -5.95093Q22.1625 -6.73421 21.1724 -6.73421Q20.1823 -6.73421 19.616 -5.95093Q19.0497 -5.16764 19.0497 -3.79096Q19.0497 -2.41428 19.616 -1.631Q20.1823 -0.847711 21.1724 -0.847711Q22.1625 -0.847711 22.7288 -1.631Q23.2951 -2.41428 23.2951 -3.79096ZM19.0497 -6.4426Q19.4431 -7.12077 20.0433 -7.44968Q20.6434 -7.77859 21.4776 -7.77859Q22.8611 -7.77859 23.7257 -6.67996Q24.5904 -5.58133 24.5904 -3.79096Q24.5904 -2.0006 23.7257 -0.901964Q22.8611 0.196669 21.4776 0.196669Q20.6434 0.196669 20.0433 -0.132243Q19.4431 -0.461155 19.0497 -1.13932L19.0497 0L17.7951 0L17.7951 -10.5523L19.0497 -10.5523L19.0497 -6.4426ZM31.4874 -1.15289L33.7253 -1.15289L33.7253 -8.87722L31.2907 -8.38894L31.2907 -9.63677L33.7118 -10.1251L35.0816 -10.1251L35.0816 -1.15289L37.3196 -1.15289L37.3196 0L31.4874 0L31.4874 -1.15289ZM43.0162 -9.22309Q41.9583 -9.22309 41.4259 -8.1821Q40.8936 -7.14111 40.8936 -5.05235Q40.8936 -2.97038 41.4259 -1.92939Q41.9583 -0.888401 43.0162 -0.888401Q44.0809 -0.888401 44.6133 -1.92939Q45.1457 -2.97038 45.1457 -5.05235Q45.1457 -7.14111 44.6133 -8.1821Q44.0809 -9.22309 43.0162 -9.22309ZM43.0162 -10.3082Q44.7184 -10.3082 45.617 -8.962Q46.5156 -7.61583 46.5156 -5.05235Q46.5156 -2.49566 45.617 -1.1495Q44.7184 0.196669 43.0162 0.196669Q41.314 0.196669 40.4154 -1.1495Q39.5169 -2.49566 39.5169 -5.05235Q39.5169 -7.61583 40.4154 -8.962Q41.314 -10.3082 43.0162 -10.3082Z" fill="#262626" transform="translate(428.9162410622812,379.6111111111111) translate(-23.71894073486328,0)" />
<line x1="528.7323799795704" y1="355.6" x2="528.7323799795704" y2="360.8611111111111" stroke="#262626" stroke-width="1.1111111111111112" />
<path d="M1.36312 -10.1251L7.1818 -10.1251L7.1818 -8.97217L2.73302 -8.97217L2.73302 -5.98823L6.74778 -5.98823L6.74778 -4.83534L2.73302 -4.83534L2.73302 0L1.36312 0L1.36312 -10.1251ZM15.7945 -4.1097L15.7945 -3.49935L10.0572 -3.49935Q10.1386 -2.21083 10.8337 -1.53605Q11.5289 -0.861274 12.7699 -0.861274Q13.4888 -0.861274 14.1635 -1.0376Q14.8383 -1.21392 15.5029 -1.56657L15.5029 -0.386556Q14.8315 -0.101725 14.1262 0.0474718Q13.421 0.196669 12.6953 0.196669Q10.8778 0.196669 9.81649 -0.861274Q8.75515 -1.91922 8.75515 -3.72314Q8.75515 -5.58811 9.76223 -6.68335Q10.7693 -7.77859 12.4783 -7.77859Q14.011 -7.77859 14.9028 -6.79186Q15.7945 -5.80512 15.7945 -4.1097ZM14.5467 -4.47591Q14.5331 -5.49995 13.9737 -6.1103Q13.4142 -6.72065 12.4919 -6.72065Q11.4475 -6.72065 10.8202 -6.13064Q10.1929 -5.54064 10.0979 -4.46913L14.5467 -4.47591ZM23.2951 -3.79096Q23.2951 -5.16764 22.7288 -5.95093Q22.1625 -6.73421 21.1724 -6.73421Q20.1823 -6.73421 19.616 -5.95093Q19.0497 -5.16764 19.0497 -3.79096Q19.0497 -2.41428 19.616 -1.631Q20.1823 -0.847711 21.1724 -0.847711Q22.1625 -0.847711 22.7288 -1.631Q23.2951 -2.41428 23.2951 -3.79096ZM19.0497 -6.4426Q19.4431 -7.12077 20.0433 -7.44968Q20.6434 -7.77859 21.4776 -7.77859Q22.8611 -7.77859 23.7257 -6.67996Q24.5904 -5.58133 24.5904 -3.79096Q24.5904 -2.0006 23.7257 -0.901964Q22.8611 0.196669 21.4776 0.196669Q20.6434 0.196669 20.0433 -0.132243Q19.4431 -0.461155 19.0497 -1.13932L19.0497 0L17.7951 0L17.7951 -10.5523L19.0497 -10.5523L19.0497 -6.4426ZM32.43 -1.15289L37.2111 -1.15289L37.2111 0L30.7821 0L30.7821 -1.15289Q31.562 -1.95991 32.9081 -3.31963Q34.2543 -4.67936 34.6002 -5.0727Q35.258 -5.8119 35.5191 -6.32392Q35.7802 -6.83594 35.7802 -7.331Q35.7802 -8.13802 35.2139 -8.64665Q34.6476 -9.15527 33.7389 -9.15527Q33.0946 -9.15527 32.3792 -8.93148Q31.6637 -8.70768 30.8499 -8.25331L30.8499 -9.63677Q31.6772 -9.96908 32.3961 -10.1386Q33.115 -10.3082 33.7118 -10.3082Q35.2851 -10.3082 36.221 -9.52148Q37.1568 -8.73481 37.1568 -7.41916Q37.1568 -6.79525 36.9229 -6.23576Q36.6889 -5.67627 36.0718 -4.91672Q35.9022 -4.72005 34.9935 -3.78079Q34.0847 -2.84153 32.43 -1.15289ZM43.8504 -8.93148L40.3917 -3.52648L43.8504 -3.52648L43.8504 -8.93148ZM43.4909 -10.1251L45.2135 -10.1251L45.2135 -3.52648L46.658 -3.52648L46.658 -2.38715L45.2135 -2.38715L45.2135 0L43.8504 0L43.8504 -2.38715L39.2795 -2.38715L39.2795 -3.70958L43.4909 -10.1251Z" fill="#262626" transform="translate(528.7323799795704,379.6111111111111) translate(-23.71894073486328,0)" />
<line x1="628.5485188968596" y1="355.6" x2="628.5485188968596" y2="360.8611111111111" stroke="#262626" stroke-width="1.1111111111111112" />
<path d="M1.36312 -10.1251L3.40441 -10.1251L5.98823 -3.23486L8.58561 -10.1251L10.6269 -10.1251L10.6269 0L9.29091 0L9.29091 -8.89079L6.67996 -1.94634L5.30328 -1.94634L2.69233 -8.89079L2.69233 0L1.36312 0L1.36312 -10.1251ZM16.744 -3.81809Q15.2317 -3.81809 14.6484 -3.47222Q14.0652 -3.12636 14.0652 -2.29221Q14.0652 -1.6276 14.5026 -1.23766Q14.9401 -0.84771 15.6928 -0.847711Q16.7304 -0.847711 17.3577 -1.58352Q17.985 -2.31934 17.985 -3.54004L17.985 -3.81809L16.744 -3.81809ZM19.2329 -4.3335L19.2329 0L17.985 0L17.985 -1.15289Q17.5578 -0.461155 16.9203 -0.132243Q16.2828 0.196669 15.3605 0.196669Q14.1941 0.196669 13.5057 -0.457764Q12.8174 -1.1122 12.8174 -2.21083Q12.8174 -3.49257 13.6753 -4.14361Q14.5331 -4.79465 16.2354 -4.79465L17.985 -4.79465L17.985 -4.91672Q17.985 -5.77799 17.4188 -6.24932Q16.8525 -6.72065 15.8285 -6.72065Q15.1774 -6.72065 14.5603 -6.56467Q13.9431 -6.40869 13.3735 -6.09673L13.3735 -7.24962Q14.0584 -7.51411 14.7027 -7.64635Q15.347 -7.77859 15.9573 -7.77859Q17.6053 -7.77859 18.4191 -6.9241Q19.2329 -6.06961 19.2329 -4.3335ZM26.2044 -6.42904Q25.9942 -6.55111 25.7467 -6.60875Q25.4991 -6.6664 25.2007 -6.6664Q24.1428 -6.6664 23.5765 -5.97805Q23.0103 -5.28971 23.0103 -4.00119L23.0103 0L21.7556 0L21.7556 -7.59549L23.0103 -7.59549L23.0103 -6.41547Q23.4036 -7.1072 24.0343 -7.4429Q24.665 -7.77859 25.567 -7.77859Q25.6958 -7.77859 25.8518 -7.76164Q26.0078 -7.74468 26.1976 -7.71077L26.2044 -6.42904ZM32.3419 -1.15289L34.5798 -1.15289L34.5798 -8.87722L32.1452 -8.38894L32.1452 -9.63677L34.5662 -10.1251L35.9361 -10.1251L35.9361 -1.15289L38.1741 -1.15289L38.1741 0L32.3419 0L32.3419 -1.15289ZM43.8707 -9.22309Q42.8128 -9.22309 42.2804 -8.1821Q41.7481 -7.14111 41.7481 -5.05235Q41.7481 -2.97038 42.2804 -1.92939Q42.8128 -0.888401 43.8707 -0.888401Q44.9354 -0.888401 45.4678 -1.92939Q46.0002 -2.97038 46.0002 -5.05235Q46.0002 -7.14111 45.4678 -8.1821Q44.9354 -9.22309 43.8707 -9.22309ZM43.8707 -10.3082Q45.5729 -10.3082 46.4715 -8.962Q47.3701 -7.61583 47.3701 -5.05235Q47.3701 -2.49566 46.4715 -1.1495Q45.5729 0.196669 43.8707 0.196669Q42.1685 0.196669 41.2699 -1.1495Q40.3714 -2.49566 40.3714 -5.05235Q40.3714 -7.61583 41.2699 -8.962Q42.1685 -10.3082 43.8707 -10.3082Z" fill="#262626" transform="translate(628.5485188968596,379.6111111111111) translate(-24.14618682861328,0)" />
<line x1="728.3646578140906" y1="355.6" x2="728.3646578140906" y2="360.8611111111111" stroke="#262626" stroke-width="1.1111111111111112" />
<path d="M1.36312 -10.1251L3.40441 -10.1251L5.98823 -3.23486L8.58561 -10.1251L10.6269 -10.1251L10.6269 0L9.29091 0L9.29091 -8.89079L6.67996 -1.94634L5.30328 -1.94634L2.69233 -8.89079L2.69233 0L1.36312 0L1.36312 -10.1251ZM16.744 -3.81809Q15.2317 -3.81809 14.6484 -3.47222Q14.0652 -3.12636 14.0652 -2.29221Q14.0652 -1.6276 14.5026 -1.23766Q14.9401 -0.84771 15.6928 -0.847711Q16.7304 -0.847711 17.3577 -1.58352Q17.985 -2.31934 17.985 -3.54004L17.985 -3.81809L16.744 -3.81809ZM19.2329 -4.3335L19.2329 0L17.985 0L17.985 -1.15289Q17.5578 -0.461155 16.9203 -0.132243Q16.2828 0.196669 15.3605 0.196669Q14.1941 0.196669 13.5057 -0.457764Q12.8174 -1.1122 12.8174 -2.21083Q12.8174 -3.49257 13.6753 -4.14361Q14.5331 -4.79465 16.2354 -4.79465L17.985 -4.79465L17.985 -4.91672Q17.985 -5.77799 17.4188 -6.24932Q16.8525 -6.72065 15.8285 -6.72065Q15.1774 -6.72065 14.5603 -6.56467Q13.9431 -6.40869 13.3735 -6.09673L13.3735 -7.24962Q14.0584 -7.51411 14.7027 -7.64635Q15.347 -7.77859 15.9573 -7.77859Q17.6053 -7.77859 18.4191 -6.9241Q19.2329 -6.06961 19.2329 -4.3335ZM26.2044 -6.42904Q25.9942 -6.55111 25.7467 -6.60875Q25.4991 -6.6664 25.2007 -6.6664Q24.1428 -6.6664 23.5765 -5.97805Q23.0103 -5.28971 23.0103 -4.00119L23.0103 0L21.7556 0L21.7556 -7.59549L23.0103 -7.59549L23.0103 -6.41547Q23.4036 -7.1072 24.0343 -7.4429Q24.665 -7.77859 25.567 -7.77859Q25.6958 -7.77859 25.8518 -7.76164Q26.0078 -7.74468 26.1976 -7.71077L26.2044 -6.42904ZM33.2845 -1.15289L38.0656 -1.15289L38.0656 0L31.6366 0L31.6366 -1.15289Q32.4165 -1.95991 33.7626 -3.31963Q35.1088 -4.67936 35.4546 -5.0727Q36.1125 -5.8119 36.3736 -6.32392Q36.6347 -6.83594 36.6347 -7.331Q36.6347 -8.13802 36.0684 -8.64665Q35.5021 -9.15527 34.5934 -9.15527Q33.9491 -9.15527 33.2336 -8.93148Q32.5182 -8.70768 31.7044 -8.25331L31.7044 -9.63677Q32.5317 -9.96908 33.2506 -10.1386Q33.9695 -10.3082 34.5662 -10.3082Q36.1396 -10.3082 37.0755 -9.52148Q38.0113 -8.73481 38.0113 -7.41916Q38.0113 -6.79525 37.7774 -6.23576Q37.5434 -5.67627 36.9263 -4.91672Q36.7567 -4.72005 35.848 -3.78079Q34.9392 -2.84153 33.2845 -1.15289ZM44.7049 -8.93148L41.2462 -3.52648L44.7049 -3.52648L44.7049 -8.93148ZM44.3454 -10.1251L46.068 -10.1251L46.068 -3.52648L47.5125 -3.52648L47.5125 -2.38715L46.068 -2.38715L46.068 0L44.7049 0L44.7049 -2.38715L40.134 -2.38715L40.134 -3.70958L44.3454 -10.1251Z" fill="#262626" transform="translate(728.3646578140906,379.6111111111111) translate(-24.14618682861328,0)" />
<line x1="107.13888888888889" y1="356" x2="112.4" y2="356" stroke="#262626" stroke-width="1.1111111111111112" />
<path d="M5.24902 -8.93148L1.79036 -3.52648L5.24902 -3.52648L5.24902 -8.93148ZM4.88959 -10.1251L6.61214 -10.1251L6.61214 -3.52648L8.05664 -3.52648L8.05664 -2.38715L6.61214 -2.38715L6.61214 0L5.24902 0L5.24902 -2.38715L0.678168 -2.38715L0.678168 -3.70958L4.88959 -10.1251ZM10.3624 -0.210232L10.3624 -1.45806Q10.8778 -1.21392 11.4068 -1.08507Q11.9358 -0.956217 12.4444 -0.956217Q13.8007 -0.956217 14.5162 -1.86835Q15.2317 -2.78049 15.3334 -4.63867Q14.9401 -4.05545 14.3365 -3.74349Q13.7329 -3.43153 13.0005 -3.43153Q11.4814 -3.43153 10.5964 -4.35045Q9.71137 -5.26937 9.71137 -6.86306Q9.71137 -8.42285 10.6337 -9.36551Q11.556 -10.3082 13.0887 -10.3082Q14.8451 -10.3082 15.7708 -8.962Q16.6965 -7.61583 16.6965 -5.05235Q16.6965 -2.65842 15.5606 -1.23088Q14.4246 0.196669 12.5054 0.196669Q11.99 0.196669 11.461 0.0949436Q10.9321 -0.00678168 10.3624 -0.210232ZM13.0887 -4.50304Q14.011 -4.50304 14.5501 -5.13374Q15.0892 -5.76443 15.0892 -6.86306Q15.0892 -7.95491 14.5501 -8.589Q14.011 -9.22309 13.0887 -9.22309Q12.1663 -9.22309 11.6272 -8.589Q11.0881 -7.95492 11.0881 -6.86306Q11.0881 -5.76443 11.6272 -5.13374Q12.1663 -4.50304 13.0887 -4.50304ZM19.1583 -1.72255L20.5892 -1.72255L20.5892 0L19.1583 0L19.1583 -1.72255ZM26.5028 -9.22309Q25.4449 -9.22309 24.9125 -8.1821Q24.3802 -7.14111 24.3802 -5.05235Q24.3802 -2.97038 24.9125 -1.92939Q25.4449 -0.888401 26.5028 -0.888401Q27.5675 -0.888401 28.0999 -1.92939Q28.6323 -2.97038 28.6323 -5.05235Q28.6323 -7.14111 28.0999 -8.1821Q27.5675 -9.22309 26.5028 -9.22309ZM26.5028 -10.3082Q28.205 -10.3082 29.1036 -8.962Q30.0022 -7.61583 30.0022 -5.05235Q30.0022 -2.49566 29.1036 -1.1495Q28.205 0.196669 26.5028 0.196669Q24.8006 0.196669 23.902 -1.1495Q23.0035 -2.49566 23.0035 -5.05235Q23.0035 -7.61583 23.902 -8.962Q24.8006 -10.3082 26.5028 -10.3082Z" fill="#262626" transform="translate(102.27777777777777,360) translate(-30.924480438232422,0)" />
<line x1="107.13888888888889" y1="325.1999999999998" x2="112.4" y2="325.1999999999998" stroke="#262626" stroke-width="1.1111111111111112" />
<path d="M5.24902 -8.93148L1.79036 -3.52648L5.24902 -3.52648L5.24902 -8.93148ZM4.88959 -10.1251L6.61214 -10.1251L6.61214 -3.52648L8.05664 -3.52648L8.05664 -2.38715L6.61214 -2.38715L6.61214 0L5.24902 0L5.24902 -2.38715L0.678168 -2.38715L0.678168 -3.70958L4.88959 -10.1251ZM10.3624 -0.210232L10.3624 -1.45806Q10.8778 -1.21392 11.4068 -1.08507Q11.9358 -0.956217 12.4444 -0.956217Q13.8007 -0.956217 14.5162 -1.86835Q15.2317 -2.78049 15.3334 -4.63867Q14.9401 -4.05545 14.3365 -3.74349Q13.7329 -3.43153 13.0005 -3.43153Q11.4814 -3.43153 10.5964 -4.35045Q9.71137 -5.26937 9.71137 -6.86306Q9.71137 -8.42285 10.6337 -9.36551Q11.556 -10.3082 13.0887 -10.3082Q14.8451 -10.3082 15.7708 -8.962Q16.6965 -7.61583 16.6965 -5.05235Q16.6965 -2.65842 15.5606 -1.23088Q14.4246 0.196669 12.5054 0.196669Q11.99 0.196669 11.461 0.0949436Q10.9321 -0.00678168 10.3624 -0.210232ZM13.0887 -4.50304Q14.011 -4.50304 14.5501 -5.13374Q15.0892 -5.76443 15.0892 -6.86306Q15.0892 -7.95491 14.5501 -8.589Q14.011 -9.22309 13.0887 -9.22309Q12.1663 -9.22309 11.6272 -8.589Q11.0881 -7.95492 11.0881 -6.86306Q11.0881 -5.76443 11.6272 -5.13374Q12.1663 -4.50304 13.0887 -4.50304ZM19.1583 -1.72255L20.5892 -1.72255L20.5892 0L19.1583 0L19.1583 -1.72255ZM23.5867 -10.1251L28.9646 -10.1251L28.9646 -8.97217L24.8413 -8.97217L24.8413 -6.49007Q25.1397 -6.5918 25.4381 -6.64266Q25.7365 -6.69352 26.0349 -6.69352Q27.7303 -6.69352 28.7204 -5.76443Q29.7106 -4.83534 29.7106 -3.24843Q29.7106 -1.61404 28.6933 -0.708686Q27.6761 0.196669 25.8247 0.196669Q25.1872 0.196669 24.526 0.0881619C24.0852 0.0158239 23.6296 -0.092683 23.1595 -0.237359L23.1595 -1.61404Q23.7698 -1.28174 24.4208 -1.11898Q25.0719 -0.956217 25.7975 -0.956217Q26.9708 -0.956217 27.6557 -1.57335Q28.3407 -2.19048 28.3407 -3.24843Q28.3407 -4.30637 27.6557 -4.9235Q26.9708 -5.54064 25.7975 -5.54064Q25.2482 -5.54064 24.7023 -5.41857Q24.1564 -5.2965 23.5867 -5.03879L23.5867 -10.1251Z" fill="#262626" transform="translate(102.27777777777777,329.1999999999998) translate(-30.924480438232422,0)" />
<line x1="107.13888888888889" y1="294.4000000000001" x2="112.4" y2="294.4000000000001" stroke="#262626" stroke-width="1.1111111111111112" />
<path d="M1.49875 -10.1251L6.87663 -10.1251L6.87663 -8.97217L2.75336 -8.97217L2.75336 -6.49007Q3.05176 -6.5918 3.35015 -6.64266Q3.64855 -6.69352 3.94694 -6.69352Q5.64236 -6.69352 6.63249 -5.76443Q7.62261 -4.83534 7.62261 -3.24843Q7.62261 -1.61404 6.60536 -0.708686Q5.58811 0.196669 3.73671 0.196669Q3.09923 0.196669 2.43802 0.0881619C1.99721 0.0158239 1.5417 -0.092683 1.07151 -0.237359L1.07151 -1.61404Q1.68186 -1.28174 2.3329 -1.11898Q2.98394 -0.956217 3.70958 -0.956217Q4.88281 -0.956217 5.56776 -1.57335Q6.25271 -2.19048 6.25271 -3.24843Q6.25271 -4.30637 5.56776 -4.9235Q4.88281 -5.54064 3.70958 -5.54064Q3.16026 -5.54064 2.61434 -5.41857Q2.06841 -5.2965 1.49875 -5.03879L1.49875 -10.1251ZM13.2514 -9.22309Q12.1935 -9.22309 11.6611 -8.1821Q11.1287 -7.14111 11.1287 -5.05235Q11.1287 -2.97038 11.6611 -1.92939Q12.1935 -0.888401 13.2514 -0.888401Q14.3161 -0.888401 14.8485 -1.92939Q15.3809 -2.97038 15.3809 -5.05235Q15.3809 -7.14111 14.8485 -8.1821Q14.3161 -9.22309 13.2514 -9.22309ZM13.2514 -10.3082Q14.9536 -10.3082 15.8522 -8.962Q16.7508 -7.61583 16.7508 -5.05235Q16.7508 -2.49566 15.8522 -1.1495Q14.9536 0.196669 13.2514 0.196669Q11.5492 0.196669 10.6506 -1.1495Q9.75206 -2.49566 9.75206 -5.05235Q9.75206 -7.61583 10.6506 -8.962Q11.5492 -10.3082 13.2514 -10.3082ZM19.1583 -1.72255L20.5892 -1.72255L20.5892 0L19.1583 0L19.1583 -1.72255ZM26.5028 -9.22309Q25.4449 -9.22309 24.9125 -8.1821Q24.3802 -7.14111 24.3802 -5.05235Q24.3802 -2.97038 24.9125 -1.92939Q25.4449 -0.888401 26.5028 -0.888401Q27.5675 -0.888401 28.0999 -1.92939Q28.6323 -2.97038 28.6323 -5.05235Q28.6323 -7.14111 28.0999 -8.1821Q27.5675 -9.22309 26.5028 -9.22309ZM26.5028 -10.3082Q28.205 -10.3082 29.1036 -8.962Q30.0022 -7.61583 30.0022 -5.05235Q30.0022 -2.49566 29.1036 -1.1495Q28.205 0.196669 26.5028 0.196669Q24.8006 0.196669 23.902 -1.1495Q23.0035 -2.49566 23.0035 -5.05235Q23.0035 -7.61583 23.902 -8.962Q24.8006 -10.3082 26.5028 -10.3082Z" fill="#262626" transform="translate(102.27777777777777,298.4000000000001) translate(-30.924480438232422,0)" />
<line x1="107.13888888888889" y1="263.5999999999999" x2="112.4" y2="263.5999999999999" stroke="#262626" stroke-width="1.1111111111111112" />
<path d="M1.49875 -10.1251L6.87663 -10.1251L6.87663 -8.97217L2.75336 -8.97217L2.75336 -6.49007Q3.05176 -6.5918 3.35015 -6.64266Q3.64855 -6.69352 3.94694 -6.69352Q5.64236 -6.69352 6.63249 -5.76443Q7.62261 -4.83534 7.62261 -3.24843Q7.62261 -1.61404 6.60536 -0.708686Q5.58811 0.196669 3.73671 0.196669Q3.09923 0.196669 2.43802 0.0881619C1.99721 0.0158239 1.5417 -0.092683 1.07151 -0.237359L1.07151 -1.61404Q1.68186 -1.28174 2.3329 -1.11898Q2.98394 -0.956217 3.70958 -0.956217Q4.88281 -0.956217 5.56776 -1.57335Q6.25271 -2.19048 6.25271 -3.24843Q6.25271 -4.30637 5.56776 -4.9235Q4.88281 -5.54064 3.70958 -5.54064Q3.16026 -5.54064 2.61434 -5.41857Q2.06841 -5.2965 1.49875 -5.03879L1.49875 -10.1251ZM13.2514 -9.22309Q12.1935 -9.22309 11.6611 -8.1821Q11.1287 -7.14111 11.1287 -5.05235Q11.1287 -2.97038 11.6611 -1.92939Q12.1935 -0.888401 13.2514 -0.888401Q14.3161 -0.888401 14.8485 -1.92939Q15.3809 -2.97038 15.3809 -5.05235Q15.3809 -7.14111 14.8485 -8.1821Q14.3161 -9.22309 13.2514 -9.22309ZM13.2514 -10.3082Q14.9536 -10.3082 15.8522 -8.962Q16.7508 -7.61583 16.7508 -5.05235Q16.7508 -2.49566 15.8522 -1.1495Q14.9536 0.196669 13.2514 0.196669Q11.5492 0.196669 10.6506 -1.1495Q9.75206 -2.49566 9.75206 -5.05235Q9.75206 -7.61583 10.6506 -8.962Q11.5492 -10.3082 13.2514 -10.3082ZM19.1583 -1.72255L20.5892 -1.72255L20.5892 0L19.1583 0L19.1583 -1.72255ZM23.5867 -10.1251L28.9646 -10.1251L28.9646 -8.97217L24.8413 -8.97217L24.8413 -6.49007Q25.1397 -6.5918 25.4381 -6.64266Q25.7365 -6.69352 26.0349 -6.69352Q27.7303 -6.69352 28.7204 -5.76443Q29.7106 -4.83534 29.7106 -3.24843Q29.7106 -1.61404 28.6933 -0.708686Q27.6761 0.196669 25.8247 0.196669Q25.1872 0.196669 24.526 0.0881619C24.0852 0.0158239 23.6296 -0.092683 23.1595 -0.237359L23.1595 -1.61404Q23.7698 -1.28174 24.4208 -1.11898Q25.0719 -0.956217 25.7975 -0.956217Q26.9708 -0.956217 27.6557 -1.57335Q28.3407 -2.19048 28.3407 -3.24843Q28.3407 -4.30637 27.6557 -4.9235Q26.9708 -5.54064 25.7975 -5.54064Q25.2482 -5.54064 24.7023 -5.41857Q24.1564 -5.2965 23.5867 -5.03879L23.5867 -10.1251Z" fill="#262626" transform="translate(102.27777777777777,267.5999999999999) translate(-30.924480438232422,0)" />
<line x1="107.13888888888889" y1="232.80000000000018" x2="112.4" y2="232.80000000000018" stroke="#262626" stroke-width="1.1111111111111112" />
<path d="M1.49875 -10.1251L6.87663 -10.1251L6.87663 -8.97217L2.75336 -8.97217L2.75336 -6.49007Q3.05176 -6.5918 3.35015 -6.64266Q3.64855 -6.69352 3.94694 -6.69352Q5.64236 -6.69352 6.63249 -5.76443Q7.62261 -4.83534 7.62261 -3.24843Q7.62261 -1.61404 6.60536 -0.708686Q5.58811 0.196669 3.73671 0.196669Q3.09923 0.196669 2.43802 0.0881619C1.99721 0.0158239 1.5417 -0.092683 1.07151 -0.237359L1.07151 -1.61404Q1.68186 -1.28174 2.3329 -1.11898Q2.98394 -0.956217 3.70958 -0.956217Q4.88281 -0.956217 5.56776 -1.57335Q6.25271 -2.19048 6.25271 -3.24843Q6.25271 -4.30637 5.56776 -4.9235Q4.88281 -5.54064 3.70958 -5.54064Q3.16026 -5.54064 2.61434 -5.41857Q2.06841 -5.2965 1.49875 -5.03879L1.49875 -10.1251ZM10.5591 -1.15289L12.797 -1.15289L12.797 -8.87722L10.3624 -8.38894L10.3624 -9.63677L12.7835 -10.1251L14.1534 -10.1251L14.1534 -1.15289L16.3913 -1.15289L16.3913 0L10.5591 0L10.5591 -1.15289ZM19.1583 -1.72255L20.5892 -1.72255L20.5892 0L19.1583 0L19.1583 -1.72255ZM26.5028 -9.22309Q25.4449 -9.22309 24.9125 -8.1821Q24.3802 -7.14111 24.3802 -5.05235Q24.3802 -2.97038 24.9125 -1.92939Q25.4449 -0.888401 26.5028 -0.888401Q27.5675 -0.888401 28.0999 -1.92939Q28.6323 -2.97038 28.6323 -5.05235Q28.6323 -7.14111 28.0999 -8.1821Q27.5675 -9.22309 26.5028 -9.22309ZM26.5028 -10.3082Q28.205 -10.3082 29.1036 -8.962Q30.0022 -7.61583 30.0022 -5.05235Q30.0022 -2.49566 29.1036 -1.1495Q28.205 0.196669 26.5028 0.196669Q24.8006 0.196669 23.902 -1.1495Q23.0035 -2.49566 23.0035 -5.05235Q23.0035 -7.61583 23.902 -8.962Q24.8006 -10.3082 26.5028 -10.3082Z" fill="#262626" transform="translate(102.27777777777777,236.80000000000018) translate(-30.924480438232422,0)" />
<line x1="107.13888888888889" y1="202" x2="112.4" y2="202" stroke="#262626" stroke-width="1.1111111111111112" />
<path d="M1.49875 -10.1251L6.87663 -10.1251L6.87663 -8.97217L2.75336 -8.97217L2.75336 -6.49007Q3.05176 -6.5918 3.35015 -6.64266Q3.64855 -6.69352 3.94694 -6.69352Q5.64236 -6.69352 6.63249 -5.76443Q7.62261 -4.83534 7.62261 -3.24843Q7.62261 -1.61404 6.60536 -0.708686Q5.58811 0.196669 3.73671 0.196669Q3.09923 0.196669 2.43802 0.0881619C1.99721 0.0158239 1.5417 -0.092683 1.07151 -0.237359L1.07151 -1.61404Q1.68186 -1.28174 2.3329 -1.11898Q2.98394 -0.956217 3.70958 -0.956217Q4.88281 -0.956217 5.56776 -1.57335Q6.25271 -2.19048 6.25271 -3.24843Q6.25271 -4.30637 5.56776 -4.9235Q4.88281 -5.54064 3.70958 -5.54064Q3.16026 -5.54064 2.61434 -5.41857Q2.06841 -5.2965 1.49875 -5.03879L1.49875 -10.1251ZM10.5591 -1.15289L12.797 -1.15289L12.797 -8.87722L10.3624 -8.38894L10.3624 -9.63677L12.7835 -10.1251L14.1534 -10.1251L14.1534 -1.15289L16.3913 -1.15289L16.3913 0L10.5591 0L10.5591 -1.15289ZM19.1583 -1.72255L20.5892 -1.72255L20.5892 0L19.1583 0L19.1583 -1.72255ZM23.5867 -10.1251L28.9646 -10.1251L28.9646 -8.97217L24.8413 -8.97217L24.8413 -6.49007Q25.1397 -6.5918 25.4381 -6.64266Q25.7365 -6.69352 26.0349 -6.69352Q27.7303 -6.69352 28.7204 -5.76443Q29.7106 -4.83534 29.7106 -3.24843Q29.7106 -1.61404 28.6933 -0.708686Q27.6761 0.196669 25.8247 0.196669Q25.1872 0.196669 24.526 0.0881619C24.0852 0.0158239 23.6296 -0.092683 23.1595 -0.237359L23.1595 -1.61404Q23.7698 -1.28174 24.4208 -1.11898Q25.0719 -0.956217 25.7975 -0.956217Q26.9708 -0.956217 27.6557 -1.57335Q28.3407 -2.19048 28.3407 -3.24843Q28.3407 -4.30637 27.6557 -4.9235Q26.9708 -5.54064 25.7975 -5.54064Q25.2482 -5.54064 24.7023 -5.41857Q24.1564 -5.2965 23.5867 -5.03879L23.5867 -10.1251Z" fill="#262626" transform="translate(102.27777777777777,206) translate(-30.924480438232422,0)" />
<line x1="107.13888888888889" y1="171.19999999999982" x2="112.4" y2="171.19999999999982" stroke="#262626" stroke-width="1.1111111111111112" />
<path d="M1.49875 -10.1251L6.87663 -10.1251L6.87663 -8.97217L2.75336 -8.97217L2.75336 -6.49007Q3.05176 -6.5918 3.35015 -6.64266Q3.64855 -6.69352 3.94694 -6.69352Q5.64236 -6.69352 6.63249 -5.76443Q7.62261 -4.83534 7.62261 -3.24843Q7.62261 -1.61404 6.60536 -0.708686Q5.58811 0.196669 3.73671 0.196669Q3.09923 0.196669 2.43802 0.0881619C1.99721 0.0158239 1.5417 -0.092683 1.07151 -0.237359L1.07151 -1.61404Q1.68186 -1.28174 2.3329 -1.11898Q2.98394 -0.956217 3.70958 -0.956217Q4.88281 -0.956217 5.56776 -1.57335Q6.25271 -2.19048 6.25271 -3.24843Q6.25271 -4.30637 5.56776 -4.9235Q4.88281 -5.54064 3.70958 -5.54064Q3.16026 -5.54064 2.61434 -5.41857Q2.06841 -5.2965 1.49875 -5.03879L1.49875 -10.1251ZM11.5017 -1.15289L16.2828 -1.15289L16.2828 0L9.85379 0L9.85379 -1.15289Q10.6337 -1.95991 11.9798 -3.31963Q13.326 -4.67936 13.6719 -5.0727Q14.3297 -5.8119 14.5908 -6.32392Q14.8519 -6.83594 14.8519 -7.331Q14.8519 -8.13802 14.2856 -8.64665Q13.7193 -9.15527 12.8106 -9.15527Q12.1663 -9.15527 11.4509 -8.93148Q10.7354 -8.70768 9.9216 -8.25331L9.9216 -9.63677Q10.749 -9.96908 11.4678 -10.1386Q12.1867 -10.3082 12.7835 -10.3082Q14.3568 -10.3082 15.2927 -9.52148Q16.2286 -8.73481 16.2286 -7.41916Q16.2286 -6.79525 15.9946 -6.23576Q15.7606 -5.67627 15.1435 -4.91672Q14.974 -4.72005 14.0652 -3.78079Q13.1565 -2.84153 11.5017 -1.15289ZM19.1583 -1.72255L20.5892 -1.72255L20.5892 0L19.1583 0L19.1583 -1.72255ZM26.5028 -9.22309Q25.4449 -9.22309 24.9125 -8.1821Q24.3802 -7.14111 24.3802 -5.05235Q24.3802 -2.97038 24.9125 -1.92939Q25.4449 -0.888401 26.5028 -0.888401Q27.5675 -0.888401 28.0999 -1.92939Q28.6323 -2.97038 28.6323 -5.05235Q28.6323 -7.14111 28.0999 -8.1821Q27.5675 -9.22309 26.5028 -9.22309ZM26.5028 -10.3082Q28.205 -10.3082 29.1036 -8.962Q30.0022 -7.61583 30.0022 -5.05235Q30.0022 -2.49566 29.1036 -1.1495Q28.205 0.196669 26.5028 0.196669Q24.8006 0.196669 23.902 -1.1495Q23.0035 -2.49566 23.0035 -5.05235Q23.0035 -7.61583 23.902 -8.962Q24.8006 -10.3082 26.5028 -10.3082Z" fill="#262626" transform="translate(102.27777777777777,175.19999999999982) translate(-30.924480438232422,0)" />
<line x1="107.13888888888889" y1="140.4000000000001" x2="112.4" y2="140.4000000000001" stroke="#262626" stroke-width="1.1111111111111112" />
<path d="M1.49875 -10.1251L6.87663 -10.1251L6.87663 -8.97217L2.75336 -8.97217L2.75336 -6.49007Q3.05176 -6.5918 3.35015 -6.64266Q3.64855 -6.69352 3.94694 -6.69352Q5.64236 -6.69352 6.63249 -5.76443Q7.62261 -4.83534 7.62261 -3.24843Q7.62261 -1.61404 6.60536 -0.708686Q5.58811 0.196669 3.73671 0.196669Q3.09923 0.196669 2.43802 0.0881619C1.99721 0.0158239 1.5417 -0.092683 1.07151 -0.237359L1.07151 -1.61404Q1.68186 -1.28174 2.3329 -1.11898Q2.98394 -0.956217 3.70958 -0.956217Q4.88281 -0.956217 5.56776 -1.57335Q6.25271 -2.19048 6.25271 -3.24843Q6.25271 -4.30637 5.56776 -4.9235Q4.88281 -5.54064 3.70958 -5.54064Q3.16026 -5.54064 2.61434 -5.41857Q2.06841 -5.2965 1.49875 -5.03879L1.49875 -10.1251ZM11.5017 -1.15289L16.2828 -1.15289L16.2828 0L9.85379 0L9.85379 -1.15289Q10.6337 -1.95991 11.9798 -3.31963Q13.326 -4.67936 13.6719 -5.0727Q14.3297 -5.8119 14.5908 -6.32392Q14.8519 -6.83594 14.8519 -7.331Q14.8519 -8.13802 14.2856 -8.64665Q13.7193 -9.15527 12.8106 -9.15527Q12.1663 -9.15527 11.4509 -8.93148Q10.7354 -8.70768 9.9216 -8.25331L9.9216 -9.63677Q10.749 -9.96908 11.4678 -10.1386Q12.1867 -10.3082 12.7835 -10.3082Q14.3568 -10.3082 15.2927 -9.52148Q16.2286 -8.73481 16.2286 -7.41916Q16.2286 -6.79525 15.9946 -6.23576Q15.7606 -5.67627 15.1435 -4.91672Q14.974 -4.72005 14.0652 -3.78079Q13.1565 -2.84153 11.5017 -1.15289ZM19.1583 -1.72255L20.5892 -1.72255L20.5892 0L19.1583 0L19.1583 -1.72255ZM23.5867 -10.1251L28.9646 -10.1251L28.9646 -8.97217L24.8413 -8.97217L24.8413 -6.49007Q25.1397 -6.5918 25.4381 -6.64266Q25.7365 -6.69352 26.0349 -6.69352Q27.7303 -6.69352 28.7204 -5.76443Q29.7106 -4.83534 29.7106 -3.24843Q29.7106 -1.61404 28.6933 -0.708686Q27.6761 0.196669 25.8247 0.196669Q25.1872 0.196669 24.526 0.0881619C24.0852 0.0158239 23.6296 -0.092683 23.1595 -0.237359L23.1595 -1.61404Q23.7698 -1.28174 24.4208 -1.11898Q25.0719 -0.956217 25.7975 -0.956217Q26.9708 -0.956217 27.6557 -1.57335Q28.3407 -2.19048 28.3407 -3.24843Q28.3407 -4.30637 27.6557 -4.9235Q26.9708 -5.54064 25.7975 -5.54064Q25.2482 -5.54064 24.7023 -5.41857Q24.1564 -5.2965 23.5867 -5.03879L23.5867 -10.1251Z" fill="#262626" transform="translate(102.27777777777777,144.4000000000001) translate(-30.924480438232422,0)" />
<line x1="107.13888888888889" y1="109.59999999999991" x2="112.4" y2="109.59999999999991" stroke="#262626" stroke-width="1.1111111111111112" />
<path d="M1.49875 -10.1251L6.87663 -10.1251L6.87663 -8.97217L2.75336 -8.97217L2.75336 -6.49007Q3.05176 -6.5918 3.35015 -6.64266Q3.64855 -6.69352 3.94694 -6.69352Q5.64236 -6.69352 6.63249 -5.76443Q7.62261 -4.83534 7.62261 -3.24843Q7.62261 -1.61404 6.60536 -0.708686Q5.58811 0.196669 3.73671 0.196669Q3.09923 0.196669 2.43802 0.0881619C1.99721 0.0158239 1.5417 -0.092683 1.07151 -0.237359L1.07151 -1.61404Q1.68186 -1.28174 2.3329 -1.11898Q2.98394 -0.956217 3.70958 -0.956217Q4.88281 -0.956217 5.56776 -1.57335Q6.25271 -2.19048 6.25271 -3.24843Q6.25271 -4.30637 5.56776 -4.9235Q4.88281 -5.54064 3.70958 -5.54064Q3.16026 -5.54064 2.61434 -5.41857Q2.06841 -5.2965 1.49875 -5.03879L1.49875 -10.1251ZM14.4721 -5.45926Q15.4555 -5.24902 16.0082 -4.58442Q16.5609 -3.91981 16.5609 -2.94325Q16.5609 -1.4445 15.5301 -0.623915Q14.4992 0.196669 12.6004 0.196669Q11.9629 0.196669 11.2881 0.0712077Q10.6133 -0.0542535 9.89448 -0.305176L9.89448 -1.6276Q10.4641 -1.2953 11.1423 -1.12576Q11.8205 -0.956217 12.5597 -0.956217Q13.8482 -0.956217 14.523 -1.46484Q15.1978 -1.97347 15.1978 -2.94325Q15.1978 -3.83843 14.5704 -4.34367Q13.9431 -4.8489 12.8242 -4.8489L11.6442 -4.8489L11.6442 -5.97466L12.8784 -5.97466Q13.8889 -5.97466 14.4246 -6.37817Q14.9604 -6.78168 14.9604 -7.54123Q14.9604 -8.32113 14.4077 -8.7382Q13.855 -9.15527 12.8242 -9.15527Q12.2613 -9.15527 11.617 -9.0332Q10.9728 -8.91113 10.1997 -8.65343L10.1997 -9.87413Q10.9795 -10.0911 11.6611 -10.1997Q12.3427 -10.3082 12.9462 -10.3082Q14.506 -10.3082 15.4148 -9.59947Q16.3235 -8.89079 16.3235 -7.68365Q16.3235 -6.84272 15.842 -6.26289Q15.3605 -5.68305 14.4721 -5.45926ZM19.1583 -1.72255L20.5892 -1.72255L20.5892 0L19.1583 0L19.1583 -1.72255ZM26.5028 -9.22309Q25.4449 -9.22309 24.9125 -8.1821Q24.3802 -7.14111 24.3802 -5.05235Q24.3802 -2.97038 24.9125 -1.92939Q25.4449 -0.888401 26.5028 -0.888401Q27.5675 -0.888401 28.0999 -1.92939Q28.6323 -2.97038 28.6323 -5.05235Q28.6323 -7.14111 28.0999 -8.1821Q27.5675 -9.22309 26.5028 -9.22309ZM26.5028 -10.3082Q28.205 -10.3082 29.1036 -8.962Q30.0022 -7.61583 30.0022 -5.05235Q30.0022 -2.49566 29.1036 -1.1495Q28.205 0.196669 26.5028 0.196669Q24.8006 0.196669 23.902 -1.1495Q23.0035 -2.49566 23.0035 -5.05235Q23.0035 -7.61583 23.902 -8.962Q24.8006 -10.3082 26.5028 -10.3082Z" fill="#262626" transform="translate(102.27777777777777,113.59999999999991) translate(-30.924480438232422,0)" />
<line x1="107.13888888888889" y1="78.80000000000018" x2="112.4" y2="78.80000000000018" stroke="#262626" stroke-width="1.1111111111111112" />
<path d="M1.49875 -10.1251L6.87663 -10.1251L6.87663 -8.97217L2.75336 -8.97217L2.75336 -6.49007Q3.05176 -6.5918 3.35015 -6.64266Q3.64855 -6.69352 3.94694 -6.69352Q5.64236 -6.69352 6.63249 -5.76443Q7.62261 -4.83534 7.62261 -3.24843Q7.62261 -1.61404 6.60536 -0.708686Q5.58811 0.196669 3.73671 0.196669Q3.09923 0.196669 2.43802 0.0881619C1.99721 0.0158239 1.5417 -0.092683 1.07151 -0.237359L1.07151 -1.61404Q1.68186 -1.28174 2.3329 -1.11898Q2.98394 -0.956217 3.70958 -0.956217Q4.88281 -0.956217 5.56776 -1.57335Q6.25271 -2.19048 6.25271 -3.24843Q6.25271 -4.30637 5.56776 -4.9235Q4.88281 -5.54064 3.70958 -5.54064Q3.16026 -5.54064 2.61434 -5.41857Q2.06841 -5.2965 1.49875 -5.03879L1.49875 -10.1251ZM14.4721 -5.45926Q15.4555 -5.24902 16.0082 -4.58442Q16.5609 -3.91981 16.5609 -2.94325Q16.5609 -1.4445 15.5301 -0.623915Q14.4992 0.196669 12.6004 0.196669Q11.9629 0.196669 11.2881 0.0712077Q10.6133 -0.0542535 9.89448 -0.305176L9.89448 -1.6276Q10.4641 -1.2953 11.1423 -1.12576Q11.8205 -0.956217 12.5597 -0.956217Q13.8482 -0.956217 14.523 -1.46484Q15.1978 -1.97347 15.1978 -2.94325Q15.1978 -3.83843 14.5704 -4.34367Q13.9431 -4.8489 12.8242 -4.8489L11.6442 -4.8489L11.6442 -5.97466L12.8784 -5.97466Q13.8889 -5.97466 14.4246 -6.37817Q14.9604 -6.78168 14.9604 -7.54123Q14.9604 -8.32113 14.4077 -8.7382Q13.855 -9.15527 12.8242 -9.15527Q12.2613 -9.15527 11.617 -9.0332Q10.9728 -8.91113 10.1997 -8.65343L10.1997 -9.87413Q10.9795 -10.0911 11.6611 -10.1997Q12.3427 -10.3082 12.9462 -10.3082Q14.506 -10.3082 15.4148 -9.59947Q16.3235 -8.89079 16.3235 -7.68365Q16.3235 -6.84272 15.842 -6.26289Q15.3605 -5.68305 14.4721 -5.45926ZM19.1583 -1.72255L20.5892 -1.72255L20.5892 0L19.1583 0L19.1583 -1.72255ZM23.5867 -10.1251L28.9646 -10.1251L28.9646 -8.97217L24.8413 -8.97217L24.8413 -6.49007Q25.1397 -6.5918 25.4381 -6.64266Q25.7365 -6.69352 26.0349 -6.69352Q27.7303 -6.69352 28.7204 -5.76443Q29.7106 -4.83534 29.7106 -3.24843Q29.7106 -1.61404 28.6933 -0.708686Q27.6761 0.196669 25.8247 0.196669Q25.1872 0.196669 24.526 0.0881619C24.0852 0.0158239 23.6296 -0.092683 23.1595 -0.237359L23.1595 -1.61404Q23.7698 -1.28174 24.4208 -1.11898Q25.0719 -0.956217 25.7975 -0.956217Q26.9708 -0.956217 27.6557 -1.57335Q28.3407 -2.19048 28.3407 -3.24843Q28.3407 -4.30637 27.6557 -4.9235Q26.9708 -5.54064 25.7975 -5.54064Q25.2482 -5.54064 24.7023 -5.41857Q24.1564 -5.2965 23.5867 -5.03879L23.5867 -10.1251Z" fill="#262626" transform="translate(102.27777777777777,82.80000000000018) translate(-30.924480438232422,0)" />
<line x1="107.13888888888889" y1="48" x2="112.4" y2="48" stroke="#262626" stroke-width="1.1111111111111112" />
<path d="M1.49875 -10.1251L6.87663 -10.1251L6.87663 -8.97217L2.75336 -8.97217L2.75336 -6.49007Q3.05176 -6.5918 3.35015 -6.64266Q3.64855 -6.69352 3.94694 -6.69352Q5.64236 -6.69352 6.63249 -5.76443Q7.62261 -4.83534 7.62261 -3.24843Q7.62261 -1.61404 6.60536 -0.708686Q5.58811 0.196669 3.73671 0.196669Q3.09923 0.196669 2.43802 0.0881619C1.99721 0.0158239 1.5417 -0.092683 1.07151 -0.237359L1.07151 -1.61404Q1.68186 -1.28174 2.3329 -1.11898Q2.98394 -0.956217 3.70958 -0.956217Q4.88281 -0.956217 5.56776 -1.57335Q6.25271 -2.19048 6.25271 -3.24843Q6.25271 -4.30637 5.56776 -4.9235Q4.88281 -5.54064 3.70958 -5.54064Q3.16026 -5.54064 2.61434 -5.41857Q2.06841 -5.2965 1.49875 -5.03879L1.49875 -10.1251ZM14.0856 -8.93148L10.6269 -3.52648L14.0856 -3.52648L14.0856 -8.93148ZM13.7261 -10.1251L15.4487 -10.1251L15.4487 -3.52648L16.8932 -3.52648L16.8932 -2.38715L15.4487 -2.38715L15.4487 0L14.0856 0L14.0856 -2.38715L9.5147 -2.38715L9.5147 -3.70958L13.7261 -10.1251ZM19.1583 -1.72255L20.5892 -1.72255L20.5892 0L19.1583 0L19.1583 -1.72255ZM26.5028 -9.22309Q25.4449 -9.22309 24.9125 -8.1821Q24.3802 -7.14111 24.3802 -5.05235Q24.3802 -2.97038 24.9125 -1.92939Q25.4449 -0.888401 26.5028 -0.888401Q27.5675 -0.888401 28.0999 -1.92939Q28.6323 -2.97038 28.6323 -5.05235Q28.6323 -7.14111 28.0999 -8.1821Q27.5675 -9.22309 26.5028 -9.22309ZM26.5028 -10.3082Q28.205 -10.3082 29.1036 -8.962Q30.0022 -7.61583 30.0022 -5.05235Q30.0022 -2.49566 29.1036 -1.1495Q28.205 0.196669 26.5028 0.196669Q24.8006 0.196669 23.902 -1.1495Q23.0035 -2.49566 23.0035 -5.05235Q23.0035 -7.61583 23.902 -8.962Q24.8006 -10.3082 26.5028 -10.3082Z" fill="#262626" transform="translate(102.27777777777777,52) translate(-30.924480438232422,0)" />
<g class="series" aria-label="ACME">
<polyline points="143.72727272725598,294.40000000000003 150.85699693563228,303.34242863742935 157.9867211440086,267.19040355397306 165.11644535238491,250.4716748130057 172.24616956076125,289.99469322160377 179.37589376913755,300.48825330976763 186.50561797751388,282.3621969247357 193.6353421858902,322.79422402503064 200.7650663942665,278.9995167904306 207.89479060264284,245.4059577723506 215.02451481101915,210.75945592680898 222.15423901939548,213.62200974151762 229.28396322777178,171.8280282871593 236.4136874361481,175.078985092673 243.5434116445244,209.14697936883337 250.67313585290074,172.00640082907253 257.80286006127704,179.2123751630621 264.9325842696534,149.1931263812082 272.0623084780297,162.55949133818632 279.192032686406,126.83082726074774 286.3217568947823,168.870427646745 293.45148110315864,144.19947276246972 300.581205311535,136.30771202867717 307.7109295199113,164.49551032772698 314.8406537282876,164.6760272492343 321.9703779366639,173.36329247307253 329.10010214504024,215.07586652469877 336.22982635341657,171.42856386290765 343.35955056179284,213.48202142860535 350.4892747701692,213.4537094898667 357.6189989785455,191.404566850013 364.74872318692184,164.48209290567215 371.8784473952981,181.37512844744376 379.00817160367444,215.374666559756 386.1378958120508,244.56954208531775 393.2676200204271,280.88756186474575 400.3973442288034,319.11069715707436 407.5270684371797,286.8779332620132 414.65679264555604,317.2316813736716 421.78651685393237,311.5116402148875 428.9162410623087,269.7397516719541 436.045965270685,232.87207481319945 443.1756894790613,216.1717565090499 450.30541368743764,249.06757766104403 457.43513789581397,287.3581849152671 464.56486210419024,276.4781040190534 471.69458631256657,232.1958523780212 478.8243105209429,210.13907793486004 485.95403472931923,202.1122851577714 493.0837589376955,169.70936030054852 500.21348314607184,200.5247291612104 507.34320735444817,224.24114377740233 514.4729315628244,187.8697306814423 521.6026557712008,166.88264297680834 528.7323799795771,126.77582823641383 535.8621041879535,116.00928063333643 542.9918283963298,84.79547000455823 550.121552604706,64.80764662205203 557.2512768130824,92.26040095957732 564.3810010214587,75.04815414433712 571.510725229835,88.18114018087464 578.6404494382114,65.65438645763378 585.7701736465876,108.38495599223097 592.899897854964,108.97056069636949 600.0296220633403,141.77814431814312 607.1593462717166,178.40611641694272 614.289070480093,208.7276346898797 621.4187946884692,177.28611512320904 628.5485188968455,195.69419640316136 635.6782431052219,237.79617089989364 642.8079673135982,206.7844570678041 649.9376915219746,198.1751952968548 657.0674157303508,182.15419840334243 664.1971399387271,153.19260451910455 671.3268641471035,111.18782898459892 678.4565883554798,142.04710622935073 685.5863125638562,178.4284696492249 692.7160367722324,181.9928877634382 699.8457609806087,216.2420788082649 706.9754851889851,179.2546766259858 714.1052093973614,184.17619349085615 721.2349336057376,199.8975419856435 728.364657814114,208.62903210094137 735.4943820224903,235.03741452386186 742.6241062308667,248.5457337244617 749.753830439243,247.13217646841602 756.8835546476192,208.53311562003515 764.0132788559956,198.36523886644062 771.1430030643824,224.42359171914768 778.2727272727643,216.33701484778703" fill="none" stroke="#1F77B4" stroke-width="1.5" />
</g>
<g class="spine">
<line x1="112" y1="356" x2="810" y2="356" stroke="#262626" stroke-width="0.8" />
</g>
<g class="spine">
<line x1="112" y1="48" x2="810" y2="48" stroke="#262626" stroke-width="0.8" />
</g>
<g class="spine">
<line x1="112" y1="48" x2="112" y2="356" stroke="#262626" stroke-width="0.8" />
</g>
<g class="spine">
<line x1="810" y1="48" x2="810" y2="356" stroke="#262626" stroke-width="0.8" />
</g>
<g class="legend" aria-label="Chart legend">
<rect x="705.1534275478787" y="58" width="94.84657245212131" height="25.72222222222222" fill="#FFFFFF" fill-opacity="0.8" stroke="#CCCCCC" stroke-width="0.5" />
<line x1="713.1534275478787" y1="70.86111111111111" x2="740.9312053256565" y2="70.86111111111111" stroke="#1F77B4" stroke-width="1.5" />
<path d="M4.74718 -8.7755L2.889 -3.73671L6.61214 -3.73671L4.74718 -8.7755ZM3.97407 -10.1251L5.52707 -10.1251L9.38585 0L7.9617 0L7.03939 -2.59739L2.47531 -2.59739L1.55301 0L0.108507 0L3.97407 -10.1251ZM18.4462 -9.34516L18.4462 -7.90066Q17.7544 -8.54492 16.9712 -8.86366Q16.1879 -9.1824 15.3063 -9.1824Q13.5702 -9.1824 12.6478 -8.12107Q11.7255 -7.05973 11.7255 -5.05235Q11.7255 -3.05176 12.6478 -1.99042Q13.5702 -0.929091 15.3063 -0.929091Q16.1879 -0.929091 16.9712 -1.24783Q17.7544 -1.56657 18.4462 -2.21083L18.4462 -0.779894Q17.7273 -0.291612 16.9237 -0.0474718Q16.1201 0.196669 15.2249 0.196669Q12.9259 0.196669 11.6035 -1.21053Q10.281 -2.61773 10.281 -5.05235Q10.281 -7.49376 11.6035 -8.90096Q12.9259 -10.3082 15.2249 -10.3082Q16.1336 -10.3082 16.9373 -10.0674Q17.7409 -9.82666 18.4462 -9.34516ZM20.5621 -10.1251L22.6034 -10.1251L25.1872 -3.23486L27.7846 -10.1251L29.8258 -10.1251L29.8258 0L28.4899 0L28.4899 -8.89079L25.8789 -1.94634L24.5022 -1.94634L21.8913 -8.89079L21.8913 0L20.5621 0L20.5621 -10.1251ZM32.5453 -10.1251L38.9472 -10.1251L38.9472 -8.97217L33.9152 -8.97217L33.9152 -5.97466L38.737 -5.97466L38.737 -4.82178L33.9152 -4.82178L33.9152 -1.15289L39.0693 -1.15289L39.0693 0L32.5453 0L32.5453 -10.1251Z" fill="#262626" transform="translate(752.0423164367676,74.72222222222223)" />
</g>
<path d="M2.73302 -8.9993L2.73302 -1.12576L4.38775 -1.12576Q6.48329 -1.12576 7.45646 -2.0752Q8.42963 -3.02463 8.42963 -5.0727Q8.42963 -7.1072 7.45646 -8.05325Q6.48329 -8.9993 4.38775 -8.9993L2.73302 -8.9993ZM1.36312 -10.1251L4.17752 -10.1251Q7.12077 -10.1251 8.49745 -8.90096Q9.87413 -7.67687 9.87413 -5.0727Q9.87413 -2.45497 8.49067 -1.22748Q7.1072 0 4.17752 0L1.36312 0L1.36312 -10.1251ZM15.4555 -3.81809Q13.9431 -3.81809 13.3599 -3.47222Q12.7767 -3.12636 12.7767 -2.29221Q12.7767 -1.6276 13.2141 -1.23766Q13.6515 -0.84771 14.4043 -0.847711Q15.4419 -0.847711 16.0692 -1.58352Q16.6965 -2.31934 16.6965 -3.54004L16.6965 -3.81809L15.4555 -3.81809ZM17.9443 -4.3335L17.9443 0L16.6965 0L16.6965 -1.15289Q16.2693 -0.461155 15.6318 -0.132243Q14.9943 0.196669 14.072 0.196669Q12.9055 0.196669 12.2172 -0.457764Q11.5289 -1.1122 11.5289 -2.21083Q11.5289 -3.49257 12.3867 -4.14361Q13.2446 -4.79465 14.9468 -4.79465L16.6965 -4.79465L16.6965 -4.91672Q16.6965 -5.77799 16.1302 -6.24932Q15.564 -6.72065 14.5399 -6.72065Q13.8889 -6.72065 13.2718 -6.56467Q12.6546 -6.40869 12.085 -6.09673L12.085 -7.24962Q12.7699 -7.51411 13.4142 -7.64635Q14.0584 -7.77859 14.6688 -7.77859Q16.3167 -7.77859 17.1305 -6.9241Q17.9443 -6.06961 17.9443 -4.3335ZM21.7489 -9.75206L21.7489 -7.59549L24.3191 -7.59549L24.3191 -6.62571L21.7489 -6.62571L21.7489 -2.50244Q21.7489 -1.57335 22.0032 -1.30887Q22.2575 -1.04438 23.0374 -1.04438L24.3191 -1.04438L24.3191 0L23.0374 0Q21.5929 0 21.0436 -0.539144Q20.4943 -1.07829 20.4943 -2.50244L20.4943 -6.62571L19.5787 -6.62571L19.5787 -7.59549L20.4943 -7.59549L20.4943 -9.75206L21.7489 -9.75206ZM32.4571 -4.1097L32.4571 -3.49935L26.7198 -3.49935Q26.8012 -2.21083 27.4963 -1.53605Q28.1915 -0.861274 29.4325 -0.861274Q30.1514 -0.861274 30.8261 -1.0376Q31.5009 -1.21392 32.1655 -1.56657L32.1655 -0.386556Q31.4941 -0.101725 30.7888 0.0474718Q30.0836 0.196669 29.3579 0.196669Q27.5404 0.196669 26.4791 -0.861274Q25.4178 -1.91922 25.4178 -3.72314Q25.4178 -5.58811 26.4248 -6.68335Q27.4319 -7.77859 29.1409 -7.77859Q30.6736 -7.77859 31.5653 -6.79186Q32.4571 -5.80512 32.4571 -4.1097ZM31.2093 -4.47591Q31.1957 -5.49995 30.6363 -6.1103Q30.0768 -6.72065 29.1545 -6.72065Q28.1101 -6.72065 27.4828 -6.13064Q26.8555 -5.54064 26.7605 -4.46913L31.2093 -4.47591Z" fill="#262626" transform="translate(461,399.5) translate(-16.59817123413086,0)" />
<path d="M2.73302 -8.9993L2.73302 -5.19477L4.45557 -5.19477Q5.41178 -5.19477 5.93397 -5.68983Q6.45616 -6.1849 6.45616 -7.10042Q6.45616 -8.00917 5.93397 -8.50423Q5.41178 -8.9993 4.45557 -8.9993L2.73302 -8.9993ZM1.36312 -10.1251L4.45557 -10.1251Q6.15777 -10.1251 7.02922 -9.35533Q7.90066 -8.58561 7.90066 -7.10042Q7.90066 -5.60167 7.02922 -4.83534Q6.15777 -4.06901 4.45557 -4.06901L2.73302 -4.06901L2.73302 0L1.36312 0L1.36312 -10.1251ZM14.0856 -6.42904Q13.8753 -6.55111 13.6278 -6.60875Q13.3803 -6.6664 13.0819 -6.6664Q12.0239 -6.6664 11.4577 -5.97805Q10.8914 -5.28971 10.8914 -4.00119L10.8914 0L9.63677 0L9.63677 -7.59549L10.8914 -7.59549L10.8914 -6.41547Q11.2847 -7.1072 11.9154 -7.4429Q12.5461 -7.77859 13.4481 -7.77859Q13.5769 -7.77859 13.7329 -7.76164Q13.8889 -7.74468 14.0788 -7.71077L14.0856 -6.42904ZM15.3944 -7.59549L16.6423 -7.59549L16.6423 0L15.3944 0L15.3944 -7.59549ZM15.3944 -10.5523L16.6423 -10.5523L16.6423 -8.97217L15.3944 -8.97217L15.3944 -10.5523ZM24.7192 -7.30387L24.7192 -6.13742Q24.1903 -6.42904 23.6579 -6.57484Q23.1255 -6.72065 22.583 -6.72065Q21.3691 -6.72065 20.6977 -5.95093Q20.0263 -5.18121 20.0263 -3.79096Q20.0263 -2.40072 20.6977 -1.631Q21.3691 -0.861274 22.583 -0.861274Q23.1255 -0.861274 23.6579 -1.00708Q24.1903 -1.15289 24.7192 -1.4445L24.7192 -0.291612Q24.197 -0.0474718 23.6376 0.0745985Q23.0781 0.196669 22.4474 0.196669Q20.7316 0.196669 19.7211 -0.881619Q18.7107 -1.95991 18.7107 -3.79096Q18.7107 -5.64914 19.7313 -6.71387Q20.752 -7.77859 22.5288 -7.77859Q23.1052 -7.77859 23.6545 -7.65991Q24.2038 -7.54123 24.7192 -7.30387ZM33.3862 -4.1097L33.3862 -3.49935L27.6489 -3.49935Q27.7303 -2.21083 28.4254 -1.53605Q29.1206 -0.861274 30.3616 -0.861274Q31.0805 -0.861274 31.7552 -1.0376Q32.43 -1.21392 33.0946 -1.56657L33.0946 -0.386556Q32.4232 -0.101725 31.7179 0.0474718Q31.0126 0.196669 30.287 0.196669Q28.4695 0.196669 27.4082 -0.861274Q26.3468 -1.91922 26.3468 -3.72314Q26.3468 -5.58811 27.3539 -6.68335Q28.361 -7.77859 30.07 -7.77859Q31.6026 -7.77859 32.4944 -6.79186Q33.3862 -5.80512 33.3862 -4.1097ZM32.1384 -4.47591Q32.1248 -5.49995 31.5653 -6.1103Q31.0059 -6.72065 30.0836 -6.72065Q29.0392 -6.72065 28.4119 -6.13064Q27.7846 -5.54064 27.6896 -4.46913L32.1384 -4.47591ZM42.8467 -10.5387Q41.9379 -8.97895 41.4971 -7.45307Q41.0563 -5.92719 41.0563 -4.36062Q41.0563 -2.79405 41.5005 -1.258Q41.9447 0.278049 42.8467 1.83105L41.7616 1.83105Q40.7444 0.237359 40.2391 -1.30208Q39.7339 -2.84153 39.7339 -4.36062Q39.7339 -5.87294 40.2357 -7.4056Q40.7376 -8.93826 41.7616 -10.5387L42.8467 -10.5387ZM48.6518 2.04129L47.9736 2.04129L47.9669 0Q47.2548 -0.0135634 46.5427 -0.166151Q45.8306 -0.318739 45.1118 -0.623915L45.1118 -1.84462Q45.8035 -1.41059 46.5122 -1.19019Q47.2209 -0.969781 47.9736 -0.962999L47.9736 -4.05545Q46.4749 -4.29959 45.7933 -4.88281Q45.1118 -5.46604 45.1118 -6.48329Q45.1118 -7.5887 45.851 -8.22618Q46.5902 -8.86366 47.9736 -8.9586L47.9736 -10.5523L48.6518 -10.5523L48.6518 -8.97895Q49.2825 -8.95182 49.8725 -8.84671Q50.4625 -8.74159 51.0254 -8.55849L51.0254 -7.37169Q50.4625 -7.65652 49.8691 -7.8125Q49.2757 -7.96848 48.6518 -7.99561L48.6518 -5.09983Q50.1912 -4.86247 50.9169 -4.25212Q51.6425 -3.64176 51.6425 -2.58382Q51.6425 -1.43772 50.8728 -0.776503Q50.1031 -0.115289 48.6518 -0.0135634L48.6518 2.04129ZM47.9736 -5.2219L47.9736 -8.00239Q47.187 -7.91422 46.7733 -7.5548Q46.3596 -7.19537 46.3596 -6.59858Q46.3596 -6.01535 46.7428 -5.68983Q47.1259 -5.36431 47.9736 -5.2219ZM48.6518 -3.91981L48.6518 -0.983344Q49.5131 -1.09863 49.9505 -1.47163Q50.3879 -1.84462 50.3879 -2.45497Q50.3879 -3.05176 49.9708 -3.40441Q49.5538 -3.75705 48.6518 -3.91981ZM53.9076 -10.5387L54.9927 -10.5387Q56.0099 -8.93826 56.5152 -7.4056Q57.0204 -5.87294 57.0204 -4.36062Q57.0204 -2.84153 56.5152 -1.30208Q56.0099 0.237359 54.9927 1.83105L53.9076 1.83105Q54.8096 0.278049 55.2538 -1.258Q55.698 -2.79405 55.698 -4.36062Q55.698 -5.92719 55.2538 -7.45307Q54.8096 -8.97895 53.9076 -10.5387Z" fill="#262626" transform="translate(59.35329733954536,202) rotate(-90) translate(-29.10698699951172,0)" />
</svg>
