<svg xmlns="http://www.w3.org/2000/svg" viewBox="0 0 900 400" width="900" height="400" role="img" aria-labelledby="chart-title">
<title id="chart-title">Stock Price — Jan to Mar 2025</title>
<rect x="0" y="0" width="900" height="400" fill="#FFFFFF" />
<text x="450" y="24.099999999999998" font-family="DejaVu Sans, sans-serif" font-size="17.88888888888889" text-anchor="middle" font-weight="bold" fill="#262626">Stock Price — Jan to Mar 2025</text>
<rect x="112" y="48" width="698" height="308" fill="#FFFFFF" />
<line x1="129.46782431052998" y1="355.6" x2="129.46782431052998" y2="360.8611111111111" stroke="#262626" stroke-width="1.1111111111111112" />
<text x="129.46782431052998" y="379.6111111111111" font-family="DejaVu Sans, sans-serif" font-size="13.88888888888889" text-anchor="middle" fill="#262626">Dec 30</text>
<line x1="229.28396322776098" y1="355.6" x2="229.28396322776098" y2="360.8611111111111" stroke="#262626" stroke-width="1.1111111111111112" />
<text x="229.28396322776098" y="379.6111111111111" font-family="DejaVu Sans, sans-serif" font-size="13.88888888888889" text-anchor="middle" fill="#262626">Jan 13</text>
<line x1="329.1001021450502" y1="355.6" x2="329.1001021450502" y2="360.8611111111111" stroke="#262626" stroke-width="1.1111111111111112" />
<text x="329.1001021450502" y="379.6111111111111" font-family="DejaVu Sans, sans-serif" font-size="13.88888888888889" text-anchor="middle" fill="#262626">Jan 27</text>
<line x1="428.9162410622812" y1="355.6" x2="428.9162410622812" y2="360.8611111111111" stroke="#262626" stroke-width="1.1111111111111112" />
<text x="428.9162410622812" y="379.6111111111111" font-family="DejaVu Sans, sans-serif" font-size="13.88888888888889" text-anchor="middle" fill="#262626">Feb 10</text>
<line x1="528.7323799795704" y1="355.6" x2="528.7323799795704" y2="360.8611111111111" stroke="#262626" stroke-width="1.1111111111111112" />
<text x="528.7323799795704" y="379.6111111111111" font-family="DejaVu Sans, sans-serif" font-size="13.88888888888889" text-anchor="middle" fill="#262626">Feb 24</text>
<line x1="628.5485188968596" y1="355.6" x2="628.5485188968596" y2="360.8611111111111" stroke="#262626" stroke-width="1.1111111111111112" />
<text x="628.5485188968596" y="379.6111111111111" font-family="DejaVu Sans, sans-serif" font-size="13.88888888888889" text-anchor="middle" fill="#262626">Mar 10</text>
<line x1="728.3646578140906" y1="355.6" x2="728.3646578140906" y2="360.8611111111111" stroke="#262626" stroke-width="1.1111111111111112" />
<text x="728.3646578140906" y="379.6111111111111" font-family="DejaVu Sans, sans-serif" font-size="13.88888888888889" text-anchor="middle" fill="#262626">Mar 24</text>
<line x1="149.43105209397618" y1="355.6" x2="149.43105209397618" y2="360.8611111111111" stroke="#262626" stroke-width="1.1111111111111112" />
<line x1="169.39427987742238" y1="355.6" x2="169.39427987742238" y2="360.8611111111111" stroke="#262626" stroke-width="1.1111111111111112" />
<line x1="189.35750766086858" y1="355.6" x2="189.35750766086858" y2="360.8611111111111" stroke="#262626" stroke-width="1.1111111111111112" />
<line x1="209.32073544431478" y1="355.6" x2="209.32073544431478" y2="360.8611111111111" stroke="#262626" stroke-width="1.1111111111111112" />
<line x1="249.2471910112654" y1="355.6" x2="249.2471910112654" y2="360.8611111111111" stroke="#262626" stroke-width="1.1111111111111112" />
<line x1="269.2104187946534" y1="355.6" x2="269.2104187946534" y2="360.8611111111111" stroke="#262626" stroke-width="1.1111111111111112" />
<line x1="289.1736465781578" y1="355.6" x2="289.1736465781578" y2="360.8611111111111" stroke="#262626" stroke-width="1.1111111111111112" />
<line x1="309.1368743615458" y1="355.6" x2="309.1368743615458" y2="360.8611111111111" stroke="#262626" stroke-width="1.1111111111111112" />
<line x1="349.0633299284964" y1="355.6" x2="349.0633299284964" y2="360.8611111111111" stroke="#262626" stroke-width="1.1111111111111112" />
<line x1="369.0265577119426" y1="355.6" x2="369.0265577119426" y2="360.8611111111111" stroke="#262626" stroke-width="1.1111111111111112" />
<line x1="388.9897854953888" y1="355.6" x2="388.9897854953888" y2="360.8611111111111" stroke="#262626" stroke-width="1.1111111111111112" />
<line x1="408.953013278835" y1="355.6" x2="408.953013278835" y2="360.8611111111111" stroke="#262626" stroke-width="1.1111111111111112" />
<line x1="448.8794688457856" y1="355.6" x2="448.8794688457856" y2="360.8611111111111" stroke="#262626" stroke-width="1.1111111111111112" />
<line x1="468.8426966292318" y1="355.6" x2="468.8426966292318" y2="360.8611111111111" stroke="#262626" stroke-width="1.1111111111111112" />
<line x1="488.805924412678" y1="355.6" x2="488.805924412678" y2="360.8611111111111" stroke="#262626" stroke-width="1.1111111111111112" />
<line x1="508.7691521961242" y1="355.6" x2="508.7691521961242" y2="360.8611111111111" stroke="#262626" stroke-width="1.1111111111111112" />
<line x1="548.6956077630748" y1="355.6" x2="548.6956077630748" y2="360.8611111111111" stroke="#262626" stroke-width="1.1111111111111112" />
<line x1="568.6588355464628" y1="355.6" x2="568.6588355464628" y2="360.8611111111111" stroke="#262626" stroke-width="1.1111111111111112" />
<line x1="588.6220633299672" y1="355.6" x2="588.6220633299672" y2="360.8611111111111" stroke="#262626" stroke-width="1.1111111111111112" />
<line x1="608.5852911133552" y1="355.6" x2="608.5852911133552" y2="360.8611111111111" stroke="#262626" stroke-width="1.1111111111111112" />
<line x1="648.5117466803058" y1="355.6" x2="648.5117466803058" y2="360.8611111111111" stroke="#262626" stroke-width="1.1111111111111112" />
<line x1="668.474974463752" y1="355.6" x2="668.474974463752" y2="360.8611111111111" stroke="#262626" stroke-width="1.1111111111111112" />
<line x1="688.4382022471982" y1="355.6" x2="688.4382022471982" y2="360.8611111111111" stroke="#262626" stroke-width="1.1111111111111112" />
<line x1="708.4014300306444" y1="355.6" x2="708.4014300306444" y2="360.8611111111111" stroke="#262626" stroke-width="1.1111111111111112" />
<line x1="748.327885597595" y1="355.6" x2="748.327885597595" y2="360.8611111111111" stroke="#262626" stroke-width="1.1111111111111112" />
<line x1="768.291113380983" y1="355.6" x2="768.291113380983" y2="360.8611111111111" stroke="#262626" stroke-width="1.1111111111111112" />
<line x1="788.2543411644874" y1="355.6" x2="788.2543411644874" y2="360.8611111111111" stroke="#262626" stroke-width="1.1111111111111112" />
<line x1="808.2175689479336" y1="355.6" x2="808.2175689479336" y2="360.8611111111111" stroke="#262626" stroke-width="1.1111111111111112" />
<line x1="107.13888888888889" y1="344.61105550440743" x2="112.4" y2="344.61105550440743" stroke="#262626" stroke-width="1.1111111111111112" />
<text x="102.27777777777777" y="348.61105550440743" font-family="DejaVu Sans, sans-serif" font-size="13.88888888888889" text-anchor="end" fill="#262626">49.5</text>
<line x1="107.13888888888889" y1="311.18295979953245" x2="112.4" y2="311.18295979953245" stroke="#262626" stroke-width="1.1111111111111112" />
<text x="102.27777777777777" y="315.18295979953245" font-family="DejaVu Sans, sans-serif" font-size="13.88888888888889" text-anchor="end" fill="#262626">50</text>
<line x1="107.13888888888889" y1="277.754864094657" x2="112.4" y2="277.754864094657" stroke="#262626" stroke-width="1.1111111111111112" />
<text x="102.27777777777777" y="281.754864094657" font-family="DejaVu Sans, sans-serif" font-size="13.88888888888889" text-anchor="end" fill="#262626">50.5</text>
<line x1="107.13888888888889" y1="244.3267683897816" x2="112.4" y2="244.3267683897816" stroke="#262626" stroke-width="1.1111111111111112" />
<text x="102.27777777777777" y="248.3267683897816" font-family="DejaVu Sans, sans-serif" font-size="13.88888888888889" text-anchor="end" fill="#262626">51</text>
<line x1="107.13888888888889" y1="210.89867268490661" x2="112.4" y2="210.89867268490661" stroke="#262626" stroke-width="1.1111111111111112" />
<text x="102.27777777777777" y="214.89867268490661" font-family="DejaVu Sans, sans-serif" font-size="13.88888888888889" text-anchor="end" fill="#262626">51.5</text>
<line x1="107.13888888888889" y1="177.47057698003118" x2="112.4" y2="177.47057698003118" stroke="#262626" stroke-width="1.1111111111111112" />
<text x="102.27777777777777" y="181.47057698003118" font-family="DejaVu Sans, sans-serif" font-size="13.88888888888889" text-anchor="end" fill="#262626">52</text>
<line x1="107.13888888888889" y1="144.04248127515575" x2="112.4" y2="144.04248127515575" stroke="#262626" stroke-width="1.1111111111111112" />
<text x="102.27777777777777" y="148.04248127515575" font-family="DejaVu Sans, sans-serif" font-size="13.88888888888889" text-anchor="end" fill="#262626">52.5</text>
<line x1="107.13888888888889" y1="110.61438557028032" x2="112.4" y2="110.61438557028032" stroke="#262626" stroke-width="1.1111111111111112" />
<text x="102.27777777777777" y="114.61438557028032" font-family="DejaVu Sans, sans-serif" font-size="13.88888888888889" text-anchor="end" fill="#262626">53</text>
<line x1="107.13888888888889" y1="77.18628986540534" x2="112.4" y2="77.18628986540534" stroke="#262626" stroke-width="1.1111111111111112" />
<text x="102.27777777777777" y="81.18628986540534" font-family="DejaVu Sans, sans-serif" font-size="13.88888888888889" text-anchor="end" fill="#262626">53.5</text>
<line x1="107.13888888888889" y1="351.2966746453826" x2="112.4" y2="351.2966746453826" stroke="#262626" stroke-width="1.1111111111111112" />
<line x1="107.13888888888889" y1="337.92543636343225" x2="112.4" y2="337.92543636343225" stroke="#262626" stroke-width="1.1111111111111112" />
<line x1="107.13888888888889" y1="331.2398172224571" x2="112.4" y2="331.2398172224571" stroke="#262626" stroke-width="1.1111111111111112" />
<line x1="107.13888888888889" y1="324.5541980814828" x2="112.4" y2="324.5541980814828" stroke="#262626" stroke-width="1.1111111111111112" />
<line x1="107.13888888888889" y1="317.86857894050763" x2="112.4" y2="317.86857894050763" stroke="#262626" stroke-width="1.1111111111111112" />
<line x1="107.13888888888889" y1="304.4973406585573" x2="112.4" y2="304.4973406585573" stroke="#262626" stroke-width="1.1111111111111112" />
<line x1="107.13888888888889" y1="297.8117215175821" x2="112.4" y2="297.8117215175821" stroke="#262626" stroke-width="1.1111111111111112" />
<line x1="107.13888888888889" y1="291.1261023766074" x2="112.4" y2="291.1261023766074" stroke="#262626" stroke-width="1.1111111111111112" />
<line x1="107.13888888888889" y1="284.4404832356322" x2="112.4" y2="284.4404832356322" stroke="#262626" stroke-width="1.1111111111111112" />
<line x1="107.13888888888889" y1="271.06924495368185" x2="112.4" y2="271.06924495368185" stroke="#262626" stroke-width="1.1111111111111112" />
<line x1="107.13888888888889" y1="264.38362581270667" x2="112.4" y2="264.38362581270667" stroke="#262626" stroke-width="1.1111111111111112" />
<line x1="107.13888888888889" y1="257.69800667173195" x2="112.4" y2="257.69800667173195" stroke="#262626" stroke-width="1.1111111111111112" />
<line x1="107.13888888888889" y1="251.01238753075677" x2="112.4" y2="251.01238753075677" stroke="#262626" stroke-width="1.1111111111111112" />
<line x1="107.13888888888889" y1="237.6411492488064" x2="112.4" y2="237.6411492488064" stroke="#262626" stroke-width="1.1111111111111112" />
<line x1="107.13888888888889" y1="230.95553010783124" x2="112.4" y2="230.95553010783124" stroke="#262626" stroke-width="1.1111111111111112" />
<line x1="107.13888888888889" y1="224.26991096685651" x2="112.4" y2="224.26991096685651" stroke="#262626" stroke-width="1.1111111111111112" />
<line x1="107.13888888888889" y1="217.5842918258818" x2="112.4" y2="217.5842918258818" stroke="#262626" stroke-width="1.1111111111111112" />
<line x1="107.13888888888889" y1="204.21305354393144" x2="112.4" y2="204.21305354393144" stroke="#262626" stroke-width="1.1111111111111112" />
<line x1="107.13888888888889" y1="197.52743440295626" x2="112.4" y2="197.52743440295626" stroke="#262626" stroke-width="1.1111111111111112" />
<line x1="107.13888888888889" y1="190.84181526198154" x2="112.4" y2="190.84181526198154" stroke="#262626" stroke-width="1.1111111111111112" />
<line x1="107.13888888888889" y1="184.15619612100636" x2="112.4" y2="184.15619612100636" stroke="#262626" stroke-width="1.1111111111111112" />
<line x1="107.13888888888889" y1="170.784957839056" x2="112.4" y2="170.784957839056" stroke="#262626" stroke-width="1.1111111111111112" />
<line x1="107.13888888888889" y1="164.09933869808083" x2="112.4" y2="164.09933869808083" stroke="#262626" stroke-width="1.1111111111111112" />
<line x1="107.13888888888889" y1="157.4137195571061" x2="112.4" y2="157.4137195571061" stroke="#262626" stroke-width="1.1111111111111112" />
<line x1="107.13888888888889" y1="150.72810041613093" x2="112.4" y2="150.72810041613093" stroke="#262626" stroke-width="1.1111111111111112" />
<line x1="107.13888888888889" y1="137.35686213418057" x2="112.4" y2="137.35686213418057" stroke="#262626" stroke-width="1.1111111111111112" />
<line x1="107.13888888888889" y1="130.6712429932054" x2="112.4" y2="130.6712429932054" stroke="#262626" stroke-width="1.1111111111111112" />
<line x1="107.13888888888889" y1="123.98562385223067" x2="112.4" y2="123.98562385223067" stroke="#262626" stroke-width="1.1111111111111112" />
<line x1="107.13888888888889" y1="117.3000047112555" x2="112.4" y2="117.3000047112555" stroke="#262626" stroke-width="1.1111111111111112" />
<line x1="107.13888888888889" y1="103.9287664293056" x2="112.4" y2="103.9287664293056" stroke="#262626" stroke-width="1.1111111111111112" />
<line x1="107.13888888888889" y1="97.24314728833042" x2="112.4" y2="97.24314728833042" stroke="#262626" stroke-width="1.1111111111111112" />
<line x1="107.13888888888889" y1="90.5575281473557" x2="112.4" y2="90.5575281473557" stroke="#262626" stroke-width="1.1111111111111112" />
<line x1="107.13888888888889" y1="83.87190900638052" x2="112.4" y2="83.87190900638052" stroke="#262626" stroke-width="1.1111111111111112" />
<line x1="107.13888888888889" y1="70.50067072443017" x2="112.4" y2="70.50067072443017" stroke="#262626" stroke-width="1.1111111111111112" />
<line x1="107.13888888888889" y1="63.81505158345499" x2="112.4" y2="63.81505158345499" stroke="#262626" stroke-width="1.1111111111111112" />
<line x1="107.13888888888889" y1="57.129432442480265" x2="112.4" y2="57.129432442480265" stroke="#262626" stroke-width="1.1111111111111112" />
<line x1="107.13888888888889" y1="50.44381330150509" x2="112.4" y2="50.44381330150509" stroke="#262626" stroke-width="1.1111111111111112" />
<g class="series" aria-label="ACME">
<polyline points="143.72727272725598,311.18295979953234 150.85699693563228,320.8884260438831 157.9867211440086,281.6516288226224 165.11644535238491,263.50632802986576 172.24616956076125,306.40175796194904 179.37589376913755,317.7907102642867 186.50561797751388,298.11799768016937 193.6353421858902,341.99999999999966 200.7650663942665,294.4683875063242 207.89479060264284,258.0083645867217 215.02451481101915,220.4055535629586 222.15423901939548,223.51236274732344 229.28396322777178,178.15219352836 236.4136874361481,181.68054726950052 243.5434116445244,218.6554879557548 250.67313585290074,178.345786203756 257.80286006127704,186.1666303493235 264.9325842696534,153.58590563282112 272.0623084780297,168.09279287334564 279.192032686406,129.3154811139964 286.3217568947823,174.94222738340642 293.45148110315864,148.16615462359428 300.581205311535,139.60100744537368 307.7109295199113,170.1940080703853 314.8406537282876,170.38992810053128 321.9703779366639,179.81845840300204 329.10010214504024,225.09027390606894 336.22982635341657,177.71864369054904 343.35955056179284,223.36042954207682 350.4892747701692,223.32970180838376 357.6189989785455,199.3991547182709 364.74872318692184,170.17944576945797 371.8784473952981,188.51392657582815 379.00817160367444,225.4145698855661 386.1378958120508,257.1005794037609 393.2676200204271,296.5175352803282 400.3973442288034,338.002165952158 407.5270684371797,303.01905178602965 414.65679264555604,335.96281791843853 421.78651685393237,329.754698331047 428.9162410623087,284.4185071626521 436.045965270685,244.40499318697462 443.1756894790613,226.2796737527866 450.30541368743764,261.98242238133594 457.43513789581397,303.54028224795803 464.56486210419024,291.7318281740809 471.69458631256657,243.6710701908408 478.8243105209429,219.7322400925668 485.95403472931923,211.02053888621222 493.0837589376955,175.85274430033144 500.21348314607184,209.29752025667034 507.34320735444817,235.03760394389656 514.4729315628244,195.56269881749049 521.6026557712008,172.7848294552465 528.7323799795771,129.2557891448695 535.8621041879535,117.57055590828617 542.9918283963298,83.69334003125202 550.121552604706,62.000000000000036 557.2512768130824,91.79523699211776 564.3810010214587,73.11430732212474 571.510725229835,87.36790193641588 578.6404494382114,62.918990268212916 585.7701736465876,109.29566455153576 592.899897854964,109.93123760657367 600.0296220633403,145.53821959210447 607.1593462717166,185.29157533217506 614.289070480093,218.20036152519006 621.4187946884692,184.07600681150905 628.5485188968455,204.0548088494756 635.6782431052219,249.74925147418293 642.8079673135982,216.09137686537468 649.9376915219746,206.74750587746502 657.0674157303508,189.35947284357408 664.1971399387271,157.92665037188462 671.3268641471035,112.33770048132428 678.4565883554798,145.83013142680622 685.5863125638562,185.31583591620242 692.7160367722324,189.18439792445284 699.8457609806087,226.35599649786275 706.9754851889851,186.2125413022803 714.1052093973614,191.55400028838562 721.2349336057376,208.61681659012098 728.364657814114,218.09334539597648 735.4943820224903,246.7550965337795 742.6241062308667,261.41605065876837 749.753830439243,259.88187769644964 756.8835546476192,217.98924457443727 764.0132788559956,206.9537654434459 771.1430030643824,235.23561976395558 778.2727272727643,226.4590332191283" fill="none" stroke="#1F77B4" stroke-width="1.5" />
</g>
<g class="spine">
<line x1="112" y1="356" x2="810" y2="356" stroke="#262626" stroke-width="0.8" />
</g>
<g class="spine">
<line x1="112" y1="48" x2="810" y2="48" stroke="#262626" stroke-width="0.8" />
</g>
<g class="spine">
<line x1="112" y1="48" x2="112" y2="356" stroke="#262626" stroke-width="0.8" />
</g>
<g class="spine">
<line x1="810" y1="48" x2="810" y2="356" stroke="#262626" stroke-width="0.8" />
</g>
<rect x="707.6111111111111" y="58" width="92.38888888888889" height="25.72222222222222" fill="#FFFFFF" fill-opacity="0.8" stroke="#CCCCCC" stroke-width="0.5" />
<g class="legend" aria-label="Chart legend">
<line x1="715.6111111111111" y1="70.86111111111111" x2="743.3888888888889" y2="70.86111111111111" stroke="#1F77B4" stroke-width="1.5" />
<text x="754.5" y="74.72222222222223" font-family="DejaVu Sans, sans-serif" font-size="13.88888888888889" text-anchor="start" fill="#262626">ACME</text>
</g>
<text x="461" y="391" font-family="DejaVu Sans, sans-serif" font-size="13.88888888888889" text-anchor="middle" fill="#262626">Date</text>
<text x="61.111111111111114" y="202" font-family="DejaVu Sans, sans-serif" font-size="13.88888888888889" text-anchor="middle" transform="rotate(-90,61.111111111111114,202)" fill="#262626">Price ($)</text>
</svg>
