<svg xmlns="http://www.w3.org/2000/svg" viewBox="0 0 600 600" width="600" height="600" role="img" aria-labelledby="chart-title">
<title id="chart-title">Revenue Split</title>
<rect x="0" y="0" width="600" height="600" fill="#FFFFFF" />
<path d="M6.42008 -7.25863Q7.477 -7.25863 7.93557 -7.65169Q8.39415 -8.04476 8.39415 -8.94444Q8.39415 -9.83539 7.93557 -10.2197Q7.477 -10.6041 6.42008 -10.6041L5.00505 -10.6041L5.00505 -7.25863L6.42008 -7.25863ZM5.00505 -4.93517L5.00505 0L1.64214 0L1.64214 -13.0411L6.77821 -13.0411Q9.35498 -13.0411 10.556 -12.1763Q11.7571 -11.3116 11.7571 -9.44233Q11.7571 -8.14958 11.1325 -7.31977Q10.508 -6.48996 9.25016 -6.0969Q9.94021 -5.93967 10.4861 -5.38501Q11.0321 -4.83035 11.5911 -3.70356L13.4167 0L9.83539 0L8.24566 -3.24061Q7.76525 -4.21891 7.27173 -4.57704Q6.77821 -4.93517 5.95714 -4.93517L5.00505 -4.93517ZM25.0427 -4.9177L25.0427 -4.02675L17.7317 -4.02675Q17.8452 -2.92616 18.5265 -2.37587Q19.2078 -1.82558 20.4307 -1.82558Q21.4178 -1.82558 22.4528 -2.11819Q23.4879 -2.41081 24.5798 -3.00477L24.5798 -0.593967Q23.4704 -0.174696 22.3611 0.0393066Q21.2518 0.253309 20.1425 0.253309Q17.4871 0.253309 16.0153 -1.09622Q14.5435 -2.44575 14.5435 -4.88276Q14.5435 -7.2761 15.9891 -8.64746Q17.4347 -10.0188 19.9678 -10.0188Q22.2738 -10.0188 23.6582 -8.62999Q25.0427 -7.24116 25.0427 -4.9177ZM21.8283 -5.95714Q21.8283 -6.84809 21.3086 -7.39402Q20.7888 -7.93994 19.9503 -7.93994Q19.0419 -7.93994 18.4741 -7.42896Q17.9064 -6.91797 17.7666 -5.95714L21.8283 -5.95714ZM26.1782 -9.78299L29.3053 -9.78299L31.7423 -3.02224L34.1706 -9.78299L37.3064 -9.78299L33.4543 0L30.0215 0L26.1782 -9.78299ZM48.8363 -4.9177L48.8363 -4.02675L41.5253 -4.02675Q41.6388 -2.92616 42.3201 -2.37587Q43.0015 -1.82558 44.2243 -1.82558Q45.2114 -1.82558 46.2464 -2.11819Q47.2815 -2.41081 48.3734 -3.00477L48.3734 -0.593967Q47.264 -0.174696 46.1547 0.0393066Q45.0454 0.253309 43.9361 0.253309Q41.2807 0.253309 39.8089 -1.09622Q38.3371 -2.44575 38.3371 -4.88276Q38.3371 -7.2761 39.7827 -8.64746Q41.2283 -10.0188 43.7614 -10.0188Q46.0674 -10.0188 47.4519 -8.62999Q48.8363 -7.24116 48.8363 -4.9177ZM45.6219 -5.95714Q45.6219 -6.84809 45.1022 -7.39402Q44.5825 -7.93994 43.7439 -7.93994Q42.8355 -7.93994 42.2677 -7.42896Q41.7 -6.91797 41.5602 -5.95714L45.6219 -5.95714ZM61.0388 -5.95714L61.0388 0L57.8943 0L57.8943 -0.969564L57.8943 -4.55957Q57.8943 -5.82612 57.8375 -6.30653Q57.7808 -6.78695 57.641 -7.01405Q57.4576 -7.31977 57.1431 -7.4901Q56.8287 -7.66043 56.4269 -7.66043Q55.4486 -7.66043 54.8895 -6.90487Q54.3305 -6.14931 54.3305 -4.81288L54.3305 0L51.2035 0L51.2035 -9.78299L54.3305 -9.78299L54.3305 -8.35048Q55.038 -9.20649 55.8329 -9.61266Q56.6278 -10.0188 57.5886 -10.0188Q59.2831 -10.0188 60.161 -8.97938Q61.0388 -7.93994 61.0388 -5.95714ZM63.834 -3.80838L63.834 -9.78299L66.9785 -9.78299L66.9785 -8.80469Q66.9785 -8.00982 66.9698 -6.80878Q66.961 -5.60775 66.961 -5.20595Q66.961 -4.02675 67.0222 -3.50703Q67.0833 -2.9873 67.2318 -2.75146Q67.424 -2.44575 67.7341 -2.27979Q68.0442 -2.11382 68.446 -2.11382Q69.4243 -2.11382 69.9833 -2.86502Q70.5423 -3.61621 70.5423 -4.95264L70.5423 -9.78299L73.6694 -9.78299L73.6694 0L70.5423 0L70.5423 -1.41504Q69.8348 -0.559028 69.0443 -0.152859Q68.2538 0.253309 67.3017 0.253309Q65.6072 0.253309 64.7206 -0.786133Q63.834 -1.82558 63.834 -3.80838ZM86.4397 -4.9177L86.4397 -4.02675L79.1286 -4.02675Q79.2422 -2.92616 79.9235 -2.37587Q80.6048 -1.82558 81.8277 -1.82558Q82.8147 -1.82558 83.8498 -2.11819Q84.8849 -2.41081 85.9767 -3.00477L85.9767 -0.593967Q84.8674 -0.174696 83.7581 0.0393066Q82.6488 0.253309 81.5394 0.253309Q78.8841 0.253309 77.4122 -1.09622Q75.9404 -2.44575 75.9404 -4.88276Q75.9404 -7.2761 77.386 -8.64746Q78.8316 -10.0188 81.3647 -10.0188Q83.6707 -10.0188 85.0552 -8.62999Q86.4397 -7.24116 86.4397 -4.9177ZM83.2253 -5.95714Q83.2253 -6.84809 82.7055 -7.39402Q82.1858 -7.93994 81.3473 -7.93994Q80.4389 -7.93994 79.8711 -7.42896Q79.3033 -6.91797 79.1636 -5.95714L83.2253 -5.95714ZM104.25 -12.6305L104.25 -9.87033Q103.176 -10.3507 102.154 -10.5953Q101.132 -10.8399 100.223 -10.8399Q99.0178 -10.8399 98.4413 -10.508Q97.8648 -10.1761 97.8648 -9.47727Q97.8648 -8.95318 98.2535 -8.66056Q98.6422 -8.36795 99.6642 -8.15831L101.097 -7.87006Q103.272 -7.43332 104.189 -6.54237Q105.106 -5.65142 105.106 -4.00928Q105.106 -1.85178 103.826 -0.799235Q102.547 0.253309 99.9175 0.253309Q98.6771 0.253309 97.4281 0.0174696Q96.179 -0.21837 94.9299 -0.681315L94.9299 -3.52013Q96.179 -2.85628 97.3451 -2.51999Q98.5112 -2.1837 99.5943 -2.1837Q100.695 -2.1837 101.28 -2.55056Q101.865 -2.91743 101.865 -3.59874Q101.865 -4.21018 101.468 -4.5421Q101.07 -4.87402 99.8825 -5.13607L98.5811 -5.42432Q96.6245 -5.84359 95.7204 -6.76074Q94.8164 -7.6779 94.8164 -9.23269Q94.8164 -11.1806 96.0742 -12.2287Q97.332 -13.2769 99.6904 -13.2769Q100.765 -13.2769 101.9 -13.1153Q103.036 -12.9537 104.25 -12.6305ZM111.046 -1.41504L111.046 3.72103L107.919 3.72103L107.919 -9.78299L111.046 -9.78299L111.046 -8.35048Q111.692 -9.20649 112.478 -9.61266Q113.264 -10.0188 114.286 -10.0188Q116.094 -10.0188 117.256 -8.58195Q118.418 -7.14507 118.418 -4.88276Q118.418 -2.62044 117.256 -1.18357Q116.094 0.253309 114.286 0.253309Q113.264 0.253309 112.478 -0.152859Q111.692 -0.559028 111.046 -1.41504ZM113.125 -7.74778Q112.12 -7.74778 111.583 -7.00968Q111.046 -6.27159 111.046 -4.88276Q111.046 -3.49392 111.583 -2.75583Q112.12 -2.01774 113.125 -2.01774Q114.129 -2.01774 114.657 -2.75146Q115.186 -3.48519 115.186 -4.88276Q115.186 -6.28033 114.657 -7.01405Q114.129 -7.74778 113.125 -7.74778ZM120.724 -13.5914L123.851 -13.5914L123.851 0L120.724 0L120.724 -13.5914ZM126.856 -9.78299L129.983 -9.78299L129.983 0L126.856 0L126.856 -9.78299ZM126.856 -13.5914L129.983 -13.5914L129.983 -11.0408L126.856 -11.0408L126.856 -13.5914ZM136.403 -12.5607L136.403 -9.78299L139.626 -9.78299L139.626 -7.54688L136.403 -7.54688L136.403 -3.39784Q136.403 -2.71653 136.674 -2.47632Q136.944 -2.23611 137.748 -2.23611L139.355 -2.23611L139.355 0L136.674 0Q134.822 0 134.049 -0.773031Q133.276 -1.54606 133.276 -3.39784L133.276 -7.54688L131.721 -7.54688L131.721 -9.78299L133.276 -9.78299L133.276 -12.5607L136.403 -12.5607Z" fill="#262626" transform="translate(300,24.099999999999998) translate(-70.01822662353516,0)" />
<rect x="75" y="72" width="465" height="462" fill="#FFFFFF" />
<line x1="96.13636363636364" y1="533.6" x2="96.13636363636364" y2="538.8611111111111" stroke="#262626" stroke-width="1.1111111111111112" />
<path d="M4.41488 -9.22309Q3.35693 -9.22309 2.82457 -8.1821Q2.29221 -7.14111 2.29221 -5.05235Q2.29221 -2.97038 2.82457 -1.92939Q3.35693 -0.888401 4.41488 -0.888401Q5.4796 -0.888401 6.01196 -1.92939Q6.54433 -2.97038 6.54433 -5.05235Q6.54433 -7.14111 6.01196 -8.1821Q5.4796 -9.22309 4.41488 -9.22309ZM4.41488 -10.3082Q6.11708 -10.3082 7.01565 -8.962Q7.91422 -7.61583 7.91423 -5.05235Q7.91423 -2.49566 7.01565 -1.1495Q6.11708 0.196669 4.41488 0.196669Q2.71267 0.196669 1.8141 -1.1495Q0.915527 -2.49566 0.915527 -5.05235Q0.915527 -7.61583 1.8141 -8.962Q2.71267 -10.3082 4.41488 -10.3082ZM10.3217 -1.72255L11.7527 -1.72255L11.7527 0L10.3217 0L10.3217 -1.72255ZM17.6663 -9.22309Q16.6083 -9.22309 16.076 -8.1821Q15.5436 -7.14111 15.5436 -5.05235Q15.5436 -2.97038 16.076 -1.92939Q16.6083 -0.888401 17.6663 -0.888401Q18.731 -0.888401 19.2634 -1.92939Q19.7957 -2.97038 19.7957 -5.05235Q19.7957 -7.14111 19.2634 -8.1821Q18.731 -9.22309 17.6663 -9.22309ZM17.6663 -10.3082Q19.3685 -10.3082 20.2671 -8.962Q21.1656 -7.61583 21.1656 -5.05235Q21.1656 -2.49566 20.2671 -1.1495Q19.3685 0.196669 17.6663 0.196669Q15.9641 0.196669 15.0655 -1.1495Q14.1669 -2.49566 14.1669 -5.05235Q14.1669 -7.61583 15.0655 -8.962Q15.9641 -10.3082 17.6663 -10.3082Z" fill="#262626" transform="translate(96.13636363636364,557.6111111111111) translate(-11.043972969055176,0)" />
<line x1="138.4090909090909" y1="533.6" x2="138.4090909090909" y2="538.8611111111111" stroke="#262626" stroke-width="1.1111111111111112" />
<path d="M4.41488 -9.22309Q3.35693 -9.22309 2.82457 -8.1821Q2.29221 -7.14111 2.29221 -5.05235Q2.29221 -2.97038 2.82457 -1.92939Q3.35693 -0.888401 4.41488 -0.888401Q5.4796 -0.888401 6.01196 -1.92939Q6.54433 -2.97038 6.54433 -5.05235Q6.54433 -7.14111 6.01196 -8.1821Q5.4796 -9.22309 4.41488 -9.22309ZM4.41488 -10.3082Q6.11708 -10.3082 7.01565 -8.962Q7.91422 -7.61583 7.91423 -5.05235Q7.91423 -2.49566 7.01565 -1.1495Q6.11708 0.196669 4.41488 0.196669Q2.71267 0.196669 1.8141 -1.1495Q0.915527 -2.49566 0.915527 -5.05235Q0.915527 -7.61583 1.8141 -8.962Q2.71267 -10.3082 4.41488 -10.3082ZM10.3217 -1.72255L11.7527 -1.72255L11.7527 0L10.3217 0L10.3217 -1.72255ZM14.974 -1.15289L17.2119 -1.15289L17.2119 -8.87722L14.7773 -8.38894L14.7773 -9.63677L17.1984 -10.1251L18.5683 -10.1251L18.5683 -1.15289L20.8062 -1.15289L20.8062 0L14.974 0L14.974 -1.15289Z" fill="#262626" transform="translate(138.4090909090909,557.6111111111111) translate(-11.043972969055176,0)" />
<line x1="180.6818181818182" y1="533.6" x2="180.6818181818182" y2="538.8611111111111" stroke="#262626" stroke-width="1.1111111111111112" />
<path d="M4.41488 -9.22309Q3.35693 -9.22309 2.82457 -8.1821Q2.29221 -7.14111 2.29221 -5.05235Q2.29221 -2.97038 2.82457 -1.92939Q3.35693 -0.888401 4.41488 -0.888401Q5.4796 -0.888401 6.01196 -1.92939Q6.54433 -2.97038 6.54433 -5.05235Q6.54433 -7.14111 6.01196 -8.1821Q5.4796 -9.22309 4.41488 -9.22309ZM4.41488 -10.3082Q6.11708 -10.3082 7.01565 -8.962Q7.91422 -7.61583 7.91423 -5.05235Q7.91423 -2.49566 7.01565 -1.1495Q6.11708 0.196669 4.41488 0.196669Q2.71267 0.196669 1.8141 -1.1495Q0.915527 -2.49566 0.915527 -5.05235Q0.915527 -7.61583 1.8141 -8.962Q2.71267 -10.3082 4.41488 -10.3082ZM10.3217 -1.72255L11.7527 -1.72255L11.7527 0L10.3217 0L10.3217 -1.72255ZM15.9166 -1.15289L20.6977 -1.15289L20.6977 0L14.2687 0L14.2687 -1.15289Q15.0486 -1.95991 16.3947 -3.31963Q17.7409 -4.67936 18.0868 -5.0727Q18.7446 -5.8119 19.0057 -6.32392Q19.2668 -6.83594 19.2668 -7.331Q19.2668 -8.13802 18.7005 -8.64665Q18.1342 -9.15527 17.2255 -9.15527Q16.5812 -9.15527 15.8658 -8.93148Q15.1503 -8.70768 14.3365 -8.25331L14.3365 -9.63677Q15.1638 -9.96908 15.8827 -10.1386Q16.6016 -10.3082 17.1984 -10.3082Q18.7717 -10.3082 19.7076 -9.52148Q20.6434 -8.73481 20.6434 -7.41916Q20.6434 -6.79525 20.4095 -6.23576Q20.1755 -5.67627 19.5584 -4.91672Q19.3888 -4.72005 18.4801 -3.78079Q17.5713 -2.84153 15.9166 -1.15289Z" fill="#262626" transform="translate(180.6818181818182,557.6111111111111) translate(-11.043972969055176,0)" />
<line x1="222.95454545454544" y1="533.6" x2="222.95454545454544" y2="538.8611111111111" stroke="#262626" stroke-width="1.1111111111111112" />
<path d="M4.41488 -9.22309Q3.35693 -9.22309 2.82457 -8.1821Q2.29221 -7.14111 2.29221 -5.05235Q2.29221 -2.97038 2.82457 -1.92939Q3.35693 -0.888401 4.41488 -0.888401Q5.4796 -0.888401 6.01196 -1.92939Q6.54433 -2.97038 6.54433 -5.05235Q6.54433 -7.14111 6.01196 -8.1821Q5.4796 -9.22309 4.41488 -9.22309ZM4.41488 -10.3082Q6.11708 -10.3082 7.01565 -8.962Q7.91422 -7.61583 7.91423 -5.05235Q7.91423 -2.49566 7.01565 -1.1495Q6.11708 0.196669 4.41488 0.196669Q2.71267 0.196669 1.8141 -1.1495Q0.915527 -2.49566 0.915527 -5.05235Q0.915527 -7.61583 1.8141 -8.962Q2.71267 -10.3082 4.41488 -10.3082ZM10.3217 -1.72255L11.7527 -1.72255L11.7527 0L10.3217 0L10.3217 -1.72255ZM18.887 -5.45926Q19.8703 -5.24902 20.423 -4.58442Q20.9757 -3.91981 20.9757 -2.94325Q20.9757 -1.4445 19.9449 -0.623915Q18.9141 0.196669 17.0152 0.196669Q16.3778 0.196669 15.703 0.0712077Q15.0282 -0.0542535 14.3094 -0.305176L14.3094 -1.6276Q14.879 -1.2953 15.5572 -1.12576Q16.2354 -0.956217 16.9746 -0.956217Q18.2631 -0.956217 18.9379 -1.46484Q19.6126 -1.97347 19.6126 -2.94325Q19.6126 -3.83843 18.9853 -4.34367Q18.358 -4.8489 17.239 -4.8489L16.059 -4.8489L16.059 -5.97466L17.2933 -5.97466Q18.3038 -5.97466 18.8395 -6.37817Q19.3753 -6.78168 19.3753 -7.54123Q19.3753 -8.32113 18.8226 -8.7382Q18.2699 -9.15527 17.239 -9.15527Q16.6762 -9.15527 16.0319 -9.0332Q15.3876 -8.91113 14.6145 -8.65343L14.6145 -9.87413Q15.3944 -10.0911 16.076 -10.1997Q16.7575 -10.3082 17.3611 -10.3082Q18.9209 -10.3082 19.8296 -9.59947Q20.7384 -8.89079 20.7384 -7.68365Q20.7384 -6.84272 20.2569 -6.26289Q19.7754 -5.68305 18.887 -5.45926Z" fill="#262626" transform="translate(222.95454545454544,557.6111111111111) translate(-11.043972969055176,0)" />
<line x1="265.22727272727275" y1="533.6" x2="265.22727272727275" y2="538.8611111111111" stroke="#262626" stroke-width="1.1111111111111112" />
<path d="M4.41488 -9.22309Q3.35693 -9.22309 2.82457 -8.1821Q2.29221 -7.14111 2.29221 -5.05235Q2.29221 -2.97038 2.82457 -1.92939Q3.35693 -0.888401 4.41488 -0.888401Q5.4796 -0.888401 6.01196 -1.92939Q6.54433 -2.97038 6.54433 -5.05235Q6.54433 -7.14111 6.01196 -8.1821Q5.4796 -9.22309 4.41488 -9.22309ZM4.41488 -10.3082Q6.11708 -10.3082 7.01565 -8.962Q7.91422 -7.61583 7.91423 -5.05235Q7.91423 -2.49566 7.01565 -1.1495Q6.11708 0.196669 4.41488 0.196669Q2.71267 0.196669 1.8141 -1.1495Q0.915527 -2.49566 0.915527 -5.05235Q0.915527 -7.61583 1.8141 -8.962Q2.71267 -10.3082 4.41488 -10.3082ZM10.3217 -1.72255L11.7527 -1.72255L11.7527 0L10.3217 0L10.3217 -1.72255ZM18.5004 -8.93148L15.0418 -3.52648L18.5004 -3.52648L18.5004 -8.93148ZM18.141 -10.1251L19.8636 -10.1251L19.8636 -3.52648L21.3081 -3.52648L21.3081 -2.38715L19.8636 -2.38715L19.8636 0L18.5004 0L18.5004 -2.38715L13.9296 -2.38715L13.9296 -3.70958L18.141 -10.1251Z" fill="#262626" transform="translate(265.22727272727275,557.6111111111111) translate(-11.043972969055176,0)" />
<line x1="307.5" y1="533.6" x2="307.5" y2="538.8611111111111" stroke="#262626" stroke-width="1.1111111111111112" />
<path d="M4.41488 -9.22309Q3.35693 -9.22309 2.82457 -8.1821Q2.29221 -7.14111 2.29221 -5.05235Q2.29221 -2.97038 2.82457 -1.92939Q3.35693 -0.888401 4.41488 -0.888401Q5.4796 -0.888401 6.01196 -1.92939Q6.54433 -2.97038 6.54433 -5.05235Q6.54433 -7.14111 6.01196 -8.1821Q5.4796 -9.22309 4.41488 -9.22309ZM4.41488 -10.3082Q6.11708 -10.3082 7.01565 -8.962Q7.91422 -7.61583 7.91423 -5.05235Q7.91423 -2.49566 7.01565 -1.1495Q6.11708 0.196669 4.41488 0.196669Q2.71267 0.196669 1.8141 -1.1495Q0.915527 -2.49566 0.915527 -5.05235Q0.915527 -7.61583 1.8141 -8.962Q2.71267 -10.3082 4.41488 -10.3082ZM10.3217 -1.72255L11.7527 -1.72255L11.7527 0L10.3217 0L10.3217 -1.72255ZM14.7502 -10.1251L20.128 -10.1251L20.128 -8.97217L16.0048 -8.97217L16.0048 -6.49007Q16.3032 -6.5918 16.6016 -6.64266Q16.9 -6.69352 17.1984 -6.69352Q18.8938 -6.69352 19.8839 -5.76443Q20.874 -4.83534 20.874 -3.24843Q20.874 -1.61404 19.8568 -0.708686Q18.8395 0.196669 16.9881 0.196669Q16.3506 0.196669 15.6894 0.0881619C15.2486 0.0158239 14.7931 -0.092683 14.3229 -0.237359L14.3229 -1.61404Q14.9333 -1.28174 15.5843 -1.11898Q16.2354 -0.956217 16.961 -0.956217Q18.1342 -0.956217 18.8192 -1.57335Q19.5041 -2.19048 19.5041 -3.24843Q19.5041 -4.30637 18.8192 -4.9235Q18.1342 -5.54064 16.961 -5.54064Q16.4117 -5.54064 15.8658 -5.41857Q15.3198 -5.2965 14.7502 -5.03879L14.7502 -10.1251Z" fill="#262626" transform="translate(307.5,557.6111111111111) translate(-11.043972969055176,0)" />
<line x1="349.77272727272725" y1="533.6" x2="349.77272727272725" y2="538.8611111111111" stroke="#262626" stroke-width="1.1111111111111112" />
<path d="M4.41488 -9.22309Q3.35693 -9.22309 2.82457 -8.1821Q2.29221 -7.14111 2.29221 -5.05235Q2.29221 -2.97038 2.82457 -1.92939Q3.35693 -0.888401 4.41488 -0.888401Q5.4796 -0.888401 6.01196 -1.92939Q6.54433 -2.97038 6.54433 -5.05235Q6.54433 -7.14111 6.01196 -8.1821Q5.4796 -9.22309 4.41488 -9.22309ZM4.41488 -10.3082Q6.11708 -10.3082 7.01565 -8.962Q7.91422 -7.61583 7.91423 -5.05235Q7.91423 -2.49566 7.01565 -1.1495Q6.11708 0.196669 4.41488 0.196669Q2.71267 0.196669 1.8141 -1.1495Q0.915527 -2.49566 0.915527 -5.05235Q0.915527 -7.61583 1.8141 -8.962Q2.71267 -10.3082 4.41488 -10.3082ZM10.3217 -1.72255L11.7527 -1.72255L11.7527 0L10.3217 0L10.3217 -1.72255ZM17.8358 -5.60845Q16.9135 -5.60845 16.3744 -4.97776Q15.8352 -4.34706 15.8352 -3.24843Q15.8352 -2.15658 16.3744 -1.52249Q16.9135 -0.888401 17.8358 -0.888401Q18.7581 -0.888401 19.2973 -1.52249Q19.8364 -2.15658 19.8364 -3.24843Q19.8364 -4.34706 19.2973 -4.97776Q18.7581 -5.60845 17.8358 -5.60845ZM20.5553 -9.90126L20.5553 -8.65343Q20.0399 -8.89757 19.5143 -9.02642Q18.9887 -9.15527 18.4733 -9.15527Q17.117 -9.15527 16.4015 -8.23975Q15.686 -7.32422 15.5843 -5.47282Q15.9844 -6.06282 16.588 -6.37817Q17.1916 -6.69352 17.9172 -6.69352Q19.4431 -6.69352 20.3281 -5.76782Q21.2131 -4.84212 21.2131 -3.24843Q21.2131 -1.68864 20.2908 -0.745985Q19.3685 0.196669 17.8358 0.196669Q16.0794 0.196669 15.1503 -1.1495Q14.2212 -2.49566 14.2212 -5.05235Q14.2212 -7.45307 15.3605 -8.88062Q16.4998 -10.3082 18.4191 -10.3082Q18.9345 -10.3082 19.46 -10.2064Q19.9856 -10.1047 20.5553 -9.90126Z" fill="#262626" transform="translate(349.77272727272725,557.6111111111111) translate(-11.043972969055176,0)" />
<line x1="392.0454545454545" y1="533.6" x2="392.0454545454545" y2="538.8611111111111" stroke="#262626" stroke-width="1.1111111111111112" />
<path d="M4.41488 -9.22309Q3.35693 -9.22309 2.82457 -8.1821Q2.29221 -7.14111 2.29221 -5.05235Q2.29221 -2.97038 2.82457 -1.92939Q3.35693 -0.888401 4.41488 -0.888401Q5.4796 -0.888401 6.01196 -1.92939Q6.54433 -2.97038 6.54433 -5.05235Q6.54433 -7.14111 6.01196 -8.1821Q5.4796 -9.22309 4.41488 -9.22309ZM4.41488 -10.3082Q6.11708 -10.3082 7.01565 -8.962Q7.91422 -7.61583 7.91423 -5.05235Q7.91423 -2.49566 7.01565 -1.1495Q6.11708 0.196669 4.41488 0.196669Q2.71267 0.196669 1.8141 -1.1495Q0.915527 -2.49566 0.915527 -5.05235Q0.915527 -7.61583 1.8141 -8.962Q2.71267 -10.3082 4.41488 -10.3082ZM10.3217 -1.72255L11.7527 -1.72255L11.7527 0L10.3217 0L10.3217 -1.72255ZM14.3907 -10.1251L20.9012 -10.1251L20.9012 -9.54183L17.2255 0L15.7945 0L19.2532 -8.97217L14.3907 -8.97217L14.3907 -10.1251Z" fill="#262626" transform="translate(392.0454545454545,557.6111111111111) translate(-11.043972969055176,0)" />
<line x1="434.3181818181818" y1="533.6" x2="434.3181818181818" y2="538.8611111111111" stroke="#262626" stroke-width="1.1111111111111112" />
<path d="M4.41488 -9.22309Q3.35693 -9.22309 2.82457 -8.1821Q2.29221 -7.14111 2.29221 -5.05235Q2.29221 -2.97038 2.82457 -1.92939Q3.35693 -0.888401 4.41488 -0.888401Q5.4796 -0.888401 6.01196 -1.92939Q6.54433 -2.97038 6.54433 -5.05235Q6.54433 -7.14111 6.01196 -8.1821Q5.4796 -9.22309 4.41488 -9.22309ZM4.41488 -10.3082Q6.11708 -10.3082 7.01565 -8.962Q7.91422 -7.61583 7.91423 -5.05235Q7.91423 -2.49566 7.01565 -1.1495Q6.11708 0.196669 4.41488 0.196669Q2.71267 0.196669 1.8141 -1.1495Q0.915527 -2.49566 0.915527 -5.05235Q0.915527 -7.61583 1.8141 -8.962Q2.71267 -10.3082 4.41488 -10.3082ZM10.3217 -1.72255L11.7527 -1.72255L11.7527 0L10.3217 0L10.3217 -1.72255ZM17.6663 -4.80821Q16.6897 -4.80821 16.1302 -4.28602Q15.5707 -3.76383 15.5707 -2.84831Q15.5707 -1.93278 16.1302 -1.41059Q16.6897 -0.888401 17.6663 -0.888401Q18.6428 -0.888401 19.2057 -1.41398Q19.7686 -1.93956 19.7686 -2.84831Q19.7686 -3.76383 19.2091 -4.28602Q18.6496 -4.80821 17.6663 -4.80821ZM16.2964 -5.39144Q15.4148 -5.60845 14.9231 -6.21202Q14.4314 -6.81559 14.4314 -7.68365Q14.4314 -8.89757 15.2961 -9.60287Q16.1608 -10.3082 17.6663 -10.3082Q19.1786 -10.3082 20.0399 -9.60287Q20.9012 -8.89757 20.9012 -7.68365Q20.9012 -6.81559 20.4095 -6.21202Q19.9178 -5.60845 19.043 -5.39144Q20.0331 -5.16086 20.5858 -4.48947Q21.1385 -3.81809 21.1385 -2.84831Q21.1385 -1.37668 20.2399 -0.590007Q19.3414 0.196669 17.6663 0.196669Q15.9912 0.196669 15.0926 -0.590007Q14.1941 -1.37668 14.1941 -2.84831Q14.1941 -3.81809 14.7502 -4.48947Q15.3063 -5.16086 16.2964 -5.39144ZM15.7945 -7.5548Q15.7945 -6.76812 16.2862 -6.32731Q16.7779 -5.8865 17.6663 -5.8865Q18.5479 -5.8865 19.0464 -6.32731Q19.5448 -6.76812 19.5448 -7.5548Q19.5448 -8.34147 19.0464 -8.78228Q18.5479 -9.22309 17.6663 -9.22309Q16.7779 -9.22309 16.2862 -8.78228Q15.7945 -8.34147 15.7945 -7.5548Z" fill="#262626" transform="translate(434.3181818181818,557.6111111111111) translate(-11.043972969055176,0)" />
<line x1="476.59090909090907" y1="533.6" x2="476.59090909090907" y2="538.8611111111111" stroke="#262626" stroke-width="1.1111111111111112" />
<path d="M4.41488 -9.22309Q3.35693 -9.22309 2.82457 -8.1821Q2.29221 -7.14111 2.29221 -5.05235Q2.29221 -2.97038 2.82457 -1.92939Q3.35693 -0.888401 4.41488 -0.888401Q5.4796 -0.888401 6.01196 -1.92939Q6.54433 -2.97038 6.54433 -5.05235Q6.54433 -7.14111 6.01196 -8.1821Q5.4796 -9.22309 4.41488 -9.22309ZM4.41488 -10.3082Q6.11708 -10.3082 7.01565 -8.962Q7.91422 -7.61583 7.91423 -5.05235Q7.91423 -2.49566 7.01565 -1.1495Q6.11708 0.196669 4.41488 0.196669Q2.71267 0.196669 1.8141 -1.1495Q0.915527 -2.49566 0.915527 -5.05235Q0.915527 -7.61583 1.8141 -8.962Q2.71267 -10.3082 4.41488 -10.3082ZM10.3217 -1.72255L11.7527 -1.72255L11.7527 0L10.3217 0L10.3217 -1.72255ZM14.7773 -0.210232L14.7773 -1.45806Q15.2927 -1.21392 15.8217 -1.08507Q16.3506 -0.956217 16.8593 -0.956217Q18.2156 -0.956217 18.9311 -1.86835Q19.6465 -2.78049 19.7483 -4.63867Q19.3549 -4.05545 18.7514 -3.74349Q18.1478 -3.43153 17.4154 -3.43153Q15.8963 -3.43153 15.0113 -4.35045Q14.1262 -5.26937 14.1262 -6.86306Q14.1262 -8.42285 15.0486 -9.36551Q15.9709 -10.3082 17.5035 -10.3082Q19.26 -10.3082 20.1857 -8.962Q21.1114 -7.61583 21.1114 -5.05235Q21.1114 -2.65842 19.9755 -1.23088Q18.8395 0.196669 16.9203 0.196669Q16.4049 0.196669 15.8759 0.0949436Q15.347 -0.00678168 14.7773 -0.210232ZM17.5035 -4.50304Q18.4258 -4.50304 18.965 -5.13374Q19.5041 -5.76443 19.5041 -6.86306Q19.5041 -7.95491 18.965 -8.589Q18.4258 -9.22309 17.5035 -9.22309Q16.5812 -9.22309 16.0421 -8.589Q15.5029 -7.95492 15.5029 -6.86306Q15.5029 -5.76443 16.0421 -5.13374Q16.5812 -4.50304 17.5035 -4.50304Z" fill="#262626" transform="translate(476.59090909090907,557.6111111111111) translate(-11.043972969055176,0)" />
<line x1="518.8636363636364" y1="533.6" x2="518.8636363636364" y2="538.8611111111111" stroke="#262626" stroke-width="1.1111111111111112" />
<path d="M1.72255 -1.15289L3.9605 -1.15289L3.9605 -8.87722L1.52588 -8.38894L1.52588 -9.63677L3.94694 -10.1251L5.31684 -10.1251L5.31684 -1.15289L7.5548 -1.15289L7.5548 0L1.72255 0L1.72255 -1.15289ZM10.3217 -1.72255L11.7527 -1.72255L11.7527 0L10.3217 0L10.3217 -1.72255ZM17.6663 -9.22309Q16.6083 -9.22309 16.076 -8.1821Q15.5436 -7.14111 15.5436 -5.05235Q15.5436 -2.97038 16.076 -1.92939Q16.6083 -0.888401 17.6663 -0.888401Q18.731 -0.888401 19.2634 -1.92939Q19.7957 -2.97038 19.7957 -5.05235Q19.7957 -7.14111 19.2634 -8.1821Q18.731 -9.22309 17.6663 -9.22309ZM17.6663 -10.3082Q19.3685 -10.3082 20.2671 -8.962Q21.1656 -7.61583 21.1656 -5.05235Q21.1656 -2.49566 20.2671 -1.1495Q19.3685 0.196669 17.6663 0.196669Q15.9641 0.196669 15.0655 -1.1495Q14.1669 -2.49566 14.1669 -5.05235Q14.1669 -7.61583 15.0655 -8.962Q15.9641 -10.3082 17.6663 -10.3082Z" fill="#262626" transform="translate(518.8636363636364,557.6111111111111) translate(-11.043972969055176,0)" />
<line x1="70.13888888888889" y1="513" x2="75.4" y2="513" stroke="#262626" stroke-width="1.1111111111111112" />
<path d="M4.41488 -9.22309Q3.35693 -9.22309 2.82457 -8.1821Q2.29221 -7.14111 2.29221 -5.05235Q2.29221 -2.97038 2.82457 -1.92939Q3.35693 -0.888401 4.41488 -0.888401Q5.4796 -0.888401 6.01196 -1.92939Q6.54433 -2.97038 6.54433 -5.05235Q6.54433 -7.14111 6.01196 -8.1821Q5.4796 -9.22309 4.41488 -9.22309ZM4.41488 -10.3082Q6.11708 -10.3082 7.01565 -8.962Q7.91422 -7.61583 7.91423 -5.05235Q7.91423 -2.49566 7.01565 -1.1495Q6.11708 0.196669 4.41488 0.196669Q2.71267 0.196669 1.8141 -1.1495Q0.915527 -2.49566 0.915527 -5.05235Q0.915527 -7.61583 1.8141 -8.962Q2.71267 -10.3082 4.41488 -10.3082ZM10.3217 -1.72255L11.7527 -1.72255L11.7527 0L10.3217 0L10.3217 -1.72255ZM17.6663 -9.22309Q16.6083 -9.22309 16.076 -8.1821Q15.5436 -7.14111 15.5436 -5.05235Q15.5436 -2.97038 16.076 -1.92939Q16.6083 -0.888401 17.6663 -0.888401Q18.731 -0.888401 19.2634 -1.92939Q19.7957 -2.97038 19.7957 -5.05235Q19.7957 -7.14111 19.2634 -8.1821Q18.731 -9.22309 17.6663 -9.22309ZM17.6663 -10.3082Q19.3685 -10.3082 20.2671 -8.962Q21.1656 -7.61583 21.1656 -5.05235Q21.1656 -2.49566 20.2671 -1.1495Q19.3685 0.196669 17.6663 0.196669Q15.9641 0.196669 15.0655 -1.1495Q14.1669 -2.49566 14.1669 -5.05235Q14.1669 -7.61583 15.0655 -8.962Q15.9641 -10.3082 17.6663 -10.3082Z" fill="#262626" transform="translate(65.27777777777777,517) translate(-22.08794593811035,0)" />
<line x1="70.13888888888889" y1="471" x2="75.4" y2="471" stroke="#262626" stroke-width="1.1111111111111112" />
<path d="M4.41488 -9.22309Q3.35693 -9.22309 2.82457 -8.1821Q2.29221 -7.14111 2.29221 -5.05235Q2.29221 -2.97038 2.82457 -1.92939Q3.35693 -0.888401 4.41488 -0.888401Q5.4796 -0.888401 6.01196 -1.92939Q6.54433 -2.97038 6.54433 -5.05235Q6.54433 -7.14111 6.01196 -8.1821Q5.4796 -9.22309 4.41488 -9.22309ZM4.41488 -10.3082Q6.11708 -10.3082 7.01565 -8.962Q7.91422 -7.61583 7.91423 -5.05235Q7.91423 -2.49566 7.01565 -1.1495Q6.11708 0.196669 4.41488 0.196669Q2.71267 0.196669 1.8141 -1.1495Q0.915527 -2.49566 0.915527 -5.05235Q0.915527 -7.61583 1.8141 -8.962Q2.71267 -10.3082 4.41488 -10.3082ZM10.3217 -1.72255L11.7527 -1.72255L11.7527 0L10.3217 0L10.3217 -1.72255ZM14.974 -1.15289L17.2119 -1.15289L17.2119 -8.87722L14.7773 -8.38894L14.7773 -9.63677L17.1984 -10.1251L18.5683 -10.1251L18.5683 -1.15289L20.8062 -1.15289L20.8062 0L14.974 0L14.974 -1.15289Z" fill="#262626" transform="translate(65.27777777777777,475) translate(-22.08794593811035,0)" />
<line x1="70.13888888888889" y1="429" x2="75.4" y2="429" stroke="#262626" stroke-width="1.1111111111111112" />
<path d="M4.41488 -9.22309Q3.35693 -9.22309 2.82457 -8.1821Q2.29221 -7.14111 2.29221 -5.05235Q2.29221 -2.97038 2.82457 -1.92939Q3.35693 -0.888401 4.41488 -0.888401Q5.4796 -0.888401 6.01196 -1.92939Q6.54433 -2.97038 6.54433 -5.05235Q6.54433 -7.14111 6.01196 -8.1821Q5.4796 -9.22309 4.41488 -9.22309ZM4.41488 -10.3082Q6.11708 -10.3082 7.01565 -8.962Q7.91422 -7.61583 7.91423 -5.05235Q7.91423 -2.49566 7.01565 -1.1495Q6.11708 0.196669 4.41488 0.196669Q2.71267 0.196669 1.8141 -1.1495Q0.915527 -2.49566 0.915527 -5.05235Q0.915527 -7.61583 1.8141 -8.962Q2.71267 -10.3082 4.41488 -10.3082ZM10.3217 -1.72255L11.7527 -1.72255L11.7527 0L10.3217 0L10.3217 -1.72255ZM15.9166 -1.15289L20.6977 -1.15289L20.6977 0L14.2687 0L14.2687 -1.15289Q15.0486 -1.95991 16.3947 -3.31963Q17.7409 -4.67936 18.0868 -5.0727Q18.7446 -5.8119 19.0057 -6.32392Q19.2668 -6.83594 19.2668 -7.331Q19.2668 -8.13802 18.7005 -8.64665Q18.1342 -9.15527 17.2255 -9.15527Q16.5812 -9.15527 15.8658 -8.93148Q15.1503 -8.70768 14.3365 -8.25331L14.3365 -9.63677Q15.1638 -9.96908 15.8827 -10.1386Q16.6016 -10.3082 17.1984 -10.3082Q18.7717 -10.3082 19.7076 -9.52148Q20.6434 -8.73481 20.6434 -7.41916Q20.6434 -6.79525 20.4095 -6.23576Q20.1755 -5.67627 19.5584 -4.91672Q19.3888 -4.72005 18.4801 -3.78079Q17.5713 -2.84153 15.9166 -1.15289Z" fill="#262626" transform="translate(65.27777777777777,433) translate(-22.08794593811035,0)" />
<line x1="70.13888888888889" y1="387" x2="75.4" y2="387" stroke="#262626" stroke-width="1.1111111111111112" />
<path d="M4.41488 -9.22309Q3.35693 -9.22309 2.82457 -8.1821Q2.29221 -7.14111 2.29221 -5.05235Q2.29221 -2.97038 2.82457 -1.92939Q3.35693 -0.888401 4.41488 -0.888401Q5.4796 -0.888401 6.01196 -1.92939Q6.54433 -2.97038 6.54433 -5.05235Q6.54433 -7.14111 6.01196 -8.1821Q5.4796 -9.22309 4.41488 -9.22309ZM4.41488 -10.3082Q6.11708 -10.3082 7.01565 -8.962Q7.91422 -7.61583 7.91423 -5.05235Q7.91423 -2.49566 7.01565 -1.1495Q6.11708 0.196669 4.41488 0.196669Q2.71267 0.196669 1.8141 -1.1495Q0.915527 -2.49566 0.915527 -5.05235Q0.915527 -7.61583 1.8141 -8.962Q2.71267 -10.3082 4.41488 -10.3082ZM10.3217 -1.72255L11.7527 -1.72255L11.7527 0L10.3217 0L10.3217 -1.72255ZM18.887 -5.45926Q19.8703 -5.24902 20.423 -4.58442Q20.9757 -3.91981 20.9757 -2.94325Q20.9757 -1.4445 19.9449 -0.623915Q18.9141 0.196669 17.0152 0.196669Q16.3778 0.196669 15.703 0.0712077Q15.0282 -0.0542535 14.3094 -0.305176L14.3094 -1.6276Q14.879 -1.2953 15.5572 -1.12576Q16.2354 -0.956217 16.9746 -0.956217Q18.2631 -0.956217 18.9379 -1.46484Q19.6126 -1.97347 19.6126 -2.94325Q19.6126 -3.83843 18.9853 -4.34367Q18.358 -4.8489 17.239 -4.8489L16.059 -4.8489L16.059 -5.97466L17.2933 -5.97466Q18.3038 -5.97466 18.8395 -6.37817Q19.3753 -6.78168 19.3753 -7.54123Q19.3753 -8.32113 18.8226 -8.7382Q18.2699 -9.15527 17.239 -9.15527Q16.6762 -9.15527 16.0319 -9.0332Q15.3876 -8.91113 14.6145 -8.65343L14.6145 -9.87413Q15.3944 -10.0911 16.076 -10.1997Q16.7575 -10.3082 17.3611 -10.3082Q18.9209 -10.3082 19.8296 -9.59947Q20.7384 -8.89079 20.7384 -7.68365Q20.7384 -6.84272 20.2569 -6.26289Q19.7754 -5.68305 18.887 -5.45926Z" fill="#262626" transform="translate(65.27777777777777,391) translate(-22.08794593811035,0)" />
<line x1="70.13888888888889" y1="345" x2="75.4" y2="345" stroke="#262626" stroke-width="1.1111111111111112" />
<path d="M4.41488 -9.22309Q3.35693 -9.22309 2.82457 -8.1821Q2.29221 -7.14111 2.29221 -5.05235Q2.29221 -2.97038 2.82457 -1.92939Q3.35693 -0.888401 4.41488 -0.888401Q5.4796 -0.888401 6.01196 -1.92939Q6.54433 -2.97038 6.54433 -5.05235Q6.54433 -7.14111 6.01196 -8.1821Q5.4796 -9.22309 4.41488 -9.22309ZM4.41488 -10.3082Q6.11708 -10.3082 7.01565 -8.962Q7.91422 -7.61583 7.91423 -5.05235Q7.91423 -2.49566 7.01565 -1.1495Q6.11708 0.196669 4.41488 0.196669Q2.71267 0.196669 1.8141 -1.1495Q0.915527 -2.49566 0.915527 -5.05235Q0.915527 -7.61583 1.8141 -8.962Q2.71267 -10.3082 4.41488 -10.3082ZM10.3217 -1.72255L11.7527 -1.72255L11.7527 0L10.3217 0L10.3217 -1.72255ZM18.5004 -8.93148L15.0418 -3.52648L18.5004 -3.52648L18.5004 -8.93148ZM18.141 -10.1251L19.8636 -10.1251L19.8636 -3.52648L21.3081 -3.52648L21.3081 -2.38715L19.8636 -2.38715L19.8636 0L18.5004 0L18.5004 -2.38715L13.9296 -2.38715L13.9296 -3.70958L18.141 -10.1251Z" fill="#262626" transform="translate(65.27777777777777,349) translate(-22.08794593811035,0)" />
<line x1="70.13888888888889" y1="303" x2="75.4" y2="303" stroke="#262626" stroke-width="1.1111111111111112" />
<path d="M4.41488 -9.22309Q3.35693 -9.22309 2.82457 -8.1821Q2.29221 -7.14111 2.29221 -5.05235Q2.29221 -2.97038 2.82457 -1.92939Q3.35693 -0.888401 4.41488 -0.888401Q5.4796 -0.888401 6.01196 -1.92939Q6.54433 -2.97038 6.54433 -5.05235Q6.54433 -7.14111 6.01196 -8.1821Q5.4796 -9.22309 4.41488 -9.22309ZM4.41488 -10.3082Q6.11708 -10.3082 7.01565 -8.962Q7.91422 -7.61583 7.91423 -5.05235Q7.91423 -2.49566 7.01565 -1.1495Q6.11708 0.196669 4.41488 0.196669Q2.71267 0.196669 1.8141 -1.1495Q0.915527 -2.49566 0.915527 -5.05235Q0.915527 -7.61583 1.8141 -8.962Q2.71267 -10.3082 4.41488 -10.3082ZM10.3217 -1.72255L11.7527 -1.72255L11.7527 0L10.3217 0L10.3217 -1.72255ZM14.7502 -10.1251L20.128 -10.1251L20.128 -8.97217L16.0048 -8.97217L16.0048 -6.49007Q16.3032 -6.5918 16.6016 -6.64266Q16.9 -6.69352 17.1984 -6.69352Q18.8938 -6.69352 19.8839 -5.76443Q20.874 -4.83534 20.874 -3.24843Q20.874 -1.61404 19.8568 -0.708686Q18.8395 0.196669 16.9881 0.196669Q16.3506 0.196669 15.6894 0.0881619C15.2486 0.0158239 14.7931 -0.092683 14.3229 -0.237359L14.3229 -1.61404Q14.9333 -1.28174 15.5843 -1.11898Q16.2354 -0.956217 16.961 -0.956217Q18.1342 -0.956217 18.8192 -1.57335Q19.5041 -2.19048 19.5041 -3.24843Q19.5041 -4.30637 18.8192 -4.9235Q18.1342 -5.54064 16.961 -5.54064Q16.4117 -5.54064 15.8658 -5.41857Q15.3198 -5.2965 14.7502 -5.03879L14.7502 -10.1251Z" fill="#262626" transform="translate(65.27777777777777,307) translate(-22.08794593811035,0)" />
<line x1="70.13888888888889" y1="261.00000000000006" x2="75.4" y2="261.00000000000006" stroke="#262626" stroke-width="1.1111111111111112" />
<path d="M4.41488 -9.22309Q3.35693 -9.22309 2.82457 -8.1821Q2.29221 -7.14111 2.29221 -5.05235Q2.29221 -2.97038 2.82457 -1.92939Q3.35693 -0.888401 4.41488 -0.888401Q5.4796 -0.888401 6.01196 -1.92939Q6.54433 -2.97038 6.54433 -5.05235Q6.54433 -7.14111 6.01196 -8.1821Q5.4796 -9.22309 4.41488 -9.22309ZM4.41488 -10.3082Q6.11708 -10.3082 7.01565 -8.962Q7.91422 -7.61583 7.91423 -5.05235Q7.91423 -2.49566 7.01565 -1.1495Q6.11708 0.196669 4.41488 0.196669Q2.71267 0.196669 1.8141 -1.1495Q0.915527 -2.49566 0.915527 -5.05235Q0.915527 -7.61583 1.8141 -8.962Q2.71267 -10.3082 4.41488 -10.3082ZM10.3217 -1.72255L11.7527 -1.72255L11.7527 0L10.3217 0L10.3217 -1.72255ZM17.8358 -5.60845Q16.9135 -5.60845 16.3744 -4.97776Q15.8352 -4.34706 15.8352 -3.24843Q15.8352 -2.15658 16.3744 -1.52249Q16.9135 -0.888401 17.8358 -0.888401Q18.7581 -0.888401 19.2973 -1.52249Q19.8364 -2.15658 19.8364 -3.24843Q19.8364 -4.34706 19.2973 -4.97776Q18.7581 -5.60845 17.8358 -5.60845ZM20.5553 -9.90126L20.5553 -8.65343Q20.0399 -8.89757 19.5143 -9.02642Q18.9887 -9.15527 18.4733 -9.15527Q17.117 -9.15527 16.4015 -8.23975Q15.686 -7.32422 15.5843 -5.47282Q15.9844 -6.06282 16.588 -6.37817Q17.1916 -6.69352 17.9172 -6.69352Q19.4431 -6.69352 20.3281 -5.76782Q21.2131 -4.84212 21.2131 -3.24843Q21.2131 -1.68864 20.2908 -0.745985Q19.3685 0.196669 17.8358 0.196669Q16.0794 0.196669 15.1503 -1.1495Q14.2212 -2.49566 14.2212 -5.05235Q14.2212 -7.45307 15.3605 -8.88062Q16.4998 -10.3082 18.4191 -10.3082Q18.9345 -10.3082 19.46 -10.2064Q19.9856 -10.1047 20.5553 -9.90126Z" fill="#262626" transform="translate(65.27777777777777,265.00000000000006) translate(-22.08794593811035,0)" />
<line x1="70.13888888888889" y1="219.00000000000006" x2="75.4" y2="219.00000000000006" stroke="#262626" stroke-width="1.1111111111111112" />
<path d="M4.41488 -9.22309Q3.35693 -9.22309 2.82457 -8.1821Q2.29221 -7.14111 2.29221 -5.05235Q2.29221 -2.97038 2.82457 -1.92939Q3.35693 -0.888401 4.41488 -0.888401Q5.4796 -0.888401 6.01196 -1.92939Q6.54433 -2.97038 6.54433 -5.05235Q6.54433 -7.14111 6.01196 -8.1821Q5.4796 -9.22309 4.41488 -9.22309ZM4.41488 -10.3082Q6.11708 -10.3082 7.01565 -8.962Q7.91422 -7.61583 7.91423 -5.05235Q7.91423 -2.49566 7.01565 -1.1495Q6.11708 0.196669 4.41488 0.196669Q2.71267 0.196669 1.8141 -1.1495Q0.915527 -2.49566 0.915527 -5.05235Q0.915527 -7.61583 1.8141 -8.962Q2.71267 -10.3082 4.41488 -10.3082ZM10.3217 -1.72255L11.7527 -1.72255L11.7527 0L10.3217 0L10.3217 -1.72255ZM14.3907 -10.1251L20.9012 -10.1251L20.9012 -9.54183L17.2255 0L15.7945 0L19.2532 -8.97217L14.3907 -8.97217L14.3907 -10.1251Z" fill="#262626" transform="translate(65.27777777777777,223.00000000000006) translate(-22.08794593811035,0)" />
<line x1="70.13888888888889" y1="177" x2="75.4" y2="177" stroke="#262626" stroke-width="1.1111111111111112" />
<path d="M4.41488 -9.22309Q3.35693 -9.22309 2.82457 -8.1821Q2.29221 -7.14111 2.29221 -5.05235Q2.29221 -2.97038 2.82457 -1.92939Q3.35693 -0.888401 4.41488 -0.888401Q5.4796 -0.888401 6.01196 -1.92939Q6.54433 -2.97038 6.54433 -5.05235Q6.54433 -7.14111 6.01196 -8.1821Q5.4796 -9.22309 4.41488 -9.22309ZM4.41488 -10.3082Q6.11708 -10.3082 7.01565 -8.962Q7.91422 -7.61583 7.91423 -5.05235Q7.91423 -2.49566 7.01565 -1.1495Q6.11708 0.196669 4.41488 0.196669Q2.71267 0.196669 1.8141 -1.1495Q0.915527 -2.49566 0.915527 -5.05235Q0.915527 -7.61583 1.8141 -8.962Q2.71267 -10.3082 4.41488 -10.3082ZM10.3217 -1.72255L11.7527 -1.72255L11.7527 0L10.3217 0L10.3217 -1.72255ZM17.6663 -4.80821Q16.6897 -4.80821 16.1302 -4.28602Q15.5707 -3.76383 15.5707 -2.84831Q15.5707 -1.93278 16.1302 -1.41059Q16.6897 -0.888401 17.6663 -0.888401Q18.6428 -0.888401 19.2057 -1.41398Q19.7686 -1.93956 19.7686 -2.84831Q19.7686 -3.76383 19.2091 -4.28602Q18.6496 -4.80821 17.6663 -4.80821ZM16.2964 -5.39144Q15.4148 -5.60845 14.9231 -6.21202Q14.4314 -6.81559 14.4314 -7.68365Q14.4314 -8.89757 15.2961 -9.60287Q16.1608 -10.3082 17.6663 -10.3082Q19.1786 -10.3082 20.0399 -9.60287Q20.9012 -8.89757 20.9012 -7.68365Q20.9012 -6.81559 20.4095 -6.21202Q19.9178 -5.60845 19.043 -5.39144Q20.0331 -5.16086 20.5858 -4.48947Q21.1385 -3.81809 21.1385 -2.84831Q21.1385 -1.37668 20.2399 -0.590007Q19.3414 0.196669 17.6663 0.196669Q15.9912 0.196669 15.0926 -0.590007Q14.1941 -1.37668 14.1941 -2.84831Q14.1941 -3.81809 14.7502 -4.48947Q15.3063 -5.16086 16.2964 -5.39144ZM15.7945 -7.5548Q15.7945 -6.76812 16.2862 -6.32731Q16.7779 -5.8865 17.6663 -5.8865Q18.5479 -5.8865 19.0464 -6.32731Q19.5448 -6.76812 19.5448 -7.5548Q19.5448 -8.34147 19.0464 -8.78228Q18.5479 -9.22309 17.6663 -9.22309Q16.7779 -9.22309 16.2862 -8.78228Q15.7945 -8.34147 15.7945 -7.5548Z" fill="#262626" transform="translate(65.27777777777777,181) translate(-22.08794593811035,0)" />
<line x1="70.13888888888889" y1="135.00000000000006" x2="75.4" y2="135.00000000000006" stroke="#262626" stroke-width="1.1111111111111112" />
<path d="M4.41488 -9.22309Q3.35693 -9.22309 2.82457 -8.1821Q2.29221 -7.14111 2.29221 -5.05235Q2.29221 -2.97038 2.82457 -1.92939Q3.35693 -0.888401 4.41488 -0.888401Q5.4796 -0.888401 6.01196 -1.92939Q6.54433 -2.97038 6.54433 -5.05235Q6.54433 -7.14111 6.01196 -8.1821Q5.4796 -9.22309 4.41488 -9.22309ZM4.41488 -10.3082Q6.11708 -10.3082 7.01565 -8.962Q7.91422 -7.61583 7.91423 -5.05235Q7.91423 -2.49566 7.01565 -1.1495Q6.11708 0.196669 4.41488 0.196669Q2.71267 0.196669 1.8141 -1.1495Q0.915527 -2.49566 0.915527 -5.05235Q0.915527 -7.61583 1.8141 -8.962Q2.71267 -10.3082 4.41488 -10.3082ZM10.3217 -1.72255L11.7527 -1.72255L11.7527 0L10.3217 0L10.3217 -1.72255ZM14.7773 -0.210232L14.7773 -1.45806Q15.2927 -1.21392 15.8217 -1.08507Q16.3506 -0.956217 16.8593 -0.956217Q18.2156 -0.956217 18.9311 -1.86835Q19.6465 -2.78049 19.7483 -4.63867Q19.3549 -4.05545 18.7514 -3.74349Q18.1478 -3.43153 17.4154 -3.43153Q15.8963 -3.43153 15.0113 -4.35045Q14.1262 -5.26937 14.1262 -6.86306Q14.1262 -8.42285 15.0486 -9.36551Q15.9709 -10.3082 17.5035 -10.3082Q19.26 -10.3082 20.1857 -8.962Q21.1114 -7.61583 21.1114 -5.05235Q21.1114 -2.65842 19.9755 -1.23088Q18.8395 0.196669 16.9203 0.196669Q16.4049 0.196669 15.8759 0.0949436Q15.347 -0.00678168 14.7773 -0.210232ZM17.5035 -4.50304Q18.4258 -4.50304 18.965 -5.13374Q19.5041 -5.76443 19.5041 -6.86306Q19.5041 -7.95491 18.965 -8.589Q18.4258 -9.22309 17.5035 -9.22309Q16.5812 -9.22309 16.0421 -8.589Q15.5029 -7.95492 15.5029 -6.86306Q15.5029 -5.76443 16.0421 -5.13374Q16.5812 -4.50304 17.5035 -4.50304Z" fill="#262626" transform="translate(65.27777777777777,139.00000000000006) translate(-22.08794593811035,0)" />
<line x1="70.13888888888889" y1="93.00000000000006" x2="75.4" y2="93.00000000000006" stroke="#262626" stroke-width="1.1111111111111112" />
<path d="M1.72255 -1.15289L3.9605 -1.15289L3.9605 -8.87722L1.52588 -8.38894L1.52588 -9.63677L3.94694 -10.1251L5.31684 -10.1251L5.31684 -1.15289L7.5548 -1.15289L7.5548 0L1.72255 0L1.72255 -1.15289ZM10.3217 -1.72255L11.7527 -1.72255L11.7527 0L10.3217 0L10.3217 -1.72255ZM17.6663 -9.22309Q16.6083 -9.22309 16.076 -8.1821Q15.5436 -7.14111 15.5436 -5.05235Q15.5436 -2.97038 16.076 -1.92939Q16.6083 -0.888401 17.6663 -0.888401Q18.731 -0.888401 19.2634 -1.92939Q19.7957 -2.97038 19.7957 -5.05235Q19.7957 -7.14111 19.2634 -8.1821Q18.731 -9.22309 17.6663 -9.22309ZM17.6663 -10.3082Q19.3685 -10.3082 20.2671 -8.962Q21.1656 -7.61583 21.1656 -5.05235Q21.1656 -2.49566 20.2671 -1.1495Q19.3685 0.196669 17.6663 0.196669Q15.9641 0.196669 15.0655 -1.1495Q14.1669 -2.49566 14.1669 -5.05235Q14.1669 -7.61583 15.0655 -8.962Q15.9641 -10.3082 17.6663 -10.3082Z" fill="#262626" transform="translate(65.27777777777777,97.00000000000006) translate(-22.08794593811035,0)" />
<path d="M 307.5 118.19999999999999 A 184.8 184.8 0 0 0 157.9936594395097 411.622714623649 L 247.6974637758039 346.4490858494596 A 73.92 73.92 0 0 1 307.5 229.07999999999998 Z " fill="#1F77B4" />
<path d="M 157.9936594395097 411.622714623649 A 184.8 184.8 0 0 0 416.122714623649 452.50634056049034 L 350.9490858494596 362.8025362241961 A 73.92 73.92 0 0 1 247.6974637758039 346.4490858494596 Z " fill="#FF7F0E" />
<path d="M 416.122714623649 452.50634056049034 A 184.8 184.8 0 0 0 483.2552442113444 245.89365943950975 L 377.8020976845378 280.1574637758039 A 73.92 73.92 0 0 1 350.9490858494596 362.8025362241961 Z " fill="#2CA02C" />
<path d="M 483.2552442113444 245.89365943950975 A 184.8 184.8 0 0 0 396.52807897399714 141.0585255278941 L 343.1112315895988 238.2234102111576 A 73.92 73.92 0 0 1 377.8020976845378 280.1574637758039 Z " fill="#D62728" />
<path d="M 396.528078973997 141.058525527894 A 184.8 184.8 0 0 0 307.50000000000006 118.19999999999999 L 307.5 229.07999999999998 A 73.92 73.92 0 0 1 343.11123158959884 238.22341021115764 Z " fill="#9467BD" />
<g class="spine">
<line x1="75" y1="534" x2="540" y2="534" stroke="#262626" stroke-width="0.8" />
</g>
<g class="spine">
<line x1="75" y1="72" x2="540" y2="72" stroke="#262626" stroke-width="0.8" />
</g>
<g class="spine">
<line x1="75" y1="72" x2="75" y2="534" stroke="#262626" stroke-width="0.8" />
</g>
<g class="spine">
<line x1="540" y1="72" x2="540" y2="534" stroke="#262626" stroke-width="0.8" />
</g>
</svg>
