<svg xmlns="http://www.w3.org/2000/svg" viewBox="0 0 800 450" width="800" height="450" style="width:100%;height:auto" role="img" aria-labelledby="chart-title">
<title id="chart-title">Dumbbell Chart — Before vs After</title>
<rect x="0" y="0" width="800" height="450" fill="#FFFFFF" />
<path d="M5.00505 -10.4992L5.00505 -2.54183L6.21045 -2.54183Q8.27186 -2.54183 9.35935 -3.5638Q10.4468 -4.58577 10.4468 -6.53364Q10.4468 -8.47276 9.36372 -9.486Q8.2806 -10.4992 6.21045 -10.4992L5.00505 -10.4992ZM1.64214 -13.0411L5.18848 -13.0411Q8.15831 -13.0411 9.61266 -12.6174Q11.067 -12.1938 12.1064 -11.1806Q13.0236 -10.2983 13.4691 -9.14535Q13.9145 -7.99235 13.9146 -6.53364Q13.9145 -5.05745 13.4691 -3.90009Q13.0236 -2.74273 12.1064 -1.86051Q11.0583 -0.847276 9.59082 -0.423638Q8.12337 0 5.18848 0L1.64214 0L1.64214 -13.0411ZM16.2467 -3.80838L16.2467 -9.78299L19.3913 -9.78299L19.3913 -8.80469Q19.3913 -8.00982 19.3825 -6.80878Q19.3738 -5.60775 19.3738 -5.20595Q19.3738 -4.02675 19.4349 -3.50703Q19.4961 -2.9873 19.6446 -2.75146Q19.8368 -2.44575 20.1468 -2.27979Q20.4569 -2.11382 20.8587 -2.11382Q21.837 -2.11382 22.396 -2.86502Q22.9551 -3.61621 22.9551 -4.95264L22.9551 -9.78299L26.0821 -9.78299L26.0821 0L22.9551 0L22.9551 -1.41504Q22.2476 -0.559028 21.4571 -0.152859Q20.6666 0.253309 19.7145 0.253309Q18.0199 0.253309 17.1333 -0.786133Q16.2467 -1.82558 16.2467 -3.80838ZM38.1536 -8.15831Q38.7476 -9.06673 39.5643 -9.54278Q40.381 -10.0188 41.3593 -10.0188Q43.0451 -10.0188 43.9274 -8.97938Q44.8096 -7.93994 44.8096 -5.95714L44.8096 0L41.665 0L41.665 -5.10113Q41.6738 -5.21468 41.6781 -5.33697Q41.6825 -5.45926 41.6825 -5.68636Q41.6825 -6.7258 41.3768 -7.19312Q41.0711 -7.66043 40.3898 -7.66043Q39.4988 -7.66043 39.014 -6.9267Q38.5292 -6.19298 38.5118 -4.80414L38.5118 0L35.3672 0L35.3672 -5.10113Q35.3672 -6.7258 35.0877 -7.19312Q34.8082 -7.66043 34.092 -7.66043Q33.1923 -7.66043 32.7031 -6.92234Q32.214 -6.18424 32.214 -4.81288L32.214 0L29.0694 0L29.0694 -9.78299L32.214 -9.78299L32.214 -8.35048Q32.7905 -9.18028 33.5373 -9.59956Q34.2841 -10.0188 35.1838 -10.0188Q36.197 -10.0188 36.9744 -9.52968Q37.7518 -9.04053 38.1536 -8.15831ZM52.9329 -2.01774Q53.9374 -2.01774 54.4659 -2.75146Q54.9944 -3.48519 54.9944 -4.88276Q54.9944 -6.28033 54.4659 -7.01405Q53.9374 -7.74778 52.9329 -7.74778Q51.9284 -7.74778 51.3913 -7.00968Q50.8541 -6.27159 50.8541 -4.88276Q50.8541 -3.49392 51.3913 -2.75583Q51.9284 -2.01774 52.9329 -2.01774ZM50.8541 -8.35048Q51.5004 -9.20649 52.2866 -9.61266Q53.0727 -10.0188 54.0947 -10.0188Q55.9028 -10.0188 57.0645 -8.58195Q58.2262 -7.14507 58.2262 -4.88276Q58.2262 -2.62044 57.0645 -1.18357Q55.9028 0.253309 54.0947 0.253309Q53.0727 0.253309 52.2866 -0.152859Q51.5004 -0.559028 50.8541 -1.41504L50.8541 0L47.727 0L47.727 -13.5914L50.8541 -13.5914L50.8541 -8.35048ZM65.7382 -2.01774Q66.7427 -2.01774 67.2711 -2.75146Q67.7996 -3.48519 67.7996 -4.88276Q67.7996 -6.28033 67.2711 -7.01405Q66.7427 -7.74778 65.7382 -7.74778Q64.7337 -7.74778 64.1965 -7.00968Q63.6593 -6.27159 63.6593 -4.88276Q63.6593 -3.49392 64.1965 -2.75583Q64.7337 -2.01774 65.7382 -2.01774ZM63.6593 -8.35048Q64.3057 -9.20649 65.0918 -9.61266Q65.8779 -10.0188 66.8999 -10.0188Q68.708 -10.0188 69.8697 -8.58195Q71.0315 -7.14507 71.0315 -4.88276Q71.0315 -2.62044 69.8697 -1.18357Q68.708 0.253309 66.8999 0.253309Q65.8779 0.253309 65.0918 -0.152859Q64.3057 -0.559028 63.6593 -1.41504L63.6593 0L60.5322 0L60.5322 -13.5914L63.6593 -13.5914L63.6593 -8.35048ZM83.103 -4.9177L83.103 -4.02675L75.7919 -4.02675Q75.9055 -2.92616 76.5868 -2.37587Q77.2681 -1.82558 78.491 -1.82558Q79.478 -1.82558 80.5131 -2.11819Q81.5482 -2.41081 82.64 -3.00477L82.64 -0.593967Q81.5307 -0.174696 80.4214 0.0393066Q79.3121 0.253309 78.2027 0.253309Q75.5474 0.253309 74.0755 -1.09622Q72.6037 -2.44575 72.6037 -4.88276Q72.6037 -7.2761 74.0493 -8.64746Q75.4949 -10.0188 78.028 -10.0188Q80.334 -10.0188 81.7185 -8.62999Q83.103 -7.24116 83.103 -4.9177ZM79.8886 -5.95714Q79.8886 -6.84809 79.3688 -7.39402Q78.8491 -7.93994 78.0106 -7.93994Q77.1022 -7.93994 76.5344 -7.42896Q75.9666 -6.91797 75.8269 -5.95714L79.8886 -5.95714ZM85.4701 -13.5914L88.5972 -13.5914L88.5972 0L85.4701 0L85.4701 -13.5914ZM91.6019 -13.5914L94.729 -13.5914L94.729 0L91.6019 0L91.6019 -13.5914ZM114.443 -0.716254Q113.518 -0.23584 112.513 0.00873481Q111.509 0.253309 110.417 0.253309Q107.159 0.253309 105.254 -1.5679Q103.35 -3.38911 103.35 -6.50743Q103.35 -9.63449 105.254 -11.4557Q107.159 -13.2769 110.417 -13.2769Q111.509 -13.2769 112.513 -13.0323Q113.518 -12.7878 114.443 -12.3073L114.443 -9.60829Q113.509 -10.2459 112.6 -10.5429Q111.692 -10.8399 110.688 -10.8399Q108.888 -10.8399 107.857 -9.6869Q106.827 -8.53391 106.827 -6.50743Q106.827 -4.48969 107.857 -3.3367Q108.888 -2.1837 110.688 -2.1837Q111.692 -2.1837 112.6 -2.48069Q113.509 -2.77767 114.443 -3.41531L114.443 -0.716254ZM126.926 -5.95714L126.926 0L123.781 0L123.781 -0.969564L123.781 -4.5421Q123.781 -5.82612 123.724 -6.30653Q123.667 -6.78695 123.528 -7.01405Q123.344 -7.31977 123.03 -7.4901Q122.715 -7.66043 122.314 -7.66043Q121.335 -7.66043 120.776 -6.90487Q120.217 -6.14931 120.217 -4.81288L120.217 0L117.09 0L117.09 -13.5914L120.217 -13.5914L120.217 -8.35048Q120.925 -9.20649 121.72 -9.61266Q122.514 -10.0188 123.475 -10.0188Q125.17 -10.0188 126.048 -8.97938Q126.926 -7.93994 126.926 -5.95714ZM134.21 -4.40234Q133.232 -4.40234 132.739 -4.07042Q132.245 -3.7385 132.245 -3.09212Q132.245 -2.49816 132.642 -2.16187Q133.04 -1.82558 133.747 -1.82558Q134.63 -1.82558 135.232 -2.45885Q135.835 -3.09212 135.835 -4.04422L135.835 -4.40234L134.21 -4.40234ZM138.988 -5.58154L138.988 0L135.835 0L135.835 -1.44998Q135.206 -0.559028 134.42 -0.152859Q133.634 0.253309 132.507 0.253309Q130.987 0.253309 130.039 -0.633274Q129.092 -1.51986 129.092 -2.9349Q129.092 -4.65565 130.275 -5.45926Q131.459 -6.26286 133.992 -6.26286L135.835 -6.26286L135.835 -6.50743Q135.835 -7.24989 135.25 -7.59492Q134.665 -7.93994 133.424 -7.93994Q132.42 -7.93994 131.555 -7.73904Q130.69 -7.53814 129.948 -7.13634L129.948 -9.52094Q130.952 -9.76552 131.965 -9.89217Q132.979 -10.0188 133.992 -10.0188Q136.639 -10.0188 137.813 -8.97502Q138.988 -7.93121 138.988 -5.58154ZM149.164 -7.11887Q148.754 -7.31103 148.348 -7.40275Q147.941 -7.49447 147.531 -7.49447Q146.326 -7.49447 145.675 -6.72144Q145.024 -5.94841 145.024 -4.50716L145.024 0L141.897 0L141.897 -9.78299L145.024 -9.78299L145.024 -8.17578Q145.627 -9.13661 146.409 -9.57772Q147.19 -10.0188 148.282 -10.0188Q148.439 -10.0188 148.623 -10.0057Q148.806 -9.99262 149.156 -9.94895L149.164 -7.11887ZM154.134 -12.5607L154.134 -9.78299L157.358 -9.78299L157.358 -7.54688L154.134 -7.54688L154.134 -3.39784Q154.134 -2.71653 154.405 -2.47632Q154.676 -2.23611 155.48 -2.23611L157.087 -2.23611L157.087 0L154.405 0Q152.553 0 151.78 -0.773031Q151.007 -1.54606 151.007 -3.39784L151.007 -7.54688L149.453 -7.54688L149.453 -9.78299L151.007 -9.78299L151.007 -12.5607L154.134 -12.5607ZM164.957 -6.02702L180.924 -6.02702L180.924 -3.77344L164.957 -3.77344L164.957 -6.02702ZM194.978 -7.99235Q195.773 -7.99235 196.184 -8.34174Q196.594 -8.69113 196.594 -9.37245Q196.594 -10.045 196.184 -10.3988Q195.773 -10.7526 194.978 -10.7526L193.118 -10.7526L193.118 -7.99235L194.978 -7.99235ZM195.092 -2.28852Q196.105 -2.28852 196.616 -2.71653Q197.127 -3.14453 197.127 -4.00928Q197.127 -4.85655 196.621 -5.28019Q196.114 -5.70383 195.092 -5.70383L193.118 -5.70383L193.118 -2.28852L195.092 -2.28852ZM198.219 -6.97911Q199.302 -6.66466 199.896 -5.81738Q200.49 -4.97011 200.49 -3.7385Q200.49 -1.85178 199.215 -0.92589Q197.94 0 195.337 0L189.755 0L189.755 -13.0411L194.804 -13.0411Q197.52 -13.0411 198.739 -12.22Q199.957 -11.3989 199.957 -9.59082Q199.957 -8.63873 199.512 -7.97051Q199.066 -7.3023 198.219 -6.97911ZM213.016 -4.9177L213.016 -4.02675L205.705 -4.02675Q205.818 -2.92616 206.5 -2.37587Q207.181 -1.82558 208.404 -1.82558Q209.391 -1.82558 210.426 -2.11819Q211.461 -2.41081 212.553 -3.00477L212.553 -0.593967Q211.444 -0.174696 210.334 0.0393066Q209.225 0.253309 208.116 0.253309Q205.46 0.253309 203.988 -1.09622Q202.517 -2.44575 202.517 -4.88276Q202.517 -7.2761 203.962 -8.64746Q205.408 -10.0188 207.941 -10.0188Q210.247 -10.0188 211.631 -8.62999Q213.016 -7.24116 213.016 -4.9177ZM209.801 -5.95714Q209.801 -6.84809 209.282 -7.39402Q208.762 -7.93994 207.923 -7.93994Q207.015 -7.93994 206.447 -7.42896Q205.879 -6.91797 205.74 -5.95714L209.801 -5.95714ZM221.82 -13.5914L221.82 -11.5387L220.091 -11.5387Q219.427 -11.5387 219.165 -11.2985Q218.903 -11.0583 218.903 -10.4643L218.903 -9.78299L221.576 -9.78299L221.576 -7.54688L218.903 -7.54688L218.903 0L215.776 0L215.776 -7.54688L214.221 -7.54688L214.221 -9.78299L215.776 -9.78299L215.776 -10.4643Q215.776 -12.0628 216.667 -12.8271Q217.558 -13.5914 219.427 -13.5914L221.82 -13.5914ZM227.821 -7.78271Q226.782 -7.78271 226.236 -7.03589Q225.69 -6.28906 225.69 -4.88276Q225.69 -3.47645 226.236 -2.72963Q226.782 -1.9828 227.821 -1.9828Q228.843 -1.9828 229.385 -2.72963Q229.926 -3.47645 229.926 -4.88276Q229.926 -6.28906 229.385 -7.03589Q228.843 -7.78271 227.821 -7.78271ZM227.821 -10.0188Q230.346 -10.0188 231.765 -8.6562Q233.184 -7.29357 233.184 -4.88276Q233.184 -2.47195 231.765 -1.10932Q230.346 0.253309 227.821 0.253309Q225.288 0.253309 223.86 -1.10932Q222.432 -2.47195 222.432 -4.88276Q222.432 -7.29357 223.86 -8.6562Q225.288 -10.0188 227.821 -10.0188ZM242.723 -7.11887Q242.312 -7.31103 241.906 -7.40275Q241.5 -7.49447 241.089 -7.49447Q239.884 -7.49447 239.233 -6.72144Q238.583 -5.94841 238.583 -4.50716L238.583 0L235.456 0L235.456 -9.78299L238.583 -9.78299L238.583 -8.17578Q239.185 -9.13661 239.967 -9.57772Q240.749 -10.0188 241.841 -10.0188Q241.998 -10.0188 242.181 -10.0057Q242.365 -9.99262 242.714 -9.94895L242.723 -7.11887ZM254.043 -4.9177L254.043 -4.02675L246.732 -4.02675Q246.846 -2.92616 247.527 -2.37587Q248.208 -1.82558 249.431 -1.82558Q250.418 -1.82558 251.453 -2.11819Q252.488 -2.41081 253.58 -3.00477L253.58 -0.593967Q252.471 -0.174696 251.362 0.0393066Q250.252 0.253309 249.143 0.253309Q246.488 0.253309 245.016 -1.09622Q243.544 -2.44575 243.544 -4.88276Q243.544 -7.2761 244.99 -8.64746Q246.435 -10.0188 248.968 -10.0188Q251.274 -10.0188 252.659 -8.62999Q254.043 -7.24116 254.043 -4.9177ZM250.829 -5.95714Q250.829 -6.84809 250.309 -7.39402Q249.789 -7.93994 248.951 -7.93994Q248.042 -7.93994 247.475 -7.42896Q246.907 -6.91797 246.767 -5.95714L250.829 -5.95714ZM261.407 -9.78299L264.534 -9.78299L266.971 -3.02224L269.399 -9.78299L272.535 -9.78299L268.683 0L265.25 0L261.407 -9.78299ZM281.942 -9.47727L281.942 -7.1014Q280.938 -7.52067 280.003 -7.73031Q279.068 -7.93994 278.239 -7.93994Q277.348 -7.93994 276.915 -7.7172Q276.483 -7.49447 276.483 -7.03152Q276.483 -6.65592 276.81 -6.45502Q277.138 -6.25412 277.985 -6.15804L278.536 -6.07943Q280.938 -5.77371 281.767 -5.07492Q282.597 -4.37614 282.597 -2.88249Q282.597 -1.31896 281.444 -0.532823Q280.291 0.253309 278.003 0.253309Q277.033 0.253309 275.998 0.10045Q274.963 -0.0524089 273.871 -0.358127L273.871 -2.734Q274.806 -2.27978 275.788 -2.05268Q276.771 -1.82557 277.784 -1.82558Q278.702 -1.82558 279.164 -2.07888Q279.627 -2.33219 279.627 -2.83008Q279.627 -3.24935 279.309 -3.45462Q278.99 -3.65989 278.038 -3.77344L277.487 -3.84332Q275.4 -4.10536 274.561 -4.81288Q273.723 -5.5204 273.723 -6.96164Q273.723 -8.51644 274.788 -9.26763Q275.854 -10.0188 278.055 -10.0188Q278.92 -10.0188 279.872 -9.8878Q280.824 -9.75678 281.942 -9.47727ZM299.228 -2.37587L293.97 -2.37587L293.14 0L289.76 0L294.59 -13.0411L298.599 -13.0411L303.43 0L300.049 0L299.228 -2.37587ZM294.809 -4.79541L298.381 -4.79541L296.599 -9.98389L294.809 -4.79541ZM311.457 -13.5914L311.457 -11.5387L309.728 -11.5387Q309.064 -11.5387 308.802 -11.2985Q308.54 -11.0583 308.54 -10.4643L308.54 -9.78299L311.212 -9.78299L311.212 -7.54688L308.54 -7.54688L308.54 0L305.413 0L305.413 -7.54688L303.858 -7.54688L303.858 -9.78299L305.413 -9.78299L305.413 -10.4643Q305.413 -12.0628 306.304 -12.8271Q307.194 -13.5914 309.064 -13.5914L311.457 -13.5914ZM316.218 -12.5607L316.218 -9.78299L319.441 -9.78299L319.441 -7.54688L316.218 -7.54688L316.218 -3.39784Q316.218 -2.71653 316.488 -2.47632Q316.759 -2.23611 317.563 -2.23611L319.17 -2.23611L319.17 0L316.488 0Q314.637 0 313.863 -0.773031Q313.09 -1.54606 313.09 -3.39784L313.09 -7.54688L311.536 -7.54688L311.536 -9.78299L313.09 -9.78299L313.09 -12.5607L316.218 -12.5607ZM331.119 -4.9177L331.119 -4.02675L323.808 -4.02675Q323.922 -2.92616 324.603 -2.37587Q325.284 -1.82558 326.507 -1.82558Q327.494 -1.82558 328.529 -2.11819Q329.564 -2.41081 330.656 -3.00477L330.656 -0.593967Q329.547 -0.174696 328.438 0.0393066Q327.328 0.253309 326.219 0.253309Q323.564 0.253309 322.092 -1.09622Q320.62 -2.44575 320.62 -4.88276Q320.62 -7.2761 322.065 -8.64746Q323.511 -10.0188 326.044 -10.0188Q328.35 -10.0188 329.735 -8.62999Q331.119 -7.24116 331.119 -4.9177ZM327.905 -5.95714Q327.905 -6.84809 327.385 -7.39402Q326.865 -7.93994 326.027 -7.93994Q325.118 -7.93994 324.551 -7.42896Q323.983 -6.91797 323.843 -5.95714L327.905 -5.95714ZM340.754 -7.11887Q340.343 -7.31103 339.937 -7.40275Q339.531 -7.49447 339.12 -7.49447Q337.915 -7.49447 337.264 -6.72144Q336.613 -5.94841 336.613 -4.50716L336.613 0L333.486 0L333.486 -9.78299L336.613 -9.78299L336.613 -8.17578Q337.216 -9.13661 337.998 -9.57772Q338.78 -10.0188 339.871 -10.0188Q340.029 -10.0188 340.212 -10.0057Q340.396 -9.99262 340.745 -9.94895L340.754 -7.11887Z" fill="#262626" transform="translate(400,24.099999999999998) translate(-170.40301513671875,0)" />
<rect x="100" y="54" width="620" height="346" fill="#FFFFFF" />
<line x1="128.1818181818182" y1="399.6" x2="128.1818181818182" y2="404.8611111111111" stroke="#262626" stroke-width="1.1111111111111112" />
<path d="M4.41488 -9.22309Q3.35693 -9.22309 2.82457 -8.1821Q2.29221 -7.14111 2.29221 -5.05235Q2.29221 -2.97038 2.82457 -1.92939Q3.35693 -0.888401 4.41488 -0.888401Q5.4796 -0.888401 6.01196 -1.92939Q6.54433 -2.97038 6.54433 -5.05235Q6.54433 -7.14111 6.01196 -8.1821Q5.4796 -9.22309 4.41488 -9.22309ZM4.41488 -10.3082Q6.11708 -10.3082 7.01565 -8.962Q7.91422 -7.61583 7.91423 -5.05235Q7.91423 -2.49566 7.01565 -1.1495Q6.11708 0.196669 4.41488 0.196669Q2.71267 0.196669 1.8141 -1.1495Q0.915527 -2.49566 0.915527 -5.05235Q0.915527 -7.61583 1.8141 -8.962Q2.71267 -10.3082 4.41488 -10.3082ZM10.3217 -1.72255L11.7527 -1.72255L11.7527 0L10.3217 0L10.3217 -1.72255ZM17.6663 -9.22309Q16.6083 -9.22309 16.076 -8.1821Q15.5436 -7.14111 15.5436 -5.05235Q15.5436 -2.97038 16.076 -1.92939Q16.6083 -0.888401 17.6663 -0.888401Q18.731 -0.888401 19.2634 -1.92939Q19.7957 -2.97038 19.7957 -5.05235Q19.7957 -7.14111 19.2634 -8.1821Q18.731 -9.22309 17.6663 -9.22309ZM17.6663 -10.3082Q19.3685 -10.3082 20.2671 -8.962Q21.1656 -7.61583 21.1656 -5.05235Q21.1656 -2.49566 20.2671 -1.1495Q19.3685 0.196669 17.6663 0.196669Q15.9641 0.196669 15.0655 -1.1495Q14.1669 -2.49566 14.1669 -5.05235Q14.1669 -7.61583 15.0655 -8.962Q15.9641 -10.3082 17.6663 -10.3082Z" fill="#262626" transform="translate(128.1818181818182,423.6111111111111) translate(-11.043972969055176,0)" />
<line x1="184.54545454545456" y1="399.6" x2="184.54545454545456" y2="404.8611111111111" stroke="#262626" stroke-width="1.1111111111111112" />
<path d="M4.41488 -9.22309Q3.35693 -9.22309 2.82457 -8.1821Q2.29221 -7.14111 2.29221 -5.05235Q2.29221 -2.97038 2.82457 -1.92939Q3.35693 -0.888401 4.41488 -0.888401Q5.4796 -0.888401 6.01196 -1.92939Q6.54433 -2.97038 6.54433 -5.05235Q6.54433 -7.14111 6.01196 -8.1821Q5.4796 -9.22309 4.41488 -9.22309ZM4.41488 -10.3082Q6.11708 -10.3082 7.01565 -8.962Q7.91422 -7.61583 7.91423 -5.05235Q7.91423 -2.49566 7.01565 -1.1495Q6.11708 0.196669 4.41488 0.196669Q2.71267 0.196669 1.8141 -1.1495Q0.915527 -2.49566 0.915527 -5.05235Q0.915527 -7.61583 1.8141 -8.962Q2.71267 -10.3082 4.41488 -10.3082ZM10.3217 -1.72255L11.7527 -1.72255L11.7527 0L10.3217 0L10.3217 -1.72255ZM14.7502 -10.1251L20.128 -10.1251L20.128 -8.97217L16.0048 -8.97217L16.0048 -6.49007Q16.3032 -6.5918 16.6016 -6.64266Q16.9 -6.69352 17.1984 -6.69352Q18.8938 -6.69352 19.8839 -5.76443Q20.874 -4.83534 20.874 -3.24843Q20.874 -1.61404 19.8568 -0.708686Q18.8395 0.196669 16.9881 0.196669Q16.3506 0.196669 15.6894 0.0881619C15.2486 0.0158239 14.7931 -0.092683 14.3229 -0.237359L14.3229 -1.61404Q14.9333 -1.28174 15.5843 -1.11898Q16.2354 -0.956217 16.961 -0.956217Q18.1342 -0.956217 18.8192 -1.57335Q19.5041 -2.19048 19.5041 -3.24843Q19.5041 -4.30637 18.8192 -4.9235Q18.1342 -5.54064 16.961 -5.54064Q16.4117 -5.54064 15.8658 -5.41857Q15.3198 -5.2965 14.7502 -5.03879L14.7502 -10.1251Z" fill="#262626" transform="translate(184.54545454545456,423.6111111111111) translate(-11.043972969055176,0)" />
<line x1="240.90909090909093" y1="399.6" x2="240.90909090909093" y2="404.8611111111111" stroke="#262626" stroke-width="1.1111111111111112" />
<path d="M1.72255 -1.15289L3.9605 -1.15289L3.9605 -8.87722L1.52588 -8.38894L1.52588 -9.63677L3.94694 -10.1251L5.31684 -10.1251L5.31684 -1.15289L7.5548 -1.15289L7.5548 0L1.72255 0L1.72255 -1.15289ZM10.3217 -1.72255L11.7527 -1.72255L11.7527 0L10.3217 0L10.3217 -1.72255ZM17.6663 -9.22309Q16.6083 -9.22309 16.076 -8.1821Q15.5436 -7.14111 15.5436 -5.05235Q15.5436 -2.97038 16.076 -1.92939Q16.6083 -0.888401 17.6663 -0.888401Q18.731 -0.888401 19.2634 -1.92939Q19.7957 -2.97038 19.7957 -5.05235Q19.7957 -7.14111 19.2634 -8.1821Q18.731 -9.22309 17.6663 -9.22309ZM17.6663 -10.3082Q19.3685 -10.3082 20.2671 -8.962Q21.1656 -7.61583 21.1656 -5.05235Q21.1656 -2.49566 20.2671 -1.1495Q19.3685 0.196669 17.6663 0.196669Q15.9641 0.196669 15.0655 -1.1495Q14.1669 -2.49566 14.1669 -5.05235Q14.1669 -7.61583 15.0655 -8.962Q15.9641 -10.3082 17.6663 -10.3082Z" fill="#262626" transform="translate(240.90909090909093,423.6111111111111) translate(-11.043972969055176,0)" />
<line x1="297.27272727272725" y1="399.6" x2="297.27272727272725" y2="404.8611111111111" stroke="#262626" stroke-width="1.1111111111111112" />
<path d="M1.72255 -1.15289L3.9605 -1.15289L3.9605 -8.87722L1.52588 -8.38894L1.52588 -9.63677L3.94694 -10.1251L5.31684 -10.1251L5.31684 -1.15289L7.5548 -1.15289L7.5548 0L1.72255 0L1.72255 -1.15289ZM10.3217 -1.72255L11.7527 -1.72255L11.7527 0L10.3217 0L10.3217 -1.72255ZM14.7502 -10.1251L20.128 -10.1251L20.128 -8.97217L16.0048 -8.97217L16.0048 -6.49007Q16.3032 -6.5918 16.6016 -6.64266Q16.9 -6.69352 17.1984 -6.69352Q18.8938 -6.69352 19.8839 -5.76443Q20.874 -4.83534 20.874 -3.24843Q20.874 -1.61404 19.8568 -0.708686Q18.8395 0.196669 16.9881 0.196669Q16.3506 0.196669 15.6894 0.0881619C15.2486 0.0158239 14.7931 -0.092683 14.3229 -0.237359L14.3229 -1.61404Q14.9333 -1.28174 15.5843 -1.11898Q16.2354 -0.956217 16.961 -0.956217Q18.1342 -0.956217 18.8192 -1.57335Q19.5041 -2.19048 19.5041 -3.24843Q19.5041 -4.30637 18.8192 -4.9235Q18.1342 -5.54064 16.961 -5.54064Q16.4117 -5.54064 15.8658 -5.41857Q15.3198 -5.2965 14.7502 -5.03879L14.7502 -10.1251Z" fill="#262626" transform="translate(297.27272727272725,423.6111111111111) translate(-11.043972969055176,0)" />
<line x1="353.6363636363636" y1="399.6" x2="353.6363636363636" y2="404.8611111111111" stroke="#262626" stroke-width="1.1111111111111112" />
<path d="M2.6652 -1.15289L7.44629 -1.15289L7.44629 0L1.01725 0L1.01725 -1.15289Q1.79715 -1.95991 3.14331 -3.31963Q4.48947 -4.67936 4.83534 -5.0727Q5.49316 -5.8119 5.75426 -6.32392Q6.01535 -6.83594 6.01535 -7.331Q6.01535 -8.13802 5.44908 -8.64665Q4.88281 -9.15527 3.97407 -9.15527Q3.32981 -9.15527 2.61434 -8.93148Q1.89887 -8.70768 1.08507 -8.25331L1.08507 -9.63677Q1.91243 -9.96908 2.63129 -10.1386Q3.35015 -10.3082 3.94694 -10.3082Q5.52029 -10.3082 6.45616 -9.52148Q7.39204 -8.73481 7.39204 -7.41916Q7.39204 -6.79525 7.15807 -6.23576Q6.9241 -5.67627 6.30697 -4.91672Q6.13742 -4.72005 5.22868 -3.78079Q4.31993 -2.84153 2.6652 -1.15289ZM10.3217 -1.72255L11.7527 -1.72255L11.7527 0L10.3217 0L10.3217 -1.72255ZM17.6663 -9.22309Q16.6083 -9.22309 16.076 -8.1821Q15.5436 -7.14111 15.5436 -5.05235Q15.5436 -2.97038 16.076 -1.92939Q16.6083 -0.888401 17.6663 -0.888401Q18.731 -0.888401 19.2634 -1.92939Q19.7957 -2.97038 19.7957 -5.05235Q19.7957 -7.14111 19.2634 -8.1821Q18.731 -9.22309 17.6663 -9.22309ZM17.6663 -10.3082Q19.3685 -10.3082 20.2671 -8.962Q21.1656 -7.61583 21.1656 -5.05235Q21.1656 -2.49566 20.2671 -1.1495Q19.3685 0.196669 17.6663 0.196669Q15.9641 0.196669 15.0655 -1.1495Q14.1669 -2.49566 14.1669 -5.05235Q14.1669 -7.61583 15.0655 -8.962Q15.9641 -10.3082 17.6663 -10.3082Z" fill="#262626" transform="translate(353.6363636363636,423.6111111111111) translate(-11.043972969055176,0)" />
<line x1="410" y1="399.6" x2="410" y2="404.8611111111111" stroke="#262626" stroke-width="1.1111111111111112" />
<path d="M2.6652 -1.15289L7.44629 -1.15289L7.44629 0L1.01725 0L1.01725 -1.15289Q1.79715 -1.95991 3.14331 -3.31963Q4.48947 -4.67936 4.83534 -5.0727Q5.49316 -5.8119 5.75426 -6.32392Q6.01535 -6.83594 6.01535 -7.331Q6.01535 -8.13802 5.44908 -8.64665Q4.88281 -9.15527 3.97407 -9.15527Q3.32981 -9.15527 2.61434 -8.93148Q1.89887 -8.70768 1.08507 -8.25331L1.08507 -9.63677Q1.91243 -9.96908 2.63129 -10.1386Q3.35015 -10.3082 3.94694 -10.3082Q5.52029 -10.3082 6.45616 -9.52148Q7.39204 -8.73481 7.39204 -7.41916Q7.39204 -6.79525 7.15807 -6.23576Q6.9241 -5.67627 6.30697 -4.91672Q6.13742 -4.72005 5.22868 -3.78079Q4.31993 -2.84153 2.6652 -1.15289ZM10.3217 -1.72255L11.7527 -1.72255L11.7527 0L10.3217 0L10.3217 -1.72255ZM14.7502 -10.1251L20.128 -10.1251L20.128 -8.97217L16.0048 -8.97217L16.0048 -6.49007Q16.3032 -6.5918 16.6016 -6.64266Q16.9 -6.69352 17.1984 -6.69352Q18.8938 -6.69352 19.8839 -5.76443Q20.874 -4.83534 20.874 -3.24843Q20.874 -1.61404 19.8568 -0.708686Q18.8395 0.196669 16.9881 0.196669Q16.3506 0.196669 15.6894 0.0881619C15.2486 0.0158239 14.7931 -0.092683 14.3229 -0.237359L14.3229 -1.61404Q14.9333 -1.28174 15.5843 -1.11898Q16.2354 -0.956217 16.961 -0.956217Q18.1342 -0.956217 18.8192 -1.57335Q19.5041 -2.19048 19.5041 -3.24843Q19.5041 -4.30637 18.8192 -4.9235Q18.1342 -5.54064 16.961 -5.54064Q16.4117 -5.54064 15.8658 -5.41857Q15.3198 -5.2965 14.7502 -5.03879L14.7502 -10.1251Z" fill="#262626" transform="translate(410,423.6111111111111) translate(-11.043972969055176,0)" />
<line x1="466.3636363636364" y1="399.6" x2="466.3636363636364" y2="404.8611111111111" stroke="#262626" stroke-width="1.1111111111111112" />
<path d="M5.63558 -5.45926Q6.61892 -5.24902 7.17163 -4.58442Q7.72434 -3.91981 7.72434 -2.94325Q7.72434 -1.4445 6.69352 -0.623915Q5.66271 0.196669 3.76383 0.196669Q3.12636 0.196669 2.45158 0.0712077Q1.7768 -0.0542535 1.05794 -0.305176L1.05794 -1.6276Q1.6276 -1.2953 2.30577 -1.12576Q2.98394 -0.956217 3.72314 -0.956217Q5.01166 -0.956217 5.68644 -1.46484Q6.36122 -1.97347 6.36122 -2.94325Q6.36122 -3.83843 5.73391 -4.34367Q5.10661 -4.8489 3.98763 -4.8489L2.80762 -4.8489L2.80762 -5.97466L4.04188 -5.97466Q5.05235 -5.97466 5.58811 -6.37817Q6.12386 -6.78168 6.12386 -7.54123Q6.12386 -8.32113 5.57115 -8.7382Q5.01845 -9.15527 3.98763 -9.15527Q3.42475 -9.15527 2.78049 -9.0332Q2.13623 -8.91113 1.36312 -8.65343L1.36312 -9.87413Q2.14301 -10.0911 2.82457 -10.1997Q3.50613 -10.3082 4.1097 -10.3082Q5.66949 -10.3082 6.57823 -9.59947Q7.48698 -8.89079 7.48698 -7.68365Q7.48698 -6.84272 7.00548 -6.26289Q6.52398 -5.68305 5.63558 -5.45926ZM10.3217 -1.72255L11.7527 -1.72255L11.7527 0L10.3217 0L10.3217 -1.72255ZM17.6663 -9.22309Q16.6083 -9.22309 16.076 -8.1821Q15.5436 -7.14111 15.5436 -5.05235Q15.5436 -2.97038 16.076 -1.92939Q16.6083 -0.888401 17.6663 -0.888401Q18.731 -0.888401 19.2634 -1.92939Q19.7957 -2.97038 19.7957 -5.05235Q19.7957 -7.14111 19.2634 -8.1821Q18.731 -9.22309 17.6663 -9.22309ZM17.6663 -10.3082Q19.3685 -10.3082 20.2671 -8.962Q21.1656 -7.61583 21.1656 -5.05235Q21.1656 -2.49566 20.2671 -1.1495Q19.3685 0.196669 17.6663 0.196669Q15.9641 0.196669 15.0655 -1.1495Q14.1669 -2.49566 14.1669 -5.05235Q14.1669 -7.61583 15.0655 -8.962Q15.9641 -10.3082 17.6663 -10.3082Z" fill="#262626" transform="translate(466.3636363636364,423.6111111111111) translate(-11.043972969055176,0)" />
<line x1="522.7272727272727" y1="399.6" x2="522.7272727272727" y2="404.8611111111111" stroke="#262626" stroke-width="1.1111111111111112" />
<path d="M5.63558 -5.45926Q6.61892 -5.24902 7.17163 -4.58442Q7.72434 -3.91981 7.72434 -2.94325Q7.72434 -1.4445 6.69352 -0.623915Q5.66271 0.196669 3.76383 0.196669Q3.12636 0.196669 2.45158 0.0712077Q1.7768 -0.0542535 1.05794 -0.305176L1.05794 -1.6276Q1.6276 -1.2953 2.30577 -1.12576Q2.98394 -0.956217 3.72314 -0.956217Q5.01166 -0.956217 5.68644 -1.46484Q6.36122 -1.97347 6.36122 -2.94325Q6.36122 -3.83843 5.73391 -4.34367Q5.10661 -4.8489 3.98763 -4.8489L2.80762 -4.8489L2.80762 -5.97466L4.04188 -5.97466Q5.05235 -5.97466 5.58811 -6.37817Q6.12386 -6.78168 6.12386 -7.54123Q6.12386 -8.32113 5.57115 -8.7382Q5.01845 -9.15527 3.98763 -9.15527Q3.42475 -9.15527 2.78049 -9.0332Q2.13623 -8.91113 1.36312 -8.65343L1.36312 -9.87413Q2.14301 -10.0911 2.82457 -10.1997Q3.50613 -10.3082 4.1097 -10.3082Q5.66949 -10.3082 6.57823 -9.59947Q7.48698 -8.89079 7.48698 -7.68365Q7.48698 -6.84272 7.00548 -6.26289Q6.52398 -5.68305 5.63558 -5.45926ZM10.3217 -1.72255L11.7527 -1.72255L11.7527 0L10.3217 0L10.3217 -1.72255ZM14.7502 -10.1251L20.128 -10.1251L20.128 -8.97217L16.0048 -8.97217L16.0048 -6.49007Q16.3032 -6.5918 16.6016 -6.64266Q16.9 -6.69352 17.1984 -6.69352Q18.8938 -6.69352 19.8839 -5.76443Q20.874 -4.83534 20.874 -3.24843Q20.874 -1.61404 19.8568 -0.708686Q18.8395 0.196669 16.9881 0.196669Q16.3506 0.196669 15.6894 0.0881619C15.2486 0.0158239 14.7931 -0.092683 14.3229 -0.237359L14.3229 -1.61404Q14.9333 -1.28174 15.5843 -1.11898Q16.2354 -0.956217 16.961 -0.956217Q18.1342 -0.956217 18.8192 -1.57335Q19.5041 -2.19048 19.5041 -3.24843Q19.5041 -4.30637 18.8192 -4.9235Q18.1342 -5.54064 16.961 -5.54064Q16.4117 -5.54064 15.8658 -5.41857Q15.3198 -5.2965 14.7502 -5.03879L14.7502 -10.1251Z" fill="#262626" transform="translate(522.7272727272727,423.6111111111111) translate(-11.043972969055176,0)" />
<line x1="579.0909090909091" y1="399.6" x2="579.0909090909091" y2="404.8611111111111" stroke="#262626" stroke-width="1.1111111111111112" />
<path d="M5.24902 -8.93148L1.79036 -3.52648L5.24902 -3.52648L5.24902 -8.93148ZM4.88959 -10.1251L6.61214 -10.1251L6.61214 -3.52648L8.05664 -3.52648L8.05664 -2.38715L6.61214 -2.38715L6.61214 0L5.24902 0L5.24902 -2.38715L0.678168 -2.38715L0.678168 -3.70958L4.88959 -10.1251ZM10.3217 -1.72255L11.7527 -1.72255L11.7527 0L10.3217 0L10.3217 -1.72255ZM17.6663 -9.22309Q16.6083 -9.22309 16.076 -8.1821Q15.5436 -7.14111 15.5436 -5.05235Q15.5436 -2.97038 16.076 -1.92939Q16.6083 -0.888401 17.6663 -0.888401Q18.731 -0.888401 19.2634 -1.92939Q19.7957 -2.97038 19.7957 -5.05235Q19.7957 -7.14111 19.2634 -8.1821Q18.731 -9.22309 17.6663 -9.22309ZM17.6663 -10.3082Q19.3685 -10.3082 20.2671 -8.962Q21.1656 -7.61583 21.1656 -5.05235Q21.1656 -2.49566 20.2671 -1.1495Q19.3685 0.196669 17.6663 0.196669Q15.9641 0.196669 15.0655 -1.1495Q14.1669 -2.49566 14.1669 -5.05235Q14.1669 -7.61583 15.0655 -8.962Q15.9641 -10.3082 17.6663 -10.3082Z" fill="#262626" transform="translate(579.0909090909091,423.6111111111111) translate(-11.043972969055176,0)" />
<line x1="635.4545454545455" y1="399.6" x2="635.4545454545455" y2="404.8611111111111" stroke="#262626" stroke-width="1.1111111111111112" />
<path d="M5.24902 -8.93148L1.79036 -3.52648L5.24902 -3.52648L5.24902 -8.93148ZM4.88959 -10.1251L6.61214 -10.1251L6.61214 -3.52648L8.05664 -3.52648L8.05664 -2.38715L6.61214 -2.38715L6.61214 0L5.24902 0L5.24902 -2.38715L0.678168 -2.38715L0.678168 -3.70958L4.88959 -10.1251ZM10.3217 -1.72255L11.7527 -1.72255L11.7527 0L10.3217 0L10.3217 -1.72255ZM14.7502 -10.1251L20.128 -10.1251L20.128 -8.97217L16.0048 -8.97217L16.0048 -6.49007Q16.3032 -6.5918 16.6016 -6.64266Q16.9 -6.69352 17.1984 -6.69352Q18.8938 -6.69352 19.8839 -5.76443Q20.874 -4.83534 20.874 -3.24843Q20.874 -1.61404 19.8568 -0.708686Q18.8395 0.196669 16.9881 0.196669Q16.3506 0.196669 15.6894 0.0881619C15.2486 0.0158239 14.7931 -0.092683 14.3229 -0.237359L14.3229 -1.61404Q14.9333 -1.28174 15.5843 -1.11898Q16.2354 -0.956217 16.961 -0.956217Q18.1342 -0.956217 18.8192 -1.57335Q19.5041 -2.19048 19.5041 -3.24843Q19.5041 -4.30637 18.8192 -4.9235Q18.1342 -5.54064 16.961 -5.54064Q16.4117 -5.54064 15.8658 -5.41857Q15.3198 -5.2965 14.7502 -5.03879L14.7502 -10.1251Z" fill="#262626" transform="translate(635.4545454545455,423.6111111111111) translate(-11.043972969055176,0)" />
<line x1="691.8181818181818" y1="399.6" x2="691.8181818181818" y2="404.8611111111111" stroke="#262626" stroke-width="1.1111111111111112" />
<path d="M1.49875 -10.1251L6.87663 -10.1251L6.87663 -8.97217L2.75336 -8.97217L2.75336 -6.49007Q3.05176 -6.5918 3.35015 -6.64266Q3.64855 -6.69352 3.94694 -6.69352Q5.64236 -6.69352 6.63249 -5.76443Q7.62261 -4.83534 7.62261 -3.24843Q7.62261 -1.61404 6.60536 -0.708686Q5.58811 0.196669 3.73671 0.196669Q3.09923 0.196669 2.43802 0.0881619C1.99721 0.0158239 1.5417 -0.092683 1.07151 -0.237359L1.07151 -1.61404Q1.68186 -1.28174 2.3329 -1.11898Q2.98394 -0.956217 3.70958 -0.956217Q4.88281 -0.956217 5.56776 -1.57335Q6.25271 -2.19048 6.25271 -3.24843Q6.25271 -4.30637 5.56776 -4.9235Q4.88281 -5.54064 3.70958 -5.54064Q3.16026 -5.54064 2.61434 -5.41857Q2.06841 -5.2965 1.49875 -5.03879L1.49875 -10.1251ZM10.3217 -1.72255L11.7527 -1.72255L11.7527 0L10.3217 0L10.3217 -1.72255ZM17.6663 -9.22309Q16.6083 -9.22309 16.076 -8.1821Q15.5436 -7.14111 15.5436 -5.05235Q15.5436 -2.97038 16.076 -1.92939Q16.6083 -0.888401 17.6663 -0.888401Q18.731 -0.888401 19.2634 -1.92939Q19.7957 -2.97038 19.7957 -5.05235Q19.7957 -7.14111 19.2634 -8.1821Q18.731 -9.22309 17.6663 -9.22309ZM17.6663 -10.3082Q19.3685 -10.3082 20.2671 -8.962Q21.1656 -7.61583 21.1656 -5.05235Q21.1656 -2.49566 20.2671 -1.1495Q19.3685 0.196669 17.6663 0.196669Q15.9641 0.196669 15.0655 -1.1495Q14.1669 -2.49566 14.1669 -5.05235Q14.1669 -7.61583 15.0655 -8.962Q15.9641 -10.3082 17.6663 -10.3082Z" fill="#262626" transform="translate(691.8181818181818,423.6111111111111) translate(-11.043972969055176,0)" />
<line x1="95.13888888888889" y1="399.99999999999994" x2="100.4" y2="399.99999999999994" stroke="#262626" stroke-width="1.1111111111111112" />
<path d="M5.63558 -5.45926Q6.61892 -5.24902 7.17163 -4.58442Q7.72434 -3.91981 7.72434 -2.94325Q7.72434 -1.4445 6.69352 -0.623915Q5.66271 0.196669 3.76383 0.196669Q3.12636 0.196669 2.45158 0.0712077Q1.7768 -0.0542535 1.05794 -0.305176L1.05794 -1.6276Q1.6276 -1.2953 2.30577 -1.12576Q2.98394 -0.956217 3.72314 -0.956217Q5.01166 -0.956217 5.68644 -1.46484Q6.36122 -1.97347 6.36122 -2.94325Q6.36122 -3.83843 5.73391 -4.34367Q5.10661 -4.8489 3.98763 -4.8489L2.80762 -4.8489L2.80762 -5.97466L4.04188 -5.97466Q5.05235 -5.97466 5.58811 -6.37817Q6.12386 -6.78168 6.12386 -7.54123Q6.12386 -8.32113 5.57115 -8.7382Q5.01845 -9.15527 3.98763 -9.15527Q3.42475 -9.15527 2.78049 -9.0332Q2.13623 -8.91113 1.36312 -8.65343L1.36312 -9.87413Q2.14301 -10.0911 2.82457 -10.1997Q3.50613 -10.3082 4.1097 -10.3082Q5.66949 -10.3082 6.57823 -9.59947Q7.48698 -8.89079 7.48698 -7.68365Q7.48698 -6.84272 7.00548 -6.26289Q6.52398 -5.68305 5.63558 -5.45926ZM13.2514 -9.22309Q12.1935 -9.22309 11.6611 -8.1821Q11.1287 -7.14111 11.1287 -5.05235Q11.1287 -2.97038 11.6611 -1.92939Q12.1935 -0.888401 13.2514 -0.888401Q14.3161 -0.888401 14.8485 -1.92939Q15.3809 -2.97038 15.3809 -5.05235Q15.3809 -7.14111 14.8485 -8.1821Q14.3161 -9.22309 13.2514 -9.22309ZM13.2514 -10.3082Q14.9536 -10.3082 15.8522 -8.962Q16.7508 -7.61583 16.7508 -5.05235Q16.7508 -2.49566 15.8522 -1.1495Q14.9536 0.196669 13.2514 0.196669Q11.5492 0.196669 10.6506 -1.1495Q9.75206 -2.49566 9.75206 -5.05235Q9.75206 -7.61583 10.6506 -8.962Q11.5492 -10.3082 13.2514 -10.3082Z" fill="#262626" transform="translate(90.27777777777777,403.99999999999994) translate(-17.67306900024414,0)" />
<line x1="95.13888888888889" y1="350.5714285714285" x2="100.4" y2="350.5714285714285" stroke="#262626" stroke-width="1.1111111111111112" />
<path d="M5.24902 -8.93148L1.79036 -3.52648L5.24902 -3.52648L5.24902 -8.93148ZM4.88959 -10.1251L6.61214 -10.1251L6.61214 -3.52648L8.05664 -3.52648L8.05664 -2.38715L6.61214 -2.38715L6.61214 0L5.24902 0L5.24902 -2.38715L0.678168 -2.38715L0.678168 -3.70958L4.88959 -10.1251ZM13.2514 -9.22309Q12.1935 -9.22309 11.6611 -8.1821Q11.1287 -7.14111 11.1287 -5.05235Q11.1287 -2.97038 11.6611 -1.92939Q12.1935 -0.888401 13.2514 -0.888401Q14.3161 -0.888401 14.8485 -1.92939Q15.3809 -2.97038 15.3809 -5.05235Q15.3809 -7.14111 14.8485 -8.1821Q14.3161 -9.22309 13.2514 -9.22309ZM13.2514 -10.3082Q14.9536 -10.3082 15.8522 -8.962Q16.7508 -7.61583 16.7508 -5.05235Q16.7508 -2.49566 15.8522 -1.1495Q14.9536 0.196669 13.2514 0.196669Q11.5492 0.196669 10.6506 -1.1495Q9.75206 -2.49566 9.75206 -5.05235Q9.75206 -7.61583 10.6506 -8.962Q11.5492 -10.3082 13.2514 -10.3082Z" fill="#262626" transform="translate(90.27777777777777,354.5714285714285) translate(-17.67306900024414,0)" />
<line x1="95.13888888888889" y1="301.14285714285705" x2="100.4" y2="301.14285714285705" stroke="#262626" stroke-width="1.1111111111111112" />
<path d="M1.49875 -10.1251L6.87663 -10.1251L6.87663 -8.97217L2.75336 -8.97217L2.75336 -6.49007Q3.05176 -6.5918 3.35015 -6.64266Q3.64855 -6.69352 3.94694 -6.69352Q5.64236 -6.69352 6.63249 -5.76443Q7.62261 -4.83534 7.62261 -3.24843Q7.62261 -1.61404 6.60536 -0.708686Q5.58811 0.196669 3.73671 0.196669Q3.09923 0.196669 2.43802 0.0881619C1.99721 0.0158239 1.5417 -0.092683 1.07151 -0.237359L1.07151 -1.61404Q1.68186 -1.28174 2.3329 -1.11898Q2.98394 -0.956217 3.70958 -0.956217Q4.88281 -0.956217 5.56776 -1.57335Q6.25271 -2.19048 6.25271 -3.24843Q6.25271 -4.30637 5.56776 -4.9235Q4.88281 -5.54064 3.70958 -5.54064Q3.16026 -5.54064 2.61434 -5.41857Q2.06841 -5.2965 1.49875 -5.03879L1.49875 -10.1251ZM13.2514 -9.22309Q12.1935 -9.22309 11.6611 -8.1821Q11.1287 -7.14111 11.1287 -5.05235Q11.1287 -2.97038 11.6611 -1.92939Q12.1935 -0.888401 13.2514 -0.888401Q14.3161 -0.888401 14.8485 -1.92939Q15.3809 -2.97038 15.3809 -5.05235Q15.3809 -7.14111 14.8485 -8.1821Q14.3161 -9.22309 13.2514 -9.22309ZM13.2514 -10.3082Q14.9536 -10.3082 15.8522 -8.962Q16.7508 -7.61583 16.7508 -5.05235Q16.7508 -2.49566 15.8522 -1.1495Q14.9536 0.196669 13.2514 0.196669Q11.5492 0.196669 10.6506 -1.1495Q9.75206 -2.49566 9.75206 -5.05235Q9.75206 -7.61583 10.6506 -8.962Q11.5492 -10.3082 13.2514 -10.3082Z" fill="#262626" transform="translate(90.27777777777777,305.14285714285705) translate(-17.67306900024414,0)" />
<line x1="95.13888888888889" y1="251.71428571428567" x2="100.4" y2="251.71428571428567" stroke="#262626" stroke-width="1.1111111111111112" />
<path d="M4.58442 -5.60845Q3.66211 -5.60845 3.12297 -4.97776Q2.58382 -4.34706 2.58382 -3.24843Q2.58382 -2.15658 3.12297 -1.52249Q3.66211 -0.888401 4.58442 -0.888401Q5.50673 -0.888401 6.04587 -1.52249Q6.58502 -2.15658 6.58502 -3.24843Q6.58502 -4.34706 6.04587 -4.97776Q5.50673 -5.60845 4.58442 -5.60845ZM7.30387 -9.90126L7.30387 -8.65343Q6.78847 -8.89757 6.26289 -9.02642Q5.7373 -9.15527 5.2219 -9.15527Q3.86556 -9.15527 3.15009 -8.23975Q2.43462 -7.32422 2.3329 -5.47282Q2.73302 -6.06282 3.33659 -6.37817Q3.94016 -6.69352 4.6658 -6.69352Q6.19168 -6.69352 7.07669 -5.76782Q7.9617 -4.84212 7.9617 -3.24843Q7.9617 -1.68864 7.03939 -0.745985Q6.11708 0.196669 4.58442 0.196669Q2.82796 0.196669 1.89887 -1.1495Q0.969781 -2.49566 0.969781 -5.05235Q0.969781 -7.45307 2.1091 -8.88062Q3.24843 -10.3082 5.16764 -10.3082Q5.68305 -10.3082 6.20863 -10.2064Q6.73421 -10.1047 7.30387 -9.90126ZM13.2514 -9.22309Q12.1935 -9.22309 11.6611 -8.1821Q11.1287 -7.14111 11.1287 -5.05235Q11.1287 -2.97038 11.6611 -1.92939Q12.1935 -0.888401 13.2514 -0.888401Q14.3161 -0.888401 14.8485 -1.92939Q15.3809 -2.97038 15.3809 -5.05235Q15.3809 -7.14111 14.8485 -8.1821Q14.3161 -9.22309 13.2514 -9.22309ZM13.2514 -10.3082Q14.9536 -10.3082 15.8522 -8.962Q16.7508 -7.61583 16.7508 -5.05235Q16.7508 -2.49566 15.8522 -1.1495Q14.9536 0.196669 13.2514 0.196669Q11.5492 0.196669 10.6506 -1.1495Q9.75206 -2.49566 9.75206 -5.05235Q9.75206 -7.61583 10.6506 -8.962Q11.5492 -10.3082 13.2514 -10.3082Z" fill="#262626" transform="translate(90.27777777777777,255.71428571428567) translate(-17.67306900024414,0)" />
<line x1="95.13888888888889" y1="202.28571428571422" x2="100.4" y2="202.28571428571422" stroke="#262626" stroke-width="1.1111111111111112" />
<path d="M1.13932 -10.1251L7.64974 -10.1251L7.64974 -9.54183L3.97407 0L2.54313 0L6.00179 -8.97217L1.13932 -8.97217L1.13932 -10.1251ZM13.2514 -9.22309Q12.1935 -9.22309 11.6611 -8.1821Q11.1287 -7.14111 11.1287 -5.05235Q11.1287 -2.97038 11.6611 -1.92939Q12.1935 -0.888401 13.2514 -0.888401Q14.3161 -0.888401 14.8485 -1.92939Q15.3809 -2.97038 15.3809 -5.05235Q15.3809 -7.14111 14.8485 -8.1821Q14.3161 -9.22309 13.2514 -9.22309ZM13.2514 -10.3082Q14.9536 -10.3082 15.8522 -8.962Q16.7508 -7.61583 16.7508 -5.05235Q16.7508 -2.49566 15.8522 -1.1495Q14.9536 0.196669 13.2514 0.196669Q11.5492 0.196669 10.6506 -1.1495Q9.75206 -2.49566 9.75206 -5.05235Q9.75206 -7.61583 10.6506 -8.962Q11.5492 -10.3082 13.2514 -10.3082Z" fill="#262626" transform="translate(90.27777777777777,206.28571428571422) translate(-17.67306900024414,0)" />
<line x1="95.13888888888889" y1="152.85714285714278" x2="100.4" y2="152.85714285714278" stroke="#262626" stroke-width="1.1111111111111112" />
<path d="M4.41488 -4.80821Q3.43831 -4.80821 2.87882 -4.28602Q2.31934 -3.76383 2.31934 -2.84831Q2.31934 -1.93278 2.87882 -1.41059Q3.43831 -0.888401 4.41488 -0.888401Q5.39144 -0.888401 5.95432 -1.41398Q6.5172 -1.93956 6.5172 -2.84831Q6.5172 -3.76383 5.95771 -4.28602Q5.39822 -4.80821 4.41488 -4.80821ZM3.04498 -5.39144Q2.16336 -5.60845 1.67169 -6.21202Q1.18001 -6.81559 1.18001 -7.68365Q1.18001 -8.89757 2.04468 -9.60287Q2.90934 -10.3082 4.41488 -10.3082Q5.92719 -10.3082 6.78847 -9.60287Q7.64974 -8.89757 7.64974 -7.68365Q7.64974 -6.81559 7.15807 -6.21202Q6.6664 -5.60845 5.79156 -5.39144Q6.78168 -5.16086 7.33439 -4.48947Q7.8871 -3.81809 7.8871 -2.84831Q7.8871 -1.37668 6.98853 -0.590007Q6.08995 0.196669 4.41488 0.196669Q2.7398 0.196669 1.84123 -0.590007Q0.942654 -1.37668 0.942654 -2.84831Q0.942654 -3.81809 1.49875 -4.48947Q2.05485 -5.16086 3.04498 -5.39144ZM2.54313 -7.5548Q2.54313 -6.76812 3.0348 -6.32731Q3.52648 -5.8865 4.41488 -5.8865Q5.29649 -5.8865 5.79495 -6.32731Q6.2934 -6.76812 6.2934 -7.5548Q6.2934 -8.34147 5.79495 -8.78228Q5.2965 -9.22309 4.41488 -9.22309Q3.52648 -9.22309 3.0348 -8.78228Q2.54313 -8.34147 2.54313 -7.5548ZM13.2514 -9.22309Q12.1935 -9.22309 11.6611 -8.1821Q11.1287 -7.14111 11.1287 -5.05235Q11.1287 -2.97038 11.6611 -1.92939Q12.1935 -0.888401 13.2514 -0.888401Q14.3161 -0.888401 14.8485 -1.92939Q15.3809 -2.97038 15.3809 -5.05235Q15.3809 -7.14111 14.8485 -8.1821Q14.3161 -9.22309 13.2514 -9.22309ZM13.2514 -10.3082Q14.9536 -10.3082 15.8522 -8.962Q16.7508 -7.61583 16.7508 -5.05235Q16.7508 -2.49566 15.8522 -1.1495Q14.9536 0.196669 13.2514 0.196669Q11.5492 0.196669 10.6506 -1.1495Q9.75206 -2.49566 9.75206 -5.05235Q9.75206 -7.61583 10.6506 -8.962Q11.5492 -10.3082 13.2514 -10.3082Z" fill="#262626" transform="translate(90.27777777777777,156.85714285714278) translate(-17.67306900024414,0)" />
<line x1="95.13888888888889" y1="103.42857142857133" x2="100.4" y2="103.42857142857133" stroke="#262626" stroke-width="1.1111111111111112" />
<path d="M1.52588 -0.210232L1.52588 -1.45806Q2.04129 -1.21392 2.57026 -1.08507Q3.09923 -0.956217 3.60786 -0.956217Q4.96419 -0.956217 5.67966 -1.86835Q6.39513 -2.78049 6.49685 -4.63867Q6.10352 -4.05545 5.49995 -3.74349Q4.89638 -3.43153 4.16395 -3.43153Q2.64486 -3.43153 1.75985 -4.35045Q0.874837 -5.26937 0.874837 -6.86306Q0.874837 -8.42285 1.79715 -9.36551Q2.71946 -10.3082 4.25212 -10.3082Q6.00857 -10.3082 6.93427 -8.962Q7.85997 -7.61583 7.85997 -5.05235Q7.85997 -2.65842 6.72404 -1.23088Q5.58811 0.196669 3.66889 0.196669Q3.15348 0.196669 2.62451 0.0949436Q2.09554 -0.00678168 1.52588 -0.210232ZM4.25212 -4.50304Q5.17442 -4.50304 5.71357 -5.13374Q6.25271 -5.76443 6.25271 -6.86306Q6.25271 -7.95491 5.71357 -8.589Q5.17443 -9.22309 4.25212 -9.22309Q3.32981 -9.22309 2.79066 -8.589Q2.25152 -7.95492 2.25152 -6.86306Q2.25152 -5.76443 2.79066 -5.13374Q3.32981 -4.50304 4.25212 -4.50304ZM13.2514 -9.22309Q12.1935 -9.22309 11.6611 -8.1821Q11.1287 -7.14111 11.1287 -5.05235Q11.1287 -2.97038 11.6611 -1.92939Q12.1935 -0.888401 13.2514 -0.888401Q14.3161 -0.888401 14.8485 -1.92939Q15.3809 -2.97038 15.3809 -5.05235Q15.3809 -7.14111 14.8485 -8.1821Q14.3161 -9.22309 13.2514 -9.22309ZM13.2514 -10.3082Q14.9536 -10.3082 15.8522 -8.962Q16.7508 -7.61583 16.7508 -5.05235Q16.7508 -2.49566 15.8522 -1.1495Q14.9536 0.196669 13.2514 0.196669Q11.5492 0.196669 10.6506 -1.1495Q9.75206 -2.49566 9.75206 -5.05235Q9.75206 -7.61583 10.6506 -8.962Q11.5492 -10.3082 13.2514 -10.3082Z" fill="#262626" transform="translate(90.27777777777777,107.42857142857133) translate(-17.67306900024414,0)" />
<line x1="95.13888888888889" y1="53.999999999999886" x2="100.4" y2="53.999999999999886" stroke="#262626" stroke-width="1.1111111111111112" />
<path d="M1.72255 -1.15289L3.9605 -1.15289L3.9605 -8.87722L1.52588 -8.38894L1.52588 -9.63677L3.94694 -10.1251L5.31684 -10.1251L5.31684 -1.15289L7.5548 -1.15289L7.5548 0L1.72255 0L1.72255 -1.15289ZM13.2514 -9.22309Q12.1935 -9.22309 11.6611 -8.1821Q11.1287 -7.14111 11.1287 -5.05235Q11.1287 -2.97038 11.6611 -1.92939Q12.1935 -0.888401 13.2514 -0.888401Q14.3161 -0.888401 14.8485 -1.92939Q15.3809 -2.97038 15.3809 -5.05235Q15.3809 -7.14111 14.8485 -8.1821Q14.3161 -9.22309 13.2514 -9.22309ZM13.2514 -10.3082Q14.9536 -10.3082 15.8522 -8.962Q16.7508 -7.61583 16.7508 -5.05235Q16.7508 -2.49566 15.8522 -1.1495Q14.9536 0.196669 13.2514 0.196669Q11.5492 0.196669 10.6506 -1.1495Q9.75206 -2.49566 9.75206 -5.05235Q9.75206 -7.61583 10.6506 -8.962Q11.5492 -10.3082 13.2514 -10.3082ZM22.0879 -9.22309Q21.03 -9.22309 20.4976 -8.1821Q19.9653 -7.14111 19.9653 -5.05235Q19.9653 -2.97038 20.4976 -1.92939Q21.03 -0.888401 22.0879 -0.888401Q23.1527 -0.888401 23.685 -1.92939Q24.2174 -2.97038 24.2174 -5.05235Q24.2174 -7.14111 23.685 -8.1821Q23.1527 -9.22309 22.0879 -9.22309ZM22.0879 -10.3082Q23.7901 -10.3082 24.6887 -8.962Q25.5873 -7.61583 25.5873 -5.05235Q25.5873 -2.49566 24.6887 -1.1495Q23.7901 0.196669 22.0879 0.196669Q20.3857 0.196669 19.4872 -1.1495Q18.5886 -2.49566 18.5886 -5.05235Q18.5886 -7.61583 19.4872 -8.962Q20.3857 -10.3082 22.0879 -10.3082Z" fill="#262626" transform="translate(90.27777777777777,57.999999999999886) translate(-26.50960350036621,0)" />
<circle cx="128.1818181818182" cy="241.82857142857137" r="3" fill="#AAAAAA" />
<line x1="128.1818181818182" y1="241.82857142857137" x2="128.1818181818182" y2="182.51428571428562" stroke="#AAAAAA" stroke-width="3" />
<line x1="128.1818181818182" y1="182.51428571428562" x2="128.1818181818182" y2="182.51428571428562" stroke="#AAAAAA" stroke-width="3" />
<line x1="128.1818181818182" y1="241.82857142857137" x2="128.1818181818182" y2="241.82857142857137" stroke="#AAAAAA" stroke-width="3" />
<circle cx="240.90909090909093" cy="160.2714285714285" r="3" fill="#AAAAAA" />
<line x1="240.90909090909093" y1="160.2714285714285" x2="240.90909090909093" y2="142.97142857142848" stroke="#AAAAAA" stroke-width="3" />
<line x1="240.90909090909093" y1="142.97142857142848" x2="240.90909090909093" y2="142.97142857142848" stroke="#AAAAAA" stroke-width="3" />
<line x1="240.90909090909093" y1="160.2714285714285" x2="240.90909090909093" y2="160.2714285714285" stroke="#AAAAAA" stroke-width="3" />
<circle cx="353.6363636363636" cy="276.42857142857133" r="3" fill="#AAAAAA" />
<line x1="353.6363636363636" y1="276.42857142857133" x2="353.6363636363636" y2="212.17142857142846" stroke="#AAAAAA" stroke-width="3" />
<line x1="353.6363636363636" y1="212.17142857142846" x2="353.6363636363636" y2="212.17142857142846" stroke="#AAAAAA" stroke-width="3" />
<line x1="353.6363636363636" y1="276.42857142857133" x2="353.6363636363636" y2="276.42857142857133" stroke="#AAAAAA" stroke-width="3" />
<circle cx="466.3636363636364" cy="138.02857142857135" r="3" fill="#AAAAAA" />
<line x1="466.3636363636364" y1="138.02857142857135" x2="466.3636363636364" y2="120.72857142857134" stroke="#AAAAAA" stroke-width="3" />
<line x1="466.3636363636364" y1="120.72857142857134" x2="466.3636363636364" y2="120.72857142857134" stroke="#AAAAAA" stroke-width="3" />
<line x1="466.3636363636364" y1="138.02857142857135" x2="466.3636363636364" y2="138.02857142857135" stroke="#AAAAAA" stroke-width="3" />
<circle cx="579.0909090909091" cy="202.28571428571422" r="3" fill="#AAAAAA" />
<line x1="579.0909090909091" y1="202.28571428571422" x2="579.0909090909091" y2="110.84285714285704" stroke="#AAAAAA" stroke-width="3" />
<line x1="579.0909090909091" y1="110.84285714285704" x2="579.0909090909091" y2="110.84285714285704" stroke="#AAAAAA" stroke-width="3" />
<line x1="579.0909090909091" y1="202.28571428571422" x2="579.0909090909091" y2="202.28571428571422" stroke="#AAAAAA" stroke-width="3" />
<circle cx="691.8181818181818" cy="311.02857142857135" r="3" fill="#AAAAAA" />
<line x1="691.8181818181818" y1="311.02857142857135" x2="691.8181818181818" y2="246.7714285714285" stroke="#AAAAAA" stroke-width="3" />
<line x1="691.8181818181818" y1="246.7714285714285" x2="691.8181818181818" y2="246.7714285714285" stroke="#AAAAAA" stroke-width="3" />
<line x1="691.8181818181818" y1="311.02857142857135" x2="691.8181818181818" y2="311.02857142857135" stroke="#AAAAAA" stroke-width="3" />
<g class="series" aria-label="Before">
<circle cx="128.1818181818182" cy="241.82857142857137" r="2.9319501705866333" fill="#E74C3C" />
<circle cx="240.90909090909093" cy="160.2714285714285" r="2.9319501705866333" fill="#E74C3C" />
<circle cx="353.6363636363636" cy="276.42857142857133" r="2.9319501705866333" fill="#E74C3C" />
<circle cx="466.3636363636364" cy="138.02857142857135" r="2.9319501705866333" fill="#E74C3C" />
<circle cx="579.0909090909091" cy="202.28571428571422" r="2.9319501705866333" fill="#E74C3C" />
<circle cx="691.8181818181818" cy="311.02857142857135" r="2.9319501705866333" fill="#E74C3C" />
</g>
<g class="series" aria-label="After">
<circle cx="128.1818181818182" cy="182.51428571428562" r="2.9319501705866333" fill="#2ECC71" />
<circle cx="240.90909090909093" cy="142.97142857142848" r="2.9319501705866333" fill="#2ECC71" />
<circle cx="353.6363636363636" cy="212.1714285714285" r="2.9319501705866333" fill="#2ECC71" />
<circle cx="466.3636363636364" cy="155.32857142857134" r="2.9319501705866333" fill="#2ECC71" />
<circle cx="579.0909090909091" cy="110.84285714285704" r="2.9319501705866333" fill="#2ECC71" />
<circle cx="691.8181818181818" cy="246.7714285714285" r="2.9319501705866333" fill="#2ECC71" />
</g>
<g class="spine">
<line x1="100" y1="400" x2="720" y2="400" stroke="#262626" stroke-width="0.8" />
</g>
<g class="spine">
<line x1="100" y1="54" x2="720" y2="54" stroke="#262626" stroke-width="0.8" />
</g>
<g class="spine">
<line x1="100" y1="54" x2="100" y2="400" stroke="#262626" stroke-width="0.8" />
</g>
<g class="spine">
<line x1="720" y1="54" x2="720" y2="400" stroke="#262626" stroke-width="0.8" />
</g>
<g class="legend" aria-label="Chart legend">
<rect x="609.3957790798611" y="64" width="100.60422092013889" height="42.388888888888886" fill="#FFFFFF" fill-opacity="0.8" stroke="#CCCCCC" stroke-width="0.5" />
<circle cx="622.2568901909722" cy="76.86111111111111" r="4.072153014703657" fill="#E74C3C" />
<path d="M2.73302 -4.83534L2.73302 -1.12576L4.93028 -1.12576Q6.0357 -1.12576 6.56806 -1.58352Q7.10042 -2.04129 7.10042 -2.98394Q7.10042 -3.93338 6.56806 -4.38436Q6.0357 -4.83534 4.93028 -4.83534L2.73302 -4.83534ZM2.73302 -8.9993L2.73302 -5.94754L4.76074 -5.94754Q5.76443 -5.94754 6.2561 -6.32392Q6.74778 -6.7003 6.74778 -7.47342Q6.74778 -8.23975 6.2561 -8.61952Q5.76443 -8.99929 4.76074 -8.9993L2.73302 -8.9993ZM1.36312 -10.1251L4.86247 -10.1251Q6.42904 -10.1251 7.27675 -9.47401Q8.12446 -8.82297 8.12446 -7.62261Q8.12446 -6.69352 7.69043 -6.14421Q7.2564 -5.59489 6.41547 -5.45926Q7.42594 -5.24224 7.98543 -4.5539Q8.54492 -3.86556 8.54492 -2.83474Q8.54492 -1.47841 7.62261 -0.739204Q6.7003 0 4.9981 0L1.36312 0L1.36312 -10.1251ZM17.334 -4.1097L17.334 -3.49935L11.5967 -3.49935Q11.6781 -2.21083 12.3732 -1.53605Q13.0683 -0.861274 14.3094 -0.861274Q15.0282 -0.861274 15.703 -1.0376Q16.3778 -1.21392 17.0424 -1.56657L17.0424 -0.386556Q16.371 -0.101725 15.6657 0.0474718Q14.9604 0.196669 14.2348 0.196669Q12.4173 0.196669 11.3559 -0.861274Q10.2946 -1.91922 10.2946 -3.72314Q10.2946 -5.58811 11.3017 -6.68335Q12.3088 -7.77859 14.0177 -7.77859Q15.5504 -7.77859 16.4422 -6.79186Q17.334 -5.80512 17.334 -4.1097ZM16.0862 -4.47591Q16.0726 -5.49995 15.5131 -6.1103Q14.9536 -6.72065 14.0313 -6.72065Q12.9869 -6.72065 12.3596 -6.13064Q11.7323 -5.54064 11.6374 -4.46913L16.0862 -4.47591ZM23.2273 -10.5523L23.2273 -9.5147L22.0337 -9.5147Q21.3623 -9.5147 21.1012 -9.24344Q20.8401 -8.97217 20.8401 -8.26687L20.8401 -7.59549L22.895 -7.59549L22.895 -6.62571L20.8401 -6.62571L20.8401 0L19.5855 0L19.5855 -6.62571L18.3919 -6.62571L18.3919 -7.59549L19.5855 -7.59549L19.5855 -8.12446Q19.5855 -9.39263 20.1755 -9.97247Q20.7655 -10.5523 22.0473 -10.5523L23.2273 -10.5523ZM27.2149 -6.72065Q26.2112 -6.72065 25.628 -5.93736Q25.0448 -5.15408 25.0448 -3.79096Q25.0448 -2.42784 25.6246 -1.64456Q26.2044 -0.861274 27.2149 -0.861274Q28.2118 -0.861274 28.795 -1.64795Q29.3783 -2.43462 29.3783 -3.79096Q29.3783 -5.14052 28.795 -5.93058Q28.2118 -6.72065 27.2149 -6.72065ZM27.2149 -7.77859Q28.8425 -7.77859 29.7716 -6.72065Q30.7007 -5.66271 30.7007 -3.79096Q30.7007 -1.926 29.7716 -0.864665Q28.8425 0.196669 27.2149 0.196669Q25.5805 0.196669 24.6548 -0.864665Q23.7291 -1.926 23.7291 -3.79096Q23.7291 -5.66271 24.6548 -6.72065Q25.5805 -7.77859 27.2149 -7.77859ZM37.1704 -6.42904Q36.9602 -6.55111 36.7126 -6.60875Q36.4651 -6.6664 36.1667 -6.6664Q35.1088 -6.6664 34.5425 -5.97805Q33.9762 -5.28971 33.9762 -4.00119L33.9762 0L32.7216 0L32.7216 -7.59549L33.9762 -7.59549L33.9762 -6.41547Q34.3696 -7.1072 35.0003 -7.4429Q35.631 -7.77859 36.5329 -7.77859Q36.6618 -7.77859 36.8178 -7.76164Q36.9737 -7.74468 37.1636 -7.71077L37.1704 -6.42904ZM44.9761 -4.1097L44.9761 -3.49935L39.2388 -3.49935Q39.3202 -2.21083 40.0153 -1.53605Q40.7104 -0.861274 41.9515 -0.861274Q42.6704 -0.861274 43.3451 -1.0376Q44.0199 -1.21392 44.6845 -1.56657L44.6845 -0.386556Q44.0131 -0.101725 43.3078 0.0474718Q42.6025 0.196669 41.8769 0.196669Q40.0594 0.196669 38.9981 -0.861274Q37.9367 -1.91922 37.9367 -3.72314Q37.9367 -5.58811 38.9438 -6.68335Q39.9509 -7.77859 41.6599 -7.77859Q43.1925 -7.77859 44.0843 -6.79186Q44.9761 -5.80512 44.9761 -4.1097ZM43.7283 -4.47591Q43.7147 -5.49995 43.1552 -6.1103Q42.5958 -6.72065 41.6734 -6.72065Q40.6291 -6.72065 40.0018 -6.13064Q39.3745 -5.54064 39.2795 -4.46913L43.7283 -4.47591Z" fill="#262626" transform="translate(656.28466796875,80.72222222222223)" />
<circle cx="622.2568901909722" cy="93.52777777777777" r="4.072153014703657" fill="#2ECC71" />
<path d="M4.74718 -8.7755L2.889 -3.73671L6.61214 -3.73671L4.74718 -8.7755ZM3.97407 -10.1251L5.52707 -10.1251L9.38585 0L7.9617 0L7.03939 -2.59739L2.47531 -2.59739L1.55301 0L0.108507 0L3.97407 -10.1251ZM14.6552 -10.5523L14.6552 -9.5147L13.4616 -9.5147Q12.7903 -9.5147 12.5292 -9.24344Q12.2681 -8.97217 12.2681 -8.26687L12.2681 -7.59549L14.3229 -7.59549L14.3229 -6.62571L12.2681 -6.62571L12.2681 0L11.0135 0L11.0135 -6.62571L9.81988 -6.62571L9.81988 -7.59549L11.0135 -7.59549L11.0135 -8.12446Q11.0135 -9.39263 11.6035 -9.97247Q12.1935 -10.5523 13.4752 -10.5523L14.6552 -10.5523ZM16.9339 -9.75206L16.9339 -7.59549L19.5041 -7.59549L19.5041 -6.62571L16.9339 -6.62571L16.9339 -2.50244Q16.9339 -1.57335 17.1882 -1.30887Q17.4425 -1.04438 18.2224 -1.04438L19.5041 -1.04438L19.5041 0L18.2224 0Q16.7779 0 16.2286 -0.539144Q15.6793 -1.07829 15.6793 -2.50244L15.6793 -6.62571L14.7637 -6.62571L14.7637 -7.59549L15.6793 -7.59549L15.6793 -9.75206L16.9339 -9.75206ZM27.6421 -4.1097L27.6421 -3.49935L21.9048 -3.49935Q21.9862 -2.21083 22.6813 -1.53605Q23.3765 -0.861274 24.6175 -0.861274Q25.3364 -0.861274 26.0112 -1.0376Q26.6859 -1.21392 27.3505 -1.56657L27.3505 -0.386556Q26.6791 -0.101725 25.9739 0.0474718Q25.2686 0.196669 24.5429 0.196669Q22.7254 0.196669 21.6641 -0.861274Q20.6028 -1.91922 20.6028 -3.72314Q20.6028 -5.58811 21.6098 -6.68335Q22.6169 -7.77859 24.3259 -7.77859Q25.8586 -7.77859 26.7504 -6.79186Q27.6421 -5.80512 27.6421 -4.1097ZM26.3943 -4.47591Q26.3808 -5.49995 25.8213 -6.1103Q25.2618 -6.72065 24.3395 -6.72065Q23.2951 -6.72065 22.6678 -6.13064Q22.0405 -5.54064 21.9455 -4.46913L26.3943 -4.47591ZM34.0915 -6.42904Q33.8813 -6.55111 33.6338 -6.60875Q33.3862 -6.6664 33.0878 -6.6664Q32.0299 -6.6664 31.4636 -5.97805Q30.8974 -5.28971 30.8974 -4.00119L30.8974 0L29.6427 0L29.6427 -7.59549L30.8974 -7.59549L30.8974 -6.41547Q31.2907 -7.1072 31.9214 -7.4429Q32.5521 -7.77859 33.454 -7.77859Q33.5829 -7.77859 33.7389 -7.76164Q33.8949 -7.74468 34.0847 -7.71077L34.0915 -6.42904Z" fill="#262626" transform="translate(656.28466796875,97.38888888888889)" />
</g>
<path d="M7.43273 -9.79275L7.43273 -8.45676Q6.65283 -8.82975 5.9611 -9.01286Q5.26937 -9.19596 4.62511 -9.19596Q3.50613 -9.19596 2.89917 -8.76194Q2.29221 -8.32791 2.29221 -7.52767Q2.29221 -6.85628 2.69572 -6.51381Q3.09923 -6.17133 4.22499 -5.9611L5.05235 -5.79156Q6.58501 -5.49995 7.31405 -4.76413Q8.04308 -4.02832 8.04308 -2.79405Q8.04308 -1.32243 7.05634 -0.56288Q6.06961 0.196669 4.16395 0.196669Q3.4451 0.196669 2.63468 0.0339084Q1.82427 -0.128852 0.956217 -0.447591L0.956217 -1.85818Q1.79036 -1.39025 2.5906 -1.15289Q3.39084 -0.915527 4.16395 -0.915527Q5.33719 -0.915527 5.97466 -1.37668Q6.61214 -1.83784 6.61214 -2.69233Q6.61214 -3.43831 6.15438 -3.85878Q5.69661 -4.27924 4.65224 -4.48947L3.81809 -4.65224Q2.28543 -4.95741 1.60048 -5.60845Q0.915527 -6.25949 0.915527 -7.41916Q0.915527 -8.76194 1.86157 -9.53505Q2.80762 -10.3082 4.46913 -10.3082Q5.18121 -10.3082 5.92041 -10.1793Q6.65961 -10.0505 7.43273 -9.79275ZM15.5911 -7.30387L15.5911 -6.13742Q15.0621 -6.42904 14.5298 -6.57484Q13.9974 -6.72065 13.4549 -6.72065Q12.2409 -6.72065 11.5696 -5.95093Q10.8982 -5.18121 10.8982 -3.79096Q10.8982 -2.40072 11.5696 -1.631Q12.2409 -0.861274 13.4549 -0.861274Q13.9974 -0.861274 14.5298 -1.00708Q15.0621 -1.15289 15.5911 -1.4445L15.5911 -0.291612Q15.0689 -0.0474718 14.5094 0.0745985Q13.9499 0.196669 13.3192 0.196669Q11.6035 0.196669 10.593 -0.881619Q9.58252 -1.95991 9.58252 -3.79096Q9.58252 -5.64914 10.6032 -6.71387Q11.6238 -7.77859 13.4006 -7.77859Q13.9771 -7.77859 14.5264 -7.65991Q15.0757 -7.54123 15.5911 -7.30387ZM20.7045 -6.72065Q19.7008 -6.72065 19.1176 -5.93736Q18.5343 -5.15408 18.5343 -3.79096Q18.5343 -2.42784 19.1142 -1.64456Q19.694 -0.861274 20.7045 -0.861274Q21.7014 -0.861274 22.2846 -1.64795Q22.8678 -2.43462 22.8678 -3.79096Q22.8678 -5.14052 22.2846 -5.93058Q21.7014 -6.72065 20.7045 -6.72065ZM20.7045 -7.77859Q22.3321 -7.77859 23.2612 -6.72065Q24.1903 -5.66271 24.1903 -3.79096Q24.1903 -1.926 23.2612 -0.864665Q22.3321 0.196669 20.7045 0.196669Q19.0701 0.196669 18.1444 -0.864665Q17.2187 -1.926 17.2187 -3.79096Q17.2187 -5.66271 18.1444 -6.72065Q19.0701 -7.77859 20.7045 -7.77859ZM30.66 -6.42904Q30.4498 -6.55111 30.2022 -6.60875Q29.9547 -6.6664 29.6563 -6.6664Q28.5984 -6.6664 28.0321 -5.97805Q27.4658 -5.28971 27.4658 -4.00119L27.4658 0L26.2112 0L26.2112 -7.59549L27.4658 -7.59549L27.4658 -6.41547Q27.8592 -7.1072 28.4899 -7.4429Q29.1206 -7.77859 30.0225 -7.77859Q30.1514 -7.77859 30.3073 -7.76164Q30.4633 -7.74468 30.6532 -7.71077L30.66 -6.42904ZM38.4657 -4.1097L38.4657 -3.49935L32.7284 -3.49935Q32.8098 -2.21083 33.5049 -1.53605Q34.2 -0.861274 35.4411 -0.861274Q36.1599 -0.861274 36.8347 -1.0376Q37.5095 -1.21392 38.1741 -1.56657L38.1741 -0.386556Q37.5027 -0.101725 36.7974 0.0474718Q36.0921 0.196669 35.3665 0.196669Q33.549 0.196669 32.4877 -0.861274Q31.4263 -1.91922 31.4263 -3.72314Q31.4263 -5.58811 32.4334 -6.68335Q33.4405 -7.77859 35.1495 -7.77859Q36.6821 -7.77859 37.5739 -6.79186Q38.4657 -5.80512 38.4657 -4.1097ZM37.2179 -4.47591Q37.2043 -5.49995 36.6448 -6.1103Q36.0853 -6.72065 35.163 -6.72065Q34.1187 -6.72065 33.4913 -6.13064Q32.864 -5.54064 32.7691 -4.46913L37.2179 -4.47591Z" fill="#262626" transform="translate(51.76817427741157,227) rotate(-90) translate(-19.602458953857422,0)" />
</svg>
