<svg xmlns="http://www.w3.org/2000/svg" viewBox="0 0 800 600" width="800" height="600" role="img" aria-labelledby="chart-title">
<title id="chart-title">Asymmetric Error Bars</title>
<rect x="0" y="0" width="800" height="600" fill="#FFFFFF" />
<path d="M9.55588 -2.37587L4.29753 -2.37587L3.46772 0L0.0873481 0L4.9177 -13.0411L8.92698 -13.0411L13.7573 0L10.377 0L9.55588 -2.37587ZM5.13607 -4.79541L8.7086 -4.79541L6.9267 -9.98389L5.13607 -4.79541ZM22.99 -9.47727L22.99 -7.1014Q21.9855 -7.52067 21.0509 -7.73031Q20.1163 -7.93994 19.2865 -7.93994Q18.3955 -7.93994 17.9631 -7.7172Q17.5308 -7.49447 17.5308 -7.03152Q17.5308 -6.65592 17.8583 -6.45502Q18.1859 -6.25412 19.0331 -6.15804L19.5834 -6.07943Q21.9855 -5.77371 22.8153 -5.07492Q23.6451 -4.37614 23.6451 -2.88249Q23.6451 -1.31896 22.4921 -0.532823Q21.3391 0.253309 19.0506 0.253309Q18.0811 0.253309 17.046 0.10045Q16.0109 -0.0524089 14.9191 -0.358127L14.9191 -2.734Q15.8537 -2.27978 16.8363 -2.05268Q17.819 -1.82557 18.8322 -1.82558Q19.7494 -1.82558 20.2123 -2.07888Q20.6753 -2.33219 20.6753 -2.83008Q20.6753 -3.24935 20.3565 -3.45462Q20.0377 -3.65989 19.0856 -3.77344L18.5353 -3.84332Q16.4476 -4.10536 15.6091 -4.81288Q14.7706 -5.5204 14.7706 -6.96164Q14.7706 -8.51644 15.8362 -9.26763Q16.9019 -10.0188 19.103 -10.0188Q19.9678 -10.0188 20.9199 -9.8878Q21.872 -9.75678 22.99 -9.47727ZM24.7108 -9.78299L27.8378 -9.78299L30.467 -3.14453L32.7031 -9.78299L35.8302 -9.78299L31.7161 0.92589Q31.0959 2.5593 30.2705 3.21004Q29.445 3.86079 28.0911 3.86079L26.283 3.86079L26.283 1.80811L27.2613 1.80811Q28.0562 1.80811 28.4187 1.5548Q28.7812 1.30149 28.9821 0.646376L29.0694 0.375597L24.7108 -9.78299ZM46.7225 -8.15831Q47.3165 -9.06673 48.1332 -9.54278Q48.9499 -10.0188 49.9282 -10.0188Q51.614 -10.0188 52.4962 -8.97938Q53.3784 -7.93994 53.3784 -5.95714L53.3784 0L50.2339 0L50.2339 -5.10113Q50.2426 -5.21468 50.247 -5.33697Q50.2514 -5.45926 50.2514 -5.68636Q50.2514 -6.7258 49.9456 -7.19312Q49.6399 -7.66043 48.9586 -7.66043Q48.0677 -7.66043 47.5829 -6.9267Q47.0981 -6.19298 47.0806 -4.80414L47.0806 0L43.9361 0L43.9361 -5.10113Q43.9361 -6.7258 43.6566 -7.19312Q43.3771 -7.66043 42.6608 -7.66043Q41.7611 -7.66043 41.272 -6.92234Q40.7828 -6.18424 40.7828 -4.81288L40.7828 0L37.6383 0L37.6383 -9.78299L40.7828 -9.78299L40.7828 -8.35048Q41.3593 -9.18028 42.1061 -9.59956Q42.853 -10.0188 43.7527 -10.0188Q44.7659 -10.0188 45.5433 -9.52968Q46.3207 -9.04053 46.7225 -8.15831ZM65.3626 -8.15831Q65.9565 -9.06673 66.7732 -9.54278Q67.59 -10.0188 68.5683 -10.0188Q70.2541 -10.0188 71.1363 -8.97938Q72.0185 -7.93994 72.0185 -5.95714L72.0185 0L68.874 0L68.874 -5.10113Q68.8827 -5.21468 68.8871 -5.33697Q68.8914 -5.45926 68.8914 -5.68636Q68.8914 -6.7258 68.5857 -7.19312Q68.28 -7.66043 67.5987 -7.66043Q66.7077 -7.66043 66.223 -6.9267Q65.7382 -6.19298 65.7207 -4.80414L65.7207 0L62.5762 0L62.5762 -5.10113Q62.5762 -6.7258 62.2967 -7.19312Q62.0171 -7.66043 61.3009 -7.66043Q60.4012 -7.66043 59.9121 -6.92234Q59.4229 -6.18424 59.4229 -4.81288L59.4229 0L56.2784 0L56.2784 -9.78299L59.4229 -9.78299L59.4229 -8.35048Q59.9994 -9.18028 60.7462 -9.59956Q61.4931 -10.0188 62.3927 -10.0188Q63.406 -10.0188 64.1834 -9.52968Q64.9608 -9.04053 65.3626 -8.15831ZM84.7014 -4.9177L84.7014 -4.02675L77.3904 -4.02675Q77.504 -2.92616 78.1853 -2.37587Q78.8666 -1.82558 80.0895 -1.82558Q81.0765 -1.82558 82.1116 -2.11819Q83.1467 -2.41081 84.2385 -3.00477L84.2385 -0.593967Q83.1292 -0.174696 82.0199 0.0393066Q80.9105 0.253309 79.8012 0.253309Q77.1458 0.253309 75.674 -1.09622Q74.2022 -2.44575 74.2022 -4.88276Q74.2022 -7.2761 75.6478 -8.64746Q77.0934 -10.0188 79.6265 -10.0188Q81.9325 -10.0188 83.317 -8.62999Q84.7014 -7.24116 84.7014 -4.9177ZM81.487 -5.95714Q81.487 -6.84809 80.9673 -7.39402Q80.4476 -7.93994 79.609 -7.93994Q78.7006 -7.93994 78.1329 -7.42896Q77.5651 -6.91797 77.4253 -5.95714L81.487 -5.95714ZM90.4839 -12.5607L90.4839 -9.78299L93.707 -9.78299L93.707 -7.54688L90.4839 -7.54688L90.4839 -3.39784Q90.4839 -2.71653 90.7547 -2.47632Q91.0255 -2.23611 91.829 -2.23611L93.4363 -2.23611L93.4363 0L90.7547 0Q88.9029 0 88.1299 -0.773031Q87.3568 -1.54606 87.3568 -3.39784L87.3568 -7.54688L85.802 -7.54688L85.802 -9.78299L87.3568 -9.78299L87.3568 -12.5607L90.4839 -12.5607ZM102.887 -7.11887Q102.477 -7.31103 102.071 -7.40275Q101.664 -7.49447 101.254 -7.49447Q100.049 -7.49447 99.3978 -6.72144Q98.747 -5.94841 98.747 -4.50716L98.747 0L95.62 0L95.62 -9.78299L98.747 -9.78299L98.747 -8.17578Q99.3497 -9.13661 100.131 -9.57772Q100.913 -10.0188 102.005 -10.0188Q102.162 -10.0188 102.346 -10.0057Q102.529 -9.99262 102.879 -9.94895L102.887 -7.11887ZM104.442 -9.78299L107.569 -9.78299L107.569 0L104.442 0L104.442 -9.78299ZM104.442 -13.5914L107.569 -13.5914L107.569 -11.0408L104.442 -11.0408L104.442 -13.5914ZM118.479 -9.47727L118.479 -6.9267Q117.841 -7.36344 117.199 -7.57308Q116.557 -7.78271 115.867 -7.78271Q114.557 -7.78271 113.828 -7.01842Q113.098 -6.25412 113.098 -4.88276Q113.098 -3.51139 113.828 -2.7471Q114.557 -1.9828 115.867 -1.9828Q116.601 -1.9828 117.26 -2.20117Q117.92 -2.41954 118.479 -2.84755L118.479 -0.288249C117.99 -0.107729 117.493 0.0276602 116.99 0.11792Q116.234 0.253309 115.474 0.253309Q112.828 0.253309 111.334 -1.10495Q109.84 -2.46322 109.84 -4.88276Q109.84 -7.3023 111.334 -8.66056Q112.828 -10.0188 115.474 -10.0188Q116.243 -10.0188 116.99 -9.88344Q117.736 -9.74805 118.479 -9.47727ZM127.546 -13.0411L136.621 -13.0411L136.621 -10.4992L130.909 -10.4992L130.909 -8.07096L136.28 -8.07096L136.28 -5.52913L130.909 -5.52913L130.909 -2.54183L136.813 -2.54183L136.813 0L127.546 0L127.546 -13.0411ZM146.893 -7.11887Q146.483 -7.31103 146.077 -7.40275Q145.67 -7.49447 145.26 -7.49447Q144.054 -7.49447 143.404 -6.72144Q142.753 -5.94841 142.753 -4.50716L142.753 0L139.626 0L139.626 -9.78299L142.753 -9.78299L142.753 -8.17578Q143.356 -9.13661 144.137 -9.57772Q144.919 -10.0188 146.011 -10.0188Q146.168 -10.0188 146.352 -10.0057Q146.535 -9.99262 146.885 -9.94895L146.893 -7.11887ZM155.715 -7.11887Q155.305 -7.31103 154.899 -7.40275Q154.493 -7.49447 154.082 -7.49447Q152.877 -7.49447 152.226 -6.72144Q151.575 -5.94841 151.575 -4.50716L151.575 0L148.448 0L148.448 -9.78299L151.575 -9.78299L151.575 -8.17578Q152.178 -9.13661 152.96 -9.57772Q153.741 -10.0188 154.833 -10.0188Q154.99 -10.0188 155.174 -10.0057Q155.357 -9.99262 155.707 -9.94895L155.715 -7.11887ZM161.926 -7.78271Q160.886 -7.78271 160.341 -7.03589Q159.795 -6.28906 159.795 -4.88276Q159.795 -3.47645 160.341 -2.72963Q160.886 -1.9828 161.926 -1.9828Q162.948 -1.9828 163.489 -2.72963Q164.031 -3.47645 164.031 -4.88276Q164.031 -6.28906 163.489 -7.03589Q162.948 -7.78271 161.926 -7.78271ZM161.926 -10.0188Q164.45 -10.0188 165.87 -8.6562Q167.289 -7.29357 167.289 -4.88276Q167.289 -2.47195 165.87 -1.10932Q164.45 0.253309 161.926 0.253309Q159.393 0.253309 157.965 -1.10932Q156.537 -2.47195 156.537 -4.88276Q156.537 -7.29357 157.965 -8.6562Q159.393 -10.0188 161.926 -10.0188ZM176.827 -7.11887Q176.417 -7.31103 176.011 -7.40275Q175.605 -7.49447 175.194 -7.49447Q173.989 -7.49447 173.338 -6.72144Q172.687 -5.94841 172.687 -4.50716L172.687 0L169.56 0L169.56 -9.78299L172.687 -9.78299L172.687 -8.17578Q173.29 -9.13661 174.072 -9.57772Q174.853 -10.0188 175.945 -10.0188Q176.102 -10.0188 176.286 -10.0057Q176.469 -9.99262 176.819 -9.94895L176.827 -7.11887ZM189.973 -7.99235Q190.768 -7.99235 191.179 -8.34174Q191.589 -8.69113 191.589 -9.37245Q191.589 -10.045 191.179 -10.3988Q190.768 -10.7526 189.973 -10.7526L188.113 -10.7526L188.113 -7.99235L189.973 -7.99235ZM190.087 -2.28852Q191.1 -2.28852 191.611 -2.71653Q192.122 -3.14453 192.122 -4.00928Q192.122 -4.85655 191.616 -5.28019Q191.109 -5.70383 190.087 -5.70383L188.113 -5.70383L188.113 -2.28852L190.087 -2.28852ZM193.214 -6.97911Q194.297 -6.66466 194.891 -5.81738Q195.485 -4.97011 195.485 -3.7385Q195.485 -1.85178 194.21 -0.92589Q192.934 0 190.331 0L184.75 0L184.75 -13.0411L189.799 -13.0411Q192.515 -13.0411 193.734 -12.22Q194.952 -11.3989 194.952 -9.59082Q194.952 -8.63873 194.507 -7.97051Q194.061 -7.3023 193.214 -6.97911ZM202.63 -4.40234Q201.652 -4.40234 201.158 -4.07042Q200.665 -3.7385 200.665 -3.09212Q200.665 -2.49816 201.062 -2.16187Q201.46 -1.82558 202.167 -1.82558Q203.049 -1.82558 203.652 -2.45885Q204.255 -3.09212 204.255 -4.04422L204.255 -4.40234L202.63 -4.40234ZM207.408 -5.58154L207.408 0L204.255 0L204.255 -1.44998Q203.626 -0.559028 202.84 -0.152859Q202.054 0.253309 200.927 0.253309Q199.407 0.253309 198.459 -0.633274Q197.512 -1.51986 197.512 -2.9349Q197.512 -4.65565 198.695 -5.45926Q199.879 -6.26286 202.412 -6.26286L204.255 -6.26286L204.255 -6.50743Q204.255 -7.24989 203.67 -7.59492Q203.084 -7.93994 201.844 -7.93994Q200.839 -7.93994 199.975 -7.73904Q199.11 -7.53814 198.368 -7.13634L198.368 -9.52094Q199.372 -9.76552 200.385 -9.89217Q201.398 -10.0188 202.412 -10.0188Q205.058 -10.0188 206.233 -8.97502Q207.408 -7.93121 207.408 -5.58154ZM217.584 -7.11887Q217.174 -7.31103 216.767 -7.40275Q216.361 -7.49447 215.951 -7.49447Q214.745 -7.49447 214.095 -6.72144Q213.444 -5.94841 213.444 -4.50716L213.444 0L210.317 0L210.317 -9.78299L213.444 -9.78299L213.444 -8.17578Q214.046 -9.13661 214.828 -9.57772Q215.61 -10.0188 216.702 -10.0188Q216.859 -10.0188 217.043 -10.0057Q217.226 -9.99262 217.575 -9.94895L217.584 -7.11887ZM226.782 -9.47727L226.782 -7.1014Q225.777 -7.52067 224.843 -7.73031Q223.908 -7.93994 223.078 -7.93994Q222.187 -7.93994 221.755 -7.7172Q221.323 -7.49447 221.323 -7.03152Q221.323 -6.65592 221.65 -6.45502Q221.978 -6.25412 222.825 -6.15804L223.375 -6.07943Q225.777 -5.77371 226.607 -5.07492Q227.437 -4.37614 227.437 -2.88249Q227.437 -1.31896 226.284 -0.532823Q225.131 0.253309 222.842 0.253309Q221.873 0.253309 220.838 0.10045Q219.803 -0.0524089 218.711 -0.358127L218.711 -2.734Q219.646 -2.27978 220.628 -2.05268Q221.611 -1.82557 222.624 -1.82558Q223.541 -1.82558 224.004 -2.07888Q224.467 -2.33219 224.467 -2.83008Q224.467 -3.24935 224.148 -3.45462Q223.829 -3.65989 222.877 -3.77344L222.327 -3.84332Q220.239 -4.10536 219.401 -4.81288Q218.562 -5.5204 218.562 -6.96164Q218.562 -8.51644 219.628 -9.26763Q220.694 -10.0188 222.895 -10.0188Q223.76 -10.0188 224.712 -9.8878Q225.664 -9.75678 226.782 -9.47727Z" fill="#262626" transform="translate(400,24.099999999999998) translate(-114.14212036132812,0)" />
<rect x="100" y="72" width="620" height="462" fill="#FFFFFF" />
<line x1="128.1818181818182" y1="533.6" x2="128.1818181818182" y2="538.8611111111111" stroke="#262626" stroke-width="1.1111111111111112" />
<path d="M1.72255 -1.15289L3.9605 -1.15289L3.9605 -8.87722L1.52588 -8.38894L1.52588 -9.63677L3.94694 -10.1251L5.31684 -10.1251L5.31684 -1.15289L7.5548 -1.15289L7.5548 0L1.72255 0L1.72255 -1.15289ZM10.3217 -1.72255L11.7527 -1.72255L11.7527 0L10.3217 0L10.3217 -1.72255ZM17.6663 -9.22309Q16.6083 -9.22309 16.076 -8.1821Q15.5436 -7.14111 15.5436 -5.05235Q15.5436 -2.97038 16.076 -1.92939Q16.6083 -0.888401 17.6663 -0.888401Q18.731 -0.888401 19.2634 -1.92939Q19.7957 -2.97038 19.7957 -5.05235Q19.7957 -7.14111 19.2634 -8.1821Q18.731 -9.22309 17.6663 -9.22309ZM17.6663 -10.3082Q19.3685 -10.3082 20.2671 -8.962Q21.1656 -7.61583 21.1656 -5.05235Q21.1656 -2.49566 20.2671 -1.1495Q19.3685 0.196669 17.6663 0.196669Q15.9641 0.196669 15.0655 -1.1495Q14.1669 -2.49566 14.1669 -5.05235Q14.1669 -7.61583 15.0655 -8.962Q15.9641 -10.3082 17.6663 -10.3082Z" fill="#262626" transform="translate(128.1818181818182,557.6111111111111) translate(-11.043972969055176,0)" />
<line x1="198.63636363636363" y1="533.6" x2="198.63636363636363" y2="538.8611111111111" stroke="#262626" stroke-width="1.1111111111111112" />
<path d="M1.72255 -1.15289L3.9605 -1.15289L3.9605 -8.87722L1.52588 -8.38894L1.52588 -9.63677L3.94694 -10.1251L5.31684 -10.1251L5.31684 -1.15289L7.5548 -1.15289L7.5548 0L1.72255 0L1.72255 -1.15289ZM10.3217 -1.72255L11.7527 -1.72255L11.7527 0L10.3217 0L10.3217 -1.72255ZM14.7502 -10.1251L20.128 -10.1251L20.128 -8.97217L16.0048 -8.97217L16.0048 -6.49007Q16.3032 -6.5918 16.6016 -6.64266Q16.9 -6.69352 17.1984 -6.69352Q18.8938 -6.69352 19.8839 -5.76443Q20.874 -4.83534 20.874 -3.24843Q20.874 -1.61404 19.8568 -0.708686Q18.8395 0.196669 16.9881 0.196669Q16.3506 0.196669 15.6894 0.0881619C15.2486 0.0158239 14.7931 -0.092683 14.3229 -0.237359L14.3229 -1.61404Q14.9333 -1.28174 15.5843 -1.11898Q16.2354 -0.956217 16.961 -0.956217Q18.1342 -0.956217 18.8192 -1.57335Q19.5041 -2.19048 19.5041 -3.24843Q19.5041 -4.30637 18.8192 -4.9235Q18.1342 -5.54064 16.961 -5.54064Q16.4117 -5.54064 15.8658 -5.41857Q15.3198 -5.2965 14.7502 -5.03879L14.7502 -10.1251Z" fill="#262626" transform="translate(198.63636363636363,557.6111111111111) translate(-11.043972969055176,0)" />
<line x1="269.09090909090907" y1="533.6" x2="269.09090909090907" y2="538.8611111111111" stroke="#262626" stroke-width="1.1111111111111112" />
<path d="M2.6652 -1.15289L7.44629 -1.15289L7.44629 0L1.01725 0L1.01725 -1.15289Q1.79715 -1.95991 3.14331 -3.31963Q4.48947 -4.67936 4.83534 -5.0727Q5.49316 -5.8119 5.75426 -6.32392Q6.01535 -6.83594 6.01535 -7.331Q6.01535 -8.13802 5.44908 -8.64665Q4.88281 -9.15527 3.97407 -9.15527Q3.32981 -9.15527 2.61434 -8.93148Q1.89887 -8.70768 1.08507 -8.25331L1.08507 -9.63677Q1.91243 -9.96908 2.63129 -10.1386Q3.35015 -10.3082 3.94694 -10.3082Q5.52029 -10.3082 6.45616 -9.52148Q7.39204 -8.73481 7.39204 -7.41916Q7.39204 -6.79525 7.15807 -6.23576Q6.9241 -5.67627 6.30697 -4.91672Q6.13742 -4.72005 5.22868 -3.78079Q4.31993 -2.84153 2.6652 -1.15289ZM10.3217 -1.72255L11.7527 -1.72255L11.7527 0L10.3217 0L10.3217 -1.72255ZM17.6663 -9.22309Q16.6083 -9.22309 16.076 -8.1821Q15.5436 -7.14111 15.5436 -5.05235Q15.5436 -2.97038 16.076 -1.92939Q16.6083 -0.888401 17.6663 -0.888401Q18.731 -0.888401 19.2634 -1.92939Q19.7957 -2.97038 19.7957 -5.05235Q19.7957 -7.14111 19.2634 -8.1821Q18.731 -9.22309 17.6663 -9.22309ZM17.6663 -10.3082Q19.3685 -10.3082 20.2671 -8.962Q21.1656 -7.61583 21.1656 -5.05235Q21.1656 -2.49566 20.2671 -1.1495Q19.3685 0.196669 17.6663 0.196669Q15.9641 0.196669 15.0655 -1.1495Q14.1669 -2.49566 14.1669 -5.05235Q14.1669 -7.61583 15.0655 -8.962Q15.9641 -10.3082 17.6663 -10.3082Z" fill="#262626" transform="translate(269.09090909090907,557.6111111111111) translate(-11.043972969055176,0)" />
<line x1="339.5454545454545" y1="533.6" x2="339.5454545454545" y2="538.8611111111111" stroke="#262626" stroke-width="1.1111111111111112" />
<path d="M2.6652 -1.15289L7.44629 -1.15289L7.44629 0L1.01725 0L1.01725 -1.15289Q1.79715 -1.95991 3.14331 -3.31963Q4.48947 -4.67936 4.83534 -5.0727Q5.49316 -5.8119 5.75426 -6.32392Q6.01535 -6.83594 6.01535 -7.331Q6.01535 -8.13802 5.44908 -8.64665Q4.88281 -9.15527 3.97407 -9.15527Q3.32981 -9.15527 2.61434 -8.93148Q1.89887 -8.70768 1.08507 -8.25331L1.08507 -9.63677Q1.91243 -9.96908 2.63129 -10.1386Q3.35015 -10.3082 3.94694 -10.3082Q5.52029 -10.3082 6.45616 -9.52148Q7.39204 -8.73481 7.39204 -7.41916Q7.39204 -6.79525 7.15807 -6.23576Q6.9241 -5.67627 6.30697 -4.91672Q6.13742 -4.72005 5.22868 -3.78079Q4.31993 -2.84153 2.6652 -1.15289ZM10.3217 -1.72255L11.7527 -1.72255L11.7527 0L10.3217 0L10.3217 -1.72255ZM14.7502 -10.1251L20.128 -10.1251L20.128 -8.97217L16.0048 -8.97217L16.0048 -6.49007Q16.3032 -6.5918 16.6016 -6.64266Q16.9 -6.69352 17.1984 -6.69352Q18.8938 -6.69352 19.8839 -5.76443Q20.874 -4.83534 20.874 -3.24843Q20.874 -1.61404 19.8568 -0.708686Q18.8395 0.196669 16.9881 0.196669Q16.3506 0.196669 15.6894 0.0881619C15.2486 0.0158239 14.7931 -0.092683 14.3229 -0.237359L14.3229 -1.61404Q14.9333 -1.28174 15.5843 -1.11898Q16.2354 -0.956217 16.961 -0.956217Q18.1342 -0.956217 18.8192 -1.57335Q19.5041 -2.19048 19.5041 -3.24843Q19.5041 -4.30637 18.8192 -4.9235Q18.1342 -5.54064 16.961 -5.54064Q16.4117 -5.54064 15.8658 -5.41857Q15.3198 -5.2965 14.7502 -5.03879L14.7502 -10.1251Z" fill="#262626" transform="translate(339.5454545454545,557.6111111111111) translate(-11.043972969055176,0)" />
<line x1="410" y1="533.6" x2="410" y2="538.8611111111111" stroke="#262626" stroke-width="1.1111111111111112" />
<path d="M5.63558 -5.45926Q6.61892 -5.24902 7.17163 -4.58442Q7.72434 -3.91981 7.72434 -2.94325Q7.72434 -1.4445 6.69352 -0.623915Q5.66271 0.196669 3.76383 0.196669Q3.12636 0.196669 2.45158 0.0712077Q1.7768 -0.0542535 1.05794 -0.305176L1.05794 -1.6276Q1.6276 -1.2953 2.30577 -1.12576Q2.98394 -0.956217 3.72314 -0.956217Q5.01166 -0.956217 5.68644 -1.46484Q6.36122 -1.97347 6.36122 -2.94325Q6.36122 -3.83843 5.73391 -4.34367Q5.10661 -4.8489 3.98763 -4.8489L2.80762 -4.8489L2.80762 -5.97466L4.04188 -5.97466Q5.05235 -5.97466 5.58811 -6.37817Q6.12386 -6.78168 6.12386 -7.54123Q6.12386 -8.32113 5.57115 -8.7382Q5.01845 -9.15527 3.98763 -9.15527Q3.42475 -9.15527 2.78049 -9.0332Q2.13623 -8.91113 1.36312 -8.65343L1.36312 -9.87413Q2.14301 -10.0911 2.82457 -10.1997Q3.50613 -10.3082 4.1097 -10.3082Q5.66949 -10.3082 6.57823 -9.59947Q7.48698 -8.89079 7.48698 -7.68365Q7.48698 -6.84272 7.00548 -6.26289Q6.52398 -5.68305 5.63558 -5.45926ZM10.3217 -1.72255L11.7527 -1.72255L11.7527 0L10.3217 0L10.3217 -1.72255ZM17.6663 -9.22309Q16.6083 -9.22309 16.076 -8.1821Q15.5436 -7.14111 15.5436 -5.05235Q15.5436 -2.97038 16.076 -1.92939Q16.6083 -0.888401 17.6663 -0.888401Q18.731 -0.888401 19.2634 -1.92939Q19.7957 -2.97038 19.7957 -5.05235Q19.7957 -7.14111 19.2634 -8.1821Q18.731 -9.22309 17.6663 -9.22309ZM17.6663 -10.3082Q19.3685 -10.3082 20.2671 -8.962Q21.1656 -7.61583 21.1656 -5.05235Q21.1656 -2.49566 20.2671 -1.1495Q19.3685 0.196669 17.6663 0.196669Q15.9641 0.196669 15.0655 -1.1495Q14.1669 -2.49566 14.1669 -5.05235Q14.1669 -7.61583 15.0655 -8.962Q15.9641 -10.3082 17.6663 -10.3082Z" fill="#262626" transform="translate(410,557.6111111111111) translate(-11.043972969055176,0)" />
<line x1="480.45454545454544" y1="533.6" x2="480.45454545454544" y2="538.8611111111111" stroke="#262626" stroke-width="1.1111111111111112" />
<path d="M5.63558 -5.45926Q6.61892 -5.24902 7.17163 -4.58442Q7.72434 -3.91981 7.72434 -2.94325Q7.72434 -1.4445 6.69352 -0.623915Q5.66271 0.196669 3.76383 0.196669Q3.12636 0.196669 2.45158 0.0712077Q1.7768 -0.0542535 1.05794 -0.305176L1.05794 -1.6276Q1.6276 -1.2953 2.30577 -1.12576Q2.98394 -0.956217 3.72314 -0.956217Q5.01166 -0.956217 5.68644 -1.46484Q6.36122 -1.97347 6.36122 -2.94325Q6.36122 -3.83843 5.73391 -4.34367Q5.10661 -4.8489 3.98763 -4.8489L2.80762 -4.8489L2.80762 -5.97466L4.04188 -5.97466Q5.05235 -5.97466 5.58811 -6.37817Q6.12386 -6.78168 6.12386 -7.54123Q6.12386 -8.32113 5.57115 -8.7382Q5.01845 -9.15527 3.98763 -9.15527Q3.42475 -9.15527 2.78049 -9.0332Q2.13623 -8.91113 1.36312 -8.65343L1.36312 -9.87413Q2.14301 -10.0911 2.82457 -10.1997Q3.50613 -10.3082 4.1097 -10.3082Q5.66949 -10.3082 6.57823 -9.59947Q7.48698 -8.89079 7.48698 -7.68365Q7.48698 -6.84272 7.00548 -6.26289Q6.52398 -5.68305 5.63558 -5.45926ZM10.3217 -1.72255L11.7527 -1.72255L11.7527 0L10.3217 0L10.3217 -1.72255ZM14.7502 -10.1251L20.128 -10.1251L20.128 -8.97217L16.0048 -8.97217L16.0048 -6.49007Q16.3032 -6.5918 16.6016 -6.64266Q16.9 -6.69352 17.1984 -6.69352Q18.8938 -6.69352 19.8839 -5.76443Q20.874 -4.83534 20.874 -3.24843Q20.874 -1.61404 19.8568 -0.708686Q18.8395 0.196669 16.9881 0.196669Q16.3506 0.196669 15.6894 0.0881619C15.2486 0.0158239 14.7931 -0.092683 14.3229 -0.237359L14.3229 -1.61404Q14.9333 -1.28174 15.5843 -1.11898Q16.2354 -0.956217 16.961 -0.956217Q18.1342 -0.956217 18.8192 -1.57335Q19.5041 -2.19048 19.5041 -3.24843Q19.5041 -4.30637 18.8192 -4.9235Q18.1342 -5.54064 16.961 -5.54064Q16.4117 -5.54064 15.8658 -5.41857Q15.3198 -5.2965 14.7502 -5.03879L14.7502 -10.1251Z" fill="#262626" transform="translate(480.45454545454544,557.6111111111111) translate(-11.043972969055176,0)" />
<line x1="550.9090909090909" y1="533.6" x2="550.9090909090909" y2="538.8611111111111" stroke="#262626" stroke-width="1.1111111111111112" />
<path d="M5.24902 -8.93148L1.79036 -3.52648L5.24902 -3.52648L5.24902 -8.93148ZM4.88959 -10.1251L6.61214 -10.1251L6.61214 -3.52648L8.05664 -3.52648L8.05664 -2.38715L6.61214 -2.38715L6.61214 0L5.24902 0L5.24902 -2.38715L0.678168 -2.38715L0.678168 -3.70958L4.88959 -10.1251ZM10.3217 -1.72255L11.7527 -1.72255L11.7527 0L10.3217 0L10.3217 -1.72255ZM17.6663 -9.22309Q16.6083 -9.22309 16.076 -8.1821Q15.5436 -7.14111 15.5436 -5.05235Q15.5436 -2.97038 16.076 -1.92939Q16.6083 -0.888401 17.6663 -0.888401Q18.731 -0.888401 19.2634 -1.92939Q19.7957 -2.97038 19.7957 -5.05235Q19.7957 -7.14111 19.2634 -8.1821Q18.731 -9.22309 17.6663 -9.22309ZM17.6663 -10.3082Q19.3685 -10.3082 20.2671 -8.962Q21.1656 -7.61583 21.1656 -5.05235Q21.1656 -2.49566 20.2671 -1.1495Q19.3685 0.196669 17.6663 0.196669Q15.9641 0.196669 15.0655 -1.1495Q14.1669 -2.49566 14.1669 -5.05235Q14.1669 -7.61583 15.0655 -8.962Q15.9641 -10.3082 17.6663 -10.3082Z" fill="#262626" transform="translate(550.9090909090909,557.6111111111111) translate(-11.043972969055176,0)" />
<line x1="621.3636363636364" y1="533.6" x2="621.3636363636364" y2="538.8611111111111" stroke="#262626" stroke-width="1.1111111111111112" />
<path d="M5.24902 -8.93148L1.79036 -3.52648L5.24902 -3.52648L5.24902 -8.93148ZM4.88959 -10.1251L6.61214 -10.1251L6.61214 -3.52648L8.05664 -3.52648L8.05664 -2.38715L6.61214 -2.38715L6.61214 0L5.24902 0L5.24902 -2.38715L0.678168 -2.38715L0.678168 -3.70958L4.88959 -10.1251ZM10.3217 -1.72255L11.7527 -1.72255L11.7527 0L10.3217 0L10.3217 -1.72255ZM14.7502 -10.1251L20.128 -10.1251L20.128 -8.97217L16.0048 -8.97217L16.0048 -6.49007Q16.3032 -6.5918 16.6016 -6.64266Q16.9 -6.69352 17.1984 -6.69352Q18.8938 -6.69352 19.8839 -5.76443Q20.874 -4.83534 20.874 -3.24843Q20.874 -1.61404 19.8568 -0.708686Q18.8395 0.196669 16.9881 0.196669Q16.3506 0.196669 15.6894 0.0881619C15.2486 0.0158239 14.7931 -0.092683 14.3229 -0.237359L14.3229 -1.61404Q14.9333 -1.28174 15.5843 -1.11898Q16.2354 -0.956217 16.961 -0.956217Q18.1342 -0.956217 18.8192 -1.57335Q19.5041 -2.19048 19.5041 -3.24843Q19.5041 -4.30637 18.8192 -4.9235Q18.1342 -5.54064 16.961 -5.54064Q16.4117 -5.54064 15.8658 -5.41857Q15.3198 -5.2965 14.7502 -5.03879L14.7502 -10.1251Z" fill="#262626" transform="translate(621.3636363636364,557.6111111111111) translate(-11.043972969055176,0)" />
<line x1="691.8181818181818" y1="533.6" x2="691.8181818181818" y2="538.8611111111111" stroke="#262626" stroke-width="1.1111111111111112" />
<path d="M1.49875 -10.1251L6.87663 -10.1251L6.87663 -8.97217L2.75336 -8.97217L2.75336 -6.49007Q3.05176 -6.5918 3.35015 -6.64266Q3.64855 -6.69352 3.94694 -6.69352Q5.64236 -6.69352 6.63249 -5.76443Q7.62261 -4.83534 7.62261 -3.24843Q7.62261 -1.61404 6.60536 -0.708686Q5.58811 0.196669 3.73671 0.196669Q3.09923 0.196669 2.43802 0.0881619C1.99721 0.0158239 1.5417 -0.092683 1.07151 -0.237359L1.07151 -1.61404Q1.68186 -1.28174 2.3329 -1.11898Q2.98394 -0.956217 3.70958 -0.956217Q4.88281 -0.956217 5.56776 -1.57335Q6.25271 -2.19048 6.25271 -3.24843Q6.25271 -4.30637 5.56776 -4.9235Q4.88281 -5.54064 3.70958 -5.54064Q3.16026 -5.54064 2.61434 -5.41857Q2.06841 -5.2965 1.49875 -5.03879L1.49875 -10.1251ZM10.3217 -1.72255L11.7527 -1.72255L11.7527 0L10.3217 0L10.3217 -1.72255ZM17.6663 -9.22309Q16.6083 -9.22309 16.076 -8.1821Q15.5436 -7.14111 15.5436 -5.05235Q15.5436 -2.97038 16.076 -1.92939Q16.6083 -0.888401 17.6663 -0.888401Q18.731 -0.888401 19.2634 -1.92939Q19.7957 -2.97038 19.7957 -5.05235Q19.7957 -7.14111 19.2634 -8.1821Q18.731 -9.22309 17.6663 -9.22309ZM17.6663 -10.3082Q19.3685 -10.3082 20.2671 -8.962Q21.1656 -7.61583 21.1656 -5.05235Q21.1656 -2.49566 20.2671 -1.1495Q19.3685 0.196669 17.6663 0.196669Q15.9641 0.196669 15.0655 -1.1495Q14.1669 -2.49566 14.1669 -5.05235Q14.1669 -7.61583 15.0655 -8.962Q15.9641 -10.3082 17.6663 -10.3082Z" fill="#262626" transform="translate(691.8181818181818,557.6111111111111) translate(-11.043972969055176,0)" />
<line x1="95.13888888888889" y1="534" x2="100.4" y2="534" stroke="#262626" stroke-width="1.1111111111111112" />
<path d="M1.72255 -1.15289L3.9605 -1.15289L3.9605 -8.87722L1.52588 -8.38894L1.52588 -9.63677L3.94694 -10.1251L5.31684 -10.1251L5.31684 -1.15289L7.5548 -1.15289L7.5548 0L1.72255 0L1.72255 -1.15289Z" fill="#262626" transform="translate(90.27777777777777,538) translate(-8.83653450012207,0)" />
<line x1="95.13888888888889" y1="468" x2="100.4" y2="468" stroke="#262626" stroke-width="1.1111111111111112" />
<path d="M2.6652 -1.15289L7.44629 -1.15289L7.44629 0L1.01725 0L1.01725 -1.15289Q1.79715 -1.95991 3.14331 -3.31963Q4.48947 -4.67936 4.83534 -5.0727Q5.49316 -5.8119 5.75426 -6.32392Q6.01535 -6.83594 6.01535 -7.331Q6.01535 -8.13802 5.44908 -8.64665Q4.88281 -9.15527 3.97407 -9.15527Q3.32981 -9.15527 2.61434 -8.93148Q1.89887 -8.70768 1.08507 -8.25331L1.08507 -9.63677Q1.91243 -9.96908 2.63129 -10.1386Q3.35015 -10.3082 3.94694 -10.3082Q5.52029 -10.3082 6.45616 -9.52148Q7.39204 -8.73481 7.39204 -7.41916Q7.39204 -6.79525 7.15807 -6.23576Q6.9241 -5.67627 6.30697 -4.91672Q6.13742 -4.72005 5.22868 -3.78079Q4.31993 -2.84153 2.6652 -1.15289Z" fill="#262626" transform="translate(90.27777777777777,472) translate(-8.83653450012207,0)" />
<line x1="95.13888888888889" y1="402" x2="100.4" y2="402" stroke="#262626" stroke-width="1.1111111111111112" />
<path d="M5.63558 -5.45926Q6.61892 -5.24902 7.17163 -4.58442Q7.72434 -3.91981 7.72434 -2.94325Q7.72434 -1.4445 6.69352 -0.623915Q5.66271 0.196669 3.76383 0.196669Q3.12636 0.196669 2.45158 0.0712077Q1.7768 -0.0542535 1.05794 -0.305176L1.05794 -1.6276Q1.6276 -1.2953 2.30577 -1.12576Q2.98394 -0.956217 3.72314 -0.956217Q5.01166 -0.956217 5.68644 -1.46484Q6.36122 -1.97347 6.36122 -2.94325Q6.36122 -3.83843 5.73391 -4.34367Q5.10661 -4.8489 3.98763 -4.8489L2.80762 -4.8489L2.80762 -5.97466L4.04188 -5.97466Q5.05235 -5.97466 5.58811 -6.37817Q6.12386 -6.78168 6.12386 -7.54123Q6.12386 -8.32113 5.57115 -8.7382Q5.01845 -9.15527 3.98763 -9.15527Q3.42475 -9.15527 2.78049 -9.0332Q2.13623 -8.91113 1.36312 -8.65343L1.36312 -9.87413Q2.14301 -10.0911 2.82457 -10.1997Q3.50613 -10.3082 4.1097 -10.3082Q5.66949 -10.3082 6.57823 -9.59947Q7.48698 -8.89079 7.48698 -7.68365Q7.48698 -6.84272 7.00548 -6.26289Q6.52398 -5.68305 5.63558 -5.45926Z" fill="#262626" transform="translate(90.27777777777777,406) translate(-8.83653450012207,0)" />
<line x1="95.13888888888889" y1="336" x2="100.4" y2="336" stroke="#262626" stroke-width="1.1111111111111112" />
<path d="M5.24902 -8.93148L1.79036 -3.52648L5.24902 -3.52648L5.24902 -8.93148ZM4.88959 -10.1251L6.61214 -10.1251L6.61214 -3.52648L8.05664 -3.52648L8.05664 -2.38715L6.61214 -2.38715L6.61214 0L5.24902 0L5.24902 -2.38715L0.678168 -2.38715L0.678168 -3.70958L4.88959 -10.1251Z" fill="#262626" transform="translate(90.27777777777777,340) translate(-8.83653450012207,0)" />
<line x1="95.13888888888889" y1="270" x2="100.4" y2="270" stroke="#262626" stroke-width="1.1111111111111112" />
<path d="M1.49875 -10.1251L6.87663 -10.1251L6.87663 -8.97217L2.75336 -8.97217L2.75336 -6.49007Q3.05176 -6.5918 3.35015 -6.64266Q3.64855 -6.69352 3.94694 -6.69352Q5.64236 -6.69352 6.63249 -5.76443Q7.62261 -4.83534 7.62261 -3.24843Q7.62261 -1.61404 6.60536 -0.708686Q5.58811 0.196669 3.73671 0.196669Q3.09923 0.196669 2.43802 0.0881619C1.99721 0.0158239 1.5417 -0.092683 1.07151 -0.237359L1.07151 -1.61404Q1.68186 -1.28174 2.3329 -1.11898Q2.98394 -0.956217 3.70958 -0.956217Q4.88281 -0.956217 5.56776 -1.57335Q6.25271 -2.19048 6.25271 -3.24843Q6.25271 -4.30637 5.56776 -4.9235Q4.88281 -5.54064 3.70958 -5.54064Q3.16026 -5.54064 2.61434 -5.41857Q2.06841 -5.2965 1.49875 -5.03879L1.49875 -10.1251Z" fill="#262626" transform="translate(90.27777777777777,274) translate(-8.83653450012207,0)" />
<line x1="95.13888888888889" y1="204" x2="100.4" y2="204" stroke="#262626" stroke-width="1.1111111111111112" />
<path d="M4.58442 -5.60845Q3.66211 -5.60845 3.12297 -4.97776Q2.58382 -4.34706 2.58382 -3.24843Q2.58382 -2.15658 3.12297 -1.52249Q3.66211 -0.888401 4.58442 -0.888401Q5.50673 -0.888401 6.04587 -1.52249Q6.58502 -2.15658 6.58502 -3.24843Q6.58502 -4.34706 6.04587 -4.97776Q5.50673 -5.60845 4.58442 -5.60845ZM7.30387 -9.90126L7.30387 -8.65343Q6.78847 -8.89757 6.26289 -9.02642Q5.7373 -9.15527 5.2219 -9.15527Q3.86556 -9.15527 3.15009 -8.23975Q2.43462 -7.32422 2.3329 -5.47282Q2.73302 -6.06282 3.33659 -6.37817Q3.94016 -6.69352 4.6658 -6.69352Q6.19168 -6.69352 7.07669 -5.76782Q7.9617 -4.84212 7.9617 -3.24843Q7.9617 -1.68864 7.03939 -0.745985Q6.11708 0.196669 4.58442 0.196669Q2.82796 0.196669 1.89887 -1.1495Q0.969781 -2.49566 0.969781 -5.05235Q0.969781 -7.45307 2.1091 -8.88062Q3.24843 -10.3082 5.16764 -10.3082Q5.68305 -10.3082 6.20863 -10.2064Q6.73421 -10.1047 7.30387 -9.90126Z" fill="#262626" transform="translate(90.27777777777777,208) translate(-8.83653450012207,0)" />
<line x1="95.13888888888889" y1="138" x2="100.4" y2="138" stroke="#262626" stroke-width="1.1111111111111112" />
<path d="M1.13932 -10.1251L7.64974 -10.1251L7.64974 -9.54183L3.97407 0L2.54313 0L6.00179 -8.97217L1.13932 -8.97217L1.13932 -10.1251Z" fill="#262626" transform="translate(90.27777777777777,142) translate(-8.83653450012207,0)" />
<line x1="95.13888888888889" y1="72" x2="100.4" y2="72" stroke="#262626" stroke-width="1.1111111111111112" />
<path d="M4.41488 -4.80821Q3.43831 -4.80821 2.87882 -4.28602Q2.31934 -3.76383 2.31934 -2.84831Q2.31934 -1.93278 2.87882 -1.41059Q3.43831 -0.888401 4.41488 -0.888401Q5.39144 -0.888401 5.95432 -1.41398Q6.5172 -1.93956 6.5172 -2.84831Q6.5172 -3.76383 5.95771 -4.28602Q5.39822 -4.80821 4.41488 -4.80821ZM3.04498 -5.39144Q2.16336 -5.60845 1.67169 -6.21202Q1.18001 -6.81559 1.18001 -7.68365Q1.18001 -8.89757 2.04468 -9.60287Q2.90934 -10.3082 4.41488 -10.3082Q5.92719 -10.3082 6.78847 -9.60287Q7.64974 -8.89757 7.64974 -7.68365Q7.64974 -6.81559 7.15807 -6.21202Q6.6664 -5.60845 5.79156 -5.39144Q6.78168 -5.16086 7.33439 -4.48947Q7.8871 -3.81809 7.8871 -2.84831Q7.8871 -1.37668 6.98853 -0.590007Q6.08995 0.196669 4.41488 0.196669Q2.7398 0.196669 1.84123 -0.590007Q0.942654 -1.37668 0.942654 -2.84831Q0.942654 -3.81809 1.49875 -4.48947Q2.05485 -5.16086 3.04498 -5.39144ZM2.54313 -7.5548Q2.54313 -6.76812 3.0348 -6.32731Q3.52648 -5.8865 4.41488 -5.8865Q5.29649 -5.8865 5.79495 -6.32731Q6.2934 -6.76812 6.2934 -7.5548Q6.2934 -8.34147 5.79495 -8.78228Q5.2965 -9.22309 4.41488 -9.22309Q3.52648 -9.22309 3.0348 -8.78228Q2.54313 -8.34147 2.54313 -7.5548Z" fill="#262626" transform="translate(90.27777777777777,76) translate(-8.83653450012207,0)" />
<g class="series" aria-label="Data">
<circle cx="128.1818181818182" cy="461.4" r="2.4779501613232933" fill="#FF0000" />
<circle cx="269.09090909090907" cy="303" r="2.4779501613232933" fill="#FF0000" />
<circle cx="410" cy="388.8" r="2.4779501613232933" fill="#FF0000" />
<circle cx="550.9090909090909" cy="151.20000000000002" r="2.4779501613232933" fill="#FF0000" />
<circle cx="691.8181818181818" cy="263.40000000000003" r="2.4779501613232933" fill="#FF0000" />
</g>
<circle cx="128.1818181818182" cy="461.4" r="3" fill="#808080" />
<line x1="128.1818181818182" y1="481.2" x2="128.1818181818182" y2="408.59999999999997" stroke="#808080" stroke-width="1.5" />
<line x1="123.18181818181819" y1="408.59999999999997" x2="133.1818181818182" y2="408.59999999999997" stroke="#808080" stroke-width="1.5" />
<line x1="123.18181818181819" y1="481.2" x2="133.1818181818182" y2="481.2" stroke="#808080" stroke-width="1.5" />
<circle cx="269.09090909090907" cy="303" r="3" fill="#808080" />
<line x1="269.09090909090907" y1="316.2" x2="269.09090909090907" y2="270" stroke="#808080" stroke-width="1.5" />
<line x1="264.09090909090907" y1="270" x2="274.09090909090907" y2="270" stroke="#808080" stroke-width="1.5" />
<line x1="264.09090909090907" y1="316.2" x2="274.09090909090907" y2="316.2" stroke="#808080" stroke-width="1.5" />
<circle cx="410" cy="388.79999999999995" r="3" fill="#808080" />
<line x1="410" y1="421.79999999999995" x2="410" y2="322.8" stroke="#808080" stroke-width="1.5" />
<line x1="405" y1="322.8" x2="415" y2="322.8" stroke="#808080" stroke-width="1.5" />
<line x1="405" y1="421.79999999999995" x2="415" y2="421.79999999999995" stroke="#808080" stroke-width="1.5" />
<circle cx="550.9090909090909" cy="151.2" r="3" fill="#808080" />
<line x1="550.9090909090909" y1="171" x2="550.9090909090909" y2="111.60000000000002" stroke="#808080" stroke-width="1.5" />
<line x1="545.9090909090909" y1="111.60000000000002" x2="555.9090909090909" y2="111.60000000000002" stroke="#808080" stroke-width="1.5" />
<line x1="545.9090909090909" y1="171" x2="555.9090909090909" y2="171" stroke="#808080" stroke-width="1.5" />
<circle cx="691.8181818181818" cy="263.40000000000003" r="3" fill="#808080" />
<line x1="691.8181818181818" y1="289.80000000000007" x2="691.8181818181818" y2="204" stroke="#808080" stroke-width="1.5" />
<line x1="686.8181818181818" y1="204" x2="696.8181818181818" y2="204" stroke="#808080" stroke-width="1.5" />
<line x1="686.8181818181818" y1="289.80000000000007" x2="696.8181818181818" y2="289.80000000000007" stroke="#808080" stroke-width="1.5" />
<g class="spine">
<line x1="100" y1="534" x2="720" y2="534" stroke="#262626" stroke-width="0.8" />
</g>
<g class="spine">
<line x1="100" y1="72" x2="720" y2="72" stroke="#262626" stroke-width="0.8" />
</g>
<g class="spine">
<line x1="100" y1="72" x2="100" y2="534" stroke="#262626" stroke-width="0.8" />
</g>
<g class="spine">
<line x1="720" y1="72" x2="720" y2="534" stroke="#262626" stroke-width="0.8" />
</g>
<rect x="621.9486736721462" y="82" width="88.05132632785373" height="25.72222222222222" fill="#FFFFFF" fill-opacity="0.8" stroke="#CCCCCC" stroke-width="0.5" />
<g class="legend" aria-label="Chart legend">
<circle cx="634.8097847832573" cy="94.86111111111111" r="3.4415974462823518" fill="#FF0000" />
<path d="M2.73302 -8.9993L2.73302 -1.12576L4.38775 -1.12576Q6.48329 -1.12576 7.45646 -2.0752Q8.42963 -3.02463 8.42963 -5.0727Q8.42963 -7.1072 7.45646 -8.05325Q6.48329 -8.9993 4.38775 -8.9993L2.73302 -8.9993ZM1.36312 -10.1251L4.17752 -10.1251Q7.12077 -10.1251 8.49745 -8.90096Q9.87413 -7.67687 9.87413 -5.0727Q9.87413 -2.45497 8.49067 -1.22748Q7.1072 0 4.17752 0L1.36312 0L1.36312 -10.1251ZM15.4555 -3.81809Q13.9431 -3.81809 13.3599 -3.47222Q12.7767 -3.12636 12.7767 -2.29221Q12.7767 -1.6276 13.2141 -1.23766Q13.6515 -0.84771 14.4043 -0.847711Q15.4419 -0.847711 16.0692 -1.58352Q16.6965 -2.31934 16.6965 -3.54004L16.6965 -3.81809L15.4555 -3.81809ZM17.9443 -4.3335L17.9443 0L16.6965 0L16.6965 -1.15289Q16.2693 -0.461155 15.6318 -0.132243Q14.9943 0.196669 14.072 0.196669Q12.9055 0.196669 12.2172 -0.457764Q11.5289 -1.1122 11.5289 -2.21083Q11.5289 -3.49257 12.3867 -4.14361Q13.2446 -4.79465 14.9468 -4.79465L16.6965 -4.79465L16.6965 -4.91672Q16.6965 -5.77799 16.1302 -6.24932Q15.564 -6.72065 14.5399 -6.72065Q13.8889 -6.72065 13.2718 -6.56467Q12.6546 -6.40869 12.085 -6.09673L12.085 -7.24962Q12.7699 -7.51411 13.4142 -7.64635Q14.0584 -7.77859 14.6688 -7.77859Q16.3167 -7.77859 17.1305 -6.9241Q17.9443 -6.06961 17.9443 -4.3335ZM21.7489 -9.75206L21.7489 -7.59549L24.3191 -7.59549L24.3191 -6.62571L21.7489 -6.62571L21.7489 -2.50244Q21.7489 -1.57335 22.0032 -1.30887Q22.2575 -1.04438 23.0374 -1.04438L24.3191 -1.04438L24.3191 0L23.0374 0Q21.5929 0 21.0436 -0.539144Q20.4943 -1.07829 20.4943 -2.50244L20.4943 -6.62571L19.5787 -6.62571L19.5787 -7.59549L20.4943 -7.59549L20.4943 -9.75206L21.7489 -9.75206ZM29.4122 -3.81809Q27.8998 -3.81809 27.3166 -3.47222Q26.7334 -3.12636 26.7334 -2.29221Q26.7334 -1.6276 27.1708 -1.23766Q27.6082 -0.84771 28.361 -0.847711Q29.3986 -0.847711 30.0259 -1.58352Q30.6532 -2.31934 30.6532 -3.54004L30.6532 -3.81809L29.4122 -3.81809ZM31.901 -4.3335L31.901 0L30.6532 0L30.6532 -1.15289Q30.226 -0.461155 29.5885 -0.132243Q28.951 0.196669 28.0287 0.196669Q26.8623 0.196669 26.1739 -0.457764Q25.4856 -1.1122 25.4856 -2.21083Q25.4856 -3.49257 26.3435 -4.14361Q27.2013 -4.79465 28.9035 -4.79465L30.6532 -4.79465L30.6532 -4.91672Q30.6532 -5.77799 30.0869 -6.24932Q29.5207 -6.72065 28.4966 -6.72065Q27.8456 -6.72065 27.2285 -6.56467Q26.6113 -6.40869 26.0417 -6.09673L26.0417 -7.24962Q26.7266 -7.51411 27.3709 -7.64635Q28.0151 -7.77859 28.6255 -7.77859Q30.2734 -7.77859 31.0872 -6.9241Q31.901 -6.06961 31.901 -4.3335Z" fill="#262626" transform="translate(668.8375625610352,98.72222222222223)" />
</g>
</svg>
