<svg xmlns="http://www.w3.org/2000/svg" viewBox="0 0 1200 900" width="1200" height="900" role="img" aria-labelledby="chart-title">
<title id="chart-title">ACME Corp — 50 Day</title>
<rect x="0" y="0" width="1200" height="900" fill="#FFFFFF" />
<text x="600" y="24.099999999999998" font-family="DejaVu Sans, sans-serif" font-size="17.88888888888889" text-anchor="middle" font-weight="bold" fill="#262626">ACME Corp — 50 Day</text>
<rect x="150" y="108" width="930" height="367.8" fill="#FFFFFF" />
<line x1="159.3" y1="475.40000000000003" x2="159.3" y2="480.6611111111111" stroke="#262626" stroke-width="1.1111111111111112" />
<text x="159.3" y="499.4111111111111" font-family="DejaVu Sans, sans-serif" font-size="13.88888888888889" text-anchor="middle" fill="#262626">0</text>
<line x1="252.3" y1="475.40000000000003" x2="252.3" y2="480.6611111111111" stroke="#262626" stroke-width="1.1111111111111112" />
<text x="252.3" y="499.4111111111111" font-family="DejaVu Sans, sans-serif" font-size="13.88888888888889" text-anchor="middle" fill="#262626">5</text>
<line x1="345.3" y1="475.40000000000003" x2="345.3" y2="480.6611111111111" stroke="#262626" stroke-width="1.1111111111111112" />
<text x="345.3" y="499.4111111111111" font-family="DejaVu Sans, sans-serif" font-size="13.88888888888889" text-anchor="middle" fill="#262626">10</text>
<line x1="438.3" y1="475.40000000000003" x2="438.3" y2="480.6611111111111" stroke="#262626" stroke-width="1.1111111111111112" />
<text x="438.3" y="499.4111111111111" font-family="DejaVu Sans, sans-serif" font-size="13.88888888888889" text-anchor="middle" fill="#262626">15</text>
<line x1="531.3" y1="475.40000000000003" x2="531.3" y2="480.6611111111111" stroke="#262626" stroke-width="1.1111111111111112" />
<text x="531.3" y="499.4111111111111" font-family="DejaVu Sans, sans-serif" font-size="13.88888888888889" text-anchor="middle" fill="#262626">20</text>
<line x1="624.3" y1="475.40000000000003" x2="624.3" y2="480.6611111111111" stroke="#262626" stroke-width="1.1111111111111112" />
<text x="624.3" y="499.4111111111111" font-family="DejaVu Sans, sans-serif" font-size="13.88888888888889" text-anchor="middle" fill="#262626">25</text>
<line x1="717.3000000000001" y1="475.40000000000003" x2="717.3000000000001" y2="480.6611111111111" stroke="#262626" stroke-width="1.1111111111111112" />
<text x="717.3000000000001" y="499.4111111111111" font-family="DejaVu Sans, sans-serif" font-size="13.88888888888889" text-anchor="middle" fill="#262626">30</text>
<line x1="810.3000000000001" y1="475.40000000000003" x2="810.3000000000001" y2="480.6611111111111" stroke="#262626" stroke-width="1.1111111111111112" />
<text x="810.3000000000001" y="499.4111111111111" font-family="DejaVu Sans, sans-serif" font-size="13.88888888888889" text-anchor="middle" fill="#262626">35</text>
<line x1="903.3000000000001" y1="475.40000000000003" x2="903.3000000000001" y2="480.6611111111111" stroke="#262626" stroke-width="1.1111111111111112" />
<text x="903.3000000000001" y="499.4111111111111" font-family="DejaVu Sans, sans-serif" font-size="13.88888888888889" text-anchor="middle" fill="#262626">40</text>
<line x1="996.3000000000001" y1="475.40000000000003" x2="996.3000000000001" y2="480.6611111111111" stroke="#262626" stroke-width="1.1111111111111112" />
<text x="996.3000000000001" y="499.4111111111111" font-family="DejaVu Sans, sans-serif" font-size="13.88888888888889" text-anchor="middle" fill="#262626">45</text>
<line x1="177.9" y1="475.40000000000003" x2="177.9" y2="480.6611111111111" stroke="#262626" stroke-width="1.1111111111111112" />
<line x1="196.5" y1="475.40000000000003" x2="196.5" y2="480.6611111111111" stroke="#262626" stroke-width="1.1111111111111112" />
<line x1="215.10000000000002" y1="475.40000000000003" x2="215.10000000000002" y2="480.6611111111111" stroke="#262626" stroke-width="1.1111111111111112" />
<line x1="233.7" y1="475.40000000000003" x2="233.7" y2="480.6611111111111" stroke="#262626" stroke-width="1.1111111111111112" />
<line x1="270.9" y1="475.40000000000003" x2="270.9" y2="480.6611111111111" stroke="#262626" stroke-width="1.1111111111111112" />
<line x1="289.5" y1="475.40000000000003" x2="289.5" y2="480.6611111111111" stroke="#262626" stroke-width="1.1111111111111112" />
<line x1="308.1" y1="475.40000000000003" x2="308.1" y2="480.6611111111111" stroke="#262626" stroke-width="1.1111111111111112" />
<line x1="326.70000000000005" y1="475.40000000000003" x2="326.70000000000005" y2="480.6611111111111" stroke="#262626" stroke-width="1.1111111111111112" />
<line x1="363.9" y1="475.40000000000003" x2="363.9" y2="480.6611111111111" stroke="#262626" stroke-width="1.1111111111111112" />
<line x1="382.5" y1="475.40000000000003" x2="382.5" y2="480.6611111111111" stroke="#262626" stroke-width="1.1111111111111112" />
<line x1="401.1" y1="475.40000000000003" x2="401.1" y2="480.6611111111111" stroke="#262626" stroke-width="1.1111111111111112" />
<line x1="419.70000000000005" y1="475.40000000000003" x2="419.70000000000005" y2="480.6611111111111" stroke="#262626" stroke-width="1.1111111111111112" />
<line x1="456.90000000000003" y1="475.40000000000003" x2="456.90000000000003" y2="480.6611111111111" stroke="#262626" stroke-width="1.1111111111111112" />
<line x1="475.5" y1="475.40000000000003" x2="475.5" y2="480.6611111111111" stroke="#262626" stroke-width="1.1111111111111112" />
<line x1="494.1" y1="475.40000000000003" x2="494.1" y2="480.6611111111111" stroke="#262626" stroke-width="1.1111111111111112" />
<line x1="512.7" y1="475.40000000000003" x2="512.7" y2="480.6611111111111" stroke="#262626" stroke-width="1.1111111111111112" />
<line x1="549.9000000000001" y1="475.40000000000003" x2="549.9000000000001" y2="480.6611111111111" stroke="#262626" stroke-width="1.1111111111111112" />
<line x1="568.5" y1="475.40000000000003" x2="568.5" y2="480.6611111111111" stroke="#262626" stroke-width="1.1111111111111112" />
<line x1="587.1" y1="475.40000000000003" x2="587.1" y2="480.6611111111111" stroke="#262626" stroke-width="1.1111111111111112" />
<line x1="605.7" y1="475.40000000000003" x2="605.7" y2="480.6611111111111" stroke="#262626" stroke-width="1.1111111111111112" />
<line x1="642.9000000000001" y1="475.40000000000003" x2="642.9000000000001" y2="480.6611111111111" stroke="#262626" stroke-width="1.1111111111111112" />
<line x1="661.5" y1="475.40000000000003" x2="661.5" y2="480.6611111111111" stroke="#262626" stroke-width="1.1111111111111112" />
<line x1="680.1" y1="475.40000000000003" x2="680.1" y2="480.6611111111111" stroke="#262626" stroke-width="1.1111111111111112" />
<line x1="698.7" y1="475.40000000000003" x2="698.7" y2="480.6611111111111" stroke="#262626" stroke-width="1.1111111111111112" />
<line x1="735.9000000000001" y1="475.40000000000003" x2="735.9000000000001" y2="480.6611111111111" stroke="#262626" stroke-width="1.1111111111111112" />
<line x1="754.5" y1="475.40000000000003" x2="754.5" y2="480.6611111111111" stroke="#262626" stroke-width="1.1111111111111112" />
<line x1="773.1" y1="475.40000000000003" x2="773.1" y2="480.6611111111111" stroke="#262626" stroke-width="1.1111111111111112" />
<line x1="791.7" y1="475.40000000000003" x2="791.7" y2="480.6611111111111" stroke="#262626" stroke-width="1.1111111111111112" />
<line x1="828.9000000000001" y1="475.40000000000003" x2="828.9000000000001" y2="480.6611111111111" stroke="#262626" stroke-width="1.1111111111111112" />
<line x1="847.5" y1="475.40000000000003" x2="847.5" y2="480.6611111111111" stroke="#262626" stroke-width="1.1111111111111112" />
<line x1="866.1" y1="475.40000000000003" x2="866.1" y2="480.6611111111111" stroke="#262626" stroke-width="1.1111111111111112" />
<line x1="884.7" y1="475.40000000000003" x2="884.7" y2="480.6611111111111" stroke="#262626" stroke-width="1.1111111111111112" />
<line x1="921.9000000000001" y1="475.40000000000003" x2="921.9000000000001" y2="480.6611111111111" stroke="#262626" stroke-width="1.1111111111111112" />
<line x1="940.5000000000001" y1="475.40000000000003" x2="940.5000000000001" y2="480.6611111111111" stroke="#262626" stroke-width="1.1111111111111112" />
<line x1="959.1" y1="475.40000000000003" x2="959.1" y2="480.6611111111111" stroke="#262626" stroke-width="1.1111111111111112" />
<line x1="977.7" y1="475.40000000000003" x2="977.7" y2="480.6611111111111" stroke="#262626" stroke-width="1.1111111111111112" />
<line x1="1014.9000000000001" y1="475.40000000000003" x2="1014.9000000000001" y2="480.6611111111111" stroke="#262626" stroke-width="1.1111111111111112" />
<line x1="1033.5" y1="475.40000000000003" x2="1033.5" y2="480.6611111111111" stroke="#262626" stroke-width="1.1111111111111112" />
<line x1="1052.1" y1="475.40000000000003" x2="1052.1" y2="480.6611111111111" stroke="#262626" stroke-width="1.1111111111111112" />
<line x1="1070.7" y1="475.40000000000003" x2="1070.7" y2="480.6611111111111" stroke="#262626" stroke-width="1.1111111111111112" />
<line x1="145.13888888888889" y1="427.23111053960565" x2="150.4" y2="427.23111053960565" stroke="#262626" stroke-width="1.1111111111111112" />
<text x="140.27777777777777" y="431.23111053960565" font-family="DejaVu Sans, sans-serif" font-size="13.88888888888889" text-anchor="end" fill="#262626">92</text>
<line x1="145.13888888888889" y1="377.32231789724483" x2="150.4" y2="377.32231789724483" stroke="#262626" stroke-width="1.1111111111111112" />
<text x="140.27777777777777" y="381.32231789724483" font-family="DejaVu Sans, sans-serif" font-size="13.88888888888889" text-anchor="end" fill="#262626">94</text>
<line x1="145.13888888888889" y1="327.413525254884" x2="150.4" y2="327.413525254884" stroke="#262626" stroke-width="1.1111111111111112" />
<text x="140.27777777777777" y="331.413525254884" font-family="DejaVu Sans, sans-serif" font-size="13.88888888888889" text-anchor="end" fill="#262626">96</text>
<line x1="145.13888888888889" y1="277.5047326125232" x2="150.4" y2="277.5047326125232" stroke="#262626" stroke-width="1.1111111111111112" />
<text x="140.27777777777777" y="281.5047326125232" font-family="DejaVu Sans, sans-serif" font-size="13.88888888888889" text-anchor="end" fill="#262626">98</text>
<line x1="145.13888888888889" y1="227.5959399701619" x2="150.4" y2="227.5959399701619" stroke="#262626" stroke-width="1.1111111111111112" />
<text x="140.27777777777777" y="231.5959399701619" font-family="DejaVu Sans, sans-serif" font-size="13.88888888888889" text-anchor="end" fill="#262626">100</text>
<line x1="145.13888888888889" y1="177.68714732780109" x2="150.4" y2="177.68714732780109" stroke="#262626" stroke-width="1.1111111111111112" />
<text x="140.27777777777777" y="181.68714732780109" font-family="DejaVu Sans, sans-serif" font-size="13.88888888888889" text-anchor="end" fill="#262626">102</text>
<line x1="145.13888888888889" y1="127.77835468544026" x2="150.4" y2="127.77835468544026" stroke="#262626" stroke-width="1.1111111111111112" />
<text x="140.27777777777777" y="131.77835468544026" font-family="DejaVu Sans, sans-serif" font-size="13.88888888888889" text-anchor="end" fill="#262626">104</text>
<line x1="145.13888888888889" y1="467.1581446534942" x2="150.4" y2="467.1581446534942" stroke="#262626" stroke-width="1.1111111111111112" />
<line x1="145.13888888888889" y1="457.1763861250224" x2="150.4" y2="457.1763861250224" stroke="#262626" stroke-width="1.1111111111111112" />
<line x1="145.13888888888889" y1="447.19462759655016" x2="150.4" y2="447.19462759655016" stroke="#262626" stroke-width="1.1111111111111112" />
<line x1="145.13888888888889" y1="437.2128690680779" x2="150.4" y2="437.2128690680779" stroke="#262626" stroke-width="1.1111111111111112" />
<line x1="145.13888888888889" y1="417.2493520111334" x2="150.4" y2="417.2493520111334" stroke="#262626" stroke-width="1.1111111111111112" />
<line x1="145.13888888888889" y1="407.2675934826616" x2="150.4" y2="407.2675934826616" stroke="#262626" stroke-width="1.1111111111111112" />
<line x1="145.13888888888889" y1="397.2858349541889" x2="150.4" y2="397.2858349541889" stroke="#262626" stroke-width="1.1111111111111112" />
<line x1="145.13888888888889" y1="387.3040764257171" x2="150.4" y2="387.3040764257171" stroke="#262626" stroke-width="1.1111111111111112" />
<line x1="145.13888888888889" y1="367.3405593687726" x2="150.4" y2="367.3405593687726" stroke="#262626" stroke-width="1.1111111111111112" />
<line x1="145.13888888888889" y1="357.3588008403003" x2="150.4" y2="357.3588008403003" stroke="#262626" stroke-width="1.1111111111111112" />
<line x1="145.13888888888889" y1="347.37704231182806" x2="150.4" y2="347.37704231182806" stroke="#262626" stroke-width="1.1111111111111112" />
<line x1="145.13888888888889" y1="337.39528378335626" x2="150.4" y2="337.39528378335626" stroke="#262626" stroke-width="1.1111111111111112" />
<line x1="145.13888888888889" y1="317.43176672641175" x2="150.4" y2="317.43176672641175" stroke="#262626" stroke-width="1.1111111111111112" />
<line x1="145.13888888888889" y1="307.4500081979395" x2="150.4" y2="307.4500081979395" stroke="#262626" stroke-width="1.1111111111111112" />
<line x1="145.13888888888889" y1="297.46824966946724" x2="150.4" y2="297.46824966946724" stroke="#262626" stroke-width="1.1111111111111112" />
<line x1="145.13888888888889" y1="287.48649114099544" x2="150.4" y2="287.48649114099544" stroke="#262626" stroke-width="1.1111111111111112" />
<line x1="145.13888888888889" y1="267.5229740840505" x2="150.4" y2="267.5229740840505" stroke="#262626" stroke-width="1.1111111111111112" />
<line x1="145.13888888888889" y1="257.5412155555787" x2="150.4" y2="257.5412155555787" stroke="#262626" stroke-width="1.1111111111111112" />
<line x1="145.13888888888889" y1="247.55945702710642" x2="150.4" y2="247.55945702710642" stroke="#262626" stroke-width="1.1111111111111112" />
<line x1="145.13888888888889" y1="237.57769849863462" x2="150.4" y2="237.57769849863462" stroke="#262626" stroke-width="1.1111111111111112" />
<line x1="145.13888888888889" y1="217.61418144168965" x2="150.4" y2="217.61418144168965" stroke="#262626" stroke-width="1.1111111111111112" />
<line x1="145.13888888888889" y1="207.63242291321785" x2="150.4" y2="207.63242291321785" stroke="#262626" stroke-width="1.1111111111111112" />
<line x1="145.13888888888889" y1="197.6506643847456" x2="150.4" y2="197.6506643847456" stroke="#262626" stroke-width="1.1111111111111112" />
<line x1="145.13888888888889" y1="187.66890585627334" x2="150.4" y2="187.66890585627334" stroke="#262626" stroke-width="1.1111111111111112" />
<line x1="145.13888888888889" y1="167.70538879932883" x2="150.4" y2="167.70538879932883" stroke="#262626" stroke-width="1.1111111111111112" />
<line x1="145.13888888888889" y1="157.72363027085703" x2="150.4" y2="157.72363027085703" stroke="#262626" stroke-width="1.1111111111111112" />
<line x1="145.13888888888889" y1="147.74187174238477" x2="150.4" y2="147.74187174238477" stroke="#262626" stroke-width="1.1111111111111112" />
<line x1="145.13888888888889" y1="137.76011321391252" x2="150.4" y2="137.76011321391252" stroke="#262626" stroke-width="1.1111111111111112" />
<line x1="145.13888888888889" y1="117.79659615696801" x2="150.4" y2="117.79659615696801" stroke="#262626" stroke-width="1.1111111111111112" />
<polygon points="512.7,211.12229352663618 531.3000000000001,215.58163528551975 549.9,217.8602439546268 568.5,213.1751650718349 587.1,222.4119278144795 605.7,228.37300870223623 624.3000000000001,228.9609094058077 642.9000000000001,228.9247973054982 661.5,229.06712200106753 680.1,228.0028391436799 698.7,219.3258320595664 717.3000000000001,209.95801247494862 735.9000000000001,197.886833964203 754.5,195.5104611020877 773.1,192.2087074465655 791.7,195.4143820534382 810.3000000000001,197.7919900523249 828.9000000000001,197.6578659880448 847.5,197.79540115570188 866.1,195.18241129256626 884.7,185.76590824952825 903.3000000000001,179.84412654525534 921.9000000000001,180.69527166156806 940.5000000000001,183.08277907439566 959.1,172.78202229117244 977.7,173.74074909590502 996.3000000000001,169.2227889945966 1014.9000000000001,171.47843275953997 1033.5,177.55043126381588 1052.1,175.66031836104048 1070.7,176.33109640881503 1070.7,310.52291802483205 1052.1,308.5207264549799 1033.5,313.6253830076316 1014.9000000000001,327.79831423992846 996.3000000000001,339.1391027326931 977.7,343.80610225569444 959.1,355.9730965849044 940.5000000000001,359.96313781458775 921.9000000000001,376.2199107070451 903.3000000000001,383.77179149198946 884.7,385.63325500687824 866.1,388.0695296346562 847.5,388.83691503354794 828.9000000000001,388.41156639781275 810.3000000000001,388.6048090741888 791.7,387.99722183446966 773.1,388.45834243779245 754.5,388.07363199903693 735.9000000000001,386.9277088078161 717.3000000000001,380.32823424426806 698.7,376.8242610913194 680.1,376.0695277795976 661.5,380.7510872726343 642.9000000000001,378.334711835917 624.3,377.4550329966928 605.7,377.1118904769032 587.1,373.51984632709855 568.5,372.70230750786004 549.9000000000001,358.4080064071509 531.3,350.69869308591115 512.7,348.43616101863563" fill="#1F77B4" fill-opacity="0.14901960784313725" />
<polyline points="512.7,211.12229352663618 531.3000000000001,215.58163528551975 549.9,217.8602439546268 568.5,213.1751650718349 587.1,222.4119278144795 605.7,228.37300870223623 624.3000000000001,228.9609094058077 642.9000000000001,228.9247973054982 661.5,229.06712200106753 680.1,228.0028391436799 698.7,219.3258320595664 717.3000000000001,209.95801247494862 735.9000000000001,197.886833964203 754.5,195.5104611020877 773.1,192.2087074465655 791.7,195.4143820534382 810.3000000000001,197.7919900523249 828.9000000000001,197.6578659880448 847.5,197.79540115570188 866.1,195.18241129256626 884.7,185.76590824952825 903.3000000000001,179.84412654525534 921.9000000000001,180.69527166156806 940.5000000000001,183.08277907439566 959.1,172.78202229117244 977.7,173.74074909590502 996.3000000000001,169.2227889945966 1014.9000000000001,171.47843275953997 1033.5,177.55043126381588 1052.1,175.66031836104048 1070.7,176.33109640881503" fill="none" stroke="#1F77B4" stroke-width="0" />
<line x1="159.3" y1="250.38899990899972" x2="159.3" y2="177.43603397652214" stroke="#FF0000" stroke-width="1" />
<rect x="153.72" y="227.5959399701619" width="11.159999999999997" height="14.689728315914635" fill="#FF0000" stroke="#FF0000" stroke-width="1" />
<line x1="177.9" y1="283.8001731941722" x2="177.9" y2="222.8738510746125" stroke="#FF0000" stroke-width="1" />
<rect x="172.32" y="242.28566828607654" width="11.160000000000025" height="2.779769894421861" fill="#FF0000" stroke="#FF0000" stroke-width="1" />
<line x1="196.5" y1="309.0622507596263" x2="196.5" y2="199.8344330272821" stroke="#FF0000" stroke-width="1" />
<rect x="190.92000000000002" y="245.0654381804984" width="11.159999999999968" height="34.46765346490838" fill="#FF0000" stroke="#FF0000" stroke-width="1" />
<line x1="215.10000000000002" y1="363.6836320052885" x2="215.10000000000002" y2="190.68215390415435" stroke="#008000" stroke-width="1" />
<rect x="209.52" y="228.9234206473502" width="11.159999999999997" height="50.60967099805657" fill="#008000" stroke="#008000" stroke-width="1" />
<line x1="233.7" y1="297.34233850181454" x2="233.7" y2="182.35300357265123" stroke="#FF0000" stroke-width="1" />
<rect x="228.12" y="228.9234206473502" width="11.159999999999997" height="19.01776833836402" fill="#FF0000" stroke="#FF0000" stroke-width="1" />
<line x1="252.3" y1="339.804750187639" x2="252.3" y2="185.2071604918401" stroke="#FF0000" stroke-width="1" />
<rect x="246.72000000000003" y="247.94118898571423" width="11.159999999999968" height="45.495156450936975" fill="#FF0000" stroke="#FF0000" stroke-width="1" />
<line x1="270.9" y1="321.33466159653653" x2="270.9" y2="254.21056809573247" stroke="#FF0000" stroke-width="1" />
<rect x="265.32" y="293.4363454366512" width="11.160000000000025" height="25.977801340540736" fill="#FF0000" stroke="#FF0000" stroke-width="1" />
<line x1="289.5" y1="335.30558600956283" x2="289.5" y2="287.12860719952414" stroke="#008000" stroke-width="1" />
<rect x="283.92" y="308.2007971644589" width="11.160000000000025" height="11.213349612733055" fill="#008000" stroke="#008000" stroke-width="1" />
<line x1="308.1" y1="360.0321843366264" x2="308.1" y2="267.11050277059167" stroke="#FF0000" stroke-width="1" />
<rect x="302.52" y="308.2007971644589" width="11.160000000000082" height="35.79525010149882" fill="#FF0000" stroke="#FF0000" stroke-width="1" />
<line x1="326.70000000000005" y1="371.5130127189318" x2="326.70000000000005" y2="275.7142956969642" stroke="#008000" stroke-width="1" />
<rect x="321.12" y="316.93037010438275" width="11.160000000000025" height="27.065677161574968" fill="#008000" stroke="#008000" stroke-width="1" />
<line x1="345.3" y1="364.79614308878763" x2="345.3" y2="236.2335426822824" stroke="#008000" stroke-width="1" />
<rect x="339.72" y="280.94656573372276" width="11.159999999999968" height="35.98380437065998" fill="#008000" stroke="#008000" stroke-width="1" />
<line x1="363.9" y1="344.6262147994089" x2="363.9" y2="230.5375202207033" stroke="#008000" stroke-width="1" />
<rect x="358.32" y="244.48437760840352" width="11.160000000000025" height="36.462188125319244" fill="#008000" stroke="#008000" stroke-width="1" />
<line x1="382.5" y1="273.8268868257378" x2="382.5" y2="220.3800569208429" stroke="#008000" stroke-width="1" />
<rect x="376.92" y="229.9779636558269" width="11.160000000000025" height="14.506413952576622" fill="#008000" stroke="#008000" stroke-width="1" />
<line x1="401.1" y1="321.5253870966835" x2="401.1" y2="173.4971230856122" stroke="#FF0000" stroke-width="1" />
<rect x="395.52" y="229.9779636558269" width="11.160000000000025" height="44.95947910415725" fill="#FF0000" stroke="#FF0000" stroke-width="1" />
<line x1="419.70000000000005" y1="349.13534076375936" x2="419.70000000000005" y2="238.08009009691523" stroke="#008000" stroke-width="1" />
<rect x="414.12" y="244.82875255845283" width="11.160000000000025" height="30.108690201531317" fill="#008000" stroke="#008000" stroke-width="1" />
<line x1="438.3" y1="291.07793263041185" x2="438.3" y2="198.39111475317713" stroke="#FF0000" stroke-width="1" />
<rect x="432.72" y="244.82875255845283" width="11.160000000000025" height="18.4893759412721" fill="#FF0000" stroke="#FF0000" stroke-width="1" />
<line x1="456.90000000000003" y1="318.59664401524515" x2="456.90000000000003" y2="197.721879626391" stroke="#FF0000" stroke-width="1" />
<rect x="451.32" y="263.31812849972493" width="11.160000000000025" height="35.7419167993271" fill="#FF0000" stroke="#FF0000" stroke-width="1" />
<line x1="475.5" y1="350.6642240477104" x2="475.5" y2="278.1794107567571" stroke="#FF0000" stroke-width="1" />
<rect x="469.92" y="299.06004529905204" width="11.160000000000025" height="3.502181591612043" fill="#FF0000" stroke="#FF0000" stroke-width="1" />
<line x1="494.1" y1="349.29543264445556" x2="494.1" y2="248.9711640755272" stroke="#008000" stroke-width="1" />
<rect x="488.52000000000004" y="296.2719469374583" width="11.160000000000025" height="6.290279953205754" fill="#008000" stroke="#008000" stroke-width="1" />
<line x1="512.7" y1="342.5467282884956" x2="512.7" y2="258.9314135163877" stroke="#FF0000" stroke-width="1" />
<rect x="507.12" y="296.2719469374583" width="11.159999999999968" height="37.1986340782837" fill="#FF0000" stroke="#FF0000" stroke-width="1" />
<line x1="531.3" y1="386.92259383123064" x2="531.3" y2="289.34102791931264" stroke="#008000" stroke-width="1" />
<rect x="525.72" y="309.50440654766226" width="11.160000000000082" height="23.96617446807977" fill="#008000" stroke="#008000" stroke-width="1" />
<line x1="549.9000000000001" y1="393.0517968502918" x2="549.9000000000001" y2="228.6128346204332" stroke="#FF0000" stroke-width="1" />
<rect x="544.3199999999999" y="309.50440654766226" width="11.160000000000082" height="35.440251536310825" fill="#FF0000" stroke="#FF0000" stroke-width="1" />
<line x1="568.5" y1="402.6859573089837" x2="568.5" y2="297.6003495401378" stroke="#FF0000" stroke-width="1" />
<rect x="562.9200000000001" y="344.9446580839731" width="11.159999999999968" height="30.6806557406062" fill="#FF0000" stroke="#FF0000" stroke-width="1" />
<line x1="587.1" y1="459.0818181818181" x2="587.1" y2="288.42471485315764" stroke="#008000" stroke-width="1" />
<rect x="581.52" y="329.4664362661738" width="11.160000000000082" height="46.15887755840549" fill="#008000" stroke="#008000" stroke-width="1" />
<line x1="605.7" y1="383.61368270086314" x2="605.7" y2="289.22866832821364" stroke="#FF0000" stroke-width="1" />
<rect x="600.12" y="329.4664362661738" width="11.159999999999968" height="14.006003095158121" fill="#FF0000" stroke="#FF0000" stroke-width="1" />
<line x1="624.3" y1="393.6589002132296" x2="624.3" y2="269.5865357625289" stroke="#008000" stroke-width="1" />
<rect x="618.72" y="302.7467776702629" width="11.160000000000082" height="40.725661691069035" fill="#008000" stroke="#008000" stroke-width="1" />
<line x1="642.9000000000001" y1="359.79280823483714" x2="642.9000000000001" y2="236.03890780116944" stroke="#FF0000" stroke-width="1" />
<rect x="637.32" y="302.7467776702629" width="11.159999999999968" height="25.103036496068853" fill="#FF0000" stroke="#FF0000" stroke-width="1" />
<line x1="661.5" y1="377.7121719679426" x2="661.5" y2="281.7282973424158" stroke="#FF0000" stroke-width="1" />
<rect x="655.9200000000001" y="327.8498141663317" width="11.159999999999968" height="5.937984321001295" fill="#FF0000" stroke="#FF0000" stroke-width="1" />
<line x1="680.1" y1="404.3258176736881" x2="680.1" y2="239.46887836982933" stroke="#008000" stroke-width="1" />
<rect x="674.52" y="286.53762376171017" width="11.160000000000082" height="47.250174725622855" fill="#008000" stroke="#008000" stroke-width="1" />
<line x1="698.7" y1="364.6905168560802" x2="698.7" y2="229.91281678949554" stroke="#008000" stroke-width="1" />
<rect x="693.12" y="237.70763238046675" width="11.160000000000082" height="48.82999138124342" fill="#008000" stroke="#008000" stroke-width="1" />
<line x1="717.3000000000001" y1="288.4572824208626" x2="717.3000000000001" y2="197.30873665236732" stroke="#008000" stroke-width="1" />
<rect x="711.72" y="222.30810141703387" width="11.160000000000082" height="15.39953096343288" fill="#008000" stroke="#008000" stroke-width="1" />
<line x1="735.9000000000001" y1="280.86205262656495" x2="735.9000000000001" y2="172.40573756695767" stroke="#008000" stroke-width="1" />
<rect x="730.32" y="189.76733813642068" width="11.159999999999968" height="32.54076328061319" fill="#008000" stroke="#008000" stroke-width="1" />
<line x1="754.5" y1="257.03345250228176" x2="754.5" y2="135.41814431502507" stroke="#FF0000" stroke-width="1" />
<rect x="748.9200000000001" y="189.76733813642068" width="11.159999999999968" height="27.90612881046991" fill="#FF0000" stroke="#FF0000" stroke-width="1" />
<line x1="773.1" y1="248.3772143311785" x2="773.1" y2="142.92796584332882" stroke="#FF0000" stroke-width="1" />
<rect x="767.5200000000001" y="217.67346694689058" width="11.159999999999854" height="28.093543645431964" fill="#FF0000" stroke="#FF0000" stroke-width="1" />
<line x1="791.7" y1="280.83457891336275" x2="791.7" y2="203.60486473722813" stroke="#FF0000" stroke-width="1" />
<rect x="786.1200000000001" y="245.76701059232255" width="11.159999999999854" height="26.50728200162348" fill="#FF0000" stroke="#FF0000" stroke-width="1" />
<line x1="810.3000000000001" y1="316.62887917184025" x2="810.3000000000001" y2="207.35585623247198" stroke="#FF0000" stroke-width="1" />
<rect x="804.7200000000001" y="272.27429259394603" width="11.159999999999854" height="20.89578829183938" fill="#FF0000" stroke="#FF0000" stroke-width="1" />
<line x1="828.9000000000001" y1="328.8542592912895" x2="828.9000000000001" y2="252.4530139786275" stroke="#FF0000" stroke-width="1" />
<rect x="823.32" y="293.1700808857854" width="11.159999999999968" height="2.6162970067048263" fill="#FF0000" stroke="#FF0000" stroke-width="1" />
<line x1="847.5" y1="323.72850219765314" x2="847.5" y2="240.63221793090634" stroke="#FF0000" stroke-width="1" />
<rect x="841.9200000000001" y="295.78637789249024" width="11.159999999999968" height="12.404687032097627" fill="#FF0000" stroke="#FF0000" stroke-width="1" />
<line x1="866.1" y1="384.49972468128954" x2="866.1" y2="232.8696852977646" stroke="#008000" stroke-width="1" />
<rect x="860.5200000000001" y="262.46819431718313" width="11.159999999999854" height="45.72287060740473" fill="#008000" stroke="#008000" stroke-width="1" />
<line x1="884.7" y1="333.5067493544416" x2="884.7" y2="211.02348201605446" stroke="#008000" stroke-width="1" />
<rect x="879.1200000000001" y="214.942804307585" width="11.159999999999854" height="47.52539000959814" fill="#008000" stroke="#008000" stroke-width="1" />
<line x1="903.3000000000001" y1="275.6620816319851" x2="903.3000000000001" y2="152.33029922254718" stroke="#FF0000" stroke-width="1" />
<rect x="897.7200000000001" y="214.942804307585" width="11.159999999999854" height="16.729150048453448" fill="#FF0000" stroke="#FF0000" stroke-width="1" />
<line x1="921.9000000000001" y1="306.8965189783539" x2="921.9000000000001" y2="170.5161650625596" stroke="#FF0000" stroke-width="1" />
<rect x="916.3200000000002" y="231.67195435603844" width="11.159999999999854" height="46.265347041620316" fill="#FF0000" stroke="#FF0000" stroke-width="1" />
<line x1="940.5000000000001" y1="352.69631081122816" x2="940.5000000000001" y2="216.42388036218335" stroke="#008000" stroke-width="1" />
<rect x="934.9200000000001" y="236.93265902827625" width="11.159999999999968" height="41.00464236938251" fill="#008000" stroke="#008000" stroke-width="1" />
<line x1="959.1" y1="334.25006255949984" x2="959.1" y2="171.77560839349871" stroke="#008000" stroke-width="1" />
<rect x="953.5200000000001" y="186.558456137112" width="11.159999999999968" height="50.37420289116426" fill="#008000" stroke="#008000" stroke-width="1" />
<line x1="977.7" y1="264.1919616632331" x2="977.7" y2="124.71818181818207" stroke="#FF0000" stroke-width="1" />
<rect x="972.1200000000001" y="186.558456137112" width="11.159999999999854" height="44.83130797944341" fill="#FF0000" stroke="#FF0000" stroke-width="1" />
<line x1="996.3000000000001" y1="270.0969015279352" x2="996.3000000000001" y2="184.8509073539094" stroke="#008000" stroke-width="1" />
<rect x="990.7200000000001" y="210.8971814271722" width="11.159999999999854" height="20.492582689383198" fill="#008000" stroke="#008000" stroke-width="1" />
<line x1="1014.9000000000001" y1="269.1234349871934" x2="1014.9000000000001" y2="154.59441374061862" stroke="#FF0000" stroke-width="1" />
<rect x="1009.3200000000002" y="210.8971814271722" width="11.159999999999854" height="26.10118546094509" fill="#FF0000" stroke="#FF0000" stroke-width="1" />
<line x1="1033.5" y1="257.74741417098585" x2="1033.5" y2="188.01895273709988" stroke="#FF0000" stroke-width="1" />
<rect x="1027.92" y="236.9983668881173" width="11.159999999999854" height="15.780104319001111" fill="#FF0000" stroke="#FF0000" stroke-width="1" />
<line x1="1052.1" y1="337.8242143745647" x2="1052.1" y2="202.0727445388593" stroke="#008000" stroke-width="1" />
<rect x="1046.52" y="216.5899292074405" width="11.160000000000082" height="36.18854199967791" fill="#008000" stroke="#008000" stroke-width="1" />
<line x1="1070.7" y1="281.9549343466847" x2="1070.7" y2="139.8278948690022" stroke="#FF0000" stroke-width="1" />
<rect x="1065.1200000000001" y="216.5899292074405" width="11.159999999999854" height="47.847399349290754" fill="#FF0000" stroke="#FF0000" stroke-width="1" />
<g class="series" aria-label="BB(20,2)">
<polyline points="512.7,279.779227272636 531.3000000000001,283.14016418571543 549.9,288.13412518088893 568.5,292.93873628984755 587.1,297.965887070789 605.7,302.7424495895698 624.3000000000001,303.2079712012502 642.9000000000001,303.6297545707076 661.5,304.909104636851 680.1,302.03618346163876 698.7,298.07504657544297 717.3000000000001,295.14312335960824 735.9000000000001,292.4072713860095 754.5,291.7920465505623 773.1,290.33352494217905 791.7,291.7058019439539 810.3000000000001,293.19839956325677 828.9000000000001,293.0347161929289 847.5,293.3161580946248 866.1,291.6259704636113 884.7,285.6995816282033 903.3000000000001,281.80795901862246 921.9000000000001,278.4575911843065 940.5000000000001,271.5229584444916 959.1,264.3775594380384 977.7,258.7734256757996 996.3000000000001,254.18094586364495 1014.9000000000001,249.63837349973429 1033.5,245.58790713572353 1052.1,242.0905224080102 1070.7,243.4270072168233" fill="none" stroke="#1F77B4" stroke-width="1.5" />
</g>
<g class="spine">
<line x1="150" y1="475.8" x2="1080" y2="475.8" stroke="#262626" stroke-width="0.8" />
</g>
<g class="spine">
<line x1="150" y1="108" x2="1080" y2="108" stroke="#262626" stroke-width="0.8" />
</g>
<g class="spine">
<line x1="150" y1="108" x2="150" y2="475.8" stroke="#262626" stroke-width="0.8" />
</g>
<g class="spine">
<line x1="1080" y1="108" x2="1080" y2="475.8" stroke="#262626" stroke-width="0.8" />
</g>
<rect x="958.7222222222222" y="118" width="111.2777777777778" height="25.72222222222222" fill="#FFFFFF" fill-opacity="0.8" stroke="#CCCCCC" stroke-width="0.5" />
<g class="legend" aria-label="Chart legend">
<line x1="966.7222222222222" y1="130.86111111111111" x2="994.5" y2="130.86111111111111" stroke="#1F77B4" stroke-width="1.5" />
<text x="1005.6111111111111" y="134.72222222222223" font-family="DejaVu Sans, sans-serif" font-size="13.88888888888889" text-anchor="start" fill="#262626">BB(20,2)</text>
</g>
<text x="103.27777777777777" y="291.9" font-family="DejaVu Sans, sans-serif" font-size="13.88888888888889" text-anchor="middle" transform="rotate(-90,103.27777777777777,291.9)" fill="#262626">Price</text>
<rect x="150" y="515.8" width="930" height="91.95" fill="#FFFFFF" />
<line x1="157.4698795180723" y1="607.35" x2="157.4698795180723" y2="612.6111111111111" stroke="#262626" stroke-width="1.1111111111111112" />
<text x="157.4698795180723" y="631.3611111111111" font-family="DejaVu Sans, sans-serif" font-size="13.88888888888889" text-anchor="middle" fill="#262626">0</text>
<line x1="250.84337349397592" y1="607.35" x2="250.84337349397592" y2="612.6111111111111" stroke="#262626" stroke-width="1.1111111111111112" />
<text x="250.84337349397592" y="631.3611111111111" font-family="DejaVu Sans, sans-serif" font-size="13.88888888888889" text-anchor="middle" fill="#262626">5</text>
<line x1="344.2168674698795" y1="607.35" x2="344.2168674698795" y2="612.6111111111111" stroke="#262626" stroke-width="1.1111111111111112" />
<text x="344.2168674698795" y="631.3611111111111" font-family="DejaVu Sans, sans-serif" font-size="13.88888888888889" text-anchor="middle" fill="#262626">10</text>
<line x1="437.5903614457832" y1="607.35" x2="437.5903614457832" y2="612.6111111111111" stroke="#262626" stroke-width="1.1111111111111112" />
<text x="437.5903614457832" y="631.3611111111111" font-family="DejaVu Sans, sans-serif" font-size="13.88888888888889" text-anchor="middle" fill="#262626">15</text>
<line x1="530.9638554216867" y1="607.35" x2="530.9638554216867" y2="612.6111111111111" stroke="#262626" stroke-width="1.1111111111111112" />
<text x="530.9638554216867" y="631.3611111111111" font-family="DejaVu Sans, sans-serif" font-size="13.88888888888889" text-anchor="middle" fill="#262626">20</text>
<line x1="624.3373493975904" y1="607.35" x2="624.3373493975904" y2="612.6111111111111" stroke="#262626" stroke-width="1.1111111111111112" />
<text x="624.3373493975904" y="631.3611111111111" font-family="DejaVu Sans, sans-serif" font-size="13.88888888888889" text-anchor="middle" fill="#262626">25</text>
<line x1="717.7108433734941" y1="607.35" x2="717.7108433734941" y2="612.6111111111111" stroke="#262626" stroke-width="1.1111111111111112" />
<text x="717.7108433734941" y="631.3611111111111" font-family="DejaVu Sans, sans-serif" font-size="13.88888888888889" text-anchor="middle" fill="#262626">30</text>
<line x1="811.0843373493976" y1="607.35" x2="811.0843373493976" y2="612.6111111111111" stroke="#262626" stroke-width="1.1111111111111112" />
<text x="811.0843373493976" y="631.3611111111111" font-family="DejaVu Sans, sans-serif" font-size="13.88888888888889" text-anchor="middle" fill="#262626">35</text>
<line x1="904.4578313253012" y1="607.35" x2="904.4578313253012" y2="612.6111111111111" stroke="#262626" stroke-width="1.1111111111111112" />
<text x="904.4578313253012" y="631.3611111111111" font-family="DejaVu Sans, sans-serif" font-size="13.88888888888889" text-anchor="middle" fill="#262626">40</text>
<line x1="997.831325301205" y1="607.35" x2="997.831325301205" y2="612.6111111111111" stroke="#262626" stroke-width="1.1111111111111112" />
<text x="997.831325301205" y="631.3611111111111" font-family="DejaVu Sans, sans-serif" font-size="13.88888888888889" text-anchor="middle" fill="#262626">45</text>
<line x1="176.14457831325302" y1="607.35" x2="176.14457831325302" y2="612.6111111111111" stroke="#262626" stroke-width="1.1111111111111112" />
<line x1="194.81927710843374" y1="607.35" x2="194.81927710843374" y2="612.6111111111111" stroke="#262626" stroke-width="1.1111111111111112" />
<line x1="213.49397590361446" y1="607.35" x2="213.49397590361446" y2="612.6111111111111" stroke="#262626" stroke-width="1.1111111111111112" />
<line x1="232.1686746987952" y1="607.35" x2="232.1686746987952" y2="612.6111111111111" stroke="#262626" stroke-width="1.1111111111111112" />
<line x1="269.51807228915663" y1="607.35" x2="269.51807228915663" y2="612.6111111111111" stroke="#262626" stroke-width="1.1111111111111112" />
<line x1="288.1927710843373" y1="607.35" x2="288.1927710843373" y2="612.6111111111111" stroke="#262626" stroke-width="1.1111111111111112" />
<line x1="306.8674698795181" y1="607.35" x2="306.8674698795181" y2="612.6111111111111" stroke="#262626" stroke-width="1.1111111111111112" />
<line x1="325.5421686746988" y1="607.35" x2="325.5421686746988" y2="612.6111111111111" stroke="#262626" stroke-width="1.1111111111111112" />
<line x1="362.89156626506025" y1="607.35" x2="362.89156626506025" y2="612.6111111111111" stroke="#262626" stroke-width="1.1111111111111112" />
<line x1="381.566265060241" y1="607.35" x2="381.566265060241" y2="612.6111111111111" stroke="#262626" stroke-width="1.1111111111111112" />
<line x1="400.2409638554217" y1="607.35" x2="400.2409638554217" y2="612.6111111111111" stroke="#262626" stroke-width="1.1111111111111112" />
<line x1="418.9156626506024" y1="607.35" x2="418.9156626506024" y2="612.6111111111111" stroke="#262626" stroke-width="1.1111111111111112" />
<line x1="456.26506024096386" y1="607.35" x2="456.26506024096386" y2="612.6111111111111" stroke="#262626" stroke-width="1.1111111111111112" />
<line x1="474.9397590361446" y1="607.35" x2="474.9397590361446" y2="612.6111111111111" stroke="#262626" stroke-width="1.1111111111111112" />
<line x1="493.61445783132535" y1="607.35" x2="493.61445783132535" y2="612.6111111111111" stroke="#262626" stroke-width="1.1111111111111112" />
<line x1="512.289156626506" y1="607.35" x2="512.289156626506" y2="612.6111111111111" stroke="#262626" stroke-width="1.1111111111111112" />
<line x1="549.6385542168675" y1="607.35" x2="549.6385542168675" y2="612.6111111111111" stroke="#262626" stroke-width="1.1111111111111112" />
<line x1="568.3132530120482" y1="607.35" x2="568.3132530120482" y2="612.6111111111111" stroke="#262626" stroke-width="1.1111111111111112" />
<line x1="586.9879518072289" y1="607.35" x2="586.9879518072289" y2="612.6111111111111" stroke="#262626" stroke-width="1.1111111111111112" />
<line x1="605.6626506024097" y1="607.35" x2="605.6626506024097" y2="612.6111111111111" stroke="#262626" stroke-width="1.1111111111111112" />
<line x1="643.0120481927711" y1="607.35" x2="643.0120481927711" y2="612.6111111111111" stroke="#262626" stroke-width="1.1111111111111112" />
<line x1="661.6867469879519" y1="607.35" x2="661.6867469879519" y2="612.6111111111111" stroke="#262626" stroke-width="1.1111111111111112" />
<line x1="680.3614457831325" y1="607.35" x2="680.3614457831325" y2="612.6111111111111" stroke="#262626" stroke-width="1.1111111111111112" />
<line x1="699.0361445783133" y1="607.35" x2="699.0361445783133" y2="612.6111111111111" stroke="#262626" stroke-width="1.1111111111111112" />
<line x1="736.3855421686746" y1="607.35" x2="736.3855421686746" y2="612.6111111111111" stroke="#262626" stroke-width="1.1111111111111112" />
<line x1="755.0602409638554" y1="607.35" x2="755.0602409638554" y2="612.6111111111111" stroke="#262626" stroke-width="1.1111111111111112" />
<line x1="773.7349397590363" y1="607.35" x2="773.7349397590363" y2="612.6111111111111" stroke="#262626" stroke-width="1.1111111111111112" />
<line x1="792.4096385542168" y1="607.35" x2="792.4096385542168" y2="612.6111111111111" stroke="#262626" stroke-width="1.1111111111111112" />
<line x1="829.7590361445784" y1="607.35" x2="829.7590361445784" y2="612.6111111111111" stroke="#262626" stroke-width="1.1111111111111112" />
<line x1="848.433734939759" y1="607.35" x2="848.433734939759" y2="612.6111111111111" stroke="#262626" stroke-width="1.1111111111111112" />
<line x1="867.1084337349398" y1="607.35" x2="867.1084337349398" y2="612.6111111111111" stroke="#262626" stroke-width="1.1111111111111112" />
<line x1="885.7831325301206" y1="607.35" x2="885.7831325301206" y2="612.6111111111111" stroke="#262626" stroke-width="1.1111111111111112" />
<line x1="923.132530120482" y1="607.35" x2="923.132530120482" y2="612.6111111111111" stroke="#262626" stroke-width="1.1111111111111112" />
<line x1="941.8072289156628" y1="607.35" x2="941.8072289156628" y2="612.6111111111111" stroke="#262626" stroke-width="1.1111111111111112" />
<line x1="960.4819277108434" y1="607.35" x2="960.4819277108434" y2="612.6111111111111" stroke="#262626" stroke-width="1.1111111111111112" />
<line x1="979.1566265060242" y1="607.35" x2="979.1566265060242" y2="612.6111111111111" stroke="#262626" stroke-width="1.1111111111111112" />
<line x1="1016.5060240963855" y1="607.35" x2="1016.5060240963855" y2="612.6111111111111" stroke="#262626" stroke-width="1.1111111111111112" />
<line x1="1035.1807228915663" y1="607.35" x2="1035.1807228915663" y2="612.6111111111111" stroke="#262626" stroke-width="1.1111111111111112" />
<line x1="1053.8554216867471" y1="607.35" x2="1053.8554216867471" y2="612.6111111111111" stroke="#262626" stroke-width="1.1111111111111112" />
<line x1="1072.5301204819277" y1="607.35" x2="1072.5301204819277" y2="612.6111111111111" stroke="#262626" stroke-width="1.1111111111111112" />
<line x1="145.13888888888889" y1="607.75" x2="150.4" y2="607.75" stroke="#262626" stroke-width="1.1111111111111112" />
<text x="140.27777777777777" y="611.75" font-family="DejaVu Sans, sans-serif" font-size="13.88888888888889" text-anchor="end" fill="#262626">0</text>
<line x1="145.13888888888889" y1="549.343234469731" x2="150.4" y2="549.343234469731" stroke="#262626" stroke-width="1.1111111111111112" />
<text x="140.27777777777777" y="553.343234469731" font-family="DejaVu Sans, sans-serif" font-size="13.88888888888889" text-anchor="end" fill="#262626">100 k</text>
<line x1="145.13888888888889" y1="596.0686468939462" x2="150.4" y2="596.0686468939462" stroke="#262626" stroke-width="1.1111111111111112" />
<line x1="145.13888888888889" y1="584.3872937878924" x2="150.4" y2="584.3872937878924" stroke="#262626" stroke-width="1.1111111111111112" />
<line x1="145.13888888888889" y1="572.7059406818386" x2="150.4" y2="572.7059406818386" stroke="#262626" stroke-width="1.1111111111111112" />
<line x1="145.13888888888889" y1="561.0245875757848" x2="150.4" y2="561.0245875757848" stroke="#262626" stroke-width="1.1111111111111112" />
<line x1="145.13888888888889" y1="537.6618813636773" x2="150.4" y2="537.6618813636773" stroke="#262626" stroke-width="1.1111111111111112" />
<line x1="145.13888888888889" y1="525.9805282576234" x2="150.4" y2="525.9805282576234" stroke="#262626" stroke-width="1.1111111111111112" />
<rect x="150" y="572.5223771604722" width="14.93975903614458" height="35.22762283952784" fill="#1F77B4" />
<rect x="168.67469879518072" y="569.870344156607" width="14.93975903614458" height="37.87965584339304" fill="#1F77B4" />
<rect x="187.34939759036146" y="548.5933279780867" width="14.93975903614458" height="59.15667202191332" fill="#1F77B4" />
<rect x="206.02409638554218" y="536.788732677434" width="14.93975903614458" height="70.96126732256596" fill="#1F77B4" />
<rect x="224.6987951807229" y="540.533605926536" width="14.93975903614458" height="67.21639407346402" fill="#1F77B4" />
<rect x="243.3734939759036" y="576.9612884803288" width="14.939759036144608" height="30.78871151967121" fill="#1F77B4" />
<rect x="262.04819277108436" y="565.923530704485" width="14.939759036144551" height="41.82646929551504" fill="#1F77B4" />
<rect x="280.72289156626505" y="520.5203918822604" width="14.939759036144608" height="87.22960811773964" fill="#1F77B4" />
<rect x="299.3975903614458" y="559.6322252860828" width="14.939759036144608" height="48.11777471391724" fill="#1F77B4" />
<rect x="318.07228915662654" y="576.0886210341413" width="14.939759036144551" height="31.661378965858717" fill="#1F77B4" />
<rect x="336.7469879518072" y="524.4491221900971" width="14.939759036144608" height="83.30087780990289" fill="#1F77B4" />
<rect x="355.421686746988" y="541.4889289449231" width="14.939759036144608" height="66.26107105507685" fill="#1F77B4" />
<rect x="374.0963855421687" y="567.8555427379329" width="14.939759036144551" height="39.894457262067135" fill="#1F77B4" />
<rect x="392.7710843373494" y="520.8742145757012" width="14.939759036144608" height="86.87578542429878" fill="#1F77B4" />
<rect x="411.44578313253015" y="567.641620122335" width="14.939759036144551" height="40.108379877665016" fill="#1F77B4" />
<rect x="430.12048192771084" y="536.93298853248" width="14.939759036144608" height="70.81701146752005" fill="#1F77B4" />
<rect x="448.79518072289164" y="527.0945103164779" width="14.939759036144494" height="80.65548968352209" fill="#1F77B4" />
<rect x="467.46987951807233" y="551.4665043334106" width="14.939759036144551" height="56.283495666589374" fill="#1F77B4" />
<rect x="486.1445783132531" y="571.0517258433704" width="14.939759036144494" height="36.69827415662962" fill="#1F77B4" />
<rect x="504.81927710843377" y="523.6267153246723" width="14.939759036144551" height="84.12328467532768" fill="#1F77B4" />
<rect x="523.4939759036145" y="555.1821889905337" width="14.939759036144551" height="52.567811009466254" fill="#1F77B4" />
<rect x="542.1686746987953" y="526.5327632307528" width="14.939759036144551" height="81.21723676924717" fill="#1F77B4" />
<rect x="560.843373493976" y="542.5720516174529" width="14.939759036144551" height="65.17794838254713" fill="#1F77B4" />
<rect x="579.5180722891566" y="562.1629993730297" width="14.939759036144551" height="45.58700062697028" fill="#1F77B4" />
<rect x="598.1927710843374" y="564.1136971717445" width="14.939759036144551" height="43.63630282825545" fill="#1F77B4" />
<rect x="616.8674698795181" y="562.3606419476782" width="14.939759036144551" height="45.38935805232177" fill="#1F77B4" />
<rect x="635.5421686746988" y="573.766660080997" width="14.939759036144551" height="33.983339919003015" fill="#1F77B4" />
<rect x="654.2168674698796" y="533.059781057073" width="14.939759036144551" height="74.690218942927" fill="#1F77B4" />
<rect x="672.8915662650604" y="526.5199839779201" width="14.939759036144324" height="81.2300160220799" fill="#1F77B4" />
<rect x="691.566265060241" y="566.2087709580538" width="14.939759036144551" height="41.54122904194617" fill="#1F77B4" />
<rect x="710.2409638554218" y="572.0615927920626" width="14.939759036144551" height="35.688407207937416" fill="#1F77B4" />
<rect x="728.9156626506024" y="536.4538387069363" width="14.939759036144551" height="71.29616129306373" fill="#1F77B4" />
<rect x="747.5903614457832" y="544.5690769274632" width="14.939759036144551" height="63.18092307253676" fill="#1F77B4" />
<rect x="766.265060240964" y="575.2943597534277" width="14.939759036144551" height="32.45564024657233" fill="#1F77B4" />
<rect x="784.9397590361446" y="561.5308274705175" width="14.939759036144551" height="46.219172529482535" fill="#1F77B4" />
<rect x="803.6144578313254" y="557.0825154047724" width="14.939759036144551" height="50.66748459522762" fill="#1F77B4" />
<rect x="822.2891566265062" y="520.1785714285714" width="14.939759036144551" height="87.57142857142856" fill="#1F77B4" />
<rect x="840.9638554216867" y="567.8288120627916" width="14.939759036144551" height="39.9211879372084" fill="#1F77B4" />
<rect x="859.6385542168675" y="555.9373665867193" width="14.939759036144551" height="51.81263341328065" fill="#1F77B4" />
<rect x="878.3132530120483" y="527.1110314656551" width="14.939759036144551" height="80.63896853434494" fill="#1F77B4" />
<rect x="896.9879518072289" y="526.5246540253512" width="14.939759036144551" height="81.2253459746488" fill="#1F77B4" />
<rect x="915.6626506024097" y="577.4590263223554" width="14.939759036144551" height="30.290973677644615" fill="#1F77B4" />
<rect x="934.3373493975905" y="540.2596498100073" width="14.939759036144551" height="67.49035018999268" fill="#1F77B4" />
<rect x="953.0120481927711" y="534.6121860683334" width="14.939759036144551" height="73.13781393166664" fill="#1F77B4" />
<rect x="971.6867469879519" y="576.0588194588304" width="14.939759036144551" height="31.691180541169615" fill="#1F77B4" />
<rect x="990.3614457831327" y="558.461885757803" width="14.939759036144551" height="49.288114242197025" fill="#1F77B4" />
<rect x="1009.0361445783133" y="543.1813694789192" width="14.939759036144551" height="64.56863052108076" fill="#1F77B4" />
<rect x="1027.710843373494" y="570.6083744837605" width="14.939759036144551" height="37.141625516239515" fill="#1F77B4" />
<rect x="1046.3855421686749" y="558.0273783513416" width="14.939759036144551" height="49.722621648658446" fill="#1F77B4" />
<rect x="1065.0602409638554" y="569.4680954807565" width="14.939759036144551" height="38.28190451924354" fill="#1F77B4" />
<g class="spine">
<line x1="150" y1="607.75" x2="1080" y2="607.75" stroke="#262626" stroke-width="0.8" />
</g>
<g class="spine">
<line x1="150" y1="515.8" x2="1080" y2="515.8" stroke="#262626" stroke-width="0.8" />
</g>
<g class="spine">
<line x1="150" y1="515.8" x2="150" y2="607.75" stroke="#262626" stroke-width="0.8" />
</g>
<g class="spine">
<line x1="1080" y1="515.8" x2="1080" y2="607.75" stroke="#262626" stroke-width="0.8" />
</g>
<text x="91.33333333333334" y="561.775" font-family="DejaVu Sans, sans-serif" font-size="13.88888888888889" text-anchor="middle" transform="rotate(-90,91.33333333333334,561.775)" fill="#262626">Volume</text>
<rect x="150" y="647.75" width="930" height="153.25" fill="#FFFFFF" />
<line x1="159.3" y1="800.6" x2="159.3" y2="805.8611111111111" stroke="#262626" stroke-width="1.1111111111111112" />
<text x="159.3" y="824.6111111111111" font-family="DejaVu Sans, sans-serif" font-size="13.88888888888889" text-anchor="middle" fill="#262626">0</text>
<line x1="252.3" y1="800.6" x2="252.3" y2="805.8611111111111" stroke="#262626" stroke-width="1.1111111111111112" />
<text x="252.3" y="824.6111111111111" font-family="DejaVu Sans, sans-serif" font-size="13.88888888888889" text-anchor="middle" fill="#262626">5</text>
<line x1="345.3" y1="800.6" x2="345.3" y2="805.8611111111111" stroke="#262626" stroke-width="1.1111111111111112" />
<text x="345.3" y="824.6111111111111" font-family="DejaVu Sans, sans-serif" font-size="13.88888888888889" text-anchor="middle" fill="#262626">10</text>
<line x1="438.3" y1="800.6" x2="438.3" y2="805.8611111111111" stroke="#262626" stroke-width="1.1111111111111112" />
<text x="438.3" y="824.6111111111111" font-family="DejaVu Sans, sans-serif" font-size="13.88888888888889" text-anchor="middle" fill="#262626">15</text>
<line x1="531.3" y1="800.6" x2="531.3" y2="805.8611111111111" stroke="#262626" stroke-width="1.1111111111111112" />
<text x="531.3" y="824.6111111111111" font-family="DejaVu Sans, sans-serif" font-size="13.88888888888889" text-anchor="middle" fill="#262626">20</text>
<line x1="624.3" y1="800.6" x2="624.3" y2="805.8611111111111" stroke="#262626" stroke-width="1.1111111111111112" />
<text x="624.3" y="824.6111111111111" font-family="DejaVu Sans, sans-serif" font-size="13.88888888888889" text-anchor="middle" fill="#262626">25</text>
<line x1="717.3000000000001" y1="800.6" x2="717.3000000000001" y2="805.8611111111111" stroke="#262626" stroke-width="1.1111111111111112" />
<text x="717.3000000000001" y="824.6111111111111" font-family="DejaVu Sans, sans-serif" font-size="13.88888888888889" text-anchor="middle" fill="#262626">30</text>
<line x1="810.3000000000001" y1="800.6" x2="810.3000000000001" y2="805.8611111111111" stroke="#262626" stroke-width="1.1111111111111112" />
<text x="810.3000000000001" y="824.6111111111111" font-family="DejaVu Sans, sans-serif" font-size="13.88888888888889" text-anchor="middle" fill="#262626">35</text>
<line x1="903.3000000000001" y1="800.6" x2="903.3000000000001" y2="805.8611111111111" stroke="#262626" stroke-width="1.1111111111111112" />
<text x="903.3000000000001" y="824.6111111111111" font-family="DejaVu Sans, sans-serif" font-size="13.88888888888889" text-anchor="middle" fill="#262626">40</text>
<line x1="996.3000000000001" y1="800.6" x2="996.3000000000001" y2="805.8611111111111" stroke="#262626" stroke-width="1.1111111111111112" />
<text x="996.3000000000001" y="824.6111111111111" font-family="DejaVu Sans, sans-serif" font-size="13.88888888888889" text-anchor="middle" fill="#262626">45</text>
<line x1="177.9" y1="800.6" x2="177.9" y2="805.8611111111111" stroke="#262626" stroke-width="1.1111111111111112" />
<line x1="196.5" y1="800.6" x2="196.5" y2="805.8611111111111" stroke="#262626" stroke-width="1.1111111111111112" />
<line x1="215.10000000000002" y1="800.6" x2="215.10000000000002" y2="805.8611111111111" stroke="#262626" stroke-width="1.1111111111111112" />
<line x1="233.7" y1="800.6" x2="233.7" y2="805.8611111111111" stroke="#262626" stroke-width="1.1111111111111112" />
<line x1="270.9" y1="800.6" x2="270.9" y2="805.8611111111111" stroke="#262626" stroke-width="1.1111111111111112" />
<line x1="289.5" y1="800.6" x2="289.5" y2="805.8611111111111" stroke="#262626" stroke-width="1.1111111111111112" />
<line x1="308.1" y1="800.6" x2="308.1" y2="805.8611111111111" stroke="#262626" stroke-width="1.1111111111111112" />
<line x1="326.70000000000005" y1="800.6" x2="326.70000000000005" y2="805.8611111111111" stroke="#262626" stroke-width="1.1111111111111112" />
<line x1="363.9" y1="800.6" x2="363.9" y2="805.8611111111111" stroke="#262626" stroke-width="1.1111111111111112" />
<line x1="382.5" y1="800.6" x2="382.5" y2="805.8611111111111" stroke="#262626" stroke-width="1.1111111111111112" />
<line x1="401.1" y1="800.6" x2="401.1" y2="805.8611111111111" stroke="#262626" stroke-width="1.1111111111111112" />
<line x1="419.70000000000005" y1="800.6" x2="419.70000000000005" y2="805.8611111111111" stroke="#262626" stroke-width="1.1111111111111112" />
<line x1="456.90000000000003" y1="800.6" x2="456.90000000000003" y2="805.8611111111111" stroke="#262626" stroke-width="1.1111111111111112" />
<line x1="475.5" y1="800.6" x2="475.5" y2="805.8611111111111" stroke="#262626" stroke-width="1.1111111111111112" />
<line x1="494.1" y1="800.6" x2="494.1" y2="805.8611111111111" stroke="#262626" stroke-width="1.1111111111111112" />
<line x1="512.7" y1="800.6" x2="512.7" y2="805.8611111111111" stroke="#262626" stroke-width="1.1111111111111112" />
<line x1="549.9000000000001" y1="800.6" x2="549.9000000000001" y2="805.8611111111111" stroke="#262626" stroke-width="1.1111111111111112" />
<line x1="568.5" y1="800.6" x2="568.5" y2="805.8611111111111" stroke="#262626" stroke-width="1.1111111111111112" />
<line x1="587.1" y1="800.6" x2="587.1" y2="805.8611111111111" stroke="#262626" stroke-width="1.1111111111111112" />
<line x1="605.7" y1="800.6" x2="605.7" y2="805.8611111111111" stroke="#262626" stroke-width="1.1111111111111112" />
<line x1="642.9000000000001" y1="800.6" x2="642.9000000000001" y2="805.8611111111111" stroke="#262626" stroke-width="1.1111111111111112" />
<line x1="661.5" y1="800.6" x2="661.5" y2="805.8611111111111" stroke="#262626" stroke-width="1.1111111111111112" />
<line x1="680.1" y1="800.6" x2="680.1" y2="805.8611111111111" stroke="#262626" stroke-width="1.1111111111111112" />
<line x1="698.7" y1="800.6" x2="698.7" y2="805.8611111111111" stroke="#262626" stroke-width="1.1111111111111112" />
<line x1="735.9000000000001" y1="800.6" x2="735.9000000000001" y2="805.8611111111111" stroke="#262626" stroke-width="1.1111111111111112" />
<line x1="754.5" y1="800.6" x2="754.5" y2="805.8611111111111" stroke="#262626" stroke-width="1.1111111111111112" />
<line x1="773.1" y1="800.6" x2="773.1" y2="805.8611111111111" stroke="#262626" stroke-width="1.1111111111111112" />
<line x1="791.7" y1="800.6" x2="791.7" y2="805.8611111111111" stroke="#262626" stroke-width="1.1111111111111112" />
<line x1="828.9000000000001" y1="800.6" x2="828.9000000000001" y2="805.8611111111111" stroke="#262626" stroke-width="1.1111111111111112" />
<line x1="847.5" y1="800.6" x2="847.5" y2="805.8611111111111" stroke="#262626" stroke-width="1.1111111111111112" />
<line x1="866.1" y1="800.6" x2="866.1" y2="805.8611111111111" stroke="#262626" stroke-width="1.1111111111111112" />
<line x1="884.7" y1="800.6" x2="884.7" y2="805.8611111111111" stroke="#262626" stroke-width="1.1111111111111112" />
<line x1="921.9000000000001" y1="800.6" x2="921.9000000000001" y2="805.8611111111111" stroke="#262626" stroke-width="1.1111111111111112" />
<line x1="940.5000000000001" y1="800.6" x2="940.5000000000001" y2="805.8611111111111" stroke="#262626" stroke-width="1.1111111111111112" />
<line x1="959.1" y1="800.6" x2="959.1" y2="805.8611111111111" stroke="#262626" stroke-width="1.1111111111111112" />
<line x1="977.7" y1="800.6" x2="977.7" y2="805.8611111111111" stroke="#262626" stroke-width="1.1111111111111112" />
<line x1="1014.9000000000001" y1="800.6" x2="1014.9000000000001" y2="805.8611111111111" stroke="#262626" stroke-width="1.1111111111111112" />
<line x1="1033.5" y1="800.6" x2="1033.5" y2="805.8611111111111" stroke="#262626" stroke-width="1.1111111111111112" />
<line x1="1052.1" y1="800.6" x2="1052.1" y2="805.8611111111111" stroke="#262626" stroke-width="1.1111111111111112" />
<line x1="1070.7" y1="800.6" x2="1070.7" y2="805.8611111111111" stroke="#262626" stroke-width="1.1111111111111112" />
<line x1="145.13888888888889" y1="801" x2="150.4" y2="801" stroke="#262626" stroke-width="1.1111111111111112" />
<text x="140.27777777777777" y="805" font-family="DejaVu Sans, sans-serif" font-size="13.88888888888889" text-anchor="end" fill="#262626">0</text>
<line x1="145.13888888888889" y1="785.675" x2="150.4" y2="785.675" stroke="#262626" stroke-width="1.1111111111111112" />
<text x="140.27777777777777" y="789.675" font-family="DejaVu Sans, sans-serif" font-size="13.88888888888889" text-anchor="end" fill="#262626">10</text>
<line x1="145.13888888888889" y1="770.35" x2="150.4" y2="770.35" stroke="#262626" stroke-width="1.1111111111111112" />
<text x="140.27777777777777" y="774.35" font-family="DejaVu Sans, sans-serif" font-size="13.88888888888889" text-anchor="end" fill="#262626">20</text>
<line x1="145.13888888888889" y1="755.025" x2="150.4" y2="755.025" stroke="#262626" stroke-width="1.1111111111111112" />
<text x="140.27777777777777" y="759.025" font-family="DejaVu Sans, sans-serif" font-size="13.88888888888889" text-anchor="end" fill="#262626">30</text>
<line x1="145.13888888888889" y1="739.7" x2="150.4" y2="739.7" stroke="#262626" stroke-width="1.1111111111111112" />
<text x="140.27777777777777" y="743.7" font-family="DejaVu Sans, sans-serif" font-size="13.88888888888889" text-anchor="end" fill="#262626">40</text>
<line x1="145.13888888888889" y1="724.375" x2="150.4" y2="724.375" stroke="#262626" stroke-width="1.1111111111111112" />
<text x="140.27777777777777" y="728.375" font-family="DejaVu Sans, sans-serif" font-size="13.88888888888889" text-anchor="end" fill="#262626">50</text>
<line x1="145.13888888888889" y1="709.05" x2="150.4" y2="709.05" stroke="#262626" stroke-width="1.1111111111111112" />
<text x="140.27777777777777" y="713.05" font-family="DejaVu Sans, sans-serif" font-size="13.88888888888889" text-anchor="end" fill="#262626">60</text>
<line x1="145.13888888888889" y1="693.725" x2="150.4" y2="693.725" stroke="#262626" stroke-width="1.1111111111111112" />
<text x="140.27777777777777" y="697.725" font-family="DejaVu Sans, sans-serif" font-size="13.88888888888889" text-anchor="end" fill="#262626">70</text>
<line x1="145.13888888888889" y1="678.4" x2="150.4" y2="678.4" stroke="#262626" stroke-width="1.1111111111111112" />
<text x="140.27777777777777" y="682.4" font-family="DejaVu Sans, sans-serif" font-size="13.88888888888889" text-anchor="end" fill="#262626">80</text>
<line x1="145.13888888888889" y1="663.075" x2="150.4" y2="663.075" stroke="#262626" stroke-width="1.1111111111111112" />
<text x="140.27777777777777" y="667.075" font-family="DejaVu Sans, sans-serif" font-size="13.88888888888889" text-anchor="end" fill="#262626">90</text>
<line x1="145.13888888888889" y1="647.75" x2="150.4" y2="647.75" stroke="#262626" stroke-width="1.1111111111111112" />
<text x="140.27777777777777" y="651.75" font-family="DejaVu Sans, sans-serif" font-size="13.88888888888889" text-anchor="end" fill="#262626">100</text>
<line x1="145.13888888888889" y1="797.935" x2="150.4" y2="797.935" stroke="#262626" stroke-width="1.1111111111111112" />
<line x1="145.13888888888889" y1="794.87" x2="150.4" y2="794.87" stroke="#262626" stroke-width="1.1111111111111112" />
<line x1="145.13888888888889" y1="791.805" x2="150.4" y2="791.805" stroke="#262626" stroke-width="1.1111111111111112" />
<line x1="145.13888888888889" y1="788.74" x2="150.4" y2="788.74" stroke="#262626" stroke-width="1.1111111111111112" />
<line x1="145.13888888888889" y1="782.61" x2="150.4" y2="782.61" stroke="#262626" stroke-width="1.1111111111111112" />
<line x1="145.13888888888889" y1="779.545" x2="150.4" y2="779.545" stroke="#262626" stroke-width="1.1111111111111112" />
<line x1="145.13888888888889" y1="776.48" x2="150.4" y2="776.48" stroke="#262626" stroke-width="1.1111111111111112" />
<line x1="145.13888888888889" y1="773.415" x2="150.4" y2="773.415" stroke="#262626" stroke-width="1.1111111111111112" />
<line x1="145.13888888888889" y1="767.285" x2="150.4" y2="767.285" stroke="#262626" stroke-width="1.1111111111111112" />
<line x1="145.13888888888889" y1="764.22" x2="150.4" y2="764.22" stroke="#262626" stroke-width="1.1111111111111112" />
<line x1="145.13888888888889" y1="761.155" x2="150.4" y2="761.155" stroke="#262626" stroke-width="1.1111111111111112" />
<line x1="145.13888888888889" y1="758.09" x2="150.4" y2="758.09" stroke="#262626" stroke-width="1.1111111111111112" />
<line x1="145.13888888888889" y1="751.96" x2="150.4" y2="751.96" stroke="#262626" stroke-width="1.1111111111111112" />
<line x1="145.13888888888889" y1="748.895" x2="150.4" y2="748.895" stroke="#262626" stroke-width="1.1111111111111112" />
<line x1="145.13888888888889" y1="745.83" x2="150.4" y2="745.83" stroke="#262626" stroke-width="1.1111111111111112" />
<line x1="145.13888888888889" y1="742.765" x2="150.4" y2="742.765" stroke="#262626" stroke-width="1.1111111111111112" />
<line x1="145.13888888888889" y1="736.635" x2="150.4" y2="736.635" stroke="#262626" stroke-width="1.1111111111111112" />
<line x1="145.13888888888889" y1="733.57" x2="150.4" y2="733.57" stroke="#262626" stroke-width="1.1111111111111112" />
<line x1="145.13888888888889" y1="730.505" x2="150.4" y2="730.505" stroke="#262626" stroke-width="1.1111111111111112" />
<line x1="145.13888888888889" y1="727.44" x2="150.4" y2="727.44" stroke="#262626" stroke-width="1.1111111111111112" />
<line x1="145.13888888888889" y1="721.31" x2="150.4" y2="721.31" stroke="#262626" stroke-width="1.1111111111111112" />
<line x1="145.13888888888889" y1="718.245" x2="150.4" y2="718.245" stroke="#262626" stroke-width="1.1111111111111112" />
<line x1="145.13888888888889" y1="715.1800000000001" x2="150.4" y2="715.1800000000001" stroke="#262626" stroke-width="1.1111111111111112" />
<line x1="145.13888888888889" y1="712.115" x2="150.4" y2="712.115" stroke="#262626" stroke-width="1.1111111111111112" />
<line x1="145.13888888888889" y1="705.985" x2="150.4" y2="705.985" stroke="#262626" stroke-width="1.1111111111111112" />
<line x1="145.13888888888889" y1="702.92" x2="150.4" y2="702.92" stroke="#262626" stroke-width="1.1111111111111112" />
<line x1="145.13888888888889" y1="699.855" x2="150.4" y2="699.855" stroke="#262626" stroke-width="1.1111111111111112" />
<line x1="145.13888888888889" y1="696.79" x2="150.4" y2="696.79" stroke="#262626" stroke-width="1.1111111111111112" />
<line x1="145.13888888888889" y1="690.66" x2="150.4" y2="690.66" stroke="#262626" stroke-width="1.1111111111111112" />
<line x1="145.13888888888889" y1="687.595" x2="150.4" y2="687.595" stroke="#262626" stroke-width="1.1111111111111112" />
<line x1="145.13888888888889" y1="684.53" x2="150.4" y2="684.53" stroke="#262626" stroke-width="1.1111111111111112" />
<line x1="145.13888888888889" y1="681.465" x2="150.4" y2="681.465" stroke="#262626" stroke-width="1.1111111111111112" />
<line x1="145.13888888888889" y1="675.335" x2="150.4" y2="675.335" stroke="#262626" stroke-width="1.1111111111111112" />
<line x1="145.13888888888889" y1="672.27" x2="150.4" y2="672.27" stroke="#262626" stroke-width="1.1111111111111112" />
<line x1="145.13888888888889" y1="669.205" x2="150.4" y2="669.205" stroke="#262626" stroke-width="1.1111111111111112" />
<line x1="145.13888888888889" y1="666.14" x2="150.4" y2="666.14" stroke="#262626" stroke-width="1.1111111111111112" />
<line x1="145.13888888888889" y1="660.01" x2="150.4" y2="660.01" stroke="#262626" stroke-width="1.1111111111111112" />
<line x1="145.13888888888889" y1="656.9449999999999" x2="150.4" y2="656.9449999999999" stroke="#262626" stroke-width="1.1111111111111112" />
<line x1="145.13888888888889" y1="653.88" x2="150.4" y2="653.88" stroke="#262626" stroke-width="1.1111111111111112" />
<line x1="145.13888888888889" y1="650.815" x2="150.4" y2="650.815" stroke="#262626" stroke-width="1.1111111111111112" />
<line x1="150" y1="693.725" x2="1080" y2="693.725" stroke="#FF0000" stroke-width="1" stroke-dasharray="5,2" />
<text x="1080" y="691.725" font-family="DejaVu Sans, sans-serif" font-size="13.88888888888889" text-anchor="end" fill="#FF0000">Overbought</text>
<line x1="150" y1="770.35" x2="1080" y2="770.35" stroke="#008000" stroke-width="1" stroke-dasharray="5,2" />
<text x="1080" y="768.35" font-family="DejaVu Sans, sans-serif" font-size="13.88888888888889" text-anchor="end" fill="#008000">Oversold</text>
<g class="series" aria-label="RSI(14)">
<polyline points="419.70000000000005,724.8451828383288 438.3,728.336265901595 456.90000000000003,734.6667157505767 475.5,735.2709698281287 494.1,733.7555582349353 512.7,740.4341930041535 531.3000000000001,734.4590006687373 549.9,740.6544683613583 568.5,745.4742946608263 587.1,734.2769978503093 605.7,736.6850519027546 624.3000000000001,727.6547575847784 642.9000000000001,732.286194323154 661.5,733.3740089722667 680.1,723.1456441013987 698.7,714.2982530098305 717.3000000000001,711.7476745240783 735.9000000000001,706.6136912318057 754.5,713.1242162399442 773.1,719.2385246498209 791.7,724.6373871616207 810.3000000000001,728.6908398658111 828.9000000000001,729.2047098530461 847.5,731.7186767827798 866.1,721.4717920750031 884.7,712.6116727796848 903.3000000000001,716.4631099959192 921.9000000000001,726.1737631699058 940.5000000000001,718.4250402990053 959.1,710.2544533835659 977.7,719.3062338689766 996.3000000000001,715.957057809162 1014.9000000000001,721.0874849268016 1033.5,724.1076635139312 1052.1000000000001,717.5889564425283 1070.7,726.6292573810215" fill="none" stroke="#1F77B4" stroke-width="1.5" />
</g>
<g class="spine">
<line x1="150" y1="801" x2="1080" y2="801" stroke="#262626" stroke-width="0.8" />
</g>
<g class="spine">
<line x1="150" y1="647.75" x2="1080" y2="647.75" stroke="#262626" stroke-width="0.8" />
</g>
<g class="spine">
<line x1="150" y1="647.75" x2="150" y2="801" stroke="#262626" stroke-width="0.8" />
</g>
<g class="spine">
<line x1="1080" y1="647.75" x2="1080" y2="801" stroke="#262626" stroke-width="0.8" />
</g>
<rect x="967.8888888888889" y="657.75" width="102.11111111111111" height="25.72222222222222" fill="#FFFFFF" fill-opacity="0.8" stroke="#CCCCCC" stroke-width="0.5" />
<g class="legend" aria-label="Chart legend">
<line x1="975.8888888888889" y1="670.6111111111111" x2="1003.6666666666667" y2="670.6111111111111" stroke="#1F77B4" stroke-width="1.5" />
<text x="1014.7777777777778" y="674.4722222222222" font-family="DejaVu Sans, sans-serif" font-size="13.88888888888889" text-anchor="start" fill="#262626">RSI(14)</text>
</g>
<text x="103.27777777777777" y="724.375" font-family="DejaVu Sans, sans-serif" font-size="13.88888888888889" text-anchor="middle" transform="rotate(-90,103.27777777777777,724.375)" fill="#262626">Oscillator</text>
</svg>
