<svg xmlns="http://www.w3.org/2000/svg" viewBox="0 0 1200 900" width="1200" height="900">
<rect x="0" y="0" width="1200" height="900" fill="#FFFFFF" />
<text x="600" y="25" font-family="sans-serif" font-size="17" text-anchor="middle" font-weight="bold" fill="#000000">ACME Corp — 50 Day</text>
<rect x="60" y="70" width="1120" height="420" fill="#FFFFFF" />
<line x1="71.2" y1="70" x2="71.2" y2="490" stroke="#B0B0B0" stroke-width="0.8" />
<line x1="183.2" y1="70" x2="183.2" y2="490" stroke="#B0B0B0" stroke-width="0.8" />
<line x1="295.2" y1="70" x2="295.2" y2="490" stroke="#B0B0B0" stroke-width="0.8" />
<line x1="407.2" y1="70" x2="407.2" y2="490" stroke="#B0B0B0" stroke-width="0.8" />
<line x1="519.2" y1="70" x2="519.2" y2="490" stroke="#B0B0B0" stroke-width="0.8" />
<line x1="631.1999999999999" y1="70" x2="631.1999999999999" y2="490" stroke="#B0B0B0" stroke-width="0.8" />
<line x1="743.1999999999999" y1="70" x2="743.1999999999999" y2="490" stroke="#B0B0B0" stroke-width="0.8" />
<line x1="855.1999999999999" y1="70" x2="855.1999999999999" y2="490" stroke="#B0B0B0" stroke-width="0.8" />
<line x1="967.1999999999999" y1="70" x2="967.1999999999999" y2="490" stroke="#B0B0B0" stroke-width="0.8" />
<line x1="1079.1999999999998" y1="70" x2="1079.1999999999998" y2="490" stroke="#B0B0B0" stroke-width="0.8" />
<line x1="60" y1="434.5379728837256" x2="1180" y2="434.5379728837256" stroke="#B0B0B0" stroke-width="0.8" />
<line x1="60" y1="377.54587688102947" x2="1180" y2="377.54587688102947" stroke="#B0B0B0" stroke-width="0.8" />
<line x1="60" y1="320.5537808783338" x2="1180" y2="320.5537808783338" stroke="#B0B0B0" stroke-width="0.8" />
<line x1="60" y1="263.56168487563764" x2="1180" y2="263.56168487563764" stroke="#B0B0B0" stroke-width="0.8" />
<line x1="60" y1="206.56958887294195" x2="1180" y2="206.56958887294195" stroke="#B0B0B0" stroke-width="0.8" />
<line x1="60" y1="149.5774928702458" x2="1180" y2="149.5774928702458" stroke="#B0B0B0" stroke-width="0.8" />
<line x1="60" y1="92.58539686754966" x2="1180" y2="92.58539686754966" stroke="#B0B0B0" stroke-width="0.8" />
<line x1="71.2" y1="490" x2="71.2" y2="495" stroke="#000000" stroke-width="1" />
<text x="71.2" y="505" font-family="sans-serif" font-size="13" text-anchor="middle" fill="#000000">0</text>
<line x1="183.2" y1="490" x2="183.2" y2="495" stroke="#000000" stroke-width="1" />
<text x="183.2" y="505" font-family="sans-serif" font-size="13" text-anchor="middle" fill="#000000">5</text>
<line x1="295.2" y1="490" x2="295.2" y2="495" stroke="#000000" stroke-width="1" />
<text x="295.2" y="505" font-family="sans-serif" font-size="13" text-anchor="middle" fill="#000000">10</text>
<line x1="407.2" y1="490" x2="407.2" y2="495" stroke="#000000" stroke-width="1" />
<text x="407.2" y="505" font-family="sans-serif" font-size="13" text-anchor="middle" fill="#000000">15</text>
<line x1="519.2" y1="490" x2="519.2" y2="495" stroke="#000000" stroke-width="1" />
<text x="519.2" y="505" font-family="sans-serif" font-size="13" text-anchor="middle" fill="#000000">20</text>
<line x1="631.1999999999999" y1="490" x2="631.1999999999999" y2="495" stroke="#000000" stroke-width="1" />
<text x="631.1999999999999" y="505" font-family="sans-serif" font-size="13" text-anchor="middle" fill="#000000">25</text>
<line x1="743.1999999999999" y1="490" x2="743.1999999999999" y2="495" stroke="#000000" stroke-width="1" />
<text x="743.1999999999999" y="505" font-family="sans-serif" font-size="13" text-anchor="middle" fill="#000000">30</text>
<line x1="855.1999999999999" y1="490" x2="855.1999999999999" y2="495" stroke="#000000" stroke-width="1" />
<text x="855.1999999999999" y="505" font-family="sans-serif" font-size="13" text-anchor="middle" fill="#000000">35</text>
<line x1="967.1999999999999" y1="490" x2="967.1999999999999" y2="495" stroke="#000000" stroke-width="1" />
<text x="967.1999999999999" y="505" font-family="sans-serif" font-size="13" text-anchor="middle" fill="#000000">40</text>
<line x1="1079.1999999999998" y1="490" x2="1079.1999999999998" y2="495" stroke="#000000" stroke-width="1" />
<text x="1079.1999999999998" y="505" font-family="sans-serif" font-size="13" text-anchor="middle" fill="#000000">45</text>
<line x1="93.6" y1="490" x2="93.6" y2="493" stroke="#000000" stroke-width="0.5" />
<line x1="116" y1="490" x2="116" y2="493" stroke="#000000" stroke-width="0.5" />
<line x1="138.39999999999998" y1="490" x2="138.39999999999998" y2="493" stroke="#000000" stroke-width="0.5" />
<line x1="160.8" y1="490" x2="160.8" y2="493" stroke="#000000" stroke-width="0.5" />
<line x1="205.6" y1="490" x2="205.6" y2="493" stroke="#000000" stroke-width="0.5" />
<line x1="228" y1="490" x2="228" y2="493" stroke="#000000" stroke-width="0.5" />
<line x1="250.39999999999998" y1="490" x2="250.39999999999998" y2="493" stroke="#000000" stroke-width="0.5" />
<line x1="272.79999999999995" y1="490" x2="272.79999999999995" y2="493" stroke="#000000" stroke-width="0.5" />
<line x1="317.59999999999997" y1="490" x2="317.59999999999997" y2="493" stroke="#000000" stroke-width="0.5" />
<line x1="340" y1="490" x2="340" y2="493" stroke="#000000" stroke-width="0.5" />
<line x1="362.4" y1="490" x2="362.4" y2="493" stroke="#000000" stroke-width="0.5" />
<line x1="384.79999999999995" y1="490" x2="384.79999999999995" y2="493" stroke="#000000" stroke-width="0.5" />
<line x1="429.59999999999997" y1="490" x2="429.59999999999997" y2="493" stroke="#000000" stroke-width="0.5" />
<line x1="452" y1="490" x2="452" y2="493" stroke="#000000" stroke-width="0.5" />
<line x1="474.4" y1="490" x2="474.4" y2="493" stroke="#000000" stroke-width="0.5" />
<line x1="496.79999999999995" y1="490" x2="496.79999999999995" y2="493" stroke="#000000" stroke-width="0.5" />
<line x1="541.5999999999999" y1="490" x2="541.5999999999999" y2="493" stroke="#000000" stroke-width="0.5" />
<line x1="564" y1="490" x2="564" y2="493" stroke="#000000" stroke-width="0.5" />
<line x1="586.4" y1="490" x2="586.4" y2="493" stroke="#000000" stroke-width="0.5" />
<line x1="608.8" y1="490" x2="608.8" y2="493" stroke="#000000" stroke-width="0.5" />
<line x1="653.5999999999999" y1="490" x2="653.5999999999999" y2="493" stroke="#000000" stroke-width="0.5" />
<line x1="676" y1="490" x2="676" y2="493" stroke="#000000" stroke-width="0.5" />
<line x1="698.4" y1="490" x2="698.4" y2="493" stroke="#000000" stroke-width="0.5" />
<line x1="720.8" y1="490" x2="720.8" y2="493" stroke="#000000" stroke-width="0.5" />
<line x1="765.5999999999999" y1="490" x2="765.5999999999999" y2="493" stroke="#000000" stroke-width="0.5" />
<line x1="788" y1="490" x2="788" y2="493" stroke="#000000" stroke-width="0.5" />
<line x1="810.4" y1="490" x2="810.4" y2="493" stroke="#000000" stroke-width="0.5" />
<line x1="832.8" y1="490" x2="832.8" y2="493" stroke="#000000" stroke-width="0.5" />
<line x1="877.5999999999999" y1="490" x2="877.5999999999999" y2="493" stroke="#000000" stroke-width="0.5" />
<line x1="900" y1="490" x2="900" y2="493" stroke="#000000" stroke-width="0.5" />
<line x1="922.4" y1="490" x2="922.4" y2="493" stroke="#000000" stroke-width="0.5" />
<line x1="944.8" y1="490" x2="944.8" y2="493" stroke="#000000" stroke-width="0.5" />
<line x1="989.5999999999999" y1="490" x2="989.5999999999999" y2="493" stroke="#000000" stroke-width="0.5" />
<line x1="1011.9999999999999" y1="490" x2="1011.9999999999999" y2="493" stroke="#000000" stroke-width="0.5" />
<line x1="1034.4" y1="490" x2="1034.4" y2="493" stroke="#000000" stroke-width="0.5" />
<line x1="1056.8" y1="490" x2="1056.8" y2="493" stroke="#000000" stroke-width="0.5" />
<line x1="1101.6" y1="490" x2="1101.6" y2="493" stroke="#000000" stroke-width="0.5" />
<line x1="1124" y1="490" x2="1124" y2="493" stroke="#000000" stroke-width="0.5" />
<line x1="1146.3999999999999" y1="490" x2="1146.3999999999999" y2="493" stroke="#000000" stroke-width="0.5" />
<line x1="1168.8" y1="490" x2="1168.8" y2="493" stroke="#000000" stroke-width="0.5" />
<line x1="55" y1="434.5379728837256" x2="60" y2="434.5379728837256" stroke="#000000" stroke-width="1" />
<text x="52" y="438.5379728837256" font-family="sans-serif" font-size="13" text-anchor="end" fill="#000000">92</text>
<line x1="55" y1="377.54587688102947" x2="60" y2="377.54587688102947" stroke="#000000" stroke-width="1" />
<text x="52" y="381.54587688102947" font-family="sans-serif" font-size="13" text-anchor="end" fill="#000000">94</text>
<line x1="55" y1="320.5537808783338" x2="60" y2="320.5537808783338" stroke="#000000" stroke-width="1" />
<text x="52" y="324.5537808783338" font-family="sans-serif" font-size="13" text-anchor="end" fill="#000000">96</text>
<line x1="55" y1="263.56168487563764" x2="60" y2="263.56168487563764" stroke="#000000" stroke-width="1" />
<text x="52" y="267.56168487563764" font-family="sans-serif" font-size="13" text-anchor="end" fill="#000000">98</text>
<line x1="55" y1="206.56958887294195" x2="60" y2="206.56958887294195" stroke="#000000" stroke-width="1" />
<text x="52" y="210.56958887294195" font-family="sans-serif" font-size="13" text-anchor="end" fill="#000000">100</text>
<line x1="55" y1="149.5774928702458" x2="60" y2="149.5774928702458" stroke="#000000" stroke-width="1" />
<text x="52" y="153.5774928702458" font-family="sans-serif" font-size="13" text-anchor="end" fill="#000000">102</text>
<line x1="55" y1="92.58539686754966" x2="60" y2="92.58539686754966" stroke="#000000" stroke-width="1" />
<text x="52" y="96.58539686754966" font-family="sans-serif" font-size="13" text-anchor="end" fill="#000000">104</text>
<line x1="57" y1="480.13164968588217" x2="60" y2="480.13164968588217" stroke="#000000" stroke-width="0.5" />
<line x1="57" y1="468.7332304853435" x2="60" y2="468.7332304853435" stroke="#000000" stroke-width="0.5" />
<line x1="57" y1="457.3348112848039" x2="60" y2="457.3348112848039" stroke="#000000" stroke-width="0.5" />
<line x1="57" y1="445.93639208426475" x2="60" y2="445.93639208426475" stroke="#000000" stroke-width="0.5" />
<line x1="57" y1="423.139553683186" x2="60" y2="423.139553683186" stroke="#000000" stroke-width="0.5" />
<line x1="57" y1="411.74113448264734" x2="60" y2="411.74113448264734" stroke="#000000" stroke-width="0.5" />
<line x1="57" y1="400.34271528210775" x2="60" y2="400.34271528210775" stroke="#000000" stroke-width="0.5" />
<line x1="57" y1="388.94429608156906" x2="60" y2="388.94429608156906" stroke="#000000" stroke-width="0.5" />
<line x1="57" y1="366.14745768049033" x2="60" y2="366.14745768049033" stroke="#000000" stroke-width="0.5" />
<line x1="57" y1="354.7490384799512" x2="60" y2="354.7490384799512" stroke="#000000" stroke-width="0.5" />
<line x1="57" y1="343.35061927941206" x2="60" y2="343.35061927941206" stroke="#000000" stroke-width="0.5" />
<line x1="57" y1="331.9522000788729" x2="60" y2="331.9522000788729" stroke="#000000" stroke-width="0.5" />
<line x1="57" y1="309.1553616777942" x2="60" y2="309.1553616777942" stroke="#000000" stroke-width="0.5" />
<line x1="57" y1="297.7569424772555" x2="60" y2="297.7569424772555" stroke="#000000" stroke-width="0.5" />
<line x1="57" y1="286.3585232767159" x2="60" y2="286.3585232767159" stroke="#000000" stroke-width="0.5" />
<line x1="57" y1="274.96010407617723" x2="60" y2="274.96010407617723" stroke="#000000" stroke-width="0.5" />
<line x1="57" y1="252.1632656750985" x2="60" y2="252.1632656750985" stroke="#000000" stroke-width="0.5" />
<line x1="57" y1="240.76484647455936" x2="60" y2="240.76484647455936" stroke="#000000" stroke-width="0.5" />
<line x1="57" y1="229.36642727402023" x2="60" y2="229.36642727402023" stroke="#000000" stroke-width="0.5" />
<line x1="57" y1="217.9680080734811" x2="60" y2="217.9680080734811" stroke="#000000" stroke-width="0.5" />
<line x1="57" y1="195.17116967240236" x2="60" y2="195.17116967240236" stroke="#000000" stroke-width="0.5" />
<line x1="57" y1="183.77275047186322" x2="60" y2="183.77275047186322" stroke="#000000" stroke-width="0.5" />
<line x1="57" y1="172.37433127132408" x2="60" y2="172.37433127132408" stroke="#000000" stroke-width="0.5" />
<line x1="57" y1="160.97591207078494" x2="60" y2="160.97591207078494" stroke="#000000" stroke-width="0.5" />
<line x1="57" y1="138.1790736697062" x2="60" y2="138.1790736697062" stroke="#000000" stroke-width="0.5" />
<line x1="57" y1="126.78065446916753" x2="60" y2="126.78065446916753" stroke="#000000" stroke-width="0.5" />
<line x1="57" y1="115.38223526862794" x2="60" y2="115.38223526862794" stroke="#000000" stroke-width="0.5" />
<line x1="57" y1="103.98381606808925" x2="60" y2="103.98381606808925" stroke="#000000" stroke-width="0.5" />
<line x1="57" y1="81.18697766701052" x2="60" y2="81.18697766701052" stroke="#000000" stroke-width="0.5" />
<polygon points="496.79999999999995,187.7579208297637 519.1999999999999,192.85015448591133 541.6,195.45215459745285 564,190.10214608529242 586.4,200.64983600348364 608.8,207.4569430531243 631.1999999999999,208.12828154007374 653.5999999999999,208.0870442314006 676,208.24956835358418 698.4,207.03423719506645 720.8,197.12574623441486 743.1999999999999,186.4283992372983 765.5999999999999,172.64401920871438 788,169.93037972505908 810.4,166.16002481663244 832.8,169.8206646613484 855.1999999999999,172.53571457851103 877.5999999999999,172.38255496187796 900,172.53960980259566 922.4,169.55577145970017 944.8,158.80283160631257 967.1999999999999,152.04060127516894 989.5999999999999,153.01254512740206 1011.9999999999999,155.73889943242543 1034.3999999999999,143.97620816283936 1056.8,145.0710022302338 1079.2,139.91183082580335 1101.6,142.4876067400943 1124,149.4213733844549 1146.3999999999999,147.26300628503805 1168.8,148.02898447988628 1168.8,301.2659749060067 1146.3999999999999,298.97962237925867 1124,304.8087571049623 1101.6,320.9931810243879 1079.1999999999998,333.9435104614763 1056.8,339.27287370144495 1034.4,353.16666820462115 1011.9999999999999,357.72299587310135 989.5999999999999,376.2870105953202 967.1999999999999,384.91069175267967 944.8,387.0363434010028 922.4,389.81838620596955 900,390.6946827463021 877.5999999999999,390.2089665227877 855.1999999999999,390.429635158127 832.8,389.73581612419 810.4,390.2623812503339 788,389.8230707982475 765.5999999999999,388.5145125048466 743.1999999999999,380.9784077830136 720.8,376.97713338323547 698.4,376.115284577028 676,381.4612742101858 653.5999999999999,378.7019547881591 631.1999999999999,377.69742756555434 608.8,377.3055845576382 586.4,373.20373968836657 564,372.2701717055497 541.5999999999999,355.94715250408717 519.2,347.1436952041395 496.79999999999995,344.56005336548924" fill="#1F77B4" fill-opacity="0.14901960784313725" />
<polyline points="496.79999999999995,187.7579208297637 519.1999999999999,192.85015448591133 541.6,195.45215459745285 564,190.10214608529242 586.4,200.64983600348364 608.8,207.4569430531243 631.1999999999999,208.12828154007374 653.5999999999999,208.0870442314006 676,208.24956835358418 698.4,207.03423719506645 720.8,197.12574623441486 743.1999999999999,186.4283992372983 765.5999999999999,172.64401920871438 788,169.93037972505908 810.4,166.16002481663244 832.8,169.8206646613484 855.1999999999999,172.53571457851103 877.5999999999999,172.38255496187796 900,172.53960980259566 922.4,169.55577145970017 944.8,158.80283160631257 967.1999999999999,152.04060127516894 989.5999999999999,153.01254512740206 1011.9999999999999,155.73889943242543 1034.3999999999999,143.97620816283936 1056.8,145.0710022302338 1079.2,139.91183082580335 1101.6,142.4876067400943 1124,149.4213733844549 1146.3999999999999,147.26300628503805 1168.8,148.02898447988628" fill="none" stroke="#1F77B4" stroke-width="0" />
<line x1="71.2" y1="232.59755291402917" x2="71.2" y2="149.29074026682792" stroke="#FF0000" stroke-width="1" />
<rect x="64.48" y="206.56958887294195" width="13.439999999999998" height="16.774567408058374" fill="#FF0000" stroke="#FF0000" stroke-width="1" />
<line x1="93.6" y1="270.75060560509064" x2="93.6" y2="201.17731770347245" stroke="#FF0000" stroke-width="1" />
<rect x="86.88" y="223.34415628100032" width="13.439999999999998" height="3.1742886233205354" fill="#FF0000" stroke="#FF0000" stroke-width="1" />
<line x1="116" y1="299.5980024987575" x2="116" y2="174.8680311893918" stroke="#FF0000" stroke-width="1" />
<rect x="109.28" y="226.51844490432086" width="13.439999999999998" height="39.359473777220046" fill="#FF0000" stroke="#FF0000" stroke-width="1" />
<line x1="138.39999999999998" y1="361.97152105008445" x2="138.39999999999998" y2="164.41681522497174" stroke="#008000" stroke-width="1" />
<rect x="131.68" y="208.08547219110096" width="13.439999999999998" height="57.79244649043994" fill="#008000" stroke="#008000" stroke-width="1" />
<line x1="160.8" y1="286.2147421717291" x2="160.8" y2="154.90555057235815" stroke="#FF0000" stroke-width="1" />
<rect x="154.07999999999998" y="208.08547219110096" width="13.439999999999998" height="21.71686433418381" fill="#FF0000" stroke="#FF0000" stroke-width="1" />
<line x1="183.2" y1="334.7036299043184" x2="183.2" y2="158.164783595902" stroke="#FF0000" stroke-width="1" />
<rect x="176.48" y="229.80233652528477" width="13.439999999999998" height="51.95205467480628" fill="#FF0000" stroke="#FF0000" stroke-width="1" />
<line x1="205.6" y1="313.6121747431898" x2="205.6" y2="236.96149700980823" stroke="#FF0000" stroke-width="1" />
<rect x="198.88" y="281.75439120009105" width="13.439999999999998" height="29.66469973634321" fill="#FF0000" stroke="#FF0000" stroke-width="1" />
<line x1="228" y1="329.56592203375794" x2="228" y2="274.55142747090804" stroke="#008000" stroke-width="1" />
<rect x="221.28" y="298.61428713722853" width="13.439999999999998" height="12.804803799205729" fill="#008000" stroke="#008000" stroke-width="1" />
<line x1="250.39999999999998" y1="357.8018418199649" x2="250.39999999999998" y2="251.69225438729836" stroke="#FF0000" stroke-width="1" />
<rect x="243.67999999999998" y="298.61428713722853" width="13.440000000000026" height="40.8754895123152" fill="#FF0000" stroke="#FF0000" stroke-width="1" />
<line x1="272.79999999999995" y1="370.9120863022058" x2="272.79999999999995" y2="261.5171402738574" stroke="#008000" stroke-width="1" />
<rect x="266.08" y="308.5828043606325" width="13.439999999999998" height="30.90697228891122" fill="#008000" stroke="#008000" stroke-width="1" />
<line x1="295.2" y1="363.2419252237378" x2="295.2" y2="216.43308299771206" stroke="#008000" stroke-width="1" />
<rect x="288.47999999999996" y="267.4920000221955" width="13.439999999999998" height="41.09080433843701" fill="#008000" stroke="#008000" stroke-width="1" />
<line x1="317.59999999999997" y1="340.2093806844796" x2="317.59999999999997" y2="209.9286527805748" stroke="#008000" stroke-width="1" />
<rect x="310.88" y="225.85491733422896" width="13.439999999999998" height="41.63708268796654" fill="#008000" stroke="#008000" stroke-width="1" />
<line x1="340" y1="259.3618609755563" x2="340" y2="198.32959191613327" stroke="#008000" stroke-width="1" />
<rect x="333.28" y="209.2896811730484" width="13.439999999999998" height="16.565236161180565" fill="#008000" stroke="#008000" stroke-width="1" />
<line x1="362.4" y1="313.82996895216684" x2="362.4" y2="144.7927996083663" stroke="#FF0000" stroke-width="1" />
<rect x="355.67999999999995" y="209.2896811730484" width="13.440000000000055" height="51.34035134243095" fill="#FF0000" stroke="#FF0000" stroke-width="1" />
<line x1="384.79999999999995" y1="345.3584641674247" x2="384.79999999999995" y2="218.54170157885892" stroke="#008000" stroke-width="1" />
<rect x="378.08" y="226.24816768501933" width="13.439999999999998" height="34.38186483046002" fill="#008000" stroke="#008000" stroke-width="1" />
<line x1="407.2" y1="279.06126075250904" x2="407.2" y2="173.21987002809783" stroke="#FF0000" stroke-width="1" />
<rect x="400.47999999999996" y="226.24816768501933" width="13.440000000000055" height="21.11347986768442" fill="#FF0000" stroke="#FF0000" stroke-width="1" />
<line x1="429.59999999999997" y1="310.4855641283384" x2="429.59999999999997" y2="172.45565373323552" stroke="#FF0000" stroke-width="1" />
<rect x="422.87999999999994" y="247.36164755270374" width="13.440000000000055" height="40.81458688340763" fill="#FF0000" stroke="#FF0000" stroke-width="1" />
<line x1="452" y1="347.1043341490981" x2="452" y2="264.3321166879764" stroke="#FF0000" stroke-width="1" />
<rect x="445.28" y="288.1762344361114" width="13.439999999999998" height="3.999228571171898" fill="#FF0000" stroke="#FF0000" stroke-width="1" />
<line x1="474.4" y1="345.54127708175974" x2="474.4" y2="230.97849078771424" stroke="#008000" stroke-width="1" />
<rect x="467.67999999999995" y="284.9924353282554" width="13.440000000000055" height="7.183027679027873" fill="#008000" stroke="#008000" stroke-width="1" />
<line x1="496.79999999999995" y1="337.83476313531264" x2="496.79999999999995" y2="242.3523482242599" stroke="#FF0000" stroke-width="1" />
<rect x="490.08" y="284.9924353282554" width="13.439999999999998" height="42.47804870277105" fill="#FF0000" stroke="#FF0000" stroke-width="1" />
<line x1="519.2" y1="388.50867158541814" x2="519.2" y2="277.0778459111234" stroke="#008000" stroke-width="1" />
<rect x="512.48" y="300.102911228978" width="13.43999999999994" height="27.36757280204847" fill="#008000" stroke="#008000" stroke-width="1" />
<line x1="541.5999999999999" y1="395.5077614929919" x2="541.5999999999999" y2="207.7308062549805" stroke="#FF0000" stroke-width="1" />
<rect x="534.8799999999999" y="300.102911228978" width="13.440000000000055" height="40.47010779024049" fill="#FF0000" stroke="#FF0000" stroke-width="1" />
<line x1="564" y1="406.5092497818732" x2="564" y2="286.50937141614395" stroke="#FF0000" stroke-width="1" />
<rect x="557.28" y="340.57301901921846" width="13.440000000000055" height="35.035006555341624" fill="#FF0000" stroke="#FF0000" stroke-width="1" />
<line x1="586.4" y1="470.90909090909054" x2="586.4" y2="276.03148515042403" stroke="#008000" stroke-width="1" />
<rect x="579.68" y="322.8980512011767" width="13.440000000000055" height="52.709974373383375" fill="#008000" stroke="#008000" stroke-width="1" />
<line x1="608.8" y1="384.73014337782024" x2="608.8" y2="276.94953968964" stroke="#FF0000" stroke-width="1" />
<rect x="602.0799999999999" y="322.8980512011767" width="13.440000000000055" height="15.99380451323168" fill="#FF0000" stroke="#FF0000" stroke-width="1" />
<line x1="631.1999999999999" y1="396.2010279759552" x2="631.1999999999999" y2="254.51969826063623" stroke="#008000" stroke-width="1" />
<rect x="624.4799999999999" y="292.38620614875026" width="13.440000000000055" height="46.50564956565813" fill="#008000" stroke="#008000" stroke-width="1" />
<line x1="653.5999999999999" y1="357.52849227469096" x2="653.5999999999999" y2="216.21082456903468" stroke="#FF0000" stroke-width="1" />
<rect x="646.88" y="292.38620614875026" width="13.43999999999994" height="28.665783926995573" fill="#FF0000" stroke="#FF0000" stroke-width="1" />
<line x1="676" y1="377.9910609748117" x2="676" y2="268.3846788575711" stroke="#FF0000" stroke-width="1" />
<rect x="669.28" y="321.05199007574583" width="13.440000000000055" height="6.780732503590116" fill="#FF0000" stroke="#FF0000" stroke-width="1" />
<line x1="698.4" y1="408.38184726196005" x2="698.4" y2="220.1275935707672" stroke="#008000" stroke-width="1" />
<rect x="691.68" y="273.87656873278456" width="13.440000000000055" height="53.95615384655139" fill="#008000" stroke="#008000" stroke-width="1" />
<line x1="720.8" y1="363.1213079922609" x2="720.8" y2="209.21528834037008" stroke="#008000" stroke-width="1" />
<rect x="714.0799999999999" y="218.11638281619344" width="13.440000000000055" height="55.760185916591126" fill="#008000" stroke="#008000" stroke-width="1" />
<line x1="743.1999999999999" y1="276.06867486884767" x2="743.1999999999999" y2="171.98387545947298" stroke="#008000" stroke-width="1" />
<rect x="736.4799999999999" y="200.5312740488148" width="13.440000000000055" height="17.585108767378642" fill="#008000" stroke="#008000" stroke-width="1" />
<line x1="765.5999999999999" y1="267.3954923957508" x2="765.5999999999999" y2="143.54651924448626" stroke="#008000" stroke-width="1" />
<rect x="758.88" y="163.37216426671193" width="13.43999999999994" height="37.15910978210286" fill="#008000" stroke="#008000" stroke-width="1" />
<line x1="788" y1="240.18501917063168" x2="788" y2="101.30946332873964" stroke="#FF0000" stroke-width="1" />
<rect x="781.28" y="163.37216426671193" width="13.43999999999994" height="31.86670500379887" fill="#FF0000" stroke="#FF0000" stroke-width="1" />
<line x1="810.4" y1="230.30024475012215" x2="810.4" y2="109.88511597117486" stroke="#FF0000" stroke-width="1" />
<rect x="803.6800000000001" y="195.2388692705108" width="13.439999999999827" height="32.08071868157049" fill="#FF0000" stroke="#FF0000" stroke-width="1" />
<line x1="832.8" y1="267.36411947692295" x2="832.8" y2="179.17358126600266" stroke="#FF0000" stroke-width="1" />
<rect x="826.08" y="227.3195879520813" width="13.439999999999827" height="30.269326918656134" fill="#FF0000" stroke="#FF0000" stroke-width="1" />
<line x1="855.1999999999999" y1="308.2385243397848" x2="855.1999999999999" y2="183.45693207623208" stroke="#FF0000" stroke-width="1" />
<rect x="848.48" y="257.5889148707374" width="13.439999999999827" height="23.861422192965165" fill="#FF0000" stroke="#FF0000" stroke-width="1" />
<line x1="877.5999999999999" y1="322.1989910340985" x2="877.5999999999999" y2="234.9545020963119" stroke="#FF0000" stroke-width="1" />
<rect x="870.88" y="281.4503370637026" width="13.43999999999994" height="2.987614852680508" fill="#FF0000" stroke="#FF0000" stroke-width="1" />
<line x1="900" y1="316.345761073992" x2="900" y2="221.45604005160567" stroke="#FF0000" stroke-width="1" />
<rect x="893.28" y="284.4379519163831" width="13.43999999999994" height="14.165221733227554" fill="#FF0000" stroke="#FF0000" stroke-width="1" />
<line x1="922.4" y1="385.7419368301835" x2="922.4" y2="212.59181029108504" stroke="#008000" stroke-width="1" />
<rect x="915.6800000000001" y="246.39108649596756" width="13.439999999999827" height="52.2120871536431" fill="#008000" stroke="#008000" stroke-width="1" />
<line x1="944.8" y1="327.51178555972047" x2="944.8" y2="187.64508549957236" stroke="#008000" stroke-width="1" />
<rect x="938.08" y="192.1206574474868" width="13.439999999999827" height="54.270429048480764" fill="#008000" stroke="#008000" stroke-width="1" />
<line x1="967.1999999999999" y1="261.4575157298359" x2="967.1999999999999" y2="120.62187513178242" stroke="#FF0000" stroke-width="1" />
<rect x="960.48" y="192.1206574474868" width="13.439999999999827" height="19.103433986814707" fill="#FF0000" stroke="#FF0000" stroke-width="1" />
<line x1="989.5999999999999" y1="297.1248993227532" x2="989.5999999999999" y2="141.38876923946418" stroke="#FF0000" stroke-width="1" />
<rect x="982.88" y="211.2240914343015" width="13.439999999999827" height="52.83155453366135" fill="#FF0000" stroke="#FF0000" stroke-width="1" />
<line x1="1011.9999999999999" y1="349.4248247436535" x2="1011.9999999999999" y2="193.81193516073108" stroke="#008000" stroke-width="1" />
<rect x="1005.28" y="217.2314214025987" width="13.43999999999994" height="46.82422456536415" fill="#008000" stroke="#008000" stroke-width="1" />
<line x1="1034.4" y1="328.3605934610928" x2="1034.4" y2="142.82695901378293" stroke="#008000" stroke-width="1" />
<rect x="1027.6799999999998" y="159.70786182051916" width="13.440000000000055" height="57.52355958207954" fill="#008000" stroke="#008000" stroke-width="1" />
<line x1="1056.8" y1="248.35949945230504" x2="1056.8" y2="89.09090909090901" stroke="#FF0000" stroke-width="1" />
<rect x="1050.08" y="159.70786182051916" width="13.440000000000055" height="51.193989536068784" fill="#FF0000" stroke="#FF0000" stroke-width="1" />
<line x1="1079.1999999999998" y1="255.10249766648394" x2="1079.1999999999998" y2="157.7579692458994" stroke="#008000" stroke-width="1" />
<rect x="1072.48" y="187.50085970476403" width="13.439999999999827" height="23.400991651823915" fill="#008000" stroke="#008000" stroke-width="1" />
<line x1="1101.6" y1="253.99087192664774" x2="1101.6" y2="123.20732401049372" stroke="#FF0000" stroke-width="1" />
<rect x="1094.88" y="187.50085970476403" width="13.439999999999827" height="29.80559514300421" fill="#FF0000" stroke="#FF0000" stroke-width="1" />
<line x1="1124" y1="241.00030982004864" x2="1124" y2="161.37563934089667" stroke="#FF0000" stroke-width="1" />
<rect x="1117.28" y="217.30645484776824" width="13.439999999999827" height="18.01969498091512" fill="#FF0000" stroke="#FF0000" stroke-width="1" />
<line x1="1146.3999999999999" y1="332.4420066267453" x2="1146.3999999999999" y2="177.42401497096444" stroke="#008000" stroke-width="1" />
<rect x="1139.68" y="194.00155048157967" width="13.439999999999827" height="41.324599347103685" fill="#008000" stroke="#008000" stroke-width="1" />
<line x1="1168.8" y1="268.64348130942744" x2="1168.8" y2="106.34506755024677" stroke="#FF0000" stroke-width="1" />
<rect x="1162.08" y="194.00155048157967" width="13.439999999999827" height="54.6381395505764" fill="#FF0000" stroke="#FF0000" stroke-width="1" />
<polyline points="496.79999999999995,266.1589870976264 519.1999999999999,269.9969248450255 541.6,275.69965355077005 564,281.18615889542104 586.4,286.92678784592516 608.8,292.3812638053812 631.1999999999999,292.91285455281394 653.5999999999999,293.39449950977996 676,294.855421281885 698.4,291.5747608860472 720.8,287.05143980882525 743.1999999999999,283.70340351015597 765.5999999999999,280.5792658567805 788,279.87672526165323 810.4,278.2112030334831 832.8,279.7782403927692 855.1999999999999,281.482674868319 877.5999999999999,281.29576074233285 900,281.61714627444894 922.4,279.6870788328348 944.8,272.9195875036576 967.1999999999999,268.47564651392423 989.5999999999999,264.64977786136114 1011.9999999999999,256.73094765276335 1034.3999999999999,248.57143818373032 1056.8,242.17193796583942 1079.2,236.92767064363994 1101.6,231.74039388224114 1124,227.1150652447086 1146.3999999999999,223.12131433214836 1168.8,224.6474796929465" fill="none" stroke="#1F77B4" stroke-width="1.5" />
<g class="spine">
<line x1="60" y1="490" x2="1180" y2="490" stroke="#000000" stroke-width="1" />
</g>
<g class="spine">
<line x1="60" y1="70" x2="1180" y2="70" stroke="#000000" stroke-width="1" />
</g>
<g class="spine">
<line x1="60" y1="70" x2="60" y2="490" stroke="#000000" stroke-width="1" />
</g>
<g class="spine">
<line x1="1180" y1="70" x2="1180" y2="490" stroke="#000000" stroke-width="1" />
</g>
<rect x="1083.22" y="80" width="86.78" height="28" fill="#FFFFFF" fill-opacity="0.8627450980392157" stroke="#000000" stroke-width="0.5" />
<g class="legend">
<rect x="1091.22" y="88" width="12" height="12" fill="#1F77B4" />
<text x="1109.22" y="99" font-family="sans-serif" font-size="13" text-anchor="start" fill="#000000">BB(20,2)</text>
</g>
<text x="15" y="280" font-family="sans-serif" font-size="13" text-anchor="middle" fill="#000000">Price</text>
<rect x="60" y="530" width="1120" height="105" fill="#FFFFFF" />
<line x1="71.2" y1="530" x2="71.2" y2="635" stroke="#B0B0B0" stroke-width="0.8" />
<line x1="183.2" y1="530" x2="183.2" y2="635" stroke="#B0B0B0" stroke-width="0.8" />
<line x1="295.2" y1="530" x2="295.2" y2="635" stroke="#B0B0B0" stroke-width="0.8" />
<line x1="407.2" y1="530" x2="407.2" y2="635" stroke="#B0B0B0" stroke-width="0.8" />
<line x1="519.2" y1="530" x2="519.2" y2="635" stroke="#B0B0B0" stroke-width="0.8" />
<line x1="631.1999999999999" y1="530" x2="631.1999999999999" y2="635" stroke="#B0B0B0" stroke-width="0.8" />
<line x1="743.1999999999999" y1="530" x2="743.1999999999999" y2="635" stroke="#B0B0B0" stroke-width="0.8" />
<line x1="855.1999999999999" y1="530" x2="855.1999999999999" y2="635" stroke="#B0B0B0" stroke-width="0.8" />
<line x1="967.1999999999999" y1="530" x2="967.1999999999999" y2="635" stroke="#B0B0B0" stroke-width="0.8" />
<line x1="1079.1999999999998" y1="530" x2="1079.1999999999998" y2="635" stroke="#B0B0B0" stroke-width="0.8" />
<line x1="60" y1="630.2272727272727" x2="1180" y2="630.2272727272727" stroke="#B0B0B0" stroke-width="0.8" />
<line x1="60" y1="566.5627722604958" x2="1180" y2="566.5627722604958" stroke="#B0B0B0" stroke-width="0.8" />
<line x1="71.2" y1="635" x2="71.2" y2="640" stroke="#000000" stroke-width="1" />
<text x="71.2" y="650" font-family="sans-serif" font-size="13" text-anchor="middle" fill="#000000">0</text>
<line x1="183.2" y1="635" x2="183.2" y2="640" stroke="#000000" stroke-width="1" />
<text x="183.2" y="650" font-family="sans-serif" font-size="13" text-anchor="middle" fill="#000000">5</text>
<line x1="295.2" y1="635" x2="295.2" y2="640" stroke="#000000" stroke-width="1" />
<text x="295.2" y="650" font-family="sans-serif" font-size="13" text-anchor="middle" fill="#000000">10</text>
<line x1="407.2" y1="635" x2="407.2" y2="640" stroke="#000000" stroke-width="1" />
<text x="407.2" y="650" font-family="sans-serif" font-size="13" text-anchor="middle" fill="#000000">15</text>
<line x1="519.2" y1="635" x2="519.2" y2="640" stroke="#000000" stroke-width="1" />
<text x="519.2" y="650" font-family="sans-serif" font-size="13" text-anchor="middle" fill="#000000">20</text>
<line x1="631.1999999999999" y1="635" x2="631.1999999999999" y2="640" stroke="#000000" stroke-width="1" />
<text x="631.1999999999999" y="650" font-family="sans-serif" font-size="13" text-anchor="middle" fill="#000000">25</text>
<line x1="743.1999999999999" y1="635" x2="743.1999999999999" y2="640" stroke="#000000" stroke-width="1" />
<text x="743.1999999999999" y="650" font-family="sans-serif" font-size="13" text-anchor="middle" fill="#000000">30</text>
<line x1="855.1999999999999" y1="635" x2="855.1999999999999" y2="640" stroke="#000000" stroke-width="1" />
<text x="855.1999999999999" y="650" font-family="sans-serif" font-size="13" text-anchor="middle" fill="#000000">35</text>
<line x1="967.1999999999999" y1="635" x2="967.1999999999999" y2="640" stroke="#000000" stroke-width="1" />
<text x="967.1999999999999" y="650" font-family="sans-serif" font-size="13" text-anchor="middle" fill="#000000">40</text>
<line x1="1079.1999999999998" y1="635" x2="1079.1999999999998" y2="640" stroke="#000000" stroke-width="1" />
<text x="1079.1999999999998" y="650" font-family="sans-serif" font-size="13" text-anchor="middle" fill="#000000">45</text>
<line x1="93.6" y1="635" x2="93.6" y2="638" stroke="#000000" stroke-width="0.5" />
<line x1="116" y1="635" x2="116" y2="638" stroke="#000000" stroke-width="0.5" />
<line x1="138.39999999999998" y1="635" x2="138.39999999999998" y2="638" stroke="#000000" stroke-width="0.5" />
<line x1="160.8" y1="635" x2="160.8" y2="638" stroke="#000000" stroke-width="0.5" />
<line x1="205.6" y1="635" x2="205.6" y2="638" stroke="#000000" stroke-width="0.5" />
<line x1="228" y1="635" x2="228" y2="638" stroke="#000000" stroke-width="0.5" />
<line x1="250.39999999999998" y1="635" x2="250.39999999999998" y2="638" stroke="#000000" stroke-width="0.5" />
<line x1="272.79999999999995" y1="635" x2="272.79999999999995" y2="638" stroke="#000000" stroke-width="0.5" />
<line x1="317.59999999999997" y1="635" x2="317.59999999999997" y2="638" stroke="#000000" stroke-width="0.5" />
<line x1="340" y1="635" x2="340" y2="638" stroke="#000000" stroke-width="0.5" />
<line x1="362.4" y1="635" x2="362.4" y2="638" stroke="#000000" stroke-width="0.5" />
<line x1="384.79999999999995" y1="635" x2="384.79999999999995" y2="638" stroke="#000000" stroke-width="0.5" />
<line x1="429.59999999999997" y1="635" x2="429.59999999999997" y2="638" stroke="#000000" stroke-width="0.5" />
<line x1="452" y1="635" x2="452" y2="638" stroke="#000000" stroke-width="0.5" />
<line x1="474.4" y1="635" x2="474.4" y2="638" stroke="#000000" stroke-width="0.5" />
<line x1="496.79999999999995" y1="635" x2="496.79999999999995" y2="638" stroke="#000000" stroke-width="0.5" />
<line x1="541.5999999999999" y1="635" x2="541.5999999999999" y2="638" stroke="#000000" stroke-width="0.5" />
<line x1="564" y1="635" x2="564" y2="638" stroke="#000000" stroke-width="0.5" />
<line x1="586.4" y1="635" x2="586.4" y2="638" stroke="#000000" stroke-width="0.5" />
<line x1="608.8" y1="635" x2="608.8" y2="638" stroke="#000000" stroke-width="0.5" />
<line x1="653.5999999999999" y1="635" x2="653.5999999999999" y2="638" stroke="#000000" stroke-width="0.5" />
<line x1="676" y1="635" x2="676" y2="638" stroke="#000000" stroke-width="0.5" />
<line x1="698.4" y1="635" x2="698.4" y2="638" stroke="#000000" stroke-width="0.5" />
<line x1="720.8" y1="635" x2="720.8" y2="638" stroke="#000000" stroke-width="0.5" />
<line x1="765.5999999999999" y1="635" x2="765.5999999999999" y2="638" stroke="#000000" stroke-width="0.5" />
<line x1="788" y1="635" x2="788" y2="638" stroke="#000000" stroke-width="0.5" />
<line x1="810.4" y1="635" x2="810.4" y2="638" stroke="#000000" stroke-width="0.5" />
<line x1="832.8" y1="635" x2="832.8" y2="638" stroke="#000000" stroke-width="0.5" />
<line x1="877.5999999999999" y1="635" x2="877.5999999999999" y2="638" stroke="#000000" stroke-width="0.5" />
<line x1="900" y1="635" x2="900" y2="638" stroke="#000000" stroke-width="0.5" />
<line x1="922.4" y1="635" x2="922.4" y2="638" stroke="#000000" stroke-width="0.5" />
<line x1="944.8" y1="635" x2="944.8" y2="638" stroke="#000000" stroke-width="0.5" />
<line x1="989.5999999999999" y1="635" x2="989.5999999999999" y2="638" stroke="#000000" stroke-width="0.5" />
<line x1="1011.9999999999999" y1="635" x2="1011.9999999999999" y2="638" stroke="#000000" stroke-width="0.5" />
<line x1="1034.4" y1="635" x2="1034.4" y2="638" stroke="#000000" stroke-width="0.5" />
<line x1="1056.8" y1="635" x2="1056.8" y2="638" stroke="#000000" stroke-width="0.5" />
<line x1="1101.6" y1="635" x2="1101.6" y2="638" stroke="#000000" stroke-width="0.5" />
<line x1="1124" y1="635" x2="1124" y2="638" stroke="#000000" stroke-width="0.5" />
<line x1="1146.3999999999999" y1="635" x2="1146.3999999999999" y2="638" stroke="#000000" stroke-width="0.5" />
<line x1="1168.8" y1="635" x2="1168.8" y2="638" stroke="#000000" stroke-width="0.5" />
<line x1="55" y1="630.2272727272727" x2="60" y2="630.2272727272727" stroke="#000000" stroke-width="1" />
<text x="52" y="634.2272727272727" font-family="sans-serif" font-size="13" text-anchor="end" fill="#000000">0</text>
<line x1="55" y1="566.5627722604958" x2="60" y2="566.5627722604958" stroke="#000000" stroke-width="1" />
<text x="52" y="570.5627722604958" font-family="sans-serif" font-size="13" text-anchor="end" fill="#000000">100k</text>
<line x1="57" y1="617.4943726339174" x2="60" y2="617.4943726339174" stroke="#000000" stroke-width="0.5" />
<line x1="57" y1="604.761472540562" x2="60" y2="604.761472540562" stroke="#000000" stroke-width="0.5" />
<line x1="57" y1="592.0285724472066" x2="60" y2="592.0285724472066" stroke="#000000" stroke-width="0.5" />
<line x1="57" y1="579.2956723538512" x2="60" y2="579.2956723538512" stroke="#000000" stroke-width="0.5" />
<line x1="57" y1="553.8298721671404" x2="60" y2="553.8298721671404" stroke="#000000" stroke-width="0.5" />
<line x1="57" y1="541.096972073785" x2="60" y2="541.096972073785" stroke="#000000" stroke-width="0.5" />
<rect x="62.24" y="591.8284846699497" width="17.919999999999995" height="38.39878805732303" fill="#1F77B4" />
<rect x="84.64" y="588.9377175665225" width="17.92" height="41.2895551607503" fill="#1F77B4" />
<rect x="107.03999999999999" y="565.7453597269667" width="17.92" height="64.48191300030601" fill="#1F77B4" />
<rect x="129.44" y="552.8781232654812" width="17.920000000000016" height="77.34914946179151" fill="#1F77B4" />
<rect x="151.83999999999997" y="556.9601073053595" width="17.920000000000016" height="73.2671654219132" fill="#1F77B4" />
<rect x="174.23999999999998" y="596.6669835874858" width="17.920000000000016" height="33.56028913978696" fill="#1F77B4" />
<rect x="196.64" y="584.6356148120963" width="17.920000000000016" height="45.591657915176484" fill="#1F77B4" />
<rect x="219.04" y="535.1453181572911" width="17.920000000000016" height="95.08195456998169" fill="#1F77B4" />
<rect x="241.43999999999997" y="577.7779706143716" width="17.920000000000044" height="52.44930211290114" fill="#1F77B4" />
<rect x="263.84" y="595.7157592467654" width="17.920000000000016" height="34.51151348050735" fill="#1F77B4" />
<rect x="286.24" y="539.4277099358169" width="17.91999999999996" height="90.79956279145586" fill="#1F77B4" />
<rect x="308.64" y="558.0014278133153" width="17.920000000000016" height="72.22584491395742" fill="#1F77B4" />
<rect x="331.03999999999996" y="586.7415451763023" width="17.920000000000016" height="43.48572755097041" fill="#1F77B4" />
<rect x="353.44" y="535.5309917145786" width="17.920000000000016" height="94.69628101269416" fill="#1F77B4" />
<rect x="375.84" y="586.5083654010325" width="17.920000000000016" height="43.71890732624024" fill="#1F77B4" />
<rect x="398.23999999999995" y="553.0353649286264" width="17.920000000000016" height="77.1919077986463" fill="#1F77B4" />
<rect x="420.64" y="542.3112339946779" width="17.91999999999996" height="87.91603873259487" fill="#1F77B4" />
<rect x="443.04" y="568.8771773469625" width="17.919999999999902" height="61.35009538031022" fill="#1F77B4" />
<rect x="465.44" y="590.2254463812505" width="17.91999999999996" height="40.0018263460222" fill="#1F77B4" />
<rect x="487.84000000000003" y="538.5312705971144" width="17.919999999999902" height="91.69600213015838" fill="#1F77B4" />
<rect x="510.24" y="572.9273452588498" width="17.919999999999845" height="57.29992746842299" fill="#1F77B4" />
<rect x="532.64" y="541.6989188411736" width="17.91999999999996" height="88.52835388609913" fill="#1F77B4" />
<rect x="555.04" y="559.1820524081684" width="17.91999999999996" height="71.04522031910437" fill="#1F77B4" />
<rect x="577.44" y="580.5365631605767" width="17.919999999999845" height="49.690709566696" fill="#1F77B4" />
<rect x="599.84" y="582.6628613691714" width="17.919999999999845" height="47.564411358101324" fill="#1F77B4" />
<rect x="622.24" y="580.7519973773448" width="17.91999999999996" height="49.47527534992798" fill="#1F77B4" />
<rect x="644.64" y="593.1847770421664" width="17.91999999999996" height="37.04249568510636" fill="#1F77B4" />
<rect x="667.04" y="548.8134941078878" width="17.91999999999996" height="81.41377861938497" fill="#1F77B4" />
<rect x="689.4399999999999" y="541.6849892092115" width="17.91999999999996" height="88.54228351806125" fill="#1F77B4" />
<rect x="711.84" y="584.9465321877052" width="17.919999999999845" height="45.280740539567546" fill="#1F77B4" />
<rect x="734.24" y="591.326220824805" width="17.91999999999996" height="38.90105190246777" fill="#1F77B4" />
<rect x="756.64" y="552.5130823811334" width="17.91999999999996" height="77.71419034613939" fill="#1F77B4" />
<rect x="779.04" y="561.3588484972349" width="17.91999999999996" height="68.86842423003782" fill="#1F77B4" />
<rect x="801.4399999999999" y="594.8499991380236" width="17.91999999999996" height="35.37727358924917" fill="#1F77B4" />
<rect x="823.84" y="579.8474835990365" width="17.919999999999845" height="50.37978912823621" fill="#1F77B4" />
<rect x="846.24" y="574.9987376872426" width="17.91999999999996" height="55.228535040030124" fill="#1F77B4" />
<rect x="868.64" y="534.7727272727273" width="17.91999999999996" height="95.4545454545455" fill="#1F77B4" />
<rect x="891.04" y="586.7124082250509" width="17.91999999999996" height="43.514864502221826" fill="#1F77B4" />
<rect x="913.4399999999999" y="573.7505033979515" width="17.91999999999996" height="56.4767693293212" fill="#1F77B4" />
<rect x="935.84" y="542.3292423657964" width="17.919999999999845" height="87.89803036147634" fill="#1F77B4" />
<rect x="958.24" y="541.6900796509464" width="17.919999999999845" height="88.53719307632639" fill="#1F77B4" />
<rect x="980.64" y="597.2095274313083" width="17.91999999999996" height="33.01774529596446" fill="#1F77B4" />
<rect x="1003.04" y="556.6614898566743" width="17.91999999999996" height="73.56578287059847" fill="#1F77B4" />
<rect x="1025.44" y="550.5056454993697" width="17.919999999999845" height="79.72162722790301" fill="#1F77B4" />
<rect x="1047.84" y="595.6832749551244" width="17.919999999999845" height="34.54399777214837" fill="#1F77B4" />
<rect x="1070.24" y="576.5022779652754" width="17.919999999999845" height="53.72499476199732" fill="#1F77B4" />
<rect x="1092.6399999999999" y="559.8462206243596" width="17.920000000000073" height="70.38105210291315" fill="#1F77B4" />
<rect x="1115.04" y="589.7421848517929" width="17.919999999999845" height="40.48508787547985" fill="#1F77B4" />
<rect x="1137.44" y="576.0286565152544" width="17.919999999999845" height="54.19861621201835" fill="#1F77B4" />
<rect x="1159.84" y="588.4992587547916" width="17.920000000000073" height="41.72801397248111" fill="#1F77B4" />
<g class="spine">
<line x1="60" y1="635" x2="1180" y2="635" stroke="#000000" stroke-width="1" />
</g>
<g class="spine">
<line x1="60" y1="530" x2="1180" y2="530" stroke="#000000" stroke-width="1" />
</g>
<g class="spine">
<line x1="60" y1="530" x2="60" y2="635" stroke="#000000" stroke-width="1" />
</g>
<g class="spine">
<line x1="1180" y1="530" x2="1180" y2="635" stroke="#000000" stroke-width="1" />
</g>
<text x="15" y="582.5" font-family="sans-serif" font-size="13" text-anchor="middle" fill="#000000">Volume</text>
<rect x="60" y="675" width="1120" height="175" fill="#FFFFFF" />
<line x1="71.2" y1="675" x2="71.2" y2="850" stroke="#B0B0B0" stroke-width="0.8" />
<line x1="183.2" y1="675" x2="183.2" y2="850" stroke="#B0B0B0" stroke-width="0.8" />
<line x1="295.2" y1="675" x2="295.2" y2="850" stroke="#B0B0B0" stroke-width="0.8" />
<line x1="407.2" y1="675" x2="407.2" y2="850" stroke="#B0B0B0" stroke-width="0.8" />
<line x1="519.2" y1="675" x2="519.2" y2="850" stroke="#B0B0B0" stroke-width="0.8" />
<line x1="631.1999999999999" y1="675" x2="631.1999999999999" y2="850" stroke="#B0B0B0" stroke-width="0.8" />
<line x1="743.1999999999999" y1="675" x2="743.1999999999999" y2="850" stroke="#B0B0B0" stroke-width="0.8" />
<line x1="855.1999999999999" y1="675" x2="855.1999999999999" y2="850" stroke="#B0B0B0" stroke-width="0.8" />
<line x1="967.1999999999999" y1="675" x2="967.1999999999999" y2="850" stroke="#B0B0B0" stroke-width="0.8" />
<line x1="1079.1999999999998" y1="675" x2="1079.1999999999998" y2="850" stroke="#B0B0B0" stroke-width="0.8" />
<line x1="60" y1="850" x2="1180" y2="850" stroke="#B0B0B0" stroke-width="0.8" />
<line x1="60" y1="815" x2="1180" y2="815" stroke="#B0B0B0" stroke-width="0.8" />
<line x1="60" y1="780" x2="1180" y2="780" stroke="#B0B0B0" stroke-width="0.8" />
<line x1="60" y1="745" x2="1180" y2="745" stroke="#B0B0B0" stroke-width="0.8" />
<line x1="60" y1="710" x2="1180" y2="710" stroke="#B0B0B0" stroke-width="0.8" />
<line x1="60" y1="675" x2="1180" y2="675" stroke="#B0B0B0" stroke-width="0.8" />
<line x1="71.2" y1="850" x2="71.2" y2="855" stroke="#000000" stroke-width="1" />
<text x="71.2" y="865" font-family="sans-serif" font-size="13" text-anchor="middle" fill="#000000">0</text>
<line x1="183.2" y1="850" x2="183.2" y2="855" stroke="#000000" stroke-width="1" />
<text x="183.2" y="865" font-family="sans-serif" font-size="13" text-anchor="middle" fill="#000000">5</text>
<line x1="295.2" y1="850" x2="295.2" y2="855" stroke="#000000" stroke-width="1" />
<text x="295.2" y="865" font-family="sans-serif" font-size="13" text-anchor="middle" fill="#000000">10</text>
<line x1="407.2" y1="850" x2="407.2" y2="855" stroke="#000000" stroke-width="1" />
<text x="407.2" y="865" font-family="sans-serif" font-size="13" text-anchor="middle" fill="#000000">15</text>
<line x1="519.2" y1="850" x2="519.2" y2="855" stroke="#000000" stroke-width="1" />
<text x="519.2" y="865" font-family="sans-serif" font-size="13" text-anchor="middle" fill="#000000">20</text>
<line x1="631.1999999999999" y1="850" x2="631.1999999999999" y2="855" stroke="#000000" stroke-width="1" />
<text x="631.1999999999999" y="865" font-family="sans-serif" font-size="13" text-anchor="middle" fill="#000000">25</text>
<line x1="743.1999999999999" y1="850" x2="743.1999999999999" y2="855" stroke="#000000" stroke-width="1" />
<text x="743.1999999999999" y="865" font-family="sans-serif" font-size="13" text-anchor="middle" fill="#000000">30</text>
<line x1="855.1999999999999" y1="850" x2="855.1999999999999" y2="855" stroke="#000000" stroke-width="1" />
<text x="855.1999999999999" y="865" font-family="sans-serif" font-size="13" text-anchor="middle" fill="#000000">35</text>
<line x1="967.1999999999999" y1="850" x2="967.1999999999999" y2="855" stroke="#000000" stroke-width="1" />
<text x="967.1999999999999" y="865" font-family="sans-serif" font-size="13" text-anchor="middle" fill="#000000">40</text>
<line x1="1079.1999999999998" y1="850" x2="1079.1999999999998" y2="855" stroke="#000000" stroke-width="1" />
<text x="1079.1999999999998" y="865" font-family="sans-serif" font-size="13" text-anchor="middle" fill="#000000">45</text>
<line x1="93.6" y1="850" x2="93.6" y2="853" stroke="#000000" stroke-width="0.5" />
<line x1="116" y1="850" x2="116" y2="853" stroke="#000000" stroke-width="0.5" />
<line x1="138.39999999999998" y1="850" x2="138.39999999999998" y2="853" stroke="#000000" stroke-width="0.5" />
<line x1="160.8" y1="850" x2="160.8" y2="853" stroke="#000000" stroke-width="0.5" />
<line x1="205.6" y1="850" x2="205.6" y2="853" stroke="#000000" stroke-width="0.5" />
<line x1="228" y1="850" x2="228" y2="853" stroke="#000000" stroke-width="0.5" />
<line x1="250.39999999999998" y1="850" x2="250.39999999999998" y2="853" stroke="#000000" stroke-width="0.5" />
<line x1="272.79999999999995" y1="850" x2="272.79999999999995" y2="853" stroke="#000000" stroke-width="0.5" />
<line x1="317.59999999999997" y1="850" x2="317.59999999999997" y2="853" stroke="#000000" stroke-width="0.5" />
<line x1="340" y1="850" x2="340" y2="853" stroke="#000000" stroke-width="0.5" />
<line x1="362.4" y1="850" x2="362.4" y2="853" stroke="#000000" stroke-width="0.5" />
<line x1="384.79999999999995" y1="850" x2="384.79999999999995" y2="853" stroke="#000000" stroke-width="0.5" />
<line x1="429.59999999999997" y1="850" x2="429.59999999999997" y2="853" stroke="#000000" stroke-width="0.5" />
<line x1="452" y1="850" x2="452" y2="853" stroke="#000000" stroke-width="0.5" />
<line x1="474.4" y1="850" x2="474.4" y2="853" stroke="#000000" stroke-width="0.5" />
<line x1="496.79999999999995" y1="850" x2="496.79999999999995" y2="853" stroke="#000000" stroke-width="0.5" />
<line x1="541.5999999999999" y1="850" x2="541.5999999999999" y2="853" stroke="#000000" stroke-width="0.5" />
<line x1="564" y1="850" x2="564" y2="853" stroke="#000000" stroke-width="0.5" />
<line x1="586.4" y1="850" x2="586.4" y2="853" stroke="#000000" stroke-width="0.5" />
<line x1="608.8" y1="850" x2="608.8" y2="853" stroke="#000000" stroke-width="0.5" />
<line x1="653.5999999999999" y1="850" x2="653.5999999999999" y2="853" stroke="#000000" stroke-width="0.5" />
<line x1="676" y1="850" x2="676" y2="853" stroke="#000000" stroke-width="0.5" />
<line x1="698.4" y1="850" x2="698.4" y2="853" stroke="#000000" stroke-width="0.5" />
<line x1="720.8" y1="850" x2="720.8" y2="853" stroke="#000000" stroke-width="0.5" />
<line x1="765.5999999999999" y1="850" x2="765.5999999999999" y2="853" stroke="#000000" stroke-width="0.5" />
<line x1="788" y1="850" x2="788" y2="853" stroke="#000000" stroke-width="0.5" />
<line x1="810.4" y1="850" x2="810.4" y2="853" stroke="#000000" stroke-width="0.5" />
<line x1="832.8" y1="850" x2="832.8" y2="853" stroke="#000000" stroke-width="0.5" />
<line x1="877.5999999999999" y1="850" x2="877.5999999999999" y2="853" stroke="#000000" stroke-width="0.5" />
<line x1="900" y1="850" x2="900" y2="853" stroke="#000000" stroke-width="0.5" />
<line x1="922.4" y1="850" x2="922.4" y2="853" stroke="#000000" stroke-width="0.5" />
<line x1="944.8" y1="850" x2="944.8" y2="853" stroke="#000000" stroke-width="0.5" />
<line x1="989.5999999999999" y1="850" x2="989.5999999999999" y2="853" stroke="#000000" stroke-width="0.5" />
<line x1="1011.9999999999999" y1="850" x2="1011.9999999999999" y2="853" stroke="#000000" stroke-width="0.5" />
<line x1="1034.4" y1="850" x2="1034.4" y2="853" stroke="#000000" stroke-width="0.5" />
<line x1="1056.8" y1="850" x2="1056.8" y2="853" stroke="#000000" stroke-width="0.5" />
<line x1="1101.6" y1="850" x2="1101.6" y2="853" stroke="#000000" stroke-width="0.5" />
<line x1="1124" y1="850" x2="1124" y2="853" stroke="#000000" stroke-width="0.5" />
<line x1="1146.3999999999999" y1="850" x2="1146.3999999999999" y2="853" stroke="#000000" stroke-width="0.5" />
<line x1="1168.8" y1="850" x2="1168.8" y2="853" stroke="#000000" stroke-width="0.5" />
<line x1="55" y1="850" x2="60" y2="850" stroke="#000000" stroke-width="1" />
<text x="52" y="854" font-family="sans-serif" font-size="13" text-anchor="end" fill="#000000">0</text>
<line x1="55" y1="815" x2="60" y2="815" stroke="#000000" stroke-width="1" />
<text x="52" y="819" font-family="sans-serif" font-size="13" text-anchor="end" fill="#000000">20</text>
<line x1="55" y1="780" x2="60" y2="780" stroke="#000000" stroke-width="1" />
<text x="52" y="784" font-family="sans-serif" font-size="13" text-anchor="end" fill="#000000">40</text>
<line x1="55" y1="745" x2="60" y2="745" stroke="#000000" stroke-width="1" />
<text x="52" y="749" font-family="sans-serif" font-size="13" text-anchor="end" fill="#000000">60</text>
<line x1="55" y1="710" x2="60" y2="710" stroke="#000000" stroke-width="1" />
<text x="52" y="714" font-family="sans-serif" font-size="13" text-anchor="end" fill="#000000">80</text>
<line x1="55" y1="675" x2="60" y2="675" stroke="#000000" stroke-width="1" />
<text x="52" y="679" font-family="sans-serif" font-size="13" text-anchor="end" fill="#000000">100</text>
<line x1="57" y1="843" x2="60" y2="843" stroke="#000000" stroke-width="0.5" />
<line x1="57" y1="836" x2="60" y2="836" stroke="#000000" stroke-width="0.5" />
<line x1="57" y1="829" x2="60" y2="829" stroke="#000000" stroke-width="0.5" />
<line x1="57" y1="822" x2="60" y2="822" stroke="#000000" stroke-width="0.5" />
<line x1="57" y1="808" x2="60" y2="808" stroke="#000000" stroke-width="0.5" />
<line x1="57" y1="801" x2="60" y2="801" stroke="#000000" stroke-width="0.5" />
<line x1="57" y1="794" x2="60" y2="794" stroke="#000000" stroke-width="0.5" />
<line x1="57" y1="787" x2="60" y2="787" stroke="#000000" stroke-width="0.5" />
<line x1="57" y1="773" x2="60" y2="773" stroke="#000000" stroke-width="0.5" />
<line x1="57" y1="766" x2="60" y2="766" stroke="#000000" stroke-width="0.5" />
<line x1="57" y1="759" x2="60" y2="759" stroke="#000000" stroke-width="0.5" />
<line x1="57" y1="752" x2="60" y2="752" stroke="#000000" stroke-width="0.5" />
<line x1="57" y1="738" x2="60" y2="738" stroke="#000000" stroke-width="0.5" />
<line x1="57" y1="731" x2="60" y2="731" stroke="#000000" stroke-width="0.5" />
<line x1="57" y1="724" x2="60" y2="724" stroke="#000000" stroke-width="0.5" />
<line x1="57" y1="717" x2="60" y2="717" stroke="#000000" stroke-width="0.5" />
<line x1="57" y1="703" x2="60" y2="703" stroke="#000000" stroke-width="0.5" />
<line x1="57" y1="696" x2="60" y2="696" stroke="#000000" stroke-width="0.5" />
<line x1="57" y1="689" x2="60" y2="689" stroke="#000000" stroke-width="0.5" />
<line x1="57" y1="682" x2="60" y2="682" stroke="#000000" stroke-width="0.5" />
<line x1="60" y1="727.5" x2="1180" y2="727.5" stroke="#FF0000" stroke-width="1" stroke-dasharray="5,2" />
<line x1="60" y1="815" x2="1180" y2="815" stroke="#008000" stroke-width="1" stroke-dasharray="5,2" />
<polyline points="373.59999999999997,763.0369135184832 396,767.0234684031265 418.4,774.2523670887499 440.79999999999995,774.9423799016153 463.2,773.2118935798608 485.59999999999997,780.8383933163253 508,774.0151720523917 530.4,781.089931244618 552.8,786.5938111950709 575.1999999999999,773.8073384913808 597.5999999999999,776.5571555170118 620,766.2452370462396 642.4,771.5339902548251 664.8,772.7761929536487 687.1999999999999,761.0961678156266 709.5999999999999,750.9931111042112 732,748.0805418708889 754.4,742.2179182092397 776.8,749.6524492136393 799.1999999999999,756.6345305952278 821.5999999999999,762.7996264488328 844,767.4283652627532 866.4,768.0151662269694 888.8,770.8859278106784 911.1999999999999,759.1847544086495 933.5999999999999,749.0671630436857 956,753.4652153297609 978.4,764.5540525594356 1000.8,755.7055925110991 1023.1999999999999,746.3753953809071 1045.6,756.7118494425508 1068,752.8873417070366 1090.3999999999999,758.7459044841128 1112.8,762.1947217940487 1135.1999999999998,754.7508474873896 1157.6,765.0741927678876" fill="none" stroke="#1F77B4" stroke-width="1.5" />
<g class="spine">
<line x1="60" y1="850" x2="1180" y2="850" stroke="#000000" stroke-width="1" />
</g>
<g class="spine">
<line x1="60" y1="675" x2="1180" y2="675" stroke="#000000" stroke-width="1" />
</g>
<g class="spine">
<line x1="60" y1="675" x2="60" y2="850" stroke="#000000" stroke-width="1" />
</g>
<g class="spine">
<line x1="1180" y1="675" x2="1180" y2="850" stroke="#000000" stroke-width="1" />
</g>
<rect x="1091.8" y="685" width="78.19999999999999" height="28" fill="#FFFFFF" fill-opacity="0.8627450980392157" stroke="#000000" stroke-width="0.5" />
<g class="legend">
<rect x="1099.8" y="693" width="12" height="12" fill="#1F77B4" />
<text x="1117.8" y="704" font-family="sans-serif" font-size="13" text-anchor="start" fill="#000000">RSI(14)</text>
</g>
<text x="15" y="762.5" font-family="sans-serif" font-size="13" text-anchor="middle" fill="#000000">Oscillator</text>
</svg>
