<svg xmlns="http://www.w3.org/2000/svg" viewBox="0 0 700 500" width="700" height="500" style="width:100%;height:auto" role="img" aria-labelledby="chart-title">
<title id="chart-title">Funnel Chart — Sales Pipeline</title>
<rect x="0" y="0" width="700" height="500" fill="#FFFFFF" />
<path d="M1.64214 -13.0411L10.7176 -13.0411L10.7176 -10.4992L5.00505 -10.4992L5.00505 -8.07096L10.377 -8.07096L10.377 -5.52913L5.00505 -5.52913L5.00505 0L1.64214 0L1.64214 -13.0411ZM13.6176 -3.80838L13.6176 -9.78299L16.7621 -9.78299L16.7621 -8.80469Q16.7621 -8.00982 16.7534 -6.80878Q16.7446 -5.60775 16.7446 -5.20595Q16.7446 -4.02675 16.8058 -3.50703Q16.8669 -2.9873 17.0154 -2.75146Q17.2076 -2.44575 17.5177 -2.27979Q17.8277 -2.11382 18.2295 -2.11382Q19.2078 -2.11382 19.7669 -2.86502Q20.3259 -3.61621 20.3259 -4.95264L20.3259 -9.78299L23.453 -9.78299L23.453 0L20.3259 0L20.3259 -1.41504Q19.6184 -0.559028 18.8279 -0.152859Q18.0374 0.253309 17.0853 0.253309Q15.3907 0.253309 14.5042 -0.786133Q13.6176 -1.82558 13.6176 -3.80838ZM36.2931 -5.95714L36.2931 0L33.1486 0L33.1486 -0.969564L33.1486 -4.55957Q33.1486 -5.82612 33.0918 -6.30653Q33.035 -6.78695 32.8953 -7.01405Q32.7119 -7.31977 32.3974 -7.4901Q32.083 -7.66043 31.6812 -7.66043Q30.7029 -7.66043 30.1438 -6.90487Q29.5848 -6.14931 29.5848 -4.81288L29.5848 0L26.4577 0L26.4577 -9.78299L29.5848 -9.78299L29.5848 -8.35048Q30.2923 -9.20649 31.0872 -9.61266Q31.8821 -10.0188 32.8429 -10.0188Q34.5374 -10.0188 35.4153 -8.97938Q36.2931 -7.93994 36.2931 -5.95714ZM49.0285 -5.95714L49.0285 0L45.8839 0L45.8839 -0.969564L45.8839 -4.55957Q45.8839 -5.82612 45.8272 -6.30653Q45.7704 -6.78695 45.6306 -7.01405Q45.4472 -7.31977 45.1328 -7.4901Q44.8183 -7.66043 44.4165 -7.66043Q43.4382 -7.66043 42.8792 -6.90487Q42.3201 -6.14931 42.3201 -4.81288L42.3201 0L39.1931 0L39.1931 -9.78299L42.3201 -9.78299L42.3201 -8.35048Q43.0277 -9.20649 43.8225 -9.61266Q44.6174 -10.0188 45.5782 -10.0188Q47.2728 -10.0188 48.1506 -8.97938Q49.0285 -7.93994 49.0285 -5.95714ZM61.694 -4.9177L61.694 -4.02675L54.3829 -4.02675Q54.4965 -2.92616 55.1778 -2.37587Q55.8591 -1.82558 57.082 -1.82558Q58.069 -1.82558 59.1041 -2.11819Q60.1392 -2.41081 61.231 -3.00477L61.231 -0.593967Q60.1217 -0.174696 59.0124 0.0393066Q57.903 0.253309 56.7937 0.253309Q54.1383 0.253309 52.6665 -1.09622Q51.1947 -2.44575 51.1947 -4.88276Q51.1947 -7.2761 52.6403 -8.64746Q54.0859 -10.0188 56.619 -10.0188Q58.925 -10.0188 60.3095 -8.62999Q61.694 -7.24116 61.694 -4.9177ZM58.4795 -5.95714Q58.4795 -6.84809 57.9598 -7.39402Q57.4401 -7.93994 56.6016 -7.93994Q55.6931 -7.93994 55.1254 -7.42896Q54.5576 -6.91797 54.4179 -5.95714L58.4795 -5.95714ZM64.0611 -13.5914L67.1881 -13.5914L67.1881 0L64.0611 0L64.0611 -13.5914ZM86.9026 -0.716254Q85.9767 -0.23584 84.9722 0.00873481Q83.9677 0.253309 82.8759 0.253309Q79.6178 0.253309 77.7136 -1.5679Q75.8094 -3.38911 75.8094 -6.50743Q75.8094 -9.63449 77.7136 -11.4557Q79.6178 -13.2769 82.8759 -13.2769Q83.9677 -13.2769 84.9722 -13.0323Q85.9767 -12.7878 86.9026 -12.3073L86.9026 -9.60829Q85.968 -10.2459 85.0596 -10.5429Q84.1512 -10.8399 83.1466 -10.8399Q81.3473 -10.8399 80.3166 -9.6869Q79.2859 -8.53391 79.2859 -6.50743Q79.2859 -4.48969 80.3166 -3.3367Q81.3473 -2.1837 83.1466 -2.1837Q84.1512 -2.1837 85.0596 -2.48069Q85.968 -2.77767 86.9026 -3.41531L86.9026 -0.716254ZM99.3847 -5.95714L99.3847 0L96.2401 0L96.2401 -0.969564L96.2401 -4.5421Q96.2401 -5.82612 96.1833 -6.30653Q96.1266 -6.78695 95.9868 -7.01405Q95.8034 -7.31977 95.4889 -7.4901Q95.1745 -7.66043 94.7727 -7.66043Q93.7944 -7.66043 93.2354 -6.90487Q92.6763 -6.14931 92.6763 -4.81288L92.6763 0L89.5493 0L89.5493 -13.5914L92.6763 -13.5914L92.6763 -8.35048Q93.3838 -9.20649 94.1787 -9.61266Q94.9736 -10.0188 95.9344 -10.0188Q97.629 -10.0188 98.5068 -8.97938Q99.3847 -7.93994 99.3847 -5.95714ZM106.669 -4.40234Q105.691 -4.40234 105.198 -4.07042Q104.704 -3.7385 104.704 -3.09212Q104.704 -2.49816 105.102 -2.16187Q105.499 -1.82558 106.207 -1.82558Q107.089 -1.82558 107.691 -2.45885Q108.294 -3.09212 108.294 -4.04422L108.294 -4.40234L106.669 -4.40234ZM111.447 -5.58154L111.447 0L108.294 0L108.294 -1.44998Q107.665 -0.559028 106.879 -0.152859Q106.093 0.253309 104.966 0.253309Q103.446 0.253309 102.499 -0.633274Q101.551 -1.51986 101.551 -2.9349Q101.551 -4.65565 102.734 -5.45926Q103.918 -6.26286 106.451 -6.26286L108.294 -6.26286L108.294 -6.50743Q108.294 -7.24989 107.709 -7.59492Q107.124 -7.93994 105.883 -7.93994Q104.879 -7.93994 104.014 -7.73904Q103.149 -7.53814 102.407 -7.13634L102.407 -9.52094Q103.411 -9.76552 104.425 -9.89217Q105.438 -10.0188 106.451 -10.0188Q109.098 -10.0188 110.273 -8.97502Q111.447 -7.93121 111.447 -5.58154ZM121.623 -7.11887Q121.213 -7.31103 120.807 -7.40275Q120.401 -7.49447 119.99 -7.49447Q118.785 -7.49447 118.134 -6.72144Q117.483 -5.94841 117.483 -4.50716L117.483 0L114.356 0L114.356 -9.78299L117.483 -9.78299L117.483 -8.17578Q118.086 -9.13661 118.868 -9.57772Q119.649 -10.0188 120.741 -10.0188Q120.898 -10.0188 121.082 -10.0057Q121.265 -9.99262 121.615 -9.94895L121.623 -7.11887ZM126.594 -12.5607L126.594 -9.78299L129.817 -9.78299L129.817 -7.54688L126.594 -7.54688L126.594 -3.39784Q126.594 -2.71653 126.864 -2.47632Q127.135 -2.23611 127.939 -2.23611L129.546 -2.23611L129.546 0L126.864 0Q125.013 0 124.24 -0.773031Q123.467 -1.54606 123.467 -3.39784L123.467 -7.54688L121.912 -7.54688L121.912 -9.78299L123.467 -9.78299L123.467 -12.5607L126.594 -12.5607ZM137.416 -6.02702L153.383 -6.02702L153.383 -3.77344L137.416 -3.77344L137.416 -6.02702ZM171.29 -12.6305L171.29 -9.87033Q170.215 -10.3507 169.193 -10.5953Q168.171 -10.8399 167.263 -10.8399Q166.057 -10.8399 165.481 -10.508Q164.904 -10.1761 164.904 -9.47727Q164.904 -8.95318 165.293 -8.66056Q165.682 -8.36795 166.704 -8.15831L168.136 -7.87006Q170.311 -7.43332 171.228 -6.54237Q172.146 -5.65142 172.146 -4.00928Q172.146 -1.85178 170.866 -0.799235Q169.586 0.253309 166.957 0.253309Q165.717 0.253309 164.468 0.0174696Q163.219 -0.21837 161.97 -0.681315L161.97 -3.52013Q163.219 -2.85628 164.385 -2.51999Q165.551 -2.1837 166.634 -2.1837Q167.735 -2.1837 168.32 -2.55056Q168.905 -2.91743 168.905 -3.59874Q168.905 -4.21018 168.508 -4.5421Q168.11 -4.87402 166.922 -5.13607L165.621 -5.42432Q163.664 -5.84359 162.76 -6.76074Q161.856 -7.6779 161.856 -9.23269Q161.856 -11.1806 163.114 -12.2287Q164.372 -13.2769 166.73 -13.2769Q167.804 -13.2769 168.94 -13.1153Q170.075 -12.9537 171.29 -12.6305ZM179.343 -4.40234Q178.365 -4.40234 177.871 -4.07042Q177.378 -3.7385 177.378 -3.09212Q177.378 -2.49816 177.775 -2.16187Q178.173 -1.82558 178.88 -1.82558Q179.762 -1.82558 180.365 -2.45885Q180.968 -3.09212 180.968 -4.04422L180.968 -4.40234L179.343 -4.40234ZM184.121 -5.58154L184.121 0L180.968 0L180.968 -1.44998Q180.339 -0.559028 179.553 -0.152859Q178.767 0.253309 177.64 0.253309Q176.12 0.253309 175.172 -0.633274Q174.225 -1.51986 174.225 -2.9349Q174.225 -4.65565 175.408 -5.45926Q176.592 -6.26286 179.125 -6.26286L180.968 -6.26286L180.968 -6.50743Q180.968 -7.24989 180.383 -7.59492Q179.797 -7.93994 178.557 -7.93994Q177.552 -7.93994 176.688 -7.73904Q175.823 -7.53814 175.081 -7.13634L175.081 -9.52094Q176.085 -9.76552 177.098 -9.89217Q178.111 -10.0188 179.125 -10.0188Q181.771 -10.0188 182.946 -8.97502Q184.121 -7.93121 184.121 -5.58154ZM187.03 -13.5914L190.157 -13.5914L190.157 0L187.03 0L187.03 -13.5914ZM202.927 -4.9177L202.927 -4.02675L195.616 -4.02675Q195.73 -2.92616 196.411 -2.37587Q197.092 -1.82558 198.315 -1.82558Q199.302 -1.82558 200.337 -2.11819Q201.372 -2.41081 202.464 -3.00477L202.464 -0.593967Q201.355 -0.174696 200.245 0.0393066Q199.136 0.253309 198.027 0.253309Q195.371 0.253309 193.9 -1.09622Q192.428 -2.44575 192.428 -4.88276Q192.428 -7.2761 193.873 -8.64746Q195.319 -10.0188 197.852 -10.0188Q200.158 -10.0188 201.543 -8.62999Q202.927 -7.24116 202.927 -4.9177ZM199.713 -5.95714Q199.713 -6.84809 199.193 -7.39402Q198.673 -7.93994 197.835 -7.93994Q196.926 -7.93994 196.359 -7.42896Q195.791 -6.91797 195.651 -5.95714L199.713 -5.95714ZM212.937 -9.47727L212.937 -7.1014Q211.933 -7.52067 210.998 -7.73031Q210.063 -7.93994 209.234 -7.93994Q208.343 -7.93994 207.91 -7.7172Q207.478 -7.49447 207.478 -7.03152Q207.478 -6.65592 207.805 -6.45502Q208.133 -6.25412 208.98 -6.15804L209.531 -6.07943Q211.933 -5.77371 212.762 -5.07492Q213.592 -4.37614 213.592 -2.88249Q213.592 -1.31896 212.439 -0.532823Q211.286 0.253309 208.998 0.253309Q208.028 0.253309 206.993 0.10045Q205.958 -0.0524089 204.866 -0.358127L204.866 -2.734Q205.801 -2.27978 206.783 -2.05268Q207.766 -1.82557 208.779 -1.82558Q209.697 -1.82558 210.16 -2.07888Q210.622 -2.33219 210.622 -2.83008Q210.622 -3.24935 210.304 -3.45462Q209.985 -3.65989 209.033 -3.77344L208.482 -3.84332Q206.395 -4.10536 205.556 -4.81288Q204.718 -5.5204 204.718 -6.96164Q204.718 -8.51644 205.783 -9.26763Q206.849 -10.0188 209.05 -10.0188Q209.915 -10.0188 210.867 -9.8878Q211.819 -9.75678 212.937 -9.47727ZM222.31 -13.0411L227.891 -13.0411Q230.381 -13.0411 231.713 -11.9361Q233.045 -10.8312 233.045 -8.78722Q233.045 -6.73454 231.713 -5.62958Q230.381 -4.52463 227.891 -4.52463L225.673 -4.52463L225.673 0L222.31 0L222.31 -13.0411ZM225.673 -10.6041L225.673 -6.96164L227.533 -6.96164Q228.511 -6.96164 229.044 -7.43769Q229.577 -7.91374 229.577 -8.78722Q229.577 -9.6607 229.044 -10.1324Q228.511 -10.6041 227.533 -10.6041L225.673 -10.6041ZM235.281 -9.78299L238.408 -9.78299L238.408 0L235.281 0L235.281 -9.78299ZM235.281 -13.5914L238.408 -13.5914L238.408 -11.0408L235.281 -11.0408L235.281 -13.5914ZM244.54 -1.41504L244.54 3.72103L241.413 3.72103L241.413 -9.78299L244.54 -9.78299L244.54 -8.35048Q245.186 -9.20649 245.972 -9.61266Q246.758 -10.0188 247.78 -10.0188Q249.588 -10.0188 250.75 -8.58195Q251.912 -7.14507 251.912 -4.88276Q251.912 -2.62044 250.75 -1.18357Q249.588 0.253309 247.78 0.253309Q246.758 0.253309 245.972 -0.152859Q245.186 -0.559028 244.54 -1.41504ZM246.619 -7.74778Q245.614 -7.74778 245.077 -7.00968Q244.54 -6.27159 244.54 -4.88276Q244.54 -3.49392 245.077 -2.75583Q245.614 -2.01774 246.619 -2.01774Q247.623 -2.01774 248.152 -2.75146Q248.68 -3.48519 248.68 -4.88276Q248.68 -6.28033 248.152 -7.01405Q247.623 -7.74778 246.619 -7.74778ZM263.983 -4.9177L263.983 -4.02675L256.672 -4.02675Q256.786 -2.92616 257.467 -2.37587Q258.149 -1.82558 259.371 -1.82558Q260.358 -1.82558 261.394 -2.11819Q262.429 -2.41081 263.52 -3.00477L263.52 -0.593967Q262.411 -0.174696 261.302 0.0393066Q260.193 0.253309 259.083 0.253309Q256.428 0.253309 254.956 -1.09622Q253.484 -2.44575 253.484 -4.88276Q253.484 -7.2761 254.93 -8.64746Q256.375 -10.0188 258.908 -10.0188Q261.214 -10.0188 262.599 -8.62999Q263.983 -7.24116 263.983 -4.9177ZM260.769 -5.95714Q260.769 -6.84809 260.249 -7.39402Q259.73 -7.93994 258.891 -7.93994Q257.983 -7.93994 257.415 -7.42896Q256.847 -6.91797 256.707 -5.95714L260.769 -5.95714ZM266.351 -13.5914L269.478 -13.5914L269.478 0L266.351 0L266.351 -13.5914ZM272.482 -9.78299L275.609 -9.78299L275.609 0L272.482 0L272.482 -9.78299ZM272.482 -13.5914L275.609 -13.5914L275.609 -11.0408L272.482 -11.0408L272.482 -13.5914ZM288.45 -5.95714L288.45 0L285.305 0L285.305 -0.969564L285.305 -4.55957Q285.305 -5.82612 285.248 -6.30653Q285.192 -6.78695 285.052 -7.01405Q284.868 -7.31977 284.554 -7.4901Q284.239 -7.66043 283.838 -7.66043Q282.859 -7.66043 282.3 -6.90487Q281.741 -6.14931 281.741 -4.81288L281.741 0L278.614 0L278.614 -9.78299L281.741 -9.78299L281.741 -8.35048Q282.449 -9.20649 283.244 -9.61266Q284.039 -10.0188 284.999 -10.0188Q286.694 -10.0188 287.572 -8.97938Q288.45 -7.93994 288.45 -5.95714ZM301.115 -4.9177L301.115 -4.02675L293.804 -4.02675Q293.918 -2.92616 294.599 -2.37587Q295.28 -1.82558 296.503 -1.82558Q297.49 -1.82558 298.525 -2.11819Q299.56 -2.41081 300.652 -3.00477L300.652 -0.593967Q299.543 -0.174696 298.433 0.0393066Q297.324 0.253309 296.215 0.253309Q293.559 0.253309 292.088 -1.09622Q290.616 -2.44575 290.616 -4.88276Q290.616 -7.2761 292.061 -8.64746Q293.507 -10.0188 296.04 -10.0188Q298.346 -10.0188 299.731 -8.62999Q301.115 -7.24116 301.115 -4.9177ZM297.901 -5.95714Q297.901 -6.84809 297.381 -7.39402Q296.861 -7.93994 296.023 -7.93994Q295.114 -7.93994 294.547 -7.42896Q293.979 -6.91797 293.839 -5.95714L297.901 -5.95714Z" fill="#262626" transform="translate(350,24.099999999999998) translate(-150.9899139404297,0)" />
<rect x="88" y="60" width="542" height="385" fill="#FFFFFF" />
<line x1="112.63636363636364" y1="444.6" x2="112.63636363636364" y2="449.8611111111111" stroke="#262626" stroke-width="1.1111111111111112" />
<path d="M4.41488 -9.22309Q3.35693 -9.22309 2.82457 -8.1821Q2.29221 -7.14111 2.29221 -5.05235Q2.29221 -2.97038 2.82457 -1.92939Q3.35693 -0.888401 4.41488 -0.888401Q5.4796 -0.888401 6.01196 -1.92939Q6.54433 -2.97038 6.54433 -5.05235Q6.54433 -7.14111 6.01196 -8.1821Q5.4796 -9.22309 4.41488 -9.22309ZM4.41488 -10.3082Q6.11708 -10.3082 7.01565 -8.962Q7.91422 -7.61583 7.91423 -5.05235Q7.91423 -2.49566 7.01565 -1.1495Q6.11708 0.196669 4.41488 0.196669Q2.71267 0.196669 1.8141 -1.1495Q0.915527 -2.49566 0.915527 -5.05235Q0.915527 -7.61583 1.8141 -8.962Q2.71267 -10.3082 4.41488 -10.3082ZM10.3217 -1.72255L11.7527 -1.72255L11.7527 0L10.3217 0L10.3217 -1.72255ZM17.6663 -9.22309Q16.6083 -9.22309 16.076 -8.1821Q15.5436 -7.14111 15.5436 -5.05235Q15.5436 -2.97038 16.076 -1.92939Q16.6083 -0.888401 17.6663 -0.888401Q18.731 -0.888401 19.2634 -1.92939Q19.7957 -2.97038 19.7957 -5.05235Q19.7957 -7.14111 19.2634 -8.1821Q18.731 -9.22309 17.6663 -9.22309ZM17.6663 -10.3082Q19.3685 -10.3082 20.2671 -8.962Q21.1656 -7.61583 21.1656 -5.05235Q21.1656 -2.49566 20.2671 -1.1495Q19.3685 0.196669 17.6663 0.196669Q15.9641 0.196669 15.0655 -1.1495Q14.1669 -2.49566 14.1669 -5.05235Q14.1669 -7.61583 15.0655 -8.962Q15.9641 -10.3082 17.6663 -10.3082Z" fill="#262626" transform="translate(112.63636363636364,468.6111111111111) translate(-11.043972969055176,0)" />
<line x1="161.9090909090909" y1="444.6" x2="161.9090909090909" y2="449.8611111111111" stroke="#262626" stroke-width="1.1111111111111112" />
<path d="M4.41488 -9.22309Q3.35693 -9.22309 2.82457 -8.1821Q2.29221 -7.14111 2.29221 -5.05235Q2.29221 -2.97038 2.82457 -1.92939Q3.35693 -0.888401 4.41488 -0.888401Q5.4796 -0.888401 6.01196 -1.92939Q6.54433 -2.97038 6.54433 -5.05235Q6.54433 -7.14111 6.01196 -8.1821Q5.4796 -9.22309 4.41488 -9.22309ZM4.41488 -10.3082Q6.11708 -10.3082 7.01565 -8.962Q7.91422 -7.61583 7.91423 -5.05235Q7.91423 -2.49566 7.01565 -1.1495Q6.11708 0.196669 4.41488 0.196669Q2.71267 0.196669 1.8141 -1.1495Q0.915527 -2.49566 0.915527 -5.05235Q0.915527 -7.61583 1.8141 -8.962Q2.71267 -10.3082 4.41488 -10.3082ZM10.3217 -1.72255L11.7527 -1.72255L11.7527 0L10.3217 0L10.3217 -1.72255ZM14.974 -1.15289L17.2119 -1.15289L17.2119 -8.87722L14.7773 -8.38894L14.7773 -9.63677L17.1984 -10.1251L18.5683 -10.1251L18.5683 -1.15289L20.8062 -1.15289L20.8062 0L14.974 0L14.974 -1.15289Z" fill="#262626" transform="translate(161.9090909090909,468.6111111111111) translate(-11.043972969055176,0)" />
<line x1="211.1818181818182" y1="444.6" x2="211.1818181818182" y2="449.8611111111111" stroke="#262626" stroke-width="1.1111111111111112" />
<path d="M4.41488 -9.22309Q3.35693 -9.22309 2.82457 -8.1821Q2.29221 -7.14111 2.29221 -5.05235Q2.29221 -2.97038 2.82457 -1.92939Q3.35693 -0.888401 4.41488 -0.888401Q5.4796 -0.888401 6.01196 -1.92939Q6.54433 -2.97038 6.54433 -5.05235Q6.54433 -7.14111 6.01196 -8.1821Q5.4796 -9.22309 4.41488 -9.22309ZM4.41488 -10.3082Q6.11708 -10.3082 7.01565 -8.962Q7.91422 -7.61583 7.91423 -5.05235Q7.91423 -2.49566 7.01565 -1.1495Q6.11708 0.196669 4.41488 0.196669Q2.71267 0.196669 1.8141 -1.1495Q0.915527 -2.49566 0.915527 -5.05235Q0.915527 -7.61583 1.8141 -8.962Q2.71267 -10.3082 4.41488 -10.3082ZM10.3217 -1.72255L11.7527 -1.72255L11.7527 0L10.3217 0L10.3217 -1.72255ZM15.9166 -1.15289L20.6977 -1.15289L20.6977 0L14.2687 0L14.2687 -1.15289Q15.0486 -1.95991 16.3947 -3.31963Q17.7409 -4.67936 18.0868 -5.0727Q18.7446 -5.8119 19.0057 -6.32392Q19.2668 -6.83594 19.2668 -7.331Q19.2668 -8.13802 18.7005 -8.64665Q18.1342 -9.15527 17.2255 -9.15527Q16.5812 -9.15527 15.8658 -8.93148Q15.1503 -8.70768 14.3365 -8.25331L14.3365 -9.63677Q15.1638 -9.96908 15.8827 -10.1386Q16.6016 -10.3082 17.1984 -10.3082Q18.7717 -10.3082 19.7076 -9.52148Q20.6434 -8.73481 20.6434 -7.41916Q20.6434 -6.79525 20.4095 -6.23576Q20.1755 -5.67627 19.5584 -4.91672Q19.3888 -4.72005 18.4801 -3.78079Q17.5713 -2.84153 15.9166 -1.15289Z" fill="#262626" transform="translate(211.1818181818182,468.6111111111111) translate(-11.043972969055176,0)" />
<line x1="260.45454545454544" y1="444.6" x2="260.45454545454544" y2="449.8611111111111" stroke="#262626" stroke-width="1.1111111111111112" />
<path d="M4.41488 -9.22309Q3.35693 -9.22309 2.82457 -8.1821Q2.29221 -7.14111 2.29221 -5.05235Q2.29221 -2.97038 2.82457 -1.92939Q3.35693 -0.888401 4.41488 -0.888401Q5.4796 -0.888401 6.01196 -1.92939Q6.54433 -2.97038 6.54433 -5.05235Q6.54433 -7.14111 6.01196 -8.1821Q5.4796 -9.22309 4.41488 -9.22309ZM4.41488 -10.3082Q6.11708 -10.3082 7.01565 -8.962Q7.91422 -7.61583 7.91423 -5.05235Q7.91423 -2.49566 7.01565 -1.1495Q6.11708 0.196669 4.41488 0.196669Q2.71267 0.196669 1.8141 -1.1495Q0.915527 -2.49566 0.915527 -5.05235Q0.915527 -7.61583 1.8141 -8.962Q2.71267 -10.3082 4.41488 -10.3082ZM10.3217 -1.72255L11.7527 -1.72255L11.7527 0L10.3217 0L10.3217 -1.72255ZM18.887 -5.45926Q19.8703 -5.24902 20.423 -4.58442Q20.9757 -3.91981 20.9757 -2.94325Q20.9757 -1.4445 19.9449 -0.623915Q18.9141 0.196669 17.0152 0.196669Q16.3778 0.196669 15.703 0.0712077Q15.0282 -0.0542535 14.3094 -0.305176L14.3094 -1.6276Q14.879 -1.2953 15.5572 -1.12576Q16.2354 -0.956217 16.9746 -0.956217Q18.2631 -0.956217 18.9379 -1.46484Q19.6126 -1.97347 19.6126 -2.94325Q19.6126 -3.83843 18.9853 -4.34367Q18.358 -4.8489 17.239 -4.8489L16.059 -4.8489L16.059 -5.97466L17.2933 -5.97466Q18.3038 -5.97466 18.8395 -6.37817Q19.3753 -6.78168 19.3753 -7.54123Q19.3753 -8.32113 18.8226 -8.7382Q18.2699 -9.15527 17.239 -9.15527Q16.6762 -9.15527 16.0319 -9.0332Q15.3876 -8.91113 14.6145 -8.65343L14.6145 -9.87413Q15.3944 -10.0911 16.076 -10.1997Q16.7575 -10.3082 17.3611 -10.3082Q18.9209 -10.3082 19.8296 -9.59947Q20.7384 -8.89079 20.7384 -7.68365Q20.7384 -6.84272 20.2569 -6.26289Q19.7754 -5.68305 18.887 -5.45926Z" fill="#262626" transform="translate(260.45454545454544,468.6111111111111) translate(-11.043972969055176,0)" />
<line x1="309.72727272727275" y1="444.6" x2="309.72727272727275" y2="449.8611111111111" stroke="#262626" stroke-width="1.1111111111111112" />
<path d="M4.41488 -9.22309Q3.35693 -9.22309 2.82457 -8.1821Q2.29221 -7.14111 2.29221 -5.05235Q2.29221 -2.97038 2.82457 -1.92939Q3.35693 -0.888401 4.41488 -0.888401Q5.4796 -0.888401 6.01196 -1.92939Q6.54433 -2.97038 6.54433 -5.05235Q6.54433 -7.14111 6.01196 -8.1821Q5.4796 -9.22309 4.41488 -9.22309ZM4.41488 -10.3082Q6.11708 -10.3082 7.01565 -8.962Q7.91422 -7.61583 7.91423 -5.05235Q7.91423 -2.49566 7.01565 -1.1495Q6.11708 0.196669 4.41488 0.196669Q2.71267 0.196669 1.8141 -1.1495Q0.915527 -2.49566 0.915527 -5.05235Q0.915527 -7.61583 1.8141 -8.962Q2.71267 -10.3082 4.41488 -10.3082ZM10.3217 -1.72255L11.7527 -1.72255L11.7527 0L10.3217 0L10.3217 -1.72255ZM18.5004 -8.93148L15.0418 -3.52648L18.5004 -3.52648L18.5004 -8.93148ZM18.141 -10.1251L19.8636 -10.1251L19.8636 -3.52648L21.3081 -3.52648L21.3081 -2.38715L19.8636 -2.38715L19.8636 0L18.5004 0L18.5004 -2.38715L13.9296 -2.38715L13.9296 -3.70958L18.141 -10.1251Z" fill="#262626" transform="translate(309.72727272727275,468.6111111111111) translate(-11.043972969055176,0)" />
<line x1="359" y1="444.6" x2="359" y2="449.8611111111111" stroke="#262626" stroke-width="1.1111111111111112" />
<path d="M4.41488 -9.22309Q3.35693 -9.22309 2.82457 -8.1821Q2.29221 -7.14111 2.29221 -5.05235Q2.29221 -2.97038 2.82457 -1.92939Q3.35693 -0.888401 4.41488 -0.888401Q5.4796 -0.888401 6.01196 -1.92939Q6.54433 -2.97038 6.54433 -5.05235Q6.54433 -7.14111 6.01196 -8.1821Q5.4796 -9.22309 4.41488 -9.22309ZM4.41488 -10.3082Q6.11708 -10.3082 7.01565 -8.962Q7.91422 -7.61583 7.91423 -5.05235Q7.91423 -2.49566 7.01565 -1.1495Q6.11708 0.196669 4.41488 0.196669Q2.71267 0.196669 1.8141 -1.1495Q0.915527 -2.49566 0.915527 -5.05235Q0.915527 -7.61583 1.8141 -8.962Q2.71267 -10.3082 4.41488 -10.3082ZM10.3217 -1.72255L11.7527 -1.72255L11.7527 0L10.3217 0L10.3217 -1.72255ZM14.7502 -10.1251L20.128 -10.1251L20.128 -8.97217L16.0048 -8.97217L16.0048 -6.49007Q16.3032 -6.5918 16.6016 -6.64266Q16.9 -6.69352 17.1984 -6.69352Q18.8938 -6.69352 19.8839 -5.76443Q20.874 -4.83534 20.874 -3.24843Q20.874 -1.61404 19.8568 -0.708686Q18.8395 0.196669 16.9881 0.196669Q16.3506 0.196669 15.6894 0.0881619C15.2486 0.0158239 14.7931 -0.092683 14.3229 -0.237359L14.3229 -1.61404Q14.9333 -1.28174 15.5843 -1.11898Q16.2354 -0.956217 16.961 -0.956217Q18.1342 -0.956217 18.8192 -1.57335Q19.5041 -2.19048 19.5041 -3.24843Q19.5041 -4.30637 18.8192 -4.9235Q18.1342 -5.54064 16.961 -5.54064Q16.4117 -5.54064 15.8658 -5.41857Q15.3198 -5.2965 14.7502 -5.03879L14.7502 -10.1251Z" fill="#262626" transform="translate(359,468.6111111111111) translate(-11.043972969055176,0)" />
<line x1="408.27272727272725" y1="444.6" x2="408.27272727272725" y2="449.8611111111111" stroke="#262626" stroke-width="1.1111111111111112" />
<path d="M4.41488 -9.22309Q3.35693 -9.22309 2.82457 -8.1821Q2.29221 -7.14111 2.29221 -5.05235Q2.29221 -2.97038 2.82457 -1.92939Q3.35693 -0.888401 4.41488 -0.888401Q5.4796 -0.888401 6.01196 -1.92939Q6.54433 -2.97038 6.54433 -5.05235Q6.54433 -7.14111 6.01196 -8.1821Q5.4796 -9.22309 4.41488 -9.22309ZM4.41488 -10.3082Q6.11708 -10.3082 7.01565 -8.962Q7.91422 -7.61583 7.91423 -5.05235Q7.91423 -2.49566 7.01565 -1.1495Q6.11708 0.196669 4.41488 0.196669Q2.71267 0.196669 1.8141 -1.1495Q0.915527 -2.49566 0.915527 -5.05235Q0.915527 -7.61583 1.8141 -8.962Q2.71267 -10.3082 4.41488 -10.3082ZM10.3217 -1.72255L11.7527 -1.72255L11.7527 0L10.3217 0L10.3217 -1.72255ZM17.8358 -5.60845Q16.9135 -5.60845 16.3744 -4.97776Q15.8352 -4.34706 15.8352 -3.24843Q15.8352 -2.15658 16.3744 -1.52249Q16.9135 -0.888401 17.8358 -0.888401Q18.7581 -0.888401 19.2973 -1.52249Q19.8364 -2.15658 19.8364 -3.24843Q19.8364 -4.34706 19.2973 -4.97776Q18.7581 -5.60845 17.8358 -5.60845ZM20.5553 -9.90126L20.5553 -8.65343Q20.0399 -8.89757 19.5143 -9.02642Q18.9887 -9.15527 18.4733 -9.15527Q17.117 -9.15527 16.4015 -8.23975Q15.686 -7.32422 15.5843 -5.47282Q15.9844 -6.06282 16.588 -6.37817Q17.1916 -6.69352 17.9172 -6.69352Q19.4431 -6.69352 20.3281 -5.76782Q21.2131 -4.84212 21.2131 -3.24843Q21.2131 -1.68864 20.2908 -0.745985Q19.3685 0.196669 17.8358 0.196669Q16.0794 0.196669 15.1503 -1.1495Q14.2212 -2.49566 14.2212 -5.05235Q14.2212 -7.45307 15.3605 -8.88062Q16.4998 -10.3082 18.4191 -10.3082Q18.9345 -10.3082 19.46 -10.2064Q19.9856 -10.1047 20.5553 -9.90126Z" fill="#262626" transform="translate(408.27272727272725,468.6111111111111) translate(-11.043972969055176,0)" />
<line x1="457.5454545454545" y1="444.6" x2="457.5454545454545" y2="449.8611111111111" stroke="#262626" stroke-width="1.1111111111111112" />
<path d="M4.41488 -9.22309Q3.35693 -9.22309 2.82457 -8.1821Q2.29221 -7.14111 2.29221 -5.05235Q2.29221 -2.97038 2.82457 -1.92939Q3.35693 -0.888401 4.41488 -0.888401Q5.4796 -0.888401 6.01196 -1.92939Q6.54433 -2.97038 6.54433 -5.05235Q6.54433 -7.14111 6.01196 -8.1821Q5.4796 -9.22309 4.41488 -9.22309ZM4.41488 -10.3082Q6.11708 -10.3082 7.01565 -8.962Q7.91422 -7.61583 7.91423 -5.05235Q7.91423 -2.49566 7.01565 -1.1495Q6.11708 0.196669 4.41488 0.196669Q2.71267 0.196669 1.8141 -1.1495Q0.915527 -2.49566 0.915527 -5.05235Q0.915527 -7.61583 1.8141 -8.962Q2.71267 -10.3082 4.41488 -10.3082ZM10.3217 -1.72255L11.7527 -1.72255L11.7527 0L10.3217 0L10.3217 -1.72255ZM14.3907 -10.1251L20.9012 -10.1251L20.9012 -9.54183L17.2255 0L15.7945 0L19.2532 -8.97217L14.3907 -8.97217L14.3907 -10.1251Z" fill="#262626" transform="translate(457.5454545454545,468.6111111111111) translate(-11.043972969055176,0)" />
<line x1="506.8181818181818" y1="444.6" x2="506.8181818181818" y2="449.8611111111111" stroke="#262626" stroke-width="1.1111111111111112" />
<path d="M4.41488 -9.22309Q3.35693 -9.22309 2.82457 -8.1821Q2.29221 -7.14111 2.29221 -5.05235Q2.29221 -2.97038 2.82457 -1.92939Q3.35693 -0.888401 4.41488 -0.888401Q5.4796 -0.888401 6.01196 -1.92939Q6.54433 -2.97038 6.54433 -5.05235Q6.54433 -7.14111 6.01196 -8.1821Q5.4796 -9.22309 4.41488 -9.22309ZM4.41488 -10.3082Q6.11708 -10.3082 7.01565 -8.962Q7.91422 -7.61583 7.91423 -5.05235Q7.91423 -2.49566 7.01565 -1.1495Q6.11708 0.196669 4.41488 0.196669Q2.71267 0.196669 1.8141 -1.1495Q0.915527 -2.49566 0.915527 -5.05235Q0.915527 -7.61583 1.8141 -8.962Q2.71267 -10.3082 4.41488 -10.3082ZM10.3217 -1.72255L11.7527 -1.72255L11.7527 0L10.3217 0L10.3217 -1.72255ZM17.6663 -4.80821Q16.6897 -4.80821 16.1302 -4.28602Q15.5707 -3.76383 15.5707 -2.84831Q15.5707 -1.93278 16.1302 -1.41059Q16.6897 -0.888401 17.6663 -0.888401Q18.6428 -0.888401 19.2057 -1.41398Q19.7686 -1.93956 19.7686 -2.84831Q19.7686 -3.76383 19.2091 -4.28602Q18.6496 -4.80821 17.6663 -4.80821ZM16.2964 -5.39144Q15.4148 -5.60845 14.9231 -6.21202Q14.4314 -6.81559 14.4314 -7.68365Q14.4314 -8.89757 15.2961 -9.60287Q16.1608 -10.3082 17.6663 -10.3082Q19.1786 -10.3082 20.0399 -9.60287Q20.9012 -8.89757 20.9012 -7.68365Q20.9012 -6.81559 20.4095 -6.21202Q19.9178 -5.60845 19.043 -5.39144Q20.0331 -5.16086 20.5858 -4.48947Q21.1385 -3.81809 21.1385 -2.84831Q21.1385 -1.37668 20.2399 -0.590007Q19.3414 0.196669 17.6663 0.196669Q15.9912 0.196669 15.0926 -0.590007Q14.1941 -1.37668 14.1941 -2.84831Q14.1941 -3.81809 14.7502 -4.48947Q15.3063 -5.16086 16.2964 -5.39144ZM15.7945 -7.5548Q15.7945 -6.76812 16.2862 -6.32731Q16.7779 -5.8865 17.6663 -5.8865Q18.5479 -5.8865 19.0464 -6.32731Q19.5448 -6.76812 19.5448 -7.5548Q19.5448 -8.34147 19.0464 -8.78228Q18.5479 -9.22309 17.6663 -9.22309Q16.7779 -9.22309 16.2862 -8.78228Q15.7945 -8.34147 15.7945 -7.5548Z" fill="#262626" transform="translate(506.8181818181818,468.6111111111111) translate(-11.043972969055176,0)" />
<line x1="556.0909090909091" y1="444.6" x2="556.0909090909091" y2="449.8611111111111" stroke="#262626" stroke-width="1.1111111111111112" />
<path d="M4.41488 -9.22309Q3.35693 -9.22309 2.82457 -8.1821Q2.29221 -7.14111 2.29221 -5.05235Q2.29221 -2.97038 2.82457 -1.92939Q3.35693 -0.888401 4.41488 -0.888401Q5.4796 -0.888401 6.01196 -1.92939Q6.54433 -2.97038 6.54433 -5.05235Q6.54433 -7.14111 6.01196 -8.1821Q5.4796 -9.22309 4.41488 -9.22309ZM4.41488 -10.3082Q6.11708 -10.3082 7.01565 -8.962Q7.91422 -7.61583 7.91423 -5.05235Q7.91423 -2.49566 7.01565 -1.1495Q6.11708 0.196669 4.41488 0.196669Q2.71267 0.196669 1.8141 -1.1495Q0.915527 -2.49566 0.915527 -5.05235Q0.915527 -7.61583 1.8141 -8.962Q2.71267 -10.3082 4.41488 -10.3082ZM10.3217 -1.72255L11.7527 -1.72255L11.7527 0L10.3217 0L10.3217 -1.72255ZM14.7773 -0.210232L14.7773 -1.45806Q15.2927 -1.21392 15.8217 -1.08507Q16.3506 -0.956217 16.8593 -0.956217Q18.2156 -0.956217 18.9311 -1.86835Q19.6465 -2.78049 19.7483 -4.63867Q19.3549 -4.05545 18.7514 -3.74349Q18.1478 -3.43153 17.4154 -3.43153Q15.8963 -3.43153 15.0113 -4.35045Q14.1262 -5.26937 14.1262 -6.86306Q14.1262 -8.42285 15.0486 -9.36551Q15.9709 -10.3082 17.5035 -10.3082Q19.26 -10.3082 20.1857 -8.962Q21.1114 -7.61583 21.1114 -5.05235Q21.1114 -2.65842 19.9755 -1.23088Q18.8395 0.196669 16.9203 0.196669Q16.4049 0.196669 15.8759 0.0949436Q15.347 -0.00678168 14.7773 -0.210232ZM17.5035 -4.50304Q18.4258 -4.50304 18.965 -5.13374Q19.5041 -5.76443 19.5041 -6.86306Q19.5041 -7.95491 18.965 -8.589Q18.4258 -9.22309 17.5035 -9.22309Q16.5812 -9.22309 16.0421 -8.589Q15.5029 -7.95492 15.5029 -6.86306Q15.5029 -5.76443 16.0421 -5.13374Q16.5812 -4.50304 17.5035 -4.50304Z" fill="#262626" transform="translate(556.0909090909091,468.6111111111111) translate(-11.043972969055176,0)" />
<line x1="605.3636363636364" y1="444.6" x2="605.3636363636364" y2="449.8611111111111" stroke="#262626" stroke-width="1.1111111111111112" />
<path d="M1.72255 -1.15289L3.9605 -1.15289L3.9605 -8.87722L1.52588 -8.38894L1.52588 -9.63677L3.94694 -10.1251L5.31684 -10.1251L5.31684 -1.15289L7.5548 -1.15289L7.5548 0L1.72255 0L1.72255 -1.15289ZM10.3217 -1.72255L11.7527 -1.72255L11.7527 0L10.3217 0L10.3217 -1.72255ZM17.6663 -9.22309Q16.6083 -9.22309 16.076 -8.1821Q15.5436 -7.14111 15.5436 -5.05235Q15.5436 -2.97038 16.076 -1.92939Q16.6083 -0.888401 17.6663 -0.888401Q18.731 -0.888401 19.2634 -1.92939Q19.7957 -2.97038 19.7957 -5.05235Q19.7957 -7.14111 19.2634 -8.1821Q18.731 -9.22309 17.6663 -9.22309ZM17.6663 -10.3082Q19.3685 -10.3082 20.2671 -8.962Q21.1656 -7.61583 21.1656 -5.05235Q21.1656 -2.49566 20.2671 -1.1495Q19.3685 0.196669 17.6663 0.196669Q15.9641 0.196669 15.0655 -1.1495Q14.1669 -2.49566 14.1669 -5.05235Q14.1669 -7.61583 15.0655 -8.962Q15.9641 -10.3082 17.6663 -10.3082Z" fill="#262626" transform="translate(605.3636363636364,468.6111111111111) translate(-11.043972969055176,0)" />
<line x1="83.13888888888889" y1="427.5" x2="88.4" y2="427.5" stroke="#262626" stroke-width="1.1111111111111112" />
<path d="M4.41488 -9.22309Q3.35693 -9.22309 2.82457 -8.1821Q2.29221 -7.14111 2.29221 -5.05235Q2.29221 -2.97038 2.82457 -1.92939Q3.35693 -0.888401 4.41488 -0.888401Q5.4796 -0.888401 6.01196 -1.92939Q6.54433 -2.97038 6.54433 -5.05235Q6.54433 -7.14111 6.01196 -8.1821Q5.4796 -9.22309 4.41488 -9.22309ZM4.41488 -10.3082Q6.11708 -10.3082 7.01565 -8.962Q7.91422 -7.61583 7.91423 -5.05235Q7.91423 -2.49566 7.01565 -1.1495Q6.11708 0.196669 4.41488 0.196669Q2.71267 0.196669 1.8141 -1.1495Q0.915527 -2.49566 0.915527 -5.05235Q0.915527 -7.61583 1.8141 -8.962Q2.71267 -10.3082 4.41488 -10.3082ZM10.3217 -1.72255L11.7527 -1.72255L11.7527 0L10.3217 0L10.3217 -1.72255ZM17.6663 -9.22309Q16.6083 -9.22309 16.076 -8.1821Q15.5436 -7.14111 15.5436 -5.05235Q15.5436 -2.97038 16.076 -1.92939Q16.6083 -0.888401 17.6663 -0.888401Q18.731 -0.888401 19.2634 -1.92939Q19.7957 -2.97038 19.7957 -5.05235Q19.7957 -7.14111 19.2634 -8.1821Q18.731 -9.22309 17.6663 -9.22309ZM17.6663 -10.3082Q19.3685 -10.3082 20.2671 -8.962Q21.1656 -7.61583 21.1656 -5.05235Q21.1656 -2.49566 20.2671 -1.1495Q19.3685 0.196669 17.6663 0.196669Q15.9641 0.196669 15.0655 -1.1495Q14.1669 -2.49566 14.1669 -5.05235Q14.1669 -7.61583 15.0655 -8.962Q15.9641 -10.3082 17.6663 -10.3082Z" fill="#262626" transform="translate(78.27777777777777,431.5) translate(-22.08794593811035,0)" />
<line x1="83.13888888888889" y1="392.5" x2="88.4" y2="392.5" stroke="#262626" stroke-width="1.1111111111111112" />
<path d="M4.41488 -9.22309Q3.35693 -9.22309 2.82457 -8.1821Q2.29221 -7.14111 2.29221 -5.05235Q2.29221 -2.97038 2.82457 -1.92939Q3.35693 -0.888401 4.41488 -0.888401Q5.4796 -0.888401 6.01196 -1.92939Q6.54433 -2.97038 6.54433 -5.05235Q6.54433 -7.14111 6.01196 -8.1821Q5.4796 -9.22309 4.41488 -9.22309ZM4.41488 -10.3082Q6.11708 -10.3082 7.01565 -8.962Q7.91422 -7.61583 7.91423 -5.05235Q7.91423 -2.49566 7.01565 -1.1495Q6.11708 0.196669 4.41488 0.196669Q2.71267 0.196669 1.8141 -1.1495Q0.915527 -2.49566 0.915527 -5.05235Q0.915527 -7.61583 1.8141 -8.962Q2.71267 -10.3082 4.41488 -10.3082ZM10.3217 -1.72255L11.7527 -1.72255L11.7527 0L10.3217 0L10.3217 -1.72255ZM14.974 -1.15289L17.2119 -1.15289L17.2119 -8.87722L14.7773 -8.38894L14.7773 -9.63677L17.1984 -10.1251L18.5683 -10.1251L18.5683 -1.15289L20.8062 -1.15289L20.8062 0L14.974 0L14.974 -1.15289Z" fill="#262626" transform="translate(78.27777777777777,396.5) translate(-22.08794593811035,0)" />
<line x1="83.13888888888889" y1="357.5" x2="88.4" y2="357.5" stroke="#262626" stroke-width="1.1111111111111112" />
<path d="M4.41488 -9.22309Q3.35693 -9.22309 2.82457 -8.1821Q2.29221 -7.14111 2.29221 -5.05235Q2.29221 -2.97038 2.82457 -1.92939Q3.35693 -0.888401 4.41488 -0.888401Q5.4796 -0.888401 6.01196 -1.92939Q6.54433 -2.97038 6.54433 -5.05235Q6.54433 -7.14111 6.01196 -8.1821Q5.4796 -9.22309 4.41488 -9.22309ZM4.41488 -10.3082Q6.11708 -10.3082 7.01565 -8.962Q7.91422 -7.61583 7.91423 -5.05235Q7.91423 -2.49566 7.01565 -1.1495Q6.11708 0.196669 4.41488 0.196669Q2.71267 0.196669 1.8141 -1.1495Q0.915527 -2.49566 0.915527 -5.05235Q0.915527 -7.61583 1.8141 -8.962Q2.71267 -10.3082 4.41488 -10.3082ZM10.3217 -1.72255L11.7527 -1.72255L11.7527 0L10.3217 0L10.3217 -1.72255ZM15.9166 -1.15289L20.6977 -1.15289L20.6977 0L14.2687 0L14.2687 -1.15289Q15.0486 -1.95991 16.3947 -3.31963Q17.7409 -4.67936 18.0868 -5.0727Q18.7446 -5.8119 19.0057 -6.32392Q19.2668 -6.83594 19.2668 -7.331Q19.2668 -8.13802 18.7005 -8.64665Q18.1342 -9.15527 17.2255 -9.15527Q16.5812 -9.15527 15.8658 -8.93148Q15.1503 -8.70768 14.3365 -8.25331L14.3365 -9.63677Q15.1638 -9.96908 15.8827 -10.1386Q16.6016 -10.3082 17.1984 -10.3082Q18.7717 -10.3082 19.7076 -9.52148Q20.6434 -8.73481 20.6434 -7.41916Q20.6434 -6.79525 20.4095 -6.23576Q20.1755 -5.67627 19.5584 -4.91672Q19.3888 -4.72005 18.4801 -3.78079Q17.5713 -2.84153 15.9166 -1.15289Z" fill="#262626" transform="translate(78.27777777777777,361.5) translate(-22.08794593811035,0)" />
<line x1="83.13888888888889" y1="322.5" x2="88.4" y2="322.5" stroke="#262626" stroke-width="1.1111111111111112" />
<path d="M4.41488 -9.22309Q3.35693 -9.22309 2.82457 -8.1821Q2.29221 -7.14111 2.29221 -5.05235Q2.29221 -2.97038 2.82457 -1.92939Q3.35693 -0.888401 4.41488 -0.888401Q5.4796 -0.888401 6.01196 -1.92939Q6.54433 -2.97038 6.54433 -5.05235Q6.54433 -7.14111 6.01196 -8.1821Q5.4796 -9.22309 4.41488 -9.22309ZM4.41488 -10.3082Q6.11708 -10.3082 7.01565 -8.962Q7.91422 -7.61583 7.91423 -5.05235Q7.91423 -2.49566 7.01565 -1.1495Q6.11708 0.196669 4.41488 0.196669Q2.71267 0.196669 1.8141 -1.1495Q0.915527 -2.49566 0.915527 -5.05235Q0.915527 -7.61583 1.8141 -8.962Q2.71267 -10.3082 4.41488 -10.3082ZM10.3217 -1.72255L11.7527 -1.72255L11.7527 0L10.3217 0L10.3217 -1.72255ZM18.887 -5.45926Q19.8703 -5.24902 20.423 -4.58442Q20.9757 -3.91981 20.9757 -2.94325Q20.9757 -1.4445 19.9449 -0.623915Q18.9141 0.196669 17.0152 0.196669Q16.3778 0.196669 15.703 0.0712077Q15.0282 -0.0542535 14.3094 -0.305176L14.3094 -1.6276Q14.879 -1.2953 15.5572 -1.12576Q16.2354 -0.956217 16.9746 -0.956217Q18.2631 -0.956217 18.9379 -1.46484Q19.6126 -1.97347 19.6126 -2.94325Q19.6126 -3.83843 18.9853 -4.34367Q18.358 -4.8489 17.239 -4.8489L16.059 -4.8489L16.059 -5.97466L17.2933 -5.97466Q18.3038 -5.97466 18.8395 -6.37817Q19.3753 -6.78168 19.3753 -7.54123Q19.3753 -8.32113 18.8226 -8.7382Q18.2699 -9.15527 17.239 -9.15527Q16.6762 -9.15527 16.0319 -9.0332Q15.3876 -8.91113 14.6145 -8.65343L14.6145 -9.87413Q15.3944 -10.0911 16.076 -10.1997Q16.7575 -10.3082 17.3611 -10.3082Q18.9209 -10.3082 19.8296 -9.59947Q20.7384 -8.89079 20.7384 -7.68365Q20.7384 -6.84272 20.2569 -6.26289Q19.7754 -5.68305 18.887 -5.45926Z" fill="#262626" transform="translate(78.27777777777777,326.5) translate(-22.08794593811035,0)" />
<line x1="83.13888888888889" y1="287.5" x2="88.4" y2="287.5" stroke="#262626" stroke-width="1.1111111111111112" />
<path d="M4.41488 -9.22309Q3.35693 -9.22309 2.82457 -8.1821Q2.29221 -7.14111 2.29221 -5.05235Q2.29221 -2.97038 2.82457 -1.92939Q3.35693 -0.888401 4.41488 -0.888401Q5.4796 -0.888401 6.01196 -1.92939Q6.54433 -2.97038 6.54433 -5.05235Q6.54433 -7.14111 6.01196 -8.1821Q5.4796 -9.22309 4.41488 -9.22309ZM4.41488 -10.3082Q6.11708 -10.3082 7.01565 -8.962Q7.91422 -7.61583 7.91423 -5.05235Q7.91423 -2.49566 7.01565 -1.1495Q6.11708 0.196669 4.41488 0.196669Q2.71267 0.196669 1.8141 -1.1495Q0.915527 -2.49566 0.915527 -5.05235Q0.915527 -7.61583 1.8141 -8.962Q2.71267 -10.3082 4.41488 -10.3082ZM10.3217 -1.72255L11.7527 -1.72255L11.7527 0L10.3217 0L10.3217 -1.72255ZM18.5004 -8.93148L15.0418 -3.52648L18.5004 -3.52648L18.5004 -8.93148ZM18.141 -10.1251L19.8636 -10.1251L19.8636 -3.52648L21.3081 -3.52648L21.3081 -2.38715L19.8636 -2.38715L19.8636 0L18.5004 0L18.5004 -2.38715L13.9296 -2.38715L13.9296 -3.70958L18.141 -10.1251Z" fill="#262626" transform="translate(78.27777777777777,291.5) translate(-22.08794593811035,0)" />
<line x1="83.13888888888889" y1="252.5" x2="88.4" y2="252.5" stroke="#262626" stroke-width="1.1111111111111112" />
<path d="M4.41488 -9.22309Q3.35693 -9.22309 2.82457 -8.1821Q2.29221 -7.14111 2.29221 -5.05235Q2.29221 -2.97038 2.82457 -1.92939Q3.35693 -0.888401 4.41488 -0.888401Q5.4796 -0.888401 6.01196 -1.92939Q6.54433 -2.97038 6.54433 -5.05235Q6.54433 -7.14111 6.01196 -8.1821Q5.4796 -9.22309 4.41488 -9.22309ZM4.41488 -10.3082Q6.11708 -10.3082 7.01565 -8.962Q7.91422 -7.61583 7.91423 -5.05235Q7.91423 -2.49566 7.01565 -1.1495Q6.11708 0.196669 4.41488 0.196669Q2.71267 0.196669 1.8141 -1.1495Q0.915527 -2.49566 0.915527 -5.05235Q0.915527 -7.61583 1.8141 -8.962Q2.71267 -10.3082 4.41488 -10.3082ZM10.3217 -1.72255L11.7527 -1.72255L11.7527 0L10.3217 0L10.3217 -1.72255ZM14.7502 -10.1251L20.128 -10.1251L20.128 -8.97217L16.0048 -8.97217L16.0048 -6.49007Q16.3032 -6.5918 16.6016 -6.64266Q16.9 -6.69352 17.1984 -6.69352Q18.8938 -6.69352 19.8839 -5.76443Q20.874 -4.83534 20.874 -3.24843Q20.874 -1.61404 19.8568 -0.708686Q18.8395 0.196669 16.9881 0.196669Q16.3506 0.196669 15.6894 0.0881619C15.2486 0.0158239 14.7931 -0.092683 14.3229 -0.237359L14.3229 -1.61404Q14.9333 -1.28174 15.5843 -1.11898Q16.2354 -0.956217 16.961 -0.956217Q18.1342 -0.956217 18.8192 -1.57335Q19.5041 -2.19048 19.5041 -3.24843Q19.5041 -4.30637 18.8192 -4.9235Q18.1342 -5.54064 16.961 -5.54064Q16.4117 -5.54064 15.8658 -5.41857Q15.3198 -5.2965 14.7502 -5.03879L14.7502 -10.1251Z" fill="#262626" transform="translate(78.27777777777777,256.5) translate(-22.08794593811035,0)" />
<line x1="83.13888888888889" y1="217.5" x2="88.4" y2="217.5" stroke="#262626" stroke-width="1.1111111111111112" />
<path d="M4.41488 -9.22309Q3.35693 -9.22309 2.82457 -8.1821Q2.29221 -7.14111 2.29221 -5.05235Q2.29221 -2.97038 2.82457 -1.92939Q3.35693 -0.888401 4.41488 -0.888401Q5.4796 -0.888401 6.01196 -1.92939Q6.54433 -2.97038 6.54433 -5.05235Q6.54433 -7.14111 6.01196 -8.1821Q5.4796 -9.22309 4.41488 -9.22309ZM4.41488 -10.3082Q6.11708 -10.3082 7.01565 -8.962Q7.91422 -7.61583 7.91423 -5.05235Q7.91423 -2.49566 7.01565 -1.1495Q6.11708 0.196669 4.41488 0.196669Q2.71267 0.196669 1.8141 -1.1495Q0.915527 -2.49566 0.915527 -5.05235Q0.915527 -7.61583 1.8141 -8.962Q2.71267 -10.3082 4.41488 -10.3082ZM10.3217 -1.72255L11.7527 -1.72255L11.7527 0L10.3217 0L10.3217 -1.72255ZM17.8358 -5.60845Q16.9135 -5.60845 16.3744 -4.97776Q15.8352 -4.34706 15.8352 -3.24843Q15.8352 -2.15658 16.3744 -1.52249Q16.9135 -0.888401 17.8358 -0.888401Q18.7581 -0.888401 19.2973 -1.52249Q19.8364 -2.15658 19.8364 -3.24843Q19.8364 -4.34706 19.2973 -4.97776Q18.7581 -5.60845 17.8358 -5.60845ZM20.5553 -9.90126L20.5553 -8.65343Q20.0399 -8.89757 19.5143 -9.02642Q18.9887 -9.15527 18.4733 -9.15527Q17.117 -9.15527 16.4015 -8.23975Q15.686 -7.32422 15.5843 -5.47282Q15.9844 -6.06282 16.588 -6.37817Q17.1916 -6.69352 17.9172 -6.69352Q19.4431 -6.69352 20.3281 -5.76782Q21.2131 -4.84212 21.2131 -3.24843Q21.2131 -1.68864 20.2908 -0.745985Q19.3685 0.196669 17.8358 0.196669Q16.0794 0.196669 15.1503 -1.1495Q14.2212 -2.49566 14.2212 -5.05235Q14.2212 -7.45307 15.3605 -8.88062Q16.4998 -10.3082 18.4191 -10.3082Q18.9345 -10.3082 19.46 -10.2064Q19.9856 -10.1047 20.5553 -9.90126Z" fill="#262626" transform="translate(78.27777777777777,221.5) translate(-22.08794593811035,0)" />
<line x1="83.13888888888889" y1="182.50000000000003" x2="88.4" y2="182.50000000000003" stroke="#262626" stroke-width="1.1111111111111112" />
<path d="M4.41488 -9.22309Q3.35693 -9.22309 2.82457 -8.1821Q2.29221 -7.14111 2.29221 -5.05235Q2.29221 -2.97038 2.82457 -1.92939Q3.35693 -0.888401 4.41488 -0.888401Q5.4796 -0.888401 6.01196 -1.92939Q6.54433 -2.97038 6.54433 -5.05235Q6.54433 -7.14111 6.01196 -8.1821Q5.4796 -9.22309 4.41488 -9.22309ZM4.41488 -10.3082Q6.11708 -10.3082 7.01565 -8.962Q7.91422 -7.61583 7.91423 -5.05235Q7.91423 -2.49566 7.01565 -1.1495Q6.11708 0.196669 4.41488 0.196669Q2.71267 0.196669 1.8141 -1.1495Q0.915527 -2.49566 0.915527 -5.05235Q0.915527 -7.61583 1.8141 -8.962Q2.71267 -10.3082 4.41488 -10.3082ZM10.3217 -1.72255L11.7527 -1.72255L11.7527 0L10.3217 0L10.3217 -1.72255ZM14.3907 -10.1251L20.9012 -10.1251L20.9012 -9.54183L17.2255 0L15.7945 0L19.2532 -8.97217L14.3907 -8.97217L14.3907 -10.1251Z" fill="#262626" transform="translate(78.27777777777777,186.50000000000003) translate(-22.08794593811035,0)" />
<line x1="83.13888888888889" y1="147.5" x2="88.4" y2="147.5" stroke="#262626" stroke-width="1.1111111111111112" />
<path d="M4.41488 -9.22309Q3.35693 -9.22309 2.82457 -8.1821Q2.29221 -7.14111 2.29221 -5.05235Q2.29221 -2.97038 2.82457 -1.92939Q3.35693 -0.888401 4.41488 -0.888401Q5.4796 -0.888401 6.01196 -1.92939Q6.54433 -2.97038 6.54433 -5.05235Q6.54433 -7.14111 6.01196 -8.1821Q5.4796 -9.22309 4.41488 -9.22309ZM4.41488 -10.3082Q6.11708 -10.3082 7.01565 -8.962Q7.91422 -7.61583 7.91423 -5.05235Q7.91423 -2.49566 7.01565 -1.1495Q6.11708 0.196669 4.41488 0.196669Q2.71267 0.196669 1.8141 -1.1495Q0.915527 -2.49566 0.915527 -5.05235Q0.915527 -7.61583 1.8141 -8.962Q2.71267 -10.3082 4.41488 -10.3082ZM10.3217 -1.72255L11.7527 -1.72255L11.7527 0L10.3217 0L10.3217 -1.72255ZM17.6663 -4.80821Q16.6897 -4.80821 16.1302 -4.28602Q15.5707 -3.76383 15.5707 -2.84831Q15.5707 -1.93278 16.1302 -1.41059Q16.6897 -0.888401 17.6663 -0.888401Q18.6428 -0.888401 19.2057 -1.41398Q19.7686 -1.93956 19.7686 -2.84831Q19.7686 -3.76383 19.2091 -4.28602Q18.6496 -4.80821 17.6663 -4.80821ZM16.2964 -5.39144Q15.4148 -5.60845 14.9231 -6.21202Q14.4314 -6.81559 14.4314 -7.68365Q14.4314 -8.89757 15.2961 -9.60287Q16.1608 -10.3082 17.6663 -10.3082Q19.1786 -10.3082 20.0399 -9.60287Q20.9012 -8.89757 20.9012 -7.68365Q20.9012 -6.81559 20.4095 -6.21202Q19.9178 -5.60845 19.043 -5.39144Q20.0331 -5.16086 20.5858 -4.48947Q21.1385 -3.81809 21.1385 -2.84831Q21.1385 -1.37668 20.2399 -0.590007Q19.3414 0.196669 17.6663 0.196669Q15.9912 0.196669 15.0926 -0.590007Q14.1941 -1.37668 14.1941 -2.84831Q14.1941 -3.81809 14.7502 -4.48947Q15.3063 -5.16086 16.2964 -5.39144ZM15.7945 -7.5548Q15.7945 -6.76812 16.2862 -6.32731Q16.7779 -5.8865 17.6663 -5.8865Q18.5479 -5.8865 19.0464 -6.32731Q19.5448 -6.76812 19.5448 -7.5548Q19.5448 -8.34147 19.0464 -8.78228Q18.5479 -9.22309 17.6663 -9.22309Q16.7779 -9.22309 16.2862 -8.78228Q15.7945 -8.34147 15.7945 -7.5548Z" fill="#262626" transform="translate(78.27777777777777,151.5) translate(-22.08794593811035,0)" />
<line x1="83.13888888888889" y1="112.5" x2="88.4" y2="112.5" stroke="#262626" stroke-width="1.1111111111111112" />
<path d="M4.41488 -9.22309Q3.35693 -9.22309 2.82457 -8.1821Q2.29221 -7.14111 2.29221 -5.05235Q2.29221 -2.97038 2.82457 -1.92939Q3.35693 -0.888401 4.41488 -0.888401Q5.4796 -0.888401 6.01196 -1.92939Q6.54433 -2.97038 6.54433 -5.05235Q6.54433 -7.14111 6.01196 -8.1821Q5.4796 -9.22309 4.41488 -9.22309ZM4.41488 -10.3082Q6.11708 -10.3082 7.01565 -8.962Q7.91422 -7.61583 7.91423 -5.05235Q7.91423 -2.49566 7.01565 -1.1495Q6.11708 0.196669 4.41488 0.196669Q2.71267 0.196669 1.8141 -1.1495Q0.915527 -2.49566 0.915527 -5.05235Q0.915527 -7.61583 1.8141 -8.962Q2.71267 -10.3082 4.41488 -10.3082ZM10.3217 -1.72255L11.7527 -1.72255L11.7527 0L10.3217 0L10.3217 -1.72255ZM14.7773 -0.210232L14.7773 -1.45806Q15.2927 -1.21392 15.8217 -1.08507Q16.3506 -0.956217 16.8593 -0.956217Q18.2156 -0.956217 18.9311 -1.86835Q19.6465 -2.78049 19.7483 -4.63867Q19.3549 -4.05545 18.7514 -3.74349Q18.1478 -3.43153 17.4154 -3.43153Q15.8963 -3.43153 15.0113 -4.35045Q14.1262 -5.26937 14.1262 -6.86306Q14.1262 -8.42285 15.0486 -9.36551Q15.9709 -10.3082 17.5035 -10.3082Q19.26 -10.3082 20.1857 -8.962Q21.1114 -7.61583 21.1114 -5.05235Q21.1114 -2.65842 19.9755 -1.23088Q18.8395 0.196669 16.9203 0.196669Q16.4049 0.196669 15.8759 0.0949436Q15.347 -0.00678168 14.7773 -0.210232ZM17.5035 -4.50304Q18.4258 -4.50304 18.965 -5.13374Q19.5041 -5.76443 19.5041 -6.86306Q19.5041 -7.95491 18.965 -8.589Q18.4258 -9.22309 17.5035 -9.22309Q16.5812 -9.22309 16.0421 -8.589Q15.5029 -7.95492 15.5029 -6.86306Q15.5029 -5.76443 16.0421 -5.13374Q16.5812 -4.50304 17.5035 -4.50304Z" fill="#262626" transform="translate(78.27777777777777,116.5) translate(-22.08794593811035,0)" />
<line x1="83.13888888888889" y1="77.5" x2="88.4" y2="77.5" stroke="#262626" stroke-width="1.1111111111111112" />
<path d="M1.72255 -1.15289L3.9605 -1.15289L3.9605 -8.87722L1.52588 -8.38894L1.52588 -9.63677L3.94694 -10.1251L5.31684 -10.1251L5.31684 -1.15289L7.5548 -1.15289L7.5548 0L1.72255 0L1.72255 -1.15289ZM10.3217 -1.72255L11.7527 -1.72255L11.7527 0L10.3217 0L10.3217 -1.72255ZM17.6663 -9.22309Q16.6083 -9.22309 16.076 -8.1821Q15.5436 -7.14111 15.5436 -5.05235Q15.5436 -2.97038 16.076 -1.92939Q16.6083 -0.888401 17.6663 -0.888401Q18.731 -0.888401 19.2634 -1.92939Q19.7957 -2.97038 19.7957 -5.05235Q19.7957 -7.14111 19.2634 -8.1821Q18.731 -9.22309 17.6663 -9.22309ZM17.6663 -10.3082Q19.3685 -10.3082 20.2671 -8.962Q21.1656 -7.61583 21.1656 -5.05235Q21.1656 -2.49566 20.2671 -1.1495Q19.3685 0.196669 17.6663 0.196669Q15.9641 0.196669 15.0655 -1.1495Q14.1669 -2.49566 14.1669 -5.05235Q14.1669 -7.61583 15.0655 -8.962Q15.9641 -10.3082 17.6663 -10.3082Z" fill="#262626" transform="translate(78.27777777777777,81.5) translate(-22.08794593811035,0)" />
<rect x="88" y="62" width="542" height="73" fill="#2980B9" />
<path d="M6.12305 -7.00195L3.53027 0L2.62695 0L0.0878906 -7.00195L1.00098 -7.00195L2.93945 -1.4502Q3.03223 -1.18164 3.08105 -0.830078L3.10059 -0.830078Q3.13965 -1.12305 3.26172 -1.45996L5.23926 -7.00195L6.12305 -7.00195ZM7.43164 -6.26953Q7.2168 -6.26953 7.06543 -6.41602Q6.91406 -6.5625 6.91406 -6.78711Q6.91406 -7.01172 7.06543 -7.16064Q7.2168 -7.30957 7.43164 -7.30957Q7.65137 -7.30957 7.80518 -7.16064Q7.95898 -7.01172 7.95898 -6.78711Q7.95898 -6.57227 7.80518 -6.4209Q7.65137 -6.26953 7.43164 -6.26953ZM7.82227 0L7.02148 0L7.02148 -5L7.82227 -5L7.82227 0ZM9.14063 -0.180664L9.14063 -1.04004Q9.79492 -0.556641 10.5811 -0.556641Q11.6357 -0.556641 11.6357 -1.25977Q11.6357 -1.45996 11.5454 -1.59912Q11.4551 -1.73828 11.3013 -1.8457Q11.1475 -1.95313 10.9399 -2.03857Q10.7324 -2.12402 10.4932 -2.2168Q10.1611 -2.34863 9.90967 -2.48291Q9.6582 -2.61719 9.48975 -2.78564Q9.32129 -2.9541 9.23584 -3.16895Q9.15039 -3.38379 9.15039 -3.67188Q9.15039 -4.02344 9.31152 -4.29443Q9.47266 -4.56543 9.74121 -4.74854Q10.0098 -4.93164 10.354 -5.02441Q10.6982 -5.11719 11.0645 -5.11719Q11.7139 -5.11719 12.2266 -4.89258L12.2266 -4.08203Q11.6748 -4.44336 10.957 -4.44336Q10.7324 -4.44336 10.5518 -4.39209Q10.3711 -4.34082 10.2417 -4.24805Q10.1123 -4.15527 10.0415 -4.02588Q9.9707 -3.89648 9.9707 -3.74023Q9.9707 -3.54492 10.0415 -3.41309Q10.1123 -3.28125 10.249 -3.17871Q10.3857 -3.07617 10.5811 -2.99316Q10.7764 -2.91016 11.0254 -2.8125Q11.3574 -2.68555 11.6211 -2.55127Q11.8848 -2.41699 12.0703 -2.24854Q12.2559 -2.08008 12.356 -1.86035Q12.4561 -1.64063 12.4561 -1.33789Q12.4561 -0.966797 12.2925 -0.693359Q12.1289 -0.419922 11.8555 -0.239258Q11.582 -0.0585938 11.2256 0.0292969Q10.8691 0.117188 10.4785 0.117188Q9.70703 0.117188 9.14063 -0.180664ZM14.0967 -6.26953Q13.8818 -6.26953 13.7305 -6.41602Q13.5791 -6.5625 13.5791 -6.78711Q13.5791 -7.01172 13.7305 -7.16064Q13.8818 -7.30957 14.0967 -7.30957Q14.3164 -7.30957 14.4702 -7.16064Q14.624 -7.01172 14.624 -6.78711Q14.624 -6.57227 14.4702 -6.4209Q14.3164 -6.26953 14.0967 -6.26953ZM14.4873 0L13.6865 0L13.6865 -5L14.4873 -5L14.4873 0ZM18.4277 -0.0488281Q18.1445 0.107422 17.6807 0.107422Q16.3672 0.107422 16.3672 -1.35742L16.3672 -4.31641L15.5078 -4.31641L15.5078 -5L16.3672 -5L16.3672 -6.2207L17.168 -6.47949L17.168 -5L18.4277 -5L18.4277 -4.31641L17.168 -4.31641L17.168 -1.49902Q17.168 -0.996094 17.3389 -0.78125Q17.5098 -0.566406 17.9053 -0.566406Q18.208 -0.566406 18.4277 -0.732422L18.4277 -0.0488281ZM21.5869 0.117188Q20.4785 0.117188 19.8169 -0.583496Q19.1553 -1.28418 19.1553 -2.44141Q19.1553 -3.70117 19.8438 -4.40918Q20.5322 -5.11719 21.7041 -5.11719Q22.8223 -5.11719 23.4497 -4.42871Q24.0771 -3.74023 24.0771 -2.51953Q24.0771 -1.32324 23.4009 -0.603027Q22.7246 0.117188 21.5869 0.117188ZM21.6455 -4.44336Q20.874 -4.44336 20.4248 -3.91846Q19.9756 -3.39355 19.9756 -2.4707Q19.9756 -1.58203 20.4297 -1.06934Q20.8838 -0.556641 21.6455 -0.556641Q22.4219 -0.556641 22.8394 -1.05957Q23.2568 -1.5625 23.2568 -2.49023Q23.2568 -3.42773 22.8394 -3.93555Q22.4219 -4.44336 21.6455 -4.44336ZM27.9639 -4.18945Q27.7539 -4.35059 27.3584 -4.35059Q26.8457 -4.35059 26.5015 -3.86719Q26.1572 -3.38379 26.1572 -2.54883L26.1572 0L25.3564 0L25.3564 -5L26.1572 -5L26.1572 -3.96973L26.1768 -3.96973Q26.3477 -4.49707 26.6992 -4.79248Q27.0508 -5.08789 27.4854 -5.08789Q27.7979 -5.08789 27.9639 -5.01953L27.9639 -4.18945ZM28.5303 -0.180664L28.5303 -1.04004Q29.1846 -0.556641 29.9707 -0.556641Q31.0254 -0.556641 31.0254 -1.25977Q31.0254 -1.45996 30.9351 -1.59912Q30.8447 -1.73828 30.6909 -1.8457Q30.5371 -1.95313 30.3296 -2.03857Q30.1221 -2.12402 29.8828 -2.2168Q29.5508 -2.34863 29.2993 -2.48291Q29.0479 -2.61719 28.8794 -2.78564Q28.7109 -2.9541 28.6255 -3.16895Q28.54 -3.38379 28.54 -3.67188Q28.54 -4.02344 28.7012 -4.29443Q28.8623 -4.56543 29.1309 -4.74854Q29.3994 -4.93164 29.7437 -5.02441Q30.0879 -5.11719 30.4541 -5.11719Q31.1035 -5.11719 31.6162 -4.89258L31.6162 -4.08203Q31.0645 -4.44336 30.3467 -4.44336Q30.1221 -4.44336 29.9414 -4.39209Q29.7607 -4.34082 29.6313 -4.24805Q29.502 -4.15527 29.4312 -4.02588Q29.3604 -3.89648 29.3604 -3.74023Q29.3604 -3.54492 29.4312 -3.41309Q29.502 -3.28125 29.6387 -3.17871Q29.7754 -3.07617 29.9707 -2.99316Q30.166 -2.91016 30.415 -2.8125Q30.7471 -2.68555 31.0107 -2.55127Q31.2744 -2.41699 31.46 -2.24854Q31.6455 -2.08008 31.7456 -1.86035Q31.8457 -1.64063 31.8457 -1.33789Q31.8457 -0.966797 31.6821 -0.693359Q31.5186 -0.419922 31.2451 -0.239258Q30.9717 -0.0585938 30.6152 0.0292969Q30.2588 0.117188 29.8682 0.117188Q29.0967 0.117188 28.5303 -0.180664Z" transform="translate(359,102.5) translate(-16.1328125,0)" />
<rect x="254.09677419354838" y="139" width="209.80645161290323" height="73" fill="#27AE60" />
<path d="M0.59082 -0.283203L0.59082 -1.25Q0.756836 -1.10352 0.98877 -0.986328Q1.2207 -0.869141 1.47705 -0.788574Q1.7334 -0.708008 1.99219 -0.664063Q2.25098 -0.620117 2.4707 -0.620117Q3.22754 -0.620117 3.60107 -0.900879Q3.97461 -1.18164 3.97461 -1.70898Q3.97461 -1.99219 3.8501 -2.20215Q3.72559 -2.41211 3.50586 -2.58545Q3.28613 -2.75879 2.98584 -2.91748Q2.68555 -3.07617 2.33887 -3.25195Q1.97266 -3.4375 1.65527 -3.62793Q1.33789 -3.81836 1.10352 -4.04785Q0.869141 -4.27734 0.734863 -4.56787Q0.600586 -4.8584 0.600586 -5.24902Q0.600586 -5.72754 0.810547 -6.08154Q1.02051 -6.43555 1.3623 -6.66504Q1.7041 -6.89453 2.14111 -7.00684Q2.57812 -7.11914 3.03223 -7.11914Q4.06738 -7.11914 4.54102 -6.87012L4.54102 -5.94727Q3.9209 -6.37695 2.94922 -6.37695Q2.68066 -6.37695 2.41211 -6.3208Q2.14355 -6.26465 1.93359 -6.1377Q1.72363 -6.01074 1.5918 -5.81055Q1.45996 -5.61035 1.45996 -5.32227Q1.45996 -5.05371 1.56006 -4.8584Q1.66016 -4.66309 1.85547 -4.50195Q2.05078 -4.34082 2.33154 -4.18945Q2.6123 -4.03809 2.97852 -3.85742Q3.35449 -3.67187 3.69141 -3.4668Q4.02832 -3.26172 4.28223 -3.0127Q4.53613 -2.76367 4.68506 -2.46094Q4.83398 -2.1582 4.83398 -1.76758Q4.83398 -1.25 4.63135 -0.891113Q4.42871 -0.532227 4.08447 -0.307617Q3.74023 -0.0830078 3.29102 0.0170898Q2.8418 0.117188 2.34375 0.117188Q2.17773 0.117188 1.93359 0.090332Q1.68945 0.0634766 1.43555 0.012207Q1.18164 -0.0390625 0.95459 -0.114746Q0.727539 -0.19043 0.59082 -0.283203ZM6.5332 -6.26953Q6.31836 -6.26953 6.16699 -6.41602Q6.01563 -6.5625 6.01563 -6.78711Q6.01563 -7.01172 6.16699 -7.16064Q6.31836 -7.30957 6.5332 -7.30957Q6.75293 -7.30957 6.90674 -7.16064Q7.06055 -7.01172 7.06055 -6.78711Q7.06055 -6.57227 6.90674 -6.4209Q6.75293 -6.26953 6.5332 -6.26953ZM6.92383 0L6.12305 0L6.12305 -5L6.92383 -5L6.92383 0ZM12.8125 -0.400391Q12.8125 2.35352 10.1758 2.35352Q9.24805 2.35352 8.55469 2.00195L8.55469 1.20117Q9.39941 1.66992 10.166 1.66992Q12.0117 1.66992 12.0117 -0.292969L12.0117 -0.839844L11.9922 -0.839844Q11.4209 0.117187 10.2734 0.117188Q9.34082 0.117188 8.77197 -0.549316Q8.20313 -1.21582 8.20313 -2.33887Q8.20313 -3.61328 8.81592 -4.36523Q9.42871 -5.11719 10.4932 -5.11719Q11.5039 -5.11719 11.9922 -4.30664L12.0117 -4.30664L12.0117 -5L12.8125 -5L12.8125 -0.400391ZM12.0117 -2.26074L12.0117 -2.99805Q12.0117 -3.59375 11.6089 -4.01855Q11.2061 -4.44336 10.6055 -4.44336Q9.86328 -4.44336 9.44336 -3.90381Q9.02344 -3.36426 9.02344 -2.39258Q9.02344 -1.55762 9.42627 -1.05713Q9.8291 -0.556641 10.4932 -0.556641Q11.167 -0.556641 11.5894 -1.03516Q12.0117 -1.51367 12.0117 -2.26074ZM18.584 0L17.7832 0L17.7832 -2.85156Q17.7832 -4.44336 16.6211 -4.44336Q16.0205 -4.44336 15.6274 -3.9917Q15.2344 -3.54004 15.2344 -2.85156L15.2344 0L14.4336 0L14.4336 -5L15.2344 -5L15.2344 -4.16992L15.2539 -4.16992Q15.8203 -5.11719 16.8945 -5.11719Q17.7148 -5.11719 18.1494 -4.5874Q18.584 -4.05762 18.584 -3.05664L18.584 0ZM22.6514 -2.4707L19.9854 -2.4707L19.9854 -3.10059L22.6514 -3.10059L22.6514 -2.4707ZM28.1348 0L27.334 0L27.334 -0.791016L27.3145 -0.791016Q26.8164 0.117188 25.7715 0.117188Q23.9844 0.117188 23.9844 -2.01172L23.9844 -5L24.7803 -5L24.7803 -2.13867Q24.7803 -0.556641 25.9912 -0.556641Q26.5771 -0.556641 26.9556 -0.98877Q27.334 -1.4209 27.334 -2.11914L27.334 -5L28.1348 -5L28.1348 0ZM30.5713 -0.722656L30.5518 -0.722656L30.5518 2.2998L29.751 2.2998L29.751 -5L30.5518 -5L30.5518 -4.12109L30.5713 -4.12109Q31.1621 -5.11719 32.2998 -5.11719Q33.2666 -5.11719 33.8086 -4.4458Q34.3506 -3.77441 34.3506 -2.64648Q34.3506 -1.3916 33.7402 -0.637207Q33.1299 0.117188 32.0703 0.117188Q31.0986 0.117188 30.5713 -0.722656ZM30.5518 -2.73926L30.5518 -2.04102Q30.5518 -1.4209 30.9546 -0.98877Q31.3574 -0.556641 31.9775 -0.556641Q32.7051 -0.556641 33.1177 -1.11328Q33.5303 -1.66992 33.5303 -2.66113Q33.5303 -3.49609 33.1445 -3.96973Q32.7588 -4.44336 32.0996 -4.44336Q31.4014 -4.44336 30.9766 -3.95752Q30.5518 -3.47168 30.5518 -2.73926ZM35.3271 -0.180664L35.3271 -1.04004Q35.9814 -0.556641 36.7676 -0.556641Q37.8223 -0.556641 37.8223 -1.25977Q37.8223 -1.45996 37.7319 -1.59912Q37.6416 -1.73828 37.4878 -1.8457Q37.334 -1.95313 37.1265 -2.03857Q36.9189 -2.12402 36.6797 -2.2168Q36.3477 -2.34863 36.0962 -2.48291Q35.8447 -2.61719 35.6763 -2.78564Q35.5078 -2.9541 35.4224 -3.16895Q35.3369 -3.38379 35.3369 -3.67188Q35.3369 -4.02344 35.498 -4.29443Q35.6592 -4.56543 35.9277 -4.74854Q36.1963 -4.93164 36.5405 -5.02441Q36.8848 -5.11719 37.251 -5.11719Q37.9004 -5.11719 38.4131 -4.89258L38.4131 -4.08203Q37.8613 -4.44336 37.1436 -4.44336Q36.9189 -4.44336 36.7383 -4.39209Q36.5576 -4.34082 36.4282 -4.24805Q36.2988 -4.15527 36.228 -4.02588Q36.1572 -3.89648 36.1572 -3.74023Q36.1572 -3.54492 36.228 -3.41309Q36.2988 -3.28125 36.4355 -3.17871Q36.5723 -3.07617 36.7676 -2.99316Q36.9629 -2.91016 37.2119 -2.8125Q37.5439 -2.68555 37.8076 -2.55127Q38.0713 -2.41699 38.2568 -2.24854Q38.4424 -2.08008 38.5425 -1.86035Q38.6426 -1.64063 38.6426 -1.33789Q38.6426 -0.966797 38.479 -0.693359Q38.3154 -0.419922 38.042 -0.239258Q37.7686 -0.0585938 37.4121 0.0292969Q37.0557 0.117188 36.665 0.117188Q35.8936 0.117188 35.3271 -0.180664Z" transform="translate(359,179.5) translate(-19.53125,0)" />
<rect x="316.383064516129" y="216" width="85.23387096774194" height="73" fill="#F39C12" />
<path d="M5.05859 -6.25977L3.03711 -6.25977L3.03711 0L2.2168 0L2.2168 -6.25977L0.200195 -6.25977L0.200195 -7.00195L5.05859 -7.00195L5.05859 -6.25977ZM8.65723 -4.18945Q8.44727 -4.35059 8.05176 -4.35059Q7.53906 -4.35059 7.19482 -3.86719Q6.85059 -3.38379 6.85059 -2.54883L6.85059 0L6.0498 0L6.0498 -5L6.85059 -5L6.85059 -3.96973L6.87012 -3.96973Q7.04102 -4.49707 7.39258 -4.79248Q7.74414 -5.08789 8.17871 -5.08789Q8.49121 -5.08789 8.65723 -5.01953L8.65723 -4.18945ZM9.93652 -6.26953Q9.72168 -6.26953 9.57031 -6.41602Q9.41895 -6.5625 9.41895 -6.78711Q9.41895 -7.01172 9.57031 -7.16064Q9.72168 -7.30957 9.93652 -7.30957Q10.1563 -7.30957 10.3101 -7.16064Q10.4639 -7.01172 10.4639 -6.78711Q10.4639 -6.57227 10.3101 -6.4209Q10.1563 -6.26953 9.93652 -6.26953ZM10.3271 0L9.52637 0L9.52637 -5L10.3271 -5L10.3271 0ZM15.5273 0L14.7266 0L14.7266 -0.78125L14.707 -0.78125Q14.1846 0.117188 13.1689 0.117188Q12.4219 0.117188 11.9995 -0.27832Q11.5771 -0.673828 11.5771 -1.32813Q11.5771 -2.72949 13.2275 -2.95898L14.7266 -3.16895Q14.7266 -4.44336 13.6963 -4.44336Q12.793 -4.44336 12.0654 -3.82813L12.0654 -4.64844Q12.8027 -5.11719 13.7646 -5.11719Q15.5273 -5.11719 15.5273 -3.25195L15.5273 0ZM14.7266 -2.5293L13.5205 -2.36328Q12.9639 -2.28516 12.6807 -2.0874Q12.3975 -1.88965 12.3975 -1.38672Q12.3975 -1.02051 12.6587 -0.788574Q12.9199 -0.556641 13.3545 -0.556641Q13.9502 -0.556641 14.3384 -0.974121Q14.7266 -1.3916 14.7266 -2.03125L14.7266 -2.5293ZM17.8369 0L17.0361 0L17.0361 -7.40234L17.8369 -7.40234L17.8369 0ZM19.1553 -0.180664L19.1553 -1.04004Q19.8096 -0.556641 20.5957 -0.556641Q21.6504 -0.556641 21.6504 -1.25977Q21.6504 -1.45996 21.5601 -1.59912Q21.4697 -1.73828 21.3159 -1.8457Q21.1621 -1.95313 20.9546 -2.03857Q20.7471 -2.12402 20.5078 -2.2168Q20.1758 -2.34863 19.9243 -2.48291Q19.6729 -2.61719 19.5044 -2.78564Q19.3359 -2.9541 19.2505 -3.16895Q19.165 -3.38379 19.165 -3.67188Q19.165 -4.02344 19.3262 -4.29443Q19.4873 -4.56543 19.7559 -4.74854Q20.0244 -4.93164 20.3687 -5.02441Q20.7129 -5.11719 21.0791 -5.11719Q21.7285 -5.11719 22.2412 -4.89258L22.2412 -4.08203Q21.6895 -4.44336 20.9717 -4.44336Q20.7471 -4.44336 20.5664 -4.39209Q20.3857 -4.34082 20.2563 -4.24805Q20.127 -4.15527 20.0562 -4.02588Q19.9854 -3.89648 19.9854 -3.74023Q19.9854 -3.54492 20.0562 -3.41309Q20.127 -3.28125 20.2637 -3.17871Q20.4004 -3.07617 20.5957 -2.99316Q20.791 -2.91016 21.04 -2.8125Q21.3721 -2.68555 21.6357 -2.55127Q21.8994 -2.41699 22.085 -2.24854Q22.2705 -2.08008 22.3706 -1.86035Q22.4707 -1.64063 22.4707 -1.33789Q22.4707 -0.966797 22.3071 -0.693359Q22.1436 -0.419922 21.8701 -0.239258Q21.5967 -0.0585938 21.2402 0.0292969Q20.8838 0.117188 20.4932 0.117188Q19.7217 0.117188 19.1553 -0.180664Z" transform="translate(359,256.5) translate(-11.4453125,0)" />
<rect x="343.26451612903224" y="293" width="31.470967741935485" height="73" fill="#E67E22" />
<path d="M3.74023 0.117188Q2.25586 0.117188 1.35254 -0.864258Q0.458984 -1.8457 0.458984 -3.41797Q0.458984 -5.1123 1.37207 -6.11328Q2.29004 -7.11914 3.85742 -7.11914Q5.30273 -7.11914 6.19141 -6.14258Q7.08008 -5.16602 7.08008 -3.58887Q7.08008 -1.875 6.17188 -0.878906Q5.95703 -0.639648 5.71289 -0.46875L7.68066 0.942383L6.19141 0.942383L4.87305 -0.0439453Q4.35547 0.117188 3.74023 0.117188ZM3.79883 -6.37695Q2.69531 -6.37695 2.00684 -5.58105Q1.31836 -4.78516 1.31836 -3.49121Q1.31836 -2.20215 1.9873 -1.40625Q2.66113 -0.620117 3.74023 -0.620117Q4.89258 -0.620117 5.55664 -1.37207Q6.2207 -2.12402 6.2207 -3.47656Q6.2207 -4.86816 5.57617 -5.62012Q4.93164 -6.37695 3.79883 -6.37695ZM12.3926 0L11.5918 0L11.5918 -0.791016L11.5723 -0.791016Q11.0742 0.117188 10.0293 0.117188Q8.24219 0.117188 8.24219 -2.01172L8.24219 -5L9.03809 -5L9.03809 -2.13867Q9.03809 -0.556641 10.249 -0.556641Q10.835 -0.556641 11.2134 -0.98877Q11.5918 -1.4209 11.5918 -2.11914L11.5918 -5L12.3926 -5L12.3926 0ZM17.5879 0L16.7871 0L16.7871 -0.78125L16.7676 -0.78125Q16.2451 0.117188 15.2295 0.117188Q14.4824 0.117188 14.0601 -0.27832Q13.6377 -0.673828 13.6377 -1.32813Q13.6377 -2.72949 15.2881 -2.95898L16.7871 -3.16895Q16.7871 -4.44336 15.7568 -4.44336Q14.8535 -4.44336 14.126 -3.82813L14.126 -4.64844Q14.8633 -5.11719 15.8252 -5.11719Q17.5879 -5.11719 17.5879 -3.25195L17.5879 0ZM16.7871 -2.5293L15.5811 -2.36328Q15.0244 -2.28516 14.7412 -2.0874Q14.458 -1.88965 14.458 -1.38672Q14.458 -1.02051 14.7192 -0.788574Q14.9805 -0.556641 15.415 -0.556641Q16.0107 -0.556641 16.3989 -0.974121Q16.7871 -1.3916 16.7871 -2.03125L16.7871 -2.5293ZM19.8975 0L19.0967 0L19.0967 -7.40234L19.8975 -7.40234L19.8975 0ZM21.9287 -6.26953Q21.7139 -6.26953 21.5625 -6.41602Q21.4111 -6.5625 21.4111 -6.78711Q21.4111 -7.01172 21.5625 -7.16064Q21.7139 -7.30957 21.9287 -7.30957Q22.1484 -7.30957 22.3022 -7.16064Q22.4561 -7.01172 22.4561 -6.78711Q22.4561 -6.57227 22.3022 -6.4209Q22.1484 -6.26953 21.9287 -6.26953ZM22.3193 0L21.5186 0L21.5186 -5L22.3193 -5L22.3193 0ZM26.4111 -6.69922Q26.1768 -6.83105 25.8789 -6.83105Q25.0391 -6.83105 25.0391 -5.77148L25.0391 -5L26.2109 -5L26.2109 -4.31641L25.0391 -4.31641L25.0391 0L24.2432 0L24.2432 -4.31641L23.3887 -4.31641L23.3887 -5L24.2432 -5L24.2432 -5.81055Q24.2432 -6.59668 24.6973 -7.05322Q25.1514 -7.50977 25.8301 -7.50977Q26.1963 -7.50977 26.4111 -7.42188L26.4111 -6.69922ZM27.4805 -6.26953Q27.2656 -6.26953 27.1143 -6.41602Q26.9629 -6.5625 26.9629 -6.78711Q26.9629 -7.01172 27.1143 -7.16064Q27.2656 -7.30957 27.4805 -7.30957Q27.7002 -7.30957 27.854 -7.16064Q28.0078 -7.01172 28.0078 -6.78711Q28.0078 -6.57227 27.854 -6.4209Q27.7002 -6.26953 27.4805 -6.26953ZM27.8711 0L27.0703 0L27.0703 -5L27.8711 -5L27.8711 0ZM33.5107 -2.2998L29.9805 -2.2998Q30 -1.46484 30.4297 -1.01074Q30.8594 -0.556641 31.6113 -0.556641Q32.4561 -0.556641 33.1641 -1.11328L33.1641 -0.361328Q32.5049 0.117187 31.4209 0.117188Q30.3613 0.117188 29.7559 -0.563965Q29.1504 -1.24512 29.1504 -2.48047Q29.1504 -3.64746 29.812 -4.38232Q30.4736 -5.11719 31.4551 -5.11719Q32.4365 -5.11719 32.9736 -4.48242Q33.5107 -3.84766 33.5107 -2.71973L33.5107 -2.2998ZM32.6904 -2.97852Q32.6855 -3.67187 32.356 -4.05762Q32.0264 -4.44336 31.4404 -4.44336Q30.874 -4.44336 30.4785 -4.03809Q30.083 -3.63281 29.9902 -2.97852L32.6904 -2.97852ZM38.9893 0L38.1885 0L38.1885 -0.849609L38.1689 -0.849609Q37.6123 0.117188 36.4502 0.117188Q35.5078 0.117188 34.9438 -0.554199Q34.3799 -1.22559 34.3799 -2.38281Q34.3799 -3.62305 35.0049 -4.37012Q35.6299 -5.11719 36.6699 -5.11719Q37.7002 -5.11719 38.1689 -4.30664L38.1885 -4.30664L38.1885 -7.40234L38.9893 -7.40234L38.9893 0ZM38.1885 -2.26074L38.1885 -2.99805Q38.1885 -3.60352 37.7881 -4.02344Q37.3877 -4.44336 36.7725 -4.44336Q36.04 -4.44336 35.6201 -3.90625Q35.2002 -3.36914 35.2002 -2.42188Q35.2002 -1.55762 35.603 -1.05713Q36.0059 -0.556641 36.6846 -0.556641Q37.3535 -0.556641 37.771 -1.04004Q38.1885 -1.52344 38.1885 -2.26074Z" transform="translate(359,333.5) translate(-19.89990234375,0)" />
<rect x="352.225" y="370" width="13.55" height="73" fill="#E74C3C" />
<path d="M5.68359 -0.292969Q4.90723 0.117188 3.75 0.117188Q2.25586 0.117188 1.35742 -0.844727Q0.458984 -1.80664 0.458984 -3.36914Q0.458984 -5.04883 1.46973 -6.08398Q2.48047 -7.11914 4.0332 -7.11914Q5.0293 -7.11914 5.68359 -6.83105L5.68359 -5.95703Q4.93164 -6.37695 4.02344 -6.37695Q2.81738 -6.37695 2.06787 -5.57129Q1.31836 -4.76563 1.31836 -3.41797Q1.31836 -2.13867 2.01904 -1.37939Q2.71973 -0.620117 3.85742 -0.620117Q4.91211 -0.620117 5.68359 -1.08887L5.68359 -0.292969ZM7.80273 0L7.00195 0L7.00195 -7.40234L7.80273 -7.40234L7.80273 0ZM11.5137 0.117188Q10.4053 0.117188 9.74365 -0.583496Q9.08203 -1.28418 9.08203 -2.44141Q9.08203 -3.70117 9.77051 -4.40918Q10.459 -5.11719 11.6309 -5.11719Q12.749 -5.11719 13.3765 -4.42871Q14.0039 -3.74023 14.0039 -2.51953Q14.0039 -1.32324 13.3276 -0.603027Q12.6514 0.117188 11.5137 0.117188ZM11.5723 -4.44336Q10.8008 -4.44336 10.3516 -3.91846Q9.90234 -3.39355 9.90234 -2.4707Q9.90234 -1.58203 10.3564 -1.06934Q10.8105 -0.556641 11.5723 -0.556641Q12.3486 -0.556641 12.7661 -1.05957Q13.1836 -1.5625 13.1836 -2.49023Q13.1836 -3.42773 12.7661 -3.93555Q12.3486 -4.44336 11.5723 -4.44336ZM14.9805 -0.180664L14.9805 -1.04004Q15.6348 -0.556641 16.4209 -0.556641Q17.4756 -0.556641 17.4756 -1.25977Q17.4756 -1.45996 17.3853 -1.59912Q17.2949 -1.73828 17.1411 -1.8457Q16.9873 -1.95313 16.7798 -2.03857Q16.5723 -2.12402 16.333 -2.2168Q16.001 -2.34863 15.7495 -2.48291Q15.498 -2.61719 15.3296 -2.78564Q15.1611 -2.9541 15.0757 -3.16895Q14.9902 -3.38379 14.9902 -3.67188Q14.9902 -4.02344 15.1514 -4.29443Q15.3125 -4.56543 15.5811 -4.74854Q15.8496 -4.93164 16.1938 -5.02441Q16.5381 -5.11719 16.9043 -5.11719Q17.5537 -5.11719 18.0664 -4.89258L18.0664 -4.08203Q17.5146 -4.44336 16.7969 -4.44336Q16.5723 -4.44336 16.3916 -4.39209Q16.2109 -4.34082 16.0815 -4.24805Q15.9521 -4.15527 15.8813 -4.02588Q15.8105 -3.89648 15.8105 -3.74023Q15.8105 -3.54492 15.8813 -3.41309Q15.9521 -3.28125 16.0889 -3.17871Q16.2256 -3.07617 16.4209 -2.99316Q16.6162 -2.91016 16.8652 -2.8125Q17.1973 -2.68555 17.4609 -2.55127Q17.7246 -2.41699 17.9102 -2.24854Q18.0957 -2.08008 18.1958 -1.86035Q18.2959 -1.64063 18.2959 -1.33789Q18.2959 -0.966797 18.1323 -0.693359Q17.9688 -0.419922 17.6953 -0.239258Q17.4219 -0.0585938 17.0654 0.0292969Q16.709 0.117188 16.3184 0.117188Q15.5469 0.117188 14.9805 -0.180664ZM23.5449 -2.2998L20.0146 -2.2998Q20.0342 -1.46484 20.4639 -1.01074Q20.8936 -0.556641 21.6455 -0.556641Q22.4902 -0.556641 23.1982 -1.11328L23.1982 -0.361328Q22.5391 0.117187 21.4551 0.117188Q20.3955 0.117188 19.79 -0.563965Q19.1846 -1.24512 19.1846 -2.48047Q19.1846 -3.64746 19.8462 -4.38232Q20.5078 -5.11719 21.4893 -5.11719Q22.4707 -5.11719 23.0078 -4.48242Q23.5449 -3.84766 23.5449 -2.71973L23.5449 -2.2998ZM22.7246 -2.97852Q22.7197 -3.67187 22.3901 -4.05762Q22.0605 -4.44336 21.4746 -4.44336Q20.9082 -4.44336 20.5127 -4.03809Q20.1172 -3.63281 20.0244 -2.97852L22.7246 -2.97852ZM29.0234 0L28.2227 0L28.2227 -0.849609L28.2031 -0.849609Q27.6465 0.117188 26.4844 0.117188Q25.542 0.117188 24.978 -0.554199Q24.4141 -1.22559 24.4141 -2.38281Q24.4141 -3.62305 25.0391 -4.37012Q25.6641 -5.11719 26.7041 -5.11719Q27.7344 -5.11719 28.2031 -4.30664L28.2227 -4.30664L28.2227 -7.40234L29.0234 -7.40234L29.0234 0ZM28.2227 -2.26074L28.2227 -2.99805Q28.2227 -3.60352 27.8223 -4.02344Q27.4219 -4.44336 26.8066 -4.44336Q26.0742 -4.44336 25.6543 -3.90625Q25.2344 -3.36914 25.2344 -2.42188Q25.2344 -1.55762 25.6372 -1.05713Q26.04 -0.556641 26.7188 -0.556641Q27.3877 -0.556641 27.8052 -1.04004Q28.2227 -1.52344 28.2227 -2.26074Z" transform="translate(359,410.5) translate(-14.9169921875,0)" />
<g class="spine">
<line x1="88" y1="445" x2="630" y2="445" stroke="#262626" stroke-width="0.8" />
</g>
<g class="spine">
<line x1="88" y1="60" x2="630" y2="60" stroke="#262626" stroke-width="0.8" />
</g>
<g class="spine">
<line x1="88" y1="60" x2="88" y2="445" stroke="#262626" stroke-width="0.8" />
</g>
<g class="spine">
<line x1="630" y1="60" x2="630" y2="445" stroke="#262626" stroke-width="0.8" />
</g>
</svg>
