<svg xmlns="http://www.w3.org/2000/svg" viewBox="0 0 600 400" width="600" height="400" style="width:100%;height:auto" role="img" aria-labelledby="chart-title">
<title id="chart-title">Gauge Chart — Customer Satisfaction KPI</title>
<rect x="0" y="0" width="600" height="400" fill="#FFFFFF" />
<path d="M13.3643 -0.969564Q12.1064 -0.358127 10.7526 -0.0524089Q9.39865 0.253309 7.95741 0.253309Q4.69933 0.253309 2.79514 -1.5679Q0.89095 -3.38911 0.890951 -6.50743Q0.89095 -9.6607 2.83008 -11.4688Q4.76921 -13.2769 8.14084 -13.2769Q9.44233 -13.2769 10.6346 -13.0323Q11.8269 -12.7878 12.8838 -12.3073L12.8838 -9.60829Q11.792 -10.2285 10.7132 -10.5342Q9.63449 -10.8399 8.55138 -10.8399Q6.54237 -10.8399 5.45489 -9.71747Q4.3674 -8.59505 4.3674 -6.50743Q4.3674 -4.43728 5.41558 -3.31049Q6.46376 -2.1837 8.39415 -2.1837Q8.91824 -2.1837 9.36808 -2.24921Q9.81792 -2.31472 10.1761 -2.45448L10.1761 -4.98758L8.12337 -4.98758L8.12337 -7.24116L13.3643 -7.24116L13.3643 -0.969564ZM20.5705 -4.40234Q19.5922 -4.40234 19.0987 -4.07042Q18.6051 -3.7385 18.6051 -3.09212Q18.6051 -2.49816 19.0026 -2.16187Q19.4 -1.82558 20.1075 -1.82558Q20.9897 -1.82558 21.5924 -2.45885Q22.1952 -3.09212 22.1952 -4.04422L22.1952 -4.40234L20.5705 -4.40234ZM25.3484 -5.58154L25.3484 0L22.1952 0L22.1952 -1.44998Q21.5662 -0.559028 20.7801 -0.152859Q19.994 0.253309 18.8672 0.253309Q17.3473 0.253309 16.3996 -0.633274Q15.4519 -1.51986 15.4519 -2.9349Q15.4519 -4.65565 16.6354 -5.45926Q17.819 -6.26286 20.3521 -6.26286L22.1952 -6.26286L22.1952 -6.50743Q22.1952 -7.24989 21.6099 -7.59492Q21.0247 -7.93994 19.7843 -7.93994Q18.7798 -7.93994 17.9151 -7.73904Q17.0503 -7.53814 16.3079 -7.13634L16.3079 -9.52094Q17.3124 -9.76552 18.3256 -9.89217Q19.3389 -10.0188 20.3521 -10.0188Q22.9988 -10.0188 24.1736 -8.97502Q25.3484 -7.93121 25.3484 -5.58154ZM28.1523 -3.80838L28.1523 -9.78299L31.2968 -9.78299L31.2968 -8.80469Q31.2968 -8.00982 31.2881 -6.80878Q31.2794 -5.60775 31.2794 -5.20595Q31.2794 -4.02675 31.3405 -3.50703Q31.4016 -2.9873 31.5501 -2.75146Q31.7423 -2.44575 32.0524 -2.27979Q32.3625 -2.11382 32.7643 -2.11382Q33.7426 -2.11382 34.3016 -2.86502Q34.8606 -3.61621 34.8606 -4.95264L34.8606 -9.78299L37.9877 -9.78299L37.9877 0L34.8606 0L34.8606 -1.41504Q34.1531 -0.559028 33.3626 -0.152859Q32.5721 0.253309 31.62 0.253309Q29.9255 0.253309 29.0389 -0.786133Q28.1523 -1.82558 28.1523 -3.80838ZM47.6484 -1.65961Q47.002 -0.803602 46.2246 -0.401801Q45.4472 0 44.4252 0Q42.6346 0 41.4641 -1.41067Q40.2937 -2.82134 40.2937 -5.00505Q40.2937 -7.19748 41.4641 -8.59942Q42.6346 -10.0014 44.4252 -10.0014Q45.4472 -10.0014 46.2246 -9.59956Q47.002 -9.19775 47.6484 -8.33301L47.6484 -9.78299L50.7929 -9.78299L50.7929 -0.987033Q50.7929 1.37137 49.3036 2.61608Q47.8143 3.86079 44.9843 3.86079Q44.0671 3.86079 43.2111 3.72103Q42.3551 3.58127 41.4903 3.29302L41.4903 0.856011Q42.3114 1.32769 43.0975 1.55916Q43.8837 1.79064 44.6786 1.79064Q46.2159 1.79064 46.9321 1.11806Q47.6484 0.445475 47.6484 -0.987033L47.6484 -1.65961ZM45.587 -7.74778Q44.6174 -7.74778 44.0758 -7.03152Q43.5343 -6.31527 43.5343 -5.00505Q43.5343 -3.65988 44.0584 -2.96547Q44.5825 -2.27105 45.587 -2.27105Q46.5653 -2.27105 47.1068 -2.9873Q47.6484 -3.70356 47.6484 -5.00505Q47.6484 -6.31527 47.1068 -7.03152Q46.5653 -7.74778 45.587 -7.74778ZM63.5632 -4.9177L63.5632 -4.02675L56.2522 -4.02675Q56.3657 -2.92616 57.047 -2.37587Q57.7284 -1.82558 58.9512 -1.82558Q59.9383 -1.82558 60.9733 -2.11819Q62.0084 -2.41081 63.1003 -3.00477L63.1003 -0.593967Q61.9909 -0.174696 60.8816 0.0393066Q59.7723 0.253309 58.663 0.253309Q56.0076 0.253309 54.5358 -1.09622Q53.064 -2.44575 53.064 -4.88276Q53.064 -7.2761 54.5096 -8.64746Q55.9552 -10.0188 58.4883 -10.0188Q60.7943 -10.0188 62.1787 -8.62999Q63.5632 -7.24116 63.5632 -4.9177ZM60.3488 -5.95714Q60.3488 -6.84809 59.8291 -7.39402Q59.3094 -7.93994 58.4708 -7.93994Q57.5624 -7.93994 56.9946 -7.42896Q56.4269 -6.91797 56.2871 -5.95714L60.3488 -5.95714ZM82.64 -0.716254Q81.7141 -0.23584 80.7096 0.00873481Q79.7051 0.253309 78.6133 0.253309Q75.3552 0.253309 73.451 -1.5679Q71.5468 -3.38911 71.5468 -6.50743Q71.5468 -9.63449 73.451 -11.4557Q75.3552 -13.2769 78.6133 -13.2769Q79.7051 -13.2769 80.7096 -13.0323Q81.7141 -12.7878 82.64 -12.3073L82.64 -9.60829Q81.7054 -10.2459 80.797 -10.5429Q79.8886 -10.8399 78.8841 -10.8399Q77.0847 -10.8399 76.054 -9.6869Q75.0233 -8.53391 75.0233 -6.50743Q75.0233 -4.48969 76.054 -3.3367Q77.0847 -2.1837 78.8841 -2.1837Q79.8886 -2.1837 80.797 -2.48069Q81.7054 -2.77767 82.64 -3.41531L82.64 -0.716254ZM95.1221 -5.95714L95.1221 0L91.9775 0L91.9775 -0.969564L91.9775 -4.5421Q91.9775 -5.82612 91.9208 -6.30653Q91.864 -6.78695 91.7242 -7.01405Q91.5408 -7.31977 91.2263 -7.4901Q90.9119 -7.66043 90.5101 -7.66043Q89.5318 -7.66043 88.9728 -6.90487Q88.4137 -6.14931 88.4137 -4.81288L88.4137 0L85.2867 0L85.2867 -13.5914L88.4137 -13.5914L88.4137 -8.35048Q89.1213 -9.20649 89.9161 -9.61266Q90.711 -10.0188 91.6718 -10.0188Q93.3664 -10.0188 94.2442 -8.97938Q95.1221 -7.93994 95.1221 -5.95714ZM102.407 -4.40234Q101.429 -4.40234 100.935 -4.07042Q100.442 -3.7385 100.442 -3.09212Q100.442 -2.49816 100.839 -2.16187Q101.236 -1.82558 101.944 -1.82558Q102.826 -1.82558 103.429 -2.45885Q104.032 -3.09212 104.032 -4.04422L104.032 -4.40234L102.407 -4.40234ZM107.185 -5.58154L107.185 0L104.032 0L104.032 -1.44998Q103.403 -0.559028 102.617 -0.152859Q101.83 0.253309 100.704 0.253309Q99.1838 0.253309 98.236 -0.633274Q97.2883 -1.51986 97.2883 -2.9349Q97.2883 -4.65565 98.4719 -5.45926Q99.6554 -6.26286 102.189 -6.26286L104.032 -6.26286L104.032 -6.50743Q104.032 -7.24989 103.446 -7.59492Q102.861 -7.93994 101.621 -7.93994Q100.616 -7.93994 99.7515 -7.73904Q98.8868 -7.53814 98.1443 -7.13634L98.1443 -9.52094Q99.1488 -9.76552 100.162 -9.89217Q101.175 -10.0188 102.189 -10.0188Q104.835 -10.0188 106.01 -8.97502Q107.185 -7.93121 107.185 -5.58154ZM117.361 -7.11887Q116.95 -7.31103 116.544 -7.40275Q116.138 -7.49447 115.727 -7.49447Q114.522 -7.49447 113.871 -6.72144Q113.221 -5.94841 113.221 -4.50716L113.221 0L110.094 0L110.094 -9.78299L113.221 -9.78299L113.221 -8.17578Q113.823 -9.13661 114.605 -9.57772Q115.387 -10.0188 116.479 -10.0188Q116.636 -10.0188 116.819 -10.0057Q117.003 -9.99262 117.352 -9.94895L117.361 -7.11887ZM122.331 -12.5607L122.331 -9.78299L125.554 -9.78299L125.554 -7.54688L122.331 -7.54688L122.331 -3.39784Q122.331 -2.71653 122.602 -2.47632Q122.873 -2.23611 123.676 -2.23611L125.283 -2.23611L125.283 0L122.602 0Q120.75 0 119.977 -0.773031Q119.204 -1.54606 119.204 -3.39784L119.204 -7.54688L117.649 -7.54688L117.649 -9.78299L119.204 -9.78299L119.204 -12.5607L122.331 -12.5607ZM133.153 -6.02702L149.121 -6.02702L149.121 -3.77344L133.153 -3.77344L133.153 -6.02702ZM168.294 -0.716254Q167.368 -0.23584 166.363 0.00873481Q165.359 0.253309 164.267 0.253309Q161.009 0.253309 159.105 -1.5679Q157.2 -3.38911 157.2 -6.50743Q157.2 -9.63449 159.105 -11.4557Q161.009 -13.2769 164.267 -13.2769Q165.359 -13.2769 166.363 -13.0323Q167.368 -12.7878 168.294 -12.3073L168.294 -9.60829Q167.359 -10.2459 166.451 -10.5429Q165.542 -10.8399 164.538 -10.8399Q162.738 -10.8399 161.708 -9.6869Q160.677 -8.53391 160.677 -6.50743Q160.677 -4.48969 161.708 -3.3367Q162.738 -2.1837 164.538 -2.1837Q165.542 -2.1837 166.451 -2.48069Q167.359 -2.77767 168.294 -3.41531L168.294 -0.716254ZM170.835 -3.80838L170.835 -9.78299L173.98 -9.78299L173.98 -8.80469Q173.98 -8.00982 173.971 -6.80878Q173.962 -5.60775 173.962 -5.20595Q173.962 -4.02675 174.024 -3.50703Q174.085 -2.9873 174.233 -2.75146Q174.425 -2.44575 174.736 -2.27979Q175.046 -2.11382 175.447 -2.11382Q176.426 -2.11382 176.985 -2.86502Q177.544 -3.61621 177.544 -4.95264L177.544 -9.78299L180.671 -9.78299L180.671 0L177.544 0L177.544 -1.41504Q176.836 -0.559028 176.046 -0.152859Q175.255 0.253309 174.303 0.253309Q172.609 0.253309 171.722 -0.786133Q170.835 -1.82558 170.835 -3.80838ZM191.319 -9.47727L191.319 -7.1014Q190.314 -7.52067 189.379 -7.73031Q188.445 -7.93994 187.615 -7.93994Q186.724 -7.93994 186.292 -7.7172Q185.859 -7.49447 185.859 -7.03152Q185.859 -6.65592 186.187 -6.45502Q186.514 -6.25412 187.362 -6.15804L187.912 -6.07943Q190.314 -5.77371 191.144 -5.07492Q191.974 -4.37614 191.974 -2.88249Q191.974 -1.31896 190.821 -0.532823Q189.668 0.253309 187.379 0.253309Q186.41 0.253309 185.374 0.10045Q184.339 -0.0524089 183.248 -0.358127L183.248 -2.734Q184.182 -2.27978 185.165 -2.05268Q186.148 -1.82557 187.161 -1.82558Q188.078 -1.82558 188.541 -2.07888Q189.004 -2.33219 189.004 -2.83008Q189.004 -3.24935 188.685 -3.45462Q188.366 -3.65989 187.414 -3.77344L186.864 -3.84332Q184.776 -4.10536 183.938 -4.81288Q183.099 -5.5204 183.099 -6.96164Q183.099 -8.51644 184.165 -9.26763Q185.23 -10.0188 187.432 -10.0188Q188.296 -10.0188 189.248 -9.8878Q190.2 -9.75678 191.319 -9.47727ZM197.739 -12.5607L197.739 -9.78299L200.962 -9.78299L200.962 -7.54688L197.739 -7.54688L197.739 -3.39784Q197.739 -2.71653 198.009 -2.47632Q198.28 -2.23611 199.084 -2.23611L200.691 -2.23611L200.691 0L198.009 0Q196.158 0 195.385 -0.773031Q194.612 -1.54606 194.612 -3.39784L194.612 -7.54688L193.057 -7.54688L193.057 -9.78299L194.612 -9.78299L194.612 -12.5607L197.739 -12.5607ZM207.53 -7.78271Q206.491 -7.78271 205.945 -7.03589Q205.399 -6.28906 205.399 -4.88276Q205.399 -3.47645 205.945 -2.72963Q206.491 -1.9828 207.53 -1.9828Q208.552 -1.9828 209.094 -2.72963Q209.635 -3.47645 209.635 -4.88276Q209.635 -6.28906 209.094 -7.03589Q208.552 -7.78271 207.53 -7.78271ZM207.53 -10.0188Q210.055 -10.0188 211.474 -8.6562Q212.894 -7.29357 212.894 -4.88276Q212.894 -2.47195 211.474 -1.10932Q210.055 0.253309 207.53 0.253309Q204.997 0.253309 203.569 -1.10932Q202.141 -2.47195 202.141 -4.88276Q202.141 -7.29357 203.569 -8.6562Q204.997 -10.0188 207.53 -10.0188ZM224.231 -8.15831Q224.825 -9.06673 225.642 -9.54278Q226.459 -10.0188 227.437 -10.0188Q229.123 -10.0188 230.005 -8.97938Q230.887 -7.93994 230.887 -5.95714L230.887 0L227.743 0L227.743 -5.10113Q227.751 -5.21468 227.756 -5.33697Q227.76 -5.45926 227.76 -5.68636Q227.76 -6.7258 227.454 -7.19312Q227.149 -7.66043 226.467 -7.66043Q225.576 -7.66043 225.092 -6.9267Q224.607 -6.19298 224.589 -4.80414L224.589 0L221.445 0L221.445 -5.10113Q221.445 -6.7258 221.165 -7.19312Q220.886 -7.66043 220.17 -7.66043Q219.27 -7.66043 218.781 -6.92234Q218.292 -6.18424 218.292 -4.81288L218.292 0L215.147 0L215.147 -9.78299L218.292 -9.78299L218.292 -8.35048Q218.868 -9.18028 219.615 -9.59956Q220.362 -10.0188 221.261 -10.0188Q222.275 -10.0188 223.052 -9.52968Q223.829 -9.04053 224.231 -8.15831ZM243.57 -4.9177L243.57 -4.02675L236.259 -4.02675Q236.373 -2.92616 237.054 -2.37587Q237.735 -1.82558 238.958 -1.82558Q239.945 -1.82558 240.98 -2.11819Q242.015 -2.41081 243.107 -3.00477L243.107 -0.593967Q241.998 -0.174696 240.889 0.0393066Q239.779 0.253309 238.67 0.253309Q236.015 0.253309 234.543 -1.09622Q233.071 -2.44575 233.071 -4.88276Q233.071 -7.2761 234.517 -8.64746Q235.962 -10.0188 238.495 -10.0188Q240.801 -10.0188 242.186 -8.62999Q243.57 -7.24116 243.57 -4.9177ZM240.356 -5.95714Q240.356 -6.84809 239.836 -7.39402Q239.316 -7.93994 238.478 -7.93994Q237.569 -7.93994 237.002 -7.42896Q236.434 -6.91797 236.294 -5.95714L240.356 -5.95714ZM253.205 -7.11887Q252.794 -7.31103 252.388 -7.40275Q251.982 -7.49447 251.571 -7.49447Q250.366 -7.49447 249.715 -6.72144Q249.064 -5.94841 249.064 -4.50716L249.064 0L245.937 0L245.937 -9.78299L249.064 -9.78299L249.064 -8.17578Q249.667 -9.13661 250.449 -9.57772Q251.231 -10.0188 252.322 -10.0188Q252.48 -10.0188 252.663 -10.0057Q252.847 -9.99262 253.196 -9.94895L253.205 -7.11887ZM270.203 -12.6305L270.203 -9.87033Q269.128 -10.3507 268.106 -10.5953Q267.084 -10.8399 266.176 -10.8399Q264.97 -10.8399 264.394 -10.508Q263.817 -10.1761 263.817 -9.47727Q263.817 -8.95318 264.206 -8.66056Q264.595 -8.36795 265.617 -8.15831L267.049 -7.87006Q269.224 -7.43332 270.141 -6.54237Q271.059 -5.65142 271.059 -4.00928Q271.059 -1.85178 269.779 -0.799235Q268.499 0.253309 265.87 0.253309Q264.63 0.253309 263.381 0.0174696Q262.132 -0.21837 260.883 -0.681315L260.883 -3.52013Q262.132 -2.85628 263.298 -2.51999Q264.464 -2.1837 265.547 -2.1837Q266.647 -2.1837 267.233 -2.55056Q267.818 -2.91743 267.818 -3.59874Q267.818 -4.21018 267.421 -4.5421Q267.023 -4.87402 265.835 -5.13607L264.534 -5.42432Q262.577 -5.84359 261.673 -6.76074Q260.769 -7.6779 260.769 -9.23269Q260.769 -11.1806 262.027 -12.2287Q263.285 -13.2769 265.643 -13.2769Q266.717 -13.2769 267.853 -13.1153Q268.988 -12.9537 270.203 -12.6305ZM278.256 -4.40234Q277.278 -4.40234 276.784 -4.07042Q276.291 -3.7385 276.291 -3.09212Q276.291 -2.49816 276.688 -2.16187Q277.086 -1.82558 277.793 -1.82558Q278.675 -1.82558 279.278 -2.45885Q279.881 -3.09212 279.881 -4.04422L279.881 -4.40234L278.256 -4.40234ZM283.034 -5.58154L283.034 0L279.881 0L279.881 -1.44998Q279.252 -0.559028 278.466 -0.152859Q277.68 0.253309 276.553 0.253309Q275.033 0.253309 274.085 -0.633274Q273.137 -1.51986 273.137 -2.9349Q273.137 -4.65565 274.321 -5.45926Q275.505 -6.26286 278.038 -6.26286L279.881 -6.26286L279.881 -6.50743Q279.881 -7.24989 279.296 -7.59492Q278.71 -7.93994 277.47 -7.93994Q276.465 -7.93994 275.601 -7.73904Q274.736 -7.53814 273.993 -7.13634L273.993 -9.52094Q274.998 -9.76552 276.011 -9.89217Q277.024 -10.0188 278.038 -10.0188Q280.684 -10.0188 281.859 -8.97502Q283.034 -7.93121 283.034 -5.58154ZM289.358 -12.5607L289.358 -9.78299L292.581 -9.78299L292.581 -7.54688L289.358 -7.54688L289.358 -3.39784Q289.358 -2.71653 289.629 -2.47632Q289.9 -2.23611 290.703 -2.23611L292.31 -2.23611L292.31 0L289.629 0Q287.777 0 287.004 -0.773031Q286.231 -1.54606 286.231 -3.39784L286.231 -7.54688L284.676 -7.54688L284.676 -9.78299L286.231 -9.78299L286.231 -12.5607L289.358 -12.5607ZM294.494 -9.78299L297.621 -9.78299L297.621 0L294.494 0L294.494 -9.78299ZM294.494 -13.5914L297.621 -13.5914L297.621 -11.0408L294.494 -11.0408L294.494 -13.5914ZM308.269 -9.47727L308.269 -7.1014Q307.264 -7.52067 306.33 -7.73031Q305.395 -7.93994 304.565 -7.93994Q303.674 -7.93994 303.242 -7.7172Q302.81 -7.49447 302.81 -7.03152Q302.81 -6.65592 303.137 -6.45502Q303.465 -6.25412 304.312 -6.15804L304.862 -6.07943Q307.264 -5.77371 308.094 -5.07492Q308.924 -4.37614 308.924 -2.88249Q308.924 -1.31896 307.771 -0.532823Q306.618 0.253309 304.329 0.253309Q303.36 0.253309 302.325 0.10045Q301.29 -0.0524089 300.198 -0.358127L300.198 -2.734Q301.133 -2.27978 302.115 -2.05268Q303.098 -1.82557 304.111 -1.82558Q305.028 -1.82558 305.491 -2.07888Q305.954 -2.33219 305.954 -2.83008Q305.954 -3.24935 305.635 -3.45462Q305.317 -3.65989 304.364 -3.77344L303.814 -3.84332Q301.727 -4.10536 300.888 -4.81288Q300.049 -5.5204 300.049 -6.96164Q300.049 -8.51644 301.115 -9.26763Q302.181 -10.0188 304.382 -10.0188Q305.247 -10.0188 306.199 -9.8878Q307.151 -9.75678 308.269 -9.47727ZM317.711 -13.5914L317.711 -11.5387L315.982 -11.5387Q315.318 -11.5387 315.056 -11.2985Q314.794 -11.0583 314.794 -10.4643L314.794 -9.78299L317.467 -9.78299L317.467 -7.54688L314.794 -7.54688L314.794 0L311.667 0L311.667 -7.54688L310.112 -7.54688L310.112 -9.78299L311.667 -9.78299L311.667 -10.4643Q311.667 -12.0628 312.558 -12.8271Q313.449 -13.5914 315.318 -13.5914L317.711 -13.5914ZM323.441 -4.40234Q322.463 -4.40234 321.969 -4.07042Q321.476 -3.7385 321.476 -3.09212Q321.476 -2.49816 321.873 -2.16187Q322.271 -1.82558 322.978 -1.82558Q323.861 -1.82558 324.463 -2.45885Q325.066 -3.09212 325.066 -4.04422L325.066 -4.40234L323.441 -4.40234ZM328.219 -5.58154L328.219 0L325.066 0L325.066 -1.44998Q324.437 -0.559028 323.651 -0.152859Q322.865 0.253309 321.738 0.253309Q320.218 0.253309 319.27 -0.633274Q318.323 -1.51986 318.323 -2.9349Q318.323 -4.65565 319.506 -5.45926Q320.69 -6.26286 323.223 -6.26286L325.066 -6.26286L325.066 -6.50743Q325.066 -7.24989 324.481 -7.59492Q323.895 -7.93994 322.655 -7.93994Q321.651 -7.93994 320.786 -7.73904Q319.921 -7.53814 319.179 -7.13634L319.179 -9.52094Q320.183 -9.76552 321.196 -9.89217Q322.21 -10.0188 323.223 -10.0188Q325.87 -10.0188 327.044 -8.97502Q328.219 -7.93121 328.219 -5.58154ZM339.033 -9.47727L339.033 -6.9267Q338.395 -7.36344 337.753 -7.57308Q337.111 -7.78271 336.421 -7.78271Q335.111 -7.78271 334.382 -7.01842Q333.652 -6.25412 333.652 -4.88276Q333.652 -3.51139 334.382 -2.7471Q335.111 -1.9828 336.421 -1.9828Q337.155 -1.9828 337.814 -2.20117Q338.474 -2.41954 339.033 -2.84755L339.033 -0.288249C338.544 -0.107729 338.047 0.0276602 337.544 0.11792Q336.788 0.253309 336.028 0.253309Q333.381 0.253309 331.888 -1.10495Q330.394 -2.46322 330.394 -4.88276Q330.394 -7.3023 331.888 -8.66056Q333.381 -10.0188 336.028 -10.0188Q336.797 -10.0188 337.544 -9.88344Q338.29 -9.74805 339.033 -9.47727ZM345.147 -12.5607L345.147 -9.78299L348.37 -9.78299L348.37 -7.54688L345.147 -7.54688L345.147 -3.39784Q345.147 -2.71653 345.418 -2.47632Q345.689 -2.23611 346.492 -2.23611L348.1 -2.23611L348.1 0L345.418 0Q343.566 0 342.793 -0.773031Q342.02 -1.54606 342.02 -3.39784L342.02 -7.54688L340.465 -7.54688L340.465 -9.78299L342.02 -9.78299L342.02 -12.5607L345.147 -12.5607ZM350.283 -9.78299L353.41 -9.78299L353.41 0L350.283 0L350.283 -9.78299ZM350.283 -13.5914L353.41 -13.5914L353.41 -11.0408L350.283 -11.0408L350.283 -13.5914ZM361.071 -7.78271Q360.031 -7.78271 359.485 -7.03589Q358.94 -6.28906 358.94 -4.88276Q358.94 -3.47645 359.485 -2.72963Q360.031 -1.9828 361.071 -1.9828Q362.093 -1.9828 362.634 -2.72963Q363.176 -3.47645 363.176 -4.88276Q363.176 -6.28906 362.634 -7.03589Q362.093 -7.78271 361.071 -7.78271ZM361.071 -10.0188Q363.595 -10.0188 365.015 -8.6562Q366.434 -7.29357 366.434 -4.88276Q366.434 -2.47195 365.015 -1.10932Q363.595 0.253309 361.071 0.253309Q358.538 0.253309 357.11 -1.10932Q355.681 -2.47195 355.681 -4.88276Q355.681 -7.29357 357.11 -8.6562Q358.538 -10.0188 361.071 -10.0188ZM378.54 -5.95714L378.54 0L375.396 0L375.396 -0.969564L375.396 -4.55957Q375.396 -5.82612 375.339 -6.30653Q375.282 -6.78695 375.143 -7.01405Q374.959 -7.31977 374.645 -7.4901Q374.33 -7.66043 373.928 -7.66043Q372.95 -7.66043 372.391 -6.90487Q371.832 -6.14931 371.832 -4.81288L371.832 0L368.705 0L368.705 -9.78299L371.832 -9.78299L371.832 -8.35048Q372.54 -9.20649 373.335 -9.61266Q374.129 -10.0188 375.09 -10.0188Q376.785 -10.0188 377.663 -8.97938Q378.54 -7.93994 378.54 -5.95714ZM387.808 -13.0411L391.171 -13.0411L391.171 -8.2806L396.019 -13.0411L399.923 -13.0411L393.643 -6.86556L400.57 0L396.359 0L391.171 -5.13607L391.171 0L387.808 0L387.808 -13.0411ZM401.67 -13.0411L407.252 -13.0411Q409.741 -13.0411 411.073 -11.9361Q412.405 -10.8312 412.405 -8.78722Q412.405 -6.73454 411.073 -5.62958Q409.741 -4.52463 407.252 -4.52463L405.033 -4.52463L405.033 0L401.67 0L401.67 -13.0411ZM405.033 -10.6041L405.033 -6.96164L406.894 -6.96164Q407.872 -6.96164 408.405 -7.43769Q408.938 -7.91374 408.938 -8.78722Q408.938 -9.6607 408.405 -10.1324Q407.872 -10.6041 406.894 -10.6041L405.033 -10.6041ZM414.781 -13.0411L418.144 -13.0411L418.144 0L414.781 0L414.781 -13.0411Z" fill="#262626" transform="translate(300,24.099999999999998) translate(-209.89747619628906,0)" />
<rect x="75" y="48" width="465" height="308" fill="#FFFFFF" />
<line x1="96.13636363636364" y1="355.6" x2="96.13636363636364" y2="360.8611111111111" stroke="#262626" stroke-width="1.1111111111111112" />
<path d="M4.41488 -9.22309Q3.35693 -9.22309 2.82457 -8.1821Q2.29221 -7.14111 2.29221 -5.05235Q2.29221 -2.97038 2.82457 -1.92939Q3.35693 -0.888401 4.41488 -0.888401Q5.4796 -0.888401 6.01196 -1.92939Q6.54433 -2.97038 6.54433 -5.05235Q6.54433 -7.14111 6.01196 -8.1821Q5.4796 -9.22309 4.41488 -9.22309ZM4.41488 -10.3082Q6.11708 -10.3082 7.01565 -8.962Q7.91422 -7.61583 7.91423 -5.05235Q7.91423 -2.49566 7.01565 -1.1495Q6.11708 0.196669 4.41488 0.196669Q2.71267 0.196669 1.8141 -1.1495Q0.915527 -2.49566 0.915527 -5.05235Q0.915527 -7.61583 1.8141 -8.962Q2.71267 -10.3082 4.41488 -10.3082ZM10.3217 -1.72255L11.7527 -1.72255L11.7527 0L10.3217 0L10.3217 -1.72255ZM17.6663 -9.22309Q16.6083 -9.22309 16.076 -8.1821Q15.5436 -7.14111 15.5436 -5.05235Q15.5436 -2.97038 16.076 -1.92939Q16.6083 -0.888401 17.6663 -0.888401Q18.731 -0.888401 19.2634 -1.92939Q19.7957 -2.97038 19.7957 -5.05235Q19.7957 -7.14111 19.2634 -8.1821Q18.731 -9.22309 17.6663 -9.22309ZM17.6663 -10.3082Q19.3685 -10.3082 20.2671 -8.962Q21.1656 -7.61583 21.1656 -5.05235Q21.1656 -2.49566 20.2671 -1.1495Q19.3685 0.196669 17.6663 0.196669Q15.9641 0.196669 15.0655 -1.1495Q14.1669 -2.49566 14.1669 -5.05235Q14.1669 -7.61583 15.0655 -8.962Q15.9641 -10.3082 17.6663 -10.3082Z" fill="#262626" transform="translate(96.13636363636364,379.6111111111111) translate(-11.043972969055176,0)" />
<line x1="138.4090909090909" y1="355.6" x2="138.4090909090909" y2="360.8611111111111" stroke="#262626" stroke-width="1.1111111111111112" />
<path d="M4.41488 -9.22309Q3.35693 -9.22309 2.82457 -8.1821Q2.29221 -7.14111 2.29221 -5.05235Q2.29221 -2.97038 2.82457 -1.92939Q3.35693 -0.888401 4.41488 -0.888401Q5.4796 -0.888401 6.01196 -1.92939Q6.54433 -2.97038 6.54433 -5.05235Q6.54433 -7.14111 6.01196 -8.1821Q5.4796 -9.22309 4.41488 -9.22309ZM4.41488 -10.3082Q6.11708 -10.3082 7.01565 -8.962Q7.91422 -7.61583 7.91423 -5.05235Q7.91423 -2.49566 7.01565 -1.1495Q6.11708 0.196669 4.41488 0.196669Q2.71267 0.196669 1.8141 -1.1495Q0.915527 -2.49566 0.915527 -5.05235Q0.915527 -7.61583 1.8141 -8.962Q2.71267 -10.3082 4.41488 -10.3082ZM10.3217 -1.72255L11.7527 -1.72255L11.7527 0L10.3217 0L10.3217 -1.72255ZM14.974 -1.15289L17.2119 -1.15289L17.2119 -8.87722L14.7773 -8.38894L14.7773 -9.63677L17.1984 -10.1251L18.5683 -10.1251L18.5683 -1.15289L20.8062 -1.15289L20.8062 0L14.974 0L14.974 -1.15289Z" fill="#262626" transform="translate(138.4090909090909,379.6111111111111) translate(-11.043972969055176,0)" />
<line x1="180.6818181818182" y1="355.6" x2="180.6818181818182" y2="360.8611111111111" stroke="#262626" stroke-width="1.1111111111111112" />
<path d="M4.41488 -9.22309Q3.35693 -9.22309 2.82457 -8.1821Q2.29221 -7.14111 2.29221 -5.05235Q2.29221 -2.97038 2.82457 -1.92939Q3.35693 -0.888401 4.41488 -0.888401Q5.4796 -0.888401 6.01196 -1.92939Q6.54433 -2.97038 6.54433 -5.05235Q6.54433 -7.14111 6.01196 -8.1821Q5.4796 -9.22309 4.41488 -9.22309ZM4.41488 -10.3082Q6.11708 -10.3082 7.01565 -8.962Q7.91422 -7.61583 7.91423 -5.05235Q7.91423 -2.49566 7.01565 -1.1495Q6.11708 0.196669 4.41488 0.196669Q2.71267 0.196669 1.8141 -1.1495Q0.915527 -2.49566 0.915527 -5.05235Q0.915527 -7.61583 1.8141 -8.962Q2.71267 -10.3082 4.41488 -10.3082ZM10.3217 -1.72255L11.7527 -1.72255L11.7527 0L10.3217 0L10.3217 -1.72255ZM15.9166 -1.15289L20.6977 -1.15289L20.6977 0L14.2687 0L14.2687 -1.15289Q15.0486 -1.95991 16.3947 -3.31963Q17.7409 -4.67936 18.0868 -5.0727Q18.7446 -5.8119 19.0057 -6.32392Q19.2668 -6.83594 19.2668 -7.331Q19.2668 -8.13802 18.7005 -8.64665Q18.1342 -9.15527 17.2255 -9.15527Q16.5812 -9.15527 15.8658 -8.93148Q15.1503 -8.70768 14.3365 -8.25331L14.3365 -9.63677Q15.1638 -9.96908 15.8827 -10.1386Q16.6016 -10.3082 17.1984 -10.3082Q18.7717 -10.3082 19.7076 -9.52148Q20.6434 -8.73481 20.6434 -7.41916Q20.6434 -6.79525 20.4095 -6.23576Q20.1755 -5.67627 19.5584 -4.91672Q19.3888 -4.72005 18.4801 -3.78079Q17.5713 -2.84153 15.9166 -1.15289Z" fill="#262626" transform="translate(180.6818181818182,379.6111111111111) translate(-11.043972969055176,0)" />
<line x1="222.95454545454544" y1="355.6" x2="222.95454545454544" y2="360.8611111111111" stroke="#262626" stroke-width="1.1111111111111112" />
<path d="M4.41488 -9.22309Q3.35693 -9.22309 2.82457 -8.1821Q2.29221 -7.14111 2.29221 -5.05235Q2.29221 -2.97038 2.82457 -1.92939Q3.35693 -0.888401 4.41488 -0.888401Q5.4796 -0.888401 6.01196 -1.92939Q6.54433 -2.97038 6.54433 -5.05235Q6.54433 -7.14111 6.01196 -8.1821Q5.4796 -9.22309 4.41488 -9.22309ZM4.41488 -10.3082Q6.11708 -10.3082 7.01565 -8.962Q7.91422 -7.61583 7.91423 -5.05235Q7.91423 -2.49566 7.01565 -1.1495Q6.11708 0.196669 4.41488 0.196669Q2.71267 0.196669 1.8141 -1.1495Q0.915527 -2.49566 0.915527 -5.05235Q0.915527 -7.61583 1.8141 -8.962Q2.71267 -10.3082 4.41488 -10.3082ZM10.3217 -1.72255L11.7527 -1.72255L11.7527 0L10.3217 0L10.3217 -1.72255ZM18.887 -5.45926Q19.8703 -5.24902 20.423 -4.58442Q20.9757 -3.91981 20.9757 -2.94325Q20.9757 -1.4445 19.9449 -0.623915Q18.9141 0.196669 17.0152 0.196669Q16.3778 0.196669 15.703 0.0712077Q15.0282 -0.0542535 14.3094 -0.305176L14.3094 -1.6276Q14.879 -1.2953 15.5572 -1.12576Q16.2354 -0.956217 16.9746 -0.956217Q18.2631 -0.956217 18.9379 -1.46484Q19.6126 -1.97347 19.6126 -2.94325Q19.6126 -3.83843 18.9853 -4.34367Q18.358 -4.8489 17.239 -4.8489L16.059 -4.8489L16.059 -5.97466L17.2933 -5.97466Q18.3038 -5.97466 18.8395 -6.37817Q19.3753 -6.78168 19.3753 -7.54123Q19.3753 -8.32113 18.8226 -8.7382Q18.2699 -9.15527 17.239 -9.15527Q16.6762 -9.15527 16.0319 -9.0332Q15.3876 -8.91113 14.6145 -8.65343L14.6145 -9.87413Q15.3944 -10.0911 16.076 -10.1997Q16.7575 -10.3082 17.3611 -10.3082Q18.9209 -10.3082 19.8296 -9.59947Q20.7384 -8.89079 20.7384 -7.68365Q20.7384 -6.84272 20.2569 -6.26289Q19.7754 -5.68305 18.887 -5.45926Z" fill="#262626" transform="translate(222.95454545454544,379.6111111111111) translate(-11.043972969055176,0)" />
<line x1="265.22727272727275" y1="355.6" x2="265.22727272727275" y2="360.8611111111111" stroke="#262626" stroke-width="1.1111111111111112" />
<path d="M4.41488 -9.22309Q3.35693 -9.22309 2.82457 -8.1821Q2.29221 -7.14111 2.29221 -5.05235Q2.29221 -2.97038 2.82457 -1.92939Q3.35693 -0.888401 4.41488 -0.888401Q5.4796 -0.888401 6.01196 -1.92939Q6.54433 -2.97038 6.54433 -5.05235Q6.54433 -7.14111 6.01196 -8.1821Q5.4796 -9.22309 4.41488 -9.22309ZM4.41488 -10.3082Q6.11708 -10.3082 7.01565 -8.962Q7.91422 -7.61583 7.91423 -5.05235Q7.91423 -2.49566 7.01565 -1.1495Q6.11708 0.196669 4.41488 0.196669Q2.71267 0.196669 1.8141 -1.1495Q0.915527 -2.49566 0.915527 -5.05235Q0.915527 -7.61583 1.8141 -8.962Q2.71267 -10.3082 4.41488 -10.3082ZM10.3217 -1.72255L11.7527 -1.72255L11.7527 0L10.3217 0L10.3217 -1.72255ZM18.5004 -8.93148L15.0418 -3.52648L18.5004 -3.52648L18.5004 -8.93148ZM18.141 -10.1251L19.8636 -10.1251L19.8636 -3.52648L21.3081 -3.52648L21.3081 -2.38715L19.8636 -2.38715L19.8636 0L18.5004 0L18.5004 -2.38715L13.9296 -2.38715L13.9296 -3.70958L18.141 -10.1251Z" fill="#262626" transform="translate(265.22727272727275,379.6111111111111) translate(-11.043972969055176,0)" />
<line x1="307.5" y1="355.6" x2="307.5" y2="360.8611111111111" stroke="#262626" stroke-width="1.1111111111111112" />
<path d="M4.41488 -9.22309Q3.35693 -9.22309 2.82457 -8.1821Q2.29221 -7.14111 2.29221 -5.05235Q2.29221 -2.97038 2.82457 -1.92939Q3.35693 -0.888401 4.41488 -0.888401Q5.4796 -0.888401 6.01196 -1.92939Q6.54433 -2.97038 6.54433 -5.05235Q6.54433 -7.14111 6.01196 -8.1821Q5.4796 -9.22309 4.41488 -9.22309ZM4.41488 -10.3082Q6.11708 -10.3082 7.01565 -8.962Q7.91422 -7.61583 7.91423 -5.05235Q7.91423 -2.49566 7.01565 -1.1495Q6.11708 0.196669 4.41488 0.196669Q2.71267 0.196669 1.8141 -1.1495Q0.915527 -2.49566 0.915527 -5.05235Q0.915527 -7.61583 1.8141 -8.962Q2.71267 -10.3082 4.41488 -10.3082ZM10.3217 -1.72255L11.7527 -1.72255L11.7527 0L10.3217 0L10.3217 -1.72255ZM14.7502 -10.1251L20.128 -10.1251L20.128 -8.97217L16.0048 -8.97217L16.0048 -6.49007Q16.3032 -6.5918 16.6016 -6.64266Q16.9 -6.69352 17.1984 -6.69352Q18.8938 -6.69352 19.8839 -5.76443Q20.874 -4.83534 20.874 -3.24843Q20.874 -1.61404 19.8568 -0.708686Q18.8395 0.196669 16.9881 0.196669Q16.3506 0.196669 15.6894 0.0881619C15.2486 0.0158239 14.7931 -0.092683 14.3229 -0.237359L14.3229 -1.61404Q14.9333 -1.28174 15.5843 -1.11898Q16.2354 -0.956217 16.961 -0.956217Q18.1342 -0.956217 18.8192 -1.57335Q19.5041 -2.19048 19.5041 -3.24843Q19.5041 -4.30637 18.8192 -4.9235Q18.1342 -5.54064 16.961 -5.54064Q16.4117 -5.54064 15.8658 -5.41857Q15.3198 -5.2965 14.7502 -5.03879L14.7502 -10.1251Z" fill="#262626" transform="translate(307.5,379.6111111111111) translate(-11.043972969055176,0)" />
<line x1="349.77272727272725" y1="355.6" x2="349.77272727272725" y2="360.8611111111111" stroke="#262626" stroke-width="1.1111111111111112" />
<path d="M4.41488 -9.22309Q3.35693 -9.22309 2.82457 -8.1821Q2.29221 -7.14111 2.29221 -5.05235Q2.29221 -2.97038 2.82457 -1.92939Q3.35693 -0.888401 4.41488 -0.888401Q5.4796 -0.888401 6.01196 -1.92939Q6.54433 -2.97038 6.54433 -5.05235Q6.54433 -7.14111 6.01196 -8.1821Q5.4796 -9.22309 4.41488 -9.22309ZM4.41488 -10.3082Q6.11708 -10.3082 7.01565 -8.962Q7.91422 -7.61583 7.91423 -5.05235Q7.91423 -2.49566 7.01565 -1.1495Q6.11708 0.196669 4.41488 0.196669Q2.71267 0.196669 1.8141 -1.1495Q0.915527 -2.49566 0.915527 -5.05235Q0.915527 -7.61583 1.8141 -8.962Q2.71267 -10.3082 4.41488 -10.3082ZM10.3217 -1.72255L11.7527 -1.72255L11.7527 0L10.3217 0L10.3217 -1.72255ZM17.8358 -5.60845Q16.9135 -5.60845 16.3744 -4.97776Q15.8352 -4.34706 15.8352 -3.24843Q15.8352 -2.15658 16.3744 -1.52249Q16.9135 -0.888401 17.8358 -0.888401Q18.7581 -0.888401 19.2973 -1.52249Q19.8364 -2.15658 19.8364 -3.24843Q19.8364 -4.34706 19.2973 -4.97776Q18.7581 -5.60845 17.8358 -5.60845ZM20.5553 -9.90126L20.5553 -8.65343Q20.0399 -8.89757 19.5143 -9.02642Q18.9887 -9.15527 18.4733 -9.15527Q17.117 -9.15527 16.4015 -8.23975Q15.686 -7.32422 15.5843 -5.47282Q15.9844 -6.06282 16.588 -6.37817Q17.1916 -6.69352 17.9172 -6.69352Q19.4431 -6.69352 20.3281 -5.76782Q21.2131 -4.84212 21.2131 -3.24843Q21.2131 -1.68864 20.2908 -0.745985Q19.3685 0.196669 17.8358 0.196669Q16.0794 0.196669 15.1503 -1.1495Q14.2212 -2.49566 14.2212 -5.05235Q14.2212 -7.45307 15.3605 -8.88062Q16.4998 -10.3082 18.4191 -10.3082Q18.9345 -10.3082 19.46 -10.2064Q19.9856 -10.1047 20.5553 -9.90126Z" fill="#262626" transform="translate(349.77272727272725,379.6111111111111) translate(-11.043972969055176,0)" />
<line x1="392.0454545454545" y1="355.6" x2="392.0454545454545" y2="360.8611111111111" stroke="#262626" stroke-width="1.1111111111111112" />
<path d="M4.41488 -9.22309Q3.35693 -9.22309 2.82457 -8.1821Q2.29221 -7.14111 2.29221 -5.05235Q2.29221 -2.97038 2.82457 -1.92939Q3.35693 -0.888401 4.41488 -0.888401Q5.4796 -0.888401 6.01196 -1.92939Q6.54433 -2.97038 6.54433 -5.05235Q6.54433 -7.14111 6.01196 -8.1821Q5.4796 -9.22309 4.41488 -9.22309ZM4.41488 -10.3082Q6.11708 -10.3082 7.01565 -8.962Q7.91422 -7.61583 7.91423 -5.05235Q7.91423 -2.49566 7.01565 -1.1495Q6.11708 0.196669 4.41488 0.196669Q2.71267 0.196669 1.8141 -1.1495Q0.915527 -2.49566 0.915527 -5.05235Q0.915527 -7.61583 1.8141 -8.962Q2.71267 -10.3082 4.41488 -10.3082ZM10.3217 -1.72255L11.7527 -1.72255L11.7527 0L10.3217 0L10.3217 -1.72255ZM14.3907 -10.1251L20.9012 -10.1251L20.9012 -9.54183L17.2255 0L15.7945 0L19.2532 -8.97217L14.3907 -8.97217L14.3907 -10.1251Z" fill="#262626" transform="translate(392.0454545454545,379.6111111111111) translate(-11.043972969055176,0)" />
<line x1="434.3181818181818" y1="355.6" x2="434.3181818181818" y2="360.8611111111111" stroke="#262626" stroke-width="1.1111111111111112" />
<path d="M4.41488 -9.22309Q3.35693 -9.22309 2.82457 -8.1821Q2.29221 -7.14111 2.29221 -5.05235Q2.29221 -2.97038 2.82457 -1.92939Q3.35693 -0.888401 4.41488 -0.888401Q5.4796 -0.888401 6.01196 -1.92939Q6.54433 -2.97038 6.54433 -5.05235Q6.54433 -7.14111 6.01196 -8.1821Q5.4796 -9.22309 4.41488 -9.22309ZM4.41488 -10.3082Q6.11708 -10.3082 7.01565 -8.962Q7.91422 -7.61583 7.91423 -5.05235Q7.91423 -2.49566 7.01565 -1.1495Q6.11708 0.196669 4.41488 0.196669Q2.71267 0.196669 1.8141 -1.1495Q0.915527 -2.49566 0.915527 -5.05235Q0.915527 -7.61583 1.8141 -8.962Q2.71267 -10.3082 4.41488 -10.3082ZM10.3217 -1.72255L11.7527 -1.72255L11.7527 0L10.3217 0L10.3217 -1.72255ZM17.6663 -4.80821Q16.6897 -4.80821 16.1302 -4.28602Q15.5707 -3.76383 15.5707 -2.84831Q15.5707 -1.93278 16.1302 -1.41059Q16.6897 -0.888401 17.6663 -0.888401Q18.6428 -0.888401 19.2057 -1.41398Q19.7686 -1.93956 19.7686 -2.84831Q19.7686 -3.76383 19.2091 -4.28602Q18.6496 -4.80821 17.6663 -4.80821ZM16.2964 -5.39144Q15.4148 -5.60845 14.9231 -6.21202Q14.4314 -6.81559 14.4314 -7.68365Q14.4314 -8.89757 15.2961 -9.60287Q16.1608 -10.3082 17.6663 -10.3082Q19.1786 -10.3082 20.0399 -9.60287Q20.9012 -8.89757 20.9012 -7.68365Q20.9012 -6.81559 20.4095 -6.21202Q19.9178 -5.60845 19.043 -5.39144Q20.0331 -5.16086 20.5858 -4.48947Q21.1385 -3.81809 21.1385 -2.84831Q21.1385 -1.37668 20.2399 -0.590007Q19.3414 0.196669 17.6663 0.196669Q15.9912 0.196669 15.0926 -0.590007Q14.1941 -1.37668 14.1941 -2.84831Q14.1941 -3.81809 14.7502 -4.48947Q15.3063 -5.16086 16.2964 -5.39144ZM15.7945 -7.5548Q15.7945 -6.76812 16.2862 -6.32731Q16.7779 -5.8865 17.6663 -5.8865Q18.5479 -5.8865 19.0464 -6.32731Q19.5448 -6.76812 19.5448 -7.5548Q19.5448 -8.34147 19.0464 -8.78228Q18.5479 -9.22309 17.6663 -9.22309Q16.7779 -9.22309 16.2862 -8.78228Q15.7945 -8.34147 15.7945 -7.5548Z" fill="#262626" transform="translate(434.3181818181818,379.6111111111111) translate(-11.043972969055176,0)" />
<line x1="476.59090909090907" y1="355.6" x2="476.59090909090907" y2="360.8611111111111" stroke="#262626" stroke-width="1.1111111111111112" />
<path d="M4.41488 -9.22309Q3.35693 -9.22309 2.82457 -8.1821Q2.29221 -7.14111 2.29221 -5.05235Q2.29221 -2.97038 2.82457 -1.92939Q3.35693 -0.888401 4.41488 -0.888401Q5.4796 -0.888401 6.01196 -1.92939Q6.54433 -2.97038 6.54433 -5.05235Q6.54433 -7.14111 6.01196 -8.1821Q5.4796 -9.22309 4.41488 -9.22309ZM4.41488 -10.3082Q6.11708 -10.3082 7.01565 -8.962Q7.91422 -7.61583 7.91423 -5.05235Q7.91423 -2.49566 7.01565 -1.1495Q6.11708 0.196669 4.41488 0.196669Q2.71267 0.196669 1.8141 -1.1495Q0.915527 -2.49566 0.915527 -5.05235Q0.915527 -7.61583 1.8141 -8.962Q2.71267 -10.3082 4.41488 -10.3082ZM10.3217 -1.72255L11.7527 -1.72255L11.7527 0L10.3217 0L10.3217 -1.72255ZM14.7773 -0.210232L14.7773 -1.45806Q15.2927 -1.21392 15.8217 -1.08507Q16.3506 -0.956217 16.8593 -0.956217Q18.2156 -0.956217 18.9311 -1.86835Q19.6465 -2.78049 19.7483 -4.63867Q19.3549 -4.05545 18.7514 -3.74349Q18.1478 -3.43153 17.4154 -3.43153Q15.8963 -3.43153 15.0113 -4.35045Q14.1262 -5.26937 14.1262 -6.86306Q14.1262 -8.42285 15.0486 -9.36551Q15.9709 -10.3082 17.5035 -10.3082Q19.26 -10.3082 20.1857 -8.962Q21.1114 -7.61583 21.1114 -5.05235Q21.1114 -2.65842 19.9755 -1.23088Q18.8395 0.196669 16.9203 0.196669Q16.4049 0.196669 15.8759 0.0949436Q15.347 -0.00678168 14.7773 -0.210232ZM17.5035 -4.50304Q18.4258 -4.50304 18.965 -5.13374Q19.5041 -5.76443 19.5041 -6.86306Q19.5041 -7.95491 18.965 -8.589Q18.4258 -9.22309 17.5035 -9.22309Q16.5812 -9.22309 16.0421 -8.589Q15.5029 -7.95492 15.5029 -6.86306Q15.5029 -5.76443 16.0421 -5.13374Q16.5812 -4.50304 17.5035 -4.50304Z" fill="#262626" transform="translate(476.59090909090907,379.6111111111111) translate(-11.043972969055176,0)" />
<line x1="518.8636363636364" y1="355.6" x2="518.8636363636364" y2="360.8611111111111" stroke="#262626" stroke-width="1.1111111111111112" />
<path d="M1.72255 -1.15289L3.9605 -1.15289L3.9605 -8.87722L1.52588 -8.38894L1.52588 -9.63677L3.94694 -10.1251L5.31684 -10.1251L5.31684 -1.15289L7.5548 -1.15289L7.5548 0L1.72255 0L1.72255 -1.15289ZM10.3217 -1.72255L11.7527 -1.72255L11.7527 0L10.3217 0L10.3217 -1.72255ZM17.6663 -9.22309Q16.6083 -9.22309 16.076 -8.1821Q15.5436 -7.14111 15.5436 -5.05235Q15.5436 -2.97038 16.076 -1.92939Q16.6083 -0.888401 17.6663 -0.888401Q18.731 -0.888401 19.2634 -1.92939Q19.7957 -2.97038 19.7957 -5.05235Q19.7957 -7.14111 19.2634 -8.1821Q18.731 -9.22309 17.6663 -9.22309ZM17.6663 -10.3082Q19.3685 -10.3082 20.2671 -8.962Q21.1656 -7.61583 21.1656 -5.05235Q21.1656 -2.49566 20.2671 -1.1495Q19.3685 0.196669 17.6663 0.196669Q15.9641 0.196669 15.0655 -1.1495Q14.1669 -2.49566 14.1669 -5.05235Q14.1669 -7.61583 15.0655 -8.962Q15.9641 -10.3082 17.6663 -10.3082Z" fill="#262626" transform="translate(518.8636363636364,379.6111111111111) translate(-11.043972969055176,0)" />
<line x1="70.13888888888889" y1="342" x2="75.4" y2="342" stroke="#262626" stroke-width="1.1111111111111112" />
<path d="M4.41488 -9.22309Q3.35693 -9.22309 2.82457 -8.1821Q2.29221 -7.14111 2.29221 -5.05235Q2.29221 -2.97038 2.82457 -1.92939Q3.35693 -0.888401 4.41488 -0.888401Q5.4796 -0.888401 6.01196 -1.92939Q6.54433 -2.97038 6.54433 -5.05235Q6.54433 -7.14111 6.01196 -8.1821Q5.4796 -9.22309 4.41488 -9.22309ZM4.41488 -10.3082Q6.11708 -10.3082 7.01565 -8.962Q7.91422 -7.61583 7.91423 -5.05235Q7.91423 -2.49566 7.01565 -1.1495Q6.11708 0.196669 4.41488 0.196669Q2.71267 0.196669 1.8141 -1.1495Q0.915527 -2.49566 0.915527 -5.05235Q0.915527 -7.61583 1.8141 -8.962Q2.71267 -10.3082 4.41488 -10.3082ZM10.3217 -1.72255L11.7527 -1.72255L11.7527 0L10.3217 0L10.3217 -1.72255ZM17.6663 -9.22309Q16.6083 -9.22309 16.076 -8.1821Q15.5436 -7.14111 15.5436 -5.05235Q15.5436 -2.97038 16.076 -1.92939Q16.6083 -0.888401 17.6663 -0.888401Q18.731 -0.888401 19.2634 -1.92939Q19.7957 -2.97038 19.7957 -5.05235Q19.7957 -7.14111 19.2634 -8.1821Q18.731 -9.22309 17.6663 -9.22309ZM17.6663 -10.3082Q19.3685 -10.3082 20.2671 -8.962Q21.1656 -7.61583 21.1656 -5.05235Q21.1656 -2.49566 20.2671 -1.1495Q19.3685 0.196669 17.6663 0.196669Q15.9641 0.196669 15.0655 -1.1495Q14.1669 -2.49566 14.1669 -5.05235Q14.1669 -7.61583 15.0655 -8.962Q15.9641 -10.3082 17.6663 -10.3082Z" fill="#262626" transform="translate(65.27777777777777,346) translate(-22.08794593811035,0)" />
<line x1="70.13888888888889" y1="314" x2="75.4" y2="314" stroke="#262626" stroke-width="1.1111111111111112" />
<path d="M4.41488 -9.22309Q3.35693 -9.22309 2.82457 -8.1821Q2.29221 -7.14111 2.29221 -5.05235Q2.29221 -2.97038 2.82457 -1.92939Q3.35693 -0.888401 4.41488 -0.888401Q5.4796 -0.888401 6.01196 -1.92939Q6.54433 -2.97038 6.54433 -5.05235Q6.54433 -7.14111 6.01196 -8.1821Q5.4796 -9.22309 4.41488 -9.22309ZM4.41488 -10.3082Q6.11708 -10.3082 7.01565 -8.962Q7.91422 -7.61583 7.91423 -5.05235Q7.91423 -2.49566 7.01565 -1.1495Q6.11708 0.196669 4.41488 0.196669Q2.71267 0.196669 1.8141 -1.1495Q0.915527 -2.49566 0.915527 -5.05235Q0.915527 -7.61583 1.8141 -8.962Q2.71267 -10.3082 4.41488 -10.3082ZM10.3217 -1.72255L11.7527 -1.72255L11.7527 0L10.3217 0L10.3217 -1.72255ZM14.974 -1.15289L17.2119 -1.15289L17.2119 -8.87722L14.7773 -8.38894L14.7773 -9.63677L17.1984 -10.1251L18.5683 -10.1251L18.5683 -1.15289L20.8062 -1.15289L20.8062 0L14.974 0L14.974 -1.15289Z" fill="#262626" transform="translate(65.27777777777777,318) translate(-22.08794593811035,0)" />
<line x1="70.13888888888889" y1="286" x2="75.4" y2="286" stroke="#262626" stroke-width="1.1111111111111112" />
<path d="M4.41488 -9.22309Q3.35693 -9.22309 2.82457 -8.1821Q2.29221 -7.14111 2.29221 -5.05235Q2.29221 -2.97038 2.82457 -1.92939Q3.35693 -0.888401 4.41488 -0.888401Q5.4796 -0.888401 6.01196 -1.92939Q6.54433 -2.97038 6.54433 -5.05235Q6.54433 -7.14111 6.01196 -8.1821Q5.4796 -9.22309 4.41488 -9.22309ZM4.41488 -10.3082Q6.11708 -10.3082 7.01565 -8.962Q7.91422 -7.61583 7.91423 -5.05235Q7.91423 -2.49566 7.01565 -1.1495Q6.11708 0.196669 4.41488 0.196669Q2.71267 0.196669 1.8141 -1.1495Q0.915527 -2.49566 0.915527 -5.05235Q0.915527 -7.61583 1.8141 -8.962Q2.71267 -10.3082 4.41488 -10.3082ZM10.3217 -1.72255L11.7527 -1.72255L11.7527 0L10.3217 0L10.3217 -1.72255ZM15.9166 -1.15289L20.6977 -1.15289L20.6977 0L14.2687 0L14.2687 -1.15289Q15.0486 -1.95991 16.3947 -3.31963Q17.7409 -4.67936 18.0868 -5.0727Q18.7446 -5.8119 19.0057 -6.32392Q19.2668 -6.83594 19.2668 -7.331Q19.2668 -8.13802 18.7005 -8.64665Q18.1342 -9.15527 17.2255 -9.15527Q16.5812 -9.15527 15.8658 -8.93148Q15.1503 -8.70768 14.3365 -8.25331L14.3365 -9.63677Q15.1638 -9.96908 15.8827 -10.1386Q16.6016 -10.3082 17.1984 -10.3082Q18.7717 -10.3082 19.7076 -9.52148Q20.6434 -8.73481 20.6434 -7.41916Q20.6434 -6.79525 20.4095 -6.23576Q20.1755 -5.67627 19.5584 -4.91672Q19.3888 -4.72005 18.4801 -3.78079Q17.5713 -2.84153 15.9166 -1.15289Z" fill="#262626" transform="translate(65.27777777777777,290) translate(-22.08794593811035,0)" />
<line x1="70.13888888888889" y1="258" x2="75.4" y2="258" stroke="#262626" stroke-width="1.1111111111111112" />
<path d="M4.41488 -9.22309Q3.35693 -9.22309 2.82457 -8.1821Q2.29221 -7.14111 2.29221 -5.05235Q2.29221 -2.97038 2.82457 -1.92939Q3.35693 -0.888401 4.41488 -0.888401Q5.4796 -0.888401 6.01196 -1.92939Q6.54433 -2.97038 6.54433 -5.05235Q6.54433 -7.14111 6.01196 -8.1821Q5.4796 -9.22309 4.41488 -9.22309ZM4.41488 -10.3082Q6.11708 -10.3082 7.01565 -8.962Q7.91422 -7.61583 7.91423 -5.05235Q7.91423 -2.49566 7.01565 -1.1495Q6.11708 0.196669 4.41488 0.196669Q2.71267 0.196669 1.8141 -1.1495Q0.915527 -2.49566 0.915527 -5.05235Q0.915527 -7.61583 1.8141 -8.962Q2.71267 -10.3082 4.41488 -10.3082ZM10.3217 -1.72255L11.7527 -1.72255L11.7527 0L10.3217 0L10.3217 -1.72255ZM18.887 -5.45926Q19.8703 -5.24902 20.423 -4.58442Q20.9757 -3.91981 20.9757 -2.94325Q20.9757 -1.4445 19.9449 -0.623915Q18.9141 0.196669 17.0152 0.196669Q16.3778 0.196669 15.703 0.0712077Q15.0282 -0.0542535 14.3094 -0.305176L14.3094 -1.6276Q14.879 -1.2953 15.5572 -1.12576Q16.2354 -0.956217 16.9746 -0.956217Q18.2631 -0.956217 18.9379 -1.46484Q19.6126 -1.97347 19.6126 -2.94325Q19.6126 -3.83843 18.9853 -4.34367Q18.358 -4.8489 17.239 -4.8489L16.059 -4.8489L16.059 -5.97466L17.2933 -5.97466Q18.3038 -5.97466 18.8395 -6.37817Q19.3753 -6.78168 19.3753 -7.54123Q19.3753 -8.32113 18.8226 -8.7382Q18.2699 -9.15527 17.239 -9.15527Q16.6762 -9.15527 16.0319 -9.0332Q15.3876 -8.91113 14.6145 -8.65343L14.6145 -9.87413Q15.3944 -10.0911 16.076 -10.1997Q16.7575 -10.3082 17.3611 -10.3082Q18.9209 -10.3082 19.8296 -9.59947Q20.7384 -8.89079 20.7384 -7.68365Q20.7384 -6.84272 20.2569 -6.26289Q19.7754 -5.68305 18.887 -5.45926Z" fill="#262626" transform="translate(65.27777777777777,262) translate(-22.08794593811035,0)" />
<line x1="70.13888888888889" y1="230" x2="75.4" y2="230" stroke="#262626" stroke-width="1.1111111111111112" />
<path d="M4.41488 -9.22309Q3.35693 -9.22309 2.82457 -8.1821Q2.29221 -7.14111 2.29221 -5.05235Q2.29221 -2.97038 2.82457 -1.92939Q3.35693 -0.888401 4.41488 -0.888401Q5.4796 -0.888401 6.01196 -1.92939Q6.54433 -2.97038 6.54433 -5.05235Q6.54433 -7.14111 6.01196 -8.1821Q5.4796 -9.22309 4.41488 -9.22309ZM4.41488 -10.3082Q6.11708 -10.3082 7.01565 -8.962Q7.91422 -7.61583 7.91423 -5.05235Q7.91423 -2.49566 7.01565 -1.1495Q6.11708 0.196669 4.41488 0.196669Q2.71267 0.196669 1.8141 -1.1495Q0.915527 -2.49566 0.915527 -5.05235Q0.915527 -7.61583 1.8141 -8.962Q2.71267 -10.3082 4.41488 -10.3082ZM10.3217 -1.72255L11.7527 -1.72255L11.7527 0L10.3217 0L10.3217 -1.72255ZM18.5004 -8.93148L15.0418 -3.52648L18.5004 -3.52648L18.5004 -8.93148ZM18.141 -10.1251L19.8636 -10.1251L19.8636 -3.52648L21.3081 -3.52648L21.3081 -2.38715L19.8636 -2.38715L19.8636 0L18.5004 0L18.5004 -2.38715L13.9296 -2.38715L13.9296 -3.70958L18.141 -10.1251Z" fill="#262626" transform="translate(65.27777777777777,234) translate(-22.08794593811035,0)" />
<line x1="70.13888888888889" y1="202" x2="75.4" y2="202" stroke="#262626" stroke-width="1.1111111111111112" />
<path d="M4.41488 -9.22309Q3.35693 -9.22309 2.82457 -8.1821Q2.29221 -7.14111 2.29221 -5.05235Q2.29221 -2.97038 2.82457 -1.92939Q3.35693 -0.888401 4.41488 -0.888401Q5.4796 -0.888401 6.01196 -1.92939Q6.54433 -2.97038 6.54433 -5.05235Q6.54433 -7.14111 6.01196 -8.1821Q5.4796 -9.22309 4.41488 -9.22309ZM4.41488 -10.3082Q6.11708 -10.3082 7.01565 -8.962Q7.91422 -7.61583 7.91423 -5.05235Q7.91423 -2.49566 7.01565 -1.1495Q6.11708 0.196669 4.41488 0.196669Q2.71267 0.196669 1.8141 -1.1495Q0.915527 -2.49566 0.915527 -5.05235Q0.915527 -7.61583 1.8141 -8.962Q2.71267 -10.3082 4.41488 -10.3082ZM10.3217 -1.72255L11.7527 -1.72255L11.7527 0L10.3217 0L10.3217 -1.72255ZM14.7502 -10.1251L20.128 -10.1251L20.128 -8.97217L16.0048 -8.97217L16.0048 -6.49007Q16.3032 -6.5918 16.6016 -6.64266Q16.9 -6.69352 17.1984 -6.69352Q18.8938 -6.69352 19.8839 -5.76443Q20.874 -4.83534 20.874 -3.24843Q20.874 -1.61404 19.8568 -0.708686Q18.8395 0.196669 16.9881 0.196669Q16.3506 0.196669 15.6894 0.0881619C15.2486 0.0158239 14.7931 -0.092683 14.3229 -0.237359L14.3229 -1.61404Q14.9333 -1.28174 15.5843 -1.11898Q16.2354 -0.956217 16.961 -0.956217Q18.1342 -0.956217 18.8192 -1.57335Q19.5041 -2.19048 19.5041 -3.24843Q19.5041 -4.30637 18.8192 -4.9235Q18.1342 -5.54064 16.961 -5.54064Q16.4117 -5.54064 15.8658 -5.41857Q15.3198 -5.2965 14.7502 -5.03879L14.7502 -10.1251Z" fill="#262626" transform="translate(65.27777777777777,206) translate(-22.08794593811035,0)" />
<line x1="70.13888888888889" y1="174" x2="75.4" y2="174" stroke="#262626" stroke-width="1.1111111111111112" />
<path d="M4.41488 -9.22309Q3.35693 -9.22309 2.82457 -8.1821Q2.29221 -7.14111 2.29221 -5.05235Q2.29221 -2.97038 2.82457 -1.92939Q3.35693 -0.888401 4.41488 -0.888401Q5.4796 -0.888401 6.01196 -1.92939Q6.54433 -2.97038 6.54433 -5.05235Q6.54433 -7.14111 6.01196 -8.1821Q5.4796 -9.22309 4.41488 -9.22309ZM4.41488 -10.3082Q6.11708 -10.3082 7.01565 -8.962Q7.91422 -7.61583 7.91423 -5.05235Q7.91423 -2.49566 7.01565 -1.1495Q6.11708 0.196669 4.41488 0.196669Q2.71267 0.196669 1.8141 -1.1495Q0.915527 -2.49566 0.915527 -5.05235Q0.915527 -7.61583 1.8141 -8.962Q2.71267 -10.3082 4.41488 -10.3082ZM10.3217 -1.72255L11.7527 -1.72255L11.7527 0L10.3217 0L10.3217 -1.72255ZM17.8358 -5.60845Q16.9135 -5.60845 16.3744 -4.97776Q15.8352 -4.34706 15.8352 -3.24843Q15.8352 -2.15658 16.3744 -1.52249Q16.9135 -0.888401 17.8358 -0.888401Q18.7581 -0.888401 19.2973 -1.52249Q19.8364 -2.15658 19.8364 -3.24843Q19.8364 -4.34706 19.2973 -4.97776Q18.7581 -5.60845 17.8358 -5.60845ZM20.5553 -9.90126L20.5553 -8.65343Q20.0399 -8.89757 19.5143 -9.02642Q18.9887 -9.15527 18.4733 -9.15527Q17.117 -9.15527 16.4015 -8.23975Q15.686 -7.32422 15.5843 -5.47282Q15.9844 -6.06282 16.588 -6.37817Q17.1916 -6.69352 17.9172 -6.69352Q19.4431 -6.69352 20.3281 -5.76782Q21.2131 -4.84212 21.2131 -3.24843Q21.2131 -1.68864 20.2908 -0.745985Q19.3685 0.196669 17.8358 0.196669Q16.0794 0.196669 15.1503 -1.1495Q14.2212 -2.49566 14.2212 -5.05235Q14.2212 -7.45307 15.3605 -8.88062Q16.4998 -10.3082 18.4191 -10.3082Q18.9345 -10.3082 19.46 -10.2064Q19.9856 -10.1047 20.5553 -9.90126Z" fill="#262626" transform="translate(65.27777777777777,178) translate(-22.08794593811035,0)" />
<line x1="70.13888888888889" y1="146" x2="75.4" y2="146" stroke="#262626" stroke-width="1.1111111111111112" />
<path d="M4.41488 -9.22309Q3.35693 -9.22309 2.82457 -8.1821Q2.29221 -7.14111 2.29221 -5.05235Q2.29221 -2.97038 2.82457 -1.92939Q3.35693 -0.888401 4.41488 -0.888401Q5.4796 -0.888401 6.01196 -1.92939Q6.54433 -2.97038 6.54433 -5.05235Q6.54433 -7.14111 6.01196 -8.1821Q5.4796 -9.22309 4.41488 -9.22309ZM4.41488 -10.3082Q6.11708 -10.3082 7.01565 -8.962Q7.91422 -7.61583 7.91423 -5.05235Q7.91423 -2.49566 7.01565 -1.1495Q6.11708 0.196669 4.41488 0.196669Q2.71267 0.196669 1.8141 -1.1495Q0.915527 -2.49566 0.915527 -5.05235Q0.915527 -7.61583 1.8141 -8.962Q2.71267 -10.3082 4.41488 -10.3082ZM10.3217 -1.72255L11.7527 -1.72255L11.7527 0L10.3217 0L10.3217 -1.72255ZM14.3907 -10.1251L20.9012 -10.1251L20.9012 -9.54183L17.2255 0L15.7945 0L19.2532 -8.97217L14.3907 -8.97217L14.3907 -10.1251Z" fill="#262626" transform="translate(65.27777777777777,150) translate(-22.08794593811035,0)" />
<line x1="70.13888888888889" y1="118" x2="75.4" y2="118" stroke="#262626" stroke-width="1.1111111111111112" />
<path d="M4.41488 -9.22309Q3.35693 -9.22309 2.82457 -8.1821Q2.29221 -7.14111 2.29221 -5.05235Q2.29221 -2.97038 2.82457 -1.92939Q3.35693 -0.888401 4.41488 -0.888401Q5.4796 -0.888401 6.01196 -1.92939Q6.54433 -2.97038 6.54433 -5.05235Q6.54433 -7.14111 6.01196 -8.1821Q5.4796 -9.22309 4.41488 -9.22309ZM4.41488 -10.3082Q6.11708 -10.3082 7.01565 -8.962Q7.91422 -7.61583 7.91423 -5.05235Q7.91423 -2.49566 7.01565 -1.1495Q6.11708 0.196669 4.41488 0.196669Q2.71267 0.196669 1.8141 -1.1495Q0.915527 -2.49566 0.915527 -5.05235Q0.915527 -7.61583 1.8141 -8.962Q2.71267 -10.3082 4.41488 -10.3082ZM10.3217 -1.72255L11.7527 -1.72255L11.7527 0L10.3217 0L10.3217 -1.72255ZM17.6663 -4.80821Q16.6897 -4.80821 16.1302 -4.28602Q15.5707 -3.76383 15.5707 -2.84831Q15.5707 -1.93278 16.1302 -1.41059Q16.6897 -0.888401 17.6663 -0.888401Q18.6428 -0.888401 19.2057 -1.41398Q19.7686 -1.93956 19.7686 -2.84831Q19.7686 -3.76383 19.2091 -4.28602Q18.6496 -4.80821 17.6663 -4.80821ZM16.2964 -5.39144Q15.4148 -5.60845 14.9231 -6.21202Q14.4314 -6.81559 14.4314 -7.68365Q14.4314 -8.89757 15.2961 -9.60287Q16.1608 -10.3082 17.6663 -10.3082Q19.1786 -10.3082 20.0399 -9.60287Q20.9012 -8.89757 20.9012 -7.68365Q20.9012 -6.81559 20.4095 -6.21202Q19.9178 -5.60845 19.043 -5.39144Q20.0331 -5.16086 20.5858 -4.48947Q21.1385 -3.81809 21.1385 -2.84831Q21.1385 -1.37668 20.2399 -0.590007Q19.3414 0.196669 17.6663 0.196669Q15.9912 0.196669 15.0926 -0.590007Q14.1941 -1.37668 14.1941 -2.84831Q14.1941 -3.81809 14.7502 -4.48947Q15.3063 -5.16086 16.2964 -5.39144ZM15.7945 -7.5548Q15.7945 -6.76812 16.2862 -6.32731Q16.7779 -5.8865 17.6663 -5.8865Q18.5479 -5.8865 19.0464 -6.32731Q19.5448 -6.76812 19.5448 -7.5548Q19.5448 -8.34147 19.0464 -8.78228Q18.5479 -9.22309 17.6663 -9.22309Q16.7779 -9.22309 16.2862 -8.78228Q15.7945 -8.34147 15.7945 -7.5548Z" fill="#262626" transform="translate(65.27777777777777,122) translate(-22.08794593811035,0)" />
<line x1="70.13888888888889" y1="90" x2="75.4" y2="90" stroke="#262626" stroke-width="1.1111111111111112" />
<path d="M4.41488 -9.22309Q3.35693 -9.22309 2.82457 -8.1821Q2.29221 -7.14111 2.29221 -5.05235Q2.29221 -2.97038 2.82457 -1.92939Q3.35693 -0.888401 4.41488 -0.888401Q5.4796 -0.888401 6.01196 -1.92939Q6.54433 -2.97038 6.54433 -5.05235Q6.54433 -7.14111 6.01196 -8.1821Q5.4796 -9.22309 4.41488 -9.22309ZM4.41488 -10.3082Q6.11708 -10.3082 7.01565 -8.962Q7.91422 -7.61583 7.91423 -5.05235Q7.91423 -2.49566 7.01565 -1.1495Q6.11708 0.196669 4.41488 0.196669Q2.71267 0.196669 1.8141 -1.1495Q0.915527 -2.49566 0.915527 -5.05235Q0.915527 -7.61583 1.8141 -8.962Q2.71267 -10.3082 4.41488 -10.3082ZM10.3217 -1.72255L11.7527 -1.72255L11.7527 0L10.3217 0L10.3217 -1.72255ZM14.7773 -0.210232L14.7773 -1.45806Q15.2927 -1.21392 15.8217 -1.08507Q16.3506 -0.956217 16.8593 -0.956217Q18.2156 -0.956217 18.9311 -1.86835Q19.6465 -2.78049 19.7483 -4.63867Q19.3549 -4.05545 18.7514 -3.74349Q18.1478 -3.43153 17.4154 -3.43153Q15.8963 -3.43153 15.0113 -4.35045Q14.1262 -5.26937 14.1262 -6.86306Q14.1262 -8.42285 15.0486 -9.36551Q15.9709 -10.3082 17.5035 -10.3082Q19.26 -10.3082 20.1857 -8.962Q21.1114 -7.61583 21.1114 -5.05235Q21.1114 -2.65842 19.9755 -1.23088Q18.8395 0.196669 16.9203 0.196669Q16.4049 0.196669 15.8759 0.0949436Q15.347 -0.00678168 14.7773 -0.210232ZM17.5035 -4.50304Q18.4258 -4.50304 18.965 -5.13374Q19.5041 -5.76443 19.5041 -6.86306Q19.5041 -7.95491 18.965 -8.589Q18.4258 -9.22309 17.5035 -9.22309Q16.5812 -9.22309 16.0421 -8.589Q15.5029 -7.95492 15.5029 -6.86306Q15.5029 -5.76443 16.0421 -5.13374Q16.5812 -4.50304 17.5035 -4.50304Z" fill="#262626" transform="translate(65.27777777777777,94) translate(-22.08794593811035,0)" />
<line x1="70.13888888888889" y1="62" x2="75.4" y2="62" stroke="#262626" stroke-width="1.1111111111111112" />
<path d="M1.72255 -1.15289L3.9605 -1.15289L3.9605 -8.87722L1.52588 -8.38894L1.52588 -9.63677L3.94694 -10.1251L5.31684 -10.1251L5.31684 -1.15289L7.5548 -1.15289L7.5548 0L1.72255 0L1.72255 -1.15289ZM10.3217 -1.72255L11.7527 -1.72255L11.7527 0L10.3217 0L10.3217 -1.72255ZM17.6663 -9.22309Q16.6083 -9.22309 16.076 -8.1821Q15.5436 -7.14111 15.5436 -5.05235Q15.5436 -2.97038 16.076 -1.92939Q16.6083 -0.888401 17.6663 -0.888401Q18.731 -0.888401 19.2634 -1.92939Q19.7957 -2.97038 19.7957 -5.05235Q19.7957 -7.14111 19.2634 -8.1821Q18.731 -9.22309 17.6663 -9.22309ZM17.6663 -10.3082Q19.3685 -10.3082 20.2671 -8.962Q21.1656 -7.61583 21.1656 -5.05235Q21.1656 -2.49566 20.2671 -1.1495Q19.3685 0.196669 17.6663 0.196669Q15.9641 0.196669 15.0655 -1.1495Q14.1669 -2.49566 14.1669 -5.05235Q14.1669 -7.61583 15.0655 -8.962Q15.9641 -10.3082 17.6663 -10.3082Z" fill="#262626" transform="translate(65.27777777777777,66) translate(-22.08794593811035,0)" />
<polygon points="184.3,279 184.54310705763695,271.2642079939886 185.27146879805633,263.5589456248777 186.48221071022556,255.91462204303872 188.17055454895265,248.36140590128988 190.32983719243708,240.92910629300647 192.95153693856741,233.64705510924765 196.02530713618643,226.54399127918302 199.53901701859598,219.6479473506687 203.47879957815172,212.9861388585876 207.82910629300648,206.5848569175673 212.57276849002278,200.4693644629614 217.6910651016821,194.66379654958553 223.16379654958553,189.1910651016821 228.96936446296144,184.07276849002278 235.08485691756732,179.32910629300648 241.48613885858765,174.97879957815172 248.1479473506687,171.03901701859598 255.04399127918305,167.5253071361864 262.1470551092477,164.45153693856741 269.4291062930065,161.82983719243708 280.85037440510456,196.98088603470597 275.75293857647335,198.8160758569972 270.78079389542813,200.96771499533048 265.9535631454681,203.4273119130172 261.29029720101136,206.18515970470622 256.8093998422971,209.23037440510456 252.528555124073,212.55093794301592 248.4646575847099,216.13374557117749 244.63374557117749,219.96465758470987 241.05093794301595,224.028555124073 237.73037440510456,228.30939984229713 234.68515970470622,232.79029720101133 231.9273119130172,237.45356314546808 229.46771499533048,242.28079389542813 227.3160758569972,247.25293857647335 225.48088603470597,252.35037440510453 223.96938818426685,257.5529841309029 222.7875474971579,262.8402354301271 221.94002815863945,268.19126193741437 221.43017494034586,273.584945595792 221.26,279" fill="#E74C3C" />
<polygon points="269.4291062930065,161.82983719243708 274.99084024426605,160.16652604599926 280.62475265994595,158.7670549291463 286.31833484557677,157.63453101773183 292.0589456248777,156.77146879805633 297.8338394063295,156.17978448407865 303.6301944815746,155.86079176294186 309.4351414928163,155.81519887825942 315.2357920060114,156.04310705763695 321.01926712641676,156.54401028792188 326.7727260929565,157.31679643867903 332.48339478792235,158.35974973139844 338.1385940987101,159.67055454895265 343.72576806861986,161.24630057684573 349.2325117742199,163.08348926483941 354.64659886737905,165.17804159460945 359.95600872081695,167.52530713618637 365.14895311690265,170.12007437307295 370.2139024204458,172.95658227311415 375.13961117736983,176.0285330794291 379.9151430824327,179.32910629300648 358.1906001577029,209.23037440510456 354.8477278241589,206.9199731556004 351.39973169431204,204.76960759117992 347.85426718183186,202.7840520611511 344.21920610457187,200.96771499533048 340.50261920716537,199.32462911622662 336.7127582419539,197.8584424853876 332.8580376480339,196.57241040379202 328.9470158690971,195.46938818426685 324.98837635154564,194.55182481197892 320.9909082650695,193.82175750707532 316.96348698849175,193.28080720154531 312.915054404208,192.93017494034586 308.8545990449714,192.7706392147816 304.7911361371022,192.8025542340593 300.73368758443064,193.02584913885505 296.6912619374144,193.44002815863945 292.67283439190373,194.0441717124123 288.68732686196216,194.83693845040244 284.74358817098624,195.8165682321995 280.85037440510456,196.98088603470597" fill="#F39C12" />
<polygon points="379.9151430824327,179.32910629300648 384.5298952605589,182.85097381591777 388.97362180787394,186.5863162215274 393.2364565401731,190.52684011557514 397.3089348983179,194.66379654958556 401.1820149619238,198.98800044572135 404.84709752468507,203.4898509899533 408.2960451867629,208.15935294826807 411.5212004218483,212.9861388585876 414.51540257878514,217.9594920491274 417.2720037800069,223.06837043208785 419.78488368148686,228.30143101985058 422.0484630614326,233.64705510924767 424.0577162075536,239.093374077988 425.8081820753994,244.62829573596696 427.29597419299375,250.23953117295247 428.51778928977444,255.91462204303872 429.4709146306799,261.6409682252898 430.15323403909946,267.40585579915904 430.56323259531473,273.19648527257203 430.7,279 393.74,279 393.6442628167203,274.9375396908004 393.3572638273696,270.8840990594113 392.8796402414759,266.8486777577029 392.2124525028421,262.8402354301271 391.35718193509564,258.8676718210667 390.3157274527796,254.93980701517688 389.0904013452875,251.0653618545916 387.6839241430028,247.25293857647338 386.0994185770408,243.5110017138954 384.34040264600486,239.8478593024615 382.4107818051496,236.27164443438917 380.3148402952938,232.79029720101133 378.057231630734,229.41154706378765 375.64296826727957,226.1428956929673 373.0774104733467,222.99160031200495 370.3662544288225,219.9646575847099 367.5155195781212,217.0687880809026 364.53153526551176,214.3104213550692 361.4209266823912,211.69568167114244 358.1906001577029,209.23037440510456" fill="#2ECC71" />
<line x1="307.5" y1="279" x2="374.2510402064828" y2="198.31185321651935" stroke="#000000" stroke-width="2.5" />
<circle cx="307.5" cy="279" r="4" fill="#000000" />
<path d="M6.41016 -7.33594Q5.84766 -6.32227 5.40234 -5.43457Q4.95703 -4.54688 4.61719 -3.68262Q4.27734 -2.81836 4.03711 -1.9248Q3.79687 -1.03125 3.64453 0L1.71094 0Q1.875 -0.978516 2.14453 -1.88672Q2.41406 -2.79492 2.76855 -3.64746Q3.12305 -4.5 3.55371 -5.30859Q3.98438 -6.11719 4.46484 -6.89063L0.5625 -6.89063L0.5625 -8.40234L6.41016 -8.40234L6.41016 -7.33594ZM9.41602 -1.53516L12.9785 -1.53516L12.9785 0L7.38867 0L7.38867 -0.632813Q7.38867 -1.27734 7.60547 -1.79004Q7.82227 -2.30273 8.15039 -2.70996Q8.47852 -3.11719 8.86816 -3.43066Q9.25781 -3.74414 9.60938 -3.99609Q9.97852 -4.25977 10.2568 -4.5Q10.5352 -4.74023 10.7256 -4.97754Q10.916 -5.21484 11.0098 -5.45801Q11.1035 -5.70117 11.1035 -5.97656Q11.1035 -6.51562 10.7988 -6.79102Q10.4941 -7.06641 9.86719 -7.06641Q8.7832 -7.06641 7.79297 -6.20508L7.79297 -7.83398Q8.88867 -8.54297 10.2656 -8.54297Q10.9043 -8.54297 11.4111 -8.37598Q11.918 -8.20898 12.2695 -7.89844Q12.6211 -7.58789 12.8057 -7.14551Q12.9902 -6.70313 12.9902 -6.1582Q12.9902 -5.57813 12.8115 -5.12695Q12.6328 -4.67578 12.3369 -4.30664Q12.041 -3.9375 11.6543 -3.62988Q11.2676 -3.32227 10.8516 -3.03516Q10.5703 -2.83594 10.3096 -2.63965Q10.0488 -2.44336 9.84961 -2.25293Q9.65039 -2.0625 9.5332 -1.88086Q9.41602 -1.69922 9.41602 -1.53516Z" transform="translate(307.5,299) translate(-6.90234375,0)" />
<g class="spine">
<line x1="75" y1="356" x2="540" y2="356" stroke="#262626" stroke-width="0.8" />
</g>
<g class="spine">
<line x1="75" y1="48" x2="540" y2="48" stroke="#262626" stroke-width="0.8" />
</g>
<g class="spine">
<line x1="75" y1="48" x2="75" y2="356" stroke="#262626" stroke-width="0.8" />
</g>
<g class="spine">
<line x1="540" y1="48" x2="540" y2="356" stroke="#262626" stroke-width="0.8" />
</g>
</svg>
