<svg xmlns="http://www.w3.org/2000/svg" viewBox="0 0 600 600" width="600" height="600" role="img" aria-labelledby="chart-title">
<title id="chart-title">Globe — 45°N, 30°W</title>
<rect x="0" y="0" width="600" height="600" fill="#FFFFFF" />
<path d="M13.3643 -0.969564Q12.1064 -0.358127 10.7526 -0.0524089Q9.39865 0.253309 7.95741 0.253309Q4.69933 0.253309 2.79514 -1.5679Q0.89095 -3.38911 0.890951 -6.50743Q0.89095 -9.6607 2.83008 -11.4688Q4.76921 -13.2769 8.14084 -13.2769Q9.44233 -13.2769 10.6346 -13.0323Q11.8269 -12.7878 12.8838 -12.3073L12.8838 -9.60829Q11.792 -10.2285 10.7132 -10.5342Q9.63449 -10.8399 8.55138 -10.8399Q6.54237 -10.8399 5.45489 -9.71747Q4.3674 -8.59505 4.3674 -6.50743Q4.3674 -4.43728 5.41558 -3.31049Q6.46376 -2.1837 8.39415 -2.1837Q8.91824 -2.1837 9.36808 -2.24921Q9.81792 -2.31472 10.1761 -2.45448L10.1761 -4.98758L8.12337 -4.98758L8.12337 -7.24116L13.3643 -7.24116L13.3643 -0.969564ZM16.1856 -13.5914L19.3127 -13.5914L19.3127 0L16.1856 0L16.1856 -13.5914ZM26.9731 -7.78271Q25.9336 -7.78271 25.3877 -7.03589Q24.8418 -6.28906 24.8418 -4.88276Q24.8418 -3.47645 25.3877 -2.72963Q25.9336 -1.9828 26.9731 -1.9828Q27.9951 -1.9828 28.5366 -2.72963Q29.0782 -3.47645 29.0782 -4.88276Q29.0782 -6.28906 28.5366 -7.03589Q27.9951 -7.78271 26.9731 -7.78271ZM26.9731 -10.0188Q29.4974 -10.0188 30.9169 -8.6562Q32.3363 -7.29357 32.3363 -4.88276Q32.3363 -2.47195 30.9169 -1.10932Q29.4974 0.253309 26.9731 0.253309Q24.44 0.253309 23.0119 -1.10932Q21.5837 -2.47195 21.5837 -4.88276Q21.5837 -7.29357 23.0119 -8.6562Q24.44 -10.0188 26.9731 -10.0188ZM39.8133 -2.01774Q40.8178 -2.01774 41.3462 -2.75146Q41.8747 -3.48519 41.8747 -4.88276Q41.8747 -6.28033 41.3462 -7.01405Q40.8178 -7.74778 39.8133 -7.74778Q38.8088 -7.74778 38.2716 -7.00968Q37.7344 -6.27159 37.7344 -4.88276Q37.7344 -3.49392 38.2716 -2.75583Q38.8088 -2.01774 39.8133 -2.01774ZM37.7344 -8.35048Q38.3808 -9.20649 39.1669 -9.61266Q39.953 -10.0188 40.975 -10.0188Q42.7831 -10.0188 43.9448 -8.58195Q45.1066 -7.14507 45.1066 -4.88276Q45.1066 -2.62044 43.9448 -1.18357Q42.7831 0.253309 40.975 0.253309Q39.953 0.253309 39.1669 -0.152859Q38.3808 -0.559028 37.7344 -1.41504L37.7344 0L34.6073 0L34.6073 -13.5914L37.7344 -13.5914L37.7344 -8.35048ZM57.1781 -4.9177L57.1781 -4.02675L49.867 -4.02675Q49.9806 -2.92616 50.6619 -2.37587Q51.3432 -1.82558 52.5661 -1.82558Q53.5531 -1.82558 54.5882 -2.11819Q55.6233 -2.41081 56.7151 -3.00477L56.7151 -0.593967Q55.6058 -0.174696 54.4965 0.0393066Q53.3872 0.253309 52.2778 0.253309Q49.6225 0.253309 48.1506 -1.09622Q46.6788 -2.44575 46.6788 -4.88276Q46.6788 -7.2761 48.1244 -8.64746Q49.57 -10.0188 52.1031 -10.0188Q54.4091 -10.0188 55.7936 -8.62999Q57.1781 -7.24116 57.1781 -4.9177ZM53.9636 -5.95714Q53.9636 -6.84809 53.4439 -7.39402Q52.9242 -7.93994 52.0857 -7.93994Q51.1772 -7.93994 50.6095 -7.42896Q50.0417 -6.91797 49.902 -5.95714L53.9636 -5.95714ZM65.2316 -6.02702L81.1988 -6.02702L81.1988 -3.77344L65.2316 -3.77344L65.2316 -6.02702ZM94.9736 -10.2721L91.2875 -4.81288L94.9736 -4.81288L94.9736 -10.2721ZM94.4146 -13.0411L98.1531 -13.0411L98.1531 -4.81288L100.014 -4.81288L100.014 -2.37587L98.1531 -2.37587L98.1531 0L94.9736 0L94.9736 -2.37587L89.1911 -2.37587L89.1911 -5.25836L94.4146 -13.0411ZM102.73 -13.0411L111.089 -13.0411L111.089 -10.5691L105.412 -10.5691L105.412 -8.55138Q105.796 -8.6562 106.185 -8.71297Q106.573 -8.76975 106.993 -8.76975Q109.377 -8.76975 110.705 -7.57745Q112.033 -6.38515 112.033 -4.25385Q112.033 -2.14003 110.587 -0.943359Q109.141 0.253309 106.573 0.253309Q105.464 0.253309 104.377 0.0393066Q103.289 -0.174696 102.215 -0.611437L102.215 -3.25808Q103.28 -2.64665 104.237 -2.34093Q105.193 -2.03521 106.041 -2.03521Q107.263 -2.03521 107.967 -2.63354Q108.67 -3.23188 108.67 -4.25385Q108.67 -5.28456 107.967 -5.87853Q107.263 -6.47249 106.041 -6.47249Q105.316 -6.47249 104.495 -6.2847Q103.673 -6.0969 102.73 -5.70383L102.73 -13.0411ZM117.754 -11.9842Q117.125 -11.9842 116.688 -11.5474Q116.252 -11.1107 116.252 -10.4818Q116.252 -9.85287 116.684 -9.42486Q117.116 -8.99685 117.754 -8.99685Q118.383 -8.99685 118.82 -9.42923Q119.256 -9.8616 119.256 -10.4818Q119.256 -11.1107 118.815 -11.5474Q118.374 -11.9842 117.754 -11.9842ZM117.754 -13.3992Q118.33 -13.3992 118.863 -13.1765Q119.396 -12.9537 119.815 -12.5432Q120.226 -12.1239 120.44 -11.5998Q120.654 -11.0757 120.654 -10.4818Q120.654 -9.89654 120.44 -9.36808Q120.226 -8.83963 119.833 -8.44656Q119.414 -8.02729 118.872 -7.80455Q118.33 -7.58181 117.737 -7.58181Q116.505 -7.58181 115.671 -8.41599Q114.837 -9.25016 114.837 -10.4818Q114.837 -11.7134 115.679 -12.5563Q116.522 -13.3992 117.754 -13.3992ZM123.868 -13.0411L127.624 -13.0411L132.367 -4.09663L132.367 -13.0411L135.556 -13.0411L135.556 0L131.8 0L127.057 -8.94444L127.057 0L123.868 0L123.868 -13.0411ZM139.023 -3.38037L142.168 -3.38037L142.168 -0.716254L140.01 2.54183L138.15 2.54183L139.023 -0.716254L139.023 -3.38037ZM158.554 -7.03152Q159.873 -6.69086 160.559 -5.84795Q161.245 -5.00504 161.245 -3.70356Q161.245 -1.76443 159.76 -0.755561Q158.275 0.253309 155.427 0.253309Q154.423 0.253309 153.414 0.0917155Q152.405 -0.0698785 151.418 -0.393066L151.418 -2.9873Q152.361 -2.51563 153.292 -2.27542Q154.222 -2.03521 155.121 -2.03521Q156.458 -2.03521 157.17 -2.49816Q157.882 -2.9611 157.882 -3.82585Q157.882 -4.7168 157.152 -5.17537Q156.423 -5.63395 154.999 -5.63395L153.654 -5.63395L153.654 -7.80018L155.069 -7.80018Q156.336 -7.80018 156.956 -8.19762Q157.576 -8.59505 157.576 -9.40739Q157.576 -10.1586 156.973 -10.5691Q156.371 -10.9797 155.27 -10.9797Q154.458 -10.9797 153.628 -10.7962Q152.798 -10.6128 151.977 -10.2547L151.977 -12.7179Q152.973 -12.9974 153.951 -13.1372Q154.929 -13.2769 155.873 -13.2769Q158.415 -13.2769 159.677 -12.4427Q160.939 -11.6086 160.939 -9.93148Q160.939 -8.78722 160.336 -8.05786Q159.733 -7.32851 158.554 -7.03152ZM170.897 -6.53364Q170.897 -8.97938 170.438 -9.97952Q169.979 -10.9797 168.896 -10.9797Q167.813 -10.9797 167.35 -9.97952Q166.887 -8.97938 166.887 -6.53364Q166.887 -4.06169 167.35 -3.04845Q167.813 -2.03521 168.896 -2.03521Q169.971 -2.03521 170.434 -3.04845Q170.897 -4.06169 170.897 -6.53364ZM174.259 -6.50743Q174.259 -3.26682 172.862 -1.50675Q171.464 0.253309 168.896 0.253309Q166.32 0.253309 164.922 -1.50675Q163.524 -3.26682 163.524 -6.50743Q163.524 -9.75678 164.922 -11.5168Q166.32 -13.2769 168.896 -13.2769Q171.464 -13.2769 172.862 -11.5168Q174.259 -9.75678 174.259 -6.50743ZM179.588 -11.9842Q178.959 -11.9842 178.522 -11.5474Q178.085 -11.1107 178.085 -10.4818Q178.085 -9.85287 178.518 -9.42486Q178.95 -8.99685 179.588 -8.99685Q180.217 -8.99685 180.653 -9.42923Q181.09 -9.8616 181.09 -10.4818Q181.09 -11.1107 180.649 -11.5474Q180.208 -11.9842 179.588 -11.9842ZM179.588 -13.3992Q180.164 -13.3992 180.697 -13.1765Q181.23 -12.9537 181.649 -12.5432Q182.06 -12.1239 182.274 -11.5998Q182.488 -11.0757 182.488 -10.4818Q182.488 -9.89654 182.274 -9.36808Q182.06 -8.83963 181.667 -8.44656Q181.247 -8.02729 180.706 -7.80455Q180.164 -7.58181 179.57 -7.58181Q178.339 -7.58181 177.504 -8.41599Q176.67 -9.25016 176.67 -10.4818Q176.67 -11.7134 177.513 -12.5563Q178.356 -13.3992 179.588 -13.3992ZM184.593 -13.0411L187.816 -13.0411L190.069 -3.5638L192.306 -13.0411L195.546 -13.0411L197.782 -3.5638L200.036 -13.0411L203.233 -13.0411L200.158 0L196.28 0L193.913 -9.91401L191.572 0L187.694 0L184.593 -13.0411Z" fill="#262626" transform="translate(300,24.099999999999998) translate(-101.89591979980469,0)" />
<rect x="75" y="72" width="465" height="462" fill="#FFFFFF" />
</svg>
