<svg xmlns="http://www.w3.org/2000/svg" viewBox="0 0 1000 500" width="1000" height="500" role="img" aria-labelledby="chart-title">
<title id="chart-title">World Map — Robinson</title>
<rect x="0" y="0" width="1000" height="500" fill="#FFFFFF" />
<path d="M0.532823 -13.0411L3.75597 -13.0411L6.00955 -3.5638L8.24566 -13.0411L11.4863 -13.0411L13.7224 -3.5638L15.976 -13.0411L19.1729 -13.0411L16.0983 0L12.22 0L9.85287 -9.91401L7.51194 0L3.63368 0L0.532823 -13.0411ZM25.89 -7.78271Q24.8505 -7.78271 24.3046 -7.03589Q23.7587 -6.28906 23.7587 -4.88276Q23.7587 -3.47645 24.3046 -2.72963Q24.8505 -1.9828 25.89 -1.9828Q26.9119 -1.9828 27.4535 -2.72963Q27.9951 -3.47645 27.9951 -4.88276Q27.9951 -6.28906 27.4535 -7.03589Q26.9119 -7.78271 25.89 -7.78271ZM25.89 -10.0188Q28.4143 -10.0188 29.8337 -8.6562Q31.2531 -7.29357 31.2531 -4.88276Q31.2531 -2.47195 29.8337 -1.10932Q28.4143 0.253309 25.89 0.253309Q23.3569 0.253309 21.9287 -1.10932Q20.5006 -2.47195 20.5006 -4.88276Q20.5006 -7.29357 21.9287 -8.6562Q23.3569 -10.0188 25.89 -10.0188ZM40.7916 -7.11887Q40.381 -7.31103 39.9749 -7.40275Q39.5687 -7.49447 39.1581 -7.49447Q37.9527 -7.49447 37.302 -6.72144Q36.6513 -5.94841 36.6513 -4.50716L36.6513 0L33.5242 0L33.5242 -9.78299L36.6513 -9.78299L36.6513 -8.17578Q37.254 -9.13661 38.0357 -9.57772Q38.8175 -10.0188 39.9093 -10.0188Q40.0666 -10.0188 40.25 -10.0057Q40.4334 -9.99262 40.7828 -9.94895L40.7916 -7.11887ZM42.3464 -13.5914L45.4734 -13.5914L45.4734 0L42.3464 0L42.3464 -13.5914ZM55.1341 -8.35048L55.1341 -13.5914L58.2786 -13.5914L58.2786 0L55.1341 0L55.1341 -1.41504Q54.4877 -0.550293 53.7103 -0.148492Q52.9329 0.253309 51.911 0.253309Q50.1029 0.253309 48.9411 -1.18357Q47.7794 -2.62044 47.7794 -4.88276Q47.7794 -7.14507 48.9411 -8.58195Q50.1029 -10.0188 51.911 -10.0188Q52.9242 -10.0188 53.706 -9.61266Q54.4877 -9.20649 55.1341 -8.35048ZM53.0727 -2.01774Q54.0772 -2.01774 54.6057 -2.75146Q55.1341 -3.48519 55.1341 -4.88276Q55.1341 -6.28033 54.6057 -7.01405Q54.0772 -7.74778 53.0727 -7.74778Q52.0769 -7.74778 51.5485 -7.01405Q51.02 -6.28033 51.02 -4.88276Q51.02 -3.48519 51.5485 -2.75146Q52.0769 -2.01774 53.0727 -2.01774ZM67.6511 -13.0411L71.9312 -13.0411L74.901 -6.06196L77.8883 -13.0411L82.1596 -13.0411L82.1596 0L78.9801 0L78.9801 -9.53841L75.9754 -2.50689L73.8441 -2.50689L70.8393 -9.53841L70.8393 0L67.6511 0L67.6511 -13.0411ZM89.6978 -4.40234Q88.7195 -4.40234 88.2259 -4.07042Q87.7324 -3.7385 87.7324 -3.09212Q87.7324 -2.49816 88.1299 -2.16187Q88.5273 -1.82558 89.2348 -1.82558Q90.117 -1.82558 90.7197 -2.45885Q91.3224 -3.09212 91.3224 -4.04422L91.3224 -4.40234L89.6978 -4.40234ZM94.4757 -5.58154L94.4757 0L91.3224 0L91.3224 -1.44998Q90.6935 -0.559028 89.9074 -0.152859Q89.1213 0.253309 87.9945 0.253309Q86.4746 0.253309 85.5269 -0.633274Q84.5792 -1.51986 84.5792 -2.9349Q84.5792 -4.65565 85.7627 -5.45926Q86.9463 -6.26286 89.4794 -6.26286L91.3224 -6.26286L91.3224 -6.50743Q91.3224 -7.24989 90.7372 -7.59492Q90.152 -7.93994 88.9116 -7.93994Q87.9071 -7.93994 87.0424 -7.73904Q86.1776 -7.53814 85.4352 -7.13634L85.4352 -9.52094Q86.4397 -9.76552 87.4529 -9.89217Q88.4662 -10.0188 89.4794 -10.0188Q92.126 -10.0188 93.3009 -8.97502Q94.4757 -7.93121 94.4757 -5.58154ZM100.511 -1.41504L100.511 3.72103L97.3844 3.72103L97.3844 -9.78299L100.511 -9.78299L100.511 -8.35048Q101.158 -9.20649 101.944 -9.61266Q102.73 -10.0188 103.752 -10.0188Q105.56 -10.0188 106.722 -8.58195Q107.884 -7.14507 107.884 -4.88276Q107.884 -2.62044 106.722 -1.18357Q105.56 0.253309 103.752 0.253309Q102.73 0.253309 101.944 -0.152859Q101.158 -0.559028 100.511 -1.41504ZM102.59 -7.74778Q101.586 -7.74778 101.049 -7.00968Q100.511 -6.27159 100.511 -4.88276Q100.511 -3.49392 101.049 -2.75583Q101.586 -2.01774 102.59 -2.01774Q103.595 -2.01774 104.123 -2.75146Q104.652 -3.48519 104.652 -4.88276Q104.652 -6.28033 104.123 -7.01405Q103.595 -7.74778 102.59 -7.74778ZM115.876 -6.02702L131.843 -6.02702L131.843 -3.77344L115.876 -3.77344L115.876 -6.02702ZM145.452 -7.25863Q146.509 -7.25863 146.968 -7.65169Q147.426 -8.04476 147.426 -8.94444Q147.426 -9.83539 146.968 -10.2197Q146.509 -10.6041 145.452 -10.6041L144.037 -10.6041L144.037 -7.25863L145.452 -7.25863ZM144.037 -4.93517L144.037 0L140.674 0L140.674 -13.0411L145.81 -13.0411Q148.387 -13.0411 149.588 -12.1763Q150.789 -11.3116 150.789 -9.44233Q150.789 -8.14958 150.164 -7.31977Q149.54 -6.48996 148.282 -6.0969Q148.972 -5.93967 149.518 -5.38501Q150.064 -4.83035 150.623 -3.70356L152.449 0L148.867 0L147.278 -3.24061Q146.797 -4.21891 146.304 -4.57704Q145.81 -4.93517 144.989 -4.93517L144.037 -4.93517ZM158.965 -7.78271Q157.925 -7.78271 157.379 -7.03589Q156.834 -6.28906 156.834 -4.88276Q156.834 -3.47645 157.379 -2.72963Q157.925 -1.9828 158.965 -1.9828Q159.987 -1.9828 160.528 -2.72963Q161.07 -3.47645 161.07 -4.88276Q161.07 -6.28906 160.528 -7.03589Q159.987 -7.78271 158.965 -7.78271ZM158.965 -10.0188Q161.489 -10.0188 162.909 -8.6562Q164.328 -7.29357 164.328 -4.88276Q164.328 -2.47195 162.909 -1.10932Q161.489 0.253309 158.965 0.253309Q156.432 0.253309 155.004 -1.10932Q153.575 -2.47195 153.575 -4.88276Q153.575 -7.29357 155.004 -8.6562Q156.432 -10.0188 158.965 -10.0188ZM171.805 -2.01774Q172.809 -2.01774 173.338 -2.75146Q173.866 -3.48519 173.866 -4.88276Q173.866 -6.28033 173.338 -7.01405Q172.809 -7.74778 171.805 -7.74778Q170.8 -7.74778 170.263 -7.00968Q169.726 -6.27159 169.726 -4.88276Q169.726 -3.49392 170.263 -2.75583Q170.8 -2.01774 171.805 -2.01774ZM169.726 -8.35048Q170.372 -9.20649 171.159 -9.61266Q171.945 -10.0188 172.967 -10.0188Q174.775 -10.0188 175.937 -8.58195Q177.098 -7.14507 177.098 -4.88276Q177.098 -2.62044 175.937 -1.18357Q174.775 0.253309 172.967 0.253309Q171.945 0.253309 171.159 -0.152859Q170.372 -0.559028 169.726 -1.41504L169.726 0L166.599 0L166.599 -13.5914L169.726 -13.5914L169.726 -8.35048ZM179.404 -9.78299L182.531 -9.78299L182.531 0L179.404 0L179.404 -9.78299ZM179.404 -13.5914L182.531 -13.5914L182.531 -11.0408L179.404 -11.0408L179.404 -13.5914ZM195.371 -5.95714L195.371 0L192.227 0L192.227 -0.969564L192.227 -4.55957Q192.227 -5.82612 192.17 -6.30653Q192.113 -6.78695 191.974 -7.01405Q191.79 -7.31977 191.476 -7.4901Q191.161 -7.66043 190.76 -7.66043Q189.781 -7.66043 189.222 -6.90487Q188.663 -6.14931 188.663 -4.81288L188.663 0L185.536 0L185.536 -9.78299L188.663 -9.78299L188.663 -8.35048Q189.371 -9.20649 190.166 -9.61266Q190.96 -10.0188 191.921 -10.0188Q193.616 -10.0188 194.494 -8.97938Q195.371 -7.93994 195.371 -5.95714ZM205.914 -9.47727L205.914 -7.1014Q204.91 -7.52067 203.975 -7.73031Q203.041 -7.93994 202.211 -7.93994Q201.32 -7.93994 200.888 -7.7172Q200.455 -7.49447 200.455 -7.03152Q200.455 -6.65592 200.783 -6.45502Q201.11 -6.25412 201.958 -6.15804L202.508 -6.07943Q204.91 -5.77371 205.74 -5.07492Q206.57 -4.37614 206.57 -2.88249Q206.57 -1.31896 205.417 -0.532823Q204.264 0.253309 201.975 0.253309Q201.005 0.253309 199.97 0.10045Q198.935 -0.0524089 197.843 -0.358127L197.843 -2.734Q198.778 -2.27978 199.761 -2.05268Q200.743 -1.82557 201.757 -1.82558Q202.674 -1.82558 203.137 -2.07888Q203.6 -2.33219 203.6 -2.83008Q203.6 -3.24935 203.281 -3.45462Q202.962 -3.65989 202.01 -3.77344L201.46 -3.84332Q199.372 -4.10536 198.533 -4.81288Q197.695 -5.5204 197.695 -6.96164Q197.695 -8.51644 198.761 -9.26763Q199.826 -10.0188 202.027 -10.0188Q202.892 -10.0188 203.844 -9.8878Q204.796 -9.75678 205.914 -9.47727ZM213.575 -7.78271Q212.535 -7.78271 211.989 -7.03589Q211.444 -6.28906 211.444 -4.88276Q211.444 -3.47645 211.989 -2.72963Q212.535 -1.9828 213.575 -1.9828Q214.597 -1.9828 215.138 -2.72963Q215.68 -3.47645 215.68 -4.88276Q215.68 -6.28906 215.138 -7.03589Q214.597 -7.78271 213.575 -7.78271ZM213.575 -10.0188Q216.099 -10.0188 217.519 -8.6562Q218.938 -7.29357 218.938 -4.88276Q218.938 -2.47195 217.519 -1.10932Q216.099 0.253309 213.575 0.253309Q211.042 0.253309 209.614 -1.10932Q208.185 -2.47195 208.185 -4.88276Q208.185 -7.29357 209.614 -8.6562Q211.042 -10.0188 213.575 -10.0188ZM231.044 -5.95714L231.044 0L227.9 0L227.9 -0.969564L227.9 -4.55957Q227.9 -5.82612 227.843 -6.30653Q227.786 -6.78695 227.647 -7.01405Q227.463 -7.31977 227.149 -7.4901Q226.834 -7.66043 226.432 -7.66043Q225.454 -7.66043 224.895 -6.90487Q224.336 -6.14931 224.336 -4.81288L224.336 0L221.209 0L221.209 -9.78299L224.336 -9.78299L224.336 -8.35048Q225.044 -9.20649 225.839 -9.61266Q226.633 -10.0188 227.594 -10.0188Q229.289 -10.0188 230.167 -8.97938Q231.044 -7.93994 231.044 -5.95714Z" fill="#262626" transform="translate(500,24.099999999999998) translate(-116.22100830078125,0)" />
<rect x="125" y="60" width="775" height="385" fill="#FFFFFF" />
</svg>
