<svg xmlns="http://www.w3.org/2000/svg" viewBox="0 0 800 450" width="800" height="450" role="img" aria-labelledby="chart-title">
<title id="chart-title">Equirectangular Map</title>
<rect x="0" y="0" width="800" height="450" fill="#FFFFFF" />
<text x="400" y="24.099999999999998" font-family="DejaVu Sans, sans-serif" font-size="17.88888888888889" text-anchor="middle" font-weight="bold" fill="#262626">Equirectangular Map</text>
<rect x="100" y="54" width="620" height="346" fill="#FFFFFF" />
<line x1="128.1818181818182" y1="399.6" x2="128.1818181818182" y2="404.8611111111111" stroke="#262626" stroke-width="1.1111111111111112" />
<text x="128.1818181818182" y="423.6111111111111" font-family="DejaVu Sans, sans-serif" font-size="13.88888888888889" text-anchor="middle" fill="#262626">0</text>
<line x1="184.54545454545456" y1="399.6" x2="184.54545454545456" y2="404.8611111111111" stroke="#262626" stroke-width="1.1111111111111112" />
<text x="184.54545454545456" y="423.6111111111111" font-family="DejaVu Sans, sans-serif" font-size="13.88888888888889" text-anchor="middle" fill="#262626">0.1</text>
<line x1="240.90909090909093" y1="399.6" x2="240.90909090909093" y2="404.8611111111111" stroke="#262626" stroke-width="1.1111111111111112" />
<text x="240.90909090909093" y="423.6111111111111" font-family="DejaVu Sans, sans-serif" font-size="13.88888888888889" text-anchor="middle" fill="#262626">0.2</text>
<line x1="297.27272727272725" y1="399.6" x2="297.27272727272725" y2="404.8611111111111" stroke="#262626" stroke-width="1.1111111111111112" />
<text x="297.27272727272725" y="423.6111111111111" font-family="DejaVu Sans, sans-serif" font-size="13.88888888888889" text-anchor="middle" fill="#262626">0.3</text>
<line x1="353.6363636363636" y1="399.6" x2="353.6363636363636" y2="404.8611111111111" stroke="#262626" stroke-width="1.1111111111111112" />
<text x="353.6363636363636" y="423.6111111111111" font-family="DejaVu Sans, sans-serif" font-size="13.88888888888889" text-anchor="middle" fill="#262626">0.4</text>
<line x1="410" y1="399.6" x2="410" y2="404.8611111111111" stroke="#262626" stroke-width="1.1111111111111112" />
<text x="410" y="423.6111111111111" font-family="DejaVu Sans, sans-serif" font-size="13.88888888888889" text-anchor="middle" fill="#262626">0.5</text>
<line x1="466.3636363636364" y1="399.6" x2="466.3636363636364" y2="404.8611111111111" stroke="#262626" stroke-width="1.1111111111111112" />
<text x="466.3636363636364" y="423.6111111111111" font-family="DejaVu Sans, sans-serif" font-size="13.88888888888889" text-anchor="middle" fill="#262626">0.6</text>
<line x1="522.7272727272727" y1="399.6" x2="522.7272727272727" y2="404.8611111111111" stroke="#262626" stroke-width="1.1111111111111112" />
<text x="522.7272727272727" y="423.6111111111111" font-family="DejaVu Sans, sans-serif" font-size="13.88888888888889" text-anchor="middle" fill="#262626">0.7</text>
<line x1="579.0909090909091" y1="399.6" x2="579.0909090909091" y2="404.8611111111111" stroke="#262626" stroke-width="1.1111111111111112" />
<text x="579.0909090909091" y="423.6111111111111" font-family="DejaVu Sans, sans-serif" font-size="13.88888888888889" text-anchor="middle" fill="#262626">0.8</text>
<line x1="635.4545454545455" y1="399.6" x2="635.4545454545455" y2="404.8611111111111" stroke="#262626" stroke-width="1.1111111111111112" />
<text x="635.4545454545455" y="423.6111111111111" font-family="DejaVu Sans, sans-serif" font-size="13.88888888888889" text-anchor="middle" fill="#262626">0.9</text>
<line x1="691.8181818181818" y1="399.6" x2="691.8181818181818" y2="404.8611111111111" stroke="#262626" stroke-width="1.1111111111111112" />
<text x="691.8181818181818" y="423.6111111111111" font-family="DejaVu Sans, sans-serif" font-size="13.88888888888889" text-anchor="middle" fill="#262626">1</text>
<line x1="105.63636363636364" y1="399.6" x2="105.63636363636364" y2="404.8611111111111" stroke="#262626" stroke-width="1.1111111111111112" />
<line x1="116.9090909090909" y1="399.6" x2="116.9090909090909" y2="404.8611111111111" stroke="#262626" stroke-width="1.1111111111111112" />
<line x1="139.45454545454547" y1="399.6" x2="139.45454545454547" y2="404.8611111111111" stroke="#262626" stroke-width="1.1111111111111112" />
<line x1="150.72727272727275" y1="399.6" x2="150.72727272727275" y2="404.8611111111111" stroke="#262626" stroke-width="1.1111111111111112" />
<line x1="162" y1="399.6" x2="162" y2="404.8611111111111" stroke="#262626" stroke-width="1.1111111111111112" />
<line x1="173.27272727272728" y1="399.6" x2="173.27272727272728" y2="404.8611111111111" stroke="#262626" stroke-width="1.1111111111111112" />
<line x1="195.8181818181818" y1="399.6" x2="195.8181818181818" y2="404.8611111111111" stroke="#262626" stroke-width="1.1111111111111112" />
<line x1="207.09090909090912" y1="399.6" x2="207.09090909090912" y2="404.8611111111111" stroke="#262626" stroke-width="1.1111111111111112" />
<line x1="218.36363636363637" y1="399.6" x2="218.36363636363637" y2="404.8611111111111" stroke="#262626" stroke-width="1.1111111111111112" />
<line x1="229.63636363636363" y1="399.6" x2="229.63636363636363" y2="404.8611111111111" stroke="#262626" stroke-width="1.1111111111111112" />
<line x1="252.1818181818182" y1="399.6" x2="252.1818181818182" y2="404.8611111111111" stroke="#262626" stroke-width="1.1111111111111112" />
<line x1="263.45454545454544" y1="399.6" x2="263.45454545454544" y2="404.8611111111111" stroke="#262626" stroke-width="1.1111111111111112" />
<line x1="274.72727272727275" y1="399.6" x2="274.72727272727275" y2="404.8611111111111" stroke="#262626" stroke-width="1.1111111111111112" />
<line x1="286" y1="399.6" x2="286" y2="404.8611111111111" stroke="#262626" stroke-width="1.1111111111111112" />
<line x1="308.54545454545456" y1="399.6" x2="308.54545454545456" y2="404.8611111111111" stroke="#262626" stroke-width="1.1111111111111112" />
<line x1="319.81818181818187" y1="399.6" x2="319.81818181818187" y2="404.8611111111111" stroke="#262626" stroke-width="1.1111111111111112" />
<line x1="331.0909090909091" y1="399.6" x2="331.0909090909091" y2="404.8611111111111" stroke="#262626" stroke-width="1.1111111111111112" />
<line x1="342.3636363636364" y1="399.6" x2="342.3636363636364" y2="404.8611111111111" stroke="#262626" stroke-width="1.1111111111111112" />
<line x1="364.9090909090909" y1="399.6" x2="364.9090909090909" y2="404.8611111111111" stroke="#262626" stroke-width="1.1111111111111112" />
<line x1="376.1818181818182" y1="399.6" x2="376.1818181818182" y2="404.8611111111111" stroke="#262626" stroke-width="1.1111111111111112" />
<line x1="387.45454545454544" y1="399.6" x2="387.45454545454544" y2="404.8611111111111" stroke="#262626" stroke-width="1.1111111111111112" />
<line x1="398.7272727272727" y1="399.6" x2="398.7272727272727" y2="404.8611111111111" stroke="#262626" stroke-width="1.1111111111111112" />
<line x1="421.2727272727273" y1="399.6" x2="421.2727272727273" y2="404.8611111111111" stroke="#262626" stroke-width="1.1111111111111112" />
<line x1="432.54545454545456" y1="399.6" x2="432.54545454545456" y2="404.8611111111111" stroke="#262626" stroke-width="1.1111111111111112" />
<line x1="443.81818181818187" y1="399.6" x2="443.81818181818187" y2="404.8611111111111" stroke="#262626" stroke-width="1.1111111111111112" />
<line x1="455.09090909090907" y1="399.6" x2="455.09090909090907" y2="404.8611111111111" stroke="#262626" stroke-width="1.1111111111111112" />
<line x1="477.6363636363636" y1="399.6" x2="477.6363636363636" y2="404.8611111111111" stroke="#262626" stroke-width="1.1111111111111112" />
<line x1="488.90909090909093" y1="399.6" x2="488.90909090909093" y2="404.8611111111111" stroke="#262626" stroke-width="1.1111111111111112" />
<line x1="500.1818181818182" y1="399.6" x2="500.1818181818182" y2="404.8611111111111" stroke="#262626" stroke-width="1.1111111111111112" />
<line x1="511.4545454545455" y1="399.6" x2="511.4545454545455" y2="404.8611111111111" stroke="#262626" stroke-width="1.1111111111111112" />
<line x1="534" y1="399.6" x2="534" y2="404.8611111111111" stroke="#262626" stroke-width="1.1111111111111112" />
<line x1="545.2727272727273" y1="399.6" x2="545.2727272727273" y2="404.8611111111111" stroke="#262626" stroke-width="1.1111111111111112" />
<line x1="556.5454545454545" y1="399.6" x2="556.5454545454545" y2="404.8611111111111" stroke="#262626" stroke-width="1.1111111111111112" />
<line x1="567.8181818181818" y1="399.6" x2="567.8181818181818" y2="404.8611111111111" stroke="#262626" stroke-width="1.1111111111111112" />
<line x1="590.3636363636363" y1="399.6" x2="590.3636363636363" y2="404.8611111111111" stroke="#262626" stroke-width="1.1111111111111112" />
<line x1="601.6363636363636" y1="399.6" x2="601.6363636363636" y2="404.8611111111111" stroke="#262626" stroke-width="1.1111111111111112" />
<line x1="612.9090909090909" y1="399.6" x2="612.9090909090909" y2="404.8611111111111" stroke="#262626" stroke-width="1.1111111111111112" />
<line x1="624.1818181818182" y1="399.6" x2="624.1818181818182" y2="404.8611111111111" stroke="#262626" stroke-width="1.1111111111111112" />
<line x1="646.7272727272727" y1="399.6" x2="646.7272727272727" y2="404.8611111111111" stroke="#262626" stroke-width="1.1111111111111112" />
<line x1="658" y1="399.6" x2="658" y2="404.8611111111111" stroke="#262626" stroke-width="1.1111111111111112" />
<line x1="669.2727272727273" y1="399.6" x2="669.2727272727273" y2="404.8611111111111" stroke="#262626" stroke-width="1.1111111111111112" />
<line x1="680.5454545454545" y1="399.6" x2="680.5454545454545" y2="404.8611111111111" stroke="#262626" stroke-width="1.1111111111111112" />
<line x1="703.090909090909" y1="399.6" x2="703.090909090909" y2="404.8611111111111" stroke="#262626" stroke-width="1.1111111111111112" />
<line x1="714.3636363636365" y1="399.6" x2="714.3636363636365" y2="404.8611111111111" stroke="#262626" stroke-width="1.1111111111111112" />
<line x1="95.13888888888889" y1="384.27272727272725" x2="100.4" y2="384.27272727272725" stroke="#262626" stroke-width="1.1111111111111112" />
<text x="90.27777777777777" y="388.27272727272725" font-family="DejaVu Sans, sans-serif" font-size="13.88888888888889" text-anchor="end" fill="#262626">0</text>
<line x1="95.13888888888889" y1="352.8181818181818" x2="100.4" y2="352.8181818181818" stroke="#262626" stroke-width="1.1111111111111112" />
<text x="90.27777777777777" y="356.8181818181818" font-family="DejaVu Sans, sans-serif" font-size="13.88888888888889" text-anchor="end" fill="#262626">0.1</text>
<line x1="95.13888888888889" y1="321.3636363636364" x2="100.4" y2="321.3636363636364" stroke="#262626" stroke-width="1.1111111111111112" />
<text x="90.27777777777777" y="325.3636363636364" font-family="DejaVu Sans, sans-serif" font-size="13.88888888888889" text-anchor="end" fill="#262626">0.2</text>
<line x1="95.13888888888889" y1="289.9090909090909" x2="100.4" y2="289.9090909090909" stroke="#262626" stroke-width="1.1111111111111112" />
<text x="90.27777777777777" y="293.9090909090909" font-family="DejaVu Sans, sans-serif" font-size="13.88888888888889" text-anchor="end" fill="#262626">0.3</text>
<line x1="95.13888888888889" y1="258.45454545454544" x2="100.4" y2="258.45454545454544" stroke="#262626" stroke-width="1.1111111111111112" />
<text x="90.27777777777777" y="262.45454545454544" font-family="DejaVu Sans, sans-serif" font-size="13.88888888888889" text-anchor="end" fill="#262626">0.4</text>
<line x1="95.13888888888889" y1="227" x2="100.4" y2="227" stroke="#262626" stroke-width="1.1111111111111112" />
<text x="90.27777777777777" y="231" font-family="DejaVu Sans, sans-serif" font-size="13.88888888888889" text-anchor="end" fill="#262626">0.5</text>
<line x1="95.13888888888889" y1="195.54545454545456" x2="100.4" y2="195.54545454545456" stroke="#262626" stroke-width="1.1111111111111112" />
<text x="90.27777777777777" y="199.54545454545456" font-family="DejaVu Sans, sans-serif" font-size="13.88888888888889" text-anchor="end" fill="#262626">0.6</text>
<line x1="95.13888888888889" y1="164.09090909090912" x2="100.4" y2="164.09090909090912" stroke="#262626" stroke-width="1.1111111111111112" />
<text x="90.27777777777777" y="168.09090909090912" font-family="DejaVu Sans, sans-serif" font-size="13.88888888888889" text-anchor="end" fill="#262626">0.7</text>
<line x1="95.13888888888889" y1="132.63636363636363" x2="100.4" y2="132.63636363636363" stroke="#262626" stroke-width="1.1111111111111112" />
<text x="90.27777777777777" y="136.63636363636363" font-family="DejaVu Sans, sans-serif" font-size="13.88888888888889" text-anchor="end" fill="#262626">0.8</text>
<line x1="95.13888888888889" y1="101.18181818181819" x2="100.4" y2="101.18181818181819" stroke="#262626" stroke-width="1.1111111111111112" />
<text x="90.27777777777777" y="105.18181818181819" font-family="DejaVu Sans, sans-serif" font-size="13.88888888888889" text-anchor="end" fill="#262626">0.9</text>
<line x1="95.13888888888889" y1="69.72727272727275" x2="100.4" y2="69.72727272727275" stroke="#262626" stroke-width="1.1111111111111112" />
<text x="90.27777777777777" y="73.72727272727275" font-family="DejaVu Sans, sans-serif" font-size="13.88888888888889" text-anchor="end" fill="#262626">1</text>
<line x1="95.13888888888889" y1="396.8545454545454" x2="100.4" y2="396.8545454545454" stroke="#262626" stroke-width="1.1111111111111112" />
<line x1="95.13888888888889" y1="390.56363636363636" x2="100.4" y2="390.56363636363636" stroke="#262626" stroke-width="1.1111111111111112" />
<line x1="95.13888888888889" y1="377.98181818181814" x2="100.4" y2="377.98181818181814" stroke="#262626" stroke-width="1.1111111111111112" />
<line x1="95.13888888888889" y1="371.6909090909091" x2="100.4" y2="371.6909090909091" stroke="#262626" stroke-width="1.1111111111111112" />
<line x1="95.13888888888889" y1="365.4" x2="100.4" y2="365.4" stroke="#262626" stroke-width="1.1111111111111112" />
<line x1="95.13888888888889" y1="359.10909090909087" x2="100.4" y2="359.10909090909087" stroke="#262626" stroke-width="1.1111111111111112" />
<line x1="95.13888888888889" y1="346.5272727272727" x2="100.4" y2="346.5272727272727" stroke="#262626" stroke-width="1.1111111111111112" />
<line x1="95.13888888888889" y1="340.23636363636365" x2="100.4" y2="340.23636363636365" stroke="#262626" stroke-width="1.1111111111111112" />
<line x1="95.13888888888889" y1="333.94545454545454" x2="100.4" y2="333.94545454545454" stroke="#262626" stroke-width="1.1111111111111112" />
<line x1="95.13888888888889" y1="327.6545454545454" x2="100.4" y2="327.6545454545454" stroke="#262626" stroke-width="1.1111111111111112" />
<line x1="95.13888888888889" y1="315.07272727272726" x2="100.4" y2="315.07272727272726" stroke="#262626" stroke-width="1.1111111111111112" />
<line x1="95.13888888888889" y1="308.78181818181815" x2="100.4" y2="308.78181818181815" stroke="#262626" stroke-width="1.1111111111111112" />
<line x1="95.13888888888889" y1="302.4909090909091" x2="100.4" y2="302.4909090909091" stroke="#262626" stroke-width="1.1111111111111112" />
<line x1="95.13888888888889" y1="296.2" x2="100.4" y2="296.2" stroke="#262626" stroke-width="1.1111111111111112" />
<line x1="95.13888888888889" y1="283.6181818181818" x2="100.4" y2="283.6181818181818" stroke="#262626" stroke-width="1.1111111111111112" />
<line x1="95.13888888888889" y1="277.3272727272727" x2="100.4" y2="277.3272727272727" stroke="#262626" stroke-width="1.1111111111111112" />
<line x1="95.13888888888889" y1="271.0363636363636" x2="100.4" y2="271.0363636363636" stroke="#262626" stroke-width="1.1111111111111112" />
<line x1="95.13888888888889" y1="264.74545454545455" x2="100.4" y2="264.74545454545455" stroke="#262626" stroke-width="1.1111111111111112" />
<line x1="95.13888888888889" y1="252.16363636363636" x2="100.4" y2="252.16363636363636" stroke="#262626" stroke-width="1.1111111111111112" />
<line x1="95.13888888888889" y1="245.87272727272727" x2="100.4" y2="245.87272727272727" stroke="#262626" stroke-width="1.1111111111111112" />
<line x1="95.13888888888889" y1="239.58181818181816" x2="100.4" y2="239.58181818181816" stroke="#262626" stroke-width="1.1111111111111112" />
<line x1="95.13888888888889" y1="233.29090909090908" x2="100.4" y2="233.29090909090908" stroke="#262626" stroke-width="1.1111111111111112" />
<line x1="95.13888888888889" y1="220.70909090909092" x2="100.4" y2="220.70909090909092" stroke="#262626" stroke-width="1.1111111111111112" />
<line x1="95.13888888888889" y1="214.4181818181818" x2="100.4" y2="214.4181818181818" stroke="#262626" stroke-width="1.1111111111111112" />
<line x1="95.13888888888889" y1="208.12727272727273" x2="100.4" y2="208.12727272727273" stroke="#262626" stroke-width="1.1111111111111112" />
<line x1="95.13888888888889" y1="201.83636363636364" x2="100.4" y2="201.83636363636364" stroke="#262626" stroke-width="1.1111111111111112" />
<line x1="95.13888888888889" y1="189.25454545454545" x2="100.4" y2="189.25454545454545" stroke="#262626" stroke-width="1.1111111111111112" />
<line x1="95.13888888888889" y1="182.96363636363637" x2="100.4" y2="182.96363636363637" stroke="#262626" stroke-width="1.1111111111111112" />
<line x1="95.13888888888889" y1="176.67272727272726" x2="100.4" y2="176.67272727272726" stroke="#262626" stroke-width="1.1111111111111112" />
<line x1="95.13888888888889" y1="170.38181818181818" x2="100.4" y2="170.38181818181818" stroke="#262626" stroke-width="1.1111111111111112" />
<line x1="95.13888888888889" y1="157.8" x2="100.4" y2="157.8" stroke="#262626" stroke-width="1.1111111111111112" />
<line x1="95.13888888888889" y1="151.50909090909093" x2="100.4" y2="151.50909090909093" stroke="#262626" stroke-width="1.1111111111111112" />
<line x1="95.13888888888889" y1="145.21818181818182" x2="100.4" y2="145.21818181818182" stroke="#262626" stroke-width="1.1111111111111112" />
<line x1="95.13888888888889" y1="138.92727272727274" x2="100.4" y2="138.92727272727274" stroke="#262626" stroke-width="1.1111111111111112" />
<line x1="95.13888888888889" y1="126.34545454545457" x2="100.4" y2="126.34545454545457" stroke="#262626" stroke-width="1.1111111111111112" />
<line x1="95.13888888888889" y1="120.05454545454546" x2="100.4" y2="120.05454545454546" stroke="#262626" stroke-width="1.1111111111111112" />
<line x1="95.13888888888889" y1="113.76363636363641" x2="100.4" y2="113.76363636363641" stroke="#262626" stroke-width="1.1111111111111112" />
<line x1="95.13888888888889" y1="107.4727272727273" x2="100.4" y2="107.4727272727273" stroke="#262626" stroke-width="1.1111111111111112" />
<line x1="95.13888888888889" y1="94.89090909090908" x2="100.4" y2="94.89090909090908" stroke="#262626" stroke-width="1.1111111111111112" />
<line x1="95.13888888888889" y1="88.60000000000002" x2="100.4" y2="88.60000000000002" stroke="#262626" stroke-width="1.1111111111111112" />
<line x1="95.13888888888889" y1="82.30909090909091" x2="100.4" y2="82.30909090909091" stroke="#262626" stroke-width="1.1111111111111112" />
<line x1="95.13888888888889" y1="76.01818181818186" x2="100.4" y2="76.01818181818186" stroke="#262626" stroke-width="1.1111111111111112" />
<line x1="95.13888888888889" y1="63.43636363636364" x2="100.4" y2="63.43636363636364" stroke="#262626" stroke-width="1.1111111111111112" />
<line x1="95.13888888888889" y1="57.145454545454584" x2="100.4" y2="57.145454545454584" stroke="#262626" stroke-width="1.1111111111111112" />
<polygon points="392.77777777777777,246.22222222222223 427.22222222222223,246.22222222222223 427.22222222222223,207.77777777777777 392.77777777777777,207.77777777777777 392.77777777777777,246.22222222222223" fill="#D9EAD3" stroke="#666666" stroke-width="1" />
<polygon points="444.44444444444446,246.22222222222223 478.8888888888889,246.22222222222223 478.8888888888889,207.77777777777777 444.44444444444446,207.77777777777777 444.44444444444446,246.22222222222223" fill="#D9EAD3" stroke="#666666" stroke-width="1" />
<g class="spine">
<line x1="100" y1="400" x2="720" y2="400" stroke="#262626" stroke-width="0.8" />
</g>
<g class="spine">
<line x1="100" y1="54" x2="720" y2="54" stroke="#262626" stroke-width="0.8" />
</g>
<g class="spine">
<line x1="100" y1="54" x2="100" y2="400" stroke="#262626" stroke-width="0.8" />
</g>
<g class="spine">
<line x1="720" y1="54" x2="720" y2="400" stroke="#262626" stroke-width="0.8" />
</g>
</svg>
