<svg xmlns="http://www.w3.org/2000/svg" viewBox="0 0 800 450" width="800" height="450" role="img" aria-labelledby="chart-title">
<title id="chart-title">Choropleth Map — Region Values</title>
<rect x="0" y="0" width="800" height="450" fill="#FFFFFF" />
<text x="400" y="25" font-family="sans-serif" font-size="17" text-anchor="middle" font-weight="bold" fill="#000000">Choropleth Map — Region Values</text>
<rect x="60" y="70" width="720" height="330" fill="#FFFFFF" />
<line x1="92.72727272727272" y1="70" x2="92.72727272727272" y2="400" stroke="#B0B0B0" stroke-width="0.8" />
<line x1="223.63636363636363" y1="70" x2="223.63636363636363" y2="400" stroke="#B0B0B0" stroke-width="0.8" />
<line x1="354.5454545454545" y1="70" x2="354.5454545454545" y2="400" stroke="#B0B0B0" stroke-width="0.8" />
<line x1="485.4545454545454" y1="70" x2="485.4545454545454" y2="400" stroke="#B0B0B0" stroke-width="0.8" />
<line x1="616.3636363636364" y1="70" x2="616.3636363636364" y2="400" stroke="#B0B0B0" stroke-width="0.8" />
<line x1="747.2727272727273" y1="70" x2="747.2727272727273" y2="400" stroke="#B0B0B0" stroke-width="0.8" />
<line x1="60" y1="385" x2="780" y2="385" stroke="#B0B0B0" stroke-width="0.8" />
<line x1="60" y1="325" x2="780" y2="325" stroke="#B0B0B0" stroke-width="0.8" />
<line x1="60" y1="265" x2="780" y2="265" stroke="#B0B0B0" stroke-width="0.8" />
<line x1="60" y1="205" x2="780" y2="205" stroke="#B0B0B0" stroke-width="0.8" />
<line x1="60" y1="145" x2="780" y2="145" stroke="#B0B0B0" stroke-width="0.8" />
<line x1="60" y1="85" x2="780" y2="85" stroke="#B0B0B0" stroke-width="0.8" />
<line x1="92.72727272727272" y1="399.6" x2="92.72727272727272" y2="403.5" stroke="#000000" stroke-width="0.8" />
<text x="92.72727272727272" y="419.5" font-family="sans-serif" font-size="13" text-anchor="middle" fill="#000000">0</text>
<line x1="223.63636363636363" y1="399.6" x2="223.63636363636363" y2="403.5" stroke="#000000" stroke-width="0.8" />
<text x="223.63636363636363" y="419.5" font-family="sans-serif" font-size="13" text-anchor="middle" fill="#000000">0.2</text>
<line x1="354.5454545454545" y1="399.6" x2="354.5454545454545" y2="403.5" stroke="#000000" stroke-width="0.8" />
<text x="354.5454545454545" y="419.5" font-family="sans-serif" font-size="13" text-anchor="middle" fill="#000000">0.4</text>
<line x1="485.4545454545454" y1="399.6" x2="485.4545454545454" y2="403.5" stroke="#000000" stroke-width="0.8" />
<text x="485.4545454545454" y="419.5" font-family="sans-serif" font-size="13" text-anchor="middle" fill="#000000">0.6</text>
<line x1="616.3636363636364" y1="399.6" x2="616.3636363636364" y2="403.5" stroke="#000000" stroke-width="0.8" />
<text x="616.3636363636364" y="419.5" font-family="sans-serif" font-size="13" text-anchor="middle" fill="#000000">0.8</text>
<line x1="747.2727272727273" y1="399.6" x2="747.2727272727273" y2="403.5" stroke="#000000" stroke-width="0.8" />
<text x="747.2727272727273" y="419.5" font-family="sans-serif" font-size="13" text-anchor="middle" fill="#000000">1</text>
<line x1="66.54545454545453" y1="399.6" x2="66.54545454545453" y2="403.5" stroke="#000000" stroke-width="0.8" />
<line x1="118.9090909090909" y1="399.6" x2="118.9090909090909" y2="403.5" stroke="#000000" stroke-width="0.8" />
<line x1="145.09090909090907" y1="399.6" x2="145.09090909090907" y2="403.5" stroke="#000000" stroke-width="0.8" />
<line x1="171.27272727272725" y1="399.6" x2="171.27272727272725" y2="403.5" stroke="#000000" stroke-width="0.8" />
<line x1="197.45454545454544" y1="399.6" x2="197.45454545454544" y2="403.5" stroke="#000000" stroke-width="0.8" />
<line x1="249.81818181818178" y1="399.6" x2="249.81818181818178" y2="403.5" stroke="#000000" stroke-width="0.8" />
<line x1="276" y1="399.6" x2="276" y2="403.5" stroke="#000000" stroke-width="0.8" />
<line x1="302.18181818181813" y1="399.6" x2="302.18181818181813" y2="403.5" stroke="#000000" stroke-width="0.8" />
<line x1="328.3636363636364" y1="399.6" x2="328.3636363636364" y2="403.5" stroke="#000000" stroke-width="0.8" />
<line x1="380.72727272727275" y1="399.6" x2="380.72727272727275" y2="403.5" stroke="#000000" stroke-width="0.8" />
<line x1="406.9090909090909" y1="399.6" x2="406.9090909090909" y2="403.5" stroke="#000000" stroke-width="0.8" />
<line x1="433.0909090909091" y1="399.6" x2="433.0909090909091" y2="403.5" stroke="#000000" stroke-width="0.8" />
<line x1="459.27272727272725" y1="399.6" x2="459.27272727272725" y2="403.5" stroke="#000000" stroke-width="0.8" />
<line x1="511.6363636363636" y1="399.6" x2="511.6363636363636" y2="403.5" stroke="#000000" stroke-width="0.8" />
<line x1="537.8181818181819" y1="399.6" x2="537.8181818181819" y2="403.5" stroke="#000000" stroke-width="0.8" />
<line x1="564" y1="399.6" x2="564" y2="403.5" stroke="#000000" stroke-width="0.8" />
<line x1="590.1818181818181" y1="399.6" x2="590.1818181818181" y2="403.5" stroke="#000000" stroke-width="0.8" />
<line x1="642.5454545454545" y1="399.6" x2="642.5454545454545" y2="403.5" stroke="#000000" stroke-width="0.8" />
<line x1="668.7272727272727" y1="399.6" x2="668.7272727272727" y2="403.5" stroke="#000000" stroke-width="0.8" />
<line x1="694.9090909090909" y1="399.6" x2="694.9090909090909" y2="403.5" stroke="#000000" stroke-width="0.8" />
<line x1="721.090909090909" y1="399.6" x2="721.090909090909" y2="403.5" stroke="#000000" stroke-width="0.8" />
<line x1="773.4545454545455" y1="399.6" x2="773.4545454545455" y2="403.5" stroke="#000000" stroke-width="0.8" />
<line x1="381.5" y1="60" x2="385.4" y2="60" stroke="#000000" stroke-width="0.8" />
<text x="53.5" y="389" font-family="sans-serif" font-size="13" text-anchor="end" fill="#000000">0</text>
<line x1="321.5" y1="60" x2="325.4" y2="60" stroke="#000000" stroke-width="0.8" />
<text x="53.5" y="329" font-family="sans-serif" font-size="13" text-anchor="end" fill="#000000">0.2</text>
<line x1="261.5" y1="60" x2="265.4" y2="60" stroke="#000000" stroke-width="0.8" />
<text x="53.5" y="269" font-family="sans-serif" font-size="13" text-anchor="end" fill="#000000">0.4</text>
<line x1="201.5" y1="60" x2="205.4" y2="60" stroke="#000000" stroke-width="0.8" />
<text x="53.5" y="209" font-family="sans-serif" font-size="13" text-anchor="end" fill="#000000">0.6</text>
<line x1="141.5" y1="60" x2="145.4" y2="60" stroke="#000000" stroke-width="0.8" />
<text x="53.5" y="149" font-family="sans-serif" font-size="13" text-anchor="end" fill="#000000">0.8</text>
<line x1="81.5" y1="60" x2="85.4" y2="60" stroke="#000000" stroke-width="0.8" />
<text x="53.5" y="89" font-family="sans-serif" font-size="13" text-anchor="end" fill="#000000">1</text>
<line x1="393.5" y1="60" x2="397.4" y2="60" stroke="#000000" stroke-width="0.8" />
<line x1="369.5" y1="60" x2="373.4" y2="60" stroke="#000000" stroke-width="0.8" />
<line x1="357.5" y1="60" x2="361.4" y2="60" stroke="#000000" stroke-width="0.8" />
<line x1="345.5" y1="60" x2="349.4" y2="60" stroke="#000000" stroke-width="0.8" />
<line x1="333.5" y1="60" x2="337.4" y2="60" stroke="#000000" stroke-width="0.8" />
<line x1="309.5" y1="60" x2="313.4" y2="60" stroke="#000000" stroke-width="0.8" />
<line x1="297.5" y1="60" x2="301.4" y2="60" stroke="#000000" stroke-width="0.8" />
<line x1="285.5" y1="60" x2="289.4" y2="60" stroke="#000000" stroke-width="0.8" />
<line x1="273.5" y1="60" x2="277.4" y2="60" stroke="#000000" stroke-width="0.8" />
<line x1="249.5" y1="60" x2="253.4" y2="60" stroke="#000000" stroke-width="0.8" />
<line x1="237.5" y1="60" x2="241.4" y2="60" stroke="#000000" stroke-width="0.8" />
<line x1="225.5" y1="60" x2="229.4" y2="60" stroke="#000000" stroke-width="0.8" />
<line x1="213.49999999999997" y1="60" x2="217.39999999999998" y2="60" stroke="#000000" stroke-width="0.8" />
<line x1="189.5" y1="60" x2="193.4" y2="60" stroke="#000000" stroke-width="0.8" />
<line x1="177.49999999999997" y1="60" x2="181.39999999999998" y2="60" stroke="#000000" stroke-width="0.8" />
<line x1="165.5" y1="60" x2="169.4" y2="60" stroke="#000000" stroke-width="0.8" />
<line x1="153.5" y1="60" x2="157.4" y2="60" stroke="#000000" stroke-width="0.8" />
<line x1="129.5" y1="60" x2="133.4" y2="60" stroke="#000000" stroke-width="0.8" />
<line x1="117.5" y1="60" x2="121.4" y2="60" stroke="#000000" stroke-width="0.8" />
<line x1="105.5" y1="60" x2="109.4" y2="60" stroke="#000000" stroke-width="0.8" />
<line x1="93.5" y1="60" x2="97.4" y2="60" stroke="#000000" stroke-width="0.8" />
<line x1="69.5" y1="60" x2="73.4" y2="60" stroke="#000000" stroke-width="0.8" />
<polygon points="400,253.33333333333334 440,253.33333333333334 440,216.66666666666666 400,216.66666666666666 400,253.33333333333334" fill="#3F4A8A" stroke="#FFFFFF" stroke-width="0.5" />
<polygon points="460,253.33333333333334 500.00000000000006,253.33333333333334 500.00000000000006,216.66666666666666 460,216.66666666666666 460,253.33333333333334" fill="#6CCE59" stroke="#FFFFFF" stroke-width="0.5" />
<g class="spine">
<line x1="60" y1="400" x2="780" y2="400" stroke="#000000" stroke-width="0.8" />
</g>
<g class="spine">
<line x1="60" y1="70" x2="780" y2="70" stroke="#000000" stroke-width="0.8" />
</g>
<g class="spine">
<line x1="60" y1="70" x2="60" y2="400" stroke="#000000" stroke-width="0.8" />
</g>
<g class="spine">
<line x1="780" y1="70" x2="780" y2="400" stroke="#000000" stroke-width="0.8" />
</g>
</svg>
