<svg xmlns="http://www.w3.org/2000/svg" viewBox="0 0 800 600" width="800" height="600" role="img" aria-labelledby="chart-title">
<title id="chart-title"></title>
<rect x="0" y="0" width="800" height="600" fill="#FFFFFF" />
<rect x="60" y="40" width="510" height="313.3333333333333" fill="#FFFFFF" />
<line x1="134.69696969696972" y1="40" x2="134.69696969696972" y2="353.3333333333333" stroke="#B0B0B0" stroke-width="0.8" />
<line x1="237.72727272727275" y1="40" x2="237.72727272727275" y2="353.3333333333333" stroke="#B0B0B0" stroke-width="0.8" />
<line x1="340.7575757575758" y1="40" x2="340.7575757575758" y2="353.3333333333333" stroke="#B0B0B0" stroke-width="0.8" />
<line x1="443.78787878787887" y1="40" x2="443.78787878787887" y2="353.3333333333333" stroke="#B0B0B0" stroke-width="0.8" />
<line x1="546.8181818181819" y1="40" x2="546.8181818181819" y2="353.3333333333333" stroke="#B0B0B0" stroke-width="0.8" />
<line x1="60" y1="342.9929431299294" x2="570" y2="342.9929431299294" stroke="#B0B0B0" stroke-width="0.8" />
<line x1="60" y1="264.9522623495226" x2="570" y2="264.9522623495226" stroke="#B0B0B0" stroke-width="0.8" />
<line x1="60" y1="186.9115815691158" x2="570" y2="186.9115815691158" stroke="#B0B0B0" stroke-width="0.8" />
<line x1="60" y1="108.87090078870904" x2="570" y2="108.87090078870904" stroke="#B0B0B0" stroke-width="0.8" />
<line x1="134.69696969696972" y1="352.93333333333334" x2="134.69696969696972" y2="356.8333333333333" stroke="#000000" stroke-width="0.8" />
<text x="134.69696969696972" y="372.8333333333333" font-family="sans-serif" font-size="13" text-anchor="middle" fill="#000000">2</text>
<line x1="237.72727272727275" y1="352.93333333333334" x2="237.72727272727275" y2="356.8333333333333" stroke="#000000" stroke-width="0.8" />
<text x="237.72727272727275" y="372.8333333333333" font-family="sans-serif" font-size="13" text-anchor="middle" fill="#000000">4</text>
<line x1="340.7575757575758" y1="352.93333333333334" x2="340.7575757575758" y2="356.8333333333333" stroke="#000000" stroke-width="0.8" />
<text x="340.7575757575758" y="372.8333333333333" font-family="sans-serif" font-size="13" text-anchor="middle" fill="#000000">6</text>
<line x1="443.78787878787887" y1="352.93333333333334" x2="443.78787878787887" y2="356.8333333333333" stroke="#000000" stroke-width="0.8" />
<text x="443.78787878787887" y="372.8333333333333" font-family="sans-serif" font-size="13" text-anchor="middle" fill="#000000">8</text>
<line x1="546.8181818181819" y1="352.93333333333334" x2="546.8181818181819" y2="356.8333333333333" stroke="#000000" stroke-width="0.8" />
<text x="546.8181818181819" y="372.8333333333333" font-family="sans-serif" font-size="13" text-anchor="middle" fill="#000000">10</text>
<line x1="72.87878787878788" y1="352.93333333333334" x2="72.87878787878788" y2="356.8333333333333" stroke="#000000" stroke-width="0.8" />
<line x1="93.48484848484848" y1="352.93333333333334" x2="93.48484848484848" y2="356.8333333333333" stroke="#000000" stroke-width="0.8" />
<line x1="114.0909090909091" y1="352.93333333333334" x2="114.0909090909091" y2="356.8333333333333" stroke="#000000" stroke-width="0.8" />
<line x1="155.3030303030303" y1="352.93333333333334" x2="155.3030303030303" y2="356.8333333333333" stroke="#000000" stroke-width="0.8" />
<line x1="175.9090909090909" y1="352.93333333333334" x2="175.9090909090909" y2="356.8333333333333" stroke="#000000" stroke-width="0.8" />
<line x1="196.51515151515153" y1="352.93333333333334" x2="196.51515151515153" y2="356.8333333333333" stroke="#000000" stroke-width="0.8" />
<line x1="217.12121212121215" y1="352.93333333333334" x2="217.12121212121215" y2="356.8333333333333" stroke="#000000" stroke-width="0.8" />
<line x1="258.33333333333337" y1="352.93333333333334" x2="258.33333333333337" y2="356.8333333333333" stroke="#000000" stroke-width="0.8" />
<line x1="278.939393939394" y1="352.93333333333334" x2="278.939393939394" y2="356.8333333333333" stroke="#000000" stroke-width="0.8" />
<line x1="299.5454545454546" y1="352.93333333333334" x2="299.5454545454546" y2="356.8333333333333" stroke="#000000" stroke-width="0.8" />
<line x1="320.1515151515152" y1="352.93333333333334" x2="320.1515151515152" y2="356.8333333333333" stroke="#000000" stroke-width="0.8" />
<line x1="361.36363636363643" y1="352.93333333333334" x2="361.36363636363643" y2="356.8333333333333" stroke="#000000" stroke-width="0.8" />
<line x1="381.96969696969705" y1="352.93333333333334" x2="381.96969696969705" y2="356.8333333333333" stroke="#000000" stroke-width="0.8" />
<line x1="402.5757575757577" y1="352.93333333333334" x2="402.5757575757577" y2="356.8333333333333" stroke="#000000" stroke-width="0.8" />
<line x1="423.18181818181824" y1="352.93333333333334" x2="423.18181818181824" y2="356.8333333333333" stroke="#000000" stroke-width="0.8" />
<line x1="464.3939393939395" y1="352.93333333333334" x2="464.3939393939395" y2="356.8333333333333" stroke="#000000" stroke-width="0.8" />
<line x1="485.0000000000001" y1="352.93333333333334" x2="485.0000000000001" y2="356.8333333333333" stroke="#000000" stroke-width="0.8" />
<line x1="505.6060606060607" y1="352.93333333333334" x2="505.6060606060607" y2="356.8333333333333" stroke="#000000" stroke-width="0.8" />
<line x1="526.2121212121212" y1="352.93333333333334" x2="526.2121212121212" y2="356.8333333333333" stroke="#000000" stroke-width="0.8" />
<line x1="567.4242424242425" y1="352.93333333333334" x2="567.4242424242425" y2="356.8333333333333" stroke="#000000" stroke-width="0.8" />
<line x1="339.4929431299294" y1="60" x2="343.3929431299294" y2="60" stroke="#000000" stroke-width="0.8" />
<text x="53.5" y="346.9929431299294" font-family="sans-serif" font-size="13" text-anchor="end" fill="#000000">2</text>
<line x1="261.4522623495226" y1="60" x2="265.35226234952256" y2="60" stroke="#000000" stroke-width="0.8" />
<text x="53.5" y="268.9522623495226" font-family="sans-serif" font-size="13" text-anchor="end" fill="#000000">4</text>
<line x1="183.4115815691158" y1="60" x2="187.31158156911582" y2="60" stroke="#000000" stroke-width="0.8" />
<text x="53.5" y="190.9115815691158" font-family="sans-serif" font-size="13" text-anchor="end" fill="#000000">6</text>
<line x1="105.37090078870904" y1="60" x2="109.27090078870904" y2="60" stroke="#000000" stroke-width="0.8" />
<text x="53.5" y="112.87090078870904" font-family="sans-serif" font-size="13" text-anchor="end" fill="#000000">8</text>
<line x1="323.8848069738481" y1="60" x2="327.78480697384805" y2="60" stroke="#000000" stroke-width="0.8" />
<line x1="308.27667081776667" y1="60" x2="312.17667081776665" y2="60" stroke="#000000" stroke-width="0.8" />
<line x1="292.6685346616853" y1="60" x2="296.5685346616853" y2="60" stroke="#000000" stroke-width="0.8" />
<line x1="277.060398505604" y1="60" x2="280.96039850560396" y2="60" stroke="#000000" stroke-width="0.8" />
<line x1="245.84412619344124" y1="60" x2="249.74412619344125" y2="60" stroke="#000000" stroke-width="0.8" />
<line x1="230.2359900373599" y1="60" x2="234.1359900373599" y2="60" stroke="#000000" stroke-width="0.8" />
<line x1="214.62785388127853" y1="60" x2="218.52785388127853" y2="60" stroke="#000000" stroke-width="0.8" />
<line x1="199.01971772519718" y1="60" x2="202.9197177251972" y2="60" stroke="#000000" stroke-width="0.8" />
<line x1="167.80344541303447" y1="60" x2="171.70344541303447" y2="60" stroke="#000000" stroke-width="0.8" />
<line x1="152.19530925695312" y1="60" x2="156.09530925695313" y2="60" stroke="#000000" stroke-width="0.8" />
<line x1="136.58717310087172" y1="60" x2="140.48717310087173" y2="60" stroke="#000000" stroke-width="0.8" />
<line x1="120.97903694479038" y1="60" x2="124.87903694479039" y2="60" stroke="#000000" stroke-width="0.8" />
<line x1="89.7627646326277" y1="60" x2="93.6627646326277" y2="60" stroke="#000000" stroke-width="0.8" />
<line x1="74.15462847654629" y1="60" x2="78.0546284765463" y2="60" stroke="#000000" stroke-width="0.8" />
<line x1="58.546492320465006" y1="60" x2="62.446492320465005" y2="60" stroke="#000000" stroke-width="0.8" />
<line x1="42.938356164383606" y1="60" x2="46.838356164383605" y2="60" stroke="#000000" stroke-width="0.8" />
<polyline points="83.18181818181819,339.09090909090907 134.69696969696972,245.44209215442092 186.21212121212122,296.1685346616853 237.72727272727275,155.69530925695312 289.24242424242425,222.0298879202989 340.7575757575758,136.18513906185143 392.2727272727273,167.40141137401412 443.78787878787887,73.75259443752597 495.30303030303037,140.08717310087172 546.8181818181819,54.24242424242425" fill="none" stroke="#1F77B4" stroke-width="1.5" />
<g class="spine">
<line x1="60" y1="353.3333333333333" x2="570" y2="353.3333333333333" stroke="#000000" stroke-width="0.8" />
</g>
<g class="spine">
<line x1="60" y1="40" x2="570" y2="40" stroke="#000000" stroke-width="0.8" />
</g>
<g class="spine">
<line x1="60" y1="40" x2="60" y2="353.3333333333333" stroke="#000000" stroke-width="0.8" />
</g>
<g class="spine">
<line x1="570" y1="40" x2="570" y2="353.3333333333333" stroke="#000000" stroke-width="0.8" />
</g>
<text x="315" y="32" font-family="sans-serif" font-size="15" text-anchor="middle" font-weight="bold" fill="#000000">Main plot</text>
<rect x="610" y="40" width="170" height="313.3333333333333" fill="#FFFFFF" />
<line x1="634.8989898989898" y1="40" x2="634.8989898989898" y2="353.3333333333333" stroke="#B0B0B0" stroke-width="0.8" />
<line x1="669.2424242424242" y1="40" x2="669.2424242424242" y2="353.3333333333333" stroke="#B0B0B0" stroke-width="0.8" />
<line x1="703.5858585858585" y1="40" x2="703.5858585858585" y2="353.3333333333333" stroke="#B0B0B0" stroke-width="0.8" />
<line x1="737.929292929293" y1="40" x2="737.929292929293" y2="353.3333333333333" stroke="#B0B0B0" stroke-width="0.8" />
<line x1="772.2727272727273" y1="40" x2="772.2727272727273" y2="353.3333333333333" stroke="#B0B0B0" stroke-width="0.8" />
<line x1="610" y1="342.9929431299294" x2="780" y2="342.9929431299294" stroke="#B0B0B0" stroke-width="0.8" />
<line x1="610" y1="264.9522623495226" x2="780" y2="264.9522623495226" stroke="#B0B0B0" stroke-width="0.8" />
<line x1="610" y1="186.9115815691158" x2="780" y2="186.9115815691158" stroke="#B0B0B0" stroke-width="0.8" />
<line x1="610" y1="108.87090078870904" x2="780" y2="108.87090078870904" stroke="#B0B0B0" stroke-width="0.8" />
<line x1="634.8989898989898" y1="352.93333333333334" x2="634.8989898989898" y2="356.8333333333333" stroke="#000000" stroke-width="0.8" />
<text x="634.8989898989898" y="372.8333333333333" font-family="sans-serif" font-size="13" text-anchor="middle" fill="#000000">2</text>
<line x1="669.2424242424242" y1="352.93333333333334" x2="669.2424242424242" y2="356.8333333333333" stroke="#000000" stroke-width="0.8" />
<text x="669.2424242424242" y="372.8333333333333" font-family="sans-serif" font-size="13" text-anchor="middle" fill="#000000">4</text>
<line x1="703.5858585858585" y1="352.93333333333334" x2="703.5858585858585" y2="356.8333333333333" stroke="#000000" stroke-width="0.8" />
<text x="703.5858585858585" y="372.8333333333333" font-family="sans-serif" font-size="13" text-anchor="middle" fill="#000000">6</text>
<line x1="737.929292929293" y1="352.93333333333334" x2="737.929292929293" y2="356.8333333333333" stroke="#000000" stroke-width="0.8" />
<text x="737.929292929293" y="372.8333333333333" font-family="sans-serif" font-size="13" text-anchor="middle" fill="#000000">8</text>
<line x1="772.2727272727273" y1="352.93333333333334" x2="772.2727272727273" y2="356.8333333333333" stroke="#000000" stroke-width="0.8" />
<text x="772.2727272727273" y="372.8333333333333" font-family="sans-serif" font-size="13" text-anchor="middle" fill="#000000">10</text>
<line x1="614.2929292929293" y1="352.93333333333334" x2="614.2929292929293" y2="356.8333333333333" stroke="#000000" stroke-width="0.8" />
<line x1="621.1616161616162" y1="352.93333333333334" x2="621.1616161616162" y2="356.8333333333333" stroke="#000000" stroke-width="0.8" />
<line x1="628.030303030303" y1="352.93333333333334" x2="628.030303030303" y2="356.8333333333333" stroke="#000000" stroke-width="0.8" />
<line x1="641.7676767676768" y1="352.93333333333334" x2="641.7676767676768" y2="356.8333333333333" stroke="#000000" stroke-width="0.8" />
<line x1="648.6363636363636" y1="352.93333333333334" x2="648.6363636363636" y2="356.8333333333333" stroke="#000000" stroke-width="0.8" />
<line x1="655.5050505050505" y1="352.93333333333334" x2="655.5050505050505" y2="356.8333333333333" stroke="#000000" stroke-width="0.8" />
<line x1="662.3737373737374" y1="352.93333333333334" x2="662.3737373737374" y2="356.8333333333333" stroke="#000000" stroke-width="0.8" />
<line x1="676.1111111111111" y1="352.93333333333334" x2="676.1111111111111" y2="356.8333333333333" stroke="#000000" stroke-width="0.8" />
<line x1="682.9797979797979" y1="352.93333333333334" x2="682.9797979797979" y2="356.8333333333333" stroke="#000000" stroke-width="0.8" />
<line x1="689.8484848484849" y1="352.93333333333334" x2="689.8484848484849" y2="356.8333333333333" stroke="#000000" stroke-width="0.8" />
<line x1="696.7171717171717" y1="352.93333333333334" x2="696.7171717171717" y2="356.8333333333333" stroke="#000000" stroke-width="0.8" />
<line x1="710.4545454545455" y1="352.93333333333334" x2="710.4545454545455" y2="356.8333333333333" stroke="#000000" stroke-width="0.8" />
<line x1="717.3232323232323" y1="352.93333333333334" x2="717.3232323232323" y2="356.8333333333333" stroke="#000000" stroke-width="0.8" />
<line x1="724.1919191919192" y1="352.93333333333334" x2="724.1919191919192" y2="356.8333333333333" stroke="#000000" stroke-width="0.8" />
<line x1="731.060606060606" y1="352.93333333333334" x2="731.060606060606" y2="356.8333333333333" stroke="#000000" stroke-width="0.8" />
<line x1="744.7979797979798" y1="352.93333333333334" x2="744.7979797979798" y2="356.8333333333333" stroke="#000000" stroke-width="0.8" />
<line x1="751.6666666666667" y1="352.93333333333334" x2="751.6666666666667" y2="356.8333333333333" stroke="#000000" stroke-width="0.8" />
<line x1="758.5353535353536" y1="352.93333333333334" x2="758.5353535353536" y2="356.8333333333333" stroke="#000000" stroke-width="0.8" />
<line x1="765.4040404040404" y1="352.93333333333334" x2="765.4040404040404" y2="356.8333333333333" stroke="#000000" stroke-width="0.8" />
<line x1="779.1414141414141" y1="352.93333333333334" x2="779.1414141414141" y2="356.8333333333333" stroke="#000000" stroke-width="0.8" />
<line x1="339.4929431299294" y1="610" x2="343.3929431299294" y2="610" stroke="#000000" stroke-width="0.8" />
<text x="603.5" y="346.9929431299294" font-family="sans-serif" font-size="13" text-anchor="end" fill="#000000">2</text>
<line x1="261.4522623495226" y1="610" x2="265.35226234952256" y2="610" stroke="#000000" stroke-width="0.8" />
<text x="603.5" y="268.9522623495226" font-family="sans-serif" font-size="13" text-anchor="end" fill="#000000">4</text>
<line x1="183.4115815691158" y1="610" x2="187.31158156911582" y2="610" stroke="#000000" stroke-width="0.8" />
<text x="603.5" y="190.9115815691158" font-family="sans-serif" font-size="13" text-anchor="end" fill="#000000">6</text>
<line x1="105.37090078870904" y1="610" x2="109.27090078870904" y2="610" stroke="#000000" stroke-width="0.8" />
<text x="603.5" y="112.87090078870904" font-family="sans-serif" font-size="13" text-anchor="end" fill="#000000">8</text>
<line x1="323.8848069738481" y1="610" x2="327.78480697384805" y2="610" stroke="#000000" stroke-width="0.8" />
<line x1="308.27667081776667" y1="610" x2="312.17667081776665" y2="610" stroke="#000000" stroke-width="0.8" />
<line x1="292.6685346616853" y1="610" x2="296.5685346616853" y2="610" stroke="#000000" stroke-width="0.8" />
<line x1="277.060398505604" y1="610" x2="280.96039850560396" y2="610" stroke="#000000" stroke-width="0.8" />
<line x1="245.84412619344124" y1="610" x2="249.74412619344125" y2="610" stroke="#000000" stroke-width="0.8" />
<line x1="230.2359900373599" y1="610" x2="234.1359900373599" y2="610" stroke="#000000" stroke-width="0.8" />
<line x1="214.62785388127853" y1="610" x2="218.52785388127853" y2="610" stroke="#000000" stroke-width="0.8" />
<line x1="199.01971772519718" y1="610" x2="202.9197177251972" y2="610" stroke="#000000" stroke-width="0.8" />
<line x1="167.80344541303447" y1="610" x2="171.70344541303447" y2="610" stroke="#000000" stroke-width="0.8" />
<line x1="152.19530925695312" y1="610" x2="156.09530925695313" y2="610" stroke="#000000" stroke-width="0.8" />
<line x1="136.58717310087172" y1="610" x2="140.48717310087173" y2="610" stroke="#000000" stroke-width="0.8" />
<line x1="120.97903694479038" y1="610" x2="124.87903694479039" y2="610" stroke="#000000" stroke-width="0.8" />
<line x1="89.7627646326277" y1="610" x2="93.6627646326277" y2="610" stroke="#000000" stroke-width="0.8" />
<line x1="74.15462847654629" y1="610" x2="78.0546284765463" y2="610" stroke="#000000" stroke-width="0.8" />
<line x1="58.546492320465006" y1="610" x2="62.446492320465005" y2="610" stroke="#000000" stroke-width="0.8" />
<line x1="42.938356164383606" y1="610" x2="46.838356164383605" y2="610" stroke="#000000" stroke-width="0.8" />
<circle cx="617.7272727272727" cy="339.09090909090907" r="4.701579862897969" fill="#1F77B4" />
<circle cx="634.8989898989898" cy="245.44209215442092" r="4.701579862897969" fill="#1F77B4" />
<circle cx="652.070707070707" cy="296.1685346616853" r="4.701579862897969" fill="#1F77B4" />
<circle cx="669.2424242424242" cy="155.69530925695312" r="4.701579862897969" fill="#1F77B4" />
<circle cx="686.4141414141415" cy="222.0298879202989" r="4.701579862897969" fill="#1F77B4" />
<circle cx="703.5858585858585" cy="136.18513906185143" r="4.701579862897969" fill="#1F77B4" />
<circle cx="720.7575757575758" cy="167.40141137401412" r="4.701579862897969" fill="#1F77B4" />
<circle cx="737.929292929293" cy="73.75259443752597" r="4.701579862897969" fill="#1F77B4" />
<circle cx="755.1010101010102" cy="140.08717310087172" r="4.701579862897969" fill="#1F77B4" />
<circle cx="772.2727272727273" cy="54.24242424242425" r="4.701579862897969" fill="#1F77B4" />
<g class="spine">
<line x1="610" y1="353.3333333333333" x2="780" y2="353.3333333333333" stroke="#000000" stroke-width="0.8" />
</g>
<g class="spine">
<line x1="610" y1="40" x2="780" y2="40" stroke="#000000" stroke-width="0.8" />
</g>
<g class="spine">
<line x1="610" y1="40" x2="610" y2="353.3333333333333" stroke="#000000" stroke-width="0.8" />
</g>
<g class="spine">
<line x1="780" y1="40" x2="780" y2="353.3333333333333" stroke="#000000" stroke-width="0.8" />
</g>
<text x="695" y="32" font-family="sans-serif" font-size="15" text-anchor="middle" font-weight="bold" fill="#000000">Scatter</text>
<rect x="60" y="393.3333333333333" width="720" height="156.66666666666666" fill="#FFFFFF" />
<line x1="92.72727272727272" y1="393.3333333333333" x2="92.72727272727272" y2="550" stroke="#B0B0B0" stroke-width="0.8" />
<line x1="256.3636363636364" y1="393.3333333333333" x2="256.3636363636364" y2="550" stroke="#B0B0B0" stroke-width="0.8" />
<line x1="420" y1="393.3333333333333" x2="420" y2="550" stroke="#B0B0B0" stroke-width="0.8" />
<line x1="583.6363636363636" y1="393.3333333333333" x2="583.6363636363636" y2="550" stroke="#B0B0B0" stroke-width="0.8" />
<line x1="747.2727272727273" y1="393.3333333333333" x2="747.2727272727273" y2="550" stroke="#B0B0B0" stroke-width="0.8" />
<line x1="60" y1="542.8787878787879" x2="780" y2="542.8787878787879" stroke="#B0B0B0" stroke-width="0.8" />
<line x1="60" y1="508.968253968254" x2="780" y2="508.968253968254" stroke="#B0B0B0" stroke-width="0.8" />
<line x1="60" y1="475.0577200577201" x2="780" y2="475.0577200577201" stroke="#B0B0B0" stroke-width="0.8" />
<line x1="60" y1="441.1471861471862" x2="780" y2="441.1471861471862" stroke="#B0B0B0" stroke-width="0.8" />
<line x1="60" y1="407.2366522366523" x2="780" y2="407.2366522366523" stroke="#B0B0B0" stroke-width="0.8" />
<text x="174.54545454545453" y="565" font-family="sans-serif" font-size="13" text-anchor="middle" fill="#000000">A</text>
<text x="338.18181818181813" y="565" font-family="sans-serif" font-size="13" text-anchor="middle" fill="#000000">B</text>
<text x="501.81818181818176" y="565" font-family="sans-serif" font-size="13" text-anchor="middle" fill="#000000">C</text>
<text x="665.4545454545455" y="565" font-family="sans-serif" font-size="13" text-anchor="middle" fill="#000000">D</text>
<line x1="539.3787878787879" y1="60" x2="543.2787878787879" y2="60" stroke="#000000" stroke-width="0.8" />
<text x="53.5" y="546.8787878787879" font-family="sans-serif" font-size="13" text-anchor="end" fill="#000000">0</text>
<line x1="505.468253968254" y1="60" x2="509.36825396825395" y2="60" stroke="#000000" stroke-width="0.8" />
<text x="53.5" y="512.968253968254" font-family="sans-serif" font-size="13" text-anchor="end" fill="#000000">10</text>
<line x1="471.5577200577201" y1="60" x2="475.45772005772005" y2="60" stroke="#000000" stroke-width="0.8" />
<text x="53.5" y="479.0577200577201" font-family="sans-serif" font-size="13" text-anchor="end" fill="#000000">20</text>
<line x1="437.6471861471862" y1="60" x2="441.54718614718615" y2="60" stroke="#000000" stroke-width="0.8" />
<text x="53.5" y="445.1471861471862" font-family="sans-serif" font-size="13" text-anchor="end" fill="#000000">30</text>
<line x1="403.7366522366523" y1="60" x2="407.63665223665225" y2="60" stroke="#000000" stroke-width="0.8" />
<text x="53.5" y="411.2366522366523" font-family="sans-serif" font-size="13" text-anchor="end" fill="#000000">40</text>
<line x1="546.1608946608947" y1="60" x2="550.0608946608946" y2="60" stroke="#000000" stroke-width="0.8" />
<line x1="532.5966810966811" y1="60" x2="536.4966810966811" y2="60" stroke="#000000" stroke-width="0.8" />
<line x1="525.8145743145743" y1="60" x2="529.7145743145743" y2="60" stroke="#000000" stroke-width="0.8" />
<line x1="519.0324675324675" y1="60" x2="522.9324675324675" y2="60" stroke="#000000" stroke-width="0.8" />
<line x1="512.2503607503608" y1="60" x2="516.1503607503607" y2="60" stroke="#000000" stroke-width="0.8" />
<line x1="498.6861471861472" y1="60" x2="502.5861471861472" y2="60" stroke="#000000" stroke-width="0.8" />
<line x1="491.9040404040404" y1="60" x2="495.8040404040404" y2="60" stroke="#000000" stroke-width="0.8" />
<line x1="485.12193362193364" y1="60" x2="489.0219336219336" y2="60" stroke="#000000" stroke-width="0.8" />
<line x1="478.33982683982686" y1="60" x2="482.23982683982683" y2="60" stroke="#000000" stroke-width="0.8" />
<line x1="464.7756132756133" y1="60" x2="468.6756132756133" y2="60" stroke="#000000" stroke-width="0.8" />
<line x1="457.9935064935065" y1="60" x2="461.8935064935065" y2="60" stroke="#000000" stroke-width="0.8" />
<line x1="451.21139971139974" y1="60" x2="455.1113997113997" y2="60" stroke="#000000" stroke-width="0.8" />
<line x1="444.42929292929296" y1="60" x2="448.32929292929293" y2="60" stroke="#000000" stroke-width="0.8" />
<line x1="430.8650793650794" y1="60" x2="434.7650793650794" y2="60" stroke="#000000" stroke-width="0.8" />
<line x1="424.0829725829726" y1="60" x2="427.9829725829726" y2="60" stroke="#000000" stroke-width="0.8" />
<line x1="417.30086580086584" y1="60" x2="421.2008658008658" y2="60" stroke="#000000" stroke-width="0.8" />
<line x1="410.51875901875906" y1="60" x2="414.41875901875903" y2="60" stroke="#000000" stroke-width="0.8" />
<line x1="396.9545454545455" y1="60" x2="400.8545454545455" y2="60" stroke="#000000" stroke-width="0.8" />
<line x1="390.1724386724387" y1="60" x2="394.0724386724387" y2="60" stroke="#000000" stroke-width="0.8" />
<rect x="109.09090909090908" y="492.012987012987" width="130.90909090909093" height="50.86580086580085" fill="#1F77B4" />
<rect x="272.72727272727275" y="400.4545454545455" width="130.90909090909088" height="142.42424242424238" fill="#1F77B4" />
<rect x="436.3636363636364" y="447.92929292929296" width="130.90909090909088" height="94.94949494949492" fill="#1F77B4" />
<rect x="600" y="417.40981240981245" width="130.90909090909088" height="125.46897546897543" fill="#1F77B4" />
<g class="spine">
<line x1="60" y1="550" x2="780" y2="550" stroke="#000000" stroke-width="0.8" />
</g>
<g class="spine">
<line x1="60" y1="393.3333333333333" x2="780" y2="393.3333333333333" stroke="#000000" stroke-width="0.8" />
</g>
<g class="spine">
<line x1="60" y1="393.3333333333333" x2="60" y2="550" stroke="#000000" stroke-width="0.8" />
</g>
<g class="spine">
<line x1="780" y1="393.3333333333333" x2="780" y2="550" stroke="#000000" stroke-width="0.8" />
</g>
<text x="420" y="385.3333333333333" font-family="sans-serif" font-size="15" text-anchor="middle" font-weight="bold" fill="#000000">Wide bar</text>
</svg>
