<svg xmlns="http://www.w3.org/2000/svg" viewBox="0 0 800 600" width="800" height="600" role="img" aria-labelledby="chart-title">
<title id="chart-title"></title>
<rect x="0" y="0" width="800" height="600" fill="#FFFFFF" />
<rect x="60" y="40" width="495.96057065327966" height="293.77777777777777" fill="#FFFFFF" />
<line x1="60" y1="333.3777777777778" x2="60" y2="338.63888888888886" stroke="#262626" stroke-width="1.1111111111111112" />
<path d="M4.41488 -9.22309Q3.35693 -9.22309 2.82457 -8.1821Q2.29221 -7.14111 2.29221 -5.05235Q2.29221 -2.97038 2.82457 -1.92939Q3.35693 -0.888401 4.41488 -0.888401Q5.4796 -0.888401 6.01196 -1.92939Q6.54433 -2.97038 6.54433 -5.05235Q6.54433 -7.14111 6.01196 -8.1821Q5.4796 -9.22309 4.41488 -9.22309ZM4.41488 -10.3082Q6.11708 -10.3082 7.01565 -8.962Q7.91422 -7.61583 7.91423 -5.05235Q7.91423 -2.49566 7.01565 -1.1495Q6.11708 0.196669 4.41488 0.196669Q2.71267 0.196669 1.8141 -1.1495Q0.915527 -2.49566 0.915527 -5.05235Q0.915527 -7.61583 1.8141 -8.962Q2.71267 -10.3082 4.41488 -10.3082Z" fill="#262626" transform="translate(60,357.38888888888886) translate(-4.418267250061035,0)" />
<line x1="142.66009510887994" y1="333.3777777777778" x2="142.66009510887994" y2="338.63888888888886" stroke="#262626" stroke-width="1.1111111111111112" />
<path d="M2.6652 -1.15289L7.44629 -1.15289L7.44629 0L1.01725 0L1.01725 -1.15289Q1.79715 -1.95991 3.14331 -3.31963Q4.48947 -4.67936 4.83534 -5.0727Q5.49316 -5.8119 5.75426 -6.32392Q6.01535 -6.83594 6.01535 -7.331Q6.01535 -8.13802 5.44908 -8.64665Q4.88281 -9.15527 3.97407 -9.15527Q3.32981 -9.15527 2.61434 -8.93148Q1.89887 -8.70768 1.08507 -8.25331L1.08507 -9.63677Q1.91243 -9.96908 2.63129 -10.1386Q3.35015 -10.3082 3.94694 -10.3082Q5.52029 -10.3082 6.45616 -9.52148Q7.39204 -8.73481 7.39204 -7.41916Q7.39204 -6.79525 7.15807 -6.23576Q6.9241 -5.67627 6.30697 -4.91672Q6.13742 -4.72005 5.22868 -3.78079Q4.31993 -2.84153 2.6652 -1.15289Z" fill="#262626" transform="translate(142.66009510887994,357.38888888888886) translate(-4.418267250061035,0)" />
<line x1="225.3201902177599" y1="333.3777777777778" x2="225.3201902177599" y2="338.63888888888886" stroke="#262626" stroke-width="1.1111111111111112" />
<path d="M5.24902 -8.93148L1.79036 -3.52648L5.24902 -3.52648L5.24902 -8.93148ZM4.88959 -10.1251L6.61214 -10.1251L6.61214 -3.52648L8.05664 -3.52648L8.05664 -2.38715L6.61214 -2.38715L6.61214 0L5.24902 0L5.24902 -2.38715L0.678168 -2.38715L0.678168 -3.70958L4.88959 -10.1251Z" fill="#262626" transform="translate(225.3201902177599,357.38888888888886) translate(-4.418267250061035,0)" />
<line x1="307.98028532663983" y1="333.3777777777778" x2="307.98028532663983" y2="338.63888888888886" stroke="#262626" stroke-width="1.1111111111111112" />
<path d="M4.58442 -5.60845Q3.66211 -5.60845 3.12297 -4.97776Q2.58382 -4.34706 2.58382 -3.24843Q2.58382 -2.15658 3.12297 -1.52249Q3.66211 -0.888401 4.58442 -0.888401Q5.50673 -0.888401 6.04587 -1.52249Q6.58502 -2.15658 6.58502 -3.24843Q6.58502 -4.34706 6.04587 -4.97776Q5.50673 -5.60845 4.58442 -5.60845ZM7.30387 -9.90126L7.30387 -8.65343Q6.78847 -8.89757 6.26289 -9.02642Q5.7373 -9.15527 5.2219 -9.15527Q3.86556 -9.15527 3.15009 -8.23975Q2.43462 -7.32422 2.3329 -5.47282Q2.73302 -6.06282 3.33659 -6.37817Q3.94016 -6.69352 4.6658 -6.69352Q6.19168 -6.69352 7.07669 -5.76782Q7.9617 -4.84212 7.9617 -3.24843Q7.9617 -1.68864 7.03939 -0.745985Q6.11708 0.196669 4.58442 0.196669Q2.82796 0.196669 1.89887 -1.1495Q0.969781 -2.49566 0.969781 -5.05235Q0.969781 -7.45307 2.1091 -8.88062Q3.24843 -10.3082 5.16764 -10.3082Q5.68305 -10.3082 6.20863 -10.2064Q6.73421 -10.1047 7.30387 -9.90126Z" fill="#262626" transform="translate(307.98028532663983,357.38888888888886) translate(-4.418267250061035,0)" />
<line x1="390.6403804355198" y1="333.3777777777778" x2="390.6403804355198" y2="338.63888888888886" stroke="#262626" stroke-width="1.1111111111111112" />
<path d="M4.41488 -4.80821Q3.43831 -4.80821 2.87882 -4.28602Q2.31934 -3.76383 2.31934 -2.84831Q2.31934 -1.93278 2.87882 -1.41059Q3.43831 -0.888401 4.41488 -0.888401Q5.39144 -0.888401 5.95432 -1.41398Q6.5172 -1.93956 6.5172 -2.84831Q6.5172 -3.76383 5.95771 -4.28602Q5.39822 -4.80821 4.41488 -4.80821ZM3.04498 -5.39144Q2.16336 -5.60845 1.67169 -6.21202Q1.18001 -6.81559 1.18001 -7.68365Q1.18001 -8.89757 2.04468 -9.60287Q2.90934 -10.3082 4.41488 -10.3082Q5.92719 -10.3082 6.78847 -9.60287Q7.64974 -8.89757 7.64974 -7.68365Q7.64974 -6.81559 7.15807 -6.21202Q6.6664 -5.60845 5.79156 -5.39144Q6.78168 -5.16086 7.33439 -4.48947Q7.8871 -3.81809 7.8871 -2.84831Q7.8871 -1.37668 6.98853 -0.590007Q6.08995 0.196669 4.41488 0.196669Q2.7398 0.196669 1.84123 -0.590007Q0.942654 -1.37668 0.942654 -2.84831Q0.942654 -3.81809 1.49875 -4.48947Q2.05485 -5.16086 3.04498 -5.39144ZM2.54313 -7.5548Q2.54313 -6.76812 3.0348 -6.32731Q3.52648 -5.8865 4.41488 -5.8865Q5.29649 -5.8865 5.79495 -6.32731Q6.2934 -6.76812 6.2934 -7.5548Q6.2934 -8.34147 5.79495 -8.78228Q5.2965 -9.22309 4.41488 -9.22309Q3.52648 -9.22309 3.0348 -8.78228Q2.54313 -8.34147 2.54313 -7.5548Z" fill="#262626" transform="translate(390.6403804355198,357.38888888888886) translate(-4.418267250061035,0)" />
<line x1="473.3004755443997" y1="333.3777777777778" x2="473.3004755443997" y2="338.63888888888886" stroke="#262626" stroke-width="1.1111111111111112" />
<path d="M1.72255 -1.15289L3.9605 -1.15289L3.9605 -8.87722L1.52588 -8.38894L1.52588 -9.63677L3.94694 -10.1251L5.31684 -10.1251L5.31684 -1.15289L7.5548 -1.15289L7.5548 0L1.72255 0L1.72255 -1.15289ZM13.2514 -9.22309Q12.1935 -9.22309 11.6611 -8.1821Q11.1287 -7.14111 11.1287 -5.05235Q11.1287 -2.97038 11.6611 -1.92939Q12.1935 -0.888401 13.2514 -0.888401Q14.3161 -0.888401 14.8485 -1.92939Q15.3809 -2.97038 15.3809 -5.05235Q15.3809 -7.14111 14.8485 -8.1821Q14.3161 -9.22309 13.2514 -9.22309ZM13.2514 -10.3082Q14.9536 -10.3082 15.8522 -8.962Q16.7508 -7.61583 16.7508 -5.05235Q16.7508 -2.49566 15.8522 -1.1495Q14.9536 0.196669 13.2514 0.196669Q11.5492 0.196669 10.6506 -1.1495Q9.75206 -2.49566 9.75206 -5.05235Q9.75206 -7.61583 10.6506 -8.962Q11.5492 -10.3082 13.2514 -10.3082Z" fill="#262626" transform="translate(473.3004755443997,357.38888888888886) translate(-8.83653450012207,0)" />
<line x1="555.9605706532797" y1="333.3777777777778" x2="555.9605706532797" y2="338.63888888888886" stroke="#262626" stroke-width="1.1111111111111112" />
<path d="M1.72255 -1.15289L3.9605 -1.15289L3.9605 -8.87722L1.52588 -8.38894L1.52588 -9.63677L3.94694 -10.1251L5.31684 -10.1251L5.31684 -1.15289L7.5548 -1.15289L7.5548 0L1.72255 0L1.72255 -1.15289ZM11.5017 -1.15289L16.2828 -1.15289L16.2828 0L9.85379 0L9.85379 -1.15289Q10.6337 -1.95991 11.9798 -3.31963Q13.326 -4.67936 13.6719 -5.0727Q14.3297 -5.8119 14.5908 -6.32392Q14.8519 -6.83594 14.8519 -7.331Q14.8519 -8.13802 14.2856 -8.64665Q13.7193 -9.15527 12.8106 -9.15527Q12.1663 -9.15527 11.4509 -8.93148Q10.7354 -8.70768 9.9216 -8.25331L9.9216 -9.63677Q10.749 -9.96908 11.4678 -10.1386Q12.1867 -10.3082 12.7835 -10.3082Q14.3568 -10.3082 15.2927 -9.52148Q16.2286 -8.73481 16.2286 -7.41916Q16.2286 -6.79525 15.9946 -6.23576Q15.7606 -5.67627 15.1435 -4.91672Q14.974 -4.72005 14.0652 -3.78079Q13.1565 -2.84153 11.5017 -1.15289Z" fill="#262626" transform="translate(555.9605706532797,357.38888888888886) translate(-8.83653450012207,0)" />
<line x1="55.138888888888886" y1="333.77777777777777" x2="60.4" y2="333.77777777777777" stroke="#262626" stroke-width="1.1111111111111112" />
<path d="M4.41488 -9.22309Q3.35693 -9.22309 2.82457 -8.1821Q2.29221 -7.14111 2.29221 -5.05235Q2.29221 -2.97038 2.82457 -1.92939Q3.35693 -0.888401 4.41488 -0.888401Q5.4796 -0.888401 6.01196 -1.92939Q6.54433 -2.97038 6.54433 -5.05235Q6.54433 -7.14111 6.01196 -8.1821Q5.4796 -9.22309 4.41488 -9.22309ZM4.41488 -10.3082Q6.11708 -10.3082 7.01565 -8.962Q7.91422 -7.61583 7.91423 -5.05235Q7.91423 -2.49566 7.01565 -1.1495Q6.11708 0.196669 4.41488 0.196669Q2.71267 0.196669 1.8141 -1.1495Q0.915527 -2.49566 0.915527 -5.05235Q0.915527 -7.61583 1.8141 -8.962Q2.71267 -10.3082 4.41488 -10.3082Z" fill="#262626" transform="translate(50.27777777777777,337.77777777777777) translate(-8.83653450012207,0)" />
<line x1="55.138888888888886" y1="304.4" x2="60.4" y2="304.4" stroke="#262626" stroke-width="1.1111111111111112" />
<path d="M1.72255 -1.15289L3.9605 -1.15289L3.9605 -8.87722L1.52588 -8.38894L1.52588 -9.63677L3.94694 -10.1251L5.31684 -10.1251L5.31684 -1.15289L7.5548 -1.15289L7.5548 0L1.72255 0L1.72255 -1.15289Z" fill="#262626" transform="translate(50.27777777777777,308.4) translate(-8.83653450012207,0)" />
<line x1="55.138888888888886" y1="275.02222222222224" x2="60.4" y2="275.02222222222224" stroke="#262626" stroke-width="1.1111111111111112" />
<path d="M2.6652 -1.15289L7.44629 -1.15289L7.44629 0L1.01725 0L1.01725 -1.15289Q1.79715 -1.95991 3.14331 -3.31963Q4.48947 -4.67936 4.83534 -5.0727Q5.49316 -5.8119 5.75426 -6.32392Q6.01535 -6.83594 6.01535 -7.331Q6.01535 -8.13802 5.44908 -8.64665Q4.88281 -9.15527 3.97407 -9.15527Q3.32981 -9.15527 2.61434 -8.93148Q1.89887 -8.70768 1.08507 -8.25331L1.08507 -9.63677Q1.91243 -9.96908 2.63129 -10.1386Q3.35015 -10.3082 3.94694 -10.3082Q5.52029 -10.3082 6.45616 -9.52148Q7.39204 -8.73481 7.39204 -7.41916Q7.39204 -6.79525 7.15807 -6.23576Q6.9241 -5.67627 6.30697 -4.91672Q6.13742 -4.72005 5.22868 -3.78079Q4.31993 -2.84153 2.6652 -1.15289Z" fill="#262626" transform="translate(50.27777777777777,279.02222222222224) translate(-8.83653450012207,0)" />
<line x1="55.138888888888886" y1="245.64444444444445" x2="60.4" y2="245.64444444444445" stroke="#262626" stroke-width="1.1111111111111112" />
<path d="M5.63558 -5.45926Q6.61892 -5.24902 7.17163 -4.58442Q7.72434 -3.91981 7.72434 -2.94325Q7.72434 -1.4445 6.69352 -0.623915Q5.66271 0.196669 3.76383 0.196669Q3.12636 0.196669 2.45158 0.0712077Q1.7768 -0.0542535 1.05794 -0.305176L1.05794 -1.6276Q1.6276 -1.2953 2.30577 -1.12576Q2.98394 -0.956217 3.72314 -0.956217Q5.01166 -0.956217 5.68644 -1.46484Q6.36122 -1.97347 6.36122 -2.94325Q6.36122 -3.83843 5.73391 -4.34367Q5.10661 -4.8489 3.98763 -4.8489L2.80762 -4.8489L2.80762 -5.97466L4.04188 -5.97466Q5.05235 -5.97466 5.58811 -6.37817Q6.12386 -6.78168 6.12386 -7.54123Q6.12386 -8.32113 5.57115 -8.7382Q5.01845 -9.15527 3.98763 -9.15527Q3.42475 -9.15527 2.78049 -9.0332Q2.13623 -8.91113 1.36312 -8.65343L1.36312 -9.87413Q2.14301 -10.0911 2.82457 -10.1997Q3.50613 -10.3082 4.1097 -10.3082Q5.66949 -10.3082 6.57823 -9.59947Q7.48698 -8.89079 7.48698 -7.68365Q7.48698 -6.84272 7.00548 -6.26289Q6.52398 -5.68305 5.63558 -5.45926Z" fill="#262626" transform="translate(50.27777777777777,249.64444444444445) translate(-8.83653450012207,0)" />
<line x1="55.138888888888886" y1="216.26666666666665" x2="60.4" y2="216.26666666666665" stroke="#262626" stroke-width="1.1111111111111112" />
<path d="M5.24902 -8.93148L1.79036 -3.52648L5.24902 -3.52648L5.24902 -8.93148ZM4.88959 -10.1251L6.61214 -10.1251L6.61214 -3.52648L8.05664 -3.52648L8.05664 -2.38715L6.61214 -2.38715L6.61214 0L5.24902 0L5.24902 -2.38715L0.678168 -2.38715L0.678168 -3.70958L4.88959 -10.1251Z" fill="#262626" transform="translate(50.27777777777777,220.26666666666665) translate(-8.83653450012207,0)" />
<line x1="55.138888888888886" y1="186.88888888888889" x2="60.4" y2="186.88888888888889" stroke="#262626" stroke-width="1.1111111111111112" />
<path d="M1.49875 -10.1251L6.87663 -10.1251L6.87663 -8.97217L2.75336 -8.97217L2.75336 -6.49007Q3.05176 -6.5918 3.35015 -6.64266Q3.64855 -6.69352 3.94694 -6.69352Q5.64236 -6.69352 6.63249 -5.76443Q7.62261 -4.83534 7.62261 -3.24843Q7.62261 -1.61404 6.60536 -0.708686Q5.58811 0.196669 3.73671 0.196669Q3.09923 0.196669 2.43802 0.0881619C1.99721 0.0158239 1.5417 -0.092683 1.07151 -0.237359L1.07151 -1.61404Q1.68186 -1.28174 2.3329 -1.11898Q2.98394 -0.956217 3.70958 -0.956217Q4.88281 -0.956217 5.56776 -1.57335Q6.25271 -2.19048 6.25271 -3.24843Q6.25271 -4.30637 5.56776 -4.9235Q4.88281 -5.54064 3.70958 -5.54064Q3.16026 -5.54064 2.61434 -5.41857Q2.06841 -5.2965 1.49875 -5.03879L1.49875 -10.1251Z" fill="#262626" transform="translate(50.27777777777777,190.88888888888889) translate(-8.83653450012207,0)" />
<line x1="55.138888888888886" y1="157.51111111111112" x2="60.4" y2="157.51111111111112" stroke="#262626" stroke-width="1.1111111111111112" />
<path d="M4.58442 -5.60845Q3.66211 -5.60845 3.12297 -4.97776Q2.58382 -4.34706 2.58382 -3.24843Q2.58382 -2.15658 3.12297 -1.52249Q3.66211 -0.888401 4.58442 -0.888401Q5.50673 -0.888401 6.04587 -1.52249Q6.58502 -2.15658 6.58502 -3.24843Q6.58502 -4.34706 6.04587 -4.97776Q5.50673 -5.60845 4.58442 -5.60845ZM7.30387 -9.90126L7.30387 -8.65343Q6.78847 -8.89757 6.26289 -9.02642Q5.7373 -9.15527 5.2219 -9.15527Q3.86556 -9.15527 3.15009 -8.23975Q2.43462 -7.32422 2.3329 -5.47282Q2.73302 -6.06282 3.33659 -6.37817Q3.94016 -6.69352 4.6658 -6.69352Q6.19168 -6.69352 7.07669 -5.76782Q7.9617 -4.84212 7.9617 -3.24843Q7.9617 -1.68864 7.03939 -0.745985Q6.11708 0.196669 4.58442 0.196669Q2.82796 0.196669 1.89887 -1.1495Q0.969781 -2.49566 0.969781 -5.05235Q0.969781 -7.45307 2.1091 -8.88062Q3.24843 -10.3082 5.16764 -10.3082Q5.68305 -10.3082 6.20863 -10.2064Q6.73421 -10.1047 7.30387 -9.90126Z" fill="#262626" transform="translate(50.27777777777777,161.51111111111112) translate(-8.83653450012207,0)" />
<line x1="55.138888888888886" y1="128.13333333333333" x2="60.4" y2="128.13333333333333" stroke="#262626" stroke-width="1.1111111111111112" />
<path d="M1.13932 -10.1251L7.64974 -10.1251L7.64974 -9.54183L3.97407 0L2.54313 0L6.00179 -8.97217L1.13932 -8.97217L1.13932 -10.1251Z" fill="#262626" transform="translate(50.27777777777777,132.13333333333333) translate(-8.83653450012207,0)" />
<line x1="55.138888888888886" y1="98.75555555555556" x2="60.4" y2="98.75555555555556" stroke="#262626" stroke-width="1.1111111111111112" />
<path d="M4.41488 -4.80821Q3.43831 -4.80821 2.87882 -4.28602Q2.31934 -3.76383 2.31934 -2.84831Q2.31934 -1.93278 2.87882 -1.41059Q3.43831 -0.888401 4.41488 -0.888401Q5.39144 -0.888401 5.95432 -1.41398Q6.5172 -1.93956 6.5172 -2.84831Q6.5172 -3.76383 5.95771 -4.28602Q5.39822 -4.80821 4.41488 -4.80821ZM3.04498 -5.39144Q2.16336 -5.60845 1.67169 -6.21202Q1.18001 -6.81559 1.18001 -7.68365Q1.18001 -8.89757 2.04468 -9.60287Q2.90934 -10.3082 4.41488 -10.3082Q5.92719 -10.3082 6.78847 -9.60287Q7.64974 -8.89757 7.64974 -7.68365Q7.64974 -6.81559 7.15807 -6.21202Q6.6664 -5.60845 5.79156 -5.39144Q6.78168 -5.16086 7.33439 -4.48947Q7.8871 -3.81809 7.8871 -2.84831Q7.8871 -1.37668 6.98853 -0.590007Q6.08995 0.196669 4.41488 0.196669Q2.7398 0.196669 1.84123 -0.590007Q0.942654 -1.37668 0.942654 -2.84831Q0.942654 -3.81809 1.49875 -4.48947Q2.05485 -5.16086 3.04498 -5.39144ZM2.54313 -7.5548Q2.54313 -6.76812 3.0348 -6.32731Q3.52648 -5.8865 4.41488 -5.8865Q5.29649 -5.8865 5.79495 -6.32731Q6.2934 -6.76812 6.2934 -7.5548Q6.2934 -8.34147 5.79495 -8.78228Q5.2965 -9.22309 4.41488 -9.22309Q3.52648 -9.22309 3.0348 -8.78228Q2.54313 -8.34147 2.54313 -7.5548Z" fill="#262626" transform="translate(50.27777777777777,102.75555555555556) translate(-8.83653450012207,0)" />
<line x1="55.138888888888886" y1="69.3777777777778" x2="60.4" y2="69.3777777777778" stroke="#262626" stroke-width="1.1111111111111112" />
<path d="M1.52588 -0.210232L1.52588 -1.45806Q2.04129 -1.21392 2.57026 -1.08507Q3.09923 -0.956217 3.60786 -0.956217Q4.96419 -0.956217 5.67966 -1.86835Q6.39513 -2.78049 6.49685 -4.63867Q6.10352 -4.05545 5.49995 -3.74349Q4.89638 -3.43153 4.16395 -3.43153Q2.64486 -3.43153 1.75985 -4.35045Q0.874837 -5.26937 0.874837 -6.86306Q0.874837 -8.42285 1.79715 -9.36551Q2.71946 -10.3082 4.25212 -10.3082Q6.00857 -10.3082 6.93427 -8.962Q7.85997 -7.61583 7.85997 -5.05235Q7.85997 -2.65842 6.72404 -1.23088Q5.58811 0.196669 3.66889 0.196669Q3.15348 0.196669 2.62451 0.0949436Q2.09554 -0.00678168 1.52588 -0.210232ZM4.25212 -4.50304Q5.17442 -4.50304 5.71357 -5.13374Q6.25271 -5.76443 6.25271 -6.86306Q6.25271 -7.95491 5.71357 -8.589Q5.17443 -9.22309 4.25212 -9.22309Q3.32981 -9.22309 2.79066 -8.589Q2.25152 -7.95492 2.25152 -6.86306Q2.25152 -5.76443 2.79066 -5.13374Q3.32981 -4.50304 4.25212 -4.50304Z" fill="#262626" transform="translate(50.27777777777777,73.3777777777778) translate(-8.83653450012207,0)" />
<line x1="55.138888888888886" y1="40" x2="60.4" y2="40" stroke="#262626" stroke-width="1.1111111111111112" />
<path d="M1.72255 -1.15289L3.9605 -1.15289L3.9605 -8.87722L1.52588 -8.38894L1.52588 -9.63677L3.94694 -10.1251L5.31684 -10.1251L5.31684 -1.15289L7.5548 -1.15289L7.5548 0L1.72255 0L1.72255 -1.15289ZM13.2514 -9.22309Q12.1935 -9.22309 11.6611 -8.1821Q11.1287 -7.14111 11.1287 -5.05235Q11.1287 -2.97038 11.6611 -1.92939Q12.1935 -0.888401 13.2514 -0.888401Q14.3161 -0.888401 14.8485 -1.92939Q15.3809 -2.97038 15.3809 -5.05235Q15.3809 -7.14111 14.8485 -8.1821Q14.3161 -9.22309 13.2514 -9.22309ZM13.2514 -10.3082Q14.9536 -10.3082 15.8522 -8.962Q16.7508 -7.61583 16.7508 -5.05235Q16.7508 -2.49566 15.8522 -1.1495Q14.9536 0.196669 13.2514 0.196669Q11.5492 0.196669 10.6506 -1.1495Q9.75206 -2.49566 9.75206 -5.05235Q9.75206 -7.61583 10.6506 -8.962Q11.5492 -10.3082 13.2514 -10.3082Z" fill="#262626" transform="translate(50.27777777777777,44) translate(-17.67306900024414,0)" />
<polyline points="101.33004755443997,272.08444444444444 142.66009510887994,201.57777777777778 183.99014266331992,239.76888888888888 225.3201902177599,134.0088888888889 266.65023777219983,183.95111111111112 307.98028532663983,119.32000000000001 349.31033288107983,142.82222222222222 390.6403804355198,72.31555555555555 431.9704279899597,122.25777777777779 473.3004755443997,57.626666666666665" fill="none" stroke="#1F77B4" stroke-width="1.5" />
<g class="spine">
<line x1="60" y1="333.77777777777777" x2="555.9605706532797" y2="333.77777777777777" stroke="#262626" stroke-width="0.8" />
</g>
<g class="spine">
<line x1="60" y1="40" x2="555.9605706532797" y2="40" stroke="#262626" stroke-width="0.8" />
</g>
<g class="spine">
<line x1="60" y1="40" x2="60" y2="333.77777777777777" stroke="#262626" stroke-width="0.8" />
</g>
<g class="spine">
<line x1="555.9605706532797" y1="40" x2="555.9605706532797" y2="333.77777777777777" stroke="#262626" stroke-width="0.8" />
</g>
<path d="M1.45855 -11.5831L5.26009 -11.5831L7.8979 -5.38422L10.5512 -11.5831L14.345 -11.5831L14.345 0L11.521 0L11.521 -8.47201L8.85216 -2.22662L6.95915 -2.22662L4.29031 -8.47201L4.29031 0L1.45855 0L1.45855 -11.5831ZM21.0404 -3.91016Q20.1714 -3.91016 19.7331 -3.61534Q19.2948 -3.32053 19.2948 -2.74642Q19.2948 -2.21886 19.6478 -1.92017Q20.0008 -1.62147 20.6292 -1.62147Q21.4128 -1.62147 21.9481 -2.18395Q22.4834 -2.74642 22.4834 -3.59207L22.4834 -3.91016L21.0404 -3.91016ZM25.2841 -4.95752L25.2841 0L22.4834 0L22.4834 -1.28787Q21.9248 -0.496528 21.2266 -0.135769Q20.5283 0.224989 19.5275 0.224989Q18.1776 0.224989 17.3358 -0.562473Q16.494 -1.34993 16.494 -2.60677Q16.494 -4.13515 17.5453 -4.8489Q18.5965 -5.56266 20.8464 -5.56266L22.4834 -5.56266L22.4834 -5.77989Q22.4834 -6.43934 21.9636 -6.7458Q21.4438 -7.05225 20.3421 -7.05225Q19.4499 -7.05225 18.6819 -6.87381Q17.9138 -6.69537 17.2543 -6.33849L17.2543 -8.45649Q18.1465 -8.67372 19.0465 -8.78621Q19.9465 -8.89871 20.8464 -8.89871Q23.1972 -8.89871 24.2406 -7.9716Q25.2841 -7.04449 25.2841 -4.95752ZM27.8676 -8.68924L30.6451 -8.68924L30.6451 0L27.8676 0L27.8676 -8.68924ZM27.8676 -12.0718L30.6451 -12.0718L30.6451 -9.80642L27.8676 -9.80642L27.8676 -12.0718ZM42.0497 -5.29112L42.0497 0L39.2567 0L39.2567 -0.861165L39.2567 -4.0498Q39.2567 -5.17475 39.2063 -5.60145Q39.1559 -6.02816 39.0317 -6.22987Q38.8688 -6.50141 38.5895 -6.6527Q38.3102 -6.80398 37.9533 -6.80398Q37.0844 -6.80398 36.5879 -6.13289Q36.0914 -5.46181 36.0914 -4.27479L36.0914 0L33.3139 0L33.3139 -8.68924L36.0914 -8.68924L36.0914 -7.41688Q36.7198 -8.17719 37.4258 -8.53795Q38.1318 -8.89871 38.9852 -8.89871Q40.4903 -8.89871 41.27 -7.97548Q42.0497 -7.05225 42.0497 -5.29112ZM52.9345 -1.25684L52.9345 3.30501L50.1571 3.30501L50.1571 -8.68924L52.9345 -8.68924L52.9345 -7.41688Q53.5086 -8.17719 54.2069 -8.53795Q54.9051 -8.89871 55.8128 -8.89871Q57.4188 -8.89871 58.4506 -7.62248Q59.4825 -6.34625 59.4825 -4.33686Q59.4825 -2.32747 58.4506 -1.05124Q57.4188 0.224989 55.8128 0.224989Q54.9051 0.224989 54.2069 -0.135769Q53.5086 -0.496528 52.9345 -1.25684ZM54.781 -6.88156Q53.8888 -6.88156 53.4117 -6.22599Q52.9345 -5.57042 52.9345 -4.33686Q52.9345 -3.1033 53.4117 -2.44773Q53.8888 -1.79215 54.781 -1.79216Q55.6732 -1.79215 56.1426 -2.44385Q56.6119 -3.09554 56.6119 -4.33686Q56.6119 -5.57818 56.1426 -6.22987Q55.6732 -6.88156 54.781 -6.88156ZM61.5307 -12.0718L64.3081 -12.0718L64.3081 0L61.5307 0L61.5307 -12.0718ZM71.1121 -6.9126Q70.1889 -6.9126 69.704 -6.24927Q69.2191 -5.58594 69.2191 -4.33686Q69.2191 -3.08778 69.704 -2.42445Q70.1889 -1.76112 71.1121 -1.76112Q72.0198 -1.76112 72.5008 -2.42445Q72.9818 -3.08778 72.9818 -4.33686Q72.9818 -5.58594 72.5008 -6.24927Q72.0198 -6.9126 71.1121 -6.9126ZM71.1121 -8.89871Q73.3542 -8.89871 74.6149 -7.68842Q75.8756 -6.47814 75.8757 -4.33686Q75.8757 -2.19558 74.6149 -0.985297Q73.3542 0.224989 71.1121 0.224989Q68.8622 0.224989 67.5937 -0.985297Q66.3252 -2.19558 66.3252 -4.33686Q66.3252 -6.47814 67.5937 -7.68842Q68.8622 -8.89871 71.1121 -8.89871ZM80.9263 -11.1564L80.9263 -8.68924L83.7891 -8.68924L83.7891 -6.70313L80.9263 -6.70313L80.9263 -3.01796Q80.9263 -2.41281 81.1668 -2.19946Q81.4073 -1.98611 82.121 -1.98611L83.5486 -1.98611L83.5486 0L81.1668 0Q79.522 0 78.8354 -0.686605Q78.1488 -1.37321 78.1488 -3.01796L78.1488 -6.70313L76.7679 -6.70313L76.7679 -8.68924L78.1488 -8.68924L78.1488 -11.1564L80.9263 -11.1564Z" fill="#262626" transform="translate(307.98028532663983,32) translate(-42.07685089111328,0)" />
<rect x="614.6798097822401" y="40" width="165.3201902177599" height="293.77777777777777" fill="#FFFFFF" />
<line x1="614.6798097822401" y1="333.3777777777778" x2="614.6798097822401" y2="338.63888888888886" stroke="#262626" stroke-width="1.1111111111111112" />
<path d="M4.41488 -9.22309Q3.35693 -9.22309 2.82457 -8.1821Q2.29221 -7.14111 2.29221 -5.05235Q2.29221 -2.97038 2.82457 -1.92939Q3.35693 -0.888401 4.41488 -0.888401Q5.4796 -0.888401 6.01196 -1.92939Q6.54433 -2.97038 6.54433 -5.05235Q6.54433 -7.14111 6.01196 -8.1821Q5.4796 -9.22309 4.41488 -9.22309ZM4.41488 -10.3082Q6.11708 -10.3082 7.01565 -8.962Q7.91422 -7.61583 7.91423 -5.05235Q7.91423 -2.49566 7.01565 -1.1495Q6.11708 0.196669 4.41488 0.196669Q2.71267 0.196669 1.8141 -1.1495Q0.915527 -2.49566 0.915527 -5.05235Q0.915527 -7.61583 1.8141 -8.962Q2.71267 -10.3082 4.41488 -10.3082Z" fill="#262626" transform="translate(614.6798097822401,357.38888888888886) translate(-4.418267250061035,0)" />
<line x1="642.2331748185334" y1="333.3777777777778" x2="642.2331748185334" y2="338.63888888888886" stroke="#262626" stroke-width="1.1111111111111112" />
<path d="M2.6652 -1.15289L7.44629 -1.15289L7.44629 0L1.01725 0L1.01725 -1.15289Q1.79715 -1.95991 3.14331 -3.31963Q4.48947 -4.67936 4.83534 -5.0727Q5.49316 -5.8119 5.75426 -6.32392Q6.01535 -6.83594 6.01535 -7.331Q6.01535 -8.13802 5.44908 -8.64665Q4.88281 -9.15527 3.97407 -9.15527Q3.32981 -9.15527 2.61434 -8.93148Q1.89887 -8.70768 1.08507 -8.25331L1.08507 -9.63677Q1.91243 -9.96908 2.63129 -10.1386Q3.35015 -10.3082 3.94694 -10.3082Q5.52029 -10.3082 6.45616 -9.52148Q7.39204 -8.73481 7.39204 -7.41916Q7.39204 -6.79525 7.15807 -6.23576Q6.9241 -5.67627 6.30697 -4.91672Q6.13742 -4.72005 5.22868 -3.78079Q4.31993 -2.84153 2.6652 -1.15289Z" fill="#262626" transform="translate(642.2331748185334,357.38888888888886) translate(-4.418267250061035,0)" />
<line x1="669.7865398548267" y1="333.3777777777778" x2="669.7865398548267" y2="338.63888888888886" stroke="#262626" stroke-width="1.1111111111111112" />
<path d="M5.24902 -8.93148L1.79036 -3.52648L5.24902 -3.52648L5.24902 -8.93148ZM4.88959 -10.1251L6.61214 -10.1251L6.61214 -3.52648L8.05664 -3.52648L8.05664 -2.38715L6.61214 -2.38715L6.61214 0L5.24902 0L5.24902 -2.38715L0.678168 -2.38715L0.678168 -3.70958L4.88959 -10.1251Z" fill="#262626" transform="translate(669.7865398548267,357.38888888888886) translate(-4.418267250061035,0)" />
<line x1="697.3399048911201" y1="333.3777777777778" x2="697.3399048911201" y2="338.63888888888886" stroke="#262626" stroke-width="1.1111111111111112" />
<path d="M4.58442 -5.60845Q3.66211 -5.60845 3.12297 -4.97776Q2.58382 -4.34706 2.58382 -3.24843Q2.58382 -2.15658 3.12297 -1.52249Q3.66211 -0.888401 4.58442 -0.888401Q5.50673 -0.888401 6.04587 -1.52249Q6.58502 -2.15658 6.58502 -3.24843Q6.58502 -4.34706 6.04587 -4.97776Q5.50673 -5.60845 4.58442 -5.60845ZM7.30387 -9.90126L7.30387 -8.65343Q6.78847 -8.89757 6.26289 -9.02642Q5.7373 -9.15527 5.2219 -9.15527Q3.86556 -9.15527 3.15009 -8.23975Q2.43462 -7.32422 2.3329 -5.47282Q2.73302 -6.06282 3.33659 -6.37817Q3.94016 -6.69352 4.6658 -6.69352Q6.19168 -6.69352 7.07669 -5.76782Q7.9617 -4.84212 7.9617 -3.24843Q7.9617 -1.68864 7.03939 -0.745985Q6.11708 0.196669 4.58442 0.196669Q2.82796 0.196669 1.89887 -1.1495Q0.969781 -2.49566 0.969781 -5.05235Q0.969781 -7.45307 2.1091 -8.88062Q3.24843 -10.3082 5.16764 -10.3082Q5.68305 -10.3082 6.20863 -10.2064Q6.73421 -10.1047 7.30387 -9.90126Z" fill="#262626" transform="translate(697.3399048911201,357.38888888888886) translate(-4.418267250061035,0)" />
<line x1="724.8932699274134" y1="333.3777777777778" x2="724.8932699274134" y2="338.63888888888886" stroke="#262626" stroke-width="1.1111111111111112" />
<path d="M4.41488 -4.80821Q3.43831 -4.80821 2.87882 -4.28602Q2.31934 -3.76383 2.31934 -2.84831Q2.31934 -1.93278 2.87882 -1.41059Q3.43831 -0.888401 4.41488 -0.888401Q5.39144 -0.888401 5.95432 -1.41398Q6.5172 -1.93956 6.5172 -2.84831Q6.5172 -3.76383 5.95771 -4.28602Q5.39822 -4.80821 4.41488 -4.80821ZM3.04498 -5.39144Q2.16336 -5.60845 1.67169 -6.21202Q1.18001 -6.81559 1.18001 -7.68365Q1.18001 -8.89757 2.04468 -9.60287Q2.90934 -10.3082 4.41488 -10.3082Q5.92719 -10.3082 6.78847 -9.60287Q7.64974 -8.89757 7.64974 -7.68365Q7.64974 -6.81559 7.15807 -6.21202Q6.6664 -5.60845 5.79156 -5.39144Q6.78168 -5.16086 7.33439 -4.48947Q7.8871 -3.81809 7.8871 -2.84831Q7.8871 -1.37668 6.98853 -0.590007Q6.08995 0.196669 4.41488 0.196669Q2.7398 0.196669 1.84123 -0.590007Q0.942654 -1.37668 0.942654 -2.84831Q0.942654 -3.81809 1.49875 -4.48947Q2.05485 -5.16086 3.04498 -5.39144ZM2.54313 -7.5548Q2.54313 -6.76812 3.0348 -6.32731Q3.52648 -5.8865 4.41488 -5.8865Q5.29649 -5.8865 5.79495 -6.32731Q6.2934 -6.76812 6.2934 -7.5548Q6.2934 -8.34147 5.79495 -8.78228Q5.2965 -9.22309 4.41488 -9.22309Q3.52648 -9.22309 3.0348 -8.78228Q2.54313 -8.34147 2.54313 -7.5548Z" fill="#262626" transform="translate(724.8932699274134,357.38888888888886) translate(-4.418267250061035,0)" />
<line x1="752.4466349637066" y1="333.3777777777778" x2="752.4466349637066" y2="338.63888888888886" stroke="#262626" stroke-width="1.1111111111111112" />
<path d="M1.72255 -1.15289L3.9605 -1.15289L3.9605 -8.87722L1.52588 -8.38894L1.52588 -9.63677L3.94694 -10.1251L5.31684 -10.1251L5.31684 -1.15289L7.5548 -1.15289L7.5548 0L1.72255 0L1.72255 -1.15289ZM13.2514 -9.22309Q12.1935 -9.22309 11.6611 -8.1821Q11.1287 -7.14111 11.1287 -5.05235Q11.1287 -2.97038 11.6611 -1.92939Q12.1935 -0.888401 13.2514 -0.888401Q14.3161 -0.888401 14.8485 -1.92939Q15.3809 -2.97038 15.3809 -5.05235Q15.3809 -7.14111 14.8485 -8.1821Q14.3161 -9.22309 13.2514 -9.22309ZM13.2514 -10.3082Q14.9536 -10.3082 15.8522 -8.962Q16.7508 -7.61583 16.7508 -5.05235Q16.7508 -2.49566 15.8522 -1.1495Q14.9536 0.196669 13.2514 0.196669Q11.5492 0.196669 10.6506 -1.1495Q9.75206 -2.49566 9.75206 -5.05235Q9.75206 -7.61583 10.6506 -8.962Q11.5492 -10.3082 13.2514 -10.3082Z" fill="#262626" transform="translate(752.4466349637066,357.38888888888886) translate(-8.83653450012207,0)" />
<line x1="780" y1="333.3777777777778" x2="780" y2="338.63888888888886" stroke="#262626" stroke-width="1.1111111111111112" />
<path d="M1.72255 -1.15289L3.9605 -1.15289L3.9605 -8.87722L1.52588 -8.38894L1.52588 -9.63677L3.94694 -10.1251L5.31684 -10.1251L5.31684 -1.15289L7.5548 -1.15289L7.5548 0L1.72255 0L1.72255 -1.15289ZM11.5017 -1.15289L16.2828 -1.15289L16.2828 0L9.85379 0L9.85379 -1.15289Q10.6337 -1.95991 11.9798 -3.31963Q13.326 -4.67936 13.6719 -5.0727Q14.3297 -5.8119 14.5908 -6.32392Q14.8519 -6.83594 14.8519 -7.331Q14.8519 -8.13802 14.2856 -8.64665Q13.7193 -9.15527 12.8106 -9.15527Q12.1663 -9.15527 11.4509 -8.93148Q10.7354 -8.70768 9.9216 -8.25331L9.9216 -9.63677Q10.749 -9.96908 11.4678 -10.1386Q12.1867 -10.3082 12.7835 -10.3082Q14.3568 -10.3082 15.2927 -9.52148Q16.2286 -8.73481 16.2286 -7.41916Q16.2286 -6.79525 15.9946 -6.23576Q15.7606 -5.67627 15.1435 -4.91672Q14.974 -4.72005 14.0652 -3.78079Q13.1565 -2.84153 11.5017 -1.15289Z" fill="#262626" transform="translate(780,357.38888888888886) translate(-8.83653450012207,0)" />
<line x1="609.818698671129" y1="333.77777777777777" x2="615.0798097822401" y2="333.77777777777777" stroke="#262626" stroke-width="1.1111111111111112" />
<path d="M4.41488 -9.22309Q3.35693 -9.22309 2.82457 -8.1821Q2.29221 -7.14111 2.29221 -5.05235Q2.29221 -2.97038 2.82457 -1.92939Q3.35693 -0.888401 4.41488 -0.888401Q5.4796 -0.888401 6.01196 -1.92939Q6.54433 -2.97038 6.54433 -5.05235Q6.54433 -7.14111 6.01196 -8.1821Q5.4796 -9.22309 4.41488 -9.22309ZM4.41488 -10.3082Q6.11708 -10.3082 7.01565 -8.962Q7.91422 -7.61583 7.91423 -5.05235Q7.91423 -2.49566 7.01565 -1.1495Q6.11708 0.196669 4.41488 0.196669Q2.71267 0.196669 1.8141 -1.1495Q0.915527 -2.49566 0.915527 -5.05235Q0.915527 -7.61583 1.8141 -8.962Q2.71267 -10.3082 4.41488 -10.3082Z" fill="#262626" transform="translate(604.9575875600179,337.77777777777777) translate(-8.83653450012207,0)" />
<line x1="609.818698671129" y1="304.4" x2="615.0798097822401" y2="304.4" stroke="#262626" stroke-width="1.1111111111111112" />
<path d="M1.72255 -1.15289L3.9605 -1.15289L3.9605 -8.87722L1.52588 -8.38894L1.52588 -9.63677L3.94694 -10.1251L5.31684 -10.1251L5.31684 -1.15289L7.5548 -1.15289L7.5548 0L1.72255 0L1.72255 -1.15289Z" fill="#262626" transform="translate(604.9575875600179,308.4) translate(-8.83653450012207,0)" />
<line x1="609.818698671129" y1="275.02222222222224" x2="615.0798097822401" y2="275.02222222222224" stroke="#262626" stroke-width="1.1111111111111112" />
<path d="M2.6652 -1.15289L7.44629 -1.15289L7.44629 0L1.01725 0L1.01725 -1.15289Q1.79715 -1.95991 3.14331 -3.31963Q4.48947 -4.67936 4.83534 -5.0727Q5.49316 -5.8119 5.75426 -6.32392Q6.01535 -6.83594 6.01535 -7.331Q6.01535 -8.13802 5.44908 -8.64665Q4.88281 -9.15527 3.97407 -9.15527Q3.32981 -9.15527 2.61434 -8.93148Q1.89887 -8.70768 1.08507 -8.25331L1.08507 -9.63677Q1.91243 -9.96908 2.63129 -10.1386Q3.35015 -10.3082 3.94694 -10.3082Q5.52029 -10.3082 6.45616 -9.52148Q7.39204 -8.73481 7.39204 -7.41916Q7.39204 -6.79525 7.15807 -6.23576Q6.9241 -5.67627 6.30697 -4.91672Q6.13742 -4.72005 5.22868 -3.78079Q4.31993 -2.84153 2.6652 -1.15289Z" fill="#262626" transform="translate(604.9575875600179,279.02222222222224) translate(-8.83653450012207,0)" />
<line x1="609.818698671129" y1="245.64444444444445" x2="615.0798097822401" y2="245.64444444444445" stroke="#262626" stroke-width="1.1111111111111112" />
<path d="M5.63558 -5.45926Q6.61892 -5.24902 7.17163 -4.58442Q7.72434 -3.91981 7.72434 -2.94325Q7.72434 -1.4445 6.69352 -0.623915Q5.66271 0.196669 3.76383 0.196669Q3.12636 0.196669 2.45158 0.0712077Q1.7768 -0.0542535 1.05794 -0.305176L1.05794 -1.6276Q1.6276 -1.2953 2.30577 -1.12576Q2.98394 -0.956217 3.72314 -0.956217Q5.01166 -0.956217 5.68644 -1.46484Q6.36122 -1.97347 6.36122 -2.94325Q6.36122 -3.83843 5.73391 -4.34367Q5.10661 -4.8489 3.98763 -4.8489L2.80762 -4.8489L2.80762 -5.97466L4.04188 -5.97466Q5.05235 -5.97466 5.58811 -6.37817Q6.12386 -6.78168 6.12386 -7.54123Q6.12386 -8.32113 5.57115 -8.7382Q5.01845 -9.15527 3.98763 -9.15527Q3.42475 -9.15527 2.78049 -9.0332Q2.13623 -8.91113 1.36312 -8.65343L1.36312 -9.87413Q2.14301 -10.0911 2.82457 -10.1997Q3.50613 -10.3082 4.1097 -10.3082Q5.66949 -10.3082 6.57823 -9.59947Q7.48698 -8.89079 7.48698 -7.68365Q7.48698 -6.84272 7.00548 -6.26289Q6.52398 -5.68305 5.63558 -5.45926Z" fill="#262626" transform="translate(604.9575875600179,249.64444444444445) translate(-8.83653450012207,0)" />
<line x1="609.818698671129" y1="216.26666666666665" x2="615.0798097822401" y2="216.26666666666665" stroke="#262626" stroke-width="1.1111111111111112" />
<path d="M5.24902 -8.93148L1.79036 -3.52648L5.24902 -3.52648L5.24902 -8.93148ZM4.88959 -10.1251L6.61214 -10.1251L6.61214 -3.52648L8.05664 -3.52648L8.05664 -2.38715L6.61214 -2.38715L6.61214 0L5.24902 0L5.24902 -2.38715L0.678168 -2.38715L0.678168 -3.70958L4.88959 -10.1251Z" fill="#262626" transform="translate(604.9575875600179,220.26666666666665) translate(-8.83653450012207,0)" />
<line x1="609.818698671129" y1="186.88888888888889" x2="615.0798097822401" y2="186.88888888888889" stroke="#262626" stroke-width="1.1111111111111112" />
<path d="M1.49875 -10.1251L6.87663 -10.1251L6.87663 -8.97217L2.75336 -8.97217L2.75336 -6.49007Q3.05176 -6.5918 3.35015 -6.64266Q3.64855 -6.69352 3.94694 -6.69352Q5.64236 -6.69352 6.63249 -5.76443Q7.62261 -4.83534 7.62261 -3.24843Q7.62261 -1.61404 6.60536 -0.708686Q5.58811 0.196669 3.73671 0.196669Q3.09923 0.196669 2.43802 0.0881619C1.99721 0.0158239 1.5417 -0.092683 1.07151 -0.237359L1.07151 -1.61404Q1.68186 -1.28174 2.3329 -1.11898Q2.98394 -0.956217 3.70958 -0.956217Q4.88281 -0.956217 5.56776 -1.57335Q6.25271 -2.19048 6.25271 -3.24843Q6.25271 -4.30637 5.56776 -4.9235Q4.88281 -5.54064 3.70958 -5.54064Q3.16026 -5.54064 2.61434 -5.41857Q2.06841 -5.2965 1.49875 -5.03879L1.49875 -10.1251Z" fill="#262626" transform="translate(604.9575875600179,190.88888888888889) translate(-8.83653450012207,0)" />
<line x1="609.818698671129" y1="157.51111111111112" x2="615.0798097822401" y2="157.51111111111112" stroke="#262626" stroke-width="1.1111111111111112" />
<path d="M4.58442 -5.60845Q3.66211 -5.60845 3.12297 -4.97776Q2.58382 -4.34706 2.58382 -3.24843Q2.58382 -2.15658 3.12297 -1.52249Q3.66211 -0.888401 4.58442 -0.888401Q5.50673 -0.888401 6.04587 -1.52249Q6.58502 -2.15658 6.58502 -3.24843Q6.58502 -4.34706 6.04587 -4.97776Q5.50673 -5.60845 4.58442 -5.60845ZM7.30387 -9.90126L7.30387 -8.65343Q6.78847 -8.89757 6.26289 -9.02642Q5.7373 -9.15527 5.2219 -9.15527Q3.86556 -9.15527 3.15009 -8.23975Q2.43462 -7.32422 2.3329 -5.47282Q2.73302 -6.06282 3.33659 -6.37817Q3.94016 -6.69352 4.6658 -6.69352Q6.19168 -6.69352 7.07669 -5.76782Q7.9617 -4.84212 7.9617 -3.24843Q7.9617 -1.68864 7.03939 -0.745985Q6.11708 0.196669 4.58442 0.196669Q2.82796 0.196669 1.89887 -1.1495Q0.969781 -2.49566 0.969781 -5.05235Q0.969781 -7.45307 2.1091 -8.88062Q3.24843 -10.3082 5.16764 -10.3082Q5.68305 -10.3082 6.20863 -10.2064Q6.73421 -10.1047 7.30387 -9.90126Z" fill="#262626" transform="translate(604.9575875600179,161.51111111111112) translate(-8.83653450012207,0)" />
<line x1="609.818698671129" y1="128.13333333333333" x2="615.0798097822401" y2="128.13333333333333" stroke="#262626" stroke-width="1.1111111111111112" />
<path d="M1.13932 -10.1251L7.64974 -10.1251L7.64974 -9.54183L3.97407 0L2.54313 0L6.00179 -8.97217L1.13932 -8.97217L1.13932 -10.1251Z" fill="#262626" transform="translate(604.9575875600179,132.13333333333333) translate(-8.83653450012207,0)" />
<line x1="609.818698671129" y1="98.75555555555556" x2="615.0798097822401" y2="98.75555555555556" stroke="#262626" stroke-width="1.1111111111111112" />
<path d="M4.41488 -4.80821Q3.43831 -4.80821 2.87882 -4.28602Q2.31934 -3.76383 2.31934 -2.84831Q2.31934 -1.93278 2.87882 -1.41059Q3.43831 -0.888401 4.41488 -0.888401Q5.39144 -0.888401 5.95432 -1.41398Q6.5172 -1.93956 6.5172 -2.84831Q6.5172 -3.76383 5.95771 -4.28602Q5.39822 -4.80821 4.41488 -4.80821ZM3.04498 -5.39144Q2.16336 -5.60845 1.67169 -6.21202Q1.18001 -6.81559 1.18001 -7.68365Q1.18001 -8.89757 2.04468 -9.60287Q2.90934 -10.3082 4.41488 -10.3082Q5.92719 -10.3082 6.78847 -9.60287Q7.64974 -8.89757 7.64974 -7.68365Q7.64974 -6.81559 7.15807 -6.21202Q6.6664 -5.60845 5.79156 -5.39144Q6.78168 -5.16086 7.33439 -4.48947Q7.8871 -3.81809 7.8871 -2.84831Q7.8871 -1.37668 6.98853 -0.590007Q6.08995 0.196669 4.41488 0.196669Q2.7398 0.196669 1.84123 -0.590007Q0.942654 -1.37668 0.942654 -2.84831Q0.942654 -3.81809 1.49875 -4.48947Q2.05485 -5.16086 3.04498 -5.39144ZM2.54313 -7.5548Q2.54313 -6.76812 3.0348 -6.32731Q3.52648 -5.8865 4.41488 -5.8865Q5.29649 -5.8865 5.79495 -6.32731Q6.2934 -6.76812 6.2934 -7.5548Q6.2934 -8.34147 5.79495 -8.78228Q5.2965 -9.22309 4.41488 -9.22309Q3.52648 -9.22309 3.0348 -8.78228Q2.54313 -8.34147 2.54313 -7.5548Z" fill="#262626" transform="translate(604.9575875600179,102.75555555555556) translate(-8.83653450012207,0)" />
<line x1="609.818698671129" y1="69.3777777777778" x2="615.0798097822401" y2="69.3777777777778" stroke="#262626" stroke-width="1.1111111111111112" />
<path d="M1.52588 -0.210232L1.52588 -1.45806Q2.04129 -1.21392 2.57026 -1.08507Q3.09923 -0.956217 3.60786 -0.956217Q4.96419 -0.956217 5.67966 -1.86835Q6.39513 -2.78049 6.49685 -4.63867Q6.10352 -4.05545 5.49995 -3.74349Q4.89638 -3.43153 4.16395 -3.43153Q2.64486 -3.43153 1.75985 -4.35045Q0.874837 -5.26937 0.874837 -6.86306Q0.874837 -8.42285 1.79715 -9.36551Q2.71946 -10.3082 4.25212 -10.3082Q6.00857 -10.3082 6.93427 -8.962Q7.85997 -7.61583 7.85997 -5.05235Q7.85997 -2.65842 6.72404 -1.23088Q5.58811 0.196669 3.66889 0.196669Q3.15348 0.196669 2.62451 0.0949436Q2.09554 -0.00678168 1.52588 -0.210232ZM4.25212 -4.50304Q5.17442 -4.50304 5.71357 -5.13374Q6.25271 -5.76443 6.25271 -6.86306Q6.25271 -7.95491 5.71357 -8.589Q5.17443 -9.22309 4.25212 -9.22309Q3.32981 -9.22309 2.79066 -8.589Q2.25152 -7.95492 2.25152 -6.86306Q2.25152 -5.76443 2.79066 -5.13374Q3.32981 -4.50304 4.25212 -4.50304Z" fill="#262626" transform="translate(604.9575875600179,73.3777777777778) translate(-8.83653450012207,0)" />
<line x1="609.818698671129" y1="40" x2="615.0798097822401" y2="40" stroke="#262626" stroke-width="1.1111111111111112" />
<path d="M1.72255 -1.15289L3.9605 -1.15289L3.9605 -8.87722L1.52588 -8.38894L1.52588 -9.63677L3.94694 -10.1251L5.31684 -10.1251L5.31684 -1.15289L7.5548 -1.15289L7.5548 0L1.72255 0L1.72255 -1.15289ZM13.2514 -9.22309Q12.1935 -9.22309 11.6611 -8.1821Q11.1287 -7.14111 11.1287 -5.05235Q11.1287 -2.97038 11.6611 -1.92939Q12.1935 -0.888401 13.2514 -0.888401Q14.3161 -0.888401 14.8485 -1.92939Q15.3809 -2.97038 15.3809 -5.05235Q15.3809 -7.14111 14.8485 -8.1821Q14.3161 -9.22309 13.2514 -9.22309ZM13.2514 -10.3082Q14.9536 -10.3082 15.8522 -8.962Q16.7508 -7.61583 16.7508 -5.05235Q16.7508 -2.49566 15.8522 -1.1495Q14.9536 0.196669 13.2514 0.196669Q11.5492 0.196669 10.6506 -1.1495Q9.75206 -2.49566 9.75206 -5.05235Q9.75206 -7.61583 10.6506 -8.962Q11.5492 -10.3082 13.2514 -10.3082Z" fill="#262626" transform="translate(604.9575875600179,44) translate(-17.67306900024414,0)" />
<circle cx="628.4564923003868" cy="272.08444444444444" r="4.701579862897969" fill="#1F77B4" />
<circle cx="642.2331748185334" cy="201.57777777777778" r="4.701579862897969" fill="#1F77B4" />
<circle cx="656.00985733668" cy="239.76888888888888" r="4.701579862897969" fill="#1F77B4" />
<circle cx="669.7865398548267" cy="134.0088888888889" r="4.701579862897969" fill="#1F77B4" />
<circle cx="683.5632223729734" cy="183.95111111111112" r="4.701579862897969" fill="#1F77B4" />
<circle cx="697.3399048911201" cy="119.32000000000001" r="4.701579862897969" fill="#1F77B4" />
<circle cx="711.1165874092667" cy="142.82222222222222" r="4.701579862897969" fill="#1F77B4" />
<circle cx="724.8932699274134" cy="72.31555555555555" r="4.701579862897969" fill="#1F77B4" />
<circle cx="738.66995244556" cy="122.25777777777779" r="4.701579862897969" fill="#1F77B4" />
<circle cx="752.4466349637066" cy="57.626666666666665" r="4.701579862897969" fill="#1F77B4" />
<g class="spine">
<line x1="614.6798097822401" y1="333.77777777777777" x2="780" y2="333.77777777777777" stroke="#262626" stroke-width="0.8" />
</g>
<g class="spine">
<line x1="614.6798097822401" y1="40" x2="780" y2="40" stroke="#262626" stroke-width="0.8" />
</g>
<g class="spine">
<line x1="614.6798097822401" y1="40" x2="614.6798097822401" y2="333.77777777777777" stroke="#262626" stroke-width="0.8" />
</g>
<g class="spine">
<line x1="780" y1="40" x2="780" y2="333.77777777777777" stroke="#262626" stroke-width="0.8" />
</g>
<path d="M9.51937 -11.2184L9.51937 -8.76682Q8.5651 -9.19352 7.65739 -9.41075Q6.74967 -9.62798 5.94282 -9.62798Q4.87218 -9.62798 4.36013 -9.33317Q3.84809 -9.03836 3.84809 -8.4177Q3.84809 -7.9522 4.19333 -7.6923Q4.53857 -7.4324 5.44629 -7.2462L6.71864 -6.99018Q8.65044 -6.60227 9.46506 -5.81093Q10.2797 -5.01959 10.2797 -3.56104Q10.2797 -1.64475 9.14309 -0.70988Q8.00651 0.224989 5.67128 0.224989Q4.56961 0.224989 3.46018 0.0155165Q2.35075 -0.193956 1.24132 -0.605143L1.24132 -3.12657Q2.35075 -2.53695 3.38647 -2.23825Q4.4222 -1.93956 5.38422 -1.93956Q6.36176 -1.93956 6.88156 -2.26541Q7.40137 -2.59125 7.40137 -3.1964Q7.40137 -3.73948 7.04837 -4.03429Q6.69537 -4.3291 5.64025 -4.56185L4.48427 -4.81787Q2.74642 -5.19027 1.94344 -6.00488Q1.14046 -6.8195 1.14046 -8.20047Q1.14046 -9.93056 2.25765 -10.8615Q3.37484 -11.7925 5.46956 -11.7925Q6.42383 -11.7925 7.4324 -11.649Q8.44097 -11.5055 9.51937 -11.2184ZM19.799 -8.4177L19.799 -6.15229Q19.2327 -6.5402 18.6625 -6.7264Q18.0922 -6.9126 17.4793 -6.9126Q16.3156 -6.9126 15.6678 -6.23375Q15.02 -5.5549 15.02 -4.33686Q15.02 -3.11881 15.6678 -2.43997Q16.3156 -1.76112 17.4793 -1.76112Q18.131 -1.76112 18.7168 -1.95508Q19.3025 -2.14903 19.799 -2.52919L19.799 -0.256022C19.3646 -0.095685 18.9237 0.0245678 18.4763 0.104736Q17.8052 0.224989 17.1302 0.224989Q14.7795 0.224989 13.4528 -0.981418Q12.1261 -2.18783 12.1261 -4.33686Q12.1261 -6.48589 13.4528 -7.6923Q14.7795 -8.89871 17.1302 -8.89871Q17.8129 -8.89871 18.4763 -8.77846Q19.1396 -8.6582 19.799 -8.4177ZM26.091 -3.91016Q25.2221 -3.91016 24.7837 -3.61534Q24.3454 -3.32053 24.3454 -2.74642Q24.3454 -2.21886 24.6984 -1.92017Q25.0514 -1.62147 25.6798 -1.62147Q26.4634 -1.62147 26.9987 -2.18395Q27.534 -2.74642 27.534 -3.59207L27.534 -3.91016L26.091 -3.91016ZM30.3347 -4.95752L30.3347 0L27.534 0L27.534 -1.28787Q26.9754 -0.496528 26.2772 -0.135769Q25.5789 0.224989 24.5781 0.224989Q23.2282 0.224989 22.3864 -0.562473Q21.5447 -1.34993 21.5447 -2.60677Q21.5447 -4.13515 22.5959 -4.8489Q23.6471 -5.56266 25.897 -5.56266L27.534 -5.56266L27.534 -5.77989Q27.534 -6.43934 27.0142 -6.7458Q26.4944 -7.05225 25.3927 -7.05225Q24.5005 -7.05225 23.7325 -6.87381Q22.9644 -6.69537 22.305 -6.33849L22.305 -8.45649Q23.1972 -8.67372 24.0971 -8.78621Q24.9971 -8.89871 25.897 -8.89871Q28.2478 -8.89871 29.2913 -7.9716Q30.3347 -7.04449 30.3347 -4.95752ZM35.9517 -11.1564L35.9517 -8.68924L38.8145 -8.68924L38.8145 -6.70313L35.9517 -6.70313L35.9517 -3.01796Q35.9517 -2.41281 36.1922 -2.19946Q36.4327 -1.98611 37.1465 -1.98611L38.574 -1.98611L38.574 0L36.1922 0Q34.5475 0 33.8609 -0.686605Q33.1743 -1.37321 33.1743 -3.01796L33.1743 -6.70313L31.7933 -6.70313L31.7933 -8.68924L33.1743 -8.68924L33.1743 -11.1564L35.9517 -11.1564ZM43.547 -11.1564L43.547 -8.68924L46.4098 -8.68924L46.4098 -6.70313L43.547 -6.70313L43.547 -3.01796Q43.547 -2.41281 43.7875 -2.19946Q44.028 -1.98611 44.7418 -1.98611L46.1693 -1.98611L46.1693 0L43.7875 0Q42.1428 0 41.4562 -0.686605Q40.7696 -1.37321 40.7696 -3.01796L40.7696 -6.70313L39.3886 -6.70313L39.3886 -8.68924L40.7696 -8.68924L40.7696 -11.1564L43.547 -11.1564ZM56.7826 -4.36789L56.7826 -3.57655L50.289 -3.57655Q50.3898 -2.59901 50.995 -2.11024Q51.6001 -1.62147 52.6863 -1.62147Q53.5629 -1.62147 54.4823 -1.88137Q55.4016 -2.14128 56.3714 -2.66884L56.3714 -0.527561Q55.3861 -0.155165 54.4008 0.0349121Q53.4155 0.224989 52.4302 0.224989Q50.0717 0.224989 48.7645 -0.97366Q47.4572 -2.17231 47.4572 -4.33686Q47.4572 -6.46262 48.7412 -7.68066Q50.0252 -8.89871 52.2751 -8.89871Q54.3232 -8.89871 55.5529 -7.66515Q56.7826 -6.43159 56.7826 -4.36789ZM53.9276 -5.29112Q53.9276 -6.08247 53.466 -6.56736Q53.0043 -7.05225 52.2595 -7.05225Q51.4527 -7.05225 50.9484 -6.59839Q50.4441 -6.14453 50.32 -5.29112L53.9276 -5.29112ZM65.34 -6.32297Q64.9753 -6.49365 64.6146 -6.57511Q64.2538 -6.65657 63.8892 -6.65658Q62.8185 -6.65657 62.2405 -5.96997Q61.6625 -5.28337 61.6625 -4.00326L61.6625 0L58.8851 0L58.8851 -8.68924L61.6625 -8.68924L61.6625 -7.26172Q62.1979 -8.11513 62.8922 -8.50692Q63.5866 -8.89871 64.5564 -8.89871Q64.696 -8.89871 64.8589 -8.88707Q65.0219 -8.87543 65.3322 -8.83664L65.34 -6.32297Z" fill="#262626" transform="translate(697.3399048911201,32) translate(-32.69325256347656,0)" />
<rect x="60" y="403.1111111111111" width="720" height="146.88888888888889" fill="#FFFFFF" />
<line x1="135.78947368421052" y1="549.6" x2="135.78947368421052" y2="554.8611111111111" stroke="#262626" stroke-width="1.1111111111111112" />
<path d="M4.74718 -8.7755L2.889 -3.73671L6.61214 -3.73671L4.74718 -8.7755ZM3.97407 -10.1251L5.52707 -10.1251L9.38585 0L7.9617 0L7.03939 -2.59739L2.47531 -2.59739L1.55301 0L0.108507 0L3.97407 -10.1251Z" fill="#262626" transform="translate(135.78947368421052,565) translate(-4.750569820404053,0)" />
<line x1="325.2631578947369" y1="549.6" x2="325.2631578947369" y2="554.8611111111111" stroke="#262626" stroke-width="1.1111111111111112" />
<path d="M2.73302 -4.83534L2.73302 -1.12576L4.93028 -1.12576Q6.0357 -1.12576 6.56806 -1.58352Q7.10042 -2.04129 7.10042 -2.98394Q7.10042 -3.93338 6.56806 -4.38436Q6.0357 -4.83534 4.93028 -4.83534L2.73302 -4.83534ZM2.73302 -8.9993L2.73302 -5.94754L4.76074 -5.94754Q5.76443 -5.94754 6.2561 -6.32392Q6.74778 -6.7003 6.74778 -7.47342Q6.74778 -8.23975 6.2561 -8.61952Q5.76443 -8.99929 4.76074 -8.9993L2.73302 -8.9993ZM1.36312 -10.1251L4.86247 -10.1251Q6.42904 -10.1251 7.27675 -9.47401Q8.12446 -8.82297 8.12446 -7.62261Q8.12446 -6.69352 7.69043 -6.14421Q7.2564 -5.59489 6.41547 -5.45926Q7.42594 -5.24224 7.98543 -4.5539Q8.54492 -3.86556 8.54492 -2.83474Q8.54492 -1.47841 7.62261 -0.739204Q6.7003 0 4.9981 0L1.36312 0L1.36312 -10.1251Z" fill="#262626" transform="translate(325.2631578947369,565) translate(-4.764132976531982,0)" />
<line x1="514.7368421052632" y1="549.6" x2="514.7368421052632" y2="554.8611111111111" stroke="#262626" stroke-width="1.1111111111111112" />
<path d="M8.94504 -9.34516L8.94504 -7.90066Q8.25331 -8.54492 7.47003 -8.86366Q6.68674 -9.1824 5.80512 -9.1824Q4.06901 -9.1824 3.1467 -8.12107Q2.22439 -7.05973 2.22439 -5.05235Q2.22439 -3.05176 3.1467 -1.99042Q4.06901 -0.929091 5.80512 -0.929091Q6.68674 -0.929091 7.47003 -1.24783Q8.25331 -1.56657 8.94504 -2.21083L8.94504 -0.779894Q8.22618 -0.291612 7.42255 -0.0474718Q6.61892 0.196669 5.72374 0.196669Q3.42475 0.196669 2.10232 -1.21053Q0.779894 -2.61773 0.779894 -5.05235Q0.779894 -7.49376 2.10232 -8.90096Q3.42475 -10.3082 5.72374 -10.3082Q6.63249 -10.3082 7.43612 -10.0674Q8.23975 -9.82666 8.94504 -9.34516Z" fill="#262626" transform="translate(514.7368421052632,565) translate(-4.848904132843018,0)" />
<line x1="704.2105263157896" y1="549.6" x2="704.2105263157896" y2="554.8611111111111" stroke="#262626" stroke-width="1.1111111111111112" />
<path d="M2.73302 -8.9993L2.73302 -1.12576L4.38775 -1.12576Q6.48329 -1.12576 7.45646 -2.0752Q8.42963 -3.02463 8.42963 -5.0727Q8.42963 -7.1072 7.45646 -8.05325Q6.48329 -8.9993 4.38775 -8.9993L2.73302 -8.9993ZM1.36312 -10.1251L4.17752 -10.1251Q7.12077 -10.1251 8.49745 -8.90096Q9.87413 -7.67687 9.87413 -5.0727Q9.87413 -2.45497 8.49067 -1.22748Q7.1072 0 4.17752 0L1.36312 0L1.36312 -10.1251Z" fill="#262626" transform="translate(704.2105263157896,565) translate(-5.347358226776123,0)" />
<line x1="55.138888888888886" y1="550" x2="60.4" y2="550" stroke="#262626" stroke-width="1.1111111111111112" />
<path d="M4.41488 -9.22309Q3.35693 -9.22309 2.82457 -8.1821Q2.29221 -7.14111 2.29221 -5.05235Q2.29221 -2.97038 2.82457 -1.92939Q3.35693 -0.888401 4.41488 -0.888401Q5.4796 -0.888401 6.01196 -1.92939Q6.54433 -2.97038 6.54433 -5.05235Q6.54433 -7.14111 6.01196 -8.1821Q5.4796 -9.22309 4.41488 -9.22309ZM4.41488 -10.3082Q6.11708 -10.3082 7.01565 -8.962Q7.91422 -7.61583 7.91423 -5.05235Q7.91423 -2.49566 7.01565 -1.1495Q6.11708 0.196669 4.41488 0.196669Q2.71267 0.196669 1.8141 -1.1495Q0.915527 -2.49566 0.915527 -5.05235Q0.915527 -7.61583 1.8141 -8.962Q2.71267 -10.3082 4.41488 -10.3082Z" fill="#262626" transform="translate(50.27777777777777,554) translate(-8.83653450012207,0)" />
<line x1="55.138888888888886" y1="516.6918619299572" x2="60.4" y2="516.6918619299572" stroke="#262626" stroke-width="1.1111111111111112" />
<path d="M1.72255 -1.15289L3.9605 -1.15289L3.9605 -8.87722L1.52588 -8.38894L1.52588 -9.63677L3.94694 -10.1251L5.31684 -10.1251L5.31684 -1.15289L7.5548 -1.15289L7.5548 0L1.72255 0L1.72255 -1.15289ZM13.2514 -9.22309Q12.1935 -9.22309 11.6611 -8.1821Q11.1287 -7.14111 11.1287 -5.05235Q11.1287 -2.97038 11.6611 -1.92939Q12.1935 -0.888401 13.2514 -0.888401Q14.3161 -0.888401 14.8485 -1.92939Q15.3809 -2.97038 15.3809 -5.05235Q15.3809 -7.14111 14.8485 -8.1821Q14.3161 -9.22309 13.2514 -9.22309ZM13.2514 -10.3082Q14.9536 -10.3082 15.8522 -8.962Q16.7508 -7.61583 16.7508 -5.05235Q16.7508 -2.49566 15.8522 -1.1495Q14.9536 0.196669 13.2514 0.196669Q11.5492 0.196669 10.6506 -1.1495Q9.75206 -2.49566 9.75206 -5.05235Q9.75206 -7.61583 10.6506 -8.962Q11.5492 -10.3082 13.2514 -10.3082Z" fill="#262626" transform="translate(50.27777777777777,520.6918619299572) translate(-17.67306900024414,0)" />
<line x1="55.138888888888886" y1="483.3837238599143" x2="60.4" y2="483.3837238599143" stroke="#262626" stroke-width="1.1111111111111112" />
<path d="M2.6652 -1.15289L7.44629 -1.15289L7.44629 0L1.01725 0L1.01725 -1.15289Q1.79715 -1.95991 3.14331 -3.31963Q4.48947 -4.67936 4.83534 -5.0727Q5.49316 -5.8119 5.75426 -6.32392Q6.01535 -6.83594 6.01535 -7.331Q6.01535 -8.13802 5.44908 -8.64665Q4.88281 -9.15527 3.97407 -9.15527Q3.32981 -9.15527 2.61434 -8.93148Q1.89887 -8.70768 1.08507 -8.25331L1.08507 -9.63677Q1.91243 -9.96908 2.63129 -10.1386Q3.35015 -10.3082 3.94694 -10.3082Q5.52029 -10.3082 6.45616 -9.52148Q7.39204 -8.73481 7.39204 -7.41916Q7.39204 -6.79525 7.15807 -6.23576Q6.9241 -5.67627 6.30697 -4.91672Q6.13742 -4.72005 5.22868 -3.78079Q4.31993 -2.84153 2.6652 -1.15289ZM13.2514 -9.22309Q12.1935 -9.22309 11.6611 -8.1821Q11.1287 -7.14111 11.1287 -5.05235Q11.1287 -2.97038 11.6611 -1.92939Q12.1935 -0.888401 13.2514 -0.888401Q14.3161 -0.888401 14.8485 -1.92939Q15.3809 -2.97038 15.3809 -5.05235Q15.3809 -7.14111 14.8485 -8.1821Q14.3161 -9.22309 13.2514 -9.22309ZM13.2514 -10.3082Q14.9536 -10.3082 15.8522 -8.962Q16.7508 -7.61583 16.7508 -5.05235Q16.7508 -2.49566 15.8522 -1.1495Q14.9536 0.196669 13.2514 0.196669Q11.5492 0.196669 10.6506 -1.1495Q9.75206 -2.49566 9.75206 -5.05235Q9.75206 -7.61583 10.6506 -8.962Q11.5492 -10.3082 13.2514 -10.3082Z" fill="#262626" transform="translate(50.27777777777777,487.3837238599143) translate(-17.67306900024414,0)" />
<line x1="55.138888888888886" y1="450.0755857898715" x2="60.4" y2="450.0755857898715" stroke="#262626" stroke-width="1.1111111111111112" />
<path d="M5.63558 -5.45926Q6.61892 -5.24902 7.17163 -4.58442Q7.72434 -3.91981 7.72434 -2.94325Q7.72434 -1.4445 6.69352 -0.623915Q5.66271 0.196669 3.76383 0.196669Q3.12636 0.196669 2.45158 0.0712077Q1.7768 -0.0542535 1.05794 -0.305176L1.05794 -1.6276Q1.6276 -1.2953 2.30577 -1.12576Q2.98394 -0.956217 3.72314 -0.956217Q5.01166 -0.956217 5.68644 -1.46484Q6.36122 -1.97347 6.36122 -2.94325Q6.36122 -3.83843 5.73391 -4.34367Q5.10661 -4.8489 3.98763 -4.8489L2.80762 -4.8489L2.80762 -5.97466L4.04188 -5.97466Q5.05235 -5.97466 5.58811 -6.37817Q6.12386 -6.78168 6.12386 -7.54123Q6.12386 -8.32113 5.57115 -8.7382Q5.01845 -9.15527 3.98763 -9.15527Q3.42475 -9.15527 2.78049 -9.0332Q2.13623 -8.91113 1.36312 -8.65343L1.36312 -9.87413Q2.14301 -10.0911 2.82457 -10.1997Q3.50613 -10.3082 4.1097 -10.3082Q5.66949 -10.3082 6.57823 -9.59947Q7.48698 -8.89079 7.48698 -7.68365Q7.48698 -6.84272 7.00548 -6.26289Q6.52398 -5.68305 5.63558 -5.45926ZM13.2514 -9.22309Q12.1935 -9.22309 11.6611 -8.1821Q11.1287 -7.14111 11.1287 -5.05235Q11.1287 -2.97038 11.6611 -1.92939Q12.1935 -0.888401 13.2514 -0.888401Q14.3161 -0.888401 14.8485 -1.92939Q15.3809 -2.97038 15.3809 -5.05235Q15.3809 -7.14111 14.8485 -8.1821Q14.3161 -9.22309 13.2514 -9.22309ZM13.2514 -10.3082Q14.9536 -10.3082 15.8522 -8.962Q16.7508 -7.61583 16.7508 -5.05235Q16.7508 -2.49566 15.8522 -1.1495Q14.9536 0.196669 13.2514 0.196669Q11.5492 0.196669 10.6506 -1.1495Q9.75206 -2.49566 9.75206 -5.05235Q9.75206 -7.61583 10.6506 -8.962Q11.5492 -10.3082 13.2514 -10.3082Z" fill="#262626" transform="translate(50.27777777777777,454.0755857898715) translate(-17.67306900024414,0)" />
<line x1="55.138888888888886" y1="416.7674477198287" x2="60.4" y2="416.7674477198287" stroke="#262626" stroke-width="1.1111111111111112" />
<path d="M5.24902 -8.93148L1.79036 -3.52648L5.24902 -3.52648L5.24902 -8.93148ZM4.88959 -10.1251L6.61214 -10.1251L6.61214 -3.52648L8.05664 -3.52648L8.05664 -2.38715L6.61214 -2.38715L6.61214 0L5.24902 0L5.24902 -2.38715L0.678168 -2.38715L0.678168 -3.70958L4.88959 -10.1251ZM13.2514 -9.22309Q12.1935 -9.22309 11.6611 -8.1821Q11.1287 -7.14111 11.1287 -5.05235Q11.1287 -2.97038 11.6611 -1.92939Q12.1935 -0.888401 13.2514 -0.888401Q14.3161 -0.888401 14.8485 -1.92939Q15.3809 -2.97038 15.3809 -5.05235Q15.3809 -7.14111 14.8485 -8.1821Q14.3161 -9.22309 13.2514 -9.22309ZM13.2514 -10.3082Q14.9536 -10.3082 15.8522 -8.962Q16.7508 -7.61583 16.7508 -5.05235Q16.7508 -2.49566 15.8522 -1.1495Q14.9536 0.196669 13.2514 0.196669Q11.5492 0.196669 10.6506 -1.1495Q9.75206 -2.49566 9.75206 -5.05235Q9.75206 -7.61583 10.6506 -8.962Q11.5492 -10.3082 13.2514 -10.3082Z" fill="#262626" transform="translate(50.27777777777777,420.7674477198287) translate(-17.67306900024414,0)" />
<rect x="60" y="500.03779289493576" width="151.57894736842107" height="49.96220710506424" fill="#1F77B4" />
<rect x="249.47368421052636" y="410.1058201058201" width="151.57894736842104" height="139.8941798941799" fill="#1F77B4" />
<rect x="438.9473684210527" y="456.7372134038801" width="151.57894736842104" height="93.2627865961199" fill="#1F77B4" />
<rect x="628.4210526315791" y="426.75988914084155" width="151.57894736842104" height="123.24011085915845" fill="#1F77B4" />
<g class="spine">
<line x1="60" y1="550" x2="780" y2="550" stroke="#262626" stroke-width="0.8" />
</g>
<g class="spine">
<line x1="60" y1="403.1111111111111" x2="780" y2="403.1111111111111" stroke="#262626" stroke-width="0.8" />
</g>
<g class="spine">
<line x1="60" y1="403.1111111111111" x2="60" y2="550" stroke="#262626" stroke-width="0.8" />
</g>
<g class="spine">
<line x1="780" y1="403.1111111111111" x2="780" y2="550" stroke="#262626" stroke-width="0.8" />
</g>
<path d="M0.473253 -11.5831L3.33605 -11.5831L5.33767 -3.16536L7.32378 -11.5831L10.2021 -11.5831L12.1882 -3.16536L14.1898 -11.5831L17.0294 -11.5831L14.2984 0L10.8538 0L8.7513 -8.80561L6.67209 0L3.22743 0L0.473253 -11.5831ZM18.8603 -8.68924L21.6377 -8.68924L21.6377 0L18.8603 0L18.8603 -8.68924ZM18.8603 -12.0718L21.6377 -12.0718L21.6377 -9.80642L18.8603 -9.80642L18.8603 -12.0718ZM30.2184 -7.41688L30.2184 -12.0718L33.0113 -12.0718L33.0113 0L30.2184 0L30.2184 -1.25684Q29.6443 -0.48877 28.9538 -0.13189Q28.2633 0.224989 27.3556 0.224989Q25.7496 0.224989 24.7178 -1.05124Q23.6859 -2.32747 23.6859 -4.33686Q23.6859 -6.34625 24.7178 -7.62248Q25.7496 -8.89871 27.3556 -8.89871Q28.2555 -8.89871 28.9499 -8.53795Q29.6443 -8.17719 30.2184 -7.41688ZM28.3874 -1.79216Q29.2796 -1.79215 29.749 -2.44385Q30.2184 -3.09554 30.2184 -4.33686Q30.2184 -5.57818 29.749 -6.22987Q29.2796 -6.88156 28.3874 -6.88156Q27.503 -6.88156 27.0336 -6.22987Q26.5642 -5.57818 26.5642 -4.33686Q26.5642 -3.09554 27.0336 -2.44385Q27.503 -1.79216 28.3874 -1.79216ZM44.3539 -4.36789L44.3539 -3.57655L37.8602 -3.57655Q37.9611 -2.59901 38.5662 -2.11024Q39.1714 -1.62147 40.2575 -1.62147Q41.1342 -1.62147 42.0536 -1.88137Q42.9729 -2.14128 43.9427 -2.66884L43.9427 -0.527561Q42.9574 -0.155165 41.9721 0.0349121Q40.9868 0.224989 40.0015 0.224989Q37.643 0.224989 36.3357 -0.97366Q35.0285 -2.17231 35.0285 -4.33686Q35.0285 -6.46262 36.3125 -7.68066Q37.5965 -8.89871 39.8464 -8.89871Q41.8945 -8.89871 43.1242 -7.66515Q44.3539 -6.43159 44.3539 -4.36789ZM41.4989 -5.29112Q41.4989 -6.08247 41.0372 -6.56736Q40.5756 -7.05225 39.8308 -7.05225Q39.024 -7.05225 38.5197 -6.59839Q38.0154 -6.14453 37.8913 -5.29112L41.4989 -5.29112ZM56.6119 -1.79216Q57.5041 -1.79215 57.9735 -2.44385Q58.4429 -3.09554 58.4429 -4.33686Q58.4429 -5.57818 57.9735 -6.22987Q57.5041 -6.88156 56.6119 -6.88156Q55.7197 -6.88156 55.2426 -6.22599Q54.7655 -5.57042 54.7655 -4.33686Q54.7655 -3.1033 55.2426 -2.44773Q55.7197 -1.79215 56.6119 -1.79216ZM54.7655 -7.41688Q55.3396 -8.17719 56.0378 -8.53795Q56.7361 -8.89871 57.6438 -8.89871Q59.2497 -8.89871 60.2816 -7.62248Q61.3134 -6.34625 61.3134 -4.33686Q61.3134 -2.32747 60.2816 -1.05124Q59.2497 0.224989 57.6438 0.224989Q56.7361 0.224989 56.0378 -0.135769Q55.3396 -0.496528 54.7655 -1.25684L54.7655 0L51.988 0L51.988 -12.0718L54.7655 -12.0718L54.7655 -7.41688ZM67.2562 -3.91016Q66.3873 -3.91016 65.949 -3.61534Q65.5106 -3.32053 65.5106 -2.74642Q65.5106 -2.21886 65.8636 -1.92017Q66.2166 -1.62147 66.8451 -1.62147Q67.6286 -1.62147 68.164 -2.18395Q68.6993 -2.74642 68.6993 -3.59207L68.6993 -3.91016L67.2562 -3.91016ZM71.5 -4.95752L71.5 0L68.6993 0L68.6993 -1.28787Q68.1407 -0.496528 67.4424 -0.135769Q66.7442 0.224989 65.7434 0.224989Q64.3934 0.224989 63.5517 -0.562473Q62.7099 -1.34993 62.7099 -2.60677Q62.7099 -4.13515 63.7612 -4.8489Q64.8124 -5.56266 67.0623 -5.56266L68.6993 -5.56266L68.6993 -5.77989Q68.6993 -6.43934 68.1795 -6.7458Q67.6597 -7.05225 66.558 -7.05225Q65.6658 -7.05225 64.8977 -6.87381Q64.1297 -6.69537 63.4702 -6.33849L63.4702 -8.45649Q64.3624 -8.67372 65.2624 -8.78621Q66.1623 -8.89871 67.0623 -8.89871Q69.413 -8.89871 70.4565 -7.9716Q71.5 -7.04449 71.5 -4.95752ZM80.5384 -6.32297Q80.1737 -6.49365 79.813 -6.57511Q79.4522 -6.65657 79.0876 -6.65658Q78.0169 -6.65657 77.4389 -5.96997Q76.861 -5.28337 76.861 -4.00326L76.861 0L74.0835 0L74.0835 -8.68924L76.861 -8.68924L76.861 -7.26172Q77.3963 -8.11513 78.0906 -8.50692Q78.785 -8.89871 79.7548 -8.89871Q79.8944 -8.89871 80.0574 -8.88707Q80.2203 -8.87543 80.5306 -8.83664L80.5384 -6.32297Z" fill="#262626" transform="translate(420,395.1111111111111) translate(-40.292457580566406,0)" />
</svg>
