<svg xmlns="http://www.w3.org/2000/svg" viewBox="0 0 800 600" width="800" height="600" role="img" aria-labelledby="chart-title">
<title id="chart-title"></title>
<rect x="0" y="0" width="800" height="600" fill="#FFFFFF" />
<rect x="100" y="72" width="435" height="281.3333333333333" fill="#FFFFFF" />
<line x1="119.77272727272728" y1="352.93333333333334" x2="119.77272727272728" y2="358.1944444444444" stroke="#262626" stroke-width="1.1111111111111112" />
<text x="119.77272727272728" y="376.9444444444444" font-family="DejaVu Sans, sans-serif" font-size="13.88888888888889" text-anchor="middle" fill="#262626">1</text>
<line x1="163.71212121212122" y1="352.93333333333334" x2="163.71212121212122" y2="358.1944444444444" stroke="#262626" stroke-width="1.1111111111111112" />
<text x="163.71212121212122" y="376.9444444444444" font-family="DejaVu Sans, sans-serif" font-size="13.88888888888889" text-anchor="middle" fill="#262626">2</text>
<line x1="207.65151515151518" y1="352.93333333333334" x2="207.65151515151518" y2="358.1944444444444" stroke="#262626" stroke-width="1.1111111111111112" />
<text x="207.65151515151518" y="376.9444444444444" font-family="DejaVu Sans, sans-serif" font-size="13.88888888888889" text-anchor="middle" fill="#262626">3</text>
<line x1="251.59090909090912" y1="352.93333333333334" x2="251.59090909090912" y2="358.1944444444444" stroke="#262626" stroke-width="1.1111111111111112" />
<text x="251.59090909090912" y="376.9444444444444" font-family="DejaVu Sans, sans-serif" font-size="13.88888888888889" text-anchor="middle" fill="#262626">4</text>
<line x1="295.53030303030306" y1="352.93333333333334" x2="295.53030303030306" y2="358.1944444444444" stroke="#262626" stroke-width="1.1111111111111112" />
<text x="295.53030303030306" y="376.9444444444444" font-family="DejaVu Sans, sans-serif" font-size="13.88888888888889" text-anchor="middle" fill="#262626">5</text>
<line x1="339.469696969697" y1="352.93333333333334" x2="339.469696969697" y2="358.1944444444444" stroke="#262626" stroke-width="1.1111111111111112" />
<text x="339.469696969697" y="376.9444444444444" font-family="DejaVu Sans, sans-serif" font-size="13.88888888888889" text-anchor="middle" fill="#262626">6</text>
<line x1="383.40909090909093" y1="352.93333333333334" x2="383.40909090909093" y2="358.1944444444444" stroke="#262626" stroke-width="1.1111111111111112" />
<text x="383.40909090909093" y="376.9444444444444" font-family="DejaVu Sans, sans-serif" font-size="13.88888888888889" text-anchor="middle" fill="#262626">7</text>
<line x1="427.3484848484849" y1="352.93333333333334" x2="427.3484848484849" y2="358.1944444444444" stroke="#262626" stroke-width="1.1111111111111112" />
<text x="427.3484848484849" y="376.9444444444444" font-family="DejaVu Sans, sans-serif" font-size="13.88888888888889" text-anchor="middle" fill="#262626">8</text>
<line x1="471.2878787878788" y1="352.93333333333334" x2="471.2878787878788" y2="358.1944444444444" stroke="#262626" stroke-width="1.1111111111111112" />
<text x="471.2878787878788" y="376.9444444444444" font-family="DejaVu Sans, sans-serif" font-size="13.88888888888889" text-anchor="middle" fill="#262626">9</text>
<line x1="515.2272727272727" y1="352.93333333333334" x2="515.2272727272727" y2="358.1944444444444" stroke="#262626" stroke-width="1.1111111111111112" />
<text x="515.2272727272727" y="376.9444444444444" font-family="DejaVu Sans, sans-serif" font-size="13.88888888888889" text-anchor="middle" fill="#262626">10</text>
<line x1="102.19696969696969" y1="352.93333333333334" x2="102.19696969696969" y2="358.1944444444444" stroke="#262626" stroke-width="1.1111111111111112" />
<line x1="110.98484848484848" y1="352.93333333333334" x2="110.98484848484848" y2="358.1944444444444" stroke="#262626" stroke-width="1.1111111111111112" />
<line x1="128.56060606060606" y1="352.93333333333334" x2="128.56060606060606" y2="358.1944444444444" stroke="#262626" stroke-width="1.1111111111111112" />
<line x1="137.34848484848484" y1="352.93333333333334" x2="137.34848484848484" y2="358.1944444444444" stroke="#262626" stroke-width="1.1111111111111112" />
<line x1="146.13636363636363" y1="352.93333333333334" x2="146.13636363636363" y2="358.1944444444444" stroke="#262626" stroke-width="1.1111111111111112" />
<line x1="154.92424242424244" y1="352.93333333333334" x2="154.92424242424244" y2="358.1944444444444" stroke="#262626" stroke-width="1.1111111111111112" />
<line x1="172.5" y1="352.93333333333334" x2="172.5" y2="358.1944444444444" stroke="#262626" stroke-width="1.1111111111111112" />
<line x1="181.2878787878788" y1="352.93333333333334" x2="181.2878787878788" y2="358.1944444444444" stroke="#262626" stroke-width="1.1111111111111112" />
<line x1="190.0757575757576" y1="352.93333333333334" x2="190.0757575757576" y2="358.1944444444444" stroke="#262626" stroke-width="1.1111111111111112" />
<line x1="198.86363636363637" y1="352.93333333333334" x2="198.86363636363637" y2="358.1944444444444" stroke="#262626" stroke-width="1.1111111111111112" />
<line x1="216.43939393939394" y1="352.93333333333334" x2="216.43939393939394" y2="358.1944444444444" stroke="#262626" stroke-width="1.1111111111111112" />
<line x1="225.22727272727275" y1="352.93333333333334" x2="225.22727272727275" y2="358.1944444444444" stroke="#262626" stroke-width="1.1111111111111112" />
<line x1="234.01515151515156" y1="352.93333333333334" x2="234.01515151515156" y2="358.1944444444444" stroke="#262626" stroke-width="1.1111111111111112" />
<line x1="242.8030303030303" y1="352.93333333333334" x2="242.8030303030303" y2="358.1944444444444" stroke="#262626" stroke-width="1.1111111111111112" />
<line x1="260.37878787878793" y1="352.93333333333334" x2="260.37878787878793" y2="358.1944444444444" stroke="#262626" stroke-width="1.1111111111111112" />
<line x1="269.1666666666667" y1="352.93333333333334" x2="269.1666666666667" y2="358.1944444444444" stroke="#262626" stroke-width="1.1111111111111112" />
<line x1="277.95454545454544" y1="352.93333333333334" x2="277.95454545454544" y2="358.1944444444444" stroke="#262626" stroke-width="1.1111111111111112" />
<line x1="286.74242424242425" y1="352.93333333333334" x2="286.74242424242425" y2="358.1944444444444" stroke="#262626" stroke-width="1.1111111111111112" />
<line x1="304.31818181818187" y1="352.93333333333334" x2="304.31818181818187" y2="358.1944444444444" stroke="#262626" stroke-width="1.1111111111111112" />
<line x1="313.1060606060606" y1="352.93333333333334" x2="313.1060606060606" y2="358.1944444444444" stroke="#262626" stroke-width="1.1111111111111112" />
<line x1="321.8939393939394" y1="352.93333333333334" x2="321.8939393939394" y2="358.1944444444444" stroke="#262626" stroke-width="1.1111111111111112" />
<line x1="330.6818181818182" y1="352.93333333333334" x2="330.6818181818182" y2="358.1944444444444" stroke="#262626" stroke-width="1.1111111111111112" />
<line x1="348.2575757575758" y1="352.93333333333334" x2="348.2575757575758" y2="358.1944444444444" stroke="#262626" stroke-width="1.1111111111111112" />
<line x1="357.04545454545456" y1="352.93333333333334" x2="357.04545454545456" y2="358.1944444444444" stroke="#262626" stroke-width="1.1111111111111112" />
<line x1="365.8333333333333" y1="352.93333333333334" x2="365.8333333333333" y2="358.1944444444444" stroke="#262626" stroke-width="1.1111111111111112" />
<line x1="374.6212121212121" y1="352.93333333333334" x2="374.6212121212121" y2="358.1944444444444" stroke="#262626" stroke-width="1.1111111111111112" />
<line x1="392.19696969696975" y1="352.93333333333334" x2="392.19696969696975" y2="358.1944444444444" stroke="#262626" stroke-width="1.1111111111111112" />
<line x1="400.9848484848485" y1="352.93333333333334" x2="400.9848484848485" y2="358.1944444444444" stroke="#262626" stroke-width="1.1111111111111112" />
<line x1="409.77272727272725" y1="352.93333333333334" x2="409.77272727272725" y2="358.1944444444444" stroke="#262626" stroke-width="1.1111111111111112" />
<line x1="418.56060606060606" y1="352.93333333333334" x2="418.56060606060606" y2="358.1944444444444" stroke="#262626" stroke-width="1.1111111111111112" />
<line x1="436.1363636363636" y1="352.93333333333334" x2="436.1363636363636" y2="358.1944444444444" stroke="#262626" stroke-width="1.1111111111111112" />
<line x1="444.9242424242425" y1="352.93333333333334" x2="444.9242424242425" y2="358.1944444444444" stroke="#262626" stroke-width="1.1111111111111112" />
<line x1="453.71212121212125" y1="352.93333333333334" x2="453.71212121212125" y2="358.1944444444444" stroke="#262626" stroke-width="1.1111111111111112" />
<line x1="462.50000000000006" y1="352.93333333333334" x2="462.50000000000006" y2="358.1944444444444" stroke="#262626" stroke-width="1.1111111111111112" />
<line x1="480.07575757575756" y1="352.93333333333334" x2="480.07575757575756" y2="358.1944444444444" stroke="#262626" stroke-width="1.1111111111111112" />
<line x1="488.86363636363643" y1="352.93333333333334" x2="488.86363636363643" y2="358.1944444444444" stroke="#262626" stroke-width="1.1111111111111112" />
<line x1="497.6515151515152" y1="352.93333333333334" x2="497.6515151515152" y2="358.1944444444444" stroke="#262626" stroke-width="1.1111111111111112" />
<line x1="506.439393939394" y1="352.93333333333334" x2="506.439393939394" y2="358.1944444444444" stroke="#262626" stroke-width="1.1111111111111112" />
<line x1="524.0151515151515" y1="352.93333333333334" x2="524.0151515151515" y2="358.1944444444444" stroke="#262626" stroke-width="1.1111111111111112" />
<line x1="532.8030303030304" y1="352.93333333333334" x2="532.8030303030304" y2="358.1944444444444" stroke="#262626" stroke-width="1.1111111111111112" />
<line x1="95.13888888888889" y1="344.0489829804898" x2="100.4" y2="344.0489829804898" stroke="#262626" stroke-width="1.1111111111111112" />
<text x="90.27777777777777" y="348.0489829804898" font-family="DejaVu Sans, sans-serif" font-size="13.88888888888889" text-anchor="end" fill="#262626">2</text>
<line x1="95.13888888888889" y1="309.013698630137" x2="100.4" y2="309.013698630137" stroke="#262626" stroke-width="1.1111111111111112" />
<text x="90.27777777777777" y="313.013698630137" font-family="DejaVu Sans, sans-serif" font-size="13.88888888888889" text-anchor="end" fill="#262626">3</text>
<line x1="95.13888888888889" y1="273.97841427978415" x2="100.4" y2="273.97841427978415" stroke="#262626" stroke-width="1.1111111111111112" />
<text x="90.27777777777777" y="277.97841427978415" font-family="DejaVu Sans, sans-serif" font-size="13.88888888888889" text-anchor="end" fill="#262626">4</text>
<line x1="95.13888888888889" y1="238.9431299294313" x2="100.4" y2="238.9431299294313" stroke="#262626" stroke-width="1.1111111111111112" />
<text x="90.27777777777777" y="242.9431299294313" font-family="DejaVu Sans, sans-serif" font-size="13.88888888888889" text-anchor="end" fill="#262626">5</text>
<line x1="95.13888888888889" y1="203.90784557907847" x2="100.4" y2="203.90784557907847" stroke="#262626" stroke-width="1.1111111111111112" />
<text x="90.27777777777777" y="207.90784557907847" font-family="DejaVu Sans, sans-serif" font-size="13.88888888888889" text-anchor="end" fill="#262626">6</text>
<line x1="95.13888888888889" y1="168.87256122872563" x2="100.4" y2="168.87256122872563" stroke="#262626" stroke-width="1.1111111111111112" />
<text x="90.27777777777777" y="172.87256122872563" font-family="DejaVu Sans, sans-serif" font-size="13.88888888888889" text-anchor="end" fill="#262626">7</text>
<line x1="95.13888888888889" y1="133.8372768783728" x2="100.4" y2="133.8372768783728" stroke="#262626" stroke-width="1.1111111111111112" />
<text x="90.27777777777777" y="137.8372768783728" font-family="DejaVu Sans, sans-serif" font-size="13.88888888888889" text-anchor="end" fill="#262626">8</text>
<line x1="95.13888888888889" y1="98.80199252801992" x2="100.4" y2="98.80199252801992" stroke="#262626" stroke-width="1.1111111111111112" />
<text x="90.27777777777777" y="102.80199252801992" font-family="DejaVu Sans, sans-serif" font-size="13.88888888888889" text-anchor="end" fill="#262626">9</text>
<line x1="95.13888888888889" y1="351.0560398505604" x2="100.4" y2="351.0560398505604" stroke="#262626" stroke-width="1.1111111111111112" />
<line x1="95.13888888888889" y1="337.04192611041924" x2="100.4" y2="337.04192611041924" stroke="#262626" stroke-width="1.1111111111111112" />
<line x1="95.13888888888889" y1="330.0348692403487" x2="100.4" y2="330.0348692403487" stroke="#262626" stroke-width="1.1111111111111112" />
<line x1="95.13888888888889" y1="323.0278123702781" x2="100.4" y2="323.0278123702781" stroke="#262626" stroke-width="1.1111111111111112" />
<line x1="95.13888888888889" y1="316.02075550020754" x2="100.4" y2="316.02075550020754" stroke="#262626" stroke-width="1.1111111111111112" />
<line x1="95.13888888888889" y1="302.00664176006643" x2="100.4" y2="302.00664176006643" stroke="#262626" stroke-width="1.1111111111111112" />
<line x1="95.13888888888889" y1="294.99958488999584" x2="100.4" y2="294.99958488999584" stroke="#262626" stroke-width="1.1111111111111112" />
<line x1="95.13888888888889" y1="287.99252801992526" x2="100.4" y2="287.99252801992526" stroke="#262626" stroke-width="1.1111111111111112" />
<line x1="95.13888888888889" y1="280.98547114985473" x2="100.4" y2="280.98547114985473" stroke="#262626" stroke-width="1.1111111111111112" />
<line x1="95.13888888888889" y1="266.97135740971356" x2="100.4" y2="266.97135740971356" stroke="#262626" stroke-width="1.1111111111111112" />
<line x1="95.13888888888889" y1="259.964300539643" x2="100.4" y2="259.964300539643" stroke="#262626" stroke-width="1.1111111111111112" />
<line x1="95.13888888888889" y1="252.95724366957245" x2="100.4" y2="252.95724366957245" stroke="#262626" stroke-width="1.1111111111111112" />
<line x1="95.13888888888889" y1="245.9501867995019" x2="100.4" y2="245.9501867995019" stroke="#262626" stroke-width="1.1111111111111112" />
<line x1="95.13888888888889" y1="231.93607305936072" x2="100.4" y2="231.93607305936072" stroke="#262626" stroke-width="1.1111111111111112" />
<line x1="95.13888888888889" y1="224.92901618929017" x2="100.4" y2="224.92901618929017" stroke="#262626" stroke-width="1.1111111111111112" />
<line x1="95.13888888888889" y1="217.9219593192196" x2="100.4" y2="217.9219593192196" stroke="#262626" stroke-width="1.1111111111111112" />
<line x1="95.13888888888889" y1="210.91490244914905" x2="100.4" y2="210.91490244914905" stroke="#262626" stroke-width="1.1111111111111112" />
<line x1="95.13888888888889" y1="196.90078870900788" x2="100.4" y2="196.90078870900788" stroke="#262626" stroke-width="1.1111111111111112" />
<line x1="95.13888888888889" y1="189.89373183893733" x2="100.4" y2="189.89373183893733" stroke="#262626" stroke-width="1.1111111111111112" />
<line x1="95.13888888888889" y1="182.88667496886677" x2="100.4" y2="182.88667496886677" stroke="#262626" stroke-width="1.1111111111111112" />
<line x1="95.13888888888889" y1="175.87961809879621" x2="100.4" y2="175.87961809879621" stroke="#262626" stroke-width="1.1111111111111112" />
<line x1="95.13888888888889" y1="161.86550435865504" x2="100.4" y2="161.86550435865504" stroke="#262626" stroke-width="1.1111111111111112" />
<line x1="95.13888888888889" y1="154.8584474885845" x2="100.4" y2="154.8584474885845" stroke="#262626" stroke-width="1.1111111111111112" />
<line x1="95.13888888888889" y1="147.85139061851396" x2="100.4" y2="147.85139061851396" stroke="#262626" stroke-width="1.1111111111111112" />
<line x1="95.13888888888889" y1="140.84433374844338" x2="100.4" y2="140.84433374844338" stroke="#262626" stroke-width="1.1111111111111112" />
<line x1="95.13888888888889" y1="126.83022000830226" x2="100.4" y2="126.83022000830226" stroke="#262626" stroke-width="1.1111111111111112" />
<line x1="95.13888888888889" y1="119.82316313823162" x2="100.4" y2="119.82316313823162" stroke="#262626" stroke-width="1.1111111111111112" />
<line x1="95.13888888888889" y1="112.81610626816109" x2="100.4" y2="112.81610626816109" stroke="#262626" stroke-width="1.1111111111111112" />
<line x1="95.13888888888889" y1="105.80904939809051" x2="100.4" y2="105.80904939809051" stroke="#262626" stroke-width="1.1111111111111112" />
<line x1="95.13888888888889" y1="91.7949356579494" x2="100.4" y2="91.7949356579494" stroke="#262626" stroke-width="1.1111111111111112" />
<line x1="95.13888888888889" y1="84.78787878787881" x2="100.4" y2="84.78787878787881" stroke="#262626" stroke-width="1.1111111111111112" />
<line x1="95.13888888888889" y1="77.78082191780828" x2="100.4" y2="77.78082191780828" stroke="#262626" stroke-width="1.1111111111111112" />
<polyline points="119.77272727272728,340.54545454545456 163.71212121212122,256.4607721046077 207.65151515151516,302.00664176006643 251.59090909090912,175.87961809879621 295.53030303030306,235.43960149439604 339.469696969697,158.36197592361978 383.40909090909093,186.39020340390204 427.3484848484849,102.30552096305523 471.2878787878788,161.86550435865504 515.2272727272727,84.78787878787881" fill="none" stroke="#1F77B4" stroke-width="1.5" />
<g class="spine">
<line x1="100" y1="353.3333333333333" x2="535" y2="353.3333333333333" stroke="#262626" stroke-width="0.8" />
</g>
<g class="spine">
<line x1="100" y1="72" x2="535" y2="72" stroke="#262626" stroke-width="0.8" />
</g>
<g class="spine">
<line x1="100" y1="72" x2="100" y2="353.3333333333333" stroke="#262626" stroke-width="0.8" />
</g>
<g class="spine">
<line x1="535" y1="72" x2="535" y2="353.3333333333333" stroke="#262626" stroke-width="0.8" />
</g>
<text x="317.5" y="64" font-family="DejaVu Sans, sans-serif" font-size="15.88888888888889" text-anchor="middle" font-weight="bold" fill="#262626">Main plot</text>
<rect x="575" y="72" width="145" height="281.3333333333333" fill="#FFFFFF" />
<line x1="581.5909090909091" y1="352.93333333333334" x2="581.5909090909091" y2="358.1944444444444" stroke="#262626" stroke-width="1.1111111111111112" />
<text x="581.5909090909091" y="376.9444444444444" font-family="DejaVu Sans, sans-serif" font-size="13.88888888888889" text-anchor="middle" fill="#262626">1</text>
<line x1="596.2373737373738" y1="352.93333333333334" x2="596.2373737373738" y2="358.1944444444444" stroke="#262626" stroke-width="1.1111111111111112" />
<text x="596.2373737373738" y="376.9444444444444" font-family="DejaVu Sans, sans-serif" font-size="13.88888888888889" text-anchor="middle" fill="#262626">2</text>
<line x1="610.8838383838385" y1="352.93333333333334" x2="610.8838383838385" y2="358.1944444444444" stroke="#262626" stroke-width="1.1111111111111112" />
<text x="610.8838383838385" y="376.9444444444444" font-family="DejaVu Sans, sans-serif" font-size="13.88888888888889" text-anchor="middle" fill="#262626">3</text>
<line x1="625.530303030303" y1="352.93333333333334" x2="625.530303030303" y2="358.1944444444444" stroke="#262626" stroke-width="1.1111111111111112" />
<text x="625.530303030303" y="376.9444444444444" font-family="DejaVu Sans, sans-serif" font-size="13.88888888888889" text-anchor="middle" fill="#262626">4</text>
<line x1="640.1767676767677" y1="352.93333333333334" x2="640.1767676767677" y2="358.1944444444444" stroke="#262626" stroke-width="1.1111111111111112" />
<text x="640.1767676767677" y="376.9444444444444" font-family="DejaVu Sans, sans-serif" font-size="13.88888888888889" text-anchor="middle" fill="#262626">5</text>
<line x1="654.8232323232323" y1="352.93333333333334" x2="654.8232323232323" y2="358.1944444444444" stroke="#262626" stroke-width="1.1111111111111112" />
<text x="654.8232323232323" y="376.9444444444444" font-family="DejaVu Sans, sans-serif" font-size="13.88888888888889" text-anchor="middle" fill="#262626">6</text>
<line x1="669.469696969697" y1="352.93333333333334" x2="669.469696969697" y2="358.1944444444444" stroke="#262626" stroke-width="1.1111111111111112" />
<text x="669.469696969697" y="376.9444444444444" font-family="DejaVu Sans, sans-serif" font-size="13.88888888888889" text-anchor="middle" fill="#262626">7</text>
<line x1="684.1161616161617" y1="352.93333333333334" x2="684.1161616161617" y2="358.1944444444444" stroke="#262626" stroke-width="1.1111111111111112" />
<text x="684.1161616161617" y="376.9444444444444" font-family="DejaVu Sans, sans-serif" font-size="13.88888888888889" text-anchor="middle" fill="#262626">8</text>
<line x1="698.7626262626263" y1="352.93333333333334" x2="698.7626262626263" y2="358.1944444444444" stroke="#262626" stroke-width="1.1111111111111112" />
<text x="698.7626262626263" y="376.9444444444444" font-family="DejaVu Sans, sans-serif" font-size="13.88888888888889" text-anchor="middle" fill="#262626">9</text>
<line x1="713.409090909091" y1="352.93333333333334" x2="713.409090909091" y2="358.1944444444444" stroke="#262626" stroke-width="1.1111111111111112" />
<text x="713.409090909091" y="376.9444444444444" font-family="DejaVu Sans, sans-serif" font-size="13.88888888888889" text-anchor="middle" fill="#262626">10</text>
<line x1="575.7323232323232" y1="352.93333333333334" x2="575.7323232323232" y2="358.1944444444444" stroke="#262626" stroke-width="1.1111111111111112" />
<line x1="578.6616161616162" y1="352.93333333333334" x2="578.6616161616162" y2="358.1944444444444" stroke="#262626" stroke-width="1.1111111111111112" />
<line x1="584.5202020202021" y1="352.93333333333334" x2="584.5202020202021" y2="358.1944444444444" stroke="#262626" stroke-width="1.1111111111111112" />
<line x1="587.4494949494949" y1="352.93333333333334" x2="587.4494949494949" y2="358.1944444444444" stroke="#262626" stroke-width="1.1111111111111112" />
<line x1="590.3787878787879" y1="352.93333333333334" x2="590.3787878787879" y2="358.1944444444444" stroke="#262626" stroke-width="1.1111111111111112" />
<line x1="593.3080808080808" y1="352.93333333333334" x2="593.3080808080808" y2="358.1944444444444" stroke="#262626" stroke-width="1.1111111111111112" />
<line x1="599.1666666666667" y1="352.93333333333334" x2="599.1666666666667" y2="358.1944444444444" stroke="#262626" stroke-width="1.1111111111111112" />
<line x1="602.0959595959596" y1="352.93333333333334" x2="602.0959595959596" y2="358.1944444444444" stroke="#262626" stroke-width="1.1111111111111112" />
<line x1="605.0252525252525" y1="352.93333333333334" x2="605.0252525252525" y2="358.1944444444444" stroke="#262626" stroke-width="1.1111111111111112" />
<line x1="607.9545454545455" y1="352.93333333333334" x2="607.9545454545455" y2="358.1944444444444" stroke="#262626" stroke-width="1.1111111111111112" />
<line x1="613.8131313131313" y1="352.93333333333334" x2="613.8131313131313" y2="358.1944444444444" stroke="#262626" stroke-width="1.1111111111111112" />
<line x1="616.7424242424242" y1="352.93333333333334" x2="616.7424242424242" y2="358.1944444444444" stroke="#262626" stroke-width="1.1111111111111112" />
<line x1="619.6717171717172" y1="352.93333333333334" x2="619.6717171717172" y2="358.1944444444444" stroke="#262626" stroke-width="1.1111111111111112" />
<line x1="622.6010101010102" y1="352.93333333333334" x2="622.6010101010102" y2="358.1944444444444" stroke="#262626" stroke-width="1.1111111111111112" />
<line x1="628.459595959596" y1="352.93333333333334" x2="628.459595959596" y2="358.1944444444444" stroke="#262626" stroke-width="1.1111111111111112" />
<line x1="631.3888888888889" y1="352.93333333333334" x2="631.3888888888889" y2="358.1944444444444" stroke="#262626" stroke-width="1.1111111111111112" />
<line x1="634.3181818181819" y1="352.93333333333334" x2="634.3181818181819" y2="358.1944444444444" stroke="#262626" stroke-width="1.1111111111111112" />
<line x1="637.2474747474748" y1="352.93333333333334" x2="637.2474747474748" y2="358.1944444444444" stroke="#262626" stroke-width="1.1111111111111112" />
<line x1="643.1060606060606" y1="352.93333333333334" x2="643.1060606060606" y2="358.1944444444444" stroke="#262626" stroke-width="1.1111111111111112" />
<line x1="646.0353535353536" y1="352.93333333333334" x2="646.0353535353536" y2="358.1944444444444" stroke="#262626" stroke-width="1.1111111111111112" />
<line x1="648.9646464646465" y1="352.93333333333334" x2="648.9646464646465" y2="358.1944444444444" stroke="#262626" stroke-width="1.1111111111111112" />
<line x1="651.8939393939394" y1="352.93333333333334" x2="651.8939393939394" y2="358.1944444444444" stroke="#262626" stroke-width="1.1111111111111112" />
<line x1="657.7525252525253" y1="352.93333333333334" x2="657.7525252525253" y2="358.1944444444444" stroke="#262626" stroke-width="1.1111111111111112" />
<line x1="660.6818181818182" y1="352.93333333333334" x2="660.6818181818182" y2="358.1944444444444" stroke="#262626" stroke-width="1.1111111111111112" />
<line x1="663.6111111111111" y1="352.93333333333334" x2="663.6111111111111" y2="358.1944444444444" stroke="#262626" stroke-width="1.1111111111111112" />
<line x1="666.540404040404" y1="352.93333333333334" x2="666.540404040404" y2="358.1944444444444" stroke="#262626" stroke-width="1.1111111111111112" />
<line x1="672.39898989899" y1="352.93333333333334" x2="672.39898989899" y2="358.1944444444444" stroke="#262626" stroke-width="1.1111111111111112" />
<line x1="675.3282828282829" y1="352.93333333333334" x2="675.3282828282829" y2="358.1944444444444" stroke="#262626" stroke-width="1.1111111111111112" />
<line x1="678.2575757575758" y1="352.93333333333334" x2="678.2575757575758" y2="358.1944444444444" stroke="#262626" stroke-width="1.1111111111111112" />
<line x1="681.1868686868687" y1="352.93333333333334" x2="681.1868686868687" y2="358.1944444444444" stroke="#262626" stroke-width="1.1111111111111112" />
<line x1="687.0454545454545" y1="352.93333333333334" x2="687.0454545454545" y2="358.1944444444444" stroke="#262626" stroke-width="1.1111111111111112" />
<line x1="689.9747474747476" y1="352.93333333333334" x2="689.9747474747476" y2="358.1944444444444" stroke="#262626" stroke-width="1.1111111111111112" />
<line x1="692.9040404040404" y1="352.93333333333334" x2="692.9040404040404" y2="358.1944444444444" stroke="#262626" stroke-width="1.1111111111111112" />
<line x1="695.8333333333334" y1="352.93333333333334" x2="695.8333333333334" y2="358.1944444444444" stroke="#262626" stroke-width="1.1111111111111112" />
<line x1="701.6919191919192" y1="352.93333333333334" x2="701.6919191919192" y2="358.1944444444444" stroke="#262626" stroke-width="1.1111111111111112" />
<line x1="704.6212121212121" y1="352.93333333333334" x2="704.6212121212121" y2="358.1944444444444" stroke="#262626" stroke-width="1.1111111111111112" />
<line x1="707.5505050505051" y1="352.93333333333334" x2="707.5505050505051" y2="358.1944444444444" stroke="#262626" stroke-width="1.1111111111111112" />
<line x1="710.479797979798" y1="352.93333333333334" x2="710.479797979798" y2="358.1944444444444" stroke="#262626" stroke-width="1.1111111111111112" />
<line x1="716.3383838383838" y1="352.93333333333334" x2="716.3383838383838" y2="358.1944444444444" stroke="#262626" stroke-width="1.1111111111111112" />
<line x1="719.2676767676768" y1="352.93333333333334" x2="719.2676767676768" y2="358.1944444444444" stroke="#262626" stroke-width="1.1111111111111112" />
<line x1="570.1388888888889" y1="344.0489829804898" x2="575.4" y2="344.0489829804898" stroke="#262626" stroke-width="1.1111111111111112" />
<text x="565.2777777777778" y="348.0489829804898" font-family="DejaVu Sans, sans-serif" font-size="13.88888888888889" text-anchor="end" fill="#262626">2</text>
<line x1="570.1388888888889" y1="309.013698630137" x2="575.4" y2="309.013698630137" stroke="#262626" stroke-width="1.1111111111111112" />
<text x="565.2777777777778" y="313.013698630137" font-family="DejaVu Sans, sans-serif" font-size="13.88888888888889" text-anchor="end" fill="#262626">3</text>
<line x1="570.1388888888889" y1="273.97841427978415" x2="575.4" y2="273.97841427978415" stroke="#262626" stroke-width="1.1111111111111112" />
<text x="565.2777777777778" y="277.97841427978415" font-family="DejaVu Sans, sans-serif" font-size="13.88888888888889" text-anchor="end" fill="#262626">4</text>
<line x1="570.1388888888889" y1="238.9431299294313" x2="575.4" y2="238.9431299294313" stroke="#262626" stroke-width="1.1111111111111112" />
<text x="565.2777777777778" y="242.9431299294313" font-family="DejaVu Sans, sans-serif" font-size="13.88888888888889" text-anchor="end" fill="#262626">5</text>
<line x1="570.1388888888889" y1="203.90784557907847" x2="575.4" y2="203.90784557907847" stroke="#262626" stroke-width="1.1111111111111112" />
<text x="565.2777777777778" y="207.90784557907847" font-family="DejaVu Sans, sans-serif" font-size="13.88888888888889" text-anchor="end" fill="#262626">6</text>
<line x1="570.1388888888889" y1="168.87256122872563" x2="575.4" y2="168.87256122872563" stroke="#262626" stroke-width="1.1111111111111112" />
<text x="565.2777777777778" y="172.87256122872563" font-family="DejaVu Sans, sans-serif" font-size="13.88888888888889" text-anchor="end" fill="#262626">7</text>
<line x1="570.1388888888889" y1="133.8372768783728" x2="575.4" y2="133.8372768783728" stroke="#262626" stroke-width="1.1111111111111112" />
<text x="565.2777777777778" y="137.8372768783728" font-family="DejaVu Sans, sans-serif" font-size="13.88888888888889" text-anchor="end" fill="#262626">8</text>
<line x1="570.1388888888889" y1="98.80199252801992" x2="575.4" y2="98.80199252801992" stroke="#262626" stroke-width="1.1111111111111112" />
<text x="565.2777777777778" y="102.80199252801992" font-family="DejaVu Sans, sans-serif" font-size="13.88888888888889" text-anchor="end" fill="#262626">9</text>
<line x1="570.1388888888889" y1="351.0560398505604" x2="575.4" y2="351.0560398505604" stroke="#262626" stroke-width="1.1111111111111112" />
<line x1="570.1388888888889" y1="337.04192611041924" x2="575.4" y2="337.04192611041924" stroke="#262626" stroke-width="1.1111111111111112" />
<line x1="570.1388888888889" y1="330.0348692403487" x2="575.4" y2="330.0348692403487" stroke="#262626" stroke-width="1.1111111111111112" />
<line x1="570.1388888888889" y1="323.0278123702781" x2="575.4" y2="323.0278123702781" stroke="#262626" stroke-width="1.1111111111111112" />
<line x1="570.1388888888889" y1="316.02075550020754" x2="575.4" y2="316.02075550020754" stroke="#262626" stroke-width="1.1111111111111112" />
<line x1="570.1388888888889" y1="302.00664176006643" x2="575.4" y2="302.00664176006643" stroke="#262626" stroke-width="1.1111111111111112" />
<line x1="570.1388888888889" y1="294.99958488999584" x2="575.4" y2="294.99958488999584" stroke="#262626" stroke-width="1.1111111111111112" />
<line x1="570.1388888888889" y1="287.99252801992526" x2="575.4" y2="287.99252801992526" stroke="#262626" stroke-width="1.1111111111111112" />
<line x1="570.1388888888889" y1="280.98547114985473" x2="575.4" y2="280.98547114985473" stroke="#262626" stroke-width="1.1111111111111112" />
<line x1="570.1388888888889" y1="266.97135740971356" x2="575.4" y2="266.97135740971356" stroke="#262626" stroke-width="1.1111111111111112" />
<line x1="570.1388888888889" y1="259.964300539643" x2="575.4" y2="259.964300539643" stroke="#262626" stroke-width="1.1111111111111112" />
<line x1="570.1388888888889" y1="252.95724366957245" x2="575.4" y2="252.95724366957245" stroke="#262626" stroke-width="1.1111111111111112" />
<line x1="570.1388888888889" y1="245.9501867995019" x2="575.4" y2="245.9501867995019" stroke="#262626" stroke-width="1.1111111111111112" />
<line x1="570.1388888888889" y1="231.93607305936072" x2="575.4" y2="231.93607305936072" stroke="#262626" stroke-width="1.1111111111111112" />
<line x1="570.1388888888889" y1="224.92901618929017" x2="575.4" y2="224.92901618929017" stroke="#262626" stroke-width="1.1111111111111112" />
<line x1="570.1388888888889" y1="217.9219593192196" x2="575.4" y2="217.9219593192196" stroke="#262626" stroke-width="1.1111111111111112" />
<line x1="570.1388888888889" y1="210.91490244914905" x2="575.4" y2="210.91490244914905" stroke="#262626" stroke-width="1.1111111111111112" />
<line x1="570.1388888888889" y1="196.90078870900788" x2="575.4" y2="196.90078870900788" stroke="#262626" stroke-width="1.1111111111111112" />
<line x1="570.1388888888889" y1="189.89373183893733" x2="575.4" y2="189.89373183893733" stroke="#262626" stroke-width="1.1111111111111112" />
<line x1="570.1388888888889" y1="182.88667496886677" x2="575.4" y2="182.88667496886677" stroke="#262626" stroke-width="1.1111111111111112" />
<line x1="570.1388888888889" y1="175.87961809879621" x2="575.4" y2="175.87961809879621" stroke="#262626" stroke-width="1.1111111111111112" />
<line x1="570.1388888888889" y1="161.86550435865504" x2="575.4" y2="161.86550435865504" stroke="#262626" stroke-width="1.1111111111111112" />
<line x1="570.1388888888889" y1="154.8584474885845" x2="575.4" y2="154.8584474885845" stroke="#262626" stroke-width="1.1111111111111112" />
<line x1="570.1388888888889" y1="147.85139061851396" x2="575.4" y2="147.85139061851396" stroke="#262626" stroke-width="1.1111111111111112" />
<line x1="570.1388888888889" y1="140.84433374844338" x2="575.4" y2="140.84433374844338" stroke="#262626" stroke-width="1.1111111111111112" />
<line x1="570.1388888888889" y1="126.83022000830226" x2="575.4" y2="126.83022000830226" stroke="#262626" stroke-width="1.1111111111111112" />
<line x1="570.1388888888889" y1="119.82316313823162" x2="575.4" y2="119.82316313823162" stroke="#262626" stroke-width="1.1111111111111112" />
<line x1="570.1388888888889" y1="112.81610626816109" x2="575.4" y2="112.81610626816109" stroke="#262626" stroke-width="1.1111111111111112" />
<line x1="570.1388888888889" y1="105.80904939809051" x2="575.4" y2="105.80904939809051" stroke="#262626" stroke-width="1.1111111111111112" />
<line x1="570.1388888888889" y1="91.7949356579494" x2="575.4" y2="91.7949356579494" stroke="#262626" stroke-width="1.1111111111111112" />
<line x1="570.1388888888889" y1="84.78787878787881" x2="575.4" y2="84.78787878787881" stroke="#262626" stroke-width="1.1111111111111112" />
<line x1="570.1388888888889" y1="77.78082191780828" x2="575.4" y2="77.78082191780828" stroke="#262626" stroke-width="1.1111111111111112" />
<circle cx="581.5909090909091" cy="340.54545454545456" r="4.701579862897969" fill="#1F77B4" />
<circle cx="596.2373737373738" cy="256.4607721046077" r="4.701579862897969" fill="#1F77B4" />
<circle cx="610.8838383838385" cy="302.00664176006643" r="4.701579862897969" fill="#1F77B4" />
<circle cx="625.530303030303" cy="175.87961809879621" r="4.701579862897969" fill="#1F77B4" />
<circle cx="640.1767676767677" cy="235.43960149439604" r="4.701579862897969" fill="#1F77B4" />
<circle cx="654.8232323232323" cy="158.36197592361978" r="4.701579862897969" fill="#1F77B4" />
<circle cx="669.469696969697" cy="186.39020340390204" r="4.701579862897969" fill="#1F77B4" />
<circle cx="684.1161616161617" cy="102.30552096305523" r="4.701579862897969" fill="#1F77B4" />
<circle cx="698.7626262626263" cy="161.86550435865504" r="4.701579862897969" fill="#1F77B4" />
<circle cx="713.409090909091" cy="84.78787878787881" r="4.701579862897969" fill="#1F77B4" />
<g class="spine">
<line x1="575" y1="353.3333333333333" x2="720" y2="353.3333333333333" stroke="#262626" stroke-width="0.8" />
</g>
<g class="spine">
<line x1="575" y1="72" x2="720" y2="72" stroke="#262626" stroke-width="0.8" />
</g>
<g class="spine">
<line x1="575" y1="72" x2="575" y2="353.3333333333333" stroke="#262626" stroke-width="0.8" />
</g>
<g class="spine">
<line x1="720" y1="72" x2="720" y2="353.3333333333333" stroke="#262626" stroke-width="0.8" />
</g>
<text x="647.5" y="64" font-family="DejaVu Sans, sans-serif" font-size="15.88888888888889" text-anchor="middle" font-weight="bold" fill="#262626">Scatter</text>
<rect x="100" y="393.3333333333333" width="620" height="140.66666666666666" fill="#FFFFFF" />
<line x1="187.51196172248805" y1="533.6" x2="187.51196172248805" y2="538.8611111111111" stroke="#262626" stroke-width="1.1111111111111112" />
<text x="187.51196172248805" y="549" font-family="DejaVu Sans, sans-serif" font-size="13.88888888888889" text-anchor="middle" fill="#262626">A</text>
<line x1="335.83732057416273" y1="533.6" x2="335.83732057416273" y2="538.8611111111111" stroke="#262626" stroke-width="1.1111111111111112" />
<text x="335.83732057416273" y="549" font-family="DejaVu Sans, sans-serif" font-size="13.88888888888889" text-anchor="middle" fill="#262626">B</text>
<line x1="484.1626794258374" y1="533.6" x2="484.1626794258374" y2="538.8611111111111" stroke="#262626" stroke-width="1.1111111111111112" />
<text x="484.1626794258374" y="549" font-family="DejaVu Sans, sans-serif" font-size="13.88888888888889" text-anchor="middle" fill="#262626">C</text>
<line x1="632.488038277512" y1="533.6" x2="632.488038277512" y2="538.8611111111111" stroke="#262626" stroke-width="1.1111111111111112" />
<text x="632.488038277512" y="549" font-family="DejaVu Sans, sans-serif" font-size="13.88888888888889" text-anchor="middle" fill="#262626">D</text>
<line x1="95.13888888888889" y1="534" x2="100.4" y2="534" stroke="#262626" stroke-width="1.1111111111111112" />
<text x="90.27777777777777" y="538" font-family="DejaVu Sans, sans-serif" font-size="13.88888888888889" text-anchor="end" fill="#262626">0</text>
<line x1="95.13888888888889" y1="518.0513983371126" x2="100.4" y2="518.0513983371126" stroke="#262626" stroke-width="1.1111111111111112" />
<text x="90.27777777777777" y="522.0513983371126" font-family="DejaVu Sans, sans-serif" font-size="13.88888888888889" text-anchor="end" fill="#262626">5</text>
<line x1="95.13888888888889" y1="502.10279667422526" x2="100.4" y2="502.10279667422526" stroke="#262626" stroke-width="1.1111111111111112" />
<text x="90.27777777777777" y="506.10279667422526" font-family="DejaVu Sans, sans-serif" font-size="13.88888888888889" text-anchor="end" fill="#262626">10</text>
<line x1="95.13888888888889" y1="486.1541950113379" x2="100.4" y2="486.1541950113379" stroke="#262626" stroke-width="1.1111111111111112" />
<text x="90.27777777777777" y="490.1541950113379" font-family="DejaVu Sans, sans-serif" font-size="13.88888888888889" text-anchor="end" fill="#262626">15</text>
<line x1="95.13888888888889" y1="470.2055933484505" x2="100.4" y2="470.2055933484505" stroke="#262626" stroke-width="1.1111111111111112" />
<text x="90.27777777777777" y="474.2055933484505" font-family="DejaVu Sans, sans-serif" font-size="13.88888888888889" text-anchor="end" fill="#262626">20</text>
<line x1="95.13888888888889" y1="454.2569916855631" x2="100.4" y2="454.2569916855631" stroke="#262626" stroke-width="1.1111111111111112" />
<text x="90.27777777777777" y="458.2569916855631" font-family="DejaVu Sans, sans-serif" font-size="13.88888888888889" text-anchor="end" fill="#262626">25</text>
<line x1="95.13888888888889" y1="438.3083900226757" x2="100.4" y2="438.3083900226757" stroke="#262626" stroke-width="1.1111111111111112" />
<text x="90.27777777777777" y="442.3083900226757" font-family="DejaVu Sans, sans-serif" font-size="13.88888888888889" text-anchor="end" fill="#262626">30</text>
<line x1="95.13888888888889" y1="422.35978835978835" x2="100.4" y2="422.35978835978835" stroke="#262626" stroke-width="1.1111111111111112" />
<text x="90.27777777777777" y="426.35978835978835" font-family="DejaVu Sans, sans-serif" font-size="13.88888888888889" text-anchor="end" fill="#262626">35</text>
<line x1="95.13888888888889" y1="406.411186696901" x2="100.4" y2="406.411186696901" stroke="#262626" stroke-width="1.1111111111111112" />
<text x="90.27777777777777" y="410.411186696901" font-family="DejaVu Sans, sans-serif" font-size="13.88888888888889" text-anchor="end" fill="#262626">40</text>
<line x1="95.13888888888889" y1="530.8102796674225" x2="100.4" y2="530.8102796674225" stroke="#262626" stroke-width="1.1111111111111112" />
<line x1="95.13888888888889" y1="527.6205593348451" x2="100.4" y2="527.6205593348451" stroke="#262626" stroke-width="1.1111111111111112" />
<line x1="95.13888888888889" y1="524.4308390022676" x2="100.4" y2="524.4308390022676" stroke="#262626" stroke-width="1.1111111111111112" />
<line x1="95.13888888888889" y1="521.2411186696901" x2="100.4" y2="521.2411186696901" stroke="#262626" stroke-width="1.1111111111111112" />
<line x1="95.13888888888889" y1="514.8616780045352" x2="100.4" y2="514.8616780045352" stroke="#262626" stroke-width="1.1111111111111112" />
<line x1="95.13888888888889" y1="511.67195767195767" x2="100.4" y2="511.67195767195767" stroke="#262626" stroke-width="1.1111111111111112" />
<line x1="95.13888888888889" y1="508.4822373393802" x2="100.4" y2="508.4822373393802" stroke="#262626" stroke-width="1.1111111111111112" />
<line x1="95.13888888888889" y1="505.2925170068027" x2="100.4" y2="505.2925170068027" stroke="#262626" stroke-width="1.1111111111111112" />
<line x1="95.13888888888889" y1="498.91307634164775" x2="100.4" y2="498.91307634164775" stroke="#262626" stroke-width="1.1111111111111112" />
<line x1="95.13888888888889" y1="495.7233560090703" x2="100.4" y2="495.7233560090703" stroke="#262626" stroke-width="1.1111111111111112" />
<line x1="95.13888888888889" y1="492.53363567649285" x2="100.4" y2="492.53363567649285" stroke="#262626" stroke-width="1.1111111111111112" />
<line x1="95.13888888888889" y1="489.34391534391534" x2="100.4" y2="489.34391534391534" stroke="#262626" stroke-width="1.1111111111111112" />
<line x1="95.13888888888889" y1="482.9644746787604" x2="100.4" y2="482.9644746787604" stroke="#262626" stroke-width="1.1111111111111112" />
<line x1="95.13888888888889" y1="479.77475434618293" x2="100.4" y2="479.77475434618293" stroke="#262626" stroke-width="1.1111111111111112" />
<line x1="95.13888888888889" y1="476.5850340136054" x2="100.4" y2="476.5850340136054" stroke="#262626" stroke-width="1.1111111111111112" />
<line x1="95.13888888888889" y1="473.395313681028" x2="100.4" y2="473.395313681028" stroke="#262626" stroke-width="1.1111111111111112" />
<line x1="95.13888888888889" y1="467.015873015873" x2="100.4" y2="467.015873015873" stroke="#262626" stroke-width="1.1111111111111112" />
<line x1="95.13888888888889" y1="463.82615268329556" x2="100.4" y2="463.82615268329556" stroke="#262626" stroke-width="1.1111111111111112" />
<line x1="95.13888888888889" y1="460.63643235071805" x2="100.4" y2="460.63643235071805" stroke="#262626" stroke-width="1.1111111111111112" />
<line x1="95.13888888888889" y1="457.4467120181406" x2="100.4" y2="457.4467120181406" stroke="#262626" stroke-width="1.1111111111111112" />
<line x1="95.13888888888889" y1="451.06727135298564" x2="100.4" y2="451.06727135298564" stroke="#262626" stroke-width="1.1111111111111112" />
<line x1="95.13888888888889" y1="447.8775510204082" x2="100.4" y2="447.8775510204082" stroke="#262626" stroke-width="1.1111111111111112" />
<line x1="95.13888888888889" y1="444.6878306878307" x2="100.4" y2="444.6878306878307" stroke="#262626" stroke-width="1.1111111111111112" />
<line x1="95.13888888888889" y1="441.49811035525323" x2="100.4" y2="441.49811035525323" stroke="#262626" stroke-width="1.1111111111111112" />
<line x1="95.13888888888889" y1="435.1186696900983" x2="100.4" y2="435.1186696900983" stroke="#262626" stroke-width="1.1111111111111112" />
<line x1="95.13888888888889" y1="431.92894935752076" x2="100.4" y2="431.92894935752076" stroke="#262626" stroke-width="1.1111111111111112" />
<line x1="95.13888888888889" y1="428.7392290249433" x2="100.4" y2="428.7392290249433" stroke="#262626" stroke-width="1.1111111111111112" />
<line x1="95.13888888888889" y1="425.54950869236586" x2="100.4" y2="425.54950869236586" stroke="#262626" stroke-width="1.1111111111111112" />
<line x1="95.13888888888889" y1="419.1700680272109" x2="100.4" y2="419.1700680272109" stroke="#262626" stroke-width="1.1111111111111112" />
<line x1="95.13888888888889" y1="415.98034769463345" x2="100.4" y2="415.98034769463345" stroke="#262626" stroke-width="1.1111111111111112" />
<line x1="95.13888888888889" y1="412.79062736205594" x2="100.4" y2="412.79062736205594" stroke="#262626" stroke-width="1.1111111111111112" />
<line x1="95.13888888888889" y1="409.60090702947844" x2="100.4" y2="409.60090702947844" stroke="#262626" stroke-width="1.1111111111111112" />
<line x1="95.13888888888889" y1="403.22146636432353" x2="100.4" y2="403.22146636432353" stroke="#262626" stroke-width="1.1111111111111112" />
<line x1="95.13888888888889" y1="400.031746031746" x2="100.4" y2="400.031746031746" stroke="#262626" stroke-width="1.1111111111111112" />
<line x1="95.13888888888889" y1="396.8420256991686" x2="100.4" y2="396.8420256991686" stroke="#262626" stroke-width="1.1111111111111112" />
<line x1="95.13888888888889" y1="393.6523053665911" x2="100.4" y2="393.6523053665911" stroke="#262626" stroke-width="1.1111111111111112" />
<rect x="128.1818181818182" y="486.1541950113379" width="118.66028708133973" height="47.84580498866211" fill="#1F77B4" />
<rect x="276.5071770334929" y="400.031746031746" width="118.66028708133967" height="133.96825396825398" fill="#1F77B4" />
<rect x="424.83253588516754" y="444.6878306878307" width="118.66028708133967" height="89.31216931216932" fill="#1F77B4" />
<rect x="573.1578947368422" y="415.98034769463345" width="118.66028708133967" height="118.01965230536655" fill="#1F77B4" />
<g class="spine">
<line x1="100" y1="534" x2="720" y2="534" stroke="#262626" stroke-width="0.8" />
</g>
<g class="spine">
<line x1="100" y1="393.3333333333333" x2="720" y2="393.3333333333333" stroke="#262626" stroke-width="0.8" />
</g>
<g class="spine">
<line x1="100" y1="393.3333333333333" x2="100" y2="534" stroke="#262626" stroke-width="0.8" />
</g>
<g class="spine">
<line x1="720" y1="393.3333333333333" x2="720" y2="534" stroke="#262626" stroke-width="0.8" />
</g>
<text x="410" y="385.3333333333333" font-family="DejaVu Sans, sans-serif" font-size="15.88888888888889" text-anchor="middle" font-weight="bold" fill="#262626">Wide bar</text>
</svg>
