<svg xmlns="http://www.w3.org/2000/svg" viewBox="0 0 800 600" width="800" height="600" role="img" aria-labelledby="chart-title">
<title id="chart-title"></title>
<rect x="0" y="0" width="800" height="600" fill="#FFFFFF" />
<rect x="66.12060631646051" y="40" width="618.6151775783964" height="510" fill="#FFFFFF" />
<line x1="66.12060631646051" y1="549.6" x2="66.12060631646051" y2="554.8611111111111" stroke="#262626" stroke-width="1.1111111111111112" />
<path d="M4.41488 -9.22309Q3.35693 -9.22309 2.82457 -8.1821Q2.29221 -7.14111 2.29221 -5.05235Q2.29221 -2.97038 2.82457 -1.92939Q3.35693 -0.888401 4.41488 -0.888401Q5.4796 -0.888401 6.01196 -1.92939Q6.54433 -2.97038 6.54433 -5.05235Q6.54433 -7.14111 6.01196 -8.1821Q5.4796 -9.22309 4.41488 -9.22309ZM4.41488 -10.3082Q6.11708 -10.3082 7.01565 -8.962Q7.91422 -7.61583 7.91423 -5.05235Q7.91423 -2.49566 7.01565 -1.1495Q6.11708 0.196669 4.41488 0.196669Q2.71267 0.196669 1.8141 -1.1495Q0.915527 -2.49566 0.915527 -5.05235Q0.915527 -7.61583 1.8141 -8.962Q2.71267 -10.3082 4.41488 -10.3082Z" fill="#262626" transform="translate(66.12060631646051,573.6111111111111) translate(-4.418267250061035,0)" />
<line x1="127.98212407430015" y1="549.6" x2="127.98212407430015" y2="554.8611111111111" stroke="#262626" stroke-width="1.1111111111111112" />
<path d="M1.72255 -1.15289L3.9605 -1.15289L3.9605 -8.87722L1.52588 -8.38894L1.52588 -9.63677L3.94694 -10.1251L5.31684 -10.1251L5.31684 -1.15289L7.5548 -1.15289L7.5548 0L1.72255 0L1.72255 -1.15289Z" fill="#262626" transform="translate(127.98212407430015,573.6111111111111) translate(-4.418267250061035,0)" />
<line x1="189.84364183213978" y1="549.6" x2="189.84364183213978" y2="554.8611111111111" stroke="#262626" stroke-width="1.1111111111111112" />
<path d="M2.6652 -1.15289L7.44629 -1.15289L7.44629 0L1.01725 0L1.01725 -1.15289Q1.79715 -1.95991 3.14331 -3.31963Q4.48947 -4.67936 4.83534 -5.0727Q5.49316 -5.8119 5.75426 -6.32392Q6.01535 -6.83594 6.01535 -7.331Q6.01535 -8.13802 5.44908 -8.64665Q4.88281 -9.15527 3.97407 -9.15527Q3.32981 -9.15527 2.61434 -8.93148Q1.89887 -8.70768 1.08507 -8.25331L1.08507 -9.63677Q1.91243 -9.96908 2.63129 -10.1386Q3.35015 -10.3082 3.94694 -10.3082Q5.52029 -10.3082 6.45616 -9.52148Q7.39204 -8.73481 7.39204 -7.41916Q7.39204 -6.79525 7.15807 -6.23576Q6.9241 -5.67627 6.30697 -4.91672Q6.13742 -4.72005 5.22868 -3.78079Q4.31993 -2.84153 2.6652 -1.15289Z" fill="#262626" transform="translate(189.84364183213978,573.6111111111111) translate(-4.418267250061035,0)" />
<line x1="251.70515958997942" y1="549.6" x2="251.70515958997942" y2="554.8611111111111" stroke="#262626" stroke-width="1.1111111111111112" />
<path d="M5.63558 -5.45926Q6.61892 -5.24902 7.17163 -4.58442Q7.72434 -3.91981 7.72434 -2.94325Q7.72434 -1.4445 6.69352 -0.623915Q5.66271 0.196669 3.76383 0.196669Q3.12636 0.196669 2.45158 0.0712077Q1.7768 -0.0542535 1.05794 -0.305176L1.05794 -1.6276Q1.6276 -1.2953 2.30577 -1.12576Q2.98394 -0.956217 3.72314 -0.956217Q5.01166 -0.956217 5.68644 -1.46484Q6.36122 -1.97347 6.36122 -2.94325Q6.36122 -3.83843 5.73391 -4.34367Q5.10661 -4.8489 3.98763 -4.8489L2.80762 -4.8489L2.80762 -5.97466L4.04188 -5.97466Q5.05235 -5.97466 5.58811 -6.37817Q6.12386 -6.78168 6.12386 -7.54123Q6.12386 -8.32113 5.57115 -8.7382Q5.01845 -9.15527 3.98763 -9.15527Q3.42475 -9.15527 2.78049 -9.0332Q2.13623 -8.91113 1.36312 -8.65343L1.36312 -9.87413Q2.14301 -10.0911 2.82457 -10.1997Q3.50613 -10.3082 4.1097 -10.3082Q5.66949 -10.3082 6.57823 -9.59947Q7.48698 -8.89079 7.48698 -7.68365Q7.48698 -6.84272 7.00548 -6.26289Q6.52398 -5.68305 5.63558 -5.45926Z" fill="#262626" transform="translate(251.70515958997942,573.6111111111111) translate(-4.418267250061035,0)" />
<line x1="313.56667734781905" y1="549.6" x2="313.56667734781905" y2="554.8611111111111" stroke="#262626" stroke-width="1.1111111111111112" />
<path d="M5.24902 -8.93148L1.79036 -3.52648L5.24902 -3.52648L5.24902 -8.93148ZM4.88959 -10.1251L6.61214 -10.1251L6.61214 -3.52648L8.05664 -3.52648L8.05664 -2.38715L6.61214 -2.38715L6.61214 0L5.24902 0L5.24902 -2.38715L0.678168 -2.38715L0.678168 -3.70958L4.88959 -10.1251Z" fill="#262626" transform="translate(313.56667734781905,573.6111111111111) translate(-4.418267250061035,0)" />
<line x1="375.4281951056587" y1="549.6" x2="375.4281951056587" y2="554.8611111111111" stroke="#262626" stroke-width="1.1111111111111112" />
<path d="M1.49875 -10.1251L6.87663 -10.1251L6.87663 -8.97217L2.75336 -8.97217L2.75336 -6.49007Q3.05176 -6.5918 3.35015 -6.64266Q3.64855 -6.69352 3.94694 -6.69352Q5.64236 -6.69352 6.63249 -5.76443Q7.62261 -4.83534 7.62261 -3.24843Q7.62261 -1.61404 6.60536 -0.708686Q5.58811 0.196669 3.73671 0.196669Q3.09923 0.196669 2.43802 0.0881619C1.99721 0.0158239 1.5417 -0.092683 1.07151 -0.237359L1.07151 -1.61404Q1.68186 -1.28174 2.3329 -1.11898Q2.98394 -0.956217 3.70958 -0.956217Q4.88281 -0.956217 5.56776 -1.57335Q6.25271 -2.19048 6.25271 -3.24843Q6.25271 -4.30637 5.56776 -4.9235Q4.88281 -5.54064 3.70958 -5.54064Q3.16026 -5.54064 2.61434 -5.41857Q2.06841 -5.2965 1.49875 -5.03879L1.49875 -10.1251Z" fill="#262626" transform="translate(375.4281951056587,573.6111111111111) translate(-4.418267250061035,0)" />
<line x1="437.2897128634983" y1="549.6" x2="437.2897128634983" y2="554.8611111111111" stroke="#262626" stroke-width="1.1111111111111112" />
<path d="M4.58442 -5.60845Q3.66211 -5.60845 3.12297 -4.97776Q2.58382 -4.34706 2.58382 -3.24843Q2.58382 -2.15658 3.12297 -1.52249Q3.66211 -0.888401 4.58442 -0.888401Q5.50673 -0.888401 6.04587 -1.52249Q6.58502 -2.15658 6.58502 -3.24843Q6.58502 -4.34706 6.04587 -4.97776Q5.50673 -5.60845 4.58442 -5.60845ZM7.30387 -9.90126L7.30387 -8.65343Q6.78847 -8.89757 6.26289 -9.02642Q5.7373 -9.15527 5.2219 -9.15527Q3.86556 -9.15527 3.15009 -8.23975Q2.43462 -7.32422 2.3329 -5.47282Q2.73302 -6.06282 3.33659 -6.37817Q3.94016 -6.69352 4.6658 -6.69352Q6.19168 -6.69352 7.07669 -5.76782Q7.9617 -4.84212 7.9617 -3.24843Q7.9617 -1.68864 7.03939 -0.745985Q6.11708 0.196669 4.58442 0.196669Q2.82796 0.196669 1.89887 -1.1495Q0.969781 -2.49566 0.969781 -5.05235Q0.969781 -7.45307 2.1091 -8.88062Q3.24843 -10.3082 5.16764 -10.3082Q5.68305 -10.3082 6.20863 -10.2064Q6.73421 -10.1047 7.30387 -9.90126Z" fill="#262626" transform="translate(437.2897128634983,573.6111111111111) translate(-4.418267250061035,0)" />
<line x1="499.15123062133796" y1="549.6" x2="499.15123062133796" y2="554.8611111111111" stroke="#262626" stroke-width="1.1111111111111112" />
<path d="M1.13932 -10.1251L7.64974 -10.1251L7.64974 -9.54183L3.97407 0L2.54313 0L6.00179 -8.97217L1.13932 -8.97217L1.13932 -10.1251Z" fill="#262626" transform="translate(499.15123062133796,573.6111111111111) translate(-4.418267250061035,0)" />
<line x1="561.0127483791775" y1="549.6" x2="561.0127483791775" y2="554.8611111111111" stroke="#262626" stroke-width="1.1111111111111112" />
<path d="M4.41488 -4.80821Q3.43831 -4.80821 2.87882 -4.28602Q2.31934 -3.76383 2.31934 -2.84831Q2.31934 -1.93278 2.87882 -1.41059Q3.43831 -0.888401 4.41488 -0.888401Q5.39144 -0.888401 5.95432 -1.41398Q6.5172 -1.93956 6.5172 -2.84831Q6.5172 -3.76383 5.95771 -4.28602Q5.39822 -4.80821 4.41488 -4.80821ZM3.04498 -5.39144Q2.16336 -5.60845 1.67169 -6.21202Q1.18001 -6.81559 1.18001 -7.68365Q1.18001 -8.89757 2.04468 -9.60287Q2.90934 -10.3082 4.41488 -10.3082Q5.92719 -10.3082 6.78847 -9.60287Q7.64974 -8.89757 7.64974 -7.68365Q7.64974 -6.81559 7.15807 -6.21202Q6.6664 -5.60845 5.79156 -5.39144Q6.78168 -5.16086 7.33439 -4.48947Q7.8871 -3.81809 7.8871 -2.84831Q7.8871 -1.37668 6.98853 -0.590007Q6.08995 0.196669 4.41488 0.196669Q2.7398 0.196669 1.84123 -0.590007Q0.942654 -1.37668 0.942654 -2.84831Q0.942654 -3.81809 1.49875 -4.48947Q2.05485 -5.16086 3.04498 -5.39144ZM2.54313 -7.5548Q2.54313 -6.76812 3.0348 -6.32731Q3.52648 -5.8865 4.41488 -5.8865Q5.29649 -5.8865 5.79495 -6.32731Q6.2934 -6.76812 6.2934 -7.5548Q6.2934 -8.34147 5.79495 -8.78228Q5.2965 -9.22309 4.41488 -9.22309Q3.52648 -9.22309 3.0348 -8.78228Q2.54313 -8.34147 2.54313 -7.5548Z" fill="#262626" transform="translate(561.0127483791775,573.6111111111111) translate(-4.418267250061035,0)" />
<line x1="622.8742661370172" y1="549.6" x2="622.8742661370172" y2="554.8611111111111" stroke="#262626" stroke-width="1.1111111111111112" />
<path d="M1.52588 -0.210232L1.52588 -1.45806Q2.04129 -1.21392 2.57026 -1.08507Q3.09923 -0.956217 3.60786 -0.956217Q4.96419 -0.956217 5.67966 -1.86835Q6.39513 -2.78049 6.49685 -4.63867Q6.10352 -4.05545 5.49995 -3.74349Q4.89638 -3.43153 4.16395 -3.43153Q2.64486 -3.43153 1.75985 -4.35045Q0.874837 -5.26937 0.874837 -6.86306Q0.874837 -8.42285 1.79715 -9.36551Q2.71946 -10.3082 4.25212 -10.3082Q6.00857 -10.3082 6.93427 -8.962Q7.85997 -7.61583 7.85997 -5.05235Q7.85997 -2.65842 6.72404 -1.23088Q5.58811 0.196669 3.66889 0.196669Q3.15348 0.196669 2.62451 0.0949436Q2.09554 -0.00678168 1.52588 -0.210232ZM4.25212 -4.50304Q5.17442 -4.50304 5.71357 -5.13374Q6.25271 -5.76443 6.25271 -6.86306Q6.25271 -7.95491 5.71357 -8.589Q5.17443 -9.22309 4.25212 -9.22309Q3.32981 -9.22309 2.79066 -8.589Q2.25152 -7.95492 2.25152 -6.86306Q2.25152 -5.76443 2.79066 -5.13374Q3.32981 -4.50304 4.25212 -4.50304Z" fill="#262626" transform="translate(622.8742661370172,573.6111111111111) translate(-4.418267250061035,0)" />
<line x1="684.7357838948569" y1="549.6" x2="684.7357838948569" y2="554.8611111111111" stroke="#262626" stroke-width="1.1111111111111112" />
<path d="M1.72255 -1.15289L3.9605 -1.15289L3.9605 -8.87722L1.52588 -8.38894L1.52588 -9.63677L3.94694 -10.1251L5.31684 -10.1251L5.31684 -1.15289L7.5548 -1.15289L7.5548 0L1.72255 0L1.72255 -1.15289ZM13.2514 -9.22309Q12.1935 -9.22309 11.6611 -8.1821Q11.1287 -7.14111 11.1287 -5.05235Q11.1287 -2.97038 11.6611 -1.92939Q12.1935 -0.888401 13.2514 -0.888401Q14.3161 -0.888401 14.8485 -1.92939Q15.3809 -2.97038 15.3809 -5.05235Q15.3809 -7.14111 14.8485 -8.1821Q14.3161 -9.22309 13.2514 -9.22309ZM13.2514 -10.3082Q14.9536 -10.3082 15.8522 -8.962Q16.7508 -7.61583 16.7508 -5.05235Q16.7508 -2.49566 15.8522 -1.1495Q14.9536 0.196669 13.2514 0.196669Q11.5492 0.196669 10.6506 -1.1495Q9.75206 -2.49566 9.75206 -5.05235Q9.75206 -7.61583 10.6506 -8.962Q11.5492 -10.3082 13.2514 -10.3082Z" fill="#262626" transform="translate(684.7357838948569,573.6111111111111) translate(-8.83653450012207,0)" />
<line x1="61.259495205349396" y1="550" x2="66.52060631646052" y2="550" stroke="#262626" stroke-width="1.1111111111111112" />
<path d="M4.41488 -9.22309Q3.35693 -9.22309 2.82457 -8.1821Q2.29221 -7.14111 2.29221 -5.05235Q2.29221 -2.97038 2.82457 -1.92939Q3.35693 -0.888401 4.41488 -0.888401Q5.4796 -0.888401 6.01196 -1.92939Q6.54433 -2.97038 6.54433 -5.05235Q6.54433 -7.14111 6.01196 -8.1821Q5.4796 -9.22309 4.41488 -9.22309ZM4.41488 -10.3082Q6.11708 -10.3082 7.01565 -8.962Q7.91422 -7.61583 7.91423 -5.05235Q7.91423 -2.49566 7.01565 -1.1495Q6.11708 0.196669 4.41488 0.196669Q2.71267 0.196669 1.8141 -1.1495Q0.915527 -2.49566 0.915527 -5.05235Q0.915527 -7.61583 1.8141 -8.962Q2.71267 -10.3082 4.41488 -10.3082Z" fill="#262626" transform="translate(56.39838409423828,554) translate(-8.83653450012207,0)" />
<line x1="61.259495205349396" y1="499" x2="66.52060631646052" y2="499" stroke="#262626" stroke-width="1.1111111111111112" />
<path d="M1.72255 -1.15289L3.9605 -1.15289L3.9605 -8.87722L1.52588 -8.38894L1.52588 -9.63677L3.94694 -10.1251L5.31684 -10.1251L5.31684 -1.15289L7.5548 -1.15289L7.5548 0L1.72255 0L1.72255 -1.15289Z" fill="#262626" transform="translate(56.39838409423828,503) translate(-8.83653450012207,0)" />
<line x1="61.259495205349396" y1="448" x2="66.52060631646052" y2="448" stroke="#262626" stroke-width="1.1111111111111112" />
<path d="M2.6652 -1.15289L7.44629 -1.15289L7.44629 0L1.01725 0L1.01725 -1.15289Q1.79715 -1.95991 3.14331 -3.31963Q4.48947 -4.67936 4.83534 -5.0727Q5.49316 -5.8119 5.75426 -6.32392Q6.01535 -6.83594 6.01535 -7.331Q6.01535 -8.13802 5.44908 -8.64665Q4.88281 -9.15527 3.97407 -9.15527Q3.32981 -9.15527 2.61434 -8.93148Q1.89887 -8.70768 1.08507 -8.25331L1.08507 -9.63677Q1.91243 -9.96908 2.63129 -10.1386Q3.35015 -10.3082 3.94694 -10.3082Q5.52029 -10.3082 6.45616 -9.52148Q7.39204 -8.73481 7.39204 -7.41916Q7.39204 -6.79525 7.15807 -6.23576Q6.9241 -5.67627 6.30697 -4.91672Q6.13742 -4.72005 5.22868 -3.78079Q4.31993 -2.84153 2.6652 -1.15289Z" fill="#262626" transform="translate(56.39838409423828,452) translate(-8.83653450012207,0)" />
<line x1="61.259495205349396" y1="397" x2="66.52060631646052" y2="397" stroke="#262626" stroke-width="1.1111111111111112" />
<path d="M5.63558 -5.45926Q6.61892 -5.24902 7.17163 -4.58442Q7.72434 -3.91981 7.72434 -2.94325Q7.72434 -1.4445 6.69352 -0.623915Q5.66271 0.196669 3.76383 0.196669Q3.12636 0.196669 2.45158 0.0712077Q1.7768 -0.0542535 1.05794 -0.305176L1.05794 -1.6276Q1.6276 -1.2953 2.30577 -1.12576Q2.98394 -0.956217 3.72314 -0.956217Q5.01166 -0.956217 5.68644 -1.46484Q6.36122 -1.97347 6.36122 -2.94325Q6.36122 -3.83843 5.73391 -4.34367Q5.10661 -4.8489 3.98763 -4.8489L2.80762 -4.8489L2.80762 -5.97466L4.04188 -5.97466Q5.05235 -5.97466 5.58811 -6.37817Q6.12386 -6.78168 6.12386 -7.54123Q6.12386 -8.32113 5.57115 -8.7382Q5.01845 -9.15527 3.98763 -9.15527Q3.42475 -9.15527 2.78049 -9.0332Q2.13623 -8.91113 1.36312 -8.65343L1.36312 -9.87413Q2.14301 -10.0911 2.82457 -10.1997Q3.50613 -10.3082 4.1097 -10.3082Q5.66949 -10.3082 6.57823 -9.59947Q7.48698 -8.89079 7.48698 -7.68365Q7.48698 -6.84272 7.00548 -6.26289Q6.52398 -5.68305 5.63558 -5.45926Z" fill="#262626" transform="translate(56.39838409423828,401) translate(-8.83653450012207,0)" />
<line x1="61.259495205349396" y1="346" x2="66.52060631646052" y2="346" stroke="#262626" stroke-width="1.1111111111111112" />
<path d="M5.24902 -8.93148L1.79036 -3.52648L5.24902 -3.52648L5.24902 -8.93148ZM4.88959 -10.1251L6.61214 -10.1251L6.61214 -3.52648L8.05664 -3.52648L8.05664 -2.38715L6.61214 -2.38715L6.61214 0L5.24902 0L5.24902 -2.38715L0.678168 -2.38715L0.678168 -3.70958L4.88959 -10.1251Z" fill="#262626" transform="translate(56.39838409423828,350) translate(-8.83653450012207,0)" />
<line x1="61.259495205349396" y1="295" x2="66.52060631646052" y2="295" stroke="#262626" stroke-width="1.1111111111111112" />
<path d="M1.49875 -10.1251L6.87663 -10.1251L6.87663 -8.97217L2.75336 -8.97217L2.75336 -6.49007Q3.05176 -6.5918 3.35015 -6.64266Q3.64855 -6.69352 3.94694 -6.69352Q5.64236 -6.69352 6.63249 -5.76443Q7.62261 -4.83534 7.62261 -3.24843Q7.62261 -1.61404 6.60536 -0.708686Q5.58811 0.196669 3.73671 0.196669Q3.09923 0.196669 2.43802 0.0881619C1.99721 0.0158239 1.5417 -0.092683 1.07151 -0.237359L1.07151 -1.61404Q1.68186 -1.28174 2.3329 -1.11898Q2.98394 -0.956217 3.70958 -0.956217Q4.88281 -0.956217 5.56776 -1.57335Q6.25271 -2.19048 6.25271 -3.24843Q6.25271 -4.30637 5.56776 -4.9235Q4.88281 -5.54064 3.70958 -5.54064Q3.16026 -5.54064 2.61434 -5.41857Q2.06841 -5.2965 1.49875 -5.03879L1.49875 -10.1251Z" fill="#262626" transform="translate(56.39838409423828,299) translate(-8.83653450012207,0)" />
<line x1="61.259495205349396" y1="244" x2="66.52060631646052" y2="244" stroke="#262626" stroke-width="1.1111111111111112" />
<path d="M4.58442 -5.60845Q3.66211 -5.60845 3.12297 -4.97776Q2.58382 -4.34706 2.58382 -3.24843Q2.58382 -2.15658 3.12297 -1.52249Q3.66211 -0.888401 4.58442 -0.888401Q5.50673 -0.888401 6.04587 -1.52249Q6.58502 -2.15658 6.58502 -3.24843Q6.58502 -4.34706 6.04587 -4.97776Q5.50673 -5.60845 4.58442 -5.60845ZM7.30387 -9.90126L7.30387 -8.65343Q6.78847 -8.89757 6.26289 -9.02642Q5.7373 -9.15527 5.2219 -9.15527Q3.86556 -9.15527 3.15009 -8.23975Q2.43462 -7.32422 2.3329 -5.47282Q2.73302 -6.06282 3.33659 -6.37817Q3.94016 -6.69352 4.6658 -6.69352Q6.19168 -6.69352 7.07669 -5.76782Q7.9617 -4.84212 7.9617 -3.24843Q7.9617 -1.68864 7.03939 -0.745985Q6.11708 0.196669 4.58442 0.196669Q2.82796 0.196669 1.89887 -1.1495Q0.969781 -2.49566 0.969781 -5.05235Q0.969781 -7.45307 2.1091 -8.88062Q3.24843 -10.3082 5.16764 -10.3082Q5.68305 -10.3082 6.20863 -10.2064Q6.73421 -10.1047 7.30387 -9.90126Z" fill="#262626" transform="translate(56.39838409423828,248) translate(-8.83653450012207,0)" />
<line x1="61.259495205349396" y1="193" x2="66.52060631646052" y2="193" stroke="#262626" stroke-width="1.1111111111111112" />
<path d="M1.13932 -10.1251L7.64974 -10.1251L7.64974 -9.54183L3.97407 0L2.54313 0L6.00179 -8.97217L1.13932 -8.97217L1.13932 -10.1251Z" fill="#262626" transform="translate(56.39838409423828,197) translate(-8.83653450012207,0)" />
<line x1="61.259495205349396" y1="142" x2="66.52060631646052" y2="142" stroke="#262626" stroke-width="1.1111111111111112" />
<path d="M4.41488 -4.80821Q3.43831 -4.80821 2.87882 -4.28602Q2.31934 -3.76383 2.31934 -2.84831Q2.31934 -1.93278 2.87882 -1.41059Q3.43831 -0.888401 4.41488 -0.888401Q5.39144 -0.888401 5.95432 -1.41398Q6.5172 -1.93956 6.5172 -2.84831Q6.5172 -3.76383 5.95771 -4.28602Q5.39822 -4.80821 4.41488 -4.80821ZM3.04498 -5.39144Q2.16336 -5.60845 1.67169 -6.21202Q1.18001 -6.81559 1.18001 -7.68365Q1.18001 -8.89757 2.04468 -9.60287Q2.90934 -10.3082 4.41488 -10.3082Q5.92719 -10.3082 6.78847 -9.60287Q7.64974 -8.89757 7.64974 -7.68365Q7.64974 -6.81559 7.15807 -6.21202Q6.6664 -5.60845 5.79156 -5.39144Q6.78168 -5.16086 7.33439 -4.48947Q7.8871 -3.81809 7.8871 -2.84831Q7.8871 -1.37668 6.98853 -0.590007Q6.08995 0.196669 4.41488 0.196669Q2.7398 0.196669 1.84123 -0.590007Q0.942654 -1.37668 0.942654 -2.84831Q0.942654 -3.81809 1.49875 -4.48947Q2.05485 -5.16086 3.04498 -5.39144ZM2.54313 -7.5548Q2.54313 -6.76812 3.0348 -6.32731Q3.52648 -5.8865 4.41488 -5.8865Q5.29649 -5.8865 5.79495 -6.32731Q6.2934 -6.76812 6.2934 -7.5548Q6.2934 -8.34147 5.79495 -8.78228Q5.2965 -9.22309 4.41488 -9.22309Q3.52648 -9.22309 3.0348 -8.78228Q2.54313 -8.34147 2.54313 -7.5548Z" fill="#262626" transform="translate(56.39838409423828,146) translate(-8.83653450012207,0)" />
<line x1="61.259495205349396" y1="91" x2="66.52060631646052" y2="91" stroke="#262626" stroke-width="1.1111111111111112" />
<path d="M1.52588 -0.210232L1.52588 -1.45806Q2.04129 -1.21392 2.57026 -1.08507Q3.09923 -0.956217 3.60786 -0.956217Q4.96419 -0.956217 5.67966 -1.86835Q6.39513 -2.78049 6.49685 -4.63867Q6.10352 -4.05545 5.49995 -3.74349Q4.89638 -3.43153 4.16395 -3.43153Q2.64486 -3.43153 1.75985 -4.35045Q0.874837 -5.26937 0.874837 -6.86306Q0.874837 -8.42285 1.79715 -9.36551Q2.71946 -10.3082 4.25212 -10.3082Q6.00857 -10.3082 6.93427 -8.962Q7.85997 -7.61583 7.85997 -5.05235Q7.85997 -2.65842 6.72404 -1.23088Q5.58811 0.196669 3.66889 0.196669Q3.15348 0.196669 2.62451 0.0949436Q2.09554 -0.00678168 1.52588 -0.210232ZM4.25212 -4.50304Q5.17442 -4.50304 5.71357 -5.13374Q6.25271 -5.76443 6.25271 -6.86306Q6.25271 -7.95491 5.71357 -8.589Q5.17443 -9.22309 4.25212 -9.22309Q3.32981 -9.22309 2.79066 -8.589Q2.25152 -7.95492 2.25152 -6.86306Q2.25152 -5.76443 2.79066 -5.13374Q3.32981 -4.50304 4.25212 -4.50304Z" fill="#262626" transform="translate(56.39838409423828,95) translate(-8.83653450012207,0)" />
<line x1="61.259495205349396" y1="40" x2="66.52060631646052" y2="40" stroke="#262626" stroke-width="1.1111111111111112" />
<path d="M1.72255 -1.15289L3.9605 -1.15289L3.9605 -8.87722L1.52588 -8.38894L1.52588 -9.63677L3.94694 -10.1251L5.31684 -10.1251L5.31684 -1.15289L7.5548 -1.15289L7.5548 0L1.72255 0L1.72255 -1.15289ZM13.2514 -9.22309Q12.1935 -9.22309 11.6611 -8.1821Q11.1287 -7.14111 11.1287 -5.05235Q11.1287 -2.97038 11.6611 -1.92939Q12.1935 -0.888401 13.2514 -0.888401Q14.3161 -0.888401 14.8485 -1.92939Q15.3809 -2.97038 15.3809 -5.05235Q15.3809 -7.14111 14.8485 -8.1821Q14.3161 -9.22309 13.2514 -9.22309ZM13.2514 -10.3082Q14.9536 -10.3082 15.8522 -8.962Q16.7508 -7.61583 16.7508 -5.05235Q16.7508 -2.49566 15.8522 -1.1495Q14.9536 0.196669 13.2514 0.196669Q11.5492 0.196669 10.6506 -1.1495Q9.75206 -2.49566 9.75206 -5.05235Q9.75206 -7.61583 10.6506 -8.962Q11.5492 -10.3082 13.2514 -10.3082Z" fill="#262626" transform="translate(56.39838409423828,44) translate(-17.67306900024414,0)" />
<rect x="66.12060631646051" y="40" width="61.861517757839636" height="51" fill="#CA4679" />
<rect x="127.98212407430015" y="40" width="61.861517757839636" height="51" fill="#CA4679" />
<rect x="189.84364183213978" y="40" width="61.861517757839636" height="51" fill="#CA4679" />
<rect x="251.70515958997942" y="40" width="61.861517757839636" height="51" fill="#CA4679" />
<rect x="313.56667734781905" y="40" width="61.861517757839636" height="51" fill="#CA4679" />
<rect x="375.4281951056587" y="40" width="61.861517757839636" height="51" fill="#CA4679" />
<rect x="437.2897128634983" y="40" width="61.861517757839636" height="51" fill="#CA4679" />
<rect x="499.15123062133796" y="40" width="61.861517757839636" height="51" fill="#CA4679" />
<rect x="561.0127483791775" y="40" width="61.861517757839636" height="51" fill="#CA4679" />
<rect x="622.8742661370172" y="40" width="61.861517757839636" height="51" fill="#CA4679" />
<rect x="66.12060631646051" y="91" width="61.861517757839636" height="51" fill="#F69243" />
<rect x="127.98212407430015" y="91" width="61.861517757839636" height="51" fill="#F28849" />
<rect x="189.84364183213978" y="91" width="61.861517757839636" height="51" fill="#E66D5B" />
<rect x="251.70515958997942" y="91" width="61.861517757839636" height="51" fill="#CE4B75" />
<rect x="313.56667734781905" y="91" width="61.861517757839636" height="51" fill="#AF2990" />
<rect x="375.4281951056587" y="91" width="61.861517757839636" height="51" fill="#9111A1" />
<rect x="437.2897128634983" y="91" width="61.861517757839636" height="51" fill="#8008A5" />
<rect x="499.15123062133796" y="91" width="61.861517757839636" height="51" fill="#850BA4" />
<rect x="561.0127483791775" y="91" width="61.861517757839636" height="51" fill="#9E199D" />
<rect x="622.8742661370172" y="91" width="61.861517757839636" height="51" fill="#BE3885" />
<rect x="66.12060631646051" y="142" width="61.861517757839636" height="51" fill="#F9D326" />
<rect x="127.98212407430015" y="142" width="61.861517757839636" height="51" fill="#FDBD2B" />
<rect x="189.84364183213978" y="142" width="61.861517757839636" height="51" fill="#F58D46" />
<rect x="251.70515958997942" y="142" width="61.861517757839636" height="51" fill="#D14F72" />
<rect x="313.56667734781905" y="142" width="61.861517757839636" height="51" fill="#97159F" />
<rect x="375.4281951056587" y="142" width="61.861517757839636" height="51" fill="#5902A3" />
<rect x="437.2897128634983" y="142" width="61.861517757839636" height="51" fill="#350498" />
<rect x="499.15123062133796" y="142" width="61.861517757839636" height="51" fill="#41039D" />
<rect x="561.0127483791775" y="142" width="61.861517757839636" height="51" fill="#7101A8" />
<rect x="622.8742661370172" y="142" width="61.861517757839636" height="51" fill="#B22D8E" />
<rect x="66.12060631646051" y="193" width="61.861517757839636" height="51" fill="#F0F921" />
<rect x="127.98212407430015" y="193" width="61.861517757839636" height="51" fill="#F7DB25" />
<rect x="189.84364183213978" y="193" width="61.861517757839636" height="51" fill="#FA9C3C" />
<rect x="251.70515958997942" y="193" width="61.861517757839636" height="51" fill="#D35170" />
<rect x="313.56667734781905" y="193" width="61.861517757839636" height="51" fill="#8B0EA2" />
<rect x="375.4281951056587" y="193" width="61.861517757839636" height="51" fill="#3E049B" />
<rect x="437.2897128634983" y="193" width="61.861517757839636" height="51" fill="#0D0887" />
<rect x="499.15123062133796" y="193" width="61.861517757839636" height="51" fill="#1B078D" />
<rect x="561.0127483791775" y="193" width="61.861517757839636" height="51" fill="#5D02A4" />
<rect x="622.8742661370172" y="193" width="61.861517757839636" height="51" fill="#AD2891" />
<rect x="66.12060631646051" y="244" width="61.861517757839636" height="51" fill="#F5E324" />
<rect x="127.98212407430015" y="244" width="61.861517757839636" height="51" fill="#FCC827" />
<rect x="189.84364183213978" y="244" width="61.861517757839636" height="51" fill="#F79441" />
<rect x="251.70515958997942" y="244" width="61.861517757839636" height="51" fill="#D25071" />
<rect x="313.56667734781905" y="244" width="61.861517757839636" height="51" fill="#9212A0" />
<rect x="375.4281951056587" y="244" width="61.861517757839636" height="51" fill="#4E03A1" />
<rect x="437.2897128634983" y="244" width="61.861517757839636" height="51" fill="#240691" />
<rect x="499.15123062133796" y="244" width="61.861517757839636" height="51" fill="#300596" />
<rect x="561.0127483791775" y="244" width="61.861517757839636" height="51" fill="#6801A6" />
<rect x="622.8742661370172" y="244" width="61.861517757839636" height="51" fill="#B02A8F" />
<rect x="66.12060631646051" y="295" width="61.861517757839636" height="51" fill="#FBA637" />
<rect x="127.98212407430015" y="295" width="61.861517757839636" height="51" fill="#F99A3E" />
<rect x="189.84364183213978" y="295" width="61.861517757839636" height="51" fill="#EC7754" />
<rect x="251.70515958997942" y="295" width="61.861517757839636" height="51" fill="#CF4C74" />
<rect x="313.56667734781905" y="295" width="61.861517757839636" height="51" fill="#A72296" />
<rect x="375.4281951056587" y="295" width="61.861517757839636" height="51" fill="#7F08A5" />
<rect x="437.2897128634983" y="295" width="61.861517757839636" height="51" fill="#6901A6" />
<rect x="499.15123062133796" y="295" width="61.861517757839636" height="51" fill="#6F01A7" />
<rect x="561.0127483791775" y="295" width="61.861517757839636" height="51" fill="#9010A1" />
<rect x="622.8742661370172" y="295" width="61.861517757839636" height="51" fill="#BA3488" />
<rect x="66.12060631646051" y="346" width="61.861517757839636" height="51" fill="#DA5B68" />
<rect x="127.98212407430015" y="346" width="61.861517757839636" height="51" fill="#D9586A" />
<rect x="189.84364183213978" y="346" width="61.861517757839636" height="51" fill="#D35170" />
<rect x="251.70515958997942" y="346" width="61.861517757839636" height="51" fill="#CB4878" />
<rect x="313.56667734781905" y="346" width="61.861517757839636" height="51" fill="#C33E80" />
<rect x="375.4281951056587" y="346" width="61.861517757839636" height="51" fill="#BC3687" />
<rect x="437.2897128634983" y="346" width="61.861517757839636" height="51" fill="#B8328A" />
<rect x="499.15123062133796" y="346" width="61.861517757839636" height="51" fill="#B93389" />
<rect x="561.0127483791775" y="346" width="61.861517757839636" height="51" fill="#BF3984" />
<rect x="622.8742661370172" y="346" width="61.861517757839636" height="51" fill="#C6427D" />
<rect x="66.12060631646051" y="397" width="61.861517757839636" height="51" fill="#97159F" />
<rect x="127.98212407430015" y="397" width="61.861517757839636" height="51" fill="#9F1A9C" />
<rect x="189.84364183213978" y="397" width="61.861517757839636" height="51" fill="#B02B8F" />
<rect x="251.70515958997942" y="397" width="61.861517757839636" height="51" fill="#C7437C" />
<rect x="313.56667734781905" y="397" width="61.861517757839636" height="51" fill="#DB5C68" />
<rect x="375.4281951056587" y="397" width="61.861517757839636" height="51" fill="#E87159" />
<rect x="437.2897128634983" y="397" width="61.861517757839636" height="51" fill="#EE7B52" />
<rect x="499.15123062133796" y="397" width="61.861517757839636" height="51" fill="#EC7854" />
<rect x="561.0127483791775" y="397" width="61.861517757839636" height="51" fill="#E3695F" />
<rect x="622.8742661370172" y="397" width="61.861517757839636" height="51" fill="#D35170" />
<rect x="66.12060631646051" y="448" width="61.861517757839636" height="51" fill="#48039F" />
<rect x="127.98212407430015" y="448" width="61.861517757839636" height="51" fill="#5B02A3" />
<rect x="189.84364183213978" y="448" width="61.861517757839636" height="51" fill="#8C0FA2" />
<rect x="251.70515958997942" y="448" width="61.861517757839636" height="51" fill="#C33F80" />
<rect x="313.56667734781905" y="448" width="61.861517757839636" height="51" fill="#EB7655" />
<rect x="375.4281951056587" y="448" width="61.861517757839636" height="51" fill="#FBA736" />
<rect x="437.2897128634983" y="448" width="61.861517757839636" height="51" fill="#FDBE2A" />
<rect x="499.15123062133796" y="448" width="61.861517757839636" height="51" fill="#FCB82E" />
<rect x="561.0127483791775" y="448" width="61.861517757839636" height="51" fill="#F79441" />
<rect x="622.8742661370172" y="448" width="61.861517757839636" height="51" fill="#DC5E66" />
<rect x="66.12060631646051" y="499" width="61.861517757839636" height="51" fill="#100888" />
<rect x="127.98212407430015" y="499" width="61.861517757839636" height="51" fill="#2F0595" />
<rect x="189.84364183213978" y="499" width="61.861517757839636" height="51" fill="#7503A7" />
<rect x="251.70515958997942" y="499" width="61.861517757839636" height="51" fill="#C13C82" />
<rect x="313.56667734781905" y="499" width="61.861517757839636" height="51" fill="#F2854B" />
<rect x="375.4281951056587" y="499" width="61.861517757839636" height="51" fill="#FDC528" />
<rect x="437.2897128634983" y="499" width="61.861517757839636" height="51" fill="#F2F222" />
<rect x="499.15123062133796" y="499" width="61.861517757839636" height="51" fill="#F5E524" />
<rect x="561.0127483791775" y="499" width="61.861517757839636" height="51" fill="#FCAC33" />
<rect x="622.8742661370172" y="499" width="61.861517757839636" height="51" fill="#E16561" />
<g class="spine">
<line x1="66.12060631646051" y1="550" x2="684.7357838948569" y2="550" stroke="#262626" stroke-width="0.8" />
</g>
<g class="spine">
<line x1="66.12060631646051" y1="40" x2="684.7357838948569" y2="40" stroke="#262626" stroke-width="0.8" />
</g>
<g class="spine">
<line x1="66.12060631646051" y1="40" x2="66.12060631646051" y2="550" stroke="#262626" stroke-width="0.8" />
</g>
<g class="spine">
<line x1="684.7357838948569" y1="40" x2="684.7357838948569" y2="550" stroke="#262626" stroke-width="0.8" />
</g>
<g class="colorbar" aria-label="Color bar">
<rect x="694.7357838948569" y="40" width="20" height="11.2" fill="#F0F921" />
<rect x="694.7357838948569" y="50.2" width="20" height="11.2" fill="#F2EF22" />
<rect x="694.7357838948569" y="60.4" width="20" height="11.2" fill="#F5E624" />
<rect x="694.7357838948569" y="70.6" width="20" height="11.2" fill="#F7DC25" />
<rect x="694.7357838948569" y="80.8" width="20" height="11.2" fill="#F9D226" />
<rect x="694.7357838948569" y="91" width="20" height="11.2" fill="#FCC827" />
<rect x="694.7357838948569" y="101.2" width="20" height="11.2" fill="#FDC029" />
<rect x="694.7357838948569" y="111.4" width="20" height="11.2" fill="#FCBA2D" />
<rect x="694.7357838948569" y="121.6" width="20" height="11.2" fill="#FCB330" />
<rect x="694.7357838948569" y="131.8" width="20" height="11.2" fill="#FCAD33" />
<rect x="694.7357838948569" y="142" width="20" height="11.2" fill="#FBA636" />
<rect x="694.7357838948569" y="152.2" width="20" height="11.2" fill="#FBA03A" />
<rect x="694.7357838948569" y="162.4" width="20" height="11.2" fill="#F9993E" />
<rect x="694.7357838948569" y="172.6" width="20" height="11.2" fill="#F69242" />
<rect x="694.7357838948569" y="182.8" width="20" height="11.2" fill="#F48B47" />
<rect x="694.7357838948569" y="193" width="20" height="11.2" fill="#F1844C" />
<rect x="694.7357838948569" y="203.2" width="20" height="11.2" fill="#EF7E50" />
<rect x="694.7357838948569" y="213.4" width="20" height="11.2" fill="#EC7754" />
<rect x="694.7357838948569" y="223.6" width="20" height="11.2" fill="#E87159" />
<rect x="694.7357838948569" y="233.8" width="20" height="11.2" fill="#E46B5D" />
<rect x="694.7357838948569" y="244" width="20" height="11.2" fill="#E06561" />
<rect x="694.7357838948569" y="254.2" width="20" height="11.2" fill="#DD5E66" />
<rect x="694.7357838948569" y="264.4" width="20" height="11.2" fill="#D9586A" />
<rect x="694.7357838948569" y="274.6" width="20" height="11.2" fill="#D4536F" />
<rect x="694.7357838948569" y="284.8" width="20" height="11.2" fill="#CF4D74" />
<rect x="694.7357838948569" y="295" width="20" height="11.2" fill="#CA4778" />
<rect x="694.7357838948569" y="305.2" width="20" height="11.2" fill="#C6417D" />
<rect x="694.7357838948569" y="315.4" width="20" height="11.2" fill="#C13B82" />
<rect x="694.7357838948569" y="325.6" width="20" height="11.2" fill="#BC3687" />
<rect x="694.7357838948569" y="335.8" width="20" height="11.2" fill="#B6308B" />
<rect x="694.7357838948569" y="346" width="20" height="11.2" fill="#B02A90" />
<rect x="694.7357838948569" y="356.2" width="20" height="11.2" fill="#AA2494" />
<rect x="694.7357838948569" y="366.4" width="20" height="11.2" fill="#A41F98" />
<rect x="694.7357838948569" y="376.6" width="20" height="11.2" fill="#9E199D" />
<rect x="694.7357838948569" y="386.8" width="20" height="11.2" fill="#97149F" />
<rect x="694.7357838948569" y="397" width="20" height="11.2" fill="#8F10A1" />
<rect x="694.7357838948569" y="407.2" width="20" height="11.2" fill="#880CA3" />
<rect x="694.7357838948569" y="417.4" width="20" height="11.2" fill="#8008A5" />
<rect x="694.7357838948569" y="427.6" width="20" height="11.2" fill="#7905A6" />
<rect x="694.7357838948569" y="437.8" width="20" height="11.2" fill="#7101A8" />
<rect x="694.7357838948569" y="448" width="20" height="11.2" fill="#6901A6" />
<rect x="694.7357838948569" y="458.2" width="20" height="11.2" fill="#6102A5" />
<rect x="694.7357838948569" y="468.4" width="20" height="11.2" fill="#5902A3" />
<rect x="694.7357838948569" y="478.6" width="20" height="11.2" fill="#5102A1" />
<rect x="694.7357838948569" y="488.8" width="20" height="11.2" fill="#4A03A0" />
<rect x="694.7357838948569" y="499" width="20" height="11.2" fill="#40049D" />
<rect x="694.7357838948569" y="509.2" width="20" height="11.2" fill="#360498" />
<rect x="694.7357838948569" y="519.4" width="20" height="11.2" fill="#2C0594" />
<rect x="694.7357838948569" y="529.6" width="20" height="11.2" fill="#220690" />
<rect x="694.7357838948569" y="539.8" width="20" height="11.2" fill="#17078B" />
<rect x="694.7357838948569" y="40" width="20" height="510" fill="none" stroke="#262626" stroke-width="0.5" />
<path d="M1.72255 -1.15289L3.9605 -1.15289L3.9605 -8.87722L1.52588 -8.38894L1.52588 -9.63677L3.94694 -10.1251L5.31684 -10.1251L5.31684 -1.15289L7.5548 -1.15289L7.5548 0L1.72255 0L1.72255 -1.15289Z" fill="#262626" transform="translate(718.7357838948569,44)" />
<path d="M1.72255 -1.15289L3.9605 -1.15289L3.9605 -8.87722L1.52588 -8.38894L1.52588 -9.63677L3.94694 -10.1251L5.31684 -10.1251L5.31684 -1.15289L7.5548 -1.15289L7.5548 0L1.72255 0L1.72255 -1.15289Z" fill="#262626" transform="translate(718.7357838948569,146)" />
<path d="M4.41488 -9.22309Q3.35693 -9.22309 2.82457 -8.1821Q2.29221 -7.14111 2.29221 -5.05235Q2.29221 -2.97038 2.82457 -1.92939Q3.35693 -0.888401 4.41488 -0.888401Q5.4796 -0.888401 6.01196 -1.92939Q6.54433 -2.97038 6.54433 -5.05235Q6.54433 -7.14111 6.01196 -8.1821Q5.4796 -9.22309 4.41488 -9.22309ZM4.41488 -10.3082Q6.11708 -10.3082 7.01565 -8.962Q7.91422 -7.61583 7.91423 -5.05235Q7.91423 -2.49566 7.01565 -1.1495Q6.11708 0.196669 4.41488 0.196669Q2.71267 0.196669 1.8141 -1.1495Q0.915527 -2.49566 0.915527 -5.05235Q0.915527 -7.61583 1.8141 -8.962Q2.71267 -10.3082 4.41488 -10.3082Z" fill="#262626" transform="translate(718.7357838948569,248)" />
<path d="M0.678168 -4.36062L4.3335 -4.36062L4.3335 -3.24843L0.678168 -3.24843L0.678168 -4.36062ZM9.42654 -9.22309Q8.3686 -9.22309 7.83624 -8.1821Q7.30387 -7.14111 7.30387 -5.05235Q7.30387 -2.97038 7.83624 -1.92939Q8.3686 -0.888401 9.42654 -0.888401Q10.4913 -0.888401 11.0236 -1.92939Q11.556 -2.97038 11.556 -5.05235Q11.556 -7.14111 11.0236 -8.1821Q10.4913 -9.22309 9.42654 -9.22309ZM9.42654 -10.3082Q11.1287 -10.3082 12.0273 -8.962Q12.9259 -7.61583 12.9259 -5.05235Q12.9259 -2.49566 12.0273 -1.1495Q11.1287 0.196669 9.42654 0.196669Q7.72434 0.196669 6.82577 -1.1495Q5.92719 -2.49566 5.92719 -5.05235Q5.92719 -7.61583 6.82577 -8.962Q7.72434 -10.3082 9.42654 -10.3082Z" fill="#262626" transform="translate(718.7357838948569,350)" />
<path d="M0.678168 -4.36062L4.3335 -4.36062L4.3335 -3.24843L0.678168 -3.24843L0.678168 -4.36062ZM6.73421 -1.15289L8.97217 -1.15289L8.97217 -8.87722L6.53754 -8.38894L6.53754 -9.63677L8.9586 -10.1251L10.3285 -10.1251L10.3285 -1.15289L12.5665 -1.15289L12.5665 0L6.73421 0L6.73421 -1.15289Z" fill="#262626" transform="translate(718.7357838948569,452)" />
<path d="M0.678168 -4.36062L4.3335 -4.36062L4.3335 -3.24843L0.678168 -3.24843L0.678168 -4.36062ZM6.73421 -1.15289L8.97217 -1.15289L8.97217 -8.87722L6.53754 -8.38894L6.53754 -9.63677L8.9586 -10.1251L10.3285 -10.1251L10.3285 -1.15289L12.5665 -1.15289L12.5665 0L6.73421 0L6.73421 -1.15289Z" fill="#262626" transform="translate(718.7357838948569,554)" />
<path d="M1.36312 -10.1251L2.73302 -10.1251L2.73302 0L1.36312 0L1.36312 -10.1251ZM11.7188 -4.58442L11.7188 0L10.4709 0L10.4709 -4.54373Q10.4709 -5.62202 10.0505 -6.15777Q9.62999 -6.69352 8.78906 -6.69352Q7.77859 -6.69352 7.19537 -6.04926Q6.61214 -5.405 6.61214 -4.29281L6.61214 0L5.35753 0L5.35753 -7.59549L6.61214 -7.59549L6.61214 -6.41547Q7.05973 -7.10042 7.66669 -7.43951Q8.27365 -7.77859 9.06711 -7.77859Q10.376 -7.77859 11.0474 -6.96818Q11.7188 -6.15777 11.7188 -4.58442ZM15.4419 -9.75206L15.4419 -7.59549L18.0122 -7.59549L18.0122 -6.62571L15.4419 -6.62571L15.4419 -2.50244Q15.4419 -1.57335 15.6962 -1.30887Q15.9505 -1.04438 16.7304 -1.04438L18.0122 -1.04438L18.0122 0L16.7304 0Q15.2859 0 14.7366 -0.539144Q14.1873 -1.07829 14.1873 -2.50244L14.1873 -6.62571L13.2718 -6.62571L13.2718 -7.59549L14.1873 -7.59549L14.1873 -9.75206L15.4419 -9.75206ZM26.1502 -4.1097L26.1502 -3.49935L20.4129 -3.49935Q20.4942 -2.21083 21.1894 -1.53605Q21.8845 -0.861274 23.1255 -0.861274Q23.8444 -0.861274 24.5192 -1.0376Q25.194 -1.21392 25.8586 -1.56657L25.8586 -0.386556Q25.1872 -0.101725 24.4819 0.0474718Q23.7766 0.196669 23.0509 0.196669Q21.2335 0.196669 20.1721 -0.861274Q19.1108 -1.91922 19.1108 -3.72314Q19.1108 -5.58811 20.1179 -6.68335Q21.1249 -7.77859 22.8339 -7.77859Q24.3666 -7.77859 25.2584 -6.79186Q26.1502 -5.80512 26.1502 -4.1097ZM24.9023 -4.47591Q24.8888 -5.49995 24.3293 -6.1103Q23.7698 -6.72065 22.8475 -6.72065Q21.8031 -6.72065 21.1758 -6.13064Q20.5485 -5.54064 20.4536 -4.46913L24.9023 -4.47591ZM34.512 -4.58442L34.512 0L33.2642 0L33.2642 -4.54373Q33.2642 -5.62202 32.8437 -6.15777Q32.4232 -6.69352 31.5823 -6.69352Q30.5718 -6.69352 29.9886 -6.04926Q29.4054 -5.405 29.4054 -4.29281L29.4054 0L28.1508 0L28.1508 -7.59549L29.4054 -7.59549L29.4054 -6.41547Q29.853 -7.10042 30.4599 -7.43951Q31.0669 -7.77859 31.8604 -7.77859Q33.1692 -7.77859 33.8406 -6.96818Q34.512 -6.15777 34.512 -4.58442ZM41.843 -7.37169L41.843 -6.19168Q41.314 -6.46294 40.7444 -6.59858Q40.1747 -6.73421 39.5643 -6.73421Q38.6353 -6.73421 38.1707 -6.44938Q37.7062 -6.16455 37.7062 -5.59489Q37.7062 -5.16086 38.0385 -4.91333Q38.3708 -4.6658 39.3745 -4.442L39.8017 -4.34706Q41.1309 -4.06223 41.6904 -3.54343Q42.2499 -3.02463 42.2499 -2.09554Q42.2499 -1.0376 41.4124 -0.420464Q40.5748 0.196669 39.11 0.196669Q38.4996 0.196669 37.8384 0.0779894Q37.1772 -0.0406901 36.4448 -0.278049L36.4448 -1.56657Q37.1365 -1.20714 37.8079 -1.02743Q38.4793 -0.84771 39.1371 -0.847711Q40.0187 -0.847711 40.4934 -1.1495Q40.9682 -1.45128 40.9682 -2.0006Q40.9682 -2.50922 40.6257 -2.78049Q40.2832 -3.05176 39.1235 -3.30268L38.6895 -3.40441Q37.5298 -3.64855 37.0144 -4.15378Q36.499 -4.65902 36.499 -5.54064Q36.499 -6.61214 37.2586 -7.19537Q38.0181 -7.77859 39.4151 -7.77859Q40.1069 -7.77859 40.7172 -7.67687Q41.3276 -7.57514 41.843 -7.37169ZM44.2369 -7.59549L45.4848 -7.59549L45.4848 0L44.2369 0L44.2369 -7.59549ZM44.2369 -10.5523L45.4848 -10.5523L45.4848 -8.97217L44.2369 -8.97217L44.2369 -10.5523ZM49.33 -9.75206L49.33 -7.59549L51.9002 -7.59549L51.9002 -6.62571L49.33 -6.62571L49.33 -2.50244Q49.33 -1.57335 49.5843 -1.30887Q49.8386 -1.04438 50.6185 -1.04438L51.9002 -1.04438L51.9002 0L50.6185 0Q49.174 0 48.6247 -0.539144Q48.0754 -1.07829 48.0754 -2.50244L48.0754 -6.62571L47.1598 -6.62571L47.1598 -7.59549L48.0754 -7.59549L48.0754 -9.75206L49.33 -9.75206ZM56.7017 0.705295Q56.1727 2.06163 55.6708 2.47531Q55.169 2.889 54.3281 2.889L53.3312 2.889L53.3312 1.84462L54.0636 1.84462Q54.579 1.84462 54.8638 1.60048Q55.1487 1.35634 55.4945 0.447591L55.7183 -0.12207L52.6462 -7.59549L53.9686 -7.59549L56.3422 -1.65473L58.7158 -7.59549L60.0383 -7.59549L56.7017 0.705295Z" fill="#262626" transform="translate(740.5839837392173,295) rotate(-90) translate(-30.225969314575195,0)" />
</g>
<path d="M1.45855 -11.5831L4.44548 -11.5831L4.44548 -7.16862L8.85216 -7.16862L8.85216 -11.5831L11.8391 -11.5831L11.8391 0L8.85216 0L8.85216 -4.91097L4.44548 -4.91097L4.44548 0L1.45855 0L1.45855 -11.5831ZM23.3058 -4.36789L23.3058 -3.57655L16.8121 -3.57655Q16.913 -2.59901 17.5181 -2.11024Q18.1233 -1.62147 19.2094 -1.62147Q20.0861 -1.62147 21.0055 -1.88137Q21.9248 -2.14128 22.8946 -2.66884L22.8946 -0.527561Q21.9093 -0.155165 20.924 0.0349121Q19.9387 0.224989 18.9534 0.224989Q16.5949 0.224989 15.2876 -0.97366Q13.9804 -2.17231 13.9804 -4.33686Q13.9804 -6.46262 15.2644 -7.68066Q16.5483 -8.89871 18.7982 -8.89871Q20.8464 -8.89871 22.0761 -7.66515Q23.3058 -6.43159 23.3058 -4.36789ZM20.4507 -5.29112Q20.4507 -6.08247 19.9891 -6.56736Q19.5275 -7.05225 18.7827 -7.05225Q17.9759 -7.05225 17.4716 -6.59839Q16.9673 -6.14453 16.8432 -5.29112L20.4507 -5.29112ZM29.3029 -3.91016Q28.434 -3.91016 27.9956 -3.61534Q27.5573 -3.32053 27.5573 -2.74642Q27.5573 -2.21886 27.9103 -1.92017Q28.2633 -1.62147 28.8917 -1.62147Q29.6753 -1.62147 30.2106 -2.18395Q30.7459 -2.74642 30.7459 -3.59207L30.7459 -3.91016L29.3029 -3.91016ZM33.5467 -4.95752L33.5467 0L30.7459 0L30.7459 -1.28787Q30.1873 -0.496528 29.4891 -0.135769Q28.7909 0.224989 27.79 0.224989Q26.4401 0.224989 25.5983 -0.562473Q24.7566 -1.34993 24.7566 -2.60677Q24.7566 -4.13515 25.8078 -4.8489Q26.8591 -5.56266 29.1089 -5.56266L30.7459 -5.56266L30.7459 -5.77989Q30.7459 -6.43934 30.2261 -6.7458Q29.7063 -7.05225 28.6047 -7.05225Q27.7125 -7.05225 26.9444 -6.87381Q26.1763 -6.69537 25.5169 -6.33849L25.5169 -8.45649Q26.4091 -8.67372 27.309 -8.78621Q28.209 -8.89871 29.1089 -8.89871Q31.4597 -8.89871 32.5032 -7.9716Q33.5467 -7.04449 33.5467 -4.95752ZM39.1636 -11.1564L39.1636 -8.68924L42.0264 -8.68924L42.0264 -6.70313L39.1636 -6.70313L39.1636 -3.01796Q39.1636 -2.41281 39.4041 -2.19946Q39.6446 -1.98611 40.3584 -1.98611L41.7859 -1.98611L41.7859 0L39.4041 0Q37.7594 0 37.0728 -0.686605Q36.3862 -1.37321 36.3862 -3.01796L36.3862 -6.70313L35.0052 -6.70313L35.0052 -8.68924L36.3862 -8.68924L36.3862 -11.1564L39.1636 -11.1564ZM51.7785 -7.2462Q52.3061 -8.05306 53.0315 -8.47588Q53.7569 -8.89871 54.6258 -8.89871Q56.1232 -8.89871 56.9067 -7.97548Q57.6903 -7.05225 57.6903 -5.29112L57.6903 0L54.8974 0L54.8974 -4.53082Q54.9051 -4.63167 54.909 -4.74029Q54.9129 -4.8489 54.9129 -5.05062Q54.9129 -5.97385 54.6413 -6.38892Q54.3698 -6.80398 53.7646 -6.80398Q52.9733 -6.80398 52.5427 -6.15229Q52.1121 -5.5006 52.0966 -4.26704L52.0966 0L49.3037 0L49.3037 -4.53082Q49.3037 -5.97385 49.0554 -6.38892Q48.8071 -6.80398 48.171 -6.80398Q47.3719 -6.80398 46.9374 -6.14841Q46.5029 -5.49284 46.5029 -4.27479L46.5029 0L43.71 0L43.71 -8.68924L46.5029 -8.68924L46.5029 -7.41688Q47.015 -8.15392 47.6783 -8.52631Q48.3416 -8.89871 49.1407 -8.89871Q50.0407 -8.89871 50.7312 -8.46425Q51.4217 -8.02979 51.7785 -7.2462ZM64.1762 -3.91016Q63.3073 -3.91016 62.869 -3.61534Q62.4306 -3.32053 62.4306 -2.74642Q62.4306 -2.21886 62.7836 -1.92017Q63.1366 -1.62147 63.765 -1.62147Q64.5486 -1.62147 65.0839 -2.18395Q65.6192 -2.74642 65.6192 -3.59207L65.6192 -3.91016L64.1762 -3.91016ZM68.42 -4.95752L68.42 0L65.6192 0L65.6192 -1.28787Q65.0607 -0.496528 64.3624 -0.135769Q63.6642 0.224989 62.6634 0.224989Q61.3134 0.224989 60.4717 -0.562473Q59.6299 -1.34993 59.6299 -2.60677Q59.6299 -4.13515 60.6811 -4.8489Q61.7324 -5.56266 63.9823 -5.56266L65.6192 -5.56266L65.6192 -5.77989Q65.6192 -6.43934 65.0994 -6.7458Q64.5796 -7.05225 63.478 -7.05225Q62.5858 -7.05225 61.8177 -6.87381Q61.0496 -6.69537 60.3902 -6.33849L60.3902 -8.45649Q61.2824 -8.67372 62.1823 -8.78621Q63.0823 -8.89871 63.9823 -8.89871Q66.333 -8.89871 67.3765 -7.9716Q68.42 -7.04449 68.42 -4.95752ZM73.7809 -1.25684L73.7809 3.30501L71.0035 3.30501L71.0035 -8.68924L73.7809 -8.68924L73.7809 -7.41688Q74.355 -8.17719 75.0533 -8.53795Q75.7515 -8.89871 76.6592 -8.89871Q78.2652 -8.89871 79.297 -7.62248Q80.3289 -6.34625 80.3289 -4.33686Q80.3289 -2.32747 79.297 -1.05124Q78.2652 0.224989 76.6592 0.224989Q75.7515 0.224989 75.0533 -0.135769Q74.355 -0.496528 73.7809 -1.25684ZM75.6274 -6.88156Q74.7352 -6.88156 74.2581 -6.22599Q73.7809 -5.57042 73.7809 -4.33686Q73.7809 -3.1033 74.2581 -2.44773Q74.7352 -1.79215 75.6274 -1.79216Q76.5196 -1.79215 76.989 -2.44385Q77.4583 -3.09554 77.4583 -4.33686Q77.4583 -5.57818 76.989 -6.22987Q76.5196 -6.88156 75.6274 -6.88156ZM87.4277 -5.35319L101.61 -5.35319L101.61 -3.35156L87.4277 -3.35156L87.4277 -5.35319ZM109.453 -11.5831L114.411 -11.5831Q116.622 -11.5831 117.805 -10.6016Q118.988 -9.62023 118.988 -7.8048Q118.988 -5.98161 117.805 -5.00019Q116.622 -4.01877 114.411 -4.01877L112.44 -4.01877L112.44 0L109.453 0L109.453 -11.5831ZM112.44 -9.41851L112.44 -6.18332L114.093 -6.18332Q114.962 -6.18332 115.435 -6.60615Q115.908 -7.02897 115.908 -7.8048Q115.908 -8.58062 115.435 -8.99957Q114.962 -9.41851 114.093 -9.41851L112.44 -9.41851ZM120.974 -12.0718L123.752 -12.0718L123.752 0L120.974 0L120.974 -12.0718ZM130.315 -3.91016Q129.446 -3.91016 129.008 -3.61534Q128.57 -3.32053 128.57 -2.74642Q128.57 -2.21886 128.923 -1.92017Q129.276 -1.62147 129.904 -1.62147Q130.688 -1.62147 131.223 -2.18395Q131.758 -2.74642 131.758 -3.59207L131.758 -3.91016L130.315 -3.91016ZM134.559 -4.95752L134.559 0L131.758 0L131.758 -1.28787Q131.2 -0.496528 130.501 -0.135769Q129.803 0.224989 128.802 0.224989Q127.452 0.224989 126.611 -0.562473Q125.769 -1.34993 125.769 -2.60677Q125.769 -4.13515 126.82 -4.8489Q127.871 -5.56266 130.121 -5.56266L131.758 -5.56266L131.758 -5.77989Q131.758 -6.43934 131.238 -6.7458Q130.719 -7.05225 129.617 -7.05225Q128.725 -7.05225 127.957 -6.87381Q127.189 -6.69537 126.529 -6.33849L126.529 -8.45649Q127.421 -8.67372 128.321 -8.78621Q129.221 -8.89871 130.121 -8.89871Q132.472 -8.89871 133.516 -7.9716Q134.559 -7.04449 134.559 -4.95752ZM143.931 -8.4177L143.931 -6.30745Q143.039 -6.67985 142.209 -6.86605Q141.379 -7.05225 140.641 -7.05225Q139.85 -7.05225 139.466 -6.85441Q139.082 -6.65657 139.082 -6.24539Q139.082 -5.91178 139.373 -5.73334Q139.664 -5.5549 140.417 -5.46956L140.905 -5.39974Q143.039 -5.1282 143.776 -4.50754Q144.513 -3.88688 144.513 -2.56022Q144.513 -1.1715 143.489 -0.473253Q142.465 0.224989 140.432 0.224989Q139.571 0.224989 138.652 0.0892198Q137.732 -0.0465495 136.762 -0.318088L136.762 -2.42833Q137.592 -2.0249 138.465 -1.82319Q139.338 -1.62147 140.238 -1.62147Q141.053 -1.62147 141.464 -1.84646Q141.875 -2.07145 141.875 -2.51367Q141.875 -2.88607 141.592 -3.06839Q141.309 -3.25071 140.463 -3.35156L139.974 -3.41363Q138.12 -3.64638 137.375 -4.27479Q136.63 -4.90321 136.63 -6.18332Q136.63 -7.56429 137.577 -8.2315Q138.523 -8.89871 140.479 -8.89871Q141.247 -8.89871 142.092 -8.78234Q142.938 -8.66596 143.931 -8.4177ZM154.653 -7.2462Q155.18 -8.05306 155.906 -8.47588Q156.631 -8.89871 157.5 -8.89871Q158.998 -8.89871 159.781 -7.97548Q160.565 -7.05225 160.565 -5.29112L160.565 0L157.772 0L157.772 -4.53082Q157.779 -4.63167 157.783 -4.74029Q157.787 -4.8489 157.787 -5.05062Q157.787 -5.97385 157.516 -6.38892Q157.244 -6.80398 156.639 -6.80398Q155.848 -6.80398 155.417 -6.15229Q154.986 -5.5006 154.971 -4.26704L154.971 0L152.178 0L152.178 -4.53082Q152.178 -5.97385 151.93 -6.38892Q151.681 -6.80398 151.045 -6.80398Q150.246 -6.80398 149.812 -6.14841Q149.377 -5.49284 149.377 -4.27479L149.377 0L146.584 0L146.584 -8.68924L149.377 -8.68924L149.377 -7.41688Q149.889 -8.15392 150.553 -8.52631Q151.216 -8.89871 152.015 -8.89871Q152.915 -8.89871 153.606 -8.46425Q154.296 -8.02979 154.653 -7.2462ZM167.051 -3.91016Q166.182 -3.91016 165.743 -3.61534Q165.305 -3.32053 165.305 -2.74642Q165.305 -2.21886 165.658 -1.92017Q166.011 -1.62147 166.639 -1.62147Q167.423 -1.62147 167.958 -2.18395Q168.494 -2.74642 168.494 -3.59207L168.494 -3.91016L167.051 -3.91016ZM171.294 -4.95752L171.294 0L168.494 0L168.494 -1.28787Q167.935 -0.496528 167.237 -0.135769Q166.539 0.224989 165.538 0.224989Q164.188 0.224989 163.346 -0.562473Q162.504 -1.34993 162.504 -2.60677Q162.504 -4.13515 163.555 -4.8489Q164.607 -5.56266 166.857 -5.56266L168.494 -5.56266L168.494 -5.77989Q168.494 -6.43934 167.974 -6.7458Q167.454 -7.05225 166.352 -7.05225Q165.46 -7.05225 164.692 -6.87381Q163.924 -6.69537 163.265 -6.33849L163.265 -8.45649Q164.157 -8.67372 165.057 -8.78621Q165.957 -8.89871 166.857 -8.89871Q169.207 -8.89871 170.251 -7.9716Q171.294 -7.04449 171.294 -4.95752Z" fill="#262626" transform="translate(375.4281951056587,32) translate(-86.27169799804688,0)" />
</svg>
