<svg xmlns="http://www.w3.org/2000/svg" viewBox="0 0 800 600" width="800" height="600" role="img" aria-labelledby="chart-title">
<title id="chart-title"></title>
<rect x="0" y="0" width="800" height="600" fill="#FFFFFF" />
<rect x="100" y="72" width="620" height="462" fill="#FFFFFF" />
<line x1="128.1818181818182" y1="533.6" x2="128.1818181818182" y2="538.8611111111111" stroke="#262626" stroke-width="1.1111111111111112" />
<text x="128.1818181818182" y="557.6111111111111" font-family="DejaVu Sans, sans-serif" font-size="13.88888888888889" text-anchor="middle" fill="#262626">0</text>
<line x1="184.54545454545456" y1="533.6" x2="184.54545454545456" y2="538.8611111111111" stroke="#262626" stroke-width="1.1111111111111112" />
<text x="184.54545454545456" y="557.6111111111111" font-family="DejaVu Sans, sans-serif" font-size="13.88888888888889" text-anchor="middle" fill="#262626">0.1</text>
<line x1="240.90909090909093" y1="533.6" x2="240.90909090909093" y2="538.8611111111111" stroke="#262626" stroke-width="1.1111111111111112" />
<text x="240.90909090909093" y="557.6111111111111" font-family="DejaVu Sans, sans-serif" font-size="13.88888888888889" text-anchor="middle" fill="#262626">0.2</text>
<line x1="297.27272727272725" y1="533.6" x2="297.27272727272725" y2="538.8611111111111" stroke="#262626" stroke-width="1.1111111111111112" />
<text x="297.27272727272725" y="557.6111111111111" font-family="DejaVu Sans, sans-serif" font-size="13.88888888888889" text-anchor="middle" fill="#262626">0.3</text>
<line x1="353.6363636363636" y1="533.6" x2="353.6363636363636" y2="538.8611111111111" stroke="#262626" stroke-width="1.1111111111111112" />
<text x="353.6363636363636" y="557.6111111111111" font-family="DejaVu Sans, sans-serif" font-size="13.88888888888889" text-anchor="middle" fill="#262626">0.4</text>
<line x1="410" y1="533.6" x2="410" y2="538.8611111111111" stroke="#262626" stroke-width="1.1111111111111112" />
<text x="410" y="557.6111111111111" font-family="DejaVu Sans, sans-serif" font-size="13.88888888888889" text-anchor="middle" fill="#262626">0.5</text>
<line x1="466.3636363636364" y1="533.6" x2="466.3636363636364" y2="538.8611111111111" stroke="#262626" stroke-width="1.1111111111111112" />
<text x="466.3636363636364" y="557.6111111111111" font-family="DejaVu Sans, sans-serif" font-size="13.88888888888889" text-anchor="middle" fill="#262626">0.6</text>
<line x1="522.7272727272727" y1="533.6" x2="522.7272727272727" y2="538.8611111111111" stroke="#262626" stroke-width="1.1111111111111112" />
<text x="522.7272727272727" y="557.6111111111111" font-family="DejaVu Sans, sans-serif" font-size="13.88888888888889" text-anchor="middle" fill="#262626">0.7</text>
<line x1="579.0909090909091" y1="533.6" x2="579.0909090909091" y2="538.8611111111111" stroke="#262626" stroke-width="1.1111111111111112" />
<text x="579.0909090909091" y="557.6111111111111" font-family="DejaVu Sans, sans-serif" font-size="13.88888888888889" text-anchor="middle" fill="#262626">0.8</text>
<line x1="635.4545454545455" y1="533.6" x2="635.4545454545455" y2="538.8611111111111" stroke="#262626" stroke-width="1.1111111111111112" />
<text x="635.4545454545455" y="557.6111111111111" font-family="DejaVu Sans, sans-serif" font-size="13.88888888888889" text-anchor="middle" fill="#262626">0.9</text>
<line x1="691.8181818181818" y1="533.6" x2="691.8181818181818" y2="538.8611111111111" stroke="#262626" stroke-width="1.1111111111111112" />
<text x="691.8181818181818" y="557.6111111111111" font-family="DejaVu Sans, sans-serif" font-size="13.88888888888889" text-anchor="middle" fill="#262626">1</text>
<line x1="105.63636363636364" y1="533.6" x2="105.63636363636364" y2="538.8611111111111" stroke="#262626" stroke-width="1.1111111111111112" />
<line x1="116.9090909090909" y1="533.6" x2="116.9090909090909" y2="538.8611111111111" stroke="#262626" stroke-width="1.1111111111111112" />
<line x1="139.45454545454547" y1="533.6" x2="139.45454545454547" y2="538.8611111111111" stroke="#262626" stroke-width="1.1111111111111112" />
<line x1="150.72727272727275" y1="533.6" x2="150.72727272727275" y2="538.8611111111111" stroke="#262626" stroke-width="1.1111111111111112" />
<line x1="162" y1="533.6" x2="162" y2="538.8611111111111" stroke="#262626" stroke-width="1.1111111111111112" />
<line x1="173.27272727272728" y1="533.6" x2="173.27272727272728" y2="538.8611111111111" stroke="#262626" stroke-width="1.1111111111111112" />
<line x1="195.8181818181818" y1="533.6" x2="195.8181818181818" y2="538.8611111111111" stroke="#262626" stroke-width="1.1111111111111112" />
<line x1="207.09090909090912" y1="533.6" x2="207.09090909090912" y2="538.8611111111111" stroke="#262626" stroke-width="1.1111111111111112" />
<line x1="218.36363636363637" y1="533.6" x2="218.36363636363637" y2="538.8611111111111" stroke="#262626" stroke-width="1.1111111111111112" />
<line x1="229.63636363636363" y1="533.6" x2="229.63636363636363" y2="538.8611111111111" stroke="#262626" stroke-width="1.1111111111111112" />
<line x1="252.1818181818182" y1="533.6" x2="252.1818181818182" y2="538.8611111111111" stroke="#262626" stroke-width="1.1111111111111112" />
<line x1="263.45454545454544" y1="533.6" x2="263.45454545454544" y2="538.8611111111111" stroke="#262626" stroke-width="1.1111111111111112" />
<line x1="274.72727272727275" y1="533.6" x2="274.72727272727275" y2="538.8611111111111" stroke="#262626" stroke-width="1.1111111111111112" />
<line x1="286" y1="533.6" x2="286" y2="538.8611111111111" stroke="#262626" stroke-width="1.1111111111111112" />
<line x1="308.54545454545456" y1="533.6" x2="308.54545454545456" y2="538.8611111111111" stroke="#262626" stroke-width="1.1111111111111112" />
<line x1="319.81818181818187" y1="533.6" x2="319.81818181818187" y2="538.8611111111111" stroke="#262626" stroke-width="1.1111111111111112" />
<line x1="331.0909090909091" y1="533.6" x2="331.0909090909091" y2="538.8611111111111" stroke="#262626" stroke-width="1.1111111111111112" />
<line x1="342.3636363636364" y1="533.6" x2="342.3636363636364" y2="538.8611111111111" stroke="#262626" stroke-width="1.1111111111111112" />
<line x1="364.9090909090909" y1="533.6" x2="364.9090909090909" y2="538.8611111111111" stroke="#262626" stroke-width="1.1111111111111112" />
<line x1="376.1818181818182" y1="533.6" x2="376.1818181818182" y2="538.8611111111111" stroke="#262626" stroke-width="1.1111111111111112" />
<line x1="387.45454545454544" y1="533.6" x2="387.45454545454544" y2="538.8611111111111" stroke="#262626" stroke-width="1.1111111111111112" />
<line x1="398.7272727272727" y1="533.6" x2="398.7272727272727" y2="538.8611111111111" stroke="#262626" stroke-width="1.1111111111111112" />
<line x1="421.2727272727273" y1="533.6" x2="421.2727272727273" y2="538.8611111111111" stroke="#262626" stroke-width="1.1111111111111112" />
<line x1="432.54545454545456" y1="533.6" x2="432.54545454545456" y2="538.8611111111111" stroke="#262626" stroke-width="1.1111111111111112" />
<line x1="443.81818181818187" y1="533.6" x2="443.81818181818187" y2="538.8611111111111" stroke="#262626" stroke-width="1.1111111111111112" />
<line x1="455.09090909090907" y1="533.6" x2="455.09090909090907" y2="538.8611111111111" stroke="#262626" stroke-width="1.1111111111111112" />
<line x1="477.6363636363636" y1="533.6" x2="477.6363636363636" y2="538.8611111111111" stroke="#262626" stroke-width="1.1111111111111112" />
<line x1="488.90909090909093" y1="533.6" x2="488.90909090909093" y2="538.8611111111111" stroke="#262626" stroke-width="1.1111111111111112" />
<line x1="500.1818181818182" y1="533.6" x2="500.1818181818182" y2="538.8611111111111" stroke="#262626" stroke-width="1.1111111111111112" />
<line x1="511.4545454545455" y1="533.6" x2="511.4545454545455" y2="538.8611111111111" stroke="#262626" stroke-width="1.1111111111111112" />
<line x1="534" y1="533.6" x2="534" y2="538.8611111111111" stroke="#262626" stroke-width="1.1111111111111112" />
<line x1="545.2727272727273" y1="533.6" x2="545.2727272727273" y2="538.8611111111111" stroke="#262626" stroke-width="1.1111111111111112" />
<line x1="556.5454545454545" y1="533.6" x2="556.5454545454545" y2="538.8611111111111" stroke="#262626" stroke-width="1.1111111111111112" />
<line x1="567.8181818181818" y1="533.6" x2="567.8181818181818" y2="538.8611111111111" stroke="#262626" stroke-width="1.1111111111111112" />
<line x1="590.3636363636363" y1="533.6" x2="590.3636363636363" y2="538.8611111111111" stroke="#262626" stroke-width="1.1111111111111112" />
<line x1="601.6363636363636" y1="533.6" x2="601.6363636363636" y2="538.8611111111111" stroke="#262626" stroke-width="1.1111111111111112" />
<line x1="612.9090909090909" y1="533.6" x2="612.9090909090909" y2="538.8611111111111" stroke="#262626" stroke-width="1.1111111111111112" />
<line x1="624.1818181818182" y1="533.6" x2="624.1818181818182" y2="538.8611111111111" stroke="#262626" stroke-width="1.1111111111111112" />
<line x1="646.7272727272727" y1="533.6" x2="646.7272727272727" y2="538.8611111111111" stroke="#262626" stroke-width="1.1111111111111112" />
<line x1="658" y1="533.6" x2="658" y2="538.8611111111111" stroke="#262626" stroke-width="1.1111111111111112" />
<line x1="669.2727272727273" y1="533.6" x2="669.2727272727273" y2="538.8611111111111" stroke="#262626" stroke-width="1.1111111111111112" />
<line x1="680.5454545454545" y1="533.6" x2="680.5454545454545" y2="538.8611111111111" stroke="#262626" stroke-width="1.1111111111111112" />
<line x1="703.090909090909" y1="533.6" x2="703.090909090909" y2="538.8611111111111" stroke="#262626" stroke-width="1.1111111111111112" />
<line x1="714.3636363636365" y1="533.6" x2="714.3636363636365" y2="538.8611111111111" stroke="#262626" stroke-width="1.1111111111111112" />
<line x1="95.13888888888889" y1="513" x2="100.4" y2="513" stroke="#262626" stroke-width="1.1111111111111112" />
<text x="90.27777777777777" y="517" font-family="DejaVu Sans, sans-serif" font-size="13.88888888888889" text-anchor="end" fill="#262626">0</text>
<line x1="95.13888888888889" y1="471" x2="100.4" y2="471" stroke="#262626" stroke-width="1.1111111111111112" />
<text x="90.27777777777777" y="475" font-family="DejaVu Sans, sans-serif" font-size="13.88888888888889" text-anchor="end" fill="#262626">0.1</text>
<line x1="95.13888888888889" y1="429" x2="100.4" y2="429" stroke="#262626" stroke-width="1.1111111111111112" />
<text x="90.27777777777777" y="433" font-family="DejaVu Sans, sans-serif" font-size="13.88888888888889" text-anchor="end" fill="#262626">0.2</text>
<line x1="95.13888888888889" y1="387" x2="100.4" y2="387" stroke="#262626" stroke-width="1.1111111111111112" />
<text x="90.27777777777777" y="391" font-family="DejaVu Sans, sans-serif" font-size="13.88888888888889" text-anchor="end" fill="#262626">0.3</text>
<line x1="95.13888888888889" y1="345" x2="100.4" y2="345" stroke="#262626" stroke-width="1.1111111111111112" />
<text x="90.27777777777777" y="349" font-family="DejaVu Sans, sans-serif" font-size="13.88888888888889" text-anchor="end" fill="#262626">0.4</text>
<line x1="95.13888888888889" y1="303" x2="100.4" y2="303" stroke="#262626" stroke-width="1.1111111111111112" />
<text x="90.27777777777777" y="307" font-family="DejaVu Sans, sans-serif" font-size="13.88888888888889" text-anchor="end" fill="#262626">0.5</text>
<line x1="95.13888888888889" y1="261.00000000000006" x2="100.4" y2="261.00000000000006" stroke="#262626" stroke-width="1.1111111111111112" />
<text x="90.27777777777777" y="265.00000000000006" font-family="DejaVu Sans, sans-serif" font-size="13.88888888888889" text-anchor="end" fill="#262626">0.6</text>
<line x1="95.13888888888889" y1="219.00000000000006" x2="100.4" y2="219.00000000000006" stroke="#262626" stroke-width="1.1111111111111112" />
<text x="90.27777777777777" y="223.00000000000006" font-family="DejaVu Sans, sans-serif" font-size="13.88888888888889" text-anchor="end" fill="#262626">0.7</text>
<line x1="95.13888888888889" y1="177" x2="100.4" y2="177" stroke="#262626" stroke-width="1.1111111111111112" />
<text x="90.27777777777777" y="181" font-family="DejaVu Sans, sans-serif" font-size="13.88888888888889" text-anchor="end" fill="#262626">0.8</text>
<line x1="95.13888888888889" y1="135.00000000000006" x2="100.4" y2="135.00000000000006" stroke="#262626" stroke-width="1.1111111111111112" />
<text x="90.27777777777777" y="139.00000000000006" font-family="DejaVu Sans, sans-serif" font-size="13.88888888888889" text-anchor="end" fill="#262626">0.9</text>
<line x1="95.13888888888889" y1="93.00000000000006" x2="100.4" y2="93.00000000000006" stroke="#262626" stroke-width="1.1111111111111112" />
<text x="90.27777777777777" y="97.00000000000006" font-family="DejaVu Sans, sans-serif" font-size="13.88888888888889" text-anchor="end" fill="#262626">1</text>
<line x1="95.13888888888889" y1="529.8" x2="100.4" y2="529.8" stroke="#262626" stroke-width="1.1111111111111112" />
<line x1="95.13888888888889" y1="521.4" x2="100.4" y2="521.4" stroke="#262626" stroke-width="1.1111111111111112" />
<line x1="95.13888888888889" y1="504.6" x2="100.4" y2="504.6" stroke="#262626" stroke-width="1.1111111111111112" />
<line x1="95.13888888888889" y1="496.2" x2="100.4" y2="496.2" stroke="#262626" stroke-width="1.1111111111111112" />
<line x1="95.13888888888889" y1="487.8" x2="100.4" y2="487.8" stroke="#262626" stroke-width="1.1111111111111112" />
<line x1="95.13888888888889" y1="479.4" x2="100.4" y2="479.4" stroke="#262626" stroke-width="1.1111111111111112" />
<line x1="95.13888888888889" y1="462.6" x2="100.4" y2="462.6" stroke="#262626" stroke-width="1.1111111111111112" />
<line x1="95.13888888888889" y1="454.2" x2="100.4" y2="454.2" stroke="#262626" stroke-width="1.1111111111111112" />
<line x1="95.13888888888889" y1="445.8" x2="100.4" y2="445.8" stroke="#262626" stroke-width="1.1111111111111112" />
<line x1="95.13888888888889" y1="437.40000000000003" x2="100.4" y2="437.40000000000003" stroke="#262626" stroke-width="1.1111111111111112" />
<line x1="95.13888888888889" y1="420.6" x2="100.4" y2="420.6" stroke="#262626" stroke-width="1.1111111111111112" />
<line x1="95.13888888888889" y1="412.20000000000005" x2="100.4" y2="412.20000000000005" stroke="#262626" stroke-width="1.1111111111111112" />
<line x1="95.13888888888889" y1="403.8" x2="100.4" y2="403.8" stroke="#262626" stroke-width="1.1111111111111112" />
<line x1="95.13888888888889" y1="395.4" x2="100.4" y2="395.4" stroke="#262626" stroke-width="1.1111111111111112" />
<line x1="95.13888888888889" y1="378.6" x2="100.4" y2="378.6" stroke="#262626" stroke-width="1.1111111111111112" />
<line x1="95.13888888888889" y1="370.20000000000005" x2="100.4" y2="370.20000000000005" stroke="#262626" stroke-width="1.1111111111111112" />
<line x1="95.13888888888889" y1="361.80000000000007" x2="100.4" y2="361.80000000000007" stroke="#262626" stroke-width="1.1111111111111112" />
<line x1="95.13888888888889" y1="353.4" x2="100.4" y2="353.4" stroke="#262626" stroke-width="1.1111111111111112" />
<line x1="95.13888888888889" y1="336.6" x2="100.4" y2="336.6" stroke="#262626" stroke-width="1.1111111111111112" />
<line x1="95.13888888888889" y1="328.20000000000005" x2="100.4" y2="328.20000000000005" stroke="#262626" stroke-width="1.1111111111111112" />
<line x1="95.13888888888889" y1="319.8" x2="100.4" y2="319.8" stroke="#262626" stroke-width="1.1111111111111112" />
<line x1="95.13888888888889" y1="311.40000000000003" x2="100.4" y2="311.40000000000003" stroke="#262626" stroke-width="1.1111111111111112" />
<line x1="95.13888888888889" y1="294.6" x2="100.4" y2="294.6" stroke="#262626" stroke-width="1.1111111111111112" />
<line x1="95.13888888888889" y1="286.20000000000005" x2="100.4" y2="286.20000000000005" stroke="#262626" stroke-width="1.1111111111111112" />
<line x1="95.13888888888889" y1="277.8" x2="100.4" y2="277.8" stroke="#262626" stroke-width="1.1111111111111112" />
<line x1="95.13888888888889" y1="269.4000000000001" x2="100.4" y2="269.4000000000001" stroke="#262626" stroke-width="1.1111111111111112" />
<line x1="95.13888888888889" y1="252.60000000000002" x2="100.4" y2="252.60000000000002" stroke="#262626" stroke-width="1.1111111111111112" />
<line x1="95.13888888888889" y1="244.20000000000005" x2="100.4" y2="244.20000000000005" stroke="#262626" stroke-width="1.1111111111111112" />
<line x1="95.13888888888889" y1="235.8" x2="100.4" y2="235.8" stroke="#262626" stroke-width="1.1111111111111112" />
<line x1="95.13888888888889" y1="227.40000000000003" x2="100.4" y2="227.40000000000003" stroke="#262626" stroke-width="1.1111111111111112" />
<line x1="95.13888888888889" y1="210.60000000000008" x2="100.4" y2="210.60000000000008" stroke="#262626" stroke-width="1.1111111111111112" />
<line x1="95.13888888888889" y1="202.20000000000005" x2="100.4" y2="202.20000000000005" stroke="#262626" stroke-width="1.1111111111111112" />
<line x1="95.13888888888889" y1="193.8" x2="100.4" y2="193.8" stroke="#262626" stroke-width="1.1111111111111112" />
<line x1="95.13888888888889" y1="185.40000000000003" x2="100.4" y2="185.40000000000003" stroke="#262626" stroke-width="1.1111111111111112" />
<line x1="95.13888888888889" y1="168.60000000000008" x2="100.4" y2="168.60000000000008" stroke="#262626" stroke-width="1.1111111111111112" />
<line x1="95.13888888888889" y1="160.20000000000005" x2="100.4" y2="160.20000000000005" stroke="#262626" stroke-width="1.1111111111111112" />
<line x1="95.13888888888889" y1="151.80000000000007" x2="100.4" y2="151.80000000000007" stroke="#262626" stroke-width="1.1111111111111112" />
<line x1="95.13888888888889" y1="143.40000000000003" x2="100.4" y2="143.40000000000003" stroke="#262626" stroke-width="1.1111111111111112" />
<line x1="95.13888888888889" y1="126.60000000000002" x2="100.4" y2="126.60000000000002" stroke="#262626" stroke-width="1.1111111111111112" />
<line x1="95.13888888888889" y1="118.2000000000001" x2="100.4" y2="118.2000000000001" stroke="#262626" stroke-width="1.1111111111111112" />
<line x1="95.13888888888889" y1="109.80000000000007" x2="100.4" y2="109.80000000000007" stroke="#262626" stroke-width="1.1111111111111112" />
<line x1="95.13888888888889" y1="101.40000000000009" x2="100.4" y2="101.40000000000009" stroke="#262626" stroke-width="1.1111111111111112" />
<line x1="95.13888888888889" y1="84.60000000000002" x2="100.4" y2="84.60000000000002" stroke="#262626" stroke-width="1.1111111111111112" />
<line x1="95.13888888888889" y1="76.20000000000005" x2="100.4" y2="76.20000000000005" stroke="#262626" stroke-width="1.1111111111111112" />
<rect x="100" y="72" width="62" height="46.2" fill="#CA4679" />
<rect x="162" y="72" width="62" height="46.2" fill="#CA4679" />
<rect x="224" y="72" width="62" height="46.2" fill="#CA4679" />
<rect x="286" y="72" width="62" height="46.2" fill="#CA4679" />
<rect x="348" y="72" width="62" height="46.2" fill="#CA4679" />
<rect x="410" y="72" width="62" height="46.2" fill="#CA4679" />
<rect x="472" y="72" width="62" height="46.2" fill="#CA4679" />
<rect x="534" y="72" width="62" height="46.2" fill="#CA4679" />
<rect x="596" y="72" width="62" height="46.2" fill="#CA4679" />
<rect x="658" y="72" width="62" height="46.2" fill="#CA4679" />
<rect x="100" y="118.2" width="62" height="46.2" fill="#F69243" />
<rect x="162" y="118.2" width="62" height="46.2" fill="#F28849" />
<rect x="224" y="118.2" width="62" height="46.2" fill="#E66D5B" />
<rect x="286" y="118.2" width="62" height="46.2" fill="#CE4B75" />
<rect x="348" y="118.2" width="62" height="46.2" fill="#AF2990" />
<rect x="410" y="118.2" width="62" height="46.2" fill="#9111A1" />
<rect x="472" y="118.2" width="62" height="46.2" fill="#8008A5" />
<rect x="534" y="118.2" width="62" height="46.2" fill="#850BA4" />
<rect x="596" y="118.2" width="62" height="46.2" fill="#9E199D" />
<rect x="658" y="118.2" width="62" height="46.2" fill="#BE3885" />
<rect x="100" y="164.4" width="62" height="46.2" fill="#F9D326" />
<rect x="162" y="164.4" width="62" height="46.2" fill="#FDBD2B" />
<rect x="224" y="164.4" width="62" height="46.2" fill="#F58D46" />
<rect x="286" y="164.4" width="62" height="46.2" fill="#D14F72" />
<rect x="348" y="164.4" width="62" height="46.2" fill="#97159F" />
<rect x="410" y="164.4" width="62" height="46.2" fill="#5902A3" />
<rect x="472" y="164.4" width="62" height="46.2" fill="#350498" />
<rect x="534" y="164.4" width="62" height="46.2" fill="#41039D" />
<rect x="596" y="164.4" width="62" height="46.2" fill="#7101A8" />
<rect x="658" y="164.4" width="62" height="46.2" fill="#B22D8E" />
<rect x="100" y="210.60000000000002" width="62" height="46.2" fill="#F0F921" />
<rect x="162" y="210.60000000000002" width="62" height="46.2" fill="#F7DB25" />
<rect x="224" y="210.60000000000002" width="62" height="46.2" fill="#FA9C3C" />
<rect x="286" y="210.60000000000002" width="62" height="46.2" fill="#D35170" />
<rect x="348" y="210.60000000000002" width="62" height="46.2" fill="#8B0EA2" />
<rect x="410" y="210.60000000000002" width="62" height="46.2" fill="#3E049B" />
<rect x="472" y="210.60000000000002" width="62" height="46.2" fill="#0D0887" />
<rect x="534" y="210.60000000000002" width="62" height="46.2" fill="#1B078D" />
<rect x="596" y="210.60000000000002" width="62" height="46.2" fill="#5D02A4" />
<rect x="658" y="210.60000000000002" width="62" height="46.2" fill="#AD2891" />
<rect x="100" y="256.8" width="62" height="46.2" fill="#F5E324" />
<rect x="162" y="256.8" width="62" height="46.2" fill="#FCC827" />
<rect x="224" y="256.8" width="62" height="46.2" fill="#F79441" />
<rect x="286" y="256.8" width="62" height="46.2" fill="#D25071" />
<rect x="348" y="256.8" width="62" height="46.2" fill="#9212A0" />
<rect x="410" y="256.8" width="62" height="46.2" fill="#4E03A1" />
<rect x="472" y="256.8" width="62" height="46.2" fill="#240691" />
<rect x="534" y="256.8" width="62" height="46.2" fill="#300596" />
<rect x="596" y="256.8" width="62" height="46.2" fill="#6801A6" />
<rect x="658" y="256.8" width="62" height="46.2" fill="#B02A8F" />
<rect x="100" y="303" width="62" height="46.2" fill="#FBA637" />
<rect x="162" y="303" width="62" height="46.2" fill="#F99A3E" />
<rect x="224" y="303" width="62" height="46.2" fill="#EC7754" />
<rect x="286" y="303" width="62" height="46.2" fill="#CF4C74" />
<rect x="348" y="303" width="62" height="46.2" fill="#A72296" />
<rect x="410" y="303" width="62" height="46.2" fill="#7F08A5" />
<rect x="472" y="303" width="62" height="46.2" fill="#6901A6" />
<rect x="534" y="303" width="62" height="46.2" fill="#6F01A7" />
<rect x="596" y="303" width="62" height="46.2" fill="#9010A1" />
<rect x="658" y="303" width="62" height="46.2" fill="#BA3488" />
<rect x="100" y="349.20000000000005" width="62" height="46.2" fill="#DA5B68" />
<rect x="162" y="349.20000000000005" width="62" height="46.2" fill="#D9586A" />
<rect x="224" y="349.20000000000005" width="62" height="46.2" fill="#D35170" />
<rect x="286" y="349.20000000000005" width="62" height="46.2" fill="#CB4878" />
<rect x="348" y="349.20000000000005" width="62" height="46.2" fill="#C33E80" />
<rect x="410" y="349.20000000000005" width="62" height="46.2" fill="#BC3687" />
<rect x="472" y="349.20000000000005" width="62" height="46.2" fill="#B8328A" />
<rect x="534" y="349.20000000000005" width="62" height="46.2" fill="#B93389" />
<rect x="596" y="349.20000000000005" width="62" height="46.2" fill="#BF3984" />
<rect x="658" y="349.20000000000005" width="62" height="46.2" fill="#C6427D" />
<rect x="100" y="395.40000000000003" width="62" height="46.2" fill="#97159F" />
<rect x="162" y="395.40000000000003" width="62" height="46.2" fill="#9F1A9C" />
<rect x="224" y="395.40000000000003" width="62" height="46.2" fill="#B02B8F" />
<rect x="286" y="395.40000000000003" width="62" height="46.2" fill="#C7437C" />
<rect x="348" y="395.40000000000003" width="62" height="46.2" fill="#DB5C68" />
<rect x="410" y="395.40000000000003" width="62" height="46.2" fill="#E87159" />
<rect x="472" y="395.40000000000003" width="62" height="46.2" fill="#EE7B52" />
<rect x="534" y="395.40000000000003" width="62" height="46.2" fill="#EC7854" />
<rect x="596" y="395.40000000000003" width="62" height="46.2" fill="#E3695F" />
<rect x="658" y="395.40000000000003" width="62" height="46.2" fill="#D35170" />
<rect x="100" y="441.6" width="62" height="46.2" fill="#48039F" />
<rect x="162" y="441.6" width="62" height="46.2" fill="#5B02A3" />
<rect x="224" y="441.6" width="62" height="46.2" fill="#8C0FA2" />
<rect x="286" y="441.6" width="62" height="46.2" fill="#C33F80" />
<rect x="348" y="441.6" width="62" height="46.2" fill="#EB7655" />
<rect x="410" y="441.6" width="62" height="46.2" fill="#FBA736" />
<rect x="472" y="441.6" width="62" height="46.2" fill="#FDBE2A" />
<rect x="534" y="441.6" width="62" height="46.2" fill="#FCB82E" />
<rect x="596" y="441.6" width="62" height="46.2" fill="#F79441" />
<rect x="658" y="441.6" width="62" height="46.2" fill="#DC5E66" />
<rect x="100" y="487.8" width="62" height="46.2" fill="#100888" />
<rect x="162" y="487.8" width="62" height="46.2" fill="#2F0595" />
<rect x="224" y="487.8" width="62" height="46.2" fill="#7503A7" />
<rect x="286" y="487.8" width="62" height="46.2" fill="#C13C82" />
<rect x="348" y="487.8" width="62" height="46.2" fill="#F2854B" />
<rect x="410" y="487.8" width="62" height="46.2" fill="#FDC528" />
<rect x="472" y="487.8" width="62" height="46.2" fill="#F2F222" />
<rect x="534" y="487.8" width="62" height="46.2" fill="#F5E524" />
<rect x="596" y="487.8" width="62" height="46.2" fill="#FCAC33" />
<rect x="658" y="487.8" width="62" height="46.2" fill="#E16561" />
<g class="spine">
<line x1="100" y1="534" x2="720" y2="534" stroke="#262626" stroke-width="0.8" />
</g>
<g class="spine">
<line x1="100" y1="72" x2="720" y2="72" stroke="#262626" stroke-width="0.8" />
</g>
<g class="spine">
<line x1="100" y1="72" x2="100" y2="534" stroke="#262626" stroke-width="0.8" />
</g>
<g class="spine">
<line x1="720" y1="72" x2="720" y2="534" stroke="#262626" stroke-width="0.8" />
</g>
<g class="colorbar" aria-label="Color bar">
<rect x="730" y="72" width="20" height="10.24" fill="#F0F921" />
<rect x="730" y="81.24" width="20" height="10.24" fill="#F2EF22" />
<rect x="730" y="90.48" width="20" height="10.24" fill="#F5E624" />
<rect x="730" y="99.72" width="20" height="10.24" fill="#F7DC25" />
<rect x="730" y="108.96000000000001" width="20" height="10.24" fill="#F9D226" />
<rect x="730" y="118.2" width="20" height="10.24" fill="#FCC827" />
<rect x="730" y="127.44" width="20" height="10.24" fill="#FDC029" />
<rect x="730" y="136.68" width="20" height="10.24" fill="#FCBA2D" />
<rect x="730" y="145.92000000000002" width="20" height="10.24" fill="#FCB330" />
<rect x="730" y="155.16" width="20" height="10.24" fill="#FCAD33" />
<rect x="730" y="164.4" width="20" height="10.24" fill="#FBA636" />
<rect x="730" y="173.64" width="20" height="10.24" fill="#FBA03A" />
<rect x="730" y="182.88" width="20" height="10.24" fill="#F9993E" />
<rect x="730" y="192.12" width="20" height="10.24" fill="#F69242" />
<rect x="730" y="201.36" width="20" height="10.24" fill="#F48B47" />
<rect x="730" y="210.6" width="20" height="10.24" fill="#F1844C" />
<rect x="730" y="219.84" width="20" height="10.24" fill="#EF7E50" />
<rect x="730" y="229.08" width="20" height="10.24" fill="#EC7754" />
<rect x="730" y="238.32" width="20" height="10.24" fill="#E87159" />
<rect x="730" y="247.56" width="20" height="10.24" fill="#E46B5D" />
<rect x="730" y="256.8" width="20" height="10.24" fill="#E06561" />
<rect x="730" y="266.03999999999996" width="20" height="10.24" fill="#DD5E66" />
<rect x="730" y="275.28" width="20" height="10.24" fill="#D9586A" />
<rect x="730" y="284.52" width="20" height="10.24" fill="#D4536F" />
<rect x="730" y="293.76" width="20" height="10.24" fill="#CF4D74" />
<rect x="730" y="303" width="20" height="10.24" fill="#CA4778" />
<rect x="730" y="312.24" width="20" height="10.24" fill="#C6417D" />
<rect x="730" y="321.48" width="20" height="10.24" fill="#C13B82" />
<rect x="730" y="330.72" width="20" height="10.24" fill="#BC3687" />
<rect x="730" y="339.96" width="20" height="10.24" fill="#B6308B" />
<rect x="730" y="349.2" width="20" height="10.24" fill="#B02A90" />
<rect x="730" y="358.44" width="20" height="10.24" fill="#AA2494" />
<rect x="730" y="367.68" width="20" height="10.24" fill="#A41F98" />
<rect x="730" y="376.92" width="20" height="10.24" fill="#9E199D" />
<rect x="730" y="386.16" width="20" height="10.24" fill="#97149F" />
<rect x="730" y="395.4" width="20" height="10.24" fill="#8F10A1" />
<rect x="730" y="404.64" width="20" height="10.24" fill="#880CA3" />
<rect x="730" y="413.88" width="20" height="10.24" fill="#8008A5" />
<rect x="730" y="423.12" width="20" height="10.24" fill="#7905A6" />
<rect x="730" y="432.36" width="20" height="10.24" fill="#7101A8" />
<rect x="730" y="441.6" width="20" height="10.24" fill="#6901A6" />
<rect x="730" y="450.84" width="20" height="10.24" fill="#6102A5" />
<rect x="730" y="460.08" width="20" height="10.24" fill="#5902A3" />
<rect x="730" y="469.32" width="20" height="10.24" fill="#5102A1" />
<rect x="730" y="478.56" width="20" height="10.24" fill="#4A03A0" />
<rect x="730" y="487.8" width="20" height="10.24" fill="#40049D" />
<rect x="730" y="497.04" width="20" height="10.24" fill="#360498" />
<rect x="730" y="506.28" width="20" height="10.24" fill="#2C0594" />
<rect x="730" y="515.52" width="20" height="10.24" fill="#220690" />
<rect x="730" y="524.76" width="20" height="10.24" fill="#17078B" />
<rect x="730" y="72" width="20" height="462" fill="none" stroke="#262626" stroke-width="0.5" />
<text x="754" y="76" font-family="DejaVu Sans, sans-serif" font-size="13.88888888888889" text-anchor="start" fill="#262626">0.99749</text>
<text x="754" y="168.4" font-family="DejaVu Sans, sans-serif" font-size="13.88888888888889" text-anchor="start" fill="#262626">0.60049</text>
<text x="754" y="260.8" font-family="DejaVu Sans, sans-serif" font-size="13.88888888888889" text-anchor="start" fill="#262626">0.20349</text>
<text x="754" y="353.2" font-family="DejaVu Sans, sans-serif" font-size="13.88888888888889" text-anchor="start" fill="#262626">-0.19351</text>
<text x="754" y="445.6" font-family="DejaVu Sans, sans-serif" font-size="13.88888888888889" text-anchor="start" fill="#262626">-0.59051</text>
<text x="754" y="538" font-family="DejaVu Sans, sans-serif" font-size="13.88888888888889" text-anchor="start" fill="#262626">-0.98751</text>
<text x="784" y="303" font-family="DejaVu Sans, sans-serif" font-size="13.88888888888889" text-anchor="middle" fill="#262626">Intensity</text>
</g>
<text x="410" y="64" font-family="DejaVu Sans, sans-serif" font-size="15.88888888888889" text-anchor="middle" font-weight="bold" fill="#262626">Heatmap — Plasma</text>
</svg>
