<svg xmlns="http://www.w3.org/2000/svg" viewBox="0 0 800 600" width="800" height="600" role="img" aria-labelledby="chart-title">
<title id="chart-title"></title>
<rect x="0" y="0" width="800" height="600" fill="#FFFFFF" />
<rect x="60" y="40" width="720" height="510" fill="#FFFFFF" />
<line x1="92.72727272727272" y1="40" x2="92.72727272727272" y2="550" stroke="#B0B0B0" stroke-width="0.8" />
<line x1="223.63636363636363" y1="40" x2="223.63636363636363" y2="550" stroke="#B0B0B0" stroke-width="0.8" />
<line x1="354.5454545454545" y1="40" x2="354.5454545454545" y2="550" stroke="#B0B0B0" stroke-width="0.8" />
<line x1="485.4545454545454" y1="40" x2="485.4545454545454" y2="550" stroke="#B0B0B0" stroke-width="0.8" />
<line x1="616.3636363636364" y1="40" x2="616.3636363636364" y2="550" stroke="#B0B0B0" stroke-width="0.8" />
<line x1="747.2727272727273" y1="40" x2="747.2727272727273" y2="550" stroke="#B0B0B0" stroke-width="0.8" />
<line x1="60" y1="526.8181818181819" x2="780" y2="526.8181818181819" stroke="#B0B0B0" stroke-width="0.8" />
<line x1="60" y1="434.0909090909091" x2="780" y2="434.0909090909091" stroke="#B0B0B0" stroke-width="0.8" />
<line x1="60" y1="341.3636363636364" x2="780" y2="341.3636363636364" stroke="#B0B0B0" stroke-width="0.8" />
<line x1="60" y1="248.63636363636368" x2="780" y2="248.63636363636368" stroke="#B0B0B0" stroke-width="0.8" />
<line x1="60" y1="155.90909090909093" x2="780" y2="155.90909090909093" stroke="#B0B0B0" stroke-width="0.8" />
<line x1="60" y1="63.181818181818244" x2="780" y2="63.181818181818244" stroke="#B0B0B0" stroke-width="0.8" />
<line x1="92.72727272727272" y1="549.6" x2="92.72727272727272" y2="553.5" stroke="#000000" stroke-width="0.8" />
<text x="92.72727272727272" y="569.5" font-family="sans-serif" font-size="13" text-anchor="middle" fill="#000000">0</text>
<line x1="223.63636363636363" y1="549.6" x2="223.63636363636363" y2="553.5" stroke="#000000" stroke-width="0.8" />
<text x="223.63636363636363" y="569.5" font-family="sans-serif" font-size="13" text-anchor="middle" fill="#000000">0.2</text>
<line x1="354.5454545454545" y1="549.6" x2="354.5454545454545" y2="553.5" stroke="#000000" stroke-width="0.8" />
<text x="354.5454545454545" y="569.5" font-family="sans-serif" font-size="13" text-anchor="middle" fill="#000000">0.4</text>
<line x1="485.4545454545454" y1="549.6" x2="485.4545454545454" y2="553.5" stroke="#000000" stroke-width="0.8" />
<text x="485.4545454545454" y="569.5" font-family="sans-serif" font-size="13" text-anchor="middle" fill="#000000">0.6</text>
<line x1="616.3636363636364" y1="549.6" x2="616.3636363636364" y2="553.5" stroke="#000000" stroke-width="0.8" />
<text x="616.3636363636364" y="569.5" font-family="sans-serif" font-size="13" text-anchor="middle" fill="#000000">0.8</text>
<line x1="747.2727272727273" y1="549.6" x2="747.2727272727273" y2="553.5" stroke="#000000" stroke-width="0.8" />
<text x="747.2727272727273" y="569.5" font-family="sans-serif" font-size="13" text-anchor="middle" fill="#000000">1</text>
<line x1="66.54545454545453" y1="549.6" x2="66.54545454545453" y2="553.5" stroke="#000000" stroke-width="0.8" />
<line x1="118.9090909090909" y1="549.6" x2="118.9090909090909" y2="553.5" stroke="#000000" stroke-width="0.8" />
<line x1="145.09090909090907" y1="549.6" x2="145.09090909090907" y2="553.5" stroke="#000000" stroke-width="0.8" />
<line x1="171.27272727272725" y1="549.6" x2="171.27272727272725" y2="553.5" stroke="#000000" stroke-width="0.8" />
<line x1="197.45454545454544" y1="549.6" x2="197.45454545454544" y2="553.5" stroke="#000000" stroke-width="0.8" />
<line x1="249.81818181818178" y1="549.6" x2="249.81818181818178" y2="553.5" stroke="#000000" stroke-width="0.8" />
<line x1="276" y1="549.6" x2="276" y2="553.5" stroke="#000000" stroke-width="0.8" />
<line x1="302.18181818181813" y1="549.6" x2="302.18181818181813" y2="553.5" stroke="#000000" stroke-width="0.8" />
<line x1="328.3636363636364" y1="549.6" x2="328.3636363636364" y2="553.5" stroke="#000000" stroke-width="0.8" />
<line x1="380.72727272727275" y1="549.6" x2="380.72727272727275" y2="553.5" stroke="#000000" stroke-width="0.8" />
<line x1="406.9090909090909" y1="549.6" x2="406.9090909090909" y2="553.5" stroke="#000000" stroke-width="0.8" />
<line x1="433.0909090909091" y1="549.6" x2="433.0909090909091" y2="553.5" stroke="#000000" stroke-width="0.8" />
<line x1="459.27272727272725" y1="549.6" x2="459.27272727272725" y2="553.5" stroke="#000000" stroke-width="0.8" />
<line x1="511.6363636363636" y1="549.6" x2="511.6363636363636" y2="553.5" stroke="#000000" stroke-width="0.8" />
<line x1="537.8181818181819" y1="549.6" x2="537.8181818181819" y2="553.5" stroke="#000000" stroke-width="0.8" />
<line x1="564" y1="549.6" x2="564" y2="553.5" stroke="#000000" stroke-width="0.8" />
<line x1="590.1818181818181" y1="549.6" x2="590.1818181818181" y2="553.5" stroke="#000000" stroke-width="0.8" />
<line x1="642.5454545454545" y1="549.6" x2="642.5454545454545" y2="553.5" stroke="#000000" stroke-width="0.8" />
<line x1="668.7272727272727" y1="549.6" x2="668.7272727272727" y2="553.5" stroke="#000000" stroke-width="0.8" />
<line x1="694.9090909090909" y1="549.6" x2="694.9090909090909" y2="553.5" stroke="#000000" stroke-width="0.8" />
<line x1="721.090909090909" y1="549.6" x2="721.090909090909" y2="553.5" stroke="#000000" stroke-width="0.8" />
<line x1="773.4545454545455" y1="549.6" x2="773.4545454545455" y2="553.5" stroke="#000000" stroke-width="0.8" />
<line x1="523.3181818181819" y1="60" x2="527.2181818181818" y2="60" stroke="#000000" stroke-width="0.8" />
<text x="53.5" y="530.8181818181819" font-family="sans-serif" font-size="13" text-anchor="end" fill="#000000">0</text>
<line x1="430.5909090909091" y1="60" x2="434.4909090909091" y2="60" stroke="#000000" stroke-width="0.8" />
<text x="53.5" y="438.0909090909091" font-family="sans-serif" font-size="13" text-anchor="end" fill="#000000">0.2</text>
<line x1="337.8636363636364" y1="60" x2="341.76363636363635" y2="60" stroke="#000000" stroke-width="0.8" />
<text x="53.5" y="345.3636363636364" font-family="sans-serif" font-size="13" text-anchor="end" fill="#000000">0.4</text>
<line x1="245.13636363636368" y1="60" x2="249.0363636363637" y2="60" stroke="#000000" stroke-width="0.8" />
<text x="53.5" y="252.63636363636368" font-family="sans-serif" font-size="13" text-anchor="end" fill="#000000">0.6</text>
<line x1="152.40909090909093" y1="60" x2="156.30909090909094" y2="60" stroke="#000000" stroke-width="0.8" />
<text x="53.5" y="159.90909090909093" font-family="sans-serif" font-size="13" text-anchor="end" fill="#000000">0.8</text>
<line x1="59.681818181818244" y1="60" x2="63.58181818181824" y2="60" stroke="#000000" stroke-width="0.8" />
<text x="53.5" y="67.18181818181824" font-family="sans-serif" font-size="13" text-anchor="end" fill="#000000">1</text>
<line x1="541.8636363636364" y1="60" x2="545.7636363636364" y2="60" stroke="#000000" stroke-width="0.8" />
<line x1="504.7727272727273" y1="60" x2="508.6727272727273" y2="60" stroke="#000000" stroke-width="0.8" />
<line x1="486.22727272727275" y1="60" x2="490.1272727272727" y2="60" stroke="#000000" stroke-width="0.8" />
<line x1="467.68181818181824" y1="60" x2="471.5818181818182" y2="60" stroke="#000000" stroke-width="0.8" />
<line x1="449.1363636363637" y1="60" x2="453.03636363636366" y2="60" stroke="#000000" stroke-width="0.8" />
<line x1="412.0454545454546" y1="60" x2="415.9454545454546" y2="60" stroke="#000000" stroke-width="0.8" />
<line x1="393.5" y1="60" x2="397.4" y2="60" stroke="#000000" stroke-width="0.8" />
<line x1="374.9545454545455" y1="60" x2="378.8545454545455" y2="60" stroke="#000000" stroke-width="0.8" />
<line x1="356.409090909091" y1="60" x2="360.30909090909097" y2="60" stroke="#000000" stroke-width="0.8" />
<line x1="319.31818181818187" y1="60" x2="323.21818181818185" y2="60" stroke="#000000" stroke-width="0.8" />
<line x1="300.77272727272737" y1="60" x2="304.67272727272734" y2="60" stroke="#000000" stroke-width="0.8" />
<line x1="282.22727272727275" y1="60" x2="286.1272727272727" y2="60" stroke="#000000" stroke-width="0.8" />
<line x1="263.6818181818182" y1="60" x2="267.58181818181816" y2="60" stroke="#000000" stroke-width="0.8" />
<line x1="226.59090909090912" y1="60" x2="230.49090909090913" y2="60" stroke="#000000" stroke-width="0.8" />
<line x1="208.04545454545456" y1="60" x2="211.94545454545457" y2="60" stroke="#000000" stroke-width="0.8" />
<line x1="189.50000000000006" y1="60" x2="193.40000000000006" y2="60" stroke="#000000" stroke-width="0.8" />
<line x1="170.9545454545455" y1="60" x2="174.8545454545455" y2="60" stroke="#000000" stroke-width="0.8" />
<line x1="133.86363636363643" y1="60" x2="137.76363636363644" y2="60" stroke="#000000" stroke-width="0.8" />
<line x1="115.31818181818187" y1="60" x2="119.21818181818188" y2="60" stroke="#000000" stroke-width="0.8" />
<line x1="96.77272727272731" y1="60" x2="100.67272727272731" y2="60" stroke="#000000" stroke-width="0.8" />
<line x1="78.2272727272728" y1="60" x2="82.12727272727281" y2="60" stroke="#000000" stroke-width="0.8" />
<line x1="41.13636363636368" y1="60" x2="45.03636363636368" y2="60" stroke="#000000" stroke-width="0.8" />
<rect x="60" y="40" width="72" height="51" fill="#CA4679" />
<rect x="132" y="40" width="72" height="51" fill="#CA4679" />
<rect x="204" y="40" width="72" height="51" fill="#CA4679" />
<rect x="276" y="40" width="72" height="51" fill="#CA4679" />
<rect x="348" y="40" width="72" height="51" fill="#CA4679" />
<rect x="420" y="40" width="72" height="51" fill="#CA4679" />
<rect x="492" y="40" width="72" height="51" fill="#CA4679" />
<rect x="564" y="40" width="72" height="51" fill="#CA4679" />
<rect x="636" y="40" width="72" height="51" fill="#CA4679" />
<rect x="708" y="40" width="72" height="51" fill="#CA4679" />
<rect x="60" y="91" width="72" height="51" fill="#F69243" />
<rect x="132" y="91" width="72" height="51" fill="#F28849" />
<rect x="204" y="91" width="72" height="51" fill="#E66D5B" />
<rect x="276" y="91" width="72" height="51" fill="#CE4B75" />
<rect x="348" y="91" width="72" height="51" fill="#AF2990" />
<rect x="420" y="91" width="72" height="51" fill="#9111A1" />
<rect x="492" y="91" width="72" height="51" fill="#8008A5" />
<rect x="564" y="91" width="72" height="51" fill="#850BA4" />
<rect x="636" y="91" width="72" height="51" fill="#9E199D" />
<rect x="708" y="91" width="72" height="51" fill="#BE3885" />
<rect x="60" y="142" width="72" height="51" fill="#F9D326" />
<rect x="132" y="142" width="72" height="51" fill="#FDBD2B" />
<rect x="204" y="142" width="72" height="51" fill="#F58D46" />
<rect x="276" y="142" width="72" height="51" fill="#D14F72" />
<rect x="348" y="142" width="72" height="51" fill="#97159F" />
<rect x="420" y="142" width="72" height="51" fill="#5902A3" />
<rect x="492" y="142" width="72" height="51" fill="#350498" />
<rect x="564" y="142" width="72" height="51" fill="#41039D" />
<rect x="636" y="142" width="72" height="51" fill="#7101A8" />
<rect x="708" y="142" width="72" height="51" fill="#B22D8E" />
<rect x="60" y="193" width="72" height="51" fill="#F0F921" />
<rect x="132" y="193" width="72" height="51" fill="#F7DB25" />
<rect x="204" y="193" width="72" height="51" fill="#FA9C3C" />
<rect x="276" y="193" width="72" height="51" fill="#D35170" />
<rect x="348" y="193" width="72" height="51" fill="#8B0EA2" />
<rect x="420" y="193" width="72" height="51" fill="#3E049B" />
<rect x="492" y="193" width="72" height="51" fill="#0D0887" />
<rect x="564" y="193" width="72" height="51" fill="#1B078D" />
<rect x="636" y="193" width="72" height="51" fill="#5D02A4" />
<rect x="708" y="193" width="72" height="51" fill="#AD2891" />
<rect x="60" y="244" width="72" height="51" fill="#F5E324" />
<rect x="132" y="244" width="72" height="51" fill="#FCC827" />
<rect x="204" y="244" width="72" height="51" fill="#F79441" />
<rect x="276" y="244" width="72" height="51" fill="#D25071" />
<rect x="348" y="244" width="72" height="51" fill="#9212A0" />
<rect x="420" y="244" width="72" height="51" fill="#4E03A1" />
<rect x="492" y="244" width="72" height="51" fill="#240691" />
<rect x="564" y="244" width="72" height="51" fill="#300596" />
<rect x="636" y="244" width="72" height="51" fill="#6801A6" />
<rect x="708" y="244" width="72" height="51" fill="#B02A8F" />
<rect x="60" y="295" width="72" height="51" fill="#FBA637" />
<rect x="132" y="295" width="72" height="51" fill="#F99A3E" />
<rect x="204" y="295" width="72" height="51" fill="#EC7754" />
<rect x="276" y="295" width="72" height="51" fill="#CF4C74" />
<rect x="348" y="295" width="72" height="51" fill="#A72296" />
<rect x="420" y="295" width="72" height="51" fill="#7F08A5" />
<rect x="492" y="295" width="72" height="51" fill="#6901A6" />
<rect x="564" y="295" width="72" height="51" fill="#6F01A7" />
<rect x="636" y="295" width="72" height="51" fill="#9010A1" />
<rect x="708" y="295" width="72" height="51" fill="#BA3488" />
<rect x="60" y="346" width="72" height="51" fill="#DA5B68" />
<rect x="132" y="346" width="72" height="51" fill="#D9586A" />
<rect x="204" y="346" width="72" height="51" fill="#D35170" />
<rect x="276" y="346" width="72" height="51" fill="#CB4878" />
<rect x="348" y="346" width="72" height="51" fill="#C33E80" />
<rect x="420" y="346" width="72" height="51" fill="#BC3687" />
<rect x="492" y="346" width="72" height="51" fill="#B8328A" />
<rect x="564" y="346" width="72" height="51" fill="#B93389" />
<rect x="636" y="346" width="72" height="51" fill="#BF3984" />
<rect x="708" y="346" width="72" height="51" fill="#C6427D" />
<rect x="60" y="397" width="72" height="51" fill="#97159F" />
<rect x="132" y="397" width="72" height="51" fill="#9F1A9C" />
<rect x="204" y="397" width="72" height="51" fill="#B02B8F" />
<rect x="276" y="397" width="72" height="51" fill="#C7437C" />
<rect x="348" y="397" width="72" height="51" fill="#DB5C68" />
<rect x="420" y="397" width="72" height="51" fill="#E87159" />
<rect x="492" y="397" width="72" height="51" fill="#EE7B52" />
<rect x="564" y="397" width="72" height="51" fill="#EC7854" />
<rect x="636" y="397" width="72" height="51" fill="#E3695F" />
<rect x="708" y="397" width="72" height="51" fill="#D35170" />
<rect x="60" y="448" width="72" height="51" fill="#48039F" />
<rect x="132" y="448" width="72" height="51" fill="#5B02A3" />
<rect x="204" y="448" width="72" height="51" fill="#8C0FA2" />
<rect x="276" y="448" width="72" height="51" fill="#C33F80" />
<rect x="348" y="448" width="72" height="51" fill="#EB7655" />
<rect x="420" y="448" width="72" height="51" fill="#FBA736" />
<rect x="492" y="448" width="72" height="51" fill="#FDBE2A" />
<rect x="564" y="448" width="72" height="51" fill="#FCB82E" />
<rect x="636" y="448" width="72" height="51" fill="#F79441" />
<rect x="708" y="448" width="72" height="51" fill="#DC5E66" />
<rect x="60" y="499" width="72" height="51" fill="#100888" />
<rect x="132" y="499" width="72" height="51" fill="#2F0595" />
<rect x="204" y="499" width="72" height="51" fill="#7503A7" />
<rect x="276" y="499" width="72" height="51" fill="#C13C82" />
<rect x="348" y="499" width="72" height="51" fill="#F2854B" />
<rect x="420" y="499" width="72" height="51" fill="#FDC528" />
<rect x="492" y="499" width="72" height="51" fill="#F2F222" />
<rect x="564" y="499" width="72" height="51" fill="#F5E524" />
<rect x="636" y="499" width="72" height="51" fill="#FCAC33" />
<rect x="708" y="499" width="72" height="51" fill="#E16561" />
<g class="spine">
<line x1="60" y1="550" x2="780" y2="550" stroke="#000000" stroke-width="0.8" />
</g>
<g class="spine">
<line x1="60" y1="40" x2="780" y2="40" stroke="#000000" stroke-width="0.8" />
</g>
<g class="spine">
<line x1="60" y1="40" x2="60" y2="550" stroke="#000000" stroke-width="0.8" />
</g>
<g class="spine">
<line x1="780" y1="40" x2="780" y2="550" stroke="#000000" stroke-width="0.8" />
</g>
<g class="colorbar" aria-label="Color bar">
<rect x="790" y="40" width="20" height="11.2" fill="#F0F921" />
<rect x="790" y="50.2" width="20" height="11.2" fill="#F2EF22" />
<rect x="790" y="60.4" width="20" height="11.2" fill="#F5E624" />
<rect x="790" y="70.6" width="20" height="11.2" fill="#F7DC25" />
<rect x="790" y="80.8" width="20" height="11.2" fill="#F9D226" />
<rect x="790" y="91" width="20" height="11.2" fill="#FCC827" />
<rect x="790" y="101.2" width="20" height="11.2" fill="#FDC029" />
<rect x="790" y="111.4" width="20" height="11.2" fill="#FCBA2D" />
<rect x="790" y="121.6" width="20" height="11.2" fill="#FCB330" />
<rect x="790" y="131.8" width="20" height="11.2" fill="#FCAD33" />
<rect x="790" y="142" width="20" height="11.2" fill="#FBA636" />
<rect x="790" y="152.2" width="20" height="11.2" fill="#FBA03A" />
<rect x="790" y="162.4" width="20" height="11.2" fill="#F9993E" />
<rect x="790" y="172.6" width="20" height="11.2" fill="#F69242" />
<rect x="790" y="182.8" width="20" height="11.2" fill="#F48B47" />
<rect x="790" y="193" width="20" height="11.2" fill="#F1844C" />
<rect x="790" y="203.2" width="20" height="11.2" fill="#EF7E50" />
<rect x="790" y="213.4" width="20" height="11.2" fill="#EC7754" />
<rect x="790" y="223.6" width="20" height="11.2" fill="#E87159" />
<rect x="790" y="233.8" width="20" height="11.2" fill="#E46B5D" />
<rect x="790" y="244" width="20" height="11.2" fill="#E06561" />
<rect x="790" y="254.2" width="20" height="11.2" fill="#DD5E66" />
<rect x="790" y="264.4" width="20" height="11.2" fill="#D9586A" />
<rect x="790" y="274.6" width="20" height="11.2" fill="#D4536F" />
<rect x="790" y="284.8" width="20" height="11.2" fill="#CF4D74" />
<rect x="790" y="295" width="20" height="11.2" fill="#CA4778" />
<rect x="790" y="305.2" width="20" height="11.2" fill="#C6417D" />
<rect x="790" y="315.4" width="20" height="11.2" fill="#C13B82" />
<rect x="790" y="325.6" width="20" height="11.2" fill="#BC3687" />
<rect x="790" y="335.8" width="20" height="11.2" fill="#B6308B" />
<rect x="790" y="346" width="20" height="11.2" fill="#B02A90" />
<rect x="790" y="356.2" width="20" height="11.2" fill="#AA2494" />
<rect x="790" y="366.4" width="20" height="11.2" fill="#A41F98" />
<rect x="790" y="376.6" width="20" height="11.2" fill="#9E199D" />
<rect x="790" y="386.8" width="20" height="11.2" fill="#97149F" />
<rect x="790" y="397" width="20" height="11.2" fill="#8F10A1" />
<rect x="790" y="407.2" width="20" height="11.2" fill="#880CA3" />
<rect x="790" y="417.4" width="20" height="11.2" fill="#8008A5" />
<rect x="790" y="427.6" width="20" height="11.2" fill="#7905A6" />
<rect x="790" y="437.8" width="20" height="11.2" fill="#7101A8" />
<rect x="790" y="448" width="20" height="11.2" fill="#6901A6" />
<rect x="790" y="458.2" width="20" height="11.2" fill="#6102A5" />
<rect x="790" y="468.4" width="20" height="11.2" fill="#5902A3" />
<rect x="790" y="478.6" width="20" height="11.2" fill="#5102A1" />
<rect x="790" y="488.8" width="20" height="11.2" fill="#4A03A0" />
<rect x="790" y="499" width="20" height="11.2" fill="#40049D" />
<rect x="790" y="509.2" width="20" height="11.2" fill="#360498" />
<rect x="790" y="519.4" width="20" height="11.2" fill="#2C0594" />
<rect x="790" y="529.6" width="20" height="11.2" fill="#220690" />
<rect x="790" y="539.8" width="20" height="11.2" fill="#17078B" />
<rect x="790" y="40" width="20" height="510" fill="none" stroke="#000000" stroke-width="0.5" />
<text x="814" y="44" font-family="sans-serif" font-size="13" text-anchor="start" fill="#000000">0.99749</text>
<text x="814" y="146" font-family="sans-serif" font-size="13" text-anchor="start" fill="#000000">0.60049</text>
<text x="814" y="248" font-family="sans-serif" font-size="13" text-anchor="start" fill="#000000">0.20349</text>
<text x="814" y="350" font-family="sans-serif" font-size="13" text-anchor="start" fill="#000000">-0.19351</text>
<text x="814" y="452" font-family="sans-serif" font-size="13" text-anchor="start" fill="#000000">-0.59051</text>
<text x="814" y="554" font-family="sans-serif" font-size="13" text-anchor="start" fill="#000000">-0.98751</text>
<text x="844" y="295" font-family="sans-serif" font-size="13" text-anchor="middle" fill="#000000">Intensity</text>
</g>
<text x="420" y="32" font-family="sans-serif" font-size="15" text-anchor="middle" font-weight="bold" fill="#000000">Heatmap — Plasma</text>
</svg>
