<svg xmlns="http://www.w3.org/2000/svg" viewBox="0 0 800 600" width="800" height="600" role="img" aria-labelledby="chart-title">
<title id="chart-title">Histogram</title>
<rect x="0" y="0" width="800" height="600" fill="#FFFFFF" />
<path d="M1.64214 -13.0411L5.00505 -13.0411L5.00505 -8.07096L9.96642 -8.07096L9.96642 -13.0411L13.3293 -13.0411L13.3293 0L9.96642 0L9.96642 -5.52913L5.00505 -5.52913L5.00505 0L1.64214 0L1.64214 -13.0411ZM16.4739 -9.78299L19.6009 -9.78299L19.6009 0L16.4739 0L16.4739 -9.78299ZM16.4739 -13.5914L19.6009 -13.5914L19.6009 -11.0408L16.4739 -11.0408L16.4739 -13.5914ZM30.2486 -9.47727L30.2486 -7.1014Q29.2441 -7.52067 28.3095 -7.73031Q27.3749 -7.93994 26.5451 -7.93994Q25.6541 -7.93994 25.2218 -7.7172Q24.7894 -7.49447 24.7894 -7.03152Q24.7894 -6.65592 25.1169 -6.45502Q25.4445 -6.25412 26.2918 -6.15804L26.8421 -6.07943Q29.2441 -5.77371 30.0739 -5.07492Q30.9038 -4.37614 30.9038 -2.88249Q30.9038 -1.31896 29.7508 -0.532823Q28.5978 0.253309 26.3092 0.253309Q25.3397 0.253309 24.3046 0.10045Q23.2695 -0.0524089 22.1777 -0.358127L22.1777 -2.734Q23.1123 -2.27978 24.095 -2.05268Q25.0776 -1.82557 26.0909 -1.82558Q27.008 -1.82558 27.471 -2.07888Q27.9339 -2.33219 27.9339 -2.83008Q27.9339 -3.24935 27.6151 -3.45462Q27.2963 -3.65989 26.3442 -3.77344L25.7939 -3.84332Q23.7063 -4.10536 22.8677 -4.81288Q22.0292 -5.5204 22.0292 -6.96164Q22.0292 -8.51644 23.0948 -9.26763Q24.1605 -10.0188 26.3617 -10.0188Q27.2264 -10.0188 28.1785 -9.8878Q29.1306 -9.75678 30.2486 -9.47727ZM36.6687 -12.5607L36.6687 -9.78299L39.8919 -9.78299L39.8919 -7.54688L36.6687 -7.54688L36.6687 -3.39784Q36.6687 -2.71653 36.9395 -2.47632Q37.2103 -2.23611 38.0139 -2.23611L39.6211 -2.23611L39.6211 0L36.9395 0Q35.0877 0 34.3147 -0.773031Q33.5417 -1.54606 33.5417 -3.39784L33.5417 -7.54688L31.9869 -7.54688L31.9869 -9.78299L33.5417 -9.78299L33.5417 -12.5607L36.6687 -12.5607ZM46.4604 -7.78271Q45.421 -7.78271 44.8751 -7.03589Q44.3292 -6.28906 44.3292 -4.88276Q44.3292 -3.47645 44.8751 -2.72963Q45.421 -1.9828 46.4604 -1.9828Q47.4824 -1.9828 48.024 -2.72963Q48.5655 -3.47645 48.5655 -4.88276Q48.5655 -6.28906 48.024 -7.03589Q47.4824 -7.78271 46.4604 -7.78271ZM46.4604 -10.0188Q48.9848 -10.0188 50.4042 -8.6562Q51.8236 -7.29357 51.8236 -4.88276Q51.8236 -2.47195 50.4042 -1.10932Q48.9848 0.253309 46.4604 0.253309Q43.9274 0.253309 42.4992 -1.10932Q41.0711 -2.47195 41.0711 -4.88276Q41.0711 -7.29357 42.4992 -8.6562Q43.9274 -10.0188 46.4604 -10.0188ZM60.7506 -1.65961Q60.1042 -0.803602 59.3268 -0.401801Q58.5494 0 57.5275 0Q55.7368 0 54.5664 -1.41067Q53.3959 -2.82134 53.3959 -5.00505Q53.3959 -7.19748 54.5664 -8.59942Q55.7368 -10.0014 57.5275 -10.0014Q58.5494 -10.0014 59.3268 -9.59956Q60.1042 -9.19775 60.7506 -8.33301L60.7506 -9.78299L63.8951 -9.78299L63.8951 -0.987033Q63.8951 1.37137 62.4058 2.61608Q60.9166 3.86079 58.0865 3.86079Q57.1693 3.86079 56.3133 3.72103Q55.4573 3.58127 54.5926 3.29302L54.5926 0.856011Q55.4136 1.32769 56.1998 1.55916Q56.9859 1.79064 57.7808 1.79064Q59.3181 1.79064 60.0343 1.11806Q60.7506 0.445475 60.7506 -0.987033L60.7506 -1.65961ZM58.6892 -7.74778Q57.7196 -7.74778 57.1781 -7.03152Q56.6365 -6.31527 56.6365 -5.00505Q56.6365 -3.65988 57.1606 -2.96547Q57.6847 -2.27105 58.6892 -2.27105Q59.6675 -2.27105 60.209 -2.9873Q60.7506 -3.70356 60.7506 -5.00505Q60.7506 -6.31527 60.209 -7.03152Q59.6675 -7.74778 58.6892 -7.74778ZM74.1673 -7.11887Q73.7567 -7.31103 73.3506 -7.40275Q72.9444 -7.49447 72.5339 -7.49447Q71.3285 -7.49447 70.6777 -6.72144Q70.027 -5.94841 70.027 -4.50716L70.027 0L66.8999 0L66.8999 -9.78299L70.027 -9.78299L70.027 -8.17578Q70.6297 -9.13661 71.4114 -9.57772Q72.1932 -10.0188 73.285 -10.0188Q73.4423 -10.0188 73.6257 -10.0057Q73.8091 -9.99262 74.1585 -9.94895L74.1673 -7.11887ZM80.1069 -4.40234Q79.1286 -4.40234 78.6351 -4.07042Q78.1416 -3.7385 78.1416 -3.09212Q78.1416 -2.49816 78.539 -2.16187Q78.9365 -1.82558 79.644 -1.82558Q80.5262 -1.82558 81.1289 -2.45885Q81.7316 -3.09212 81.7316 -4.04422L81.7316 -4.40234L80.1069 -4.40234ZM84.8849 -5.58154L84.8849 0L81.7316 0L81.7316 -1.44998Q81.1027 -0.559028 80.3166 -0.152859Q79.5304 0.253309 78.4036 0.253309Q76.8838 0.253309 75.9361 -0.633274Q74.9883 -1.51986 74.9883 -2.9349Q74.9883 -4.65565 76.1719 -5.45926Q77.3555 -6.26286 79.8886 -6.26286L81.7316 -6.26286L81.7316 -6.50743Q81.7316 -7.24989 81.1464 -7.59492Q80.5611 -7.93994 79.3208 -7.93994Q78.3163 -7.93994 77.4516 -7.73904Q76.5868 -7.53814 75.8443 -7.13634L75.8443 -9.52094Q76.8489 -9.76552 77.8621 -9.89217Q78.8753 -10.0188 79.8886 -10.0188Q82.5352 -10.0188 83.71 -8.97502Q84.8849 -7.93121 84.8849 -5.58154ZM96.8603 -8.15831Q97.4543 -9.06673 98.271 -9.54278Q99.0877 -10.0188 100.066 -10.0188Q101.752 -10.0188 102.634 -8.97938Q103.516 -7.93994 103.516 -5.95714L103.516 0L100.372 0L100.372 -5.10113Q100.38 -5.21468 100.385 -5.33697Q100.389 -5.45926 100.389 -5.68636Q100.389 -6.7258 100.083 -7.19312Q99.7777 -7.66043 99.0964 -7.66043Q98.2055 -7.66043 97.7207 -6.9267Q97.2359 -6.19298 97.2184 -4.80414L97.2184 0L94.0739 0L94.0739 -5.10113Q94.0739 -6.7258 93.7944 -7.19312Q93.5149 -7.66043 92.7986 -7.66043Q91.8989 -7.66043 91.4098 -6.92234Q90.9206 -6.18424 90.9206 -4.81288L90.9206 0L87.7761 0L87.7761 -9.78299L90.9206 -9.78299L90.9206 -8.35048Q91.4971 -9.18028 92.244 -9.59956Q92.9908 -10.0188 93.8905 -10.0188Q94.9037 -10.0188 95.6811 -9.52968Q96.4585 -9.04053 96.8603 -8.15831Z" fill="#262626" transform="translate(400,24.099999999999998) translate(-52.465633392333984,0)" />
<rect x="100" y="72" width="620" height="462" fill="#FFFFFF" />
<line x1="139.66723570208273" y1="533.6" x2="139.66723570208273" y2="538.8611111111111" stroke="#262626" stroke-width="1.1111111111111112" />
<path d="M1.72255 -1.15289L3.9605 -1.15289L3.9605 -8.87722L1.52588 -8.38894L1.52588 -9.63677L3.94694 -10.1251L5.31684 -10.1251L5.31684 -1.15289L7.5548 -1.15289L7.5548 0L1.72255 0L1.72255 -1.15289Z" fill="#262626" transform="translate(139.66723570208273,557.6111111111111) translate(-4.418267250061035,0)" />
<line x1="193.39908153543848" y1="533.6" x2="193.39908153543848" y2="538.8611111111111" stroke="#262626" stroke-width="1.1111111111111112" />
<path d="M2.6652 -1.15289L7.44629 -1.15289L7.44629 0L1.01725 0L1.01725 -1.15289Q1.79715 -1.95991 3.14331 -3.31963Q4.48947 -4.67936 4.83534 -5.0727Q5.49316 -5.8119 5.75426 -6.32392Q6.01535 -6.83594 6.01535 -7.331Q6.01535 -8.13802 5.44908 -8.64665Q4.88281 -9.15527 3.97407 -9.15527Q3.32981 -9.15527 2.61434 -8.93148Q1.89887 -8.70768 1.08507 -8.25331L1.08507 -9.63677Q1.91243 -9.96908 2.63129 -10.1386Q3.35015 -10.3082 3.94694 -10.3082Q5.52029 -10.3082 6.45616 -9.52148Q7.39204 -8.73481 7.39204 -7.41916Q7.39204 -6.79525 7.15807 -6.23576Q6.9241 -5.67627 6.30697 -4.91672Q6.13742 -4.72005 5.22868 -3.78079Q4.31993 -2.84153 2.6652 -1.15289Z" fill="#262626" transform="translate(193.39908153543848,557.6111111111111) translate(-4.418267250061035,0)" />
<line x1="247.1309273687942" y1="533.6" x2="247.1309273687942" y2="538.8611111111111" stroke="#262626" stroke-width="1.1111111111111112" />
<path d="M5.63558 -5.45926Q6.61892 -5.24902 7.17163 -4.58442Q7.72434 -3.91981 7.72434 -2.94325Q7.72434 -1.4445 6.69352 -0.623915Q5.66271 0.196669 3.76383 0.196669Q3.12636 0.196669 2.45158 0.0712077Q1.7768 -0.0542535 1.05794 -0.305176L1.05794 -1.6276Q1.6276 -1.2953 2.30577 -1.12576Q2.98394 -0.956217 3.72314 -0.956217Q5.01166 -0.956217 5.68644 -1.46484Q6.36122 -1.97347 6.36122 -2.94325Q6.36122 -3.83843 5.73391 -4.34367Q5.10661 -4.8489 3.98763 -4.8489L2.80762 -4.8489L2.80762 -5.97466L4.04188 -5.97466Q5.05235 -5.97466 5.58811 -6.37817Q6.12386 -6.78168 6.12386 -7.54123Q6.12386 -8.32113 5.57115 -8.7382Q5.01845 -9.15527 3.98763 -9.15527Q3.42475 -9.15527 2.78049 -9.0332Q2.13623 -8.91113 1.36312 -8.65343L1.36312 -9.87413Q2.14301 -10.0911 2.82457 -10.1997Q3.50613 -10.3082 4.1097 -10.3082Q5.66949 -10.3082 6.57823 -9.59947Q7.48698 -8.89079 7.48698 -7.68365Q7.48698 -6.84272 7.00548 -6.26289Q6.52398 -5.68305 5.63558 -5.45926Z" fill="#262626" transform="translate(247.1309273687942,557.6111111111111) translate(-4.418267250061035,0)" />
<line x1="300.8627732021499" y1="533.6" x2="300.8627732021499" y2="538.8611111111111" stroke="#262626" stroke-width="1.1111111111111112" />
<path d="M5.24902 -8.93148L1.79036 -3.52648L5.24902 -3.52648L5.24902 -8.93148ZM4.88959 -10.1251L6.61214 -10.1251L6.61214 -3.52648L8.05664 -3.52648L8.05664 -2.38715L6.61214 -2.38715L6.61214 0L5.24902 0L5.24902 -2.38715L0.678168 -2.38715L0.678168 -3.70958L4.88959 -10.1251Z" fill="#262626" transform="translate(300.8627732021499,557.6111111111111) translate(-4.418267250061035,0)" />
<line x1="354.59461903550573" y1="533.6" x2="354.59461903550573" y2="538.8611111111111" stroke="#262626" stroke-width="1.1111111111111112" />
<path d="M1.49875 -10.1251L6.87663 -10.1251L6.87663 -8.97217L2.75336 -8.97217L2.75336 -6.49007Q3.05176 -6.5918 3.35015 -6.64266Q3.64855 -6.69352 3.94694 -6.69352Q5.64236 -6.69352 6.63249 -5.76443Q7.62261 -4.83534 7.62261 -3.24843Q7.62261 -1.61404 6.60536 -0.708686Q5.58811 0.196669 3.73671 0.196669Q3.09923 0.196669 2.43802 0.0881619C1.99721 0.0158239 1.5417 -0.092683 1.07151 -0.237359L1.07151 -1.61404Q1.68186 -1.28174 2.3329 -1.11898Q2.98394 -0.956217 3.70958 -0.956217Q4.88281 -0.956217 5.56776 -1.57335Q6.25271 -2.19048 6.25271 -3.24843Q6.25271 -4.30637 5.56776 -4.9235Q4.88281 -5.54064 3.70958 -5.54064Q3.16026 -5.54064 2.61434 -5.41857Q2.06841 -5.2965 1.49875 -5.03879L1.49875 -10.1251Z" fill="#262626" transform="translate(354.59461903550573,557.6111111111111) translate(-4.418267250061035,0)" />
<line x1="408.3264648688614" y1="533.6" x2="408.3264648688614" y2="538.8611111111111" stroke="#262626" stroke-width="1.1111111111111112" />
<path d="M4.58442 -5.60845Q3.66211 -5.60845 3.12297 -4.97776Q2.58382 -4.34706 2.58382 -3.24843Q2.58382 -2.15658 3.12297 -1.52249Q3.66211 -0.888401 4.58442 -0.888401Q5.50673 -0.888401 6.04587 -1.52249Q6.58502 -2.15658 6.58502 -3.24843Q6.58502 -4.34706 6.04587 -4.97776Q5.50673 -5.60845 4.58442 -5.60845ZM7.30387 -9.90126L7.30387 -8.65343Q6.78847 -8.89757 6.26289 -9.02642Q5.7373 -9.15527 5.2219 -9.15527Q3.86556 -9.15527 3.15009 -8.23975Q2.43462 -7.32422 2.3329 -5.47282Q2.73302 -6.06282 3.33659 -6.37817Q3.94016 -6.69352 4.6658 -6.69352Q6.19168 -6.69352 7.07669 -5.76782Q7.9617 -4.84212 7.9617 -3.24843Q7.9617 -1.68864 7.03939 -0.745985Q6.11708 0.196669 4.58442 0.196669Q2.82796 0.196669 1.89887 -1.1495Q0.969781 -2.49566 0.969781 -5.05235Q0.969781 -7.45307 2.1091 -8.88062Q3.24843 -10.3082 5.16764 -10.3082Q5.68305 -10.3082 6.20863 -10.2064Q6.73421 -10.1047 7.30387 -9.90126Z" fill="#262626" transform="translate(408.3264648688614,557.6111111111111) translate(-4.418267250061035,0)" />
<line x1="462.0583107022171" y1="533.6" x2="462.0583107022171" y2="538.8611111111111" stroke="#262626" stroke-width="1.1111111111111112" />
<path d="M1.13932 -10.1251L7.64974 -10.1251L7.64974 -9.54183L3.97407 0L2.54313 0L6.00179 -8.97217L1.13932 -8.97217L1.13932 -10.1251Z" fill="#262626" transform="translate(462.0583107022171,557.6111111111111) translate(-4.418267250061035,0)" />
<line x1="515.7901565355729" y1="533.6" x2="515.7901565355729" y2="538.8611111111111" stroke="#262626" stroke-width="1.1111111111111112" />
<path d="M4.41488 -4.80821Q3.43831 -4.80821 2.87882 -4.28602Q2.31934 -3.76383 2.31934 -2.84831Q2.31934 -1.93278 2.87882 -1.41059Q3.43831 -0.888401 4.41488 -0.888401Q5.39144 -0.888401 5.95432 -1.41398Q6.5172 -1.93956 6.5172 -2.84831Q6.5172 -3.76383 5.95771 -4.28602Q5.39822 -4.80821 4.41488 -4.80821ZM3.04498 -5.39144Q2.16336 -5.60845 1.67169 -6.21202Q1.18001 -6.81559 1.18001 -7.68365Q1.18001 -8.89757 2.04468 -9.60287Q2.90934 -10.3082 4.41488 -10.3082Q5.92719 -10.3082 6.78847 -9.60287Q7.64974 -8.89757 7.64974 -7.68365Q7.64974 -6.81559 7.15807 -6.21202Q6.6664 -5.60845 5.79156 -5.39144Q6.78168 -5.16086 7.33439 -4.48947Q7.8871 -3.81809 7.8871 -2.84831Q7.8871 -1.37668 6.98853 -0.590007Q6.08995 0.196669 4.41488 0.196669Q2.7398 0.196669 1.84123 -0.590007Q0.942654 -1.37668 0.942654 -2.84831Q0.942654 -3.81809 1.49875 -4.48947Q2.05485 -5.16086 3.04498 -5.39144ZM2.54313 -7.5548Q2.54313 -6.76812 3.0348 -6.32731Q3.52648 -5.8865 4.41488 -5.8865Q5.29649 -5.8865 5.79495 -6.32731Q6.2934 -6.76812 6.2934 -7.5548Q6.2934 -8.34147 5.79495 -8.78228Q5.2965 -9.22309 4.41488 -9.22309Q3.52648 -9.22309 3.0348 -8.78228Q2.54313 -8.34147 2.54313 -7.5548Z" fill="#262626" transform="translate(515.7901565355729,557.6111111111111) translate(-4.418267250061035,0)" />
<line x1="569.5220023689286" y1="533.6" x2="569.5220023689286" y2="538.8611111111111" stroke="#262626" stroke-width="1.1111111111111112" />
<path d="M1.52588 -0.210232L1.52588 -1.45806Q2.04129 -1.21392 2.57026 -1.08507Q3.09923 -0.956217 3.60786 -0.956217Q4.96419 -0.956217 5.67966 -1.86835Q6.39513 -2.78049 6.49685 -4.63867Q6.10352 -4.05545 5.49995 -3.74349Q4.89638 -3.43153 4.16395 -3.43153Q2.64486 -3.43153 1.75985 -4.35045Q0.874837 -5.26937 0.874837 -6.86306Q0.874837 -8.42285 1.79715 -9.36551Q2.71946 -10.3082 4.25212 -10.3082Q6.00857 -10.3082 6.93427 -8.962Q7.85997 -7.61583 7.85997 -5.05235Q7.85997 -2.65842 6.72404 -1.23088Q5.58811 0.196669 3.66889 0.196669Q3.15348 0.196669 2.62451 0.0949436Q2.09554 -0.00678168 1.52588 -0.210232ZM4.25212 -4.50304Q5.17442 -4.50304 5.71357 -5.13374Q6.25271 -5.76443 6.25271 -6.86306Q6.25271 -7.95491 5.71357 -8.589Q5.17443 -9.22309 4.25212 -9.22309Q3.32981 -9.22309 2.79066 -8.589Q2.25152 -7.95492 2.25152 -6.86306Q2.25152 -5.76443 2.79066 -5.13374Q3.32981 -4.50304 4.25212 -4.50304Z" fill="#262626" transform="translate(569.5220023689286,557.6111111111111) translate(-4.418267250061035,0)" />
<line x1="623.2538482022844" y1="533.6" x2="623.2538482022844" y2="538.8611111111111" stroke="#262626" stroke-width="1.1111111111111112" />
<path d="M1.72255 -1.15289L3.9605 -1.15289L3.9605 -8.87722L1.52588 -8.38894L1.52588 -9.63677L3.94694 -10.1251L5.31684 -10.1251L5.31684 -1.15289L7.5548 -1.15289L7.5548 0L1.72255 0L1.72255 -1.15289ZM13.2514 -9.22309Q12.1935 -9.22309 11.6611 -8.1821Q11.1287 -7.14111 11.1287 -5.05235Q11.1287 -2.97038 11.6611 -1.92939Q12.1935 -0.888401 13.2514 -0.888401Q14.3161 -0.888401 14.8485 -1.92939Q15.3809 -2.97038 15.3809 -5.05235Q15.3809 -7.14111 14.8485 -8.1821Q14.3161 -9.22309 13.2514 -9.22309ZM13.2514 -10.3082Q14.9536 -10.3082 15.8522 -8.962Q16.7508 -7.61583 16.7508 -5.05235Q16.7508 -2.49566 15.8522 -1.1495Q14.9536 0.196669 13.2514 0.196669Q11.5492 0.196669 10.6506 -1.1495Q9.75206 -2.49566 9.75206 -5.05235Q9.75206 -7.61583 10.6506 -8.962Q11.5492 -10.3082 13.2514 -10.3082Z" fill="#262626" transform="translate(623.2538482022844,557.6111111111111) translate(-8.83653450012207,0)" />
<line x1="676.9856940356401" y1="533.6" x2="676.9856940356401" y2="538.8611111111111" stroke="#262626" stroke-width="1.1111111111111112" />
<path d="M1.72255 -1.15289L3.9605 -1.15289L3.9605 -8.87722L1.52588 -8.38894L1.52588 -9.63677L3.94694 -10.1251L5.31684 -10.1251L5.31684 -1.15289L7.5548 -1.15289L7.5548 0L1.72255 0L1.72255 -1.15289ZM10.5591 -1.15289L12.797 -1.15289L12.797 -8.87722L10.3624 -8.38894L10.3624 -9.63677L12.7835 -10.1251L14.1534 -10.1251L14.1534 -1.15289L16.3913 -1.15289L16.3913 0L10.5591 0L10.5591 -1.15289Z" fill="#262626" transform="translate(676.9856940356401,557.6111111111111) translate(-8.83653450012207,0)" />
<line x1="95.13888888888889" y1="534" x2="100.4" y2="534" stroke="#262626" stroke-width="1.1111111111111112" />
<path d="M4.41488 -9.22309Q3.35693 -9.22309 2.82457 -8.1821Q2.29221 -7.14111 2.29221 -5.05235Q2.29221 -2.97038 2.82457 -1.92939Q3.35693 -0.888401 4.41488 -0.888401Q5.4796 -0.888401 6.01196 -1.92939Q6.54433 -2.97038 6.54433 -5.05235Q6.54433 -7.14111 6.01196 -8.1821Q5.4796 -9.22309 4.41488 -9.22309ZM4.41488 -10.3082Q6.11708 -10.3082 7.01565 -8.962Q7.91422 -7.61583 7.91423 -5.05235Q7.91423 -2.49566 7.01565 -1.1495Q6.11708 0.196669 4.41488 0.196669Q2.71267 0.196669 1.8141 -1.1495Q0.915527 -2.49566 0.915527 -5.05235Q0.915527 -7.61583 1.8141 -8.962Q2.71267 -10.3082 4.41488 -10.3082Z" fill="#262626" transform="translate(90.27777777777777,538) translate(-8.83653450012207,0)" />
<line x1="95.13888888888889" y1="469.29411764705884" x2="100.4" y2="469.29411764705884" stroke="#262626" stroke-width="1.1111111111111112" />
<path d="M1.72255 -1.15289L3.9605 -1.15289L3.9605 -8.87722L1.52588 -8.38894L1.52588 -9.63677L3.94694 -10.1251L5.31684 -10.1251L5.31684 -1.15289L7.5548 -1.15289L7.5548 0L1.72255 0L1.72255 -1.15289ZM13.2514 -9.22309Q12.1935 -9.22309 11.6611 -8.1821Q11.1287 -7.14111 11.1287 -5.05235Q11.1287 -2.97038 11.6611 -1.92939Q12.1935 -0.888401 13.2514 -0.888401Q14.3161 -0.888401 14.8485 -1.92939Q15.3809 -2.97038 15.3809 -5.05235Q15.3809 -7.14111 14.8485 -8.1821Q14.3161 -9.22309 13.2514 -9.22309ZM13.2514 -10.3082Q14.9536 -10.3082 15.8522 -8.962Q16.7508 -7.61583 16.7508 -5.05235Q16.7508 -2.49566 15.8522 -1.1495Q14.9536 0.196669 13.2514 0.196669Q11.5492 0.196669 10.6506 -1.1495Q9.75206 -2.49566 9.75206 -5.05235Q9.75206 -7.61583 10.6506 -8.962Q11.5492 -10.3082 13.2514 -10.3082Z" fill="#262626" transform="translate(90.27777777777777,473.29411764705884) translate(-17.67306900024414,0)" />
<line x1="95.13888888888889" y1="404.5882352941177" x2="100.4" y2="404.5882352941177" stroke="#262626" stroke-width="1.1111111111111112" />
<path d="M2.6652 -1.15289L7.44629 -1.15289L7.44629 0L1.01725 0L1.01725 -1.15289Q1.79715 -1.95991 3.14331 -3.31963Q4.48947 -4.67936 4.83534 -5.0727Q5.49316 -5.8119 5.75426 -6.32392Q6.01535 -6.83594 6.01535 -7.331Q6.01535 -8.13802 5.44908 -8.64665Q4.88281 -9.15527 3.97407 -9.15527Q3.32981 -9.15527 2.61434 -8.93148Q1.89887 -8.70768 1.08507 -8.25331L1.08507 -9.63677Q1.91243 -9.96908 2.63129 -10.1386Q3.35015 -10.3082 3.94694 -10.3082Q5.52029 -10.3082 6.45616 -9.52148Q7.39204 -8.73481 7.39204 -7.41916Q7.39204 -6.79525 7.15807 -6.23576Q6.9241 -5.67627 6.30697 -4.91672Q6.13742 -4.72005 5.22868 -3.78079Q4.31993 -2.84153 2.6652 -1.15289ZM13.2514 -9.22309Q12.1935 -9.22309 11.6611 -8.1821Q11.1287 -7.14111 11.1287 -5.05235Q11.1287 -2.97038 11.6611 -1.92939Q12.1935 -0.888401 13.2514 -0.888401Q14.3161 -0.888401 14.8485 -1.92939Q15.3809 -2.97038 15.3809 -5.05235Q15.3809 -7.14111 14.8485 -8.1821Q14.3161 -9.22309 13.2514 -9.22309ZM13.2514 -10.3082Q14.9536 -10.3082 15.8522 -8.962Q16.7508 -7.61583 16.7508 -5.05235Q16.7508 -2.49566 15.8522 -1.1495Q14.9536 0.196669 13.2514 0.196669Q11.5492 0.196669 10.6506 -1.1495Q9.75206 -2.49566 9.75206 -5.05235Q9.75206 -7.61583 10.6506 -8.962Q11.5492 -10.3082 13.2514 -10.3082Z" fill="#262626" transform="translate(90.27777777777777,408.5882352941177) translate(-17.67306900024414,0)" />
<line x1="95.13888888888889" y1="339.88235294117646" x2="100.4" y2="339.88235294117646" stroke="#262626" stroke-width="1.1111111111111112" />
<path d="M5.63558 -5.45926Q6.61892 -5.24902 7.17163 -4.58442Q7.72434 -3.91981 7.72434 -2.94325Q7.72434 -1.4445 6.69352 -0.623915Q5.66271 0.196669 3.76383 0.196669Q3.12636 0.196669 2.45158 0.0712077Q1.7768 -0.0542535 1.05794 -0.305176L1.05794 -1.6276Q1.6276 -1.2953 2.30577 -1.12576Q2.98394 -0.956217 3.72314 -0.956217Q5.01166 -0.956217 5.68644 -1.46484Q6.36122 -1.97347 6.36122 -2.94325Q6.36122 -3.83843 5.73391 -4.34367Q5.10661 -4.8489 3.98763 -4.8489L2.80762 -4.8489L2.80762 -5.97466L4.04188 -5.97466Q5.05235 -5.97466 5.58811 -6.37817Q6.12386 -6.78168 6.12386 -7.54123Q6.12386 -8.32113 5.57115 -8.7382Q5.01845 -9.15527 3.98763 -9.15527Q3.42475 -9.15527 2.78049 -9.0332Q2.13623 -8.91113 1.36312 -8.65343L1.36312 -9.87413Q2.14301 -10.0911 2.82457 -10.1997Q3.50613 -10.3082 4.1097 -10.3082Q5.66949 -10.3082 6.57823 -9.59947Q7.48698 -8.89079 7.48698 -7.68365Q7.48698 -6.84272 7.00548 -6.26289Q6.52398 -5.68305 5.63558 -5.45926ZM13.2514 -9.22309Q12.1935 -9.22309 11.6611 -8.1821Q11.1287 -7.14111 11.1287 -5.05235Q11.1287 -2.97038 11.6611 -1.92939Q12.1935 -0.888401 13.2514 -0.888401Q14.3161 -0.888401 14.8485 -1.92939Q15.3809 -2.97038 15.3809 -5.05235Q15.3809 -7.14111 14.8485 -8.1821Q14.3161 -9.22309 13.2514 -9.22309ZM13.2514 -10.3082Q14.9536 -10.3082 15.8522 -8.962Q16.7508 -7.61583 16.7508 -5.05235Q16.7508 -2.49566 15.8522 -1.1495Q14.9536 0.196669 13.2514 0.196669Q11.5492 0.196669 10.6506 -1.1495Q9.75206 -2.49566 9.75206 -5.05235Q9.75206 -7.61583 10.6506 -8.962Q11.5492 -10.3082 13.2514 -10.3082Z" fill="#262626" transform="translate(90.27777777777777,343.88235294117646) translate(-17.67306900024414,0)" />
<line x1="95.13888888888889" y1="275.1764705882353" x2="100.4" y2="275.1764705882353" stroke="#262626" stroke-width="1.1111111111111112" />
<path d="M5.24902 -8.93148L1.79036 -3.52648L5.24902 -3.52648L5.24902 -8.93148ZM4.88959 -10.1251L6.61214 -10.1251L6.61214 -3.52648L8.05664 -3.52648L8.05664 -2.38715L6.61214 -2.38715L6.61214 0L5.24902 0L5.24902 -2.38715L0.678168 -2.38715L0.678168 -3.70958L4.88959 -10.1251ZM13.2514 -9.22309Q12.1935 -9.22309 11.6611 -8.1821Q11.1287 -7.14111 11.1287 -5.05235Q11.1287 -2.97038 11.6611 -1.92939Q12.1935 -0.888401 13.2514 -0.888401Q14.3161 -0.888401 14.8485 -1.92939Q15.3809 -2.97038 15.3809 -5.05235Q15.3809 -7.14111 14.8485 -8.1821Q14.3161 -9.22309 13.2514 -9.22309ZM13.2514 -10.3082Q14.9536 -10.3082 15.8522 -8.962Q16.7508 -7.61583 16.7508 -5.05235Q16.7508 -2.49566 15.8522 -1.1495Q14.9536 0.196669 13.2514 0.196669Q11.5492 0.196669 10.6506 -1.1495Q9.75206 -2.49566 9.75206 -5.05235Q9.75206 -7.61583 10.6506 -8.962Q11.5492 -10.3082 13.2514 -10.3082Z" fill="#262626" transform="translate(90.27777777777777,279.1764705882353) translate(-17.67306900024414,0)" />
<line x1="95.13888888888889" y1="210.47058823529414" x2="100.4" y2="210.47058823529414" stroke="#262626" stroke-width="1.1111111111111112" />
<path d="M1.49875 -10.1251L6.87663 -10.1251L6.87663 -8.97217L2.75336 -8.97217L2.75336 -6.49007Q3.05176 -6.5918 3.35015 -6.64266Q3.64855 -6.69352 3.94694 -6.69352Q5.64236 -6.69352 6.63249 -5.76443Q7.62261 -4.83534 7.62261 -3.24843Q7.62261 -1.61404 6.60536 -0.708686Q5.58811 0.196669 3.73671 0.196669Q3.09923 0.196669 2.43802 0.0881619C1.99721 0.0158239 1.5417 -0.092683 1.07151 -0.237359L1.07151 -1.61404Q1.68186 -1.28174 2.3329 -1.11898Q2.98394 -0.956217 3.70958 -0.956217Q4.88281 -0.956217 5.56776 -1.57335Q6.25271 -2.19048 6.25271 -3.24843Q6.25271 -4.30637 5.56776 -4.9235Q4.88281 -5.54064 3.70958 -5.54064Q3.16026 -5.54064 2.61434 -5.41857Q2.06841 -5.2965 1.49875 -5.03879L1.49875 -10.1251ZM13.2514 -9.22309Q12.1935 -9.22309 11.6611 -8.1821Q11.1287 -7.14111 11.1287 -5.05235Q11.1287 -2.97038 11.6611 -1.92939Q12.1935 -0.888401 13.2514 -0.888401Q14.3161 -0.888401 14.8485 -1.92939Q15.3809 -2.97038 15.3809 -5.05235Q15.3809 -7.14111 14.8485 -8.1821Q14.3161 -9.22309 13.2514 -9.22309ZM13.2514 -10.3082Q14.9536 -10.3082 15.8522 -8.962Q16.7508 -7.61583 16.7508 -5.05235Q16.7508 -2.49566 15.8522 -1.1495Q14.9536 0.196669 13.2514 0.196669Q11.5492 0.196669 10.6506 -1.1495Q9.75206 -2.49566 9.75206 -5.05235Q9.75206 -7.61583 10.6506 -8.962Q11.5492 -10.3082 13.2514 -10.3082Z" fill="#262626" transform="translate(90.27777777777777,214.47058823529414) translate(-17.67306900024414,0)" />
<line x1="95.13888888888889" y1="145.76470588235298" x2="100.4" y2="145.76470588235298" stroke="#262626" stroke-width="1.1111111111111112" />
<path d="M4.58442 -5.60845Q3.66211 -5.60845 3.12297 -4.97776Q2.58382 -4.34706 2.58382 -3.24843Q2.58382 -2.15658 3.12297 -1.52249Q3.66211 -0.888401 4.58442 -0.888401Q5.50673 -0.888401 6.04587 -1.52249Q6.58502 -2.15658 6.58502 -3.24843Q6.58502 -4.34706 6.04587 -4.97776Q5.50673 -5.60845 4.58442 -5.60845ZM7.30387 -9.90126L7.30387 -8.65343Q6.78847 -8.89757 6.26289 -9.02642Q5.7373 -9.15527 5.2219 -9.15527Q3.86556 -9.15527 3.15009 -8.23975Q2.43462 -7.32422 2.3329 -5.47282Q2.73302 -6.06282 3.33659 -6.37817Q3.94016 -6.69352 4.6658 -6.69352Q6.19168 -6.69352 7.07669 -5.76782Q7.9617 -4.84212 7.9617 -3.24843Q7.9617 -1.68864 7.03939 -0.745985Q6.11708 0.196669 4.58442 0.196669Q2.82796 0.196669 1.89887 -1.1495Q0.969781 -2.49566 0.969781 -5.05235Q0.969781 -7.45307 2.1091 -8.88062Q3.24843 -10.3082 5.16764 -10.3082Q5.68305 -10.3082 6.20863 -10.2064Q6.73421 -10.1047 7.30387 -9.90126ZM13.2514 -9.22309Q12.1935 -9.22309 11.6611 -8.1821Q11.1287 -7.14111 11.1287 -5.05235Q11.1287 -2.97038 11.6611 -1.92939Q12.1935 -0.888401 13.2514 -0.888401Q14.3161 -0.888401 14.8485 -1.92939Q15.3809 -2.97038 15.3809 -5.05235Q15.3809 -7.14111 14.8485 -8.1821Q14.3161 -9.22309 13.2514 -9.22309ZM13.2514 -10.3082Q14.9536 -10.3082 15.8522 -8.962Q16.7508 -7.61583 16.7508 -5.05235Q16.7508 -2.49566 15.8522 -1.1495Q14.9536 0.196669 13.2514 0.196669Q11.5492 0.196669 10.6506 -1.1495Q9.75206 -2.49566 9.75206 -5.05235Q9.75206 -7.61583 10.6506 -8.962Q11.5492 -10.3082 13.2514 -10.3082Z" fill="#262626" transform="translate(90.27777777777777,149.76470588235298) translate(-17.67306900024414,0)" />
<line x1="95.13888888888889" y1="81.05882352941182" x2="100.4" y2="81.05882352941182" stroke="#262626" stroke-width="1.1111111111111112" />
<path d="M1.13932 -10.1251L7.64974 -10.1251L7.64974 -9.54183L3.97407 0L2.54313 0L6.00179 -8.97217L1.13932 -8.97217L1.13932 -10.1251ZM13.2514 -9.22309Q12.1935 -9.22309 11.6611 -8.1821Q11.1287 -7.14111 11.1287 -5.05235Q11.1287 -2.97038 11.6611 -1.92939Q12.1935 -0.888401 13.2514 -0.888401Q14.3161 -0.888401 14.8485 -1.92939Q15.3809 -2.97038 15.3809 -5.05235Q15.3809 -7.14111 14.8485 -8.1821Q14.3161 -9.22309 13.2514 -9.22309ZM13.2514 -10.3082Q14.9536 -10.3082 15.8522 -8.962Q16.7508 -7.61583 16.7508 -5.05235Q16.7508 -2.49566 15.8522 -1.1495Q14.9536 0.196669 13.2514 0.196669Q11.5492 0.196669 10.6506 -1.1495Q9.75206 -2.49566 9.75206 -5.05235Q9.75206 -7.61583 10.6506 -8.962Q11.5492 -10.3082 13.2514 -10.3082Z" fill="#262626" transform="translate(90.27777777777777,85.05882352941182) translate(-17.67306900024414,0)" />
<g class="series" aria-label="Distribution">
<rect x="100" y="495.1764705882353" width="20.666666666666657" height="38.823529411764696" fill="#008080" stroke="#FFFFFF" stroke-width="0.5" />
<rect x="120.66666666666666" y="482.2352941176471" width="20.666666666666686" height="51.76470588235293" fill="#008080" stroke="#FFFFFF" stroke-width="0.5" />
<rect x="141.33333333333334" y="385.1764705882353" width="20.666666666666657" height="148.8235294117647" fill="#008080" stroke="#FFFFFF" stroke-width="0.5" />
<rect x="162" y="385.1764705882353" width="20.666666666666657" height="148.8235294117647" fill="#008080" stroke="#FFFFFF" stroke-width="0.5" />
<rect x="182.66666666666666" y="391.6470588235294" width="20.666666666666657" height="142.3529411764706" fill="#008080" stroke="#FFFFFF" stroke-width="0.5" />
<rect x="203.33333333333331" y="385.1764705882353" width="20.666666666666657" height="148.8235294117647" fill="#008080" stroke="#FFFFFF" stroke-width="0.5" />
<rect x="223.99999999999997" y="365.7647058823529" width="20.666666666666686" height="168.23529411764707" fill="#008080" stroke="#FFFFFF" stroke-width="0.5" />
<rect x="244.66666666666666" y="242.82352941176475" width="20.666666666666657" height="291.17647058823525" fill="#008080" stroke="#FFFFFF" stroke-width="0.5" />
<rect x="265.3333333333333" y="294.5882352941177" width="20.666666666666686" height="239.41176470588232" fill="#008080" stroke="#FFFFFF" stroke-width="0.5" />
<rect x="286" y="275.1764705882353" width="20.66666666666663" height="258.8235294117647" fill="#008080" stroke="#FFFFFF" stroke-width="0.5" />
<rect x="306.66666666666663" y="223.41176470588238" width="20.666666666666686" height="310.5882352941176" fill="#008080" stroke="#FFFFFF" stroke-width="0.5" />
<rect x="327.3333333333333" y="229.88235294117652" width="20.666666666666686" height="304.1176470588235" fill="#008080" stroke="#FFFFFF" stroke-width="0.5" />
<rect x="348" y="94.00000000000006" width="20.66666666666663" height="439.99999999999994" fill="#008080" stroke="#FFFFFF" stroke-width="0.5" />
<rect x="368.66666666666663" y="106.94117647058829" width="20.66666666666663" height="427.0588235294117" fill="#008080" stroke="#FFFFFF" stroke-width="0.5" />
<rect x="389.33333333333326" y="184.58823529411768" width="20.666666666666742" height="349.4117647058823" fill="#008080" stroke="#FFFFFF" stroke-width="0.5" />
<rect x="410" y="223.41176470588238" width="20.66666666666663" height="310.5882352941176" fill="#008080" stroke="#FFFFFF" stroke-width="0.5" />
<rect x="430.66666666666663" y="216.9411764705883" width="20.66666666666663" height="317.0588235294117" fill="#008080" stroke="#FFFFFF" stroke-width="0.5" />
<rect x="451.33333333333326" y="249.29411764705884" width="20.666666666666742" height="284.70588235294116" fill="#008080" stroke="#FFFFFF" stroke-width="0.5" />
<rect x="472" y="152.23529411764713" width="20.66666666666663" height="381.76470588235287" fill="#008080" stroke="#FFFFFF" stroke-width="0.5" />
<rect x="492.66666666666663" y="262.2352941176471" width="20.66666666666663" height="271.7647058823529" fill="#008080" stroke="#FFFFFF" stroke-width="0.5" />
<rect x="513.3333333333333" y="281.64705882352945" width="20.66666666666663" height="252.35294117647055" fill="#008080" stroke="#FFFFFF" stroke-width="0.5" />
<rect x="534" y="301.0588235294118" width="20.66666666666663" height="232.94117647058818" fill="#008080" stroke="#FFFFFF" stroke-width="0.5" />
<rect x="554.6666666666666" y="288.11764705882354" width="20.666666666666742" height="245.88235294117646" fill="#008080" stroke="#FFFFFF" stroke-width="0.5" />
<rect x="575.3333333333334" y="346.3529411764706" width="20.66666666666663" height="187.6470588235294" fill="#008080" stroke="#FFFFFF" stroke-width="0.5" />
<rect x="596" y="391.6470588235294" width="20.666666666666742" height="142.3529411764706" fill="#008080" stroke="#FFFFFF" stroke-width="0.5" />
<rect x="616.6666666666667" y="391.6470588235294" width="20.66666666666663" height="142.3529411764706" fill="#008080" stroke="#FFFFFF" stroke-width="0.5" />
<rect x="637.3333333333334" y="404.5882352941177" width="20.66666666666663" height="129.41176470588232" fill="#008080" stroke="#FFFFFF" stroke-width="0.5" />
<rect x="658" y="488.70588235294116" width="20.666666666666742" height="45.29411764705884" fill="#008080" stroke="#FFFFFF" stroke-width="0.5" />
<rect x="678.6666666666667" y="501.6470588235294" width="20.66666666666663" height="32.35294117647061" fill="#008080" stroke="#FFFFFF" stroke-width="0.5" />
<rect x="699.3333333333334" y="508.11764705882354" width="20.66666666666663" height="25.882352941176464" fill="#008080" stroke="#FFFFFF" stroke-width="0.5" />
</g>
<g class="spine">
<line x1="100" y1="534" x2="720" y2="534" stroke="#262626" stroke-width="0.8" />
</g>
<g class="spine">
<line x1="100" y1="72" x2="720" y2="72" stroke="#262626" stroke-width="0.8" />
</g>
<g class="spine">
<line x1="100" y1="72" x2="100" y2="534" stroke="#262626" stroke-width="0.8" />
</g>
<g class="spine">
<line x1="720" y1="72" x2="720" y2="534" stroke="#262626" stroke-width="0.8" />
</g>
<rect x="574.0835461086697" y="82" width="135.9164538913303" height="25.72222222222222" fill="#FFFFFF" fill-opacity="0.8" stroke="#CCCCCC" stroke-width="0.5" />
<g class="legend" aria-label="Chart legend">
<rect x="582.0835461086697" y="90" width="27.77777777777778" height="9.722222222222221" fill="#008080" />
<path d="M2.73302 -8.9993L2.73302 -1.12576L4.38775 -1.12576Q6.48329 -1.12576 7.45646 -2.0752Q8.42963 -3.02463 8.42963 -5.0727Q8.42963 -7.1072 7.45646 -8.05325Q6.48329 -8.9993 4.38775 -8.9993L2.73302 -8.9993ZM1.36312 -10.1251L4.17752 -10.1251Q7.12077 -10.1251 8.49745 -8.90096Q9.87413 -7.67687 9.87413 -5.0727Q9.87413 -2.45497 8.49067 -1.22748Q7.1072 0 4.17752 0L1.36312 0L1.36312 -10.1251ZM12.0036 -7.59549L13.2514 -7.59549L13.2514 0L12.0036 0L12.0036 -7.59549ZM12.0036 -10.5523L13.2514 -10.5523L13.2514 -8.97217L12.0036 -8.97217L12.0036 -10.5523ZM20.7045 -7.37169L20.7045 -6.19168Q20.1755 -6.46294 19.6059 -6.59858Q19.0362 -6.73421 18.4258 -6.73421Q17.4967 -6.73421 17.0322 -6.44938Q16.5677 -6.16455 16.5677 -5.59489Q16.5677 -5.16086 16.9 -4.91333Q17.2323 -4.6658 18.2359 -4.442L18.6632 -4.34706Q19.9924 -4.06223 20.5519 -3.54343Q21.1114 -3.02463 21.1114 -2.09554Q21.1114 -1.0376 20.2738 -0.420464Q19.4363 0.196669 17.9715 0.196669Q17.3611 0.196669 16.6999 0.0779894Q16.0387 -0.0406901 15.3063 -0.278049L15.3063 -1.56657Q15.998 -1.20714 16.6694 -1.02743Q17.3408 -0.84771 17.9986 -0.847711Q18.8802 -0.847711 19.3549 -1.1495Q19.8296 -1.45128 19.8296 -2.0006Q19.8296 -2.50922 19.4872 -2.78049Q19.1447 -3.05176 17.985 -3.30268L17.551 -3.40441Q16.3913 -3.64855 15.8759 -4.15378Q15.3605 -4.65902 15.3605 -5.54064Q15.3605 -6.61214 16.1201 -7.19537Q16.8796 -7.77859 18.2766 -7.77859Q18.9684 -7.77859 19.5787 -7.67687Q20.1891 -7.57514 20.7045 -7.37169ZM24.3327 -9.75206L24.3327 -7.59549L26.9029 -7.59549L26.9029 -6.62571L24.3327 -6.62571L24.3327 -2.50244Q24.3327 -1.57335 24.587 -1.30887Q24.8413 -1.04438 25.6212 -1.04438L26.9029 -1.04438L26.9029 0L25.6212 0Q24.1767 0 23.6274 -0.539144Q23.0781 -1.07829 23.0781 -2.50244L23.0781 -6.62571L22.1625 -6.62571L22.1625 -7.59549L23.0781 -7.59549L23.0781 -9.75206L24.3327 -9.75206ZM32.9454 -6.42904Q32.7352 -6.55111 32.4877 -6.60875Q32.2401 -6.6664 31.9417 -6.6664Q30.8838 -6.6664 30.3175 -5.97805Q29.7512 -5.28971 29.7512 -4.00119L29.7512 0L28.4966 0L28.4966 -7.59549L29.7512 -7.59549L29.7512 -6.41547Q30.1446 -7.1072 30.7753 -7.4429Q31.406 -7.77859 32.3079 -7.77859Q32.4368 -7.77859 32.5928 -7.76164Q32.7488 -7.74468 32.9386 -7.71077L32.9454 -6.42904ZM34.2543 -7.59549L35.5021 -7.59549L35.5021 0L34.2543 0L34.2543 -7.59549ZM34.2543 -10.5523L35.5021 -10.5523L35.5021 -8.97217L34.2543 -8.97217L34.2543 -10.5523ZM43.5655 -3.79096Q43.5655 -5.16764 42.9993 -5.95093Q42.433 -6.73421 41.4429 -6.73421Q40.4527 -6.73421 39.8865 -5.95093Q39.3202 -5.16764 39.3202 -3.79096Q39.3202 -2.41428 39.8865 -1.631Q40.4527 -0.847711 41.4429 -0.847711Q42.433 -0.847711 42.9993 -1.631Q43.5655 -2.41428 43.5655 -3.79096ZM39.3202 -6.4426Q39.7135 -7.12077 40.3137 -7.44968Q40.9139 -7.77859 41.748 -7.77859Q43.1315 -7.77859 43.9962 -6.67996Q44.8608 -5.58133 44.8608 -3.79096Q44.8608 -2.0006 43.9962 -0.901964Q43.1315 0.196669 41.748 0.196669Q40.9139 0.196669 40.3137 -0.132243Q39.7135 -0.461155 39.3202 -1.13932L39.3202 0L38.0656 0L38.0656 -10.5523L39.3202 -10.5523L39.3202 -6.4426ZM46.8004 -2.9975L46.8004 -7.59549L48.0482 -7.59549L48.0482 -3.04498Q48.0482 -1.96669 48.4687 -1.42754Q48.8892 -0.888401 49.7301 -0.888401Q50.7406 -0.888401 51.3272 -1.53266Q51.9138 -2.17692 51.9138 -3.28912L51.9138 -7.59549L53.1616 -7.59549L53.1616 0L51.9138 0L51.9138 -1.16645Q51.4594 -0.474718 50.8592 -0.139025Q50.2591 0.196669 49.4656 0.196669Q48.1567 0.196669 47.4786 -0.617133Q46.8004 -1.43094 46.8004 -2.9975ZM56.9661 -9.75206L56.9661 -7.59549L59.5364 -7.59549L59.5364 -6.62571L56.9661 -6.62571L56.9661 -2.50244Q56.9661 -1.57335 57.2205 -1.30887Q57.4748 -1.04438 58.2547 -1.04438L59.5364 -1.04438L59.5364 0L58.2547 0Q56.8102 0 56.2609 -0.539144Q55.7115 -1.07829 55.7115 -2.50244L55.7115 -6.62571L54.796 -6.62571L54.796 -7.59549L55.7115 -7.59549L55.7115 -9.75206L56.9661 -9.75206ZM61.1776 -7.59549L62.4254 -7.59549L62.4254 0L61.1776 0L61.1776 -7.59549ZM61.1776 -10.5523L62.4254 -10.5523L62.4254 -8.97217L61.1776 -8.97217L61.1776 -10.5523ZM67.9796 -6.72065Q66.9759 -6.72065 66.3927 -5.93736Q65.8095 -5.15408 65.8095 -3.79096Q65.8095 -2.42784 66.3893 -1.64456Q66.9691 -0.861274 67.9796 -0.861274Q68.9765 -0.861274 69.5597 -1.64795Q70.143 -2.43462 70.143 -3.79096Q70.143 -5.14052 69.5597 -5.93058Q68.9765 -6.72065 67.9796 -6.72065ZM67.9796 -7.77859Q69.6072 -7.77859 70.5363 -6.72065Q71.4654 -5.66271 71.4654 -3.79096Q71.4654 -1.926 70.5363 -0.864665Q69.6072 0.196669 67.9796 0.196669Q66.3452 0.196669 65.4195 -0.864665Q64.4938 -1.926 64.4938 -3.79096Q64.4938 -5.66271 65.4195 -6.72065Q66.3452 -7.77859 67.9796 -7.77859ZM79.8475 -4.58442L79.8475 0L78.5997 0L78.5997 -4.54373Q78.5997 -5.62202 78.1793 -6.15777Q77.7588 -6.69352 76.9179 -6.69352Q75.9074 -6.69352 75.3242 -6.04926Q74.7409 -5.405 74.7409 -4.29281L74.7409 0L73.4863 0L73.4863 -7.59549L74.7409 -7.59549L74.7409 -6.41547Q75.1885 -7.10042 75.7955 -7.43951Q76.4025 -7.77859 77.1959 -7.77859Q78.5048 -7.77859 79.1762 -6.96818Q79.8475 -6.15777 79.8475 -4.58442Z" fill="#262626" transform="translate(620.9724349975586,98.72222222222223)" />
</g>
</svg>
