<svg xmlns="http://www.w3.org/2000/svg" viewBox="0 0 900 500" width="900" height="500" role="img" aria-labelledby="chart-title">
<title id="chart-title">Outside legend — constrained layout reserves right margin</title>
<rect x="0" y="0" width="900" height="500" fill="#FFFFFF" />
<path d="M7.59928 -10.8399Q6.06196 -10.8399 5.21468 -9.70437Q4.3674 -8.56885 4.3674 -6.50743Q4.3674 -4.45475 5.21468 -3.31923Q6.06196 -2.1837 7.59928 -2.1837Q9.14534 -2.1837 9.99262 -3.31923Q10.8399 -4.45475 10.8399 -6.50743Q10.8399 -8.56885 9.99262 -9.70437Q9.14534 -10.8399 7.59928 -10.8399ZM7.59928 -13.2769Q10.7438 -13.2769 12.5257 -11.4775Q14.3076 -9.67817 14.3076 -6.50743Q14.3076 -3.34543 12.5257 -1.54606Q10.7438 0.253309 7.59928 0.253309Q4.46349 0.253309 2.67722 -1.54606Q0.89095 -3.34543 0.890951 -6.50743Q0.89095 -9.67817 2.67722 -11.4775Q4.46349 -13.2769 7.59928 -13.2769ZM16.6049 -3.80838L16.6049 -9.78299L19.7494 -9.78299L19.7494 -8.80469Q19.7494 -8.00982 19.7407 -6.80878Q19.7319 -5.60775 19.7319 -5.20595Q19.7319 -4.02675 19.7931 -3.50703Q19.8542 -2.9873 20.0027 -2.75146Q20.1949 -2.44575 20.505 -2.27979Q20.8151 -2.11382 21.2169 -2.11382Q22.1952 -2.11382 22.7542 -2.86502Q23.3132 -3.61621 23.3132 -4.95264L23.3132 -9.78299L26.4403 -9.78299L26.4403 0L23.3132 0L23.3132 -1.41504Q22.6057 -0.559028 21.8152 -0.152859Q21.0247 0.253309 20.0726 0.253309Q18.378 0.253309 17.4915 -0.786133Q16.6049 -1.82558 16.6049 -3.80838ZM32.8604 -12.5607L32.8604 -9.78299L36.0835 -9.78299L36.0835 -7.54688L32.8604 -7.54688L32.8604 -3.39784Q32.8604 -2.71653 33.1311 -2.47632Q33.4019 -2.23611 34.2055 -2.23611L35.8127 -2.23611L35.8127 0L33.1311 0Q31.2794 0 30.5063 -0.773031Q29.7333 -1.54606 29.7333 -3.39784L29.7333 -7.54688L28.1785 -7.54688L28.1785 -9.78299L29.7333 -9.78299L29.7333 -12.5607L32.8604 -12.5607ZM45.6394 -9.47727L45.6394 -7.1014Q44.6349 -7.52067 43.7003 -7.73031Q42.7656 -7.93994 41.9358 -7.93994Q41.0449 -7.93994 40.6125 -7.7172Q40.1801 -7.49447 40.1801 -7.03152Q40.1801 -6.65592 40.5077 -6.45502Q40.8352 -6.25412 41.6825 -6.15804L42.2328 -6.07943Q44.6349 -5.77371 45.4647 -5.07492Q46.2945 -4.37614 46.2945 -2.88249Q46.2945 -1.31896 45.1415 -0.532823Q43.9885 0.253309 41.7 0.253309Q40.7304 0.253309 39.6953 0.10045Q38.6603 -0.0524089 37.5684 -0.358127L37.5684 -2.734Q38.503 -2.27978 39.4857 -2.05268Q40.4684 -1.82557 41.4816 -1.82558Q42.3988 -1.82558 42.8617 -2.07888Q43.3247 -2.33219 43.3247 -2.83008Q43.3247 -3.24935 43.0058 -3.45462Q42.687 -3.65989 41.7349 -3.77344L41.1846 -3.84332Q39.097 -4.10536 38.2585 -4.81288Q37.4199 -5.5204 37.4199 -6.96164Q37.4199 -8.51644 38.4856 -9.26763Q39.5512 -10.0188 41.7524 -10.0188Q42.6171 -10.0188 43.5692 -9.8878Q44.5213 -9.75678 45.6394 -9.47727ZM48.6442 -9.78299L51.7712 -9.78299L51.7712 0L48.6442 0L48.6442 -9.78299ZM48.6442 -13.5914L51.7712 -13.5914L51.7712 -11.0408L48.6442 -11.0408L48.6442 -13.5914ZM61.4319 -8.35048L61.4319 -13.5914L64.5764 -13.5914L64.5764 0L61.4319 0L61.4319 -1.41504Q60.7855 -0.550293 60.0081 -0.148492Q59.2307 0.253309 58.2088 0.253309Q56.4007 0.253309 55.2389 -1.18357Q54.0772 -2.62044 54.0772 -4.88276Q54.0772 -7.14507 55.2389 -8.58195Q56.4007 -10.0188 58.2088 -10.0188Q59.222 -10.0188 60.0038 -9.61266Q60.7855 -9.20649 61.4319 -8.35048ZM59.3705 -2.01774Q60.375 -2.01774 60.9035 -2.75146Q61.4319 -3.48519 61.4319 -4.88276Q61.4319 -6.28033 60.9035 -7.01405Q60.375 -7.74778 59.3705 -7.74778Q58.3747 -7.74778 57.8463 -7.01405Q57.3178 -6.28033 57.3178 -4.88276Q57.3178 -3.48519 57.8463 -2.75146Q58.3747 -2.01774 59.3705 -2.01774ZM77.3467 -4.9177L77.3467 -4.02675L70.0357 -4.02675Q70.1493 -2.92616 70.8306 -2.37587Q71.5119 -1.82558 72.7348 -1.82558Q73.7218 -1.82558 74.7569 -2.11819Q75.7919 -2.41081 76.8838 -3.00477L76.8838 -0.593967Q75.7745 -0.174696 74.6652 0.0393066Q73.5558 0.253309 72.4465 0.253309Q69.7911 0.253309 68.3193 -1.09622Q66.8475 -2.44575 66.8475 -4.88276Q66.8475 -7.2761 68.2931 -8.64746Q69.7387 -10.0188 72.2718 -10.0188Q74.5778 -10.0188 75.9623 -8.62999Q77.3467 -7.24116 77.3467 -4.9177ZM74.1323 -5.95714Q74.1323 -6.84809 73.6126 -7.39402Q73.0929 -7.93994 72.2543 -7.93994Q71.3459 -7.93994 70.7782 -7.42896Q70.2104 -6.91797 70.0706 -5.95714L74.1323 -5.95714ZM85.9418 -13.5914L89.0689 -13.5914L89.0689 0L85.9418 0L85.9418 -13.5914ZM101.839 -4.9177L101.839 -4.02675L94.5281 -4.02675Q94.6417 -2.92616 95.323 -2.37587Q96.0043 -1.82558 97.2272 -1.82558Q98.2142 -1.82558 99.2493 -2.11819Q100.284 -2.41081 101.376 -3.00477L101.376 -0.593967Q100.267 -0.174696 99.1576 0.0393066Q98.0482 0.253309 96.9389 0.253309Q94.2835 0.253309 92.8117 -1.09622Q91.3399 -2.44575 91.3399 -4.88276Q91.3399 -7.2761 92.7855 -8.64746Q94.2311 -10.0188 96.7642 -10.0188Q99.0702 -10.0188 100.455 -8.62999Q101.839 -7.24116 101.839 -4.9177ZM98.6247 -5.95714Q98.6247 -6.84809 98.105 -7.39402Q97.5853 -7.93994 96.7467 -7.93994Q95.8383 -7.93994 95.2706 -7.42896Q94.7028 -6.91797 94.563 -5.95714L98.6247 -5.95714ZM110.862 -1.65961Q110.216 -0.803602 109.438 -0.401801Q108.661 0 107.639 0Q105.848 0 104.678 -1.41067Q103.507 -2.82134 103.507 -5.00505Q103.507 -7.19748 104.678 -8.59942Q105.848 -10.0014 107.639 -10.0014Q108.661 -10.0014 109.438 -9.59956Q110.216 -9.19775 110.862 -8.33301L110.862 -9.78299L114.007 -9.78299L114.007 -0.987033Q114.007 1.37137 112.517 2.61608Q111.028 3.86079 108.198 3.86079Q107.281 3.86079 106.425 3.72103Q105.569 3.58127 104.704 3.29302L104.704 0.856011Q105.525 1.32769 106.311 1.55916Q107.098 1.79064 107.892 1.79064Q109.43 1.79064 110.146 1.11806Q110.862 0.445475 110.862 -0.987033L110.862 -1.65961ZM108.801 -7.74778Q107.831 -7.74778 107.29 -7.03152Q106.748 -6.31527 106.748 -5.00505Q106.748 -3.65988 107.272 -2.96547Q107.796 -2.27105 108.801 -2.27105Q109.779 -2.27105 110.321 -2.9873Q110.862 -3.70356 110.862 -5.00505Q110.862 -6.31527 110.321 -7.03152Q109.779 -7.74778 108.801 -7.74778ZM126.777 -4.9177L126.777 -4.02675L119.466 -4.02675Q119.58 -2.92616 120.261 -2.37587Q120.942 -1.82558 122.165 -1.82558Q123.152 -1.82558 124.187 -2.11819Q125.222 -2.41081 126.314 -3.00477L126.314 -0.593967Q125.205 -0.174696 124.095 0.0393066Q122.986 0.253309 121.877 0.253309Q119.221 0.253309 117.75 -1.09622Q116.278 -2.44575 116.278 -4.88276Q116.278 -7.2761 117.723 -8.64746Q119.169 -10.0188 121.702 -10.0188Q124.008 -10.0188 125.393 -8.62999Q126.777 -7.24116 126.777 -4.9177ZM123.563 -5.95714Q123.563 -6.84809 123.043 -7.39402Q122.523 -7.93994 121.685 -7.93994Q120.776 -7.93994 120.208 -7.42896Q119.641 -6.91797 119.501 -5.95714L123.563 -5.95714ZM138.98 -5.95714L138.98 0L135.835 0L135.835 -0.969564L135.835 -4.55957Q135.835 -5.82612 135.778 -6.30653Q135.721 -6.78695 135.582 -7.01405Q135.398 -7.31977 135.084 -7.4901Q134.769 -7.66043 134.368 -7.66043Q133.389 -7.66043 132.83 -6.90487Q132.271 -6.14931 132.271 -4.81288L132.271 0L129.144 0L129.144 -9.78299L132.271 -9.78299L132.271 -8.35048Q132.979 -9.20649 133.774 -9.61266Q134.568 -10.0188 135.529 -10.0188Q137.224 -10.0188 138.102 -8.97938Q138.98 -7.93994 138.98 -5.95714ZM148.535 -8.35048L148.535 -13.5914L151.68 -13.5914L151.68 0L148.535 0L148.535 -1.41504Q147.889 -0.550293 147.112 -0.148492Q146.334 0.253309 145.312 0.253309Q143.504 0.253309 142.342 -1.18357Q141.181 -2.62044 141.181 -4.88276Q141.181 -7.14507 142.342 -8.58195Q143.504 -10.0188 145.312 -10.0188Q146.326 -10.0188 147.107 -9.61266Q147.889 -9.20649 148.535 -8.35048ZM146.474 -2.01774Q147.479 -2.01774 148.007 -2.75146Q148.535 -3.48519 148.535 -4.88276Q148.535 -6.28033 148.007 -7.01405Q147.479 -7.74778 146.474 -7.74778Q145.478 -7.74778 144.95 -7.01405Q144.421 -6.28033 144.421 -4.88276Q144.421 -3.48519 144.95 -2.75146Q145.478 -2.01774 146.474 -2.01774ZM160.371 -6.02702L176.338 -6.02702L176.338 -3.77344L160.371 -3.77344L160.371 -6.02702ZM192.934 -9.47727L192.934 -6.9267Q192.297 -7.36344 191.655 -7.57308Q191.013 -7.78271 190.323 -7.78271Q189.013 -7.78271 188.283 -7.01842Q187.554 -6.25412 187.554 -4.88276Q187.554 -3.51139 188.283 -2.7471Q189.013 -1.9828 190.323 -1.9828Q191.057 -1.9828 191.716 -2.20117Q192.375 -2.41954 192.934 -2.84755L192.934 -0.288249C192.445 -0.107729 191.949 0.0276602 191.445 0.11792Q190.69 0.253309 189.93 0.253309Q187.283 0.253309 185.789 -1.10495Q184.296 -2.46322 184.296 -4.88276Q184.296 -7.3023 185.789 -8.66056Q187.283 -10.0188 189.93 -10.0188Q190.698 -10.0188 191.445 -9.88344Q192.192 -9.74805 192.934 -9.47727ZM200.289 -7.78271Q199.25 -7.78271 198.704 -7.03589Q198.158 -6.28906 198.158 -4.88276Q198.158 -3.47645 198.704 -2.72963Q199.25 -1.9828 200.289 -1.9828Q201.311 -1.9828 201.853 -2.72963Q202.394 -3.47645 202.394 -4.88276Q202.394 -6.28906 201.853 -7.03589Q201.311 -7.78271 200.289 -7.78271ZM200.289 -10.0188Q202.814 -10.0188 204.233 -8.6562Q205.652 -7.29357 205.652 -4.88276Q205.652 -2.47195 204.233 -1.10932Q202.814 0.253309 200.289 0.253309Q197.756 0.253309 196.328 -1.10932Q194.9 -2.47195 194.9 -4.88276Q194.9 -7.29357 196.328 -8.6562Q197.756 -10.0188 200.289 -10.0188ZM217.759 -5.95714L217.759 0L214.614 0L214.614 -0.969564L214.614 -4.55957Q214.614 -5.82612 214.558 -6.30653Q214.501 -6.78695 214.361 -7.01405Q214.178 -7.31977 213.863 -7.4901Q213.549 -7.66043 213.147 -7.66043Q212.169 -7.66043 211.61 -6.90487Q211.05 -6.14931 211.05 -4.81288L211.05 0L207.923 0L207.923 -9.78299L211.05 -9.78299L211.05 -8.35048Q211.758 -9.20649 212.553 -9.61266Q213.348 -10.0188 214.309 -10.0188Q216.003 -10.0188 216.881 -8.97938Q217.759 -7.93994 217.759 -5.95714ZM228.302 -9.47727L228.302 -7.1014Q227.297 -7.52067 226.363 -7.73031Q225.428 -7.93994 224.598 -7.93994Q223.707 -7.93994 223.275 -7.7172Q222.842 -7.49447 222.842 -7.03152Q222.842 -6.65592 223.17 -6.45502Q223.498 -6.25412 224.345 -6.15804L224.895 -6.07943Q227.297 -5.77371 228.127 -5.07492Q228.957 -4.37614 228.957 -2.88249Q228.957 -1.31896 227.804 -0.532823Q226.651 0.253309 224.362 0.253309Q223.393 0.253309 222.358 0.10045Q221.323 -0.0524089 220.231 -0.358127L220.231 -2.734Q221.165 -2.27978 222.148 -2.05268Q223.131 -1.82557 224.144 -1.82558Q225.061 -1.82558 225.524 -2.07888Q225.987 -2.33219 225.987 -2.83008Q225.987 -3.24935 225.668 -3.45462Q225.349 -3.65989 224.397 -3.77344L223.847 -3.84332Q221.759 -4.10536 220.921 -4.81288Q220.082 -5.5204 220.082 -6.96164Q220.082 -8.51644 221.148 -9.26763Q222.214 -10.0188 224.415 -10.0188Q225.279 -10.0188 226.232 -9.8878Q227.184 -9.75678 228.302 -9.47727ZM234.722 -12.5607L234.722 -9.78299L237.945 -9.78299L237.945 -7.54688L234.722 -7.54688L234.722 -3.39784Q234.722 -2.71653 234.993 -2.47632Q235.263 -2.23611 236.067 -2.23611L237.674 -2.23611L237.674 0L234.993 0Q233.141 0 232.368 -0.773031Q231.595 -1.54606 231.595 -3.39784L231.595 -7.54688L230.04 -7.54688L230.04 -9.78299L231.595 -9.78299L231.595 -12.5607L234.722 -12.5607ZM247.125 -7.11887Q246.715 -7.31103 246.309 -7.40275Q245.902 -7.49447 245.492 -7.49447Q244.286 -7.49447 243.636 -6.72144Q242.985 -5.94841 242.985 -4.50716L242.985 0L239.858 0L239.858 -9.78299L242.985 -9.78299L242.985 -8.17578Q243.588 -9.13661 244.369 -9.57772Q245.151 -10.0188 246.243 -10.0188Q246.4 -10.0188 246.584 -10.0057Q246.767 -9.99262 247.117 -9.94895L247.125 -7.11887ZM253.065 -4.40234Q252.087 -4.40234 251.593 -4.07042Q251.1 -3.7385 251.1 -3.09212Q251.1 -2.49816 251.497 -2.16187Q251.894 -1.82558 252.602 -1.82558Q253.484 -1.82558 254.087 -2.45885Q254.69 -3.09212 254.69 -4.04422L254.69 -4.40234L253.065 -4.40234ZM257.843 -5.58154L257.843 0L254.69 0L254.69 -1.44998Q254.061 -0.559028 253.275 -0.152859Q252.488 0.253309 251.362 0.253309Q249.842 0.253309 248.894 -0.633274Q247.946 -1.51986 247.946 -2.9349Q247.946 -4.65565 249.13 -5.45926Q250.313 -6.26286 252.847 -6.26286L254.69 -6.26286L254.69 -6.50743Q254.69 -7.24989 254.104 -7.59492Q253.519 -7.93994 252.279 -7.93994Q251.274 -7.93994 250.41 -7.73904Q249.545 -7.53814 248.802 -7.13634L248.802 -9.52094Q249.807 -9.76552 250.82 -9.89217Q251.833 -10.0188 252.847 -10.0188Q255.493 -10.0188 256.668 -8.97502Q257.843 -7.93121 257.843 -5.58154ZM260.752 -9.78299L263.879 -9.78299L263.879 0L260.752 0L260.752 -9.78299ZM260.752 -13.5914L263.879 -13.5914L263.879 -11.0408L260.752 -11.0408L260.752 -13.5914ZM276.719 -5.95714L276.719 0L273.574 0L273.574 -0.969564L273.574 -4.55957Q273.574 -5.82612 273.517 -6.30653Q273.461 -6.78695 273.321 -7.01405Q273.138 -7.31977 272.823 -7.4901Q272.509 -7.66043 272.107 -7.66043Q271.129 -7.66043 270.569 -6.90487Q270.01 -6.14931 270.01 -4.81288L270.01 0L266.883 0L266.883 -9.78299L270.01 -9.78299L270.01 -8.35048Q270.718 -9.20649 271.513 -9.61266Q272.308 -10.0188 273.269 -10.0188Q274.963 -10.0188 275.841 -8.97938Q276.719 -7.93994 276.719 -5.95714ZM289.384 -4.9177L289.384 -4.02675L282.073 -4.02675Q282.187 -2.92616 282.868 -2.37587Q283.549 -1.82558 284.772 -1.82558Q285.759 -1.82558 286.794 -2.11819Q287.829 -2.41081 288.921 -3.00477L288.921 -0.593967Q287.812 -0.174696 286.703 0.0393066Q285.593 0.253309 284.484 0.253309Q281.829 0.253309 280.357 -1.09622Q278.885 -2.44575 278.885 -4.88276Q278.885 -7.2761 280.331 -8.64746Q281.776 -10.0188 284.309 -10.0188Q286.615 -10.0188 288 -8.62999Q289.384 -7.24116 289.384 -4.9177ZM286.17 -5.95714Q286.17 -6.84809 285.65 -7.39402Q285.13 -7.93994 284.292 -7.93994Q283.383 -7.93994 282.816 -7.42896Q282.248 -6.91797 282.108 -5.95714L286.17 -5.95714ZM298.407 -8.35048L298.407 -13.5914L301.552 -13.5914L301.552 0L298.407 0L298.407 -1.41504Q297.761 -0.550293 296.984 -0.148492Q296.206 0.253309 295.184 0.253309Q293.376 0.253309 292.214 -1.18357Q291.053 -2.62044 291.053 -4.88276Q291.053 -7.14507 292.214 -8.58195Q293.376 -10.0188 295.184 -10.0188Q296.197 -10.0188 296.979 -9.61266Q297.761 -9.20649 298.407 -8.35048ZM296.346 -2.01774Q297.35 -2.01774 297.879 -2.75146Q298.407 -3.48519 298.407 -4.88276Q298.407 -6.28033 297.879 -7.01405Q297.35 -7.74778 296.346 -7.74778Q295.35 -7.74778 294.822 -7.01405Q294.293 -6.28033 294.293 -4.88276Q294.293 -3.48519 294.822 -2.75146Q295.35 -2.01774 296.346 -2.01774ZM310.785 -13.5914L313.912 -13.5914L313.912 0L310.785 0L310.785 -13.5914ZM321.301 -4.40234Q320.323 -4.40234 319.829 -4.07042Q319.336 -3.7385 319.336 -3.09212Q319.336 -2.49816 319.733 -2.16187Q320.131 -1.82558 320.838 -1.82558Q321.721 -1.82558 322.323 -2.45885Q322.926 -3.09212 322.926 -4.04422L322.926 -4.40234L321.301 -4.40234ZM326.079 -5.58154L326.079 0L322.926 0L322.926 -1.44998Q322.297 -0.559028 321.511 -0.152859Q320.725 0.253309 319.598 0.253309Q318.078 0.253309 317.13 -0.633274Q316.183 -1.51986 316.183 -2.9349Q316.183 -4.65565 317.366 -5.45926Q318.55 -6.26286 321.083 -6.26286L322.926 -6.26286L322.926 -6.50743Q322.926 -7.24989 322.341 -7.59492Q321.755 -7.93994 320.515 -7.93994Q319.511 -7.93994 318.646 -7.73904Q317.781 -7.53814 317.039 -7.13634L317.039 -9.52094Q318.043 -9.76552 319.056 -9.89217Q320.07 -10.0188 321.083 -10.0188Q323.73 -10.0188 324.904 -8.97502Q326.079 -7.93121 326.079 -5.58154ZM327.704 -9.78299L330.831 -9.78299L333.46 -3.14453L335.696 -9.78299L338.823 -9.78299L334.709 0.92589Q334.089 2.5593 333.264 3.21004Q332.438 3.86079 331.084 3.86079L329.276 3.86079L329.276 1.80811L330.254 1.80811Q331.049 1.80811 331.412 1.5548Q331.774 1.30149 331.975 0.646376L332.063 0.375597L327.704 -9.78299ZM345.305 -7.78271Q344.265 -7.78271 343.719 -7.03589Q343.173 -6.28906 343.173 -4.88276Q343.173 -3.47645 343.719 -2.72963Q344.265 -1.9828 345.305 -1.9828Q346.327 -1.9828 346.868 -2.72963Q347.41 -3.47645 347.41 -4.88276Q347.41 -6.28906 346.868 -7.03589Q346.327 -7.78271 345.305 -7.78271ZM345.305 -10.0188Q347.829 -10.0188 349.248 -8.6562Q350.668 -7.29357 350.668 -4.88276Q350.668 -2.47195 349.248 -1.10932Q347.829 0.253309 345.305 0.253309Q342.771 0.253309 341.343 -1.10932Q339.915 -2.47195 339.915 -4.88276Q339.915 -7.29357 341.343 -8.6562Q342.771 -10.0188 345.305 -10.0188ZM352.834 -3.80838L352.834 -9.78299L355.978 -9.78299L355.978 -8.80469Q355.978 -8.00982 355.97 -6.80878Q355.961 -5.60775 355.961 -5.20595Q355.961 -4.02675 356.022 -3.50703Q356.083 -2.9873 356.232 -2.75146Q356.424 -2.44575 356.734 -2.27979Q357.044 -2.11382 357.446 -2.11382Q358.424 -2.11382 358.983 -2.86502Q359.542 -3.61621 359.542 -4.95264L359.542 -9.78299L362.669 -9.78299L362.669 0L359.542 0L359.542 -1.41504Q358.835 -0.559028 358.044 -0.152859Q357.254 0.253309 356.302 0.253309Q354.607 0.253309 353.721 -0.786133Q352.834 -1.82558 352.834 -3.80838ZM369.089 -12.5607L369.089 -9.78299L372.313 -9.78299L372.313 -7.54688L369.089 -7.54688L369.089 -3.39784Q369.089 -2.71653 369.36 -2.47632Q369.631 -2.23611 370.435 -2.23611L372.042 -2.23611L372.042 0L369.36 0Q367.508 0 366.735 -0.773031Q365.962 -1.54606 365.962 -3.39784L365.962 -7.54688L364.408 -7.54688L364.408 -9.78299L365.962 -9.78299L365.962 -12.5607L369.089 -12.5607ZM387.721 -7.11887Q387.31 -7.31103 386.904 -7.40275Q386.498 -7.49447 386.087 -7.49447Q384.882 -7.49447 384.231 -6.72144Q383.58 -5.94841 383.58 -4.50716L383.58 0L380.453 0L380.453 -9.78299L383.58 -9.78299L383.58 -8.17578Q384.183 -9.13661 384.965 -9.57772Q385.747 -10.0188 386.839 -10.0188Q386.996 -10.0188 387.179 -10.0057Q387.363 -9.99262 387.712 -9.94895L387.721 -7.11887ZM399.041 -4.9177L399.041 -4.02675L391.73 -4.02675Q391.844 -2.92616 392.525 -2.37587Q393.206 -1.82558 394.429 -1.82558Q395.416 -1.82558 396.451 -2.11819Q397.486 -2.41081 398.578 -3.00477L398.578 -0.593967Q397.469 -0.174696 396.359 0.0393066Q395.25 0.253309 394.141 0.253309Q391.485 0.253309 390.014 -1.09622Q388.542 -2.44575 388.542 -4.88276Q388.542 -7.2761 389.987 -8.64746Q391.433 -10.0188 393.966 -10.0188Q396.272 -10.0188 397.657 -8.62999Q399.041 -7.24116 399.041 -4.9177ZM395.827 -5.95714Q395.827 -6.84809 395.307 -7.39402Q394.787 -7.93994 393.949 -7.93994Q393.04 -7.93994 392.473 -7.42896Q391.905 -6.91797 391.765 -5.95714L395.827 -5.95714ZM409.051 -9.47727L409.051 -7.1014Q408.047 -7.52067 407.112 -7.73031Q406.177 -7.93994 405.348 -7.93994Q404.457 -7.93994 404.024 -7.7172Q403.592 -7.49447 403.592 -7.03152Q403.592 -6.65592 403.919 -6.45502Q404.247 -6.25412 405.094 -6.15804L405.645 -6.07943Q408.047 -5.77371 408.876 -5.07492Q409.706 -4.37614 409.706 -2.88249Q409.706 -1.31896 408.553 -0.532823Q407.4 0.253309 405.112 0.253309Q404.142 0.253309 403.107 0.10045Q402.072 -0.0524089 400.98 -0.358127L400.98 -2.734Q401.915 -2.27978 402.897 -2.05268Q403.88 -1.82557 404.893 -1.82558Q405.811 -1.82558 406.273 -2.07888Q406.736 -2.33219 406.736 -2.83008Q406.736 -3.24935 406.418 -3.45462Q406.099 -3.65989 405.147 -3.77344L404.596 -3.84332Q402.509 -4.10536 401.67 -4.81288Q400.832 -5.5204 400.832 -6.96164Q400.832 -8.51644 401.897 -9.26763Q402.963 -10.0188 405.164 -10.0188Q406.029 -10.0188 406.981 -9.8878Q407.933 -9.75678 409.051 -9.47727ZM421.821 -4.9177L421.821 -4.02675L414.51 -4.02675Q414.624 -2.92616 415.305 -2.37587Q415.987 -1.82558 417.209 -1.82558Q418.197 -1.82558 419.232 -2.11819Q420.267 -2.41081 421.359 -3.00477L421.359 -0.593967Q420.249 -0.174696 419.14 0.0393066Q418.031 0.253309 416.921 0.253309Q414.266 0.253309 412.794 -1.09622Q411.322 -2.44575 411.322 -4.88276Q411.322 -7.2761 412.768 -8.64746Q414.213 -10.0188 416.747 -10.0188Q419.053 -10.0188 420.437 -8.62999Q421.821 -7.24116 421.821 -4.9177ZM418.607 -5.95714Q418.607 -6.84809 418.087 -7.39402Q417.568 -7.93994 416.729 -7.93994Q415.821 -7.93994 415.253 -7.42896Q414.685 -6.91797 414.545 -5.95714L418.607 -5.95714ZM431.456 -7.11887Q431.045 -7.31103 430.639 -7.40275Q430.233 -7.49447 429.823 -7.49447Q428.617 -7.49447 427.966 -6.72144Q427.316 -5.94841 427.316 -4.50716L427.316 0L424.189 0L424.189 -9.78299L427.316 -9.78299L427.316 -8.17578Q427.918 -9.13661 428.7 -9.57772Q429.482 -10.0188 430.574 -10.0188Q430.731 -10.0188 430.914 -10.0057Q431.098 -9.99262 431.447 -9.94895L431.456 -7.11887ZM431.779 -9.78299L434.906 -9.78299L437.343 -3.02224L439.771 -9.78299L442.907 -9.78299L439.055 0L435.622 0L431.779 -9.78299ZM454.437 -4.9177L454.437 -4.02675L447.126 -4.02675Q447.24 -2.92616 447.921 -2.37587Q448.602 -1.82558 449.825 -1.82558Q450.812 -1.82558 451.847 -2.11819Q452.882 -2.41081 453.974 -3.00477L453.974 -0.593967Q452.865 -0.174696 451.756 0.0393066Q450.646 0.253309 449.537 0.253309Q446.882 0.253309 445.41 -1.09622Q443.938 -2.44575 443.938 -4.88276Q443.938 -7.2761 445.384 -8.64746Q446.829 -10.0188 449.362 -10.0188Q451.668 -10.0188 453.053 -8.62999Q454.437 -7.24116 454.437 -4.9177ZM451.223 -5.95714Q451.223 -6.84809 450.703 -7.39402Q450.183 -7.93994 449.345 -7.93994Q448.436 -7.93994 447.869 -7.42896Q447.301 -6.91797 447.161 -5.95714L451.223 -5.95714ZM464.447 -9.47727L464.447 -7.1014Q463.443 -7.52067 462.508 -7.73031Q461.574 -7.93994 460.744 -7.93994Q459.853 -7.93994 459.42 -7.7172Q458.988 -7.49447 458.988 -7.03152Q458.988 -6.65592 459.316 -6.45502Q459.643 -6.25412 460.49 -6.15804L461.041 -6.07943Q463.443 -5.77371 464.273 -5.07492Q465.102 -4.37614 465.102 -2.88249Q465.102 -1.31896 463.949 -0.532823Q462.796 0.253309 460.508 0.253309Q459.538 0.253309 458.503 0.10045Q457.468 -0.0524089 456.376 -0.358127L456.376 -2.734Q457.311 -2.27978 458.294 -2.05268Q459.276 -1.82557 460.29 -1.82558Q461.207 -1.82558 461.67 -2.07888Q462.133 -2.33219 462.133 -2.83008Q462.133 -3.24935 461.814 -3.45462Q461.495 -3.65989 460.543 -3.77344L459.993 -3.84332Q457.905 -4.10536 457.066 -4.81288Q456.228 -5.5204 456.228 -6.96164Q456.228 -8.51644 457.294 -9.26763Q458.359 -10.0188 460.56 -10.0188Q461.425 -10.0188 462.377 -9.8878Q463.329 -9.75678 464.447 -9.47727ZM480.947 -7.11887Q480.537 -7.31103 480.131 -7.40275Q479.725 -7.49447 479.314 -7.49447Q478.109 -7.49447 477.458 -6.72144Q476.807 -5.94841 476.807 -4.50716L476.807 0L473.68 0L473.68 -9.78299L476.807 -9.78299L476.807 -8.17578Q477.41 -9.13661 478.192 -9.57772Q478.973 -10.0188 480.065 -10.0188Q480.222 -10.0188 480.406 -10.0057Q480.589 -9.99262 480.939 -9.94895L480.947 -7.11887ZM482.502 -9.78299L485.629 -9.78299L485.629 0L482.502 0L482.502 -9.78299ZM482.502 -13.5914L485.629 -13.5914L485.629 -11.0408L482.502 -11.0408L482.502 -13.5914ZM495.29 -1.65961Q494.644 -0.803602 493.866 -0.401801Q493.089 0 492.067 0Q490.276 0 489.106 -1.41067Q487.935 -2.82134 487.935 -5.00505Q487.935 -7.19748 489.106 -8.59942Q490.276 -10.0014 492.067 -10.0014Q493.089 -10.0014 493.866 -9.59956Q494.644 -9.19775 495.29 -8.33301L495.29 -9.78299L498.434 -9.78299L498.434 -0.987033Q498.434 1.37137 496.945 2.61608Q495.456 3.86079 492.626 3.86079Q491.709 3.86079 490.853 3.72103Q489.997 3.58127 489.132 3.29302L489.132 0.856011Q489.953 1.32769 490.739 1.55916Q491.525 1.79064 492.32 1.79064Q493.857 1.79064 494.574 1.11806Q495.29 0.445475 495.29 -0.987033L495.29 -1.65961ZM493.229 -7.74778Q492.259 -7.74778 491.717 -7.03152Q491.176 -6.31527 491.176 -5.00505Q491.176 -3.65988 491.7 -2.96547Q492.224 -2.27105 493.229 -2.27105Q494.207 -2.27105 494.748 -2.9873Q495.29 -3.70356 495.29 -5.00505Q495.29 -6.31527 494.748 -7.03152Q494.207 -7.74778 493.229 -7.74778ZM511.275 -5.95714L511.275 0L508.13 0L508.13 -0.969564L508.13 -4.5421Q508.13 -5.82612 508.073 -6.30653Q508.017 -6.78695 507.877 -7.01405Q507.693 -7.31977 507.379 -7.4901Q507.064 -7.66043 506.663 -7.66043Q505.684 -7.66043 505.125 -6.90487Q504.566 -6.14931 504.566 -4.81288L504.566 0L501.439 0L501.439 -13.5914L504.566 -13.5914L504.566 -8.35048Q505.274 -9.20649 506.069 -9.61266Q506.864 -10.0188 507.824 -10.0188Q509.519 -10.0188 510.397 -8.97938Q511.275 -7.93994 511.275 -5.95714ZM517.59 -12.5607L517.59 -9.78299L520.813 -9.78299L520.813 -7.54688L517.59 -7.54688L517.59 -3.39784Q517.59 -2.71653 517.861 -2.47632Q518.131 -2.23611 518.935 -2.23611L520.542 -2.23611L520.542 0L517.861 0Q516.009 0 515.236 -0.773031Q514.463 -1.54606 514.463 -3.39784L514.463 -7.54688L512.908 -7.54688L512.908 -9.78299L514.463 -9.78299L514.463 -12.5607L517.59 -12.5607ZM538.021 -8.15831Q538.615 -9.06673 539.431 -9.54278Q540.248 -10.0188 541.226 -10.0188Q542.912 -10.0188 543.794 -8.97938Q544.677 -7.93994 544.677 -5.95714L544.677 0L541.532 0L541.532 -5.10113Q541.541 -5.21468 541.545 -5.33697Q541.549 -5.45926 541.549 -5.68636Q541.549 -6.7258 541.244 -7.19312Q540.938 -7.66043 540.257 -7.66043Q539.366 -7.66043 538.881 -6.9267Q538.396 -6.19298 538.379 -4.80414L538.379 0L535.234 0L535.234 -5.10113Q535.234 -6.7258 534.955 -7.19312Q534.675 -7.66043 533.959 -7.66043Q533.059 -7.66043 532.57 -6.92234Q532.081 -6.18424 532.081 -4.81288L532.081 0L528.936 0L528.936 -9.78299L532.081 -9.78299L532.081 -8.35048Q532.657 -9.18028 533.404 -9.59956Q534.151 -10.0188 535.051 -10.0188Q536.064 -10.0188 536.841 -9.52968Q537.619 -9.04053 538.021 -8.15831ZM551.979 -4.40234Q551.001 -4.40234 550.507 -4.07042Q550.014 -3.7385 550.014 -3.09212Q550.014 -2.49816 550.411 -2.16187Q550.808 -1.82558 551.516 -1.82558Q552.398 -1.82558 553.001 -2.45885Q553.604 -3.09212 553.604 -4.04422L553.604 -4.40234L551.979 -4.40234ZM556.757 -5.58154L556.757 0L553.604 0L553.604 -1.44998Q552.975 -0.559028 552.189 -0.152859Q551.402 0.253309 550.276 0.253309Q548.756 0.253309 547.808 -0.633274Q546.86 -1.51986 546.86 -2.9349Q546.86 -4.65565 548.044 -5.45926Q549.227 -6.26286 551.76 -6.26286L553.604 -6.26286L553.604 -6.50743Q553.604 -7.24989 553.018 -7.59492Q552.433 -7.93994 551.193 -7.93994Q550.188 -7.93994 549.323 -7.73904Q548.459 -7.53814 547.716 -7.13634L547.716 -9.52094Q548.721 -9.76552 549.734 -9.89217Q550.747 -10.0188 551.76 -10.0188Q554.407 -10.0188 555.582 -8.97502Q556.757 -7.93121 556.757 -5.58154ZM566.933 -7.11887Q566.522 -7.31103 566.116 -7.40275Q565.71 -7.49447 565.299 -7.49447Q564.094 -7.49447 563.443 -6.72144Q562.793 -5.94841 562.793 -4.50716L562.793 0L559.666 0L559.666 -9.78299L562.793 -9.78299L562.793 -8.17578Q563.395 -9.13661 564.177 -9.57772Q564.959 -10.0188 566.051 -10.0188Q566.208 -10.0188 566.391 -10.0057Q566.575 -9.99262 566.924 -9.94895L566.933 -7.11887ZM575.144 -1.65961Q574.497 -0.803602 573.72 -0.401801Q572.942 0 571.92 0Q570.13 0 568.959 -1.41067Q567.789 -2.82134 567.789 -5.00505Q567.789 -7.19748 568.959 -8.59942Q570.13 -10.0014 571.92 -10.0014Q572.942 -10.0014 573.72 -9.59956Q574.497 -9.19775 575.144 -8.33301L575.144 -9.78299L578.288 -9.78299L578.288 -0.987033Q578.288 1.37137 576.799 2.61608Q575.31 3.86079 572.479 3.86079Q571.562 3.86079 570.706 3.72103Q569.85 3.58127 568.986 3.29302L568.986 0.856011Q569.807 1.32769 570.593 1.55916Q571.379 1.79064 572.174 1.79064Q573.711 1.79064 574.427 1.11806Q575.144 0.445475 575.144 -0.987033L575.144 -1.65961ZM573.082 -7.74778Q572.113 -7.74778 571.571 -7.03152Q571.029 -6.31527 571.029 -5.00505Q571.029 -3.65988 571.554 -2.96547Q572.078 -2.27105 573.082 -2.27105Q574.06 -2.27105 574.602 -2.9873Q575.144 -3.70356 575.144 -5.00505Q575.144 -6.31527 574.602 -7.03152Q574.06 -7.74778 573.082 -7.74778ZM581.293 -9.78299L584.42 -9.78299L584.42 0L581.293 0L581.293 -9.78299ZM581.293 -13.5914L584.42 -13.5914L584.42 -11.0408L581.293 -11.0408L581.293 -13.5914ZM597.26 -5.95714L597.26 0L594.116 0L594.116 -0.969564L594.116 -4.55957Q594.116 -5.82612 594.059 -6.30653Q594.002 -6.78695 593.862 -7.01405Q593.679 -7.31977 593.364 -7.4901Q593.05 -7.66043 592.648 -7.66043Q591.67 -7.66043 591.111 -6.90487Q590.552 -6.14931 590.552 -4.81288L590.552 0L587.425 0L587.425 -9.78299L590.552 -9.78299L590.552 -8.35048Q591.259 -9.20649 592.054 -9.61266Q592.849 -10.0188 593.81 -10.0188Q595.504 -10.0188 596.382 -8.97938Q597.26 -7.93994 597.26 -5.95714Z" fill="#262626" transform="translate(450,24.099999999999998) translate(-299.328857421875,0)" />
<rect x="87.38590579562718" y="41.46666666666667" width="653.1603417290581" height="406.87777777777774" fill="#FFFFFF" />
<line x1="117.0750122378571" y1="447.94444444444446" x2="117.0750122378571" y2="453.2055555555555" stroke="#262626" stroke-width="1.1111111111111112" />
<path d="M4.41488 -9.22309Q3.35693 -9.22309 2.82457 -8.1821Q2.29221 -7.14111 2.29221 -5.05235Q2.29221 -2.97038 2.82457 -1.92939Q3.35693 -0.888401 4.41488 -0.888401Q5.4796 -0.888401 6.01196 -1.92939Q6.54433 -2.97038 6.54433 -5.05235Q6.54433 -7.14111 6.01196 -8.1821Q5.4796 -9.22309 4.41488 -9.22309ZM4.41488 -10.3082Q6.11708 -10.3082 7.01565 -8.962Q7.91422 -7.61583 7.91423 -5.05235Q7.91423 -2.49566 7.01565 -1.1495Q6.11708 0.196669 4.41488 0.196669Q2.71267 0.196669 1.8141 -1.1495Q0.915527 -2.49566 0.915527 -5.05235Q0.915527 -7.61583 1.8141 -8.962Q2.71267 -10.3082 4.41488 -10.3082Z" fill="#262626" transform="translate(117.0750122378571,471.9555555555555) translate(-4.418267250061035,0)" />
<line x1="176.45322512231692" y1="447.94444444444446" x2="176.45322512231692" y2="453.2055555555555" stroke="#262626" stroke-width="1.1111111111111112" />
<path d="M1.72255 -1.15289L3.9605 -1.15289L3.9605 -8.87722L1.52588 -8.38894L1.52588 -9.63677L3.94694 -10.1251L5.31684 -10.1251L5.31684 -1.15289L7.5548 -1.15289L7.5548 0L1.72255 0L1.72255 -1.15289Z" fill="#262626" transform="translate(176.45322512231692,471.9555555555555) translate(-4.418267250061035,0)" />
<line x1="235.83143800677675" y1="447.94444444444446" x2="235.83143800677675" y2="453.2055555555555" stroke="#262626" stroke-width="1.1111111111111112" />
<path d="M2.6652 -1.15289L7.44629 -1.15289L7.44629 0L1.01725 0L1.01725 -1.15289Q1.79715 -1.95991 3.14331 -3.31963Q4.48947 -4.67936 4.83534 -5.0727Q5.49316 -5.8119 5.75426 -6.32392Q6.01535 -6.83594 6.01535 -7.331Q6.01535 -8.13802 5.44908 -8.64665Q4.88281 -9.15527 3.97407 -9.15527Q3.32981 -9.15527 2.61434 -8.93148Q1.89887 -8.70768 1.08507 -8.25331L1.08507 -9.63677Q1.91243 -9.96908 2.63129 -10.1386Q3.35015 -10.3082 3.94694 -10.3082Q5.52029 -10.3082 6.45616 -9.52148Q7.39204 -8.73481 7.39204 -7.41916Q7.39204 -6.79525 7.15807 -6.23576Q6.9241 -5.67627 6.30697 -4.91672Q6.13742 -4.72005 5.22868 -3.78079Q4.31993 -2.84153 2.6652 -1.15289Z" fill="#262626" transform="translate(235.83143800677675,471.9555555555555) translate(-4.418267250061035,0)" />
<line x1="295.2096508912366" y1="447.94444444444446" x2="295.2096508912366" y2="453.2055555555555" stroke="#262626" stroke-width="1.1111111111111112" />
<path d="M5.63558 -5.45926Q6.61892 -5.24902 7.17163 -4.58442Q7.72434 -3.91981 7.72434 -2.94325Q7.72434 -1.4445 6.69352 -0.623915Q5.66271 0.196669 3.76383 0.196669Q3.12636 0.196669 2.45158 0.0712077Q1.7768 -0.0542535 1.05794 -0.305176L1.05794 -1.6276Q1.6276 -1.2953 2.30577 -1.12576Q2.98394 -0.956217 3.72314 -0.956217Q5.01166 -0.956217 5.68644 -1.46484Q6.36122 -1.97347 6.36122 -2.94325Q6.36122 -3.83843 5.73391 -4.34367Q5.10661 -4.8489 3.98763 -4.8489L2.80762 -4.8489L2.80762 -5.97466L4.04188 -5.97466Q5.05235 -5.97466 5.58811 -6.37817Q6.12386 -6.78168 6.12386 -7.54123Q6.12386 -8.32113 5.57115 -8.7382Q5.01845 -9.15527 3.98763 -9.15527Q3.42475 -9.15527 2.78049 -9.0332Q2.13623 -8.91113 1.36312 -8.65343L1.36312 -9.87413Q2.14301 -10.0911 2.82457 -10.1997Q3.50613 -10.3082 4.1097 -10.3082Q5.66949 -10.3082 6.57823 -9.59947Q7.48698 -8.89079 7.48698 -7.68365Q7.48698 -6.84272 7.00548 -6.26289Q6.52398 -5.68305 5.63558 -5.45926Z" fill="#262626" transform="translate(295.2096508912366,471.9555555555555) translate(-4.418267250061035,0)" />
<line x1="354.5878637756964" y1="447.94444444444446" x2="354.5878637756964" y2="453.2055555555555" stroke="#262626" stroke-width="1.1111111111111112" />
<path d="M5.24902 -8.93148L1.79036 -3.52648L5.24902 -3.52648L5.24902 -8.93148ZM4.88959 -10.1251L6.61214 -10.1251L6.61214 -3.52648L8.05664 -3.52648L8.05664 -2.38715L6.61214 -2.38715L6.61214 0L5.24902 0L5.24902 -2.38715L0.678168 -2.38715L0.678168 -3.70958L4.88959 -10.1251Z" fill="#262626" transform="translate(354.5878637756964,471.9555555555555) translate(-4.418267250061035,0)" />
<line x1="413.9660766601562" y1="447.94444444444446" x2="413.9660766601562" y2="453.2055555555555" stroke="#262626" stroke-width="1.1111111111111112" />
<path d="M1.49875 -10.1251L6.87663 -10.1251L6.87663 -8.97217L2.75336 -8.97217L2.75336 -6.49007Q3.05176 -6.5918 3.35015 -6.64266Q3.64855 -6.69352 3.94694 -6.69352Q5.64236 -6.69352 6.63249 -5.76443Q7.62261 -4.83534 7.62261 -3.24843Q7.62261 -1.61404 6.60536 -0.708686Q5.58811 0.196669 3.73671 0.196669Q3.09923 0.196669 2.43802 0.0881619C1.99721 0.0158239 1.5417 -0.092683 1.07151 -0.237359L1.07151 -1.61404Q1.68186 -1.28174 2.3329 -1.11898Q2.98394 -0.956217 3.70958 -0.956217Q4.88281 -0.956217 5.56776 -1.57335Q6.25271 -2.19048 6.25271 -3.24843Q6.25271 -4.30637 5.56776 -4.9235Q4.88281 -5.54064 3.70958 -5.54064Q3.16026 -5.54064 2.61434 -5.41857Q2.06841 -5.2965 1.49875 -5.03879L1.49875 -10.1251Z" fill="#262626" transform="translate(413.9660766601562,471.9555555555555) translate(-4.418267250061035,0)" />
<line x1="473.34428954461606" y1="447.94444444444446" x2="473.34428954461606" y2="453.2055555555555" stroke="#262626" stroke-width="1.1111111111111112" />
<path d="M4.58442 -5.60845Q3.66211 -5.60845 3.12297 -4.97776Q2.58382 -4.34706 2.58382 -3.24843Q2.58382 -2.15658 3.12297 -1.52249Q3.66211 -0.888401 4.58442 -0.888401Q5.50673 -0.888401 6.04587 -1.52249Q6.58502 -2.15658 6.58502 -3.24843Q6.58502 -4.34706 6.04587 -4.97776Q5.50673 -5.60845 4.58442 -5.60845ZM7.30387 -9.90126L7.30387 -8.65343Q6.78847 -8.89757 6.26289 -9.02642Q5.7373 -9.15527 5.2219 -9.15527Q3.86556 -9.15527 3.15009 -8.23975Q2.43462 -7.32422 2.3329 -5.47282Q2.73302 -6.06282 3.33659 -6.37817Q3.94016 -6.69352 4.6658 -6.69352Q6.19168 -6.69352 7.07669 -5.76782Q7.9617 -4.84212 7.9617 -3.24843Q7.9617 -1.68864 7.03939 -0.745985Q6.11708 0.196669 4.58442 0.196669Q2.82796 0.196669 1.89887 -1.1495Q0.969781 -2.49566 0.969781 -5.05235Q0.969781 -7.45307 2.1091 -8.88062Q3.24843 -10.3082 5.16764 -10.3082Q5.68305 -10.3082 6.20863 -10.2064Q6.73421 -10.1047 7.30387 -9.90126Z" fill="#262626" transform="translate(473.34428954461606,471.9555555555555) translate(-4.418267250061035,0)" />
<line x1="532.7225024290759" y1="447.94444444444446" x2="532.7225024290759" y2="453.2055555555555" stroke="#262626" stroke-width="1.1111111111111112" />
<path d="M1.13932 -10.1251L7.64974 -10.1251L7.64974 -9.54183L3.97407 0L2.54313 0L6.00179 -8.97217L1.13932 -8.97217L1.13932 -10.1251Z" fill="#262626" transform="translate(532.7225024290759,471.9555555555555) translate(-4.418267250061035,0)" />
<line x1="592.1007153135357" y1="447.94444444444446" x2="592.1007153135357" y2="453.2055555555555" stroke="#262626" stroke-width="1.1111111111111112" />
<path d="M4.41488 -4.80821Q3.43831 -4.80821 2.87882 -4.28602Q2.31934 -3.76383 2.31934 -2.84831Q2.31934 -1.93278 2.87882 -1.41059Q3.43831 -0.888401 4.41488 -0.888401Q5.39144 -0.888401 5.95432 -1.41398Q6.5172 -1.93956 6.5172 -2.84831Q6.5172 -3.76383 5.95771 -4.28602Q5.39822 -4.80821 4.41488 -4.80821ZM3.04498 -5.39144Q2.16336 -5.60845 1.67169 -6.21202Q1.18001 -6.81559 1.18001 -7.68365Q1.18001 -8.89757 2.04468 -9.60287Q2.90934 -10.3082 4.41488 -10.3082Q5.92719 -10.3082 6.78847 -9.60287Q7.64974 -8.89757 7.64974 -7.68365Q7.64974 -6.81559 7.15807 -6.21202Q6.6664 -5.60845 5.79156 -5.39144Q6.78168 -5.16086 7.33439 -4.48947Q7.8871 -3.81809 7.8871 -2.84831Q7.8871 -1.37668 6.98853 -0.590007Q6.08995 0.196669 4.41488 0.196669Q2.7398 0.196669 1.84123 -0.590007Q0.942654 -1.37668 0.942654 -2.84831Q0.942654 -3.81809 1.49875 -4.48947Q2.05485 -5.16086 3.04498 -5.39144ZM2.54313 -7.5548Q2.54313 -6.76812 3.0348 -6.32731Q3.52648 -5.8865 4.41488 -5.8865Q5.29649 -5.8865 5.79495 -6.32731Q6.2934 -6.76812 6.2934 -7.5548Q6.2934 -8.34147 5.79495 -8.78228Q5.2965 -9.22309 4.41488 -9.22309Q3.52648 -9.22309 3.0348 -8.78228Q2.54313 -8.34147 2.54313 -7.5548Z" fill="#262626" transform="translate(592.1007153135357,471.9555555555555) translate(-4.418267250061035,0)" />
<line x1="651.4789281979955" y1="447.94444444444446" x2="651.4789281979955" y2="453.2055555555555" stroke="#262626" stroke-width="1.1111111111111112" />
<path d="M1.52588 -0.210232L1.52588 -1.45806Q2.04129 -1.21392 2.57026 -1.08507Q3.09923 -0.956217 3.60786 -0.956217Q4.96419 -0.956217 5.67966 -1.86835Q6.39513 -2.78049 6.49685 -4.63867Q6.10352 -4.05545 5.49995 -3.74349Q4.89638 -3.43153 4.16395 -3.43153Q2.64486 -3.43153 1.75985 -4.35045Q0.874837 -5.26937 0.874837 -6.86306Q0.874837 -8.42285 1.79715 -9.36551Q2.71946 -10.3082 4.25212 -10.3082Q6.00857 -10.3082 6.93427 -8.962Q7.85997 -7.61583 7.85997 -5.05235Q7.85997 -2.65842 6.72404 -1.23088Q5.58811 0.196669 3.66889 0.196669Q3.15348 0.196669 2.62451 0.0949436Q2.09554 -0.00678168 1.52588 -0.210232ZM4.25212 -4.50304Q5.17442 -4.50304 5.71357 -5.13374Q6.25271 -5.76443 6.25271 -6.86306Q6.25271 -7.95491 5.71357 -8.589Q5.17443 -9.22309 4.25212 -9.22309Q3.32981 -9.22309 2.79066 -8.589Q2.25152 -7.95492 2.25152 -6.86306Q2.25152 -5.76443 2.79066 -5.13374Q3.32981 -4.50304 4.25212 -4.50304Z" fill="#262626" transform="translate(651.4789281979955,471.9555555555555) translate(-4.418267250061035,0)" />
<line x1="710.8571410824553" y1="447.94444444444446" x2="710.8571410824553" y2="453.2055555555555" stroke="#262626" stroke-width="1.1111111111111112" />
<path d="M1.72255 -1.15289L3.9605 -1.15289L3.9605 -8.87722L1.52588 -8.38894L1.52588 -9.63677L3.94694 -10.1251L5.31684 -10.1251L5.31684 -1.15289L7.5548 -1.15289L7.5548 0L1.72255 0L1.72255 -1.15289ZM13.2514 -9.22309Q12.1935 -9.22309 11.6611 -8.1821Q11.1287 -7.14111 11.1287 -5.05235Q11.1287 -2.97038 11.6611 -1.92939Q12.1935 -0.888401 13.2514 -0.888401Q14.3161 -0.888401 14.8485 -1.92939Q15.3809 -2.97038 15.3809 -5.05235Q15.3809 -7.14111 14.8485 -8.1821Q14.3161 -9.22309 13.2514 -9.22309ZM13.2514 -10.3082Q14.9536 -10.3082 15.8522 -8.962Q16.7508 -7.61583 16.7508 -5.05235Q16.7508 -2.49566 15.8522 -1.1495Q14.9536 0.196669 13.2514 0.196669Q11.5492 0.196669 10.6506 -1.1495Q9.75206 -2.49566 9.75206 -5.05235Q9.75206 -7.61583 10.6506 -8.962Q11.5492 -10.3082 13.2514 -10.3082Z" fill="#262626" transform="translate(710.8571410824553,471.9555555555555) translate(-8.83653450012207,0)" />
<line x1="82.52479468451607" y1="429.8597715803396" x2="87.78590579562719" y2="429.8597715803396" stroke="#262626" stroke-width="1.1111111111111112" />
<path d="M0.678168 -4.36062L4.3335 -4.36062L4.3335 -3.24843L0.678168 -3.24843L0.678168 -4.36062ZM6.73421 -1.15289L8.97217 -1.15289L8.97217 -8.87722L6.53754 -8.38894L6.53754 -9.63677L8.9586 -10.1251L10.3285 -10.1251L10.3285 -1.15289L12.5665 -1.15289L12.5665 0L6.73421 0L6.73421 -1.15289ZM15.3334 -1.72255L16.7643 -1.72255L16.7643 0L15.3334 0L15.3334 -1.72255ZM22.678 -9.22309Q21.62 -9.22309 21.0876 -8.1821Q20.5553 -7.14111 20.5553 -5.05235Q20.5553 -2.97038 21.0876 -1.92939Q21.62 -0.888401 22.678 -0.888401Q23.7427 -0.888401 24.275 -1.92939Q24.8074 -2.97038 24.8074 -5.05235Q24.8074 -7.14111 24.275 -8.1821Q23.7427 -9.22309 22.678 -9.22309ZM22.678 -10.3082Q24.3802 -10.3082 25.2787 -8.962Q26.1773 -7.61583 26.1773 -5.05235Q26.1773 -2.49566 25.2787 -1.1495Q24.3802 0.196669 22.678 0.196669Q20.9757 0.196669 20.0772 -1.1495Q19.1786 -2.49566 19.1786 -5.05235Q19.1786 -7.61583 20.0772 -8.962Q20.9757 -10.3082 22.678 -10.3082ZM31.5145 -9.22309Q30.4565 -9.22309 29.9242 -8.1821Q29.3918 -7.14111 29.3918 -5.05235Q29.3918 -2.97038 29.9242 -1.92939Q30.4565 -0.888401 31.5145 -0.888401Q32.5792 -0.888401 33.1116 -1.92939Q33.6439 -2.97038 33.6439 -5.05235Q33.6439 -7.14111 33.1116 -8.1821Q32.5792 -9.22309 31.5145 -9.22309ZM31.5145 -10.3082Q33.2167 -10.3082 34.1153 -8.962Q35.0138 -7.61583 35.0138 -5.05235Q35.0138 -2.49566 34.1153 -1.1495Q33.2167 0.196669 31.5145 0.196669Q29.8123 0.196669 28.9137 -1.1495Q28.0151 -2.49566 28.0151 -5.05235Q28.0151 -7.61583 28.9137 -8.962Q29.8123 -10.3082 31.5145 -10.3082Z" fill="#262626" transform="translate(77.66368357340495,433.8597715803396) translate(-35.9361457824707,0)" />
<line x1="82.52479468451607" y1="383.6224390216861" x2="87.78590579562719" y2="383.6224390216861" stroke="#262626" stroke-width="1.1111111111111112" />
<path d="M0.678168 -4.36062L4.3335 -4.36062L4.3335 -3.24843L0.678168 -3.24843L0.678168 -4.36062ZM9.42654 -9.22309Q8.3686 -9.22309 7.83624 -8.1821Q7.30387 -7.14111 7.30387 -5.05235Q7.30387 -2.97038 7.83624 -1.92939Q8.3686 -0.888401 9.42654 -0.888401Q10.4913 -0.888401 11.0236 -1.92939Q11.556 -2.97038 11.556 -5.05235Q11.556 -7.14111 11.0236 -8.1821Q10.4913 -9.22309 9.42654 -9.22309ZM9.42654 -10.3082Q11.1287 -10.3082 12.0273 -8.962Q12.9259 -7.61583 12.9259 -5.05235Q12.9259 -2.49566 12.0273 -1.1495Q11.1287 0.196669 9.42654 0.196669Q7.72434 0.196669 6.82577 -1.1495Q5.92719 -2.49566 5.92719 -5.05235Q5.92719 -7.61583 6.82577 -8.962Q7.72434 -10.3082 9.42654 -10.3082ZM15.3334 -1.72255L16.7643 -1.72255L16.7643 0L15.3334 0L15.3334 -1.72255ZM19.4024 -10.1251L25.9128 -10.1251L25.9128 -9.54183L22.2371 0L20.8062 0L24.2649 -8.97217L19.4024 -8.97217L19.4024 -10.1251ZM28.5984 -10.1251L33.9762 -10.1251L33.9762 -8.97217L29.853 -8.97217L29.853 -6.49007Q30.1514 -6.5918 30.4498 -6.64266Q30.7482 -6.69352 31.0466 -6.69352Q32.742 -6.69352 33.7321 -5.76443Q34.7222 -4.83534 34.7222 -3.24843Q34.7222 -1.61404 33.705 -0.708686Q32.6877 0.196669 30.8363 0.196669Q30.1988 0.196669 29.5376 0.0881619C29.0968 0.0158239 28.6413 -0.092683 28.1711 -0.237359L28.1711 -1.61404Q28.7815 -1.28174 29.4325 -1.11898Q30.0836 -0.956217 30.8092 -0.956217Q31.9824 -0.956217 32.6674 -1.57335Q33.3523 -2.19048 33.3523 -3.24843Q33.3523 -4.30637 32.6674 -4.9235Q31.9824 -5.54064 30.8092 -5.54064Q30.2599 -5.54064 29.714 -5.41857Q29.168 -5.2965 28.5984 -5.03879L28.5984 -10.1251Z" fill="#262626" transform="translate(77.66368357340495,387.6224390216861) translate(-35.9361457824707,0)" />
<line x1="82.52479468451607" y1="337.3851064630325" x2="87.78590579562719" y2="337.3851064630325" stroke="#262626" stroke-width="1.1111111111111112" />
<path d="M0.678168 -4.36062L4.3335 -4.36062L4.3335 -3.24843L0.678168 -3.24843L0.678168 -4.36062ZM9.42654 -9.22309Q8.3686 -9.22309 7.83624 -8.1821Q7.30387 -7.14111 7.30387 -5.05235Q7.30387 -2.97038 7.83624 -1.92939Q8.3686 -0.888401 9.42654 -0.888401Q10.4913 -0.888401 11.0236 -1.92939Q11.556 -2.97038 11.556 -5.05235Q11.556 -7.14111 11.0236 -8.1821Q10.4913 -9.22309 9.42654 -9.22309ZM9.42654 -10.3082Q11.1287 -10.3082 12.0273 -8.962Q12.9259 -7.61583 12.9259 -5.05235Q12.9259 -2.49566 12.0273 -1.1495Q11.1287 0.196669 9.42654 0.196669Q7.72434 0.196669 6.82577 -1.1495Q5.92719 -2.49566 5.92719 -5.05235Q5.92719 -7.61583 6.82577 -8.962Q7.72434 -10.3082 9.42654 -10.3082ZM15.3334 -1.72255L16.7643 -1.72255L16.7643 0L15.3334 0L15.3334 -1.72255ZM19.7618 -10.1251L25.1397 -10.1251L25.1397 -8.97217L21.0164 -8.97217L21.0164 -6.49007Q21.3148 -6.5918 21.6132 -6.64266Q21.9116 -6.69352 22.21 -6.69352Q23.9054 -6.69352 24.8956 -5.76443Q25.8857 -4.83534 25.8857 -3.24843Q25.8857 -1.61404 24.8684 -0.708686Q23.8512 0.196669 21.9998 0.196669Q21.3623 0.196669 20.7011 0.0881619C20.2603 0.0158239 19.8048 -0.092683 19.3346 -0.237359L19.3346 -1.61404Q19.9449 -1.28174 20.596 -1.11898Q21.247 -0.956217 21.9727 -0.956217Q23.1459 -0.956217 23.8308 -1.57335Q24.5158 -2.19048 24.5158 -3.24843Q24.5158 -4.30637 23.8308 -4.9235Q23.1459 -5.54064 21.9727 -5.54064Q21.4233 -5.54064 20.8774 -5.41857Q20.3315 -5.2965 19.7618 -5.03879L19.7618 -10.1251ZM31.5145 -9.22309Q30.4565 -9.22309 29.9242 -8.1821Q29.3918 -7.14111 29.3918 -5.05235Q29.3918 -2.97038 29.9242 -1.92939Q30.4565 -0.888401 31.5145 -0.888401Q32.5792 -0.888401 33.1116 -1.92939Q33.6439 -2.97038 33.6439 -5.05235Q33.6439 -7.14111 33.1116 -8.1821Q32.5792 -9.22309 31.5145 -9.22309ZM31.5145 -10.3082Q33.2167 -10.3082 34.1153 -8.962Q35.0138 -7.61583 35.0138 -5.05235Q35.0138 -2.49566 34.1153 -1.1495Q33.2167 0.196669 31.5145 0.196669Q29.8123 0.196669 28.9137 -1.1495Q28.0151 -2.49566 28.0151 -5.05235Q28.0151 -7.61583 28.9137 -8.962Q29.8123 -10.3082 31.5145 -10.3082Z" fill="#262626" transform="translate(77.66368357340495,341.3851064630325) translate(-35.9361457824707,0)" />
<line x1="82.52479468451607" y1="291.14777390437894" x2="87.78590579562719" y2="291.14777390437894" stroke="#262626" stroke-width="1.1111111111111112" />
<path d="M0.678168 -4.36062L4.3335 -4.36062L4.3335 -3.24843L0.678168 -3.24843L0.678168 -4.36062ZM9.42654 -9.22309Q8.3686 -9.22309 7.83624 -8.1821Q7.30387 -7.14111 7.30387 -5.05235Q7.30387 -2.97038 7.83624 -1.92939Q8.3686 -0.888401 9.42654 -0.888401Q10.4913 -0.888401 11.0236 -1.92939Q11.556 -2.97038 11.556 -5.05235Q11.556 -7.14111 11.0236 -8.1821Q10.4913 -9.22309 9.42654 -9.22309ZM9.42654 -10.3082Q11.1287 -10.3082 12.0273 -8.962Q12.9259 -7.61583 12.9259 -5.05235Q12.9259 -2.49566 12.0273 -1.1495Q11.1287 0.196669 9.42654 0.196669Q7.72434 0.196669 6.82577 -1.1495Q5.92719 -2.49566 5.92719 -5.05235Q5.92719 -7.61583 6.82577 -8.962Q7.72434 -10.3082 9.42654 -10.3082ZM15.3334 -1.72255L16.7643 -1.72255L16.7643 0L15.3334 0L15.3334 -1.72255ZM20.9283 -1.15289L25.7094 -1.15289L25.7094 0L19.2803 0L19.2803 -1.15289Q20.0602 -1.95991 21.4064 -3.31963Q22.7526 -4.67936 23.0984 -5.0727Q23.7562 -5.8119 24.0173 -6.32392Q24.2784 -6.83594 24.2784 -7.331Q24.2784 -8.13802 23.7122 -8.64665Q23.1459 -9.15527 22.2371 -9.15527Q21.5929 -9.15527 20.8774 -8.93148Q20.1619 -8.70768 19.3481 -8.25331L19.3481 -9.63677Q20.1755 -9.96908 20.8944 -10.1386Q21.6132 -10.3082 22.21 -10.3082Q23.7834 -10.3082 24.7192 -9.52148Q25.6551 -8.73481 25.6551 -7.41916Q25.6551 -6.79525 25.4211 -6.23576Q25.1872 -5.67627 24.57 -4.91672Q24.4005 -4.72005 23.4918 -3.78079Q22.583 -2.84153 20.9283 -1.15289ZM28.5984 -10.1251L33.9762 -10.1251L33.9762 -8.97217L29.853 -8.97217L29.853 -6.49007Q30.1514 -6.5918 30.4498 -6.64266Q30.7482 -6.69352 31.0466 -6.69352Q32.742 -6.69352 33.7321 -5.76443Q34.7222 -4.83534 34.7222 -3.24843Q34.7222 -1.61404 33.705 -0.708686Q32.6877 0.196669 30.8363 0.196669Q30.1988 0.196669 29.5376 0.0881619C29.0968 0.0158239 28.6413 -0.092683 28.1711 -0.237359L28.1711 -1.61404Q28.7815 -1.28174 29.4325 -1.11898Q30.0836 -0.956217 30.8092 -0.956217Q31.9824 -0.956217 32.6674 -1.57335Q33.3523 -2.19048 33.3523 -3.24843Q33.3523 -4.30637 32.6674 -4.9235Q31.9824 -5.54064 30.8092 -5.54064Q30.2599 -5.54064 29.714 -5.41857Q29.168 -5.2965 28.5984 -5.03879L28.5984 -10.1251Z" fill="#262626" transform="translate(77.66368357340495,295.14777390437894) translate(-35.9361457824707,0)" />
<line x1="82.52479468451607" y1="244.91044134572542" x2="87.78590579562719" y2="244.91044134572542" stroke="#262626" stroke-width="1.1111111111111112" />
<path d="M4.41488 -9.22309Q3.35693 -9.22309 2.82457 -8.1821Q2.29221 -7.14111 2.29221 -5.05235Q2.29221 -2.97038 2.82457 -1.92939Q3.35693 -0.888401 4.41488 -0.888401Q5.4796 -0.888401 6.01196 -1.92939Q6.54433 -2.97038 6.54433 -5.05235Q6.54433 -7.14111 6.01196 -8.1821Q5.4796 -9.22309 4.41488 -9.22309ZM4.41488 -10.3082Q6.11708 -10.3082 7.01565 -8.962Q7.91422 -7.61583 7.91423 -5.05235Q7.91423 -2.49566 7.01565 -1.1495Q6.11708 0.196669 4.41488 0.196669Q2.71267 0.196669 1.8141 -1.1495Q0.915527 -2.49566 0.915527 -5.05235Q0.915527 -7.61583 1.8141 -8.962Q2.71267 -10.3082 4.41488 -10.3082ZM10.3217 -1.72255L11.7527 -1.72255L11.7527 0L10.3217 0L10.3217 -1.72255ZM17.6663 -9.22309Q16.6083 -9.22309 16.076 -8.1821Q15.5436 -7.14111 15.5436 -5.05235Q15.5436 -2.97038 16.076 -1.92939Q16.6083 -0.888401 17.6663 -0.888401Q18.731 -0.888401 19.2634 -1.92939Q19.7957 -2.97038 19.7957 -5.05235Q19.7957 -7.14111 19.2634 -8.1821Q18.731 -9.22309 17.6663 -9.22309ZM17.6663 -10.3082Q19.3685 -10.3082 20.2671 -8.962Q21.1656 -7.61583 21.1656 -5.05235Q21.1656 -2.49566 20.2671 -1.1495Q19.3685 0.196669 17.6663 0.196669Q15.9641 0.196669 15.0655 -1.1495Q14.1669 -2.49566 14.1669 -5.05235Q14.1669 -7.61583 15.0655 -8.962Q15.9641 -10.3082 17.6663 -10.3082ZM26.5028 -9.22309Q25.4449 -9.22309 24.9125 -8.1821Q24.3802 -7.14111 24.3802 -5.05235Q24.3802 -2.97038 24.9125 -1.92939Q25.4449 -0.888401 26.5028 -0.888401Q27.5675 -0.888401 28.0999 -1.92939Q28.6323 -2.97038 28.6323 -5.05235Q28.6323 -7.14111 28.0999 -8.1821Q27.5675 -9.22309 26.5028 -9.22309ZM26.5028 -10.3082Q28.205 -10.3082 29.1036 -8.962Q30.0022 -7.61583 30.0022 -5.05235Q30.0022 -2.49566 29.1036 -1.1495Q28.205 0.196669 26.5028 0.196669Q24.8006 0.196669 23.902 -1.1495Q23.0035 -2.49566 23.0035 -5.05235Q23.0035 -7.61583 23.902 -8.962Q24.8006 -10.3082 26.5028 -10.3082Z" fill="#262626" transform="translate(77.66368357340495,248.91044134572542) translate(-30.924480438232422,0)" />
<line x1="82.52479468451607" y1="198.67310878707187" x2="87.78590579562719" y2="198.67310878707187" stroke="#262626" stroke-width="1.1111111111111112" />
<path d="M4.41488 -9.22309Q3.35693 -9.22309 2.82457 -8.1821Q2.29221 -7.14111 2.29221 -5.05235Q2.29221 -2.97038 2.82457 -1.92939Q3.35693 -0.888401 4.41488 -0.888401Q5.4796 -0.888401 6.01196 -1.92939Q6.54433 -2.97038 6.54433 -5.05235Q6.54433 -7.14111 6.01196 -8.1821Q5.4796 -9.22309 4.41488 -9.22309ZM4.41488 -10.3082Q6.11708 -10.3082 7.01565 -8.962Q7.91422 -7.61583 7.91423 -5.05235Q7.91423 -2.49566 7.01565 -1.1495Q6.11708 0.196669 4.41488 0.196669Q2.71267 0.196669 1.8141 -1.1495Q0.915527 -2.49566 0.915527 -5.05235Q0.915527 -7.61583 1.8141 -8.962Q2.71267 -10.3082 4.41488 -10.3082ZM10.3217 -1.72255L11.7527 -1.72255L11.7527 0L10.3217 0L10.3217 -1.72255ZM15.9166 -1.15289L20.6977 -1.15289L20.6977 0L14.2687 0L14.2687 -1.15289Q15.0486 -1.95991 16.3947 -3.31963Q17.7409 -4.67936 18.0868 -5.0727Q18.7446 -5.8119 19.0057 -6.32392Q19.2668 -6.83594 19.2668 -7.331Q19.2668 -8.13802 18.7005 -8.64665Q18.1342 -9.15527 17.2255 -9.15527Q16.5812 -9.15527 15.8658 -8.93148Q15.1503 -8.70768 14.3365 -8.25331L14.3365 -9.63677Q15.1638 -9.96908 15.8827 -10.1386Q16.6016 -10.3082 17.1984 -10.3082Q18.7717 -10.3082 19.7076 -9.52148Q20.6434 -8.73481 20.6434 -7.41916Q20.6434 -6.79525 20.4095 -6.23576Q20.1755 -5.67627 19.5584 -4.91672Q19.3888 -4.72005 18.4801 -3.78079Q17.5713 -2.84153 15.9166 -1.15289ZM23.5867 -10.1251L28.9646 -10.1251L28.9646 -8.97217L24.8413 -8.97217L24.8413 -6.49007Q25.1397 -6.5918 25.4381 -6.64266Q25.7365 -6.69352 26.0349 -6.69352Q27.7303 -6.69352 28.7204 -5.76443Q29.7106 -4.83534 29.7106 -3.24843Q29.7106 -1.61404 28.6933 -0.708686Q27.6761 0.196669 25.8247 0.196669Q25.1872 0.196669 24.526 0.0881619C24.0852 0.0158239 23.6296 -0.092683 23.1595 -0.237359L23.1595 -1.61404Q23.7698 -1.28174 24.4208 -1.11898Q25.0719 -0.956217 25.7975 -0.956217Q26.9708 -0.956217 27.6557 -1.57335Q28.3407 -2.19048 28.3407 -3.24843Q28.3407 -4.30637 27.6557 -4.9235Q26.9708 -5.54064 25.7975 -5.54064Q25.2482 -5.54064 24.7023 -5.41857Q24.1564 -5.2965 23.5867 -5.03879L23.5867 -10.1251Z" fill="#262626" transform="translate(77.66368357340495,202.67310878707187) translate(-30.924480438232422,0)" />
<line x1="82.52479468451607" y1="152.43577622841832" x2="87.78590579562719" y2="152.43577622841832" stroke="#262626" stroke-width="1.1111111111111112" />
<path d="M4.41488 -9.22309Q3.35693 -9.22309 2.82457 -8.1821Q2.29221 -7.14111 2.29221 -5.05235Q2.29221 -2.97038 2.82457 -1.92939Q3.35693 -0.888401 4.41488 -0.888401Q5.4796 -0.888401 6.01196 -1.92939Q6.54433 -2.97038 6.54433 -5.05235Q6.54433 -7.14111 6.01196 -8.1821Q5.4796 -9.22309 4.41488 -9.22309ZM4.41488 -10.3082Q6.11708 -10.3082 7.01565 -8.962Q7.91422 -7.61583 7.91423 -5.05235Q7.91423 -2.49566 7.01565 -1.1495Q6.11708 0.196669 4.41488 0.196669Q2.71267 0.196669 1.8141 -1.1495Q0.915527 -2.49566 0.915527 -5.05235Q0.915527 -7.61583 1.8141 -8.962Q2.71267 -10.3082 4.41488 -10.3082ZM10.3217 -1.72255L11.7527 -1.72255L11.7527 0L10.3217 0L10.3217 -1.72255ZM14.7502 -10.1251L20.128 -10.1251L20.128 -8.97217L16.0048 -8.97217L16.0048 -6.49007Q16.3032 -6.5918 16.6016 -6.64266Q16.9 -6.69352 17.1984 -6.69352Q18.8938 -6.69352 19.8839 -5.76443Q20.874 -4.83534 20.874 -3.24843Q20.874 -1.61404 19.8568 -0.708686Q18.8395 0.196669 16.9881 0.196669Q16.3506 0.196669 15.6894 0.0881619C15.2486 0.0158239 14.7931 -0.092683 14.3229 -0.237359L14.3229 -1.61404Q14.9333 -1.28174 15.5843 -1.11898Q16.2354 -0.956217 16.961 -0.956217Q18.1342 -0.956217 18.8192 -1.57335Q19.5041 -2.19048 19.5041 -3.24843Q19.5041 -4.30637 18.8192 -4.9235Q18.1342 -5.54064 16.961 -5.54064Q16.4117 -5.54064 15.8658 -5.41857Q15.3198 -5.2965 14.7502 -5.03879L14.7502 -10.1251ZM26.5028 -9.22309Q25.4449 -9.22309 24.9125 -8.1821Q24.3802 -7.14111 24.3802 -5.05235Q24.3802 -2.97038 24.9125 -1.92939Q25.4449 -0.888401 26.5028 -0.888401Q27.5675 -0.888401 28.0999 -1.92939Q28.6323 -2.97038 28.6323 -5.05235Q28.6323 -7.14111 28.0999 -8.1821Q27.5675 -9.22309 26.5028 -9.22309ZM26.5028 -10.3082Q28.205 -10.3082 29.1036 -8.962Q30.0022 -7.61583 30.0022 -5.05235Q30.0022 -2.49566 29.1036 -1.1495Q28.205 0.196669 26.5028 0.196669Q24.8006 0.196669 23.902 -1.1495Q23.0035 -2.49566 23.0035 -5.05235Q23.0035 -7.61583 23.902 -8.962Q24.8006 -10.3082 26.5028 -10.3082Z" fill="#262626" transform="translate(77.66368357340495,156.43577622841832) translate(-30.924480438232422,0)" />
<line x1="82.52479468451607" y1="106.19844366976477" x2="87.78590579562719" y2="106.19844366976477" stroke="#262626" stroke-width="1.1111111111111112" />
<path d="M4.41488 -9.22309Q3.35693 -9.22309 2.82457 -8.1821Q2.29221 -7.14111 2.29221 -5.05235Q2.29221 -2.97038 2.82457 -1.92939Q3.35693 -0.888401 4.41488 -0.888401Q5.4796 -0.888401 6.01196 -1.92939Q6.54433 -2.97038 6.54433 -5.05235Q6.54433 -7.14111 6.01196 -8.1821Q5.4796 -9.22309 4.41488 -9.22309ZM4.41488 -10.3082Q6.11708 -10.3082 7.01565 -8.962Q7.91422 -7.61583 7.91423 -5.05235Q7.91423 -2.49566 7.01565 -1.1495Q6.11708 0.196669 4.41488 0.196669Q2.71267 0.196669 1.8141 -1.1495Q0.915527 -2.49566 0.915527 -5.05235Q0.915527 -7.61583 1.8141 -8.962Q2.71267 -10.3082 4.41488 -10.3082ZM10.3217 -1.72255L11.7527 -1.72255L11.7527 0L10.3217 0L10.3217 -1.72255ZM14.3907 -10.1251L20.9012 -10.1251L20.9012 -9.54183L17.2255 0L15.7945 0L19.2532 -8.97217L14.3907 -8.97217L14.3907 -10.1251ZM23.5867 -10.1251L28.9646 -10.1251L28.9646 -8.97217L24.8413 -8.97217L24.8413 -6.49007Q25.1397 -6.5918 25.4381 -6.64266Q25.7365 -6.69352 26.0349 -6.69352Q27.7303 -6.69352 28.7204 -5.76443Q29.7106 -4.83534 29.7106 -3.24843Q29.7106 -1.61404 28.6933 -0.708686Q27.6761 0.196669 25.8247 0.196669Q25.1872 0.196669 24.526 0.0881619C24.0852 0.0158239 23.6296 -0.092683 23.1595 -0.237359L23.1595 -1.61404Q23.7698 -1.28174 24.4208 -1.11898Q25.0719 -0.956217 25.7975 -0.956217Q26.9708 -0.956217 27.6557 -1.57335Q28.3407 -2.19048 28.3407 -3.24843Q28.3407 -4.30637 27.6557 -4.9235Q26.9708 -5.54064 25.7975 -5.54064Q25.2482 -5.54064 24.7023 -5.41857Q24.1564 -5.2965 23.5867 -5.03879L23.5867 -10.1251Z" fill="#262626" transform="translate(77.66368357340495,110.19844366976477) translate(-30.924480438232422,0)" />
<line x1="82.52479468451607" y1="59.96111111111122" x2="87.78590579562719" y2="59.96111111111122" stroke="#262626" stroke-width="1.1111111111111112" />
<path d="M1.72255 -1.15289L3.9605 -1.15289L3.9605 -8.87722L1.52588 -8.38894L1.52588 -9.63677L3.94694 -10.1251L5.31684 -10.1251L5.31684 -1.15289L7.5548 -1.15289L7.5548 0L1.72255 0L1.72255 -1.15289ZM10.3217 -1.72255L11.7527 -1.72255L11.7527 0L10.3217 0L10.3217 -1.72255ZM17.6663 -9.22309Q16.6083 -9.22309 16.076 -8.1821Q15.5436 -7.14111 15.5436 -5.05235Q15.5436 -2.97038 16.076 -1.92939Q16.6083 -0.888401 17.6663 -0.888401Q18.731 -0.888401 19.2634 -1.92939Q19.7957 -2.97038 19.7957 -5.05235Q19.7957 -7.14111 19.2634 -8.1821Q18.731 -9.22309 17.6663 -9.22309ZM17.6663 -10.3082Q19.3685 -10.3082 20.2671 -8.962Q21.1656 -7.61583 21.1656 -5.05235Q21.1656 -2.49566 20.2671 -1.1495Q19.3685 0.196669 17.6663 0.196669Q15.9641 0.196669 15.0655 -1.1495Q14.1669 -2.49566 14.1669 -5.05235Q14.1669 -7.61583 15.0655 -8.962Q15.9641 -10.3082 17.6663 -10.3082ZM26.5028 -9.22309Q25.4449 -9.22309 24.9125 -8.1821Q24.3802 -7.14111 24.3802 -5.05235Q24.3802 -2.97038 24.9125 -1.92939Q25.4449 -0.888401 26.5028 -0.888401Q27.5675 -0.888401 28.0999 -1.92939Q28.6323 -2.97038 28.6323 -5.05235Q28.6323 -7.14111 28.0999 -8.1821Q27.5675 -9.22309 26.5028 -9.22309ZM26.5028 -10.3082Q28.205 -10.3082 29.1036 -8.962Q30.0022 -7.61583 30.0022 -5.05235Q30.0022 -2.49566 29.1036 -1.1495Q28.205 0.196669 26.5028 0.196669Q24.8006 0.196669 23.902 -1.1495Q23.0035 -2.49566 23.0035 -5.05235Q23.0035 -7.61583 23.902 -8.962Q24.8006 -10.3082 26.5028 -10.3082Z" fill="#262626" transform="translate(77.66368357340495,63.96111111111122) translate(-30.924480438232422,0)" />
<g class="series" aria-label="sin(x)">
<polyline points="117.0750122378571,244.91044134572542 123.07281151911566,226.26044305707242 129.07061080037423,207.80056971951356 135.0684100816328,189.71900808037105 141.06620936289136,172.20008823818654 147.06400864414994,155.42240451381002 153.06180792540852,139.5569947941196 159.05960720666707,124.76559690881143 165.05740648792565,111.19899981539811 171.0552057691842,98.99550640104232 177.05300505044278,88.27952357198988 183.05080433170136,79.16029400375027 189.0486036129599,71.73078248102979 195.0464028942185,66.06672818047865 201.04420217547704,62.22587255763052 207.04200145673562,60.24737070923934 213.0398007379942,60.151392211802815 219.03760001925275,61.938915505471385 225.03539930051133,65.59171791946902 231.03319858176988,71.07256144071015 237.03099786302846,78.32557233181947 243.02879714428704,87.27681072858816 249.02659642554562,97.83502441018078 255.02439570680417,109.89257905788122 261.0221949880627,123.3265555189783 267.0199942693213,138.00000288987738 273.0177935505799,153.7633346440495 279.01559283183843,170.45585357217274 285.013392113097,187.9073899886672 291.0111913943556,205.94003650414066 297.00899067561414,224.36996167883692 303.00678995687275,243.00928406803556 309.0045892381313,261.6679875546931 315.00238851938985,280.1558584437213 321.0001878006484,298.2844245704467 326.997987081907,315.86887665527047 332.99578636316556,332.7299523175262 338.9935856444241,348.69576354220936 344.99138492568267,363.603548969705 350.9891842069413,377.3013331450318 356.9869834881998,389.6494758115995 362.9847827694584,400.52209545541274 368.982582050717,409.8083525875855 374.98038133197554,417.4135796829106 380.97818061323414,423.2602462554771 386.9759798944927,427.28874923299674 392.97377917575125,429.4580205724741 398.9715784570098,429.7459459229616 404.9693777382684,428.14959006739736 410.96717701952696,424.68522684528904 416.9649763007855,419.3881732512005 422.96277558204406,412.31242940030234 428.96057486330267,403.5301280313104 434.9583741445612,393.1307991587818 440.95617342581977,381.220457371174 446.9539727070783,367.92052107908586 452.95177198833693,353.3665747312638 458.9495712695955,337.7069866167972 464.9473705508541,321.10139634413736 470.94516983211264,303.71908741613595 476.9429691133712,285.7372614916716 482.9407683946298,267.3392319266793 488.93856767588835,248.7125550102876 494.9363669571469,230.04711794693299 500.93416623840545,211.53320307626447 506.93196551966406,193.35954806489573 512.9297648009226,175.71142184512158 518.9275640821811,158.76873591519032 524.9253633634397,142.70421025523115 530.9231626446983,127.68161255616721 536.9209619259569,113.85408871156025 542.9187612072154,101.36260159197039 548.916560488474,90.33449401753883 554.9143597697326,80.88219057838052 560.9121590509911,73.10205153690859 566.9099583322497,67.07339049583072 572.9077576135082,62.85766584607321 578.9055568947668,60.49785423730939 584.9033561760255,60.01801245816544 590.9011554572841,61.423032192457114 596.8989547385426,64.69859015156348 602.8967540198012,69.81129409130611 608.8945533010597,76.70902322478425 614.8923525823183,85.32145956087196 620.8901518635769,95.56080475171626 626.8879511448355,107.32267514143106 632.885750426094,120.487165891527 638.8835497073525,134.92007333499566 644.8813489886112,150.474263097916 650.8791482698697,166.99117004144867 656.8769475511283,184.3024147332606 662.8747468323868,202.23151996946797 668.8725461136454,220.59570984824862 674.870345394904,239.20777305469835 680.8681446761625,257.8779713619213 686.865943957421,276.415973892395 692.8637432386797,294.632797421031 698.8615425199382,312.34273293977054 704.8593418011968,329.3652388436088 710.8571410824554,345.52678143820515" fill="none" stroke="#1F77B4" stroke-width="1.5" />
</g>
<g class="series" aria-label="cos(x)">
<polyline points="117.0750122378571,59.96111111111122 123.07281151911566,60.90383190447296 129.07061080037423,63.72238384159946 135.0684100816328,68.38803356600948 141.06620936289136,74.85321772611734 147.06400864414994,83.05202785355588 153.06180792540852,92.9008822583762 159.05960720666707,104.29937809157705 165.05740648792565,117.13131488872446 171.0552057691842,131.2658791602813 177.05300505044278,146.55897795249638 183.05080433170136,162.85470778404243 189.0486036129599,179.98694398352208 195.0464028942185,197.78103422554918 201.04420217547704,216.0555790008762 207.04200145673562,234.62428086979824 213.0398007379942,253.29784364686427 219.03760001925275,271.8859021559068 225.03539930051133,290.19896288275663 231.03319858176988,308.0503357419141 237.03099786302846,325.2580372640364 243.02879714428704,341.6466458024453 249.02659642554562,357.0490898459998 255.02439570680417,371.3083512076101 261.0221949880627,384.2790657254648 267.0199942693213,395.82900515883193 273.0177935505799,405.84042517144286 279.01559283183843,414.21126566061974 285.013392113097,420.85619119554974 291.0111913943556,425.7074609580945 297.00899067561414,428.7156193176382 303.00678995687275,429.84999999999997 309.0045892381313,429.09903871072703 315.00238851938985,426.470391025771 321.0001878006484,421.9908543477273 326.997987081907,415.70609472324406 332.99578636316556,407.68018130652445 338.9935856444241,397.9949332147727 344.99138492568267,386.7490854339808 350.9891842069413,374.05728227811807 356.9869834881998,360.0489086627733 362.9847827694584,344.86677110767397 368.982582050717,328.6656419144304 374.98038133197554,311.61068136069326 380.97818061323414,293.87575399545625 386.9759798944927,275.6416561998122 392.97377917575125,257.09427308205903 398.9715784570098,238.42268349644678 404.9693777382684,219.81723250370266 410.96717701952696,201.46759092338013 416.9649763007855,183.5608217596715 422.96277558204406,166.2794732122498 428.96057486330267,149.79971771269217 434.9583741445612,134.28955595782995 440.95617342581977,119.90710424877298 446.9539727070783,106.79898259510371 452.95177198833693,95.09882001650182 458.9495712695955,84.92589227930371 464.9473705508541,76.38390595541264 470.94516983211264,69.55994119931134 476.9429691133712,64.52356402089633 482.9407683946298,61.326117103953365 488.93856767588835,60.00019639992982 494.9363669571469,60.559318832800955 500.93416623840545,62.99778450256894 506.93196551966406,67.29073479214256 512.9297648009226,73.39440578523495 518.9275640821811,81.24657441184384 524.9253633634397,90.76719277314324 530.9231626446983,101.85920417924432 536.9209619259569,114.40953258083701 542.9187612072154,128.29023530808098 548.916560488474,143.35980736530135 554.9143597697326,159.46462398502956 560.9121590509911,176.44050673546002 566.9099583322497,194.1143972158491 572.9077576135082,212.30612127758712 578.9055568947668,230.8302257858256 584.9033561760255,249.49786919703274 590.9011554572841,268.11874667923666 596.8989547385426,286.50303014956893 602.8967540198012,304.4633034516524 608.8945533010597,321.81647294492245 614.8923525823183,338.38563402862974 620.8901518635769,354.00187457249064 626.8879511448355,368.5059968691536 632.885750426094,381.75014055425567 638.8835497073525,393.59928994943414 644.8813489886112,403.9326504618748 650.8791482698697,412.644880008878 656.8769475511283,419.64716291384667 662.8747468323868,424.8681153260023 668.8725461136454,428.25451293364995 674.870345394904,429.77183355241334 680.8681446761625,429.40460905709625 686.865943957421,427.15658306944783 692.8637432386797,423.0506727943033 698.8615425199382,417.1287353931583 704.8593418011968,409.4511412768485 710.8571410824554,400.0961586673489" fill="none" stroke="#FF7F0E" stroke-width="1.5" />
</g>
<g class="series" aria-label="½ sin(2x)">
<polyline points="117.0750122378571,244.91044134572542 123.07281151911566,226.35550553261947 129.07061080037423,208.55526479195598 135.0684100816328,192.2337180699225 141.06620936289136,178.05472058056176 147.06400864414994,166.59498245885766 153.06180792540852,158.3206119133776 159.05960720666707,153.56815695167796 165.05740648792565,152.53091677876412 171.0552057691842,155.25107963259723 177.05300505044278,161.61800683877246 183.05080433170136,171.3727328779531 189.0486036129599,184.11849843235186 195.0464028942185,199.33688799488746 201.04420217547704,216.4089156671963 207.04200145673562,234.64020151228115 213.0398007379942,253.28921445020927 219.03760001925275,271.5974329580861 225.03539930051133,288.8201968316258 231.03319858176988,304.2569951577152 237.03099786302846,317.27995857866244 243.02879714428704,327.3593969666555 249.02659642554562,334.08534380060127 255.02439570680417,337.18423095909975 261.0221949880627,336.5300157065614 267.0199942693213,332.149307298463 273.0177935505799,324.2202846885179 279.01559283183843,313.0654493584497 285.013392113097,299.1385080384946 291.0111913943556,283.0059188449314 297.00899067561414,265.3238514186985 303.00678995687275,246.8114981780065 309.0045892381313,228.22182221099493 315.00238851938985,210.3109315954235 321.0001878006484,193.80732580047828 326.997987081907,179.38226502864285 332.99578636316556,167.62246768163212 338.9935856444241,159.006246441317 344.99138492568267,153.8840535958993 350.9891842069413,152.46422690194544 356.9869834881998,154.80451574864443 362.9847827694584,160.80973228525482 368.982582050717,170.23562304872084 374.98038133197554,182.69880361862621 380.97818061323414,197.69235222182073 386.9759798944927,214.606428039493 392.97377917575125,232.75307559698703 398.9715784570098,251.39420635382336 404.9693777382684,269.7716193833782 410.96717701952696,287.1378400946671 416.9649763007855,302.7865226760003 422.96277558204406,316.08117968526005 428.96057486330267,326.48107025242854 434.9583741445612,333.563193929321 440.95617342581977,337.03949561861924 446.9539727070783,336.7685817966991 452.95177198833693,332.76147148990026 458.9495712695955,325.1811480916302 464.9473705508541,314.3359302494884 470.94516983211264,300.6669314519543 476.9429691133712,284.7301183777395 482.9407683946298,267.17369775839455 488.93856767588835,248.7117515106993 494.9363669571469,230.09519249154394 500.93416623840545,212.0812222077998 506.93196551966406,195.40253274448432 512.9297648009226,180.7375055780708 518.9275640821811,168.6826193949425 524.9253633634397,159.7281891869105 530.9231626446983,154.23842340085935 536.9209619259569,152.43661028900001 542.9187612072154,154.39603598342583 548.916560488474,160.0370036891009 554.9143597697326,169.13007523527872 560.9121590509911,181.30540313995286 566.9099583322497,196.06777361916954 572.9077576135082,212.81674868863954 578.9055568947668,230.8710881069142 584.9033561760255,249.49645783304499 590.9011554572841,267.93529799744726 596.8989547385426,285.4376355496188 602.8967540198012,301.29158832300845 608.8945533010597,314.8523198084887 614.8923525823183,325.5682669430618 620.8901518635769,333.0035741365774 626.8879511448355,336.85582106500107 632.885750426094,336.9683231779793 638.8835497073525,333.3365046154198 644.8813489886112,326.1080843239562 650.8791482698697,315.577067803282 656.8769475511283,302.1717888593456 662.8747468323868,286.43748774873524 668.8725461136454,269.01413432292884 674.870345394904,250.61039818382213 680.8681446761625,231.97482457666007 686.865943957421,213.86538839907197 692.8637432386797,197.01866467269045 698.8615425199382,182.11986942365394 704.8593418011968,169.77498951567472 710.8571410824554,160.48613501425208" fill="none" stroke="#2CA02C" stroke-width="1.5" />
</g>
<g class="series" aria-label="exp(-x/5)·cos(x)">
<polyline points="117.0750122378571,59.96111111111122 123.07281151911566,64.583840188138 129.07061080037423,70.89719178452548 135.0684100816328,78.76862084721219 141.06620936289136,88.05464178938733 147.06400864414994,98.60275260256014 153.06180792540852,110.25337646110727 159.05960720666707,122.84179995245326 165.05740648792565,136.20008792739938 171.0552057691842,150.15895600023507 177.05300505044278,164.5495829195054 183.05080433170136,179.20534635910983 189.0486036129599,193.9634671265166 195.0464028942185,208.6665483305729 201.04420217547704,223.1639976757094 207.04200145673562,237.31332273228756 213.0398007379942,250.98129075461065 219.03760001925275,264.0449463592891 225.03539930051133,276.3924821183545 231.03319858176988,287.92395884564166 237.03099786302846,298.55187404427795 243.02879714428704,308.2015786214698 249.02659642554562,316.8115435491415 255.02439570680417,324.33347964164534 261.0221949880627,330.7323150223692 267.0199942693213,335.98603614870353 273.0177935505799,340.08539945010244 279.01559283183843,343.0335216990013 285.013392113097,344.84535817284666 291.0111913943556,345.5470784726972 297.00899067561414,345.1753505365942 303.00678995687275,343.7765439224984 309.0045892381313,341.4058638358688 315.00238851938985,338.1264276421568 321.0001878006484,334.00829573719864 326.997987081907,329.1274686525754 332.99578636316556,323.5648621535293 338.9935856444241,317.405271850107 344.99138492568267,310.7363384949596 350.9891842069413,303.6475246916411 356.9869834881998,296.22911319403715 362.9847827694584,288.571236350075 368.982582050717,280.76294554096813 374.98038133197554,272.8913287011813 380.97818061323414,265.0406831845568 386.9759798944927,257.2917503792693 392.97377917575125,249.72101757913993 398.9715784570098,242.40009170192607 404.9693777382684,235.39514851689702 410.96717701952696,228.76646011440587 416.9649763007855,222.56800242898777 422.96277558204406,216.84714372398565 428.96057486330267,211.64441406852313 434.9583741445612,206.9933549948736 440.95617342581977,202.92044772331835 446.9539727070783,199.44511758909997 452.95177198833693,196.57981160797263 458.9495712695955,194.33014547821378 464.9473705508541,192.69511574208673 470.94516983211264,191.66737232207143 476.9429691133712,191.2335462093241 482.9407683946298,191.37462671557685 488.93856767588835,192.06638240600918 494.9363669571469,193.27981960969572 500.93416623840545,194.98167225547357 506.93196551966406,197.134916703163 512.9297648009226,199.6993052310249 518.9275640821811,202.6319118975127 524.9253633634397,205.88768461555688 530.9231626446983,209.41999745706858 536.9209619259569,213.18119743984724 542.9187612072154,217.1231403340139 548.916560488474,221.19771035550653 554.9143597697326,225.35731898483408 560.9121590509911,229.55537855474387 566.9099583322497,233.7467466851265 572.9077576135082,237.88813810168608 578.9055568947668,241.93850085094877 584.9033561760255,245.85935441242117 590.9011554572841,249.61508770358 596.8989547385426,253.17321546947423 602.8967540198012,256.50459204084865 608.8945533010597,259.5835819278933 614.8923525823183,262.3881871863234 620.8901518635769,264.9001319441563 626.8879511448355,267.1049049072933 632.885750426094,268.99176106623685 638.8835497073525,270.553684201792 644.8813489886112,271.7873121316426 650.8791482698697,272.6928269499368 656.8769475511283,273.27381278657526 662.8747468323868,273.5370838503239 668.8725461136454,273.4924857191841 674.870345394904,273.1526730020796 680.8681446761625,272.53286661772034 686.865943957421,271.6505940197623 692.8637432386797,270.52541574274653 698.8615425199382,269.17864165181135 704.8593418011968,267.6330402521896 710.8571410824554,265.91254435372423" fill="none" stroke="#D62728" stroke-width="1.5" />
</g>
<g class="spine">
<line x1="87.38590579562718" y1="448.34444444444443" x2="740.5462475246853" y2="448.34444444444443" stroke="#262626" stroke-width="0.8" />
</g>
<g class="spine">
<line x1="87.38590579562718" y1="41.46666666666667" x2="740.5462475246853" y2="41.46666666666667" stroke="#262626" stroke-width="0.8" />
</g>
<g class="spine">
<line x1="87.38590579562718" y1="41.46666666666667" x2="87.38590579562718" y2="448.34444444444443" stroke="#262626" stroke-width="0.8" />
</g>
<g class="spine">
<line x1="740.5462475246853" y1="41.46666666666667" x2="740.5462475246853" y2="448.34444444444443" stroke="#262626" stroke-width="0.8" />
</g>
<rect x="748.5462475246853" y="197.6" width="164.89458804660373" height="94.6111111111111" fill="#FFFFFF" fill-opacity="0.8" stroke="#CCCCCC" stroke-width="0.5" />
<g class="legend" aria-label="Chart legend">
<path d="M8.92025 -10.5124L8.92025 -8.21506Q8.02604 -8.61491 7.17546 -8.81847Q6.32487 -9.02203 5.56879 -9.02203Q4.56554 -9.02203 4.08572 -8.74577Q3.6059 -8.46951 3.6059 -7.88791Q3.6059 -7.45171 3.92942 -7.20817Q4.25293 -6.96463 5.10352 -6.79015L6.29579 -6.55024Q8.10601 -6.18674 8.86936 -5.4452Q9.6327 -4.70367 9.6327 -3.33691Q9.6327 -1.54123 8.56765 -0.665202Q7.5026 0.210829 5.31434 0.210829Q4.28201 0.210829 3.2424 0.0145399Q2.2028 -0.181749 1.16319 -0.567057L1.16319 -2.9298Q2.2028 -2.37728 3.17334 -2.09738Q4.14388 -1.81749 5.04536 -1.81749Q5.96137 -1.81749 6.44846 -2.12283Q6.93555 -2.42817 6.93555 -2.99523Q6.93555 -3.50412 6.60476 -3.78038Q6.27398 -4.05664 5.28526 -4.27474L4.20204 -4.51465Q2.57357 -4.86361 1.82113 -5.62695Q1.06868 -6.3903 1.06868 -7.68435Q1.06868 -9.30556 2.11556 -10.178Q3.16243 -11.0503 5.12533 -11.0503Q6.01953 -11.0503 6.96463 -10.9159Q7.90972 -10.7814 8.92025 -10.5124ZM20.1015 -4.09299L20.1015 -3.35145L14.0165 -3.35145Q14.111 -2.43544 14.6781 -1.97743Q15.2451 -1.51942 16.2629 -1.51942Q17.0844 -1.51942 17.9459 -1.76297Q18.8074 -2.00651 19.7161 -2.50087L19.7161 -0.494358Q18.7929 -0.145399 17.8696 0.0327148Q16.9463 0.210829 16.023 0.210829Q13.8129 0.210829 12.5879 -0.912381Q11.363 -2.03559 11.363 -4.06391Q11.363 -6.05588 12.5661 -7.19727Q13.7693 -8.33865 15.8776 -8.33865Q17.7969 -8.33865 18.9492 -7.18273Q20.1015 -6.0268 20.1015 -4.09299ZM17.4261 -4.95812Q17.4261 -5.69965 16.9935 -6.15403Q16.561 -6.6084 15.8631 -6.6084Q15.107 -6.6084 14.6344 -6.18311Q14.1619 -5.75781 14.0456 -4.95812L17.4261 -4.95812ZM28.1202 -5.92502Q27.7785 -6.08496 27.4405 -6.1613Q27.1024 -6.23763 26.7607 -6.23763Q25.7575 -6.23763 25.2159 -5.59424Q24.6743 -4.95085 24.6743 -3.7513L24.6743 0L22.0716 0L22.0716 -8.14236L24.6743 -8.14236L24.6743 -6.80469Q25.1759 -7.60438 25.8266 -7.97152Q26.4772 -8.33865 27.386 -8.33865Q27.5168 -8.33865 27.6695 -8.32775Q27.8222 -8.31684 28.113 -8.28049L28.1202 -5.92502ZM29.4143 -8.14236L32.0169 -8.14236L32.0169 0L29.4143 0L29.4143 -8.14236ZM29.4143 -11.3121L32.0169 -11.3121L32.0169 -9.18924L29.4143 -9.18924L29.4143 -11.3121ZM42.6456 -4.09299L42.6456 -3.35145L36.5607 -3.35145Q36.6552 -2.43544 37.2222 -1.97743Q37.7893 -1.51942 38.8071 -1.51942Q39.6286 -1.51942 40.4901 -1.76297Q41.3516 -2.00651 42.2603 -2.50087L42.2603 -0.494358Q41.337 -0.145399 40.4137 0.0327148Q39.4905 0.210829 38.5672 0.210829Q36.3571 0.210829 35.1321 -0.912381Q33.9071 -2.03559 33.9071 -4.06391Q33.9071 -6.05588 35.1103 -7.19727Q36.3135 -8.33865 38.4218 -8.33865Q40.341 -8.33865 41.4933 -7.18273Q42.6456 -6.0268 42.6456 -4.09299ZM39.9703 -4.95812Q39.9703 -5.69965 39.5377 -6.15403Q39.1051 -6.6084 38.4072 -6.6084Q37.6512 -6.6084 37.1786 -6.18311Q36.7061 -5.75781 36.5897 -4.95812L39.9703 -4.95812ZM50.977 -7.88791L50.977 -5.91048Q50.141 -6.25944 49.3631 -6.43392Q48.5852 -6.6084 47.8945 -6.6084Q47.153 -6.6084 46.7931 -6.42301Q46.4333 -6.23763 46.4333 -5.85232Q46.4333 -5.53971 46.7059 -5.3725Q46.9785 -5.20529 47.6837 -5.12533L48.1417 -5.0599Q50.141 -4.80545 50.8316 -4.22385Q51.5222 -3.64225 51.5223 -2.39909Q51.5223 -1.09776 50.5626 -0.443468Q49.603 0.210829 47.6982 0.210829Q46.8913 0.210829 46.0298 0.0836046Q45.1683 -0.0436198 44.2596 -0.298069L44.2596 -2.2755Q45.0374 -1.89746 45.8553 -1.70844Q46.6732 -1.51942 47.5165 -1.51942Q48.2798 -1.51942 48.6652 -1.73025Q49.0505 -1.94108 49.0505 -2.35547Q49.0505 -2.70443 48.7851 -2.87527Q48.5198 -3.04612 47.7273 -3.14063L47.2693 -3.19878Q45.5318 -3.41688 44.8339 -4.00575Q44.136 -4.59462 44.136 -5.79416Q44.136 -7.08822 45.0229 -7.71343Q45.9098 -8.33865 47.7419 -8.33865Q48.4616 -8.33865 49.254 -8.2296Q50.0464 -8.12055 50.977 -7.88791Z" fill="#262626" transform="translate(830.9935415479872,220.48888888888888) translate(-26.113718032836914,0)" />
<line x1="756.5462475246853" y1="229.35" x2="784.3240253024632" y2="229.35" stroke="#1F77B4" stroke-width="1.5" />
<path d="M6.15099 -7.37169L6.15099 -6.19168Q5.62202 -6.46294 5.05235 -6.59858Q4.48269 -6.73421 3.87234 -6.73421Q2.94325 -6.73421 2.47871 -6.44938Q2.01416 -6.16455 2.01416 -5.59489Q2.01416 -5.16086 2.34646 -4.91333Q2.67877 -4.6658 3.68245 -4.442L4.1097 -4.34706Q5.43891 -4.06223 5.9984 -3.54343Q6.55789 -3.02463 6.55789 -2.09554Q6.55789 -1.0376 5.72035 -0.420464Q4.88281 0.196669 3.41797 0.196669Q2.80762 0.196669 2.1464 0.0779894Q1.48519 -0.0406901 0.752767 -0.278049L0.752767 -1.56657Q1.4445 -1.20714 2.11589 -1.02743Q2.78727 -0.84771 3.4451 -0.847711Q4.32671 -0.847711 4.80143 -1.1495Q5.27615 -1.45128 5.27615 -2.0006Q5.27615 -2.50922 4.93368 -2.78049Q4.5912 -3.05176 3.43153 -3.30268L2.9975 -3.40441Q1.83784 -3.64855 1.32243 -4.15378Q0.80702 -4.65902 0.80702 -5.54064Q0.80702 -6.61214 1.56657 -7.19537Q2.32612 -7.77859 3.72314 -7.77859Q4.41488 -7.77859 5.02523 -7.67687Q5.63558 -7.57514 6.15099 -7.37169ZM8.54492 -7.59549L9.79275 -7.59549L9.79275 0L8.54492 0L8.54492 -7.59549ZM8.54492 -10.5523L9.79275 -10.5523L9.79275 -8.97217L8.54492 -8.97217L8.54492 -10.5523ZM18.7174 -4.58442L18.7174 0L17.4696 0L17.4696 -4.54373Q17.4696 -5.62202 17.0492 -6.15777Q16.6287 -6.69352 15.7878 -6.69352Q14.7773 -6.69352 14.1941 -6.04926Q13.6108 -5.405 13.6108 -4.29281L13.6108 0L12.3562 0L12.3562 -7.59549L13.6108 -7.59549L13.6108 -6.41547Q14.0584 -7.10042 14.6654 -7.43951Q15.2724 -7.77859 16.0658 -7.77859Q17.3747 -7.77859 18.0461 -6.96818Q18.7174 -6.15777 18.7174 -4.58442ZM24.2038 -10.5387Q23.2951 -8.97895 22.8543 -7.45307Q22.4135 -5.92719 22.4135 -4.36062Q22.4135 -2.79405 22.8577 -1.258Q23.3019 0.278049 24.2038 1.83105L23.1188 1.83105Q22.1015 0.237359 21.5963 -1.30208Q21.091 -2.84153 21.091 -4.36062Q21.091 -5.87294 21.5929 -7.4056Q22.0947 -8.93826 23.1188 -10.5387L24.2038 -10.5387ZM32.9386 -7.59549L30.1921 -3.89947L33.0811 0L31.6094 0L29.3986 -2.98394L27.1878 0L25.7161 0L28.6662 -3.97407L25.9671 -7.59549L27.4387 -7.59549L29.4529 -4.88959L31.467 -7.59549L32.9386 -7.59549ZM34.6476 -10.5387L35.7327 -10.5387Q36.7499 -8.93826 37.2552 -7.4056Q37.7604 -5.87294 37.7604 -4.36062Q37.7604 -2.84153 37.2552 -1.30208Q36.7499 0.237359 35.7327 1.83105L34.6476 1.83105Q35.5496 0.278049 35.9938 -1.258Q36.438 -2.79405 36.438 -4.36062Q36.438 -5.92719 35.9938 -7.45307Q35.5496 -8.97895 34.6476 -10.5387Z" fill="#262626" transform="translate(795.4351364135742,233.2111111111111)" />
<line x1="756.5462475246853" y1="246.01666666666665" x2="784.3240253024632" y2="246.01666666666665" stroke="#FF7F0E" stroke-width="1.5" />
<path d="M6.7749 -7.30387L6.7749 -6.13742Q6.24593 -6.42904 5.71357 -6.57484Q5.18121 -6.72065 4.63867 -6.72065Q3.42475 -6.72065 2.75336 -5.95093Q2.08198 -5.18121 2.08198 -3.79096Q2.08198 -2.40072 2.75336 -1.631Q3.42475 -0.861274 4.63867 -0.861274Q5.18121 -0.861274 5.71357 -1.00708Q6.24593 -1.15289 6.7749 -1.4445L6.7749 -0.291612Q6.25271 -0.0474718 5.69322 0.0745985Q5.13374 0.196669 4.50304 0.196669Q2.78727 0.196669 1.7768 -0.881619Q0.76633 -1.95991 0.76633 -3.79096Q0.76633 -5.64914 1.78697 -6.71387Q2.80762 -7.77859 4.58442 -7.77859Q5.16086 -7.77859 5.71018 -7.65991Q6.25949 -7.54123 6.7749 -7.30387ZM11.8883 -6.72065Q10.8846 -6.72065 10.3014 -5.93736Q9.71815 -5.15408 9.71815 -3.79096Q9.71815 -2.42784 10.298 -1.64456Q10.8778 -0.861274 11.8883 -0.861274Q12.8852 -0.861274 13.4684 -1.64795Q14.0517 -2.43462 14.0517 -3.79096Q14.0517 -5.14052 13.4684 -5.93058Q12.8852 -6.72065 11.8883 -6.72065ZM11.8883 -7.77859Q13.5159 -7.77859 14.445 -6.72065Q15.3741 -5.66271 15.3741 -3.79096Q15.3741 -1.926 14.445 -0.864665Q13.5159 0.196669 11.8883 0.196669Q10.2539 0.196669 9.32821 -0.864665Q8.40251 -1.926 8.40251 -3.79096Q8.40251 -5.66271 9.32821 -6.72065Q10.2539 -7.77859 11.8883 -7.77859ZM22.2846 -7.37169L22.2846 -6.19168Q21.7556 -6.46294 21.186 -6.59858Q20.6163 -6.73421 20.006 -6.73421Q19.0769 -6.73421 18.6123 -6.44938Q18.1478 -6.16455 18.1478 -5.59489Q18.1478 -5.16086 18.4801 -4.91333Q18.8124 -4.6658 19.8161 -4.442L20.2433 -4.34706Q21.5725 -4.06223 22.132 -3.54343Q22.6915 -3.02463 22.6915 -2.09554Q22.6915 -1.0376 21.854 -0.420464Q21.0164 0.196669 19.5516 0.196669Q18.9412 0.196669 18.28 0.0779894Q17.6188 -0.0406901 16.8864 -0.278049L16.8864 -1.56657Q17.5781 -1.20714 18.2495 -1.02743Q18.9209 -0.84771 19.5787 -0.847711Q20.4603 -0.847711 20.9351 -1.1495Q21.4098 -1.45128 21.4098 -2.0006Q21.4098 -2.50922 21.0673 -2.78049Q20.7248 -3.05176 19.5652 -3.30268L19.1311 -3.40441Q17.9715 -3.64855 17.4561 -4.15378Q16.9406 -4.65902 16.9406 -5.54064Q16.9406 -6.61214 17.7002 -7.19537Q18.4597 -7.77859 19.8568 -7.77859Q20.5485 -7.77859 21.1589 -7.67687Q21.7692 -7.57514 22.2846 -7.37169ZM27.6761 -10.5387Q26.7673 -8.97895 26.3265 -7.45307Q25.8857 -5.92719 25.8857 -4.36062Q25.8857 -2.79405 26.3299 -1.258Q26.7741 0.278049 27.6761 1.83105L26.591 1.83105Q25.5737 0.237359 25.0685 -1.30208Q24.5633 -2.84153 24.5633 -4.36062Q24.5633 -5.87294 25.0651 -7.4056Q25.5669 -8.93826 26.591 -10.5387L27.6761 -10.5387ZM36.4109 -7.59549L33.6643 -3.89947L36.5533 0L35.0817 0L32.8708 -2.98394L30.66 0L29.1884 0L32.1384 -3.97407L29.4393 -7.59549L30.9109 -7.59549L32.9251 -4.88959L34.9392 -7.59549L36.4109 -7.59549ZM38.1199 -10.5387L39.2049 -10.5387Q40.2222 -8.93826 40.7274 -7.4056Q41.2326 -5.87294 41.2326 -4.36062Q41.2326 -2.84153 40.7274 -1.30208Q40.2222 0.237359 39.2049 1.83105L38.1199 1.83105Q39.0218 0.278049 39.466 -1.258Q39.9102 -2.79405 39.9102 -4.36062Q39.9102 -5.92719 39.466 -7.45307Q39.0218 -8.97895 38.1199 -10.5387Z" fill="#262626" transform="translate(795.4351364135742,249.87777777777777)" />
<line x1="756.5462475246853" y1="262.6833333333333" x2="784.3240253024632" y2="262.6833333333333" stroke="#2CA02C" stroke-width="1.5" />
<path d="M1.05794 -5.27615L2.44141 -5.27615L2.44141 -9.41976L0.929091 -9.14171L0.929091 -9.92839L2.48888 -10.1929L3.41797 -10.1929L3.41797 -5.27615L4.80821 -5.27615L4.80821 -4.53017L1.05794 -4.53017L1.05794 -5.27615ZM9.70459 -0.773112L12.58 -0.773112L12.58 0L8.52458 0L8.52458 -0.745985Q8.75515 -0.956217 9.1824 -1.33599Q11.5153 -3.40441 11.5153 -4.04188Q11.5153 -4.48947 11.1627 -4.76413Q10.81 -5.03879 10.2336 -5.03879Q9.88091 -5.03879 9.46723 -4.92011Q9.05355 -4.80143 8.56527 -4.56407L8.56527 -5.39822Q9.08746 -5.58811 9.53844 -5.68305Q9.98942 -5.77799 10.376 -5.778Q11.3593 -5.77799 11.9493 -5.3304Q12.5393 -4.88281 12.5393 -4.15039Q12.5393 -3.20774 10.2946 -1.28174Q9.91482 -0.956217 9.70459 -0.773112ZM9.34516 -10.3082L10.4302 -10.3082L4.1097 0.196669L3.02463 0.196669L9.34516 -10.3082ZM24.0275 -7.37169L24.0275 -6.19168Q23.4985 -6.46294 22.9289 -6.59858Q22.3592 -6.73421 21.7489 -6.73421Q20.8198 -6.73421 20.3552 -6.44938Q19.8907 -6.16455 19.8907 -5.59489Q19.8907 -5.16086 20.223 -4.91333Q20.5553 -4.6658 21.559 -4.442L21.9862 -4.34706Q23.3154 -4.06223 23.8749 -3.54343Q24.4344 -3.02463 24.4344 -2.09554Q24.4344 -1.0376 23.5969 -0.420464Q22.7593 0.196669 21.2945 0.196669Q20.6841 0.196669 20.0229 0.0779894Q19.3617 -0.0406901 18.6293 -0.278049L18.6293 -1.56657Q19.321 -1.20714 19.9924 -1.02743Q20.6638 -0.84771 21.3216 -0.847711Q22.2032 -0.847711 22.678 -1.1495Q23.1527 -1.45128 23.1527 -2.0006Q23.1527 -2.50922 22.8102 -2.78049Q22.4677 -3.05176 21.3081 -3.30268L20.874 -3.40441Q19.7144 -3.64855 19.1989 -4.15378Q18.6835 -4.65902 18.6835 -5.54064Q18.6835 -6.61214 19.4431 -7.19537Q20.2026 -7.77859 21.5997 -7.77859Q22.2914 -7.77859 22.9017 -7.67687Q23.5121 -7.57514 24.0275 -7.37169ZM26.4214 -7.59549L27.6693 -7.59549L27.6693 0L26.4214 0L26.4214 -7.59549ZM26.4214 -10.5523L27.6693 -10.5523L27.6693 -8.97217L26.4214 -8.97217L26.4214 -10.5523ZM36.594 -4.58442L36.594 0L35.3461 0L35.3461 -4.54373Q35.3461 -5.62202 34.9257 -6.15777Q34.5052 -6.69352 33.6643 -6.69352Q32.6538 -6.69352 32.0706 -6.04926Q31.4874 -5.405 31.4874 -4.29281L31.4874 0L30.2327 0L30.2327 -7.59549L31.4874 -7.59549L31.4874 -6.41547Q31.935 -7.10042 32.5419 -7.43951Q33.1489 -7.77859 33.9423 -7.77859Q35.2512 -7.77859 35.9226 -6.96818Q36.594 -6.15777 36.594 -4.58442ZM42.0804 -10.5387Q41.1716 -8.97895 40.7308 -7.45307Q40.29 -5.92719 40.29 -4.36062Q40.29 -2.79405 40.7342 -1.258Q41.1784 0.278049 42.0804 1.83105L40.9953 1.83105Q39.978 0.237359 39.4728 -1.30208Q38.9676 -2.84153 38.9676 -4.36062Q38.9676 -5.87294 39.4694 -7.4056Q39.9712 -8.93826 40.9953 -10.5387L42.0804 -10.5387ZM45.8578 -1.15289L50.6388 -1.15289L50.6388 0L44.2098 0L44.2098 -1.15289Q44.9897 -1.95991 46.3359 -3.31963Q47.682 -4.67936 48.0279 -5.0727Q48.6857 -5.8119 48.9468 -6.32392Q49.2079 -6.83594 49.2079 -7.331Q49.2079 -8.13802 48.6416 -8.64665Q48.0754 -9.15527 47.1666 -9.15527Q46.5224 -9.15527 45.8069 -8.93148Q45.0914 -8.70768 44.2776 -8.25331L44.2776 -9.63677Q45.105 -9.96908 45.8238 -10.1386Q46.5427 -10.3082 47.1395 -10.3082Q48.7128 -10.3082 49.6487 -9.52148Q50.5846 -8.73481 50.5846 -7.41916Q50.5846 -6.79525 50.3506 -6.23576Q50.1166 -5.67627 49.4995 -4.91672Q49.33 -4.72005 48.4212 -3.78079Q47.5125 -2.84153 45.8578 -1.15289ZM59.6517 -7.59549L56.9051 -3.89947L59.7941 0L58.3225 0L56.1117 -2.98394L53.9008 0L52.4292 0L55.3792 -3.97407L52.6801 -7.59549L54.1517 -7.59549L56.1659 -4.88959L58.1801 -7.59549L59.6517 -7.59549ZM61.3607 -10.5387L62.4458 -10.5387Q63.463 -8.93826 63.9682 -7.4056Q64.4735 -5.87294 64.4735 -4.36062Q64.4735 -2.84153 63.9682 -1.30208Q63.463 0.237359 62.4458 1.83105L61.3607 1.83105Q62.2626 0.278049 62.7068 -1.258Q63.151 -2.79405 63.151 -4.36062Q63.151 -5.92719 62.7068 -7.45307Q62.2626 -8.97895 61.3607 -10.5387Z" fill="#262626" transform="translate(795.4351364135742,266.5444444444444)" />
<line x1="756.5462475246853" y1="279.34999999999997" x2="784.3240253024632" y2="279.34999999999997" stroke="#D62728" stroke-width="1.5" />
<path d="M7.80572 -4.1097L7.80572 -3.49935L2.06841 -3.49935Q2.14979 -2.21083 2.84492 -1.53605Q3.54004 -0.861274 4.78109 -0.861274Q5.49995 -0.861274 6.17472 -1.0376Q6.8495 -1.21392 7.51411 -1.56657L7.51411 -0.386556Q6.84272 -0.101725 6.13742 0.0474718Q5.43213 0.196669 4.70649 0.196669Q2.889 0.196669 1.82766 -0.861274Q0.76633 -1.91922 0.76633 -3.72314Q0.76633 -5.58811 1.77341 -6.68335Q2.78049 -7.77859 4.48947 -7.77859Q6.02214 -7.77859 6.91393 -6.79186Q7.80572 -5.80512 7.80572 -4.1097ZM6.55789 -4.47591Q6.54432 -5.49995 5.98484 -6.1103Q5.42535 -6.72065 4.50304 -6.72065Q3.45866 -6.72065 2.83135 -6.13064Q2.20405 -5.54064 2.1091 -4.46913L6.55789 -4.47591ZM16.1675 -7.59549L13.421 -3.89947L16.3099 0L14.8383 0L12.6275 -2.98394L10.4167 0L8.94504 0L11.8951 -3.97407L9.19596 -7.59549L10.6676 -7.59549L12.6817 -4.88959L14.6959 -7.59549L16.1675 -7.59549ZM19.2803 -1.13932L19.2803 2.889L18.0257 2.889L18.0257 -7.59549L19.2803 -7.59549L19.2803 -6.4426Q19.6737 -7.12077 20.2738 -7.44968Q20.874 -7.77859 21.7082 -7.77859Q23.0916 -7.77859 23.9563 -6.67996Q24.821 -5.58133 24.821 -3.79096Q24.821 -2.0006 23.9563 -0.901964Q23.0916 0.196669 21.7082 0.196669Q20.874 0.196669 20.2738 -0.132243Q19.6737 -0.461155 19.2803 -1.13932ZM23.5257 -3.79096Q23.5257 -5.16764 22.9594 -5.95093Q22.3931 -6.73421 21.403 -6.73421Q20.4129 -6.73421 19.8466 -5.95093Q19.2803 -5.16764 19.2803 -3.79096Q19.2803 -2.41428 19.8466 -1.631Q20.4129 -0.847711 21.403 -0.847711Q22.3931 -0.847711 22.9594 -1.631Q23.5257 -2.41428 23.5257 -3.79096ZM29.8869 -10.5387Q28.9781 -8.97895 28.5373 -7.45307Q28.0965 -5.92719 28.0965 -4.36062Q28.0965 -2.79405 28.5407 -1.258Q28.9849 0.278049 29.8869 1.83105L28.8018 1.83105Q27.7846 0.237359 27.2793 -1.30208Q26.7741 -2.84153 26.7741 -4.36062Q26.7741 -5.87294 27.2759 -7.4056Q27.7778 -8.93826 28.8018 -10.5387L29.8869 -10.5387ZM31.6772 -4.36062L35.3326 -4.36062L35.3326 -3.24843L31.6772 -3.24843L31.6772 -4.36062ZM43.6334 -7.59549L40.8868 -3.89947L43.7758 0L42.3041 0L40.0933 -2.98394L37.8825 0L36.4109 0L39.3609 -3.97407L36.6618 -7.59549L38.1334 -7.59549L40.1476 -4.88959L42.1617 -7.59549L43.6334 -7.59549ZM47.7566 -10.1251L48.9095 -10.1251L45.383 1.28852L44.2301 1.28852L47.7566 -10.1251ZM50.4083 -10.1251L55.7861 -10.1251L55.7861 -8.97217L51.6629 -8.97217L51.6629 -6.49007Q51.9613 -6.5918 52.2597 -6.64266Q52.5581 -6.69352 52.8564 -6.69352Q54.5519 -6.69352 55.542 -5.76443Q56.5321 -4.83534 56.5321 -3.24843Q56.5321 -1.61404 55.5149 -0.708686Q54.4976 0.196669 52.6462 0.196669Q52.0087 0.196669 51.3475 0.0881619C50.9067 0.0158239 50.4512 -0.092683 49.981 -0.237359L49.981 -1.61404Q50.5914 -1.28174 51.2424 -1.11898Q51.8934 -0.956217 52.6191 -0.956217Q53.7923 -0.956217 54.4773 -1.57335Q55.1622 -2.19048 55.1622 -3.24843Q55.1622 -4.30637 54.4773 -4.9235Q53.7923 -5.54064 52.6191 -5.54064Q52.0698 -5.54064 51.5238 -5.41857Q50.9779 -5.2965 50.4083 -5.03879L50.4083 -10.1251ZM58.8582 -10.5387L59.9433 -10.5387Q60.9606 -8.93826 61.4658 -7.4056Q61.971 -5.87294 61.971 -4.36062Q61.971 -2.84153 61.4658 -1.30208Q60.9606 0.237359 59.9433 1.83105L58.8582 1.83105Q59.7602 0.278049 60.2044 -1.258Q60.6486 -2.79405 60.6486 -4.36062Q60.6486 -5.92719 60.2044 -7.45307Q59.7602 -8.97895 58.8582 -10.5387ZM64.6498 -5.68305L66.0807 -5.68305L66.0807 -3.9605L64.6498 -3.9605L64.6498 -5.68305ZM74.3544 -7.30387L74.3544 -6.13742Q73.8254 -6.42904 73.2931 -6.57484Q72.7607 -6.72065 72.2182 -6.72065Q71.0042 -6.72065 70.3328 -5.95093Q69.6615 -5.18121 69.6615 -3.79096Q69.6615 -2.40072 70.3328 -1.631Q71.0042 -0.861274 72.2182 -0.861274Q72.7607 -0.861274 73.2931 -1.00708Q73.8254 -1.15289 74.3544 -1.4445L74.3544 -0.291612Q73.8322 -0.0474718 73.2727 0.0745985Q72.7132 0.196669 72.0825 0.196669Q70.3668 0.196669 69.3563 -0.881619Q68.3458 -1.95991 68.3458 -3.79096Q68.3458 -5.64914 69.3665 -6.71387Q70.3871 -7.77859 72.1639 -7.77859Q72.7403 -7.77859 73.2897 -7.65991Q73.839 -7.54123 74.3544 -7.30387ZM79.4678 -6.72065Q78.4641 -6.72065 77.8809 -5.93736Q77.2976 -5.15408 77.2976 -3.79096Q77.2976 -2.42784 77.8775 -1.64456Q78.4573 -0.861274 79.4678 -0.861274Q80.4647 -0.861274 81.0479 -1.64795Q81.6311 -2.43462 81.6311 -3.79096Q81.6311 -5.14052 81.0479 -5.93058Q80.4647 -6.72065 79.4678 -6.72065ZM79.4678 -7.77859Q81.0954 -7.77859 82.0245 -6.72065Q82.9536 -5.66271 82.9536 -3.79096Q82.9536 -1.926 82.0245 -0.864665Q81.0954 0.196669 79.4678 0.196669Q77.8334 0.196669 76.9077 -0.864665Q75.982 -1.926 75.982 -3.79096Q75.982 -5.66271 76.9077 -6.72065Q77.8334 -7.77859 79.4678 -7.77859ZM89.8641 -7.37169L89.8641 -6.19168Q89.3351 -6.46294 88.7655 -6.59858Q88.1958 -6.73421 87.5855 -6.73421Q86.6564 -6.73421 86.1918 -6.44938Q85.7273 -6.16455 85.7273 -5.59489Q85.7273 -5.16086 86.0596 -4.91333Q86.3919 -4.6658 87.3956 -4.442L87.8228 -4.34706Q89.152 -4.06223 89.7115 -3.54343Q90.271 -3.02463 90.271 -2.09554Q90.271 -1.0376 89.4335 -0.420464Q88.5959 0.196669 87.1311 0.196669Q86.5207 0.196669 85.8595 0.0779894Q85.1983 -0.0406901 84.4659 -0.278049L84.4659 -1.56657Q85.1576 -1.20714 85.829 -1.02743Q86.5004 -0.84771 87.1582 -0.847711Q88.0398 -0.847711 88.5145 -1.1495Q88.9893 -1.45128 88.9893 -2.0006Q88.9893 -2.50922 88.6468 -2.78049Q88.3043 -3.05176 87.1446 -3.30268L86.7106 -3.40441Q85.5509 -3.64855 85.0355 -4.15378Q84.5201 -4.65902 84.5201 -5.54064Q84.5201 -6.61214 85.2797 -7.19537Q86.0392 -7.77859 87.4363 -7.77859Q88.128 -7.77859 88.7383 -7.67687Q89.3487 -7.57514 89.8641 -7.37169ZM95.2555 -10.5387Q94.3468 -8.97895 93.906 -7.45307Q93.4652 -5.92719 93.4652 -4.36062Q93.4652 -2.79405 93.9094 -1.258Q94.3536 0.278049 95.2555 1.83105L94.1705 1.83105Q93.1532 0.237359 92.648 -1.30208Q92.1427 -2.84153 92.1427 -4.36062Q92.1427 -5.87294 92.6446 -7.4056Q93.1464 -8.93826 94.1705 -10.5387L95.2555 -10.5387ZM103.99 -7.59549L101.244 -3.89947L104.133 0L102.661 0L100.45 -2.98394L98.2395 0L96.7679 0L99.7179 -3.97407L97.0188 -7.59549L98.4904 -7.59549L100.505 -4.88959L102.519 -7.59549L103.99 -7.59549ZM105.699 -10.5387L106.784 -10.5387Q107.802 -8.93826 108.307 -7.4056Q108.812 -5.87294 108.812 -4.36062Q108.812 -2.84153 108.307 -1.30208Q107.802 0.237359 106.784 1.83105L105.699 1.83105Q106.601 0.278049 107.045 -1.258Q107.49 -2.79405 107.49 -4.36062Q107.49 -5.92719 107.045 -7.45307Q106.601 -8.97895 105.699 -10.5387Z" fill="#262626" transform="translate(795.4351364135742,283.2111111111111)" />
</g>
<path d="M7.62261 -7.59549L4.87603 -3.89947L7.76503 0L6.2934 0L4.08257 -2.98394L1.87174 0L0.400119 0L3.35015 -3.97407L0.651042 -7.59549L2.12267 -7.59549L4.13683 -4.88959L6.15099 -7.59549L7.62261 -7.59549Z" fill="#262626" transform="translate(413.96607666015626,491.84444444444443) translate(-4.109700679779053,0)" />
<path d="M5.15408 -10.5523L5.15408 -9.5147L3.9605 -9.5147Q3.28912 -9.5147 3.02802 -9.24344Q2.76693 -8.97217 2.76693 -8.26687L2.76693 -7.59549L4.82178 -7.59549L4.82178 -6.62571L2.76693 -6.62571L2.76693 0L1.51232 0L1.51232 -6.62571L0.318739 -6.62571L0.318739 -7.59549L1.51232 -7.59549L1.51232 -8.12446Q1.51232 -9.39263 2.10232 -9.97247Q2.69233 -10.5523 3.97407 -10.5523L5.15408 -10.5523ZM9.19596 -10.5387Q8.28722 -8.97895 7.84641 -7.45307Q7.4056 -5.92719 7.4056 -4.36062Q7.4056 -2.79405 7.8498 -1.258Q8.294 0.278049 9.19596 1.83105L8.1109 1.83105Q7.09364 0.237359 6.58841 -1.30208Q6.08317 -2.84153 6.08317 -4.36062Q6.08317 -5.87294 6.58502 -7.4056Q7.08686 -8.93826 8.1109 -10.5387L9.19596 -10.5387ZM17.9308 -7.59549L15.1842 -3.89947L18.0732 0L16.6016 0L14.3907 -2.98394L12.1799 0L10.7083 0L13.6583 -3.97407L10.9592 -7.59549L12.4308 -7.59549L14.445 -4.88959L16.4591 -7.59549L17.9308 -7.59549ZM19.6398 -10.5387L20.7248 -10.5387Q21.7421 -8.93826 22.2473 -7.4056Q22.7526 -5.87294 22.7526 -4.36062Q22.7526 -2.84153 22.2473 -1.30208Q21.7421 0.237359 20.7248 1.83105L19.6398 1.83105Q20.5417 0.278049 20.9859 -1.258Q21.4301 -2.79405 21.4301 -4.36062Q21.4301 -5.92719 20.9859 -7.45307Q20.5417 -8.97895 19.6398 -10.5387Z" fill="#262626" transform="translate(29.727537790934257,244.90555555555554) rotate(-90) translate(-11.973063468933105,0)" />
</svg>
