<svg xmlns="http://www.w3.org/2000/svg" viewBox="0 0 800 450" width="800" height="450" style="width:100%;height:auto" role="img" aria-labelledby="chart-title">
<title id="chart-title">Lollipop Chart — Product Scores</title>
<rect x="0" y="0" width="800" height="450" fill="#FFFFFF" />
<path d="M1.64214 -13.0411L5.00505 -13.0411L5.00505 -2.54183L10.9098 -2.54183L10.9098 0L1.64214 0L1.64214 -13.0411ZM17.557 -7.78271Q16.5175 -7.78271 15.9716 -7.03589Q15.4257 -6.28906 15.4257 -4.88276Q15.4257 -3.47645 15.9716 -2.72963Q16.5175 -1.9828 17.557 -1.9828Q18.5789 -1.9828 19.1205 -2.72963Q19.6621 -3.47645 19.6621 -4.88276Q19.6621 -6.28906 19.1205 -7.03589Q18.5789 -7.78271 17.557 -7.78271ZM17.557 -10.0188Q20.0813 -10.0188 21.5007 -8.6562Q22.9201 -7.29357 22.9201 -4.88276Q22.9201 -2.47195 21.5007 -1.10932Q20.0813 0.253309 17.557 0.253309Q15.0239 0.253309 13.5957 -1.10932Q12.1676 -2.47195 12.1676 -4.88276Q12.1676 -7.29357 13.5957 -8.6562Q15.0239 -10.0188 17.557 -10.0188ZM25.1912 -13.5914L28.3183 -13.5914L28.3183 0L25.1912 0L25.1912 -13.5914ZM31.323 -13.5914L34.4501 -13.5914L34.4501 0L31.323 0L31.323 -13.5914ZM37.4549 -9.78299L40.5819 -9.78299L40.5819 0L37.4549 0L37.4549 -9.78299ZM37.4549 -13.5914L40.5819 -13.5914L40.5819 -11.0408L37.4549 -11.0408L37.4549 -13.5914ZM46.7138 -1.41504L46.7138 3.72103L43.5867 3.72103L43.5867 -9.78299L46.7138 -9.78299L46.7138 -8.35048Q47.3601 -9.20649 48.1463 -9.61266Q48.9324 -10.0188 49.9544 -10.0188Q51.7625 -10.0188 52.9242 -8.58195Q54.0859 -7.14507 54.0859 -4.88276Q54.0859 -2.62044 52.9242 -1.18357Q51.7625 0.253309 49.9544 0.253309Q48.9324 0.253309 48.1463 -0.152859Q47.3601 -0.559028 46.7138 -1.41504ZM48.7926 -7.74778Q47.7881 -7.74778 47.251 -7.00968Q46.7138 -6.27159 46.7138 -4.88276Q46.7138 -3.49392 47.251 -2.75583Q47.7881 -2.01774 48.7926 -2.01774Q49.7971 -2.01774 50.3256 -2.75146Q50.8541 -3.48519 50.8541 -4.88276Q50.8541 -6.28033 50.3256 -7.01405Q49.7971 -7.74778 48.7926 -7.74778ZM61.0476 -7.78271Q60.0081 -7.78271 59.4622 -7.03589Q58.9163 -6.28906 58.9163 -4.88276Q58.9163 -3.47645 59.4622 -2.72963Q60.0081 -1.9828 61.0476 -1.9828Q62.0696 -1.9828 62.6111 -2.72963Q63.1527 -3.47645 63.1527 -4.88276Q63.1527 -6.28906 62.6111 -7.03589Q62.0696 -7.78271 61.0476 -7.78271ZM61.0476 -10.0188Q63.5719 -10.0188 64.9913 -8.6562Q66.4108 -7.29357 66.4108 -4.88276Q66.4108 -2.47195 64.9913 -1.10932Q63.5719 0.253309 61.0476 0.253309Q58.5145 0.253309 57.0863 -1.10932Q55.6582 -2.47195 55.6582 -4.88276Q55.6582 -7.29357 57.0863 -8.6562Q58.5145 -10.0188 61.0476 -10.0188ZM71.8089 -1.41504L71.8089 3.72103L68.6818 3.72103L68.6818 -9.78299L71.8089 -9.78299L71.8089 -8.35048Q72.4552 -9.20649 73.2414 -9.61266Q74.0275 -10.0188 75.0495 -10.0188Q76.8576 -10.0188 78.0193 -8.58195Q79.181 -7.14507 79.181 -4.88276Q79.181 -2.62044 78.0193 -1.18357Q76.8576 0.253309 75.0495 0.253309Q74.0275 0.253309 73.2414 -0.152859Q72.4552 -0.559028 71.8089 -1.41504ZM73.8878 -7.74778Q72.8832 -7.74778 72.3461 -7.00968Q71.8089 -6.27159 71.8089 -4.88276Q71.8089 -3.49392 72.3461 -2.75583Q72.8832 -2.01774 73.8878 -2.01774Q74.8923 -2.01774 75.4207 -2.75146Q75.9492 -3.48519 75.9492 -4.88276Q75.9492 -6.28033 75.4207 -7.01405Q74.8923 -7.74778 73.8878 -7.74778ZM98.1967 -0.716254Q97.2708 -0.23584 96.2663 0.00873481Q95.2618 0.253309 94.17 0.253309Q90.9119 0.253309 89.0077 -1.5679Q87.1035 -3.38911 87.1035 -6.50743Q87.1035 -9.63449 89.0077 -11.4557Q90.9119 -13.2769 94.17 -13.2769Q95.2618 -13.2769 96.2663 -13.0323Q97.2708 -12.7878 98.1967 -12.3073L98.1967 -9.60829Q97.2621 -10.2459 96.3537 -10.5429Q95.4453 -10.8399 94.4408 -10.8399Q92.6414 -10.8399 91.6107 -9.6869Q90.58 -8.53391 90.58 -6.50743Q90.58 -4.48969 91.6107 -3.3367Q92.6414 -2.1837 94.4408 -2.1837Q95.4453 -2.1837 96.3537 -2.48069Q97.2621 -2.77767 98.1967 -3.41531L98.1967 -0.716254ZM110.679 -5.95714L110.679 0L107.534 0L107.534 -0.969564L107.534 -4.5421Q107.534 -5.82612 107.477 -6.30653Q107.421 -6.78695 107.281 -7.01405Q107.097 -7.31977 106.783 -7.4901Q106.469 -7.66043 106.067 -7.66043Q105.088 -7.66043 104.529 -6.90487Q103.97 -6.14931 103.97 -4.81288L103.97 0L100.843 0L100.843 -13.5914L103.97 -13.5914L103.97 -8.35048Q104.678 -9.20649 105.473 -9.61266Q106.268 -10.0188 107.229 -10.0188Q108.923 -10.0188 109.801 -8.97938Q110.679 -7.93994 110.679 -5.95714ZM117.964 -4.40234Q116.985 -4.40234 116.492 -4.07042Q115.998 -3.7385 115.998 -3.09212Q115.998 -2.49816 116.396 -2.16187Q116.793 -1.82558 117.501 -1.82558Q118.383 -1.82558 118.986 -2.45885Q119.588 -3.09212 119.588 -4.04422L119.588 -4.40234L117.964 -4.40234ZM122.742 -5.58154L122.742 0L119.588 0L119.588 -1.44998Q118.959 -0.559028 118.173 -0.152859Q117.387 0.253309 116.26 0.253309Q114.74 0.253309 113.793 -0.633274Q112.845 -1.51986 112.845 -2.9349Q112.845 -4.65565 114.029 -5.45926Q115.212 -6.26286 117.745 -6.26286L119.588 -6.26286L119.588 -6.50743Q119.588 -7.24989 119.003 -7.59492Q118.418 -7.93994 117.177 -7.93994Q116.173 -7.93994 115.308 -7.73904Q114.443 -7.53814 113.701 -7.13634L113.701 -9.52094Q114.706 -9.76552 115.719 -9.89217Q116.732 -10.0188 117.745 -10.0188Q120.392 -10.0188 121.567 -8.97502Q122.742 -7.93121 122.742 -5.58154ZM132.918 -7.11887Q132.507 -7.31103 132.101 -7.40275Q131.695 -7.49447 131.284 -7.49447Q130.079 -7.49447 129.428 -6.72144Q128.777 -5.94841 128.777 -4.50716L128.777 0L125.65 0L125.65 -9.78299L128.777 -9.78299L128.777 -8.17578Q129.38 -9.13661 130.162 -9.57772Q130.944 -10.0188 132.035 -10.0188Q132.193 -10.0188 132.376 -10.0057Q132.559 -9.99262 132.909 -9.94895L132.918 -7.11887ZM137.888 -12.5607L137.888 -9.78299L141.111 -9.78299L141.111 -7.54688L137.888 -7.54688L137.888 -3.39784Q137.888 -2.71653 138.158 -2.47632Q138.429 -2.23611 139.233 -2.23611L140.84 -2.23611L140.84 0L138.158 0Q136.307 0 135.534 -0.773031Q134.761 -1.54606 134.761 -3.39784L134.761 -7.54688L133.206 -7.54688L133.206 -9.78299L134.761 -9.78299L134.761 -12.5607L137.888 -12.5607ZM148.71 -6.02702L164.677 -6.02702L164.677 -3.77344L148.71 -3.77344L148.71 -6.02702ZM173.508 -13.0411L179.09 -13.0411Q181.579 -13.0411 182.911 -11.9361Q184.243 -10.8312 184.243 -8.78722Q184.243 -6.73454 182.911 -5.62958Q181.579 -4.52463 179.09 -4.52463L176.871 -4.52463L176.871 0L173.508 0L173.508 -13.0411ZM176.871 -10.6041L176.871 -6.96164L178.732 -6.96164Q179.71 -6.96164 180.243 -7.43769Q180.776 -7.91374 180.776 -8.78722Q180.776 -9.6607 180.243 -10.1324Q179.71 -10.6041 178.732 -10.6041L176.871 -10.6041ZM193.747 -7.11887Q193.336 -7.31103 192.93 -7.40275Q192.524 -7.49447 192.113 -7.49447Q190.908 -7.49447 190.257 -6.72144Q189.607 -5.94841 189.607 -4.50716L189.607 0L186.479 0L186.479 -9.78299L189.607 -9.78299L189.607 -8.17578Q190.209 -9.13661 190.991 -9.57772Q191.773 -10.0188 192.865 -10.0188Q193.022 -10.0188 193.205 -10.0057Q193.389 -9.99262 193.738 -9.94895L193.747 -7.11887ZM199.957 -7.78271Q198.918 -7.78271 198.372 -7.03589Q197.826 -6.28906 197.826 -4.88276Q197.826 -3.47645 198.372 -2.72963Q198.918 -1.9828 199.957 -1.9828Q200.979 -1.9828 201.521 -2.72963Q202.062 -3.47645 202.062 -4.88276Q202.062 -6.28906 201.521 -7.03589Q200.979 -7.78271 199.957 -7.78271ZM199.957 -10.0188Q202.482 -10.0188 203.901 -8.6562Q205.32 -7.29357 205.32 -4.88276Q205.32 -2.47195 203.901 -1.10932Q202.482 0.253309 199.957 0.253309Q197.424 0.253309 195.996 -1.10932Q194.568 -2.47195 194.568 -4.88276Q194.568 -7.29357 195.996 -8.6562Q197.424 -10.0188 199.957 -10.0188ZM214.247 -8.35048L214.247 -13.5914L217.392 -13.5914L217.392 0L214.247 0L214.247 -1.41504Q213.601 -0.550293 212.824 -0.148492Q212.046 0.253309 211.024 0.253309Q209.216 0.253309 208.054 -1.18357Q206.893 -2.62044 206.893 -4.88276Q206.893 -7.14507 208.054 -8.58195Q209.216 -10.0188 211.024 -10.0188Q212.037 -10.0188 212.819 -9.61266Q213.601 -9.20649 214.247 -8.35048ZM212.186 -2.01774Q213.19 -2.01774 213.719 -2.75146Q214.247 -3.48519 214.247 -4.88276Q214.247 -6.28033 213.719 -7.01405Q213.19 -7.74778 212.186 -7.74778Q211.19 -7.74778 210.662 -7.01405Q210.133 -6.28033 210.133 -4.88276Q210.133 -3.48519 210.662 -2.75146Q211.19 -2.01774 212.186 -2.01774ZM220.292 -3.80838L220.292 -9.78299L223.436 -9.78299L223.436 -8.80469Q223.436 -8.00982 223.428 -6.80878Q223.419 -5.60775 223.419 -5.20595Q223.419 -4.02675 223.48 -3.50703Q223.541 -2.9873 223.69 -2.75146Q223.882 -2.44575 224.192 -2.27979Q224.502 -2.11382 224.904 -2.11382Q225.882 -2.11382 226.441 -2.86502Q227 -3.61621 227 -4.95264L227 -9.78299L230.127 -9.78299L230.127 0L227 0L227 -1.41504Q226.293 -0.559028 225.502 -0.152859Q224.712 0.253309 223.76 0.253309Q222.065 0.253309 221.178 -0.786133Q220.292 -1.82558 220.292 -3.80838ZM241.037 -9.47727L241.037 -6.9267Q240.399 -7.36344 239.757 -7.57308Q239.115 -7.78271 238.425 -7.78271Q237.115 -7.78271 236.386 -7.01842Q235.656 -6.25412 235.656 -4.88276Q235.656 -3.51139 236.386 -2.7471Q237.115 -1.9828 238.425 -1.9828Q239.159 -1.9828 239.819 -2.20117Q240.478 -2.41954 241.037 -2.84755L241.037 -0.288249C240.548 -0.107729 240.051 0.0276602 239.548 0.11792Q238.792 0.253309 238.032 0.253309Q235.386 0.253309 233.892 -1.10495Q232.398 -2.46322 232.398 -4.88276Q232.398 -7.3023 233.892 -8.66056Q235.386 -10.0188 238.032 -10.0188Q238.801 -10.0188 239.548 -9.88344Q240.295 -9.74805 241.037 -9.47727ZM247.151 -12.5607L247.151 -9.78299L250.375 -9.78299L250.375 -7.54688L247.151 -7.54688L247.151 -3.39784Q247.151 -2.71653 247.422 -2.47632Q247.693 -2.23611 248.497 -2.23611L250.104 -2.23611L250.104 0L247.422 0Q245.57 0 244.797 -0.773031Q244.024 -1.54606 244.024 -3.39784L244.024 -7.54688L242.47 -7.54688L242.47 -9.78299L244.024 -9.78299L244.024 -12.5607L247.151 -12.5607ZM267.731 -12.6305L267.731 -9.87033Q266.656 -10.3507 265.634 -10.5953Q264.612 -10.8399 263.704 -10.8399Q262.499 -10.8399 261.922 -10.508Q261.345 -10.1761 261.345 -9.47727Q261.345 -8.95318 261.734 -8.66056Q262.123 -8.36795 263.145 -8.15831L264.577 -7.87006Q266.752 -7.43332 267.669 -6.54237Q268.587 -5.65142 268.587 -4.00928Q268.587 -1.85178 267.307 -0.799235Q266.027 0.253309 263.398 0.253309Q262.158 0.253309 260.909 0.0174696Q259.66 -0.21837 258.411 -0.681315L258.411 -3.52013Q259.66 -2.85628 260.826 -2.51999Q261.992 -2.1837 263.075 -2.1837Q264.176 -2.1837 264.761 -2.55056Q265.346 -2.91743 265.346 -3.59874Q265.346 -4.21018 264.949 -4.5421Q264.551 -4.87402 263.363 -5.13607L262.062 -5.42432Q260.105 -5.84359 259.201 -6.76074Q258.297 -7.6779 258.297 -9.23269Q258.297 -11.1806 259.555 -12.2287Q260.813 -13.2769 263.171 -13.2769Q264.245 -13.2769 265.381 -13.1153Q266.517 -12.9537 267.731 -12.6305ZM279.304 -9.47727L279.304 -6.9267Q278.667 -7.36344 278.025 -7.57308Q277.383 -7.78271 276.693 -7.78271Q275.382 -7.78271 274.653 -7.01842Q273.924 -6.25412 273.924 -4.88276Q273.924 -3.51139 274.653 -2.7471Q275.382 -1.9828 276.693 -1.9828Q277.426 -1.9828 278.086 -2.20117Q278.745 -2.41954 279.304 -2.84755L279.304 -0.288249C278.815 -0.107729 278.319 0.0276602 277.815 0.11792Q277.059 0.253309 276.299 0.253309Q273.653 0.253309 272.159 -1.10495Q270.666 -2.46322 270.666 -4.88276Q270.666 -7.3023 272.159 -8.66056Q273.653 -10.0188 276.299 -10.0188Q277.068 -10.0188 277.815 -9.88344Q278.562 -9.74805 279.304 -9.47727ZM286.659 -7.78271Q285.62 -7.78271 285.074 -7.03589Q284.528 -6.28906 284.528 -4.88276Q284.528 -3.47645 285.074 -2.72963Q285.62 -1.9828 286.659 -1.9828Q287.681 -1.9828 288.223 -2.72963Q288.764 -3.47645 288.764 -4.88276Q288.764 -6.28906 288.223 -7.03589Q287.681 -7.78271 286.659 -7.78271ZM286.659 -10.0188Q289.183 -10.0188 290.603 -8.6562Q292.022 -7.29357 292.022 -4.88276Q292.022 -2.47195 290.603 -1.10932Q289.183 0.253309 286.659 0.253309Q284.126 0.253309 282.698 -1.10932Q281.27 -2.47195 281.27 -4.88276Q281.27 -7.29357 282.698 -8.6562Q284.126 -10.0188 286.659 -10.0188ZM301.561 -7.11887Q301.15 -7.31103 300.744 -7.40275Q300.338 -7.49447 299.927 -7.49447Q298.722 -7.49447 298.071 -6.72144Q297.42 -5.94841 297.42 -4.50716L297.42 0L294.293 0L294.293 -9.78299L297.42 -9.78299L297.42 -8.17578Q298.023 -9.13661 298.805 -9.57772Q299.587 -10.0188 300.678 -10.0188Q300.836 -10.0188 301.019 -10.0057Q301.202 -9.99262 301.552 -9.94895L301.561 -7.11887ZM312.881 -4.9177L312.881 -4.02675L305.57 -4.02675Q305.683 -2.92616 306.365 -2.37587Q307.046 -1.82558 308.269 -1.82558Q309.256 -1.82558 310.291 -2.11819Q311.326 -2.41081 312.418 -3.00477L312.418 -0.593967Q311.309 -0.174696 310.199 0.0393066Q309.09 0.253309 307.981 0.253309Q305.325 0.253309 303.853 -1.09622Q302.382 -2.44575 302.382 -4.88276Q302.382 -7.2761 303.827 -8.64746Q305.273 -10.0188 307.806 -10.0188Q310.112 -10.0188 311.496 -8.62999Q312.881 -7.24116 312.881 -4.9177ZM309.666 -5.95714Q309.666 -6.84809 309.147 -7.39402Q308.627 -7.93994 307.788 -7.93994Q306.88 -7.93994 306.312 -7.42896Q305.745 -6.91797 305.605 -5.95714L309.666 -5.95714ZM322.891 -9.47727L322.891 -7.1014Q321.886 -7.52067 320.952 -7.73031Q320.017 -7.93994 319.187 -7.93994Q318.296 -7.93994 317.864 -7.7172Q317.432 -7.49447 317.432 -7.03152Q317.432 -6.65592 317.759 -6.45502Q318.087 -6.25412 318.934 -6.15804L319.484 -6.07943Q321.886 -5.77371 322.716 -5.07492Q323.546 -4.37614 323.546 -2.88249Q323.546 -1.31896 322.393 -0.532823Q321.24 0.253309 318.952 0.253309Q317.982 0.253309 316.947 0.10045Q315.912 -0.0524089 314.82 -0.358127L314.82 -2.734Q315.755 -2.27978 316.737 -2.05268Q317.72 -1.82557 318.733 -1.82558Q319.65 -1.82558 320.113 -2.07888Q320.576 -2.33219 320.576 -2.83008Q320.576 -3.24935 320.257 -3.45462Q319.939 -3.65989 318.987 -3.77344L318.436 -3.84332Q316.349 -4.10536 315.51 -4.81288Q314.672 -5.5204 314.672 -6.96164Q314.672 -8.51644 315.737 -9.26763Q316.803 -10.0188 319.004 -10.0188Q319.869 -10.0188 320.821 -9.8878Q321.773 -9.75678 322.891 -9.47727Z" fill="#262626" transform="translate(400,24.099999999999998) translate(-162.19668579101562,0)" />
<rect x="100" y="54" width="620" height="346" fill="#FFFFFF" />
<line x1="100" y1="399.6" x2="100" y2="404.8611111111111" stroke="#262626" stroke-width="1.1111111111111112" />
<path d="M4.41488 -9.22309Q3.35693 -9.22309 2.82457 -8.1821Q2.29221 -7.14111 2.29221 -5.05235Q2.29221 -2.97038 2.82457 -1.92939Q3.35693 -0.888401 4.41488 -0.888401Q5.4796 -0.888401 6.01196 -1.92939Q6.54433 -2.97038 6.54433 -5.05235Q6.54433 -7.14111 6.01196 -8.1821Q5.4796 -9.22309 4.41488 -9.22309ZM4.41488 -10.3082Q6.11708 -10.3082 7.01565 -8.962Q7.91422 -7.61583 7.91423 -5.05235Q7.91423 -2.49566 7.01565 -1.1495Q6.11708 0.196669 4.41488 0.196669Q2.71267 0.196669 1.8141 -1.1495Q0.915527 -2.49566 0.915527 -5.05235Q0.915527 -7.61583 1.8141 -8.962Q2.71267 -10.3082 4.41488 -10.3082ZM10.3217 -1.72255L11.7527 -1.72255L11.7527 0L10.3217 0L10.3217 -1.72255ZM17.6663 -9.22309Q16.6083 -9.22309 16.076 -8.1821Q15.5436 -7.14111 15.5436 -5.05235Q15.5436 -2.97038 16.076 -1.92939Q16.6083 -0.888401 17.6663 -0.888401Q18.731 -0.888401 19.2634 -1.92939Q19.7957 -2.97038 19.7957 -5.05235Q19.7957 -7.14111 19.2634 -8.1821Q18.731 -9.22309 17.6663 -9.22309ZM17.6663 -10.3082Q19.3685 -10.3082 20.2671 -8.962Q21.1656 -7.61583 21.1656 -5.05235Q21.1656 -2.49566 20.2671 -1.1495Q19.3685 0.196669 17.6663 0.196669Q15.9641 0.196669 15.0655 -1.1495Q14.1669 -2.49566 14.1669 -5.05235Q14.1669 -7.61583 15.0655 -8.962Q15.9641 -10.3082 17.6663 -10.3082Z" fill="#262626" transform="translate(100,423.6111111111111) translate(-11.043972969055176,0)" />
<line x1="162" y1="399.6" x2="162" y2="404.8611111111111" stroke="#262626" stroke-width="1.1111111111111112" />
<path d="M4.41488 -9.22309Q3.35693 -9.22309 2.82457 -8.1821Q2.29221 -7.14111 2.29221 -5.05235Q2.29221 -2.97038 2.82457 -1.92939Q3.35693 -0.888401 4.41488 -0.888401Q5.4796 -0.888401 6.01196 -1.92939Q6.54433 -2.97038 6.54433 -5.05235Q6.54433 -7.14111 6.01196 -8.1821Q5.4796 -9.22309 4.41488 -9.22309ZM4.41488 -10.3082Q6.11708 -10.3082 7.01565 -8.962Q7.91422 -7.61583 7.91423 -5.05235Q7.91423 -2.49566 7.01565 -1.1495Q6.11708 0.196669 4.41488 0.196669Q2.71267 0.196669 1.8141 -1.1495Q0.915527 -2.49566 0.915527 -5.05235Q0.915527 -7.61583 1.8141 -8.962Q2.71267 -10.3082 4.41488 -10.3082ZM10.3217 -1.72255L11.7527 -1.72255L11.7527 0L10.3217 0L10.3217 -1.72255ZM14.7502 -10.1251L20.128 -10.1251L20.128 -8.97217L16.0048 -8.97217L16.0048 -6.49007Q16.3032 -6.5918 16.6016 -6.64266Q16.9 -6.69352 17.1984 -6.69352Q18.8938 -6.69352 19.8839 -5.76443Q20.874 -4.83534 20.874 -3.24843Q20.874 -1.61404 19.8568 -0.708686Q18.8395 0.196669 16.9881 0.196669Q16.3506 0.196669 15.6894 0.0881619C15.2486 0.0158239 14.7931 -0.092683 14.3229 -0.237359L14.3229 -1.61404Q14.9333 -1.28174 15.5843 -1.11898Q16.2354 -0.956217 16.961 -0.956217Q18.1342 -0.956217 18.8192 -1.57335Q19.5041 -2.19048 19.5041 -3.24843Q19.5041 -4.30637 18.8192 -4.9235Q18.1342 -5.54064 16.961 -5.54064Q16.4117 -5.54064 15.8658 -5.41857Q15.3198 -5.2965 14.7502 -5.03879L14.7502 -10.1251Z" fill="#262626" transform="translate(162,423.6111111111111) translate(-11.043972969055176,0)" />
<line x1="224" y1="399.6" x2="224" y2="404.8611111111111" stroke="#262626" stroke-width="1.1111111111111112" />
<path d="M1.72255 -1.15289L3.9605 -1.15289L3.9605 -8.87722L1.52588 -8.38894L1.52588 -9.63677L3.94694 -10.1251L5.31684 -10.1251L5.31684 -1.15289L7.5548 -1.15289L7.5548 0L1.72255 0L1.72255 -1.15289ZM10.3217 -1.72255L11.7527 -1.72255L11.7527 0L10.3217 0L10.3217 -1.72255ZM17.6663 -9.22309Q16.6083 -9.22309 16.076 -8.1821Q15.5436 -7.14111 15.5436 -5.05235Q15.5436 -2.97038 16.076 -1.92939Q16.6083 -0.888401 17.6663 -0.888401Q18.731 -0.888401 19.2634 -1.92939Q19.7957 -2.97038 19.7957 -5.05235Q19.7957 -7.14111 19.2634 -8.1821Q18.731 -9.22309 17.6663 -9.22309ZM17.6663 -10.3082Q19.3685 -10.3082 20.2671 -8.962Q21.1656 -7.61583 21.1656 -5.05235Q21.1656 -2.49566 20.2671 -1.1495Q19.3685 0.196669 17.6663 0.196669Q15.9641 0.196669 15.0655 -1.1495Q14.1669 -2.49566 14.1669 -5.05235Q14.1669 -7.61583 15.0655 -8.962Q15.9641 -10.3082 17.6663 -10.3082Z" fill="#262626" transform="translate(224,423.6111111111111) translate(-11.043972969055176,0)" />
<line x1="286" y1="399.6" x2="286" y2="404.8611111111111" stroke="#262626" stroke-width="1.1111111111111112" />
<path d="M1.72255 -1.15289L3.9605 -1.15289L3.9605 -8.87722L1.52588 -8.38894L1.52588 -9.63677L3.94694 -10.1251L5.31684 -10.1251L5.31684 -1.15289L7.5548 -1.15289L7.5548 0L1.72255 0L1.72255 -1.15289ZM10.3217 -1.72255L11.7527 -1.72255L11.7527 0L10.3217 0L10.3217 -1.72255ZM14.7502 -10.1251L20.128 -10.1251L20.128 -8.97217L16.0048 -8.97217L16.0048 -6.49007Q16.3032 -6.5918 16.6016 -6.64266Q16.9 -6.69352 17.1984 -6.69352Q18.8938 -6.69352 19.8839 -5.76443Q20.874 -4.83534 20.874 -3.24843Q20.874 -1.61404 19.8568 -0.708686Q18.8395 0.196669 16.9881 0.196669Q16.3506 0.196669 15.6894 0.0881619C15.2486 0.0158239 14.7931 -0.092683 14.3229 -0.237359L14.3229 -1.61404Q14.9333 -1.28174 15.5843 -1.11898Q16.2354 -0.956217 16.961 -0.956217Q18.1342 -0.956217 18.8192 -1.57335Q19.5041 -2.19048 19.5041 -3.24843Q19.5041 -4.30637 18.8192 -4.9235Q18.1342 -5.54064 16.961 -5.54064Q16.4117 -5.54064 15.8658 -5.41857Q15.3198 -5.2965 14.7502 -5.03879L14.7502 -10.1251Z" fill="#262626" transform="translate(286,423.6111111111111) translate(-11.043972969055176,0)" />
<line x1="348" y1="399.6" x2="348" y2="404.8611111111111" stroke="#262626" stroke-width="1.1111111111111112" />
<path d="M2.6652 -1.15289L7.44629 -1.15289L7.44629 0L1.01725 0L1.01725 -1.15289Q1.79715 -1.95991 3.14331 -3.31963Q4.48947 -4.67936 4.83534 -5.0727Q5.49316 -5.8119 5.75426 -6.32392Q6.01535 -6.83594 6.01535 -7.331Q6.01535 -8.13802 5.44908 -8.64665Q4.88281 -9.15527 3.97407 -9.15527Q3.32981 -9.15527 2.61434 -8.93148Q1.89887 -8.70768 1.08507 -8.25331L1.08507 -9.63677Q1.91243 -9.96908 2.63129 -10.1386Q3.35015 -10.3082 3.94694 -10.3082Q5.52029 -10.3082 6.45616 -9.52148Q7.39204 -8.73481 7.39204 -7.41916Q7.39204 -6.79525 7.15807 -6.23576Q6.9241 -5.67627 6.30697 -4.91672Q6.13742 -4.72005 5.22868 -3.78079Q4.31993 -2.84153 2.6652 -1.15289ZM10.3217 -1.72255L11.7527 -1.72255L11.7527 0L10.3217 0L10.3217 -1.72255ZM17.6663 -9.22309Q16.6083 -9.22309 16.076 -8.1821Q15.5436 -7.14111 15.5436 -5.05235Q15.5436 -2.97038 16.076 -1.92939Q16.6083 -0.888401 17.6663 -0.888401Q18.731 -0.888401 19.2634 -1.92939Q19.7957 -2.97038 19.7957 -5.05235Q19.7957 -7.14111 19.2634 -8.1821Q18.731 -9.22309 17.6663 -9.22309ZM17.6663 -10.3082Q19.3685 -10.3082 20.2671 -8.962Q21.1656 -7.61583 21.1656 -5.05235Q21.1656 -2.49566 20.2671 -1.1495Q19.3685 0.196669 17.6663 0.196669Q15.9641 0.196669 15.0655 -1.1495Q14.1669 -2.49566 14.1669 -5.05235Q14.1669 -7.61583 15.0655 -8.962Q15.9641 -10.3082 17.6663 -10.3082Z" fill="#262626" transform="translate(348,423.6111111111111) translate(-11.043972969055176,0)" />
<line x1="410" y1="399.6" x2="410" y2="404.8611111111111" stroke="#262626" stroke-width="1.1111111111111112" />
<path d="M2.6652 -1.15289L7.44629 -1.15289L7.44629 0L1.01725 0L1.01725 -1.15289Q1.79715 -1.95991 3.14331 -3.31963Q4.48947 -4.67936 4.83534 -5.0727Q5.49316 -5.8119 5.75426 -6.32392Q6.01535 -6.83594 6.01535 -7.331Q6.01535 -8.13802 5.44908 -8.64665Q4.88281 -9.15527 3.97407 -9.15527Q3.32981 -9.15527 2.61434 -8.93148Q1.89887 -8.70768 1.08507 -8.25331L1.08507 -9.63677Q1.91243 -9.96908 2.63129 -10.1386Q3.35015 -10.3082 3.94694 -10.3082Q5.52029 -10.3082 6.45616 -9.52148Q7.39204 -8.73481 7.39204 -7.41916Q7.39204 -6.79525 7.15807 -6.23576Q6.9241 -5.67627 6.30697 -4.91672Q6.13742 -4.72005 5.22868 -3.78079Q4.31993 -2.84153 2.6652 -1.15289ZM10.3217 -1.72255L11.7527 -1.72255L11.7527 0L10.3217 0L10.3217 -1.72255ZM14.7502 -10.1251L20.128 -10.1251L20.128 -8.97217L16.0048 -8.97217L16.0048 -6.49007Q16.3032 -6.5918 16.6016 -6.64266Q16.9 -6.69352 17.1984 -6.69352Q18.8938 -6.69352 19.8839 -5.76443Q20.874 -4.83534 20.874 -3.24843Q20.874 -1.61404 19.8568 -0.708686Q18.8395 0.196669 16.9881 0.196669Q16.3506 0.196669 15.6894 0.0881619C15.2486 0.0158239 14.7931 -0.092683 14.3229 -0.237359L14.3229 -1.61404Q14.9333 -1.28174 15.5843 -1.11898Q16.2354 -0.956217 16.961 -0.956217Q18.1342 -0.956217 18.8192 -1.57335Q19.5041 -2.19048 19.5041 -3.24843Q19.5041 -4.30637 18.8192 -4.9235Q18.1342 -5.54064 16.961 -5.54064Q16.4117 -5.54064 15.8658 -5.41857Q15.3198 -5.2965 14.7502 -5.03879L14.7502 -10.1251Z" fill="#262626" transform="translate(410,423.6111111111111) translate(-11.043972969055176,0)" />
<line x1="472" y1="399.6" x2="472" y2="404.8611111111111" stroke="#262626" stroke-width="1.1111111111111112" />
<path d="M5.63558 -5.45926Q6.61892 -5.24902 7.17163 -4.58442Q7.72434 -3.91981 7.72434 -2.94325Q7.72434 -1.4445 6.69352 -0.623915Q5.66271 0.196669 3.76383 0.196669Q3.12636 0.196669 2.45158 0.0712077Q1.7768 -0.0542535 1.05794 -0.305176L1.05794 -1.6276Q1.6276 -1.2953 2.30577 -1.12576Q2.98394 -0.956217 3.72314 -0.956217Q5.01166 -0.956217 5.68644 -1.46484Q6.36122 -1.97347 6.36122 -2.94325Q6.36122 -3.83843 5.73391 -4.34367Q5.10661 -4.8489 3.98763 -4.8489L2.80762 -4.8489L2.80762 -5.97466L4.04188 -5.97466Q5.05235 -5.97466 5.58811 -6.37817Q6.12386 -6.78168 6.12386 -7.54123Q6.12386 -8.32113 5.57115 -8.7382Q5.01845 -9.15527 3.98763 -9.15527Q3.42475 -9.15527 2.78049 -9.0332Q2.13623 -8.91113 1.36312 -8.65343L1.36312 -9.87413Q2.14301 -10.0911 2.82457 -10.1997Q3.50613 -10.3082 4.1097 -10.3082Q5.66949 -10.3082 6.57823 -9.59947Q7.48698 -8.89079 7.48698 -7.68365Q7.48698 -6.84272 7.00548 -6.26289Q6.52398 -5.68305 5.63558 -5.45926ZM10.3217 -1.72255L11.7527 -1.72255L11.7527 0L10.3217 0L10.3217 -1.72255ZM17.6663 -9.22309Q16.6083 -9.22309 16.076 -8.1821Q15.5436 -7.14111 15.5436 -5.05235Q15.5436 -2.97038 16.076 -1.92939Q16.6083 -0.888401 17.6663 -0.888401Q18.731 -0.888401 19.2634 -1.92939Q19.7957 -2.97038 19.7957 -5.05235Q19.7957 -7.14111 19.2634 -8.1821Q18.731 -9.22309 17.6663 -9.22309ZM17.6663 -10.3082Q19.3685 -10.3082 20.2671 -8.962Q21.1656 -7.61583 21.1656 -5.05235Q21.1656 -2.49566 20.2671 -1.1495Q19.3685 0.196669 17.6663 0.196669Q15.9641 0.196669 15.0655 -1.1495Q14.1669 -2.49566 14.1669 -5.05235Q14.1669 -7.61583 15.0655 -8.962Q15.9641 -10.3082 17.6663 -10.3082Z" fill="#262626" transform="translate(472,423.6111111111111) translate(-11.043972969055176,0)" />
<line x1="534" y1="399.6" x2="534" y2="404.8611111111111" stroke="#262626" stroke-width="1.1111111111111112" />
<path d="M5.63558 -5.45926Q6.61892 -5.24902 7.17163 -4.58442Q7.72434 -3.91981 7.72434 -2.94325Q7.72434 -1.4445 6.69352 -0.623915Q5.66271 0.196669 3.76383 0.196669Q3.12636 0.196669 2.45158 0.0712077Q1.7768 -0.0542535 1.05794 -0.305176L1.05794 -1.6276Q1.6276 -1.2953 2.30577 -1.12576Q2.98394 -0.956217 3.72314 -0.956217Q5.01166 -0.956217 5.68644 -1.46484Q6.36122 -1.97347 6.36122 -2.94325Q6.36122 -3.83843 5.73391 -4.34367Q5.10661 -4.8489 3.98763 -4.8489L2.80762 -4.8489L2.80762 -5.97466L4.04188 -5.97466Q5.05235 -5.97466 5.58811 -6.37817Q6.12386 -6.78168 6.12386 -7.54123Q6.12386 -8.32113 5.57115 -8.7382Q5.01845 -9.15527 3.98763 -9.15527Q3.42475 -9.15527 2.78049 -9.0332Q2.13623 -8.91113 1.36312 -8.65343L1.36312 -9.87413Q2.14301 -10.0911 2.82457 -10.1997Q3.50613 -10.3082 4.1097 -10.3082Q5.66949 -10.3082 6.57823 -9.59947Q7.48698 -8.89079 7.48698 -7.68365Q7.48698 -6.84272 7.00548 -6.26289Q6.52398 -5.68305 5.63558 -5.45926ZM10.3217 -1.72255L11.7527 -1.72255L11.7527 0L10.3217 0L10.3217 -1.72255ZM14.7502 -10.1251L20.128 -10.1251L20.128 -8.97217L16.0048 -8.97217L16.0048 -6.49007Q16.3032 -6.5918 16.6016 -6.64266Q16.9 -6.69352 17.1984 -6.69352Q18.8938 -6.69352 19.8839 -5.76443Q20.874 -4.83534 20.874 -3.24843Q20.874 -1.61404 19.8568 -0.708686Q18.8395 0.196669 16.9881 0.196669Q16.3506 0.196669 15.6894 0.0881619C15.2486 0.0158239 14.7931 -0.092683 14.3229 -0.237359L14.3229 -1.61404Q14.9333 -1.28174 15.5843 -1.11898Q16.2354 -0.956217 16.961 -0.956217Q18.1342 -0.956217 18.8192 -1.57335Q19.5041 -2.19048 19.5041 -3.24843Q19.5041 -4.30637 18.8192 -4.9235Q18.1342 -5.54064 16.961 -5.54064Q16.4117 -5.54064 15.8658 -5.41857Q15.3198 -5.2965 14.7502 -5.03879L14.7502 -10.1251Z" fill="#262626" transform="translate(534,423.6111111111111) translate(-11.043972969055176,0)" />
<line x1="596" y1="399.6" x2="596" y2="404.8611111111111" stroke="#262626" stroke-width="1.1111111111111112" />
<path d="M5.24902 -8.93148L1.79036 -3.52648L5.24902 -3.52648L5.24902 -8.93148ZM4.88959 -10.1251L6.61214 -10.1251L6.61214 -3.52648L8.05664 -3.52648L8.05664 -2.38715L6.61214 -2.38715L6.61214 0L5.24902 0L5.24902 -2.38715L0.678168 -2.38715L0.678168 -3.70958L4.88959 -10.1251ZM10.3217 -1.72255L11.7527 -1.72255L11.7527 0L10.3217 0L10.3217 -1.72255ZM17.6663 -9.22309Q16.6083 -9.22309 16.076 -8.1821Q15.5436 -7.14111 15.5436 -5.05235Q15.5436 -2.97038 16.076 -1.92939Q16.6083 -0.888401 17.6663 -0.888401Q18.731 -0.888401 19.2634 -1.92939Q19.7957 -2.97038 19.7957 -5.05235Q19.7957 -7.14111 19.2634 -8.1821Q18.731 -9.22309 17.6663 -9.22309ZM17.6663 -10.3082Q19.3685 -10.3082 20.2671 -8.962Q21.1656 -7.61583 21.1656 -5.05235Q21.1656 -2.49566 20.2671 -1.1495Q19.3685 0.196669 17.6663 0.196669Q15.9641 0.196669 15.0655 -1.1495Q14.1669 -2.49566 14.1669 -5.05235Q14.1669 -7.61583 15.0655 -8.962Q15.9641 -10.3082 17.6663 -10.3082Z" fill="#262626" transform="translate(596,423.6111111111111) translate(-11.043972969055176,0)" />
<line x1="658" y1="399.6" x2="658" y2="404.8611111111111" stroke="#262626" stroke-width="1.1111111111111112" />
<path d="M5.24902 -8.93148L1.79036 -3.52648L5.24902 -3.52648L5.24902 -8.93148ZM4.88959 -10.1251L6.61214 -10.1251L6.61214 -3.52648L8.05664 -3.52648L8.05664 -2.38715L6.61214 -2.38715L6.61214 0L5.24902 0L5.24902 -2.38715L0.678168 -2.38715L0.678168 -3.70958L4.88959 -10.1251ZM10.3217 -1.72255L11.7527 -1.72255L11.7527 0L10.3217 0L10.3217 -1.72255ZM14.7502 -10.1251L20.128 -10.1251L20.128 -8.97217L16.0048 -8.97217L16.0048 -6.49007Q16.3032 -6.5918 16.6016 -6.64266Q16.9 -6.69352 17.1984 -6.69352Q18.8938 -6.69352 19.8839 -5.76443Q20.874 -4.83534 20.874 -3.24843Q20.874 -1.61404 19.8568 -0.708686Q18.8395 0.196669 16.9881 0.196669Q16.3506 0.196669 15.6894 0.0881619C15.2486 0.0158239 14.7931 -0.092683 14.3229 -0.237359L14.3229 -1.61404Q14.9333 -1.28174 15.5843 -1.11898Q16.2354 -0.956217 16.961 -0.956217Q18.1342 -0.956217 18.8192 -1.57335Q19.5041 -2.19048 19.5041 -3.24843Q19.5041 -4.30637 18.8192 -4.9235Q18.1342 -5.54064 16.961 -5.54064Q16.4117 -5.54064 15.8658 -5.41857Q15.3198 -5.2965 14.7502 -5.03879L14.7502 -10.1251Z" fill="#262626" transform="translate(658,423.6111111111111) translate(-11.043972969055176,0)" />
<line x1="720" y1="399.6" x2="720" y2="404.8611111111111" stroke="#262626" stroke-width="1.1111111111111112" />
<path d="M1.49875 -10.1251L6.87663 -10.1251L6.87663 -8.97217L2.75336 -8.97217L2.75336 -6.49007Q3.05176 -6.5918 3.35015 -6.64266Q3.64855 -6.69352 3.94694 -6.69352Q5.64236 -6.69352 6.63249 -5.76443Q7.62261 -4.83534 7.62261 -3.24843Q7.62261 -1.61404 6.60536 -0.708686Q5.58811 0.196669 3.73671 0.196669Q3.09923 0.196669 2.43802 0.0881619C1.99721 0.0158239 1.5417 -0.092683 1.07151 -0.237359L1.07151 -1.61404Q1.68186 -1.28174 2.3329 -1.11898Q2.98394 -0.956217 3.70958 -0.956217Q4.88281 -0.956217 5.56776 -1.57335Q6.25271 -2.19048 6.25271 -3.24843Q6.25271 -4.30637 5.56776 -4.9235Q4.88281 -5.54064 3.70958 -5.54064Q3.16026 -5.54064 2.61434 -5.41857Q2.06841 -5.2965 1.49875 -5.03879L1.49875 -10.1251ZM10.3217 -1.72255L11.7527 -1.72255L11.7527 0L10.3217 0L10.3217 -1.72255ZM17.6663 -9.22309Q16.6083 -9.22309 16.076 -8.1821Q15.5436 -7.14111 15.5436 -5.05235Q15.5436 -2.97038 16.076 -1.92939Q16.6083 -0.888401 17.6663 -0.888401Q18.731 -0.888401 19.2634 -1.92939Q19.7957 -2.97038 19.7957 -5.05235Q19.7957 -7.14111 19.2634 -8.1821Q18.731 -9.22309 17.6663 -9.22309ZM17.6663 -10.3082Q19.3685 -10.3082 20.2671 -8.962Q21.1656 -7.61583 21.1656 -5.05235Q21.1656 -2.49566 20.2671 -1.1495Q19.3685 0.196669 17.6663 0.196669Q15.9641 0.196669 15.0655 -1.1495Q14.1669 -2.49566 14.1669 -5.05235Q14.1669 -7.61583 15.0655 -8.962Q15.9641 -10.3082 17.6663 -10.3082Z" fill="#262626" transform="translate(720,423.6111111111111) translate(-11.043972969055176,0)" />
<line x1="95.13888888888889" y1="400" x2="100.4" y2="400" stroke="#262626" stroke-width="1.1111111111111112" />
<path d="M4.41488 -9.22309Q3.35693 -9.22309 2.82457 -8.1821Q2.29221 -7.14111 2.29221 -5.05235Q2.29221 -2.97038 2.82457 -1.92939Q3.35693 -0.888401 4.41488 -0.888401Q5.4796 -0.888401 6.01196 -1.92939Q6.54433 -2.97038 6.54433 -5.05235Q6.54433 -7.14111 6.01196 -8.1821Q5.4796 -9.22309 4.41488 -9.22309ZM4.41488 -10.3082Q6.11708 -10.3082 7.01565 -8.962Q7.91422 -7.61583 7.91423 -5.05235Q7.91423 -2.49566 7.01565 -1.1495Q6.11708 0.196669 4.41488 0.196669Q2.71267 0.196669 1.8141 -1.1495Q0.915527 -2.49566 0.915527 -5.05235Q0.915527 -7.61583 1.8141 -8.962Q2.71267 -10.3082 4.41488 -10.3082Z" fill="#262626" transform="translate(90.27777777777777,404) translate(-8.83653450012207,0)" />
<line x1="95.13888888888889" y1="368.54545454545456" x2="100.4" y2="368.54545454545456" stroke="#262626" stroke-width="1.1111111111111112" />
<path d="M1.72255 -1.15289L3.9605 -1.15289L3.9605 -8.87722L1.52588 -8.38894L1.52588 -9.63677L3.94694 -10.1251L5.31684 -10.1251L5.31684 -1.15289L7.5548 -1.15289L7.5548 0L1.72255 0L1.72255 -1.15289ZM13.2514 -9.22309Q12.1935 -9.22309 11.6611 -8.1821Q11.1287 -7.14111 11.1287 -5.05235Q11.1287 -2.97038 11.6611 -1.92939Q12.1935 -0.888401 13.2514 -0.888401Q14.3161 -0.888401 14.8485 -1.92939Q15.3809 -2.97038 15.3809 -5.05235Q15.3809 -7.14111 14.8485 -8.1821Q14.3161 -9.22309 13.2514 -9.22309ZM13.2514 -10.3082Q14.9536 -10.3082 15.8522 -8.962Q16.7508 -7.61583 16.7508 -5.05235Q16.7508 -2.49566 15.8522 -1.1495Q14.9536 0.196669 13.2514 0.196669Q11.5492 0.196669 10.6506 -1.1495Q9.75206 -2.49566 9.75206 -5.05235Q9.75206 -7.61583 10.6506 -8.962Q11.5492 -10.3082 13.2514 -10.3082Z" fill="#262626" transform="translate(90.27777777777777,372.54545454545456) translate(-17.67306900024414,0)" />
<line x1="95.13888888888889" y1="337.0909090909091" x2="100.4" y2="337.0909090909091" stroke="#262626" stroke-width="1.1111111111111112" />
<path d="M2.6652 -1.15289L7.44629 -1.15289L7.44629 0L1.01725 0L1.01725 -1.15289Q1.79715 -1.95991 3.14331 -3.31963Q4.48947 -4.67936 4.83534 -5.0727Q5.49316 -5.8119 5.75426 -6.32392Q6.01535 -6.83594 6.01535 -7.331Q6.01535 -8.13802 5.44908 -8.64665Q4.88281 -9.15527 3.97407 -9.15527Q3.32981 -9.15527 2.61434 -8.93148Q1.89887 -8.70768 1.08507 -8.25331L1.08507 -9.63677Q1.91243 -9.96908 2.63129 -10.1386Q3.35015 -10.3082 3.94694 -10.3082Q5.52029 -10.3082 6.45616 -9.52148Q7.39204 -8.73481 7.39204 -7.41916Q7.39204 -6.79525 7.15807 -6.23576Q6.9241 -5.67627 6.30697 -4.91672Q6.13742 -4.72005 5.22868 -3.78079Q4.31993 -2.84153 2.6652 -1.15289ZM13.2514 -9.22309Q12.1935 -9.22309 11.6611 -8.1821Q11.1287 -7.14111 11.1287 -5.05235Q11.1287 -2.97038 11.6611 -1.92939Q12.1935 -0.888401 13.2514 -0.888401Q14.3161 -0.888401 14.8485 -1.92939Q15.3809 -2.97038 15.3809 -5.05235Q15.3809 -7.14111 14.8485 -8.1821Q14.3161 -9.22309 13.2514 -9.22309ZM13.2514 -10.3082Q14.9536 -10.3082 15.8522 -8.962Q16.7508 -7.61583 16.7508 -5.05235Q16.7508 -2.49566 15.8522 -1.1495Q14.9536 0.196669 13.2514 0.196669Q11.5492 0.196669 10.6506 -1.1495Q9.75206 -2.49566 9.75206 -5.05235Q9.75206 -7.61583 10.6506 -8.962Q11.5492 -10.3082 13.2514 -10.3082Z" fill="#262626" transform="translate(90.27777777777777,341.0909090909091) translate(-17.67306900024414,0)" />
<line x1="95.13888888888889" y1="305.6363636363636" x2="100.4" y2="305.6363636363636" stroke="#262626" stroke-width="1.1111111111111112" />
<path d="M5.63558 -5.45926Q6.61892 -5.24902 7.17163 -4.58442Q7.72434 -3.91981 7.72434 -2.94325Q7.72434 -1.4445 6.69352 -0.623915Q5.66271 0.196669 3.76383 0.196669Q3.12636 0.196669 2.45158 0.0712077Q1.7768 -0.0542535 1.05794 -0.305176L1.05794 -1.6276Q1.6276 -1.2953 2.30577 -1.12576Q2.98394 -0.956217 3.72314 -0.956217Q5.01166 -0.956217 5.68644 -1.46484Q6.36122 -1.97347 6.36122 -2.94325Q6.36122 -3.83843 5.73391 -4.34367Q5.10661 -4.8489 3.98763 -4.8489L2.80762 -4.8489L2.80762 -5.97466L4.04188 -5.97466Q5.05235 -5.97466 5.58811 -6.37817Q6.12386 -6.78168 6.12386 -7.54123Q6.12386 -8.32113 5.57115 -8.7382Q5.01845 -9.15527 3.98763 -9.15527Q3.42475 -9.15527 2.78049 -9.0332Q2.13623 -8.91113 1.36312 -8.65343L1.36312 -9.87413Q2.14301 -10.0911 2.82457 -10.1997Q3.50613 -10.3082 4.1097 -10.3082Q5.66949 -10.3082 6.57823 -9.59947Q7.48698 -8.89079 7.48698 -7.68365Q7.48698 -6.84272 7.00548 -6.26289Q6.52398 -5.68305 5.63558 -5.45926ZM13.2514 -9.22309Q12.1935 -9.22309 11.6611 -8.1821Q11.1287 -7.14111 11.1287 -5.05235Q11.1287 -2.97038 11.6611 -1.92939Q12.1935 -0.888401 13.2514 -0.888401Q14.3161 -0.888401 14.8485 -1.92939Q15.3809 -2.97038 15.3809 -5.05235Q15.3809 -7.14111 14.8485 -8.1821Q14.3161 -9.22309 13.2514 -9.22309ZM13.2514 -10.3082Q14.9536 -10.3082 15.8522 -8.962Q16.7508 -7.61583 16.7508 -5.05235Q16.7508 -2.49566 15.8522 -1.1495Q14.9536 0.196669 13.2514 0.196669Q11.5492 0.196669 10.6506 -1.1495Q9.75206 -2.49566 9.75206 -5.05235Q9.75206 -7.61583 10.6506 -8.962Q11.5492 -10.3082 13.2514 -10.3082Z" fill="#262626" transform="translate(90.27777777777777,309.6363636363636) translate(-17.67306900024414,0)" />
<line x1="95.13888888888889" y1="274.1818181818182" x2="100.4" y2="274.1818181818182" stroke="#262626" stroke-width="1.1111111111111112" />
<path d="M5.24902 -8.93148L1.79036 -3.52648L5.24902 -3.52648L5.24902 -8.93148ZM4.88959 -10.1251L6.61214 -10.1251L6.61214 -3.52648L8.05664 -3.52648L8.05664 -2.38715L6.61214 -2.38715L6.61214 0L5.24902 0L5.24902 -2.38715L0.678168 -2.38715L0.678168 -3.70958L4.88959 -10.1251ZM13.2514 -9.22309Q12.1935 -9.22309 11.6611 -8.1821Q11.1287 -7.14111 11.1287 -5.05235Q11.1287 -2.97038 11.6611 -1.92939Q12.1935 -0.888401 13.2514 -0.888401Q14.3161 -0.888401 14.8485 -1.92939Q15.3809 -2.97038 15.3809 -5.05235Q15.3809 -7.14111 14.8485 -8.1821Q14.3161 -9.22309 13.2514 -9.22309ZM13.2514 -10.3082Q14.9536 -10.3082 15.8522 -8.962Q16.7508 -7.61583 16.7508 -5.05235Q16.7508 -2.49566 15.8522 -1.1495Q14.9536 0.196669 13.2514 0.196669Q11.5492 0.196669 10.6506 -1.1495Q9.75206 -2.49566 9.75206 -5.05235Q9.75206 -7.61583 10.6506 -8.962Q11.5492 -10.3082 13.2514 -10.3082Z" fill="#262626" transform="translate(90.27777777777777,278.1818181818182) translate(-17.67306900024414,0)" />
<line x1="95.13888888888889" y1="242.72727272727272" x2="100.4" y2="242.72727272727272" stroke="#262626" stroke-width="1.1111111111111112" />
<path d="M1.49875 -10.1251L6.87663 -10.1251L6.87663 -8.97217L2.75336 -8.97217L2.75336 -6.49007Q3.05176 -6.5918 3.35015 -6.64266Q3.64855 -6.69352 3.94694 -6.69352Q5.64236 -6.69352 6.63249 -5.76443Q7.62261 -4.83534 7.62261 -3.24843Q7.62261 -1.61404 6.60536 -0.708686Q5.58811 0.196669 3.73671 0.196669Q3.09923 0.196669 2.43802 0.0881619C1.99721 0.0158239 1.5417 -0.092683 1.07151 -0.237359L1.07151 -1.61404Q1.68186 -1.28174 2.3329 -1.11898Q2.98394 -0.956217 3.70958 -0.956217Q4.88281 -0.956217 5.56776 -1.57335Q6.25271 -2.19048 6.25271 -3.24843Q6.25271 -4.30637 5.56776 -4.9235Q4.88281 -5.54064 3.70958 -5.54064Q3.16026 -5.54064 2.61434 -5.41857Q2.06841 -5.2965 1.49875 -5.03879L1.49875 -10.1251ZM13.2514 -9.22309Q12.1935 -9.22309 11.6611 -8.1821Q11.1287 -7.14111 11.1287 -5.05235Q11.1287 -2.97038 11.6611 -1.92939Q12.1935 -0.888401 13.2514 -0.888401Q14.3161 -0.888401 14.8485 -1.92939Q15.3809 -2.97038 15.3809 -5.05235Q15.3809 -7.14111 14.8485 -8.1821Q14.3161 -9.22309 13.2514 -9.22309ZM13.2514 -10.3082Q14.9536 -10.3082 15.8522 -8.962Q16.7508 -7.61583 16.7508 -5.05235Q16.7508 -2.49566 15.8522 -1.1495Q14.9536 0.196669 13.2514 0.196669Q11.5492 0.196669 10.6506 -1.1495Q9.75206 -2.49566 9.75206 -5.05235Q9.75206 -7.61583 10.6506 -8.962Q11.5492 -10.3082 13.2514 -10.3082Z" fill="#262626" transform="translate(90.27777777777777,246.72727272727272) translate(-17.67306900024414,0)" />
<line x1="95.13888888888889" y1="211.27272727272728" x2="100.4" y2="211.27272727272728" stroke="#262626" stroke-width="1.1111111111111112" />
<path d="M4.58442 -5.60845Q3.66211 -5.60845 3.12297 -4.97776Q2.58382 -4.34706 2.58382 -3.24843Q2.58382 -2.15658 3.12297 -1.52249Q3.66211 -0.888401 4.58442 -0.888401Q5.50673 -0.888401 6.04587 -1.52249Q6.58502 -2.15658 6.58502 -3.24843Q6.58502 -4.34706 6.04587 -4.97776Q5.50673 -5.60845 4.58442 -5.60845ZM7.30387 -9.90126L7.30387 -8.65343Q6.78847 -8.89757 6.26289 -9.02642Q5.7373 -9.15527 5.2219 -9.15527Q3.86556 -9.15527 3.15009 -8.23975Q2.43462 -7.32422 2.3329 -5.47282Q2.73302 -6.06282 3.33659 -6.37817Q3.94016 -6.69352 4.6658 -6.69352Q6.19168 -6.69352 7.07669 -5.76782Q7.9617 -4.84212 7.9617 -3.24843Q7.9617 -1.68864 7.03939 -0.745985Q6.11708 0.196669 4.58442 0.196669Q2.82796 0.196669 1.89887 -1.1495Q0.969781 -2.49566 0.969781 -5.05235Q0.969781 -7.45307 2.1091 -8.88062Q3.24843 -10.3082 5.16764 -10.3082Q5.68305 -10.3082 6.20863 -10.2064Q6.73421 -10.1047 7.30387 -9.90126ZM13.2514 -9.22309Q12.1935 -9.22309 11.6611 -8.1821Q11.1287 -7.14111 11.1287 -5.05235Q11.1287 -2.97038 11.6611 -1.92939Q12.1935 -0.888401 13.2514 -0.888401Q14.3161 -0.888401 14.8485 -1.92939Q15.3809 -2.97038 15.3809 -5.05235Q15.3809 -7.14111 14.8485 -8.1821Q14.3161 -9.22309 13.2514 -9.22309ZM13.2514 -10.3082Q14.9536 -10.3082 15.8522 -8.962Q16.7508 -7.61583 16.7508 -5.05235Q16.7508 -2.49566 15.8522 -1.1495Q14.9536 0.196669 13.2514 0.196669Q11.5492 0.196669 10.6506 -1.1495Q9.75206 -2.49566 9.75206 -5.05235Q9.75206 -7.61583 10.6506 -8.962Q11.5492 -10.3082 13.2514 -10.3082Z" fill="#262626" transform="translate(90.27777777777777,215.27272727272728) translate(-17.67306900024414,0)" />
<line x1="95.13888888888889" y1="179.8181818181818" x2="100.4" y2="179.8181818181818" stroke="#262626" stroke-width="1.1111111111111112" />
<path d="M1.13932 -10.1251L7.64974 -10.1251L7.64974 -9.54183L3.97407 0L2.54313 0L6.00179 -8.97217L1.13932 -8.97217L1.13932 -10.1251ZM13.2514 -9.22309Q12.1935 -9.22309 11.6611 -8.1821Q11.1287 -7.14111 11.1287 -5.05235Q11.1287 -2.97038 11.6611 -1.92939Q12.1935 -0.888401 13.2514 -0.888401Q14.3161 -0.888401 14.8485 -1.92939Q15.3809 -2.97038 15.3809 -5.05235Q15.3809 -7.14111 14.8485 -8.1821Q14.3161 -9.22309 13.2514 -9.22309ZM13.2514 -10.3082Q14.9536 -10.3082 15.8522 -8.962Q16.7508 -7.61583 16.7508 -5.05235Q16.7508 -2.49566 15.8522 -1.1495Q14.9536 0.196669 13.2514 0.196669Q11.5492 0.196669 10.6506 -1.1495Q9.75206 -2.49566 9.75206 -5.05235Q9.75206 -7.61583 10.6506 -8.962Q11.5492 -10.3082 13.2514 -10.3082Z" fill="#262626" transform="translate(90.27777777777777,183.8181818181818) translate(-17.67306900024414,0)" />
<line x1="95.13888888888889" y1="148.36363636363637" x2="100.4" y2="148.36363636363637" stroke="#262626" stroke-width="1.1111111111111112" />
<path d="M4.41488 -4.80821Q3.43831 -4.80821 2.87882 -4.28602Q2.31934 -3.76383 2.31934 -2.84831Q2.31934 -1.93278 2.87882 -1.41059Q3.43831 -0.888401 4.41488 -0.888401Q5.39144 -0.888401 5.95432 -1.41398Q6.5172 -1.93956 6.5172 -2.84831Q6.5172 -3.76383 5.95771 -4.28602Q5.39822 -4.80821 4.41488 -4.80821ZM3.04498 -5.39144Q2.16336 -5.60845 1.67169 -6.21202Q1.18001 -6.81559 1.18001 -7.68365Q1.18001 -8.89757 2.04468 -9.60287Q2.90934 -10.3082 4.41488 -10.3082Q5.92719 -10.3082 6.78847 -9.60287Q7.64974 -8.89757 7.64974 -7.68365Q7.64974 -6.81559 7.15807 -6.21202Q6.6664 -5.60845 5.79156 -5.39144Q6.78168 -5.16086 7.33439 -4.48947Q7.8871 -3.81809 7.8871 -2.84831Q7.8871 -1.37668 6.98853 -0.590007Q6.08995 0.196669 4.41488 0.196669Q2.7398 0.196669 1.84123 -0.590007Q0.942654 -1.37668 0.942654 -2.84831Q0.942654 -3.81809 1.49875 -4.48947Q2.05485 -5.16086 3.04498 -5.39144ZM2.54313 -7.5548Q2.54313 -6.76812 3.0348 -6.32731Q3.52648 -5.8865 4.41488 -5.8865Q5.29649 -5.8865 5.79495 -6.32731Q6.2934 -6.76812 6.2934 -7.5548Q6.2934 -8.34147 5.79495 -8.78228Q5.2965 -9.22309 4.41488 -9.22309Q3.52648 -9.22309 3.0348 -8.78228Q2.54313 -8.34147 2.54313 -7.5548ZM13.2514 -9.22309Q12.1935 -9.22309 11.6611 -8.1821Q11.1287 -7.14111 11.1287 -5.05235Q11.1287 -2.97038 11.6611 -1.92939Q12.1935 -0.888401 13.2514 -0.888401Q14.3161 -0.888401 14.8485 -1.92939Q15.3809 -2.97038 15.3809 -5.05235Q15.3809 -7.14111 14.8485 -8.1821Q14.3161 -9.22309 13.2514 -9.22309ZM13.2514 -10.3082Q14.9536 -10.3082 15.8522 -8.962Q16.7508 -7.61583 16.7508 -5.05235Q16.7508 -2.49566 15.8522 -1.1495Q14.9536 0.196669 13.2514 0.196669Q11.5492 0.196669 10.6506 -1.1495Q9.75206 -2.49566 9.75206 -5.05235Q9.75206 -7.61583 10.6506 -8.962Q11.5492 -10.3082 13.2514 -10.3082Z" fill="#262626" transform="translate(90.27777777777777,152.36363636363637) translate(-17.67306900024414,0)" />
<line x1="95.13888888888889" y1="116.90909090909088" x2="100.4" y2="116.90909090909088" stroke="#262626" stroke-width="1.1111111111111112" />
<path d="M1.52588 -0.210232L1.52588 -1.45806Q2.04129 -1.21392 2.57026 -1.08507Q3.09923 -0.956217 3.60786 -0.956217Q4.96419 -0.956217 5.67966 -1.86835Q6.39513 -2.78049 6.49685 -4.63867Q6.10352 -4.05545 5.49995 -3.74349Q4.89638 -3.43153 4.16395 -3.43153Q2.64486 -3.43153 1.75985 -4.35045Q0.874837 -5.26937 0.874837 -6.86306Q0.874837 -8.42285 1.79715 -9.36551Q2.71946 -10.3082 4.25212 -10.3082Q6.00857 -10.3082 6.93427 -8.962Q7.85997 -7.61583 7.85997 -5.05235Q7.85997 -2.65842 6.72404 -1.23088Q5.58811 0.196669 3.66889 0.196669Q3.15348 0.196669 2.62451 0.0949436Q2.09554 -0.00678168 1.52588 -0.210232ZM4.25212 -4.50304Q5.17442 -4.50304 5.71357 -5.13374Q6.25271 -5.76443 6.25271 -6.86306Q6.25271 -7.95491 5.71357 -8.589Q5.17443 -9.22309 4.25212 -9.22309Q3.32981 -9.22309 2.79066 -8.589Q2.25152 -7.95492 2.25152 -6.86306Q2.25152 -5.76443 2.79066 -5.13374Q3.32981 -4.50304 4.25212 -4.50304ZM13.2514 -9.22309Q12.1935 -9.22309 11.6611 -8.1821Q11.1287 -7.14111 11.1287 -5.05235Q11.1287 -2.97038 11.6611 -1.92939Q12.1935 -0.888401 13.2514 -0.888401Q14.3161 -0.888401 14.8485 -1.92939Q15.3809 -2.97038 15.3809 -5.05235Q15.3809 -7.14111 14.8485 -8.1821Q14.3161 -9.22309 13.2514 -9.22309ZM13.2514 -10.3082Q14.9536 -10.3082 15.8522 -8.962Q16.7508 -7.61583 16.7508 -5.05235Q16.7508 -2.49566 15.8522 -1.1495Q14.9536 0.196669 13.2514 0.196669Q11.5492 0.196669 10.6506 -1.1495Q9.75206 -2.49566 9.75206 -5.05235Q9.75206 -7.61583 10.6506 -8.962Q11.5492 -10.3082 13.2514 -10.3082Z" fill="#262626" transform="translate(90.27777777777777,120.90909090909088) translate(-17.67306900024414,0)" />
<line x1="95.13888888888889" y1="85.45454545454544" x2="100.4" y2="85.45454545454544" stroke="#262626" stroke-width="1.1111111111111112" />
<path d="M1.72255 -1.15289L3.9605 -1.15289L3.9605 -8.87722L1.52588 -8.38894L1.52588 -9.63677L3.94694 -10.1251L5.31684 -10.1251L5.31684 -1.15289L7.5548 -1.15289L7.5548 0L1.72255 0L1.72255 -1.15289ZM13.2514 -9.22309Q12.1935 -9.22309 11.6611 -8.1821Q11.1287 -7.14111 11.1287 -5.05235Q11.1287 -2.97038 11.6611 -1.92939Q12.1935 -0.888401 13.2514 -0.888401Q14.3161 -0.888401 14.8485 -1.92939Q15.3809 -2.97038 15.3809 -5.05235Q15.3809 -7.14111 14.8485 -8.1821Q14.3161 -9.22309 13.2514 -9.22309ZM13.2514 -10.3082Q14.9536 -10.3082 15.8522 -8.962Q16.7508 -7.61583 16.7508 -5.05235Q16.7508 -2.49566 15.8522 -1.1495Q14.9536 0.196669 13.2514 0.196669Q11.5492 0.196669 10.6506 -1.1495Q9.75206 -2.49566 9.75206 -5.05235Q9.75206 -7.61583 10.6506 -8.962Q11.5492 -10.3082 13.2514 -10.3082ZM22.0879 -9.22309Q21.03 -9.22309 20.4976 -8.1821Q19.9653 -7.14111 19.9653 -5.05235Q19.9653 -2.97038 20.4976 -1.92939Q21.03 -0.888401 22.0879 -0.888401Q23.1527 -0.888401 23.685 -1.92939Q24.2174 -2.97038 24.2174 -5.05235Q24.2174 -7.14111 23.685 -8.1821Q23.1527 -9.22309 22.0879 -9.22309ZM22.0879 -10.3082Q23.7901 -10.3082 24.6887 -8.962Q25.5873 -7.61583 25.5873 -5.05235Q25.5873 -2.49566 24.6887 -1.1495Q23.7901 0.196669 22.0879 0.196669Q20.3857 0.196669 19.4872 -1.1495Q18.5886 -2.49566 18.5886 -5.05235Q18.5886 -7.61583 19.4872 -8.962Q20.3857 -10.3082 22.0879 -10.3082Z" fill="#262626" transform="translate(90.27777777777777,89.45454545454544) translate(-26.50960350036621,0)" />
<line x1="95.13888888888889" y1="54" x2="100.4" y2="54" stroke="#262626" stroke-width="1.1111111111111112" />
<path d="M1.72255 -1.15289L3.9605 -1.15289L3.9605 -8.87722L1.52588 -8.38894L1.52588 -9.63677L3.94694 -10.1251L5.31684 -10.1251L5.31684 -1.15289L7.5548 -1.15289L7.5548 0L1.72255 0L1.72255 -1.15289ZM10.5591 -1.15289L12.797 -1.15289L12.797 -8.87722L10.3624 -8.38894L10.3624 -9.63677L12.7835 -10.1251L14.1534 -10.1251L14.1534 -1.15289L16.3913 -1.15289L16.3913 0L10.5591 0L10.5591 -1.15289ZM22.0879 -9.22309Q21.03 -9.22309 20.4976 -8.1821Q19.9653 -7.14111 19.9653 -5.05235Q19.9653 -2.97038 20.4976 -1.92939Q21.03 -0.888401 22.0879 -0.888401Q23.1527 -0.888401 23.685 -1.92939Q24.2174 -2.97038 24.2174 -5.05235Q24.2174 -7.14111 23.685 -8.1821Q23.1527 -9.22309 22.0879 -9.22309ZM22.0879 -10.3082Q23.7901 -10.3082 24.6887 -8.962Q25.5873 -7.61583 25.5873 -5.05235Q25.5873 -2.49566 24.6887 -1.1495Q23.7901 0.196669 22.0879 0.196669Q20.3857 0.196669 19.4872 -1.1495Q18.5886 -2.49566 18.5886 -5.05235Q18.5886 -7.61583 19.4872 -8.962Q20.3857 -10.3082 22.0879 -10.3082Z" fill="#262626" transform="translate(90.27777777777777,58) translate(-26.50960350036621,0)" />
<line x1="100" y1="400" x2="100" y2="140.5" stroke="#5B9BD5" stroke-width="1" />
<circle cx="100" cy="140.5" r="4" fill="#1F77B4" />
<line x1="224" y1="400" x2="224" y2="188.3109090909091" stroke="#5B9BD5" stroke-width="1" />
<circle cx="224" cy="188.3109090909091" r="4" fill="#1F77B4" />
<line x1="348" y1="400" x2="348" y2="113.4490909090909" stroke="#5B9BD5" stroke-width="1" />
<circle cx="348" cy="113.4490909090909" r="4" fill="#1F77B4" />
<line x1="472" y1="400" x2="472" y2="227.6290909090909" stroke="#5B9BD5" stroke-width="1" />
<circle cx="472" cy="227.6290909090909" r="4" fill="#1F77B4" />
<line x1="596" y1="400" x2="596" y2="159.6872727272727" stroke="#5B9BD5" stroke-width="1" />
<circle cx="596" cy="159.6872727272727" r="4" fill="#1F77B4" />
<line x1="720" y1="400" x2="720" y2="122.57090909090908" stroke="#5B9BD5" stroke-width="1" />
<circle cx="720" cy="122.57090909090908" r="4" fill="#1F77B4" />
<line x1="100" y1="400" x2="720" y2="400" stroke="#808080" stroke-width="1" />
<circle cx="100" cy="140.5" r="2.9319501705866333" fill="#5B9BD5" />
<circle cx="224" cy="188.3109090909091" r="2.9319501705866333" fill="#5B9BD5" />
<circle cx="348" cy="113.44909090909093" r="2.9319501705866333" fill="#5B9BD5" />
<circle cx="472" cy="227.6290909090909" r="2.9319501705866333" fill="#5B9BD5" />
<circle cx="596" cy="159.6872727272727" r="2.9319501705866333" fill="#5B9BD5" />
<circle cx="720" cy="122.57090909090908" r="2.9319501705866333" fill="#5B9BD5" />
<g class="spine">
<line x1="100" y1="400" x2="720" y2="400" stroke="#262626" stroke-width="0.8" />
</g>
<g class="spine">
<line x1="100" y1="54" x2="720" y2="54" stroke="#262626" stroke-width="0.8" />
</g>
<g class="spine">
<line x1="100" y1="54" x2="100" y2="400" stroke="#262626" stroke-width="0.8" />
</g>
<g class="spine">
<line x1="720" y1="54" x2="720" y2="400" stroke="#262626" stroke-width="0.8" />
</g>
<path d="M7.43273 -9.79275L7.43273 -8.45676Q6.65283 -8.82975 5.9611 -9.01286Q5.26937 -9.19596 4.62511 -9.19596Q3.50613 -9.19596 2.89917 -8.76194Q2.29221 -8.32791 2.29221 -7.52767Q2.29221 -6.85628 2.69572 -6.51381Q3.09923 -6.17133 4.22499 -5.9611L5.05235 -5.79156Q6.58501 -5.49995 7.31405 -4.76413Q8.04308 -4.02832 8.04308 -2.79405Q8.04308 -1.32243 7.05634 -0.56288Q6.06961 0.196669 4.16395 0.196669Q3.4451 0.196669 2.63468 0.0339084Q1.82427 -0.128852 0.956217 -0.447591L0.956217 -1.85818Q1.79036 -1.39025 2.5906 -1.15289Q3.39084 -0.915527 4.16395 -0.915527Q5.33719 -0.915527 5.97466 -1.37668Q6.61214 -1.83784 6.61214 -2.69233Q6.61214 -3.43831 6.15438 -3.85878Q5.69661 -4.27924 4.65224 -4.48947L3.81809 -4.65224Q2.28543 -4.95741 1.60048 -5.60845Q0.915527 -6.25949 0.915527 -7.41916Q0.915527 -8.76194 1.86157 -9.53505Q2.80762 -10.3082 4.46913 -10.3082Q5.18121 -10.3082 5.92041 -10.1793Q6.65961 -10.0505 7.43273 -9.79275ZM15.5911 -7.30387L15.5911 -6.13742Q15.0621 -6.42904 14.5298 -6.57484Q13.9974 -6.72065 13.4549 -6.72065Q12.2409 -6.72065 11.5696 -5.95093Q10.8982 -5.18121 10.8982 -3.79096Q10.8982 -2.40072 11.5696 -1.631Q12.2409 -0.861274 13.4549 -0.861274Q13.9974 -0.861274 14.5298 -1.00708Q15.0621 -1.15289 15.5911 -1.4445L15.5911 -0.291612Q15.0689 -0.0474718 14.5094 0.0745985Q13.9499 0.196669 13.3192 0.196669Q11.6035 0.196669 10.593 -0.881619Q9.58252 -1.95991 9.58252 -3.79096Q9.58252 -5.64914 10.6032 -6.71387Q11.6238 -7.77859 13.4006 -7.77859Q13.9771 -7.77859 14.5264 -7.65991Q15.0757 -7.54123 15.5911 -7.30387ZM20.7045 -6.72065Q19.7008 -6.72065 19.1176 -5.93736Q18.5343 -5.15408 18.5343 -3.79096Q18.5343 -2.42784 19.1142 -1.64456Q19.694 -0.861274 20.7045 -0.861274Q21.7014 -0.861274 22.2846 -1.64795Q22.8678 -2.43462 22.8678 -3.79096Q22.8678 -5.14052 22.2846 -5.93058Q21.7014 -6.72065 20.7045 -6.72065ZM20.7045 -7.77859Q22.3321 -7.77859 23.2612 -6.72065Q24.1903 -5.66271 24.1903 -3.79096Q24.1903 -1.926 23.2612 -0.864665Q22.3321 0.196669 20.7045 0.196669Q19.0701 0.196669 18.1444 -0.864665Q17.2187 -1.926 17.2187 -3.79096Q17.2187 -5.66271 18.1444 -6.72065Q19.0701 -7.77859 20.7045 -7.77859ZM30.66 -6.42904Q30.4498 -6.55111 30.2022 -6.60875Q29.9547 -6.6664 29.6563 -6.6664Q28.5984 -6.6664 28.0321 -5.97805Q27.4658 -5.28971 27.4658 -4.00119L27.4658 0L26.2112 0L26.2112 -7.59549L27.4658 -7.59549L27.4658 -6.41547Q27.8592 -7.1072 28.4899 -7.4429Q29.1206 -7.77859 30.0225 -7.77859Q30.1514 -7.77859 30.3073 -7.76164Q30.4633 -7.74468 30.6532 -7.71077L30.66 -6.42904ZM38.4657 -4.1097L38.4657 -3.49935L32.7284 -3.49935Q32.8098 -2.21083 33.5049 -1.53605Q34.2 -0.861274 35.4411 -0.861274Q36.1599 -0.861274 36.8347 -1.0376Q37.5095 -1.21392 38.1741 -1.56657L38.1741 -0.386556Q37.5027 -0.101725 36.7974 0.0474718Q36.0921 0.196669 35.3665 0.196669Q33.549 0.196669 32.4877 -0.861274Q31.4263 -1.91922 31.4263 -3.72314Q31.4263 -5.58811 32.4334 -6.68335Q33.4405 -7.77859 35.1495 -7.77859Q36.6821 -7.77859 37.5739 -6.79186Q38.4657 -5.80512 38.4657 -4.1097ZM37.2179 -4.47591Q37.2043 -5.49995 36.6448 -6.1103Q36.0853 -6.72065 35.163 -6.72065Q34.1187 -6.72065 33.4913 -6.13064Q32.864 -5.54064 32.7691 -4.46913L37.2179 -4.47591Z" fill="#262626" transform="translate(51.76817427741157,227) rotate(-90) translate(-19.602458953857422,0)" />
</svg>
