<svg xmlns="http://www.w3.org/2000/svg" viewBox="0 0 800 600" width="800" height="600" role="img" aria-labelledby="chart-title">
<title id="chart-title"></title>
<rect x="0" y="0" width="800" height="600" fill="#FFFFFF" />
<rect x="100" y="72" width="620" height="462" fill="#FFFFFF" />
<line x1="128.1818181818182" y1="533.6" x2="128.1818181818182" y2="538.8611111111111" stroke="#262626" stroke-width="1.1111111111111112" />
<text x="128.1818181818182" y="557.6111111111111" font-family="DejaVu Sans, sans-serif" font-size="13.88888888888889" text-anchor="middle" fill="#262626">0</text>
<line x1="184.55109147278364" y1="533.6" x2="184.55109147278364" y2="538.8611111111111" stroke="#262626" stroke-width="1.1111111111111112" />
<text x="184.55109147278364" y="557.6111111111111" font-family="DejaVu Sans, sans-serif" font-size="13.88888888888889" text-anchor="middle" fill="#262626">1000</text>
<line x1="240.9203647637491" y1="533.6" x2="240.9203647637491" y2="538.8611111111111" stroke="#262626" stroke-width="1.1111111111111112" />
<text x="240.9203647637491" y="557.6111111111111" font-family="DejaVu Sans, sans-serif" font-size="13.88888888888889" text-anchor="middle" fill="#262626">2000</text>
<line x1="297.28963805471454" y1="533.6" x2="297.28963805471454" y2="538.8611111111111" stroke="#262626" stroke-width="1.1111111111111112" />
<text x="297.28963805471454" y="557.6111111111111" font-family="DejaVu Sans, sans-serif" font-size="13.88888888888889" text-anchor="middle" fill="#262626">3000</text>
<line x1="353.65891134568" y1="533.6" x2="353.65891134568" y2="538.8611111111111" stroke="#262626" stroke-width="1.1111111111111112" />
<text x="353.65891134568" y="557.6111111111111" font-family="DejaVu Sans, sans-serif" font-size="13.88888888888889" text-anchor="middle" fill="#262626">4000</text>
<line x1="410.02818463664545" y1="533.6" x2="410.02818463664545" y2="538.8611111111111" stroke="#262626" stroke-width="1.1111111111111112" />
<text x="410.02818463664545" y="557.6111111111111" font-family="DejaVu Sans, sans-serif" font-size="13.88888888888889" text-anchor="middle" fill="#262626">5000</text>
<line x1="466.3974579276109" y1="533.6" x2="466.3974579276109" y2="538.8611111111111" stroke="#262626" stroke-width="1.1111111111111112" />
<text x="466.3974579276109" y="557.6111111111111" font-family="DejaVu Sans, sans-serif" font-size="13.88888888888889" text-anchor="middle" fill="#262626">6000</text>
<line x1="522.7667312185763" y1="533.6" x2="522.7667312185763" y2="538.8611111111111" stroke="#262626" stroke-width="1.1111111111111112" />
<text x="522.7667312185763" y="557.6111111111111" font-family="DejaVu Sans, sans-serif" font-size="13.88888888888889" text-anchor="middle" fill="#262626">7000</text>
<line x1="579.1360045095419" y1="533.6" x2="579.1360045095419" y2="538.8611111111111" stroke="#262626" stroke-width="1.1111111111111112" />
<text x="579.1360045095419" y="557.6111111111111" font-family="DejaVu Sans, sans-serif" font-size="13.88888888888889" text-anchor="middle" fill="#262626">8000</text>
<line x1="635.5052778005072" y1="533.6" x2="635.5052778005072" y2="538.8611111111111" stroke="#262626" stroke-width="1.1111111111111112" />
<text x="635.5052778005072" y="557.6111111111111" font-family="DejaVu Sans, sans-serif" font-size="13.88888888888889" text-anchor="middle" fill="#262626">9000</text>
<line x1="691.8745510914728" y1="533.6" x2="691.8745510914728" y2="538.8611111111111" stroke="#262626" stroke-width="1.1111111111111112" />
<text x="691.8745510914728" y="557.6111111111111" font-family="DejaVu Sans, sans-serif" font-size="13.88888888888889" text-anchor="middle" fill="#262626">10000</text>
<line x1="105.63410886543201" y1="533.6" x2="105.63410886543201" y2="538.8611111111111" stroke="#262626" stroke-width="1.1111111111111112" />
<line x1="116.9079635236251" y1="533.6" x2="116.9079635236251" y2="538.8611111111111" stroke="#262626" stroke-width="1.1111111111111112" />
<line x1="139.4556728400113" y1="533.6" x2="139.4556728400113" y2="538.8611111111111" stroke="#262626" stroke-width="1.1111111111111112" />
<line x1="150.72952749820436" y1="533.6" x2="150.72952749820436" y2="538.8611111111111" stroke="#262626" stroke-width="1.1111111111111112" />
<line x1="162.00338215639746" y1="533.6" x2="162.00338215639746" y2="538.8611111111111" stroke="#262626" stroke-width="1.1111111111111112" />
<line x1="173.27723681459054" y1="533.6" x2="173.27723681459054" y2="538.8611111111111" stroke="#262626" stroke-width="1.1111111111111112" />
<line x1="195.82494613097674" y1="533.6" x2="195.82494613097674" y2="538.8611111111111" stroke="#262626" stroke-width="1.1111111111111112" />
<line x1="207.09880078916981" y1="533.6" x2="207.09880078916981" y2="538.8611111111111" stroke="#262626" stroke-width="1.1111111111111112" />
<line x1="218.3726554473629" y1="533.6" x2="218.3726554473629" y2="538.8611111111111" stroke="#262626" stroke-width="1.1111111111111112" />
<line x1="229.646510105556" y1="533.6" x2="229.646510105556" y2="538.8611111111111" stroke="#262626" stroke-width="1.1111111111111112" />
<line x1="252.1942194219422" y1="533.6" x2="252.1942194219422" y2="538.8611111111111" stroke="#262626" stroke-width="1.1111111111111112" />
<line x1="263.46807408013524" y1="533.6" x2="263.46807408013524" y2="538.8611111111111" stroke="#262626" stroke-width="1.1111111111111112" />
<line x1="274.7419287383284" y1="533.6" x2="274.7419287383284" y2="538.8611111111111" stroke="#262626" stroke-width="1.1111111111111112" />
<line x1="286.01578339652144" y1="533.6" x2="286.01578339652144" y2="538.8611111111111" stroke="#262626" stroke-width="1.1111111111111112" />
<line x1="308.56349271290765" y1="533.6" x2="308.56349271290765" y2="538.8611111111111" stroke="#262626" stroke-width="1.1111111111111112" />
<line x1="319.8373473711007" y1="533.6" x2="319.8373473711007" y2="538.8611111111111" stroke="#262626" stroke-width="1.1111111111111112" />
<line x1="331.11120202929385" y1="533.6" x2="331.11120202929385" y2="538.8611111111111" stroke="#262626" stroke-width="1.1111111111111112" />
<line x1="342.3850566874869" y1="533.6" x2="342.3850566874869" y2="538.8611111111111" stroke="#262626" stroke-width="1.1111111111111112" />
<line x1="364.9327660038731" y1="533.6" x2="364.9327660038731" y2="538.8611111111111" stroke="#262626" stroke-width="1.1111111111111112" />
<line x1="376.20662066206614" y1="533.6" x2="376.20662066206614" y2="538.8611111111111" stroke="#262626" stroke-width="1.1111111111111112" />
<line x1="387.48047532025925" y1="533.6" x2="387.48047532025925" y2="538.8611111111111" stroke="#262626" stroke-width="1.1111111111111112" />
<line x1="398.75432997845235" y1="533.6" x2="398.75432997845235" y2="538.8611111111111" stroke="#262626" stroke-width="1.1111111111111112" />
<line x1="421.30203929483855" y1="533.6" x2="421.30203929483855" y2="538.8611111111111" stroke="#262626" stroke-width="1.1111111111111112" />
<line x1="432.5758939530316" y1="533.6" x2="432.5758939530316" y2="538.8611111111111" stroke="#262626" stroke-width="1.1111111111111112" />
<line x1="443.8497486112247" y1="533.6" x2="443.8497486112247" y2="538.8611111111111" stroke="#262626" stroke-width="1.1111111111111112" />
<line x1="455.1236032694178" y1="533.6" x2="455.1236032694178" y2="538.8611111111111" stroke="#262626" stroke-width="1.1111111111111112" />
<line x1="477.671312585804" y1="533.6" x2="477.671312585804" y2="538.8611111111111" stroke="#262626" stroke-width="1.1111111111111112" />
<line x1="488.94516724399705" y1="533.6" x2="488.94516724399705" y2="538.8611111111111" stroke="#262626" stroke-width="1.1111111111111112" />
<line x1="500.21902190219015" y1="533.6" x2="500.21902190219015" y2="538.8611111111111" stroke="#262626" stroke-width="1.1111111111111112" />
<line x1="511.49287656038325" y1="533.6" x2="511.49287656038325" y2="538.8611111111111" stroke="#262626" stroke-width="1.1111111111111112" />
<line x1="534.0405858767695" y1="533.6" x2="534.0405858767695" y2="538.8611111111111" stroke="#262626" stroke-width="1.1111111111111112" />
<line x1="545.3144405349625" y1="533.6" x2="545.3144405349625" y2="538.8611111111111" stroke="#262626" stroke-width="1.1111111111111112" />
<line x1="556.5882951931555" y1="533.6" x2="556.5882951931555" y2="538.8611111111111" stroke="#262626" stroke-width="1.1111111111111112" />
<line x1="567.8621498513487" y1="533.6" x2="567.8621498513487" y2="538.8611111111111" stroke="#262626" stroke-width="1.1111111111111112" />
<line x1="590.4098591677349" y1="533.6" x2="590.4098591677349" y2="538.8611111111111" stroke="#262626" stroke-width="1.1111111111111112" />
<line x1="601.683713825928" y1="533.6" x2="601.683713825928" y2="538.8611111111111" stroke="#262626" stroke-width="1.1111111111111112" />
<line x1="612.9575684841211" y1="533.6" x2="612.9575684841211" y2="538.8611111111111" stroke="#262626" stroke-width="1.1111111111111112" />
<line x1="624.2314231423142" y1="533.6" x2="624.2314231423142" y2="538.8611111111111" stroke="#262626" stroke-width="1.1111111111111112" />
<line x1="646.7791324587004" y1="533.6" x2="646.7791324587004" y2="538.8611111111111" stroke="#262626" stroke-width="1.1111111111111112" />
<line x1="658.0529871168935" y1="533.6" x2="658.0529871168935" y2="538.8611111111111" stroke="#262626" stroke-width="1.1111111111111112" />
<line x1="669.3268417750865" y1="533.6" x2="669.3268417750865" y2="538.8611111111111" stroke="#262626" stroke-width="1.1111111111111112" />
<line x1="680.6006964332796" y1="533.6" x2="680.6006964332796" y2="538.8611111111111" stroke="#262626" stroke-width="1.1111111111111112" />
<line x1="703.1484057496657" y1="533.6" x2="703.1484057496657" y2="538.8611111111111" stroke="#262626" stroke-width="1.1111111111111112" />
<line x1="714.4222604078589" y1="533.6" x2="714.4222604078589" y2="538.8611111111111" stroke="#262626" stroke-width="1.1111111111111112" />
<line x1="95.13888888888889" y1="514.9607602247227" x2="100.4" y2="514.9607602247227" stroke="#262626" stroke-width="1.1111111111111112" />
<text x="90.27777777777777" y="518.9607602247227" font-family="DejaVu Sans, sans-serif" font-size="13.88888888888889" text-anchor="end" fill="#262626">-1</text>
<line x1="95.13888888888889" y1="444.6339668539356" x2="100.4" y2="444.6339668539356" stroke="#262626" stroke-width="1.1111111111111112" />
<text x="90.27777777777777" y="448.6339668539356" font-family="DejaVu Sans, sans-serif" font-size="13.88888888888889" text-anchor="end" fill="#262626">0</text>
<line x1="95.13888888888889" y1="374.30717348314846" x2="100.4" y2="374.30717348314846" stroke="#262626" stroke-width="1.1111111111111112" />
<text x="90.27777777777777" y="378.30717348314846" font-family="DejaVu Sans, sans-serif" font-size="13.88888888888889" text-anchor="end" fill="#262626">1</text>
<line x1="95.13888888888889" y1="303.98038011236133" x2="100.4" y2="303.98038011236133" stroke="#262626" stroke-width="1.1111111111111112" />
<text x="90.27777777777777" y="307.98038011236133" font-family="DejaVu Sans, sans-serif" font-size="13.88888888888889" text-anchor="end" fill="#262626">2</text>
<line x1="95.13888888888889" y1="233.65358674157426" x2="100.4" y2="233.65358674157426" stroke="#262626" stroke-width="1.1111111111111112" />
<text x="90.27777777777777" y="237.65358674157426" font-family="DejaVu Sans, sans-serif" font-size="13.88888888888889" text-anchor="end" fill="#262626">3</text>
<line x1="95.13888888888889" y1="163.32679337078713" x2="100.4" y2="163.32679337078713" stroke="#262626" stroke-width="1.1111111111111112" />
<text x="90.27777777777777" y="167.32679337078713" font-family="DejaVu Sans, sans-serif" font-size="13.88888888888889" text-anchor="end" fill="#262626">4</text>
<line x1="95.13888888888889" y1="93" x2="100.4" y2="93" stroke="#262626" stroke-width="1.1111111111111112" />
<text x="90.27777777777777" y="97" font-family="DejaVu Sans, sans-serif" font-size="13.88888888888889" text-anchor="end" fill="#262626">5</text>
<line x1="95.13888888888889" y1="529.0261188988801" x2="100.4" y2="529.0261188988801" stroke="#262626" stroke-width="1.1111111111111112" />
<line x1="95.13888888888889" y1="500.8954015505653" x2="100.4" y2="500.8954015505653" stroke="#262626" stroke-width="1.1111111111111112" />
<line x1="95.13888888888889" y1="486.83004287640784" x2="100.4" y2="486.83004287640784" stroke="#262626" stroke-width="1.1111111111111112" />
<line x1="95.13888888888889" y1="472.76468420225046" x2="100.4" y2="472.76468420225046" stroke="#262626" stroke-width="1.1111111111111112" />
<line x1="95.13888888888889" y1="458.699325528093" x2="100.4" y2="458.699325528093" stroke="#262626" stroke-width="1.1111111111111112" />
<line x1="95.13888888888889" y1="430.56860817977815" x2="100.4" y2="430.56860817977815" stroke="#262626" stroke-width="1.1111111111111112" />
<line x1="95.13888888888889" y1="416.5032495056207" x2="100.4" y2="416.5032495056207" stroke="#262626" stroke-width="1.1111111111111112" />
<line x1="95.13888888888889" y1="402.43789083146333" x2="100.4" y2="402.43789083146333" stroke="#262626" stroke-width="1.1111111111111112" />
<line x1="95.13888888888889" y1="388.3725321573059" x2="100.4" y2="388.3725321573059" stroke="#262626" stroke-width="1.1111111111111112" />
<line x1="95.13888888888889" y1="360.2418148089911" x2="100.4" y2="360.2418148089911" stroke="#262626" stroke-width="1.1111111111111112" />
<line x1="95.13888888888889" y1="346.17645613483364" x2="100.4" y2="346.17645613483364" stroke="#262626" stroke-width="1.1111111111111112" />
<line x1="95.13888888888889" y1="332.1110974606762" x2="100.4" y2="332.1110974606762" stroke="#262626" stroke-width="1.1111111111111112" />
<line x1="95.13888888888889" y1="318.04573878651877" x2="100.4" y2="318.04573878651877" stroke="#262626" stroke-width="1.1111111111111112" />
<line x1="95.13888888888889" y1="289.9150214382039" x2="100.4" y2="289.9150214382039" stroke="#262626" stroke-width="1.1111111111111112" />
<line x1="95.13888888888889" y1="275.8496627640465" x2="100.4" y2="275.8496627640465" stroke="#262626" stroke-width="1.1111111111111112" />
<line x1="95.13888888888889" y1="261.7843040898891" x2="100.4" y2="261.7843040898891" stroke="#262626" stroke-width="1.1111111111111112" />
<line x1="95.13888888888889" y1="247.71894541573167" x2="100.4" y2="247.71894541573167" stroke="#262626" stroke-width="1.1111111111111112" />
<line x1="95.13888888888889" y1="219.58822806741682" x2="100.4" y2="219.58822806741682" stroke="#262626" stroke-width="1.1111111111111112" />
<line x1="95.13888888888889" y1="205.5228693932594" x2="100.4" y2="205.5228693932594" stroke="#262626" stroke-width="1.1111111111111112" />
<line x1="95.13888888888889" y1="191.45751071910198" x2="100.4" y2="191.45751071910198" stroke="#262626" stroke-width="1.1111111111111112" />
<line x1="95.13888888888889" y1="177.39215204494457" x2="100.4" y2="177.39215204494457" stroke="#262626" stroke-width="1.1111111111111112" />
<line x1="95.13888888888889" y1="149.2614346966297" x2="100.4" y2="149.2614346966297" stroke="#262626" stroke-width="1.1111111111111112" />
<line x1="95.13888888888889" y1="135.19607602247225" x2="100.4" y2="135.19607602247225" stroke="#262626" stroke-width="1.1111111111111112" />
<line x1="95.13888888888889" y1="121.13071734831487" x2="100.4" y2="121.13071734831487" stroke="#262626" stroke-width="1.1111111111111112" />
<line x1="95.13888888888889" y1="107.06535867415744" x2="100.4" y2="107.06535867415744" stroke="#262626" stroke-width="1.1111111111111112" />
<line x1="95.13888888888889" y1="78.93464132584256" x2="100.4" y2="78.93464132584256" stroke="#262626" stroke-width="1.1111111111111112" />
<g class="series" aria-label="Signal">
<polyline points="128.1818181818182,93.00000000000001 128.23818745510914,441.1201464480525 129.70378856067424,376.56804479333874 130.71843547991162,390.6483217719704 132.52225222522253,489.34548863132443 133.48052987116893,513 134.3260689705334,495.006811371986 136.0171471692624,402.91431273178455 136.91905554191783,377.8650941126055 137.76459464128232,391.2710318297747 139.4556728400113,480.66518124313484 140.35758121266673,509.291526397461 141.20312031203122,500.42273844827724 142.8378292374692,417.3021926624002 143.7961068834156,382.5653223421946 144.69801525607107,388.5107003871083 145.20533871568975,407.94296635503105 146.95278618770968,496.10385288159716 147.96743310694706,505.617694127814 148.7002336597296,482.76962178551815 150.39131185845858,397.6706655951357 151.40595877769596,383.48404120409475 152.19512860376946,405.18410963039275 153.88620680249844,489.00961590803473 155.0699615416087,503.07265938688585 156.3664548273009,101.01136155148164 156.47919337388285,446.6142780577657 158.0011637527389,386.545807312371 159.01581067197628,396.9935525597638 160.8196274172872,481.60432855350484 161.7779050632336,503.3864924793686 162.62344416259808,489.23000409657845 164.31452236132705,410.25886402992063 165.2164307339825,387.42692390988896 166.06196983334698,397.6233193068462 167.75304803207592,474.04625029201196 168.6549564047314,499.8613678797899 169.55686477738683,492.0887950267842 171.13520442953387,422.79818784111495 172.09348207548027,391.7878179846379 172.9953904481357,395.49319759577764 173.55908318104537,413.86931493873703 175.25016137977434,487.8302341201211 176.26480829901172,497.5410981035819 176.99760885179427,478.8342439122009 178.68868705052324,405.41885690338034 179.70333396976062,391.7487918656162 180.49250379583412,409.3749137725704 182.1835819945631,481.59279322383617 183.42370600696432,494.62291481653034 184.55109147278364,106.66956456376478 184.77656856594749,448.03903548971095 186.29853894480357,395.1176220657372 187.31318586404095,402.6637003944675 189.1733718826428,477.10582312444933 190.1316495285892,495.1890954595042 190.9771886279537,482.4149022701081 192.61189755339169,416.3969192696471 193.5701751993381,395.33022477479193 194.4157142987026,404.70497310840994 196.0504232241406,468.54668408176207 196.95233159679603,491.7532967563997 197.85423996945147,486.2920228621016 198.36156342907017,471.2373721516155 200.05264162779915,406.51993893285436 201.12365782032748,399.0262509358352 201.80008909981908,414.99055183885577 203.547536571839,480.82417915426333 204.61855276436734,489.9329182083682 205.3513533171499,473.41484968881946 207.04243151587886,410.37105362544474 208.05707843511624,399.2791326545751 208.84624826118974,414.90998441026534 210.48095718662773,475.34837756809316 211.721081199029,488.0546379222259 212.73572811826637,110.38903720747496 213.07394375801215,449.02355965257806 214.59591413686823,402.47368294672606 215.6105610561056,407.71827544624676 217.47074707470745,471.4497252852099 218.42902472065387,488.0580753278595 219.27456382001836,478.0524897810423 220.96564201874733,419.7448092041562 221.86755039140277,402.4126757005149 222.71308949076726,409.4850831316736 224.34779841620525,463.9879364448512 225.2497067888607,484.7894366336018 226.15161516151613,481.15014514454964 226.65893862113484,468.6445183109291 228.40638609315477,411.4309420150786 229.42103301239214,405.0300724736121 230.1538335651747,419.6977644317568 231.90128103719462,476.1976355835787 232.915927956432,483.91240449461424 233.64872850921455,470.4112131453579 235.3398067079435,416.0506955393014 236.35445362718087,405.42945899291203 237.1436234532544,418.09890778597077 238.83470165198338,471.53823326417273 240.13119493767556,481.17600328894827 240.9203647637491,112.54377058442083 241.3713189500768,449.66219048674265 242.89328932893287,408.7796046060092 243.90793624817024,412.2139108466365 245.8244915400631,468.2028826132163 246.72639991271853,481.89279956254666 247.57193901208302,474.1405874824675 249.26301721081197,424.22062762188494 250.16492558346744,408.5173939282004 251.0104646828319,413.7414699741769 252.64517360826991,460.21863871308545 253.54708198092536,478.8147513129241 254.4489903535808,476.59808929358434 255.01268308649045,464.77349599423167 256.7037612852194,416.77774600718567 257.7184082044568,410.28310680159706 258.4512087572393,422.2836533697015 260.19865622925926,471.05591365019893 261.21330314849666,478.6536807047211 262.00247297457014,466.3411549119785 263.63718190000816,420.8382852814335 264.65182881924557,410.78272178482 265.44099864531904,421.0016171173429 267.132076844048,466.9683081926643 268.4849394030312,475.86128361853446 269.1050014092318,113.46487942438789 269.6686941421415,450.031812802947 271.19066452099753,414.1794249153167 272.20531144023494,416.20395173151127 274.1218667321277,464.0718783251683 275.02377510478317,476.56830008585405 275.86931420414766,470.64210143530084 277.56039240287663,427.9502471482709 278.46230077553207,413.7737048591259 279.30783987489656,417.5232170494656 280.9425488003346,457.11062993236817 281.900826446281,474.1945892288502 282.8027348189364,471.8738668391126 283.3664275518461,461.51066209255 285.0011364772841,421.3041775079415 286.0721526698124,415.21927321311466 286.804953222595,425.8198092417488 288.49603142132395,466.7105857535919 289.5106783405613,474.06626557832584 290.29984816663483,464.0513721020943 291.9909263653638,423.80973621960266 293.00557328460116,415.5782134781349 293.7947431106747,424.67490389741795 295.4294520361127,463.1297365276618 296.78231459509584,471.8091102820524 297.28963805471454,113.44027620721623 297.9660693342061,450.19482213341126 299.5444089863532,418.26609591516814 300.5590559055905,420.428739557111 302.4192419241924,460.61736247670467 303.32115029684786,471.97489995805387 304.16668939621235,467.5211227638499 305.8013983216503,432.249271851997 306.7596759675967,418.2946657409164 307.6615843402522,421.5609819314364 308.16890779987085,430.04458188345797 309.8599859985998,466.05165612210595 310.9310021911282,469.9733106655614 311.60743347061975,460.937364253044 313.3548809426397,424.28274066259445 314.3695278618771,419.1345276262019 315.1023284146596,427.7924444354639 316.7934066133886,463.04347538885924 317.808053532626,470.0694687283441 318.59722335869947,461.959650571565 320.28830155742844,427.3155508427958 321.30294847666585,419.55855639168794 322.0921183027393,426.8771014261531 323.7831965014683,460.8658484428487 325.07968978716053,468.2545551065698 325.47427470019727,112.71592220657847 326.2634445262708,450.2016158256046 327.8417841784178,422.2503296840597 328.8564310976552,423.4221085198971 330.71661711625705,457.73410894891816 331.6185254889125,468.0164815182321 332.464064588277,464.7433544530436 334.098773513715,434.6723764929577 335.0570511596614,422.178982429935 335.95895953231684,424.3994592958346 336.46628299193554,431.4518168214702 338.21373046395547,463.28667199694524 339.2283773831928,466.6459499584555 339.9611779359754,458.3417735349316 341.6522561347044,427.60424366548045 342.6669030539417,422.55347344382363 343.45607288001526,430.4476272509577 345.14715107874423,460.7302623562403 346.1617979979816,466.456201377017 346.9509678240551,459.25246147772896 348.5856767494931,430.26408758162376 349.6003236687305,423.01698394171797 350.44586276809497,429.6288820288951 352.08057169353293,458.059825853886 353.37706497922517,465.1409584514538 353.65891134568,111.49820352766805 354.56081971833544,450.0926818602383 356.13915937048245,425.65653992344437 357.15380628971985,426.07116396092545 359.0139923083217,455.33256498264524 359.91590068097713,464.6089273934975 360.81780905363263,461.73768181681595 362.39614870577964,436.66920149178475 363.35442635172603,425.51272141074105 364.2563347243815,426.913901033189 364.82002745729113,433.5834145429987 366.5111056560201,460.29150967911664 367.5257525752575,463.733386814925 368.25855312804003,456.93144699497344 369.949631326769,430.4104936713186 370.96427824600636,425.53520543307235 371.7534480720799,431.950710046371 373.44452627080886,458.04341986901716 374.4591731900462,463.4830923192564 375.24834301611975,457.66307197729947 376.88305194155777,432.73992601736876 377.8976988607951,426.0184423257572 378.7432379601596,431.29818835652605 380.4343161588886,456.4241590122777 381.6744401712898,462.4173704499732 381.8435479911627,109.95705847854258 382.8581949104001,449.90034725868196 384.43653456254714,428.565333698747 385.50755075507544,428.81255775590733 387.3113675003864,453.33660800518464 388.2132758730418,461.6787213286835 389.11518424569726,459.6511322208304 389.62250770531597,454.1887032842429 391.3135859040449,430.8193830838104 392.38460209657325,428.1737983315157 393.0610333760648,433.9759726571972 394.80848084808474,457.75481518724274 395.8794970406131,460.9856407027104 396.6122975933957,454.9809382235601 398.30337579212465,432.20825377464246 399.318022711362,428.2558438701161 400.10719253743554,433.9434881125118 401.7419014628735,455.7808751821087 402.7565483821109,460.89738912717854 403.6020874814754,455.6336282700549 405.23679640691336,434.19288430286264 406.1950740528598,428.6203405928614 407.0406131522243,432.80631974598106 408.7316913509532,454.37372511380835 409.9718153633545,460.03810892893216 410.02818463664545,108.22955350530984 411.15557010246476,449.65023882338426 412.7339097546118,431.0465358925766 413.80492594714013,430.7973056521266 415.608742692451,451.6816109452824 416.51065106510646,459.1616959107579 417.4125594377619,457.79985482976707 417.9198828973806,453.2610498496456 419.66733036940053,432.60069025718207 420.68197728863794,430.33859388049416 421.41477784142046,435.6700373700966 423.10585604014943,455.60927674599645 424.1205029593868,458.9646580039958 424.9096727854603,453.9041790654291 426.6007509841893,434.26548446806555 427.61539790342664,430.4748984022451 428.4045677295002,435.0875436174306 430.09564592822915,454.39665605811757 431.05392357417554,458.6512642549433 431.89946267354003,454.42706477102524 433.53417159897805,436.00244360132194 434.49244924492444,430.87333576062446 435.33798834428893,434.16432397603467 437.08543581630886,453.1929103693519 438.2128212821282,106.42366789772466 438.26919055541913,457.96232447902923 439.39657602123845,449.98576454267027 441.03128494667646,433.1605641264157 442.10230113920477,432.54909391293637 442.83510169198735,438.29588680044816 444.5261798907163,455.61122566183377 445.54082680995367,456.93338755567487 446.21725808944524,452.39806894056346 447.96470556146517,434.5363680944548 448.9793524807026,432.23299385221725 449.7121530334851,436.5968741478968 451.40323123221407,453.79708203351265 452.4178781514515,457.02668825791375 453.20704797752495,452.91770657157156 454.8981261762539,435.9999168656928 455.91277309549133,432.40665627664555 456.7019429215648,436.12946427729827 458.3930211202938,452.740680126699 459.35129876624023,456.7023780553696 460.19683786560466,453.3338435513222 461.88791606433364,437.051850533082 462.8461937102801,432.7927371733198 463.6917328096446,435.76357572305443 465.3828110083735,451.6951947633502 466.3974579276109,104.62210240969618 466.56656574748376,456.1535797185637 467.6939512133031,449.5816560171246 469.38502941203205,434.66908756203225 470.39967633126946,434.09265211538514 471.132476884052,438.8595854564492 472.82355508278096,453.87221574010846 473.8945712753093,455.14707437083075 474.5710025548009,451.15590094527454 476.26208075352986,436.17531536275305 477.33309694605816,434.0157721288541 478.06589749884074,437.86964850139265 479.7569756975697,452.64061221097575 480.77162261680706,455.2625787132241 481.5607924428806,451.61803667382424 483.25187064160957,437.0791348024594 484.2665175608469,434.1395546475699 485.05568738692045,437.4523996140909 486.6903963123585,451.3494428499697 487.7050432315958,455.0084688354951 488.5505823309603,451.99118772310277 490.18529125639833,438.37392128802605 491.1435689023447,434.4638730938643 491.9891080017092,436.7889698952058 493.6801862004382,450.4424584171467 494.5820945730936,102.88597402421864 494.86394093954846,454.579447671016 495.9913264053678,449.1813728477272 497.6824046040967,436.2251718578439 498.75342079662505,435.6341167020589 499.4298520761166,439.39487517522633 501.1209302748456,452.39637842760885 502.19194646737395,453.77870021957955 502.8683777468655,450.495038749467 504.61582521888545,437.2561051827832 505.63047213812285,435.42783748903145 506.3632726909054,438.57690098714744 508.05435088963435,451.31229546435856 509.06899780887176,453.82047983417294 509.85816763494523,450.8675288824024 511.5492458336742,438.34932167125544 512.5638927529116,435.57598481687677 513.3530625789851,438.24305407663354 515.0441407777141,450.52650012718794 516.0024184236605,453.5615275094347 516.847957523025,451.1634635028662 518.482666448463,439.48029386553526 519.4409440944094,435.9085617781097 520.2864831937738,437.7082640425244 521.9775613925028,449.3966310171279 522.7667312185763,101.2582987330828 523.1613161316131,453.2111325061171 524.2887015974325,448.79211332596816 525.9797797961613,437.5486794664786 527.0507959886897,436.7883061078515 527.6708579948903,439.55659162276794 529.4183054669103,451.14547838017364 530.4893216594386,452.57902146053107 531.2221222122212,449.5610009479314 532.9132004109501,438.45886161083394 533.9278473301875,436.66110135170567 534.717017156261,439.5327001744176 536.351726081699,450.1927397104216 537.3663730009364,452.5653947925732 538.1555428270099,450.1846148335915 539.8466210257388,439.4178073313106 540.8048986716852,436.8103815529707 541.6504377710497,438.95889455942745 543.3415159697787,449.5093966085958 544.2997936157251,452.30815973476035 545.1453327150896,450.41735741373355 546.8364109138186,440.09675787349084 547.738319286474,437.1561249564328 548.5838583858385,438.53023514988604 550.2749365845675,448.5253081114482 550.9513678640591,99.76719695835588 551.4586913236777,452.0231145911516 552.586076789497,448.4189780456913 554.277154988226,438.67300658773354 555.3481711807543,437.80291326969206 556.024602460246,440.3675375009127 557.7720499322659,450.3092812313769 558.7866968515033,451.5287209394299 559.5194974042859,449.05562350000326 561.2105756030148,439.4752113738436 562.2252225222521,437.7368217351828 563.0143923483257,440.0717600512027 564.7054705470547,449.4990462370532 565.720117466292,451.44211262185485 566.5092872923656,449.32229627625514 568.1439962178035,440.31517807886365 569.1586431370409,437.9077216137839 570.0041822364054,439.83367246938525 571.6388911618434,448.6570192276446 572.5971688077898,451.22367721649164 573.4427079071543,449.74691460148625 575.1337861058832,440.9040482420298 576.0356944785387,438.2322934921926 576.9376028511941,439.4507862648673 578.5723117766321,447.800940855082 579.1360045095417,98.42878276770021 579.7560665157424,450.9928207953533 580.8834519815617,448.06541105084426 582.5745301802907,439.62694096836236 583.645546372819,438.69347199669255 584.3219776523106,440.8021502982697 586.0694251243306,449.39083411161994 587.084072043568,450.6104477864333 587.8168725963504,448.5911754796099 589.5643200683704,440.12781501726704 590.5789669876078,438.7197460454802 591.3681368136813,440.7891938823217 593.0028457391193,448.67927543644385 594.0174926583567,450.5089541269515 594.8066624844301,448.8042673764981 596.4977406831591,440.84338631555596 597.4560183291055,438.847093944027 598.30155742847,440.3754858901031 599.992635627199,448.1713981452536 600.8945439998545,450.28635554055774 601.740083099219,449.1461801866047 603.4875305712388,441.3476478938444 604.3894389438943,439.1142968660324 605.2349780432588,440.06949331226605 606.8696869686968,447.20013709160673 607.3206411550245,97.24971902789683 608.0534417078071,450.1003202281558 609.1808271736264,447.7335601607464 610.9282746456463,440.2730329759351 611.9429215648837,439.47401528865277 612.6757221176663,441.41180230520075 614.3668003163951,448.61388232100336 615.3814472356325,449.8086611884778 616.1706170617061,447.9676618632989 617.8616952604351,440.87295123885065 618.8763421796724,439.5203723074264 619.665512005746,441.19960622791734 621.356590204475,448.17641332716937 622.3148678504214,449.6982308333391 623.1604069497859,448.1583199015653 624.7951158752238,441.49932810735936 625.7533935211702,439.66061148009953 626.5989326205347,440.86355402774126 628.2900108192637,447.54900395035287 629.1919191919192,449.477108020432 630.0374582912835,448.6093211576551 631.7285364900125,442.1387666339273 632.686814135959,439.9111082411304 633.5323532353234,440.62072050952855 635.1670621607615,446.7030591220702 635.5052778005072,96.22943680925847 636.3508168998717,449.3280450244583 637.478202365691,447.42457011711787 639.225649837711,440.97378356206286 640.2402967569484,440.1571784189416 640.9730973097309,441.74397244627016 642.6641755084598,447.9575300906656 643.6788224276972,449.1094777428503 644.4679922537707,447.6138348523789 646.1590704524997,441.5012816545157 647.1737173717371,440.2174465714956 647.9628871978106,441.5735783800467 649.6539653965395,447.5763616375302 650.6122430424859,448.99469519230587 651.4577821418504,447.7657001777961 653.1488603405794,441.88090862133583 654.1071379865258,440.3546154841449 654.9526770858903,441.43987460244927 656.5873860113284,447.0288098342684 657.5456636572748,448.80791579209404 658.3912027566392,448.01035602889164 660.0259116820772,442.60496570504995 660.9841893280236,440.5973620206677 661.8297284273881,441.1107346224289 663.464437352826,446.2929053422214 663.68991444599,95.36202938968673 664.6481920919364,448.6605353779994 665.7755775577557,447.13882002367575 667.5230250297756,441.5672078491089 668.594041222304,440.8010478667552 669.3268417750866,442.20206970578676 671.0179199738154,447.5376948950231 672.0325668930528,448.4721155050344 672.8217367191264,447.14590877991 674.4564456445644,442.0303230637209 675.4710925638018,440.8236316402449 676.3166316631663,442.0500209894462 677.9513405886042,447.0721394384102 678.9659875078416,448.38236935567886 679.8115266072061,447.28202273940786 681.4462355326441,442.3601906112638 682.4045131785905,440.9580722635178 683.250052277955,441.80846570566564 684.941130476684,446.74471731258546 685.8430388493393,448.2084931096045 686.6885779487038,447.60634944674 688.3232868741419,442.9914506678997 689.2251952467973,441.2336458332133 690.1271036194528,441.5454255509302 690.7471656256533,442.9044671124362 691.8181818181818,446.11553467517547" fill="none" stroke="#1F77B4" stroke-width="1.5" />
</g>
<g class="spine">
<line x1="100" y1="534" x2="720" y2="534" stroke="#262626" stroke-width="0.8" />
</g>
<g class="spine">
<line x1="100" y1="72" x2="720" y2="72" stroke="#262626" stroke-width="0.8" />
</g>
<g class="spine">
<line x1="100" y1="72" x2="100" y2="534" stroke="#262626" stroke-width="0.8" />
</g>
<g class="spine">
<line x1="720" y1="72" x2="720" y2="534" stroke="#262626" stroke-width="0.8" />
</g>
<rect x="615.3888888888889" y="82" width="94.61111111111111" height="25.72222222222222" fill="#FFFFFF" fill-opacity="0.8" stroke="#CCCCCC" stroke-width="0.5" />
<g class="legend" aria-label="Chart legend">
<line x1="623.3888888888889" y1="94.86111111111111" x2="651.1666666666667" y2="94.86111111111111" stroke="#1F77B4" stroke-width="1.5" />
<text x="662.2777777777778" y="98.72222222222223" font-family="DejaVu Sans, sans-serif" font-size="13.88888888888889" text-anchor="start" fill="#262626">Signal</text>
</g>
<text x="410" y="64" font-family="DejaVu Sans, sans-serif" font-size="15.88888888888889" text-anchor="middle" font-weight="bold" fill="#262626">10 000-point signal (LTTB → 500 display points)</text>
<text x="410" y="569" font-family="DejaVu Sans, sans-serif" font-size="13.88888888888889" text-anchor="middle" fill="#262626">Time</text>
<text x="64.66666666666667" y="303" font-family="DejaVu Sans, sans-serif" font-size="13.88888888888889" text-anchor="middle" transform="rotate(-90,64.66666666666667,303)" fill="#262626">Amplitude</text>
</svg>
