<svg xmlns="http://www.w3.org/2000/svg" viewBox="0 0 800 600" width="800" height="600" role="img" aria-labelledby="chart-title">
<title id="chart-title"></title>
<rect x="0" y="0" width="800" height="600" fill="#FFFFFF" />
<rect x="100" y="72" width="620" height="462" fill="#FFFFFF" />
<line x1="128.1818181818182" y1="533.6" x2="128.1818181818182" y2="538.8611111111111" stroke="#262626" stroke-width="1.1111111111111112" />
<path d="M4.41488 -9.22309Q3.35693 -9.22309 2.82457 -8.1821Q2.29221 -7.14111 2.29221 -5.05235Q2.29221 -2.97038 2.82457 -1.92939Q3.35693 -0.888401 4.41488 -0.888401Q5.4796 -0.888401 6.01196 -1.92939Q6.54433 -2.97038 6.54433 -5.05235Q6.54433 -7.14111 6.01196 -8.1821Q5.4796 -9.22309 4.41488 -9.22309ZM4.41488 -10.3082Q6.11708 -10.3082 7.01565 -8.962Q7.91422 -7.61583 7.91423 -5.05235Q7.91423 -2.49566 7.01565 -1.1495Q6.11708 0.196669 4.41488 0.196669Q2.71267 0.196669 1.8141 -1.1495Q0.915527 -2.49566 0.915527 -5.05235Q0.915527 -7.61583 1.8141 -8.962Q2.71267 -10.3082 4.41488 -10.3082Z" fill="#262626" transform="translate(128.1818181818182,557.6111111111111) translate(-4.418267250061035,0)" />
<line x1="184.55109147278364" y1="533.6" x2="184.55109147278364" y2="538.8611111111111" stroke="#262626" stroke-width="1.1111111111111112" />
<path d="M1.72255 -1.15289L3.9605 -1.15289L3.9605 -8.87722L1.52588 -8.38894L1.52588 -9.63677L3.94694 -10.1251L5.31684 -10.1251L5.31684 -1.15289L7.5548 -1.15289L7.5548 0L1.72255 0L1.72255 -1.15289ZM13.2514 -9.22309Q12.1935 -9.22309 11.6611 -8.1821Q11.1287 -7.14111 11.1287 -5.05235Q11.1287 -2.97038 11.6611 -1.92939Q12.1935 -0.888401 13.2514 -0.888401Q14.3161 -0.888401 14.8485 -1.92939Q15.3809 -2.97038 15.3809 -5.05235Q15.3809 -7.14111 14.8485 -8.1821Q14.3161 -9.22309 13.2514 -9.22309ZM13.2514 -10.3082Q14.9536 -10.3082 15.8522 -8.962Q16.7508 -7.61583 16.7508 -5.05235Q16.7508 -2.49566 15.8522 -1.1495Q14.9536 0.196669 13.2514 0.196669Q11.5492 0.196669 10.6506 -1.1495Q9.75206 -2.49566 9.75206 -5.05235Q9.75206 -7.61583 10.6506 -8.962Q11.5492 -10.3082 13.2514 -10.3082ZM22.0879 -9.22309Q21.03 -9.22309 20.4976 -8.1821Q19.9653 -7.14111 19.9653 -5.05235Q19.9653 -2.97038 20.4976 -1.92939Q21.03 -0.888401 22.0879 -0.888401Q23.1527 -0.888401 23.685 -1.92939Q24.2174 -2.97038 24.2174 -5.05235Q24.2174 -7.14111 23.685 -8.1821Q23.1527 -9.22309 22.0879 -9.22309ZM22.0879 -10.3082Q23.7901 -10.3082 24.6887 -8.962Q25.5873 -7.61583 25.5873 -5.05235Q25.5873 -2.49566 24.6887 -1.1495Q23.7901 0.196669 22.0879 0.196669Q20.3857 0.196669 19.4872 -1.1495Q18.5886 -2.49566 18.5886 -5.05235Q18.5886 -7.61583 19.4872 -8.962Q20.3857 -10.3082 22.0879 -10.3082ZM30.9245 -9.22309Q29.8665 -9.22309 29.3342 -8.1821Q28.8018 -7.14111 28.8018 -5.05235Q28.8018 -2.97038 29.3342 -1.92939Q29.8665 -0.888401 30.9245 -0.888401Q31.9892 -0.888401 32.5216 -1.92939Q33.0539 -2.97038 33.0539 -5.05235Q33.0539 -7.14111 32.5216 -8.1821Q31.9892 -9.22309 30.9245 -9.22309ZM30.9245 -10.3082Q32.6267 -10.3082 33.5253 -8.962Q34.4238 -7.61583 34.4238 -5.05235Q34.4238 -2.49566 33.5253 -1.1495Q32.6267 0.196669 30.9245 0.196669Q29.2223 0.196669 28.3237 -1.1495Q27.4251 -2.49566 27.4251 -5.05235Q27.4251 -7.61583 28.3237 -8.962Q29.2223 -10.3082 30.9245 -10.3082Z" fill="#262626" transform="translate(184.55109147278364,557.6111111111111) translate(-17.67306900024414,0)" />
<line x1="240.9203647637491" y1="533.6" x2="240.9203647637491" y2="538.8611111111111" stroke="#262626" stroke-width="1.1111111111111112" />
<path d="M2.6652 -1.15289L7.44629 -1.15289L7.44629 0L1.01725 0L1.01725 -1.15289Q1.79715 -1.95991 3.14331 -3.31963Q4.48947 -4.67936 4.83534 -5.0727Q5.49316 -5.8119 5.75426 -6.32392Q6.01535 -6.83594 6.01535 -7.331Q6.01535 -8.13802 5.44908 -8.64665Q4.88281 -9.15527 3.97407 -9.15527Q3.32981 -9.15527 2.61434 -8.93148Q1.89887 -8.70768 1.08507 -8.25331L1.08507 -9.63677Q1.91243 -9.96908 2.63129 -10.1386Q3.35015 -10.3082 3.94694 -10.3082Q5.52029 -10.3082 6.45616 -9.52148Q7.39204 -8.73481 7.39204 -7.41916Q7.39204 -6.79525 7.15807 -6.23576Q6.9241 -5.67627 6.30697 -4.91672Q6.13742 -4.72005 5.22868 -3.78079Q4.31993 -2.84153 2.6652 -1.15289ZM13.2514 -9.22309Q12.1935 -9.22309 11.6611 -8.1821Q11.1287 -7.14111 11.1287 -5.05235Q11.1287 -2.97038 11.6611 -1.92939Q12.1935 -0.888401 13.2514 -0.888401Q14.3161 -0.888401 14.8485 -1.92939Q15.3809 -2.97038 15.3809 -5.05235Q15.3809 -7.14111 14.8485 -8.1821Q14.3161 -9.22309 13.2514 -9.22309ZM13.2514 -10.3082Q14.9536 -10.3082 15.8522 -8.962Q16.7508 -7.61583 16.7508 -5.05235Q16.7508 -2.49566 15.8522 -1.1495Q14.9536 0.196669 13.2514 0.196669Q11.5492 0.196669 10.6506 -1.1495Q9.75206 -2.49566 9.75206 -5.05235Q9.75206 -7.61583 10.6506 -8.962Q11.5492 -10.3082 13.2514 -10.3082ZM22.0879 -9.22309Q21.03 -9.22309 20.4976 -8.1821Q19.9653 -7.14111 19.9653 -5.05235Q19.9653 -2.97038 20.4976 -1.92939Q21.03 -0.888401 22.0879 -0.888401Q23.1527 -0.888401 23.685 -1.92939Q24.2174 -2.97038 24.2174 -5.05235Q24.2174 -7.14111 23.685 -8.1821Q23.1527 -9.22309 22.0879 -9.22309ZM22.0879 -10.3082Q23.7901 -10.3082 24.6887 -8.962Q25.5873 -7.61583 25.5873 -5.05235Q25.5873 -2.49566 24.6887 -1.1495Q23.7901 0.196669 22.0879 0.196669Q20.3857 0.196669 19.4872 -1.1495Q18.5886 -2.49566 18.5886 -5.05235Q18.5886 -7.61583 19.4872 -8.962Q20.3857 -10.3082 22.0879 -10.3082ZM30.9245 -9.22309Q29.8665 -9.22309 29.3342 -8.1821Q28.8018 -7.14111 28.8018 -5.05235Q28.8018 -2.97038 29.3342 -1.92939Q29.8665 -0.888401 30.9245 -0.888401Q31.9892 -0.888401 32.5216 -1.92939Q33.0539 -2.97038 33.0539 -5.05235Q33.0539 -7.14111 32.5216 -8.1821Q31.9892 -9.22309 30.9245 -9.22309ZM30.9245 -10.3082Q32.6267 -10.3082 33.5253 -8.962Q34.4238 -7.61583 34.4238 -5.05235Q34.4238 -2.49566 33.5253 -1.1495Q32.6267 0.196669 30.9245 0.196669Q29.2223 0.196669 28.3237 -1.1495Q27.4251 -2.49566 27.4251 -5.05235Q27.4251 -7.61583 28.3237 -8.962Q29.2223 -10.3082 30.9245 -10.3082Z" fill="#262626" transform="translate(240.9203647637491,557.6111111111111) translate(-17.67306900024414,0)" />
<line x1="297.28963805471454" y1="533.6" x2="297.28963805471454" y2="538.8611111111111" stroke="#262626" stroke-width="1.1111111111111112" />
<path d="M5.63558 -5.45926Q6.61892 -5.24902 7.17163 -4.58442Q7.72434 -3.91981 7.72434 -2.94325Q7.72434 -1.4445 6.69352 -0.623915Q5.66271 0.196669 3.76383 0.196669Q3.12636 0.196669 2.45158 0.0712077Q1.7768 -0.0542535 1.05794 -0.305176L1.05794 -1.6276Q1.6276 -1.2953 2.30577 -1.12576Q2.98394 -0.956217 3.72314 -0.956217Q5.01166 -0.956217 5.68644 -1.46484Q6.36122 -1.97347 6.36122 -2.94325Q6.36122 -3.83843 5.73391 -4.34367Q5.10661 -4.8489 3.98763 -4.8489L2.80762 -4.8489L2.80762 -5.97466L4.04188 -5.97466Q5.05235 -5.97466 5.58811 -6.37817Q6.12386 -6.78168 6.12386 -7.54123Q6.12386 -8.32113 5.57115 -8.7382Q5.01845 -9.15527 3.98763 -9.15527Q3.42475 -9.15527 2.78049 -9.0332Q2.13623 -8.91113 1.36312 -8.65343L1.36312 -9.87413Q2.14301 -10.0911 2.82457 -10.1997Q3.50613 -10.3082 4.1097 -10.3082Q5.66949 -10.3082 6.57823 -9.59947Q7.48698 -8.89079 7.48698 -7.68365Q7.48698 -6.84272 7.00548 -6.26289Q6.52398 -5.68305 5.63558 -5.45926ZM13.2514 -9.22309Q12.1935 -9.22309 11.6611 -8.1821Q11.1287 -7.14111 11.1287 -5.05235Q11.1287 -2.97038 11.6611 -1.92939Q12.1935 -0.888401 13.2514 -0.888401Q14.3161 -0.888401 14.8485 -1.92939Q15.3809 -2.97038 15.3809 -5.05235Q15.3809 -7.14111 14.8485 -8.1821Q14.3161 -9.22309 13.2514 -9.22309ZM13.2514 -10.3082Q14.9536 -10.3082 15.8522 -8.962Q16.7508 -7.61583 16.7508 -5.05235Q16.7508 -2.49566 15.8522 -1.1495Q14.9536 0.196669 13.2514 0.196669Q11.5492 0.196669 10.6506 -1.1495Q9.75206 -2.49566 9.75206 -5.05235Q9.75206 -7.61583 10.6506 -8.962Q11.5492 -10.3082 13.2514 -10.3082ZM22.0879 -9.22309Q21.03 -9.22309 20.4976 -8.1821Q19.9653 -7.14111 19.9653 -5.05235Q19.9653 -2.97038 20.4976 -1.92939Q21.03 -0.888401 22.0879 -0.888401Q23.1527 -0.888401 23.685 -1.92939Q24.2174 -2.97038 24.2174 -5.05235Q24.2174 -7.14111 23.685 -8.1821Q23.1527 -9.22309 22.0879 -9.22309ZM22.0879 -10.3082Q23.7901 -10.3082 24.6887 -8.962Q25.5873 -7.61583 25.5873 -5.05235Q25.5873 -2.49566 24.6887 -1.1495Q23.7901 0.196669 22.0879 0.196669Q20.3857 0.196669 19.4872 -1.1495Q18.5886 -2.49566 18.5886 -5.05235Q18.5886 -7.61583 19.4872 -8.962Q20.3857 -10.3082 22.0879 -10.3082ZM30.9245 -9.22309Q29.8665 -9.22309 29.3342 -8.1821Q28.8018 -7.14111 28.8018 -5.05235Q28.8018 -2.97038 29.3342 -1.92939Q29.8665 -0.888401 30.9245 -0.888401Q31.9892 -0.888401 32.5216 -1.92939Q33.0539 -2.97038 33.0539 -5.05235Q33.0539 -7.14111 32.5216 -8.1821Q31.9892 -9.22309 30.9245 -9.22309ZM30.9245 -10.3082Q32.6267 -10.3082 33.5253 -8.962Q34.4238 -7.61583 34.4238 -5.05235Q34.4238 -2.49566 33.5253 -1.1495Q32.6267 0.196669 30.9245 0.196669Q29.2223 0.196669 28.3237 -1.1495Q27.4251 -2.49566 27.4251 -5.05235Q27.4251 -7.61583 28.3237 -8.962Q29.2223 -10.3082 30.9245 -10.3082Z" fill="#262626" transform="translate(297.28963805471454,557.6111111111111) translate(-17.67306900024414,0)" />
<line x1="353.65891134568" y1="533.6" x2="353.65891134568" y2="538.8611111111111" stroke="#262626" stroke-width="1.1111111111111112" />
<path d="M5.24902 -8.93148L1.79036 -3.52648L5.24902 -3.52648L5.24902 -8.93148ZM4.88959 -10.1251L6.61214 -10.1251L6.61214 -3.52648L8.05664 -3.52648L8.05664 -2.38715L6.61214 -2.38715L6.61214 0L5.24902 0L5.24902 -2.38715L0.678168 -2.38715L0.678168 -3.70958L4.88959 -10.1251ZM13.2514 -9.22309Q12.1935 -9.22309 11.6611 -8.1821Q11.1287 -7.14111 11.1287 -5.05235Q11.1287 -2.97038 11.6611 -1.92939Q12.1935 -0.888401 13.2514 -0.888401Q14.3161 -0.888401 14.8485 -1.92939Q15.3809 -2.97038 15.3809 -5.05235Q15.3809 -7.14111 14.8485 -8.1821Q14.3161 -9.22309 13.2514 -9.22309ZM13.2514 -10.3082Q14.9536 -10.3082 15.8522 -8.962Q16.7508 -7.61583 16.7508 -5.05235Q16.7508 -2.49566 15.8522 -1.1495Q14.9536 0.196669 13.2514 0.196669Q11.5492 0.196669 10.6506 -1.1495Q9.75206 -2.49566 9.75206 -5.05235Q9.75206 -7.61583 10.6506 -8.962Q11.5492 -10.3082 13.2514 -10.3082ZM22.0879 -9.22309Q21.03 -9.22309 20.4976 -8.1821Q19.9653 -7.14111 19.9653 -5.05235Q19.9653 -2.97038 20.4976 -1.92939Q21.03 -0.888401 22.0879 -0.888401Q23.1527 -0.888401 23.685 -1.92939Q24.2174 -2.97038 24.2174 -5.05235Q24.2174 -7.14111 23.685 -8.1821Q23.1527 -9.22309 22.0879 -9.22309ZM22.0879 -10.3082Q23.7901 -10.3082 24.6887 -8.962Q25.5873 -7.61583 25.5873 -5.05235Q25.5873 -2.49566 24.6887 -1.1495Q23.7901 0.196669 22.0879 0.196669Q20.3857 0.196669 19.4872 -1.1495Q18.5886 -2.49566 18.5886 -5.05235Q18.5886 -7.61583 19.4872 -8.962Q20.3857 -10.3082 22.0879 -10.3082ZM30.9245 -9.22309Q29.8665 -9.22309 29.3342 -8.1821Q28.8018 -7.14111 28.8018 -5.05235Q28.8018 -2.97038 29.3342 -1.92939Q29.8665 -0.888401 30.9245 -0.888401Q31.9892 -0.888401 32.5216 -1.92939Q33.0539 -2.97038 33.0539 -5.05235Q33.0539 -7.14111 32.5216 -8.1821Q31.9892 -9.22309 30.9245 -9.22309ZM30.9245 -10.3082Q32.6267 -10.3082 33.5253 -8.962Q34.4238 -7.61583 34.4238 -5.05235Q34.4238 -2.49566 33.5253 -1.1495Q32.6267 0.196669 30.9245 0.196669Q29.2223 0.196669 28.3237 -1.1495Q27.4251 -2.49566 27.4251 -5.05235Q27.4251 -7.61583 28.3237 -8.962Q29.2223 -10.3082 30.9245 -10.3082Z" fill="#262626" transform="translate(353.65891134568,557.6111111111111) translate(-17.67306900024414,0)" />
<line x1="410.02818463664545" y1="533.6" x2="410.02818463664545" y2="538.8611111111111" stroke="#262626" stroke-width="1.1111111111111112" />
<path d="M1.49875 -10.1251L6.87663 -10.1251L6.87663 -8.97217L2.75336 -8.97217L2.75336 -6.49007Q3.05176 -6.5918 3.35015 -6.64266Q3.64855 -6.69352 3.94694 -6.69352Q5.64236 -6.69352 6.63249 -5.76443Q7.62261 -4.83534 7.62261 -3.24843Q7.62261 -1.61404 6.60536 -0.708686Q5.58811 0.196669 3.73671 0.196669Q3.09923 0.196669 2.43802 0.0881619C1.99721 0.0158239 1.5417 -0.092683 1.07151 -0.237359L1.07151 -1.61404Q1.68186 -1.28174 2.3329 -1.11898Q2.98394 -0.956217 3.70958 -0.956217Q4.88281 -0.956217 5.56776 -1.57335Q6.25271 -2.19048 6.25271 -3.24843Q6.25271 -4.30637 5.56776 -4.9235Q4.88281 -5.54064 3.70958 -5.54064Q3.16026 -5.54064 2.61434 -5.41857Q2.06841 -5.2965 1.49875 -5.03879L1.49875 -10.1251ZM13.2514 -9.22309Q12.1935 -9.22309 11.6611 -8.1821Q11.1287 -7.14111 11.1287 -5.05235Q11.1287 -2.97038 11.6611 -1.92939Q12.1935 -0.888401 13.2514 -0.888401Q14.3161 -0.888401 14.8485 -1.92939Q15.3809 -2.97038 15.3809 -5.05235Q15.3809 -7.14111 14.8485 -8.1821Q14.3161 -9.22309 13.2514 -9.22309ZM13.2514 -10.3082Q14.9536 -10.3082 15.8522 -8.962Q16.7508 -7.61583 16.7508 -5.05235Q16.7508 -2.49566 15.8522 -1.1495Q14.9536 0.196669 13.2514 0.196669Q11.5492 0.196669 10.6506 -1.1495Q9.75206 -2.49566 9.75206 -5.05235Q9.75206 -7.61583 10.6506 -8.962Q11.5492 -10.3082 13.2514 -10.3082ZM22.0879 -9.22309Q21.03 -9.22309 20.4976 -8.1821Q19.9653 -7.14111 19.9653 -5.05235Q19.9653 -2.97038 20.4976 -1.92939Q21.03 -0.888401 22.0879 -0.888401Q23.1527 -0.888401 23.685 -1.92939Q24.2174 -2.97038 24.2174 -5.05235Q24.2174 -7.14111 23.685 -8.1821Q23.1527 -9.22309 22.0879 -9.22309ZM22.0879 -10.3082Q23.7901 -10.3082 24.6887 -8.962Q25.5873 -7.61583 25.5873 -5.05235Q25.5873 -2.49566 24.6887 -1.1495Q23.7901 0.196669 22.0879 0.196669Q20.3857 0.196669 19.4872 -1.1495Q18.5886 -2.49566 18.5886 -5.05235Q18.5886 -7.61583 19.4872 -8.962Q20.3857 -10.3082 22.0879 -10.3082ZM30.9245 -9.22309Q29.8665 -9.22309 29.3342 -8.1821Q28.8018 -7.14111 28.8018 -5.05235Q28.8018 -2.97038 29.3342 -1.92939Q29.8665 -0.888401 30.9245 -0.888401Q31.9892 -0.888401 32.5216 -1.92939Q33.0539 -2.97038 33.0539 -5.05235Q33.0539 -7.14111 32.5216 -8.1821Q31.9892 -9.22309 30.9245 -9.22309ZM30.9245 -10.3082Q32.6267 -10.3082 33.5253 -8.962Q34.4238 -7.61583 34.4238 -5.05235Q34.4238 -2.49566 33.5253 -1.1495Q32.6267 0.196669 30.9245 0.196669Q29.2223 0.196669 28.3237 -1.1495Q27.4251 -2.49566 27.4251 -5.05235Q27.4251 -7.61583 28.3237 -8.962Q29.2223 -10.3082 30.9245 -10.3082Z" fill="#262626" transform="translate(410.02818463664545,557.6111111111111) translate(-17.67306900024414,0)" />
<line x1="466.3974579276109" y1="533.6" x2="466.3974579276109" y2="538.8611111111111" stroke="#262626" stroke-width="1.1111111111111112" />
<path d="M4.58442 -5.60845Q3.66211 -5.60845 3.12297 -4.97776Q2.58382 -4.34706 2.58382 -3.24843Q2.58382 -2.15658 3.12297 -1.52249Q3.66211 -0.888401 4.58442 -0.888401Q5.50673 -0.888401 6.04587 -1.52249Q6.58502 -2.15658 6.58502 -3.24843Q6.58502 -4.34706 6.04587 -4.97776Q5.50673 -5.60845 4.58442 -5.60845ZM7.30387 -9.90126L7.30387 -8.65343Q6.78847 -8.89757 6.26289 -9.02642Q5.7373 -9.15527 5.2219 -9.15527Q3.86556 -9.15527 3.15009 -8.23975Q2.43462 -7.32422 2.3329 -5.47282Q2.73302 -6.06282 3.33659 -6.37817Q3.94016 -6.69352 4.6658 -6.69352Q6.19168 -6.69352 7.07669 -5.76782Q7.9617 -4.84212 7.9617 -3.24843Q7.9617 -1.68864 7.03939 -0.745985Q6.11708 0.196669 4.58442 0.196669Q2.82796 0.196669 1.89887 -1.1495Q0.969781 -2.49566 0.969781 -5.05235Q0.969781 -7.45307 2.1091 -8.88062Q3.24843 -10.3082 5.16764 -10.3082Q5.68305 -10.3082 6.20863 -10.2064Q6.73421 -10.1047 7.30387 -9.90126ZM13.2514 -9.22309Q12.1935 -9.22309 11.6611 -8.1821Q11.1287 -7.14111 11.1287 -5.05235Q11.1287 -2.97038 11.6611 -1.92939Q12.1935 -0.888401 13.2514 -0.888401Q14.3161 -0.888401 14.8485 -1.92939Q15.3809 -2.97038 15.3809 -5.05235Q15.3809 -7.14111 14.8485 -8.1821Q14.3161 -9.22309 13.2514 -9.22309ZM13.2514 -10.3082Q14.9536 -10.3082 15.8522 -8.962Q16.7508 -7.61583 16.7508 -5.05235Q16.7508 -2.49566 15.8522 -1.1495Q14.9536 0.196669 13.2514 0.196669Q11.5492 0.196669 10.6506 -1.1495Q9.75206 -2.49566 9.75206 -5.05235Q9.75206 -7.61583 10.6506 -8.962Q11.5492 -10.3082 13.2514 -10.3082ZM22.0879 -9.22309Q21.03 -9.22309 20.4976 -8.1821Q19.9653 -7.14111 19.9653 -5.05235Q19.9653 -2.97038 20.4976 -1.92939Q21.03 -0.888401 22.0879 -0.888401Q23.1527 -0.888401 23.685 -1.92939Q24.2174 -2.97038 24.2174 -5.05235Q24.2174 -7.14111 23.685 -8.1821Q23.1527 -9.22309 22.0879 -9.22309ZM22.0879 -10.3082Q23.7901 -10.3082 24.6887 -8.962Q25.5873 -7.61583 25.5873 -5.05235Q25.5873 -2.49566 24.6887 -1.1495Q23.7901 0.196669 22.0879 0.196669Q20.3857 0.196669 19.4872 -1.1495Q18.5886 -2.49566 18.5886 -5.05235Q18.5886 -7.61583 19.4872 -8.962Q20.3857 -10.3082 22.0879 -10.3082ZM30.9245 -9.22309Q29.8665 -9.22309 29.3342 -8.1821Q28.8018 -7.14111 28.8018 -5.05235Q28.8018 -2.97038 29.3342 -1.92939Q29.8665 -0.888401 30.9245 -0.888401Q31.9892 -0.888401 32.5216 -1.92939Q33.0539 -2.97038 33.0539 -5.05235Q33.0539 -7.14111 32.5216 -8.1821Q31.9892 -9.22309 30.9245 -9.22309ZM30.9245 -10.3082Q32.6267 -10.3082 33.5253 -8.962Q34.4238 -7.61583 34.4238 -5.05235Q34.4238 -2.49566 33.5253 -1.1495Q32.6267 0.196669 30.9245 0.196669Q29.2223 0.196669 28.3237 -1.1495Q27.4251 -2.49566 27.4251 -5.05235Q27.4251 -7.61583 28.3237 -8.962Q29.2223 -10.3082 30.9245 -10.3082Z" fill="#262626" transform="translate(466.3974579276109,557.6111111111111) translate(-17.67306900024414,0)" />
<line x1="522.7667312185763" y1="533.6" x2="522.7667312185763" y2="538.8611111111111" stroke="#262626" stroke-width="1.1111111111111112" />
<path d="M1.13932 -10.1251L7.64974 -10.1251L7.64974 -9.54183L3.97407 0L2.54313 0L6.00179 -8.97217L1.13932 -8.97217L1.13932 -10.1251ZM13.2514 -9.22309Q12.1935 -9.22309 11.6611 -8.1821Q11.1287 -7.14111 11.1287 -5.05235Q11.1287 -2.97038 11.6611 -1.92939Q12.1935 -0.888401 13.2514 -0.888401Q14.3161 -0.888401 14.8485 -1.92939Q15.3809 -2.97038 15.3809 -5.05235Q15.3809 -7.14111 14.8485 -8.1821Q14.3161 -9.22309 13.2514 -9.22309ZM13.2514 -10.3082Q14.9536 -10.3082 15.8522 -8.962Q16.7508 -7.61583 16.7508 -5.05235Q16.7508 -2.49566 15.8522 -1.1495Q14.9536 0.196669 13.2514 0.196669Q11.5492 0.196669 10.6506 -1.1495Q9.75206 -2.49566 9.75206 -5.05235Q9.75206 -7.61583 10.6506 -8.962Q11.5492 -10.3082 13.2514 -10.3082ZM22.0879 -9.22309Q21.03 -9.22309 20.4976 -8.1821Q19.9653 -7.14111 19.9653 -5.05235Q19.9653 -2.97038 20.4976 -1.92939Q21.03 -0.888401 22.0879 -0.888401Q23.1527 -0.888401 23.685 -1.92939Q24.2174 -2.97038 24.2174 -5.05235Q24.2174 -7.14111 23.685 -8.1821Q23.1527 -9.22309 22.0879 -9.22309ZM22.0879 -10.3082Q23.7901 -10.3082 24.6887 -8.962Q25.5873 -7.61583 25.5873 -5.05235Q25.5873 -2.49566 24.6887 -1.1495Q23.7901 0.196669 22.0879 0.196669Q20.3857 0.196669 19.4872 -1.1495Q18.5886 -2.49566 18.5886 -5.05235Q18.5886 -7.61583 19.4872 -8.962Q20.3857 -10.3082 22.0879 -10.3082ZM30.9245 -9.22309Q29.8665 -9.22309 29.3342 -8.1821Q28.8018 -7.14111 28.8018 -5.05235Q28.8018 -2.97038 29.3342 -1.92939Q29.8665 -0.888401 30.9245 -0.888401Q31.9892 -0.888401 32.5216 -1.92939Q33.0539 -2.97038 33.0539 -5.05235Q33.0539 -7.14111 32.5216 -8.1821Q31.9892 -9.22309 30.9245 -9.22309ZM30.9245 -10.3082Q32.6267 -10.3082 33.5253 -8.962Q34.4238 -7.61583 34.4238 -5.05235Q34.4238 -2.49566 33.5253 -1.1495Q32.6267 0.196669 30.9245 0.196669Q29.2223 0.196669 28.3237 -1.1495Q27.4251 -2.49566 27.4251 -5.05235Q27.4251 -7.61583 28.3237 -8.962Q29.2223 -10.3082 30.9245 -10.3082Z" fill="#262626" transform="translate(522.7667312185763,557.6111111111111) translate(-17.67306900024414,0)" />
<line x1="579.1360045095419" y1="533.6" x2="579.1360045095419" y2="538.8611111111111" stroke="#262626" stroke-width="1.1111111111111112" />
<path d="M4.41488 -4.80821Q3.43831 -4.80821 2.87882 -4.28602Q2.31934 -3.76383 2.31934 -2.84831Q2.31934 -1.93278 2.87882 -1.41059Q3.43831 -0.888401 4.41488 -0.888401Q5.39144 -0.888401 5.95432 -1.41398Q6.5172 -1.93956 6.5172 -2.84831Q6.5172 -3.76383 5.95771 -4.28602Q5.39822 -4.80821 4.41488 -4.80821ZM3.04498 -5.39144Q2.16336 -5.60845 1.67169 -6.21202Q1.18001 -6.81559 1.18001 -7.68365Q1.18001 -8.89757 2.04468 -9.60287Q2.90934 -10.3082 4.41488 -10.3082Q5.92719 -10.3082 6.78847 -9.60287Q7.64974 -8.89757 7.64974 -7.68365Q7.64974 -6.81559 7.15807 -6.21202Q6.6664 -5.60845 5.79156 -5.39144Q6.78168 -5.16086 7.33439 -4.48947Q7.8871 -3.81809 7.8871 -2.84831Q7.8871 -1.37668 6.98853 -0.590007Q6.08995 0.196669 4.41488 0.196669Q2.7398 0.196669 1.84123 -0.590007Q0.942654 -1.37668 0.942654 -2.84831Q0.942654 -3.81809 1.49875 -4.48947Q2.05485 -5.16086 3.04498 -5.39144ZM2.54313 -7.5548Q2.54313 -6.76812 3.0348 -6.32731Q3.52648 -5.8865 4.41488 -5.8865Q5.29649 -5.8865 5.79495 -6.32731Q6.2934 -6.76812 6.2934 -7.5548Q6.2934 -8.34147 5.79495 -8.78228Q5.2965 -9.22309 4.41488 -9.22309Q3.52648 -9.22309 3.0348 -8.78228Q2.54313 -8.34147 2.54313 -7.5548ZM13.2514 -9.22309Q12.1935 -9.22309 11.6611 -8.1821Q11.1287 -7.14111 11.1287 -5.05235Q11.1287 -2.97038 11.6611 -1.92939Q12.1935 -0.888401 13.2514 -0.888401Q14.3161 -0.888401 14.8485 -1.92939Q15.3809 -2.97038 15.3809 -5.05235Q15.3809 -7.14111 14.8485 -8.1821Q14.3161 -9.22309 13.2514 -9.22309ZM13.2514 -10.3082Q14.9536 -10.3082 15.8522 -8.962Q16.7508 -7.61583 16.7508 -5.05235Q16.7508 -2.49566 15.8522 -1.1495Q14.9536 0.196669 13.2514 0.196669Q11.5492 0.196669 10.6506 -1.1495Q9.75206 -2.49566 9.75206 -5.05235Q9.75206 -7.61583 10.6506 -8.962Q11.5492 -10.3082 13.2514 -10.3082ZM22.0879 -9.22309Q21.03 -9.22309 20.4976 -8.1821Q19.9653 -7.14111 19.9653 -5.05235Q19.9653 -2.97038 20.4976 -1.92939Q21.03 -0.888401 22.0879 -0.888401Q23.1527 -0.888401 23.685 -1.92939Q24.2174 -2.97038 24.2174 -5.05235Q24.2174 -7.14111 23.685 -8.1821Q23.1527 -9.22309 22.0879 -9.22309ZM22.0879 -10.3082Q23.7901 -10.3082 24.6887 -8.962Q25.5873 -7.61583 25.5873 -5.05235Q25.5873 -2.49566 24.6887 -1.1495Q23.7901 0.196669 22.0879 0.196669Q20.3857 0.196669 19.4872 -1.1495Q18.5886 -2.49566 18.5886 -5.05235Q18.5886 -7.61583 19.4872 -8.962Q20.3857 -10.3082 22.0879 -10.3082ZM30.9245 -9.22309Q29.8665 -9.22309 29.3342 -8.1821Q28.8018 -7.14111 28.8018 -5.05235Q28.8018 -2.97038 29.3342 -1.92939Q29.8665 -0.888401 30.9245 -0.888401Q31.9892 -0.888401 32.5216 -1.92939Q33.0539 -2.97038 33.0539 -5.05235Q33.0539 -7.14111 32.5216 -8.1821Q31.9892 -9.22309 30.9245 -9.22309ZM30.9245 -10.3082Q32.6267 -10.3082 33.5253 -8.962Q34.4238 -7.61583 34.4238 -5.05235Q34.4238 -2.49566 33.5253 -1.1495Q32.6267 0.196669 30.9245 0.196669Q29.2223 0.196669 28.3237 -1.1495Q27.4251 -2.49566 27.4251 -5.05235Q27.4251 -7.61583 28.3237 -8.962Q29.2223 -10.3082 30.9245 -10.3082Z" fill="#262626" transform="translate(579.1360045095419,557.6111111111111) translate(-17.67306900024414,0)" />
<line x1="635.5052778005072" y1="533.6" x2="635.5052778005072" y2="538.8611111111111" stroke="#262626" stroke-width="1.1111111111111112" />
<path d="M1.52588 -0.210232L1.52588 -1.45806Q2.04129 -1.21392 2.57026 -1.08507Q3.09923 -0.956217 3.60786 -0.956217Q4.96419 -0.956217 5.67966 -1.86835Q6.39513 -2.78049 6.49685 -4.63867Q6.10352 -4.05545 5.49995 -3.74349Q4.89638 -3.43153 4.16395 -3.43153Q2.64486 -3.43153 1.75985 -4.35045Q0.874837 -5.26937 0.874837 -6.86306Q0.874837 -8.42285 1.79715 -9.36551Q2.71946 -10.3082 4.25212 -10.3082Q6.00857 -10.3082 6.93427 -8.962Q7.85997 -7.61583 7.85997 -5.05235Q7.85997 -2.65842 6.72404 -1.23088Q5.58811 0.196669 3.66889 0.196669Q3.15348 0.196669 2.62451 0.0949436Q2.09554 -0.00678168 1.52588 -0.210232ZM4.25212 -4.50304Q5.17442 -4.50304 5.71357 -5.13374Q6.25271 -5.76443 6.25271 -6.86306Q6.25271 -7.95491 5.71357 -8.589Q5.17443 -9.22309 4.25212 -9.22309Q3.32981 -9.22309 2.79066 -8.589Q2.25152 -7.95492 2.25152 -6.86306Q2.25152 -5.76443 2.79066 -5.13374Q3.32981 -4.50304 4.25212 -4.50304ZM13.2514 -9.22309Q12.1935 -9.22309 11.6611 -8.1821Q11.1287 -7.14111 11.1287 -5.05235Q11.1287 -2.97038 11.6611 -1.92939Q12.1935 -0.888401 13.2514 -0.888401Q14.3161 -0.888401 14.8485 -1.92939Q15.3809 -2.97038 15.3809 -5.05235Q15.3809 -7.14111 14.8485 -8.1821Q14.3161 -9.22309 13.2514 -9.22309ZM13.2514 -10.3082Q14.9536 -10.3082 15.8522 -8.962Q16.7508 -7.61583 16.7508 -5.05235Q16.7508 -2.49566 15.8522 -1.1495Q14.9536 0.196669 13.2514 0.196669Q11.5492 0.196669 10.6506 -1.1495Q9.75206 -2.49566 9.75206 -5.05235Q9.75206 -7.61583 10.6506 -8.962Q11.5492 -10.3082 13.2514 -10.3082ZM22.0879 -9.22309Q21.03 -9.22309 20.4976 -8.1821Q19.9653 -7.14111 19.9653 -5.05235Q19.9653 -2.97038 20.4976 -1.92939Q21.03 -0.888401 22.0879 -0.888401Q23.1527 -0.888401 23.685 -1.92939Q24.2174 -2.97038 24.2174 -5.05235Q24.2174 -7.14111 23.685 -8.1821Q23.1527 -9.22309 22.0879 -9.22309ZM22.0879 -10.3082Q23.7901 -10.3082 24.6887 -8.962Q25.5873 -7.61583 25.5873 -5.05235Q25.5873 -2.49566 24.6887 -1.1495Q23.7901 0.196669 22.0879 0.196669Q20.3857 0.196669 19.4872 -1.1495Q18.5886 -2.49566 18.5886 -5.05235Q18.5886 -7.61583 19.4872 -8.962Q20.3857 -10.3082 22.0879 -10.3082ZM30.9245 -9.22309Q29.8665 -9.22309 29.3342 -8.1821Q28.8018 -7.14111 28.8018 -5.05235Q28.8018 -2.97038 29.3342 -1.92939Q29.8665 -0.888401 30.9245 -0.888401Q31.9892 -0.888401 32.5216 -1.92939Q33.0539 -2.97038 33.0539 -5.05235Q33.0539 -7.14111 32.5216 -8.1821Q31.9892 -9.22309 30.9245 -9.22309ZM30.9245 -10.3082Q32.6267 -10.3082 33.5253 -8.962Q34.4238 -7.61583 34.4238 -5.05235Q34.4238 -2.49566 33.5253 -1.1495Q32.6267 0.196669 30.9245 0.196669Q29.2223 0.196669 28.3237 -1.1495Q27.4251 -2.49566 27.4251 -5.05235Q27.4251 -7.61583 28.3237 -8.962Q29.2223 -10.3082 30.9245 -10.3082Z" fill="#262626" transform="translate(635.5052778005072,557.6111111111111) translate(-17.67306900024414,0)" />
<line x1="691.8745510914728" y1="533.6" x2="691.8745510914728" y2="538.8611111111111" stroke="#262626" stroke-width="1.1111111111111112" />
<path d="M1.72255 -1.15289L3.9605 -1.15289L3.9605 -8.87722L1.52588 -8.38894L1.52588 -9.63677L3.94694 -10.1251L5.31684 -10.1251L5.31684 -1.15289L7.5548 -1.15289L7.5548 0L1.72255 0L1.72255 -1.15289ZM13.2514 -9.22309Q12.1935 -9.22309 11.6611 -8.1821Q11.1287 -7.14111 11.1287 -5.05235Q11.1287 -2.97038 11.6611 -1.92939Q12.1935 -0.888401 13.2514 -0.888401Q14.3161 -0.888401 14.8485 -1.92939Q15.3809 -2.97038 15.3809 -5.05235Q15.3809 -7.14111 14.8485 -8.1821Q14.3161 -9.22309 13.2514 -9.22309ZM13.2514 -10.3082Q14.9536 -10.3082 15.8522 -8.962Q16.7508 -7.61583 16.7508 -5.05235Q16.7508 -2.49566 15.8522 -1.1495Q14.9536 0.196669 13.2514 0.196669Q11.5492 0.196669 10.6506 -1.1495Q9.75206 -2.49566 9.75206 -5.05235Q9.75206 -7.61583 10.6506 -8.962Q11.5492 -10.3082 13.2514 -10.3082ZM22.0879 -9.22309Q21.03 -9.22309 20.4976 -8.1821Q19.9653 -7.14111 19.9653 -5.05235Q19.9653 -2.97038 20.4976 -1.92939Q21.03 -0.888401 22.0879 -0.888401Q23.1527 -0.888401 23.685 -1.92939Q24.2174 -2.97038 24.2174 -5.05235Q24.2174 -7.14111 23.685 -8.1821Q23.1527 -9.22309 22.0879 -9.22309ZM22.0879 -10.3082Q23.7901 -10.3082 24.6887 -8.962Q25.5873 -7.61583 25.5873 -5.05235Q25.5873 -2.49566 24.6887 -1.1495Q23.7901 0.196669 22.0879 0.196669Q20.3857 0.196669 19.4872 -1.1495Q18.5886 -2.49566 18.5886 -5.05235Q18.5886 -7.61583 19.4872 -8.962Q20.3857 -10.3082 22.0879 -10.3082ZM30.9245 -9.22309Q29.8665 -9.22309 29.3342 -8.1821Q28.8018 -7.14111 28.8018 -5.05235Q28.8018 -2.97038 29.3342 -1.92939Q29.8665 -0.888401 30.9245 -0.888401Q31.9892 -0.888401 32.5216 -1.92939Q33.0539 -2.97038 33.0539 -5.05235Q33.0539 -7.14111 32.5216 -8.1821Q31.9892 -9.22309 30.9245 -9.22309ZM30.9245 -10.3082Q32.6267 -10.3082 33.5253 -8.962Q34.4238 -7.61583 34.4238 -5.05235Q34.4238 -2.49566 33.5253 -1.1495Q32.6267 0.196669 30.9245 0.196669Q29.2223 0.196669 28.3237 -1.1495Q27.4251 -2.49566 27.4251 -5.05235Q27.4251 -7.61583 28.3237 -8.962Q29.2223 -10.3082 30.9245 -10.3082ZM39.761 -9.22309Q38.7031 -9.22309 38.1707 -8.1821Q37.6383 -7.14111 37.6383 -5.05235Q37.6383 -2.97038 38.1707 -1.92939Q38.7031 -0.888401 39.761 -0.888401Q40.8257 -0.888401 41.3581 -1.92939Q41.8905 -2.97038 41.8905 -5.05235Q41.8905 -7.14111 41.3581 -8.1821Q40.8257 -9.22309 39.761 -9.22309ZM39.761 -10.3082Q41.4632 -10.3082 42.3618 -8.962Q43.2604 -7.61583 43.2604 -5.05235Q43.2604 -2.49566 42.3618 -1.1495Q41.4632 0.196669 39.761 0.196669Q38.0588 0.196669 37.1602 -1.1495Q36.2617 -2.49566 36.2617 -5.05235Q36.2617 -7.61583 37.1602 -8.962Q38.0588 -10.3082 39.761 -10.3082Z" fill="#262626" transform="translate(691.8745510914728,557.6111111111111) translate(-22.09133529663086,0)" />
<line x1="95.13888888888889" y1="514.9607602247227" x2="100.4" y2="514.9607602247227" stroke="#262626" stroke-width="1.1111111111111112" />
<path d="M0.678168 -4.36062L4.3335 -4.36062L4.3335 -3.24843L0.678168 -3.24843L0.678168 -4.36062ZM6.73421 -1.15289L8.97217 -1.15289L8.97217 -8.87722L6.53754 -8.38894L6.53754 -9.63677L8.9586 -10.1251L10.3285 -10.1251L10.3285 -1.15289L12.5665 -1.15289L12.5665 0L6.73421 0L6.73421 -1.15289Z" fill="#262626" transform="translate(90.27777777777777,518.9607602247227) translate(-13.848199844360352,0)" />
<line x1="95.13888888888889" y1="444.6339668539356" x2="100.4" y2="444.6339668539356" stroke="#262626" stroke-width="1.1111111111111112" />
<path d="M4.41488 -9.22309Q3.35693 -9.22309 2.82457 -8.1821Q2.29221 -7.14111 2.29221 -5.05235Q2.29221 -2.97038 2.82457 -1.92939Q3.35693 -0.888401 4.41488 -0.888401Q5.4796 -0.888401 6.01196 -1.92939Q6.54433 -2.97038 6.54433 -5.05235Q6.54433 -7.14111 6.01196 -8.1821Q5.4796 -9.22309 4.41488 -9.22309ZM4.41488 -10.3082Q6.11708 -10.3082 7.01565 -8.962Q7.91422 -7.61583 7.91423 -5.05235Q7.91423 -2.49566 7.01565 -1.1495Q6.11708 0.196669 4.41488 0.196669Q2.71267 0.196669 1.8141 -1.1495Q0.915527 -2.49566 0.915527 -5.05235Q0.915527 -7.61583 1.8141 -8.962Q2.71267 -10.3082 4.41488 -10.3082Z" fill="#262626" transform="translate(90.27777777777777,448.6339668539356) translate(-8.83653450012207,0)" />
<line x1="95.13888888888889" y1="374.30717348314846" x2="100.4" y2="374.30717348314846" stroke="#262626" stroke-width="1.1111111111111112" />
<path d="M1.72255 -1.15289L3.9605 -1.15289L3.9605 -8.87722L1.52588 -8.38894L1.52588 -9.63677L3.94694 -10.1251L5.31684 -10.1251L5.31684 -1.15289L7.5548 -1.15289L7.5548 0L1.72255 0L1.72255 -1.15289Z" fill="#262626" transform="translate(90.27777777777777,378.30717348314846) translate(-8.83653450012207,0)" />
<line x1="95.13888888888889" y1="303.98038011236133" x2="100.4" y2="303.98038011236133" stroke="#262626" stroke-width="1.1111111111111112" />
<path d="M2.6652 -1.15289L7.44629 -1.15289L7.44629 0L1.01725 0L1.01725 -1.15289Q1.79715 -1.95991 3.14331 -3.31963Q4.48947 -4.67936 4.83534 -5.0727Q5.49316 -5.8119 5.75426 -6.32392Q6.01535 -6.83594 6.01535 -7.331Q6.01535 -8.13802 5.44908 -8.64665Q4.88281 -9.15527 3.97407 -9.15527Q3.32981 -9.15527 2.61434 -8.93148Q1.89887 -8.70768 1.08507 -8.25331L1.08507 -9.63677Q1.91243 -9.96908 2.63129 -10.1386Q3.35015 -10.3082 3.94694 -10.3082Q5.52029 -10.3082 6.45616 -9.52148Q7.39204 -8.73481 7.39204 -7.41916Q7.39204 -6.79525 7.15807 -6.23576Q6.9241 -5.67627 6.30697 -4.91672Q6.13742 -4.72005 5.22868 -3.78079Q4.31993 -2.84153 2.6652 -1.15289Z" fill="#262626" transform="translate(90.27777777777777,307.98038011236133) translate(-8.83653450012207,0)" />
<line x1="95.13888888888889" y1="233.65358674157426" x2="100.4" y2="233.65358674157426" stroke="#262626" stroke-width="1.1111111111111112" />
<path d="M5.63558 -5.45926Q6.61892 -5.24902 7.17163 -4.58442Q7.72434 -3.91981 7.72434 -2.94325Q7.72434 -1.4445 6.69352 -0.623915Q5.66271 0.196669 3.76383 0.196669Q3.12636 0.196669 2.45158 0.0712077Q1.7768 -0.0542535 1.05794 -0.305176L1.05794 -1.6276Q1.6276 -1.2953 2.30577 -1.12576Q2.98394 -0.956217 3.72314 -0.956217Q5.01166 -0.956217 5.68644 -1.46484Q6.36122 -1.97347 6.36122 -2.94325Q6.36122 -3.83843 5.73391 -4.34367Q5.10661 -4.8489 3.98763 -4.8489L2.80762 -4.8489L2.80762 -5.97466L4.04188 -5.97466Q5.05235 -5.97466 5.58811 -6.37817Q6.12386 -6.78168 6.12386 -7.54123Q6.12386 -8.32113 5.57115 -8.7382Q5.01845 -9.15527 3.98763 -9.15527Q3.42475 -9.15527 2.78049 -9.0332Q2.13623 -8.91113 1.36312 -8.65343L1.36312 -9.87413Q2.14301 -10.0911 2.82457 -10.1997Q3.50613 -10.3082 4.1097 -10.3082Q5.66949 -10.3082 6.57823 -9.59947Q7.48698 -8.89079 7.48698 -7.68365Q7.48698 -6.84272 7.00548 -6.26289Q6.52398 -5.68305 5.63558 -5.45926Z" fill="#262626" transform="translate(90.27777777777777,237.65358674157426) translate(-8.83653450012207,0)" />
<line x1="95.13888888888889" y1="163.32679337078713" x2="100.4" y2="163.32679337078713" stroke="#262626" stroke-width="1.1111111111111112" />
<path d="M5.24902 -8.93148L1.79036 -3.52648L5.24902 -3.52648L5.24902 -8.93148ZM4.88959 -10.1251L6.61214 -10.1251L6.61214 -3.52648L8.05664 -3.52648L8.05664 -2.38715L6.61214 -2.38715L6.61214 0L5.24902 0L5.24902 -2.38715L0.678168 -2.38715L0.678168 -3.70958L4.88959 -10.1251Z" fill="#262626" transform="translate(90.27777777777777,167.32679337078713) translate(-8.83653450012207,0)" />
<line x1="95.13888888888889" y1="93" x2="100.4" y2="93" stroke="#262626" stroke-width="1.1111111111111112" />
<path d="M1.49875 -10.1251L6.87663 -10.1251L6.87663 -8.97217L2.75336 -8.97217L2.75336 -6.49007Q3.05176 -6.5918 3.35015 -6.64266Q3.64855 -6.69352 3.94694 -6.69352Q5.64236 -6.69352 6.63249 -5.76443Q7.62261 -4.83534 7.62261 -3.24843Q7.62261 -1.61404 6.60536 -0.708686Q5.58811 0.196669 3.73671 0.196669Q3.09923 0.196669 2.43802 0.0881619C1.99721 0.0158239 1.5417 -0.092683 1.07151 -0.237359L1.07151 -1.61404Q1.68186 -1.28174 2.3329 -1.11898Q2.98394 -0.956217 3.70958 -0.956217Q4.88281 -0.956217 5.56776 -1.57335Q6.25271 -2.19048 6.25271 -3.24843Q6.25271 -4.30637 5.56776 -4.9235Q4.88281 -5.54064 3.70958 -5.54064Q3.16026 -5.54064 2.61434 -5.41857Q2.06841 -5.2965 1.49875 -5.03879L1.49875 -10.1251Z" fill="#262626" transform="translate(90.27777777777777,97) translate(-8.83653450012207,0)" />
<g class="series" aria-label="Signal">
<polyline points="128.1818181818182,93.00000000000001 128.23818745510914,441.1201464480525 129.70378856067424,376.56804479333874 130.71843547991162,390.6483217719704 132.52225222522253,489.34548863132443 133.48052987116893,513 134.3260689705334,495.006811371986 136.0171471692624,402.91431273178455 136.91905554191783,377.8650941126055 137.76459464128232,391.2710318297747 139.4556728400113,480.66518124313484 140.35758121266673,509.291526397461 141.20312031203122,500.42273844827724 142.8378292374692,417.3021926624002 143.7961068834156,382.5653223421946 144.69801525607107,388.5107003871083 145.20533871568975,407.94296635503105 146.95278618770968,496.10385288159716 147.96743310694706,505.617694127814 148.7002336597296,482.76962178551815 150.39131185845858,397.6706655951357 151.40595877769596,383.48404120409475 152.19512860376946,405.18410963039275 153.88620680249844,489.00961590803473 155.0699615416087,503.07265938688585 156.3664548273009,101.01136155148164 156.47919337388285,446.6142780577657 158.0011637527389,386.545807312371 159.01581067197628,396.9935525597638 160.8196274172872,481.60432855350484 161.7779050632336,503.3864924793686 162.62344416259808,489.23000409657845 164.31452236132705,410.25886402992063 165.2164307339825,387.42692390988896 166.06196983334698,397.6233193068462 167.75304803207592,474.04625029201196 168.6549564047314,499.8613678797899 169.55686477738683,492.0887950267842 171.13520442953387,422.79818784111495 172.09348207548027,391.7878179846379 172.9953904481357,395.49319759577764 173.55908318104537,413.86931493873703 175.25016137977434,487.8302341201211 176.26480829901172,497.5410981035819 176.99760885179427,478.8342439122009 178.68868705052324,405.41885690338034 179.70333396976062,391.7487918656162 180.49250379583412,409.3749137725704 182.1835819945631,481.59279322383617 183.42370600696432,494.62291481653034 184.55109147278364,106.66956456376478 184.77656856594749,448.03903548971095 186.29853894480357,395.1176220657372 187.31318586404095,402.6637003944675 189.1733718826428,477.10582312444933 190.1316495285892,495.1890954595042 190.9771886279537,482.4149022701081 192.61189755339169,416.3969192696471 193.5701751993381,395.33022477479193 194.4157142987026,404.70497310840994 196.0504232241406,468.54668408176207 196.95233159679603,491.7532967563997 197.85423996945147,486.2920228621016 198.36156342907017,471.2373721516155 200.05264162779915,406.51993893285436 201.12365782032748,399.0262509358352 201.80008909981908,414.99055183885577 203.547536571839,480.82417915426333 204.61855276436734,489.9329182083682 205.3513533171499,473.41484968881946 207.04243151587886,410.37105362544474 208.05707843511624,399.2791326545751 208.84624826118974,414.90998441026534 210.48095718662773,475.34837756809316 211.721081199029,488.0546379222259 212.73572811826637,110.38903720747496 213.07394375801215,449.02355965257806 214.59591413686823,402.47368294672606 215.6105610561056,407.71827544624676 217.47074707470745,471.4497252852099 218.42902472065387,488.0580753278595 219.27456382001836,478.0524897810423 220.96564201874733,419.7448092041562 221.86755039140277,402.4126757005149 222.71308949076726,409.4850831316736 224.34779841620525,463.9879364448512 225.2497067888607,484.7894366336018 226.15161516151613,481.15014514454964 226.65893862113484,468.6445183109291 228.40638609315477,411.4309420150786 229.42103301239214,405.0300724736121 230.1538335651747,419.6977644317568 231.90128103719462,476.1976355835787 232.915927956432,483.91240449461424 233.64872850921455,470.4112131453579 235.3398067079435,416.0506955393014 236.35445362718087,405.42945899291203 237.1436234532544,418.09890778597077 238.83470165198338,471.53823326417273 240.13119493767556,481.17600328894827 240.9203647637491,112.54377058442083 241.3713189500768,449.66219048674265 242.89328932893287,408.7796046060092 243.90793624817024,412.2139108466365 245.8244915400631,468.2028826132163 246.72639991271853,481.89279956254666 247.57193901208302,474.1405874824675 249.26301721081197,424.22062762188494 250.16492558346744,408.5173939282004 251.0104646828319,413.7414699741769 252.64517360826991,460.21863871308545 253.54708198092536,478.8147513129241 254.4489903535808,476.59808929358434 255.01268308649045,464.77349599423167 256.7037612852194,416.77774600718567 257.7184082044568,410.28310680159706 258.4512087572393,422.2836533697015 260.19865622925926,471.05591365019893 261.21330314849666,478.6536807047211 262.00247297457014,466.3411549119785 263.63718190000816,420.8382852814335 264.65182881924557,410.78272178482 265.44099864531904,421.0016171173429 267.132076844048,466.9683081926643 268.4849394030312,475.86128361853446 269.1050014092318,113.46487942438789 269.6686941421415,450.031812802947 271.19066452099753,414.1794249153167 272.20531144023494,416.20395173151127 274.1218667321277,464.0718783251683 275.02377510478317,476.56830008585405 275.86931420414766,470.64210143530084 277.56039240287663,427.9502471482709 278.46230077553207,413.7737048591259 279.30783987489656,417.5232170494656 280.9425488003346,457.11062993236817 281.900826446281,474.1945892288502 282.8027348189364,471.8738668391126 283.3664275518461,461.51066209255 285.0011364772841,421.3041775079415 286.0721526698124,415.21927321311466 286.804953222595,425.8198092417488 288.49603142132395,466.7105857535919 289.5106783405613,474.06626557832584 290.29984816663483,464.0513721020943 291.9909263653638,423.80973621960266 293.00557328460116,415.5782134781349 293.7947431106747,424.67490389741795 295.4294520361127,463.1297365276618 296.78231459509584,471.8091102820524 297.28963805471454,113.44027620721623 297.9660693342061,450.19482213341126 299.5444089863532,418.26609591516814 300.5590559055905,420.428739557111 302.4192419241924,460.61736247670467 303.32115029684786,471.97489995805387 304.16668939621235,467.5211227638499 305.8013983216503,432.249271851997 306.7596759675967,418.2946657409164 307.6615843402522,421.5609819314364 308.16890779987085,430.04458188345797 309.8599859985998,466.05165612210595 310.9310021911282,469.9733106655614 311.60743347061975,460.937364253044 313.3548809426397,424.28274066259445 314.3695278618771,419.1345276262019 315.1023284146596,427.7924444354639 316.7934066133886,463.04347538885924 317.808053532626,470.0694687283441 318.59722335869947,461.959650571565 320.28830155742844,427.3155508427958 321.30294847666585,419.55855639168794 322.0921183027393,426.8771014261531 323.7831965014683,460.8658484428487 325.07968978716053,468.2545551065698 325.47427470019727,112.71592220657847 326.2634445262708,450.2016158256046 327.8417841784178,422.2503296840597 328.8564310976552,423.4221085198971 330.71661711625705,457.73410894891816 331.6185254889125,468.0164815182321 332.464064588277,464.7433544530436 334.098773513715,434.6723764929577 335.0570511596614,422.178982429935 335.95895953231684,424.3994592958346 336.46628299193554,431.4518168214702 338.21373046395547,463.28667199694524 339.2283773831928,466.6459499584555 339.9611779359754,458.3417735349316 341.6522561347044,427.60424366548045 342.6669030539417,422.55347344382363 343.45607288001526,430.4476272509577 345.14715107874423,460.7302623562403 346.1617979979816,466.456201377017 346.9509678240551,459.25246147772896 348.5856767494931,430.26408758162376 349.6003236687305,423.01698394171797 350.44586276809497,429.6288820288951 352.08057169353293,458.059825853886 353.37706497922517,465.1409584514538 353.65891134568,111.49820352766805 354.56081971833544,450.0926818602383 356.13915937048245,425.65653992344437 357.15380628971985,426.07116396092545 359.0139923083217,455.33256498264524 359.91590068097713,464.6089273934975 360.81780905363263,461.73768181681595 362.39614870577964,436.66920149178475 363.35442635172603,425.51272141074105 364.2563347243815,426.913901033189 364.82002745729113,433.5834145429987 366.5111056560201,460.29150967911664 367.5257525752575,463.733386814925 368.25855312804003,456.93144699497344 369.949631326769,430.4104936713186 370.96427824600636,425.53520543307235 371.7534480720799,431.950710046371 373.44452627080886,458.04341986901716 374.4591731900462,463.4830923192564 375.24834301611975,457.66307197729947 376.88305194155777,432.73992601736876 377.8976988607951,426.0184423257572 378.7432379601596,431.29818835652605 380.4343161588886,456.4241590122777 381.6744401712898,462.4173704499732 381.8435479911627,109.95705847854258 382.8581949104001,449.90034725868196 384.43653456254714,428.565333698747 385.50755075507544,428.81255775590733 387.3113675003864,453.33660800518464 388.2132758730418,461.6787213286835 389.11518424569726,459.6511322208304 389.62250770531597,454.1887032842429 391.3135859040449,430.8193830838104 392.38460209657325,428.1737983315157 393.0610333760648,433.9759726571972 394.80848084808474,457.75481518724274 395.8794970406131,460.9856407027104 396.6122975933957,454.9809382235601 398.30337579212465,432.20825377464246 399.318022711362,428.2558438701161 400.10719253743554,433.9434881125118 401.7419014628735,455.7808751821087 402.7565483821109,460.89738912717854 403.6020874814754,455.6336282700549 405.23679640691336,434.19288430286264 406.1950740528598,428.6203405928614 407.0406131522243,432.80631974598106 408.7316913509532,454.37372511380835 409.9718153633545,460.03810892893216 410.02818463664545,108.22955350530984 411.15557010246476,449.65023882338426 412.7339097546118,431.0465358925766 413.80492594714013,430.7973056521266 415.608742692451,451.6816109452824 416.51065106510646,459.1616959107579 417.4125594377619,457.79985482976707 417.9198828973806,453.2610498496456 419.66733036940053,432.60069025718207 420.68197728863794,430.33859388049416 421.41477784142046,435.6700373700966 423.10585604014943,455.60927674599645 424.1205029593868,458.9646580039958 424.9096727854603,453.9041790654291 426.6007509841893,434.26548446806555 427.61539790342664,430.4748984022451 428.4045677295002,435.0875436174306 430.09564592822915,454.39665605811757 431.05392357417554,458.6512642549433 431.89946267354003,454.42706477102524 433.53417159897805,436.00244360132194 434.49244924492444,430.87333576062446 435.33798834428893,434.16432397603467 437.08543581630886,453.1929103693519 438.2128212821282,106.42366789772466 438.26919055541913,457.96232447902923 439.39657602123845,449.98576454267027 441.03128494667646,433.1605641264157 442.10230113920477,432.54909391293637 442.83510169198735,438.29588680044816 444.5261798907163,455.61122566183377 445.54082680995367,456.93338755567487 446.21725808944524,452.39806894056346 447.96470556146517,434.5363680944548 448.9793524807026,432.23299385221725 449.7121530334851,436.5968741478968 451.40323123221407,453.79708203351265 452.4178781514515,457.02668825791375 453.20704797752495,452.91770657157156 454.8981261762539,435.9999168656928 455.91277309549133,432.40665627664555 456.7019429215648,436.12946427729827 458.3930211202938,452.740680126699 459.35129876624023,456.7023780553696 460.19683786560466,453.3338435513222 461.88791606433364,437.051850533082 462.8461937102801,432.7927371733198 463.6917328096446,435.76357572305443 465.3828110083735,451.6951947633502 466.3974579276109,104.62210240969618 466.56656574748376,456.1535797185637 467.6939512133031,449.5816560171246 469.38502941203205,434.66908756203225 470.39967633126946,434.09265211538514 471.132476884052,438.8595854564492 472.82355508278096,453.87221574010846 473.8945712753093,455.14707437083075 474.5710025548009,451.15590094527454 476.26208075352986,436.17531536275305 477.33309694605816,434.0157721288541 478.06589749884074,437.86964850139265 479.7569756975697,452.64061221097575 480.77162261680706,455.2625787132241 481.5607924428806,451.61803667382424 483.25187064160957,437.0791348024594 484.2665175608469,434.1395546475699 485.05568738692045,437.4523996140909 486.6903963123585,451.3494428499697 487.7050432315958,455.0084688354951 488.5505823309603,451.99118772310277 490.18529125639833,438.37392128802605 491.1435689023447,434.4638730938643 491.9891080017092,436.7889698952058 493.6801862004382,450.4424584171467 494.5820945730936,102.88597402421864 494.86394093954846,454.579447671016 495.9913264053678,449.1813728477272 497.6824046040967,436.2251718578439 498.75342079662505,435.6341167020589 499.4298520761166,439.39487517522633 501.1209302748456,452.39637842760885 502.19194646737395,453.77870021957955 502.8683777468655,450.495038749467 504.61582521888545,437.2561051827832 505.63047213812285,435.42783748903145 506.3632726909054,438.57690098714744 508.05435088963435,451.31229546435856 509.06899780887176,453.82047983417294 509.85816763494523,450.8675288824024 511.5492458336742,438.34932167125544 512.5638927529116,435.57598481687677 513.3530625789851,438.24305407663354 515.0441407777141,450.52650012718794 516.0024184236605,453.5615275094347 516.847957523025,451.1634635028662 518.482666448463,439.48029386553526 519.4409440944094,435.9085617781097 520.2864831937738,437.7082640425244 521.9775613925028,449.3966310171279 522.7667312185763,101.2582987330828 523.1613161316131,453.2111325061171 524.2887015974325,448.79211332596816 525.9797797961613,437.5486794664786 527.0507959886897,436.7883061078515 527.6708579948903,439.55659162276794 529.4183054669103,451.14547838017364 530.4893216594386,452.57902146053107 531.2221222122212,449.5610009479314 532.9132004109501,438.45886161083394 533.9278473301875,436.66110135170567 534.717017156261,439.5327001744176 536.351726081699,450.1927397104216 537.3663730009364,452.5653947925732 538.1555428270099,450.1846148335915 539.8466210257388,439.4178073313106 540.8048986716852,436.8103815529707 541.6504377710497,438.95889455942745 543.3415159697787,449.5093966085958 544.2997936157251,452.30815973476035 545.1453327150896,450.41735741373355 546.8364109138186,440.09675787349084 547.738319286474,437.1561249564328 548.5838583858385,438.53023514988604 550.2749365845675,448.5253081114482 550.9513678640591,99.76719695835588 551.4586913236777,452.0231145911516 552.586076789497,448.4189780456913 554.277154988226,438.67300658773354 555.3481711807543,437.80291326969206 556.024602460246,440.3675375009127 557.7720499322659,450.3092812313769 558.7866968515033,451.5287209394299 559.5194974042859,449.05562350000326 561.2105756030148,439.4752113738436 562.2252225222521,437.7368217351828 563.0143923483257,440.0717600512027 564.7054705470547,449.4990462370532 565.720117466292,451.44211262185485 566.5092872923656,449.32229627625514 568.1439962178035,440.31517807886365 569.1586431370409,437.9077216137839 570.0041822364054,439.83367246938525 571.6388911618434,448.6570192276446 572.5971688077898,451.22367721649164 573.4427079071543,449.74691460148625 575.1337861058832,440.9040482420298 576.0356944785387,438.2322934921926 576.9376028511941,439.4507862648673 578.5723117766321,447.800940855082 579.1360045095417,98.42878276770021 579.7560665157424,450.9928207953533 580.8834519815617,448.06541105084426 582.5745301802907,439.62694096836236 583.645546372819,438.69347199669255 584.3219776523106,440.8021502982697 586.0694251243306,449.39083411161994 587.084072043568,450.6104477864333 587.8168725963504,448.5911754796099 589.5643200683704,440.12781501726704 590.5789669876078,438.7197460454802 591.3681368136813,440.7891938823217 593.0028457391193,448.67927543644385 594.0174926583567,450.5089541269515 594.8066624844301,448.8042673764981 596.4977406831591,440.84338631555596 597.4560183291055,438.847093944027 598.30155742847,440.3754858901031 599.992635627199,448.1713981452536 600.8945439998545,450.28635554055774 601.740083099219,449.1461801866047 603.4875305712388,441.3476478938444 604.3894389438943,439.1142968660324 605.2349780432588,440.06949331226605 606.8696869686968,447.20013709160673 607.3206411550245,97.24971902789683 608.0534417078071,450.1003202281558 609.1808271736264,447.7335601607464 610.9282746456463,440.2730329759351 611.9429215648837,439.47401528865277 612.6757221176663,441.41180230520075 614.3668003163951,448.61388232100336 615.3814472356325,449.8086611884778 616.1706170617061,447.9676618632989 617.8616952604351,440.87295123885065 618.8763421796724,439.5203723074264 619.665512005746,441.19960622791734 621.356590204475,448.17641332716937 622.3148678504214,449.6982308333391 623.1604069497859,448.1583199015653 624.7951158752238,441.49932810735936 625.7533935211702,439.66061148009953 626.5989326205347,440.86355402774126 628.2900108192637,447.54900395035287 629.1919191919192,449.477108020432 630.0374582912835,448.6093211576551 631.7285364900125,442.1387666339273 632.686814135959,439.9111082411304 633.5323532353234,440.62072050952855 635.1670621607615,446.7030591220702 635.5052778005072,96.22943680925847 636.3508168998717,449.3280450244583 637.478202365691,447.42457011711787 639.225649837711,440.97378356206286 640.2402967569484,440.1571784189416 640.9730973097309,441.74397244627016 642.6641755084598,447.9575300906656 643.6788224276972,449.1094777428503 644.4679922537707,447.6138348523789 646.1590704524997,441.5012816545157 647.1737173717371,440.2174465714956 647.9628871978106,441.5735783800467 649.6539653965395,447.5763616375302 650.6122430424859,448.99469519230587 651.4577821418504,447.7657001777961 653.1488603405794,441.88090862133583 654.1071379865258,440.3546154841449 654.9526770858903,441.43987460244927 656.5873860113284,447.0288098342684 657.5456636572748,448.80791579209404 658.3912027566392,448.01035602889164 660.0259116820772,442.60496570504995 660.9841893280236,440.5973620206677 661.8297284273881,441.1107346224289 663.464437352826,446.2929053422214 663.68991444599,95.36202938968673 664.6481920919364,448.6605353779994 665.7755775577557,447.13882002367575 667.5230250297756,441.5672078491089 668.594041222304,440.8010478667552 669.3268417750866,442.20206970578676 671.0179199738154,447.5376948950231 672.0325668930528,448.4721155050344 672.8217367191264,447.14590877991 674.4564456445644,442.0303230637209 675.4710925638018,440.8236316402449 676.3166316631663,442.0500209894462 677.9513405886042,447.0721394384102 678.9659875078416,448.38236935567886 679.8115266072061,447.28202273940786 681.4462355326441,442.3601906112638 682.4045131785905,440.9580722635178 683.250052277955,441.80846570566564 684.941130476684,446.74471731258546 685.8430388493393,448.2084931096045 686.6885779487038,447.60634944674 688.3232868741419,442.9914506678997 689.2251952467973,441.2336458332133 690.1271036194528,441.5454255509302 690.7471656256533,442.9044671124362 691.8181818181818,446.11553467517547" fill="none" stroke="#1F77B4" stroke-width="1.5" />
</g>
<g class="spine">
<line x1="100" y1="534" x2="720" y2="534" stroke="#262626" stroke-width="0.8" />
</g>
<g class="spine">
<line x1="100" y1="72" x2="720" y2="72" stroke="#262626" stroke-width="0.8" />
</g>
<g class="spine">
<line x1="100" y1="72" x2="100" y2="534" stroke="#262626" stroke-width="0.8" />
</g>
<g class="spine">
<line x1="720" y1="72" x2="720" y2="534" stroke="#262626" stroke-width="0.8" />
</g>
<rect x="612.4475330776638" y="82" width="97.55246692233615" height="25.72222222222222" fill="#FFFFFF" fill-opacity="0.8" stroke="#CCCCCC" stroke-width="0.5" />
<g class="legend" aria-label="Chart legend">
<line x1="620.4475330776638" y1="94.86111111111111" x2="648.2253108554416" y2="94.86111111111111" stroke="#1F77B4" stroke-width="1.5" />
<path d="M7.43273 -9.79275L7.43273 -8.45676Q6.65283 -8.82975 5.9611 -9.01286Q5.26937 -9.19596 4.62511 -9.19596Q3.50613 -9.19596 2.89917 -8.76194Q2.29221 -8.32791 2.29221 -7.52767Q2.29221 -6.85628 2.69572 -6.51381Q3.09923 -6.17133 4.22499 -5.9611L5.05235 -5.79156Q6.58501 -5.49995 7.31405 -4.76413Q8.04308 -4.02832 8.04308 -2.79405Q8.04308 -1.32243 7.05634 -0.56288Q6.06961 0.196669 4.16395 0.196669Q3.4451 0.196669 2.63468 0.0339084Q1.82427 -0.128852 0.956217 -0.447591L0.956217 -1.85818Q1.79036 -1.39025 2.5906 -1.15289Q3.39084 -0.915527 4.16395 -0.915527Q5.33719 -0.915527 5.97466 -1.37668Q6.61214 -1.83784 6.61214 -2.69233Q6.61214 -3.43831 6.15438 -3.85878Q5.69661 -4.27924 4.65224 -4.48947L3.81809 -4.65224Q2.28543 -4.95741 1.60048 -5.60845Q0.915527 -6.25949 0.915527 -7.41916Q0.915527 -8.76194 1.86157 -9.53505Q2.80762 -10.3082 4.46913 -10.3082Q5.18121 -10.3082 5.92041 -10.1793Q6.65961 -10.0505 7.43273 -9.79275ZM10.1251 -7.59549L11.3729 -7.59549L11.3729 0L10.1251 0L10.1251 -7.59549ZM10.1251 -10.5523L11.3729 -10.5523L11.3729 -8.97217L10.1251 -8.97217L10.1251 -10.5523ZM18.9819 -3.88591Q18.9819 -5.24224 18.4224 -5.98823Q17.863 -6.73421 16.8525 -6.73421Q15.8488 -6.73421 15.2893 -5.98823Q14.7298 -5.24224 14.7298 -3.88591Q14.7298 -2.53635 15.2893 -1.79036Q15.8488 -1.04438 16.8525 -1.04438Q17.863 -1.04438 18.4224 -1.79036Q18.9819 -2.53635 18.9819 -3.88591ZM20.2298 -0.942654Q20.2298 0.996908 19.3685 1.94295Q18.5072 2.889 16.7304 2.889Q16.0726 2.889 15.4894 2.79066Q14.9061 2.69233 14.3568 2.48888L14.3568 1.27496Q14.9061 1.57335 15.4419 1.71577Q15.9776 1.85818 16.5337 1.85818Q17.7612 1.85818 18.3716 1.21731Q18.9819 0.576443 18.9819 -0.718859L18.9819 -1.33599Q18.5954 -0.664605 17.9918 -0.332303C17.5894 -0.110768 17.1079 0 16.5473 0Q15.1503 0 14.2958 -1.06472Q13.4413 -2.12945 13.4413 -3.88591Q13.4413 -5.64914 14.2958 -6.71387Q15.1503 -7.77859 16.5473 -7.77859Q17.3882 -7.77859 17.9918 -7.44629Q18.5954 -7.11399 18.9819 -6.4426L18.9819 -7.59549L20.2298 -7.59549L20.2298 -0.942654ZM29.1138 -4.58442L29.1138 0L27.8659 0L27.8659 -4.54373Q27.8659 -5.62202 27.4455 -6.15777Q27.025 -6.69352 26.1841 -6.69352Q25.1736 -6.69352 24.5904 -6.04926Q24.0072 -5.405 24.0072 -4.29281L24.0072 0L22.7526 0L22.7526 -7.59549L24.0072 -7.59549L24.0072 -6.41547Q24.4548 -7.10042 25.0617 -7.43951Q25.6687 -7.77859 26.4621 -7.77859Q27.771 -7.77859 28.4424 -6.96818Q29.1138 -6.15777 29.1138 -4.58442ZM35.0545 -3.81809Q33.5422 -3.81809 32.959 -3.47222Q32.3758 -3.12636 32.3758 -2.29221Q32.3758 -1.6276 32.8132 -1.23766Q33.2506 -0.84771 34.0034 -0.847711Q35.041 -0.847711 35.6683 -1.58352Q36.2956 -2.31934 36.2956 -3.54004L36.2956 -3.81809L35.0545 -3.81809ZM37.5434 -4.3335L37.5434 0L36.2956 0L36.2956 -1.15289Q35.8683 -0.461155 35.2309 -0.132243Q34.5934 0.196669 33.6711 0.196669Q32.5046 0.196669 31.8163 -0.457764Q31.1279 -1.1122 31.1279 -2.21083Q31.1279 -3.49257 31.9858 -4.14361Q32.8437 -4.79465 34.5459 -4.79465L36.2956 -4.79465L36.2956 -4.91672Q36.2956 -5.77799 35.7293 -6.24932Q35.163 -6.72065 34.139 -6.72065Q33.488 -6.72065 32.8708 -6.56467Q32.2537 -6.40869 31.684 -6.09673L31.684 -7.24962Q32.369 -7.51411 33.0132 -7.64635Q33.6575 -7.77859 34.2679 -7.77859Q35.9158 -7.77859 36.7296 -6.9241Q37.5434 -6.06961 37.5434 -4.3335ZM40.1137 -10.5523L41.3615 -10.5523L41.3615 0L40.1137 0L40.1137 -10.5523Z" fill="#262626" transform="translate(659.3364219665527,98.72222222222223)" />
</g>
<path d="M1.86198 -2.06369L4.49978 -2.06369L4.49978 -9.5504L1.79216 -8.99181L1.79216 -11.0245L4.48427 -11.5831L7.32378 -11.5831L7.32378 -2.06369L9.96159 -2.06369L9.96159 0L1.86198 0L1.86198 -2.06369ZM18.3638 -5.80317Q18.3638 -7.97548 17.9565 -8.8638Q17.5492 -9.75212 16.5871 -9.75212Q15.6251 -9.75212 15.2139 -8.8638Q14.8027 -7.97548 14.8027 -5.80317Q14.8027 -3.60758 15.2139 -2.70763Q15.6251 -1.80767 16.5871 -1.80767Q17.5414 -1.80767 17.9526 -2.70763Q18.3638 -3.60758 18.3638 -5.80317ZM21.3507 -5.77989Q21.3507 -2.90158 20.1094 -1.3383Q18.8681 0.224989 16.5871 0.224989Q14.2984 0.224989 13.0571 -1.3383Q11.8158 -2.90158 11.8158 -5.77989Q11.8158 -8.66596 13.0571 -10.2292Q14.2984 -11.7925 16.5871 -11.7925Q18.8681 -11.7925 20.1094 -10.2292Q21.3507 -8.66596 21.3507 -5.77989ZM34.9509 -5.80317Q34.9509 -7.97548 34.5436 -8.8638Q34.1363 -9.75212 33.1743 -9.75212Q32.2122 -9.75212 31.8011 -8.8638Q31.3899 -7.97548 31.3899 -5.80317Q31.3899 -3.60758 31.8011 -2.70763Q32.2122 -1.80767 33.1743 -1.80767Q34.1285 -1.80767 34.5397 -2.70763Q34.9509 -3.60758 34.9509 -5.80317ZM37.9378 -5.77989Q37.9378 -2.90158 36.6965 -1.3383Q35.4552 0.224989 33.1743 0.224989Q30.8856 0.224989 29.6443 -1.3383Q28.4029 -2.90158 28.4029 -5.77989Q28.4029 -8.66596 29.6443 -10.2292Q30.8856 -11.7925 33.1743 -11.7925Q35.4552 -11.7925 36.6965 -10.2292Q37.9378 -8.66596 37.9378 -5.77989ZM46.0064 -5.80317Q46.0064 -7.97548 45.5991 -8.8638Q45.1918 -9.75212 44.2298 -9.75212Q43.2677 -9.75212 42.8566 -8.8638Q42.4454 -7.97548 42.4454 -5.80317Q42.4454 -3.60758 42.8566 -2.70763Q43.2677 -1.80767 44.2298 -1.80767Q45.184 -1.80767 45.5952 -2.70763Q46.0064 -3.60758 46.0064 -5.80317ZM48.9933 -5.77989Q48.9933 -2.90158 47.752 -1.3383Q46.5107 0.224989 44.2298 0.224989Q41.9411 0.224989 40.6998 -1.3383Q39.4584 -2.90158 39.4584 -5.77989Q39.4584 -8.66596 40.6998 -10.2292Q41.9411 -11.7925 44.2298 -11.7925Q46.5107 -11.7925 47.752 -10.2292Q48.9933 -8.66596 48.9933 -5.77989ZM57.0619 -5.80317Q57.0619 -7.97548 56.6546 -8.8638Q56.2473 -9.75212 55.2853 -9.75212Q54.3232 -9.75212 53.9121 -8.8638Q53.5009 -7.97548 53.5009 -5.80317Q53.5009 -3.60758 53.9121 -2.70763Q54.3232 -1.80767 55.2853 -1.80767Q56.2395 -1.80767 56.6507 -2.70763Q57.0619 -3.60758 57.0619 -5.80317ZM60.0488 -5.77989Q60.0488 -2.90158 58.8075 -1.3383Q57.5662 0.224989 55.2853 0.224989Q52.9966 0.224989 51.7553 -1.3383Q50.5139 -2.90158 50.5139 -5.77989Q50.5139 -8.66596 51.7553 -10.2292Q52.9966 -11.7925 55.2853 -11.7925Q57.5662 -11.7925 58.8075 -10.2292Q60.0488 -8.66596 60.0488 -5.77989ZM61.6703 -5.70231L66.5425 -5.70231L66.5425 -3.44466L61.6703 -3.44466L61.6703 -5.70231ZM71.5155 -1.25684L71.5155 3.30501L68.7381 3.30501L68.7381 -8.68924L71.5155 -8.68924L71.5155 -7.41688Q72.0896 -8.17719 72.7879 -8.53795Q73.4861 -8.89871 74.3938 -8.89871Q75.9998 -8.89871 77.0316 -7.62248Q78.0635 -6.34625 78.0635 -4.33686Q78.0635 -2.32747 77.0316 -1.05124Q75.9998 0.224989 74.3938 0.224989Q73.4861 0.224989 72.7879 -0.135769Q72.0896 -0.496528 71.5155 -1.25684ZM73.362 -6.88156Q72.4698 -6.88156 71.9927 -6.22599Q71.5155 -5.57042 71.5155 -4.33686Q71.5155 -3.1033 71.9927 -2.44773Q72.4698 -1.79215 73.362 -1.79216Q74.2542 -1.79215 74.7236 -2.44385Q75.1929 -3.09554 75.1929 -4.33686Q75.1929 -5.57818 74.7236 -6.22987Q74.2542 -6.88156 73.362 -6.88156ZM84.2468 -6.9126Q83.3236 -6.9126 82.8387 -6.24927Q82.3538 -5.58594 82.3538 -4.33686Q82.3538 -3.08778 82.8387 -2.42445Q83.3236 -1.76112 84.2468 -1.76112Q85.1545 -1.76112 85.6355 -2.42445Q86.1165 -3.08778 86.1165 -4.33686Q86.1165 -5.58594 85.6355 -6.24927Q85.1545 -6.9126 84.2468 -6.9126ZM84.2468 -8.89871Q86.4889 -8.89871 87.7497 -7.68842Q89.0104 -6.47814 89.0104 -4.33686Q89.0104 -2.19558 87.7497 -0.985297Q86.4889 0.224989 84.2468 0.224989Q81.9969 0.224989 80.7284 -0.985297Q79.46 -2.19558 79.46 -4.33686Q79.46 -6.47814 80.7284 -7.68842Q81.9969 -8.89871 84.2468 -8.89871ZM91.0275 -8.68924L93.805 -8.68924L93.805 0L91.0275 0L91.0275 -8.68924ZM91.0275 -12.0718L93.805 -12.0718L93.805 -9.80642L91.0275 -9.80642L91.0275 -12.0718ZM105.21 -5.29112L105.21 0L102.417 0L102.417 -0.861165L102.417 -4.0498Q102.417 -5.17475 102.366 -5.60145Q102.316 -6.02816 102.192 -6.22987Q102.029 -6.50141 101.749 -6.6527Q101.47 -6.80398 101.113 -6.80398Q100.244 -6.80398 99.7478 -6.13289Q99.2513 -5.46181 99.2513 -4.27479L99.2513 0L96.4738 0L96.4738 -8.68924L99.2513 -8.68924L99.2513 -7.41688Q99.8797 -8.17719 100.586 -8.53795Q101.292 -8.89871 102.145 -8.89871Q103.65 -8.89871 104.43 -7.97548Q105.21 -7.05225 105.21 -5.29112ZM110.819 -11.1564L110.819 -8.68924L113.682 -8.68924L113.682 -6.70313L110.819 -6.70313L110.819 -3.01796Q110.819 -2.41281 111.059 -2.19946Q111.3 -1.98611 112.014 -1.98611L113.441 -1.98611L113.441 0L111.059 0Q109.415 0 108.728 -0.686605Q108.041 -1.37321 108.041 -3.01796L108.041 -6.70313L106.66 -6.70313L106.66 -8.68924L108.041 -8.68924L108.041 -11.1564L110.819 -11.1564ZM127.701 -8.4177L127.701 -6.30745Q126.809 -6.67985 125.978 -6.86605Q125.148 -7.05225 124.411 -7.05225Q123.62 -7.05225 123.236 -6.85441Q122.852 -6.65657 122.852 -6.24539Q122.852 -5.91178 123.143 -5.73334Q123.434 -5.5549 124.186 -5.46956L124.675 -5.39974Q126.809 -5.1282 127.546 -4.50754Q128.283 -3.88688 128.283 -2.56022Q128.283 -1.1715 127.259 -0.473253Q126.234 0.224989 124.202 0.224989Q123.341 0.224989 122.421 0.0892198Q121.502 -0.0465495 120.532 -0.318088L120.532 -2.42833Q121.362 -2.0249 122.235 -1.82319Q123.108 -1.62147 124.008 -1.62147Q124.822 -1.62147 125.234 -1.84646Q125.645 -2.07145 125.645 -2.51367Q125.645 -2.88607 125.362 -3.06839Q125.078 -3.25071 124.233 -3.35156L123.744 -3.41363Q121.89 -3.64638 121.145 -4.27479Q120.4 -4.90321 120.4 -6.18332Q120.4 -7.56429 121.347 -8.2315Q122.293 -8.89871 124.248 -8.89871Q125.016 -8.89871 125.862 -8.78234Q126.708 -8.66596 127.701 -8.4177ZM130.37 -8.68924L133.147 -8.68924L133.147 0L130.37 0L130.37 -8.68924ZM130.37 -12.0718L133.147 -12.0718L133.147 -9.80642L130.37 -9.80642L130.37 -12.0718ZM141.728 -1.47407Q141.154 -0.713759 140.463 -0.356879Q139.773 0 138.865 0Q137.274 0 136.235 -1.25296Q135.195 -2.50591 135.195 -4.44548Q135.195 -6.3928 136.235 -7.63799Q137.274 -8.88319 138.865 -8.88319Q139.773 -8.88319 140.463 -8.52631Q141.154 -8.16943 141.728 -7.40137L141.728 -8.68924L144.521 -8.68924L144.521 -0.876682Q144.521 1.21804 143.198 2.32359Q141.875 3.42915 139.361 3.42915Q138.547 3.42915 137.786 3.30501Q137.026 3.18088 136.258 2.92486L136.258 0.760308Q136.987 1.17925 137.686 1.38485Q138.384 1.59044 139.09 1.59044Q140.455 1.59044 141.091 0.993056Q141.728 0.395671 141.728 -0.876682L141.728 -1.47407ZM139.897 -6.88156Q139.036 -6.88156 138.555 -6.24539Q138.074 -5.60921 138.074 -4.44548Q138.074 -3.25071 138.539 -2.63392Q139.005 -2.01714 139.897 -2.01714Q140.766 -2.01714 141.247 -2.65332Q141.728 -3.2895 141.728 -4.44548Q141.728 -5.60921 141.247 -6.24539Q140.766 -6.88156 139.897 -6.88156ZM155.925 -5.29112L155.925 0L153.132 0L153.132 -0.861165L153.132 -4.0498Q153.132 -5.17475 153.082 -5.60145Q153.031 -6.02816 152.907 -6.22987Q152.744 -6.50141 152.465 -6.6527Q152.186 -6.80398 151.829 -6.80398Q150.96 -6.80398 150.463 -6.13289Q149.967 -5.46181 149.967 -4.27479L149.967 0L147.189 0L147.189 -8.68924L149.967 -8.68924L149.967 -7.41688Q150.595 -8.17719 151.301 -8.53795Q152.007 -8.89871 152.861 -8.89871Q154.366 -8.89871 155.146 -7.97548Q155.925 -7.05225 155.925 -5.29112ZM162.396 -3.91016Q161.527 -3.91016 161.088 -3.61534Q160.65 -3.32053 160.65 -2.74642Q160.65 -2.21886 161.003 -1.92017Q161.356 -1.62147 161.984 -1.62147Q162.768 -1.62147 163.303 -2.18395Q163.839 -2.74642 163.839 -3.59207L163.839 -3.91016L162.396 -3.91016ZM166.639 -4.95752L166.639 0L163.839 0L163.839 -1.28787Q163.28 -0.496528 162.582 -0.135769Q161.884 0.224989 160.883 0.224989Q159.533 0.224989 158.691 -0.562473Q157.849 -1.34993 157.849 -2.60677Q157.849 -4.13515 158.901 -4.8489Q159.952 -5.56266 162.202 -5.56266L163.839 -5.56266L163.839 -5.77989Q163.839 -6.43934 163.319 -6.7458Q162.799 -7.05225 161.697 -7.05225Q160.805 -7.05225 160.037 -6.87381Q159.269 -6.69537 158.61 -6.33849L158.61 -8.45649Q159.502 -8.67372 160.402 -8.78621Q161.302 -8.89871 162.202 -8.89871Q164.552 -8.89871 165.596 -7.9716Q166.639 -7.04449 166.639 -4.95752ZM169.223 -12.0718L172 -12.0718L172 0L169.223 0L169.223 -12.0718ZM184.856 2.09473L182.552 2.09473Q181.365 0.17844 180.798 -1.54777Q180.232 -3.27398 180.232 -4.97304Q180.232 -6.67209 180.802 -8.41382Q181.372 -10.1555 182.552 -12.0563L184.856 -12.0563Q183.863 -10.2176 183.366 -8.46037Q182.87 -6.70312 182.87 -4.98855Q182.87 -3.27398 183.362 -1.51286Q183.855 0.248264 184.856 2.09473ZM187.587 -11.5831L190.574 -11.5831L190.574 -2.25765L195.818 -2.25765L195.818 0L187.587 0L187.587 -11.5831ZM196.33 -11.5831L207.006 -11.5831L207.006 -9.32541L203.165 -9.32541L203.165 0L200.178 0L200.178 -9.32541L196.33 -9.32541L196.33 -11.5831ZM207.168 -11.5831L217.844 -11.5831L217.844 -9.32541L214.003 -9.32541L214.003 0L211.017 0L211.017 -9.32541L207.168 -9.32541L207.168 -11.5831ZM224.027 -7.0988Q224.733 -7.09879 225.098 -7.40913Q225.462 -7.71946 225.462 -8.3246Q225.462 -8.92198 225.098 -9.23619Q224.733 -9.5504 224.027 -9.5504L222.375 -9.5504L222.375 -7.0988L224.027 -7.0988ZM224.128 -2.03266Q225.028 -2.03266 225.482 -2.41281Q225.936 -2.79297 225.936 -3.56104Q225.936 -4.31358 225.486 -4.68986Q225.036 -5.06613 224.128 -5.06613L222.375 -5.06613L222.375 -2.03266L224.128 -2.03266ZM226.905 -6.19884Q227.867 -5.91954 228.395 -5.16699Q228.923 -4.41444 228.923 -3.32053Q228.923 -1.64475 227.79 -0.822374Q226.657 0 224.345 0L219.388 0L219.388 -11.5831L223.872 -11.5831Q226.285 -11.5831 227.367 -10.8538Q228.449 -10.1245 228.449 -8.51855Q228.449 -7.6729 228.054 -7.0794Q227.658 -6.48589 226.905 -6.19884ZM248.109 -5.52387L248.109 -4.43772L245.06 -1.38873L243.935 -2.51343L245.471 -4.0498L236.479 -4.0498L236.479 -5.91178L245.471 -5.91178L243.935 -7.44804L245.06 -8.57286L248.109 -5.52387ZM256.1 -11.5831L263.524 -11.5831L263.524 -9.38748L258.482 -9.38748L258.482 -7.59532Q258.823 -7.68842 259.168 -7.73885Q259.513 -7.78928 259.886 -7.78928Q262.004 -7.78928 263.183 -6.73028Q264.362 -5.67128 264.362 -3.77827Q264.362 -1.90077 263.078 -0.837891Q261.794 0.224989 259.513 0.224989Q258.528 0.224989 257.562 0.0349121Q256.596 -0.155165 255.642 -0.543077L255.642 -2.89383Q256.589 -2.35075 257.438 -2.07921Q258.288 -1.80767 259.04 -1.80767Q260.126 -1.80767 260.751 -2.33911Q261.375 -2.87055 261.375 -3.77827Q261.375 -4.69374 260.751 -5.2213Q260.126 -5.74886 259.04 -5.74886Q258.396 -5.74886 257.667 -5.58206Q256.938 -5.41526 256.1 -5.06613L256.1 -11.5831ZM272.78 -5.80317Q272.78 -7.97548 272.373 -8.8638Q271.965 -9.75212 271.003 -9.75212Q270.041 -9.75212 269.63 -8.8638Q269.219 -7.97548 269.219 -5.80317Q269.219 -3.60758 269.63 -2.70763Q270.041 -1.80767 271.003 -1.80767Q271.958 -1.80767 272.369 -2.70763Q272.78 -3.60758 272.78 -5.80317ZM275.767 -5.77989Q275.767 -2.90158 274.526 -1.3383Q273.284 0.224989 271.003 0.224989Q268.715 0.224989 267.473 -1.3383Q266.232 -2.90158 266.232 -5.77989Q266.232 -8.66596 267.473 -10.2292Q268.715 -11.7925 271.003 -11.7925Q273.284 -11.7925 274.526 -10.2292Q275.767 -8.66596 275.767 -5.77989ZM283.835 -5.80317Q283.835 -7.97548 283.428 -8.8638Q283.021 -9.75212 282.059 -9.75212Q281.097 -9.75212 280.686 -8.8638Q280.274 -7.97548 280.274 -5.80317Q280.274 -3.60758 280.686 -2.70763Q281.097 -1.80767 282.059 -1.80767Q283.013 -1.80767 283.424 -2.70763Q283.835 -3.60758 283.835 -5.80317ZM286.822 -5.77989Q286.822 -2.90158 285.581 -1.3383Q284.34 0.224989 282.059 0.224989Q279.77 0.224989 278.529 -1.3383Q277.288 -2.90158 277.288 -5.77989Q277.288 -8.66596 278.529 -10.2292Q279.77 -11.7925 282.059 -11.7925Q284.34 -11.7925 285.581 -10.2292Q286.822 -8.66596 286.822 -5.77989ZM300.361 -7.41688L300.361 -12.0718L303.154 -12.0718L303.154 0L300.361 0L300.361 -1.25684Q299.786 -0.48877 299.096 -0.13189Q298.405 0.224989 297.498 0.224989Q295.892 0.224989 294.86 -1.05124Q293.828 -2.32747 293.828 -4.33686Q293.828 -6.34625 294.86 -7.62248Q295.892 -8.89871 297.498 -8.89871Q298.398 -8.89871 299.092 -8.53795Q299.786 -8.17719 300.361 -7.41688ZM298.53 -1.79216Q299.422 -1.79215 299.891 -2.44385Q300.361 -3.09554 300.361 -4.33686Q300.361 -5.57818 299.891 -6.22987Q299.422 -6.88156 298.53 -6.88156Q297.645 -6.88156 297.176 -6.22987Q296.706 -5.57818 296.706 -4.33686Q296.706 -3.09554 297.176 -2.44385Q297.645 -1.79216 298.53 -1.79216ZM305.822 -8.68924L308.6 -8.68924L308.6 0L305.822 0L305.822 -8.68924ZM305.822 -12.0718L308.6 -12.0718L308.6 -9.80642L305.822 -9.80642L305.822 -12.0718ZM318.057 -8.4177L318.057 -6.30745Q317.165 -6.67985 316.335 -6.86605Q315.505 -7.05225 314.768 -7.05225Q313.976 -7.05225 313.592 -6.85441Q313.208 -6.65657 313.208 -6.24539Q313.208 -5.91178 313.499 -5.73334Q313.79 -5.5549 314.543 -5.46956L315.031 -5.39974Q317.165 -5.1282 317.902 -4.50754Q318.639 -3.88688 318.639 -2.56022Q318.639 -1.1715 317.615 -0.473253Q316.591 0.224989 314.558 0.224989Q313.697 0.224989 312.778 0.0892198Q311.858 -0.0465495 310.888 -0.318088L310.888 -2.42833Q311.719 -2.0249 312.591 -1.82319Q313.464 -1.62147 314.364 -1.62147Q315.179 -1.62147 315.59 -1.84646Q316.001 -2.07145 316.001 -2.51367Q316.001 -2.88607 315.718 -3.06839Q315.435 -3.25071 314.589 -3.35156L314.1 -3.41363Q312.246 -3.64638 311.501 -4.27479Q310.757 -4.90321 310.757 -6.18332Q310.757 -7.56429 311.703 -8.2315Q312.65 -8.89871 314.605 -8.89871Q315.373 -8.89871 316.218 -8.78234Q317.064 -8.66596 318.057 -8.4177ZM323.503 -1.25684L323.503 3.30501L320.726 3.30501L320.726 -8.68924L323.503 -8.68924L323.503 -7.41688Q324.078 -8.17719 324.776 -8.53795Q325.474 -8.89871 326.382 -8.89871Q327.988 -8.89871 329.02 -7.62248Q330.051 -6.34625 330.051 -4.33686Q330.051 -2.32747 329.02 -1.05124Q327.988 0.224989 326.382 0.224989Q325.474 0.224989 324.776 -0.135769Q324.078 -0.496528 323.503 -1.25684ZM325.35 -6.88156Q324.458 -6.88156 323.981 -6.22599Q323.503 -5.57042 323.503 -4.33686Q323.503 -3.1033 323.981 -2.44773Q324.458 -1.79215 325.35 -1.79216Q326.242 -1.79215 326.711 -2.44385Q327.181 -3.09554 327.181 -4.33686Q327.181 -5.57818 326.711 -6.22987Q326.242 -6.88156 325.35 -6.88156ZM332.1 -12.0718L334.877 -12.0718L334.877 0L332.1 0L332.1 -12.0718ZM341.44 -3.91016Q340.572 -3.91016 340.133 -3.61534Q339.695 -3.32053 339.695 -2.74642Q339.695 -2.21886 340.048 -1.92017Q340.401 -1.62147 341.029 -1.62147Q341.813 -1.62147 342.348 -2.18395Q342.884 -2.74642 342.884 -3.59207L342.884 -3.91016L341.44 -3.91016ZM345.684 -4.95752L345.684 0L342.884 0L342.884 -1.28787Q342.325 -0.496528 341.627 -0.135769Q340.928 0.224989 339.928 0.224989Q338.578 0.224989 337.736 -0.562473Q336.894 -1.34993 336.894 -2.60677Q336.894 -4.13515 337.945 -4.8489Q338.997 -5.56266 341.247 -5.56266L342.884 -5.56266L342.884 -5.77989Q342.884 -6.43934 342.364 -6.7458Q341.844 -7.05225 340.742 -7.05225Q339.85 -7.05225 339.082 -6.87381Q338.314 -6.69537 337.654 -6.33849L337.654 -8.45649Q338.547 -8.67372 339.447 -8.78621Q340.347 -8.89871 341.247 -8.89871Q343.597 -8.89871 344.641 -7.9716Q345.684 -7.04449 345.684 -4.95752ZM347.127 -8.68924L349.905 -8.68924L352.24 -2.79297L354.226 -8.68924L357.004 -8.68924L353.349 0.822374Q352.799 2.27317 352.065 2.85116Q351.332 3.42915 350.13 3.42915L348.524 3.42915L348.524 1.60596L349.393 1.60596Q350.099 1.60596 350.421 1.38097Q350.743 1.15598 350.921 0.57411L350.999 0.333605L347.127 -8.68924ZM366.934 -1.25684L366.934 3.30501L364.157 3.30501L364.157 -8.68924L366.934 -8.68924L366.934 -7.41688Q367.508 -8.17719 368.206 -8.53795Q368.905 -8.89871 369.812 -8.89871Q371.418 -8.89871 372.45 -7.62248Q373.482 -6.34625 373.482 -4.33686Q373.482 -2.32747 372.45 -1.05124Q371.418 0.224989 369.812 0.224989Q368.905 0.224989 368.206 -0.135769Q367.508 -0.496528 366.934 -1.25684ZM368.781 -6.88156Q367.888 -6.88156 367.411 -6.22599Q366.934 -5.57042 366.934 -4.33686Q366.934 -3.1033 367.411 -2.44773Q367.888 -1.79215 368.781 -1.79216Q369.673 -1.79215 370.142 -2.44385Q370.611 -3.09554 370.611 -4.33686Q370.611 -5.57818 370.142 -6.22987Q369.673 -6.88156 368.781 -6.88156ZM379.665 -6.9126Q378.742 -6.9126 378.257 -6.24927Q377.772 -5.58594 377.772 -4.33686Q377.772 -3.08778 378.257 -2.42445Q378.742 -1.76112 379.665 -1.76112Q380.573 -1.76112 381.054 -2.42445Q381.535 -3.08778 381.535 -4.33686Q381.535 -5.58594 381.054 -6.24927Q380.573 -6.9126 379.665 -6.9126ZM379.665 -8.89871Q381.908 -8.89871 383.168 -7.68842Q384.429 -6.47814 384.429 -4.33686Q384.429 -2.19558 383.168 -0.985297Q381.908 0.224989 379.665 0.224989Q377.415 0.224989 376.147 -0.985297Q374.879 -2.19558 374.879 -4.33686Q374.879 -6.47814 376.147 -7.68842Q377.415 -8.89871 379.665 -8.89871ZM386.446 -8.68924L389.224 -8.68924L389.224 0L386.446 0L386.446 -8.68924ZM386.446 -12.0718L389.224 -12.0718L389.224 -9.80642L386.446 -9.80642L386.446 -12.0718ZM400.628 -5.29112L400.628 0L397.835 0L397.835 -0.861165L397.835 -4.0498Q397.835 -5.17475 397.785 -5.60145Q397.734 -6.02816 397.61 -6.22987Q397.447 -6.50141 397.168 -6.6527Q396.889 -6.80398 396.532 -6.80398Q395.663 -6.80398 395.166 -6.13289Q394.67 -5.46181 394.67 -4.27479L394.67 0L391.892 0L391.892 -8.68924L394.67 -8.68924L394.67 -7.41688Q395.298 -8.17719 396.004 -8.53795Q396.71 -8.89871 397.564 -8.89871Q399.069 -8.89871 399.848 -7.97548Q400.628 -7.05225 400.628 -5.29112ZM406.237 -11.1564L406.237 -8.68924L409.1 -8.68924L409.1 -6.70313L406.237 -6.70313L406.237 -3.01796Q406.237 -2.41281 406.478 -2.19946Q406.718 -1.98611 407.432 -1.98611L408.86 -1.98611L408.86 0L406.478 0Q404.833 0 404.147 -0.686605Q403.46 -1.37321 403.46 -3.01796L403.46 -6.70313L402.079 -6.70313L402.079 -8.68924L403.46 -8.68924L403.46 -11.1564L406.237 -11.1564ZM417.588 -8.4177L417.588 -6.30745Q416.695 -6.67985 415.865 -6.86605Q415.035 -7.05225 414.298 -7.05225Q413.507 -7.05225 413.123 -6.85441Q412.739 -6.65657 412.739 -6.24539Q412.739 -5.91178 413.03 -5.73334Q413.321 -5.5549 414.073 -5.46956L414.562 -5.39974Q416.695 -5.1282 417.433 -4.50754Q418.17 -3.88688 418.17 -2.56022Q418.17 -1.1715 417.145 -0.473253Q416.121 0.224989 414.089 0.224989Q413.228 0.224989 412.308 0.0892198Q411.389 -0.0465495 410.419 -0.318088L410.419 -2.42833Q411.249 -2.0249 412.122 -1.82319Q412.995 -1.62147 413.895 -1.62147Q414.709 -1.62147 415.121 -1.84646Q415.532 -2.07145 415.532 -2.51367Q415.532 -2.88607 415.249 -3.06839Q414.965 -3.25071 414.12 -3.35156L413.631 -3.41363Q411.777 -3.64638 411.032 -4.27479Q410.287 -4.90321 410.287 -6.18332Q410.287 -7.56429 411.234 -8.2315Q412.18 -8.89871 414.135 -8.89871Q414.903 -8.89871 415.749 -8.78234Q416.595 -8.66596 417.588 -8.4177ZM420.194 2.09473Q421.188 0.248264 421.684 -1.51286Q422.181 -3.27398 422.181 -4.98855Q422.181 -6.70312 421.684 -8.46037Q421.188 -10.2176 420.194 -12.0563L422.499 -12.0563Q423.678 -10.1555 424.248 -8.41382Q424.818 -6.67209 424.818 -4.97304Q424.818 -3.27398 424.252 -1.54777Q423.686 0.17844 422.499 2.09473L420.194 2.09473Z" fill="#262626" transform="translate(410,64) translate(-213.0919189453125,0)" />
<path d="M-0.0406901 -10.1251L8.52458 -10.1251L8.52458 -8.97217L4.93028 -8.97217L4.93028 0L3.5536 0L3.5536 -8.97217L-0.0406901 -8.97217L-0.0406901 -10.1251ZM9.79275 -7.59549L11.0406 -7.59549L11.0406 0L9.79275 0L9.79275 -7.59549ZM9.79275 -10.5523L11.0406 -10.5523L11.0406 -8.97217L9.79275 -8.97217L9.79275 -10.5523ZM19.5652 -6.13742Q20.0331 -6.97835 20.6841 -7.37847Q21.3352 -7.77859 22.2168 -7.77859Q23.4036 -7.77859 24.0479 -6.94784Q24.6921 -6.11708 24.6921 -4.58442L24.6921 0L23.4375 0L23.4375 -4.54373Q23.4375 -5.63558 23.0509 -6.16455Q22.6644 -6.69352 21.8709 -6.69352Q20.9011 -6.69352 20.3383 -6.04926Q19.7754 -5.405 19.7754 -4.29281L19.7754 0L18.5208 0L18.5208 -4.54373Q18.5208 -5.64236 18.1342 -6.16794Q17.7477 -6.69352 16.9406 -6.69352Q15.9844 -6.69352 15.4215 -6.04587Q14.8587 -5.39822 14.8587 -4.29281L14.8587 0L13.6041 0L13.6041 -7.59549L14.8587 -7.59549L14.8587 -6.41547Q15.2859 -7.11399 15.8827 -7.44629Q16.4795 -7.77859 17.3001 -7.77859Q18.1274 -7.77859 18.7073 -7.35813Q19.2871 -6.93766 19.5652 -6.13742ZM33.6778 -4.1097L33.6778 -3.49935L27.9405 -3.49935Q28.0219 -2.21083 28.717 -1.53605Q29.4122 -0.861274 30.6532 -0.861274Q31.3721 -0.861274 32.0468 -1.0376Q32.7216 -1.21392 33.3862 -1.56657L33.3862 -0.386556Q32.7148 -0.101725 32.0095 0.0474718Q31.3043 0.196669 30.5786 0.196669Q28.7611 0.196669 27.6998 -0.861274Q26.6385 -1.91922 26.6385 -3.72314Q26.6385 -5.58811 27.6455 -6.68335Q28.6526 -7.77859 30.3616 -7.77859Q31.8943 -7.77859 32.786 -6.79186Q33.6778 -5.80512 33.6778 -4.1097ZM32.43 -4.47591Q32.4165 -5.49995 31.857 -6.1103Q31.2975 -6.72065 30.3752 -6.72065Q29.3308 -6.72065 28.7035 -6.13064Q28.0762 -5.54064 27.9812 -4.46913L32.43 -4.47591Z" fill="#262626" transform="translate(410,577.5) translate(-17.20852279663086,0)" />
<path d="M4.74718 -8.7755L2.889 -3.73671L6.61214 -3.73671L4.74718 -8.7755ZM3.97407 -10.1251L5.52707 -10.1251L9.38585 0L7.9617 0L7.03939 -2.59739L2.47531 -2.59739L1.55301 0L0.108507 0L3.97407 -10.1251ZM16.7236 -6.13742Q17.1916 -6.97835 17.8426 -7.37847Q18.4937 -7.77859 19.3753 -7.77859Q20.5621 -7.77859 21.2063 -6.94784Q21.8506 -6.11708 21.8506 -4.58442L21.8506 0L20.596 0L20.596 -4.54373Q20.596 -5.63558 20.2094 -6.16455Q19.8229 -6.69352 19.0294 -6.69352Q18.0596 -6.69352 17.4967 -6.04926Q16.9339 -5.405 16.9339 -4.29281L16.9339 0L15.6793 0L15.6793 -4.54373Q15.6793 -5.64236 15.2927 -6.16794Q14.9061 -6.69352 14.0991 -6.69352Q13.1429 -6.69352 12.58 -6.04587Q12.0171 -5.39822 12.0171 -4.29281L12.0171 0L10.7625 0L10.7625 -7.59549L12.0171 -7.59549L12.0171 -6.41547Q12.4444 -7.11399 13.0412 -7.44629Q13.638 -7.77859 14.4586 -7.77859Q15.2859 -7.77859 15.8658 -7.35813Q16.4456 -6.93766 16.7236 -6.13742ZM25.5466 -1.13932L25.5466 2.889L24.292 2.889L24.292 -7.59549L25.5466 -7.59549L25.5466 -6.4426Q25.9399 -7.12077 26.5401 -7.44968Q27.1403 -7.77859 27.9744 -7.77859Q29.3579 -7.77859 30.2226 -6.67996Q31.0872 -5.58133 31.0872 -3.79096Q31.0872 -2.0006 30.2226 -0.901964Q29.3579 0.196669 27.9744 0.196669Q27.1403 0.196669 26.5401 -0.132243Q25.9399 -0.461155 25.5466 -1.13932ZM29.7919 -3.79096Q29.7919 -5.16764 29.2257 -5.95093Q28.6594 -6.73421 27.6693 -6.73421Q26.6791 -6.73421 26.1129 -5.95093Q25.5466 -5.16764 25.5466 -3.79096Q25.5466 -2.41428 26.1129 -1.631Q26.6791 -0.847711 27.6693 -0.847711Q28.6594 -0.847711 29.2257 -1.631Q29.7919 -2.41428 29.7919 -3.79096ZM33.1557 -10.5523L34.4035 -10.5523L34.4035 0L33.1557 0L33.1557 -10.5523ZM37.0144 -7.59549L38.2623 -7.59549L38.2623 0L37.0144 0L37.0144 -7.59549ZM37.0144 -10.5523L38.2623 -10.5523L38.2623 -8.97217L37.0144 -8.97217L37.0144 -10.5523ZM42.1075 -9.75206L42.1075 -7.59549L44.6777 -7.59549L44.6777 -6.62571L42.1075 -6.62571L42.1075 -2.50244Q42.1075 -1.57335 42.3618 -1.30887Q42.6161 -1.04438 43.396 -1.04438L44.6777 -1.04438L44.6777 0L43.396 0Q41.9515 0 41.4022 -0.539144Q40.8529 -1.07829 40.8529 -2.50244L40.8529 -6.62571L39.9373 -6.62571L39.9373 -7.59549L40.8529 -7.59549L40.8529 -9.75206L42.1075 -9.75206ZM46.1901 -2.9975L46.1901 -7.59549L47.4379 -7.59549L47.4379 -3.04498Q47.4379 -1.96669 47.8584 -1.42754Q48.2788 -0.888401 49.1197 -0.888401Q50.1302 -0.888401 50.7168 -1.53266Q51.3034 -2.17692 51.3034 -3.28912L51.3034 -7.59549L52.5513 -7.59549L52.5513 0L51.3034 0L51.3034 -1.16645Q50.8491 -0.474718 50.2489 -0.139025Q49.6487 0.196669 48.8553 0.196669Q47.5464 0.196669 46.8682 -0.617133Q46.1901 -1.43094 46.1901 -2.9975ZM60.1196 -6.4426L60.1196 -10.5523L61.3675 -10.5523L61.3675 0L60.1196 0L60.1196 -1.13932Q59.7263 -0.461154 59.1261 -0.132243Q58.5259 0.196669 57.685 0.196669Q56.3083 0.196669 55.4437 -0.901964Q54.579 -2.0006 54.579 -3.79096Q54.579 -5.58133 55.4437 -6.67996Q56.3083 -7.77859 57.685 -7.77859Q58.5259 -7.77859 59.1261 -7.44968Q59.7263 -7.12077 60.1196 -6.4426ZM55.8675 -3.79096Q55.8675 -2.41428 56.4338 -1.631Q57.0001 -0.847711 57.9902 -0.847711Q58.9803 -0.847711 59.55 -1.631Q60.1196 -2.41428 60.1196 -3.79096Q60.1196 -5.16764 59.55 -5.95093Q58.9803 -6.73421 57.9902 -6.73421Q57.0001 -6.73421 56.4338 -5.95093Q55.8675 -5.16764 55.8675 -3.79096ZM70.4346 -4.1097L70.4346 -3.49935L64.6973 -3.49935Q64.7787 -2.21083 65.4738 -1.53605Q66.1689 -0.861274 67.41 -0.861274Q68.1288 -0.861274 68.8036 -1.0376Q69.4784 -1.21392 70.143 -1.56657L70.143 -0.386556Q69.4716 -0.101725 68.7663 0.0474718Q68.061 0.196669 67.3354 0.196669Q65.5179 0.196669 64.4565 -0.861274Q63.3952 -1.91922 63.3952 -3.72314Q63.3952 -5.58811 64.4023 -6.68335Q65.4093 -7.77859 67.1183 -7.77859Q68.651 -7.77859 69.5428 -6.79186Q70.4346 -5.80512 70.4346 -4.1097ZM69.1868 -4.47591Q69.1732 -5.49995 68.6137 -6.1103Q68.0542 -6.72065 67.1319 -6.72065Q66.0875 -6.72065 65.4602 -6.13064Q64.8329 -5.54064 64.738 -4.46913L69.1868 -4.47591Z" fill="#262626" transform="translate(64.42957793341742,303) rotate(-90) translate(-35.586891174316406,0)" />
</svg>
