<svg xmlns="http://www.w3.org/2000/svg" viewBox="0 0 800 600" width="800" height="600" role="img" aria-labelledby="chart-title">
<title id="chart-title"></title>
<rect x="0" y="0" width="800" height="600" fill="#FFFFFF" />
<rect x="100" y="72" width="620" height="462" fill="#FFFFFF" />
<line x1="99.99999999999999" y1="533.6" x2="99.99999999999999" y2="538.8611111111111" stroke="#262626" stroke-width="1.1111111111111112" />
<path d="M0.678168 -4.36062L4.3335 -4.36062L4.3335 -3.24843L0.678168 -3.24843L0.678168 -4.36062ZM7.67687 -1.15289L12.458 -1.15289L12.458 0L6.02892 0L6.02892 -1.15289Q6.80881 -1.95991 8.15498 -3.31963Q9.50114 -4.67936 9.84701 -5.0727Q10.5048 -5.8119 10.7659 -6.32392Q11.027 -6.83594 11.027 -7.331Q11.027 -8.13802 10.4607 -8.64665Q9.89448 -9.15527 8.98573 -9.15527Q8.34147 -9.15527 7.626 -8.93148Q6.91054 -8.70768 6.09673 -8.25331L6.09673 -9.63677Q6.9241 -9.96908 7.64296 -10.1386Q8.36182 -10.3082 8.9586 -10.3082Q10.532 -10.3082 11.4678 -9.52148Q12.4037 -8.73481 12.4037 -7.41916Q12.4037 -6.79525 12.1697 -6.23576Q11.9358 -5.67627 11.3186 -4.91672Q11.1491 -4.72005 10.2403 -3.78079Q9.3316 -2.84153 7.67687 -1.15289ZM18.2631 -9.22309Q17.2051 -9.22309 16.6728 -8.1821Q16.1404 -7.14111 16.1404 -5.05235Q16.1404 -2.97038 16.6728 -1.92939Q17.2051 -0.888401 18.2631 -0.888401Q19.3278 -0.888401 19.8602 -1.92939Q20.3925 -2.97038 20.3925 -5.05235Q20.3925 -7.14111 19.8602 -8.1821Q19.3278 -9.22309 18.2631 -9.22309ZM18.2631 -10.3082Q19.9653 -10.3082 20.8639 -8.962Q21.7624 -7.61583 21.7624 -5.05235Q21.7624 -2.49566 20.8639 -1.1495Q19.9653 0.196669 18.2631 0.196669Q16.5609 0.196669 15.6623 -1.1495Q14.7637 -2.49566 14.7637 -5.05235Q14.7637 -7.61583 15.6623 -8.962Q16.5609 -10.3082 18.2631 -10.3082ZM27.0996 -9.22309Q26.0417 -9.22309 25.5093 -8.1821Q24.9769 -7.14111 24.9769 -5.05235Q24.9769 -2.97038 25.5093 -1.92939Q26.0417 -0.888401 27.0996 -0.888401Q28.1643 -0.888401 28.6967 -1.92939Q29.2291 -2.97038 29.2291 -5.05235Q29.2291 -7.14111 28.6967 -8.1821Q28.1643 -9.22309 27.0996 -9.22309ZM27.0996 -10.3082Q28.8018 -10.3082 29.7004 -8.962Q30.599 -7.61583 30.599 -5.05235Q30.599 -2.49566 29.7004 -1.1495Q28.8018 0.196669 27.0996 0.196669Q25.3974 0.196669 24.4988 -1.1495Q23.6003 -2.49566 23.6003 -5.05235Q23.6003 -7.61583 24.4988 -8.962Q25.3974 -10.3082 27.0996 -10.3082ZM35.9361 -9.22309Q34.8782 -9.22309 34.3458 -8.1821Q33.8135 -7.14111 33.8135 -5.05235Q33.8135 -2.97038 34.3458 -1.92939Q34.8782 -0.888401 35.9361 -0.888401Q37.0009 -0.888401 37.5332 -1.92939Q38.0656 -2.97038 38.0656 -5.05235Q38.0656 -7.14111 37.5332 -8.1821Q37.0009 -9.22309 35.9361 -9.22309ZM35.9361 -10.3082Q37.6383 -10.3082 38.5369 -8.962Q39.4355 -7.61583 39.4355 -5.05235Q39.4355 -2.49566 38.5369 -1.1495Q37.6383 0.196669 35.9361 0.196669Q34.2339 0.196669 33.3354 -1.1495Q32.4368 -2.49566 32.4368 -5.05235Q32.4368 -7.61583 33.3354 -8.962Q34.2339 -10.3082 35.9361 -10.3082Z" fill="#262626" transform="translate(99.99999999999999,557.6111111111111) translate(-20.17890167236328,0)" />
<line x1="188.57142857142856" y1="533.6" x2="188.57142857142856" y2="538.8611111111111" stroke="#262626" stroke-width="1.1111111111111112" />
<path d="M4.41488 -9.22309Q3.35693 -9.22309 2.82457 -8.1821Q2.29221 -7.14111 2.29221 -5.05235Q2.29221 -2.97038 2.82457 -1.92939Q3.35693 -0.888401 4.41488 -0.888401Q5.4796 -0.888401 6.01196 -1.92939Q6.54433 -2.97038 6.54433 -5.05235Q6.54433 -7.14111 6.01196 -8.1821Q5.4796 -9.22309 4.41488 -9.22309ZM4.41488 -10.3082Q6.11708 -10.3082 7.01565 -8.962Q7.91422 -7.61583 7.91423 -5.05235Q7.91423 -2.49566 7.01565 -1.1495Q6.11708 0.196669 4.41488 0.196669Q2.71267 0.196669 1.8141 -1.1495Q0.915527 -2.49566 0.915527 -5.05235Q0.915527 -7.61583 1.8141 -8.962Q2.71267 -10.3082 4.41488 -10.3082Z" fill="#262626" transform="translate(188.57142857142856,557.6111111111111) translate(-4.418267250061035,0)" />
<line x1="277.1428571428571" y1="533.6" x2="277.1428571428571" y2="538.8611111111111" stroke="#262626" stroke-width="1.1111111111111112" />
<path d="M2.6652 -1.15289L7.44629 -1.15289L7.44629 0L1.01725 0L1.01725 -1.15289Q1.79715 -1.95991 3.14331 -3.31963Q4.48947 -4.67936 4.83534 -5.0727Q5.49316 -5.8119 5.75426 -6.32392Q6.01535 -6.83594 6.01535 -7.331Q6.01535 -8.13802 5.44908 -8.64665Q4.88281 -9.15527 3.97407 -9.15527Q3.32981 -9.15527 2.61434 -8.93148Q1.89887 -8.70768 1.08507 -8.25331L1.08507 -9.63677Q1.91243 -9.96908 2.63129 -10.1386Q3.35015 -10.3082 3.94694 -10.3082Q5.52029 -10.3082 6.45616 -9.52148Q7.39204 -8.73481 7.39204 -7.41916Q7.39204 -6.79525 7.15807 -6.23576Q6.9241 -5.67627 6.30697 -4.91672Q6.13742 -4.72005 5.22868 -3.78079Q4.31993 -2.84153 2.6652 -1.15289ZM13.2514 -9.22309Q12.1935 -9.22309 11.6611 -8.1821Q11.1287 -7.14111 11.1287 -5.05235Q11.1287 -2.97038 11.6611 -1.92939Q12.1935 -0.888401 13.2514 -0.888401Q14.3161 -0.888401 14.8485 -1.92939Q15.3809 -2.97038 15.3809 -5.05235Q15.3809 -7.14111 14.8485 -8.1821Q14.3161 -9.22309 13.2514 -9.22309ZM13.2514 -10.3082Q14.9536 -10.3082 15.8522 -8.962Q16.7508 -7.61583 16.7508 -5.05235Q16.7508 -2.49566 15.8522 -1.1495Q14.9536 0.196669 13.2514 0.196669Q11.5492 0.196669 10.6506 -1.1495Q9.75206 -2.49566 9.75206 -5.05235Q9.75206 -7.61583 10.6506 -8.962Q11.5492 -10.3082 13.2514 -10.3082ZM22.0879 -9.22309Q21.03 -9.22309 20.4976 -8.1821Q19.9653 -7.14111 19.9653 -5.05235Q19.9653 -2.97038 20.4976 -1.92939Q21.03 -0.888401 22.0879 -0.888401Q23.1527 -0.888401 23.685 -1.92939Q24.2174 -2.97038 24.2174 -5.05235Q24.2174 -7.14111 23.685 -8.1821Q23.1527 -9.22309 22.0879 -9.22309ZM22.0879 -10.3082Q23.7901 -10.3082 24.6887 -8.962Q25.5873 -7.61583 25.5873 -5.05235Q25.5873 -2.49566 24.6887 -1.1495Q23.7901 0.196669 22.0879 0.196669Q20.3857 0.196669 19.4872 -1.1495Q18.5886 -2.49566 18.5886 -5.05235Q18.5886 -7.61583 19.4872 -8.962Q20.3857 -10.3082 22.0879 -10.3082ZM30.9245 -9.22309Q29.8665 -9.22309 29.3342 -8.1821Q28.8018 -7.14111 28.8018 -5.05235Q28.8018 -2.97038 29.3342 -1.92939Q29.8665 -0.888401 30.9245 -0.888401Q31.9892 -0.888401 32.5216 -1.92939Q33.0539 -2.97038 33.0539 -5.05235Q33.0539 -7.14111 32.5216 -8.1821Q31.9892 -9.22309 30.9245 -9.22309ZM30.9245 -10.3082Q32.6267 -10.3082 33.5253 -8.962Q34.4238 -7.61583 34.4238 -5.05235Q34.4238 -2.49566 33.5253 -1.1495Q32.6267 0.196669 30.9245 0.196669Q29.2223 0.196669 28.3237 -1.1495Q27.4251 -2.49566 27.4251 -5.05235Q27.4251 -7.61583 28.3237 -8.962Q29.2223 -10.3082 30.9245 -10.3082Z" fill="#262626" transform="translate(277.1428571428571,557.6111111111111) translate(-17.67306900024414,0)" />
<line x1="365.71428571428567" y1="533.6" x2="365.71428571428567" y2="538.8611111111111" stroke="#262626" stroke-width="1.1111111111111112" />
<path d="M5.24902 -8.93148L1.79036 -3.52648L5.24902 -3.52648L5.24902 -8.93148ZM4.88959 -10.1251L6.61214 -10.1251L6.61214 -3.52648L8.05664 -3.52648L8.05664 -2.38715L6.61214 -2.38715L6.61214 0L5.24902 0L5.24902 -2.38715L0.678168 -2.38715L0.678168 -3.70958L4.88959 -10.1251ZM13.2514 -9.22309Q12.1935 -9.22309 11.6611 -8.1821Q11.1287 -7.14111 11.1287 -5.05235Q11.1287 -2.97038 11.6611 -1.92939Q12.1935 -0.888401 13.2514 -0.888401Q14.3161 -0.888401 14.8485 -1.92939Q15.3809 -2.97038 15.3809 -5.05235Q15.3809 -7.14111 14.8485 -8.1821Q14.3161 -9.22309 13.2514 -9.22309ZM13.2514 -10.3082Q14.9536 -10.3082 15.8522 -8.962Q16.7508 -7.61583 16.7508 -5.05235Q16.7508 -2.49566 15.8522 -1.1495Q14.9536 0.196669 13.2514 0.196669Q11.5492 0.196669 10.6506 -1.1495Q9.75206 -2.49566 9.75206 -5.05235Q9.75206 -7.61583 10.6506 -8.962Q11.5492 -10.3082 13.2514 -10.3082ZM22.0879 -9.22309Q21.03 -9.22309 20.4976 -8.1821Q19.9653 -7.14111 19.9653 -5.05235Q19.9653 -2.97038 20.4976 -1.92939Q21.03 -0.888401 22.0879 -0.888401Q23.1527 -0.888401 23.685 -1.92939Q24.2174 -2.97038 24.2174 -5.05235Q24.2174 -7.14111 23.685 -8.1821Q23.1527 -9.22309 22.0879 -9.22309ZM22.0879 -10.3082Q23.7901 -10.3082 24.6887 -8.962Q25.5873 -7.61583 25.5873 -5.05235Q25.5873 -2.49566 24.6887 -1.1495Q23.7901 0.196669 22.0879 0.196669Q20.3857 0.196669 19.4872 -1.1495Q18.5886 -2.49566 18.5886 -5.05235Q18.5886 -7.61583 19.4872 -8.962Q20.3857 -10.3082 22.0879 -10.3082ZM30.9245 -9.22309Q29.8665 -9.22309 29.3342 -8.1821Q28.8018 -7.14111 28.8018 -5.05235Q28.8018 -2.97038 29.3342 -1.92939Q29.8665 -0.888401 30.9245 -0.888401Q31.9892 -0.888401 32.5216 -1.92939Q33.0539 -2.97038 33.0539 -5.05235Q33.0539 -7.14111 32.5216 -8.1821Q31.9892 -9.22309 30.9245 -9.22309ZM30.9245 -10.3082Q32.6267 -10.3082 33.5253 -8.962Q34.4238 -7.61583 34.4238 -5.05235Q34.4238 -2.49566 33.5253 -1.1495Q32.6267 0.196669 30.9245 0.196669Q29.2223 0.196669 28.3237 -1.1495Q27.4251 -2.49566 27.4251 -5.05235Q27.4251 -7.61583 28.3237 -8.962Q29.2223 -10.3082 30.9245 -10.3082Z" fill="#262626" transform="translate(365.71428571428567,557.6111111111111) translate(-17.67306900024414,0)" />
<line x1="454.2857142857143" y1="533.6" x2="454.2857142857143" y2="538.8611111111111" stroke="#262626" stroke-width="1.1111111111111112" />
<path d="M4.58442 -5.60845Q3.66211 -5.60845 3.12297 -4.97776Q2.58382 -4.34706 2.58382 -3.24843Q2.58382 -2.15658 3.12297 -1.52249Q3.66211 -0.888401 4.58442 -0.888401Q5.50673 -0.888401 6.04587 -1.52249Q6.58502 -2.15658 6.58502 -3.24843Q6.58502 -4.34706 6.04587 -4.97776Q5.50673 -5.60845 4.58442 -5.60845ZM7.30387 -9.90126L7.30387 -8.65343Q6.78847 -8.89757 6.26289 -9.02642Q5.7373 -9.15527 5.2219 -9.15527Q3.86556 -9.15527 3.15009 -8.23975Q2.43462 -7.32422 2.3329 -5.47282Q2.73302 -6.06282 3.33659 -6.37817Q3.94016 -6.69352 4.6658 -6.69352Q6.19168 -6.69352 7.07669 -5.76782Q7.9617 -4.84212 7.9617 -3.24843Q7.9617 -1.68864 7.03939 -0.745985Q6.11708 0.196669 4.58442 0.196669Q2.82796 0.196669 1.89887 -1.1495Q0.969781 -2.49566 0.969781 -5.05235Q0.969781 -7.45307 2.1091 -8.88062Q3.24843 -10.3082 5.16764 -10.3082Q5.68305 -10.3082 6.20863 -10.2064Q6.73421 -10.1047 7.30387 -9.90126ZM13.2514 -9.22309Q12.1935 -9.22309 11.6611 -8.1821Q11.1287 -7.14111 11.1287 -5.05235Q11.1287 -2.97038 11.6611 -1.92939Q12.1935 -0.888401 13.2514 -0.888401Q14.3161 -0.888401 14.8485 -1.92939Q15.3809 -2.97038 15.3809 -5.05235Q15.3809 -7.14111 14.8485 -8.1821Q14.3161 -9.22309 13.2514 -9.22309ZM13.2514 -10.3082Q14.9536 -10.3082 15.8522 -8.962Q16.7508 -7.61583 16.7508 -5.05235Q16.7508 -2.49566 15.8522 -1.1495Q14.9536 0.196669 13.2514 0.196669Q11.5492 0.196669 10.6506 -1.1495Q9.75206 -2.49566 9.75206 -5.05235Q9.75206 -7.61583 10.6506 -8.962Q11.5492 -10.3082 13.2514 -10.3082ZM22.0879 -9.22309Q21.03 -9.22309 20.4976 -8.1821Q19.9653 -7.14111 19.9653 -5.05235Q19.9653 -2.97038 20.4976 -1.92939Q21.03 -0.888401 22.0879 -0.888401Q23.1527 -0.888401 23.685 -1.92939Q24.2174 -2.97038 24.2174 -5.05235Q24.2174 -7.14111 23.685 -8.1821Q23.1527 -9.22309 22.0879 -9.22309ZM22.0879 -10.3082Q23.7901 -10.3082 24.6887 -8.962Q25.5873 -7.61583 25.5873 -5.05235Q25.5873 -2.49566 24.6887 -1.1495Q23.7901 0.196669 22.0879 0.196669Q20.3857 0.196669 19.4872 -1.1495Q18.5886 -2.49566 18.5886 -5.05235Q18.5886 -7.61583 19.4872 -8.962Q20.3857 -10.3082 22.0879 -10.3082ZM30.9245 -9.22309Q29.8665 -9.22309 29.3342 -8.1821Q28.8018 -7.14111 28.8018 -5.05235Q28.8018 -2.97038 29.3342 -1.92939Q29.8665 -0.888401 30.9245 -0.888401Q31.9892 -0.888401 32.5216 -1.92939Q33.0539 -2.97038 33.0539 -5.05235Q33.0539 -7.14111 32.5216 -8.1821Q31.9892 -9.22309 30.9245 -9.22309ZM30.9245 -10.3082Q32.6267 -10.3082 33.5253 -8.962Q34.4238 -7.61583 34.4238 -5.05235Q34.4238 -2.49566 33.5253 -1.1495Q32.6267 0.196669 30.9245 0.196669Q29.2223 0.196669 28.3237 -1.1495Q27.4251 -2.49566 27.4251 -5.05235Q27.4251 -7.61583 28.3237 -8.962Q29.2223 -10.3082 30.9245 -10.3082Z" fill="#262626" transform="translate(454.2857142857143,557.6111111111111) translate(-17.67306900024414,0)" />
<line x1="542.8571428571429" y1="533.6" x2="542.8571428571429" y2="538.8611111111111" stroke="#262626" stroke-width="1.1111111111111112" />
<path d="M4.41488 -4.80821Q3.43831 -4.80821 2.87882 -4.28602Q2.31934 -3.76383 2.31934 -2.84831Q2.31934 -1.93278 2.87882 -1.41059Q3.43831 -0.888401 4.41488 -0.888401Q5.39144 -0.888401 5.95432 -1.41398Q6.5172 -1.93956 6.5172 -2.84831Q6.5172 -3.76383 5.95771 -4.28602Q5.39822 -4.80821 4.41488 -4.80821ZM3.04498 -5.39144Q2.16336 -5.60845 1.67169 -6.21202Q1.18001 -6.81559 1.18001 -7.68365Q1.18001 -8.89757 2.04468 -9.60287Q2.90934 -10.3082 4.41488 -10.3082Q5.92719 -10.3082 6.78847 -9.60287Q7.64974 -8.89757 7.64974 -7.68365Q7.64974 -6.81559 7.15807 -6.21202Q6.6664 -5.60845 5.79156 -5.39144Q6.78168 -5.16086 7.33439 -4.48947Q7.8871 -3.81809 7.8871 -2.84831Q7.8871 -1.37668 6.98853 -0.590007Q6.08995 0.196669 4.41488 0.196669Q2.7398 0.196669 1.84123 -0.590007Q0.942654 -1.37668 0.942654 -2.84831Q0.942654 -3.81809 1.49875 -4.48947Q2.05485 -5.16086 3.04498 -5.39144ZM2.54313 -7.5548Q2.54313 -6.76812 3.0348 -6.32731Q3.52648 -5.8865 4.41488 -5.8865Q5.29649 -5.8865 5.79495 -6.32731Q6.2934 -6.76812 6.2934 -7.5548Q6.2934 -8.34147 5.79495 -8.78228Q5.2965 -9.22309 4.41488 -9.22309Q3.52648 -9.22309 3.0348 -8.78228Q2.54313 -8.34147 2.54313 -7.5548ZM13.2514 -9.22309Q12.1935 -9.22309 11.6611 -8.1821Q11.1287 -7.14111 11.1287 -5.05235Q11.1287 -2.97038 11.6611 -1.92939Q12.1935 -0.888401 13.2514 -0.888401Q14.3161 -0.888401 14.8485 -1.92939Q15.3809 -2.97038 15.3809 -5.05235Q15.3809 -7.14111 14.8485 -8.1821Q14.3161 -9.22309 13.2514 -9.22309ZM13.2514 -10.3082Q14.9536 -10.3082 15.8522 -8.962Q16.7508 -7.61583 16.7508 -5.05235Q16.7508 -2.49566 15.8522 -1.1495Q14.9536 0.196669 13.2514 0.196669Q11.5492 0.196669 10.6506 -1.1495Q9.75206 -2.49566 9.75206 -5.05235Q9.75206 -7.61583 10.6506 -8.962Q11.5492 -10.3082 13.2514 -10.3082ZM22.0879 -9.22309Q21.03 -9.22309 20.4976 -8.1821Q19.9653 -7.14111 19.9653 -5.05235Q19.9653 -2.97038 20.4976 -1.92939Q21.03 -0.888401 22.0879 -0.888401Q23.1527 -0.888401 23.685 -1.92939Q24.2174 -2.97038 24.2174 -5.05235Q24.2174 -7.14111 23.685 -8.1821Q23.1527 -9.22309 22.0879 -9.22309ZM22.0879 -10.3082Q23.7901 -10.3082 24.6887 -8.962Q25.5873 -7.61583 25.5873 -5.05235Q25.5873 -2.49566 24.6887 -1.1495Q23.7901 0.196669 22.0879 0.196669Q20.3857 0.196669 19.4872 -1.1495Q18.5886 -2.49566 18.5886 -5.05235Q18.5886 -7.61583 19.4872 -8.962Q20.3857 -10.3082 22.0879 -10.3082ZM30.9245 -9.22309Q29.8665 -9.22309 29.3342 -8.1821Q28.8018 -7.14111 28.8018 -5.05235Q28.8018 -2.97038 29.3342 -1.92939Q29.8665 -0.888401 30.9245 -0.888401Q31.9892 -0.888401 32.5216 -1.92939Q33.0539 -2.97038 33.0539 -5.05235Q33.0539 -7.14111 32.5216 -8.1821Q31.9892 -9.22309 30.9245 -9.22309ZM30.9245 -10.3082Q32.6267 -10.3082 33.5253 -8.962Q34.4238 -7.61583 34.4238 -5.05235Q34.4238 -2.49566 33.5253 -1.1495Q32.6267 0.196669 30.9245 0.196669Q29.2223 0.196669 28.3237 -1.1495Q27.4251 -2.49566 27.4251 -5.05235Q27.4251 -7.61583 28.3237 -8.962Q29.2223 -10.3082 30.9245 -10.3082Z" fill="#262626" transform="translate(542.8571428571429,557.6111111111111) translate(-17.67306900024414,0)" />
<line x1="631.4285714285713" y1="533.6" x2="631.4285714285713" y2="538.8611111111111" stroke="#262626" stroke-width="1.1111111111111112" />
<path d="M1.72255 -1.15289L3.9605 -1.15289L3.9605 -8.87722L1.52588 -8.38894L1.52588 -9.63677L3.94694 -10.1251L5.31684 -10.1251L5.31684 -1.15289L7.5548 -1.15289L7.5548 0L1.72255 0L1.72255 -1.15289ZM13.2514 -9.22309Q12.1935 -9.22309 11.6611 -8.1821Q11.1287 -7.14111 11.1287 -5.05235Q11.1287 -2.97038 11.6611 -1.92939Q12.1935 -0.888401 13.2514 -0.888401Q14.3161 -0.888401 14.8485 -1.92939Q15.3809 -2.97038 15.3809 -5.05235Q15.3809 -7.14111 14.8485 -8.1821Q14.3161 -9.22309 13.2514 -9.22309ZM13.2514 -10.3082Q14.9536 -10.3082 15.8522 -8.962Q16.7508 -7.61583 16.7508 -5.05235Q16.7508 -2.49566 15.8522 -1.1495Q14.9536 0.196669 13.2514 0.196669Q11.5492 0.196669 10.6506 -1.1495Q9.75206 -2.49566 9.75206 -5.05235Q9.75206 -7.61583 10.6506 -8.962Q11.5492 -10.3082 13.2514 -10.3082ZM22.0879 -9.22309Q21.03 -9.22309 20.4976 -8.1821Q19.9653 -7.14111 19.9653 -5.05235Q19.9653 -2.97038 20.4976 -1.92939Q21.03 -0.888401 22.0879 -0.888401Q23.1527 -0.888401 23.685 -1.92939Q24.2174 -2.97038 24.2174 -5.05235Q24.2174 -7.14111 23.685 -8.1821Q23.1527 -9.22309 22.0879 -9.22309ZM22.0879 -10.3082Q23.7901 -10.3082 24.6887 -8.962Q25.5873 -7.61583 25.5873 -5.05235Q25.5873 -2.49566 24.6887 -1.1495Q23.7901 0.196669 22.0879 0.196669Q20.3857 0.196669 19.4872 -1.1495Q18.5886 -2.49566 18.5886 -5.05235Q18.5886 -7.61583 19.4872 -8.962Q20.3857 -10.3082 22.0879 -10.3082ZM30.9245 -9.22309Q29.8665 -9.22309 29.3342 -8.1821Q28.8018 -7.14111 28.8018 -5.05235Q28.8018 -2.97038 29.3342 -1.92939Q29.8665 -0.888401 30.9245 -0.888401Q31.9892 -0.888401 32.5216 -1.92939Q33.0539 -2.97038 33.0539 -5.05235Q33.0539 -7.14111 32.5216 -8.1821Q31.9892 -9.22309 30.9245 -9.22309ZM30.9245 -10.3082Q32.6267 -10.3082 33.5253 -8.962Q34.4238 -7.61583 34.4238 -5.05235Q34.4238 -2.49566 33.5253 -1.1495Q32.6267 0.196669 30.9245 0.196669Q29.2223 0.196669 28.3237 -1.1495Q27.4251 -2.49566 27.4251 -5.05235Q27.4251 -7.61583 28.3237 -8.962Q29.2223 -10.3082 30.9245 -10.3082ZM39.761 -9.22309Q38.7031 -9.22309 38.1707 -8.1821Q37.6383 -7.14111 37.6383 -5.05235Q37.6383 -2.97038 38.1707 -1.92939Q38.7031 -0.888401 39.761 -0.888401Q40.8257 -0.888401 41.3581 -1.92939Q41.8905 -2.97038 41.8905 -5.05235Q41.8905 -7.14111 41.3581 -8.1821Q40.8257 -9.22309 39.761 -9.22309ZM39.761 -10.3082Q41.4632 -10.3082 42.3618 -8.962Q43.2604 -7.61583 43.2604 -5.05235Q43.2604 -2.49566 42.3618 -1.1495Q41.4632 0.196669 39.761 0.196669Q38.0588 0.196669 37.1602 -1.1495Q36.2617 -2.49566 36.2617 -5.05235Q36.2617 -7.61583 37.1602 -8.962Q38.0588 -10.3082 39.761 -10.3082Z" fill="#262626" transform="translate(631.4285714285713,557.6111111111111) translate(-22.09133529663086,0)" />
<line x1="720" y1="533.6" x2="720" y2="538.8611111111111" stroke="#262626" stroke-width="1.1111111111111112" />
<path d="M1.72255 -1.15289L3.9605 -1.15289L3.9605 -8.87722L1.52588 -8.38894L1.52588 -9.63677L3.94694 -10.1251L5.31684 -10.1251L5.31684 -1.15289L7.5548 -1.15289L7.5548 0L1.72255 0L1.72255 -1.15289ZM11.5017 -1.15289L16.2828 -1.15289L16.2828 0L9.85379 0L9.85379 -1.15289Q10.6337 -1.95991 11.9798 -3.31963Q13.326 -4.67936 13.6719 -5.0727Q14.3297 -5.8119 14.5908 -6.32392Q14.8519 -6.83594 14.8519 -7.331Q14.8519 -8.13802 14.2856 -8.64665Q13.7193 -9.15527 12.8106 -9.15527Q12.1663 -9.15527 11.4509 -8.93148Q10.7354 -8.70768 9.9216 -8.25331L9.9216 -9.63677Q10.749 -9.96908 11.4678 -10.1386Q12.1867 -10.3082 12.7835 -10.3082Q14.3568 -10.3082 15.2927 -9.52148Q16.2286 -8.73481 16.2286 -7.41916Q16.2286 -6.79525 15.9946 -6.23576Q15.7606 -5.67627 15.1435 -4.91672Q14.974 -4.72005 14.0652 -3.78079Q13.1565 -2.84153 11.5017 -1.15289ZM22.0879 -9.22309Q21.03 -9.22309 20.4976 -8.1821Q19.9653 -7.14111 19.9653 -5.05235Q19.9653 -2.97038 20.4976 -1.92939Q21.03 -0.888401 22.0879 -0.888401Q23.1527 -0.888401 23.685 -1.92939Q24.2174 -2.97038 24.2174 -5.05235Q24.2174 -7.14111 23.685 -8.1821Q23.1527 -9.22309 22.0879 -9.22309ZM22.0879 -10.3082Q23.7901 -10.3082 24.6887 -8.962Q25.5873 -7.61583 25.5873 -5.05235Q25.5873 -2.49566 24.6887 -1.1495Q23.7901 0.196669 22.0879 0.196669Q20.3857 0.196669 19.4872 -1.1495Q18.5886 -2.49566 18.5886 -5.05235Q18.5886 -7.61583 19.4872 -8.962Q20.3857 -10.3082 22.0879 -10.3082ZM30.9245 -9.22309Q29.8665 -9.22309 29.3342 -8.1821Q28.8018 -7.14111 28.8018 -5.05235Q28.8018 -2.97038 29.3342 -1.92939Q29.8665 -0.888401 30.9245 -0.888401Q31.9892 -0.888401 32.5216 -1.92939Q33.0539 -2.97038 33.0539 -5.05235Q33.0539 -7.14111 32.5216 -8.1821Q31.9892 -9.22309 30.9245 -9.22309ZM30.9245 -10.3082Q32.6267 -10.3082 33.5253 -8.962Q34.4238 -7.61583 34.4238 -5.05235Q34.4238 -2.49566 33.5253 -1.1495Q32.6267 0.196669 30.9245 0.196669Q29.2223 0.196669 28.3237 -1.1495Q27.4251 -2.49566 27.4251 -5.05235Q27.4251 -7.61583 28.3237 -8.962Q29.2223 -10.3082 30.9245 -10.3082ZM39.761 -9.22309Q38.7031 -9.22309 38.1707 -8.1821Q37.6383 -7.14111 37.6383 -5.05235Q37.6383 -2.97038 38.1707 -1.92939Q38.7031 -0.888401 39.761 -0.888401Q40.8257 -0.888401 41.3581 -1.92939Q41.8905 -2.97038 41.8905 -5.05235Q41.8905 -7.14111 41.3581 -8.1821Q40.8257 -9.22309 39.761 -9.22309ZM39.761 -10.3082Q41.4632 -10.3082 42.3618 -8.962Q43.2604 -7.61583 43.2604 -5.05235Q43.2604 -2.49566 42.3618 -1.1495Q41.4632 0.196669 39.761 0.196669Q38.0588 0.196669 37.1602 -1.1495Q36.2617 -2.49566 36.2617 -5.05235Q36.2617 -7.61583 37.1602 -8.962Q38.0588 -10.3082 39.761 -10.3082Z" fill="#262626" transform="translate(720,557.6111111111111) translate(-22.09133529663086,0)" />
<line x1="95.13888888888889" y1="534" x2="100.4" y2="534" stroke="#262626" stroke-width="1.1111111111111112" />
<path d="M0.678168 -4.36062L4.3335 -4.36062L4.3335 -3.24843L0.678168 -3.24843L0.678168 -4.36062ZM7.67687 -1.15289L12.458 -1.15289L12.458 0L6.02892 0L6.02892 -1.15289Q6.80881 -1.95991 8.15498 -3.31963Q9.50114 -4.67936 9.84701 -5.0727Q10.5048 -5.8119 10.7659 -6.32392Q11.027 -6.83594 11.027 -7.331Q11.027 -8.13802 10.4607 -8.64665Q9.89448 -9.15527 8.98573 -9.15527Q8.34147 -9.15527 7.626 -8.93148Q6.91054 -8.70768 6.09673 -8.25331L6.09673 -9.63677Q6.9241 -9.96908 7.64296 -10.1386Q8.36182 -10.3082 8.9586 -10.3082Q10.532 -10.3082 11.4678 -9.52148Q12.4037 -8.73481 12.4037 -7.41916Q12.4037 -6.79525 12.1697 -6.23576Q11.9358 -5.67627 11.3186 -4.91672Q11.1491 -4.72005 10.2403 -3.78079Q9.3316 -2.84153 7.67687 -1.15289Z" fill="#262626" transform="translate(90.27777777777777,538) translate(-13.848199844360352,0)" />
<line x1="95.13888888888889" y1="476.25" x2="100.4" y2="476.25" stroke="#262626" stroke-width="1.1111111111111112" />
<path d="M0.678168 -4.36062L4.3335 -4.36062L4.3335 -3.24843L0.678168 -3.24843L0.678168 -4.36062ZM6.73421 -1.15289L8.97217 -1.15289L8.97217 -8.87722L6.53754 -8.38894L6.53754 -9.63677L8.9586 -10.1251L10.3285 -10.1251L10.3285 -1.15289L12.5665 -1.15289L12.5665 0L6.73421 0L6.73421 -1.15289Z" fill="#262626" transform="translate(90.27777777777777,480.25) translate(-13.848199844360352,0)" />
<line x1="95.13888888888889" y1="418.5" x2="100.4" y2="418.5" stroke="#262626" stroke-width="1.1111111111111112" />
<path d="M4.41488 -9.22309Q3.35693 -9.22309 2.82457 -8.1821Q2.29221 -7.14111 2.29221 -5.05235Q2.29221 -2.97038 2.82457 -1.92939Q3.35693 -0.888401 4.41488 -0.888401Q5.4796 -0.888401 6.01196 -1.92939Q6.54433 -2.97038 6.54433 -5.05235Q6.54433 -7.14111 6.01196 -8.1821Q5.4796 -9.22309 4.41488 -9.22309ZM4.41488 -10.3082Q6.11708 -10.3082 7.01565 -8.962Q7.91422 -7.61583 7.91423 -5.05235Q7.91423 -2.49566 7.01565 -1.1495Q6.11708 0.196669 4.41488 0.196669Q2.71267 0.196669 1.8141 -1.1495Q0.915527 -2.49566 0.915527 -5.05235Q0.915527 -7.61583 1.8141 -8.962Q2.71267 -10.3082 4.41488 -10.3082Z" fill="#262626" transform="translate(90.27777777777777,422.5) translate(-8.83653450012207,0)" />
<line x1="95.13888888888889" y1="360.75" x2="100.4" y2="360.75" stroke="#262626" stroke-width="1.1111111111111112" />
<path d="M1.72255 -1.15289L3.9605 -1.15289L3.9605 -8.87722L1.52588 -8.38894L1.52588 -9.63677L3.94694 -10.1251L5.31684 -10.1251L5.31684 -1.15289L7.5548 -1.15289L7.5548 0L1.72255 0L1.72255 -1.15289Z" fill="#262626" transform="translate(90.27777777777777,364.75) translate(-8.83653450012207,0)" />
<line x1="95.13888888888889" y1="303" x2="100.4" y2="303" stroke="#262626" stroke-width="1.1111111111111112" />
<path d="M2.6652 -1.15289L7.44629 -1.15289L7.44629 0L1.01725 0L1.01725 -1.15289Q1.79715 -1.95991 3.14331 -3.31963Q4.48947 -4.67936 4.83534 -5.0727Q5.49316 -5.8119 5.75426 -6.32392Q6.01535 -6.83594 6.01535 -7.331Q6.01535 -8.13802 5.44908 -8.64665Q4.88281 -9.15527 3.97407 -9.15527Q3.32981 -9.15527 2.61434 -8.93148Q1.89887 -8.70768 1.08507 -8.25331L1.08507 -9.63677Q1.91243 -9.96908 2.63129 -10.1386Q3.35015 -10.3082 3.94694 -10.3082Q5.52029 -10.3082 6.45616 -9.52148Q7.39204 -8.73481 7.39204 -7.41916Q7.39204 -6.79525 7.15807 -6.23576Q6.9241 -5.67627 6.30697 -4.91672Q6.13742 -4.72005 5.22868 -3.78079Q4.31993 -2.84153 2.6652 -1.15289Z" fill="#262626" transform="translate(90.27777777777777,307) translate(-8.83653450012207,0)" />
<line x1="95.13888888888889" y1="245.25" x2="100.4" y2="245.25" stroke="#262626" stroke-width="1.1111111111111112" />
<path d="M5.63558 -5.45926Q6.61892 -5.24902 7.17163 -4.58442Q7.72434 -3.91981 7.72434 -2.94325Q7.72434 -1.4445 6.69352 -0.623915Q5.66271 0.196669 3.76383 0.196669Q3.12636 0.196669 2.45158 0.0712077Q1.7768 -0.0542535 1.05794 -0.305176L1.05794 -1.6276Q1.6276 -1.2953 2.30577 -1.12576Q2.98394 -0.956217 3.72314 -0.956217Q5.01166 -0.956217 5.68644 -1.46484Q6.36122 -1.97347 6.36122 -2.94325Q6.36122 -3.83843 5.73391 -4.34367Q5.10661 -4.8489 3.98763 -4.8489L2.80762 -4.8489L2.80762 -5.97466L4.04188 -5.97466Q5.05235 -5.97466 5.58811 -6.37817Q6.12386 -6.78168 6.12386 -7.54123Q6.12386 -8.32113 5.57115 -8.7382Q5.01845 -9.15527 3.98763 -9.15527Q3.42475 -9.15527 2.78049 -9.0332Q2.13623 -8.91113 1.36312 -8.65343L1.36312 -9.87413Q2.14301 -10.0911 2.82457 -10.1997Q3.50613 -10.3082 4.1097 -10.3082Q5.66949 -10.3082 6.57823 -9.59947Q7.48698 -8.89079 7.48698 -7.68365Q7.48698 -6.84272 7.00548 -6.26289Q6.52398 -5.68305 5.63558 -5.45926Z" fill="#262626" transform="translate(90.27777777777777,249.25) translate(-8.83653450012207,0)" />
<line x1="95.13888888888889" y1="187.5" x2="100.4" y2="187.5" stroke="#262626" stroke-width="1.1111111111111112" />
<path d="M5.24902 -8.93148L1.79036 -3.52648L5.24902 -3.52648L5.24902 -8.93148ZM4.88959 -10.1251L6.61214 -10.1251L6.61214 -3.52648L8.05664 -3.52648L8.05664 -2.38715L6.61214 -2.38715L6.61214 0L5.24902 0L5.24902 -2.38715L0.678168 -2.38715L0.678168 -3.70958L4.88959 -10.1251Z" fill="#262626" transform="translate(90.27777777777777,191.5) translate(-8.83653450012207,0)" />
<line x1="95.13888888888889" y1="129.75" x2="100.4" y2="129.75" stroke="#262626" stroke-width="1.1111111111111112" />
<path d="M1.49875 -10.1251L6.87663 -10.1251L6.87663 -8.97217L2.75336 -8.97217L2.75336 -6.49007Q3.05176 -6.5918 3.35015 -6.64266Q3.64855 -6.69352 3.94694 -6.69352Q5.64236 -6.69352 6.63249 -5.76443Q7.62261 -4.83534 7.62261 -3.24843Q7.62261 -1.61404 6.60536 -0.708686Q5.58811 0.196669 3.73671 0.196669Q3.09923 0.196669 2.43802 0.0881619C1.99721 0.0158239 1.5417 -0.092683 1.07151 -0.237359L1.07151 -1.61404Q1.68186 -1.28174 2.3329 -1.11898Q2.98394 -0.956217 3.70958 -0.956217Q4.88281 -0.956217 5.56776 -1.57335Q6.25271 -2.19048 6.25271 -3.24843Q6.25271 -4.30637 5.56776 -4.9235Q4.88281 -5.54064 3.70958 -5.54064Q3.16026 -5.54064 2.61434 -5.41857Q2.06841 -5.2965 1.49875 -5.03879L1.49875 -10.1251Z" fill="#262626" transform="translate(90.27777777777777,133.75) translate(-8.83653450012207,0)" />
<line x1="95.13888888888889" y1="72" x2="100.4" y2="72" stroke="#262626" stroke-width="1.1111111111111112" />
<path d="M4.58442 -5.60845Q3.66211 -5.60845 3.12297 -4.97776Q2.58382 -4.34706 2.58382 -3.24843Q2.58382 -2.15658 3.12297 -1.52249Q3.66211 -0.888401 4.58442 -0.888401Q5.50673 -0.888401 6.04587 -1.52249Q6.58502 -2.15658 6.58502 -3.24843Q6.58502 -4.34706 6.04587 -4.97776Q5.50673 -5.60845 4.58442 -5.60845ZM7.30387 -9.90126L7.30387 -8.65343Q6.78847 -8.89757 6.26289 -9.02642Q5.7373 -9.15527 5.2219 -9.15527Q3.86556 -9.15527 3.15009 -8.23975Q2.43462 -7.32422 2.3329 -5.47282Q2.73302 -6.06282 3.33659 -6.37817Q3.94016 -6.69352 4.6658 -6.69352Q6.19168 -6.69352 7.07669 -5.76782Q7.9617 -4.84212 7.9617 -3.24843Q7.9617 -1.68864 7.03939 -0.745985Q6.11708 0.196669 4.58442 0.196669Q2.82796 0.196669 1.89887 -1.1495Q0.969781 -2.49566 0.969781 -5.05235Q0.969781 -7.45307 2.1091 -8.88062Q3.24843 -10.3082 5.16764 -10.3082Q5.68305 -10.3082 6.20863 -10.2064Q6.73421 -10.1047 7.30387 -9.90126Z" fill="#262626" transform="translate(90.27777777777777,76) translate(-8.83653450012207,0)" />
<g class="series" aria-label="Signal">
<polyline points="188.57142857142856,129.75 188.61571428571426,415.61456873385555 189.76714285714283,362.6065515631447 190.5642857142857,374.16880197357995 191.98142857142855,455.2155995444088 192.7342857142857,474.6398895776361 193.39857142857142,459.8644875798615 194.72714285714284,384.2412216585575 195.43571428571425,363.6716448881415 196.1,374.68015055232996 197.42857142857142,448.08762274295015 198.13714285714283,471.59461564601406 198.80142857142854,464.31186494010586 200.08571428571426,396.0560652788583 200.8385714285714,367.53131440026687 201.54714285714283,372.4134591083802 201.94571428571427,388.3705830700948 203.3185714285714,460.7653412110803 204.11571428571426,468.57778801314424 204.69142857142856,449.81571861505796 206.01999999999998,379.9353147967887 206.81714285714284,368.2857354641565 207.43714285714285,386.10510261504476 208.76571428571427,454.9397921481052 209.69571428571427,466.4878909875015 210.7142857142857,136.32866095442148 210.80285714285714,420.12616502956746 211.9985714285714,370.79995492843256 212.79571428571427,379.3792923205959 214.21285714285713,448.8588189624041 214.96571428571426,466.7456001794353 215.63,455.120767524322 216.95857142857142,390.2723204352514 217.66714285714284,371.52349827610635 218.33142857142855,379.8964356155028 219.65999999999997,442.6523790171055 220.3685714285714,463.85088628920647 221.07714285714283,457.4683105915701 222.31714285714284,400.5691918748253 223.07,375.10451798063 223.7785714285714,378.14725123046145 224.22142857142856,393.2371014239828 225.54999999999998,453.9713234466685 226.34714285714284,461.9455587013333 226.9228571428571,446.58411851940406 228.25142857142856,386.29786918899555 229.04857142857142,375.07247104282044 229.6685714285714,389.5464501813237 230.99714285714285,448.84934653722394 231.97142857142856,459.54924462600354 232.85714285714283,140.97498717374094 233.0342857142857,421.29612796618295 234.23,377.8388412231193 235.02714285714285,384.03542722678594 236.48857142857142,445.1647974369485 237.24142857142854,460.01417314847083 237.90571428571425,449.5244348662465 239.18999999999997,395.312685182515 239.94285714285712,378.0134234251426 240.60714285714283,385.71165180037985 241.89142857142855,438.136320010015 242.59999999999997,457.19281068341206 243.3085714285714,452.70819603970324 243.70714285714283,440.34582265596646 245.03571428571428,387.20204075937943 245.87714285714284,381.0484759359956 246.4085714285714,394.1578234970121 247.78142857142856,448.2181864858363 248.62285714285713,455.69797697765 249.1985714285714,442.1338940544523 250.52714285714285,390.36444676194685 251.32428571428568,381.256133907549 251.94428571428568,394.09166423141664 253.2285714285714,443.72164218963803 254.2028571428571,454.1555963098321 254.99999999999997,144.02929314844627 255.26571428571427,422.10458613241565 256.46142857142854,383.8793912825731 257.25857142857143,388.1860744445717 258.71999999999997,440.5201999150066 259.4728571428571,454.15841899185455 260.13714285714286,445.9421682908989 261.4657142857143,398.06185992020767 262.1742857142857,383.8292941815988 262.8385714285714,389.6369175577426 264.12285714285713,434.39282960738046 264.83142857142855,451.47432271011235 265.53999999999996,448.4858588058266 265.9385714285714,438.21665819214434 267.31142857142856,391.2347914992455 268.1085714285714,385.97861247696636 268.6842857142857,398.02322833364093 270.0571428571428,444.41902434007545 270.8542857142857,450.75413338256124 271.42999999999995,439.6674086358671 272.75857142857143,395.0283778869719 273.55571428571426,386.3065752687286 274.17571428571426,396.710300971699 275.5042857142857,440.5928796937952 276.5228571428571,448.5070926452702 277.1428571428571,145.79868780664654 277.4971428571428,422.6290083178345 278.6928571428571,389.05760229389546 279.48999999999995,391.8777391989092 280.99571428571426,437.85400179448317 281.7042857142857,449.09570166348686 282.3685714285714,442.7298455485323 283.6971428571428,401.7372516341601 284.4057142857143,388.84228369457276 285.07,393.13211943419657 286.3542857142857,431.2976089442997 287.0628571428571,446.56811185175604 287.77142857142854,444.74786347299164 288.21428571428567,435.0379047174817 289.54285714285714,395.6254073050338 290.34,390.29222778488605 290.9157142857143,400.14667345332606 292.2885714285714,440.19681503092727 293.0857142857143,446.43584607966716 293.70571428571424,436.3252135532843 294.98999999999995,398.959785738179 295.78714285714284,390.702494823922 296.40714285714284,399.0939083544916 297.73571428571427,436.840210757389 298.7985714285714,444.14282340654376 299.2857142857143,146.55507144023042 299.7285714285714,422.9325297459801 300.9242857142857,393.49175331821965 301.72142857142853,395.15422672318226 303.22714285714284,434.4617598593651 303.93571428571425,444.72340157640906 304.59999999999997,439.857006342589 305.9285714285714,404.7998898880216 306.6371428571428,393.15858963874564 307.3014285714286,396.2375630799272 308.5857142857143,428.74541655099523 309.3385714285714,442.77418996840595 310.04714285714283,440.8684907095085 310.48999999999995,432.35857513638365 311.77428571428567,399.3423607823585 312.61571428571426,394.3456418053745 313.19142857142856,403.0504458538968 314.52,436.6285777489286 315.3171428571428,442.66881489778797 315.9371428571428,434.44492083790874 317.26571428571424,401.39984141901357 318.0628571428571,394.64039149196446 318.68285714285713,402.11028804965133 319.96714285714285,433.68810466767815 321.03,440.8153148004277 321.4285714285714,146.53486810486473 321.96,423.0663875316561 323.2,396.8475902465027 323.9971428571428,398.6234805485633 325.4585714285714,431.6250275033631 326.16714285714284,440.95145571244973 326.83142857142855,437.29416351075355 328.11571428571426,408.3301045436397 328.8685714285714,396.87105082756835 329.5771428571428,399.55323994726854 329.9757142857143,406.519687210777 331.3042857142857,436.0874868731128 332.14571428571423,439.30781783133665 332.6771428571428,431.8878022112353 334.04999999999995,401.78825677642584 334.84714285714284,397.5607171915602 335.42285714285714,404.67030760184286 336.75142857142856,433.61726991854374 337.5485714285714,439.38677960194406 338.1685714285714,432.72726939102444 339.4971428571428,404.2786986053772 340.2942857142857,397.9089153680036 340.9142857142857,403.9186586746837 342.24285714285713,431.8290758305655 343.26142857142855,437.89643351002337 343.57142857142856,145.94005293511455 344.19142857142856,423.0719662834428 345.43142857142857,400.1193091622277 346.2285714285714,401.08153457485 347.69,429.25739657283304 348.3985714285714,437.7009354776588 349.0628571428571,435.0131534965006 350.34714285714284,410.3198766675826 351.09999999999997,400.0607211941402 351.8085714285714,401.884102196735 352.20714285714286,407.67526126406466 353.58,433.8169748026114 354.3771428571428,436.5755010054825 354.9528571428571,429.75639031561974 356.28142857142853,404.51576345237146 357.0785714285714,400.36824063325423 357.6985714285714,406.8506545257574 359.02714285714285,431.7177370914259 359.8242857142857,436.4196858452448 360.4442857142857,430.5042166585509 361.7285714285714,406.69993791554384 362.52571428571423,400.74885988191335 363.19,406.1783284561636 364.4742857142857,429.52486435232817 365.49285714285713,435.3396525419942 365.71428571428567,144.94010326676684 366.42285714285714,422.982513370856 367.6628571428571,402.916374574941 368.46,403.25684990471024 369.9214285714285,427.2853293505861 370.63,434.9027665114456 371.3385714285714,432.54499610694086 372.5785714285714,411.9596022708 373.33142857142855,402.7982756440708 374.03999999999996,403.94887727565305 374.4828571428571,409.42565769930735 375.81142857142856,431.3574481334138 376.6085714285714,434.18380200319655 377.1842857142857,428.59827754268025 378.5128571428571,406.82016167770655 379.30999999999995,402.81673876783066 379.92999999999995,408.08493561941486 381.2585714285714,429.5113923087333 382.05571428571426,433.97826857230837 382.67571428571426,429.1990633983152 383.96,408.7330132601061 384.7571428571428,403.213556669159 385.4214285714285,407.54910672999193 386.74999999999994,428.18170969426126 387.72428571428566,433.1031335775046 387.85714285714283,143.67456672910967 388.65428571428566,422.8245746577781 389.8942857142857,405.30497829867494 390.73571428571427,405.5079903886153 392.1528571428571,425.64631653735256 392.8614285714285,432.4965797349374 393.57,430.8315916789463 393.9685714285714,426.3460285533145 395.29714285714283,407.15592792609647 396.1385714285714,404.9834626092222 396.66999999999996,409.74801323420905 398.0428571428571,429.2743998400934 398.8842857142857,431.927445209794 399.46,426.9965852693637 400.7885714285714,408.2964218765695 401.58571428571423,405.05083564909893 402.20571428571424,409.7213380174721 403.48999999999995,427.65346662484677 404.28714285714284,431.85497598088864 404.95142857142855,427.5325524076113 406.23571428571427,409.926133790213 406.9885714285714,405.35014811209663 407.6528571428571,408.78753355946264 408.9814285714285,426.4979622637152 409.95571428571424,431.14936395067565 409.99999999999994,142.25599768276905 410.88571428571424,422.61919401341555 412.12571428571425,407.34245818117415 412.96714285714285,407.13779868091655 414.3842857142857,424.2872885534454 415.0928571428571,430.4296830243363 415.8014285714285,429.3113848813715 416.2,425.5842707184941 417.5728571428571,408.6186775316393 418.36999999999995,406.76111998504445 418.94571428571425,411.1391222622311 420.27428571428567,427.51255575417434 421.07142857142856,430.26788211503685 421.69142857142856,426.11238682376967 423.02,409.9857506067848 423.8171428571428,406.8730486789864 424.4371428571428,410.6607979621439 425.76571428571424,426.51679238478835 426.5185714285714,430.0105336971677 427.18285714285713,426.5417629982096 428.46714285714285,411.4120830917126 429.21999999999997,407.2002320516889 429.8842857142857,409.9026810093416 431.2571428571428,425.52831686650757 432.1428571428571,140.7730650927931 432.1871428571428,429.4447994989757 433.0728571428571,422.89471646168937 434.35714285714283,409.07842714339506 435.19857142857137,408.5763083471881 435.77428571428567,413.29538159575833 437.1028571428571,427.51415613838367 437.9,428.59987106593275 438.4314285714285,424.8756197888728 439.8042857142857,410.20819114010334 440.6014285714285,408.31673759710026 441.1771428571428,411.9002094859263 442.50571428571425,426.02444233921784 443.30285714285714,428.67648646805816 443.9228571428571,425.30232875358416 445.25142857142856,411.41000822130275 446.0485714285714,408.45934334563566 446.6685714285714,411.51638820340673 447.9971428571428,425.1569605844784 448.74999999999994,428.4101738253335 449.41428571428565,425.64404646071597 450.74285714285713,412.2738208079429 451.49571428571426,408.77638000711664 452.15999999999997,411.21593281514276 453.4885714285714,424.2984431284774 454.2857142857143,139.29368003985735 454.4185714285714,427.95951906871124 455.3042857142857,422.5628761170398 456.6328571428571,410.31717590800235 457.42999999999995,409.84382648528145 458.00571428571425,413.758271993909 459.33428571428567,426.086139614864 460.17571428571426,427.1330106919519 460.7071428571428,423.85559316332024 462.0357142857142,411.55403957435794 462.8771428571428,409.78069522322096 463.4528571428571,412.9453690245797 464.78142857142853,425.07478817399254 465.57857142857137,427.2278589774133 466.19857142857137,424.2350834975807 467.5271428571428,412.29622573330664 468.3242857142857,409.88234126896276 468.9442857142857,412.6027382563229 470.2285714285714,424.0145232731749 471.02571428571423,427.01919248295957 471.68999999999994,424.54150260277464 472.97428571428566,413.35946089529165 473.72714285714284,410.1486606811781 474.39142857142855,412.057952059921 475.71999999999997,423.2697381282108 476.4285714285714,137.86802973709558 476.65,426.66689471618895 477.5357142857142,422.23417702634157 478.8642857142857,411.59498005313566 479.70571428571424,411.10962541643806 480.2371428571428,414.1978339272449 481.56571428571425,424.87423159642935 482.40714285714284,426.00934781117587 482.9385714285714,423.3129153306105 484.3114285714285,412.4415478640885 485.1085714285714,410.9402358569066 485.6842857142857,413.5261410048547 487.0128571428571,423.98401908812366 487.80999999999995,426.04365582704185 488.42999999999995,423.61879171350773 489.7585714285714,413.3392605164543 490.55571428571426,411.0618894653395 491.17571428571426,413.25199713794285 492.5042857142857,423.33875035701084 493.2571428571428,425.83101287779226 493.9214285714285,423.861803281541 495.20571428571424,414.26797688597946 495.9585714285714,411.3349904925673 496.62285714285713,412.81284552886876 497.95142857142855,422.41093980318755 498.57142857142856,136.5314374717906 498.88142857142856,425.54328027302375 499.7671428571428,421.91453018473084 501.0957142857142,412.6818000364622 501.9371428571428,412.0574069800463 502.4242857142857,414.33063004090087 503.79714285714283,423.84703450301845 504.63857142857137,425.02421191894524 505.21428571428567,422.5459148681511 506.5428571428571,413.4292110347057 507.34,411.9529507079014 507.96,414.3110111861785 509.2442857142857,423.06467751585865 510.0414285714285,425.0130221570231 510.66142857142853,423.0580056399711 511.98999999999995,414.21666504338697 512.7428571428571,412.0755345939262 513.4071428571428,413.83982129286187 514.7357142857143,422.5035391184007 515.4885714285714,424.8017893696789 516.1528571428571,423.2491260275073 517.4814285714285,414.7741964184375 518.1899999999999,412.3594474611696 518.8542857142857,413.4878205870925 520.1828571428571,421.69543870622005 520.7142857142857,135.3069947898035 521.1128571428571,424.5677198741935 521.9985714285714,421.60812402851127 523.3271428571428,413.60505969526884 524.1685714285713,412.8905682943603 524.6999999999999,414.99655155129796 526.0728571428571,423.1603774975097 526.87,424.16174041716926 527.4457142857142,422.1309158866964 528.7742857142857,414.2638033145549 529.5714285714286,412.8362961466486 530.1914285714286,414.7536690466074 531.52,422.4950397410235 532.3171428571428,424.0906205764908 532.9371428571428,422.3498986113509 534.2214285714285,414.95355575299124 535.0185714285714,412.9766333853619 535.6828571428571,414.55815952326736 536.9671428571428,421.8035954498418 537.7199999999999,423.91124876021564 538.3842857142856,422.6985809144499 539.712857142857,415.4371161471577 540.4214285714286,413.2431609075151 541.13,414.24374623565546 542.4142857142857,421.10061265131105 542.8571428571428,134.2079340221264 543.3442857142857,423.7216772230854 544.2299999999999,421.31778669086583 545.5585714285714,414.38839856002926 546.4,413.62186520154506 546.9314285714286,415.3534409791301 548.3042857142857,422.4061795791386 549.1014285714285,423.4076853544571 549.6771428571428,421.74952677605825 551.05,414.79969950150314 551.8471428571428,413.6434405677001 552.4671428571428,415.3428016056405 553.7514285714285,421.82187150078266 554.5485714285713,423.32434217109636 555.1685714285713,421.9245106826956 556.4971428571428,415.3873026111503 557.25,413.74801438357576 557.9142857142857,415.0030785014651 559.2428571428571,421.4048197320265 559.9514285714286,423.1415516904262 560.6157142857143,422.205277995369 561.9885714285714,415.8013852779459 562.6971428571428,413.96743244611207 563.3614285714285,414.7518076767465 564.6457142857142,420.6072527854948 565,133.23972649111263 565.5757142857143,422.9887857419694 566.4614285714285,421.0452818888608 567.8342857142857,414.91894761038344 568.6314285714285,414.2628211295801 569.2071428571428,415.85406672520446 570.5357142857142,421.768172871346 571.332857142857,422.749285137234 571.952857142857,421.2375183420591 573.2814285714285,415.4115803328895 574.0785714285714,414.3008879559753 574.6985714285714,415.6798184355305 576.0271428571428,421.4089380309245 576.78,422.6586034396392 577.4442857142857,421.39408031768954 578.7285714285714,415.9259399733989 579.4814285714285,414.41604765306505 580.1457142857142,415.40386365883745 581.4742857142857,420.89373052928113 582.1828571428571,422.4770248145759 582.8471428571428,421.7644273972424 584.1757142857142,416.4510254086839 584.9285714285713,414.6217471774734 585.592857142857,415.20445693197524 586.8771428571428,420.19906905686406 587.1428571428571,132.4019050108169 587.8071428571428,422.35461929023893 588.6928571428571,420.79154964593795 590.0657142857142,415.49438044912404 590.8628571428571,414.82381174045827 591.4385714285714,416.12683368538165 592.7671428571429,421.2291984707622 593.5642857142857,422.17513918162217 594.1842857142857,420.94696748795013 595.5128571428571,415.92754416069187 596.31,414.8733019225521 596.93,415.9869118027995 598.2585714285714,420.91619574287563 599.0114285714285,422.0808836073776 599.6757142857142,421.0716741910782 601.0042857142856,416.23928107180444 601.7571428571429,414.9859404252595 602.4214285714286,415.8771187525812 603.7057142857143,420.46656459772083 604.4585714285714,421.9275066390099 605.1228571428571,421.27257735648027 606.4071428571428,416.83385242335225 607.16,415.1852757256802 607.8242857142857,415.6068400588554 609.1085714285714,419.86226455247856 609.2857142857142,131.68961917949568 610.0385714285713,421.8064827943837 610.9242857142857,420.556901269333 612.2971428571428,415.9816805368193 613.1385714285714,415.35253569940795 613.7142857142857,416.50300776454947 615.0428571428571,420.8844439129861 615.8399999999999,421.6517587249048 616.4599999999999,420.562722317797 617.7442857142856,416.36197519212703 618.5414285714285,415.37108073546773 619.2057142857143,416.3781504669563 620.4899999999999,420.5021454129302 621.2871428571428,421.57806220218754 621.9514285714286,420.6744945284189 623.2357142857143,416.63285133985875 623.9885714285714,415.4814788585995 624.6528571428571,416.1797933832659 625.9814285714285,420.2332773633564 626.6899999999999,421.4352808705 627.3542857142857,420.94082072432093 628.6385714285714,417.1512208904015 629.3471428571428,415.7077706157966 630.0557142857142,415.96379364535835 630.5428571428571,417.0797929169755 631.3842857142856,419.7166137196886" fill="none" stroke="#1F77B4" stroke-width="1.5" />
</g>
<g class="spine">
<line x1="100" y1="534" x2="720" y2="534" stroke="#262626" stroke-width="0.8" />
</g>
<g class="spine">
<line x1="100" y1="72" x2="720" y2="72" stroke="#262626" stroke-width="0.8" />
</g>
<g class="spine">
<line x1="100" y1="72" x2="100" y2="534" stroke="#262626" stroke-width="0.8" />
</g>
<g class="spine">
<line x1="720" y1="72" x2="720" y2="534" stroke="#262626" stroke-width="0.8" />
</g>
<rect x="612.4475330776638" y="82" width="97.55246692233615" height="25.72222222222222" fill="#FFFFFF" fill-opacity="0.8" stroke="#CCCCCC" stroke-width="0.5" />
<g class="legend" aria-label="Chart legend">
<line x1="620.4475330776638" y1="94.86111111111111" x2="648.2253108554416" y2="94.86111111111111" stroke="#1F77B4" stroke-width="1.5" />
<path d="M7.43273 -9.79275L7.43273 -8.45676Q6.65283 -8.82975 5.9611 -9.01286Q5.26937 -9.19596 4.62511 -9.19596Q3.50613 -9.19596 2.89917 -8.76194Q2.29221 -8.32791 2.29221 -7.52767Q2.29221 -6.85628 2.69572 -6.51381Q3.09923 -6.17133 4.22499 -5.9611L5.05235 -5.79156Q6.58501 -5.49995 7.31405 -4.76413Q8.04308 -4.02832 8.04308 -2.79405Q8.04308 -1.32243 7.05634 -0.56288Q6.06961 0.196669 4.16395 0.196669Q3.4451 0.196669 2.63468 0.0339084Q1.82427 -0.128852 0.956217 -0.447591L0.956217 -1.85818Q1.79036 -1.39025 2.5906 -1.15289Q3.39084 -0.915527 4.16395 -0.915527Q5.33719 -0.915527 5.97466 -1.37668Q6.61214 -1.83784 6.61214 -2.69233Q6.61214 -3.43831 6.15438 -3.85878Q5.69661 -4.27924 4.65224 -4.48947L3.81809 -4.65224Q2.28543 -4.95741 1.60048 -5.60845Q0.915527 -6.25949 0.915527 -7.41916Q0.915527 -8.76194 1.86157 -9.53505Q2.80762 -10.3082 4.46913 -10.3082Q5.18121 -10.3082 5.92041 -10.1793Q6.65961 -10.0505 7.43273 -9.79275ZM10.1251 -7.59549L11.3729 -7.59549L11.3729 0L10.1251 0L10.1251 -7.59549ZM10.1251 -10.5523L11.3729 -10.5523L11.3729 -8.97217L10.1251 -8.97217L10.1251 -10.5523ZM18.9819 -3.88591Q18.9819 -5.24224 18.4224 -5.98823Q17.863 -6.73421 16.8525 -6.73421Q15.8488 -6.73421 15.2893 -5.98823Q14.7298 -5.24224 14.7298 -3.88591Q14.7298 -2.53635 15.2893 -1.79036Q15.8488 -1.04438 16.8525 -1.04438Q17.863 -1.04438 18.4224 -1.79036Q18.9819 -2.53635 18.9819 -3.88591ZM20.2298 -0.942654Q20.2298 0.996908 19.3685 1.94295Q18.5072 2.889 16.7304 2.889Q16.0726 2.889 15.4894 2.79066Q14.9061 2.69233 14.3568 2.48888L14.3568 1.27496Q14.9061 1.57335 15.4419 1.71577Q15.9776 1.85818 16.5337 1.85818Q17.7612 1.85818 18.3716 1.21731Q18.9819 0.576443 18.9819 -0.718859L18.9819 -1.33599Q18.5954 -0.664605 17.9918 -0.332303C17.5894 -0.110768 17.1079 0 16.5473 0Q15.1503 0 14.2958 -1.06472Q13.4413 -2.12945 13.4413 -3.88591Q13.4413 -5.64914 14.2958 -6.71387Q15.1503 -7.77859 16.5473 -7.77859Q17.3882 -7.77859 17.9918 -7.44629Q18.5954 -7.11399 18.9819 -6.4426L18.9819 -7.59549L20.2298 -7.59549L20.2298 -0.942654ZM29.1138 -4.58442L29.1138 0L27.8659 0L27.8659 -4.54373Q27.8659 -5.62202 27.4455 -6.15777Q27.025 -6.69352 26.1841 -6.69352Q25.1736 -6.69352 24.5904 -6.04926Q24.0072 -5.405 24.0072 -4.29281L24.0072 0L22.7526 0L22.7526 -7.59549L24.0072 -7.59549L24.0072 -6.41547Q24.4548 -7.10042 25.0617 -7.43951Q25.6687 -7.77859 26.4621 -7.77859Q27.771 -7.77859 28.4424 -6.96818Q29.1138 -6.15777 29.1138 -4.58442ZM35.0545 -3.81809Q33.5422 -3.81809 32.959 -3.47222Q32.3758 -3.12636 32.3758 -2.29221Q32.3758 -1.6276 32.8132 -1.23766Q33.2506 -0.84771 34.0034 -0.847711Q35.041 -0.847711 35.6683 -1.58352Q36.2956 -2.31934 36.2956 -3.54004L36.2956 -3.81809L35.0545 -3.81809ZM37.5434 -4.3335L37.5434 0L36.2956 0L36.2956 -1.15289Q35.8683 -0.461155 35.2309 -0.132243Q34.5934 0.196669 33.6711 0.196669Q32.5046 0.196669 31.8163 -0.457764Q31.1279 -1.1122 31.1279 -2.21083Q31.1279 -3.49257 31.9858 -4.14361Q32.8437 -4.79465 34.5459 -4.79465L36.2956 -4.79465L36.2956 -4.91672Q36.2956 -5.77799 35.7293 -6.24932Q35.163 -6.72065 34.139 -6.72065Q33.488 -6.72065 32.8708 -6.56467Q32.2537 -6.40869 31.684 -6.09673L31.684 -7.24962Q32.369 -7.51411 33.0132 -7.64635Q33.6575 -7.77859 34.2679 -7.77859Q35.9158 -7.77859 36.7296 -6.9241Q37.5434 -6.06961 37.5434 -4.3335ZM40.1137 -10.5523L41.3615 -10.5523L41.3615 0L40.1137 0L40.1137 -10.5523Z" fill="#262626" transform="translate(659.3364219665527,98.72222222222223)" />
</g>
<path d="M1.86198 -2.06369L4.49978 -2.06369L4.49978 -9.5504L1.79216 -8.99181L1.79216 -11.0245L4.48427 -11.5831L7.32378 -11.5831L7.32378 -2.06369L9.96159 -2.06369L9.96159 0L1.86198 0L1.86198 -2.06369ZM18.3638 -5.80317Q18.3638 -7.97548 17.9565 -8.8638Q17.5492 -9.75212 16.5871 -9.75212Q15.6251 -9.75212 15.2139 -8.8638Q14.8027 -7.97548 14.8027 -5.80317Q14.8027 -3.60758 15.2139 -2.70763Q15.6251 -1.80767 16.5871 -1.80767Q17.5414 -1.80767 17.9526 -2.70763Q18.3638 -3.60758 18.3638 -5.80317ZM21.3507 -5.77989Q21.3507 -2.90158 20.1094 -1.3383Q18.8681 0.224989 16.5871 0.224989Q14.2984 0.224989 13.0571 -1.3383Q11.8158 -2.90158 11.8158 -5.77989Q11.8158 -8.66596 13.0571 -10.2292Q14.2984 -11.7925 16.5871 -11.7925Q18.8681 -11.7925 20.1094 -10.2292Q21.3507 -8.66596 21.3507 -5.77989ZM34.9509 -5.80317Q34.9509 -7.97548 34.5436 -8.8638Q34.1363 -9.75212 33.1743 -9.75212Q32.2122 -9.75212 31.8011 -8.8638Q31.3899 -7.97548 31.3899 -5.80317Q31.3899 -3.60758 31.8011 -2.70763Q32.2122 -1.80767 33.1743 -1.80767Q34.1285 -1.80767 34.5397 -2.70763Q34.9509 -3.60758 34.9509 -5.80317ZM37.9378 -5.77989Q37.9378 -2.90158 36.6965 -1.3383Q35.4552 0.224989 33.1743 0.224989Q30.8856 0.224989 29.6443 -1.3383Q28.4029 -2.90158 28.4029 -5.77989Q28.4029 -8.66596 29.6443 -10.2292Q30.8856 -11.7925 33.1743 -11.7925Q35.4552 -11.7925 36.6965 -10.2292Q37.9378 -8.66596 37.9378 -5.77989ZM46.0064 -5.80317Q46.0064 -7.97548 45.5991 -8.8638Q45.1918 -9.75212 44.2298 -9.75212Q43.2677 -9.75212 42.8566 -8.8638Q42.4454 -7.97548 42.4454 -5.80317Q42.4454 -3.60758 42.8566 -2.70763Q43.2677 -1.80767 44.2298 -1.80767Q45.184 -1.80767 45.5952 -2.70763Q46.0064 -3.60758 46.0064 -5.80317ZM48.9933 -5.77989Q48.9933 -2.90158 47.752 -1.3383Q46.5107 0.224989 44.2298 0.224989Q41.9411 0.224989 40.6998 -1.3383Q39.4584 -2.90158 39.4584 -5.77989Q39.4584 -8.66596 40.6998 -10.2292Q41.9411 -11.7925 44.2298 -11.7925Q46.5107 -11.7925 47.752 -10.2292Q48.9933 -8.66596 48.9933 -5.77989ZM57.0619 -5.80317Q57.0619 -7.97548 56.6546 -8.8638Q56.2473 -9.75212 55.2853 -9.75212Q54.3232 -9.75212 53.9121 -8.8638Q53.5009 -7.97548 53.5009 -5.80317Q53.5009 -3.60758 53.9121 -2.70763Q54.3232 -1.80767 55.2853 -1.80767Q56.2395 -1.80767 56.6507 -2.70763Q57.0619 -3.60758 57.0619 -5.80317ZM60.0488 -5.77989Q60.0488 -2.90158 58.8075 -1.3383Q57.5662 0.224989 55.2853 0.224989Q52.9966 0.224989 51.7553 -1.3383Q50.5139 -2.90158 50.5139 -5.77989Q50.5139 -8.66596 51.7553 -10.2292Q52.9966 -11.7925 55.2853 -11.7925Q57.5662 -11.7925 58.8075 -10.2292Q60.0488 -8.66596 60.0488 -5.77989ZM61.6703 -5.70231L66.5425 -5.70231L66.5425 -3.44466L61.6703 -3.44466L61.6703 -5.70231ZM71.5155 -1.25684L71.5155 3.30501L68.7381 3.30501L68.7381 -8.68924L71.5155 -8.68924L71.5155 -7.41688Q72.0896 -8.17719 72.7879 -8.53795Q73.4861 -8.89871 74.3938 -8.89871Q75.9998 -8.89871 77.0316 -7.62248Q78.0635 -6.34625 78.0635 -4.33686Q78.0635 -2.32747 77.0316 -1.05124Q75.9998 0.224989 74.3938 0.224989Q73.4861 0.224989 72.7879 -0.135769Q72.0896 -0.496528 71.5155 -1.25684ZM73.362 -6.88156Q72.4698 -6.88156 71.9927 -6.22599Q71.5155 -5.57042 71.5155 -4.33686Q71.5155 -3.1033 71.9927 -2.44773Q72.4698 -1.79215 73.362 -1.79216Q74.2542 -1.79215 74.7236 -2.44385Q75.1929 -3.09554 75.1929 -4.33686Q75.1929 -5.57818 74.7236 -6.22987Q74.2542 -6.88156 73.362 -6.88156ZM84.2468 -6.9126Q83.3236 -6.9126 82.8387 -6.24927Q82.3538 -5.58594 82.3538 -4.33686Q82.3538 -3.08778 82.8387 -2.42445Q83.3236 -1.76112 84.2468 -1.76112Q85.1545 -1.76112 85.6355 -2.42445Q86.1165 -3.08778 86.1165 -4.33686Q86.1165 -5.58594 85.6355 -6.24927Q85.1545 -6.9126 84.2468 -6.9126ZM84.2468 -8.89871Q86.4889 -8.89871 87.7497 -7.68842Q89.0104 -6.47814 89.0104 -4.33686Q89.0104 -2.19558 87.7497 -0.985297Q86.4889 0.224989 84.2468 0.224989Q81.9969 0.224989 80.7284 -0.985297Q79.46 -2.19558 79.46 -4.33686Q79.46 -6.47814 80.7284 -7.68842Q81.9969 -8.89871 84.2468 -8.89871ZM91.0275 -8.68924L93.805 -8.68924L93.805 0L91.0275 0L91.0275 -8.68924ZM91.0275 -12.0718L93.805 -12.0718L93.805 -9.80642L91.0275 -9.80642L91.0275 -12.0718ZM105.21 -5.29112L105.21 0L102.417 0L102.417 -0.861165L102.417 -4.0498Q102.417 -5.17475 102.366 -5.60145Q102.316 -6.02816 102.192 -6.22987Q102.029 -6.50141 101.749 -6.6527Q101.47 -6.80398 101.113 -6.80398Q100.244 -6.80398 99.7478 -6.13289Q99.2513 -5.46181 99.2513 -4.27479L99.2513 0L96.4738 0L96.4738 -8.68924L99.2513 -8.68924L99.2513 -7.41688Q99.8797 -8.17719 100.586 -8.53795Q101.292 -8.89871 102.145 -8.89871Q103.65 -8.89871 104.43 -7.97548Q105.21 -7.05225 105.21 -5.29112ZM110.819 -11.1564L110.819 -8.68924L113.682 -8.68924L113.682 -6.70313L110.819 -6.70313L110.819 -3.01796Q110.819 -2.41281 111.059 -2.19946Q111.3 -1.98611 112.014 -1.98611L113.441 -1.98611L113.441 0L111.059 0Q109.415 0 108.728 -0.686605Q108.041 -1.37321 108.041 -3.01796L108.041 -6.70313L106.66 -6.70313L106.66 -8.68924L108.041 -8.68924L108.041 -11.1564L110.819 -11.1564ZM127.701 -8.4177L127.701 -6.30745Q126.809 -6.67985 125.978 -6.86605Q125.148 -7.05225 124.411 -7.05225Q123.62 -7.05225 123.236 -6.85441Q122.852 -6.65657 122.852 -6.24539Q122.852 -5.91178 123.143 -5.73334Q123.434 -5.5549 124.186 -5.46956L124.675 -5.39974Q126.809 -5.1282 127.546 -4.50754Q128.283 -3.88688 128.283 -2.56022Q128.283 -1.1715 127.259 -0.473253Q126.234 0.224989 124.202 0.224989Q123.341 0.224989 122.421 0.0892198Q121.502 -0.0465495 120.532 -0.318088L120.532 -2.42833Q121.362 -2.0249 122.235 -1.82319Q123.108 -1.62147 124.008 -1.62147Q124.822 -1.62147 125.234 -1.84646Q125.645 -2.07145 125.645 -2.51367Q125.645 -2.88607 125.362 -3.06839Q125.078 -3.25071 124.233 -3.35156L123.744 -3.41363Q121.89 -3.64638 121.145 -4.27479Q120.4 -4.90321 120.4 -6.18332Q120.4 -7.56429 121.347 -8.2315Q122.293 -8.89871 124.248 -8.89871Q125.016 -8.89871 125.862 -8.78234Q126.708 -8.66596 127.701 -8.4177ZM130.37 -8.68924L133.147 -8.68924L133.147 0L130.37 0L130.37 -8.68924ZM130.37 -12.0718L133.147 -12.0718L133.147 -9.80642L130.37 -9.80642L130.37 -12.0718ZM141.728 -1.47407Q141.154 -0.713759 140.463 -0.356879Q139.773 0 138.865 0Q137.274 0 136.235 -1.25296Q135.195 -2.50591 135.195 -4.44548Q135.195 -6.3928 136.235 -7.63799Q137.274 -8.88319 138.865 -8.88319Q139.773 -8.88319 140.463 -8.52631Q141.154 -8.16943 141.728 -7.40137L141.728 -8.68924L144.521 -8.68924L144.521 -0.876682Q144.521 1.21804 143.198 2.32359Q141.875 3.42915 139.361 3.42915Q138.547 3.42915 137.786 3.30501Q137.026 3.18088 136.258 2.92486L136.258 0.760308Q136.987 1.17925 137.686 1.38485Q138.384 1.59044 139.09 1.59044Q140.455 1.59044 141.091 0.993056Q141.728 0.395671 141.728 -0.876682L141.728 -1.47407ZM139.897 -6.88156Q139.036 -6.88156 138.555 -6.24539Q138.074 -5.60921 138.074 -4.44548Q138.074 -3.25071 138.539 -2.63392Q139.005 -2.01714 139.897 -2.01714Q140.766 -2.01714 141.247 -2.65332Q141.728 -3.2895 141.728 -4.44548Q141.728 -5.60921 141.247 -6.24539Q140.766 -6.88156 139.897 -6.88156ZM155.925 -5.29112L155.925 0L153.132 0L153.132 -0.861165L153.132 -4.0498Q153.132 -5.17475 153.082 -5.60145Q153.031 -6.02816 152.907 -6.22987Q152.744 -6.50141 152.465 -6.6527Q152.186 -6.80398 151.829 -6.80398Q150.96 -6.80398 150.463 -6.13289Q149.967 -5.46181 149.967 -4.27479L149.967 0L147.189 0L147.189 -8.68924L149.967 -8.68924L149.967 -7.41688Q150.595 -8.17719 151.301 -8.53795Q152.007 -8.89871 152.861 -8.89871Q154.366 -8.89871 155.146 -7.97548Q155.925 -7.05225 155.925 -5.29112ZM162.396 -3.91016Q161.527 -3.91016 161.088 -3.61534Q160.65 -3.32053 160.65 -2.74642Q160.65 -2.21886 161.003 -1.92017Q161.356 -1.62147 161.984 -1.62147Q162.768 -1.62147 163.303 -2.18395Q163.839 -2.74642 163.839 -3.59207L163.839 -3.91016L162.396 -3.91016ZM166.639 -4.95752L166.639 0L163.839 0L163.839 -1.28787Q163.28 -0.496528 162.582 -0.135769Q161.884 0.224989 160.883 0.224989Q159.533 0.224989 158.691 -0.562473Q157.849 -1.34993 157.849 -2.60677Q157.849 -4.13515 158.901 -4.8489Q159.952 -5.56266 162.202 -5.56266L163.839 -5.56266L163.839 -5.77989Q163.839 -6.43934 163.319 -6.7458Q162.799 -7.05225 161.697 -7.05225Q160.805 -7.05225 160.037 -6.87381Q159.269 -6.69537 158.61 -6.33849L158.61 -8.45649Q159.502 -8.67372 160.402 -8.78621Q161.302 -8.89871 162.202 -8.89871Q164.552 -8.89871 165.596 -7.9716Q166.639 -7.04449 166.639 -4.95752ZM169.223 -12.0718L172 -12.0718L172 0L169.223 0L169.223 -12.0718ZM184.856 2.09473L182.552 2.09473Q181.365 0.17844 180.798 -1.54777Q180.232 -3.27398 180.232 -4.97304Q180.232 -6.67209 180.802 -8.41382Q181.372 -10.1555 182.552 -12.0563L184.856 -12.0563Q183.863 -10.2176 183.366 -8.46037Q182.87 -6.70312 182.87 -4.98855Q182.87 -3.27398 183.362 -1.51286Q183.855 0.248264 184.856 2.09473ZM187.587 -11.5831L190.574 -11.5831L190.574 -2.25765L195.818 -2.25765L195.818 0L187.587 0L187.587 -11.5831ZM196.33 -11.5831L207.006 -11.5831L207.006 -9.32541L203.165 -9.32541L203.165 0L200.178 0L200.178 -9.32541L196.33 -9.32541L196.33 -11.5831ZM207.168 -11.5831L217.844 -11.5831L217.844 -9.32541L214.003 -9.32541L214.003 0L211.017 0L211.017 -9.32541L207.168 -9.32541L207.168 -11.5831ZM224.027 -7.0988Q224.733 -7.09879 225.098 -7.40913Q225.462 -7.71946 225.462 -8.3246Q225.462 -8.92198 225.098 -9.23619Q224.733 -9.5504 224.027 -9.5504L222.375 -9.5504L222.375 -7.0988L224.027 -7.0988ZM224.128 -2.03266Q225.028 -2.03266 225.482 -2.41281Q225.936 -2.79297 225.936 -3.56104Q225.936 -4.31358 225.486 -4.68986Q225.036 -5.06613 224.128 -5.06613L222.375 -5.06613L222.375 -2.03266L224.128 -2.03266ZM226.905 -6.19884Q227.867 -5.91954 228.395 -5.16699Q228.923 -4.41444 228.923 -3.32053Q228.923 -1.64475 227.79 -0.822374Q226.657 0 224.345 0L219.388 0L219.388 -11.5831L223.872 -11.5831Q226.285 -11.5831 227.367 -10.8538Q228.449 -10.1245 228.449 -8.51855Q228.449 -7.6729 228.054 -7.0794Q227.658 -6.48589 226.905 -6.19884ZM248.109 -5.52387L248.109 -4.43772L245.06 -1.38873L243.935 -2.51343L245.471 -4.0498L236.479 -4.0498L236.479 -5.91178L245.471 -5.91178L243.935 -7.44804L245.06 -8.57286L248.109 -5.52387ZM256.1 -11.5831L263.524 -11.5831L263.524 -9.38748L258.482 -9.38748L258.482 -7.59532Q258.823 -7.68842 259.168 -7.73885Q259.513 -7.78928 259.886 -7.78928Q262.004 -7.78928 263.183 -6.73028Q264.362 -5.67128 264.362 -3.77827Q264.362 -1.90077 263.078 -0.837891Q261.794 0.224989 259.513 0.224989Q258.528 0.224989 257.562 0.0349121Q256.596 -0.155165 255.642 -0.543077L255.642 -2.89383Q256.589 -2.35075 257.438 -2.07921Q258.288 -1.80767 259.04 -1.80767Q260.126 -1.80767 260.751 -2.33911Q261.375 -2.87055 261.375 -3.77827Q261.375 -4.69374 260.751 -5.2213Q260.126 -5.74886 259.04 -5.74886Q258.396 -5.74886 257.667 -5.58206Q256.938 -5.41526 256.1 -5.06613L256.1 -11.5831ZM272.78 -5.80317Q272.78 -7.97548 272.373 -8.8638Q271.965 -9.75212 271.003 -9.75212Q270.041 -9.75212 269.63 -8.8638Q269.219 -7.97548 269.219 -5.80317Q269.219 -3.60758 269.63 -2.70763Q270.041 -1.80767 271.003 -1.80767Q271.958 -1.80767 272.369 -2.70763Q272.78 -3.60758 272.78 -5.80317ZM275.767 -5.77989Q275.767 -2.90158 274.526 -1.3383Q273.284 0.224989 271.003 0.224989Q268.715 0.224989 267.473 -1.3383Q266.232 -2.90158 266.232 -5.77989Q266.232 -8.66596 267.473 -10.2292Q268.715 -11.7925 271.003 -11.7925Q273.284 -11.7925 274.526 -10.2292Q275.767 -8.66596 275.767 -5.77989ZM283.835 -5.80317Q283.835 -7.97548 283.428 -8.8638Q283.021 -9.75212 282.059 -9.75212Q281.097 -9.75212 280.686 -8.8638Q280.274 -7.97548 280.274 -5.80317Q280.274 -3.60758 280.686 -2.70763Q281.097 -1.80767 282.059 -1.80767Q283.013 -1.80767 283.424 -2.70763Q283.835 -3.60758 283.835 -5.80317ZM286.822 -5.77989Q286.822 -2.90158 285.581 -1.3383Q284.34 0.224989 282.059 0.224989Q279.77 0.224989 278.529 -1.3383Q277.288 -2.90158 277.288 -5.77989Q277.288 -8.66596 278.529 -10.2292Q279.77 -11.7925 282.059 -11.7925Q284.34 -11.7925 285.581 -10.2292Q286.822 -8.66596 286.822 -5.77989ZM300.361 -7.41688L300.361 -12.0718L303.154 -12.0718L303.154 0L300.361 0L300.361 -1.25684Q299.786 -0.48877 299.096 -0.13189Q298.405 0.224989 297.498 0.224989Q295.892 0.224989 294.86 -1.05124Q293.828 -2.32747 293.828 -4.33686Q293.828 -6.34625 294.86 -7.62248Q295.892 -8.89871 297.498 -8.89871Q298.398 -8.89871 299.092 -8.53795Q299.786 -8.17719 300.361 -7.41688ZM298.53 -1.79216Q299.422 -1.79215 299.891 -2.44385Q300.361 -3.09554 300.361 -4.33686Q300.361 -5.57818 299.891 -6.22987Q299.422 -6.88156 298.53 -6.88156Q297.645 -6.88156 297.176 -6.22987Q296.706 -5.57818 296.706 -4.33686Q296.706 -3.09554 297.176 -2.44385Q297.645 -1.79216 298.53 -1.79216ZM305.822 -8.68924L308.6 -8.68924L308.6 0L305.822 0L305.822 -8.68924ZM305.822 -12.0718L308.6 -12.0718L308.6 -9.80642L305.822 -9.80642L305.822 -12.0718ZM318.057 -8.4177L318.057 -6.30745Q317.165 -6.67985 316.335 -6.86605Q315.505 -7.05225 314.768 -7.05225Q313.976 -7.05225 313.592 -6.85441Q313.208 -6.65657 313.208 -6.24539Q313.208 -5.91178 313.499 -5.73334Q313.79 -5.5549 314.543 -5.46956L315.031 -5.39974Q317.165 -5.1282 317.902 -4.50754Q318.639 -3.88688 318.639 -2.56022Q318.639 -1.1715 317.615 -0.473253Q316.591 0.224989 314.558 0.224989Q313.697 0.224989 312.778 0.0892198Q311.858 -0.0465495 310.888 -0.318088L310.888 -2.42833Q311.719 -2.0249 312.591 -1.82319Q313.464 -1.62147 314.364 -1.62147Q315.179 -1.62147 315.59 -1.84646Q316.001 -2.07145 316.001 -2.51367Q316.001 -2.88607 315.718 -3.06839Q315.435 -3.25071 314.589 -3.35156L314.1 -3.41363Q312.246 -3.64638 311.501 -4.27479Q310.757 -4.90321 310.757 -6.18332Q310.757 -7.56429 311.703 -8.2315Q312.65 -8.89871 314.605 -8.89871Q315.373 -8.89871 316.218 -8.78234Q317.064 -8.66596 318.057 -8.4177ZM323.503 -1.25684L323.503 3.30501L320.726 3.30501L320.726 -8.68924L323.503 -8.68924L323.503 -7.41688Q324.078 -8.17719 324.776 -8.53795Q325.474 -8.89871 326.382 -8.89871Q327.988 -8.89871 329.02 -7.62248Q330.051 -6.34625 330.051 -4.33686Q330.051 -2.32747 329.02 -1.05124Q327.988 0.224989 326.382 0.224989Q325.474 0.224989 324.776 -0.135769Q324.078 -0.496528 323.503 -1.25684ZM325.35 -6.88156Q324.458 -6.88156 323.981 -6.22599Q323.503 -5.57042 323.503 -4.33686Q323.503 -3.1033 323.981 -2.44773Q324.458 -1.79215 325.35 -1.79216Q326.242 -1.79215 326.711 -2.44385Q327.181 -3.09554 327.181 -4.33686Q327.181 -5.57818 326.711 -6.22987Q326.242 -6.88156 325.35 -6.88156ZM332.1 -12.0718L334.877 -12.0718L334.877 0L332.1 0L332.1 -12.0718ZM341.44 -3.91016Q340.572 -3.91016 340.133 -3.61534Q339.695 -3.32053 339.695 -2.74642Q339.695 -2.21886 340.048 -1.92017Q340.401 -1.62147 341.029 -1.62147Q341.813 -1.62147 342.348 -2.18395Q342.884 -2.74642 342.884 -3.59207L342.884 -3.91016L341.44 -3.91016ZM345.684 -4.95752L345.684 0L342.884 0L342.884 -1.28787Q342.325 -0.496528 341.627 -0.135769Q340.928 0.224989 339.928 0.224989Q338.578 0.224989 337.736 -0.562473Q336.894 -1.34993 336.894 -2.60677Q336.894 -4.13515 337.945 -4.8489Q338.997 -5.56266 341.247 -5.56266L342.884 -5.56266L342.884 -5.77989Q342.884 -6.43934 342.364 -6.7458Q341.844 -7.05225 340.742 -7.05225Q339.85 -7.05225 339.082 -6.87381Q338.314 -6.69537 337.654 -6.33849L337.654 -8.45649Q338.547 -8.67372 339.447 -8.78621Q340.347 -8.89871 341.247 -8.89871Q343.597 -8.89871 344.641 -7.9716Q345.684 -7.04449 345.684 -4.95752ZM347.127 -8.68924L349.905 -8.68924L352.24 -2.79297L354.226 -8.68924L357.004 -8.68924L353.349 0.822374Q352.799 2.27317 352.065 2.85116Q351.332 3.42915 350.13 3.42915L348.524 3.42915L348.524 1.60596L349.393 1.60596Q350.099 1.60596 350.421 1.38097Q350.743 1.15598 350.921 0.57411L350.999 0.333605L347.127 -8.68924ZM366.934 -1.25684L366.934 3.30501L364.157 3.30501L364.157 -8.68924L366.934 -8.68924L366.934 -7.41688Q367.508 -8.17719 368.206 -8.53795Q368.905 -8.89871 369.812 -8.89871Q371.418 -8.89871 372.45 -7.62248Q373.482 -6.34625 373.482 -4.33686Q373.482 -2.32747 372.45 -1.05124Q371.418 0.224989 369.812 0.224989Q368.905 0.224989 368.206 -0.135769Q367.508 -0.496528 366.934 -1.25684ZM368.781 -6.88156Q367.888 -6.88156 367.411 -6.22599Q366.934 -5.57042 366.934 -4.33686Q366.934 -3.1033 367.411 -2.44773Q367.888 -1.79215 368.781 -1.79216Q369.673 -1.79215 370.142 -2.44385Q370.611 -3.09554 370.611 -4.33686Q370.611 -5.57818 370.142 -6.22987Q369.673 -6.88156 368.781 -6.88156ZM379.665 -6.9126Q378.742 -6.9126 378.257 -6.24927Q377.772 -5.58594 377.772 -4.33686Q377.772 -3.08778 378.257 -2.42445Q378.742 -1.76112 379.665 -1.76112Q380.573 -1.76112 381.054 -2.42445Q381.535 -3.08778 381.535 -4.33686Q381.535 -5.58594 381.054 -6.24927Q380.573 -6.9126 379.665 -6.9126ZM379.665 -8.89871Q381.908 -8.89871 383.168 -7.68842Q384.429 -6.47814 384.429 -4.33686Q384.429 -2.19558 383.168 -0.985297Q381.908 0.224989 379.665 0.224989Q377.415 0.224989 376.147 -0.985297Q374.879 -2.19558 374.879 -4.33686Q374.879 -6.47814 376.147 -7.68842Q377.415 -8.89871 379.665 -8.89871ZM386.446 -8.68924L389.224 -8.68924L389.224 0L386.446 0L386.446 -8.68924ZM386.446 -12.0718L389.224 -12.0718L389.224 -9.80642L386.446 -9.80642L386.446 -12.0718ZM400.628 -5.29112L400.628 0L397.835 0L397.835 -0.861165L397.835 -4.0498Q397.835 -5.17475 397.785 -5.60145Q397.734 -6.02816 397.61 -6.22987Q397.447 -6.50141 397.168 -6.6527Q396.889 -6.80398 396.532 -6.80398Q395.663 -6.80398 395.166 -6.13289Q394.67 -5.46181 394.67 -4.27479L394.67 0L391.892 0L391.892 -8.68924L394.67 -8.68924L394.67 -7.41688Q395.298 -8.17719 396.004 -8.53795Q396.71 -8.89871 397.564 -8.89871Q399.069 -8.89871 399.848 -7.97548Q400.628 -7.05225 400.628 -5.29112ZM406.237 -11.1564L406.237 -8.68924L409.1 -8.68924L409.1 -6.70313L406.237 -6.70313L406.237 -3.01796Q406.237 -2.41281 406.478 -2.19946Q406.718 -1.98611 407.432 -1.98611L408.86 -1.98611L408.86 0L406.478 0Q404.833 0 404.147 -0.686605Q403.46 -1.37321 403.46 -3.01796L403.46 -6.70313L402.079 -6.70313L402.079 -8.68924L403.46 -8.68924L403.46 -11.1564L406.237 -11.1564ZM417.588 -8.4177L417.588 -6.30745Q416.695 -6.67985 415.865 -6.86605Q415.035 -7.05225 414.298 -7.05225Q413.507 -7.05225 413.123 -6.85441Q412.739 -6.65657 412.739 -6.24539Q412.739 -5.91178 413.03 -5.73334Q413.321 -5.5549 414.073 -5.46956L414.562 -5.39974Q416.695 -5.1282 417.433 -4.50754Q418.17 -3.88688 418.17 -2.56022Q418.17 -1.1715 417.145 -0.473253Q416.121 0.224989 414.089 0.224989Q413.228 0.224989 412.308 0.0892198Q411.389 -0.0465495 410.419 -0.318088L410.419 -2.42833Q411.249 -2.0249 412.122 -1.82319Q412.995 -1.62147 413.895 -1.62147Q414.709 -1.62147 415.121 -1.84646Q415.532 -2.07145 415.532 -2.51367Q415.532 -2.88607 415.249 -3.06839Q414.965 -3.25071 414.12 -3.35156L413.631 -3.41363Q411.777 -3.64638 411.032 -4.27479Q410.287 -4.90321 410.287 -6.18332Q410.287 -7.56429 411.234 -8.2315Q412.18 -8.89871 414.135 -8.89871Q414.903 -8.89871 415.749 -8.78234Q416.595 -8.66596 417.588 -8.4177ZM420.194 2.09473Q421.188 0.248264 421.684 -1.51286Q422.181 -3.27398 422.181 -4.98855Q422.181 -6.70312 421.684 -8.46037Q421.188 -10.2176 420.194 -12.0563L422.499 -12.0563Q423.678 -10.1555 424.248 -8.41382Q424.818 -6.67209 424.818 -4.97304Q424.818 -3.27398 424.252 -1.54777Q423.686 0.17844 422.499 2.09473L420.194 2.09473Z" fill="#262626" transform="translate(410,64) translate(-213.0919189453125,0)" />
<path d="M-0.0406901 -10.1251L8.52458 -10.1251L8.52458 -8.97217L4.93028 -8.97217L4.93028 0L3.5536 0L3.5536 -8.97217L-0.0406901 -8.97217L-0.0406901 -10.1251ZM9.79275 -7.59549L11.0406 -7.59549L11.0406 0L9.79275 0L9.79275 -7.59549ZM9.79275 -10.5523L11.0406 -10.5523L11.0406 -8.97217L9.79275 -8.97217L9.79275 -10.5523ZM19.5652 -6.13742Q20.0331 -6.97835 20.6841 -7.37847Q21.3352 -7.77859 22.2168 -7.77859Q23.4036 -7.77859 24.0479 -6.94784Q24.6921 -6.11708 24.6921 -4.58442L24.6921 0L23.4375 0L23.4375 -4.54373Q23.4375 -5.63558 23.0509 -6.16455Q22.6644 -6.69352 21.8709 -6.69352Q20.9011 -6.69352 20.3383 -6.04926Q19.7754 -5.405 19.7754 -4.29281L19.7754 0L18.5208 0L18.5208 -4.54373Q18.5208 -5.64236 18.1342 -6.16794Q17.7477 -6.69352 16.9406 -6.69352Q15.9844 -6.69352 15.4215 -6.04587Q14.8587 -5.39822 14.8587 -4.29281L14.8587 0L13.6041 0L13.6041 -7.59549L14.8587 -7.59549L14.8587 -6.41547Q15.2859 -7.11399 15.8827 -7.44629Q16.4795 -7.77859 17.3001 -7.77859Q18.1274 -7.77859 18.7073 -7.35813Q19.2871 -6.93766 19.5652 -6.13742ZM33.6778 -4.1097L33.6778 -3.49935L27.9405 -3.49935Q28.0219 -2.21083 28.717 -1.53605Q29.4122 -0.861274 30.6532 -0.861274Q31.3721 -0.861274 32.0468 -1.0376Q32.7216 -1.21392 33.3862 -1.56657L33.3862 -0.386556Q32.7148 -0.101725 32.0095 0.0474718Q31.3043 0.196669 30.5786 0.196669Q28.7611 0.196669 27.6998 -0.861274Q26.6385 -1.91922 26.6385 -3.72314Q26.6385 -5.58811 27.6455 -6.68335Q28.6526 -7.77859 30.3616 -7.77859Q31.8943 -7.77859 32.786 -6.79186Q33.6778 -5.80512 33.6778 -4.1097ZM32.43 -4.47591Q32.4165 -5.49995 31.857 -6.1103Q31.2975 -6.72065 30.3752 -6.72065Q29.3308 -6.72065 28.7035 -6.13064Q28.0762 -5.54064 27.9812 -4.46913L32.43 -4.47591Z" fill="#262626" transform="translate(410,577.5) translate(-17.20852279663086,0)" />
<path d="M4.74718 -8.7755L2.889 -3.73671L6.61214 -3.73671L4.74718 -8.7755ZM3.97407 -10.1251L5.52707 -10.1251L9.38585 0L7.9617 0L7.03939 -2.59739L2.47531 -2.59739L1.55301 0L0.108507 0L3.97407 -10.1251ZM16.7236 -6.13742Q17.1916 -6.97835 17.8426 -7.37847Q18.4937 -7.77859 19.3753 -7.77859Q20.5621 -7.77859 21.2063 -6.94784Q21.8506 -6.11708 21.8506 -4.58442L21.8506 0L20.596 0L20.596 -4.54373Q20.596 -5.63558 20.2094 -6.16455Q19.8229 -6.69352 19.0294 -6.69352Q18.0596 -6.69352 17.4967 -6.04926Q16.9339 -5.405 16.9339 -4.29281L16.9339 0L15.6793 0L15.6793 -4.54373Q15.6793 -5.64236 15.2927 -6.16794Q14.9061 -6.69352 14.0991 -6.69352Q13.1429 -6.69352 12.58 -6.04587Q12.0171 -5.39822 12.0171 -4.29281L12.0171 0L10.7625 0L10.7625 -7.59549L12.0171 -7.59549L12.0171 -6.41547Q12.4444 -7.11399 13.0412 -7.44629Q13.638 -7.77859 14.4586 -7.77859Q15.2859 -7.77859 15.8658 -7.35813Q16.4456 -6.93766 16.7236 -6.13742ZM25.5466 -1.13932L25.5466 2.889L24.292 2.889L24.292 -7.59549L25.5466 -7.59549L25.5466 -6.4426Q25.9399 -7.12077 26.5401 -7.44968Q27.1403 -7.77859 27.9744 -7.77859Q29.3579 -7.77859 30.2226 -6.67996Q31.0872 -5.58133 31.0872 -3.79096Q31.0872 -2.0006 30.2226 -0.901964Q29.3579 0.196669 27.9744 0.196669Q27.1403 0.196669 26.5401 -0.132243Q25.9399 -0.461155 25.5466 -1.13932ZM29.7919 -3.79096Q29.7919 -5.16764 29.2257 -5.95093Q28.6594 -6.73421 27.6693 -6.73421Q26.6791 -6.73421 26.1129 -5.95093Q25.5466 -5.16764 25.5466 -3.79096Q25.5466 -2.41428 26.1129 -1.631Q26.6791 -0.847711 27.6693 -0.847711Q28.6594 -0.847711 29.2257 -1.631Q29.7919 -2.41428 29.7919 -3.79096ZM33.1557 -10.5523L34.4035 -10.5523L34.4035 0L33.1557 0L33.1557 -10.5523ZM37.0144 -7.59549L38.2623 -7.59549L38.2623 0L37.0144 0L37.0144 -7.59549ZM37.0144 -10.5523L38.2623 -10.5523L38.2623 -8.97217L37.0144 -8.97217L37.0144 -10.5523ZM42.1075 -9.75206L42.1075 -7.59549L44.6777 -7.59549L44.6777 -6.62571L42.1075 -6.62571L42.1075 -2.50244Q42.1075 -1.57335 42.3618 -1.30887Q42.6161 -1.04438 43.396 -1.04438L44.6777 -1.04438L44.6777 0L43.396 0Q41.9515 0 41.4022 -0.539144Q40.8529 -1.07829 40.8529 -2.50244L40.8529 -6.62571L39.9373 -6.62571L39.9373 -7.59549L40.8529 -7.59549L40.8529 -9.75206L42.1075 -9.75206ZM46.1901 -2.9975L46.1901 -7.59549L47.4379 -7.59549L47.4379 -3.04498Q47.4379 -1.96669 47.8584 -1.42754Q48.2788 -0.888401 49.1197 -0.888401Q50.1302 -0.888401 50.7168 -1.53266Q51.3034 -2.17692 51.3034 -3.28912L51.3034 -7.59549L52.5513 -7.59549L52.5513 0L51.3034 0L51.3034 -1.16645Q50.8491 -0.474718 50.2489 -0.139025Q49.6487 0.196669 48.8553 0.196669Q47.5464 0.196669 46.8682 -0.617133Q46.1901 -1.43094 46.1901 -2.9975ZM60.1196 -6.4426L60.1196 -10.5523L61.3675 -10.5523L61.3675 0L60.1196 0L60.1196 -1.13932Q59.7263 -0.461154 59.1261 -0.132243Q58.5259 0.196669 57.685 0.196669Q56.3083 0.196669 55.4437 -0.901964Q54.579 -2.0006 54.579 -3.79096Q54.579 -5.58133 55.4437 -6.67996Q56.3083 -7.77859 57.685 -7.77859Q58.5259 -7.77859 59.1261 -7.44968Q59.7263 -7.12077 60.1196 -6.4426ZM55.8675 -3.79096Q55.8675 -2.41428 56.4338 -1.631Q57.0001 -0.847711 57.9902 -0.847711Q58.9803 -0.847711 59.55 -1.631Q60.1196 -2.41428 60.1196 -3.79096Q60.1196 -5.16764 59.55 -5.95093Q58.9803 -6.73421 57.9902 -6.73421Q57.0001 -6.73421 56.4338 -5.95093Q55.8675 -5.16764 55.8675 -3.79096ZM70.4346 -4.1097L70.4346 -3.49935L64.6973 -3.49935Q64.7787 -2.21083 65.4738 -1.53605Q66.1689 -0.861274 67.41 -0.861274Q68.1288 -0.861274 68.8036 -1.0376Q69.4784 -1.21392 70.143 -1.56657L70.143 -0.386556Q69.4716 -0.101725 68.7663 0.0474718Q68.061 0.196669 67.3354 0.196669Q65.5179 0.196669 64.4565 -0.861274Q63.3952 -1.91922 63.3952 -3.72314Q63.3952 -5.58811 64.4023 -6.68335Q65.4093 -7.77859 67.1183 -7.77859Q68.651 -7.77859 69.5428 -6.79186Q70.4346 -5.80512 70.4346 -4.1097ZM69.1868 -4.47591Q69.1732 -5.49995 68.6137 -6.1103Q68.0542 -6.72065 67.1319 -6.72065Q66.0875 -6.72065 65.4602 -6.13064Q64.8329 -5.54064 64.738 -4.46913L69.1868 -4.47591Z" fill="#262626" transform="translate(64.42957793341742,303) rotate(-90) translate(-35.586891174316406,0)" />
</svg>
