<svg xmlns="http://www.w3.org/2000/svg" viewBox="0 0 1000 500" width="1000" height="500" role="img" aria-labelledby="chart-title">
<title id="chart-title">MathText — $\frac{d}{dx}\sqrt{x^2+1}$ and $\hat{\alpha} \cdot \vec{F}$</title>
<rect x="0" y="0" width="1000" height="500" fill="#FFFFFF" />
<text x="500" y="24.099999999999998" font-family="DejaVu Sans, sans-serif" font-size="17.88888888888889" text-anchor="middle" font-weight="bold" fill="#262626">MathText — <tspan baseline-shift="sub" font-size="70%">d</tspan><tspan baseline-shift="sub" font-size="70%">dx</tspan><tspan baseline-shift="sub" font-size="100%">x^2+1</tspan> and <tspan baseline-shift="sub" font-size="100%">α̂</tspan> ⋅ <tspan baseline-shift="sub" font-size="100%">F⃗</tspan></text>
<rect x="94.78727298312718" y="76.53333333333333" width="395.2127270168728" height="369.41111111111115" fill="#FFFFFF" />
<line x1="112.7514878475305" y1="445.5444444444445" x2="112.7514878475305" y2="450.80555555555554" stroke="#262626" stroke-width="1.1111111111111112" />
<path d="M4.41488 -9.22309Q3.35693 -9.22309 2.82457 -8.1821Q2.29221 -7.14111 2.29221 -5.05235Q2.29221 -2.97038 2.82457 -1.92939Q3.35693 -0.888401 4.41488 -0.888401Q5.4796 -0.888401 6.01196 -1.92939Q6.54433 -2.97038 6.54433 -5.05235Q6.54433 -7.14111 6.01196 -8.1821Q5.4796 -9.22309 4.41488 -9.22309ZM4.41488 -10.3082Q6.11708 -10.3082 7.01565 -8.962Q7.91422 -7.61583 7.91423 -5.05235Q7.91423 -2.49566 7.01565 -1.1495Q6.11708 0.196669 4.41488 0.196669Q2.71267 0.196669 1.8141 -1.1495Q0.915527 -2.49566 0.915527 -5.05235Q0.915527 -7.61583 1.8141 -8.962Q2.71267 -10.3082 4.41488 -10.3082Z" fill="#262626" transform="translate(112.7514878475305,469.55555555555554) translate(-4.418267250061035,0)" />
<line x1="149.04283100794123" y1="445.5444444444445" x2="149.04283100794123" y2="450.80555555555554" stroke="#262626" stroke-width="1.1111111111111112" />
<path d="M1.72255 -1.15289L3.9605 -1.15289L3.9605 -8.87722L1.52588 -8.38894L1.52588 -9.63677L3.94694 -10.1251L5.31684 -10.1251L5.31684 -1.15289L7.5548 -1.15289L7.5548 0L1.72255 0L1.72255 -1.15289Z" fill="#262626" transform="translate(149.04283100794123,469.55555555555554) translate(-4.418267250061035,0)" />
<line x1="185.33417416835198" y1="445.5444444444445" x2="185.33417416835198" y2="450.80555555555554" stroke="#262626" stroke-width="1.1111111111111112" />
<path d="M2.6652 -1.15289L7.44629 -1.15289L7.44629 0L1.01725 0L1.01725 -1.15289Q1.79715 -1.95991 3.14331 -3.31963Q4.48947 -4.67936 4.83534 -5.0727Q5.49316 -5.8119 5.75426 -6.32392Q6.01535 -6.83594 6.01535 -7.331Q6.01535 -8.13802 5.44908 -8.64665Q4.88281 -9.15527 3.97407 -9.15527Q3.32981 -9.15527 2.61434 -8.93148Q1.89887 -8.70768 1.08507 -8.25331L1.08507 -9.63677Q1.91243 -9.96908 2.63129 -10.1386Q3.35015 -10.3082 3.94694 -10.3082Q5.52029 -10.3082 6.45616 -9.52148Q7.39204 -8.73481 7.39204 -7.41916Q7.39204 -6.79525 7.15807 -6.23576Q6.9241 -5.67627 6.30697 -4.91672Q6.13742 -4.72005 5.22868 -3.78079Q4.31993 -2.84153 2.6652 -1.15289Z" fill="#262626" transform="translate(185.33417416835198,469.55555555555554) translate(-4.418267250061035,0)" />
<line x1="221.6255173287627" y1="445.5444444444445" x2="221.6255173287627" y2="450.80555555555554" stroke="#262626" stroke-width="1.1111111111111112" />
<path d="M5.63558 -5.45926Q6.61892 -5.24902 7.17163 -4.58442Q7.72434 -3.91981 7.72434 -2.94325Q7.72434 -1.4445 6.69352 -0.623915Q5.66271 0.196669 3.76383 0.196669Q3.12636 0.196669 2.45158 0.0712077Q1.7768 -0.0542535 1.05794 -0.305176L1.05794 -1.6276Q1.6276 -1.2953 2.30577 -1.12576Q2.98394 -0.956217 3.72314 -0.956217Q5.01166 -0.956217 5.68644 -1.46484Q6.36122 -1.97347 6.36122 -2.94325Q6.36122 -3.83843 5.73391 -4.34367Q5.10661 -4.8489 3.98763 -4.8489L2.80762 -4.8489L2.80762 -5.97466L4.04188 -5.97466Q5.05235 -5.97466 5.58811 -6.37817Q6.12386 -6.78168 6.12386 -7.54123Q6.12386 -8.32113 5.57115 -8.7382Q5.01845 -9.15527 3.98763 -9.15527Q3.42475 -9.15527 2.78049 -9.0332Q2.13623 -8.91113 1.36312 -8.65343L1.36312 -9.87413Q2.14301 -10.0911 2.82457 -10.1997Q3.50613 -10.3082 4.1097 -10.3082Q5.66949 -10.3082 6.57823 -9.59947Q7.48698 -8.89079 7.48698 -7.68365Q7.48698 -6.84272 7.00548 -6.26289Q6.52398 -5.68305 5.63558 -5.45926Z" fill="#262626" transform="translate(221.6255173287627,469.55555555555554) translate(-4.418267250061035,0)" />
<line x1="257.9168604891734" y1="445.5444444444445" x2="257.9168604891734" y2="450.80555555555554" stroke="#262626" stroke-width="1.1111111111111112" />
<path d="M5.24902 -8.93148L1.79036 -3.52648L5.24902 -3.52648L5.24902 -8.93148ZM4.88959 -10.1251L6.61214 -10.1251L6.61214 -3.52648L8.05664 -3.52648L8.05664 -2.38715L6.61214 -2.38715L6.61214 0L5.24902 0L5.24902 -2.38715L0.678168 -2.38715L0.678168 -3.70958L4.88959 -10.1251Z" fill="#262626" transform="translate(257.9168604891734,469.55555555555554) translate(-4.418267250061035,0)" />
<line x1="294.20820364958416" y1="445.5444444444445" x2="294.20820364958416" y2="450.80555555555554" stroke="#262626" stroke-width="1.1111111111111112" />
<path d="M1.49875 -10.1251L6.87663 -10.1251L6.87663 -8.97217L2.75336 -8.97217L2.75336 -6.49007Q3.05176 -6.5918 3.35015 -6.64266Q3.64855 -6.69352 3.94694 -6.69352Q5.64236 -6.69352 6.63249 -5.76443Q7.62261 -4.83534 7.62261 -3.24843Q7.62261 -1.61404 6.60536 -0.708686Q5.58811 0.196669 3.73671 0.196669Q3.09923 0.196669 2.43802 0.0881619C1.99721 0.0158239 1.5417 -0.092683 1.07151 -0.237359L1.07151 -1.61404Q1.68186 -1.28174 2.3329 -1.11898Q2.98394 -0.956217 3.70958 -0.956217Q4.88281 -0.956217 5.56776 -1.57335Q6.25271 -2.19048 6.25271 -3.24843Q6.25271 -4.30637 5.56776 -4.9235Q4.88281 -5.54064 3.70958 -5.54064Q3.16026 -5.54064 2.61434 -5.41857Q2.06841 -5.2965 1.49875 -5.03879L1.49875 -10.1251Z" fill="#262626" transform="translate(294.20820364958416,469.55555555555554) translate(-4.418267250061035,0)" />
<line x1="330.4995468099949" y1="445.5444444444445" x2="330.4995468099949" y2="450.80555555555554" stroke="#262626" stroke-width="1.1111111111111112" />
<path d="M4.58442 -5.60845Q3.66211 -5.60845 3.12297 -4.97776Q2.58382 -4.34706 2.58382 -3.24843Q2.58382 -2.15658 3.12297 -1.52249Q3.66211 -0.888401 4.58442 -0.888401Q5.50673 -0.888401 6.04587 -1.52249Q6.58502 -2.15658 6.58502 -3.24843Q6.58502 -4.34706 6.04587 -4.97776Q5.50673 -5.60845 4.58442 -5.60845ZM7.30387 -9.90126L7.30387 -8.65343Q6.78847 -8.89757 6.26289 -9.02642Q5.7373 -9.15527 5.2219 -9.15527Q3.86556 -9.15527 3.15009 -8.23975Q2.43462 -7.32422 2.3329 -5.47282Q2.73302 -6.06282 3.33659 -6.37817Q3.94016 -6.69352 4.6658 -6.69352Q6.19168 -6.69352 7.07669 -5.76782Q7.9617 -4.84212 7.9617 -3.24843Q7.9617 -1.68864 7.03939 -0.745985Q6.11708 0.196669 4.58442 0.196669Q2.82796 0.196669 1.89887 -1.1495Q0.969781 -2.49566 0.969781 -5.05235Q0.969781 -7.45307 2.1091 -8.88062Q3.24843 -10.3082 5.16764 -10.3082Q5.68305 -10.3082 6.20863 -10.2064Q6.73421 -10.1047 7.30387 -9.90126Z" fill="#262626" transform="translate(330.4995468099949,469.55555555555554) translate(-4.418267250061035,0)" />
<line x1="366.7908899704056" y1="445.5444444444445" x2="366.7908899704056" y2="450.80555555555554" stroke="#262626" stroke-width="1.1111111111111112" />
<path d="M1.13932 -10.1251L7.64974 -10.1251L7.64974 -9.54183L3.97407 0L2.54313 0L6.00179 -8.97217L1.13932 -8.97217L1.13932 -10.1251Z" fill="#262626" transform="translate(366.7908899704056,469.55555555555554) translate(-4.418267250061035,0)" />
<line x1="403.08223313081635" y1="445.5444444444445" x2="403.08223313081635" y2="450.80555555555554" stroke="#262626" stroke-width="1.1111111111111112" />
<path d="M4.41488 -4.80821Q3.43831 -4.80821 2.87882 -4.28602Q2.31934 -3.76383 2.31934 -2.84831Q2.31934 -1.93278 2.87882 -1.41059Q3.43831 -0.888401 4.41488 -0.888401Q5.39144 -0.888401 5.95432 -1.41398Q6.5172 -1.93956 6.5172 -2.84831Q6.5172 -3.76383 5.95771 -4.28602Q5.39822 -4.80821 4.41488 -4.80821ZM3.04498 -5.39144Q2.16336 -5.60845 1.67169 -6.21202Q1.18001 -6.81559 1.18001 -7.68365Q1.18001 -8.89757 2.04468 -9.60287Q2.90934 -10.3082 4.41488 -10.3082Q5.92719 -10.3082 6.78847 -9.60287Q7.64974 -8.89757 7.64974 -7.68365Q7.64974 -6.81559 7.15807 -6.21202Q6.6664 -5.60845 5.79156 -5.39144Q6.78168 -5.16086 7.33439 -4.48947Q7.8871 -3.81809 7.8871 -2.84831Q7.8871 -1.37668 6.98853 -0.590007Q6.08995 0.196669 4.41488 0.196669Q2.7398 0.196669 1.84123 -0.590007Q0.942654 -1.37668 0.942654 -2.84831Q0.942654 -3.81809 1.49875 -4.48947Q2.05485 -5.16086 3.04498 -5.39144ZM2.54313 -7.5548Q2.54313 -6.76812 3.0348 -6.32731Q3.52648 -5.8865 4.41488 -5.8865Q5.29649 -5.8865 5.79495 -6.32731Q6.2934 -6.76812 6.2934 -7.5548Q6.2934 -8.34147 5.79495 -8.78228Q5.2965 -9.22309 4.41488 -9.22309Q3.52648 -9.22309 3.0348 -8.78228Q2.54313 -8.34147 2.54313 -7.5548Z" fill="#262626" transform="translate(403.08223313081635,469.55555555555554) translate(-4.418267250061035,0)" />
<line x1="439.3735762912271" y1="445.5444444444445" x2="439.3735762912271" y2="450.80555555555554" stroke="#262626" stroke-width="1.1111111111111112" />
<path d="M1.52588 -0.210232L1.52588 -1.45806Q2.04129 -1.21392 2.57026 -1.08507Q3.09923 -0.956217 3.60786 -0.956217Q4.96419 -0.956217 5.67966 -1.86835Q6.39513 -2.78049 6.49685 -4.63867Q6.10352 -4.05545 5.49995 -3.74349Q4.89638 -3.43153 4.16395 -3.43153Q2.64486 -3.43153 1.75985 -4.35045Q0.874837 -5.26937 0.874837 -6.86306Q0.874837 -8.42285 1.79715 -9.36551Q2.71946 -10.3082 4.25212 -10.3082Q6.00857 -10.3082 6.93427 -8.962Q7.85997 -7.61583 7.85997 -5.05235Q7.85997 -2.65842 6.72404 -1.23088Q5.58811 0.196669 3.66889 0.196669Q3.15348 0.196669 2.62451 0.0949436Q2.09554 -0.00678168 1.52588 -0.210232ZM4.25212 -4.50304Q5.17442 -4.50304 5.71357 -5.13374Q6.25271 -5.76443 6.25271 -6.86306Q6.25271 -7.95491 5.71357 -8.589Q5.17443 -9.22309 4.25212 -9.22309Q3.32981 -9.22309 2.79066 -8.589Q2.25152 -7.95492 2.25152 -6.86306Q2.25152 -5.76443 2.79066 -5.13374Q3.32981 -4.50304 4.25212 -4.50304Z" fill="#262626" transform="translate(439.3735762912271,469.55555555555554) translate(-4.418267250061035,0)" />
<line x1="475.66491945163784" y1="445.5444444444445" x2="475.66491945163784" y2="450.80555555555554" stroke="#262626" stroke-width="1.1111111111111112" />
<path d="M1.72255 -1.15289L3.9605 -1.15289L3.9605 -8.87722L1.52588 -8.38894L1.52588 -9.63677L3.94694 -10.1251L5.31684 -10.1251L5.31684 -1.15289L7.5548 -1.15289L7.5548 0L1.72255 0L1.72255 -1.15289ZM13.2514 -9.22309Q12.1935 -9.22309 11.6611 -8.1821Q11.1287 -7.14111 11.1287 -5.05235Q11.1287 -2.97038 11.6611 -1.92939Q12.1935 -0.888401 13.2514 -0.888401Q14.3161 -0.888401 14.8485 -1.92939Q15.3809 -2.97038 15.3809 -5.05235Q15.3809 -7.14111 14.8485 -8.1821Q14.3161 -9.22309 13.2514 -9.22309ZM13.2514 -10.3082Q14.9536 -10.3082 15.8522 -8.962Q16.7508 -7.61583 16.7508 -5.05235Q16.7508 -2.49566 15.8522 -1.1495Q14.9536 0.196669 13.2514 0.196669Q11.5492 0.196669 10.6506 -1.1495Q9.75206 -2.49566 9.75206 -5.05235Q9.75206 -7.61583 10.6506 -8.962Q11.5492 -10.3082 13.2514 -10.3082Z" fill="#262626" transform="translate(475.66491945163784,469.55555555555554) translate(-8.83653450012207,0)" />
<line x1="89.92616187201607" y1="432.3682320113703" x2="95.18727298312719" y2="432.3682320113703" stroke="#262626" stroke-width="1.1111111111111112" />
<path d="M0.678168 -4.36062L4.3335 -4.36062L4.3335 -3.24843L0.678168 -3.24843L0.678168 -4.36062ZM9.42654 -9.22309Q8.3686 -9.22309 7.83624 -8.1821Q7.30387 -7.14111 7.30387 -5.05235Q7.30387 -2.97038 7.83624 -1.92939Q8.3686 -0.888401 9.42654 -0.888401Q10.4913 -0.888401 11.0236 -1.92939Q11.556 -2.97038 11.556 -5.05235Q11.556 -7.14111 11.0236 -8.1821Q10.4913 -9.22309 9.42654 -9.22309ZM9.42654 -10.3082Q11.1287 -10.3082 12.0273 -8.962Q12.9259 -7.61583 12.9259 -5.05235Q12.9259 -2.49566 12.0273 -1.1495Q11.1287 0.196669 9.42654 0.196669Q7.72434 0.196669 6.82577 -1.1495Q5.92719 -2.49566 5.92719 -5.05235Q5.92719 -7.61583 6.82577 -8.962Q7.72434 -10.3082 9.42654 -10.3082ZM15.3334 -1.72255L16.7643 -1.72255L16.7643 0L15.3334 0L15.3334 -1.72255ZM19.4024 -10.1251L25.9128 -10.1251L25.9128 -9.54183L22.2371 0L20.8062 0L24.2649 -8.97217L19.4024 -8.97217L19.4024 -10.1251ZM28.5984 -10.1251L33.9762 -10.1251L33.9762 -8.97217L29.853 -8.97217L29.853 -6.49007Q30.1514 -6.5918 30.4498 -6.64266Q30.7482 -6.69352 31.0466 -6.69352Q32.742 -6.69352 33.7321 -5.76443Q34.7222 -4.83534 34.7222 -3.24843Q34.7222 -1.61404 33.705 -0.708686Q32.6877 0.196669 30.8363 0.196669Q30.1988 0.196669 29.5376 0.0881619C29.0968 0.0158239 28.6413 -0.092683 28.1711 -0.237359L28.1711 -1.61404Q28.7815 -1.28174 29.4325 -1.11898Q30.0836 -0.956217 30.8092 -0.956217Q31.9824 -0.956217 32.6674 -1.57335Q33.3523 -2.19048 33.3523 -3.24843Q33.3523 -4.30637 32.6674 -4.9235Q31.9824 -5.54064 30.8092 -5.54064Q30.2599 -5.54064 29.714 -5.41857Q29.168 -5.2965 28.5984 -5.03879L28.5984 -10.1251Z" fill="#262626" transform="translate(85.06505076090495,436.3682320113703) translate(-35.9361457824707,0)" />
<line x1="89.92616187201607" y1="383.93344850613846" x2="95.18727298312719" y2="383.93344850613846" stroke="#262626" stroke-width="1.1111111111111112" />
<path d="M0.678168 -4.36062L4.3335 -4.36062L4.3335 -3.24843L0.678168 -3.24843L0.678168 -4.36062ZM9.42654 -9.22309Q8.3686 -9.22309 7.83624 -8.1821Q7.30387 -7.14111 7.30387 -5.05235Q7.30387 -2.97038 7.83624 -1.92939Q8.3686 -0.888401 9.42654 -0.888401Q10.4913 -0.888401 11.0236 -1.92939Q11.556 -2.97038 11.556 -5.05235Q11.556 -7.14111 11.0236 -8.1821Q10.4913 -9.22309 9.42654 -9.22309ZM9.42654 -10.3082Q11.1287 -10.3082 12.0273 -8.962Q12.9259 -7.61583 12.9259 -5.05235Q12.9259 -2.49566 12.0273 -1.1495Q11.1287 0.196669 9.42654 0.196669Q7.72434 0.196669 6.82577 -1.1495Q5.92719 -2.49566 5.92719 -5.05235Q5.92719 -7.61583 6.82577 -8.962Q7.72434 -10.3082 9.42654 -10.3082ZM15.3334 -1.72255L16.7643 -1.72255L16.7643 0L15.3334 0L15.3334 -1.72255ZM19.7618 -10.1251L25.1397 -10.1251L25.1397 -8.97217L21.0164 -8.97217L21.0164 -6.49007Q21.3148 -6.5918 21.6132 -6.64266Q21.9116 -6.69352 22.21 -6.69352Q23.9054 -6.69352 24.8956 -5.76443Q25.8857 -4.83534 25.8857 -3.24843Q25.8857 -1.61404 24.8684 -0.708686Q23.8512 0.196669 21.9998 0.196669Q21.3623 0.196669 20.7011 0.0881619C20.2603 0.0158239 19.8048 -0.092683 19.3346 -0.237359L19.3346 -1.61404Q19.9449 -1.28174 20.596 -1.11898Q21.247 -0.956217 21.9727 -0.956217Q23.1459 -0.956217 23.8308 -1.57335Q24.5158 -2.19048 24.5158 -3.24843Q24.5158 -4.30637 23.8308 -4.9235Q23.1459 -5.54064 21.9727 -5.54064Q21.4233 -5.54064 20.8774 -5.41857Q20.3315 -5.2965 19.7618 -5.03879L19.7618 -10.1251ZM31.5145 -9.22309Q30.4565 -9.22309 29.9242 -8.1821Q29.3918 -7.14111 29.3918 -5.05235Q29.3918 -2.97038 29.9242 -1.92939Q30.4565 -0.888401 31.5145 -0.888401Q32.5792 -0.888401 33.1116 -1.92939Q33.6439 -2.97038 33.6439 -5.05235Q33.6439 -7.14111 33.1116 -8.1821Q32.5792 -9.22309 31.5145 -9.22309ZM31.5145 -10.3082Q33.2167 -10.3082 34.1153 -8.962Q35.0138 -7.61583 35.0138 -5.05235Q35.0138 -2.49566 34.1153 -1.1495Q33.2167 0.196669 31.5145 0.196669Q29.8123 0.196669 28.9137 -1.1495Q28.0151 -2.49566 28.0151 -5.05235Q28.0151 -7.61583 28.9137 -8.962Q29.8123 -10.3082 31.5145 -10.3082Z" fill="#262626" transform="translate(85.06505076090495,387.93344850613846) translate(-35.9361457824707,0)" />
<line x1="89.92616187201607" y1="335.4986650009066" x2="95.18727298312719" y2="335.4986650009066" stroke="#262626" stroke-width="1.1111111111111112" />
<path d="M0.678168 -4.36062L4.3335 -4.36062L4.3335 -3.24843L0.678168 -3.24843L0.678168 -4.36062ZM9.42654 -9.22309Q8.3686 -9.22309 7.83624 -8.1821Q7.30387 -7.14111 7.30387 -5.05235Q7.30387 -2.97038 7.83624 -1.92939Q8.3686 -0.888401 9.42654 -0.888401Q10.4913 -0.888401 11.0236 -1.92939Q11.556 -2.97038 11.556 -5.05235Q11.556 -7.14111 11.0236 -8.1821Q10.4913 -9.22309 9.42654 -9.22309ZM9.42654 -10.3082Q11.1287 -10.3082 12.0273 -8.962Q12.9259 -7.61583 12.9259 -5.05235Q12.9259 -2.49566 12.0273 -1.1495Q11.1287 0.196669 9.42654 0.196669Q7.72434 0.196669 6.82577 -1.1495Q5.92719 -2.49566 5.92719 -5.05235Q5.92719 -7.61583 6.82577 -8.962Q7.72434 -10.3082 9.42654 -10.3082ZM15.3334 -1.72255L16.7643 -1.72255L16.7643 0L15.3334 0L15.3334 -1.72255ZM20.9283 -1.15289L25.7094 -1.15289L25.7094 0L19.2803 0L19.2803 -1.15289Q20.0602 -1.95991 21.4064 -3.31963Q22.7526 -4.67936 23.0984 -5.0727Q23.7562 -5.8119 24.0173 -6.32392Q24.2784 -6.83594 24.2784 -7.331Q24.2784 -8.13802 23.7122 -8.64665Q23.1459 -9.15527 22.2371 -9.15527Q21.5929 -9.15527 20.8774 -8.93148Q20.1619 -8.70768 19.3481 -8.25331L19.3481 -9.63677Q20.1755 -9.96908 20.8944 -10.1386Q21.6132 -10.3082 22.21 -10.3082Q23.7834 -10.3082 24.7192 -9.52148Q25.6551 -8.73481 25.6551 -7.41916Q25.6551 -6.79525 25.4211 -6.23576Q25.1872 -5.67627 24.57 -4.91672Q24.4005 -4.72005 23.4918 -3.78079Q22.583 -2.84153 20.9283 -1.15289ZM28.5984 -10.1251L33.9762 -10.1251L33.9762 -8.97217L29.853 -8.97217L29.853 -6.49007Q30.1514 -6.5918 30.4498 -6.64266Q30.7482 -6.69352 31.0466 -6.69352Q32.742 -6.69352 33.7321 -5.76443Q34.7222 -4.83534 34.7222 -3.24843Q34.7222 -1.61404 33.705 -0.708686Q32.6877 0.196669 30.8363 0.196669Q30.1988 0.196669 29.5376 0.0881619C29.0968 0.0158239 28.6413 -0.092683 28.1711 -0.237359L28.1711 -1.61404Q28.7815 -1.28174 29.4325 -1.11898Q30.0836 -0.956217 30.8092 -0.956217Q31.9824 -0.956217 32.6674 -1.57335Q33.3523 -2.19048 33.3523 -3.24843Q33.3523 -4.30637 32.6674 -4.9235Q31.9824 -5.54064 30.8092 -5.54064Q30.2599 -5.54064 29.714 -5.41857Q29.168 -5.2965 28.5984 -5.03879L28.5984 -10.1251Z" fill="#262626" transform="translate(85.06505076090495,339.4986650009066) translate(-35.9361457824707,0)" />
<line x1="89.92616187201607" y1="287.06388149567476" x2="95.18727298312719" y2="287.06388149567476" stroke="#262626" stroke-width="1.1111111111111112" />
<path d="M4.41488 -9.22309Q3.35693 -9.22309 2.82457 -8.1821Q2.29221 -7.14111 2.29221 -5.05235Q2.29221 -2.97038 2.82457 -1.92939Q3.35693 -0.888401 4.41488 -0.888401Q5.4796 -0.888401 6.01196 -1.92939Q6.54433 -2.97038 6.54433 -5.05235Q6.54433 -7.14111 6.01196 -8.1821Q5.4796 -9.22309 4.41488 -9.22309ZM4.41488 -10.3082Q6.11708 -10.3082 7.01565 -8.962Q7.91422 -7.61583 7.91423 -5.05235Q7.91423 -2.49566 7.01565 -1.1495Q6.11708 0.196669 4.41488 0.196669Q2.71267 0.196669 1.8141 -1.1495Q0.915527 -2.49566 0.915527 -5.05235Q0.915527 -7.61583 1.8141 -8.962Q2.71267 -10.3082 4.41488 -10.3082ZM10.3217 -1.72255L11.7527 -1.72255L11.7527 0L10.3217 0L10.3217 -1.72255ZM17.6663 -9.22309Q16.6083 -9.22309 16.076 -8.1821Q15.5436 -7.14111 15.5436 -5.05235Q15.5436 -2.97038 16.076 -1.92939Q16.6083 -0.888401 17.6663 -0.888401Q18.731 -0.888401 19.2634 -1.92939Q19.7957 -2.97038 19.7957 -5.05235Q19.7957 -7.14111 19.2634 -8.1821Q18.731 -9.22309 17.6663 -9.22309ZM17.6663 -10.3082Q19.3685 -10.3082 20.2671 -8.962Q21.1656 -7.61583 21.1656 -5.05235Q21.1656 -2.49566 20.2671 -1.1495Q19.3685 0.196669 17.6663 0.196669Q15.9641 0.196669 15.0655 -1.1495Q14.1669 -2.49566 14.1669 -5.05235Q14.1669 -7.61583 15.0655 -8.962Q15.9641 -10.3082 17.6663 -10.3082ZM26.5028 -9.22309Q25.4449 -9.22309 24.9125 -8.1821Q24.3802 -7.14111 24.3802 -5.05235Q24.3802 -2.97038 24.9125 -1.92939Q25.4449 -0.888401 26.5028 -0.888401Q27.5675 -0.888401 28.0999 -1.92939Q28.6323 -2.97038 28.6323 -5.05235Q28.6323 -7.14111 28.0999 -8.1821Q27.5675 -9.22309 26.5028 -9.22309ZM26.5028 -10.3082Q28.205 -10.3082 29.1036 -8.962Q30.0022 -7.61583 30.0022 -5.05235Q30.0022 -2.49566 29.1036 -1.1495Q28.205 0.196669 26.5028 0.196669Q24.8006 0.196669 23.902 -1.1495Q23.0035 -2.49566 23.0035 -5.05235Q23.0035 -7.61583 23.902 -8.962Q24.8006 -10.3082 26.5028 -10.3082Z" fill="#262626" transform="translate(85.06505076090495,291.06388149567476) translate(-30.924480438232422,0)" />
<line x1="89.92616187201607" y1="238.62909799044292" x2="95.18727298312719" y2="238.62909799044292" stroke="#262626" stroke-width="1.1111111111111112" />
<path d="M4.41488 -9.22309Q3.35693 -9.22309 2.82457 -8.1821Q2.29221 -7.14111 2.29221 -5.05235Q2.29221 -2.97038 2.82457 -1.92939Q3.35693 -0.888401 4.41488 -0.888401Q5.4796 -0.888401 6.01196 -1.92939Q6.54433 -2.97038 6.54433 -5.05235Q6.54433 -7.14111 6.01196 -8.1821Q5.4796 -9.22309 4.41488 -9.22309ZM4.41488 -10.3082Q6.11708 -10.3082 7.01565 -8.962Q7.91422 -7.61583 7.91423 -5.05235Q7.91423 -2.49566 7.01565 -1.1495Q6.11708 0.196669 4.41488 0.196669Q2.71267 0.196669 1.8141 -1.1495Q0.915527 -2.49566 0.915527 -5.05235Q0.915527 -7.61583 1.8141 -8.962Q2.71267 -10.3082 4.41488 -10.3082ZM10.3217 -1.72255L11.7527 -1.72255L11.7527 0L10.3217 0L10.3217 -1.72255ZM15.9166 -1.15289L20.6977 -1.15289L20.6977 0L14.2687 0L14.2687 -1.15289Q15.0486 -1.95991 16.3947 -3.31963Q17.7409 -4.67936 18.0868 -5.0727Q18.7446 -5.8119 19.0057 -6.32392Q19.2668 -6.83594 19.2668 -7.331Q19.2668 -8.13802 18.7005 -8.64665Q18.1342 -9.15527 17.2255 -9.15527Q16.5812 -9.15527 15.8658 -8.93148Q15.1503 -8.70768 14.3365 -8.25331L14.3365 -9.63677Q15.1638 -9.96908 15.8827 -10.1386Q16.6016 -10.3082 17.1984 -10.3082Q18.7717 -10.3082 19.7076 -9.52148Q20.6434 -8.73481 20.6434 -7.41916Q20.6434 -6.79525 20.4095 -6.23576Q20.1755 -5.67627 19.5584 -4.91672Q19.3888 -4.72005 18.4801 -3.78079Q17.5713 -2.84153 15.9166 -1.15289ZM23.5867 -10.1251L28.9646 -10.1251L28.9646 -8.97217L24.8413 -8.97217L24.8413 -6.49007Q25.1397 -6.5918 25.4381 -6.64266Q25.7365 -6.69352 26.0349 -6.69352Q27.7303 -6.69352 28.7204 -5.76443Q29.7106 -4.83534 29.7106 -3.24843Q29.7106 -1.61404 28.6933 -0.708686Q27.6761 0.196669 25.8247 0.196669Q25.1872 0.196669 24.526 0.0881619C24.0852 0.0158239 23.6296 -0.092683 23.1595 -0.237359L23.1595 -1.61404Q23.7698 -1.28174 24.4208 -1.11898Q25.0719 -0.956217 25.7975 -0.956217Q26.9708 -0.956217 27.6557 -1.57335Q28.3407 -2.19048 28.3407 -3.24843Q28.3407 -4.30637 27.6557 -4.9235Q26.9708 -5.54064 25.7975 -5.54064Q25.2482 -5.54064 24.7023 -5.41857Q24.1564 -5.2965 23.5867 -5.03879L23.5867 -10.1251Z" fill="#262626" transform="translate(85.06505076090495,242.62909799044292) translate(-30.924480438232422,0)" />
<line x1="89.92616187201607" y1="190.19431448521107" x2="95.18727298312719" y2="190.19431448521107" stroke="#262626" stroke-width="1.1111111111111112" />
<path d="M4.41488 -9.22309Q3.35693 -9.22309 2.82457 -8.1821Q2.29221 -7.14111 2.29221 -5.05235Q2.29221 -2.97038 2.82457 -1.92939Q3.35693 -0.888401 4.41488 -0.888401Q5.4796 -0.888401 6.01196 -1.92939Q6.54433 -2.97038 6.54433 -5.05235Q6.54433 -7.14111 6.01196 -8.1821Q5.4796 -9.22309 4.41488 -9.22309ZM4.41488 -10.3082Q6.11708 -10.3082 7.01565 -8.962Q7.91422 -7.61583 7.91423 -5.05235Q7.91423 -2.49566 7.01565 -1.1495Q6.11708 0.196669 4.41488 0.196669Q2.71267 0.196669 1.8141 -1.1495Q0.915527 -2.49566 0.915527 -5.05235Q0.915527 -7.61583 1.8141 -8.962Q2.71267 -10.3082 4.41488 -10.3082ZM10.3217 -1.72255L11.7527 -1.72255L11.7527 0L10.3217 0L10.3217 -1.72255ZM14.7502 -10.1251L20.128 -10.1251L20.128 -8.97217L16.0048 -8.97217L16.0048 -6.49007Q16.3032 -6.5918 16.6016 -6.64266Q16.9 -6.69352 17.1984 -6.69352Q18.8938 -6.69352 19.8839 -5.76443Q20.874 -4.83534 20.874 -3.24843Q20.874 -1.61404 19.8568 -0.708686Q18.8395 0.196669 16.9881 0.196669Q16.3506 0.196669 15.6894 0.0881619C15.2486 0.0158239 14.7931 -0.092683 14.3229 -0.237359L14.3229 -1.61404Q14.9333 -1.28174 15.5843 -1.11898Q16.2354 -0.956217 16.961 -0.956217Q18.1342 -0.956217 18.8192 -1.57335Q19.5041 -2.19048 19.5041 -3.24843Q19.5041 -4.30637 18.8192 -4.9235Q18.1342 -5.54064 16.961 -5.54064Q16.4117 -5.54064 15.8658 -5.41857Q15.3198 -5.2965 14.7502 -5.03879L14.7502 -10.1251ZM26.5028 -9.22309Q25.4449 -9.22309 24.9125 -8.1821Q24.3802 -7.14111 24.3802 -5.05235Q24.3802 -2.97038 24.9125 -1.92939Q25.4449 -0.888401 26.5028 -0.888401Q27.5675 -0.888401 28.0999 -1.92939Q28.6323 -2.97038 28.6323 -5.05235Q28.6323 -7.14111 28.0999 -8.1821Q27.5675 -9.22309 26.5028 -9.22309ZM26.5028 -10.3082Q28.205 -10.3082 29.1036 -8.962Q30.0022 -7.61583 30.0022 -5.05235Q30.0022 -2.49566 29.1036 -1.1495Q28.205 0.196669 26.5028 0.196669Q24.8006 0.196669 23.902 -1.1495Q23.0035 -2.49566 23.0035 -5.05235Q23.0035 -7.61583 23.902 -8.962Q24.8006 -10.3082 26.5028 -10.3082Z" fill="#262626" transform="translate(85.06505076090495,194.19431448521107) translate(-30.924480438232422,0)" />
<line x1="89.92616187201607" y1="141.75953097997925" x2="95.18727298312719" y2="141.75953097997925" stroke="#262626" stroke-width="1.1111111111111112" />
<path d="M4.41488 -9.22309Q3.35693 -9.22309 2.82457 -8.1821Q2.29221 -7.14111 2.29221 -5.05235Q2.29221 -2.97038 2.82457 -1.92939Q3.35693 -0.888401 4.41488 -0.888401Q5.4796 -0.888401 6.01196 -1.92939Q6.54433 -2.97038 6.54433 -5.05235Q6.54433 -7.14111 6.01196 -8.1821Q5.4796 -9.22309 4.41488 -9.22309ZM4.41488 -10.3082Q6.11708 -10.3082 7.01565 -8.962Q7.91422 -7.61583 7.91423 -5.05235Q7.91423 -2.49566 7.01565 -1.1495Q6.11708 0.196669 4.41488 0.196669Q2.71267 0.196669 1.8141 -1.1495Q0.915527 -2.49566 0.915527 -5.05235Q0.915527 -7.61583 1.8141 -8.962Q2.71267 -10.3082 4.41488 -10.3082ZM10.3217 -1.72255L11.7527 -1.72255L11.7527 0L10.3217 0L10.3217 -1.72255ZM14.3907 -10.1251L20.9012 -10.1251L20.9012 -9.54183L17.2255 0L15.7945 0L19.2532 -8.97217L14.3907 -8.97217L14.3907 -10.1251ZM23.5867 -10.1251L28.9646 -10.1251L28.9646 -8.97217L24.8413 -8.97217L24.8413 -6.49007Q25.1397 -6.5918 25.4381 -6.64266Q25.7365 -6.69352 26.0349 -6.69352Q27.7303 -6.69352 28.7204 -5.76443Q29.7106 -4.83534 29.7106 -3.24843Q29.7106 -1.61404 28.6933 -0.708686Q27.6761 0.196669 25.8247 0.196669Q25.1872 0.196669 24.526 0.0881619C24.0852 0.0158239 23.6296 -0.092683 23.1595 -0.237359L23.1595 -1.61404Q23.7698 -1.28174 24.4208 -1.11898Q25.0719 -0.956217 25.7975 -0.956217Q26.9708 -0.956217 27.6557 -1.57335Q28.3407 -2.19048 28.3407 -3.24843Q28.3407 -4.30637 27.6557 -4.9235Q26.9708 -5.54064 25.7975 -5.54064Q25.2482 -5.54064 24.7023 -5.41857Q24.1564 -5.2965 23.5867 -5.03879L23.5867 -10.1251Z" fill="#262626" transform="translate(85.06505076090495,145.75953097997925) translate(-30.924480438232422,0)" />
<line x1="89.92616187201607" y1="93.3247474747474" x2="95.18727298312719" y2="93.3247474747474" stroke="#262626" stroke-width="1.1111111111111112" />
<path d="M1.72255 -1.15289L3.9605 -1.15289L3.9605 -8.87722L1.52588 -8.38894L1.52588 -9.63677L3.94694 -10.1251L5.31684 -10.1251L5.31684 -1.15289L7.5548 -1.15289L7.5548 0L1.72255 0L1.72255 -1.15289ZM10.3217 -1.72255L11.7527 -1.72255L11.7527 0L10.3217 0L10.3217 -1.72255ZM17.6663 -9.22309Q16.6083 -9.22309 16.076 -8.1821Q15.5436 -7.14111 15.5436 -5.05235Q15.5436 -2.97038 16.076 -1.92939Q16.6083 -0.888401 17.6663 -0.888401Q18.731 -0.888401 19.2634 -1.92939Q19.7957 -2.97038 19.7957 -5.05235Q19.7957 -7.14111 19.2634 -8.1821Q18.731 -9.22309 17.6663 -9.22309ZM17.6663 -10.3082Q19.3685 -10.3082 20.2671 -8.962Q21.1656 -7.61583 21.1656 -5.05235Q21.1656 -2.49566 20.2671 -1.1495Q19.3685 0.196669 17.6663 0.196669Q15.9641 0.196669 15.0655 -1.1495Q14.1669 -2.49566 14.1669 -5.05235Q14.1669 -7.61583 15.0655 -8.962Q15.9641 -10.3082 17.6663 -10.3082ZM26.5028 -9.22309Q25.4449 -9.22309 24.9125 -8.1821Q24.3802 -7.14111 24.3802 -5.05235Q24.3802 -2.97038 24.9125 -1.92939Q25.4449 -0.888401 26.5028 -0.888401Q27.5675 -0.888401 28.0999 -1.92939Q28.6323 -2.97038 28.6323 -5.05235Q28.6323 -7.14111 28.0999 -8.1821Q27.5675 -9.22309 26.5028 -9.22309ZM26.5028 -10.3082Q28.205 -10.3082 29.1036 -8.962Q30.0022 -7.61583 30.0022 -5.05235Q30.0022 -2.49566 29.1036 -1.1495Q28.205 0.196669 26.5028 0.196669Q24.8006 0.196669 23.902 -1.1495Q23.0035 -2.49566 23.0035 -5.05235Q23.0035 -7.61583 23.902 -8.962Q24.8006 -10.3082 26.5028 -10.3082Z" fill="#262626" transform="translate(85.06505076090495,97.3247474747474) translate(-30.924480438232422,0)" />
<g class="series" aria-label="$\mathrm{sin}$">
<polyline points="112.7514878475305,287.06388149567476 116.38062216357157,267.9146943386222 120.00975647961265,249.3360109326515 123.63889079565372,231.50215893758264 127.2680251116948,214.576572292631 130.89715942773586,198.7103740161236 134.52629374377693,184.0411100692294 138.155428059818,170.69164394272767 141.78456237585908,158.76921982875243 145.41369669190016,148.364700399398 149.04283100794123,139.55198335028774 152.6719653239823,132.38759899878508 156.30109964002338,126.91048937222472 159.93023395606446,123.14196739960634 163.55936827210553,121.0858530481902 167.1885025881466,120.7287815410747 170.81763690418768,122.04067716884333 174.44677122022875,124.97538468232563 178.07590553626983,129.47144883774905 181.7050398523109,135.45303137203328 185.33417416835198,142.8309535251917 188.96330848439305,151.5038512077325 192.59244280043413,161.35942904096518 196.2215771164752,172.27579878295913 199.85071143251628,184.1228870966496 203.47984574855732,196.76389722165231 207.1089800645984,210.05680887848405 210.73811438063947,223.85590066220806 214.36724869668055,238.01327926956012 217.99638301272165,252.38040014534118 221.6255173287627,266.80956452481956 225.25465164480377,281.15537838219814 228.88378596084485,295.2761594627275 232.51292027688592,309.0352793684614 236.142054592927,322.30242857455306 239.77118890896807,334.95479326306946 243.40032322500915,346.87813396240415 247.02945754105022,357.96775715970534 250.6585918570913,368.12937229796677 254.28772617313237,377.2798278648392 257.9168604891734,385.34772161285474 261.54599480521455,392.2738813065622 265.17512912125557,398.01171375704445 268.80426343729664,402.5274212646095 272.4333977533377,405.8000859326141 276.0625320693788,407.8216236263459 279.69166638541986,408.59661061817485 283.32080070146094,408.14198717198457 286.94993501750207,406.4866434652167 290.5790693335431,403.6708943155553 294.20820364958416,399.7458501622102 297.83733796562524,394.77269264078103 301.4664722816663,388.82186387879415 305.0956065977074,381.97217932031367 308.72474091374846,374.3098744578489 312.35387522978954,365.92759630462746 315.9830095458306,356.9233507779079 319.6121438618717,347.39941738331436 323.24127817791276,337.46124269134344 326.87041249395384,327.2163240815477 330.4995468099949,316.7730950999053 334.128681126036,306.2398235341134 337.75781544207706,295.7235329645875 341.38694975811813,285.3289581013741 345.0160840741592,275.1575436754708 348.6452183902003,265.3064960244496 352.27435270624136,255.86789580482017 355.90348702228243,246.92787948585905 359.5326213383235,238.5658964408455 363.1617556543646,230.85404756136919 366.7908899704056,223.85651038851572 370.42002428644673,217.62905479144567 374.0491586024878,212.21865223938647 377.6782929185289,207.66318071762723 381.30742723456996,203.99122634189933 384.936561550611,201.2219817385069 388.5656958666521,199.36524028942785 392.1948301826931,198.4214844016303 395.82396449873426,198.38206505687884 399.45309881477533,199.2294690406277 403.08223313081635,200.93766944388602 406.7113674468574,203.47255428718603 410.34050176289855,206.7924274372409 413.96963607893963,210.84857538001395 417.59877039498065,215.5858928833804 421.2279047110217,220.94356013213283 424.8570390270628,226.8557635506805 428.4861733431039,233.2524522464439 432.115307659145,240.06012181078674 435.744441975186,247.20261710461537 439.3735762912271,254.60194563188517 443.00271060726817,262.17909316473725 446.6318449233093,269.8548334265604 450.2609792393503,277.55052386088647 453.8901135553914,285.1888798109101 457.51924787143247,292.69471980210153 461.1483821874736,299.9956750538018 464.7775165035147,307.022856839201 468.4066508195557,313.71147586059396 472.03578513559677,320.00140840173543" fill="none" stroke="#1F77B4" stroke-width="1.5" />
</g>
<g class="series" aria-label="$\mathrm{cos}$">
<polyline points="112.7514878475305,93.3247474747474 116.38062216357157,96.21074210688965 120.00975647961265,100.94645288218538 123.63889079565372,107.44793726602174 127.2680251116948,115.61527260032831 130.89715942773586,125.33387088412711 134.52629374377693,136.4759140448859 138.155428059818,148.90189297463274 141.78456237585908,162.46223289924708 145.41369669190016,176.99898713193494 149.04283100794123,192.34758093406467 152.6719653239823,208.33858706781058 156.30109964002338,224.79951467306262 159.93023395606446,241.55659333163595 163.55936827210553,258.4365345890353 167.1885025881466,275.26825378032817 170.81763690418768,291.8845357429552 174.44677122022875,308.1236288850259 178.07590553626983,323.8307531010115 181.7050398523109,338.85950817479875 185.33417416835198,353.07317056886933 188.96330848439305,366.3458678531564 192.59244280043413,378.56362146245334 196.2215771164752,389.6252499711883 199.85071143251628,399.44312662265537 203.47984574855732,407.94378642998925 207.1089800645984,415.06837976185966 210.73811438063947,420.77297092080266 214.36724869668055,425.02868180036523 217.99638301272165,427.82168225339524 221.6255173287627,429.1530303030303 225.25465164480377,429.0383667661936 228.88378596084485,427.5074702235165 232.51292027688592,424.6036795474241 236.142054592927,420.38319238057727 239.77118890896807,414.9142490301011 243.40032322500915,408.2762122004403 247.02945754105022,400.5585538220019 250.6585918570913,391.85976093806454 254.28772617313237,382.28617318427376 257.9168604891734,371.95076483032176 261.54599480521455,360.9718846504866 265.17512912125557,349.47196704835346 268.80426343729664,337.57622788240576 272.4333977533377,325.4113583257701 276.0625320693788,313.1042298490252 279.69166638541986,300.7806230446699 283.32080070146094,288.5639925217971 286.94993501750207,276.57427949698746 290.5790693335431,264.9267830006853 294.20820364958416,253.73109981645743 297.83733796562524,243.09014238347257 301.4664722816663,233.09924293081406 305.0956065977074,223.84535108694388 308.72474091374846,215.406331130278 312.35387522978954,207.85036392919397 315.9830095458306,201.2354574738536 319.6121438618717,195.6090687399807 323.24127817791276,191.00783845812822 326.87041249395384,187.45743920274626 330.4995468099949,184.97253607494812 334.128681126036,183.5568581422996 337.75781544207706,183.20337772872145 341.38694975811813,183.89459362759865 345.0160840741592,185.6029133506241 348.6452183902003,188.29112863219183 352.27435270624136,191.91297759186955 355.90348702228243,196.41378622229618 359.5326213383235,201.73118122248587 363.1617556543646,207.79586564170376 366.7908899704056,214.53244834052498 370.42002428644673,221.860317916066 374.0491586024878,229.6945514793281 377.6782929185289,237.94684851470794 381.30742723456996,246.5264799945835 384.936561550611,255.34124296405977 388.5656958666521,264.29841095005446 392.1948301826931,273.30567078162767 395.82396449873426,282.2720367306187 399.45309881477533,291.10873328826386 403.08223313081635,299.7300383787976 406.7113674468574,308.0540793686728 410.34050176289855,316.0035748529788 413.96963607893963,323.50651588136003 417.59877039498065,330.4967810163138 421.2279047110217,336.9146803888651 424.8570390270628,342.70742472176767 428.4861733431039,347.8295161198407 432.115307659145,352.243058272071 435.744441975186,355.91798456192424 439.3735762912271,358.8322034322842 443.00271060726817,360.97166119110875 446.6318449233093,362.3303232650796 450.2609792393503,362.910075703382 453.8901135553914,362.7205494948703 457.51924787143247,361.7788709823072 461.1483821874736,360.1093423307291 464.7775165035147,357.7430566274816 468.4066508195557,354.71745275393744 472.03578513559677,351.0758156688897" fill="none" stroke="#FFA500" stroke-width="1.5" />
</g>
<g class="spine">
<line x1="94.78727298312718" y1="445.94444444444446" x2="490" y2="445.94444444444446" stroke="#262626" stroke-width="0.8" />
</g>
<g class="spine">
<line x1="94.78727298312718" y1="76.53333333333333" x2="490" y2="76.53333333333333" stroke="#262626" stroke-width="0.8" />
</g>
<g class="spine">
<line x1="94.78727298312718" y1="76.53333333333333" x2="94.78727298312718" y2="445.94444444444446" stroke="#262626" stroke-width="0.8" />
</g>
<g class="spine">
<line x1="490" y1="76.53333333333333" x2="490" y2="445.94444444444446" stroke="#262626" stroke-width="0.8" />
</g>
<rect x="401.74142689175073" y="86.53333333333333" width="78.25857310824924" height="42.388888888888886" fill="#FFFFFF" fill-opacity="0.8" stroke="#CCCCCC" stroke-width="0.5" />
<g class="legend" aria-label="Chart legend">
<line x1="409.74142689175073" y1="99.39444444444445" x2="437.5192046695285" y2="99.39444444444445" stroke="#1F77B4" stroke-width="1.5" />
<path d="M6.15099 -7.37169L6.15099 -6.19168Q5.62202 -6.46294 5.05235 -6.59858Q4.48269 -6.73421 3.87234 -6.73421Q2.94325 -6.73421 2.47871 -6.44938Q2.01416 -6.16455 2.01416 -5.59489Q2.01416 -5.16086 2.34646 -4.91333Q2.67877 -4.6658 3.68245 -4.442L4.1097 -4.34706Q5.43891 -4.06223 5.9984 -3.54343Q6.55789 -3.02463 6.55789 -2.09554Q6.55789 -1.0376 5.72035 -0.420464Q4.88281 0.196669 3.41797 0.196669Q2.80762 0.196669 2.1464 0.0779894Q1.48519 -0.0406901 0.752767 -0.278049L0.752767 -1.56657Q1.4445 -1.20714 2.11589 -1.02743Q2.78727 -0.84771 3.4451 -0.847711Q4.32671 -0.847711 4.80143 -1.1495Q5.27615 -1.45128 5.27615 -2.0006Q5.27615 -2.50922 4.93368 -2.78049Q4.5912 -3.05176 3.43153 -3.30268L2.9975 -3.40441Q1.83784 -3.64855 1.32243 -4.15378Q0.80702 -4.65902 0.80702 -5.54064Q0.80702 -6.61214 1.56657 -7.19537Q2.32612 -7.77859 3.72314 -7.77859Q4.41488 -7.77859 5.02523 -7.67687Q5.63558 -7.57514 6.15099 -7.37169ZM8.54492 -7.59549L9.79275 -7.59549L9.79275 0L8.54492 0L8.54492 -7.59549ZM8.54492 -10.5523L9.79275 -10.5523L9.79275 -8.97217L8.54492 -8.97217L8.54492 -10.5523ZM18.7174 -4.58442L18.7174 0L17.4696 0L17.4696 -4.54373Q17.4696 -5.62202 17.0492 -6.15777Q16.6287 -6.69352 15.7878 -6.69352Q14.7773 -6.69352 14.1941 -6.04926Q13.6108 -5.405 13.6108 -4.29281L13.6108 0L12.3562 0L12.3562 -7.59549L13.6108 -7.59549L13.6108 -6.41547Q14.0584 -7.10042 14.6654 -7.43951Q15.2724 -7.77859 16.0658 -7.77859Q17.3747 -7.77859 18.0461 -6.96818Q18.7174 -6.15777 18.7174 -4.58442Z" fill="#262626" transform="translate(448.6303157806396,103.25555555555556)" />
<line x1="409.74142689175073" y1="116.0611111111111" x2="437.5192046695285" y2="116.0611111111111" stroke="#FFA500" stroke-width="1.5" />
<path d="M6.7749 -7.30387L6.7749 -6.13742Q6.24593 -6.42904 5.71357 -6.57484Q5.18121 -6.72065 4.63867 -6.72065Q3.42475 -6.72065 2.75336 -5.95093Q2.08198 -5.18121 2.08198 -3.79096Q2.08198 -2.40072 2.75336 -1.631Q3.42475 -0.861274 4.63867 -0.861274Q5.18121 -0.861274 5.71357 -1.00708Q6.24593 -1.15289 6.7749 -1.4445L6.7749 -0.291612Q6.25271 -0.0474718 5.69322 0.0745985Q5.13374 0.196669 4.50304 0.196669Q2.78727 0.196669 1.7768 -0.881619Q0.76633 -1.95991 0.76633 -3.79096Q0.76633 -5.64914 1.78697 -6.71387Q2.80762 -7.77859 4.58442 -7.77859Q5.16086 -7.77859 5.71018 -7.65991Q6.25949 -7.54123 6.7749 -7.30387ZM11.8883 -6.72065Q10.8846 -6.72065 10.3014 -5.93736Q9.71815 -5.15408 9.71815 -3.79096Q9.71815 -2.42784 10.298 -1.64456Q10.8778 -0.861274 11.8883 -0.861274Q12.8852 -0.861274 13.4684 -1.64795Q14.0517 -2.43462 14.0517 -3.79096Q14.0517 -5.14052 13.4684 -5.93058Q12.8852 -6.72065 11.8883 -6.72065ZM11.8883 -7.77859Q13.5159 -7.77859 14.445 -6.72065Q15.3741 -5.66271 15.3741 -3.79096Q15.3741 -1.926 14.445 -0.864665Q13.5159 0.196669 11.8883 0.196669Q10.2539 0.196669 9.32821 -0.864665Q8.40251 -1.926 8.40251 -3.79096Q8.40251 -5.66271 9.32821 -6.72065Q10.2539 -7.77859 11.8883 -7.77859ZM22.2846 -7.37169L22.2846 -6.19168Q21.7556 -6.46294 21.186 -6.59858Q20.6163 -6.73421 20.006 -6.73421Q19.0769 -6.73421 18.6123 -6.44938Q18.1478 -6.16455 18.1478 -5.59489Q18.1478 -5.16086 18.4801 -4.91333Q18.8124 -4.6658 19.8161 -4.442L20.2433 -4.34706Q21.5725 -4.06223 22.132 -3.54343Q22.6915 -3.02463 22.6915 -2.09554Q22.6915 -1.0376 21.854 -0.420464Q21.0164 0.196669 19.5516 0.196669Q18.9412 0.196669 18.28 0.0779894Q17.6188 -0.0406901 16.8864 -0.278049L16.8864 -1.56657Q17.5781 -1.20714 18.2495 -1.02743Q18.9209 -0.84771 19.5787 -0.847711Q20.4603 -0.847711 20.9351 -1.1495Q21.4098 -1.45128 21.4098 -2.0006Q21.4098 -2.50922 21.0673 -2.78049Q20.7248 -3.05176 19.5652 -3.30268L19.1311 -3.40441Q17.9715 -3.64855 17.4561 -4.15378Q16.9406 -4.65902 16.9406 -5.54064Q16.9406 -6.61214 17.7002 -7.19537Q18.4597 -7.77859 19.8568 -7.77859Q20.5485 -7.77859 21.1589 -7.67687Q21.7692 -7.57514 22.2846 -7.37169Z" fill="#262626" transform="translate(448.6303157806396,119.92222222222222)" />
</g>
<text x="292.3936364915636" y="68.53333333333333" font-family="DejaVu Sans, sans-serif" font-size="15.88888888888889" text-anchor="middle" font-weight="bold" fill="#262626">y = <tspan baseline-shift="sub" font-size="70%">\mathrm{sin}(x)</tspan><tspan baseline-shift="sub" font-size="70%">e^{x/10}</tspan></text>
<path d="M4.74718 -8.7755L1.96669 -1.13932L7.53445 -1.13932L4.74718 -8.7755ZM0.108507 0L3.97407 -10.1251L5.52707 -10.1251L9.38585 0L0.108507 0ZM16.4591 -9.75206L16.4591 -7.59549L19.0294 -7.59549L19.0294 -6.62571L16.4591 -6.62571L16.4591 -2.50244Q16.4591 -1.57335 16.7135 -1.30887Q16.9678 -1.04438 17.7477 -1.04438L19.0294 -1.04438L19.0294 0L17.7477 0Q16.3032 0 15.7539 -0.539144Q15.2045 -1.07829 15.2045 -2.50244L15.2045 -6.62571L14.289 -6.62571L14.289 -7.59549L15.2045 -7.59549L15.2045 -9.75206L16.4591 -9.75206ZM28.083 -10.5387Q27.1742 -8.97895 26.7334 -7.45307Q26.2926 -5.92719 26.2926 -4.36062Q26.2926 -2.79405 26.7368 -1.258Q27.181 0.278049 28.083 1.83105L26.9979 1.83105Q25.9806 0.237359 25.4754 -1.30208Q24.9702 -2.84153 24.9702 -4.36062Q24.9702 -5.87294 25.472 -7.4056Q25.9739 -8.93826 26.9979 -10.5387L28.083 -10.5387ZM35.3461 -7.37169L35.3461 -6.19168Q34.8172 -6.46294 34.2475 -6.59858Q33.6778 -6.73421 33.0675 -6.73421Q32.1384 -6.73421 31.6739 -6.44938Q31.2093 -6.16455 31.2093 -5.59489Q31.2093 -5.16086 31.5416 -4.91333Q31.8739 -4.6658 32.8776 -4.442L33.3049 -4.34706Q34.6341 -4.06223 35.1936 -3.54343Q35.753 -3.02463 35.753 -2.09554Q35.753 -1.0376 34.9155 -0.420464Q34.078 0.196669 32.6131 0.196669Q32.0028 0.196669 31.3416 0.0779894Q30.6803 -0.0406901 29.9479 -0.278049L29.9479 -1.56657Q30.6396 -1.20714 31.311 -1.02743Q31.9824 -0.84771 32.6402 -0.847711Q33.5219 -0.847711 33.9966 -1.1495Q34.4713 -1.45128 34.4713 -2.0006Q34.4713 -2.50922 34.1288 -2.78049Q33.7864 -3.05176 32.6267 -3.30268L32.1927 -3.40441Q31.033 -3.64855 30.5176 -4.15378Q30.0022 -4.65902 30.0022 -5.54064Q30.0022 -6.61214 30.7617 -7.19537Q31.5213 -7.77859 32.9183 -7.77859Q33.61 -7.77859 34.2204 -7.67687Q34.8307 -7.57514 35.3461 -7.37169ZM37.5434 -10.5387L38.6285 -10.5387Q39.6457 -8.93826 40.151 -7.4056Q40.6562 -5.87294 40.6562 -4.36062Q40.6562 -2.84153 40.151 -1.30208Q39.6457 0.237359 38.6285 1.83105L37.5434 1.83105Q38.4454 0.278049 38.8896 -1.258Q39.3338 -2.79405 39.3338 -4.36062Q39.3338 -5.92719 38.8896 -7.45307Q38.4454 -8.97895 37.5434 -10.5387Z" fill="#262626" transform="translate(292.3936364915636,489.44444444444446) translate(-20.924884796142578,0)" />
<text x="37.12890497843426" y="261.23888888888894" font-family="DejaVu Sans, sans-serif" font-size="13.88888888888889" text-anchor="middle" transform="rotate(-90,37.12890497843426,261.23888888888894)" fill="#262626"><tspan baseline-shift="sub" font-size="100%">ŷ</tspan> (normalised)</text>
<rect x="584.7872729831272" y="76.53333333333333" width="395.2127270168728" height="369.41111111111115" fill="#FFFFFF" />
<line x1="602.7514878475305" y1="445.5444444444445" x2="602.7514878475305" y2="450.80555555555554" stroke="#262626" stroke-width="1.1111111111111112" />
<path d="M4.41488 -9.22309Q3.35693 -9.22309 2.82457 -8.1821Q2.29221 -7.14111 2.29221 -5.05235Q2.29221 -2.97038 2.82457 -1.92939Q3.35693 -0.888401 4.41488 -0.888401Q5.4796 -0.888401 6.01196 -1.92939Q6.54433 -2.97038 6.54433 -5.05235Q6.54433 -7.14111 6.01196 -8.1821Q5.4796 -9.22309 4.41488 -9.22309ZM4.41488 -10.3082Q6.11708 -10.3082 7.01565 -8.962Q7.91422 -7.61583 7.91423 -5.05235Q7.91423 -2.49566 7.01565 -1.1495Q6.11708 0.196669 4.41488 0.196669Q2.71267 0.196669 1.8141 -1.1495Q0.915527 -2.49566 0.915527 -5.05235Q0.915527 -7.61583 1.8141 -8.962Q2.71267 -10.3082 4.41488 -10.3082Z" fill="#262626" transform="translate(602.7514878475305,469.55555555555554) translate(-4.418267250061035,0)" />
<line x1="639.0428310079412" y1="445.5444444444445" x2="639.0428310079412" y2="450.80555555555554" stroke="#262626" stroke-width="1.1111111111111112" />
<path d="M1.72255 -1.15289L3.9605 -1.15289L3.9605 -8.87722L1.52588 -8.38894L1.52588 -9.63677L3.94694 -10.1251L5.31684 -10.1251L5.31684 -1.15289L7.5548 -1.15289L7.5548 0L1.72255 0L1.72255 -1.15289Z" fill="#262626" transform="translate(639.0428310079412,469.55555555555554) translate(-4.418267250061035,0)" />
<line x1="675.334174168352" y1="445.5444444444445" x2="675.334174168352" y2="450.80555555555554" stroke="#262626" stroke-width="1.1111111111111112" />
<path d="M2.6652 -1.15289L7.44629 -1.15289L7.44629 0L1.01725 0L1.01725 -1.15289Q1.79715 -1.95991 3.14331 -3.31963Q4.48947 -4.67936 4.83534 -5.0727Q5.49316 -5.8119 5.75426 -6.32392Q6.01535 -6.83594 6.01535 -7.331Q6.01535 -8.13802 5.44908 -8.64665Q4.88281 -9.15527 3.97407 -9.15527Q3.32981 -9.15527 2.61434 -8.93148Q1.89887 -8.70768 1.08507 -8.25331L1.08507 -9.63677Q1.91243 -9.96908 2.63129 -10.1386Q3.35015 -10.3082 3.94694 -10.3082Q5.52029 -10.3082 6.45616 -9.52148Q7.39204 -8.73481 7.39204 -7.41916Q7.39204 -6.79525 7.15807 -6.23576Q6.9241 -5.67627 6.30697 -4.91672Q6.13742 -4.72005 5.22868 -3.78079Q4.31993 -2.84153 2.6652 -1.15289Z" fill="#262626" transform="translate(675.334174168352,469.55555555555554) translate(-4.418267250061035,0)" />
<line x1="711.6255173287627" y1="445.5444444444445" x2="711.6255173287627" y2="450.80555555555554" stroke="#262626" stroke-width="1.1111111111111112" />
<path d="M5.63558 -5.45926Q6.61892 -5.24902 7.17163 -4.58442Q7.72434 -3.91981 7.72434 -2.94325Q7.72434 -1.4445 6.69352 -0.623915Q5.66271 0.196669 3.76383 0.196669Q3.12636 0.196669 2.45158 0.0712077Q1.7768 -0.0542535 1.05794 -0.305176L1.05794 -1.6276Q1.6276 -1.2953 2.30577 -1.12576Q2.98394 -0.956217 3.72314 -0.956217Q5.01166 -0.956217 5.68644 -1.46484Q6.36122 -1.97347 6.36122 -2.94325Q6.36122 -3.83843 5.73391 -4.34367Q5.10661 -4.8489 3.98763 -4.8489L2.80762 -4.8489L2.80762 -5.97466L4.04188 -5.97466Q5.05235 -5.97466 5.58811 -6.37817Q6.12386 -6.78168 6.12386 -7.54123Q6.12386 -8.32113 5.57115 -8.7382Q5.01845 -9.15527 3.98763 -9.15527Q3.42475 -9.15527 2.78049 -9.0332Q2.13623 -8.91113 1.36312 -8.65343L1.36312 -9.87413Q2.14301 -10.0911 2.82457 -10.1997Q3.50613 -10.3082 4.1097 -10.3082Q5.66949 -10.3082 6.57823 -9.59947Q7.48698 -8.89079 7.48698 -7.68365Q7.48698 -6.84272 7.00548 -6.26289Q6.52398 -5.68305 5.63558 -5.45926Z" fill="#262626" transform="translate(711.6255173287627,469.55555555555554) translate(-4.418267250061035,0)" />
<line x1="747.9168604891734" y1="445.5444444444445" x2="747.9168604891734" y2="450.80555555555554" stroke="#262626" stroke-width="1.1111111111111112" />
<path d="M5.24902 -8.93148L1.79036 -3.52648L5.24902 -3.52648L5.24902 -8.93148ZM4.88959 -10.1251L6.61214 -10.1251L6.61214 -3.52648L8.05664 -3.52648L8.05664 -2.38715L6.61214 -2.38715L6.61214 0L5.24902 0L5.24902 -2.38715L0.678168 -2.38715L0.678168 -3.70958L4.88959 -10.1251Z" fill="#262626" transform="translate(747.9168604891734,469.55555555555554) translate(-4.418267250061035,0)" />
<line x1="784.2082036495842" y1="445.5444444444445" x2="784.2082036495842" y2="450.80555555555554" stroke="#262626" stroke-width="1.1111111111111112" />
<path d="M1.49875 -10.1251L6.87663 -10.1251L6.87663 -8.97217L2.75336 -8.97217L2.75336 -6.49007Q3.05176 -6.5918 3.35015 -6.64266Q3.64855 -6.69352 3.94694 -6.69352Q5.64236 -6.69352 6.63249 -5.76443Q7.62261 -4.83534 7.62261 -3.24843Q7.62261 -1.61404 6.60536 -0.708686Q5.58811 0.196669 3.73671 0.196669Q3.09923 0.196669 2.43802 0.0881619C1.99721 0.0158239 1.5417 -0.092683 1.07151 -0.237359L1.07151 -1.61404Q1.68186 -1.28174 2.3329 -1.11898Q2.98394 -0.956217 3.70958 -0.956217Q4.88281 -0.956217 5.56776 -1.57335Q6.25271 -2.19048 6.25271 -3.24843Q6.25271 -4.30637 5.56776 -4.9235Q4.88281 -5.54064 3.70958 -5.54064Q3.16026 -5.54064 2.61434 -5.41857Q2.06841 -5.2965 1.49875 -5.03879L1.49875 -10.1251Z" fill="#262626" transform="translate(784.2082036495842,469.55555555555554) translate(-4.418267250061035,0)" />
<line x1="820.4995468099949" y1="445.5444444444445" x2="820.4995468099949" y2="450.80555555555554" stroke="#262626" stroke-width="1.1111111111111112" />
<path d="M4.58442 -5.60845Q3.66211 -5.60845 3.12297 -4.97776Q2.58382 -4.34706 2.58382 -3.24843Q2.58382 -2.15658 3.12297 -1.52249Q3.66211 -0.888401 4.58442 -0.888401Q5.50673 -0.888401 6.04587 -1.52249Q6.58502 -2.15658 6.58502 -3.24843Q6.58502 -4.34706 6.04587 -4.97776Q5.50673 -5.60845 4.58442 -5.60845ZM7.30387 -9.90126L7.30387 -8.65343Q6.78847 -8.89757 6.26289 -9.02642Q5.7373 -9.15527 5.2219 -9.15527Q3.86556 -9.15527 3.15009 -8.23975Q2.43462 -7.32422 2.3329 -5.47282Q2.73302 -6.06282 3.33659 -6.37817Q3.94016 -6.69352 4.6658 -6.69352Q6.19168 -6.69352 7.07669 -5.76782Q7.9617 -4.84212 7.9617 -3.24843Q7.9617 -1.68864 7.03939 -0.745985Q6.11708 0.196669 4.58442 0.196669Q2.82796 0.196669 1.89887 -1.1495Q0.969781 -2.49566 0.969781 -5.05235Q0.969781 -7.45307 2.1091 -8.88062Q3.24843 -10.3082 5.16764 -10.3082Q5.68305 -10.3082 6.20863 -10.2064Q6.73421 -10.1047 7.30387 -9.90126Z" fill="#262626" transform="translate(820.4995468099949,469.55555555555554) translate(-4.418267250061035,0)" />
<line x1="856.7908899704056" y1="445.5444444444445" x2="856.7908899704056" y2="450.80555555555554" stroke="#262626" stroke-width="1.1111111111111112" />
<path d="M1.13932 -10.1251L7.64974 -10.1251L7.64974 -9.54183L3.97407 0L2.54313 0L6.00179 -8.97217L1.13932 -8.97217L1.13932 -10.1251Z" fill="#262626" transform="translate(856.7908899704056,469.55555555555554) translate(-4.418267250061035,0)" />
<line x1="893.0822331308163" y1="445.5444444444445" x2="893.0822331308163" y2="450.80555555555554" stroke="#262626" stroke-width="1.1111111111111112" />
<path d="M4.41488 -4.80821Q3.43831 -4.80821 2.87882 -4.28602Q2.31934 -3.76383 2.31934 -2.84831Q2.31934 -1.93278 2.87882 -1.41059Q3.43831 -0.888401 4.41488 -0.888401Q5.39144 -0.888401 5.95432 -1.41398Q6.5172 -1.93956 6.5172 -2.84831Q6.5172 -3.76383 5.95771 -4.28602Q5.39822 -4.80821 4.41488 -4.80821ZM3.04498 -5.39144Q2.16336 -5.60845 1.67169 -6.21202Q1.18001 -6.81559 1.18001 -7.68365Q1.18001 -8.89757 2.04468 -9.60287Q2.90934 -10.3082 4.41488 -10.3082Q5.92719 -10.3082 6.78847 -9.60287Q7.64974 -8.89757 7.64974 -7.68365Q7.64974 -6.81559 7.15807 -6.21202Q6.6664 -5.60845 5.79156 -5.39144Q6.78168 -5.16086 7.33439 -4.48947Q7.8871 -3.81809 7.8871 -2.84831Q7.8871 -1.37668 6.98853 -0.590007Q6.08995 0.196669 4.41488 0.196669Q2.7398 0.196669 1.84123 -0.590007Q0.942654 -1.37668 0.942654 -2.84831Q0.942654 -3.81809 1.49875 -4.48947Q2.05485 -5.16086 3.04498 -5.39144ZM2.54313 -7.5548Q2.54313 -6.76812 3.0348 -6.32731Q3.52648 -5.8865 4.41488 -5.8865Q5.29649 -5.8865 5.79495 -6.32731Q6.2934 -6.76812 6.2934 -7.5548Q6.2934 -8.34147 5.79495 -8.78228Q5.2965 -9.22309 4.41488 -9.22309Q3.52648 -9.22309 3.0348 -8.78228Q2.54313 -8.34147 2.54313 -7.5548Z" fill="#262626" transform="translate(893.0822331308163,469.55555555555554) translate(-4.418267250061035,0)" />
<line x1="929.3735762912271" y1="445.5444444444445" x2="929.3735762912271" y2="450.80555555555554" stroke="#262626" stroke-width="1.1111111111111112" />
<path d="M1.52588 -0.210232L1.52588 -1.45806Q2.04129 -1.21392 2.57026 -1.08507Q3.09923 -0.956217 3.60786 -0.956217Q4.96419 -0.956217 5.67966 -1.86835Q6.39513 -2.78049 6.49685 -4.63867Q6.10352 -4.05545 5.49995 -3.74349Q4.89638 -3.43153 4.16395 -3.43153Q2.64486 -3.43153 1.75985 -4.35045Q0.874837 -5.26937 0.874837 -6.86306Q0.874837 -8.42285 1.79715 -9.36551Q2.71946 -10.3082 4.25212 -10.3082Q6.00857 -10.3082 6.93427 -8.962Q7.85997 -7.61583 7.85997 -5.05235Q7.85997 -2.65842 6.72404 -1.23088Q5.58811 0.196669 3.66889 0.196669Q3.15348 0.196669 2.62451 0.0949436Q2.09554 -0.00678168 1.52588 -0.210232ZM4.25212 -4.50304Q5.17442 -4.50304 5.71357 -5.13374Q6.25271 -5.76443 6.25271 -6.86306Q6.25271 -7.95491 5.71357 -8.589Q5.17443 -9.22309 4.25212 -9.22309Q3.32981 -9.22309 2.79066 -8.589Q2.25152 -7.95492 2.25152 -6.86306Q2.25152 -5.76443 2.79066 -5.13374Q3.32981 -4.50304 4.25212 -4.50304Z" fill="#262626" transform="translate(929.3735762912271,469.55555555555554) translate(-4.418267250061035,0)" />
<line x1="965.6649194516378" y1="445.5444444444445" x2="965.6649194516378" y2="450.80555555555554" stroke="#262626" stroke-width="1.1111111111111112" />
<path d="M1.72255 -1.15289L3.9605 -1.15289L3.9605 -8.87722L1.52588 -8.38894L1.52588 -9.63677L3.94694 -10.1251L5.31684 -10.1251L5.31684 -1.15289L7.5548 -1.15289L7.5548 0L1.72255 0L1.72255 -1.15289ZM13.2514 -9.22309Q12.1935 -9.22309 11.6611 -8.1821Q11.1287 -7.14111 11.1287 -5.05235Q11.1287 -2.97038 11.6611 -1.92939Q12.1935 -0.888401 13.2514 -0.888401Q14.3161 -0.888401 14.8485 -1.92939Q15.3809 -2.97038 15.3809 -5.05235Q15.3809 -7.14111 14.8485 -8.1821Q14.3161 -9.22309 13.2514 -9.22309ZM13.2514 -10.3082Q14.9536 -10.3082 15.8522 -8.962Q16.7508 -7.61583 16.7508 -5.05235Q16.7508 -2.49566 15.8522 -1.1495Q14.9536 0.196669 13.2514 0.196669Q11.5492 0.196669 10.6506 -1.1495Q9.75206 -2.49566 9.75206 -5.05235Q9.75206 -7.61583 10.6506 -8.962Q11.5492 -10.3082 13.2514 -10.3082Z" fill="#262626" transform="translate(965.6649194516378,469.55555555555554) translate(-8.83653450012207,0)" />
<line x1="579.9261618720161" y1="414.28063492063495" x2="585.1872729831272" y2="414.28063492063495" stroke="#262626" stroke-width="1.1111111111111112" />
<path d="M0.678168 -4.36062L4.3335 -4.36062L4.3335 -3.24843L0.678168 -3.24843L0.678168 -4.36062ZM9.42654 -9.22309Q8.3686 -9.22309 7.83624 -8.1821Q7.30387 -7.14111 7.30387 -5.05235Q7.30387 -2.97038 7.83624 -1.92939Q8.3686 -0.888401 9.42654 -0.888401Q10.4913 -0.888401 11.0236 -1.92939Q11.556 -2.97038 11.556 -5.05235Q11.556 -7.14111 11.0236 -8.1821Q10.4913 -9.22309 9.42654 -9.22309ZM9.42654 -10.3082Q11.1287 -10.3082 12.0273 -8.962Q12.9259 -7.61583 12.9259 -5.05235Q12.9259 -2.49566 12.0273 -1.1495Q11.1287 0.196669 9.42654 0.196669Q7.72434 0.196669 6.82577 -1.1495Q5.92719 -2.49566 5.92719 -5.05235Q5.92719 -7.61583 6.82577 -8.962Q7.72434 -10.3082 9.42654 -10.3082ZM15.3334 -1.72255L16.7643 -1.72255L16.7643 0L15.3334 0L15.3334 -1.72255ZM22.8475 -5.60845Q21.9252 -5.60845 21.386 -4.97776Q20.8469 -4.34706 20.8469 -3.24843Q20.8469 -2.15658 21.386 -1.52249Q21.9252 -0.888401 22.8475 -0.888401Q23.7698 -0.888401 24.3089 -1.52249Q24.8481 -2.15658 24.8481 -3.24843Q24.8481 -4.34706 24.3089 -4.97776Q23.7698 -5.60845 22.8475 -5.60845ZM25.567 -9.90126L25.567 -8.65343Q25.0515 -8.89757 24.526 -9.02642Q24.0004 -9.15527 23.485 -9.15527Q22.1286 -9.15527 21.4132 -8.23975Q20.6977 -7.32422 20.596 -5.47282Q20.9961 -6.06282 21.5997 -6.37817Q22.2032 -6.69352 22.9289 -6.69352Q24.4548 -6.69352 25.3398 -5.76782Q26.2248 -4.84212 26.2248 -3.24843Q26.2248 -1.68864 25.3025 -0.745985Q24.3802 0.196669 22.8475 0.196669Q21.091 0.196669 20.1619 -1.1495Q19.2329 -2.49566 19.2329 -5.05235Q19.2329 -7.45307 20.3722 -8.88062Q21.5115 -10.3082 23.4307 -10.3082Q23.9461 -10.3082 24.4717 -10.2064Q24.9973 -10.1047 25.567 -9.90126Z" fill="#262626" transform="translate(575.065050760905,418.28063492063495) translate(-27.099611282348633,0)" />
<line x1="579.9261618720161" y1="372.0622222222222" x2="585.1872729831272" y2="372.0622222222222" stroke="#262626" stroke-width="1.1111111111111112" />
<path d="M0.678168 -4.36062L4.3335 -4.36062L4.3335 -3.24843L0.678168 -3.24843L0.678168 -4.36062ZM9.42654 -9.22309Q8.3686 -9.22309 7.83624 -8.1821Q7.30387 -7.14111 7.30387 -5.05235Q7.30387 -2.97038 7.83624 -1.92939Q8.3686 -0.888401 9.42654 -0.888401Q10.4913 -0.888401 11.0236 -1.92939Q11.556 -2.97038 11.556 -5.05235Q11.556 -7.14111 11.0236 -8.1821Q10.4913 -9.22309 9.42654 -9.22309ZM9.42654 -10.3082Q11.1287 -10.3082 12.0273 -8.962Q12.9259 -7.61583 12.9259 -5.05235Q12.9259 -2.49566 12.0273 -1.1495Q11.1287 0.196669 9.42654 0.196669Q7.72434 0.196669 6.82577 -1.1495Q5.92719 -2.49566 5.92719 -5.05235Q5.92719 -7.61583 6.82577 -8.962Q7.72434 -10.3082 9.42654 -10.3082ZM15.3334 -1.72255L16.7643 -1.72255L16.7643 0L15.3334 0L15.3334 -1.72255ZM23.5121 -8.93148L20.0534 -3.52648L23.5121 -3.52648L23.5121 -8.93148ZM23.1527 -10.1251L24.8752 -10.1251L24.8752 -3.52648L26.3197 -3.52648L26.3197 -2.38715L24.8752 -2.38715L24.8752 0L23.5121 0L23.5121 -2.38715L18.9412 -2.38715L18.9412 -3.70958L23.1527 -10.1251Z" fill="#262626" transform="translate(575.065050760905,376.0622222222222) translate(-27.099611282348633,0)" />
<line x1="579.9261618720161" y1="329.8438095238095" x2="585.1872729831272" y2="329.8438095238095" stroke="#262626" stroke-width="1.1111111111111112" />
<path d="M0.678168 -4.36062L4.3335 -4.36062L4.3335 -3.24843L0.678168 -3.24843L0.678168 -4.36062ZM9.42654 -9.22309Q8.3686 -9.22309 7.83624 -8.1821Q7.30387 -7.14111 7.30387 -5.05235Q7.30387 -2.97038 7.83624 -1.92939Q8.3686 -0.888401 9.42654 -0.888401Q10.4913 -0.888401 11.0236 -1.92939Q11.556 -2.97038 11.556 -5.05235Q11.556 -7.14111 11.0236 -8.1821Q10.4913 -9.22309 9.42654 -9.22309ZM9.42654 -10.3082Q11.1287 -10.3082 12.0273 -8.962Q12.9259 -7.61583 12.9259 -5.05235Q12.9259 -2.49566 12.0273 -1.1495Q11.1287 0.196669 9.42654 0.196669Q7.72434 0.196669 6.82577 -1.1495Q5.92719 -2.49566 5.92719 -5.05235Q5.92719 -7.61583 6.82577 -8.962Q7.72434 -10.3082 9.42654 -10.3082ZM15.3334 -1.72255L16.7643 -1.72255L16.7643 0L15.3334 0L15.3334 -1.72255ZM20.9283 -1.15289L25.7094 -1.15289L25.7094 0L19.2803 0L19.2803 -1.15289Q20.0602 -1.95991 21.4064 -3.31963Q22.7526 -4.67936 23.0984 -5.0727Q23.7562 -5.8119 24.0173 -6.32392Q24.2784 -6.83594 24.2784 -7.331Q24.2784 -8.13802 23.7122 -8.64665Q23.1459 -9.15527 22.2371 -9.15527Q21.5929 -9.15527 20.8774 -8.93148Q20.1619 -8.70768 19.3481 -8.25331L19.3481 -9.63677Q20.1755 -9.96908 20.8944 -10.1386Q21.6132 -10.3082 22.21 -10.3082Q23.7834 -10.3082 24.7192 -9.52148Q25.6551 -8.73481 25.6551 -7.41916Q25.6551 -6.79525 25.4211 -6.23576Q25.1872 -5.67627 24.57 -4.91672Q24.4005 -4.72005 23.4918 -3.78079Q22.583 -2.84153 20.9283 -1.15289Z" fill="#262626" transform="translate(575.065050760905,333.8438095238095) translate(-27.099611282348633,0)" />
<line x1="579.9261618720161" y1="287.6253968253968" x2="585.1872729831272" y2="287.6253968253968" stroke="#262626" stroke-width="1.1111111111111112" />
<path d="M4.41488 -9.22309Q3.35693 -9.22309 2.82457 -8.1821Q2.29221 -7.14111 2.29221 -5.05235Q2.29221 -2.97038 2.82457 -1.92939Q3.35693 -0.888401 4.41488 -0.888401Q5.4796 -0.888401 6.01196 -1.92939Q6.54433 -2.97038 6.54433 -5.05235Q6.54433 -7.14111 6.01196 -8.1821Q5.4796 -9.22309 4.41488 -9.22309ZM4.41488 -10.3082Q6.11708 -10.3082 7.01565 -8.962Q7.91422 -7.61583 7.91423 -5.05235Q7.91423 -2.49566 7.01565 -1.1495Q6.11708 0.196669 4.41488 0.196669Q2.71267 0.196669 1.8141 -1.1495Q0.915527 -2.49566 0.915527 -5.05235Q0.915527 -7.61583 1.8141 -8.962Q2.71267 -10.3082 4.41488 -10.3082ZM10.3217 -1.72255L11.7527 -1.72255L11.7527 0L10.3217 0L10.3217 -1.72255ZM17.6663 -9.22309Q16.6083 -9.22309 16.076 -8.1821Q15.5436 -7.14111 15.5436 -5.05235Q15.5436 -2.97038 16.076 -1.92939Q16.6083 -0.888401 17.6663 -0.888401Q18.731 -0.888401 19.2634 -1.92939Q19.7957 -2.97038 19.7957 -5.05235Q19.7957 -7.14111 19.2634 -8.1821Q18.731 -9.22309 17.6663 -9.22309ZM17.6663 -10.3082Q19.3685 -10.3082 20.2671 -8.962Q21.1656 -7.61583 21.1656 -5.05235Q21.1656 -2.49566 20.2671 -1.1495Q19.3685 0.196669 17.6663 0.196669Q15.9641 0.196669 15.0655 -1.1495Q14.1669 -2.49566 14.1669 -5.05235Q14.1669 -7.61583 15.0655 -8.962Q15.9641 -10.3082 17.6663 -10.3082Z" fill="#262626" transform="translate(575.065050760905,291.6253968253968) translate(-22.08794593811035,0)" />
<line x1="579.9261618720161" y1="245.40698412698413" x2="585.1872729831272" y2="245.40698412698413" stroke="#262626" stroke-width="1.1111111111111112" />
<path d="M4.41488 -9.22309Q3.35693 -9.22309 2.82457 -8.1821Q2.29221 -7.14111 2.29221 -5.05235Q2.29221 -2.97038 2.82457 -1.92939Q3.35693 -0.888401 4.41488 -0.888401Q5.4796 -0.888401 6.01196 -1.92939Q6.54433 -2.97038 6.54433 -5.05235Q6.54433 -7.14111 6.01196 -8.1821Q5.4796 -9.22309 4.41488 -9.22309ZM4.41488 -10.3082Q6.11708 -10.3082 7.01565 -8.962Q7.91422 -7.61583 7.91423 -5.05235Q7.91423 -2.49566 7.01565 -1.1495Q6.11708 0.196669 4.41488 0.196669Q2.71267 0.196669 1.8141 -1.1495Q0.915527 -2.49566 0.915527 -5.05235Q0.915527 -7.61583 1.8141 -8.962Q2.71267 -10.3082 4.41488 -10.3082ZM10.3217 -1.72255L11.7527 -1.72255L11.7527 0L10.3217 0L10.3217 -1.72255ZM15.9166 -1.15289L20.6977 -1.15289L20.6977 0L14.2687 0L14.2687 -1.15289Q15.0486 -1.95991 16.3947 -3.31963Q17.7409 -4.67936 18.0868 -5.0727Q18.7446 -5.8119 19.0057 -6.32392Q19.2668 -6.83594 19.2668 -7.331Q19.2668 -8.13802 18.7005 -8.64665Q18.1342 -9.15527 17.2255 -9.15527Q16.5812 -9.15527 15.8658 -8.93148Q15.1503 -8.70768 14.3365 -8.25331L14.3365 -9.63677Q15.1638 -9.96908 15.8827 -10.1386Q16.6016 -10.3082 17.1984 -10.3082Q18.7717 -10.3082 19.7076 -9.52148Q20.6434 -8.73481 20.6434 -7.41916Q20.6434 -6.79525 20.4095 -6.23576Q20.1755 -5.67627 19.5584 -4.91672Q19.3888 -4.72005 18.4801 -3.78079Q17.5713 -2.84153 15.9166 -1.15289Z" fill="#262626" transform="translate(575.065050760905,249.40698412698413) translate(-22.08794593811035,0)" />
<line x1="579.9261618720161" y1="203.1885714285714" x2="585.1872729831272" y2="203.1885714285714" stroke="#262626" stroke-width="1.1111111111111112" />
<path d="M4.41488 -9.22309Q3.35693 -9.22309 2.82457 -8.1821Q2.29221 -7.14111 2.29221 -5.05235Q2.29221 -2.97038 2.82457 -1.92939Q3.35693 -0.888401 4.41488 -0.888401Q5.4796 -0.888401 6.01196 -1.92939Q6.54433 -2.97038 6.54433 -5.05235Q6.54433 -7.14111 6.01196 -8.1821Q5.4796 -9.22309 4.41488 -9.22309ZM4.41488 -10.3082Q6.11708 -10.3082 7.01565 -8.962Q7.91422 -7.61583 7.91423 -5.05235Q7.91423 -2.49566 7.01565 -1.1495Q6.11708 0.196669 4.41488 0.196669Q2.71267 0.196669 1.8141 -1.1495Q0.915527 -2.49566 0.915527 -5.05235Q0.915527 -7.61583 1.8141 -8.962Q2.71267 -10.3082 4.41488 -10.3082ZM10.3217 -1.72255L11.7527 -1.72255L11.7527 0L10.3217 0L10.3217 -1.72255ZM18.5004 -8.93148L15.0418 -3.52648L18.5004 -3.52648L18.5004 -8.93148ZM18.141 -10.1251L19.8636 -10.1251L19.8636 -3.52648L21.3081 -3.52648L21.3081 -2.38715L19.8636 -2.38715L19.8636 0L18.5004 0L18.5004 -2.38715L13.9296 -2.38715L13.9296 -3.70958L18.141 -10.1251Z" fill="#262626" transform="translate(575.065050760905,207.1885714285714) translate(-22.08794593811035,0)" />
<line x1="579.9261618720161" y1="160.97015873015872" x2="585.1872729831272" y2="160.97015873015872" stroke="#262626" stroke-width="1.1111111111111112" />
<path d="M4.41488 -9.22309Q3.35693 -9.22309 2.82457 -8.1821Q2.29221 -7.14111 2.29221 -5.05235Q2.29221 -2.97038 2.82457 -1.92939Q3.35693 -0.888401 4.41488 -0.888401Q5.4796 -0.888401 6.01196 -1.92939Q6.54433 -2.97038 6.54433 -5.05235Q6.54433 -7.14111 6.01196 -8.1821Q5.4796 -9.22309 4.41488 -9.22309ZM4.41488 -10.3082Q6.11708 -10.3082 7.01565 -8.962Q7.91422 -7.61583 7.91423 -5.05235Q7.91423 -2.49566 7.01565 -1.1495Q6.11708 0.196669 4.41488 0.196669Q2.71267 0.196669 1.8141 -1.1495Q0.915527 -2.49566 0.915527 -5.05235Q0.915527 -7.61583 1.8141 -8.962Q2.71267 -10.3082 4.41488 -10.3082ZM10.3217 -1.72255L11.7527 -1.72255L11.7527 0L10.3217 0L10.3217 -1.72255ZM17.8358 -5.60845Q16.9135 -5.60845 16.3744 -4.97776Q15.8352 -4.34706 15.8352 -3.24843Q15.8352 -2.15658 16.3744 -1.52249Q16.9135 -0.888401 17.8358 -0.888401Q18.7581 -0.888401 19.2973 -1.52249Q19.8364 -2.15658 19.8364 -3.24843Q19.8364 -4.34706 19.2973 -4.97776Q18.7581 -5.60845 17.8358 -5.60845ZM20.5553 -9.90126L20.5553 -8.65343Q20.0399 -8.89757 19.5143 -9.02642Q18.9887 -9.15527 18.4733 -9.15527Q17.117 -9.15527 16.4015 -8.23975Q15.686 -7.32422 15.5843 -5.47282Q15.9844 -6.06282 16.588 -6.37817Q17.1916 -6.69352 17.9172 -6.69352Q19.4431 -6.69352 20.3281 -5.76782Q21.2131 -4.84212 21.2131 -3.24843Q21.2131 -1.68864 20.2908 -0.745985Q19.3685 0.196669 17.8358 0.196669Q16.0794 0.196669 15.1503 -1.1495Q14.2212 -2.49566 14.2212 -5.05235Q14.2212 -7.45307 15.3605 -8.88062Q16.4998 -10.3082 18.4191 -10.3082Q18.9345 -10.3082 19.46 -10.2064Q19.9856 -10.1047 20.5553 -9.90126Z" fill="#262626" transform="translate(575.065050760905,164.97015873015872) translate(-22.08794593811035,0)" />
<line x1="579.9261618720161" y1="118.751746031746" x2="585.1872729831272" y2="118.751746031746" stroke="#262626" stroke-width="1.1111111111111112" />
<path d="M4.41488 -9.22309Q3.35693 -9.22309 2.82457 -8.1821Q2.29221 -7.14111 2.29221 -5.05235Q2.29221 -2.97038 2.82457 -1.92939Q3.35693 -0.888401 4.41488 -0.888401Q5.4796 -0.888401 6.01196 -1.92939Q6.54433 -2.97038 6.54433 -5.05235Q6.54433 -7.14111 6.01196 -8.1821Q5.4796 -9.22309 4.41488 -9.22309ZM4.41488 -10.3082Q6.11708 -10.3082 7.01565 -8.962Q7.91422 -7.61583 7.91423 -5.05235Q7.91423 -2.49566 7.01565 -1.1495Q6.11708 0.196669 4.41488 0.196669Q2.71267 0.196669 1.8141 -1.1495Q0.915527 -2.49566 0.915527 -5.05235Q0.915527 -7.61583 1.8141 -8.962Q2.71267 -10.3082 4.41488 -10.3082ZM10.3217 -1.72255L11.7527 -1.72255L11.7527 0L10.3217 0L10.3217 -1.72255ZM17.6663 -4.80821Q16.6897 -4.80821 16.1302 -4.28602Q15.5707 -3.76383 15.5707 -2.84831Q15.5707 -1.93278 16.1302 -1.41059Q16.6897 -0.888401 17.6663 -0.888401Q18.6428 -0.888401 19.2057 -1.41398Q19.7686 -1.93956 19.7686 -2.84831Q19.7686 -3.76383 19.2091 -4.28602Q18.6496 -4.80821 17.6663 -4.80821ZM16.2964 -5.39144Q15.4148 -5.60845 14.9231 -6.21202Q14.4314 -6.81559 14.4314 -7.68365Q14.4314 -8.89757 15.2961 -9.60287Q16.1608 -10.3082 17.6663 -10.3082Q19.1786 -10.3082 20.0399 -9.60287Q20.9012 -8.89757 20.9012 -7.68365Q20.9012 -6.81559 20.4095 -6.21202Q19.9178 -5.60845 19.043 -5.39144Q20.0331 -5.16086 20.5858 -4.48947Q21.1385 -3.81809 21.1385 -2.84831Q21.1385 -1.37668 20.2399 -0.590007Q19.3414 0.196669 17.6663 0.196669Q15.9912 0.196669 15.0926 -0.590007Q14.1941 -1.37668 14.1941 -2.84831Q14.1941 -3.81809 14.7502 -4.48947Q15.3063 -5.16086 16.2964 -5.39144ZM15.7945 -7.5548Q15.7945 -6.76812 16.2862 -6.32731Q16.7779 -5.8865 17.6663 -5.8865Q18.5479 -5.8865 19.0464 -6.32731Q19.5448 -6.76812 19.5448 -7.5548Q19.5448 -8.34147 19.0464 -8.78228Q18.5479 -9.22309 17.6663 -9.22309Q16.7779 -9.22309 16.2862 -8.78228Q15.7945 -8.34147 15.7945 -7.5548Z" fill="#262626" transform="translate(575.065050760905,122.751746031746) translate(-22.08794593811035,0)" />
<line x1="579.9261618720161" y1="76.5333333333333" x2="585.1872729831272" y2="76.5333333333333" stroke="#262626" stroke-width="1.1111111111111112" />
<path d="M1.72255 -1.15289L3.9605 -1.15289L3.9605 -8.87722L1.52588 -8.38894L1.52588 -9.63677L3.94694 -10.1251L5.31684 -10.1251L5.31684 -1.15289L7.5548 -1.15289L7.5548 0L1.72255 0L1.72255 -1.15289ZM10.3217 -1.72255L11.7527 -1.72255L11.7527 0L10.3217 0L10.3217 -1.72255ZM17.6663 -9.22309Q16.6083 -9.22309 16.076 -8.1821Q15.5436 -7.14111 15.5436 -5.05235Q15.5436 -2.97038 16.076 -1.92939Q16.6083 -0.888401 17.6663 -0.888401Q18.731 -0.888401 19.2634 -1.92939Q19.7957 -2.97038 19.7957 -5.05235Q19.7957 -7.14111 19.2634 -8.1821Q18.731 -9.22309 17.6663 -9.22309ZM17.6663 -10.3082Q19.3685 -10.3082 20.2671 -8.962Q21.1656 -7.61583 21.1656 -5.05235Q21.1656 -2.49566 20.2671 -1.1495Q19.3685 0.196669 17.6663 0.196669Q15.9641 0.196669 15.0655 -1.1495Q14.1669 -2.49566 14.1669 -5.05235Q14.1669 -7.61583 15.0655 -8.962Q15.9641 -10.3082 17.6663 -10.3082Z" fill="#262626" transform="translate(575.065050760905,80.5333333333333) translate(-22.08794593811035,0)" />
<g class="series" aria-label="$\vec{v}$">
<polyline points="602.7514878475305,287.6253968253968 606.3806221635715,266.7610451206901 610.0097564796126,246.51829634950744 613.6388907956537,227.0870924439274 617.2680251116948,208.64550588088113 620.8971594277358,191.35819554532245 624.5262937437769,175.3750271879933 628.155428059818,160.82986900195402 631.7845623758591,147.83957088399757 635.4136966919001,136.50313394220527 639.0428310079412,126.90107478018058 642.6719653239822,119.09498705272335 646.3010996400234,113.12730076731866 649.9302339560644,109.02123782069032 653.5593682721055,106.78096032895137 657.1885025881465,106.39190645177706 660.8176369041877,107.82130664266458 664.4467712202287,111.0188715946155 668.0759055362698,115.9176416080012 671.7050398523108,122.43498569798643 675.334174168352,130.47373749412995 678.963308484393,139.92345387443189 682.5924428004341,150.66178132818732 686.2215771164751,162.5559142627906 689.8507114325163,175.46412886356143 693.4798457485573,189.23737568535557 697.1089800645984,203.72091390100184 700.7381143806394,218.75597005350863 704.3672486966806,234.18140425381597 707.9963830127216,249.83536702925056 711.6255173287627,265.5569304538154 715.2546516448037,281.1876777725268 718.8837859608449,296.573236459326 722.5129202768859,311.56474051148285 726.142054592927,326.0202087715426 729.771188908968,339.80582716841514 733.4003232250092,352.7971239689345 737.0294575410502,364.88002841618413 740.6585918570913,375.9518044865577 744.2877261731323,385.92185290896316 747.9168604891734,394.71237604157585 751.5459948052145,402.25890167878833 755.1751291212556,408.510663348236 758.8042634372966,413.4308361399423 762.4333977533378,416.9966285720073 766.0625320693788,419.19923242565494 769.6916663854199,420.04363386324474 773.3208007014609,419.54829046319725 776.9499350175021,417.7446800536839 780.5790693335431,414.6767283913531 784.2082036495841,410.400123802331 787.8373379656252,404.98152787139134 791.4664722816663,398.49769212388543 795.0956065977074,391.034491387357 798.7247409137484,382.68588514062805 802.3538752297895,373.55281865372604 805.9830095458306,363.74207608986643 809.6121438618717,353.3650979796589 813.2412781779128,342.5367755879312 816.8704124939538,331.3742346765198 820.4995468099949,319.9956210247374 824.128681126036,308.5188998068903 827.757815442077,297.0606805481857 831.3869497581181,285.73507889270684 835.0160840741592,274.6526258269006 838.6452183902003,263.91923431711876 842.2743527062413,253.63523254893187 845.9034870222824,243.89447210856375 849.5326213383235,234.78351853288146 853.1617556543646,226.38093068435847 856.7908899704056,218.75663439210547 860.4200242864467,211.97139475049173 864.0491586024878,206.07639039420334 867.6782929185289,201.1128919839977 871.3074272345699,197.11204605197563 874.936561550611,194.09476427976938 878.565695866652,192.07171722818603 882.1948301826932,191.04343051267688 885.8239644987342,191.00048043515568 889.4530988147753,191.9237851481912 893.0822331308163,193.78498655080932 896.7113674468574,196.54691730368012 900.3405017628985,200.16414661214435 903.9696360789396,204.5835977643136 907.5987703949806,209.74522983341674 911.2279047110217,215.58277546279294 914.8570390270628,222.02452625162041 918.4861733431039,228.99415695183401 922.115307659145,236.4115794729547 925.7444419751861,244.19381757201515 929.3735762912271,252.25589307973553 933.0027106072681,260.51171458000493 936.6318449233092,268.87495961506494 940.2609792393504,277.2599417302557 943.8901135553914,285.582453995657 947.5192478714324,293.7605810425689 951.1483821874735,301.7154721250187 954.7775165035147,309.37206825419065 958.4066508195557,316.6597770502133 962.0357851355967,323.5130896039486" fill="none" stroke="#008000" stroke-width="1.5" />
</g>
<g class="spine">
<line x1="584.7872729831272" y1="445.94444444444446" x2="980" y2="445.94444444444446" stroke="#262626" stroke-width="0.8" />
</g>
<g class="spine">
<line x1="584.7872729831272" y1="76.53333333333333" x2="980" y2="76.53333333333333" stroke="#262626" stroke-width="0.8" />
</g>
<g class="spine">
<line x1="584.7872729831272" y1="76.53333333333333" x2="584.7872729831272" y2="445.94444444444446" stroke="#262626" stroke-width="0.8" />
</g>
<g class="spine">
<line x1="980" y1="76.53333333333333" x2="980" y2="445.94444444444446" stroke="#262626" stroke-width="0.8" />
</g>
<rect x="906.891709751553" y="86.53333333333333" width="63.108290248447" height="25.72222222222222" fill="#FFFFFF" fill-opacity="0.8" stroke="#CCCCCC" stroke-width="0.5" />
<g class="legend" aria-label="Chart legend">
<line x1="914.891709751553" y1="99.39444444444445" x2="942.6694875293308" y2="99.39444444444445" stroke="#008000" stroke-width="1.5" />
<text x="953.7805986404419" y="103.25555555555556" font-family="DejaVu Sans, sans-serif" font-size="13.88888888888889" text-anchor="start" fill="#262626"><tspan baseline-shift="sub" font-size="100%">v⃗</tspan></text>
</g>
<text x="782.3936364915636" y="68.53333333333333" font-family="DejaVu Sans, sans-serif" font-size="15.88888888888889" text-anchor="middle" font-weight="bold" fill="#262626"><tspan baseline-shift="sub" font-size="100%">x^2 + y^2</tspan> ≤ R</text>
<path d="M7.62261 -7.59549L4.87603 -3.89947L7.76503 0L6.2934 0L4.08257 -2.98394L1.87174 0L0.400119 0L3.35015 -3.97407L0.651042 -7.59549L2.12267 -7.59549L4.13683 -4.88959L6.15099 -7.59549L7.62261 -7.59549ZM14.9604 -4.25212Q15.0079 -3.75027 15.4351 -2.93647Q15.937 -1.99381 16.8864 -1.46484Q17.8155 -0.949436 18.8192 -0.942654L23.546 -0.942654L23.546 0.135634L18.8192 0.135634Q17.5171 0.135634 16.3133 -0.535753Q15.1096 -1.20714 14.4653 -2.40072Q13.8211 -3.59429 13.8211 -4.86247Q13.8211 -6.11708 14.4653 -7.31066Q15.1096 -8.50423 16.3133 -9.1824Q17.5171 -9.86057 18.8192 -9.86057L23.546 -9.86057L23.546 -8.78228L18.8192 -8.78228Q17.8155 -8.7755 16.8864 -8.25331Q15.9437 -7.71756 15.4351 -6.78168Q15.0011 -5.96788 14.9401 -5.33719L23.546 -5.33719L23.546 -4.25212L14.9604 -4.25212ZM35.3122 -4.74718Q35.753 -4.59798 36.1701 -4.1097Q36.5872 -3.62142 37.0077 -2.76693L38.3979 0L36.9263 0L35.631 -2.59739Q35.1291 -3.61464 34.6578 -3.94694Q34.1865 -4.27924 33.3727 -4.27924L31.8807 -4.27924L31.8807 0L30.5108 0L30.5108 -10.1251L33.6032 -10.1251Q35.3394 -10.1251 36.1939 -9.39941Q37.0483 -8.67377 37.0483 -7.20893Q37.0483 -6.25271 36.6041 -5.62202Q36.1599 -4.99132 35.3122 -4.74718ZM31.8807 -8.9993L31.8807 -5.405L33.6032 -5.405Q34.5934 -5.405 35.0986 -5.86277Q35.6038 -6.32053 35.6038 -7.20893Q35.6038 -8.09733 35.0986 -8.54831Q34.5934 -8.99929 33.6032 -8.9993L31.8807 -8.9993Z" fill="#262626" transform="translate(782.3936364915636,489.44444444444446) translate(-19.39900779724121,0)" />
<text x="535.9654394785564" y="261.23888888888894" font-family="DejaVu Sans, sans-serif" font-size="13.88888888888889" text-anchor="middle" transform="rotate(-90,535.9654394785564,261.23888888888894)" fill="#262626"><tspan baseline-shift="sub" font-size="100%">ȳ</tspan> ± σ</text>
</svg>
