<svg xmlns="http://www.w3.org/2000/svg" viewBox="0 0 1000 450" width="1000" height="450" role="img" aria-labelledby="chart-title">
<title id="chart-title">$\alpha$ decay and $\beta$ noise — $\omega = 0.4$ rad/ms</title>
<rect x="0" y="0" width="1000" height="450" fill="#FFFFFF" />
<text x="500" y="24.099999999999998" font-family="DejaVu Sans, sans-serif" font-size="17.88888888888889" text-anchor="middle" font-weight="bold" fill="#262626">α decay and β noise — ω = 0.4 rad/ms</text>
<rect x="60" y="41.46666666666667" width="440" height="358.5333333333333" fill="#FFFFFF" />
<line x1="80" y1="399.6" x2="80" y2="404.8611111111111" stroke="#262626" stroke-width="1.1111111111111112" />
<text x="80" y="423.6111111111111" font-family="DejaVu Sans, sans-serif" font-size="13.88888888888889" text-anchor="middle" fill="#262626">0</text>
<line x1="120.4040404040404" y1="399.6" x2="120.4040404040404" y2="404.8611111111111" stroke="#262626" stroke-width="1.1111111111111112" />
<text x="120.4040404040404" y="423.6111111111111" font-family="DejaVu Sans, sans-serif" font-size="13.88888888888889" text-anchor="middle" fill="#262626">5</text>
<line x1="160.8080808080808" y1="399.6" x2="160.8080808080808" y2="404.8611111111111" stroke="#262626" stroke-width="1.1111111111111112" />
<text x="160.8080808080808" y="423.6111111111111" font-family="DejaVu Sans, sans-serif" font-size="13.88888888888889" text-anchor="middle" fill="#262626">10</text>
<line x1="201.2121212121212" y1="399.6" x2="201.2121212121212" y2="404.8611111111111" stroke="#262626" stroke-width="1.1111111111111112" />
<text x="201.2121212121212" y="423.6111111111111" font-family="DejaVu Sans, sans-serif" font-size="13.88888888888889" text-anchor="middle" fill="#262626">15</text>
<line x1="241.6161616161616" y1="399.6" x2="241.6161616161616" y2="404.8611111111111" stroke="#262626" stroke-width="1.1111111111111112" />
<text x="241.6161616161616" y="423.6111111111111" font-family="DejaVu Sans, sans-serif" font-size="13.88888888888889" text-anchor="middle" fill="#262626">20</text>
<line x1="282.02020202020196" y1="399.6" x2="282.02020202020196" y2="404.8611111111111" stroke="#262626" stroke-width="1.1111111111111112" />
<text x="282.02020202020196" y="423.6111111111111" font-family="DejaVu Sans, sans-serif" font-size="13.88888888888889" text-anchor="middle" fill="#262626">25</text>
<line x1="322.4242424242424" y1="399.6" x2="322.4242424242424" y2="404.8611111111111" stroke="#262626" stroke-width="1.1111111111111112" />
<text x="322.4242424242424" y="423.6111111111111" font-family="DejaVu Sans, sans-serif" font-size="13.88888888888889" text-anchor="middle" fill="#262626">30</text>
<line x1="362.8282828282828" y1="399.6" x2="362.8282828282828" y2="404.8611111111111" stroke="#262626" stroke-width="1.1111111111111112" />
<text x="362.8282828282828" y="423.6111111111111" font-family="DejaVu Sans, sans-serif" font-size="13.88888888888889" text-anchor="middle" fill="#262626">35</text>
<line x1="403.2323232323232" y1="399.6" x2="403.2323232323232" y2="404.8611111111111" stroke="#262626" stroke-width="1.1111111111111112" />
<text x="403.2323232323232" y="423.6111111111111" font-family="DejaVu Sans, sans-serif" font-size="13.88888888888889" text-anchor="middle" fill="#262626">40</text>
<line x1="443.63636363636357" y1="399.6" x2="443.63636363636357" y2="404.8611111111111" stroke="#262626" stroke-width="1.1111111111111112" />
<text x="443.63636363636357" y="423.6111111111111" font-family="DejaVu Sans, sans-serif" font-size="13.88888888888889" text-anchor="middle" fill="#262626">45</text>
<line x1="484.040404040404" y1="399.6" x2="484.040404040404" y2="404.8611111111111" stroke="#262626" stroke-width="1.1111111111111112" />
<text x="484.040404040404" y="423.6111111111111" font-family="DejaVu Sans, sans-serif" font-size="13.88888888888889" text-anchor="middle" fill="#262626">50</text>
<line x1="63.83838383838384" y1="399.6" x2="63.83838383838384" y2="404.8611111111111" stroke="#262626" stroke-width="1.1111111111111112" />
<line x1="71.91919191919192" y1="399.6" x2="71.91919191919192" y2="404.8611111111111" stroke="#262626" stroke-width="1.1111111111111112" />
<line x1="88.08080808080808" y1="399.6" x2="88.08080808080808" y2="404.8611111111111" stroke="#262626" stroke-width="1.1111111111111112" />
<line x1="96.16161616161617" y1="399.6" x2="96.16161616161617" y2="404.8611111111111" stroke="#262626" stroke-width="1.1111111111111112" />
<line x1="104.24242424242424" y1="399.6" x2="104.24242424242424" y2="404.8611111111111" stroke="#262626" stroke-width="1.1111111111111112" />
<line x1="112.32323232323232" y1="399.6" x2="112.32323232323232" y2="404.8611111111111" stroke="#262626" stroke-width="1.1111111111111112" />
<line x1="128.48484848484847" y1="399.6" x2="128.48484848484847" y2="404.8611111111111" stroke="#262626" stroke-width="1.1111111111111112" />
<line x1="136.56565656565655" y1="399.6" x2="136.56565656565655" y2="404.8611111111111" stroke="#262626" stroke-width="1.1111111111111112" />
<line x1="144.64646464646464" y1="399.6" x2="144.64646464646464" y2="404.8611111111111" stroke="#262626" stroke-width="1.1111111111111112" />
<line x1="152.72727272727272" y1="399.6" x2="152.72727272727272" y2="404.8611111111111" stroke="#262626" stroke-width="1.1111111111111112" />
<line x1="168.88888888888886" y1="399.6" x2="168.88888888888886" y2="404.8611111111111" stroke="#262626" stroke-width="1.1111111111111112" />
<line x1="176.96969696969694" y1="399.6" x2="176.96969696969694" y2="404.8611111111111" stroke="#262626" stroke-width="1.1111111111111112" />
<line x1="185.05050505050502" y1="399.6" x2="185.05050505050502" y2="404.8611111111111" stroke="#262626" stroke-width="1.1111111111111112" />
<line x1="193.1313131313131" y1="399.6" x2="193.1313131313131" y2="404.8611111111111" stroke="#262626" stroke-width="1.1111111111111112" />
<line x1="209.29292929292927" y1="399.6" x2="209.29292929292927" y2="404.8611111111111" stroke="#262626" stroke-width="1.1111111111111112" />
<line x1="217.37373737373736" y1="399.6" x2="217.37373737373736" y2="404.8611111111111" stroke="#262626" stroke-width="1.1111111111111112" />
<line x1="225.45454545454544" y1="399.6" x2="225.45454545454544" y2="404.8611111111111" stroke="#262626" stroke-width="1.1111111111111112" />
<line x1="233.53535353535352" y1="399.6" x2="233.53535353535352" y2="404.8611111111111" stroke="#262626" stroke-width="1.1111111111111112" />
<line x1="249.69696969696966" y1="399.6" x2="249.69696969696966" y2="404.8611111111111" stroke="#262626" stroke-width="1.1111111111111112" />
<line x1="257.7777777777777" y1="399.6" x2="257.7777777777777" y2="404.8611111111111" stroke="#262626" stroke-width="1.1111111111111112" />
<line x1="265.8585858585858" y1="399.6" x2="265.8585858585858" y2="404.8611111111111" stroke="#262626" stroke-width="1.1111111111111112" />
<line x1="273.9393939393939" y1="399.6" x2="273.9393939393939" y2="404.8611111111111" stroke="#262626" stroke-width="1.1111111111111112" />
<line x1="290.10101010101005" y1="399.6" x2="290.10101010101005" y2="404.8611111111111" stroke="#262626" stroke-width="1.1111111111111112" />
<line x1="298.18181818181813" y1="399.6" x2="298.18181818181813" y2="404.8611111111111" stroke="#262626" stroke-width="1.1111111111111112" />
<line x1="306.2626262626262" y1="399.6" x2="306.2626262626262" y2="404.8611111111111" stroke="#262626" stroke-width="1.1111111111111112" />
<line x1="314.3434343434343" y1="399.6" x2="314.3434343434343" y2="404.8611111111111" stroke="#262626" stroke-width="1.1111111111111112" />
<line x1="330.50505050505046" y1="399.6" x2="330.50505050505046" y2="404.8611111111111" stroke="#262626" stroke-width="1.1111111111111112" />
<line x1="338.58585858585855" y1="399.6" x2="338.58585858585855" y2="404.8611111111111" stroke="#262626" stroke-width="1.1111111111111112" />
<line x1="346.66666666666663" y1="399.6" x2="346.66666666666663" y2="404.8611111111111" stroke="#262626" stroke-width="1.1111111111111112" />
<line x1="354.7474747474747" y1="399.6" x2="354.7474747474747" y2="404.8611111111111" stroke="#262626" stroke-width="1.1111111111111112" />
<line x1="370.9090909090909" y1="399.6" x2="370.9090909090909" y2="404.8611111111111" stroke="#262626" stroke-width="1.1111111111111112" />
<line x1="378.98989898989896" y1="399.6" x2="378.98989898989896" y2="404.8611111111111" stroke="#262626" stroke-width="1.1111111111111112" />
<line x1="387.07070707070704" y1="399.6" x2="387.07070707070704" y2="404.8611111111111" stroke="#262626" stroke-width="1.1111111111111112" />
<line x1="395.1515151515151" y1="399.6" x2="395.1515151515151" y2="404.8611111111111" stroke="#262626" stroke-width="1.1111111111111112" />
<line x1="411.31313131313124" y1="399.6" x2="411.31313131313124" y2="404.8611111111111" stroke="#262626" stroke-width="1.1111111111111112" />
<line x1="419.3939393939393" y1="399.6" x2="419.3939393939393" y2="404.8611111111111" stroke="#262626" stroke-width="1.1111111111111112" />
<line x1="427.4747474747474" y1="399.6" x2="427.4747474747474" y2="404.8611111111111" stroke="#262626" stroke-width="1.1111111111111112" />
<line x1="435.5555555555555" y1="399.6" x2="435.5555555555555" y2="404.8611111111111" stroke="#262626" stroke-width="1.1111111111111112" />
<line x1="451.71717171717165" y1="399.6" x2="451.71717171717165" y2="404.8611111111111" stroke="#262626" stroke-width="1.1111111111111112" />
<line x1="459.79797979797974" y1="399.6" x2="459.79797979797974" y2="404.8611111111111" stroke="#262626" stroke-width="1.1111111111111112" />
<line x1="467.8787878787878" y1="399.6" x2="467.8787878787878" y2="404.8611111111111" stroke="#262626" stroke-width="1.1111111111111112" />
<line x1="475.9595959595959" y1="399.6" x2="475.9595959595959" y2="404.8611111111111" stroke="#262626" stroke-width="1.1111111111111112" />
<line x1="492.12121212121207" y1="399.6" x2="492.12121212121207" y2="404.8611111111111" stroke="#262626" stroke-width="1.1111111111111112" />
<line x1="55.138888888888886" y1="368.10614140289726" x2="60.4" y2="368.10614140289726" stroke="#262626" stroke-width="1.1111111111111112" />
<text x="50.27777777777777" y="372.10614140289726" font-family="DejaVu Sans, sans-serif" font-size="13.88888888888889" text-anchor="end" fill="#262626">-0.6</text>
<line x1="55.138888888888886" y1="329.3133282729897" x2="60.4" y2="329.3133282729897" stroke="#262626" stroke-width="1.1111111111111112" />
<text x="50.27777777777777" y="333.3133282729897" font-family="DejaVu Sans, sans-serif" font-size="13.88888888888889" text-anchor="end" fill="#262626">-0.4</text>
<line x1="55.138888888888886" y1="290.5205151430821" x2="60.4" y2="290.5205151430821" stroke="#262626" stroke-width="1.1111111111111112" />
<text x="50.27777777777777" y="294.5205151430821" font-family="DejaVu Sans, sans-serif" font-size="13.88888888888889" text-anchor="end" fill="#262626">-0.2</text>
<line x1="55.138888888888886" y1="251.72770201317445" x2="60.4" y2="251.72770201317445" stroke="#262626" stroke-width="1.1111111111111112" />
<text x="50.27777777777777" y="255.72770201317445" font-family="DejaVu Sans, sans-serif" font-size="13.88888888888889" text-anchor="end" fill="#262626">0</text>
<line x1="55.138888888888886" y1="212.93488888326684" x2="60.4" y2="212.93488888326684" stroke="#262626" stroke-width="1.1111111111111112" />
<text x="50.27777777777777" y="216.93488888326684" font-family="DejaVu Sans, sans-serif" font-size="13.88888888888889" text-anchor="end" fill="#262626">0.2</text>
<line x1="55.138888888888886" y1="174.14207575335922" x2="60.4" y2="174.14207575335922" stroke="#262626" stroke-width="1.1111111111111112" />
<text x="50.27777777777777" y="178.14207575335922" font-family="DejaVu Sans, sans-serif" font-size="13.88888888888889" text-anchor="end" fill="#262626">0.4</text>
<line x1="55.138888888888886" y1="135.3492626234516" x2="60.4" y2="135.3492626234516" stroke="#262626" stroke-width="1.1111111111111112" />
<text x="50.27777777777777" y="139.3492626234516" font-family="DejaVu Sans, sans-serif" font-size="13.88888888888889" text-anchor="end" fill="#262626">0.6</text>
<line x1="55.138888888888886" y1="96.556449493544" x2="60.4" y2="96.556449493544" stroke="#262626" stroke-width="1.1111111111111112" />
<text x="50.27777777777777" y="100.556449493544" font-family="DejaVu Sans, sans-serif" font-size="13.88888888888889" text-anchor="end" fill="#262626">0.8</text>
<line x1="55.138888888888886" y1="57.76363636363638" x2="60.4" y2="57.76363636363638" stroke="#262626" stroke-width="1.1111111111111112" />
<text x="50.27777777777777" y="61.76363636363638" font-family="DejaVu Sans, sans-serif" font-size="13.88888888888889" text-anchor="end" fill="#262626">1</text>
<line x1="55.138888888888886" y1="399.1403919068234" x2="60.4" y2="399.1403919068234" stroke="#262626" stroke-width="1.1111111111111112" />
<line x1="55.138888888888886" y1="391.3818292808419" x2="60.4" y2="391.3818292808419" stroke="#262626" stroke-width="1.1111111111111112" />
<line x1="55.138888888888886" y1="383.62326665486034" x2="60.4" y2="383.62326665486034" stroke="#262626" stroke-width="1.1111111111111112" />
<line x1="55.138888888888886" y1="375.8647040288788" x2="60.4" y2="375.8647040288788" stroke="#262626" stroke-width="1.1111111111111112" />
<line x1="55.138888888888886" y1="360.3475787769158" x2="60.4" y2="360.3475787769158" stroke="#262626" stroke-width="1.1111111111111112" />
<line x1="55.138888888888886" y1="352.58901615093424" x2="60.4" y2="352.58901615093424" stroke="#262626" stroke-width="1.1111111111111112" />
<line x1="55.138888888888886" y1="344.8304535249527" x2="60.4" y2="344.8304535249527" stroke="#262626" stroke-width="1.1111111111111112" />
<line x1="55.138888888888886" y1="337.0718908989712" x2="60.4" y2="337.0718908989712" stroke="#262626" stroke-width="1.1111111111111112" />
<line x1="55.138888888888886" y1="321.55476564700814" x2="60.4" y2="321.55476564700814" stroke="#262626" stroke-width="1.1111111111111112" />
<line x1="55.138888888888886" y1="313.79620302102666" x2="60.4" y2="313.79620302102666" stroke="#262626" stroke-width="1.1111111111111112" />
<line x1="55.138888888888886" y1="306.0376403950451" x2="60.4" y2="306.0376403950451" stroke="#262626" stroke-width="1.1111111111111112" />
<line x1="55.138888888888886" y1="298.2790777690636" x2="60.4" y2="298.2790777690636" stroke="#262626" stroke-width="1.1111111111111112" />
<line x1="55.138888888888886" y1="282.76195251710055" x2="60.4" y2="282.76195251710055" stroke="#262626" stroke-width="1.1111111111111112" />
<line x1="55.138888888888886" y1="275.003389891119" x2="60.4" y2="275.003389891119" stroke="#262626" stroke-width="1.1111111111111112" />
<line x1="55.138888888888886" y1="267.2448272651375" x2="60.4" y2="267.2448272651375" stroke="#262626" stroke-width="1.1111111111111112" />
<line x1="55.138888888888886" y1="259.486264639156" x2="60.4" y2="259.486264639156" stroke="#262626" stroke-width="1.1111111111111112" />
<line x1="55.138888888888886" y1="243.96913938719294" x2="60.4" y2="243.96913938719294" stroke="#262626" stroke-width="1.1111111111111112" />
<line x1="55.138888888888886" y1="236.2105767612114" x2="60.4" y2="236.2105767612114" stroke="#262626" stroke-width="1.1111111111111112" />
<line x1="55.138888888888886" y1="228.4520141352299" x2="60.4" y2="228.4520141352299" stroke="#262626" stroke-width="1.1111111111111112" />
<line x1="55.138888888888886" y1="220.69345150924835" x2="60.4" y2="220.69345150924835" stroke="#262626" stroke-width="1.1111111111111112" />
<line x1="55.138888888888886" y1="205.17632625728533" x2="60.4" y2="205.17632625728533" stroke="#262626" stroke-width="1.1111111111111112" />
<line x1="55.138888888888886" y1="197.41776363130379" x2="60.4" y2="197.41776363130379" stroke="#262626" stroke-width="1.1111111111111112" />
<line x1="55.138888888888886" y1="189.65920100532227" x2="60.4" y2="189.65920100532227" stroke="#262626" stroke-width="1.1111111111111112" />
<line x1="55.138888888888886" y1="181.90063837934076" x2="60.4" y2="181.90063837934076" stroke="#262626" stroke-width="1.1111111111111112" />
<line x1="55.138888888888886" y1="166.38351312737768" x2="60.4" y2="166.38351312737768" stroke="#262626" stroke-width="1.1111111111111112" />
<line x1="55.138888888888886" y1="158.6249505013962" x2="60.4" y2="158.6249505013962" stroke="#262626" stroke-width="1.1111111111111112" />
<line x1="55.138888888888886" y1="150.86638787541466" x2="60.4" y2="150.86638787541466" stroke="#262626" stroke-width="1.1111111111111112" />
<line x1="55.138888888888886" y1="143.10782524943312" x2="60.4" y2="143.10782524943312" stroke="#262626" stroke-width="1.1111111111111112" />
<line x1="55.138888888888886" y1="127.59069999747008" x2="60.4" y2="127.59069999747008" stroke="#262626" stroke-width="1.1111111111111112" />
<line x1="55.138888888888886" y1="119.83213737148856" x2="60.4" y2="119.83213737148856" stroke="#262626" stroke-width="1.1111111111111112" />
<line x1="55.138888888888886" y1="112.07357474550705" x2="60.4" y2="112.07357474550705" stroke="#262626" stroke-width="1.1111111111111112" />
<line x1="55.138888888888886" y1="104.3150121195255" x2="60.4" y2="104.3150121195255" stroke="#262626" stroke-width="1.1111111111111112" />
<line x1="55.138888888888886" y1="88.79788686756248" x2="60.4" y2="88.79788686756248" stroke="#262626" stroke-width="1.1111111111111112" />
<line x1="55.138888888888886" y1="81.03932424158094" x2="60.4" y2="81.03932424158094" stroke="#262626" stroke-width="1.1111111111111112" />
<line x1="55.138888888888886" y1="73.28076161559943" x2="60.4" y2="73.28076161559943" stroke="#262626" stroke-width="1.1111111111111112" />
<line x1="55.138888888888886" y1="65.52219898961792" x2="60.4" y2="65.52219898961792" stroke="#262626" stroke-width="1.1111111111111112" />
<line x1="55.138888888888886" y1="50.00507373765484" x2="60.4" y2="50.00507373765484" stroke="#262626" stroke-width="1.1111111111111112" />
<line x1="55.138888888888886" y1="42.24651111167333" x2="60.4" y2="42.24651111167333" stroke="#262626" stroke-width="1.1111111111111112" />
<g class="series" aria-label="$\alpha$ decay">
<polyline points="80,57.76363636363638 84.04040404040404,66.32353285580808 88.08080808080808,81.78796361090892 92.12121212121212,103.20946722712738 96.16161616161617,129.4515330513729 100.2020202020202,159.2427044452307 104.24242424242424,191.23337270774184 108.28282828282828,224.0528875172098 112.32323232323232,256.3647130422912 116.36363636363636,286.91754680395667 120.4040404040404,314.5905793946017 124.44444444444444,338.4313934054165 128.48484848484847,357.6853638427402 132.5252525252525,371.8158134256416 136.56565656565655,380.5145776788798 140.6060606060606,383.7030303030303 144.64646464646464,381.5239935855011 148.68686868686868,374.32529786932935 152.72727272727272,362.6360466315952 156.76767676767676,347.13688026565023 160.8080808080808,328.62570560037443 164.84848484848484,307.9804657093179 168.88888888888889,286.12056465598783 172.92929292929293,263.96853619374934 176.96969696969694,242.41345830717708 181.01010101010098,222.27747328681215 185.05050505050502,204.2865840721952 189.09090909090907,189.04667162169628 193.1313131313131,177.02542580177956 197.17171717171715,168.54061497760785 201.2121212121212,163.75484842171343 205.25252525252523,162.67672172589363 209.29292929292927,165.1679886788361 213.33333333333331,170.9561824625565 217.37373737373736,179.65192196331787 221.4141414141414,190.76999123824115 225.45454545454544,203.75317564562042 229.49494949494948,217.9977788553374 233.53535353535352,232.87973104082175 237.57575757575756,247.78022835221165 241.6161616161616,262.10991397302206 245.65656565656562,275.33071692672644 249.69696969696966,286.9746004051715 253.7373737373737,296.65862993182463 257.77777777777777,304.0959457697792 261.8181818181818,309.1024060031088 265.85858585858585,311.5988490858986 269.8989898989899,311.60910014715574 273.9393939393939,309.25400736634 277.9797979797979,304.7419375514794 282.02020202020196,298.356278956454 286.060606060606,290.4405908364645 290.10101010101005,281.3821009872896 294.1414141414141,271.5942835554182 298.18181818181813,261.4992500141441 302.2222222222222,251.51065783546622 306.2626262626262,242.01778658240622 310.30303030303025,233.37135335499 314.3434343434343,225.87154293884984 318.38383838383834,219.75861735904067 322.4242424242424,215.20634988870296 326.4646464646464,212.3184050672613 330.50505050505046,211.12766401036524 334.5454545454545,211.5983780129459 338.58585858585855,213.63092745753644 342.6262626262626,217.06887102619805 346.66666666666663,221.7078951282413 350.70707070707067,227.30621743717143 354.7474747474747,233.5959627612932 358.78787878787875,240.2950145693537 362.8282828282828,247.1188509312769 366.86868686868684,253.79189820757693 370.9090909090909,260.0579776257592 374.9494949494949,265.6894764265926 378.98989898989896,270.49494359562215 383.030303030303,274.32488704220026 387.07070707070704,277.075630999534 391.1111111111111,278.69117591294565 395.1515151515151,279.16308478520085 399.19191919191917,278.5284967181913 403.2323232323232,276.8664374381538 407.2727272727272,274.2926555667304 411.31313131313124,270.95326046474366 415.3535353535353,267.0174713517676 419.3939393939393,262.66980739779024 423.43434343434336,258.1020544809871 427.4747474747474,253.50533675356462 431.51515151515144,249.0626010148682 435.5555555555555,244.9417905670112 439.5959595959595,241.28994450553984 443.63636363636357,238.2284103427079 447.6767676767676,235.84930472918765 451.71717171717165,234.21330117737222 455.7575757575757,233.3487674351548 459.79797979797974,233.25222075389948 463.8383838383838,233.89001879664505 467.8787878787878,235.20115914609116 471.91919191919186,237.10102278678733 475.9595959595959,239.4858676852791 479.99999999999994,242.23785842445542" fill="none" stroke="#1F77B4" stroke-width="1.5" />
</g>
<g class="spine">
<line x1="60" y1="400" x2="500" y2="400" stroke="#262626" stroke-width="0.8" />
</g>
<g class="spine">
<line x1="60" y1="41.46666666666667" x2="500" y2="41.46666666666667" stroke="#262626" stroke-width="0.8" />
</g>
<g class="spine">
<line x1="60" y1="41.46666666666667" x2="60" y2="400" stroke="#262626" stroke-width="0.8" />
</g>
<g class="spine">
<line x1="500" y1="41.46666666666667" x2="500" y2="400" stroke="#262626" stroke-width="0.8" />
</g>
<rect x="384.27777777777777" y="51.46666666666667" width="105.72222222222223" height="25.72222222222222" fill="#FFFFFF" fill-opacity="0.8" stroke="#CCCCCC" stroke-width="0.5" />
<g class="legend" aria-label="Chart legend">
<line x1="392.27777777777777" y1="64.32777777777778" x2="420.05555555555554" y2="64.32777777777778" stroke="#1F77B4" stroke-width="1.5" />
<text x="431.16666666666663" y="68.1888888888889" font-family="DejaVu Sans, sans-serif" font-size="13.88888888888889" text-anchor="start" fill="#262626">α decay</text>
</g>
<text x="280" y="33.46666666666667" font-family="DejaVu Sans, sans-serif" font-size="15.88888888888889" text-anchor="middle" font-weight="bold" fill="#262626">R<tspan baseline-shift="super" font-size="70%">2</tspan> = 0.97</text>
<text x="280" y="435" font-family="DejaVu Sans, sans-serif" font-size="13.88888888888889" text-anchor="middle" fill="#262626">Δ t (ms)</text>
<text x="12.166666666666671" y="220.73333333333332" font-family="DejaVu Sans, sans-serif" font-size="13.88888888888889" text-anchor="middle" transform="rotate(-90,12.166666666666671,220.73333333333332)" fill="#262626">σ (normalised)</text>
<rect x="540" y="41.46666666666667" width="440" height="358.5333333333333" fill="#FFFFFF" />
<line x1="560" y1="399.6" x2="560" y2="404.8611111111111" stroke="#262626" stroke-width="1.1111111111111112" />
<text x="560" y="423.6111111111111" font-family="DejaVu Sans, sans-serif" font-size="13.88888888888889" text-anchor="middle" fill="#262626">0</text>
<line x1="600.4040404040404" y1="399.6" x2="600.4040404040404" y2="404.8611111111111" stroke="#262626" stroke-width="1.1111111111111112" />
<text x="600.4040404040404" y="423.6111111111111" font-family="DejaVu Sans, sans-serif" font-size="13.88888888888889" text-anchor="middle" fill="#262626">5</text>
<line x1="640.8080808080808" y1="399.6" x2="640.8080808080808" y2="404.8611111111111" stroke="#262626" stroke-width="1.1111111111111112" />
<text x="640.8080808080808" y="423.6111111111111" font-family="DejaVu Sans, sans-serif" font-size="13.88888888888889" text-anchor="middle" fill="#262626">10</text>
<line x1="681.2121212121212" y1="399.6" x2="681.2121212121212" y2="404.8611111111111" stroke="#262626" stroke-width="1.1111111111111112" />
<text x="681.2121212121212" y="423.6111111111111" font-family="DejaVu Sans, sans-serif" font-size="13.88888888888889" text-anchor="middle" fill="#262626">15</text>
<line x1="721.6161616161617" y1="399.6" x2="721.6161616161617" y2="404.8611111111111" stroke="#262626" stroke-width="1.1111111111111112" />
<text x="721.6161616161617" y="423.6111111111111" font-family="DejaVu Sans, sans-serif" font-size="13.88888888888889" text-anchor="middle" fill="#262626">20</text>
<line x1="762.020202020202" y1="399.6" x2="762.020202020202" y2="404.8611111111111" stroke="#262626" stroke-width="1.1111111111111112" />
<text x="762.020202020202" y="423.6111111111111" font-family="DejaVu Sans, sans-serif" font-size="13.88888888888889" text-anchor="middle" fill="#262626">25</text>
<line x1="802.4242424242424" y1="399.6" x2="802.4242424242424" y2="404.8611111111111" stroke="#262626" stroke-width="1.1111111111111112" />
<text x="802.4242424242424" y="423.6111111111111" font-family="DejaVu Sans, sans-serif" font-size="13.88888888888889" text-anchor="middle" fill="#262626">30</text>
<line x1="842.8282828282828" y1="399.6" x2="842.8282828282828" y2="404.8611111111111" stroke="#262626" stroke-width="1.1111111111111112" />
<text x="842.8282828282828" y="423.6111111111111" font-family="DejaVu Sans, sans-serif" font-size="13.88888888888889" text-anchor="middle" fill="#262626">35</text>
<line x1="883.2323232323232" y1="399.6" x2="883.2323232323232" y2="404.8611111111111" stroke="#262626" stroke-width="1.1111111111111112" />
<text x="883.2323232323232" y="423.6111111111111" font-family="DejaVu Sans, sans-serif" font-size="13.88888888888889" text-anchor="middle" fill="#262626">40</text>
<line x1="923.6363636363635" y1="399.6" x2="923.6363636363635" y2="404.8611111111111" stroke="#262626" stroke-width="1.1111111111111112" />
<text x="923.6363636363635" y="423.6111111111111" font-family="DejaVu Sans, sans-serif" font-size="13.88888888888889" text-anchor="middle" fill="#262626">45</text>
<line x1="964.0404040404039" y1="399.6" x2="964.0404040404039" y2="404.8611111111111" stroke="#262626" stroke-width="1.1111111111111112" />
<text x="964.0404040404039" y="423.6111111111111" font-family="DejaVu Sans, sans-serif" font-size="13.88888888888889" text-anchor="middle" fill="#262626">50</text>
<line x1="543.8383838383838" y1="399.6" x2="543.8383838383838" y2="404.8611111111111" stroke="#262626" stroke-width="1.1111111111111112" />
<line x1="551.9191919191919" y1="399.6" x2="551.9191919191919" y2="404.8611111111111" stroke="#262626" stroke-width="1.1111111111111112" />
<line x1="568.0808080808081" y1="399.6" x2="568.0808080808081" y2="404.8611111111111" stroke="#262626" stroke-width="1.1111111111111112" />
<line x1="576.1616161616162" y1="399.6" x2="576.1616161616162" y2="404.8611111111111" stroke="#262626" stroke-width="1.1111111111111112" />
<line x1="584.2424242424242" y1="399.6" x2="584.2424242424242" y2="404.8611111111111" stroke="#262626" stroke-width="1.1111111111111112" />
<line x1="592.3232323232323" y1="399.6" x2="592.3232323232323" y2="404.8611111111111" stroke="#262626" stroke-width="1.1111111111111112" />
<line x1="608.4848484848485" y1="399.6" x2="608.4848484848485" y2="404.8611111111111" stroke="#262626" stroke-width="1.1111111111111112" />
<line x1="616.5656565656566" y1="399.6" x2="616.5656565656566" y2="404.8611111111111" stroke="#262626" stroke-width="1.1111111111111112" />
<line x1="624.6464646464647" y1="399.6" x2="624.6464646464647" y2="404.8611111111111" stroke="#262626" stroke-width="1.1111111111111112" />
<line x1="632.7272727272727" y1="399.6" x2="632.7272727272727" y2="404.8611111111111" stroke="#262626" stroke-width="1.1111111111111112" />
<line x1="648.8888888888889" y1="399.6" x2="648.8888888888889" y2="404.8611111111111" stroke="#262626" stroke-width="1.1111111111111112" />
<line x1="656.969696969697" y1="399.6" x2="656.969696969697" y2="404.8611111111111" stroke="#262626" stroke-width="1.1111111111111112" />
<line x1="665.0505050505051" y1="399.6" x2="665.0505050505051" y2="404.8611111111111" stroke="#262626" stroke-width="1.1111111111111112" />
<line x1="673.1313131313132" y1="399.6" x2="673.1313131313132" y2="404.8611111111111" stroke="#262626" stroke-width="1.1111111111111112" />
<line x1="689.2929292929293" y1="399.6" x2="689.2929292929293" y2="404.8611111111111" stroke="#262626" stroke-width="1.1111111111111112" />
<line x1="697.3737373737374" y1="399.6" x2="697.3737373737374" y2="404.8611111111111" stroke="#262626" stroke-width="1.1111111111111112" />
<line x1="705.4545454545455" y1="399.6" x2="705.4545454545455" y2="404.8611111111111" stroke="#262626" stroke-width="1.1111111111111112" />
<line x1="713.5353535353536" y1="399.6" x2="713.5353535353536" y2="404.8611111111111" stroke="#262626" stroke-width="1.1111111111111112" />
<line x1="729.6969696969696" y1="399.6" x2="729.6969696969696" y2="404.8611111111111" stroke="#262626" stroke-width="1.1111111111111112" />
<line x1="737.7777777777777" y1="399.6" x2="737.7777777777777" y2="404.8611111111111" stroke="#262626" stroke-width="1.1111111111111112" />
<line x1="745.8585858585858" y1="399.6" x2="745.8585858585858" y2="404.8611111111111" stroke="#262626" stroke-width="1.1111111111111112" />
<line x1="753.9393939393939" y1="399.6" x2="753.9393939393939" y2="404.8611111111111" stroke="#262626" stroke-width="1.1111111111111112" />
<line x1="770.10101010101" y1="399.6" x2="770.10101010101" y2="404.8611111111111" stroke="#262626" stroke-width="1.1111111111111112" />
<line x1="778.1818181818181" y1="399.6" x2="778.1818181818181" y2="404.8611111111111" stroke="#262626" stroke-width="1.1111111111111112" />
<line x1="786.2626262626262" y1="399.6" x2="786.2626262626262" y2="404.8611111111111" stroke="#262626" stroke-width="1.1111111111111112" />
<line x1="794.3434343434343" y1="399.6" x2="794.3434343434343" y2="404.8611111111111" stroke="#262626" stroke-width="1.1111111111111112" />
<line x1="810.5050505050505" y1="399.6" x2="810.5050505050505" y2="404.8611111111111" stroke="#262626" stroke-width="1.1111111111111112" />
<line x1="818.5858585858585" y1="399.6" x2="818.5858585858585" y2="404.8611111111111" stroke="#262626" stroke-width="1.1111111111111112" />
<line x1="826.6666666666666" y1="399.6" x2="826.6666666666666" y2="404.8611111111111" stroke="#262626" stroke-width="1.1111111111111112" />
<line x1="834.7474747474747" y1="399.6" x2="834.7474747474747" y2="404.8611111111111" stroke="#262626" stroke-width="1.1111111111111112" />
<line x1="850.9090909090909" y1="399.6" x2="850.9090909090909" y2="404.8611111111111" stroke="#262626" stroke-width="1.1111111111111112" />
<line x1="858.989898989899" y1="399.6" x2="858.989898989899" y2="404.8611111111111" stroke="#262626" stroke-width="1.1111111111111112" />
<line x1="867.070707070707" y1="399.6" x2="867.070707070707" y2="404.8611111111111" stroke="#262626" stroke-width="1.1111111111111112" />
<line x1="875.1515151515151" y1="399.6" x2="875.1515151515151" y2="404.8611111111111" stroke="#262626" stroke-width="1.1111111111111112" />
<line x1="891.3131313131312" y1="399.6" x2="891.3131313131312" y2="404.8611111111111" stroke="#262626" stroke-width="1.1111111111111112" />
<line x1="899.3939393939393" y1="399.6" x2="899.3939393939393" y2="404.8611111111111" stroke="#262626" stroke-width="1.1111111111111112" />
<line x1="907.4747474747473" y1="399.6" x2="907.4747474747473" y2="404.8611111111111" stroke="#262626" stroke-width="1.1111111111111112" />
<line x1="915.5555555555554" y1="399.6" x2="915.5555555555554" y2="404.8611111111111" stroke="#262626" stroke-width="1.1111111111111112" />
<line x1="931.7171717171716" y1="399.6" x2="931.7171717171716" y2="404.8611111111111" stroke="#262626" stroke-width="1.1111111111111112" />
<line x1="939.7979797979797" y1="399.6" x2="939.7979797979797" y2="404.8611111111111" stroke="#262626" stroke-width="1.1111111111111112" />
<line x1="947.8787878787878" y1="399.6" x2="947.8787878787878" y2="404.8611111111111" stroke="#262626" stroke-width="1.1111111111111112" />
<line x1="955.9595959595958" y1="399.6" x2="955.9595959595958" y2="404.8611111111111" stroke="#262626" stroke-width="1.1111111111111112" />
<line x1="972.121212121212" y1="399.6" x2="972.121212121212" y2="404.8611111111111" stroke="#262626" stroke-width="1.1111111111111112" />
<line x1="535.1388888888889" y1="383.9446880779867" x2="540.4" y2="383.9446880779867" stroke="#262626" stroke-width="1.1111111111111112" />
<text x="530.2777777777778" y="387.9446880779867" font-family="DejaVu Sans, sans-serif" font-size="13.88888888888889" text-anchor="end" fill="#262626">-0.3</text>
<line x1="535.1388888888889" y1="329.54348869067246" x2="540.4" y2="329.54348869067246" stroke="#262626" stroke-width="1.1111111111111112" />
<text x="530.2777777777778" y="333.54348869067246" font-family="DejaVu Sans, sans-serif" font-size="13.88888888888889" text-anchor="end" fill="#262626">-0.2</text>
<line x1="535.1388888888889" y1="275.1422893033582" x2="540.4" y2="275.1422893033582" stroke="#262626" stroke-width="1.1111111111111112" />
<text x="530.2777777777778" y="279.1422893033582" font-family="DejaVu Sans, sans-serif" font-size="13.88888888888889" text-anchor="end" fill="#262626">-0.1</text>
<line x1="535.1388888888889" y1="220.74108991604393" x2="540.4" y2="220.74108991604393" stroke="#262626" stroke-width="1.1111111111111112" />
<text x="530.2777777777778" y="224.74108991604393" font-family="DejaVu Sans, sans-serif" font-size="13.88888888888889" text-anchor="end" fill="#262626">0</text>
<line x1="535.1388888888889" y1="166.33989052872965" x2="540.4" y2="166.33989052872965" stroke="#262626" stroke-width="1.1111111111111112" />
<text x="530.2777777777778" y="170.33989052872965" font-family="DejaVu Sans, sans-serif" font-size="13.88888888888889" text-anchor="end" fill="#262626">0.1</text>
<line x1="535.1388888888889" y1="111.93869114141538" x2="540.4" y2="111.93869114141538" stroke="#262626" stroke-width="1.1111111111111112" />
<text x="530.2777777777778" y="115.93869114141538" font-family="DejaVu Sans, sans-serif" font-size="13.88888888888889" text-anchor="end" fill="#262626">0.2</text>
<line x1="535.1388888888889" y1="57.537491754101126" x2="540.4" y2="57.537491754101126" stroke="#262626" stroke-width="1.1111111111111112" />
<text x="530.2777777777778" y="61.537491754101126" font-family="DejaVu Sans, sans-serif" font-size="13.88888888888889" text-anchor="end" fill="#262626">0.3</text>
<line x1="535.1388888888889" y1="394.8249279554496" x2="540.4" y2="394.8249279554496" stroke="#262626" stroke-width="1.1111111111111112" />
<line x1="535.1388888888889" y1="373.0644482005239" x2="540.4" y2="373.0644482005239" stroke="#262626" stroke-width="1.1111111111111112" />
<line x1="535.1388888888889" y1="362.18420832306106" x2="540.4" y2="362.18420832306106" stroke="#262626" stroke-width="1.1111111111111112" />
<line x1="535.1388888888889" y1="351.3039684455982" x2="540.4" y2="351.3039684455982" stroke="#262626" stroke-width="1.1111111111111112" />
<line x1="535.1388888888889" y1="340.42372856813535" x2="540.4" y2="340.42372856813535" stroke="#262626" stroke-width="1.1111111111111112" />
<line x1="535.1388888888889" y1="318.66324881320963" x2="540.4" y2="318.66324881320963" stroke="#262626" stroke-width="1.1111111111111112" />
<line x1="535.1388888888889" y1="307.78300893574675" x2="540.4" y2="307.78300893574675" stroke="#262626" stroke-width="1.1111111111111112" />
<line x1="535.1388888888889" y1="296.9027690582839" x2="540.4" y2="296.9027690582839" stroke="#262626" stroke-width="1.1111111111111112" />
<line x1="535.1388888888889" y1="286.02252918082104" x2="540.4" y2="286.02252918082104" stroke="#262626" stroke-width="1.1111111111111112" />
<line x1="535.1388888888889" y1="264.2620494258953" x2="540.4" y2="264.2620494258953" stroke="#262626" stroke-width="1.1111111111111112" />
<line x1="535.1388888888889" y1="253.3818095484325" x2="540.4" y2="253.3818095484325" stroke="#262626" stroke-width="1.1111111111111112" />
<line x1="535.1388888888889" y1="242.50156967096964" x2="540.4" y2="242.50156967096964" stroke="#262626" stroke-width="1.1111111111111112" />
<line x1="535.1388888888889" y1="231.6213297935068" x2="540.4" y2="231.6213297935068" stroke="#262626" stroke-width="1.1111111111111112" />
<line x1="535.1388888888889" y1="209.86085003858108" x2="540.4" y2="209.86085003858108" stroke="#262626" stroke-width="1.1111111111111112" />
<line x1="535.1388888888889" y1="198.98061016111822" x2="540.4" y2="198.98061016111822" stroke="#262626" stroke-width="1.1111111111111112" />
<line x1="535.1388888888889" y1="188.10037028365537" x2="540.4" y2="188.10037028365537" stroke="#262626" stroke-width="1.1111111111111112" />
<line x1="535.1388888888889" y1="177.2201304061925" x2="540.4" y2="177.2201304061925" stroke="#262626" stroke-width="1.1111111111111112" />
<line x1="535.1388888888889" y1="155.45965065126683" x2="540.4" y2="155.45965065126683" stroke="#262626" stroke-width="1.1111111111111112" />
<line x1="535.1388888888889" y1="144.57941077380394" x2="540.4" y2="144.57941077380394" stroke="#262626" stroke-width="1.1111111111111112" />
<line x1="535.1388888888889" y1="133.69917089634112" x2="540.4" y2="133.69917089634112" stroke="#262626" stroke-width="1.1111111111111112" />
<line x1="535.1388888888889" y1="122.81893101887825" x2="540.4" y2="122.81893101887825" stroke="#262626" stroke-width="1.1111111111111112" />
<line x1="535.1388888888889" y1="101.05845126395253" x2="540.4" y2="101.05845126395253" stroke="#262626" stroke-width="1.1111111111111112" />
<line x1="535.1388888888889" y1="90.17821138648969" x2="540.4" y2="90.17821138648969" stroke="#262626" stroke-width="1.1111111111111112" />
<line x1="535.1388888888889" y1="79.29797150902681" x2="540.4" y2="79.29797150902681" stroke="#262626" stroke-width="1.1111111111111112" />
<line x1="535.1388888888889" y1="68.41773163156395" x2="540.4" y2="68.41773163156395" stroke="#262626" stroke-width="1.1111111111111112" />
<line x1="535.1388888888889" y1="46.65725187663827" x2="540.4" y2="46.65725187663827" stroke="#262626" stroke-width="1.1111111111111112" />
<g class="series" aria-label="$\beta$ noise">
<polyline points="560,220.74108991604393 564.040404040404,121.97249094122886 568.0808080808081,63.484927017565575 572.1212121212121,69.13152187991955 576.1616161616162,136.60941117736343 580.2020202020202,238.39892517497307 584.2424242424242,332.98700178888805 588.2828282828283,381.7975584477873 592.3232323232323,364.92406854249333 596.3636363636364,289.24808800642285 600.4040404040404,185.63273382355817 604.4444444444445,96.33570486782698 608.4848484848485,57.77522303024483 612.5252525252525,85.67750227568746 616.5656565656566,168.66308901304623 620.6060606060606,272.8877719970015 624.6464646464647,355.8453483245189 628.6868686868687,383.7030303030303 632.7272727272727,345.0995525519627 636.7676767676768,255.77866416290385 640.8080808080808,152.1683176768946 644.8484848484849,76.52416966682158 648.8888888888889,59.69635478109895 652.929292929293,108.54780120015918 656.969696969697,203.15530614568405 661.010101010101,304.9348635431876 665.0505050505051,372.37747193295587 669.0909090909091,377.977850277418 673.1313131313132,319.45198281919284 677.1717171717172,220.6686147156851 681.2121212121212,121.91480434729097 685.2525252525253,63.46555549226923 689.2929292929293,69.15836575897437 693.3333333333333,136.67152265707108 697.3737373737373,238.470973181317 701.4141414141413,333.0396028103162 705.4545454545454,381.8092600833359 709.4949494949494,364.89009848601853 713.5353535353535,289.1823003476838 717.5757575757575,185.56195890149914 721.6161616161615,96.28880698897709 725.6565656565656,57.771328669226115 729.6969696969696,85.71819967911199 733.7373737373737,168.7317804610835 737.7777777777777,272.9564428913399 741.8181818181818,355.8859924493106 745.8585858585858,383.69907166719787 749.8989898989898,345.05260561546993 753.9393939393939,255.70787540766887 757.9797979797979,152.102557051064 762.020202020202,76.490256484444 766.060606060606,59.70811993683318 770.10101010101,108.60044648227213 774.1414141414141,203.2273611022697 778.1818181818181,304.9969418281608 782.2222222222222,372.4042560101878 786.2626262626262,377.9584167323321 790.3030303030303,319.39425728117754 794.3434343434343,220.5961395296188 798.3838383838383,121.85713724245741 802.4242424242424,63.44621498260122 806.4646464646464,69.18523953100272 810.5050505050505,136.73365071577538 814.5454545454545,238.5430176912273 818.5858585858585,333.09218168584033 822.6262626262626,381.8209299553269 826.6666666666666,364.8561000025412 830.7070707070707,289.11649919194866 834.7474747474747,185.49119091696443 838.7878787878788,96.24193365282365 842.8282828282828,57.767466446769454 846.8686868686868,85.75892370981677 850.9090909090909,168.80048216565265 854.9494949494949,273.02510348851433 858.989898989899,355.9266099227605 863.030303030303,383.6950808951264 867.070707070707,345.00563416404077 871.1111111111111,255.63707975678562 875.1515151515151,152.0368099611417 879.1919191919192,76.45637174914948 883.2323232323232,59.71991684918332 887.2727272727273,108.65311387915547 891.3131313131313,203.2994195126621 895.3535353535353,305.05900349740176 899.3939393939394,372.4310101785827 903.4343434343434,377.9389521830969 907.4747474747475,319.336512288199 911.5151515151515,220.52366437213755 915.5555555555555,121.79948963810061 919.5959595959596,63.426905492375276 923.6363636363636,69.21214319070528 927.6767676767677,136.79579534122212 931.7171717171717,238.61505869049637 935.7575757575758,333.1447384050914 939.7979797979798,381.8325680614592 943.8383838383838,364.82207309876554 947.8787878787878,289.05068455219515 951.9191919191918,185.42042988390992 955.9595959595958,96.19508486861055 959.9999999999999,57.763636363636365" fill="none" stroke="#FFA500" stroke-width="1.5" />
</g>
<g class="spine">
<line x1="540" y1="400" x2="980" y2="400" stroke="#262626" stroke-width="0.8" />
</g>
<g class="spine">
<line x1="540" y1="41.46666666666667" x2="980" y2="41.46666666666667" stroke="#262626" stroke-width="0.8" />
</g>
<g class="spine">
<line x1="540" y1="41.46666666666667" x2="540" y2="400" stroke="#262626" stroke-width="0.8" />
</g>
<g class="spine">
<line x1="980" y1="41.46666666666667" x2="980" y2="400" stroke="#262626" stroke-width="0.8" />
</g>
<rect x="867.8888888888889" y="51.46666666666667" width="102.11111111111111" height="25.72222222222222" fill="#FFFFFF" fill-opacity="0.8" stroke="#CCCCCC" stroke-width="0.5" />
<g class="legend" aria-label="Chart legend">
<line x1="875.8888888888889" y1="64.32777777777778" x2="903.6666666666667" y2="64.32777777777778" stroke="#FFA500" stroke-width="1.5" />
<text x="914.7777777777778" y="68.1888888888889" font-family="DejaVu Sans, sans-serif" font-size="13.88888888888889" text-anchor="start" fill="#262626">β noise</text>
</g>
<text x="760" y="33.46666666666667" font-family="DejaVu Sans, sans-serif" font-size="15.88888888888889" text-anchor="middle" font-weight="bold" fill="#262626">Noise — μ ± 2σ</text>
<text x="760" y="435" font-family="DejaVu Sans, sans-serif" font-size="13.88888888888889" text-anchor="middle" fill="#262626">Δ t (ms)</text>
<text x="492.1666666666667" y="220.73333333333332" font-family="DejaVu Sans, sans-serif" font-size="13.88888888888889" text-anchor="middle" transform="rotate(-90,492.1666666666667,220.73333333333332)" fill="#262626">Amplitude (× 10<tspan baseline-shift="super" font-size="70%">-3</tspan>)</text>
</svg>
