<svg xmlns="http://www.w3.org/2000/svg" viewBox="0 0 1600 900" width="1600" height="900" style="width:100%;height:auto" role="img" aria-labelledby="chart-title">
<title id="chart-title">Crypto Lead-Lag Network  ·  Transfer Entropy  ·  MatPlotLibNet v1.10.0</title>
<rect x="0" y="0" width="1600" height="900" fill="#FFFFFF" />
<path d="M8.73047 -0.373535Q7.58057 0.183105 5.72754 0.183105Q3.31055 0.183105 1.92627 -1.23779Q0.541992 -2.65869 0.541992 -5.02441Q0.541992 -7.54395 2.09839 -9.11133Q3.65479 -10.6787 6.1377 -10.6787Q7.67578 -10.6787 8.73047 -10.2905L8.73047 -8.0127Q7.67578 -8.64258 6.32813 -8.64258Q4.84863 -8.64258 3.94043 -7.7124Q3.03223 -6.78223 3.03223 -5.19287Q3.03223 -3.66943 3.88916 -2.76489Q4.74609 -1.86035 6.19629 -1.86035Q7.58057 -1.86035 8.73047 -2.53418L8.73047 -0.373535ZM15.2271 -5.4126Q14.8096 -5.63965 14.2529 -5.63965Q13.4985 -5.63965 13.0737 -5.08667Q12.6489 -4.53369 12.6489 -3.58154L12.6489 0L10.3345 0L10.3345 -7.5L12.6489 -7.5L12.6489 -6.1084L12.6782 -6.1084Q13.2275 -7.63184 14.6558 -7.63184Q15.022 -7.63184 15.2271 -7.54395L15.2271 -5.4126ZM23.4448 -7.5L20.3979 0.600586Q19.2993 3.52295 17.0874 3.52295Q16.2451 3.52295 15.7031 3.33252L15.7031 1.48682Q16.1646 1.75781 16.7065 1.75781Q17.6001 1.75781 17.9517 0.915527L18.3472 -0.0146484L15.3003 -7.5L17.8638 -7.5L19.2627 -2.93701Q19.3945 -2.51221 19.4678 -1.93359L19.4971 -1.93359Q19.563 -2.3584 19.7388 -2.92236L21.1523 -7.5L23.4448 -7.5ZM26.7188 -0.871582L26.6895 -0.871582L26.6895 3.44971L24.375 3.44971L24.375 -7.5L26.6895 -7.5L26.6895 -6.37207L26.7188 -6.37207Q27.5757 -7.68311 29.1284 -7.68311Q30.5859 -7.68311 31.3806 -6.68335Q32.1753 -5.68359 32.1753 -3.9624Q32.1753 -2.0874 31.2488 -0.952148Q30.3223 0.183105 28.7842 0.183105Q27.4292 0.183105 26.7188 -0.871582ZM26.6528 -3.94775L26.6528 -3.34717Q26.6528 -2.5708 27.063 -2.08008Q27.4731 -1.58936 28.1396 -1.58936Q28.9307 -1.58936 29.3665 -2.20093Q29.8022 -2.8125 29.8022 -3.93311Q29.8022 -5.91064 28.2642 -5.91064Q27.5537 -5.91064 27.1033 -5.37231Q26.6528 -4.83398 26.6528 -3.94775ZM38.2104 -0.0878906Q37.6978 0.183105 36.665 0.183105Q34.2188 0.183105 34.2188 -2.3584L34.2188 -5.79346L33.0029 -5.79346L33.0029 -7.5L34.2188 -7.5L34.2188 -9.11865L36.5259 -9.77783L36.5259 -7.5L38.2104 -7.5L38.2104 -5.79346L36.5259 -5.79346L36.5259 -2.76123Q36.5259 -1.58936 37.4561 -1.58936Q37.8223 -1.58936 38.2104 -1.80176L38.2104 -0.0878906ZM43.0884 0.183105Q41.2134 0.183105 40.1404 -0.86792Q39.0674 -1.91895 39.0674 -3.7207Q39.0674 -5.58105 40.1807 -6.63208Q41.2939 -7.68311 43.1909 -7.68311Q45.0586 -7.68311 46.1206 -6.63208Q47.1826 -5.58105 47.1826 -3.85254Q47.1826 -1.98486 46.0876 -0.900879Q44.9927 0.183105 43.0884 0.183105ZM43.147 -5.91064Q42.3267 -5.91064 41.8726 -5.34668Q41.4185 -4.78271 41.4185 -3.75Q41.4185 -1.58936 43.1616 -1.58936Q44.8242 -1.58936 44.8242 -3.80859Q44.8242 -5.91064 43.147 -5.91064ZM59.3042 0L53.0493 0L53.0493 -10.5029L55.415 -10.5029L55.415 -1.91895L59.3042 -1.91895L59.3042 0ZM67.229 -3.09082L62.3364 -3.09082Q62.4536 -1.45752 64.3945 -1.45752Q65.6323 -1.45752 66.5698 -2.04346L66.5698 -0.373535Q65.5298 0.183105 63.8672 0.183105Q62.0508 0.183105 61.0474 -0.823975Q60.0439 -1.83105 60.0439 -3.63281Q60.0439 -5.50049 61.1279 -6.5918Q62.2119 -7.68311 63.7939 -7.68311Q65.4346 -7.68311 66.3318 -6.70898Q67.229 -5.73486 67.229 -4.06494L67.229 -3.09082ZM65.083 -4.51172Q65.083 -6.12305 63.7793 -6.12305Q63.2227 -6.12305 62.8162 -5.66162Q62.4097 -5.2002 62.3218 -4.51172L65.083 -4.51172ZM74.8462 0L72.6563 0L72.6563 -1.07666L72.627 -1.07666Q71.8726 0.183105 70.3931 0.183105Q69.3018 0.183105 68.6755 -0.435791Q68.0493 -1.05469 68.0493 -2.0874Q68.0493 -4.27002 70.6348 -4.60693L72.6709 -4.87793Q72.6709 -6.1084 71.3379 -6.1084Q69.9976 -6.1084 68.7891 -5.31006L68.7891 -7.05322Q69.2725 -7.30225 70.1111 -7.49268Q70.9497 -7.6831 71.6382 -7.68311Q74.8462 -7.68311 74.8462 -4.48242L74.8462 0ZM72.6709 -3.04688L72.6709 -3.55225L71.3086 -3.37646Q70.1807 -3.22998 70.1807 -2.3584Q70.1807 -1.96289 70.4553 -1.71021Q70.73 -1.45752 71.1987 -1.45752Q71.8506 -1.45752 72.2607 -1.90796Q72.6709 -2.3584 72.6709 -3.04688ZM84.0161 0L81.7017 0L81.7017 -1.03271L81.6724 -1.03271Q80.8813 0.183105 79.3506 0.183105Q77.9443 0.183105 77.0874 -0.809326Q76.2305 -1.80176 76.2305 -3.58154Q76.2305 -5.44189 77.1753 -6.5625Q78.1201 -7.68311 79.6509 -7.68311Q81.1011 -7.68311 81.6724 -6.64307L81.7017 -6.64307L81.7017 -11.1035L84.0161 -11.1035L84.0161 0ZM81.7456 -3.64746L81.7456 -4.21143Q81.7456 -4.94385 81.3208 -5.42725Q80.896 -5.91064 80.2148 -5.91064Q79.4458 -5.91064 79.0137 -5.3064Q78.5815 -4.70215 78.5815 -3.64746Q78.5815 -2.65869 78.999 -2.12402Q79.4165 -1.58936 80.1563 -1.58936Q80.8594 -1.58936 81.3025 -2.15332Q81.7456 -2.71728 81.7456 -3.64746ZM90.0439 -3.19336L86.0376 -3.19336L86.0376 -4.81201L90.0439 -4.81201L90.0439 -3.19336ZM98.5107 0L92.2559 0L92.2559 -10.5029L94.6216 -10.5029L94.6216 -1.91895L98.5107 -1.91895L98.5107 0ZM105.938 0L103.748 0L103.748 -1.07666L103.718 -1.07666Q102.964 0.183105 101.484 0.183105Q100.393 0.183105 99.7668 -0.435791Q99.1406 -1.05469 99.1406 -2.0874Q99.1406 -4.27002 101.726 -4.60693L103.762 -4.87793Q103.762 -6.1084 102.429 -6.1084Q101.089 -6.1084 99.8804 -5.31006L99.8804 -7.05322Q100.364 -7.30225 101.202 -7.49268Q102.041 -7.6831 102.729 -7.68311Q105.938 -7.68311 105.938 -4.48242L105.938 0ZM103.762 -3.04688L103.762 -3.55225L102.4 -3.37646Q101.272 -3.22998 101.272 -2.3584Q101.272 -1.96289 101.547 -1.71021Q101.821 -1.45752 102.29 -1.45752Q102.942 -1.45752 103.352 -1.90796Q103.762 -2.3584 103.762 -3.04688ZM115.122 -0.856934Q115.122 1.23047 113.914 2.37671Q112.705 3.52295 110.413 3.52295Q108.896 3.52295 108.01 3.09082L108.01 1.14258Q109.167 1.81641 110.347 1.81641Q111.519 1.81641 112.163 1.19751Q112.808 0.578613 112.808 -0.483398L112.808 -1.07666L112.778 -1.07666Q111.987 0.183105 110.442 0.183105Q109.006 0.183105 108.164 -0.827637Q107.322 -1.83838 107.322 -3.5376Q107.322 -5.44189 108.259 -6.5625Q109.197 -7.68311 110.728 -7.68311Q112.097 -7.68311 112.778 -6.62842L112.808 -6.62842L112.808 -7.5L115.122 -7.5L115.122 -0.856934ZM112.837 -3.60352L112.837 -4.19678Q112.837 -4.90723 112.416 -5.40894Q111.995 -5.91064 111.321 -5.91064Q110.552 -5.91064 110.112 -5.31006Q109.673 -4.70947 109.673 -3.61816Q109.673 -2.68066 110.09 -2.13501Q110.508 -1.58936 111.233 -1.58936Q111.951 -1.58936 112.394 -2.14233Q112.837 -2.69531 112.837 -3.60352ZM130.869 0L128.481 0L124.153 -6.59912Q123.772 -7.17773 123.625 -7.4707L123.596 -7.4707Q123.655 -6.91406 123.655 -5.77148L123.655 0L121.421 0L121.421 -10.5029L123.97 -10.5029L128.137 -4.10889Q128.423 -3.67676 128.665 -3.25195L128.694 -3.25195Q128.635 -3.61816 128.635 -4.69482L128.635 -10.5029L130.869 -10.5029L130.869 0ZM139.783 -3.09082L134.89 -3.09082Q135.007 -1.45752 136.948 -1.45752Q138.186 -1.45752 139.124 -2.04346L139.124 -0.373535Q138.083 0.183105 136.421 0.183105Q134.604 0.183105 133.601 -0.823975Q132.598 -1.83105 132.598 -3.63281Q132.598 -5.50049 133.682 -6.5918Q134.766 -7.68311 136.348 -7.68311Q137.988 -7.68311 138.885 -6.70898Q139.783 -5.73486 139.783 -4.06494L139.783 -3.09082ZM137.637 -4.51172Q137.637 -6.12305 136.333 -6.12305Q135.776 -6.12305 135.37 -5.66162Q134.963 -5.2002 134.875 -4.51172L137.637 -4.51172ZM145.693 -0.0878906Q145.181 0.183105 144.148 0.183105Q141.702 0.183105 141.702 -2.3584L141.702 -5.79346L140.486 -5.79346L140.486 -7.5L141.702 -7.5L141.702 -9.11865L144.009 -9.77783L144.009 -7.5L145.693 -7.5L145.693 -5.79346L144.009 -5.79346L144.009 -2.76123Q144.009 -1.58936 144.939 -1.58936Q145.305 -1.58936 145.693 -1.80176L145.693 -0.0878906ZM157.859 -7.5L155.698 0L153.267 0L152.161 -4.39453Q152.051 -4.83398 152.036 -5.354L151.992 -5.354Q151.941 -4.78271 151.846 -4.42383L150.659 0L148.257 0L146.14 -7.5L148.499 -7.5L149.531 -2.60742Q149.604 -2.26318 149.641 -1.77246L149.685 -1.77246Q149.722 -2.28516 149.817 -2.63672L151.106 -7.5L153.311 -7.5L154.468 -2.60742Q154.512 -2.42432 154.57 -1.75781L154.622 -1.75781Q154.658 -2.18262 154.739 -2.60742L155.713 -7.5L157.859 -7.5ZM162.532 0.183105Q160.657 0.183105 159.584 -0.86792Q158.511 -1.91895 158.511 -3.7207Q158.511 -5.58105 159.624 -6.63208Q160.737 -7.68311 162.634 -7.68311Q164.502 -7.68311 165.564 -6.63208Q166.626 -5.58105 166.626 -3.85254Q166.626 -1.98486 165.531 -0.900879Q164.436 0.183105 162.532 0.183105ZM162.59 -5.91064Q161.77 -5.91064 161.316 -5.34668Q160.862 -4.78271 160.862 -3.75Q160.862 -1.58936 162.605 -1.58936Q164.268 -1.58936 164.268 -3.80859Q164.268 -5.91064 162.59 -5.91064ZM173.02 -5.4126Q172.603 -5.63965 172.046 -5.63965Q171.292 -5.63965 170.867 -5.08667Q170.442 -4.53369 170.442 -3.58154L170.442 0L168.127 0L168.127 -7.5L170.442 -7.5L170.442 -6.1084L170.471 -6.1084Q171.021 -7.63184 172.449 -7.63184Q172.815 -7.63184 173.02 -7.54395L173.02 -5.4126ZM181.611 0L178.835 0L176.44 -3.7207L176.411 -3.7207L176.411 0L174.097 0L174.097 -11.1035L176.411 -11.1035L176.411 -4.03564L176.44 -4.03564L178.674 -7.5L181.421 -7.5L178.733 -3.97705L181.611 0ZM191.792 -3.56689Q191.221 -3.56689 190.84 -3.91846Q190.459 -4.27002 190.459 -4.78271Q190.459 -5.31006 190.851 -5.64697Q191.243 -5.98389 191.829 -5.98389Q192.422 -5.98389 192.799 -5.64331Q193.176 -5.30273 193.176 -4.78271Q193.176 -4.24805 192.792 -3.90747Q192.407 -3.56689 191.792 -3.56689ZM210.703 -8.57666L207.708 -8.57666L207.708 0L205.334 0L205.334 -8.57666L202.354 -8.57666L202.354 -10.5029L210.703 -10.5029L210.703 -8.57666ZM216.782 -5.4126Q216.365 -5.63965 215.808 -5.63965Q215.054 -5.63965 214.629 -5.08667Q214.204 -4.53369 214.204 -3.58154L214.204 0L211.89 0L211.89 -7.5L214.204 -7.5L214.204 -6.1084L214.233 -6.1084Q214.783 -7.63184 216.211 -7.63184Q216.577 -7.63184 216.782 -7.54395L216.782 -5.4126ZM224.099 0L221.909 0L221.909 -1.07666L221.88 -1.07666Q221.125 0.183105 219.646 0.183105Q218.555 0.183105 217.928 -0.435791Q217.302 -1.05469 217.302 -2.0874Q217.302 -4.27002 219.888 -4.60693L221.924 -4.87793Q221.924 -6.1084 220.591 -6.1084Q219.25 -6.1084 218.042 -5.31006L218.042 -7.05322Q218.525 -7.30225 219.364 -7.49268Q220.203 -7.6831 220.891 -7.68311Q224.099 -7.68311 224.099 -4.48242L224.099 0ZM221.924 -3.04688L221.924 -3.55225L220.562 -3.37646Q219.434 -3.22998 219.434 -2.3584Q219.434 -1.96289 219.708 -1.71021Q219.983 -1.45752 220.452 -1.45752Q221.104 -1.45752 221.514 -1.90796Q221.924 -2.3584 221.924 -3.04688ZM233.174 0L230.867 0L230.867 -4.16748Q230.867 -5.91064 229.622 -5.91064Q229.021 -5.91064 228.633 -5.44922Q228.245 -4.98779 228.245 -4.27734L228.245 0L225.93 0L225.93 -7.5L228.245 -7.5L228.245 -6.31348L228.274 -6.31348Q229.102 -7.68311 230.684 -7.68311Q233.174 -7.68311 233.174 -4.59229L233.174 0ZM234.514 -0.197754L234.514 -2.07275Q235.085 -1.72852 235.653 -1.56006Q236.221 -1.3916 236.726 -1.3916Q237.341 -1.3916 237.697 -1.56006Q238.052 -1.72852 238.052 -2.07275Q238.052 -2.29248 237.891 -2.43896Q237.729 -2.58545 237.477 -2.69531Q237.224 -2.80518 236.924 -2.89307Q236.624 -2.98096 236.345 -3.09082Q235.898 -3.25928 235.558 -3.45337Q235.217 -3.64746 234.987 -3.90381Q234.756 -4.16016 234.635 -4.49707Q234.514 -4.83398 234.514 -5.29541Q234.514 -5.92529 234.789 -6.37939Q235.063 -6.8335 235.521 -7.1228Q235.979 -7.41211 236.569 -7.54761Q237.158 -7.6831 237.795 -7.68311Q238.293 -7.68311 238.806 -7.6062Q239.319 -7.5293 239.817 -7.38281L239.817 -5.5957Q239.377 -5.85205 238.876 -5.98022Q238.374 -6.1084 237.891 -6.1084Q237.664 -6.1084 237.462 -6.06812Q237.261 -6.02783 237.107 -5.95093Q236.953 -5.87402 236.865 -5.75317Q236.777 -5.63232 236.777 -5.47852Q236.777 -5.27344 236.909 -5.12695Q237.041 -4.98047 237.253 -4.87427Q237.466 -4.76807 237.726 -4.68384Q237.986 -4.59961 238.242 -4.51172Q238.704 -4.35059 239.077 -4.16016Q239.451 -3.96973 239.718 -3.71338Q239.985 -3.45703 240.128 -3.11279Q240.271 -2.76855 240.271 -2.29248Q240.271 -1.62598 239.982 -1.15356Q239.692 -0.681152 239.213 -0.384521Q238.733 -0.0878906 238.107 0.0476074Q237.48 0.183105 236.807 0.183105Q235.569 0.183105 234.514 -0.197754ZM246.497 -9.33105Q246.05 -9.50684 245.64 -9.50684Q244.526 -9.50684 244.526 -8.29834L244.526 -7.5L246.24 -7.5L246.24 -5.79346L244.526 -5.79346L244.526 0L242.219 0L242.219 -5.79346L240.959 -5.79346L240.959 -7.5L242.219 -7.5L242.219 -8.43018Q242.219 -9.71191 243.054 -10.4956Q243.889 -11.2793 245.325 -11.2793Q246.028 -11.2793 246.497 -11.1328L246.497 -9.33105ZM254.092 -3.09082L249.199 -3.09082Q249.316 -1.45752 251.257 -1.45752Q252.495 -1.45752 253.433 -2.04346L253.433 -0.373535Q252.393 0.183105 250.73 0.183105Q248.914 0.183105 247.91 -0.823975Q246.907 -1.83105 246.907 -3.63281Q246.907 -5.50049 247.991 -6.5918Q249.075 -7.68311 250.657 -7.68311Q252.297 -7.68311 253.195 -6.70898Q254.092 -5.73486 254.092 -4.06494L254.092 -3.09082ZM251.946 -4.51172Q251.946 -6.12305 250.642 -6.12305Q250.085 -6.12305 249.679 -5.66162Q249.272 -5.2002 249.185 -4.51172L251.946 -4.51172ZM260.361 -5.4126Q259.944 -5.63965 259.387 -5.63965Q258.633 -5.63965 258.208 -5.08667Q257.783 -4.53369 257.783 -3.58154L257.783 0L255.469 0L255.469 -7.5L257.783 -7.5L257.783 -6.1084L257.813 -6.1084Q258.362 -7.63184 259.79 -7.63184Q260.156 -7.63184 260.361 -7.54395L260.361 -5.4126ZM272.102 0L265.803 0L265.803 -10.5029L271.86 -10.5029L271.86 -8.57666L268.169 -8.57666L268.169 -6.24023L271.604 -6.24023L271.604 -4.32129L268.169 -4.32129L268.169 -1.91895L272.102 -1.91895L272.102 0ZM280.803 0L278.496 0L278.496 -4.16748Q278.496 -5.91064 277.251 -5.91064Q276.65 -5.91064 276.262 -5.44922Q275.874 -4.98779 275.874 -4.27734L275.874 0L273.56 0L273.56 -7.5L275.874 -7.5L275.874 -6.31348L275.903 -6.31348Q276.731 -7.68311 278.313 -7.68311Q280.803 -7.68311 280.803 -4.59229L280.803 0ZM287.168 -0.0878906Q286.655 0.183105 285.623 0.183105Q283.176 0.183105 283.176 -2.3584L283.176 -5.79346L281.96 -5.79346L281.96 -7.5L283.176 -7.5L283.176 -9.11865L285.483 -9.77783L285.483 -7.5L287.168 -7.5L287.168 -5.79346L285.483 -5.79346L285.483 -2.76123Q285.483 -1.58936 286.414 -1.58936Q286.78 -1.58936 287.168 -1.80176L287.168 -0.0878906ZM293.364 -5.4126Q292.947 -5.63965 292.39 -5.63965Q291.636 -5.63965 291.211 -5.08667Q290.786 -4.53369 290.786 -3.58154L290.786 0L288.472 0L288.472 -7.5L290.786 -7.5L290.786 -6.1084L290.815 -6.1084Q291.365 -7.63184 292.793 -7.63184Q293.159 -7.63184 293.364 -7.54395L293.364 -5.4126ZM298.015 0.183105Q296.14 0.183105 295.067 -0.86792Q293.994 -1.91895 293.994 -3.7207Q293.994 -5.58105 295.107 -6.63208Q296.221 -7.68311 298.118 -7.68311Q299.985 -7.68311 301.047 -6.63208Q302.109 -5.58105 302.109 -3.85254Q302.109 -1.98486 301.014 -0.900879Q299.919 0.183105 298.015 0.183105ZM298.074 -5.91064Q297.253 -5.91064 296.799 -5.34668Q296.345 -4.78271 296.345 -3.75Q296.345 -1.58936 298.088 -1.58936Q299.751 -1.58936 299.751 -3.80859Q299.751 -5.91064 298.074 -5.91064ZM305.955 -0.871582L305.925 -0.871582L305.925 3.44971L303.611 3.44971L303.611 -7.5L305.925 -7.5L305.925 -6.37207L305.955 -6.37207Q306.812 -7.68311 308.364 -7.68311Q309.822 -7.68311 310.616 -6.68335Q311.411 -5.68359 311.411 -3.9624Q311.411 -2.0874 310.485 -0.952148Q309.558 0.183105 308.02 0.183105Q306.665 0.183105 305.955 -0.871582ZM305.889 -3.94775L305.889 -3.34717Q305.889 -2.5708 306.299 -2.08008Q306.709 -1.58936 307.375 -1.58936Q308.167 -1.58936 308.602 -2.20093Q309.038 -2.8125 309.038 -3.93311Q309.038 -5.91064 307.5 -5.91064Q306.79 -5.91064 306.339 -5.37231Q305.889 -4.83398 305.889 -3.94775ZM320.054 -7.5L317.007 0.600586Q315.908 3.52295 313.696 3.52295Q312.854 3.52295 312.312 3.33252L312.312 1.48682Q312.773 1.75781 313.315 1.75781Q314.209 1.75781 314.561 0.915527L314.956 -0.0146484L311.909 -7.5L314.473 -7.5L315.872 -2.93701Q316.003 -2.51221 316.077 -1.93359L316.106 -1.93359Q316.172 -2.3584 316.348 -2.92236L317.761 -7.5L320.054 -7.5ZM330.293 -3.56689Q329.722 -3.56689 329.341 -3.91846Q328.96 -4.27002 328.96 -4.78271Q328.96 -5.31006 329.352 -5.64697Q329.744 -5.98389 330.33 -5.98389Q330.923 -5.98389 331.3 -5.64331Q331.677 -5.30273 331.677 -4.78271Q331.677 -4.24805 331.293 -3.90747Q330.908 -3.56689 330.293 -3.56689ZM353.796 0L351.46 0L351.46 -6.28418Q351.46 -7.30225 351.548 -8.53271L351.489 -8.53271Q351.306 -7.56592 351.16 -7.14111L348.699 0L346.765 0L344.26 -7.06787Q344.158 -7.35352 343.931 -8.53271L343.865 -8.53271Q343.96 -6.97998 343.96 -5.80811L343.96 0L341.829 0L341.829 -10.5029L345.293 -10.5029L347.439 -4.27734Q347.695 -3.53027 347.813 -2.77588L347.856 -2.77588Q348.054 -3.64746 348.274 -4.29199L350.42 -10.5029L353.796 -10.5029L353.796 0ZM362.197 0L360.007 0L360.007 -1.07666L359.978 -1.07666Q359.224 0.183105 357.744 0.183105Q356.653 0.183105 356.027 -0.435791Q355.4 -1.05469 355.4 -2.0874Q355.4 -4.27002 357.986 -4.60693L360.022 -4.87793Q360.022 -6.1084 358.689 -6.1084Q357.349 -6.1084 356.14 -5.31006L356.14 -7.05322Q356.624 -7.30225 357.462 -7.49268Q358.301 -7.6831 358.989 -7.68311Q362.197 -7.68311 362.197 -4.48242L362.197 0ZM360.022 -3.04688L360.022 -3.55225L358.66 -3.37646Q357.532 -3.22998 357.532 -2.3584Q357.532 -1.96289 357.806 -1.71021Q358.081 -1.45752 358.55 -1.45752Q359.202 -1.45752 359.612 -1.90796Q360.022 -2.3584 360.022 -3.04688ZM368.562 -0.0878906Q368.049 0.183105 367.017 0.183105Q364.57 0.183105 364.57 -2.3584L364.57 -5.79346L363.354 -5.79346L363.354 -7.5L364.57 -7.5L364.57 -9.11865L366.877 -9.77783L366.877 -7.5L368.562 -7.5L368.562 -5.79346L366.877 -5.79346L366.877 -2.76123Q366.877 -1.58936 367.808 -1.58936Q368.174 -1.58936 368.562 -1.80176L368.562 -0.0878906ZM372.458 -3.61816L372.458 0L370.093 0L370.093 -10.5029L373.799 -10.5029Q377.769 -10.5029 377.769 -7.15576Q377.769 -5.57373 376.63 -4.59595Q375.491 -3.61816 373.586 -3.61816L372.458 -3.61816ZM372.458 -8.68652L372.458 -5.4126L373.389 -5.4126Q375.278 -5.4126 375.278 -7.06787Q375.278 -8.68652 373.389 -8.68652L372.458 -8.68652ZM381.394 0L379.08 0L379.08 -11.1035L381.394 -11.1035L381.394 0ZM386.917 0.183105Q385.042 0.183105 383.969 -0.86792Q382.896 -1.91895 382.896 -3.7207Q382.896 -5.58105 384.009 -6.63208Q385.122 -7.68311 387.019 -7.68311Q388.887 -7.68311 389.949 -6.63208Q391.011 -5.58105 391.011 -3.85254Q391.011 -1.98486 389.916 -0.900879Q388.821 0.183105 386.917 0.183105ZM386.975 -5.91064Q386.155 -5.91064 385.701 -5.34668Q385.247 -4.78271 385.247 -3.75Q385.247 -1.58936 386.99 -1.58936Q388.652 -1.58936 388.652 -3.80859Q388.652 -5.91064 386.975 -5.91064ZM397.046 -0.0878906Q396.533 0.183105 395.5 0.183105Q393.054 0.183105 393.054 -2.3584L393.054 -5.79346L391.838 -5.79346L391.838 -7.5L393.054 -7.5L393.054 -9.11865L395.361 -9.77783L395.361 -7.5L397.046 -7.5L397.046 -5.79346L395.361 -5.79346L395.361 -2.76123Q395.361 -1.58936 396.292 -1.58936Q396.658 -1.58936 397.046 -1.80176L397.046 -0.0878906ZM404.832 0L398.577 0L398.577 -10.5029L400.942 -10.5029L400.942 -1.91895L404.832 -1.91895L404.832 0ZM407.19 -8.68652Q406.604 -8.68652 406.23 -9.03442Q405.857 -9.38232 405.857 -9.8877Q405.857 -10.4077 406.23 -10.7373Q406.604 -11.0669 407.19 -11.0669Q407.783 -11.0669 408.153 -10.7373Q408.523 -10.4077 408.523 -9.8877Q408.523 -9.36035 408.153 -9.02344Q407.783 -8.68652 407.19 -8.68652ZM408.333 0L406.018 0L406.018 -7.5L408.333 -7.5L408.333 0ZM412.625 -0.871582L412.595 -0.871582L412.595 0L410.281 0L410.281 -11.1035L412.595 -11.1035L412.595 -6.37207L412.625 -6.37207Q413.481 -7.68311 415.063 -7.68311Q416.514 -7.68311 417.297 -6.68701Q418.081 -5.69092 418.081 -3.9624Q418.081 -2.0874 417.166 -0.952148Q416.25 0.183105 414.719 0.183105Q413.335 0.183105 412.625 -0.871582ZM412.559 -4.03564L412.559 -3.2666Q412.559 -2.5415 412.976 -2.06543Q413.394 -1.58936 414.045 -1.58936Q414.836 -1.58936 415.272 -2.20093Q415.708 -2.8125 415.708 -3.93311Q415.708 -4.86328 415.309 -5.38696Q414.91 -5.91064 414.17 -5.91064Q413.474 -5.91064 413.016 -5.39063Q412.559 -4.8706 412.559 -4.03564ZM429.258 0L426.87 0L422.542 -6.59912Q422.161 -7.17773 422.014 -7.4707L421.985 -7.4707Q422.043 -6.91406 422.043 -5.77148L422.043 0L419.81 0L419.81 -10.5029L422.358 -10.5029L426.526 -4.10889Q426.812 -3.67676 427.053 -3.25195L427.083 -3.25195Q427.024 -3.61816 427.024 -4.69482L427.024 -10.5029L429.258 -10.5029L429.258 0ZM438.171 -3.09082L433.279 -3.09082Q433.396 -1.45752 435.337 -1.45752Q436.575 -1.45752 437.512 -2.04346L437.512 -0.373535Q436.472 0.183105 434.81 0.183105Q432.993 0.183105 431.99 -0.823975Q430.986 -1.83105 430.986 -3.63281Q430.986 -5.50049 432.07 -6.5918Q433.154 -7.68311 434.736 -7.68311Q436.377 -7.68311 437.274 -6.70898Q438.171 -5.73486 438.171 -4.06494L438.171 -3.09082ZM436.025 -4.51172Q436.025 -6.12305 434.722 -6.12305Q434.165 -6.12305 433.759 -5.66162Q433.352 -5.2002 433.264 -4.51172L436.025 -4.51172ZM444.082 -0.0878906Q443.569 0.183105 442.537 0.183105Q440.09 0.183105 440.09 -2.3584L440.09 -5.79346L438.875 -5.79346L438.875 -7.5L440.09 -7.5L440.09 -9.11865L442.397 -9.77783L442.397 -7.5L444.082 -7.5L444.082 -5.79346L442.397 -5.79346L442.397 -2.76123Q442.397 -1.58936 443.328 -1.58936Q443.694 -1.58936 444.082 -1.80176L444.082 -0.0878906ZM456.665 -7.5L453.875 0L451.238 0L448.579 -7.5L451.055 -7.5L452.358 -2.87842Q452.578 -2.09473 452.615 -1.54541L452.644 -1.54541Q452.695 -2.06543 452.915 -2.83447L454.248 -7.5L456.665 -7.5ZM462.773 -10.7373L462.773 0L460.466 0L460.466 -8.12988Q460.276 -7.96143 460.016 -7.81128Q459.756 -7.66113 459.463 -7.54028Q459.17 -7.41943 458.855 -7.33521Q458.54 -7.25098 458.232 -7.21436L458.232 -9.1626Q459.133 -9.42627 459.932 -9.83643Q460.73 -10.2466 461.375 -10.7373L462.773 -10.7373ZM467.314 0.183105Q466.743 0.183105 466.362 -0.168457Q465.981 -0.52002 465.981 -1.03271Q465.981 -1.56006 466.373 -1.89697Q466.765 -2.23389 467.351 -2.23389Q467.944 -2.23389 468.322 -1.89331Q468.699 -1.55273 468.699 -1.03271Q468.699 -0.498047 468.314 -0.157471Q467.93 0.183105 467.314 0.183105ZM475.466 -10.7373L475.466 0L473.159 0L473.159 -8.12988Q472.969 -7.96143 472.709 -7.81128Q472.449 -7.66113 472.156 -7.54028Q471.863 -7.41943 471.548 -7.33521Q471.233 -7.25098 470.925 -7.21436L470.925 -9.1626Q471.826 -9.42627 472.625 -9.83643Q473.423 -10.2466 474.067 -10.7373L475.466 -10.7373ZM482.256 0.183105Q478.506 0.183105 478.506 -5.08301Q478.506 -7.81494 479.52 -9.24683Q480.535 -10.6787 482.461 -10.6787Q486.123 -10.6787 486.123 -5.32471Q486.123 -2.65869 485.123 -1.23779Q484.124 0.183105 482.256 0.183105ZM482.358 -8.91357Q480.857 -8.91357 480.857 -5.1416Q480.857 -1.58936 482.329 -1.58936Q483.765 -1.58936 483.765 -5.25146Q483.765 -8.91357 482.358 -8.91357ZM488.635 0.183105Q488.064 0.183105 487.683 -0.168457Q487.302 -0.52002 487.302 -1.03271Q487.302 -1.56006 487.694 -1.89697Q488.086 -2.23389 488.672 -2.23389Q489.265 -2.23389 489.642 -1.89331Q490.02 -1.55273 490.02 -1.03271Q490.02 -0.498047 489.635 -0.157471Q489.25 0.183105 488.635 0.183105ZM494.949 0.183105Q491.199 0.183105 491.199 -5.08301Q491.199 -7.81494 492.213 -9.24683Q493.228 -10.6787 495.154 -10.6787Q498.816 -10.6787 498.816 -5.32471Q498.816 -2.65869 497.816 -1.23779Q496.816 0.183105 494.949 0.183105ZM495.051 -8.91357Q493.55 -8.91357 493.55 -5.1416Q493.55 -1.58936 495.022 -1.58936Q496.458 -1.58936 496.458 -5.25146Q496.458 -8.91357 495.051 -8.91357Z" fill="#262626" transform="translate(800,21.5) translate(-249.66064453125,0)" />
<rect x="60" y="40" width="1520" height="810" fill="#EAEAF2" />
<line x1="129.09090909090912" y1="40" x2="129.09090909090912" y2="850" stroke="#FFFFFF" stroke-width="0.5" />
<line x1="301.81818181818187" y1="40" x2="301.81818181818187" y2="850" stroke="#FFFFFF" stroke-width="0.5" />
<line x1="474.54545454545456" y1="40" x2="474.54545454545456" y2="850" stroke="#FFFFFF" stroke-width="0.5" />
<line x1="647.2727272727273" y1="40" x2="647.2727272727273" y2="850" stroke="#FFFFFF" stroke-width="0.5" />
<line x1="820" y1="40" x2="820" y2="850" stroke="#FFFFFF" stroke-width="0.5" />
<line x1="992.7272727272727" y1="40" x2="992.7272727272727" y2="850" stroke="#FFFFFF" stroke-width="0.5" />
<line x1="1165.4545454545455" y1="40" x2="1165.4545454545455" y2="850" stroke="#FFFFFF" stroke-width="0.5" />
<line x1="1338.181818181818" y1="40" x2="1338.181818181818" y2="850" stroke="#FFFFFF" stroke-width="0.5" />
<line x1="1510.909090909091" y1="40" x2="1510.909090909091" y2="850" stroke="#FFFFFF" stroke-width="0.5" />
<line x1="60" y1="813.1818181818181" x2="1580" y2="813.1818181818181" stroke="#FFFFFF" stroke-width="0.5" />
<line x1="60" y1="721.1363636363636" x2="1580" y2="721.1363636363636" stroke="#FFFFFF" stroke-width="0.5" />
<line x1="60" y1="629.090909090909" x2="1580" y2="629.090909090909" stroke="#FFFFFF" stroke-width="0.5" />
<line x1="60" y1="537.0454545454545" x2="1580" y2="537.0454545454545" stroke="#FFFFFF" stroke-width="0.5" />
<line x1="60" y1="445" x2="1580" y2="445" stroke="#FFFFFF" stroke-width="0.5" />
<line x1="60" y1="352.9545454545455" x2="1580" y2="352.9545454545455" stroke="#FFFFFF" stroke-width="0.5" />
<line x1="60" y1="260.90909090909093" x2="1580" y2="260.90909090909093" stroke="#FFFFFF" stroke-width="0.5" />
<line x1="60" y1="168.86363636363637" x2="1580" y2="168.86363636363637" stroke="#FFFFFF" stroke-width="0.5" />
<line x1="60" y1="76.81818181818187" x2="1580" y2="76.81818181818187" stroke="#FFFFFF" stroke-width="0.5" />
<line x1="746.0750474824855" y1="199.67164060202603" x2="862.151240541684" y2="529.4969032456302" stroke="#4C72B0" stroke-width="5.95" />
<polygon points="862.151240541684,529.4969032456302 855.7222956303807,523.2784896756408 863.2686044508936,520.622699174594" fill="#4C72B0" />
<line x1="746.0750474824855" y1="199.67164060202603" x2="235.4725209281986" y2="431.03536083235855" stroke="#4C72B0" stroke-width="4.55" />
<polygon points="235.4725209281986,431.03536083235855 241.1084598029885,424.0901327583762 244.4102667122584,431.3769750878011" fill="#4C72B0" />
<line x1="746.0750474824855" y1="199.67164060202603" x2="1448.4876788806735" y2="83.72445976116518" stroke="#4C72B0" stroke-width="3.8500000000000005" />
<polygon points="1448.4876788806735,83.72445976116518 1441.2459568667512,88.97397995572305 1439.9430295166737,81.08079426676193" fill="#4C72B0" />
<line x1="746.0750474824855" y1="199.67164060202603" x2="408.2887378032774" y2="271.8372651436732" stroke="#4C72B0" stroke-width="3.5" />
<polygon points="408.2887378032774,271.8372651436732 415.27647424866564,266.25411734249576 416.9478979114523,274.0775656192774" fill="#4C72B0" />
<line x1="746.0750474824855" y1="199.67164060202603" x2="129.09090909090912" y2="116.06260368189578" stroke="#4C72B0" stroke-width="3.15" />
<polygon points="129.09090909090912,116.06260368189578 137.55559136241698,113.17311340808955 136.4813106728588,121.10065533481831" fill="#4C72B0" />
<line x1="862.151240541684" y1="529.4969032456302" x2="235.4725209281986" y2="431.03536083235855" stroke="#4C72B0" stroke-width="3.8500000000000005" />
<polygon points="235.4725209281986,431.03536083235855 243.99641946394175,428.3255354224187 242.75472037759639,436.22858441498914" fill="#4C72B0" />
<line x1="862.151240541684" y1="529.4969032456302" x2="408.2887378032774" y2="271.8372651436732" stroke="#4C72B0" stroke-width="3.15" />
<polygon points="408.2887378032774,271.8372651436732 417.2205985854076,272.3082884643745 413.27103561599444,279.2653677617982" fill="#4C72B0" />
<line x1="862.151240541684" y1="529.4969032456302" x2="1510.909090909091" y2="391.3669473532051" stroke="#4C72B0" stroke-width="2.8000000000000003" />
<polygon points="1510.909090909091,391.3669473532051 1503.917466707116,396.9452258527389 1502.2514935882791,389.1206150913456" fill="#4C72B0" />
<line x1="862.151240541684" y1="529.4969032456302" x2="1049.4498079165346" y2="813.1818181818181" stroke="#4C72B0" stroke-width="2.4499999999999997" />
<polygon points="1049.4498079165346,813.1818181818181 1041.7039020813845,808.7095768206003 1048.3800575044188,804.3017486969674" fill="#4C72B0" />
<line x1="235.4725209281986" y1="431.03536083235855" x2="129.09090909090912" y2="116.06260368189578" stroke="#4C72B0" stroke-width="2.4499999999999997" />
<polygon points="129.09090909090912,116.06260368189578 135.44051337798655,122.36201043154514 127.8611462634361,124.92193116134735" fill="#4C72B0" />
<line x1="1510.909090909091" y1="391.3669473532051" x2="1448.4876788806735" y2="83.72445976116518" stroke="#4C72B0" stroke-width="2.1" />
<polygon points="1448.4876788806735,83.72445976116518 1453.9986018569796,90.76929673225419 1446.158363089586,92.3601003248634" fill="#4C72B0" />
<line x1="129.09090909090912" y1="116.06260368189578" x2="408.2887378032774" y2="271.8372651436732" stroke="#4C72B0" stroke-width="1.75" />
<polygon points="408.2887378032774,271.8372651436732 399.3536287802444,271.4325099750663 403.2514765243431,264.4463248240827" fill="#4C72B0" />
<line x1="1049.4498079165346" y1="813.1818181818181" x2="862.151240541684" y2="529.4969032456302" stroke="#4C72B0" stroke-width="1.4000000000000001" />
<polygon points="862.151240541684,529.4969032456302 869.8971463768341,533.969144606848 863.2209909537999,538.3769727304809" fill="#4C72B0" />
<circle cx="746.0750474824855" cy="199.67164060202603" r="36.4" fill="#F0F921" stroke="#000000" stroke-width="0.5" />
<path d="M0.917969 0L0.917969 -7.00195L2.91016 -7.00195Q3.81836 -7.00195 4.35059 -6.55762Q4.88281 -6.11328 4.88281 -5.40039Q4.88281 -4.80469 4.56055 -4.36523Q4.23828 -3.92578 3.67188 -3.74023L3.67188 -3.7207Q4.37988 -3.6377 4.80469 -3.18604Q5.22949 -2.73438 5.22949 -2.01172Q5.22949 -1.11328 4.58496 -0.556641Q3.94043 0 2.95898 0L0.917969 0ZM1.73828 -6.25977L1.73828 -3.99902L2.57813 -3.99902Q3.25195 -3.99902 3.6377 -4.32373Q4.02344 -4.64844 4.02344 -5.23926Q4.02344 -6.25977 2.68066 -6.25977L1.73828 -6.25977ZM1.73828 -3.26172L1.73828 -0.742188L2.85156 -0.742188Q3.57422 -0.742188 3.97217 -1.08398Q4.37012 -1.42578 4.37012 -2.02148Q4.37012 -3.26172 2.68066 -3.26172L1.73828 -3.26172ZM10.791 -6.25977L8.76953 -6.25977L8.76953 0L7.94922 0L7.94922 -6.25977L5.93262 -6.25977L5.93262 -7.00195L10.791 -7.00195L10.791 -6.25977ZM16.6553 -0.292969Q15.8789 0.117188 14.7217 0.117188Q13.2275 0.117188 12.3291 -0.844727Q11.4307 -1.80664 11.4307 -3.36914Q11.4307 -5.04883 12.4414 -6.08398Q13.4521 -7.11914 15.0049 -7.11914Q16.001 -7.11914 16.6553 -6.83105L16.6553 -5.95703Q15.9033 -6.37695 14.9951 -6.37695Q13.7891 -6.37695 13.0396 -5.57129Q12.29 -4.76563 12.29 -3.41797Q12.29 -2.13867 12.9907 -1.37939Q13.6914 -0.620117 14.8291 -0.620117Q15.8838 -0.620117 16.6553 -1.08887L16.6553 -0.292969Z" fill="#000000" transform="translate(784.4750474824855,199.67164060202603)" />
<circle cx="862.151240541684" cy="529.4969032456302" r="32.24000000000001" fill="#FBA636" stroke="#000000" stroke-width="0.5" />
<path d="M4.62891 0L0.917969 0L0.917969 -7.00195L4.47266 -7.00195L4.47266 -6.25977L1.73828 -6.25977L1.73828 -3.93066L4.26758 -3.93066L4.26758 -3.19336L1.73828 -3.19336L1.73828 -0.742188L4.62891 -0.742188L4.62891 0ZM10.1172 -6.25977L8.0957 -6.25977L8.0957 0L7.27539 0L7.27539 -6.25977L5.25879 -6.25977L5.25879 -7.00195L10.1172 -7.00195L10.1172 -6.25977ZM16.4795 0L15.6592 0L15.6592 -3.19336L12.0361 -3.19336L12.0361 0L11.2158 0L11.2158 -7.00195L12.0361 -7.00195L12.0361 -3.93066L15.6592 -3.93066L15.6592 -7.00195L16.4795 -7.00195L16.4795 0Z" fill="#000000" transform="translate(896.391240541684,529.4969032456302)" />
<circle cx="235.4725209281986" cy="431.03536083235855" r="27.04" fill="#D7556C" stroke="#000000" stroke-width="0.5" />
<path d="M0.59082 -0.283203L0.59082 -1.25Q0.756836 -1.10352 0.98877 -0.986328Q1.2207 -0.869141 1.47705 -0.788574Q1.7334 -0.708008 1.99219 -0.664063Q2.25098 -0.620117 2.4707 -0.620117Q3.22754 -0.620117 3.60107 -0.900879Q3.97461 -1.18164 3.97461 -1.70898Q3.97461 -1.99219 3.8501 -2.20215Q3.72559 -2.41211 3.50586 -2.58545Q3.28613 -2.75879 2.98584 -2.91748Q2.68555 -3.07617 2.33887 -3.25195Q1.97266 -3.4375 1.65527 -3.62793Q1.33789 -3.81836 1.10352 -4.04785Q0.869141 -4.27734 0.734863 -4.56787Q0.600586 -4.8584 0.600586 -5.24902Q0.600586 -5.72754 0.810547 -6.08154Q1.02051 -6.43555 1.3623 -6.66504Q1.7041 -6.89453 2.14111 -7.00684Q2.57812 -7.11914 3.03223 -7.11914Q4.06738 -7.11914 4.54102 -6.87012L4.54102 -5.94727Q3.9209 -6.37695 2.94922 -6.37695Q2.68066 -6.37695 2.41211 -6.3208Q2.14355 -6.26465 1.93359 -6.1377Q1.72363 -6.01074 1.5918 -5.81055Q1.45996 -5.61035 1.45996 -5.32227Q1.45996 -5.05371 1.56006 -4.8584Q1.66016 -4.66309 1.85547 -4.50195Q2.05078 -4.34082 2.33154 -4.18945Q2.6123 -4.03809 2.97852 -3.85742Q3.35449 -3.67187 3.69141 -3.4668Q4.02832 -3.26172 4.28223 -3.0127Q4.53613 -2.76367 4.68506 -2.46094Q4.83398 -2.1582 4.83398 -1.76758Q4.83398 -1.25 4.63135 -0.891113Q4.42871 -0.532227 4.08447 -0.307617Q3.74023 -0.0830078 3.29102 0.0170898Q2.8418 0.117188 2.34375 0.117188Q2.17773 0.117188 1.93359 0.090332Q1.68945 0.0634766 1.43555 0.012207Q1.18164 -0.0390625 0.95459 -0.114746Q0.727539 -0.19043 0.59082 -0.283203ZM9.05273 0.117188Q7.56348 0.117188 6.66748 -0.864258Q5.77148 -1.8457 5.77148 -3.41797Q5.77148 -5.10742 6.68457 -6.11328Q7.59766 -7.11914 9.16992 -7.11914Q10.6201 -7.11914 11.5063 -6.14258Q12.3926 -5.16602 12.3926 -3.58887Q12.3926 -1.875 11.4844 -0.878906Q10.5762 0.117188 9.05273 0.117188ZM9.11133 -6.37695Q8.00781 -6.37695 7.31934 -5.58105Q6.63086 -4.78516 6.63086 -3.49121Q6.63086 -2.19727 7.30225 -1.40869Q7.97363 -0.620117 9.05273 -0.620117Q10.2051 -0.620117 10.8691 -1.37207Q11.5332 -2.12402 11.5332 -3.47656Q11.5332 -4.86328 10.8887 -5.62012Q10.2441 -6.37695 9.11133 -6.37695ZM17.4023 0L13.7695 0L13.7695 -7.00195L14.5898 -7.00195L14.5898 -0.742188L17.4023 -0.742188L17.4023 0Z" fill="#000000" transform="translate(264.5125209281986,431.03536083235855)" />
<circle cx="1448.4876788806735" cy="83.72445976116518" r="24.96" fill="#BE3985" stroke="#000000" stroke-width="0.5" />
<path d="M6.33789 0L5.42969 0L4.6875 -1.96289L1.71875 -1.96289L1.02051 0L0.107422 0L2.79297 -7.00195L3.64258 -7.00195L6.33789 0ZM4.41895 -2.7002L3.32031 -5.68359Q3.2666 -5.83008 3.21289 -6.15234L3.19336 -6.15234Q3.14453 -5.85449 3.08105 -5.68359L1.99219 -2.7002L4.41895 -2.7002ZM7.36816 0L7.36816 -7.00195L9.30176 -7.00195Q13.0029 -7.00195 13.0029 -3.58887Q13.0029 -1.96777 11.9751 -0.983887Q10.9473 0 9.22363 0L7.36816 0ZM8.18848 -6.25977L8.18848 -0.742188L9.2334 -0.742188Q10.6104 -0.742188 11.377 -1.47949Q12.1436 -2.2168 12.1436 -3.56934Q12.1436 -6.25977 9.28223 -6.25977L8.18848 -6.25977ZM19.7998 0L18.8916 0L18.1494 -1.96289L15.1807 -1.96289L14.4824 0L13.5693 0L16.2549 -7.00195L17.1045 -7.00195L19.7998 0ZM17.8809 -2.7002L16.7822 -5.68359Q16.7285 -5.83008 16.6748 -6.15234L16.6553 -6.15234Q16.6064 -5.85449 16.543 -5.68359L15.4541 -2.7002L17.8809 -2.7002Z" fill="#000000" transform="translate(1475.4476788806735,83.72445976116518)" />
<circle cx="408.2887378032774" cy="271.8372651436732" r="23.92" fill="#B02A90" stroke="#000000" stroke-width="0.5" />
<path d="M8.05664 0L7.24121 0L7.24121 -4.69727Q7.24121 -5.25391 7.30957 -6.05957L7.29004 -6.05957Q7.17285 -5.58594 7.08008 -5.38086L4.6875 0L4.28711 0L1.89941 -5.3418Q1.79688 -5.57617 1.68945 -6.05957L1.66992 -6.05957Q1.70898 -5.63965 1.70898 -4.6875L1.70898 0L0.917969 0L0.917969 -7.00195L2.00195 -7.00195L4.15039 -2.11914Q4.39941 -1.55762 4.47266 -1.2793L4.50195 -1.2793Q4.71191 -1.85547 4.83887 -2.13867L7.03125 -7.00195L8.05664 -7.00195L8.05664 0ZM15.3174 0L14.4092 0L13.667 -1.96289L10.6982 -1.96289L10 0L9.08691 0L11.7725 -7.00195L12.6221 -7.00195L15.3174 0ZM13.3984 -2.7002L12.2998 -5.68359Q12.2461 -5.83008 12.1924 -6.15234L12.1729 -6.15234Q12.124 -5.85449 12.0605 -5.68359L10.9717 -2.7002L13.3984 -2.7002ZM20.4883 -6.25977L18.4668 -6.25977L18.4668 0L17.6465 0L17.6465 -6.25977L15.6299 -6.25977L15.6299 -7.00195L20.4883 -7.00195L20.4883 -6.25977ZM22.4072 0L21.5869 0L21.5869 -7.00195L22.4072 -7.00195L22.4072 0ZM29.0137 -0.292969Q28.2373 0.117188 27.0801 0.117188Q25.5859 0.117188 24.6875 -0.844727Q23.7891 -1.80664 23.7891 -3.36914Q23.7891 -5.04883 24.7998 -6.08398Q25.8105 -7.11914 27.3633 -7.11914Q28.3594 -7.11914 29.0137 -6.83105L29.0137 -5.95703Q28.2617 -6.37695 27.3535 -6.37695Q26.1475 -6.37695 25.3979 -5.57129Q24.6484 -4.76563 24.6484 -3.41797Q24.6484 -2.13867 25.3491 -1.37939Q26.0498 -0.620117 27.1875 -0.620117Q28.2422 -0.620117 29.0137 -1.08887L29.0137 -0.292969Z" fill="#000000" transform="translate(434.2087378032774,271.8372651436732)" />
<circle cx="129.09090909090912" cy="116.06260368189578" r="22.879999999999995" fill="#A11C9A" stroke="#000000" stroke-width="0.5" />
<path d="M6.33789 0L5.42969 0L4.6875 -1.96289L1.71875 -1.96289L1.02051 0L0.107422 0L2.79297 -7.00195L3.64258 -7.00195L6.33789 0ZM4.41895 -2.7002L3.32031 -5.68359Q3.2666 -5.83008 3.21289 -6.15234L3.19336 -6.15234Q3.14453 -5.85449 3.08105 -5.68359L1.99219 -2.7002L4.41895 -2.7002ZM12.5732 -7.00195L9.98047 0L9.07715 0L6.53809 -7.00195L7.45117 -7.00195L9.38965 -1.4502Q9.48242 -1.18164 9.53125 -0.830078L9.55078 -0.830078Q9.58984 -1.12305 9.71191 -1.45996L11.6895 -7.00195L12.5732 -7.00195ZM18.999 0L18.0908 0L17.3486 -1.96289L14.3799 -1.96289L13.6816 0L12.7686 0L15.4541 -7.00195L16.3037 -7.00195L18.999 0ZM17.0801 -2.7002L15.9814 -5.68359Q15.9277 -5.83008 15.874 -6.15234L15.8545 -6.15234Q15.8057 -5.85449 15.7422 -5.68359L14.6533 -2.7002L17.0801 -2.7002ZM24.8633 0L23.8623 0L22.251 -2.68066Q22.1777 -2.80273 22.0898 -3.02734L22.0703 -3.02734Q22.0215 -2.91504 21.9043 -2.68066L20.2441 0L19.2383 0L21.582 -3.52051L19.4238 -7.00195L20.4297 -7.00195L21.8604 -4.54102Q22.002 -4.29687 22.1094 -4.05273L22.1289 -4.05273Q22.2852 -4.375 22.4023 -4.56055L23.8916 -7.00195L24.834 -7.00195L22.6318 -3.53027L24.8633 0Z" fill="#000000" transform="translate(153.97090909090912,116.06260368189578)" />
<circle cx="1510.909090909091" cy="391.3669473532051" r="21.84" fill="#8F10A1" stroke="#000000" stroke-width="0.5" />
<path d="M0.917969 0L0.917969 -7.00195L2.85156 -7.00195Q6.55273 -7.00195 6.55273 -3.58887Q6.55273 -1.96777 5.5249 -0.983887Q4.49707 0 2.77344 0L0.917969 0ZM1.73828 -6.25977L1.73828 -0.742188L2.7832 -0.742188Q4.16016 -0.742188 4.92676 -1.47949Q5.69336 -2.2168 5.69336 -3.56934Q5.69336 -6.25977 2.83203 -6.25977L1.73828 -6.25977ZM10.752 0.117188Q9.2627 0.117188 8.3667 -0.864258Q7.4707 -1.8457 7.4707 -3.41797Q7.4707 -5.10742 8.38379 -6.11328Q9.29688 -7.11914 10.8691 -7.11914Q12.3193 -7.11914 13.2056 -6.14258Q14.0918 -5.16602 14.0918 -3.58887Q14.0918 -1.875 13.1836 -0.878906Q12.2754 0.117188 10.752 0.117188ZM10.8105 -6.37695Q9.70703 -6.37695 9.01855 -5.58105Q8.33008 -4.78516 8.33008 -3.49121Q8.33008 -2.19727 9.00146 -1.40869Q9.67285 -0.620117 10.752 -0.620117Q11.9043 -0.620117 12.5684 -1.37207Q13.2324 -2.12402 13.2324 -3.47656Q13.2324 -4.86328 12.5879 -5.62012Q11.9434 -6.37695 10.8105 -6.37695ZM19.6094 -6.25977L17.5879 -6.25977L17.5879 0L16.7676 0L16.7676 -6.25977L14.751 -6.25977L14.751 -7.00195L19.6094 -7.00195L19.6094 -6.25977Z" fill="#000000" transform="translate(1534.749090909091,391.3669473532051)" />
<circle cx="1049.4498079165346" cy="813.1818181818181" r="20.8" fill="#7C06A6" stroke="#000000" stroke-width="0.5" />
<path d="M4.55078 0L0.917969 0L0.917969 -7.00195L1.73828 -7.00195L1.73828 -0.742188L4.55078 -0.742188L4.55078 0ZM6.44531 0L5.625 0L5.625 -7.00195L6.44531 -7.00195L6.44531 0ZM13.9307 0L12.9248 0L9.32129 -5.58105Q9.18457 -5.79102 9.09668 -6.02051L9.06738 -6.02051Q9.10645 -5.7959 9.10645 -5.05859L9.10645 0L8.28613 0L8.28613 -7.00195L9.35059 -7.00195L12.8564 -1.50879Q13.0762 -1.16699 13.1396 -1.04004L13.1592 -1.04004Q13.1104 -1.34277 13.1104 -2.07031L13.1104 -7.00195L13.9307 -7.00195L13.9307 0ZM20.6396 0L19.4971 0L16.792 -3.20313Q16.6406 -3.38379 16.6064 -3.44727L16.5869 -3.44727L16.5869 0L15.7666 0L15.7666 -7.00195L16.5869 -7.00195L16.5869 -3.71094L16.6064 -3.71094Q16.6748 -3.81836 16.792 -3.9502L19.4092 -7.00195L20.4297 -7.00195L17.4268 -3.64258L20.6396 0Z" fill="#000000" transform="translate(1072.2498079165346,813.1818181818181)" />
</svg>
