<svg xmlns="http://www.w3.org/2000/svg" viewBox="0 0 720 720" width="720" height="720" style="width:100%;height:auto" role="img" aria-labelledby="chart-title">
<title id="chart-title">Nested Pie — Revenue by department and product</title>
<rect x="0" y="0" width="720" height="720" fill="#FFFFFF" />
<path d="M1.64214 -13.0411L5.39811 -13.0411L10.1411 -4.09663L10.1411 -13.0411L13.3293 -13.0411L13.3293 0L9.57335 0L4.83035 -8.94444L4.83035 0L1.64214 0L1.64214 -13.0411ZM26.2394 -4.9177L26.2394 -4.02675L18.9283 -4.02675Q19.0419 -2.92616 19.7232 -2.37587Q20.4045 -1.82558 21.6274 -1.82558Q22.6144 -1.82558 23.6495 -2.11819Q24.6846 -2.41081 25.7764 -3.00477L25.7764 -0.593967Q24.6671 -0.174696 23.5578 0.0393066Q22.4485 0.253309 21.3391 0.253309Q18.6838 0.253309 17.2119 -1.09622Q15.7401 -2.44575 15.7401 -4.88276Q15.7401 -7.2761 17.1857 -8.64746Q18.6313 -10.0188 21.1644 -10.0188Q23.4704 -10.0188 24.8549 -8.62999Q26.2394 -7.24116 26.2394 -4.9177ZM23.025 -5.95714Q23.025 -6.84809 22.5052 -7.39402Q21.9855 -7.93994 21.147 -7.93994Q20.2386 -7.93994 19.6708 -7.42896Q19.103 -6.91797 18.9633 -5.95714L23.025 -5.95714ZM36.2495 -9.47727L36.2495 -7.1014Q35.245 -7.52067 34.3103 -7.73031Q33.3757 -7.93994 32.5459 -7.93994Q31.6549 -7.93994 31.2226 -7.7172Q30.7902 -7.49447 30.7902 -7.03152Q30.7902 -6.65592 31.1178 -6.45502Q31.4453 -6.25412 32.2926 -6.15804L32.8429 -6.07943Q35.245 -5.77371 36.0748 -5.07492Q36.9046 -4.37614 36.9046 -2.88249Q36.9046 -1.31896 35.7516 -0.532823Q34.5986 0.253309 32.3101 0.253309Q31.3405 0.253309 30.3054 0.10045Q29.2703 -0.0524089 28.1785 -0.358127L28.1785 -2.734Q29.1131 -2.27978 30.0958 -2.05268Q31.0785 -1.82557 32.0917 -1.82558Q33.0088 -1.82558 33.4718 -2.07888Q33.9347 -2.33219 33.9347 -2.83008Q33.9347 -3.24935 33.6159 -3.45462Q33.2971 -3.65989 32.345 -3.77344L31.7947 -3.84332Q29.7071 -4.10536 28.8685 -4.81288Q28.03 -5.5204 28.03 -6.96164Q28.03 -8.51644 29.0957 -9.26763Q30.1613 -10.0188 32.3625 -10.0188Q33.2272 -10.0188 34.1793 -9.8878Q35.1314 -9.75678 36.2495 -9.47727ZM42.6695 -12.5607L42.6695 -9.78299L45.8927 -9.78299L45.8927 -7.54688L42.6695 -7.54688L42.6695 -3.39784Q42.6695 -2.71653 42.9403 -2.47632Q43.2111 -2.23611 44.0147 -2.23611L45.6219 -2.23611L45.6219 0L42.9403 0Q41.0885 0 40.3155 -0.773031Q39.5425 -1.54606 39.5425 -3.39784L39.5425 -7.54688L37.9877 -7.54688L37.9877 -9.78299L39.5425 -9.78299L39.5425 -12.5607L42.6695 -12.5607ZM57.5711 -4.9177L57.5711 -4.02675L50.2601 -4.02675Q50.3736 -2.92616 51.055 -2.37587Q51.7363 -1.82558 52.9591 -1.82558Q53.9462 -1.82558 54.9813 -2.11819Q56.0163 -2.41081 57.1082 -3.00477L57.1082 -0.593967Q55.9989 -0.174696 54.8895 0.0393066Q53.7802 0.253309 52.6709 0.253309Q50.0155 0.253309 48.5437 -1.09622Q47.0719 -2.44575 47.0719 -4.88276Q47.0719 -7.2761 48.5175 -8.64746Q49.9631 -10.0188 52.4962 -10.0188Q54.8022 -10.0188 56.1867 -8.62999Q57.5711 -7.24116 57.5711 -4.9177ZM54.3567 -5.95714Q54.3567 -6.84809 53.837 -7.39402Q53.3173 -7.93994 52.4787 -7.93994Q51.5703 -7.93994 51.0025 -7.42896Q50.4348 -6.91797 50.295 -5.95714L54.3567 -5.95714ZM66.5942 -8.35048L66.5942 -13.5914L69.7387 -13.5914L69.7387 0L66.5942 0L66.5942 -1.41504Q65.9478 -0.550293 65.1704 -0.148492Q64.393 0.253309 63.371 0.253309Q61.5629 0.253309 60.4012 -1.18357Q59.2395 -2.62044 59.2395 -4.88276Q59.2395 -7.14507 60.4012 -8.58195Q61.5629 -10.0188 63.371 -10.0188Q64.3843 -10.0188 65.166 -9.61266Q65.9478 -9.20649 66.5942 -8.35048ZM64.5328 -2.01774Q65.5373 -2.01774 66.0657 -2.75146Q66.5942 -3.48519 66.5942 -4.88276Q66.5942 -6.28033 66.0657 -7.01405Q65.5373 -7.74778 64.5328 -7.74778Q63.537 -7.74778 63.0085 -7.01405Q62.4801 -6.28033 62.4801 -4.88276Q62.4801 -3.48519 63.0085 -2.75146Q63.537 -2.01774 64.5328 -2.01774ZM79.1112 -13.0411L84.6927 -13.0411Q87.1821 -13.0411 88.5142 -11.9361Q89.8463 -10.8312 89.8463 -8.78722Q89.8463 -6.73454 88.5142 -5.62958Q87.1821 -4.52463 84.6927 -4.52463L82.4741 -4.52463L82.4741 0L79.1112 0L79.1112 -13.0411ZM82.4741 -10.6041L82.4741 -6.96164L84.3346 -6.96164Q85.3129 -6.96164 85.8457 -7.43769Q86.3785 -7.91374 86.3785 -8.78722Q86.3785 -9.6607 85.8457 -10.1324Q85.3129 -10.6041 84.3346 -10.6041L82.4741 -10.6041ZM92.0824 -9.78299L95.2094 -9.78299L95.2094 0L92.0824 0L92.0824 -9.78299ZM92.0824 -13.5914L95.2094 -13.5914L95.2094 -11.0408L92.0824 -11.0408L92.0824 -13.5914ZM107.98 -4.9177L107.98 -4.02675L100.669 -4.02675Q100.782 -2.92616 101.464 -2.37587Q102.145 -1.82558 103.368 -1.82558Q104.355 -1.82558 105.39 -2.11819Q106.425 -2.41081 107.517 -3.00477L107.517 -0.593967Q106.407 -0.174696 105.298 0.0393066Q104.189 0.253309 103.079 0.253309Q100.424 0.253309 98.9523 -1.09622Q97.4805 -2.44575 97.4805 -4.88276Q97.4805 -7.2761 98.9261 -8.64746Q100.372 -10.0188 102.905 -10.0188Q105.211 -10.0188 106.595 -8.62999Q107.98 -7.24116 107.98 -4.9177ZM104.765 -5.95714Q104.765 -6.84809 104.246 -7.39402Q103.726 -7.93994 102.887 -7.93994Q101.979 -7.93994 101.411 -7.42896Q100.843 -6.91797 100.704 -5.95714L104.765 -5.95714ZM116.033 -6.02702L132 -6.02702L132 -3.77344L116.033 -3.77344L116.033 -6.02702ZM145.609 -7.25863Q146.666 -7.25863 147.125 -7.65169Q147.583 -8.04476 147.583 -8.94444Q147.583 -9.83539 147.125 -10.2197Q146.666 -10.6041 145.609 -10.6041L144.194 -10.6041L144.194 -7.25863L145.609 -7.25863ZM144.194 -4.93517L144.194 0L140.831 0L140.831 -13.0411L145.967 -13.0411Q148.544 -13.0411 149.745 -12.1763Q150.946 -11.3116 150.946 -9.44233Q150.946 -8.14958 150.322 -7.31977Q149.697 -6.48996 148.439 -6.0969Q149.129 -5.93967 149.675 -5.38501Q150.221 -4.83035 150.78 -3.70356L152.606 0L149.025 0L147.435 -3.24061Q146.954 -4.21891 146.461 -4.57704Q145.967 -4.93517 145.146 -4.93517L144.194 -4.93517ZM164.232 -4.9177L164.232 -4.02675L156.921 -4.02675Q157.034 -2.92616 157.716 -2.37587Q158.397 -1.82558 159.62 -1.82558Q160.607 -1.82558 161.642 -2.11819Q162.677 -2.41081 163.769 -3.00477L163.769 -0.593967Q162.66 -0.174696 161.55 0.0393066Q160.441 0.253309 159.332 0.253309Q156.676 0.253309 155.204 -1.09622Q153.733 -2.44575 153.733 -4.88276Q153.733 -7.2761 155.178 -8.64746Q156.624 -10.0188 159.157 -10.0188Q161.463 -10.0188 162.847 -8.62999Q164.232 -7.24116 164.232 -4.9177ZM161.017 -5.95714Q161.017 -6.84809 160.498 -7.39402Q159.978 -7.93994 159.139 -7.93994Q158.231 -7.93994 157.663 -7.42896Q157.096 -6.91797 156.956 -5.95714L161.017 -5.95714ZM165.367 -9.78299L168.494 -9.78299L170.931 -3.02224L173.36 -9.78299L176.496 -9.78299L172.644 0L169.211 0L165.367 -9.78299ZM188.025 -4.9177L188.025 -4.02675L180.714 -4.02675Q180.828 -2.92616 181.509 -2.37587Q182.191 -1.82558 183.414 -1.82558Q184.401 -1.82558 185.436 -2.11819Q186.471 -2.41081 187.563 -3.00477L187.563 -0.593967Q186.453 -0.174696 185.344 0.0393066Q184.235 0.253309 183.125 0.253309Q180.47 0.253309 178.998 -1.09622Q177.526 -2.44575 177.526 -4.88276Q177.526 -7.2761 178.972 -8.64746Q180.417 -10.0188 182.951 -10.0188Q185.257 -10.0188 186.641 -8.62999Q188.025 -7.24116 188.025 -4.9177ZM184.811 -5.95714Q184.811 -6.84809 184.291 -7.39402Q183.772 -7.93994 182.933 -7.93994Q182.025 -7.93994 181.457 -7.42896Q180.889 -6.91797 180.749 -5.95714L184.811 -5.95714ZM200.228 -5.95714L200.228 0L197.083 0L197.083 -0.969564L197.083 -4.55957Q197.083 -5.82612 197.027 -6.30653Q196.97 -6.78695 196.83 -7.01405Q196.647 -7.31977 196.332 -7.4901Q196.018 -7.66043 195.616 -7.66043Q194.638 -7.66043 194.079 -6.90487Q193.52 -6.14931 193.52 -4.81288L193.52 0L190.393 0L190.393 -9.78299L193.52 -9.78299L193.52 -8.35048Q194.227 -9.20649 195.022 -9.61266Q195.817 -10.0188 196.778 -10.0188Q198.472 -10.0188 199.35 -8.97938Q200.228 -7.93994 200.228 -5.95714ZM203.023 -3.80838L203.023 -9.78299L206.168 -9.78299L206.168 -8.80469Q206.168 -8.00982 206.159 -6.80878Q206.15 -5.60775 206.15 -5.20595Q206.15 -4.02675 206.211 -3.50703Q206.273 -2.9873 206.421 -2.75146Q206.613 -2.44575 206.923 -2.27979Q207.233 -2.11382 207.635 -2.11382Q208.613 -2.11382 209.172 -2.86502Q209.731 -3.61621 209.731 -4.95264L209.731 -9.78299L212.859 -9.78299L212.859 0L209.731 0L209.731 -1.41504Q209.024 -0.559028 208.233 -0.152859Q207.443 0.253309 206.491 0.253309Q204.796 0.253309 203.91 -0.786133Q203.023 -1.82558 203.023 -3.80838ZM225.629 -4.9177L225.629 -4.02675L218.318 -4.02675Q218.431 -2.92616 219.113 -2.37587Q219.794 -1.82558 221.017 -1.82558Q222.004 -1.82558 223.039 -2.11819Q224.074 -2.41081 225.166 -3.00477L225.166 -0.593967Q224.057 -0.174696 222.947 0.0393066Q221.838 0.253309 220.729 0.253309Q218.073 0.253309 216.601 -1.09622Q215.13 -2.44575 215.13 -4.88276Q215.13 -7.2761 216.575 -8.64746Q218.021 -10.0188 220.554 -10.0188Q222.86 -10.0188 224.244 -8.62999Q225.629 -7.24116 225.629 -4.9177ZM222.414 -5.95714Q222.414 -6.84809 221.895 -7.39402Q221.375 -7.93994 220.536 -7.93994Q219.628 -7.93994 219.06 -7.42896Q218.493 -6.91797 218.353 -5.95714L222.414 -5.95714ZM239.43 -2.01774Q240.434 -2.01774 240.963 -2.75146Q241.491 -3.48519 241.491 -4.88276Q241.491 -6.28033 240.963 -7.01405Q240.434 -7.74778 239.43 -7.74778Q238.425 -7.74778 237.888 -7.00968Q237.351 -6.27159 237.351 -4.88276Q237.351 -3.49392 237.888 -2.75583Q238.425 -2.01774 239.43 -2.01774ZM237.351 -8.35048Q237.997 -9.20649 238.783 -9.61266Q239.57 -10.0188 240.592 -10.0188Q242.4 -10.0188 243.561 -8.58195Q244.723 -7.14507 244.723 -4.88276Q244.723 -2.62044 243.561 -1.18357Q242.4 0.253309 240.592 0.253309Q239.57 0.253309 238.783 -0.152859Q237.997 -0.559028 237.351 -1.41504L237.351 0L234.224 0L234.224 -13.5914L237.351 -13.5914L237.351 -8.35048ZM245.745 -9.78299L248.872 -9.78299L251.501 -3.14453L253.737 -9.78299L256.865 -9.78299L252.75 0.92589Q252.13 2.5593 251.305 3.21004Q250.479 3.86079 249.125 3.86079L247.317 3.86079L247.317 1.80811L248.296 1.80811Q249.091 1.80811 249.453 1.5548Q249.816 1.30149 250.016 0.646376L250.104 0.375597L245.745 -9.78299ZM271.574 -8.35048L271.574 -13.5914L274.718 -13.5914L274.718 0L271.574 0L271.574 -1.41504Q270.928 -0.550293 270.15 -0.148492Q269.373 0.253309 268.351 0.253309Q266.543 0.253309 265.381 -1.18357Q264.219 -2.62044 264.219 -4.88276Q264.219 -7.14507 265.381 -8.58195Q266.543 -10.0188 268.351 -10.0188Q269.364 -10.0188 270.146 -9.61266Q270.928 -9.20649 271.574 -8.35048ZM269.513 -2.01774Q270.517 -2.01774 271.045 -2.75146Q271.574 -3.48519 271.574 -4.88276Q271.574 -6.28033 271.045 -7.01405Q270.517 -7.74778 269.513 -7.74778Q268.517 -7.74778 267.988 -7.01405Q267.46 -6.28033 267.46 -4.88276Q267.46 -3.48519 267.988 -2.75146Q268.517 -2.01774 269.513 -2.01774ZM287.489 -4.9177L287.489 -4.02675L280.178 -4.02675Q280.291 -2.92616 280.973 -2.37587Q281.654 -1.82558 282.877 -1.82558Q283.864 -1.82558 284.899 -2.11819Q285.934 -2.41081 287.026 -3.00477L287.026 -0.593967Q285.917 -0.174696 284.807 0.0393066Q283.698 0.253309 282.589 0.253309Q279.933 0.253309 278.461 -1.09622Q276.99 -2.44575 276.99 -4.88276Q276.99 -7.2761 278.435 -8.64746Q279.881 -10.0188 282.414 -10.0188Q284.72 -10.0188 286.104 -8.62999Q287.489 -7.24116 287.489 -4.9177ZM284.274 -5.95714Q284.274 -6.84809 283.755 -7.39402Q283.235 -7.93994 282.396 -7.93994Q281.488 -7.93994 280.92 -7.42896Q280.352 -6.91797 280.213 -5.95714L284.274 -5.95714ZM292.983 -1.41504L292.983 3.72103L289.856 3.72103L289.856 -9.78299L292.983 -9.78299L292.983 -8.35048Q293.629 -9.20649 294.415 -9.61266Q295.202 -10.0188 296.224 -10.0188Q298.032 -10.0188 299.193 -8.58195Q300.355 -7.14507 300.355 -4.88276Q300.355 -2.62044 299.193 -1.18357Q298.032 0.253309 296.224 0.253309Q295.202 0.253309 294.415 -0.152859Q293.629 -0.559028 292.983 -1.41504ZM295.062 -7.74778Q294.057 -7.74778 293.52 -7.00968Q292.983 -6.27159 292.983 -4.88276Q292.983 -3.49392 293.52 -2.75583Q294.057 -2.01774 295.062 -2.01774Q296.066 -2.01774 296.595 -2.75146Q297.123 -3.48519 297.123 -4.88276Q297.123 -6.28033 296.595 -7.01405Q296.066 -7.74778 295.062 -7.74778ZM307.046 -4.40234Q306.068 -4.40234 305.574 -4.07042Q305.081 -3.7385 305.081 -3.09212Q305.081 -2.49816 305.478 -2.16187Q305.876 -1.82558 306.583 -1.82558Q307.465 -1.82558 308.068 -2.45885Q308.671 -3.09212 308.671 -4.04422L308.671 -4.40234L307.046 -4.40234ZM311.824 -5.58154L311.824 0L308.671 0L308.671 -1.44998Q308.042 -0.559028 307.256 -0.152859Q306.47 0.253309 305.343 0.253309Q303.823 0.253309 302.875 -0.633274Q301.927 -1.51986 301.927 -2.9349Q301.927 -4.65565 303.111 -5.45926Q304.295 -6.26286 306.828 -6.26286L308.671 -6.26286L308.671 -6.50743Q308.671 -7.24989 308.085 -7.59492Q307.5 -7.93994 306.26 -7.93994Q305.255 -7.93994 304.391 -7.73904Q303.526 -7.53814 302.783 -7.13634L302.783 -9.52094Q303.788 -9.76552 304.801 -9.89217Q305.814 -10.0188 306.828 -10.0188Q309.474 -10.0188 310.649 -8.97502Q311.824 -7.93121 311.824 -5.58154ZM322 -7.11887Q321.589 -7.31103 321.183 -7.40275Q320.777 -7.49447 320.367 -7.49447Q319.161 -7.49447 318.51 -6.72144Q317.86 -5.94841 317.86 -4.50716L317.86 0L314.733 0L314.733 -9.78299L317.86 -9.78299L317.86 -8.17578Q318.462 -9.13661 319.244 -9.57772Q320.026 -10.0188 321.118 -10.0188Q321.275 -10.0188 321.458 -10.0057Q321.642 -9.99262 321.991 -9.94895L322 -7.11887ZM326.97 -12.5607L326.97 -9.78299L330.193 -9.78299L330.193 -7.54688L326.97 -7.54688L326.97 -3.39784Q326.97 -2.71653 327.241 -2.47632Q327.512 -2.23611 328.315 -2.23611L329.922 -2.23611L329.922 0L327.241 0Q325.389 0 324.616 -0.773031Q323.843 -1.54606 323.843 -3.39784L323.843 -7.54688L322.288 -7.54688L322.288 -9.78299L323.843 -9.78299L323.843 -12.5607L326.97 -12.5607ZM341.173 -8.15831Q341.767 -9.06673 342.584 -9.54278Q343.4 -10.0188 344.379 -10.0188Q346.064 -10.0188 346.947 -8.97938Q347.829 -7.93994 347.829 -5.95714L347.829 0L344.684 0L344.684 -5.10113Q344.693 -5.21468 344.697 -5.33697Q344.702 -5.45926 344.702 -5.68636Q344.702 -6.7258 344.396 -7.19312Q344.09 -7.66043 343.409 -7.66043Q342.518 -7.66043 342.033 -6.9267Q341.548 -6.19298 341.531 -4.80414L341.531 0L338.387 0L338.387 -5.10113Q338.387 -6.7258 338.107 -7.19312Q337.827 -7.66043 337.111 -7.66043Q336.212 -7.66043 335.722 -6.92234Q335.233 -6.18424 335.233 -4.81288L335.233 0L332.089 0L332.089 -9.78299L335.233 -9.78299L335.233 -8.35048Q335.81 -9.18028 336.557 -9.59956Q337.303 -10.0188 338.203 -10.0188Q339.216 -10.0188 339.994 -9.52968Q340.771 -9.04053 341.173 -8.15831ZM360.512 -4.9177L360.512 -4.02675L353.201 -4.02675Q353.314 -2.92616 353.996 -2.37587Q354.677 -1.82558 355.9 -1.82558Q356.887 -1.82558 357.922 -2.11819Q358.957 -2.41081 360.049 -3.00477L360.049 -0.593967Q358.94 -0.174696 357.83 0.0393066Q356.721 0.253309 355.612 0.253309Q352.956 0.253309 351.484 -1.09622Q350.013 -2.44575 350.013 -4.88276Q350.013 -7.2761 351.458 -8.64746Q352.904 -10.0188 355.437 -10.0188Q357.743 -10.0188 359.127 -8.62999Q360.512 -7.24116 360.512 -4.9177ZM357.297 -5.95714Q357.297 -6.84809 356.778 -7.39402Q356.258 -7.93994 355.419 -7.93994Q354.511 -7.93994 353.943 -7.42896Q353.375 -6.91797 353.236 -5.95714L357.297 -5.95714ZM372.714 -5.95714L372.714 0L369.57 0L369.57 -0.969564L369.57 -4.55957Q369.57 -5.82612 369.513 -6.30653Q369.456 -6.78695 369.316 -7.01405Q369.133 -7.31977 368.819 -7.4901Q368.504 -7.66043 368.102 -7.66043Q367.124 -7.66043 366.565 -6.90487Q366.006 -6.14931 366.006 -4.81288L366.006 0L362.879 0L362.879 -9.78299L366.006 -9.78299L366.006 -8.35048Q366.714 -9.20649 367.508 -9.61266Q368.303 -10.0188 369.264 -10.0188Q370.959 -10.0188 371.836 -8.97938Q372.714 -7.93994 372.714 -5.95714ZM379.03 -12.5607L379.03 -9.78299L382.253 -9.78299L382.253 -7.54688L379.03 -7.54688L379.03 -3.39784Q379.03 -2.71653 379.3 -2.47632Q379.571 -2.23611 380.375 -2.23611L381.982 -2.23611L381.982 0L379.3 0Q377.449 0 376.676 -0.773031Q375.903 -1.54606 375.903 -3.39784L375.903 -7.54688L374.348 -7.54688L374.348 -9.78299L375.903 -9.78299L375.903 -12.5607L379.03 -12.5607ZM394.778 -4.40234Q393.8 -4.40234 393.307 -4.07042Q392.813 -3.7385 392.813 -3.09212Q392.813 -2.49816 393.211 -2.16187Q393.608 -1.82558 394.315 -1.82558Q395.198 -1.82558 395.8 -2.45885Q396.403 -3.09212 396.403 -4.04422L396.403 -4.40234L394.778 -4.40234ZM399.556 -5.58154L399.556 0L396.403 0L396.403 -1.44998Q395.774 -0.559028 394.988 -0.152859Q394.202 0.253309 393.075 0.253309Q391.555 0.253309 390.608 -0.633274Q389.66 -1.51986 389.66 -2.9349Q389.66 -4.65565 390.843 -5.45926Q392.027 -6.26286 394.56 -6.26286L396.403 -6.26286L396.403 -6.50743Q396.403 -7.24989 395.818 -7.59492Q395.233 -7.93994 393.992 -7.93994Q392.988 -7.93994 392.123 -7.73904Q391.258 -7.53814 390.516 -7.13634L390.516 -9.52094Q391.52 -9.76552 392.534 -9.89217Q393.547 -10.0188 394.56 -10.0188Q397.207 -10.0188 398.382 -8.97502Q399.556 -7.93121 399.556 -5.58154ZM412.3 -5.95714L412.3 0L409.156 0L409.156 -0.969564L409.156 -4.55957Q409.156 -5.82612 409.099 -6.30653Q409.042 -6.78695 408.903 -7.01405Q408.719 -7.31977 408.405 -7.4901Q408.09 -7.66043 407.688 -7.66043Q406.71 -7.66043 406.151 -6.90487Q405.592 -6.14931 405.592 -4.81288L405.592 0L402.465 0L402.465 -9.78299L405.592 -9.78299L405.592 -8.35048Q406.3 -9.20649 407.095 -9.61266Q407.889 -10.0188 408.85 -10.0188Q410.545 -10.0188 411.423 -8.97938Q412.3 -7.93994 412.3 -5.95714ZM421.856 -8.35048L421.856 -13.5914L425.001 -13.5914L425.001 0L421.856 0L421.856 -1.41504Q421.21 -0.550293 420.433 -0.148492Q419.655 0.253309 418.633 0.253309Q416.825 0.253309 415.663 -1.18357Q414.502 -2.62044 414.502 -4.88276Q414.502 -7.14507 415.663 -8.58195Q416.825 -10.0188 418.633 -10.0188Q419.646 -10.0188 420.428 -9.61266Q421.21 -9.20649 421.856 -8.35048ZM419.795 -2.01774Q420.799 -2.01774 421.328 -2.75146Q421.856 -3.48519 421.856 -4.88276Q421.856 -6.28033 421.328 -7.01405Q420.799 -7.74778 419.795 -7.74778Q418.799 -7.74778 418.271 -7.01405Q417.742 -6.28033 417.742 -4.88276Q417.742 -3.48519 418.271 -2.75146Q418.799 -2.01774 419.795 -2.01774ZM437.361 -1.41504L437.361 3.72103L434.234 3.72103L434.234 -9.78299L437.361 -9.78299L437.361 -8.35048Q438.007 -9.20649 438.793 -9.61266Q439.579 -10.0188 440.601 -10.0188Q442.409 -10.0188 443.571 -8.58195Q444.733 -7.14507 444.733 -4.88276Q444.733 -2.62044 443.571 -1.18357Q442.409 0.253309 440.601 0.253309Q439.579 0.253309 438.793 -0.152859Q438.007 -0.559028 437.361 -1.41504ZM439.44 -7.74778Q438.435 -7.74778 437.898 -7.00968Q437.361 -6.27159 437.361 -4.88276Q437.361 -3.49392 437.898 -2.75583Q438.435 -2.01774 439.44 -2.01774Q440.444 -2.01774 440.972 -2.75146Q441.501 -3.48519 441.501 -4.88276Q441.501 -6.28033 440.972 -7.01405Q440.444 -7.74778 439.44 -7.74778ZM454.306 -7.11887Q453.896 -7.31103 453.489 -7.40275Q453.083 -7.49447 452.673 -7.49447Q451.467 -7.49447 450.817 -6.72144Q450.166 -5.94841 450.166 -4.50716L450.166 0L447.039 0L447.039 -9.78299L450.166 -9.78299L450.166 -8.17578Q450.769 -9.13661 451.55 -9.57772Q452.332 -10.0188 453.424 -10.0188Q453.581 -10.0188 453.765 -10.0057Q453.948 -9.99262 454.297 -9.94895L454.306 -7.11887ZM460.517 -7.78271Q459.477 -7.78271 458.931 -7.03589Q458.385 -6.28906 458.385 -4.88276Q458.385 -3.47645 458.931 -2.72963Q459.477 -1.9828 460.517 -1.9828Q461.539 -1.9828 462.08 -2.72963Q462.622 -3.47645 462.622 -4.88276Q462.622 -6.28906 462.08 -7.03589Q461.539 -7.78271 460.517 -7.78271ZM460.517 -10.0188Q463.041 -10.0188 464.46 -8.6562Q465.88 -7.29357 465.88 -4.88276Q465.88 -2.47195 464.46 -1.10932Q463.041 0.253309 460.517 0.253309Q457.983 0.253309 456.555 -1.10932Q455.127 -2.47195 455.127 -4.88276Q455.127 -7.29357 456.555 -8.6562Q457.983 -10.0188 460.517 -10.0188ZM474.807 -8.35048L474.807 -13.5914L477.951 -13.5914L477.951 0L474.807 0L474.807 -1.41504Q474.16 -0.550293 473.383 -0.148492Q472.606 0.253309 471.584 0.253309Q469.776 0.253309 468.614 -1.18357Q467.452 -2.62044 467.452 -4.88276Q467.452 -7.14507 468.614 -8.58195Q469.776 -10.0188 471.584 -10.0188Q472.597 -10.0188 473.379 -9.61266Q474.16 -9.20649 474.807 -8.35048ZM472.745 -2.01774Q473.75 -2.01774 474.278 -2.75146Q474.807 -3.48519 474.807 -4.88276Q474.807 -6.28033 474.278 -7.01405Q473.75 -7.74778 472.745 -7.74778Q471.75 -7.74778 471.221 -7.01405Q470.693 -6.28033 470.693 -4.88276Q470.693 -3.48519 471.221 -2.75146Q471.75 -2.01774 472.745 -2.01774ZM480.851 -3.80838L480.851 -9.78299L483.996 -9.78299L483.996 -8.80469Q483.996 -8.00982 483.987 -6.80878Q483.978 -5.60775 483.978 -5.20595Q483.978 -4.02675 484.039 -3.50703Q484.101 -2.9873 484.249 -2.75146Q484.441 -2.44575 484.751 -2.27979Q485.061 -2.11382 485.463 -2.11382Q486.442 -2.11382 487.001 -2.86502Q487.56 -3.61621 487.56 -4.95264L487.56 -9.78299L490.687 -9.78299L490.687 0L487.56 0L487.56 -1.41504Q486.852 -0.559028 486.062 -0.152859Q485.271 0.253309 484.319 0.253309Q482.624 0.253309 481.738 -0.786133Q480.851 -1.82558 480.851 -3.80838ZM501.596 -9.47727L501.596 -6.9267Q500.959 -7.36344 500.317 -7.57308Q499.675 -7.78271 498.985 -7.78271Q497.674 -7.78271 496.945 -7.01842Q496.216 -6.25412 496.216 -4.88276Q496.216 -3.51139 496.945 -2.7471Q497.674 -1.9828 498.985 -1.9828Q499.718 -1.9828 500.378 -2.20117Q501.037 -2.41954 501.596 -2.84755L501.596 -0.288249C501.107 -0.107729 500.611 0.0276602 500.107 0.11792Q499.352 0.253309 498.592 0.253309Q495.945 0.253309 494.451 -1.10495Q492.958 -2.46322 492.958 -4.88276Q492.958 -7.3023 494.451 -8.66056Q495.945 -10.0188 498.592 -10.0188Q499.36 -10.0188 500.107 -9.88344Q500.854 -9.74805 501.596 -9.47727ZM507.711 -12.5607L507.711 -9.78299L510.934 -9.78299L510.934 -7.54688L507.711 -7.54688L507.711 -3.39784Q507.711 -2.71653 507.982 -2.47632Q508.252 -2.23611 509.056 -2.23611L510.663 -2.23611L510.663 0L507.982 0Q506.13 0 505.357 -0.773031Q504.584 -1.54606 504.584 -3.39784L504.584 -7.54688L503.029 -7.54688L503.029 -9.78299L504.584 -9.78299L504.584 -12.5607L507.711 -12.5607Z" fill="#262626" transform="translate(360,24.099999999999998) translate(-255.6722412109375,0)" />
<rect x="90" y="86" width="558" height="555" fill="#FFFFFF" />
<path d="M 369 363.5 L 502.75 363.5 A 133.75 133.75 0 0 1 298.2510636187688 477.006169439923 Z " fill="#4E79A7" stroke="#FFFFFF" stroke-width="1" />
<path d="M 502.75 363.5 L 636.5 363.5 A 267.5 267.5 0 0 1 498.8182749770642 597.3877198186757 L 433.9091374885321 480.44385990933785 A 133.75 133.75 0 0 0 502.75 363.5 Z " fill="#6A95C1" stroke="#FFFFFF" stroke-width="1" />
<path d="M 433.9091374885321 480.44385990933785 L 498.8182749770642 597.3877198186757 A 267.5 267.5 0 0 1 315.15264587628354 625.5242592850423 L 342.0763229381418 494.51212964252113 A 133.75 133.75 0 0 0 433.9091374885321 480.44385990933785 Z " fill="#80A8CE" stroke="#FFFFFF" stroke-width="1" />
<path d="M 342.0763229381418 494.51212964252113 L 315.15264587628354 625.5242592850423 A 267.5 267.5 0 0 1 227.50212723753774 590.512338879846 L 298.25106361876885 477.006169439923 A 133.75 133.75 0 0 0 342.0763229381418 494.51212964252113 Z " fill="#98BBDB" stroke="#FFFFFF" stroke-width="1" />
<path d="M 369 363.5 L 298.2510636187688 477.006169439923 A 133.75 133.75 0 0 1 252.0561400906621 298.590862511468 Z " fill="#F28E2B" stroke="#FFFFFF" stroke-width="1" />
<path d="M 298.2510636187688 477.006169439923 L 227.50212723753762 590.512338879846 A 267.5 267.5 0 0 1 128.83728566482668 481.30543554166735 L 248.91864283241335 422.40271777083365 A 133.75 133.75 0 0 0 298.2510636187688 477.006169439923 Z " fill="#F4A455" stroke="#FFFFFF" stroke-width="1" />
<path d="M 248.91864283241335 422.40271777083365 L 128.83728566482668 481.30543554166735 A 267.5 267.5 0 0 1 106.97574071495768 309.6526458762836 L 237.98787035747884 336.5763229381418 A 133.75 133.75 0 0 0 248.91864283241335 422.40271777083365 Z " fill="#F6B97F" stroke="#FFFFFF" stroke-width="1" />
<path d="M 237.98787035747884 336.5763229381418 L 106.97574071495768 309.6526458762836 A 267.5 267.5 0 0 1 135.1122801813242 233.68172502293598 L 252.0561400906621 298.590862511468 A 133.75 133.75 0 0 0 237.98787035747884 336.5763229381418 Z " fill="#F8CCA9" stroke="#FFFFFF" stroke-width="1" />
<path d="M 369 363.5 L 252.0561400906621 298.590862511468 A 133.75 133.75 0 0 1 348.74653475876283 231.2923616211151 Z " fill="#59A14F" stroke="#FFFFFF" stroke-width="1" />
<path d="M 252.0561400906621 298.590862511468 L 135.1122801813242 233.68172502293598 A 267.5 267.5 0 0 1 216.18575246214286 143.94577947705375 L 292.59287623107144 253.72288973852687 A 133.75 133.75 0 0 0 252.0561400906621 298.590862511468 Z " fill="#77B56F" stroke="#FFFFFF" stroke-width="1" />
<path d="M 292.59287623107144 253.72288973852687 L 216.18575246214286 143.94577947705375 A 267.5 267.5 0 0 1 282.48033843757867 110.3782937732837 L 325.74016921878933 236.93914688664185 A 133.75 133.75 0 0 0 292.59287623107144 253.72288973852687 Z " fill="#94C78F" stroke="#FFFFFF" stroke-width="1" />
<path d="M 325.74016921878933 236.93914688664185 L 282.48033843757867 110.3782937732837 A 267.5 267.5 0 0 1 328.49306951752567 99.08472324223021 L 348.74653475876283 231.2923616211151 A 133.75 133.75 0 0 0 325.74016921878933 236.93914688664185 Z " fill="#B2D9AF" stroke="#FFFFFF" stroke-width="1" />
<path d="M 369 363.5 L 348.74653475876283 231.2923616211151 A 133.75 133.75 0 0 1 502.75 363.49999999999983 Z " fill="#E15759" stroke="#FFFFFF" stroke-width="1" />
<path d="M 348.74653475876283 231.2923616211151 L 328.49306951752567 99.08472324223021 A 267.5 267.5 0 0 1 527.3271100155271 147.88743952605358 L 448.16355500776353 255.6937197630268 A 133.75 133.75 0 0 0 348.74653475876283 231.2923616211151 Z " fill="#E77778" stroke="#FFFFFF" stroke-width="1" />
<path d="M 448.16355500776353 255.6937197630268 L 527.3271100155271 147.88743952605358 A 267.5 267.5 0 0 1 622.1217062267162 276.98033843757867 L 495.5608531133581 320.24016921878933 A 133.75 133.75 0 0 0 448.16355500776353 255.6937197630268 Z " fill="#ED9798" stroke="#FFFFFF" stroke-width="1" />
<path d="M 495.5608531133581 320.24016921878933 L 622.1217062267162 276.98033843757867 A 267.5 267.5 0 0 1 636.5 363.4999999999997 L 502.75 363.49999999999983 A 133.75 133.75 0 0 0 495.5608531133581 320.24016921878933 Z " fill="#F3B7B8" stroke="#FFFFFF" stroke-width="1" />
<path d="M1.26497 -9.39605L7.20595 -9.39605L7.20595 -8.32617L2.53624 -8.32617L2.53624 -5.54449L7.01085 -5.54449L7.01085 -4.47461L2.53624 -4.47461L2.53624 -1.06988L7.31923 -1.06988L7.31923 0L1.26497 0L1.26497 -9.39605ZM9.35829 -9.79253L10.5163 -9.79253L10.5163 0L9.35829 0L9.35829 -9.79253ZM18.9683 -3.8138L18.9683 -3.2474L13.6441 -3.2474Q13.7196 -2.05165 14.3647 -1.42546Q15.0098 -0.799262 16.1615 -0.799262Q16.8286 -0.799262 17.4548 -0.962891Q18.0809 -1.12652 18.6977 -1.45378L18.6977 -0.358724Q18.0747 -0.094401 17.4201 0.0440538Q16.7656 0.182509 16.0922 0.182509Q14.4056 0.182509 13.4207 -0.799262Q12.4358 -1.78103 12.4358 -3.45508Q12.4358 -5.18576 13.3703 -6.20215Q14.3049 -7.21853 15.8908 -7.21853Q17.3132 -7.21853 18.1407 -6.30284Q18.9683 -5.38715 18.9683 -3.8138ZM17.8103 -4.15365Q17.7977 -5.10395 17.2785 -5.67036Q16.7593 -6.23676 15.9034 -6.23676Q14.9342 -6.23676 14.3521 -5.68924Q13.77 -5.14171 13.6819 -4.14735L17.8103 -4.15365ZM25.9414 -6.778L25.9414 -5.69553Q25.4505 -5.96615 24.9565 -6.10145Q24.4625 -6.23676 23.959 -6.23676Q22.8325 -6.23676 22.2094 -5.52246Q21.5864 -4.80816 21.5864 -3.51801Q21.5864 -2.22786 22.2094 -1.51356Q22.8325 -0.799262 23.959 -0.799262Q24.4625 -0.799262 24.9565 -0.93457Q25.4505 -1.06988 25.9414 -1.34049L25.9414 -0.270616Q25.4568 -0.0440538 24.9376 0.0692274Q24.4184 0.182509 23.8331 0.182509Q22.2409 0.182509 21.3032 -0.818142Q20.3655 -1.81879 20.3655 -3.51801Q20.3655 -5.2424 21.3126 -6.23047Q22.2598 -7.21853 23.9086 -7.21853Q24.4436 -7.21853 24.9533 -7.1084Q25.4631 -6.99826 25.9414 -6.778ZM29.1007 -9.04991L29.1007 -7.04861L31.4859 -7.04861L31.4859 -6.14865L29.1007 -6.14865L29.1007 -2.32227Q29.1007 -1.46007 29.3367 -1.21463Q29.5727 -0.969184 30.2964 -0.969184L31.4859 -0.969184L31.4859 0L30.2964 0Q28.9559 0 28.4462 -0.500326Q27.9364 -1.00065 27.9364 -2.32227L27.9364 -6.14865L27.0868 -6.14865L27.0868 -7.04861L27.9364 -7.04861L27.9364 -9.04991L29.1007 -9.04991ZM37.0933 -5.96615Q36.8982 -6.07943 36.6685 -6.13292Q36.4388 -6.18641 36.1619 -6.18642Q35.1801 -6.18642 34.6546 -5.54763Q34.1291 -4.90885 34.1291 -3.71311L34.1291 0L32.9648 0L32.9648 -7.04861L34.1291 -7.04861L34.1291 -5.95356Q34.4941 -6.59549 35.0794 -6.90701Q35.6647 -7.21853 36.5017 -7.21853Q36.6213 -7.21853 36.7661 -7.2028Q36.9108 -7.18707 37.087 -7.1556L37.0933 -5.96615ZM41.0393 -6.23676Q40.1079 -6.23676 39.5666 -5.50987Q39.0254 -4.78299 39.0254 -3.51801Q39.0254 -2.25304 39.5635 -1.52615Q40.1016 -0.799262 41.0393 -0.799262Q41.9644 -0.799262 42.5056 -1.5293Q43.0469 -2.25933 43.0469 -3.51801Q43.0469 -4.7704 42.5056 -5.50358Q41.9644 -6.23676 41.0393 -6.23676ZM41.0393 -7.21853Q42.5497 -7.21853 43.4119 -6.23676Q44.2741 -5.25499 44.2741 -3.51801Q44.2741 -1.78733 43.4119 -0.802409Q42.5497 0.182509 41.0393 0.182509Q39.5226 0.182509 38.6635 -0.802409Q37.8045 -1.78733 37.8045 -3.51801Q37.8045 -5.25499 38.6635 -6.23676Q39.5226 -7.21853 41.0393 -7.21853ZM52.0527 -4.25434L52.0527 0L50.8947 0L50.8947 -4.21658Q50.8947 -5.21723 50.5046 -5.71441Q50.1144 -6.21159 49.334 -6.21159Q48.3963 -6.21159 47.855 -5.61372Q47.3138 -5.01584 47.3138 -3.98372L47.3138 0L46.1495 0L46.1495 -7.04861L47.3138 -7.04861L47.3138 -5.95356Q47.7292 -6.58919 48.2924 -6.90386Q48.8557 -7.21853 49.592 -7.21853Q50.8066 -7.21853 51.4297 -6.46647Q52.0527 -5.71441 52.0527 -4.25434ZM54.3624 -7.04861L55.5204 -7.04861L55.5204 0L54.3624 0L54.3624 -7.04861ZM54.3624 -9.79253L55.5204 -9.79253L55.5204 -8.32617L54.3624 -8.32617L54.3624 -9.79253ZM63.0158 -6.778L63.0158 -5.69553Q62.525 -5.96615 62.0309 -6.10145Q61.5369 -6.23676 61.0334 -6.23676Q59.9069 -6.23676 59.2839 -5.52246Q58.6608 -4.80816 58.6608 -3.51801Q58.6608 -2.22786 59.2839 -1.51356Q59.9069 -0.799262 61.0334 -0.799262Q61.5369 -0.799262 62.0309 -0.93457Q62.525 -1.06988 63.0158 -1.34049L63.0158 -0.270616Q62.5313 -0.0440538 62.012 0.0692274Q61.4928 0.182509 60.9076 0.182509Q59.3153 0.182509 58.3776 -0.818142Q57.4399 -1.81879 57.4399 -3.51801Q57.4399 -5.2424 58.387 -6.23047Q59.3342 -7.21853 60.9831 -7.21853Q61.518 -7.21853 62.0278 -7.1084Q62.5375 -6.99826 63.0158 -6.778ZM69.5232 -6.84093L69.5232 -5.74588Q69.0323 -5.99761 68.5037 -6.12348Q67.9751 -6.24935 67.4086 -6.24935Q66.5464 -6.24935 66.1153 -5.98503Q65.6842 -5.7207 65.6842 -5.19206Q65.6842 -4.78928 65.9926 -4.55957Q66.301 -4.32986 67.2324 -4.12218L67.6289 -4.03407Q68.8624 -3.76975 69.3816 -3.2883Q69.9008 -2.80686 69.9008 -1.94466Q69.9008 -0.962891 69.1236 -0.390191Q68.3464 0.182509 66.987 0.182509Q66.4206 0.182509 65.807 0.0723741Q65.1934 -0.0377604 64.5137 -0.25803L64.5137 -1.45378Q65.1556 -1.12023 65.7786 -0.953451Q66.4017 -0.786675 67.0122 -0.786675Q67.8303 -0.786675 68.2708 -1.06673Q68.7114 -1.34679 68.7114 -1.85655Q68.7114 -2.32856 68.3936 -2.5803Q68.0757 -2.83203 66.9996 -3.06489L66.5968 -3.15929Q65.5206 -3.38585 65.0423 -3.85471Q64.564 -4.32357 64.564 -5.14171Q64.564 -6.13607 65.2689 -6.6773Q65.9737 -7.21853 67.2702 -7.21853Q67.9121 -7.21853 68.4785 -7.12413Q69.0449 -7.02973 69.5232 -6.84093Z" fill="#FFFFFF" transform="translate(401.45456874426606,421.9719299546689) translate(-35.26508331298828,0)" />
<path d="M2.53624 -8.35135L2.53624 -4.82075L4.13477 -4.82075Q5.02213 -4.82075 5.50673 -5.28017Q5.99132 -5.73958 5.99132 -6.58919Q5.99132 -7.43251 5.50673 -7.89193Q5.02214 -8.35135 4.13477 -8.35135L2.53624 -8.35135ZM1.26497 -9.39605L4.13477 -9.39605Q5.71441 -9.39605 6.52311 -8.68175Q7.33181 -7.96745 7.33181 -6.58919Q7.33181 -5.19835 6.52311 -4.4872Q5.71441 -3.77604 4.13477 -3.77604L2.53624 -3.77604L2.53624 0L1.26497 0L1.26497 -9.39605ZM14.8461 -4.25434L14.8461 0L13.6882 0L13.6882 -4.21658Q13.6882 -5.21723 13.298 -5.71441Q12.9078 -6.21159 12.1274 -6.21159Q11.1897 -6.21159 10.6484 -5.61372Q10.1072 -5.01584 10.1072 -3.98372L10.1072 0L8.94293 0L8.94293 -9.79253L10.1072 -9.79253L10.1072 -5.95356Q10.5226 -6.58919 11.0858 -6.90386Q11.6491 -7.21853 12.3854 -7.21853Q13.6 -7.21853 14.2231 -6.46647Q14.8461 -5.71441 14.8461 -4.25434ZM19.8872 -6.23676Q18.9557 -6.23676 18.4145 -5.50987Q17.8733 -4.78299 17.8733 -3.51801Q17.8733 -2.25304 18.4114 -1.52615Q18.9494 -0.799262 19.8872 -0.799262Q20.8123 -0.799262 21.3535 -1.5293Q21.8948 -2.25933 21.8948 -3.51801Q21.8948 -4.7704 21.3535 -5.50358Q20.8123 -6.23676 19.8872 -6.23676ZM19.8872 -7.21853Q21.3976 -7.21853 22.2598 -6.23676Q23.122 -5.25499 23.122 -3.51801Q23.122 -1.78733 22.2598 -0.802409Q21.3976 0.182509 19.8872 0.182509Q18.3704 0.182509 17.5114 -0.802409Q16.6523 -1.78733 16.6523 -3.51801Q16.6523 -5.25499 17.5114 -6.23676Q18.3704 -7.21853 19.8872 -7.21853ZM30.9006 -4.25434L30.9006 0L29.7426 0L29.7426 -4.21658Q29.7426 -5.21723 29.3524 -5.71441Q28.9622 -6.21159 28.1819 -6.21159Q27.2441 -6.21159 26.7029 -5.61372Q26.1617 -5.01584 26.1617 -3.98372L26.1617 0L24.9974 0L24.9974 -7.04861L26.1617 -7.04861L26.1617 -5.95356Q26.577 -6.58919 27.1403 -6.90386Q27.7036 -7.21853 28.4399 -7.21853Q29.6545 -7.21853 30.2776 -6.46647Q30.9006 -5.71441 30.9006 -4.25434ZM39.2394 -3.8138L39.2394 -3.2474L33.9151 -3.2474Q33.9907 -2.05165 34.6357 -1.42546Q35.2808 -0.799262 36.4325 -0.799262Q37.0996 -0.799262 37.7258 -0.962891Q38.352 -1.12652 38.9688 -1.45378L38.9688 -0.358724Q38.3457 -0.094401 37.6912 0.0440538Q37.0367 0.182509 36.3633 0.182509Q34.6767 0.182509 33.6917 -0.799262Q32.7068 -1.78103 32.7068 -3.45508Q32.7068 -5.18576 33.6414 -6.20215Q34.576 -7.21853 36.1619 -7.21853Q37.5842 -7.21853 38.4118 -6.30284Q39.2394 -5.38715 39.2394 -3.8138ZM38.0814 -4.15365Q38.0688 -5.10395 37.5496 -5.67036Q37.0304 -6.23676 36.1745 -6.23676Q35.2053 -6.23676 34.6232 -5.68924Q34.041 -5.14171 33.9529 -4.14735L38.0814 -4.15365ZM45.6335 -6.84093L45.6335 -5.74588Q45.1426 -5.99761 44.6139 -6.12348Q44.0853 -6.24935 43.5189 -6.24935Q42.6567 -6.24935 42.2256 -5.98503Q41.7945 -5.7207 41.7945 -5.19206Q41.7945 -4.78928 42.1029 -4.55957Q42.4112 -4.32986 43.3427 -4.12218L43.7392 -4.03407Q44.9727 -3.76975 45.4919 -3.2883Q46.0111 -2.80686 46.0111 -1.94466Q46.0111 -0.962891 45.2338 -0.390191Q44.4566 0.182509 43.0972 0.182509Q42.5308 0.182509 41.9172 0.0723741Q41.3036 -0.0377604 40.6239 -0.25803L40.6239 -1.45378Q41.2658 -1.12023 41.8889 -0.953451Q42.5119 -0.786675 43.1224 -0.786675Q43.9405 -0.786675 44.3811 -1.06673Q44.8216 -1.34679 44.8216 -1.85655Q44.8216 -2.32856 44.5038 -2.5803Q44.186 -2.83203 43.1098 -3.06489L42.707 -3.15929Q41.6309 -3.38585 41.1526 -3.85471Q40.6743 -4.32357 40.6743 -5.14171Q40.6743 -6.13607 41.3791 -6.6773Q42.084 -7.21853 43.3804 -7.21853Q44.0224 -7.21853 44.5888 -7.12413Q45.1552 -7.02973 45.6335 -6.84093Z" fill="#FFFFFF" transform="translate(541.8930076491747,465.276217904884) translate(-23.320205688476562,0)" />
<path d="M1.26497 -9.39605L2.53624 -9.39605L2.53624 -1.06988L7.11155 -1.06988L7.11155 0L1.26497 0L1.26497 -9.39605ZM11.5987 -3.54319Q10.1953 -3.54319 9.65408 -3.22222Q9.11285 -2.90126 9.11285 -2.12717Q9.11285 -1.51042 9.51877 -1.14855Q9.9247 -0.786675 10.6233 -0.786675Q11.5862 -0.786675 12.1683 -1.46951Q12.7504 -2.15234 12.7504 -3.28516L12.7504 -3.54319L11.5987 -3.54319ZM13.9084 -4.02148L13.9084 0L12.7504 0L12.7504 -1.06988Q12.3539 -0.427951 11.7624 -0.122721Q11.1708 0.182509 10.3149 0.182509Q9.23242 0.182509 8.59364 -0.424805Q7.95486 -1.03212 7.95486 -2.05165Q7.95486 -3.2411 8.75098 -3.84527Q9.54709 -4.44944 11.1267 -4.44944L12.7504 -4.44944L12.7504 -4.56272Q12.7504 -5.36198 12.2249 -5.79937Q11.6994 -6.23676 10.7491 -6.23676Q10.145 -6.23676 9.57227 -6.09201Q8.99957 -5.94727 8.47092 -5.65777L8.47092 -6.72765Q9.10655 -6.97309 9.70443 -7.09581Q10.3023 -7.21853 10.8687 -7.21853Q12.398 -7.21853 13.1532 -6.42556Q13.9084 -5.6326 13.9084 -4.02148ZM17.4138 -1.05729L17.4138 2.68099L16.2496 2.68099L16.2496 -7.04861L17.4138 -7.04861L17.4138 -5.97873Q17.7789 -6.60807 18.3358 -6.9133Q18.8928 -7.21853 19.6669 -7.21853Q20.9507 -7.21853 21.7531 -6.199Q22.5556 -5.17947 22.5556 -3.51801Q22.5556 -1.85655 21.7531 -0.837023Q20.9507 0.182509 19.6669 0.182509Q18.8928 0.182509 18.3358 -0.122721Q17.7789 -0.427951 17.4138 -1.05729ZM21.3535 -3.51801Q21.3535 -4.79557 20.828 -5.52246Q20.3025 -6.24935 19.3837 -6.24935Q18.4648 -6.24935 17.9393 -5.52246Q17.4138 -4.79557 17.4138 -3.51801Q17.4138 -2.24045 17.9393 -1.51356Q18.4648 -0.786675 19.3837 -0.786675Q20.3025 -0.786675 20.828 -1.51356Q21.3535 -2.24045 21.3535 -3.51801ZM25.6204 -9.04991L25.6204 -7.04861L28.0056 -7.04861L28.0056 -6.14865L25.6204 -6.14865L25.6204 -2.32227Q25.6204 -1.46007 25.8564 -1.21463Q26.0924 -0.969184 26.8162 -0.969184L28.0056 -0.969184L28.0056 0L26.8162 0Q25.4757 0 24.9659 -0.500326Q24.4562 -1.00065 24.4562 -2.32227L24.4562 -6.14865L23.6066 -6.14865L23.6066 -7.04861L24.4562 -7.04861L24.4562 -9.04991L25.6204 -9.04991ZM32.26 -6.23676Q31.3286 -6.23676 30.7873 -5.50987Q30.2461 -4.78299 30.2461 -3.51801Q30.2461 -2.25304 30.7842 -1.52615Q31.3223 -0.799262 32.26 -0.799262Q33.1851 -0.799262 33.7263 -1.5293Q34.2676 -2.25933 34.2676 -3.51801Q34.2676 -4.7704 33.7263 -5.50358Q33.1851 -6.23676 32.26 -6.23676ZM32.26 -7.21853Q33.7704 -7.21853 34.6326 -6.23676Q35.4948 -5.25499 35.4948 -3.51801Q35.4948 -1.78733 34.6326 -0.802409Q33.7704 0.182509 32.26 0.182509Q30.7433 0.182509 29.8842 -0.802409Q29.0252 -1.78733 29.0252 -3.51801Q29.0252 -5.25499 29.8842 -6.23676Q30.7433 -7.21853 32.26 -7.21853ZM38.5345 -1.05729L38.5345 2.68099L37.3702 2.68099L37.3702 -7.04861L38.5345 -7.04861L38.5345 -5.97873Q38.8995 -6.60807 39.4565 -6.9133Q40.0135 -7.21853 40.7875 -7.21853Q42.0714 -7.21853 42.8738 -6.199Q43.6762 -5.17947 43.6762 -3.51801Q43.6762 -1.85655 42.8738 -0.837023Q42.0714 0.182509 40.7875 0.182509Q40.0135 0.182509 39.4565 -0.122721Q38.8995 -0.427951 38.5345 -1.05729ZM42.4742 -3.51801Q42.4742 -4.79557 41.9487 -5.52246Q41.4232 -6.24935 40.5043 -6.24935Q39.5855 -6.24935 39.06 -5.52246Q38.5345 -4.79557 38.5345 -3.51801Q38.5345 -2.24045 39.06 -1.51356Q39.5855 -0.786675 40.5043 -0.786675Q41.4232 -0.786675 41.9487 -1.51356Q42.4742 -2.24045 42.4742 -3.51801ZM50.0892 -6.84093L50.0892 -5.74588Q49.5983 -5.99761 49.0697 -6.12348Q48.541 -6.24935 47.9746 -6.24935Q47.1124 -6.24935 46.6813 -5.98503Q46.2502 -5.7207 46.2502 -5.19206Q46.2502 -4.78928 46.5586 -4.55957Q46.867 -4.32986 47.7984 -4.12218L48.1949 -4.03407Q49.4284 -3.76975 49.9476 -3.2883Q50.4668 -2.80686 50.4668 -1.94466Q50.4668 -0.962891 49.6896 -0.390191Q48.9123 0.182509 47.553 0.182509Q46.9865 0.182509 46.3729 0.0723741Q45.7593 -0.0377604 45.0796 -0.25803L45.0796 -1.45378Q45.7216 -1.12023 46.3446 -0.953451Q46.9677 -0.786675 47.5781 -0.786675Q48.3963 -0.786675 48.8368 -1.06673Q49.2773 -1.34679 49.2773 -1.85655Q49.2773 -2.32856 48.9595 -2.5803Q48.6417 -2.83203 47.5655 -3.06489L47.1628 -3.15929Q46.0866 -3.38585 45.6083 -3.85471Q45.13 -4.32357 45.13 -5.14171Q45.13 -6.13607 45.8349 -6.6773Q46.5397 -7.21853 47.8362 -7.21853Q48.4781 -7.21853 49.0445 -7.12413Q49.6109 -7.02973 50.0892 -6.84093Z" fill="#FFFFFF" transform="translate(399.3801978618557,561.8114575683273) translate(-25.54806900024414,0)" />
<path d="M4.40538 -8.14366L2.68099 -3.46766L6.13607 -3.46766L4.40538 -8.14366ZM3.68793 -9.39605L5.12912 -9.39605L8.71007 0L7.38845 0L6.53255 -2.41037L2.29709 -2.41037L1.44119 0L0.100694 0L3.68793 -9.39605ZM9.91211 -2.78168L9.91211 -7.04861L11.0701 -7.04861L11.0701 -2.82574Q11.0701 -1.82509 11.4603 -1.32476Q11.8505 -0.824436 12.6309 -0.824436Q13.5686 -0.824436 14.113 -1.42231Q14.6573 -2.02018 14.6573 -3.0523L14.6573 -7.04861L15.8153 -7.04861L15.8153 0L14.6573 0L14.6573 -1.08247Q14.2357 -0.440538 13.6787 -0.129015Q13.1217 0.182509 12.3854 0.182509Q11.1708 0.182509 10.5415 -0.5727Q9.91211 -1.32791 9.91211 -2.78168ZM22.8388 -5.97873L22.8388 -9.79253L23.9967 -9.79253L23.9967 0L22.8388 0L22.8388 -1.05729Q22.4737 -0.427951 21.9168 -0.122721Q21.3598 0.182509 20.5794 0.182509Q19.3019 0.182509 18.4995 -0.837023Q17.6971 -1.85655 17.6971 -3.51801Q17.6971 -5.17947 18.4995 -6.199Q19.3019 -7.21853 20.5794 -7.21853Q21.3598 -7.21853 21.9168 -6.9133Q22.4737 -6.60807 22.8388 -5.97873ZM18.8928 -3.51801Q18.8928 -2.24045 19.4183 -1.51356Q19.9438 -0.786675 20.8626 -0.786675Q21.7815 -0.786675 22.3101 -1.51356Q22.8388 -2.24045 22.8388 -3.51801Q22.8388 -4.79557 22.3101 -5.52246Q21.7815 -6.24935 20.8626 -6.24935Q19.9438 -6.24935 19.4183 -5.52246Q18.8928 -4.79557 18.8928 -3.51801ZM26.3819 -7.04861L27.5399 -7.04861L27.5399 0L26.3819 0L26.3819 -7.04861ZM26.3819 -9.79253L27.5399 -9.79253L27.5399 -8.32617L26.3819 -8.32617L26.3819 -9.79253ZM32.6942 -6.23676Q31.7628 -6.23676 31.2216 -5.50987Q30.6803 -4.78299 30.6803 -3.51801Q30.6803 -2.25304 31.2184 -1.52615Q31.7565 -0.799262 32.6942 -0.799262Q33.6194 -0.799262 34.1606 -1.5293Q34.7018 -2.25933 34.7018 -3.51801Q34.7018 -4.7704 34.1606 -5.50358Q33.6194 -6.23676 32.6942 -6.23676ZM32.6942 -7.21853Q34.2046 -7.21853 35.0668 -6.23676Q35.929 -5.25499 35.929 -3.51801Q35.929 -1.78733 35.0668 -0.802409Q34.2046 0.182509 32.6942 0.182509Q31.1775 0.182509 30.3185 -0.802409Q29.4594 -1.78733 29.4594 -3.51801Q29.4594 -5.25499 30.3185 -6.23676Q31.1775 -7.21853 32.6942 -7.21853Z" fill="#FFFFFF" transform="translate(294.5782363255029,549.8110080391851) translate(-18.31694984436035,0)" />
<path d="M4.40538 -8.14366L2.68099 -3.46766L6.13607 -3.46766L4.40538 -8.14366ZM3.68793 -9.39605L5.12912 -9.39605L8.71007 0L7.38845 0L6.53255 -2.41037L2.29709 -2.41037L1.44119 0L0.100694 0L3.68793 -9.39605ZM11.1519 -1.05729L11.1519 2.68099L9.98763 2.68099L9.98763 -7.04861L11.1519 -7.04861L11.1519 -5.97873Q11.5169 -6.60807 12.0739 -6.9133Q12.6309 -7.21853 13.4049 -7.21853Q14.6888 -7.21853 15.4912 -6.199Q16.2936 -5.17947 16.2936 -3.51801Q16.2936 -1.85655 15.4912 -0.837023Q14.6888 0.182509 13.4049 0.182509Q12.6309 0.182509 12.0739 -0.122721Q11.5169 -0.427951 11.1519 -1.05729ZM15.0916 -3.51801Q15.0916 -4.79557 14.5661 -5.52246Q14.0406 -6.24935 13.1217 -6.24935Q12.2029 -6.24935 11.6774 -5.52246Q11.1519 -4.79557 11.1519 -3.51801Q11.1519 -2.24045 11.6774 -1.51356Q12.2029 -0.786675 13.1217 -0.786675Q14.0406 -0.786675 14.5661 -1.51356Q15.0916 -2.24045 15.0916 -3.51801ZM19.3333 -1.05729L19.3333 2.68099L18.1691 2.68099L18.1691 -7.04861L19.3333 -7.04861L19.3333 -5.97873Q19.6984 -6.60807 20.2553 -6.9133Q20.8123 -7.21853 21.5864 -7.21853Q22.8702 -7.21853 23.6726 -6.199Q24.475 -5.17947 24.475 -3.51801Q24.475 -1.85655 23.6726 -0.837023Q22.8702 0.182509 21.5864 0.182509Q20.8123 0.182509 20.2553 -0.122721Q19.6984 -0.427951 19.3333 -1.05729ZM23.273 -3.51801Q23.273 -4.79557 22.7475 -5.52246Q22.222 -6.24935 21.3032 -6.24935Q20.3843 -6.24935 19.8588 -5.52246Q19.3333 -4.79557 19.3333 -3.51801Q19.3333 -2.24045 19.8588 -1.51356Q20.3843 -0.786675 21.3032 -0.786675Q22.222 -0.786675 22.7475 -1.51356Q23.273 -2.24045 23.273 -3.51801ZM29.5979 -3.54319Q28.1944 -3.54319 27.6532 -3.22222Q27.112 -2.90126 27.112 -2.12717Q27.112 -1.51042 27.5179 -1.14855Q27.9238 -0.786675 28.6224 -0.786675Q29.5853 -0.786675 30.1674 -1.46951Q30.7496 -2.15234 30.7496 -3.28516L30.7496 -3.54319L29.5979 -3.54319ZM31.9076 -4.02148L31.9076 0L30.7496 0L30.7496 -1.06988Q30.3531 -0.427951 29.7615 -0.122721Q29.1699 0.182509 28.314 0.182509Q27.2316 0.182509 26.5928 -0.424805Q25.954 -1.03212 25.954 -2.05165Q25.954 -3.2411 26.7501 -3.84527Q27.5462 -4.44944 29.1259 -4.44944L30.7496 -4.44944L30.7496 -4.56272Q30.7496 -5.36198 30.2241 -5.79937Q29.6986 -6.23676 28.7483 -6.23676Q28.1441 -6.23676 27.5714 -6.09201Q26.9987 -5.94727 26.4701 -5.65777L26.4701 -6.72765Q27.1057 -6.97309 27.7036 -7.09581Q28.3014 -7.21853 28.8678 -7.21853Q30.3971 -7.21853 31.1523 -6.42556Q31.9076 -5.6326 31.9076 -4.02148ZM38.3772 -5.96615Q38.1821 -6.07943 37.9524 -6.13292Q37.7227 -6.18641 37.4457 -6.18642Q36.464 -6.18642 35.9385 -5.54763Q35.413 -4.90885 35.413 -3.71311L35.413 0L34.2487 0L34.2487 -7.04861L35.413 -7.04861L35.413 -5.95356Q35.778 -6.59549 36.3633 -6.90701Q36.9486 -7.21853 37.7856 -7.21853Q37.9052 -7.21853 38.0499 -7.2028Q38.1947 -7.18707 38.3709 -7.1556L38.3772 -5.96615ZM45.6209 -3.8138L45.6209 -3.2474L40.2967 -3.2474Q40.3722 -2.05165 41.0173 -1.42546Q41.6623 -0.799262 42.814 -0.799262Q43.4811 -0.799262 44.1073 -0.962891Q44.7335 -1.12652 45.3503 -1.45378L45.3503 -0.358724Q44.7272 -0.094401 44.0727 0.0440538Q43.4182 0.182509 42.7448 0.182509Q41.0582 0.182509 40.0732 -0.799262Q39.0883 -1.78103 39.0883 -3.45508Q39.0883 -5.18576 40.0229 -6.20215Q40.9575 -7.21853 42.5434 -7.21853Q43.9657 -7.21853 44.7933 -6.30284Q45.6209 -5.38715 45.6209 -3.8138ZM44.4629 -4.15365Q44.4503 -5.10395 43.9311 -5.67036Q43.4119 -6.23676 42.556 -6.23676Q41.5868 -6.23676 41.0047 -5.68924Q40.4225 -5.14171 40.3344 -4.14735L44.4629 -4.15365ZM47.5215 -9.79253L48.6795 -9.79253L48.6795 0L47.5215 0L47.5215 -9.79253Z" fill="#FFFFFF" transform="translate(304.2598426758226,380.26238809480196) translate(-24.94390296936035,0)" />
<path d="M1.26497 -9.39605L3.15929 -9.39605L5.55708 -3.00195L7.96745 -9.39605L9.86176 -9.39605L9.86176 0L8.62196 0L8.62196 -8.25065L6.199 -1.80621L4.92144 -1.80621L2.49848 -8.25065L2.49848 0L1.26497 0L1.26497 -9.39605ZM18.3642 -3.8138L18.3642 -3.2474L13.0399 -3.2474Q13.1155 -2.05165 13.7605 -1.42546Q14.4056 -0.799262 15.5573 -0.799262Q16.2244 -0.799262 16.8506 -0.962891Q17.4768 -1.12652 18.0935 -1.45378L18.0935 -0.358724Q17.4705 -0.094401 16.816 0.0440538Q16.1615 0.182509 15.4881 0.182509Q13.8014 0.182509 12.8165 -0.799262Q11.8316 -1.78103 11.8316 -3.45508Q11.8316 -5.18576 12.7662 -6.20215Q13.7007 -7.21853 15.2867 -7.21853Q16.709 -7.21853 17.5366 -6.30284Q18.3642 -5.38715 18.3642 -3.8138ZM17.2062 -4.15365Q17.1936 -5.10395 16.6744 -5.67036Q16.1552 -6.23676 15.2993 -6.23676Q14.3301 -6.23676 13.7479 -5.68924Q13.1658 -5.14171 13.0777 -4.14735L17.2062 -4.15365ZM26.1239 -4.25434L26.1239 0L24.9659 0L24.9659 -4.21658Q24.9659 -5.21723 24.5757 -5.71441Q24.1855 -6.21159 23.4052 -6.21159Q22.4674 -6.21159 21.9262 -5.61372Q21.385 -5.01584 21.385 -3.98372L21.385 0L20.2207 0L20.2207 -7.04861L21.385 -7.04861L21.385 -5.95356Q21.8003 -6.58919 22.3636 -6.90386Q22.9269 -7.21853 23.6632 -7.21853Q24.8778 -7.21853 25.5009 -6.46647Q26.1239 -5.71441 26.1239 -4.25434Z" fill="#FFFFFF" transform="translate(220.13352441891112,497.9959593187285) translate(-13.60948371887207,0)" />
<path d="M0.427951 -9.39605L1.71181 -9.39605L3.68793 -1.45378L5.65777 -9.39605L7.08637 -9.39605L9.0625 -1.45378L11.0323 -9.39605L12.3225 -9.39605L9.96246 0L8.36393 0L6.38151 -8.15625L4.38021 0L2.78168 0L0.427951 -9.39605ZM16.6901 -6.23676Q15.7587 -6.23676 15.2174 -5.50987Q14.6762 -4.78299 14.6762 -3.51801Q14.6762 -2.25304 15.2143 -1.52615Q15.7524 -0.799262 16.6901 -0.799262Q17.6152 -0.799262 18.1565 -1.5293Q18.6977 -2.25933 18.6977 -3.51801Q18.6977 -4.7704 18.1565 -5.50358Q17.6152 -6.23676 16.6901 -6.23676ZM16.6901 -7.21853Q18.2005 -7.21853 19.0627 -6.23676Q19.9249 -5.25499 19.9249 -3.51801Q19.9249 -1.78733 19.0627 -0.802409Q18.2005 0.182509 16.6901 0.182509Q15.1734 0.182509 14.3143 -0.802409Q13.4553 -1.78733 13.4553 -3.51801Q13.4553 -5.25499 14.3143 -6.23676Q15.1734 -7.21853 16.6901 -7.21853ZM27.3322 -5.69553Q27.7665 -6.47591 28.3707 -6.84722Q28.9748 -7.21853 29.793 -7.21853Q30.8943 -7.21853 31.4922 -6.44759Q32.0901 -5.67665 32.0901 -4.25434L32.0901 0L30.9258 0L30.9258 -4.21658Q30.9258 -5.22982 30.5671 -5.7207Q30.2083 -6.21159 29.472 -6.21159Q28.572 -6.21159 28.0497 -5.61372Q27.5273 -5.01584 27.5273 -3.98372L27.5273 0L26.3631 0L26.3631 -4.21658Q26.3631 -5.23611 26.0043 -5.72385Q25.6456 -6.21159 24.8967 -6.21159Q24.0093 -6.21159 23.487 -5.61057Q22.9646 -5.00955 22.9646 -3.98372L22.9646 0L21.8003 0L21.8003 -7.04861L22.9646 -7.04861L22.9646 -5.95356Q23.3611 -6.60178 23.9149 -6.91016Q24.4688 -7.21853 25.2303 -7.21853Q25.998 -7.21853 26.5361 -6.82834Q27.0742 -6.43815 27.3322 -5.69553ZM40.4288 -3.8138L40.4288 -3.2474L35.1046 -3.2474Q35.1801 -2.05165 35.8252 -1.42546Q36.4703 -0.799262 37.622 -0.799262Q38.2891 -0.799262 38.9153 -0.962891Q39.5415 -1.12652 40.1582 -1.45378L40.1582 -0.358724Q39.5352 -0.094401 38.8806 0.0440538Q38.2261 0.182509 37.5527 0.182509Q35.8661 0.182509 34.8812 -0.799262Q33.8963 -1.78103 33.8963 -3.45508Q33.8963 -5.18576 34.8308 -6.20215Q35.7654 -7.21853 37.3513 -7.21853Q38.7737 -7.21853 39.6012 -6.30284Q40.4288 -5.38715 40.4288 -3.8138ZM39.2708 -4.15365Q39.2582 -5.10395 38.739 -5.67036Q38.2198 -6.23676 37.3639 -6.23676Q36.3947 -6.23676 35.8126 -5.68924Q35.2305 -5.14171 35.1424 -4.14735L39.2708 -4.15365ZM48.1886 -4.25434L48.1886 0L47.0306 0L47.0306 -4.21658Q47.0306 -5.21723 46.6404 -5.71441Q46.2502 -6.21159 45.4698 -6.21159Q44.5321 -6.21159 43.9909 -5.61372Q43.4497 -5.01584 43.4497 -3.98372L43.4497 0L42.2854 0L42.2854 -7.04861L43.4497 -7.04861L43.4497 -5.95356Q43.865 -6.58919 44.4283 -6.90386Q44.9915 -7.21853 45.7279 -7.21853Q46.9425 -7.21853 47.5655 -6.46647Q48.1886 -5.71441 48.1886 -4.25434Z" fill="#FFFFFF" transform="translate(169.9825726041947,388.84668060625233) translate(-24.64181900024414,0)" />
<path d="M1.26497 -9.39605L2.53624 -9.39605L2.53624 -5.42491L6.75282 -9.39605L8.38911 -9.39605L3.72569 -5.01584L8.72266 0L7.04861 0L2.53624 -4.52496L2.53624 0L1.26497 0L1.26497 -9.39605ZM9.66667 -7.04861L10.8247 -7.04861L10.8247 0L9.66667 0L9.66667 -7.04861ZM9.66667 -9.79253L10.8247 -9.79253L10.8247 -8.32617L9.66667 -8.32617L9.66667 -9.79253ZM17.8859 -5.97873L17.8859 -9.79253L19.0438 -9.79253L19.0438 0L17.8859 0L17.8859 -1.05729Q17.5208 -0.427951 16.9639 -0.122721Q16.4069 0.182509 15.6265 0.182509Q14.349 0.182509 13.5465 -0.837023Q12.7441 -1.85655 12.7441 -3.51801Q12.7441 -5.17947 13.5465 -6.199Q14.349 -7.21853 15.6265 -7.21853Q16.4069 -7.21853 16.9639 -6.9133Q17.5208 -6.60807 17.8859 -5.97873ZM13.9399 -3.51801Q13.9399 -2.24045 14.4654 -1.51356Q14.9909 -0.786675 15.9097 -0.786675Q16.8286 -0.786675 17.3572 -1.51356Q17.8859 -2.24045 17.8859 -3.51801Q17.8859 -4.79557 17.3572 -5.52246Q16.8286 -6.24935 15.9097 -6.24935Q14.9909 -6.24935 14.4654 -5.52246Q13.9399 -4.79557 13.9399 -3.51801ZM25.9225 -6.84093L25.9225 -5.74588Q25.4316 -5.99761 24.903 -6.12348Q24.3743 -6.24935 23.8079 -6.24935Q22.9457 -6.24935 22.5147 -5.98503Q22.0836 -5.7207 22.0836 -5.19206Q22.0836 -4.78928 22.3919 -4.55957Q22.7003 -4.32986 23.6317 -4.12218L24.0282 -4.03407Q25.2617 -3.76975 25.7809 -3.2883Q26.3001 -2.80686 26.3001 -1.94466Q26.3001 -0.962891 25.5229 -0.390191Q24.7457 0.182509 23.3863 0.182509Q22.8199 0.182509 22.2063 0.0723741Q21.5927 -0.0377604 20.913 -0.25803L20.913 -1.45378Q21.5549 -1.12023 22.178 -0.953451Q22.801 -0.786675 23.4115 -0.786675Q24.2296 -0.786675 24.6701 -1.06673Q25.1107 -1.34679 25.1107 -1.85655Q25.1107 -2.32856 24.7929 -2.5803Q24.475 -2.83203 23.3989 -3.06489L22.9961 -3.15929Q21.9199 -3.38585 21.4416 -3.85471Q20.9633 -4.32357 20.9633 -5.14171Q20.9633 -6.13607 21.6682 -6.6773Q22.373 -7.21853 23.6695 -7.21853Q24.3114 -7.21853 24.8778 -7.12413Q25.4442 -7.02973 25.9225 -6.84093Z" fill="#FFFFFF" transform="translate(180.86347848799196,293.821883648008) translate(-13.464735984802246,0)" />
<path d="M1.26497 -9.39605L2.53624 -9.39605L2.53624 -5.54449L7.1556 -5.54449L7.1556 -9.39605L8.42687 -9.39605L8.42687 0L7.1556 0L7.1556 -4.47461L2.53624 -4.47461L2.53624 0L1.26497 0L1.26497 -9.39605ZM13.6378 -6.23676Q12.7064 -6.23676 12.1651 -5.50987Q11.6239 -4.78299 11.6239 -3.51801Q11.6239 -2.25304 12.162 -1.52615Q12.7001 -0.799262 13.6378 -0.799262Q14.5629 -0.799262 15.1042 -1.5293Q15.6454 -2.25933 15.6454 -3.51801Q15.6454 -4.7704 15.1042 -5.50358Q14.5629 -6.23676 13.6378 -6.23676ZM13.6378 -7.21853Q15.1482 -7.21853 16.0104 -6.23676Q16.8726 -5.25499 16.8726 -3.51801Q16.8726 -1.78733 16.0104 -0.802409Q15.1482 0.182509 13.6378 0.182509Q12.1211 0.182509 11.262 -0.802409Q10.403 -1.78733 10.403 -3.51801Q10.403 -5.25499 11.262 -6.23676Q12.1211 -7.21853 13.6378 -7.21853ZM24.2799 -5.69553Q24.7142 -6.47591 25.3184 -6.84722Q25.9225 -7.21853 26.7407 -7.21853Q27.842 -7.21853 28.4399 -6.44759Q29.0378 -5.67665 29.0378 -4.25434L29.0378 0L27.8735 0L27.8735 -4.21658Q27.8735 -5.22982 27.5148 -5.7207Q27.156 -6.21159 26.4197 -6.21159Q25.5197 -6.21159 24.9974 -5.61372Q24.475 -5.01584 24.475 -3.98372L24.475 0L23.3108 0L23.3108 -4.21658Q23.3108 -5.23611 22.952 -5.72385Q22.5933 -6.21159 21.8444 -6.21159Q20.957 -6.21159 20.4347 -5.61057Q19.9123 -5.00955 19.9123 -3.98372L19.9123 0L18.748 0L18.748 -7.04861L19.9123 -7.04861L19.9123 -5.95356Q20.3088 -6.60178 20.8626 -6.91016Q21.4165 -7.21853 22.178 -7.21853Q22.9457 -7.21853 23.4838 -6.82834Q24.0219 -6.43815 24.2799 -5.69553ZM37.3765 -3.8138L37.3765 -3.2474L32.0523 -3.2474Q32.1278 -2.05165 32.7729 -1.42546Q33.418 -0.799262 34.5697 -0.799262Q35.2368 -0.799262 35.863 -0.962891Q36.4892 -1.12652 37.1059 -1.45378L37.1059 -0.358724Q36.4829 -0.094401 35.8283 0.0440538Q35.1738 0.182509 34.5004 0.182509Q32.8138 0.182509 31.8289 -0.799262Q30.844 -1.78103 30.844 -3.45508Q30.844 -5.18576 31.7785 -6.20215Q32.7131 -7.21853 34.299 -7.21853Q35.7214 -7.21853 36.5489 -6.30284Q37.3765 -5.38715 37.3765 -3.8138ZM36.2185 -4.15365Q36.2059 -5.10395 35.6867 -5.67036Q35.1675 -6.23676 34.3116 -6.23676Q33.3424 -6.23676 32.7603 -5.68924Q32.1782 -5.14171 32.0901 -4.14735L36.2185 -4.15365ZM45.2936 -5.0536Q44.7209 -4.54384 44.4534 -4.03722Q44.186 -3.5306 44.186 -2.97678Q44.186 -2.05794 44.8531 -1.44748Q45.5202 -0.837023 46.5271 -0.837023Q47.125 -0.837023 47.6474 -1.03526Q48.1697 -1.23351 48.6291 -1.63628L45.2936 -5.0536ZM46.181 -5.75846L49.378 -2.48589Q49.7493 -3.04601 49.957 -3.68479Q50.1647 -4.32357 50.2025 -5.04102L51.373 -5.04102Q51.2975 -4.21029 50.9703 -3.39844Q50.643 -2.58659 50.0577 -1.79362L51.8136 0L50.2276 0L49.3277 -0.92513Q48.6732 -0.365017 47.9557 -0.0912543Q47.2383 0.182509 46.4138 0.182509Q44.8971 0.182509 43.9342 -0.682834Q42.9714 -1.54818 42.9714 -2.90126Q42.9714 -3.70681 43.393 -4.41482Q43.8147 -5.12283 44.658 -5.74588Q44.3559 -6.14236 44.1986 -6.5357Q44.0412 -6.92904 44.0412 -7.30664Q44.0412 -8.32617 44.7398 -8.94607Q45.4384 -9.56597 46.5964 -9.56597Q47.1187 -9.56597 47.6379 -9.45269Q48.1571 -9.33941 48.6921 -9.11285L48.6921 -7.96745Q48.1445 -8.26324 47.6474 -8.41743Q47.1502 -8.57161 46.7222 -8.57162Q46.0614 -8.57162 45.6492 -8.22233Q45.237 -7.87305 45.237 -7.31923Q45.237 -6.99826 45.4226 -6.67415Q45.6083 -6.35004 46.181 -5.75846ZM63.9787 -1.34049L63.9787 -3.86415L61.9019 -3.86415L61.9019 -4.90885L65.2374 -4.90885L65.2374 -0.874783Q64.5011 -0.352431 63.6137 -0.0849609Q62.7263 0.182509 61.7194 0.182509Q59.5167 0.182509 58.2738 -1.10449Q57.0308 -2.39149 57.0308 -4.68859Q57.0308 -6.99197 58.2738 -8.27897Q59.5167 -9.56597 61.7194 -9.56597Q62.6382 -9.56597 63.4658 -9.33941Q64.2934 -9.11285 64.992 -8.67231L64.992 -7.31923Q64.2871 -7.9171 63.4941 -8.21918Q62.7012 -8.52127 61.8264 -8.52127Q60.102 -8.52127 59.2367 -7.55838Q58.3713 -6.59549 58.3713 -4.68859Q58.3713 -2.78798 59.2367 -1.82509Q60.102 -0.862196 61.8264 -0.862196Q62.4998 -0.862196 63.0284 -0.978624Q63.5571 -1.09505 63.9787 -1.34049ZM70.7127 -3.54319Q69.3092 -3.54319 68.768 -3.22222Q68.2268 -2.90126 68.2268 -2.12717Q68.2268 -1.51042 68.6327 -1.14855Q69.0386 -0.786675 69.7372 -0.786675Q70.7001 -0.786675 71.2822 -1.46951Q71.8644 -2.15234 71.8644 -3.28516L71.8644 -3.54319L70.7127 -3.54319ZM73.0223 -4.02148L73.0223 0L71.8644 0L71.8644 -1.06988Q71.4679 -0.427951 70.8763 -0.122721Q70.2847 0.182509 69.4288 0.182509Q68.3464 0.182509 67.7076 -0.424805Q67.0688 -1.03212 67.0688 -2.05165Q67.0688 -3.2411 67.8649 -3.84527Q68.661 -4.44944 70.2407 -4.44944L71.8644 -4.44944L71.8644 -4.56272Q71.8644 -5.36198 71.3389 -5.79937Q70.8134 -6.23676 69.8631 -6.23676Q69.2589 -6.23676 68.6862 -6.09201Q68.1135 -5.94727 67.5848 -5.65777L67.5848 -6.72765Q68.2205 -6.97309 68.8184 -7.09581Q69.4162 -7.21853 69.9826 -7.21853Q71.5119 -7.21853 72.2671 -6.42556Q73.0223 -5.6326 73.0223 -4.02148ZM79.492 -5.96615Q79.2969 -6.07943 79.0672 -6.13292Q78.8375 -6.18641 78.5605 -6.18642Q77.5788 -6.18642 77.0533 -5.54763Q76.5278 -4.90885 76.5278 -3.71311L76.5278 0L75.3635 0L75.3635 -7.04861L76.5278 -7.04861L76.5278 -5.95356Q76.8928 -6.59549 77.4781 -6.90701Q78.0634 -7.21853 78.9004 -7.21853Q79.02 -7.21853 79.1647 -7.2028Q79.3095 -7.18707 79.4857 -7.1556L79.492 -5.96615ZM85.3448 -5.97873L85.3448 -9.79253L86.5028 -9.79253L86.5028 0L85.3448 0L85.3448 -1.05729Q84.9798 -0.427951 84.4228 -0.122721Q83.8659 0.182509 83.0855 0.182509Q81.8079 0.182509 81.0055 -0.837023Q80.2031 -1.85655 80.2031 -3.51801Q80.2031 -5.17947 81.0055 -6.199Q81.8079 -7.21853 83.0855 -7.21853Q83.8659 -7.21853 84.4228 -6.9133Q84.9798 -6.60807 85.3448 -5.97873ZM81.3989 -3.51801Q81.3989 -2.24045 81.9244 -1.51356Q82.4499 -0.786675 83.3687 -0.786675Q84.2875 -0.786675 84.8162 -1.51356Q85.3448 -2.24045 85.3448 -3.51801Q85.3448 -4.79557 84.8162 -5.52246Q84.2875 -6.24935 83.3687 -6.24935Q82.4499 -6.24935 81.9244 -5.52246Q81.3989 -4.79557 81.3989 -3.51801ZM94.9171 -3.8138L94.9171 -3.2474L89.5929 -3.2474Q89.6684 -2.05165 90.3135 -1.42546Q90.9585 -0.799262 92.1102 -0.799262Q92.7773 -0.799262 93.4035 -0.962891Q94.0297 -1.12652 94.6465 -1.45378L94.6465 -0.358724Q94.0234 -0.094401 93.3689 0.0440538Q92.7144 0.182509 92.041 0.182509Q90.3544 0.182509 89.3695 -0.799262Q88.3845 -1.78103 88.3845 -3.45508Q88.3845 -5.18576 89.3191 -6.20215Q90.2537 -7.21853 91.8396 -7.21853Q93.2619 -7.21853 94.0895 -6.30284Q94.9171 -5.38715 94.9171 -3.8138ZM93.7591 -4.15365Q93.7465 -5.10395 93.2273 -5.67036Q92.7081 -6.23676 91.8522 -6.23676Q90.883 -6.23676 90.3009 -5.68924Q89.7188 -5.14171 89.6306 -4.14735L93.7591 -4.15365ZM102.677 -4.25434L102.677 0L101.519 0L101.519 -4.21658Q101.519 -5.21723 101.129 -5.71441Q100.738 -6.21159 99.9581 -6.21159Q99.0204 -6.21159 98.4792 -5.61372Q97.9379 -5.01584 97.9379 -3.98372L97.9379 0L96.7737 0L96.7737 -7.04861L97.9379 -7.04861L97.9379 -5.95356Q98.3533 -6.58919 98.9166 -6.90386Q99.4798 -7.21853 100.216 -7.21853Q101.431 -7.21853 102.054 -6.46647Q102.677 -5.71441 102.677 -4.25434Z" fill="#FFFFFF" transform="translate(330.7964381155357,308.61144486926344) translate(-51.88595962524414,0)" />
<path d="M1.26497 -9.39605L6.66471 -9.39605L6.66471 -8.32617L2.53624 -8.32617L2.53624 -5.55708L6.26194 -5.55708L6.26194 -4.4872L2.53624 -4.4872L2.53624 0L1.26497 0L1.26497 -9.39605ZM8.50868 -2.78168L8.50868 -7.04861L9.66667 -7.04861L9.66667 -2.82574Q9.66667 -1.82509 10.0569 -1.32476Q10.447 -0.824436 11.2274 -0.824436Q12.1651 -0.824436 12.7095 -1.42231Q13.2539 -2.02018 13.2539 -3.0523L13.2539 -7.04861L14.4119 -7.04861L14.4119 0L13.2539 0L13.2539 -1.08247Q12.8322 -0.440538 12.2753 -0.129015Q11.7183 0.182509 10.982 0.182509Q9.76736 0.182509 9.13802 -0.5727Q8.50868 -1.32791 8.50868 -2.78168ZM20.8815 -5.96615Q20.6864 -6.07943 20.4567 -6.13292Q20.227 -6.18641 19.9501 -6.18642Q18.9683 -6.18642 18.4428 -5.54763Q17.9173 -4.90885 17.9173 -3.71311L17.9173 0L16.753 0L16.753 -7.04861L17.9173 -7.04861L17.9173 -5.95356Q18.2823 -6.59549 18.8676 -6.90701Q19.4529 -7.21853 20.2899 -7.21853Q20.4095 -7.21853 20.5543 -7.2028Q20.699 -7.18707 20.8752 -7.1556L20.8815 -5.96615ZM27.9553 -4.25434L27.9553 0L26.7973 0L26.7973 -4.21658Q26.7973 -5.21723 26.4071 -5.71441Q26.0169 -6.21159 25.2365 -6.21159Q24.2988 -6.21159 23.7576 -5.61372Q23.2164 -5.01584 23.2164 -3.98372L23.2164 0L22.0521 0L22.0521 -7.04861L23.2164 -7.04861L23.2164 -5.95356Q23.6317 -6.58919 24.195 -6.90386Q24.7582 -7.21853 25.4946 -7.21853Q26.7092 -7.21853 27.3322 -6.46647Q27.9553 -5.71441 27.9553 -4.25434ZM30.265 -7.04861L31.423 -7.04861L31.423 0L30.265 0L30.265 -7.04861ZM30.265 -9.79253L31.423 -9.79253L31.423 -8.32617L30.265 -8.32617L30.265 -9.79253ZM34.9913 -9.04991L34.9913 -7.04861L37.3765 -7.04861L37.3765 -6.14865L34.9913 -6.14865L34.9913 -2.32227Q34.9913 -1.46007 35.2273 -1.21463Q35.4633 -0.969184 36.1871 -0.969184L37.3765 -0.969184L37.3765 0L36.1871 0Q34.8466 0 34.3368 -0.500326Q33.827 -1.00065 33.827 -2.32227L33.827 -6.14865L32.9774 -6.14865L32.9774 -7.04861L33.827 -7.04861L33.827 -9.04991L34.9913 -9.04991ZM38.78 -2.78168L38.78 -7.04861L39.9379 -7.04861L39.9379 -2.82574Q39.9379 -1.82509 40.3281 -1.32476Q40.7183 -0.824436 41.4987 -0.824436Q42.4364 -0.824436 42.9808 -1.42231Q43.5252 -2.02018 43.5252 -3.0523L43.5252 -7.04861L44.6832 -7.04861L44.6832 0L43.5252 0L43.5252 -1.08247Q43.1035 -0.440538 42.5466 -0.129015Q41.9896 0.182509 41.2533 0.182509Q40.0386 0.182509 39.4093 -0.5727Q38.78 -1.32791 38.78 -2.78168ZM51.1528 -5.96615Q50.9577 -6.07943 50.728 -6.13292Q50.4983 -6.18641 50.2214 -6.18642Q49.2396 -6.18642 48.7141 -5.54763Q48.1886 -4.90885 48.1886 -3.71311L48.1886 0L47.0243 0L47.0243 -7.04861L48.1886 -7.04861L48.1886 -5.95356Q48.5536 -6.59549 49.1389 -6.90701Q49.7242 -7.21853 50.5612 -7.21853Q50.6808 -7.21853 50.8255 -7.2028Q50.9703 -7.18707 51.1465 -7.1556L51.1528 -5.96615ZM58.3965 -3.8138L58.3965 -3.2474L53.0723 -3.2474Q53.1478 -2.05165 53.7929 -1.42546Q54.4379 -0.799262 55.5896 -0.799262Q56.2567 -0.799262 56.8829 -0.962891Q57.5091 -1.12652 58.1259 -1.45378L58.1259 -0.358724Q57.5028 -0.094401 56.8483 0.0440538Q56.1938 0.182509 55.5204 0.182509Q53.8338 0.182509 52.8489 -0.799262Q51.8639 -1.78103 51.8639 -3.45508Q51.8639 -5.18576 52.7985 -6.20215Q53.7331 -7.21853 55.319 -7.21853Q56.7413 -7.21853 57.5689 -6.30284Q58.3965 -5.38715 58.3965 -3.8138ZM57.2385 -4.15365Q57.2259 -5.10395 56.7067 -5.67036Q56.1875 -6.23676 55.3316 -6.23676Q54.3624 -6.23676 53.7803 -5.68924Q53.1981 -5.14171 53.11 -4.14735L57.2385 -4.15365Z" fill="#FFFFFF" transform="translate(220.13352441891092,229.00404068127173) translate(-29.541236877441406,0)" />
<path d="M-0.0377604 -9.39605L7.91081 -9.39605L7.91081 -8.32617L4.5753 -8.32617L4.5753 0L3.29774 0L3.29774 -8.32617L-0.0377604 -8.32617L-0.0377604 -9.39605ZM11.819 -6.23676Q10.8876 -6.23676 10.3464 -5.50987Q9.80512 -4.78299 9.80512 -3.51801Q9.80512 -2.25304 10.3432 -1.52615Q10.8813 -0.799262 11.819 -0.799262Q12.7441 -0.799262 13.2854 -1.5293Q13.8266 -2.25933 13.8266 -3.51801Q13.8266 -4.7704 13.2854 -5.50358Q12.7441 -6.23676 11.819 -6.23676ZM11.819 -7.21853Q13.3294 -7.21853 14.1916 -6.23676Q15.0538 -5.25499 15.0538 -3.51801Q15.0538 -1.78733 14.1916 -0.802409Q13.3294 0.182509 11.819 0.182509Q10.3023 0.182509 9.44325 -0.802409Q8.5842 -1.78733 8.5842 -3.51801Q8.5842 -5.25499 9.44325 -6.23676Q10.3023 -7.21853 11.819 -7.21853ZM19.7046 -6.23676Q18.7732 -6.23676 18.232 -5.50987Q17.6908 -4.78299 17.6908 -3.51801Q17.6908 -2.25304 18.2288 -1.52615Q18.7669 -0.799262 19.7046 -0.799262Q20.6298 -0.799262 21.171 -1.5293Q21.7122 -2.25933 21.7122 -3.51801Q21.7122 -4.7704 21.171 -5.50358Q20.6298 -6.23676 19.7046 -6.23676ZM19.7046 -7.21853Q21.2151 -7.21853 22.0773 -6.23676Q22.9395 -5.25499 22.9395 -3.51801Q22.9395 -1.78733 22.0773 -0.802409Q21.2151 0.182509 19.7046 0.182509Q18.1879 0.182509 17.3289 -0.802409Q16.4698 -1.78733 16.4698 -3.51801Q16.4698 -5.25499 17.3289 -6.23676Q18.1879 -7.21853 19.7046 -7.21853ZM24.8589 -9.79253L26.0169 -9.79253L26.0169 0L24.8589 0L24.8589 -9.79253ZM32.9334 -6.84093L32.9334 -5.74588Q32.4425 -5.99761 31.9138 -6.12348Q31.3852 -6.24935 30.8188 -6.24935Q29.9566 -6.24935 29.5255 -5.98503Q29.0944 -5.7207 29.0944 -5.19206Q29.0944 -4.78928 29.4028 -4.55957Q29.7112 -4.32986 30.6426 -4.12218L31.0391 -4.03407Q32.2726 -3.76975 32.7918 -3.2883Q33.311 -2.80686 33.311 -1.94466Q33.311 -0.962891 32.5337 -0.390191Q31.7565 0.182509 30.3971 0.182509Q29.8307 0.182509 29.2171 0.0723741Q28.6035 -0.0377604 27.9238 -0.25803L27.9238 -1.45378Q28.5658 -1.12023 29.1888 -0.953451Q29.8118 -0.786675 30.4223 -0.786675Q31.2405 -0.786675 31.681 -1.06673Q32.1215 -1.34679 32.1215 -1.85655Q32.1215 -2.32856 31.8037 -2.5803Q31.4859 -2.83203 30.4097 -3.06489L30.0069 -3.15929Q28.9308 -3.38585 28.4525 -3.85471Q27.9742 -4.32357 27.9742 -5.14171Q27.9742 -6.13607 28.679 -6.6773Q29.3839 -7.21853 30.6803 -7.21853Q31.3223 -7.21853 31.8887 -7.12413Q32.4551 -7.02973 32.9334 -6.84093Z" fill="#FFFFFF" transform="translate(278.3713392743465,184.51163032175975) translate(-16.97016143798828,0)" />
<path d="M2.53624 -8.35135L2.53624 -4.82075L4.13477 -4.82075Q5.02213 -4.82075 5.50673 -5.28017Q5.99132 -5.73958 5.99132 -6.58919Q5.99132 -7.43251 5.50673 -7.89193Q5.02214 -8.35135 4.13477 -8.35135L2.53624 -8.35135ZM1.26497 -9.39605L4.13477 -9.39605Q5.71441 -9.39605 6.52311 -8.68175Q7.33181 -7.96745 7.33181 -6.58919Q7.33181 -5.19835 6.52311 -4.4872Q5.71441 -3.77604 4.13477 -3.77604L2.53624 -3.77604L2.53624 0L1.26497 0L1.26497 -9.39605ZM8.98698 -9.79253L10.145 -9.79253L10.145 0L8.98698 0L8.98698 -9.79253ZM15.7713 -3.54319Q14.3678 -3.54319 13.8266 -3.22222Q13.2854 -2.90126 13.2854 -2.12717Q13.2854 -1.51042 13.6913 -1.14855Q14.0972 -0.786675 14.7958 -0.786675Q15.7587 -0.786675 16.3408 -1.46951Q16.923 -2.15234 16.923 -3.28516L16.923 -3.54319L15.7713 -3.54319ZM18.0809 -4.02148L18.0809 0L16.923 0L16.923 -1.06988Q16.5265 -0.427951 15.9349 -0.122721Q15.3433 0.182509 14.4874 0.182509Q13.4049 0.182509 12.7662 -0.424805Q12.1274 -1.03212 12.1274 -2.05165Q12.1274 -3.2411 12.9235 -3.84527Q13.7196 -4.44944 15.2993 -4.44944L16.923 -4.44944L16.923 -4.56272Q16.923 -5.36198 16.3975 -5.79937Q15.872 -6.23676 14.9217 -6.23676Q14.3175 -6.23676 13.7448 -6.09201Q13.1721 -5.94727 12.6434 -5.65777L12.6434 -6.72765Q13.2791 -6.97309 13.877 -7.09581Q14.4748 -7.21853 15.0412 -7.21853Q16.5705 -7.21853 17.3257 -6.42556Q18.0809 -5.6326 18.0809 -4.02148ZM26.3253 -4.25434L26.3253 0L25.1673 0L25.1673 -4.21658Q25.1673 -5.21723 24.7771 -5.71441Q24.3869 -6.21159 23.6066 -6.21159Q22.6688 -6.21159 22.1276 -5.61372Q21.5864 -5.01584 21.5864 -3.98372L21.5864 0L20.4221 0L20.4221 -7.04861L21.5864 -7.04861L21.5864 -5.95356Q22.0017 -6.58919 22.565 -6.90386Q23.1283 -7.21853 23.8646 -7.21853Q25.0792 -7.21853 25.7023 -6.46647Q26.3253 -5.71441 26.3253 -4.25434ZM29.7804 -9.04991L29.7804 -7.04861L32.1656 -7.04861L32.1656 -6.14865L29.7804 -6.14865L29.7804 -2.32227Q29.7804 -1.46007 30.0164 -1.21463Q30.2524 -0.969184 30.9761 -0.969184L32.1656 -0.969184L32.1656 0L30.9761 0Q29.6356 0 29.1259 -0.500326Q28.6161 -1.00065 28.6161 -2.32227L28.6161 -6.14865L27.7665 -6.14865L27.7665 -7.04861L28.6161 -7.04861L28.6161 -9.04991L29.7804 -9.04991ZM38.1821 -6.84093L38.1821 -5.74588Q37.6912 -5.99761 37.1625 -6.12348Q36.6339 -6.24935 36.0675 -6.24935Q35.2053 -6.24935 34.7742 -5.98503Q34.3431 -5.7207 34.3431 -5.19206Q34.3431 -4.78928 34.6515 -4.55957Q34.9599 -4.32986 35.8913 -4.12218L36.2878 -4.03407Q37.5213 -3.76975 38.0405 -3.2883Q38.5597 -2.80686 38.5597 -1.94466Q38.5597 -0.962891 37.7824 -0.390191Q37.0052 0.182509 35.6458 0.182509Q35.0794 0.182509 34.4658 0.0723741Q33.8522 -0.0377604 33.1725 -0.25803L33.1725 -1.45378Q33.8145 -1.12023 34.4375 -0.953451Q35.0606 -0.786675 35.671 -0.786675Q36.4892 -0.786675 36.9297 -1.06673Q37.3702 -1.34679 37.3702 -1.85655Q37.3702 -2.32856 37.0524 -2.5803Q36.7346 -2.83203 35.6584 -3.06489L35.2556 -3.15929Q34.1795 -3.38585 33.7012 -3.85471Q33.2229 -4.32357 33.2229 -5.14171Q33.2229 -6.13607 33.9277 -6.6773Q34.6326 -7.21853 35.929 -7.21853Q36.571 -7.21853 37.1374 -7.12413Q37.7038 -7.02973 38.1821 -6.84093Z" fill="#FFFFFF" transform="translate(321.1771337386402,168.65810489643638) translate(-19.594511032104492,0)" />
<path d="M7.67166 -1.34049L7.67166 -3.86415L5.59484 -3.86415L5.59484 -4.90885L8.93034 -4.90885L8.93034 -0.874783Q8.19401 -0.352431 7.30664 -0.0849609Q6.41927 0.182509 5.41233 0.182509Q3.20964 0.182509 1.96669 -1.10449Q0.723741 -2.39149 0.723741 -4.68859Q0.723741 -6.99197 1.96669 -8.27897Q3.20964 -9.56597 5.41233 -9.56597Q6.33116 -9.56597 7.15875 -9.33941Q7.98633 -9.11285 8.6849 -8.67231L8.6849 -7.31923Q7.98003 -7.9171 7.18707 -8.21918Q6.3941 -8.52127 5.51931 -8.52127Q3.79492 -8.52127 2.92958 -7.55838Q2.06424 -6.59549 2.06424 -4.68859Q2.06424 -2.78798 2.92958 -1.82509Q3.79492 -0.862196 5.51931 -0.862196Q6.19271 -0.862196 6.72135 -0.978624Q7.25 -1.09505 7.67166 -1.34049ZM15.2867 -5.96615Q15.0916 -6.07943 14.8619 -6.13292Q14.6322 -6.18641 14.3553 -6.18642Q13.3735 -6.18642 12.848 -5.54763Q12.3225 -4.90885 12.3225 -3.71311L12.3225 0L11.1582 0L11.1582 -7.04861L12.3225 -7.04861L12.3225 -5.95356Q12.6875 -6.59549 13.2728 -6.90701Q13.8581 -7.21853 14.6951 -7.21853Q14.8147 -7.21853 14.9594 -7.2028Q15.1042 -7.18707 15.2804 -7.1556L15.2867 -5.96615ZM19.2326 -6.23676Q18.3012 -6.23676 17.76 -5.50987Q17.2188 -4.78299 17.2188 -3.51801Q17.2188 -2.25304 17.7568 -1.52615Q18.2949 -0.799262 19.2326 -0.799262Q20.1578 -0.799262 20.699 -1.5293Q21.2402 -2.25933 21.2402 -3.51801Q21.2402 -4.7704 20.699 -5.50358Q20.1578 -6.23676 19.2326 -6.23676ZM19.2326 -7.21853Q20.7431 -7.21853 21.6053 -6.23676Q22.4674 -5.25499 22.4674 -3.51801Q22.4674 -1.78733 21.6053 -0.802409Q20.7431 0.182509 19.2326 0.182509Q17.7159 0.182509 16.8569 -0.802409Q15.9978 -1.78733 15.9978 -3.51801Q15.9978 -5.25499 16.8569 -6.23676Q17.7159 -7.21853 19.2326 -7.21853ZM29.4594 -6.778L29.4594 -5.69553Q28.9685 -5.96615 28.4745 -6.10145Q27.9805 -6.23676 27.477 -6.23676Q26.3505 -6.23676 25.7274 -5.52246Q25.1044 -4.80816 25.1044 -3.51801Q25.1044 -2.22786 25.7274 -1.51356Q26.3505 -0.799262 27.477 -0.799262Q27.9805 -0.799262 28.4745 -0.93457Q28.9685 -1.06988 29.4594 -1.34049L29.4594 -0.270616Q28.9748 -0.0440538 28.4556 0.0692274Q27.9364 0.182509 27.3511 0.182509Q25.7589 0.182509 24.8212 -0.818142Q23.8835 -1.81879 23.8835 -3.51801Q23.8835 -5.2424 24.8306 -6.23047Q25.7778 -7.21853 27.4267 -7.21853Q27.9616 -7.21853 28.4714 -7.1084Q28.9811 -6.99826 29.4594 -6.778ZM37.5024 -3.8138L37.5024 -3.2474L32.1782 -3.2474Q32.2537 -2.05165 32.8988 -1.42546Q33.5438 -0.799262 34.6955 -0.799262Q35.3626 -0.799262 35.9888 -0.962891Q36.615 -1.12652 37.2318 -1.45378L37.2318 -0.358724Q36.6087 -0.094401 35.9542 0.0440538Q35.2997 0.182509 34.6263 0.182509Q32.9397 0.182509 31.9548 -0.799262Q30.9698 -1.78103 30.9698 -3.45508Q30.9698 -5.18576 31.9044 -6.20215Q32.839 -7.21853 34.4249 -7.21853Q35.8472 -7.21853 36.6748 -6.30284Q37.5024 -5.38715 37.5024 -3.8138ZM36.3444 -4.15365Q36.3318 -5.10395 35.8126 -5.67036Q35.2934 -6.23676 34.4375 -6.23676Q33.4683 -6.23676 32.8862 -5.68924Q32.304 -5.14171 32.2159 -4.14735L36.3444 -4.15365ZM43.4874 -5.96615Q43.2923 -6.07943 43.0626 -6.13292Q42.8329 -6.18641 42.556 -6.18642Q41.5742 -6.18642 41.0487 -5.54763Q40.5232 -4.90885 40.5232 -3.71311L40.5232 0L39.3589 0L39.3589 -7.04861L40.5232 -7.04861L40.5232 -5.95356Q40.8882 -6.59549 41.4735 -6.90701Q42.0588 -7.21853 42.8958 -7.21853Q43.0154 -7.21853 43.1602 -7.2028Q43.3049 -7.18707 43.4811 -7.1556L43.4874 -5.96615ZM47.6348 0.654514Q47.1439 1.91319 46.6782 2.29709Q46.2125 2.68099 45.4321 2.68099L44.5069 2.68099L44.5069 1.71181L45.1866 1.71181Q45.6649 1.71181 45.9293 1.48524Q46.1936 1.25868 46.5145 0.415365L46.7222 -0.113281L43.8713 -7.04861L45.0985 -7.04861L47.3012 -1.53559L49.5039 -7.04861L50.7311 -7.04861L47.6348 0.654514Z" fill="#FFFFFF" transform="translate(412.5605347820486,312.75805054491957) translate(-25.557510375976562,0)" />
<path d="M1.26497 -9.39605L6.66471 -9.39605L6.66471 -8.32617L2.53624 -8.32617L2.53624 -5.55708L6.26194 -5.55708L6.26194 -4.4872L2.53624 -4.4872L2.53624 0L1.26497 0L1.26497 -9.39605ZM12.7127 -5.96615Q12.5176 -6.07943 12.2879 -6.13292Q12.0582 -6.18641 11.7813 -6.18642Q10.7995 -6.18642 10.274 -5.54763Q9.74848 -4.90885 9.74848 -3.71311L9.74848 0L8.5842 0L8.5842 -7.04861L9.74848 -7.04861L9.74848 -5.95356Q10.1135 -6.59549 10.6988 -6.90701Q11.2841 -7.21853 12.1211 -7.21853Q12.2407 -7.21853 12.3854 -7.2028Q12.5302 -7.18707 12.7064 -7.1556L12.7127 -5.96615ZM19.9564 -3.8138L19.9564 -3.2474L14.6322 -3.2474Q14.7077 -2.05165 15.3528 -1.42546Q15.9978 -0.799262 17.1495 -0.799262Q17.8166 -0.799262 18.4428 -0.962891Q19.069 -1.12652 19.6858 -1.45378L19.6858 -0.358724Q19.0627 -0.094401 18.4082 0.0440538Q17.7537 0.182509 17.0803 0.182509Q15.3937 0.182509 14.4087 -0.799262Q13.4238 -1.78103 13.4238 -3.45508Q13.4238 -5.18576 14.3584 -6.20215Q15.293 -7.21853 16.8789 -7.21853Q18.3012 -7.21853 19.1288 -6.30284Q19.9564 -5.38715 19.9564 -3.8138ZM18.7984 -4.15365Q18.7858 -5.10395 18.2666 -5.67036Q17.7474 -6.23676 16.8915 -6.23676Q15.9223 -6.23676 15.3402 -5.68924Q14.758 -5.14171 14.6699 -4.14735L18.7984 -4.15365ZM26.3505 -6.84093L26.3505 -5.74588Q25.8596 -5.99761 25.3309 -6.12348Q24.8023 -6.24935 24.2359 -6.24935Q23.3737 -6.24935 22.9426 -5.98503Q22.5115 -5.7207 22.5115 -5.19206Q22.5115 -4.78928 22.8199 -4.55957Q23.1283 -4.32986 24.0597 -4.12218L24.4562 -4.03407Q25.6897 -3.76975 26.2089 -3.2883Q26.7281 -2.80686 26.7281 -1.94466Q26.7281 -0.962891 25.9508 -0.390191Q25.1736 0.182509 23.8142 0.182509Q23.2478 0.182509 22.6342 0.0723741Q22.0206 -0.0377604 21.3409 -0.25803L21.3409 -1.45378Q21.9829 -1.12023 22.6059 -0.953451Q23.2289 -0.786675 23.8394 -0.786675Q24.6576 -0.786675 25.0981 -1.06673Q25.5386 -1.34679 25.5386 -1.85655Q25.5386 -2.32856 25.2208 -2.5803Q24.903 -2.83203 23.8268 -3.06489L23.424 -3.15929Q22.3479 -3.38585 21.8696 -3.85471Q21.3913 -4.32357 21.3913 -5.14171Q21.3913 -6.13607 22.0961 -6.6773Q22.801 -7.21853 24.0974 -7.21853Q24.7394 -7.21853 25.3058 -7.12413Q25.8722 -7.02973 26.3505 -6.84093ZM34.4312 -4.25434L34.4312 0L33.2732 0L33.2732 -4.21658Q33.2732 -5.21723 32.883 -5.71441Q32.4928 -6.21159 31.7125 -6.21159Q30.7747 -6.21159 30.2335 -5.61372Q29.6923 -5.01584 29.6923 -3.98372L29.6923 0L28.528 0L28.528 -9.79253L29.6923 -9.79253L29.6923 -5.95356Q30.1076 -6.58919 30.6709 -6.90386Q31.2342 -7.21853 31.9705 -7.21853Q33.1851 -7.21853 33.8082 -6.46647Q34.4312 -5.71441 34.4312 -4.25434Z" fill="#FFFFFF" transform="translate(416.8228662613596,168.6581048964363) translate(-17.76313018798828,0)" />
<path d="M2.53624 -8.35135L2.53624 -4.82075L4.13477 -4.82075Q5.02213 -4.82075 5.50673 -5.28017Q5.99132 -5.73958 5.99132 -6.58919Q5.99132 -7.43251 5.50673 -7.89193Q5.02214 -8.35135 4.13477 -8.35135L2.53624 -8.35135ZM1.26497 -9.39605L4.13477 -9.39605Q5.71441 -9.39605 6.52311 -8.68175Q7.33181 -7.96745 7.33181 -6.58919Q7.33181 -5.19835 6.52311 -4.4872Q5.71441 -3.77604 4.13477 -3.77604L2.53624 -3.77604L2.53624 0L1.26497 0L1.26497 -9.39605ZM12.1903 -3.54319Q10.7869 -3.54319 10.2457 -3.22222Q9.70443 -2.90126 9.70443 -2.12717Q9.70443 -1.51042 10.1104 -1.14855Q10.5163 -0.786675 11.2148 -0.786675Q12.1777 -0.786675 12.7599 -1.46951Q13.342 -2.15234 13.342 -3.28516L13.342 -3.54319L12.1903 -3.54319ZM14.5 -4.02148L14.5 0L13.342 0L13.342 -1.06988Q12.9455 -0.427951 12.354 -0.122721Q11.7624 0.182509 10.9065 0.182509Q9.824 0.182509 9.18522 -0.424805Q8.54644 -1.03212 8.54644 -2.05165Q8.54644 -3.2411 9.34256 -3.84527Q10.1387 -4.44944 11.7183 -4.44944L13.342 -4.44944L13.342 -4.56272Q13.342 -5.36198 12.8165 -5.79937Q12.291 -6.23676 11.3407 -6.23676Q10.7365 -6.23676 10.1638 -6.09201Q9.59115 -5.94727 9.0625 -5.65777L9.0625 -6.72765Q9.69813 -6.97309 10.296 -7.09581Q10.8939 -7.21853 11.4603 -7.21853Q12.9896 -7.21853 13.7448 -6.42556Q14.5 -5.6326 14.5 -4.02148ZM22.7444 -4.25434L22.7444 0L21.5864 0L21.5864 -4.21658Q21.5864 -5.21723 21.1962 -5.71441Q20.806 -6.21159 20.0256 -6.21159Q19.0879 -6.21159 18.5467 -5.61372Q18.0054 -5.01584 18.0054 -3.98372L18.0054 0L16.8411 0L16.8411 -7.04861L18.0054 -7.04861L18.0054 -5.95356Q18.4208 -6.58919 18.9841 -6.90386Q19.5473 -7.21853 20.2836 -7.21853Q21.4983 -7.21853 22.1213 -6.46647Q22.7444 -5.71441 22.7444 -4.25434ZM26.1994 -9.04991L26.1994 -7.04861L28.5846 -7.04861L28.5846 -6.14865L26.1994 -6.14865L26.1994 -2.32227Q26.1994 -1.46007 26.4354 -1.21463Q26.6714 -0.969184 27.3952 -0.969184L28.5846 -0.969184L28.5846 0L27.3952 0Q26.0547 0 25.5449 -0.500326Q25.0352 -1.00065 25.0352 -2.32227L25.0352 -6.14865L24.1855 -6.14865L24.1855 -7.04861L25.0352 -7.04861L25.0352 -9.04991L26.1994 -9.04991ZM34.1921 -5.96615Q33.997 -6.07943 33.7673 -6.13292Q33.5375 -6.18641 33.2606 -6.18642Q32.2789 -6.18642 31.7534 -5.54763Q31.2279 -4.90885 31.2279 -3.71311L31.2279 0L30.0636 0L30.0636 -7.04861L31.2279 -7.04861L31.2279 -5.95356Q31.5929 -6.59549 32.1782 -6.90701Q32.7635 -7.21853 33.6005 -7.21853Q33.7201 -7.21853 33.8648 -7.2028Q34.0095 -7.18707 34.1858 -7.1556L34.1921 -5.96615ZM38.3394 0.654514Q37.8485 1.91319 37.3828 2.29709Q36.9171 2.68099 36.1367 2.68099L35.2116 2.68099L35.2116 1.71181L35.8913 1.71181Q36.3696 1.71181 36.6339 1.48524Q36.8982 1.25868 37.2192 0.415365L37.4269 -0.113281L34.576 -7.04861L35.8032 -7.04861L38.0059 -1.53559L40.2086 -7.04861L41.4358 -7.04861L38.3394 0.654514Z" fill="#FFFFFF" transform="translate(530.7094203554598,244.75466748835467) translate(-20.909832000732422,0)" />
<path d="M1.26497 -9.39605L6.66471 -9.39605L6.66471 -8.32617L2.53624 -8.32617L2.53624 -5.55708L6.26194 -5.55708L6.26194 -4.4872L2.53624 -4.4872L2.53624 0L1.26497 0L1.26497 -9.39605ZM12.7127 -5.96615Q12.5176 -6.07943 12.2879 -6.13292Q12.0582 -6.18641 11.7813 -6.18642Q10.7995 -6.18642 10.274 -5.54763Q9.74848 -4.90885 9.74848 -3.71311L9.74848 0L8.5842 0L8.5842 -7.04861L9.74848 -7.04861L9.74848 -5.95356Q10.1135 -6.59549 10.6988 -6.90701Q11.2841 -7.21853 12.1211 -7.21853Q12.2407 -7.21853 12.3854 -7.2028Q12.5302 -7.18707 12.7064 -7.1556L12.7127 -5.96615ZM16.6586 -6.23676Q15.7272 -6.23676 15.186 -5.50987Q14.6447 -4.78299 14.6447 -3.51801Q14.6447 -2.25304 15.1828 -1.52615Q15.7209 -0.799262 16.6586 -0.799262Q17.5838 -0.799262 18.125 -1.5293Q18.6662 -2.25933 18.6662 -3.51801Q18.6662 -4.7704 18.125 -5.50358Q17.5838 -6.23676 16.6586 -6.23676ZM16.6586 -7.21853Q18.1691 -7.21853 19.0313 -6.23676Q19.8934 -5.25499 19.8934 -3.51801Q19.8934 -1.78733 19.0313 -0.802409Q18.1691 0.182509 16.6586 0.182509Q15.1419 0.182509 14.2829 -0.802409Q13.4238 -1.78733 13.4238 -3.51801Q13.4238 -5.25499 14.2829 -6.23676Q15.1419 -7.21853 16.6586 -7.21853ZM21.3095 -7.04861L26.8099 -7.04861L26.8099 -5.99132L22.4549 -0.92513L26.8099 -0.92513L26.8099 0L21.1521 0L21.1521 -1.05729L25.5072 -6.12348L21.3095 -6.12348L21.3095 -7.04861ZM34.6074 -3.8138L34.6074 -3.2474L29.2832 -3.2474Q29.3587 -2.05165 30.0038 -1.42546Q30.6489 -0.799262 31.8006 -0.799262Q32.4677 -0.799262 33.0939 -0.962891Q33.7201 -1.12652 34.3368 -1.45378L34.3368 -0.358724Q33.7138 -0.094401 33.0592 0.0440538Q32.4047 0.182509 31.7313 0.182509Q30.0447 0.182509 29.0598 -0.799262Q28.0749 -1.78103 28.0749 -3.45508Q28.0749 -5.18576 29.0094 -6.20215Q29.944 -7.21853 31.5299 -7.21853Q32.9523 -7.21853 33.7798 -6.30284Q34.6074 -5.38715 34.6074 -3.8138ZM33.4494 -4.15365Q33.4368 -5.10395 32.9176 -5.67036Q32.3984 -6.23676 31.5425 -6.23676Q30.5733 -6.23676 29.9912 -5.68924Q29.4091 -5.14171 29.321 -4.14735L33.4494 -4.15365ZM42.3672 -4.25434L42.3672 0L41.2092 0L41.2092 -4.21658Q41.2092 -5.21723 40.819 -5.71441Q40.4288 -6.21159 39.6484 -6.21159Q38.7107 -6.21159 38.1695 -5.61372Q37.6283 -5.01584 37.6283 -3.98372L37.6283 0L36.464 0L36.464 -7.04861L37.6283 -7.04861L37.6283 -5.95356Q38.0436 -6.58919 38.6069 -6.90386Q39.1701 -7.21853 39.9065 -7.21853Q41.1211 -7.21853 41.7441 -6.46647Q42.3672 -5.71441 42.3672 -4.25434Z" fill="#FFFFFF" transform="translate(566.9107088547778,330.6101543694806) translate(-21.731121063232422,0)" />
</svg>
