<svg xmlns="http://www.w3.org/2000/svg" viewBox="0 0 900 500" width="900" height="500" style="width:100%;height:auto" role="img" aria-labelledby="chart-title">
<title id="chart-title">Pareto Chart — Defect Analysis</title>
<rect x="0" y="0" width="900" height="500" fill="#FFFFFF" />
<path d="M1.64214 -13.0411L7.22369 -13.0411Q9.71311 -13.0411 11.0452 -11.9361Q12.3772 -10.8312 12.3772 -8.78722Q12.3772 -6.73454 11.0452 -5.62958Q9.71311 -4.52463 7.22369 -4.52463L5.00505 -4.52463L5.00505 0L1.64214 0L1.64214 -13.0411ZM5.00505 -10.6041L5.00505 -6.96164L6.86556 -6.96164Q7.84386 -6.96164 8.37668 -7.43769Q8.9095 -7.91374 8.90951 -8.78722Q8.9095 -9.6607 8.37668 -10.1324Q7.84386 -10.6041 6.86556 -10.6041L5.00505 -10.6041ZM18.5003 -4.40234Q17.522 -4.40234 17.0285 -4.07042Q16.535 -3.7385 16.535 -3.09212Q16.535 -2.49816 16.9324 -2.16187Q17.3299 -1.82558 18.0374 -1.82558Q18.9196 -1.82558 19.5223 -2.45885Q20.125 -3.09212 20.125 -4.04422L20.125 -4.40234L18.5003 -4.40234ZM23.2783 -5.58154L23.2783 0L20.125 0L20.125 -1.44998Q19.4961 -0.559028 18.71 -0.152859Q17.9238 0.253309 16.797 0.253309Q15.2772 0.253309 14.3295 -0.633274Q13.3817 -1.51986 13.3817 -2.9349Q13.3817 -4.65565 14.5653 -5.45926Q15.7489 -6.26286 18.282 -6.26286L20.125 -6.26286L20.125 -6.50743Q20.125 -7.24989 19.5398 -7.59492Q18.9545 -7.93994 17.7142 -7.93994Q16.7097 -7.93994 15.8449 -7.73904Q14.9802 -7.53814 14.2377 -7.13634L14.2377 -9.52094Q15.2422 -9.76552 16.2555 -9.89217Q17.2687 -10.0188 18.282 -10.0188Q20.9286 -10.0188 22.1034 -8.97502Q23.2783 -7.93121 23.2783 -5.58154ZM33.4718 -7.11887Q33.0613 -7.31103 32.6551 -7.40275Q32.2489 -7.49447 31.8384 -7.49447Q30.633 -7.49447 29.9822 -6.72144Q29.3315 -5.94841 29.3315 -4.50716L29.3315 0L26.2044 0L26.2044 -9.78299L29.3315 -9.78299L29.3315 -8.17578Q29.9342 -9.13661 30.716 -9.57772Q31.4977 -10.0188 32.5896 -10.0188Q32.7468 -10.0188 32.9302 -10.0057Q33.1137 -9.99262 33.4631 -9.94895L33.4718 -7.11887ZM44.8096 -4.9177L44.8096 -4.02675L37.4985 -4.02675Q37.6121 -2.92616 38.2934 -2.37587Q38.9747 -1.82558 40.1976 -1.82558Q41.1846 -1.82558 42.2197 -2.11819Q43.2548 -2.41081 44.3466 -3.00477L44.3466 -0.593967Q43.2373 -0.174696 42.128 0.0393066Q41.0187 0.253309 39.9093 0.253309Q37.254 0.253309 35.7821 -1.09622Q34.3103 -2.44575 34.3103 -4.88276Q34.3103 -7.2761 35.7559 -8.64746Q37.2016 -10.0188 39.7346 -10.0188Q42.0406 -10.0188 43.4251 -8.62999Q44.8096 -7.24116 44.8096 -4.9177ZM41.5952 -5.95714Q41.5952 -6.84809 41.0754 -7.39402Q40.5557 -7.93994 39.7172 -7.93994Q38.8088 -7.93994 38.241 -7.42896Q37.6732 -6.91797 37.5335 -5.95714L41.5952 -5.95714ZM50.5833 -12.5607L50.5833 -9.78299L53.8064 -9.78299L53.8064 -7.54688L50.5833 -7.54688L50.5833 -3.39784Q50.5833 -2.71653 50.8541 -2.47632Q51.1248 -2.23611 51.9284 -2.23611L53.5356 -2.23611L53.5356 0L50.8541 0Q49.0023 0 48.2293 -0.773031Q47.4562 -1.54606 47.4562 -3.39784L47.4562 -7.54688L45.9014 -7.54688L45.9014 -9.78299L47.4562 -9.78299L47.4562 -12.5607L50.5833 -12.5607ZM60.3837 -7.78271Q59.3443 -7.78271 58.7984 -7.03589Q58.2524 -6.28906 58.2524 -4.88276Q58.2524 -3.47645 58.7984 -2.72963Q59.3443 -1.9828 60.3837 -1.9828Q61.4057 -1.9828 61.9473 -2.72963Q62.4888 -3.47645 62.4888 -4.88276Q62.4888 -6.28906 61.9473 -7.03589Q61.4057 -7.78271 60.3837 -7.78271ZM60.3837 -10.0188Q62.9081 -10.0188 64.3275 -8.6562Q65.7469 -7.29357 65.7469 -4.88276Q65.7469 -2.47195 64.3275 -1.10932Q62.9081 0.253309 60.3837 0.253309Q57.8506 0.253309 56.4225 -1.10932Q54.9944 -2.47195 54.9944 -4.88276Q54.9944 -7.29357 56.4225 -8.6562Q57.8506 -10.0188 60.3837 -10.0188ZM84.7277 -0.716254Q83.8018 -0.23584 82.7973 0.00873481Q81.7928 0.253309 80.7009 0.253309Q77.4428 0.253309 75.5386 -1.5679Q73.6344 -3.38911 73.6344 -6.50743Q73.6344 -9.63449 75.5386 -11.4557Q77.4428 -13.2769 80.7009 -13.2769Q81.7928 -13.2769 82.7973 -13.0323Q83.8018 -12.7878 84.7277 -12.3073L84.7277 -9.60829Q83.793 -10.2459 82.8846 -10.5429Q81.9762 -10.8399 80.9717 -10.8399Q79.1723 -10.8399 78.1416 -9.6869Q77.1109 -8.53391 77.1109 -6.50743Q77.1109 -4.48969 78.1416 -3.3367Q79.1723 -2.1837 80.9717 -2.1837Q81.9762 -2.1837 82.8846 -2.48069Q83.793 -2.77767 84.7277 -3.41531L84.7277 -0.716254ZM97.2184 -5.95714L97.2184 0L94.0739 0L94.0739 -0.969564L94.0739 -4.5421Q94.0739 -5.82612 94.0171 -6.30653Q93.9603 -6.78695 93.8206 -7.01405Q93.6372 -7.31977 93.3227 -7.4901Q93.0082 -7.66043 92.6064 -7.66043Q91.6282 -7.66043 91.0691 -6.90487Q90.5101 -6.14931 90.5101 -4.81288L90.5101 0L87.383 0L87.383 -13.5914L90.5101 -13.5914L90.5101 -8.35048Q91.2176 -9.20649 92.0125 -9.61266Q92.8074 -10.0188 93.7682 -10.0188Q95.4627 -10.0188 96.3406 -8.97938Q97.2184 -7.93994 97.2184 -5.95714ZM104.521 -4.40234Q103.542 -4.40234 103.049 -4.07042Q102.555 -3.7385 102.555 -3.09212Q102.555 -2.49816 102.953 -2.16187Q103.35 -1.82558 104.058 -1.82558Q104.94 -1.82558 105.543 -2.45885Q106.145 -3.09212 106.145 -4.04422L106.145 -4.40234L104.521 -4.40234ZM109.299 -5.58154L109.299 0L106.145 0L106.145 -1.44998Q105.516 -0.559028 104.73 -0.152859Q103.944 0.253309 102.817 0.253309Q101.298 0.253309 100.35 -0.633274Q99.4021 -1.51986 99.4021 -2.9349Q99.4021 -4.65565 100.586 -5.45926Q101.769 -6.26286 104.302 -6.26286L106.145 -6.26286L106.145 -6.50743Q106.145 -7.24989 105.56 -7.59492Q104.975 -7.93994 103.735 -7.93994Q102.73 -7.93994 101.865 -7.73904Q101.001 -7.53814 100.258 -7.13634L100.258 -9.52094Q101.263 -9.76552 102.276 -9.89217Q103.289 -10.0188 104.302 -10.0188Q106.949 -10.0188 108.124 -8.97502Q109.299 -7.93121 109.299 -5.58154ZM119.492 -7.11887Q119.082 -7.31103 118.675 -7.40275Q118.269 -7.49447 117.859 -7.49447Q116.653 -7.49447 116.003 -6.72144Q115.352 -5.94841 115.352 -4.50716L115.352 0L112.225 0L112.225 -9.78299L115.352 -9.78299L115.352 -8.17578Q115.955 -9.13661 116.736 -9.57772Q117.518 -10.0188 118.61 -10.0188Q118.767 -10.0188 118.951 -10.0057Q119.134 -9.99262 119.483 -9.94895L119.492 -7.11887ZM124.48 -12.5607L124.48 -9.78299L127.703 -9.78299L127.703 -7.54688L124.48 -7.54688L124.48 -3.39784Q124.48 -2.71653 124.751 -2.47632Q125.021 -2.23611 125.825 -2.23611L127.432 -2.23611L127.432 0L124.751 0Q122.899 0 122.126 -0.773031Q121.353 -1.54606 121.353 -3.39784L121.353 -7.54688L119.798 -7.54688L119.798 -9.78299L121.353 -9.78299L121.353 -12.5607L124.48 -12.5607ZM135.302 -6.02702L151.269 -6.02702L151.269 -3.77344L135.302 -3.77344L135.302 -6.02702ZM163.454 -10.4992L163.454 -2.54183L164.66 -2.54183Q166.721 -2.54183 167.809 -3.5638Q168.896 -4.58577 168.896 -6.53364Q168.896 -8.47276 167.813 -9.486Q166.73 -10.4992 164.66 -10.4992L163.454 -10.4992ZM160.092 -13.0411L163.638 -13.0411Q166.608 -13.0411 168.062 -12.6174Q169.516 -12.1938 170.556 -11.1806Q171.473 -10.2983 171.919 -9.14535Q172.364 -7.99235 172.364 -6.53364Q172.364 -5.05745 171.919 -3.90009Q171.473 -2.74273 170.556 -1.86051Q169.508 -0.847276 168.04 -0.423638Q166.573 0 163.638 0L160.092 0L160.092 -13.0411ZM184.567 -4.9177L184.567 -4.02675L177.255 -4.02675Q177.369 -2.92616 178.05 -2.37587Q178.732 -1.82558 179.955 -1.82558Q180.942 -1.82558 181.977 -2.11819Q183.012 -2.41081 184.104 -3.00477L184.104 -0.593967Q182.994 -0.174696 181.885 0.0393066Q180.776 0.253309 179.666 0.253309Q177.011 0.253309 175.539 -1.09622Q174.067 -2.44575 174.067 -4.88276Q174.067 -7.2761 175.513 -8.64746Q176.958 -10.0188 179.492 -10.0188Q181.798 -10.0188 183.182 -8.62999Q184.567 -7.24116 184.567 -4.9177ZM181.352 -5.95714Q181.352 -6.84809 180.832 -7.39402Q180.313 -7.93994 179.474 -7.93994Q178.566 -7.93994 177.998 -7.42896Q177.43 -6.91797 177.29 -5.95714L181.352 -5.95714ZM193.362 -13.5914L193.362 -11.5387L191.633 -11.5387Q190.969 -11.5387 190.707 -11.2985Q190.445 -11.0583 190.445 -10.4643L190.445 -9.78299L193.118 -9.78299L193.118 -7.54688L190.445 -7.54688L190.445 0L187.318 0L187.318 -7.54688L185.763 -7.54688L185.763 -9.78299L187.318 -9.78299L187.318 -10.4643Q187.318 -12.0628 188.209 -12.8271Q189.1 -13.5914 190.969 -13.5914L193.362 -13.5914ZM204.482 -4.9177L204.482 -4.02675L197.171 -4.02675Q197.284 -2.92616 197.966 -2.37587Q198.647 -1.82558 199.87 -1.82558Q200.857 -1.82558 201.892 -2.11819Q202.927 -2.41081 204.019 -3.00477L204.019 -0.593967Q202.91 -0.174696 201.8 0.0393066Q200.691 0.253309 199.582 0.253309Q196.926 0.253309 195.454 -1.09622Q193.983 -2.44575 193.983 -4.88276Q193.983 -7.2761 195.428 -8.64746Q196.874 -10.0188 199.407 -10.0188Q201.713 -10.0188 203.097 -8.62999Q204.482 -7.24116 204.482 -4.9177ZM201.267 -5.95714Q201.267 -6.84809 200.748 -7.39402Q200.228 -7.93994 199.389 -7.93994Q198.481 -7.93994 197.913 -7.42896Q197.346 -6.91797 197.206 -5.95714L201.267 -5.95714ZM214.745 -9.47727L214.745 -6.9267Q214.108 -7.36344 213.466 -7.57308Q212.824 -7.78271 212.134 -7.78271Q210.823 -7.78271 210.094 -7.01842Q209.365 -6.25412 209.365 -4.88276Q209.365 -3.51139 210.094 -2.7471Q210.823 -1.9828 212.134 -1.9828Q212.867 -1.9828 213.527 -2.20117Q214.186 -2.41954 214.745 -2.84755L214.745 -0.288249C214.256 -0.107729 213.76 0.0276602 213.256 0.11792Q212.5 0.253309 211.741 0.253309Q209.094 0.253309 207.6 -1.10495Q206.107 -2.46322 206.107 -4.88276Q206.107 -7.3023 207.6 -8.66056Q209.094 -10.0188 211.741 -10.0188Q212.509 -10.0188 213.256 -9.88344Q214.003 -9.74805 214.745 -9.47727ZM220.877 -12.5607L220.877 -9.78299L224.1 -9.78299L224.1 -7.54688L220.877 -7.54688L220.877 -3.39784Q220.877 -2.71653 221.148 -2.47632Q221.419 -2.23611 222.222 -2.23611L223.829 -2.23611L223.829 0L221.148 0Q219.296 0 218.523 -0.773031Q217.75 -1.54606 217.75 -3.39784L217.75 -7.54688L216.195 -7.54688L216.195 -9.78299L217.75 -9.78299L217.75 -12.5607L220.877 -12.5607ZM240.295 -2.37587L235.036 -2.37587L234.206 0L230.826 0L235.656 -13.0411L239.666 -13.0411L244.496 0L241.116 0L240.295 -2.37587ZM235.875 -4.79541L239.447 -4.79541L237.665 -9.98389L235.875 -4.79541ZM255.912 -5.95714L255.912 0L252.768 0L252.768 -0.969564L252.768 -4.55957Q252.768 -5.82612 252.711 -6.30653Q252.654 -6.78695 252.515 -7.01405Q252.331 -7.31977 252.017 -7.4901Q251.702 -7.66043 251.3 -7.66043Q250.322 -7.66043 249.763 -6.90487Q249.204 -6.14931 249.204 -4.81288L249.204 0L246.077 0L246.077 -9.78299L249.204 -9.78299L249.204 -8.35048Q249.912 -9.20649 250.706 -9.61266Q251.501 -10.0188 252.462 -10.0188Q254.157 -10.0188 255.035 -8.97938Q255.912 -7.93994 255.912 -5.95714ZM263.215 -4.40234Q262.236 -4.40234 261.743 -4.07042Q261.249 -3.7385 261.249 -3.09212Q261.249 -2.49816 261.647 -2.16187Q262.044 -1.82558 262.752 -1.82558Q263.634 -1.82558 264.237 -2.45885Q264.839 -3.09212 264.839 -4.04422L264.839 -4.40234L263.215 -4.40234ZM267.993 -5.58154L267.993 0L264.839 0L264.839 -1.44998Q264.21 -0.559028 263.424 -0.152859Q262.638 0.253309 261.511 0.253309Q259.992 0.253309 259.044 -0.633274Q258.096 -1.51986 258.096 -2.9349Q258.096 -4.65565 259.28 -5.45926Q260.463 -6.26286 262.996 -6.26286L264.839 -6.26286L264.839 -6.50743Q264.839 -7.24989 264.254 -7.59492Q263.669 -7.93994 262.429 -7.93994Q261.424 -7.93994 260.559 -7.73904Q259.695 -7.53814 258.952 -7.13634L258.952 -9.52094Q259.957 -9.76552 260.97 -9.89217Q261.983 -10.0188 262.996 -10.0188Q265.643 -10.0188 266.818 -8.97502Q267.993 -7.93121 267.993 -5.58154ZM270.919 -13.5914L274.046 -13.5914L274.046 0L270.919 0L270.919 -13.5914ZM275.784 -9.78299L278.911 -9.78299L281.54 -3.14453L283.776 -9.78299L286.904 -9.78299L282.789 0.92589Q282.169 2.5593 281.344 3.21004Q280.518 3.86079 279.164 3.86079L277.356 3.86079L277.356 1.80811L278.335 1.80811Q279.13 1.80811 279.492 1.5548Q279.855 1.30149 280.055 0.646376L280.143 0.375597L275.784 -9.78299ZM296.381 -9.47727L296.381 -7.1014Q295.376 -7.52067 294.442 -7.73031Q293.507 -7.93994 292.677 -7.93994Q291.786 -7.93994 291.354 -7.7172Q290.922 -7.49447 290.922 -7.03152Q290.922 -6.65592 291.249 -6.45502Q291.577 -6.25412 292.424 -6.15804L292.974 -6.07943Q295.376 -5.77371 296.206 -5.07492Q297.036 -4.37614 297.036 -2.88249Q297.036 -1.31896 295.883 -0.532823Q294.73 0.253309 292.441 0.253309Q291.472 0.253309 290.437 0.10045Q289.402 -0.0524089 288.31 -0.358127L288.31 -2.734Q289.244 -2.27978 290.227 -2.05268Q291.21 -1.82557 292.223 -1.82558Q293.14 -1.82558 293.603 -2.07888Q294.066 -2.33219 294.066 -2.83008Q294.066 -3.24935 293.747 -3.45462Q293.428 -3.65989 292.476 -3.77344L291.926 -3.84332Q289.838 -4.10536 289 -4.81288Q288.161 -5.5204 288.161 -6.96164Q288.161 -8.51644 289.227 -9.26763Q290.293 -10.0188 292.494 -10.0188Q293.359 -10.0188 294.311 -9.8878Q295.263 -9.75678 296.381 -9.47727ZM299.394 -9.78299L302.521 -9.78299L302.521 0L299.394 0L299.394 -9.78299ZM299.394 -13.5914L302.521 -13.5914L302.521 -11.0408L299.394 -11.0408L299.394 -13.5914ZM313.187 -9.47727L313.187 -7.1014Q312.182 -7.52067 311.247 -7.73031Q310.313 -7.93994 309.483 -7.93994Q308.592 -7.93994 308.16 -7.7172Q307.727 -7.49447 307.727 -7.03152Q307.727 -6.65592 308.055 -6.45502Q308.382 -6.25412 309.23 -6.15804L309.78 -6.07943Q312.182 -5.77371 313.012 -5.07492Q313.842 -4.37614 313.842 -2.88249Q313.842 -1.31896 312.689 -0.532823Q311.536 0.253309 309.247 0.253309Q308.278 0.253309 307.242 0.10045Q306.207 -0.0524089 305.116 -0.358127L305.116 -2.734Q306.05 -2.27978 307.033 -2.05268Q308.016 -1.82557 309.029 -1.82558Q309.946 -1.82558 310.409 -2.07888Q310.872 -2.33219 310.872 -2.83008Q310.872 -3.24935 310.553 -3.45462Q310.234 -3.65989 309.282 -3.77344L308.732 -3.84332Q306.644 -4.10536 305.806 -4.81288Q304.967 -5.5204 304.967 -6.96164Q304.967 -8.51644 306.033 -9.26763Q307.098 -10.0188 309.3 -10.0188Q310.164 -10.0188 311.116 -9.8878Q312.068 -9.75678 313.187 -9.47727Z" fill="#262626" transform="translate(450,24.099999999999998) translate(-157.3488311767578,0)" />
<rect x="112" y="60" width="698" height="385" fill="#FFFFFF" />
<line x1="153.05882352941177" y1="444.6" x2="153.05882352941177" y2="449.8611111111111" stroke="#262626" stroke-width="1.1111111111111112" />
<path d="M7.43273 -9.79275L7.43273 -8.45676Q6.65283 -8.82975 5.9611 -9.01286Q5.26937 -9.19596 4.62511 -9.19596Q3.50613 -9.19596 2.89917 -8.76194Q2.29221 -8.32791 2.29221 -7.52767Q2.29221 -6.85628 2.69572 -6.51381Q3.09923 -6.17133 4.22499 -5.9611L5.05235 -5.79156Q6.58501 -5.49995 7.31405 -4.76413Q8.04308 -4.02832 8.04308 -2.79405Q8.04308 -1.32243 7.05634 -0.56288Q6.06961 0.196669 4.16395 0.196669Q3.4451 0.196669 2.63468 0.0339084Q1.82427 -0.128852 0.956217 -0.447591L0.956217 -1.85818Q1.79036 -1.39025 2.5906 -1.15289Q3.39084 -0.915527 4.16395 -0.915527Q5.33719 -0.915527 5.97466 -1.37668Q6.61214 -1.83784 6.61214 -2.69233Q6.61214 -3.43831 6.15438 -3.85878Q5.69661 -4.27924 4.65224 -4.48947L3.81809 -4.65224Q2.28543 -4.95741 1.60048 -5.60845Q0.915527 -6.25949 0.915527 -7.41916Q0.915527 -8.76194 1.86157 -9.53505Q2.80762 -10.3082 4.46913 -10.3082Q5.18121 -10.3082 5.92041 -10.1793Q6.65961 -10.0505 7.43273 -9.79275ZM15.5911 -7.30387L15.5911 -6.13742Q15.0621 -6.42904 14.5298 -6.57484Q13.9974 -6.72065 13.4549 -6.72065Q12.2409 -6.72065 11.5696 -5.95093Q10.8982 -5.18121 10.8982 -3.79096Q10.8982 -2.40072 11.5696 -1.631Q12.2409 -0.861274 13.4549 -0.861274Q13.9974 -0.861274 14.5298 -1.00708Q15.0621 -1.15289 15.5911 -1.4445L15.5911 -0.291612Q15.0689 -0.0474718 14.5094 0.0745985Q13.9499 0.196669 13.3192 0.196669Q11.6035 0.196669 10.593 -0.881619Q9.58252 -1.95991 9.58252 -3.79096Q9.58252 -5.64914 10.6032 -6.71387Q11.6238 -7.77859 13.4006 -7.77859Q13.9771 -7.77859 14.5264 -7.65991Q15.0757 -7.54123 15.5911 -7.30387ZM22.1761 -6.42904Q21.9659 -6.55111 21.7183 -6.60875Q21.4708 -6.6664 21.1724 -6.6664Q20.1145 -6.6664 19.5482 -5.97805Q18.9819 -5.28971 18.9819 -4.00119L18.9819 0L17.7273 0L17.7273 -7.59549L18.9819 -7.59549L18.9819 -6.41547Q19.3753 -7.1072 20.006 -7.4429Q20.6367 -7.77859 21.5386 -7.77859Q21.6675 -7.77859 21.8235 -7.76164Q21.9794 -7.74468 22.1693 -7.71077L22.1761 -6.42904ZM26.9504 -3.81809Q25.4381 -3.81809 24.8549 -3.47222Q24.2716 -3.12636 24.2716 -2.29221Q24.2716 -1.6276 24.7091 -1.23766Q25.1465 -0.84771 25.8993 -0.847711Q26.9368 -0.847711 27.5642 -1.58352Q28.1915 -2.31934 28.1915 -3.54004L28.1915 -3.81809L26.9504 -3.81809ZM29.4393 -4.3335L29.4393 0L28.1915 0L28.1915 -1.15289Q27.7642 -0.461155 27.1267 -0.132243Q26.4893 0.196669 25.5669 0.196669Q24.4005 0.196669 23.7122 -0.457764Q23.0238 -1.1122 23.0238 -2.21083Q23.0238 -3.49257 23.8817 -4.14361Q24.7396 -4.79465 26.4418 -4.79465L28.1915 -4.79465L28.1915 -4.91672Q28.1915 -5.77799 27.6252 -6.24932Q27.0589 -6.72065 26.0349 -6.72065Q25.3838 -6.72065 24.7667 -6.56467Q24.1496 -6.40869 23.5799 -6.09673L23.5799 -7.24962Q24.2649 -7.51411 24.9091 -7.64635Q25.5534 -7.77859 26.1637 -7.77859Q27.8117 -7.77859 28.6255 -6.9241Q29.4393 -6.06961 29.4393 -4.3335ZM33.2506 -9.75206L33.2506 -7.59549L35.8209 -7.59549L35.8209 -6.62571L33.2506 -6.62571L33.2506 -2.50244Q33.2506 -1.57335 33.5049 -1.30887Q33.7592 -1.04438 34.5391 -1.04438L35.8209 -1.04438L35.8209 0L34.5391 0Q33.0946 0 32.5453 -0.539144Q31.996 -1.07829 31.996 -2.50244L31.996 -6.62571L31.0805 -6.62571L31.0805 -7.59549L31.996 -7.59549L31.996 -9.75206L33.2506 -9.75206ZM42.9348 -7.30387L42.9348 -6.13742Q42.4059 -6.42904 41.8735 -6.57484Q41.3411 -6.72065 40.7986 -6.72065Q39.5847 -6.72065 38.9133 -5.95093Q38.2419 -5.18121 38.2419 -3.79096Q38.2419 -2.40072 38.9133 -1.631Q39.5847 -0.861274 40.7986 -0.861274Q41.3411 -0.861274 41.8735 -1.00708Q42.4059 -1.15289 42.9348 -1.4445L42.9348 -0.291612Q42.4127 -0.0474718 41.8532 0.0745985Q41.2937 0.196669 40.663 0.196669Q38.9472 0.196669 37.9367 -0.881619Q36.9263 -1.95991 36.9263 -3.79096Q36.9263 -5.64914 37.9469 -6.71387Q38.9676 -7.77859 40.7444 -7.77859Q41.3208 -7.77859 41.8701 -7.65991Q42.4194 -7.54123 42.9348 -7.30387ZM51.4323 -4.58442L51.4323 0L50.1845 0L50.1845 -4.54373Q50.1845 -5.62202 49.764 -6.15777Q49.3435 -6.69352 48.5026 -6.69352Q47.4921 -6.69352 46.9089 -6.04926Q46.3257 -5.405 46.3257 -4.29281L46.3257 0L45.0711 0L45.0711 -10.5523L46.3257 -10.5523L46.3257 -6.41547Q46.7733 -7.10042 47.3802 -7.43951Q47.9872 -7.77859 48.7807 -7.77859Q50.0895 -7.77859 50.7609 -6.96818Q51.4323 -6.15777 51.4323 -4.58442ZM60.4316 -4.1097L60.4316 -3.49935L54.6943 -3.49935Q54.7757 -2.21083 55.4708 -1.53605Q56.1659 -0.861274 57.407 -0.861274Q58.1258 -0.861274 58.8006 -1.0376Q59.4754 -1.21392 60.14 -1.56657L60.14 -0.386556Q59.4686 -0.101725 58.7633 0.0474718Q58.058 0.196669 57.3324 0.196669Q55.5149 0.196669 54.4535 -0.861274Q53.3922 -1.91922 53.3922 -3.72314Q53.3922 -5.58811 54.3993 -6.68335Q55.4064 -7.77859 57.1153 -7.77859Q58.648 -7.77859 59.5398 -6.79186Q60.4316 -5.80512 60.4316 -4.1097ZM59.1838 -4.47591Q59.1702 -5.49995 58.6107 -6.1103Q58.0512 -6.72065 57.1289 -6.72065Q56.0845 -6.72065 55.4572 -6.13064Q54.8299 -5.54064 54.735 -4.46913L59.1838 -4.47591ZM67.3218 -7.37169L67.3218 -6.19168Q66.7928 -6.46294 66.2231 -6.59858Q65.6535 -6.73421 65.0431 -6.73421Q64.114 -6.73421 63.6495 -6.44938Q63.1849 -6.16455 63.1849 -5.59489Q63.1849 -5.16086 63.5173 -4.91333Q63.8496 -4.6658 64.8532 -4.442L65.2805 -4.34706Q66.6097 -4.06223 67.1692 -3.54343Q67.7287 -3.02463 67.7287 -2.09554Q67.7287 -1.0376 66.8911 -0.420464Q66.0536 0.196669 64.5888 0.196669Q63.9784 0.196669 63.3172 0.0779894Q62.656 -0.0406901 61.9236 -0.278049L61.9236 -1.56657Q62.6153 -1.20714 63.2867 -1.02743Q63.9581 -0.84771 64.6159 -0.847711Q65.4975 -0.847711 65.9722 -1.1495Q66.4469 -1.45128 66.4469 -2.0006Q66.4469 -2.50922 66.1045 -2.78049Q65.762 -3.05176 64.6023 -3.30268L64.1683 -3.40441Q63.0086 -3.64855 62.4932 -4.15378Q61.9778 -4.65902 61.9778 -5.54064Q61.9778 -6.61214 62.7374 -7.19537Q63.4969 -7.77859 64.8939 -7.77859Q65.5857 -7.77859 66.196 -7.67687Q66.8064 -7.57514 67.3218 -7.37169Z" fill="#262626" transform="translate(153.05882352941177,460) translate(-34.20681381225586,0)" />
<line x1="255.70588235294116" y1="444.6" x2="255.70588235294116" y2="449.8611111111111" stroke="#262626" stroke-width="1.1111111111111112" />
<path d="M2.73302 -8.9993L2.73302 -1.12576L4.38775 -1.12576Q6.48329 -1.12576 7.45646 -2.0752Q8.42963 -3.02463 8.42963 -5.0727Q8.42963 -7.1072 7.45646 -8.05325Q6.48329 -8.9993 4.38775 -8.9993L2.73302 -8.9993ZM1.36312 -10.1251L4.17752 -10.1251Q7.12077 -10.1251 8.49745 -8.90096Q9.87413 -7.67687 9.87413 -5.0727Q9.87413 -2.45497 8.49067 -1.22748Q7.1072 0 4.17752 0L1.36312 0L1.36312 -10.1251ZM18.4937 -4.1097L18.4937 -3.49935L12.7563 -3.49935Q12.8377 -2.21083 13.5329 -1.53605Q14.228 -0.861274 15.469 -0.861274Q16.1879 -0.861274 16.8627 -1.0376Q17.5374 -1.21392 18.202 -1.56657L18.202 -0.386556Q17.5307 -0.101725 16.8254 0.0474718Q16.1201 0.196669 15.3944 0.196669Q13.5769 0.196669 12.5156 -0.861274Q11.4543 -1.91922 11.4543 -3.72314Q11.4543 -5.58811 12.4613 -6.68335Q13.4684 -7.77859 15.1774 -7.77859Q16.7101 -7.77859 17.6019 -6.79186Q18.4937 -5.80512 18.4937 -4.1097ZM17.2458 -4.47591Q17.2323 -5.49995 16.6728 -6.1103Q16.1133 -6.72065 15.191 -6.72065Q14.1466 -6.72065 13.5193 -6.13064Q12.892 -5.54064 12.797 -4.46913L17.2458 -4.47591ZM26.8555 -4.58442L26.8555 0L25.6076 0L25.6076 -4.54373Q25.6076 -5.62202 25.1872 -6.15777Q24.7667 -6.69352 23.9258 -6.69352Q22.9153 -6.69352 22.3321 -6.04926Q21.7489 -5.405 21.7489 -4.29281L21.7489 0L20.4942 0L20.4942 -7.59549L21.7489 -7.59549L21.7489 -6.41547Q22.1965 -7.10042 22.8034 -7.43951Q23.4104 -7.77859 24.2038 -7.77859Q25.5127 -7.77859 26.1841 -6.96818Q26.8555 -6.15777 26.8555 -4.58442ZM30.5922 -9.75206L30.5922 -7.59549L33.1624 -7.59549L33.1624 -6.62571L30.5922 -6.62571L30.5922 -2.50244Q30.5922 -1.57335 30.8465 -1.30887Q31.1008 -1.04438 31.8807 -1.04438L33.1624 -1.04438L33.1624 0L31.8807 0Q30.4362 0 29.8869 -0.539144Q29.3376 -1.07829 29.3376 -2.50244L29.3376 -6.62571L28.422 -6.62571L28.422 -7.59549L29.3376 -7.59549L29.3376 -9.75206L30.5922 -9.75206ZM39.6525 -7.37169L39.6525 -6.19168Q39.1235 -6.46294 38.5539 -6.59858Q37.9842 -6.73421 37.3739 -6.73421Q36.4448 -6.73421 35.9802 -6.44938Q35.5157 -6.16455 35.5157 -5.59489Q35.5157 -5.16086 35.848 -4.91333Q36.1803 -4.6658 37.184 -4.442L37.6112 -4.34706Q38.9404 -4.06223 39.4999 -3.54343Q40.0594 -3.02463 40.0594 -2.09554Q40.0594 -1.0376 39.2219 -0.420464Q38.3843 0.196669 36.9195 0.196669Q36.3091 0.196669 35.6479 0.0779894Q34.9867 -0.0406901 34.2543 -0.278049L34.2543 -1.56657Q34.946 -1.20714 35.6174 -1.02743Q36.2888 -0.84771 36.9466 -0.847711Q37.8282 -0.847711 38.303 -1.1495Q38.7777 -1.45128 38.7777 -2.0006Q38.7777 -2.50922 38.4352 -2.78049Q38.0927 -3.05176 36.9331 -3.30268L36.499 -3.40441Q35.3394 -3.64855 34.8239 -4.15378Q34.3085 -4.65902 34.3085 -5.54064Q34.3085 -6.61214 35.0681 -7.19537Q35.8276 -7.77859 37.2247 -7.77859Q37.9164 -7.77859 38.5267 -7.67687Q39.1371 -7.57514 39.6525 -7.37169Z" fill="#262626" transform="translate(255.70588235294116,460) translate(-20.37217903137207,0)" />
<line x1="358.3529411764706" y1="444.6" x2="358.3529411764706" y2="449.8611111111111" stroke="#262626" stroke-width="1.1111111111111112" />
<path d="M8.94504 -9.34516L8.94504 -7.90066Q8.25331 -8.54492 7.47003 -8.86366Q6.68674 -9.1824 5.80512 -9.1824Q4.06901 -9.1824 3.1467 -8.12107Q2.22439 -7.05973 2.22439 -5.05235Q2.22439 -3.05176 3.1467 -1.99042Q4.06901 -0.929091 5.80512 -0.929091Q6.68674 -0.929091 7.47003 -1.24783Q8.25331 -1.56657 8.94504 -2.21083L8.94504 -0.779894Q8.22618 -0.291612 7.42255 -0.0474718Q6.61892 0.196669 5.72374 0.196669Q3.42475 0.196669 2.10232 -1.21053Q0.779894 -2.61773 0.779894 -5.05235Q0.779894 -7.49376 2.10232 -8.90096Q3.42475 -10.3082 5.72374 -10.3082Q6.63249 -10.3082 7.43612 -10.0674Q8.23975 -9.82666 8.94504 -9.34516ZM15.4215 -6.42904Q15.2113 -6.55111 14.9638 -6.60875Q14.7163 -6.6664 14.4179 -6.6664Q13.3599 -6.6664 12.7936 -5.97805Q12.2274 -5.28971 12.2274 -4.00119L12.2274 0L10.9728 0L10.9728 -7.59549L12.2274 -7.59549L12.2274 -6.41547Q12.6207 -7.1072 13.2514 -7.4429Q13.8821 -7.77859 14.7841 -7.77859Q14.9129 -7.77859 15.0689 -7.76164Q15.2249 -7.74468 15.4148 -7.71077L15.4215 -6.42904ZM20.1959 -3.81809Q18.6835 -3.81809 18.1003 -3.47222Q17.5171 -3.12636 17.5171 -2.29221Q17.5171 -1.6276 17.9545 -1.23766Q18.3919 -0.84771 19.1447 -0.847711Q20.1823 -0.847711 20.8096 -1.58352Q21.4369 -2.31934 21.4369 -3.54004L21.4369 -3.81809L20.1959 -3.81809ZM22.6847 -4.3335L22.6847 0L21.4369 0L21.4369 -1.15289Q21.0097 -0.461155 20.3722 -0.132243Q19.7347 0.196669 18.8124 0.196669Q17.6459 0.196669 16.9576 -0.457764Q16.2693 -1.1122 16.2693 -2.21083Q16.2693 -3.49257 17.1271 -4.14361Q17.985 -4.79465 19.6872 -4.79465L21.4369 -4.79465L21.4369 -4.91672Q21.4369 -5.77799 20.8706 -6.24932Q20.3044 -6.72065 19.2803 -6.72065Q18.6293 -6.72065 18.0122 -6.56467Q17.395 -6.40869 16.8254 -6.09673L16.8254 -7.24962Q17.5103 -7.51411 18.1546 -7.64635Q18.7988 -7.77859 19.4092 -7.77859Q21.0571 -7.77859 21.8709 -6.9241Q22.6847 -6.06961 22.6847 -4.3335ZM30.7278 -7.30387L30.7278 -6.13742Q30.1988 -6.42904 29.6665 -6.57484Q29.1341 -6.72065 28.5916 -6.72065Q27.3777 -6.72065 26.7063 -5.95093Q26.0349 -5.18121 26.0349 -3.79096Q26.0349 -2.40072 26.7063 -1.631Q27.3777 -0.861274 28.5916 -0.861274Q29.1341 -0.861274 29.6665 -1.00708Q30.1988 -1.15289 30.7278 -1.4445L30.7278 -0.291612Q30.2056 -0.0474718 29.6461 0.0745985Q29.0866 0.196669 28.4559 0.196669Q26.7402 0.196669 25.7297 -0.881619Q24.7192 -1.95991 24.7192 -3.79096Q24.7192 -5.64914 25.7399 -6.71387Q26.7605 -7.77859 28.5373 -7.77859Q29.1138 -7.77859 29.6631 -7.65991Q30.2124 -7.54123 30.7278 -7.30387ZM32.864 -10.5523L34.1187 -10.5523L34.1187 -4.31993L37.8418 -7.59549L39.4355 -7.59549L35.4072 -4.04188L39.605 0L37.9774 0L34.1187 -3.70958L34.1187 0L32.864 0L32.864 -10.5523ZM45.8103 -7.37169L45.8103 -6.19168Q45.2813 -6.46294 44.7116 -6.59858Q44.142 -6.73421 43.5316 -6.73421Q42.6025 -6.73421 42.138 -6.44938Q41.6734 -6.16455 41.6734 -5.59489Q41.6734 -5.16086 42.0057 -4.91333Q42.3381 -4.6658 43.3417 -4.442L43.769 -4.34706Q45.0982 -4.06223 45.6577 -3.54343Q46.2172 -3.02463 46.2172 -2.09554Q46.2172 -1.0376 45.3796 -0.420464Q44.5421 0.196669 43.0773 0.196669Q42.4669 0.196669 41.8057 0.0779894Q41.1445 -0.0406901 40.4121 -0.278049L40.4121 -1.56657Q41.1038 -1.20714 41.7752 -1.02743Q42.4466 -0.84771 43.1044 -0.847711Q43.986 -0.847711 44.4607 -1.1495Q44.9354 -1.45128 44.9354 -2.0006Q44.9354 -2.50922 44.593 -2.78049Q44.2505 -3.05176 43.0908 -3.30268L42.6568 -3.40441Q41.4971 -3.64855 40.9817 -4.15378Q40.4663 -4.65902 40.4663 -5.54064Q40.4663 -6.61214 41.2259 -7.19537Q41.9854 -7.77859 43.3824 -7.77859Q44.0742 -7.77859 44.6845 -7.67687Q45.2949 -7.57514 45.8103 -7.37169Z" fill="#262626" transform="translate(358.3529411764706,460) translate(-23.45106315612793,0)" />
<line x1="461" y1="444.6" x2="461" y2="449.8611111111111" stroke="#262626" stroke-width="1.1111111111111112" />
<path d="M7.43273 -9.79275L7.43273 -8.45676Q6.65283 -8.82975 5.9611 -9.01286Q5.26937 -9.19596 4.62511 -9.19596Q3.50613 -9.19596 2.89917 -8.76194Q2.29221 -8.32791 2.29221 -7.52767Q2.29221 -6.85628 2.69572 -6.51381Q3.09923 -6.17133 4.22499 -5.9611L5.05235 -5.79156Q6.58501 -5.49995 7.31405 -4.76413Q8.04308 -4.02832 8.04308 -2.79405Q8.04308 -1.32243 7.05634 -0.56288Q6.06961 0.196669 4.16395 0.196669Q3.4451 0.196669 2.63468 0.0339084Q1.82427 -0.128852 0.956217 -0.447591L0.956217 -1.85818Q1.79036 -1.39025 2.5906 -1.15289Q3.39084 -0.915527 4.16395 -0.915527Q5.33719 -0.915527 5.97466 -1.37668Q6.61214 -1.83784 6.61214 -2.69233Q6.61214 -3.43831 6.15438 -3.85878Q5.69661 -4.27924 4.65224 -4.48947L3.81809 -4.65224Q2.28543 -4.95741 1.60048 -5.60845Q0.915527 -6.25949 0.915527 -7.41916Q0.915527 -8.76194 1.86157 -9.53505Q2.80762 -10.3082 4.46913 -10.3082Q5.18121 -10.3082 5.92041 -10.1793Q6.65961 -10.0505 7.43273 -9.79275ZM11.3593 -9.75206L11.3593 -7.59549L13.9296 -7.59549L13.9296 -6.62571L11.3593 -6.62571L11.3593 -2.50244Q11.3593 -1.57335 11.6136 -1.30887Q11.8679 -1.04438 12.6478 -1.04438L13.9296 -1.04438L13.9296 0L12.6478 0Q11.2033 0 10.654 -0.539144Q10.1047 -1.07829 10.1047 -2.50244L10.1047 -6.62571L9.18918 -6.62571L9.18918 -7.59549L10.1047 -7.59549L10.1047 -9.75206L11.3593 -9.75206ZM19.0294 -3.81809Q17.5171 -3.81809 16.9339 -3.47222Q16.3506 -3.12636 16.3506 -2.29221Q16.3506 -1.6276 16.7881 -1.23766Q17.2255 -0.84771 17.9782 -0.847711Q19.0158 -0.847711 19.6431 -1.58352Q20.2705 -2.31934 20.2705 -3.54004L20.2705 -3.81809L19.0294 -3.81809ZM21.5183 -4.3335L21.5183 0L20.2705 0L20.2705 -1.15289Q19.8432 -0.461155 19.2057 -0.132243Q18.5683 0.196669 17.6459 0.196669Q16.4795 0.196669 15.7912 -0.457764Q15.1028 -1.1122 15.1028 -2.21083Q15.1028 -3.49257 15.9607 -4.14361Q16.8186 -4.79465 18.5208 -4.79465L20.2705 -4.79465L20.2705 -4.91672Q20.2705 -5.77799 19.7042 -6.24932Q19.1379 -6.72065 18.1139 -6.72065Q17.4628 -6.72065 16.8457 -6.56467Q16.2286 -6.40869 15.6589 -6.09673L15.6589 -7.24962Q16.3439 -7.51411 16.9881 -7.64635Q17.6324 -7.77859 18.2427 -7.77859Q19.8907 -7.77859 20.7045 -6.9241Q21.5183 -6.06961 21.5183 -4.3335ZM24.0953 -7.59549L25.3432 -7.59549L25.3432 0L24.0953 0L24.0953 -7.59549ZM24.0953 -10.5523L25.3432 -10.5523L25.3432 -8.97217L24.0953 -8.97217L24.0953 -10.5523ZM34.2611 -4.58442L34.2611 0L33.0132 0L33.0132 -4.54373Q33.0132 -5.62202 32.5928 -6.15777Q32.1723 -6.69352 31.3314 -6.69352Q30.3209 -6.69352 29.7377 -6.04926Q29.1545 -5.405 29.1545 -4.29281L29.1545 0L27.8998 0L27.8998 -7.59549L29.1545 -7.59549L29.1545 -6.41547Q29.6021 -7.10042 30.209 -7.43951Q30.816 -7.77859 31.6094 -7.77859Q32.9183 -7.77859 33.5897 -6.96818Q34.2611 -6.15777 34.2611 -4.58442ZM41.6056 -7.37169L41.6056 -6.19168Q41.0767 -6.46294 40.507 -6.59858Q39.9373 -6.73421 39.327 -6.73421Q38.3979 -6.73421 37.9334 -6.44938Q37.4688 -6.16455 37.4688 -5.59489Q37.4688 -5.16086 37.8011 -4.91333Q38.1334 -4.6658 39.1371 -4.442L39.5643 -4.34706Q40.8936 -4.06223 41.453 -3.54343Q42.0125 -3.02463 42.0125 -2.09554Q42.0125 -1.0376 41.175 -0.420464Q40.3375 0.196669 38.8726 0.196669Q38.2623 0.196669 37.6011 0.0779894Q36.9398 -0.0406901 36.2074 -0.278049L36.2074 -1.56657Q36.8991 -1.20714 37.5705 -1.02743Q38.2419 -0.84771 38.8997 -0.847711Q39.7814 -0.847711 40.2561 -1.1495Q40.7308 -1.45128 40.7308 -2.0006Q40.7308 -2.50922 40.3883 -2.78049Q40.0458 -3.05176 38.8862 -3.30268L38.4522 -3.40441Q37.2925 -3.64855 36.7771 -4.15378Q36.2617 -4.65902 36.2617 -5.54064Q36.2617 -6.61214 37.0212 -7.19537Q37.7808 -7.77859 39.1778 -7.77859Q39.8695 -7.77859 40.4799 -7.67687Q41.0902 -7.57514 41.6056 -7.37169Z" fill="#262626" transform="translate(461,460) translate(-21.348743438720703,0)" />
<line x1="563.6470588235294" y1="444.6" x2="563.6470588235294" y2="449.8611111111111" stroke="#262626" stroke-width="1.1111111111111112" />
<path d="M2.73302 -4.83534L2.73302 -1.12576L4.93028 -1.12576Q6.0357 -1.12576 6.56806 -1.58352Q7.10042 -2.04129 7.10042 -2.98394Q7.10042 -3.93338 6.56806 -4.38436Q6.0357 -4.83534 4.93028 -4.83534L2.73302 -4.83534ZM2.73302 -8.9993L2.73302 -5.94754L4.76074 -5.94754Q5.76443 -5.94754 6.2561 -6.32392Q6.74778 -6.7003 6.74778 -7.47342Q6.74778 -8.23975 6.2561 -8.61952Q5.76443 -8.99929 4.76074 -8.9993L2.73302 -8.9993ZM1.36312 -10.1251L4.86247 -10.1251Q6.42904 -10.1251 7.27675 -9.47401Q8.12446 -8.82297 8.12446 -7.62261Q8.12446 -6.69352 7.69043 -6.14421Q7.2564 -5.59489 6.41547 -5.45926Q7.42594 -5.24224 7.98543 -4.5539Q8.54492 -3.86556 8.54492 -2.83474Q8.54492 -1.47841 7.62261 -0.739204Q6.7003 0 4.9981 0L1.36312 0L1.36312 -10.1251ZM15.2317 -6.42904Q15.0214 -6.55111 14.7739 -6.60875Q14.5264 -6.6664 14.228 -6.6664Q13.17 -6.6664 12.6038 -5.97805Q12.0375 -5.28971 12.0375 -4.00119L12.0375 0L10.7829 0L10.7829 -7.59549L12.0375 -7.59549L12.0375 -6.41547Q12.4308 -7.1072 13.0615 -7.4429Q13.6922 -7.77859 14.5942 -7.77859Q14.723 -7.77859 14.879 -7.76164Q15.035 -7.74468 15.2249 -7.71077L15.2317 -6.42904ZM22.7526 -4.1097L22.7526 -3.49935L17.0152 -3.49935Q17.0966 -2.21083 17.7917 -1.53605Q18.4869 -0.861274 19.7279 -0.861274Q20.4468 -0.861274 21.1216 -1.0376Q21.7963 -1.21392 22.4609 -1.56657L22.4609 -0.386556Q21.7896 -0.101725 21.0843 0.0474718Q20.379 0.196669 19.6533 0.196669Q17.8358 0.196669 16.7745 -0.861274Q15.7132 -1.91922 15.7132 -3.72314Q15.7132 -5.58811 16.7202 -6.68335Q17.7273 -7.77859 19.4363 -7.77859Q20.969 -7.77859 21.8608 -6.79186Q22.7526 -5.80512 22.7526 -4.1097ZM21.5047 -4.47591Q21.4912 -5.49995 20.9317 -6.1103Q20.3722 -6.72065 19.4499 -6.72065Q18.4055 -6.72065 17.7782 -6.13064Q17.1509 -5.54064 17.0559 -4.46913L21.5047 -4.47591ZM28.2525 -3.81809Q26.7402 -3.81809 26.157 -3.47222Q25.5737 -3.12636 25.5737 -2.29221Q25.5737 -1.6276 26.0111 -1.23766Q26.4486 -0.84771 27.2013 -0.847711Q28.2389 -0.847711 28.8662 -1.58352Q29.4935 -2.31934 29.4935 -3.54004L29.4935 -3.81809L28.2525 -3.81809ZM30.7414 -4.3335L30.7414 0L29.4935 0L29.4935 -1.15289Q29.0663 -0.461155 28.4288 -0.132243Q27.7913 0.196669 26.869 0.196669Q25.7026 0.196669 25.0142 -0.457764Q24.3259 -1.1122 24.3259 -2.21083Q24.3259 -3.49257 25.1838 -4.14361Q26.0417 -4.79465 27.7439 -4.79465L29.4935 -4.79465L29.4935 -4.91672Q29.4935 -5.77799 28.9273 -6.24932Q28.361 -6.72065 27.337 -6.72065Q26.6859 -6.72065 26.0688 -6.56467Q25.4517 -6.40869 24.882 -6.09673L24.882 -7.24962Q25.5669 -7.51411 26.2112 -7.64635Q26.8555 -7.77859 27.4658 -7.77859Q29.1138 -7.77859 29.9276 -6.9241Q30.7414 -6.06961 30.7414 -4.3335ZM33.2709 -10.5523L34.5256 -10.5523L34.5256 -4.31993L38.2487 -7.59549L39.8424 -7.59549L35.8141 -4.04188L40.0119 0L38.3843 0L34.5256 -3.70958L34.5256 0L33.2709 0L33.2709 -10.5523ZM46.2172 -7.37169L46.2172 -6.19168Q45.6882 -6.46294 45.1185 -6.59858Q44.5489 -6.73421 43.9385 -6.73421Q43.0094 -6.73421 42.5449 -6.44938Q42.0803 -6.16455 42.0803 -5.59489Q42.0803 -5.16086 42.4127 -4.91333Q42.745 -4.6658 43.7486 -4.442L44.1759 -4.34706Q45.5051 -4.06223 46.0646 -3.54343Q46.6241 -3.02463 46.6241 -2.09554Q46.6241 -1.0376 45.7865 -0.420464Q44.949 0.196669 43.4842 0.196669Q42.8738 0.196669 42.2126 0.0779894Q41.5514 -0.0406901 40.819 -0.278049L40.819 -1.56657Q41.5107 -1.20714 42.1821 -1.02743Q42.8535 -0.84771 43.5113 -0.847711Q44.3929 -0.847711 44.8676 -1.1495Q45.3423 -1.45128 45.3423 -2.0006Q45.3423 -2.50922 44.9999 -2.78049Q44.6574 -3.05176 43.4977 -3.30268L43.0637 -3.40441Q41.904 -3.64855 41.3886 -4.15378Q40.8732 -4.65902 40.8732 -5.54064Q40.8732 -6.61214 41.6328 -7.19537Q42.3923 -7.77859 43.7893 -7.77859Q44.4811 -7.77859 45.0914 -7.67687Q45.7018 -7.57514 46.2172 -7.37169Z" fill="#262626" transform="translate(563.6470588235294,460) translate(-23.65451431274414,0)" />
<line x1="666.2941176470588" y1="444.6" x2="666.2941176470588" y2="449.8611111111111" stroke="#262626" stroke-width="1.1111111111111112" />
<path d="M1.36312 -10.1251L3.40441 -10.1251L5.98823 -3.23486L8.58561 -10.1251L10.6269 -10.1251L10.6269 0L9.29091 0L9.29091 -8.89079L6.67996 -1.94634L5.30328 -1.94634L2.69233 -8.89079L2.69233 0L1.36312 0L1.36312 -10.1251ZM13.2989 -7.59549L14.5467 -7.59549L14.5467 0L13.2989 0L13.2989 -7.59549ZM13.2989 -10.5523L14.5467 -10.5523L14.5467 -8.97217L13.2989 -8.97217L13.2989 -10.5523ZM21.993 -7.37169L21.993 -6.19168Q21.464 -6.46294 20.8944 -6.59858Q20.3247 -6.73421 19.7144 -6.73421Q18.7853 -6.73421 18.3207 -6.44938Q17.8562 -6.16455 17.8562 -5.59489Q17.8562 -5.16086 18.1885 -4.91333Q18.5208 -4.6658 19.5245 -4.442L19.9517 -4.34706Q21.2809 -4.06223 21.8404 -3.54343Q22.3999 -3.02463 22.3999 -2.09554Q22.3999 -1.0376 21.5624 -0.420464Q20.7248 0.196669 19.26 0.196669Q18.6496 0.196669 17.9884 0.0779894Q17.3272 -0.0406901 16.5948 -0.278049L16.5948 -1.56657Q17.2865 -1.20714 17.9579 -1.02743Q18.6293 -0.84771 19.2871 -0.847711Q20.1687 -0.847711 20.6434 -1.1495Q21.1182 -1.45128 21.1182 -2.0006Q21.1182 -2.50922 20.7757 -2.78049Q20.4332 -3.05176 19.2735 -3.30268L18.8395 -3.40441Q17.6799 -3.64855 17.1644 -4.15378Q16.649 -4.65902 16.649 -5.54064Q16.649 -6.61214 17.4086 -7.19537Q18.1681 -7.77859 19.5652 -7.77859Q20.2569 -7.77859 20.8672 -7.67687Q21.4776 -7.57514 21.993 -7.37169ZM29.2358 -7.37169L29.2358 -6.19168Q28.7069 -6.46294 28.1372 -6.59858Q27.5675 -6.73421 26.9572 -6.73421Q26.0281 -6.73421 25.5636 -6.44938Q25.099 -6.16455 25.099 -5.59489Q25.099 -5.16086 25.4313 -4.91333Q25.7636 -4.6658 26.7673 -4.442L27.1946 -4.34706Q28.5238 -4.06223 29.0833 -3.54343Q29.6427 -3.02463 29.6427 -2.09554Q29.6427 -1.0376 28.8052 -0.420464Q27.9677 0.196669 26.5028 0.196669Q25.8925 0.196669 25.2313 0.0779894Q24.57 -0.0406901 23.8376 -0.278049L23.8376 -1.56657Q24.5294 -1.20714 25.2007 -1.02743Q25.8721 -0.84771 26.5299 -0.847711Q27.4116 -0.847711 27.8863 -1.1495Q28.361 -1.45128 28.361 -2.0006Q28.361 -2.50922 28.0185 -2.78049Q27.6761 -3.05176 26.5164 -3.30268L26.0824 -3.40441Q24.9227 -3.64855 24.4073 -4.15378Q23.8919 -4.65902 23.8919 -5.54064Q23.8919 -6.61214 24.6514 -7.19537Q25.411 -7.77859 26.808 -7.77859Q27.4997 -7.77859 28.1101 -7.67687Q28.7204 -7.57514 29.2358 -7.37169ZM31.6366 -7.59549L32.8844 -7.59549L32.8844 0L31.6366 0L31.6366 -7.59549ZM31.6366 -10.5523L32.8844 -10.5523L32.8844 -8.97217L31.6366 -8.97217L31.6366 -10.5523ZM41.8023 -4.58442L41.8023 0L40.5545 0L40.5545 -4.54373Q40.5545 -5.62202 40.134 -6.15777Q39.7135 -6.69352 38.8726 -6.69352Q37.8621 -6.69352 37.2789 -6.04926Q36.6957 -5.405 36.6957 -4.29281L36.6957 0L35.4411 0L35.4411 -7.59549L36.6957 -7.59549L36.6957 -6.41547Q37.1433 -7.10042 37.7502 -7.43951Q38.3572 -7.77859 39.1507 -7.77859Q40.4595 -7.77859 41.1309 -6.96818Q41.8023 -6.15777 41.8023 -4.58442ZM49.3028 -3.88591Q49.3028 -5.24224 48.7434 -5.98823Q48.1839 -6.73421 47.1734 -6.73421Q46.1697 -6.73421 45.6102 -5.98823Q45.0507 -5.24224 45.0507 -3.88591Q45.0507 -2.53635 45.6102 -1.79036Q46.1697 -1.04438 47.1734 -1.04438Q48.1839 -1.04438 48.7434 -1.79036Q49.3028 -2.53635 49.3028 -3.88591ZM50.5507 -0.942654Q50.5507 0.996908 49.6894 1.94295Q48.8281 2.889 47.0513 2.889Q46.3935 2.889 45.8103 2.79066Q45.2271 2.69233 44.6777 2.48888L44.6777 1.27496Q45.2271 1.57335 45.7628 1.71577Q46.2986 1.85818 46.8547 1.85818Q48.0821 1.85818 48.6925 1.21731Q49.3028 0.576443 49.3028 -0.718859L49.3028 -1.33599Q48.9163 -0.664605 48.3127 -0.332303C47.9103 -0.110768 47.4288 0 46.8682 0Q45.4712 0 44.6167 -1.06472Q43.7622 -2.12945 43.7622 -3.88591Q43.7622 -5.64914 44.6167 -6.71387Q45.4712 -7.77859 46.8682 -7.77859Q47.7092 -7.77859 48.3127 -7.44629Q48.9163 -7.11399 49.3028 -6.4426L49.3028 -7.59549L50.5507 -7.59549L50.5507 -0.942654Z" fill="#262626" transform="translate(666.2941176470588,460) translate(-25.906034469604492,0)" />
<line x1="768.9411764705882" y1="444.6" x2="768.9411764705882" y2="449.8611111111111" stroke="#262626" stroke-width="1.1111111111111112" />
<path d="M0.461155 -10.1251L1.84462 -10.1251L3.97407 -1.56657L6.09673 -10.1251L7.63618 -10.1251L9.76563 -1.56657L11.8883 -10.1251L13.2785 -10.1251L10.7354 0L9.01286 0L6.87663 -8.78906L4.72005 0L2.9975 0L0.461155 -10.1251ZM17.5917 -3.81809Q16.0794 -3.81809 15.4961 -3.47222Q14.9129 -3.12636 14.9129 -2.29221Q14.9129 -1.6276 15.3503 -1.23766Q15.7878 -0.84771 16.5405 -0.847711Q17.5781 -0.847711 18.2054 -1.58352Q18.8327 -2.31934 18.8327 -3.54004L18.8327 -3.81809L17.5917 -3.81809ZM20.0806 -4.3335L20.0806 0L18.8327 0L18.8327 -1.15289Q18.4055 -0.461155 17.768 -0.132243Q17.1305 0.196669 16.2082 0.196669Q15.0418 0.196669 14.3534 -0.457764Q13.6651 -1.1122 13.6651 -2.21083Q13.6651 -3.49257 14.523 -4.14361Q15.3809 -4.79465 17.0831 -4.79465L18.8327 -4.79465L18.8327 -4.91672Q18.8327 -5.77799 18.2665 -6.24932Q17.7002 -6.72065 16.6762 -6.72065Q16.0251 -6.72065 15.408 -6.56467Q14.7909 -6.40869 14.2212 -6.09673L14.2212 -7.24962Q14.9061 -7.51411 15.5504 -7.64635Q16.1947 -7.77859 16.805 -7.77859Q18.453 -7.77859 19.2668 -6.9241Q20.0806 -6.06961 20.0806 -4.3335ZM27.0589 -6.42904Q26.8487 -6.55111 26.6012 -6.60875Q26.3536 -6.6664 26.0552 -6.6664Q24.9973 -6.6664 24.431 -5.97805Q23.8647 -5.28971 23.8647 -4.00119L23.8647 0L22.6101 0L22.6101 -7.59549L23.8647 -7.59549L23.8647 -6.41547Q24.2581 -7.1072 24.8888 -7.4429Q25.5195 -7.77859 26.4214 -7.77859Q26.5503 -7.77859 26.7063 -7.76164Q26.8623 -7.74468 27.0521 -7.71077L27.0589 -6.42904ZM29.5885 -1.13932L29.5885 2.889L28.3339 2.889L28.3339 -7.59549L29.5885 -7.59549L29.5885 -6.4426Q29.9818 -7.12077 30.582 -7.44968Q31.1822 -7.77859 32.0163 -7.77859Q33.3998 -7.77859 34.2645 -6.67996Q35.1291 -5.58133 35.1291 -3.79096Q35.1291 -2.0006 34.2645 -0.901964Q33.3998 0.196669 32.0163 0.196669Q31.1822 0.196669 30.582 -0.132243Q29.9818 -0.461155 29.5885 -1.13932ZM33.8338 -3.79096Q33.8338 -5.16764 33.2676 -5.95093Q32.7013 -6.73421 31.7112 -6.73421Q30.721 -6.73421 30.1548 -5.95093Q29.5885 -5.16764 29.5885 -3.79096Q29.5885 -2.41428 30.1548 -1.631Q30.721 -0.847711 31.7112 -0.847711Q32.7013 -0.847711 33.2676 -1.631Q33.8338 -2.41428 33.8338 -3.79096Z" fill="#262626" transform="translate(768.9411764705882,460) translate(-17.944337844848633,0)" />
<line x1="107.13888888888889" y1="445" x2="112.4" y2="445" stroke="#262626" stroke-width="1.1111111111111112" />
<path d="M4.41488 -9.22309Q3.35693 -9.22309 2.82457 -8.1821Q2.29221 -7.14111 2.29221 -5.05235Q2.29221 -2.97038 2.82457 -1.92939Q3.35693 -0.888401 4.41488 -0.888401Q5.4796 -0.888401 6.01196 -1.92939Q6.54433 -2.97038 6.54433 -5.05235Q6.54433 -7.14111 6.01196 -8.1821Q5.4796 -9.22309 4.41488 -9.22309ZM4.41488 -10.3082Q6.11708 -10.3082 7.01565 -8.962Q7.91422 -7.61583 7.91423 -5.05235Q7.91423 -2.49566 7.01565 -1.1495Q6.11708 0.196669 4.41488 0.196669Q2.71267 0.196669 1.8141 -1.1495Q0.915527 -2.49566 0.915527 -5.05235Q0.915527 -7.61583 1.8141 -8.962Q2.71267 -10.3082 4.41488 -10.3082Z" fill="#262626" transform="translate(102.27777777777777,449) translate(-8.843316078186035,0)" />
<line x1="107.13888888888889" y1="393.3568075117371" x2="112.4" y2="393.3568075117371" stroke="#262626" stroke-width="1.1111111111111112" />
<path d="M2.6652 -1.15289L7.44629 -1.15289L7.44629 0L1.01725 0L1.01725 -1.15289Q1.79715 -1.95991 3.14331 -3.31963Q4.48947 -4.67936 4.83534 -5.0727Q5.49316 -5.8119 5.75426 -6.32392Q6.01535 -6.83594 6.01535 -7.331Q6.01535 -8.13802 5.44908 -8.64665Q4.88281 -9.15527 3.97407 -9.15527Q3.32981 -9.15527 2.61434 -8.93148Q1.89887 -8.70768 1.08507 -8.25331L1.08507 -9.63677Q1.91243 -9.96908 2.63129 -10.1386Q3.35015 -10.3082 3.94694 -10.3082Q5.52029 -10.3082 6.45616 -9.52148Q7.39204 -8.73481 7.39204 -7.41916Q7.39204 -6.79525 7.15807 -6.23576Q6.9241 -5.67627 6.30697 -4.91672Q6.13742 -4.72005 5.22868 -3.78079Q4.31993 -2.84153 2.6652 -1.15289ZM13.2582 -9.22309Q12.2002 -9.22309 11.6679 -8.1821Q11.1355 -7.14111 11.1355 -5.05235Q11.1355 -2.97038 11.6679 -1.92939Q12.2002 -0.888401 13.2582 -0.888401Q14.3229 -0.888401 14.8553 -1.92939Q15.3876 -2.97038 15.3876 -5.05235Q15.3876 -7.14111 14.8553 -8.1821Q14.3229 -9.22309 13.2582 -9.22309ZM13.2582 -10.3082Q14.9604 -10.3082 15.859 -8.962Q16.7575 -7.61583 16.7575 -5.05235Q16.7575 -2.49566 15.859 -1.1495Q14.9604 0.196669 13.2582 0.196669Q11.556 0.196669 10.6574 -1.1495Q9.75884 -2.49566 9.75884 -5.05235Q9.75884 -7.61583 10.6574 -8.962Q11.556 -10.3082 13.2582 -10.3082Z" fill="#262626" transform="translate(102.27777777777777,397.3568075117371) translate(-17.68663215637207,0)" />
<line x1="107.13888888888889" y1="341.7136150234742" x2="112.4" y2="341.7136150234742" stroke="#262626" stroke-width="1.1111111111111112" />
<path d="M5.24902 -8.93148L1.79036 -3.52648L5.24902 -3.52648L5.24902 -8.93148ZM4.88959 -10.1251L6.61214 -10.1251L6.61214 -3.52648L8.05664 -3.52648L8.05664 -2.38715L6.61214 -2.38715L6.61214 0L5.24902 0L5.24902 -2.38715L0.678168 -2.38715L0.678168 -3.70958L4.88959 -10.1251ZM13.2582 -9.22309Q12.2002 -9.22309 11.6679 -8.1821Q11.1355 -7.14111 11.1355 -5.05235Q11.1355 -2.97038 11.6679 -1.92939Q12.2002 -0.888401 13.2582 -0.888401Q14.3229 -0.888401 14.8553 -1.92939Q15.3876 -2.97038 15.3876 -5.05235Q15.3876 -7.14111 14.8553 -8.1821Q14.3229 -9.22309 13.2582 -9.22309ZM13.2582 -10.3082Q14.9604 -10.3082 15.859 -8.962Q16.7575 -7.61583 16.7575 -5.05235Q16.7575 -2.49566 15.859 -1.1495Q14.9604 0.196669 13.2582 0.196669Q11.556 0.196669 10.6574 -1.1495Q9.75884 -2.49566 9.75884 -5.05235Q9.75884 -7.61583 10.6574 -8.962Q11.556 -10.3082 13.2582 -10.3082Z" fill="#262626" transform="translate(102.27777777777777,345.7136150234742) translate(-17.68663215637207,0)" />
<line x1="107.13888888888889" y1="290.07042253521126" x2="112.4" y2="290.07042253521126" stroke="#262626" stroke-width="1.1111111111111112" />
<path d="M4.58442 -5.60845Q3.66211 -5.60845 3.12297 -4.97776Q2.58382 -4.34706 2.58382 -3.24843Q2.58382 -2.15658 3.12297 -1.52249Q3.66211 -0.888401 4.58442 -0.888401Q5.50673 -0.888401 6.04587 -1.52249Q6.58502 -2.15658 6.58502 -3.24843Q6.58502 -4.34706 6.04587 -4.97776Q5.50673 -5.60845 4.58442 -5.60845ZM7.30387 -9.90126L7.30387 -8.65343Q6.78847 -8.89757 6.26289 -9.02642Q5.7373 -9.15527 5.2219 -9.15527Q3.86556 -9.15527 3.15009 -8.23975Q2.43462 -7.32422 2.3329 -5.47282Q2.73302 -6.06282 3.33659 -6.37817Q3.94016 -6.69352 4.6658 -6.69352Q6.19168 -6.69352 7.07669 -5.76782Q7.9617 -4.84212 7.9617 -3.24843Q7.9617 -1.68864 7.03939 -0.745985Q6.11708 0.196669 4.58442 0.196669Q2.82796 0.196669 1.89887 -1.1495Q0.969781 -2.49566 0.969781 -5.05235Q0.969781 -7.45307 2.1091 -8.88062Q3.24843 -10.3082 5.16764 -10.3082Q5.68305 -10.3082 6.20863 -10.2064Q6.73421 -10.1047 7.30387 -9.90126ZM13.2582 -9.22309Q12.2002 -9.22309 11.6679 -8.1821Q11.1355 -7.14111 11.1355 -5.05235Q11.1355 -2.97038 11.6679 -1.92939Q12.2002 -0.888401 13.2582 -0.888401Q14.3229 -0.888401 14.8553 -1.92939Q15.3876 -2.97038 15.3876 -5.05235Q15.3876 -7.14111 14.8553 -8.1821Q14.3229 -9.22309 13.2582 -9.22309ZM13.2582 -10.3082Q14.9604 -10.3082 15.859 -8.962Q16.7575 -7.61583 16.7575 -5.05235Q16.7575 -2.49566 15.859 -1.1495Q14.9604 0.196669 13.2582 0.196669Q11.556 0.196669 10.6574 -1.1495Q9.75884 -2.49566 9.75884 -5.05235Q9.75884 -7.61583 10.6574 -8.962Q11.556 -10.3082 13.2582 -10.3082Z" fill="#262626" transform="translate(102.27777777777777,294.07042253521126) translate(-17.68663215637207,0)" />
<line x1="107.13888888888889" y1="238.42723004694835" x2="112.4" y2="238.42723004694835" stroke="#262626" stroke-width="1.1111111111111112" />
<path d="M4.41488 -4.80821Q3.43831 -4.80821 2.87882 -4.28602Q2.31934 -3.76383 2.31934 -2.84831Q2.31934 -1.93278 2.87882 -1.41059Q3.43831 -0.888401 4.41488 -0.888401Q5.39144 -0.888401 5.95432 -1.41398Q6.5172 -1.93956 6.5172 -2.84831Q6.5172 -3.76383 5.95771 -4.28602Q5.39822 -4.80821 4.41488 -4.80821ZM3.04498 -5.39144Q2.16336 -5.60845 1.67169 -6.21202Q1.18001 -6.81559 1.18001 -7.68365Q1.18001 -8.89757 2.04468 -9.60287Q2.90934 -10.3082 4.41488 -10.3082Q5.92719 -10.3082 6.78847 -9.60287Q7.64974 -8.89757 7.64974 -7.68365Q7.64974 -6.81559 7.15807 -6.21202Q6.6664 -5.60845 5.79156 -5.39144Q6.78168 -5.16086 7.33439 -4.48947Q7.8871 -3.81809 7.8871 -2.84831Q7.8871 -1.37668 6.98853 -0.590007Q6.08995 0.196669 4.41488 0.196669Q2.7398 0.196669 1.84123 -0.590007Q0.942654 -1.37668 0.942654 -2.84831Q0.942654 -3.81809 1.49875 -4.48947Q2.05485 -5.16086 3.04498 -5.39144ZM2.54313 -7.5548Q2.54313 -6.76812 3.0348 -6.32731Q3.52648 -5.8865 4.41488 -5.8865Q5.29649 -5.8865 5.79495 -6.32731Q6.2934 -6.76812 6.2934 -7.5548Q6.2934 -8.34147 5.79495 -8.78228Q5.2965 -9.22309 4.41488 -9.22309Q3.52648 -9.22309 3.0348 -8.78228Q2.54313 -8.34147 2.54313 -7.5548ZM13.2582 -9.22309Q12.2002 -9.22309 11.6679 -8.1821Q11.1355 -7.14111 11.1355 -5.05235Q11.1355 -2.97038 11.6679 -1.92939Q12.2002 -0.888401 13.2582 -0.888401Q14.3229 -0.888401 14.8553 -1.92939Q15.3876 -2.97038 15.3876 -5.05235Q15.3876 -7.14111 14.8553 -8.1821Q14.3229 -9.22309 13.2582 -9.22309ZM13.2582 -10.3082Q14.9604 -10.3082 15.859 -8.962Q16.7575 -7.61583 16.7575 -5.05235Q16.7575 -2.49566 15.859 -1.1495Q14.9604 0.196669 13.2582 0.196669Q11.556 0.196669 10.6574 -1.1495Q9.75884 -2.49566 9.75884 -5.05235Q9.75884 -7.61583 10.6574 -8.962Q11.556 -10.3082 13.2582 -10.3082Z" fill="#262626" transform="translate(102.27777777777777,242.42723004694835) translate(-17.68663215637207,0)" />
<line x1="107.13888888888889" y1="186.78403755868544" x2="112.4" y2="186.78403755868544" stroke="#262626" stroke-width="1.1111111111111112" />
<path d="M1.72255 -1.15289L3.9605 -1.15289L3.9605 -8.87722L1.52588 -8.38894L1.52588 -9.63677L3.94694 -10.1251L5.31684 -10.1251L5.31684 -1.15289L7.5548 -1.15289L7.5548 0L1.72255 0L1.72255 -1.15289ZM13.2582 -9.22309Q12.2002 -9.22309 11.6679 -8.1821Q11.1355 -7.14111 11.1355 -5.05235Q11.1355 -2.97038 11.6679 -1.92939Q12.2002 -0.888401 13.2582 -0.888401Q14.3229 -0.888401 14.8553 -1.92939Q15.3876 -2.97038 15.3876 -5.05235Q15.3876 -7.14111 14.8553 -8.1821Q14.3229 -9.22309 13.2582 -9.22309ZM13.2582 -10.3082Q14.9604 -10.3082 15.859 -8.962Q16.7575 -7.61583 16.7575 -5.05235Q16.7575 -2.49566 15.859 -1.1495Q14.9604 0.196669 13.2582 0.196669Q11.556 0.196669 10.6574 -1.1495Q9.75884 -2.49566 9.75884 -5.05235Q9.75884 -7.61583 10.6574 -8.962Q11.556 -10.3082 13.2582 -10.3082ZM22.1015 -9.22309Q21.0436 -9.22309 20.5112 -8.1821Q19.9788 -7.14111 19.9788 -5.05235Q19.9788 -2.97038 20.5112 -1.92939Q21.0436 -0.888401 22.1015 -0.888401Q23.1662 -0.888401 23.6986 -1.92939Q24.231 -2.97038 24.231 -5.05235Q24.231 -7.14111 23.6986 -8.1821Q23.1662 -9.22309 22.1015 -9.22309ZM22.1015 -10.3082Q23.8037 -10.3082 24.7023 -8.962Q25.6009 -7.61583 25.6009 -5.05235Q25.6009 -2.49566 24.7023 -1.1495Q23.8037 0.196669 22.1015 0.196669Q20.3993 0.196669 19.5007 -1.1495Q18.6022 -2.49566 18.6022 -5.05235Q18.6022 -7.61583 19.5007 -8.962Q20.3993 -10.3082 22.1015 -10.3082Z" fill="#262626" transform="translate(102.27777777777777,190.78403755868544) translate(-26.529949188232422,0)" />
<line x1="107.13888888888889" y1="135.14084507042253" x2="112.4" y2="135.14084507042253" stroke="#262626" stroke-width="1.1111111111111112" />
<path d="M1.72255 -1.15289L3.9605 -1.15289L3.9605 -8.87722L1.52588 -8.38894L1.52588 -9.63677L3.94694 -10.1251L5.31684 -10.1251L5.31684 -1.15289L7.5548 -1.15289L7.5548 0L1.72255 0L1.72255 -1.15289ZM11.5085 -1.15289L16.2896 -1.15289L16.2896 0L9.86057 0L9.86057 -1.15289Q10.6405 -1.95991 11.9866 -3.31963Q13.3328 -4.67936 13.6787 -5.0727Q14.3365 -5.8119 14.5976 -6.32392Q14.8587 -6.83594 14.8587 -7.331Q14.8587 -8.13802 14.2924 -8.64665Q13.7261 -9.15527 12.8174 -9.15527Q12.1731 -9.15527 11.4577 -8.93148Q10.7422 -8.70768 9.92839 -8.25331L9.92839 -9.63677Q10.7558 -9.96908 11.4746 -10.1386Q12.1935 -10.3082 12.7903 -10.3082Q14.3636 -10.3082 15.2995 -9.52148Q16.2354 -8.73481 16.2354 -7.41916Q16.2354 -6.79525 16.0014 -6.23576Q15.7674 -5.67627 15.1503 -4.91672Q14.9807 -4.72005 14.072 -3.78079Q13.1632 -2.84153 11.5085 -1.15289ZM22.1015 -9.22309Q21.0436 -9.22309 20.5112 -8.1821Q19.9788 -7.14111 19.9788 -5.05235Q19.9788 -2.97038 20.5112 -1.92939Q21.0436 -0.888401 22.1015 -0.888401Q23.1662 -0.888401 23.6986 -1.92939Q24.231 -2.97038 24.231 -5.05235Q24.231 -7.14111 23.6986 -8.1821Q23.1662 -9.22309 22.1015 -9.22309ZM22.1015 -10.3082Q23.8037 -10.3082 24.7023 -8.962Q25.6009 -7.61583 25.6009 -5.05235Q25.6009 -2.49566 24.7023 -1.1495Q23.8037 0.196669 22.1015 0.196669Q20.3993 0.196669 19.5007 -1.1495Q18.6022 -2.49566 18.6022 -5.05235Q18.6022 -7.61583 19.5007 -8.962Q20.3993 -10.3082 22.1015 -10.3082Z" fill="#262626" transform="translate(102.27777777777777,139.14084507042253) translate(-26.529949188232422,0)" />
<line x1="107.13888888888889" y1="83.49765258215962" x2="112.4" y2="83.49765258215962" stroke="#262626" stroke-width="1.1111111111111112" />
<path d="M1.72255 -1.15289L3.9605 -1.15289L3.9605 -8.87722L1.52588 -8.38894L1.52588 -9.63677L3.94694 -10.1251L5.31684 -10.1251L5.31684 -1.15289L7.5548 -1.15289L7.5548 0L1.72255 0L1.72255 -1.15289ZM14.0923 -8.93148L10.6337 -3.52648L14.0923 -3.52648L14.0923 -8.93148ZM13.7329 -10.1251L15.4555 -10.1251L15.4555 -3.52648L16.9 -3.52648L16.9 -2.38715L15.4555 -2.38715L15.4555 0L14.0923 0L14.0923 -2.38715L9.52148 -2.38715L9.52148 -3.70958L13.7329 -10.1251ZM22.1015 -9.22309Q21.0436 -9.22309 20.5112 -8.1821Q19.9788 -7.14111 19.9788 -5.05235Q19.9788 -2.97038 20.5112 -1.92939Q21.0436 -0.888401 22.1015 -0.888401Q23.1662 -0.888401 23.6986 -1.92939Q24.231 -2.97038 24.231 -5.05235Q24.231 -7.14111 23.6986 -8.1821Q23.1662 -9.22309 22.1015 -9.22309ZM22.1015 -10.3082Q23.8037 -10.3082 24.7023 -8.962Q25.6009 -7.61583 25.6009 -5.05235Q25.6009 -2.49566 24.7023 -1.1495Q23.8037 0.196669 22.1015 0.196669Q20.3993 0.196669 19.5007 -1.1495Q18.6022 -2.49566 18.6022 -5.05235Q18.6022 -7.61583 19.5007 -8.962Q20.3993 -10.3082 22.1015 -10.3082Z" fill="#262626" transform="translate(102.27777777777777,87.49765258215962) translate(-26.529949188232422,0)" />
<g class="series" aria-label="Count">
<rect x="112" y="78.33333333333331" width="82.11764705882354" height="366.6666666666667" fill="#4472C4" />
<rect x="214.64705882352942" y="191.94835680751174" width="82.11764705882351" height="253.05164319248826" fill="#4472C4" />
<rect x="317.29411764705884" y="271.99530516431923" width="82.11764705882348" height="173.00469483568077" fill="#4472C4" />
<rect x="419.94117647058823" y="328.80281690140845" width="82.11764705882354" height="116.19718309859155" fill="#4472C4" />
<rect x="522.5882352941176" y="364.9530516431925" width="82.11764705882365" height="80.04694835680749" fill="#4472C4" />
<rect x="625.235294117647" y="398.5211267605634" width="82.11764705882365" height="46.47887323943661" fill="#4472C4" />
<rect x="727.8823529411765" y="421.76056338028167" width="82.11764705882354" height="23.239436619718333" fill="#4472C4" />
</g>
<polyline points="153.05882352941177,311.6585365853659 255.70588235294116,219.63414634146343 358.35294117647055,156.71951219512195 461,114.46341463414632 563.6470588235294,85.35365853658533 666.2941176470588,68.45121951219517 768.9411764705882,60" fill="none" stroke="#8B0000" stroke-width="2" />
<circle cx="153.05882352941177" cy="311.6585365853659" r="3.5" fill="#8B0000" />
<circle cx="255.70588235294116" cy="219.63414634146343" r="3.5" fill="#8B0000" />
<circle cx="358.35294117647055" cy="156.71951219512195" r="3.5" fill="#8B0000" />
<circle cx="461" cy="114.46341463414632" r="3.5" fill="#8B0000" />
<circle cx="563.6470588235294" cy="85.35365853658533" r="3.5" fill="#8B0000" />
<circle cx="666.2941176470588" cy="68.45121951219517" r="3.5" fill="#8B0000" />
<circle cx="768.9411764705882" cy="60" r="3.5" fill="#8B0000" />
<line x1="810" y1="445" x2="815" y2="445" stroke="#262626" stroke-width="1" />
<path d="M4.41488 -9.22309Q3.35693 -9.22309 2.82457 -8.1821Q2.29221 -7.14111 2.29221 -5.05235Q2.29221 -2.97038 2.82457 -1.92939Q3.35693 -0.888401 4.41488 -0.888401Q5.4796 -0.888401 6.01196 -1.92939Q6.54433 -2.97038 6.54433 -5.05235Q6.54433 -7.14111 6.01196 -8.1821Q5.4796 -9.22309 4.41488 -9.22309ZM4.41488 -10.3082Q6.11708 -10.3082 7.01565 -8.962Q7.91422 -7.61583 7.91423 -5.05235Q7.91423 -2.49566 7.01565 -1.1495Q6.11708 0.196669 4.41488 0.196669Q2.71267 0.196669 1.8141 -1.1495Q0.915527 -2.49566 0.915527 -5.05235Q0.915527 -7.61583 1.8141 -8.962Q2.71267 -10.3082 4.41488 -10.3082Z" fill="#262626" transform="translate(818,449)" />
<line x1="810" y1="406.5" x2="815" y2="406.5" stroke="#262626" stroke-width="1" />
<path d="M1.72255 -1.15289L3.9605 -1.15289L3.9605 -8.87722L1.52588 -8.38894L1.52588 -9.63677L3.94694 -10.1251L5.31684 -10.1251L5.31684 -1.15289L7.5548 -1.15289L7.5548 0L1.72255 0L1.72255 -1.15289ZM13.2582 -9.22309Q12.2002 -9.22309 11.6679 -8.1821Q11.1355 -7.14111 11.1355 -5.05235Q11.1355 -2.97038 11.6679 -1.92939Q12.2002 -0.888401 13.2582 -0.888401Q14.3229 -0.888401 14.8553 -1.92939Q15.3876 -2.97038 15.3876 -5.05235Q15.3876 -7.14111 14.8553 -8.1821Q14.3229 -9.22309 13.2582 -9.22309ZM13.2582 -10.3082Q14.9604 -10.3082 15.859 -8.962Q16.7575 -7.61583 16.7575 -5.05235Q16.7575 -2.49566 15.859 -1.1495Q14.9604 0.196669 13.2582 0.196669Q11.556 0.196669 10.6574 -1.1495Q9.75884 -2.49566 9.75884 -5.05235Q9.75884 -7.61583 10.6574 -8.962Q11.556 -10.3082 13.2582 -10.3082Z" fill="#262626" transform="translate(818,410.5)" />
<line x1="810" y1="368" x2="815" y2="368" stroke="#262626" stroke-width="1" />
<path d="M2.6652 -1.15289L7.44629 -1.15289L7.44629 0L1.01725 0L1.01725 -1.15289Q1.79715 -1.95991 3.14331 -3.31963Q4.48947 -4.67936 4.83534 -5.0727Q5.49316 -5.8119 5.75426 -6.32392Q6.01535 -6.83594 6.01535 -7.331Q6.01535 -8.13802 5.44908 -8.64665Q4.88281 -9.15527 3.97407 -9.15527Q3.32981 -9.15527 2.61434 -8.93148Q1.89887 -8.70768 1.08507 -8.25331L1.08507 -9.63677Q1.91243 -9.96908 2.63129 -10.1386Q3.35015 -10.3082 3.94694 -10.3082Q5.52029 -10.3082 6.45616 -9.52148Q7.39204 -8.73481 7.39204 -7.41916Q7.39204 -6.79525 7.15807 -6.23576Q6.9241 -5.67627 6.30697 -4.91672Q6.13742 -4.72005 5.22868 -3.78079Q4.31993 -2.84153 2.6652 -1.15289ZM13.2582 -9.22309Q12.2002 -9.22309 11.6679 -8.1821Q11.1355 -7.14111 11.1355 -5.05235Q11.1355 -2.97038 11.6679 -1.92939Q12.2002 -0.888401 13.2582 -0.888401Q14.3229 -0.888401 14.8553 -1.92939Q15.3876 -2.97038 15.3876 -5.05235Q15.3876 -7.14111 14.8553 -8.1821Q14.3229 -9.22309 13.2582 -9.22309ZM13.2582 -10.3082Q14.9604 -10.3082 15.859 -8.962Q16.7575 -7.61583 16.7575 -5.05235Q16.7575 -2.49566 15.859 -1.1495Q14.9604 0.196669 13.2582 0.196669Q11.556 0.196669 10.6574 -1.1495Q9.75884 -2.49566 9.75884 -5.05235Q9.75884 -7.61583 10.6574 -8.962Q11.556 -10.3082 13.2582 -10.3082Z" fill="#262626" transform="translate(818,372)" />
<line x1="810" y1="329.5" x2="815" y2="329.5" stroke="#262626" stroke-width="1" />
<path d="M5.63558 -5.45926Q6.61892 -5.24902 7.17163 -4.58442Q7.72434 -3.91981 7.72434 -2.94325Q7.72434 -1.4445 6.69352 -0.623915Q5.66271 0.196669 3.76383 0.196669Q3.12636 0.196669 2.45158 0.0712077Q1.7768 -0.0542535 1.05794 -0.305176L1.05794 -1.6276Q1.6276 -1.2953 2.30577 -1.12576Q2.98394 -0.956217 3.72314 -0.956217Q5.01166 -0.956217 5.68644 -1.46484Q6.36122 -1.97347 6.36122 -2.94325Q6.36122 -3.83843 5.73391 -4.34367Q5.10661 -4.8489 3.98763 -4.8489L2.80762 -4.8489L2.80762 -5.97466L4.04188 -5.97466Q5.05235 -5.97466 5.58811 -6.37817Q6.12386 -6.78168 6.12386 -7.54123Q6.12386 -8.32113 5.57115 -8.7382Q5.01845 -9.15527 3.98763 -9.15527Q3.42475 -9.15527 2.78049 -9.0332Q2.13623 -8.91113 1.36312 -8.65343L1.36312 -9.87413Q2.14301 -10.0911 2.82457 -10.1997Q3.50613 -10.3082 4.1097 -10.3082Q5.66949 -10.3082 6.57823 -9.59947Q7.48698 -8.89079 7.48698 -7.68365Q7.48698 -6.84272 7.00548 -6.26289Q6.52398 -5.68305 5.63558 -5.45926ZM13.2582 -9.22309Q12.2002 -9.22309 11.6679 -8.1821Q11.1355 -7.14111 11.1355 -5.05235Q11.1355 -2.97038 11.6679 -1.92939Q12.2002 -0.888401 13.2582 -0.888401Q14.3229 -0.888401 14.8553 -1.92939Q15.3876 -2.97038 15.3876 -5.05235Q15.3876 -7.14111 14.8553 -8.1821Q14.3229 -9.22309 13.2582 -9.22309ZM13.2582 -10.3082Q14.9604 -10.3082 15.859 -8.962Q16.7575 -7.61583 16.7575 -5.05235Q16.7575 -2.49566 15.859 -1.1495Q14.9604 0.196669 13.2582 0.196669Q11.556 0.196669 10.6574 -1.1495Q9.75884 -2.49566 9.75884 -5.05235Q9.75884 -7.61583 10.6574 -8.962Q11.556 -10.3082 13.2582 -10.3082Z" fill="#262626" transform="translate(818,333.5)" />
<line x1="810" y1="291" x2="815" y2="291" stroke="#262626" stroke-width="1" />
<path d="M5.24902 -8.93148L1.79036 -3.52648L5.24902 -3.52648L5.24902 -8.93148ZM4.88959 -10.1251L6.61214 -10.1251L6.61214 -3.52648L8.05664 -3.52648L8.05664 -2.38715L6.61214 -2.38715L6.61214 0L5.24902 0L5.24902 -2.38715L0.678168 -2.38715L0.678168 -3.70958L4.88959 -10.1251ZM13.2582 -9.22309Q12.2002 -9.22309 11.6679 -8.1821Q11.1355 -7.14111 11.1355 -5.05235Q11.1355 -2.97038 11.6679 -1.92939Q12.2002 -0.888401 13.2582 -0.888401Q14.3229 -0.888401 14.8553 -1.92939Q15.3876 -2.97038 15.3876 -5.05235Q15.3876 -7.14111 14.8553 -8.1821Q14.3229 -9.22309 13.2582 -9.22309ZM13.2582 -10.3082Q14.9604 -10.3082 15.859 -8.962Q16.7575 -7.61583 16.7575 -5.05235Q16.7575 -2.49566 15.859 -1.1495Q14.9604 0.196669 13.2582 0.196669Q11.556 0.196669 10.6574 -1.1495Q9.75884 -2.49566 9.75884 -5.05235Q9.75884 -7.61583 10.6574 -8.962Q11.556 -10.3082 13.2582 -10.3082Z" fill="#262626" transform="translate(818,295)" />
<line x1="810" y1="252.5" x2="815" y2="252.5" stroke="#262626" stroke-width="1" />
<path d="M1.49875 -10.1251L6.87663 -10.1251L6.87663 -8.97217L2.75336 -8.97217L2.75336 -6.49007Q3.05176 -6.5918 3.35015 -6.64266Q3.64855 -6.69352 3.94694 -6.69352Q5.64236 -6.69352 6.63249 -5.76443Q7.62261 -4.83534 7.62261 -3.24843Q7.62261 -1.61404 6.60536 -0.708686Q5.58811 0.196669 3.73671 0.196669Q3.09923 0.196669 2.43802 0.0881619C1.99721 0.0158239 1.5417 -0.092683 1.07151 -0.237359L1.07151 -1.61404Q1.68186 -1.28174 2.3329 -1.11898Q2.98394 -0.956217 3.70958 -0.956217Q4.88281 -0.956217 5.56776 -1.57335Q6.25271 -2.19048 6.25271 -3.24843Q6.25271 -4.30637 5.56776 -4.9235Q4.88281 -5.54064 3.70958 -5.54064Q3.16026 -5.54064 2.61434 -5.41857Q2.06841 -5.2965 1.49875 -5.03879L1.49875 -10.1251ZM13.2582 -9.22309Q12.2002 -9.22309 11.6679 -8.1821Q11.1355 -7.14111 11.1355 -5.05235Q11.1355 -2.97038 11.6679 -1.92939Q12.2002 -0.888401 13.2582 -0.888401Q14.3229 -0.888401 14.8553 -1.92939Q15.3876 -2.97038 15.3876 -5.05235Q15.3876 -7.14111 14.8553 -8.1821Q14.3229 -9.22309 13.2582 -9.22309ZM13.2582 -10.3082Q14.9604 -10.3082 15.859 -8.962Q16.7575 -7.61583 16.7575 -5.05235Q16.7575 -2.49566 15.859 -1.1495Q14.9604 0.196669 13.2582 0.196669Q11.556 0.196669 10.6574 -1.1495Q9.75884 -2.49566 9.75884 -5.05235Q9.75884 -7.61583 10.6574 -8.962Q11.556 -10.3082 13.2582 -10.3082Z" fill="#262626" transform="translate(818,256.5)" />
<line x1="810" y1="214" x2="815" y2="214" stroke="#262626" stroke-width="1" />
<path d="M4.58442 -5.60845Q3.66211 -5.60845 3.12297 -4.97776Q2.58382 -4.34706 2.58382 -3.24843Q2.58382 -2.15658 3.12297 -1.52249Q3.66211 -0.888401 4.58442 -0.888401Q5.50673 -0.888401 6.04587 -1.52249Q6.58502 -2.15658 6.58502 -3.24843Q6.58502 -4.34706 6.04587 -4.97776Q5.50673 -5.60845 4.58442 -5.60845ZM7.30387 -9.90126L7.30387 -8.65343Q6.78847 -8.89757 6.26289 -9.02642Q5.7373 -9.15527 5.2219 -9.15527Q3.86556 -9.15527 3.15009 -8.23975Q2.43462 -7.32422 2.3329 -5.47282Q2.73302 -6.06282 3.33659 -6.37817Q3.94016 -6.69352 4.6658 -6.69352Q6.19168 -6.69352 7.07669 -5.76782Q7.9617 -4.84212 7.9617 -3.24843Q7.9617 -1.68864 7.03939 -0.745985Q6.11708 0.196669 4.58442 0.196669Q2.82796 0.196669 1.89887 -1.1495Q0.969781 -2.49566 0.969781 -5.05235Q0.969781 -7.45307 2.1091 -8.88062Q3.24843 -10.3082 5.16764 -10.3082Q5.68305 -10.3082 6.20863 -10.2064Q6.73421 -10.1047 7.30387 -9.90126ZM13.2582 -9.22309Q12.2002 -9.22309 11.6679 -8.1821Q11.1355 -7.14111 11.1355 -5.05235Q11.1355 -2.97038 11.6679 -1.92939Q12.2002 -0.888401 13.2582 -0.888401Q14.3229 -0.888401 14.8553 -1.92939Q15.3876 -2.97038 15.3876 -5.05235Q15.3876 -7.14111 14.8553 -8.1821Q14.3229 -9.22309 13.2582 -9.22309ZM13.2582 -10.3082Q14.9604 -10.3082 15.859 -8.962Q16.7575 -7.61583 16.7575 -5.05235Q16.7575 -2.49566 15.859 -1.1495Q14.9604 0.196669 13.2582 0.196669Q11.556 0.196669 10.6574 -1.1495Q9.75884 -2.49566 9.75884 -5.05235Q9.75884 -7.61583 10.6574 -8.962Q11.556 -10.3082 13.2582 -10.3082Z" fill="#262626" transform="translate(818,218)" />
<line x1="810" y1="175.5" x2="815" y2="175.5" stroke="#262626" stroke-width="1" />
<path d="M1.13932 -10.1251L7.64974 -10.1251L7.64974 -9.54183L3.97407 0L2.54313 0L6.00179 -8.97217L1.13932 -8.97217L1.13932 -10.1251ZM13.2582 -9.22309Q12.2002 -9.22309 11.6679 -8.1821Q11.1355 -7.14111 11.1355 -5.05235Q11.1355 -2.97038 11.6679 -1.92939Q12.2002 -0.888401 13.2582 -0.888401Q14.3229 -0.888401 14.8553 -1.92939Q15.3876 -2.97038 15.3876 -5.05235Q15.3876 -7.14111 14.8553 -8.1821Q14.3229 -9.22309 13.2582 -9.22309ZM13.2582 -10.3082Q14.9604 -10.3082 15.859 -8.962Q16.7575 -7.61583 16.7575 -5.05235Q16.7575 -2.49566 15.859 -1.1495Q14.9604 0.196669 13.2582 0.196669Q11.556 0.196669 10.6574 -1.1495Q9.75884 -2.49566 9.75884 -5.05235Q9.75884 -7.61583 10.6574 -8.962Q11.556 -10.3082 13.2582 -10.3082Z" fill="#262626" transform="translate(818,179.5)" />
<line x1="810" y1="137" x2="815" y2="137" stroke="#262626" stroke-width="1" />
<path d="M4.41488 -4.80821Q3.43831 -4.80821 2.87882 -4.28602Q2.31934 -3.76383 2.31934 -2.84831Q2.31934 -1.93278 2.87882 -1.41059Q3.43831 -0.888401 4.41488 -0.888401Q5.39144 -0.888401 5.95432 -1.41398Q6.5172 -1.93956 6.5172 -2.84831Q6.5172 -3.76383 5.95771 -4.28602Q5.39822 -4.80821 4.41488 -4.80821ZM3.04498 -5.39144Q2.16336 -5.60845 1.67169 -6.21202Q1.18001 -6.81559 1.18001 -7.68365Q1.18001 -8.89757 2.04468 -9.60287Q2.90934 -10.3082 4.41488 -10.3082Q5.92719 -10.3082 6.78847 -9.60287Q7.64974 -8.89757 7.64974 -7.68365Q7.64974 -6.81559 7.15807 -6.21202Q6.6664 -5.60845 5.79156 -5.39144Q6.78168 -5.16086 7.33439 -4.48947Q7.8871 -3.81809 7.8871 -2.84831Q7.8871 -1.37668 6.98853 -0.590007Q6.08995 0.196669 4.41488 0.196669Q2.7398 0.196669 1.84123 -0.590007Q0.942654 -1.37668 0.942654 -2.84831Q0.942654 -3.81809 1.49875 -4.48947Q2.05485 -5.16086 3.04498 -5.39144ZM2.54313 -7.5548Q2.54313 -6.76812 3.0348 -6.32731Q3.52648 -5.8865 4.41488 -5.8865Q5.29649 -5.8865 5.79495 -6.32731Q6.2934 -6.76812 6.2934 -7.5548Q6.2934 -8.34147 5.79495 -8.78228Q5.2965 -9.22309 4.41488 -9.22309Q3.52648 -9.22309 3.0348 -8.78228Q2.54313 -8.34147 2.54313 -7.5548ZM13.2582 -9.22309Q12.2002 -9.22309 11.6679 -8.1821Q11.1355 -7.14111 11.1355 -5.05235Q11.1355 -2.97038 11.6679 -1.92939Q12.2002 -0.888401 13.2582 -0.888401Q14.3229 -0.888401 14.8553 -1.92939Q15.3876 -2.97038 15.3876 -5.05235Q15.3876 -7.14111 14.8553 -8.1821Q14.3229 -9.22309 13.2582 -9.22309ZM13.2582 -10.3082Q14.9604 -10.3082 15.859 -8.962Q16.7575 -7.61583 16.7575 -5.05235Q16.7575 -2.49566 15.859 -1.1495Q14.9604 0.196669 13.2582 0.196669Q11.556 0.196669 10.6574 -1.1495Q9.75884 -2.49566 9.75884 -5.05235Q9.75884 -7.61583 10.6574 -8.962Q11.556 -10.3082 13.2582 -10.3082Z" fill="#262626" transform="translate(818,141)" />
<line x1="810" y1="98.5" x2="815" y2="98.5" stroke="#262626" stroke-width="1" />
<path d="M1.52588 -0.210232L1.52588 -1.45806Q2.04129 -1.21392 2.57026 -1.08507Q3.09923 -0.956217 3.60786 -0.956217Q4.96419 -0.956217 5.67966 -1.86835Q6.39513 -2.78049 6.49685 -4.63867Q6.10352 -4.05545 5.49995 -3.74349Q4.89638 -3.43153 4.16395 -3.43153Q2.64486 -3.43153 1.75985 -4.35045Q0.874837 -5.26937 0.874837 -6.86306Q0.874837 -8.42285 1.79715 -9.36551Q2.71946 -10.3082 4.25212 -10.3082Q6.00857 -10.3082 6.93427 -8.962Q7.85997 -7.61583 7.85997 -5.05235Q7.85997 -2.65842 6.72404 -1.23088Q5.58811 0.196669 3.66889 0.196669Q3.15348 0.196669 2.62451 0.0949436Q2.09554 -0.00678168 1.52588 -0.210232ZM4.25212 -4.50304Q5.17442 -4.50304 5.71357 -5.13374Q6.25271 -5.76443 6.25271 -6.86306Q6.25271 -7.95491 5.71357 -8.589Q5.17443 -9.22309 4.25212 -9.22309Q3.32981 -9.22309 2.79066 -8.589Q2.25152 -7.95492 2.25152 -6.86306Q2.25152 -5.76443 2.79066 -5.13374Q3.32981 -4.50304 4.25212 -4.50304ZM13.2582 -9.22309Q12.2002 -9.22309 11.6679 -8.1821Q11.1355 -7.14111 11.1355 -5.05235Q11.1355 -2.97038 11.6679 -1.92939Q12.2002 -0.888401 13.2582 -0.888401Q14.3229 -0.888401 14.8553 -1.92939Q15.3876 -2.97038 15.3876 -5.05235Q15.3876 -7.14111 14.8553 -8.1821Q14.3229 -9.22309 13.2582 -9.22309ZM13.2582 -10.3082Q14.9604 -10.3082 15.859 -8.962Q16.7575 -7.61583 16.7575 -5.05235Q16.7575 -2.49566 15.859 -1.1495Q14.9604 0.196669 13.2582 0.196669Q11.556 0.196669 10.6574 -1.1495Q9.75884 -2.49566 9.75884 -5.05235Q9.75884 -7.61583 10.6574 -8.962Q11.556 -10.3082 13.2582 -10.3082Z" fill="#262626" transform="translate(818,102.5)" />
<line x1="810" y1="60" x2="815" y2="60" stroke="#262626" stroke-width="1" />
<path d="M1.72255 -1.15289L3.9605 -1.15289L3.9605 -8.87722L1.52588 -8.38894L1.52588 -9.63677L3.94694 -10.1251L5.31684 -10.1251L5.31684 -1.15289L7.5548 -1.15289L7.5548 0L1.72255 0L1.72255 -1.15289ZM13.2582 -9.22309Q12.2002 -9.22309 11.6679 -8.1821Q11.1355 -7.14111 11.1355 -5.05235Q11.1355 -2.97038 11.6679 -1.92939Q12.2002 -0.888401 13.2582 -0.888401Q14.3229 -0.888401 14.8553 -1.92939Q15.3876 -2.97038 15.3876 -5.05235Q15.3876 -7.14111 14.8553 -8.1821Q14.3229 -9.22309 13.2582 -9.22309ZM13.2582 -10.3082Q14.9604 -10.3082 15.859 -8.962Q16.7575 -7.61583 16.7575 -5.05235Q16.7575 -2.49566 15.859 -1.1495Q14.9604 0.196669 13.2582 0.196669Q11.556 0.196669 10.6574 -1.1495Q9.75884 -2.49566 9.75884 -5.05235Q9.75884 -7.61583 10.6574 -8.962Q11.556 -10.3082 13.2582 -10.3082ZM22.1015 -9.22309Q21.0436 -9.22309 20.5112 -8.1821Q19.9788 -7.14111 19.9788 -5.05235Q19.9788 -2.97038 20.5112 -1.92939Q21.0436 -0.888401 22.1015 -0.888401Q23.1662 -0.888401 23.6986 -1.92939Q24.231 -2.97038 24.231 -5.05235Q24.231 -7.14111 23.6986 -8.1821Q23.1662 -9.22309 22.1015 -9.22309ZM22.1015 -10.3082Q23.8037 -10.3082 24.7023 -8.962Q25.6009 -7.61583 25.6009 -5.05235Q25.6009 -2.49566 24.7023 -1.1495Q23.8037 0.196669 22.1015 0.196669Q20.3993 0.196669 19.5007 -1.1495Q18.6022 -2.49566 18.6022 -5.05235Q18.6022 -7.61583 19.5007 -8.962Q20.3993 -10.3082 22.1015 -10.3082Z" fill="#262626" transform="translate(818,64)" />
<path d="M8.94504 -9.34516L8.94504 -7.90066Q8.25331 -8.54492 7.47003 -8.86366Q6.68674 -9.1824 5.80512 -9.1824Q4.06901 -9.1824 3.1467 -8.12107Q2.22439 -7.05973 2.22439 -5.05235Q2.22439 -3.05176 3.1467 -1.99042Q4.06901 -0.929091 5.80512 -0.929091Q6.68674 -0.929091 7.47003 -1.24783Q8.25331 -1.56657 8.94504 -2.21083L8.94504 -0.779894Q8.22618 -0.291612 7.42255 -0.0474718Q6.61892 0.196669 5.72374 0.196669Q3.42475 0.196669 2.10232 -1.21053Q0.779894 -2.61773 0.779894 -5.05235Q0.779894 -7.49376 2.10232 -8.90096Q3.42475 -10.3082 5.72374 -10.3082Q6.63249 -10.3082 7.43612 -10.0674Q8.23975 -9.82666 8.94504 -9.34516ZM10.8914 -2.9975L10.8914 -7.59549L12.1392 -7.59549L12.1392 -3.04498Q12.1392 -1.96669 12.5597 -1.42754Q12.9801 -0.888401 13.8211 -0.888401Q14.8315 -0.888401 15.4182 -1.53266Q16.0048 -2.17692 16.0048 -3.28912L16.0048 -7.59549L17.2526 -7.59549L17.2526 0L16.0048 0L16.0048 -1.16645Q15.5504 -0.474718 14.9502 -0.139025Q14.35 0.196669 13.5566 0.196669Q12.2477 0.196669 11.5696 -0.617133Q10.8914 -1.43094 10.8914 -2.9975ZM25.7501 -6.13742Q26.218 -6.97835 26.869 -7.37847Q27.5201 -7.77859 28.4017 -7.77859Q29.5885 -7.77859 30.2327 -6.94784Q30.877 -6.11708 30.877 -4.58442L30.877 0L29.6224 0L29.6224 -4.54373Q29.6224 -5.63558 29.2358 -6.16455Q28.8493 -6.69352 28.0558 -6.69352Q27.086 -6.69352 26.5232 -6.04926Q25.9603 -5.405 25.9603 -4.29281L25.9603 0L24.7057 0L24.7057 -4.54373Q24.7057 -5.64236 24.3191 -6.16794Q23.9326 -6.69352 23.1255 -6.69352Q22.1693 -6.69352 21.6064 -6.04587Q21.0436 -5.39822 21.0436 -4.29281L21.0436 0L19.789 0L19.789 -7.59549L21.0436 -7.59549L21.0436 -6.41547Q21.4708 -7.11399 22.0676 -7.44629Q22.6644 -7.77859 23.485 -7.77859Q24.3123 -7.77859 24.8922 -7.35813Q25.472 -6.93766 25.7501 -6.13742ZM33.2438 -2.9975L33.2438 -7.59549L34.4916 -7.59549L34.4916 -3.04498Q34.4916 -1.96669 34.9121 -1.42754Q35.3326 -0.888401 36.1735 -0.888401Q37.184 -0.888401 37.7706 -1.53266Q38.3572 -2.17692 38.3572 -3.28912L38.3572 -7.59549L39.605 -7.59549L39.605 0L38.3572 0L38.3572 -1.16645Q37.9028 -0.474718 37.3027 -0.139025Q36.7025 0.196669 35.909 0.196669Q34.6002 0.196669 33.922 -0.617133Q33.2438 -1.43094 33.2438 -2.9975ZM42.1889 -10.5523L43.4367 -10.5523L43.4367 0L42.1889 0L42.1889 -10.5523ZM49.4927 -3.81809Q47.9804 -3.81809 47.3972 -3.47222Q46.814 -3.12636 46.814 -2.29221Q46.814 -1.6276 47.2514 -1.23766Q47.6888 -0.84771 48.4416 -0.847711Q49.4792 -0.847711 50.1065 -1.58352Q50.7338 -2.31934 50.7338 -3.54004L50.7338 -3.81809L49.4927 -3.81809ZM51.9816 -4.3335L51.9816 0L50.7338 0L50.7338 -1.15289Q50.3065 -0.461155 49.6691 -0.132243Q49.0316 0.196669 48.1093 0.196669Q46.9428 0.196669 46.2545 -0.457764Q45.5661 -1.1122 45.5661 -2.21083Q45.5661 -3.49257 46.424 -4.14361Q47.2819 -4.79465 48.9841 -4.79465L50.7338 -4.79465L50.7338 -4.91672Q50.7338 -5.77799 50.1675 -6.24932Q49.6012 -6.72065 48.5772 -6.72065Q47.9262 -6.72065 47.309 -6.56467Q46.6919 -6.40869 46.1222 -6.09673L46.1222 -7.24962Q46.8072 -7.51411 47.4514 -7.64635Q48.0957 -7.77859 48.7061 -7.77859Q50.354 -7.77859 51.1678 -6.9241Q51.9816 -6.06961 51.9816 -4.3335ZM55.7929 -9.75206L55.7929 -7.59549L58.3632 -7.59549L58.3632 -6.62571L55.7929 -6.62571L55.7929 -2.50244Q55.7929 -1.57335 56.0472 -1.30887Q56.3015 -1.04438 57.0814 -1.04438L58.3632 -1.04438L58.3632 0L57.0814 0Q55.6369 0 55.0876 -0.539144Q54.5383 -1.07829 54.5383 -2.50244L54.5383 -6.62571L53.6228 -6.62571L53.6228 -7.59549L54.5383 -7.59549L54.5383 -9.75206L55.7929 -9.75206ZM60.0111 -7.59549L61.259 -7.59549L61.259 0L60.0111 0L60.0111 -7.59549ZM60.0111 -10.5523L61.259 -10.5523L61.259 -8.97217L60.0111 -8.97217L60.0111 -10.5523ZM62.9679 -7.59549L64.2904 -7.59549L66.664 -1.2207L69.0375 -7.59549L70.36 -7.59549L67.5117 0L65.8162 0L62.9679 -7.59549ZM78.5794 -4.1097L78.5794 -3.49935L72.8421 -3.49935Q72.9235 -2.21083 73.6186 -1.53605Q74.3137 -0.861274 75.5547 -0.861274Q76.2736 -0.861274 76.9484 -1.0376Q77.6232 -1.21392 78.2878 -1.56657L78.2878 -0.386556Q77.6164 -0.101725 76.9111 0.0474718Q76.2058 0.196669 75.4801 0.196669Q73.6627 0.196669 72.6013 -0.861274Q71.54 -1.91922 71.54 -3.72314Q71.54 -5.58811 72.5471 -6.68335Q73.5541 -7.77859 75.2631 -7.77859Q76.7958 -7.77859 77.6876 -6.79186Q78.5794 -5.80512 78.5794 -4.1097ZM77.3316 -4.47591Q77.318 -5.49995 76.7585 -6.1103Q76.199 -6.72065 75.2767 -6.72065Q74.2323 -6.72065 73.605 -6.13064Q72.9777 -5.54064 72.8828 -4.46913L77.3316 -4.47591ZM93.8382 -4.45557Q93.2482 -4.45557 92.9125 -3.95372Q92.5768 -3.45188 92.5768 -2.55669Q92.5768 -1.67508 92.9125 -1.16984Q93.2482 -0.664605 93.8382 -0.664605Q94.4146 -0.664605 94.7503 -1.16984Q95.086 -1.67508 95.086 -2.55669Q95.086 -3.4451 94.7503 -3.95033Q94.4146 -4.45557 93.8382 -4.45557ZM93.8382 -5.31684Q94.9097 -5.31684 95.5404 -4.57086Q96.1711 -3.82487 96.1711 -2.55669Q96.1711 -1.28852 95.537 -0.545926Q94.9029 0.196669 93.8382 0.196669Q92.7531 0.196669 92.1224 -0.545926Q91.4917 -1.28852 91.4917 -2.55669Q91.4917 -3.83165 92.1258 -4.57425Q92.7599 -5.31684 93.8382 -5.31684ZM86.8395 -9.44689Q86.2562 -9.44689 85.9206 -8.94165Q85.5849 -8.43641 85.5849 -7.5548Q85.5849 -6.65961 85.9172 -6.15777Q86.2495 -5.65592 86.8395 -5.65592Q87.4295 -5.65592 87.7652 -6.15777Q88.1009 -6.65961 88.1009 -7.5548Q88.1009 -8.42963 87.7618 -8.93826Q87.4227 -9.44689 86.8395 -9.44689ZM92.9633 -10.3082L94.0484 -10.3082L87.7143 0.196669L86.6292 0.196669L92.9633 -10.3082ZM86.8395 -10.3082Q87.911 -10.3082 88.5485 -9.56557Q89.1859 -8.82297 89.1859 -7.5548Q89.1859 -6.27306 88.5518 -5.53385Q87.9178 -4.79465 86.8395 -4.79465Q85.7612 -4.79465 85.1339 -5.53725Q84.5066 -6.27984 84.5066 -7.5548Q84.5066 -8.81619 85.1373 -9.56217Q85.768 -10.3082 86.8395 -10.3082Z" fill="#262626" transform="translate(861.5299491882324,252.5) rotate(-90) translate(-48.47548294067383,0)" />
<g class="spine">
<line x1="112" y1="445" x2="810" y2="445" stroke="#262626" stroke-width="0.8" />
</g>
<g class="spine">
<line x1="112" y1="60" x2="810" y2="60" stroke="#262626" stroke-width="0.8" />
</g>
<g class="spine">
<line x1="112" y1="60" x2="112" y2="445" stroke="#262626" stroke-width="0.8" />
</g>
<g class="spine">
<line x1="810" y1="60" x2="810" y2="445" stroke="#262626" stroke-width="0.8" />
</g>
<g class="legend" aria-label="Chart legend">
<rect x="648.1601452297634" y="70" width="151.83985477023654" height="42.388888888888886" fill="#FFFFFF" fill-opacity="0.8" stroke="#CCCCCC" stroke-width="0.5" />
<rect x="656.1601452297634" y="78" width="27.77777777777778" height="9.722222222222221" fill="#4472C4" />
<path d="M8.94504 -9.34516L8.94504 -7.90066Q8.25331 -8.54492 7.47003 -8.86366Q6.68674 -9.1824 5.80512 -9.1824Q4.06901 -9.1824 3.1467 -8.12107Q2.22439 -7.05973 2.22439 -5.05235Q2.22439 -3.05176 3.1467 -1.99042Q4.06901 -0.929091 5.80512 -0.929091Q6.68674 -0.929091 7.47003 -1.24783Q8.25331 -1.56657 8.94504 -2.21083L8.94504 -0.779894Q8.22618 -0.291612 7.42255 -0.0474718Q6.61892 0.196669 5.72374 0.196669Q3.42475 0.196669 2.10232 -1.21053Q0.779894 -2.61773 0.779894 -5.05235Q0.779894 -7.49376 2.10232 -8.90096Q3.42475 -10.3082 5.72374 -10.3082Q6.63249 -10.3082 7.43612 -10.0674Q8.23975 -9.82666 8.94504 -9.34516ZM13.9635 -6.72065Q12.9598 -6.72065 12.3766 -5.93736Q11.7933 -5.15408 11.7933 -3.79096Q11.7933 -2.42784 12.3732 -1.64456Q12.953 -0.861274 13.9635 -0.861274Q14.9604 -0.861274 15.5436 -1.64795Q16.1268 -2.43462 16.1268 -3.79096Q16.1268 -5.14052 15.5436 -5.93058Q14.9604 -6.72065 13.9635 -6.72065ZM13.9635 -7.77859Q15.5911 -7.77859 16.5202 -6.72065Q17.4493 -5.66271 17.4493 -3.79096Q17.4493 -1.926 16.5202 -0.864665Q15.5911 0.196669 13.9635 0.196669Q12.3291 0.196669 11.4034 -0.864665Q10.4777 -1.926 10.4777 -3.79096Q10.4777 -5.66271 11.4034 -6.72065Q12.3291 -7.77859 13.9635 -7.77859ZM19.3821 -2.9975L19.3821 -7.59549L20.6299 -7.59549L20.6299 -3.04498Q20.6299 -1.96669 21.0503 -1.42754Q21.4708 -0.888401 22.3117 -0.888401Q23.3222 -0.888401 23.9088 -1.53266Q24.4954 -2.17692 24.4954 -3.28912L24.4954 -7.59549L25.7433 -7.59549L25.7433 0L24.4954 0L24.4954 -1.16645Q24.0411 -0.474718 23.4409 -0.139025Q22.8407 0.196669 22.0473 0.196669Q20.7384 0.196669 20.0602 -0.617133Q19.3821 -1.43094 19.3821 -2.9975ZM34.6408 -4.58442L34.6408 0L33.393 0L33.393 -4.54373Q33.393 -5.62202 32.9725 -6.15777Q32.5521 -6.69352 31.7112 -6.69352Q30.7007 -6.69352 30.1175 -6.04926Q29.5342 -5.405 29.5342 -4.29281L29.5342 0L28.2796 0L28.2796 -7.59549L29.5342 -7.59549L29.5342 -6.41547Q29.9818 -7.10042 30.5888 -7.43951Q31.1957 -7.77859 31.9892 -7.77859Q33.2981 -7.77859 33.9695 -6.96818Q34.6408 -6.15777 34.6408 -4.58442ZM38.3776 -9.75206L38.3776 -7.59549L40.9478 -7.59549L40.9478 -6.62571L38.3776 -6.62571L38.3776 -2.50244Q38.3776 -1.57335 38.6319 -1.30887Q38.8862 -1.04438 39.6661 -1.04438L40.9478 -1.04438L40.9478 0L39.6661 0Q38.2216 0 37.6723 -0.539144Q37.1229 -1.07829 37.1229 -2.50244L37.1229 -6.62571L36.2074 -6.62571L36.2074 -7.59549L37.1229 -7.59549L37.1229 -9.75206L38.3776 -9.75206Z" fill="#262626" transform="translate(695.0490341186523,86.72222222222223)" />
<line x1="656.1601452297634" y1="99.52777777777777" x2="683.9379230075413" y2="99.52777777777777" stroke="#8B0000" stroke-width="2" />
<circle cx="670.0490341186523" cy="99.52777777777777" r="2.073201847722863" fill="#8B0000" />
<path d="M8.94504 -9.34516L8.94504 -7.90066Q8.25331 -8.54492 7.47003 -8.86366Q6.68674 -9.1824 5.80512 -9.1824Q4.06901 -9.1824 3.1467 -8.12107Q2.22439 -7.05973 2.22439 -5.05235Q2.22439 -3.05176 3.1467 -1.99042Q4.06901 -0.929091 5.80512 -0.929091Q6.68674 -0.929091 7.47003 -1.24783Q8.25331 -1.56657 8.94504 -2.21083L8.94504 -0.779894Q8.22618 -0.291612 7.42255 -0.0474718Q6.61892 0.196669 5.72374 0.196669Q3.42475 0.196669 2.10232 -1.21053Q0.779894 -2.61773 0.779894 -5.05235Q0.779894 -7.49376 2.10232 -8.90096Q3.42475 -10.3082 5.72374 -10.3082Q6.63249 -10.3082 7.43612 -10.0674Q8.23975 -9.82666 8.94504 -9.34516ZM10.8914 -2.9975L10.8914 -7.59549L12.1392 -7.59549L12.1392 -3.04498Q12.1392 -1.96669 12.5597 -1.42754Q12.9801 -0.888401 13.8211 -0.888401Q14.8315 -0.888401 15.4182 -1.53266Q16.0048 -2.17692 16.0048 -3.28912L16.0048 -7.59549L17.2526 -7.59549L17.2526 0L16.0048 0L16.0048 -1.16645Q15.5504 -0.474718 14.9502 -0.139025Q14.35 0.196669 13.5566 0.196669Q12.2477 0.196669 11.5696 -0.617133Q10.8914 -1.43094 10.8914 -2.9975ZM25.7501 -6.13742Q26.218 -6.97835 26.869 -7.37847Q27.5201 -7.77859 28.4017 -7.77859Q29.5885 -7.77859 30.2327 -6.94784Q30.877 -6.11708 30.877 -4.58442L30.877 0L29.6224 0L29.6224 -4.54373Q29.6224 -5.63558 29.2358 -6.16455Q28.8493 -6.69352 28.0558 -6.69352Q27.086 -6.69352 26.5232 -6.04926Q25.9603 -5.405 25.9603 -4.29281L25.9603 0L24.7057 0L24.7057 -4.54373Q24.7057 -5.64236 24.3191 -6.16794Q23.9326 -6.69352 23.1255 -6.69352Q22.1693 -6.69352 21.6064 -6.04587Q21.0436 -5.39822 21.0436 -4.29281L21.0436 0L19.789 0L19.789 -7.59549L21.0436 -7.59549L21.0436 -6.41547Q21.4708 -7.11399 22.0676 -7.44629Q22.6644 -7.77859 23.485 -7.77859Q24.3123 -7.77859 24.8922 -7.35813Q25.472 -6.93766 25.7501 -6.13742ZM33.2438 -2.9975L33.2438 -7.59549L34.4916 -7.59549L34.4916 -3.04498Q34.4916 -1.96669 34.9121 -1.42754Q35.3326 -0.888401 36.1735 -0.888401Q37.184 -0.888401 37.7706 -1.53266Q38.3572 -2.17692 38.3572 -3.28912L38.3572 -7.59549L39.605 -7.59549L39.605 0L38.3572 0L38.3572 -1.16645Q37.9028 -0.474718 37.3027 -0.139025Q36.7025 0.196669 35.909 0.196669Q34.6002 0.196669 33.922 -0.617133Q33.2438 -1.43094 33.2438 -2.9975ZM42.1889 -10.5523L43.4367 -10.5523L43.4367 0L42.1889 0L42.1889 -10.5523ZM49.4927 -3.81809Q47.9804 -3.81809 47.3972 -3.47222Q46.814 -3.12636 46.814 -2.29221Q46.814 -1.6276 47.2514 -1.23766Q47.6888 -0.84771 48.4416 -0.847711Q49.4792 -0.847711 50.1065 -1.58352Q50.7338 -2.31934 50.7338 -3.54004L50.7338 -3.81809L49.4927 -3.81809ZM51.9816 -4.3335L51.9816 0L50.7338 0L50.7338 -1.15289Q50.3065 -0.461155 49.6691 -0.132243Q49.0316 0.196669 48.1093 0.196669Q46.9428 0.196669 46.2545 -0.457764Q45.5661 -1.1122 45.5661 -2.21083Q45.5661 -3.49257 46.424 -4.14361Q47.2819 -4.79465 48.9841 -4.79465L50.7338 -4.79465L50.7338 -4.91672Q50.7338 -5.77799 50.1675 -6.24932Q49.6012 -6.72065 48.5772 -6.72065Q47.9262 -6.72065 47.309 -6.56467Q46.6919 -6.40869 46.1222 -6.09673L46.1222 -7.24962Q46.8072 -7.51411 47.4514 -7.64635Q48.0957 -7.77859 48.7061 -7.77859Q50.354 -7.77859 51.1678 -6.9241Q51.9816 -6.06961 51.9816 -4.3335ZM55.7929 -9.75206L55.7929 -7.59549L58.3632 -7.59549L58.3632 -6.62571L55.7929 -6.62571L55.7929 -2.50244Q55.7929 -1.57335 56.0472 -1.30887Q56.3015 -1.04438 57.0814 -1.04438L58.3632 -1.04438L58.3632 0L57.0814 0Q55.6369 0 55.0876 -0.539144Q54.5383 -1.07829 54.5383 -2.50244L54.5383 -6.62571L53.6228 -6.62571L53.6228 -7.59549L54.5383 -7.59549L54.5383 -9.75206L55.7929 -9.75206ZM60.0111 -7.59549L61.259 -7.59549L61.259 0L60.0111 0L60.0111 -7.59549ZM60.0111 -10.5523L61.259 -10.5523L61.259 -8.97217L60.0111 -8.97217L60.0111 -10.5523ZM62.9679 -7.59549L64.2904 -7.59549L66.664 -1.2207L69.0375 -7.59549L70.36 -7.59549L67.5117 0L65.8162 0L62.9679 -7.59549ZM78.5794 -4.1097L78.5794 -3.49935L72.8421 -3.49935Q72.9235 -2.21083 73.6186 -1.53605Q74.3137 -0.861274 75.5547 -0.861274Q76.2736 -0.861274 76.9484 -1.0376Q77.6232 -1.21392 78.2878 -1.56657L78.2878 -0.386556Q77.6164 -0.101725 76.9111 0.0474718Q76.2058 0.196669 75.4801 0.196669Q73.6627 0.196669 72.6013 -0.861274Q71.54 -1.91922 71.54 -3.72314Q71.54 -5.58811 72.5471 -6.68335Q73.5541 -7.77859 75.2631 -7.77859Q76.7958 -7.77859 77.6876 -6.79186Q78.5794 -5.80512 78.5794 -4.1097ZM77.3316 -4.47591Q77.318 -5.49995 76.7585 -6.1103Q76.199 -6.72065 75.2767 -6.72065Q74.2323 -6.72065 73.605 -6.13064Q72.9777 -5.54064 72.8828 -4.46913L77.3316 -4.47591ZM93.8382 -4.45557Q93.2482 -4.45557 92.9125 -3.95372Q92.5768 -3.45188 92.5768 -2.55669Q92.5768 -1.67508 92.9125 -1.16984Q93.2482 -0.664605 93.8382 -0.664605Q94.4146 -0.664605 94.7503 -1.16984Q95.086 -1.67508 95.086 -2.55669Q95.086 -3.4451 94.7503 -3.95033Q94.4146 -4.45557 93.8382 -4.45557ZM93.8382 -5.31684Q94.9097 -5.31684 95.5404 -4.57086Q96.1711 -3.82487 96.1711 -2.55669Q96.1711 -1.28852 95.537 -0.545926Q94.9029 0.196669 93.8382 0.196669Q92.7531 0.196669 92.1224 -0.545926Q91.4917 -1.28852 91.4917 -2.55669Q91.4917 -3.83165 92.1258 -4.57425Q92.7599 -5.31684 93.8382 -5.31684ZM86.8395 -9.44689Q86.2562 -9.44689 85.9206 -8.94165Q85.5849 -8.43641 85.5849 -7.5548Q85.5849 -6.65961 85.9172 -6.15777Q86.2495 -5.65592 86.8395 -5.65592Q87.4295 -5.65592 87.7652 -6.15777Q88.1009 -6.65961 88.1009 -7.5548Q88.1009 -8.42963 87.7618 -8.93826Q87.4227 -9.44689 86.8395 -9.44689ZM92.9633 -10.3082L94.0484 -10.3082L87.7143 0.196669L86.6292 0.196669L92.9633 -10.3082ZM86.8395 -10.3082Q87.911 -10.3082 88.5485 -9.56557Q89.1859 -8.82297 89.1859 -7.5548Q89.1859 -6.27306 88.5518 -5.53385Q87.9178 -4.79465 86.8395 -4.79465Q85.7612 -4.79465 85.1339 -5.53725Q84.5066 -6.27984 84.5066 -7.5548Q84.5066 -8.81619 85.1373 -9.56217Q85.768 -10.3082 86.8395 -10.3082Z" fill="#262626" transform="translate(695.0490341186523,103.38888888888889)" />
</g>
<path d="M2.73302 -8.9993L2.73302 -1.12576L4.38775 -1.12576Q6.48329 -1.12576 7.45646 -2.0752Q8.42963 -3.02463 8.42963 -5.0727Q8.42963 -7.1072 7.45646 -8.05325Q6.48329 -8.9993 4.38775 -8.9993L2.73302 -8.9993ZM1.36312 -10.1251L4.17752 -10.1251Q7.12077 -10.1251 8.49745 -8.90096Q9.87413 -7.67687 9.87413 -5.0727Q9.87413 -2.45497 8.49067 -1.22748Q7.1072 0 4.17752 0L1.36312 0L1.36312 -10.1251ZM18.4937 -4.1097L18.4937 -3.49935L12.7563 -3.49935Q12.8377 -2.21083 13.5329 -1.53605Q14.228 -0.861274 15.469 -0.861274Q16.1879 -0.861274 16.8627 -1.0376Q17.5374 -1.21392 18.202 -1.56657L18.202 -0.386556Q17.5307 -0.101725 16.8254 0.0474718Q16.1201 0.196669 15.3944 0.196669Q13.5769 0.196669 12.5156 -0.861274Q11.4543 -1.91922 11.4543 -3.72314Q11.4543 -5.58811 12.4613 -6.68335Q13.4684 -7.77859 15.1774 -7.77859Q16.7101 -7.77859 17.6019 -6.79186Q18.4937 -5.80512 18.4937 -4.1097ZM17.2458 -4.47591Q17.2323 -5.49995 16.6728 -6.1103Q16.1133 -6.72065 15.191 -6.72065Q14.1466 -6.72065 13.5193 -6.13064Q12.892 -5.54064 12.797 -4.46913L17.2458 -4.47591ZM24.3869 -10.5523L24.3869 -9.5147L23.1934 -9.5147Q22.522 -9.5147 22.2609 -9.24344Q21.9998 -8.97217 21.9998 -8.26687L21.9998 -7.59549L24.0546 -7.59549L24.0546 -6.62571L21.9998 -6.62571L21.9998 0L20.7452 0L20.7452 -6.62571L19.5516 -6.62571L19.5516 -7.59549L20.7452 -7.59549L20.7452 -8.12446Q20.7452 -9.39263 21.3352 -9.97247Q21.9252 -10.5523 23.2069 -10.5523L24.3869 -10.5523ZM31.9214 -4.1097L31.9214 -3.49935L26.1841 -3.49935Q26.2655 -2.21083 26.9606 -1.53605Q27.6557 -0.861274 28.8968 -0.861274Q29.6156 -0.861274 30.2904 -1.0376Q30.9652 -1.21392 31.6298 -1.56657L31.6298 -0.386556Q30.9584 -0.101725 30.2531 0.0474718Q29.5478 0.196669 28.8222 0.196669Q27.0047 0.196669 25.9433 -0.861274Q24.882 -1.91922 24.882 -3.72314Q24.882 -5.58811 25.8891 -6.68335Q26.8962 -7.77859 28.6051 -7.77859Q30.1378 -7.77859 31.0296 -6.79186Q31.9214 -5.80512 31.9214 -4.1097ZM30.6736 -4.47591Q30.66 -5.49995 30.1005 -6.1103Q29.541 -6.72065 28.6187 -6.72065Q27.5743 -6.72065 26.947 -6.13064Q26.3197 -5.54064 26.2248 -4.46913L30.6736 -4.47591ZM39.4355 -7.30387L39.4355 -6.13742Q38.9065 -6.42904 38.3742 -6.57484Q37.8418 -6.72065 37.2993 -6.72065Q36.0853 -6.72065 35.414 -5.95093Q34.7426 -5.18121 34.7426 -3.79096Q34.7426 -2.40072 35.414 -1.631Q36.0853 -0.861274 37.2993 -0.861274Q37.8418 -0.861274 38.3742 -1.00708Q38.9065 -1.15289 39.4355 -1.4445L39.4355 -0.291612Q38.9133 -0.0474718 38.3538 0.0745985Q37.7943 0.196669 37.1636 0.196669Q35.4479 0.196669 34.4374 -0.881619Q33.4269 -1.95991 33.4269 -3.79096Q33.4269 -5.64914 34.4476 -6.71387Q35.4682 -7.77859 37.245 -7.77859Q37.8215 -7.77859 38.3708 -7.65991Q38.9201 -7.54123 39.4355 -7.30387ZM42.8535 -9.75206L42.8535 -7.59549L45.4237 -7.59549L45.4237 -6.62571L42.8535 -6.62571L42.8535 -2.50244Q42.8535 -1.57335 43.1078 -1.30887Q43.3621 -1.04438 44.142 -1.04438L45.4237 -1.04438L45.4237 0L44.142 0Q42.6975 0 42.1482 -0.539144Q41.5989 -1.07829 41.5989 -2.50244L41.5989 -6.62571L40.6833 -6.62571L40.6833 -7.59549L41.5989 -7.59549L41.5989 -9.75206L42.8535 -9.75206ZM59.1295 -9.34516L59.1295 -7.90066Q58.4378 -8.54492 57.6545 -8.86366Q56.8712 -9.1824 55.9896 -9.1824Q54.2535 -9.1824 53.3312 -8.12107Q52.4089 -7.05973 52.4089 -5.05235Q52.4089 -3.05176 53.3312 -1.99042Q54.2535 -0.929091 55.9896 -0.929091Q56.8712 -0.929091 57.6545 -1.24783Q58.4378 -1.56657 59.1295 -2.21083L59.1295 -0.779894Q58.4106 -0.291612 57.607 -0.0474718Q56.8034 0.196669 55.9082 0.196669Q53.6092 0.196669 52.2868 -1.21053Q50.9644 -2.61773 50.9644 -5.05235Q50.9644 -7.49376 52.2868 -8.90096Q53.6092 -10.3082 55.9082 -10.3082Q56.8169 -10.3082 57.6206 -10.0674Q58.4242 -9.82666 59.1295 -9.34516ZM64.1479 -6.72065Q63.1443 -6.72065 62.561 -5.93736Q61.9778 -5.15408 61.9778 -3.79096Q61.9778 -2.42784 62.5576 -1.64456Q63.1375 -0.861274 64.1479 -0.861274Q65.1449 -0.861274 65.7281 -1.64795Q66.3113 -2.43462 66.3113 -3.79096Q66.3113 -5.14052 65.7281 -5.93058Q65.1449 -6.72065 64.1479 -6.72065ZM64.1479 -7.77859Q65.7756 -7.77859 66.7046 -6.72065Q67.6337 -5.66271 67.6337 -3.79096Q67.6337 -1.926 66.7046 -0.864665Q65.7756 0.196669 64.1479 0.196669Q62.5136 0.196669 61.5879 -0.864665Q60.6622 -1.926 60.6622 -3.79096Q60.6622 -5.66271 61.5879 -6.72065Q62.5136 -7.77859 64.1479 -7.77859ZM69.5665 -2.9975L69.5665 -7.59549L70.8143 -7.59549L70.8143 -3.04498Q70.8143 -1.96669 71.2348 -1.42754Q71.6553 -0.888401 72.4962 -0.888401Q73.5067 -0.888401 74.0933 -1.53266Q74.6799 -2.17692 74.6799 -3.28912L74.6799 -7.59549L75.9277 -7.59549L75.9277 0L74.6799 0L74.6799 -1.16645Q74.2255 -0.474718 73.6254 -0.139025Q73.0252 0.196669 72.2317 0.196669Q70.9228 0.196669 70.2447 -0.617133Q69.5665 -1.43094 69.5665 -2.9975ZM84.8253 -4.58442L84.8253 0L83.5775 0L83.5775 -4.54373Q83.5775 -5.62202 83.157 -6.15777Q82.7365 -6.69352 81.8956 -6.69352Q80.8851 -6.69352 80.3019 -6.04926Q79.7187 -5.405 79.7187 -4.29281L79.7187 0L78.4641 0L78.4641 -7.59549L79.7187 -7.59549L79.7187 -6.41547Q80.1663 -7.10042 80.7732 -7.43951Q81.3802 -7.77859 82.1737 -7.77859Q83.4825 -7.77859 84.1539 -6.96818Q84.8253 -6.15777 84.8253 -4.58442ZM88.562 -9.75206L88.562 -7.59549L91.1323 -7.59549L91.1323 -6.62571L88.562 -6.62571L88.562 -2.50244Q88.562 -1.57335 88.8163 -1.30887Q89.0706 -1.04438 89.8505 -1.04438L91.1323 -1.04438L91.1323 0L89.8505 0Q88.406 0 87.8567 -0.539144Q87.3074 -1.07829 87.3074 -2.50244L87.3074 -6.62571L86.3919 -6.62571L86.3919 -7.59549L87.3074 -7.59549L87.3074 -9.75206L88.562 -9.75206Z" fill="#262626" transform="translate(63.74782858954536,252.5) rotate(-90) translate(-45.735679626464844,0)" />
</svg>
