<svg xmlns="http://www.w3.org/2000/svg" viewBox="0 0 900 500" width="900" height="500" style="width:100%;height:auto" role="img" aria-labelledby="chart-title">
<title id="chart-title">Pareto Chart — Defect Analysis</title>
<rect x="0" y="0" width="900" height="500" fill="#FFFFFF" />
<path d="M1.64214 -13.0411L7.22369 -13.0411Q9.71311 -13.0411 11.0452 -11.9361Q12.3772 -10.8312 12.3772 -8.78722Q12.3772 -6.73454 11.0452 -5.62958Q9.71311 -4.52463 7.22369 -4.52463L5.00505 -4.52463L5.00505 0L1.64214 0L1.64214 -13.0411ZM5.00505 -10.6041L5.00505 -6.96164L6.86556 -6.96164Q7.84386 -6.96164 8.37668 -7.43769Q8.9095 -7.91374 8.90951 -8.78722Q8.9095 -9.6607 8.37668 -10.1324Q7.84386 -10.6041 6.86556 -10.6041L5.00505 -10.6041ZM18.9982 -4.40234Q18.0199 -4.40234 17.5264 -4.07042Q17.0329 -3.7385 17.0329 -3.09212Q17.0329 -2.49816 17.4303 -2.16187Q17.8277 -1.82558 18.5353 -1.82558Q19.4175 -1.82558 20.0202 -2.45885Q20.6229 -3.09212 20.6229 -4.04422L20.6229 -4.40234L18.9982 -4.40234ZM23.7761 -5.58154L23.7761 0L20.6229 0L20.6229 -1.44998Q19.994 -0.559028 19.2078 -0.152859Q18.4217 0.253309 17.2949 0.253309Q15.7751 0.253309 14.8273 -0.633274Q13.8796 -1.51986 13.8796 -2.9349Q13.8796 -4.65565 15.0632 -5.45926Q16.2467 -6.26286 18.7798 -6.26286L20.6229 -6.26286L20.6229 -6.50743Q20.6229 -7.24989 20.0377 -7.59492Q19.4524 -7.93994 18.2121 -7.93994Q17.2076 -7.93994 16.3428 -7.73904Q15.4781 -7.53814 14.7356 -7.13634L14.7356 -9.52094Q15.7401 -9.76552 16.7534 -9.89217Q17.7666 -10.0188 18.7798 -10.0188Q21.4265 -10.0188 22.6013 -8.97502Q23.7761 -7.93121 23.7761 -5.58154ZM33.9522 -7.11887Q33.5417 -7.31103 33.1355 -7.40275Q32.7293 -7.49447 32.3188 -7.49447Q31.1134 -7.49447 30.4626 -6.72144Q29.8119 -5.94841 29.8119 -4.50716L29.8119 0L26.6848 0L26.6848 -9.78299L29.8119 -9.78299L29.8119 -8.17578Q30.4146 -9.13661 31.1964 -9.57772Q31.9781 -10.0188 33.07 -10.0188Q33.2272 -10.0188 33.4106 -10.0057Q33.5941 -9.99262 33.9435 -9.94895L33.9522 -7.11887ZM45.2725 -4.9177L45.2725 -4.02675L37.9615 -4.02675Q38.075 -2.92616 38.7563 -2.37587Q39.4377 -1.82558 40.6605 -1.82558Q41.6476 -1.82558 42.6826 -2.11819Q43.7177 -2.41081 44.8096 -3.00477L44.8096 -0.593967Q43.7002 -0.174696 42.5909 0.0393066Q41.4816 0.253309 40.3723 0.253309Q37.7169 0.253309 36.2451 -1.09622Q34.7733 -2.44575 34.7733 -4.88276Q34.7733 -7.2761 36.2189 -8.64746Q37.6645 -10.0188 40.1976 -10.0188Q42.5036 -10.0188 43.888 -8.62999Q45.2725 -7.24116 45.2725 -4.9177ZM42.0581 -5.95714Q42.0581 -6.84809 41.5384 -7.39402Q41.0187 -7.93994 40.1801 -7.93994Q39.2717 -7.93994 38.7039 -7.42896Q38.1362 -6.91797 37.9964 -5.95714L42.0581 -5.95714ZM51.055 -12.5607L51.055 -9.78299L54.2781 -9.78299L54.2781 -7.54688L51.055 -7.54688L51.055 -3.39784Q51.055 -2.71653 51.3257 -2.47632Q51.5965 -2.23611 52.4001 -2.23611L54.0073 -2.23611L54.0073 0L51.3257 0Q49.474 0 48.7009 -0.773031Q47.9279 -1.54606 47.9279 -3.39784L47.9279 -7.54688L46.3731 -7.54688L46.3731 -9.78299L47.9279 -9.78299L47.9279 -12.5607L51.055 -12.5607ZM60.8467 -7.78271Q59.8072 -7.78271 59.2613 -7.03589Q58.7154 -6.28906 58.7154 -4.88276Q58.7154 -3.47645 59.2613 -2.72963Q59.8072 -1.9828 60.8467 -1.9828Q61.8686 -1.9828 62.4102 -2.72963Q62.9518 -3.47645 62.9518 -4.88276Q62.9518 -6.28906 62.4102 -7.03589Q61.8686 -7.78271 60.8467 -7.78271ZM60.8467 -10.0188Q63.371 -10.0188 64.7904 -8.6562Q66.2098 -7.29357 66.2099 -4.88276Q66.2099 -2.47195 64.7904 -1.10932Q63.371 0.253309 60.8467 0.253309Q58.3136 0.253309 56.8854 -1.10932Q55.4573 -2.47195 55.4573 -4.88276Q55.4573 -7.29357 56.8854 -8.6562Q58.3136 -10.0188 60.8467 -10.0188ZM85.1906 -0.716254Q84.2647 -0.23584 83.2602 0.00873481Q82.2557 0.253309 81.1638 0.253309Q77.9058 0.253309 76.0016 -1.5679Q74.0974 -3.38911 74.0974 -6.50743Q74.0974 -9.63449 76.0016 -11.4557Q77.9058 -13.2769 81.1638 -13.2769Q82.2557 -13.2769 83.2602 -13.0323Q84.2647 -12.7878 85.1906 -12.3073L85.1906 -9.60829Q84.256 -10.2459 83.3475 -10.5429Q82.4391 -10.8399 81.4346 -10.8399Q79.6353 -10.8399 78.6045 -9.6869Q77.5738 -8.53391 77.5738 -6.50743Q77.5738 -4.48969 78.6045 -3.3367Q79.6353 -2.1837 81.4346 -2.1837Q82.4391 -2.1837 83.3475 -2.48069Q84.256 -2.77767 85.1906 -3.41531L85.1906 -0.716254ZM97.6726 -5.95714L97.6726 0L94.5281 0L94.5281 -0.969564L94.5281 -4.5421Q94.5281 -5.82612 94.4713 -6.30653Q94.4146 -6.78695 94.2748 -7.01405Q94.0914 -7.31977 93.7769 -7.4901Q93.4625 -7.66043 93.0607 -7.66043Q92.0824 -7.66043 91.5233 -6.90487Q90.9643 -6.14931 90.9643 -4.81288L90.9643 0L87.8372 0L87.8372 -13.5914L90.9643 -13.5914L90.9643 -8.35048Q91.6718 -9.20649 92.4667 -9.61266Q93.2616 -10.0188 94.2224 -10.0188Q95.9169 -10.0188 96.7948 -8.97938Q97.6726 -7.93994 97.6726 -5.95714ZM104.957 -4.40234Q103.979 -4.40234 103.486 -4.07042Q102.992 -3.7385 102.992 -3.09212Q102.992 -2.49816 103.39 -2.16187Q103.787 -1.82558 104.495 -1.82558Q105.377 -1.82558 105.979 -2.45885Q106.582 -3.09212 106.582 -4.04422L106.582 -4.40234L104.957 -4.40234ZM109.735 -5.58154L109.735 0L106.582 0L106.582 -1.44998Q105.953 -0.559028 105.167 -0.152859Q104.381 0.253309 103.254 0.253309Q101.734 0.253309 100.787 -0.633274Q99.8389 -1.51986 99.8389 -2.9349Q99.8389 -4.65565 101.022 -5.45926Q102.206 -6.26286 104.739 -6.26286L106.582 -6.26286L106.582 -6.50743Q106.582 -7.24989 105.997 -7.59492Q105.412 -7.93994 104.171 -7.93994Q103.167 -7.93994 102.302 -7.73904Q101.437 -7.53814 100.695 -7.13634L100.695 -9.52094Q101.699 -9.76552 102.713 -9.89217Q103.726 -10.0188 104.739 -10.0188Q107.386 -10.0188 108.561 -8.97502Q109.735 -7.93121 109.735 -5.58154ZM119.911 -7.11887Q119.501 -7.31103 119.095 -7.40275Q118.689 -7.49447 118.278 -7.49447Q117.073 -7.49447 116.422 -6.72144Q115.771 -5.94841 115.771 -4.50716L115.771 0L112.644 0L112.644 -9.78299L115.771 -9.78299L115.771 -8.17578Q116.374 -9.13661 117.156 -9.57772Q117.937 -10.0188 119.029 -10.0188Q119.186 -10.0188 119.37 -10.0057Q119.553 -9.99262 119.903 -9.94895L119.911 -7.11887ZM124.882 -12.5607L124.882 -9.78299L128.105 -9.78299L128.105 -7.54688L124.882 -7.54688L124.882 -3.39784Q124.882 -2.71653 125.152 -2.47632Q125.423 -2.23611 126.227 -2.23611L127.834 -2.23611L127.834 0L125.152 0Q123.301 0 122.528 -0.773031Q121.755 -1.54606 121.755 -3.39784L121.755 -7.54688L120.2 -7.54688L120.2 -9.78299L121.755 -9.78299L121.755 -12.5607L124.882 -12.5607ZM135.704 -6.02702L151.671 -6.02702L151.671 -3.77344L135.704 -3.77344L135.704 -6.02702ZM163.865 -10.4992L163.865 -2.54183L165.07 -2.54183Q167.132 -2.54183 168.219 -3.5638Q169.307 -4.58577 169.307 -6.53364Q169.307 -8.47276 168.224 -9.486Q167.141 -10.4992 165.07 -10.4992L163.865 -10.4992ZM160.502 -13.0411L164.048 -13.0411Q167.018 -13.0411 168.473 -12.6174Q169.927 -12.1938 170.966 -11.1806Q171.884 -10.2983 172.329 -9.14535Q172.775 -7.99235 172.775 -6.53364Q172.775 -5.05745 172.329 -3.90009Q171.884 -2.74273 170.966 -1.86051Q169.918 -0.847276 168.451 -0.423638Q166.983 0 164.048 0L160.502 0L160.502 -13.0411ZM184.977 -4.9177L184.977 -4.02675L177.666 -4.02675Q177.78 -2.92616 178.461 -2.37587Q179.142 -1.82558 180.365 -1.82558Q181.352 -1.82558 182.387 -2.11819Q183.422 -2.41081 184.514 -3.00477L184.514 -0.593967Q183.405 -0.174696 182.295 0.0393066Q181.186 0.253309 180.077 0.253309Q177.421 0.253309 175.95 -1.09622Q174.478 -2.44575 174.478 -4.88276Q174.478 -7.2761 175.923 -8.64746Q177.369 -10.0188 179.902 -10.0188Q182.208 -10.0188 183.593 -8.62999Q184.977 -7.24116 184.977 -4.9177ZM181.763 -5.95714Q181.763 -6.84809 181.243 -7.39402Q180.723 -7.93994 179.885 -7.93994Q178.976 -7.93994 178.408 -7.42896Q177.841 -6.91797 177.701 -5.95714L181.763 -5.95714ZM193.782 -13.5914L193.782 -11.5387L192.052 -11.5387Q191.388 -11.5387 191.126 -11.2985Q190.864 -11.0583 190.864 -10.4643L190.864 -9.78299L193.537 -9.78299L193.537 -7.54688L190.864 -7.54688L190.864 0L187.737 0L187.737 -7.54688L186.182 -7.54688L186.182 -9.78299L187.737 -9.78299L187.737 -10.4643Q187.737 -12.0628 188.628 -12.8271Q189.519 -13.5914 191.388 -13.5914L193.782 -13.5914ZM204.892 -4.9177L204.892 -4.02675L197.581 -4.02675Q197.695 -2.92616 198.376 -2.37587Q199.058 -1.82558 200.28 -1.82558Q201.267 -1.82558 202.303 -2.11819Q203.338 -2.41081 204.429 -3.00477L204.429 -0.593967Q203.32 -0.174696 202.211 0.0393066Q201.102 0.253309 199.992 0.253309Q197.337 0.253309 195.865 -1.09622Q194.393 -2.44575 194.393 -4.88276Q194.393 -7.2761 195.839 -8.64746Q197.284 -10.0188 199.817 -10.0188Q202.123 -10.0188 203.508 -8.62999Q204.892 -7.24116 204.892 -4.9177ZM201.678 -5.95714Q201.678 -6.84809 201.158 -7.39402Q200.639 -7.93994 199.8 -7.93994Q198.892 -7.93994 198.324 -7.42896Q197.756 -6.91797 197.616 -5.95714L201.678 -5.95714ZM215.165 -9.47727L215.165 -6.9267Q214.527 -7.36344 213.885 -7.57308Q213.243 -7.78271 212.553 -7.78271Q211.243 -7.78271 210.513 -7.01842Q209.784 -6.25412 209.784 -4.88276Q209.784 -3.51139 210.513 -2.7471Q211.243 -1.9828 212.553 -1.9828Q213.287 -1.9828 213.946 -2.20117Q214.606 -2.41954 215.165 -2.84755L215.165 -0.288249C214.675 -0.107729 214.179 0.0276602 213.675 0.11792Q212.92 0.253309 212.16 0.253309Q209.513 0.253309 208.019 -1.10495Q206.526 -2.46322 206.526 -4.88276Q206.526 -7.3023 208.019 -8.66056Q209.513 -10.0188 212.16 -10.0188Q212.928 -10.0188 213.675 -9.88344Q214.422 -9.74805 215.165 -9.47727ZM221.279 -12.5607L221.279 -9.78299L224.502 -9.78299L224.502 -7.54688L221.279 -7.54688L221.279 -3.39784Q221.279 -2.71653 221.55 -2.47632Q221.82 -2.23611 222.624 -2.23611L224.231 -2.23611L224.231 0L221.55 0Q219.698 0 218.925 -0.773031Q218.152 -1.54606 218.152 -3.39784L218.152 -7.54688L216.597 -7.54688L216.597 -9.78299L218.152 -9.78299L218.152 -12.5607L221.279 -12.5607ZM240.696 -2.37587L235.438 -2.37587L234.608 0L231.228 0L236.058 -13.0411L240.067 -13.0411L244.898 0L241.517 0L240.696 -2.37587ZM236.277 -4.79541L239.849 -4.79541L238.067 -9.98389L236.277 -4.79541ZM256.323 -5.95714L256.323 0L253.178 0L253.178 -0.969564L253.178 -4.55957Q253.178 -5.82612 253.122 -6.30653Q253.065 -6.78695 252.925 -7.01405Q252.742 -7.31977 252.427 -7.4901Q252.113 -7.66043 251.711 -7.66043Q250.733 -7.66043 250.174 -6.90487Q249.615 -6.14931 249.615 -4.81288L249.615 0L246.488 0L246.488 -9.78299L249.615 -9.78299L249.615 -8.35048Q250.322 -9.20649 251.117 -9.61266Q251.912 -10.0188 252.873 -10.0188Q254.567 -10.0188 255.445 -8.97938Q256.323 -7.93994 256.323 -5.95714ZM263.608 -4.40234Q262.629 -4.40234 262.136 -4.07042Q261.642 -3.7385 261.642 -3.09212Q261.642 -2.49816 262.04 -2.16187Q262.437 -1.82558 263.145 -1.82558Q264.027 -1.82558 264.63 -2.45885Q265.232 -3.09212 265.232 -4.04422L265.232 -4.40234L263.608 -4.40234ZM268.386 -5.58154L268.386 0L265.232 0L265.232 -1.44998Q264.604 -0.559028 263.817 -0.152859Q263.031 0.253309 261.904 0.253309Q260.385 0.253309 259.437 -0.633274Q258.489 -1.51986 258.489 -2.9349Q258.489 -4.65565 259.673 -5.45926Q260.856 -6.26286 263.389 -6.26286L265.232 -6.26286L265.232 -6.50743Q265.232 -7.24989 264.647 -7.59492Q264.062 -7.93994 262.822 -7.93994Q261.817 -7.93994 260.952 -7.73904Q260.088 -7.53814 259.345 -7.13634L259.345 -9.52094Q260.35 -9.76552 261.363 -9.89217Q262.376 -10.0188 263.389 -10.0188Q266.036 -10.0188 267.211 -8.97502Q268.386 -7.93121 268.386 -5.58154ZM271.294 -13.5914L274.421 -13.5914L274.421 0L271.294 0L271.294 -13.5914ZM276.142 -9.78299L279.269 -9.78299L281.898 -3.14453L284.135 -9.78299L287.262 -9.78299L283.148 0.92589Q282.527 2.5593 281.702 3.21004Q280.876 3.86079 279.523 3.86079L277.715 3.86079L277.715 1.80811L278.693 1.80811Q279.488 1.80811 279.85 1.5548Q280.213 1.30149 280.414 0.646376L280.501 0.375597L276.142 -9.78299ZM296.73 -9.47727L296.73 -7.1014Q295.726 -7.52067 294.791 -7.73031Q293.856 -7.93994 293.027 -7.93994Q292.136 -7.93994 291.703 -7.7172Q291.271 -7.49447 291.271 -7.03152Q291.271 -6.65592 291.598 -6.45502Q291.926 -6.25412 292.773 -6.15804L293.324 -6.07943Q295.726 -5.77371 296.555 -5.07492Q297.385 -4.37614 297.385 -2.88249Q297.385 -1.31896 296.232 -0.532823Q295.079 0.253309 292.791 0.253309Q291.821 0.253309 290.786 0.10045Q289.751 -0.0524089 288.659 -0.358127L288.659 -2.734Q289.594 -2.27978 290.577 -2.05268Q291.559 -1.82557 292.572 -1.82558Q293.49 -1.82558 293.953 -2.07888Q294.415 -2.33219 294.415 -2.83008Q294.415 -3.24935 294.097 -3.45462Q293.778 -3.65989 292.826 -3.77344L292.275 -3.84332Q290.188 -4.10536 289.349 -4.81288Q288.511 -5.5204 288.511 -6.96164Q288.511 -8.51644 289.576 -9.26763Q290.642 -10.0188 292.843 -10.0188Q293.708 -10.0188 294.66 -9.8878Q295.612 -9.75678 296.73 -9.47727ZM299.735 -9.78299L302.862 -9.78299L302.862 0L299.735 0L299.735 -9.78299ZM299.735 -13.5914L302.862 -13.5914L302.862 -11.0408L299.735 -11.0408L299.735 -13.5914ZM313.51 -9.47727L313.51 -7.1014Q312.505 -7.52067 311.571 -7.73031Q310.636 -7.93994 309.806 -7.93994Q308.915 -7.93994 308.483 -7.7172Q308.051 -7.49447 308.051 -7.03152Q308.051 -6.65592 308.378 -6.45502Q308.706 -6.25412 309.553 -6.15804L310.103 -6.07943Q312.505 -5.77371 313.335 -5.07492Q314.165 -4.37614 314.165 -2.88249Q314.165 -1.31896 313.012 -0.532823Q311.859 0.253309 309.57 0.253309Q308.601 0.253309 307.566 0.10045Q306.531 -0.0524089 305.439 -0.358127L305.439 -2.734Q306.373 -2.27978 307.356 -2.05268Q308.339 -1.82557 309.352 -1.82558Q310.269 -1.82558 310.732 -2.07888Q311.195 -2.33219 311.195 -2.83008Q311.195 -3.24935 310.876 -3.45462Q310.557 -3.65989 309.605 -3.77344L309.055 -3.84332Q306.967 -4.10536 306.129 -4.81288Q305.29 -5.5204 305.29 -6.96164Q305.29 -8.51644 306.356 -9.26763Q307.422 -10.0188 309.623 -10.0188Q310.488 -10.0188 311.44 -9.8878Q312.392 -9.75678 313.51 -9.47727Z" fill="#262626" transform="translate(450,24.099999999999998) translate(-157.50607299804688,0)" />
<rect x="112" y="60" width="698" height="385" fill="#FFFFFF" />
<line x1="153.05882352941177" y1="444.6" x2="153.05882352941177" y2="449.8611111111111" stroke="#262626" stroke-width="1.1111111111111112" />
<path d="M7.43273 -9.79275L7.43273 -8.45676Q6.65283 -8.82975 5.9611 -9.01286Q5.26937 -9.19596 4.62511 -9.19596Q3.50613 -9.19596 2.89917 -8.76194Q2.29221 -8.32791 2.29221 -7.52767Q2.29221 -6.85628 2.69572 -6.51381Q3.09923 -6.17133 4.22499 -5.9611L5.05235 -5.79156Q6.58501 -5.49995 7.31405 -4.76413Q8.04308 -4.02832 8.04308 -2.79405Q8.04308 -1.32243 7.05634 -0.56288Q6.06961 0.196669 4.16395 0.196669Q3.4451 0.196669 2.63468 0.0339084Q1.82427 -0.128852 0.956217 -0.447591L0.956217 -1.85818Q1.79036 -1.39025 2.5906 -1.15289Q3.39084 -0.915527 4.16395 -0.915527Q5.33719 -0.915527 5.97466 -1.37668Q6.61214 -1.83784 6.61214 -2.69233Q6.61214 -3.43831 6.15438 -3.85878Q5.69661 -4.27924 4.65224 -4.48947L3.81809 -4.65224Q2.28543 -4.95741 1.60048 -5.60845Q0.915527 -6.25949 0.915527 -7.41916Q0.915527 -8.76194 1.86157 -9.53505Q2.80762 -10.3082 4.46913 -10.3082Q5.18121 -10.3082 5.92041 -10.1793Q6.65961 -10.0505 7.43273 -9.79275ZM15.5911 -7.30387L15.5911 -6.13742Q15.0621 -6.42904 14.5298 -6.57484Q13.9974 -6.72065 13.4549 -6.72065Q12.2409 -6.72065 11.5696 -5.95093Q10.8982 -5.18121 10.8982 -3.79096Q10.8982 -2.40072 11.5696 -1.631Q12.2409 -0.861274 13.4549 -0.861274Q13.9974 -0.861274 14.5298 -1.00708Q15.0621 -1.15289 15.5911 -1.4445L15.5911 -0.291612Q15.0689 -0.0474718 14.5094 0.0745985Q13.9499 0.196669 13.3192 0.196669Q11.6035 0.196669 10.593 -0.881619Q9.58252 -1.95991 9.58252 -3.79096Q9.58252 -5.64914 10.6032 -6.71387Q11.6238 -7.77859 13.4006 -7.77859Q13.9771 -7.77859 14.5264 -7.65991Q15.0757 -7.54123 15.5911 -7.30387ZM22.1625 -6.42904Q21.9523 -6.55111 21.7048 -6.60875Q21.4572 -6.6664 21.1589 -6.6664Q20.1009 -6.6664 19.5346 -5.97805Q18.9684 -5.28971 18.9684 -4.00119L18.9684 0L17.7138 0L17.7138 -7.59549L18.9684 -7.59549L18.9684 -6.41547Q19.3617 -7.1072 19.9924 -7.4429Q20.6231 -7.77859 21.5251 -7.77859Q21.6539 -7.77859 21.8099 -7.76164Q21.9659 -7.74468 22.1558 -7.71077L22.1625 -6.42904ZM26.9233 -3.81809Q25.411 -3.81809 24.8277 -3.47222Q24.2445 -3.12636 24.2445 -2.29221Q24.2445 -1.6276 24.6819 -1.23766Q25.1194 -0.84771 25.8721 -0.847711Q26.9097 -0.847711 27.537 -1.58352Q28.1643 -2.31934 28.1643 -3.54004L28.1643 -3.81809L26.9233 -3.81809ZM29.4122 -4.3335L29.4122 0L28.1643 0L28.1643 -1.15289Q27.7371 -0.461155 27.0996 -0.132243Q26.4621 0.196669 25.5398 0.196669Q24.3734 0.196669 23.685 -0.457764Q22.9967 -1.1122 22.9967 -2.21083Q22.9967 -3.49257 23.8546 -4.14361Q24.7125 -4.79465 26.4147 -4.79465L28.1643 -4.79465L28.1643 -4.91672Q28.1643 -5.77799 27.5981 -6.24932Q27.0318 -6.72065 26.0078 -6.72065Q25.3567 -6.72065 24.7396 -6.56467Q24.1225 -6.40869 23.5528 -6.09673L23.5528 -7.24962Q24.2377 -7.51411 24.882 -7.64635Q25.5263 -7.77859 26.1366 -7.77859Q27.7846 -7.77859 28.5984 -6.9241Q29.4122 -6.06961 29.4122 -4.3335ZM33.2167 -9.75206L33.2167 -7.59549L35.7869 -7.59549L35.7869 -6.62571L33.2167 -6.62571L33.2167 -2.50244Q33.2167 -1.57335 33.471 -1.30887Q33.7253 -1.04438 34.5052 -1.04438L35.7869 -1.04438L35.7869 0L34.5052 0Q33.0607 0 32.5114 -0.539144Q31.9621 -1.07829 31.9621 -2.50244L31.9621 -6.62571L31.0466 -6.62571L31.0466 -7.59549L31.9621 -7.59549L31.9621 -9.75206L33.2167 -9.75206ZM42.8942 -7.30387L42.8942 -6.13742Q42.3652 -6.42904 41.8328 -6.57484Q41.3005 -6.72065 40.7579 -6.72065Q39.544 -6.72065 38.8726 -5.95093Q38.2012 -5.18121 38.2012 -3.79096Q38.2012 -2.40072 38.8726 -1.631Q39.544 -0.861274 40.7579 -0.861274Q41.3005 -0.861274 41.8328 -1.00708Q42.3652 -1.15289 42.8942 -1.4445L42.8942 -0.291612Q42.372 -0.0474718 41.8125 0.0745985Q41.253 0.196669 40.6223 0.196669Q38.9065 0.196669 37.8961 -0.881619Q36.8856 -1.95991 36.8856 -3.79096Q36.8856 -5.64914 37.9062 -6.71387Q38.9269 -7.77859 40.7037 -7.77859Q41.2801 -7.77859 41.8294 -7.65991Q42.3787 -7.54123 42.8942 -7.30387ZM51.378 -4.58442L51.378 0L50.1302 0L50.1302 -4.54373Q50.1302 -5.62202 49.7097 -6.15777Q49.2893 -6.69352 48.4484 -6.69352Q47.4379 -6.69352 46.8547 -6.04926Q46.2714 -5.405 46.2714 -4.29281L46.2714 0L45.0168 0L45.0168 -10.5523L46.2714 -10.5523L46.2714 -6.41547Q46.719 -7.10042 47.326 -7.43951Q47.9329 -7.77859 48.7264 -7.77859Q50.0353 -7.77859 50.7067 -6.96818Q51.378 -6.15777 51.378 -4.58442ZM60.3638 -4.1097L60.3638 -3.49935L54.6265 -3.49935Q54.7079 -2.21083 55.403 -1.53605Q56.0981 -0.861274 57.3391 -0.861274Q58.058 -0.861274 58.7328 -1.0376Q59.4076 -1.21392 60.0722 -1.56657L60.0722 -0.386556Q59.4008 -0.101725 58.6955 0.0474718Q57.9902 0.196669 57.2645 0.196669Q55.4471 0.196669 54.3857 -0.861274Q53.3244 -1.91922 53.3244 -3.72314Q53.3244 -5.58811 54.3315 -6.68335Q55.3385 -7.77859 57.0475 -7.77859Q58.5802 -7.77859 59.472 -6.79186Q60.3638 -5.80512 60.3638 -4.1097ZM59.1159 -4.47591Q59.1024 -5.49995 58.5429 -6.1103Q57.9834 -6.72065 57.0611 -6.72065Q56.0167 -6.72065 55.3894 -6.13064Q54.7621 -5.54064 54.6672 -4.46913L59.1159 -4.47591ZM67.254 -7.37169L67.254 -6.19168Q66.725 -6.46294 66.1553 -6.59858Q65.5857 -6.73421 64.9753 -6.73421Q64.0462 -6.73421 63.5817 -6.44938Q63.1171 -6.16455 63.1171 -5.59489Q63.1171 -5.16086 63.4494 -4.91333Q63.7817 -4.6658 64.7854 -4.442L65.2127 -4.34706Q66.5419 -4.06223 67.1014 -3.54343Q67.6609 -3.02463 67.6609 -2.09554Q67.6609 -1.0376 66.8233 -0.420464Q65.9858 0.196669 64.521 0.196669Q63.9106 0.196669 63.2494 0.0779894Q62.5882 -0.0406901 61.8557 -0.278049L61.8557 -1.56657Q62.5475 -1.20714 63.2189 -1.02743Q63.8903 -0.84771 64.5481 -0.847711Q65.4297 -0.847711 65.9044 -1.1495Q66.3791 -1.45128 66.3791 -2.0006Q66.3791 -2.50922 66.0367 -2.78049Q65.6942 -3.05176 64.5345 -3.30268L64.1005 -3.40441Q62.9408 -3.64855 62.4254 -4.15378Q61.91 -4.65902 61.91 -5.54064Q61.91 -6.61214 62.6695 -7.19537Q63.4291 -7.77859 64.8261 -7.77859Q65.5179 -7.77859 66.1282 -7.67687Q66.7386 -7.57514 67.254 -7.37169Z" fill="#262626" transform="translate(153.05882352941177,460) translate(-34.169517517089844,0)" />
<line x1="255.70588235294116" y1="444.6" x2="255.70588235294116" y2="449.8611111111111" stroke="#262626" stroke-width="1.1111111111111112" />
<path d="M2.73302 -8.9993L2.73302 -1.12576L4.38775 -1.12576Q6.48329 -1.12576 7.45646 -2.0752Q8.42963 -3.02463 8.42963 -5.0727Q8.42963 -7.1072 7.45646 -8.05325Q6.48329 -8.9993 4.38775 -8.9993L2.73302 -8.9993ZM1.36312 -10.1251L4.17752 -10.1251Q7.12077 -10.1251 8.49745 -8.90096Q9.87413 -7.67687 9.87413 -5.0727Q9.87413 -2.45497 8.49067 -1.22748Q7.1072 0 4.17752 0L1.36312 0L1.36312 -10.1251ZM18.5004 -4.1097L18.5004 -3.49935L12.7631 -3.49935Q12.8445 -2.21083 13.5396 -1.53605Q14.2348 -0.861274 15.4758 -0.861274Q16.1947 -0.861274 16.8694 -1.0376Q17.5442 -1.21392 18.2088 -1.56657L18.2088 -0.386556Q17.5374 -0.101725 16.8321 0.0474718Q16.1268 0.196669 15.4012 0.196669Q13.5837 0.196669 12.5224 -0.861274Q11.461 -1.91922 11.461 -3.72314Q11.461 -5.58811 12.4681 -6.68335Q13.4752 -7.77859 15.1842 -7.77859Q16.7169 -7.77859 17.6086 -6.79186Q18.5004 -5.80512 18.5004 -4.1097ZM17.2526 -4.47591Q17.239 -5.49995 16.6796 -6.1103Q16.1201 -6.72065 15.1978 -6.72065Q14.1534 -6.72065 13.5261 -6.13064Q12.8988 -5.54064 12.8038 -4.46913L17.2526 -4.47591ZM26.8623 -4.58442L26.8623 0L25.6144 0L25.6144 -4.54373Q25.6144 -5.62202 25.194 -6.15777Q24.7735 -6.69352 23.9326 -6.69352Q22.9221 -6.69352 22.3389 -6.04926Q21.7556 -5.405 21.7556 -4.29281L21.7556 0L20.501 0L20.501 -7.59549L21.7556 -7.59549L21.7556 -6.41547Q22.2032 -7.10042 22.8102 -7.43951Q23.4172 -7.77859 24.2106 -7.77859Q25.5195 -7.77859 26.1909 -6.96818Q26.8623 -6.15777 26.8623 -4.58442ZM30.5854 -9.75206L30.5854 -7.59549L33.1557 -7.59549L33.1557 -6.62571L30.5854 -6.62571L30.5854 -2.50244Q30.5854 -1.57335 30.8397 -1.30887Q31.094 -1.04438 31.8739 -1.04438L33.1557 -1.04438L33.1557 0L31.8739 0Q30.4294 0 29.8801 -0.539144Q29.3308 -1.07829 29.3308 -2.50244L29.3308 -6.62571L28.4153 -6.62571L28.4153 -7.59549L29.3308 -7.59549L29.3308 -9.75206L30.5854 -9.75206ZM39.6389 -7.37169L39.6389 -6.19168Q39.11 -6.46294 38.5403 -6.59858Q37.9707 -6.73421 37.3603 -6.73421Q36.4312 -6.73421 35.9667 -6.44938Q35.5021 -6.16455 35.5021 -5.59489Q35.5021 -5.16086 35.8344 -4.91333Q36.1667 -4.6658 37.1704 -4.442L37.5977 -4.34706Q38.9269 -4.06223 39.4864 -3.54343Q40.0458 -3.02463 40.0458 -2.09554Q40.0458 -1.0376 39.2083 -0.420464Q38.3708 0.196669 36.9059 0.196669Q36.2956 0.196669 35.6344 0.0779894Q34.9731 -0.0406901 34.2407 -0.278049L34.2407 -1.56657Q34.9325 -1.20714 35.6038 -1.02743Q36.2752 -0.84771 36.9331 -0.847711Q37.8147 -0.847711 38.2894 -1.1495Q38.7641 -1.45128 38.7641 -2.0006Q38.7641 -2.50922 38.4216 -2.78049Q38.0792 -3.05176 36.9195 -3.30268L36.4855 -3.40441Q35.3258 -3.64855 34.8104 -4.15378Q34.295 -4.65902 34.295 -5.54064Q34.295 -6.61214 35.0545 -7.19537Q35.8141 -7.77859 37.2111 -7.77859Q37.9028 -7.77859 38.5132 -7.67687Q39.1235 -7.57514 39.6389 -7.37169Z" fill="#262626" transform="translate(255.70588235294116,460) translate(-20.362009048461914,0)" />
<line x1="358.3529411764706" y1="444.6" x2="358.3529411764706" y2="449.8611111111111" stroke="#262626" stroke-width="1.1111111111111112" />
<path d="M8.94504 -9.34516L8.94504 -7.90066Q8.25331 -8.54492 7.47003 -8.86366Q6.68674 -9.1824 5.80512 -9.1824Q4.06901 -9.1824 3.1467 -8.12107Q2.22439 -7.05973 2.22439 -5.05235Q2.22439 -3.05176 3.1467 -1.99042Q4.06901 -0.929091 5.80512 -0.929091Q6.68674 -0.929091 7.47003 -1.24783Q8.25331 -1.56657 8.94504 -2.21083L8.94504 -0.779894Q8.22618 -0.291612 7.42255 -0.0474718Q6.61892 0.196669 5.72374 0.196669Q3.42475 0.196669 2.10232 -1.21053Q0.779894 -2.61773 0.779894 -5.05235Q0.779894 -7.49376 2.10232 -8.90096Q3.42475 -10.3082 5.72374 -10.3082Q6.63249 -10.3082 7.43612 -10.0674Q8.23975 -9.82666 8.94504 -9.34516ZM15.408 -6.42904Q15.1978 -6.55111 14.9502 -6.60875Q14.7027 -6.6664 14.4043 -6.6664Q13.3464 -6.6664 12.7801 -5.97805Q12.2138 -5.28971 12.2138 -4.00119L12.2138 0L10.9592 0L10.9592 -7.59549L12.2138 -7.59549L12.2138 -6.41547Q12.6072 -7.1072 13.2378 -7.4429Q13.8685 -7.77859 14.7705 -7.77859Q14.8994 -7.77859 15.0553 -7.76164Q15.2113 -7.74468 15.4012 -7.71077L15.408 -6.42904ZM20.1687 -3.81809Q18.6564 -3.81809 18.0732 -3.47222Q17.49 -3.12636 17.49 -2.29221Q17.49 -1.6276 17.9274 -1.23766Q18.3648 -0.84771 19.1176 -0.847711Q20.1552 -0.847711 20.7825 -1.58352Q21.4098 -2.31934 21.4098 -3.54004L21.4098 -3.81809L20.1687 -3.81809ZM22.6576 -4.3335L22.6576 0L21.4098 0L21.4098 -1.15289Q20.9825 -0.461155 20.3451 -0.132243Q19.7076 0.196669 18.7853 0.196669Q17.6188 0.196669 16.9305 -0.457764Q16.2421 -1.1122 16.2421 -2.21083Q16.2421 -3.49257 17.1 -4.14361Q17.9579 -4.79465 19.6601 -4.79465L21.4098 -4.79465L21.4098 -4.91672Q21.4098 -5.77799 20.8435 -6.24932Q20.2772 -6.72065 19.2532 -6.72065Q18.6022 -6.72065 17.985 -6.56467Q17.3679 -6.40869 16.7982 -6.09673L16.7982 -7.24962Q17.4832 -7.51411 18.1274 -7.64635Q18.7717 -7.77859 19.3821 -7.77859Q21.03 -7.77859 21.8438 -6.9241Q22.6576 -6.06961 22.6576 -4.3335ZM30.6939 -7.30387L30.6939 -6.13742Q30.1649 -6.42904 29.6326 -6.57484Q29.1002 -6.72065 28.5577 -6.72065Q27.3437 -6.72065 26.6724 -5.95093Q26.001 -5.18121 26.001 -3.79096Q26.001 -2.40072 26.6724 -1.631Q27.3438 -0.861274 28.5577 -0.861274Q29.1002 -0.861274 29.6326 -1.00708Q30.1649 -1.15289 30.6939 -1.4445L30.6939 -0.291612Q30.1717 -0.0474718 29.6122 0.0745985Q29.0527 0.196669 28.422 0.196669Q26.7063 0.196669 25.6958 -0.881619Q24.6853 -1.95991 24.6853 -3.79096Q24.6853 -5.64914 25.706 -6.71387Q26.7266 -7.77859 28.5034 -7.77859Q29.0799 -7.77859 29.6292 -7.65991Q30.1785 -7.54123 30.6939 -7.30387ZM32.8166 -10.5523L34.0712 -10.5523L34.0712 -4.31993L37.7943 -7.59549L39.388 -7.59549L35.3597 -4.04188L39.5576 0L37.93 0L34.0712 -3.70958L34.0712 0L32.8166 0L32.8166 -10.5523ZM45.7492 -7.37169L45.7492 -6.19168Q45.2203 -6.46294 44.6506 -6.59858Q44.0809 -6.73421 43.4706 -6.73421Q42.5415 -6.73421 42.077 -6.44938Q41.6124 -6.16455 41.6124 -5.59489Q41.6124 -5.16086 41.9447 -4.91333Q42.277 -4.6658 43.2807 -4.442L43.708 -4.34706Q45.0372 -4.06223 45.5966 -3.54343Q46.1561 -3.02463 46.1561 -2.09554Q46.1561 -1.0376 45.3186 -0.420464Q44.4811 0.196669 43.0162 0.196669Q42.4059 0.196669 41.7447 0.0779894Q41.0834 -0.0406901 40.351 -0.278049L40.351 -1.56657Q41.0428 -1.20714 41.7141 -1.02743Q42.3855 -0.84771 43.0433 -0.847711Q43.925 -0.847711 44.3997 -1.1495Q44.8744 -1.45128 44.8744 -2.0006Q44.8744 -2.50922 44.5319 -2.78049Q44.1895 -3.05176 43.0298 -3.30268L42.5958 -3.40441Q41.4361 -3.64855 40.9207 -4.15378Q40.4053 -4.65902 40.4053 -5.54064Q40.4053 -6.61214 41.1648 -7.19537Q41.9244 -7.77859 43.3214 -7.77859Q44.0131 -7.77859 44.6235 -7.67687Q45.2338 -7.57514 45.7492 -7.37169Z" fill="#262626" transform="translate(358.3529411764706,460) translate(-23.41715431213379,0)" />
<line x1="461" y1="444.6" x2="461" y2="449.8611111111111" stroke="#262626" stroke-width="1.1111111111111112" />
<path d="M7.43273 -9.79275L7.43273 -8.45676Q6.65283 -8.82975 5.9611 -9.01286Q5.26937 -9.19596 4.62511 -9.19596Q3.50613 -9.19596 2.89917 -8.76194Q2.29221 -8.32791 2.29221 -7.52767Q2.29221 -6.85628 2.69572 -6.51381Q3.09923 -6.17133 4.22499 -5.9611L5.05235 -5.79156Q6.58501 -5.49995 7.31405 -4.76413Q8.04308 -4.02832 8.04308 -2.79405Q8.04308 -1.32243 7.05634 -0.56288Q6.06961 0.196669 4.16395 0.196669Q3.4451 0.196669 2.63468 0.0339084Q1.82427 -0.128852 0.956217 -0.447591L0.956217 -1.85818Q1.79036 -1.39025 2.5906 -1.15289Q3.39084 -0.915527 4.16395 -0.915527Q5.33719 -0.915527 5.97466 -1.37668Q6.61214 -1.83784 6.61214 -2.69233Q6.61214 -3.43831 6.15438 -3.85878Q5.69661 -4.27924 4.65224 -4.48947L3.81809 -4.65224Q2.28543 -4.95741 1.60048 -5.60845Q0.915527 -6.25949 0.915527 -7.41916Q0.915527 -8.76194 1.86157 -9.53505Q2.80762 -10.3082 4.46913 -10.3082Q5.18121 -10.3082 5.92041 -10.1793Q6.65961 -10.0505 7.43273 -9.79275ZM11.3593 -9.75206L11.3593 -7.59549L13.9296 -7.59549L13.9296 -6.62571L11.3593 -6.62571L11.3593 -2.50244Q11.3593 -1.57335 11.6136 -1.30887Q11.8679 -1.04438 12.6478 -1.04438L13.9296 -1.04438L13.9296 0L12.6478 0Q11.2033 0 10.654 -0.539144Q10.1047 -1.07829 10.1047 -2.50244L10.1047 -6.62571L9.18918 -6.62571L9.18918 -7.59549L10.1047 -7.59549L10.1047 -9.75206L11.3593 -9.75206ZM19.0226 -3.81809Q17.5103 -3.81809 16.9271 -3.47222Q16.3439 -3.12636 16.3439 -2.29221Q16.3439 -1.6276 16.7813 -1.23766Q17.2187 -0.84771 17.9715 -0.847711Q19.0091 -0.847711 19.6364 -1.58352Q20.2637 -2.31934 20.2637 -3.54004L20.2637 -3.81809L19.0226 -3.81809ZM21.5115 -4.3335L21.5115 0L20.2637 0L20.2637 -1.15289Q19.8364 -0.461155 19.1989 -0.132243Q18.5615 0.196669 17.6392 0.196669Q16.4727 0.196669 15.7844 -0.457764Q15.096 -1.1122 15.096 -2.21083Q15.096 -3.49257 15.9539 -4.14361Q16.8118 -4.79465 18.514 -4.79465L20.2637 -4.79465L20.2637 -4.91672Q20.2637 -5.77799 19.6974 -6.24932Q19.1311 -6.72065 18.1071 -6.72065Q17.4561 -6.72065 16.8389 -6.56467Q16.2218 -6.40869 15.6521 -6.09673L15.6521 -7.24962Q16.3371 -7.51411 16.9813 -7.64635Q17.6256 -7.77859 18.236 -7.77859Q19.8839 -7.77859 20.6977 -6.9241Q21.5115 -6.06961 21.5115 -4.3335ZM24.0818 -7.59549L25.3296 -7.59549L25.3296 0L24.0818 0L24.0818 -7.59549ZM24.0818 -10.5523L25.3296 -10.5523L25.3296 -8.97217L24.0818 -8.97217L24.0818 -10.5523ZM34.2543 -4.58442L34.2543 0L33.0065 0L33.0065 -4.54373Q33.0065 -5.62202 32.586 -6.15777Q32.1655 -6.69352 31.3246 -6.69352Q30.3141 -6.69352 29.7309 -6.04926Q29.1477 -5.405 29.1477 -4.29281L29.1477 0L27.8931 0L27.8931 -7.59549L29.1477 -7.59549L29.1477 -6.41547Q29.5953 -7.10042 30.2022 -7.43951Q30.8092 -7.77859 31.6026 -7.77859Q32.9115 -7.77859 33.5829 -6.96818Q34.2543 -6.15777 34.2543 -4.58442ZM41.5853 -7.37169L41.5853 -6.19168Q41.0563 -6.46294 40.4867 -6.59858Q39.917 -6.73421 39.3066 -6.73421Q38.3776 -6.73421 37.913 -6.44938Q37.4485 -6.16455 37.4485 -5.59489Q37.4485 -5.16086 37.7808 -4.91333Q38.1131 -4.6658 39.1168 -4.442L39.544 -4.34706Q40.8732 -4.06223 41.4327 -3.54343Q41.9922 -3.02463 41.9922 -2.09554Q41.9922 -1.0376 41.1547 -0.420464Q40.3171 0.196669 38.8523 0.196669Q38.2419 0.196669 37.5807 0.0779894Q36.9195 -0.0406901 36.1871 -0.278049L36.1871 -1.56657Q36.8788 -1.20714 37.5502 -1.02743Q38.2216 -0.84771 38.8794 -0.847711Q39.761 -0.847711 40.2357 -1.1495Q40.7104 -1.45128 40.7104 -2.0006Q40.7104 -2.50922 40.368 -2.78049Q40.0255 -3.05176 38.8658 -3.30268L38.4318 -3.40441Q37.2721 -3.64855 36.7567 -4.15378Q36.2413 -4.65902 36.2413 -5.54064Q36.2413 -6.61214 37.0009 -7.19537Q37.7604 -7.77859 39.1574 -7.77859Q39.8492 -7.77859 40.4595 -7.67687Q41.0699 -7.57514 41.5853 -7.37169Z" fill="#262626" transform="translate(461,460) translate(-21.33517837524414,0)" />
<line x1="563.6470588235294" y1="444.6" x2="563.6470588235294" y2="449.8611111111111" stroke="#262626" stroke-width="1.1111111111111112" />
<path d="M2.73302 -4.83534L2.73302 -1.12576L4.93028 -1.12576Q6.0357 -1.12576 6.56806 -1.58352Q7.10042 -2.04129 7.10042 -2.98394Q7.10042 -3.93338 6.56806 -4.38436Q6.0357 -4.83534 4.93028 -4.83534L2.73302 -4.83534ZM2.73302 -8.9993L2.73302 -5.94754L4.76074 -5.94754Q5.76443 -5.94754 6.2561 -6.32392Q6.74778 -6.7003 6.74778 -7.47342Q6.74778 -8.23975 6.2561 -8.61952Q5.76443 -8.99929 4.76074 -8.9993L2.73302 -8.9993ZM1.36312 -10.1251L4.86247 -10.1251Q6.42904 -10.1251 7.27675 -9.47401Q8.12446 -8.82297 8.12446 -7.62261Q8.12446 -6.69352 7.69043 -6.14421Q7.2564 -5.59489 6.41547 -5.45926Q7.42594 -5.24224 7.98543 -4.5539Q8.54492 -3.86556 8.54492 -2.83474Q8.54492 -1.47841 7.62261 -0.739204Q6.7003 0 4.9981 0L1.36312 0L1.36312 -10.1251ZM15.2384 -6.42904Q15.0282 -6.55111 14.7807 -6.60875Q14.5331 -6.6664 14.2348 -6.6664Q13.1768 -6.6664 12.6105 -5.97805Q12.0443 -5.28971 12.0443 -4.00119L12.0443 0L10.7897 0L10.7897 -7.59549L12.0443 -7.59549L12.0443 -6.41547Q12.4376 -7.1072 13.0683 -7.4429Q13.699 -7.77859 14.601 -7.77859Q14.7298 -7.77859 14.8858 -7.76164Q15.0418 -7.74468 15.2317 -7.71077L15.2384 -6.42904ZM23.0442 -4.1097L23.0442 -3.49935L17.3069 -3.49935Q17.3882 -2.21083 18.0834 -1.53605Q18.7785 -0.861274 20.0195 -0.861274Q20.7384 -0.861274 21.4132 -1.0376Q22.0879 -1.21392 22.7526 -1.56657L22.7526 -0.386556Q22.0812 -0.101725 21.3759 0.0474718Q20.6706 0.196669 19.9449 0.196669Q18.1274 0.196669 17.0661 -0.861274Q16.0048 -1.91922 16.0048 -3.72314Q16.0048 -5.58811 17.0119 -6.68335Q18.0189 -7.77859 19.7279 -7.77859Q21.2606 -7.77859 22.1524 -6.79186Q23.0442 -5.80512 23.0442 -4.1097ZM21.7963 -4.47591Q21.7828 -5.49995 21.2233 -6.1103Q20.6638 -6.72065 19.7415 -6.72065Q18.6971 -6.72065 18.0698 -6.13064Q17.4425 -5.54064 17.3475 -4.46913L21.7963 -4.47591ZM28.5441 -3.81809Q27.0318 -3.81809 26.4486 -3.47222Q25.8653 -3.12636 25.8653 -2.29221Q25.8653 -1.6276 26.3028 -1.23766Q26.7402 -0.84771 27.4929 -0.847711Q28.5305 -0.847711 29.1579 -1.58352Q29.7852 -2.31934 29.7852 -3.54004L29.7852 -3.81809L28.5441 -3.81809ZM31.033 -4.3335L31.033 0L29.7852 0L29.7852 -1.15289Q29.3579 -0.461155 28.7204 -0.132243Q28.083 0.196669 27.1606 0.196669Q25.9942 0.196669 25.3059 -0.457764Q24.6175 -1.1122 24.6175 -2.21083Q24.6175 -3.49257 25.4754 -4.14361Q26.3333 -4.79465 28.0355 -4.79465L29.7852 -4.79465L29.7852 -4.91672Q29.7852 -5.77799 29.2189 -6.24932Q28.6526 -6.72065 27.6286 -6.72065Q26.9775 -6.72065 26.3604 -6.56467Q25.7433 -6.40869 25.1736 -6.09673L25.1736 -7.24962Q25.8586 -7.51411 26.5028 -7.64635Q27.1471 -7.77859 27.7574 -7.77859Q29.4054 -7.77859 30.2192 -6.9241Q31.033 -6.06961 31.033 -4.3335ZM33.5558 -10.5523L34.8104 -10.5523L34.8104 -4.31993L38.5335 -7.59549L40.1272 -7.59549L36.0989 -4.04188L40.2968 0L38.6692 0L34.8104 -3.70958L34.8104 0L33.5558 0L33.5558 -10.5523ZM46.4884 -7.37169L46.4884 -6.19168Q45.9595 -6.46294 45.3898 -6.59858Q44.8201 -6.73421 44.2098 -6.73421Q43.2807 -6.73421 42.8162 -6.44938Q42.3516 -6.16455 42.3516 -5.59489Q42.3516 -5.16086 42.6839 -4.91333Q43.0162 -4.6658 44.0199 -4.442L44.4472 -4.34706Q45.7764 -4.06223 46.3359 -3.54343Q46.8953 -3.02463 46.8953 -2.09554Q46.8953 -1.0376 46.0578 -0.420464Q45.2203 0.196669 43.7554 0.196669Q43.1451 0.196669 42.4839 0.0779894Q41.8226 -0.0406901 41.0902 -0.278049L41.0902 -1.56657Q41.782 -1.20714 42.4533 -1.02743Q43.1247 -0.84771 43.7826 -0.847711Q44.6642 -0.847711 45.1389 -1.1495Q45.6136 -1.45128 45.6136 -2.0006Q45.6136 -2.50922 45.2711 -2.78049Q44.9287 -3.05176 43.769 -3.30268L43.335 -3.40441Q42.1753 -3.64855 41.6599 -4.15378Q41.1445 -4.65902 41.1445 -5.54064Q41.1445 -6.61214 41.904 -7.19537Q42.6636 -7.77859 44.0606 -7.77859Q44.7523 -7.77859 45.3627 -7.67687Q45.973 -7.57514 46.4884 -7.37169Z" fill="#262626" transform="translate(563.6470588235294,460) translate(-23.78675651550293,0)" />
<line x1="666.2941176470588" y1="444.6" x2="666.2941176470588" y2="449.8611111111111" stroke="#262626" stroke-width="1.1111111111111112" />
<path d="M1.36312 -10.1251L3.40441 -10.1251L5.98823 -3.23486L8.58561 -10.1251L10.6269 -10.1251L10.6269 0L9.29091 0L9.29091 -8.89079L6.67996 -1.94634L5.30328 -1.94634L2.69233 -8.89079L2.69233 0L1.36312 0L1.36312 -10.1251ZM13.2921 -7.59549L14.5399 -7.59549L14.5399 0L13.2921 0L13.2921 -7.59549ZM13.2921 -10.5523L14.5399 -10.5523L14.5399 -8.97217L13.2921 -8.97217L13.2921 -10.5523ZM21.993 -7.37169L21.993 -6.19168Q21.464 -6.46294 20.8944 -6.59858Q20.3247 -6.73421 19.7144 -6.73421Q18.7853 -6.73421 18.3207 -6.44938Q17.8562 -6.16455 17.8562 -5.59489Q17.8562 -5.16086 18.1885 -4.91333Q18.5208 -4.6658 19.5245 -4.442L19.9517 -4.34706Q21.2809 -4.06223 21.8404 -3.54343Q22.3999 -3.02463 22.3999 -2.09554Q22.3999 -1.0376 21.5624 -0.420464Q20.7248 0.196669 19.26 0.196669Q18.6496 0.196669 17.9884 0.0779894Q17.3272 -0.0406901 16.5948 -0.278049L16.5948 -1.56657Q17.2865 -1.20714 17.9579 -1.02743Q18.6293 -0.84771 19.2871 -0.847711Q20.1687 -0.847711 20.6434 -1.1495Q21.1182 -1.45128 21.1182 -2.0006Q21.1182 -2.50922 20.7757 -2.78049Q20.4332 -3.05176 19.2735 -3.30268L18.8395 -3.40441Q17.6799 -3.64855 17.1644 -4.15378Q16.649 -4.65902 16.649 -5.54064Q16.649 -6.61214 17.4086 -7.19537Q18.1681 -7.77859 19.5652 -7.77859Q20.2569 -7.77859 20.8672 -7.67687Q21.4776 -7.57514 21.993 -7.37169ZM29.2291 -7.37169L29.2291 -6.19168Q28.7001 -6.46294 28.1304 -6.59858Q27.5608 -6.73421 26.9504 -6.73421Q26.0213 -6.73421 25.5568 -6.44938Q25.0922 -6.16455 25.0922 -5.59489Q25.0922 -5.16086 25.4245 -4.91333Q25.7568 -4.6658 26.7605 -4.442L27.1878 -4.34706Q28.517 -4.06223 29.0765 -3.54343Q29.636 -3.02463 29.636 -2.09554Q29.636 -1.0376 28.7984 -0.420464Q27.9609 0.196669 26.496 0.196669Q25.8857 0.196669 25.2245 0.0779894Q24.5633 -0.0406901 23.8308 -0.278049L23.8308 -1.56657Q24.5226 -1.20714 25.194 -1.02743Q25.8653 -0.84771 26.5232 -0.847711Q27.4048 -0.847711 27.8795 -1.1495Q28.3542 -1.45128 28.3542 -2.0006Q28.3542 -2.50922 28.0117 -2.78049Q27.6693 -3.05176 26.5096 -3.30268L26.0756 -3.40441Q24.9159 -3.64855 24.4005 -4.15378Q23.8851 -4.65902 23.8851 -5.54064Q23.8851 -6.61214 24.6446 -7.19537Q25.4042 -7.77859 26.8012 -7.77859Q27.4929 -7.77859 28.1033 -7.67687Q28.7136 -7.57514 29.2291 -7.37169ZM31.623 -7.59549L32.8708 -7.59549L32.8708 0L31.623 0L31.623 -7.59549ZM31.623 -10.5523L32.8708 -10.5523L32.8708 -8.97217L31.623 -8.97217L31.623 -10.5523ZM41.7955 -4.58442L41.7955 0L40.5477 0L40.5477 -4.54373Q40.5477 -5.62202 40.1272 -6.15777Q39.7068 -6.69352 38.8658 -6.69352Q37.8554 -6.69352 37.2721 -6.04926Q36.6889 -5.405 36.6889 -4.29281L36.6889 0L35.4343 0L35.4343 -7.59549L36.6889 -7.59549L36.6889 -6.41547Q37.1365 -7.10042 37.7435 -7.43951Q38.3504 -7.77859 39.1439 -7.77859Q40.4527 -7.77859 41.1241 -6.96818Q41.7955 -6.15777 41.7955 -4.58442ZM49.2825 -3.88591Q49.2825 -5.24224 48.723 -5.98823Q48.1635 -6.73421 47.1531 -6.73421Q46.1494 -6.73421 45.5899 -5.98823Q45.0304 -5.24224 45.0304 -3.88591Q45.0304 -2.53635 45.5899 -1.79036Q46.1494 -1.04438 47.1531 -1.04438Q48.1635 -1.04438 48.723 -1.79036Q49.2825 -2.53635 49.2825 -3.88591ZM50.5303 -0.942654Q50.5303 0.996908 49.6691 1.94295Q48.8078 2.889 47.031 2.889Q46.3732 2.889 45.7899 2.79066Q45.2067 2.69233 44.6574 2.48888L44.6574 1.27496Q45.2067 1.57335 45.7425 1.71577Q46.2782 1.85818 46.8343 1.85818Q48.0618 1.85818 48.6721 1.21731Q49.2825 0.576443 49.2825 -0.718859L49.2825 -1.33599Q48.8959 -0.664605 48.2924 -0.332303C47.89 -0.110768 47.4085 0 46.8479 0Q45.4509 0 44.5964 -1.06472Q43.7419 -2.12945 43.7419 -3.88591Q43.7419 -5.64914 44.5964 -6.71387Q45.4509 -7.77859 46.8479 -7.77859Q47.6888 -7.77859 48.2924 -7.44629Q48.8959 -7.11399 49.2825 -6.4426L49.2825 -7.59549L50.5303 -7.59549L50.5303 -0.942654Z" fill="#262626" transform="translate(666.2941176470588,460) translate(-25.895862579345703,0)" />
<line x1="768.9411764705882" y1="444.6" x2="768.9411764705882" y2="449.8611111111111" stroke="#262626" stroke-width="1.1111111111111112" />
<path d="M0.461155 -10.1251L1.84462 -10.1251L3.97407 -1.56657L6.09673 -10.1251L7.63618 -10.1251L9.76563 -1.56657L11.8883 -10.1251L13.2785 -10.1251L10.7354 0L9.01286 0L6.87663 -8.78906L4.72005 0L2.9975 0L0.461155 -10.1251ZM18.4937 -3.81809Q16.9813 -3.81809 16.3981 -3.47222Q15.8149 -3.12636 15.8149 -2.29221Q15.8149 -1.6276 16.2523 -1.23766Q16.6897 -0.84771 17.4425 -0.847711Q18.4801 -0.847711 19.1074 -1.58352Q19.7347 -2.31934 19.7347 -3.54004L19.7347 -3.81809L18.4937 -3.81809ZM20.9825 -4.3335L20.9825 0L19.7347 0L19.7347 -1.15289Q19.3075 -0.461155 18.67 -0.132243Q18.0325 0.196669 17.1102 0.196669Q15.9437 0.196669 15.2554 -0.457764Q14.5671 -1.1122 14.5671 -2.21083Q14.5671 -3.49257 15.4249 -4.14361Q16.2828 -4.79465 17.985 -4.79465L19.7347 -4.79465L19.7347 -4.91672Q19.7347 -5.77799 19.1684 -6.24932Q18.6022 -6.72065 17.5781 -6.72065Q16.9271 -6.72065 16.3099 -6.56467Q15.6928 -6.40869 15.1232 -6.09673L15.1232 -7.24962Q15.8081 -7.51411 16.4524 -7.64635Q17.0966 -7.77859 17.707 -7.77859Q19.3549 -7.77859 20.1687 -6.9241Q20.9825 -6.06961 20.9825 -4.3335ZM27.9541 -6.42904Q27.7439 -6.55111 27.4963 -6.60875Q27.2488 -6.6664 26.9504 -6.6664Q25.8925 -6.6664 25.3262 -5.97805Q24.7599 -5.28971 24.7599 -4.00119L24.7599 0L23.5053 0L23.5053 -7.59549L24.7599 -7.59549L24.7599 -6.41547Q25.1533 -7.1072 25.784 -7.4429Q26.4147 -7.77859 27.3166 -7.77859Q27.4455 -7.77859 27.6015 -7.76164Q27.7574 -7.74468 27.9473 -7.71077L27.9541 -6.42904ZM30.4701 -1.13932L30.4701 2.889L29.2155 2.889L29.2155 -7.59549L30.4701 -7.59549L30.4701 -6.4426Q30.8634 -7.12077 31.4636 -7.44968Q32.0638 -7.77859 32.8979 -7.77859Q34.2814 -7.77859 35.1461 -6.67996Q36.0107 -5.58133 36.0107 -3.79096Q36.0107 -2.0006 35.1461 -0.901964Q34.2814 0.196669 32.8979 0.196669Q32.0638 0.196669 31.4636 -0.132243Q30.8634 -0.461155 30.4701 -1.13932ZM34.7154 -3.79096Q34.7154 -5.16764 34.1492 -5.95093Q33.5829 -6.73421 32.5928 -6.73421Q31.6026 -6.73421 31.0364 -5.95093Q30.4701 -5.16764 30.4701 -3.79096Q30.4701 -2.41428 31.0364 -1.631Q31.6026 -0.847711 32.5928 -0.847711Q33.5829 -0.847711 34.1492 -1.631Q34.7154 -2.41428 34.7154 -3.79096Z" fill="#262626" transform="translate(768.9411764705882,460) translate(-18.38514518737793,0)" />
<line x1="107.13888888888889" y1="445" x2="112.4" y2="445" stroke="#262626" stroke-width="1.1111111111111112" />
<path d="M4.41488 -9.22309Q3.35693 -9.22309 2.82457 -8.1821Q2.29221 -7.14111 2.29221 -5.05235Q2.29221 -2.97038 2.82457 -1.92939Q3.35693 -0.888401 4.41488 -0.888401Q5.4796 -0.888401 6.01196 -1.92939Q6.54433 -2.97038 6.54433 -5.05235Q6.54433 -7.14111 6.01196 -8.1821Q5.4796 -9.22309 4.41488 -9.22309ZM4.41488 -10.3082Q6.11708 -10.3082 7.01565 -8.962Q7.91422 -7.61583 7.91423 -5.05235Q7.91423 -2.49566 7.01565 -1.1495Q6.11708 0.196669 4.41488 0.196669Q2.71267 0.196669 1.8141 -1.1495Q0.915527 -2.49566 0.915527 -5.05235Q0.915527 -7.61583 1.8141 -8.962Q2.71267 -10.3082 4.41488 -10.3082Z" fill="#262626" transform="translate(102.27777777777777,449) translate(-8.83653450012207,0)" />
<line x1="107.13888888888889" y1="393.3568075117371" x2="112.4" y2="393.3568075117371" stroke="#262626" stroke-width="1.1111111111111112" />
<path d="M2.6652 -1.15289L7.44629 -1.15289L7.44629 0L1.01725 0L1.01725 -1.15289Q1.79715 -1.95991 3.14331 -3.31963Q4.48947 -4.67936 4.83534 -5.0727Q5.49316 -5.8119 5.75426 -6.32392Q6.01535 -6.83594 6.01535 -7.331Q6.01535 -8.13802 5.44908 -8.64665Q4.88281 -9.15527 3.97407 -9.15527Q3.32981 -9.15527 2.61434 -8.93148Q1.89887 -8.70768 1.08507 -8.25331L1.08507 -9.63677Q1.91243 -9.96908 2.63129 -10.1386Q3.35015 -10.3082 3.94694 -10.3082Q5.52029 -10.3082 6.45616 -9.52148Q7.39204 -8.73481 7.39204 -7.41916Q7.39204 -6.79525 7.15807 -6.23576Q6.9241 -5.67627 6.30697 -4.91672Q6.13742 -4.72005 5.22868 -3.78079Q4.31993 -2.84153 2.6652 -1.15289ZM13.2514 -9.22309Q12.1935 -9.22309 11.6611 -8.1821Q11.1287 -7.14111 11.1287 -5.05235Q11.1287 -2.97038 11.6611 -1.92939Q12.1935 -0.888401 13.2514 -0.888401Q14.3161 -0.888401 14.8485 -1.92939Q15.3809 -2.97038 15.3809 -5.05235Q15.3809 -7.14111 14.8485 -8.1821Q14.3161 -9.22309 13.2514 -9.22309ZM13.2514 -10.3082Q14.9536 -10.3082 15.8522 -8.962Q16.7508 -7.61583 16.7508 -5.05235Q16.7508 -2.49566 15.8522 -1.1495Q14.9536 0.196669 13.2514 0.196669Q11.5492 0.196669 10.6506 -1.1495Q9.75206 -2.49566 9.75206 -5.05235Q9.75206 -7.61583 10.6506 -8.962Q11.5492 -10.3082 13.2514 -10.3082Z" fill="#262626" transform="translate(102.27777777777777,397.3568075117371) translate(-17.67306900024414,0)" />
<line x1="107.13888888888889" y1="341.7136150234742" x2="112.4" y2="341.7136150234742" stroke="#262626" stroke-width="1.1111111111111112" />
<path d="M5.24902 -8.93148L1.79036 -3.52648L5.24902 -3.52648L5.24902 -8.93148ZM4.88959 -10.1251L6.61214 -10.1251L6.61214 -3.52648L8.05664 -3.52648L8.05664 -2.38715L6.61214 -2.38715L6.61214 0L5.24902 0L5.24902 -2.38715L0.678168 -2.38715L0.678168 -3.70958L4.88959 -10.1251ZM13.2514 -9.22309Q12.1935 -9.22309 11.6611 -8.1821Q11.1287 -7.14111 11.1287 -5.05235Q11.1287 -2.97038 11.6611 -1.92939Q12.1935 -0.888401 13.2514 -0.888401Q14.3161 -0.888401 14.8485 -1.92939Q15.3809 -2.97038 15.3809 -5.05235Q15.3809 -7.14111 14.8485 -8.1821Q14.3161 -9.22309 13.2514 -9.22309ZM13.2514 -10.3082Q14.9536 -10.3082 15.8522 -8.962Q16.7508 -7.61583 16.7508 -5.05235Q16.7508 -2.49566 15.8522 -1.1495Q14.9536 0.196669 13.2514 0.196669Q11.5492 0.196669 10.6506 -1.1495Q9.75206 -2.49566 9.75206 -5.05235Q9.75206 -7.61583 10.6506 -8.962Q11.5492 -10.3082 13.2514 -10.3082Z" fill="#262626" transform="translate(102.27777777777777,345.7136150234742) translate(-17.67306900024414,0)" />
<line x1="107.13888888888889" y1="290.07042253521126" x2="112.4" y2="290.07042253521126" stroke="#262626" stroke-width="1.1111111111111112" />
<path d="M4.58442 -5.60845Q3.66211 -5.60845 3.12297 -4.97776Q2.58382 -4.34706 2.58382 -3.24843Q2.58382 -2.15658 3.12297 -1.52249Q3.66211 -0.888401 4.58442 -0.888401Q5.50673 -0.888401 6.04587 -1.52249Q6.58502 -2.15658 6.58502 -3.24843Q6.58502 -4.34706 6.04587 -4.97776Q5.50673 -5.60845 4.58442 -5.60845ZM7.30387 -9.90126L7.30387 -8.65343Q6.78847 -8.89757 6.26289 -9.02642Q5.7373 -9.15527 5.2219 -9.15527Q3.86556 -9.15527 3.15009 -8.23975Q2.43462 -7.32422 2.3329 -5.47282Q2.73302 -6.06282 3.33659 -6.37817Q3.94016 -6.69352 4.6658 -6.69352Q6.19168 -6.69352 7.07669 -5.76782Q7.9617 -4.84212 7.9617 -3.24843Q7.9617 -1.68864 7.03939 -0.745985Q6.11708 0.196669 4.58442 0.196669Q2.82796 0.196669 1.89887 -1.1495Q0.969781 -2.49566 0.969781 -5.05235Q0.969781 -7.45307 2.1091 -8.88062Q3.24843 -10.3082 5.16764 -10.3082Q5.68305 -10.3082 6.20863 -10.2064Q6.73421 -10.1047 7.30387 -9.90126ZM13.2514 -9.22309Q12.1935 -9.22309 11.6611 -8.1821Q11.1287 -7.14111 11.1287 -5.05235Q11.1287 -2.97038 11.6611 -1.92939Q12.1935 -0.888401 13.2514 -0.888401Q14.3161 -0.888401 14.8485 -1.92939Q15.3809 -2.97038 15.3809 -5.05235Q15.3809 -7.14111 14.8485 -8.1821Q14.3161 -9.22309 13.2514 -9.22309ZM13.2514 -10.3082Q14.9536 -10.3082 15.8522 -8.962Q16.7508 -7.61583 16.7508 -5.05235Q16.7508 -2.49566 15.8522 -1.1495Q14.9536 0.196669 13.2514 0.196669Q11.5492 0.196669 10.6506 -1.1495Q9.75206 -2.49566 9.75206 -5.05235Q9.75206 -7.61583 10.6506 -8.962Q11.5492 -10.3082 13.2514 -10.3082Z" fill="#262626" transform="translate(102.27777777777777,294.07042253521126) translate(-17.67306900024414,0)" />
<line x1="107.13888888888889" y1="238.42723004694835" x2="112.4" y2="238.42723004694835" stroke="#262626" stroke-width="1.1111111111111112" />
<path d="M4.41488 -4.80821Q3.43831 -4.80821 2.87882 -4.28602Q2.31934 -3.76383 2.31934 -2.84831Q2.31934 -1.93278 2.87882 -1.41059Q3.43831 -0.888401 4.41488 -0.888401Q5.39144 -0.888401 5.95432 -1.41398Q6.5172 -1.93956 6.5172 -2.84831Q6.5172 -3.76383 5.95771 -4.28602Q5.39822 -4.80821 4.41488 -4.80821ZM3.04498 -5.39144Q2.16336 -5.60845 1.67169 -6.21202Q1.18001 -6.81559 1.18001 -7.68365Q1.18001 -8.89757 2.04468 -9.60287Q2.90934 -10.3082 4.41488 -10.3082Q5.92719 -10.3082 6.78847 -9.60287Q7.64974 -8.89757 7.64974 -7.68365Q7.64974 -6.81559 7.15807 -6.21202Q6.6664 -5.60845 5.79156 -5.39144Q6.78168 -5.16086 7.33439 -4.48947Q7.8871 -3.81809 7.8871 -2.84831Q7.8871 -1.37668 6.98853 -0.590007Q6.08995 0.196669 4.41488 0.196669Q2.7398 0.196669 1.84123 -0.590007Q0.942654 -1.37668 0.942654 -2.84831Q0.942654 -3.81809 1.49875 -4.48947Q2.05485 -5.16086 3.04498 -5.39144ZM2.54313 -7.5548Q2.54313 -6.76812 3.0348 -6.32731Q3.52648 -5.8865 4.41488 -5.8865Q5.29649 -5.8865 5.79495 -6.32731Q6.2934 -6.76812 6.2934 -7.5548Q6.2934 -8.34147 5.79495 -8.78228Q5.2965 -9.22309 4.41488 -9.22309Q3.52648 -9.22309 3.0348 -8.78228Q2.54313 -8.34147 2.54313 -7.5548ZM13.2514 -9.22309Q12.1935 -9.22309 11.6611 -8.1821Q11.1287 -7.14111 11.1287 -5.05235Q11.1287 -2.97038 11.6611 -1.92939Q12.1935 -0.888401 13.2514 -0.888401Q14.3161 -0.888401 14.8485 -1.92939Q15.3809 -2.97038 15.3809 -5.05235Q15.3809 -7.14111 14.8485 -8.1821Q14.3161 -9.22309 13.2514 -9.22309ZM13.2514 -10.3082Q14.9536 -10.3082 15.8522 -8.962Q16.7508 -7.61583 16.7508 -5.05235Q16.7508 -2.49566 15.8522 -1.1495Q14.9536 0.196669 13.2514 0.196669Q11.5492 0.196669 10.6506 -1.1495Q9.75206 -2.49566 9.75206 -5.05235Q9.75206 -7.61583 10.6506 -8.962Q11.5492 -10.3082 13.2514 -10.3082Z" fill="#262626" transform="translate(102.27777777777777,242.42723004694835) translate(-17.67306900024414,0)" />
<line x1="107.13888888888889" y1="186.78403755868544" x2="112.4" y2="186.78403755868544" stroke="#262626" stroke-width="1.1111111111111112" />
<path d="M1.72255 -1.15289L3.9605 -1.15289L3.9605 -8.87722L1.52588 -8.38894L1.52588 -9.63677L3.94694 -10.1251L5.31684 -10.1251L5.31684 -1.15289L7.5548 -1.15289L7.5548 0L1.72255 0L1.72255 -1.15289ZM13.2514 -9.22309Q12.1935 -9.22309 11.6611 -8.1821Q11.1287 -7.14111 11.1287 -5.05235Q11.1287 -2.97038 11.6611 -1.92939Q12.1935 -0.888401 13.2514 -0.888401Q14.3161 -0.888401 14.8485 -1.92939Q15.3809 -2.97038 15.3809 -5.05235Q15.3809 -7.14111 14.8485 -8.1821Q14.3161 -9.22309 13.2514 -9.22309ZM13.2514 -10.3082Q14.9536 -10.3082 15.8522 -8.962Q16.7508 -7.61583 16.7508 -5.05235Q16.7508 -2.49566 15.8522 -1.1495Q14.9536 0.196669 13.2514 0.196669Q11.5492 0.196669 10.6506 -1.1495Q9.75206 -2.49566 9.75206 -5.05235Q9.75206 -7.61583 10.6506 -8.962Q11.5492 -10.3082 13.2514 -10.3082ZM22.0879 -9.22309Q21.03 -9.22309 20.4976 -8.1821Q19.9653 -7.14111 19.9653 -5.05235Q19.9653 -2.97038 20.4976 -1.92939Q21.03 -0.888401 22.0879 -0.888401Q23.1527 -0.888401 23.685 -1.92939Q24.2174 -2.97038 24.2174 -5.05235Q24.2174 -7.14111 23.685 -8.1821Q23.1527 -9.22309 22.0879 -9.22309ZM22.0879 -10.3082Q23.7901 -10.3082 24.6887 -8.962Q25.5873 -7.61583 25.5873 -5.05235Q25.5873 -2.49566 24.6887 -1.1495Q23.7901 0.196669 22.0879 0.196669Q20.3857 0.196669 19.4872 -1.1495Q18.5886 -2.49566 18.5886 -5.05235Q18.5886 -7.61583 19.4872 -8.962Q20.3857 -10.3082 22.0879 -10.3082Z" fill="#262626" transform="translate(102.27777777777777,190.78403755868544) translate(-26.50960350036621,0)" />
<line x1="107.13888888888889" y1="135.14084507042253" x2="112.4" y2="135.14084507042253" stroke="#262626" stroke-width="1.1111111111111112" />
<path d="M1.72255 -1.15289L3.9605 -1.15289L3.9605 -8.87722L1.52588 -8.38894L1.52588 -9.63677L3.94694 -10.1251L5.31684 -10.1251L5.31684 -1.15289L7.5548 -1.15289L7.5548 0L1.72255 0L1.72255 -1.15289ZM11.5017 -1.15289L16.2828 -1.15289L16.2828 0L9.85379 0L9.85379 -1.15289Q10.6337 -1.95991 11.9798 -3.31963Q13.326 -4.67936 13.6719 -5.0727Q14.3297 -5.8119 14.5908 -6.32392Q14.8519 -6.83594 14.8519 -7.331Q14.8519 -8.13802 14.2856 -8.64665Q13.7193 -9.15527 12.8106 -9.15527Q12.1663 -9.15527 11.4509 -8.93148Q10.7354 -8.70768 9.9216 -8.25331L9.9216 -9.63677Q10.749 -9.96908 11.4678 -10.1386Q12.1867 -10.3082 12.7835 -10.3082Q14.3568 -10.3082 15.2927 -9.52148Q16.2286 -8.73481 16.2286 -7.41916Q16.2286 -6.79525 15.9946 -6.23576Q15.7606 -5.67627 15.1435 -4.91672Q14.974 -4.72005 14.0652 -3.78079Q13.1565 -2.84153 11.5017 -1.15289ZM22.0879 -9.22309Q21.03 -9.22309 20.4976 -8.1821Q19.9653 -7.14111 19.9653 -5.05235Q19.9653 -2.97038 20.4976 -1.92939Q21.03 -0.888401 22.0879 -0.888401Q23.1527 -0.888401 23.685 -1.92939Q24.2174 -2.97038 24.2174 -5.05235Q24.2174 -7.14111 23.685 -8.1821Q23.1527 -9.22309 22.0879 -9.22309ZM22.0879 -10.3082Q23.7901 -10.3082 24.6887 -8.962Q25.5873 -7.61583 25.5873 -5.05235Q25.5873 -2.49566 24.6887 -1.1495Q23.7901 0.196669 22.0879 0.196669Q20.3857 0.196669 19.4872 -1.1495Q18.5886 -2.49566 18.5886 -5.05235Q18.5886 -7.61583 19.4872 -8.962Q20.3857 -10.3082 22.0879 -10.3082Z" fill="#262626" transform="translate(102.27777777777777,139.14084507042253) translate(-26.50960350036621,0)" />
<line x1="107.13888888888889" y1="83.49765258215962" x2="112.4" y2="83.49765258215962" stroke="#262626" stroke-width="1.1111111111111112" />
<path d="M1.72255 -1.15289L3.9605 -1.15289L3.9605 -8.87722L1.52588 -8.38894L1.52588 -9.63677L3.94694 -10.1251L5.31684 -10.1251L5.31684 -1.15289L7.5548 -1.15289L7.5548 0L1.72255 0L1.72255 -1.15289ZM14.0856 -8.93148L10.6269 -3.52648L14.0856 -3.52648L14.0856 -8.93148ZM13.7261 -10.1251L15.4487 -10.1251L15.4487 -3.52648L16.8932 -3.52648L16.8932 -2.38715L15.4487 -2.38715L15.4487 0L14.0856 0L14.0856 -2.38715L9.5147 -2.38715L9.5147 -3.70958L13.7261 -10.1251ZM22.0879 -9.22309Q21.03 -9.22309 20.4976 -8.1821Q19.9653 -7.14111 19.9653 -5.05235Q19.9653 -2.97038 20.4976 -1.92939Q21.03 -0.888401 22.0879 -0.888401Q23.1527 -0.888401 23.685 -1.92939Q24.2174 -2.97038 24.2174 -5.05235Q24.2174 -7.14111 23.685 -8.1821Q23.1527 -9.22309 22.0879 -9.22309ZM22.0879 -10.3082Q23.7901 -10.3082 24.6887 -8.962Q25.5873 -7.61583 25.5873 -5.05235Q25.5873 -2.49566 24.6887 -1.1495Q23.7901 0.196669 22.0879 0.196669Q20.3857 0.196669 19.4872 -1.1495Q18.5886 -2.49566 18.5886 -5.05235Q18.5886 -7.61583 19.4872 -8.962Q20.3857 -10.3082 22.0879 -10.3082Z" fill="#262626" transform="translate(102.27777777777777,87.49765258215962) translate(-26.50960350036621,0)" />
<g class="series" aria-label="Count">
<rect x="112" y="78.33333333333331" width="82.11764705882354" height="366.6666666666667" fill="#4472C4" />
<rect x="214.64705882352942" y="191.94835680751174" width="82.11764705882351" height="253.05164319248826" fill="#4472C4" />
<rect x="317.29411764705884" y="271.99530516431923" width="82.11764705882348" height="173.00469483568077" fill="#4472C4" />
<rect x="419.94117647058823" y="328.80281690140845" width="82.11764705882354" height="116.19718309859155" fill="#4472C4" />
<rect x="522.5882352941176" y="364.9530516431925" width="82.11764705882365" height="80.04694835680749" fill="#4472C4" />
<rect x="625.235294117647" y="398.5211267605634" width="82.11764705882365" height="46.47887323943661" fill="#4472C4" />
<rect x="727.8823529411765" y="421.76056338028167" width="82.11764705882354" height="23.239436619718333" fill="#4472C4" />
</g>
<polyline points="153.05882352941177,311.6585365853659 255.70588235294116,219.63414634146343 358.35294117647055,156.71951219512195 461,114.46341463414632 563.6470588235294,85.35365853658533 666.2941176470588,68.45121951219517 768.9411764705882,60" fill="none" stroke="#8B0000" stroke-width="2" />
<circle cx="153.05882352941177" cy="311.6585365853659" r="3.5" fill="#8B0000" />
<circle cx="255.70588235294116" cy="219.63414634146343" r="3.5" fill="#8B0000" />
<circle cx="358.35294117647055" cy="156.71951219512195" r="3.5" fill="#8B0000" />
<circle cx="461" cy="114.46341463414632" r="3.5" fill="#8B0000" />
<circle cx="563.6470588235294" cy="85.35365853658533" r="3.5" fill="#8B0000" />
<circle cx="666.2941176470588" cy="68.45121951219517" r="3.5" fill="#8B0000" />
<circle cx="768.9411764705882" cy="60" r="3.5" fill="#8B0000" />
<line x1="810" y1="445" x2="815" y2="445" stroke="#262626" stroke-width="1" />
<path d="M4.41488 -9.22309Q3.35693 -9.22309 2.82457 -8.1821Q2.29221 -7.14111 2.29221 -5.05235Q2.29221 -2.97038 2.82457 -1.92939Q3.35693 -0.888401 4.41488 -0.888401Q5.4796 -0.888401 6.01196 -1.92939Q6.54433 -2.97038 6.54433 -5.05235Q6.54433 -7.14111 6.01196 -8.1821Q5.4796 -9.22309 4.41488 -9.22309ZM4.41488 -10.3082Q6.11708 -10.3082 7.01565 -8.962Q7.91422 -7.61583 7.91423 -5.05235Q7.91423 -2.49566 7.01565 -1.1495Q6.11708 0.196669 4.41488 0.196669Q2.71267 0.196669 1.8141 -1.1495Q0.915527 -2.49566 0.915527 -5.05235Q0.915527 -7.61583 1.8141 -8.962Q2.71267 -10.3082 4.41488 -10.3082Z" fill="#262626" transform="translate(818,449)" />
<line x1="810" y1="406.5" x2="815" y2="406.5" stroke="#262626" stroke-width="1" />
<path d="M1.72255 -1.15289L3.9605 -1.15289L3.9605 -8.87722L1.52588 -8.38894L1.52588 -9.63677L3.94694 -10.1251L5.31684 -10.1251L5.31684 -1.15289L7.5548 -1.15289L7.5548 0L1.72255 0L1.72255 -1.15289ZM13.2514 -9.22309Q12.1935 -9.22309 11.6611 -8.1821Q11.1287 -7.14111 11.1287 -5.05235Q11.1287 -2.97038 11.6611 -1.92939Q12.1935 -0.888401 13.2514 -0.888401Q14.3161 -0.888401 14.8485 -1.92939Q15.3809 -2.97038 15.3809 -5.05235Q15.3809 -7.14111 14.8485 -8.1821Q14.3161 -9.22309 13.2514 -9.22309ZM13.2514 -10.3082Q14.9536 -10.3082 15.8522 -8.962Q16.7508 -7.61583 16.7508 -5.05235Q16.7508 -2.49566 15.8522 -1.1495Q14.9536 0.196669 13.2514 0.196669Q11.5492 0.196669 10.6506 -1.1495Q9.75206 -2.49566 9.75206 -5.05235Q9.75206 -7.61583 10.6506 -8.962Q11.5492 -10.3082 13.2514 -10.3082Z" fill="#262626" transform="translate(818,410.5)" />
<line x1="810" y1="368" x2="815" y2="368" stroke="#262626" stroke-width="1" />
<path d="M2.6652 -1.15289L7.44629 -1.15289L7.44629 0L1.01725 0L1.01725 -1.15289Q1.79715 -1.95991 3.14331 -3.31963Q4.48947 -4.67936 4.83534 -5.0727Q5.49316 -5.8119 5.75426 -6.32392Q6.01535 -6.83594 6.01535 -7.331Q6.01535 -8.13802 5.44908 -8.64665Q4.88281 -9.15527 3.97407 -9.15527Q3.32981 -9.15527 2.61434 -8.93148Q1.89887 -8.70768 1.08507 -8.25331L1.08507 -9.63677Q1.91243 -9.96908 2.63129 -10.1386Q3.35015 -10.3082 3.94694 -10.3082Q5.52029 -10.3082 6.45616 -9.52148Q7.39204 -8.73481 7.39204 -7.41916Q7.39204 -6.79525 7.15807 -6.23576Q6.9241 -5.67627 6.30697 -4.91672Q6.13742 -4.72005 5.22868 -3.78079Q4.31993 -2.84153 2.6652 -1.15289ZM13.2514 -9.22309Q12.1935 -9.22309 11.6611 -8.1821Q11.1287 -7.14111 11.1287 -5.05235Q11.1287 -2.97038 11.6611 -1.92939Q12.1935 -0.888401 13.2514 -0.888401Q14.3161 -0.888401 14.8485 -1.92939Q15.3809 -2.97038 15.3809 -5.05235Q15.3809 -7.14111 14.8485 -8.1821Q14.3161 -9.22309 13.2514 -9.22309ZM13.2514 -10.3082Q14.9536 -10.3082 15.8522 -8.962Q16.7508 -7.61583 16.7508 -5.05235Q16.7508 -2.49566 15.8522 -1.1495Q14.9536 0.196669 13.2514 0.196669Q11.5492 0.196669 10.6506 -1.1495Q9.75206 -2.49566 9.75206 -5.05235Q9.75206 -7.61583 10.6506 -8.962Q11.5492 -10.3082 13.2514 -10.3082Z" fill="#262626" transform="translate(818,372)" />
<line x1="810" y1="329.5" x2="815" y2="329.5" stroke="#262626" stroke-width="1" />
<path d="M5.63558 -5.45926Q6.61892 -5.24902 7.17163 -4.58442Q7.72434 -3.91981 7.72434 -2.94325Q7.72434 -1.4445 6.69352 -0.623915Q5.66271 0.196669 3.76383 0.196669Q3.12636 0.196669 2.45158 0.0712077Q1.7768 -0.0542535 1.05794 -0.305176L1.05794 -1.6276Q1.6276 -1.2953 2.30577 -1.12576Q2.98394 -0.956217 3.72314 -0.956217Q5.01166 -0.956217 5.68644 -1.46484Q6.36122 -1.97347 6.36122 -2.94325Q6.36122 -3.83843 5.73391 -4.34367Q5.10661 -4.8489 3.98763 -4.8489L2.80762 -4.8489L2.80762 -5.97466L4.04188 -5.97466Q5.05235 -5.97466 5.58811 -6.37817Q6.12386 -6.78168 6.12386 -7.54123Q6.12386 -8.32113 5.57115 -8.7382Q5.01845 -9.15527 3.98763 -9.15527Q3.42475 -9.15527 2.78049 -9.0332Q2.13623 -8.91113 1.36312 -8.65343L1.36312 -9.87413Q2.14301 -10.0911 2.82457 -10.1997Q3.50613 -10.3082 4.1097 -10.3082Q5.66949 -10.3082 6.57823 -9.59947Q7.48698 -8.89079 7.48698 -7.68365Q7.48698 -6.84272 7.00548 -6.26289Q6.52398 -5.68305 5.63558 -5.45926ZM13.2514 -9.22309Q12.1935 -9.22309 11.6611 -8.1821Q11.1287 -7.14111 11.1287 -5.05235Q11.1287 -2.97038 11.6611 -1.92939Q12.1935 -0.888401 13.2514 -0.888401Q14.3161 -0.888401 14.8485 -1.92939Q15.3809 -2.97038 15.3809 -5.05235Q15.3809 -7.14111 14.8485 -8.1821Q14.3161 -9.22309 13.2514 -9.22309ZM13.2514 -10.3082Q14.9536 -10.3082 15.8522 -8.962Q16.7508 -7.61583 16.7508 -5.05235Q16.7508 -2.49566 15.8522 -1.1495Q14.9536 0.196669 13.2514 0.196669Q11.5492 0.196669 10.6506 -1.1495Q9.75206 -2.49566 9.75206 -5.05235Q9.75206 -7.61583 10.6506 -8.962Q11.5492 -10.3082 13.2514 -10.3082Z" fill="#262626" transform="translate(818,333.5)" />
<line x1="810" y1="291" x2="815" y2="291" stroke="#262626" stroke-width="1" />
<path d="M5.24902 -8.93148L1.79036 -3.52648L5.24902 -3.52648L5.24902 -8.93148ZM4.88959 -10.1251L6.61214 -10.1251L6.61214 -3.52648L8.05664 -3.52648L8.05664 -2.38715L6.61214 -2.38715L6.61214 0L5.24902 0L5.24902 -2.38715L0.678168 -2.38715L0.678168 -3.70958L4.88959 -10.1251ZM13.2514 -9.22309Q12.1935 -9.22309 11.6611 -8.1821Q11.1287 -7.14111 11.1287 -5.05235Q11.1287 -2.97038 11.6611 -1.92939Q12.1935 -0.888401 13.2514 -0.888401Q14.3161 -0.888401 14.8485 -1.92939Q15.3809 -2.97038 15.3809 -5.05235Q15.3809 -7.14111 14.8485 -8.1821Q14.3161 -9.22309 13.2514 -9.22309ZM13.2514 -10.3082Q14.9536 -10.3082 15.8522 -8.962Q16.7508 -7.61583 16.7508 -5.05235Q16.7508 -2.49566 15.8522 -1.1495Q14.9536 0.196669 13.2514 0.196669Q11.5492 0.196669 10.6506 -1.1495Q9.75206 -2.49566 9.75206 -5.05235Q9.75206 -7.61583 10.6506 -8.962Q11.5492 -10.3082 13.2514 -10.3082Z" fill="#262626" transform="translate(818,295)" />
<line x1="810" y1="252.5" x2="815" y2="252.5" stroke="#262626" stroke-width="1" />
<path d="M1.49875 -10.1251L6.87663 -10.1251L6.87663 -8.97217L2.75336 -8.97217L2.75336 -6.49007Q3.05176 -6.5918 3.35015 -6.64266Q3.64855 -6.69352 3.94694 -6.69352Q5.64236 -6.69352 6.63249 -5.76443Q7.62261 -4.83534 7.62261 -3.24843Q7.62261 -1.61404 6.60536 -0.708686Q5.58811 0.196669 3.73671 0.196669Q3.09923 0.196669 2.43802 0.0881619C1.99721 0.0158239 1.5417 -0.092683 1.07151 -0.237359L1.07151 -1.61404Q1.68186 -1.28174 2.3329 -1.11898Q2.98394 -0.956217 3.70958 -0.956217Q4.88281 -0.956217 5.56776 -1.57335Q6.25271 -2.19048 6.25271 -3.24843Q6.25271 -4.30637 5.56776 -4.9235Q4.88281 -5.54064 3.70958 -5.54064Q3.16026 -5.54064 2.61434 -5.41857Q2.06841 -5.2965 1.49875 -5.03879L1.49875 -10.1251ZM13.2514 -9.22309Q12.1935 -9.22309 11.6611 -8.1821Q11.1287 -7.14111 11.1287 -5.05235Q11.1287 -2.97038 11.6611 -1.92939Q12.1935 -0.888401 13.2514 -0.888401Q14.3161 -0.888401 14.8485 -1.92939Q15.3809 -2.97038 15.3809 -5.05235Q15.3809 -7.14111 14.8485 -8.1821Q14.3161 -9.22309 13.2514 -9.22309ZM13.2514 -10.3082Q14.9536 -10.3082 15.8522 -8.962Q16.7508 -7.61583 16.7508 -5.05235Q16.7508 -2.49566 15.8522 -1.1495Q14.9536 0.196669 13.2514 0.196669Q11.5492 0.196669 10.6506 -1.1495Q9.75206 -2.49566 9.75206 -5.05235Q9.75206 -7.61583 10.6506 -8.962Q11.5492 -10.3082 13.2514 -10.3082Z" fill="#262626" transform="translate(818,256.5)" />
<line x1="810" y1="214" x2="815" y2="214" stroke="#262626" stroke-width="1" />
<path d="M4.58442 -5.60845Q3.66211 -5.60845 3.12297 -4.97776Q2.58382 -4.34706 2.58382 -3.24843Q2.58382 -2.15658 3.12297 -1.52249Q3.66211 -0.888401 4.58442 -0.888401Q5.50673 -0.888401 6.04587 -1.52249Q6.58502 -2.15658 6.58502 -3.24843Q6.58502 -4.34706 6.04587 -4.97776Q5.50673 -5.60845 4.58442 -5.60845ZM7.30387 -9.90126L7.30387 -8.65343Q6.78847 -8.89757 6.26289 -9.02642Q5.7373 -9.15527 5.2219 -9.15527Q3.86556 -9.15527 3.15009 -8.23975Q2.43462 -7.32422 2.3329 -5.47282Q2.73302 -6.06282 3.33659 -6.37817Q3.94016 -6.69352 4.6658 -6.69352Q6.19168 -6.69352 7.07669 -5.76782Q7.9617 -4.84212 7.9617 -3.24843Q7.9617 -1.68864 7.03939 -0.745985Q6.11708 0.196669 4.58442 0.196669Q2.82796 0.196669 1.89887 -1.1495Q0.969781 -2.49566 0.969781 -5.05235Q0.969781 -7.45307 2.1091 -8.88062Q3.24843 -10.3082 5.16764 -10.3082Q5.68305 -10.3082 6.20863 -10.2064Q6.73421 -10.1047 7.30387 -9.90126ZM13.2514 -9.22309Q12.1935 -9.22309 11.6611 -8.1821Q11.1287 -7.14111 11.1287 -5.05235Q11.1287 -2.97038 11.6611 -1.92939Q12.1935 -0.888401 13.2514 -0.888401Q14.3161 -0.888401 14.8485 -1.92939Q15.3809 -2.97038 15.3809 -5.05235Q15.3809 -7.14111 14.8485 -8.1821Q14.3161 -9.22309 13.2514 -9.22309ZM13.2514 -10.3082Q14.9536 -10.3082 15.8522 -8.962Q16.7508 -7.61583 16.7508 -5.05235Q16.7508 -2.49566 15.8522 -1.1495Q14.9536 0.196669 13.2514 0.196669Q11.5492 0.196669 10.6506 -1.1495Q9.75206 -2.49566 9.75206 -5.05235Q9.75206 -7.61583 10.6506 -8.962Q11.5492 -10.3082 13.2514 -10.3082Z" fill="#262626" transform="translate(818,218)" />
<line x1="810" y1="175.5" x2="815" y2="175.5" stroke="#262626" stroke-width="1" />
<path d="M1.13932 -10.1251L7.64974 -10.1251L7.64974 -9.54183L3.97407 0L2.54313 0L6.00179 -8.97217L1.13932 -8.97217L1.13932 -10.1251ZM13.2514 -9.22309Q12.1935 -9.22309 11.6611 -8.1821Q11.1287 -7.14111 11.1287 -5.05235Q11.1287 -2.97038 11.6611 -1.92939Q12.1935 -0.888401 13.2514 -0.888401Q14.3161 -0.888401 14.8485 -1.92939Q15.3809 -2.97038 15.3809 -5.05235Q15.3809 -7.14111 14.8485 -8.1821Q14.3161 -9.22309 13.2514 -9.22309ZM13.2514 -10.3082Q14.9536 -10.3082 15.8522 -8.962Q16.7508 -7.61583 16.7508 -5.05235Q16.7508 -2.49566 15.8522 -1.1495Q14.9536 0.196669 13.2514 0.196669Q11.5492 0.196669 10.6506 -1.1495Q9.75206 -2.49566 9.75206 -5.05235Q9.75206 -7.61583 10.6506 -8.962Q11.5492 -10.3082 13.2514 -10.3082Z" fill="#262626" transform="translate(818,179.5)" />
<line x1="810" y1="137" x2="815" y2="137" stroke="#262626" stroke-width="1" />
<path d="M4.41488 -4.80821Q3.43831 -4.80821 2.87882 -4.28602Q2.31934 -3.76383 2.31934 -2.84831Q2.31934 -1.93278 2.87882 -1.41059Q3.43831 -0.888401 4.41488 -0.888401Q5.39144 -0.888401 5.95432 -1.41398Q6.5172 -1.93956 6.5172 -2.84831Q6.5172 -3.76383 5.95771 -4.28602Q5.39822 -4.80821 4.41488 -4.80821ZM3.04498 -5.39144Q2.16336 -5.60845 1.67169 -6.21202Q1.18001 -6.81559 1.18001 -7.68365Q1.18001 -8.89757 2.04468 -9.60287Q2.90934 -10.3082 4.41488 -10.3082Q5.92719 -10.3082 6.78847 -9.60287Q7.64974 -8.89757 7.64974 -7.68365Q7.64974 -6.81559 7.15807 -6.21202Q6.6664 -5.60845 5.79156 -5.39144Q6.78168 -5.16086 7.33439 -4.48947Q7.8871 -3.81809 7.8871 -2.84831Q7.8871 -1.37668 6.98853 -0.590007Q6.08995 0.196669 4.41488 0.196669Q2.7398 0.196669 1.84123 -0.590007Q0.942654 -1.37668 0.942654 -2.84831Q0.942654 -3.81809 1.49875 -4.48947Q2.05485 -5.16086 3.04498 -5.39144ZM2.54313 -7.5548Q2.54313 -6.76812 3.0348 -6.32731Q3.52648 -5.8865 4.41488 -5.8865Q5.29649 -5.8865 5.79495 -6.32731Q6.2934 -6.76812 6.2934 -7.5548Q6.2934 -8.34147 5.79495 -8.78228Q5.2965 -9.22309 4.41488 -9.22309Q3.52648 -9.22309 3.0348 -8.78228Q2.54313 -8.34147 2.54313 -7.5548ZM13.2514 -9.22309Q12.1935 -9.22309 11.6611 -8.1821Q11.1287 -7.14111 11.1287 -5.05235Q11.1287 -2.97038 11.6611 -1.92939Q12.1935 -0.888401 13.2514 -0.888401Q14.3161 -0.888401 14.8485 -1.92939Q15.3809 -2.97038 15.3809 -5.05235Q15.3809 -7.14111 14.8485 -8.1821Q14.3161 -9.22309 13.2514 -9.22309ZM13.2514 -10.3082Q14.9536 -10.3082 15.8522 -8.962Q16.7508 -7.61583 16.7508 -5.05235Q16.7508 -2.49566 15.8522 -1.1495Q14.9536 0.196669 13.2514 0.196669Q11.5492 0.196669 10.6506 -1.1495Q9.75206 -2.49566 9.75206 -5.05235Q9.75206 -7.61583 10.6506 -8.962Q11.5492 -10.3082 13.2514 -10.3082Z" fill="#262626" transform="translate(818,141)" />
<line x1="810" y1="98.5" x2="815" y2="98.5" stroke="#262626" stroke-width="1" />
<path d="M1.52588 -0.210232L1.52588 -1.45806Q2.04129 -1.21392 2.57026 -1.08507Q3.09923 -0.956217 3.60786 -0.956217Q4.96419 -0.956217 5.67966 -1.86835Q6.39513 -2.78049 6.49685 -4.63867Q6.10352 -4.05545 5.49995 -3.74349Q4.89638 -3.43153 4.16395 -3.43153Q2.64486 -3.43153 1.75985 -4.35045Q0.874837 -5.26937 0.874837 -6.86306Q0.874837 -8.42285 1.79715 -9.36551Q2.71946 -10.3082 4.25212 -10.3082Q6.00857 -10.3082 6.93427 -8.962Q7.85997 -7.61583 7.85997 -5.05235Q7.85997 -2.65842 6.72404 -1.23088Q5.58811 0.196669 3.66889 0.196669Q3.15348 0.196669 2.62451 0.0949436Q2.09554 -0.00678168 1.52588 -0.210232ZM4.25212 -4.50304Q5.17442 -4.50304 5.71357 -5.13374Q6.25271 -5.76443 6.25271 -6.86306Q6.25271 -7.95491 5.71357 -8.589Q5.17443 -9.22309 4.25212 -9.22309Q3.32981 -9.22309 2.79066 -8.589Q2.25152 -7.95492 2.25152 -6.86306Q2.25152 -5.76443 2.79066 -5.13374Q3.32981 -4.50304 4.25212 -4.50304ZM13.2514 -9.22309Q12.1935 -9.22309 11.6611 -8.1821Q11.1287 -7.14111 11.1287 -5.05235Q11.1287 -2.97038 11.6611 -1.92939Q12.1935 -0.888401 13.2514 -0.888401Q14.3161 -0.888401 14.8485 -1.92939Q15.3809 -2.97038 15.3809 -5.05235Q15.3809 -7.14111 14.8485 -8.1821Q14.3161 -9.22309 13.2514 -9.22309ZM13.2514 -10.3082Q14.9536 -10.3082 15.8522 -8.962Q16.7508 -7.61583 16.7508 -5.05235Q16.7508 -2.49566 15.8522 -1.1495Q14.9536 0.196669 13.2514 0.196669Q11.5492 0.196669 10.6506 -1.1495Q9.75206 -2.49566 9.75206 -5.05235Q9.75206 -7.61583 10.6506 -8.962Q11.5492 -10.3082 13.2514 -10.3082Z" fill="#262626" transform="translate(818,102.5)" />
<line x1="810" y1="60" x2="815" y2="60" stroke="#262626" stroke-width="1" />
<path d="M1.72255 -1.15289L3.9605 -1.15289L3.9605 -8.87722L1.52588 -8.38894L1.52588 -9.63677L3.94694 -10.1251L5.31684 -10.1251L5.31684 -1.15289L7.5548 -1.15289L7.5548 0L1.72255 0L1.72255 -1.15289ZM13.2514 -9.22309Q12.1935 -9.22309 11.6611 -8.1821Q11.1287 -7.14111 11.1287 -5.05235Q11.1287 -2.97038 11.6611 -1.92939Q12.1935 -0.888401 13.2514 -0.888401Q14.3161 -0.888401 14.8485 -1.92939Q15.3809 -2.97038 15.3809 -5.05235Q15.3809 -7.14111 14.8485 -8.1821Q14.3161 -9.22309 13.2514 -9.22309ZM13.2514 -10.3082Q14.9536 -10.3082 15.8522 -8.962Q16.7508 -7.61583 16.7508 -5.05235Q16.7508 -2.49566 15.8522 -1.1495Q14.9536 0.196669 13.2514 0.196669Q11.5492 0.196669 10.6506 -1.1495Q9.75206 -2.49566 9.75206 -5.05235Q9.75206 -7.61583 10.6506 -8.962Q11.5492 -10.3082 13.2514 -10.3082ZM22.0879 -9.22309Q21.03 -9.22309 20.4976 -8.1821Q19.9653 -7.14111 19.9653 -5.05235Q19.9653 -2.97038 20.4976 -1.92939Q21.03 -0.888401 22.0879 -0.888401Q23.1527 -0.888401 23.685 -1.92939Q24.2174 -2.97038 24.2174 -5.05235Q24.2174 -7.14111 23.685 -8.1821Q23.1527 -9.22309 22.0879 -9.22309ZM22.0879 -10.3082Q23.7901 -10.3082 24.6887 -8.962Q25.5873 -7.61583 25.5873 -5.05235Q25.5873 -2.49566 24.6887 -1.1495Q23.7901 0.196669 22.0879 0.196669Q20.3857 0.196669 19.4872 -1.1495Q18.5886 -2.49566 18.5886 -5.05235Q18.5886 -7.61583 19.4872 -8.962Q20.3857 -10.3082 22.0879 -10.3082Z" fill="#262626" transform="translate(818,64)" />
<path d="M8.94504 -9.34516L8.94504 -7.90066Q8.25331 -8.54492 7.47003 -8.86366Q6.68674 -9.1824 5.80512 -9.1824Q4.06901 -9.1824 3.1467 -8.12107Q2.22439 -7.05973 2.22439 -5.05235Q2.22439 -3.05176 3.1467 -1.99042Q4.06901 -0.929091 5.80512 -0.929091Q6.68674 -0.929091 7.47003 -1.24783Q8.25331 -1.56657 8.94504 -2.21083L8.94504 -0.779894Q8.22618 -0.291612 7.42255 -0.0474718Q6.61892 0.196669 5.72374 0.196669Q3.42475 0.196669 2.10232 -1.21053Q0.779894 -2.61773 0.779894 -5.05235Q0.779894 -7.49376 2.10232 -8.90096Q3.42475 -10.3082 5.72374 -10.3082Q6.63249 -10.3082 7.43612 -10.0674Q8.23975 -9.82666 8.94504 -9.34516ZM10.8778 -2.9975L10.8778 -7.59549L12.1257 -7.59549L12.1257 -3.04498Q12.1257 -1.96669 12.5461 -1.42754Q12.9666 -0.888401 13.8075 -0.888401Q14.818 -0.888401 15.4046 -1.53266Q15.9912 -2.17692 15.9912 -3.28912L15.9912 -7.59549L17.239 -7.59549L17.239 0L15.9912 0L15.9912 -1.16645Q15.5368 -0.474718 14.9367 -0.139025Q14.3365 0.196669 13.543 0.196669Q12.2342 0.196669 11.556 -0.617133Q10.8778 -1.43094 10.8778 -2.9975ZM25.7229 -6.13742Q26.1909 -6.97835 26.8419 -7.37847Q27.4929 -7.77859 28.3746 -7.77859Q29.5614 -7.77859 30.2056 -6.94784Q30.8499 -6.11708 30.8499 -4.58442L30.8499 0L29.5953 0L29.5953 -4.54373Q29.5953 -5.63558 29.2087 -6.16455Q28.8222 -6.69352 28.0287 -6.69352Q27.0589 -6.69352 26.496 -6.04926Q25.9332 -5.405 25.9332 -4.29281L25.9332 0L24.6785 0L24.6785 -4.54373Q24.6785 -5.64236 24.292 -6.16794Q23.9054 -6.69352 23.0984 -6.69352Q22.1422 -6.69352 21.5793 -6.04587Q21.0164 -5.39822 21.0164 -4.29281L21.0164 0L19.7618 0L19.7618 -7.59549L21.0164 -7.59549L21.0164 -6.41547Q21.4437 -7.11399 22.0405 -7.44629Q22.6373 -7.77859 23.4578 -7.77859Q24.2852 -7.77859 24.865 -7.35813Q25.4449 -6.93766 25.7229 -6.13742ZM33.2099 -2.9975L33.2099 -7.59549L34.4577 -7.59549L34.4577 -3.04498Q34.4577 -1.96669 34.8782 -1.42754Q35.2987 -0.888401 36.1396 -0.888401Q37.1501 -0.888401 37.7367 -1.53266Q38.3233 -2.17692 38.3233 -3.28912L38.3233 -7.59549L39.5711 -7.59549L39.5711 0L38.3233 0L38.3233 -1.16645Q37.8689 -0.474718 37.2687 -0.139025Q36.6686 0.196669 35.8751 0.196669Q34.5662 0.196669 33.8881 -0.617133Q33.2099 -1.43094 33.2099 -2.9975ZM42.1414 -10.5523L43.3892 -10.5523L43.3892 0L42.1414 0L42.1414 -10.5523ZM49.452 -3.81809Q47.9397 -3.81809 47.3565 -3.47222Q46.7733 -3.12636 46.7733 -2.29221Q46.7733 -1.6276 47.2107 -1.23766Q47.6481 -0.84771 48.4009 -0.847711Q49.4385 -0.847711 50.0658 -1.58352Q50.6931 -2.31934 50.6931 -3.54004L50.6931 -3.81809L49.452 -3.81809ZM51.9409 -4.3335L51.9409 0L50.6931 0L50.6931 -1.15289Q50.2658 -0.461155 49.6284 -0.132243Q48.9909 0.196669 48.0686 0.196669Q46.9021 0.196669 46.2138 -0.457764Q45.5255 -1.1122 45.5255 -2.21083Q45.5255 -3.49257 46.3833 -4.14361Q47.2412 -4.79465 48.9434 -4.79465L50.6931 -4.79465L50.6931 -4.91672Q50.6931 -5.77799 50.1268 -6.24932Q49.5606 -6.72065 48.5365 -6.72065Q47.8855 -6.72065 47.2683 -6.56467Q46.6512 -6.40869 46.0815 -6.09673L46.0815 -7.24962Q46.7665 -7.51411 47.4108 -7.64635Q48.055 -7.77859 48.6654 -7.77859Q50.3133 -7.77859 51.1271 -6.9241Q51.9409 -6.06961 51.9409 -4.3335ZM55.7454 -9.75206L55.7454 -7.59549L58.3157 -7.59549L58.3157 -6.62571L55.7454 -6.62571L55.7454 -2.50244Q55.7454 -1.57335 55.9998 -1.30887Q56.2541 -1.04438 57.034 -1.04438L58.3157 -1.04438L58.3157 0L57.034 0Q55.5895 0 55.0402 -0.539144Q54.4908 -1.07829 54.4908 -2.50244L54.4908 -6.62571L53.5753 -6.62571L53.5753 -7.59549L54.4908 -7.59549L54.4908 -9.75206L55.7454 -9.75206ZM59.9569 -7.59549L61.2047 -7.59549L61.2047 0L59.9569 0L59.9569 -7.59549ZM59.9569 -10.5523L61.2047 -10.5523L61.2047 -8.97217L59.9569 -8.97217L59.9569 -10.5523ZM62.9205 -7.59549L64.2429 -7.59549L66.6165 -1.2207L68.9901 -7.59549L70.3125 -7.59549L67.4642 0L65.7688 0L62.9205 -7.59549ZM78.5319 -4.1097L78.5319 -3.49935L72.7946 -3.49935Q72.876 -2.21083 73.5711 -1.53605Q74.2662 -0.861274 75.5073 -0.861274Q76.2261 -0.861274 76.9009 -1.0376Q77.5757 -1.21392 78.2403 -1.56657L78.2403 -0.386556Q77.5689 -0.101725 76.8636 0.0474718Q76.1583 0.196669 75.4327 0.196669Q73.6152 0.196669 72.5539 -0.861274Q71.4925 -1.91922 71.4925 -3.72314Q71.4925 -5.58811 72.4996 -6.68335Q73.5067 -7.77859 75.2157 -7.77859Q76.7483 -7.77859 77.6401 -6.79186Q78.5319 -5.80512 78.5319 -4.1097ZM77.2841 -4.47591Q77.2705 -5.49995 76.711 -6.1103Q76.1515 -6.72065 75.2292 -6.72065Q74.1848 -6.72065 73.5575 -6.13064Q72.9302 -5.54064 72.8353 -4.46913L77.2841 -4.47591ZM93.7839 -4.45557Q93.1939 -4.45557 92.8582 -3.95372Q92.5225 -3.45188 92.5225 -2.55669Q92.5225 -1.67508 92.8582 -1.16984Q93.1939 -0.664605 93.7839 -0.664605Q94.3604 -0.664605 94.6961 -1.16984Q95.0317 -1.67508 95.0317 -2.55669Q95.0317 -3.4451 94.6961 -3.95033Q94.3604 -4.45557 93.7839 -4.45557ZM93.7839 -5.31684Q94.8554 -5.31684 95.4861 -4.57086Q96.1168 -3.82487 96.1168 -2.55669Q96.1168 -1.28852 95.4827 -0.545926Q94.8486 0.196669 93.7839 0.196669Q92.6988 0.196669 92.0682 -0.545926Q91.4375 -1.28852 91.4375 -2.55669Q91.4375 -3.83165 92.0715 -4.57425Q92.7056 -5.31684 93.7839 -5.31684ZM86.7852 -9.44689Q86.202 -9.44689 85.8663 -8.94165Q85.5306 -8.43641 85.5306 -7.5548Q85.5306 -6.65961 85.8629 -6.15777Q86.1952 -5.65592 86.7852 -5.65592Q87.3752 -5.65592 87.7109 -6.15777Q88.0466 -6.65961 88.0466 -7.5548Q88.0466 -8.42963 87.7075 -8.93826Q87.3684 -9.44689 86.7852 -9.44689ZM92.9091 -10.3082L93.9941 -10.3082L87.6601 0.196669L86.575 0.196669L92.9091 -10.3082ZM86.7852 -10.3082Q87.8567 -10.3082 88.4942 -9.56557Q89.1317 -8.82297 89.1317 -7.5548Q89.1317 -6.27306 88.4976 -5.53385Q87.8635 -4.79465 86.7852 -4.79465Q85.7069 -4.79465 85.0796 -5.53725Q84.4523 -6.27984 84.4523 -7.5548Q84.4523 -8.81619 85.083 -9.56217Q85.7137 -10.3082 86.7852 -10.3082Z" fill="#262626" transform="translate(855,252.5) translate(-48.44157409667969,0)" />
<g class="spine">
<line x1="112" y1="445" x2="810" y2="445" stroke="#262626" stroke-width="0.8" />
</g>
<g class="spine">
<line x1="112" y1="60" x2="810" y2="60" stroke="#262626" stroke-width="0.8" />
</g>
<g class="spine">
<line x1="112" y1="60" x2="112" y2="445" stroke="#262626" stroke-width="0.8" />
</g>
<g class="spine">
<line x1="810" y1="60" x2="810" y2="445" stroke="#262626" stroke-width="0.8" />
</g>
<g class="legend" aria-label="Chart legend">
<rect x="703.8649029201931" y="70" width="96.13509707980685" height="25.72222222222222" fill="#FFFFFF" fill-opacity="0.8" stroke="#CCCCCC" stroke-width="0.5" />
<rect x="711.8649029201931" y="78" width="27.77777777777778" height="9.722222222222221" fill="#4472C4" />
<path d="M8.94504 -9.34516L8.94504 -7.90066Q8.25331 -8.54492 7.47003 -8.86366Q6.68674 -9.1824 5.80512 -9.1824Q4.06901 -9.1824 3.1467 -8.12107Q2.22439 -7.05973 2.22439 -5.05235Q2.22439 -3.05176 3.1467 -1.99042Q4.06901 -0.929091 5.80512 -0.929091Q6.68674 -0.929091 7.47003 -1.24783Q8.25331 -1.56657 8.94504 -2.21083L8.94504 -0.779894Q8.22618 -0.291612 7.42255 -0.0474718Q6.61892 0.196669 5.72374 0.196669Q3.42475 0.196669 2.10232 -1.21053Q0.779894 -2.61773 0.779894 -5.05235Q0.779894 -7.49376 2.10232 -8.90096Q3.42475 -10.3082 5.72374 -10.3082Q6.63249 -10.3082 7.43612 -10.0674Q8.23975 -9.82666 8.94504 -9.34516ZM13.9499 -6.72065Q12.9462 -6.72065 12.363 -5.93736Q11.7798 -5.15408 11.7798 -3.79096Q11.7798 -2.42784 12.3596 -1.64456Q12.9395 -0.861274 13.9499 -0.861274Q14.9468 -0.861274 15.5301 -1.64795Q16.1133 -2.43462 16.1133 -3.79096Q16.1133 -5.14052 15.5301 -5.93058Q14.9468 -6.72065 13.9499 -6.72065ZM13.9499 -7.77859Q15.5775 -7.77859 16.5066 -6.72065Q17.4357 -5.66271 17.4357 -3.79096Q17.4357 -1.926 16.5066 -0.864665Q15.5775 0.196669 13.9499 0.196669Q12.3155 0.196669 11.3898 -0.864665Q10.4641 -1.926 10.4641 -3.79096Q10.4641 -5.66271 11.3898 -6.72065Q12.3155 -7.77859 13.9499 -7.77859ZM19.3753 -2.9975L19.3753 -7.59549L20.6231 -7.59549L20.6231 -3.04498Q20.6231 -1.96669 21.0436 -1.42754Q21.464 -0.888401 22.305 -0.888401Q23.3154 -0.888401 23.902 -1.53266Q24.4887 -2.17692 24.4887 -3.28912L24.4887 -7.59549L25.7365 -7.59549L25.7365 0L24.4887 0L24.4887 -1.16645Q24.0343 -0.474718 23.4341 -0.139025Q22.8339 0.196669 22.0405 0.196669Q20.7316 0.196669 20.0534 -0.617133Q19.3753 -1.43094 19.3753 -2.9975ZM34.6205 -4.58442L34.6205 0L33.3727 0L33.3727 -4.54373Q33.3727 -5.62202 32.9522 -6.15777Q32.5317 -6.69352 31.6908 -6.69352Q30.6803 -6.69352 30.0971 -6.04926Q29.5139 -5.405 29.5139 -4.29281L29.5139 0L28.2593 0L28.2593 -7.59549L29.5139 -7.59549L29.5139 -6.41547Q29.9615 -7.10042 30.5684 -7.43951Q31.1754 -7.77859 31.9689 -7.77859Q33.2777 -7.77859 33.9491 -6.96818Q34.6205 -6.15777 34.6205 -4.58442ZM38.3436 -9.75206L38.3436 -7.59549L40.9139 -7.59549L40.9139 -6.62571L38.3436 -6.62571L38.3436 -2.50244Q38.3436 -1.57335 38.598 -1.30887Q38.8523 -1.04438 39.6322 -1.04438L40.9139 -1.04438L40.9139 0L39.6322 0Q38.1877 0 37.6384 -0.539144Q37.089 -1.07829 37.089 -2.50244L37.089 -6.62571L36.1735 -6.62571L36.1735 -7.59549L37.089 -7.59549L37.089 -9.75206L38.3436 -9.75206Z" fill="#262626" transform="translate(750.753791809082,86.72222222222223)" />
</g>
<path d="M2.73302 -8.9993L2.73302 -1.12576L4.38775 -1.12576Q6.48329 -1.12576 7.45646 -2.0752Q8.42963 -3.02463 8.42963 -5.0727Q8.42963 -7.1072 7.45646 -8.05325Q6.48329 -8.9993 4.38775 -8.9993L2.73302 -8.9993ZM1.36312 -10.1251L4.17752 -10.1251Q7.12077 -10.1251 8.49745 -8.90096Q9.87413 -7.67687 9.87413 -5.0727Q9.87413 -2.45497 8.49067 -1.22748Q7.1072 0 4.17752 0L1.36312 0L1.36312 -10.1251ZM18.5004 -4.1097L18.5004 -3.49935L12.7631 -3.49935Q12.8445 -2.21083 13.5396 -1.53605Q14.2348 -0.861274 15.4758 -0.861274Q16.1947 -0.861274 16.8694 -1.0376Q17.5442 -1.21392 18.2088 -1.56657L18.2088 -0.386556Q17.5374 -0.101725 16.8321 0.0474718Q16.1268 0.196669 15.4012 0.196669Q13.5837 0.196669 12.5224 -0.861274Q11.461 -1.91922 11.461 -3.72314Q11.461 -5.58811 12.4681 -6.68335Q13.4752 -7.77859 15.1842 -7.77859Q16.7169 -7.77859 17.6086 -6.79186Q18.5004 -5.80512 18.5004 -4.1097ZM17.2526 -4.47591Q17.239 -5.49995 16.6796 -6.1103Q16.1201 -6.72065 15.1978 -6.72065Q14.1534 -6.72065 13.5261 -6.13064Q12.8988 -5.54064 12.8038 -4.46913L17.2526 -4.47591ZM24.3937 -10.5523L24.3937 -9.5147L23.2001 -9.5147Q22.5288 -9.5147 22.2677 -9.24344Q22.0066 -8.97217 22.0066 -8.26687L22.0066 -7.59549L24.0614 -7.59549L24.0614 -6.62571L22.0066 -6.62571L22.0066 0L20.752 0L20.752 -6.62571L19.5584 -6.62571L19.5584 -7.59549L20.752 -7.59549L20.752 -8.12446Q20.752 -9.39263 21.342 -9.97247Q21.932 -10.5523 23.2137 -10.5523L24.3937 -10.5523ZM31.935 -4.1097L31.935 -3.49935L26.1976 -3.49935Q26.279 -2.21083 26.9742 -1.53605Q27.6693 -0.861274 28.9103 -0.861274Q29.6292 -0.861274 30.304 -1.0376Q30.9787 -1.21392 31.6433 -1.56657L31.6433 -0.386556Q30.972 -0.101725 30.2667 0.0474718Q29.5614 0.196669 28.8357 0.196669Q27.0182 0.196669 25.9569 -0.861274Q24.8956 -1.91922 24.8956 -3.72314Q24.8956 -5.58811 25.9026 -6.68335Q26.9097 -7.77859 28.6187 -7.77859Q30.1514 -7.77859 31.0432 -6.79186Q31.935 -5.80512 31.935 -4.1097ZM30.6871 -4.47591Q30.6736 -5.49995 30.1141 -6.1103Q29.5546 -6.72065 28.6323 -6.72065Q27.5879 -6.72065 26.9606 -6.13064Q26.3333 -5.54064 26.2383 -4.46913L30.6871 -4.47591ZM39.4491 -7.30387L39.4491 -6.13742Q38.9201 -6.42904 38.3877 -6.57484Q37.8554 -6.72065 37.3128 -6.72065Q36.0989 -6.72065 35.4275 -5.95093Q34.7561 -5.18121 34.7561 -3.79096Q34.7561 -2.40072 35.4275 -1.631Q36.0989 -0.861274 37.3128 -0.861274Q37.8554 -0.861274 38.3877 -1.00708Q38.9201 -1.15289 39.4491 -1.4445L39.4491 -0.291612Q38.9269 -0.0474718 38.3674 0.0745985Q37.8079 0.196669 37.1772 0.196669Q35.4614 0.196669 34.451 -0.881619Q33.4405 -1.95991 33.4405 -3.79096Q33.4405 -5.64914 34.4611 -6.71387Q35.4818 -7.77859 37.2586 -7.77859Q37.835 -7.77859 38.3843 -7.65991Q38.9337 -7.54123 39.4491 -7.30387ZM42.8535 -9.75206L42.8535 -7.59549L45.4237 -7.59549L45.4237 -6.62571L42.8535 -6.62571L42.8535 -2.50244Q42.8535 -1.57335 43.1078 -1.30887Q43.3621 -1.04438 44.142 -1.04438L45.4237 -1.04438L45.4237 0L44.142 0Q42.6975 0 42.1482 -0.539144Q41.5989 -1.07829 41.5989 -2.50244L41.5989 -6.62571L40.6833 -6.62571L40.6833 -7.59549L41.5989 -7.59549L41.5989 -9.75206L42.8535 -9.75206ZM59.1159 -9.34516L59.1159 -7.90066Q58.4242 -8.54492 57.6409 -8.86366Q56.8576 -9.1824 55.976 -9.1824Q54.2399 -9.1824 53.3176 -8.12107Q52.3953 -7.05973 52.3953 -5.05235Q52.3953 -3.05176 53.3176 -1.99042Q54.2399 -0.929091 55.976 -0.929091Q56.8576 -0.929091 57.6409 -1.24783Q58.4242 -1.56657 59.1159 -2.21083L59.1159 -0.779894Q58.3971 -0.291612 57.5935 -0.0474718Q56.7898 0.196669 55.8946 0.196669Q53.5957 0.196669 52.2732 -1.21053Q50.9508 -2.61773 50.9508 -5.05235Q50.9508 -7.49376 52.2732 -8.90096Q53.5957 -10.3082 55.8946 -10.3082Q56.8034 -10.3082 57.607 -10.0674Q58.4106 -9.82666 59.1159 -9.34516ZM64.1208 -6.72065Q63.1171 -6.72065 62.5339 -5.93736Q61.9507 -5.15408 61.9507 -3.79096Q61.9507 -2.42784 62.5305 -1.64456Q63.1104 -0.861274 64.1208 -0.861274Q65.1177 -0.861274 65.701 -1.64795Q66.2842 -2.43462 66.2842 -3.79096Q66.2842 -5.14052 65.701 -5.93058Q65.1177 -6.72065 64.1208 -6.72065ZM64.1208 -7.77859Q65.7484 -7.77859 66.6775 -6.72065Q67.6066 -5.66271 67.6066 -3.79096Q67.6066 -1.926 66.6775 -0.864665Q65.7484 0.196669 64.1208 0.196669Q62.4864 0.196669 61.5607 -0.864665Q60.635 -1.926 60.635 -3.79096Q60.635 -5.66271 61.5607 -6.72065Q62.4864 -7.77859 64.1208 -7.77859ZM69.5462 -2.9975L69.5462 -7.59549L70.794 -7.59549L70.794 -3.04498Q70.794 -1.96669 71.2145 -1.42754Q71.6349 -0.888401 72.4759 -0.888401Q73.4863 -0.888401 74.0729 -1.53266Q74.6596 -2.17692 74.6596 -3.28912L74.6596 -7.59549L75.9074 -7.59549L75.9074 0L74.6596 0L74.6596 -1.16645Q74.2052 -0.474718 73.605 -0.139025Q73.0048 0.196669 72.2114 0.196669Q70.9025 0.196669 70.2243 -0.617133Q69.5462 -1.43094 69.5462 -2.9975ZM84.7914 -4.58442L84.7914 0L83.5436 0L83.5436 -4.54373Q83.5436 -5.62202 83.1231 -6.15777Q82.7026 -6.69352 81.8617 -6.69352Q80.8512 -6.69352 80.268 -6.04926Q79.6848 -5.405 79.6848 -4.29281L79.6848 0L78.4302 0L78.4302 -7.59549L79.6848 -7.59549L79.6848 -6.41547Q80.1324 -7.10042 80.7393 -7.43951Q81.3463 -7.77859 82.1398 -7.77859Q83.4486 -7.77859 84.12 -6.96818Q84.7914 -6.15777 84.7914 -4.58442ZM88.5145 -9.75206L88.5145 -7.59549L91.0848 -7.59549L91.0848 -6.62571L88.5145 -6.62571L88.5145 -2.50244Q88.5145 -1.57335 88.7689 -1.30887Q89.0232 -1.04438 89.8031 -1.04438L91.0848 -1.04438L91.0848 0L89.8031 0Q88.3586 0 87.8092 -0.539144Q87.2599 -1.07829 87.2599 -2.50244L87.2599 -6.62571L86.3444 -6.62571L86.3444 -7.59549L87.2599 -7.59549L87.2599 -9.75206L88.5145 -9.75206Z" fill="#262626" transform="translate(63.76817427741157,252.5) rotate(-90) translate(-45.708553314208984,0)" />
</svg>
