<svg xmlns="http://www.w3.org/2000/svg" viewBox="0 0 1000 800" width="1000" height="800" role="img" aria-labelledby="chart-title">
<title id="chart-title">Phase F Indicators</title>
<rect x="0" y="0" width="1000" height="800" fill="#FFFFFF" />
<text x="500" y="24.099999999999998" font-family="DejaVu Sans, sans-serif" font-size="17.88888888888889" text-anchor="middle" font-weight="bold" fill="#262626">Phase F Indicators</text>
<rect x="125" y="96" width="367.5" height="288" fill="#FFFFFF" />
<line x1="141.70454545454544" y1="383.6" x2="141.70454545454544" y2="388.8611111111111" stroke="#262626" stroke-width="1.1111111111111112" />
<text x="141.70454545454544" y="407.6111111111111" font-family="DejaVu Sans, sans-serif" font-size="13.88888888888889" text-anchor="middle" fill="#262626">0</text>
<line x1="175.79545454545453" y1="383.6" x2="175.79545454545453" y2="388.8611111111111" stroke="#262626" stroke-width="1.1111111111111112" />
<text x="175.79545454545453" y="407.6111111111111" font-family="DejaVu Sans, sans-serif" font-size="13.88888888888889" text-anchor="middle" fill="#262626">5</text>
<line x1="209.88636363636363" y1="383.6" x2="209.88636363636363" y2="388.8611111111111" stroke="#262626" stroke-width="1.1111111111111112" />
<text x="209.88636363636363" y="407.6111111111111" font-family="DejaVu Sans, sans-serif" font-size="13.88888888888889" text-anchor="middle" fill="#262626">10</text>
<line x1="243.9772727272727" y1="383.6" x2="243.9772727272727" y2="388.8611111111111" stroke="#262626" stroke-width="1.1111111111111112" />
<text x="243.9772727272727" y="407.6111111111111" font-family="DejaVu Sans, sans-serif" font-size="13.88888888888889" text-anchor="middle" fill="#262626">15</text>
<line x1="278.06818181818176" y1="383.6" x2="278.06818181818176" y2="388.8611111111111" stroke="#262626" stroke-width="1.1111111111111112" />
<text x="278.06818181818176" y="407.6111111111111" font-family="DejaVu Sans, sans-serif" font-size="13.88888888888889" text-anchor="middle" fill="#262626">20</text>
<line x1="312.1590909090909" y1="383.6" x2="312.1590909090909" y2="388.8611111111111" stroke="#262626" stroke-width="1.1111111111111112" />
<text x="312.1590909090909" y="407.6111111111111" font-family="DejaVu Sans, sans-serif" font-size="13.88888888888889" text-anchor="middle" fill="#262626">25</text>
<line x1="346.25" y1="383.6" x2="346.25" y2="388.8611111111111" stroke="#262626" stroke-width="1.1111111111111112" />
<text x="346.25" y="407.6111111111111" font-family="DejaVu Sans, sans-serif" font-size="13.88888888888889" text-anchor="middle" fill="#262626">30</text>
<line x1="380.340909090909" y1="383.6" x2="380.340909090909" y2="388.8611111111111" stroke="#262626" stroke-width="1.1111111111111112" />
<text x="380.340909090909" y="407.6111111111111" font-family="DejaVu Sans, sans-serif" font-size="13.88888888888889" text-anchor="middle" fill="#262626">35</text>
<line x1="414.43181818181813" y1="383.6" x2="414.43181818181813" y2="388.8611111111111" stroke="#262626" stroke-width="1.1111111111111112" />
<text x="414.43181818181813" y="407.6111111111111" font-family="DejaVu Sans, sans-serif" font-size="13.88888888888889" text-anchor="middle" fill="#262626">40</text>
<line x1="448.52272727272725" y1="383.6" x2="448.52272727272725" y2="388.8611111111111" stroke="#262626" stroke-width="1.1111111111111112" />
<text x="448.52272727272725" y="407.6111111111111" font-family="DejaVu Sans, sans-serif" font-size="13.88888888888889" text-anchor="middle" fill="#262626">45</text>
<line x1="482.6136363636363" y1="383.6" x2="482.6136363636363" y2="388.8611111111111" stroke="#262626" stroke-width="1.1111111111111112" />
<text x="482.6136363636363" y="407.6111111111111" font-family="DejaVu Sans, sans-serif" font-size="13.88888888888889" text-anchor="middle" fill="#262626">50</text>
<line x1="128.0681818181818" y1="383.6" x2="128.0681818181818" y2="388.8611111111111" stroke="#262626" stroke-width="1.1111111111111112" />
<line x1="134.88636363636363" y1="383.6" x2="134.88636363636363" y2="388.8611111111111" stroke="#262626" stroke-width="1.1111111111111112" />
<line x1="148.52272727272725" y1="383.6" x2="148.52272727272725" y2="388.8611111111111" stroke="#262626" stroke-width="1.1111111111111112" />
<line x1="155.34090909090907" y1="383.6" x2="155.34090909090907" y2="388.8611111111111" stroke="#262626" stroke-width="1.1111111111111112" />
<line x1="162.15909090909088" y1="383.6" x2="162.15909090909088" y2="388.8611111111111" stroke="#262626" stroke-width="1.1111111111111112" />
<line x1="168.97727272727272" y1="383.6" x2="168.97727272727272" y2="388.8611111111111" stroke="#262626" stroke-width="1.1111111111111112" />
<line x1="182.61363636363635" y1="383.6" x2="182.61363636363635" y2="388.8611111111111" stroke="#262626" stroke-width="1.1111111111111112" />
<line x1="189.43181818181816" y1="383.6" x2="189.43181818181816" y2="388.8611111111111" stroke="#262626" stroke-width="1.1111111111111112" />
<line x1="196.24999999999997" y1="383.6" x2="196.24999999999997" y2="388.8611111111111" stroke="#262626" stroke-width="1.1111111111111112" />
<line x1="203.0681818181818" y1="383.6" x2="203.0681818181818" y2="388.8611111111111" stroke="#262626" stroke-width="1.1111111111111112" />
<line x1="216.70454545454544" y1="383.6" x2="216.70454545454544" y2="388.8611111111111" stroke="#262626" stroke-width="1.1111111111111112" />
<line x1="223.52272727272725" y1="383.6" x2="223.52272727272725" y2="388.8611111111111" stroke="#262626" stroke-width="1.1111111111111112" />
<line x1="230.34090909090907" y1="383.6" x2="230.34090909090907" y2="388.8611111111111" stroke="#262626" stroke-width="1.1111111111111112" />
<line x1="237.15909090909088" y1="383.6" x2="237.15909090909088" y2="388.8611111111111" stroke="#262626" stroke-width="1.1111111111111112" />
<line x1="250.7954545454545" y1="383.6" x2="250.7954545454545" y2="388.8611111111111" stroke="#262626" stroke-width="1.1111111111111112" />
<line x1="257.6136363636363" y1="383.6" x2="257.6136363636363" y2="388.8611111111111" stroke="#262626" stroke-width="1.1111111111111112" />
<line x1="264.43181818181813" y1="383.6" x2="264.43181818181813" y2="388.8611111111111" stroke="#262626" stroke-width="1.1111111111111112" />
<line x1="271.25" y1="383.6" x2="271.25" y2="388.8611111111111" stroke="#262626" stroke-width="1.1111111111111112" />
<line x1="284.8863636363636" y1="383.6" x2="284.8863636363636" y2="388.8611111111111" stroke="#262626" stroke-width="1.1111111111111112" />
<line x1="291.7045454545454" y1="383.6" x2="291.7045454545454" y2="388.8611111111111" stroke="#262626" stroke-width="1.1111111111111112" />
<line x1="298.52272727272725" y1="383.6" x2="298.52272727272725" y2="388.8611111111111" stroke="#262626" stroke-width="1.1111111111111112" />
<line x1="305.34090909090907" y1="383.6" x2="305.34090909090907" y2="388.8611111111111" stroke="#262626" stroke-width="1.1111111111111112" />
<line x1="318.9772727272727" y1="383.6" x2="318.9772727272727" y2="388.8611111111111" stroke="#262626" stroke-width="1.1111111111111112" />
<line x1="325.7954545454545" y1="383.6" x2="325.7954545454545" y2="388.8611111111111" stroke="#262626" stroke-width="1.1111111111111112" />
<line x1="332.6136363636363" y1="383.6" x2="332.6136363636363" y2="388.8611111111111" stroke="#262626" stroke-width="1.1111111111111112" />
<line x1="339.43181818181813" y1="383.6" x2="339.43181818181813" y2="388.8611111111111" stroke="#262626" stroke-width="1.1111111111111112" />
<line x1="353.06818181818176" y1="383.6" x2="353.06818181818176" y2="388.8611111111111" stroke="#262626" stroke-width="1.1111111111111112" />
<line x1="359.8863636363636" y1="383.6" x2="359.8863636363636" y2="388.8611111111111" stroke="#262626" stroke-width="1.1111111111111112" />
<line x1="366.7045454545454" y1="383.6" x2="366.7045454545454" y2="388.8611111111111" stroke="#262626" stroke-width="1.1111111111111112" />
<line x1="373.52272727272725" y1="383.6" x2="373.52272727272725" y2="388.8611111111111" stroke="#262626" stroke-width="1.1111111111111112" />
<line x1="387.1590909090909" y1="383.6" x2="387.1590909090909" y2="388.8611111111111" stroke="#262626" stroke-width="1.1111111111111112" />
<line x1="393.9772727272727" y1="383.6" x2="393.9772727272727" y2="388.8611111111111" stroke="#262626" stroke-width="1.1111111111111112" />
<line x1="400.7954545454545" y1="383.6" x2="400.7954545454545" y2="388.8611111111111" stroke="#262626" stroke-width="1.1111111111111112" />
<line x1="407.6136363636363" y1="383.6" x2="407.6136363636363" y2="388.8611111111111" stroke="#262626" stroke-width="1.1111111111111112" />
<line x1="421.24999999999994" y1="383.6" x2="421.24999999999994" y2="388.8611111111111" stroke="#262626" stroke-width="1.1111111111111112" />
<line x1="428.06818181818176" y1="383.6" x2="428.06818181818176" y2="388.8611111111111" stroke="#262626" stroke-width="1.1111111111111112" />
<line x1="434.88636363636357" y1="383.6" x2="434.88636363636357" y2="388.8611111111111" stroke="#262626" stroke-width="1.1111111111111112" />
<line x1="441.7045454545454" y1="383.6" x2="441.7045454545454" y2="388.8611111111111" stroke="#262626" stroke-width="1.1111111111111112" />
<line x1="455.34090909090907" y1="383.6" x2="455.34090909090907" y2="388.8611111111111" stroke="#262626" stroke-width="1.1111111111111112" />
<line x1="462.1590909090909" y1="383.6" x2="462.1590909090909" y2="388.8611111111111" stroke="#262626" stroke-width="1.1111111111111112" />
<line x1="468.9772727272727" y1="383.6" x2="468.9772727272727" y2="388.8611111111111" stroke="#262626" stroke-width="1.1111111111111112" />
<line x1="475.7954545454545" y1="383.6" x2="475.7954545454545" y2="388.8611111111111" stroke="#262626" stroke-width="1.1111111111111112" />
<line x1="489.43181818181813" y1="383.6" x2="489.43181818181813" y2="388.8611111111111" stroke="#262626" stroke-width="1.1111111111111112" />
<line x1="120.13888888888889" y1="368.88074779272347" x2="125.4" y2="368.88074779272347" stroke="#262626" stroke-width="1.1111111111111112" />
<text x="115.27777777777777" y="372.88074779272347" font-family="DejaVu Sans, sans-serif" font-size="13.88888888888889" text-anchor="end" fill="#262626">93</text>
<line x1="120.13888888888889" y1="344.1791750775142" x2="125.4" y2="344.1791750775142" stroke="#262626" stroke-width="1.1111111111111112" />
<text x="115.27777777777777" y="348.1791750775142" font-family="DejaVu Sans, sans-serif" font-size="13.88888888888889" text-anchor="end" fill="#262626">94</text>
<line x1="120.13888888888889" y1="319.4776023623049" x2="125.4" y2="319.4776023623049" stroke="#262626" stroke-width="1.1111111111111112" />
<text x="115.27777777777777" y="323.4776023623049" font-family="DejaVu Sans, sans-serif" font-size="13.88888888888889" text-anchor="end" fill="#262626">95</text>
<line x1="120.13888888888889" y1="294.7760296470956" x2="125.4" y2="294.7760296470956" stroke="#262626" stroke-width="1.1111111111111112" />
<text x="115.27777777777777" y="298.7760296470956" font-family="DejaVu Sans, sans-serif" font-size="13.88888888888889" text-anchor="end" fill="#262626">96</text>
<line x1="120.13888888888889" y1="270.0744569318863" x2="125.4" y2="270.0744569318863" stroke="#262626" stroke-width="1.1111111111111112" />
<text x="115.27777777777777" y="274.0744569318863" font-family="DejaVu Sans, sans-serif" font-size="13.88888888888889" text-anchor="end" fill="#262626">97</text>
<line x1="120.13888888888889" y1="245.37288421667654" x2="125.4" y2="245.37288421667654" stroke="#262626" stroke-width="1.1111111111111112" />
<text x="115.27777777777777" y="249.37288421667654" font-family="DejaVu Sans, sans-serif" font-size="13.88888888888889" text-anchor="end" fill="#262626">98</text>
<line x1="120.13888888888889" y1="220.67131150146724" x2="125.4" y2="220.67131150146724" stroke="#262626" stroke-width="1.1111111111111112" />
<text x="115.27777777777777" y="224.67131150146724" font-family="DejaVu Sans, sans-serif" font-size="13.88888888888889" text-anchor="end" fill="#262626">99</text>
<line x1="120.13888888888889" y1="195.96973878625795" x2="125.4" y2="195.96973878625795" stroke="#262626" stroke-width="1.1111111111111112" />
<text x="115.27777777777777" y="199.96973878625795" font-family="DejaVu Sans, sans-serif" font-size="13.88888888888889" text-anchor="end" fill="#262626">100</text>
<line x1="120.13888888888889" y1="171.26816607104865" x2="125.4" y2="171.26816607104865" stroke="#262626" stroke-width="1.1111111111111112" />
<text x="115.27777777777777" y="175.26816607104865" font-family="DejaVu Sans, sans-serif" font-size="13.88888888888889" text-anchor="end" fill="#262626">101</text>
<line x1="120.13888888888889" y1="146.56659335583936" x2="125.4" y2="146.56659335583936" stroke="#262626" stroke-width="1.1111111111111112" />
<text x="115.27777777777777" y="150.56659335583936" font-family="DejaVu Sans, sans-serif" font-size="13.88888888888889" text-anchor="end" fill="#262626">102</text>
<line x1="120.13888888888889" y1="121.86502064062961" x2="125.4" y2="121.86502064062961" stroke="#262626" stroke-width="1.1111111111111112" />
<text x="115.27777777777777" y="125.86502064062961" font-family="DejaVu Sans, sans-serif" font-size="13.88888888888889" text-anchor="end" fill="#262626">103</text>
<line x1="120.13888888888889" y1="97.16344792542031" x2="125.4" y2="97.16344792542031" stroke="#262626" stroke-width="1.1111111111111112" />
<text x="115.27777777777777" y="101.16344792542031" font-family="DejaVu Sans, sans-serif" font-size="13.88888888888889" text-anchor="end" fill="#262626">104</text>
<line x1="120.13888888888889" y1="383.70169142184886" x2="125.4" y2="383.70169142184886" stroke="#262626" stroke-width="1.1111111111111112" />
<line x1="120.13888888888889" y1="378.76137687880737" x2="125.4" y2="378.76137687880737" stroke="#262626" stroke-width="1.1111111111111112" />
<line x1="120.13888888888889" y1="373.8210623357654" x2="125.4" y2="373.8210623357654" stroke="#262626" stroke-width="1.1111111111111112" />
<line x1="120.13888888888889" y1="363.9404332496815" x2="125.4" y2="363.9404332496815" stroke="#262626" stroke-width="1.1111111111111112" />
<line x1="120.13888888888889" y1="359.00011870663957" x2="125.4" y2="359.00011870663957" stroke="#262626" stroke-width="1.1111111111111112" />
<line x1="120.13888888888889" y1="354.0598041635981" x2="125.4" y2="354.0598041635981" stroke="#262626" stroke-width="1.1111111111111112" />
<line x1="120.13888888888889" y1="349.1194896205561" x2="125.4" y2="349.1194896205561" stroke="#262626" stroke-width="1.1111111111111112" />
<line x1="120.13888888888889" y1="339.2388605344722" x2="125.4" y2="339.2388605344722" stroke="#262626" stroke-width="1.1111111111111112" />
<line x1="120.13888888888889" y1="334.2985459914303" x2="125.4" y2="334.2985459914303" stroke="#262626" stroke-width="1.1111111111111112" />
<line x1="120.13888888888889" y1="329.3582314483888" x2="125.4" y2="329.3582314483888" stroke="#262626" stroke-width="1.1111111111111112" />
<line x1="120.13888888888889" y1="324.41791690534683" x2="125.4" y2="324.41791690534683" stroke="#262626" stroke-width="1.1111111111111112" />
<line x1="120.13888888888889" y1="314.53728781926293" x2="125.4" y2="314.53728781926293" stroke="#262626" stroke-width="1.1111111111111112" />
<line x1="120.13888888888889" y1="309.596973276221" x2="125.4" y2="309.596973276221" stroke="#262626" stroke-width="1.1111111111111112" />
<line x1="120.13888888888889" y1="304.6566587331795" x2="125.4" y2="304.6566587331795" stroke="#262626" stroke-width="1.1111111111111112" />
<line x1="120.13888888888889" y1="299.71634419013753" x2="125.4" y2="299.71634419013753" stroke="#262626" stroke-width="1.1111111111111112" />
<line x1="120.13888888888889" y1="289.83571510405363" x2="125.4" y2="289.83571510405363" stroke="#262626" stroke-width="1.1111111111111112" />
<line x1="120.13888888888889" y1="284.8954005610117" x2="125.4" y2="284.8954005610117" stroke="#262626" stroke-width="1.1111111111111112" />
<line x1="120.13888888888889" y1="279.9550860179702" x2="125.4" y2="279.9550860179702" stroke="#262626" stroke-width="1.1111111111111112" />
<line x1="120.13888888888889" y1="275.01477147492824" x2="125.4" y2="275.01477147492824" stroke="#262626" stroke-width="1.1111111111111112" />
<line x1="120.13888888888889" y1="265.13414238884434" x2="125.4" y2="265.13414238884434" stroke="#262626" stroke-width="1.1111111111111112" />
<line x1="120.13888888888889" y1="260.1938278458024" x2="125.4" y2="260.1938278458024" stroke="#262626" stroke-width="1.1111111111111112" />
<line x1="120.13888888888889" y1="255.25351330276044" x2="125.4" y2="255.25351330276044" stroke="#262626" stroke-width="1.1111111111111112" />
<line x1="120.13888888888889" y1="250.3131987597185" x2="125.4" y2="250.3131987597185" stroke="#262626" stroke-width="1.1111111111111112" />
<line x1="120.13888888888889" y1="240.4325696736346" x2="125.4" y2="240.4325696736346" stroke="#262626" stroke-width="1.1111111111111112" />
<line x1="120.13888888888889" y1="235.49225513059264" x2="125.4" y2="235.49225513059264" stroke="#262626" stroke-width="1.1111111111111112" />
<line x1="120.13888888888889" y1="230.55194058755114" x2="125.4" y2="230.55194058755114" stroke="#262626" stroke-width="1.1111111111111112" />
<line x1="120.13888888888889" y1="225.6116260445092" x2="125.4" y2="225.6116260445092" stroke="#262626" stroke-width="1.1111111111111112" />
<line x1="120.13888888888889" y1="215.7309969584253" x2="125.4" y2="215.7309969584253" stroke="#262626" stroke-width="1.1111111111111112" />
<line x1="120.13888888888889" y1="210.79068241538334" x2="125.4" y2="210.79068241538334" stroke="#262626" stroke-width="1.1111111111111112" />
<line x1="120.13888888888889" y1="205.85036787234185" x2="125.4" y2="205.85036787234185" stroke="#262626" stroke-width="1.1111111111111112" />
<line x1="120.13888888888889" y1="200.9100533292999" x2="125.4" y2="200.9100533292999" stroke="#262626" stroke-width="1.1111111111111112" />
<line x1="120.13888888888889" y1="191.029424243216" x2="125.4" y2="191.029424243216" stroke="#262626" stroke-width="1.1111111111111112" />
<line x1="120.13888888888889" y1="186.08910970017405" x2="125.4" y2="186.08910970017405" stroke="#262626" stroke-width="1.1111111111111112" />
<line x1="120.13888888888889" y1="181.14879515713255" x2="125.4" y2="181.14879515713255" stroke="#262626" stroke-width="1.1111111111111112" />
<line x1="120.13888888888889" y1="176.2084806140906" x2="125.4" y2="176.2084806140906" stroke="#262626" stroke-width="1.1111111111111112" />
<line x1="120.13888888888889" y1="166.3278515280067" x2="125.4" y2="166.3278515280067" stroke="#262626" stroke-width="1.1111111111111112" />
<line x1="120.13888888888889" y1="161.38753698496475" x2="125.4" y2="161.38753698496475" stroke="#262626" stroke-width="1.1111111111111112" />
<line x1="120.13888888888889" y1="156.44722244192326" x2="125.4" y2="156.44722244192326" stroke="#262626" stroke-width="1.1111111111111112" />
<line x1="120.13888888888889" y1="151.5069078988813" x2="125.4" y2="151.5069078988813" stroke="#262626" stroke-width="1.1111111111111112" />
<line x1="120.13888888888889" y1="141.6262788127974" x2="125.4" y2="141.6262788127974" stroke="#262626" stroke-width="1.1111111111111112" />
<line x1="120.13888888888889" y1="136.68596426975546" x2="125.4" y2="136.68596426975546" stroke="#262626" stroke-width="1.1111111111111112" />
<line x1="120.13888888888889" y1="131.7456497267135" x2="125.4" y2="131.7456497267135" stroke="#262626" stroke-width="1.1111111111111112" />
<line x1="120.13888888888889" y1="126.80533518367156" x2="125.4" y2="126.80533518367156" stroke="#262626" stroke-width="1.1111111111111112" />
<line x1="120.13888888888889" y1="116.92470609758811" x2="125.4" y2="116.92470609758811" stroke="#262626" stroke-width="1.1111111111111112" />
<line x1="120.13888888888889" y1="111.98439155454616" x2="125.4" y2="111.98439155454616" stroke="#262626" stroke-width="1.1111111111111112" />
<line x1="120.13888888888889" y1="107.04407701150421" x2="125.4" y2="107.04407701150421" stroke="#262626" stroke-width="1.1111111111111112" />
<line x1="120.13888888888889" y1="102.10376246846226" x2="125.4" y2="102.10376246846226" stroke="#262626" stroke-width="1.1111111111111112" />
<polyline points="141.70454545454544,210.51063921486275 148.52272727272725,213.26224607783197 155.34090909090907,247.38069308123372 162.15909090909088,197.28377019192908 168.97727272727272,216.1088614281527 175.79545454545453,261.1430870931835 182.61363636363635,286.8576962760945 189.43181818181816,275.7579538790048 196.24999999999997,311.19054707264576 203.06818181818178,284.3990838014796 209.88636363636363,248.77984666219874 216.70454545454544,212.6870724776051 223.52272727272725,198.32762917653199 230.34090909090907,242.8316046698869 237.15909090909088,213.0279584185214 243.9772727272727,231.3300106258325 250.7954545454545,266.70981085967657 257.6136363636363,270.17651035958187 264.43181818181813,263.9499599087797 271.24999999999994,300.7717187990674 278.0681818181818,277.0483558409266 284.8863636363636,312.1295471108774 291.70454545454544,342.499364075099 298.52272727272725,296.80814174351934 305.34090909090907,310.67224406247055 312.1590909090909,270.35919137671556 318.9772727272727,295.20789832996263 325.7954545454545,301.085722405494 332.6136363636363,254.31425930259022 339.43181818181813,205.97898533873692 346.24999999999994,190.73547357522094 353.06818181818176,158.52439461186276 359.8863636363636,186.14779455869848 366.70454545454544,213.9567105610684 373.52272727272725,240.1954360112172 380.34090909090907,260.87952018176446 387.1590909090909,263.4693103703914 393.9772727272727,275.7483202405964 400.7954545454545,230.48868748809826 407.6136363636363,183.4447974243517 414.43181818181813,200.00445733625187 421.24999999999994,245.8010704634142 428.06818181818176,205.2118635712896 434.88636363636357,155.34802316130686 441.7045454545454,199.72512608614255 448.52272727272725,179.4401624705494 455.34090909090907,205.2769057168472 462.1590909090909,220.89713508535164 468.9772727272727,185.07523460107814 475.7954545454545,232.43787159089743" fill="none" stroke="#1F77B4" stroke-width="1.5" />
<g class="series" aria-label="SAR (Long)">
<circle cx="162.15909090909088" cy="159.42994199184523" r="1.5671932876326562" fill="#008000" />
<circle cx="168.97727272727272" cy="330.6786685149047" r="1.5671932876326562" fill="#008000" />
<circle cx="175.79545454545453" cy="330.6786685149047" r="1.5671932876326562" fill="#008000" />
<circle cx="182.61363636363635" cy="323.4989288873481" r="1.5671932876326562" fill="#008000" />
<circle cx="189.43181818181816" cy="316.60637884489364" r="1.5671932876326562" fill="#008000" />
<circle cx="209.88636363636363" cy="204.51983027043585" r="1.5671932876326562" fill="#008000" />
<circle cx="216.70454545454544" cy="338.42872644153016" r="1.5671932876326562" fill="#008000" />
<circle cx="223.52272727272725" cy="331.77990827529936" r="1.5671932876326562" fill="#008000" />
<circle cx="230.34090909090907" cy="316.6310372158268" r="1.5671932876326562" fill="#008000" />
<circle cx="312.1590909090909" cy="237.5349099877646" r="1.5671932876326562" fill="#008000" />
<circle cx="318.9772727272727" cy="360.35024452766106" r="1.5671932876326562" fill="#008000" />
<circle cx="325.7954545454545" cy="360.35024452766106" r="1.5671932876326562" fill="#008000" />
<circle cx="339.43181818181813" cy="198.2631423408202" r="1.5671932876326562" fill="#008000" />
<circle cx="346.24999999999994" cy="370.9090909090907" r="1.5671932876326562" fill="#008000" />
<circle cx="353.06818181818176" cy="357.1348669628008" r="1.5671932876326562" fill="#008000" />
<circle cx="359.8863636363636" cy="336.9421444534505" r="1.5671932876326562" fill="#008000" />
<circle cx="366.70454545454544" cy="318.36483974484827" r="1.5671932876326562" fill="#008000" />
<circle cx="373.52272727272725" cy="301.27371941293404" r="1.5671932876326562" fill="#008000" />
<circle cx="380.34090909090907" cy="285.5498887075731" r="1.5671932876326562" fill="#008000" />
<circle cx="407.6136363636363" cy="179.56518345443118" r="1.5671932876326562" fill="#008000" />
<circle cx="414.43181818181813" cy="351.2838644998041" r="1.5671932876326562" fill="#008000" />
<circle cx="421.24999999999994" cy="342.09117577048414" r="1.5671932876326562" fill="#008000" />
<circle cx="428.06818181818176" cy="333.266194590337" r="1.5671932876326562" fill="#008000" />
<circle cx="434.88636363636357" cy="324.7942126573956" r="1.5671932876326562" fill="#008000" />
<circle cx="441.7045454545454" cy="319.8026645464142" r="1.5671932876326562" fill="#008000" />
<circle cx="448.52272727272725" cy="306.2625614119152" r="1.5671932876326562" fill="#008000" />
<circle cx="455.34090909090907" cy="293.53486446548607" r="1.5671932876326562" fill="#008000" />
<circle cx="462.1590909090909" cy="281.5708293358426" r="1.5671932876326562" fill="#008000" />
<circle cx="475.7954545454545" cy="109.09090909090901" r="1.5671932876326562" fill="#008000" />
</g>
<g class="series" aria-label="SAR (Short)">
<circle cx="141.70454545454544" cy="146.31802414075818" r="1.5671932876326562" fill="#FF0000" />
<circle cx="148.52272727272725" cy="146.31802414075818" r="1.5671932876326562" fill="#FF0000" />
<circle cx="155.34090909090907" cy="146.31802414075818" r="1.5671932876326562" fill="#FF0000" />
<circle cx="196.24999999999997" cy="327.06421521608127" r="1.5671932876326562" fill="#FF0000" />
<circle cx="203.06818181818178" cy="235.08396273949631" r="1.5671932876326562" fill="#FF0000" />
<circle cx="237.15909090909088" cy="316.2777722015098" r="1.5671932876326562" fill="#FF0000" />
<circle cx="243.9772727272727" cy="142.4190200318926" r="1.5671932876326562" fill="#FF0000" />
<circle cx="250.7954545454545" cy="145.8961950752849" r="1.5671932876326562" fill="#FF0000" />
<circle cx="257.6136363636363" cy="152.77199390101154" r="1.5671932876326562" fill="#FF0000" />
<circle cx="264.43181818181813" cy="159.37276077370888" r="1.5671932876326562" fill="#FF0000" />
<circle cx="271.24999999999994" cy="165.70949697149857" r="1.5671932876326562" fill="#FF0000" />
<circle cx="278.0681818181818" cy="176.9878583451035" r="1.5671932876326562" fill="#FF0000" />
<circle cx="284.8863636363636" cy="191.60877303647018" r="1.5671932876326562" fill="#FF0000" />
<circle cx="291.70454545454544" cy="196.97633084418968" r="1.5671932876326562" fill="#FF0000" />
<circle cx="298.52272727272725" cy="196.97633084418968" r="1.5671932876326562" fill="#FF0000" />
<circle cx="305.34090909090907" cy="224.35241135250462" r="1.5671932876326562" fill="#FF0000" />
<circle cx="332.6136363636363" cy="370.9090909090907" r="1.5671932876326562" fill="#FF0000" />
<circle cx="387.1590909090909" cy="296.2021669940183" r="1.5671932876326562" fill="#FF0000" />
<circle cx="393.9772727272727" cy="175.93471594805257" r="1.5671932876326562" fill="#FF0000" />
<circle cx="400.7954545454545" cy="182.94868189012254" r="1.5671932876326562" fill="#FF0000" />
<circle cx="468.9772727272727" cy="305.08124364607966" r="1.5671932876326562" fill="#FF0000" />
</g>
<g class="spine">
<line x1="125" y1="384" x2="492.5" y2="384" stroke="#262626" stroke-width="0.8" />
</g>
<g class="spine">
<line x1="125" y1="96" x2="492.5" y2="96" stroke="#262626" stroke-width="0.8" />
</g>
<g class="spine">
<line x1="125" y1="96" x2="125" y2="384" stroke="#262626" stroke-width="0.8" />
</g>
<g class="spine">
<line x1="492.5" y1="96" x2="492.5" y2="384" stroke="#262626" stroke-width="0.8" />
</g>
<rect x="352.6111111111111" y="106" width="129.88888888888889" height="42.388888888888886" fill="#FFFFFF" fill-opacity="0.8" stroke="#CCCCCC" stroke-width="0.5" />
<g class="legend" aria-label="Chart legend">
<circle cx="365.4722222222222" cy="118.86111111111111" r="2.1766573439342447" fill="#008000" />
<text x="399.49999999999994" y="122.72222222222223" font-family="DejaVu Sans, sans-serif" font-size="13.88888888888889" text-anchor="start" fill="#262626">SAR (Long)</text>
<circle cx="365.4722222222222" cy="135.52777777777777" r="2.1766573439342447" fill="#FF0000" />
<text x="399.49999999999994" y="139.38888888888889" font-family="DejaVu Sans, sans-serif" font-size="13.88888888888889" text-anchor="start" fill="#262626">SAR (Short)</text>
</g>
<text x="308.75" y="88" font-family="DejaVu Sans, sans-serif" font-size="15.88888888888889" text-anchor="middle" font-weight="bold" fill="#262626">Parabolic SAR</text>
<rect x="532.5" y="96" width="367.5" height="288" fill="#FFFFFF" />
<line x1="567.7651515151515" y1="383.6" x2="567.7651515151515" y2="388.8611111111111" stroke="#262626" stroke-width="1.1111111111111112" />
<text x="567.7651515151515" y="407.6111111111111" font-family="DejaVu Sans, sans-serif" font-size="13.88888888888889" text-anchor="middle" fill="#262626">15</text>
<line x1="614.1666666666667" y1="383.6" x2="614.1666666666667" y2="388.8611111111111" stroke="#262626" stroke-width="1.1111111111111112" />
<text x="614.1666666666667" y="407.6111111111111" font-family="DejaVu Sans, sans-serif" font-size="13.88888888888889" text-anchor="middle" fill="#262626">20</text>
<line x1="660.5681818181819" y1="383.6" x2="660.5681818181819" y2="388.8611111111111" stroke="#262626" stroke-width="1.1111111111111112" />
<text x="660.5681818181819" y="407.6111111111111" font-family="DejaVu Sans, sans-serif" font-size="13.88888888888889" text-anchor="middle" fill="#262626">25</text>
<line x1="706.969696969697" y1="383.6" x2="706.969696969697" y2="388.8611111111111" stroke="#262626" stroke-width="1.1111111111111112" />
<text x="706.969696969697" y="407.6111111111111" font-family="DejaVu Sans, sans-serif" font-size="13.88888888888889" text-anchor="middle" fill="#262626">30</text>
<line x1="753.3712121212122" y1="383.6" x2="753.3712121212122" y2="388.8611111111111" stroke="#262626" stroke-width="1.1111111111111112" />
<text x="753.3712121212122" y="407.6111111111111" font-family="DejaVu Sans, sans-serif" font-size="13.88888888888889" text-anchor="middle" fill="#262626">35</text>
<line x1="799.7727272727273" y1="383.6" x2="799.7727272727273" y2="388.8611111111111" stroke="#262626" stroke-width="1.1111111111111112" />
<text x="799.7727272727273" y="407.6111111111111" font-family="DejaVu Sans, sans-serif" font-size="13.88888888888889" text-anchor="middle" fill="#262626">40</text>
<line x1="846.1742424242425" y1="383.6" x2="846.1742424242425" y2="388.8611111111111" stroke="#262626" stroke-width="1.1111111111111112" />
<text x="846.1742424242425" y="407.6111111111111" font-family="DejaVu Sans, sans-serif" font-size="13.88888888888889" text-anchor="middle" fill="#262626">45</text>
<line x1="892.5757575757576" y1="383.6" x2="892.5757575757576" y2="388.8611111111111" stroke="#262626" stroke-width="1.1111111111111112" />
<text x="892.5757575757576" y="407.6111111111111" font-family="DejaVu Sans, sans-serif" font-size="13.88888888888889" text-anchor="middle" fill="#262626">50</text>
<line x1="539.9242424242425" y1="383.6" x2="539.9242424242425" y2="388.8611111111111" stroke="#262626" stroke-width="1.1111111111111112" />
<line x1="549.2045454545455" y1="383.6" x2="549.2045454545455" y2="388.8611111111111" stroke="#262626" stroke-width="1.1111111111111112" />
<line x1="558.4848484848485" y1="383.6" x2="558.4848484848485" y2="388.8611111111111" stroke="#262626" stroke-width="1.1111111111111112" />
<line x1="577.0454545454545" y1="383.6" x2="577.0454545454545" y2="388.8611111111111" stroke="#262626" stroke-width="1.1111111111111112" />
<line x1="586.3257575757576" y1="383.6" x2="586.3257575757576" y2="388.8611111111111" stroke="#262626" stroke-width="1.1111111111111112" />
<line x1="595.6060606060606" y1="383.6" x2="595.6060606060606" y2="388.8611111111111" stroke="#262626" stroke-width="1.1111111111111112" />
<line x1="604.8863636363636" y1="383.6" x2="604.8863636363636" y2="388.8611111111111" stroke="#262626" stroke-width="1.1111111111111112" />
<line x1="623.4469696969697" y1="383.6" x2="623.4469696969697" y2="388.8611111111111" stroke="#262626" stroke-width="1.1111111111111112" />
<line x1="632.7272727272727" y1="383.6" x2="632.7272727272727" y2="388.8611111111111" stroke="#262626" stroke-width="1.1111111111111112" />
<line x1="642.0075757575758" y1="383.6" x2="642.0075757575758" y2="388.8611111111111" stroke="#262626" stroke-width="1.1111111111111112" />
<line x1="651.2878787878788" y1="383.6" x2="651.2878787878788" y2="388.8611111111111" stroke="#262626" stroke-width="1.1111111111111112" />
<line x1="669.8484848484849" y1="383.6" x2="669.8484848484849" y2="388.8611111111111" stroke="#262626" stroke-width="1.1111111111111112" />
<line x1="679.1287878787879" y1="383.6" x2="679.1287878787879" y2="388.8611111111111" stroke="#262626" stroke-width="1.1111111111111112" />
<line x1="688.409090909091" y1="383.6" x2="688.409090909091" y2="388.8611111111111" stroke="#262626" stroke-width="1.1111111111111112" />
<line x1="697.689393939394" y1="383.6" x2="697.689393939394" y2="388.8611111111111" stroke="#262626" stroke-width="1.1111111111111112" />
<line x1="716.25" y1="383.6" x2="716.25" y2="388.8611111111111" stroke="#262626" stroke-width="1.1111111111111112" />
<line x1="725.530303030303" y1="383.6" x2="725.530303030303" y2="388.8611111111111" stroke="#262626" stroke-width="1.1111111111111112" />
<line x1="734.810606060606" y1="383.6" x2="734.810606060606" y2="388.8611111111111" stroke="#262626" stroke-width="1.1111111111111112" />
<line x1="744.0909090909091" y1="383.6" x2="744.0909090909091" y2="388.8611111111111" stroke="#262626" stroke-width="1.1111111111111112" />
<line x1="762.6515151515152" y1="383.6" x2="762.6515151515152" y2="388.8611111111111" stroke="#262626" stroke-width="1.1111111111111112" />
<line x1="771.9318181818182" y1="383.6" x2="771.9318181818182" y2="388.8611111111111" stroke="#262626" stroke-width="1.1111111111111112" />
<line x1="781.2121212121212" y1="383.6" x2="781.2121212121212" y2="388.8611111111111" stroke="#262626" stroke-width="1.1111111111111112" />
<line x1="790.4924242424242" y1="383.6" x2="790.4924242424242" y2="388.8611111111111" stroke="#262626" stroke-width="1.1111111111111112" />
<line x1="809.0530303030303" y1="383.6" x2="809.0530303030303" y2="388.8611111111111" stroke="#262626" stroke-width="1.1111111111111112" />
<line x1="818.3333333333334" y1="383.6" x2="818.3333333333334" y2="388.8611111111111" stroke="#262626" stroke-width="1.1111111111111112" />
<line x1="827.6136363636365" y1="383.6" x2="827.6136363636365" y2="388.8611111111111" stroke="#262626" stroke-width="1.1111111111111112" />
<line x1="836.8939393939395" y1="383.6" x2="836.8939393939395" y2="388.8611111111111" stroke="#262626" stroke-width="1.1111111111111112" />
<line x1="855.4545454545455" y1="383.6" x2="855.4545454545455" y2="388.8611111111111" stroke="#262626" stroke-width="1.1111111111111112" />
<line x1="864.7348484848485" y1="383.6" x2="864.7348484848485" y2="388.8611111111111" stroke="#262626" stroke-width="1.1111111111111112" />
<line x1="874.0151515151515" y1="383.6" x2="874.0151515151515" y2="388.8611111111111" stroke="#262626" stroke-width="1.1111111111111112" />
<line x1="883.2954545454545" y1="383.6" x2="883.2954545454545" y2="388.8611111111111" stroke="#262626" stroke-width="1.1111111111111112" />
<line x1="527.6388888888889" y1="384" x2="532.9" y2="384" stroke="#262626" stroke-width="1.1111111111111112" />
<text x="522.7777777777778" y="388" font-family="DejaVu Sans, sans-serif" font-size="13.88888888888889" text-anchor="end" fill="#262626">-100</text>
<line x1="527.6388888888889" y1="355.2" x2="532.9" y2="355.2" stroke="#262626" stroke-width="1.1111111111111112" />
<text x="522.7777777777778" y="359.2" font-family="DejaVu Sans, sans-serif" font-size="13.88888888888889" text-anchor="end" fill="#262626">-90</text>
<line x1="527.6388888888889" y1="326.4" x2="532.9" y2="326.4" stroke="#262626" stroke-width="1.1111111111111112" />
<text x="522.7777777777778" y="330.4" font-family="DejaVu Sans, sans-serif" font-size="13.88888888888889" text-anchor="end" fill="#262626">-80</text>
<line x1="527.6388888888889" y1="297.6" x2="532.9" y2="297.6" stroke="#262626" stroke-width="1.1111111111111112" />
<text x="522.7777777777778" y="301.6" font-family="DejaVu Sans, sans-serif" font-size="13.88888888888889" text-anchor="end" fill="#262626">-70</text>
<line x1="527.6388888888889" y1="268.79999999999995" x2="532.9" y2="268.79999999999995" stroke="#262626" stroke-width="1.1111111111111112" />
<text x="522.7777777777778" y="272.79999999999995" font-family="DejaVu Sans, sans-serif" font-size="13.88888888888889" text-anchor="end" fill="#262626">-60</text>
<line x1="527.6388888888889" y1="240" x2="532.9" y2="240" stroke="#262626" stroke-width="1.1111111111111112" />
<text x="522.7777777777778" y="244" font-family="DejaVu Sans, sans-serif" font-size="13.88888888888889" text-anchor="end" fill="#262626">-50</text>
<line x1="527.6388888888889" y1="211.2" x2="532.9" y2="211.2" stroke="#262626" stroke-width="1.1111111111111112" />
<text x="522.7777777777778" y="215.2" font-family="DejaVu Sans, sans-serif" font-size="13.88888888888889" text-anchor="end" fill="#262626">-40</text>
<line x1="527.6388888888889" y1="182.39999999999998" x2="532.9" y2="182.39999999999998" stroke="#262626" stroke-width="1.1111111111111112" />
<text x="522.7777777777778" y="186.39999999999998" font-family="DejaVu Sans, sans-serif" font-size="13.88888888888889" text-anchor="end" fill="#262626">-30</text>
<line x1="527.6388888888889" y1="153.6" x2="532.9" y2="153.6" stroke="#262626" stroke-width="1.1111111111111112" />
<text x="522.7777777777778" y="157.6" font-family="DejaVu Sans, sans-serif" font-size="13.88888888888889" text-anchor="end" fill="#262626">-20</text>
<line x1="527.6388888888889" y1="124.8" x2="532.9" y2="124.8" stroke="#262626" stroke-width="1.1111111111111112" />
<text x="522.7777777777778" y="128.8" font-family="DejaVu Sans, sans-serif" font-size="13.88888888888889" text-anchor="end" fill="#262626">-10</text>
<line x1="527.6388888888889" y1="96" x2="532.9" y2="96" stroke="#262626" stroke-width="1.1111111111111112" />
<text x="522.7777777777778" y="100" font-family="DejaVu Sans, sans-serif" font-size="13.88888888888889" text-anchor="end" fill="#262626">0</text>
<line x1="527.6388888888889" y1="378.24" x2="532.9" y2="378.24" stroke="#262626" stroke-width="1.1111111111111112" />
<line x1="527.6388888888889" y1="372.48" x2="532.9" y2="372.48" stroke="#262626" stroke-width="1.1111111111111112" />
<line x1="527.6388888888889" y1="366.71999999999997" x2="532.9" y2="366.71999999999997" stroke="#262626" stroke-width="1.1111111111111112" />
<line x1="527.6388888888889" y1="360.96" x2="532.9" y2="360.96" stroke="#262626" stroke-width="1.1111111111111112" />
<line x1="527.6388888888889" y1="349.44" x2="532.9" y2="349.44" stroke="#262626" stroke-width="1.1111111111111112" />
<line x1="527.6388888888889" y1="343.67999999999995" x2="532.9" y2="343.67999999999995" stroke="#262626" stroke-width="1.1111111111111112" />
<line x1="527.6388888888889" y1="337.91999999999996" x2="532.9" y2="337.91999999999996" stroke="#262626" stroke-width="1.1111111111111112" />
<line x1="527.6388888888889" y1="332.15999999999997" x2="532.9" y2="332.15999999999997" stroke="#262626" stroke-width="1.1111111111111112" />
<line x1="527.6388888888889" y1="320.64" x2="532.9" y2="320.64" stroke="#262626" stroke-width="1.1111111111111112" />
<line x1="527.6388888888889" y1="314.88" x2="532.9" y2="314.88" stroke="#262626" stroke-width="1.1111111111111112" />
<line x1="527.6388888888889" y1="309.12" x2="532.9" y2="309.12" stroke="#262626" stroke-width="1.1111111111111112" />
<line x1="527.6388888888889" y1="303.36" x2="532.9" y2="303.36" stroke="#262626" stroke-width="1.1111111111111112" />
<line x1="527.6388888888889" y1="291.84000000000003" x2="532.9" y2="291.84000000000003" stroke="#262626" stroke-width="1.1111111111111112" />
<line x1="527.6388888888889" y1="286.08" x2="532.9" y2="286.08" stroke="#262626" stroke-width="1.1111111111111112" />
<line x1="527.6388888888889" y1="280.32" x2="532.9" y2="280.32" stroke="#262626" stroke-width="1.1111111111111112" />
<line x1="527.6388888888889" y1="274.56" x2="532.9" y2="274.56" stroke="#262626" stroke-width="1.1111111111111112" />
<line x1="527.6388888888889" y1="263.03999999999996" x2="532.9" y2="263.03999999999996" stroke="#262626" stroke-width="1.1111111111111112" />
<line x1="527.6388888888889" y1="257.28" x2="532.9" y2="257.28" stroke="#262626" stroke-width="1.1111111111111112" />
<line x1="527.6388888888889" y1="251.51999999999998" x2="532.9" y2="251.51999999999998" stroke="#262626" stroke-width="1.1111111111111112" />
<line x1="527.6388888888889" y1="245.76" x2="532.9" y2="245.76" stroke="#262626" stroke-width="1.1111111111111112" />
<line x1="527.6388888888889" y1="234.24" x2="532.9" y2="234.24" stroke="#262626" stroke-width="1.1111111111111112" />
<line x1="527.6388888888889" y1="228.48" x2="532.9" y2="228.48" stroke="#262626" stroke-width="1.1111111111111112" />
<line x1="527.6388888888889" y1="222.72" x2="532.9" y2="222.72" stroke="#262626" stroke-width="1.1111111111111112" />
<line x1="527.6388888888889" y1="216.95999999999998" x2="532.9" y2="216.95999999999998" stroke="#262626" stroke-width="1.1111111111111112" />
<line x1="527.6388888888889" y1="205.44" x2="532.9" y2="205.44" stroke="#262626" stroke-width="1.1111111111111112" />
<line x1="527.6388888888889" y1="199.68" x2="532.9" y2="199.68" stroke="#262626" stroke-width="1.1111111111111112" />
<line x1="527.6388888888889" y1="193.92000000000002" x2="532.9" y2="193.92000000000002" stroke="#262626" stroke-width="1.1111111111111112" />
<line x1="527.6388888888889" y1="188.16" x2="532.9" y2="188.16" stroke="#262626" stroke-width="1.1111111111111112" />
<line x1="527.6388888888889" y1="176.64" x2="532.9" y2="176.64" stroke="#262626" stroke-width="1.1111111111111112" />
<line x1="527.6388888888889" y1="170.88" x2="532.9" y2="170.88" stroke="#262626" stroke-width="1.1111111111111112" />
<line x1="527.6388888888889" y1="165.12" x2="532.9" y2="165.12" stroke="#262626" stroke-width="1.1111111111111112" />
<line x1="527.6388888888889" y1="159.36" x2="532.9" y2="159.36" stroke="#262626" stroke-width="1.1111111111111112" />
<line x1="527.6388888888889" y1="147.84" x2="532.9" y2="147.84" stroke="#262626" stroke-width="1.1111111111111112" />
<line x1="527.6388888888889" y1="142.07999999999998" x2="532.9" y2="142.07999999999998" stroke="#262626" stroke-width="1.1111111111111112" />
<line x1="527.6388888888889" y1="136.32" x2="532.9" y2="136.32" stroke="#262626" stroke-width="1.1111111111111112" />
<line x1="527.6388888888889" y1="130.56" x2="532.9" y2="130.56" stroke="#262626" stroke-width="1.1111111111111112" />
<line x1="527.6388888888889" y1="119.03999999999999" x2="532.9" y2="119.03999999999999" stroke="#262626" stroke-width="1.1111111111111112" />
<line x1="527.6388888888889" y1="113.28" x2="532.9" y2="113.28" stroke="#262626" stroke-width="1.1111111111111112" />
<line x1="527.6388888888889" y1="107.52" x2="532.9" y2="107.52" stroke="#262626" stroke-width="1.1111111111111112" />
<line x1="527.6388888888889" y1="101.76" x2="532.9" y2="101.76" stroke="#262626" stroke-width="1.1111111111111112" />
<line x1="532.5" y1="153.6" x2="900" y2="153.6" stroke="#808080" stroke-width="1" stroke-dasharray="5,2" />
<line x1="532.5" y1="326.4" x2="900" y2="326.4" stroke="#808080" stroke-width="1" stroke-dasharray="5,2" />
<g class="series" aria-label="%R(14)">
<polyline points="549.2045454545455,243.5377158889538 558.4848484848485,199.74677166675878 567.7651515151515,226.63825134016759 577.0454545454545,278.6223222006813 586.3257575757576,283.7159957450219 595.6060606060606,274.5672318257324 604.8863636363636,328.6699941564933 614.1666666666667,279.53056690106695 623.4469696969697,320.89564550309 632.7272727272727,349.9954406159563 642.0075757575758,253.28840854328553 651.2878787878788,267.41286605333096 660.5681818181819,226.3427710222345 669.8484848484849,251.65811401858227 679.1287878787879,245.93493206550048 688.409090909091,193.86861158733905 697.689393939394,140.0614459003311 706.969696969697,123.50403903318806 716.25,113.44177942324716 725.530303030303,169.19181863988496 734.8106060606061,194.18980643759633 744.0909090909091,217.77631871209203 753.3712121212121,236.36965344179205 762.6515151515152,238.69766736108366 771.9318181818182,281.03972205057613 781.2121212121212,232.07054772222165 790.4924242424242,181.17087590620605 799.7727272727273,199.08778825674523 809.0530303030304,248.6379546077622 818.3333333333334,213.3759223561439 827.6136363636364,155.130867015953 836.8939393939395,214.25865441918714 846.1742424242425,191.54008962240968 855.4545454545455,220.47648491017392 864.7348484848485,237.97068405066952 874.0151515151515,197.85120527230507 883.2954545454545,250.89597073455752" fill="none" stroke="#1F77B4" stroke-width="1.5" />
</g>
<g class="spine">
<line x1="532.5" y1="384" x2="900" y2="384" stroke="#262626" stroke-width="0.8" />
</g>
<g class="spine">
<line x1="532.5" y1="96" x2="900" y2="96" stroke="#262626" stroke-width="0.8" />
</g>
<g class="spine">
<line x1="532.5" y1="96" x2="532.5" y2="384" stroke="#262626" stroke-width="0.8" />
</g>
<g class="spine">
<line x1="900" y1="96" x2="900" y2="384" stroke="#262626" stroke-width="0.8" />
</g>
<rect x="788.7222222222222" y="106" width="101.27777777777777" height="25.72222222222222" fill="#FFFFFF" fill-opacity="0.8" stroke="#CCCCCC" stroke-width="0.5" />
<g class="legend" aria-label="Chart legend">
<line x1="796.7222222222222" y1="118.86111111111111" x2="824.5" y2="118.86111111111111" stroke="#1F77B4" stroke-width="1.5" />
<text x="835.6111111111111" y="122.72222222222223" font-family="DejaVu Sans, sans-serif" font-size="13.88888888888889" text-anchor="start" fill="#262626">%R(14)</text>
</g>
<text x="716.25" y="88" font-family="DejaVu Sans, sans-serif" font-size="15.88888888888889" text-anchor="middle" font-weight="bold" fill="#262626">Williams %R</text>
<rect x="125" y="424" width="367.5" height="288" fill="#FFFFFF" />
<line x1="141.70454545454544" y1="711.6" x2="141.70454545454544" y2="716.8611111111111" stroke="#262626" stroke-width="1.1111111111111112" />
<text x="141.70454545454544" y="735.6111111111111" font-family="DejaVu Sans, sans-serif" font-size="13.88888888888889" text-anchor="middle" fill="#262626">0</text>
<line x1="175.79545454545453" y1="711.6" x2="175.79545454545453" y2="716.8611111111111" stroke="#262626" stroke-width="1.1111111111111112" />
<text x="175.79545454545453" y="735.6111111111111" font-family="DejaVu Sans, sans-serif" font-size="13.88888888888889" text-anchor="middle" fill="#262626">5</text>
<line x1="209.88636363636363" y1="711.6" x2="209.88636363636363" y2="716.8611111111111" stroke="#262626" stroke-width="1.1111111111111112" />
<text x="209.88636363636363" y="735.6111111111111" font-family="DejaVu Sans, sans-serif" font-size="13.88888888888889" text-anchor="middle" fill="#262626">10</text>
<line x1="243.9772727272727" y1="711.6" x2="243.9772727272727" y2="716.8611111111111" stroke="#262626" stroke-width="1.1111111111111112" />
<text x="243.9772727272727" y="735.6111111111111" font-family="DejaVu Sans, sans-serif" font-size="13.88888888888889" text-anchor="middle" fill="#262626">15</text>
<line x1="278.06818181818176" y1="711.6" x2="278.06818181818176" y2="716.8611111111111" stroke="#262626" stroke-width="1.1111111111111112" />
<text x="278.06818181818176" y="735.6111111111111" font-family="DejaVu Sans, sans-serif" font-size="13.88888888888889" text-anchor="middle" fill="#262626">20</text>
<line x1="312.1590909090909" y1="711.6" x2="312.1590909090909" y2="716.8611111111111" stroke="#262626" stroke-width="1.1111111111111112" />
<text x="312.1590909090909" y="735.6111111111111" font-family="DejaVu Sans, sans-serif" font-size="13.88888888888889" text-anchor="middle" fill="#262626">25</text>
<line x1="346.25" y1="711.6" x2="346.25" y2="716.8611111111111" stroke="#262626" stroke-width="1.1111111111111112" />
<text x="346.25" y="735.6111111111111" font-family="DejaVu Sans, sans-serif" font-size="13.88888888888889" text-anchor="middle" fill="#262626">30</text>
<line x1="380.340909090909" y1="711.6" x2="380.340909090909" y2="716.8611111111111" stroke="#262626" stroke-width="1.1111111111111112" />
<text x="380.340909090909" y="735.6111111111111" font-family="DejaVu Sans, sans-serif" font-size="13.88888888888889" text-anchor="middle" fill="#262626">35</text>
<line x1="414.43181818181813" y1="711.6" x2="414.43181818181813" y2="716.8611111111111" stroke="#262626" stroke-width="1.1111111111111112" />
<text x="414.43181818181813" y="735.6111111111111" font-family="DejaVu Sans, sans-serif" font-size="13.88888888888889" text-anchor="middle" fill="#262626">40</text>
<line x1="448.52272727272725" y1="711.6" x2="448.52272727272725" y2="716.8611111111111" stroke="#262626" stroke-width="1.1111111111111112" />
<text x="448.52272727272725" y="735.6111111111111" font-family="DejaVu Sans, sans-serif" font-size="13.88888888888889" text-anchor="middle" fill="#262626">45</text>
<line x1="482.6136363636363" y1="711.6" x2="482.6136363636363" y2="716.8611111111111" stroke="#262626" stroke-width="1.1111111111111112" />
<text x="482.6136363636363" y="735.6111111111111" font-family="DejaVu Sans, sans-serif" font-size="13.88888888888889" text-anchor="middle" fill="#262626">50</text>
<line x1="128.0681818181818" y1="711.6" x2="128.0681818181818" y2="716.8611111111111" stroke="#262626" stroke-width="1.1111111111111112" />
<line x1="134.88636363636363" y1="711.6" x2="134.88636363636363" y2="716.8611111111111" stroke="#262626" stroke-width="1.1111111111111112" />
<line x1="148.52272727272725" y1="711.6" x2="148.52272727272725" y2="716.8611111111111" stroke="#262626" stroke-width="1.1111111111111112" />
<line x1="155.34090909090907" y1="711.6" x2="155.34090909090907" y2="716.8611111111111" stroke="#262626" stroke-width="1.1111111111111112" />
<line x1="162.15909090909088" y1="711.6" x2="162.15909090909088" y2="716.8611111111111" stroke="#262626" stroke-width="1.1111111111111112" />
<line x1="168.97727272727272" y1="711.6" x2="168.97727272727272" y2="716.8611111111111" stroke="#262626" stroke-width="1.1111111111111112" />
<line x1="182.61363636363635" y1="711.6" x2="182.61363636363635" y2="716.8611111111111" stroke="#262626" stroke-width="1.1111111111111112" />
<line x1="189.43181818181816" y1="711.6" x2="189.43181818181816" y2="716.8611111111111" stroke="#262626" stroke-width="1.1111111111111112" />
<line x1="196.24999999999997" y1="711.6" x2="196.24999999999997" y2="716.8611111111111" stroke="#262626" stroke-width="1.1111111111111112" />
<line x1="203.0681818181818" y1="711.6" x2="203.0681818181818" y2="716.8611111111111" stroke="#262626" stroke-width="1.1111111111111112" />
<line x1="216.70454545454544" y1="711.6" x2="216.70454545454544" y2="716.8611111111111" stroke="#262626" stroke-width="1.1111111111111112" />
<line x1="223.52272727272725" y1="711.6" x2="223.52272727272725" y2="716.8611111111111" stroke="#262626" stroke-width="1.1111111111111112" />
<line x1="230.34090909090907" y1="711.6" x2="230.34090909090907" y2="716.8611111111111" stroke="#262626" stroke-width="1.1111111111111112" />
<line x1="237.15909090909088" y1="711.6" x2="237.15909090909088" y2="716.8611111111111" stroke="#262626" stroke-width="1.1111111111111112" />
<line x1="250.7954545454545" y1="711.6" x2="250.7954545454545" y2="716.8611111111111" stroke="#262626" stroke-width="1.1111111111111112" />
<line x1="257.6136363636363" y1="711.6" x2="257.6136363636363" y2="716.8611111111111" stroke="#262626" stroke-width="1.1111111111111112" />
<line x1="264.43181818181813" y1="711.6" x2="264.43181818181813" y2="716.8611111111111" stroke="#262626" stroke-width="1.1111111111111112" />
<line x1="271.25" y1="711.6" x2="271.25" y2="716.8611111111111" stroke="#262626" stroke-width="1.1111111111111112" />
<line x1="284.8863636363636" y1="711.6" x2="284.8863636363636" y2="716.8611111111111" stroke="#262626" stroke-width="1.1111111111111112" />
<line x1="291.7045454545454" y1="711.6" x2="291.7045454545454" y2="716.8611111111111" stroke="#262626" stroke-width="1.1111111111111112" />
<line x1="298.52272727272725" y1="711.6" x2="298.52272727272725" y2="716.8611111111111" stroke="#262626" stroke-width="1.1111111111111112" />
<line x1="305.34090909090907" y1="711.6" x2="305.34090909090907" y2="716.8611111111111" stroke="#262626" stroke-width="1.1111111111111112" />
<line x1="318.9772727272727" y1="711.6" x2="318.9772727272727" y2="716.8611111111111" stroke="#262626" stroke-width="1.1111111111111112" />
<line x1="325.7954545454545" y1="711.6" x2="325.7954545454545" y2="716.8611111111111" stroke="#262626" stroke-width="1.1111111111111112" />
<line x1="332.6136363636363" y1="711.6" x2="332.6136363636363" y2="716.8611111111111" stroke="#262626" stroke-width="1.1111111111111112" />
<line x1="339.43181818181813" y1="711.6" x2="339.43181818181813" y2="716.8611111111111" stroke="#262626" stroke-width="1.1111111111111112" />
<line x1="353.06818181818176" y1="711.6" x2="353.06818181818176" y2="716.8611111111111" stroke="#262626" stroke-width="1.1111111111111112" />
<line x1="359.8863636363636" y1="711.6" x2="359.8863636363636" y2="716.8611111111111" stroke="#262626" stroke-width="1.1111111111111112" />
<line x1="366.7045454545454" y1="711.6" x2="366.7045454545454" y2="716.8611111111111" stroke="#262626" stroke-width="1.1111111111111112" />
<line x1="373.52272727272725" y1="711.6" x2="373.52272727272725" y2="716.8611111111111" stroke="#262626" stroke-width="1.1111111111111112" />
<line x1="387.1590909090909" y1="711.6" x2="387.1590909090909" y2="716.8611111111111" stroke="#262626" stroke-width="1.1111111111111112" />
<line x1="393.9772727272727" y1="711.6" x2="393.9772727272727" y2="716.8611111111111" stroke="#262626" stroke-width="1.1111111111111112" />
<line x1="400.7954545454545" y1="711.6" x2="400.7954545454545" y2="716.8611111111111" stroke="#262626" stroke-width="1.1111111111111112" />
<line x1="407.6136363636363" y1="711.6" x2="407.6136363636363" y2="716.8611111111111" stroke="#262626" stroke-width="1.1111111111111112" />
<line x1="421.24999999999994" y1="711.6" x2="421.24999999999994" y2="716.8611111111111" stroke="#262626" stroke-width="1.1111111111111112" />
<line x1="428.06818181818176" y1="711.6" x2="428.06818181818176" y2="716.8611111111111" stroke="#262626" stroke-width="1.1111111111111112" />
<line x1="434.88636363636357" y1="711.6" x2="434.88636363636357" y2="716.8611111111111" stroke="#262626" stroke-width="1.1111111111111112" />
<line x1="441.7045454545454" y1="711.6" x2="441.7045454545454" y2="716.8611111111111" stroke="#262626" stroke-width="1.1111111111111112" />
<line x1="455.34090909090907" y1="711.6" x2="455.34090909090907" y2="716.8611111111111" stroke="#262626" stroke-width="1.1111111111111112" />
<line x1="462.1590909090909" y1="711.6" x2="462.1590909090909" y2="716.8611111111111" stroke="#262626" stroke-width="1.1111111111111112" />
<line x1="468.9772727272727" y1="711.6" x2="468.9772727272727" y2="716.8611111111111" stroke="#262626" stroke-width="1.1111111111111112" />
<line x1="475.7954545454545" y1="711.6" x2="475.7954545454545" y2="716.8611111111111" stroke="#262626" stroke-width="1.1111111111111112" />
<line x1="489.43181818181813" y1="711.6" x2="489.43181818181813" y2="716.8611111111111" stroke="#262626" stroke-width="1.1111111111111112" />
<line x1="120.13888888888889" y1="694.617907286869" x2="125.4" y2="694.617907286869" stroke="#262626" stroke-width="1.1111111111111112" />
<text x="115.27777777777777" y="698.617907286869" font-family="DejaVu Sans, sans-serif" font-size="13.88888888888889" text-anchor="end" fill="#262626">-7E+05</text>
<line x1="120.13888888888889" y1="666.6807307188773" x2="125.4" y2="666.6807307188773" stroke="#262626" stroke-width="1.1111111111111112" />
<text x="115.27777777777777" y="670.6807307188773" font-family="DejaVu Sans, sans-serif" font-size="13.88888888888889" text-anchor="end" fill="#262626">-6E+05</text>
<line x1="120.13888888888889" y1="638.7435541508855" x2="125.4" y2="638.7435541508855" stroke="#262626" stroke-width="1.1111111111111112" />
<text x="115.27777777777777" y="642.7435541508855" font-family="DejaVu Sans, sans-serif" font-size="13.88888888888889" text-anchor="end" fill="#262626">-5E+05</text>
<line x1="120.13888888888889" y1="610.8063775828939" x2="125.4" y2="610.8063775828939" stroke="#262626" stroke-width="1.1111111111111112" />
<text x="115.27777777777777" y="614.8063775828939" font-family="DejaVu Sans, sans-serif" font-size="13.88888888888889" text-anchor="end" fill="#262626">-4E+05</text>
<line x1="120.13888888888889" y1="582.8692010149023" x2="125.4" y2="582.8692010149023" stroke="#262626" stroke-width="1.1111111111111112" />
<text x="115.27777777777777" y="586.8692010149023" font-family="DejaVu Sans, sans-serif" font-size="13.88888888888889" text-anchor="end" fill="#262626">-3E+05</text>
<line x1="120.13888888888889" y1="554.9320244469105" x2="125.4" y2="554.9320244469105" stroke="#262626" stroke-width="1.1111111111111112" />
<text x="115.27777777777777" y="558.9320244469105" font-family="DejaVu Sans, sans-serif" font-size="13.88888888888889" text-anchor="end" fill="#262626">-2E+05</text>
<line x1="120.13888888888889" y1="526.9948478789189" x2="125.4" y2="526.9948478789189" stroke="#262626" stroke-width="1.1111111111111112" />
<text x="115.27777777777777" y="530.9948478789189" font-family="DejaVu Sans, sans-serif" font-size="13.88888888888889" text-anchor="end" fill="#262626">-1E+05</text>
<line x1="120.13888888888889" y1="499.05767131092716" x2="125.4" y2="499.05767131092716" stroke="#262626" stroke-width="1.1111111111111112" />
<text x="115.27777777777777" y="503.05767131092716" font-family="DejaVu Sans, sans-serif" font-size="13.88888888888889" text-anchor="end" fill="#262626">0</text>
<line x1="120.13888888888889" y1="471.1204947429355" x2="125.4" y2="471.1204947429355" stroke="#262626" stroke-width="1.1111111111111112" />
<text x="115.27777777777777" y="475.1204947429355" font-family="DejaVu Sans, sans-serif" font-size="13.88888888888889" text-anchor="end" fill="#262626">1E+05</text>
<line x1="120.13888888888889" y1="443.1833181749438" x2="125.4" y2="443.1833181749438" stroke="#262626" stroke-width="1.1111111111111112" />
<text x="115.27777777777777" y="447.1833181749438" font-family="DejaVu Sans, sans-serif" font-size="13.88888888888889" text-anchor="end" fill="#262626">2E+05</text>
<line x1="120.13888888888889" y1="711.380213227664" x2="125.4" y2="711.380213227664" stroke="#262626" stroke-width="1.1111111111111112" />
<line x1="120.13888888888889" y1="705.7927779140657" x2="125.4" y2="705.7927779140657" stroke="#262626" stroke-width="1.1111111111111112" />
<line x1="120.13888888888889" y1="700.2053426004672" x2="125.4" y2="700.2053426004672" stroke="#262626" stroke-width="1.1111111111111112" />
<line x1="120.13888888888889" y1="689.0304719732707" x2="125.4" y2="689.0304719732707" stroke="#262626" stroke-width="1.1111111111111112" />
<line x1="120.13888888888889" y1="683.4430366596723" x2="125.4" y2="683.4430366596723" stroke="#262626" stroke-width="1.1111111111111112" />
<line x1="120.13888888888889" y1="677.855601346074" x2="125.4" y2="677.855601346074" stroke="#262626" stroke-width="1.1111111111111112" />
<line x1="120.13888888888889" y1="672.2681660324756" x2="125.4" y2="672.2681660324756" stroke="#262626" stroke-width="1.1111111111111112" />
<line x1="120.13888888888889" y1="661.0932954052789" x2="125.4" y2="661.0932954052789" stroke="#262626" stroke-width="1.1111111111111112" />
<line x1="120.13888888888889" y1="655.5058600916806" x2="125.4" y2="655.5058600916806" stroke="#262626" stroke-width="1.1111111111111112" />
<line x1="120.13888888888889" y1="649.9184247780822" x2="125.4" y2="649.9184247780822" stroke="#262626" stroke-width="1.1111111111111112" />
<line x1="120.13888888888889" y1="644.330989464484" x2="125.4" y2="644.330989464484" stroke="#262626" stroke-width="1.1111111111111112" />
<line x1="120.13888888888889" y1="633.1561188372873" x2="125.4" y2="633.1561188372873" stroke="#262626" stroke-width="1.1111111111111112" />
<line x1="120.13888888888889" y1="627.568683523689" x2="125.4" y2="627.568683523689" stroke="#262626" stroke-width="1.1111111111111112" />
<line x1="120.13888888888889" y1="621.9812482100906" x2="125.4" y2="621.9812482100906" stroke="#262626" stroke-width="1.1111111111111112" />
<line x1="120.13888888888889" y1="616.3938128964922" x2="125.4" y2="616.3938128964922" stroke="#262626" stroke-width="1.1111111111111112" />
<line x1="120.13888888888889" y1="605.2189422692956" x2="125.4" y2="605.2189422692956" stroke="#262626" stroke-width="1.1111111111111112" />
<line x1="120.13888888888889" y1="599.6315069556972" x2="125.4" y2="599.6315069556972" stroke="#262626" stroke-width="1.1111111111111112" />
<line x1="120.13888888888889" y1="594.0440716420989" x2="125.4" y2="594.0440716420989" stroke="#262626" stroke-width="1.1111111111111112" />
<line x1="120.13888888888889" y1="588.4566363285005" x2="125.4" y2="588.4566363285005" stroke="#262626" stroke-width="1.1111111111111112" />
<line x1="120.13888888888889" y1="577.2817657013039" x2="125.4" y2="577.2817657013039" stroke="#262626" stroke-width="1.1111111111111112" />
<line x1="120.13888888888889" y1="571.6943303877056" x2="125.4" y2="571.6943303877056" stroke="#262626" stroke-width="1.1111111111111112" />
<line x1="120.13888888888889" y1="566.1068950741072" x2="125.4" y2="566.1068950741072" stroke="#262626" stroke-width="1.1111111111111112" />
<line x1="120.13888888888889" y1="560.5194597605089" x2="125.4" y2="560.5194597605089" stroke="#262626" stroke-width="1.1111111111111112" />
<line x1="120.13888888888889" y1="549.3445891333122" x2="125.4" y2="549.3445891333122" stroke="#262626" stroke-width="1.1111111111111112" />
<line x1="120.13888888888889" y1="543.7571538197138" x2="125.4" y2="543.7571538197138" stroke="#262626" stroke-width="1.1111111111111112" />
<line x1="120.13888888888889" y1="538.1697185061155" x2="125.4" y2="538.1697185061155" stroke="#262626" stroke-width="1.1111111111111112" />
<line x1="120.13888888888889" y1="532.5822831925171" x2="125.4" y2="532.5822831925171" stroke="#262626" stroke-width="1.1111111111111112" />
<line x1="120.13888888888889" y1="521.4074125653206" x2="125.4" y2="521.4074125653206" stroke="#262626" stroke-width="1.1111111111111112" />
<line x1="120.13888888888889" y1="515.8199772517222" x2="125.4" y2="515.8199772517222" stroke="#262626" stroke-width="1.1111111111111112" />
<line x1="120.13888888888889" y1="510.23254193812386" x2="125.4" y2="510.23254193812386" stroke="#262626" stroke-width="1.1111111111111112" />
<line x1="120.13888888888889" y1="504.6451066245255" x2="125.4" y2="504.6451066245255" stroke="#262626" stroke-width="1.1111111111111112" />
<line x1="120.13888888888889" y1="493.4702359973288" x2="125.4" y2="493.4702359973288" stroke="#262626" stroke-width="1.1111111111111112" />
<line x1="120.13888888888889" y1="487.88280068373047" x2="125.4" y2="487.88280068373047" stroke="#262626" stroke-width="1.1111111111111112" />
<line x1="120.13888888888889" y1="482.2953653701322" x2="125.4" y2="482.2953653701322" stroke="#262626" stroke-width="1.1111111111111112" />
<line x1="120.13888888888889" y1="476.7079300565338" x2="125.4" y2="476.7079300565338" stroke="#262626" stroke-width="1.1111111111111112" />
<line x1="120.13888888888889" y1="465.53305942933713" x2="125.4" y2="465.53305942933713" stroke="#262626" stroke-width="1.1111111111111112" />
<line x1="120.13888888888889" y1="459.9456241157388" x2="125.4" y2="459.9456241157388" stroke="#262626" stroke-width="1.1111111111111112" />
<line x1="120.13888888888889" y1="454.3581888021405" x2="125.4" y2="454.3581888021405" stroke="#262626" stroke-width="1.1111111111111112" />
<line x1="120.13888888888889" y1="448.77075348854214" x2="125.4" y2="448.77075348854214" stroke="#262626" stroke-width="1.1111111111111112" />
<line x1="120.13888888888889" y1="437.59588286134544" x2="125.4" y2="437.59588286134544" stroke="#262626" stroke-width="1.1111111111111112" />
<line x1="120.13888888888889" y1="432.0084475477471" x2="125.4" y2="432.0084475477471" stroke="#262626" stroke-width="1.1111111111111112" />
<line x1="120.13888888888889" y1="426.42101223414875" x2="125.4" y2="426.42101223414875" stroke="#262626" stroke-width="1.1111111111111112" />
<g class="series" aria-label="OBV">
<polyline points="141.70454545454544,482.20756310165694 148.52272727272725,500.32619412023644 155.34090909090907,528.6220666351163 162.15909090909088,494.6798094893822 168.97727272727272,526.8308154977683 175.79545454545453,541.5576996560811 182.61363636363635,561.5641740313641 189.43181818181816,519.840429499079 196.24999999999997,542.8561667349459 203.06818181818178,527.7118674996649 209.88636363636363,487.8673167782608 216.70454545454544,456.17326173440495 223.52272727272725,437.0909090909091 230.34090909090907,478.64541283455134 237.15909090909088,459.46073653334935 243.9772727272727,493.33399308888124 250.7954545454545,531.913199384745 257.6136363636363,558.8347716037443 264.43181818181813,541.2812201350707 271.24999999999994,581.5191452472925 278.0681818181818,556.3748626520993 284.8863636363636,595.2227643187471 291.70454545454544,626.3987391526728 298.52272727272725,604.5935240520216 305.34090909090907,625.4656796288536 312.1590909090909,603.7550011020938 318.9772727272727,620.0099427868074 325.7954545454545,655.7358354221242 332.6136363636363,616.881821171779 339.43181818181813,597.0117831708768 346.24999999999994,579.9412721684856 353.06818181818176,545.8388282378747 359.8863636363636,576.0595841311523 366.70454545454544,591.5837951358827 373.52272727272725,613.6913912689618 380.34090909090907,637.9267080262181 387.1590909090909,679.8139524250436 393.9772727272727,698.9090909090909 400.7954545454545,674.1260255402461 407.6136363636363,635.5547216553014 414.43181818181813,674.4065021243632 421.24999999999994,688.8953078708513 428.06818181818176,656.6132629266526 434.88636363636357,621.6299180511865 441.7045454545454,636.7884720027474 448.52272727272725,613.2129369121423 455.34090909090907,644.0974622790882 462.1590909090909,661.8630779684497 468.9772727272727,638.079708904773 475.7954545454545,656.3907438714132" fill="none" stroke="#1F77B4" stroke-width="1.5" />
</g>
<g class="spine">
<line x1="125" y1="712" x2="492.5" y2="712" stroke="#262626" stroke-width="0.8" />
</g>
<g class="spine">
<line x1="125" y1="424" x2="492.5" y2="424" stroke="#262626" stroke-width="0.8" />
</g>
<g class="spine">
<line x1="125" y1="424" x2="125" y2="712" stroke="#262626" stroke-width="0.8" />
</g>
<g class="spine">
<line x1="492.5" y1="424" x2="492.5" y2="712" stroke="#262626" stroke-width="0.8" />
</g>
<rect x="399" y="434" width="83.5" height="25.72222222222222" fill="#FFFFFF" fill-opacity="0.8" stroke="#CCCCCC" stroke-width="0.5" />
<g class="legend" aria-label="Chart legend">
<line x1="407" y1="446.8611111111111" x2="434.77777777777777" y2="446.8611111111111" stroke="#1F77B4" stroke-width="1.5" />
<text x="445.88888888888886" y="450.72222222222223" font-family="DejaVu Sans, sans-serif" font-size="13.88888888888889" text-anchor="start" fill="#262626">OBV</text>
</g>
<text x="308.75" y="416" font-family="DejaVu Sans, sans-serif" font-size="15.88888888888889" text-anchor="middle" font-weight="bold" fill="#262626">On-Balance Volume</text>
<rect x="532.5" y="424" width="367.5" height="288" fill="#FFFFFF" />
<line x1="560.3409090909091" y1="711.6" x2="560.3409090909091" y2="716.8611111111111" stroke="#262626" stroke-width="1.1111111111111112" />
<text x="560.3409090909091" y="735.6111111111111" font-family="DejaVu Sans, sans-serif" font-size="13.88888888888889" text-anchor="middle" fill="#262626">20</text>
<line x1="616.0227272727273" y1="711.6" x2="616.0227272727273" y2="716.8611111111111" stroke="#262626" stroke-width="1.1111111111111112" />
<text x="616.0227272727273" y="735.6111111111111" font-family="DejaVu Sans, sans-serif" font-size="13.88888888888889" text-anchor="middle" fill="#262626">25</text>
<line x1="671.7045454545455" y1="711.6" x2="671.7045454545455" y2="716.8611111111111" stroke="#262626" stroke-width="1.1111111111111112" />
<text x="671.7045454545455" y="735.6111111111111" font-family="DejaVu Sans, sans-serif" font-size="13.88888888888889" text-anchor="middle" fill="#262626">30</text>
<line x1="727.3863636363637" y1="711.6" x2="727.3863636363637" y2="716.8611111111111" stroke="#262626" stroke-width="1.1111111111111112" />
<text x="727.3863636363637" y="735.6111111111111" font-family="DejaVu Sans, sans-serif" font-size="13.88888888888889" text-anchor="middle" fill="#262626">35</text>
<line x1="783.0681818181819" y1="711.6" x2="783.0681818181819" y2="716.8611111111111" stroke="#262626" stroke-width="1.1111111111111112" />
<text x="783.0681818181819" y="735.6111111111111" font-family="DejaVu Sans, sans-serif" font-size="13.88888888888889" text-anchor="middle" fill="#262626">40</text>
<line x1="838.75" y1="711.6" x2="838.75" y2="716.8611111111111" stroke="#262626" stroke-width="1.1111111111111112" />
<text x="838.75" y="735.6111111111111" font-family="DejaVu Sans, sans-serif" font-size="13.88888888888889" text-anchor="middle" fill="#262626">45</text>
<line x1="894.4318181818182" y1="711.6" x2="894.4318181818182" y2="716.8611111111111" stroke="#262626" stroke-width="1.1111111111111112" />
<text x="894.4318181818182" y="735.6111111111111" font-family="DejaVu Sans, sans-serif" font-size="13.88888888888889" text-anchor="middle" fill="#262626">50</text>
<line x1="538.0681818181819" y1="711.6" x2="538.0681818181819" y2="716.8611111111111" stroke="#262626" stroke-width="1.1111111111111112" />
<line x1="549.2045454545455" y1="711.6" x2="549.2045454545455" y2="716.8611111111111" stroke="#262626" stroke-width="1.1111111111111112" />
<line x1="571.4772727272727" y1="711.6" x2="571.4772727272727" y2="716.8611111111111" stroke="#262626" stroke-width="1.1111111111111112" />
<line x1="582.6136363636364" y1="711.6" x2="582.6136363636364" y2="716.8611111111111" stroke="#262626" stroke-width="1.1111111111111112" />
<line x1="593.75" y1="711.6" x2="593.75" y2="716.8611111111111" stroke="#262626" stroke-width="1.1111111111111112" />
<line x1="604.8863636363636" y1="711.6" x2="604.8863636363636" y2="716.8611111111111" stroke="#262626" stroke-width="1.1111111111111112" />
<line x1="627.159090909091" y1="711.6" x2="627.159090909091" y2="716.8611111111111" stroke="#262626" stroke-width="1.1111111111111112" />
<line x1="638.2954545454545" y1="711.6" x2="638.2954545454545" y2="716.8611111111111" stroke="#262626" stroke-width="1.1111111111111112" />
<line x1="649.4318181818182" y1="711.6" x2="649.4318181818182" y2="716.8611111111111" stroke="#262626" stroke-width="1.1111111111111112" />
<line x1="660.5681818181818" y1="711.6" x2="660.5681818181818" y2="716.8611111111111" stroke="#262626" stroke-width="1.1111111111111112" />
<line x1="682.8409090909091" y1="711.6" x2="682.8409090909091" y2="716.8611111111111" stroke="#262626" stroke-width="1.1111111111111112" />
<line x1="693.9772727272727" y1="711.6" x2="693.9772727272727" y2="716.8611111111111" stroke="#262626" stroke-width="1.1111111111111112" />
<line x1="705.1136363636364" y1="711.6" x2="705.1136363636364" y2="716.8611111111111" stroke="#262626" stroke-width="1.1111111111111112" />
<line x1="716.25" y1="711.6" x2="716.25" y2="716.8611111111111" stroke="#262626" stroke-width="1.1111111111111112" />
<line x1="738.5227272727273" y1="711.6" x2="738.5227272727273" y2="716.8611111111111" stroke="#262626" stroke-width="1.1111111111111112" />
<line x1="749.659090909091" y1="711.6" x2="749.659090909091" y2="716.8611111111111" stroke="#262626" stroke-width="1.1111111111111112" />
<line x1="760.7954545454545" y1="711.6" x2="760.7954545454545" y2="716.8611111111111" stroke="#262626" stroke-width="1.1111111111111112" />
<line x1="771.9318181818182" y1="711.6" x2="771.9318181818182" y2="716.8611111111111" stroke="#262626" stroke-width="1.1111111111111112" />
<line x1="794.2045454545455" y1="711.6" x2="794.2045454545455" y2="716.8611111111111" stroke="#262626" stroke-width="1.1111111111111112" />
<line x1="805.3409090909091" y1="711.6" x2="805.3409090909091" y2="716.8611111111111" stroke="#262626" stroke-width="1.1111111111111112" />
<line x1="816.4772727272727" y1="711.6" x2="816.4772727272727" y2="716.8611111111111" stroke="#262626" stroke-width="1.1111111111111112" />
<line x1="827.6136363636364" y1="711.6" x2="827.6136363636364" y2="716.8611111111111" stroke="#262626" stroke-width="1.1111111111111112" />
<line x1="849.8863636363636" y1="711.6" x2="849.8863636363636" y2="716.8611111111111" stroke="#262626" stroke-width="1.1111111111111112" />
<line x1="861.0227272727273" y1="711.6" x2="861.0227272727273" y2="716.8611111111111" stroke="#262626" stroke-width="1.1111111111111112" />
<line x1="872.1590909090909" y1="711.6" x2="872.1590909090909" y2="716.8611111111111" stroke="#262626" stroke-width="1.1111111111111112" />
<line x1="883.2954545454546" y1="711.6" x2="883.2954545454546" y2="716.8611111111111" stroke="#262626" stroke-width="1.1111111111111112" />
<line x1="527.6388888888889" y1="687.6059568872847" x2="532.9" y2="687.6059568872847" stroke="#262626" stroke-width="1.1111111111111112" />
<text x="522.7777777777778" y="691.6059568872847" font-family="DejaVu Sans, sans-serif" font-size="13.88888888888889" text-anchor="end" fill="#262626">-150</text>
<line x1="527.6388888888889" y1="647.8862065536027" x2="532.9" y2="647.8862065536027" stroke="#262626" stroke-width="1.1111111111111112" />
<text x="522.7777777777778" y="651.8862065536027" font-family="DejaVu Sans, sans-serif" font-size="13.88888888888889" text-anchor="end" fill="#262626">-100</text>
<line x1="527.6388888888889" y1="608.1664562199207" x2="532.9" y2="608.1664562199207" stroke="#262626" stroke-width="1.1111111111111112" />
<text x="522.7777777777778" y="612.1664562199207" font-family="DejaVu Sans, sans-serif" font-size="13.88888888888889" text-anchor="end" fill="#262626">-50</text>
<line x1="527.6388888888889" y1="568.4467058862388" x2="532.9" y2="568.4467058862388" stroke="#262626" stroke-width="1.1111111111111112" />
<text x="522.7777777777778" y="572.4467058862388" font-family="DejaVu Sans, sans-serif" font-size="13.88888888888889" text-anchor="end" fill="#262626">0</text>
<line x1="527.6388888888889" y1="528.7269555525568" x2="532.9" y2="528.7269555525568" stroke="#262626" stroke-width="1.1111111111111112" />
<text x="522.7777777777778" y="532.7269555525568" font-family="DejaVu Sans, sans-serif" font-size="13.88888888888889" text-anchor="end" fill="#262626">50</text>
<line x1="527.6388888888889" y1="489.0072052188748" x2="532.9" y2="489.0072052188748" stroke="#262626" stroke-width="1.1111111111111112" />
<text x="522.7777777777778" y="493.0072052188748" font-family="DejaVu Sans, sans-serif" font-size="13.88888888888889" text-anchor="end" fill="#262626">100</text>
<line x1="527.6388888888889" y1="449.2874548851928" x2="532.9" y2="449.2874548851928" stroke="#262626" stroke-width="1.1111111111111112" />
<text x="522.7777777777778" y="453.2874548851928" font-family="DejaVu Sans, sans-serif" font-size="13.88888888888889" text-anchor="end" fill="#262626">150</text>
<line x1="527.6388888888889" y1="711.4378070874939" x2="532.9" y2="711.4378070874939" stroke="#262626" stroke-width="1.1111111111111112" />
<line x1="527.6388888888889" y1="703.4938570207576" x2="532.9" y2="703.4938570207576" stroke="#262626" stroke-width="1.1111111111111112" />
<line x1="527.6388888888889" y1="695.5499069540211" x2="532.9" y2="695.5499069540211" stroke="#262626" stroke-width="1.1111111111111112" />
<line x1="527.6388888888889" y1="679.6620068205483" x2="532.9" y2="679.6620068205483" stroke="#262626" stroke-width="1.1111111111111112" />
<line x1="527.6388888888889" y1="671.7180567538119" x2="532.9" y2="671.7180567538119" stroke="#262626" stroke-width="1.1111111111111112" />
<line x1="527.6388888888889" y1="663.7741066870756" x2="532.9" y2="663.7741066870756" stroke="#262626" stroke-width="1.1111111111111112" />
<line x1="527.6388888888889" y1="655.8301566203392" x2="532.9" y2="655.8301566203392" stroke="#262626" stroke-width="1.1111111111111112" />
<line x1="527.6388888888889" y1="639.9422564868663" x2="532.9" y2="639.9422564868663" stroke="#262626" stroke-width="1.1111111111111112" />
<line x1="527.6388888888889" y1="631.9983064201299" x2="532.9" y2="631.9983064201299" stroke="#262626" stroke-width="1.1111111111111112" />
<line x1="527.6388888888889" y1="624.0543563533936" x2="532.9" y2="624.0543563533936" stroke="#262626" stroke-width="1.1111111111111112" />
<line x1="527.6388888888889" y1="616.1104062866572" x2="532.9" y2="616.1104062866572" stroke="#262626" stroke-width="1.1111111111111112" />
<line x1="527.6388888888889" y1="600.2225061531843" x2="532.9" y2="600.2225061531843" stroke="#262626" stroke-width="1.1111111111111112" />
<line x1="527.6388888888889" y1="592.2785560864479" x2="532.9" y2="592.2785560864479" stroke="#262626" stroke-width="1.1111111111111112" />
<line x1="527.6388888888889" y1="584.3346060197116" x2="532.9" y2="584.3346060197116" stroke="#262626" stroke-width="1.1111111111111112" />
<line x1="527.6388888888889" y1="576.3906559529752" x2="532.9" y2="576.3906559529752" stroke="#262626" stroke-width="1.1111111111111112" />
<line x1="527.6388888888889" y1="560.5027558195023" x2="532.9" y2="560.5027558195023" stroke="#262626" stroke-width="1.1111111111111112" />
<line x1="527.6388888888889" y1="552.5588057527659" x2="532.9" y2="552.5588057527659" stroke="#262626" stroke-width="1.1111111111111112" />
<line x1="527.6388888888889" y1="544.6148556860296" x2="532.9" y2="544.6148556860296" stroke="#262626" stroke-width="1.1111111111111112" />
<line x1="527.6388888888889" y1="536.6709056192932" x2="532.9" y2="536.6709056192932" stroke="#262626" stroke-width="1.1111111111111112" />
<line x1="527.6388888888889" y1="520.7830054858204" x2="532.9" y2="520.7830054858204" stroke="#262626" stroke-width="1.1111111111111112" />
<line x1="527.6388888888889" y1="512.8390554190839" x2="532.9" y2="512.8390554190839" stroke="#262626" stroke-width="1.1111111111111112" />
<line x1="527.6388888888889" y1="504.89510535234757" x2="532.9" y2="504.89510535234757" stroke="#262626" stroke-width="1.1111111111111112" />
<line x1="527.6388888888889" y1="496.9511552856112" x2="532.9" y2="496.9511552856112" stroke="#262626" stroke-width="1.1111111111111112" />
<line x1="527.6388888888889" y1="481.0632551521384" x2="532.9" y2="481.0632551521384" stroke="#262626" stroke-width="1.1111111111111112" />
<line x1="527.6388888888889" y1="473.119305085402" x2="532.9" y2="473.119305085402" stroke="#262626" stroke-width="1.1111111111111112" />
<line x1="527.6388888888889" y1="465.17535501866564" x2="532.9" y2="465.17535501866564" stroke="#262626" stroke-width="1.1111111111111112" />
<line x1="527.6388888888889" y1="457.2314049519292" x2="532.9" y2="457.2314049519292" stroke="#262626" stroke-width="1.1111111111111112" />
<line x1="527.6388888888889" y1="441.34350481845644" x2="532.9" y2="441.34350481845644" stroke="#262626" stroke-width="1.1111111111111112" />
<line x1="527.6388888888889" y1="433.39955475172" x2="532.9" y2="433.39955475172" stroke="#262626" stroke-width="1.1111111111111112" />
<line x1="527.6388888888889" y1="425.45560468498365" x2="532.9" y2="425.45560468498365" stroke="#262626" stroke-width="1.1111111111111112" />
<line x1="532.5" y1="489.0072052188748" x2="900" y2="489.0072052188748" stroke="#808080" stroke-width="1" stroke-dasharray="5,2" />
<line x1="532.5" y1="647.8862065536027" x2="900" y2="647.8862065536027" stroke="#808080" stroke-width="1" stroke-dasharray="5,2" />
<g class="series" aria-label="CCI(20)">
<polyline points="549.2045454545455,641.4226592181909 560.3409090909091,665.0552220397901 571.4772727272727,642.9438708917997 582.6136363636364,698.9090909090909 593.75,685.3484464915545 604.8863636363636,641.2612385329526 616.0227272727273,605.0203631897724 627.1590909090909,576.3459886927062 638.2954545454546,618.5809138488886 649.4318181818182,579.8892469325306 660.5681818181819,521.4686718327109 671.7045454545455,460.41295419320994 682.8409090909091,442.3441414045087 693.9772727272727,437.09090909090907 705.1136363636364,461.04721971694175 716.25,518.362908553047 727.3863636363636,542.2769104709924 738.5227272727273,567.6308660973342 749.6590909090909,566.8678954088755 760.7954545454546,570.6373169283505 771.9318181818182,519.9306259800127 783.0681818181819,486.27083405612694 794.2045454545455,531.7922250872055 805.3409090909091,558.8860899065763 816.4772727272727,510.2783574907145 827.6136363636364,482.5448401556522 838.75,511.3019056173839 849.8863636363636,513.0347023304696 861.0227272727273,539.8847044914838 872.1590909090909,583.1348501524307 883.2954545454546,537.9232146472165" fill="none" stroke="#1F77B4" stroke-width="1.5" />
</g>
<g class="spine">
<line x1="532.5" y1="712" x2="900" y2="712" stroke="#262626" stroke-width="0.8" />
</g>
<g class="spine">
<line x1="532.5" y1="424" x2="900" y2="424" stroke="#262626" stroke-width="0.8" />
</g>
<g class="spine">
<line x1="532.5" y1="424" x2="532.5" y2="712" stroke="#262626" stroke-width="0.8" />
</g>
<g class="spine">
<line x1="900" y1="424" x2="900" y2="712" stroke="#262626" stroke-width="0.8" />
</g>
<rect x="787.3333333333334" y="434" width="102.66666666666667" height="25.72222222222222" fill="#FFFFFF" fill-opacity="0.8" stroke="#CCCCCC" stroke-width="0.5" />
<g class="legend" aria-label="Chart legend">
<line x1="795.3333333333334" y1="446.8611111111111" x2="823.1111111111112" y2="446.8611111111111" stroke="#1F77B4" stroke-width="1.5" />
<text x="834.2222222222223" y="450.72222222222223" font-family="DejaVu Sans, sans-serif" font-size="13.88888888888889" text-anchor="start" fill="#262626">CCI(20)</text>
</g>
<text x="716.25" y="416" font-family="DejaVu Sans, sans-serif" font-size="15.88888888888889" text-anchor="middle" font-weight="bold" fill="#262626">CCI(20)</text>
</svg>
