<svg xmlns="http://www.w3.org/2000/svg" viewBox="0 0 1000 800" width="1000" height="800" role="img" aria-labelledby="chart-title">
<title id="chart-title">Phase F Indicators</title>
<rect x="0" y="0" width="1000" height="800" fill="#FFFFFF" />
<text x="500" y="25" font-family="sans-serif" font-size="17" text-anchor="middle" font-weight="bold" fill="#000000">Phase F Indicators</text>
<rect x="60" y="70" width="440" height="320" fill="#FFFFFF" />
<line x1="80" y1="70" x2="80" y2="390" stroke="#B0B0B0" stroke-width="0.8" />
<line x1="161.63265306122446" y1="70" x2="161.63265306122446" y2="390" stroke="#B0B0B0" stroke-width="0.8" />
<line x1="243.26530612244895" y1="70" x2="243.26530612244895" y2="390" stroke="#B0B0B0" stroke-width="0.8" />
<line x1="324.89795918367344" y1="70" x2="324.89795918367344" y2="390" stroke="#B0B0B0" stroke-width="0.8" />
<line x1="406.5306122448979" y1="70" x2="406.5306122448979" y2="390" stroke="#B0B0B0" stroke-width="0.8" />
<line x1="488.16326530612236" y1="70" x2="488.16326530612236" y2="390" stroke="#B0B0B0" stroke-width="0.8" />
<line x1="60" y1="345.75463897501595" x2="500" y2="345.75463897501595" stroke="#B0B0B0" stroke-width="0.8" />
<line x1="60" y1="290.8622551634394" x2="500" y2="290.8622551634394" stroke="#B0B0B0" stroke-width="0.8" />
<line x1="60" y1="235.96987135186282" x2="500" y2="235.96987135186282" stroke="#B0B0B0" stroke-width="0.8" />
<line x1="60" y1="181.0774875402867" x2="500" y2="181.0774875402867" stroke="#B0B0B0" stroke-width="0.8" />
<line x1="60" y1="126.18510372871015" x2="500" y2="126.18510372871015" stroke="#B0B0B0" stroke-width="0.8" />
<line x1="60" y1="71.29271991713404" x2="500" y2="71.29271991713404" stroke="#B0B0B0" stroke-width="0.8" />
<line x1="80" y1="389.6" x2="80" y2="393.5" stroke="#000000" stroke-width="0.8" />
<text x="80" y="409.5" font-family="sans-serif" font-size="13" text-anchor="middle" fill="#000000">0</text>
<line x1="161.63265306122446" y1="389.6" x2="161.63265306122446" y2="393.5" stroke="#000000" stroke-width="0.8" />
<text x="161.63265306122446" y="409.5" font-family="sans-serif" font-size="13" text-anchor="middle" fill="#000000">10</text>
<line x1="243.26530612244895" y1="389.6" x2="243.26530612244895" y2="393.5" stroke="#000000" stroke-width="0.8" />
<text x="243.26530612244895" y="409.5" font-family="sans-serif" font-size="13" text-anchor="middle" fill="#000000">20</text>
<line x1="324.89795918367344" y1="389.6" x2="324.89795918367344" y2="393.5" stroke="#000000" stroke-width="0.8" />
<text x="324.89795918367344" y="409.5" font-family="sans-serif" font-size="13" text-anchor="middle" fill="#000000">30</text>
<line x1="406.5306122448979" y1="389.6" x2="406.5306122448979" y2="393.5" stroke="#000000" stroke-width="0.8" />
<text x="406.5306122448979" y="409.5" font-family="sans-serif" font-size="13" text-anchor="middle" fill="#000000">40</text>
<line x1="488.16326530612236" y1="389.6" x2="488.16326530612236" y2="393.5" stroke="#000000" stroke-width="0.8" />
<text x="488.16326530612236" y="409.5" font-family="sans-serif" font-size="13" text-anchor="middle" fill="#000000">50</text>
<line x1="63.673469387755105" y1="389.6" x2="63.673469387755105" y2="393.5" stroke="#000000" stroke-width="0.8" />
<line x1="96.3265306122449" y1="389.6" x2="96.3265306122449" y2="393.5" stroke="#000000" stroke-width="0.8" />
<line x1="112.65306122448979" y1="389.6" x2="112.65306122448979" y2="393.5" stroke="#000000" stroke-width="0.8" />
<line x1="128.9795918367347" y1="389.6" x2="128.9795918367347" y2="393.5" stroke="#000000" stroke-width="0.8" />
<line x1="145.30612244897958" y1="389.6" x2="145.30612244897958" y2="393.5" stroke="#000000" stroke-width="0.8" />
<line x1="177.95918367346937" y1="389.6" x2="177.95918367346937" y2="393.5" stroke="#000000" stroke-width="0.8" />
<line x1="194.28571428571428" y1="389.6" x2="194.28571428571428" y2="393.5" stroke="#000000" stroke-width="0.8" />
<line x1="210.61224489795916" y1="389.6" x2="210.61224489795916" y2="393.5" stroke="#000000" stroke-width="0.8" />
<line x1="226.93877551020404" y1="389.6" x2="226.93877551020404" y2="393.5" stroke="#000000" stroke-width="0.8" />
<line x1="259.59183673469386" y1="389.6" x2="259.59183673469386" y2="393.5" stroke="#000000" stroke-width="0.8" />
<line x1="275.91836734693874" y1="389.6" x2="275.91836734693874" y2="393.5" stroke="#000000" stroke-width="0.8" />
<line x1="292.2448979591836" y1="389.6" x2="292.2448979591836" y2="393.5" stroke="#000000" stroke-width="0.8" />
<line x1="308.57142857142856" y1="389.6" x2="308.57142857142856" y2="393.5" stroke="#000000" stroke-width="0.8" />
<line x1="341.2244897959183" y1="389.6" x2="341.2244897959183" y2="393.5" stroke="#000000" stroke-width="0.8" />
<line x1="357.5510204081632" y1="389.6" x2="357.5510204081632" y2="393.5" stroke="#000000" stroke-width="0.8" />
<line x1="373.8775510204081" y1="389.6" x2="373.8775510204081" y2="393.5" stroke="#000000" stroke-width="0.8" />
<line x1="390.204081632653" y1="389.6" x2="390.204081632653" y2="393.5" stroke="#000000" stroke-width="0.8" />
<line x1="422.8571428571428" y1="389.6" x2="422.8571428571428" y2="393.5" stroke="#000000" stroke-width="0.8" />
<line x1="439.1836734693877" y1="389.6" x2="439.1836734693877" y2="393.5" stroke="#000000" stroke-width="0.8" />
<line x1="455.5102040816326" y1="389.6" x2="455.5102040816326" y2="393.5" stroke="#000000" stroke-width="0.8" />
<line x1="471.8367346938775" y1="389.6" x2="471.8367346938775" y2="393.5" stroke="#000000" stroke-width="0.8" />
<line x1="342.25463897501595" y1="60" x2="346.1546389750159" y2="60" stroke="#000000" stroke-width="0.8" />
<text x="53.5" y="349.75463897501595" font-family="sans-serif" font-size="13" text-anchor="end" fill="#000000">94</text>
<line x1="287.3622551634394" y1="60" x2="291.26225516343936" y2="60" stroke="#000000" stroke-width="0.8" />
<text x="53.5" y="294.8622551634394" font-family="sans-serif" font-size="13" text-anchor="end" fill="#000000">96</text>
<line x1="232.46987135186282" y1="60" x2="236.36987135186283" y2="60" stroke="#000000" stroke-width="0.8" />
<text x="53.5" y="239.96987135186282" font-family="sans-serif" font-size="13" text-anchor="end" fill="#000000">98</text>
<line x1="177.5774875402867" y1="60" x2="181.47748754028672" y2="60" stroke="#000000" stroke-width="0.8" />
<text x="53.5" y="185.0774875402867" font-family="sans-serif" font-size="13" text-anchor="end" fill="#000000">100</text>
<line x1="122.68510372871015" y1="60" x2="126.58510372871015" y2="60" stroke="#000000" stroke-width="0.8" />
<text x="53.5" y="130.18510372871015" font-family="sans-serif" font-size="13" text-anchor="end" fill="#000000">102</text>
<line x1="67.79271991713404" y1="60" x2="71.69271991713404" y2="60" stroke="#000000" stroke-width="0.8" />
<text x="53.5" y="75.29271991713404" font-family="sans-serif" font-size="13" text-anchor="end" fill="#000000">104</text>
<line x1="386.16854602427657" y1="60" x2="390.06854602427654" y2="60" stroke="#000000" stroke-width="0.8" />
<line x1="375.1900692619615" y1="60" x2="379.0900692619615" y2="60" stroke="#000000" stroke-width="0.8" />
<line x1="364.2115924996465" y1="60" x2="368.11159249964646" y2="60" stroke="#000000" stroke-width="0.8" />
<line x1="353.233115737331" y1="60" x2="357.13311573733097" y2="60" stroke="#000000" stroke-width="0.8" />
<line x1="331.27616221270046" y1="60" x2="335.17616221270043" y2="60" stroke="#000000" stroke-width="0.8" />
<line x1="320.2976854503854" y1="60" x2="324.1976854503854" y2="60" stroke="#000000" stroke-width="0.8" />
<line x1="309.3192086880699" y1="60" x2="313.2192086880699" y2="60" stroke="#000000" stroke-width="0.8" />
<line x1="298.3407319257549" y1="60" x2="302.24073192575486" y2="60" stroke="#000000" stroke-width="0.8" />
<line x1="276.3837784011239" y1="60" x2="280.28377840112387" y2="60" stroke="#000000" stroke-width="0.8" />
<line x1="265.40530163880885" y1="60" x2="269.3053016388088" y2="60" stroke="#000000" stroke-width="0.8" />
<line x1="254.42682487649336" y1="60" x2="258.32682487649333" y2="60" stroke="#000000" stroke-width="0.8" />
<line x1="243.44834811417832" y1="60" x2="247.34834811417832" y2="60" stroke="#000000" stroke-width="0.8" />
<line x1="221.49139458954778" y1="60" x2="225.3913945895478" y2="60" stroke="#000000" stroke-width="0.8" />
<line x1="210.5129178272323" y1="60" x2="214.4129178272323" y2="60" stroke="#000000" stroke-width="0.8" />
<line x1="199.53444106491725" y1="60" x2="203.43444106491725" y2="60" stroke="#000000" stroke-width="0.8" />
<line x1="188.5559643026022" y1="60" x2="192.4559643026022" y2="60" stroke="#000000" stroke-width="0.8" />
<line x1="166.59901077797122" y1="60" x2="170.49901077797122" y2="60" stroke="#000000" stroke-width="0.8" />
<line x1="155.62053401565618" y1="60" x2="159.52053401565618" y2="60" stroke="#000000" stroke-width="0.8" />
<line x1="144.64205725334068" y1="60" x2="148.5420572533407" y2="60" stroke="#000000" stroke-width="0.8" />
<line x1="133.66358049102564" y1="60" x2="137.56358049102565" y2="60" stroke="#000000" stroke-width="0.8" />
<line x1="111.70662696639465" y1="60" x2="115.60662696639466" y2="60" stroke="#000000" stroke-width="0.8" />
<line x1="100.72815020407961" y1="60" x2="104.62815020407962" y2="60" stroke="#000000" stroke-width="0.8" />
<line x1="89.74967344176412" y1="60" x2="93.64967344176412" y2="60" stroke="#000000" stroke-width="0.8" />
<line x1="78.77119667944908" y1="60" x2="82.67119667944908" y2="60" stroke="#000000" stroke-width="0.8" />
<polyline points="80,197.23404357206968 88.16326530612244,200.2913845309244 96.3265306122449,238.20077009025965 104.48979591836735,182.53752243547672 112.65306122448979,203.45429047572517 120.81632653061223,253.4923189924261 128.9795918367347,282.0641069734383 137.14285714285714,269.73105986556084 145.30612244897958,309.10060785849527 153.46938775510202,279.3323153349773 161.63265306122446,239.75538518022077 169.79591836734693,199.65230275289454 177.95918367346937,183.69736575170216 186.1224489795918,233.1462274109854 194.28571428571428,200.03106490946817 202.44897959183672,220.36667847314718 210.61224489795916,259.6775676218628 218.7755102040816,263.52945595509095 226.93877551020404,256.61106656531075 235.1020408163265,297.52413199896375 243.26530612244895,271.1648398232518 251.4285714285714,310.1439412343082 259.59183673469386,343.8881823056655 267.75510204081627,293.12015749279925 275.91836734693874,308.5247156249672 284.0816326530612,263.73243486301726 292.2448979591836,291.342109255514 300.4081632653061,297.87302489499325 308.57142857142856,245.90473255843355 316.73469387755097,192.19887259859655 324.89795918367344,175.261637305801 333.06122448979585,139.47154956873638 341.2244897959183,170.16421617633162 349.3877551020408,201.06301173452042 357.5510204081632,230.21715112357464 365.71428571428567,253.19946686862716 373.8775510204081,256.0770115226571 382.04081632653055,269.72035582288487 390.204081632653,219.43187498677582 398.3673469387754,167.16088602705742 406.5306122448979,185.56050815139093 414.69387755102036,236.44563384823797 422.8571428571428,191.34651507921063 431.02040816326524,135.9422479570076 439.1836734693877,185.25014009571393 447.3469387755101,162.71129163394377 455.5102040816326,191.41878412983021 463.673469387755,208.77459453927958 471.8367346938775,168.97248289008667 479.99999999999994,221.5976351009972" fill="none" stroke="#1F77B4" stroke-width="1.5" />
<g class="series" aria-label="SAR (Long)">
<circle cx="104.48979591836735" cy="140.47771332427243" r="1.5671932876326562" fill="#008000" />
<circle cx="112.65306122448979" cy="330.7540761276719" r="1.5671932876326562" fill="#008000" />
<circle cx="120.81632653061223" cy="330.7540761276719" r="1.5671932876326562" fill="#008000" />
<circle cx="128.9795918367347" cy="322.77658765260895" r="1.5671932876326562" fill="#008000" />
<circle cx="137.14285714285714" cy="315.1181987165485" r="1.5671932876326562" fill="#008000" />
<circle cx="161.63265306122446" cy="190.57758918937316" r="1.5671932876326562" fill="#008000" />
<circle cx="169.79591836734693" cy="339.36525160170015" r="1.5671932876326562" fill="#008000" />
<circle cx="177.95918367346937" cy="331.9776758614437" r="1.5671932876326562" fill="#008000" />
<circle cx="186.1224489795918" cy="315.14559690647417" r="1.5671932876326562" fill="#008000" />
<circle cx="284.0816326530612" cy="227.26101109751616" r="1.5671932876326562" fill="#008000" />
<circle cx="292.2448979591836" cy="363.7224939196234" r="1.5671932876326562" fill="#008000" />
<circle cx="300.4081632653061" cy="363.7224939196234" r="1.5671932876326562" fill="#008000" />
<circle cx="316.73469387755097" cy="183.62571371202242" r="1.5671932876326562" fill="#008000" />
<circle cx="324.89795918367344" cy="375.4545454545452" r="1.5671932876326562" fill="#008000" />
<circle cx="333.06122448979585" cy="360.14985218088975" r="1.5671932876326562" fill="#008000" />
<circle cx="341.2244897959183" cy="337.7134938371672" r="1.5671932876326562" fill="#008000" />
<circle cx="349.3877551020408" cy="317.07204416094254" r="1.5671932876326562" fill="#008000" />
<circle cx="357.5510204081632" cy="298.08191045881557" r="1.5671932876326562" fill="#008000" />
<circle cx="365.71428571428567" cy="280.610987452859" r="1.5671932876326562" fill="#008000" />
<circle cx="398.3673469387754" cy="162.85020383825682" r="1.5671932876326562" fill="#008000" />
<circle cx="406.5306122448979" cy="353.64873833311566" r="1.5671932876326562" fill="#008000" />
<circle cx="414.69387755102036" cy="343.43463974498235" r="1.5671932876326562" fill="#008000" />
<circle cx="422.8571428571428" cy="333.62910510037443" r="1.5671932876326562" fill="#008000" />
<circle cx="431.02040816326524" cy="324.21579184155064" r="1.5671932876326562" fill="#008000" />
<circle cx="439.1836734693877" cy="318.66962727379354" r="1.5671932876326562" fill="#008000" />
<circle cx="447.3469387755101" cy="303.6250682354613" r="1.5671932876326562" fill="#008000" />
<circle cx="455.5102040816326" cy="289.48318273942897" r="1.5671932876326562" fill="#008000" />
<circle cx="463.673469387755" cy="276.18981037315837" r="1.5671932876326562" fill="#008000" />
<circle cx="479.99999999999994" cy="84.5454545454545" r="1.5671932876326562" fill="#008000" />
</g>
<g class="series" aria-label="SAR (Short)">
<circle cx="80" cy="125.9089157119535" r="1.5671932876326562" fill="#FF0000" />
<circle cx="88.16326530612244" cy="125.9089157119535" r="1.5671932876326562" fill="#FF0000" />
<circle cx="96.3265306122449" cy="125.9089157119535" r="1.5671932876326562" fill="#FF0000" />
<circle cx="145.30612244897958" cy="326.73801690675697" r="1.5671932876326562" fill="#FF0000" />
<circle cx="153.46938775510202" cy="224.5377363772181" r="1.5671932876326562" fill="#FF0000" />
<circle cx="194.28571428571428" cy="314.7530802238997" r="1.5671932876326562" fill="#FF0000" />
<circle cx="202.44897959183672" cy="121.57668892432505" r="1.5671932876326562" fill="#FF0000" />
<circle cx="210.61224489795916" cy="125.44021675031652" r="1.5671932876326562" fill="#FF0000" />
<circle cx="218.7755102040816" cy="133.07999322334615" r="1.5671932876326562" fill="#FF0000" />
<circle cx="226.93877551020404" cy="140.41417863745428" r="1.5671932876326562" fill="#FF0000" />
<circle cx="235.1020408163265" cy="147.4549966349984" r="1.5671932876326562" fill="#FF0000" />
<circle cx="243.26530612244895" cy="159.98650927233717" r="1.5671932876326562" fill="#FF0000" />
<circle cx="251.4285714285714" cy="176.2319700405224" r="1.5671932876326562" fill="#FF0000" />
<circle cx="259.59183673469386" cy="182.19592316021073" r="1.5671932876326562" fill="#FF0000" />
<circle cx="267.75510204081627" cy="182.19592316021073" r="1.5671932876326562" fill="#FF0000" />
<circle cx="275.91836734693874" cy="212.61379039167176" r="1.5671932876326562" fill="#FF0000" />
<circle cx="308.57142857142856" cy="375.4545454545452" r="1.5671932876326562" fill="#FF0000" />
<circle cx="373.8775510204081" cy="292.44685221557586" r="1.5671932876326562" fill="#FF0000" />
<circle cx="382.04081632653055" cy="158.8163510533917" r="1.5671932876326562" fill="#FF0000" />
<circle cx="390.204081632653" cy="166.60964654458058" r="1.5671932876326562" fill="#FF0000" />
<circle cx="471.8367346938775" cy="302.31249294008876" r="1.5671932876326562" fill="#FF0000" />
</g>
<g class="spine">
<line x1="60" y1="390" x2="500" y2="390" stroke="#000000" stroke-width="0.8" />
</g>
<g class="spine">
<line x1="60" y1="70" x2="500" y2="70" stroke="#000000" stroke-width="0.8" />
</g>
<g class="spine">
<line x1="60" y1="70" x2="60" y2="390" stroke="#000000" stroke-width="0.8" />
</g>
<g class="spine">
<line x1="500" y1="70" x2="500" y2="390" stroke="#000000" stroke-width="0.8" />
</g>
<rect x="385.8" y="80" width="104.19999999999999" height="46.5" fill="#FFFFFF" fill-opacity="0.8" stroke="#000000" stroke-width="0.5" />
<g class="legend" aria-label="Chart legend">
<rect x="393.8" y="88" width="12" height="12" fill="#008000" />
<text x="411.8" y="99" font-family="sans-serif" font-size="13" text-anchor="start" fill="#000000">SAR (Long)</text>
<rect x="393.8" y="106.5" width="12" height="12" fill="#FF0000" />
<text x="411.8" y="117.5" font-family="sans-serif" font-size="13" text-anchor="start" fill="#000000">SAR (Short)</text>
</g>
<text x="280" y="62" font-family="sans-serif" font-size="15" text-anchor="middle" font-weight="bold" fill="#000000">Parabolic SAR</text>
<rect x="540" y="70" width="440" height="320" fill="#FFFFFF" />
<line x1="637.7777777777778" y1="70" x2="637.7777777777778" y2="390" stroke="#B0B0B0" stroke-width="0.8" />
<line x1="748.8888888888889" y1="70" x2="748.8888888888889" y2="390" stroke="#B0B0B0" stroke-width="0.8" />
<line x1="860" y1="70" x2="860" y2="390" stroke="#B0B0B0" stroke-width="0.8" />
<line x1="971.1111111111112" y1="70" x2="971.1111111111112" y2="390" stroke="#B0B0B0" stroke-width="0.8" />
<line x1="540" y1="390" x2="980" y2="390" stroke="#B0B0B0" stroke-width="0.8" />
<line x1="540" y1="326" x2="980" y2="326" stroke="#B0B0B0" stroke-width="0.8" />
<line x1="540" y1="262" x2="980" y2="262" stroke="#B0B0B0" stroke-width="0.8" />
<line x1="540" y1="198" x2="980" y2="198" stroke="#B0B0B0" stroke-width="0.8" />
<line x1="540" y1="134" x2="980" y2="134" stroke="#B0B0B0" stroke-width="0.8" />
<line x1="540" y1="70" x2="980" y2="70" stroke="#B0B0B0" stroke-width="0.8" />
<line x1="637.7777777777778" y1="389.6" x2="637.7777777777778" y2="393.5" stroke="#000000" stroke-width="0.8" />
<text x="637.7777777777778" y="409.5" font-family="sans-serif" font-size="13" text-anchor="middle" fill="#000000">20</text>
<line x1="748.8888888888889" y1="389.6" x2="748.8888888888889" y2="393.5" stroke="#000000" stroke-width="0.8" />
<text x="748.8888888888889" y="409.5" font-family="sans-serif" font-size="13" text-anchor="middle" fill="#000000">30</text>
<line x1="860" y1="389.6" x2="860" y2="393.5" stroke="#000000" stroke-width="0.8" />
<text x="860" y="409.5" font-family="sans-serif" font-size="13" text-anchor="middle" fill="#000000">40</text>
<line x1="971.1111111111112" y1="389.6" x2="971.1111111111112" y2="393.5" stroke="#000000" stroke-width="0.8" />
<text x="971.1111111111112" y="409.5" font-family="sans-serif" font-size="13" text-anchor="middle" fill="#000000">50</text>
<line x1="548.8888888888889" y1="389.6" x2="548.8888888888889" y2="393.5" stroke="#000000" stroke-width="0.8" />
<line x1="571.1111111111111" y1="389.6" x2="571.1111111111111" y2="393.5" stroke="#000000" stroke-width="0.8" />
<line x1="593.3333333333334" y1="389.6" x2="593.3333333333334" y2="393.5" stroke="#000000" stroke-width="0.8" />
<line x1="615.5555555555555" y1="389.6" x2="615.5555555555555" y2="393.5" stroke="#000000" stroke-width="0.8" />
<line x1="660" y1="389.6" x2="660" y2="393.5" stroke="#000000" stroke-width="0.8" />
<line x1="682.2222222222222" y1="389.6" x2="682.2222222222222" y2="393.5" stroke="#000000" stroke-width="0.8" />
<line x1="704.4444444444445" y1="389.6" x2="704.4444444444445" y2="393.5" stroke="#000000" stroke-width="0.8" />
<line x1="726.6666666666667" y1="389.6" x2="726.6666666666667" y2="393.5" stroke="#000000" stroke-width="0.8" />
<line x1="771.1111111111111" y1="389.6" x2="771.1111111111111" y2="393.5" stroke="#000000" stroke-width="0.8" />
<line x1="793.3333333333334" y1="389.6" x2="793.3333333333334" y2="393.5" stroke="#000000" stroke-width="0.8" />
<line x1="815.5555555555557" y1="389.6" x2="815.5555555555557" y2="393.5" stroke="#000000" stroke-width="0.8" />
<line x1="837.7777777777778" y1="389.6" x2="837.7777777777778" y2="393.5" stroke="#000000" stroke-width="0.8" />
<line x1="882.2222222222223" y1="389.6" x2="882.2222222222223" y2="393.5" stroke="#000000" stroke-width="0.8" />
<line x1="904.4444444444446" y1="389.6" x2="904.4444444444446" y2="393.5" stroke="#000000" stroke-width="0.8" />
<line x1="926.6666666666667" y1="389.6" x2="926.6666666666667" y2="393.5" stroke="#000000" stroke-width="0.8" />
<line x1="948.8888888888889" y1="389.6" x2="948.8888888888889" y2="393.5" stroke="#000000" stroke-width="0.8" />
<line x1="386.5" y1="540" x2="390.4" y2="540" stroke="#000000" stroke-width="0.8" />
<text x="533.5" y="394" font-family="sans-serif" font-size="13" text-anchor="end" fill="#000000">-100</text>
<line x1="322.5" y1="540" x2="326.4" y2="540" stroke="#000000" stroke-width="0.8" />
<text x="533.5" y="330" font-family="sans-serif" font-size="13" text-anchor="end" fill="#000000">-80</text>
<line x1="258.5" y1="540" x2="262.4" y2="540" stroke="#000000" stroke-width="0.8" />
<text x="533.5" y="266" font-family="sans-serif" font-size="13" text-anchor="end" fill="#000000">-60</text>
<line x1="194.5" y1="540" x2="198.4" y2="540" stroke="#000000" stroke-width="0.8" />
<text x="533.5" y="202" font-family="sans-serif" font-size="13" text-anchor="end" fill="#000000">-40</text>
<line x1="130.5" y1="540" x2="134.4" y2="540" stroke="#000000" stroke-width="0.8" />
<text x="533.5" y="138" font-family="sans-serif" font-size="13" text-anchor="end" fill="#000000">-20</text>
<line x1="66.5" y1="540" x2="70.4" y2="540" stroke="#000000" stroke-width="0.8" />
<text x="533.5" y="74" font-family="sans-serif" font-size="13" text-anchor="end" fill="#000000">0</text>
<line x1="373.70000000000005" y1="540" x2="377.6" y2="540" stroke="#000000" stroke-width="0.8" />
<line x1="360.90000000000003" y1="540" x2="364.8" y2="540" stroke="#000000" stroke-width="0.8" />
<line x1="348.1" y1="540" x2="352" y2="540" stroke="#000000" stroke-width="0.8" />
<line x1="335.3" y1="540" x2="339.2" y2="540" stroke="#000000" stroke-width="0.8" />
<line x1="309.70000000000005" y1="540" x2="313.6" y2="540" stroke="#000000" stroke-width="0.8" />
<line x1="296.9" y1="540" x2="300.79999999999995" y2="540" stroke="#000000" stroke-width="0.8" />
<line x1="284.1" y1="540" x2="288" y2="540" stroke="#000000" stroke-width="0.8" />
<line x1="271.3" y1="540" x2="275.2" y2="540" stroke="#000000" stroke-width="0.8" />
<line x1="245.70000000000002" y1="540" x2="249.60000000000002" y2="540" stroke="#000000" stroke-width="0.8" />
<line x1="232.9" y1="540" x2="236.8" y2="540" stroke="#000000" stroke-width="0.8" />
<line x1="220.10000000000002" y1="540" x2="224.00000000000003" y2="540" stroke="#000000" stroke-width="0.8" />
<line x1="207.3" y1="540" x2="211.20000000000002" y2="540" stroke="#000000" stroke-width="0.8" />
<line x1="181.7" y1="540" x2="185.6" y2="540" stroke="#000000" stroke-width="0.8" />
<line x1="168.9" y1="540" x2="172.8" y2="540" stroke="#000000" stroke-width="0.8" />
<line x1="156.10000000000002" y1="540" x2="160.00000000000003" y2="540" stroke="#000000" stroke-width="0.8" />
<line x1="143.3" y1="540" x2="147.20000000000002" y2="540" stroke="#000000" stroke-width="0.8" />
<line x1="117.7" y1="540" x2="121.60000000000001" y2="540" stroke="#000000" stroke-width="0.8" />
<line x1="104.9" y1="540" x2="108.80000000000001" y2="540" stroke="#000000" stroke-width="0.8" />
<line x1="92.1" y1="540" x2="96" y2="540" stroke="#000000" stroke-width="0.8" />
<line x1="79.3" y1="540" x2="83.2" y2="540" stroke="#000000" stroke-width="0.8" />
<line x1="540" y1="134" x2="980" y2="134" stroke="#808080" stroke-width="1" stroke-dasharray="5,2" />
<line x1="540" y1="326" x2="980" y2="326" stroke="#808080" stroke-width="1" stroke-dasharray="5,2" />
<g class="series" aria-label="%R(14)">
<polyline points="560,233.93079543217092 571.1111111111111,185.2741907408431 582.2222222222223,215.15361260018622 593.3333333333334,272.91369133409034 604.4444444444445,278.5733286055799 615.5555555555555,268.4080353619249 626.6666666666666,328.52221572943705 637.7777777777778,273.92285211229665 648.8888888888889,319.8840505589889 660,352.21715623995146 671.1111111111111,244.76489838142837 682.2222222222223,260.4587400592566 693.3333333333334,214.82530113581615 704.4444444444445,242.953460020647 715.5555555555555,236.59436896166721 726.6666666666667,178.74290176371005 737.7777777777778,118.95716211147901 748.8888888888889,100.56004337020896 760,89.37975491471906 771.1111111111111,151.3242429332055 782.2222222222223,179.0997849306626 793.3333333333334,205.30702079121338 804.4444444444445,225.9662816019912 815.5555555555555,228.55296373453743 826.6666666666667,275.59969116730684 837.7777777777778,221.18949746913518 848.8888888888889,164.63430656245117 860,184.54198695193915 871.1111111111112,239.59772734195803 882.2222222222223,200.41769150682657 893.3333333333334,135.7009633510589 904.4444444444445,201.39850491020795 915.5555555555557,176.15565513601078 926.6666666666667,208.30720545574883 937.7777777777778,227.74520450074394 948.8888888888889,183.16800585811674 960,242.10663414950838" fill="none" stroke="#1F77B4" stroke-width="1.5" />
</g>
<g class="spine">
<line x1="540" y1="390" x2="980" y2="390" stroke="#000000" stroke-width="0.8" />
</g>
<g class="spine">
<line x1="540" y1="70" x2="980" y2="70" stroke="#000000" stroke-width="0.8" />
</g>
<g class="spine">
<line x1="540" y1="70" x2="540" y2="390" stroke="#000000" stroke-width="0.8" />
</g>
<g class="spine">
<line x1="980" y1="70" x2="980" y2="390" stroke="#000000" stroke-width="0.8" />
</g>
<rect x="892.58" y="80" width="77.42" height="28" fill="#FFFFFF" fill-opacity="0.8" stroke="#000000" stroke-width="0.5" />
<g class="legend" aria-label="Chart legend">
<rect x="900.58" y="88" width="12" height="12" fill="#1F77B4" />
<text x="918.58" y="99" font-family="sans-serif" font-size="13" text-anchor="start" fill="#000000">%R(14)</text>
</g>
<text x="760" y="62" font-family="sans-serif" font-size="15" text-anchor="middle" font-weight="bold" fill="#000000">Williams %R</text>
<rect x="60" y="430" width="440" height="320" fill="#FFFFFF" />
<line x1="80" y1="430" x2="80" y2="750" stroke="#B0B0B0" stroke-width="0.8" />
<line x1="161.63265306122446" y1="430" x2="161.63265306122446" y2="750" stroke="#B0B0B0" stroke-width="0.8" />
<line x1="243.26530612244895" y1="430" x2="243.26530612244895" y2="750" stroke="#B0B0B0" stroke-width="0.8" />
<line x1="324.89795918367344" y1="430" x2="324.89795918367344" y2="750" stroke="#B0B0B0" stroke-width="0.8" />
<line x1="406.5306122448979" y1="430" x2="406.5306122448979" y2="750" stroke="#B0B0B0" stroke-width="0.8" />
<line x1="488.16326530612236" y1="430" x2="488.16326530612236" y2="750" stroke="#B0B0B0" stroke-width="0.8" />
<line x1="60" y1="699.6452563543081" x2="500" y2="699.6452563543081" stroke="#B0B0B0" stroke-width="0.8" />
<line x1="60" y1="637.562641758771" x2="500" y2="637.562641758771" stroke="#B0B0B0" stroke-width="0.8" />
<line x1="60" y1="575.4800271632339" x2="500" y2="575.4800271632339" stroke="#B0B0B0" stroke-width="0.8" />
<line x1="60" y1="513.3974125676968" x2="500" y2="513.3974125676968" stroke="#B0B0B0" stroke-width="0.8" />
<line x1="60" y1="451.3147979721598" x2="500" y2="451.3147979721598" stroke="#B0B0B0" stroke-width="0.8" />
<line x1="80" y1="749.6" x2="80" y2="753.5" stroke="#000000" stroke-width="0.8" />
<text x="80" y="769.5" font-family="sans-serif" font-size="13" text-anchor="middle" fill="#000000">0</text>
<line x1="161.63265306122446" y1="749.6" x2="161.63265306122446" y2="753.5" stroke="#000000" stroke-width="0.8" />
<text x="161.63265306122446" y="769.5" font-family="sans-serif" font-size="13" text-anchor="middle" fill="#000000">10</text>
<line x1="243.26530612244895" y1="749.6" x2="243.26530612244895" y2="753.5" stroke="#000000" stroke-width="0.8" />
<text x="243.26530612244895" y="769.5" font-family="sans-serif" font-size="13" text-anchor="middle" fill="#000000">20</text>
<line x1="324.89795918367344" y1="749.6" x2="324.89795918367344" y2="753.5" stroke="#000000" stroke-width="0.8" />
<text x="324.89795918367344" y="769.5" font-family="sans-serif" font-size="13" text-anchor="middle" fill="#000000">30</text>
<line x1="406.5306122448979" y1="749.6" x2="406.5306122448979" y2="753.5" stroke="#000000" stroke-width="0.8" />
<text x="406.5306122448979" y="769.5" font-family="sans-serif" font-size="13" text-anchor="middle" fill="#000000">40</text>
<line x1="488.16326530612236" y1="749.6" x2="488.16326530612236" y2="753.5" stroke="#000000" stroke-width="0.8" />
<text x="488.16326530612236" y="769.5" font-family="sans-serif" font-size="13" text-anchor="middle" fill="#000000">50</text>
<line x1="63.673469387755105" y1="749.6" x2="63.673469387755105" y2="753.5" stroke="#000000" stroke-width="0.8" />
<line x1="96.3265306122449" y1="749.6" x2="96.3265306122449" y2="753.5" stroke="#000000" stroke-width="0.8" />
<line x1="112.65306122448979" y1="749.6" x2="112.65306122448979" y2="753.5" stroke="#000000" stroke-width="0.8" />
<line x1="128.9795918367347" y1="749.6" x2="128.9795918367347" y2="753.5" stroke="#000000" stroke-width="0.8" />
<line x1="145.30612244897958" y1="749.6" x2="145.30612244897958" y2="753.5" stroke="#000000" stroke-width="0.8" />
<line x1="177.95918367346937" y1="749.6" x2="177.95918367346937" y2="753.5" stroke="#000000" stroke-width="0.8" />
<line x1="194.28571428571428" y1="749.6" x2="194.28571428571428" y2="753.5" stroke="#000000" stroke-width="0.8" />
<line x1="210.61224489795916" y1="749.6" x2="210.61224489795916" y2="753.5" stroke="#000000" stroke-width="0.8" />
<line x1="226.93877551020404" y1="749.6" x2="226.93877551020404" y2="753.5" stroke="#000000" stroke-width="0.8" />
<line x1="259.59183673469386" y1="749.6" x2="259.59183673469386" y2="753.5" stroke="#000000" stroke-width="0.8" />
<line x1="275.91836734693874" y1="749.6" x2="275.91836734693874" y2="753.5" stroke="#000000" stroke-width="0.8" />
<line x1="292.2448979591836" y1="749.6" x2="292.2448979591836" y2="753.5" stroke="#000000" stroke-width="0.8" />
<line x1="308.57142857142856" y1="749.6" x2="308.57142857142856" y2="753.5" stroke="#000000" stroke-width="0.8" />
<line x1="341.2244897959183" y1="749.6" x2="341.2244897959183" y2="753.5" stroke="#000000" stroke-width="0.8" />
<line x1="357.5510204081632" y1="749.6" x2="357.5510204081632" y2="753.5" stroke="#000000" stroke-width="0.8" />
<line x1="373.8775510204081" y1="749.6" x2="373.8775510204081" y2="753.5" stroke="#000000" stroke-width="0.8" />
<line x1="390.204081632653" y1="749.6" x2="390.204081632653" y2="753.5" stroke="#000000" stroke-width="0.8" />
<line x1="422.8571428571428" y1="749.6" x2="422.8571428571428" y2="753.5" stroke="#000000" stroke-width="0.8" />
<line x1="439.1836734693877" y1="749.6" x2="439.1836734693877" y2="753.5" stroke="#000000" stroke-width="0.8" />
<line x1="455.5102040816326" y1="749.6" x2="455.5102040816326" y2="753.5" stroke="#000000" stroke-width="0.8" />
<line x1="471.8367346938775" y1="749.6" x2="471.8367346938775" y2="753.5" stroke="#000000" stroke-width="0.8" />
<line x1="696.1452563543081" y1="60" x2="700.0452563543081" y2="60" stroke="#000000" stroke-width="0.8" />
<text x="53.5" y="703.6452563543081" font-family="sans-serif" font-size="13" text-anchor="end" fill="#000000">-6E+05</text>
<line x1="634.062641758771" y1="60" x2="637.9626417587709" y2="60" stroke="#000000" stroke-width="0.8" />
<text x="53.5" y="641.562641758771" font-family="sans-serif" font-size="13" text-anchor="end" fill="#000000">-4E+05</text>
<line x1="571.9800271632339" y1="60" x2="575.8800271632339" y2="60" stroke="#000000" stroke-width="0.8" />
<text x="53.5" y="579.4800271632339" font-family="sans-serif" font-size="13" text-anchor="end" fill="#000000">-2E+05</text>
<line x1="509.89741256769685" y1="60" x2="513.7974125676968" y2="60" stroke="#000000" stroke-width="0.8" />
<text x="53.5" y="517.3974125676968" font-family="sans-serif" font-size="13" text-anchor="end" fill="#000000">0</text>
<line x1="447.8147979721598" y1="60" x2="451.7147979721598" y2="60" stroke="#000000" stroke-width="0.8" />
<text x="53.5" y="455.3147979721598" font-family="sans-serif" font-size="13" text-anchor="end" fill="#000000">2E+05</text>
<line x1="745.8113480307378" y1="60" x2="749.7113480307378" y2="60" stroke="#000000" stroke-width="0.8" />
<line x1="733.3948251116303" y1="60" x2="737.2948251116303" y2="60" stroke="#000000" stroke-width="0.8" />
<line x1="720.978302192523" y1="60" x2="724.8783021925229" y2="60" stroke="#000000" stroke-width="0.8" />
<line x1="708.5617792734155" y1="60" x2="712.4617792734155" y2="60" stroke="#000000" stroke-width="0.8" />
<line x1="683.7287334352006" y1="60" x2="687.6287334352006" y2="60" stroke="#000000" stroke-width="0.8" />
<line x1="671.3122105160933" y1="60" x2="675.2122105160933" y2="60" stroke="#000000" stroke-width="0.8" />
<line x1="658.8956875969859" y1="60" x2="662.7956875969859" y2="60" stroke="#000000" stroke-width="0.8" />
<line x1="646.4791646778784" y1="60" x2="650.3791646778784" y2="60" stroke="#000000" stroke-width="0.8" />
<line x1="621.6461188396636" y1="60" x2="625.5461188396636" y2="60" stroke="#000000" stroke-width="0.8" />
<line x1="609.2295959205562" y1="60" x2="613.1295959205562" y2="60" stroke="#000000" stroke-width="0.8" />
<line x1="596.8130730014487" y1="60" x2="600.7130730014487" y2="60" stroke="#000000" stroke-width="0.8" />
<line x1="584.3965500823414" y1="60" x2="588.2965500823414" y2="60" stroke="#000000" stroke-width="0.8" />
<line x1="559.5635042441265" y1="60" x2="563.4635042441265" y2="60" stroke="#000000" stroke-width="0.8" />
<line x1="547.146981325019" y1="60" x2="551.046981325019" y2="60" stroke="#000000" stroke-width="0.8" />
<line x1="534.7304584059117" y1="60" x2="538.6304584059117" y2="60" stroke="#000000" stroke-width="0.8" />
<line x1="522.3139354868042" y1="60" x2="526.2139354868042" y2="60" stroke="#000000" stroke-width="0.8" />
<line x1="497.4808896485894" y1="60" x2="501.3808896485894" y2="60" stroke="#000000" stroke-width="0.8" />
<line x1="485.064366729482" y1="60" x2="488.964366729482" y2="60" stroke="#000000" stroke-width="0.8" />
<line x1="472.6478438103746" y1="60" x2="476.54784381037456" y2="60" stroke="#000000" stroke-width="0.8" />
<line x1="460.23132089126716" y1="60" x2="464.13132089126714" y2="60" stroke="#000000" stroke-width="0.8" />
<line x1="435.3982750530523" y1="60" x2="439.2982750530523" y2="60" stroke="#000000" stroke-width="0.8" />
<g class="series" aria-label="OBV">
<polyline points="80,494.6750701129522 88.16326530612244,514.8068823558183 96.3265306122449,546.2467407056847 104.48979591836735,508.53312165486915 112.65306122448979,544.256461664187 120.81632653061223,560.6196662845347 128.9795918367347,582.8490822570712 137.14285714285714,536.4893661100879 145.30612244897958,562.0624074832732 153.46938775510202,545.2354083329609 161.63265306122446,500.96368530917863 169.79591836734693,465.7480685937833 177.95918367346937,444.54545454545456 186.1224489795918,490.7171253717237 194.28571428571428,469.40081837038815 202.44897959183672,507.03777009875694 210.61224489795916,549.9035548719388 218.7755102040816,579.8164128930492 226.93877551020404,560.3124668167453 235.1020408163265,605.0212724969916 243.26530612244895,577.0831807245547 251.4285714285714,620.2475159097189 259.59183673469386,654.8874879474142 267.75510204081627,630.6594711689129 275.91836734693874,653.8507551431707 284.0816326530612,629.7277790023264 292.2448979591836,647.788825318675 300.4081632653061,687.484261580138 308.57142857142856,644.31313463531 316.73469387755097,622.2353146343075 324.89795918367344,603.2680801872062 333.06122448979585,565.3764758198608 341.2244897959183,598.9550934790582 349.3877551020408,616.2042168176474 357.5510204081632,640.7682125210686 365.71428571428567,667.6963422513534 373.8775510204081,714.237724916715 382.04081632653055,735.4545454545455 390.204081632653,707.917806155829 398.3673469387754,665.0608018392237 406.5306122448979,708.229446804848 414.69387755102036,724.3281198565014 422.8571428571428,688.459181029614 431.02040816326524,649.5887978346516 439.1836734693877,666.4316355586083 447.3469387755101,640.236596569047 455.5102040816326,674.5527358656535 463.673469387755,694.292308853833 471.8367346938775,667.8663432275256 479.99999999999994,688.2119376349035" fill="none" stroke="#1F77B4" stroke-width="1.5" />
</g>
<g class="spine">
<line x1="60" y1="750" x2="500" y2="750" stroke="#000000" stroke-width="0.8" />
</g>
<g class="spine">
<line x1="60" y1="430" x2="500" y2="430" stroke="#000000" stroke-width="0.8" />
</g>
<g class="spine">
<line x1="60" y1="430" x2="60" y2="750" stroke="#000000" stroke-width="0.8" />
</g>
<g class="spine">
<line x1="500" y1="430" x2="500" y2="750" stroke="#000000" stroke-width="0.8" />
</g>
<rect x="429.22" y="440" width="60.78" height="28" fill="#FFFFFF" fill-opacity="0.8" stroke="#000000" stroke-width="0.5" />
<g class="legend" aria-label="Chart legend">
<rect x="437.22" y="448" width="12" height="12" fill="#1F77B4" />
<text x="455.22" y="459" font-family="sans-serif" font-size="13" text-anchor="start" fill="#000000">OBV</text>
</g>
<text x="280" y="422" font-family="sans-serif" font-size="15" text-anchor="middle" font-weight="bold" fill="#000000">On-Balance Volume</text>
<rect x="540" y="430" width="440" height="320" fill="#FFFFFF" />
<line x1="573.3333333333333" y1="430" x2="573.3333333333333" y2="750" stroke="#B0B0B0" stroke-width="0.8" />
<line x1="640" y1="430" x2="640" y2="750" stroke="#B0B0B0" stroke-width="0.8" />
<line x1="706.6666666666666" y1="430" x2="706.6666666666666" y2="750" stroke="#B0B0B0" stroke-width="0.8" />
<line x1="773.3333333333333" y1="430" x2="773.3333333333333" y2="750" stroke="#B0B0B0" stroke-width="0.8" />
<line x1="840" y1="430" x2="840" y2="750" stroke="#B0B0B0" stroke-width="0.8" />
<line x1="906.6666666666666" y1="430" x2="906.6666666666666" y2="750" stroke="#B0B0B0" stroke-width="0.8" />
<line x1="973.3333333333334" y1="430" x2="973.3333333333334" y2="750" stroke="#B0B0B0" stroke-width="0.8" />
<line x1="540" y1="722.8955076525385" x2="980" y2="722.8955076525385" stroke="#B0B0B0" stroke-width="0.8" />
<line x1="540" y1="678.7624517262252" x2="980" y2="678.7624517262252" stroke="#B0B0B0" stroke-width="0.8" />
<line x1="540" y1="634.6293957999119" x2="980" y2="634.6293957999119" stroke="#B0B0B0" stroke-width="0.8" />
<line x1="540" y1="590.4963398735986" x2="980" y2="590.4963398735986" stroke="#B0B0B0" stroke-width="0.8" />
<line x1="540" y1="546.3632839472853" x2="980" y2="546.3632839472853" stroke="#B0B0B0" stroke-width="0.8" />
<line x1="540" y1="502.23022802097194" x2="980" y2="502.23022802097194" stroke="#B0B0B0" stroke-width="0.8" />
<line x1="540" y1="458.0971720946586" x2="980" y2="458.0971720946586" stroke="#B0B0B0" stroke-width="0.8" />
<line x1="573.3333333333333" y1="749.6" x2="573.3333333333333" y2="753.5" stroke="#000000" stroke-width="0.8" />
<text x="573.3333333333333" y="769.5" font-family="sans-serif" font-size="13" text-anchor="middle" fill="#000000">20</text>
<line x1="640" y1="749.6" x2="640" y2="753.5" stroke="#000000" stroke-width="0.8" />
<text x="640" y="769.5" font-family="sans-serif" font-size="13" text-anchor="middle" fill="#000000">25</text>
<line x1="706.6666666666666" y1="749.6" x2="706.6666666666666" y2="753.5" stroke="#000000" stroke-width="0.8" />
<text x="706.6666666666666" y="769.5" font-family="sans-serif" font-size="13" text-anchor="middle" fill="#000000">30</text>
<line x1="773.3333333333333" y1="749.6" x2="773.3333333333333" y2="753.5" stroke="#000000" stroke-width="0.8" />
<text x="773.3333333333333" y="769.5" font-family="sans-serif" font-size="13" text-anchor="middle" fill="#000000">35</text>
<line x1="840" y1="749.6" x2="840" y2="753.5" stroke="#000000" stroke-width="0.8" />
<text x="840" y="769.5" font-family="sans-serif" font-size="13" text-anchor="middle" fill="#000000">40</text>
<line x1="906.6666666666666" y1="749.6" x2="906.6666666666666" y2="753.5" stroke="#000000" stroke-width="0.8" />
<text x="906.6666666666666" y="769.5" font-family="sans-serif" font-size="13" text-anchor="middle" fill="#000000">45</text>
<line x1="973.3333333333334" y1="749.6" x2="973.3333333333334" y2="753.5" stroke="#000000" stroke-width="0.8" />
<text x="973.3333333333334" y="769.5" font-family="sans-serif" font-size="13" text-anchor="middle" fill="#000000">50</text>
<line x1="546.6666666666666" y1="749.6" x2="546.6666666666666" y2="753.5" stroke="#000000" stroke-width="0.8" />
<line x1="560" y1="749.6" x2="560" y2="753.5" stroke="#000000" stroke-width="0.8" />
<line x1="586.6666666666666" y1="749.6" x2="586.6666666666666" y2="753.5" stroke="#000000" stroke-width="0.8" />
<line x1="600" y1="749.6" x2="600" y2="753.5" stroke="#000000" stroke-width="0.8" />
<line x1="613.3333333333333" y1="749.6" x2="613.3333333333333" y2="753.5" stroke="#000000" stroke-width="0.8" />
<line x1="626.6666666666666" y1="749.6" x2="626.6666666666666" y2="753.5" stroke="#000000" stroke-width="0.8" />
<line x1="653.3333333333333" y1="749.6" x2="653.3333333333333" y2="753.5" stroke="#000000" stroke-width="0.8" />
<line x1="666.6666666666666" y1="749.6" x2="666.6666666666666" y2="753.5" stroke="#000000" stroke-width="0.8" />
<line x1="680" y1="749.6" x2="680" y2="753.5" stroke="#000000" stroke-width="0.8" />
<line x1="693.3333333333333" y1="749.6" x2="693.3333333333333" y2="753.5" stroke="#000000" stroke-width="0.8" />
<line x1="720" y1="749.6" x2="720" y2="753.5" stroke="#000000" stroke-width="0.8" />
<line x1="733.3333333333333" y1="749.6" x2="733.3333333333333" y2="753.5" stroke="#000000" stroke-width="0.8" />
<line x1="746.6666666666666" y1="749.6" x2="746.6666666666666" y2="753.5" stroke="#000000" stroke-width="0.8" />
<line x1="760" y1="749.6" x2="760" y2="753.5" stroke="#000000" stroke-width="0.8" />
<line x1="786.6666666666666" y1="749.6" x2="786.6666666666666" y2="753.5" stroke="#000000" stroke-width="0.8" />
<line x1="800" y1="749.6" x2="800" y2="753.5" stroke="#000000" stroke-width="0.8" />
<line x1="813.3333333333333" y1="749.6" x2="813.3333333333333" y2="753.5" stroke="#000000" stroke-width="0.8" />
<line x1="826.6666666666666" y1="749.6" x2="826.6666666666666" y2="753.5" stroke="#000000" stroke-width="0.8" />
<line x1="853.3333333333334" y1="749.6" x2="853.3333333333334" y2="753.5" stroke="#000000" stroke-width="0.8" />
<line x1="866.6666666666666" y1="749.6" x2="866.6666666666666" y2="753.5" stroke="#000000" stroke-width="0.8" />
<line x1="880" y1="749.6" x2="880" y2="753.5" stroke="#000000" stroke-width="0.8" />
<line x1="893.3333333333334" y1="749.6" x2="893.3333333333334" y2="753.5" stroke="#000000" stroke-width="0.8" />
<line x1="920" y1="749.6" x2="920" y2="753.5" stroke="#000000" stroke-width="0.8" />
<line x1="933.3333333333334" y1="749.6" x2="933.3333333333334" y2="753.5" stroke="#000000" stroke-width="0.8" />
<line x1="946.6666666666666" y1="749.6" x2="946.6666666666666" y2="753.5" stroke="#000000" stroke-width="0.8" />
<line x1="960" y1="749.6" x2="960" y2="753.5" stroke="#000000" stroke-width="0.8" />
<line x1="719.3955076525385" y1="540" x2="723.2955076525385" y2="540" stroke="#000000" stroke-width="0.8" />
<text x="533.5" y="726.8955076525385" font-family="sans-serif" font-size="13" text-anchor="end" fill="#000000">-150</text>
<line x1="675.2624517262252" y1="540" x2="679.1624517262252" y2="540" stroke="#000000" stroke-width="0.8" />
<text x="533.5" y="682.7624517262252" font-family="sans-serif" font-size="13" text-anchor="end" fill="#000000">-100</text>
<line x1="631.1293957999119" y1="540" x2="635.0293957999119" y2="540" stroke="#000000" stroke-width="0.8" />
<text x="533.5" y="638.6293957999119" font-family="sans-serif" font-size="13" text-anchor="end" fill="#000000">-50</text>
<line x1="586.9963398735986" y1="540" x2="590.8963398735985" y2="540" stroke="#000000" stroke-width="0.8" />
<text x="533.5" y="594.4963398735986" font-family="sans-serif" font-size="13" text-anchor="end" fill="#000000">0</text>
<line x1="542.8632839472853" y1="540" x2="546.7632839472852" y2="540" stroke="#000000" stroke-width="0.8" />
<text x="533.5" y="550.3632839472853" font-family="sans-serif" font-size="13" text-anchor="end" fill="#000000">50</text>
<line x1="498.73022802097194" y1="540" x2="502.6302280209719" y2="540" stroke="#000000" stroke-width="0.8" />
<text x="533.5" y="506.23022802097194" font-family="sans-serif" font-size="13" text-anchor="end" fill="#000000">100</text>
<line x1="454.5971720946586" y1="540" x2="458.4971720946586" y2="540" stroke="#000000" stroke-width="0.8" />
<text x="533.5" y="462.0971720946586" font-family="sans-serif" font-size="13" text-anchor="end" fill="#000000">150</text>
<line x1="745.8753412083265" y1="540" x2="749.7753412083265" y2="540" stroke="#000000" stroke-width="0.8" />
<line x1="737.0487300230639" y1="540" x2="740.9487300230638" y2="540" stroke="#000000" stroke-width="0.8" />
<line x1="728.2221188378012" y1="540" x2="732.1221188378012" y2="540" stroke="#000000" stroke-width="0.8" />
<line x1="710.5688964672759" y1="540" x2="714.4688964672758" y2="540" stroke="#000000" stroke-width="0.8" />
<line x1="701.7422852820132" y1="540" x2="705.6422852820132" y2="540" stroke="#000000" stroke-width="0.8" />
<line x1="692.9156740967505" y1="540" x2="696.8156740967505" y2="540" stroke="#000000" stroke-width="0.8" />
<line x1="684.0890629114879" y1="540" x2="687.9890629114878" y2="540" stroke="#000000" stroke-width="0.8" />
<line x1="666.4358405409625" y1="540" x2="670.3358405409625" y2="540" stroke="#000000" stroke-width="0.8" />
<line x1="657.6092293556999" y1="540" x2="661.5092293556999" y2="540" stroke="#000000" stroke-width="0.8" />
<line x1="648.7826181704372" y1="540" x2="652.6826181704372" y2="540" stroke="#000000" stroke-width="0.8" />
<line x1="639.9560069851746" y1="540" x2="643.8560069851745" y2="540" stroke="#000000" stroke-width="0.8" />
<line x1="622.3027846146492" y1="540" x2="626.2027846146492" y2="540" stroke="#000000" stroke-width="0.8" />
<line x1="613.4761734293866" y1="540" x2="617.3761734293865" y2="540" stroke="#000000" stroke-width="0.8" />
<line x1="604.6495622441239" y1="540" x2="608.5495622441239" y2="540" stroke="#000000" stroke-width="0.8" />
<line x1="595.8229510588612" y1="540" x2="599.7229510588612" y2="540" stroke="#000000" stroke-width="0.8" />
<line x1="578.1697286883359" y1="540" x2="582.0697286883359" y2="540" stroke="#000000" stroke-width="0.8" />
<line x1="569.3431175030732" y1="540" x2="573.2431175030732" y2="540" stroke="#000000" stroke-width="0.8" />
<line x1="560.5165063178106" y1="540" x2="564.4165063178106" y2="540" stroke="#000000" stroke-width="0.8" />
<line x1="551.6898951325479" y1="540" x2="555.5898951325479" y2="540" stroke="#000000" stroke-width="0.8" />
<line x1="534.0366727620226" y1="540" x2="537.9366727620226" y2="540" stroke="#000000" stroke-width="0.8" />
<line x1="525.2100615767599" y1="540" x2="529.1100615767599" y2="540" stroke="#000000" stroke-width="0.8" />
<line x1="516.3834503914973" y1="540" x2="520.2834503914972" y2="540" stroke="#000000" stroke-width="0.8" />
<line x1="507.5568392062346" y1="540" x2="511.4568392062346" y2="540" stroke="#000000" stroke-width="0.8" />
<line x1="489.9036168357093" y1="540" x2="493.80361683570925" y2="540" stroke="#000000" stroke-width="0.8" />
<line x1="481.0770056504466" y1="540" x2="484.9770056504466" y2="540" stroke="#000000" stroke-width="0.8" />
<line x1="472.25039446518394" y1="540" x2="476.1503944651839" y2="540" stroke="#000000" stroke-width="0.8" />
<line x1="463.4237832799213" y1="540" x2="467.32378327992126" y2="540" stroke="#000000" stroke-width="0.8" />
<line x1="445.77056090939595" y1="540" x2="449.67056090939593" y2="540" stroke="#000000" stroke-width="0.8" />
<line x1="436.9439497241333" y1="540" x2="440.84394972413327" y2="540" stroke="#000000" stroke-width="0.8" />
<line x1="428.1173385388706" y1="540" x2="432.0173385388706" y2="540" stroke="#000000" stroke-width="0.8" />
<line x1="540" y1="502.23022802097194" x2="980" y2="502.23022802097194" stroke="#808080" stroke-width="1" stroke-dasharray="5,2" />
<line x1="540" y1="678.7624517262252" x2="980" y2="678.7624517262252" stroke="#808080" stroke-width="1" stroke-dasharray="5,2" />
<g class="series" aria-label="CCI(20)">
<polyline points="560,671.5807324646565 573.3333333333333,697.8391355997668 586.6666666666666,673.2709676575553 600,735.4545454545454 613.3333333333333,720.3871627683938 626.6666666666666,671.401376147725 640,631.1337368775248 653.3333333333333,599.2733207696735 666.6666666666666,646.2010153876539 680,603.2102743694784 693.3333333333333,538.2985242585676 706.6666666666666,470.45883799245547 720,450.38237933834296 733.3333333333333,444.5454545454545 746.6666666666666,471.16357746326855 760,534.8476761700521 773.3333333333334,561.4187894122138 786.6666666666666,589.5898512192601 800,588.7421060098617 813.3333333333334,592.9303521426117 826.6666666666666,536.5895844222363 840,499.1898156179187 853.3333333333334,549.7691389857838 866.6666666666666,579.8734332295293 880,525.8648416563494 893.3333333333334,495.04982239516903 906.6666666666666,527.0021173526487 920,528.927447033855 933.3333333333334,558.7607827683153 946.6666666666666,606.8165001693674 960,556.5813496080183" fill="none" stroke="#1F77B4" stroke-width="1.5" />
</g>
<g class="spine">
<line x1="540" y1="750" x2="980" y2="750" stroke="#000000" stroke-width="0.8" />
</g>
<g class="spine">
<line x1="540" y1="430" x2="980" y2="430" stroke="#000000" stroke-width="0.8" />
</g>
<g class="spine">
<line x1="540" y1="430" x2="540" y2="750" stroke="#000000" stroke-width="0.8" />
</g>
<g class="spine">
<line x1="980" y1="430" x2="980" y2="750" stroke="#000000" stroke-width="0.8" />
</g>
<rect x="891.28" y="440" width="78.72" height="28" fill="#FFFFFF" fill-opacity="0.8" stroke="#000000" stroke-width="0.5" />
<g class="legend" aria-label="Chart legend">
<rect x="899.28" y="448" width="12" height="12" fill="#1F77B4" />
<text x="917.28" y="459" font-family="sans-serif" font-size="13" text-anchor="start" fill="#000000">CCI(20)</text>
</g>
<text x="760" y="422" font-family="sans-serif" font-size="15" text-anchor="middle" font-weight="bold" fill="#000000">CCI(20)</text>
</svg>
