<svg xmlns="http://www.w3.org/2000/svg" viewBox="0 0 600 600" width="600" height="600" style="width:100%;height:auto" role="img" aria-labelledby="chart-title">
<title id="chart-title">Language Popularity</title>
<rect x="0" y="0" width="600" height="600" fill="#FFFFFF" />
<path d="M1.64214 -13.0411L5.00505 -13.0411L5.00505 -2.54183L10.9098 -2.54183L10.9098 0L1.64214 0L1.64214 -13.0411ZM17.2862 -4.40234Q16.3079 -4.40234 15.8144 -4.07042Q15.3209 -3.7385 15.3209 -3.09212Q15.3209 -2.49816 15.7183 -2.16187Q16.1157 -1.82558 16.8232 -1.82558Q17.7055 -1.82558 18.3082 -2.45885Q18.9109 -3.09212 18.9109 -4.04422L18.9109 -4.40234L17.2862 -4.40234ZM22.0641 -5.58154L22.0641 0L18.9109 0L18.9109 -1.44998Q18.282 -0.559028 17.4958 -0.152859Q16.7097 0.253309 15.5829 0.253309Q14.063 0.253309 13.1153 -0.633274Q12.1676 -1.51986 12.1676 -2.9349Q12.1676 -4.65565 13.3512 -5.45926Q14.5347 -6.26286 17.0678 -6.26286L18.9109 -6.26286L18.9109 -6.50743Q18.9109 -7.24989 18.3256 -7.59492Q17.7404 -7.93994 16.5001 -7.93994Q15.4956 -7.93994 14.6308 -7.73904Q13.7661 -7.53814 13.0236 -7.13634L13.0236 -9.52094Q14.0281 -9.76552 15.0413 -9.89217Q16.0546 -10.0188 17.0678 -10.0188Q19.7145 -10.0188 20.8893 -8.97502Q22.0641 -7.93121 22.0641 -5.58154ZM34.8082 -5.95714L34.8082 0L31.6637 0L31.6637 -0.969564L31.6637 -4.55957Q31.6637 -5.82612 31.6069 -6.30653Q31.5501 -6.78695 31.4104 -7.01405Q31.2269 -7.31977 30.9125 -7.4901Q30.598 -7.66043 30.1962 -7.66043Q29.2179 -7.66043 28.6589 -6.90487Q28.0999 -6.14931 28.0999 -4.81288L28.0999 0L24.9728 0L24.9728 -9.78299L28.0999 -9.78299L28.0999 -8.35048Q28.8074 -9.20649 29.6023 -9.61266Q30.3971 -10.0188 31.358 -10.0188Q33.0525 -10.0188 33.9304 -8.97938Q34.8082 -7.93994 34.8082 -5.95714ZM44.3641 -1.65961Q43.7177 -0.803602 42.9403 -0.401801Q42.1629 0 41.141 0Q39.3503 0 38.1799 -1.41067Q37.0094 -2.82134 37.0094 -5.00505Q37.0094 -7.19748 38.1799 -8.59942Q39.3503 -10.0014 41.141 -10.0014Q42.1629 -10.0014 42.9403 -9.59956Q43.7177 -9.19775 44.3641 -8.33301L44.3641 -9.78299L47.5086 -9.78299L47.5086 -0.987033Q47.5086 1.37137 46.0193 2.61608Q44.5301 3.86079 41.7 3.86079Q40.7828 3.86079 39.9268 3.72103Q39.0708 3.58127 38.2061 3.29302L38.2061 0.856011Q39.0271 1.32769 39.8133 1.55916Q40.5994 1.79064 41.3943 1.79064Q42.9316 1.79064 43.6478 1.11806Q44.3641 0.445475 44.3641 -0.987033L44.3641 -1.65961ZM42.3027 -7.74778Q41.3331 -7.74778 40.7916 -7.03152Q40.25 -6.31527 40.25 -5.00505Q40.25 -3.65988 40.7741 -2.96547Q41.2982 -2.27105 42.3027 -2.27105Q43.281 -2.27105 43.8225 -2.9873Q44.3641 -3.70356 44.3641 -5.00505Q44.3641 -6.31527 43.8225 -7.03152Q43.281 -7.74778 42.3027 -7.74778ZM50.4086 -3.80838L50.4086 -9.78299L53.5531 -9.78299L53.5531 -8.80469Q53.5531 -8.00982 53.5444 -6.80878Q53.5356 -5.60775 53.5356 -5.20595Q53.5356 -4.02675 53.5968 -3.50703Q53.6579 -2.9873 53.8064 -2.75146Q53.9986 -2.44575 54.3087 -2.27979Q54.6188 -2.11382 55.0206 -2.11382Q55.9989 -2.11382 56.5579 -2.86502Q57.1169 -3.61621 57.1169 -4.95264L57.1169 -9.78299L60.244 -9.78299L60.244 0L57.1169 0L57.1169 -1.41504Q56.4094 -0.559028 55.6189 -0.152859Q54.8284 0.253309 53.8763 0.253309Q52.1817 0.253309 51.2952 -0.786133Q50.4086 -1.82558 50.4086 -3.80838ZM67.6336 -4.40234Q66.6553 -4.40234 66.1618 -4.07042Q65.6683 -3.7385 65.6683 -3.09212Q65.6683 -2.49816 66.0657 -2.16187Q66.4632 -1.82558 67.1707 -1.82558Q68.0529 -1.82558 68.6556 -2.45885Q69.2583 -3.09212 69.2583 -4.04422L69.2583 -4.40234L67.6336 -4.40234ZM72.4116 -5.58154L72.4116 0L69.2583 0L69.2583 -1.44998Q68.6294 -0.559028 67.8433 -0.152859Q67.0571 0.253309 65.9303 0.253309Q64.4105 0.253309 63.4628 -0.633274Q62.515 -1.51986 62.515 -2.9349Q62.515 -4.65565 63.6986 -5.45926Q64.8822 -6.26286 67.4153 -6.26286L69.2583 -6.26286L69.2583 -6.50743Q69.2583 -7.24989 68.6731 -7.59492Q68.0878 -7.93994 66.8475 -7.93994Q65.843 -7.93994 64.9782 -7.73904Q64.1135 -7.53814 63.371 -7.13634L63.371 -9.52094Q64.3755 -9.76552 65.3888 -9.89217Q66.402 -10.0188 67.4153 -10.0188Q70.0619 -10.0188 71.2367 -8.97502Q72.4116 -7.93121 72.4116 -5.58154ZM81.9762 -1.65961Q81.3298 -0.803602 80.5524 -0.401801Q79.775 0 78.753 0Q76.9624 0 75.7919 -1.41067Q74.6215 -2.82134 74.6215 -5.00505Q74.6215 -7.19748 75.7919 -8.59942Q76.9624 -10.0014 78.753 -10.0014Q79.775 -10.0014 80.5524 -9.59956Q81.3298 -9.19775 81.9762 -8.33301L81.9762 -9.78299L85.1207 -9.78299L85.1207 -0.987033Q85.1207 1.37137 83.6314 2.61608Q82.1421 3.86079 79.3121 3.86079Q78.3949 3.86079 77.5389 3.72103Q76.6829 3.58127 75.8181 3.29302L75.8181 0.856011Q76.6392 1.32769 77.4253 1.55916Q78.2115 1.79064 79.0063 1.79064Q80.5437 1.79064 81.2599 1.11806Q81.9762 0.445475 81.9762 -0.987033L81.9762 -1.65961ZM79.9148 -7.74778Q78.9452 -7.74778 78.4036 -7.03152Q77.8621 -6.31527 77.8621 -5.00505Q77.8621 -3.65988 78.3862 -2.96547Q78.9103 -2.27105 79.9148 -2.27105Q80.8931 -2.27105 81.4346 -2.9873Q81.9762 -3.70356 81.9762 -5.00505Q81.9762 -6.31527 81.4346 -7.03152Q80.8931 -7.74778 79.9148 -7.74778ZM97.891 -4.9177L97.891 -4.02675L90.58 -4.02675Q90.6935 -2.92616 91.3748 -2.37587Q92.0562 -1.82558 93.279 -1.82558Q94.2661 -1.82558 95.3011 -2.11819Q96.3362 -2.41081 97.4281 -3.00477L97.4281 -0.593967Q96.3187 -0.174696 95.2094 0.0393066Q94.1001 0.253309 92.9908 0.253309Q90.3354 0.253309 88.8636 -1.09622Q87.3918 -2.44575 87.3918 -4.88276Q87.3918 -7.2761 88.8374 -8.64746Q90.283 -10.0188 92.8161 -10.0188Q95.1221 -10.0188 96.5065 -8.62999Q97.891 -7.24116 97.891 -4.9177ZM94.6766 -5.95714Q94.6766 -6.84809 94.1569 -7.39402Q93.6372 -7.93994 92.7986 -7.93994Q91.8902 -7.93994 91.3224 -7.42896Q90.7547 -6.91797 90.6149 -5.95714L94.6766 -5.95714ZM106.626 -13.0411L112.207 -13.0411Q114.697 -13.0411 116.029 -11.9361Q117.361 -10.8312 117.361 -8.78722Q117.361 -6.73454 116.029 -5.62958Q114.697 -4.52463 112.207 -4.52463L109.989 -4.52463L109.989 0L106.626 0L106.626 -13.0411ZM109.989 -10.6041L109.989 -6.96164L111.849 -6.96164Q112.828 -6.96164 113.36 -7.43769Q113.893 -7.91374 113.893 -8.78722Q113.893 -9.6607 113.36 -10.1324Q112.828 -10.6041 111.849 -10.6041L109.989 -10.6041ZM124.253 -7.78271Q123.213 -7.78271 122.667 -7.03589Q122.121 -6.28906 122.121 -4.88276Q122.121 -3.47645 122.667 -2.72963Q123.213 -1.9828 124.253 -1.9828Q125.275 -1.9828 125.816 -2.72963Q126.358 -3.47645 126.358 -4.88276Q126.358 -6.28906 125.816 -7.03589Q125.275 -7.78271 124.253 -7.78271ZM124.253 -10.0188Q126.777 -10.0188 128.196 -8.6562Q129.616 -7.29357 129.616 -4.88276Q129.616 -2.47195 128.196 -1.10932Q126.777 0.253309 124.253 0.253309Q121.72 0.253309 120.291 -1.10932Q118.863 -2.47195 118.863 -4.88276Q118.863 -7.29357 120.291 -8.6562Q121.72 -10.0188 124.253 -10.0188ZM135.014 -1.41504L135.014 3.72103L131.887 3.72103L131.887 -9.78299L135.014 -9.78299L135.014 -8.35048Q135.66 -9.20649 136.446 -9.61266Q137.233 -10.0188 138.255 -10.0188Q140.063 -10.0188 141.224 -8.58195Q142.386 -7.14507 142.386 -4.88276Q142.386 -2.62044 141.224 -1.18357Q140.063 0.253309 138.255 0.253309Q137.233 0.253309 136.446 -0.152859Q135.66 -0.559028 135.014 -1.41504ZM137.093 -7.74778Q136.088 -7.74778 135.551 -7.00968Q135.014 -6.27159 135.014 -4.88276Q135.014 -3.49392 135.551 -2.75583Q136.088 -2.01774 137.093 -2.01774Q138.097 -2.01774 138.626 -2.75146Q139.154 -3.48519 139.154 -4.88276Q139.154 -6.28033 138.626 -7.01405Q138.097 -7.74778 137.093 -7.74778ZM144.587 -3.80838L144.587 -9.78299L147.732 -9.78299L147.732 -8.80469Q147.732 -8.00982 147.723 -6.80878Q147.714 -5.60775 147.714 -5.20595Q147.714 -4.02675 147.775 -3.50703Q147.837 -2.9873 147.985 -2.75146Q148.177 -2.44575 148.487 -2.27979Q148.797 -2.11382 149.199 -2.11382Q150.178 -2.11382 150.737 -2.86502Q151.296 -3.61621 151.296 -4.95264L151.296 -9.78299L154.423 -9.78299L154.423 0L151.296 0L151.296 -1.41504Q150.588 -0.559028 149.798 -0.152859Q149.007 0.253309 148.055 0.253309Q146.36 0.253309 145.474 -0.786133Q144.587 -1.82558 144.587 -3.80838ZM157.427 -13.5914L160.555 -13.5914L160.555 0L157.427 0L157.427 -13.5914ZM167.944 -4.40234Q166.966 -4.40234 166.472 -4.07042Q165.979 -3.7385 165.979 -3.09212Q165.979 -2.49816 166.376 -2.16187Q166.774 -1.82558 167.481 -1.82558Q168.363 -1.82558 168.966 -2.45885Q169.569 -3.09212 169.569 -4.04422L169.569 -4.40234L167.944 -4.40234ZM172.722 -5.58154L172.722 0L169.569 0L169.569 -1.44998Q168.94 -0.559028 168.154 -0.152859Q167.368 0.253309 166.241 0.253309Q164.721 0.253309 163.773 -0.633274Q162.826 -1.51986 162.826 -2.9349Q162.826 -4.65565 164.009 -5.45926Q165.193 -6.26286 167.726 -6.26286L169.569 -6.26286L169.569 -6.50743Q169.569 -7.24989 168.984 -7.59492Q168.398 -7.93994 167.158 -7.93994Q166.154 -7.93994 165.289 -7.73904Q164.424 -7.53814 163.682 -7.13634L163.682 -9.52094Q164.686 -9.76552 165.699 -9.89217Q166.713 -10.0188 167.726 -10.0188Q170.372 -10.0188 171.547 -8.97502Q172.722 -7.93121 172.722 -5.58154ZM182.898 -7.11887Q182.488 -7.31103 182.081 -7.40275Q181.675 -7.49447 181.265 -7.49447Q180.059 -7.49447 179.409 -6.72144Q178.758 -5.94841 178.758 -4.50716L178.758 0L175.631 0L175.631 -9.78299L178.758 -9.78299L178.758 -8.17578Q179.361 -9.13661 180.142 -9.57772Q180.924 -10.0188 182.016 -10.0188Q182.173 -10.0188 182.357 -10.0057Q182.54 -9.99262 182.889 -9.94895L182.898 -7.11887ZM184.453 -9.78299L187.58 -9.78299L187.58 0L184.453 0L184.453 -9.78299ZM184.453 -13.5914L187.58 -13.5914L187.58 -11.0408L184.453 -11.0408L184.453 -13.5914ZM194 -12.5607L194 -9.78299L197.223 -9.78299L197.223 -7.54688L194 -7.54688L194 -3.39784Q194 -2.71653 194.271 -2.47632Q194.542 -2.23611 195.345 -2.23611L196.952 -2.23611L196.952 0L194.271 0Q192.419 0 191.646 -0.773031Q190.873 -1.54606 190.873 -3.39784L190.873 -7.54688L189.318 -7.54688L189.318 -9.78299L190.873 -9.78299L190.873 -12.5607L194 -12.5607ZM197.852 -9.78299L200.979 -9.78299L203.608 -3.14453L205.845 -9.78299L208.972 -9.78299L204.857 0.92589Q204.237 2.5593 203.412 3.21004Q202.586 3.86079 201.233 3.86079L199.424 3.86079L199.424 1.80811L200.403 1.80811Q201.198 1.80811 201.56 1.5548Q201.923 1.30149 202.123 0.646376L202.211 0.375597L197.852 -9.78299Z" fill="#262626" transform="translate(300,24.099999999999998) translate(-104.64737701416016,0)" />
<rect x="75" y="72" width="465" height="462" fill="#FFFFFF" />
<path d="M 313.044 308.544 L 313.044 123.74399999999997 L 322.715684713696 123.99726197735473 L 332.3608600118623 124.75635373594307 L 341.95308913943467 126.0191946580185 L 351.46608046312195 127.7823233843927 L 360.8737595349458 130.04090730178015 L 370.1503405604903 132.7887557886556 L 379.2703970759715 136.0183371833171 L 388.20893164040785 139.72079942764734 L 396.94144435186826 143.88599432998961 L 405.44399999999996 148.5025053806357 L 413.693293670777 153.55767904368562 L 421.666714623649 159.0376594395097 L 429.34240826600995 164.92742632275176 L 436.699336055117 171.21083625177755 L 443.717333163274 177.87066683672597 L 450.3771637482224 184.88866394488298 L 456.6605736772482 192.24559173399 L 462.55034056049027 199.9212853763509 L 468.03032095631437 207.894706329223 L 473.0854946193642 216.14399999999998 L 477.7020056700104 224.64655564813174 L 481.86720057235266 233.3790683595921 L 485.5696628166829 242.3176029240285 L 488.79924421134433 251.4376594395097 L 491.5470926982198 260.7142404650541 L 493.80567661560724 270.12191953687807 L 495.5688053419815 279.6349108605653 L 496.8316462640569 289.22713998813765 L 497.59073802264527 298.87231528630394 L 497.844 308.544 L 497.59073802264527 318.215684713696 L 496.8316462640569 327.8608600118623 L 495.5688053419815 337.45308913943467 L 493.8056766156073 346.9660804631219 L 491.5470926982198 356.3737595349458 L 488.7992442113444 365.65034056049024 L 485.56966281668286 374.77039707597146 L 481.86720057235266 383.70893164040785 L 477.7020056700104 392.4414443518682 L 473.0854946193642 400.94399999999996 L 468.0303209563143 409.193293670777 L 462.55034056049027 417.166714623649 Z " fill="#000000" fill-opacity="0.3137254901960784" />
<path d="M 307.5 303 L 307.5 118.19999999999999 L 317.17168471369604 118.45326197735474 L 326.81686001186233 119.21235373594308 L 336.4090891394347 120.47519465801852 L 345.922080463122 122.23832338439271 L 355.3297595349458 124.49690730178017 L 364.6063405604903 127.24475578865562 L 373.72639707597153 130.47433718331712 L 382.6649316404079 134.17679942764735 L 391.3974443518683 138.34199432998963 L 399.9 142.95850538063573 L 408.149293670777 148.01367904368564 L 416.122714623649 153.4936594395097 L 423.79840826601 159.38342632275177 L 431.155336055117 165.66683625177757 L 438.17333316327404 172.326666836726 L 444.83316374822243 179.344663944883 L 451.1165736772482 186.70159173399003 L 457.0063405604903 194.37728537635093 L 462.4863209563144 202.35070632922302 L 467.54149461936424 210.6 L 472.1580056700104 219.10255564813176 L 476.3232005723527 227.83506835959213 L 480.02566281668294 236.77360292402852 L 483.25524421134435 245.89365943950972 L 486.0030926982198 255.17024046505412 L 488.26167661560726 264.5779195368781 L 490.0248053419815 274.0909108605653 L 491.2876462640569 283.68313998813767 L 492.0467380226453 293.32831528630396 L 492.3 303 L 492.0467380226453 312.67168471369604 L 491.2876462640569 322.31686001186233 L 490.0248053419815 331.9090891394347 L 488.2616766156073 341.4220804631219 L 486.0030926982198 350.8297595349458 L 483.2552442113444 360.10634056049025 L 480.0256628166829 369.2263970759715 L 476.3232005723527 378.1649316404079 L 472.1580056700104 386.8974443518682 L 467.54149461936424 395.4 L 462.48632095631433 403.649293670777 L 457.0063405604903 411.622714623649 Z " fill="#1F77B4" stroke="#FFFFFF" stroke-width="1" />
<path d="M1.97266 -3.49121Q1.25 -3.49121 0.820313 -3.96729Q0.390625 -4.44336 0.390625 -5.23926Q0.390625 -6.1084 0.844727 -6.60889Q1.29883 -7.10937 2.07031 -7.10938Q2.81738 -7.10938 3.22998 -6.64551Q3.64258 -6.18164 3.64258 -5.3418Q3.64258 -4.50195 3.18115 -3.99658Q2.71973 -3.49121 1.97266 -3.49121ZM2.04102 -6.57227Q1.57715 -6.57227 1.30859 -6.22803Q1.04004 -5.88379 1.04004 -5.2832Q1.04004 -4.69238 1.30371 -4.36279Q1.56738 -4.0332 2.02148 -4.0332Q2.48047 -4.0332 2.73926 -4.375Q2.99805 -4.7168 2.99805 -5.32227Q2.99805 -5.91309 2.7417 -6.24268Q2.48535 -6.57227 2.04102 -6.57227ZM6.66016 -7.00195L2.16797 0.0488281L1.46973 0.0488281L5.95703 -7.00195L6.66016 -7.00195ZM6.14258 0.107422Q5.41992 0.107422 4.99023 -0.371094Q4.56055 -0.849609 4.56055 -1.64063Q4.56055 -2.50977 5.01953 -3.01514Q5.47852 -3.52051 6.24023 -3.52051Q6.98242 -3.52051 7.39746 -3.05176Q7.8125 -2.58301 7.8125 -1.73828Q7.8125 -0.90332 7.35107 -0.397949Q6.88965 0.107422 6.14258 0.107422ZM6.21094 -2.96875Q5.74219 -2.96875 5.47607 -2.62695Q5.20996 -2.28516 5.20996 -1.67969Q5.20996 -1.09863 5.47363 -0.769043Q5.7373 -0.439453 6.19141 -0.439453Q6.65039 -0.439453 6.90918 -0.783691Q7.16797 -1.12793 7.16797 -1.72852Q7.16797 -2.32422 6.91162 -2.64648Q6.65527 -2.96875 6.21094 -2.96875ZM9.27246 0.107422Q9.04785 0.107422 8.88916 -0.0537109Q8.73047 -0.214844 8.73047 -0.439453Q8.73047 -0.664063 8.88916 -0.827637Q9.04785 -0.991211 9.27246 -0.991211Q9.50195 -0.991211 9.66309 -0.827637Q9.82422 -0.664062 9.82422 -0.439453Q9.82422 -0.214844 9.66309 -0.0537109Q9.50195 0.107422 9.27246 0.107422ZM15.332 -3.53027Q15.332 -2.65137 15.1733 -1.97266Q15.0146 -1.29395 14.7144 -0.827637Q14.4141 -0.361328 13.9771 -0.119629Q13.54 0.12207 12.9834 0.12207Q12.4561 0.12207 12.0435 -0.109863Q11.6309 -0.341797 11.3477 -0.786133Q11.0645 -1.23047 10.918 -1.87744Q10.7715 -2.52441 10.7715 -3.35938Q10.7715 -4.27734 10.9253 -4.98047Q11.0791 -5.68359 11.377 -6.15967Q11.6748 -6.63574 12.1167 -6.87744Q12.5586 -7.11914 13.1299 -7.11914Q15.332 -7.11914 15.332 -3.53027ZM14.5117 -3.45215Q14.5117 -6.44043 13.0908 -6.44043Q11.5918 -6.44043 11.5918 -3.39844Q11.5918 -0.561523 13.0615 -0.561523Q14.5117 -0.561523 14.5117 -3.45215ZM19.0234 -6.69922Q18.7891 -6.83105 18.4912 -6.83105Q17.6514 -6.83105 17.6514 -5.77148L17.6514 -5L18.8232 -5L18.8232 -4.31641L17.6514 -4.31641L17.6514 0L16.8555 0L16.8555 -4.31641L16.001 -4.31641L16.001 -5L16.8555 -5L16.8555 -5.81055Q16.8555 -6.59668 17.3096 -7.05322Q17.7637 -7.50977 18.4424 -7.50977Q18.8086 -7.50977 19.0234 -7.42188L19.0234 -6.69922ZM20.8447 -3.49121Q20.1221 -3.49121 19.6924 -3.96729Q19.2627 -4.44336 19.2627 -5.23926Q19.2627 -6.1084 19.7168 -6.60889Q20.1709 -7.10937 20.9424 -7.10938Q21.6895 -7.10938 22.1021 -6.64551Q22.5146 -6.18164 22.5146 -5.3418Q22.5146 -4.50195 22.0532 -3.99658Q21.5918 -3.49121 20.8447 -3.49121ZM20.9131 -6.57227Q20.4492 -6.57227 20.1807 -6.22803Q19.9121 -5.88379 19.9121 -5.2832Q19.9121 -4.69238 20.1758 -4.36279Q20.4395 -4.0332 20.8936 -4.0332Q21.3525 -4.0332 21.6113 -4.375Q21.8701 -4.7168 21.8701 -5.32227Q21.8701 -5.91309 21.6138 -6.24268Q21.3574 -6.57227 20.9131 -6.57227ZM25.5322 -7.00195L21.04 0.0488281L20.3418 0.0488281L24.8291 -7.00195L25.5322 -7.00195ZM25.0146 0.107422Q24.292 0.107422 23.8623 -0.371094Q23.4326 -0.849609 23.4326 -1.64063Q23.4326 -2.50977 23.8916 -3.01514Q24.3506 -3.52051 25.1123 -3.52051Q25.8545 -3.52051 26.2695 -3.05176Q26.6846 -2.58301 26.6846 -1.73828Q26.6846 -0.90332 26.2231 -0.397949Q25.7617 0.107422 25.0146 0.107422ZM25.083 -2.96875Q24.6143 -2.96875 24.3481 -2.62695Q24.082 -2.28516 24.082 -1.67969Q24.082 -1.09863 24.3457 -0.769043Q24.6094 -0.439453 25.0635 -0.439453Q25.5225 -0.439453 25.7813 -0.783691Q26.04 -1.12793 26.04 -1.72852Q26.04 -2.32422 25.7837 -2.64648Q25.5273 -2.96875 25.083 -2.96875ZM29.0283 -3.49121Q28.3057 -3.49121 27.876 -3.96729Q27.4463 -4.44336 27.4463 -5.23926Q27.4463 -6.1084 27.9004 -6.60889Q28.3545 -7.10937 29.126 -7.10938Q29.873 -7.10938 30.2856 -6.64551Q30.6982 -6.18164 30.6982 -5.3418Q30.6982 -4.50195 30.2368 -3.99658Q29.7754 -3.49121 29.0283 -3.49121ZM29.0967 -6.57227Q28.6328 -6.57227 28.3643 -6.22803Q28.0957 -5.88379 28.0957 -5.2832Q28.0957 -4.69238 28.3594 -4.36279Q28.623 -4.0332 29.0771 -4.0332Q29.5361 -4.0332 29.7949 -4.375Q30.0537 -4.7168 30.0537 -5.32227Q30.0537 -5.91309 29.7974 -6.24268Q29.541 -6.57227 29.0967 -6.57227ZM33.7158 -7.00195L29.2236 0.0488281L28.5254 0.0488281L33.0127 -7.00195L33.7158 -7.00195ZM33.1982 0.107422Q32.4756 0.107422 32.0459 -0.371094Q31.6162 -0.849609 31.6162 -1.64063Q31.6162 -2.50977 32.0752 -3.01514Q32.5342 -3.52051 33.2959 -3.52051Q34.0381 -3.52051 34.4531 -3.05176Q34.8682 -2.58301 34.8682 -1.73828Q34.8682 -0.90332 34.4067 -0.397949Q33.9453 0.107422 33.1982 0.107422ZM33.2666 -2.96875Q32.7979 -2.96875 32.5317 -2.62695Q32.2656 -2.28516 32.2656 -1.67969Q32.2656 -1.09863 32.5293 -0.769043Q32.793 -0.439453 33.2471 -0.439453Q33.7061 -0.439453 33.9648 -0.783691Q34.2236 -1.12793 34.2236 -1.72852Q34.2236 -2.32422 33.9673 -2.64648Q33.7109 -2.96875 33.2666 -2.96875Z" fill="#FFFFFF" transform="translate(406.2948034020062,252.66153338887904) translate(-17.61962890625,0)" />
<path d="M 313.044 308.544 L 462.55034056049027 417.166714623649 L 456.6605736772482 424.84240826600995 L 450.3771637482224 432.199336055117 L 443.717333163274 439.217333163274 L 436.699336055117 445.8771637482224 L 429.34240826600995 452.1605736772482 L 421.666714623649 458.05034056049027 L 413.693293670777 463.53032095631437 L 405.444 468.5854946193642 L 396.94144435186826 473.20200567001035 L 388.2089316404079 477.36720057235266 L 379.2703970759715 481.06966281668286 L 370.1503405604903 484.29924421134433 L 360.8737595349458 487.0470926982198 L 351.4660804631219 489.3056766156073 L 341.95308913943467 491.0688053419815 L 332.36086001186237 492.3316462640569 L 322.71568471369596 493.09073802264527 L 313.044 493.344 L 303.372315286304 493.09073802264527 L 293.72713998813765 492.33164626405693 L 284.13491086056536 491.0688053419815 L 274.62191953687807 489.3056766156073 L 265.21424046505416 487.0470926982198 L 255.9376594395097 484.2992442113444 L 246.8176029240285 481.06966281668286 L 237.87906835959208 477.36720057235266 L 229.14655564813174 473.2020056700104 L 220.64399999999995 468.5854946193642 L 212.39470632922297 463.53032095631437 L 204.42128537635097 458.05034056049027 Z " fill="#000000" fill-opacity="0.3137254901960784" />
<path d="M 307.5 303 L 457.0063405604903 411.622714623649 L 451.1165736772482 419.29840826601 L 444.83316374822243 426.655336055117 L 438.17333316327404 433.67333316327404 L 431.155336055117 440.33316374822243 L 423.79840826601 446.6165736772482 L 416.122714623649 452.5063405604903 L 408.149293670777 457.9863209563144 L 399.90000000000003 463.04149461936424 L 391.3974443518683 467.65800567001037 L 382.66493164040793 471.8232005723527 L 373.72639707597153 475.5256628166829 L 364.6063405604903 478.75524421134435 L 355.3297595349458 481.5030926982198 L 345.9220804631219 483.7616766156073 L 336.4090891394347 485.5248053419815 L 326.8168600118624 486.7876462640569 L 317.171684713696 487.5467380226453 L 307.5 487.8 L 297.828315286304 487.5467380226453 L 288.18313998813767 486.78764626405695 L 278.5909108605654 485.5248053419815 L 269.0779195368781 483.7616766156073 L 259.6702404650542 481.5030926982198 L 250.39365943950972 478.7552442113444 L 241.27360292402852 475.5256628166829 L 232.3350683595921 471.8232005723527 L 223.60255564813176 467.6580056700104 L 215.09999999999997 463.04149461936424 L 206.850706329223 457.9863209563144 L 198.87728537635098 452.5063405604903 Z " fill="#FF7F0E" stroke="#FFFFFF" stroke-width="1" />
<path d="M1.97266 -3.49121Q1.25 -3.49121 0.820313 -3.96729Q0.390625 -4.44336 0.390625 -5.23926Q0.390625 -6.1084 0.844727 -6.60889Q1.29883 -7.10937 2.07031 -7.10938Q2.81738 -7.10938 3.22998 -6.64551Q3.64258 -6.18164 3.64258 -5.3418Q3.64258 -4.50195 3.18115 -3.99658Q2.71973 -3.49121 1.97266 -3.49121ZM2.04102 -6.57227Q1.57715 -6.57227 1.30859 -6.22803Q1.04004 -5.88379 1.04004 -5.2832Q1.04004 -4.69238 1.30371 -4.36279Q1.56738 -4.0332 2.02148 -4.0332Q2.48047 -4.0332 2.73926 -4.375Q2.99805 -4.7168 2.99805 -5.32227Q2.99805 -5.91309 2.7417 -6.24268Q2.48535 -6.57227 2.04102 -6.57227ZM6.66016 -7.00195L2.16797 0.0488281L1.46973 0.0488281L5.95703 -7.00195L6.66016 -7.00195ZM6.14258 0.107422Q5.41992 0.107422 4.99023 -0.371094Q4.56055 -0.849609 4.56055 -1.64063Q4.56055 -2.50977 5.01953 -3.01514Q5.47852 -3.52051 6.24023 -3.52051Q6.98242 -3.52051 7.39746 -3.05176Q7.8125 -2.58301 7.8125 -1.73828Q7.8125 -0.90332 7.35107 -0.397949Q6.88965 0.107422 6.14258 0.107422ZM6.21094 -2.96875Q5.74219 -2.96875 5.47607 -2.62695Q5.20996 -2.28516 5.20996 -1.67969Q5.20996 -1.09863 5.47363 -0.769043Q5.7373 -0.439453 6.19141 -0.439453Q6.65039 -0.439453 6.90918 -0.783691Q7.16797 -1.12793 7.16797 -1.72852Q7.16797 -2.32422 6.91162 -2.64648Q6.65527 -2.96875 6.21094 -2.96875ZM9.27246 0.107422Q9.04785 0.107422 8.88916 -0.0537109Q8.73047 -0.214844 8.73047 -0.439453Q8.73047 -0.664063 8.88916 -0.827637Q9.04785 -0.991211 9.27246 -0.991211Q9.50195 -0.991211 9.66309 -0.827637Q9.82422 -0.664062 9.82422 -0.439453Q9.82422 -0.214844 9.66309 -0.0537109Q9.50195 0.107422 9.27246 0.107422ZM15.332 -3.53027Q15.332 -2.65137 15.1733 -1.97266Q15.0146 -1.29395 14.7144 -0.827637Q14.4141 -0.361328 13.9771 -0.119629Q13.54 0.12207 12.9834 0.12207Q12.4561 0.12207 12.0435 -0.109863Q11.6309 -0.341797 11.3477 -0.786133Q11.0645 -1.23047 10.918 -1.87744Q10.7715 -2.52441 10.7715 -3.35938Q10.7715 -4.27734 10.9253 -4.98047Q11.0791 -5.68359 11.377 -6.15967Q11.6748 -6.63574 12.1167 -6.87744Q12.5586 -7.11914 13.1299 -7.11914Q15.332 -7.11914 15.332 -3.53027ZM14.5117 -3.45215Q14.5117 -6.44043 13.0908 -6.44043Q11.5918 -6.44043 11.5918 -3.39844Q11.5918 -0.561523 13.0615 -0.561523Q14.5117 -0.561523 14.5117 -3.45215ZM19.0234 -6.69922Q18.7891 -6.83105 18.4912 -6.83105Q17.6514 -6.83105 17.6514 -5.77148L17.6514 -5L18.8232 -5L18.8232 -4.31641L17.6514 -4.31641L17.6514 0L16.8555 0L16.8555 -4.31641L16.001 -4.31641L16.001 -5L16.8555 -5L16.8555 -5.81055Q16.8555 -6.59668 17.3096 -7.05322Q17.7637 -7.50977 18.4424 -7.50977Q18.8086 -7.50977 19.0234 -7.42188L19.0234 -6.69922ZM20.8447 -3.49121Q20.1221 -3.49121 19.6924 -3.96729Q19.2627 -4.44336 19.2627 -5.23926Q19.2627 -6.1084 19.7168 -6.60889Q20.1709 -7.10937 20.9424 -7.10938Q21.6895 -7.10938 22.1021 -6.64551Q22.5146 -6.18164 22.5146 -5.3418Q22.5146 -4.50195 22.0532 -3.99658Q21.5918 -3.49121 20.8447 -3.49121ZM20.9131 -6.57227Q20.4492 -6.57227 20.1807 -6.22803Q19.9121 -5.88379 19.9121 -5.2832Q19.9121 -4.69238 20.1758 -4.36279Q20.4395 -4.0332 20.8936 -4.0332Q21.3525 -4.0332 21.6113 -4.375Q21.8701 -4.7168 21.8701 -5.32227Q21.8701 -5.91309 21.6138 -6.24268Q21.3574 -6.57227 20.9131 -6.57227ZM25.5322 -7.00195L21.04 0.0488281L20.3418 0.0488281L24.8291 -7.00195L25.5322 -7.00195ZM25.0146 0.107422Q24.292 0.107422 23.8623 -0.371094Q23.4326 -0.849609 23.4326 -1.64063Q23.4326 -2.50977 23.8916 -3.01514Q24.3506 -3.52051 25.1123 -3.52051Q25.8545 -3.52051 26.2695 -3.05176Q26.6846 -2.58301 26.6846 -1.73828Q26.6846 -0.90332 26.2231 -0.397949Q25.7617 0.107422 25.0146 0.107422ZM25.083 -2.96875Q24.6143 -2.96875 24.3481 -2.62695Q24.082 -2.28516 24.082 -1.67969Q24.082 -1.09863 24.3457 -0.769043Q24.6094 -0.439453 25.0635 -0.439453Q25.5225 -0.439453 25.7813 -0.783691Q26.04 -1.12793 26.04 -1.72852Q26.04 -2.32422 25.7837 -2.64648Q25.5273 -2.96875 25.083 -2.96875ZM29.0283 -3.49121Q28.3057 -3.49121 27.876 -3.96729Q27.4463 -4.44336 27.4463 -5.23926Q27.4463 -6.1084 27.9004 -6.60889Q28.3545 -7.10937 29.126 -7.10938Q29.873 -7.10938 30.2856 -6.64551Q30.6982 -6.18164 30.6982 -5.3418Q30.6982 -4.50195 30.2368 -3.99658Q29.7754 -3.49121 29.0283 -3.49121ZM29.0967 -6.57227Q28.6328 -6.57227 28.3643 -6.22803Q28.0957 -5.88379 28.0957 -5.2832Q28.0957 -4.69238 28.3594 -4.36279Q28.623 -4.0332 29.0771 -4.0332Q29.5361 -4.0332 29.7949 -4.375Q30.0537 -4.7168 30.0537 -5.32227Q30.0537 -5.91309 29.7974 -6.24268Q29.541 -6.57227 29.0967 -6.57227ZM33.7158 -7.00195L29.2236 0.0488281L28.5254 0.0488281L33.0127 -7.00195L33.7158 -7.00195ZM33.1982 0.107422Q32.4756 0.107422 32.0459 -0.371094Q31.6162 -0.849609 31.6162 -1.64063Q31.6162 -2.50977 32.0752 -3.01514Q32.5342 -3.52051 33.2959 -3.52051Q34.0381 -3.52051 34.4531 -3.05176Q34.8682 -2.58301 34.8682 -1.73828Q34.8682 -0.90332 34.4067 -0.397949Q33.9453 0.107422 33.1982 0.107422ZM33.2666 -2.96875Q32.7979 -2.96875 32.5317 -2.62695Q32.2656 -2.28516 32.2656 -1.67969Q32.2656 -1.09863 32.5293 -0.769043Q32.793 -0.439453 33.2471 -0.439453Q33.7061 -0.439453 33.9648 -0.783691Q34.2236 -1.12793 34.2236 -1.72852Q34.2236 -2.32422 33.9673 -2.64648Q33.7109 -2.96875 33.2666 -2.96875Z" fill="#FFFFFF" transform="translate(324.8454534836608,412.5148832051889) translate(-17.61962890625,0)" />
<path d="M 313.044 308.544 L 204.42128537635097 458.05034056049027 L 196.74559173399004 452.16057367724824 L 189.38866394488298 445.8771637482224 L 182.370666836726 439.217333163274 L 175.71083625177755 432.199336055117 L 169.42742632275176 424.84240826600995 L 163.5376594395097 417.16671462364906 L 158.05767904368562 409.19329367077705 L 153.0025053806357 400.94399999999996 L 148.38599432998961 392.44144435186826 L 144.22079942764736 383.7089316404079 L 140.5183371833171 374.77039707597146 L 137.2887557886556 365.6503405604903 L 134.54090730178018 356.37375953494586 L 132.28232338439267 346.9660804631219 L 130.51919465801853 337.45308913943467 L 129.25635373594307 327.86086001186237 L 128.49726197735473 318.215684713696 L 128.24399999999997 308.544 L 128.49726197735473 298.872315286304 L 129.25635373594304 289.2271399881377 L 130.5191946580185 279.63491086056536 L 132.2823233843927 270.121919536878 L 134.54090730178012 260.7142404650542 L 137.28875578865558 251.43765943950973 Z " fill="#000000" fill-opacity="0.3137254901960784" />
<path d="M 307.5 303 L 198.87728537635098 452.5063405604903 L 191.20159173399006 446.61657367724825 L 183.844663944883 440.33316374822243 L 176.82666683672602 433.67333316327404 L 170.16683625177757 426.655336055117 L 163.88342632275177 419.29840826601 L 157.9936594395097 411.6227146236491 L 152.51367904368564 403.64929367077707 L 147.45850538063573 395.4 L 142.84199432998963 386.8974443518683 L 138.67679942764738 378.16493164040793 L 134.97433718331712 369.2263970759715 L 131.74475578865562 360.1063405604903 L 128.9969073017802 350.8297595349459 L 126.73832338439269 341.4220804631219 L 124.97519465801855 331.9090891394347 L 123.71235373594308 322.3168600118624 L 122.95326197735474 312.67168471369604 L 122.69999999999999 303 L 122.95326197735474 293.328315286304 L 123.71235373594305 283.6831399881377 L 124.97519465801852 274.0909108605654 L 126.73832338439271 264.577919536878 L 128.99690730178014 255.17024046505423 L 131.7447557886556 245.89365943950975 Z " fill="#2CA02C" stroke="#FFFFFF" stroke-width="1" />
<path d="M1.97266 -3.49121Q1.25 -3.49121 0.820313 -3.96729Q0.390625 -4.44336 0.390625 -5.23926Q0.390625 -6.1084 0.844727 -6.60889Q1.29883 -7.10937 2.07031 -7.10938Q2.81738 -7.10938 3.22998 -6.64551Q3.64258 -6.18164 3.64258 -5.3418Q3.64258 -4.50195 3.18115 -3.99658Q2.71973 -3.49121 1.97266 -3.49121ZM2.04102 -6.57227Q1.57715 -6.57227 1.30859 -6.22803Q1.04004 -5.88379 1.04004 -5.2832Q1.04004 -4.69238 1.30371 -4.36279Q1.56738 -4.0332 2.02148 -4.0332Q2.48047 -4.0332 2.73926 -4.375Q2.99805 -4.7168 2.99805 -5.32227Q2.99805 -5.91309 2.7417 -6.24268Q2.48535 -6.57227 2.04102 -6.57227ZM6.66016 -7.00195L2.16797 0.0488281L1.46973 0.0488281L5.95703 -7.00195L6.66016 -7.00195ZM6.14258 0.107422Q5.41992 0.107422 4.99023 -0.371094Q4.56055 -0.849609 4.56055 -1.64063Q4.56055 -2.50977 5.01953 -3.01514Q5.47852 -3.52051 6.24023 -3.52051Q6.98242 -3.52051 7.39746 -3.05176Q7.8125 -2.58301 7.8125 -1.73828Q7.8125 -0.90332 7.35107 -0.397949Q6.88965 0.107422 6.14258 0.107422ZM6.21094 -2.96875Q5.74219 -2.96875 5.47607 -2.62695Q5.20996 -2.28516 5.20996 -1.67969Q5.20996 -1.09863 5.47363 -0.769043Q5.7373 -0.439453 6.19141 -0.439453Q6.65039 -0.439453 6.90918 -0.783691Q7.16797 -1.12793 7.16797 -1.72852Q7.16797 -2.32422 6.91162 -2.64648Q6.65527 -2.96875 6.21094 -2.96875ZM9.27246 0.107422Q9.04785 0.107422 8.88916 -0.0537109Q8.73047 -0.214844 8.73047 -0.439453Q8.73047 -0.664063 8.88916 -0.827637Q9.04785 -0.991211 9.27246 -0.991211Q9.50195 -0.991211 9.66309 -0.827637Q9.82422 -0.664062 9.82422 -0.439453Q9.82422 -0.214844 9.66309 -0.0537109Q9.50195 0.107422 9.27246 0.107422ZM15.332 -3.53027Q15.332 -2.65137 15.1733 -1.97266Q15.0146 -1.29395 14.7144 -0.827637Q14.4141 -0.361328 13.9771 -0.119629Q13.54 0.12207 12.9834 0.12207Q12.4561 0.12207 12.0435 -0.109863Q11.6309 -0.341797 11.3477 -0.786133Q11.0645 -1.23047 10.918 -1.87744Q10.7715 -2.52441 10.7715 -3.35938Q10.7715 -4.27734 10.9253 -4.98047Q11.0791 -5.68359 11.377 -6.15967Q11.6748 -6.63574 12.1167 -6.87744Q12.5586 -7.11914 13.1299 -7.11914Q15.332 -7.11914 15.332 -3.53027ZM14.5117 -3.45215Q14.5117 -6.44043 13.0908 -6.44043Q11.5918 -6.44043 11.5918 -3.39844Q11.5918 -0.561523 13.0615 -0.561523Q14.5117 -0.561523 14.5117 -3.45215ZM19.0234 -6.69922Q18.7891 -6.83105 18.4912 -6.83105Q17.6514 -6.83105 17.6514 -5.77148L17.6514 -5L18.8232 -5L18.8232 -4.31641L17.6514 -4.31641L17.6514 0L16.8555 0L16.8555 -4.31641L16.001 -4.31641L16.001 -5L16.8555 -5L16.8555 -5.81055Q16.8555 -6.59668 17.3096 -7.05322Q17.7637 -7.50977 18.4424 -7.50977Q18.8086 -7.50977 19.0234 -7.42188L19.0234 -6.69922ZM20.8447 -3.49121Q20.1221 -3.49121 19.6924 -3.96729Q19.2627 -4.44336 19.2627 -5.23926Q19.2627 -6.1084 19.7168 -6.60889Q20.1709 -7.10937 20.9424 -7.10938Q21.6895 -7.10938 22.1021 -6.64551Q22.5146 -6.18164 22.5146 -5.3418Q22.5146 -4.50195 22.0532 -3.99658Q21.5918 -3.49121 20.8447 -3.49121ZM20.9131 -6.57227Q20.4492 -6.57227 20.1807 -6.22803Q19.9121 -5.88379 19.9121 -5.2832Q19.9121 -4.69238 20.1758 -4.36279Q20.4395 -4.0332 20.8936 -4.0332Q21.3525 -4.0332 21.6113 -4.375Q21.8701 -4.7168 21.8701 -5.32227Q21.8701 -5.91309 21.6138 -6.24268Q21.3574 -6.57227 20.9131 -6.57227ZM25.5322 -7.00195L21.04 0.0488281L20.3418 0.0488281L24.8291 -7.00195L25.5322 -7.00195ZM25.0146 0.107422Q24.292 0.107422 23.8623 -0.371094Q23.4326 -0.849609 23.4326 -1.64063Q23.4326 -2.50977 23.8916 -3.01514Q24.3506 -3.52051 25.1123 -3.52051Q25.8545 -3.52051 26.2695 -3.05176Q26.6846 -2.58301 26.6846 -1.73828Q26.6846 -0.90332 26.2231 -0.397949Q25.7617 0.107422 25.0146 0.107422ZM25.083 -2.96875Q24.6143 -2.96875 24.3481 -2.62695Q24.082 -2.28516 24.082 -1.67969Q24.082 -1.09863 24.3457 -0.769043Q24.6094 -0.439453 25.0635 -0.439453Q25.5225 -0.439453 25.7813 -0.783691Q26.04 -1.12793 26.04 -1.72852Q26.04 -2.32422 25.7837 -2.64648Q25.5273 -2.96875 25.083 -2.96875ZM29.0283 -3.49121Q28.3057 -3.49121 27.876 -3.96729Q27.4463 -4.44336 27.4463 -5.23926Q27.4463 -6.1084 27.9004 -6.60889Q28.3545 -7.10937 29.126 -7.10938Q29.873 -7.10938 30.2856 -6.64551Q30.6982 -6.18164 30.6982 -5.3418Q30.6982 -4.50195 30.2368 -3.99658Q29.7754 -3.49121 29.0283 -3.49121ZM29.0967 -6.57227Q28.6328 -6.57227 28.3643 -6.22803Q28.0957 -5.88379 28.0957 -5.2832Q28.0957 -4.69238 28.3594 -4.36279Q28.623 -4.0332 29.0771 -4.0332Q29.5361 -4.0332 29.7949 -4.375Q30.0537 -4.7168 30.0537 -5.32227Q30.0537 -5.91309 29.7974 -6.24268Q29.541 -6.57227 29.0967 -6.57227ZM33.7158 -7.00195L29.2236 0.0488281L28.5254 0.0488281L33.0127 -7.00195L33.7158 -7.00195ZM33.1982 0.107422Q32.4756 0.107422 32.0459 -0.371094Q31.6162 -0.849609 31.6162 -1.64063Q31.6162 -2.50977 32.0752 -3.01514Q32.5342 -3.52051 33.2959 -3.52051Q34.0381 -3.52051 34.4531 -3.05176Q34.8682 -2.58301 34.8682 -1.73828Q34.8682 -0.90332 34.4067 -0.397949Q33.9453 0.107422 33.1982 0.107422ZM33.2666 -2.96875Q32.7979 -2.96875 32.5317 -2.62695Q32.2656 -2.28516 32.2656 -1.67969Q32.2656 -1.09863 32.5293 -0.769043Q32.793 -0.439453 33.2471 -0.439453Q33.7061 -0.439453 33.9648 -0.783691Q34.2236 -1.12793 34.2236 -1.72852Q34.2236 -2.32422 33.9673 -2.64648Q33.7109 -2.96875 33.2666 -2.96875Z" fill="#FFFFFF" transform="translate(202.04685347319338,337.2638043362942) translate(-17.61962890625,0)" />
<path d="M 313.044 308.544 L 137.28875578865558 251.43765943950973 L 140.38001143401806 242.6790848137913 L 143.9074312996544 234.08689068011515 L 147.8621048168464 225.68278166656205 L 152.2340421370716 217.48798728187575 L 157.01219936722757 209.52320828788143 L 162.18450646746436 201.80856440756497 L 167.7378977411528 194.3635435009062 L 173.65834483996795 187.20695233685367 L 179.9308922007148 180.3568690857936 L 186.53969482437833 173.83059765252312 L 193.46805830196666 167.6446239650844 L 200.69848098603683 161.81457432988006 L 208.2126982013754 156.35517595826659 L 215.9917283831526 151.28021976434087 L 224.015921026003 146.602525527894 Z " fill="#000000" fill-opacity="0.3137254901960784" />
<path d="M 307.5 303 L 131.7447557886556 245.89365943950975 L 134.83601143401808 237.1350848137913 L 138.36343129965442 228.54289068011516 L 142.31810481684641 220.13878166656207 L 146.69004213707163 211.94398728187576 L 151.46819936722758 203.97920828788145 L 156.64050646746438 196.264564407565 L 162.19389774115282 188.8195435009062 L 168.11434483996797 181.6629523368537 L 174.3868922007148 174.8128690857936 L 180.99569482437835 168.28659765252314 L 187.92405830196668 162.10062396508442 L 195.15448098603684 156.27057432988008 L 202.6686982013754 150.8111759582666 L 210.44772838315262 145.7362197643409 L 218.47192102600303 141.058525527894 Z " fill="#D62728" stroke="#FFFFFF" stroke-width="1" />
<path d="M1.97266 -3.49121Q1.25 -3.49121 0.820313 -3.96729Q0.390625 -4.44336 0.390625 -5.23926Q0.390625 -6.1084 0.844727 -6.60889Q1.29883 -7.10937 2.07031 -7.10938Q2.81738 -7.10938 3.22998 -6.64551Q3.64258 -6.18164 3.64258 -5.3418Q3.64258 -4.50195 3.18115 -3.99658Q2.71973 -3.49121 1.97266 -3.49121ZM2.04102 -6.57227Q1.57715 -6.57227 1.30859 -6.22803Q1.04004 -5.88379 1.04004 -5.2832Q1.04004 -4.69238 1.30371 -4.36279Q1.56738 -4.0332 2.02148 -4.0332Q2.48047 -4.0332 2.73926 -4.375Q2.99805 -4.7168 2.99805 -5.32227Q2.99805 -5.91309 2.7417 -6.24268Q2.48535 -6.57227 2.04102 -6.57227ZM6.66016 -7.00195L2.16797 0.0488281L1.46973 0.0488281L5.95703 -7.00195L6.66016 -7.00195ZM6.14258 0.107422Q5.41992 0.107422 4.99023 -0.371094Q4.56055 -0.849609 4.56055 -1.64063Q4.56055 -2.50977 5.01953 -3.01514Q5.47852 -3.52051 6.24023 -3.52051Q6.98242 -3.52051 7.39746 -3.05176Q7.8125 -2.58301 7.8125 -1.73828Q7.8125 -0.90332 7.35107 -0.397949Q6.88965 0.107422 6.14258 0.107422ZM6.21094 -2.96875Q5.74219 -2.96875 5.47607 -2.62695Q5.20996 -2.28516 5.20996 -1.67969Q5.20996 -1.09863 5.47363 -0.769043Q5.7373 -0.439453 6.19141 -0.439453Q6.65039 -0.439453 6.90918 -0.783691Q7.16797 -1.12793 7.16797 -1.72852Q7.16797 -2.32422 6.91162 -2.64648Q6.65527 -2.96875 6.21094 -2.96875ZM9.27246 0.107422Q9.04785 0.107422 8.88916 -0.0537109Q8.73047 -0.214844 8.73047 -0.439453Q8.73047 -0.664063 8.88916 -0.827637Q9.04785 -0.991211 9.27246 -0.991211Q9.50195 -0.991211 9.66309 -0.827637Q9.82422 -0.664062 9.82422 -0.439453Q9.82422 -0.214844 9.66309 -0.0537109Q9.50195 0.107422 9.27246 0.107422ZM15.332 -3.53027Q15.332 -2.65137 15.1733 -1.97266Q15.0146 -1.29395 14.7144 -0.827637Q14.4141 -0.361328 13.9771 -0.119629Q13.54 0.12207 12.9834 0.12207Q12.4561 0.12207 12.0435 -0.109863Q11.6309 -0.341797 11.3477 -0.786133Q11.0645 -1.23047 10.918 -1.87744Q10.7715 -2.52441 10.7715 -3.35938Q10.7715 -4.27734 10.9253 -4.98047Q11.0791 -5.68359 11.377 -6.15967Q11.6748 -6.63574 12.1167 -6.87744Q12.5586 -7.11914 13.1299 -7.11914Q15.332 -7.11914 15.332 -3.53027ZM14.5117 -3.45215Q14.5117 -6.44043 13.0908 -6.44043Q11.5918 -6.44043 11.5918 -3.39844Q11.5918 -0.561523 13.0615 -0.561523Q14.5117 -0.561523 14.5117 -3.45215ZM19.0234 -6.69922Q18.7891 -6.83105 18.4912 -6.83105Q17.6514 -6.83105 17.6514 -5.77148L17.6514 -5L18.8232 -5L18.8232 -4.31641L17.6514 -4.31641L17.6514 0L16.8555 0L16.8555 -4.31641L16.001 -4.31641L16.001 -5L16.8555 -5L16.8555 -5.81055Q16.8555 -6.59668 17.3096 -7.05322Q17.7637 -7.50977 18.4424 -7.50977Q18.8086 -7.50977 19.0234 -7.42188L19.0234 -6.69922ZM20.8447 -3.49121Q20.1221 -3.49121 19.6924 -3.96729Q19.2627 -4.44336 19.2627 -5.23926Q19.2627 -6.1084 19.7168 -6.60889Q20.1709 -7.10937 20.9424 -7.10938Q21.6895 -7.10938 22.1021 -6.64551Q22.5146 -6.18164 22.5146 -5.3418Q22.5146 -4.50195 22.0532 -3.99658Q21.5918 -3.49121 20.8447 -3.49121ZM20.9131 -6.57227Q20.4492 -6.57227 20.1807 -6.22803Q19.9121 -5.88379 19.9121 -5.2832Q19.9121 -4.69238 20.1758 -4.36279Q20.4395 -4.0332 20.8936 -4.0332Q21.3525 -4.0332 21.6113 -4.375Q21.8701 -4.7168 21.8701 -5.32227Q21.8701 -5.91309 21.6138 -6.24268Q21.3574 -6.57227 20.9131 -6.57227ZM25.5322 -7.00195L21.04 0.0488281L20.3418 0.0488281L24.8291 -7.00195L25.5322 -7.00195ZM25.0146 0.107422Q24.292 0.107422 23.8623 -0.371094Q23.4326 -0.849609 23.4326 -1.64063Q23.4326 -2.50977 23.8916 -3.01514Q24.3506 -3.52051 25.1123 -3.52051Q25.8545 -3.52051 26.2695 -3.05176Q26.6846 -2.58301 26.6846 -1.73828Q26.6846 -0.90332 26.2231 -0.397949Q25.7617 0.107422 25.0146 0.107422ZM25.083 -2.96875Q24.6143 -2.96875 24.3481 -2.62695Q24.082 -2.28516 24.082 -1.67969Q24.082 -1.09863 24.3457 -0.769043Q24.6094 -0.439453 25.0635 -0.439453Q25.5225 -0.439453 25.7813 -0.783691Q26.04 -1.12793 26.04 -1.72852Q26.04 -2.32422 25.7837 -2.64648Q25.5273 -2.96875 25.083 -2.96875ZM29.0283 -3.49121Q28.3057 -3.49121 27.876 -3.96729Q27.4463 -4.44336 27.4463 -5.23926Q27.4463 -6.1084 27.9004 -6.60889Q28.3545 -7.10937 29.126 -7.10938Q29.873 -7.10938 30.2856 -6.64551Q30.6982 -6.18164 30.6982 -5.3418Q30.6982 -4.50195 30.2368 -3.99658Q29.7754 -3.49121 29.0283 -3.49121ZM29.0967 -6.57227Q28.6328 -6.57227 28.3643 -6.22803Q28.0957 -5.88379 28.0957 -5.2832Q28.0957 -4.69238 28.3594 -4.36279Q28.623 -4.0332 29.0771 -4.0332Q29.5361 -4.0332 29.7949 -4.375Q30.0537 -4.7168 30.0537 -5.32227Q30.0537 -5.91309 29.7974 -6.24268Q29.541 -6.57227 29.0967 -6.57227ZM33.7158 -7.00195L29.2236 0.0488281L28.5254 0.0488281L33.0127 -7.00195L33.7158 -7.00195ZM33.1982 0.107422Q32.4756 0.107422 32.0459 -0.371094Q31.6162 -0.849609 31.6162 -1.64063Q31.6162 -2.50977 32.0752 -3.01514Q32.5342 -3.52051 33.2959 -3.52051Q34.0381 -3.52051 34.4531 -3.05176Q34.8682 -2.58301 34.8682 -1.73828Q34.8682 -0.90332 34.4067 -0.397949Q33.9453 0.107422 33.1982 0.107422ZM33.2666 -2.96875Q32.7979 -2.96875 32.5317 -2.62695Q32.2656 -2.28516 32.2656 -1.67969Q32.2656 -1.09863 32.5293 -0.769043Q32.793 -0.439453 33.2471 -0.439453Q33.7061 -0.439453 33.9648 -0.783691Q34.2236 -1.12793 34.2236 -1.72852Q34.2236 -2.32422 33.9673 -2.64648Q33.7109 -2.96875 33.2666 -2.96875Z" fill="#FFFFFF" transform="translate(222.0654916410205,232.3224280166653) translate(-17.61962890625,0)" />
<path d="M 313.044 308.544 L 224.015921026003 146.602525527894 L 232.26500632290748 142.33390951053462 L 240.71814636848495 138.48515460678712 L 249.3539877973493 135.06598310556402 L 258.1507157245639 132.08503213082037 L 267.08610885193474 129.54983182342897 L 276.1375956009375 127.46678631939116 L 285.2823111304841 125.84115757243345 L 294.49715509549543 124.6770520618557 L 303.75885000037846 123.97741041920796 L 313.0439999999999 123.74399999999997 Z " fill="#000000" fill-opacity="0.3137254901960784" />
<path d="M 307.5 303 L 218.47192102600303 141.058525527894 L 226.7210063229075 136.78990951053464 L 235.17414636848497 132.94115460678714 L 243.80998779734932 129.52198310556403 L 252.60671572456394 126.54103213082038 L 261.54210885193476 124.00583182342899 L 270.59359560093753 121.92278631939118 L 279.73831113048413 120.29715757243346 L 288.95315509549545 119.13305206185572 L 298.2148500003785 118.43341041920797 L 307.49999999999994 118.19999999999999 Z " fill="#9467BD" stroke="#FFFFFF" stroke-width="1" />
<path d="M1.97266 -3.49121Q1.25 -3.49121 0.820313 -3.96729Q0.390625 -4.44336 0.390625 -5.23926Q0.390625 -6.1084 0.844727 -6.60889Q1.29883 -7.10937 2.07031 -7.10938Q2.81738 -7.10938 3.22998 -6.64551Q3.64258 -6.18164 3.64258 -5.3418Q3.64258 -4.50195 3.18115 -3.99658Q2.71973 -3.49121 1.97266 -3.49121ZM2.04102 -6.57227Q1.57715 -6.57227 1.30859 -6.22803Q1.04004 -5.88379 1.04004 -5.2832Q1.04004 -4.69238 1.30371 -4.36279Q1.56738 -4.0332 2.02148 -4.0332Q2.48047 -4.0332 2.73926 -4.375Q2.99805 -4.7168 2.99805 -5.32227Q2.99805 -5.91309 2.7417 -6.24268Q2.48535 -6.57227 2.04102 -6.57227ZM6.66016 -7.00195L2.16797 0.0488281L1.46973 0.0488281L5.95703 -7.00195L6.66016 -7.00195ZM6.14258 0.107422Q5.41992 0.107422 4.99023 -0.371094Q4.56055 -0.849609 4.56055 -1.64063Q4.56055 -2.50977 5.01953 -3.01514Q5.47852 -3.52051 6.24023 -3.52051Q6.98242 -3.52051 7.39746 -3.05176Q7.8125 -2.58301 7.8125 -1.73828Q7.8125 -0.90332 7.35107 -0.397949Q6.88965 0.107422 6.14258 0.107422ZM6.21094 -2.96875Q5.74219 -2.96875 5.47607 -2.62695Q5.20996 -2.28516 5.20996 -1.67969Q5.20996 -1.09863 5.47363 -0.769043Q5.7373 -0.439453 6.19141 -0.439453Q6.65039 -0.439453 6.90918 -0.783691Q7.16797 -1.12793 7.16797 -1.72852Q7.16797 -2.32422 6.91162 -2.64648Q6.65527 -2.96875 6.21094 -2.96875ZM9.27246 0.107422Q9.04785 0.107422 8.88916 -0.0537109Q8.73047 -0.214844 8.73047 -0.439453Q8.73047 -0.664063 8.88916 -0.827637Q9.04785 -0.991211 9.27246 -0.991211Q9.50195 -0.991211 9.66309 -0.827637Q9.82422 -0.664062 9.82422 -0.439453Q9.82422 -0.214844 9.66309 -0.0537109Q9.50195 0.107422 9.27246 0.107422ZM15.332 -3.53027Q15.332 -2.65137 15.1733 -1.97266Q15.0146 -1.29395 14.7144 -0.827637Q14.4141 -0.361328 13.9771 -0.119629Q13.54 0.12207 12.9834 0.12207Q12.4561 0.12207 12.0435 -0.109863Q11.6309 -0.341797 11.3477 -0.786133Q11.0645 -1.23047 10.918 -1.87744Q10.7715 -2.52441 10.7715 -3.35938Q10.7715 -4.27734 10.9253 -4.98047Q11.0791 -5.68359 11.377 -6.15967Q11.6748 -6.63574 12.1167 -6.87744Q12.5586 -7.11914 13.1299 -7.11914Q15.332 -7.11914 15.332 -3.53027ZM14.5117 -3.45215Q14.5117 -6.44043 13.0908 -6.44043Q11.5918 -6.44043 11.5918 -3.39844Q11.5918 -0.561523 13.0615 -0.561523Q14.5117 -0.561523 14.5117 -3.45215ZM19.0234 -6.69922Q18.7891 -6.83105 18.4912 -6.83105Q17.6514 -6.83105 17.6514 -5.77148L17.6514 -5L18.8232 -5L18.8232 -4.31641L17.6514 -4.31641L17.6514 0L16.8555 0L16.8555 -4.31641L16.001 -4.31641L16.001 -5L16.8555 -5L16.8555 -5.81055Q16.8555 -6.59668 17.3096 -7.05322Q17.7637 -7.50977 18.4424 -7.50977Q18.8086 -7.50977 19.0234 -7.42188L19.0234 -6.69922ZM20.8447 -3.49121Q20.1221 -3.49121 19.6924 -3.96729Q19.2627 -4.44336 19.2627 -5.23926Q19.2627 -6.1084 19.7168 -6.60889Q20.1709 -7.10937 20.9424 -7.10938Q21.6895 -7.10938 22.1021 -6.64551Q22.5146 -6.18164 22.5146 -5.3418Q22.5146 -4.50195 22.0532 -3.99658Q21.5918 -3.49121 20.8447 -3.49121ZM20.9131 -6.57227Q20.4492 -6.57227 20.1807 -6.22803Q19.9121 -5.88379 19.9121 -5.2832Q19.9121 -4.69238 20.1758 -4.36279Q20.4395 -4.0332 20.8936 -4.0332Q21.3525 -4.0332 21.6113 -4.375Q21.8701 -4.7168 21.8701 -5.32227Q21.8701 -5.91309 21.6138 -6.24268Q21.3574 -6.57227 20.9131 -6.57227ZM25.5322 -7.00195L21.04 0.0488281L20.3418 0.0488281L24.8291 -7.00195L25.5322 -7.00195ZM25.0146 0.107422Q24.292 0.107422 23.8623 -0.371094Q23.4326 -0.849609 23.4326 -1.64063Q23.4326 -2.50977 23.8916 -3.01514Q24.3506 -3.52051 25.1123 -3.52051Q25.8545 -3.52051 26.2695 -3.05176Q26.6846 -2.58301 26.6846 -1.73828Q26.6846 -0.90332 26.2231 -0.397949Q25.7617 0.107422 25.0146 0.107422ZM25.083 -2.96875Q24.6143 -2.96875 24.3481 -2.62695Q24.082 -2.28516 24.082 -1.67969Q24.082 -1.09863 24.3457 -0.769043Q24.6094 -0.439453 25.0635 -0.439453Q25.5225 -0.439453 25.7813 -0.783691Q26.04 -1.12793 26.04 -1.72852Q26.04 -2.32422 25.7837 -2.64648Q25.5273 -2.96875 25.083 -2.96875ZM29.0283 -3.49121Q28.3057 -3.49121 27.876 -3.96729Q27.4463 -4.44336 27.4463 -5.23926Q27.4463 -6.1084 27.9004 -6.60889Q28.3545 -7.10937 29.126 -7.10938Q29.873 -7.10938 30.2856 -6.64551Q30.6982 -6.18164 30.6982 -5.3418Q30.6982 -4.50195 30.2368 -3.99658Q29.7754 -3.49121 29.0283 -3.49121ZM29.0967 -6.57227Q28.6328 -6.57227 28.3643 -6.22803Q28.0957 -5.88379 28.0957 -5.2832Q28.0957 -4.69238 28.3594 -4.36279Q28.623 -4.0332 29.0771 -4.0332Q29.5361 -4.0332 29.7949 -4.375Q30.0537 -4.7168 30.0537 -5.32227Q30.0537 -5.91309 29.7974 -6.24268Q29.541 -6.57227 29.0967 -6.57227ZM33.7158 -7.00195L29.2236 0.0488281L28.5254 0.0488281L33.0127 -7.00195L33.7158 -7.00195ZM33.1982 0.107422Q32.4756 0.107422 32.0459 -0.371094Q31.6162 -0.849609 31.6162 -1.64063Q31.6162 -2.50977 32.0752 -3.01514Q32.5342 -3.52051 33.2959 -3.52051Q34.0381 -3.52051 34.4531 -3.05176Q34.8682 -2.58301 34.8682 -1.73828Q34.8682 -0.90332 34.4067 -0.397949Q33.9453 0.107422 33.1982 0.107422ZM33.2666 -2.96875Q32.7979 -2.96875 32.5317 -2.62695Q32.2656 -2.28516 32.2656 -1.67969Q32.2656 -1.09863 32.5293 -0.769043Q32.793 -0.439453 33.2471 -0.439453Q33.7061 -0.439453 33.9648 -0.783691Q34.2236 -1.12793 34.2236 -1.72852Q34.2236 -2.32422 33.9673 -2.64648Q33.7109 -2.96875 33.2666 -2.96875Z" fill="#FFFFFF" transform="translate(279.92526531116096,195.60349909405738) translate(-17.61962890625,0)" />
<path d="M2.73302 -8.9993L2.73302 -5.19477L4.45557 -5.19477Q5.41178 -5.19477 5.93397 -5.68983Q6.45616 -6.1849 6.45616 -7.10042Q6.45616 -8.00917 5.93397 -8.50423Q5.41178 -8.9993 4.45557 -8.9993L2.73302 -8.9993ZM1.36312 -10.1251L4.45557 -10.1251Q6.15777 -10.1251 7.02922 -9.35533Q7.90066 -8.58561 7.90066 -7.10042Q7.90066 -5.60167 7.02922 -4.83534Q6.15777 -4.06901 4.45557 -4.06901L2.73302 -4.06901L2.73302 0L1.36312 0L1.36312 -10.1251ZM12.8445 0.705295Q12.3155 2.06163 11.8137 2.47531Q11.3118 2.889 10.4709 2.889L9.47401 2.889L9.47401 1.84462L10.2064 1.84462Q10.7218 1.84462 11.0067 1.60048Q11.2915 1.35634 11.6374 0.447591L11.8612 -0.12207L8.78906 -7.59549L10.1115 -7.59549L12.4851 -1.65473L14.8587 -7.59549L16.1811 -7.59549L12.8445 0.705295ZM19.1379 -9.75206L19.1379 -7.59549L21.7082 -7.59549L21.7082 -6.62571L19.1379 -6.62571L19.1379 -2.50244Q19.1379 -1.57335 19.3922 -1.30887Q19.6465 -1.04438 20.4264 -1.04438L21.7082 -1.04438L21.7082 0L20.4264 0Q18.9819 0 18.4326 -0.539144Q17.8833 -1.07829 17.8833 -2.50244L17.8833 -6.62571L16.9678 -6.62571L16.9678 -7.59549L17.8833 -7.59549L17.8833 -9.75206L19.1379 -9.75206ZM29.6631 -4.58442L29.6631 0L28.4153 0L28.4153 -4.54373Q28.4153 -5.62202 27.9948 -6.15777Q27.5743 -6.69352 26.7334 -6.69352Q25.7229 -6.69352 25.1397 -6.04926Q24.5565 -5.405 24.5565 -4.29281L24.5565 0L23.3019 0L23.3019 -10.5523L24.5565 -10.5523L24.5565 -6.41547Q25.0041 -7.10042 25.611 -7.43951Q26.218 -7.77859 27.0114 -7.77859Q28.3203 -7.77859 28.9917 -6.96818Q29.6631 -6.15777 29.6631 -4.58442ZM35.0952 -6.72065Q34.0915 -6.72065 33.5083 -5.93736Q32.9251 -5.15408 32.9251 -3.79096Q32.9251 -2.42784 33.5049 -1.64456Q34.0847 -0.861274 35.0952 -0.861274Q36.0921 -0.861274 36.6753 -1.64795Q37.2586 -2.43462 37.2586 -3.79096Q37.2586 -5.14052 36.6753 -5.93058Q36.0921 -6.72065 35.0952 -6.72065ZM35.0952 -7.77859Q36.7228 -7.77859 37.6519 -6.72065Q38.581 -5.66271 38.581 -3.79096Q38.581 -1.926 37.6519 -0.864665Q36.7228 0.196669 35.0952 0.196669Q33.4608 0.196669 32.5351 -0.864665Q31.6094 -1.926 31.6094 -3.79096Q31.6094 -5.66271 32.5351 -6.72065Q33.4608 -7.77859 35.0952 -7.77859ZM46.9632 -4.58442L46.9632 0L45.7153 0L45.7153 -4.54373Q45.7153 -5.62202 45.2949 -6.15777Q44.8744 -6.69352 44.0335 -6.69352Q43.023 -6.69352 42.4398 -6.04926Q41.8566 -5.405 41.8566 -4.29281L41.8566 0L40.6019 0L40.6019 -7.59549L41.8566 -7.59549L41.8566 -6.41547Q42.3041 -7.10042 42.9111 -7.43951Q43.5181 -7.77859 44.3115 -7.77859Q45.6204 -7.77859 46.2918 -6.96818Q46.9632 -6.15777 46.9632 -4.58442Z" fill="#262626" transform="translate(488.6238062370114,210.71281121294493)" />
<path d="M8.94504 -9.34516L8.94504 -7.90066Q8.25331 -8.54492 7.47003 -8.86366Q6.68674 -9.1824 5.80512 -9.1824Q4.06901 -9.1824 3.1467 -8.12107Q2.22439 -7.05973 2.22439 -5.05235Q2.22439 -3.05176 3.1467 -1.99042Q4.06901 -0.929091 5.80512 -0.929091Q6.68674 -0.929091 7.47003 -1.24783Q8.25331 -1.56657 8.94504 -2.21083L8.94504 -0.779894Q8.22618 -0.291612 7.42255 -0.0474718Q6.61892 0.196669 5.72374 0.196669Q3.42475 0.196669 2.10232 -1.21053Q0.779894 -2.61773 0.779894 -5.05235Q0.779894 -7.49376 2.10232 -8.90096Q3.42475 -10.3082 5.72374 -10.3082Q6.63249 -10.3082 7.43612 -10.0674Q8.23975 -9.82666 8.94504 -9.34516ZM16.7982 -6.1103L14.8248 -6.1103L14.2551 -3.84521L16.2421 -3.84521L16.7982 -6.1103ZM15.781 -9.96908L15.0757 -7.15468L17.0559 -7.15468L17.768 -9.96908L18.8531 -9.96908L18.1546 -7.15468L20.2705 -7.15468L20.2705 -6.1103L17.8901 -6.1103L17.334 -3.84521L19.4906 -3.84521L19.4906 -2.80762L17.0695 -2.80762L16.3642 0L15.2791 0L15.9776 -2.80762L13.9906 -2.80762L13.2921 0L12.2002 0L12.9055 -2.80762L10.7693 -2.80762L10.7693 -3.84521L13.1565 -3.84521L13.7261 -6.1103L11.5424 -6.1103L11.5424 -7.15468L13.9906 -7.15468L14.6823 -9.96908L15.781 -9.96908Z" fill="#262626" transform="translate(339.29999805337815,503.77728587617963)" />
<path d="M1.36312 -10.1251L2.73302 -10.1251L2.73302 -0.705295Q2.73302 1.12576 2.0379 1.95313Q1.34277 2.78049 -0.196669 2.78049L-0.718859 2.78049L-0.718859 1.6276L-0.291612 1.6276Q0.617133 1.6276 0.990126 1.11898Q1.36312 0.610352 1.36312 -0.705295L1.36312 -10.1251ZM8.85688 -3.81809Q7.34456 -3.81809 6.76134 -3.47222Q6.17811 -3.12636 6.17811 -2.29221Q6.17811 -1.6276 6.61553 -1.23766Q7.05295 -0.84771 7.80572 -0.847711Q8.84332 -0.847711 9.47062 -1.58352Q10.0979 -2.31934 10.0979 -3.54004L10.0979 -3.81809L8.85688 -3.81809ZM11.3458 -4.3335L11.3458 0L10.0979 0L10.0979 -1.15289Q9.67068 -0.461155 9.0332 -0.132243Q8.39573 0.196669 7.47342 0.196669Q6.30697 0.196669 5.61863 -0.457764Q4.93028 -1.1122 4.93028 -2.21083Q4.93028 -3.49257 5.78817 -4.14361Q6.64605 -4.79465 8.34825 -4.79465L10.0979 -4.79465L10.0979 -4.91672Q10.0979 -5.77799 9.53166 -6.24932Q8.96539 -6.72065 7.94135 -6.72065Q7.29031 -6.72065 6.67318 -6.56467Q6.05604 -6.40869 5.48638 -6.09673L5.48638 -7.24962Q6.17133 -7.51411 6.81559 -7.64635Q7.45985 -7.77859 8.0702 -7.77859Q9.71815 -7.77859 10.532 -6.9241Q11.3458 -6.06961 11.3458 -4.3335ZM13.0208 -7.59549L14.3433 -7.59549L16.7169 -1.2207L19.0904 -7.59549L20.4129 -7.59549L17.5646 0L15.8691 0L13.0208 -7.59549ZM25.5873 -3.81809Q24.075 -3.81809 23.4918 -3.47222Q22.9085 -3.12636 22.9085 -2.29221Q22.9085 -1.6276 23.3459 -1.23766Q23.7834 -0.84771 24.5361 -0.847711Q25.5737 -0.847711 26.201 -1.58352Q26.8283 -2.31934 26.8283 -3.54004L26.8283 -3.81809L25.5873 -3.81809ZM28.0762 -4.3335L28.0762 0L26.8283 0L26.8283 -1.15289Q26.4011 -0.461155 25.7636 -0.132243Q25.1261 0.196669 24.2038 0.196669Q23.0374 0.196669 22.349 -0.457764Q21.6607 -1.1122 21.6607 -2.21083Q21.6607 -3.49257 22.5186 -4.14361Q23.3765 -4.79465 25.0787 -4.79465L26.8283 -4.79465L26.8283 -4.91672Q26.8283 -5.77799 26.2621 -6.24932Q25.6958 -6.72065 24.6718 -6.72065Q24.0207 -6.72065 23.4036 -6.56467Q22.7865 -6.40869 22.2168 -6.09673L22.2168 -7.24962Q22.9017 -7.51411 23.546 -7.64635Q24.1903 -7.77859 24.8006 -7.77859Q26.4486 -7.77859 27.2624 -6.9241Q28.0762 -6.06961 28.0762 -4.3335Z" fill="#262626" transform="translate(114.16923136752115,365.81697461653937) translate(-29.337566375732422,0)" />
<path d="M8.26687 -1.4445L8.26687 -4.16395L6.02892 -4.16395L6.02892 -5.28971L9.62321 -5.28971L9.62321 -0.942654Q8.82975 -0.379774 7.87354 -0.0915527Q6.91732 0.196669 5.83225 0.196669Q3.45866 0.196669 2.11928 -1.19019Q0.779894 -2.57704 0.779894 -5.05235Q0.779894 -7.53445 2.11928 -8.92131Q3.45866 -10.3082 5.83225 -10.3082Q6.82237 -10.3082 7.71417 -10.064Q8.60596 -9.81988 9.35872 -9.34516L9.35872 -7.8871Q8.59917 -8.53136 7.74468 -8.85688Q6.89019 -9.1824 5.94754 -9.1824Q4.08936 -9.1824 3.15687 -8.1448Q2.22439 -7.1072 2.22439 -5.05235Q2.22439 -3.00429 3.15687 -1.96669Q4.08935 -0.929091 5.94754 -0.929091Q6.67318 -0.929091 7.24284 -1.05455Q7.8125 -1.18001 8.26687 -1.4445ZM15.0146 -6.72065Q14.011 -6.72065 13.4277 -5.93736Q12.8445 -5.15408 12.8445 -3.79096Q12.8445 -2.42784 13.4243 -1.64456Q14.0042 -0.861274 15.0146 -0.861274Q16.0116 -0.861274 16.5948 -1.64795Q17.178 -2.43462 17.178 -3.79096Q17.178 -5.14052 16.5948 -5.93058Q16.0116 -6.72065 15.0146 -6.72065ZM15.0146 -7.77859Q16.6423 -7.77859 17.5713 -6.72065Q18.5004 -5.66271 18.5004 -3.79096Q18.5004 -1.926 17.5713 -0.864665Q16.6423 0.196669 15.0146 0.196669Q13.3803 0.196669 12.4546 -0.864665Q11.5289 -1.926 11.5289 -3.79096Q11.5289 -5.66271 12.4546 -6.72065Q13.3803 -7.77859 15.0146 -7.77859Z" fill="#262626" transform="translate(150.87006800853754,173.42445136388636) translate(-19.25998306274414,0)" />
<path d="M6.16455 -4.74718Q6.60536 -4.59798 7.02243 -4.1097Q7.43951 -3.62142 7.85997 -2.76693L9.25022 0L7.77859 0L6.48329 -2.59739Q5.98145 -3.61464 5.51012 -3.94694Q5.03879 -4.27924 4.22499 -4.27924L2.73302 -4.27924L2.73302 0L1.36312 0L1.36312 -10.1251L4.45557 -10.1251Q6.19168 -10.1251 7.04617 -9.39941Q7.90066 -8.67377 7.90066 -7.20893Q7.90066 -6.25271 7.45646 -5.62202Q7.01226 -4.99132 6.16455 -4.74718ZM2.73302 -8.9993L2.73302 -5.405L4.45557 -5.405Q5.44569 -5.405 5.95093 -5.86277Q6.45616 -6.32053 6.45616 -7.20893Q6.45616 -8.09733 5.95093 -8.54831Q5.44569 -8.99929 4.45557 -8.9993L2.73302 -8.9993ZM10.8303 -2.9975L10.8303 -7.59549L12.0782 -7.59549L12.0782 -3.04498Q12.0782 -1.96669 12.4986 -1.42754Q12.9191 -0.888401 13.76 -0.888401Q14.7705 -0.888401 15.3571 -1.53266Q15.9437 -2.17692 15.9437 -3.28912L15.9437 -7.59549L17.1916 -7.59549L17.1916 0L15.9437 0L15.9437 -1.16645Q15.4894 -0.474718 14.8892 -0.139025Q14.289 0.196669 13.4956 0.196669Q12.1867 0.196669 11.5085 -0.617133Q10.8303 -1.43094 10.8303 -2.9975ZM24.604 -7.37169L24.604 -6.19168Q24.075 -6.46294 23.5053 -6.59858Q22.9357 -6.73421 22.3253 -6.73421Q21.3962 -6.73421 20.9317 -6.44938Q20.4671 -6.16455 20.4671 -5.59489Q20.4671 -5.16086 20.7994 -4.91333Q21.1317 -4.6658 22.1354 -4.442L22.5627 -4.34706Q23.8919 -4.06223 24.4514 -3.54343Q25.0109 -3.02463 25.0109 -2.09554Q25.0109 -1.0376 24.1733 -0.420464Q23.3358 0.196669 21.8709 0.196669Q21.2606 0.196669 20.5994 0.0779894Q19.9382 -0.0406901 19.2057 -0.278049L19.2057 -1.56657Q19.8975 -1.20714 20.5688 -1.02743Q21.2402 -0.84771 21.8981 -0.847711Q22.7797 -0.847711 23.2544 -1.1495Q23.7291 -1.45128 23.7291 -2.0006Q23.7291 -2.50922 23.3866 -2.78049Q23.0442 -3.05176 21.8845 -3.30268L21.4505 -3.40441Q20.2908 -3.64855 19.7754 -4.15378Q19.26 -4.65902 19.26 -5.54064Q19.26 -6.61214 20.0195 -7.19537Q20.7791 -7.77859 22.1761 -7.77859Q22.8678 -7.77859 23.4782 -7.67687Q24.0885 -7.57514 24.604 -7.37169ZM28.2322 -9.75206L28.2322 -7.59549L30.8024 -7.59549L30.8024 -6.62571L28.2322 -6.62571L28.2322 -2.50244Q28.2322 -1.57335 28.4865 -1.30887Q28.7408 -1.04438 29.5207 -1.04438L30.8024 -1.04438L30.8024 0L29.5207 0Q28.0762 0 27.5269 -0.539144Q26.9775 -1.07829 26.9775 -2.50244L26.9775 -6.62571L26.062 -6.62571L26.062 -7.59549L26.9775 -7.59549L26.9775 -9.75206L28.2322 -9.75206Z" fill="#262626" transform="translate(256.94631973712836,106.10641500577182) translate(-31.13471221923828,0)" />
</svg>
