<svg xmlns="http://www.w3.org/2000/svg" viewBox="0 0 600 600" width="600" height="600" style="width:100%;height:auto" role="img" aria-labelledby="chart-title">
<title id="chart-title">Polar Line</title>
<rect x="0" y="0" width="600" height="600" fill="#FFFFFF" />
<path d="M1.64214 -13.0411L7.22369 -13.0411Q9.71311 -13.0411 11.0452 -11.9361Q12.3772 -10.8312 12.3772 -8.78722Q12.3772 -6.73454 11.0452 -5.62958Q9.71311 -4.52463 7.22369 -4.52463L5.00505 -4.52463L5.00505 0L1.64214 0L1.64214 -13.0411ZM5.00505 -10.6041L5.00505 -6.96164L6.86556 -6.96164Q7.84386 -6.96164 8.37668 -7.43769Q8.9095 -7.91374 8.90951 -8.78722Q8.9095 -9.6607 8.37668 -10.1324Q7.84386 -10.6041 6.86556 -10.6041L5.00505 -10.6041ZM19.269 -7.78271Q18.2295 -7.78271 17.6836 -7.03589Q17.1377 -6.28906 17.1377 -4.88276Q17.1377 -3.47645 17.6836 -2.72963Q18.2295 -1.9828 19.269 -1.9828Q20.291 -1.9828 20.8325 -2.72963Q21.3741 -3.47645 21.3741 -4.88276Q21.3741 -6.28906 20.8325 -7.03589Q20.291 -7.78271 19.269 -7.78271ZM19.269 -10.0188Q21.7933 -10.0188 23.2128 -8.6562Q24.6322 -7.29357 24.6322 -4.88276Q24.6322 -2.47195 23.2128 -1.10932Q21.7933 0.253309 19.269 0.253309Q16.7359 0.253309 15.3078 -1.10932Q13.8796 -2.47195 13.8796 -4.88276Q13.8796 -7.29357 15.3078 -8.6562Q16.7359 -10.0188 19.269 -10.0188ZM26.9032 -13.5914L30.0303 -13.5914L30.0303 0L26.9032 0L26.9032 -13.5914ZM37.4199 -4.40234Q36.4416 -4.40234 35.9481 -4.07042Q35.4546 -3.7385 35.4546 -3.09212Q35.4546 -2.49816 35.852 -2.16187Q36.2495 -1.82558 36.957 -1.82558Q37.8392 -1.82558 38.4419 -2.45885Q39.0446 -3.09212 39.0446 -4.04422L39.0446 -4.40234L37.4199 -4.40234ZM42.1979 -5.58154L42.1979 0L39.0446 0L39.0446 -1.44998Q38.4157 -0.559028 37.6296 -0.152859Q36.8434 0.253309 35.7166 0.253309Q34.1968 0.253309 33.2491 -0.633274Q32.3013 -1.51986 32.3013 -2.9349Q32.3013 -4.65565 33.4849 -5.45926Q34.6685 -6.26286 37.2016 -6.26286L39.0446 -6.26286L39.0446 -6.50743Q39.0446 -7.24989 38.4594 -7.59492Q37.8741 -7.93994 36.6338 -7.93994Q35.6293 -7.93994 34.7645 -7.73904Q33.8998 -7.53814 33.1573 -7.13634L33.1573 -9.52094Q34.1618 -9.76552 35.1751 -9.89217Q36.1883 -10.0188 37.2016 -10.0188Q39.8482 -10.0188 41.023 -8.97502Q42.1979 -7.93121 42.1979 -5.58154ZM52.3739 -7.11887Q51.9634 -7.31103 51.5572 -7.40275Q51.151 -7.49447 50.7405 -7.49447Q49.5351 -7.49447 48.8844 -6.72144Q48.2336 -5.94841 48.2336 -4.50716L48.2336 0L45.1066 0L45.1066 -9.78299L48.2336 -9.78299L48.2336 -8.17578Q48.8363 -9.13661 49.6181 -9.57772Q50.3998 -10.0188 51.4917 -10.0188Q51.6489 -10.0188 51.8324 -10.0057Q52.0158 -9.99262 52.3652 -9.94895L52.3739 -7.11887ZM60.2964 -13.0411L63.6593 -13.0411L63.6593 -2.54183L69.564 -2.54183L69.564 0L60.2964 0L60.2964 -13.0411ZM71.5556 -9.78299L74.6826 -9.78299L74.6826 0L71.5556 0L71.5556 -9.78299ZM71.5556 -13.5914L74.6826 -13.5914L74.6826 -11.0408L71.5556 -11.0408L71.5556 -13.5914ZM87.5228 -5.95714L87.5228 0L84.3783 0L84.3783 -0.969564L84.3783 -4.55957Q84.3783 -5.82612 84.3215 -6.30653Q84.2647 -6.78695 84.1249 -7.01405Q83.9415 -7.31977 83.6271 -7.4901Q83.3126 -7.66043 82.9108 -7.66043Q81.9325 -7.66043 81.3735 -6.90487Q80.8145 -6.14931 80.8145 -4.81288L80.8145 0L77.6874 0L77.6874 -9.78299L80.8145 -9.78299L80.8145 -8.35048Q81.522 -9.20649 82.3168 -9.61266Q83.1117 -10.0188 84.0725 -10.0188Q85.7671 -10.0188 86.6449 -8.97938Q87.5228 -7.93994 87.5228 -5.95714ZM100.188 -4.9177L100.188 -4.02675L92.8772 -4.02675Q92.9908 -2.92616 93.6721 -2.37587Q94.3534 -1.82558 95.5763 -1.82558Q96.5633 -1.82558 97.5984 -2.11819Q98.6335 -2.41081 99.7253 -3.00477L99.7253 -0.593967Q98.616 -0.174696 97.5067 0.0393066Q96.3974 0.253309 95.288 0.253309Q92.6327 0.253309 91.1608 -1.09622Q89.689 -2.44575 89.689 -4.88276Q89.689 -7.2761 91.1346 -8.64746Q92.5802 -10.0188 95.1133 -10.0188Q97.4193 -10.0188 98.8038 -8.62999Q100.188 -7.24116 100.188 -4.9177ZM96.9739 -5.95714Q96.9739 -6.84809 96.4541 -7.39402Q95.9344 -7.93994 95.0959 -7.93994Q94.1874 -7.93994 93.6197 -7.42896Q93.0519 -6.91797 92.9122 -5.95714L96.9739 -5.95714Z" fill="#262626" transform="translate(300,24.099999999999998) translate(-50.52650451660156,0)" />
<rect x="75" y="72" width="465" height="462" fill="#FFFFFF" />
<ellipse cx="307.5" cy="303" rx="39.27" ry="39.27" fill="none" stroke="#CCCCCC" stroke-width="0.5" />
<path d="M4.41488 -9.22309Q3.35693 -9.22309 2.82457 -8.1821Q2.29221 -7.14111 2.29221 -5.05235Q2.29221 -2.97038 2.82457 -1.92939Q3.35693 -0.888401 4.41488 -0.888401Q5.4796 -0.888401 6.01196 -1.92939Q6.54433 -2.97038 6.54433 -5.05235Q6.54433 -7.14111 6.01196 -8.1821Q5.4796 -9.22309 4.41488 -9.22309ZM4.41488 -10.3082Q6.11708 -10.3082 7.01565 -8.962Q7.91422 -7.61583 7.91423 -5.05235Q7.91423 -2.49566 7.01565 -1.1495Q6.11708 0.196669 4.41488 0.196669Q2.71267 0.196669 1.8141 -1.1495Q0.915527 -2.49566 0.915527 -5.05235Q0.915527 -7.61583 1.8141 -8.962Q2.71267 -10.3082 4.41488 -10.3082ZM10.3217 -1.72255L11.7527 -1.72255L11.7527 0L10.3217 0L10.3217 -1.72255ZM18.5004 -8.93148L15.0418 -3.52648L18.5004 -3.52648L18.5004 -8.93148ZM18.141 -10.1251L19.8636 -10.1251L19.8636 -3.52648L21.3081 -3.52648L21.3081 -2.38715L19.8636 -2.38715L19.8636 0L18.5004 0L18.5004 -2.38715L13.9296 -2.38715L13.9296 -3.70958L18.141 -10.1251ZM27.337 -8.93148L23.8783 -3.52648L27.337 -3.52648L27.337 -8.93148ZM26.9775 -10.1251L28.7001 -10.1251L28.7001 -3.52648L30.1446 -3.52648L30.1446 -2.38715L28.7001 -2.38715L28.7001 0L27.337 0L27.337 -2.38715L22.7661 -2.38715L22.7661 -3.70958L26.9775 -10.1251Z" fill="#262626" transform="translate(350.77,307)" />
<ellipse cx="307.5" cy="303" rx="78.54" ry="78.54" fill="none" stroke="#CCCCCC" stroke-width="0.5" />
<path d="M4.41488 -9.22309Q3.35693 -9.22309 2.82457 -8.1821Q2.29221 -7.14111 2.29221 -5.05235Q2.29221 -2.97038 2.82457 -1.92939Q3.35693 -0.888401 4.41488 -0.888401Q5.4796 -0.888401 6.01196 -1.92939Q6.54433 -2.97038 6.54433 -5.05235Q6.54433 -7.14111 6.01196 -8.1821Q5.4796 -9.22309 4.41488 -9.22309ZM4.41488 -10.3082Q6.11708 -10.3082 7.01565 -8.962Q7.91422 -7.61583 7.91423 -5.05235Q7.91423 -2.49566 7.01565 -1.1495Q6.11708 0.196669 4.41488 0.196669Q2.71267 0.196669 1.8141 -1.1495Q0.915527 -2.49566 0.915527 -5.05235Q0.915527 -7.61583 1.8141 -8.962Q2.71267 -10.3082 4.41488 -10.3082ZM10.3217 -1.72255L11.7527 -1.72255L11.7527 0L10.3217 0L10.3217 -1.72255ZM17.6663 -4.80821Q16.6897 -4.80821 16.1302 -4.28602Q15.5707 -3.76383 15.5707 -2.84831Q15.5707 -1.93278 16.1302 -1.41059Q16.6897 -0.888401 17.6663 -0.888401Q18.6428 -0.888401 19.2057 -1.41398Q19.7686 -1.93956 19.7686 -2.84831Q19.7686 -3.76383 19.2091 -4.28602Q18.6496 -4.80821 17.6663 -4.80821ZM16.2964 -5.39144Q15.4148 -5.60845 14.9231 -6.21202Q14.4314 -6.81559 14.4314 -7.68365Q14.4314 -8.89757 15.2961 -9.60287Q16.1608 -10.3082 17.6663 -10.3082Q19.1786 -10.3082 20.0399 -9.60287Q20.9012 -8.89757 20.9012 -7.68365Q20.9012 -6.81559 20.4095 -6.21202Q19.9178 -5.60845 19.043 -5.39144Q20.0331 -5.16086 20.5858 -4.48947Q21.1385 -3.81809 21.1385 -2.84831Q21.1385 -1.37668 20.2399 -0.590007Q19.3414 0.196669 17.6663 0.196669Q15.9912 0.196669 15.0926 -0.590007Q14.1941 -1.37668 14.1941 -2.84831Q14.1941 -3.81809 14.7502 -4.48947Q15.3063 -5.16086 16.2964 -5.39144ZM15.7945 -7.5548Q15.7945 -6.76812 16.2862 -6.32731Q16.7779 -5.8865 17.6663 -5.8865Q18.5479 -5.8865 19.0464 -6.32731Q19.5448 -6.76812 19.5448 -7.5548Q19.5448 -8.34147 19.0464 -8.78228Q18.5479 -9.22309 17.6663 -9.22309Q16.7779 -9.22309 16.2862 -8.78228Q15.7945 -8.34147 15.7945 -7.5548ZM26.5028 -4.80821Q25.5263 -4.80821 24.9668 -4.28602Q24.4073 -3.76383 24.4073 -2.84831Q24.4073 -1.93278 24.9668 -1.41059Q25.5263 -0.888401 26.5028 -0.888401Q27.4794 -0.888401 28.0423 -1.41398Q28.6051 -1.93956 28.6051 -2.84831Q28.6051 -3.76383 28.0457 -4.28602Q27.4862 -4.80821 26.5028 -4.80821ZM25.1329 -5.39144Q24.2513 -5.60845 23.7596 -6.21202Q23.268 -6.81559 23.268 -7.68365Q23.268 -8.89757 24.1326 -9.60287Q24.9973 -10.3082 26.5028 -10.3082Q28.0151 -10.3082 28.8764 -9.60287Q29.7377 -8.89757 29.7377 -7.68365Q29.7377 -6.81559 29.246 -6.21202Q28.7543 -5.60845 27.8795 -5.39144Q28.8696 -5.16086 29.4223 -4.48947Q29.975 -3.81809 29.975 -2.84831Q29.975 -1.37668 29.0765 -0.590007Q28.1779 0.196669 26.5028 0.196669Q24.8277 0.196669 23.9292 -0.590007Q23.0306 -1.37668 23.0306 -2.84831Q23.0306 -3.81809 23.5867 -4.48947Q24.1428 -5.16086 25.1329 -5.39144ZM24.6311 -7.5548Q24.6311 -6.76812 25.1227 -6.32731Q25.6144 -5.8865 26.5028 -5.8865Q27.3844 -5.8865 27.8829 -6.32731Q28.3813 -6.76812 28.3813 -7.5548Q28.3813 -8.34147 27.8829 -8.78228Q27.3844 -9.22309 26.5028 -9.22309Q25.6144 -9.22309 25.1227 -8.78228Q24.6311 -8.34147 24.6311 -7.5548Z" fill="#262626" transform="translate(390.04,307)" />
<ellipse cx="307.5" cy="303" rx="117.80999999999999" ry="117.80999999999999" fill="none" stroke="#CCCCCC" stroke-width="0.5" />
<path d="M1.72255 -1.15289L3.9605 -1.15289L3.9605 -8.87722L1.52588 -8.38894L1.52588 -9.63677L3.94694 -10.1251L5.31684 -10.1251L5.31684 -1.15289L7.5548 -1.15289L7.5548 0L1.72255 0L1.72255 -1.15289ZM10.3217 -1.72255L11.7527 -1.72255L11.7527 0L10.3217 0L10.3217 -1.72255ZM18.887 -5.45926Q19.8703 -5.24902 20.423 -4.58442Q20.9757 -3.91981 20.9757 -2.94325Q20.9757 -1.4445 19.9449 -0.623915Q18.9141 0.196669 17.0152 0.196669Q16.3778 0.196669 15.703 0.0712077Q15.0282 -0.0542535 14.3094 -0.305176L14.3094 -1.6276Q14.879 -1.2953 15.5572 -1.12576Q16.2354 -0.956217 16.9746 -0.956217Q18.2631 -0.956217 18.9379 -1.46484Q19.6126 -1.97347 19.6126 -2.94325Q19.6126 -3.83843 18.9853 -4.34367Q18.358 -4.8489 17.239 -4.8489L16.059 -4.8489L16.059 -5.97466L17.2933 -5.97466Q18.3038 -5.97466 18.8395 -6.37817Q19.3753 -6.78168 19.3753 -7.54123Q19.3753 -8.32113 18.8226 -8.7382Q18.2699 -9.15527 17.239 -9.15527Q16.6762 -9.15527 16.0319 -9.0332Q15.3876 -8.91113 14.6145 -8.65343L14.6145 -9.87413Q15.3944 -10.0911 16.076 -10.1997Q16.7575 -10.3082 17.3611 -10.3082Q18.9209 -10.3082 19.8296 -9.59947Q20.7384 -8.89079 20.7384 -7.68365Q20.7384 -6.84272 20.2569 -6.26289Q19.7754 -5.68305 18.887 -5.45926ZM24.7531 -1.15289L29.5342 -1.15289L29.5342 0L23.1052 0L23.1052 -1.15289Q23.8851 -1.95991 25.2313 -3.31963Q26.5774 -4.67936 26.9233 -5.0727Q27.5811 -5.8119 27.8422 -6.32392Q28.1033 -6.83594 28.1033 -7.331Q28.1033 -8.13802 27.537 -8.64665Q26.9708 -9.15527 26.062 -9.15527Q25.4178 -9.15527 24.7023 -8.93148Q23.9868 -8.70768 23.173 -8.25331L23.173 -9.63677Q24.0004 -9.96908 24.7192 -10.1386Q25.4381 -10.3082 26.0349 -10.3082Q27.6082 -10.3082 28.5441 -9.52148Q29.48 -8.73481 29.48 -7.41916Q29.48 -6.79525 29.246 -6.23576Q29.012 -5.67627 28.3949 -4.91672Q28.2254 -4.72005 27.3166 -3.78079Q26.4079 -2.84153 24.7531 -1.15289Z" fill="#262626" transform="translate(429.31,307)" />
<ellipse cx="307.5" cy="303" rx="157.08" ry="157.08" fill="none" stroke="#CCCCCC" stroke-width="0.5" />
<path d="M1.72255 -1.15289L3.9605 -1.15289L3.9605 -8.87722L1.52588 -8.38894L1.52588 -9.63677L3.94694 -10.1251L5.31684 -10.1251L5.31684 -1.15289L7.5548 -1.15289L7.5548 0L1.72255 0L1.72255 -1.15289ZM10.3217 -1.72255L11.7527 -1.72255L11.7527 0L10.3217 0L10.3217 -1.72255ZM14.3907 -10.1251L20.9012 -10.1251L20.9012 -9.54183L17.2255 0L15.7945 0L19.2532 -8.97217L14.3907 -8.97217L14.3907 -10.1251ZM26.6724 -5.60845Q25.7501 -5.60845 25.2109 -4.97776Q24.6718 -4.34706 24.6718 -3.24843Q24.6718 -2.15658 25.2109 -1.52249Q25.7501 -0.888401 26.6724 -0.888401Q27.5947 -0.888401 28.1338 -1.52249Q28.673 -2.15658 28.673 -3.24843Q28.673 -4.34706 28.1338 -4.97776Q27.5947 -5.60845 26.6724 -5.60845ZM29.3918 -9.90126L29.3918 -8.65343Q28.8764 -8.89757 28.3508 -9.02642Q27.8253 -9.15527 27.3098 -9.15527Q25.9535 -9.15527 25.238 -8.23975Q24.5226 -7.32422 24.4208 -5.47282Q24.821 -6.06282 25.4245 -6.37817Q26.0281 -6.69352 26.7537 -6.69352Q28.2796 -6.69352 29.1646 -5.76782Q30.0496 -4.84212 30.0496 -3.24843Q30.0496 -1.68864 29.1273 -0.745985Q28.205 0.196669 26.6724 0.196669Q24.9159 0.196669 23.9868 -1.1495Q23.0577 -2.49566 23.0577 -5.05235Q23.0577 -7.45307 24.1971 -8.88062Q25.3364 -10.3082 27.2556 -10.3082Q27.771 -10.3082 28.2966 -10.2064Q28.8222 -10.1047 29.3918 -9.90126Z" fill="#262626" transform="translate(468.58000000000004,307)" />
<ellipse cx="307.5" cy="303" rx="196.35" ry="196.35" fill="none" stroke="#CCCCCC" stroke-width="0.5" />
<path d="M2.6652 -1.15289L7.44629 -1.15289L7.44629 0L1.01725 0L1.01725 -1.15289Q1.79715 -1.95991 3.14331 -3.31963Q4.48947 -4.67936 4.83534 -5.0727Q5.49316 -5.8119 5.75426 -6.32392Q6.01535 -6.83594 6.01535 -7.331Q6.01535 -8.13802 5.44908 -8.64665Q4.88281 -9.15527 3.97407 -9.15527Q3.32981 -9.15527 2.61434 -8.93148Q1.89887 -8.70768 1.08507 -8.25331L1.08507 -9.63677Q1.91243 -9.96908 2.63129 -10.1386Q3.35015 -10.3082 3.94694 -10.3082Q5.52029 -10.3082 6.45616 -9.52148Q7.39204 -8.73481 7.39204 -7.41916Q7.39204 -6.79525 7.15807 -6.23576Q6.9241 -5.67627 6.30697 -4.91672Q6.13742 -4.72005 5.22868 -3.78079Q4.31993 -2.84153 2.6652 -1.15289ZM10.3217 -1.72255L11.7527 -1.72255L11.7527 0L10.3217 0L10.3217 -1.72255ZM15.9166 -1.15289L20.6977 -1.15289L20.6977 0L14.2687 0L14.2687 -1.15289Q15.0486 -1.95991 16.3947 -3.31963Q17.7409 -4.67936 18.0868 -5.0727Q18.7446 -5.8119 19.0057 -6.32392Q19.2668 -6.83594 19.2668 -7.331Q19.2668 -8.13802 18.7005 -8.64665Q18.1342 -9.15527 17.2255 -9.15527Q16.5812 -9.15527 15.8658 -8.93148Q15.1503 -8.70768 14.3365 -8.25331L14.3365 -9.63677Q15.1638 -9.96908 15.8827 -10.1386Q16.6016 -10.3082 17.1984 -10.3082Q18.7717 -10.3082 19.7076 -9.52148Q20.6434 -8.73481 20.6434 -7.41916Q20.6434 -6.79525 20.4095 -6.23576Q20.1755 -5.67627 19.5584 -4.91672Q19.3888 -4.72005 18.4801 -3.78079Q17.5713 -2.84153 15.9166 -1.15289ZM26.5028 -9.22309Q25.4449 -9.22309 24.9125 -8.1821Q24.3802 -7.14111 24.3802 -5.05235Q24.3802 -2.97038 24.9125 -1.92939Q25.4449 -0.888401 26.5028 -0.888401Q27.5675 -0.888401 28.0999 -1.92939Q28.6323 -2.97038 28.6323 -5.05235Q28.6323 -7.14111 28.0999 -8.1821Q27.5675 -9.22309 26.5028 -9.22309ZM26.5028 -10.3082Q28.205 -10.3082 29.1036 -8.962Q30.0022 -7.61583 30.0022 -5.05235Q30.0022 -2.49566 29.1036 -1.1495Q28.205 0.196669 26.5028 0.196669Q24.8006 0.196669 23.902 -1.1495Q23.0035 -2.49566 23.0035 -5.05235Q23.0035 -7.61583 23.902 -8.962Q24.8006 -10.3082 26.5028 -10.3082Z" fill="#262626" transform="translate(507.85,307)" />
<line x1="307.5" y1="303" x2="503.85" y2="303" stroke="#CCCCCC" stroke-width="0.5" />
<path d="M4.41488 -9.22309Q3.35693 -9.22309 2.82457 -8.1821Q2.29221 -7.14111 2.29221 -5.05235Q2.29221 -2.97038 2.82457 -1.92939Q3.35693 -0.888401 4.41488 -0.888401Q5.4796 -0.888401 6.01196 -1.92939Q6.54433 -2.97038 6.54433 -5.05235Q6.54433 -7.14111 6.01196 -8.1821Q5.4796 -9.22309 4.41488 -9.22309ZM4.41488 -10.3082Q6.11708 -10.3082 7.01565 -8.962Q7.91422 -7.61583 7.91423 -5.05235Q7.91423 -2.49566 7.01565 -1.1495Q6.11708 0.196669 4.41488 0.196669Q2.71267 0.196669 1.8141 -1.1495Q0.915527 -2.49566 0.915527 -5.05235Q0.915527 -7.61583 1.8141 -8.962Q2.71267 -10.3082 4.41488 -10.3082ZM12.3088 -9.43332Q11.7662 -9.43332 11.3932 -9.05694Q11.0202 -8.68056 11.0202 -8.13802Q11.0202 -7.60227 11.3932 -7.23267Q11.7662 -6.86306 12.3088 -6.86306Q12.8513 -6.86306 13.2243 -7.23267Q13.5973 -7.60227 13.5973 -8.13802Q13.5973 -8.67377 13.2209 -9.05355Q12.8445 -9.43332 12.3088 -9.43332ZM12.3088 -10.3082Q12.7428 -10.3082 13.1429 -10.142Q13.543 -9.97586 13.8346 -9.6639Q14.1466 -9.35872 14.3026 -8.97217Q14.4586 -8.58561 14.4586 -8.13802Q14.4586 -7.24284 13.8312 -6.62231Q13.2039 -6.00179 12.2952 -6.00179Q11.3797 -6.00179 10.7693 -6.61214Q10.159 -7.22249 10.159 -8.13802Q10.159 -9.04677 10.7829 -9.67746Q11.4068 -10.3082 12.3088 -10.3082Z" fill="#262626" transform="translate(511.85,299)" />
<line x1="307.5" y1="303" x2="477.54408803307456" y2="204.82500000000002" stroke="#CCCCCC" stroke-width="0.5" />
<path d="M5.63558 -5.45926Q6.61892 -5.24902 7.17163 -4.58442Q7.72434 -3.91981 7.72434 -2.94325Q7.72434 -1.4445 6.69352 -0.623915Q5.66271 0.196669 3.76383 0.196669Q3.12636 0.196669 2.45158 0.0712077Q1.7768 -0.0542535 1.05794 -0.305176L1.05794 -1.6276Q1.6276 -1.2953 2.30577 -1.12576Q2.98394 -0.956217 3.72314 -0.956217Q5.01166 -0.956217 5.68644 -1.46484Q6.36122 -1.97347 6.36122 -2.94325Q6.36122 -3.83843 5.73391 -4.34367Q5.10661 -4.8489 3.98763 -4.8489L2.80762 -4.8489L2.80762 -5.97466L4.04188 -5.97466Q5.05235 -5.97466 5.58811 -6.37817Q6.12386 -6.78168 6.12386 -7.54123Q6.12386 -8.32113 5.57115 -8.7382Q5.01845 -9.15527 3.98763 -9.15527Q3.42475 -9.15527 2.78049 -9.0332Q2.13623 -8.91113 1.36312 -8.65343L1.36312 -9.87413Q2.14301 -10.0911 2.82457 -10.1997Q3.50613 -10.3082 4.1097 -10.3082Q5.66949 -10.3082 6.57823 -9.59947Q7.48698 -8.89079 7.48698 -7.68365Q7.48698 -6.84272 7.00548 -6.26289Q6.52398 -5.68305 5.63558 -5.45926ZM13.2514 -9.22309Q12.1935 -9.22309 11.6611 -8.1821Q11.1287 -7.14111 11.1287 -5.05235Q11.1287 -2.97038 11.6611 -1.92939Q12.1935 -0.888401 13.2514 -0.888401Q14.3161 -0.888401 14.8485 -1.92939Q15.3809 -2.97038 15.3809 -5.05235Q15.3809 -7.14111 14.8485 -8.1821Q14.3161 -9.22309 13.2514 -9.22309ZM13.2514 -10.3082Q14.9536 -10.3082 15.8522 -8.962Q16.7508 -7.61583 16.7508 -5.05235Q16.7508 -2.49566 15.8522 -1.1495Q14.9536 0.196669 13.2514 0.196669Q11.5492 0.196669 10.6506 -1.1495Q9.75206 -2.49566 9.75206 -5.05235Q9.75206 -7.61583 10.6506 -8.962Q11.5492 -10.3082 13.2514 -10.3082ZM21.1453 -9.43332Q20.6028 -9.43332 20.2298 -9.05694Q19.8568 -8.68056 19.8568 -8.13802Q19.8568 -7.60227 20.2298 -7.23267Q20.6028 -6.86306 21.1453 -6.86306Q21.6878 -6.86306 22.0608 -7.23267Q22.4338 -7.60227 22.4338 -8.13802Q22.4338 -8.67377 22.0574 -9.05355Q21.681 -9.43332 21.1453 -9.43332ZM21.1453 -10.3082Q21.5793 -10.3082 21.9794 -10.142Q22.3796 -9.97586 22.6712 -9.6639Q22.9831 -9.35872 23.1391 -8.97217Q23.2951 -8.58561 23.2951 -8.13802Q23.2951 -7.24284 22.6678 -6.62231Q22.0405 -6.00179 21.1317 -6.00179Q20.2162 -6.00179 19.6058 -6.61214Q18.9955 -7.22249 18.9955 -8.13802Q18.9955 -9.04677 19.6194 -9.67746Q20.2433 -10.3082 21.1453 -10.3082Z" fill="#262626" transform="translate(485.54408803307456,200.82500000000002)" />
<line x1="307.5" y1="303" x2="405.675" y2="132.9559119669255" stroke="#CCCCCC" stroke-width="0.5" />
<path d="M4.58442 -5.60845Q3.66211 -5.60845 3.12297 -4.97776Q2.58382 -4.34706 2.58382 -3.24843Q2.58382 -2.15658 3.12297 -1.52249Q3.66211 -0.888401 4.58442 -0.888401Q5.50673 -0.888401 6.04587 -1.52249Q6.58502 -2.15658 6.58502 -3.24843Q6.58502 -4.34706 6.04587 -4.97776Q5.50673 -5.60845 4.58442 -5.60845ZM7.30387 -9.90126L7.30387 -8.65343Q6.78847 -8.89757 6.26289 -9.02642Q5.7373 -9.15527 5.2219 -9.15527Q3.86556 -9.15527 3.15009 -8.23975Q2.43462 -7.32422 2.3329 -5.47282Q2.73302 -6.06282 3.33659 -6.37817Q3.94016 -6.69352 4.6658 -6.69352Q6.19168 -6.69352 7.07669 -5.76782Q7.9617 -4.84212 7.9617 -3.24843Q7.9617 -1.68864 7.03939 -0.745985Q6.11708 0.196669 4.58442 0.196669Q2.82796 0.196669 1.89887 -1.1495Q0.969781 -2.49566 0.969781 -5.05235Q0.969781 -7.45307 2.1091 -8.88062Q3.24843 -10.3082 5.16764 -10.3082Q5.68305 -10.3082 6.20863 -10.2064Q6.73421 -10.1047 7.30387 -9.90126ZM13.2514 -9.22309Q12.1935 -9.22309 11.6611 -8.1821Q11.1287 -7.14111 11.1287 -5.05235Q11.1287 -2.97038 11.6611 -1.92939Q12.1935 -0.888401 13.2514 -0.888401Q14.3161 -0.888401 14.8485 -1.92939Q15.3809 -2.97038 15.3809 -5.05235Q15.3809 -7.14111 14.8485 -8.1821Q14.3161 -9.22309 13.2514 -9.22309ZM13.2514 -10.3082Q14.9536 -10.3082 15.8522 -8.962Q16.7508 -7.61583 16.7508 -5.05235Q16.7508 -2.49566 15.8522 -1.1495Q14.9536 0.196669 13.2514 0.196669Q11.5492 0.196669 10.6506 -1.1495Q9.75206 -2.49566 9.75206 -5.05235Q9.75206 -7.61583 10.6506 -8.962Q11.5492 -10.3082 13.2514 -10.3082ZM21.1453 -9.43332Q20.6028 -9.43332 20.2298 -9.05694Q19.8568 -8.68056 19.8568 -8.13802Q19.8568 -7.60227 20.2298 -7.23267Q20.6028 -6.86306 21.1453 -6.86306Q21.6878 -6.86306 22.0608 -7.23267Q22.4338 -7.60227 22.4338 -8.13802Q22.4338 -8.67377 22.0574 -9.05355Q21.681 -9.43332 21.1453 -9.43332ZM21.1453 -10.3082Q21.5793 -10.3082 21.9794 -10.142Q22.3796 -9.97586 22.6712 -9.6639Q22.9831 -9.35872 23.1391 -8.97217Q23.2951 -8.58561 23.2951 -8.13802Q23.2951 -7.24284 22.6678 -6.62231Q22.0405 -6.00179 21.1317 -6.00179Q20.2162 -6.00179 19.6058 -6.61214Q18.9955 -7.22249 18.9955 -8.13802Q18.9955 -9.04677 19.6194 -9.67746Q20.2433 -10.3082 21.1453 -10.3082Z" fill="#262626" transform="translate(413.675,128.9559119669255)" />
<line x1="307.5" y1="303" x2="307.5" y2="106.65" stroke="#CCCCCC" stroke-width="0.5" />
<path d="M1.52588 -0.210232L1.52588 -1.45806Q2.04129 -1.21392 2.57026 -1.08507Q3.09923 -0.956217 3.60786 -0.956217Q4.96419 -0.956217 5.67966 -1.86835Q6.39513 -2.78049 6.49685 -4.63867Q6.10352 -4.05545 5.49995 -3.74349Q4.89638 -3.43153 4.16395 -3.43153Q2.64486 -3.43153 1.75985 -4.35045Q0.874837 -5.26937 0.874837 -6.86306Q0.874837 -8.42285 1.79715 -9.36551Q2.71946 -10.3082 4.25212 -10.3082Q6.00857 -10.3082 6.93427 -8.962Q7.85997 -7.61583 7.85997 -5.05235Q7.85997 -2.65842 6.72404 -1.23088Q5.58811 0.196669 3.66889 0.196669Q3.15348 0.196669 2.62451 0.0949436Q2.09554 -0.00678168 1.52588 -0.210232ZM4.25212 -4.50304Q5.17442 -4.50304 5.71357 -5.13374Q6.25271 -5.76443 6.25271 -6.86306Q6.25271 -7.95491 5.71357 -8.589Q5.17443 -9.22309 4.25212 -9.22309Q3.32981 -9.22309 2.79066 -8.589Q2.25152 -7.95492 2.25152 -6.86306Q2.25152 -5.76443 2.79066 -5.13374Q3.32981 -4.50304 4.25212 -4.50304ZM13.2514 -9.22309Q12.1935 -9.22309 11.6611 -8.1821Q11.1287 -7.14111 11.1287 -5.05235Q11.1287 -2.97038 11.6611 -1.92939Q12.1935 -0.888401 13.2514 -0.888401Q14.3161 -0.888401 14.8485 -1.92939Q15.3809 -2.97038 15.3809 -5.05235Q15.3809 -7.14111 14.8485 -8.1821Q14.3161 -9.22309 13.2514 -9.22309ZM13.2514 -10.3082Q14.9536 -10.3082 15.8522 -8.962Q16.7508 -7.61583 16.7508 -5.05235Q16.7508 -2.49566 15.8522 -1.1495Q14.9536 0.196669 13.2514 0.196669Q11.5492 0.196669 10.6506 -1.1495Q9.75206 -2.49566 9.75206 -5.05235Q9.75206 -7.61583 10.6506 -8.962Q11.5492 -10.3082 13.2514 -10.3082ZM21.1453 -9.43332Q20.6028 -9.43332 20.2298 -9.05694Q19.8568 -8.68056 19.8568 -8.13802Q19.8568 -7.60227 20.2298 -7.23267Q20.6028 -6.86306 21.1453 -6.86306Q21.6878 -6.86306 22.0608 -7.23267Q22.4338 -7.60227 22.4338 -8.13802Q22.4338 -8.67377 22.0574 -9.05355Q21.681 -9.43332 21.1453 -9.43332ZM21.1453 -10.3082Q21.5793 -10.3082 21.9794 -10.142Q22.3796 -9.97586 22.6712 -9.6639Q22.9831 -9.35872 23.1391 -8.97217Q23.2951 -8.58561 23.2951 -8.13802Q23.2951 -7.24284 22.6678 -6.62231Q22.0405 -6.00179 21.1317 -6.00179Q20.2162 -6.00179 19.6058 -6.61214Q18.9955 -7.22249 18.9955 -8.13802Q18.9955 -9.04677 19.6194 -9.67746Q20.2433 -10.3082 21.1453 -10.3082Z" fill="#262626" transform="translate(299.5,102.65)" />
<line x1="307.5" y1="303" x2="209.32500000000005" y2="132.95591196692547" stroke="#CCCCCC" stroke-width="0.5" />
<path d="M1.72255 -1.15289L3.9605 -1.15289L3.9605 -8.87722L1.52588 -8.38894L1.52588 -9.63677L3.94694 -10.1251L5.31684 -10.1251L5.31684 -1.15289L7.5548 -1.15289L7.5548 0L1.72255 0L1.72255 -1.15289ZM11.5017 -1.15289L16.2828 -1.15289L16.2828 0L9.85379 0L9.85379 -1.15289Q10.6337 -1.95991 11.9798 -3.31963Q13.326 -4.67936 13.6719 -5.0727Q14.3297 -5.8119 14.5908 -6.32392Q14.8519 -6.83594 14.8519 -7.331Q14.8519 -8.13802 14.2856 -8.64665Q13.7193 -9.15527 12.8106 -9.15527Q12.1663 -9.15527 11.4509 -8.93148Q10.7354 -8.70768 9.9216 -8.25331L9.9216 -9.63677Q10.749 -9.96908 11.4678 -10.1386Q12.1867 -10.3082 12.7835 -10.3082Q14.3568 -10.3082 15.2927 -9.52148Q16.2286 -8.73481 16.2286 -7.41916Q16.2286 -6.79525 15.9946 -6.23576Q15.7606 -5.67627 15.1435 -4.91672Q14.974 -4.72005 14.0652 -3.78079Q13.1565 -2.84153 11.5017 -1.15289ZM22.0879 -9.22309Q21.03 -9.22309 20.4976 -8.1821Q19.9653 -7.14111 19.9653 -5.05235Q19.9653 -2.97038 20.4976 -1.92939Q21.03 -0.888401 22.0879 -0.888401Q23.1527 -0.888401 23.685 -1.92939Q24.2174 -2.97038 24.2174 -5.05235Q24.2174 -7.14111 23.685 -8.1821Q23.1527 -9.22309 22.0879 -9.22309ZM22.0879 -10.3082Q23.7901 -10.3082 24.6887 -8.962Q25.5873 -7.61583 25.5873 -5.05235Q25.5873 -2.49566 24.6887 -1.1495Q23.7901 0.196669 22.0879 0.196669Q20.3857 0.196669 19.4872 -1.1495Q18.5886 -2.49566 18.5886 -5.05235Q18.5886 -7.61583 19.4872 -8.962Q20.3857 -10.3082 22.0879 -10.3082ZM29.9818 -9.43332Q29.4393 -9.43332 29.0663 -9.05694Q28.6933 -8.68056 28.6933 -8.13802Q28.6933 -7.60227 29.0663 -7.23267Q29.4393 -6.86306 29.9818 -6.86306Q30.5244 -6.86306 30.8974 -7.23267Q31.2703 -7.60227 31.2703 -8.13802Q31.2703 -8.67377 30.894 -9.05355Q30.5176 -9.43332 29.9818 -9.43332ZM29.9818 -10.3082Q30.4159 -10.3082 30.816 -10.142Q31.2161 -9.97586 31.5077 -9.6639Q31.8197 -9.35872 31.9756 -8.97217Q32.1316 -8.58561 32.1316 -8.13802Q32.1316 -7.24284 31.5043 -6.62231Q30.877 -6.00179 29.9683 -6.00179Q29.0527 -6.00179 28.4424 -6.61214Q27.832 -7.22249 27.832 -8.13802Q27.832 -9.04677 28.4559 -9.67746Q29.0799 -10.3082 29.9818 -10.3082Z" fill="#262626" transform="translate(201.32500000000005,128.95591196692547) translate(-33.45404815673828,0)" />
<line x1="307.5" y1="303" x2="137.45591196692547" y2="204.82500000000002" stroke="#CCCCCC" stroke-width="0.5" />
<path d="M1.72255 -1.15289L3.9605 -1.15289L3.9605 -8.87722L1.52588 -8.38894L1.52588 -9.63677L3.94694 -10.1251L5.31684 -10.1251L5.31684 -1.15289L7.5548 -1.15289L7.5548 0L1.72255 0L1.72255 -1.15289ZM10.3353 -10.1251L15.7132 -10.1251L15.7132 -8.97217L11.5899 -8.97217L11.5899 -6.49007Q11.8883 -6.5918 12.1867 -6.64266Q12.4851 -6.69352 12.7835 -6.69352Q14.4789 -6.69352 15.469 -5.76443Q16.4591 -4.83534 16.4591 -3.24843Q16.4591 -1.61404 15.4419 -0.708686Q14.4246 0.196669 12.5732 0.196669Q11.9358 0.196669 11.2745 0.0881619C10.8337 0.0158239 10.3782 -0.092683 9.90804 -0.237359L9.90804 -1.61404Q10.5184 -1.28174 11.1694 -1.11898Q11.8205 -0.956217 12.5461 -0.956217Q13.7193 -0.956217 14.4043 -1.57335Q15.0892 -2.19048 15.0892 -3.24843Q15.0892 -4.30637 14.4043 -4.9235Q13.7193 -5.54064 12.5461 -5.54064Q11.9968 -5.54064 11.4509 -5.41857Q10.9049 -5.2965 10.3353 -5.03879L10.3353 -10.1251ZM22.0879 -9.22309Q21.03 -9.22309 20.4976 -8.1821Q19.9653 -7.14111 19.9653 -5.05235Q19.9653 -2.97038 20.4976 -1.92939Q21.03 -0.888401 22.0879 -0.888401Q23.1527 -0.888401 23.685 -1.92939Q24.2174 -2.97038 24.2174 -5.05235Q24.2174 -7.14111 23.685 -8.1821Q23.1527 -9.22309 22.0879 -9.22309ZM22.0879 -10.3082Q23.7901 -10.3082 24.6887 -8.962Q25.5873 -7.61583 25.5873 -5.05235Q25.5873 -2.49566 24.6887 -1.1495Q23.7901 0.196669 22.0879 0.196669Q20.3857 0.196669 19.4872 -1.1495Q18.5886 -2.49566 18.5886 -5.05235Q18.5886 -7.61583 19.4872 -8.962Q20.3857 -10.3082 22.0879 -10.3082ZM29.9818 -9.43332Q29.4393 -9.43332 29.0663 -9.05694Q28.6933 -8.68056 28.6933 -8.13802Q28.6933 -7.60227 29.0663 -7.23267Q29.4393 -6.86306 29.9818 -6.86306Q30.5244 -6.86306 30.8974 -7.23267Q31.2703 -7.60227 31.2703 -8.13802Q31.2703 -8.67377 30.894 -9.05355Q30.5176 -9.43332 29.9818 -9.43332ZM29.9818 -10.3082Q30.4159 -10.3082 30.816 -10.142Q31.2161 -9.97586 31.5077 -9.6639Q31.8197 -9.35872 31.9756 -8.97217Q32.1316 -8.58561 32.1316 -8.13802Q32.1316 -7.24284 31.5043 -6.62231Q30.877 -6.00179 29.9683 -6.00179Q29.0527 -6.00179 28.4424 -6.61214Q27.832 -7.22249 27.832 -8.13802Q27.832 -9.04677 28.4559 -9.67746Q29.0799 -10.3082 29.9818 -10.3082Z" fill="#262626" transform="translate(129.45591196692547,200.82500000000002) translate(-33.45404815673828,0)" />
<line x1="307.5" y1="303" x2="111.15" y2="303" stroke="#CCCCCC" stroke-width="0.5" />
<path d="M1.72255 -1.15289L3.9605 -1.15289L3.9605 -8.87722L1.52588 -8.38894L1.52588 -9.63677L3.94694 -10.1251L5.31684 -10.1251L5.31684 -1.15289L7.5548 -1.15289L7.5548 0L1.72255 0L1.72255 -1.15289ZM13.2514 -4.80821Q12.2748 -4.80821 11.7154 -4.28602Q11.1559 -3.76383 11.1559 -2.84831Q11.1559 -1.93278 11.7154 -1.41059Q12.2748 -0.888401 13.2514 -0.888401Q14.228 -0.888401 14.7909 -1.41398Q15.3537 -1.93956 15.3537 -2.84831Q15.3537 -3.76383 14.7942 -4.28602Q14.2348 -4.80821 13.2514 -4.80821ZM11.8815 -5.39144Q10.9999 -5.60845 10.5082 -6.21202Q10.0165 -6.81559 10.0165 -7.68365Q10.0165 -8.89757 10.8812 -9.60287Q11.7459 -10.3082 13.2514 -10.3082Q14.7637 -10.3082 15.625 -9.60287Q16.4863 -8.89757 16.4863 -7.68365Q16.4863 -6.81559 15.9946 -6.21202Q15.5029 -5.60845 14.6281 -5.39144Q15.6182 -5.16086 16.1709 -4.48947Q16.7236 -3.81809 16.7236 -2.84831Q16.7236 -1.37668 15.8251 -0.590007Q14.9265 0.196669 13.2514 0.196669Q11.5763 0.196669 10.6778 -0.590007Q9.77919 -1.37668 9.77919 -2.84831Q9.77919 -3.81809 10.3353 -4.48947Q10.8914 -5.16086 11.8815 -5.39144ZM11.3797 -7.5548Q11.3797 -6.76812 11.8713 -6.32731Q12.363 -5.8865 13.2514 -5.8865Q14.133 -5.8865 14.6315 -6.32731Q15.1299 -6.76812 15.1299 -7.5548Q15.1299 -8.34147 14.6315 -8.78228Q14.133 -9.22309 13.2514 -9.22309Q12.363 -9.22309 11.8713 -8.78228Q11.3797 -8.34147 11.3797 -7.5548ZM22.0879 -9.22309Q21.03 -9.22309 20.4976 -8.1821Q19.9653 -7.14111 19.9653 -5.05235Q19.9653 -2.97038 20.4976 -1.92939Q21.03 -0.888401 22.0879 -0.888401Q23.1527 -0.888401 23.685 -1.92939Q24.2174 -2.97038 24.2174 -5.05235Q24.2174 -7.14111 23.685 -8.1821Q23.1527 -9.22309 22.0879 -9.22309ZM22.0879 -10.3082Q23.7901 -10.3082 24.6887 -8.962Q25.5873 -7.61583 25.5873 -5.05235Q25.5873 -2.49566 24.6887 -1.1495Q23.7901 0.196669 22.0879 0.196669Q20.3857 0.196669 19.4872 -1.1495Q18.5886 -2.49566 18.5886 -5.05235Q18.5886 -7.61583 19.4872 -8.962Q20.3857 -10.3082 22.0879 -10.3082ZM29.9818 -9.43332Q29.4393 -9.43332 29.0663 -9.05694Q28.6933 -8.68056 28.6933 -8.13802Q28.6933 -7.60227 29.0663 -7.23267Q29.4393 -6.86306 29.9818 -6.86306Q30.5244 -6.86306 30.8974 -7.23267Q31.2703 -7.60227 31.2703 -8.13802Q31.2703 -8.67377 30.894 -9.05355Q30.5176 -9.43332 29.9818 -9.43332ZM29.9818 -10.3082Q30.4159 -10.3082 30.816 -10.142Q31.2161 -9.97586 31.5077 -9.6639Q31.8197 -9.35872 31.9756 -8.97217Q32.1316 -8.58561 32.1316 -8.13802Q32.1316 -7.24284 31.5043 -6.62231Q30.877 -6.00179 29.9683 -6.00179Q29.0527 -6.00179 28.4424 -6.61214Q27.832 -7.22249 27.832 -8.13802Q27.832 -9.04677 28.4559 -9.67746Q29.0799 -10.3082 29.9818 -10.3082Z" fill="#262626" transform="translate(103.15,299) translate(-33.45404815673828,0)" />
<line x1="307.5" y1="303" x2="137.45591196692544" y2="401.17499999999995" stroke="#CCCCCC" stroke-width="0.5" />
<path d="M2.6652 -1.15289L7.44629 -1.15289L7.44629 0L1.01725 0L1.01725 -1.15289Q1.79715 -1.95991 3.14331 -3.31963Q4.48947 -4.67936 4.83534 -5.0727Q5.49316 -5.8119 5.75426 -6.32392Q6.01535 -6.83594 6.01535 -7.331Q6.01535 -8.13802 5.44908 -8.64665Q4.88281 -9.15527 3.97407 -9.15527Q3.32981 -9.15527 2.61434 -8.93148Q1.89887 -8.70768 1.08507 -8.25331L1.08507 -9.63677Q1.91243 -9.96908 2.63129 -10.1386Q3.35015 -10.3082 3.94694 -10.3082Q5.52029 -10.3082 6.45616 -9.52148Q7.39204 -8.73481 7.39204 -7.41916Q7.39204 -6.79525 7.15807 -6.23576Q6.9241 -5.67627 6.30697 -4.91672Q6.13742 -4.72005 5.22868 -3.78079Q4.31993 -2.84153 2.6652 -1.15289ZM10.5591 -1.15289L12.797 -1.15289L12.797 -8.87722L10.3624 -8.38894L10.3624 -9.63677L12.7835 -10.1251L14.1534 -10.1251L14.1534 -1.15289L16.3913 -1.15289L16.3913 0L10.5591 0L10.5591 -1.15289ZM22.0879 -9.22309Q21.03 -9.22309 20.4976 -8.1821Q19.9653 -7.14111 19.9653 -5.05235Q19.9653 -2.97038 20.4976 -1.92939Q21.03 -0.888401 22.0879 -0.888401Q23.1527 -0.888401 23.685 -1.92939Q24.2174 -2.97038 24.2174 -5.05235Q24.2174 -7.14111 23.685 -8.1821Q23.1527 -9.22309 22.0879 -9.22309ZM22.0879 -10.3082Q23.7901 -10.3082 24.6887 -8.962Q25.5873 -7.61583 25.5873 -5.05235Q25.5873 -2.49566 24.6887 -1.1495Q23.7901 0.196669 22.0879 0.196669Q20.3857 0.196669 19.4872 -1.1495Q18.5886 -2.49566 18.5886 -5.05235Q18.5886 -7.61583 19.4872 -8.962Q20.3857 -10.3082 22.0879 -10.3082ZM29.9818 -9.43332Q29.4393 -9.43332 29.0663 -9.05694Q28.6933 -8.68056 28.6933 -8.13802Q28.6933 -7.60227 29.0663 -7.23267Q29.4393 -6.86306 29.9818 -6.86306Q30.5244 -6.86306 30.8974 -7.23267Q31.2703 -7.60227 31.2703 -8.13802Q31.2703 -8.67377 30.894 -9.05355Q30.5176 -9.43332 29.9818 -9.43332ZM29.9818 -10.3082Q30.4159 -10.3082 30.816 -10.142Q31.2161 -9.97586 31.5077 -9.6639Q31.8197 -9.35872 31.9756 -8.97217Q32.1316 -8.58561 32.1316 -8.13802Q32.1316 -7.24284 31.5043 -6.62231Q30.877 -6.00179 29.9683 -6.00179Q29.0527 -6.00179 28.4424 -6.61214Q27.832 -7.22249 27.832 -8.13802Q27.832 -9.04677 28.4559 -9.67746Q29.0799 -10.3082 29.9818 -10.3082Z" fill="#262626" transform="translate(129.45591196692544,413.17499999999995) translate(-33.45404815673828,0)" />
<line x1="307.5" y1="303" x2="209.32499999999993" y2="473.0440880330745" stroke="#CCCCCC" stroke-width="0.5" />
<path d="M2.6652 -1.15289L7.44629 -1.15289L7.44629 0L1.01725 0L1.01725 -1.15289Q1.79715 -1.95991 3.14331 -3.31963Q4.48947 -4.67936 4.83534 -5.0727Q5.49316 -5.8119 5.75426 -6.32392Q6.01535 -6.83594 6.01535 -7.331Q6.01535 -8.13802 5.44908 -8.64665Q4.88281 -9.15527 3.97407 -9.15527Q3.32981 -9.15527 2.61434 -8.93148Q1.89887 -8.70768 1.08507 -8.25331L1.08507 -9.63677Q1.91243 -9.96908 2.63129 -10.1386Q3.35015 -10.3082 3.94694 -10.3082Q5.52029 -10.3082 6.45616 -9.52148Q7.39204 -8.73481 7.39204 -7.41916Q7.39204 -6.79525 7.15807 -6.23576Q6.9241 -5.67627 6.30697 -4.91672Q6.13742 -4.72005 5.22868 -3.78079Q4.31993 -2.84153 2.6652 -1.15289ZM14.0856 -8.93148L10.6269 -3.52648L14.0856 -3.52648L14.0856 -8.93148ZM13.7261 -10.1251L15.4487 -10.1251L15.4487 -3.52648L16.8932 -3.52648L16.8932 -2.38715L15.4487 -2.38715L15.4487 0L14.0856 0L14.0856 -2.38715L9.5147 -2.38715L9.5147 -3.70958L13.7261 -10.1251ZM22.0879 -9.22309Q21.03 -9.22309 20.4976 -8.1821Q19.9653 -7.14111 19.9653 -5.05235Q19.9653 -2.97038 20.4976 -1.92939Q21.03 -0.888401 22.0879 -0.888401Q23.1527 -0.888401 23.685 -1.92939Q24.2174 -2.97038 24.2174 -5.05235Q24.2174 -7.14111 23.685 -8.1821Q23.1527 -9.22309 22.0879 -9.22309ZM22.0879 -10.3082Q23.7901 -10.3082 24.6887 -8.962Q25.5873 -7.61583 25.5873 -5.05235Q25.5873 -2.49566 24.6887 -1.1495Q23.7901 0.196669 22.0879 0.196669Q20.3857 0.196669 19.4872 -1.1495Q18.5886 -2.49566 18.5886 -5.05235Q18.5886 -7.61583 19.4872 -8.962Q20.3857 -10.3082 22.0879 -10.3082ZM29.9818 -9.43332Q29.4393 -9.43332 29.0663 -9.05694Q28.6933 -8.68056 28.6933 -8.13802Q28.6933 -7.60227 29.0663 -7.23267Q29.4393 -6.86306 29.9818 -6.86306Q30.5244 -6.86306 30.8974 -7.23267Q31.2703 -7.60227 31.2703 -8.13802Q31.2703 -8.67377 30.894 -9.05355Q30.5176 -9.43332 29.9818 -9.43332ZM29.9818 -10.3082Q30.4159 -10.3082 30.816 -10.142Q31.2161 -9.97586 31.5077 -9.6639Q31.8197 -9.35872 31.9756 -8.97217Q32.1316 -8.58561 32.1316 -8.13802Q32.1316 -7.24284 31.5043 -6.62231Q30.877 -6.00179 29.9683 -6.00179Q29.0527 -6.00179 28.4424 -6.61214Q27.832 -7.22249 27.832 -8.13802Q27.832 -9.04677 28.4559 -9.67746Q29.0799 -10.3082 29.9818 -10.3082Z" fill="#262626" transform="translate(201.32499999999993,485.0440880330745) translate(-33.45404815673828,0)" />
<line x1="307.5" y1="303" x2="307.49999999999994" y2="499.35" stroke="#CCCCCC" stroke-width="0.5" />
<path d="M2.6652 -1.15289L7.44629 -1.15289L7.44629 0L1.01725 0L1.01725 -1.15289Q1.79715 -1.95991 3.14331 -3.31963Q4.48947 -4.67936 4.83534 -5.0727Q5.49316 -5.8119 5.75426 -6.32392Q6.01535 -6.83594 6.01535 -7.331Q6.01535 -8.13802 5.44908 -8.64665Q4.88281 -9.15527 3.97407 -9.15527Q3.32981 -9.15527 2.61434 -8.93148Q1.89887 -8.70768 1.08507 -8.25331L1.08507 -9.63677Q1.91243 -9.96908 2.63129 -10.1386Q3.35015 -10.3082 3.94694 -10.3082Q5.52029 -10.3082 6.45616 -9.52148Q7.39204 -8.73481 7.39204 -7.41916Q7.39204 -6.79525 7.15807 -6.23576Q6.9241 -5.67627 6.30697 -4.91672Q6.13742 -4.72005 5.22868 -3.78079Q4.31993 -2.84153 2.6652 -1.15289ZM9.97586 -10.1251L16.4863 -10.1251L16.4863 -9.54183L12.8106 0L11.3797 0L14.8383 -8.97217L9.97586 -8.97217L9.97586 -10.1251ZM22.0879 -9.22309Q21.03 -9.22309 20.4976 -8.1821Q19.9653 -7.14111 19.9653 -5.05235Q19.9653 -2.97038 20.4976 -1.92939Q21.03 -0.888401 22.0879 -0.888401Q23.1527 -0.888401 23.685 -1.92939Q24.2174 -2.97038 24.2174 -5.05235Q24.2174 -7.14111 23.685 -8.1821Q23.1527 -9.22309 22.0879 -9.22309ZM22.0879 -10.3082Q23.7901 -10.3082 24.6887 -8.962Q25.5873 -7.61583 25.5873 -5.05235Q25.5873 -2.49566 24.6887 -1.1495Q23.7901 0.196669 22.0879 0.196669Q20.3857 0.196669 19.4872 -1.1495Q18.5886 -2.49566 18.5886 -5.05235Q18.5886 -7.61583 19.4872 -8.962Q20.3857 -10.3082 22.0879 -10.3082ZM29.9818 -9.43332Q29.4393 -9.43332 29.0663 -9.05694Q28.6933 -8.68056 28.6933 -8.13802Q28.6933 -7.60227 29.0663 -7.23267Q29.4393 -6.86306 29.9818 -6.86306Q30.5244 -6.86306 30.8974 -7.23267Q31.2703 -7.60227 31.2703 -8.13802Q31.2703 -8.67377 30.894 -9.05355Q30.5176 -9.43332 29.9818 -9.43332ZM29.9818 -10.3082Q30.4159 -10.3082 30.816 -10.142Q31.2161 -9.97586 31.5077 -9.6639Q31.8197 -9.35872 31.9756 -8.97217Q32.1316 -8.58561 32.1316 -8.13802Q32.1316 -7.24284 31.5043 -6.62231Q30.877 -6.00179 29.9683 -6.00179Q29.0527 -6.00179 28.4424 -6.61214Q27.832 -7.22249 27.832 -8.13802Q27.832 -9.04677 28.4559 -9.67746Q29.0799 -10.3082 29.9818 -10.3082Z" fill="#262626" transform="translate(299.49999999999994,511.35) translate(-33.45404815673828,0)" />
<line x1="307.5" y1="303" x2="405.675" y2="473.0440880330745" stroke="#CCCCCC" stroke-width="0.5" />
<path d="M5.63558 -5.45926Q6.61892 -5.24902 7.17163 -4.58442Q7.72434 -3.91981 7.72434 -2.94325Q7.72434 -1.4445 6.69352 -0.623915Q5.66271 0.196669 3.76383 0.196669Q3.12636 0.196669 2.45158 0.0712077Q1.7768 -0.0542535 1.05794 -0.305176L1.05794 -1.6276Q1.6276 -1.2953 2.30577 -1.12576Q2.98394 -0.956217 3.72314 -0.956217Q5.01166 -0.956217 5.68644 -1.46484Q6.36122 -1.97347 6.36122 -2.94325Q6.36122 -3.83843 5.73391 -4.34367Q5.10661 -4.8489 3.98763 -4.8489L2.80762 -4.8489L2.80762 -5.97466L4.04188 -5.97466Q5.05235 -5.97466 5.58811 -6.37817Q6.12386 -6.78168 6.12386 -7.54123Q6.12386 -8.32113 5.57115 -8.7382Q5.01845 -9.15527 3.98763 -9.15527Q3.42475 -9.15527 2.78049 -9.0332Q2.13623 -8.91113 1.36312 -8.65343L1.36312 -9.87413Q2.14301 -10.0911 2.82457 -10.1997Q3.50613 -10.3082 4.1097 -10.3082Q5.66949 -10.3082 6.57823 -9.59947Q7.48698 -8.89079 7.48698 -7.68365Q7.48698 -6.84272 7.00548 -6.26289Q6.52398 -5.68305 5.63558 -5.45926ZM13.2514 -9.22309Q12.1935 -9.22309 11.6611 -8.1821Q11.1287 -7.14111 11.1287 -5.05235Q11.1287 -2.97038 11.6611 -1.92939Q12.1935 -0.888401 13.2514 -0.888401Q14.3161 -0.888401 14.8485 -1.92939Q15.3809 -2.97038 15.3809 -5.05235Q15.3809 -7.14111 14.8485 -8.1821Q14.3161 -9.22309 13.2514 -9.22309ZM13.2514 -10.3082Q14.9536 -10.3082 15.8522 -8.962Q16.7508 -7.61583 16.7508 -5.05235Q16.7508 -2.49566 15.8522 -1.1495Q14.9536 0.196669 13.2514 0.196669Q11.5492 0.196669 10.6506 -1.1495Q9.75206 -2.49566 9.75206 -5.05235Q9.75206 -7.61583 10.6506 -8.962Q11.5492 -10.3082 13.2514 -10.3082ZM22.0879 -9.22309Q21.03 -9.22309 20.4976 -8.1821Q19.9653 -7.14111 19.9653 -5.05235Q19.9653 -2.97038 20.4976 -1.92939Q21.03 -0.888401 22.0879 -0.888401Q23.1527 -0.888401 23.685 -1.92939Q24.2174 -2.97038 24.2174 -5.05235Q24.2174 -7.14111 23.685 -8.1821Q23.1527 -9.22309 22.0879 -9.22309ZM22.0879 -10.3082Q23.7901 -10.3082 24.6887 -8.962Q25.5873 -7.61583 25.5873 -5.05235Q25.5873 -2.49566 24.6887 -1.1495Q23.7901 0.196669 22.0879 0.196669Q20.3857 0.196669 19.4872 -1.1495Q18.5886 -2.49566 18.5886 -5.05235Q18.5886 -7.61583 19.4872 -8.962Q20.3857 -10.3082 22.0879 -10.3082ZM29.9818 -9.43332Q29.4393 -9.43332 29.0663 -9.05694Q28.6933 -8.68056 28.6933 -8.13802Q28.6933 -7.60227 29.0663 -7.23267Q29.4393 -6.86306 29.9818 -6.86306Q30.5244 -6.86306 30.8974 -7.23267Q31.2703 -7.60227 31.2703 -8.13802Q31.2703 -8.67377 30.894 -9.05355Q30.5176 -9.43332 29.9818 -9.43332ZM29.9818 -10.3082Q30.4159 -10.3082 30.816 -10.142Q31.2161 -9.97586 31.5077 -9.6639Q31.8197 -9.35872 31.9756 -8.97217Q32.1316 -8.58561 32.1316 -8.13802Q32.1316 -7.24284 31.5043 -6.62231Q30.877 -6.00179 29.9683 -6.00179Q29.0527 -6.00179 28.4424 -6.61214Q27.832 -7.22249 27.832 -8.13802Q27.832 -9.04677 28.4559 -9.67746Q29.0799 -10.3082 29.9818 -10.3082Z" fill="#262626" transform="translate(413.675,485.0440880330745)" />
<line x1="307.5" y1="303" x2="477.54408803307444" y2="401.17500000000007" stroke="#CCCCCC" stroke-width="0.5" />
<path d="M5.63558 -5.45926Q6.61892 -5.24902 7.17163 -4.58442Q7.72434 -3.91981 7.72434 -2.94325Q7.72434 -1.4445 6.69352 -0.623915Q5.66271 0.196669 3.76383 0.196669Q3.12636 0.196669 2.45158 0.0712077Q1.7768 -0.0542535 1.05794 -0.305176L1.05794 -1.6276Q1.6276 -1.2953 2.30577 -1.12576Q2.98394 -0.956217 3.72314 -0.956217Q5.01166 -0.956217 5.68644 -1.46484Q6.36122 -1.97347 6.36122 -2.94325Q6.36122 -3.83843 5.73391 -4.34367Q5.10661 -4.8489 3.98763 -4.8489L2.80762 -4.8489L2.80762 -5.97466L4.04188 -5.97466Q5.05235 -5.97466 5.58811 -6.37817Q6.12386 -6.78168 6.12386 -7.54123Q6.12386 -8.32113 5.57115 -8.7382Q5.01845 -9.15527 3.98763 -9.15527Q3.42475 -9.15527 2.78049 -9.0332Q2.13623 -8.91113 1.36312 -8.65343L1.36312 -9.87413Q2.14301 -10.0911 2.82457 -10.1997Q3.50613 -10.3082 4.1097 -10.3082Q5.66949 -10.3082 6.57823 -9.59947Q7.48698 -8.89079 7.48698 -7.68365Q7.48698 -6.84272 7.00548 -6.26289Q6.52398 -5.68305 5.63558 -5.45926ZM14.4721 -5.45926Q15.4555 -5.24902 16.0082 -4.58442Q16.5609 -3.91981 16.5609 -2.94325Q16.5609 -1.4445 15.5301 -0.623915Q14.4992 0.196669 12.6004 0.196669Q11.9629 0.196669 11.2881 0.0712077Q10.6133 -0.0542535 9.89448 -0.305176L9.89448 -1.6276Q10.4641 -1.2953 11.1423 -1.12576Q11.8205 -0.956217 12.5597 -0.956217Q13.8482 -0.956217 14.523 -1.46484Q15.1978 -1.97347 15.1978 -2.94325Q15.1978 -3.83843 14.5704 -4.34367Q13.9431 -4.8489 12.8242 -4.8489L11.6442 -4.8489L11.6442 -5.97466L12.8784 -5.97466Q13.8889 -5.97466 14.4246 -6.37817Q14.9604 -6.78168 14.9604 -7.54123Q14.9604 -8.32113 14.4077 -8.7382Q13.855 -9.15527 12.8242 -9.15527Q12.2613 -9.15527 11.617 -9.0332Q10.9728 -8.91113 10.1997 -8.65343L10.1997 -9.87413Q10.9795 -10.0911 11.6611 -10.1997Q12.3427 -10.3082 12.9462 -10.3082Q14.506 -10.3082 15.4148 -9.59947Q16.3235 -8.89079 16.3235 -7.68365Q16.3235 -6.84272 15.842 -6.26289Q15.3605 -5.68305 14.4721 -5.45926ZM22.0879 -9.22309Q21.03 -9.22309 20.4976 -8.1821Q19.9653 -7.14111 19.9653 -5.05235Q19.9653 -2.97038 20.4976 -1.92939Q21.03 -0.888401 22.0879 -0.888401Q23.1527 -0.888401 23.685 -1.92939Q24.2174 -2.97038 24.2174 -5.05235Q24.2174 -7.14111 23.685 -8.1821Q23.1527 -9.22309 22.0879 -9.22309ZM22.0879 -10.3082Q23.7901 -10.3082 24.6887 -8.962Q25.5873 -7.61583 25.5873 -5.05235Q25.5873 -2.49566 24.6887 -1.1495Q23.7901 0.196669 22.0879 0.196669Q20.3857 0.196669 19.4872 -1.1495Q18.5886 -2.49566 18.5886 -5.05235Q18.5886 -7.61583 19.4872 -8.962Q20.3857 -10.3082 22.0879 -10.3082ZM29.9818 -9.43332Q29.4393 -9.43332 29.0663 -9.05694Q28.6933 -8.68056 28.6933 -8.13802Q28.6933 -7.60227 29.0663 -7.23267Q29.4393 -6.86306 29.9818 -6.86306Q30.5244 -6.86306 30.8974 -7.23267Q31.2703 -7.60227 31.2703 -8.13802Q31.2703 -8.67377 30.894 -9.05355Q30.5176 -9.43332 29.9818 -9.43332ZM29.9818 -10.3082Q30.4159 -10.3082 30.816 -10.142Q31.2161 -9.97586 31.5077 -9.6639Q31.8197 -9.35872 31.9756 -8.97217Q32.1316 -8.58561 32.1316 -8.13802Q32.1316 -7.24284 31.5043 -6.62231Q30.877 -6.00179 29.9683 -6.00179Q29.0527 -6.00179 28.4424 -6.61214Q27.832 -7.22249 27.832 -8.13802Q27.832 -9.04677 28.4559 -9.67746Q29.0799 -10.3082 29.9818 -10.3082Z" fill="#262626" transform="translate(485.54408803307444,413.17500000000007)" />
<g class="series" aria-label="r = 1 + cos(3θ)">
<polyline points="503.85,303 501.72703038612167,290.7802710115926 495.4618908801037,279.2548911535613 485.3597015898771,269.0714473581811 471.908753798988,260.78700676197815 455.75146691003715,254.83017840550798 437.64628362802284,251.47144107073348 418.4228656929135,250.80366143521104 398.9333651371373,252.73408215021854 380.002784964072,256.9883335361062 362.38149342276046,263.126261027918 346.7028146382003,270.5686112466577 333.4482942237178,278.63292980458596 322.9227520963794,286.5764371372135 315.2406166628113,293.6432017905405 310.3243237210531,299.11265189278464 307.9148045255737,302.34637265652196 307.5933281817039,302.8302366676996 308.81325157288546,300.2091983490496 310.9396100886649,294.3125365919182 313.2939934227605,285.16792182826845 315.20182331428794,273.0033786767448 316.0390048069625,258.2369692018947 315.274968439927,241.45478751212397 312.5093547759176,223.37858587534714 307.5,204.82500000000005 300.1804362663369,186.6588659977618 290.66578802957594,169.74349088477842 279.2466836880555,154.89092911752732 266.3715639694687,142.8153176356485 252.6185065772396,134.09213119717822 238.65835416902843,129.12585040392364 225.21148767408343,128.1280098992475 213.00099427183207,131.10694670568782 202.70521333144765,137.8698391711574 194.912689433426,148.0368612616944 190.0824162756561,161.06652299043327 188.51192784728138,176.2905728685924 190.3153042295237,192.95624594631596 195.41253941917407,210.27318836618696 203.53100657723954,227.46210468445486 214.2189967917513,243.80207526976773 226.8705485105247,258.6735839399097 240.76007394121058,271.59457466598695 255.08467062386455,282.24730300962995 269.01151993548376,290.4943347489711 281.7274501113812,296.38273389320256 292.48759990929904,300.1362315229118 300.66016927700593,302.13592843608757 305.76448225923053,302.89081047882667 307.5,303 305.76448225923053,303.10918952117333 300.66016927700593,303.86407156391243 292.4875999092991,305.8637684770881 281.72745011138136,309.6172661067974 269.01151993548376,315.50566525102886 255.0846706238646,323.75269699037 240.76007394121063,334.405425334013 226.87054851052469,347.3264160600903 214.21899679175147,362.1979247302321 203.53100657723968,378.5378953155449 195.4125394191741,395.726811633813 190.31530422952363,413.0437540536839 188.5119278472814,429.70942713140767 190.0824162756561,444.9334770095668 194.91268943342598,457.9631387383056 202.70521333144774,468.1301608288427 213.0009942718321,474.8930532943122 225.21148767408354,477.87199010075256 238.65835416902843,476.87414959607634 252.6185065772395,471.9078688028219 266.3715639694688,463.1846823643514 279.2466836880555,451.10907088247257 290.6657880295759,436.25650911522166 300.1804362663369,419.3411340022381 307.5,401.17500000000007 312.50935477591753,382.62141412465314 315.2749684399271,364.5452124878762 316.0390048069625,347.76303079810555 315.20182331428794,332.9966213232552 313.2939934227605,320.8320781717316 310.9396100886649,311.68746340808184 308.81325157288546,305.79080165095047 307.5933281817039,303.1697633323004 307.9148045255737,303.65362734347804 310.324323721053,306.8873481072153 315.2406166628113,312.3567982094595 322.9227520963792,319.4235628627863 333.4482942237177,327.36707019541393 346.7028146382004,335.4313887533423 362.3814934227604,342.8737389720819 380.00278496407185,349.0116664638938 398.933365137137,353.26591784978143 418.42286569291343,355.19633856478896 437.6462836280227,354.52855892926647 455.75146691003727,351.1698215944921 471.90875379898773,345.21299323802185 485.35970158987703,336.9285526418189 495.4618908801036,326.74510884643877 501.72703038612167,315.2197289884073" fill="none" stroke="#0000FF" stroke-width="2" />
</g>
<g class="legend" aria-label="Chart legend">
<rect x="368.08935207790796" y="82" width="161.910647922092" height="25.72222222222222" fill="#FFFFFF" fill-opacity="0.8" stroke="#CCCCCC" stroke-width="0.5" />
<rect x="376.08935207790796" y="90" width="27.77777777777778" height="9.722222222222221" fill="#0000FF" />
<path d="M5.71018 -6.42904Q5.49995 -6.55111 5.25241 -6.60875Q5.00488 -6.6664 4.70649 -6.6664Q3.64855 -6.6664 3.08228 -5.97805Q2.516 -5.28971 2.516 -4.00119L2.516 0L1.26139 0L1.26139 -7.59549L2.516 -7.59549L2.516 -6.41547Q2.90934 -7.1072 3.54004 -7.4429Q4.17074 -7.77859 5.0727 -7.77859Q5.20155 -7.77859 5.35753 -7.76164Q5.51351 -7.74468 5.7034 -7.71077L5.71018 -6.42904ZM11.5967 -6.30697L20.2908 -6.30697L20.2908 -5.16764L11.5967 -5.16764L11.5967 -6.30697ZM11.5967 -3.54004L20.2908 -3.54004L20.2908 -2.38715L11.5967 -2.38715L11.5967 -3.54004ZM27.8998 -1.15289L30.1378 -1.15289L30.1378 -8.87722L27.7032 -8.38894L27.7032 -9.63677L30.1242 -10.1251L31.4941 -10.1251L31.4941 -1.15289L33.7321 -1.15289L33.7321 0L27.8998 0L27.8998 -1.15289ZM45.8171 -8.70768L45.8171 -4.93028L49.5945 -4.93028L49.5945 -3.7774L45.8171 -3.7774L45.8171 0L44.6777 0L44.6777 -3.7774L40.9003 -3.7774L40.9003 -4.93028L44.6777 -4.93028L44.6777 -8.70768L45.8171 -8.70768ZM62.2559 -7.30387L62.2559 -6.13742Q61.7269 -6.42904 61.1945 -6.57484Q60.6622 -6.72065 60.1196 -6.72065Q58.9057 -6.72065 58.2343 -5.95093Q57.5629 -5.18121 57.5629 -3.79096Q57.5629 -2.40072 58.2343 -1.631Q58.9057 -0.861274 60.1196 -0.861274Q60.6622 -0.861274 61.1945 -1.00708Q61.7269 -1.15289 62.2559 -1.4445L62.2559 -0.291612Q61.7337 -0.0474718 61.1742 0.0745985Q60.6147 0.196669 59.984 0.196669Q58.2682 0.196669 57.2578 -0.881619Q56.2473 -1.95991 56.2473 -3.79096Q56.2473 -5.64914 57.2679 -6.71387Q58.2886 -7.77859 60.0654 -7.77859Q60.6418 -7.77859 61.1911 -7.65991Q61.7405 -7.54123 62.2559 -7.30387ZM67.3692 -6.72065Q66.3656 -6.72065 65.7823 -5.93736Q65.1991 -5.15408 65.1991 -3.79096Q65.1991 -2.42784 65.7789 -1.64456Q66.3588 -0.861274 67.3692 -0.861274Q68.3662 -0.861274 68.9494 -1.64795Q69.5326 -2.43462 69.5326 -3.79096Q69.5326 -5.14052 68.9494 -5.93058Q68.3662 -6.72065 67.3692 -6.72065ZM67.3692 -7.77859Q68.9969 -7.77859 69.9259 -6.72065Q70.855 -5.66271 70.855 -3.79096Q70.855 -1.926 69.9259 -0.864665Q68.9969 0.196669 67.3692 0.196669Q65.7349 0.196669 64.8092 -0.864665Q63.8835 -1.926 63.8835 -3.79096Q63.8835 -5.66271 64.8092 -6.72065Q65.7349 -7.77859 67.3692 -7.77859ZM77.7656 -7.37169L77.7656 -6.19168Q77.2366 -6.46294 76.6669 -6.59858Q76.0973 -6.73421 75.4869 -6.73421Q74.5578 -6.73421 74.0933 -6.44938Q73.6287 -6.16455 73.6287 -5.59489Q73.6287 -5.16086 73.9611 -4.91333Q74.2934 -4.6658 75.297 -4.442L75.7243 -4.34706Q77.0535 -4.06223 77.613 -3.54343Q78.1725 -3.02463 78.1725 -2.09554Q78.1725 -1.0376 77.3349 -0.420464Q76.4974 0.196669 75.0326 0.196669Q74.4222 0.196669 73.761 0.0779894Q73.0998 -0.0406901 72.3674 -0.278049L72.3674 -1.56657Q73.0591 -1.20714 73.7305 -1.02743Q74.4019 -0.84771 75.0597 -0.847711Q75.9413 -0.847711 76.416 -1.1495Q76.8907 -1.45128 76.8907 -2.0006Q76.8907 -2.50922 76.5483 -2.78049Q76.2058 -3.05176 75.0461 -3.30268L74.6121 -3.40441Q73.4524 -3.64855 72.937 -4.15378Q72.4216 -4.65902 72.4216 -5.54064Q72.4216 -6.61214 73.1812 -7.19537Q73.9407 -7.77859 75.3377 -7.77859Q76.0295 -7.77859 76.6398 -7.67687Q77.2502 -7.57514 77.7656 -7.37169ZM83.157 -10.5387Q82.2483 -8.97895 81.8075 -7.45307Q81.3667 -5.92719 81.3667 -4.36062Q81.3667 -2.79405 81.8109 -1.258Q82.2551 0.278049 83.157 1.83105L82.0719 1.83105Q81.0547 0.237359 80.5495 -1.30208Q80.0442 -2.84153 80.0442 -4.36062Q80.0442 -5.87294 80.5461 -7.4056Q81.0479 -8.93826 82.0719 -10.5387L83.157 -10.5387ZM89.9048 -5.45926Q90.8881 -5.24902 91.4408 -4.58442Q91.9935 -3.91981 91.9935 -2.94325Q91.9935 -1.4445 90.9627 -0.623915Q89.9319 0.196669 88.033 0.196669Q87.3956 0.196669 86.7208 0.0712077Q86.046 -0.0542535 85.3272 -0.305176L85.3272 -1.6276Q85.8968 -1.2953 86.575 -1.12576Q87.2532 -0.956217 87.9924 -0.956217Q89.2809 -0.956217 89.9557 -1.46484Q90.6304 -1.97347 90.6304 -2.94325Q90.6304 -3.83843 90.0031 -4.34367Q89.3758 -4.8489 88.2568 -4.8489L87.0768 -4.8489L87.0768 -5.97466L88.3111 -5.97466Q89.3216 -5.97466 89.8573 -6.37817Q90.3931 -6.78168 90.3931 -7.54123Q90.3931 -8.32113 89.8404 -8.7382Q89.2877 -9.15527 88.2568 -9.15527Q87.694 -9.15527 87.0497 -9.0332Q86.4054 -8.91113 85.6323 -8.65343L85.6323 -9.87413Q86.4122 -10.0911 87.0938 -10.1997Q87.7753 -10.3082 88.3789 -10.3082Q89.9387 -10.3082 90.8474 -9.59947Q91.7562 -8.89079 91.7562 -7.68365Q91.7562 -6.84272 91.2747 -6.26289Q90.7932 -5.68305 89.9048 -5.45926ZM99.5144 -4.815L95.1945 -4.815Q95.2962 -2.78727 95.7642 -1.926Q96.3474 -0.868056 97.3579 -0.868056Q98.3751 -0.868056 98.938 -1.93278Q99.4331 -2.86865 99.5144 -4.815ZM99.4941 -5.96788Q99.3042 -7.89388 98.938 -8.57205Q98.3548 -9.64355 97.3579 -9.64355Q96.3203 -9.64355 95.7709 -8.58561Q95.3369 -7.73112 95.2081 -5.96788L99.4941 -5.96788ZM97.3579 -10.6608Q98.9855 -10.6608 99.9146 -9.22309Q100.844 -7.79215 100.844 -5.25581Q100.844 -2.72624 99.9146 -1.28852Q98.9855 0.155979 97.3579 0.155979Q95.7235 0.155979 94.8012 -1.28852Q93.8721 -2.72624 93.8721 -5.25581Q93.8721 -7.79215 94.8012 -9.22309Q95.7235 -10.6608 97.3579 -10.6608ZM102.715 -10.5387L103.8 -10.5387Q104.818 -8.93826 105.323 -7.4056Q105.828 -5.87294 105.828 -4.36062Q105.828 -2.84153 105.323 -1.30208Q104.818 0.237359 103.8 1.83105L102.715 1.83105Q103.617 0.278049 104.062 -1.258Q104.506 -2.79405 104.506 -4.36062Q104.506 -5.92719 104.062 -7.45307Q103.617 -8.97895 102.715 -10.5387Z" fill="#262626" transform="translate(414.9782409667968,98.72222222222223)" />
</g>
</svg>
