<svg xmlns="http://www.w3.org/2000/svg" viewBox="0 0 900 450" width="900" height="450" role="img" aria-labelledby="chart-title">
<title id="chart-title">PropCycler — four series, cycling color + line style</title>
<rect x="0" y="0" width="900" height="450" fill="#FFFFFF" />
<text x="450" y="25" font-family="sans-serif" font-size="17" text-anchor="middle" font-weight="bold" fill="#000000">PropCycler — four series, cycling color + line style</text>
<rect x="60" y="70" width="820" height="330" fill="#FFFFFF" />
<line x1="97.27272727272728" y1="70" x2="97.27272727272728" y2="400" stroke="#B0B0B0" stroke-width="0.8" />
<line x1="223.62095531587056" y1="70" x2="223.62095531587056" y2="400" stroke="#B0B0B0" stroke-width="0.8" />
<line x1="349.96918335901387" y1="70" x2="349.96918335901387" y2="400" stroke="#B0B0B0" stroke-width="0.8" />
<line x1="476.3174114021572" y1="70" x2="476.3174114021572" y2="400" stroke="#B0B0B0" stroke-width="0.8" />
<line x1="602.6656394453005" y1="70" x2="602.6656394453005" y2="400" stroke="#B0B0B0" stroke-width="0.8" />
<line x1="729.0138674884437" y1="70" x2="729.0138674884437" y2="400" stroke="#B0B0B0" stroke-width="0.8" />
<line x1="855.362095531587" y1="70" x2="855.362095531587" y2="400" stroke="#B0B0B0" stroke-width="0.8" />
<line x1="60" y1="385.00146933785004" x2="880" y2="385.00146933785004" stroke="#B0B0B0" stroke-width="0.8" />
<line x1="60" y1="309.98510862936575" x2="880" y2="309.98510862936575" stroke="#B0B0B0" stroke-width="0.8" />
<line x1="60" y1="234.96874792088155" x2="880" y2="234.96874792088155" stroke="#B0B0B0" stroke-width="0.8" />
<line x1="60" y1="159.95238721239733" x2="880" y2="159.95238721239733" stroke="#B0B0B0" stroke-width="0.8" />
<line x1="60" y1="84.9360265039131" x2="880" y2="84.9360265039131" stroke="#B0B0B0" stroke-width="0.8" />
<line x1="97.27272727272728" y1="399.6" x2="97.27272727272728" y2="403.5" stroke="#000000" stroke-width="0.8" />
<text x="97.27272727272728" y="419.5" font-family="sans-serif" font-size="13" text-anchor="middle" fill="#000000">0</text>
<line x1="223.62095531587056" y1="399.6" x2="223.62095531587056" y2="403.5" stroke="#000000" stroke-width="0.8" />
<text x="223.62095531587056" y="419.5" font-family="sans-serif" font-size="13" text-anchor="middle" fill="#000000">2</text>
<line x1="349.96918335901387" y1="399.6" x2="349.96918335901387" y2="403.5" stroke="#000000" stroke-width="0.8" />
<text x="349.96918335901387" y="419.5" font-family="sans-serif" font-size="13" text-anchor="middle" fill="#000000">4</text>
<line x1="476.3174114021572" y1="399.6" x2="476.3174114021572" y2="403.5" stroke="#000000" stroke-width="0.8" />
<text x="476.3174114021572" y="419.5" font-family="sans-serif" font-size="13" text-anchor="middle" fill="#000000">6</text>
<line x1="602.6656394453005" y1="399.6" x2="602.6656394453005" y2="403.5" stroke="#000000" stroke-width="0.8" />
<text x="602.6656394453005" y="419.5" font-family="sans-serif" font-size="13" text-anchor="middle" fill="#000000">8</text>
<line x1="729.0138674884437" y1="399.6" x2="729.0138674884437" y2="403.5" stroke="#000000" stroke-width="0.8" />
<text x="729.0138674884437" y="419.5" font-family="sans-serif" font-size="13" text-anchor="middle" fill="#000000">10</text>
<line x1="855.362095531587" y1="399.6" x2="855.362095531587" y2="403.5" stroke="#000000" stroke-width="0.8" />
<text x="855.362095531587" y="419.5" font-family="sans-serif" font-size="13" text-anchor="middle" fill="#000000">12</text>
<line x1="72.00308166409862" y1="399.6" x2="72.00308166409862" y2="403.5" stroke="#000000" stroke-width="0.8" />
<line x1="122.54237288135594" y1="399.6" x2="122.54237288135594" y2="403.5" stroke="#000000" stroke-width="0.8" />
<line x1="147.8120184899846" y1="399.6" x2="147.8120184899846" y2="403.5" stroke="#000000" stroke-width="0.8" />
<line x1="173.08166409861326" y1="399.6" x2="173.08166409861326" y2="403.5" stroke="#000000" stroke-width="0.8" />
<line x1="198.3513097072419" y1="399.6" x2="198.3513097072419" y2="403.5" stroke="#000000" stroke-width="0.8" />
<line x1="248.89060092449924" y1="399.6" x2="248.89060092449924" y2="403.5" stroke="#000000" stroke-width="0.8" />
<line x1="274.16024653312786" y1="399.6" x2="274.16024653312786" y2="403.5" stroke="#000000" stroke-width="0.8" />
<line x1="299.42989214175657" y1="399.6" x2="299.42989214175657" y2="403.5" stroke="#000000" stroke-width="0.8" />
<line x1="324.6995377503852" y1="399.6" x2="324.6995377503852" y2="403.5" stroke="#000000" stroke-width="0.8" />
<line x1="375.2388289676426" y1="399.6" x2="375.2388289676426" y2="403.5" stroke="#000000" stroke-width="0.8" />
<line x1="400.50847457627117" y1="399.6" x2="400.50847457627117" y2="403.5" stroke="#000000" stroke-width="0.8" />
<line x1="425.7781201848999" y1="399.6" x2="425.7781201848999" y2="403.5" stroke="#000000" stroke-width="0.8" />
<line x1="451.04776579352847" y1="399.6" x2="451.04776579352847" y2="403.5" stroke="#000000" stroke-width="0.8" />
<line x1="501.5870570107859" y1="399.6" x2="501.5870570107859" y2="403.5" stroke="#000000" stroke-width="0.8" />
<line x1="526.8567026194145" y1="399.6" x2="526.8567026194145" y2="403.5" stroke="#000000" stroke-width="0.8" />
<line x1="552.1263482280432" y1="399.6" x2="552.1263482280432" y2="403.5" stroke="#000000" stroke-width="0.8" />
<line x1="577.3959938366718" y1="399.6" x2="577.3959938366718" y2="403.5" stroke="#000000" stroke-width="0.8" />
<line x1="627.9352850539291" y1="399.6" x2="627.9352850539291" y2="403.5" stroke="#000000" stroke-width="0.8" />
<line x1="653.2049306625578" y1="399.6" x2="653.2049306625578" y2="403.5" stroke="#000000" stroke-width="0.8" />
<line x1="678.4745762711864" y1="399.6" x2="678.4745762711864" y2="403.5" stroke="#000000" stroke-width="0.8" />
<line x1="703.7442218798151" y1="399.6" x2="703.7442218798151" y2="403.5" stroke="#000000" stroke-width="0.8" />
<line x1="754.2835130970724" y1="399.6" x2="754.2835130970724" y2="403.5" stroke="#000000" stroke-width="0.8" />
<line x1="779.5531587057011" y1="399.6" x2="779.5531587057011" y2="403.5" stroke="#000000" stroke-width="0.8" />
<line x1="804.8228043143297" y1="399.6" x2="804.8228043143297" y2="403.5" stroke="#000000" stroke-width="0.8" />
<line x1="830.0924499229583" y1="399.6" x2="830.0924499229583" y2="403.5" stroke="#000000" stroke-width="0.8" />
<line x1="381.50146933785004" y1="60" x2="385.40146933785" y2="60" stroke="#000000" stroke-width="0.8" />
<text x="53.5" y="389.00146933785004" font-family="sans-serif" font-size="13" text-anchor="end" fill="#000000">-1</text>
<line x1="306.48510862936575" y1="60" x2="310.38510862936573" y2="60" stroke="#000000" stroke-width="0.8" />
<text x="53.5" y="313.98510862936575" font-family="sans-serif" font-size="13" text-anchor="end" fill="#000000">-0.5</text>
<line x1="231.46874792088155" y1="60" x2="235.36874792088156" y2="60" stroke="#000000" stroke-width="0.8" />
<text x="53.5" y="238.96874792088155" font-family="sans-serif" font-size="13" text-anchor="end" fill="#000000">0</text>
<line x1="156.45238721239733" y1="60" x2="160.35238721239733" y2="60" stroke="#000000" stroke-width="0.8" />
<text x="53.5" y="163.95238721239733" font-family="sans-serif" font-size="13" text-anchor="end" fill="#000000">0.5</text>
<line x1="81.4360265039131" y1="60" x2="85.3360265039131" y2="60" stroke="#000000" stroke-width="0.8" />
<text x="53.5" y="88.9360265039131" font-family="sans-serif" font-size="13" text-anchor="end" fill="#000000">1</text>
<line x1="366.49819719615317" y1="60" x2="370.39819719615315" y2="60" stroke="#000000" stroke-width="0.8" />
<line x1="351.4949250544563" y1="60" x2="355.3949250544563" y2="60" stroke="#000000" stroke-width="0.8" />
<line x1="336.4916529127595" y1="60" x2="340.39165291275947" y2="60" stroke="#000000" stroke-width="0.8" />
<line x1="321.4883807710626" y1="60" x2="325.3883807710626" y2="60" stroke="#000000" stroke-width="0.8" />
<line x1="291.48183648766894" y1="60" x2="295.3818364876689" y2="60" stroke="#000000" stroke-width="0.8" />
<line x1="276.4785643459721" y1="60" x2="280.37856434597205" y2="60" stroke="#000000" stroke-width="0.8" />
<line x1="261.47529220427526" y1="60" x2="265.37529220427524" y2="60" stroke="#000000" stroke-width="0.8" />
<line x1="246.4720200625784" y1="60" x2="250.3720200625784" y2="60" stroke="#000000" stroke-width="0.8" />
<line x1="216.46547577918471" y1="60" x2="220.36547577918472" y2="60" stroke="#000000" stroke-width="0.8" />
<line x1="201.46220363748785" y1="60" x2="205.36220363748785" y2="60" stroke="#000000" stroke-width="0.8" />
<line x1="186.45893149579103" y1="60" x2="190.35893149579104" y2="60" stroke="#000000" stroke-width="0.8" />
<line x1="171.45565935409417" y1="60" x2="175.35565935409417" y2="60" stroke="#000000" stroke-width="0.8" />
<line x1="141.4491150707005" y1="60" x2="145.3491150707005" y2="60" stroke="#000000" stroke-width="0.8" />
<line x1="126.44584292900365" y1="60" x2="130.34584292900365" y2="60" stroke="#000000" stroke-width="0.8" />
<line x1="111.44257078730678" y1="60" x2="115.34257078730678" y2="60" stroke="#000000" stroke-width="0.8" />
<line x1="96.43929864560994" y1="60" x2="100.33929864560994" y2="60" stroke="#000000" stroke-width="0.8" />
<g class="series" aria-label="sin(x)">
<polyline points="97.27272727272728,234.96874792088155 109.9075500770416,205.16184755961058 122.54237288135594,176.54325425463014 135.17719568567028,150.25390100981616 147.8120184899846,127.34186137818796 160.44684129429893,108.72056607673632 173.08166409861326,95.13238738623477 185.71648690292758,87.1190431110961 198.3513097072419,85 210.98613251155624,88.85973761475857 223.62095531587056,98.5443803967778 236.2557781201849,113.66783219999616 248.89060092449927,133.6271687258313 261.52542372881356,157.62667421232675 274.1602465331279,184.7095641105551 286.7950693374422,213.79612906527515 299.42989214175657,243.72677951970584 312.0647149460709,273.30827489185833 324.6995377503852,301.36129431105155 337.3343605546996,326.7674524194644 349.96918335901387,348.51388586708254 362.6040061633282,365.7336329771885 375.2388289676426,377.74019677255677 387.8736517719569,384.0549134435689 400.5084745762712,384.42603516379256 413.1432973805855,378.83876648138477 425.7781201848999,367.51585416706706 438.4129429892142,350.9087070032954 451.0477657935285,329.6793995406058 463.6825885978429,304.6742772745821 476.3174114021572,276.89021552174444 488.95223420647153,247.43487714650126 501.5870570107858,217.48255353817825 514.2218798151002,188.2273493190163 526.8567026194145,160.83557716109792 539.4915254237288,136.39926058062383 552.1263482280432,115.89259840640112 564.7611710323575,100.13312654680153 577.3959938366718,89.74912541297806 590.0308166409861,85.15457236152572 602.6656394453005,86.53263772365534 615.3004622496148,93.82838238211558 627.9352850539292,106.75094802042713 640.5701078582434,124.78515272610458 653.2049306625578,147.21202966775667 665.8397534668721,173.13749003382208 678.4745762711865,201.52796753202733 691.1093990755007,231.25162341585107 703.7442218798152,261.12346932362595 716.3790446841294,289.9526090250693 729.0138674884438,316.5897156958961 741.6486902927581,339.97285195139153 754.2835130970724,359.1698059388021 766.9183359013869,373.4152556821415 779.5531587057011,382.14128005425874 792.1879815100154,385 804.8228043143298,381.8774473763409 817.457627118644,372.89810850260216 830.0924499229585,358.4199612837373 842.7272727272727,339.02020376092696" fill="none" stroke="#1F77B4" stroke-width="1.5" />
</g>
<g class="series" aria-label="sin(x+1)">
<polyline points="97.27272727272728,108.72056607673632 109.9075500770416,95.13238738623478 122.54237288135594,87.11904311109613 135.17719568567028,85 147.8120184899846,88.85973761475857 160.44684129429893,98.5443803967778 173.08166409861326,113.66783219999616 185.71648690292758,133.6271687258313 198.3513097072419,157.62667421232675 210.98613251155624,184.70956411055505 223.62095531587056,213.79612906527515 236.2557781201849,243.72677951970584 248.89060092449927,273.30827489185833 261.52542372881356,301.36129431105155 274.1602465331279,326.7674524194644 286.7950693374422,348.51388586708254 299.42989214175657,365.7336329771885 312.0647149460709,377.74019677255677 324.6995377503852,384.0549134435689 337.3343605546996,384.42603516379256 349.96918335901387,378.83876648138477 362.6040061633282,367.51585416706706 375.2388289676426,350.9087070032954 387.8736517719569,329.6793995406058 400.5084745762712,304.6742772745821 413.1432973805855,276.89021552174444 425.7781201848999,247.43487714650126 438.4129429892142,217.48255353817825 451.0477657935285,188.2273493190163 463.6825885978429,160.83557716109792 476.3174114021572,136.39926058062383 488.95223420647153,115.89259840640112 501.5870570107858,100.13312654680153 514.2218798151002,89.74912541297806 526.8567026194145,85.15457236152572 539.4915254237288,86.53263772365534 552.1263482280432,93.82838238211549 564.7611710323575,106.75094802042713 577.3959938366718,124.78515272610476 590.0308166409861,147.21202966775667 602.6656394453005,173.13749003382208 615.3004622496148,201.52796753202733 627.9352850539292,231.25162341585107 640.5701078582434,261.12346932362567 653.2049306625578,289.9526090250693 665.8397534668721,316.5897156958961 678.4745762711865,339.97285195139153 691.1093990755007,359.1698059388021 703.7442218798152,373.4152556821415 716.3790446841294,382.14128005425874 729.0138674884438,385 741.6486902927581,381.8774473763409 754.2835130970724,372.89810850260216 766.9183359013869,358.4199612837373 779.5531587057011,339.02020376092696 792.1879815100154,315.4722430471307 804.8228043143298,288.71486202612 817.457627118644,259.8147930414045 830.0924499229585,229.9241906439629 842.7272727272727,200.23469882613128" fill="none" stroke="#FFA500" stroke-width="1.5" />
</g>
<g class="series" aria-label="sin(x+2)">
<polyline points="97.27272727272728,98.5443803967778 109.9075500770416,113.66783219999616 122.54237288135594,133.62716872583127 135.17719568567028,157.62667421232675 147.8120184899846,184.70956411055505 160.44684129429893,213.79612906527515 173.08166409861326,243.72677951970584 185.71648690292758,273.30827489185833 198.3513097072419,301.36129431105155 210.98613251155624,326.76745241946435 223.62095531587056,348.51388586708254 236.2557781201849,365.7336329771885 248.89060092449927,377.74019677255677 261.52542372881356,384.0549134435689 274.1602465331279,384.42603516379256 286.7950693374422,378.83876648138477 299.42989214175657,367.51585416706706 312.0647149460709,350.9087070032954 324.6995377503852,329.6793995406059 337.3343605546996,304.6742772745821 349.96918335901387,276.89021552174444 362.6040061633282,247.43487714650126 375.2388289676426,217.48255353817825 387.8736517719569,188.2273493190163 400.5084745762712,160.83557716109792 413.1432973805855,136.39926058062383 425.7781201848999,115.89259840640112 438.4129429892142,100.13312654680153 451.0477657935285,89.74912541297806 463.6825885978429,85.15457236152572 476.3174114021572,86.53263772365534 488.95223420647153,93.82838238211549 501.5870570107858,106.75094802042713 514.2218798151002,124.78515272610476 526.8567026194145,147.21202966775667 539.4915254237288,173.13749003382208 552.1263482280432,201.52796753202708 564.7611710323575,231.25162341585107 577.3959938366718,261.12346932362595 590.0308166409861,289.9526090250693 602.6656394453005,316.5897156958961 615.3004622496148,339.97285195139153 627.9352850539292,359.1698059388021 640.5701078582434,373.4152556821414 653.2049306625578,382.14128005425874 665.8397534668721,385 678.4745762711865,381.8774473763409 691.1093990755007,372.89810850260216 703.7442218798152,358.4199612837373 716.3790446841294,339.02020376092696 729.0138674884438,315.4722430471307 741.6486902927581,288.71486202612 754.2835130970724,259.8147930414045 766.9183359013869,229.9241906439629 779.5531587057011,200.23469882613128 792.1879815100154,171.92994393607702 804.8228043143298,146.13834723044718 817.457627118644,123.88813827980573 830.0924499229585,106.06636270041975 842.7272727272727,93.38351844477464" fill="none" stroke="#008000" stroke-width="1.5" />
</g>
<g class="series" aria-label="sin(x+3)">
<polyline points="97.27272727272728,213.79612906527515 109.9075500770416,243.72677951970584 122.54237288135594,273.3082748918582 135.17719568567028,301.36129431105155 147.8120184899846,326.76745241946435 160.44684129429893,348.51388586708254 173.08166409861326,365.7336329771885 185.71648690292758,377.74019677255677 198.3513097072419,384.0549134435689 210.98613251155624,384.4260351637926 223.62095531587056,378.83876648138477 236.2557781201849,367.51585416706706 248.89060092449927,350.9087070032954 261.52542372881356,329.6793995406059 274.1602465331279,304.6742772745821 286.7950693374422,276.89021552174444 299.42989214175657,247.43487714650126 312.0647149460709,217.48255353817825 324.6995377503852,188.22734931901644 337.3343605546996,160.83557716109792 349.96918335901387,136.39926058062383 362.6040061633282,115.89259840640112 375.2388289676426,100.13312654680153 387.8736517719569,89.74912541297806 400.5084745762712,85.15457236152572 413.1432973805855,86.53263772365534 425.7781201848999,93.82838238211549 438.4129429892142,106.75094802042713 451.0477657935285,124.78515272610476 463.6825885978429,147.21202966775667 476.3174114021572,173.13749003382208 488.95223420647153,201.52796753202708 501.5870570107858,231.25162341585107 514.2218798151002,261.12346932362595 526.8567026194145,289.9526090250693 539.4915254237288,316.5897156958961 552.1263482280432,339.9728519513913 564.7611710323575,359.1698059388021 577.3959938366718,373.4152556821415 590.0308166409861,382.14128005425874 602.6656394453005,385 615.3004622496148,381.8774473763409 627.9352850539292,372.89810850260216 640.5701078582434,358.41996128373745 653.2049306625578,339.02020376092696 665.8397534668721,315.4722430471307 678.4745762711865,288.71486202612 691.1093990755007,259.8147930414045 703.7442218798152,229.9241906439629 716.3790446841294,200.23469882613128 729.0138674884438,171.92994393607702 741.6486902927581,146.13834723044718 754.2835130970724,123.88813827980573 766.9183359013869,106.06636270041975 779.5531587057011,93.38351844477464 792.1879815100154,86.34523049031328 804.8228043143298,85.23209316717815 817.457627118644,90.08848374773464 830.0924499229585,100.72079326476273 842.7272727272727,116.70514509001127" fill="none" stroke="#FF0000" stroke-width="1.5" />
</g>
<g class="spine">
<line x1="60" y1="400" x2="880" y2="400" stroke="#000000" stroke-width="0.8" />
</g>
<g class="spine">
<line x1="60" y1="70" x2="880" y2="70" stroke="#000000" stroke-width="0.8" />
</g>
<g class="spine">
<line x1="60" y1="70" x2="60" y2="400" stroke="#000000" stroke-width="0.8" />
</g>
<g class="spine">
<line x1="880" y1="70" x2="880" y2="400" stroke="#000000" stroke-width="0.8" />
</g>
<rect x="787.12" y="80" width="82.88" height="83.5" fill="#FFFFFF" fill-opacity="0.8" stroke="#000000" stroke-width="0.5" />
<g class="legend" aria-label="Chart legend">
<rect x="795.12" y="88" width="12" height="12" fill="#1F77B4" />
<text x="813.12" y="99" font-family="sans-serif" font-size="13" text-anchor="start" fill="#000000">sin(x)</text>
<rect x="795.12" y="106.5" width="12" height="12" fill="#FFA500" />
<text x="813.12" y="117.5" font-family="sans-serif" font-size="13" text-anchor="start" fill="#000000">sin(x+1)</text>
<rect x="795.12" y="125" width="12" height="12" fill="#008000" />
<text x="813.12" y="136" font-family="sans-serif" font-size="13" text-anchor="start" fill="#000000">sin(x+2)</text>
<rect x="795.12" y="143.5" width="12" height="12" fill="#FF0000" />
<text x="813.12" y="154.5" font-family="sans-serif" font-size="13" text-anchor="start" fill="#000000">sin(x+3)</text>
</g>
<text x="470" y="435" font-family="sans-serif" font-size="13" text-anchor="middle" fill="#000000">x</text>
<text x="15" y="235" font-family="sans-serif" font-size="13" text-anchor="middle" transform="rotate(-90,15,235)" fill="#000000">f(x)</text>
</svg>
