<svg xmlns="http://www.w3.org/2000/svg" viewBox="0 0 900 450" width="900" height="450" role="img" aria-labelledby="chart-title">
<title id="chart-title">PropCycler — four series, cycling color + line style</title>
<rect x="0" y="0" width="900" height="450" fill="#FFFFFF" />
<text x="450" y="23.299999999999997" font-family="sans-serif" font-size="17" text-anchor="middle" font-weight="bold" fill="#000000">PropCycler — four series, cycling color + line style</text>
<rect x="60" y="40.4" width="820" height="359.6" fill="#FFFFFF" />
<line x1="97.27272727272728" y1="40.4" x2="97.27272727272728" y2="400" stroke="#B0B0B0" stroke-width="0.8" />
<line x1="223.62095531587056" y1="40.4" x2="223.62095531587056" y2="400" stroke="#B0B0B0" stroke-width="0.8" />
<line x1="349.96918335901387" y1="40.4" x2="349.96918335901387" y2="400" stroke="#B0B0B0" stroke-width="0.8" />
<line x1="476.3174114021572" y1="40.4" x2="476.3174114021572" y2="400" stroke="#B0B0B0" stroke-width="0.8" />
<line x1="602.6656394453005" y1="40.4" x2="602.6656394453005" y2="400" stroke="#B0B0B0" stroke-width="0.8" />
<line x1="729.0138674884437" y1="40.4" x2="729.0138674884437" y2="400" stroke="#B0B0B0" stroke-width="0.8" />
<line x1="855.362095531587" y1="40.4" x2="855.362095531587" y2="400" stroke="#B0B0B0" stroke-width="0.8" />
<line x1="60" y1="383.65614658754805" x2="880" y2="383.65614658754805" stroke="#B0B0B0" stroke-width="0.8" />
<line x1="60" y1="350.95810621085604" x2="880" y2="350.95810621085604" stroke="#B0B0B0" stroke-width="0.8" />
<line x1="60" y1="318.260065834164" x2="880" y2="318.260065834164" stroke="#B0B0B0" stroke-width="0.8" />
<line x1="60" y1="285.5620254574719" x2="880" y2="285.5620254574719" stroke="#B0B0B0" stroke-width="0.8" />
<line x1="60" y1="252.86398508077988" x2="880" y2="252.86398508077988" stroke="#B0B0B0" stroke-width="0.8" />
<line x1="60" y1="220.16594470408785" x2="880" y2="220.16594470408785" stroke="#B0B0B0" stroke-width="0.8" />
<line x1="60" y1="187.46790432739581" x2="880" y2="187.46790432739581" stroke="#B0B0B0" stroke-width="0.8" />
<line x1="60" y1="154.76986395070378" x2="880" y2="154.76986395070378" stroke="#B0B0B0" stroke-width="0.8" />
<line x1="60" y1="122.07182357401173" x2="880" y2="122.07182357401173" stroke="#B0B0B0" stroke-width="0.8" />
<line x1="60" y1="89.37378319731968" x2="880" y2="89.37378319731968" stroke="#B0B0B0" stroke-width="0.8" />
<line x1="60" y1="56.67574282062765" x2="880" y2="56.67574282062765" stroke="#B0B0B0" stroke-width="0.8" />
<line x1="97.27272727272728" y1="399.6" x2="97.27272727272728" y2="404.8611111111111" stroke="#000000" stroke-width="1.1111111111111112" />
<text x="97.27272727272728" y="422.7222222222222" font-family="sans-serif" font-size="13" text-anchor="middle" fill="#000000">0</text>
<line x1="223.62095531587056" y1="399.6" x2="223.62095531587056" y2="404.8611111111111" stroke="#000000" stroke-width="1.1111111111111112" />
<text x="223.62095531587056" y="422.7222222222222" font-family="sans-serif" font-size="13" text-anchor="middle" fill="#000000">2</text>
<line x1="349.96918335901387" y1="399.6" x2="349.96918335901387" y2="404.8611111111111" stroke="#000000" stroke-width="1.1111111111111112" />
<text x="349.96918335901387" y="422.7222222222222" font-family="sans-serif" font-size="13" text-anchor="middle" fill="#000000">4</text>
<line x1="476.3174114021572" y1="399.6" x2="476.3174114021572" y2="404.8611111111111" stroke="#000000" stroke-width="1.1111111111111112" />
<text x="476.3174114021572" y="422.7222222222222" font-family="sans-serif" font-size="13" text-anchor="middle" fill="#000000">6</text>
<line x1="602.6656394453005" y1="399.6" x2="602.6656394453005" y2="404.8611111111111" stroke="#000000" stroke-width="1.1111111111111112" />
<text x="602.6656394453005" y="422.7222222222222" font-family="sans-serif" font-size="13" text-anchor="middle" fill="#000000">8</text>
<line x1="729.0138674884437" y1="399.6" x2="729.0138674884437" y2="404.8611111111111" stroke="#000000" stroke-width="1.1111111111111112" />
<text x="729.0138674884437" y="422.7222222222222" font-family="sans-serif" font-size="13" text-anchor="middle" fill="#000000">10</text>
<line x1="855.362095531587" y1="399.6" x2="855.362095531587" y2="404.8611111111111" stroke="#000000" stroke-width="1.1111111111111112" />
<text x="855.362095531587" y="422.7222222222222" font-family="sans-serif" font-size="13" text-anchor="middle" fill="#000000">12</text>
<line x1="72.00308166409862" y1="399.6" x2="72.00308166409862" y2="404.8611111111111" stroke="#000000" stroke-width="1.1111111111111112" />
<line x1="122.54237288135594" y1="399.6" x2="122.54237288135594" y2="404.8611111111111" stroke="#000000" stroke-width="1.1111111111111112" />
<line x1="147.8120184899846" y1="399.6" x2="147.8120184899846" y2="404.8611111111111" stroke="#000000" stroke-width="1.1111111111111112" />
<line x1="173.08166409861326" y1="399.6" x2="173.08166409861326" y2="404.8611111111111" stroke="#000000" stroke-width="1.1111111111111112" />
<line x1="198.3513097072419" y1="399.6" x2="198.3513097072419" y2="404.8611111111111" stroke="#000000" stroke-width="1.1111111111111112" />
<line x1="248.89060092449924" y1="399.6" x2="248.89060092449924" y2="404.8611111111111" stroke="#000000" stroke-width="1.1111111111111112" />
<line x1="274.16024653312786" y1="399.6" x2="274.16024653312786" y2="404.8611111111111" stroke="#000000" stroke-width="1.1111111111111112" />
<line x1="299.42989214175657" y1="399.6" x2="299.42989214175657" y2="404.8611111111111" stroke="#000000" stroke-width="1.1111111111111112" />
<line x1="324.6995377503852" y1="399.6" x2="324.6995377503852" y2="404.8611111111111" stroke="#000000" stroke-width="1.1111111111111112" />
<line x1="375.2388289676426" y1="399.6" x2="375.2388289676426" y2="404.8611111111111" stroke="#000000" stroke-width="1.1111111111111112" />
<line x1="400.50847457627117" y1="399.6" x2="400.50847457627117" y2="404.8611111111111" stroke="#000000" stroke-width="1.1111111111111112" />
<line x1="425.7781201848999" y1="399.6" x2="425.7781201848999" y2="404.8611111111111" stroke="#000000" stroke-width="1.1111111111111112" />
<line x1="451.04776579352847" y1="399.6" x2="451.04776579352847" y2="404.8611111111111" stroke="#000000" stroke-width="1.1111111111111112" />
<line x1="501.5870570107859" y1="399.6" x2="501.5870570107859" y2="404.8611111111111" stroke="#000000" stroke-width="1.1111111111111112" />
<line x1="526.8567026194145" y1="399.6" x2="526.8567026194145" y2="404.8611111111111" stroke="#000000" stroke-width="1.1111111111111112" />
<line x1="552.1263482280432" y1="399.6" x2="552.1263482280432" y2="404.8611111111111" stroke="#000000" stroke-width="1.1111111111111112" />
<line x1="577.3959938366718" y1="399.6" x2="577.3959938366718" y2="404.8611111111111" stroke="#000000" stroke-width="1.1111111111111112" />
<line x1="627.9352850539291" y1="399.6" x2="627.9352850539291" y2="404.8611111111111" stroke="#000000" stroke-width="1.1111111111111112" />
<line x1="653.2049306625578" y1="399.6" x2="653.2049306625578" y2="404.8611111111111" stroke="#000000" stroke-width="1.1111111111111112" />
<line x1="678.4745762711864" y1="399.6" x2="678.4745762711864" y2="404.8611111111111" stroke="#000000" stroke-width="1.1111111111111112" />
<line x1="703.7442218798151" y1="399.6" x2="703.7442218798151" y2="404.8611111111111" stroke="#000000" stroke-width="1.1111111111111112" />
<line x1="754.2835130970724" y1="399.6" x2="754.2835130970724" y2="404.8611111111111" stroke="#000000" stroke-width="1.1111111111111112" />
<line x1="779.5531587057011" y1="399.6" x2="779.5531587057011" y2="404.8611111111111" stroke="#000000" stroke-width="1.1111111111111112" />
<line x1="804.8228043143297" y1="399.6" x2="804.8228043143297" y2="404.8611111111111" stroke="#000000" stroke-width="1.1111111111111112" />
<line x1="830.0924499229583" y1="399.6" x2="830.0924499229583" y2="404.8611111111111" stroke="#000000" stroke-width="1.1111111111111112" />
<line x1="55.138888888888886" y1="383.65614658754805" x2="60.4" y2="383.65614658754805" stroke="#000000" stroke-width="1.1111111111111112" />
<text x="50.27777777777777" y="387.65614658754805" font-family="sans-serif" font-size="13" text-anchor="end" fill="#000000">-1</text>
<line x1="55.138888888888886" y1="350.95810621085604" x2="60.4" y2="350.95810621085604" stroke="#000000" stroke-width="1.1111111111111112" />
<text x="50.27777777777777" y="354.95810621085604" font-family="sans-serif" font-size="13" text-anchor="end" fill="#000000">-0.8</text>
<line x1="55.138888888888886" y1="318.260065834164" x2="60.4" y2="318.260065834164" stroke="#000000" stroke-width="1.1111111111111112" />
<text x="50.27777777777777" y="322.260065834164" font-family="sans-serif" font-size="13" text-anchor="end" fill="#000000">-0.6</text>
<line x1="55.138888888888886" y1="285.5620254574719" x2="60.4" y2="285.5620254574719" stroke="#000000" stroke-width="1.1111111111111112" />
<text x="50.27777777777777" y="289.5620254574719" font-family="sans-serif" font-size="13" text-anchor="end" fill="#000000">-0.4</text>
<line x1="55.138888888888886" y1="252.86398508077988" x2="60.4" y2="252.86398508077988" stroke="#000000" stroke-width="1.1111111111111112" />
<text x="50.27777777777777" y="256.8639850807799" font-family="sans-serif" font-size="13" text-anchor="end" fill="#000000">-0.2</text>
<line x1="55.138888888888886" y1="220.16594470408785" x2="60.4" y2="220.16594470408785" stroke="#000000" stroke-width="1.1111111111111112" />
<text x="50.27777777777777" y="224.16594470408785" font-family="sans-serif" font-size="13" text-anchor="end" fill="#000000">0</text>
<line x1="55.138888888888886" y1="187.46790432739581" x2="60.4" y2="187.46790432739581" stroke="#000000" stroke-width="1.1111111111111112" />
<text x="50.27777777777777" y="191.46790432739581" font-family="sans-serif" font-size="13" text-anchor="end" fill="#000000">0.2</text>
<line x1="55.138888888888886" y1="154.76986395070378" x2="60.4" y2="154.76986395070378" stroke="#000000" stroke-width="1.1111111111111112" />
<text x="50.27777777777777" y="158.76986395070378" font-family="sans-serif" font-size="13" text-anchor="end" fill="#000000">0.4</text>
<line x1="55.138888888888886" y1="122.07182357401173" x2="60.4" y2="122.07182357401173" stroke="#000000" stroke-width="1.1111111111111112" />
<text x="50.27777777777777" y="126.07182357401173" font-family="sans-serif" font-size="13" text-anchor="end" fill="#000000">0.6</text>
<line x1="55.138888888888886" y1="89.37378319731968" x2="60.4" y2="89.37378319731968" stroke="#000000" stroke-width="1.1111111111111112" />
<text x="50.27777777777777" y="93.37378319731968" font-family="sans-serif" font-size="13" text-anchor="end" fill="#000000">0.8</text>
<line x1="55.138888888888886" y1="56.67574282062765" x2="60.4" y2="56.67574282062765" stroke="#000000" stroke-width="1.1111111111111112" />
<text x="50.27777777777777" y="60.67574282062765" font-family="sans-serif" font-size="13" text-anchor="end" fill="#000000">1</text>
<line x1="55.138888888888886" y1="396.73536273822486" x2="60.4" y2="396.73536273822486" stroke="#000000" stroke-width="1.1111111111111112" />
<line x1="55.138888888888886" y1="390.19575466288643" x2="60.4" y2="390.19575466288643" stroke="#000000" stroke-width="1.1111111111111112" />
<line x1="55.138888888888886" y1="377.1165385122097" x2="60.4" y2="377.1165385122097" stroke="#000000" stroke-width="1.1111111111111112" />
<line x1="55.138888888888886" y1="370.57693043687124" x2="60.4" y2="370.57693043687124" stroke="#000000" stroke-width="1.1111111111111112" />
<line x1="55.138888888888886" y1="364.0373223615328" x2="60.4" y2="364.0373223615328" stroke="#000000" stroke-width="1.1111111111111112" />
<line x1="55.138888888888886" y1="357.4977142861944" x2="60.4" y2="357.4977142861944" stroke="#000000" stroke-width="1.1111111111111112" />
<line x1="55.138888888888886" y1="344.4184981355176" x2="60.4" y2="344.4184981355176" stroke="#000000" stroke-width="1.1111111111111112" />
<line x1="55.138888888888886" y1="337.8788900601792" x2="60.4" y2="337.8788900601792" stroke="#000000" stroke-width="1.1111111111111112" />
<line x1="55.138888888888886" y1="331.3392819848408" x2="60.4" y2="331.3392819848408" stroke="#000000" stroke-width="1.1111111111111112" />
<line x1="55.138888888888886" y1="324.79967390950236" x2="60.4" y2="324.79967390950236" stroke="#000000" stroke-width="1.1111111111111112" />
<line x1="55.138888888888886" y1="311.72045775882555" x2="60.4" y2="311.72045775882555" stroke="#000000" stroke-width="1.1111111111111112" />
<line x1="55.138888888888886" y1="305.18084968348717" x2="60.4" y2="305.18084968348717" stroke="#000000" stroke-width="1.1111111111111112" />
<line x1="55.138888888888886" y1="298.64124160814873" x2="60.4" y2="298.64124160814873" stroke="#000000" stroke-width="1.1111111111111112" />
<line x1="55.138888888888886" y1="292.10163353281035" x2="60.4" y2="292.10163353281035" stroke="#000000" stroke-width="1.1111111111111112" />
<line x1="55.138888888888886" y1="279.02241738213354" x2="60.4" y2="279.02241738213354" stroke="#000000" stroke-width="1.1111111111111112" />
<line x1="55.138888888888886" y1="272.4828093067951" x2="60.4" y2="272.4828093067951" stroke="#000000" stroke-width="1.1111111111111112" />
<line x1="55.138888888888886" y1="265.9432012314567" x2="60.4" y2="265.9432012314567" stroke="#000000" stroke-width="1.1111111111111112" />
<line x1="55.138888888888886" y1="259.4035931561183" x2="60.4" y2="259.4035931561183" stroke="#000000" stroke-width="1.1111111111111112" />
<line x1="55.138888888888886" y1="246.32437700544148" x2="60.4" y2="246.32437700544148" stroke="#000000" stroke-width="1.1111111111111112" />
<line x1="55.138888888888886" y1="239.78476893010307" x2="60.4" y2="239.78476893010307" stroke="#000000" stroke-width="1.1111111111111112" />
<line x1="55.138888888888886" y1="233.24516085476466" x2="60.4" y2="233.24516085476466" stroke="#000000" stroke-width="1.1111111111111112" />
<line x1="55.138888888888886" y1="226.70555277942626" x2="60.4" y2="226.70555277942626" stroke="#000000" stroke-width="1.1111111111111112" />
<line x1="55.138888888888886" y1="213.62633662874944" x2="60.4" y2="213.62633662874944" stroke="#000000" stroke-width="1.1111111111111112" />
<line x1="55.138888888888886" y1="207.08672855341104" x2="60.4" y2="207.08672855341104" stroke="#000000" stroke-width="1.1111111111111112" />
<line x1="55.138888888888886" y1="200.54712047807263" x2="60.4" y2="200.54712047807263" stroke="#000000" stroke-width="1.1111111111111112" />
<line x1="55.138888888888886" y1="194.00751240273422" x2="60.4" y2="194.00751240273422" stroke="#000000" stroke-width="1.1111111111111112" />
<line x1="55.138888888888886" y1="180.9282962520574" x2="60.4" y2="180.9282962520574" stroke="#000000" stroke-width="1.1111111111111112" />
<line x1="55.138888888888886" y1="174.38868817671897" x2="60.4" y2="174.38868817671897" stroke="#000000" stroke-width="1.1111111111111112" />
<line x1="55.138888888888886" y1="167.8490801013806" x2="60.4" y2="167.8490801013806" stroke="#000000" stroke-width="1.1111111111111112" />
<line x1="55.138888888888886" y1="161.3094720260422" x2="60.4" y2="161.3094720260422" stroke="#000000" stroke-width="1.1111111111111112" />
<line x1="55.138888888888886" y1="148.23025587536534" x2="60.4" y2="148.23025587536534" stroke="#000000" stroke-width="1.1111111111111112" />
<line x1="55.138888888888886" y1="141.69064780002697" x2="60.4" y2="141.69064780002697" stroke="#000000" stroke-width="1.1111111111111112" />
<line x1="55.138888888888886" y1="135.15103972468853" x2="60.4" y2="135.15103972468853" stroke="#000000" stroke-width="1.1111111111111112" />
<line x1="55.138888888888886" y1="128.61143164935012" x2="60.4" y2="128.61143164935012" stroke="#000000" stroke-width="1.1111111111111112" />
<line x1="55.138888888888886" y1="115.53221549867332" x2="60.4" y2="115.53221549867332" stroke="#000000" stroke-width="1.1111111111111112" />
<line x1="55.138888888888886" y1="108.9926074233349" x2="60.4" y2="108.9926074233349" stroke="#000000" stroke-width="1.1111111111111112" />
<line x1="55.138888888888886" y1="102.45299934799651" x2="60.4" y2="102.45299934799651" stroke="#000000" stroke-width="1.1111111111111112" />
<line x1="55.138888888888886" y1="95.91339127265809" x2="60.4" y2="95.91339127265809" stroke="#000000" stroke-width="1.1111111111111112" />
<line x1="55.138888888888886" y1="82.83417512198127" x2="60.4" y2="82.83417512198127" stroke="#000000" stroke-width="1.1111111111111112" />
<line x1="55.138888888888886" y1="76.29456704664287" x2="60.4" y2="76.29456704664287" stroke="#000000" stroke-width="1.1111111111111112" />
<line x1="55.138888888888886" y1="69.75495897130446" x2="60.4" y2="69.75495897130446" stroke="#000000" stroke-width="1.1111111111111112" />
<line x1="55.138888888888886" y1="63.215350895966054" x2="60.4" y2="63.215350895966054" stroke="#000000" stroke-width="1.1111111111111112" />
<line x1="55.138888888888886" y1="50.13613474528924" x2="60.4" y2="50.13613474528924" stroke="#000000" stroke-width="1.1111111111111112" />
<line x1="55.138888888888886" y1="43.59652666995083" x2="60.4" y2="43.59652666995083" stroke="#000000" stroke-width="1.1111111111111112" />
<g class="series" aria-label="sin(x)">
<polyline points="97.27272727272728,220.16594470408785 109.9075500770416,187.68545570435134 122.54237288135594,156.49986130292416 135.17719568567028,127.8524327367572 147.8120184899846,102.88525258059504 160.44684129429893,82.59368351877077 173.08166409861326,67.78668637603029 185.71648690292758,59.05456940227314 198.3513097072419,56.74545454545447 210.98613251155624,60.95139892808229 223.62095531587056,71.50472482024627 236.2557781201849,87.98470442157151 248.89060092449927,109.7343329509361 261.52542372881356,135.88652135379598 274.1602465331279,165.3986644065321 286.7950693374422,197.09420609658463 299.42989214175657,229.70954519783697 312.0647149460709,261.9444110639765 324.6995377503852,292.5137013159216 337.3343605546996,320.1987148183012 349.96918335901387,343.8957374478875 362.6040061633282,362.66004369271815 375.2388289676426,375.74355987700426 387.8736517719569,382.62468749790116 400.5084745762712,383.0290977118176 413.1432973805855,376.940667959715 425.7781201848999,364.6021247226585 438.4129429892142,346.5053667829849 451.0477657935285,323.37185477212677 463.6825885978429,296.1238488119385 476.3174114021572,265.84764091399785 488.95223420647153,233.75024794509648 501.5870570107858,201.11129167372388 514.2218798151002,169.2319842882371 526.8567026194145,139.38325317312362 539.4915254237288,112.75507304482517 552.1263482280432,90.4090254149752 564.7611710323575,73.23597668554487 577.3959938366718,61.92056211668753 590.0308166409861,56.91389157940795 602.6656394453005,58.41556522856495 615.3004622496148,66.36571607457194 627.9352850539292,80.44739669135022 640.5701078582434,100.09921491002179 653.2049306625578,124.5377147531069 665.8397534668721,152.78861035200725 678.4745762711865,183.72562765005154 691.1093990755007,216.11540539496977 703.7442218798152,248.66666535992687 716.3790446841294,280.08169153156035 729.0138674884438,309.10806595225523 741.6486902927581,334.58859867187994 754.2835130970724,355.50746125937343 766.9183359013869,371.0306846766608 779.5531587057011,380.5394069924589 792.1879815100154,383.6545454545454 804.8228043143298,380.25190932282476 817.457627118644,370.4671509622295 830.0924499229585,354.6903578110058 842.7272727272727,333.55050082554345" fill="none" stroke="#1F77B4" stroke-width="1.5" />
</g>
<g class="series" aria-label="sin(x+1)">
<polyline points="97.27272727272728,82.59368351877077 109.9075500770416,67.7866863760303 122.54237288135594,59.05456940227315 135.17719568567028,56.74545454545447 147.8120184899846,60.95139892808229 160.44684129429893,71.50472482024627 173.08166409861326,87.98470442157151 185.71648690292758,109.7343329509361 198.3513097072419,135.88652135379598 210.98613251155624,165.39866440653205 223.62095531587056,197.09420609658463 236.2557781201849,229.70954519783697 248.89060092449927,261.9444110639765 261.52542372881356,292.5137013159216 274.1602465331279,320.1987148183012 286.7950693374422,343.8957374478875 299.42989214175657,362.66004369271815 312.0647149460709,375.74355987700426 324.6995377503852,382.6246874979011 337.3343605546996,383.0290977118176 349.96918335901387,376.940667959715 362.6040061633282,364.6021247226585 375.2388289676426,346.5053667829849 387.8736517719569,323.37185477212677 400.5084745762712,296.1238488119385 413.1432973805855,265.84764091399785 425.7781201848999,233.75024794509648 438.4129429892142,201.11129167372388 451.0477657935285,169.2319842882371 463.6825885978429,139.38325317312362 476.3174114021572,112.75507304482517 488.95223420647153,90.4090254149752 501.5870570107858,73.23597668554487 514.2218798151002,61.92056211668753 526.8567026194145,56.91389157940795 539.4915254237288,58.41556522856495 552.1263482280432,66.36571607457184 564.7611710323575,80.44739669135022 577.3959938366718,100.09921491002196 590.0308166409861,124.5377147531069 602.6656394453005,152.78861035200725 615.3004622496148,183.72562765005154 627.9352850539292,216.11540539496977 640.5701078582434,248.66666535992658 653.2049306625578,280.08169153156035 665.8397534668721,309.10806595225523 678.4745762711865,334.58859867187994 691.1093990755007,355.50746125937343 703.7442218798152,371.0306846766608 716.3790446841294,380.5394069924589 729.0138674884438,383.6545454545454 741.6486902927581,380.25190932282476 754.2835130970724,370.4671509622295 766.9183359013869,354.6903578110058 779.5531587057011,333.55050082554345 792.1879815100154,307.8903593931763 804.8228043143298,278.73292237755373 817.457627118644,247.2406047808759 830.0924499229585,214.6689059259668 842.7272727272727,182.31635666023269" fill="none" stroke="#FFA500" stroke-width="1.5" />
</g>
<g class="series" aria-label="sin(x+2)">
<polyline points="97.27272727272728,71.50472482024627 109.9075500770416,87.98470442157151 122.54237288135594,109.73433295093605 135.17719568567028,135.88652135379598 147.8120184899846,165.39866440653205 160.44684129429893,197.09420609658463 173.08166409861326,229.70954519783697 185.71648690292758,261.9444110639765 198.3513097072419,292.5137013159216 210.98613251155624,320.19871481830114 223.62095531587056,343.8957374478875 236.2557781201849,362.66004369271815 248.89060092449927,375.74355987700426 261.52542372881356,382.6246874979011 274.1602465331279,383.0290977118176 286.7950693374422,376.940667959715 299.42989214175657,364.6021247226585 312.0647149460709,346.5053667829849 324.6995377503852,323.3718547721269 337.3343605546996,296.1238488119385 349.96918335901387,265.84764091399785 362.6040061633282,233.75024794509648 375.2388289676426,201.11129167372388 387.8736517719569,169.2319842882371 400.5084745762712,139.38325317312362 413.1432973805855,112.75507304482517 425.7781201848999,90.4090254149752 438.4129429892142,73.23597668554487 451.0477657935285,61.92056211668753 463.6825885978429,56.91389157940795 476.3174114021572,58.41556522856495 488.95223420647153,66.36571607457184 501.5870570107858,80.44739669135022 514.2218798151002,100.09921491002196 526.8567026194145,124.5377147531069 539.4915254237288,152.78861035200725 552.1263482280432,183.72562765005125 564.7611710323575,216.11540539496977 577.3959938366718,248.66666535992687 590.0308166409861,280.08169153156035 602.6656394453005,309.10806595225523 615.3004622496148,334.58859867187994 627.9352850539292,355.50746125937343 640.5701078582434,371.0306846766607 653.2049306625578,380.5394069924589 665.8397534668721,383.6545454545454 678.4745762711865,380.25190932282476 691.1093990755007,370.4671509622295 703.7442218798152,354.6903578110058 716.3790446841294,333.55050082554345 729.0138674884438,307.8903593931763 741.6486902927581,278.73292237755373 754.2835130970724,247.2406047808759 766.9183359013869,214.6689059259668 779.5531587057011,182.31635666023269 792.1879815100154,151.47275102852507 804.8228043143298,123.36772625475388 817.457627118644,99.12174098611551 830.0924499229585,79.70140614263913 842.7272727272727,65.88094919012404" fill="none" stroke="#008000" stroke-width="1.5" />
</g>
<g class="series" aria-label="sin(x+3)">
<polyline points="97.27272727272728,197.09420609658463 109.9075500770416,229.70954519783697 122.54237288135594,261.94441106397636 135.17719568567028,292.5137013159216 147.8120184899846,320.19871481830114 160.44684129429893,343.8957374478875 173.08166409861326,362.66004369271815 185.71648690292758,375.74355987700426 198.3513097072419,382.6246874979011 210.98613251155624,383.0290977118176 223.62095531587056,376.940667959715 236.2557781201849,364.6021247226585 248.89060092449927,346.5053667829849 261.52542372881356,323.3718547721269 274.1602465331279,296.1238488119385 286.7950693374422,265.84764091399785 299.42989214175657,233.75024794509648 312.0647149460709,201.11129167372388 324.6995377503852,169.23198428823724 337.3343605546996,139.38325317312362 349.96918335901387,112.75507304482517 362.6040061633282,90.4090254149752 375.2388289676426,73.23597668554487 387.8736517719569,61.92056211668753 400.5084745762712,56.91389157940795 413.1432973805855,58.41556522856495 425.7781201848999,66.36571607457184 438.4129429892142,80.44739669135022 451.0477657935285,100.09921491002196 463.6825885978429,124.5377147531069 476.3174114021572,152.78861035200725 488.95223420647153,183.72562765005125 501.5870570107858,216.11540539496977 514.2218798151002,248.66666535992687 526.8567026194145,280.08169153156035 539.4915254237288,309.10806595225523 552.1263482280432,334.5885986718797 564.7611710323575,355.50746125937343 577.3959938366718,371.0306846766608 590.0308166409861,380.5394069924589 602.6656394453005,383.6545454545454 615.3004622496148,380.25190932282476 627.9352850539292,370.4671509622295 640.5701078582434,354.690357811006 653.2049306625578,333.55050082554345 665.8397534668721,307.8903593931763 678.4745762711865,278.73292237755373 691.1093990755007,247.2406047808759 703.7442218798152,214.6689059259668 716.3790446841294,182.31635666023269 729.0138674884438,151.47275102852507 741.6486902927581,123.36772625475388 754.2835130970724,99.12174098611551 766.9183359013869,79.70140614263913 779.5531587057011,65.88094919012404 792.1879815100154,58.21134813429283 804.8228043143298,56.998365766415866 817.457627118644,62.290359865713185 830.0924499229585,73.87635532729895 842.7272727272727,91.29445507384251" fill="none" stroke="#FF0000" stroke-width="1.5" />
</g>
<g class="spine">
<line x1="60" y1="400" x2="880" y2="400" stroke="#000000" stroke-width="0.8" />
</g>
<g class="spine">
<line x1="60" y1="40.4" x2="880" y2="40.4" stroke="#000000" stroke-width="0.8" />
</g>
<g class="spine">
<line x1="60" y1="40.4" x2="60" y2="400" stroke="#000000" stroke-width="0.8" />
</g>
<g class="spine">
<line x1="880" y1="40.4" x2="880" y2="400" stroke="#000000" stroke-width="0.8" />
</g>
<rect x="768.72" y="50.4" width="101.28" height="71.9" fill="#FFFFFF" fill-opacity="0.8" stroke="#CCCCCC" stroke-width="0.5" />
<g class="legend" aria-label="Chart legend">
<line x1="776.72" y1="62.949999999999996" x2="802.72" y2="62.949999999999996" stroke="#1F77B4" stroke-width="1.5" />
<text x="813.12" y="66.5" font-family="sans-serif" font-size="13" text-anchor="start" fill="#000000">sin(x)</text>
<line x1="776.72" y1="78.55" x2="802.72" y2="78.55" stroke="#FFA500" stroke-width="1.5" />
<text x="813.12" y="82.1" font-family="sans-serif" font-size="13" text-anchor="start" fill="#000000">sin(x+1)</text>
<line x1="776.72" y1="94.14999999999999" x2="802.72" y2="94.14999999999999" stroke="#008000" stroke-width="1.5" />
<text x="813.12" y="97.69999999999999" font-family="sans-serif" font-size="13" text-anchor="start" fill="#000000">sin(x+2)</text>
<line x1="776.72" y1="109.74999999999999" x2="802.72" y2="109.74999999999999" stroke="#FF0000" stroke-width="1.5" />
<text x="813.12" y="113.29999999999998" font-family="sans-serif" font-size="13" text-anchor="start" fill="#000000">sin(x+3)</text>
</g>
<text x="470" y="435" font-family="sans-serif" font-size="13" text-anchor="middle" fill="#000000">x</text>
<text x="13.83777777777778" y="220.20000000000002" font-family="sans-serif" font-size="13" text-anchor="middle" transform="rotate(-90,13.83777777777778,220.20000000000002)" fill="#000000">f(x)</text>
</svg>
