<svg xmlns="http://www.w3.org/2000/svg" viewBox="0 0 900 450" width="900" height="450" role="img" aria-labelledby="chart-title">
<title id="chart-title">PropCycler — four series, cycling color + line style</title>
<rect x="0" y="0" width="900" height="450" fill="#FFFFFF" />
<path d="M4.04248 -4.10059L4.04248 0L1.36133 0L1.36133 -11.9033L5.56152 -11.9033Q10.0605 -11.9033 10.0605 -8.10986Q10.0605 -6.31689 8.76978 -5.20874Q7.479 -4.10059 5.3208 -4.10059L4.04248 -4.10059ZM4.04248 -9.84473L4.04248 -6.13428L5.09668 -6.13428Q7.23828 -6.13428 7.23828 -8.01025Q7.23828 -9.84473 5.09668 -9.84473L4.04248 -9.84473ZM17.0913 -6.13428Q16.6182 -6.3916 15.9873 -6.3916Q15.1323 -6.3916 14.6509 -5.76489Q14.1694 -5.13818 14.1694 -4.05908L14.1694 0L11.5464 0L11.5464 -8.5L14.1694 -8.5L14.1694 -6.92285L14.2026 -6.92285Q14.8252 -8.64941 16.4438 -8.64941Q16.8589 -8.64941 17.0913 -8.5498L17.0913 -6.13428ZM22.3623 0.20752Q20.2373 0.20752 19.0212 -0.983643Q17.8052 -2.1748 17.8052 -4.2168Q17.8052 -6.3252 19.0669 -7.51636Q20.3286 -8.70752 22.4785 -8.70752Q24.5952 -8.70752 25.7988 -7.51636Q27.0024 -6.3252 27.0024 -4.36621Q27.0024 -2.24951 25.7615 -1.021Q24.5205 0.20752 22.3623 0.20752ZM22.4287 -6.69873Q21.499 -6.69873 20.9844 -6.05957Q20.4697 -5.42041 20.4697 -4.25Q20.4697 -1.80127 22.4453 -1.80127Q24.3296 -1.80127 24.3296 -4.31641Q24.3296 -6.69873 22.4287 -6.69873ZM31.3604 -0.987793L31.3271 -0.987793L31.3271 3.90967L28.7041 3.90967L28.7041 -8.5L31.3271 -8.5L31.3271 -7.22168L31.3604 -7.22168Q32.3315 -8.70752 34.0913 -8.70752Q35.7432 -8.70752 36.6438 -7.57446Q37.5444 -6.44141 37.5444 -4.49072Q37.5444 -2.36572 36.4944 -1.0791Q35.4443 0.20752 33.7012 0.20752Q32.1655 0.20752 31.3604 -0.987793ZM31.2856 -4.47412L31.2856 -3.79346Q31.2856 -2.91357 31.7505 -2.35742Q32.2153 -1.80127 32.9707 -1.80127Q33.8672 -1.80127 34.3611 -2.49438Q34.855 -3.1875 34.855 -4.45752Q34.855 -6.69873 33.1118 -6.69873Q32.3066 -6.69873 31.7961 -6.08862Q31.2856 -5.47852 31.2856 -4.47412ZM48.0366 -0.42334Q46.7334 0.20752 44.6333 0.20752Q41.894 0.20752 40.3252 -1.40283Q38.7563 -3.01318 38.7563 -5.69434Q38.7563 -8.5498 40.5203 -10.3262Q42.2842 -12.1025 45.0981 -12.1025Q46.8413 -12.1025 48.0366 -11.6626L48.0366 -9.08105Q46.8413 -9.79492 45.314 -9.79492Q43.6372 -9.79492 42.6079 -8.74072Q41.5786 -7.68652 41.5786 -5.88525Q41.5786 -4.15869 42.5498 -3.13354Q43.521 -2.1084 45.1646 -2.1084Q46.7334 -2.1084 48.0366 -2.87207L48.0366 -0.42334ZM57.9478 -8.5L54.4946 0.680664Q53.2495 3.99268 50.7427 3.99268Q49.7881 3.99268 49.1738 3.77686L49.1738 1.68506Q49.6968 1.99219 50.311 1.99219Q51.3237 1.99219 51.7222 1.0376L52.1704 -0.0166016L48.7173 -8.5L51.6226 -8.5L53.208 -3.32861Q53.3574 -2.84717 53.4404 -2.19141L53.4736 -2.19141Q53.5483 -2.67285 53.7476 -3.31201L55.3496 -8.5L57.9478 -8.5ZM65.4434 -0.307129Q64.5552 0.20752 62.8784 0.20752Q60.9194 0.20752 59.7075 -0.979492Q58.4956 -2.1665 58.4956 -4.04248Q58.4956 -6.20898 59.7947 -7.45825Q61.0938 -8.70752 63.2686 -8.70752Q64.771 -8.70752 65.4434 -8.30908L65.4434 -6.08447Q64.6216 -6.69873 63.6089 -6.69873Q62.48 -6.69873 61.8201 -6.03882Q61.1602 -5.37891 61.1602 -4.2168Q61.1602 -3.08789 61.791 -2.44458Q62.4219 -1.80127 63.5259 -1.80127Q64.5054 -1.80127 65.4434 -2.41553L65.4434 -0.307129ZM69.7847 0L67.1616 0L67.1616 -12.584L69.7847 -12.584L69.7847 0ZM79.6294 -3.50293L74.0845 -3.50293Q74.2173 -1.65186 76.417 -1.65186Q77.8198 -1.65186 78.8823 -2.31592L78.8823 -0.42334Q77.7036 0.20752 75.8193 0.20752Q73.7607 0.20752 72.6235 -0.933838Q71.4863 -2.0752 71.4863 -4.11719Q71.4863 -6.23389 72.7148 -7.4707Q73.9434 -8.70752 75.7363 -8.70752Q77.5957 -8.70752 78.6125 -7.60352Q79.6294 -6.49951 79.6294 -4.60693L79.6294 -3.50293ZM77.1973 -5.11328Q77.1973 -6.93945 75.7197 -6.93945Q75.0889 -6.93945 74.6282 -6.4165Q74.1675 -5.89355 74.0679 -5.11328L77.1973 -5.11328ZM86.7349 -6.13428Q86.2617 -6.3916 85.6309 -6.3916Q84.7759 -6.3916 84.2944 -5.76489Q83.813 -5.13818 83.813 -4.05908L83.813 0L81.1899 0L81.1899 -8.5L83.813 -8.5L83.813 -6.92285L83.8462 -6.92285Q84.4688 -8.64941 86.0874 -8.64941Q86.5024 -8.64941 86.7349 -8.5498L86.7349 -6.13428ZM108.541 -3.61914L91.541 -3.61914L91.541 -5.45361L108.541 -5.45361L108.541 -3.61914ZM119.88 -10.5752Q119.374 -10.7744 118.909 -10.7744Q117.647 -10.7744 117.647 -9.40479L117.647 -8.5L119.589 -8.5L119.589 -6.56592L117.647 -6.56592L117.647 0L115.032 0L115.032 -6.56592L113.604 -6.56592L113.604 -8.5L115.032 -8.5L115.032 -9.5542Q115.032 -11.0068 115.979 -11.895Q116.925 -12.7832 118.552 -12.7832Q119.349 -12.7832 119.88 -12.6172L119.88 -10.5752ZM124.902 0.20752Q122.777 0.20752 121.561 -0.983643Q120.345 -2.1748 120.345 -4.2168Q120.345 -6.3252 121.606 -7.51636Q122.868 -8.70752 125.018 -8.70752Q127.135 -8.70752 128.338 -7.51636Q129.542 -6.3252 129.542 -4.36621Q129.542 -2.24951 128.301 -1.021Q127.06 0.20752 124.902 0.20752ZM124.968 -6.69873Q124.039 -6.69873 123.524 -6.05957Q123.009 -5.42041 123.009 -4.25Q123.009 -1.80127 124.985 -1.80127Q126.869 -1.80127 126.869 -4.31641Q126.869 -6.69873 124.968 -6.69873ZM139.32 0L136.706 0L136.706 -1.29492L136.664 -1.29492Q135.693 0.20752 134.066 0.20752C132.096 0.20752 131.111 -0.985026 131.111 -3.37012L131.111 -8.5L133.726 -8.5L133.726 -3.60254Q133.726 -1.80127 135.153 -1.80127Q135.859 -1.80127 136.282 -2.29517Q136.706 -2.78906 136.706 -3.63574L136.706 -8.5L139.32 -8.5L139.32 0ZM147.073 -6.13428Q146.6 -6.3916 145.969 -6.3916Q145.114 -6.3916 144.633 -5.76489Q144.151 -5.13818 144.151 -4.05908L144.151 0L141.528 0L141.528 -8.5L144.151 -8.5L144.151 -6.92285L144.185 -6.92285Q144.807 -8.64941 146.426 -8.64941Q146.841 -8.64941 147.073 -8.5498L147.073 -6.13428ZM152.427 -0.224121L152.427 -2.34912Q153.075 -1.95898 153.718 -1.76807Q154.361 -1.57715 154.934 -1.57715Q155.631 -1.57715 156.034 -1.76807Q156.437 -1.95898 156.437 -2.34912Q156.437 -2.59814 156.254 -2.76416Q156.071 -2.93018 155.785 -3.05469Q155.499 -3.1792 155.158 -3.27881Q154.818 -3.37842 154.502 -3.50293Q153.996 -3.69385 153.61 -3.91382Q153.224 -4.13379 152.963 -4.42432Q152.701 -4.71484 152.564 -5.09668Q152.427 -5.47852 152.427 -6.00146Q152.427 -6.71533 152.739 -7.22998Q153.05 -7.74463 153.569 -8.07251Q154.087 -8.40039 154.756 -8.55396Q155.424 -8.70752 156.146 -8.70752Q156.71 -8.70752 157.292 -8.62036Q157.873 -8.5332 158.437 -8.36719L158.437 -6.3418Q157.939 -6.63232 157.37 -6.77759Q156.802 -6.92285 156.254 -6.92285Q155.997 -6.92285 155.768 -6.8772Q155.54 -6.83154 155.366 -6.74438Q155.191 -6.65723 155.092 -6.52026Q154.992 -6.3833 154.992 -6.20898Q154.992 -5.97656 155.142 -5.81055Q155.291 -5.64453 155.532 -5.52417Q155.772 -5.40381 156.067 -5.30835Q156.362 -5.21289 156.652 -5.11328Q157.175 -4.93066 157.599 -4.71484Q158.022 -4.49902 158.325 -4.2085Q158.628 -3.91797 158.79 -3.52783Q158.952 -3.1377 158.952 -2.59814Q158.952 -1.84277 158.624 -1.30737Q158.296 -0.771973 157.752 -0.435791Q157.208 -0.0996094 156.499 0.0539551Q155.789 0.20752 155.025 0.20752Q153.623 0.20752 152.427 -0.224121ZM168.099 -3.50293L162.554 -3.50293Q162.687 -1.65186 164.887 -1.65186Q166.29 -1.65186 167.352 -2.31592L167.352 -0.42334Q166.173 0.20752 164.289 0.20752Q162.23 0.20752 161.093 -0.933838Q159.956 -2.0752 159.956 -4.11719Q159.956 -6.23389 161.185 -7.4707Q162.413 -8.70752 164.206 -8.70752Q166.065 -8.70752 167.082 -7.60352Q168.099 -6.49951 168.099 -4.60693L168.099 -3.50293ZM165.667 -5.11328Q165.667 -6.93945 164.189 -6.93945Q163.559 -6.93945 163.098 -6.4165Q162.637 -5.89355 162.538 -5.11328L165.667 -5.11328ZM175.205 -6.13428Q174.731 -6.3916 174.101 -6.3916Q173.246 -6.3916 172.764 -5.76489Q172.283 -5.13818 172.283 -4.05908L172.283 0L169.66 0L169.66 -8.5L172.283 -8.5L172.283 -6.92285L172.316 -6.92285Q172.938 -8.64941 174.557 -8.64941Q174.972 -8.64941 175.205 -8.5498L175.205 -6.13428ZM177.753 -9.84473Q177.089 -9.84473 176.666 -10.239Q176.242 -10.6333 176.242 -11.2061Q176.242 -11.7954 176.666 -12.1689Q177.089 -12.5425 177.753 -12.5425Q178.425 -12.5425 178.844 -12.1689Q179.264 -11.7954 179.264 -11.2061Q179.264 -10.6084 178.844 -10.2266Q178.425 -9.84473 177.753 -9.84473ZM179.048 0L176.425 0L176.425 -8.5L179.048 -8.5L179.048 0ZM188.893 -3.50293L183.348 -3.50293Q183.48 -1.65186 185.68 -1.65186Q187.083 -1.65186 188.146 -2.31592L188.146 -0.42334Q186.967 0.20752 185.083 0.20752Q183.024 0.20752 181.887 -0.933838Q180.75 -2.0752 180.75 -4.11719Q180.75 -6.23389 181.978 -7.4707Q183.207 -8.70752 185 -8.70752Q186.859 -8.70752 187.876 -7.60352Q188.893 -6.49951 188.893 -4.60693L188.893 -3.50293ZM186.46 -5.11328Q186.46 -6.93945 184.983 -6.93945Q184.352 -6.93945 183.891 -6.4165Q183.431 -5.89355 183.331 -5.11328L186.46 -5.11328ZM189.897 -0.224121L189.897 -2.34912Q190.544 -1.95898 191.188 -1.76807Q191.831 -1.57715 192.404 -1.57715Q193.101 -1.57715 193.504 -1.76807Q193.906 -1.95898 193.906 -2.34912Q193.906 -2.59814 193.724 -2.76416Q193.541 -2.93018 193.255 -3.05469Q192.968 -3.1792 192.628 -3.27881Q192.288 -3.37842 191.972 -3.50293Q191.466 -3.69385 191.08 -3.91382Q190.694 -4.13379 190.432 -4.42432Q190.171 -4.71484 190.034 -5.09668Q189.897 -5.47852 189.897 -6.00146Q189.897 -6.71533 190.208 -7.22998Q190.52 -7.74463 191.038 -8.07251Q191.557 -8.40039 192.225 -8.55396Q192.894 -8.70752 193.616 -8.70752Q194.18 -8.70752 194.761 -8.62036Q195.342 -8.5332 195.907 -8.36719L195.907 -6.3418Q195.409 -6.63232 194.84 -6.77759Q194.271 -6.92285 193.724 -6.92285Q193.466 -6.92285 193.238 -6.8772Q193.01 -6.83154 192.835 -6.74438Q192.661 -6.65723 192.562 -6.52026Q192.462 -6.3833 192.462 -6.20898Q192.462 -5.97656 192.611 -5.81055Q192.761 -5.64453 193.001 -5.52417Q193.242 -5.40381 193.537 -5.30835Q193.832 -5.21289 194.122 -5.11328Q194.645 -4.93066 195.068 -4.71484Q195.492 -4.49902 195.795 -4.2085Q196.098 -3.91797 196.26 -3.52783Q196.421 -3.1377 196.421 -2.59814Q196.421 -1.84277 196.094 -1.30737Q195.766 -0.771973 195.222 -0.435791Q194.678 -0.0996094 193.969 0.0539551Q193.259 0.20752 192.495 0.20752Q191.092 0.20752 189.897 -0.224121ZM200.414 -2.0918L199.194 2.1084L197.152 2.1084L197.999 -2.0918L200.414 -2.0918ZM213.67 -0.307129Q212.782 0.20752 211.105 0.20752Q209.146 0.20752 207.935 -0.979492Q206.723 -2.1665 206.723 -4.04248Q206.723 -6.20898 208.022 -7.45825Q209.321 -8.70752 211.496 -8.70752Q212.998 -8.70752 213.67 -8.30908L213.67 -6.08447Q212.849 -6.69873 211.836 -6.69873Q210.707 -6.69873 210.047 -6.03882Q209.387 -5.37891 209.387 -4.2168Q209.387 -3.08789 210.018 -2.44458Q210.649 -1.80127 211.753 -1.80127Q212.732 -1.80127 213.67 -2.41553L213.67 -0.307129ZM223.482 -8.5L220.029 0.680664Q218.784 3.99268 216.277 3.99268Q215.322 3.99268 214.708 3.77686L214.708 1.68506Q215.231 1.99219 215.845 1.99219Q216.858 1.99219 217.256 1.0376L217.705 -0.0166016L214.251 -8.5L217.157 -8.5L218.742 -3.32861Q218.892 -2.84717 218.975 -2.19141L219.008 -2.19141Q219.083 -2.67285 219.282 -3.31201L220.884 -8.5L223.482 -8.5ZM230.978 -0.307129Q230.089 0.20752 228.413 0.20752Q226.454 0.20752 225.242 -0.979492Q224.03 -2.1665 224.03 -4.04248Q224.03 -6.20898 225.329 -7.45825Q226.628 -8.70752 228.803 -8.70752Q230.305 -8.70752 230.978 -8.30908L230.978 -6.08447Q230.156 -6.69873 229.143 -6.69873Q228.014 -6.69873 227.354 -6.03882Q226.694 -5.37891 226.694 -4.2168Q226.694 -3.08789 227.325 -2.44458Q227.956 -1.80127 229.06 -1.80127Q230.04 -1.80127 230.978 -2.41553L230.978 -0.307129ZM235.319 0L232.696 0L232.696 -12.584L235.319 -12.584L235.319 0ZM238.855 -9.84473Q238.191 -9.84473 237.768 -10.239Q237.344 -10.6333 237.344 -11.2061Q237.344 -11.7954 237.768 -12.1689Q238.191 -12.5425 238.855 -12.5425Q239.527 -12.5425 239.947 -12.1689Q240.366 -11.7954 240.366 -11.2061Q240.366 -10.6084 239.947 -10.2266Q239.527 -9.84473 238.855 -9.84473ZM240.15 0L237.527 0L237.527 -8.5L240.15 -8.5L240.15 0ZM250.567 0L247.953 0L247.953 -4.72314Q247.953 -6.69873 246.542 -6.69873Q245.861 -6.69873 245.421 -6.17578Q244.981 -5.65283 244.981 -4.84766L244.981 0L242.358 0L242.358 -8.5L244.981 -8.5L244.981 -7.15527L245.014 -7.15527Q245.952 -8.70752 247.745 -8.70752Q250.567 -8.70752 250.567 -5.20459L250.567 0ZM260.977 -0.971191Q260.977 1.39453 259.607 2.6936Q258.237 3.99268 255.639 3.99268Q253.921 3.99268 252.917 3.50293L252.917 1.29492Q254.228 2.05859 255.564 2.05859Q256.893 2.05859 257.623 1.35718Q258.354 0.655762 258.354 -0.547852L258.354 -1.22021L258.32 -1.22021Q257.424 0.20752 255.672 0.20752Q254.045 0.20752 253.091 -0.937988Q252.136 -2.0835 252.136 -4.00928Q252.136 -6.16748 253.199 -7.4375Q254.261 -8.70752 255.996 -8.70752Q257.548 -8.70752 258.32 -7.51221L258.354 -7.51221L258.354 -8.5L260.977 -8.5L260.977 -0.971191ZM258.387 -4.08398L258.387 -4.75635Q258.387 -5.56152 257.909 -6.13013Q257.432 -6.69873 256.668 -6.69873Q255.797 -6.69873 255.299 -6.01807Q254.801 -5.3374 254.801 -4.10059Q254.801 -3.03809 255.274 -2.41968Q255.747 -1.80127 256.569 -1.80127Q257.382 -1.80127 257.885 -2.42798Q258.387 -3.05469 258.387 -4.08398ZM274.299 -0.307129Q273.411 0.20752 271.734 0.20752Q269.775 0.20752 268.563 -0.979492Q267.352 -2.1665 267.352 -4.04248Q267.352 -6.20898 268.651 -7.45825Q269.95 -8.70752 272.125 -8.70752Q273.627 -8.70752 274.299 -8.30908L274.299 -6.08447Q273.478 -6.69873 272.465 -6.69873Q271.336 -6.69873 270.676 -6.03882Q270.016 -5.37891 270.016 -4.2168Q270.016 -3.08789 270.647 -2.44458Q271.278 -1.80127 272.382 -1.80127Q273.361 -1.80127 274.299 -2.41553L274.299 -0.307129ZM280.068 0.20752Q277.943 0.20752 276.727 -0.983643Q275.511 -2.1748 275.511 -4.2168Q275.511 -6.3252 276.773 -7.51636Q278.035 -8.70752 280.185 -8.70752Q282.301 -8.70752 283.505 -7.51636Q284.708 -6.3252 284.708 -4.36621Q284.708 -2.24951 283.468 -1.021Q282.227 0.20752 280.068 0.20752ZM280.135 -6.69873Q279.205 -6.69873 278.69 -6.05957Q278.176 -5.42041 278.176 -4.25Q278.176 -1.80127 280.151 -1.80127Q282.036 -1.80127 282.036 -4.31641Q282.036 -6.69873 280.135 -6.69873ZM289.033 0L286.41 0L286.41 -12.584L289.033 -12.584L289.033 0ZM295.292 0.20752Q293.167 0.20752 291.951 -0.983643Q290.735 -2.1748 290.735 -4.2168Q290.735 -6.3252 291.997 -7.51636Q293.258 -8.70752 295.408 -8.70752Q297.525 -8.70752 298.729 -7.51636Q299.932 -6.3252 299.932 -4.36621Q299.932 -2.24951 298.691 -1.021Q297.45 0.20752 295.292 0.20752ZM295.358 -6.69873Q294.429 -6.69873 293.914 -6.05957Q293.399 -5.42041 293.399 -4.25Q293.399 -1.80127 295.375 -1.80127Q297.259 -1.80127 297.259 -4.31641Q297.259 -6.69873 295.358 -6.69873ZM307.179 -6.13428Q306.706 -6.3916 306.075 -6.3916Q305.22 -6.3916 304.738 -5.76489Q304.257 -5.13818 304.257 -4.05908L304.257 0L301.634 0L301.634 -8.5L304.257 -8.5L304.257 -6.92285L304.29 -6.92285Q304.913 -8.64941 306.531 -8.64941Q306.946 -8.64941 307.179 -8.5498L307.179 -6.13428ZM322.045 -4.02588L318.85 -4.02588L318.85 -0.830078L317.173 -0.830078L317.173 -4.02588L313.96 -4.02588L313.96 -5.71094L317.173 -5.71094L317.173 -8.92334L318.85 -8.92334L318.85 -5.71094L322.045 -5.71094L322.045 -4.02588ZM332.421 0L329.798 0L329.798 -12.584L332.421 -12.584L332.421 0ZM335.958 -9.84473Q335.293 -9.84473 334.87 -10.239Q334.447 -10.6333 334.447 -11.2061Q334.447 -11.7954 334.87 -12.1689Q335.293 -12.5425 335.958 -12.5425Q336.63 -12.5425 337.049 -12.1689Q337.468 -11.7954 337.468 -11.2061Q337.468 -10.6084 337.049 -10.2266Q336.63 -9.84473 335.958 -9.84473ZM337.252 0L334.629 0L334.629 -8.5L337.252 -8.5L337.252 0ZM347.67 0L345.055 0L345.055 -4.72314Q345.055 -6.69873 343.644 -6.69873Q342.963 -6.69873 342.523 -6.17578Q342.083 -5.65283 342.083 -4.84766L342.083 0L339.46 0L339.46 -8.5L342.083 -8.5L342.083 -7.15527L342.117 -7.15527Q343.055 -8.70752 344.848 -8.70752Q347.67 -8.70752 347.67 -5.20459L347.67 0ZM357.382 -3.50293L351.837 -3.50293Q351.97 -1.65186 354.169 -1.65186Q355.572 -1.65186 356.635 -2.31592L356.635 -0.42334Q355.456 0.20752 353.572 0.20752Q351.513 0.20752 350.376 -0.933838Q349.239 -2.0752 349.239 -4.11719Q349.239 -6.23389 350.467 -7.4707Q351.696 -8.70752 353.489 -8.70752Q355.348 -8.70752 356.365 -7.60352Q357.382 -6.49951 357.382 -4.60693L357.382 -3.50293ZM354.95 -5.11328Q354.95 -6.93945 353.472 -6.93945Q352.841 -6.93945 352.381 -6.4165Q351.92 -5.89355 351.82 -5.11328L354.95 -5.11328ZM363.076 -0.224121L363.076 -2.34912Q363.724 -1.95898 364.367 -1.76807Q365.01 -1.57715 365.583 -1.57715Q366.28 -1.57715 366.683 -1.76807Q367.085 -1.95898 367.085 -2.34912Q367.085 -2.59814 366.903 -2.76416Q366.72 -2.93018 366.434 -3.05469Q366.147 -3.1792 365.807 -3.27881Q365.467 -3.37842 365.151 -3.50293Q364.645 -3.69385 364.259 -3.91382Q363.873 -4.13379 363.612 -4.42432Q363.35 -4.71484 363.213 -5.09668Q363.076 -5.47852 363.076 -6.00146Q363.076 -6.71533 363.387 -7.22998Q363.699 -7.74463 364.218 -8.07251Q364.736 -8.40039 365.405 -8.55396Q366.073 -8.70752 366.795 -8.70752Q367.359 -8.70752 367.94 -8.62036Q368.521 -8.5332 369.086 -8.36719L369.086 -6.3418Q368.588 -6.63232 368.019 -6.77759Q367.451 -6.92285 366.903 -6.92285Q366.646 -6.92285 366.417 -6.8772Q366.189 -6.83154 366.015 -6.74438Q365.84 -6.65723 365.741 -6.52026Q365.641 -6.3833 365.641 -6.20898Q365.641 -5.97656 365.791 -5.81055Q365.94 -5.64453 366.181 -5.52417Q366.421 -5.40381 366.716 -5.30835Q367.011 -5.21289 367.301 -5.11328Q367.824 -4.93066 368.248 -4.71484Q368.671 -4.49902 368.974 -4.2085Q369.277 -3.91797 369.439 -3.52783Q369.601 -3.1377 369.601 -2.59814Q369.601 -1.84277 369.273 -1.30737Q368.945 -0.771973 368.401 -0.435791Q367.857 -0.0996094 367.148 0.0539551Q366.438 0.20752 365.674 0.20752Q364.271 0.20752 363.076 -0.224121ZM376.25 -0.0996094Q375.668 0.20752 374.498 0.20752Q371.726 0.20752 371.726 -2.67285L371.726 -6.56592L370.348 -6.56592L370.348 -8.5L371.726 -8.5L371.726 -10.3345L374.34 -11.0815L374.34 -8.5L376.25 -8.5L376.25 -6.56592L374.34 -6.56592L374.34 -3.12939Q374.34 -1.80127 375.395 -1.80127Q375.81 -1.80127 376.25 -2.04199L376.25 -0.0996094ZM385.82 -8.5L382.367 0.680664Q381.122 3.99268 378.615 3.99268Q377.661 3.99268 377.046 3.77686L377.046 1.68506Q377.569 1.99219 378.184 1.99219Q379.196 1.99219 379.595 1.0376L380.043 -0.0166016L376.59 -8.5L379.495 -8.5L381.081 -3.32861Q381.23 -2.84717 381.313 -2.19141L381.346 -2.19141Q381.421 -2.67285 381.62 -3.31201L383.222 -8.5L385.82 -8.5ZM389.498 0L386.875 0L386.875 -12.584L389.498 -12.584L389.498 0ZM399.342 -3.50293L393.797 -3.50293Q393.93 -1.65186 396.13 -1.65186Q397.533 -1.65186 398.595 -2.31592L398.595 -0.42334Q397.417 0.20752 395.532 0.20752Q393.474 0.20752 392.336 -0.933838Q391.199 -2.0752 391.199 -4.11719Q391.199 -6.23389 392.428 -7.4707Q393.656 -8.70752 395.449 -8.70752Q397.309 -8.70752 398.325 -7.60352Q399.342 -6.49951 399.342 -4.60693L399.342 -3.50293ZM396.91 -5.11328Q396.91 -6.93945 395.433 -6.93945Q394.802 -6.93945 394.341 -6.4165Q393.88 -5.89355 393.781 -5.11328L396.91 -5.11328Z" fill="#000000" transform="translate(450,23.299999999999997) translate(-199.8994140625,0)" />
<rect x="75.95064019097222" y="40.4" width="804.0493598090278" height="359.6" fill="#FFFFFF" />
<line x1="102.75228551793981" y1="40.4" x2="102.75228551793981" y2="400" stroke="#B0B0B0" stroke-width="0.8" />
<line x1="209.9588668258102" y1="40.4" x2="209.9588668258102" y2="400" stroke="#B0B0B0" stroke-width="0.8" />
<line x1="317.16544813368057" y1="40.4" x2="317.16544813368057" y2="400" stroke="#B0B0B0" stroke-width="0.8" />
<line x1="424.3720294415509" y1="40.4" x2="424.3720294415509" y2="400" stroke="#B0B0B0" stroke-width="0.8" />
<line x1="531.5786107494214" y1="40.4" x2="531.5786107494214" y2="400" stroke="#B0B0B0" stroke-width="0.8" />
<line x1="638.7851920572917" y1="40.4" x2="638.7851920572917" y2="400" stroke="#B0B0B0" stroke-width="0.8" />
<line x1="745.9917733651621" y1="40.4" x2="745.9917733651621" y2="400" stroke="#B0B0B0" stroke-width="0.8" />
<line x1="853.1983546730326" y1="40.4" x2="853.1983546730326" y2="400" stroke="#B0B0B0" stroke-width="0.8" />
<line x1="75.95064019097222" y1="400" x2="880" y2="400" stroke="#B0B0B0" stroke-width="0.8" />
<line x1="75.95064019097222" y1="340.06666666666666" x2="880" y2="340.06666666666666" stroke="#B0B0B0" stroke-width="0.8" />
<line x1="75.95064019097222" y1="280.1333333333333" x2="880" y2="280.1333333333333" stroke="#B0B0B0" stroke-width="0.8" />
<line x1="75.95064019097222" y1="220.2" x2="880" y2="220.2" stroke="#B0B0B0" stroke-width="0.8" />
<line x1="75.95064019097222" y1="160.26666666666665" x2="880" y2="160.26666666666665" stroke="#B0B0B0" stroke-width="0.8" />
<line x1="75.95064019097222" y1="100.33333333333331" x2="880" y2="100.33333333333331" stroke="#B0B0B0" stroke-width="0.8" />
<line x1="75.95064019097222" y1="40.39999999999998" x2="880" y2="40.39999999999998" stroke="#B0B0B0" stroke-width="0.8" />
<line x1="102.75228551793981" y1="399.6" x2="102.75228551793981" y2="404.8611111111111" stroke="#000000" stroke-width="1.1111111111111112" />
<path d="M4.37988 -3.21191L0.914063 -3.21191L0.914063 -4.03076L4.37988 -4.03076L4.37988 -3.21191ZM10.0991 -6.71582Q10.0991 -7.13477 9.96899 -7.4458Q9.83887 -7.75684 9.61353 -7.96313Q9.38818 -8.16943 9.0835 -8.271Q8.77881 -8.37256 8.42334 -8.37256Q8.11865 -8.37256 7.82666 -8.29004Q7.53467 -8.20752 7.25854 -8.06152Q6.98242 -7.91553 6.72534 -7.7124Q6.46826 -7.50928 6.24609 -7.26172L6.24609 -8.37891Q6.68408 -8.8042 7.22681 -9.02954Q7.76953 -9.25488 8.55029 -9.25488Q9.10889 -9.25488 9.58496 -9.09302Q10.061 -8.93115 10.4102 -8.62012Q10.7593 -8.30908 10.9592 -7.85205Q11.1592 -7.39502 11.1592 -6.80469Q11.1592 -6.26514 11.0354 -5.82715Q10.9116 -5.38916 10.6609 -5.00195Q10.4102 -4.61475 10.0293 -4.25928Q9.64844 -3.90381 9.13428 -3.53564Q8.49316 -3.07861 8.07739 -2.75488Q7.66162 -2.43115 7.41724 -2.14868Q7.17285 -1.86621 7.07446 -1.58374Q6.97607 -1.30127 6.97607 -0.933105L11.5083 -0.933105L11.5083 0L5.89063 0L5.89063 -0.450684Q5.89063 -1.03467 6.01758 -1.479Q6.14453 -1.92334 6.43652 -2.32324Q6.72852 -2.72314 7.20142 -3.12305Q7.67432 -3.52295 8.35986 -4.02441Q8.85498 -4.37988 9.18823 -4.70361Q9.52148 -5.02734 9.72461 -5.35107Q9.92773 -5.6748 10.0134 -6.00806Q10.0991 -6.34131 10.0991 -6.71582Z" fill="#000000" transform="translate(102.75228551793981,422.7222222222222) translate(-6.103271484375,0)" />
<line x1="209.9588668258102" y1="399.6" x2="209.9588668258102" y2="404.8611111111111" stroke="#000000" stroke-width="1.1111111111111112" />
<path d="M6.47461 -4.58936Q6.47461 -3.44678 6.26831 -2.56445Q6.06201 -1.68213 5.67163 -1.07593Q5.28125 -0.469727 4.71313 -0.155518Q4.14502 0.158691 3.42139 0.158691Q2.73584 0.158691 2.19946 -0.142822Q1.66309 -0.444336 1.29492 -1.02197Q0.926758 -1.59961 0.736328 -2.44067Q0.545898 -3.28174 0.545898 -4.36719Q0.545898 -5.56055 0.74585 -6.47461Q0.945801 -7.38867 1.33301 -8.00757Q1.72021 -8.62646 2.29468 -8.94067Q2.86914 -9.25488 3.61182 -9.25488Q6.47461 -9.25488 6.47461 -4.58936ZM5.4082 -4.48779Q5.4082 -8.37256 3.56104 -8.37256Q1.6123 -8.37256 1.6123 -4.41797Q1.6123 -0.72998 3.52295 -0.72998Q5.4082 -0.72998 5.4082 -4.48779Z" fill="#000000" transform="translate(209.9588668258102,422.7222222222222) translate(-3.50390625,0)" />
<line x1="317.16544813368057" y1="399.6" x2="317.16544813368057" y2="404.8611111111111" stroke="#000000" stroke-width="1.1111111111111112" />
<path d="M4.90039 -6.71582Q4.90039 -7.13477 4.77026 -7.4458Q4.64014 -7.75684 4.41479 -7.96313Q4.18945 -8.16943 3.88477 -8.271Q3.58008 -8.37256 3.22461 -8.37256Q2.91992 -8.37256 2.62793 -8.29004Q2.33594 -8.20752 2.05981 -8.06152Q1.78369 -7.91553 1.52661 -7.7124Q1.26953 -7.50928 1.04736 -7.26172L1.04736 -8.37891Q1.48535 -8.8042 2.02808 -9.02954Q2.5708 -9.25488 3.35156 -9.25488Q3.91016 -9.25488 4.38623 -9.09302Q4.8623 -8.93115 5.21143 -8.62012Q5.56055 -8.30908 5.7605 -7.85205Q5.96045 -7.39502 5.96045 -6.80469Q5.96045 -6.26514 5.83667 -5.82715Q5.71289 -5.38916 5.46216 -5.00195Q5.21143 -4.61475 4.83057 -4.25928Q4.44971 -3.90381 3.93555 -3.53564Q3.29443 -3.07861 2.87866 -2.75488Q2.46289 -2.43115 2.21851 -2.14868Q1.97412 -1.86621 1.87573 -1.58374Q1.77734 -1.30127 1.77734 -0.933105L6.30957 -0.933105L6.30957 0L0.691895 0L0.691895 -0.450684Q0.691895 -1.03467 0.818848 -1.479Q0.945801 -1.92334 1.23779 -2.32324Q1.52979 -2.72314 2.00269 -3.12305Q2.47559 -3.52295 3.16113 -4.02441Q3.65625 -4.37988 3.9895 -4.70361Q4.32275 -5.02734 4.52588 -5.35107Q4.729 -5.6748 4.8147 -6.00806Q4.90039 -6.34131 4.90039 -6.71582Z" fill="#000000" transform="translate(317.16544813368057,422.7222222222222) translate(-3.50390625,0)" />
<line x1="424.3720294415509" y1="399.6" x2="424.3720294415509" y2="404.8611111111111" stroke="#000000" stroke-width="1.1111111111111112" />
<path d="M5.39551 -9.10254L5.39551 -3.09131L6.56348 -3.09131L6.56348 -2.13916L5.39551 -2.13916L5.39551 0L4.36719 0L4.36719 -2.13916L0.0888672 -2.13916L0.0888672 -3.04053Q0.685547 -3.71338 1.29492 -4.47827Q1.9043 -5.24316 2.45972 -6.03027Q3.01514 -6.81738 3.48804 -7.60132Q3.96094 -8.38525 4.28467 -9.10254L5.39551 -9.10254ZM1.26318 -3.09131L4.36719 -3.09131L4.36719 -7.54736Q3.89111 -6.71582 3.46582 -6.06201Q3.04053 -5.4082 2.65649 -4.875Q2.27246 -4.3418 1.92334 -3.91016Q1.57422 -3.47852 1.26318 -3.09131Z" fill="#000000" transform="translate(424.3720294415509,422.7222222222222) translate(-3.50390625,0)" />
<line x1="531.5786107494214" y1="399.6" x2="531.5786107494214" y2="404.8611111111111" stroke="#000000" stroke-width="1.1111111111111112" />
<path d="M6.4873 -2.88818Q6.4873 -2.22168 6.27148 -1.66309Q6.05566 -1.10449 5.6748 -0.698242Q5.29394 -0.291992 4.76709 -0.0666504Q4.24023 0.158691 3.62451 0.158691Q2.93896 0.158691 2.39624 -0.126953Q1.85352 -0.412598 1.47583 -0.948975Q1.09814 -1.48535 0.901367 -2.25977Q0.70459 -3.03418 0.70459 -4.00537Q0.70459 -5.19238 0.968018 -6.1604Q1.23145 -7.12842 1.71704 -7.81714Q2.20264 -8.50586 2.88818 -8.88037Q3.57373 -9.25488 4.41797 -9.25488Q5.35742 -9.25488 5.92871 -8.99463L5.92871 -8.01074Q5.22412 -8.37256 4.44336 -8.37256Q3.83398 -8.37256 3.34521 -8.09961Q2.85644 -7.82666 2.50732 -7.32837Q2.1582 -6.83008 1.97095 -6.12549Q1.78369 -5.4209 1.78369 -4.55762L1.80908 -4.55762Q2.4375 -5.69385 3.88477 -5.69385Q4.48144 -5.69385 4.96069 -5.49072Q5.43994 -5.2876 5.77954 -4.91626Q6.11914 -4.54492 6.30322 -4.03076Q6.4873 -3.5166 6.4873 -2.88818ZM5.4209 -2.75488Q5.4209 -3.23096 5.30029 -3.61182Q5.17969 -3.99268 4.95435 -4.25928Q4.729 -4.52588 4.39893 -4.6687Q4.06885 -4.81152 3.6499 -4.81152Q3.2627 -4.81152 2.93262 -4.66553Q2.60254 -4.51953 2.36133 -4.2688Q2.12012 -4.01807 1.98364 -3.68481Q1.84717 -3.35156 1.84717 -2.97705Q1.84717 -2.50732 1.98047 -2.0979Q2.11377 -1.68848 2.35498 -1.38379Q2.59619 -1.0791 2.92944 -0.904541Q3.2627 -0.72998 3.66895 -0.72998Q4.0625 -0.72998 4.38623 -0.87915Q4.70996 -1.02832 4.93848 -1.29492Q5.16699 -1.56152 5.29395 -1.93286Q5.4209 -2.3042 5.4209 -2.75488Z" fill="#000000" transform="translate(531.5786107494214,422.7222222222222) translate(-3.50390625,0)" />
<line x1="638.7851920572917" y1="399.6" x2="638.7851920572917" y2="404.8611111111111" stroke="#000000" stroke-width="1.1111111111111112" />
<path d="M0.571289 -2.53906Q0.571289 -2.90088 0.685547 -3.26587Q0.799805 -3.63086 1.01245 -3.94824Q1.2251 -4.26563 1.53931 -4.52588Q1.85352 -4.78613 2.25342 -4.93848Q1.66309 -5.26855 1.31396 -5.78589Q0.964844 -6.30322 0.964844 -6.93164Q0.964844 -7.43311 1.15845 -7.8584Q1.35205 -8.28369 1.69482 -8.59473Q2.0376 -8.90576 2.50732 -9.08032Q2.97705 -9.25488 3.52295 -9.25488Q4.0752 -9.25488 4.54492 -9.07715Q5.01465 -8.89941 5.35742 -8.58838Q5.7002 -8.27734 5.89063 -7.85205Q6.08105 -7.42676 6.08105 -6.93164Q6.08105 -6.30322 5.73193 -5.78589Q5.38281 -5.26855 4.80518 -4.93848Q5.19873 -4.78613 5.50977 -4.52588Q5.8208 -4.26562 6.03345 -3.94824Q6.24609 -3.63086 6.36035 -3.26587Q6.47461 -2.90088 6.47461 -2.53906Q6.47461 -1.94238 6.25879 -1.44727Q6.04297 -0.952148 5.65259 -0.599854Q5.26221 -0.247559 4.71948 -0.0507813Q4.17676 0.145996 3.52295 0.145996Q2.87549 0.145996 2.33594 -0.0507813Q1.79639 -0.247559 1.40283 -0.599854Q1.00928 -0.952148 0.790283 -1.44727Q0.571289 -1.94238 0.571289 -2.53906ZM1.70117 -2.62793Q1.70117 -2.20264 1.8313 -1.85986Q1.96143 -1.51709 2.19946 -1.27588Q2.4375 -1.03467 2.7771 -0.904541Q3.1167 -0.774414 3.5293 -0.774414Q3.9292 -0.774414 4.26563 -0.907715Q4.60205 -1.04102 4.84644 -1.28223Q5.09082 -1.52344 5.22729 -1.86621Q5.36377 -2.20898 5.36377 -2.62793Q5.36377 -3.00879 5.23364 -3.34204Q5.10351 -3.67529 4.8623 -3.9292Q4.62109 -4.1831 4.28467 -4.3291Q3.94824 -4.4751 3.5293 -4.4751Q3.13574 -4.4751 2.80249 -4.33862Q2.46924 -4.20215 2.22485 -3.95776Q1.98047 -3.71338 1.84082 -3.37378Q1.70117 -3.03418 1.70117 -2.62793ZM2.0249 -6.84912Q2.0249 -6.52539 2.14233 -6.24927Q2.25977 -5.97314 2.46606 -5.76685Q2.67236 -5.56055 2.94531 -5.44312Q3.21826 -5.32568 3.5293 -5.32568Q3.84033 -5.32568 4.11646 -5.44629Q4.39258 -5.56689 4.5957 -5.77319Q4.79883 -5.97949 4.91943 -6.25562Q5.04004 -6.53174 5.04004 -6.84912Q5.04004 -7.1792 4.92261 -7.4585Q4.80518 -7.73779 4.60205 -7.94092Q4.39893 -8.14404 4.1228 -8.26147Q3.84668 -8.37891 3.5293 -8.37891Q3.19287 -8.37891 2.91675 -8.2583Q2.64063 -8.13769 2.44067 -7.9314Q2.24072 -7.7251 2.13281 -7.4458Q2.0249 -7.1665 2.0249 -6.84912Z" fill="#000000" transform="translate(638.7851920572917,422.7222222222222) translate(-3.50390625,0)" />
<line x1="745.9917733651621" y1="399.6" x2="745.9917733651621" y2="404.8611111111111" stroke="#000000" stroke-width="1.1111111111111112" />
<path d="M4.5957 0L3.55469 0L3.55469 -7.86475Q3.43408 -7.74414 3.20239 -7.58862Q2.9707 -7.43311 2.68188 -7.28076Q2.39307 -7.12842 2.07251 -6.99512Q1.75195 -6.86182 1.44727 -6.78564L1.44727 -7.83936Q1.79004 -7.93457 2.17407 -8.09644Q2.55811 -8.2583 2.92944 -8.45825Q3.30078 -8.6582 3.63086 -8.8772Q3.96094 -9.09619 4.20215 -9.30566L4.5957 -9.30566L4.5957 0ZM13.4824 -4.58936Q13.4824 -3.44678 13.2761 -2.56445Q13.0698 -1.68213 12.6794 -1.07593Q12.2891 -0.469727 11.7209 -0.155518Q11.1528 0.158691 10.4292 0.158691Q9.74365 0.158691 9.20728 -0.142822Q8.6709 -0.444336 8.30273 -1.02197Q7.93457 -1.59961 7.74414 -2.44067Q7.55371 -3.28174 7.55371 -4.36719Q7.55371 -5.56055 7.75366 -6.47461Q7.95361 -7.38867 8.34082 -8.00757Q8.72803 -8.62646 9.30249 -8.94067Q9.87695 -9.25488 10.6196 -9.25488Q13.4824 -9.25488 13.4824 -4.58936ZM12.416 -4.48779Q12.416 -8.37256 10.5688 -8.37256Q8.62012 -8.37256 8.62012 -4.41797Q8.62012 -0.72998 10.5308 -0.72998Q12.416 -0.72998 12.416 -4.48779Z" fill="#000000" transform="translate(745.9917733651621,422.7222222222222) translate(-7.0078125,0)" />
<line x1="853.1983546730326" y1="399.6" x2="853.1983546730326" y2="404.8611111111111" stroke="#000000" stroke-width="1.1111111111111112" />
<path d="M4.5957 0L3.55469 0L3.55469 -7.86475Q3.43408 -7.74414 3.20239 -7.58862Q2.9707 -7.43311 2.68188 -7.28076Q2.39307 -7.12842 2.07251 -6.99512Q1.75195 -6.86182 1.44727 -6.78564L1.44727 -7.83936Q1.79004 -7.93457 2.17407 -8.09644Q2.55811 -8.2583 2.92944 -8.45825Q3.30078 -8.6582 3.63086 -8.8772Q3.96094 -9.09619 4.20215 -9.30566L4.5957 -9.30566L4.5957 0ZM11.9082 -6.71582Q11.9082 -7.13477 11.7781 -7.4458Q11.6479 -7.75684 11.4226 -7.96313Q11.1973 -8.16943 10.8926 -8.271Q10.5879 -8.37256 10.2324 -8.37256Q9.92773 -8.37256 9.63574 -8.29004Q9.34375 -8.20752 9.06763 -8.06152Q8.7915 -7.91553 8.53442 -7.7124Q8.27734 -7.50928 8.05518 -7.26172L8.05518 -8.37891Q8.49316 -8.8042 9.03589 -9.02954Q9.57861 -9.25488 10.3594 -9.25488Q10.918 -9.25488 11.394 -9.09302Q11.8701 -8.93115 12.2192 -8.62012Q12.5684 -8.30908 12.7683 -7.85205Q12.9683 -7.39502 12.9683 -6.80469Q12.9683 -6.26514 12.8445 -5.82715Q12.7207 -5.38916 12.47 -5.00195Q12.2192 -4.61475 11.8384 -4.25928Q11.4575 -3.90381 10.9434 -3.53564Q10.3022 -3.07861 9.88647 -2.75488Q9.4707 -2.43115 9.22632 -2.14868Q8.98193 -1.86621 8.88354 -1.58374Q8.78516 -1.30127 8.78516 -0.933105L13.3174 -0.933105L13.3174 0L7.69971 0L7.69971 -0.450684Q7.69971 -1.03467 7.82666 -1.479Q7.95361 -1.92334 8.24561 -2.32324Q8.5376 -2.72314 9.0105 -3.12305Q9.4834 -3.52295 10.1689 -4.02441Q10.6641 -4.37988 10.9973 -4.70361Q11.3306 -5.02734 11.5337 -5.35107Q11.7368 -5.6748 11.8225 -6.00806Q11.9082 -6.34131 11.9082 -6.71582Z" fill="#000000" transform="translate(853.1983546730326,422.7222222222222) translate(-7.0078125,0)" />
<line x1="71.08952907986111" y1="400" x2="76.35064019097223" y2="400" stroke="#000000" stroke-width="1.1111111111111112" />
<path d="M4.37988 -3.21191L0.914063 -3.21191L0.914063 -4.03076L4.37988 -4.03076L4.37988 -3.21191ZM9.79443 0L8.75342 0L8.75342 -7.86475Q8.63281 -7.74414 8.40112 -7.58862Q8.16943 -7.43311 7.88062 -7.28076Q7.5918 -7.12842 7.27124 -6.99512Q6.95068 -6.86182 6.646 -6.78564L6.646 -7.83936Q6.98877 -7.93457 7.3728 -8.09644Q7.75684 -8.2583 8.12817 -8.45825Q8.49951 -8.6582 8.82959 -8.8772Q9.15967 -9.09619 9.40088 -9.30566L9.79443 -9.30566L9.79443 0ZM13.6221 0.139648Q13.3301 0.139648 13.1238 -0.0698242Q12.9175 -0.279297 12.9175 -0.571289Q12.9175 -0.863281 13.1238 -1.07593Q13.3301 -1.28857 13.6221 -1.28857Q13.9204 -1.28857 14.1299 -1.07593Q14.3394 -0.863281 14.3394 -0.571289Q14.3394 -0.279297 14.1299 -0.0698242Q13.9204 0.139648 13.6221 0.139648ZM21.1758 -2.78027Q21.1758 -2.11377 20.9473 -1.57422Q20.7188 -1.03467 20.2966 -0.647461Q19.8745 -0.260254 19.2778 -0.0507813Q18.6812 0.158691 17.9512 0.158691Q16.6816 0.158691 16.0659 -0.222168L16.0659 -1.32666Q16.9927 -0.729981 17.9639 -0.72998Q18.459 -0.72998 18.8557 -0.875977Q19.2524 -1.02197 19.5317 -1.28223Q19.811 -1.54248 19.9602 -1.91064Q20.1094 -2.27881 20.1094 -2.7168Q20.1094 -3.60547 19.5127 -4.11011Q18.916 -4.61475 17.7798 -4.61475Q17.5957 -4.61475 17.3926 -4.6084Q17.1895 -4.60205 16.9863 -4.59253Q16.7832 -4.58301 16.5896 -4.57031Q16.396 -4.55762 16.2373 -4.53857L16.5483 -9.10254L20.7568 -9.10254L20.7568 -8.16309L17.4497 -8.16309L17.2656 -5.49072Q17.4688 -5.50342 17.6973 -5.51294Q17.9258 -5.52246 18.1035 -5.52246Q18.8271 -5.52246 19.3984 -5.33203Q19.9697 -5.1416 20.3665 -4.78931Q20.7632 -4.43701 20.9695 -3.92603Q21.1758 -3.41504 21.1758 -2.78027Z" fill="#000000" transform="translate(66.22841796875,404) translate(-22.03271484375,0)" />
<line x1="71.08952907986111" y1="340.06666666666666" x2="76.35064019097223" y2="340.06666666666666" stroke="#000000" stroke-width="1.1111111111111112" />
<path d="M4.37988 -3.21191L0.914063 -3.21191L0.914063 -4.03076L4.37988 -4.03076L4.37988 -3.21191ZM9.79443 0L8.75342 0L8.75342 -7.86475Q8.63281 -7.74414 8.40112 -7.58862Q8.16943 -7.43311 7.88062 -7.28076Q7.5918 -7.12842 7.27124 -6.99512Q6.95068 -6.86182 6.646 -6.78564L6.646 -7.83936Q6.98877 -7.93457 7.3728 -8.09644Q7.75684 -8.2583 8.12817 -8.45825Q8.49951 -8.6582 8.82959 -8.8772Q9.15967 -9.09619 9.40088 -9.30566L9.79443 -9.30566L9.79443 0ZM13.6221 0.139648Q13.3301 0.139648 13.1238 -0.0698242Q12.9175 -0.279297 12.9175 -0.571289Q12.9175 -0.863281 13.1238 -1.07593Q13.3301 -1.28857 13.6221 -1.28857Q13.9204 -1.28857 14.1299 -1.07593Q14.3394 -0.863281 14.3394 -0.571289Q14.3394 -0.279297 14.1299 -0.0698242Q13.9204 0.139648 13.6221 0.139648ZM21.4995 -4.58936Q21.4995 -3.44678 21.2932 -2.56445Q21.0869 -1.68213 20.6965 -1.07593Q20.3062 -0.469727 19.738 -0.155518Q19.1699 0.158691 18.4463 0.158691Q17.7607 0.158691 17.2244 -0.142822Q16.688 -0.444336 16.3198 -1.02197Q15.9517 -1.59961 15.7612 -2.44067Q15.5708 -3.28174 15.5708 -4.36719Q15.5708 -5.56055 15.7708 -6.47461Q15.9707 -7.38867 16.3579 -8.00757Q16.7451 -8.62646 17.3196 -8.94067Q17.894 -9.25488 18.6367 -9.25488Q21.4995 -9.25488 21.4995 -4.58936ZM20.4331 -4.48779Q20.4331 -8.37256 18.5859 -8.37256Q16.6372 -8.37256 16.6372 -4.41797Q16.6372 -0.72998 18.5479 -0.72998Q20.4331 -0.72998 20.4331 -4.48779Z" fill="#000000" transform="translate(66.22841796875,344.06666666666666) translate(-22.03271484375,0)" />
<line x1="71.08952907986111" y1="280.1333333333333" x2="76.35064019097223" y2="280.1333333333333" stroke="#000000" stroke-width="1.1111111111111112" />
<path d="M4.37988 -3.21191L0.914063 -3.21191L0.914063 -4.03076L4.37988 -4.03076L4.37988 -3.21191ZM11.6733 -4.58936Q11.6733 -3.44678 11.467 -2.56445Q11.2607 -1.68213 10.8704 -1.07593Q10.48 -0.469727 9.91187 -0.155518Q9.34375 0.158691 8.62012 0.158691Q7.93457 0.158691 7.39819 -0.142822Q6.86182 -0.444336 6.49365 -1.02197Q6.12549 -1.59961 5.93506 -2.44067Q5.74463 -3.28174 5.74463 -4.36719Q5.74463 -5.56055 5.94458 -6.47461Q6.14453 -7.38867 6.53174 -8.00757Q6.91895 -8.62646 7.49341 -8.94067Q8.06787 -9.25488 8.81055 -9.25488Q11.6733 -9.25488 11.6733 -4.58936ZM10.6069 -4.48779Q10.6069 -8.37256 8.75977 -8.37256Q6.81104 -8.37256 6.81104 -4.41797Q6.81104 -0.72998 8.72168 -0.72998Q10.6069 -0.72998 10.6069 -4.48779ZM13.6221 0.139648Q13.3301 0.139648 13.1238 -0.0698242Q12.9175 -0.279297 12.9175 -0.571289Q12.9175 -0.863281 13.1238 -1.07593Q13.3301 -1.28857 13.6221 -1.28857Q13.9204 -1.28857 14.1299 -1.07593Q14.3394 -0.863281 14.3394 -0.571289Q14.3394 -0.279297 14.1299 -0.0698242Q13.9204 0.139648 13.6221 0.139648ZM21.1758 -2.78027Q21.1758 -2.11377 20.9473 -1.57422Q20.7188 -1.03467 20.2966 -0.647461Q19.8745 -0.260254 19.2778 -0.0507813Q18.6812 0.158691 17.9512 0.158691Q16.6816 0.158691 16.0659 -0.222168L16.0659 -1.32666Q16.9927 -0.729981 17.9639 -0.72998Q18.459 -0.72998 18.8557 -0.875977Q19.2524 -1.02197 19.5317 -1.28223Q19.811 -1.54248 19.9602 -1.91064Q20.1094 -2.27881 20.1094 -2.7168Q20.1094 -3.60547 19.5127 -4.11011Q18.916 -4.61475 17.7798 -4.61475Q17.5957 -4.61475 17.3926 -4.6084Q17.1895 -4.60205 16.9863 -4.59253Q16.7832 -4.58301 16.5896 -4.57031Q16.396 -4.55762 16.2373 -4.53857L16.5483 -9.10254L20.7568 -9.10254L20.7568 -8.16309L17.4497 -8.16309L17.2656 -5.49072Q17.4688 -5.50342 17.6973 -5.51294Q17.9258 -5.52246 18.1035 -5.52246Q18.8271 -5.52246 19.3984 -5.33203Q19.9697 -5.1416 20.3665 -4.78931Q20.7632 -4.43701 20.9695 -3.92603Q21.1758 -3.41504 21.1758 -2.78027Z" fill="#000000" transform="translate(66.22841796875,284.1333333333333) translate(-22.03271484375,0)" />
<line x1="71.08952907986111" y1="220.2" x2="76.35064019097223" y2="220.2" stroke="#000000" stroke-width="1.1111111111111112" />
<path d="M6.47461 -4.58936Q6.47461 -3.44678 6.26831 -2.56445Q6.06201 -1.68213 5.67163 -1.07593Q5.28125 -0.469727 4.71313 -0.155518Q4.14502 0.158691 3.42139 0.158691Q2.73584 0.158691 2.19946 -0.142822Q1.66309 -0.444336 1.29492 -1.02197Q0.926758 -1.59961 0.736328 -2.44067Q0.545898 -3.28174 0.545898 -4.36719Q0.545898 -5.56055 0.74585 -6.47461Q0.945801 -7.38867 1.33301 -8.00757Q1.72021 -8.62646 2.29468 -8.94067Q2.86914 -9.25488 3.61182 -9.25488Q6.47461 -9.25488 6.47461 -4.58936ZM5.4082 -4.48779Q5.4082 -8.37256 3.56104 -8.37256Q1.6123 -8.37256 1.6123 -4.41797Q1.6123 -0.72998 3.52295 -0.72998Q5.4082 -0.72998 5.4082 -4.48779ZM8.42334 0.139648Q8.13135 0.139648 7.92505 -0.0698242Q7.71875 -0.279297 7.71875 -0.571289Q7.71875 -0.863281 7.92505 -1.07593Q8.13135 -1.28857 8.42334 -1.28857Q8.72168 -1.28857 8.93115 -1.07593Q9.14063 -0.863281 9.14063 -0.571289Q9.14063 -0.279297 8.93115 -0.0698242Q8.72168 0.139648 8.42334 0.139648ZM16.3008 -4.58936Q16.3008 -3.44678 16.0945 -2.56445Q15.8882 -1.68213 15.4978 -1.07593Q15.1074 -0.469727 14.5393 -0.155518Q13.9712 0.158691 13.2476 0.158691Q12.562 0.158691 12.0256 -0.142822Q11.4893 -0.444336 11.1211 -1.02197Q10.7529 -1.59961 10.5625 -2.44067Q10.3721 -3.28174 10.3721 -4.36719Q10.3721 -5.56055 10.572 -6.47461Q10.772 -7.38867 11.1592 -8.00757Q11.5464 -8.62646 12.1208 -8.94067Q12.6953 -9.25488 13.438 -9.25488Q16.3008 -9.25488 16.3008 -4.58936ZM15.2344 -4.48779Q15.2344 -8.37256 13.3872 -8.37256Q11.4385 -8.37256 11.4385 -4.41797Q11.4385 -0.72998 13.3491 -0.72998Q15.2344 -0.72998 15.2344 -4.48779Z" fill="#000000" transform="translate(66.22841796875,224.2) translate(-16.833984375,0)" />
<line x1="71.08952907986111" y1="160.26666666666665" x2="76.35064019097223" y2="160.26666666666665" stroke="#000000" stroke-width="1.1111111111111112" />
<path d="M6.47461 -4.58936Q6.47461 -3.44678 6.26831 -2.56445Q6.06201 -1.68213 5.67163 -1.07593Q5.28125 -0.469727 4.71313 -0.155518Q4.14502 0.158691 3.42139 0.158691Q2.73584 0.158691 2.19946 -0.142822Q1.66309 -0.444336 1.29492 -1.02197Q0.926758 -1.59961 0.736328 -2.44067Q0.545898 -3.28174 0.545898 -4.36719Q0.545898 -5.56055 0.74585 -6.47461Q0.945801 -7.38867 1.33301 -8.00757Q1.72021 -8.62646 2.29468 -8.94067Q2.86914 -9.25488 3.61182 -9.25488Q6.47461 -9.25488 6.47461 -4.58936ZM5.4082 -4.48779Q5.4082 -8.37256 3.56104 -8.37256Q1.6123 -8.37256 1.6123 -4.41797Q1.6123 -0.72998 3.52295 -0.72998Q5.4082 -0.72998 5.4082 -4.48779ZM8.42334 0.139648Q8.13135 0.139648 7.92505 -0.0698242Q7.71875 -0.279297 7.71875 -0.571289Q7.71875 -0.863281 7.92505 -1.07593Q8.13135 -1.28857 8.42334 -1.28857Q8.72168 -1.28857 8.93115 -1.07593Q9.14063 -0.863281 9.14063 -0.571289Q9.14063 -0.279297 8.93115 -0.0698242Q8.72168 0.139648 8.42334 0.139648ZM15.9771 -2.78027Q15.977 -2.11377 15.7485 -1.57422Q15.52 -1.03467 15.0979 -0.647461Q14.6758 -0.260254 14.0791 -0.0507813Q13.4824 0.158691 12.7524 0.158691Q11.4829 0.158691 10.8672 -0.222168L10.8672 -1.32666Q11.7939 -0.729981 12.7651 -0.72998Q13.2603 -0.72998 13.657 -0.875977Q14.0537 -1.02197 14.333 -1.28223Q14.6123 -1.54248 14.7615 -1.91064Q14.9106 -2.27881 14.9106 -2.7168Q14.9106 -3.60547 14.314 -4.11011Q13.7173 -4.61475 12.5811 -4.61475Q12.397 -4.61475 12.1938 -4.6084Q11.9907 -4.60205 11.7876 -4.59253Q11.5845 -4.58301 11.3909 -4.57031Q11.1973 -4.55762 11.0386 -4.53857L11.3496 -9.10254L15.5581 -9.10254L15.5581 -8.16309L12.251 -8.16309L12.0669 -5.49072Q12.27 -5.50342 12.4985 -5.51294Q12.7271 -5.52246 12.9048 -5.52246Q13.6284 -5.52246 14.1997 -5.33203Q14.771 -5.1416 15.1677 -4.78931Q15.5645 -4.43701 15.7708 -3.92603Q15.9771 -3.41504 15.9771 -2.78027Z" fill="#000000" transform="translate(66.22841796875,164.26666666666665) translate(-16.833984375,0)" />
<line x1="71.08952907986111" y1="100.33333333333331" x2="76.35064019097223" y2="100.33333333333331" stroke="#000000" stroke-width="1.1111111111111112" />
<path d="M4.5957 0L3.55469 0L3.55469 -7.86475Q3.43408 -7.74414 3.20239 -7.58862Q2.9707 -7.43311 2.68188 -7.28076Q2.39307 -7.12842 2.07251 -6.99512Q1.75195 -6.86182 1.44727 -6.78564L1.44727 -7.83936Q1.79004 -7.93457 2.17407 -8.09644Q2.55811 -8.2583 2.92944 -8.45825Q3.30078 -8.6582 3.63086 -8.8772Q3.96094 -9.09619 4.20215 -9.30566L4.5957 -9.30566L4.5957 0ZM8.42334 0.139648Q8.13135 0.139648 7.92505 -0.0698242Q7.71875 -0.279297 7.71875 -0.571289Q7.71875 -0.863281 7.92505 -1.07593Q8.13135 -1.28857 8.42334 -1.28857Q8.72168 -1.28857 8.93115 -1.07593Q9.14063 -0.863281 9.14063 -0.571289Q9.14063 -0.279297 8.93115 -0.0698242Q8.72168 0.139648 8.42334 0.139648ZM16.3008 -4.58936Q16.3008 -3.44678 16.0945 -2.56445Q15.8882 -1.68213 15.4978 -1.07593Q15.1074 -0.469727 14.5393 -0.155518Q13.9712 0.158691 13.2476 0.158691Q12.562 0.158691 12.0256 -0.142822Q11.4893 -0.444336 11.1211 -1.02197Q10.7529 -1.59961 10.5625 -2.44067Q10.3721 -3.28174 10.3721 -4.36719Q10.3721 -5.56055 10.572 -6.47461Q10.772 -7.38867 11.1592 -8.00757Q11.5464 -8.62646 12.1208 -8.94067Q12.6953 -9.25488 13.438 -9.25488Q16.3008 -9.25488 16.3008 -4.58936ZM15.2344 -4.48779Q15.2344 -8.37256 13.3872 -8.37256Q11.4385 -8.37256 11.4385 -4.41797Q11.4385 -0.72998 13.3491 -0.72998Q15.2344 -0.72998 15.2344 -4.48779Z" fill="#000000" transform="translate(66.22841796875,104.33333333333331) translate(-16.833984375,0)" />
<line x1="71.08952907986111" y1="40.39999999999998" x2="76.35064019097223" y2="40.39999999999998" stroke="#000000" stroke-width="1.1111111111111112" />
<path d="M4.5957 0L3.55469 0L3.55469 -7.86475Q3.43408 -7.74414 3.20239 -7.58862Q2.9707 -7.43311 2.68188 -7.28076Q2.39307 -7.12842 2.07251 -6.99512Q1.75195 -6.86182 1.44727 -6.78564L1.44727 -7.83936Q1.79004 -7.93457 2.17407 -8.09644Q2.55811 -8.2583 2.92944 -8.45825Q3.30078 -8.6582 3.63086 -8.8772Q3.96094 -9.09619 4.20215 -9.30566L4.5957 -9.30566L4.5957 0ZM8.42334 0.139648Q8.13135 0.139648 7.92505 -0.0698242Q7.71875 -0.279297 7.71875 -0.571289Q7.71875 -0.863281 7.92505 -1.07593Q8.13135 -1.28857 8.42334 -1.28857Q8.72168 -1.28857 8.93115 -1.07593Q9.14063 -0.863281 9.14063 -0.571289Q9.14063 -0.279297 8.93115 -0.0698242Q8.72168 0.139648 8.42334 0.139648ZM15.9771 -2.78027Q15.977 -2.11377 15.7485 -1.57422Q15.52 -1.03467 15.0979 -0.647461Q14.6758 -0.260254 14.0791 -0.0507813Q13.4824 0.158691 12.7524 0.158691Q11.4829 0.158691 10.8672 -0.222168L10.8672 -1.32666Q11.7939 -0.729981 12.7651 -0.72998Q13.2603 -0.72998 13.657 -0.875977Q14.0537 -1.02197 14.333 -1.28223Q14.6123 -1.54248 14.7615 -1.91064Q14.9106 -2.27881 14.9106 -2.7168Q14.9106 -3.60547 14.314 -4.11011Q13.7173 -4.61475 12.5811 -4.61475Q12.397 -4.61475 12.1938 -4.6084Q11.9907 -4.60205 11.7876 -4.59253Q11.5845 -4.58301 11.3909 -4.57031Q11.1973 -4.55762 11.0386 -4.53857L11.3496 -9.10254L15.5581 -9.10254L15.5581 -8.16309L12.251 -8.16309L12.0669 -5.49072Q12.27 -5.50342 12.4985 -5.51294Q12.7271 -5.52246 12.9048 -5.52246Q13.6284 -5.52246 14.1997 -5.33203Q14.771 -5.1416 15.1677 -4.78931Q15.5645 -4.43701 15.7708 -3.92603Q15.9771 -3.41504 15.9771 -2.78027Z" fill="#000000" transform="translate(66.22841796875,44.39999999999998) translate(-16.833984375,0)" />
<g class="series" aria-label="sin(x)">
<polyline points="209.9588668258102,220.2 220.67952495659722,196.38616954869866 231.40018308738428,173.52172136860307 242.1208412181713,152.51818885571507 252.84149934895834,134.21291657084384 263.5621574797454,119.33567795436012 274.28281561053245,108.47958156206178 285.00347374131945,102.07742569871654 295.7241318721065,100.3844441154249 306.4447900028935,103.46813064540032 317.16544813368057,111.20554843782827 327.8861062644676,123.28823106215845 338.6067643952547,139.23448009126872 349.3274225260417,158.40856889766715 360.04808065682874,180.04608706797887 370.76873878761575,203.28441503389058 381.4893969184028,227.19711399218593 392.21005504918986,250.8308600962829 402.93071317997686,273.2434504696096 413.6513713107639,293.5413658610006 424.3720294415509,310.915392437577 435.092687572338,324.6728825866421 445.81334570312504,334.2653685902233 456.5340038339121,339.3104283021979 467.25466196469915,339.6069311124561 477.97532009548615,335.1430563896215 488.6959782262732,326.09676473232236 499.4166363570602,312.82870324171097 510.13729448784727,295.86782765962886 520.8579526186344,275.8903145723956 531.5786107494214,253.69260438411123 542.2992688802084,230.15964975105723 553.0199270109954,206.22963531192082 563.7405851417825,182.856575226863 574.4612432725695,160.97227964351873 585.1819014033565,141.4492063669078 595.9025595341436,125.06567871994817 606.6232176649306,112.47485624871297 617.3438757957176,104.17869531249247 628.0645339265047,100.507937667764 638.7851920572917,101.60892483807729 649.5058501880789,107.4377639393179 660.2265083188659,117.76207755048476 670.9471664496529,132.17026786815626 681.6678245804399,150.08792581204082 692.3884827112269,170.80073090235476 703.109140842014,193.48292896318384 713.829798972801,217.2302523356575 724.5504571035881,241.09597017592802 735.2711152343751,264.1286316263311 745.9917733651621,285.4099971586058 756.7124314959492,304.09164588621275 767.4330896267362,319.4287994277337 778.1537477575233,330.81001387065515 788.8744058883103,337.78155611063676 799.5950640190973,340.06549275854434 810.3157221498843,337.5707704676045 821.0363802806713,330.3968459430058 831.7570384114584,318.8297209169158 842.4776965422454,303.33054016195103" fill="none" stroke="#1F77B4" stroke-width="1.5" />
</g>
<g class="series" aria-label="sin(x+1)">
<polyline points="209.9588668258102,119.33567795436012 220.67952495659722,108.4795815620618 231.40018308738428,102.07742569871655 242.1208412181713,100.3844441154249 252.84149934895834,103.46813064540032 263.5621574797454,111.20554843782827 274.28281561053245,123.28823106215845 285.00347374131945,139.23448009126872 295.7241318721065,158.40856889766715 306.4447900028935,180.04608706797882 317.16544813368057,203.28441503389058 327.8861062644676,227.19711399218593 338.6067643952547,250.8308600962829 349.3274225260417,273.2434504696096 360.04808065682874,293.5413658610006 370.76873878761575,310.915392437577 381.4893969184028,324.6728825866421 392.21005504918986,334.2653685902233 402.93071317997686,339.3104283021979 413.6513713107639,339.6069311124561 424.3720294415509,335.1430563896215 435.092687572338,326.09676473232236 445.81334570312504,312.82870324171097 456.5340038339121,295.86782765962886 467.25466196469915,275.8903145723956 477.97532009548615,253.69260438411123 488.6959782262732,230.15964975105723 499.4166363570602,206.22963531192082 510.13729448784727,182.856575226863 520.8579526186344,160.97227964351873 531.5786107494214,141.4492063669078 542.2992688802084,125.06567871994817 553.0199270109954,112.47485624871297 563.7405851417825,104.17869531249247 574.4612432725695,100.507937667764 585.1819014033565,101.60892483807729 595.9025595341436,107.43776393931785 606.6232176649306,117.76207755048476 617.3438757957176,132.1702678681564 628.0645339265047,150.08792581204082 638.7851920572917,170.80073090235476 649.5058501880789,193.48292896318384 660.2265083188659,217.2302523356575 670.9471664496529,241.09597017592782 681.6678245804399,264.1286316263311 692.3884827112269,285.4099971586058 703.109140842014,304.09164588621275 713.829798972801,319.4287994277337 724.5504571035881,330.81001387065515 735.2711152343751,337.78155611063676 745.9917733651621,340.06549275854434 756.7124314959492,337.5707704676045 767.4330896267362,330.3968459430058 778.1537477575233,318.8297209169158 788.8744058883103,303.33054016195103 799.5950640190973,284.5172071043188 810.3157221498843,263.139749964121 821.0363802806713,240.0504204970707 831.7570384114584,216.1697174064262 842.4776965422454,192.44968896449552" fill="none" stroke="#FFA500" stroke-width="1.5" />
</g>
<g class="series" aria-label="sin(x+2)">
<polyline points="209.9588668258102,111.20554843782827 220.67952495659722,123.28823106215845 231.40018308738428,139.2344800912687 242.1208412181713,158.40856889766715 252.84149934895834,180.04608706797882 263.5621574797454,203.28441503389058 274.28281561053245,227.19711399218593 285.00347374131945,250.8308600962829 295.7241318721065,273.2434504696096 306.4447900028935,293.54136586100054 317.16544813368057,310.915392437577 327.8861062644676,324.6728825866421 338.6067643952547,334.2653685902233 349.3274225260417,339.3104283021979 360.04808065682874,339.6069311124561 370.76873878761575,335.1430563896215 381.4893969184028,326.09676473232236 392.21005504918986,312.82870324171097 402.93071317997686,295.867827659629 413.6513713107639,275.8903145723956 424.3720294415509,253.69260438411123 435.092687572338,230.15964975105723 445.81334570312504,206.22963531192082 456.5340038339121,182.856575226863 467.25466196469915,160.97227964351873 477.97532009548615,141.4492063669078 488.6959782262732,125.06567871994817 499.4166363570602,112.47485624871297 510.13729448784727,104.17869531249247 520.8579526186344,100.507937667764 531.5786107494214,101.60892483807729 542.2992688802084,107.43776393931785 553.0199270109954,117.76207755048476 563.7405851417825,132.1702678681564 574.4612432725695,150.08792581204082 585.1819014033565,170.80073090235476 595.9025595341436,193.48292896318364 606.6232176649306,217.2302523356575 617.3438757957176,241.09597017592802 628.0645339265047,264.1286316263311 638.7851920572917,285.4099971586058 649.5058501880789,304.09164588621275 660.2265083188659,319.4287994277337 670.9471664496529,330.8100138706551 681.6678245804399,337.78155611063676 692.3884827112269,340.06549275854434 703.109140842014,337.5707704676045 713.829798972801,330.3968459430058 724.5504571035881,318.8297209169158 735.2711152343751,303.33054016195103 745.9917733651621,284.5172071043188 756.7124314959492,263.139749964121 767.4330896267362,240.0504204970707 778.1537477575233,216.1697174064262 788.8744058883103,192.44968896449552 799.5950640190973,169.83597785237995 810.3157221498843,149.23012137042736 821.0363802806713,131.45360999103315 831.7570384114584,117.2151371258679 842.4776965422454,107.08234575596663" fill="none" stroke="#008000" stroke-width="1.5" />
</g>
<g class="series" aria-label="sin(x+3)">
<polyline points="209.9588668258102,203.28441503389058 220.67952495659722,227.19711399218593 231.40018308738428,250.83086009628283 242.1208412181713,273.2434504696096 252.84149934895834,293.54136586100054 263.5621574797454,310.915392437577 274.28281561053245,324.6728825866421 285.00347374131945,334.2653685902233 295.7241318721065,339.3104283021979 306.4447900028935,339.6069311124561 317.16544813368057,335.1430563896215 327.8861062644676,326.09676473232236 338.6067643952547,312.82870324171097 349.3274225260417,295.867827659629 360.04808065682874,275.8903145723956 370.76873878761575,253.69260438411123 381.4893969184028,230.15964975105723 392.21005504918986,206.22963531192082 402.93071317997686,182.8565752268631 413.6513713107639,160.97227964351873 424.3720294415509,141.4492063669078 435.092687572338,125.06567871994817 445.81334570312504,112.47485624871297 456.5340038339121,104.17869531249247 467.25466196469915,100.507937667764 477.97532009548615,101.60892483807729 488.6959782262732,107.43776393931785 499.4166363570602,117.76207755048476 510.13729448784727,132.1702678681564 520.8579526186344,150.08792581204082 531.5786107494214,170.80073090235476 542.2992688802084,193.48292896318364 553.0199270109954,217.2302523356575 563.7405851417825,241.09597017592802 574.4612432725695,264.1286316263311 585.1819014033565,285.4099971586058 595.9025595341436,304.0916458862126 606.6232176649306,319.4287994277337 617.3438757957176,330.81001387065515 628.0645339265047,337.78155611063676 638.7851920572917,340.06549275854434 649.5058501880789,337.5707704676045 660.2265083188659,330.3968459430058 670.9471664496529,318.8297209169159 681.6678245804399,303.33054016195103 692.3884827112269,284.5172071043188 703.109140842014,263.139749964121 713.829798972801,240.0504204970707 724.5504571035881,216.1697174064262 735.2711152343751,192.44968896449552 745.9917733651621,169.83597785237995 756.7124314959492,149.23012137042736 767.4330896267362,131.45360999103315 778.1537477575233,117.2151371258679 788.8744058883103,107.08234575596663 799.5950640190973,101.45919829737485 810.3157221498843,100.56987189439877 821.0363802806713,104.44982118429326 831.7570384114584,112.94436483275831 842.4776965422454,125.71485219061208" fill="none" stroke="#FF0000" stroke-width="1.5" />
</g>
<g class="spine">
<line x1="75.95064019097222" y1="400" x2="880" y2="400" stroke="#000000" stroke-width="0.8" />
</g>
<g class="spine">
<line x1="75.95064019097222" y1="40.4" x2="880" y2="40.4" stroke="#000000" stroke-width="0.8" />
</g>
<g class="spine">
<line x1="75.95064019097222" y1="40.4" x2="75.95064019097222" y2="400" stroke="#000000" stroke-width="0.8" />
</g>
<g class="spine">
<line x1="880" y1="40.4" x2="880" y2="400" stroke="#000000" stroke-width="0.8" />
</g>
<rect x="771.86513671875" y="50.4" width="98.13486328125" height="71.9" fill="#FFFFFF" fill-opacity="0.8" stroke="#CCCCCC" stroke-width="0.5" />
<g class="legend" aria-label="Chart legend">
<line x1="779.86513671875" y1="62.949999999999996" x2="805.86513671875" y2="62.949999999999996" stroke="#1F77B4" stroke-width="1.5" />
<path d="M0.660156 -0.234863L0.660156 -1.35205Q1.51074 -0.723633 2.53271 -0.723633Q3.90381 -0.723633 3.90381 -1.6377Q3.90381 -1.89795 3.78638 -2.07886Q3.66894 -2.25977 3.46899 -2.39941Q3.26904 -2.53906 2.99927 -2.65015Q2.72949 -2.76123 2.41846 -2.88184Q1.98682 -3.05322 1.65991 -3.22778Q1.33301 -3.40234 1.11401 -3.62134Q0.89502 -3.84033 0.783936 -4.11963Q0.672852 -4.39893 0.672852 -4.77344Q0.672852 -5.23047 0.882324 -5.58276Q1.0918 -5.93506 1.44092 -6.1731Q1.79004 -6.41113 2.23755 -6.53174Q2.68506 -6.65234 3.16113 -6.65234Q4.00537 -6.65234 4.67188 -6.36035L4.67188 -5.30664Q3.95459 -5.77637 3.02148 -5.77637Q2.72949 -5.77637 2.49463 -5.70972Q2.25977 -5.64307 2.09155 -5.52246Q1.92334 -5.40186 1.8313 -5.23364Q1.73926 -5.06543 1.73926 -4.8623Q1.73926 -4.6084 1.8313 -4.43701Q1.92334 -4.26563 2.10107 -4.13232Q2.27881 -3.99902 2.53271 -3.89111Q2.78662 -3.7832 3.11035 -3.65625Q3.54199 -3.49121 3.88477 -3.31665Q4.22754 -3.14209 4.46875 -2.9231Q4.70996 -2.7041 4.84009 -2.41846Q4.97021 -2.13281 4.97021 -1.73926Q4.97021 -1.25684 4.75757 -0.901367Q4.54492 -0.545898 4.18945 -0.311035Q3.83398 -0.0761719 3.37061 0.0380859Q2.90723 0.152344 2.39941 0.152344Q1.39648 0.152344 0.660156 -0.234863ZM7.10303 -8.15039Q6.82373 -8.15039 6.62695 -8.34082Q6.43018 -8.53125 6.43018 -8.82324Q6.43018 -9.11523 6.62695 -9.30884Q6.82373 -9.50244 7.10303 -9.50244Q7.38867 -9.50244 7.58862 -9.30884Q7.78857 -9.11523 7.78857 -8.82324Q7.78857 -8.54395 7.58862 -8.34717Q7.38867 -8.15039 7.10303 -8.15039ZM7.61084 0L6.56982 0L6.56982 -6.5L7.61084 -6.5L7.61084 0ZM15.1138 0L14.0728 0L14.0728 -3.70703Q14.0728 -5.77637 12.562 -5.77637Q11.7813 -5.77637 11.2703 -5.18921Q10.7593 -4.60205 10.7593 -3.70703L10.7593 0L9.71826 0L9.71826 -6.5L10.7593 -6.5L10.7593 -5.4209L10.7847 -5.4209Q11.521 -6.65234 12.9175 -6.65234Q13.9839 -6.65234 14.5488 -5.96362Q15.1138 -5.2749 15.1138 -3.97363L15.1138 0ZM19.8047 2.06934L18.8779 2.06934Q16.9102 -0.177734 16.9102 -3.47217Q16.9102 -6.7793 18.8779 -9.10254L19.8174 -9.10254Q17.8242 -6.69043 17.8242 -3.48486Q17.8242 -0.304688 19.8047 2.06934ZM25.7461 -6.5L23.5625 -3.21191L25.708 0L24.4956 0L23.2197 -2.10742Q23.0991 -2.3042 22.9341 -2.60254L22.9087 -2.60254Q22.877 -2.54541 22.6104 -2.10742L21.3091 0L20.1094 0L22.3247 -3.18652L20.2046 -6.5L21.417 -6.5L22.6738 -4.27832Q22.8135 -4.03076 22.9468 -3.77051L22.9722 -3.77051L24.5972 -6.5L25.7461 -6.5ZM26.9902 2.06934L26.0635 2.06934Q28.0439 -0.304688 28.0439 -3.48486Q28.0439 -6.69043 26.0508 -9.10254L26.9902 -9.10254Q28.9707 -6.7793 28.9707 -3.47217Q28.9707 -0.177734 26.9902 2.06934Z" fill="#000000" transform="translate(816.26513671875,66.5)" />
<line x1="779.86513671875" y1="78.55" x2="805.86513671875" y2="78.55" stroke="#FFA500" stroke-width="1.5" />
<path d="M0.660156 -0.234863L0.660156 -1.35205Q1.51074 -0.723633 2.53271 -0.723633Q3.90381 -0.723633 3.90381 -1.6377Q3.90381 -1.89795 3.78638 -2.07886Q3.66894 -2.25977 3.46899 -2.39941Q3.26904 -2.53906 2.99927 -2.65015Q2.72949 -2.76123 2.41846 -2.88184Q1.98682 -3.05322 1.65991 -3.22778Q1.33301 -3.40234 1.11401 -3.62134Q0.89502 -3.84033 0.783936 -4.11963Q0.672852 -4.39893 0.672852 -4.77344Q0.672852 -5.23047 0.882324 -5.58276Q1.0918 -5.93506 1.44092 -6.1731Q1.79004 -6.41113 2.23755 -6.53174Q2.68506 -6.65234 3.16113 -6.65234Q4.00537 -6.65234 4.67188 -6.36035L4.67188 -5.30664Q3.95459 -5.77637 3.02148 -5.77637Q2.72949 -5.77637 2.49463 -5.70972Q2.25977 -5.64307 2.09155 -5.52246Q1.92334 -5.40186 1.8313 -5.23364Q1.73926 -5.06543 1.73926 -4.8623Q1.73926 -4.6084 1.8313 -4.43701Q1.92334 -4.26563 2.10107 -4.13232Q2.27881 -3.99902 2.53271 -3.89111Q2.78662 -3.7832 3.11035 -3.65625Q3.54199 -3.49121 3.88477 -3.31665Q4.22754 -3.14209 4.46875 -2.9231Q4.70996 -2.7041 4.84009 -2.41846Q4.97021 -2.13281 4.97021 -1.73926Q4.97021 -1.25684 4.75757 -0.901367Q4.54492 -0.545898 4.18945 -0.311035Q3.83398 -0.0761719 3.37061 0.0380859Q2.90723 0.152344 2.39941 0.152344Q1.39648 0.152344 0.660156 -0.234863ZM7.10303 -8.15039Q6.82373 -8.15039 6.62695 -8.34082Q6.43018 -8.53125 6.43018 -8.82324Q6.43018 -9.11523 6.62695 -9.30884Q6.82373 -9.50244 7.10303 -9.50244Q7.38867 -9.50244 7.58862 -9.30884Q7.78857 -9.11523 7.78857 -8.82324Q7.78857 -8.54395 7.58862 -8.34717Q7.38867 -8.15039 7.10303 -8.15039ZM7.61084 0L6.56982 0L6.56982 -6.5L7.61084 -6.5L7.61084 0ZM15.1138 0L14.0728 0L14.0728 -3.70703Q14.0728 -5.77637 12.562 -5.77637Q11.7813 -5.77637 11.2703 -5.18921Q10.7593 -4.60205 10.7593 -3.70703L10.7593 0L9.71826 0L9.71826 -6.5L10.7593 -6.5L10.7593 -5.4209L10.7847 -5.4209Q11.521 -6.65234 12.9175 -6.65234Q13.9839 -6.65234 14.5488 -5.96362Q15.1138 -5.2749 15.1138 -3.97363L15.1138 0ZM19.8047 2.06934L18.8779 2.06934Q16.9102 -0.177734 16.9102 -3.47217Q16.9102 -6.7793 18.8779 -9.10254L19.8174 -9.10254Q17.8242 -6.69043 17.8242 -3.48486Q17.8242 -0.304688 19.8047 2.06934ZM25.7461 -6.5L23.5625 -3.21191L25.708 0L24.4956 0L23.2197 -2.10742Q23.0991 -2.3042 22.9341 -2.60254L22.9087 -2.60254Q22.877 -2.54541 22.6104 -2.10742L21.3091 0L20.1094 0L22.3247 -3.18652L20.2046 -6.5L21.417 -6.5L22.6738 -4.27832Q22.8135 -4.03076 22.9468 -3.77051L22.9722 -3.77051L24.5972 -6.5L25.7461 -6.5ZM33.3506 -3.36426L30.7861 -3.36426L30.7861 -0.806152L29.9419 -0.806152L29.9419 -3.36426L27.3838 -3.36426L27.3838 -4.21484L29.9419 -4.21484L29.9419 -6.77295L30.7861 -6.77295L30.7861 -4.21484L33.3506 -4.21484L33.3506 -3.36426ZM39.3999 0L38.3589 0L38.3589 -7.86475Q38.2383 -7.74414 38.0066 -7.58862Q37.7749 -7.43311 37.4861 -7.28076Q37.1973 -7.12842 36.8767 -6.99512Q36.5562 -6.86182 36.2515 -6.78564L36.2515 -7.83936Q36.5942 -7.93457 36.9783 -8.09644Q37.3623 -8.2583 37.7336 -8.45825Q38.105 -8.6582 38.4351 -8.8772Q38.7651 -9.09619 39.0063 -9.30566L39.3999 -9.30566L39.3999 0ZM42.8911 2.06934L41.9644 2.06934Q43.9448 -0.304688 43.9448 -3.48486Q43.9448 -6.69043 41.9517 -9.10254L42.8911 -9.10254Q44.8716 -6.7793 44.8716 -3.47217Q44.8716 -0.177734 42.8911 2.06934Z" fill="#000000" transform="translate(816.26513671875,82.1)" />
<line x1="779.86513671875" y1="94.14999999999999" x2="805.86513671875" y2="94.14999999999999" stroke="#008000" stroke-width="1.5" />
<path d="M0.660156 -0.234863L0.660156 -1.35205Q1.51074 -0.723633 2.53271 -0.723633Q3.90381 -0.723633 3.90381 -1.6377Q3.90381 -1.89795 3.78638 -2.07886Q3.66894 -2.25977 3.46899 -2.39941Q3.26904 -2.53906 2.99927 -2.65015Q2.72949 -2.76123 2.41846 -2.88184Q1.98682 -3.05322 1.65991 -3.22778Q1.33301 -3.40234 1.11401 -3.62134Q0.89502 -3.84033 0.783936 -4.11963Q0.672852 -4.39893 0.672852 -4.77344Q0.672852 -5.23047 0.882324 -5.58276Q1.0918 -5.93506 1.44092 -6.1731Q1.79004 -6.41113 2.23755 -6.53174Q2.68506 -6.65234 3.16113 -6.65234Q4.00537 -6.65234 4.67188 -6.36035L4.67188 -5.30664Q3.95459 -5.77637 3.02148 -5.77637Q2.72949 -5.77637 2.49463 -5.70972Q2.25977 -5.64307 2.09155 -5.52246Q1.92334 -5.40186 1.8313 -5.23364Q1.73926 -5.06543 1.73926 -4.8623Q1.73926 -4.6084 1.8313 -4.43701Q1.92334 -4.26563 2.10107 -4.13232Q2.27881 -3.99902 2.53271 -3.89111Q2.78662 -3.7832 3.11035 -3.65625Q3.54199 -3.49121 3.88477 -3.31665Q4.22754 -3.14209 4.46875 -2.9231Q4.70996 -2.7041 4.84009 -2.41846Q4.97021 -2.13281 4.97021 -1.73926Q4.97021 -1.25684 4.75757 -0.901367Q4.54492 -0.545898 4.18945 -0.311035Q3.83398 -0.0761719 3.37061 0.0380859Q2.90723 0.152344 2.39941 0.152344Q1.39648 0.152344 0.660156 -0.234863ZM7.10303 -8.15039Q6.82373 -8.15039 6.62695 -8.34082Q6.43018 -8.53125 6.43018 -8.82324Q6.43018 -9.11523 6.62695 -9.30884Q6.82373 -9.50244 7.10303 -9.50244Q7.38867 -9.50244 7.58862 -9.30884Q7.78857 -9.11523 7.78857 -8.82324Q7.78857 -8.54395 7.58862 -8.34717Q7.38867 -8.15039 7.10303 -8.15039ZM7.61084 0L6.56982 0L6.56982 -6.5L7.61084 -6.5L7.61084 0ZM15.1138 0L14.0728 0L14.0728 -3.70703Q14.0728 -5.77637 12.562 -5.77637Q11.7813 -5.77637 11.2703 -5.18921Q10.7593 -4.60205 10.7593 -3.70703L10.7593 0L9.71826 0L9.71826 -6.5L10.7593 -6.5L10.7593 -5.4209L10.7847 -5.4209Q11.521 -6.65234 12.9175 -6.65234Q13.9839 -6.65234 14.5488 -5.96362Q15.1138 -5.2749 15.1138 -3.97363L15.1138 0ZM19.8047 2.06934L18.8779 2.06934Q16.9102 -0.177734 16.9102 -3.47217Q16.9102 -6.7793 18.8779 -9.10254L19.8174 -9.10254Q17.8242 -6.69043 17.8242 -3.48486Q17.8242 -0.304688 19.8047 2.06934ZM25.7461 -6.5L23.5625 -3.21191L25.708 0L24.4956 0L23.2197 -2.10742Q23.0991 -2.3042 22.9341 -2.60254L22.9087 -2.60254Q22.877 -2.54541 22.6104 -2.10742L21.3091 0L20.1094 0L22.3247 -3.18652L20.2046 -6.5L21.417 -6.5L22.6738 -4.27832Q22.8135 -4.03076 22.9468 -3.77051L22.9722 -3.77051L24.5972 -6.5L25.7461 -6.5ZM33.3506 -3.36426L30.7861 -3.36426L30.7861 -0.806152L29.9419 -0.806152L29.9419 -3.36426L27.3838 -3.36426L27.3838 -4.21484L29.9419 -4.21484L29.9419 -6.77295L30.7861 -6.77295L30.7861 -4.21484L33.3506 -4.21484L33.3506 -3.36426ZM39.7046 -6.71582Q39.7046 -7.13477 39.5745 -7.4458Q39.4443 -7.75684 39.219 -7.96313Q38.9937 -8.16943 38.689 -8.271Q38.3843 -8.37256 38.0288 -8.37256Q37.7241 -8.37256 37.4321 -8.29004Q37.1401 -8.20752 36.864 -8.06152Q36.5879 -7.91553 36.3308 -7.7124Q36.0737 -7.50928 35.8516 -7.26172L35.8516 -8.37891Q36.2896 -8.8042 36.8323 -9.02954Q37.375 -9.25488 38.1558 -9.25488Q38.7144 -9.25488 39.1904 -9.09302Q39.6665 -8.93115 40.0156 -8.62012Q40.3647 -8.30908 40.5647 -7.85205Q40.7646 -7.39502 40.7646 -6.80469Q40.7646 -6.26514 40.6409 -5.82715Q40.5171 -5.38916 40.2664 -5.00195Q40.0156 -4.61475 39.6348 -4.25928Q39.2539 -3.90381 38.7397 -3.53564Q38.0986 -3.07861 37.6829 -2.75488Q37.2671 -2.43115 37.0227 -2.14868Q36.7783 -1.86621 36.6799 -1.58374Q36.5815 -1.30127 36.5815 -0.933105L41.1138 -0.933105L41.1138 0L35.4961 0L35.4961 -0.450684Q35.4961 -1.03467 35.623 -1.479Q35.75 -1.92334 36.042 -2.32324Q36.334 -2.72314 36.8069 -3.12305Q37.2798 -3.52295 37.9653 -4.02441Q38.4604 -4.37988 38.7937 -4.70361Q39.127 -5.02734 39.3301 -5.35107Q39.5332 -5.6748 39.6189 -6.00806Q39.7046 -6.34131 39.7046 -6.71582ZM42.8911 2.06934L41.9644 2.06934Q43.9448 -0.304688 43.9448 -3.48486Q43.9448 -6.69043 41.9517 -9.10254L42.8911 -9.10254Q44.8716 -6.7793 44.8716 -3.47217Q44.8716 -0.177734 42.8911 2.06934Z" fill="#000000" transform="translate(816.26513671875,97.69999999999999)" />
<line x1="779.86513671875" y1="109.74999999999999" x2="805.86513671875" y2="109.74999999999999" stroke="#FF0000" stroke-width="1.5" />
<path d="M0.660156 -0.234863L0.660156 -1.35205Q1.51074 -0.723633 2.53271 -0.723633Q3.90381 -0.723633 3.90381 -1.6377Q3.90381 -1.89795 3.78638 -2.07886Q3.66894 -2.25977 3.46899 -2.39941Q3.26904 -2.53906 2.99927 -2.65015Q2.72949 -2.76123 2.41846 -2.88184Q1.98682 -3.05322 1.65991 -3.22778Q1.33301 -3.40234 1.11401 -3.62134Q0.89502 -3.84033 0.783936 -4.11963Q0.672852 -4.39893 0.672852 -4.77344Q0.672852 -5.23047 0.882324 -5.58276Q1.0918 -5.93506 1.44092 -6.1731Q1.79004 -6.41113 2.23755 -6.53174Q2.68506 -6.65234 3.16113 -6.65234Q4.00537 -6.65234 4.67188 -6.36035L4.67188 -5.30664Q3.95459 -5.77637 3.02148 -5.77637Q2.72949 -5.77637 2.49463 -5.70972Q2.25977 -5.64307 2.09155 -5.52246Q1.92334 -5.40186 1.8313 -5.23364Q1.73926 -5.06543 1.73926 -4.8623Q1.73926 -4.6084 1.8313 -4.43701Q1.92334 -4.26563 2.10107 -4.13232Q2.27881 -3.99902 2.53271 -3.89111Q2.78662 -3.7832 3.11035 -3.65625Q3.54199 -3.49121 3.88477 -3.31665Q4.22754 -3.14209 4.46875 -2.9231Q4.70996 -2.7041 4.84009 -2.41846Q4.97021 -2.13281 4.97021 -1.73926Q4.97021 -1.25684 4.75757 -0.901367Q4.54492 -0.545898 4.18945 -0.311035Q3.83398 -0.0761719 3.37061 0.0380859Q2.90723 0.152344 2.39941 0.152344Q1.39648 0.152344 0.660156 -0.234863ZM7.10303 -8.15039Q6.82373 -8.15039 6.62695 -8.34082Q6.43018 -8.53125 6.43018 -8.82324Q6.43018 -9.11523 6.62695 -9.30884Q6.82373 -9.50244 7.10303 -9.50244Q7.38867 -9.50244 7.58862 -9.30884Q7.78857 -9.11523 7.78857 -8.82324Q7.78857 -8.54395 7.58862 -8.34717Q7.38867 -8.15039 7.10303 -8.15039ZM7.61084 0L6.56982 0L6.56982 -6.5L7.61084 -6.5L7.61084 0ZM15.1138 0L14.0728 0L14.0728 -3.70703Q14.0728 -5.77637 12.562 -5.77637Q11.7813 -5.77637 11.2703 -5.18921Q10.7593 -4.60205 10.7593 -3.70703L10.7593 0L9.71826 0L9.71826 -6.5L10.7593 -6.5L10.7593 -5.4209L10.7847 -5.4209Q11.521 -6.65234 12.9175 -6.65234Q13.9839 -6.65234 14.5488 -5.96362Q15.1138 -5.2749 15.1138 -3.97363L15.1138 0ZM19.8047 2.06934L18.8779 2.06934Q16.9102 -0.177734 16.9102 -3.47217Q16.9102 -6.7793 18.8779 -9.10254L19.8174 -9.10254Q17.8242 -6.69043 17.8242 -3.48486Q17.8242 -0.304688 19.8047 2.06934ZM25.7461 -6.5L23.5625 -3.21191L25.708 0L24.4956 0L23.2197 -2.10742Q23.0991 -2.3042 22.9341 -2.60254L22.9087 -2.60254Q22.877 -2.54541 22.6104 -2.10742L21.3091 0L20.1094 0L22.3247 -3.18652L20.2046 -6.5L21.417 -6.5L22.6738 -4.27832Q22.8135 -4.03076 22.9468 -3.77051L22.9722 -3.77051L24.5972 -6.5L25.7461 -6.5ZM33.3506 -3.36426L30.7861 -3.36426L30.7861 -0.806152L29.9419 -0.806152L29.9419 -3.36426L27.3838 -3.36426L27.3838 -4.21484L29.9419 -4.21484L29.9419 -6.77295L30.7861 -6.77295L30.7861 -4.21484L33.3506 -4.21484L33.3506 -3.36426ZM40.8535 -2.57715Q40.8535 -1.96143 40.6218 -1.45679Q40.3901 -0.952148 39.968 -0.593506Q39.5459 -0.234863 38.9556 -0.0380859Q38.3652 0.158691 37.6543 0.158691Q36.353 0.158691 35.585 -0.336426L35.585 -1.45361Q36.5054 -0.72998 37.6924 -0.72998Q38.1685 -0.72998 38.5525 -0.850586Q38.9365 -0.971191 39.2126 -1.19971Q39.4888 -1.42822 39.6379 -1.75195Q39.7871 -2.07568 39.7871 -2.48193Q39.7871 -4.26563 37.248 -4.26563L36.4927 -4.26563L36.4927 -5.14795L37.21 -5.14795Q39.457 -5.14795 39.457 -6.82373Q39.457 -8.37256 37.7432 -8.37256Q36.7783 -8.37256 35.9341 -7.7251L35.9341 -8.73438Q36.8037 -9.25488 38.0034 -9.25488Q38.5747 -9.25488 39.0381 -9.09619Q39.5015 -8.9375 39.8315 -8.65186Q40.1616 -8.36621 40.3425 -7.96631Q40.5234 -7.56641 40.5234 -7.08398Q40.5234 -5.2876 38.708 -4.77344L38.708 -4.74805Q39.1714 -4.69727 39.5649 -4.52271Q39.9585 -4.34814 40.2441 -4.06885Q40.5298 -3.78955 40.6917 -3.41187Q40.8535 -3.03418 40.8535 -2.57715ZM42.8911 2.06934L41.9644 2.06934Q43.9448 -0.304688 43.9448 -3.48486Q43.9448 -6.69043 41.9517 -9.10254L42.8911 -9.10254Q44.8716 -6.7793 44.8716 -3.47217Q44.8716 -0.177734 42.8911 2.06934Z" fill="#000000" transform="translate(816.26513671875,113.29999999999998)" />
</g>
<path d="M5.80176 -6.5L3.61816 -3.21191L5.76367 0L4.55127 0L3.27539 -2.10742Q3.15478 -2.3042 2.98975 -2.60254L2.96436 -2.60254Q2.93262 -2.54541 2.66602 -2.10742L1.36475 0L0.165039 0L2.38037 -3.18652L0.260254 -6.5L1.47266 -6.5L2.72949 -4.27832Q2.86914 -4.03076 3.00244 -3.77051L3.02783 -3.77051L4.65283 -6.5L5.80176 -6.5Z" fill="#000000" transform="translate(477.97532009548615,441.72222222222223) translate(-2.9833984375,0)" />
<path d="M4.26563 -8.70898Q3.96094 -8.88037 3.57373 -8.88037Q2.48193 -8.88037 2.48193 -7.50293L2.48193 -6.5L4.00537 -6.5L4.00537 -5.61133L2.48193 -5.61133L2.48193 0L1.44727 0L1.44727 -5.61133L0.336426 -5.61133L0.336426 -6.5L1.44727 -6.5L1.44727 -7.55371Q1.44727 -8.57568 2.0376 -9.16919Q2.62793 -9.76269 3.51025 -9.7627Q3.98633 -9.7627 4.26563 -9.64844L4.26563 -8.70898ZM7.85205 2.06934L6.92529 2.06934Q4.95752 -0.177734 4.95752 -3.47217Q4.95752 -6.7793 6.92529 -9.10254L7.86475 -9.10254Q5.87158 -6.69043 5.87158 -3.48486Q5.87158 -0.304688 7.85205 2.06934ZM13.7935 -6.5L11.6099 -3.21191L13.7554 0L12.543 0L11.2671 -2.10742Q11.1465 -2.3042 10.9814 -2.60254L10.9561 -2.60254Q10.9243 -2.54541 10.6577 -2.10742L9.35645 0L8.15674 0L10.3721 -3.18652L8.25195 -6.5L9.46436 -6.5L10.7212 -4.27832Q10.8608 -4.03076 10.9941 -3.77051L11.0195 -3.77051L12.6445 -6.5L13.7935 -6.5ZM15.0376 2.06934L14.1108 2.06934Q16.0913 -0.304688 16.0913 -3.48486Q16.0913 -6.69043 14.0981 -9.10254L15.0376 -9.10254Q17.0181 -6.7793 17.0181 -3.47217Q17.0181 -0.177734 15.0376 2.06934Z" fill="#000000" transform="translate(32.195703125,220.20000000000002) rotate(-90) translate(-8.940673828125,0)" />
</svg>
