<svg xmlns="http://www.w3.org/2000/svg" viewBox="0 0 600 600" width="600" height="600" role="img" aria-labelledby="chart-title">
<title id="chart-title">Radar Comparison</title>
<rect x="0" y="0" width="600" height="600" fill="#FFFFFF" />
<path d="M6.42008 -7.25863Q7.477 -7.25863 7.93557 -7.65169Q8.39415 -8.04476 8.39415 -8.94444Q8.39415 -9.83539 7.93557 -10.2197Q7.477 -10.6041 6.42008 -10.6041L5.00505 -10.6041L5.00505 -7.25863L6.42008 -7.25863ZM5.00505 -4.93517L5.00505 0L1.64214 0L1.64214 -13.0411L6.77821 -13.0411Q9.35498 -13.0411 10.556 -12.1763Q11.7571 -11.3116 11.7571 -9.44233Q11.7571 -8.14958 11.1325 -7.31977Q10.508 -6.48996 9.25016 -6.0969Q9.94021 -5.93967 10.4861 -5.38501Q11.0321 -4.83035 11.5911 -3.70356L13.4167 0L9.83539 0L8.24566 -3.24061Q7.76525 -4.21891 7.27173 -4.57704Q6.77821 -4.93517 5.95714 -4.93517L5.00505 -4.93517ZM19.6621 -4.40234Q18.6838 -4.40234 18.1902 -4.07042Q17.6967 -3.7385 17.6967 -3.09212Q17.6967 -2.49816 18.0942 -2.16187Q18.4916 -1.82558 19.1991 -1.82558Q20.0813 -1.82558 20.684 -2.45885Q21.2867 -3.09212 21.2867 -4.04422L21.2867 -4.40234L19.6621 -4.40234ZM24.44 -5.58154L24.44 0L21.2867 0L21.2867 -1.44998Q20.6578 -0.559028 19.8717 -0.152859Q19.0856 0.253309 17.9588 0.253309Q16.4389 0.253309 15.4912 -0.633274Q14.5435 -1.51986 14.5435 -2.9349Q14.5435 -4.65565 15.727 -5.45926Q16.9106 -6.26286 19.4437 -6.26286L21.2867 -6.26286L21.2867 -6.50743Q21.2867 -7.24989 20.7015 -7.59492Q20.1163 -7.93994 18.8759 -7.93994Q17.8714 -7.93994 17.0067 -7.73904Q16.1419 -7.53814 15.3995 -7.13634L15.3995 -9.52094Q16.404 -9.76552 17.4172 -9.89217Q18.4304 -10.0188 19.4437 -10.0188Q22.0903 -10.0188 23.2652 -8.97502Q24.44 -7.93121 24.44 -5.58154ZM34.0046 -8.35048L34.0046 -13.5914L37.1491 -13.5914L37.1491 0L34.0046 0L34.0046 -1.41504Q33.3582 -0.550293 32.5808 -0.148492Q31.8034 0.253309 30.7815 0.253309Q28.9734 0.253309 27.8116 -1.18357Q26.6499 -2.62044 26.6499 -4.88276Q26.6499 -7.14507 27.8116 -8.58195Q28.9734 -10.0188 30.7815 -10.0188Q31.7947 -10.0188 32.5765 -9.61266Q33.3582 -9.20649 34.0046 -8.35048ZM31.9432 -2.01774Q32.9477 -2.01774 33.4762 -2.75146Q34.0046 -3.48519 34.0046 -4.88276Q34.0046 -6.28033 33.4762 -7.01405Q32.9477 -7.74778 31.9432 -7.74778Q30.9474 -7.74778 30.419 -7.01405Q29.8905 -6.28033 29.8905 -4.88276Q29.8905 -3.48519 30.419 -2.75146Q30.9474 -2.01774 31.9432 -2.01774ZM44.5388 -4.40234Q43.5605 -4.40234 43.067 -4.07042Q42.5735 -3.7385 42.5735 -3.09212Q42.5735 -2.49816 42.9709 -2.16187Q43.3683 -1.82558 44.0758 -1.82558Q44.9581 -1.82558 45.5608 -2.45885Q46.1635 -3.09212 46.1635 -4.04422L46.1635 -4.40234L44.5388 -4.40234ZM49.3167 -5.58154L49.3167 0L46.1635 0L46.1635 -1.44998Q45.5346 -0.559028 44.7484 -0.152859Q43.9623 0.253309 42.8355 0.253309Q41.3156 0.253309 40.3679 -0.633274Q39.4202 -1.51986 39.4202 -2.9349Q39.4202 -4.65565 40.6038 -5.45926Q41.7873 -6.26286 44.3204 -6.26286L46.1635 -6.26286L46.1635 -6.50743Q46.1635 -7.24989 45.5782 -7.59492Q44.993 -7.93994 43.7527 -7.93994Q42.7482 -7.93994 41.8834 -7.73904Q41.0187 -7.53814 40.2762 -7.13634L40.2762 -9.52094Q41.2807 -9.76552 42.2939 -9.89217Q43.3072 -10.0188 44.3204 -10.0188Q46.9671 -10.0188 48.1419 -8.97502Q49.3167 -7.93121 49.3167 -5.58154ZM59.4928 -7.11887Q59.0822 -7.31103 58.6761 -7.40275Q58.2699 -7.49447 57.8594 -7.49447Q56.654 -7.49447 56.0032 -6.72144Q55.3525 -5.94841 55.3525 -4.50716L55.3525 0L52.2254 0L52.2254 -9.78299L55.3525 -9.78299L55.3525 -8.17578Q55.9552 -9.13661 56.737 -9.57772Q57.5187 -10.0188 58.6106 -10.0188Q58.7678 -10.0188 58.9512 -10.0057Q59.1347 -9.99262 59.4841 -9.94895L59.4928 -7.11887ZM77.7573 -0.716254Q76.8314 -0.23584 75.8269 0.00873481Q74.8224 0.253309 73.7305 0.253309Q70.4724 0.253309 68.5683 -1.5679Q66.6641 -3.38911 66.6641 -6.50743Q66.6641 -9.63449 68.5683 -11.4557Q70.4724 -13.2769 73.7305 -13.2769Q74.8224 -13.2769 75.8269 -13.0323Q76.8314 -12.7878 77.7573 -12.3073L77.7573 -9.60829Q76.8226 -10.2459 75.9142 -10.5429Q75.0058 -10.8399 74.0013 -10.8399Q72.2019 -10.8399 71.1712 -9.6869Q70.1405 -8.53391 70.1405 -6.50743Q70.1405 -4.48969 71.1712 -3.3367Q72.2019 -2.1837 74.0013 -2.1837Q75.0058 -2.1837 75.9142 -2.48069Q76.8226 -2.77767 77.7573 -3.41531L77.7573 -0.716254ZM85.0596 -7.78271Q84.0201 -7.78271 83.4742 -7.03589Q82.9283 -6.28906 82.9283 -4.88276Q82.9283 -3.47645 83.4742 -2.72963Q84.0201 -1.9828 85.0596 -1.9828Q86.0816 -1.9828 86.6231 -2.72963Q87.1647 -3.47645 87.1647 -4.88276Q87.1647 -6.28906 86.6231 -7.03589Q86.0816 -7.78271 85.0596 -7.78271ZM85.0596 -10.0188Q87.5839 -10.0188 89.0033 -8.6562Q90.4227 -7.29357 90.4227 -4.88276Q90.4227 -2.47195 89.0033 -1.10932Q87.5839 0.253309 85.0596 0.253309Q82.5265 0.253309 81.0983 -1.10932Q79.6702 -2.47195 79.6702 -4.88276Q79.6702 -7.29357 81.0983 -8.6562Q82.5265 -10.0188 85.0596 -10.0188ZM101.761 -8.15831Q102.354 -9.06673 103.171 -9.54278Q103.988 -10.0188 104.966 -10.0188Q106.652 -10.0188 107.534 -8.97938Q108.416 -7.93994 108.416 -5.95714L108.416 0L105.272 0L105.272 -5.10113Q105.281 -5.21468 105.285 -5.33697Q105.289 -5.45926 105.289 -5.68636Q105.289 -6.7258 104.984 -7.19312Q104.678 -7.66043 103.997 -7.66043Q103.106 -7.66043 102.621 -6.9267Q102.136 -6.19298 102.119 -4.80414L102.119 0L98.9741 0L98.9741 -5.10113Q98.9741 -6.7258 98.6946 -7.19312Q98.4151 -7.66043 97.6988 -7.66043Q96.7992 -7.66043 96.31 -6.92234Q95.8209 -6.18424 95.8209 -4.81288L95.8209 0L92.6763 0L92.6763 -9.78299L95.8209 -9.78299L95.8209 -8.35048Q96.3974 -9.18028 97.1442 -9.59956Q97.891 -10.0188 98.7907 -10.0188Q99.8039 -10.0188 100.581 -9.52968Q101.359 -9.04053 101.761 -8.15831ZM114.461 -1.41504L114.461 3.72103L111.334 3.72103L111.334 -9.78299L114.461 -9.78299L114.461 -8.35048Q115.107 -9.20649 115.893 -9.61266Q116.68 -10.0188 117.702 -10.0188Q119.51 -10.0188 120.671 -8.58195Q121.833 -7.14507 121.833 -4.88276Q121.833 -2.62044 120.671 -1.18357Q119.51 0.253309 117.702 0.253309Q116.68 0.253309 115.893 -0.152859Q115.107 -0.559028 114.461 -1.41504ZM116.54 -7.74778Q115.535 -7.74778 114.998 -7.00968Q114.461 -6.27159 114.461 -4.88276Q114.461 -3.49392 114.998 -2.75583Q115.535 -2.01774 116.54 -2.01774Q117.544 -2.01774 118.073 -2.75146Q118.601 -3.48519 118.601 -4.88276Q118.601 -6.28033 118.073 -7.01405Q117.544 -7.74778 116.54 -7.74778ZM128.524 -4.40234Q127.546 -4.40234 127.052 -4.07042Q126.559 -3.7385 126.559 -3.09212Q126.559 -2.49816 126.956 -2.16187Q127.354 -1.82558 128.061 -1.82558Q128.943 -1.82558 129.546 -2.45885Q130.149 -3.09212 130.149 -4.04422L130.149 -4.40234L128.524 -4.40234ZM133.302 -5.58154L133.302 0L130.149 0L130.149 -1.44998Q129.52 -0.559028 128.734 -0.152859Q127.947 0.253309 126.821 0.253309Q125.301 0.253309 124.353 -0.633274Q123.405 -1.51986 123.405 -2.9349Q123.405 -4.65565 124.589 -5.45926Q125.773 -6.26286 128.306 -6.26286L130.149 -6.26286L130.149 -6.50743Q130.149 -7.24989 129.563 -7.59492Q128.978 -7.93994 127.738 -7.93994Q126.733 -7.93994 125.869 -7.73904Q125.004 -7.53814 124.261 -7.13634L124.261 -9.52094Q125.266 -9.76552 126.279 -9.89217Q127.292 -10.0188 128.306 -10.0188Q130.952 -10.0188 132.127 -8.97502Q133.302 -7.93121 133.302 -5.58154ZM143.478 -7.11887Q143.067 -7.31103 142.661 -7.40275Q142.255 -7.49447 141.845 -7.49447Q140.639 -7.49447 139.988 -6.72144Q139.338 -5.94841 139.338 -4.50716L139.338 0L136.211 0L136.211 -9.78299L139.338 -9.78299L139.338 -8.17578Q139.94 -9.13661 140.722 -9.57772Q141.504 -10.0188 142.596 -10.0188Q142.753 -10.0188 142.936 -10.0057Q143.12 -9.99262 143.469 -9.94895L143.478 -7.11887ZM145.033 -9.78299L148.16 -9.78299L148.16 0L145.033 0L145.033 -9.78299ZM145.033 -13.5914L148.16 -13.5914L148.16 -11.0408L145.033 -11.0408L145.033 -13.5914ZM158.808 -9.47727L158.808 -7.1014Q157.803 -7.52067 156.868 -7.73031Q155.934 -7.93994 155.104 -7.93994Q154.213 -7.93994 153.781 -7.7172Q153.348 -7.49447 153.348 -7.03152Q153.348 -6.65592 153.676 -6.45502Q154.003 -6.25412 154.851 -6.15804L155.401 -6.07943Q157.803 -5.77371 158.633 -5.07492Q159.463 -4.37614 159.463 -2.88249Q159.463 -1.31896 158.31 -0.532823Q157.157 0.253309 154.868 0.253309Q153.899 0.253309 152.864 0.10045Q151.828 -0.0524089 150.737 -0.358127L150.737 -2.734Q151.671 -2.27978 152.654 -2.05268Q153.637 -1.82557 154.65 -1.82558Q155.567 -1.82558 156.03 -2.07888Q156.493 -2.33219 156.493 -2.83008Q156.493 -3.24935 156.174 -3.45462Q155.855 -3.65989 154.903 -3.77344L154.353 -3.84332Q152.265 -4.10536 151.427 -4.81288Q150.588 -5.5204 150.588 -6.96164Q150.588 -8.51644 151.654 -9.26763Q152.719 -10.0188 154.921 -10.0188Q155.785 -10.0188 156.737 -9.8878Q157.69 -9.75678 158.808 -9.47727ZM166.468 -7.78271Q165.429 -7.78271 164.883 -7.03589Q164.337 -6.28906 164.337 -4.88276Q164.337 -3.47645 164.883 -2.72963Q165.429 -1.9828 166.468 -1.9828Q167.49 -1.9828 168.032 -2.72963Q168.573 -3.47645 168.573 -4.88276Q168.573 -6.28906 168.032 -7.03589Q167.49 -7.78271 166.468 -7.78271ZM166.468 -10.0188Q168.992 -10.0188 170.412 -8.6562Q171.831 -7.29357 171.831 -4.88276Q171.831 -2.47195 170.412 -1.10932Q168.992 0.253309 166.468 0.253309Q163.935 0.253309 162.507 -1.10932Q161.079 -2.47195 161.079 -4.88276Q161.079 -7.29357 162.507 -8.6562Q163.935 -10.0188 166.468 -10.0188ZM183.938 -5.95714L183.938 0L180.793 0L180.793 -0.969564L180.793 -4.55957Q180.793 -5.82612 180.736 -6.30653Q180.68 -6.78695 180.54 -7.01405Q180.356 -7.31977 180.042 -7.4901Q179.727 -7.66043 179.326 -7.66043Q178.347 -7.66043 177.788 -6.90487Q177.229 -6.14931 177.229 -4.81288L177.229 0L174.102 0L174.102 -9.78299L177.229 -9.78299L177.229 -8.35048Q177.937 -9.20649 178.732 -9.61266Q179.527 -10.0188 180.487 -10.0188Q182.182 -10.0188 183.06 -8.97938Q183.938 -7.93994 183.938 -5.95714Z" fill="#262626" transform="translate(300,24.099999999999998) translate(-92.66759490966797,0)" />
<rect x="75" y="72" width="465" height="462" fill="#FFFFFF" />
<g class="series" aria-label="Player 1">
<polygon points="307.5,268.35 340.4541082896271,292.29256114490806 327.8667589919342,331.0324388550919 287.1332410080658,331.0324388550919 274.5458917103729,292.29256114490806" fill="none" stroke="#CCCCCC" stroke-width="0.5" />
<polygon points="307.5,233.7 373.40821657925414,281.5851222898161 348.2335179838684,359.06487771018385 266.7664820161316,359.06487771018385 241.59178342074586,281.5851222898161" fill="none" stroke="#CCCCCC" stroke-width="0.5" />
<polygon points="307.5,199.05 406.3623248688812,270.8776834347242 368.60027697580256,387.0973165652758 246.39972302419744,387.0973165652758 208.63767513111878,270.87768343472425" fill="none" stroke="#CCCCCC" stroke-width="0.5" />
<polygon points="307.5,164.4 439.3164331585083,260.1702445796323 388.96703596773676,415.1297554203677 226.03296403226324,415.1297554203677 175.6835668414917,260.1702445796323" fill="none" stroke="#CCCCCC" stroke-width="0.5" />
<polygon points="307.5,129.75 472.27054144813536,249.46280572454037 409.33379495967097,443.1621942754597 205.66620504032903,443.1621942754597 142.72945855186464,249.46280572454037" fill="none" stroke="#CCCCCC" stroke-width="0.5" />
<line x1="307.5" y1="303" x2="307.5" y2="129.75" stroke="#CCCCCC" stroke-width="0.5" />
<path d="M0.59082 -0.283203L0.59082 -1.25Q0.756836 -1.10352 0.98877 -0.986328Q1.2207 -0.869141 1.47705 -0.788574Q1.7334 -0.708008 1.99219 -0.664063Q2.25098 -0.620117 2.4707 -0.620117Q3.22754 -0.620117 3.60107 -0.900879Q3.97461 -1.18164 3.97461 -1.70898Q3.97461 -1.99219 3.8501 -2.20215Q3.72559 -2.41211 3.50586 -2.58545Q3.28613 -2.75879 2.98584 -2.91748Q2.68555 -3.07617 2.33887 -3.25195Q1.97266 -3.4375 1.65527 -3.62793Q1.33789 -3.81836 1.10352 -4.04785Q0.869141 -4.27734 0.734863 -4.56787Q0.600586 -4.8584 0.600586 -5.24902Q0.600586 -5.72754 0.810547 -6.08154Q1.02051 -6.43555 1.3623 -6.66504Q1.7041 -6.89453 2.14111 -7.00684Q2.57812 -7.11914 3.03223 -7.11914Q4.06738 -7.11914 4.54102 -6.87012L4.54102 -5.94727Q3.9209 -6.37695 2.94922 -6.37695Q2.68066 -6.37695 2.41211 -6.3208Q2.14355 -6.26465 1.93359 -6.1377Q1.72363 -6.01074 1.5918 -5.81055Q1.45996 -5.61035 1.45996 -5.32227Q1.45996 -5.05371 1.56006 -4.8584Q1.66016 -4.66309 1.85547 -4.50195Q2.05078 -4.34082 2.33154 -4.18945Q2.6123 -4.03809 2.97852 -3.85742Q3.35449 -3.67187 3.69141 -3.4668Q4.02832 -3.26172 4.28223 -3.0127Q4.53613 -2.76367 4.68506 -2.46094Q4.83398 -2.1582 4.83398 -1.76758Q4.83398 -1.25 4.63135 -0.891113Q4.42871 -0.532227 4.08447 -0.307617Q3.74023 -0.0830078 3.29102 0.0170898Q2.8418 0.117188 2.34375 0.117188Q2.17773 0.117188 1.93359 0.090332Q1.68945 0.0634766 1.43555 0.012207Q1.18164 -0.0390625 0.95459 -0.114746Q0.727539 -0.19043 0.59082 -0.283203ZM6.94336 -0.722656L6.92383 -0.722656L6.92383 2.2998L6.12305 2.2998L6.12305 -5L6.92383 -5L6.92383 -4.12109L6.94336 -4.12109Q7.53418 -5.11719 8.67188 -5.11719Q9.63867 -5.11719 10.1807 -4.4458Q10.7227 -3.77441 10.7227 -2.64648Q10.7227 -1.3916 10.1123 -0.637207Q9.50195 0.117188 8.44238 0.117188Q7.4707 0.117188 6.94336 -0.722656ZM6.92383 -2.73926L6.92383 -2.04102Q6.92383 -1.4209 7.32666 -0.98877Q7.72949 -0.556641 8.34961 -0.556641Q9.07715 -0.556641 9.48975 -1.11328Q9.90234 -1.66992 9.90234 -2.66113Q9.90234 -3.49609 9.5166 -3.96973Q9.13086 -4.44336 8.47168 -4.44336Q7.77344 -4.44336 7.34863 -3.95752Q6.92383 -3.47168 6.92383 -2.73926ZM16.0205 -2.2998L12.4902 -2.2998Q12.5098 -1.46484 12.9395 -1.01074Q13.3691 -0.556641 14.1211 -0.556641Q14.9658 -0.556641 15.6738 -1.11328L15.6738 -0.361328Q15.0146 0.117187 13.9307 0.117188Q12.8711 0.117188 12.2656 -0.563965Q11.6602 -1.24512 11.6602 -2.48047Q11.6602 -3.64746 12.3218 -4.38232Q12.9834 -5.11719 13.9648 -5.11719Q14.9463 -5.11719 15.4834 -4.48242Q16.0205 -3.84766 16.0205 -2.71973L16.0205 -2.2998ZM15.2002 -2.97852Q15.1953 -3.67187 14.8657 -4.05762Q14.5361 -4.44336 13.9502 -4.44336Q13.3838 -4.44336 12.9883 -4.03809Q12.5928 -3.63281 12.5 -2.97852L15.2002 -2.97852ZM21.25 -2.2998L17.7197 -2.2998Q17.7393 -1.46484 18.1689 -1.01074Q18.5986 -0.556641 19.3506 -0.556641Q20.1953 -0.556641 20.9033 -1.11328L20.9033 -0.361328Q20.2441 0.117187 19.1602 0.117188Q18.1006 0.117188 17.4951 -0.563965Q16.8896 -1.24512 16.8896 -2.48047Q16.8896 -3.64746 17.5513 -4.38232Q18.2129 -5.11719 19.1943 -5.11719Q20.1758 -5.11719 20.7129 -4.48242Q21.25 -3.84766 21.25 -2.71973L21.25 -2.2998ZM20.4297 -2.97852Q20.4248 -3.67187 20.0952 -4.05762Q19.7656 -4.44336 19.1797 -4.44336Q18.6133 -4.44336 18.2178 -4.03809Q17.8223 -3.63281 17.7295 -2.97852L20.4297 -2.97852ZM26.7285 0L25.9277 0L25.9277 -0.849609L25.9082 -0.849609Q25.3516 0.117188 24.1895 0.117188Q23.2471 0.117188 22.6831 -0.554199Q22.1191 -1.22559 22.1191 -2.38281Q22.1191 -3.62305 22.7441 -4.37012Q23.3691 -5.11719 24.4092 -5.11719Q25.4395 -5.11719 25.9082 -4.30664L25.9277 -4.30664L25.9277 -7.40234L26.7285 -7.40234L26.7285 0ZM25.9277 -2.26074L25.9277 -2.99805Q25.9277 -3.60352 25.5273 -4.02344Q25.127 -4.44336 24.5117 -4.44336Q23.7793 -4.44336 23.3594 -3.90625Q22.9395 -3.36914 22.9395 -2.42188Q22.9395 -1.55762 23.3423 -1.05713Q23.7451 -0.556641 24.4238 -0.556641Q25.0928 -0.556641 25.5103 -1.04004Q25.9277 -1.52344 25.9277 -2.26074Z" transform="translate(307.5,114.75) translate(-13.76953125,0)" />
<line x1="307.5" y1="303" x2="472.27054144813536" y2="249.46280572454037" stroke="#CCCCCC" stroke-width="0.5" />
<path d="M1.73828 -2.64648L1.73828 0L0.917969 0L0.917969 -7.00195L2.8418 -7.00195Q3.96484 -7.00195 4.58252 -6.45508Q5.20019 -5.9082 5.2002 -4.91211Q5.2002 -3.91602 4.51416 -3.28125Q3.82813 -2.64648 2.66113 -2.64648L1.73828 -2.64648ZM1.73828 -6.25977L1.73828 -3.38867L2.59766 -3.38867Q3.44727 -3.38867 3.89404 -3.77686Q4.34082 -4.16504 4.34082 -4.87305Q4.34082 -6.25977 2.7002 -6.25977L1.73828 -6.25977ZM8.50098 0.117188Q7.39258 0.117188 6.73096 -0.583496Q6.06934 -1.28418 6.06934 -2.44141Q6.06934 -3.70117 6.75781 -4.40918Q7.44629 -5.11719 8.61816 -5.11719Q9.73633 -5.11719 10.3638 -4.42871Q10.9912 -3.74023 10.9912 -2.51953Q10.9912 -1.32324 10.3149 -0.603027Q9.63867 0.117188 8.50098 0.117188ZM8.55957 -4.44336Q7.78809 -4.44336 7.33887 -3.91846Q6.88965 -3.39355 6.88965 -2.4707Q6.88965 -1.58203 7.34375 -1.06934Q7.79785 -0.556641 8.55957 -0.556641Q9.33594 -0.556641 9.75342 -1.05957Q10.1709 -1.5625 10.1709 -2.49023Q10.1709 -3.42773 9.75342 -3.93555Q9.33594 -4.44336 8.55957 -4.44336ZM18.5693 -5L17.0703 0L16.2402 0L15.21 -3.5791Q15.1514 -3.78418 15.1318 -4.04297L15.1123 -4.04297Q15.0977 -3.86719 15.0098 -3.58887L13.8916 0L13.0908 0L11.5771 -5L12.417 -5L13.4521 -1.24023Q13.501 -1.06934 13.5205 -0.791016L13.5596 -0.791016Q13.5742 -1.00586 13.6475 -1.25L14.7998 -5L15.5322 -5L16.5674 -1.23047Q16.6162 -1.0498 16.6406 -0.78125L16.6797 -0.78125Q16.6895 -0.97168 16.7627 -1.23047L17.7783 -5L18.5693 -5ZM23.5156 -2.2998L19.9854 -2.2998Q20.0049 -1.46484 20.4346 -1.01074Q20.8643 -0.556641 21.6162 -0.556641Q22.4609 -0.556641 23.1689 -1.11328L23.1689 -0.361328Q22.5098 0.117187 21.4258 0.117188Q20.3662 0.117188 19.7607 -0.563965Q19.1553 -1.24512 19.1553 -2.48047Q19.1553 -3.64746 19.8169 -4.38232Q20.4785 -5.11719 21.46 -5.11719Q22.4414 -5.11719 22.9785 -4.48242Q23.5156 -3.84766 23.5156 -2.71973L23.5156 -2.2998ZM22.6953 -2.97852Q22.6904 -3.67187 22.3608 -4.05762Q22.0313 -4.44336 21.4453 -4.44336Q20.8789 -4.44336 20.4834 -4.03809Q20.0879 -3.63281 19.9951 -2.97852L22.6953 -2.97852ZM27.334 -4.18945Q27.124 -4.35059 26.7285 -4.35059Q26.2158 -4.35059 25.8716 -3.86719Q25.5273 -3.38379 25.5273 -2.54883L25.5273 0L24.7266 0L24.7266 -5L25.5273 -5L25.5273 -3.96973L25.5469 -3.96973Q25.7178 -4.49707 26.0693 -4.79248Q26.4209 -5.08789 26.8555 -5.08789Q27.168 -5.08789 27.334 -5.01953L27.334 -4.18945Z" transform="translate(486.53638919256264,244.82755080891616) translate(-13.6962890625,0)" />
<line x1="307.5" y1="303" x2="409.33379495967097" y2="443.1621942754597" stroke="#CCCCCC" stroke-width="0.5" />
<path d="M0.917969 0L0.917969 -7.00195L2.85156 -7.00195Q6.55273 -7.00195 6.55273 -3.58887Q6.55273 -1.96777 5.5249 -0.983887Q4.49707 0 2.77344 0L0.917969 0ZM1.73828 -6.25977L1.73828 -0.742188L2.7832 -0.742188Q4.16016 -0.742188 4.92676 -1.47949Q5.69336 -2.2168 5.69336 -3.56934Q5.69336 -6.25977 2.83203 -6.25977L1.73828 -6.25977ZM11.8408 -2.2998L8.31055 -2.2998Q8.33008 -1.46484 8.75977 -1.01074Q9.18945 -0.556641 9.94141 -0.556641Q10.7861 -0.556641 11.4941 -1.11328L11.4941 -0.361328Q10.835 0.117187 9.75098 0.117188Q8.69141 0.117188 8.08594 -0.563965Q7.48047 -1.24512 7.48047 -2.48047Q7.48047 -3.64746 8.14209 -4.38232Q8.80371 -5.11719 9.78516 -5.11719Q10.7666 -5.11719 11.3037 -4.48242Q11.8408 -3.84766 11.8408 -2.71973L11.8408 -2.2998ZM11.0205 -2.97852Q11.0156 -3.67187 10.686 -4.05762Q10.3564 -4.44336 9.77051 -4.44336Q9.2041 -4.44336 8.80859 -4.03809Q8.41309 -3.63281 8.32031 -2.97852L11.0205 -2.97852ZM15.5225 -6.69922Q15.2881 -6.83105 14.9902 -6.83105Q14.1504 -6.83105 14.1504 -5.77148L14.1504 -5L15.3223 -5L15.3223 -4.31641L14.1504 -4.31641L14.1504 0L13.3545 0L13.3545 -4.31641L12.5 -4.31641L12.5 -5L13.3545 -5L13.3545 -5.81055Q13.3545 -6.59668 13.8086 -7.05322Q14.2627 -7.50977 14.9414 -7.50977Q15.3076 -7.50977 15.5225 -7.42188L15.5225 -6.69922ZM20.2002 -2.2998L16.6699 -2.2998Q16.6895 -1.46484 17.1191 -1.01074Q17.5488 -0.556641 18.3008 -0.556641Q19.1455 -0.556641 19.8535 -1.11328L19.8535 -0.361328Q19.1943 0.117187 18.1104 0.117188Q17.0508 0.117188 16.4453 -0.563965Q15.8398 -1.24512 15.8398 -2.48047Q15.8398 -3.64746 16.5015 -4.38232Q17.1631 -5.11719 18.1445 -5.11719Q19.126 -5.11719 19.6631 -4.48242Q20.2002 -3.84766 20.2002 -2.71973L20.2002 -2.2998ZM19.3799 -2.97852Q19.375 -3.67187 19.0454 -4.05762Q18.7158 -4.44336 18.1299 -4.44336Q17.5635 -4.44336 17.168 -4.03809Q16.7725 -3.63281 16.6797 -2.97852L19.3799 -2.97852ZM25.5615 0L24.7607 0L24.7607 -2.85156Q24.7607 -4.44336 23.5986 -4.44336Q22.998 -4.44336 22.605 -3.9917Q22.2119 -3.54004 22.2119 -2.85156L22.2119 0L21.4111 0L21.4111 -5L22.2119 -5L22.2119 -4.16992L22.2314 -4.16992Q22.7979 -5.11719 23.8721 -5.11719Q24.6924 -5.11719 25.127 -4.5874Q25.5615 -4.05762 25.5615 -3.05664L25.5615 0ZM26.7676 -0.180664L26.7676 -1.04004Q27.4219 -0.556641 28.208 -0.556641Q29.2627 -0.556641 29.2627 -1.25977Q29.2627 -1.45996 29.1724 -1.59912Q29.082 -1.73828 28.9282 -1.8457Q28.7744 -1.95313 28.5669 -2.03857Q28.3594 -2.12402 28.1201 -2.2168Q27.7881 -2.34863 27.5366 -2.48291Q27.2852 -2.61719 27.1167 -2.78564Q26.9482 -2.9541 26.8628 -3.16895Q26.7773 -3.38379 26.7773 -3.67188Q26.7773 -4.02344 26.9385 -4.29443Q27.0996 -4.56543 27.3682 -4.74854Q27.6367 -4.93164 27.981 -5.02441Q28.3252 -5.11719 28.6914 -5.11719Q29.3408 -5.11719 29.8535 -4.89258L29.8535 -4.08203Q29.3018 -4.44336 28.584 -4.44336Q28.3594 -4.44336 28.1787 -4.39209Q27.998 -4.34082 27.8687 -4.24805Q27.7393 -4.15527 27.6685 -4.02588Q27.5977 -3.89648 27.5977 -3.74023Q27.5977 -3.54492 27.6685 -3.41309Q27.7393 -3.28125 27.876 -3.17871Q28.0127 -3.07617 28.208 -2.99316Q28.4033 -2.91016 28.6523 -2.8125Q28.9844 -2.68555 29.248 -2.55127Q29.5117 -2.41699 29.6973 -2.24854Q29.8828 -2.08008 29.9829 -1.86035Q30.083 -1.64063 30.083 -1.33789Q30.083 -0.966797 29.9194 -0.693359Q29.7559 -0.419922 29.4824 -0.239258Q29.209 -0.0585938 28.8525 0.0292969Q28.4961 0.117188 28.1055 0.117188Q27.334 0.117188 26.7676 -0.180664ZM35.332 -2.2998L31.8018 -2.2998Q31.8213 -1.46484 32.251 -1.01074Q32.6807 -0.556641 33.4326 -0.556641Q34.2773 -0.556641 34.9854 -1.11328L34.9854 -0.361328Q34.3262 0.117187 33.2422 0.117188Q32.1826 0.117188 31.5771 -0.563965Q30.9717 -1.24512 30.9717 -2.48047Q30.9717 -3.64746 31.6333 -4.38232Q32.2949 -5.11719 33.2764 -5.11719Q34.2578 -5.11719 34.7949 -4.48242Q35.332 -3.84766 35.332 -2.71973L35.332 -2.2998ZM34.5117 -2.97852Q34.5068 -3.67187 34.1772 -4.05762Q33.8477 -4.44336 33.2617 -4.44336Q32.6953 -4.44336 32.2998 -4.03809Q31.9043 -3.63281 31.8115 -2.97852L34.5117 -2.97852Z" transform="translate(418.1505737440581,455.29744919108384) translate(-17.8662109375,0)" />
<line x1="307.5" y1="303" x2="205.66620504032903" y2="443.1621942754597" stroke="#CCCCCC" stroke-width="0.5" />
<path d="M5.9375 0L4.96094 0L3.78906 -1.96289Q3.62793 -2.23633 3.47656 -2.4292Q3.3252 -2.62207 3.1665 -2.74414Q3.00781 -2.86621 2.82471 -2.92236Q2.6416 -2.97852 2.41211 -2.97852L1.73828 -2.97852L1.73828 0L0.917969 0L0.917969 -7.00195L3.00781 -7.00195Q3.4668 -7.00195 3.85498 -6.88721Q4.24316 -6.77246 4.52881 -6.53809Q4.81445 -6.30371 4.97559 -5.95459Q5.13672 -5.60547 5.13672 -5.13672Q5.13672 -4.77051 5.02686 -4.46533Q4.91699 -4.16016 4.71436 -3.9209Q4.51172 -3.68164 4.22607 -3.51318Q3.94043 -3.34473 3.58398 -3.25195L3.58398 -3.23242Q3.75977 -3.1543 3.88916 -3.0542Q4.01855 -2.9541 4.13574 -2.81738Q4.25293 -2.68066 4.36768 -2.50732Q4.48242 -2.33398 4.62402 -2.10449L5.9375 0ZM1.73828 -6.25977L1.73828 -3.7207L2.85156 -3.7207Q3.15918 -3.7207 3.42041 -3.81348Q3.68164 -3.90625 3.87207 -4.07959Q4.0625 -4.25293 4.16992 -4.50439Q4.27734 -4.75586 4.27734 -5.06836Q4.27734 -5.62988 3.91357 -5.94482Q3.5498 -6.25977 2.86133 -6.25977L1.73828 -6.25977ZM10.3711 0L9.57031 0L9.57031 -0.78125L9.55078 -0.78125Q9.02832 0.117188 8.0127 0.117188Q7.26563 0.117188 6.84326 -0.27832Q6.4209 -0.673828 6.4209 -1.32813Q6.4209 -2.72949 8.07129 -2.95898L9.57031 -3.16895Q9.57031 -4.44336 8.54004 -4.44336Q7.63672 -4.44336 6.90918 -3.82813L6.90918 -4.64844Q7.64648 -5.11719 8.6084 -5.11719Q10.3711 -5.11719 10.3711 -3.25195L10.3711 0ZM9.57031 -2.5293L8.36426 -2.36328Q7.80762 -2.28516 7.52441 -2.0874Q7.24121 -1.88965 7.24121 -1.38672Q7.24121 -1.02051 7.50244 -0.788574Q7.76367 -0.556641 8.19824 -0.556641Q8.79395 -0.556641 9.18213 -0.974121Q9.57031 -1.3916 9.57031 -2.03125L9.57031 -2.5293ZM16.0303 0L15.2295 0L15.2295 -2.85156Q15.2295 -4.44336 14.0674 -4.44336Q13.4668 -4.44336 13.0737 -3.9917Q12.6807 -3.54004 12.6807 -2.85156L12.6807 0L11.8799 0L11.8799 -5L12.6807 -5L12.6807 -4.16992L12.7002 -4.16992Q13.2666 -5.11719 14.3408 -5.11719Q15.1611 -5.11719 15.5957 -4.5874Q16.0303 -4.05762 16.0303 -3.05664L16.0303 0ZM21.8066 -0.400391Q21.8066 2.35352 19.1699 2.35352Q18.2422 2.35352 17.5488 2.00195L17.5488 1.20117Q18.3936 1.66992 19.1602 1.66992Q21.0059 1.66992 21.0059 -0.292969L21.0059 -0.839844L20.9863 -0.839844Q20.415 0.117187 19.2676 0.117188Q18.335 0.117188 17.7661 -0.549316Q17.1973 -1.21582 17.1973 -2.33887Q17.1973 -3.61328 17.8101 -4.36523Q18.4229 -5.11719 19.4873 -5.11719Q20.498 -5.11719 20.9863 -4.30664L21.0059 -4.30664L21.0059 -5L21.8066 -5L21.8066 -0.400391ZM21.0059 -2.26074L21.0059 -2.99805Q21.0059 -3.59375 20.603 -4.01855Q20.2002 -4.44336 19.5996 -4.44336Q18.8574 -4.44336 18.4375 -3.90381Q18.0176 -3.36426 18.0176 -2.39258Q18.0176 -1.55762 18.4204 -1.05713Q18.8232 -0.556641 19.4873 -0.556641Q20.1611 -0.556641 20.5835 -1.03516Q21.0059 -1.51367 21.0059 -2.26074ZM27.4463 -2.2998L23.916 -2.2998Q23.9355 -1.46484 24.3652 -1.01074Q24.7949 -0.556641 25.5469 -0.556641Q26.3916 -0.556641 27.0996 -1.11328L27.0996 -0.361328Q26.4404 0.117187 25.3564 0.117188Q24.2969 0.117188 23.6914 -0.563965Q23.0859 -1.24512 23.0859 -2.48047Q23.0859 -3.64746 23.7476 -4.38232Q24.4092 -5.11719 25.3906 -5.11719Q26.3721 -5.11719 26.9092 -4.48242Q27.4463 -3.84766 27.4463 -2.71973L27.4463 -2.2998ZM26.626 -2.97852Q26.6211 -3.67187 26.2915 -4.05762Q25.9619 -4.44336 25.376 -4.44336Q24.8096 -4.44336 24.4141 -4.03809Q24.0186 -3.63281 23.9258 -2.97852L26.626 -2.97852Z" transform="translate(196.84942625594195,455.29744919108384) translate(-13.92333984375,0)" />
<line x1="307.5" y1="303" x2="142.72945855186464" y2="249.46280572454037" stroke="#CCCCCC" stroke-width="0.5" />
<path d="M6.33789 0L5.42969 0L4.6875 -1.96289L1.71875 -1.96289L1.02051 0L0.107422 0L2.79297 -7.00195L3.64258 -7.00195L6.33789 0ZM4.41895 -2.7002L3.32031 -5.68359Q3.2666 -5.83008 3.21289 -6.15234L3.19336 -6.15234Q3.14453 -5.85449 3.08105 -5.68359L1.99219 -2.7002L4.41895 -2.7002ZM10.6689 -0.229492Q10.0928 0.117188 9.30176 0.117188Q8.23242 0.117188 7.57568 -0.578613Q6.91895 -1.27441 6.91895 -2.38281Q6.91895 -3.61816 7.62695 -4.36768Q8.33496 -5.11719 9.5166 -5.11719Q10.1758 -5.11719 10.6787 -4.87305L10.6787 -4.05273Q10.1221 -4.44336 9.4873 -4.44336Q8.7207 -4.44336 8.22998 -3.89404Q7.73926 -3.34473 7.73926 -2.45117Q7.73926 -1.57227 8.20068 -1.06445Q8.66211 -0.556641 9.43848 -0.556641Q10.0928 -0.556641 10.6689 -0.991211L10.6689 -0.229492ZM15.2881 -0.229492Q14.7119 0.117188 13.9209 0.117188Q12.8516 0.117188 12.1948 -0.578613Q11.5381 -1.27441 11.5381 -2.38281Q11.5381 -3.61816 12.2461 -4.36768Q12.9541 -5.11719 14.1357 -5.11719Q14.7949 -5.11719 15.2979 -4.87305L15.2979 -4.05273Q14.7412 -4.44336 14.1064 -4.44336Q13.3398 -4.44336 12.8491 -3.89404Q12.3584 -3.34473 12.3584 -2.45117Q12.3584 -1.57227 12.8198 -1.06445Q13.2813 -0.556641 14.0576 -0.556641Q14.7119 -0.556641 15.2881 -0.991211L15.2881 -0.229492ZM20.542 0L19.7412 0L19.7412 -0.791016L19.7217 -0.791016Q19.2236 0.117188 18.1787 0.117188Q16.3916 0.117188 16.3916 -2.01172L16.3916 -5L17.1875 -5L17.1875 -2.13867Q17.1875 -0.556641 18.3984 -0.556641Q18.9844 -0.556641 19.3628 -0.98877Q19.7412 -1.4209 19.7412 -2.11914L19.7412 -5L20.542 -5L20.542 0ZM24.7656 -4.18945Q24.5557 -4.35059 24.1602 -4.35059Q23.6475 -4.35059 23.3032 -3.86719Q22.959 -3.38379 22.959 -2.54883L22.959 0L22.1582 0L22.1582 -5L22.959 -5L22.959 -3.96973L22.9785 -3.96973Q23.1494 -4.49707 23.501 -4.79248Q23.8525 -5.08789 24.2871 -5.08789Q24.5996 -5.08789 24.7656 -5.01953L24.7656 -4.18945ZM29.2139 0L28.4131 0L28.4131 -0.78125L28.3936 -0.78125Q27.8711 0.117188 26.8555 0.117188Q26.1084 0.117188 25.686 -0.27832Q25.2637 -0.673828 25.2637 -1.32813Q25.2637 -2.72949 26.9141 -2.95898L28.4131 -3.16895Q28.4131 -4.44336 27.3828 -4.44336Q26.4795 -4.44336 25.752 -3.82813L25.752 -4.64844Q26.4893 -5.11719 27.4512 -5.11719Q29.2139 -5.11719 29.2139 -3.25195L29.2139 0ZM28.4131 -2.5293L27.207 -2.36328Q26.6504 -2.28516 26.3672 -2.0874Q26.084 -1.88965 26.084 -1.38672Q26.084 -1.02051 26.3452 -0.788574Q26.6064 -0.556641 27.041 -0.556641Q27.6367 -0.556641 28.0249 -0.974121Q28.4131 -1.3916 28.4131 -2.03125L28.4131 -2.5293ZM34.1309 -0.229492Q33.5547 0.117188 32.7637 0.117188Q31.6943 0.117188 31.0376 -0.578613Q30.3809 -1.27441 30.3809 -2.38281Q30.3809 -3.61816 31.0889 -4.36768Q31.7969 -5.11719 32.9785 -5.11719Q33.6377 -5.11719 34.1406 -4.87305L34.1406 -4.05273Q33.584 -4.44336 32.9492 -4.44336Q32.1826 -4.44336 31.6919 -3.89404Q31.2012 -3.34473 31.2012 -2.45117Q31.2012 -1.57227 31.6626 -1.06445Q32.124 -0.556641 32.9004 -0.556641Q33.5547 -0.556641 34.1309 -0.991211L34.1309 -0.229492ZM39.3213 -5L37.0215 0.800781Q36.4063 2.35352 35.293 2.35352Q34.9805 2.35352 34.7705 2.29004L34.7705 1.57227Q35.0293 1.66016 35.2441 1.66016Q35.8496 1.66016 36.1523 0.9375L36.5527 -0.00976563L34.5996 -5L35.4883 -5L36.8408 -1.15234Q36.8652 -1.0791 36.9434 -0.771484L36.9727 -0.771484Q36.9971 -0.888672 37.0703 -1.14258L38.4912 -5L39.3213 -5Z" transform="translate(128.46361080743733,244.82755080891616) translate(-19.68505859375,0)" />
<polygon points="307.5,147.98684210526315 428.9098726459945,263.5515410601876 403.9741215407409,435.7852366820144 243.1839189728394,391.52349112134294 142.72945855186464,249.46280572454037" fill="#0000FF" fill-opacity="0.2" stroke="#0000FF" stroke-width="2" />
</g>
<g class="series" aria-label="Player 2">
<polygon points="307.5,268.35 340.4541082896271,292.29256114490806 327.8667589919342,331.0324388550919 287.1332410080658,331.0324388550919 274.5458917103729,292.29256114490806" fill="none" stroke="#CCCCCC" stroke-width="0.5" />
<polygon points="307.5,233.7 373.40821657925414,281.5851222898161 348.2335179838684,359.06487771018385 266.7664820161316,359.06487771018385 241.59178342074586,281.5851222898161" fill="none" stroke="#CCCCCC" stroke-width="0.5" />
<polygon points="307.5,199.05 406.3623248688812,270.8776834347242 368.60027697580256,387.0973165652758 246.39972302419744,387.0973165652758 208.63767513111878,270.87768343472425" fill="none" stroke="#CCCCCC" stroke-width="0.5" />
<polygon points="307.5,164.4 439.3164331585083,260.1702445796323 388.96703596773676,415.1297554203677 226.03296403226324,415.1297554203677 175.6835668414917,260.1702445796323" fill="none" stroke="#CCCCCC" stroke-width="0.5" />
<polygon points="307.5,129.75 472.27054144813536,249.46280572454037 409.33379495967097,443.1621942754597 205.66620504032903,443.1621942754597 142.72945855186464,249.46280572454037" fill="none" stroke="#CCCCCC" stroke-width="0.5" />
<line x1="307.5" y1="303" x2="307.5" y2="129.75" stroke="#CCCCCC" stroke-width="0.5" />
<path d="M0.59082 -0.283203L0.59082 -1.25Q0.756836 -1.10352 0.98877 -0.986328Q1.2207 -0.869141 1.47705 -0.788574Q1.7334 -0.708008 1.99219 -0.664063Q2.25098 -0.620117 2.4707 -0.620117Q3.22754 -0.620117 3.60107 -0.900879Q3.97461 -1.18164 3.97461 -1.70898Q3.97461 -1.99219 3.8501 -2.20215Q3.72559 -2.41211 3.50586 -2.58545Q3.28613 -2.75879 2.98584 -2.91748Q2.68555 -3.07617 2.33887 -3.25195Q1.97266 -3.4375 1.65527 -3.62793Q1.33789 -3.81836 1.10352 -4.04785Q0.869141 -4.27734 0.734863 -4.56787Q0.600586 -4.8584 0.600586 -5.24902Q0.600586 -5.72754 0.810547 -6.08154Q1.02051 -6.43555 1.3623 -6.66504Q1.7041 -6.89453 2.14111 -7.00684Q2.57812 -7.11914 3.03223 -7.11914Q4.06738 -7.11914 4.54102 -6.87012L4.54102 -5.94727Q3.9209 -6.37695 2.94922 -6.37695Q2.68066 -6.37695 2.41211 -6.3208Q2.14355 -6.26465 1.93359 -6.1377Q1.72363 -6.01074 1.5918 -5.81055Q1.45996 -5.61035 1.45996 -5.32227Q1.45996 -5.05371 1.56006 -4.8584Q1.66016 -4.66309 1.85547 -4.50195Q2.05078 -4.34082 2.33154 -4.18945Q2.6123 -4.03809 2.97852 -3.85742Q3.35449 -3.67187 3.69141 -3.4668Q4.02832 -3.26172 4.28223 -3.0127Q4.53613 -2.76367 4.68506 -2.46094Q4.83398 -2.1582 4.83398 -1.76758Q4.83398 -1.25 4.63135 -0.891113Q4.42871 -0.532227 4.08447 -0.307617Q3.74023 -0.0830078 3.29102 0.0170898Q2.8418 0.117188 2.34375 0.117188Q2.17773 0.117188 1.93359 0.090332Q1.68945 0.0634766 1.43555 0.012207Q1.18164 -0.0390625 0.95459 -0.114746Q0.727539 -0.19043 0.59082 -0.283203ZM6.94336 -0.722656L6.92383 -0.722656L6.92383 2.2998L6.12305 2.2998L6.12305 -5L6.92383 -5L6.92383 -4.12109L6.94336 -4.12109Q7.53418 -5.11719 8.67188 -5.11719Q9.63867 -5.11719 10.1807 -4.4458Q10.7227 -3.77441 10.7227 -2.64648Q10.7227 -1.3916 10.1123 -0.637207Q9.50195 0.117188 8.44238 0.117188Q7.4707 0.117188 6.94336 -0.722656ZM6.92383 -2.73926L6.92383 -2.04102Q6.92383 -1.4209 7.32666 -0.98877Q7.72949 -0.556641 8.34961 -0.556641Q9.07715 -0.556641 9.48975 -1.11328Q9.90234 -1.66992 9.90234 -2.66113Q9.90234 -3.49609 9.5166 -3.96973Q9.13086 -4.44336 8.47168 -4.44336Q7.77344 -4.44336 7.34863 -3.95752Q6.92383 -3.47168 6.92383 -2.73926ZM16.0205 -2.2998L12.4902 -2.2998Q12.5098 -1.46484 12.9395 -1.01074Q13.3691 -0.556641 14.1211 -0.556641Q14.9658 -0.556641 15.6738 -1.11328L15.6738 -0.361328Q15.0146 0.117187 13.9307 0.117188Q12.8711 0.117188 12.2656 -0.563965Q11.6602 -1.24512 11.6602 -2.48047Q11.6602 -3.64746 12.3218 -4.38232Q12.9834 -5.11719 13.9648 -5.11719Q14.9463 -5.11719 15.4834 -4.48242Q16.0205 -3.84766 16.0205 -2.71973L16.0205 -2.2998ZM15.2002 -2.97852Q15.1953 -3.67187 14.8657 -4.05762Q14.5361 -4.44336 13.9502 -4.44336Q13.3838 -4.44336 12.9883 -4.03809Q12.5928 -3.63281 12.5 -2.97852L15.2002 -2.97852ZM21.25 -2.2998L17.7197 -2.2998Q17.7393 -1.46484 18.1689 -1.01074Q18.5986 -0.556641 19.3506 -0.556641Q20.1953 -0.556641 20.9033 -1.11328L20.9033 -0.361328Q20.2441 0.117187 19.1602 0.117188Q18.1006 0.117188 17.4951 -0.563965Q16.8896 -1.24512 16.8896 -2.48047Q16.8896 -3.64746 17.5513 -4.38232Q18.2129 -5.11719 19.1943 -5.11719Q20.1758 -5.11719 20.7129 -4.48242Q21.25 -3.84766 21.25 -2.71973L21.25 -2.2998ZM20.4297 -2.97852Q20.4248 -3.67187 20.0952 -4.05762Q19.7656 -4.44336 19.1797 -4.44336Q18.6133 -4.44336 18.2178 -4.03809Q17.8223 -3.63281 17.7295 -2.97852L20.4297 -2.97852ZM26.7285 0L25.9277 0L25.9277 -0.849609L25.9082 -0.849609Q25.3516 0.117188 24.1895 0.117188Q23.2471 0.117188 22.6831 -0.554199Q22.1191 -1.22559 22.1191 -2.38281Q22.1191 -3.62305 22.7441 -4.37012Q23.3691 -5.11719 24.4092 -5.11719Q25.4395 -5.11719 25.9082 -4.30664L25.9277 -4.30664L25.9277 -7.40234L26.7285 -7.40234L26.7285 0ZM25.9277 -2.26074L25.9277 -2.99805Q25.9277 -3.60352 25.5273 -4.02344Q25.127 -4.44336 24.5117 -4.44336Q23.7793 -4.44336 23.3594 -3.90625Q22.9395 -3.36914 22.9395 -2.42188Q22.9395 -1.55762 23.3423 -1.05713Q23.7451 -0.556641 24.4238 -0.556641Q25.0928 -0.556641 25.5103 -1.04004Q25.9277 -1.52344 25.9277 -2.26074Z" transform="translate(307.5,114.75) translate(-13.76953125,0)" />
<line x1="307.5" y1="303" x2="472.27054144813536" y2="249.46280572454037" stroke="#CCCCCC" stroke-width="0.5" />
<path d="M1.73828 -2.64648L1.73828 0L0.917969 0L0.917969 -7.00195L2.8418 -7.00195Q3.96484 -7.00195 4.58252 -6.45508Q5.20019 -5.9082 5.2002 -4.91211Q5.2002 -3.91602 4.51416 -3.28125Q3.82813 -2.64648 2.66113 -2.64648L1.73828 -2.64648ZM1.73828 -6.25977L1.73828 -3.38867L2.59766 -3.38867Q3.44727 -3.38867 3.89404 -3.77686Q4.34082 -4.16504 4.34082 -4.87305Q4.34082 -6.25977 2.7002 -6.25977L1.73828 -6.25977ZM8.50098 0.117188Q7.39258 0.117188 6.73096 -0.583496Q6.06934 -1.28418 6.06934 -2.44141Q6.06934 -3.70117 6.75781 -4.40918Q7.44629 -5.11719 8.61816 -5.11719Q9.73633 -5.11719 10.3638 -4.42871Q10.9912 -3.74023 10.9912 -2.51953Q10.9912 -1.32324 10.3149 -0.603027Q9.63867 0.117188 8.50098 0.117188ZM8.55957 -4.44336Q7.78809 -4.44336 7.33887 -3.91846Q6.88965 -3.39355 6.88965 -2.4707Q6.88965 -1.58203 7.34375 -1.06934Q7.79785 -0.556641 8.55957 -0.556641Q9.33594 -0.556641 9.75342 -1.05957Q10.1709 -1.5625 10.1709 -2.49023Q10.1709 -3.42773 9.75342 -3.93555Q9.33594 -4.44336 8.55957 -4.44336ZM18.5693 -5L17.0703 0L16.2402 0L15.21 -3.5791Q15.1514 -3.78418 15.1318 -4.04297L15.1123 -4.04297Q15.0977 -3.86719 15.0098 -3.58887L13.8916 0L13.0908 0L11.5771 -5L12.417 -5L13.4521 -1.24023Q13.501 -1.06934 13.5205 -0.791016L13.5596 -0.791016Q13.5742 -1.00586 13.6475 -1.25L14.7998 -5L15.5322 -5L16.5674 -1.23047Q16.6162 -1.0498 16.6406 -0.78125L16.6797 -0.78125Q16.6895 -0.97168 16.7627 -1.23047L17.7783 -5L18.5693 -5ZM23.5156 -2.2998L19.9854 -2.2998Q20.0049 -1.46484 20.4346 -1.01074Q20.8643 -0.556641 21.6162 -0.556641Q22.4609 -0.556641 23.1689 -1.11328L23.1689 -0.361328Q22.5098 0.117187 21.4258 0.117188Q20.3662 0.117188 19.7607 -0.563965Q19.1553 -1.24512 19.1553 -2.48047Q19.1553 -3.64746 19.8169 -4.38232Q20.4785 -5.11719 21.46 -5.11719Q22.4414 -5.11719 22.9785 -4.48242Q23.5156 -3.84766 23.5156 -2.71973L23.5156 -2.2998ZM22.6953 -2.97852Q22.6904 -3.67187 22.3608 -4.05762Q22.0313 -4.44336 21.4453 -4.44336Q20.8789 -4.44336 20.4834 -4.03809Q20.0879 -3.63281 19.9951 -2.97852L22.6953 -2.97852ZM27.334 -4.18945Q27.124 -4.35059 26.7285 -4.35059Q26.2158 -4.35059 25.8716 -3.86719Q25.5273 -3.38379 25.5273 -2.54883L25.5273 0L24.7266 0L24.7266 -5L25.5273 -5L25.5273 -3.96973L25.5469 -3.96973Q25.7178 -4.49707 26.0693 -4.79248Q26.4209 -5.08789 26.8555 -5.08789Q27.168 -5.08789 27.334 -5.01953L27.334 -4.18945Z" transform="translate(486.53638919256264,244.82755080891616) translate(-13.6962890625,0)" />
<line x1="307.5" y1="303" x2="409.33379495967097" y2="443.1621942754597" stroke="#CCCCCC" stroke-width="0.5" />
<path d="M0.917969 0L0.917969 -7.00195L2.85156 -7.00195Q6.55273 -7.00195 6.55273 -3.58887Q6.55273 -1.96777 5.5249 -0.983887Q4.49707 0 2.77344 0L0.917969 0ZM1.73828 -6.25977L1.73828 -0.742188L2.7832 -0.742188Q4.16016 -0.742188 4.92676 -1.47949Q5.69336 -2.2168 5.69336 -3.56934Q5.69336 -6.25977 2.83203 -6.25977L1.73828 -6.25977ZM11.8408 -2.2998L8.31055 -2.2998Q8.33008 -1.46484 8.75977 -1.01074Q9.18945 -0.556641 9.94141 -0.556641Q10.7861 -0.556641 11.4941 -1.11328L11.4941 -0.361328Q10.835 0.117187 9.75098 0.117188Q8.69141 0.117188 8.08594 -0.563965Q7.48047 -1.24512 7.48047 -2.48047Q7.48047 -3.64746 8.14209 -4.38232Q8.80371 -5.11719 9.78516 -5.11719Q10.7666 -5.11719 11.3037 -4.48242Q11.8408 -3.84766 11.8408 -2.71973L11.8408 -2.2998ZM11.0205 -2.97852Q11.0156 -3.67187 10.686 -4.05762Q10.3564 -4.44336 9.77051 -4.44336Q9.2041 -4.44336 8.80859 -4.03809Q8.41309 -3.63281 8.32031 -2.97852L11.0205 -2.97852ZM15.5225 -6.69922Q15.2881 -6.83105 14.9902 -6.83105Q14.1504 -6.83105 14.1504 -5.77148L14.1504 -5L15.3223 -5L15.3223 -4.31641L14.1504 -4.31641L14.1504 0L13.3545 0L13.3545 -4.31641L12.5 -4.31641L12.5 -5L13.3545 -5L13.3545 -5.81055Q13.3545 -6.59668 13.8086 -7.05322Q14.2627 -7.50977 14.9414 -7.50977Q15.3076 -7.50977 15.5225 -7.42188L15.5225 -6.69922ZM20.2002 -2.2998L16.6699 -2.2998Q16.6895 -1.46484 17.1191 -1.01074Q17.5488 -0.556641 18.3008 -0.556641Q19.1455 -0.556641 19.8535 -1.11328L19.8535 -0.361328Q19.1943 0.117187 18.1104 0.117188Q17.0508 0.117188 16.4453 -0.563965Q15.8398 -1.24512 15.8398 -2.48047Q15.8398 -3.64746 16.5015 -4.38232Q17.1631 -5.11719 18.1445 -5.11719Q19.126 -5.11719 19.6631 -4.48242Q20.2002 -3.84766 20.2002 -2.71973L20.2002 -2.2998ZM19.3799 -2.97852Q19.375 -3.67187 19.0454 -4.05762Q18.7158 -4.44336 18.1299 -4.44336Q17.5635 -4.44336 17.168 -4.03809Q16.7725 -3.63281 16.6797 -2.97852L19.3799 -2.97852ZM25.5615 0L24.7607 0L24.7607 -2.85156Q24.7607 -4.44336 23.5986 -4.44336Q22.998 -4.44336 22.605 -3.9917Q22.2119 -3.54004 22.2119 -2.85156L22.2119 0L21.4111 0L21.4111 -5L22.2119 -5L22.2119 -4.16992L22.2314 -4.16992Q22.7979 -5.11719 23.8721 -5.11719Q24.6924 -5.11719 25.127 -4.5874Q25.5615 -4.05762 25.5615 -3.05664L25.5615 0ZM26.7676 -0.180664L26.7676 -1.04004Q27.4219 -0.556641 28.208 -0.556641Q29.2627 -0.556641 29.2627 -1.25977Q29.2627 -1.45996 29.1724 -1.59912Q29.082 -1.73828 28.9282 -1.8457Q28.7744 -1.95313 28.5669 -2.03857Q28.3594 -2.12402 28.1201 -2.2168Q27.7881 -2.34863 27.5366 -2.48291Q27.2852 -2.61719 27.1167 -2.78564Q26.9482 -2.9541 26.8628 -3.16895Q26.7773 -3.38379 26.7773 -3.67188Q26.7773 -4.02344 26.9385 -4.29443Q27.0996 -4.56543 27.3682 -4.74854Q27.6367 -4.93164 27.981 -5.02441Q28.3252 -5.11719 28.6914 -5.11719Q29.3408 -5.11719 29.8535 -4.89258L29.8535 -4.08203Q29.3018 -4.44336 28.584 -4.44336Q28.3594 -4.44336 28.1787 -4.39209Q27.998 -4.34082 27.8687 -4.24805Q27.7393 -4.15527 27.6685 -4.02588Q27.5977 -3.89648 27.5977 -3.74023Q27.5977 -3.54492 27.6685 -3.41309Q27.7393 -3.28125 27.876 -3.17871Q28.0127 -3.07617 28.208 -2.99316Q28.4033 -2.91016 28.6523 -2.8125Q28.9844 -2.68555 29.248 -2.55127Q29.5117 -2.41699 29.6973 -2.24854Q29.8828 -2.08008 29.9829 -1.86035Q30.083 -1.64063 30.083 -1.33789Q30.083 -0.966797 29.9194 -0.693359Q29.7559 -0.419922 29.4824 -0.239258Q29.209 -0.0585938 28.8525 0.0292969Q28.4961 0.117188 28.1055 0.117188Q27.334 0.117188 26.7676 -0.180664ZM35.332 -2.2998L31.8018 -2.2998Q31.8213 -1.46484 32.251 -1.01074Q32.6807 -0.556641 33.4326 -0.556641Q34.2773 -0.556641 34.9854 -1.11328L34.9854 -0.361328Q34.3262 0.117187 33.2422 0.117188Q32.1826 0.117188 31.5771 -0.563965Q30.9717 -1.24512 30.9717 -2.48047Q30.9717 -3.64746 31.6333 -4.38232Q32.2949 -5.11719 33.2764 -5.11719Q34.2578 -5.11719 34.7949 -4.48242Q35.332 -3.84766 35.332 -2.71973L35.332 -2.2998ZM34.5117 -2.97852Q34.5068 -3.67187 34.1772 -4.05762Q33.8477 -4.44336 33.2617 -4.44336Q32.6953 -4.44336 32.2998 -4.03809Q31.9043 -3.63281 31.8115 -2.97852L34.5117 -2.97852Z" transform="translate(418.1505737440581,455.29744919108384) translate(-17.8662109375,0)" />
<line x1="307.5" y1="303" x2="205.66620504032903" y2="443.1621942754597" stroke="#CCCCCC" stroke-width="0.5" />
<path d="M5.9375 0L4.96094 0L3.78906 -1.96289Q3.62793 -2.23633 3.47656 -2.4292Q3.3252 -2.62207 3.1665 -2.74414Q3.00781 -2.86621 2.82471 -2.92236Q2.6416 -2.97852 2.41211 -2.97852L1.73828 -2.97852L1.73828 0L0.917969 0L0.917969 -7.00195L3.00781 -7.00195Q3.4668 -7.00195 3.85498 -6.88721Q4.24316 -6.77246 4.52881 -6.53809Q4.81445 -6.30371 4.97559 -5.95459Q5.13672 -5.60547 5.13672 -5.13672Q5.13672 -4.77051 5.02686 -4.46533Q4.91699 -4.16016 4.71436 -3.9209Q4.51172 -3.68164 4.22607 -3.51318Q3.94043 -3.34473 3.58398 -3.25195L3.58398 -3.23242Q3.75977 -3.1543 3.88916 -3.0542Q4.01855 -2.9541 4.13574 -2.81738Q4.25293 -2.68066 4.36768 -2.50732Q4.48242 -2.33398 4.62402 -2.10449L5.9375 0ZM1.73828 -6.25977L1.73828 -3.7207L2.85156 -3.7207Q3.15918 -3.7207 3.42041 -3.81348Q3.68164 -3.90625 3.87207 -4.07959Q4.0625 -4.25293 4.16992 -4.50439Q4.27734 -4.75586 4.27734 -5.06836Q4.27734 -5.62988 3.91357 -5.94482Q3.5498 -6.25977 2.86133 -6.25977L1.73828 -6.25977ZM10.3711 0L9.57031 0L9.57031 -0.78125L9.55078 -0.78125Q9.02832 0.117188 8.0127 0.117188Q7.26563 0.117188 6.84326 -0.27832Q6.4209 -0.673828 6.4209 -1.32813Q6.4209 -2.72949 8.07129 -2.95898L9.57031 -3.16895Q9.57031 -4.44336 8.54004 -4.44336Q7.63672 -4.44336 6.90918 -3.82813L6.90918 -4.64844Q7.64648 -5.11719 8.6084 -5.11719Q10.3711 -5.11719 10.3711 -3.25195L10.3711 0ZM9.57031 -2.5293L8.36426 -2.36328Q7.80762 -2.28516 7.52441 -2.0874Q7.24121 -1.88965 7.24121 -1.38672Q7.24121 -1.02051 7.50244 -0.788574Q7.76367 -0.556641 8.19824 -0.556641Q8.79395 -0.556641 9.18213 -0.974121Q9.57031 -1.3916 9.57031 -2.03125L9.57031 -2.5293ZM16.0303 0L15.2295 0L15.2295 -2.85156Q15.2295 -4.44336 14.0674 -4.44336Q13.4668 -4.44336 13.0737 -3.9917Q12.6807 -3.54004 12.6807 -2.85156L12.6807 0L11.8799 0L11.8799 -5L12.6807 -5L12.6807 -4.16992L12.7002 -4.16992Q13.2666 -5.11719 14.3408 -5.11719Q15.1611 -5.11719 15.5957 -4.5874Q16.0303 -4.05762 16.0303 -3.05664L16.0303 0ZM21.8066 -0.400391Q21.8066 2.35352 19.1699 2.35352Q18.2422 2.35352 17.5488 2.00195L17.5488 1.20117Q18.3936 1.66992 19.1602 1.66992Q21.0059 1.66992 21.0059 -0.292969L21.0059 -0.839844L20.9863 -0.839844Q20.415 0.117187 19.2676 0.117188Q18.335 0.117188 17.7661 -0.549316Q17.1973 -1.21582 17.1973 -2.33887Q17.1973 -3.61328 17.8101 -4.36523Q18.4229 -5.11719 19.4873 -5.11719Q20.498 -5.11719 20.9863 -4.30664L21.0059 -4.30664L21.0059 -5L21.8066 -5L21.8066 -0.400391ZM21.0059 -2.26074L21.0059 -2.99805Q21.0059 -3.59375 20.603 -4.01855Q20.2002 -4.44336 19.5996 -4.44336Q18.8574 -4.44336 18.4375 -3.90381Q18.0176 -3.36426 18.0176 -2.39258Q18.0176 -1.55762 18.4204 -1.05713Q18.8232 -0.556641 19.4873 -0.556641Q20.1611 -0.556641 20.5835 -1.03516Q21.0059 -1.51367 21.0059 -2.26074ZM27.4463 -2.2998L23.916 -2.2998Q23.9355 -1.46484 24.3652 -1.01074Q24.7949 -0.556641 25.5469 -0.556641Q26.3916 -0.556641 27.0996 -1.11328L27.0996 -0.361328Q26.4404 0.117187 25.3564 0.117188Q24.2969 0.117188 23.6914 -0.563965Q23.0859 -1.24512 23.0859 -2.48047Q23.0859 -3.64746 23.7476 -4.38232Q24.4092 -5.11719 25.3906 -5.11719Q26.3721 -5.11719 26.9092 -4.48242Q27.4463 -3.84766 27.4463 -2.71973L27.4463 -2.2998ZM26.626 -2.97852Q26.6211 -3.67187 26.2915 -4.05762Q25.9619 -4.44336 25.376 -4.44336Q24.8096 -4.44336 24.4141 -4.03809Q24.0186 -3.63281 23.9258 -2.97852L26.626 -2.97852Z" transform="translate(196.84942625594195,455.29744919108384) translate(-13.92333984375,0)" />
<line x1="307.5" y1="303" x2="142.72945855186464" y2="249.46280572454037" stroke="#CCCCCC" stroke-width="0.5" />
<path d="M6.33789 0L5.42969 0L4.6875 -1.96289L1.71875 -1.96289L1.02051 0L0.107422 0L2.79297 -7.00195L3.64258 -7.00195L6.33789 0ZM4.41895 -2.7002L3.32031 -5.68359Q3.2666 -5.83008 3.21289 -6.15234L3.19336 -6.15234Q3.14453 -5.85449 3.08105 -5.68359L1.99219 -2.7002L4.41895 -2.7002ZM10.6689 -0.229492Q10.0928 0.117188 9.30176 0.117188Q8.23242 0.117188 7.57568 -0.578613Q6.91895 -1.27441 6.91895 -2.38281Q6.91895 -3.61816 7.62695 -4.36768Q8.33496 -5.11719 9.5166 -5.11719Q10.1758 -5.11719 10.6787 -4.87305L10.6787 -4.05273Q10.1221 -4.44336 9.4873 -4.44336Q8.7207 -4.44336 8.22998 -3.89404Q7.73926 -3.34473 7.73926 -2.45117Q7.73926 -1.57227 8.20068 -1.06445Q8.66211 -0.556641 9.43848 -0.556641Q10.0928 -0.556641 10.6689 -0.991211L10.6689 -0.229492ZM15.2881 -0.229492Q14.7119 0.117188 13.9209 0.117188Q12.8516 0.117188 12.1948 -0.578613Q11.5381 -1.27441 11.5381 -2.38281Q11.5381 -3.61816 12.2461 -4.36768Q12.9541 -5.11719 14.1357 -5.11719Q14.7949 -5.11719 15.2979 -4.87305L15.2979 -4.05273Q14.7412 -4.44336 14.1064 -4.44336Q13.3398 -4.44336 12.8491 -3.89404Q12.3584 -3.34473 12.3584 -2.45117Q12.3584 -1.57227 12.8198 -1.06445Q13.2813 -0.556641 14.0576 -0.556641Q14.7119 -0.556641 15.2881 -0.991211L15.2881 -0.229492ZM20.542 0L19.7412 0L19.7412 -0.791016L19.7217 -0.791016Q19.2236 0.117188 18.1787 0.117188Q16.3916 0.117188 16.3916 -2.01172L16.3916 -5L17.1875 -5L17.1875 -2.13867Q17.1875 -0.556641 18.3984 -0.556641Q18.9844 -0.556641 19.3628 -0.98877Q19.7412 -1.4209 19.7412 -2.11914L19.7412 -5L20.542 -5L20.542 0ZM24.7656 -4.18945Q24.5557 -4.35059 24.1602 -4.35059Q23.6475 -4.35059 23.3032 -3.86719Q22.959 -3.38379 22.959 -2.54883L22.959 0L22.1582 0L22.1582 -5L22.959 -5L22.959 -3.96973L22.9785 -3.96973Q23.1494 -4.49707 23.501 -4.79248Q23.8525 -5.08789 24.2871 -5.08789Q24.5996 -5.08789 24.7656 -5.01953L24.7656 -4.18945ZM29.2139 0L28.4131 0L28.4131 -0.78125L28.3936 -0.78125Q27.8711 0.117188 26.8555 0.117188Q26.1084 0.117188 25.686 -0.27832Q25.2637 -0.673828 25.2637 -1.32813Q25.2637 -2.72949 26.9141 -2.95898L28.4131 -3.16895Q28.4131 -4.44336 27.3828 -4.44336Q26.4795 -4.44336 25.752 -3.82813L25.752 -4.64844Q26.4893 -5.11719 27.4512 -5.11719Q29.2139 -5.11719 29.2139 -3.25195L29.2139 0ZM28.4131 -2.5293L27.207 -2.36328Q26.6504 -2.28516 26.3672 -2.0874Q26.084 -1.88965 26.084 -1.38672Q26.084 -1.02051 26.3452 -0.788574Q26.6064 -0.556641 27.041 -0.556641Q27.6367 -0.556641 28.0249 -0.974121Q28.4131 -1.3916 28.4131 -2.03125L28.4131 -2.5293ZM34.1309 -0.229492Q33.5547 0.117188 32.7637 0.117188Q31.6943 0.117188 31.0376 -0.578613Q30.3809 -1.27441 30.3809 -2.38281Q30.3809 -3.61816 31.0889 -4.36768Q31.7969 -5.11719 32.9785 -5.11719Q33.6377 -5.11719 34.1406 -4.87305L34.1406 -4.05273Q33.584 -4.44336 32.9492 -4.44336Q32.1826 -4.44336 31.6919 -3.89404Q31.2012 -3.34473 31.2012 -2.45117Q31.2012 -1.57227 31.6626 -1.06445Q32.124 -0.556641 32.9004 -0.556641Q33.5547 -0.556641 34.1309 -0.991211L34.1309 -0.229492ZM39.3213 -5L37.0215 0.800781Q36.4063 2.35352 35.293 2.35352Q34.9805 2.35352 34.7705 2.29004L34.7705 1.57227Q35.0293 1.66016 35.2441 1.66016Q35.8496 1.66016 36.1523 0.9375L36.5527 -0.00976563L34.5996 -5L35.4883 -5L36.8408 -1.15234Q36.8652 -1.0791 36.9434 -0.771484L36.9727 -0.771484Q36.9971 -0.888672 37.0703 -1.14258L38.4912 -5L39.3213 -5Z" transform="translate(128.46361080743733,244.82755080891616) translate(-19.68505859375,0)" />
<polygon points="307.5,175.34210526315792 472.27054144813536,249.46280572454037 371.81608102716064,391.52349112134294 221.7452252971192,421.0313214951239 177.41799359357734,260.7337939930582" fill="#FF0000" fill-opacity="0.2" stroke="#FF0000" stroke-width="2" />
</g>
<rect x="418.6400265163845" y="82" width="111.35997348361545" height="42.388888888888886" fill="#FFFFFF" fill-opacity="0.8" stroke="#CCCCCC" stroke-width="0.5" />
<g class="legend" aria-label="Chart legend">
<rect x="426.6400265163845" y="90" width="27.77777777777778" height="9.722222222222221" fill="#0000FF" />
<path d="M2.73302 -8.9993L2.73302 -5.19477L4.45557 -5.19477Q5.41178 -5.19477 5.93397 -5.68983Q6.45616 -6.1849 6.45616 -7.10042Q6.45616 -8.00917 5.93397 -8.50423Q5.41178 -8.9993 4.45557 -8.9993L2.73302 -8.9993ZM1.36312 -10.1251L4.45557 -10.1251Q6.15777 -10.1251 7.02922 -9.35533Q7.90066 -8.58561 7.90066 -7.10042Q7.90066 -5.60167 7.02922 -4.83534Q6.15777 -4.06901 4.45557 -4.06901L2.73302 -4.06901L2.73302 0L1.36312 0L1.36312 -10.1251ZM9.68424 -10.5523L10.9321 -10.5523L10.9321 0L9.68424 0L9.68424 -10.5523ZM16.9949 -3.81809Q15.4826 -3.81809 14.8994 -3.47222Q14.3161 -3.12636 14.3161 -2.29221Q14.3161 -1.6276 14.7536 -1.23766Q15.191 -0.84771 15.9437 -0.847711Q16.9813 -0.847711 17.6086 -1.58352Q18.2359 -2.31934 18.2359 -3.54004L18.2359 -3.81809L16.9949 -3.81809ZM19.4838 -4.3335L19.4838 0L18.2359 0L18.2359 -1.15289Q17.8087 -0.461155 17.1712 -0.132243Q16.5337 0.196669 15.6114 0.196669Q14.445 0.196669 13.7566 -0.457764Q13.0683 -1.1122 13.0683 -2.21083Q13.0683 -3.49257 13.9262 -4.14361Q14.7841 -4.79465 16.4863 -4.79465L18.2359 -4.79465L18.2359 -4.91672Q18.2359 -5.77799 17.6697 -6.24932Q17.1034 -6.72065 16.0794 -6.72065Q15.4283 -6.72065 14.8112 -6.56467Q14.1941 -6.40869 13.6244 -6.09673L13.6244 -7.24962Q14.3094 -7.51411 14.9536 -7.64635Q15.5979 -7.77859 16.2082 -7.77859Q17.8562 -7.77859 18.67 -6.9241Q19.4838 -6.06961 19.4838 -4.3335ZM25.2143 0.705295Q24.6853 2.06163 24.1835 2.47531Q23.6816 2.889 22.8407 2.889L21.8438 2.889L21.8438 1.84462L22.5762 1.84462Q23.0916 1.84462 23.3765 1.60048Q23.6613 1.35634 24.0072 0.447591L24.231 -0.12207L21.1589 -7.59549L22.4813 -7.59549L24.8549 -1.65473L27.2285 -7.59549L28.5509 -7.59549L25.2143 0.705295ZM36.7703 -4.1097L36.7703 -3.49935L31.033 -3.49935Q31.1144 -2.21083 31.8095 -1.53605Q32.5046 -0.861274 33.7457 -0.861274Q34.4645 -0.861274 35.1393 -1.0376Q35.8141 -1.21392 36.4787 -1.56657L36.4787 -0.386556Q35.8073 -0.101725 35.102 0.0474718Q34.3967 0.196669 33.6711 0.196669Q31.8536 0.196669 30.7922 -0.861274Q29.7309 -1.91922 29.7309 -3.72314Q29.7309 -5.58811 30.738 -6.68335Q31.7451 -7.77859 33.454 -7.77859Q34.9867 -7.77859 35.8785 -6.79186Q36.7703 -5.80512 36.7703 -4.1097ZM35.5225 -4.47591Q35.5089 -5.49995 34.9494 -6.1103Q34.3899 -6.72065 33.4676 -6.72065Q32.4232 -6.72065 31.7959 -6.13064Q31.1686 -5.54064 31.0737 -4.46913L35.5225 -4.47591ZM43.2197 -6.42904Q43.0094 -6.55111 42.7619 -6.60875Q42.5144 -6.6664 42.216 -6.6664Q41.158 -6.6664 40.5918 -5.97805Q40.0255 -5.28971 40.0255 -4.00119L40.0255 0L38.7709 0L38.7709 -7.59549L40.0255 -7.59549L40.0255 -6.41547Q40.4188 -7.1072 41.0495 -7.4429Q41.6802 -7.77859 42.5822 -7.77859Q42.711 -7.77859 42.867 -7.76164Q43.023 -7.74468 43.2129 -7.71077L43.2197 -6.42904ZM49.3571 -1.15289L51.5951 -1.15289L51.5951 -8.87722L49.1604 -8.38894L49.1604 -9.63677L51.5815 -10.1251L52.9514 -10.1251L52.9514 -1.15289L55.1893 -1.15289L55.1893 0L49.3571 0L49.3571 -1.15289Z" fill="#262626" transform="translate(465.5289154052734,98.72222222222223)" />
<rect x="426.6400265163845" y="106.66666666666666" width="27.77777777777778" height="9.722222222222221" fill="#FF0000" />
<path d="M2.73302 -8.9993L2.73302 -5.19477L4.45557 -5.19477Q5.41178 -5.19477 5.93397 -5.68983Q6.45616 -6.1849 6.45616 -7.10042Q6.45616 -8.00917 5.93397 -8.50423Q5.41178 -8.9993 4.45557 -8.9993L2.73302 -8.9993ZM1.36312 -10.1251L4.45557 -10.1251Q6.15777 -10.1251 7.02922 -9.35533Q7.90066 -8.58561 7.90066 -7.10042Q7.90066 -5.60167 7.02922 -4.83534Q6.15777 -4.06901 4.45557 -4.06901L2.73302 -4.06901L2.73302 0L1.36312 0L1.36312 -10.1251ZM9.68424 -10.5523L10.9321 -10.5523L10.9321 0L9.68424 0L9.68424 -10.5523ZM16.9949 -3.81809Q15.4826 -3.81809 14.8994 -3.47222Q14.3161 -3.12636 14.3161 -2.29221Q14.3161 -1.6276 14.7536 -1.23766Q15.191 -0.84771 15.9437 -0.847711Q16.9813 -0.847711 17.6086 -1.58352Q18.2359 -2.31934 18.2359 -3.54004L18.2359 -3.81809L16.9949 -3.81809ZM19.4838 -4.3335L19.4838 0L18.2359 0L18.2359 -1.15289Q17.8087 -0.461155 17.1712 -0.132243Q16.5337 0.196669 15.6114 0.196669Q14.445 0.196669 13.7566 -0.457764Q13.0683 -1.1122 13.0683 -2.21083Q13.0683 -3.49257 13.9262 -4.14361Q14.7841 -4.79465 16.4863 -4.79465L18.2359 -4.79465L18.2359 -4.91672Q18.2359 -5.77799 17.6697 -6.24932Q17.1034 -6.72065 16.0794 -6.72065Q15.4283 -6.72065 14.8112 -6.56467Q14.1941 -6.40869 13.6244 -6.09673L13.6244 -7.24962Q14.3094 -7.51411 14.9536 -7.64635Q15.5979 -7.77859 16.2082 -7.77859Q17.8562 -7.77859 18.67 -6.9241Q19.4838 -6.06961 19.4838 -4.3335ZM25.2143 0.705295Q24.6853 2.06163 24.1835 2.47531Q23.6816 2.889 22.8407 2.889L21.8438 2.889L21.8438 1.84462L22.5762 1.84462Q23.0916 1.84462 23.3765 1.60048Q23.6613 1.35634 24.0072 0.447591L24.231 -0.12207L21.1589 -7.59549L22.4813 -7.59549L24.8549 -1.65473L27.2285 -7.59549L28.5509 -7.59549L25.2143 0.705295ZM36.7703 -4.1097L36.7703 -3.49935L31.033 -3.49935Q31.1144 -2.21083 31.8095 -1.53605Q32.5046 -0.861274 33.7457 -0.861274Q34.4645 -0.861274 35.1393 -1.0376Q35.8141 -1.21392 36.4787 -1.56657L36.4787 -0.386556Q35.8073 -0.101725 35.102 0.0474718Q34.3967 0.196669 33.6711 0.196669Q31.8536 0.196669 30.7922 -0.861274Q29.7309 -1.91922 29.7309 -3.72314Q29.7309 -5.58811 30.738 -6.68335Q31.7451 -7.77859 33.454 -7.77859Q34.9867 -7.77859 35.8785 -6.79186Q36.7703 -5.80512 36.7703 -4.1097ZM35.5225 -4.47591Q35.5089 -5.49995 34.9494 -6.1103Q34.3899 -6.72065 33.4676 -6.72065Q32.4232 -6.72065 31.7959 -6.13064Q31.1686 -5.54064 31.0737 -4.46913L35.5225 -4.47591ZM43.2197 -6.42904Q43.0094 -6.55111 42.7619 -6.60875Q42.5144 -6.6664 42.216 -6.6664Q41.158 -6.6664 40.5918 -5.97805Q40.0255 -5.28971 40.0255 -4.00119L40.0255 0L38.7709 0L38.7709 -7.59549L40.0255 -7.59549L40.0255 -6.41547Q40.4188 -7.1072 41.0495 -7.4429Q41.6802 -7.77859 42.5822 -7.77859Q42.711 -7.77859 42.867 -7.76164Q43.023 -7.74468 43.2129 -7.71077L43.2197 -6.42904ZM50.2998 -1.15289L55.0808 -1.15289L55.0808 0L48.6518 0L48.6518 -1.15289Q49.4317 -1.95991 50.7779 -3.31963Q52.124 -4.67936 52.4699 -5.0727Q53.1277 -5.8119 53.3888 -6.32392Q53.6499 -6.83594 53.6499 -7.331Q53.6499 -8.13802 53.0836 -8.64665Q52.5174 -9.15527 51.6086 -9.15527Q50.9644 -9.15527 50.2489 -8.93148Q49.5334 -8.70768 48.7196 -8.25331L48.7196 -9.63677Q49.547 -9.96908 50.2658 -10.1386Q50.9847 -10.3082 51.5815 -10.3082Q53.1548 -10.3082 54.0907 -9.52148Q55.0266 -8.73481 55.0266 -7.41916Q55.0266 -6.79525 54.7926 -6.23576Q54.5586 -5.67627 53.9415 -4.91672Q53.772 -4.72005 52.8632 -3.78079Q51.9545 -2.84153 50.2998 -1.15289Z" fill="#262626" transform="translate(465.5289154052734,115.38888888888889)" />
</g>
</svg>
