<svg xmlns="http://www.w3.org/2000/svg" viewBox="0 0 1100 640" width="1100" height="640" style="width:100%;height:auto" role="img" aria-labelledby="chart-title">
<title id="chart-title">Sankey — Severity cascade across four timepoints</title>
<rect x="0" y="0" width="1100" height="640" fill="#FFFFFF" />
<text x="550" y="24.099999999999998" font-family="DejaVu Sans, sans-serif" font-size="17.88888888888889" text-anchor="middle" font-weight="bold" fill="#262626">Sankey — Severity cascade across four timepoints</text>
<rect x="138" y="77" width="852" height="493" fill="#FFFFFF" />
<defs><linearGradient id="grad-0" gradientUnits="userSpaceOnUse" x1="712" y1="76.99999999999997" x2="972" y2="87.00000000000006"><stop offset="0" stop-color="#4CAF50" stop-opacity="0.4" /><stop offset="1" stop-color="#2196F3" stop-opacity="0.4" /></linearGradient></defs>
<path d="M 712 76.99999999999997 C 842 76.99999999999997 842 87.00000000000006 972 87.00000000000006 L 972 222.04166666666674 C 842 222.04166666666674 842 212.04166666666663 712 212.04166666666663 Z " fill="url(#grad-0)" data-sankey-link-source="7" data-sankey-link-target="11" />
<defs><linearGradient id="grad-1" gradientUnits="userSpaceOnUse" x1="712" y1="212.04166666666663" x2="972" y2="432.67500000000007"><stop offset="0" stop-color="#4CAF50" stop-opacity="0.4" /><stop offset="1" stop-color="#FFC107" stop-opacity="0.4" /></linearGradient></defs>
<path d="M 712 212.04166666666663 C 842 212.04166666666663 842 432.67500000000007 972 432.67500000000007 L 972 444.25000000000006 C 842 444.25000000000006 842 223.61666666666662 712 223.61666666666662 Z " fill="url(#grad-1)" data-sankey-link-source="7" data-sankey-link-target="12" />
<defs><linearGradient id="grad-2" gradientUnits="userSpaceOnUse" x1="434" y1="77.00000000000003" x2="694" y2="76.99999999999997"><stop offset="0" stop-color="#4CAF50" stop-opacity="0.4" /><stop offset="1" stop-color="#4CAF50" stop-opacity="0.4" /></linearGradient></defs>
<path d="M 434 77.00000000000003 C 564 77.00000000000003 564 76.99999999999997 694 76.99999999999997 L 694 192.75 C 564 192.75 564 192.75000000000006 434 192.75000000000006 Z " fill="url(#grad-2)" data-sankey-link-source="3" data-sankey-link-target="7" />
<defs><linearGradient id="grad-3" gradientUnits="userSpaceOnUse" x1="434" y1="192.75000000000006" x2="694" y2="233.61666666666667"><stop offset="0" stop-color="#4CAF50" stop-opacity="0.4" /><stop offset="1" stop-color="#2196F3" stop-opacity="0.4" /></linearGradient></defs>
<path d="M 434 192.75000000000006 C 564 192.75000000000006 564 233.61666666666667 694 233.61666666666667 L 694 272.2 C 564 272.2 564 231.3333333333334 434 231.3333333333334 Z " fill="url(#grad-3)" data-sankey-link-source="3" data-sankey-link-target="10" />
<defs><linearGradient id="grad-4" gradientUnits="userSpaceOnUse" x1="434" y1="231.33333333333337" x2="694" y2="405.6666666666667"><stop offset="0" stop-color="#4CAF50" stop-opacity="0.4" /><stop offset="1" stop-color="#FFC107" stop-opacity="0.4" /></linearGradient></defs>
<path d="M 434 231.33333333333337 C 564 231.33333333333337 564 405.6666666666667 694 405.6666666666667 L 694 428.81666666666666 C 564 428.81666666666666 564 254.48333333333338 434 254.48333333333338 Z " fill="url(#grad-4)" data-sankey-link-source="3" data-sankey-link-target="8" />
<defs><linearGradient id="grad-5" gradientUnits="userSpaceOnUse" x1="156" y1="86.99999999999997" x2="416" y2="77.00000000000003"><stop offset="0" stop-color="#4CAF50" stop-opacity="0.4" /><stop offset="1" stop-color="#4CAF50" stop-opacity="0.4" /></linearGradient></defs>
<path d="M 156 86.99999999999997 C 286 86.99999999999997 286 77.00000000000003 416 77.00000000000003 L 416 231.33333333333337 C 286 231.33333333333337 286 241.3333333333333 156 241.3333333333333 Z " fill="url(#grad-5)" data-sankey-link-source="0" data-sankey-link-target="3" />
<defs><linearGradient id="grad-6" gradientUnits="userSpaceOnUse" x1="156" y1="241.3333333333333" x2="416" y2="264.48333333333335"><stop offset="0" stop-color="#4CAF50" stop-opacity="0.4" /><stop offset="1" stop-color="#2196F3" stop-opacity="0.4" /></linearGradient></defs>
<path d="M 156 241.3333333333333 C 286 241.3333333333333 286 264.48333333333335 416 264.48333333333335 L 416 310.78333333333336 C 286 310.78333333333336 286 287.63333333333327 156 287.63333333333327 Z " fill="url(#grad-6)" data-sankey-link-source="0" data-sankey-link-target="6" />
<defs><linearGradient id="grad-7" gradientUnits="userSpaceOnUse" x1="156" y1="287.6333333333333" x2="416" y2="347.7916666666667"><stop offset="0" stop-color="#4CAF50" stop-opacity="0.4" /><stop offset="1" stop-color="#FFC107" stop-opacity="0.4" /></linearGradient></defs>
<path d="M 156 287.6333333333333 C 286 287.6333333333333 286 347.7916666666667 416 347.7916666666667 L 416 378.65833333333336 C 286 378.65833333333336 286 318.5 156 318.5 Z " fill="url(#grad-7)" data-sankey-link-source="0" data-sankey-link-target="4" />
<defs><linearGradient id="grad-8" gradientUnits="userSpaceOnUse" x1="712" y1="233.61666666666667" x2="972" y2="222.04166666666674"><stop offset="0" stop-color="#2196F3" stop-opacity="0.4" /><stop offset="1" stop-color="#2196F3" stop-opacity="0.4" /></linearGradient></defs>
<path d="M 712 233.61666666666667 C 842 233.61666666666667 842 222.04166666666674 972 222.04166666666674 L 972 384.09166666666675 C 842 384.09166666666675 842 395.6666666666667 712 395.6666666666667 Z " fill="url(#grad-8)" data-sankey-link-source="10" data-sankey-link-target="11" />
<defs><linearGradient id="grad-9" gradientUnits="userSpaceOnUse" x1="434" y1="264.48333333333335" x2="694" y2="272.2"><stop offset="0" stop-color="#2196F3" stop-opacity="0.4" /><stop offset="1" stop-color="#2196F3" stop-opacity="0.4" /></linearGradient></defs>
<path d="M 434 264.48333333333335 C 564 264.48333333333335 564 272.2 694 272.2 L 694 345.5083333333333 C 564 345.5083333333333 564 337.7916666666667 434 337.7916666666667 Z " fill="url(#grad-9)" data-sankey-link-source="6" data-sankey-link-target="10" />
<defs><linearGradient id="grad-10" gradientUnits="userSpaceOnUse" x1="156" y1="328.5" x2="416" y2="231.33333333333337"><stop offset="0" stop-color="#FFC107" stop-opacity="0.4" /><stop offset="1" stop-color="#4CAF50" stop-opacity="0.4" /></linearGradient></defs>
<path d="M 156 328.5 C 286 328.5 286 231.33333333333337 416 231.33333333333337 L 416 254.48333333333338 C 286 254.48333333333338 286 351.65 156 351.65 Z " fill="url(#grad-10)" data-sankey-link-source="1" data-sankey-link-target="3" />
<defs><linearGradient id="grad-11" gradientUnits="userSpaceOnUse" x1="156" y1="351.65" x2="416" y2="310.78333333333336"><stop offset="0" stop-color="#FFC107" stop-opacity="0.4" /><stop offset="1" stop-color="#2196F3" stop-opacity="0.4" /></linearGradient></defs>
<path d="M 156 351.65 C 286 351.65 286 310.78333333333336 416 310.78333333333336 L 416 330.07500000000005 C 286 330.07500000000005 286 370.94166666666666 156 370.94166666666666 Z " fill="url(#grad-11)" data-sankey-link-source="1" data-sankey-link-target="6" />
<defs><linearGradient id="grad-12" gradientUnits="userSpaceOnUse" x1="156" y1="370.94166666666666" x2="416" y2="378.65833333333336"><stop offset="0" stop-color="#FFC107" stop-opacity="0.4" /><stop offset="1" stop-color="#FFC107" stop-opacity="0.4" /></linearGradient></defs>
<path d="M 156 370.94166666666666 C 286 370.94166666666666 286 378.65833333333336 416 378.65833333333336 L 416 463.5416666666667 C 286 463.5416666666667 286 455.825 156 455.825 Z " fill="url(#grad-12)" data-sankey-link-source="1" data-sankey-link-target="4" />
<defs><linearGradient id="grad-13" gradientUnits="userSpaceOnUse" x1="156" y1="455.82500000000005" x2="416" y2="488.975"><stop offset="0" stop-color="#FFC107" stop-opacity="0.4" /><stop offset="1" stop-color="#F44336" stop-opacity="0.4" /></linearGradient></defs>
<path d="M 156 455.82500000000005 C 286 455.82500000000005 286 488.975 416 488.975 L 416 515.9833333333333 C 286 515.9833333333333 286 482.83333333333337 156 482.83333333333337 Z " fill="url(#grad-13)" data-sankey-link-source="1" data-sankey-link-target="5" />
<defs><linearGradient id="grad-14" gradientUnits="userSpaceOnUse" x1="434" y1="347.7916666666667" x2="694" y2="192.75"><stop offset="0" stop-color="#FFC107" stop-opacity="0.4" /><stop offset="1" stop-color="#4CAF50" stop-opacity="0.4" /></linearGradient></defs>
<path d="M 434 347.7916666666667 C 564 347.7916666666667 564 192.75 694 192.75 L 694 223.61666666666667 C 564 223.61666666666667 564 378.65833333333336 434 378.65833333333336 Z " fill="url(#grad-14)" data-sankey-link-source="4" data-sankey-link-target="7" />
<defs><linearGradient id="grad-15" gradientUnits="userSpaceOnUse" x1="434" y1="378.65833333333336" x2="694" y2="345.5083333333333"><stop offset="0" stop-color="#FFC107" stop-opacity="0.4" /><stop offset="1" stop-color="#2196F3" stop-opacity="0.4" /></linearGradient></defs>
<path d="M 434 378.65833333333336 C 564 378.65833333333336 564 345.5083333333333 694 345.5083333333333 L 694 372.51666666666665 C 564 372.51666666666665 564 405.6666666666667 434 405.6666666666667 Z " fill="url(#grad-15)" data-sankey-link-source="4" data-sankey-link-target="10" />
<defs><linearGradient id="grad-16" gradientUnits="userSpaceOnUse" x1="434" y1="405.6666666666667" x2="694" y2="428.81666666666666"><stop offset="0" stop-color="#FFC107" stop-opacity="0.4" /><stop offset="1" stop-color="#FFC107" stop-opacity="0.4" /></linearGradient></defs>
<path d="M 434 405.6666666666667 C 564 405.6666666666667 564 428.81666666666666 694 428.81666666666666 L 694 482.8333333333333 C 564 482.8333333333333 564 459.68333333333334 434 459.68333333333334 Z " fill="url(#grad-16)" data-sankey-link-source="4" data-sankey-link-target="8" />
<defs><linearGradient id="grad-17" gradientUnits="userSpaceOnUse" x1="434" y1="459.68333333333334" x2="694" y2="508.26666666666665"><stop offset="0" stop-color="#FFC107" stop-opacity="0.4" /><stop offset="1" stop-color="#F44336" stop-opacity="0.4" /></linearGradient></defs>
<path d="M 434 459.68333333333334 C 564 459.68333333333334 564 508.26666666666665 694 508.26666666666665 L 694 527.5583333333333 C 564 527.5583333333333 564 478.975 434 478.975 Z " fill="url(#grad-17)" data-sankey-link-source="4" data-sankey-link-target="9" />
<defs><linearGradient id="grad-18" gradientUnits="userSpaceOnUse" x1="712" y1="405.6666666666667" x2="972" y2="384.09166666666675"><stop offset="0" stop-color="#FFC107" stop-opacity="0.4" /><stop offset="1" stop-color="#2196F3" stop-opacity="0.4" /></linearGradient></defs>
<path d="M 712 405.6666666666667 C 842 405.6666666666667 842 384.09166666666675 972 384.09166666666675 L 972 422.67500000000007 C 842 422.67500000000007 842 444.25 712 444.25 Z " fill="url(#grad-18)" data-sankey-link-source="8" data-sankey-link-target="11" />
<defs><linearGradient id="grad-19" gradientUnits="userSpaceOnUse" x1="712" y1="444.25" x2="972" y2="444.25000000000006"><stop offset="0" stop-color="#FFC107" stop-opacity="0.4" /><stop offset="1" stop-color="#FFC107" stop-opacity="0.4" /></linearGradient></defs>
<path d="M 712 444.25 C 842 444.25 842 444.25000000000006 972 444.25000000000006 L 972 490.55000000000007 C 842 490.55000000000007 842 490.55 712 490.55 Z " fill="url(#grad-19)" data-sankey-link-source="8" data-sankey-link-target="12" />
<defs><linearGradient id="grad-20" gradientUnits="userSpaceOnUse" x1="712" y1="490.55" x2="972" y2="523.7"><stop offset="0" stop-color="#FFC107" stop-opacity="0.4" /><stop offset="1" stop-color="#F44336" stop-opacity="0.4" /></linearGradient></defs>
<path d="M 712 490.55 C 842 490.55 842 523.7 972 523.7 L 972 531.4166666666667 C 842 531.4166666666667 842 498.26666666666665 712 498.26666666666665 Z " fill="url(#grad-20)" data-sankey-link-source="8" data-sankey-link-target="13" />
<defs><linearGradient id="grad-21" gradientUnits="userSpaceOnUse" x1="434" y1="488.975" x2="694" y2="372.51666666666665"><stop offset="0" stop-color="#F44336" stop-opacity="0.4" /><stop offset="1" stop-color="#2196F3" stop-opacity="0.4" /></linearGradient></defs>
<path d="M 434 488.975 C 564 488.975 564 372.51666666666665 694 372.51666666666665 L 694 395.66666666666663 C 564 395.66666666666663 564 512.125 434 512.125 Z " fill="url(#grad-21)" data-sankey-link-source="5" data-sankey-link-target="10" />
<defs><linearGradient id="grad-22" gradientUnits="userSpaceOnUse" x1="434" y1="512.125" x2="694" y2="482.83333333333337"><stop offset="0" stop-color="#F44336" stop-opacity="0.4" /><stop offset="1" stop-color="#FFC107" stop-opacity="0.4" /></linearGradient></defs>
<path d="M 434 512.125 C 564 512.125 564 482.83333333333337 694 482.83333333333337 L 694 498.2666666666667 C 564 498.2666666666667 564 527.5583333333333 434 527.5583333333333 Z " fill="url(#grad-22)" data-sankey-link-source="5" data-sankey-link-target="8" />
<defs><linearGradient id="grad-23" gradientUnits="userSpaceOnUse" x1="434" y1="527.5583333333334" x2="694" y2="527.5583333333333"><stop offset="0" stop-color="#F44336" stop-opacity="0.4" /><stop offset="1" stop-color="#F44336" stop-opacity="0.4" /></linearGradient></defs>
<path d="M 434 527.5583333333334 C 564 527.5583333333334 564 527.5583333333333 694 527.5583333333333 L 694 570 C 564 570 564 570.0000000000001 434 570.0000000000001 Z " fill="url(#grad-23)" data-sankey-link-source="5" data-sankey-link-target="9" />
<defs><linearGradient id="grad-24" gradientUnits="userSpaceOnUse" x1="156" y1="492.83333333333337" x2="416" y2="330.07500000000005"><stop offset="0" stop-color="#F44336" stop-opacity="0.4" /><stop offset="1" stop-color="#2196F3" stop-opacity="0.4" /></linearGradient></defs>
<path d="M 156 492.83333333333337 C 286 492.83333333333337 286 330.07500000000005 416 330.07500000000005 L 416 337.7916666666667 C 286 337.7916666666667 286 500.55 156 500.55 Z " fill="url(#grad-24)" data-sankey-link-source="2" data-sankey-link-target="6" />
<defs><linearGradient id="grad-25" gradientUnits="userSpaceOnUse" x1="156" y1="500.55" x2="416" y2="463.5416666666667"><stop offset="0" stop-color="#F44336" stop-opacity="0.4" /><stop offset="1" stop-color="#FFC107" stop-opacity="0.4" /></linearGradient></defs>
<path d="M 156 500.55 C 286 500.55 286 463.5416666666667 416 463.5416666666667 L 416 478.975 C 286 478.975 286 515.9833333333333 156 515.9833333333333 Z " fill="url(#grad-25)" data-sankey-link-source="2" data-sankey-link-target="4" />
<defs><linearGradient id="grad-26" gradientUnits="userSpaceOnUse" x1="156" y1="515.9833333333333" x2="416" y2="515.9833333333333"><stop offset="0" stop-color="#F44336" stop-opacity="0.4" /><stop offset="1" stop-color="#F44336" stop-opacity="0.4" /></linearGradient></defs>
<path d="M 156 515.9833333333333 C 286 515.9833333333333 286 515.9833333333333 416 515.9833333333333 L 416 570 C 286 570 286 570 156 570 Z " fill="url(#grad-26)" data-sankey-link-source="2" data-sankey-link-target="5" />
<defs><linearGradient id="grad-27" gradientUnits="userSpaceOnUse" x1="712" y1="508.26666666666665" x2="972" y2="490.55000000000007"><stop offset="0" stop-color="#F44336" stop-opacity="0.4" /><stop offset="1" stop-color="#FFC107" stop-opacity="0.4" /></linearGradient></defs>
<path d="M 712 508.26666666666665 C 842 508.26666666666665 842 490.55000000000007 972 490.55000000000007 L 972 513.7 C 842 513.7 842 531.4166666666666 712 531.4166666666666 Z " fill="url(#grad-27)" data-sankey-link-source="9" data-sankey-link-target="12" />
<defs><linearGradient id="grad-28" gradientUnits="userSpaceOnUse" x1="712" y1="531.4166666666666" x2="972" y2="531.4166666666667"><stop offset="0" stop-color="#F44336" stop-opacity="0.4" /><stop offset="1" stop-color="#F44336" stop-opacity="0.4" /></linearGradient></defs>
<path d="M 712 531.4166666666666 C 842 531.4166666666666 842 531.4166666666667 972 531.4166666666667 L 972 570.0000000000001 C 842 570.0000000000001 842 570 712 570 Z " fill="url(#grad-28)" data-sankey-link-source="9" data-sankey-link-target="13" />
<rect x="138" y="86.99999999999997" width="18" height="231.5" fill="#4CAF50" data-sankey-node-id="0" />
<rect x="138" y="328.5" width="18" height="154.33333333333334" fill="#FFC107" data-sankey-node-id="1" />
<rect x="138" y="492.83333333333337" width="18" height="77.16666666666667" fill="#F44336" data-sankey-node-id="2" />
<rect x="416" y="77.00000000000003" width="18" height="177.48333333333335" fill="#4CAF50" data-sankey-node-id="3" />
<rect x="416" y="347.7916666666667" width="18" height="131.18333333333334" fill="#FFC107" data-sankey-node-id="4" />
<rect x="416" y="488.975" width="18" height="81.025" fill="#F44336" data-sankey-node-id="5" />
<rect x="416" y="264.48333333333335" width="18" height="73.30833333333334" fill="#2196F3" data-sankey-node-id="6" />
<rect x="694" y="76.99999999999997" width="18" height="146.61666666666667" fill="#4CAF50" data-sankey-node-id="7" />
<rect x="694" y="405.6666666666667" width="18" height="92.6" fill="#FFC107" data-sankey-node-id="8" />
<rect x="694" y="508.26666666666665" width="18" height="61.733333333333334" fill="#F44336" data-sankey-node-id="9" />
<rect x="694" y="233.61666666666667" width="18" height="162.05" fill="#2196F3" data-sankey-node-id="10" />
<rect x="972" y="87.00000000000006" width="18" height="335.675" fill="#2196F3" data-sankey-node-id="11" />
<rect x="972" y="432.67500000000007" width="18" height="81.025" fill="#FFC107" data-sankey-node-id="12" />
<rect x="972" y="523.7" width="18" height="46.3" fill="#F44336" data-sankey-node-id="13" />
<text x="160" y="206.34999999999997" font-family="DejaVu Sans, sans-serif" font-size="10" text-anchor="start" fill="#262626">Mild T0</text>
<text x="160" y="409.2666666666667" font-family="DejaVu Sans, sans-serif" font-size="10" text-anchor="start" fill="#262626">Mod T0</text>
<text x="160" y="535.0166666666668" font-family="DejaVu Sans, sans-serif" font-size="10" text-anchor="start" fill="#262626">Severe T0</text>
<text x="438" y="169.3416666666667" font-family="DejaVu Sans, sans-serif" font-size="10" text-anchor="start" fill="#262626">Mild T1</text>
<text x="438" y="416.98333333333335" font-family="DejaVu Sans, sans-serif" font-size="10" text-anchor="start" fill="#262626">Mod T1</text>
<text x="438" y="533.0875000000001" font-family="DejaVu Sans, sans-serif" font-size="10" text-anchor="start" fill="#262626">Severe T1</text>
<text x="438" y="304.73750000000007" font-family="DejaVu Sans, sans-serif" font-size="10" text-anchor="start" fill="#262626">Recover T1</text>
<text x="716" y="153.9083333333333" font-family="DejaVu Sans, sans-serif" font-size="10" text-anchor="start" fill="#262626">Mild T2</text>
<text x="716" y="455.5666666666667" font-family="DejaVu Sans, sans-serif" font-size="10" text-anchor="start" fill="#262626">Mod T2</text>
<text x="716" y="542.7333333333333" font-family="DejaVu Sans, sans-serif" font-size="10" text-anchor="start" fill="#262626">Severe T2</text>
<text x="716" y="318.2416666666667" font-family="DejaVu Sans, sans-serif" font-size="10" text-anchor="start" fill="#262626">Recover T2</text>
<text x="968" y="258.43750000000006" font-family="DejaVu Sans, sans-serif" font-size="10" text-anchor="end" fill="#262626">Recover T3</text>
<text x="968" y="476.7875000000001" font-family="DejaVu Sans, sans-serif" font-size="10" text-anchor="end" fill="#262626">Mod T3</text>
<text x="968" y="550.45" font-family="DejaVu Sans, sans-serif" font-size="10" text-anchor="end" fill="#262626">Severe T3</text>
</svg>
