<svg xmlns="http://www.w3.org/2000/svg" viewBox="0 0 700 850" width="700" height="850" style="width:100%;height:auto" role="img" aria-labelledby="chart-title">
<title id="chart-title">Sankey — Vertical orientation (top→bottom conversion funnel)</title>
<rect x="0" y="0" width="700" height="850" fill="#FFFFFF" />
<text x="350" y="24.099999999999998" font-family="DejaVu Sans, sans-serif" font-size="17.88888888888889" text-anchor="middle" font-weight="bold" fill="#262626">Sankey — Vertical orientation (top→bottom conversion funnel)</text>
<rect x="88" y="102" width="542" height="654" fill="#FFFFFF" />
<defs><linearGradient id="grad-0" gradientUnits="userSpaceOnUse" x1="88" y1="120" x2="97.6249999991618" y2="314"><stop offset="0" stop-color="#1F77B4" stop-opacity="0.4" /><stop offset="1" stop-color="#D62728" stop-opacity="0.4" /></linearGradient></defs>
<path d="M 88 120 C 88 217 97.6249999991618 217 97.6249999991618 314 L 354.6249999991618 314 C 354.6249999991618 217 345 217 345 120 Z " fill="url(#grad-0)" data-sankey-link-source="0" data-sankey-link-target="3" />
<defs><linearGradient id="grad-1" gradientUnits="userSpaceOnUse" x1="97.6249999991618" y1="332" x2="161.8749999986581" y2="526"><stop offset="0" stop-color="#D62728" stop-opacity="0.4" /><stop offset="1" stop-color="#9467BD" stop-opacity="0.4" /></linearGradient></defs>
<path d="M 97.6249999991618 332 C 97.6249999991618 429 161.8749999986581 429 161.8749999986581 526 L 547.374999998658 526 C 547.374999998658 429 483.1249999991618 429 483.1249999991618 332 Z " fill="url(#grad-1)" data-sankey-link-source="3" data-sankey-link-target="4" />
<defs><linearGradient id="grad-2" gradientUnits="userSpaceOnUse" x1="161.8749999986581" y1="544" x2="258.24999999860137" y2="738"><stop offset="0" stop-color="#9467BD" stop-opacity="0.4" /><stop offset="1" stop-color="#8C564B" stop-opacity="0.4" /></linearGradient></defs>
<path d="M 161.8749999986581 544 C 161.8749999986581 641 258.24999999860137 641 258.24999999860137 738 L 450.99999999860137 738 C 450.99999999860137 641 354.6249999986581 641 354.6249999986581 544 Z " fill="url(#grad-2)" data-sankey-link-source="4" data-sankey-link-target="5" />
<defs><linearGradient id="grad-3" gradientUnits="userSpaceOnUse" x1="359" y1="120" x2="354.6249999991618" y2="314"><stop offset="0" stop-color="#FF7F0E" stop-opacity="0.4" /><stop offset="1" stop-color="#D62728" stop-opacity="0.4" /></linearGradient></defs>
<path d="M 359 120 C 359 217 354.6249999991618 217 354.6249999991618 314 L 515.2499999991618 314 C 515.2499999991618 217 519.625 217 519.625 120 Z " fill="url(#grad-3)" data-sankey-link-source="1" data-sankey-link-target="3" />
<defs><linearGradient id="grad-4" gradientUnits="userSpaceOnUse" x1="533.625" y1="120" x2="515.2499999991618" y2="314"><stop offset="0" stop-color="#2CA02C" stop-opacity="0.4" /><stop offset="1" stop-color="#D62728" stop-opacity="0.4" /></linearGradient></defs>
<path d="M 533.625 120 C 533.625 217 515.2499999991618 217 515.2499999991618 314 L 611.6249999991618 314 C 611.6249999991618 217 630 217 630 120 Z " fill="url(#grad-4)" data-sankey-link-source="2" data-sankey-link-target="3" />
<rect x="88" y="102" width="257" height="18" fill="#1F77B4" data-sankey-node-id="0" />
<rect x="359" y="102" width="160.625" height="18" fill="#FF7F0E" data-sankey-node-id="1" />
<rect x="533.625" y="102" width="96.375" height="18" fill="#2CA02C" data-sankey-node-id="2" />
<rect x="97.6249999991618" y="314" width="514" height="18" fill="#D62728" data-sankey-node-id="3" />
<rect x="161.8749999986581" y="526" width="385.5" height="18" fill="#9467BD" data-sankey-node-id="4" />
<rect x="258.24999999860137" y="738" width="192.75" height="18" fill="#8C564B" data-sankey-node-id="5" />
<line x1="216.5" y1="98" x2="216.5" y2="111" stroke="#262626" stroke-width="0.5" />
<text x="216.5" y="111" font-family="DejaVu Sans, sans-serif" font-size="10" text-anchor="middle" fill="#262626">Website</text>
<line x1="439.3125" y1="98" x2="439.3125" y2="111" stroke="#262626" stroke-width="0.5" />
<text x="439.3125" y="111" font-family="DejaVu Sans, sans-serif" font-size="10" text-anchor="middle" fill="#262626">Search</text>
<line x1="581.8125" y1="98" x2="581.8125" y2="111" stroke="#262626" stroke-width="0.5" />
<text x="581.8125" y="111" font-family="DejaVu Sans, sans-serif" font-size="10" text-anchor="middle" fill="#262626">Social</text>
<text x="354.6249999991618" y="310" font-family="DejaVu Sans, sans-serif" font-size="10" text-anchor="middle" fill="#262626">Signup</text>
<text x="354.6249999986581" y="522" font-family="DejaVu Sans, sans-serif" font-size="10" text-anchor="middle" fill="#262626">Trial</text>
<line x1="354.62499999860137" y1="770" x2="354.62499999860137" y2="753" stroke="#262626" stroke-width="0.5" />
<text x="354.62499999860137" y="753" font-family="DejaVu Sans, sans-serif" font-size="10" text-anchor="middle" fill="#262626">Paid</text>
</svg>
