<svg xmlns="http://www.w3.org/2000/svg" viewBox="0 0 700 850" width="700" height="850" role="img" aria-labelledby="chart-title">
<title id="chart-title">Sankey — Vertical orientation (top→bottom conversion funnel)</title>
<rect x="0" y="0" width="700" height="850" fill="#FFFFFF" />
<path d="M10.7176 -12.6305L10.7176 -9.87033Q9.64323 -10.3507 8.62126 -10.5953Q7.59928 -10.8399 6.69086 -10.8399Q5.48546 -10.8399 4.90896 -10.508Q4.33247 -10.1761 4.33247 -9.47727Q4.33247 -8.95318 4.72116 -8.66056Q5.10986 -8.36795 6.13184 -8.15831L7.56434 -7.87006Q9.73931 -7.43332 10.6565 -6.54237Q11.5736 -5.65142 11.5736 -4.00928Q11.5736 -1.85178 10.294 -0.799235Q9.01432 0.253309 6.38515 0.253309Q5.1448 0.253309 3.89573 0.0174696Q2.64665 -0.21837 1.39757 -0.681315L1.39757 -3.52013Q2.64665 -2.85628 3.81274 -2.51999Q4.97884 -2.1837 6.06196 -2.1837Q7.16254 -2.1837 7.74778 -2.55056Q8.33301 -2.91743 8.33301 -3.59874Q8.33301 -4.21018 7.93557 -4.5421Q7.53814 -4.87402 6.35021 -5.13607L5.04872 -5.42432Q3.09212 -5.84359 2.18807 -6.76074Q1.28402 -7.6779 1.28402 -9.23269Q1.28402 -11.1806 2.54183 -12.2287Q3.79964 -13.2769 6.15804 -13.2769Q7.23242 -13.2769 8.36795 -13.1153Q9.50347 -12.9537 10.7176 -12.6305ZM18.7711 -4.40234Q17.7928 -4.40234 17.2993 -4.07042Q16.8058 -3.7385 16.8058 -3.09212Q16.8058 -2.49816 17.2032 -2.16187Q17.6006 -1.82558 18.3082 -1.82558Q19.1904 -1.82558 19.7931 -2.45885Q20.3958 -3.09212 20.3958 -4.04422L20.3958 -4.40234L18.7711 -4.40234ZM23.549 -5.58154L23.549 0L20.3958 0L20.3958 -1.44998Q19.7669 -0.559028 18.9807 -0.152859Q18.1946 0.253309 17.0678 0.253309Q15.548 0.253309 14.6002 -0.633274Q13.6525 -1.51986 13.6525 -2.9349Q13.6525 -4.65565 14.8361 -5.45926Q16.0196 -6.26286 18.5527 -6.26286L20.3958 -6.26286L20.3958 -6.50743Q20.3958 -7.24989 19.8105 -7.59492Q19.2253 -7.93994 17.985 -7.93994Q16.9805 -7.93994 16.1157 -7.73904Q15.251 -7.53814 14.5085 -7.13634L14.5085 -9.52094Q15.513 -9.76552 16.5263 -9.89217Q17.5395 -10.0188 18.5527 -10.0188Q21.1994 -10.0188 22.3742 -8.97502Q23.549 -7.93121 23.549 -5.58154ZM36.2931 -5.95714L36.2931 0L33.1486 0L33.1486 -0.969564L33.1486 -4.55957Q33.1486 -5.82612 33.0918 -6.30653Q33.035 -6.78695 32.8953 -7.01405Q32.7119 -7.31977 32.3974 -7.4901Q32.083 -7.66043 31.6812 -7.66043Q30.7029 -7.66043 30.1438 -6.90487Q29.5848 -6.14931 29.5848 -4.81288L29.5848 0L26.4577 0L26.4577 -9.78299L29.5848 -9.78299L29.5848 -8.35048Q30.2923 -9.20649 31.0872 -9.61266Q31.8821 -10.0188 32.8429 -10.0188Q34.5374 -10.0188 35.4153 -8.97938Q36.2931 -7.93994 36.2931 -5.95714ZM39.1931 -13.5914L42.3201 -13.5914L42.3201 -6.19298L45.9189 -9.78299L49.5526 -9.78299L44.7746 -5.29329L49.9282 0L46.1373 0L42.3201 -4.07916L42.3201 0L39.1931 0L39.1931 -13.5914ZM60.8554 -4.9177L60.8554 -4.02675L53.5444 -4.02675Q53.6579 -2.92616 54.3392 -2.37587Q55.0206 -1.82558 56.2434 -1.82558Q57.2305 -1.82558 58.2655 -2.11819Q59.3006 -2.41081 60.3925 -3.00477L60.3925 -0.593967Q59.2831 -0.174696 58.1738 0.0393066Q57.0645 0.253309 55.9552 0.253309Q53.2998 0.253309 51.828 -1.09622Q50.3562 -2.44575 50.3562 -4.88276Q50.3562 -7.2761 51.8018 -8.64746Q53.2474 -10.0188 55.7805 -10.0188Q58.0865 -10.0188 59.4709 -8.62999Q60.8554 -7.24116 60.8554 -4.9177ZM57.641 -5.95714Q57.641 -6.84809 57.1213 -7.39402Q56.6016 -7.93994 55.763 -7.93994Q54.8546 -7.93994 54.2868 -7.42896Q53.7191 -6.91797 53.5793 -5.95714L57.641 -5.95714ZM61.9385 -9.78299L65.0656 -9.78299L67.6948 -3.14453L69.9309 -9.78299L73.0579 -9.78299L68.9438 0.92589Q68.3237 2.5593 67.4982 3.21004Q66.6728 3.86079 65.3189 3.86079L63.5108 3.86079L63.5108 1.80811L64.4891 1.80811Q65.284 1.80811 65.6465 1.5548Q66.0089 1.30149 66.2099 0.646376L66.2972 0.375597L61.9385 -9.78299ZM80.5699 -6.02702L96.5371 -6.02702L96.5371 -3.77344L80.5699 -3.77344L80.5699 -6.02702ZM103.813 -13.0411L107.194 -13.0411L110.653 -3.41531L114.103 -13.0411L117.483 -13.0411L112.653 0L108.644 0L103.813 -13.0411ZM128.838 -4.9177L128.838 -4.02675L121.527 -4.02675Q121.641 -2.92616 122.322 -2.37587Q123.004 -1.82558 124.226 -1.82558Q125.213 -1.82558 126.249 -2.11819Q127.284 -2.41081 128.375 -3.00477L128.375 -0.593967Q127.266 -0.174696 126.157 0.0393066Q125.048 0.253309 123.938 0.253309Q121.283 0.253309 119.811 -1.09622Q118.339 -2.44575 118.339 -4.88276Q118.339 -7.2761 119.785 -8.64746Q121.23 -10.0188 123.764 -10.0188Q126.07 -10.0188 127.454 -8.62999Q128.838 -7.24116 128.838 -4.9177ZM125.624 -5.95714Q125.624 -6.84809 125.104 -7.39402Q124.585 -7.93994 123.746 -7.93994Q122.838 -7.93994 122.27 -7.42896Q121.702 -6.91797 121.562 -5.95714L125.624 -5.95714ZM138.473 -7.11887Q138.062 -7.31103 137.656 -7.40275Q137.25 -7.49447 136.84 -7.49447Q135.634 -7.49447 134.983 -6.72144Q134.333 -5.94841 134.333 -4.50716L134.333 0L131.206 0L131.206 -9.78299L134.333 -9.78299L134.333 -8.17578Q134.935 -9.13661 135.717 -9.57772Q136.499 -10.0188 137.591 -10.0188Q137.748 -10.0188 137.931 -10.0057Q138.115 -9.99262 138.464 -9.94895L138.473 -7.11887ZM143.443 -12.5607L143.443 -9.78299L146.666 -9.78299L146.666 -7.54688L143.443 -7.54688L143.443 -3.39784Q143.443 -2.71653 143.714 -2.47632Q143.985 -2.23611 144.788 -2.23611L146.395 -2.23611L146.395 0L143.714 0Q141.862 0 141.089 -0.773031Q140.316 -1.54606 140.316 -3.39784L140.316 -7.54688L138.761 -7.54688L138.761 -9.78299L140.316 -9.78299L140.316 -12.5607L143.443 -12.5607ZM148.579 -9.78299L151.706 -9.78299L151.706 0L148.579 0L148.579 -9.78299ZM148.579 -13.5914L151.706 -13.5914L151.706 -11.0408L148.579 -11.0408L148.579 -13.5914ZM162.616 -9.47727L162.616 -6.9267Q161.978 -7.36344 161.336 -7.57308Q160.694 -7.78271 160.004 -7.78271Q158.694 -7.78271 157.965 -7.01842Q157.235 -6.25412 157.235 -4.88276Q157.235 -3.51139 157.965 -2.7471Q158.694 -1.9828 160.004 -1.9828Q160.738 -1.9828 161.397 -2.20117Q162.057 -2.41954 162.616 -2.84755L162.616 -0.288249C162.127 -0.107729 161.63 0.0276602 161.127 0.11792Q160.371 0.253309 159.611 0.253309Q156.965 0.253309 155.471 -1.10495Q153.977 -2.46322 153.977 -4.88276Q153.977 -7.3023 155.471 -8.66056Q156.965 -10.0188 159.611 -10.0188Q160.38 -10.0188 161.127 -9.88344Q161.873 -9.74805 162.616 -9.47727ZM169.7 -4.40234Q168.722 -4.40234 168.228 -4.07042Q167.735 -3.7385 167.735 -3.09212Q167.735 -2.49816 168.132 -2.16187Q168.529 -1.82558 169.237 -1.82558Q170.119 -1.82558 170.722 -2.45885Q171.325 -3.09212 171.325 -4.04422L171.325 -4.40234L169.7 -4.40234ZM174.478 -5.58154L174.478 0L171.325 0L171.325 -1.44998Q170.696 -0.559028 169.91 -0.152859Q169.123 0.253309 167.997 0.253309Q166.477 0.253309 165.529 -0.633274Q164.581 -1.51986 164.581 -2.9349Q164.581 -4.65565 165.765 -5.45926Q166.948 -6.26286 169.482 -6.26286L171.325 -6.26286L171.325 -6.50743Q171.325 -7.24989 170.739 -7.59492Q170.154 -7.93994 168.914 -7.93994Q167.909 -7.93994 167.044 -7.73904Q166.18 -7.53814 165.437 -7.13634L165.437 -9.52094Q166.442 -9.76552 167.455 -9.89217Q168.468 -10.0188 169.482 -10.0188Q172.128 -10.0188 173.303 -8.97502Q174.478 -7.93121 174.478 -5.58154ZM177.387 -13.5914L180.514 -13.5914L180.514 0L177.387 0L177.387 -13.5914ZM194.402 -7.78271Q193.362 -7.78271 192.817 -7.03589Q192.271 -6.28906 192.271 -4.88276Q192.271 -3.47645 192.817 -2.72963Q193.362 -1.9828 194.402 -1.9828Q195.424 -1.9828 195.965 -2.72963Q196.507 -3.47645 196.507 -4.88276Q196.507 -6.28906 195.965 -7.03589Q195.424 -7.78271 194.402 -7.78271ZM194.402 -10.0188Q196.926 -10.0188 198.346 -8.6562Q199.765 -7.29357 199.765 -4.88276Q199.765 -2.47195 198.346 -1.10932Q196.926 0.253309 194.402 0.253309Q191.869 0.253309 190.441 -1.10932Q189.013 -2.47195 189.013 -4.88276Q189.013 -7.29357 190.441 -8.6562Q191.869 -10.0188 194.402 -10.0188ZM209.303 -7.11887Q208.893 -7.31103 208.487 -7.40275Q208.081 -7.49447 207.67 -7.49447Q206.465 -7.49447 205.814 -6.72144Q205.163 -5.94841 205.163 -4.50716L205.163 0L202.036 0L202.036 -9.78299L205.163 -9.78299L205.163 -8.17578Q205.766 -9.13661 206.548 -9.57772Q207.329 -10.0188 208.421 -10.0188Q208.579 -10.0188 208.762 -10.0057Q208.945 -9.99262 209.295 -9.94895L209.303 -7.11887ZM210.858 -9.78299L213.985 -9.78299L213.985 0L210.858 0L210.858 -9.78299ZM210.858 -13.5914L213.985 -13.5914L213.985 -11.0408L210.858 -11.0408L210.858 -13.5914ZM226.756 -4.9177L226.756 -4.02675L219.445 -4.02675Q219.558 -2.92616 220.239 -2.37587Q220.921 -1.82558 222.144 -1.82558Q223.131 -1.82558 224.166 -2.11819Q225.201 -2.41081 226.293 -3.00477L226.293 -0.593967Q225.183 -0.174696 224.074 0.0393066Q222.965 0.253309 221.855 0.253309Q219.2 0.253309 217.728 -1.09622Q216.256 -2.44575 216.256 -4.88276Q216.256 -7.2761 217.702 -8.64746Q219.148 -10.0188 221.681 -10.0188Q223.987 -10.0188 225.371 -8.62999Q226.756 -7.24116 226.756 -4.9177ZM223.541 -5.95714Q223.541 -6.84809 223.022 -7.39402Q222.502 -7.93994 221.663 -7.93994Q220.755 -7.93994 220.187 -7.42896Q219.619 -6.91797 219.48 -5.95714L223.541 -5.95714ZM238.958 -5.95714L238.958 0L235.814 0L235.814 -0.969564L235.814 -4.55957Q235.814 -5.82612 235.757 -6.30653Q235.7 -6.78695 235.56 -7.01405Q235.377 -7.31977 235.062 -7.4901Q234.748 -7.66043 234.346 -7.66043Q233.368 -7.66043 232.809 -6.90487Q232.25 -6.14931 232.25 -4.81288L232.25 0L229.123 0L229.123 -9.78299L232.25 -9.78299L232.25 -8.35048Q232.957 -9.20649 233.752 -9.61266Q234.547 -10.0188 235.508 -10.0188Q237.202 -10.0188 238.08 -8.97938Q238.958 -7.93994 238.958 -5.95714ZM245.273 -12.5607L245.273 -9.78299L248.497 -9.78299L248.497 -7.54688L245.273 -7.54688L245.273 -3.39784Q245.273 -2.71653 245.544 -2.47632Q245.815 -2.23611 246.619 -2.23611L248.226 -2.23611L248.226 0L245.544 0Q243.692 0 242.919 -0.773031Q242.146 -1.54606 242.146 -3.39784L242.146 -7.54688L240.592 -7.54688L240.592 -9.78299L242.146 -9.78299L242.146 -12.5607L245.273 -12.5607ZM254.794 -4.40234Q253.816 -4.40234 253.323 -4.07042Q252.829 -3.7385 252.829 -3.09212Q252.829 -2.49816 253.226 -2.16187Q253.624 -1.82558 254.331 -1.82558Q255.214 -1.82558 255.816 -2.45885Q256.419 -3.09212 256.419 -4.04422L256.419 -4.40234L254.794 -4.40234ZM259.572 -5.58154L259.572 0L256.419 0L256.419 -1.44998Q255.79 -0.559028 255.004 -0.152859Q254.218 0.253309 253.091 0.253309Q251.571 0.253309 250.624 -0.633274Q249.676 -1.51986 249.676 -2.9349Q249.676 -4.65565 250.859 -5.45926Q252.043 -6.26286 254.576 -6.26286L256.419 -6.26286L256.419 -6.50743Q256.419 -7.24989 255.834 -7.59492Q255.249 -7.93994 254.008 -7.93994Q253.004 -7.93994 252.139 -7.73904Q251.274 -7.53814 250.532 -7.13634L250.532 -9.52094Q251.536 -9.76552 252.55 -9.89217Q253.563 -10.0188 254.576 -10.0188Q257.223 -10.0188 258.397 -8.97502Q259.572 -7.93121 259.572 -5.58154ZM265.896 -12.5607L265.896 -9.78299L269.119 -9.78299L269.119 -7.54688L265.896 -7.54688L265.896 -3.39784Q265.896 -2.71653 266.167 -2.47632Q266.438 -2.23611 267.241 -2.23611L268.849 -2.23611L268.849 0L266.167 0Q264.315 0 263.542 -0.773031Q262.769 -1.54606 262.769 -3.39784L262.769 -7.54688L261.214 -7.54688L261.214 -9.78299L262.769 -9.78299L262.769 -12.5607L265.896 -12.5607ZM271.032 -9.78299L274.159 -9.78299L274.159 0L271.032 0L271.032 -9.78299ZM271.032 -13.5914L274.159 -13.5914L274.159 -11.0408L271.032 -11.0408L271.032 -13.5914ZM281.82 -7.78271Q280.78 -7.78271 280.235 -7.03589Q279.689 -6.28906 279.689 -4.88276Q279.689 -3.47645 280.235 -2.72963Q280.78 -1.9828 281.82 -1.9828Q282.842 -1.9828 283.383 -2.72963Q283.925 -3.47645 283.925 -4.88276Q283.925 -6.28906 283.383 -7.03589Q282.842 -7.78271 281.82 -7.78271ZM281.82 -10.0188Q284.344 -10.0188 285.764 -8.6562Q287.183 -7.29357 287.183 -4.88276Q287.183 -2.47195 285.764 -1.10932Q284.344 0.253309 281.82 0.253309Q279.287 0.253309 277.859 -1.10932Q276.431 -2.47195 276.431 -4.88276Q276.431 -7.29357 277.859 -8.6562Q279.287 -10.0188 281.82 -10.0188ZM299.29 -5.95714L299.29 0L296.145 0L296.145 -0.969564L296.145 -4.55957Q296.145 -5.82612 296.088 -6.30653Q296.031 -6.78695 295.892 -7.01405Q295.708 -7.31977 295.394 -7.4901Q295.079 -7.66043 294.678 -7.66043Q293.699 -7.66043 293.14 -6.90487Q292.581 -6.14931 292.581 -4.81288L292.581 0L289.454 0L289.454 -9.78299L292.581 -9.78299L292.581 -8.35048Q293.289 -9.20649 294.084 -9.61266Q294.878 -10.0188 295.839 -10.0188Q297.534 -10.0188 298.412 -8.97938Q299.29 -7.93994 299.29 -5.95714ZM313.658 2.3584L311.064 2.3584Q309.728 0.200901 309.09 -1.74259Q308.452 -3.68609 308.452 -5.59901Q308.452 -7.51194 309.094 -9.4729Q309.736 -11.4339 311.064 -13.5739L313.658 -13.5739Q312.54 -11.5037 311.981 -9.52531Q311.422 -7.54687 311.422 -5.61648Q311.422 -3.68609 311.977 -1.70329Q312.531 0.279514 313.658 2.3584ZM320.008 -12.5607L320.008 -9.78299L323.232 -9.78299L323.232 -7.54688L320.008 -7.54688L320.008 -3.39784Q320.008 -2.71653 320.279 -2.47632Q320.55 -2.23611 321.354 -2.23611L322.961 -2.23611L322.961 0L320.279 0Q318.427 0 317.654 -0.773031Q316.881 -1.54606 316.881 -3.39784L316.881 -7.54688L315.327 -7.54688L315.327 -9.78299L316.881 -9.78299L316.881 -12.5607L320.008 -12.5607ZM329.8 -7.78271Q328.761 -7.78271 328.215 -7.03589Q327.669 -6.28906 327.669 -4.88276Q327.669 -3.47645 328.215 -2.72963Q328.761 -1.9828 329.8 -1.9828Q330.822 -1.9828 331.364 -2.72963Q331.905 -3.47645 331.905 -4.88276Q331.905 -6.28906 331.364 -7.03589Q330.822 -7.78271 329.8 -7.78271ZM329.8 -10.0188Q332.325 -10.0188 333.744 -8.6562Q335.163 -7.29357 335.163 -4.88276Q335.163 -2.47195 333.744 -1.10932Q332.325 0.253309 329.8 0.253309Q327.267 0.253309 325.839 -1.10932Q324.411 -2.47195 324.411 -4.88276Q324.411 -7.29357 325.839 -8.6562Q327.267 -10.0188 329.8 -10.0188ZM340.562 -1.41504L340.562 3.72103L337.434 3.72103L337.434 -9.78299L340.562 -9.78299L340.562 -8.35048Q341.208 -9.20649 341.994 -9.61266Q342.78 -10.0188 343.802 -10.0188Q345.61 -10.0188 346.772 -8.58195Q347.934 -7.14507 347.934 -4.88276Q347.934 -2.62044 346.772 -1.18357Q345.61 0.253309 343.802 0.253309Q342.78 0.253309 341.994 -0.152859Q341.208 -0.559028 340.562 -1.41504ZM342.64 -7.74778Q341.636 -7.74778 341.099 -7.00968Q340.562 -6.27159 340.562 -4.88276Q340.562 -3.49392 341.099 -2.75583Q341.636 -2.01774 342.64 -2.01774Q343.645 -2.01774 344.173 -2.75146Q344.702 -3.48519 344.702 -4.88276Q344.702 -6.28033 344.173 -7.01405Q343.645 -7.74778 342.64 -7.74778ZM362.853 -6.21918L362.853 -4.99631L359.42 -1.56353L358.154 -2.82981L359.883 -4.55957L349.759 -4.55957L349.759 -6.65592L359.883 -6.65592L358.154 -8.38555L359.42 -9.65196L362.853 -6.21918ZM370.435 -2.01774Q371.439 -2.01774 371.968 -2.75146Q372.496 -3.48519 372.496 -4.88276Q372.496 -6.28033 371.968 -7.01405Q371.439 -7.74778 370.435 -7.74778Q369.43 -7.74778 368.893 -7.00968Q368.356 -6.27159 368.356 -4.88276Q368.356 -3.49392 368.893 -2.75583Q369.43 -2.01774 370.435 -2.01774ZM368.356 -8.35048Q369.002 -9.20649 369.788 -9.61266Q370.574 -10.0188 371.596 -10.0188Q373.404 -10.0188 374.566 -8.58195Q375.728 -7.14507 375.728 -4.88276Q375.728 -2.62044 374.566 -1.18357Q373.404 0.253309 371.596 0.253309Q370.574 0.253309 369.788 -0.152859Q369.002 -0.559028 368.356 -1.41504L368.356 0L365.229 0L365.229 -13.5914L368.356 -13.5914L368.356 -8.35048ZM382.69 -7.78271Q381.65 -7.78271 381.104 -7.03589Q380.558 -6.28906 380.558 -4.88276Q380.558 -3.47645 381.104 -2.72963Q381.65 -1.9828 382.69 -1.9828Q383.711 -1.9828 384.253 -2.72963Q384.795 -3.47645 384.795 -4.88276Q384.795 -6.28906 384.253 -7.03589Q383.711 -7.78271 382.69 -7.78271ZM382.69 -10.0188Q385.214 -10.0188 386.633 -8.6562Q388.053 -7.29357 388.053 -4.88276Q388.053 -2.47195 386.633 -1.10932Q385.214 0.253309 382.69 0.253309Q380.156 0.253309 378.728 -1.10932Q377.3 -2.47195 377.3 -4.88276Q377.3 -7.29357 378.728 -8.6562Q380.156 -10.0188 382.69 -10.0188ZM393.739 -12.5607L393.739 -9.78299L396.962 -9.78299L396.962 -7.54688L393.739 -7.54688L393.739 -3.39784Q393.739 -2.71653 394.01 -2.47632Q394.281 -2.23611 395.084 -2.23611L396.691 -2.23611L396.691 0L394.01 0Q392.158 0 391.385 -0.773031Q390.612 -1.54606 390.612 -3.39784L390.612 -7.54688L389.057 -7.54688L389.057 -9.78299L390.612 -9.78299L390.612 -12.5607L393.739 -12.5607ZM402.29 -12.5607L402.29 -9.78299L405.514 -9.78299L405.514 -7.54688L402.29 -7.54688L402.29 -3.39784Q402.29 -2.71653 402.561 -2.47632Q402.832 -2.23611 403.636 -2.23611L405.243 -2.23611L405.243 0L402.561 0Q400.709 0 399.936 -0.773031Q399.163 -1.54606 399.163 -3.39784L399.163 -7.54688L397.609 -7.54688L397.609 -9.78299L399.163 -9.78299L399.163 -12.5607L402.29 -12.5607ZM412.082 -7.78271Q411.043 -7.78271 410.497 -7.03589Q409.951 -6.28906 409.951 -4.88276Q409.951 -3.47645 410.497 -2.72963Q411.043 -1.9828 412.082 -1.9828Q413.104 -1.9828 413.646 -2.72963Q414.187 -3.47645 414.187 -4.88276Q414.187 -6.28906 413.646 -7.03589Q413.104 -7.78271 412.082 -7.78271ZM412.082 -10.0188Q414.607 -10.0188 416.026 -8.6562Q417.445 -7.29357 417.445 -4.88276Q417.445 -2.47195 416.026 -1.10932Q414.607 0.253309 412.082 0.253309Q409.549 0.253309 408.121 -1.10932Q406.693 -2.47195 406.693 -4.88276Q406.693 -7.29357 408.121 -8.6562Q409.549 -10.0188 412.082 -10.0188ZM428.783 -8.15831Q429.377 -9.06673 430.194 -9.54278Q431.011 -10.0188 431.989 -10.0188Q433.675 -10.0188 434.557 -8.97938Q435.439 -7.93994 435.439 -5.95714L435.439 0L432.295 0L432.295 -5.10113Q432.303 -5.21468 432.308 -5.33697Q432.312 -5.45926 432.312 -5.68636Q432.312 -6.7258 432.006 -7.19312Q431.701 -7.66043 431.019 -7.66043Q430.128 -7.66043 429.644 -6.9267Q429.159 -6.19298 429.141 -4.80414L429.141 0L425.997 0L425.997 -5.10113Q425.997 -6.7258 425.717 -7.19312Q425.438 -7.66043 424.721 -7.66043Q423.822 -7.66043 423.333 -6.92234Q422.843 -6.18424 422.843 -4.81288L422.843 0L419.699 0L419.699 -9.78299L422.843 -9.78299L422.843 -8.35048Q423.42 -9.18028 424.167 -9.59956Q424.914 -10.0188 425.813 -10.0188Q426.827 -10.0188 427.604 -9.52968Q428.381 -9.04053 428.783 -8.15831ZM452.489 -9.47727L452.489 -6.9267Q451.852 -7.36344 451.21 -7.57308Q450.568 -7.78271 449.878 -7.78271Q448.567 -7.78271 447.838 -7.01842Q447.109 -6.25412 447.109 -4.88276Q447.109 -3.51139 447.838 -2.7471Q448.567 -1.9828 449.878 -1.9828Q450.611 -1.9828 451.271 -2.20117Q451.93 -2.41954 452.489 -2.84755L452.489 -0.288249C452 -0.107729 451.504 0.0276602 451 0.11792Q450.245 0.253309 449.485 0.253309Q446.838 0.253309 445.344 -1.10495Q443.851 -2.46322 443.851 -4.88276Q443.851 -7.3023 445.344 -8.66056Q446.838 -10.0188 449.485 -10.0188Q450.253 -10.0188 451 -9.88344Q451.747 -9.74805 452.489 -9.47727ZM459.844 -7.78271Q458.805 -7.78271 458.259 -7.03589Q457.713 -6.28906 457.713 -4.88276Q457.713 -3.47645 458.259 -2.72963Q458.805 -1.9828 459.844 -1.9828Q460.866 -1.9828 461.408 -2.72963Q461.949 -3.47645 461.949 -4.88276Q461.949 -6.28906 461.408 -7.03589Q460.866 -7.78271 459.844 -7.78271ZM459.844 -10.0188Q462.368 -10.0188 463.788 -8.6562Q465.207 -7.29357 465.207 -4.88276Q465.207 -2.47195 463.788 -1.10932Q462.368 0.253309 459.844 0.253309Q457.311 0.253309 455.883 -1.10932Q454.455 -2.47195 454.455 -4.88276Q454.455 -7.29357 455.883 -8.6562Q457.311 -10.0188 459.844 -10.0188ZM477.314 -5.95714L477.314 0L474.169 0L474.169 -0.969564L474.169 -4.55957Q474.169 -5.82612 474.112 -6.30653Q474.056 -6.78695 473.916 -7.01405Q473.732 -7.31977 473.418 -7.4901Q473.104 -7.66043 472.702 -7.66043Q471.723 -7.66043 471.164 -6.90487Q470.605 -6.14931 470.605 -4.81288L470.605 0L467.478 0L467.478 -9.78299L470.605 -9.78299L470.605 -8.35048Q471.313 -9.20649 472.108 -9.61266Q472.903 -10.0188 473.863 -10.0188Q475.558 -10.0188 476.436 -8.97938Q477.314 -7.93994 477.314 -5.95714ZM478.982 -9.78299L482.109 -9.78299L484.546 -3.02224L486.974 -9.78299L490.11 -9.78299L486.258 0L482.825 0L478.982 -9.78299ZM501.64 -4.9177L501.64 -4.02675L494.329 -4.02675Q494.443 -2.92616 495.124 -2.37587Q495.805 -1.82558 497.028 -1.82558Q498.015 -1.82558 499.05 -2.11819Q500.085 -2.41081 501.177 -3.00477L501.177 -0.593967Q500.068 -0.174696 498.959 0.0393066Q497.849 0.253309 496.74 0.253309Q494.085 0.253309 492.613 -1.09622Q491.141 -2.44575 491.141 -4.88276Q491.141 -7.2761 492.587 -8.64746Q494.032 -10.0188 496.565 -10.0188Q498.871 -10.0188 500.256 -8.62999Q501.64 -7.24116 501.64 -4.9177ZM498.426 -5.95714Q498.426 -6.84809 497.906 -7.39402Q497.386 -7.93994 496.548 -7.93994Q495.639 -7.93994 495.072 -7.42896Q494.504 -6.91797 494.364 -5.95714L498.426 -5.95714ZM511.275 -7.11887Q510.864 -7.31103 510.458 -7.40275Q510.052 -7.49447 509.641 -7.49447Q508.436 -7.49447 507.785 -6.72144Q507.134 -5.94841 507.134 -4.50716L507.134 0L504.007 0L504.007 -9.78299L507.134 -9.78299L507.134 -8.17578Q507.737 -9.13661 508.519 -9.57772Q509.301 -10.0188 510.392 -10.0188Q510.55 -10.0188 510.733 -10.0057Q510.917 -9.99262 511.266 -9.94895L511.275 -7.11887ZM520.472 -9.47727L520.472 -7.1014Q519.468 -7.52067 518.533 -7.73031Q517.599 -7.93994 516.769 -7.93994Q515.878 -7.93994 515.446 -7.7172Q515.013 -7.49447 515.013 -7.03152Q515.013 -6.65592 515.341 -6.45502Q515.668 -6.25412 516.516 -6.15804L517.066 -6.07943Q519.468 -5.77371 520.298 -5.07492Q521.128 -4.37614 521.128 -2.88249Q521.128 -1.31896 519.975 -0.532823Q518.822 0.253309 516.533 0.253309Q515.563 0.253309 514.528 0.10045Q513.493 -0.0524089 512.401 -0.358127L512.401 -2.734Q513.336 -2.27978 514.319 -2.05268Q515.301 -1.82557 516.315 -1.82558Q517.232 -1.82558 517.695 -2.07888Q518.158 -2.33219 518.158 -2.83008Q518.158 -3.24935 517.839 -3.45462Q517.52 -3.65989 516.568 -3.77344L516.018 -3.84332Q513.93 -4.10536 513.091 -4.81288Q512.253 -5.5204 512.253 -6.96164Q512.253 -8.51644 513.319 -9.26763Q514.384 -10.0188 516.585 -10.0188Q517.45 -10.0188 518.402 -9.8878Q519.354 -9.75678 520.472 -9.47727ZM523.477 -9.78299L526.604 -9.78299L526.604 0L523.477 0L523.477 -9.78299ZM523.477 -13.5914L526.604 -13.5914L526.604 -11.0408L523.477 -11.0408L523.477 -13.5914ZM534.265 -7.78271Q533.225 -7.78271 532.679 -7.03589Q532.133 -6.28906 532.133 -4.88276Q532.133 -3.47645 532.679 -2.72963Q533.225 -1.9828 534.265 -1.9828Q535.287 -1.9828 535.828 -2.72963Q536.37 -3.47645 536.37 -4.88276Q536.37 -6.28906 535.828 -7.03589Q535.287 -7.78271 534.265 -7.78271ZM534.265 -10.0188Q536.789 -10.0188 538.208 -8.6562Q539.628 -7.29357 539.628 -4.88276Q539.628 -2.47195 538.208 -1.10932Q536.789 0.253309 534.265 0.253309Q531.732 0.253309 530.303 -1.10932Q528.875 -2.47195 528.875 -4.88276Q528.875 -7.29357 530.303 -8.6562Q531.732 -10.0188 534.265 -10.0188ZM551.734 -5.95714L551.734 0L548.59 0L548.59 -0.969564L548.59 -4.55957Q548.59 -5.82612 548.533 -6.30653Q548.476 -6.78695 548.336 -7.01405Q548.153 -7.31977 547.839 -7.4901Q547.524 -7.66043 547.122 -7.66043Q546.144 -7.66043 545.585 -6.90487Q545.026 -6.14931 545.026 -4.81288L545.026 0L541.899 0L541.899 -9.78299L545.026 -9.78299L545.026 -8.35048Q545.733 -9.20649 546.528 -9.61266Q547.323 -10.0188 548.284 -10.0188Q549.979 -10.0188 550.856 -8.97938Q551.734 -7.93994 551.734 -5.95714ZM567.3 -13.5914L567.3 -11.5387L565.57 -11.5387Q564.906 -11.5387 564.644 -11.2985Q564.382 -11.0583 564.382 -10.4643L564.382 -9.78299L567.055 -9.78299L567.055 -7.54688L564.382 -7.54688L564.382 0L561.255 0L561.255 -7.54688L559.7 -7.54688L559.7 -9.78299L561.255 -9.78299L561.255 -10.4643Q561.255 -12.0628 562.146 -12.8271Q563.037 -13.5914 564.906 -13.5914L567.3 -13.5914ZM568.54 -3.80838L568.54 -9.78299L571.685 -9.78299L571.685 -8.80469Q571.685 -8.00982 571.676 -6.80878Q571.667 -5.60775 571.667 -5.20595Q571.667 -4.02675 571.728 -3.50703Q571.789 -2.9873 571.938 -2.75146Q572.13 -2.44575 572.44 -2.27979Q572.75 -2.11382 573.152 -2.11382Q574.13 -2.11382 574.689 -2.86502Q575.248 -3.61621 575.248 -4.95264L575.248 -9.78299L578.375 -9.78299L578.375 0L575.248 0L575.248 -1.41504Q574.541 -0.559028 573.75 -0.152859Q572.96 0.253309 572.008 0.253309Q570.313 0.253309 569.427 -0.786133Q568.54 -1.82558 568.54 -3.80838ZM591.216 -5.95714L591.216 0L588.071 0L588.071 -0.969564L588.071 -4.55957Q588.071 -5.82612 588.014 -6.30653Q587.958 -6.78695 587.818 -7.01405Q587.634 -7.31977 587.32 -7.4901Q587.005 -7.66043 586.604 -7.66043Q585.625 -7.66043 585.066 -6.90487Q584.507 -6.14931 584.507 -4.81288L584.507 0L581.38 0L581.38 -9.78299L584.507 -9.78299L584.507 -8.35048Q585.215 -9.20649 586.01 -9.61266Q586.805 -10.0188 587.765 -10.0188Q589.46 -10.0188 590.338 -8.97938Q591.216 -7.93994 591.216 -5.95714ZM603.951 -5.95714L603.951 0L600.806 0L600.806 -0.969564L600.806 -4.55957Q600.806 -5.82612 600.75 -6.30653Q600.693 -6.78695 600.553 -7.01405Q600.37 -7.31977 600.055 -7.4901Q599.741 -7.66043 599.339 -7.66043Q598.361 -7.66043 597.802 -6.90487Q597.243 -6.14931 597.243 -4.81288L597.243 0L594.116 0L594.116 -9.78299L597.243 -9.78299L597.243 -8.35048Q597.95 -9.20649 598.745 -9.61266Q599.54 -10.0188 600.501 -10.0188Q602.195 -10.0188 603.073 -8.97938Q603.951 -7.93994 603.951 -5.95714ZM616.616 -4.9177L616.616 -4.02675L609.305 -4.02675Q609.419 -2.92616 610.1 -2.37587Q610.782 -1.82558 612.004 -1.82558Q612.991 -1.82558 614.027 -2.11819Q615.062 -2.41081 616.153 -3.00477L616.153 -0.593967Q615.044 -0.174696 613.935 0.0393066Q612.826 0.253309 611.716 0.253309Q609.061 0.253309 607.589 -1.09622Q606.117 -2.44575 606.117 -4.88276Q606.117 -7.2761 607.563 -8.64746Q609.008 -10.0188 611.542 -10.0188Q613.847 -10.0188 615.232 -8.62999Q616.616 -7.24116 616.616 -4.9177ZM613.402 -5.95714Q613.402 -6.84809 612.882 -7.39402Q612.363 -7.93994 611.524 -7.93994Q610.616 -7.93994 610.048 -7.42896Q609.48 -6.91797 609.34 -5.95714L613.402 -5.95714ZM618.984 -13.5914L622.111 -13.5914L622.111 0L618.984 0L618.984 -13.5914ZM625.045 2.3584Q626.164 0.279514 626.723 -1.70329Q627.282 -3.68609 627.282 -5.61648Q627.282 -7.54687 626.723 -9.52531Q626.164 -11.5037 625.045 -13.5739L627.64 -13.5739Q628.967 -11.4339 629.609 -9.4729Q630.251 -7.51194 630.251 -5.59901Q630.251 -3.68609 629.614 -1.74259Q628.976 0.200901 627.64 2.3584L625.045 2.3584Z" fill="#262626" transform="translate(350,24.099999999999998) translate(-315.8943786621094,0)" />
<rect x="88" y="102" width="542" height="654" fill="#FFFFFF" />
<defs><linearGradient id="grad-0" gradientUnits="userSpaceOnUse" x1="88" y1="120" x2="97.6249999991618" y2="314"><stop offset="0" stop-color="#1F77B4" stop-opacity="0.4" /><stop offset="1" stop-color="#D62728" stop-opacity="0.4" /></linearGradient></defs>
<path d="M 88 120 C 88 217 97.6249999991618 217 97.6249999991618 314 L 354.6249999991618 314 C 354.6249999991618 217 345 217 345 120 Z " fill="url(#grad-0)" />
<defs><linearGradient id="grad-1" gradientUnits="userSpaceOnUse" x1="97.6249999991618" y1="332" x2="161.8749999986581" y2="526"><stop offset="0" stop-color="#D62728" stop-opacity="0.4" /><stop offset="1" stop-color="#9467BD" stop-opacity="0.4" /></linearGradient></defs>
<path d="M 97.6249999991618 332 C 97.6249999991618 429 161.8749999986581 429 161.8749999986581 526 L 547.374999998658 526 C 547.374999998658 429 483.1249999991618 429 483.1249999991618 332 Z " fill="url(#grad-1)" />
<defs><linearGradient id="grad-2" gradientUnits="userSpaceOnUse" x1="161.8749999986581" y1="544" x2="258.24999999860137" y2="738"><stop offset="0" stop-color="#9467BD" stop-opacity="0.4" /><stop offset="1" stop-color="#8C564B" stop-opacity="0.4" /></linearGradient></defs>
<path d="M 161.8749999986581 544 C 161.8749999986581 641 258.24999999860137 641 258.24999999860137 738 L 450.99999999860137 738 C 450.99999999860137 641 354.6249999986581 641 354.6249999986581 544 Z " fill="url(#grad-2)" />
<defs><linearGradient id="grad-3" gradientUnits="userSpaceOnUse" x1="359" y1="120" x2="354.6249999991618" y2="314"><stop offset="0" stop-color="#FF7F0E" stop-opacity="0.4" /><stop offset="1" stop-color="#D62728" stop-opacity="0.4" /></linearGradient></defs>
<path d="M 359 120 C 359 217 354.6249999991618 217 354.6249999991618 314 L 515.2499999991618 314 C 515.2499999991618 217 519.625 217 519.625 120 Z " fill="url(#grad-3)" />
<defs><linearGradient id="grad-4" gradientUnits="userSpaceOnUse" x1="533.625" y1="120" x2="515.2499999991618" y2="314"><stop offset="0" stop-color="#2CA02C" stop-opacity="0.4" /><stop offset="1" stop-color="#D62728" stop-opacity="0.4" /></linearGradient></defs>
<path d="M 533.625 120 C 533.625 217 515.2499999991618 217 515.2499999991618 314 L 611.6249999991618 314 C 611.6249999991618 217 630 217 630 120 Z " fill="url(#grad-4)" />
<rect x="88" y="102" width="257" height="18" fill="#1F77B4" data-sankey-link-source="0" data-sankey-link-target="3" data-sankey-link-source="3" data-sankey-link-target="4" data-sankey-link-source="4" data-sankey-link-target="5" data-sankey-link-source="1" data-sankey-link-target="3" data-sankey-link-source="2" data-sankey-link-target="3" data-sankey-node-id="0" />
<rect x="359" y="102" width="160.625" height="18" fill="#FF7F0E" data-sankey-node-id="1" />
<rect x="533.625" y="102" width="96.375" height="18" fill="#2CA02C" data-sankey-node-id="2" />
<rect x="97.6249999991618" y="314" width="514" height="18" fill="#D62728" data-sankey-node-id="3" />
<rect x="161.8749999986581" y="526" width="385.5" height="18" fill="#9467BD" data-sankey-node-id="4" />
<rect x="258.24999999860137" y="738" width="192.75" height="18" fill="#8C564B" data-sankey-node-id="5" />
<line x1="216.5" y1="98" x2="216.5" y2="111" stroke="#262626" stroke-width="0.5" />
<path d="M0.332031 -7.29004L1.32813 -7.29004L2.86133 -1.12793L4.38965 -7.29004L5.49805 -7.29004L7.03125 -1.12793L8.55957 -7.29004L9.56055 -7.29004L7.72949 0L6.48926 0L4.95117 -6.32813L3.39844 0L2.1582 0L0.332031 -7.29004ZM15.5078 -2.95898L15.5078 -2.51953L11.377 -2.51953Q11.4355 -1.5918 11.936 -1.10596Q12.4365 -0.620117 13.3301 -0.620117Q13.8477 -0.620117 14.3335 -0.74707Q14.8193 -0.874023 15.2979 -1.12793L15.2979 -0.27832Q14.8145 -0.0732422 14.3066 0.0341797Q13.7988 0.141602 13.2764 0.141602Q11.9678 0.141602 11.2036 -0.620117Q10.4395 -1.38184 10.4395 -2.68066Q10.4395 -4.02344 11.1646 -4.81201Q11.8896 -5.60059 13.1201 -5.60059Q14.2236 -5.60059 14.8657 -4.89014Q15.5078 -4.17969 15.5078 -2.95898ZM14.6094 -3.22266Q14.5996 -3.95996 14.1968 -4.39941Q13.7939 -4.83887 13.1299 -4.83887Q12.3779 -4.83887 11.9263 -4.41406Q11.4746 -3.98926 11.4063 -3.21777L14.6094 -3.22266ZM20.9082 -2.72949Q20.9082 -3.7207 20.5005 -4.28467Q20.0928 -4.84863 19.3799 -4.84863Q18.667 -4.84863 18.2593 -4.28467Q17.8516 -3.7207 17.8516 -2.72949Q17.8516 -1.73828 18.2593 -1.17432Q18.667 -0.610352 19.3799 -0.610352Q20.0928 -0.610352 20.5005 -1.17432Q20.9082 -1.73828 20.9082 -2.72949ZM17.8516 -4.63867Q18.1348 -5.12695 18.5669 -5.36377Q18.999 -5.60059 19.5996 -5.60059Q20.5957 -5.60059 21.2183 -4.80957Q21.8408 -4.01855 21.8408 -2.72949Q21.8408 -1.44043 21.2183 -0.649414Q20.5957 0.141602 19.5996 0.141602Q18.999 0.141602 18.5669 -0.0952148Q18.1348 -0.332031 17.8516 -0.820313L17.8516 0L16.9482 0L16.9482 -7.59766L17.8516 -7.59766L17.8516 -4.63867ZM26.8164 -5.30762L26.8164 -4.45801Q26.4355 -4.65332 26.0254 -4.75098Q25.6152 -4.84863 25.1758 -4.84863Q24.5068 -4.84863 24.1724 -4.64355Q23.8379 -4.43848 23.8379 -4.02832Q23.8379 -3.71582 24.0771 -3.5376Q24.3164 -3.35937 25.0391 -3.19824L25.3467 -3.12988Q26.3037 -2.9248 26.7065 -2.55127Q27.1094 -2.17773 27.1094 -1.50879Q27.1094 -0.74707 26.5063 -0.302734Q25.9033 0.141602 24.8486 0.141602Q24.4092 0.141602 23.9331 0.0561523Q23.457 -0.0292969 22.9297 -0.200195L22.9297 -1.12793Q23.4277 -0.869141 23.9111 -0.739746Q24.3945 -0.610352 24.8682 -0.610352Q25.5029 -0.610352 25.8447 -0.827637Q26.1865 -1.04492 26.1865 -1.44043Q26.1865 -1.80664 25.9399 -2.00195Q25.6934 -2.19727 24.8584 -2.37793L24.5459 -2.45117Q23.7109 -2.62695 23.3398 -2.99072Q22.9688 -3.35449 22.9688 -3.98926Q22.9688 -4.76074 23.5156 -5.18066Q24.0625 -5.60059 25.0684 -5.60059Q25.5664 -5.60059 26.0059 -5.52734Q26.4453 -5.4541 26.8164 -5.30762ZM28.54 -5.46875L29.4385 -5.46875L29.4385 0L28.54 0L28.54 -5.46875ZM28.54 -7.59766L29.4385 -7.59766L29.4385 -6.45996L28.54 -6.45996L28.54 -7.59766ZM32.207 -7.02148L32.207 -5.46875L34.0576 -5.46875L34.0576 -4.77051L32.207 -4.77051L32.207 -1.80176Q32.207 -1.13281 32.3901 -0.942383Q32.5732 -0.751953 33.1348 -0.751953L34.0576 -0.751953L34.0576 0L33.1348 0Q32.0947 0 31.6992 -0.388184Q31.3037 -0.776367 31.3037 -1.80176L31.3037 -4.77051L30.6445 -4.77051L30.6445 -5.46875L31.3037 -5.46875L31.3037 -7.02148L32.207 -7.02148ZM39.917 -2.95898L39.917 -2.51953L35.7861 -2.51953Q35.8447 -1.5918 36.3452 -1.10596Q36.8457 -0.620117 37.7393 -0.620117Q38.2568 -0.620117 38.7427 -0.74707Q39.2285 -0.874023 39.707 -1.12793L39.707 -0.27832Q39.2236 -0.0732422 38.7158 0.0341797Q38.208 0.141602 37.6855 0.141602Q36.377 0.141602 35.6128 -0.620117Q34.8486 -1.38184 34.8486 -2.68066Q34.8486 -4.02344 35.5737 -4.81201Q36.2988 -5.60059 37.5293 -5.60059Q38.6328 -5.60059 39.2749 -4.89014Q39.917 -4.17969 39.917 -2.95898ZM39.0186 -3.22266Q39.0088 -3.95996 38.606 -4.39941Q38.2031 -4.83887 37.5391 -4.83887Q36.7871 -4.83887 36.3354 -4.41406Q35.8838 -3.98926 35.8154 -3.21777L39.0186 -3.22266Z" fill="#262626" transform="translate(216.5,111) translate(-20.224609375,0)" />
<line x1="439.3125" y1="98" x2="439.3125" y2="111" stroke="#262626" stroke-width="0.5" />
<path d="M5.35156 -7.05078L5.35156 -6.08887Q4.79004 -6.35742 4.29199 -6.48926Q3.79394 -6.62109 3.33008 -6.62109Q2.52441 -6.62109 2.0874 -6.30859Q1.65039 -5.99609 1.65039 -5.41992Q1.65039 -4.93652 1.94092 -4.68994Q2.23145 -4.44336 3.04199 -4.29199L3.6377 -4.16992Q4.74121 -3.95996 5.26611 -3.43018Q5.79102 -2.90039 5.79102 -2.01172Q5.79102 -0.952148 5.08057 -0.405273Q4.37012 0.141602 2.99805 0.141602Q2.48047 0.141602 1.89697 0.0244141Q1.31348 -0.0927734 0.688477 -0.322266L0.688477 -1.33789Q1.28906 -1.00098 1.86523 -0.830078Q2.44141 -0.65918 2.99805 -0.65918Q3.84277 -0.65918 4.30176 -0.991211Q4.76074 -1.32324 4.76074 -1.93848Q4.76074 -2.47559 4.43115 -2.77832Q4.10156 -3.08105 3.34961 -3.23242L2.74902 -3.34961Q1.64551 -3.56934 1.15234 -4.03809Q0.65918 -4.50684 0.65918 -5.3418Q0.65918 -6.30859 1.34033 -6.86523Q2.02148 -7.42188 3.21777 -7.42188Q3.73047 -7.42188 4.2627 -7.3291Q4.79492 -7.23633 5.35156 -7.05078ZM11.9678 -2.95898L11.9678 -2.51953L7.83691 -2.51953Q7.89551 -1.5918 8.396 -1.10596Q8.89648 -0.620117 9.79004 -0.620117Q10.3076 -0.620117 10.7935 -0.74707Q11.2793 -0.874023 11.7578 -1.12793L11.7578 -0.27832Q11.2744 -0.0732422 10.7666 0.0341797Q10.2588 0.141602 9.73633 0.141602Q8.42773 0.141602 7.66357 -0.620117Q6.89941 -1.38184 6.89941 -2.68066Q6.89941 -4.02344 7.62451 -4.81201Q8.34961 -5.60059 9.58008 -5.60059Q10.6836 -5.60059 11.3257 -4.89014Q11.9678 -4.17969 11.9678 -2.95898ZM11.0693 -3.22266Q11.0596 -3.95996 10.6567 -4.39941Q10.2539 -4.83887 9.58984 -4.83887Q8.83789 -4.83887 8.38623 -4.41406Q7.93457 -3.98926 7.86621 -3.21777L11.0693 -3.22266ZM15.9277 -2.74902Q14.8389 -2.74902 14.4189 -2.5Q13.999 -2.25098 13.999 -1.65039Q13.999 -1.17187 14.314 -0.891113Q14.6289 -0.610352 15.1709 -0.610352Q15.918 -0.610352 16.3696 -1.14014Q16.8213 -1.66992 16.8213 -2.54883L16.8213 -2.74902L15.9277 -2.74902ZM17.7197 -3.12012L17.7197 0L16.8213 0L16.8213 -0.830078Q16.5137 -0.332031 16.0547 -0.0952148Q15.5957 0.141602 14.9316 0.141602Q14.0918 0.141602 13.5962 -0.32959Q13.1006 -0.800781 13.1006 -1.5918Q13.1006 -2.51465 13.7183 -2.9834Q14.3359 -3.45215 15.5615 -3.45215L16.8213 -3.45215L16.8213 -3.54004Q16.8213 -4.16016 16.4136 -4.49951Q16.0059 -4.83887 15.2686 -4.83887Q14.7998 -4.83887 14.3555 -4.72656Q13.9111 -4.61426 13.501 -4.38965L13.501 -5.21973Q13.9941 -5.41016 14.458 -5.50537Q14.9219 -5.60059 15.3613 -5.60059Q16.5479 -5.60059 17.1338 -4.98535Q17.7197 -4.37012 17.7197 -3.12012ZM22.7393 -4.62891Q22.5879 -4.7168 22.4097 -4.7583Q22.2314 -4.7998 22.0166 -4.7998Q21.2549 -4.7998 20.8472 -4.3042Q20.4395 -3.80859 20.4395 -2.88086L20.4395 0L19.5361 0L19.5361 -5.46875L20.4395 -5.46875L20.4395 -4.61914Q20.7227 -5.11719 21.1768 -5.35889Q21.6309 -5.60059 22.2803 -5.60059Q22.373 -5.60059 22.4854 -5.58838Q22.5977 -5.57617 22.7344 -5.55176L22.7393 -4.62891ZM27.6172 -5.25879L27.6172 -4.41895Q27.2363 -4.62891 26.853 -4.73389Q26.4697 -4.83887 26.0791 -4.83887Q25.2051 -4.83887 24.7217 -4.28467Q24.2383 -3.73047 24.2383 -2.72949Q24.2383 -1.72852 24.7217 -1.17432Q25.2051 -0.620117 26.0791 -0.620117Q26.4697 -0.620117 26.853 -0.725098Q27.2363 -0.830078 27.6172 -1.04004L27.6172 -0.209961Q27.2412 -0.0341797 26.8384 0.0537109Q26.4355 0.141602 25.9814 0.141602Q24.7461 0.141602 24.0186 -0.634766Q23.291 -1.41113 23.291 -2.72949Q23.291 -4.06738 24.0259 -4.83398Q24.7607 -5.60059 26.04 -5.60059Q26.4551 -5.60059 26.8506 -5.51514Q27.2461 -5.42969 27.6172 -5.25879ZM33.7256 -3.30078L33.7256 0L32.8271 0L32.8271 -3.27148Q32.8271 -4.04785 32.5244 -4.43359Q32.2217 -4.81934 31.6162 -4.81934Q30.8887 -4.81934 30.4688 -4.35547Q30.0488 -3.8916 30.0488 -3.09082L30.0488 0L29.1455 0L29.1455 -7.59766L30.0488 -7.59766L30.0488 -4.61914Q30.3711 -5.1123 30.8081 -5.35645Q31.2451 -5.60059 31.8164 -5.60059Q32.7588 -5.60059 33.2422 -5.01709Q33.7256 -4.43359 33.7256 -3.30078Z" fill="#262626" transform="translate(439.3125,111) translate(-17.28759765625,0)" />
<line x1="581.8125" y1="98" x2="581.8125" y2="111" stroke="#262626" stroke-width="0.5" />
<path d="M5.35156 -7.05078L5.35156 -6.08887Q4.79004 -6.35742 4.29199 -6.48926Q3.79394 -6.62109 3.33008 -6.62109Q2.52441 -6.62109 2.0874 -6.30859Q1.65039 -5.99609 1.65039 -5.41992Q1.65039 -4.93652 1.94092 -4.68994Q2.23145 -4.44336 3.04199 -4.29199L3.6377 -4.16992Q4.74121 -3.95996 5.26611 -3.43018Q5.79102 -2.90039 5.79102 -2.01172Q5.79102 -0.952148 5.08057 -0.405273Q4.37012 0.141602 2.99805 0.141602Q2.48047 0.141602 1.89697 0.0244141Q1.31348 -0.0927734 0.688477 -0.322266L0.688477 -1.33789Q1.28906 -1.00098 1.86523 -0.830078Q2.44141 -0.65918 2.99805 -0.65918Q3.84277 -0.65918 4.30176 -0.991211Q4.76074 -1.32324 4.76074 -1.93848Q4.76074 -2.47559 4.43115 -2.77832Q4.10156 -3.08105 3.34961 -3.23242L2.74902 -3.34961Q1.64551 -3.56934 1.15234 -4.03809Q0.65918 -4.50684 0.65918 -5.3418Q0.65918 -6.30859 1.34033 -6.86523Q2.02148 -7.42188 3.21777 -7.42188Q3.73047 -7.42188 4.2627 -7.3291Q4.79492 -7.23633 5.35156 -7.05078ZM9.40918 -4.83887Q8.68652 -4.83887 8.2666 -4.2749Q7.84668 -3.71094 7.84668 -2.72949Q7.84668 -1.74805 8.26416 -1.18408Q8.68164 -0.620117 9.40918 -0.620117Q10.127 -0.620117 10.5469 -1.18652Q10.9668 -1.75293 10.9668 -2.72949Q10.9668 -3.70117 10.5469 -4.27002Q10.127 -4.83887 9.40918 -4.83887ZM9.40918 -5.60059Q10.5811 -5.60059 11.25 -4.83887Q11.9189 -4.07715 11.9189 -2.72949Q11.9189 -1.38672 11.25 -0.622559Q10.5811 0.141602 9.40918 0.141602Q8.23242 0.141602 7.56592 -0.622559Q6.89941 -1.38672 6.89941 -2.72949Q6.89941 -4.07715 7.56592 -4.83887Q8.23242 -5.60059 9.40918 -5.60059ZM17.3438 -5.25879L17.3438 -4.41895Q16.9629 -4.62891 16.5796 -4.73389Q16.1963 -4.83887 15.8057 -4.83887Q14.9316 -4.83887 14.4482 -4.28467Q13.9648 -3.73047 13.9648 -2.72949Q13.9648 -1.72852 14.4482 -1.17432Q14.9316 -0.620117 15.8057 -0.620117Q16.1963 -0.620117 16.5796 -0.725098Q16.9629 -0.830078 17.3438 -1.04004L17.3438 -0.209961Q16.9678 -0.0341797 16.5649 0.0537109Q16.1621 0.141602 15.708 0.141602Q14.4727 0.141602 13.7451 -0.634766Q13.0176 -1.41113 13.0176 -2.72949Q13.0176 -4.06738 13.7524 -4.83398Q14.4873 -5.60059 15.7666 -5.60059Q16.1816 -5.60059 16.5771 -5.51514Q16.9727 -5.42969 17.3438 -5.25879ZM18.9063 -5.46875L19.8047 -5.46875L19.8047 0L18.9063 0L18.9063 -5.46875ZM18.9063 -7.59766L19.8047 -7.59766L19.8047 -6.45996L18.9063 -6.45996L18.9063 -7.59766ZM24.1699 -2.74902Q23.0811 -2.74902 22.6611 -2.5Q22.2412 -2.25098 22.2412 -1.65039Q22.2412 -1.17187 22.5562 -0.891113Q22.8711 -0.610352 23.4131 -0.610352Q24.1602 -0.610352 24.6118 -1.14014Q25.0635 -1.66992 25.0635 -2.54883L25.0635 -2.74902L24.1699 -2.74902ZM25.9619 -3.12012L25.9619 0L25.0635 0L25.0635 -0.830078Q24.7559 -0.332031 24.2969 -0.0952148Q23.8379 0.141602 23.1738 0.141602Q22.334 0.141602 21.8384 -0.32959Q21.3428 -0.800781 21.3428 -1.5918Q21.3428 -2.51465 21.9604 -2.9834Q22.5781 -3.45215 23.8037 -3.45215L25.0635 -3.45215L25.0635 -3.54004Q25.0635 -4.16016 24.6558 -4.49951Q24.248 -4.83887 23.5107 -4.83887Q23.042 -4.83887 22.5977 -4.72656Q22.1533 -4.61426 21.7432 -4.38965L21.7432 -5.21973Q22.2363 -5.41016 22.7002 -5.50537Q23.1641 -5.60059 23.6035 -5.60059Q24.79 -5.60059 25.376 -4.98535Q25.9619 -4.37012 25.9619 -3.12012ZM27.8125 -7.59766L28.7109 -7.59766L28.7109 0L27.8125 0L27.8125 -7.59766Z" fill="#262626" transform="translate(581.8125,111) translate(-14.82421875,0)" />
<path d="M5.35156 -7.05078L5.35156 -6.08887Q4.79004 -6.35742 4.29199 -6.48926Q3.79394 -6.62109 3.33008 -6.62109Q2.52441 -6.62109 2.0874 -6.30859Q1.65039 -5.99609 1.65039 -5.41992Q1.65039 -4.93652 1.94092 -4.68994Q2.23145 -4.44336 3.04199 -4.29199L3.6377 -4.16992Q4.74121 -3.95996 5.26611 -3.43018Q5.79102 -2.90039 5.79102 -2.01172Q5.79102 -0.952148 5.08057 -0.405273Q4.37012 0.141602 2.99805 0.141602Q2.48047 0.141602 1.89697 0.0244141Q1.31348 -0.0927734 0.688477 -0.322266L0.688477 -1.33789Q1.28906 -1.00098 1.86523 -0.830078Q2.44141 -0.65918 2.99805 -0.65918Q3.84277 -0.65918 4.30176 -0.991211Q4.76074 -1.32324 4.76074 -1.93848Q4.76074 -2.47559 4.43115 -2.77832Q4.10156 -3.08105 3.34961 -3.23242L2.74902 -3.34961Q1.64551 -3.56934 1.15234 -4.03809Q0.65918 -4.50684 0.65918 -5.3418Q0.65918 -6.30859 1.34033 -6.86523Q2.02148 -7.42188 3.21777 -7.42188Q3.73047 -7.42188 4.2627 -7.3291Q4.79492 -7.23633 5.35156 -7.05078ZM7.29004 -5.46875L8.18848 -5.46875L8.18848 0L7.29004 0L7.29004 -5.46875ZM7.29004 -7.59766L8.18848 -7.59766L8.18848 -6.45996L7.29004 -6.45996L7.29004 -7.59766ZM13.667 -2.79785Q13.667 -3.77441 13.2642 -4.31152Q12.8613 -4.84863 12.1338 -4.84863Q11.4111 -4.84863 11.0083 -4.31152Q10.6055 -3.77441 10.6055 -2.79785Q10.6055 -1.82617 11.0083 -1.28906Q11.4111 -0.751953 12.1338 -0.751953Q12.8613 -0.751953 13.2642 -1.28906Q13.667 -1.82617 13.667 -2.79785ZM14.5654 -0.678711Q14.5654 0.717773 13.9453 1.39893Q13.3252 2.08008 12.0459 2.08008Q11.5723 2.08008 11.1523 2.00928Q10.7324 1.93848 10.3369 1.79199L10.3369 0.917969Q10.7324 1.13281 11.1182 1.23535Q11.5039 1.33789 11.9043 1.33789Q12.7881 1.33789 13.2275 0.876465Q13.667 0.415039 13.667 -0.517578L13.667 -0.961914Q13.3887 -0.478516 12.9541 -0.239258C12.6644 -0.0797526 12.3177 0 11.9141 0Q10.9082 0 10.293 -0.766602Q9.67773 -1.5332 9.67773 -2.79785Q9.67773 -4.06738 10.293 -4.83398Q10.9082 -5.60059 11.9141 -5.60059Q12.5195 -5.60059 12.9541 -5.36133Q13.3887 -5.12207 13.667 -4.63867L13.667 -5.46875L14.5654 -5.46875L14.5654 -0.678711ZM20.9619 -3.30078L20.9619 0L20.0635 0L20.0635 -3.27148Q20.0635 -4.04785 19.7607 -4.43359Q19.458 -4.81934 18.8525 -4.81934Q18.125 -4.81934 17.7051 -4.35547Q17.2852 -3.8916 17.2852 -3.09082L17.2852 0L16.3818 0L16.3818 -5.46875L17.2852 -5.46875L17.2852 -4.61914Q17.6074 -5.1123 18.0444 -5.35645Q18.4814 -5.60059 19.0527 -5.60059Q19.9951 -5.60059 20.4785 -5.01709Q20.9619 -4.43359 20.9619 -3.30078ZM22.6611 -2.1582L22.6611 -5.46875L23.5596 -5.46875L23.5596 -2.19238Q23.5596 -1.41602 23.8623 -1.02783Q24.165 -0.639648 24.7705 -0.639648Q25.498 -0.639648 25.9204 -1.10352Q26.3428 -1.56738 26.3428 -2.36816L26.3428 -5.46875L27.2412 -5.46875L27.2412 0L26.3428 0L26.3428 -0.839844Q26.0156 -0.341797 25.5835 -0.100098Q25.1514 0.141602 24.5801 0.141602Q23.6377 0.141602 23.1494 -0.444336Q22.6611 -1.03027 22.6611 -2.1582ZM29.9609 -0.820313L29.9609 2.08008L29.0576 2.08008L29.0576 -5.46875L29.9609 -5.46875L29.9609 -4.63867Q30.2441 -5.12695 30.6763 -5.36377Q31.1084 -5.60059 31.709 -5.60059Q32.7051 -5.60059 33.3276 -4.80957Q33.9502 -4.01855 33.9502 -2.72949Q33.9502 -1.44043 33.3276 -0.649414Q32.7051 0.141602 31.709 0.141602Q31.1084 0.141602 30.6763 -0.0952148Q30.2441 -0.332031 29.9609 -0.820313ZM33.0176 -2.72949Q33.0176 -3.7207 32.6099 -4.28467Q32.2021 -4.84863 31.4893 -4.84863Q30.7764 -4.84863 30.3687 -4.28467Q29.9609 -3.7207 29.9609 -2.72949Q29.9609 -1.73828 30.3687 -1.17432Q30.7764 -0.610352 31.4893 -0.610352Q32.2021 -0.610352 32.6099 -1.17432Q33.0176 -1.73828 33.0176 -2.72949Z" fill="#262626" transform="translate(354.6249999991618,310) translate(-17.24853515625,0)" />
<path d="M-0.0292969 -7.29004L6.1377 -7.29004L6.1377 -6.45996L3.5498 -6.45996L3.5498 0L2.55859 0L2.55859 -6.45996L-0.0292969 -6.45996L-0.0292969 -7.29004ZM10.2197 -4.62891Q10.0684 -4.7168 9.89014 -4.7583Q9.71191 -4.7998 9.49707 -4.7998Q8.73535 -4.7998 8.32764 -4.3042Q7.91992 -3.80859 7.91992 -2.88086L7.91992 0L7.0166 0L7.0166 -5.46875L7.91992 -5.46875L7.91992 -4.61914Q8.20313 -5.11719 8.65723 -5.35889Q9.11133 -5.60059 9.76074 -5.60059Q9.85352 -5.60059 9.96582 -5.58838Q10.0781 -5.57617 10.2148 -5.55176L10.2197 -4.62891ZM11.1621 -5.46875L12.0605 -5.46875L12.0605 0L11.1621 0L11.1621 -5.46875ZM11.1621 -7.59766L12.0605 -7.59766L12.0605 -6.45996L11.1621 -6.45996L11.1621 -7.59766ZM16.4258 -2.74902Q15.3369 -2.74902 14.917 -2.5Q14.4971 -2.25098 14.4971 -1.65039Q14.4971 -1.17187 14.812 -0.891113Q15.127 -0.610352 15.6689 -0.610352Q16.416 -0.610352 16.8677 -1.14014Q17.3193 -1.66992 17.3193 -2.54883L17.3193 -2.74902L16.4258 -2.74902ZM18.2178 -3.12012L18.2178 0L17.3193 0L17.3193 -0.830078Q17.0117 -0.332031 16.5527 -0.0952148Q16.0938 0.141602 15.4297 0.141602Q14.5898 0.141602 14.0942 -0.32959Q13.5986 -0.800781 13.5986 -1.5918Q13.5986 -2.51465 14.2163 -2.9834Q14.834 -3.45215 16.0596 -3.45215L17.3193 -3.45215L17.3193 -3.54004Q17.3193 -4.16016 16.9116 -4.49951Q16.5039 -4.83887 15.7666 -4.83887Q15.2979 -4.83887 14.8535 -4.72656Q14.4092 -4.61426 13.999 -4.38965L13.999 -5.21973Q14.4922 -5.41016 14.9561 -5.50537Q15.4199 -5.60059 15.8594 -5.60059Q17.0459 -5.60059 17.6318 -4.98535Q18.2178 -4.37012 18.2178 -3.12012ZM20.0684 -7.59766L20.9668 -7.59766L20.9668 0L20.0684 0L20.0684 -7.59766Z" fill="#262626" transform="translate(354.6249999986581,522) translate(-10.9521484375,0)" />
<line x1="354.62499999860137" y1="770" x2="354.62499999860137" y2="753" stroke="#262626" stroke-width="0.5" />
<path d="M1.96777 -6.47949L1.96777 -3.74023L3.20801 -3.74023Q3.89648 -3.74023 4.27246 -4.09668Q4.64844 -4.45312 4.64844 -5.1123Q4.64844 -5.7666 4.27246 -6.12305Q3.89648 -6.47949 3.20801 -6.47949L1.96777 -6.47949ZM0.981445 -7.29004L3.20801 -7.29004Q4.43359 -7.29004 5.06104 -6.73584Q5.68848 -6.18164 5.68848 -5.1123Q5.68848 -4.0332 5.06104 -3.48145Q4.43359 -2.92969 3.20801 -2.92969L1.96777 -2.92969L1.96777 0L0.981445 0L0.981445 -7.29004ZM9.45801 -2.74902Q8.36914 -2.74902 7.94922 -2.5Q7.5293 -2.25098 7.5293 -1.65039Q7.5293 -1.17187 7.84424 -0.891113Q8.15918 -0.610352 8.70117 -0.610352Q9.44824 -0.610352 9.8999 -1.14014Q10.3516 -1.66992 10.3516 -2.54883L10.3516 -2.74902L9.45801 -2.74902ZM11.25 -3.12012L11.25 0L10.3516 0L10.3516 -0.830078Q10.0439 -0.332031 9.58496 -0.0952148Q9.12598 0.141602 8.46191 0.141602Q7.62207 0.141602 7.12646 -0.32959Q6.63086 -0.800781 6.63086 -1.5918Q6.63086 -2.51465 7.24854 -2.9834Q7.86621 -3.45215 9.0918 -3.45215L10.3516 -3.45215L10.3516 -3.54004Q10.3516 -4.16016 9.94385 -4.49951Q9.53613 -4.83887 8.79883 -4.83887Q8.33008 -4.83887 7.88574 -4.72656Q7.44141 -4.61426 7.03125 -4.38965L7.03125 -5.21973Q7.52441 -5.41016 7.98828 -5.50537Q8.45215 -5.60059 8.8916 -5.60059Q10.0781 -5.60059 10.6641 -4.98535Q11.25 -4.37012 11.25 -3.12012ZM13.1006 -5.46875L13.999 -5.46875L13.999 0L13.1006 0L13.1006 -5.46875ZM13.1006 -7.59766L13.999 -7.59766L13.999 -6.45996L13.1006 -6.45996L13.1006 -7.59766ZM19.4775 -4.63867L19.4775 -7.59766L20.376 -7.59766L20.376 0L19.4775 0L19.4775 -0.820313Q19.1943 -0.332031 18.7622 -0.0952148Q18.3301 0.141602 17.7246 0.141602Q16.7334 0.141602 16.1108 -0.649414Q15.4883 -1.44043 15.4883 -2.72949Q15.4883 -4.01855 16.1108 -4.80957Q16.7334 -5.60059 17.7246 -5.60059Q18.3301 -5.60059 18.7622 -5.36377Q19.1943 -5.12695 19.4775 -4.63867ZM16.416 -2.72949Q16.416 -1.73828 16.8237 -1.17432Q17.2314 -0.610352 17.9443 -0.610352Q18.6572 -0.610352 19.0674 -1.17432Q19.4775 -1.73828 19.4775 -2.72949Q19.4775 -3.7207 19.0674 -4.28467Q18.6572 -4.84863 17.9443 -4.84863Q17.2314 -4.84863 16.8237 -4.28467Q16.416 -3.7207 16.416 -2.72949Z" fill="#262626" transform="translate(354.62499999860137,753) translate(-10.64208984375,0)" />
</svg>
