<svg xmlns="http://www.w3.org/2000/svg" viewBox="0 0 1100 640" width="1100" height="640" style="width:100%;height:auto" role="img" aria-labelledby="chart-title">
<title id="chart-title">Sankey — Johnson &amp; Johnson Q1 FY25 income statement</title>
<rect x="0" y="0" width="1100" height="640" fill="#FFFFFF" />
<text x="550" y="24.099999999999998" font-family="DejaVu Sans, sans-serif" font-size="17.88888888888889" text-anchor="middle" font-weight="bold" fill="#262626">Sankey — Johnson &amp; Johnson Q1 FY25 income statement</text>
<rect x="138" y="77" width="852" height="493" fill="#FFFFFF" />
<path d="M 782.5 124.99999999999991 C 875.25 124.99999999999991 875.25 207.30373831775705 968 207.30373831775705 L 968 319.5654205607477 C 875.25 319.5654205607477 875.25 237.26168224299056 782.5 237.26168224299056 Z " fill="#2A9D55" fill-opacity="0.4" data-sankey-link-source="7" data-sankey-link-target="11" />
<path d="M 782.5 237.26168224299056 C 875.25 237.26168224299056 875.25 335.5654205607477 968 335.5654205607477 L 968 411.74299065420564 C 875.25 411.74299065420564 875.25 313.4392523364485 782.5 313.4392523364485 Z " fill="#2A9D55" fill-opacity="0.4" data-sankey-link-source="7" data-sankey-link-target="9" />
<path d="M 782.5 313.4392523364485 C 875.25 313.4392523364485 875.25 427.74299065420564 968 427.74299065420564 L 968 497.90654205607484 C 875.25 497.90654205607484 875.25 383.6028037383176 782.5 383.6028037383176 Z " fill="#2A9D55" fill-opacity="0.4" data-sankey-link-source="7" data-sankey-link-target="10" />
<path d="M 782.5 383.6028037383177 C 875.25 383.6028037383177 875.25 513.9065420560748 968 513.9065420560748 L 968 541.9719626168225 C 875.25 541.9719626168225 875.25 411.66822429906534 782.5 411.66822429906534 Z " fill="#2A9D55" fill-opacity="0.4" data-sankey-link-source="7" data-sankey-link-target="13" />
<path d="M 782.5 411.6682242990653 C 875.25 411.6682242990653 875.25 557.9719626168225 968 557.9719626168225 L 968 570 C 875.25 570 875.25 423.69626168224283 782.5 423.69626168224283 Z " fill="#2A9D55" fill-opacity="0.4" data-sankey-link-source="7" data-sankey-link-target="12" />
<path d="M 575 130.48678146139432 C 667.75 130.48678146139432 667.75 124.99999999999991 760.5 124.99999999999991 L 760.5 423.69626168224295 C 667.75 423.69626168224295 667.75 429.1830431436373 575 429.1830431436373 Z " fill="#2A9D55" fill-opacity="0.4" data-sankey-link-source="6" data-sankey-link-target="7" />
<path d="M 575 429.1830431436373 C 667.75 429.1830431436373 667.75 439.69626168224295 760.5 439.69626168224295 L 760.5 570 C 667.75 570 667.75 559.4867814613943 575 559.4867814613943 Z " fill="#2A9D55" fill-opacity="0.4" data-sankey-link-source="6" data-sankey-link-target="8" />
<path d="M 160 133.09345794392522 C 252.75 133.09345794392522 252.75 165.09345794392522 345.5 165.09345794392522 L 345.5 325.46728971962614 C 252.75 325.46728971962614 252.75 293.46728971962614 160 293.46728971962614 Z " fill="#2A9D55" fill-opacity="0.4" data-sankey-link-source="3" data-sankey-link-target="5" />
<path d="M 367.5 165.09345794392522 C 460.25 165.09345794392522 460.25 130.48678146139432 553 130.48678146139432 L 553 290.86061323709527 C 460.25 290.86061323709527 460.25 325.46728971962614 367.5 325.46728971962614 Z " fill="#2A9D55" fill-opacity="0.4" data-sankey-link-source="5" data-sankey-link-target="6" />
<path d="M 160 309.46728971962614 C 252.75 309.46728971962614 252.75 341.46728971962614 345.5 341.46728971962614 L 345.5 439.69626168224295 C 252.75 439.69626168224295 252.75 407.69626168224295 160 407.69626168224295 Z " fill="#2A9D55" fill-opacity="0.4" data-sankey-link-source="1" data-sankey-link-target="4" />
<path d="M 367.5 341.46728971962614 C 460.25 341.46728971962614 460.25 290.86061323709527 553 290.86061323709527 L 553 519.3933235174691 C 460.25 519.3933235174691 460.25 570 367.5 570 Z " fill="#2A9D55" fill-opacity="0.4" data-sankey-link-source="4" data-sankey-link-target="6" />
<path d="M 160 423.69626168224295 C 252.75 423.69626168224295 252.75 439.69626168224295 345.5 439.69626168224295 L 345.5 531.911214953271 C 252.75 531.911214953271 252.75 515.9112149532709 160 515.9112149532709 Z " fill="#2A9D55" fill-opacity="0.4" data-sankey-link-source="0" data-sankey-link-target="4" />
<path d="M 160 531.911214953271 C 252.75 531.911214953271 252.75 531.911214953271 345.5 531.911214953271 L 345.5 570 C 252.75 570 252.75 570 160 570 Z " fill="#2A9D55" fill-opacity="0.4" data-sankey-link-source="2" data-sankey-link-target="4" />
<rect x="138" y="423.69626168224295" width="22" height="92.21495327102804" fill="#2A9D55" data-sankey-node-id="0" />
<rect x="138" y="309.46728971962614" width="22" height="98.22897196261684" fill="#2A9D55" data-sankey-node-id="1" />
<rect x="138" y="531.911214953271" width="22" height="38.08878504672897" fill="#2A9D55" data-sankey-node-id="2" />
<rect x="138" y="133.09345794392522" width="22" height="160.37383177570095" fill="#2A9D55" data-sankey-node-id="3" />
<rect x="345.5" y="341.46728971962614" width="22" height="228.53271028037386" fill="#2A9D55" data-sankey-node-id="4" />
<rect x="345.5" y="165.09345794392522" width="22" height="160.37383177570095" fill="#2A9D55" data-sankey-node-id="5" />
<rect x="553" y="130.48678146139432" width="22" height="429" fill="#2A9D55" data-sankey-node-id="6" />
<rect x="760.5" y="124.99999999999991" width="22" height="298.696261682243" fill="#2A9D55" data-sankey-node-id="7" />
<rect x="760.5" y="439.69626168224295" width="22" height="130.30373831775702" fill="#D62828" data-sankey-node-id="8" />
<rect x="968" y="335.5654205607477" width="22" height="76.17757009345794" fill="#2A9D55" data-sankey-node-id="9" />
<rect x="968" y="427.74299065420564" width="22" height="70.16355140186917" fill="#D62828" data-sankey-node-id="10" />
<rect x="968" y="207.30373831775705" width="22" height="112.26168224299066" fill="#D62828" data-sankey-node-id="11" />
<rect x="968" y="557.9719626168225" width="22" height="12.02803738317757" fill="#D62828" data-sankey-node-id="12" />
<rect x="968" y="513.9065420560748" width="22" height="28.065420560747665" fill="#D62828" data-sankey-node-id="13" />
<text x="164" y="473.40373831775696" font-family="DejaVu Sans, sans-serif" font-size="10" text-anchor="start" fill="#262626">Immunology</text>
<text x="164" y="484.203738317757" font-family="DejaVu Sans, sans-serif" font-size="8" text-anchor="start" fill="#2A9D55">$4.6B  +2%</text>
<text x="164" y="362.18177570093457" font-family="DejaVu Sans, sans-serif" font-size="10" text-anchor="start" fill="#262626">Oncology</text>
<text x="164" y="372.9817757009346" font-family="DejaVu Sans, sans-serif" font-size="8" text-anchor="start" fill="#2A9D55">$4.9B  +15%</text>
<text x="164" y="554.5556074766356" font-family="DejaVu Sans, sans-serif" font-size="10" text-anchor="start" fill="#262626">Neuroscience</text>
<text x="164" y="565.3556074766356" font-family="DejaVu Sans, sans-serif" font-size="8" text-anchor="start" fill="#2A9D55">$1.9B  +5%</text>
<text x="164" y="216.8803738317757" font-family="DejaVu Sans, sans-serif" font-size="10" text-anchor="start" fill="#262626">Med Devices</text>
<text x="164" y="227.6803738317757" font-family="DejaVu Sans, sans-serif" font-size="8" text-anchor="start" fill="#2A9D55">$8.0B  +4%</text>
<text x="371.5" y="459.3336448598131" font-family="DejaVu Sans, sans-serif" font-size="10" text-anchor="start" fill="#262626">Pharma</text>
<text x="371.5" y="470.1336448598131" font-family="DejaVu Sans, sans-serif" font-size="8" text-anchor="start" fill="#2A9D55">$11.4B  +8%</text>
<text x="371.5" y="248.8803738317757" font-family="DejaVu Sans, sans-serif" font-size="10" text-anchor="start" fill="#262626">MedTech</text>
<text x="371.5" y="259.6803738317757" font-family="DejaVu Sans, sans-serif" font-size="8" text-anchor="start" fill="#2A9D55">$8.0B  +4%</text>
<text x="579" y="348.58678146139437" font-family="DejaVu Sans, sans-serif" font-size="10" text-anchor="start" fill="#262626">Revenue</text>
<text x="579" y="359.3867814613944" font-family="DejaVu Sans, sans-serif" font-size="8" text-anchor="start" fill="#2A9D55">$21.4B  +2%</text>
<text x="786.5" y="277.94813084112144" font-family="DejaVu Sans, sans-serif" font-size="10" text-anchor="start" fill="#262626">Gross Profit</text>
<text x="786.5" y="288.74813084112145" font-family="DejaVu Sans, sans-serif" font-size="8" text-anchor="start" fill="#2A9D55">$14.9B  +3%</text>
<text x="786.5" y="508.4481308411215" font-family="DejaVu Sans, sans-serif" font-size="10" text-anchor="start" fill="#262626">Cost of Sales</text>
<text x="786.5" y="519.2481308411215" font-family="DejaVu Sans, sans-serif" font-size="8" text-anchor="start" fill="#D62828">$6.5B  +1%</text>
<text x="964" y="377.2542056074767" font-family="DejaVu Sans, sans-serif" font-size="10" text-anchor="end" fill="#262626">Net Profit</text>
<text x="964" y="388.0542056074767" font-family="DejaVu Sans, sans-serif" font-size="8" text-anchor="end" fill="#2A9D55">$3.8B  +0%</text>
<text x="964" y="466.42476635514026" font-family="DejaVu Sans, sans-serif" font-size="10" text-anchor="end" fill="#262626">R&amp;D</text>
<text x="964" y="477.2247663551403" font-family="DejaVu Sans, sans-serif" font-size="8" text-anchor="end" fill="#D62828">$3.5B  +0%</text>
<text x="964" y="267.0345794392524" font-family="DejaVu Sans, sans-serif" font-size="10" text-anchor="end" fill="#262626">SG&amp;A</text>
<text x="964" y="277.8345794392524" font-family="DejaVu Sans, sans-serif" font-size="8" text-anchor="end" fill="#D62828">$5.6B  +5%</text>
<text x="964" y="567" font-family="DejaVu Sans, sans-serif" font-size="10" text-anchor="end" fill="#262626">Tax</text>
<text x="964" y="577.8" font-family="DejaVu Sans, sans-serif" font-size="8" text-anchor="end" fill="#D62828">$0.6B  -10%</text>
<text x="964" y="531.5392523364487" font-family="DejaVu Sans, sans-serif" font-size="10" text-anchor="end" fill="#262626">Other</text>
<text x="964" y="542.3392523364487" font-family="DejaVu Sans, sans-serif" font-size="8" text-anchor="end" fill="#D62828">$1.4B  +3%</text>
</svg>
