<svg xmlns="http://www.w3.org/2000/svg" viewBox="0 0 1000 560" width="1000" height="560" role="img" aria-labelledby="chart-title">
<title id="chart-title">Sankey — UN expense categories → agencies</title>
<rect x="0" y="0" width="1000" height="560" fill="#FFFFFF" />
<path d="M10.7176 -12.6305L10.7176 -9.87033Q9.64323 -10.3507 8.62126 -10.5953Q7.59928 -10.8399 6.69086 -10.8399Q5.48546 -10.8399 4.90896 -10.508Q4.33247 -10.1761 4.33247 -9.47727Q4.33247 -8.95318 4.72116 -8.66056Q5.10986 -8.36795 6.13184 -8.15831L7.56434 -7.87006Q9.73931 -7.43332 10.6565 -6.54237Q11.5736 -5.65142 11.5736 -4.00928Q11.5736 -1.85178 10.294 -0.799235Q9.01432 0.253309 6.38515 0.253309Q5.1448 0.253309 3.89573 0.0174696Q2.64665 -0.21837 1.39757 -0.681315L1.39757 -3.52013Q2.64665 -2.85628 3.81274 -2.51999Q4.97884 -2.1837 6.06196 -2.1837Q7.16254 -2.1837 7.74778 -2.55056Q8.33301 -2.91743 8.33301 -3.59874Q8.33301 -4.21018 7.93557 -4.5421Q7.53814 -4.87402 6.35021 -5.13607L5.04872 -5.42432Q3.09212 -5.84359 2.18807 -6.76074Q1.28402 -7.6779 1.28402 -9.23269Q1.28402 -11.1806 2.54183 -12.2287Q3.79964 -13.2769 6.15804 -13.2769Q7.23242 -13.2769 8.36795 -13.1153Q9.50347 -12.9537 10.7176 -12.6305ZM18.7711 -4.40234Q17.7928 -4.40234 17.2993 -4.07042Q16.8058 -3.7385 16.8058 -3.09212Q16.8058 -2.49816 17.2032 -2.16187Q17.6006 -1.82558 18.3082 -1.82558Q19.1904 -1.82558 19.7931 -2.45885Q20.3958 -3.09212 20.3958 -4.04422L20.3958 -4.40234L18.7711 -4.40234ZM23.549 -5.58154L23.549 0L20.3958 0L20.3958 -1.44998Q19.7669 -0.559028 18.9807 -0.152859Q18.1946 0.253309 17.0678 0.253309Q15.548 0.253309 14.6002 -0.633274Q13.6525 -1.51986 13.6525 -2.9349Q13.6525 -4.65565 14.8361 -5.45926Q16.0196 -6.26286 18.5527 -6.26286L20.3958 -6.26286L20.3958 -6.50743Q20.3958 -7.24989 19.8105 -7.59492Q19.2253 -7.93994 17.985 -7.93994Q16.9805 -7.93994 16.1157 -7.73904Q15.251 -7.53814 14.5085 -7.13634L14.5085 -9.52094Q15.513 -9.76552 16.5263 -9.89217Q17.5395 -10.0188 18.5527 -10.0188Q21.1994 -10.0188 22.3742 -8.97502Q23.549 -7.93121 23.549 -5.58154ZM36.2931 -5.95714L36.2931 0L33.1486 0L33.1486 -0.969564L33.1486 -4.55957Q33.1486 -5.82612 33.0918 -6.30653Q33.035 -6.78695 32.8953 -7.01405Q32.7119 -7.31977 32.3974 -7.4901Q32.083 -7.66043 31.6812 -7.66043Q30.7029 -7.66043 30.1438 -6.90487Q29.5848 -6.14931 29.5848 -4.81288L29.5848 0L26.4577 0L26.4577 -9.78299L29.5848 -9.78299L29.5848 -8.35048Q30.2923 -9.20649 31.0872 -9.61266Q31.8821 -10.0188 32.8429 -10.0188Q34.5374 -10.0188 35.4153 -8.97938Q36.2931 -7.93994 36.2931 -5.95714ZM39.1931 -13.5914L42.3201 -13.5914L42.3201 -6.19298L45.9189 -9.78299L49.5526 -9.78299L44.7746 -5.29329L49.9282 0L46.1373 0L42.3201 -4.07916L42.3201 0L39.1931 0L39.1931 -13.5914ZM60.8554 -4.9177L60.8554 -4.02675L53.5444 -4.02675Q53.6579 -2.92616 54.3392 -2.37587Q55.0206 -1.82558 56.2434 -1.82558Q57.2305 -1.82558 58.2655 -2.11819Q59.3006 -2.41081 60.3925 -3.00477L60.3925 -0.593967Q59.2831 -0.174696 58.1738 0.0393066Q57.0645 0.253309 55.9552 0.253309Q53.2998 0.253309 51.828 -1.09622Q50.3562 -2.44575 50.3562 -4.88276Q50.3562 -7.2761 51.8018 -8.64746Q53.2474 -10.0188 55.7805 -10.0188Q58.0865 -10.0188 59.4709 -8.62999Q60.8554 -7.24116 60.8554 -4.9177ZM57.641 -5.95714Q57.641 -6.84809 57.1213 -7.39402Q56.6016 -7.93994 55.763 -7.93994Q54.8546 -7.93994 54.2868 -7.42896Q53.7191 -6.91797 53.5793 -5.95714L57.641 -5.95714ZM61.9385 -9.78299L65.0656 -9.78299L67.6948 -3.14453L69.9309 -9.78299L73.0579 -9.78299L68.9438 0.92589Q68.3237 2.5593 67.4982 3.21004Q66.6728 3.86079 65.3189 3.86079L63.5108 3.86079L63.5108 1.80811L64.4891 1.80811Q65.284 1.80811 65.6465 1.5548Q66.0089 1.30149 66.2099 0.646376L66.2972 0.375597L61.9385 -9.78299ZM80.5699 -6.02702L96.5371 -6.02702L96.5371 -3.77344L80.5699 -3.77344L80.5699 -6.02702ZM105.368 -13.0411L108.731 -13.0411L108.731 -5.22342Q108.731 -3.60748 109.259 -2.91306Q109.788 -2.21864 110.984 -2.21864Q112.19 -2.21864 112.718 -2.91306Q113.247 -3.60748 113.247 -5.22342L113.247 -13.0411L116.61 -13.0411L116.61 -5.22342Q116.61 -2.45448 115.221 -1.10059Q113.832 0.253309 110.984 0.253309Q108.146 0.253309 106.757 -1.10059Q105.368 -2.45448 105.368 -5.22342L105.368 -13.0411ZM119.894 -13.0411L123.65 -13.0411L128.393 -4.09663L128.393 -13.0411L131.581 -13.0411L131.581 0L127.825 0L123.082 -8.94444L123.082 0L119.894 0L119.894 -13.0411ZM150.719 -4.9177L150.719 -4.02675L143.408 -4.02675Q143.522 -2.92616 144.203 -2.37587Q144.884 -1.82558 146.107 -1.82558Q147.094 -1.82558 148.129 -2.11819Q149.164 -2.41081 150.256 -3.00477L150.256 -0.593967Q149.147 -0.174696 148.038 0.0393066Q146.928 0.253309 145.819 0.253309Q143.164 0.253309 141.692 -1.09622Q140.22 -2.44575 140.22 -4.88276Q140.22 -7.2761 141.666 -8.64746Q143.111 -10.0188 145.644 -10.0188Q147.95 -10.0188 149.335 -8.62999Q150.719 -7.24116 150.719 -4.9177ZM147.505 -5.95714Q147.505 -6.84809 146.985 -7.39402Q146.465 -7.93994 145.627 -7.93994Q144.718 -7.93994 144.151 -7.42896Q143.583 -6.91797 143.443 -5.95714L147.505 -5.95714ZM155.558 -5.00505L152.029 -9.78299L155.34 -9.78299L157.34 -6.88303L159.367 -9.78299L162.677 -9.78299L159.148 -5.02252L162.852 0L159.541 0L157.34 -3.09212L155.165 0L151.855 0L155.558 -5.00505ZM167.752 -1.41504L167.752 3.72103L164.625 3.72103L164.625 -9.78299L167.752 -9.78299L167.752 -8.35048Q168.398 -9.20649 169.185 -9.61266Q169.971 -10.0188 170.993 -10.0188Q172.801 -10.0188 173.962 -8.58195Q175.124 -7.14507 175.124 -4.88276Q175.124 -2.62044 173.962 -1.18357Q172.801 0.253309 170.993 0.253309Q169.971 0.253309 169.185 -0.152859Q168.398 -0.559028 167.752 -1.41504ZM169.831 -7.74778Q168.826 -7.74778 168.289 -7.00968Q167.752 -6.27159 167.752 -4.88276Q167.752 -3.49392 168.289 -2.75583Q168.826 -2.01774 169.831 -2.01774Q170.835 -2.01774 171.364 -2.75146Q171.892 -3.48519 171.892 -4.88276Q171.892 -6.28033 171.364 -7.01405Q170.835 -7.74778 169.831 -7.74778ZM187.196 -4.9177L187.196 -4.02675L179.885 -4.02675Q179.998 -2.92616 180.68 -2.37587Q181.361 -1.82558 182.584 -1.82558Q183.571 -1.82558 184.606 -2.11819Q185.641 -2.41081 186.733 -3.00477L186.733 -0.593967Q185.623 -0.174696 184.514 0.0393066Q183.405 0.253309 182.295 0.253309Q179.64 0.253309 178.168 -1.09622Q176.696 -2.44575 176.696 -4.88276Q176.696 -7.2761 178.142 -8.64746Q179.588 -10.0188 182.121 -10.0188Q184.427 -10.0188 185.811 -8.62999Q187.196 -7.24116 187.196 -4.9177ZM183.981 -5.95714Q183.981 -6.84809 183.462 -7.39402Q182.942 -7.93994 182.103 -7.93994Q181.195 -7.93994 180.627 -7.42896Q180.059 -6.91797 179.92 -5.95714L183.981 -5.95714ZM199.398 -5.95714L199.398 0L196.254 0L196.254 -0.969564L196.254 -4.55957Q196.254 -5.82612 196.197 -6.30653Q196.14 -6.78695 196 -7.01405Q195.817 -7.31977 195.503 -7.4901Q195.188 -7.66043 194.786 -7.66043Q193.808 -7.66043 193.249 -6.90487Q192.69 -6.14931 192.69 -4.81288L192.69 0L189.563 0L189.563 -9.78299L192.69 -9.78299L192.69 -8.35048Q193.397 -9.20649 194.192 -9.61266Q194.987 -10.0188 195.948 -10.0188Q197.643 -10.0188 198.52 -8.97938Q199.398 -7.93994 199.398 -5.95714ZM209.941 -9.47727L209.941 -7.1014Q208.937 -7.52067 208.002 -7.73031Q207.067 -7.93994 206.238 -7.93994Q205.347 -7.93994 204.914 -7.7172Q204.482 -7.49447 204.482 -7.03152Q204.482 -6.65592 204.809 -6.45502Q205.137 -6.25412 205.984 -6.15804L206.535 -6.07943Q208.937 -5.77371 209.766 -5.07492Q210.596 -4.37614 210.596 -2.88249Q210.596 -1.31896 209.443 -0.532823Q208.29 0.253309 206.002 0.253309Q205.032 0.253309 203.997 0.10045Q202.962 -0.0524089 201.87 -0.358127L201.87 -2.734Q202.805 -2.27978 203.787 -2.05268Q204.77 -1.82557 205.783 -1.82558Q206.701 -1.82558 207.163 -2.07888Q207.626 -2.33219 207.626 -2.83008Q207.626 -3.24935 207.308 -3.45462Q206.989 -3.65989 206.037 -3.77344L205.486 -3.84332Q203.399 -4.10536 202.56 -4.81288Q201.722 -5.5204 201.722 -6.96164Q201.722 -8.51644 202.787 -9.26763Q203.853 -10.0188 206.054 -10.0188Q206.919 -10.0188 207.871 -9.8878Q208.823 -9.75678 209.941 -9.47727ZM222.711 -4.9177L222.711 -4.02675L215.4 -4.02675Q215.514 -2.92616 216.195 -2.37587Q216.877 -1.82558 218.099 -1.82558Q219.086 -1.82558 220.122 -2.11819Q221.157 -2.41081 222.248 -3.00477L222.248 -0.593967Q221.139 -0.174696 220.03 0.0393066Q218.921 0.253309 217.811 0.253309Q215.156 0.253309 213.684 -1.09622Q212.212 -2.44575 212.212 -4.88276Q212.212 -7.2761 213.658 -8.64746Q215.103 -10.0188 217.637 -10.0188Q219.942 -10.0188 221.327 -8.62999Q222.711 -7.24116 222.711 -4.9177ZM219.497 -5.95714Q219.497 -6.84809 218.977 -7.39402Q218.458 -7.93994 217.619 -7.93994Q216.711 -7.93994 216.143 -7.42896Q215.575 -6.91797 215.435 -5.95714L219.497 -5.95714ZM239.211 -9.47727L239.211 -6.9267Q238.574 -7.36344 237.932 -7.57308Q237.29 -7.78271 236.6 -7.78271Q235.29 -7.78271 234.56 -7.01842Q233.831 -6.25412 233.831 -4.88276Q233.831 -3.51139 234.56 -2.7471Q235.29 -1.9828 236.6 -1.9828Q237.333 -1.9828 237.993 -2.20117Q238.652 -2.41954 239.211 -2.84755L239.211 -0.288249C238.722 -0.107729 238.226 0.0276602 237.722 0.11792Q236.967 0.253309 236.207 0.253309Q233.56 0.253309 232.066 -1.10495Q230.573 -2.46322 230.573 -4.88276Q230.573 -7.3023 232.066 -8.66056Q233.56 -10.0188 236.207 -10.0188Q236.975 -10.0188 237.722 -9.88344Q238.469 -9.74805 239.211 -9.47727ZM246.295 -4.40234Q245.317 -4.40234 244.824 -4.07042Q244.33 -3.7385 244.33 -3.09212Q244.33 -2.49816 244.728 -2.16187Q245.125 -1.82558 245.832 -1.82558Q246.715 -1.82558 247.317 -2.45885Q247.92 -3.09212 247.92 -4.04422L247.92 -4.40234L246.295 -4.40234ZM251.073 -5.58154L251.073 0L247.92 0L247.92 -1.44998Q247.291 -0.559028 246.505 -0.152859Q245.719 0.253309 244.592 0.253309Q243.072 0.253309 242.125 -0.633274Q241.177 -1.51986 241.177 -2.9349Q241.177 -4.65565 242.36 -5.45926Q243.544 -6.26286 246.077 -6.26286L247.92 -6.26286L247.92 -6.50743Q247.92 -7.24989 247.335 -7.59492Q246.75 -7.93994 245.509 -7.93994Q244.505 -7.93994 243.64 -7.73904Q242.775 -7.53814 242.033 -7.13634L242.033 -9.52094Q243.037 -9.76552 244.051 -9.89217Q245.064 -10.0188 246.077 -10.0188Q248.724 -10.0188 249.899 -8.97502Q251.073 -7.93121 251.073 -5.58154ZM257.397 -12.5607L257.397 -9.78299L260.621 -9.78299L260.621 -7.54688L257.397 -7.54688L257.397 -3.39784Q257.397 -2.71653 257.668 -2.47632Q257.939 -2.23611 258.743 -2.23611L260.35 -2.23611L260.35 0L257.668 0Q255.816 0 255.043 -0.773031Q254.27 -1.54606 254.27 -3.39784L254.27 -7.54688L252.715 -7.54688L252.715 -9.78299L254.27 -9.78299L254.27 -12.5607L257.397 -12.5607ZM272.299 -4.9177L272.299 -4.02675L264.988 -4.02675Q265.101 -2.92616 265.783 -2.37587Q266.464 -1.82558 267.687 -1.82558Q268.674 -1.82558 269.709 -2.11819Q270.744 -2.41081 271.836 -3.00477L271.836 -0.593967Q270.727 -0.174696 269.617 0.0393066Q268.508 0.253309 267.399 0.253309Q264.743 0.253309 263.272 -1.09622Q261.8 -2.44575 261.8 -4.88276Q261.8 -7.2761 263.245 -8.64746Q264.691 -10.0188 267.224 -10.0188Q269.53 -10.0188 270.914 -8.62999Q272.299 -7.24116 272.299 -4.9177ZM269.085 -5.95714Q269.085 -6.84809 268.565 -7.39402Q268.045 -7.93994 267.207 -7.93994Q266.298 -7.93994 265.73 -7.42896Q265.163 -6.91797 265.023 -5.95714L269.085 -5.95714ZM281.322 -1.65961Q280.676 -0.803602 279.898 -0.401801Q279.121 0 278.099 0Q276.308 0 275.138 -1.41067Q273.967 -2.82134 273.967 -5.00505Q273.967 -7.19748 275.138 -8.59942Q276.308 -10.0014 278.099 -10.0014Q279.121 -10.0014 279.898 -9.59956Q280.676 -9.19775 281.322 -8.33301L281.322 -9.78299L284.467 -9.78299L284.467 -0.987033Q284.467 1.37137 282.977 2.61608Q281.488 3.86079 278.658 3.86079Q277.741 3.86079 276.885 3.72103Q276.029 3.58127 275.164 3.29302L275.164 0.856011Q275.985 1.32769 276.771 1.55916Q277.557 1.79064 278.352 1.79064Q279.889 1.79064 280.606 1.11806Q281.322 0.445475 281.322 -0.987033L281.322 -1.65961ZM279.261 -7.74778Q278.291 -7.74778 277.749 -7.03152Q277.208 -6.31527 277.208 -5.00505Q277.208 -3.65988 277.732 -2.96547Q278.256 -2.27105 279.261 -2.27105Q280.239 -2.27105 280.78 -2.9873Q281.322 -3.70356 281.322 -5.00505Q281.322 -6.31527 280.78 -7.03152Q280.239 -7.74778 279.261 -7.74778ZM292.127 -7.78271Q291.088 -7.78271 290.542 -7.03589Q289.996 -6.28906 289.996 -4.88276Q289.996 -3.47645 290.542 -2.72963Q291.088 -1.9828 292.127 -1.9828Q293.149 -1.9828 293.69 -2.72963Q294.232 -3.47645 294.232 -4.88276Q294.232 -6.28906 293.69 -7.03589Q293.149 -7.78271 292.127 -7.78271ZM292.127 -10.0188Q294.651 -10.0188 296.071 -8.6562Q297.49 -7.29357 297.49 -4.88276Q297.49 -2.47195 296.071 -1.10932Q294.651 0.253309 292.127 0.253309Q289.594 0.253309 288.166 -1.10932Q286.738 -2.47195 286.738 -4.88276Q286.738 -7.29357 288.166 -8.6562Q289.594 -10.0188 292.127 -10.0188ZM307.029 -7.11887Q306.618 -7.31103 306.212 -7.40275Q305.806 -7.49447 305.395 -7.49447Q304.19 -7.49447 303.539 -6.72144Q302.888 -5.94841 302.888 -4.50716L302.888 0L299.761 0L299.761 -9.78299L302.888 -9.78299L302.888 -8.17578Q303.491 -9.13661 304.273 -9.57772Q305.055 -10.0188 306.146 -10.0188Q306.304 -10.0188 306.487 -10.0057Q306.67 -9.99262 307.02 -9.94895L307.029 -7.11887ZM308.583 -9.78299L311.71 -9.78299L311.71 0L308.583 0L308.583 -9.78299ZM308.583 -13.5914L311.71 -13.5914L311.71 -11.0408L308.583 -11.0408L308.583 -13.5914ZM324.481 -4.9177L324.481 -4.02675L317.17 -4.02675Q317.283 -2.92616 317.965 -2.37587Q318.646 -1.82558 319.869 -1.82558Q320.856 -1.82558 321.891 -2.11819Q322.926 -2.41081 324.018 -3.00477L324.018 -0.593967Q322.908 -0.174696 321.799 0.0393066Q320.69 0.253309 319.58 0.253309Q316.925 0.253309 315.453 -1.09622Q313.981 -2.44575 313.981 -4.88276Q313.981 -7.2761 315.427 -8.64746Q316.873 -10.0188 319.406 -10.0188Q321.712 -10.0188 323.096 -8.62999Q324.481 -7.24116 324.481 -4.9177ZM321.266 -5.95714Q321.266 -6.84809 320.747 -7.39402Q320.227 -7.93994 319.388 -7.93994Q318.48 -7.93994 317.912 -7.42896Q317.344 -6.91797 317.205 -5.95714L321.266 -5.95714ZM334.491 -9.47727L334.491 -7.1014Q333.486 -7.52067 332.552 -7.73031Q331.617 -7.93994 330.787 -7.93994Q329.896 -7.93994 329.464 -7.7172Q329.032 -7.49447 329.032 -7.03152Q329.032 -6.65592 329.359 -6.45502Q329.687 -6.25412 330.534 -6.15804L331.084 -6.07943Q333.486 -5.77371 334.316 -5.07492Q335.146 -4.37614 335.146 -2.88249Q335.146 -1.31896 333.993 -0.532823Q332.84 0.253309 330.551 0.253309Q329.582 0.253309 328.547 0.10045Q327.512 -0.0524089 326.42 -0.358127L326.42 -2.734Q327.354 -2.27978 328.337 -2.05268Q329.32 -1.82557 330.333 -1.82558Q331.25 -1.82558 331.713 -2.07888Q332.176 -2.33219 332.176 -2.83008Q332.176 -3.24935 331.857 -3.45462Q331.538 -3.65989 330.586 -3.77344L330.036 -3.84332Q327.948 -4.10536 327.11 -4.81288Q326.271 -5.5204 326.271 -6.96164Q326.271 -8.51644 327.337 -9.26763Q328.403 -10.0188 330.604 -10.0188Q331.469 -10.0188 332.421 -9.8878Q333.373 -9.75678 334.491 -9.47727ZM356.337 -6.21918L356.337 -4.99631L352.904 -1.56353L351.638 -2.82981L353.367 -4.55957L343.243 -4.55957L343.243 -6.65592L353.367 -6.65592L351.637 -8.38555L352.904 -9.65196L356.337 -6.21918ZM369.325 -4.40234Q368.347 -4.40234 367.853 -4.07042Q367.36 -3.7385 367.36 -3.09212Q367.36 -2.49816 367.757 -2.16187Q368.155 -1.82558 368.862 -1.82558Q369.744 -1.82558 370.347 -2.45885Q370.95 -3.09212 370.95 -4.04422L370.95 -4.40234L369.325 -4.40234ZM374.103 -5.58154L374.103 0L370.95 0L370.95 -1.44998Q370.321 -0.559028 369.535 -0.152859Q368.749 0.253309 367.622 0.253309Q366.102 0.253309 365.154 -0.633274Q364.207 -1.51986 364.207 -2.9349Q364.207 -4.65565 365.39 -5.45926Q366.574 -6.26286 369.107 -6.26286L370.95 -6.26286L370.95 -6.50743Q370.95 -7.24989 370.365 -7.59492Q369.779 -7.93994 368.539 -7.93994Q367.535 -7.93994 366.67 -7.73904Q365.805 -7.53814 365.063 -7.13634L365.063 -9.52094Q366.067 -9.76552 367.08 -9.89217Q368.094 -10.0188 369.107 -10.0188Q371.753 -10.0188 372.928 -8.97502Q374.103 -7.93121 374.103 -5.58154ZM383.668 -1.65961Q383.021 -0.803602 382.244 -0.401801Q381.467 0 380.445 0Q378.654 0 377.483 -1.41067Q376.313 -2.82134 376.313 -5.00505Q376.313 -7.19748 377.483 -8.59942Q378.654 -10.0014 380.445 -10.0014Q381.467 -10.0014 382.244 -9.59956Q383.021 -9.19775 383.668 -8.33301L383.668 -9.78299L386.812 -9.78299L386.812 -0.987033Q386.812 1.37137 385.323 2.61608Q383.834 3.86079 381.004 3.86079Q380.086 3.86079 379.23 3.72103Q378.374 3.58127 377.51 3.29302L377.51 0.856011Q378.331 1.32769 379.117 1.55916Q379.903 1.79064 380.698 1.79064Q382.235 1.79064 382.951 1.11806Q383.668 0.445475 383.668 -0.987033L383.668 -1.65961ZM381.606 -7.74778Q380.637 -7.74778 380.095 -7.03152Q379.554 -6.31527 379.554 -5.00505Q379.554 -3.65988 380.078 -2.96547Q380.602 -2.27105 381.606 -2.27105Q382.585 -2.27105 383.126 -2.9873Q383.668 -3.70356 383.668 -5.00505Q383.668 -6.31527 383.126 -7.03152Q382.585 -7.74778 381.606 -7.74778ZM399.583 -4.9177L399.583 -4.02675L392.272 -4.02675Q392.385 -2.92616 393.066 -2.37587Q393.748 -1.82558 394.971 -1.82558Q395.958 -1.82558 396.993 -2.11819Q398.028 -2.41081 399.12 -3.00477L399.12 -0.593967Q398.01 -0.174696 396.901 0.0393066Q395.792 0.253309 394.682 0.253309Q392.027 0.253309 390.555 -1.09622Q389.083 -2.44575 389.083 -4.88276Q389.083 -7.2761 390.529 -8.64746Q391.975 -10.0188 394.508 -10.0188Q396.814 -10.0188 398.198 -8.62999Q399.583 -7.24116 399.583 -4.9177ZM396.368 -5.95714Q396.368 -6.84809 395.848 -7.39402Q395.329 -7.93994 394.49 -7.93994Q393.582 -7.93994 393.014 -7.42896Q392.446 -6.91797 392.306 -5.95714L396.368 -5.95714ZM411.785 -5.95714L411.785 0L408.641 0L408.641 -0.969564L408.641 -4.55957Q408.641 -5.82612 408.584 -6.30653Q408.527 -6.78695 408.387 -7.01405Q408.204 -7.31977 407.889 -7.4901Q407.575 -7.66043 407.173 -7.66043Q406.195 -7.66043 405.636 -6.90487Q405.077 -6.14931 405.077 -4.81288L405.077 0L401.95 0L401.95 -9.78299L405.077 -9.78299L405.077 -8.35048Q405.784 -9.20649 406.579 -9.61266Q407.374 -10.0188 408.335 -10.0188Q410.029 -10.0188 410.907 -8.97938Q411.785 -7.93994 411.785 -5.95714ZM422.59 -9.47727L422.59 -6.9267Q421.952 -7.36344 421.31 -7.57308Q420.668 -7.78271 419.978 -7.78271Q418.668 -7.78271 417.939 -7.01842Q417.209 -6.25412 417.209 -4.88276Q417.209 -3.51139 417.939 -2.7471Q418.668 -1.9828 419.978 -1.9828Q420.712 -1.9828 421.372 -2.20117Q422.031 -2.41954 422.59 -2.84755L422.59 -0.288249C422.101 -0.107729 421.604 0.0276602 421.101 0.11792Q420.345 0.253309 419.585 0.253309Q416.939 0.253309 415.445 -1.10495Q413.951 -2.46322 413.951 -4.88276Q413.951 -7.3023 415.445 -8.66056Q416.939 -10.0188 419.585 -10.0188Q420.354 -10.0188 421.101 -9.88344Q421.848 -9.74805 422.59 -9.47727ZM425.289 -9.78299L428.416 -9.78299L428.416 0L425.289 0L425.289 -9.78299ZM425.289 -13.5914L428.416 -13.5914L428.416 -11.0408L425.289 -11.0408L425.289 -13.5914ZM441.186 -4.9177L441.186 -4.02675L433.875 -4.02675Q433.989 -2.92616 434.67 -2.37587Q435.352 -1.82558 436.574 -1.82558Q437.562 -1.82558 438.597 -2.11819Q439.632 -2.41081 440.724 -3.00477L440.724 -0.593967Q439.614 -0.174696 438.505 0.0393066Q437.396 0.253309 436.286 0.253309Q433.631 0.253309 432.159 -1.09622Q430.687 -2.44575 430.687 -4.88276Q430.687 -7.2761 432.133 -8.64746Q433.578 -10.0188 436.112 -10.0188Q438.418 -10.0188 439.802 -8.62999Q441.186 -7.24116 441.186 -4.9177ZM437.972 -5.95714Q437.972 -6.84809 437.452 -7.39402Q436.933 -7.93994 436.094 -7.93994Q435.186 -7.93994 434.618 -7.42896Q434.05 -6.91797 433.91 -5.95714L437.972 -5.95714ZM451.197 -9.47727L451.197 -7.1014Q450.192 -7.52067 449.257 -7.73031Q448.323 -7.93994 447.493 -7.93994Q446.602 -7.93994 446.17 -7.7172Q445.737 -7.49447 445.737 -7.03152Q445.737 -6.65592 446.065 -6.45502Q446.392 -6.25412 447.24 -6.15804L447.79 -6.07943Q450.192 -5.77371 451.022 -5.07492Q451.852 -4.37614 451.852 -2.88249Q451.852 -1.31896 450.699 -0.532823Q449.546 0.253309 447.257 0.253309Q446.288 0.253309 445.253 0.10045Q444.217 -0.0524089 443.126 -0.358127L443.126 -2.734Q444.06 -2.27978 445.043 -2.05268Q446.026 -1.82557 447.039 -1.82558Q447.956 -1.82558 448.419 -2.07888Q448.882 -2.33219 448.882 -2.83008Q448.882 -3.24935 448.563 -3.45462Q448.244 -3.65989 447.292 -3.77344L446.742 -3.84332Q444.654 -4.10536 443.816 -4.81288Q442.977 -5.5204 442.977 -6.96164Q442.977 -8.51644 444.043 -9.26763Q445.108 -10.0188 447.31 -10.0188Q448.174 -10.0188 449.126 -9.8878Q450.079 -9.75678 451.197 -9.47727Z" fill="#262626" transform="translate(500,24.099999999999998) translate(-226.3494873046875,0)" />
<rect x="125" y="67" width="775" height="431" fill="#FFFFFF" />
<defs><linearGradient id="grad-0" gradientUnits="userSpaceOnUse" x1="147" y1="75.52499999999998" x2="878" y2="67"><stop offset="0" stop-color="#4472C4" stop-opacity="0.4" /><stop offset="1" stop-color="#2B4CBA" stop-opacity="0.4" /></linearGradient></defs>
<path d="M 147 75.52499999999998 C 512.5 75.52499999999998 512.5 67 878 67 L 878 159.35416666666666 C 512.5 159.35416666666666 512.5 167.87916666666666 147 167.87916666666666 Z " fill="url(#grad-0)" />
<defs><linearGradient id="grad-1" gradientUnits="userSpaceOnUse" x1="147" y1="185.87916666666666" x2="878" y2="159.35416666666666"><stop offset="0" stop-color="#70AD47" stop-opacity="0.4" /><stop offset="1" stop-color="#2B4CBA" stop-opacity="0.4" /></linearGradient></defs>
<path d="M 147 185.87916666666666 C 512.5 185.87916666666666 512.5 159.35416666666666 878 159.35416666666666 L 878 176.40416666666667 C 512.5 176.40416666666667 512.5 202.92916666666667 147 202.92916666666667 Z " fill="url(#grad-1)" />
<defs><linearGradient id="grad-2" gradientUnits="userSpaceOnUse" x1="147" y1="202.92916666666667" x2="878" y2="194.40416666666667"><stop offset="0" stop-color="#70AD47" stop-opacity="0.4" /><stop offset="1" stop-color="#5B9E3F" stop-opacity="0.4" /></linearGradient></defs>
<path d="M 147 202.92916666666667 C 512.5 202.92916666666667 512.5 194.40416666666667 878 194.40416666666667 L 878 265.4458333333333 C 512.5 265.4458333333333 512.5 273.9708333333333 147 273.9708333333333 Z " fill="url(#grad-2)" />
<defs><linearGradient id="grad-3" gradientUnits="userSpaceOnUse" x1="147" y1="298.9385752688172" x2="878" y2="291.9708333333333"><stop offset="0" stop-color="#ED7D31" stop-opacity="0.4" /><stop offset="1" stop-color="#C96420" stop-opacity="0.4" /></linearGradient></defs>
<path d="M 147 298.9385752688172 C 512.5 298.9385752688172 512.5 291.9708333333333 878 291.9708333333333 L 878 345.9625 C 512.5 345.9625 512.5 352.9302419354839 147 352.9302419354839 Z " fill="url(#grad-3)" />
<defs><linearGradient id="grad-4" gradientUnits="userSpaceOnUse" x1="147" y1="352.9302419354839" x2="878" y2="363.9625"><stop offset="0" stop-color="#ED7D31" stop-opacity="0.4" /><stop offset="1" stop-color="#D14A50" stop-opacity="0.4" /></linearGradient></defs>
<path d="M 147 352.9302419354839 C 512.5 352.9302419354839 512.5 363.9625 878 363.9625 L 878 398.0625 C 512.5 398.0625 512.5 387.0302419354839 147 387.0302419354839 Z " fill="url(#grad-4)" />
<defs><linearGradient id="grad-5" gradientUnits="userSpaceOnUse" x1="147" y1="405.03024193548384" x2="878" y2="265.4458333333333"><stop offset="0" stop-color="#2A9D8F" stop-opacity="0.4" /><stop offset="1" stop-color="#5B9E3F" stop-opacity="0.4" /></linearGradient></defs>
<path d="M 147 405.03024193548384 C 512.5 405.03024193548384 512.5 265.4458333333333 878 265.4458333333333 L 878 273.9708333333333 C 512.5 273.9708333333333 512.5 413.5552419354838 147 413.5552419354838 Z " fill="url(#grad-5)" />
<defs><linearGradient id="grad-6" gradientUnits="userSpaceOnUse" x1="147" y1="413.5552419354838" x2="878" y2="416.0625"><stop offset="0" stop-color="#2A9D8F" stop-opacity="0.4" /><stop offset="1" stop-color="#1C7A70" stop-opacity="0.4" /></linearGradient></defs>
<path d="M 147 413.5552419354838 C 512.5 413.5552419354838 512.5 416.0625 878 416.0625 L 878 443.05833333333334 C 512.5 443.05833333333334 512.5 440.55107526881716 147 440.55107526881716 Z " fill="url(#grad-6)" />
<defs><linearGradient id="grad-7" gradientUnits="userSpaceOnUse" x1="147" y1="461.0583333333333" x2="878" y2="461.05833333333334"><stop offset="0" stop-color="#A5A5A5" stop-opacity="0.4" /><stop offset="1" stop-color="#7F7F7F" stop-opacity="0.4" /></linearGradient></defs>
<path d="M 147 461.0583333333333 C 512.5 461.0583333333333 512.5 461.05833333333334 878 461.05833333333334 L 878 498 C 512.5 498 512.5 497.99999999999994 147 497.99999999999994 Z " fill="url(#grad-7)" />
<rect x="125" y="75.52499999999998" width="22" height="92.35416666666667" fill="#4472C4" data-sankey-link-source="0" data-sankey-link-target="5" data-sankey-link-source="1" data-sankey-link-target="5" data-sankey-link-source="1" data-sankey-link-target="6" data-sankey-link-source="2" data-sankey-link-target="7" data-sankey-link-source="2" data-sankey-link-target="10" data-sankey-link-source="4" data-sankey-link-target="6" data-sankey-link-source="4" data-sankey-link-target="9" data-sankey-link-source="3" data-sankey-link-target="8" data-sankey-node-id="0" />
<rect x="125" y="185.87916666666666" width="22" height="88.09166666666667" fill="#70AD47" data-sankey-node-id="1" />
<rect x="125" y="298.9385752688172" width="22" height="88.09166666666665" fill="#ED7D31" data-sankey-node-id="2" />
<rect x="125" y="461.0583333333333" width="22" height="36.94166666666667" fill="#A5A5A5" data-sankey-node-id="3" />
<rect x="125" y="405.03024193548384" width="22" height="35.520833333333336" fill="#2A9D8F" data-sankey-node-id="4" />
<rect x="878" y="67" width="22" height="109.40416666666667" fill="#2B4CBA" data-sankey-node-id="5" />
<rect x="878" y="194.40416666666667" width="22" height="79.56666666666666" fill="#5B9E3F" data-sankey-node-id="6" />
<rect x="878" y="291.9708333333333" width="22" height="53.99166666666667" fill="#C96420" data-sankey-node-id="7" />
<rect x="878" y="461.05833333333334" width="22" height="36.94166666666667" fill="#7F7F7F" data-sankey-node-id="8" />
<rect x="878" y="416.0625" width="22" height="26.995833333333334" fill="#1C7A70" data-sankey-node-id="9" />
<rect x="878" y="363.9625" width="22" height="34.1" fill="#D14A50" data-sankey-node-id="10" />
<path d="M1.96777 -6.47949L1.96777 -3.74023L3.20801 -3.74023Q3.89648 -3.74023 4.27246 -4.09668Q4.64844 -4.45312 4.64844 -5.1123Q4.64844 -5.7666 4.27246 -6.12305Q3.89648 -6.47949 3.20801 -6.47949L1.96777 -6.47949ZM0.981445 -7.29004L3.20801 -7.29004Q4.43359 -7.29004 5.06104 -6.73584Q5.68848 -6.18164 5.68848 -5.1123Q5.68848 -4.0332 5.06104 -3.48145Q4.43359 -2.92969 3.20801 -2.92969L1.96777 -2.92969L1.96777 0L0.981445 0L0.981445 -7.29004ZM11.6504 -2.95898L11.6504 -2.51953L7.51953 -2.51953Q7.57813 -1.5918 8.07861 -1.10596Q8.5791 -0.620117 9.47266 -0.620117Q9.99023 -0.620117 10.4761 -0.74707Q10.9619 -0.874023 11.4404 -1.12793L11.4404 -0.27832Q10.957 -0.0732422 10.4492 0.0341797Q9.94141 0.141602 9.41895 0.141602Q8.11035 0.141602 7.34619 -0.620117Q6.58203 -1.38184 6.58203 -2.68066Q6.58203 -4.02344 7.30713 -4.81201Q8.03223 -5.60059 9.2627 -5.60059Q10.3662 -5.60059 11.0083 -4.89014Q11.6504 -4.17969 11.6504 -2.95898ZM10.752 -3.22266Q10.7422 -3.95996 10.3394 -4.39941Q9.93652 -4.83887 9.27246 -4.83887Q8.52051 -4.83887 8.06885 -4.41406Q7.61719 -3.98926 7.54883 -3.21777L10.752 -3.22266ZM15.6104 -2.74902Q14.5215 -2.74902 14.1016 -2.5Q13.6816 -2.25098 13.6816 -1.65039Q13.6816 -1.17187 13.9966 -0.891113Q14.3115 -0.610352 14.8535 -0.610352Q15.6006 -0.610352 16.0522 -1.14014Q16.5039 -1.66992 16.5039 -2.54883L16.5039 -2.74902L15.6104 -2.74902ZM17.4023 -3.12012L17.4023 0L16.5039 0L16.5039 -0.830078Q16.1963 -0.332031 15.7373 -0.0952148Q15.2783 0.141602 14.6143 0.141602Q13.7744 0.141602 13.2788 -0.32959Q12.7832 -0.800781 12.7832 -1.5918Q12.7832 -2.51465 13.4009 -2.9834Q14.0186 -3.45215 15.2441 -3.45215L16.5039 -3.45215L16.5039 -3.54004Q16.5039 -4.16016 16.0962 -4.49951Q15.6885 -4.83887 14.9512 -4.83887Q14.4824 -4.83887 14.0381 -4.72656Q13.5938 -4.61426 13.1836 -4.38965L13.1836 -5.21973Q13.6768 -5.41016 14.1406 -5.50537Q14.6045 -5.60059 15.0439 -5.60059Q16.2305 -5.60059 16.8164 -4.98535Q17.4023 -4.37012 17.4023 -3.12012ZM23.1885 -5.25879L23.1885 -4.41895Q22.8076 -4.62891 22.4243 -4.73389Q22.041 -4.83887 21.6504 -4.83887Q20.7764 -4.83887 20.293 -4.28467Q19.8096 -3.73047 19.8096 -2.72949Q19.8096 -1.72852 20.293 -1.17432Q20.7764 -0.620117 21.6504 -0.620117Q22.041 -0.620117 22.4243 -0.725098Q22.8076 -0.830078 23.1885 -1.04004L23.1885 -0.209961Q22.8125 -0.0341797 22.4097 0.0537109Q22.0068 0.141602 21.5527 0.141602Q20.3174 0.141602 19.5898 -0.634766Q18.8623 -1.41113 18.8623 -2.72949Q18.8623 -4.06738 19.5972 -4.83398Q20.332 -5.60059 21.6113 -5.60059Q22.0264 -5.60059 22.4219 -5.51514Q22.8174 -5.42969 23.1885 -5.25879ZM29.4287 -2.95898L29.4287 -2.51953L25.2979 -2.51953Q25.3564 -1.5918 25.8569 -1.10596Q26.3574 -0.620117 27.251 -0.620117Q27.7686 -0.620117 28.2544 -0.74707Q28.7402 -0.874023 29.2188 -1.12793L29.2188 -0.27832Q28.7354 -0.0732422 28.2275 0.0341797Q27.7197 0.141602 27.1973 0.141602Q25.8887 0.141602 25.1245 -0.620117Q24.3604 -1.38184 24.3604 -2.68066Q24.3604 -4.02344 25.0854 -4.81201Q25.8105 -5.60059 27.041 -5.60059Q28.1445 -5.60059 28.7866 -4.89014Q29.4287 -4.17969 29.4287 -2.95898ZM28.5303 -3.22266Q28.5205 -3.95996 28.1177 -4.39941Q27.7148 -4.83887 27.0508 -4.83887Q26.2988 -4.83887 25.8472 -4.41406Q25.3955 -3.98926 25.3271 -3.21777L28.5303 -3.22266ZM30.8691 -7.59766L31.7725 -7.59766L31.7725 -3.11035L34.4531 -5.46875L35.6006 -5.46875L32.7002 -2.91016L35.7227 0L34.5508 0L31.7725 -2.6709L31.7725 0L30.8691 0L30.8691 -7.59766ZM41.3721 -2.95898L41.3721 -2.51953L37.2412 -2.51953Q37.2998 -1.5918 37.8003 -1.10596Q38.3008 -0.620117 39.1943 -0.620117Q39.7119 -0.620117 40.1978 -0.74707Q40.6836 -0.874023 41.1621 -1.12793L41.1621 -0.27832Q40.6787 -0.0732422 40.1709 0.0341797Q39.6631 0.141602 39.1406 0.141602Q37.832 0.141602 37.0679 -0.620117Q36.3037 -1.38184 36.3037 -2.68066Q36.3037 -4.02344 37.0288 -4.81201Q37.7539 -5.60059 38.9844 -5.60059Q40.0879 -5.60059 40.73 -4.89014Q41.3721 -4.17969 41.3721 -2.95898ZM40.4736 -3.22266Q40.4639 -3.95996 40.061 -4.39941Q39.6582 -4.83887 38.9941 -4.83887Q38.2422 -4.83887 37.7905 -4.41406Q37.3389 -3.98926 37.2705 -3.21777L40.4736 -3.22266ZM47.5244 -2.95898L47.5244 -2.51953L43.3936 -2.51953Q43.4521 -1.5918 43.9526 -1.10596Q44.4531 -0.620117 45.3467 -0.620117Q45.8643 -0.620117 46.3501 -0.74707Q46.8359 -0.874023 47.3145 -1.12793L47.3145 -0.27832Q46.8311 -0.0732422 46.3232 0.0341797Q45.8154 0.141602 45.293 0.141602Q43.9844 0.141602 43.2202 -0.620117Q42.4561 -1.38184 42.4561 -2.68066Q42.4561 -4.02344 43.1812 -4.81201Q43.9063 -5.60059 45.1367 -5.60059Q46.2402 -5.60059 46.8823 -4.89014Q47.5244 -4.17969 47.5244 -2.95898ZM46.626 -3.22266Q46.6162 -3.95996 46.2134 -4.39941Q45.8105 -4.83887 45.1465 -4.83887Q44.3945 -4.83887 43.9429 -4.41406Q43.4912 -3.98926 43.4229 -3.21777L46.626 -3.22266ZM49.8682 -0.820313L49.8682 2.08008L48.9648 2.08008L48.9648 -5.46875L49.8682 -5.46875L49.8682 -4.63867Q50.1514 -5.12695 50.5835 -5.36377Q51.0156 -5.60059 51.6162 -5.60059Q52.6123 -5.60059 53.2349 -4.80957Q53.8574 -4.01855 53.8574 -2.72949Q53.8574 -1.44043 53.2349 -0.649414Q52.6123 0.141602 51.6162 0.141602Q51.0156 0.141602 50.5835 -0.0952148Q50.1514 -0.332031 49.8682 -0.820313ZM52.9248 -2.72949Q52.9248 -3.7207 52.5171 -4.28467Q52.1094 -4.84863 51.3965 -4.84863Q50.6836 -4.84863 50.2759 -4.28467Q49.8682 -3.7207 49.8682 -2.72949Q49.8682 -1.73828 50.2759 -1.17432Q50.6836 -0.610352 51.3965 -0.610352Q52.1094 -0.610352 52.5171 -1.17432Q52.9248 -1.73828 52.9248 -2.72949ZM55.3467 -5.46875L56.2451 -5.46875L56.2451 0L55.3467 0L55.3467 -5.46875ZM55.3467 -7.59766L56.2451 -7.59766L56.2451 -6.45996L55.3467 -6.45996L55.3467 -7.59766ZM62.6709 -3.30078L62.6709 0L61.7725 0L61.7725 -3.27148Q61.7725 -4.04785 61.4697 -4.43359Q61.167 -4.81934 60.5615 -4.81934Q59.834 -4.81934 59.4141 -4.35547Q58.9941 -3.8916 58.9941 -3.09082L58.9941 0L58.0908 0L58.0908 -5.46875L58.9941 -5.46875L58.9941 -4.61914Q59.3164 -5.1123 59.7534 -5.35645Q60.1904 -5.60059 60.7617 -5.60059Q61.7041 -5.60059 62.1875 -5.01709Q62.6709 -4.43359 62.6709 -3.30078ZM68.0615 -2.79785Q68.0615 -3.77441 67.6587 -4.31152Q67.2559 -4.84863 66.5283 -4.84863Q65.8057 -4.84863 65.4028 -4.31152Q65 -3.77441 65 -2.79785Q65 -1.82617 65.4028 -1.28906Q65.8057 -0.751953 66.5283 -0.751953Q67.2559 -0.751953 67.6587 -1.28906Q68.0615 -1.82617 68.0615 -2.79785ZM68.96 -0.678711Q68.96 0.717773 68.3398 1.39893Q67.7197 2.08008 66.4404 2.08008Q65.9668 2.08008 65.5469 2.00928Q65.127 1.93848 64.7314 1.79199L64.7314 0.917969Q65.127 1.13281 65.5127 1.23535Q65.8984 1.33789 66.2988 1.33789Q67.1826 1.33789 67.6221 0.876465Q68.0615 0.415039 68.0615 -0.517578L68.0615 -0.961914Q67.7832 -0.478516 67.3486 -0.239258C67.0589 -0.0797526 66.7122 0 66.3086 0Q65.3027 0 64.6875 -0.766602Q64.0723 -1.5332 64.0723 -2.79785Q64.0723 -4.06738 64.6875 -4.83398Q65.3027 -5.60059 66.3086 -5.60059Q66.9141 -5.60059 67.3486 -5.36133Q67.7832 -5.12207 68.0615 -4.63867L68.0615 -5.46875L68.96 -5.46875L68.96 -0.678711Z" fill="#262626" transform="translate(151,125.30208333333331)" />
<path d="M1.96777 -6.47949L1.96777 -0.810547L3.15918 -0.810547Q4.66797 -0.810547 5.36865 -1.49414Q6.06934 -2.17773 6.06934 -3.65234Q6.06934 -5.11719 5.36865 -5.79834Q4.66797 -6.47949 3.15918 -6.47949L1.96777 -6.47949ZM0.981445 -7.29004L3.00781 -7.29004Q5.12695 -7.29004 6.11816 -6.40869Q7.10937 -5.52734 7.10938 -3.65234Q7.10938 -1.76758 6.11328 -0.883789Q5.11719 0 3.00781 0L0.981445 0L0.981445 -7.29004ZM13.3203 -2.95898L13.3203 -2.51953L9.18945 -2.51953Q9.24805 -1.5918 9.74854 -1.10596Q10.249 -0.620117 11.1426 -0.620117Q11.6602 -0.620117 12.146 -0.74707Q12.6318 -0.874023 13.1104 -1.12793L13.1104 -0.27832Q12.627 -0.0732422 12.1191 0.0341797Q11.6113 0.141602 11.0889 0.141602Q9.78027 0.141602 9.01611 -0.620117Q8.25195 -1.38184 8.25195 -2.68066Q8.25195 -4.02344 8.97705 -4.81201Q9.70215 -5.60059 10.9326 -5.60059Q12.0361 -5.60059 12.6782 -4.89014Q13.3203 -4.17969 13.3203 -2.95898ZM12.4219 -3.22266Q12.4121 -3.95996 12.0093 -4.39941Q11.6064 -4.83887 10.9424 -4.83887Q10.1904 -4.83887 9.73877 -4.41406Q9.28711 -3.98926 9.21875 -3.21777L12.4219 -3.22266ZM14.1504 -5.46875L15.1025 -5.46875L16.8115 -0.878906L18.5205 -5.46875L19.4727 -5.46875L17.4219 0L16.2012 0L14.1504 -5.46875ZM20.8398 -1.24023L21.8701 -1.24023L21.8701 0L20.8398 0L20.8398 -1.24023ZM29.5459 -6.31836L28.208 -2.69043L30.8887 -2.69043L29.5459 -6.31836ZM28.9893 -7.29004L30.1074 -7.29004L32.8857 0L31.8604 0L31.1963 -1.87012L27.9102 -1.87012L27.2461 0L26.2061 0L28.9893 -7.29004ZM37.3975 -5.30762L37.3975 -4.45801Q37.0166 -4.65332 36.6064 -4.75098Q36.1963 -4.84863 35.7568 -4.84863Q35.0879 -4.84863 34.7534 -4.64355Q34.4189 -4.43848 34.4189 -4.02832Q34.4189 -3.71582 34.6582 -3.5376Q34.8975 -3.35937 35.6201 -3.19824L35.9277 -3.12988Q36.8848 -2.9248 37.2876 -2.55127Q37.6904 -2.17773 37.6904 -1.50879Q37.6904 -0.74707 37.0874 -0.302734Q36.4844 0.141602 35.4297 0.141602Q34.9902 0.141602 34.5142 0.0561523Q34.0381 -0.0292969 33.5107 -0.200195L33.5107 -1.12793Q34.0088 -0.869141 34.4922 -0.739746Q34.9756 -0.610352 35.4492 -0.610352Q36.084 -0.610352 36.4258 -0.827637Q36.7676 -1.04492 36.7676 -1.44043Q36.7676 -1.80664 36.521 -2.00195Q36.2744 -2.19727 35.4395 -2.37793L35.127 -2.45117Q34.292 -2.62695 33.9209 -2.99072Q33.5498 -3.35449 33.5498 -3.98926Q33.5498 -4.76074 34.0967 -5.18066Q34.6436 -5.60059 35.6494 -5.60059Q36.1475 -5.60059 36.5869 -5.52734Q37.0264 -5.4541 37.3975 -5.30762ZM42.6074 -5.30762L42.6074 -4.45801Q42.2266 -4.65332 41.8164 -4.75098Q41.4063 -4.84863 40.9668 -4.84863Q40.2979 -4.84863 39.9634 -4.64355Q39.6289 -4.43848 39.6289 -4.02832Q39.6289 -3.71582 39.8682 -3.5376Q40.1074 -3.35937 40.8301 -3.19824L41.1377 -3.12988Q42.0947 -2.9248 42.4976 -2.55127Q42.9004 -2.17773 42.9004 -1.50879Q42.9004 -0.74707 42.2974 -0.302734Q41.6943 0.141602 40.6396 0.141602Q40.2002 0.141602 39.7241 0.0561523Q39.248 -0.0292969 38.7207 -0.200195L38.7207 -1.12793Q39.2188 -0.869141 39.7021 -0.739746Q40.1855 -0.610352 40.6592 -0.610352Q41.2939 -0.610352 41.6357 -0.827637Q41.9775 -1.04492 41.9775 -1.44043Q41.9775 -1.80664 41.731 -2.00195Q41.4844 -2.19727 40.6494 -2.37793L40.3369 -2.45117Q39.502 -2.62695 39.1309 -2.99072Q38.7598 -3.35449 38.7598 -3.98926Q38.7598 -4.76074 39.3066 -5.18066Q39.8535 -5.60059 40.8594 -5.60059Q41.3574 -5.60059 41.7969 -5.52734Q42.2363 -5.4541 42.6074 -5.30762ZM44.3311 -5.46875L45.2295 -5.46875L45.2295 0L44.3311 0L44.3311 -5.46875ZM44.3311 -7.59766L45.2295 -7.59766L45.2295 -6.45996L44.3311 -6.45996L44.3311 -7.59766ZM50.5957 -5.30762L50.5957 -4.45801Q50.2148 -4.65332 49.8047 -4.75098Q49.3945 -4.84863 48.9551 -4.84863Q48.2861 -4.84863 47.9517 -4.64355Q47.6172 -4.43848 47.6172 -4.02832Q47.6172 -3.71582 47.8564 -3.5376Q48.0957 -3.35937 48.8184 -3.19824L49.126 -3.12988Q50.083 -2.9248 50.4858 -2.55127Q50.8887 -2.17773 50.8887 -1.50879Q50.8887 -0.74707 50.2856 -0.302734Q49.6826 0.141602 48.6279 0.141602Q48.1885 0.141602 47.7124 0.0561523Q47.2363 -0.0292969 46.709 -0.200195L46.709 -1.12793Q47.207 -0.869141 47.6904 -0.739746Q48.1738 -0.610352 48.6475 -0.610352Q49.2822 -0.610352 49.624 -0.827637Q49.9658 -1.04492 49.9658 -1.44043Q49.9658 -1.80664 49.7192 -2.00195Q49.4727 -2.19727 48.6377 -2.37793L48.3252 -2.45117Q47.4902 -2.62695 47.1191 -2.99072Q46.748 -3.35449 46.748 -3.98926Q46.748 -4.76074 47.2949 -5.18066Q47.8418 -5.60059 48.8477 -5.60059Q49.3457 -5.60059 49.7852 -5.52734Q50.2246 -5.4541 50.5957 -5.30762ZM53.208 -7.02148L53.208 -5.46875L55.0586 -5.46875L55.0586 -4.77051L53.208 -4.77051L53.208 -1.80176Q53.208 -1.13281 53.3911 -0.942383Q53.5742 -0.751953 54.1357 -0.751953L55.0586 -0.751953L55.0586 0L54.1357 0Q53.0957 0 52.7002 -0.388184Q52.3047 -0.776367 52.3047 -1.80176L52.3047 -4.77051L51.6455 -4.77051L51.6455 -5.46875L52.3047 -5.46875L52.3047 -7.02148L53.208 -7.02148ZM58.7256 -2.74902Q57.6367 -2.74902 57.2168 -2.5Q56.7969 -2.25098 56.7969 -1.65039Q56.7969 -1.17187 57.1118 -0.891113Q57.4268 -0.610352 57.9688 -0.610352Q58.7158 -0.610352 59.1675 -1.14014Q59.6191 -1.66992 59.6191 -2.54883L59.6191 -2.74902L58.7256 -2.74902ZM60.5176 -3.12012L60.5176 0L59.6191 0L59.6191 -0.830078Q59.3115 -0.332031 58.8525 -0.0952148Q58.3936 0.141602 57.7295 0.141602Q56.8896 0.141602 56.394 -0.32959Q55.8984 -0.800781 55.8984 -1.5918Q55.8984 -2.51465 56.5161 -2.9834Q57.1338 -3.45215 58.3594 -3.45215L59.6191 -3.45215L59.6191 -3.54004Q59.6191 -4.16016 59.2114 -4.49951Q58.8037 -4.83887 58.0664 -4.83887Q57.5977 -4.83887 57.1533 -4.72656Q56.709 -4.61426 56.2988 -4.38965L56.2988 -5.21973Q56.792 -5.41016 57.2559 -5.50537Q57.7197 -5.60059 58.1592 -5.60059Q59.3457 -5.60059 59.9316 -4.98535Q60.5176 -4.37012 60.5176 -3.12012ZM66.9141 -3.30078L66.9141 0L66.0156 0L66.0156 -3.27148Q66.0156 -4.04785 65.7129 -4.43359Q65.4102 -4.81934 64.8047 -4.81934Q64.0771 -4.81934 63.6572 -4.35547Q63.2373 -3.8916 63.2373 -3.09082L63.2373 0L62.334 0L62.334 -5.46875L63.2373 -5.46875L63.2373 -4.61914Q63.5596 -5.1123 63.9966 -5.35645Q64.4336 -5.60059 65.0049 -5.60059Q65.9473 -5.60059 66.4307 -5.01709Q66.9141 -4.43359 66.9141 -3.30078ZM72.6416 -5.25879L72.6416 -4.41895Q72.2607 -4.62891 71.8774 -4.73389Q71.4941 -4.83887 71.1035 -4.83887Q70.2295 -4.83887 69.7461 -4.28467Q69.2627 -3.73047 69.2627 -2.72949Q69.2627 -1.72852 69.7461 -1.17432Q70.2295 -0.620117 71.1035 -0.620117Q71.4941 -0.620117 71.8774 -0.725098Q72.2607 -0.830078 72.6416 -1.04004L72.6416 -0.209961Q72.2656 -0.0341797 71.8628 0.0537109Q71.46 0.141602 71.0059 0.141602Q69.7705 0.141602 69.043 -0.634766Q68.3154 -1.41113 68.3154 -2.72949Q68.3154 -4.06738 69.0503 -4.83398Q69.7852 -5.60059 71.0645 -5.60059Q71.4795 -5.60059 71.875 -5.51514Q72.2705 -5.42969 72.6416 -5.25879ZM78.8818 -2.95898L78.8818 -2.51953L74.751 -2.51953Q74.8096 -1.5918 75.3101 -1.10596Q75.8105 -0.620117 76.7041 -0.620117Q77.2217 -0.620117 77.7075 -0.74707Q78.1934 -0.874023 78.6719 -1.12793L78.6719 -0.27832Q78.1885 -0.0732422 77.6807 0.0341797Q77.1729 0.141602 76.6504 0.141602Q75.3418 0.141602 74.5776 -0.620117Q73.8135 -1.38184 73.8135 -2.68066Q73.8135 -4.02344 74.5386 -4.81201Q75.2637 -5.60059 76.4941 -5.60059Q77.5977 -5.60059 78.2397 -4.89014Q78.8818 -4.17969 78.8818 -2.95898ZM77.9834 -3.22266Q77.9736 -3.95996 77.5708 -4.39941Q77.168 -4.83887 76.5039 -4.83887Q75.752 -4.83887 75.3003 -4.41406Q74.8486 -3.98926 74.7803 -3.21777L77.9834 -3.22266Z" fill="#262626" transform="translate(151,233.525)" />
<path d="M0.981445 -7.29004L1.96777 -7.29004L1.96777 -4.30176L5.55176 -4.30176L5.55176 -7.29004L6.53809 -7.29004L6.53809 0L5.55176 0L5.55176 -3.47168L1.96777 -3.47168L1.96777 0L0.981445 0L0.981445 -7.29004ZM8.36914 -2.1582L8.36914 -5.46875L9.26758 -5.46875L9.26758 -2.19238Q9.26758 -1.41602 9.57031 -1.02783Q9.87305 -0.639648 10.4785 -0.639648Q11.2061 -0.639648 11.6284 -1.10352Q12.0508 -1.56738 12.0508 -2.36816L12.0508 -5.46875L12.9492 -5.46875L12.9492 0L12.0508 0L12.0508 -0.839844Q11.7236 -0.341797 11.2915 -0.100098Q10.8594 0.141602 10.2881 0.141602Q9.3457 0.141602 8.85742 -0.444336Q8.36914 -1.03027 8.36914 -2.1582ZM19.0576 -4.41895Q19.3945 -5.02441 19.8633 -5.3125Q20.332 -5.60059 20.9668 -5.60059Q21.8213 -5.60059 22.2852 -5.00244Q22.749 -4.4043 22.749 -3.30078L22.749 0L21.8457 0L21.8457 -3.27148Q21.8457 -4.05762 21.5674 -4.43848Q21.2891 -4.81934 20.7178 -4.81934Q20.0195 -4.81934 19.6143 -4.35547Q19.209 -3.8916 19.209 -3.09082L19.209 0L18.3057 0L18.3057 -3.27148Q18.3057 -4.0625 18.0273 -4.44092Q17.749 -4.81934 17.168 -4.81934Q16.4795 -4.81934 16.0742 -4.35303Q15.6689 -3.88672 15.6689 -3.09082L15.6689 0L14.7656 0L14.7656 -5.46875L15.6689 -5.46875L15.6689 -4.61914Q15.9766 -5.12207 16.4063 -5.36133Q16.8359 -5.60059 17.4268 -5.60059Q18.0225 -5.60059 18.4399 -5.29785Q18.8574 -4.99512 19.0576 -4.41895ZM27.0264 -2.74902Q25.9375 -2.74902 25.5176 -2.5Q25.0977 -2.25098 25.0977 -1.65039Q25.0977 -1.17187 25.4126 -0.891113Q25.7275 -0.610352 26.2695 -0.610352Q27.0166 -0.610352 27.4683 -1.14014Q27.9199 -1.66992 27.9199 -2.54883L27.9199 -2.74902L27.0264 -2.74902ZM28.8184 -3.12012L28.8184 0L27.9199 0L27.9199 -0.830078Q27.6123 -0.332031 27.1533 -0.0952148Q26.6943 0.141602 26.0303 0.141602Q25.1904 0.141602 24.6948 -0.32959Q24.1992 -0.800781 24.1992 -1.5918Q24.1992 -2.51465 24.8169 -2.9834Q25.4346 -3.45215 26.6602 -3.45215L27.9199 -3.45215L27.9199 -3.54004Q27.9199 -4.16016 27.5122 -4.49951Q27.1045 -4.83887 26.3672 -4.83887Q25.8984 -4.83887 25.4541 -4.72656Q25.0098 -4.61426 24.5996 -4.38965L24.5996 -5.21973Q25.0928 -5.41016 25.5566 -5.50537Q26.0205 -5.60059 26.46 -5.60059Q27.6465 -5.60059 28.2324 -4.98535Q28.8184 -4.37012 28.8184 -3.12012ZM35.2148 -3.30078L35.2148 0L34.3164 0L34.3164 -3.27148Q34.3164 -4.04785 34.0137 -4.43359Q33.7109 -4.81934 33.1055 -4.81934Q32.3779 -4.81934 31.958 -4.35547Q31.5381 -3.8916 31.5381 -3.09082L31.5381 0L30.6348 0L30.6348 -5.46875L31.5381 -5.46875L31.5381 -4.61914Q31.8604 -5.1123 32.2974 -5.35645Q32.7344 -5.60059 33.3057 -5.60059Q34.248 -5.60059 34.7314 -5.01709Q35.2148 -4.43359 35.2148 -3.30078ZM37.0068 -5.46875L37.9053 -5.46875L37.9053 0L37.0068 0L37.0068 -5.46875ZM37.0068 -7.59766L37.9053 -7.59766L37.9053 -6.45996L37.0068 -6.45996L37.0068 -7.59766ZM40.6738 -7.02148L40.6738 -5.46875L42.5244 -5.46875L42.5244 -4.77051L40.6738 -4.77051L40.6738 -1.80176Q40.6738 -1.13281 40.8569 -0.942383Q41.04 -0.751953 41.6016 -0.751953L42.5244 -0.751953L42.5244 0L41.6016 0Q40.5615 0 40.166 -0.388184Q39.7705 -0.776367 39.7705 -1.80176L39.7705 -4.77051L39.1113 -4.77051L39.1113 -5.46875L39.7705 -5.46875L39.7705 -7.02148L40.6738 -7.02148ZM46.1914 -2.74902Q45.1025 -2.74902 44.6826 -2.5Q44.2627 -2.25098 44.2627 -1.65039Q44.2627 -1.17187 44.5776 -0.891113Q44.8926 -0.610352 45.4346 -0.610352Q46.1816 -0.610352 46.6333 -1.14014Q47.085 -1.66992 47.085 -2.54883L47.085 -2.74902L46.1914 -2.74902ZM47.9834 -3.12012L47.9834 0L47.085 0L47.085 -0.830078Q46.7773 -0.332031 46.3184 -0.0952148Q45.8594 0.141602 45.1953 0.141602Q44.3555 0.141602 43.8599 -0.32959Q43.3643 -0.800781 43.3643 -1.5918Q43.3643 -2.51465 43.9819 -2.9834Q44.5996 -3.45215 45.8252 -3.45215L47.085 -3.45215L47.085 -3.54004Q47.085 -4.16016 46.6772 -4.49951Q46.2695 -4.83887 45.5322 -4.83887Q45.0635 -4.83887 44.6191 -4.72656Q44.1748 -4.61426 43.7646 -4.38965L43.7646 -5.21973Q44.2578 -5.41016 44.7217 -5.50537Q45.1855 -5.60059 45.625 -5.60059Q46.8115 -5.60059 47.3975 -4.98535Q47.9834 -4.37012 47.9834 -3.12012ZM53.0029 -4.62891Q52.8516 -4.7168 52.6733 -4.7583Q52.4951 -4.7998 52.2803 -4.7998Q51.5186 -4.7998 51.1108 -4.3042Q50.7031 -3.80859 50.7031 -2.88086L50.7031 0L49.7998 0L49.7998 -5.46875L50.7031 -5.46875L50.7031 -4.61914Q50.9863 -5.11719 51.4404 -5.35889Q51.8945 -5.60059 52.5439 -5.60059Q52.6367 -5.60059 52.749 -5.58838Q52.8613 -5.57617 52.998 -5.55176L53.0029 -4.62891ZM53.9453 -5.46875L54.8438 -5.46875L54.8438 0L53.9453 0L53.9453 -5.46875ZM53.9453 -7.59766L54.8438 -7.59766L54.8438 -6.45996L53.9453 -6.45996L53.9453 -7.59766ZM59.209 -2.74902Q58.1201 -2.74902 57.7002 -2.5Q57.2803 -2.25098 57.2803 -1.65039Q57.2803 -1.17187 57.5952 -0.891113Q57.9102 -0.610352 58.4521 -0.610352Q59.1992 -0.610352 59.6509 -1.14014Q60.1025 -1.66992 60.1025 -2.54883L60.1025 -2.74902L59.209 -2.74902ZM61.001 -3.12012L61.001 0L60.1025 0L60.1025 -0.830078Q59.7949 -0.332031 59.3359 -0.0952148Q58.877 0.141602 58.2129 0.141602Q57.373 0.141602 56.8774 -0.32959Q56.3818 -0.800781 56.3818 -1.5918Q56.3818 -2.51465 56.9995 -2.9834Q57.6172 -3.45215 58.8428 -3.45215L60.1025 -3.45215L60.1025 -3.54004Q60.1025 -4.16016 59.6948 -4.49951Q59.2871 -4.83887 58.5498 -4.83887Q58.0811 -4.83887 57.6367 -4.72656Q57.1924 -4.61426 56.7822 -4.38965L56.7822 -5.21973Q57.2754 -5.41016 57.7393 -5.50537Q58.2031 -5.60059 58.6426 -5.60059Q59.8291 -5.60059 60.415 -4.98535Q61.001 -4.37012 61.001 -3.12012ZM67.3975 -3.30078L67.3975 0L66.499 0L66.499 -3.27148Q66.499 -4.04785 66.1963 -4.43359Q65.8936 -4.81934 65.2881 -4.81934Q64.5605 -4.81934 64.1406 -4.35547Q63.7207 -3.8916 63.7207 -3.09082L63.7207 0L62.8174 0L62.8174 -5.46875L63.7207 -5.46875L63.7207 -4.61914Q64.043 -5.1123 64.48 -5.35645Q64.917 -5.60059 65.4883 -5.60059Q66.4307 -5.60059 66.9141 -5.01709Q67.3975 -4.43359 67.3975 -3.30078Z" fill="#262626" transform="translate(151,346.5844086021506)" />
<path d="M3.41797 -6.31836L2.08008 -2.69043L4.76074 -2.69043L3.41797 -6.31836ZM2.86133 -7.29004L3.97949 -7.29004L6.75781 0L5.73242 0L5.06836 -1.87012L1.78223 -1.87012L1.11816 0L0.078125 0L2.86133 -7.29004ZM11.3818 -4.63867L11.3818 -7.59766L12.2803 -7.59766L12.2803 0L11.3818 0L11.3818 -0.820313Q11.0986 -0.332031 10.6665 -0.0952148Q10.2344 0.141602 9.62891 0.141602Q8.6377 0.141602 8.01514 -0.649414Q7.39258 -1.44043 7.39258 -2.72949Q7.39258 -4.01855 8.01514 -4.80957Q8.6377 -5.60059 9.62891 -5.60059Q10.2344 -5.60059 10.6665 -5.36377Q11.0986 -5.12695 11.3818 -4.63867ZM8.32031 -2.72949Q8.32031 -1.73828 8.72803 -1.17432Q9.13574 -0.610352 9.84863 -0.610352Q10.5615 -0.610352 10.9717 -1.17432Q11.3818 -1.73828 11.3818 -2.72949Q11.3818 -3.7207 10.9717 -4.28467Q10.5615 -4.84863 9.84863 -4.84863Q9.13574 -4.84863 8.72803 -4.28467Q8.32031 -3.7207 8.32031 -2.72949ZM18.3887 -4.41895Q18.7256 -5.02441 19.1943 -5.3125Q19.6631 -5.60059 20.2979 -5.60059Q21.1523 -5.60059 21.6162 -5.00244Q22.0801 -4.4043 22.0801 -3.30078L22.0801 0L21.1768 0L21.1768 -3.27148Q21.1768 -4.05762 20.8984 -4.43848Q20.6201 -4.81934 20.0488 -4.81934Q19.3506 -4.81934 18.9453 -4.35547Q18.54 -3.8916 18.54 -3.09082L18.54 0L17.6367 0L17.6367 -3.27148Q17.6367 -4.0625 17.3584 -4.44092Q17.0801 -4.81934 16.499 -4.81934Q15.8105 -4.81934 15.4053 -4.35303Q15 -3.88672 15 -3.09082L15 0L14.0967 0L14.0967 -5.46875L15 -5.46875L15 -4.61914Q15.3076 -5.12207 15.7373 -5.36133Q16.167 -5.60059 16.7578 -5.60059Q17.3535 -5.60059 17.771 -5.29785Q18.1885 -4.99512 18.3887 -4.41895ZM23.8721 -5.46875L24.7705 -5.46875L24.7705 0L23.8721 0L23.8721 -5.46875ZM23.8721 -7.59766L24.7705 -7.59766L24.7705 -6.45996L23.8721 -6.45996L23.8721 -7.59766ZM31.1963 -3.30078L31.1963 0L30.2979 0L30.2979 -3.27148Q30.2979 -4.04785 29.9951 -4.43359Q29.6924 -4.81934 29.0869 -4.81934Q28.3594 -4.81934 27.9395 -4.35547Q27.5195 -3.8916 27.5195 -3.09082L27.5195 0L26.6162 0L26.6162 -5.46875L27.5195 -5.46875L27.5195 -4.61914Q27.8418 -5.1123 28.2788 -5.35645Q28.7158 -5.60059 29.2871 -5.60059Q30.2295 -5.60059 30.7129 -5.01709Q31.1963 -4.43359 31.1963 -3.30078ZM32.9883 -5.46875L33.8867 -5.46875L33.8867 0L32.9883 0L32.9883 -5.46875ZM32.9883 -7.59766L33.8867 -7.59766L33.8867 -6.45996L32.9883 -6.45996L32.9883 -7.59766ZM39.2529 -5.30762L39.2529 -4.45801Q38.8721 -4.65332 38.4619 -4.75098Q38.0518 -4.84863 37.6123 -4.84863Q36.9434 -4.84863 36.6089 -4.64355Q36.2744 -4.43848 36.2744 -4.02832Q36.2744 -3.71582 36.5137 -3.5376Q36.7529 -3.35937 37.4756 -3.19824L37.7832 -3.12988Q38.7402 -2.9248 39.1431 -2.55127Q39.5459 -2.17773 39.5459 -1.50879Q39.5459 -0.74707 38.9429 -0.302734Q38.3398 0.141602 37.2852 0.141602Q36.8457 0.141602 36.3696 0.0561523Q35.8936 -0.0292969 35.3662 -0.200195L35.3662 -1.12793Q35.8643 -0.869141 36.3477 -0.739746Q36.8311 -0.610352 37.3047 -0.610352Q37.9395 -0.610352 38.2813 -0.827637Q38.623 -1.04492 38.623 -1.44043Q38.623 -1.80664 38.3765 -2.00195Q38.1299 -2.19727 37.2949 -2.37793L36.9824 -2.45117Q36.1475 -2.62695 35.7764 -2.99072Q35.4053 -3.35449 35.4053 -3.98926Q35.4053 -4.76074 35.9521 -5.18066Q36.499 -5.60059 37.5049 -5.60059Q38.0029 -5.60059 38.4424 -5.52734Q38.8818 -5.4541 39.2529 -5.30762ZM41.8652 -7.02148L41.8652 -5.46875L43.7158 -5.46875L43.7158 -4.77051L41.8652 -4.77051L41.8652 -1.80176Q41.8652 -1.13281 42.0483 -0.942383Q42.2314 -0.751953 42.793 -0.751953L43.7158 -0.751953L43.7158 0L42.793 0Q41.7529 0 41.3574 -0.388184Q40.9619 -0.776367 40.9619 -1.80176L40.9619 -4.77051L40.3027 -4.77051L40.3027 -5.46875L40.9619 -5.46875L40.9619 -7.02148L41.8652 -7.02148ZM48.0664 -4.62891Q47.915 -4.7168 47.7368 -4.7583Q47.5586 -4.7998 47.3438 -4.7998Q46.582 -4.7998 46.1743 -4.3042Q45.7666 -3.80859 45.7666 -2.88086L45.7666 0L44.8633 0L44.8633 -5.46875L45.7666 -5.46875L45.7666 -4.61914Q46.0498 -5.11719 46.5039 -5.35889Q46.958 -5.60059 47.6074 -5.60059Q47.7002 -5.60059 47.8125 -5.58838Q47.9248 -5.57617 48.0615 -5.55176L48.0664 -4.62891ZM51.4941 -2.74902Q50.4053 -2.74902 49.9854 -2.5Q49.5654 -2.25098 49.5654 -1.65039Q49.5654 -1.17187 49.8804 -0.891113Q50.1953 -0.610352 50.7373 -0.610352Q51.4844 -0.610352 51.936 -1.14014Q52.3877 -1.66992 52.3877 -2.54883L52.3877 -2.74902L51.4941 -2.74902ZM53.2861 -3.12012L53.2861 0L52.3877 0L52.3877 -0.830078Q52.0801 -0.332031 51.6211 -0.0952148Q51.1621 0.141602 50.498 0.141602Q49.6582 0.141602 49.1626 -0.32959Q48.667 -0.800781 48.667 -1.5918Q48.667 -2.51465 49.2847 -2.9834Q49.9023 -3.45215 51.1279 -3.45215L52.3877 -3.45215L52.3877 -3.54004Q52.3877 -4.16016 51.98 -4.49951Q51.5723 -4.83887 50.835 -4.83887Q50.3662 -4.83887 49.9219 -4.72656Q49.4775 -4.61426 49.0674 -4.38965L49.0674 -5.21973Q49.5605 -5.41016 50.0244 -5.50537Q50.4883 -5.60059 50.9277 -5.60059Q52.1143 -5.60059 52.7002 -4.98535Q53.2861 -4.37012 53.2861 -3.12012ZM56.0254 -7.02148L56.0254 -5.46875L57.876 -5.46875L57.876 -4.77051L56.0254 -4.77051L56.0254 -1.80176Q56.0254 -1.13281 56.2085 -0.942383Q56.3916 -0.751953 56.9531 -0.751953L57.876 -0.751953L57.876 0L56.9531 0Q55.9131 0 55.5176 -0.388184Q55.1221 -0.776367 55.1221 -1.80176L55.1221 -4.77051L54.4629 -4.77051L54.4629 -5.46875L55.1221 -5.46875L55.1221 -7.02148L56.0254 -7.02148ZM59.0576 -5.46875L59.9561 -5.46875L59.9561 0L59.0576 0L59.0576 -5.46875ZM59.0576 -7.59766L59.9561 -7.59766L59.9561 -6.45996L59.0576 -6.45996L59.0576 -7.59766ZM63.9551 -4.83887Q63.2324 -4.83887 62.8125 -4.2749Q62.3926 -3.71094 62.3926 -2.72949Q62.3926 -1.74805 62.8101 -1.18408Q63.2275 -0.620117 63.9551 -0.620117Q64.6729 -0.620117 65.0928 -1.18652Q65.5127 -1.75293 65.5127 -2.72949Q65.5127 -3.70117 65.0928 -4.27002Q64.6729 -4.83887 63.9551 -4.83887ZM63.9551 -5.60059Q65.127 -5.60059 65.7959 -4.83887Q66.4648 -4.07715 66.4648 -2.72949Q66.4648 -1.38672 65.7959 -0.622559Q65.127 0.141602 63.9551 0.141602Q62.7783 0.141602 62.1118 -0.622559Q61.4453 -1.38672 61.4453 -2.72949Q61.4453 -4.07715 62.1118 -4.83887Q62.7783 -5.60059 63.9551 -5.60059ZM72.5 -3.30078L72.5 0L71.6016 0L71.6016 -3.27148Q71.6016 -4.04785 71.2988 -4.43359Q70.9961 -4.81934 70.3906 -4.81934Q69.6631 -4.81934 69.2432 -4.35547Q68.8232 -3.8916 68.8232 -3.09082L68.8232 0L67.9199 0L67.9199 -5.46875L68.8232 -5.46875L68.8232 -4.61914Q69.1455 -5.1123 69.5825 -5.35645Q70.0195 -5.60059 70.5908 -5.60059Q71.5332 -5.60059 72.0166 -5.01709Q72.5 -4.43359 72.5 -3.30078Z" fill="#262626" transform="translate(151,483.12916666666666)" />
<path d="M6.44043 -6.72852L6.44043 -5.68848Q5.94238 -6.15234 5.37842 -6.38184Q4.81445 -6.61133 4.17969 -6.61133Q2.92969 -6.61133 2.26563 -5.84717Q1.60156 -5.08301 1.60156 -3.6377Q1.60156 -2.19727 2.26563 -1.43311Q2.92969 -0.668945 4.17969 -0.668945Q4.81445 -0.668945 5.37842 -0.898438Q5.94238 -1.12793 6.44043 -1.5918L6.44043 -0.561523Q5.92285 -0.209961 5.34424 -0.0341797Q4.76563 0.141602 4.12109 0.141602Q2.46582 0.141602 1.51367 -0.871582Q0.561523 -1.88477 0.561523 -3.6377Q0.561523 -5.39551 1.51367 -6.40869Q2.46582 -7.42187 4.12109 -7.42188Q4.77539 -7.42188 5.354 -7.24854Q5.93262 -7.07519 6.44043 -6.72852ZM7.9248 -7.59766L8.82324 -7.59766L8.82324 0L7.9248 0L7.9248 -7.59766ZM10.7031 -5.46875L11.6016 -5.46875L11.6016 0L10.7031 0L10.7031 -5.46875ZM10.7031 -7.59766L11.6016 -7.59766L11.6016 -6.45996L10.7031 -6.45996L10.7031 -7.59766ZM17.7393 -4.41895Q18.0762 -5.02441 18.5449 -5.3125Q19.0137 -5.60059 19.6484 -5.60059Q20.5029 -5.60059 20.9668 -5.00244Q21.4307 -4.4043 21.4307 -3.30078L21.4307 0L20.5273 0L20.5273 -3.27148Q20.5273 -4.05762 20.249 -4.43848Q19.9707 -4.81934 19.3994 -4.81934Q18.7012 -4.81934 18.2959 -4.35547Q17.8906 -3.8916 17.8906 -3.09082L17.8906 0L16.9873 0L16.9873 -3.27148Q16.9873 -4.0625 16.709 -4.44092Q16.4307 -4.81934 15.8496 -4.81934Q15.1611 -4.81934 14.7559 -4.35303Q14.3506 -3.88672 14.3506 -3.09082L14.3506 0L13.4473 0L13.4473 -5.46875L14.3506 -5.46875L14.3506 -4.61914Q14.6582 -5.12207 15.0879 -5.36133Q15.5176 -5.60059 16.1084 -5.60059Q16.7041 -5.60059 17.1216 -5.29785Q17.5391 -4.99512 17.7393 -4.41895ZM25.708 -2.74902Q24.6191 -2.74902 24.1992 -2.5Q23.7793 -2.25098 23.7793 -1.65039Q23.7793 -1.17187 24.0942 -0.891113Q24.4092 -0.610352 24.9512 -0.610352Q25.6982 -0.610352 26.1499 -1.14014Q26.6016 -1.66992 26.6016 -2.54883L26.6016 -2.74902L25.708 -2.74902ZM27.5 -3.12012L27.5 0L26.6016 0L26.6016 -0.830078Q26.2939 -0.332031 25.835 -0.0952148Q25.376 0.141602 24.7119 0.141602Q23.8721 0.141602 23.3765 -0.32959Q22.8809 -0.800781 22.8809 -1.5918Q22.8809 -2.51465 23.4985 -2.9834Q24.1162 -3.45215 25.3418 -3.45215L26.6016 -3.45215L26.6016 -3.54004Q26.6016 -4.16016 26.1938 -4.49951Q25.7861 -4.83887 25.0488 -4.83887Q24.5801 -4.83887 24.1357 -4.72656Q23.6914 -4.61426 23.2813 -4.38965L23.2813 -5.21973Q23.7744 -5.41016 24.2383 -5.50537Q24.7021 -5.60059 25.1416 -5.60059Q26.3281 -5.60059 26.9141 -4.98535Q27.5 -4.37012 27.5 -3.12012ZM30.2393 -7.02148L30.2393 -5.46875L32.0898 -5.46875L32.0898 -4.77051L30.2393 -4.77051L30.2393 -1.80176Q30.2393 -1.13281 30.4224 -0.942383Q30.6055 -0.751953 31.167 -0.751953L32.0898 -0.751953L32.0898 0L31.167 0Q30.127 0 29.7314 -0.388184Q29.3359 -0.776367 29.3359 -1.80176L29.3359 -4.77051L28.6768 -4.77051L28.6768 -5.46875L29.3359 -5.46875L29.3359 -7.02148L30.2393 -7.02148ZM37.9492 -2.95898L37.9492 -2.51953L33.8184 -2.51953Q33.877 -1.5918 34.3774 -1.10596Q34.8779 -0.620117 35.7715 -0.620117Q36.2891 -0.620117 36.7749 -0.74707Q37.2607 -0.874023 37.7393 -1.12793L37.7393 -0.27832Q37.2559 -0.0732422 36.748 0.0341797Q36.2402 0.141602 35.7178 0.141602Q34.4092 0.141602 33.645 -0.620117Q32.8809 -1.38184 32.8809 -2.68066Q32.8809 -4.02344 33.606 -4.81201Q34.3311 -5.60059 35.5615 -5.60059Q36.665 -5.60059 37.3071 -4.89014Q37.9492 -4.17969 37.9492 -2.95898ZM37.0508 -3.22266Q37.041 -3.95996 36.6382 -4.39941Q36.2354 -4.83887 35.5713 -4.83887Q34.8193 -4.83887 34.3677 -4.41406Q33.916 -3.98926 33.8477 -3.21777L37.0508 -3.22266Z" fill="#262626" transform="translate(151,426.39065860215055)" />
<path d="M1.96777 -6.47949L1.96777 -0.810547L3.15918 -0.810547Q4.66797 -0.810547 5.36865 -1.49414Q6.06934 -2.17773 6.06934 -3.65234Q6.06934 -5.11719 5.36865 -5.79834Q4.66797 -6.47949 3.15918 -6.47949L1.96777 -6.47949ZM0.981445 -7.29004L3.00781 -7.29004Q5.12695 -7.29004 6.11816 -6.40869Q7.10937 -5.52734 7.10938 -3.65234Q7.10938 -1.76758 6.11328 -0.883789Q5.11719 0 3.00781 0L0.981445 0L0.981445 -7.29004ZM9.66797 -6.47949L9.66797 -3.74023L10.9082 -3.74023Q11.5967 -3.74023 11.9727 -4.09668Q12.3486 -4.45312 12.3486 -5.1123Q12.3486 -5.7666 11.9727 -6.12305Q11.5967 -6.47949 10.9082 -6.47949L9.66797 -6.47949ZM8.68164 -7.29004L10.9082 -7.29004Q12.1338 -7.29004 12.7612 -6.73584Q13.3887 -6.18164 13.3887 -5.1123Q13.3887 -4.0332 12.7612 -3.48145Q12.1338 -2.92969 10.9082 -2.92969L9.66797 -2.92969L9.66797 0L8.68164 0L8.68164 -7.29004ZM17.6709 -6.62109Q16.5967 -6.62109 15.9644 -5.82031Q15.332 -5.01953 15.332 -3.6377Q15.332 -2.26074 15.9644 -1.45996Q16.5967 -0.65918 17.6709 -0.65918Q18.7451 -0.65918 19.3726 -1.45996Q20 -2.26074 20 -3.6377Q20 -5.01953 19.3726 -5.82031Q18.7451 -6.62109 17.6709 -6.62109ZM17.6709 -7.42188Q19.2041 -7.42188 20.1221 -6.39404Q21.04 -5.36621 21.04 -3.6377Q21.04 -1.91406 20.1221 -0.88623Q19.2041 0.141602 17.6709 0.141602Q16.1328 0.141602 15.2124 -0.883789Q14.292 -1.90918 14.292 -3.6377Q14.292 -5.36621 15.2124 -6.39404Q16.1328 -7.42187 17.6709 -7.42188Z" fill="#262626" transform="translate(874,125.30208333333333) translate(-21.6015625,0)" />
<path d="M0.869141 -7.29004L1.86035 -7.29004L1.86035 -2.86133Q1.86035 -1.68945 2.28516 -1.17432Q2.70996 -0.65918 3.66211 -0.65918Q4.60938 -0.65918 5.03418 -1.17432Q5.45898 -1.68945 5.45898 -2.86133L5.45898 -7.29004L6.4502 -7.29004L6.4502 -2.73926Q6.4502 -1.31348 5.74463 -0.585938Q5.03906 0.141602 3.66211 0.141602Q2.28027 0.141602 1.57471 -0.585938Q0.869141 -1.31348 0.869141 -2.73926L0.869141 -7.29004ZM8.30078 -7.29004L9.62891 -7.29004L12.8613 -1.19141L12.8613 -7.29004L13.8184 -7.29004L13.8184 0L12.4902 0L9.25781 -6.09863L9.25781 0L8.30078 0L8.30078 -7.29004ZM16.7676 -6.47949L16.7676 -0.810547L17.959 -0.810547Q19.4678 -0.810547 20.1685 -1.49414Q20.8691 -2.17773 20.8691 -3.65234Q20.8691 -5.11719 20.1685 -5.79834Q19.4678 -6.47949 17.959 -6.47949L16.7676 -6.47949ZM15.7813 -7.29004L17.8076 -7.29004Q19.9268 -7.29004 20.918 -6.40869Q21.9092 -5.52734 21.9092 -3.65234Q21.9092 -1.76758 20.9131 -0.883789Q19.917 0 17.8076 0L15.7813 0L15.7813 -7.29004ZM24.4678 -6.47949L24.4678 -3.74023L25.708 -3.74023Q26.3965 -3.74023 26.7725 -4.09668Q27.1484 -4.45312 27.1484 -5.1123Q27.1484 -5.7666 26.7725 -6.12305Q26.3965 -6.47949 25.708 -6.47949L24.4678 -6.47949ZM23.4814 -7.29004L25.708 -7.29004Q26.9336 -7.29004 27.561 -6.73584Q28.1885 -6.18164 28.1885 -5.1123Q28.1885 -4.0332 27.561 -3.48145Q26.9336 -2.92969 25.708 -2.92969L24.4678 -2.92969L24.4678 0L23.4814 0L23.4814 -7.29004Z" fill="#262626" transform="translate(874,237.7875) translate(-28.5302734375,0)" />
<path d="M0.869141 -7.29004L1.86035 -7.29004L1.86035 -2.86133Q1.86035 -1.68945 2.28516 -1.17432Q2.70996 -0.65918 3.66211 -0.65918Q4.60938 -0.65918 5.03418 -1.17432Q5.45898 -1.68945 5.45898 -2.86133L5.45898 -7.29004L6.4502 -7.29004L6.4502 -2.73926Q6.4502 -1.31348 5.74463 -0.585938Q5.03906 0.141602 3.66211 0.141602Q2.28027 0.141602 1.57471 -0.585938Q0.869141 -1.31348 0.869141 -2.73926L0.869141 -7.29004ZM8.30078 -7.29004L9.62891 -7.29004L12.8613 -1.19141L12.8613 -7.29004L13.8184 -7.29004L13.8184 0L12.4902 0L9.25781 -6.09863L9.25781 0L8.30078 0L8.30078 -7.29004ZM15.7813 -7.29004L16.7676 -7.29004L16.7676 -4.30176L20.3516 -4.30176L20.3516 -7.29004L21.3379 -7.29004L21.3379 0L20.3516 0L20.3516 -3.47168L16.7676 -3.47168L16.7676 0L15.7813 0L15.7813 -7.29004ZM28.7598 -6.72852L28.7598 -5.68848Q28.2617 -6.15234 27.6978 -6.38184Q27.1338 -6.61133 26.499 -6.61133Q25.249 -6.61133 24.585 -5.84717Q23.9209 -5.08301 23.9209 -3.6377Q23.9209 -2.19727 24.585 -1.43311Q25.249 -0.668945 26.499 -0.668945Q27.1338 -0.668945 27.6978 -0.898438Q28.2617 -1.12793 28.7598 -1.5918L28.7598 -0.561523Q28.2422 -0.209961 27.6636 -0.0341797Q27.085 0.141602 26.4404 0.141602Q24.7852 0.141602 23.833 -0.871582Q22.8809 -1.88477 22.8809 -3.6377Q22.8809 -5.39551 23.833 -6.40869Q24.7852 -7.42187 26.4404 -7.42188Q27.0947 -7.42188 27.6733 -7.24854Q28.252 -7.07519 28.7598 -6.72852ZM33.7402 -3.41797Q34.0576 -3.31055 34.3579 -2.95898Q34.6582 -2.60742 34.9609 -1.99219L35.9619 0L34.9023 0L33.9697 -1.87012Q33.6084 -2.60254 33.269 -2.8418Q32.9297 -3.08105 32.3438 -3.08105L31.2695 -3.08105L31.2695 0L30.2832 0L30.2832 -7.29004L32.5098 -7.29004Q33.7598 -7.29004 34.375 -6.76758Q34.9902 -6.24512 34.9902 -5.19043Q34.9902 -4.50195 34.6704 -4.04785Q34.3506 -3.59375 33.7402 -3.41797ZM31.2695 -6.47949L31.2695 -3.8916L32.5098 -3.8916Q33.2227 -3.8916 33.5864 -4.22119Q33.9502 -4.55078 33.9502 -5.19043Q33.9502 -5.83008 33.5864 -6.15479Q33.2227 -6.47949 32.5098 -6.47949L31.2695 -6.47949Z" fill="#262626" transform="translate(874,322.56666666666666) translate(-36.25,0)" />
<path d="M5.35156 -7.05078L5.35156 -6.08887Q4.79004 -6.35742 4.29199 -6.48926Q3.79394 -6.62109 3.33008 -6.62109Q2.52441 -6.62109 2.0874 -6.30859Q1.65039 -5.99609 1.65039 -5.41992Q1.65039 -4.93652 1.94092 -4.68994Q2.23145 -4.44336 3.04199 -4.29199L3.6377 -4.16992Q4.74121 -3.95996 5.26611 -3.43018Q5.79102 -2.90039 5.79102 -2.01172Q5.79102 -0.952148 5.08057 -0.405273Q4.37012 0.141602 2.99805 0.141602Q2.48047 0.141602 1.89697 0.0244141Q1.31348 -0.0927734 0.688477 -0.322266L0.688477 -1.33789Q1.28906 -1.00098 1.86523 -0.830078Q2.44141 -0.65918 2.99805 -0.65918Q3.84277 -0.65918 4.30176 -0.991211Q4.76074 -1.32324 4.76074 -1.93848Q4.76074 -2.47559 4.43115 -2.77832Q4.10156 -3.08105 3.34961 -3.23242L2.74902 -3.34961Q1.64551 -3.56934 1.15234 -4.03809Q0.65918 -4.50684 0.65918 -5.3418Q0.65918 -6.30859 1.34033 -6.86523Q2.02148 -7.42188 3.21777 -7.42188Q3.73047 -7.42188 4.2627 -7.3291Q4.79492 -7.23633 5.35156 -7.05078ZM11.9678 -2.95898L11.9678 -2.51953L7.83691 -2.51953Q7.89551 -1.5918 8.396 -1.10596Q8.89648 -0.620117 9.79004 -0.620117Q10.3076 -0.620117 10.7935 -0.74707Q11.2793 -0.874023 11.7578 -1.12793L11.7578 -0.27832Q11.2744 -0.0732422 10.7666 0.0341797Q10.2588 0.141602 9.73633 0.141602Q8.42773 0.141602 7.66357 -0.620117Q6.89941 -1.38184 6.89941 -2.68066Q6.89941 -4.02344 7.62451 -4.81201Q8.34961 -5.60059 9.58008 -5.60059Q10.6836 -5.60059 11.3257 -4.89014Q11.9678 -4.17969 11.9678 -2.95898ZM11.0693 -3.22266Q11.0596 -3.95996 10.6567 -4.39941Q10.2539 -4.83887 9.58984 -4.83887Q8.83789 -4.83887 8.38623 -4.41406Q7.93457 -3.98926 7.86621 -3.21777L11.0693 -3.22266ZM17.3779 -5.25879L17.3779 -4.41895Q16.9971 -4.62891 16.6138 -4.73389Q16.2305 -4.83887 15.8398 -4.83887Q14.9658 -4.83887 14.4824 -4.28467Q13.999 -3.73047 13.999 -2.72949Q13.999 -1.72852 14.4824 -1.17432Q14.9658 -0.620117 15.8398 -0.620117Q16.2305 -0.620117 16.6138 -0.725098Q16.9971 -0.830078 17.3779 -1.04004L17.3779 -0.209961Q17.002 -0.0341797 16.5991 0.0537109Q16.1963 0.141602 15.7422 0.141602Q14.5068 0.141602 13.7793 -0.634766Q13.0518 -1.41113 13.0518 -2.72949Q13.0518 -4.06738 13.7866 -4.83398Q14.5215 -5.60059 15.8008 -5.60059Q16.2158 -5.60059 16.6113 -5.51514Q17.0068 -5.42969 17.3779 -5.25879ZM22.1094 -4.62891Q21.958 -4.7168 21.7798 -4.7583Q21.6016 -4.7998 21.3867 -4.7998Q20.625 -4.7998 20.2173 -4.3042Q19.8096 -3.80859 19.8096 -2.88086L19.8096 0L18.9063 0L18.9063 -5.46875L19.8096 -5.46875L19.8096 -4.61914Q20.0928 -5.11719 20.5469 -5.35889Q21.001 -5.60059 21.6504 -5.60059Q21.7432 -5.60059 21.8555 -5.58838Q21.9678 -5.57617 22.1045 -5.55176L22.1094 -4.62891ZM27.7295 -2.95898L27.7295 -2.51953L23.5986 -2.51953Q23.6572 -1.5918 24.1577 -1.10596Q24.6582 -0.620117 25.5518 -0.620117Q26.0693 -0.620117 26.5552 -0.74707Q27.041 -0.874023 27.5195 -1.12793L27.5195 -0.27832Q27.0361 -0.0732422 26.5283 0.0341797Q26.0205 0.141602 25.498 0.141602Q24.1895 0.141602 23.4253 -0.620117Q22.6611 -1.38184 22.6611 -2.68066Q22.6611 -4.02344 23.3862 -4.81201Q24.1113 -5.60059 25.3418 -5.60059Q26.4453 -5.60059 27.0874 -4.89014Q27.7295 -4.17969 27.7295 -2.95898ZM26.8311 -3.22266Q26.8213 -3.95996 26.4185 -4.39941Q26.0156 -4.83887 25.3516 -4.83887Q24.5996 -4.83887 24.1479 -4.41406Q23.6963 -3.98926 23.6279 -3.21777L26.8311 -3.22266ZM30.0928 -7.02148L30.0928 -5.46875L31.9434 -5.46875L31.9434 -4.77051L30.0928 -4.77051L30.0928 -1.80176Q30.0928 -1.13281 30.2759 -0.942383Q30.459 -0.751953 31.0205 -0.751953L31.9434 -0.751953L31.9434 0L31.0205 0Q29.9805 0 29.585 -0.388184Q29.1895 -0.776367 29.1895 -1.80176L29.1895 -4.77051L28.5303 -4.77051L28.5303 -5.46875L29.1895 -5.46875L29.1895 -7.02148L30.0928 -7.02148ZM35.6104 -2.74902Q34.5215 -2.74902 34.1016 -2.5Q33.6816 -2.25098 33.6816 -1.65039Q33.6816 -1.17187 33.9966 -0.891113Q34.3115 -0.610352 34.8535 -0.610352Q35.6006 -0.610352 36.0522 -1.14014Q36.5039 -1.66992 36.5039 -2.54883L36.5039 -2.74902L35.6104 -2.74902ZM37.4023 -3.12012L37.4023 0L36.5039 0L36.5039 -0.830078Q36.1963 -0.332031 35.7373 -0.0952148Q35.2783 0.141602 34.6143 0.141602Q33.7744 0.141602 33.2788 -0.32959Q32.7832 -0.800781 32.7832 -1.5918Q32.7832 -2.51465 33.4009 -2.9834Q34.0186 -3.45215 35.2441 -3.45215L36.5039 -3.45215L36.5039 -3.54004Q36.5039 -4.16016 36.0962 -4.49951Q35.6885 -4.83887 34.9512 -4.83887Q34.4824 -4.83887 34.0381 -4.72656Q33.5938 -4.61426 33.1836 -4.38965L33.1836 -5.21973Q33.6768 -5.41016 34.1406 -5.50537Q34.6045 -5.60059 35.0439 -5.60059Q36.2305 -5.60059 36.8164 -4.98535Q37.4023 -4.37012 37.4023 -3.12012ZM42.4219 -4.62891Q42.2705 -4.7168 42.0923 -4.7583Q41.9141 -4.7998 41.6992 -4.7998Q40.9375 -4.7998 40.5298 -4.3042Q40.1221 -3.80859 40.1221 -2.88086L40.1221 0L39.2188 0L39.2188 -5.46875L40.1221 -5.46875L40.1221 -4.61914Q40.4053 -5.11719 40.8594 -5.35889Q41.3135 -5.60059 41.9629 -5.60059Q42.0557 -5.60059 42.168 -5.58838Q42.2803 -5.57617 42.417 -5.55176L42.4219 -4.62891ZM43.3643 -5.46875L44.2627 -5.46875L44.2627 0L43.3643 0L43.3643 -5.46875ZM43.3643 -7.59766L44.2627 -7.59766L44.2627 -6.45996L43.3643 -6.45996L43.3643 -7.59766ZM48.6279 -2.74902Q47.5391 -2.74902 47.1191 -2.5Q46.6992 -2.25098 46.6992 -1.65039Q46.6992 -1.17187 47.0142 -0.891113Q47.3291 -0.610352 47.8711 -0.610352Q48.6182 -0.610352 49.0698 -1.14014Q49.5215 -1.66992 49.5215 -2.54883L49.5215 -2.74902L48.6279 -2.74902ZM50.4199 -3.12012L50.4199 0L49.5215 0L49.5215 -0.830078Q49.2139 -0.332031 48.7549 -0.0952148Q48.2959 0.141602 47.6318 0.141602Q46.792 0.141602 46.2964 -0.32959Q45.8008 -0.800781 45.8008 -1.5918Q45.8008 -2.51465 46.4185 -2.9834Q47.0361 -3.45215 48.2617 -3.45215L49.5215 -3.45215L49.5215 -3.54004Q49.5215 -4.16016 49.1138 -4.49951Q48.7061 -4.83887 47.9688 -4.83887Q47.5 -4.83887 47.0557 -4.72656Q46.6113 -4.61426 46.2012 -4.38965L46.2012 -5.21973Q46.6943 -5.41016 47.1582 -5.50537Q47.6221 -5.60059 48.0615 -5.60059Q49.248 -5.60059 49.834 -4.98535Q50.4199 -4.37012 50.4199 -3.12012ZM53.1592 -7.02148L53.1592 -5.46875L55.0098 -5.46875L55.0098 -4.77051L53.1592 -4.77051L53.1592 -1.80176Q53.1592 -1.13281 53.3423 -0.942383Q53.5254 -0.751953 54.0869 -0.751953L55.0098 -0.751953L55.0098 0L54.0869 0Q53.0469 0 52.6514 -0.388184Q52.2559 -0.776367 52.2559 -1.80176L52.2559 -4.77051L51.5967 -4.77051L51.5967 -5.46875L52.2559 -5.46875L52.2559 -7.02148L53.1592 -7.02148Z" fill="#262626" transform="translate(874,483.1291666666667) translate(-55.2490234375,0)" />
<path d="M0.869141 -7.29004L1.86035 -7.29004L1.86035 -2.86133Q1.86035 -1.68945 2.28516 -1.17432Q2.70996 -0.65918 3.66211 -0.65918Q4.60938 -0.65918 5.03418 -1.17432Q5.45898 -1.68945 5.45898 -2.86133L5.45898 -7.29004L6.4502 -7.29004L6.4502 -2.73926Q6.4502 -1.31348 5.74463 -0.585938Q5.03906 0.141602 3.66211 0.141602Q2.28027 0.141602 1.57471 -0.585938Q0.869141 -1.31348 0.869141 -2.73926L0.869141 -7.29004ZM8.30078 -7.29004L9.62891 -7.29004L12.8613 -1.19141L12.8613 -7.29004L13.8184 -7.29004L13.8184 0L12.4902 0L9.25781 -6.09863L9.25781 0L8.30078 0L8.30078 -7.29004ZM15.7813 -7.29004L20.3906 -7.29004L20.3906 -6.45996L16.7676 -6.45996L16.7676 -4.30176L20.2393 -4.30176L20.2393 -3.47168L16.7676 -3.47168L16.7676 -0.830078L20.4785 -0.830078L20.4785 0L15.7813 0L15.7813 -7.29004ZM23.0859 -6.47949L23.0859 -3.74023L24.3262 -3.74023Q25.0146 -3.74023 25.3906 -4.09668Q25.7666 -4.45312 25.7666 -5.1123Q25.7666 -5.7666 25.3906 -6.12305Q25.0146 -6.47949 24.3262 -6.47949L23.0859 -6.47949ZM22.0996 -7.29004L24.3262 -7.29004Q25.5518 -7.29004 26.1792 -6.73584Q26.8066 -6.18164 26.8066 -5.1123Q26.8066 -4.0332 26.1792 -3.48145Q25.5518 -2.92969 24.3262 -2.92969L23.0859 -2.92969L23.0859 0L22.0996 0L22.0996 -7.29004Z" fill="#262626" transform="translate(874,433.16041666666666) translate(-27.1484375,0)" />
<path d="M0.332031 -7.29004L1.32813 -7.29004L2.86133 -1.12793L4.38965 -7.29004L5.49805 -7.29004L7.03125 -1.12793L8.55957 -7.29004L9.56055 -7.29004L7.72949 0L6.48926 0L4.95117 -6.32813L3.39844 0L2.1582 0L0.332031 -7.29004ZM10.8691 -7.29004L15.0586 -7.29004L15.0586 -6.45996L11.8555 -6.45996L11.8555 -4.31152L14.7461 -4.31152L14.7461 -3.48145L11.8555 -3.48145L11.8555 0L10.8691 0L10.8691 -7.29004ZM17.6074 -6.47949L17.6074 -3.74023L18.8477 -3.74023Q19.5361 -3.74023 19.9121 -4.09668Q20.2881 -4.45312 20.2881 -5.1123Q20.2881 -5.7666 19.9121 -6.12305Q19.5361 -6.47949 18.8477 -6.47949L17.6074 -6.47949ZM16.6211 -7.29004L18.8477 -7.29004Q20.0732 -7.29004 20.7007 -6.73584Q21.3281 -6.18164 21.3281 -5.1123Q21.3281 -4.0332 20.7007 -3.48145Q20.0732 -2.92969 18.8477 -2.92969L17.6074 -2.92969L17.6074 0L16.6211 0L16.6211 -7.29004Z" fill="#262626" transform="translate(874,384.6125) translate(-21.669921875,0)" />
</svg>
