<svg xmlns="http://www.w3.org/2000/svg" viewBox="0 0 1000 560" width="1000" height="560" style="width:100%;height:auto" role="img" aria-labelledby="chart-title">
<title id="chart-title">Sankey — UN expense categories → agencies</title>
<rect x="0" y="0" width="1000" height="560" fill="#FFFFFF" />
<text x="500" y="24.099999999999998" font-family="DejaVu Sans, sans-serif" font-size="17.88888888888889" text-anchor="middle" font-weight="bold" fill="#262626">Sankey — UN expense categories → agencies</text>
<rect x="125" y="67" width="775" height="431" fill="#FFFFFF" />
<defs><linearGradient id="grad-0" gradientUnits="userSpaceOnUse" x1="147" y1="75.52499999999998" x2="878" y2="67"><stop offset="0" stop-color="#4472C4" stop-opacity="0.4" /><stop offset="1" stop-color="#2B4CBA" stop-opacity="0.4" /></linearGradient></defs>
<path d="M 147 75.52499999999998 C 512.5 75.52499999999998 512.5 67 878 67 L 878 159.35416666666666 C 512.5 159.35416666666666 512.5 167.87916666666666 147 167.87916666666666 Z " fill="url(#grad-0)" data-sankey-link-source="0" data-sankey-link-target="5" />
<defs><linearGradient id="grad-1" gradientUnits="userSpaceOnUse" x1="147" y1="185.87916666666666" x2="878" y2="159.35416666666666"><stop offset="0" stop-color="#70AD47" stop-opacity="0.4" /><stop offset="1" stop-color="#2B4CBA" stop-opacity="0.4" /></linearGradient></defs>
<path d="M 147 185.87916666666666 C 512.5 185.87916666666666 512.5 159.35416666666666 878 159.35416666666666 L 878 176.40416666666667 C 512.5 176.40416666666667 512.5 202.92916666666667 147 202.92916666666667 Z " fill="url(#grad-1)" data-sankey-link-source="1" data-sankey-link-target="5" />
<defs><linearGradient id="grad-2" gradientUnits="userSpaceOnUse" x1="147" y1="202.92916666666667" x2="878" y2="194.40416666666667"><stop offset="0" stop-color="#70AD47" stop-opacity="0.4" /><stop offset="1" stop-color="#5B9E3F" stop-opacity="0.4" /></linearGradient></defs>
<path d="M 147 202.92916666666667 C 512.5 202.92916666666667 512.5 194.40416666666667 878 194.40416666666667 L 878 265.4458333333333 C 512.5 265.4458333333333 512.5 273.9708333333333 147 273.9708333333333 Z " fill="url(#grad-2)" data-sankey-link-source="1" data-sankey-link-target="6" />
<defs><linearGradient id="grad-3" gradientUnits="userSpaceOnUse" x1="147" y1="298.9385752688172" x2="878" y2="291.9708333333333"><stop offset="0" stop-color="#ED7D31" stop-opacity="0.4" /><stop offset="1" stop-color="#C96420" stop-opacity="0.4" /></linearGradient></defs>
<path d="M 147 298.9385752688172 C 512.5 298.9385752688172 512.5 291.9708333333333 878 291.9708333333333 L 878 345.9625 C 512.5 345.9625 512.5 352.9302419354839 147 352.9302419354839 Z " fill="url(#grad-3)" data-sankey-link-source="2" data-sankey-link-target="7" />
<defs><linearGradient id="grad-4" gradientUnits="userSpaceOnUse" x1="147" y1="352.9302419354839" x2="878" y2="363.9625"><stop offset="0" stop-color="#ED7D31" stop-opacity="0.4" /><stop offset="1" stop-color="#D14A50" stop-opacity="0.4" /></linearGradient></defs>
<path d="M 147 352.9302419354839 C 512.5 352.9302419354839 512.5 363.9625 878 363.9625 L 878 398.0625 C 512.5 398.0625 512.5 387.0302419354839 147 387.0302419354839 Z " fill="url(#grad-4)" data-sankey-link-source="2" data-sankey-link-target="10" />
<defs><linearGradient id="grad-5" gradientUnits="userSpaceOnUse" x1="147" y1="405.03024193548384" x2="878" y2="265.4458333333333"><stop offset="0" stop-color="#2A9D8F" stop-opacity="0.4" /><stop offset="1" stop-color="#5B9E3F" stop-opacity="0.4" /></linearGradient></defs>
<path d="M 147 405.03024193548384 C 512.5 405.03024193548384 512.5 265.4458333333333 878 265.4458333333333 L 878 273.9708333333333 C 512.5 273.9708333333333 512.5 413.5552419354838 147 413.5552419354838 Z " fill="url(#grad-5)" data-sankey-link-source="4" data-sankey-link-target="6" />
<defs><linearGradient id="grad-6" gradientUnits="userSpaceOnUse" x1="147" y1="413.5552419354838" x2="878" y2="416.0625"><stop offset="0" stop-color="#2A9D8F" stop-opacity="0.4" /><stop offset="1" stop-color="#1C7A70" stop-opacity="0.4" /></linearGradient></defs>
<path d="M 147 413.5552419354838 C 512.5 413.5552419354838 512.5 416.0625 878 416.0625 L 878 443.05833333333334 C 512.5 443.05833333333334 512.5 440.55107526881716 147 440.55107526881716 Z " fill="url(#grad-6)" data-sankey-link-source="4" data-sankey-link-target="9" />
<defs><linearGradient id="grad-7" gradientUnits="userSpaceOnUse" x1="147" y1="461.0583333333333" x2="878" y2="461.05833333333334"><stop offset="0" stop-color="#A5A5A5" stop-opacity="0.4" /><stop offset="1" stop-color="#7F7F7F" stop-opacity="0.4" /></linearGradient></defs>
<path d="M 147 461.0583333333333 C 512.5 461.0583333333333 512.5 461.05833333333334 878 461.05833333333334 L 878 498 C 512.5 498 512.5 497.99999999999994 147 497.99999999999994 Z " fill="url(#grad-7)" data-sankey-link-source="3" data-sankey-link-target="8" />
<rect x="125" y="75.52499999999998" width="22" height="92.35416666666667" fill="#4472C4" data-sankey-node-id="0" />
<rect x="125" y="185.87916666666666" width="22" height="88.09166666666667" fill="#70AD47" data-sankey-node-id="1" />
<rect x="125" y="298.9385752688172" width="22" height="88.09166666666665" fill="#ED7D31" data-sankey-node-id="2" />
<rect x="125" y="461.0583333333333" width="22" height="36.94166666666667" fill="#A5A5A5" data-sankey-node-id="3" />
<rect x="125" y="405.03024193548384" width="22" height="35.520833333333336" fill="#2A9D8F" data-sankey-node-id="4" />
<rect x="878" y="67" width="22" height="109.40416666666667" fill="#2B4CBA" data-sankey-node-id="5" />
<rect x="878" y="194.40416666666667" width="22" height="79.56666666666666" fill="#5B9E3F" data-sankey-node-id="6" />
<rect x="878" y="291.9708333333333" width="22" height="53.99166666666667" fill="#C96420" data-sankey-node-id="7" />
<rect x="878" y="461.05833333333334" width="22" height="36.94166666666667" fill="#7F7F7F" data-sankey-node-id="8" />
<rect x="878" y="416.0625" width="22" height="26.995833333333334" fill="#1C7A70" data-sankey-node-id="9" />
<rect x="878" y="363.9625" width="22" height="34.1" fill="#D14A50" data-sankey-node-id="10" />
<text x="151" y="125.30208333333331" font-family="DejaVu Sans, sans-serif" font-size="10" text-anchor="start" fill="#262626">Peacekeeping</text>
<text x="151" y="233.525" font-family="DejaVu Sans, sans-serif" font-size="10" text-anchor="start" fill="#262626">Dev. Assistance</text>
<text x="151" y="346.5844086021506" font-family="DejaVu Sans, sans-serif" font-size="10" text-anchor="start" fill="#262626">Humanitarian</text>
<text x="151" y="483.12916666666666" font-family="DejaVu Sans, sans-serif" font-size="10" text-anchor="start" fill="#262626">Administration</text>
<text x="151" y="426.39065860215055" font-family="DejaVu Sans, sans-serif" font-size="10" text-anchor="start" fill="#262626">Climate</text>
<text x="874" y="125.30208333333333" font-family="DejaVu Sans, sans-serif" font-size="10" text-anchor="end" fill="#262626">DPO</text>
<text x="874" y="237.7875" font-family="DejaVu Sans, sans-serif" font-size="10" text-anchor="end" fill="#262626">UNDP</text>
<text x="874" y="322.56666666666666" font-family="DejaVu Sans, sans-serif" font-size="10" text-anchor="end" fill="#262626">UNHCR</text>
<text x="874" y="483.1291666666667" font-family="DejaVu Sans, sans-serif" font-size="10" text-anchor="end" fill="#262626">Secretariat</text>
<text x="874" y="433.16041666666666" font-family="DejaVu Sans, sans-serif" font-size="10" text-anchor="end" fill="#262626">UNEP</text>
<text x="874" y="384.6125" font-family="DejaVu Sans, sans-serif" font-size="10" text-anchor="end" fill="#262626">WFP</text>
</svg>
