<svg xmlns="http://www.w3.org/2000/svg" viewBox="0 0 1000 600" width="1000" height="600" style="width:100%;height:auto" role="img" aria-labelledby="chart-title">
<title id="chart-title">Sankey — Process industry product distribution (hover a node to isolate)</title>
<rect x="0" y="0" width="1000" height="600" fill="#FFFFFF" />
<text x="500" y="24.099999999999998" font-family="DejaVu Sans, sans-serif" font-size="17.88888888888889" text-anchor="middle" font-weight="bold" fill="#262626">Sankey — Process industry product distribution (hover a node to isolate)</text>
<rect x="125" y="72" width="775" height="462" fill="#FFFFFF" />
<g class="series" data-series-index="0">
<defs><linearGradient id="grad-0" gradientUnits="userSpaceOnUse" x1="524.5" y1="72.00000000000003" x2="688.25" y2="86.00000000000006"><stop offset="0" stop-color="#F4A261" stop-opacity="0.4" /><stop offset="1" stop-color="#8D99AE" stop-opacity="0.4" /></linearGradient></defs>
<path d="M 524.5 72.00000000000003 C 606.375 72.00000000000003 606.375 86.00000000000006 688.25 86.00000000000006 L 688.25 194.50000000000006 C 606.375 194.50000000000006 606.375 180.50000000000003 524.5 180.50000000000003 Z " fill="url(#grad-0)" data-sankey-link-source="4" data-sankey-link-target="7" />
<defs><linearGradient id="grad-1" gradientUnits="userSpaceOnUse" x1="524.5" y1="180.50000000000003" x2="688.25" y2="317.00000000000006"><stop offset="0" stop-color="#F4A261" stop-opacity="0.4" /><stop offset="1" stop-color="#2B2D42" stop-opacity="0.4" /></linearGradient></defs>
<path d="M 524.5 180.50000000000003 C 606.375 180.50000000000003 606.375 317.00000000000006 688.25 317.00000000000006 L 688.25 403.80000000000007 C 606.375 403.80000000000007 606.375 267.3 524.5 267.3 Z " fill="url(#grad-1)" data-sankey-link-source="4" data-sankey-link-target="8" />
<defs><linearGradient id="grad-2" gradientUnits="userSpaceOnUse" x1="336.75" y1="85.99999999999997" x2="500.5" y2="72.00000000000003"><stop offset="0" stop-color="#1F77B4" stop-opacity="0.4" /><stop offset="1" stop-color="#F4A261" stop-opacity="0.4" /></linearGradient></defs>
<path d="M 336.75 85.99999999999997 C 418.625 85.99999999999997 418.625 72.00000000000003 500.5 72.00000000000003 L 500.5 223.9 C 418.625 223.9 418.625 237.89999999999998 336.75 237.89999999999998 Z " fill="url(#grad-2)" data-sankey-link-source="2" data-sankey-link-target="4" />
<defs><linearGradient id="grad-3" gradientUnits="userSpaceOnUse" x1="149" y1="85.99999999999997" x2="312.75" y2="85.99999999999997"><stop offset="0" stop-color="#6B8E23" stop-opacity="0.4" /><stop offset="1" stop-color="#1F77B4" stop-opacity="0.4" /></linearGradient></defs>
<path d="M 149 85.99999999999997 C 230.875 85.99999999999997 230.875 85.99999999999997 312.75 85.99999999999997 L 312.75 303 C 230.875 303 230.875 303 149 303 Z " fill="url(#grad-3)" data-sankey-link-source="0" data-sankey-link-target="2" />
<defs><linearGradient id="grad-4" gradientUnits="userSpaceOnUse" x1="336.75" y1="237.89999999999998" x2="500.5" y2="281.3"><stop offset="0" stop-color="#1F77B4" stop-opacity="0.4" /><stop offset="1" stop-color="#E76F51" stop-opacity="0.4" /></linearGradient></defs>
<path d="M 336.75 237.89999999999998 C 418.625 237.89999999999998 418.625 281.3 500.5 281.3 L 500.5 389.8 C 418.625 389.8 418.625 346.4 336.75 346.4 Z " fill="url(#grad-4)" data-sankey-link-source="2" data-sankey-link-target="5" />
<defs><linearGradient id="grad-5" gradientUnits="userSpaceOnUse" x1="149" y1="303" x2="312.75" y2="403.79999999999995"><stop offset="0" stop-color="#6B8E23" stop-opacity="0.4" /><stop offset="1" stop-color="#2E86AB" stop-opacity="0.4" /></linearGradient></defs>
<path d="M 149 303 C 230.875 303 230.875 403.79999999999995 312.75 403.79999999999995 L 312.75 447.19999999999993 C 230.875 447.19999999999993 230.875 346.4 149 346.4 Z " fill="url(#grad-5)" data-sankey-link-source="0" data-sankey-link-target="3" />
<defs><linearGradient id="grad-6" gradientUnits="userSpaceOnUse" x1="336.75" y1="346.4" x2="500.5" y2="447.20000000000005"><stop offset="0" stop-color="#1F77B4" stop-opacity="0.4" /><stop offset="1" stop-color="#2A9D8F" stop-opacity="0.4" /></linearGradient></defs>
<path d="M 336.75 346.4 C 418.625 346.4 418.625 447.20000000000005 500.5 447.20000000000005 L 500.5 490.6 C 418.625 490.6 418.625 389.79999999999995 336.75 389.79999999999995 Z " fill="url(#grad-6)" data-sankey-link-source="2" data-sankey-link-target="6" />
<defs><linearGradient id="grad-7" gradientUnits="userSpaceOnUse" x1="712.25" y1="86.00000000000006" x2="876" y2="72.00000000000011"><stop offset="0" stop-color="#8D99AE" stop-opacity="0.4" /><stop offset="1" stop-color="#EF476F" stop-opacity="0.4" /></linearGradient></defs>
<path d="M 712.25 86.00000000000006 C 794.125 86.00000000000006 794.125 72.00000000000011 876 72.00000000000011 L 876 180.5000000000001 C 794.125 180.5000000000001 794.125 194.50000000000006 712.25 194.50000000000006 Z " fill="url(#grad-7)" data-sankey-link-source="7" data-sankey-link-target="9" />
<defs><linearGradient id="grad-8" gradientUnits="userSpaceOnUse" x1="712.25" y1="194.50000000000006" x2="876" y2="281.30000000000007"><stop offset="0" stop-color="#8D99AE" stop-opacity="0.4" /><stop offset="1" stop-color="#FFD166" stop-opacity="0.4" /></linearGradient></defs>
<path d="M 712.25 194.50000000000006 C 794.125 194.50000000000006 794.125 281.30000000000007 876 281.30000000000007 L 876 346.4000000000001 C 794.125 346.4000000000001 794.125 259.6 712.25 259.6 Z " fill="url(#grad-8)" data-sankey-link-source="7" data-sankey-link-target="11" />
<defs><linearGradient id="grad-9" gradientUnits="userSpaceOnUse" x1="712.25" y1="259.6" x2="876" y2="447.20000000000005"><stop offset="0" stop-color="#8D99AE" stop-opacity="0.4" /><stop offset="1" stop-color="#06A0A7" stop-opacity="0.4" /></linearGradient></defs>
<path d="M 712.25 259.6 C 794.125 259.6 794.125 447.20000000000005 876 447.20000000000005 L 876 490.6 C 794.125 490.6 794.125 303 712.25 303 Z " fill="url(#grad-9)" data-sankey-link-source="7" data-sankey-link-target="10" />
<defs><linearGradient id="grad-10" gradientUnits="userSpaceOnUse" x1="524.5" y1="281.3" x2="688.25" y2="194.50000000000006"><stop offset="0" stop-color="#E76F51" stop-opacity="0.4" /><stop offset="1" stop-color="#8D99AE" stop-opacity="0.4" /></linearGradient></defs>
<path d="M 524.5 281.3 C 606.375 281.3 606.375 194.50000000000006 688.25 194.50000000000006 L 688.25 259.6 C 606.375 259.6 606.375 346.4 524.5 346.4 Z " fill="url(#grad-10)" data-sankey-link-source="5" data-sankey-link-target="7" />
<defs><linearGradient id="grad-11" gradientUnits="userSpaceOnUse" x1="524.5" y1="346.4" x2="688.25" y2="403.80000000000007"><stop offset="0" stop-color="#E76F51" stop-opacity="0.4" /><stop offset="1" stop-color="#2B2D42" stop-opacity="0.4" /></linearGradient></defs>
<path d="M 524.5 346.4 C 606.375 346.4 606.375 403.80000000000007 688.25 403.80000000000007 L 688.25 490.6000000000001 C 606.375 490.6000000000001 606.375 433.2 524.5 433.2 Z " fill="url(#grad-11)" data-sankey-link-source="5" data-sankey-link-target="8" />
<defs><linearGradient id="grad-12" gradientUnits="userSpaceOnUse" x1="712.25" y1="317.00000000000006" x2="876" y2="180.5000000000001"><stop offset="0" stop-color="#2B2D42" stop-opacity="0.4" /><stop offset="1" stop-color="#EF476F" stop-opacity="0.4" /></linearGradient></defs>
<path d="M 712.25 317.00000000000006 C 794.125 317.00000000000006 794.125 180.5000000000001 876 180.5000000000001 L 876 267.30000000000007 C 794.125 267.30000000000007 794.125 403.80000000000007 712.25 403.80000000000007 Z " fill="url(#grad-12)" data-sankey-link-source="8" data-sankey-link-target="9" />
<defs><linearGradient id="grad-13" gradientUnits="userSpaceOnUse" x1="712.25" y1="403.80000000000007" x2="876" y2="346.4000000000001"><stop offset="0" stop-color="#2B2D42" stop-opacity="0.4" /><stop offset="1" stop-color="#FFD166" stop-opacity="0.4" /></linearGradient></defs>
<path d="M 712.25 403.80000000000007 C 794.125 403.80000000000007 794.125 346.4000000000001 876 346.4000000000001 L 876 433.2000000000001 C 794.125 433.2000000000001 794.125 490.6000000000001 712.25 490.6000000000001 Z " fill="url(#grad-13)" data-sankey-link-source="8" data-sankey-link-target="11" />
<defs><linearGradient id="grad-14" gradientUnits="userSpaceOnUse" x1="712.25" y1="490.6000000000001" x2="876" y2="490.6"><stop offset="0" stop-color="#2B2D42" stop-opacity="0.4" /><stop offset="1" stop-color="#06A0A7" stop-opacity="0.4" /></linearGradient></defs>
<path d="M 712.25 490.6000000000001 C 794.125 490.6000000000001 794.125 490.6 876 490.6 L 876 534 C 794.125 534 794.125 534.0000000000001 712.25 534.0000000000001 Z " fill="url(#grad-14)" data-sankey-link-source="8" data-sankey-link-target="10" />
<defs><linearGradient id="grad-15" gradientUnits="userSpaceOnUse" x1="149" y1="360.4" x2="312.75" y2="303"><stop offset="0" stop-color="#556B2F" stop-opacity="0.4" /><stop offset="1" stop-color="#1F77B4" stop-opacity="0.4" /></linearGradient></defs>
<path d="M 149 360.4 C 230.875 360.4 230.875 303 312.75 303 L 312.75 389.8 C 230.875 389.8 230.875 447.2 149 447.2 Z " fill="url(#grad-15)" data-sankey-link-source="1" data-sankey-link-target="2" />
<defs><linearGradient id="grad-16" gradientUnits="userSpaceOnUse" x1="149" y1="447.2" x2="312.75" y2="447.19999999999993"><stop offset="0" stop-color="#556B2F" stop-opacity="0.4" /><stop offset="1" stop-color="#2E86AB" stop-opacity="0.4" /></linearGradient></defs>
<path d="M 149 447.2 C 230.875 447.2 230.875 447.19999999999993 312.75 447.19999999999993 L 312.75 533.9999999999999 C 230.875 533.9999999999999 230.875 534 149 534 Z " fill="url(#grad-16)" data-sankey-link-source="1" data-sankey-link-target="3" />
<defs><linearGradient id="grad-17" gradientUnits="userSpaceOnUse" x1="336.75" y1="403.79999999999995" x2="500.5" y2="223.9"><stop offset="0" stop-color="#2E86AB" stop-opacity="0.4" /><stop offset="1" stop-color="#F4A261" stop-opacity="0.4" /></linearGradient></defs>
<path d="M 336.75 403.79999999999995 C 418.625 403.79999999999995 418.625 223.9 500.5 223.9 L 500.5 267.3 C 418.625 267.3 418.625 447.19999999999993 336.75 447.19999999999993 Z " fill="url(#grad-17)" data-sankey-link-source="3" data-sankey-link-target="4" />
<defs><linearGradient id="grad-18" gradientUnits="userSpaceOnUse" x1="336.75" y1="447.19999999999993" x2="500.5" y2="389.8"><stop offset="0" stop-color="#2E86AB" stop-opacity="0.4" /><stop offset="1" stop-color="#E76F51" stop-opacity="0.4" /></linearGradient></defs>
<path d="M 336.75 447.19999999999993 C 418.625 447.19999999999993 418.625 389.8 500.5 389.8 L 500.5 433.2 C 418.625 433.2 418.625 490.5999999999999 336.75 490.5999999999999 Z " fill="url(#grad-18)" data-sankey-link-source="3" data-sankey-link-target="5" />
<defs><linearGradient id="grad-19" gradientUnits="userSpaceOnUse" x1="336.75" y1="490.5999999999999" x2="500.5" y2="490.6"><stop offset="0" stop-color="#2E86AB" stop-opacity="0.4" /><stop offset="1" stop-color="#2A9D8F" stop-opacity="0.4" /></linearGradient></defs>
<path d="M 336.75 490.5999999999999 C 418.625 490.5999999999999 418.625 490.6 500.5 490.6 L 500.5 534 C 418.625 534 418.625 533.9999999999999 336.75 533.9999999999999 Z " fill="url(#grad-19)" data-sankey-link-source="3" data-sankey-link-target="6" />
<defs><linearGradient id="grad-20" gradientUnits="userSpaceOnUse" x1="524.5" y1="447.20000000000005" x2="688.25" y2="259.6"><stop offset="0" stop-color="#2A9D8F" stop-opacity="0.4" /><stop offset="1" stop-color="#8D99AE" stop-opacity="0.4" /></linearGradient></defs>
<path d="M 524.5 447.20000000000005 C 606.375 447.20000000000005 606.375 259.6 688.25 259.6 L 688.25 303 C 606.375 303 606.375 490.6 524.5 490.6 Z " fill="url(#grad-20)" data-sankey-link-source="6" data-sankey-link-target="7" />
<defs><linearGradient id="grad-21" gradientUnits="userSpaceOnUse" x1="524.5" y1="490.6" x2="688.25" y2="490.6000000000001"><stop offset="0" stop-color="#2A9D8F" stop-opacity="0.4" /><stop offset="1" stop-color="#2B2D42" stop-opacity="0.4" /></linearGradient></defs>
<path d="M 524.5 490.6 C 606.375 490.6 606.375 490.6000000000001 688.25 490.6000000000001 L 688.25 534.0000000000001 C 606.375 534.0000000000001 606.375 534 524.5 534 Z " fill="url(#grad-21)" data-sankey-link-source="6" data-sankey-link-target="8" />
<rect x="125" y="85.99999999999997" width="24" height="260.4" fill="#6B8E23" data-sankey-node-id="0" />
<rect x="125" y="360.4" width="24" height="173.6" fill="#556B2F" data-sankey-node-id="1" />
<rect x="312.75" y="85.99999999999997" width="24" height="303.8" fill="#1F77B4" data-sankey-node-id="2" />
<rect x="312.75" y="403.79999999999995" width="24" height="130.2" fill="#2E86AB" data-sankey-node-id="3" />
<rect x="500.5" y="72.00000000000003" width="24" height="195.29999999999998" fill="#F4A261" data-sankey-node-id="4" />
<rect x="500.5" y="281.3" width="24" height="151.9" fill="#E76F51" data-sankey-node-id="5" />
<rect x="500.5" y="447.20000000000005" width="24" height="86.8" fill="#2A9D8F" data-sankey-node-id="6" />
<rect x="688.25" y="86.00000000000006" width="24" height="217" fill="#8D99AE" data-sankey-node-id="7" />
<rect x="688.25" y="317.00000000000006" width="24" height="217" fill="#2B2D42" data-sankey-node-id="8" />
<rect x="876" y="72.00000000000011" width="24" height="195.29999999999998" fill="#EF476F" data-sankey-node-id="9" />
<rect x="876" y="447.20000000000005" width="24" height="86.8" fill="#06A0A7" data-sankey-node-id="10" />
<rect x="876" y="281.30000000000007" width="24" height="151.9" fill="#FFD166" data-sankey-node-id="11" />
<text x="153" y="219.79999999999995" font-family="DejaVu Sans, sans-serif" font-size="10" text-anchor="start" fill="#262626">Crude A</text>
<text x="153" y="230.59999999999997" font-family="DejaVu Sans, sans-serif" font-size="8" text-anchor="start" fill="#262626">120 kt</text>
<text x="153" y="450.8" font-family="DejaVu Sans, sans-serif" font-size="10" text-anchor="start" fill="#262626">Crude B</text>
<text x="153" y="461.6" font-family="DejaVu Sans, sans-serif" font-size="8" text-anchor="start" fill="#262626">80 kt</text>
<text x="340.75" y="241.49999999999997" font-family="DejaVu Sans, sans-serif" font-size="10" text-anchor="start" fill="#262626">Distillation</text>
<text x="340.75" y="252.29999999999998" font-family="DejaVu Sans, sans-serif" font-size="8" text-anchor="start" fill="#262626">140 kt</text>
<text x="340.75" y="472.5" font-family="DejaVu Sans, sans-serif" font-size="10" text-anchor="start" fill="#262626">Cracking</text>
<text x="340.75" y="483.3" font-family="DejaVu Sans, sans-serif" font-size="8" text-anchor="start" fill="#262626">60 kt</text>
<text x="528.5" y="173.25000000000003" font-family="DejaVu Sans, sans-serif" font-size="10" text-anchor="start" fill="#262626">Gasoline</text>
<text x="528.5" y="184.05000000000004" font-family="DejaVu Sans, sans-serif" font-size="8" text-anchor="start" fill="#262626">90 kt</text>
<text x="528.5" y="360.85" font-family="DejaVu Sans, sans-serif" font-size="10" text-anchor="start" fill="#262626">Diesel</text>
<text x="528.5" y="371.65000000000003" font-family="DejaVu Sans, sans-serif" font-size="8" text-anchor="start" fill="#262626">70 kt</text>
<text x="528.5" y="494.20000000000005" font-family="DejaVu Sans, sans-serif" font-size="10" text-anchor="start" fill="#262626">Jet Fuel</text>
<text x="528.5" y="505.00000000000006" font-family="DejaVu Sans, sans-serif" font-size="8" text-anchor="start" fill="#262626">40 kt</text>
<text x="716.25" y="198.10000000000005" font-family="DejaVu Sans, sans-serif" font-size="10" text-anchor="start" fill="#262626">North Hub</text>
<text x="716.25" y="208.90000000000006" font-family="DejaVu Sans, sans-serif" font-size="8" text-anchor="start" fill="#262626">100 kt</text>
<text x="716.25" y="429.1000000000001" font-family="DejaVu Sans, sans-serif" font-size="10" text-anchor="start" fill="#262626">South Hub</text>
<text x="716.25" y="439.9000000000001" font-family="DejaVu Sans, sans-serif" font-size="8" text-anchor="start" fill="#262626">100 kt</text>
<text x="872" y="173.25000000000009" font-family="DejaVu Sans, sans-serif" font-size="10" text-anchor="end" fill="#262626">Automotive</text>
<text x="872" y="184.0500000000001" font-family="DejaVu Sans, sans-serif" font-size="8" text-anchor="end" fill="#262626">90 kt</text>
<text x="872" y="494.20000000000005" font-family="DejaVu Sans, sans-serif" font-size="10" text-anchor="end" fill="#262626">Aviation</text>
<text x="872" y="505.00000000000006" font-family="DejaVu Sans, sans-serif" font-size="8" text-anchor="end" fill="#262626">40 kt</text>
<text x="872" y="360.8500000000001" font-family="DejaVu Sans, sans-serif" font-size="10" text-anchor="end" fill="#262626">Industrial</text>
<text x="872" y="371.6500000000001" font-family="DejaVu Sans, sans-serif" font-size="8" text-anchor="end" fill="#262626">70 kt</text>
</g>
<script type="text/ecmascript"><![CDATA[
(function() {
    // Per-chart isolation (Phase 2): scope queries to THIS script's owning <svg>.
    var svg = (document.currentScript && document.currentScript.parentNode) || document;
    var nodes = svg.querySelectorAll('[data-sankey-node-id]');
    if (nodes.length === 0) return;
    var links = svg.querySelectorAll('[data-sankey-link-source]');
    if (links.length === 0) return;

    // Build source→links and target→links adjacency tables for O(1) traversal.
    var outgoing = {}, incoming = {};
    links.forEach(function(link) {
        var src = link.getAttribute('data-sankey-link-source');
        var tgt = link.getAttribute('data-sankey-link-target');
        (outgoing[src] = outgoing[src] || []).push({ link: link, tgt: tgt });
        (incoming[tgt] = incoming[tgt] || []).push({ link: link, src: src });
        // Store base opacity once so restore is idempotent.
        if (!link.hasAttribute('data-base-opacity')) {
            var current = link.getAttribute('fill-opacity');
            link.setAttribute('data-base-opacity', current !== null ? current : '1');
        }
    });
    nodes.forEach(function(node) {
        if (!node.hasAttribute('data-base-opacity')) {
            node.setAttribute('data-base-opacity', '1');
        }
    });

    function reachable(startId) {
        var reachableLinks = new Set();
        var reachableNodes = new Set();
        reachableNodes.add(startId);
        // Downstream BFS.
        var frontier = [startId];
        while (frontier.length) {
            var cur = frontier.shift();
            (outgoing[cur] || []).forEach(function(edge) {
                reachableLinks.add(edge.link);
                if (!reachableNodes.has(edge.tgt)) {
                    reachableNodes.add(edge.tgt);
                    frontier.push(edge.tgt);
                }
            });
        }
        // Upstream BFS.
        frontier = [startId];
        while (frontier.length) {
            var cur = frontier.shift();
            (incoming[cur] || []).forEach(function(edge) {
                reachableLinks.add(edge.link);
                if (!reachableNodes.has(edge.src)) {
                    reachableNodes.add(edge.src);
                    frontier.push(edge.src);
                }
            });
        }
        return { links: reachableLinks, nodes: reachableNodes };
    }

    function highlight(nodeId) {
        var r = reachable(nodeId);
        links.forEach(function(link) {
            var inSet = r.links.has(link);
            link.setAttribute('fill-opacity', inSet ? link.getAttribute('data-base-opacity') : '0.08');
        });
        nodes.forEach(function(node) {
            var inSet = r.nodes.has(node.getAttribute('data-sankey-node-id'));
            node.setAttribute('fill-opacity', inSet ? node.getAttribute('data-base-opacity') : '0.25');
        });
    }

    function restore() {
        links.forEach(function(link) {
            link.setAttribute('fill-opacity', link.getAttribute('data-base-opacity'));
        });
        nodes.forEach(function(node) {
            node.setAttribute('fill-opacity', node.getAttribute('data-base-opacity'));
        });
    }

    nodes.forEach(function(node) {
        node.style.cursor = 'pointer';
        node.setAttribute('tabindex', '0');
        var id = node.getAttribute('data-sankey-node-id');
        node.addEventListener('mouseenter', function() { highlight(id); });
        node.addEventListener('mouseleave', restore);
        node.addEventListener('focus', function() { highlight(id); });
        node.addEventListener('blur', restore);
    });
})();
]]></script>
</svg>
