<svg xmlns="http://www.w3.org/2000/svg" viewBox="0 0 1000 600" width="1000" height="600" style="width:100%;height:auto" role="img" aria-labelledby="chart-title">
<title id="chart-title">Sankey — Customer journey alluvial (4 timesteps)</title>
<rect x="0" y="0" width="1000" height="600" fill="#FFFFFF" />
<path d="M10.7176 -12.6305L10.7176 -9.87033Q9.64323 -10.3507 8.62126 -10.5953Q7.59928 -10.8399 6.69086 -10.8399Q5.48546 -10.8399 4.90896 -10.508Q4.33247 -10.1761 4.33247 -9.47727Q4.33247 -8.95318 4.72116 -8.66056Q5.10986 -8.36795 6.13184 -8.15831L7.56434 -7.87006Q9.73931 -7.43332 10.6565 -6.54237Q11.5736 -5.65142 11.5736 -4.00928Q11.5736 -1.85178 10.294 -0.799235Q9.01432 0.253309 6.38515 0.253309Q5.1448 0.253309 3.89573 0.0174696Q2.64665 -0.21837 1.39757 -0.681315L1.39757 -3.52013Q2.64665 -2.85628 3.81274 -2.51999Q4.97884 -2.1837 6.06196 -2.1837Q7.16254 -2.1837 7.74778 -2.55056Q8.33301 -2.91743 8.33301 -3.59874Q8.33301 -4.21018 7.93557 -4.5421Q7.53814 -4.87402 6.35021 -5.13607L5.04872 -5.42432Q3.09212 -5.84359 2.18807 -6.76074Q1.28402 -7.6779 1.28402 -9.23269Q1.28402 -11.1806 2.54183 -12.2287Q3.79964 -13.2769 6.15804 -13.2769Q7.23242 -13.2769 8.36795 -13.1153Q9.50347 -12.9537 10.7176 -12.6305ZM18.7711 -4.40234Q17.7928 -4.40234 17.2993 -4.07042Q16.8058 -3.7385 16.8058 -3.09212Q16.8058 -2.49816 17.2032 -2.16187Q17.6006 -1.82558 18.3082 -1.82558Q19.1904 -1.82558 19.7931 -2.45885Q20.3958 -3.09212 20.3958 -4.04422L20.3958 -4.40234L18.7711 -4.40234ZM23.549 -5.58154L23.549 0L20.3958 0L20.3958 -1.44998Q19.7669 -0.559028 18.9807 -0.152859Q18.1946 0.253309 17.0678 0.253309Q15.548 0.253309 14.6002 -0.633274Q13.6525 -1.51986 13.6525 -2.9349Q13.6525 -4.65565 14.8361 -5.45926Q16.0196 -6.26286 18.5527 -6.26286L20.3958 -6.26286L20.3958 -6.50743Q20.3958 -7.24989 19.8105 -7.59492Q19.2253 -7.93994 17.985 -7.93994Q16.9805 -7.93994 16.1157 -7.73904Q15.251 -7.53814 14.5085 -7.13634L14.5085 -9.52094Q15.513 -9.76552 16.5263 -9.89217Q17.5395 -10.0188 18.5527 -10.0188Q21.1994 -10.0188 22.3742 -8.97502Q23.549 -7.93121 23.549 -5.58154ZM36.2931 -5.95714L36.2931 0L33.1486 0L33.1486 -0.969564L33.1486 -4.55957Q33.1486 -5.82612 33.0918 -6.30653Q33.035 -6.78695 32.8953 -7.01405Q32.7119 -7.31977 32.3974 -7.4901Q32.083 -7.66043 31.6812 -7.66043Q30.7029 -7.66043 30.1438 -6.90487Q29.5848 -6.14931 29.5848 -4.81288L29.5848 0L26.4577 0L26.4577 -9.78299L29.5848 -9.78299L29.5848 -8.35048Q30.2923 -9.20649 31.0872 -9.61266Q31.8821 -10.0188 32.8429 -10.0188Q34.5374 -10.0188 35.4153 -8.97938Q36.2931 -7.93994 36.2931 -5.95714ZM39.1931 -13.5914L42.3201 -13.5914L42.3201 -6.19298L45.9189 -9.78299L49.5526 -9.78299L44.7746 -5.29329L49.9282 0L46.1373 0L42.3201 -4.07916L42.3201 0L39.1931 0L39.1931 -13.5914ZM60.8554 -4.9177L60.8554 -4.02675L53.5444 -4.02675Q53.6579 -2.92616 54.3392 -2.37587Q55.0206 -1.82558 56.2434 -1.82558Q57.2305 -1.82558 58.2655 -2.11819Q59.3006 -2.41081 60.3925 -3.00477L60.3925 -0.593967Q59.2831 -0.174696 58.1738 0.0393066Q57.0645 0.253309 55.9552 0.253309Q53.2998 0.253309 51.828 -1.09622Q50.3562 -2.44575 50.3562 -4.88276Q50.3562 -7.2761 51.8018 -8.64746Q53.2474 -10.0188 55.7805 -10.0188Q58.0865 -10.0188 59.4709 -8.62999Q60.8554 -7.24116 60.8554 -4.9177ZM57.641 -5.95714Q57.641 -6.84809 57.1213 -7.39402Q56.6016 -7.93994 55.763 -7.93994Q54.8546 -7.93994 54.2868 -7.42896Q53.7191 -6.91797 53.5793 -5.95714L57.641 -5.95714ZM61.9385 -9.78299L65.0656 -9.78299L67.6948 -3.14453L69.9309 -9.78299L73.0579 -9.78299L68.9438 0.92589Q68.3237 2.5593 67.4982 3.21004Q66.6728 3.86079 65.3189 3.86079L63.5108 3.86079L63.5108 1.80811L64.4891 1.80811Q65.284 1.80811 65.6465 1.5548Q66.0089 1.30149 66.2099 0.646376L66.2972 0.375597L61.9385 -9.78299ZM80.5699 -6.02702L96.5371 -6.02702L96.5371 -3.77344L80.5699 -3.77344L80.5699 -6.02702ZM115.71 -0.716254Q114.784 -0.23584 113.78 0.00873481Q112.775 0.253309 111.683 0.253309Q108.425 0.253309 106.521 -1.5679Q104.617 -3.38911 104.617 -6.50743Q104.617 -9.63449 106.521 -11.4557Q108.425 -13.2769 111.683 -13.2769Q112.775 -13.2769 113.78 -13.0323Q114.784 -12.7878 115.71 -12.3073L115.71 -9.60829Q114.775 -10.2459 113.867 -10.5429Q112.959 -10.8399 111.954 -10.8399Q110.155 -10.8399 109.124 -9.6869Q108.093 -8.53391 108.093 -6.50743Q108.093 -4.48969 109.124 -3.3367Q110.155 -2.1837 111.954 -2.1837Q112.959 -2.1837 113.867 -2.48069Q114.775 -2.77767 115.71 -3.41531L115.71 -0.716254ZM118.252 -3.80838L118.252 -9.78299L121.396 -9.78299L121.396 -8.80469Q121.396 -8.00982 121.388 -6.80878Q121.379 -5.60775 121.379 -5.20595Q121.379 -4.02675 121.44 -3.50703Q121.501 -2.9873 121.65 -2.75146Q121.842 -2.44575 122.152 -2.27979Q122.462 -2.11382 122.864 -2.11382Q123.842 -2.11382 124.401 -2.86502Q124.96 -3.61621 124.96 -4.95264L124.96 -9.78299L128.087 -9.78299L128.087 0L124.96 0L124.96 -1.41504Q124.253 -0.559028 123.462 -0.152859Q122.672 0.253309 121.72 0.253309Q120.025 0.253309 119.138 -0.786133Q118.252 -1.82558 118.252 -3.80838ZM138.735 -9.47727L138.735 -7.1014Q137.73 -7.52067 136.796 -7.73031Q135.861 -7.93994 135.031 -7.93994Q134.14 -7.93994 133.708 -7.7172Q133.276 -7.49447 133.276 -7.03152Q133.276 -6.65592 133.603 -6.45502Q133.931 -6.25412 134.778 -6.15804L135.328 -6.07943Q137.73 -5.77371 138.56 -5.07492Q139.39 -4.37614 139.39 -2.88249Q139.39 -1.31896 138.237 -0.532823Q137.084 0.253309 134.796 0.253309Q133.826 0.253309 132.791 0.10045Q131.756 -0.0524089 130.664 -0.358127L130.664 -2.734Q131.599 -2.27978 132.581 -2.05268Q133.564 -1.82557 134.577 -1.82558Q135.494 -1.82558 135.957 -2.07888Q136.42 -2.33219 136.42 -2.83008Q136.42 -3.24935 136.101 -3.45462Q135.783 -3.65989 134.831 -3.77344L134.28 -3.84332Q132.193 -4.10536 131.354 -4.81288Q130.516 -5.5204 130.516 -6.96164Q130.516 -8.51644 131.581 -9.26763Q132.647 -10.0188 134.848 -10.0188Q135.713 -10.0188 136.665 -9.8878Q137.617 -9.75678 138.735 -9.47727ZM145.155 -12.5607L145.155 -9.78299L148.378 -9.78299L148.378 -7.54688L145.155 -7.54688L145.155 -3.39784Q145.155 -2.71653 145.426 -2.47632Q145.697 -2.23611 146.5 -2.23611L148.107 -2.23611L148.107 0L145.426 0Q143.574 0 142.801 -0.773031Q142.028 -1.54606 142.028 -3.39784L142.028 -7.54688L140.473 -7.54688L140.473 -9.78299L142.028 -9.78299L142.028 -12.5607L145.155 -12.5607ZM154.947 -7.78271Q153.907 -7.78271 153.361 -7.03589Q152.815 -6.28906 152.815 -4.88276Q152.815 -3.47645 153.361 -2.72963Q153.907 -1.9828 154.947 -1.9828Q155.969 -1.9828 156.51 -2.72963Q157.052 -3.47645 157.052 -4.88276Q157.052 -6.28906 156.51 -7.03589Q155.969 -7.78271 154.947 -7.78271ZM154.947 -10.0188Q157.471 -10.0188 158.891 -8.6562Q160.31 -7.29357 160.31 -4.88276Q160.31 -2.47195 158.891 -1.10932Q157.471 0.253309 154.947 0.253309Q152.414 0.253309 150.986 -1.10932Q149.557 -2.47195 149.557 -4.88276Q149.557 -7.29357 150.986 -8.6562Q152.414 -10.0188 154.947 -10.0188ZM171.648 -8.15831Q172.242 -9.06673 173.058 -9.54278Q173.875 -10.0188 174.853 -10.0188Q176.539 -10.0188 177.421 -8.97938Q178.304 -7.93994 178.304 -5.95714L178.304 0L175.159 0L175.159 -5.10113Q175.168 -5.21468 175.172 -5.33697Q175.177 -5.45926 175.177 -5.68636Q175.177 -6.7258 174.871 -7.19312Q174.565 -7.66043 173.884 -7.66043Q172.993 -7.66043 172.508 -6.9267Q172.023 -6.19298 172.006 -4.80414L172.006 0L168.861 0L168.861 -5.10113Q168.861 -6.7258 168.582 -7.19312Q168.302 -7.66043 167.586 -7.66043Q166.686 -7.66043 166.197 -6.92234Q165.708 -6.18424 165.708 -4.81288L165.708 0L162.564 0L162.564 -9.78299L165.708 -9.78299L165.708 -8.35048Q166.285 -9.18028 167.031 -9.59956Q167.778 -10.0188 168.678 -10.0188Q169.691 -10.0188 170.469 -9.52968Q171.246 -9.04053 171.648 -8.15831ZM190.987 -4.9177L190.987 -4.02675L183.676 -4.02675Q183.789 -2.92616 184.47 -2.37587Q185.152 -1.82558 186.375 -1.82558Q187.362 -1.82558 188.397 -2.11819Q189.432 -2.41081 190.524 -3.00477L190.524 -0.593967Q189.414 -0.174696 188.305 0.0393066Q187.196 0.253309 186.086 0.253309Q183.431 0.253309 181.959 -1.09622Q180.487 -2.44575 180.487 -4.88276Q180.487 -7.2761 181.933 -8.64746Q183.379 -10.0188 185.912 -10.0188Q188.218 -10.0188 189.602 -8.62999Q190.987 -7.24116 190.987 -4.9177ZM187.772 -5.95714Q187.772 -6.84809 187.252 -7.39402Q186.733 -7.93994 185.894 -7.93994Q184.986 -7.93994 184.418 -7.42896Q183.85 -6.91797 183.71 -5.95714L187.772 -5.95714ZM200.621 -7.11887Q200.211 -7.31103 199.804 -7.40275Q199.398 -7.49447 198.988 -7.49447Q197.782 -7.49447 197.132 -6.72144Q196.481 -5.94841 196.481 -4.50716L196.481 0L193.354 0L193.354 -9.78299L196.481 -9.78299L196.481 -8.17578Q197.083 -9.13661 197.865 -9.57772Q198.647 -10.0188 199.739 -10.0188Q199.896 -10.0188 200.08 -10.0057Q200.263 -9.99262 200.612 -9.94895L200.621 -7.11887ZM208.404 -9.78299L211.531 -9.78299L211.531 -0.174696Q211.531 1.79064 210.588 2.82571Q209.644 3.86079 207.854 3.86079L206.307 3.86079L206.307 1.80811L206.849 1.80811Q207.74 1.80811 208.072 1.4063Q208.404 1.0045 208.404 -0.174696L208.404 -9.78299ZM208.404 -13.5914L211.531 -13.5914L211.531 -11.0408L208.404 -11.0408L208.404 -13.5914ZM219.191 -7.78271Q218.152 -7.78271 217.606 -7.03589Q217.06 -6.28906 217.06 -4.88276Q217.06 -3.47645 217.606 -2.72963Q218.152 -1.9828 219.191 -1.9828Q220.213 -1.9828 220.755 -2.72963Q221.296 -3.47645 221.296 -4.88276Q221.296 -6.28906 220.755 -7.03589Q220.213 -7.78271 219.191 -7.78271ZM219.191 -10.0188Q221.716 -10.0188 223.135 -8.6562Q224.554 -7.29357 224.554 -4.88276Q224.554 -2.47195 223.135 -1.10932Q221.716 0.253309 219.191 0.253309Q216.658 0.253309 215.23 -1.10932Q213.802 -2.47195 213.802 -4.88276Q213.802 -7.29357 215.23 -8.6562Q216.658 -10.0188 219.191 -10.0188ZM226.721 -3.80838L226.721 -9.78299L229.865 -9.78299L229.865 -8.80469Q229.865 -8.00982 229.856 -6.80878Q229.848 -5.60775 229.848 -5.20595Q229.848 -4.02675 229.909 -3.50703Q229.97 -2.9873 230.119 -2.75146Q230.311 -2.44575 230.621 -2.27979Q230.931 -2.11382 231.333 -2.11382Q232.311 -2.11382 232.87 -2.86502Q233.429 -3.61621 233.429 -4.95264L233.429 -9.78299L236.556 -9.78299L236.556 0L233.429 0L233.429 -1.41504Q232.721 -0.559028 231.931 -0.152859Q231.141 0.253309 230.188 0.253309Q228.494 0.253309 227.607 -0.786133Q226.721 -1.82558 226.721 -3.80838ZM246.828 -7.11887Q246.418 -7.31103 246.012 -7.40275Q245.605 -7.49447 245.195 -7.49447Q243.989 -7.49447 243.339 -6.72144Q242.688 -5.94841 242.688 -4.50716L242.688 0L239.561 0L239.561 -9.78299L242.688 -9.78299L242.688 -8.17578Q243.291 -9.13661 244.072 -9.57772Q244.854 -10.0188 245.946 -10.0188Q246.103 -10.0188 246.287 -10.0057Q246.47 -9.99262 246.819 -9.94895L246.828 -7.11887ZM258.218 -5.95714L258.218 0L255.074 0L255.074 -0.969564L255.074 -4.55957Q255.074 -5.82612 255.017 -6.30653Q254.96 -6.78695 254.821 -7.01405Q254.637 -7.31977 254.323 -7.4901Q254.008 -7.66043 253.606 -7.66043Q252.628 -7.66043 252.069 -6.90487Q251.51 -6.14931 251.51 -4.81288L251.51 0L248.383 0L248.383 -9.78299L251.51 -9.78299L251.51 -8.35048Q252.218 -9.20649 253.012 -9.61266Q253.807 -10.0188 254.768 -10.0188Q256.463 -10.0188 257.341 -8.97938Q258.218 -7.93994 258.218 -5.95714ZM270.884 -4.9177L270.884 -4.02675L263.573 -4.02675Q263.686 -2.92616 264.368 -2.37587Q265.049 -1.82558 266.272 -1.82558Q267.259 -1.82558 268.294 -2.11819Q269.329 -2.41081 270.421 -3.00477L270.421 -0.593967Q269.312 -0.174696 268.202 0.0393066Q267.093 0.253309 265.984 0.253309Q263.328 0.253309 261.856 -1.09622Q260.385 -2.44575 260.385 -4.88276Q260.385 -7.2761 261.83 -8.64746Q263.276 -10.0188 265.809 -10.0188Q268.115 -10.0188 269.499 -8.62999Q270.884 -7.24116 270.884 -4.9177ZM267.669 -5.95714Q267.669 -6.84809 267.15 -7.39402Q266.63 -7.93994 265.791 -7.93994Q264.883 -7.93994 264.315 -7.42896Q263.748 -6.91797 263.608 -5.95714L267.669 -5.95714ZM271.967 -9.78299L275.094 -9.78299L277.723 -3.14453L279.959 -9.78299L283.086 -9.78299L278.972 0.92589Q278.352 2.5593 277.527 3.21004Q276.701 3.86079 275.347 3.86079L273.539 3.86079L273.539 1.80811L274.518 1.80811Q275.312 1.80811 275.675 1.5548Q276.037 1.30149 276.238 0.646376L276.326 0.375597L271.967 -9.78299ZM295.525 -4.40234Q294.546 -4.40234 294.053 -4.07042Q293.559 -3.7385 293.559 -3.09212Q293.559 -2.49816 293.957 -2.16187Q294.354 -1.82558 295.062 -1.82558Q295.944 -1.82558 296.547 -2.45885Q297.149 -3.09212 297.149 -4.04422L297.149 -4.40234L295.525 -4.40234ZM300.303 -5.58154L300.303 0L297.149 0L297.149 -1.44998Q296.521 -0.559028 295.734 -0.152859Q294.948 0.253309 293.821 0.253309Q292.302 0.253309 291.354 -0.633274Q290.406 -1.51986 290.406 -2.9349Q290.406 -4.65565 291.59 -5.45926Q292.773 -6.26286 295.306 -6.26286L297.149 -6.26286L297.149 -6.50743Q297.149 -7.24989 296.564 -7.59492Q295.979 -7.93994 294.739 -7.93994Q293.734 -7.93994 292.869 -7.73904Q292.005 -7.53814 291.262 -7.13634L291.262 -9.52094Q292.267 -9.76552 293.28 -9.89217Q294.293 -10.0188 295.306 -10.0188Q297.953 -10.0188 299.128 -8.97502Q300.303 -7.93121 300.303 -5.58154ZM303.211 -13.5914L306.338 -13.5914L306.338 0L303.211 0L303.211 -13.5914ZM309.343 -13.5914L312.47 -13.5914L312.47 0L309.343 0L309.343 -13.5914ZM315.37 -3.80838L315.37 -9.78299L318.515 -9.78299L318.515 -8.80469Q318.515 -8.00982 318.506 -6.80878Q318.497 -5.60775 318.497 -5.20595Q318.497 -4.02675 318.558 -3.50703Q318.62 -2.9873 318.768 -2.75146Q318.96 -2.44575 319.27 -2.27979Q319.58 -2.11382 319.982 -2.11382Q320.961 -2.11382 321.52 -2.86502Q322.079 -3.61621 322.079 -4.95264L322.079 -9.78299L325.206 -9.78299L325.206 0L322.079 0L322.079 -1.41504Q321.371 -0.559028 320.581 -0.152859Q319.79 0.253309 318.838 0.253309Q317.143 0.253309 316.257 -0.786133Q315.37 -1.82558 315.37 -3.80838ZM326.979 -9.78299L330.106 -9.78299L332.543 -3.02224L334.971 -9.78299L338.107 -9.78299L334.255 0L330.822 0L326.979 -9.78299ZM339.871 -9.78299L342.998 -9.78299L342.998 0L339.871 0L339.871 -9.78299ZM339.871 -13.5914L342.998 -13.5914L342.998 -11.0408L339.871 -11.0408L339.871 -13.5914ZM350.388 -4.40234Q349.41 -4.40234 348.916 -4.07042Q348.423 -3.7385 348.423 -3.09212Q348.423 -2.49816 348.82 -2.16187Q349.218 -1.82558 349.925 -1.82558Q350.807 -1.82558 351.41 -2.45885Q352.013 -3.09212 352.013 -4.04422L352.013 -4.40234L350.388 -4.40234ZM355.166 -5.58154L355.166 0L352.013 0L352.013 -1.44998Q351.384 -0.559028 350.598 -0.152859Q349.812 0.253309 348.685 0.253309Q347.165 0.253309 346.217 -0.633274Q345.27 -1.51986 345.27 -2.9349Q345.27 -4.65565 346.453 -5.45926Q347.637 -6.26286 350.17 -6.26286L352.013 -6.26286L352.013 -6.50743Q352.013 -7.24989 351.428 -7.59492Q350.842 -7.93994 349.602 -7.93994Q348.597 -7.93994 347.733 -7.73904Q346.868 -7.53814 346.126 -7.13634L346.126 -9.52094Q347.13 -9.76552 348.143 -9.89217Q349.156 -10.0188 350.17 -10.0188Q352.816 -10.0188 353.991 -8.97502Q355.166 -7.93121 355.166 -5.58154ZM358.075 -13.5914L361.202 -13.5914L361.202 0L358.075 0L358.075 -13.5914ZM375.675 2.3584L373.081 2.3584Q371.745 0.200901 371.107 -1.74259Q370.469 -3.68609 370.469 -5.59901Q370.469 -7.51194 371.111 -9.4729Q371.753 -11.4339 373.081 -13.5739L375.675 -13.5739Q374.557 -11.5037 373.998 -9.52531Q373.439 -7.54687 373.439 -5.61648Q373.439 -3.68609 373.994 -1.70329Q374.549 0.279514 375.675 2.3584ZM383.694 -10.2721L380.008 -4.81288L383.694 -4.81288L383.694 -10.2721ZM383.135 -13.0411L386.873 -13.0411L386.873 -4.81288L388.734 -4.81288L388.734 -2.37587L386.873 -2.37587L386.873 0L383.694 0L383.694 -2.37587L377.911 -2.37587L377.911 -5.25836L383.135 -13.0411ZM400.701 -12.5607L400.701 -9.78299L403.924 -9.78299L403.924 -7.54688L400.701 -7.54688L400.701 -3.39784Q400.701 -2.71653 400.971 -2.47632Q401.242 -2.23611 402.046 -2.23611L403.653 -2.23611L403.653 0L400.971 0Q399.12 0 398.347 -0.773031Q397.574 -1.54606 397.574 -3.39784L397.574 -7.54688L396.019 -7.54688L396.019 -9.78299L397.574 -9.78299L397.574 -12.5607L400.701 -12.5607ZM405.837 -9.78299L408.964 -9.78299L408.964 0L405.837 0L405.837 -9.78299ZM405.837 -13.5914L408.964 -13.5914L408.964 -11.0408L405.837 -11.0408L405.837 -13.5914ZM421.035 -8.15831Q421.629 -9.06673 422.446 -9.54278Q423.263 -10.0188 424.241 -10.0188Q425.927 -10.0188 426.809 -8.97938Q427.691 -7.93994 427.691 -5.95714L427.691 0L424.547 0L424.547 -5.10113Q424.555 -5.21468 424.56 -5.33697Q424.564 -5.45926 424.564 -5.68636Q424.564 -6.7258 424.258 -7.19312Q423.953 -7.66043 423.271 -7.66043Q422.38 -7.66043 421.896 -6.9267Q421.411 -6.19298 421.393 -4.80414L421.393 0L418.249 0L418.249 -5.10113Q418.249 -6.7258 417.969 -7.19312Q417.69 -7.66043 416.974 -7.66043Q416.074 -7.66043 415.585 -6.92234Q415.096 -6.18424 415.096 -4.81288L415.096 0L411.951 0L411.951 -9.78299L415.096 -9.78299L415.096 -8.35048Q415.672 -9.18028 416.419 -9.59956Q417.166 -10.0188 418.065 -10.0188Q419.079 -10.0188 419.856 -9.52968Q420.633 -9.04053 421.035 -8.15831ZM440.374 -4.9177L440.374 -4.02675L433.063 -4.02675Q433.177 -2.92616 433.858 -2.37587Q434.539 -1.82558 435.762 -1.82558Q436.749 -1.82558 437.784 -2.11819Q438.819 -2.41081 439.911 -3.00477L439.911 -0.593967Q438.802 -0.174696 437.693 0.0393066Q436.583 0.253309 435.474 0.253309Q432.818 0.253309 431.347 -1.09622Q429.875 -2.44575 429.875 -4.88276Q429.875 -7.2761 431.32 -8.64746Q432.766 -10.0188 435.299 -10.0188Q437.605 -10.0188 438.99 -8.62999Q440.374 -7.24116 440.374 -4.9177ZM437.16 -5.95714Q437.16 -6.84809 436.64 -7.39402Q436.12 -7.93994 435.282 -7.93994Q434.373 -7.93994 433.806 -7.42896Q433.238 -6.91797 433.098 -5.95714L437.16 -5.95714ZM450.384 -9.47727L450.384 -7.1014Q449.38 -7.52067 448.445 -7.73031Q447.51 -7.93994 446.681 -7.93994Q445.79 -7.93994 445.357 -7.7172Q444.925 -7.49447 444.925 -7.03152Q444.925 -6.65592 445.253 -6.45502Q445.58 -6.25412 446.427 -6.15804L446.978 -6.07943Q449.38 -5.77371 450.21 -5.07492Q451.039 -4.37614 451.039 -2.88249Q451.039 -1.31896 449.886 -0.532823Q448.733 0.253309 446.445 0.253309Q445.475 0.253309 444.44 0.10045Q443.405 -0.0524089 442.313 -0.358127L442.313 -2.734Q443.248 -2.27978 444.231 -2.05268Q445.213 -1.82557 446.226 -1.82558Q447.144 -1.82558 447.607 -2.07888Q448.069 -2.33219 448.069 -2.83008Q448.069 -3.24935 447.751 -3.45462Q447.432 -3.65989 446.48 -3.77344L445.929 -3.84332Q443.842 -4.10536 443.003 -4.81288Q442.165 -5.5204 442.165 -6.96164Q442.165 -8.51644 443.23 -9.26763Q444.296 -10.0188 446.497 -10.0188Q447.362 -10.0188 448.314 -9.8878Q449.266 -9.75678 450.384 -9.47727ZM456.804 -12.5607L456.804 -9.78299L460.027 -9.78299L460.027 -7.54688L456.804 -7.54688L456.804 -3.39784Q456.804 -2.71653 457.075 -2.47632Q457.346 -2.23611 458.149 -2.23611L459.757 -2.23611L459.757 0L457.075 0Q455.223 0 454.45 -0.773031Q453.677 -1.54606 453.677 -3.39784L453.677 -7.54688L452.122 -7.54688L452.122 -9.78299L453.677 -9.78299L453.677 -12.5607L456.804 -12.5607ZM471.706 -4.9177L471.706 -4.02675L464.395 -4.02675Q464.508 -2.92616 465.19 -2.37587Q465.871 -1.82558 467.094 -1.82558Q468.081 -1.82558 469.116 -2.11819Q470.151 -2.41081 471.243 -3.00477L471.243 -0.593967Q470.134 -0.174696 469.024 0.0393066Q467.915 0.253309 466.806 0.253309Q464.15 0.253309 462.678 -1.09622Q461.207 -2.44575 461.207 -4.88276Q461.207 -7.2761 462.652 -8.64746Q464.098 -10.0188 466.631 -10.0188Q468.937 -10.0188 470.321 -8.62999Q471.706 -7.24116 471.706 -4.9177ZM468.491 -5.95714Q468.491 -6.84809 467.972 -7.39402Q467.452 -7.93994 466.613 -7.93994Q465.705 -7.93994 465.137 -7.42896Q464.57 -6.91797 464.43 -5.95714L468.491 -5.95714ZM477.2 -1.41504L477.2 3.72103L474.073 3.72103L474.073 -9.78299L477.2 -9.78299L477.2 -8.35048Q477.846 -9.20649 478.633 -9.61266Q479.419 -10.0188 480.441 -10.0188Q482.249 -10.0188 483.411 -8.58195Q484.572 -7.14507 484.572 -4.88276Q484.572 -2.62044 483.411 -1.18357Q482.249 0.253309 480.441 0.253309Q479.419 0.253309 478.633 -0.152859Q477.846 -0.559028 477.2 -1.41504ZM479.279 -7.74778Q478.274 -7.74778 477.737 -7.00968Q477.2 -6.27159 477.2 -4.88276Q477.2 -3.49392 477.737 -2.75583Q478.274 -2.01774 479.279 -2.01774Q480.283 -2.01774 480.812 -2.75146Q481.34 -3.48519 481.34 -4.88276Q481.34 -6.28033 480.812 -7.01405Q480.283 -7.74778 479.279 -7.74778ZM494.521 -9.47727L494.521 -7.1014Q493.517 -7.52067 492.582 -7.73031Q491.647 -7.93994 490.818 -7.93994Q489.927 -7.93994 489.494 -7.7172Q489.062 -7.49447 489.062 -7.03152Q489.062 -6.65592 489.39 -6.45502Q489.717 -6.25412 490.564 -6.15804L491.115 -6.07943Q493.517 -5.77371 494.347 -5.07492Q495.176 -4.37614 495.176 -2.88249Q495.176 -1.31896 494.023 -0.532823Q492.87 0.253309 490.582 0.253309Q489.612 0.253309 488.577 0.10045Q487.542 -0.0524089 486.45 -0.358127L486.45 -2.734Q487.385 -2.27978 488.368 -2.05268Q489.35 -1.82557 490.363 -1.82558Q491.281 -1.82558 491.744 -2.07888Q492.207 -2.33219 492.207 -2.83008Q492.207 -3.24935 491.888 -3.45462Q491.569 -3.65989 490.617 -3.77344L490.066 -3.84332Q487.979 -4.10536 487.14 -4.81288Q486.302 -5.5204 486.302 -6.96164Q486.302 -8.51644 487.367 -9.26763Q488.433 -10.0188 490.634 -10.0188Q491.499 -10.0188 492.451 -9.8878Q493.403 -9.75678 494.521 -9.47727ZM497.456 2.3584Q498.574 0.279514 499.133 -1.70329Q499.692 -3.68609 499.692 -5.61648Q499.692 -7.54687 499.133 -9.52531Q498.574 -11.5037 497.456 -13.5739L500.05 -13.5739Q501.378 -11.4339 502.02 -9.4729Q502.662 -7.51194 502.662 -5.59901Q502.662 -3.68609 502.024 -1.74259Q501.387 0.200901 500.05 2.3584L497.456 2.3584Z" fill="#262626" transform="translate(500,24.099999999999998) translate(-252.09970092773438,0)" />
<rect x="125" y="72" width="775" height="462" fill="#FFFFFF" />
<defs><linearGradient id="grad-0" gradientUnits="userSpaceOnUse" x1="396.66666666666663" y1="71.99999999999997" x2="628.3333333333333" y2="72.00000000000006"><stop offset="0" stop-color="#1F77B4" stop-opacity="0.4" /><stop offset="1" stop-color="#D62728" stop-opacity="0.4" /></linearGradient></defs>
<path d="M 396.66666666666663 71.99999999999997 C 512.5 71.99999999999997 512.5 72.00000000000006 628.3333333333333 72.00000000000006 L 628.3333333333333 115.80000000000005 C 512.5 115.80000000000005 512.5 115.79999999999997 396.66666666666663 115.79999999999997 Z " fill="url(#grad-0)" data-sankey-link-source="3" data-sankey-link-target="4" />
<defs><linearGradient id="grad-1" gradientUnits="userSpaceOnUse" x1="396.66666666666663" y1="115.79999999999997" x2="628.3333333333333" y2="224.16000000000003"><stop offset="0" stop-color="#1F77B4" stop-opacity="0.4" /><stop offset="1" stop-color="#1F77B4" stop-opacity="0.4" /></linearGradient></defs>
<path d="M 396.66666666666663 115.79999999999997 C 512.5 115.79999999999997 512.5 224.16000000000003 628.3333333333333 224.16000000000003 L 628.3333333333333 311.76 C 512.5 311.76 512.5 203.39999999999998 396.66666666666663 203.39999999999998 Z " fill="url(#grad-1)" data-sankey-link-source="3" data-sankey-link-target="6" />
<defs><linearGradient id="grad-2" gradientUnits="userSpaceOnUse" x1="648.3333333333333" y1="72.00000000000006" x2="880" y2="72.00000000000003"><stop offset="0" stop-color="#D62728" stop-opacity="0.4" /><stop offset="1" stop-color="#9467BD" stop-opacity="0.4" /></linearGradient></defs>
<path d="M 648.3333333333333 72.00000000000006 C 764.1666666666666 72.00000000000006 764.1666666666666 72.00000000000003 880 72.00000000000003 L 880 177.12000000000003 C 764.1666666666666 177.12000000000003 764.1666666666666 177.12000000000006 648.3333333333333 177.12000000000006 Z " fill="url(#grad-2)" data-sankey-link-source="4" data-sankey-link-target="7" />
<defs><linearGradient id="grad-3" gradientUnits="userSpaceOnUse" x1="648.3333333333333" y1="177.12000000000006" x2="880" y2="442.02"><stop offset="0" stop-color="#D62728" stop-opacity="0.4" /><stop offset="1" stop-color="#D62728" stop-opacity="0.4" /></linearGradient></defs>
<path d="M 648.3333333333333 177.12000000000006 C 764.1666666666666 177.12000000000006 764.1666666666666 442.02 880 442.02 L 880 477.06 C 764.1666666666666 477.06 764.1666666666666 212.16000000000005 648.3333333333333 212.16000000000005 Z " fill="url(#grad-3)" data-sankey-link-source="4" data-sankey-link-target="8" />
<defs><linearGradient id="grad-4" gradientUnits="userSpaceOnUse" x1="145" y1="83.40000000000401" x2="376.66666666666663" y2="71.99999999999997"><stop offset="0" stop-color="#1F77B4" stop-opacity="0.4" /><stop offset="1" stop-color="#1F77B4" stop-opacity="0.4" /></linearGradient></defs>
<path d="M 145 83.40000000000401 C 260.8333333333333 83.40000000000401 260.8333333333333 71.99999999999997 376.66666666666663 71.99999999999997 L 376.66666666666663 203.39999999999998 C 260.8333333333333 203.39999999999998 260.8333333333333 214.80000000000402 145 214.80000000000402 Z " fill="url(#grad-4)" data-sankey-link-source="0" data-sankey-link-target="3" />
<defs><linearGradient id="grad-5" gradientUnits="userSpaceOnUse" x1="145" y1="214.80000000000402" x2="376.66666666666663" y2="215.39999999999998"><stop offset="0" stop-color="#1F77B4" stop-opacity="0.4" /><stop offset="1" stop-color="#FF7F0E" stop-opacity="0.4" /></linearGradient></defs>
<path d="M 145 214.80000000000402 C 260.8333333333333 214.80000000000402 260.8333333333333 215.39999999999998 376.66666666666663 215.39999999999998 L 376.66666666666663 412.5 C 260.8333333333333 412.5 260.8333333333333 411.900000000004 145 411.900000000004 Z " fill="url(#grad-5)" data-sankey-link-source="0" data-sankey-link-target="1" />
<defs><linearGradient id="grad-6" gradientUnits="userSpaceOnUse" x1="145" y1="411.900000000004" x2="376.66666666666663" y2="424.5"><stop offset="0" stop-color="#1F77B4" stop-opacity="0.4" /><stop offset="1" stop-color="#2CA02C" stop-opacity="0.4" /></linearGradient></defs>
<path d="M 145 411.900000000004 C 260.8333333333333 411.900000000004 260.8333333333333 424.5 376.66666666666663 424.5 L 376.66666666666663 534 C 260.8333333333333 534 260.8333333333333 521.400000000004 145 521.400000000004 Z " fill="url(#grad-6)" data-sankey-link-source="0" data-sankey-link-target="2" />
<defs><linearGradient id="grad-7" gradientUnits="userSpaceOnUse" x1="396.66666666666663" y1="215.39999999999998" x2="628.3333333333333" y2="115.80000000000005"><stop offset="0" stop-color="#FF7F0E" stop-opacity="0.4" /><stop offset="1" stop-color="#D62728" stop-opacity="0.4" /></linearGradient></defs>
<path d="M 396.66666666666663 215.39999999999998 C 512.5 215.39999999999998 512.5 115.80000000000005 628.3333333333333 115.80000000000005 L 628.3333333333333 212.16000000000005 C 512.5 212.16000000000005 512.5 311.76 396.66666666666663 311.76 Z " fill="url(#grad-7)" data-sankey-link-source="1" data-sankey-link-target="4" />
<defs><linearGradient id="grad-8" gradientUnits="userSpaceOnUse" x1="396.66666666666663" y1="311.76" x2="628.3333333333333" y2="311.76"><stop offset="0" stop-color="#FF7F0E" stop-opacity="0.4" /><stop offset="1" stop-color="#1F77B4" stop-opacity="0.4" /></linearGradient></defs>
<path d="M 396.66666666666663 311.76 C 512.5 311.76 512.5 311.76 628.3333333333333 311.76 L 628.3333333333333 346.8 C 512.5 346.8 512.5 346.8 396.66666666666663 346.8 Z " fill="url(#grad-8)" data-sankey-link-source="1" data-sankey-link-target="6" />
<defs><linearGradient id="grad-9" gradientUnits="userSpaceOnUse" x1="396.66666666666663" y1="346.79999999999995" x2="628.3333333333333" y2="415.74"><stop offset="0" stop-color="#FF7F0E" stop-opacity="0.4" /><stop offset="1" stop-color="#FF7F0E" stop-opacity="0.4" /></linearGradient></defs>
<path d="M 396.66666666666663 346.79999999999995 C 512.5 346.79999999999995 512.5 415.74 628.3333333333333 415.74 L 628.3333333333333 481.44 C 512.5 481.44 512.5 412.49999999999994 396.66666666666663 412.49999999999994 Z " fill="url(#grad-9)" data-sankey-link-source="1" data-sankey-link-target="5" />
<defs><linearGradient id="grad-10" gradientUnits="userSpaceOnUse" x1="648.3333333333333" y1="224.16000000000003" x2="880" y2="177.12000000000003"><stop offset="0" stop-color="#1F77B4" stop-opacity="0.4" /><stop offset="1" stop-color="#9467BD" stop-opacity="0.4" /></linearGradient></defs>
<path d="M 648.3333333333333 224.16000000000003 C 764.1666666666666 224.16000000000003 764.1666666666666 177.12000000000003 880 177.12000000000003 L 880 225.30000000000004 C 764.1666666666666 225.30000000000004 764.1666666666666 272.34000000000003 648.3333333333333 272.34000000000003 Z " fill="url(#grad-10)" data-sankey-link-source="6" data-sankey-link-target="7" />
<defs><linearGradient id="grad-11" gradientUnits="userSpaceOnUse" x1="648.3333333333333" y1="272.34000000000003" x2="880" y2="298.62"><stop offset="0" stop-color="#1F77B4" stop-opacity="0.4" /><stop offset="1" stop-color="#1F77B4" stop-opacity="0.4" /></linearGradient></defs>
<path d="M 648.3333333333333 272.34000000000003 C 764.1666666666666 272.34000000000003 764.1666666666666 298.62 880 298.62 L 880 430.02 C 764.1666666666666 430.02 764.1666666666666 403.74 648.3333333333333 403.74 Z " fill="url(#grad-11)" data-sankey-link-source="6" data-sankey-link-target="9" />
<defs><linearGradient id="grad-12" gradientUnits="userSpaceOnUse" x1="648.3333333333333" y1="415.74" x2="880" y2="225.30000000000004"><stop offset="0" stop-color="#FF7F0E" stop-opacity="0.4" /><stop offset="1" stop-color="#9467BD" stop-opacity="0.4" /></linearGradient></defs>
<path d="M 648.3333333333333 415.74 C 764.1666666666666 415.74 764.1666666666666 225.30000000000004 880 225.30000000000004 L 880 286.62000000000006 C 764.1666666666666 286.62000000000006 764.1666666666666 477.06 648.3333333333333 477.06 Z " fill="url(#grad-12)" data-sankey-link-source="5" data-sankey-link-target="7" />
<defs><linearGradient id="grad-13" gradientUnits="userSpaceOnUse" x1="648.3333333333333" y1="477.06" x2="880" y2="477.06"><stop offset="0" stop-color="#FF7F0E" stop-opacity="0.4" /><stop offset="1" stop-color="#D62728" stop-opacity="0.4" /></linearGradient></defs>
<path d="M 648.3333333333333 477.06 C 764.1666666666666 477.06 764.1666666666666 477.06 880 477.06 L 880 534 C 764.1666666666666 534 764.1666666666666 534 648.3333333333333 534 Z " fill="url(#grad-13)" data-sankey-link-source="5" data-sankey-link-target="8" />
<defs><linearGradient id="grad-14" gradientUnits="userSpaceOnUse" x1="396.66666666666663" y1="424.5" x2="628.3333333333333" y2="346.8"><stop offset="0" stop-color="#2CA02C" stop-opacity="0.4" /><stop offset="1" stop-color="#1F77B4" stop-opacity="0.4" /></linearGradient></defs>
<path d="M 396.66666666666663 424.5 C 512.5 424.5 512.5 346.8 628.3333333333333 346.8 L 628.3333333333333 403.74 C 512.5 403.74 512.5 481.44 396.66666666666663 481.44 Z " fill="url(#grad-14)" data-sankey-link-source="2" data-sankey-link-target="6" />
<defs><linearGradient id="grad-15" gradientUnits="userSpaceOnUse" x1="396.66666666666663" y1="481.44" x2="628.3333333333333" y2="481.44"><stop offset="0" stop-color="#2CA02C" stop-opacity="0.4" /><stop offset="1" stop-color="#FF7F0E" stop-opacity="0.4" /></linearGradient></defs>
<path d="M 396.66666666666663 481.44 C 512.5 481.44 512.5 481.44 628.3333333333333 481.44 L 628.3333333333333 534 C 512.5 534 512.5 534 396.66666666666663 534 Z " fill="url(#grad-15)" data-sankey-link-source="2" data-sankey-link-target="5" />
<rect x="125" y="83.40000000000401" width="20" height="438" fill="#1F77B4" data-sankey-node-id="0" />
<rect x="376.66666666666663" y="215.39999999999998" width="20" height="197.1" fill="#FF7F0E" data-sankey-node-id="1" />
<rect x="376.66666666666663" y="424.5" width="20" height="109.5" fill="#2CA02C" data-sankey-node-id="2" />
<rect x="376.66666666666663" y="71.99999999999997" width="20" height="131.4" fill="#1F77B4" data-sankey-node-id="3" />
<rect x="628.3333333333333" y="72.00000000000006" width="20" height="140.16" fill="#D62728" data-sankey-node-id="4" />
<rect x="628.3333333333333" y="415.74" width="20" height="118.25999999999999" fill="#FF7F0E" data-sankey-node-id="5" />
<rect x="628.3333333333333" y="224.16000000000003" width="20" height="179.57999999999998" fill="#1F77B4" data-sankey-node-id="6" />
<rect x="880" y="72.00000000000003" width="20" height="214.62" fill="#9467BD" data-sankey-node-id="7" />
<rect x="880" y="442.02" width="20" height="91.98" fill="#D62728" data-sankey-node-id="8" />
<rect x="880" y="298.62" width="20" height="131.4" fill="#1F77B4" data-sankey-node-id="9" />
<path d="M0.981445 -7.29004L1.96777 -7.29004L1.96777 -4.30176L5.55176 -4.30176L5.55176 -7.29004L6.53809 -7.29004L6.53809 0L5.55176 0L5.55176 -3.47168L1.96777 -3.47168L1.96777 0L0.981445 0L0.981445 -7.29004ZM10.5811 -4.83887Q9.8584 -4.83887 9.43848 -4.2749Q9.01855 -3.71094 9.01855 -2.72949Q9.01855 -1.74805 9.43604 -1.18408Q9.85352 -0.620117 10.5811 -0.620117Q11.2988 -0.620117 11.7188 -1.18652Q12.1387 -1.75293 12.1387 -2.72949Q12.1387 -3.70117 11.7188 -4.27002Q11.2988 -4.83887 10.5811 -4.83887ZM10.5811 -5.60059Q11.7529 -5.60059 12.4219 -4.83887Q13.0908 -4.07715 13.0908 -2.72949Q13.0908 -1.38672 12.4219 -0.622559Q11.7529 0.141602 10.5811 0.141602Q9.4043 0.141602 8.73779 -0.622559Q8.07129 -1.38672 8.07129 -2.72949Q8.07129 -4.07715 8.73779 -4.83887Q9.4043 -5.60059 10.5811 -5.60059ZM18.8379 -4.41895Q19.1748 -5.02441 19.6436 -5.3125Q20.1123 -5.60059 20.7471 -5.60059Q21.6016 -5.60059 22.0654 -5.00244Q22.5293 -4.4043 22.5293 -3.30078L22.5293 0L21.626 0L21.626 -3.27148Q21.626 -4.05762 21.3477 -4.43848Q21.0693 -4.81934 20.498 -4.81934Q19.7998 -4.81934 19.3945 -4.35547Q18.9893 -3.8916 18.9893 -3.09082L18.9893 0L18.0859 0L18.0859 -3.27148Q18.0859 -4.0625 17.8076 -4.44092Q17.5293 -4.81934 16.9482 -4.81934Q16.2598 -4.81934 15.8545 -4.35303Q15.4492 -3.88672 15.4492 -3.09082L15.4492 0L14.5459 0L14.5459 -5.46875L15.4492 -5.46875L15.4492 -4.61914Q15.7568 -5.12207 16.1865 -5.36133Q16.6162 -5.60059 17.207 -5.60059Q17.8027 -5.60059 18.2202 -5.29785Q18.6377 -4.99512 18.8379 -4.41895ZM28.999 -2.95898L28.999 -2.51953L24.8682 -2.51953Q24.9268 -1.5918 25.4272 -1.10596Q25.9277 -0.620117 26.8213 -0.620117Q27.3389 -0.620117 27.8247 -0.74707Q28.3105 -0.874023 28.7891 -1.12793L28.7891 -0.27832Q28.3057 -0.0732422 27.7979 0.0341797Q27.29 0.141602 26.7676 0.141602Q25.459 0.141602 24.6948 -0.620117Q23.9307 -1.38184 23.9307 -2.68066Q23.9307 -4.02344 24.6558 -4.81201Q25.3809 -5.60059 26.6113 -5.60059Q27.7148 -5.60059 28.3569 -4.89014Q28.999 -4.17969 28.999 -2.95898ZM28.1006 -3.22266Q28.0908 -3.95996 27.688 -4.39941Q27.2852 -4.83887 26.6211 -4.83887Q25.8691 -4.83887 25.4175 -4.41406Q24.9658 -3.98926 24.8975 -3.21777L28.1006 -3.22266Z" fill="#262626" transform="translate(149,306.00000000000404)" />
<path d="M1.96777 -6.47949L1.96777 -3.74023L3.20801 -3.74023Q3.89648 -3.74023 4.27246 -4.09668Q4.64844 -4.45312 4.64844 -5.1123Q4.64844 -5.7666 4.27246 -6.12305Q3.89648 -6.47949 3.20801 -6.47949L1.96777 -6.47949ZM0.981445 -7.29004L3.20801 -7.29004Q4.43359 -7.29004 5.06104 -6.73584Q5.68848 -6.18164 5.68848 -5.1123Q5.68848 -4.0332 5.06104 -3.48145Q4.43359 -2.92969 3.20801 -2.92969L1.96777 -2.92969L1.96777 0L0.981445 0L0.981445 -7.29004ZM10.1416 -4.62891Q9.99023 -4.7168 9.81201 -4.7583Q9.63379 -4.7998 9.41895 -4.7998Q8.65723 -4.7998 8.24951 -4.3042Q7.8418 -3.80859 7.8418 -2.88086L7.8418 0L6.93848 0L6.93848 -5.46875L7.8418 -5.46875L7.8418 -4.61914Q8.125 -5.11719 8.5791 -5.35889Q9.0332 -5.60059 9.68262 -5.60059Q9.77539 -5.60059 9.8877 -5.58838Q10 -5.57617 10.1367 -5.55176L10.1416 -4.62891ZM13.2031 -4.83887Q12.4805 -4.83887 12.0605 -4.2749Q11.6406 -3.71094 11.6406 -2.72949Q11.6406 -1.74805 12.0581 -1.18408Q12.4756 -0.620117 13.2031 -0.620117Q13.9209 -0.620117 14.3408 -1.18652Q14.7607 -1.75293 14.7607 -2.72949Q14.7607 -3.70117 14.3408 -4.27002Q13.9209 -4.83887 13.2031 -4.83887ZM13.2031 -5.60059Q14.375 -5.60059 15.0439 -4.83887Q15.7129 -4.07715 15.7129 -2.72949Q15.7129 -1.38672 15.0439 -0.622559Q14.375 0.141602 13.2031 0.141602Q12.0264 0.141602 11.3599 -0.622559Q10.6934 -1.38672 10.6934 -2.72949Q10.6934 -4.07715 11.3599 -4.83887Q12.0264 -5.60059 13.2031 -5.60059ZM20.8008 -4.63867L20.8008 -7.59766L21.6992 -7.59766L21.6992 0L20.8008 0L20.8008 -0.820313Q20.5176 -0.332031 20.0854 -0.0952148Q19.6533 0.141602 19.0479 0.141602Q18.0566 0.141602 17.4341 -0.649414Q16.8115 -1.44043 16.8115 -2.72949Q16.8115 -4.01855 17.4341 -4.80957Q18.0566 -5.60059 19.0479 -5.60059Q19.6533 -5.60059 20.0854 -5.36377Q20.5176 -5.12695 20.8008 -4.63867ZM17.7393 -2.72949Q17.7393 -1.73828 18.147 -1.17432Q18.5547 -0.610352 19.2676 -0.610352Q19.9805 -0.610352 20.3906 -1.17432Q20.8008 -1.73828 20.8008 -2.72949Q20.8008 -3.7207 20.3906 -4.28467Q19.9805 -4.84863 19.2676 -4.84863Q18.5547 -4.84863 18.147 -4.28467Q17.7393 -3.7207 17.7393 -2.72949ZM23.457 -2.1582L23.457 -5.46875L24.3555 -5.46875L24.3555 -2.19238Q24.3555 -1.41602 24.6582 -1.02783Q24.9609 -0.639648 25.5664 -0.639648Q26.2939 -0.639648 26.7163 -1.10352Q27.1387 -1.56738 27.1387 -2.36816L27.1387 -5.46875L28.0371 -5.46875L28.0371 0L27.1387 0L27.1387 -0.839844Q26.8115 -0.341797 26.3794 -0.100098Q25.9473 0.141602 25.376 0.141602Q24.4336 0.141602 23.9453 -0.444336Q23.457 -1.03027 23.457 -2.1582ZM33.8232 -5.25879L33.8232 -4.41895Q33.4424 -4.62891 33.0591 -4.73389Q32.6758 -4.83887 32.2852 -4.83887Q31.4111 -4.83887 30.9277 -4.28467Q30.4443 -3.73047 30.4443 -2.72949Q30.4443 -1.72852 30.9277 -1.17432Q31.4111 -0.620117 32.2852 -0.620117Q32.6758 -0.620117 33.0591 -0.725098Q33.4424 -0.830078 33.8232 -1.04004L33.8232 -0.209961Q33.4473 -0.0341797 33.0444 0.0537109Q32.6416 0.141602 32.1875 0.141602Q30.9521 0.141602 30.2246 -0.634766Q29.4971 -1.41113 29.4971 -2.72949Q29.4971 -4.06738 30.2319 -4.83398Q30.9668 -5.60059 32.2461 -5.60059Q32.6611 -5.60059 33.0566 -5.51514Q33.4521 -5.42969 33.8232 -5.25879ZM36.2744 -7.02148L36.2744 -5.46875L38.125 -5.46875L38.125 -4.77051L36.2744 -4.77051L36.2744 -1.80176Q36.2744 -1.13281 36.4575 -0.942383Q36.6406 -0.751953 37.2021 -0.751953L38.125 -0.751953L38.125 0L37.2021 0Q36.1621 0 35.7666 -0.388184Q35.3711 -0.776367 35.3711 -1.80176L35.3711 -4.77051L34.7119 -4.77051L34.7119 -5.46875L35.3711 -5.46875L35.3711 -7.02148L36.2744 -7.02148Z" fill="#262626" transform="translate(400.66666666666663,317.55)" />
<path d="M6.44043 -6.72852L6.44043 -5.68848Q5.94238 -6.15234 5.37842 -6.38184Q4.81445 -6.61133 4.17969 -6.61133Q2.92969 -6.61133 2.26563 -5.84717Q1.60156 -5.08301 1.60156 -3.6377Q1.60156 -2.19727 2.26563 -1.43311Q2.92969 -0.668945 4.17969 -0.668945Q4.81445 -0.668945 5.37842 -0.898438Q5.94238 -1.12793 6.44043 -1.5918L6.44043 -0.561523Q5.92285 -0.209961 5.34424 -0.0341797Q4.76563 0.141602 4.12109 0.141602Q2.46582 0.141602 1.51367 -0.871582Q0.561523 -1.88477 0.561523 -3.6377Q0.561523 -5.39551 1.51367 -6.40869Q2.46582 -7.42187 4.12109 -7.42188Q4.77539 -7.42188 5.354 -7.24854Q5.93262 -7.07519 6.44043 -6.72852ZM10.4102 -2.74902Q9.32129 -2.74902 8.90137 -2.5Q8.48145 -2.25098 8.48145 -1.65039Q8.48145 -1.17187 8.79639 -0.891113Q9.11133 -0.610352 9.65332 -0.610352Q10.4004 -0.610352 10.8521 -1.14014Q11.3037 -1.66992 11.3037 -2.54883L11.3037 -2.74902L10.4102 -2.74902ZM12.2021 -3.12012L12.2021 0L11.3037 0L11.3037 -0.830078Q10.9961 -0.332031 10.5371 -0.0952148Q10.0781 0.141602 9.41406 0.141602Q8.57422 0.141602 8.07861 -0.32959Q7.58301 -0.800781 7.58301 -1.5918Q7.58301 -2.51465 8.20068 -2.9834Q8.81836 -3.45215 10.0439 -3.45215L11.3037 -3.45215L11.3037 -3.54004Q11.3037 -4.16016 10.896 -4.49951Q10.4883 -4.83887 9.75098 -4.83887Q9.28223 -4.83887 8.83789 -4.72656Q8.39355 -4.61426 7.9834 -4.38965L7.9834 -5.21973Q8.47656 -5.41016 8.94043 -5.50537Q9.4043 -5.60059 9.84375 -5.60059Q11.0303 -5.60059 11.6162 -4.98535Q12.2021 -4.37012 12.2021 -3.12012ZM14.9414 -7.02148L14.9414 -5.46875L16.792 -5.46875L16.792 -4.77051L14.9414 -4.77051L14.9414 -1.80176Q14.9414 -1.13281 15.1245 -0.942383Q15.3076 -0.751953 15.8691 -0.751953L16.792 -0.751953L16.792 0L15.8691 0Q14.8291 0 14.4336 -0.388184Q14.0381 -0.776367 14.0381 -1.80176L14.0381 -4.77051L13.3789 -4.77051L13.3789 -5.46875L14.0381 -5.46875L14.0381 -7.02148L14.9414 -7.02148ZM22.6514 -2.95898L22.6514 -2.51953L18.5205 -2.51953Q18.5791 -1.5918 19.0796 -1.10596Q19.5801 -0.620117 20.4736 -0.620117Q20.9912 -0.620117 21.4771 -0.74707Q21.9629 -0.874023 22.4414 -1.12793L22.4414 -0.27832Q21.958 -0.0732422 21.4502 0.0341797Q20.9424 0.141602 20.4199 0.141602Q19.1113 0.141602 18.3472 -0.620117Q17.583 -1.38184 17.583 -2.68066Q17.583 -4.02344 18.3081 -4.81201Q19.0332 -5.60059 20.2637 -5.60059Q21.3672 -5.60059 22.0093 -4.89014Q22.6514 -4.17969 22.6514 -2.95898ZM21.7529 -3.22266Q21.7432 -3.95996 21.3403 -4.39941Q20.9375 -4.83887 20.2734 -4.83887Q19.5215 -4.83887 19.0698 -4.41406Q18.6182 -3.98926 18.5498 -3.21777L21.7529 -3.22266ZM27.7246 -2.79785Q27.7246 -3.77441 27.3218 -4.31152Q26.9189 -4.84863 26.1914 -4.84863Q25.4688 -4.84863 25.0659 -4.31152Q24.6631 -3.77441 24.6631 -2.79785Q24.6631 -1.82617 25.0659 -1.28906Q25.4688 -0.751953 26.1914 -0.751953Q26.9189 -0.751953 27.3218 -1.28906Q27.7246 -1.82617 27.7246 -2.79785ZM28.623 -0.678711Q28.623 0.717773 28.0029 1.39893Q27.3828 2.08008 26.1035 2.08008Q25.6299 2.08008 25.21 2.00928Q24.79 1.93848 24.3945 1.79199L24.3945 0.917969Q24.79 1.13281 25.1758 1.23535Q25.5615 1.33789 25.9619 1.33789Q26.8457 1.33789 27.2852 0.876465Q27.7246 0.415039 27.7246 -0.517578L27.7246 -0.961914Q27.4463 -0.478516 27.0117 -0.239258C26.722 -0.0797526 26.3753 0 25.9717 0Q24.9658 0 24.3506 -0.766602Q23.7354 -1.5332 23.7354 -2.79785Q23.7354 -4.06738 24.3506 -4.83398Q24.9658 -5.60059 25.9717 -5.60059Q26.5771 -5.60059 27.0117 -5.36133Q27.4463 -5.12207 27.7246 -4.63867L27.7246 -5.46875L28.623 -5.46875L28.623 -0.678711ZM32.5928 -4.83887Q31.8701 -4.83887 31.4502 -4.2749Q31.0303 -3.71094 31.0303 -2.72949Q31.0303 -1.74805 31.4478 -1.18408Q31.8652 -0.620117 32.5928 -0.620117Q33.3105 -0.620117 33.7305 -1.18652Q34.1504 -1.75293 34.1504 -2.72949Q34.1504 -3.70117 33.7305 -4.27002Q33.3105 -4.83887 32.5928 -4.83887ZM32.5928 -5.60059Q33.7646 -5.60059 34.4336 -4.83887Q35.1025 -4.07715 35.1025 -2.72949Q35.1025 -1.38672 34.4336 -0.622559Q33.7646 0.141602 32.5928 0.141602Q31.416 0.141602 30.7495 -0.622559Q30.083 -1.38672 30.083 -2.72949Q30.083 -4.07715 30.7495 -4.83887Q31.416 -5.60059 32.5928 -5.60059ZM39.7607 -4.62891Q39.6094 -4.7168 39.4312 -4.7583Q39.2529 -4.7998 39.0381 -4.7998Q38.2764 -4.7998 37.8687 -4.3042Q37.4609 -3.80859 37.4609 -2.88086L37.4609 0L36.5576 0L36.5576 -5.46875L37.4609 -5.46875L37.4609 -4.61914Q37.7441 -5.11719 38.1982 -5.35889Q38.6523 -5.60059 39.3018 -5.60059Q39.3945 -5.60059 39.5068 -5.58838Q39.6191 -5.57617 39.7559 -5.55176L39.7607 -4.62891ZM42.9785 0.507813Q42.5977 1.48438 42.2363 1.78223Q41.875 2.08008 41.2695 2.08008L40.5518 2.08008L40.5518 1.32813L41.0791 1.32813Q41.4502 1.32813 41.6553 1.15234Q41.8604 0.976563 42.1094 0.322266L42.2705 -0.0878906L40.0586 -5.46875L41.0107 -5.46875L42.7197 -1.19141L44.4287 -5.46875L45.3809 -5.46875L42.9785 0.507813Z" fill="#262626" transform="translate(400.66666666666663,482.85)" />
<path d="M0.981445 -7.29004L1.96777 -7.29004L1.96777 -4.30176L5.55176 -4.30176L5.55176 -7.29004L6.53809 -7.29004L6.53809 0L5.55176 0L5.55176 -3.47168L1.96777 -3.47168L1.96777 0L0.981445 0L0.981445 -7.29004ZM10.5811 -4.83887Q9.8584 -4.83887 9.43848 -4.2749Q9.01855 -3.71094 9.01855 -2.72949Q9.01855 -1.74805 9.43604 -1.18408Q9.85352 -0.620117 10.5811 -0.620117Q11.2988 -0.620117 11.7188 -1.18652Q12.1387 -1.75293 12.1387 -2.72949Q12.1387 -3.70117 11.7188 -4.27002Q11.2988 -4.83887 10.5811 -4.83887ZM10.5811 -5.60059Q11.7529 -5.60059 12.4219 -4.83887Q13.0908 -4.07715 13.0908 -2.72949Q13.0908 -1.38672 12.4219 -0.622559Q11.7529 0.141602 10.5811 0.141602Q9.4043 0.141602 8.73779 -0.622559Q8.07129 -1.38672 8.07129 -2.72949Q8.07129 -4.07715 8.73779 -4.83887Q9.4043 -5.60059 10.5811 -5.60059ZM18.8379 -4.41895Q19.1748 -5.02441 19.6436 -5.3125Q20.1123 -5.60059 20.7471 -5.60059Q21.6016 -5.60059 22.0654 -5.00244Q22.5293 -4.4043 22.5293 -3.30078L22.5293 0L21.626 0L21.626 -3.27148Q21.626 -4.05762 21.3477 -4.43848Q21.0693 -4.81934 20.498 -4.81934Q19.7998 -4.81934 19.3945 -4.35547Q18.9893 -3.8916 18.9893 -3.09082L18.9893 0L18.0859 0L18.0859 -3.27148Q18.0859 -4.0625 17.8076 -4.44092Q17.5293 -4.81934 16.9482 -4.81934Q16.2598 -4.81934 15.8545 -4.35303Q15.4492 -3.88672 15.4492 -3.09082L15.4492 0L14.5459 0L14.5459 -5.46875L15.4492 -5.46875L15.4492 -4.61914Q15.7568 -5.12207 16.1865 -5.36133Q16.6162 -5.60059 17.207 -5.60059Q17.8027 -5.60059 18.2202 -5.29785Q18.6377 -4.99512 18.8379 -4.41895ZM28.999 -2.95898L28.999 -2.51953L24.8682 -2.51953Q24.9268 -1.5918 25.4272 -1.10596Q25.9277 -0.620117 26.8213 -0.620117Q27.3389 -0.620117 27.8247 -0.74707Q28.3105 -0.874023 28.7891 -1.12793L28.7891 -0.27832Q28.3057 -0.0732422 27.7979 0.0341797Q27.29 0.141602 26.7676 0.141602Q25.459 0.141602 24.6948 -0.620117Q23.9307 -1.38184 23.9307 -2.68066Q23.9307 -4.02344 24.6558 -4.81201Q25.3809 -5.60059 26.6113 -5.60059Q27.7148 -5.60059 28.3569 -4.89014Q28.999 -4.17969 28.999 -2.95898ZM28.1006 -3.22266Q28.0908 -3.95996 27.688 -4.39941Q27.2852 -4.83887 26.6211 -4.83887Q25.8691 -4.83887 25.4175 -4.41406Q24.9658 -3.98926 24.8975 -3.21777L28.1006 -3.22266Z" fill="#262626" transform="translate(400.66666666666663,141.29999999999998)" />
<path d="M6.44043 -6.72852L6.44043 -5.68848Q5.94238 -6.15234 5.37842 -6.38184Q4.81445 -6.61133 4.17969 -6.61133Q2.92969 -6.61133 2.26563 -5.84717Q1.60156 -5.08301 1.60156 -3.6377Q1.60156 -2.19727 2.26563 -1.43311Q2.92969 -0.668945 4.17969 -0.668945Q4.81445 -0.668945 5.37842 -0.898438Q5.94238 -1.12793 6.44043 -1.5918L6.44043 -0.561523Q5.92285 -0.209961 5.34424 -0.0341797Q4.76563 0.141602 4.12109 0.141602Q2.46582 0.141602 1.51367 -0.871582Q0.561523 -1.88477 0.561523 -3.6377Q0.561523 -5.39551 1.51367 -6.40869Q2.46582 -7.42187 4.12109 -7.42188Q4.77539 -7.42188 5.354 -7.24854Q5.93262 -7.07519 6.44043 -6.72852ZM10.4102 -2.74902Q9.32129 -2.74902 8.90137 -2.5Q8.48145 -2.25098 8.48145 -1.65039Q8.48145 -1.17187 8.79639 -0.891113Q9.11133 -0.610352 9.65332 -0.610352Q10.4004 -0.610352 10.8521 -1.14014Q11.3037 -1.66992 11.3037 -2.54883L11.3037 -2.74902L10.4102 -2.74902ZM12.2021 -3.12012L12.2021 0L11.3037 0L11.3037 -0.830078Q10.9961 -0.332031 10.5371 -0.0952148Q10.0781 0.141602 9.41406 0.141602Q8.57422 0.141602 8.07861 -0.32959Q7.58301 -0.800781 7.58301 -1.5918Q7.58301 -2.51465 8.20068 -2.9834Q8.81836 -3.45215 10.0439 -3.45215L11.3037 -3.45215L11.3037 -3.54004Q11.3037 -4.16016 10.896 -4.49951Q10.4883 -4.83887 9.75098 -4.83887Q9.28223 -4.83887 8.83789 -4.72656Q8.39355 -4.61426 7.9834 -4.38965L7.9834 -5.21973Q8.47656 -5.41016 8.94043 -5.50537Q9.4043 -5.60059 9.84375 -5.60059Q11.0303 -5.60059 11.6162 -4.98535Q12.2021 -4.37012 12.2021 -3.12012ZM17.2217 -4.62891Q17.0703 -4.7168 16.8921 -4.7583Q16.7139 -4.7998 16.499 -4.7998Q15.7373 -4.7998 15.3296 -4.3042Q14.9219 -3.80859 14.9219 -2.88086L14.9219 0L14.0186 0L14.0186 -5.46875L14.9219 -5.46875L14.9219 -4.61914Q15.2051 -5.11719 15.6592 -5.35889Q16.1133 -5.60059 16.7627 -5.60059Q16.8555 -5.60059 16.9678 -5.58838Q17.0801 -5.57617 17.2168 -5.55176L17.2217 -4.62891ZM19.0527 -7.02148L19.0527 -5.46875L20.9033 -5.46875L20.9033 -4.77051L19.0527 -4.77051L19.0527 -1.80176Q19.0527 -1.13281 19.2358 -0.942383Q19.4189 -0.751953 19.9805 -0.751953L20.9033 -0.751953L20.9033 0L19.9805 0Q18.9404 0 18.5449 -0.388184Q18.1494 -0.776367 18.1494 -1.80176L18.1494 -4.77051L17.4902 -4.77051L17.4902 -5.46875L18.1494 -5.46875L18.1494 -7.02148L19.0527 -7.02148Z" fill="#262626" transform="translate(652.3333333333333,145.68000000000004)" />
<path d="M1.96777 -6.47949L1.96777 -3.74023L3.20801 -3.74023Q3.89648 -3.74023 4.27246 -4.09668Q4.64844 -4.45312 4.64844 -5.1123Q4.64844 -5.7666 4.27246 -6.12305Q3.89648 -6.47949 3.20801 -6.47949L1.96777 -6.47949ZM0.981445 -7.29004L3.20801 -7.29004Q4.43359 -7.29004 5.06104 -6.73584Q5.68848 -6.18164 5.68848 -5.1123Q5.68848 -4.0332 5.06104 -3.48145Q4.43359 -2.92969 3.20801 -2.92969L1.96777 -2.92969L1.96777 0L0.981445 0L0.981445 -7.29004ZM10.1416 -4.62891Q9.99023 -4.7168 9.81201 -4.7583Q9.63379 -4.7998 9.41895 -4.7998Q8.65723 -4.7998 8.24951 -4.3042Q7.8418 -3.80859 7.8418 -2.88086L7.8418 0L6.93848 0L6.93848 -5.46875L7.8418 -5.46875L7.8418 -4.61914Q8.125 -5.11719 8.5791 -5.35889Q9.0332 -5.60059 9.68262 -5.60059Q9.77539 -5.60059 9.8877 -5.58838Q10 -5.57617 10.1367 -5.55176L10.1416 -4.62891ZM13.2031 -4.83887Q12.4805 -4.83887 12.0605 -4.2749Q11.6406 -3.71094 11.6406 -2.72949Q11.6406 -1.74805 12.0581 -1.18408Q12.4756 -0.620117 13.2031 -0.620117Q13.9209 -0.620117 14.3408 -1.18652Q14.7607 -1.75293 14.7607 -2.72949Q14.7607 -3.70117 14.3408 -4.27002Q13.9209 -4.83887 13.2031 -4.83887ZM13.2031 -5.60059Q14.375 -5.60059 15.0439 -4.83887Q15.7129 -4.07715 15.7129 -2.72949Q15.7129 -1.38672 15.0439 -0.622559Q14.375 0.141602 13.2031 0.141602Q12.0264 0.141602 11.3599 -0.622559Q10.6934 -1.38672 10.6934 -2.72949Q10.6934 -4.07715 11.3599 -4.83887Q12.0264 -5.60059 13.2031 -5.60059ZM20.8008 -4.63867L20.8008 -7.59766L21.6992 -7.59766L21.6992 0L20.8008 0L20.8008 -0.820313Q20.5176 -0.332031 20.0854 -0.0952148Q19.6533 0.141602 19.0479 0.141602Q18.0566 0.141602 17.4341 -0.649414Q16.8115 -1.44043 16.8115 -2.72949Q16.8115 -4.01855 17.4341 -4.80957Q18.0566 -5.60059 19.0479 -5.60059Q19.6533 -5.60059 20.0854 -5.36377Q20.5176 -5.12695 20.8008 -4.63867ZM17.7393 -2.72949Q17.7393 -1.73828 18.147 -1.17432Q18.5547 -0.610352 19.2676 -0.610352Q19.9805 -0.610352 20.3906 -1.17432Q20.8008 -1.73828 20.8008 -2.72949Q20.8008 -3.7207 20.3906 -4.28467Q19.9805 -4.84863 19.2676 -4.84863Q18.5547 -4.84863 18.147 -4.28467Q17.7393 -3.7207 17.7393 -2.72949ZM23.457 -2.1582L23.457 -5.46875L24.3555 -5.46875L24.3555 -2.19238Q24.3555 -1.41602 24.6582 -1.02783Q24.9609 -0.639648 25.5664 -0.639648Q26.2939 -0.639648 26.7163 -1.10352Q27.1387 -1.56738 27.1387 -2.36816L27.1387 -5.46875L28.0371 -5.46875L28.0371 0L27.1387 0L27.1387 -0.839844Q26.8115 -0.341797 26.3794 -0.100098Q25.9473 0.141602 25.376 0.141602Q24.4336 0.141602 23.9453 -0.444336Q23.457 -1.03027 23.457 -2.1582ZM33.8232 -5.25879L33.8232 -4.41895Q33.4424 -4.62891 33.0591 -4.73389Q32.6758 -4.83887 32.2852 -4.83887Q31.4111 -4.83887 30.9277 -4.28467Q30.4443 -3.73047 30.4443 -2.72949Q30.4443 -1.72852 30.9277 -1.17432Q31.4111 -0.620117 32.2852 -0.620117Q32.6758 -0.620117 33.0591 -0.725098Q33.4424 -0.830078 33.8232 -1.04004L33.8232 -0.209961Q33.4473 -0.0341797 33.0444 0.0537109Q32.6416 0.141602 32.1875 0.141602Q30.9521 0.141602 30.2246 -0.634766Q29.4971 -1.41113 29.4971 -2.72949Q29.4971 -4.06738 30.2319 -4.83398Q30.9668 -5.60059 32.2461 -5.60059Q32.6611 -5.60059 33.0566 -5.51514Q33.4521 -5.42969 33.8232 -5.25879ZM36.2744 -7.02148L36.2744 -5.46875L38.125 -5.46875L38.125 -4.77051L36.2744 -4.77051L36.2744 -1.80176Q36.2744 -1.13281 36.4575 -0.942383Q36.6406 -0.751953 37.2021 -0.751953L38.125 -0.751953L38.125 0L37.2021 0Q36.1621 0 35.7666 -0.388184Q35.3711 -0.776367 35.3711 -1.80176L35.3711 -4.77051L34.7119 -4.77051L34.7119 -5.46875L35.3711 -5.46875L35.3711 -7.02148L36.2744 -7.02148Z" fill="#262626" transform="translate(652.3333333333333,478.47)" />
<path d="M0.981445 -7.29004L1.96777 -7.29004L1.96777 -4.30176L5.55176 -4.30176L5.55176 -7.29004L6.53809 -7.29004L6.53809 0L5.55176 0L5.55176 -3.47168L1.96777 -3.47168L1.96777 0L0.981445 0L0.981445 -7.29004ZM10.5811 -4.83887Q9.8584 -4.83887 9.43848 -4.2749Q9.01855 -3.71094 9.01855 -2.72949Q9.01855 -1.74805 9.43604 -1.18408Q9.85352 -0.620117 10.5811 -0.620117Q11.2988 -0.620117 11.7188 -1.18652Q12.1387 -1.75293 12.1387 -2.72949Q12.1387 -3.70117 11.7188 -4.27002Q11.2988 -4.83887 10.5811 -4.83887ZM10.5811 -5.60059Q11.7529 -5.60059 12.4219 -4.83887Q13.0908 -4.07715 13.0908 -2.72949Q13.0908 -1.38672 12.4219 -0.622559Q11.7529 0.141602 10.5811 0.141602Q9.4043 0.141602 8.73779 -0.622559Q8.07129 -1.38672 8.07129 -2.72949Q8.07129 -4.07715 8.73779 -4.83887Q9.4043 -5.60059 10.5811 -5.60059ZM18.8379 -4.41895Q19.1748 -5.02441 19.6436 -5.3125Q20.1123 -5.60059 20.7471 -5.60059Q21.6016 -5.60059 22.0654 -5.00244Q22.5293 -4.4043 22.5293 -3.30078L22.5293 0L21.626 0L21.626 -3.27148Q21.626 -4.05762 21.3477 -4.43848Q21.0693 -4.81934 20.498 -4.81934Q19.7998 -4.81934 19.3945 -4.35547Q18.9893 -3.8916 18.9893 -3.09082L18.9893 0L18.0859 0L18.0859 -3.27148Q18.0859 -4.0625 17.8076 -4.44092Q17.5293 -4.81934 16.9482 -4.81934Q16.2598 -4.81934 15.8545 -4.35303Q15.4492 -3.88672 15.4492 -3.09082L15.4492 0L14.5459 0L14.5459 -5.46875L15.4492 -5.46875L15.4492 -4.61914Q15.7568 -5.12207 16.1865 -5.36133Q16.6162 -5.60059 17.207 -5.60059Q17.8027 -5.60059 18.2202 -5.29785Q18.6377 -4.99512 18.8379 -4.41895ZM28.999 -2.95898L28.999 -2.51953L24.8682 -2.51953Q24.9268 -1.5918 25.4272 -1.10596Q25.9277 -0.620117 26.8213 -0.620117Q27.3389 -0.620117 27.8247 -0.74707Q28.3105 -0.874023 28.7891 -1.12793L28.7891 -0.27832Q28.3057 -0.0732422 27.7979 0.0341797Q27.29 0.141602 26.7676 0.141602Q25.459 0.141602 24.6948 -0.620117Q23.9307 -1.38184 23.9307 -2.68066Q23.9307 -4.02344 24.6558 -4.81201Q25.3809 -5.60059 26.6113 -5.60059Q27.7148 -5.60059 28.3569 -4.89014Q28.999 -4.17969 28.999 -2.95898ZM28.1006 -3.22266Q28.0908 -3.95996 27.688 -4.39941Q27.2852 -4.83887 26.6211 -4.83887Q25.8691 -4.83887 25.4175 -4.41406Q24.9658 -3.98926 24.8975 -3.21777L28.1006 -3.22266Z" fill="#262626" transform="translate(652.3333333333333,317.55000000000007)" />
<path d="M1.96777 -6.47949L1.96777 -3.74023L3.20801 -3.74023Q3.89648 -3.74023 4.27246 -4.09668Q4.64844 -4.45312 4.64844 -5.1123Q4.64844 -5.7666 4.27246 -6.12305Q3.89648 -6.47949 3.20801 -6.47949L1.96777 -6.47949ZM0.981445 -7.29004L3.20801 -7.29004Q4.43359 -7.29004 5.06104 -6.73584Q5.68848 -6.18164 5.68848 -5.1123Q5.68848 -4.0332 5.06104 -3.48145Q4.43359 -2.92969 3.20801 -2.92969L1.96777 -2.92969L1.96777 0L0.981445 0L0.981445 -7.29004ZM6.87988 -2.1582L6.87988 -5.46875L7.77832 -5.46875L7.77832 -2.19238Q7.77832 -1.41602 8.08105 -1.02783Q8.38379 -0.639648 8.98926 -0.639648Q9.7168 -0.639648 10.1392 -1.10352Q10.5615 -1.56738 10.5615 -2.36816L10.5615 -5.46875L11.46 -5.46875L11.46 0L10.5615 0L10.5615 -0.839844Q10.2344 -0.341797 9.80225 -0.100098Q9.37012 0.141602 8.79883 0.141602Q7.85645 0.141602 7.36816 -0.444336Q6.87988 -1.03027 6.87988 -2.1582ZM16.4795 -4.62891Q16.3281 -4.7168 16.1499 -4.7583Q15.9717 -4.7998 15.7568 -4.7998Q14.9951 -4.7998 14.5874 -4.3042Q14.1797 -3.80859 14.1797 -2.88086L14.1797 0L13.2764 0L13.2764 -5.46875L14.1797 -5.46875L14.1797 -4.61914Q14.4629 -5.11719 14.917 -5.35889Q15.3711 -5.60059 16.0205 -5.60059Q16.1133 -5.60059 16.2256 -5.58838Q16.3379 -5.57617 16.4746 -5.55176L16.4795 -4.62891ZM21.3574 -5.25879L21.3574 -4.41895Q20.9766 -4.62891 20.5933 -4.73389Q20.21 -4.83887 19.8193 -4.83887Q18.9453 -4.83887 18.4619 -4.28467Q17.9785 -3.73047 17.9785 -2.72949Q17.9785 -1.72852 18.4619 -1.17432Q18.9453 -0.620117 19.8193 -0.620117Q20.21 -0.620117 20.5933 -0.725098Q20.9766 -0.830078 21.3574 -1.04004L21.3574 -0.209961Q20.9814 -0.0341797 20.5786 0.0537109Q20.1758 0.141602 19.7217 0.141602Q18.4863 0.141602 17.7588 -0.634766Q17.0313 -1.41113 17.0313 -2.72949Q17.0313 -4.06738 17.7661 -4.83398Q18.501 -5.60059 19.7803 -5.60059Q20.1953 -5.60059 20.5908 -5.51514Q20.9863 -5.42969 21.3574 -5.25879ZM27.4658 -3.30078L27.4658 0L26.5674 0L26.5674 -3.27148Q26.5674 -4.04785 26.2646 -4.43359Q25.9619 -4.81934 25.3564 -4.81934Q24.6289 -4.81934 24.209 -4.35547Q23.7891 -3.8916 23.7891 -3.09082L23.7891 0L22.8857 0L22.8857 -7.59766L23.7891 -7.59766L23.7891 -4.61914Q24.1113 -5.1123 24.5483 -5.35645Q24.9854 -5.60059 25.5566 -5.60059Q26.499 -5.60059 26.9824 -5.01709Q27.4658 -4.43359 27.4658 -3.30078ZM31.7432 -2.74902Q30.6543 -2.74902 30.2344 -2.5Q29.8145 -2.25098 29.8145 -1.65039Q29.8145 -1.17187 30.1294 -0.891113Q30.4443 -0.610352 30.9863 -0.610352Q31.7334 -0.610352 32.1851 -1.14014Q32.6367 -1.66992 32.6367 -2.54883L32.6367 -2.74902L31.7432 -2.74902ZM33.5352 -3.12012L33.5352 0L32.6367 0L32.6367 -0.830078Q32.3291 -0.332031 31.8701 -0.0952148Q31.4111 0.141602 30.7471 0.141602Q29.9072 0.141602 29.4116 -0.32959Q28.916 -0.800781 28.916 -1.5918Q28.916 -2.51465 29.5337 -2.9834Q30.1514 -3.45215 31.377 -3.45215L32.6367 -3.45215L32.6367 -3.54004Q32.6367 -4.16016 32.229 -4.49951Q31.8213 -4.83887 31.084 -4.83887Q30.6152 -4.83887 30.1709 -4.72656Q29.7266 -4.61426 29.3164 -4.38965L29.3164 -5.21973Q29.8096 -5.41016 30.2734 -5.50537Q30.7373 -5.60059 31.1768 -5.60059Q32.3633 -5.60059 32.9492 -4.98535Q33.5352 -4.37012 33.5352 -3.12012ZM38.8721 -5.30762L38.8721 -4.45801Q38.4912 -4.65332 38.0811 -4.75098Q37.6709 -4.84863 37.2314 -4.84863Q36.5625 -4.84863 36.228 -4.64355Q35.8936 -4.43848 35.8936 -4.02832Q35.8936 -3.71582 36.1328 -3.5376Q36.3721 -3.35937 37.0947 -3.19824L37.4023 -3.12988Q38.3594 -2.9248 38.7622 -2.55127Q39.165 -2.17773 39.165 -1.50879Q39.165 -0.74707 38.562 -0.302734Q37.959 0.141602 36.9043 0.141602Q36.4648 0.141602 35.9888 0.0561523Q35.5127 -0.0292969 34.9854 -0.200195L34.9854 -1.12793Q35.4834 -0.869141 35.9668 -0.739746Q36.4502 -0.610352 36.9238 -0.610352Q37.5586 -0.610352 37.9004 -0.827637Q38.2422 -1.04492 38.2422 -1.44043Q38.2422 -1.80664 37.9956 -2.00195Q37.749 -2.19727 36.9141 -2.37793L36.6016 -2.45117Q35.7666 -2.62695 35.3955 -2.99072Q35.0244 -3.35449 35.0244 -3.98926Q35.0244 -4.76074 35.5713 -5.18066Q36.1182 -5.60059 37.124 -5.60059Q37.6221 -5.60059 38.0615 -5.52734Q38.501 -5.4541 38.8721 -5.30762ZM45.2734 -2.95898L45.2734 -2.51953L41.1426 -2.51953Q41.2012 -1.5918 41.7017 -1.10596Q42.2021 -0.620117 43.0957 -0.620117Q43.6133 -0.620117 44.0991 -0.74707Q44.585 -0.874023 45.0635 -1.12793L45.0635 -0.27832Q44.5801 -0.0732422 44.0723 0.0341797Q43.5645 0.141602 43.042 0.141602Q41.7334 0.141602 40.9692 -0.620117Q40.2051 -1.38184 40.2051 -2.68066Q40.2051 -4.02344 40.9302 -4.81201Q41.6553 -5.60059 42.8857 -5.60059Q43.9893 -5.60059 44.6313 -4.89014Q45.2734 -4.17969 45.2734 -2.95898ZM44.375 -3.22266Q44.3652 -3.95996 43.9624 -4.39941Q43.5596 -4.83887 42.8955 -4.83887Q42.1436 -4.83887 41.6919 -4.41406Q41.2402 -3.98926 41.1719 -3.21777L44.375 -3.22266Z" fill="#262626" transform="translate(876,182.91000000000003) translate(-45.8056640625,0)" />
<path d="M6.44043 -6.72852L6.44043 -5.68848Q5.94238 -6.15234 5.37842 -6.38184Q4.81445 -6.61133 4.17969 -6.61133Q2.92969 -6.61133 2.26563 -5.84717Q1.60156 -5.08301 1.60156 -3.6377Q1.60156 -2.19727 2.26563 -1.43311Q2.92969 -0.668945 4.17969 -0.668945Q4.81445 -0.668945 5.37842 -0.898438Q5.94238 -1.12793 6.44043 -1.5918L6.44043 -0.561523Q5.92285 -0.209961 5.34424 -0.0341797Q4.76563 0.141602 4.12109 0.141602Q2.46582 0.141602 1.51367 -0.871582Q0.561523 -1.88477 0.561523 -3.6377Q0.561523 -5.39551 1.51367 -6.40869Q2.46582 -7.42187 4.12109 -7.42188Q4.77539 -7.42188 5.354 -7.24854Q5.93262 -7.07519 6.44043 -6.72852ZM10.4102 -2.74902Q9.32129 -2.74902 8.90137 -2.5Q8.48145 -2.25098 8.48145 -1.65039Q8.48145 -1.17187 8.79639 -0.891113Q9.11133 -0.610352 9.65332 -0.610352Q10.4004 -0.610352 10.8521 -1.14014Q11.3037 -1.66992 11.3037 -2.54883L11.3037 -2.74902L10.4102 -2.74902ZM12.2021 -3.12012L12.2021 0L11.3037 0L11.3037 -0.830078Q10.9961 -0.332031 10.5371 -0.0952148Q10.0781 0.141602 9.41406 0.141602Q8.57422 0.141602 8.07861 -0.32959Q7.58301 -0.800781 7.58301 -1.5918Q7.58301 -2.51465 8.20068 -2.9834Q8.81836 -3.45215 10.0439 -3.45215L11.3037 -3.45215L11.3037 -3.54004Q11.3037 -4.16016 10.896 -4.49951Q10.4883 -4.83887 9.75098 -4.83887Q9.28223 -4.83887 8.83789 -4.72656Q8.39355 -4.61426 7.9834 -4.38965L7.9834 -5.21973Q8.47656 -5.41016 8.94043 -5.50537Q9.4043 -5.60059 9.84375 -5.60059Q11.0303 -5.60059 11.6162 -4.98535Q12.2021 -4.37012 12.2021 -3.12012ZM17.2217 -4.62891Q17.0703 -4.7168 16.8921 -4.7583Q16.7139 -4.7998 16.499 -4.7998Q15.7373 -4.7998 15.3296 -4.3042Q14.9219 -3.80859 14.9219 -2.88086L14.9219 0L14.0186 0L14.0186 -5.46875L14.9219 -5.46875L14.9219 -4.61914Q15.2051 -5.11719 15.6592 -5.35889Q16.1133 -5.60059 16.7627 -5.60059Q16.8555 -5.60059 16.9678 -5.58838Q17.0801 -5.57617 17.2168 -5.55176L17.2217 -4.62891ZM19.0527 -7.02148L19.0527 -5.46875L20.9033 -5.46875L20.9033 -4.77051L19.0527 -4.77051L19.0527 -1.80176Q19.0527 -1.13281 19.2358 -0.942383Q19.4189 -0.751953 19.9805 -0.751953L20.9033 -0.751953L20.9033 0L19.9805 0Q18.9404 0 18.5449 -0.388184Q18.1494 -0.776367 18.1494 -1.80176L18.1494 -4.77051L17.4902 -4.77051L17.4902 -5.46875L18.1494 -5.46875L18.1494 -7.02148L19.0527 -7.02148Z" fill="#262626" transform="translate(876,491.61) translate(-21.142578125,0)" />
<path d="M0.981445 -7.29004L1.96777 -7.29004L1.96777 -4.30176L5.55176 -4.30176L5.55176 -7.29004L6.53809 -7.29004L6.53809 0L5.55176 0L5.55176 -3.47168L1.96777 -3.47168L1.96777 0L0.981445 0L0.981445 -7.29004ZM10.5811 -4.83887Q9.8584 -4.83887 9.43848 -4.2749Q9.01855 -3.71094 9.01855 -2.72949Q9.01855 -1.74805 9.43604 -1.18408Q9.85352 -0.620117 10.5811 -0.620117Q11.2988 -0.620117 11.7188 -1.18652Q12.1387 -1.75293 12.1387 -2.72949Q12.1387 -3.70117 11.7188 -4.27002Q11.2988 -4.83887 10.5811 -4.83887ZM10.5811 -5.60059Q11.7529 -5.60059 12.4219 -4.83887Q13.0908 -4.07715 13.0908 -2.72949Q13.0908 -1.38672 12.4219 -0.622559Q11.7529 0.141602 10.5811 0.141602Q9.4043 0.141602 8.73779 -0.622559Q8.07129 -1.38672 8.07129 -2.72949Q8.07129 -4.07715 8.73779 -4.83887Q9.4043 -5.60059 10.5811 -5.60059ZM18.8379 -4.41895Q19.1748 -5.02441 19.6436 -5.3125Q20.1123 -5.60059 20.7471 -5.60059Q21.6016 -5.60059 22.0654 -5.00244Q22.5293 -4.4043 22.5293 -3.30078L22.5293 0L21.626 0L21.626 -3.27148Q21.626 -4.05762 21.3477 -4.43848Q21.0693 -4.81934 20.498 -4.81934Q19.7998 -4.81934 19.3945 -4.35547Q18.9893 -3.8916 18.9893 -3.09082L18.9893 0L18.0859 0L18.0859 -3.27148Q18.0859 -4.0625 17.8076 -4.44092Q17.5293 -4.81934 16.9482 -4.81934Q16.2598 -4.81934 15.8545 -4.35303Q15.4492 -3.88672 15.4492 -3.09082L15.4492 0L14.5459 0L14.5459 -5.46875L15.4492 -5.46875L15.4492 -4.61914Q15.7568 -5.12207 16.1865 -5.36133Q16.6162 -5.60059 17.207 -5.60059Q17.8027 -5.60059 18.2202 -5.29785Q18.6377 -4.99512 18.8379 -4.41895ZM28.999 -2.95898L28.999 -2.51953L24.8682 -2.51953Q24.9268 -1.5918 25.4272 -1.10596Q25.9277 -0.620117 26.8213 -0.620117Q27.3389 -0.620117 27.8247 -0.74707Q28.3105 -0.874023 28.7891 -1.12793L28.7891 -0.27832Q28.3057 -0.0732422 27.7979 0.0341797Q27.29 0.141602 26.7676 0.141602Q25.459 0.141602 24.6948 -0.620117Q23.9307 -1.38184 23.9307 -2.68066Q23.9307 -4.02344 24.6558 -4.81201Q25.3809 -5.60059 26.6113 -5.60059Q27.7148 -5.60059 28.3569 -4.89014Q28.999 -4.17969 28.999 -2.95898ZM28.1006 -3.22266Q28.0908 -3.95996 27.688 -4.39941Q27.2852 -4.83887 26.6211 -4.83887Q25.8691 -4.83887 25.4175 -4.41406Q24.9658 -3.98926 24.8975 -3.21777L28.1006 -3.22266Z" fill="#262626" transform="translate(876,367.92) translate(-29.53125,0)" />
</svg>
