<svg xmlns="http://www.w3.org/2000/svg" viewBox="0 0 1000 600" width="1000" height="600" style="width:100%;height:auto" role="img" aria-labelledby="chart-title">
<title id="chart-title">Sankey — Customer journey alluvial (4 timesteps)</title>
<rect x="0" y="0" width="1000" height="600" fill="#FFFFFF" />
<text x="500" y="24.099999999999998" font-family="DejaVu Sans, sans-serif" font-size="17.88888888888889" text-anchor="middle" font-weight="bold" fill="#262626">Sankey — Customer journey alluvial (4 timesteps)</text>
<rect x="125" y="72" width="775" height="462" fill="#FFFFFF" />
<defs><linearGradient id="grad-0" gradientUnits="userSpaceOnUse" x1="396.66666666666663" y1="71.99999999999997" x2="628.3333333333333" y2="72.00000000000006"><stop offset="0" stop-color="#1F77B4" stop-opacity="0.4" /><stop offset="1" stop-color="#D62728" stop-opacity="0.4" /></linearGradient></defs>
<path d="M 396.66666666666663 71.99999999999997 C 512.5 71.99999999999997 512.5 72.00000000000006 628.3333333333333 72.00000000000006 L 628.3333333333333 115.80000000000005 C 512.5 115.80000000000005 512.5 115.79999999999997 396.66666666666663 115.79999999999997 Z " fill="url(#grad-0)" data-sankey-link-source="3" data-sankey-link-target="4" />
<defs><linearGradient id="grad-1" gradientUnits="userSpaceOnUse" x1="396.66666666666663" y1="115.79999999999997" x2="628.3333333333333" y2="224.16000000000003"><stop offset="0" stop-color="#1F77B4" stop-opacity="0.4" /><stop offset="1" stop-color="#1F77B4" stop-opacity="0.4" /></linearGradient></defs>
<path d="M 396.66666666666663 115.79999999999997 C 512.5 115.79999999999997 512.5 224.16000000000003 628.3333333333333 224.16000000000003 L 628.3333333333333 311.76 C 512.5 311.76 512.5 203.39999999999998 396.66666666666663 203.39999999999998 Z " fill="url(#grad-1)" data-sankey-link-source="3" data-sankey-link-target="6" />
<defs><linearGradient id="grad-2" gradientUnits="userSpaceOnUse" x1="648.3333333333333" y1="72.00000000000006" x2="880" y2="72.00000000000003"><stop offset="0" stop-color="#D62728" stop-opacity="0.4" /><stop offset="1" stop-color="#9467BD" stop-opacity="0.4" /></linearGradient></defs>
<path d="M 648.3333333333333 72.00000000000006 C 764.1666666666666 72.00000000000006 764.1666666666666 72.00000000000003 880 72.00000000000003 L 880 177.12000000000003 C 764.1666666666666 177.12000000000003 764.1666666666666 177.12000000000006 648.3333333333333 177.12000000000006 Z " fill="url(#grad-2)" data-sankey-link-source="4" data-sankey-link-target="7" />
<defs><linearGradient id="grad-3" gradientUnits="userSpaceOnUse" x1="648.3333333333333" y1="177.12000000000006" x2="880" y2="442.02"><stop offset="0" stop-color="#D62728" stop-opacity="0.4" /><stop offset="1" stop-color="#D62728" stop-opacity="0.4" /></linearGradient></defs>
<path d="M 648.3333333333333 177.12000000000006 C 764.1666666666666 177.12000000000006 764.1666666666666 442.02 880 442.02 L 880 477.06 C 764.1666666666666 477.06 764.1666666666666 212.16000000000005 648.3333333333333 212.16000000000005 Z " fill="url(#grad-3)" data-sankey-link-source="4" data-sankey-link-target="8" />
<defs><linearGradient id="grad-4" gradientUnits="userSpaceOnUse" x1="145" y1="83.40000000000401" x2="376.66666666666663" y2="71.99999999999997"><stop offset="0" stop-color="#1F77B4" stop-opacity="0.4" /><stop offset="1" stop-color="#1F77B4" stop-opacity="0.4" /></linearGradient></defs>
<path d="M 145 83.40000000000401 C 260.8333333333333 83.40000000000401 260.8333333333333 71.99999999999997 376.66666666666663 71.99999999999997 L 376.66666666666663 203.39999999999998 C 260.8333333333333 203.39999999999998 260.8333333333333 214.80000000000402 145 214.80000000000402 Z " fill="url(#grad-4)" data-sankey-link-source="0" data-sankey-link-target="3" />
<defs><linearGradient id="grad-5" gradientUnits="userSpaceOnUse" x1="145" y1="214.80000000000402" x2="376.66666666666663" y2="215.39999999999998"><stop offset="0" stop-color="#1F77B4" stop-opacity="0.4" /><stop offset="1" stop-color="#FF7F0E" stop-opacity="0.4" /></linearGradient></defs>
<path d="M 145 214.80000000000402 C 260.8333333333333 214.80000000000402 260.8333333333333 215.39999999999998 376.66666666666663 215.39999999999998 L 376.66666666666663 412.5 C 260.8333333333333 412.5 260.8333333333333 411.900000000004 145 411.900000000004 Z " fill="url(#grad-5)" data-sankey-link-source="0" data-sankey-link-target="1" />
<defs><linearGradient id="grad-6" gradientUnits="userSpaceOnUse" x1="145" y1="411.900000000004" x2="376.66666666666663" y2="424.5"><stop offset="0" stop-color="#1F77B4" stop-opacity="0.4" /><stop offset="1" stop-color="#2CA02C" stop-opacity="0.4" /></linearGradient></defs>
<path d="M 145 411.900000000004 C 260.8333333333333 411.900000000004 260.8333333333333 424.5 376.66666666666663 424.5 L 376.66666666666663 534 C 260.8333333333333 534 260.8333333333333 521.400000000004 145 521.400000000004 Z " fill="url(#grad-6)" data-sankey-link-source="0" data-sankey-link-target="2" />
<defs><linearGradient id="grad-7" gradientUnits="userSpaceOnUse" x1="396.66666666666663" y1="215.39999999999998" x2="628.3333333333333" y2="115.80000000000005"><stop offset="0" stop-color="#FF7F0E" stop-opacity="0.4" /><stop offset="1" stop-color="#D62728" stop-opacity="0.4" /></linearGradient></defs>
<path d="M 396.66666666666663 215.39999999999998 C 512.5 215.39999999999998 512.5 115.80000000000005 628.3333333333333 115.80000000000005 L 628.3333333333333 212.16000000000005 C 512.5 212.16000000000005 512.5 311.76 396.66666666666663 311.76 Z " fill="url(#grad-7)" data-sankey-link-source="1" data-sankey-link-target="4" />
<defs><linearGradient id="grad-8" gradientUnits="userSpaceOnUse" x1="396.66666666666663" y1="311.76" x2="628.3333333333333" y2="311.76"><stop offset="0" stop-color="#FF7F0E" stop-opacity="0.4" /><stop offset="1" stop-color="#1F77B4" stop-opacity="0.4" /></linearGradient></defs>
<path d="M 396.66666666666663 311.76 C 512.5 311.76 512.5 311.76 628.3333333333333 311.76 L 628.3333333333333 346.8 C 512.5 346.8 512.5 346.8 396.66666666666663 346.8 Z " fill="url(#grad-8)" data-sankey-link-source="1" data-sankey-link-target="6" />
<defs><linearGradient id="grad-9" gradientUnits="userSpaceOnUse" x1="396.66666666666663" y1="346.79999999999995" x2="628.3333333333333" y2="415.74"><stop offset="0" stop-color="#FF7F0E" stop-opacity="0.4" /><stop offset="1" stop-color="#FF7F0E" stop-opacity="0.4" /></linearGradient></defs>
<path d="M 396.66666666666663 346.79999999999995 C 512.5 346.79999999999995 512.5 415.74 628.3333333333333 415.74 L 628.3333333333333 481.44 C 512.5 481.44 512.5 412.49999999999994 396.66666666666663 412.49999999999994 Z " fill="url(#grad-9)" data-sankey-link-source="1" data-sankey-link-target="5" />
<defs><linearGradient id="grad-10" gradientUnits="userSpaceOnUse" x1="648.3333333333333" y1="224.16000000000003" x2="880" y2="177.12000000000003"><stop offset="0" stop-color="#1F77B4" stop-opacity="0.4" /><stop offset="1" stop-color="#9467BD" stop-opacity="0.4" /></linearGradient></defs>
<path d="M 648.3333333333333 224.16000000000003 C 764.1666666666666 224.16000000000003 764.1666666666666 177.12000000000003 880 177.12000000000003 L 880 225.30000000000004 C 764.1666666666666 225.30000000000004 764.1666666666666 272.34000000000003 648.3333333333333 272.34000000000003 Z " fill="url(#grad-10)" data-sankey-link-source="6" data-sankey-link-target="7" />
<defs><linearGradient id="grad-11" gradientUnits="userSpaceOnUse" x1="648.3333333333333" y1="272.34000000000003" x2="880" y2="298.62"><stop offset="0" stop-color="#1F77B4" stop-opacity="0.4" /><stop offset="1" stop-color="#1F77B4" stop-opacity="0.4" /></linearGradient></defs>
<path d="M 648.3333333333333 272.34000000000003 C 764.1666666666666 272.34000000000003 764.1666666666666 298.62 880 298.62 L 880 430.02 C 764.1666666666666 430.02 764.1666666666666 403.74 648.3333333333333 403.74 Z " fill="url(#grad-11)" data-sankey-link-source="6" data-sankey-link-target="9" />
<defs><linearGradient id="grad-12" gradientUnits="userSpaceOnUse" x1="648.3333333333333" y1="415.74" x2="880" y2="225.30000000000004"><stop offset="0" stop-color="#FF7F0E" stop-opacity="0.4" /><stop offset="1" stop-color="#9467BD" stop-opacity="0.4" /></linearGradient></defs>
<path d="M 648.3333333333333 415.74 C 764.1666666666666 415.74 764.1666666666666 225.30000000000004 880 225.30000000000004 L 880 286.62000000000006 C 764.1666666666666 286.62000000000006 764.1666666666666 477.06 648.3333333333333 477.06 Z " fill="url(#grad-12)" data-sankey-link-source="5" data-sankey-link-target="7" />
<defs><linearGradient id="grad-13" gradientUnits="userSpaceOnUse" x1="648.3333333333333" y1="477.06" x2="880" y2="477.06"><stop offset="0" stop-color="#FF7F0E" stop-opacity="0.4" /><stop offset="1" stop-color="#D62728" stop-opacity="0.4" /></linearGradient></defs>
<path d="M 648.3333333333333 477.06 C 764.1666666666666 477.06 764.1666666666666 477.06 880 477.06 L 880 534 C 764.1666666666666 534 764.1666666666666 534 648.3333333333333 534 Z " fill="url(#grad-13)" data-sankey-link-source="5" data-sankey-link-target="8" />
<defs><linearGradient id="grad-14" gradientUnits="userSpaceOnUse" x1="396.66666666666663" y1="424.5" x2="628.3333333333333" y2="346.8"><stop offset="0" stop-color="#2CA02C" stop-opacity="0.4" /><stop offset="1" stop-color="#1F77B4" stop-opacity="0.4" /></linearGradient></defs>
<path d="M 396.66666666666663 424.5 C 512.5 424.5 512.5 346.8 628.3333333333333 346.8 L 628.3333333333333 403.74 C 512.5 403.74 512.5 481.44 396.66666666666663 481.44 Z " fill="url(#grad-14)" data-sankey-link-source="2" data-sankey-link-target="6" />
<defs><linearGradient id="grad-15" gradientUnits="userSpaceOnUse" x1="396.66666666666663" y1="481.44" x2="628.3333333333333" y2="481.44"><stop offset="0" stop-color="#2CA02C" stop-opacity="0.4" /><stop offset="1" stop-color="#FF7F0E" stop-opacity="0.4" /></linearGradient></defs>
<path d="M 396.66666666666663 481.44 C 512.5 481.44 512.5 481.44 628.3333333333333 481.44 L 628.3333333333333 534 C 512.5 534 512.5 534 396.66666666666663 534 Z " fill="url(#grad-15)" data-sankey-link-source="2" data-sankey-link-target="5" />
<rect x="125" y="83.40000000000401" width="20" height="438" fill="#1F77B4" data-sankey-node-id="0" />
<rect x="376.66666666666663" y="215.39999999999998" width="20" height="197.1" fill="#FF7F0E" data-sankey-node-id="1" />
<rect x="376.66666666666663" y="424.5" width="20" height="109.5" fill="#2CA02C" data-sankey-node-id="2" />
<rect x="376.66666666666663" y="71.99999999999997" width="20" height="131.4" fill="#1F77B4" data-sankey-node-id="3" />
<rect x="628.3333333333333" y="72.00000000000006" width="20" height="140.16" fill="#D62728" data-sankey-node-id="4" />
<rect x="628.3333333333333" y="415.74" width="20" height="118.25999999999999" fill="#FF7F0E" data-sankey-node-id="5" />
<rect x="628.3333333333333" y="224.16000000000003" width="20" height="179.57999999999998" fill="#1F77B4" data-sankey-node-id="6" />
<rect x="880" y="72.00000000000003" width="20" height="214.62" fill="#9467BD" data-sankey-node-id="7" />
<rect x="880" y="442.02" width="20" height="91.98" fill="#D62728" data-sankey-node-id="8" />
<rect x="880" y="298.62" width="20" height="131.4" fill="#1F77B4" data-sankey-node-id="9" />
<text x="149" y="306.00000000000404" font-family="DejaVu Sans, sans-serif" font-size="10" text-anchor="start" fill="#262626">Home</text>
<text x="400.66666666666663" y="317.55" font-family="DejaVu Sans, sans-serif" font-size="10" text-anchor="start" fill="#262626">Product</text>
<text x="400.66666666666663" y="482.85" font-family="DejaVu Sans, sans-serif" font-size="10" text-anchor="start" fill="#262626">Category</text>
<text x="400.66666666666663" y="141.29999999999998" font-family="DejaVu Sans, sans-serif" font-size="10" text-anchor="start" fill="#262626">Home</text>
<text x="652.3333333333333" y="145.68000000000004" font-family="DejaVu Sans, sans-serif" font-size="10" text-anchor="start" fill="#262626">Cart</text>
<text x="652.3333333333333" y="478.47" font-family="DejaVu Sans, sans-serif" font-size="10" text-anchor="start" fill="#262626">Product</text>
<text x="652.3333333333333" y="317.55000000000007" font-family="DejaVu Sans, sans-serif" font-size="10" text-anchor="start" fill="#262626">Home</text>
<text x="876" y="182.91000000000003" font-family="DejaVu Sans, sans-serif" font-size="10" text-anchor="end" fill="#262626">Purchase</text>
<text x="876" y="491.61" font-family="DejaVu Sans, sans-serif" font-size="10" text-anchor="end" fill="#262626">Cart</text>
<text x="876" y="367.92" font-family="DejaVu Sans, sans-serif" font-size="10" text-anchor="end" fill="#262626">Home</text>
</svg>
