<svg xmlns="http://www.w3.org/2000/svg" viewBox="0 0 1100 640" width="1100" height="640" style="width:100%;height:auto" role="img" aria-labelledby="chart-title">
<title id="chart-title">Sankey — Severity cascade across four timepoints</title>
<rect x="0" y="0" width="1100" height="640" fill="#FFFFFF" />
<path d="M10.7176 -12.6305L10.7176 -9.87033Q9.64323 -10.3507 8.62126 -10.5953Q7.59928 -10.8399 6.69086 -10.8399Q5.48546 -10.8399 4.90896 -10.508Q4.33247 -10.1761 4.33247 -9.47727Q4.33247 -8.95318 4.72116 -8.66056Q5.10986 -8.36795 6.13184 -8.15831L7.56434 -7.87006Q9.73931 -7.43332 10.6565 -6.54237Q11.5736 -5.65142 11.5736 -4.00928Q11.5736 -1.85178 10.294 -0.799235Q9.01432 0.253309 6.38515 0.253309Q5.1448 0.253309 3.89573 0.0174696Q2.64665 -0.21837 1.39757 -0.681315L1.39757 -3.52013Q2.64665 -2.85628 3.81274 -2.51999Q4.97884 -2.1837 6.06196 -2.1837Q7.16254 -2.1837 7.74778 -2.55056Q8.33301 -2.91743 8.33301 -3.59874Q8.33301 -4.21018 7.93557 -4.5421Q7.53814 -4.87402 6.35021 -5.13607L5.04872 -5.42432Q3.09212 -5.84359 2.18807 -6.76074Q1.28402 -7.6779 1.28402 -9.23269Q1.28402 -11.1806 2.54183 -12.2287Q3.79964 -13.2769 6.15804 -13.2769Q7.23242 -13.2769 8.36795 -13.1153Q9.50347 -12.9537 10.7176 -12.6305ZM18.7711 -4.40234Q17.7928 -4.40234 17.2993 -4.07042Q16.8058 -3.7385 16.8058 -3.09212Q16.8058 -2.49816 17.2032 -2.16187Q17.6006 -1.82558 18.3082 -1.82558Q19.1904 -1.82558 19.7931 -2.45885Q20.3958 -3.09212 20.3958 -4.04422L20.3958 -4.40234L18.7711 -4.40234ZM23.549 -5.58154L23.549 0L20.3958 0L20.3958 -1.44998Q19.7669 -0.559028 18.9807 -0.152859Q18.1946 0.253309 17.0678 0.253309Q15.548 0.253309 14.6002 -0.633274Q13.6525 -1.51986 13.6525 -2.9349Q13.6525 -4.65565 14.8361 -5.45926Q16.0196 -6.26286 18.5527 -6.26286L20.3958 -6.26286L20.3958 -6.50743Q20.3958 -7.24989 19.8105 -7.59492Q19.2253 -7.93994 17.985 -7.93994Q16.9805 -7.93994 16.1157 -7.73904Q15.251 -7.53814 14.5085 -7.13634L14.5085 -9.52094Q15.513 -9.76552 16.5263 -9.89217Q17.5395 -10.0188 18.5527 -10.0188Q21.1994 -10.0188 22.3742 -8.97502Q23.549 -7.93121 23.549 -5.58154ZM36.2931 -5.95714L36.2931 0L33.1486 0L33.1486 -0.969564L33.1486 -4.55957Q33.1486 -5.82612 33.0918 -6.30653Q33.035 -6.78695 32.8953 -7.01405Q32.7119 -7.31977 32.3974 -7.4901Q32.083 -7.66043 31.6812 -7.66043Q30.7029 -7.66043 30.1438 -6.90487Q29.5848 -6.14931 29.5848 -4.81288L29.5848 0L26.4577 0L26.4577 -9.78299L29.5848 -9.78299L29.5848 -8.35048Q30.2923 -9.20649 31.0872 -9.61266Q31.8821 -10.0188 32.8429 -10.0188Q34.5374 -10.0188 35.4153 -8.97938Q36.2931 -7.93994 36.2931 -5.95714ZM39.1931 -13.5914L42.3201 -13.5914L42.3201 -6.19298L45.9189 -9.78299L49.5526 -9.78299L44.7746 -5.29329L49.9282 0L46.1373 0L42.3201 -4.07916L42.3201 0L39.1931 0L39.1931 -13.5914ZM60.8554 -4.9177L60.8554 -4.02675L53.5444 -4.02675Q53.6579 -2.92616 54.3392 -2.37587Q55.0206 -1.82558 56.2434 -1.82558Q57.2305 -1.82558 58.2655 -2.11819Q59.3006 -2.41081 60.3925 -3.00477L60.3925 -0.593967Q59.2831 -0.174696 58.1738 0.0393066Q57.0645 0.253309 55.9552 0.253309Q53.2998 0.253309 51.828 -1.09622Q50.3562 -2.44575 50.3562 -4.88276Q50.3562 -7.2761 51.8018 -8.64746Q53.2474 -10.0188 55.7805 -10.0188Q58.0865 -10.0188 59.4709 -8.62999Q60.8554 -7.24116 60.8554 -4.9177ZM57.641 -5.95714Q57.641 -6.84809 57.1213 -7.39402Q56.6016 -7.93994 55.763 -7.93994Q54.8546 -7.93994 54.2868 -7.42896Q53.7191 -6.91797 53.5793 -5.95714L57.641 -5.95714ZM61.9385 -9.78299L65.0656 -9.78299L67.6948 -3.14453L69.9309 -9.78299L73.0579 -9.78299L68.9438 0.92589Q68.3237 2.5593 67.4982 3.21004Q66.6728 3.86079 65.3189 3.86079L63.5108 3.86079L63.5108 1.80811L64.4891 1.80811Q65.284 1.80811 65.6465 1.5548Q66.0089 1.30149 66.2099 0.646376L66.2972 0.375597L61.9385 -9.78299ZM80.5699 -6.02702L96.5371 -6.02702L96.5371 -3.77344L80.5699 -3.77344L80.5699 -6.02702ZM114.443 -12.6305L114.443 -9.87033Q113.369 -10.3507 112.347 -10.5953Q111.325 -10.8399 110.417 -10.8399Q109.211 -10.8399 108.635 -10.508Q108.058 -10.1761 108.058 -9.47727Q108.058 -8.95318 108.447 -8.66056Q108.836 -8.36795 109.858 -8.15831L111.29 -7.87006Q113.465 -7.43332 114.382 -6.54237Q115.299 -5.65142 115.299 -4.00928Q115.299 -1.85178 114.02 -0.799235Q112.74 0.253309 110.111 0.253309Q108.871 0.253309 107.622 0.0174696Q106.373 -0.21837 105.123 -0.681315L105.123 -3.52013Q106.373 -2.85628 107.539 -2.51999Q108.705 -2.1837 109.788 -2.1837Q110.888 -2.1837 111.474 -2.55056Q112.059 -2.91743 112.059 -3.59874Q112.059 -4.21018 111.661 -4.5421Q111.264 -4.87402 110.076 -5.13607L108.775 -5.42432Q106.818 -5.84359 105.914 -6.76074Q105.01 -7.6779 105.01 -9.23269Q105.01 -11.1806 106.268 -12.2287Q107.526 -13.2769 109.884 -13.2769Q110.958 -13.2769 112.094 -13.1153Q113.229 -12.9537 114.443 -12.6305ZM127.878 -4.9177L127.878 -4.02675L120.567 -4.02675Q120.68 -2.92616 121.361 -2.37587Q122.043 -1.82558 123.266 -1.82558Q124.253 -1.82558 125.288 -2.11819Q126.323 -2.41081 127.415 -3.00477L127.415 -0.593967Q126.305 -0.174696 125.196 0.0393066Q124.087 0.253309 122.977 0.253309Q120.322 0.253309 118.85 -1.09622Q117.378 -2.44575 117.378 -4.88276Q117.378 -7.2761 118.824 -8.64746Q120.27 -10.0188 122.803 -10.0188Q125.109 -10.0188 126.493 -8.62999Q127.878 -7.24116 127.878 -4.9177ZM124.663 -5.95714Q124.663 -6.84809 124.143 -7.39402Q123.624 -7.93994 122.785 -7.93994Q121.877 -7.93994 121.309 -7.42896Q120.741 -6.91797 120.602 -5.95714L124.663 -5.95714ZM129.013 -9.78299L132.14 -9.78299L134.577 -3.02224L137.005 -9.78299L140.141 -9.78299L136.289 0L132.856 0L129.013 -9.78299ZM151.671 -4.9177L151.671 -4.02675L144.36 -4.02675Q144.474 -2.92616 145.155 -2.37587Q145.836 -1.82558 147.059 -1.82558Q148.046 -1.82558 149.081 -2.11819Q150.116 -2.41081 151.208 -3.00477L151.208 -0.593967Q150.099 -0.174696 148.99 0.0393066Q147.88 0.253309 146.771 0.253309Q144.116 0.253309 142.644 -1.09622Q141.172 -2.44575 141.172 -4.88276Q141.172 -7.2761 142.618 -8.64746Q144.063 -10.0188 146.596 -10.0188Q148.902 -10.0188 150.287 -8.62999Q151.671 -7.24116 151.671 -4.9177ZM148.457 -5.95714Q148.457 -6.84809 147.937 -7.39402Q147.417 -7.93994 146.579 -7.93994Q145.67 -7.93994 145.103 -7.42896Q144.535 -6.91797 144.395 -5.95714L148.457 -5.95714ZM161.306 -7.11887Q160.895 -7.31103 160.489 -7.40275Q160.083 -7.49447 159.672 -7.49447Q158.467 -7.49447 157.816 -6.72144Q157.165 -5.94841 157.165 -4.50716L157.165 0L154.038 0L154.038 -9.78299L157.165 -9.78299L157.165 -8.17578Q157.768 -9.13661 158.55 -9.57772Q159.332 -10.0188 160.423 -10.0188Q160.581 -10.0188 160.764 -10.0057Q160.948 -9.99262 161.297 -9.94895L161.306 -7.11887ZM162.861 -9.78299L165.988 -9.78299L165.988 0L162.861 0L162.861 -9.78299ZM162.861 -13.5914L165.988 -13.5914L165.988 -11.0408L162.861 -11.0408L162.861 -13.5914ZM172.408 -12.5607L172.408 -9.78299L175.631 -9.78299L175.631 -7.54688L172.408 -7.54688L172.408 -3.39784Q172.408 -2.71653 172.678 -2.47632Q172.949 -2.23611 173.753 -2.23611L175.36 -2.23611L175.36 0L172.678 0Q170.827 0 170.054 -0.773031Q169.281 -1.54606 169.281 -3.39784L169.281 -7.54688L167.726 -7.54688L167.726 -9.78299L169.281 -9.78299L169.281 -12.5607L172.408 -12.5607ZM176.26 -9.78299L179.387 -9.78299L182.016 -3.14453L184.252 -9.78299L187.379 -9.78299L183.265 0.92589Q182.645 2.5593 181.819 3.21004Q180.994 3.86079 179.64 3.86079L177.832 3.86079L177.832 1.80811L178.81 1.80811Q179.605 1.80811 179.968 1.5548Q180.33 1.30149 180.531 0.646376L180.618 0.375597L176.26 -9.78299ZM203.338 -9.47727L203.338 -6.9267Q202.7 -7.36344 202.058 -7.57308Q201.416 -7.78271 200.726 -7.78271Q199.416 -7.78271 198.686 -7.01842Q197.957 -6.25412 197.957 -4.88276Q197.957 -3.51139 198.686 -2.7471Q199.416 -1.9828 200.726 -1.9828Q201.46 -1.9828 202.119 -2.20117Q202.779 -2.41954 203.338 -2.84755L203.338 -0.288249C202.848 -0.107729 202.352 0.0276602 201.848 0.11792Q201.093 0.253309 200.333 0.253309Q197.686 0.253309 196.193 -1.10495Q194.699 -2.46322 194.699 -4.88276Q194.699 -7.3023 196.193 -8.66056Q197.686 -10.0188 200.333 -10.0188Q201.102 -10.0188 201.848 -9.88344Q202.595 -9.74805 203.338 -9.47727ZM210.422 -4.40234Q209.443 -4.40234 208.95 -4.07042Q208.456 -3.7385 208.456 -3.09212Q208.456 -2.49816 208.854 -2.16187Q209.251 -1.82558 209.959 -1.82558Q210.841 -1.82558 211.444 -2.45885Q212.046 -3.09212 212.046 -4.04422L212.046 -4.40234L210.422 -4.40234ZM215.199 -5.58154L215.199 0L212.046 0L212.046 -1.44998Q211.417 -0.559028 210.631 -0.152859Q209.845 0.253309 208.718 0.253309Q207.198 0.253309 206.251 -0.633274Q205.303 -1.51986 205.303 -2.9349Q205.303 -4.65565 206.487 -5.45926Q207.67 -6.26286 210.203 -6.26286L212.046 -6.26286L212.046 -6.50743Q212.046 -7.24989 211.461 -7.59492Q210.876 -7.93994 209.635 -7.93994Q208.631 -7.93994 207.766 -7.73904Q206.901 -7.53814 206.159 -7.13634L206.159 -9.52094Q207.163 -9.76552 208.177 -9.89217Q209.19 -10.0188 210.203 -10.0188Q212.85 -10.0188 214.025 -8.97502Q215.199 -7.93121 215.199 -5.58154ZM225.751 -9.47727L225.751 -7.1014Q224.747 -7.52067 223.812 -7.73031Q222.877 -7.93994 222.048 -7.93994Q221.157 -7.93994 220.724 -7.7172Q220.292 -7.49447 220.292 -7.03152Q220.292 -6.65592 220.619 -6.45502Q220.947 -6.25412 221.794 -6.15804L222.345 -6.07943Q224.747 -5.77371 225.576 -5.07492Q226.406 -4.37614 226.406 -2.88249Q226.406 -1.31896 225.253 -0.532823Q224.1 0.253309 221.812 0.253309Q220.842 0.253309 219.807 0.10045Q218.772 -0.0524089 217.68 -0.358127L217.68 -2.734Q218.615 -2.27978 219.597 -2.05268Q220.58 -1.82557 221.593 -1.82558Q222.511 -1.82558 222.973 -2.07888Q223.436 -2.33219 223.436 -2.83008Q223.436 -3.24935 223.118 -3.45462Q222.799 -3.65989 221.847 -3.77344L221.296 -3.84332Q219.209 -4.10536 218.37 -4.81288Q217.532 -5.5204 217.532 -6.96164Q217.532 -8.51644 218.597 -9.26763Q219.663 -10.0188 221.864 -10.0188Q222.729 -10.0188 223.681 -9.8878Q224.633 -9.75678 225.751 -9.47727ZM236.661 -9.47727L236.661 -6.9267Q236.023 -7.36344 235.381 -7.57308Q234.739 -7.78271 234.049 -7.78271Q232.739 -7.78271 232.01 -7.01842Q231.28 -6.25412 231.28 -4.88276Q231.28 -3.51139 232.01 -2.7471Q232.739 -1.9828 234.049 -1.9828Q234.783 -1.9828 235.442 -2.20117Q236.102 -2.41954 236.661 -2.84755L236.661 -0.288249C236.172 -0.107729 235.675 0.0276602 235.172 0.11792Q234.416 0.253309 233.656 0.253309Q231.009 0.253309 229.516 -1.10495Q228.022 -2.46322 228.022 -4.88276Q228.022 -7.3023 229.516 -8.66056Q231.009 -10.0188 233.656 -10.0188Q234.425 -10.0188 235.172 -9.88344Q235.918 -9.74805 236.661 -9.47727ZM243.745 -4.40234Q242.767 -4.40234 242.273 -4.07042Q241.78 -3.7385 241.78 -3.09212Q241.78 -2.49816 242.177 -2.16187Q242.574 -1.82558 243.282 -1.82558Q244.164 -1.82558 244.767 -2.45885Q245.37 -3.09212 245.37 -4.04422L245.37 -4.40234L243.745 -4.40234ZM248.523 -5.58154L248.523 0L245.37 0L245.37 -1.44998Q244.741 -0.559028 243.954 -0.152859Q243.168 0.253309 242.042 0.253309Q240.522 0.253309 239.574 -0.633274Q238.626 -1.51986 238.626 -2.9349Q238.626 -4.65565 239.81 -5.45926Q240.993 -6.26286 243.526 -6.26286L245.37 -6.26286L245.37 -6.50743Q245.37 -7.24989 244.784 -7.59492Q244.199 -7.93994 242.959 -7.93994Q241.954 -7.93994 241.089 -7.73904Q240.225 -7.53814 239.482 -7.13634L239.482 -9.52094Q240.487 -9.76552 241.5 -9.89217Q242.513 -10.0188 243.526 -10.0188Q246.173 -10.0188 247.348 -8.97502Q248.523 -7.93121 248.523 -5.58154ZM258.087 -8.35048L258.087 -13.5914L261.232 -13.5914L261.232 0L258.087 0L258.087 -1.41504Q257.441 -0.550293 256.664 -0.148492Q255.886 0.253309 254.864 0.253309Q253.056 0.253309 251.894 -1.18357Q250.733 -2.62044 250.733 -4.88276Q250.733 -7.14507 251.894 -8.58195Q253.056 -10.0188 254.864 -10.0188Q255.878 -10.0188 256.659 -9.61266Q257.441 -9.20649 258.087 -8.35048ZM256.026 -2.01774Q257.03 -2.01774 257.559 -2.75146Q258.087 -3.48519 258.087 -4.88276Q258.087 -6.28033 257.559 -7.01405Q257.03 -7.74778 256.026 -7.74778Q255.03 -7.74778 254.502 -7.01405Q253.973 -6.28033 253.973 -4.88276Q253.973 -3.48519 254.502 -2.75146Q255.03 -2.01774 256.026 -2.01774ZM274.002 -4.9177L274.002 -4.02675L266.691 -4.02675Q266.805 -2.92616 267.486 -2.37587Q268.167 -1.82558 269.39 -1.82558Q270.377 -1.82558 271.412 -2.11819Q272.447 -2.41081 273.539 -3.00477L273.539 -0.593967Q272.43 -0.174696 271.321 0.0393066Q270.211 0.253309 269.102 0.253309Q266.447 0.253309 264.975 -1.09622Q263.503 -2.44575 263.503 -4.88276Q263.503 -7.2761 264.949 -8.64746Q266.394 -10.0188 268.927 -10.0188Q271.233 -10.0188 272.618 -8.62999Q274.002 -7.24116 274.002 -4.9177ZM270.788 -5.95714Q270.788 -6.84809 270.268 -7.39402Q269.748 -7.93994 268.91 -7.93994Q268.001 -7.93994 267.434 -7.42896Q266.866 -6.91797 266.726 -5.95714L270.788 -5.95714ZM286.982 -4.40234Q286.004 -4.40234 285.51 -4.07042Q285.017 -3.7385 285.017 -3.09212Q285.017 -2.49816 285.414 -2.16187Q285.812 -1.82558 286.519 -1.82558Q287.401 -1.82558 288.004 -2.45885Q288.607 -3.09212 288.607 -4.04422L288.607 -4.40234L286.982 -4.40234ZM291.76 -5.58154L291.76 0L288.607 0L288.607 -1.44998Q287.978 -0.559028 287.192 -0.152859Q286.406 0.253309 285.279 0.253309Q283.759 0.253309 282.811 -0.633274Q281.864 -1.51986 281.864 -2.9349Q281.864 -4.65565 283.047 -5.45926Q284.231 -6.26286 286.764 -6.26286L288.607 -6.26286L288.607 -6.50743Q288.607 -7.24989 288.022 -7.59492Q287.436 -7.93994 286.196 -7.93994Q285.191 -7.93994 284.327 -7.73904Q283.462 -7.53814 282.72 -7.13634L282.72 -9.52094Q283.724 -9.76552 284.737 -9.89217Q285.751 -10.0188 286.764 -10.0188Q289.41 -10.0188 290.585 -8.97502Q291.76 -7.93121 291.76 -5.58154ZM302.574 -9.47727L302.574 -6.9267Q301.936 -7.36344 301.294 -7.57308Q300.652 -7.78271 299.962 -7.78271Q298.652 -7.78271 297.922 -7.01842Q297.193 -6.25412 297.193 -4.88276Q297.193 -3.51139 297.922 -2.7471Q298.652 -1.9828 299.962 -1.9828Q300.696 -1.9828 301.355 -2.20117Q302.015 -2.41954 302.574 -2.84755L302.574 -0.288249C302.085 -0.107729 301.588 0.0276602 301.084 0.11792Q300.329 0.253309 299.569 0.253309Q296.922 0.253309 295.429 -1.10495Q293.935 -2.46322 293.935 -4.88276Q293.935 -7.3023 295.429 -8.66056Q296.922 -10.0188 299.569 -10.0188Q300.338 -10.0188 301.084 -9.88344Q301.831 -9.74805 302.574 -9.47727ZM312.54 -7.11887Q312.13 -7.31103 311.723 -7.40275Q311.317 -7.49447 310.907 -7.49447Q309.701 -7.49447 309.051 -6.72144Q308.4 -5.94841 308.4 -4.50716L308.4 0L305.273 0L305.273 -9.78299L308.4 -9.78299L308.4 -8.17578Q309.003 -9.13661 309.784 -9.57772Q310.566 -10.0188 311.658 -10.0188Q311.815 -10.0188 311.999 -10.0057Q312.182 -9.99262 312.531 -9.94895L312.54 -7.11887ZM318.751 -7.78271Q317.711 -7.78271 317.165 -7.03589Q316.619 -6.28906 316.619 -4.88276Q316.619 -3.47645 317.165 -2.72963Q317.711 -1.9828 318.751 -1.9828Q319.773 -1.9828 320.314 -2.72963Q320.856 -3.47645 320.856 -4.88276Q320.856 -6.28906 320.314 -7.03589Q319.773 -7.78271 318.751 -7.78271ZM318.751 -10.0188Q321.275 -10.0188 322.694 -8.6562Q324.114 -7.29357 324.114 -4.88276Q324.114 -2.47195 322.694 -1.10932Q321.275 0.253309 318.751 0.253309Q316.218 0.253309 314.789 -1.10932Q313.361 -2.47195 313.361 -4.88276Q313.361 -7.29357 314.789 -8.6562Q316.218 -10.0188 318.751 -10.0188ZM334.028 -9.47727L334.028 -7.1014Q333.023 -7.52067 332.089 -7.73031Q331.154 -7.93994 330.324 -7.93994Q329.433 -7.93994 329.001 -7.7172Q328.569 -7.49447 328.569 -7.03152Q328.569 -6.65592 328.896 -6.45502Q329.224 -6.25412 330.071 -6.15804L330.621 -6.07943Q333.023 -5.77371 333.853 -5.07492Q334.683 -4.37614 334.683 -2.88249Q334.683 -1.31896 333.53 -0.532823Q332.377 0.253309 330.088 0.253309Q329.119 0.253309 328.084 0.10045Q327.049 -0.0524089 325.957 -0.358127L325.957 -2.734Q326.891 -2.27978 327.874 -2.05268Q328.857 -1.82557 329.87 -1.82558Q330.787 -1.82558 331.25 -2.07888Q331.713 -2.33219 331.713 -2.83008Q331.713 -3.24935 331.394 -3.45462Q331.075 -3.65989 330.123 -3.77344L329.573 -3.84332Q327.485 -4.10536 326.647 -4.81288Q325.808 -5.5204 325.808 -6.96164Q325.808 -8.51644 326.874 -9.26763Q327.94 -10.0188 330.141 -10.0188Q331.006 -10.0188 331.958 -9.8878Q332.91 -9.75678 334.028 -9.47727ZM344.676 -9.47727L344.676 -7.1014Q343.671 -7.52067 342.736 -7.73031Q341.802 -7.93994 340.972 -7.93994Q340.081 -7.93994 339.649 -7.7172Q339.216 -7.49447 339.216 -7.03152Q339.216 -6.65592 339.544 -6.45502Q339.871 -6.25412 340.719 -6.15804L341.269 -6.07943Q343.671 -5.77371 344.501 -5.07492Q345.331 -4.37614 345.331 -2.88249Q345.331 -1.31896 344.178 -0.532823Q343.025 0.253309 340.736 0.253309Q339.767 0.253309 338.732 0.10045Q337.696 -0.0524089 336.605 -0.358127L336.605 -2.734Q337.539 -2.27978 338.522 -2.05268Q339.505 -1.82557 340.518 -1.82558Q341.435 -1.82558 341.898 -2.07888Q342.361 -2.33219 342.361 -2.83008Q342.361 -3.24935 342.042 -3.45462Q341.723 -3.65989 340.771 -3.77344L340.221 -3.84332Q338.133 -4.10536 337.295 -4.81288Q336.456 -5.5204 336.456 -6.96164Q336.456 -8.51644 337.522 -9.26763Q338.587 -10.0188 340.789 -10.0188Q341.653 -10.0188 342.605 -9.8878Q343.557 -9.75678 344.676 -9.47727ZM360.346 -13.5914L360.346 -11.5387L358.616 -11.5387Q357.952 -11.5387 357.69 -11.2985Q357.428 -11.0583 357.428 -10.4643L357.428 -9.78299L360.101 -9.78299L360.101 -7.54688L357.428 -7.54688L357.428 0L354.301 0L354.301 -7.54688L352.747 -7.54688L352.747 -9.78299L354.301 -9.78299L354.301 -10.4643Q354.301 -12.0628 355.192 -12.8271Q356.083 -13.5914 357.952 -13.5914L360.346 -13.5914ZM366.347 -7.78271Q365.307 -7.78271 364.761 -7.03589Q364.215 -6.28906 364.215 -4.88276Q364.215 -3.47645 364.761 -2.72963Q365.307 -1.9828 366.347 -1.9828Q367.369 -1.9828 367.91 -2.72963Q368.452 -3.47645 368.452 -4.88276Q368.452 -6.28906 367.91 -7.03589Q367.369 -7.78271 366.347 -7.78271ZM366.347 -10.0188Q368.871 -10.0188 370.29 -8.6562Q371.71 -7.29357 371.71 -4.88276Q371.71 -2.47195 370.29 -1.10932Q368.871 0.253309 366.347 0.253309Q363.814 0.253309 362.385 -1.10932Q360.957 -2.47195 360.957 -4.88276Q360.957 -7.29357 362.385 -8.6562Q363.814 -10.0188 366.347 -10.0188ZM373.876 -3.80838L373.876 -9.78299L377.021 -9.78299L377.021 -8.80469Q377.021 -8.00982 377.012 -6.80878Q377.003 -5.60775 377.003 -5.20595Q377.003 -4.02675 377.064 -3.50703Q377.125 -2.9873 377.274 -2.75146Q377.466 -2.44575 377.776 -2.27979Q378.086 -2.11382 378.488 -2.11382Q379.466 -2.11382 380.025 -2.86502Q380.584 -3.61621 380.584 -4.95264L380.584 -9.78299L383.711 -9.78299L383.711 0L380.584 0L380.584 -1.41504Q379.877 -0.559028 379.086 -0.152859Q378.296 0.253309 377.344 0.253309Q375.649 0.253309 374.763 -0.786133Q373.876 -1.82558 373.876 -3.80838ZM393.984 -7.11887Q393.573 -7.31103 393.167 -7.40275Q392.761 -7.49447 392.35 -7.49447Q391.145 -7.49447 390.494 -6.72144Q389.843 -5.94841 389.843 -4.50716L389.843 0L386.716 0L386.716 -9.78299L389.843 -9.78299L389.843 -8.17578Q390.446 -9.13661 391.228 -9.57772Q392.009 -10.0188 393.101 -10.0188Q393.259 -10.0188 393.442 -10.0057Q393.625 -9.99262 393.975 -9.94895L393.984 -7.11887ZM405.182 -12.5607L405.182 -9.78299L408.405 -9.78299L408.405 -7.54688L405.182 -7.54688L405.182 -3.39784Q405.182 -2.71653 405.452 -2.47632Q405.723 -2.23611 406.527 -2.23611L408.134 -2.23611L408.134 0L405.452 0Q403.601 0 402.828 -0.773031Q402.055 -1.54606 402.055 -3.39784L402.055 -7.54688L400.5 -7.54688L400.5 -9.78299L402.055 -9.78299L402.055 -12.5607L405.182 -12.5607ZM410.318 -9.78299L413.445 -9.78299L413.445 0L410.318 0L410.318 -9.78299ZM410.318 -13.5914L413.445 -13.5914L413.445 -11.0408L410.318 -11.0408L410.318 -13.5914ZM425.516 -8.15831Q426.11 -9.06673 426.927 -9.54278Q427.744 -10.0188 428.722 -10.0188Q430.408 -10.0188 431.29 -8.97938Q432.172 -7.93994 432.172 -5.95714L432.172 0L429.028 0L429.028 -5.10113Q429.036 -5.21468 429.041 -5.33697Q429.045 -5.45926 429.045 -5.68636Q429.045 -6.7258 428.739 -7.19312Q428.434 -7.66043 427.752 -7.66043Q426.861 -7.66043 426.377 -6.9267Q425.892 -6.19298 425.874 -4.80414L425.874 0L422.73 0L422.73 -5.10113Q422.73 -6.7258 422.45 -7.19312Q422.171 -7.66043 421.455 -7.66043Q420.555 -7.66043 420.066 -6.92234Q419.577 -6.18424 419.577 -4.81288L419.577 0L416.432 0L416.432 -9.78299L419.577 -9.78299L419.577 -8.35048Q420.153 -9.18028 420.9 -9.59956Q421.647 -10.0188 422.546 -10.0188Q423.56 -10.0188 424.337 -9.52968Q425.114 -9.04053 425.516 -8.15831ZM444.855 -4.9177L444.855 -4.02675L437.544 -4.02675Q437.658 -2.92616 438.339 -2.37587Q439.02 -1.82558 440.243 -1.82558Q441.23 -1.82558 442.265 -2.11819Q443.3 -2.41081 444.392 -3.00477L444.392 -0.593967Q443.283 -0.174696 442.173 0.0393066Q441.064 0.253309 439.955 0.253309Q437.299 0.253309 435.828 -1.09622Q434.356 -2.44575 434.356 -4.88276Q434.356 -7.2761 435.801 -8.64746Q437.247 -10.0188 439.78 -10.0188Q442.086 -10.0188 443.471 -8.62999Q444.855 -7.24116 444.855 -4.9177ZM441.641 -5.95714Q441.641 -6.84809 441.121 -7.39402Q440.601 -7.93994 439.763 -7.93994Q438.854 -7.93994 438.286 -7.42896Q437.719 -6.91797 437.579 -5.95714L441.641 -5.95714ZM450.349 -1.41504L450.349 3.72103L447.222 3.72103L447.222 -9.78299L450.349 -9.78299L450.349 -8.35048Q450.996 -9.20649 451.782 -9.61266Q452.568 -10.0188 453.59 -10.0188Q455.398 -10.0188 456.56 -8.58195Q457.721 -7.14507 457.721 -4.88276Q457.721 -2.62044 456.56 -1.18357Q455.398 0.253309 453.59 0.253309Q452.568 0.253309 451.782 -0.152859Q450.996 -0.559028 450.349 -1.41504ZM452.428 -7.74778Q451.424 -7.74778 450.886 -7.00968Q450.349 -6.27159 450.349 -4.88276Q450.349 -3.49392 450.886 -2.75583Q451.424 -2.01774 452.428 -2.01774Q453.433 -2.01774 453.961 -2.75146Q454.49 -3.48519 454.49 -4.88276Q454.49 -6.28033 453.961 -7.01405Q453.433 -7.74778 452.428 -7.74778ZM464.683 -7.78271Q463.644 -7.78271 463.098 -7.03589Q462.552 -6.28906 462.552 -4.88276Q462.552 -3.47645 463.098 -2.72963Q463.644 -1.9828 464.683 -1.9828Q465.705 -1.9828 466.247 -2.72963Q466.788 -3.47645 466.788 -4.88276Q466.788 -6.28906 466.247 -7.03589Q465.705 -7.78271 464.683 -7.78271ZM464.683 -10.0188Q467.207 -10.0188 468.627 -8.6562Q470.046 -7.29357 470.046 -4.88276Q470.046 -2.47195 468.627 -1.10932Q467.207 0.253309 464.683 0.253309Q462.15 0.253309 460.722 -1.10932Q459.294 -2.47195 459.294 -4.88276Q459.294 -7.29357 460.722 -8.6562Q462.15 -10.0188 464.683 -10.0188ZM472.317 -9.78299L475.444 -9.78299L475.444 0L472.317 0L472.317 -9.78299ZM472.317 -13.5914L475.444 -13.5914L475.444 -11.0408L472.317 -11.0408L472.317 -13.5914ZM488.285 -5.95714L488.285 0L485.14 0L485.14 -0.969564L485.14 -4.55957Q485.14 -5.82612 485.083 -6.30653Q485.026 -6.78695 484.887 -7.01405Q484.703 -7.31977 484.389 -7.4901Q484.074 -7.66043 483.673 -7.66043Q482.694 -7.66043 482.135 -6.90487Q481.576 -6.14931 481.576 -4.81288L481.576 0L478.449 0L478.449 -9.78299L481.576 -9.78299L481.576 -8.35048Q482.284 -9.20649 483.079 -9.61266Q483.873 -10.0188 484.834 -10.0188Q486.529 -10.0188 487.407 -8.97938Q488.285 -7.93994 488.285 -5.95714ZM494.6 -12.5607L494.6 -9.78299L497.823 -9.78299L497.823 -7.54688L494.6 -7.54688L494.6 -3.39784Q494.6 -2.71653 494.871 -2.47632Q495.141 -2.23611 495.945 -2.23611L497.552 -2.23611L497.552 0L494.871 0Q493.019 0 492.246 -0.773031Q491.473 -1.54606 491.473 -3.39784L491.473 -7.54688L489.918 -7.54688L489.918 -9.78299L491.473 -9.78299L491.473 -12.5607L494.6 -12.5607ZM507.379 -9.47727L507.379 -7.1014Q506.374 -7.52067 505.44 -7.73031Q504.505 -7.93994 503.675 -7.93994Q502.784 -7.93994 502.352 -7.7172Q501.92 -7.49447 501.92 -7.03152Q501.92 -6.65592 502.247 -6.45502Q502.575 -6.25412 503.422 -6.15804L503.972 -6.07943Q506.374 -5.77371 507.204 -5.07492Q508.034 -4.37614 508.034 -2.88249Q508.034 -1.31896 506.881 -0.532823Q505.728 0.253309 503.439 0.253309Q502.47 0.253309 501.435 0.10045Q500.4 -0.0524089 499.308 -0.358127L499.308 -2.734Q500.243 -2.27978 501.225 -2.05268Q502.208 -1.82557 503.221 -1.82558Q504.138 -1.82558 504.601 -2.07888Q505.064 -2.33219 505.064 -2.83008Q505.064 -3.24935 504.745 -3.45462Q504.427 -3.65989 503.474 -3.77344L502.924 -3.84332Q500.836 -4.10536 499.998 -4.81288Q499.159 -5.5204 499.159 -6.96164Q499.159 -8.51644 500.225 -9.26763Q501.291 -10.0188 503.492 -10.0188Q504.357 -10.0188 505.309 -9.8878Q506.261 -9.75678 507.379 -9.47727Z" fill="#262626" transform="translate(550,24.099999999999998) translate(-254.4406280517578,0)" />
<rect x="138" y="77" width="852" height="493" fill="#FFFFFF" />
<defs><linearGradient id="grad-0" gradientUnits="userSpaceOnUse" x1="712" y1="76.99999999999997" x2="972" y2="87.00000000000006"><stop offset="0" stop-color="#4CAF50" stop-opacity="0.4" /><stop offset="1" stop-color="#2196F3" stop-opacity="0.4" /></linearGradient></defs>
<path d="M 712 76.99999999999997 C 842 76.99999999999997 842 87.00000000000006 972 87.00000000000006 L 972 222.04166666666674 C 842 222.04166666666674 842 212.04166666666663 712 212.04166666666663 Z " fill="url(#grad-0)" data-sankey-link-source="7" data-sankey-link-target="11" />
<defs><linearGradient id="grad-1" gradientUnits="userSpaceOnUse" x1="712" y1="212.04166666666663" x2="972" y2="432.67500000000007"><stop offset="0" stop-color="#4CAF50" stop-opacity="0.4" /><stop offset="1" stop-color="#FFC107" stop-opacity="0.4" /></linearGradient></defs>
<path d="M 712 212.04166666666663 C 842 212.04166666666663 842 432.67500000000007 972 432.67500000000007 L 972 444.25000000000006 C 842 444.25000000000006 842 223.61666666666662 712 223.61666666666662 Z " fill="url(#grad-1)" data-sankey-link-source="7" data-sankey-link-target="12" />
<defs><linearGradient id="grad-2" gradientUnits="userSpaceOnUse" x1="434" y1="77.00000000000003" x2="694" y2="76.99999999999997"><stop offset="0" stop-color="#4CAF50" stop-opacity="0.4" /><stop offset="1" stop-color="#4CAF50" stop-opacity="0.4" /></linearGradient></defs>
<path d="M 434 77.00000000000003 C 564 77.00000000000003 564 76.99999999999997 694 76.99999999999997 L 694 192.75 C 564 192.75 564 192.75000000000006 434 192.75000000000006 Z " fill="url(#grad-2)" data-sankey-link-source="3" data-sankey-link-target="7" />
<defs><linearGradient id="grad-3" gradientUnits="userSpaceOnUse" x1="434" y1="192.75000000000006" x2="694" y2="233.61666666666667"><stop offset="0" stop-color="#4CAF50" stop-opacity="0.4" /><stop offset="1" stop-color="#2196F3" stop-opacity="0.4" /></linearGradient></defs>
<path d="M 434 192.75000000000006 C 564 192.75000000000006 564 233.61666666666667 694 233.61666666666667 L 694 272.2 C 564 272.2 564 231.3333333333334 434 231.3333333333334 Z " fill="url(#grad-3)" data-sankey-link-source="3" data-sankey-link-target="10" />
<defs><linearGradient id="grad-4" gradientUnits="userSpaceOnUse" x1="434" y1="231.33333333333337" x2="694" y2="405.6666666666667"><stop offset="0" stop-color="#4CAF50" stop-opacity="0.4" /><stop offset="1" stop-color="#FFC107" stop-opacity="0.4" /></linearGradient></defs>
<path d="M 434 231.33333333333337 C 564 231.33333333333337 564 405.6666666666667 694 405.6666666666667 L 694 428.81666666666666 C 564 428.81666666666666 564 254.48333333333338 434 254.48333333333338 Z " fill="url(#grad-4)" data-sankey-link-source="3" data-sankey-link-target="8" />
<defs><linearGradient id="grad-5" gradientUnits="userSpaceOnUse" x1="156" y1="86.99999999999997" x2="416" y2="77.00000000000003"><stop offset="0" stop-color="#4CAF50" stop-opacity="0.4" /><stop offset="1" stop-color="#4CAF50" stop-opacity="0.4" /></linearGradient></defs>
<path d="M 156 86.99999999999997 C 286 86.99999999999997 286 77.00000000000003 416 77.00000000000003 L 416 231.33333333333337 C 286 231.33333333333337 286 241.3333333333333 156 241.3333333333333 Z " fill="url(#grad-5)" data-sankey-link-source="0" data-sankey-link-target="3" />
<defs><linearGradient id="grad-6" gradientUnits="userSpaceOnUse" x1="156" y1="241.3333333333333" x2="416" y2="264.48333333333335"><stop offset="0" stop-color="#4CAF50" stop-opacity="0.4" /><stop offset="1" stop-color="#2196F3" stop-opacity="0.4" /></linearGradient></defs>
<path d="M 156 241.3333333333333 C 286 241.3333333333333 286 264.48333333333335 416 264.48333333333335 L 416 310.78333333333336 C 286 310.78333333333336 286 287.63333333333327 156 287.63333333333327 Z " fill="url(#grad-6)" data-sankey-link-source="0" data-sankey-link-target="6" />
<defs><linearGradient id="grad-7" gradientUnits="userSpaceOnUse" x1="156" y1="287.6333333333333" x2="416" y2="347.7916666666667"><stop offset="0" stop-color="#4CAF50" stop-opacity="0.4" /><stop offset="1" stop-color="#FFC107" stop-opacity="0.4" /></linearGradient></defs>
<path d="M 156 287.6333333333333 C 286 287.6333333333333 286 347.7916666666667 416 347.7916666666667 L 416 378.65833333333336 C 286 378.65833333333336 286 318.5 156 318.5 Z " fill="url(#grad-7)" data-sankey-link-source="0" data-sankey-link-target="4" />
<defs><linearGradient id="grad-8" gradientUnits="userSpaceOnUse" x1="712" y1="233.61666666666667" x2="972" y2="222.04166666666674"><stop offset="0" stop-color="#2196F3" stop-opacity="0.4" /><stop offset="1" stop-color="#2196F3" stop-opacity="0.4" /></linearGradient></defs>
<path d="M 712 233.61666666666667 C 842 233.61666666666667 842 222.04166666666674 972 222.04166666666674 L 972 384.09166666666675 C 842 384.09166666666675 842 395.6666666666667 712 395.6666666666667 Z " fill="url(#grad-8)" data-sankey-link-source="10" data-sankey-link-target="11" />
<defs><linearGradient id="grad-9" gradientUnits="userSpaceOnUse" x1="434" y1="264.48333333333335" x2="694" y2="272.2"><stop offset="0" stop-color="#2196F3" stop-opacity="0.4" /><stop offset="1" stop-color="#2196F3" stop-opacity="0.4" /></linearGradient></defs>
<path d="M 434 264.48333333333335 C 564 264.48333333333335 564 272.2 694 272.2 L 694 345.5083333333333 C 564 345.5083333333333 564 337.7916666666667 434 337.7916666666667 Z " fill="url(#grad-9)" data-sankey-link-source="6" data-sankey-link-target="10" />
<defs><linearGradient id="grad-10" gradientUnits="userSpaceOnUse" x1="156" y1="328.5" x2="416" y2="231.33333333333337"><stop offset="0" stop-color="#FFC107" stop-opacity="0.4" /><stop offset="1" stop-color="#4CAF50" stop-opacity="0.4" /></linearGradient></defs>
<path d="M 156 328.5 C 286 328.5 286 231.33333333333337 416 231.33333333333337 L 416 254.48333333333338 C 286 254.48333333333338 286 351.65 156 351.65 Z " fill="url(#grad-10)" data-sankey-link-source="1" data-sankey-link-target="3" />
<defs><linearGradient id="grad-11" gradientUnits="userSpaceOnUse" x1="156" y1="351.65" x2="416" y2="310.78333333333336"><stop offset="0" stop-color="#FFC107" stop-opacity="0.4" /><stop offset="1" stop-color="#2196F3" stop-opacity="0.4" /></linearGradient></defs>
<path d="M 156 351.65 C 286 351.65 286 310.78333333333336 416 310.78333333333336 L 416 330.07500000000005 C 286 330.07500000000005 286 370.94166666666666 156 370.94166666666666 Z " fill="url(#grad-11)" data-sankey-link-source="1" data-sankey-link-target="6" />
<defs><linearGradient id="grad-12" gradientUnits="userSpaceOnUse" x1="156" y1="370.94166666666666" x2="416" y2="378.65833333333336"><stop offset="0" stop-color="#FFC107" stop-opacity="0.4" /><stop offset="1" stop-color="#FFC107" stop-opacity="0.4" /></linearGradient></defs>
<path d="M 156 370.94166666666666 C 286 370.94166666666666 286 378.65833333333336 416 378.65833333333336 L 416 463.5416666666667 C 286 463.5416666666667 286 455.825 156 455.825 Z " fill="url(#grad-12)" data-sankey-link-source="1" data-sankey-link-target="4" />
<defs><linearGradient id="grad-13" gradientUnits="userSpaceOnUse" x1="156" y1="455.82500000000005" x2="416" y2="488.975"><stop offset="0" stop-color="#FFC107" stop-opacity="0.4" /><stop offset="1" stop-color="#F44336" stop-opacity="0.4" /></linearGradient></defs>
<path d="M 156 455.82500000000005 C 286 455.82500000000005 286 488.975 416 488.975 L 416 515.9833333333333 C 286 515.9833333333333 286 482.83333333333337 156 482.83333333333337 Z " fill="url(#grad-13)" data-sankey-link-source="1" data-sankey-link-target="5" />
<defs><linearGradient id="grad-14" gradientUnits="userSpaceOnUse" x1="434" y1="347.7916666666667" x2="694" y2="192.75"><stop offset="0" stop-color="#FFC107" stop-opacity="0.4" /><stop offset="1" stop-color="#4CAF50" stop-opacity="0.4" /></linearGradient></defs>
<path d="M 434 347.7916666666667 C 564 347.7916666666667 564 192.75 694 192.75 L 694 223.61666666666667 C 564 223.61666666666667 564 378.65833333333336 434 378.65833333333336 Z " fill="url(#grad-14)" data-sankey-link-source="4" data-sankey-link-target="7" />
<defs><linearGradient id="grad-15" gradientUnits="userSpaceOnUse" x1="434" y1="378.65833333333336" x2="694" y2="345.5083333333333"><stop offset="0" stop-color="#FFC107" stop-opacity="0.4" /><stop offset="1" stop-color="#2196F3" stop-opacity="0.4" /></linearGradient></defs>
<path d="M 434 378.65833333333336 C 564 378.65833333333336 564 345.5083333333333 694 345.5083333333333 L 694 372.51666666666665 C 564 372.51666666666665 564 405.6666666666667 434 405.6666666666667 Z " fill="url(#grad-15)" data-sankey-link-source="4" data-sankey-link-target="10" />
<defs><linearGradient id="grad-16" gradientUnits="userSpaceOnUse" x1="434" y1="405.6666666666667" x2="694" y2="428.81666666666666"><stop offset="0" stop-color="#FFC107" stop-opacity="0.4" /><stop offset="1" stop-color="#FFC107" stop-opacity="0.4" /></linearGradient></defs>
<path d="M 434 405.6666666666667 C 564 405.6666666666667 564 428.81666666666666 694 428.81666666666666 L 694 482.8333333333333 C 564 482.8333333333333 564 459.68333333333334 434 459.68333333333334 Z " fill="url(#grad-16)" data-sankey-link-source="4" data-sankey-link-target="8" />
<defs><linearGradient id="grad-17" gradientUnits="userSpaceOnUse" x1="434" y1="459.68333333333334" x2="694" y2="508.26666666666665"><stop offset="0" stop-color="#FFC107" stop-opacity="0.4" /><stop offset="1" stop-color="#F44336" stop-opacity="0.4" /></linearGradient></defs>
<path d="M 434 459.68333333333334 C 564 459.68333333333334 564 508.26666666666665 694 508.26666666666665 L 694 527.5583333333333 C 564 527.5583333333333 564 478.975 434 478.975 Z " fill="url(#grad-17)" data-sankey-link-source="4" data-sankey-link-target="9" />
<defs><linearGradient id="grad-18" gradientUnits="userSpaceOnUse" x1="712" y1="405.6666666666667" x2="972" y2="384.09166666666675"><stop offset="0" stop-color="#FFC107" stop-opacity="0.4" /><stop offset="1" stop-color="#2196F3" stop-opacity="0.4" /></linearGradient></defs>
<path d="M 712 405.6666666666667 C 842 405.6666666666667 842 384.09166666666675 972 384.09166666666675 L 972 422.67500000000007 C 842 422.67500000000007 842 444.25 712 444.25 Z " fill="url(#grad-18)" data-sankey-link-source="8" data-sankey-link-target="11" />
<defs><linearGradient id="grad-19" gradientUnits="userSpaceOnUse" x1="712" y1="444.25" x2="972" y2="444.25000000000006"><stop offset="0" stop-color="#FFC107" stop-opacity="0.4" /><stop offset="1" stop-color="#FFC107" stop-opacity="0.4" /></linearGradient></defs>
<path d="M 712 444.25 C 842 444.25 842 444.25000000000006 972 444.25000000000006 L 972 490.55000000000007 C 842 490.55000000000007 842 490.55 712 490.55 Z " fill="url(#grad-19)" data-sankey-link-source="8" data-sankey-link-target="12" />
<defs><linearGradient id="grad-20" gradientUnits="userSpaceOnUse" x1="712" y1="490.55" x2="972" y2="523.7"><stop offset="0" stop-color="#FFC107" stop-opacity="0.4" /><stop offset="1" stop-color="#F44336" stop-opacity="0.4" /></linearGradient></defs>
<path d="M 712 490.55 C 842 490.55 842 523.7 972 523.7 L 972 531.4166666666667 C 842 531.4166666666667 842 498.26666666666665 712 498.26666666666665 Z " fill="url(#grad-20)" data-sankey-link-source="8" data-sankey-link-target="13" />
<defs><linearGradient id="grad-21" gradientUnits="userSpaceOnUse" x1="434" y1="488.975" x2="694" y2="372.51666666666665"><stop offset="0" stop-color="#F44336" stop-opacity="0.4" /><stop offset="1" stop-color="#2196F3" stop-opacity="0.4" /></linearGradient></defs>
<path d="M 434 488.975 C 564 488.975 564 372.51666666666665 694 372.51666666666665 L 694 395.66666666666663 C 564 395.66666666666663 564 512.125 434 512.125 Z " fill="url(#grad-21)" data-sankey-link-source="5" data-sankey-link-target="10" />
<defs><linearGradient id="grad-22" gradientUnits="userSpaceOnUse" x1="434" y1="512.125" x2="694" y2="482.83333333333337"><stop offset="0" stop-color="#F44336" stop-opacity="0.4" /><stop offset="1" stop-color="#FFC107" stop-opacity="0.4" /></linearGradient></defs>
<path d="M 434 512.125 C 564 512.125 564 482.83333333333337 694 482.83333333333337 L 694 498.2666666666667 C 564 498.2666666666667 564 527.5583333333333 434 527.5583333333333 Z " fill="url(#grad-22)" data-sankey-link-source="5" data-sankey-link-target="8" />
<defs><linearGradient id="grad-23" gradientUnits="userSpaceOnUse" x1="434" y1="527.5583333333334" x2="694" y2="527.5583333333333"><stop offset="0" stop-color="#F44336" stop-opacity="0.4" /><stop offset="1" stop-color="#F44336" stop-opacity="0.4" /></linearGradient></defs>
<path d="M 434 527.5583333333334 C 564 527.5583333333334 564 527.5583333333333 694 527.5583333333333 L 694 570 C 564 570 564 570.0000000000001 434 570.0000000000001 Z " fill="url(#grad-23)" data-sankey-link-source="5" data-sankey-link-target="9" />
<defs><linearGradient id="grad-24" gradientUnits="userSpaceOnUse" x1="156" y1="492.83333333333337" x2="416" y2="330.07500000000005"><stop offset="0" stop-color="#F44336" stop-opacity="0.4" /><stop offset="1" stop-color="#2196F3" stop-opacity="0.4" /></linearGradient></defs>
<path d="M 156 492.83333333333337 C 286 492.83333333333337 286 330.07500000000005 416 330.07500000000005 L 416 337.7916666666667 C 286 337.7916666666667 286 500.55 156 500.55 Z " fill="url(#grad-24)" data-sankey-link-source="2" data-sankey-link-target="6" />
<defs><linearGradient id="grad-25" gradientUnits="userSpaceOnUse" x1="156" y1="500.55" x2="416" y2="463.5416666666667"><stop offset="0" stop-color="#F44336" stop-opacity="0.4" /><stop offset="1" stop-color="#FFC107" stop-opacity="0.4" /></linearGradient></defs>
<path d="M 156 500.55 C 286 500.55 286 463.5416666666667 416 463.5416666666667 L 416 478.975 C 286 478.975 286 515.9833333333333 156 515.9833333333333 Z " fill="url(#grad-25)" data-sankey-link-source="2" data-sankey-link-target="4" />
<defs><linearGradient id="grad-26" gradientUnits="userSpaceOnUse" x1="156" y1="515.9833333333333" x2="416" y2="515.9833333333333"><stop offset="0" stop-color="#F44336" stop-opacity="0.4" /><stop offset="1" stop-color="#F44336" stop-opacity="0.4" /></linearGradient></defs>
<path d="M 156 515.9833333333333 C 286 515.9833333333333 286 515.9833333333333 416 515.9833333333333 L 416 570 C 286 570 286 570 156 570 Z " fill="url(#grad-26)" data-sankey-link-source="2" data-sankey-link-target="5" />
<defs><linearGradient id="grad-27" gradientUnits="userSpaceOnUse" x1="712" y1="508.26666666666665" x2="972" y2="490.55000000000007"><stop offset="0" stop-color="#F44336" stop-opacity="0.4" /><stop offset="1" stop-color="#FFC107" stop-opacity="0.4" /></linearGradient></defs>
<path d="M 712 508.26666666666665 C 842 508.26666666666665 842 490.55000000000007 972 490.55000000000007 L 972 513.7 C 842 513.7 842 531.4166666666666 712 531.4166666666666 Z " fill="url(#grad-27)" data-sankey-link-source="9" data-sankey-link-target="12" />
<defs><linearGradient id="grad-28" gradientUnits="userSpaceOnUse" x1="712" y1="531.4166666666666" x2="972" y2="531.4166666666667"><stop offset="0" stop-color="#F44336" stop-opacity="0.4" /><stop offset="1" stop-color="#F44336" stop-opacity="0.4" /></linearGradient></defs>
<path d="M 712 531.4166666666666 C 842 531.4166666666666 842 531.4166666666667 972 531.4166666666667 L 972 570.0000000000001 C 842 570.0000000000001 842 570 712 570 Z " fill="url(#grad-28)" data-sankey-link-source="9" data-sankey-link-target="13" />
<rect x="138" y="86.99999999999997" width="18" height="231.5" fill="#4CAF50" data-sankey-node-id="0" />
<rect x="138" y="328.5" width="18" height="154.33333333333334" fill="#FFC107" data-sankey-node-id="1" />
<rect x="138" y="492.83333333333337" width="18" height="77.16666666666667" fill="#F44336" data-sankey-node-id="2" />
<rect x="416" y="77.00000000000003" width="18" height="177.48333333333335" fill="#4CAF50" data-sankey-node-id="3" />
<rect x="416" y="347.7916666666667" width="18" height="131.18333333333334" fill="#FFC107" data-sankey-node-id="4" />
<rect x="416" y="488.975" width="18" height="81.025" fill="#F44336" data-sankey-node-id="5" />
<rect x="416" y="264.48333333333335" width="18" height="73.30833333333334" fill="#2196F3" data-sankey-node-id="6" />
<rect x="694" y="76.99999999999997" width="18" height="146.61666666666667" fill="#4CAF50" data-sankey-node-id="7" />
<rect x="694" y="405.6666666666667" width="18" height="92.6" fill="#FFC107" data-sankey-node-id="8" />
<rect x="694" y="508.26666666666665" width="18" height="61.733333333333334" fill="#F44336" data-sankey-node-id="9" />
<rect x="694" y="233.61666666666667" width="18" height="162.05" fill="#2196F3" data-sankey-node-id="10" />
<rect x="972" y="87.00000000000006" width="18" height="335.675" fill="#2196F3" data-sankey-node-id="11" />
<rect x="972" y="432.67500000000007" width="18" height="81.025" fill="#FFC107" data-sankey-node-id="12" />
<rect x="972" y="523.7" width="18" height="46.3" fill="#F44336" data-sankey-node-id="13" />
<path d="M0.981445 -7.29004L2.45117 -7.29004L4.31152 -2.3291L6.18164 -7.29004L7.65137 -7.29004L7.65137 0L6.68945 0L6.68945 -6.40137L4.80957 -1.40137L3.81836 -1.40137L1.93848 -6.40137L1.93848 0L0.981445 0L0.981445 -7.29004ZM9.57031 -5.46875L10.4688 -5.46875L10.4688 0L9.57031 0L9.57031 -5.46875ZM9.57031 -7.59766L10.4688 -7.59766L10.4688 -6.45996L9.57031 -6.45996L9.57031 -7.59766ZM12.3486 -7.59766L13.2471 -7.59766L13.2471 0L12.3486 0L12.3486 -7.59766ZM18.7256 -4.63867L18.7256 -7.59766L19.624 -7.59766L19.624 0L18.7256 0L18.7256 -0.820313Q18.4424 -0.332031 18.0103 -0.0952148Q17.5781 0.141602 16.9727 0.141602Q15.9814 0.141602 15.3589 -0.649414Q14.7363 -1.44043 14.7363 -2.72949Q14.7363 -4.01855 15.3589 -4.80957Q15.9814 -5.60059 16.9727 -5.60059Q17.5781 -5.60059 18.0103 -5.36377Q18.4424 -5.12695 18.7256 -4.63867ZM15.6641 -2.72949Q15.6641 -1.73828 16.0718 -1.17432Q16.4795 -0.610352 17.1924 -0.610352Q17.9053 -0.610352 18.3154 -1.17432Q18.7256 -1.73828 18.7256 -2.72949Q18.7256 -3.7207 18.3154 -4.28467Q17.9053 -4.84863 17.1924 -4.84863Q16.4795 -4.84863 16.0718 -4.28467Q15.6641 -3.7207 15.6641 -2.72949ZM23.6816 -7.29004L29.8486 -7.29004L29.8486 -6.45996L27.2607 -6.45996L27.2607 0L26.2695 0L26.2695 -6.45996L23.6816 -6.45996L23.6816 -7.29004ZM32.998 -6.64063Q32.2363 -6.64063 31.853 -5.89111Q31.4697 -5.1416 31.4697 -3.6377Q31.4697 -2.13867 31.853 -1.38916Q32.2363 -0.639648 32.998 -0.639648Q33.7646 -0.639648 34.1479 -1.38916Q34.5313 -2.13867 34.5313 -3.6377Q34.5313 -5.1416 34.1479 -5.89111Q33.7646 -6.64062 32.998 -6.64063ZM32.998 -7.42188Q34.2236 -7.42188 34.8706 -6.45264Q35.5176 -5.4834 35.5176 -3.6377Q35.5176 -1.79688 34.8706 -0.827637Q34.2236 0.141602 32.998 0.141602Q31.7725 0.141602 31.1255 -0.827637Q30.4785 -1.79687 30.4785 -3.6377Q30.4785 -5.4834 31.1255 -6.45264Q31.7725 -7.42187 32.998 -7.42188Z" fill="#262626" transform="translate(160,206.34999999999997)" />
<path d="M0.981445 -7.29004L2.45117 -7.29004L4.31152 -2.3291L6.18164 -7.29004L7.65137 -7.29004L7.65137 0L6.68945 0L6.68945 -6.40137L4.80957 -1.40137L3.81836 -1.40137L1.93848 -6.40137L1.93848 0L0.981445 0L0.981445 -7.29004ZM11.6895 -4.83887Q10.9668 -4.83887 10.5469 -4.2749Q10.127 -3.71094 10.127 -2.72949Q10.127 -1.74805 10.5444 -1.18408Q10.9619 -0.620117 11.6895 -0.620117Q12.4072 -0.620117 12.8271 -1.18652Q13.2471 -1.75293 13.2471 -2.72949Q13.2471 -3.70117 12.8271 -4.27002Q12.4072 -4.83887 11.6895 -4.83887ZM11.6895 -5.60059Q12.8613 -5.60059 13.5303 -4.83887Q14.1992 -4.07715 14.1992 -2.72949Q14.1992 -1.38672 13.5303 -0.622559Q12.8613 0.141602 11.6895 0.141602Q10.5127 0.141602 9.84619 -0.622559Q9.17969 -1.38672 9.17969 -2.72949Q9.17969 -4.07715 9.84619 -4.83887Q10.5127 -5.60059 11.6895 -5.60059ZM19.2871 -4.63867L19.2871 -7.59766L20.1855 -7.59766L20.1855 0L19.2871 0L19.2871 -0.820313Q19.0039 -0.332031 18.5718 -0.0952148Q18.1396 0.141602 17.5342 0.141602Q16.543 0.141602 15.9204 -0.649414Q15.2979 -1.44043 15.2979 -2.72949Q15.2979 -4.01855 15.9204 -4.80957Q16.543 -5.60059 17.5342 -5.60059Q18.1396 -5.60059 18.5718 -5.36377Q19.0039 -5.12695 19.2871 -4.63867ZM16.2256 -2.72949Q16.2256 -1.73828 16.6333 -1.17432Q17.041 -0.610352 17.7539 -0.610352Q18.4668 -0.610352 18.877 -1.17432Q19.2871 -1.73828 19.2871 -2.72949Q19.2871 -3.7207 18.877 -4.28467Q18.4668 -4.84863 17.7539 -4.84863Q17.041 -4.84863 16.6333 -4.28467Q16.2256 -3.7207 16.2256 -2.72949ZM24.2432 -7.29004L30.4102 -7.29004L30.4102 -6.45996L27.8223 -6.45996L27.8223 0L26.8311 0L26.8311 -6.45996L24.2432 -6.45996L24.2432 -7.29004ZM33.5596 -6.64063Q32.7979 -6.64063 32.4146 -5.89111Q32.0313 -5.1416 32.0313 -3.6377Q32.0313 -2.13867 32.4146 -1.38916Q32.7979 -0.639648 33.5596 -0.639648Q34.3262 -0.639648 34.7095 -1.38916Q35.0928 -2.13867 35.0928 -3.6377Q35.0928 -5.1416 34.7095 -5.89111Q34.3262 -6.64062 33.5596 -6.64063ZM33.5596 -7.42188Q34.7852 -7.42188 35.4321 -6.45264Q36.0791 -5.4834 36.0791 -3.6377Q36.0791 -1.79688 35.4321 -0.827637Q34.7852 0.141602 33.5596 0.141602Q32.334 0.141602 31.687 -0.827637Q31.04 -1.79687 31.04 -3.6377Q31.04 -5.4834 31.687 -6.45264Q32.334 -7.42187 33.5596 -7.42188Z" fill="#262626" transform="translate(160,409.2666666666667)" />
<path d="M5.35156 -7.05078L5.35156 -6.08887Q4.79004 -6.35742 4.29199 -6.48926Q3.79394 -6.62109 3.33008 -6.62109Q2.52441 -6.62109 2.0874 -6.30859Q1.65039 -5.99609 1.65039 -5.41992Q1.65039 -4.93652 1.94092 -4.68994Q2.23145 -4.44336 3.04199 -4.29199L3.6377 -4.16992Q4.74121 -3.95996 5.26611 -3.43018Q5.79102 -2.90039 5.79102 -2.01172Q5.79102 -0.952148 5.08057 -0.405273Q4.37012 0.141602 2.99805 0.141602Q2.48047 0.141602 1.89697 0.0244141Q1.31348 -0.0927734 0.688477 -0.322266L0.688477 -1.33789Q1.28906 -1.00098 1.86523 -0.830078Q2.44141 -0.65918 2.99805 -0.65918Q3.84277 -0.65918 4.30176 -0.991211Q4.76074 -1.32324 4.76074 -1.93848Q4.76074 -2.47559 4.43115 -2.77832Q4.10156 -3.08105 3.34961 -3.23242L2.74902 -3.34961Q1.64551 -3.56934 1.15234 -4.03809Q0.65918 -4.50684 0.65918 -5.3418Q0.65918 -6.30859 1.34033 -6.86523Q2.02148 -7.42188 3.21777 -7.42188Q3.73047 -7.42188 4.2627 -7.3291Q4.79492 -7.23633 5.35156 -7.05078ZM11.9678 -2.95898L11.9678 -2.51953L7.83691 -2.51953Q7.89551 -1.5918 8.396 -1.10596Q8.89648 -0.620117 9.79004 -0.620117Q10.3076 -0.620117 10.7935 -0.74707Q11.2793 -0.874023 11.7578 -1.12793L11.7578 -0.27832Q11.2744 -0.0732422 10.7666 0.0341797Q10.2588 0.141602 9.73633 0.141602Q8.42773 0.141602 7.66357 -0.620117Q6.89941 -1.38184 6.89941 -2.68066Q6.89941 -4.02344 7.62451 -4.81201Q8.34961 -5.60059 9.58008 -5.60059Q10.6836 -5.60059 11.3257 -4.89014Q11.9678 -4.17969 11.9678 -2.95898ZM11.0693 -3.22266Q11.0596 -3.95996 10.6567 -4.39941Q10.2539 -4.83887 9.58984 -4.83887Q8.83789 -4.83887 8.38623 -4.41406Q7.93457 -3.98926 7.86621 -3.21777L11.0693 -3.22266ZM12.7979 -5.46875L13.75 -5.46875L15.459 -0.878906L17.168 -5.46875L18.1201 -5.46875L16.0693 0L14.8486 0L12.7979 -5.46875ZM24.0381 -2.95898L24.0381 -2.51953L19.9072 -2.51953Q19.9658 -1.5918 20.4663 -1.10596Q20.9668 -0.620117 21.8604 -0.620117Q22.3779 -0.620117 22.8638 -0.74707Q23.3496 -0.874023 23.8281 -1.12793L23.8281 -0.27832Q23.3447 -0.0732422 22.8369 0.0341797Q22.3291 0.141602 21.8066 0.141602Q20.498 0.141602 19.7339 -0.620117Q18.9697 -1.38184 18.9697 -2.68066Q18.9697 -4.02344 19.6948 -4.81201Q20.4199 -5.60059 21.6504 -5.60059Q22.7539 -5.60059 23.396 -4.89014Q24.0381 -4.17969 24.0381 -2.95898ZM23.1396 -3.22266Q23.1299 -3.95996 22.7271 -4.39941Q22.3242 -4.83887 21.6602 -4.83887Q20.9082 -4.83887 20.4565 -4.41406Q20.0049 -3.98926 19.9365 -3.21777L23.1396 -3.22266ZM28.6816 -4.62891Q28.5303 -4.7168 28.3521 -4.7583Q28.1738 -4.7998 27.959 -4.7998Q27.1973 -4.7998 26.7896 -4.3042Q26.3818 -3.80859 26.3818 -2.88086L26.3818 0L25.4785 0L25.4785 -5.46875L26.3818 -5.46875L26.3818 -4.61914Q26.665 -5.11719 27.1191 -5.35889Q27.5732 -5.60059 28.2227 -5.60059Q28.3154 -5.60059 28.4277 -5.58838Q28.54 -5.57617 28.6768 -5.55176L28.6816 -4.62891ZM34.3018 -2.95898L34.3018 -2.51953L30.1709 -2.51953Q30.2295 -1.5918 30.73 -1.10596Q31.2305 -0.620117 32.124 -0.620117Q32.6416 -0.620117 33.1274 -0.74707Q33.6133 -0.874023 34.0918 -1.12793L34.0918 -0.27832Q33.6084 -0.0732422 33.1006 0.0341797Q32.5928 0.141602 32.0703 0.141602Q30.7617 0.141602 29.9976 -0.620117Q29.2334 -1.38184 29.2334 -2.68066Q29.2334 -4.02344 29.9585 -4.81201Q30.6836 -5.60059 31.9141 -5.60059Q33.0176 -5.60059 33.6597 -4.89014Q34.3018 -4.17969 34.3018 -2.95898ZM33.4033 -3.22266Q33.3936 -3.95996 32.9907 -4.39941Q32.5879 -4.83887 31.9238 -4.83887Q31.1719 -4.83887 30.7202 -4.41406Q30.2686 -3.98926 30.2002 -3.21777L33.4033 -3.22266ZM37.9834 -7.29004L44.1504 -7.29004L44.1504 -6.45996L41.5625 -6.45996L41.5625 0L40.5713 0L40.5713 -6.45996L37.9834 -6.45996L37.9834 -7.29004ZM47.2998 -6.64063Q46.5381 -6.64063 46.1548 -5.89111Q45.7715 -5.1416 45.7715 -3.6377Q45.7715 -2.13867 46.1548 -1.38916Q46.5381 -0.639648 47.2998 -0.639648Q48.0664 -0.639648 48.4497 -1.38916Q48.833 -2.13867 48.833 -3.6377Q48.833 -5.1416 48.4497 -5.89111Q48.0664 -6.64062 47.2998 -6.64063ZM47.2998 -7.42188Q48.5254 -7.42188 49.1724 -6.45264Q49.8193 -5.4834 49.8193 -3.6377Q49.8193 -1.79688 49.1724 -0.827637Q48.5254 0.141602 47.2998 0.141602Q46.0742 0.141602 45.4272 -0.827637Q44.7803 -1.79687 44.7803 -3.6377Q44.7803 -5.4834 45.4272 -6.45264Q46.0742 -7.42187 47.2998 -7.42188Z" fill="#262626" transform="translate(160,535.0166666666668)" />
<path d="M0.981445 -7.29004L2.45117 -7.29004L4.31152 -2.3291L6.18164 -7.29004L7.65137 -7.29004L7.65137 0L6.68945 0L6.68945 -6.40137L4.80957 -1.40137L3.81836 -1.40137L1.93848 -6.40137L1.93848 0L0.981445 0L0.981445 -7.29004ZM9.57031 -5.46875L10.4688 -5.46875L10.4688 0L9.57031 0L9.57031 -5.46875ZM9.57031 -7.59766L10.4688 -7.59766L10.4688 -6.45996L9.57031 -6.45996L9.57031 -7.59766ZM12.3486 -7.59766L13.2471 -7.59766L13.2471 0L12.3486 0L12.3486 -7.59766ZM18.7256 -4.63867L18.7256 -7.59766L19.624 -7.59766L19.624 0L18.7256 0L18.7256 -0.820313Q18.4424 -0.332031 18.0103 -0.0952148Q17.5781 0.141602 16.9727 0.141602Q15.9814 0.141602 15.3589 -0.649414Q14.7363 -1.44043 14.7363 -2.72949Q14.7363 -4.01855 15.3589 -4.80957Q15.9814 -5.60059 16.9727 -5.60059Q17.5781 -5.60059 18.0103 -5.36377Q18.4424 -5.12695 18.7256 -4.63867ZM15.6641 -2.72949Q15.6641 -1.73828 16.0718 -1.17432Q16.4795 -0.610352 17.1924 -0.610352Q17.9053 -0.610352 18.3154 -1.17432Q18.7256 -1.73828 18.7256 -2.72949Q18.7256 -3.7207 18.3154 -4.28467Q17.9053 -4.84863 17.1924 -4.84863Q16.4795 -4.84863 16.0718 -4.28467Q15.6641 -3.7207 15.6641 -2.72949ZM23.6816 -7.29004L29.8486 -7.29004L29.8486 -6.45996L27.2607 -6.45996L27.2607 0L26.2695 0L26.2695 -6.45996L23.6816 -6.45996L23.6816 -7.29004ZM31.0596 -0.830078L32.6709 -0.830078L32.6709 -6.3916L30.918 -6.04004L30.918 -6.93848L32.6611 -7.29004L33.6475 -7.29004L33.6475 -0.830078L35.2588 -0.830078L35.2588 0L31.0596 0L31.0596 -0.830078Z" fill="#262626" transform="translate(438,169.3416666666667)" />
<path d="M0.981445 -7.29004L2.45117 -7.29004L4.31152 -2.3291L6.18164 -7.29004L7.65137 -7.29004L7.65137 0L6.68945 0L6.68945 -6.40137L4.80957 -1.40137L3.81836 -1.40137L1.93848 -6.40137L1.93848 0L0.981445 0L0.981445 -7.29004ZM11.6895 -4.83887Q10.9668 -4.83887 10.5469 -4.2749Q10.127 -3.71094 10.127 -2.72949Q10.127 -1.74805 10.5444 -1.18408Q10.9619 -0.620117 11.6895 -0.620117Q12.4072 -0.620117 12.8271 -1.18652Q13.2471 -1.75293 13.2471 -2.72949Q13.2471 -3.70117 12.8271 -4.27002Q12.4072 -4.83887 11.6895 -4.83887ZM11.6895 -5.60059Q12.8613 -5.60059 13.5303 -4.83887Q14.1992 -4.07715 14.1992 -2.72949Q14.1992 -1.38672 13.5303 -0.622559Q12.8613 0.141602 11.6895 0.141602Q10.5127 0.141602 9.84619 -0.622559Q9.17969 -1.38672 9.17969 -2.72949Q9.17969 -4.07715 9.84619 -4.83887Q10.5127 -5.60059 11.6895 -5.60059ZM19.2871 -4.63867L19.2871 -7.59766L20.1855 -7.59766L20.1855 0L19.2871 0L19.2871 -0.820313Q19.0039 -0.332031 18.5718 -0.0952148Q18.1396 0.141602 17.5342 0.141602Q16.543 0.141602 15.9204 -0.649414Q15.2979 -1.44043 15.2979 -2.72949Q15.2979 -4.01855 15.9204 -4.80957Q16.543 -5.60059 17.5342 -5.60059Q18.1396 -5.60059 18.5718 -5.36377Q19.0039 -5.12695 19.2871 -4.63867ZM16.2256 -2.72949Q16.2256 -1.73828 16.6333 -1.17432Q17.041 -0.610352 17.7539 -0.610352Q18.4668 -0.610352 18.877 -1.17432Q19.2871 -1.73828 19.2871 -2.72949Q19.2871 -3.7207 18.877 -4.28467Q18.4668 -4.84863 17.7539 -4.84863Q17.041 -4.84863 16.6333 -4.28467Q16.2256 -3.7207 16.2256 -2.72949ZM24.2432 -7.29004L30.4102 -7.29004L30.4102 -6.45996L27.8223 -6.45996L27.8223 0L26.8311 0L26.8311 -6.45996L24.2432 -6.45996L24.2432 -7.29004ZM31.6211 -0.830078L33.2324 -0.830078L33.2324 -6.3916L31.4795 -6.04004L31.4795 -6.93848L33.2227 -7.29004L34.209 -7.29004L34.209 -0.830078L35.8203 -0.830078L35.8203 0L31.6211 0L31.6211 -0.830078Z" fill="#262626" transform="translate(438,416.98333333333335)" />
<path d="M5.35156 -7.05078L5.35156 -6.08887Q4.79004 -6.35742 4.29199 -6.48926Q3.79394 -6.62109 3.33008 -6.62109Q2.52441 -6.62109 2.0874 -6.30859Q1.65039 -5.99609 1.65039 -5.41992Q1.65039 -4.93652 1.94092 -4.68994Q2.23145 -4.44336 3.04199 -4.29199L3.6377 -4.16992Q4.74121 -3.95996 5.26611 -3.43018Q5.79102 -2.90039 5.79102 -2.01172Q5.79102 -0.952148 5.08057 -0.405273Q4.37012 0.141602 2.99805 0.141602Q2.48047 0.141602 1.89697 0.0244141Q1.31348 -0.0927734 0.688477 -0.322266L0.688477 -1.33789Q1.28906 -1.00098 1.86523 -0.830078Q2.44141 -0.65918 2.99805 -0.65918Q3.84277 -0.65918 4.30176 -0.991211Q4.76074 -1.32324 4.76074 -1.93848Q4.76074 -2.47559 4.43115 -2.77832Q4.10156 -3.08105 3.34961 -3.23242L2.74902 -3.34961Q1.64551 -3.56934 1.15234 -4.03809Q0.65918 -4.50684 0.65918 -5.3418Q0.65918 -6.30859 1.34033 -6.86523Q2.02148 -7.42188 3.21777 -7.42188Q3.73047 -7.42188 4.2627 -7.3291Q4.79492 -7.23633 5.35156 -7.05078ZM11.9678 -2.95898L11.9678 -2.51953L7.83691 -2.51953Q7.89551 -1.5918 8.396 -1.10596Q8.89648 -0.620117 9.79004 -0.620117Q10.3076 -0.620117 10.7935 -0.74707Q11.2793 -0.874023 11.7578 -1.12793L11.7578 -0.27832Q11.2744 -0.0732422 10.7666 0.0341797Q10.2588 0.141602 9.73633 0.141602Q8.42773 0.141602 7.66357 -0.620117Q6.89941 -1.38184 6.89941 -2.68066Q6.89941 -4.02344 7.62451 -4.81201Q8.34961 -5.60059 9.58008 -5.60059Q10.6836 -5.60059 11.3257 -4.89014Q11.9678 -4.17969 11.9678 -2.95898ZM11.0693 -3.22266Q11.0596 -3.95996 10.6567 -4.39941Q10.2539 -4.83887 9.58984 -4.83887Q8.83789 -4.83887 8.38623 -4.41406Q7.93457 -3.98926 7.86621 -3.21777L11.0693 -3.22266ZM12.7979 -5.46875L13.75 -5.46875L15.459 -0.878906L17.168 -5.46875L18.1201 -5.46875L16.0693 0L14.8486 0L12.7979 -5.46875ZM24.0381 -2.95898L24.0381 -2.51953L19.9072 -2.51953Q19.9658 -1.5918 20.4663 -1.10596Q20.9668 -0.620117 21.8604 -0.620117Q22.3779 -0.620117 22.8638 -0.74707Q23.3496 -0.874023 23.8281 -1.12793L23.8281 -0.27832Q23.3447 -0.0732422 22.8369 0.0341797Q22.3291 0.141602 21.8066 0.141602Q20.498 0.141602 19.7339 -0.620117Q18.9697 -1.38184 18.9697 -2.68066Q18.9697 -4.02344 19.6948 -4.81201Q20.4199 -5.60059 21.6504 -5.60059Q22.7539 -5.60059 23.396 -4.89014Q24.0381 -4.17969 24.0381 -2.95898ZM23.1396 -3.22266Q23.1299 -3.95996 22.7271 -4.39941Q22.3242 -4.83887 21.6602 -4.83887Q20.9082 -4.83887 20.4565 -4.41406Q20.0049 -3.98926 19.9365 -3.21777L23.1396 -3.22266ZM28.6816 -4.62891Q28.5303 -4.7168 28.3521 -4.7583Q28.1738 -4.7998 27.959 -4.7998Q27.1973 -4.7998 26.7896 -4.3042Q26.3818 -3.80859 26.3818 -2.88086L26.3818 0L25.4785 0L25.4785 -5.46875L26.3818 -5.46875L26.3818 -4.61914Q26.665 -5.11719 27.1191 -5.35889Q27.5732 -5.60059 28.2227 -5.60059Q28.3154 -5.60059 28.4277 -5.58838Q28.54 -5.57617 28.6768 -5.55176L28.6816 -4.62891ZM34.3018 -2.95898L34.3018 -2.51953L30.1709 -2.51953Q30.2295 -1.5918 30.73 -1.10596Q31.2305 -0.620117 32.124 -0.620117Q32.6416 -0.620117 33.1274 -0.74707Q33.6133 -0.874023 34.0918 -1.12793L34.0918 -0.27832Q33.6084 -0.0732422 33.1006 0.0341797Q32.5928 0.141602 32.0703 0.141602Q30.7617 0.141602 29.9976 -0.620117Q29.2334 -1.38184 29.2334 -2.68066Q29.2334 -4.02344 29.9585 -4.81201Q30.6836 -5.60059 31.9141 -5.60059Q33.0176 -5.60059 33.6597 -4.89014Q34.3018 -4.17969 34.3018 -2.95898ZM33.4033 -3.22266Q33.3936 -3.95996 32.9907 -4.39941Q32.5879 -4.83887 31.9238 -4.83887Q31.1719 -4.83887 30.7202 -4.41406Q30.2686 -3.98926 30.2002 -3.21777L33.4033 -3.22266ZM37.9834 -7.29004L44.1504 -7.29004L44.1504 -6.45996L41.5625 -6.45996L41.5625 0L40.5713 0L40.5713 -6.45996L37.9834 -6.45996L37.9834 -7.29004ZM45.3613 -0.830078L46.9727 -0.830078L46.9727 -6.3916L45.2197 -6.04004L45.2197 -6.93848L46.9629 -7.29004L47.9492 -7.29004L47.9492 -0.830078L49.5605 -0.830078L49.5605 0L45.3613 0L45.3613 -0.830078Z" fill="#262626" transform="translate(438,533.0875000000001)" />
<path d="M4.43848 -3.41797Q4.75586 -3.31055 5.05615 -2.95898Q5.35645 -2.60742 5.65918 -1.99219L6.66016 0L5.60059 0L4.66797 -1.87012Q4.30664 -2.60254 3.96729 -2.8418Q3.62793 -3.08105 3.04199 -3.08105L1.96777 -3.08105L1.96777 0L0.981445 0L0.981445 -7.29004L3.20801 -7.29004Q4.45801 -7.29004 5.07324 -6.76758Q5.68848 -6.24512 5.68848 -5.19043Q5.68848 -4.50195 5.36865 -4.04785Q5.04883 -3.59375 4.43848 -3.41797ZM1.96777 -6.47949L1.96777 -3.8916L3.20801 -3.8916Q3.9209 -3.8916 4.28467 -4.22119Q4.64844 -4.55078 4.64844 -5.19043Q4.64844 -5.83008 4.28467 -6.15479Q3.9209 -6.47949 3.20801 -6.47949L1.96777 -6.47949ZM12.5684 -2.95898L12.5684 -2.51953L8.4375 -2.51953Q8.49609 -1.5918 8.99658 -1.10596Q9.49707 -0.620117 10.3906 -0.620117Q10.9082 -0.620117 11.394 -0.74707Q11.8799 -0.874023 12.3584 -1.12793L12.3584 -0.27832Q11.875 -0.0732422 11.3672 0.0341797Q10.8594 0.141602 10.3369 0.141602Q9.02832 0.141602 8.26416 -0.620117Q7.5 -1.38184 7.5 -2.68066Q7.5 -4.02344 8.2251 -4.81201Q8.9502 -5.60059 10.1807 -5.60059Q11.2842 -5.60059 11.9263 -4.89014Q12.5684 -4.17969 12.5684 -2.95898ZM11.6699 -3.22266Q11.6602 -3.95996 11.2573 -4.39941Q10.8545 -4.83887 10.1904 -4.83887Q9.43848 -4.83887 8.98682 -4.41406Q8.53516 -3.98926 8.4668 -3.21777L11.6699 -3.22266ZM17.9785 -5.25879L17.9785 -4.41895Q17.5977 -4.62891 17.2144 -4.73389Q16.8311 -4.83887 16.4404 -4.83887Q15.5664 -4.83887 15.083 -4.28467Q14.5996 -3.73047 14.5996 -2.72949Q14.5996 -1.72852 15.083 -1.17432Q15.5664 -0.620117 16.4404 -0.620117Q16.8311 -0.620117 17.2144 -0.725098Q17.5977 -0.830078 17.9785 -1.04004L17.9785 -0.209961Q17.6025 -0.0341797 17.1997 0.0537109Q16.7969 0.141602 16.3428 0.141602Q15.1074 0.141602 14.3799 -0.634766Q13.6523 -1.41113 13.6523 -2.72949Q13.6523 -4.06738 14.3872 -4.83398Q15.1221 -5.60059 16.4014 -5.60059Q16.8164 -5.60059 17.2119 -5.51514Q17.6074 -5.42969 17.9785 -5.25879ZM21.6602 -4.83887Q20.9375 -4.83887 20.5176 -4.2749Q20.0977 -3.71094 20.0977 -2.72949Q20.0977 -1.74805 20.5151 -1.18408Q20.9326 -0.620117 21.6602 -0.620117Q22.3779 -0.620117 22.7979 -1.18652Q23.2178 -1.75293 23.2178 -2.72949Q23.2178 -3.70117 22.7979 -4.27002Q22.3779 -4.83887 21.6602 -4.83887ZM21.6602 -5.60059Q22.832 -5.60059 23.501 -4.83887Q24.1699 -4.07715 24.1699 -2.72949Q24.1699 -1.38672 23.501 -0.622559Q22.832 0.141602 21.6602 0.141602Q20.4834 0.141602 19.8169 -0.622559Q19.1504 -1.38672 19.1504 -2.72949Q19.1504 -4.07715 19.8169 -4.83887Q20.4834 -5.60059 21.6602 -5.60059ZM25.0146 -5.46875L25.9668 -5.46875L27.6758 -0.878906L29.3848 -5.46875L30.3369 -5.46875L28.2861 0L27.0654 0L25.0146 -5.46875ZM36.2549 -2.95898L36.2549 -2.51953L32.124 -2.51953Q32.1826 -1.5918 32.6831 -1.10596Q33.1836 -0.620117 34.0771 -0.620117Q34.5947 -0.620117 35.0806 -0.74707Q35.5664 -0.874023 36.0449 -1.12793L36.0449 -0.27832Q35.5615 -0.0732422 35.0537 0.0341797Q34.5459 0.141602 34.0234 0.141602Q32.7148 0.141602 31.9507 -0.620117Q31.1865 -1.38184 31.1865 -2.68066Q31.1865 -4.02344 31.9116 -4.81201Q32.6367 -5.60059 33.8672 -5.60059Q34.9707 -5.60059 35.6128 -4.89014Q36.2549 -4.17969 36.2549 -2.95898ZM35.3564 -3.22266Q35.3467 -3.95996 34.9438 -4.39941Q34.541 -4.83887 33.877 -4.83887Q33.125 -4.83887 32.6733 -4.41406Q32.2217 -3.98926 32.1533 -3.21777L35.3564 -3.22266ZM40.8984 -4.62891Q40.7471 -4.7168 40.5688 -4.7583Q40.3906 -4.7998 40.1758 -4.7998Q39.4141 -4.7998 39.0063 -4.3042Q38.5986 -3.80859 38.5986 -2.88086L38.5986 0L37.6953 0L37.6953 -5.46875L38.5986 -5.46875L38.5986 -4.61914Q38.8818 -5.11719 39.3359 -5.35889Q39.79 -5.60059 40.4395 -5.60059Q40.5322 -5.60059 40.6445 -5.58838Q40.7568 -5.57617 40.8936 -5.55176L40.8984 -4.62891ZM44.0479 -7.29004L50.2148 -7.29004L50.2148 -6.45996L47.627 -6.45996L47.627 0L46.6357 0L46.6357 -6.45996L44.0479 -6.45996L44.0479 -7.29004ZM51.4258 -0.830078L53.0371 -0.830078L53.0371 -6.3916L51.2842 -6.04004L51.2842 -6.93848L53.0273 -7.29004L54.0137 -7.29004L54.0137 -0.830078L55.625 -0.830078L55.625 0L51.4258 0L51.4258 -0.830078Z" fill="#262626" transform="translate(438,304.73750000000007)" />
<path d="M0.981445 -7.29004L2.45117 -7.29004L4.31152 -2.3291L6.18164 -7.29004L7.65137 -7.29004L7.65137 0L6.68945 0L6.68945 -6.40137L4.80957 -1.40137L3.81836 -1.40137L1.93848 -6.40137L1.93848 0L0.981445 0L0.981445 -7.29004ZM9.57031 -5.46875L10.4688 -5.46875L10.4688 0L9.57031 0L9.57031 -5.46875ZM9.57031 -7.59766L10.4688 -7.59766L10.4688 -6.45996L9.57031 -6.45996L9.57031 -7.59766ZM12.3486 -7.59766L13.2471 -7.59766L13.2471 0L12.3486 0L12.3486 -7.59766ZM18.7256 -4.63867L18.7256 -7.59766L19.624 -7.59766L19.624 0L18.7256 0L18.7256 -0.820313Q18.4424 -0.332031 18.0103 -0.0952148Q17.5781 0.141602 16.9727 0.141602Q15.9814 0.141602 15.3589 -0.649414Q14.7363 -1.44043 14.7363 -2.72949Q14.7363 -4.01855 15.3589 -4.80957Q15.9814 -5.60059 16.9727 -5.60059Q17.5781 -5.60059 18.0103 -5.36377Q18.4424 -5.12695 18.7256 -4.63867ZM15.6641 -2.72949Q15.6641 -1.73828 16.0718 -1.17432Q16.4795 -0.610352 17.1924 -0.610352Q17.9053 -0.610352 18.3154 -1.17432Q18.7256 -1.73828 18.7256 -2.72949Q18.7256 -3.7207 18.3154 -4.28467Q17.9053 -4.84863 17.1924 -4.84863Q16.4795 -4.84863 16.0718 -4.28467Q15.6641 -3.7207 15.6641 -2.72949ZM23.6816 -7.29004L29.8486 -7.29004L29.8486 -6.45996L27.2607 -6.45996L27.2607 0L26.2695 0L26.2695 -6.45996L23.6816 -6.45996L23.6816 -7.29004ZM31.7383 -0.830078L35.1807 -0.830078L35.1807 0L30.5518 0L30.5518 -0.830078Q31.1133 -1.41113 32.0825 -2.39014Q33.0518 -3.36914 33.3008 -3.65234Q33.7744 -4.18457 33.9624 -4.55322Q34.1504 -4.92187 34.1504 -5.27832Q34.1504 -5.85937 33.7427 -6.22559Q33.335 -6.5918 32.6807 -6.5918Q32.2168 -6.5918 31.7017 -6.43066Q31.1865 -6.26953 30.6006 -5.94238L30.6006 -6.93848Q31.1963 -7.17773 31.7139 -7.2998Q32.2314 -7.42188 32.6611 -7.42188Q33.7939 -7.42188 34.4678 -6.85547Q35.1416 -6.28906 35.1416 -5.3418Q35.1416 -4.89258 34.9731 -4.48975Q34.8047 -4.08691 34.3604 -3.54004Q34.2383 -3.39844 33.584 -2.72217Q32.9297 -2.0459 31.7383 -0.830078Z" fill="#262626" transform="translate(716,153.9083333333333)" />
<path d="M0.981445 -7.29004L2.45117 -7.29004L4.31152 -2.3291L6.18164 -7.29004L7.65137 -7.29004L7.65137 0L6.68945 0L6.68945 -6.40137L4.80957 -1.40137L3.81836 -1.40137L1.93848 -6.40137L1.93848 0L0.981445 0L0.981445 -7.29004ZM11.6895 -4.83887Q10.9668 -4.83887 10.5469 -4.2749Q10.127 -3.71094 10.127 -2.72949Q10.127 -1.74805 10.5444 -1.18408Q10.9619 -0.620117 11.6895 -0.620117Q12.4072 -0.620117 12.8271 -1.18652Q13.2471 -1.75293 13.2471 -2.72949Q13.2471 -3.70117 12.8271 -4.27002Q12.4072 -4.83887 11.6895 -4.83887ZM11.6895 -5.60059Q12.8613 -5.60059 13.5303 -4.83887Q14.1992 -4.07715 14.1992 -2.72949Q14.1992 -1.38672 13.5303 -0.622559Q12.8613 0.141602 11.6895 0.141602Q10.5127 0.141602 9.84619 -0.622559Q9.17969 -1.38672 9.17969 -2.72949Q9.17969 -4.07715 9.84619 -4.83887Q10.5127 -5.60059 11.6895 -5.60059ZM19.2871 -4.63867L19.2871 -7.59766L20.1855 -7.59766L20.1855 0L19.2871 0L19.2871 -0.820313Q19.0039 -0.332031 18.5718 -0.0952148Q18.1396 0.141602 17.5342 0.141602Q16.543 0.141602 15.9204 -0.649414Q15.2979 -1.44043 15.2979 -2.72949Q15.2979 -4.01855 15.9204 -4.80957Q16.543 -5.60059 17.5342 -5.60059Q18.1396 -5.60059 18.5718 -5.36377Q19.0039 -5.12695 19.2871 -4.63867ZM16.2256 -2.72949Q16.2256 -1.73828 16.6333 -1.17432Q17.041 -0.610352 17.7539 -0.610352Q18.4668 -0.610352 18.877 -1.17432Q19.2871 -1.73828 19.2871 -2.72949Q19.2871 -3.7207 18.877 -4.28467Q18.4668 -4.84863 17.7539 -4.84863Q17.041 -4.84863 16.6333 -4.28467Q16.2256 -3.7207 16.2256 -2.72949ZM24.2432 -7.29004L30.4102 -7.29004L30.4102 -6.45996L27.8223 -6.45996L27.8223 0L26.8311 0L26.8311 -6.45996L24.2432 -6.45996L24.2432 -7.29004ZM32.2998 -0.830078L35.7422 -0.830078L35.7422 0L31.1133 0L31.1133 -0.830078Q31.6748 -1.41113 32.644 -2.39014Q33.6133 -3.36914 33.8623 -3.65234Q34.3359 -4.18457 34.5239 -4.55322Q34.7119 -4.92187 34.7119 -5.27832Q34.7119 -5.85937 34.3042 -6.22559Q33.8965 -6.5918 33.2422 -6.5918Q32.7783 -6.5918 32.2632 -6.43066Q31.748 -6.26953 31.1621 -5.94238L31.1621 -6.93848Q31.7578 -7.17773 32.2754 -7.2998Q32.793 -7.42188 33.2227 -7.42188Q34.3555 -7.42188 35.0293 -6.85547Q35.7031 -6.28906 35.7031 -5.3418Q35.7031 -4.89258 35.5347 -4.48975Q35.3662 -4.08691 34.9219 -3.54004Q34.7998 -3.39844 34.1455 -2.72217Q33.4912 -2.0459 32.2998 -0.830078Z" fill="#262626" transform="translate(716,455.5666666666667)" />
<path d="M5.35156 -7.05078L5.35156 -6.08887Q4.79004 -6.35742 4.29199 -6.48926Q3.79394 -6.62109 3.33008 -6.62109Q2.52441 -6.62109 2.0874 -6.30859Q1.65039 -5.99609 1.65039 -5.41992Q1.65039 -4.93652 1.94092 -4.68994Q2.23145 -4.44336 3.04199 -4.29199L3.6377 -4.16992Q4.74121 -3.95996 5.26611 -3.43018Q5.79102 -2.90039 5.79102 -2.01172Q5.79102 -0.952148 5.08057 -0.405273Q4.37012 0.141602 2.99805 0.141602Q2.48047 0.141602 1.89697 0.0244141Q1.31348 -0.0927734 0.688477 -0.322266L0.688477 -1.33789Q1.28906 -1.00098 1.86523 -0.830078Q2.44141 -0.65918 2.99805 -0.65918Q3.84277 -0.65918 4.30176 -0.991211Q4.76074 -1.32324 4.76074 -1.93848Q4.76074 -2.47559 4.43115 -2.77832Q4.10156 -3.08105 3.34961 -3.23242L2.74902 -3.34961Q1.64551 -3.56934 1.15234 -4.03809Q0.65918 -4.50684 0.65918 -5.3418Q0.65918 -6.30859 1.34033 -6.86523Q2.02148 -7.42188 3.21777 -7.42188Q3.73047 -7.42188 4.2627 -7.3291Q4.79492 -7.23633 5.35156 -7.05078ZM11.9678 -2.95898L11.9678 -2.51953L7.83691 -2.51953Q7.89551 -1.5918 8.396 -1.10596Q8.89648 -0.620117 9.79004 -0.620117Q10.3076 -0.620117 10.7935 -0.74707Q11.2793 -0.874023 11.7578 -1.12793L11.7578 -0.27832Q11.2744 -0.0732422 10.7666 0.0341797Q10.2588 0.141602 9.73633 0.141602Q8.42773 0.141602 7.66357 -0.620117Q6.89941 -1.38184 6.89941 -2.68066Q6.89941 -4.02344 7.62451 -4.81201Q8.34961 -5.60059 9.58008 -5.60059Q10.6836 -5.60059 11.3257 -4.89014Q11.9678 -4.17969 11.9678 -2.95898ZM11.0693 -3.22266Q11.0596 -3.95996 10.6567 -4.39941Q10.2539 -4.83887 9.58984 -4.83887Q8.83789 -4.83887 8.38623 -4.41406Q7.93457 -3.98926 7.86621 -3.21777L11.0693 -3.22266ZM12.7979 -5.46875L13.75 -5.46875L15.459 -0.878906L17.168 -5.46875L18.1201 -5.46875L16.0693 0L14.8486 0L12.7979 -5.46875ZM24.0381 -2.95898L24.0381 -2.51953L19.9072 -2.51953Q19.9658 -1.5918 20.4663 -1.10596Q20.9668 -0.620117 21.8604 -0.620117Q22.3779 -0.620117 22.8638 -0.74707Q23.3496 -0.874023 23.8281 -1.12793L23.8281 -0.27832Q23.3447 -0.0732422 22.8369 0.0341797Q22.3291 0.141602 21.8066 0.141602Q20.498 0.141602 19.7339 -0.620117Q18.9697 -1.38184 18.9697 -2.68066Q18.9697 -4.02344 19.6948 -4.81201Q20.4199 -5.60059 21.6504 -5.60059Q22.7539 -5.60059 23.396 -4.89014Q24.0381 -4.17969 24.0381 -2.95898ZM23.1396 -3.22266Q23.1299 -3.95996 22.7271 -4.39941Q22.3242 -4.83887 21.6602 -4.83887Q20.9082 -4.83887 20.4565 -4.41406Q20.0049 -3.98926 19.9365 -3.21777L23.1396 -3.22266ZM28.6816 -4.62891Q28.5303 -4.7168 28.3521 -4.7583Q28.1738 -4.7998 27.959 -4.7998Q27.1973 -4.7998 26.7896 -4.3042Q26.3818 -3.80859 26.3818 -2.88086L26.3818 0L25.4785 0L25.4785 -5.46875L26.3818 -5.46875L26.3818 -4.61914Q26.665 -5.11719 27.1191 -5.35889Q27.5732 -5.60059 28.2227 -5.60059Q28.3154 -5.60059 28.4277 -5.58838Q28.54 -5.57617 28.6768 -5.55176L28.6816 -4.62891ZM34.3018 -2.95898L34.3018 -2.51953L30.1709 -2.51953Q30.2295 -1.5918 30.73 -1.10596Q31.2305 -0.620117 32.124 -0.620117Q32.6416 -0.620117 33.1274 -0.74707Q33.6133 -0.874023 34.0918 -1.12793L34.0918 -0.27832Q33.6084 -0.0732422 33.1006 0.0341797Q32.5928 0.141602 32.0703 0.141602Q30.7617 0.141602 29.9976 -0.620117Q29.2334 -1.38184 29.2334 -2.68066Q29.2334 -4.02344 29.9585 -4.81201Q30.6836 -5.60059 31.9141 -5.60059Q33.0176 -5.60059 33.6597 -4.89014Q34.3018 -4.17969 34.3018 -2.95898ZM33.4033 -3.22266Q33.3936 -3.95996 32.9907 -4.39941Q32.5879 -4.83887 31.9238 -4.83887Q31.1719 -4.83887 30.7202 -4.41406Q30.2686 -3.98926 30.2002 -3.21777L33.4033 -3.22266ZM37.9834 -7.29004L44.1504 -7.29004L44.1504 -6.45996L41.5625 -6.45996L41.5625 0L40.5713 0L40.5713 -6.45996L37.9834 -6.45996L37.9834 -7.29004ZM46.04 -0.830078L49.4824 -0.830078L49.4824 0L44.8535 0L44.8535 -0.830078Q45.415 -1.41113 46.3843 -2.39014Q47.3535 -3.36914 47.6025 -3.65234Q48.0762 -4.18457 48.2642 -4.55322Q48.4521 -4.92187 48.4521 -5.27832Q48.4521 -5.85937 48.0444 -6.22559Q47.6367 -6.5918 46.9824 -6.5918Q46.5186 -6.5918 46.0034 -6.43066Q45.4883 -6.26953 44.9023 -5.94238L44.9023 -6.93848Q45.498 -7.17773 46.0156 -7.2998Q46.5332 -7.42188 46.9629 -7.42188Q48.0957 -7.42188 48.7695 -6.85547Q49.4434 -6.28906 49.4434 -5.3418Q49.4434 -4.89258 49.2749 -4.48975Q49.1064 -4.08691 48.6621 -3.54004Q48.54 -3.39844 47.8857 -2.72217Q47.2314 -2.0459 46.04 -0.830078Z" fill="#262626" transform="translate(716,542.7333333333333)" />
<path d="M4.43848 -3.41797Q4.75586 -3.31055 5.05615 -2.95898Q5.35645 -2.60742 5.65918 -1.99219L6.66016 0L5.60059 0L4.66797 -1.87012Q4.30664 -2.60254 3.96729 -2.8418Q3.62793 -3.08105 3.04199 -3.08105L1.96777 -3.08105L1.96777 0L0.981445 0L0.981445 -7.29004L3.20801 -7.29004Q4.45801 -7.29004 5.07324 -6.76758Q5.68848 -6.24512 5.68848 -5.19043Q5.68848 -4.50195 5.36865 -4.04785Q5.04883 -3.59375 4.43848 -3.41797ZM1.96777 -6.47949L1.96777 -3.8916L3.20801 -3.8916Q3.9209 -3.8916 4.28467 -4.22119Q4.64844 -4.55078 4.64844 -5.19043Q4.64844 -5.83008 4.28467 -6.15479Q3.9209 -6.47949 3.20801 -6.47949L1.96777 -6.47949ZM12.5684 -2.95898L12.5684 -2.51953L8.4375 -2.51953Q8.49609 -1.5918 8.99658 -1.10596Q9.49707 -0.620117 10.3906 -0.620117Q10.9082 -0.620117 11.394 -0.74707Q11.8799 -0.874023 12.3584 -1.12793L12.3584 -0.27832Q11.875 -0.0732422 11.3672 0.0341797Q10.8594 0.141602 10.3369 0.141602Q9.02832 0.141602 8.26416 -0.620117Q7.5 -1.38184 7.5 -2.68066Q7.5 -4.02344 8.2251 -4.81201Q8.9502 -5.60059 10.1807 -5.60059Q11.2842 -5.60059 11.9263 -4.89014Q12.5684 -4.17969 12.5684 -2.95898ZM11.6699 -3.22266Q11.6602 -3.95996 11.2573 -4.39941Q10.8545 -4.83887 10.1904 -4.83887Q9.43848 -4.83887 8.98682 -4.41406Q8.53516 -3.98926 8.4668 -3.21777L11.6699 -3.22266ZM17.9785 -5.25879L17.9785 -4.41895Q17.5977 -4.62891 17.2144 -4.73389Q16.8311 -4.83887 16.4404 -4.83887Q15.5664 -4.83887 15.083 -4.28467Q14.5996 -3.73047 14.5996 -2.72949Q14.5996 -1.72852 15.083 -1.17432Q15.5664 -0.620117 16.4404 -0.620117Q16.8311 -0.620117 17.2144 -0.725098Q17.5977 -0.830078 17.9785 -1.04004L17.9785 -0.209961Q17.6025 -0.0341797 17.1997 0.0537109Q16.7969 0.141602 16.3428 0.141602Q15.1074 0.141602 14.3799 -0.634766Q13.6523 -1.41113 13.6523 -2.72949Q13.6523 -4.06738 14.3872 -4.83398Q15.1221 -5.60059 16.4014 -5.60059Q16.8164 -5.60059 17.2119 -5.51514Q17.6074 -5.42969 17.9785 -5.25879ZM21.6602 -4.83887Q20.9375 -4.83887 20.5176 -4.2749Q20.0977 -3.71094 20.0977 -2.72949Q20.0977 -1.74805 20.5151 -1.18408Q20.9326 -0.620117 21.6602 -0.620117Q22.3779 -0.620117 22.7979 -1.18652Q23.2178 -1.75293 23.2178 -2.72949Q23.2178 -3.70117 22.7979 -4.27002Q22.3779 -4.83887 21.6602 -4.83887ZM21.6602 -5.60059Q22.832 -5.60059 23.501 -4.83887Q24.1699 -4.07715 24.1699 -2.72949Q24.1699 -1.38672 23.501 -0.622559Q22.832 0.141602 21.6602 0.141602Q20.4834 0.141602 19.8169 -0.622559Q19.1504 -1.38672 19.1504 -2.72949Q19.1504 -4.07715 19.8169 -4.83887Q20.4834 -5.60059 21.6602 -5.60059ZM25.0146 -5.46875L25.9668 -5.46875L27.6758 -0.878906L29.3848 -5.46875L30.3369 -5.46875L28.2861 0L27.0654 0L25.0146 -5.46875ZM36.2549 -2.95898L36.2549 -2.51953L32.124 -2.51953Q32.1826 -1.5918 32.6831 -1.10596Q33.1836 -0.620117 34.0771 -0.620117Q34.5947 -0.620117 35.0806 -0.74707Q35.5664 -0.874023 36.0449 -1.12793L36.0449 -0.27832Q35.5615 -0.0732422 35.0537 0.0341797Q34.5459 0.141602 34.0234 0.141602Q32.7148 0.141602 31.9507 -0.620117Q31.1865 -1.38184 31.1865 -2.68066Q31.1865 -4.02344 31.9116 -4.81201Q32.6367 -5.60059 33.8672 -5.60059Q34.9707 -5.60059 35.6128 -4.89014Q36.2549 -4.17969 36.2549 -2.95898ZM35.3564 -3.22266Q35.3467 -3.95996 34.9438 -4.39941Q34.541 -4.83887 33.877 -4.83887Q33.125 -4.83887 32.6733 -4.41406Q32.2217 -3.98926 32.1533 -3.21777L35.3564 -3.22266ZM40.8984 -4.62891Q40.7471 -4.7168 40.5688 -4.7583Q40.3906 -4.7998 40.1758 -4.7998Q39.4141 -4.7998 39.0063 -4.3042Q38.5986 -3.80859 38.5986 -2.88086L38.5986 0L37.6953 0L37.6953 -5.46875L38.5986 -5.46875L38.5986 -4.61914Q38.8818 -5.11719 39.3359 -5.35889Q39.79 -5.60059 40.4395 -5.60059Q40.5322 -5.60059 40.6445 -5.58838Q40.7568 -5.57617 40.8936 -5.55176L40.8984 -4.62891ZM44.0479 -7.29004L50.2148 -7.29004L50.2148 -6.45996L47.627 -6.45996L47.627 0L46.6357 0L46.6357 -6.45996L44.0479 -6.45996L44.0479 -7.29004ZM52.1045 -0.830078L55.5469 -0.830078L55.5469 0L50.918 0L50.918 -0.830078Q51.4795 -1.41113 52.4487 -2.39014Q53.418 -3.36914 53.667 -3.65234Q54.1406 -4.18457 54.3286 -4.55322Q54.5166 -4.92187 54.5166 -5.27832Q54.5166 -5.85937 54.1089 -6.22559Q53.7012 -6.5918 53.0469 -6.5918Q52.583 -6.5918 52.0679 -6.43066Q51.5527 -6.26953 50.9668 -5.94238L50.9668 -6.93848Q51.5625 -7.17773 52.0801 -7.2998Q52.5977 -7.42188 53.0273 -7.42188Q54.1602 -7.42188 54.834 -6.85547Q55.5078 -6.28906 55.5078 -5.3418Q55.5078 -4.89258 55.3394 -4.48975Q55.1709 -4.08691 54.7266 -3.54004Q54.6045 -3.39844 53.9502 -2.72217Q53.2959 -2.0459 52.1045 -0.830078Z" fill="#262626" transform="translate(716,318.2416666666667)" />
<path d="M4.43848 -3.41797Q4.75586 -3.31055 5.05615 -2.95898Q5.35645 -2.60742 5.65918 -1.99219L6.66016 0L5.60059 0L4.66797 -1.87012Q4.30664 -2.60254 3.96729 -2.8418Q3.62793 -3.08105 3.04199 -3.08105L1.96777 -3.08105L1.96777 0L0.981445 0L0.981445 -7.29004L3.20801 -7.29004Q4.45801 -7.29004 5.07324 -6.76758Q5.68848 -6.24512 5.68848 -5.19043Q5.68848 -4.50195 5.36865 -4.04785Q5.04883 -3.59375 4.43848 -3.41797ZM1.96777 -6.47949L1.96777 -3.8916L3.20801 -3.8916Q3.9209 -3.8916 4.28467 -4.22119Q4.64844 -4.55078 4.64844 -5.19043Q4.64844 -5.83008 4.28467 -6.15479Q3.9209 -6.47949 3.20801 -6.47949L1.96777 -6.47949ZM12.5684 -2.95898L12.5684 -2.51953L8.4375 -2.51953Q8.49609 -1.5918 8.99658 -1.10596Q9.49707 -0.620117 10.3906 -0.620117Q10.9082 -0.620117 11.394 -0.74707Q11.8799 -0.874023 12.3584 -1.12793L12.3584 -0.27832Q11.875 -0.0732422 11.3672 0.0341797Q10.8594 0.141602 10.3369 0.141602Q9.02832 0.141602 8.26416 -0.620117Q7.5 -1.38184 7.5 -2.68066Q7.5 -4.02344 8.2251 -4.81201Q8.9502 -5.60059 10.1807 -5.60059Q11.2842 -5.60059 11.9263 -4.89014Q12.5684 -4.17969 12.5684 -2.95898ZM11.6699 -3.22266Q11.6602 -3.95996 11.2573 -4.39941Q10.8545 -4.83887 10.1904 -4.83887Q9.43848 -4.83887 8.98682 -4.41406Q8.53516 -3.98926 8.4668 -3.21777L11.6699 -3.22266ZM17.9785 -5.25879L17.9785 -4.41895Q17.5977 -4.62891 17.2144 -4.73389Q16.8311 -4.83887 16.4404 -4.83887Q15.5664 -4.83887 15.083 -4.28467Q14.5996 -3.73047 14.5996 -2.72949Q14.5996 -1.72852 15.083 -1.17432Q15.5664 -0.620117 16.4404 -0.620117Q16.8311 -0.620117 17.2144 -0.725098Q17.5977 -0.830078 17.9785 -1.04004L17.9785 -0.209961Q17.6025 -0.0341797 17.1997 0.0537109Q16.7969 0.141602 16.3428 0.141602Q15.1074 0.141602 14.3799 -0.634766Q13.6523 -1.41113 13.6523 -2.72949Q13.6523 -4.06738 14.3872 -4.83398Q15.1221 -5.60059 16.4014 -5.60059Q16.8164 -5.60059 17.2119 -5.51514Q17.6074 -5.42969 17.9785 -5.25879ZM21.6602 -4.83887Q20.9375 -4.83887 20.5176 -4.2749Q20.0977 -3.71094 20.0977 -2.72949Q20.0977 -1.74805 20.5151 -1.18408Q20.9326 -0.620117 21.6602 -0.620117Q22.3779 -0.620117 22.7979 -1.18652Q23.2178 -1.75293 23.2178 -2.72949Q23.2178 -3.70117 22.7979 -4.27002Q22.3779 -4.83887 21.6602 -4.83887ZM21.6602 -5.60059Q22.832 -5.60059 23.501 -4.83887Q24.1699 -4.07715 24.1699 -2.72949Q24.1699 -1.38672 23.501 -0.622559Q22.832 0.141602 21.6602 0.141602Q20.4834 0.141602 19.8169 -0.622559Q19.1504 -1.38672 19.1504 -2.72949Q19.1504 -4.07715 19.8169 -4.83887Q20.4834 -5.60059 21.6602 -5.60059ZM25.0146 -5.46875L25.9668 -5.46875L27.6758 -0.878906L29.3848 -5.46875L30.3369 -5.46875L28.2861 0L27.0654 0L25.0146 -5.46875ZM36.2549 -2.95898L36.2549 -2.51953L32.124 -2.51953Q32.1826 -1.5918 32.6831 -1.10596Q33.1836 -0.620117 34.0771 -0.620117Q34.5947 -0.620117 35.0806 -0.74707Q35.5664 -0.874023 36.0449 -1.12793L36.0449 -0.27832Q35.5615 -0.0732422 35.0537 0.0341797Q34.5459 0.141602 34.0234 0.141602Q32.7148 0.141602 31.9507 -0.620117Q31.1865 -1.38184 31.1865 -2.68066Q31.1865 -4.02344 31.9116 -4.81201Q32.6367 -5.60059 33.8672 -5.60059Q34.9707 -5.60059 35.6128 -4.89014Q36.2549 -4.17969 36.2549 -2.95898ZM35.3564 -3.22266Q35.3467 -3.95996 34.9438 -4.39941Q34.541 -4.83887 33.877 -4.83887Q33.125 -4.83887 32.6733 -4.41406Q32.2217 -3.98926 32.1533 -3.21777L35.3564 -3.22266ZM40.8984 -4.62891Q40.7471 -4.7168 40.5688 -4.7583Q40.3906 -4.7998 40.1758 -4.7998Q39.4141 -4.7998 39.0063 -4.3042Q38.5986 -3.80859 38.5986 -2.88086L38.5986 0L37.6953 0L37.6953 -5.46875L38.5986 -5.46875L38.5986 -4.61914Q38.8818 -5.11719 39.3359 -5.35889Q39.79 -5.60059 40.4395 -5.60059Q40.5322 -5.60059 40.6445 -5.58838Q40.7568 -5.57617 40.8936 -5.55176L40.8984 -4.62891ZM44.0479 -7.29004L50.2148 -7.29004L50.2148 -6.45996L47.627 -6.45996L47.627 0L46.6357 0L46.6357 -6.45996L44.0479 -6.45996L44.0479 -7.29004ZM54.2432 -3.93066Q54.9512 -3.7793 55.3491 -3.30078Q55.7471 -2.82227 55.7471 -2.11914Q55.7471 -1.04004 55.0049 -0.449219Q54.2627 0.141602 52.8955 0.141602Q52.4365 0.141602 51.9507 0.0512695Q51.4648 -0.0390625 50.9473 -0.219727L50.9473 -1.17188Q51.3574 -0.932617 51.8457 -0.810547Q52.334 -0.688477 52.8662 -0.688477Q53.7939 -0.688477 54.2798 -1.05469Q54.7656 -1.4209 54.7656 -2.11914Q54.7656 -2.76367 54.314 -3.12744Q53.8623 -3.49121 53.0566 -3.49121L52.207 -3.49121L52.207 -4.30176L53.0957 -4.30176Q53.8232 -4.30176 54.209 -4.59229Q54.5947 -4.88281 54.5947 -5.42969Q54.5947 -5.99121 54.1968 -6.2915Q53.7988 -6.5918 53.0566 -6.5918Q52.6514 -6.5918 52.1875 -6.50391Q51.7236 -6.41602 51.167 -6.23047L51.167 -7.10938Q51.7285 -7.26562 52.2192 -7.34375Q52.71 -7.42188 53.1445 -7.42188Q54.2676 -7.42188 54.9219 -6.91162Q55.5762 -6.40137 55.5762 -5.53223Q55.5762 -4.92676 55.2295 -4.50928Q54.8828 -4.0918 54.2432 -3.93066Z" fill="#262626" transform="translate(968,258.43750000000006) translate(-56.5478515625,0)" />
<path d="M0.981445 -7.29004L2.45117 -7.29004L4.31152 -2.3291L6.18164 -7.29004L7.65137 -7.29004L7.65137 0L6.68945 0L6.68945 -6.40137L4.80957 -1.40137L3.81836 -1.40137L1.93848 -6.40137L1.93848 0L0.981445 0L0.981445 -7.29004ZM11.6895 -4.83887Q10.9668 -4.83887 10.5469 -4.2749Q10.127 -3.71094 10.127 -2.72949Q10.127 -1.74805 10.5444 -1.18408Q10.9619 -0.620117 11.6895 -0.620117Q12.4072 -0.620117 12.8271 -1.18652Q13.2471 -1.75293 13.2471 -2.72949Q13.2471 -3.70117 12.8271 -4.27002Q12.4072 -4.83887 11.6895 -4.83887ZM11.6895 -5.60059Q12.8613 -5.60059 13.5303 -4.83887Q14.1992 -4.07715 14.1992 -2.72949Q14.1992 -1.38672 13.5303 -0.622559Q12.8613 0.141602 11.6895 0.141602Q10.5127 0.141602 9.84619 -0.622559Q9.17969 -1.38672 9.17969 -2.72949Q9.17969 -4.07715 9.84619 -4.83887Q10.5127 -5.60059 11.6895 -5.60059ZM19.2871 -4.63867L19.2871 -7.59766L20.1855 -7.59766L20.1855 0L19.2871 0L19.2871 -0.820313Q19.0039 -0.332031 18.5718 -0.0952148Q18.1396 0.141602 17.5342 0.141602Q16.543 0.141602 15.9204 -0.649414Q15.2979 -1.44043 15.2979 -2.72949Q15.2979 -4.01855 15.9204 -4.80957Q16.543 -5.60059 17.5342 -5.60059Q18.1396 -5.60059 18.5718 -5.36377Q19.0039 -5.12695 19.2871 -4.63867ZM16.2256 -2.72949Q16.2256 -1.73828 16.6333 -1.17432Q17.041 -0.610352 17.7539 -0.610352Q18.4668 -0.610352 18.877 -1.17432Q19.2871 -1.73828 19.2871 -2.72949Q19.2871 -3.7207 18.877 -4.28467Q18.4668 -4.84863 17.7539 -4.84863Q17.041 -4.84863 16.6333 -4.28467Q16.2256 -3.7207 16.2256 -2.72949ZM24.2432 -7.29004L30.4102 -7.29004L30.4102 -6.45996L27.8223 -6.45996L27.8223 0L26.8311 0L26.8311 -6.45996L24.2432 -6.45996L24.2432 -7.29004ZM34.4385 -3.93066Q35.1465 -3.7793 35.5444 -3.30078Q35.9424 -2.82227 35.9424 -2.11914Q35.9424 -1.04004 35.2002 -0.449219Q34.458 0.141602 33.0908 0.141602Q32.6318 0.141602 32.146 0.0512695Q31.6602 -0.0390625 31.1426 -0.219727L31.1426 -1.17188Q31.5527 -0.932617 32.041 -0.810547Q32.5293 -0.688477 33.0615 -0.688477Q33.9893 -0.688477 34.4751 -1.05469Q34.9609 -1.4209 34.9609 -2.11914Q34.9609 -2.76367 34.5093 -3.12744Q34.0576 -3.49121 33.252 -3.49121L32.4023 -3.49121L32.4023 -4.30176L33.291 -4.30176Q34.0186 -4.30176 34.4043 -4.59229Q34.79 -4.88281 34.79 -5.42969Q34.79 -5.99121 34.3921 -6.2915Q33.9941 -6.5918 33.252 -6.5918Q32.8467 -6.5918 32.3828 -6.50391Q31.9189 -6.41602 31.3623 -6.23047L31.3623 -7.10938Q31.9238 -7.26562 32.4146 -7.34375Q32.9053 -7.42188 33.3398 -7.42188Q34.4629 -7.42188 35.1172 -6.91162Q35.7715 -6.40137 35.7715 -5.53223Q35.7715 -4.92676 35.4248 -4.50928Q35.0781 -4.0918 34.4385 -3.93066Z" fill="#262626" transform="translate(968,476.7875000000001) translate(-36.7431640625,0)" />
<path d="M5.35156 -7.05078L5.35156 -6.08887Q4.79004 -6.35742 4.29199 -6.48926Q3.79394 -6.62109 3.33008 -6.62109Q2.52441 -6.62109 2.0874 -6.30859Q1.65039 -5.99609 1.65039 -5.41992Q1.65039 -4.93652 1.94092 -4.68994Q2.23145 -4.44336 3.04199 -4.29199L3.6377 -4.16992Q4.74121 -3.95996 5.26611 -3.43018Q5.79102 -2.90039 5.79102 -2.01172Q5.79102 -0.952148 5.08057 -0.405273Q4.37012 0.141602 2.99805 0.141602Q2.48047 0.141602 1.89697 0.0244141Q1.31348 -0.0927734 0.688477 -0.322266L0.688477 -1.33789Q1.28906 -1.00098 1.86523 -0.830078Q2.44141 -0.65918 2.99805 -0.65918Q3.84277 -0.65918 4.30176 -0.991211Q4.76074 -1.32324 4.76074 -1.93848Q4.76074 -2.47559 4.43115 -2.77832Q4.10156 -3.08105 3.34961 -3.23242L2.74902 -3.34961Q1.64551 -3.56934 1.15234 -4.03809Q0.65918 -4.50684 0.65918 -5.3418Q0.65918 -6.30859 1.34033 -6.86523Q2.02148 -7.42188 3.21777 -7.42188Q3.73047 -7.42188 4.2627 -7.3291Q4.79492 -7.23633 5.35156 -7.05078ZM11.9678 -2.95898L11.9678 -2.51953L7.83691 -2.51953Q7.89551 -1.5918 8.396 -1.10596Q8.89648 -0.620117 9.79004 -0.620117Q10.3076 -0.620117 10.7935 -0.74707Q11.2793 -0.874023 11.7578 -1.12793L11.7578 -0.27832Q11.2744 -0.0732422 10.7666 0.0341797Q10.2588 0.141602 9.73633 0.141602Q8.42773 0.141602 7.66357 -0.620117Q6.89941 -1.38184 6.89941 -2.68066Q6.89941 -4.02344 7.62451 -4.81201Q8.34961 -5.60059 9.58008 -5.60059Q10.6836 -5.60059 11.3257 -4.89014Q11.9678 -4.17969 11.9678 -2.95898ZM11.0693 -3.22266Q11.0596 -3.95996 10.6567 -4.39941Q10.2539 -4.83887 9.58984 -4.83887Q8.83789 -4.83887 8.38623 -4.41406Q7.93457 -3.98926 7.86621 -3.21777L11.0693 -3.22266ZM12.7979 -5.46875L13.75 -5.46875L15.459 -0.878906L17.168 -5.46875L18.1201 -5.46875L16.0693 0L14.8486 0L12.7979 -5.46875ZM24.0381 -2.95898L24.0381 -2.51953L19.9072 -2.51953Q19.9658 -1.5918 20.4663 -1.10596Q20.9668 -0.620117 21.8604 -0.620117Q22.3779 -0.620117 22.8638 -0.74707Q23.3496 -0.874023 23.8281 -1.12793L23.8281 -0.27832Q23.3447 -0.0732422 22.8369 0.0341797Q22.3291 0.141602 21.8066 0.141602Q20.498 0.141602 19.7339 -0.620117Q18.9697 -1.38184 18.9697 -2.68066Q18.9697 -4.02344 19.6948 -4.81201Q20.4199 -5.60059 21.6504 -5.60059Q22.7539 -5.60059 23.396 -4.89014Q24.0381 -4.17969 24.0381 -2.95898ZM23.1396 -3.22266Q23.1299 -3.95996 22.7271 -4.39941Q22.3242 -4.83887 21.6602 -4.83887Q20.9082 -4.83887 20.4565 -4.41406Q20.0049 -3.98926 19.9365 -3.21777L23.1396 -3.22266ZM28.6816 -4.62891Q28.5303 -4.7168 28.3521 -4.7583Q28.1738 -4.7998 27.959 -4.7998Q27.1973 -4.7998 26.7896 -4.3042Q26.3818 -3.80859 26.3818 -2.88086L26.3818 0L25.4785 0L25.4785 -5.46875L26.3818 -5.46875L26.3818 -4.61914Q26.665 -5.11719 27.1191 -5.35889Q27.5732 -5.60059 28.2227 -5.60059Q28.3154 -5.60059 28.4277 -5.58838Q28.54 -5.57617 28.6768 -5.55176L28.6816 -4.62891ZM34.3018 -2.95898L34.3018 -2.51953L30.1709 -2.51953Q30.2295 -1.5918 30.73 -1.10596Q31.2305 -0.620117 32.124 -0.620117Q32.6416 -0.620117 33.1274 -0.74707Q33.6133 -0.874023 34.0918 -1.12793L34.0918 -0.27832Q33.6084 -0.0732422 33.1006 0.0341797Q32.5928 0.141602 32.0703 0.141602Q30.7617 0.141602 29.9976 -0.620117Q29.2334 -1.38184 29.2334 -2.68066Q29.2334 -4.02344 29.9585 -4.81201Q30.6836 -5.60059 31.9141 -5.60059Q33.0176 -5.60059 33.6597 -4.89014Q34.3018 -4.17969 34.3018 -2.95898ZM33.4033 -3.22266Q33.3936 -3.95996 32.9907 -4.39941Q32.5879 -4.83887 31.9238 -4.83887Q31.1719 -4.83887 30.7202 -4.41406Q30.2686 -3.98926 30.2002 -3.21777L33.4033 -3.22266ZM37.9834 -7.29004L44.1504 -7.29004L44.1504 -6.45996L41.5625 -6.45996L41.5625 0L40.5713 0L40.5713 -6.45996L37.9834 -6.45996L37.9834 -7.29004ZM48.1787 -3.93066Q48.8867 -3.7793 49.2847 -3.30078Q49.6826 -2.82227 49.6826 -2.11914Q49.6826 -1.04004 48.9404 -0.449219Q48.1982 0.141602 46.8311 0.141602Q46.3721 0.141602 45.8862 0.0512695Q45.4004 -0.0390625 44.8828 -0.219727L44.8828 -1.17188Q45.293 -0.932617 45.7813 -0.810547Q46.2695 -0.688477 46.8018 -0.688477Q47.7295 -0.688477 48.2153 -1.05469Q48.7012 -1.4209 48.7012 -2.11914Q48.7012 -2.76367 48.2495 -3.12744Q47.7979 -3.49121 46.9922 -3.49121L46.1426 -3.49121L46.1426 -4.30176L47.0313 -4.30176Q47.7588 -4.30176 48.1445 -4.59229Q48.5303 -4.88281 48.5303 -5.42969Q48.5303 -5.99121 48.1323 -6.2915Q47.7344 -6.5918 46.9922 -6.5918Q46.5869 -6.5918 46.123 -6.50391Q45.6592 -6.41602 45.1025 -6.23047L45.1025 -7.10938Q45.6641 -7.26562 46.1548 -7.34375Q46.6455 -7.42188 47.0801 -7.42188Q48.2031 -7.42188 48.8574 -6.91162Q49.5117 -6.40137 49.5117 -5.53223Q49.5117 -4.92676 49.165 -4.50928Q48.8184 -4.0918 48.1787 -3.93066Z" fill="#262626" transform="translate(968,550.45) translate(-50.4833984375,0)" />
</svg>
