<svg xmlns="http://www.w3.org/2000/svg" viewBox="0 0 800 700" width="800" height="700" style="width:100%;height:auto" role="img" aria-labelledby="chart-title">
<title id="chart-title">Scatter with Marginal Histograms</title>
<rect x="0" y="0" width="800" height="700" fill="#FFFFFF" />
<path d="M10.7176 -12.6305L10.7176 -9.87033Q9.64323 -10.3507 8.62126 -10.5953Q7.59928 -10.8399 6.69086 -10.8399Q5.48546 -10.8399 4.90896 -10.508Q4.33247 -10.1761 4.33247 -9.47727Q4.33247 -8.95318 4.72116 -8.66056Q5.10986 -8.36795 6.13184 -8.15831L7.56434 -7.87006Q9.73931 -7.43332 10.6565 -6.54237Q11.5736 -5.65142 11.5736 -4.00928Q11.5736 -1.85178 10.294 -0.799235Q9.01432 0.253309 6.38515 0.253309Q5.1448 0.253309 3.89573 0.0174696Q2.64665 -0.21837 1.39757 -0.681315L1.39757 -3.52013Q2.64665 -2.85628 3.81274 -2.51999Q4.97884 -2.1837 6.06196 -2.1837Q7.16254 -2.1837 7.74778 -2.55056Q8.33301 -2.91743 8.33301 -3.59874Q8.33301 -4.21018 7.93557 -4.5421Q7.53814 -4.87402 6.35021 -5.13607L5.04872 -5.42432Q3.09212 -5.84359 2.18807 -6.76074Q1.28402 -7.6779 1.28402 -9.23269Q1.28402 -11.1806 2.54183 -12.2287Q3.79964 -13.2769 6.15804 -13.2769Q7.23242 -13.2769 8.36795 -13.1153Q9.50347 -12.9537 10.7176 -12.6305ZM22.2912 -9.47727L22.2912 -6.9267Q21.6536 -7.36344 21.0116 -7.57308Q20.3696 -7.78271 19.6795 -7.78271Q18.3693 -7.78271 17.6399 -7.01842Q16.9106 -6.25412 16.9106 -4.88276Q16.9106 -3.51139 17.6399 -2.7471Q18.3693 -1.9828 19.6795 -1.9828Q20.4132 -1.9828 21.0727 -2.20117Q21.7322 -2.41954 22.2912 -2.84755L22.2912 -0.288249C21.8021 -0.107729 21.3057 0.0276602 20.8019 0.11792Q20.0464 0.253309 19.2865 0.253309Q16.6398 0.253309 15.1462 -1.10495Q13.6525 -2.46322 13.6525 -4.88276Q13.6525 -7.3023 15.1462 -8.66056Q16.6398 -10.0188 19.2865 -10.0188Q20.0551 -10.0188 20.8019 -9.88344Q21.5488 -9.74805 22.2912 -9.47727ZM29.3752 -4.40234Q28.3969 -4.40234 27.9033 -4.07042Q27.4098 -3.7385 27.4098 -3.09212Q27.4098 -2.49816 27.8073 -2.16187Q28.2047 -1.82558 28.9122 -1.82558Q29.7944 -1.82558 30.3971 -2.45885Q30.9998 -3.09212 30.9998 -4.04422L30.9998 -4.40234L29.3752 -4.40234ZM34.1531 -5.58154L34.1531 0L30.9998 0L30.9998 -1.44998Q30.3709 -0.559028 29.5848 -0.152859Q28.7987 0.253309 27.6719 0.253309Q26.152 0.253309 25.2043 -0.633274Q24.2566 -1.51986 24.2566 -2.9349Q24.2566 -4.65565 25.4401 -5.45926Q26.6237 -6.26286 29.1568 -6.26286L30.9998 -6.26286L30.9998 -6.50743Q30.9998 -7.24989 30.4146 -7.59492Q29.8294 -7.93994 28.589 -7.93994Q27.5845 -7.93994 26.7198 -7.73904Q25.855 -7.53814 25.1126 -7.13634L25.1126 -9.52094Q26.1171 -9.76552 27.1303 -9.89217Q28.1436 -10.0188 29.1568 -10.0188Q31.8034 -10.0188 32.9783 -8.97502Q34.1531 -7.93121 34.1531 -5.58154ZM40.4771 -12.5607L40.4771 -9.78299L43.7003 -9.78299L43.7003 -7.54688L40.4771 -7.54688L40.4771 -3.39784Q40.4771 -2.71653 40.7479 -2.47632Q41.0187 -2.23611 41.8223 -2.23611L43.4295 -2.23611L43.4295 0L40.7479 0Q38.8961 0 38.1231 -0.773031Q37.35 -1.54606 37.35 -3.39784L37.35 -7.54688L35.7952 -7.54688L35.7952 -9.78299L37.35 -9.78299L37.35 -12.5607L40.4771 -12.5607ZM49.0285 -12.5607L49.0285 -9.78299L52.2516 -9.78299L52.2516 -7.54688L49.0285 -7.54688L49.0285 -3.39784Q49.0285 -2.71653 49.2993 -2.47632Q49.57 -2.23611 50.3736 -2.23611L51.9809 -2.23611L51.9809 0L49.2993 0Q47.4475 0 46.6745 -0.773031Q45.9014 -1.54606 45.9014 -3.39784L45.9014 -7.54688L44.3466 -7.54688L44.3466 -9.78299L45.9014 -9.78299L45.9014 -12.5607L49.0285 -12.5607ZM63.9301 -4.9177L63.9301 -4.02675L56.619 -4.02675Q56.7326 -2.92616 57.4139 -2.37587Q58.0952 -1.82558 59.3181 -1.82558Q60.3051 -1.82558 61.3402 -2.11819Q62.3753 -2.41081 63.4671 -3.00477L63.4671 -0.593967Q62.3578 -0.174696 61.2485 0.0393066Q60.1392 0.253309 59.0298 0.253309Q56.3745 0.253309 54.9026 -1.09622Q53.4308 -2.44575 53.4308 -4.88276Q53.4308 -7.2761 54.8764 -8.64746Q56.322 -10.0188 58.8551 -10.0188Q61.1611 -10.0188 62.5456 -8.62999Q63.9301 -7.24116 63.9301 -4.9177ZM60.7157 -5.95714Q60.7157 -6.84809 60.1959 -7.39402Q59.6762 -7.93994 58.8377 -7.93994Q57.9293 -7.93994 57.3615 -7.42896Q56.7937 -6.91797 56.654 -5.95714L60.7157 -5.95714ZM73.5646 -7.11887Q73.154 -7.31103 72.7479 -7.40275Q72.3417 -7.49447 71.9312 -7.49447Q70.7258 -7.49447 70.075 -6.72144Q69.4243 -5.94841 69.4243 -4.50716L69.4243 0L66.2972 0L66.2972 -9.78299L69.4243 -9.78299L69.4243 -8.17578Q70.027 -9.13661 70.8087 -9.57772Q71.5905 -10.0188 72.6824 -10.0188Q72.8396 -10.0188 73.023 -10.0057Q73.2064 -9.99262 73.5558 -9.94895L73.5646 -7.11887ZM80.4738 -9.78299L83.5135 -9.78299L85.1557 -3.03971L86.8065 -9.78299L89.4182 -9.78299L91.0604 -3.10959L92.7113 -9.78299L95.751 -9.78299L93.1742 0L89.7589 0L88.108 -6.7258L86.4659 0L83.0506 0L80.4738 -9.78299ZM97.8735 -9.78299L101.001 -9.78299L101.001 0L97.8735 0L97.8735 -9.78299ZM97.8735 -13.5914L101.001 -13.5914L101.001 -11.0408L97.8735 -11.0408L97.8735 -13.5914ZM107.421 -12.5607L107.421 -9.78299L110.644 -9.78299L110.644 -7.54688L107.421 -7.54688L107.421 -3.39784Q107.421 -2.71653 107.691 -2.47632Q107.962 -2.23611 108.766 -2.23611L110.373 -2.23611L110.373 0L107.691 0Q105.84 0 105.067 -0.773031Q104.294 -1.54606 104.294 -3.39784L104.294 -7.54688L102.739 -7.54688L102.739 -9.78299L104.294 -9.78299L104.294 -12.5607L107.421 -12.5607ZM122.392 -5.95714L122.392 0L119.248 0L119.248 -0.969564L119.248 -4.5421Q119.248 -5.82612 119.191 -6.30653Q119.134 -6.78695 118.994 -7.01405Q118.811 -7.31977 118.496 -7.4901Q118.182 -7.66043 117.78 -7.66043Q116.802 -7.66043 116.243 -6.90487Q115.684 -6.14931 115.684 -4.81288L115.684 0L112.557 0L112.557 -13.5914L115.684 -13.5914L115.684 -8.35048Q116.391 -9.20649 117.186 -9.61266Q117.981 -10.0188 118.942 -10.0188Q120.636 -10.0188 121.514 -8.97938Q122.392 -7.93994 122.392 -5.95714ZM131.66 -13.0411L135.94 -13.0411L138.91 -6.06196L141.897 -13.0411L146.168 -13.0411L146.168 0L142.989 0L142.989 -9.53841L139.984 -2.50689L137.853 -2.50689L134.848 -9.53841L134.848 0L131.66 0L131.66 -13.0411ZM153.706 -4.40234Q152.728 -4.40234 152.235 -4.07042Q151.741 -3.7385 151.741 -3.09212Q151.741 -2.49816 152.139 -2.16187Q152.536 -1.82558 153.243 -1.82558Q154.126 -1.82558 154.728 -2.45885Q155.331 -3.09212 155.331 -4.04422L155.331 -4.40234L153.706 -4.40234ZM158.484 -5.58154L158.484 0L155.331 0L155.331 -1.44998Q154.702 -0.559028 153.916 -0.152859Q153.13 0.253309 152.003 0.253309Q150.483 0.253309 149.536 -0.633274Q148.588 -1.51986 148.588 -2.9349Q148.588 -4.65565 149.771 -5.45926Q150.955 -6.26286 153.488 -6.26286L155.331 -6.26286L155.331 -6.50743Q155.331 -7.24989 154.746 -7.59492Q154.161 -7.93994 152.92 -7.93994Q151.916 -7.93994 151.051 -7.73904Q150.186 -7.53814 149.444 -7.13634L149.444 -9.52094Q150.448 -9.76552 151.462 -9.89217Q152.475 -10.0188 153.488 -10.0188Q156.135 -10.0188 157.31 -8.97502Q158.484 -7.93121 158.484 -5.58154ZM168.66 -7.11887Q168.25 -7.31103 167.844 -7.40275Q167.438 -7.49447 167.027 -7.49447Q165.822 -7.49447 165.171 -6.72144Q164.52 -5.94841 164.52 -4.50716L164.52 0L161.393 0L161.393 -9.78299L164.52 -9.78299L164.52 -8.17578Q165.123 -9.13661 165.905 -9.57772Q166.686 -10.0188 167.778 -10.0188Q167.935 -10.0188 168.119 -10.0057Q168.302 -9.99262 168.652 -9.94895L168.66 -7.11887ZM176.871 -1.65961Q176.225 -0.803602 175.447 -0.401801Q174.67 0 173.648 0Q171.857 0 170.687 -1.41067Q169.516 -2.82134 169.516 -5.00505Q169.516 -7.19748 170.687 -8.59942Q171.857 -10.0014 173.648 -10.0014Q174.67 -10.0014 175.447 -9.59956Q176.225 -9.19775 176.871 -8.33301L176.871 -9.78299L180.016 -9.78299L180.016 -0.987033Q180.016 1.37137 178.526 2.61608Q177.037 3.86079 174.207 3.86079Q173.29 3.86079 172.434 3.72103Q171.578 3.58127 170.713 3.29302L170.713 0.856011Q171.534 1.32769 172.32 1.55916Q173.106 1.79064 173.901 1.79064Q175.439 1.79064 176.155 1.11806Q176.871 0.445475 176.871 -0.987033L176.871 -1.65961ZM174.81 -7.74778Q173.84 -7.74778 173.299 -7.03152Q172.757 -6.31527 172.757 -5.00505Q172.757 -3.65988 173.281 -2.96547Q173.805 -2.27105 174.81 -2.27105Q175.788 -2.27105 176.33 -2.9873Q176.871 -3.70356 176.871 -5.00505Q176.871 -6.31527 176.33 -7.03152Q175.788 -7.74778 174.81 -7.74778ZM183.02 -9.78299L186.148 -9.78299L186.148 0L183.02 0L183.02 -9.78299ZM183.02 -13.5914L186.148 -13.5914L186.148 -11.0408L183.02 -11.0408L183.02 -13.5914ZM198.988 -5.95714L198.988 0L195.843 0L195.843 -0.969564L195.843 -4.55957Q195.843 -5.82612 195.786 -6.30653Q195.73 -6.78695 195.59 -7.01405Q195.406 -7.31977 195.092 -7.4901Q194.778 -7.66043 194.376 -7.66043Q193.397 -7.66043 192.838 -6.90487Q192.279 -6.14931 192.279 -4.81288L192.279 0L189.152 0L189.152 -9.78299L192.279 -9.78299L192.279 -8.35048Q192.987 -9.20649 193.782 -9.61266Q194.577 -10.0188 195.537 -10.0188Q197.232 -10.0188 198.11 -8.97938Q198.988 -7.93994 198.988 -5.95714ZM206.273 -4.40234Q205.294 -4.40234 204.801 -4.07042Q204.307 -3.7385 204.307 -3.09212Q204.307 -2.49816 204.705 -2.16187Q205.102 -1.82558 205.81 -1.82558Q206.692 -1.82558 207.295 -2.45885Q207.897 -3.09212 207.897 -4.04422L207.897 -4.40234L206.273 -4.40234ZM211.05 -5.58154L211.05 0L207.897 0L207.897 -1.44998Q207.268 -0.559028 206.482 -0.152859Q205.696 0.253309 204.569 0.253309Q203.049 0.253309 202.102 -0.633274Q201.154 -1.51986 201.154 -2.9349Q201.154 -4.65565 202.337 -5.45926Q203.521 -6.26286 206.054 -6.26286L207.897 -6.26286L207.897 -6.50743Q207.897 -7.24989 207.312 -7.59492Q206.727 -7.93994 205.486 -7.93994Q204.482 -7.93994 203.617 -7.73904Q202.752 -7.53814 202.01 -7.13634L202.01 -9.52094Q203.014 -9.76552 204.028 -9.89217Q205.041 -10.0188 206.054 -10.0188Q208.701 -10.0188 209.876 -8.97502Q211.05 -7.93121 211.05 -5.58154ZM213.959 -13.5914L217.086 -13.5914L217.086 0L213.959 0L213.959 -13.5914ZM226.459 -13.0411L229.822 -13.0411L229.822 -8.07096L234.783 -8.07096L234.783 -13.0411L238.146 -13.0411L238.146 0L234.783 0L234.783 -5.52913L229.822 -5.52913L229.822 0L226.459 0L226.459 -13.0411ZM241.29 -9.78299L244.417 -9.78299L244.417 0L241.29 0L241.29 -9.78299ZM241.29 -13.5914L244.417 -13.5914L244.417 -11.0408L241.29 -11.0408L241.29 -13.5914ZM255.065 -9.47727L255.065 -7.1014Q254.061 -7.52067 253.126 -7.73031Q252.191 -7.93994 251.362 -7.93994Q250.471 -7.93994 250.038 -7.7172Q249.606 -7.49447 249.606 -7.03152Q249.606 -6.65592 249.933 -6.45502Q250.261 -6.25412 251.108 -6.15804L251.659 -6.07943Q254.061 -5.77371 254.89 -5.07492Q255.72 -4.37614 255.72 -2.88249Q255.72 -1.31896 254.567 -0.532823Q253.414 0.253309 251.126 0.253309Q250.156 0.253309 249.121 0.10045Q248.086 -0.0524089 246.994 -0.358127L246.994 -2.734Q247.929 -2.27978 248.911 -2.05268Q249.894 -1.82557 250.907 -1.82558Q251.825 -1.82558 252.288 -2.07888Q252.75 -2.33219 252.75 -2.83008Q252.75 -3.24935 252.432 -3.45462Q252.113 -3.65989 251.161 -3.77344L250.61 -3.84332Q248.523 -4.10536 247.684 -4.81288Q246.846 -5.5204 246.846 -6.96164Q246.846 -8.51644 247.911 -9.26763Q248.977 -10.0188 251.178 -10.0188Q252.043 -10.0188 252.995 -9.8878Q253.947 -9.75678 255.065 -9.47727ZM261.485 -12.5607L261.485 -9.78299L264.708 -9.78299L264.708 -7.54688L261.485 -7.54688L261.485 -3.39784Q261.485 -2.71653 261.756 -2.47632Q262.027 -2.23611 262.83 -2.23611L264.438 -2.23611L264.438 0L261.756 0Q259.904 0 259.131 -0.773031Q258.358 -1.54606 258.358 -3.39784L258.358 -7.54688L256.803 -7.54688L256.803 -9.78299L258.358 -9.78299L258.358 -12.5607L261.485 -12.5607ZM271.277 -7.78271Q270.238 -7.78271 269.692 -7.03589Q269.146 -6.28906 269.146 -4.88276Q269.146 -3.47645 269.692 -2.72963Q270.238 -1.9828 271.277 -1.9828Q272.299 -1.9828 272.841 -2.72963Q273.382 -3.47645 273.382 -4.88276Q273.382 -6.28906 272.841 -7.03589Q272.299 -7.78271 271.277 -7.78271ZM271.277 -10.0188Q273.801 -10.0188 275.221 -8.6562Q276.64 -7.29357 276.64 -4.88276Q276.64 -2.47195 275.221 -1.10932Q273.801 0.253309 271.277 0.253309Q268.744 0.253309 267.316 -1.10932Q265.888 -2.47195 265.888 -4.88276Q265.888 -7.29357 267.316 -8.6562Q268.744 -10.0188 271.277 -10.0188ZM285.567 -1.65961Q284.921 -0.803602 284.143 -0.401801Q283.366 0 282.344 0Q280.553 0 279.383 -1.41067Q278.212 -2.82134 278.212 -5.00505Q278.212 -7.19748 279.383 -8.59942Q280.553 -10.0014 282.344 -10.0014Q283.366 -10.0014 284.143 -9.59956Q284.921 -9.19775 285.567 -8.33301L285.567 -9.78299L288.712 -9.78299L288.712 -0.987033Q288.712 1.37137 287.222 2.61608Q285.733 3.86079 282.903 3.86079Q281.986 3.86079 281.13 3.72103Q280.274 3.58127 279.409 3.29302L279.409 0.856011Q280.23 1.32769 281.016 1.55916Q281.802 1.79064 282.597 1.79064Q284.135 1.79064 284.851 1.11806Q285.567 0.445475 285.567 -0.987033L285.567 -1.65961ZM283.506 -7.74778Q282.536 -7.74778 281.995 -7.03152Q281.453 -6.31527 281.453 -5.00505Q281.453 -3.65988 281.977 -2.96547Q282.501 -2.27105 283.506 -2.27105Q284.484 -2.27105 285.026 -2.9873Q285.567 -3.70356 285.567 -5.00505Q285.567 -6.31527 285.026 -7.03152Q284.484 -7.74778 283.506 -7.74778ZM298.984 -7.11887Q298.573 -7.31103 298.167 -7.40275Q297.761 -7.49447 297.35 -7.49447Q296.145 -7.49447 295.494 -6.72144Q294.844 -5.94841 294.844 -4.50716L294.844 0L291.716 0L291.716 -9.78299L294.844 -9.78299L294.844 -8.17578Q295.446 -9.13661 296.228 -9.57772Q297.01 -10.0188 298.102 -10.0188Q298.259 -10.0188 298.442 -10.0057Q298.626 -9.99262 298.975 -9.94895L298.984 -7.11887ZM304.923 -4.40234Q303.945 -4.40234 303.452 -4.07042Q302.958 -3.7385 302.958 -3.09212Q302.958 -2.49816 303.356 -2.16187Q303.753 -1.82558 304.461 -1.82558Q305.343 -1.82558 305.945 -2.45885Q306.548 -3.09212 306.548 -4.04422L306.548 -4.40234L304.923 -4.40234ZM309.701 -5.58154L309.701 0L306.548 0L306.548 -1.44998Q305.919 -0.559028 305.133 -0.152859Q304.347 0.253309 303.22 0.253309Q301.7 0.253309 300.753 -0.633274Q299.805 -1.51986 299.805 -2.9349Q299.805 -4.65565 300.988 -5.45926Q302.172 -6.26286 304.705 -6.26286L306.548 -6.26286L306.548 -6.50743Q306.548 -7.24989 305.963 -7.59492Q305.378 -7.93994 304.137 -7.93994Q303.133 -7.93994 302.268 -7.73904Q301.403 -7.53814 300.661 -7.13634L300.661 -9.52094Q301.665 -9.76552 302.679 -9.89217Q303.692 -10.0188 304.705 -10.0188Q307.352 -10.0188 308.527 -8.97502Q309.701 -7.93121 309.701 -5.58154ZM321.677 -8.15831Q322.271 -9.06673 323.088 -9.54278Q323.904 -10.0188 324.883 -10.0188Q326.568 -10.0188 327.451 -8.97938Q328.333 -7.93994 328.333 -5.95714L328.333 0L325.188 0L325.188 -5.10113Q325.197 -5.21468 325.201 -5.33697Q325.206 -5.45926 325.206 -5.68636Q325.206 -6.7258 324.9 -7.19312Q324.594 -7.66043 323.913 -7.66043Q323.022 -7.66043 322.537 -6.9267Q322.052 -6.19298 322.035 -4.80414L322.035 0L318.89 0L318.89 -5.10113Q318.89 -6.7258 318.611 -7.19312Q318.331 -7.66043 317.615 -7.66043Q316.715 -7.66043 316.226 -6.92234Q315.737 -6.18424 315.737 -4.81288L315.737 0L312.593 0L312.593 -9.78299L315.737 -9.78299L315.737 -8.35048Q316.314 -9.18028 317.06 -9.59956Q317.807 -10.0188 318.707 -10.0188Q319.72 -10.0188 320.498 -9.52968Q321.275 -9.04053 321.677 -8.15831ZM338.893 -9.47727L338.893 -7.1014Q337.889 -7.52067 336.954 -7.73031Q336.019 -7.93994 335.19 -7.93994Q334.299 -7.93994 333.866 -7.7172Q333.434 -7.49447 333.434 -7.03152Q333.434 -6.65592 333.761 -6.45502Q334.089 -6.25412 334.936 -6.15804L335.487 -6.07943Q337.889 -5.77371 338.718 -5.07492Q339.548 -4.37614 339.548 -2.88249Q339.548 -1.31896 338.395 -0.532823Q337.242 0.253309 334.954 0.253309Q333.984 0.253309 332.949 0.10045Q331.914 -0.0524089 330.822 -0.358127L330.822 -2.734Q331.757 -2.27978 332.739 -2.05268Q333.722 -1.82557 334.735 -1.82558Q335.653 -1.82558 336.115 -2.07888Q336.578 -2.33219 336.578 -2.83008Q336.578 -3.24935 336.26 -3.45462Q335.941 -3.65989 334.989 -3.77344L334.438 -3.84332Q332.351 -4.10536 331.512 -4.81288Q330.674 -5.5204 330.674 -6.96164Q330.674 -8.51644 331.739 -9.26763Q332.805 -10.0188 335.006 -10.0188Q335.871 -10.0188 336.823 -9.8878Q337.775 -9.75678 338.893 -9.47727Z" fill="#262626" transform="translate(400,24.099999999999998) translate(-170.19776916503906,0)" />
<rect x="100" y="84" width="435" height="374.25" fill="#FFFFFF" />
<line x1="100" y1="457.85" x2="100" y2="463.1111111111111" stroke="#262626" stroke-width="1.1111111111111112" />
<path d="M0.678168 -4.36062L4.3335 -4.36062L4.3335 -3.24843L0.678168 -3.24843L0.678168 -4.36062ZM10.6472 -5.45926Q11.6306 -5.24902 12.1833 -4.58442Q12.736 -3.91981 12.736 -2.94325Q12.736 -1.4445 11.7052 -0.623915Q10.6744 0.196669 8.7755 0.196669Q8.13802 0.196669 7.46324 0.0712077Q6.78847 -0.0542535 6.06961 -0.305176L6.06961 -1.6276Q6.63927 -1.2953 7.31744 -1.12576Q7.99561 -0.956217 8.73481 -0.956217Q10.0233 -0.956217 10.6981 -1.46484Q11.3729 -1.97347 11.3729 -2.94325Q11.3729 -3.83843 10.7456 -4.34367Q10.1183 -4.8489 8.9993 -4.8489L7.81928 -4.8489L7.81928 -5.97466L9.05355 -5.97466Q10.064 -5.97466 10.5998 -6.37817Q11.1355 -6.78168 11.1355 -7.54123Q11.1355 -8.32113 10.5828 -8.7382Q10.0301 -9.15527 8.9993 -9.15527Q8.43641 -9.15527 7.79216 -9.0332Q7.1479 -8.91113 6.37478 -8.65343L6.37478 -9.87413Q7.15468 -10.0911 7.83624 -10.1997Q8.5178 -10.3082 9.12137 -10.3082Q10.6812 -10.3082 11.5899 -9.59947Q12.4986 -8.89079 12.4986 -7.68365Q12.4986 -6.84272 12.0171 -6.26289Q11.5356 -5.68305 10.6472 -5.45926Z" fill="#262626" transform="translate(100,481.8611111111111) translate(-6.924099922180176,0)" />
<line x1="172.5" y1="457.85" x2="172.5" y2="463.1111111111111" stroke="#262626" stroke-width="1.1111111111111112" />
<path d="M0.678168 -4.36062L4.3335 -4.36062L4.3335 -3.24843L0.678168 -3.24843L0.678168 -4.36062ZM7.67687 -1.15289L12.458 -1.15289L12.458 0L6.02892 0L6.02892 -1.15289Q6.80881 -1.95991 8.15498 -3.31963Q9.50114 -4.67936 9.84701 -5.0727Q10.5048 -5.8119 10.7659 -6.32392Q11.027 -6.83594 11.027 -7.331Q11.027 -8.13802 10.4607 -8.64665Q9.89448 -9.15527 8.98573 -9.15527Q8.34147 -9.15527 7.626 -8.93148Q6.91054 -8.70768 6.09673 -8.25331L6.09673 -9.63677Q6.9241 -9.96908 7.64296 -10.1386Q8.36182 -10.3082 8.9586 -10.3082Q10.532 -10.3082 11.4678 -9.52148Q12.4037 -8.73481 12.4037 -7.41916Q12.4037 -6.79525 12.1697 -6.23576Q11.9358 -5.67627 11.3186 -4.91672Q11.1491 -4.72005 10.2403 -3.78079Q9.3316 -2.84153 7.67687 -1.15289Z" fill="#262626" transform="translate(172.5,481.8611111111111) translate(-6.924099922180176,0)" />
<line x1="245" y1="457.85" x2="245" y2="463.1111111111111" stroke="#262626" stroke-width="1.1111111111111112" />
<path d="M0.678168 -4.36062L4.3335 -4.36062L4.3335 -3.24843L0.678168 -3.24843L0.678168 -4.36062ZM6.73421 -1.15289L8.97217 -1.15289L8.97217 -8.87722L6.53754 -8.38894L6.53754 -9.63677L8.9586 -10.1251L10.3285 -10.1251L10.3285 -1.15289L12.5665 -1.15289L12.5665 0L6.73421 0L6.73421 -1.15289Z" fill="#262626" transform="translate(245,481.8611111111111) translate(-6.924099922180176,0)" />
<line x1="317.5" y1="457.85" x2="317.5" y2="463.1111111111111" stroke="#262626" stroke-width="1.1111111111111112" />
<path d="M4.41488 -9.22309Q3.35693 -9.22309 2.82457 -8.1821Q2.29221 -7.14111 2.29221 -5.05235Q2.29221 -2.97038 2.82457 -1.92939Q3.35693 -0.888401 4.41488 -0.888401Q5.4796 -0.888401 6.01196 -1.92939Q6.54433 -2.97038 6.54433 -5.05235Q6.54433 -7.14111 6.01196 -8.1821Q5.4796 -9.22309 4.41488 -9.22309ZM4.41488 -10.3082Q6.11708 -10.3082 7.01565 -8.962Q7.91422 -7.61583 7.91423 -5.05235Q7.91423 -2.49566 7.01565 -1.1495Q6.11708 0.196669 4.41488 0.196669Q2.71267 0.196669 1.8141 -1.1495Q0.915527 -2.49566 0.915527 -5.05235Q0.915527 -7.61583 1.8141 -8.962Q2.71267 -10.3082 4.41488 -10.3082Z" fill="#262626" transform="translate(317.5,481.8611111111111) translate(-4.418267250061035,0)" />
<line x1="390" y1="457.85" x2="390" y2="463.1111111111111" stroke="#262626" stroke-width="1.1111111111111112" />
<path d="M1.72255 -1.15289L3.9605 -1.15289L3.9605 -8.87722L1.52588 -8.38894L1.52588 -9.63677L3.94694 -10.1251L5.31684 -10.1251L5.31684 -1.15289L7.5548 -1.15289L7.5548 0L1.72255 0L1.72255 -1.15289Z" fill="#262626" transform="translate(390,481.8611111111111) translate(-4.418267250061035,0)" />
<line x1="462.5" y1="457.85" x2="462.5" y2="463.1111111111111" stroke="#262626" stroke-width="1.1111111111111112" />
<path d="M2.6652 -1.15289L7.44629 -1.15289L7.44629 0L1.01725 0L1.01725 -1.15289Q1.79715 -1.95991 3.14331 -3.31963Q4.48947 -4.67936 4.83534 -5.0727Q5.49316 -5.8119 5.75426 -6.32392Q6.01535 -6.83594 6.01535 -7.331Q6.01535 -8.13802 5.44908 -8.64665Q4.88281 -9.15527 3.97407 -9.15527Q3.32981 -9.15527 2.61434 -8.93148Q1.89887 -8.70768 1.08507 -8.25331L1.08507 -9.63677Q1.91243 -9.96908 2.63129 -10.1386Q3.35015 -10.3082 3.94694 -10.3082Q5.52029 -10.3082 6.45616 -9.52148Q7.39204 -8.73481 7.39204 -7.41916Q7.39204 -6.79525 7.15807 -6.23576Q6.9241 -5.67627 6.30697 -4.91672Q6.13742 -4.72005 5.22868 -3.78079Q4.31993 -2.84153 2.6652 -1.15289Z" fill="#262626" transform="translate(462.5,481.8611111111111) translate(-4.418267250061035,0)" />
<line x1="535" y1="457.85" x2="535" y2="463.1111111111111" stroke="#262626" stroke-width="1.1111111111111112" />
<path d="M5.63558 -5.45926Q6.61892 -5.24902 7.17163 -4.58442Q7.72434 -3.91981 7.72434 -2.94325Q7.72434 -1.4445 6.69352 -0.623915Q5.66271 0.196669 3.76383 0.196669Q3.12636 0.196669 2.45158 0.0712077Q1.7768 -0.0542535 1.05794 -0.305176L1.05794 -1.6276Q1.6276 -1.2953 2.30577 -1.12576Q2.98394 -0.956217 3.72314 -0.956217Q5.01166 -0.956217 5.68644 -1.46484Q6.36122 -1.97347 6.36122 -2.94325Q6.36122 -3.83843 5.73391 -4.34367Q5.10661 -4.8489 3.98763 -4.8489L2.80762 -4.8489L2.80762 -5.97466L4.04188 -5.97466Q5.05235 -5.97466 5.58811 -6.37817Q6.12386 -6.78168 6.12386 -7.54123Q6.12386 -8.32113 5.57115 -8.7382Q5.01845 -9.15527 3.98763 -9.15527Q3.42475 -9.15527 2.78049 -9.0332Q2.13623 -8.91113 1.36312 -8.65343L1.36312 -9.87413Q2.14301 -10.0911 2.82457 -10.1997Q3.50613 -10.3082 4.1097 -10.3082Q5.66949 -10.3082 6.57823 -9.59947Q7.48698 -8.89079 7.48698 -7.68365Q7.48698 -6.84272 7.00548 -6.26289Q6.52398 -5.68305 5.63558 -5.45926Z" fill="#262626" transform="translate(535,481.8611111111111) translate(-4.418267250061035,0)" />
<line x1="95.13888888888889" y1="458.25" x2="100.4" y2="458.25" stroke="#262626" stroke-width="1.1111111111111112" />
<path d="M0.678168 -4.36062L4.3335 -4.36062L4.3335 -3.24843L0.678168 -3.24843L0.678168 -4.36062ZM10.2607 -8.93148L6.80203 -3.52648L10.2607 -3.52648L10.2607 -8.93148ZM9.90126 -10.1251L11.6238 -10.1251L11.6238 -3.52648L13.0683 -3.52648L13.0683 -2.38715L11.6238 -2.38715L11.6238 0L10.2607 0L10.2607 -2.38715L5.68983 -2.38715L5.68983 -3.70958L9.90126 -10.1251Z" fill="#262626" transform="translate(90.27777777777777,462.25) translate(-13.848199844360352,0)" />
<line x1="95.13888888888889" y1="404.7857142857143" x2="100.4" y2="404.7857142857143" stroke="#262626" stroke-width="1.1111111111111112" />
<path d="M0.678168 -4.36062L4.3335 -4.36062L4.3335 -3.24843L0.678168 -3.24843L0.678168 -4.36062ZM10.6472 -5.45926Q11.6306 -5.24902 12.1833 -4.58442Q12.736 -3.91981 12.736 -2.94325Q12.736 -1.4445 11.7052 -0.623915Q10.6744 0.196669 8.7755 0.196669Q8.13802 0.196669 7.46324 0.0712077Q6.78847 -0.0542535 6.06961 -0.305176L6.06961 -1.6276Q6.63927 -1.2953 7.31744 -1.12576Q7.99561 -0.956217 8.73481 -0.956217Q10.0233 -0.956217 10.6981 -1.46484Q11.3729 -1.97347 11.3729 -2.94325Q11.3729 -3.83843 10.7456 -4.34367Q10.1183 -4.8489 8.9993 -4.8489L7.81928 -4.8489L7.81928 -5.97466L9.05355 -5.97466Q10.064 -5.97466 10.5998 -6.37817Q11.1355 -6.78168 11.1355 -7.54123Q11.1355 -8.32113 10.5828 -8.7382Q10.0301 -9.15527 8.9993 -9.15527Q8.43641 -9.15527 7.79216 -9.0332Q7.1479 -8.91113 6.37478 -8.65343L6.37478 -9.87413Q7.15468 -10.0911 7.83624 -10.1997Q8.5178 -10.3082 9.12137 -10.3082Q10.6812 -10.3082 11.5899 -9.59947Q12.4986 -8.89079 12.4986 -7.68365Q12.4986 -6.84272 12.0171 -6.26289Q11.5356 -5.68305 10.6472 -5.45926Z" fill="#262626" transform="translate(90.27777777777777,408.7857142857143) translate(-13.848199844360352,0)" />
<line x1="95.13888888888889" y1="351.32142857142856" x2="100.4" y2="351.32142857142856" stroke="#262626" stroke-width="1.1111111111111112" />
<path d="M0.678168 -4.36062L4.3335 -4.36062L4.3335 -3.24843L0.678168 -3.24843L0.678168 -4.36062ZM7.67687 -1.15289L12.458 -1.15289L12.458 0L6.02892 0L6.02892 -1.15289Q6.80881 -1.95991 8.15498 -3.31963Q9.50114 -4.67936 9.84701 -5.0727Q10.5048 -5.8119 10.7659 -6.32392Q11.027 -6.83594 11.027 -7.331Q11.027 -8.13802 10.4607 -8.64665Q9.89448 -9.15527 8.98573 -9.15527Q8.34147 -9.15527 7.626 -8.93148Q6.91054 -8.70768 6.09673 -8.25331L6.09673 -9.63677Q6.9241 -9.96908 7.64296 -10.1386Q8.36182 -10.3082 8.9586 -10.3082Q10.532 -10.3082 11.4678 -9.52148Q12.4037 -8.73481 12.4037 -7.41916Q12.4037 -6.79525 12.1697 -6.23576Q11.9358 -5.67627 11.3186 -4.91672Q11.1491 -4.72005 10.2403 -3.78079Q9.3316 -2.84153 7.67687 -1.15289Z" fill="#262626" transform="translate(90.27777777777777,355.32142857142856) translate(-13.848199844360352,0)" />
<line x1="95.13888888888889" y1="297.85714285714283" x2="100.4" y2="297.85714285714283" stroke="#262626" stroke-width="1.1111111111111112" />
<path d="M0.678168 -4.36062L4.3335 -4.36062L4.3335 -3.24843L0.678168 -3.24843L0.678168 -4.36062ZM6.73421 -1.15289L8.97217 -1.15289L8.97217 -8.87722L6.53754 -8.38894L6.53754 -9.63677L8.9586 -10.1251L10.3285 -10.1251L10.3285 -1.15289L12.5665 -1.15289L12.5665 0L6.73421 0L6.73421 -1.15289Z" fill="#262626" transform="translate(90.27777777777777,301.85714285714283) translate(-13.848199844360352,0)" />
<line x1="95.13888888888889" y1="244.39285714285714" x2="100.4" y2="244.39285714285714" stroke="#262626" stroke-width="1.1111111111111112" />
<path d="M4.41488 -9.22309Q3.35693 -9.22309 2.82457 -8.1821Q2.29221 -7.14111 2.29221 -5.05235Q2.29221 -2.97038 2.82457 -1.92939Q3.35693 -0.888401 4.41488 -0.888401Q5.4796 -0.888401 6.01196 -1.92939Q6.54433 -2.97038 6.54433 -5.05235Q6.54433 -7.14111 6.01196 -8.1821Q5.4796 -9.22309 4.41488 -9.22309ZM4.41488 -10.3082Q6.11708 -10.3082 7.01565 -8.962Q7.91422 -7.61583 7.91423 -5.05235Q7.91423 -2.49566 7.01565 -1.1495Q6.11708 0.196669 4.41488 0.196669Q2.71267 0.196669 1.8141 -1.1495Q0.915527 -2.49566 0.915527 -5.05235Q0.915527 -7.61583 1.8141 -8.962Q2.71267 -10.3082 4.41488 -10.3082Z" fill="#262626" transform="translate(90.27777777777777,248.39285714285714) translate(-8.83653450012207,0)" />
<line x1="95.13888888888889" y1="190.92857142857142" x2="100.4" y2="190.92857142857142" stroke="#262626" stroke-width="1.1111111111111112" />
<path d="M1.72255 -1.15289L3.9605 -1.15289L3.9605 -8.87722L1.52588 -8.38894L1.52588 -9.63677L3.94694 -10.1251L5.31684 -10.1251L5.31684 -1.15289L7.5548 -1.15289L7.5548 0L1.72255 0L1.72255 -1.15289Z" fill="#262626" transform="translate(90.27777777777777,194.92857142857142) translate(-8.83653450012207,0)" />
<line x1="95.13888888888889" y1="137.46428571428572" x2="100.4" y2="137.46428571428572" stroke="#262626" stroke-width="1.1111111111111112" />
<path d="M2.6652 -1.15289L7.44629 -1.15289L7.44629 0L1.01725 0L1.01725 -1.15289Q1.79715 -1.95991 3.14331 -3.31963Q4.48947 -4.67936 4.83534 -5.0727Q5.49316 -5.8119 5.75426 -6.32392Q6.01535 -6.83594 6.01535 -7.331Q6.01535 -8.13802 5.44908 -8.64665Q4.88281 -9.15527 3.97407 -9.15527Q3.32981 -9.15527 2.61434 -8.93148Q1.89887 -8.70768 1.08507 -8.25331L1.08507 -9.63677Q1.91243 -9.96908 2.63129 -10.1386Q3.35015 -10.3082 3.94694 -10.3082Q5.52029 -10.3082 6.45616 -9.52148Q7.39204 -8.73481 7.39204 -7.41916Q7.39204 -6.79525 7.15807 -6.23576Q6.9241 -5.67627 6.30697 -4.91672Q6.13742 -4.72005 5.22868 -3.78079Q4.31993 -2.84153 2.6652 -1.15289Z" fill="#262626" transform="translate(90.27777777777777,141.46428571428572) translate(-8.83653450012207,0)" />
<line x1="95.13888888888889" y1="84" x2="100.4" y2="84" stroke="#262626" stroke-width="1.1111111111111112" />
<path d="M5.63558 -5.45926Q6.61892 -5.24902 7.17163 -4.58442Q7.72434 -3.91981 7.72434 -2.94325Q7.72434 -1.4445 6.69352 -0.623915Q5.66271 0.196669 3.76383 0.196669Q3.12636 0.196669 2.45158 0.0712077Q1.7768 -0.0542535 1.05794 -0.305176L1.05794 -1.6276Q1.6276 -1.2953 2.30577 -1.12576Q2.98394 -0.956217 3.72314 -0.956217Q5.01166 -0.956217 5.68644 -1.46484Q6.36122 -1.97347 6.36122 -2.94325Q6.36122 -3.83843 5.73391 -4.34367Q5.10661 -4.8489 3.98763 -4.8489L2.80762 -4.8489L2.80762 -5.97466L4.04188 -5.97466Q5.05235 -5.97466 5.58811 -6.37817Q6.12386 -6.78168 6.12386 -7.54123Q6.12386 -8.32113 5.57115 -8.7382Q5.01845 -9.15527 3.98763 -9.15527Q3.42475 -9.15527 2.78049 -9.0332Q2.13623 -8.91113 1.36312 -8.65343L1.36312 -9.87413Q2.14301 -10.0911 2.82457 -10.1997Q3.50613 -10.3082 4.1097 -10.3082Q5.66949 -10.3082 6.57823 -9.59947Q7.48698 -8.89079 7.48698 -7.68365Q7.48698 -6.84272 7.00548 -6.26289Q6.52398 -5.68305 5.63558 -5.45926Z" fill="#262626" transform="translate(90.27777777777777,88) translate(-8.83653450012207,0)" />
<circle cx="410.6949988857191" cy="172.1953660928518" r="1.7521753625140002" fill="#2C3E50" />
<circle cx="220.54080572322363" cy="326.03754480658336" r="1.7521753625140002" fill="#2C3E50" />
<circle cx="241.42806734779236" cy="353.079835143915" r="1.7521753625140002" fill="#2C3E50" />
<circle cx="333.58680323999084" cy="154.66510812593563" r="1.7521753625140002" fill="#2C3E50" />
<circle cx="325.3448145471465" cy="206.75101439049078" r="1.7521753625140002" fill="#2C3E50" />
<circle cx="450.67790383709394" cy="152.32065515701186" r="1.7521753625140002" fill="#2C3E50" />
<circle cx="258.95787355346806" cy="191.73472875235788" r="1.7521753625140002" fill="#2C3E50" />
<circle cx="437.127127569876" cy="210.21141126687044" r="1.7521753625140002" fill="#2C3E50" />
<circle cx="319.5828043494928" cy="202.71194965901432" r="1.7521753625140002" fill="#2C3E50" />
<circle cx="341.249518268729" cy="223.37827078484418" r="1.7521753625140002" fill="#2C3E50" />
<circle cx="314.1140578235565" cy="305.05030101171343" r="1.7521753625140002" fill="#2C3E50" />
<circle cx="343.33750641782615" cy="240.10941918761668" r="1.7521753625140002" fill="#2C3E50" />
<circle cx="300.4525326607731" cy="198.63253756991716" r="1.7521753625140002" fill="#2C3E50" />
<circle cx="227.3980256748747" cy="291.3109180436763" r="1.7521753625140002" fill="#2C3E50" />
<circle cx="370.9998489894758" cy="233.3679499244915" r="1.7521753625140002" fill="#2C3E50" />
<circle cx="351.35791023101154" cy="216.01450627811775" r="1.7521753625140002" fill="#2C3E50" />
<circle cx="297.7070793672727" cy="188.32631621473138" r="1.7521753625140002" fill="#2C3E50" />
<circle cx="317.32621825237777" cy="288.12512343051486" r="1.7521753625140002" fill="#2C3E50" />
<circle cx="324.8982119696412" cy="290.2356941145462" r="1.7521753625140002" fill="#2C3E50" />
<circle cx="352.94155364421624" cy="215.3822087682764" r="1.7521753625140002" fill="#2C3E50" />
<circle cx="282.94082763376343" cy="239.31127075461168" r="1.7521753625140002" fill="#2C3E50" />
<circle cx="185.0230567748821" cy="292.156840247789" r="1.7521753625140002" fill="#2C3E50" />
<circle cx="463.2739002521032" cy="167.89498001966209" r="1.7521753625140002" fill="#2C3E50" />
<circle cx="353.8007540624643" cy="255.81028864261725" r="1.7521753625140002" fill="#2C3E50" />
<circle cx="291.3686876395092" cy="306.7291526975056" r="1.7521753625140002" fill="#2C3E50" />
<circle cx="268.76156457763335" cy="227.2055709672443" r="1.7521753625140002" fill="#2C3E50" />
<circle cx="376.6978259047437" cy="242.94393042905398" r="1.7521753625140002" fill="#2C3E50" />
<circle cx="369.32555447042756" cy="232.2332835935547" r="1.7521753625140002" fill="#2C3E50" />
<circle cx="473.0015256724675" cy="232.2665419546184" r="1.7521753625140002" fill="#2C3E50" />
<circle cx="253.4130972269467" cy="316.4256466320562" r="1.7521753625140002" fill="#2C3E50" />
<circle cx="180.06430837235038" cy="325.5391383339871" r="1.7521753625140002" fill="#2C3E50" />
<circle cx="208.2686804878801" cy="291.31331590965044" r="1.7521753625140002" fill="#2C3E50" />
<circle cx="336.9817181347892" cy="215.85539926729288" r="1.7521753625140002" fill="#2C3E50" />
<circle cx="373.34712673570755" cy="226.48473885174175" r="1.7521753625140002" fill="#2C3E50" />
<circle cx="237.67178437170475" cy="310.75995994678897" r="1.7521753625140002" fill="#2C3E50" />
<circle cx="294.106501541318" cy="346.30346064303865" r="1.7521753625140002" fill="#2C3E50" />
<circle cx="327.5392272766049" cy="271.9079961958692" r="1.7521753625140002" fill="#2C3E50" />
<circle cx="367.64972461361623" cy="275.3483444272876" r="1.7521753625140002" fill="#2C3E50" />
<circle cx="356.3903209464812" cy="266.53667377358863" r="1.7521753625140002" fill="#2C3E50" />
<circle cx="337.27260298239884" cy="142.65030893058616" r="1.7521753625140002" fill="#2C3E50" />
<circle cx="376.04744443715276" cy="249.51709743912224" r="1.7521753625140002" fill="#2C3E50" />
<circle cx="391.5088093972839" cy="319.2962757301516" r="1.7521753625140002" fill="#2C3E50" />
<circle cx="281.95189259903435" cy="200.35677080449446" r="1.7521753625140002" fill="#2C3E50" />
<circle cx="152.2804543123775" cy="195.49202743175235" r="1.7521753625140002" fill="#2C3E50" />
<circle cx="325.845119199201" cy="235.47674051802318" r="1.7521753625140002" fill="#2C3E50" />
<circle cx="279.585465856536" cy="333.3344273882919" r="1.7521753625140002" fill="#2C3E50" />
<circle cx="352.72830721624103" cy="166.54765080628883" r="1.7521753625140002" fill="#2C3E50" />
<circle cx="197.6842637910371" cy="251.6481133660003" r="1.7521753625140002" fill="#2C3E50" />
<circle cx="343.762520281785" cy="226.0026678553374" r="1.7521753625140002" fill="#2C3E50" />
<circle cx="320.91151263089114" cy="291.4024306640932" r="1.7521753625140002" fill="#2C3E50" />
<circle cx="275.71833382925166" cy="335.84174498179755" r="1.7521753625140002" fill="#2C3E50" />
<circle cx="220.01630900332987" cy="309.46712509170214" r="1.7521753625140002" fill="#2C3E50" />
<circle cx="176.8583771474502" cy="283.90918915831423" r="1.7521753625140002" fill="#2C3E50" />
<circle cx="306.7233204928695" cy="245.84806684812972" r="1.7521753625140002" fill="#2C3E50" />
<circle cx="340.98280908212803" cy="216.3014009155725" r="1.7521753625140002" fill="#2C3E50" />
<circle cx="243.1437874380557" cy="340.3132419239533" r="1.7521753625140002" fill="#2C3E50" />
<circle cx="223.93394783967614" cy="252.52617808697627" r="1.7521753625140002" fill="#2C3E50" />
<circle cx="310.31843173766845" cy="319.88229759927185" r="1.7521753625140002" fill="#2C3E50" />
<circle cx="360.6780131741716" cy="211.39197120468077" r="1.7521753625140002" fill="#2C3E50" />
<circle cx="320.7718128550518" cy="215.50273563378929" r="1.7521753625140002" fill="#2C3E50" />
<circle cx="241.16738690035743" cy="274.9990597766189" r="1.7521753625140002" fill="#2C3E50" />
<circle cx="348.7249059680914" cy="181.90682002484758" r="1.7521753625140002" fill="#2C3E50" />
<circle cx="236.95678943652212" cy="241.8773971638092" r="1.7521753625140002" fill="#2C3E50" />
<circle cx="267.410635362402" cy="313.88360891350754" r="1.7521753625140002" fill="#2C3E50" />
<circle cx="251.56325080477623" cy="220.34161419133213" r="1.7521753625140002" fill="#2C3E50" />
<circle cx="442.5880476086516" cy="114.682854883845" r="1.7521753625140002" fill="#2C3E50" />
<circle cx="256.33578659642876" cy="196.32825487115971" r="1.7521753625140002" fill="#2C3E50" />
<circle cx="262.867808012311" cy="276.9585346558591" r="1.7521753625140002" fill="#2C3E50" />
<circle cx="328.1963866555858" cy="212.62213671537995" r="1.7521753625140002" fill="#2C3E50" />
<circle cx="279.58093809539355" cy="287.6011496164523" r="1.7521753625140002" fill="#2C3E50" />
<circle cx="329.30499983394884" cy="239.87453808252906" r="1.7521753625140002" fill="#2C3E50" />
<circle cx="392.52598176016465" cy="194.8948890871109" r="1.7521753625140002" fill="#2C3E50" />
<circle cx="225.1897443253649" cy="295.4834559816398" r="1.7521753625140002" fill="#2C3E50" />
<circle cx="381.7358566268082" cy="173.41385872620629" r="1.7521753625140002" fill="#2C3E50" />
<circle cx="434.0631004945561" cy="288.72308039813987" r="1.7521753625140002" fill="#2C3E50" />
<circle cx="386.56461043954033" cy="220.73972607757494" r="1.7521753625140002" fill="#2C3E50" />
<circle cx="248.37627335848623" cy="245.60772286012013" r="1.7521753625140002" fill="#2C3E50" />
<circle cx="342.11567778870193" cy="273.9170768393526" r="1.7521753625140002" fill="#2C3E50" />
<circle cx="279.6380418548384" cy="299.1448712057954" r="1.7521753625140002" fill="#2C3E50" />
<circle cx="403.42065092191035" cy="145.2274522809565" r="1.7521753625140002" fill="#2C3E50" />
<circle cx="382.0163990101379" cy="215.93710555852596" r="1.7521753625140002" fill="#2C3E50" />
<circle cx="332.9587592094118" cy="160.02506026498006" r="1.7521753625140002" fill="#2C3E50" />
<circle cx="336.7967754510511" cy="223.78407651638818" r="1.7521753625140002" fill="#2C3E50" />
<circle cx="289.71186857878257" cy="232.98954052772032" r="1.7521753625140002" fill="#2C3E50" />
<circle cx="350.1528353581511" cy="169.94817438753597" r="1.7521753625140002" fill="#2C3E50" />
<circle cx="345.76119748656254" cy="129.18536563017133" r="1.7521753625140002" fill="#2C3E50" />
<circle cx="342.239927340974" cy="110.75463074103985" r="1.7521753625140002" fill="#2C3E50" />
<circle cx="311.5924467199315" cy="274.91300088080453" r="1.7521753625140002" fill="#2C3E50" />
<circle cx="176.3032130258106" cy="280.0719937222801" r="1.7521753625140002" fill="#2C3E50" />
<circle cx="327.4824162106973" cy="234.98930276681827" r="1.7521753625140002" fill="#2C3E50" />
<circle cx="327.53124204515456" cy="208.63714622749416" r="1.7521753625140002" fill="#2C3E50" />
<circle cx="266.17356115168786" cy="291.9034371502213" r="1.7521753625140002" fill="#2C3E50" />
<circle cx="215.967886752017" cy="315.77387309314685" r="1.7521753625140002" fill="#2C3E50" />
<circle cx="311.0561939615014" cy="230.85659373357763" r="1.7521753625140002" fill="#2C3E50" />
<circle cx="341.9987147645442" cy="197.34845330123912" r="1.7521753625140002" fill="#2C3E50" />
<circle cx="451.01688179804324" cy="150.1723381589506" r="1.7521753625140002" fill="#2C3E50" />
<circle cx="313.23538452818457" cy="323.51595154494186" r="1.7521753625140002" fill="#2C3E50" />
<circle cx="231.97961431561112" cy="258.51352799934426" r="1.7521753625140002" fill="#2C3E50" />
<circle cx="275.3869315709494" cy="264.2863536852413" r="1.7521753625140002" fill="#2C3E50" />
<circle cx="445.83285125242253" cy="182.08257290324786" r="1.7521753625140002" fill="#2C3E50" />
<circle cx="259.6010899470074" cy="272.3805383268965" r="1.7521753625140002" fill="#2C3E50" />
<circle cx="356.73478180052007" cy="261.9918463842732" r="1.7521753625140002" fill="#2C3E50" />
<circle cx="298.306818326439" cy="257.4540236085687" r="1.7521753625140002" fill="#2C3E50" />
<circle cx="421.3050522107049" cy="158.89853399778488" r="1.7521753625140002" fill="#2C3E50" />
<circle cx="343.6706148531854" cy="219.91179689089265" r="1.7521753625140002" fill="#2C3E50" />
<circle cx="411.0853879913049" cy="137.3265099677574" r="1.7521753625140002" fill="#2C3E50" />
<circle cx="306.00588159712015" cy="202.6385127696552" r="1.7521753625140002" fill="#2C3E50" />
<circle cx="303.29656599958764" cy="261.0004654663662" r="1.7521753625140002" fill="#2C3E50" />
<circle cx="414.21856237829695" cy="196.08882722371928" r="1.7521753625140002" fill="#2C3E50" />
<circle cx="414.5236738407251" cy="184.31921654734697" r="1.7521753625140002" fill="#2C3E50" />
<circle cx="200.01347551107412" cy="266.0382949189172" r="1.7521753625140002" fill="#2C3E50" />
<circle cx="284.7052737936865" cy="230.23041588174738" r="1.7521753625140002" fill="#2C3E50" />
<circle cx="432.263479284546" cy="228.85471989346777" r="1.7521753625140002" fill="#2C3E50" />
<circle cx="264.51550289268" cy="176.3126859859939" r="1.7521753625140002" fill="#2C3E50" />
<circle cx="371.2729807039263" cy="212.83739429685437" r="1.7521753625140002" fill="#2C3E50" />
<circle cx="407.0449358410845" cy="140.93744652418567" r="1.7521753625140002" fill="#2C3E50" />
<circle cx="264.1656667382026" cy="246.5967386518106" r="1.7521753625140002" fill="#2C3E50" />
<circle cx="472.38779665879565" cy="298.991320521971" r="1.7521753625140002" fill="#2C3E50" />
<circle cx="395.9689001435787" cy="223.26603788875218" r="1.7521753625140002" fill="#2C3E50" />
<circle cx="223.40228008797456" cy="291.9385809225109" r="1.7521753625140002" fill="#2C3E50" />
<circle cx="230.73342604707898" cy="372.95418403097335" r="1.7521753625140002" fill="#2C3E50" />
<circle cx="287.7377483999972" cy="289.9609029215721" r="1.7521753625140002" fill="#2C3E50" />
<circle cx="236.44364777627405" cy="310.07721361162766" r="1.7521753625140002" fill="#2C3E50" />
<circle cx="237.33523167992226" cy="288.4592168407968" r="1.7521753625140002" fill="#2C3E50" />
<circle cx="265.09205047605485" cy="272.8122182399919" r="1.7521753625140002" fill="#2C3E50" />
<circle cx="247.43273079420555" cy="290.67652231692006" r="1.7521753625140002" fill="#2C3E50" />
<circle cx="333.88515331921633" cy="216.34820766990416" r="1.7521753625140002" fill="#2C3E50" />
<circle cx="297.59710329543157" cy="269.699729548751" r="1.7521753625140002" fill="#2C3E50" />
<circle cx="218.3754978204267" cy="288.1737245689631" r="1.7521753625140002" fill="#2C3E50" />
<circle cx="397.8464121144793" cy="266.9189681381236" r="1.7521753625140002" fill="#2C3E50" />
<circle cx="360.8822204400138" cy="174.92961678344085" r="1.7521753625140002" fill="#2C3E50" />
<circle cx="280.41486373811284" cy="330.7953152406654" r="1.7521753625140002" fill="#2C3E50" />
<circle cx="305.19719420339277" cy="259.8033925831456" r="1.7521753625140002" fill="#2C3E50" />
<circle cx="395.58304040853585" cy="173.0365240748077" r="1.7521753625140002" fill="#2C3E50" />
<circle cx="349.55031438042084" cy="149.08698006733755" r="1.7521753625140002" fill="#2C3E50" />
<circle cx="281.4397990994703" cy="287.7905732111299" r="1.7521753625140002" fill="#2C3E50" />
<circle cx="321.32545823822284" cy="262.6300097154743" r="1.7521753625140002" fill="#2C3E50" />
<circle cx="307.3163174982095" cy="304.46573723861684" r="1.7521753625140002" fill="#2C3E50" />
<circle cx="343.3042809275459" cy="218.43545233644312" r="1.7521753625140002" fill="#2C3E50" />
<circle cx="359.88267090182745" cy="200.1554208567238" r="1.7521753625140002" fill="#2C3E50" />
<circle cx="288.7240501901541" cy="209.46216309943125" r="1.7521753625140002" fill="#2C3E50" />
<circle cx="225.2928238670416" cy="313.4586806766636" r="1.7521753625140002" fill="#2C3E50" />
<circle cx="261.09630596685946" cy="203.5897166589649" r="1.7521753625140002" fill="#2C3E50" />
<circle cx="297.5487303237569" cy="279.2864080513452" r="1.7521753625140002" fill="#2C3E50" />
<circle cx="380.4019598584695" cy="196.16515739780863" r="1.7521753625140002" fill="#2C3E50" />
<circle cx="461.60598854970453" cy="166.0202755415251" r="1.7521753625140002" fill="#2C3E50" />
<circle cx="341.8022031322906" cy="219.02575359937876" r="1.7521753625140002" fill="#2C3E50" />
<circle cx="322.668480051603" cy="282.4085033963541" r="1.7521753625140002" fill="#2C3E50" />
<circle cx="398.32998300883577" cy="225.30981980514883" r="1.7521753625140002" fill="#2C3E50" />
<circle cx="386.10543269817487" cy="185.2766944977576" r="1.7521753625140002" fill="#2C3E50" />
<circle cx="408.5599532918911" cy="124.84255540434356" r="1.7521753625140002" fill="#2C3E50" />
<circle cx="365.8575090036866" cy="212.5513644174941" r="1.7521753625140002" fill="#2C3E50" />
<circle cx="243.26338524519792" cy="298.55917078231226" r="1.7521753625140002" fill="#2C3E50" />
<circle cx="368.478998640712" cy="278.15902540878756" r="1.7521753625140002" fill="#2C3E50" />
<circle cx="355.46254109519685" cy="222.70568956463248" r="1.7521753625140002" fill="#2C3E50" />
<circle cx="312.5004427888355" cy="281.91289860700425" r="1.7521753625140002" fill="#2C3E50" />
<circle cx="342.148059362955" cy="183.96059724213004" r="1.7521753625140002" fill="#2C3E50" />
<circle cx="450.91183515788015" cy="160.13896315876326" r="1.7521753625140002" fill="#2C3E50" />
<circle cx="179.9842654525523" cy="272.8141140180471" r="1.7521753625140002" fill="#2C3E50" />
<circle cx="352.99360023361226" cy="268.563881694061" r="1.7521753625140002" fill="#2C3E50" />
<circle cx="311.6497212972051" cy="291.7454535657805" r="1.7521753625140002" fill="#2C3E50" />
<circle cx="274.2233361766867" cy="273.7428173392979" r="1.7521753625140002" fill="#2C3E50" />
<circle cx="403.3444985948355" cy="221.40465139231858" r="1.7521753625140002" fill="#2C3E50" />
<circle cx="146.56074488815102" cy="306.51527316895147" r="1.7521753625140002" fill="#2C3E50" />
<circle cx="275.3400276155735" cy="244.3142257479194" r="1.7521753625140002" fill="#2C3E50" />
<circle cx="270.20918099709917" cy="265.97989597071614" r="1.7521753625140002" fill="#2C3E50" />
<circle cx="321.7512559843123" cy="278.6737045304444" r="1.7521753625140002" fill="#2C3E50" />
<circle cx="264.72385289162963" cy="282.40270036210853" r="1.7521753625140002" fill="#2C3E50" />
<circle cx="335.43737336148524" cy="172.13673874116213" r="1.7521753625140002" fill="#2C3E50" />
<circle cx="322.79632749057424" cy="231.3706539410401" r="1.7521753625140002" fill="#2C3E50" />
<circle cx="342.043664393665" cy="253.37872823478043" r="1.7521753625140002" fill="#2C3E50" />
<circle cx="457.8886818721293" cy="163.69793598405408" r="1.7521753625140002" fill="#2C3E50" />
<circle cx="377.8286999426547" cy="187.62468496140883" r="1.7521753625140002" fill="#2C3E50" />
<circle cx="219.4643513567188" cy="295.11180024228855" r="1.7521753625140002" fill="#2C3E50" />
<circle cx="370.045343282042" cy="182.55486697561935" r="1.7521753625140002" fill="#2C3E50" />
<circle cx="323.93312357738506" cy="178.11232226226133" r="1.7521753625140002" fill="#2C3E50" />
<circle cx="404.8405532528362" cy="172.95910821321957" r="1.7521753625140002" fill="#2C3E50" />
<circle cx="351.6533455268024" cy="198.16372063618292" r="1.7521753625140002" fill="#2C3E50" />
<circle cx="387.7550752825769" cy="185.0420565048976" r="1.7521753625140002" fill="#2C3E50" />
<circle cx="373.5839855314812" cy="138.32847054483446" r="1.7521753625140002" fill="#2C3E50" />
<circle cx="360.1042959569104" cy="242.01457615816628" r="1.7521753625140002" fill="#2C3E50" />
<circle cx="235.81802700256634" cy="219.83856523071577" r="1.7521753625140002" fill="#2C3E50" />
<circle cx="160.02114306745472" cy="413.42807455417943" r="1.7521753625140002" fill="#2C3E50" />
<circle cx="250.76296171288675" cy="288.2800536055693" r="1.7521753625140002" fill="#2C3E50" />
<circle cx="358.1869013643854" cy="264.57222712278025" r="1.7521753625140002" fill="#2C3E50" />
<circle cx="405.8844684230099" cy="123.66129232030761" r="1.7521753625140002" fill="#2C3E50" />
<circle cx="249.3200878893472" cy="313.891644477691" r="1.7521753625140002" fill="#2C3E50" />
<circle cx="410.6288288638087" cy="221.2999676887666" r="1.7521753625140002" fill="#2C3E50" />
<circle cx="339.2634160398755" cy="289.1117483139265" r="1.7521753625140002" fill="#2C3E50" />
<circle cx="288.59072928559607" cy="254.28105289015537" r="1.7521753625140002" fill="#2C3E50" />
<circle cx="444.5099825558835" cy="201.47990478239151" r="1.7521753625140002" fill="#2C3E50" />
<circle cx="392.57643221864055" cy="139.89794615136444" r="1.7521753625140002" fill="#2C3E50" />
<circle cx="281.1955786250506" cy="341.62604185803013" r="1.7521753625140002" fill="#2C3E50" />
<circle cx="318.6711272012419" cy="180.52566110789027" r="1.7521753625140002" fill="#2C3E50" />
<circle cx="357.527698517128" cy="306.3832482955132" r="1.7521753625140002" fill="#2C3E50" />
<circle cx="216.41143026477798" cy="235.96387097545653" r="1.7521753625140002" fill="#2C3E50" />
<circle cx="287.36554323218587" cy="345.2935422528537" r="1.7521753625140002" fill="#2C3E50" />
<circle cx="216.57798869323156" cy="297.0989961526135" r="1.7521753625140002" fill="#2C3E50" />
<circle cx="357.4528992787398" cy="217.9286600205996" r="1.7521753625140002" fill="#2C3E50" />
<circle cx="185.50299736447064" cy="265.98826742445124" r="1.7521753625140002" fill="#2C3E50" />
<g class="spine">
<line x1="100" y1="458.25" x2="535" y2="458.25" stroke="#262626" stroke-width="0.8" />
</g>
<g class="spine">
<line x1="100" y1="84" x2="535" y2="84" stroke="#262626" stroke-width="0.8" />
</g>
<g class="spine">
<line x1="100" y1="84" x2="100" y2="458.25" stroke="#262626" stroke-width="0.8" />
</g>
<g class="spine">
<line x1="535" y1="84" x2="535" y2="458.25" stroke="#262626" stroke-width="0.8" />
</g>
<path d="M0.874837 -10.1251L2.34646 -10.1251L4.86247 -6.36122L7.39204 -10.1251L8.86366 -10.1251L5.60845 -5.26259L9.08068 0L7.60905 0L4.76074 -4.30637L1.89209 0L0.413683 0L4.02832 -5.405L0.874837 -10.1251Z" fill="#262626" transform="translate(317.5,501.75) translate(-4.757351398468018,0)" />
<path d="M-0.0271267 -10.1251L1.4445 -10.1251L4.25212 -5.9611L7.03939 -10.1251L8.51101 -10.1251L4.93028 -4.82178L4.93028 0L3.5536 0L3.5536 -4.82178L-0.0271267 -10.1251Z" fill="#262626" transform="translate(64.42957793341742,271.125) rotate(-90) translate(-4.241943359375,0)" />
<rect x="575" y="84" width="145" height="374.25" fill="#FFFFFF" />
<line x1="579.1402450877094" y1="457.85" x2="579.1402450877094" y2="463.1111111111111" stroke="#262626" stroke-width="1.1111111111111112" />
<path d="M0.678168 -4.36062L4.3335 -4.36062L4.3335 -3.24843L0.678168 -3.24843L0.678168 -4.36062ZM10.6472 -5.45926Q11.6306 -5.24902 12.1833 -4.58442Q12.736 -3.91981 12.736 -2.94325Q12.736 -1.4445 11.7052 -0.623915Q10.6744 0.196669 8.7755 0.196669Q8.13802 0.196669 7.46324 0.0712077Q6.78847 -0.0542535 6.06961 -0.305176L6.06961 -1.6276Q6.63927 -1.2953 7.31744 -1.12576Q7.99561 -0.956217 8.73481 -0.956217Q10.0233 -0.956217 10.6981 -1.46484Q11.3729 -1.97347 11.3729 -2.94325Q11.3729 -3.83843 10.7456 -4.34367Q10.1183 -4.8489 8.9993 -4.8489L7.81928 -4.8489L7.81928 -5.97466L9.05355 -5.97466Q10.064 -5.97466 10.5998 -6.37817Q11.1355 -6.78168 11.1355 -7.54123Q11.1355 -8.32113 10.5828 -8.7382Q10.0301 -9.15527 8.9993 -9.15527Q8.43641 -9.15527 7.79216 -9.0332Q7.1479 -8.91113 6.37478 -8.65343L6.37478 -9.87413Q7.15468 -10.0911 7.83624 -10.1997Q8.5178 -10.3082 9.12137 -10.3082Q10.6812 -10.3082 11.5899 -9.59947Q12.4986 -8.89079 12.4986 -7.68365Q12.4986 -6.84272 12.0171 -6.26289Q11.5356 -5.68305 10.6472 -5.45926Z" fill="#262626" transform="translate(579.1402450877094,481.8611111111111) translate(-6.924099922180176,0)" />
<line x1="604.7530683698122" y1="457.85" x2="604.7530683698122" y2="463.1111111111111" stroke="#262626" stroke-width="1.1111111111111112" />
<path d="M0.678168 -4.36062L4.3335 -4.36062L4.3335 -3.24843L0.678168 -3.24843L0.678168 -4.36062ZM7.67687 -1.15289L12.458 -1.15289L12.458 0L6.02892 0L6.02892 -1.15289Q6.80881 -1.95991 8.15498 -3.31963Q9.50114 -4.67936 9.84701 -5.0727Q10.5048 -5.8119 10.7659 -6.32392Q11.027 -6.83594 11.027 -7.331Q11.027 -8.13802 10.4607 -8.64665Q9.89448 -9.15527 8.98573 -9.15527Q8.34147 -9.15527 7.626 -8.93148Q6.91054 -8.70768 6.09673 -8.25331L6.09673 -9.63677Q6.9241 -9.96908 7.64296 -10.1386Q8.36182 -10.3082 8.9586 -10.3082Q10.532 -10.3082 11.4678 -9.52148Q12.4037 -8.73481 12.4037 -7.41916Q12.4037 -6.79525 12.1697 -6.23576Q11.9358 -5.67627 11.3186 -4.91672Q11.1491 -4.72005 10.2403 -3.78079Q9.3316 -2.84153 7.67687 -1.15289Z" fill="#262626" transform="translate(604.7530683698122,481.8611111111111) translate(-6.924099922180176,0)" />
<line x1="630.3658916519151" y1="457.85" x2="630.3658916519151" y2="463.1111111111111" stroke="#262626" stroke-width="1.1111111111111112" />
<path d="M0.678168 -4.36062L4.3335 -4.36062L4.3335 -3.24843L0.678168 -3.24843L0.678168 -4.36062ZM6.73421 -1.15289L8.97217 -1.15289L8.97217 -8.87722L6.53754 -8.38894L6.53754 -9.63677L8.9586 -10.1251L10.3285 -10.1251L10.3285 -1.15289L12.5665 -1.15289L12.5665 0L6.73421 0L6.73421 -1.15289Z" fill="#262626" transform="translate(630.3658916519151,481.8611111111111) translate(-6.924099922180176,0)" />
<line x1="655.978714934018" y1="457.85" x2="655.978714934018" y2="463.1111111111111" stroke="#262626" stroke-width="1.1111111111111112" />
<path d="M4.41488 -9.22309Q3.35693 -9.22309 2.82457 -8.1821Q2.29221 -7.14111 2.29221 -5.05235Q2.29221 -2.97038 2.82457 -1.92939Q3.35693 -0.888401 4.41488 -0.888401Q5.4796 -0.888401 6.01196 -1.92939Q6.54433 -2.97038 6.54433 -5.05235Q6.54433 -7.14111 6.01196 -8.1821Q5.4796 -9.22309 4.41488 -9.22309ZM4.41488 -10.3082Q6.11708 -10.3082 7.01565 -8.962Q7.91422 -7.61583 7.91423 -5.05235Q7.91423 -2.49566 7.01565 -1.1495Q6.11708 0.196669 4.41488 0.196669Q2.71267 0.196669 1.8141 -1.1495Q0.915527 -2.49566 0.915527 -5.05235Q0.915527 -7.61583 1.8141 -8.962Q2.71267 -10.3082 4.41488 -10.3082Z" fill="#262626" transform="translate(655.978714934018,481.8611111111111) translate(-4.418267250061035,0)" />
<line x1="681.5915382161207" y1="457.85" x2="681.5915382161207" y2="463.1111111111111" stroke="#262626" stroke-width="1.1111111111111112" />
<path d="M1.72255 -1.15289L3.9605 -1.15289L3.9605 -8.87722L1.52588 -8.38894L1.52588 -9.63677L3.94694 -10.1251L5.31684 -10.1251L5.31684 -1.15289L7.5548 -1.15289L7.5548 0L1.72255 0L1.72255 -1.15289Z" fill="#262626" transform="translate(681.5915382161207,481.8611111111111) translate(-4.418267250061035,0)" />
<line x1="707.2043614982236" y1="457.85" x2="707.2043614982236" y2="463.1111111111111" stroke="#262626" stroke-width="1.1111111111111112" />
<path d="M2.6652 -1.15289L7.44629 -1.15289L7.44629 0L1.01725 0L1.01725 -1.15289Q1.79715 -1.95991 3.14331 -3.31963Q4.48947 -4.67936 4.83534 -5.0727Q5.49316 -5.8119 5.75426 -6.32392Q6.01535 -6.83594 6.01535 -7.331Q6.01535 -8.13802 5.44908 -8.64665Q4.88281 -9.15527 3.97407 -9.15527Q3.32981 -9.15527 2.61434 -8.93148Q1.89887 -8.70768 1.08507 -8.25331L1.08507 -9.63677Q1.91243 -9.96908 2.63129 -10.1386Q3.35015 -10.3082 3.94694 -10.3082Q5.52029 -10.3082 6.45616 -9.52148Q7.39204 -8.73481 7.39204 -7.41916Q7.39204 -6.79525 7.15807 -6.23576Q6.9241 -5.67627 6.30697 -4.91672Q6.13742 -4.72005 5.22868 -3.78079Q4.31993 -2.84153 2.6652 -1.15289Z" fill="#262626" transform="translate(707.2043614982236,481.8611111111111) translate(-4.418267250061035,0)" />
<line x1="570.1388888888889" y1="458.25" x2="575.4" y2="458.25" stroke="#262626" stroke-width="1.1111111111111112" />
<path d="M4.41488 -9.22309Q3.35693 -9.22309 2.82457 -8.1821Q2.29221 -7.14111 2.29221 -5.05235Q2.29221 -2.97038 2.82457 -1.92939Q3.35693 -0.888401 4.41488 -0.888401Q5.4796 -0.888401 6.01196 -1.92939Q6.54433 -2.97038 6.54433 -5.05235Q6.54433 -7.14111 6.01196 -8.1821Q5.4796 -9.22309 4.41488 -9.22309ZM4.41488 -10.3082Q6.11708 -10.3082 7.01565 -8.962Q7.91422 -7.61583 7.91423 -5.05235Q7.91423 -2.49566 7.01565 -1.1495Q6.11708 0.196669 4.41488 0.196669Q2.71267 0.196669 1.8141 -1.1495Q0.915527 -2.49566 0.915527 -5.05235Q0.915527 -7.61583 1.8141 -8.962Q2.71267 -10.3082 4.41488 -10.3082ZM10.3217 -1.72255L11.7527 -1.72255L11.7527 0L10.3217 0L10.3217 -1.72255ZM17.6663 -9.22309Q16.6083 -9.22309 16.076 -8.1821Q15.5436 -7.14111 15.5436 -5.05235Q15.5436 -2.97038 16.076 -1.92939Q16.6083 -0.888401 17.6663 -0.888401Q18.731 -0.888401 19.2634 -1.92939Q19.7957 -2.97038 19.7957 -5.05235Q19.7957 -7.14111 19.2634 -8.1821Q18.731 -9.22309 17.6663 -9.22309ZM17.6663 -10.3082Q19.3685 -10.3082 20.2671 -8.962Q21.1656 -7.61583 21.1656 -5.05235Q21.1656 -2.49566 20.2671 -1.1495Q19.3685 0.196669 17.6663 0.196669Q15.9641 0.196669 15.0655 -1.1495Q14.1669 -2.49566 14.1669 -5.05235Q14.1669 -7.61583 15.0655 -8.962Q15.9641 -10.3082 17.6663 -10.3082Z" fill="#262626" transform="translate(565.2777777777778,462.25) translate(-22.08794593811035,0)" />
<line x1="570.1388888888889" y1="423.97802197802196" x2="575.4" y2="423.97802197802196" stroke="#262626" stroke-width="1.1111111111111112" />
<path d="M2.6652 -1.15289L7.44629 -1.15289L7.44629 0L1.01725 0L1.01725 -1.15289Q1.79715 -1.95991 3.14331 -3.31963Q4.48947 -4.67936 4.83534 -5.0727Q5.49316 -5.8119 5.75426 -6.32392Q6.01535 -6.83594 6.01535 -7.331Q6.01535 -8.13802 5.44908 -8.64665Q4.88281 -9.15527 3.97407 -9.15527Q3.32981 -9.15527 2.61434 -8.93148Q1.89887 -8.70768 1.08507 -8.25331L1.08507 -9.63677Q1.91243 -9.96908 2.63129 -10.1386Q3.35015 -10.3082 3.94694 -10.3082Q5.52029 -10.3082 6.45616 -9.52148Q7.39204 -8.73481 7.39204 -7.41916Q7.39204 -6.79525 7.15807 -6.23576Q6.9241 -5.67627 6.30697 -4.91672Q6.13742 -4.72005 5.22868 -3.78079Q4.31993 -2.84153 2.6652 -1.15289ZM10.3217 -1.72255L11.7527 -1.72255L11.7527 0L10.3217 0L10.3217 -1.72255ZM14.7502 -10.1251L20.128 -10.1251L20.128 -8.97217L16.0048 -8.97217L16.0048 -6.49007Q16.3032 -6.5918 16.6016 -6.64266Q16.9 -6.69352 17.1984 -6.69352Q18.8938 -6.69352 19.8839 -5.76443Q20.874 -4.83534 20.874 -3.24843Q20.874 -1.61404 19.8568 -0.708686Q18.8395 0.196669 16.9881 0.196669Q16.3506 0.196669 15.6894 0.0881619C15.2486 0.0158239 14.7931 -0.092683 14.3229 -0.237359L14.3229 -1.61404Q14.9333 -1.28174 15.5843 -1.11898Q16.2354 -0.956217 16.961 -0.956217Q18.1342 -0.956217 18.8192 -1.57335Q19.5041 -2.19048 19.5041 -3.24843Q19.5041 -4.30637 18.8192 -4.9235Q18.1342 -5.54064 16.961 -5.54064Q16.4117 -5.54064 15.8658 -5.41857Q15.3198 -5.2965 14.7502 -5.03879L14.7502 -10.1251Z" fill="#262626" transform="translate(565.2777777777778,427.97802197802196) translate(-22.08794593811035,0)" />
<line x1="570.1388888888889" y1="389.70604395604397" x2="575.4" y2="389.70604395604397" stroke="#262626" stroke-width="1.1111111111111112" />
<path d="M1.49875 -10.1251L6.87663 -10.1251L6.87663 -8.97217L2.75336 -8.97217L2.75336 -6.49007Q3.05176 -6.5918 3.35015 -6.64266Q3.64855 -6.69352 3.94694 -6.69352Q5.64236 -6.69352 6.63249 -5.76443Q7.62261 -4.83534 7.62261 -3.24843Q7.62261 -1.61404 6.60536 -0.708686Q5.58811 0.196669 3.73671 0.196669Q3.09923 0.196669 2.43802 0.0881619C1.99721 0.0158239 1.5417 -0.092683 1.07151 -0.237359L1.07151 -1.61404Q1.68186 -1.28174 2.3329 -1.11898Q2.98394 -0.956217 3.70958 -0.956217Q4.88281 -0.956217 5.56776 -1.57335Q6.25271 -2.19048 6.25271 -3.24843Q6.25271 -4.30637 5.56776 -4.9235Q4.88281 -5.54064 3.70958 -5.54064Q3.16026 -5.54064 2.61434 -5.41857Q2.06841 -5.2965 1.49875 -5.03879L1.49875 -10.1251ZM10.3217 -1.72255L11.7527 -1.72255L11.7527 0L10.3217 0L10.3217 -1.72255ZM17.6663 -9.22309Q16.6083 -9.22309 16.076 -8.1821Q15.5436 -7.14111 15.5436 -5.05235Q15.5436 -2.97038 16.076 -1.92939Q16.6083 -0.888401 17.6663 -0.888401Q18.731 -0.888401 19.2634 -1.92939Q19.7957 -2.97038 19.7957 -5.05235Q19.7957 -7.14111 19.2634 -8.1821Q18.731 -9.22309 17.6663 -9.22309ZM17.6663 -10.3082Q19.3685 -10.3082 20.2671 -8.962Q21.1656 -7.61583 21.1656 -5.05235Q21.1656 -2.49566 20.2671 -1.1495Q19.3685 0.196669 17.6663 0.196669Q15.9641 0.196669 15.0655 -1.1495Q14.1669 -2.49566 14.1669 -5.05235Q14.1669 -7.61583 15.0655 -8.962Q15.9641 -10.3082 17.6663 -10.3082Z" fill="#262626" transform="translate(565.2777777777778,393.70604395604397) translate(-22.08794593811035,0)" />
<line x1="570.1388888888889" y1="355.4340659340659" x2="575.4" y2="355.4340659340659" stroke="#262626" stroke-width="1.1111111111111112" />
<path d="M1.13932 -10.1251L7.64974 -10.1251L7.64974 -9.54183L3.97407 0L2.54313 0L6.00179 -8.97217L1.13932 -8.97217L1.13932 -10.1251ZM10.3217 -1.72255L11.7527 -1.72255L11.7527 0L10.3217 0L10.3217 -1.72255ZM14.7502 -10.1251L20.128 -10.1251L20.128 -8.97217L16.0048 -8.97217L16.0048 -6.49007Q16.3032 -6.5918 16.6016 -6.64266Q16.9 -6.69352 17.1984 -6.69352Q18.8938 -6.69352 19.8839 -5.76443Q20.874 -4.83534 20.874 -3.24843Q20.874 -1.61404 19.8568 -0.708686Q18.8395 0.196669 16.9881 0.196669Q16.3506 0.196669 15.6894 0.0881619C15.2486 0.0158239 14.7931 -0.092683 14.3229 -0.237359L14.3229 -1.61404Q14.9333 -1.28174 15.5843 -1.11898Q16.2354 -0.956217 16.961 -0.956217Q18.1342 -0.956217 18.8192 -1.57335Q19.5041 -2.19048 19.5041 -3.24843Q19.5041 -4.30637 18.8192 -4.9235Q18.1342 -5.54064 16.961 -5.54064Q16.4117 -5.54064 15.8658 -5.41857Q15.3198 -5.2965 14.7502 -5.03879L14.7502 -10.1251Z" fill="#262626" transform="translate(565.2777777777778,359.4340659340659) translate(-22.08794593811035,0)" />
<line x1="570.1388888888889" y1="321.16208791208794" x2="575.4" y2="321.16208791208794" stroke="#262626" stroke-width="1.1111111111111112" />
<path d="M1.72255 -1.15289L3.9605 -1.15289L3.9605 -8.87722L1.52588 -8.38894L1.52588 -9.63677L3.94694 -10.1251L5.31684 -10.1251L5.31684 -1.15289L7.5548 -1.15289L7.5548 0L1.72255 0L1.72255 -1.15289ZM13.2514 -9.22309Q12.1935 -9.22309 11.6611 -8.1821Q11.1287 -7.14111 11.1287 -5.05235Q11.1287 -2.97038 11.6611 -1.92939Q12.1935 -0.888401 13.2514 -0.888401Q14.3161 -0.888401 14.8485 -1.92939Q15.3809 -2.97038 15.3809 -5.05235Q15.3809 -7.14111 14.8485 -8.1821Q14.3161 -9.22309 13.2514 -9.22309ZM13.2514 -10.3082Q14.9536 -10.3082 15.8522 -8.962Q16.7508 -7.61583 16.7508 -5.05235Q16.7508 -2.49566 15.8522 -1.1495Q14.9536 0.196669 13.2514 0.196669Q11.5492 0.196669 10.6506 -1.1495Q9.75206 -2.49566 9.75206 -5.05235Q9.75206 -7.61583 10.6506 -8.962Q11.5492 -10.3082 13.2514 -10.3082ZM19.1583 -1.72255L20.5892 -1.72255L20.5892 0L19.1583 0L19.1583 -1.72255ZM26.5028 -9.22309Q25.4449 -9.22309 24.9125 -8.1821Q24.3802 -7.14111 24.3802 -5.05235Q24.3802 -2.97038 24.9125 -1.92939Q25.4449 -0.888401 26.5028 -0.888401Q27.5675 -0.888401 28.0999 -1.92939Q28.6323 -2.97038 28.6323 -5.05235Q28.6323 -7.14111 28.0999 -8.1821Q27.5675 -9.22309 26.5028 -9.22309ZM26.5028 -10.3082Q28.205 -10.3082 29.1036 -8.962Q30.0022 -7.61583 30.0022 -5.05235Q30.0022 -2.49566 29.1036 -1.1495Q28.205 0.196669 26.5028 0.196669Q24.8006 0.196669 23.902 -1.1495Q23.0035 -2.49566 23.0035 -5.05235Q23.0035 -7.61583 23.902 -8.962Q24.8006 -10.3082 26.5028 -10.3082Z" fill="#262626" transform="translate(565.2777777777778,325.16208791208794) translate(-30.924480438232422,0)" />
<line x1="570.1388888888889" y1="286.8901098901099" x2="575.4" y2="286.8901098901099" stroke="#262626" stroke-width="1.1111111111111112" />
<path d="M1.72255 -1.15289L3.9605 -1.15289L3.9605 -8.87722L1.52588 -8.38894L1.52588 -9.63677L3.94694 -10.1251L5.31684 -10.1251L5.31684 -1.15289L7.5548 -1.15289L7.5548 0L1.72255 0L1.72255 -1.15289ZM11.5017 -1.15289L16.2828 -1.15289L16.2828 0L9.85379 0L9.85379 -1.15289Q10.6337 -1.95991 11.9798 -3.31963Q13.326 -4.67936 13.6719 -5.0727Q14.3297 -5.8119 14.5908 -6.32392Q14.8519 -6.83594 14.8519 -7.331Q14.8519 -8.13802 14.2856 -8.64665Q13.7193 -9.15527 12.8106 -9.15527Q12.1663 -9.15527 11.4509 -8.93148Q10.7354 -8.70768 9.9216 -8.25331L9.9216 -9.63677Q10.749 -9.96908 11.4678 -10.1386Q12.1867 -10.3082 12.7835 -10.3082Q14.3568 -10.3082 15.2927 -9.52148Q16.2286 -8.73481 16.2286 -7.41916Q16.2286 -6.79525 15.9946 -6.23576Q15.7606 -5.67627 15.1435 -4.91672Q14.974 -4.72005 14.0652 -3.78079Q13.1565 -2.84153 11.5017 -1.15289ZM19.1583 -1.72255L20.5892 -1.72255L20.5892 0L19.1583 0L19.1583 -1.72255ZM23.5867 -10.1251L28.9646 -10.1251L28.9646 -8.97217L24.8413 -8.97217L24.8413 -6.49007Q25.1397 -6.5918 25.4381 -6.64266Q25.7365 -6.69352 26.0349 -6.69352Q27.7303 -6.69352 28.7204 -5.76443Q29.7106 -4.83534 29.7106 -3.24843Q29.7106 -1.61404 28.6933 -0.708686Q27.6761 0.196669 25.8247 0.196669Q25.1872 0.196669 24.526 0.0881619C24.0852 0.0158239 23.6296 -0.092683 23.1595 -0.237359L23.1595 -1.61404Q23.7698 -1.28174 24.4208 -1.11898Q25.0719 -0.956217 25.7975 -0.956217Q26.9708 -0.956217 27.6557 -1.57335Q28.3407 -2.19048 28.3407 -3.24843Q28.3407 -4.30637 27.6557 -4.9235Q26.9708 -5.54064 25.7975 -5.54064Q25.2482 -5.54064 24.7023 -5.41857Q24.1564 -5.2965 23.5867 -5.03879L23.5867 -10.1251Z" fill="#262626" transform="translate(565.2777777777778,290.8901098901099) translate(-30.924480438232422,0)" />
<line x1="570.1388888888889" y1="252.61813186813188" x2="575.4" y2="252.61813186813188" stroke="#262626" stroke-width="1.1111111111111112" />
<path d="M1.72255 -1.15289L3.9605 -1.15289L3.9605 -8.87722L1.52588 -8.38894L1.52588 -9.63677L3.94694 -10.1251L5.31684 -10.1251L5.31684 -1.15289L7.5548 -1.15289L7.5548 0L1.72255 0L1.72255 -1.15289ZM10.3353 -10.1251L15.7132 -10.1251L15.7132 -8.97217L11.5899 -8.97217L11.5899 -6.49007Q11.8883 -6.5918 12.1867 -6.64266Q12.4851 -6.69352 12.7835 -6.69352Q14.4789 -6.69352 15.469 -5.76443Q16.4591 -4.83534 16.4591 -3.24843Q16.4591 -1.61404 15.4419 -0.708686Q14.4246 0.196669 12.5732 0.196669Q11.9358 0.196669 11.2745 0.0881619C10.8337 0.0158239 10.3782 -0.092683 9.90804 -0.237359L9.90804 -1.61404Q10.5184 -1.28174 11.1694 -1.11898Q11.8205 -0.956217 12.5461 -0.956217Q13.7193 -0.956217 14.4043 -1.57335Q15.0892 -2.19048 15.0892 -3.24843Q15.0892 -4.30637 14.4043 -4.9235Q13.7193 -5.54064 12.5461 -5.54064Q11.9968 -5.54064 11.4509 -5.41857Q10.9049 -5.2965 10.3353 -5.03879L10.3353 -10.1251ZM19.1583 -1.72255L20.5892 -1.72255L20.5892 0L19.1583 0L19.1583 -1.72255ZM26.5028 -9.22309Q25.4449 -9.22309 24.9125 -8.1821Q24.3802 -7.14111 24.3802 -5.05235Q24.3802 -2.97038 24.9125 -1.92939Q25.4449 -0.888401 26.5028 -0.888401Q27.5675 -0.888401 28.0999 -1.92939Q28.6323 -2.97038 28.6323 -5.05235Q28.6323 -7.14111 28.0999 -8.1821Q27.5675 -9.22309 26.5028 -9.22309ZM26.5028 -10.3082Q28.205 -10.3082 29.1036 -8.962Q30.0022 -7.61583 30.0022 -5.05235Q30.0022 -2.49566 29.1036 -1.1495Q28.205 0.196669 26.5028 0.196669Q24.8006 0.196669 23.902 -1.1495Q23.0035 -2.49566 23.0035 -5.05235Q23.0035 -7.61583 23.902 -8.962Q24.8006 -10.3082 26.5028 -10.3082Z" fill="#262626" transform="translate(565.2777777777778,256.61813186813185) translate(-30.924480438232422,0)" />
<line x1="570.1388888888889" y1="218.34615384615387" x2="575.4" y2="218.34615384615387" stroke="#262626" stroke-width="1.1111111111111112" />
<path d="M1.72255 -1.15289L3.9605 -1.15289L3.9605 -8.87722L1.52588 -8.38894L1.52588 -9.63677L3.94694 -10.1251L5.31684 -10.1251L5.31684 -1.15289L7.5548 -1.15289L7.5548 0L1.72255 0L1.72255 -1.15289ZM9.97586 -10.1251L16.4863 -10.1251L16.4863 -9.54183L12.8106 0L11.3797 0L14.8383 -8.97217L9.97586 -8.97217L9.97586 -10.1251ZM19.1583 -1.72255L20.5892 -1.72255L20.5892 0L19.1583 0L19.1583 -1.72255ZM23.5867 -10.1251L28.9646 -10.1251L28.9646 -8.97217L24.8413 -8.97217L24.8413 -6.49007Q25.1397 -6.5918 25.4381 -6.64266Q25.7365 -6.69352 26.0349 -6.69352Q27.7303 -6.69352 28.7204 -5.76443Q29.7106 -4.83534 29.7106 -3.24843Q29.7106 -1.61404 28.6933 -0.708686Q27.6761 0.196669 25.8247 0.196669Q25.1872 0.196669 24.526 0.0881619C24.0852 0.0158239 23.6296 -0.092683 23.1595 -0.237359L23.1595 -1.61404Q23.7698 -1.28174 24.4208 -1.11898Q25.0719 -0.956217 25.7975 -0.956217Q26.9708 -0.956217 27.6557 -1.57335Q28.3407 -2.19048 28.3407 -3.24843Q28.3407 -4.30637 27.6557 -4.9235Q26.9708 -5.54064 25.7975 -5.54064Q25.2482 -5.54064 24.7023 -5.41857Q24.1564 -5.2965 23.5867 -5.03879L23.5867 -10.1251Z" fill="#262626" transform="translate(565.2777777777778,222.34615384615387) translate(-30.924480438232422,0)" />
<line x1="570.1388888888889" y1="184.07417582417582" x2="575.4" y2="184.07417582417582" stroke="#262626" stroke-width="1.1111111111111112" />
<path d="M2.6652 -1.15289L7.44629 -1.15289L7.44629 0L1.01725 0L1.01725 -1.15289Q1.79715 -1.95991 3.14331 -3.31963Q4.48947 -4.67936 4.83534 -5.0727Q5.49316 -5.8119 5.75426 -6.32392Q6.01535 -6.83594 6.01535 -7.331Q6.01535 -8.13802 5.44908 -8.64665Q4.88281 -9.15527 3.97407 -9.15527Q3.32981 -9.15527 2.61434 -8.93148Q1.89887 -8.70768 1.08507 -8.25331L1.08507 -9.63677Q1.91243 -9.96908 2.63129 -10.1386Q3.35015 -10.3082 3.94694 -10.3082Q5.52029 -10.3082 6.45616 -9.52148Q7.39204 -8.73481 7.39204 -7.41916Q7.39204 -6.79525 7.15807 -6.23576Q6.9241 -5.67627 6.30697 -4.91672Q6.13742 -4.72005 5.22868 -3.78079Q4.31993 -2.84153 2.6652 -1.15289ZM13.2514 -9.22309Q12.1935 -9.22309 11.6611 -8.1821Q11.1287 -7.14111 11.1287 -5.05235Q11.1287 -2.97038 11.6611 -1.92939Q12.1935 -0.888401 13.2514 -0.888401Q14.3161 -0.888401 14.8485 -1.92939Q15.3809 -2.97038 15.3809 -5.05235Q15.3809 -7.14111 14.8485 -8.1821Q14.3161 -9.22309 13.2514 -9.22309ZM13.2514 -10.3082Q14.9536 -10.3082 15.8522 -8.962Q16.7508 -7.61583 16.7508 -5.05235Q16.7508 -2.49566 15.8522 -1.1495Q14.9536 0.196669 13.2514 0.196669Q11.5492 0.196669 10.6506 -1.1495Q9.75206 -2.49566 9.75206 -5.05235Q9.75206 -7.61583 10.6506 -8.962Q11.5492 -10.3082 13.2514 -10.3082ZM19.1583 -1.72255L20.5892 -1.72255L20.5892 0L19.1583 0L19.1583 -1.72255ZM26.5028 -9.22309Q25.4449 -9.22309 24.9125 -8.1821Q24.3802 -7.14111 24.3802 -5.05235Q24.3802 -2.97038 24.9125 -1.92939Q25.4449 -0.888401 26.5028 -0.888401Q27.5675 -0.888401 28.0999 -1.92939Q28.6323 -2.97038 28.6323 -5.05235Q28.6323 -7.14111 28.0999 -8.1821Q27.5675 -9.22309 26.5028 -9.22309ZM26.5028 -10.3082Q28.205 -10.3082 29.1036 -8.962Q30.0022 -7.61583 30.0022 -5.05235Q30.0022 -2.49566 29.1036 -1.1495Q28.205 0.196669 26.5028 0.196669Q24.8006 0.196669 23.902 -1.1495Q23.0035 -2.49566 23.0035 -5.05235Q23.0035 -7.61583 23.902 -8.962Q24.8006 -10.3082 26.5028 -10.3082Z" fill="#262626" transform="translate(565.2777777777778,188.07417582417582) translate(-30.924480438232422,0)" />
<line x1="570.1388888888889" y1="149.80219780219784" x2="575.4" y2="149.80219780219784" stroke="#262626" stroke-width="1.1111111111111112" />
<path d="M2.6652 -1.15289L7.44629 -1.15289L7.44629 0L1.01725 0L1.01725 -1.15289Q1.79715 -1.95991 3.14331 -3.31963Q4.48947 -4.67936 4.83534 -5.0727Q5.49316 -5.8119 5.75426 -6.32392Q6.01535 -6.83594 6.01535 -7.331Q6.01535 -8.13802 5.44908 -8.64665Q4.88281 -9.15527 3.97407 -9.15527Q3.32981 -9.15527 2.61434 -8.93148Q1.89887 -8.70768 1.08507 -8.25331L1.08507 -9.63677Q1.91243 -9.96908 2.63129 -10.1386Q3.35015 -10.3082 3.94694 -10.3082Q5.52029 -10.3082 6.45616 -9.52148Q7.39204 -8.73481 7.39204 -7.41916Q7.39204 -6.79525 7.15807 -6.23576Q6.9241 -5.67627 6.30697 -4.91672Q6.13742 -4.72005 5.22868 -3.78079Q4.31993 -2.84153 2.6652 -1.15289ZM11.5017 -1.15289L16.2828 -1.15289L16.2828 0L9.85379 0L9.85379 -1.15289Q10.6337 -1.95991 11.9798 -3.31963Q13.326 -4.67936 13.6719 -5.0727Q14.3297 -5.8119 14.5908 -6.32392Q14.8519 -6.83594 14.8519 -7.331Q14.8519 -8.13802 14.2856 -8.64665Q13.7193 -9.15527 12.8106 -9.15527Q12.1663 -9.15527 11.4509 -8.93148Q10.7354 -8.70768 9.9216 -8.25331L9.9216 -9.63677Q10.749 -9.96908 11.4678 -10.1386Q12.1867 -10.3082 12.7835 -10.3082Q14.3568 -10.3082 15.2927 -9.52148Q16.2286 -8.73481 16.2286 -7.41916Q16.2286 -6.79525 15.9946 -6.23576Q15.7606 -5.67627 15.1435 -4.91672Q14.974 -4.72005 14.0652 -3.78079Q13.1565 -2.84153 11.5017 -1.15289ZM19.1583 -1.72255L20.5892 -1.72255L20.5892 0L19.1583 0L19.1583 -1.72255ZM23.5867 -10.1251L28.9646 -10.1251L28.9646 -8.97217L24.8413 -8.97217L24.8413 -6.49007Q25.1397 -6.5918 25.4381 -6.64266Q25.7365 -6.69352 26.0349 -6.69352Q27.7303 -6.69352 28.7204 -5.76443Q29.7106 -4.83534 29.7106 -3.24843Q29.7106 -1.61404 28.6933 -0.708686Q27.6761 0.196669 25.8247 0.196669Q25.1872 0.196669 24.526 0.0881619C24.0852 0.0158239 23.6296 -0.092683 23.1595 -0.237359L23.1595 -1.61404Q23.7698 -1.28174 24.4208 -1.11898Q25.0719 -0.956217 25.7975 -0.956217Q26.9708 -0.956217 27.6557 -1.57335Q28.3407 -2.19048 28.3407 -3.24843Q28.3407 -4.30637 27.6557 -4.9235Q26.9708 -5.54064 25.7975 -5.54064Q25.2482 -5.54064 24.7023 -5.41857Q24.1564 -5.2965 23.5867 -5.03879L23.5867 -10.1251Z" fill="#262626" transform="translate(565.2777777777778,153.80219780219784) translate(-30.924480438232422,0)" />
<line x1="570.1388888888889" y1="115.5302197802198" x2="575.4" y2="115.5302197802198" stroke="#262626" stroke-width="1.1111111111111112" />
<path d="M2.6652 -1.15289L7.44629 -1.15289L7.44629 0L1.01725 0L1.01725 -1.15289Q1.79715 -1.95991 3.14331 -3.31963Q4.48947 -4.67936 4.83534 -5.0727Q5.49316 -5.8119 5.75426 -6.32392Q6.01535 -6.83594 6.01535 -7.331Q6.01535 -8.13802 5.44908 -8.64665Q4.88281 -9.15527 3.97407 -9.15527Q3.32981 -9.15527 2.61434 -8.93148Q1.89887 -8.70768 1.08507 -8.25331L1.08507 -9.63677Q1.91243 -9.96908 2.63129 -10.1386Q3.35015 -10.3082 3.94694 -10.3082Q5.52029 -10.3082 6.45616 -9.52148Q7.39204 -8.73481 7.39204 -7.41916Q7.39204 -6.79525 7.15807 -6.23576Q6.9241 -5.67627 6.30697 -4.91672Q6.13742 -4.72005 5.22868 -3.78079Q4.31993 -2.84153 2.6652 -1.15289ZM10.3353 -10.1251L15.7132 -10.1251L15.7132 -8.97217L11.5899 -8.97217L11.5899 -6.49007Q11.8883 -6.5918 12.1867 -6.64266Q12.4851 -6.69352 12.7835 -6.69352Q14.4789 -6.69352 15.469 -5.76443Q16.4591 -4.83534 16.4591 -3.24843Q16.4591 -1.61404 15.4419 -0.708686Q14.4246 0.196669 12.5732 0.196669Q11.9358 0.196669 11.2745 0.0881619C10.8337 0.0158239 10.3782 -0.092683 9.90804 -0.237359L9.90804 -1.61404Q10.5184 -1.28174 11.1694 -1.11898Q11.8205 -0.956217 12.5461 -0.956217Q13.7193 -0.956217 14.4043 -1.57335Q15.0892 -2.19048 15.0892 -3.24843Q15.0892 -4.30637 14.4043 -4.9235Q13.7193 -5.54064 12.5461 -5.54064Q11.9968 -5.54064 11.4509 -5.41857Q10.9049 -5.2965 10.3353 -5.03879L10.3353 -10.1251ZM19.1583 -1.72255L20.5892 -1.72255L20.5892 0L19.1583 0L19.1583 -1.72255ZM26.5028 -9.22309Q25.4449 -9.22309 24.9125 -8.1821Q24.3802 -7.14111 24.3802 -5.05235Q24.3802 -2.97038 24.9125 -1.92939Q25.4449 -0.888401 26.5028 -0.888401Q27.5675 -0.888401 28.0999 -1.92939Q28.6323 -2.97038 28.6323 -5.05235Q28.6323 -7.14111 28.0999 -8.1821Q27.5675 -9.22309 26.5028 -9.22309ZM26.5028 -10.3082Q28.205 -10.3082 29.1036 -8.962Q30.0022 -7.61583 30.0022 -5.05235Q30.0022 -2.49566 29.1036 -1.1495Q28.205 0.196669 26.5028 0.196669Q24.8006 0.196669 23.902 -1.1495Q23.0035 -2.49566 23.0035 -5.05235Q23.0035 -7.61583 23.902 -8.962Q24.8006 -10.3082 26.5028 -10.3082Z" fill="#262626" transform="translate(565.2777777777778,119.5302197802198) translate(-30.924480438232422,0)" />
<rect x="575" y="444.5412087912088" width="7.25" height="13.708791208791183" fill="#E74C3C" />
<rect x="582.25" y="458.25" width="7.25" height="0" fill="#E74C3C" />
<rect x="589.5" y="444.5412087912088" width="7.25" height="13.708791208791183" fill="#E74C3C" />
<rect x="596.75" y="444.5412087912088" width="7.25" height="13.708791208791183" fill="#E74C3C" />
<rect x="604" y="403.41483516483515" width="7.25" height="54.835164835164846" fill="#E74C3C" />
<rect x="611.25" y="375.9972527472528" width="7.25" height="82.25274725274721" fill="#E74C3C" />
<rect x="618.5" y="321.16208791208794" width="7.25" height="137.08791208791206" fill="#E74C3C" />
<rect x="625.75" y="307.4532967032967" width="7.25" height="150.7967032967033" fill="#E74C3C" />
<rect x="633" y="101.82142857142861" width="7.25" height="356.4285714285714" fill="#E74C3C" />
<rect x="640.25" y="184.07417582417582" width="7.25" height="274.1758241758242" fill="#E74C3C" />
<rect x="647.5" y="307.4532967032967" width="7.25" height="150.7967032967033" fill="#E74C3C" />
<rect x="654.75" y="225.20054945054946" width="7.25" height="233.04945054945054" fill="#E74C3C" />
<rect x="662" y="170.36538461538464" width="7.25" height="287.88461538461536" fill="#E74C3C" />
<rect x="669.25" y="211.49175824175825" width="7.25" height="246.75824175824175" fill="#E74C3C" />
<rect x="676.5" y="266.3269230769231" width="7.25" height="191.9230769230769" fill="#E74C3C" />
<rect x="683.75" y="238.90934065934067" width="7.25" height="219.34065934065933" fill="#E74C3C" />
<rect x="691" y="348.5796703296703" width="7.25" height="109.67032967032969" fill="#E74C3C" />
<rect x="698.25" y="375.9972527472528" width="7.25" height="82.25274725274721" fill="#E74C3C" />
<rect x="705.5" y="389.70604395604397" width="7.25" height="68.54395604395603" fill="#E74C3C" />
<rect x="712.75" y="403.41483516483515" width="7.25" height="54.835164835164846" fill="#E74C3C" />
<g class="spine">
<line x1="575" y1="458.25" x2="720" y2="458.25" stroke="#262626" stroke-width="0.8" />
</g>
<g class="spine">
<line x1="575" y1="84" x2="720" y2="84" stroke="#262626" stroke-width="0.8" />
</g>
<g class="spine">
<line x1="575" y1="84" x2="575" y2="458.25" stroke="#262626" stroke-width="0.8" />
</g>
<g class="spine">
<line x1="720" y1="84" x2="720" y2="458.25" stroke="#262626" stroke-width="0.8" />
</g>
<path d="M8.94504 -9.34516L8.94504 -7.90066Q8.25331 -8.54492 7.47003 -8.86366Q6.68674 -9.1824 5.80512 -9.1824Q4.06901 -9.1824 3.1467 -8.12107Q2.22439 -7.05973 2.22439 -5.05235Q2.22439 -3.05176 3.1467 -1.99042Q4.06901 -0.929091 5.80512 -0.929091Q6.68674 -0.929091 7.47003 -1.24783Q8.25331 -1.56657 8.94504 -2.21083L8.94504 -0.779894Q8.22618 -0.291612 7.42255 -0.0474718Q6.61892 0.196669 5.72374 0.196669Q3.42475 0.196669 2.10232 -1.21053Q0.779894 -2.61773 0.779894 -5.05235Q0.779894 -7.49376 2.10232 -8.90096Q3.42475 -10.3082 5.72374 -10.3082Q6.63249 -10.3082 7.43612 -10.0674Q8.23975 -9.82666 8.94504 -9.34516ZM13.9499 -6.72065Q12.9462 -6.72065 12.363 -5.93736Q11.7798 -5.15408 11.7798 -3.79096Q11.7798 -2.42784 12.3596 -1.64456Q12.9395 -0.861274 13.9499 -0.861274Q14.9468 -0.861274 15.5301 -1.64795Q16.1133 -2.43462 16.1133 -3.79096Q16.1133 -5.14052 15.5301 -5.93058Q14.9468 -6.72065 13.9499 -6.72065ZM13.9499 -7.77859Q15.5775 -7.77859 16.5066 -6.72065Q17.4357 -5.66271 17.4357 -3.79096Q17.4357 -1.926 16.5066 -0.864665Q15.5775 0.196669 13.9499 0.196669Q12.3155 0.196669 11.3898 -0.864665Q10.4641 -1.926 10.4641 -3.79096Q10.4641 -5.66271 11.3898 -6.72065Q12.3155 -7.77859 13.9499 -7.77859ZM19.3753 -2.9975L19.3753 -7.59549L20.6231 -7.59549L20.6231 -3.04498Q20.6231 -1.96669 21.0436 -1.42754Q21.464 -0.888401 22.305 -0.888401Q23.3154 -0.888401 23.902 -1.53266Q24.4887 -2.17692 24.4887 -3.28912L24.4887 -7.59549L25.7365 -7.59549L25.7365 0L24.4887 0L24.4887 -1.16645Q24.0343 -0.474718 23.4341 -0.139025Q22.8339 0.196669 22.0405 0.196669Q20.7316 0.196669 20.0534 -0.617133Q19.3753 -1.43094 19.3753 -2.9975ZM34.6205 -4.58442L34.6205 0L33.3727 0L33.3727 -4.54373Q33.3727 -5.62202 32.9522 -6.15777Q32.5317 -6.69352 31.6908 -6.69352Q30.6803 -6.69352 30.0971 -6.04926Q29.5139 -5.405 29.5139 -4.29281L29.5139 0L28.2593 0L28.2593 -7.59549L29.5139 -7.59549L29.5139 -6.41547Q29.9615 -7.10042 30.5684 -7.43951Q31.1754 -7.77859 31.9689 -7.77859Q33.2777 -7.77859 33.9491 -6.96818Q34.6205 -6.15777 34.6205 -4.58442ZM38.3436 -9.75206L38.3436 -7.59549L40.9139 -7.59549L40.9139 -6.62571L38.3436 -6.62571L38.3436 -2.50244Q38.3436 -1.57335 38.598 -1.30887Q38.8523 -1.04438 39.6322 -1.04438L40.9139 -1.04438L40.9139 0L39.6322 0Q38.1877 0 37.6384 -0.539144Q37.089 -1.07829 37.089 -2.50244L37.089 -6.62571L36.1735 -6.62571L36.1735 -7.59549L37.089 -7.59549L37.089 -9.75206L38.3436 -9.75206Z" fill="#262626" transform="translate(647.5,501.75) translate(-20.623104095458984,0)" />
<rect x="100" y="498.25" width="435" height="124.75" fill="#FFFFFF" />
<line x1="134.56546068338656" y1="622.6" x2="134.56546068338656" y2="627.8611111111111" stroke="#262626" stroke-width="1.1111111111111112" />
<path d="M0.678168 -4.36062L4.3335 -4.36062L4.3335 -3.24843L0.678168 -3.24843L0.678168 -4.36062ZM7.67687 -1.15289L12.458 -1.15289L12.458 0L6.02892 0L6.02892 -1.15289Q6.80881 -1.95991 8.15498 -3.31963Q9.50114 -4.67936 9.84701 -5.0727Q10.5048 -5.8119 10.7659 -6.32392Q11.027 -6.83594 11.027 -7.331Q11.027 -8.13802 10.4607 -8.64665Q9.89448 -9.15527 8.98573 -9.15527Q8.34147 -9.15527 7.626 -8.93148Q6.91054 -8.70768 6.09673 -8.25331L6.09673 -9.63677Q6.9241 -9.96908 7.64296 -10.1386Q8.36182 -10.3082 8.9586 -10.3082Q10.532 -10.3082 11.4678 -9.52148Q12.4037 -8.73481 12.4037 -7.41916Q12.4037 -6.79525 12.1697 -6.23576Q11.9358 -5.67627 11.3186 -4.91672Q11.1491 -4.72005 10.2403 -3.78079Q9.3316 -2.84153 7.67687 -1.15289ZM15.3334 -1.72255L16.7643 -1.72255L16.7643 0L15.3334 0L15.3334 -1.72255ZM22.678 -9.22309Q21.62 -9.22309 21.0876 -8.1821Q20.5553 -7.14111 20.5553 -5.05235Q20.5553 -2.97038 21.0876 -1.92939Q21.62 -0.888401 22.678 -0.888401Q23.7427 -0.888401 24.275 -1.92939Q24.8074 -2.97038 24.8074 -5.05235Q24.8074 -7.14111 24.275 -8.1821Q23.7427 -9.22309 22.678 -9.22309ZM22.678 -10.3082Q24.3802 -10.3082 25.2787 -8.962Q26.1773 -7.61583 26.1773 -5.05235Q26.1773 -2.49566 25.2787 -1.1495Q24.3802 0.196669 22.678 0.196669Q20.9757 0.196669 20.0772 -1.1495Q19.1786 -2.49566 19.1786 -5.05235Q19.1786 -7.61583 20.0772 -8.962Q20.9757 -10.3082 22.678 -10.3082Z" fill="#262626" transform="translate(134.56546068338656,646.6111111111111) translate(-13.549805641174316,0)" />
<line x1="182.87054671495872" y1="622.6" x2="182.87054671495872" y2="627.8611111111111" stroke="#262626" stroke-width="1.1111111111111112" />
<path d="M0.678168 -4.36062L4.3335 -4.36062L4.3335 -3.24843L0.678168 -3.24843L0.678168 -4.36062ZM6.73421 -1.15289L8.97217 -1.15289L8.97217 -8.87722L6.53754 -8.38894L6.53754 -9.63677L8.9586 -10.1251L10.3285 -10.1251L10.3285 -1.15289L12.5665 -1.15289L12.5665 0L6.73421 0L6.73421 -1.15289ZM15.3334 -1.72255L16.7643 -1.72255L16.7643 0L15.3334 0L15.3334 -1.72255ZM19.7618 -10.1251L25.1397 -10.1251L25.1397 -8.97217L21.0164 -8.97217L21.0164 -6.49007Q21.3148 -6.5918 21.6132 -6.64266Q21.9116 -6.69352 22.21 -6.69352Q23.9054 -6.69352 24.8956 -5.76443Q25.8857 -4.83534 25.8857 -3.24843Q25.8857 -1.61404 24.8684 -0.708686Q23.8512 0.196669 21.9998 0.196669Q21.3623 0.196669 20.7011 0.0881619C20.2603 0.0158239 19.8048 -0.092683 19.3346 -0.237359L19.3346 -1.61404Q19.9449 -1.28174 20.596 -1.11898Q21.247 -0.956217 21.9727 -0.956217Q23.1459 -0.956217 23.8308 -1.57335Q24.5158 -2.19048 24.5158 -3.24843Q24.5158 -4.30637 23.8308 -4.9235Q23.1459 -5.54064 21.9727 -5.54064Q21.4233 -5.54064 20.8774 -5.41857Q20.3315 -5.2965 19.7618 -5.03879L19.7618 -10.1251Z" fill="#262626" transform="translate(182.87054671495872,646.6111111111111) translate(-13.549805641174316,0)" />
<line x1="231.1756327465309" y1="622.6" x2="231.1756327465309" y2="627.8611111111111" stroke="#262626" stroke-width="1.1111111111111112" />
<path d="M0.678168 -4.36062L4.3335 -4.36062L4.3335 -3.24843L0.678168 -3.24843L0.678168 -4.36062ZM6.73421 -1.15289L8.97217 -1.15289L8.97217 -8.87722L6.53754 -8.38894L6.53754 -9.63677L8.9586 -10.1251L10.3285 -10.1251L10.3285 -1.15289L12.5665 -1.15289L12.5665 0L6.73421 0L6.73421 -1.15289ZM15.3334 -1.72255L16.7643 -1.72255L16.7643 0L15.3334 0L15.3334 -1.72255ZM22.678 -9.22309Q21.62 -9.22309 21.0876 -8.1821Q20.5553 -7.14111 20.5553 -5.05235Q20.5553 -2.97038 21.0876 -1.92939Q21.62 -0.888401 22.678 -0.888401Q23.7427 -0.888401 24.275 -1.92939Q24.8074 -2.97038 24.8074 -5.05235Q24.8074 -7.14111 24.275 -8.1821Q23.7427 -9.22309 22.678 -9.22309ZM22.678 -10.3082Q24.3802 -10.3082 25.2787 -8.962Q26.1773 -7.61583 26.1773 -5.05235Q26.1773 -2.49566 25.2787 -1.1495Q24.3802 0.196669 22.678 0.196669Q20.9757 0.196669 20.0772 -1.1495Q19.1786 -2.49566 19.1786 -5.05235Q19.1786 -7.61583 20.0772 -8.962Q20.9757 -10.3082 22.678 -10.3082Z" fill="#262626" transform="translate(231.1756327465309,646.6111111111111) translate(-13.549805641174316,0)" />
<line x1="279.4807187781031" y1="622.6" x2="279.4807187781031" y2="627.8611111111111" stroke="#262626" stroke-width="1.1111111111111112" />
<path d="M0.678168 -4.36062L4.3335 -4.36062L4.3335 -3.24843L0.678168 -3.24843L0.678168 -4.36062ZM9.42654 -9.22309Q8.3686 -9.22309 7.83624 -8.1821Q7.30387 -7.14111 7.30387 -5.05235Q7.30387 -2.97038 7.83624 -1.92939Q8.3686 -0.888401 9.42654 -0.888401Q10.4913 -0.888401 11.0236 -1.92939Q11.556 -2.97038 11.556 -5.05235Q11.556 -7.14111 11.0236 -8.1821Q10.4913 -9.22309 9.42654 -9.22309ZM9.42654 -10.3082Q11.1287 -10.3082 12.0273 -8.962Q12.9259 -7.61583 12.9259 -5.05235Q12.9259 -2.49566 12.0273 -1.1495Q11.1287 0.196669 9.42654 0.196669Q7.72434 0.196669 6.82577 -1.1495Q5.92719 -2.49566 5.92719 -5.05235Q5.92719 -7.61583 6.82577 -8.962Q7.72434 -10.3082 9.42654 -10.3082ZM15.3334 -1.72255L16.7643 -1.72255L16.7643 0L15.3334 0L15.3334 -1.72255ZM19.7618 -10.1251L25.1397 -10.1251L25.1397 -8.97217L21.0164 -8.97217L21.0164 -6.49007Q21.3148 -6.5918 21.6132 -6.64266Q21.9116 -6.69352 22.21 -6.69352Q23.9054 -6.69352 24.8956 -5.76443Q25.8857 -4.83534 25.8857 -3.24843Q25.8857 -1.61404 24.8684 -0.708686Q23.8512 0.196669 21.9998 0.196669Q21.3623 0.196669 20.7011 0.0881619C20.2603 0.0158239 19.8048 -0.092683 19.3346 -0.237359L19.3346 -1.61404Q19.9449 -1.28174 20.596 -1.11898Q21.247 -0.956217 21.9727 -0.956217Q23.1459 -0.956217 23.8308 -1.57335Q24.5158 -2.19048 24.5158 -3.24843Q24.5158 -4.30637 23.8308 -4.9235Q23.1459 -5.54064 21.9727 -5.54064Q21.4233 -5.54064 20.8774 -5.41857Q20.3315 -5.2965 19.7618 -5.03879L19.7618 -10.1251Z" fill="#262626" transform="translate(279.4807187781031,646.6111111111111) translate(-13.549805641174316,0)" />
<line x1="327.78580480967526" y1="622.6" x2="327.78580480967526" y2="627.8611111111111" stroke="#262626" stroke-width="1.1111111111111112" />
<path d="M4.41488 -9.22309Q3.35693 -9.22309 2.82457 -8.1821Q2.29221 -7.14111 2.29221 -5.05235Q2.29221 -2.97038 2.82457 -1.92939Q3.35693 -0.888401 4.41488 -0.888401Q5.4796 -0.888401 6.01196 -1.92939Q6.54433 -2.97038 6.54433 -5.05235Q6.54433 -7.14111 6.01196 -8.1821Q5.4796 -9.22309 4.41488 -9.22309ZM4.41488 -10.3082Q6.11708 -10.3082 7.01565 -8.962Q7.91422 -7.61583 7.91423 -5.05235Q7.91423 -2.49566 7.01565 -1.1495Q6.11708 0.196669 4.41488 0.196669Q2.71267 0.196669 1.8141 -1.1495Q0.915527 -2.49566 0.915527 -5.05235Q0.915527 -7.61583 1.8141 -8.962Q2.71267 -10.3082 4.41488 -10.3082ZM10.3217 -1.72255L11.7527 -1.72255L11.7527 0L10.3217 0L10.3217 -1.72255ZM17.6663 -9.22309Q16.6083 -9.22309 16.076 -8.1821Q15.5436 -7.14111 15.5436 -5.05235Q15.5436 -2.97038 16.076 -1.92939Q16.6083 -0.888401 17.6663 -0.888401Q18.731 -0.888401 19.2634 -1.92939Q19.7957 -2.97038 19.7957 -5.05235Q19.7957 -7.14111 19.2634 -8.1821Q18.731 -9.22309 17.6663 -9.22309ZM17.6663 -10.3082Q19.3685 -10.3082 20.2671 -8.962Q21.1656 -7.61583 21.1656 -5.05235Q21.1656 -2.49566 20.2671 -1.1495Q19.3685 0.196669 17.6663 0.196669Q15.9641 0.196669 15.0655 -1.1495Q14.1669 -2.49566 14.1669 -5.05235Q14.1669 -7.61583 15.0655 -8.962Q15.9641 -10.3082 17.6663 -10.3082Z" fill="#262626" transform="translate(327.78580480967526,646.6111111111111) translate(-11.043972969055176,0)" />
<line x1="376.0908908412474" y1="622.6" x2="376.0908908412474" y2="627.8611111111111" stroke="#262626" stroke-width="1.1111111111111112" />
<path d="M4.41488 -9.22309Q3.35693 -9.22309 2.82457 -8.1821Q2.29221 -7.14111 2.29221 -5.05235Q2.29221 -2.97038 2.82457 -1.92939Q3.35693 -0.888401 4.41488 -0.888401Q5.4796 -0.888401 6.01196 -1.92939Q6.54433 -2.97038 6.54433 -5.05235Q6.54433 -7.14111 6.01196 -8.1821Q5.4796 -9.22309 4.41488 -9.22309ZM4.41488 -10.3082Q6.11708 -10.3082 7.01565 -8.962Q7.91422 -7.61583 7.91423 -5.05235Q7.91423 -2.49566 7.01565 -1.1495Q6.11708 0.196669 4.41488 0.196669Q2.71267 0.196669 1.8141 -1.1495Q0.915527 -2.49566 0.915527 -5.05235Q0.915527 -7.61583 1.8141 -8.962Q2.71267 -10.3082 4.41488 -10.3082ZM10.3217 -1.72255L11.7527 -1.72255L11.7527 0L10.3217 0L10.3217 -1.72255ZM14.7502 -10.1251L20.128 -10.1251L20.128 -8.97217L16.0048 -8.97217L16.0048 -6.49007Q16.3032 -6.5918 16.6016 -6.64266Q16.9 -6.69352 17.1984 -6.69352Q18.8938 -6.69352 19.8839 -5.76443Q20.874 -4.83534 20.874 -3.24843Q20.874 -1.61404 19.8568 -0.708686Q18.8395 0.196669 16.9881 0.196669Q16.3506 0.196669 15.6894 0.0881619C15.2486 0.0158239 14.7931 -0.092683 14.3229 -0.237359L14.3229 -1.61404Q14.9333 -1.28174 15.5843 -1.11898Q16.2354 -0.956217 16.961 -0.956217Q18.1342 -0.956217 18.8192 -1.57335Q19.5041 -2.19048 19.5041 -3.24843Q19.5041 -4.30637 18.8192 -4.9235Q18.1342 -5.54064 16.961 -5.54064Q16.4117 -5.54064 15.8658 -5.41857Q15.3198 -5.2965 14.7502 -5.03879L14.7502 -10.1251Z" fill="#262626" transform="translate(376.0908908412474,646.6111111111111) translate(-11.043972969055176,0)" />
<line x1="424.3959768728196" y1="622.6" x2="424.3959768728196" y2="627.8611111111111" stroke="#262626" stroke-width="1.1111111111111112" />
<path d="M1.72255 -1.15289L3.9605 -1.15289L3.9605 -8.87722L1.52588 -8.38894L1.52588 -9.63677L3.94694 -10.1251L5.31684 -10.1251L5.31684 -1.15289L7.5548 -1.15289L7.5548 0L1.72255 0L1.72255 -1.15289ZM10.3217 -1.72255L11.7527 -1.72255L11.7527 0L10.3217 0L10.3217 -1.72255ZM17.6663 -9.22309Q16.6083 -9.22309 16.076 -8.1821Q15.5436 -7.14111 15.5436 -5.05235Q15.5436 -2.97038 16.076 -1.92939Q16.6083 -0.888401 17.6663 -0.888401Q18.731 -0.888401 19.2634 -1.92939Q19.7957 -2.97038 19.7957 -5.05235Q19.7957 -7.14111 19.2634 -8.1821Q18.731 -9.22309 17.6663 -9.22309ZM17.6663 -10.3082Q19.3685 -10.3082 20.2671 -8.962Q21.1656 -7.61583 21.1656 -5.05235Q21.1656 -2.49566 20.2671 -1.1495Q19.3685 0.196669 17.6663 0.196669Q15.9641 0.196669 15.0655 -1.1495Q14.1669 -2.49566 14.1669 -5.05235Q14.1669 -7.61583 15.0655 -8.962Q15.9641 -10.3082 17.6663 -10.3082Z" fill="#262626" transform="translate(424.3959768728196,646.6111111111111) translate(-11.043972969055176,0)" />
<line x1="472.7010629043918" y1="622.6" x2="472.7010629043918" y2="627.8611111111111" stroke="#262626" stroke-width="1.1111111111111112" />
<path d="M1.72255 -1.15289L3.9605 -1.15289L3.9605 -8.87722L1.52588 -8.38894L1.52588 -9.63677L3.94694 -10.1251L5.31684 -10.1251L5.31684 -1.15289L7.5548 -1.15289L7.5548 0L1.72255 0L1.72255 -1.15289ZM10.3217 -1.72255L11.7527 -1.72255L11.7527 0L10.3217 0L10.3217 -1.72255ZM14.7502 -10.1251L20.128 -10.1251L20.128 -8.97217L16.0048 -8.97217L16.0048 -6.49007Q16.3032 -6.5918 16.6016 -6.64266Q16.9 -6.69352 17.1984 -6.69352Q18.8938 -6.69352 19.8839 -5.76443Q20.874 -4.83534 20.874 -3.24843Q20.874 -1.61404 19.8568 -0.708686Q18.8395 0.196669 16.9881 0.196669Q16.3506 0.196669 15.6894 0.0881619C15.2486 0.0158239 14.7931 -0.092683 14.3229 -0.237359L14.3229 -1.61404Q14.9333 -1.28174 15.5843 -1.11898Q16.2354 -0.956217 16.961 -0.956217Q18.1342 -0.956217 18.8192 -1.57335Q19.5041 -2.19048 19.5041 -3.24843Q19.5041 -4.30637 18.8192 -4.9235Q18.1342 -5.54064 16.961 -5.54064Q16.4117 -5.54064 15.8658 -5.41857Q15.3198 -5.2965 14.7502 -5.03879L14.7502 -10.1251Z" fill="#262626" transform="translate(472.7010629043918,646.6111111111111) translate(-11.043972969055176,0)" />
<line x1="521.0061489359639" y1="622.6" x2="521.0061489359639" y2="627.8611111111111" stroke="#262626" stroke-width="1.1111111111111112" />
<path d="M2.6652 -1.15289L7.44629 -1.15289L7.44629 0L1.01725 0L1.01725 -1.15289Q1.79715 -1.95991 3.14331 -3.31963Q4.48947 -4.67936 4.83534 -5.0727Q5.49316 -5.8119 5.75426 -6.32392Q6.01535 -6.83594 6.01535 -7.331Q6.01535 -8.13802 5.44908 -8.64665Q4.88281 -9.15527 3.97407 -9.15527Q3.32981 -9.15527 2.61434 -8.93148Q1.89887 -8.70768 1.08507 -8.25331L1.08507 -9.63677Q1.91243 -9.96908 2.63129 -10.1386Q3.35015 -10.3082 3.94694 -10.3082Q5.52029 -10.3082 6.45616 -9.52148Q7.39204 -8.73481 7.39204 -7.41916Q7.39204 -6.79525 7.15807 -6.23576Q6.9241 -5.67627 6.30697 -4.91672Q6.13742 -4.72005 5.22868 -3.78079Q4.31993 -2.84153 2.6652 -1.15289ZM10.3217 -1.72255L11.7527 -1.72255L11.7527 0L10.3217 0L10.3217 -1.72255ZM17.6663 -9.22309Q16.6083 -9.22309 16.076 -8.1821Q15.5436 -7.14111 15.5436 -5.05235Q15.5436 -2.97038 16.076 -1.92939Q16.6083 -0.888401 17.6663 -0.888401Q18.731 -0.888401 19.2634 -1.92939Q19.7957 -2.97038 19.7957 -5.05235Q19.7957 -7.14111 19.2634 -8.1821Q18.731 -9.22309 17.6663 -9.22309ZM17.6663 -10.3082Q19.3685 -10.3082 20.2671 -8.962Q21.1656 -7.61583 21.1656 -5.05235Q21.1656 -2.49566 20.2671 -1.1495Q19.3685 0.196669 17.6663 0.196669Q15.9641 0.196669 15.0655 -1.1495Q14.1669 -2.49566 14.1669 -5.05235Q14.1669 -7.61583 15.0655 -8.962Q15.9641 -10.3082 17.6663 -10.3082Z" fill="#262626" transform="translate(521.0061489359639,646.6111111111111) translate(-11.043972969055176,0)" />
<line x1="95.13888888888889" y1="623" x2="100.4" y2="623" stroke="#262626" stroke-width="1.1111111111111112" />
<path d="M4.41488 -9.22309Q3.35693 -9.22309 2.82457 -8.1821Q2.29221 -7.14111 2.29221 -5.05235Q2.29221 -2.97038 2.82457 -1.92939Q3.35693 -0.888401 4.41488 -0.888401Q5.4796 -0.888401 6.01196 -1.92939Q6.54433 -2.97038 6.54433 -5.05235Q6.54433 -7.14111 6.01196 -8.1821Q5.4796 -9.22309 4.41488 -9.22309ZM4.41488 -10.3082Q6.11708 -10.3082 7.01565 -8.962Q7.91422 -7.61583 7.91423 -5.05235Q7.91423 -2.49566 7.01565 -1.1495Q6.11708 0.196669 4.41488 0.196669Q2.71267 0.196669 1.8141 -1.1495Q0.915527 -2.49566 0.915527 -5.05235Q0.915527 -7.61583 1.8141 -8.962Q2.71267 -10.3082 4.41488 -10.3082Z" fill="#262626" transform="translate(90.27777777777777,627) translate(-8.83653450012207,0)" />
<line x1="95.13888888888889" y1="594.7120181405895" x2="100.4" y2="594.7120181405895" stroke="#262626" stroke-width="1.1111111111111112" />
<path d="M1.49875 -10.1251L6.87663 -10.1251L6.87663 -8.97217L2.75336 -8.97217L2.75336 -6.49007Q3.05176 -6.5918 3.35015 -6.64266Q3.64855 -6.69352 3.94694 -6.69352Q5.64236 -6.69352 6.63249 -5.76443Q7.62261 -4.83534 7.62261 -3.24843Q7.62261 -1.61404 6.60536 -0.708686Q5.58811 0.196669 3.73671 0.196669Q3.09923 0.196669 2.43802 0.0881619C1.99721 0.0158239 1.5417 -0.092683 1.07151 -0.237359L1.07151 -1.61404Q1.68186 -1.28174 2.3329 -1.11898Q2.98394 -0.956217 3.70958 -0.956217Q4.88281 -0.956217 5.56776 -1.57335Q6.25271 -2.19048 6.25271 -3.24843Q6.25271 -4.30637 5.56776 -4.9235Q4.88281 -5.54064 3.70958 -5.54064Q3.16026 -5.54064 2.61434 -5.41857Q2.06841 -5.2965 1.49875 -5.03879L1.49875 -10.1251Z" fill="#262626" transform="translate(90.27777777777777,598.7120181405895) translate(-8.83653450012207,0)" />
<line x1="95.13888888888889" y1="566.4240362811792" x2="100.4" y2="566.4240362811792" stroke="#262626" stroke-width="1.1111111111111112" />
<path d="M1.72255 -1.15289L3.9605 -1.15289L3.9605 -8.87722L1.52588 -8.38894L1.52588 -9.63677L3.94694 -10.1251L5.31684 -10.1251L5.31684 -1.15289L7.5548 -1.15289L7.5548 0L1.72255 0L1.72255 -1.15289ZM13.2514 -9.22309Q12.1935 -9.22309 11.6611 -8.1821Q11.1287 -7.14111 11.1287 -5.05235Q11.1287 -2.97038 11.6611 -1.92939Q12.1935 -0.888401 13.2514 -0.888401Q14.3161 -0.888401 14.8485 -1.92939Q15.3809 -2.97038 15.3809 -5.05235Q15.3809 -7.14111 14.8485 -8.1821Q14.3161 -9.22309 13.2514 -9.22309ZM13.2514 -10.3082Q14.9536 -10.3082 15.8522 -8.962Q16.7508 -7.61583 16.7508 -5.05235Q16.7508 -2.49566 15.8522 -1.1495Q14.9536 0.196669 13.2514 0.196669Q11.5492 0.196669 10.6506 -1.1495Q9.75206 -2.49566 9.75206 -5.05235Q9.75206 -7.61583 10.6506 -8.962Q11.5492 -10.3082 13.2514 -10.3082Z" fill="#262626" transform="translate(90.27777777777777,570.4240362811792) translate(-17.67306900024414,0)" />
<line x1="95.13888888888889" y1="538.1360544217687" x2="100.4" y2="538.1360544217687" stroke="#262626" stroke-width="1.1111111111111112" />
<path d="M1.72255 -1.15289L3.9605 -1.15289L3.9605 -8.87722L1.52588 -8.38894L1.52588 -9.63677L3.94694 -10.1251L5.31684 -10.1251L5.31684 -1.15289L7.5548 -1.15289L7.5548 0L1.72255 0L1.72255 -1.15289ZM10.3353 -10.1251L15.7132 -10.1251L15.7132 -8.97217L11.5899 -8.97217L11.5899 -6.49007Q11.8883 -6.5918 12.1867 -6.64266Q12.4851 -6.69352 12.7835 -6.69352Q14.4789 -6.69352 15.469 -5.76443Q16.4591 -4.83534 16.4591 -3.24843Q16.4591 -1.61404 15.4419 -0.708686Q14.4246 0.196669 12.5732 0.196669Q11.9358 0.196669 11.2745 0.0881619C10.8337 0.0158239 10.3782 -0.092683 9.90804 -0.237359L9.90804 -1.61404Q10.5184 -1.28174 11.1694 -1.11898Q11.8205 -0.956217 12.5461 -0.956217Q13.7193 -0.956217 14.4043 -1.57335Q15.0892 -2.19048 15.0892 -3.24843Q15.0892 -4.30637 14.4043 -4.9235Q13.7193 -5.54064 12.5461 -5.54064Q11.9968 -5.54064 11.4509 -5.41857Q10.9049 -5.2965 10.3353 -5.03879L10.3353 -10.1251Z" fill="#262626" transform="translate(90.27777777777777,542.1360544217687) translate(-17.67306900024414,0)" />
<line x1="95.13888888888889" y1="509.8480725623583" x2="100.4" y2="509.8480725623583" stroke="#262626" stroke-width="1.1111111111111112" />
<path d="M2.6652 -1.15289L7.44629 -1.15289L7.44629 0L1.01725 0L1.01725 -1.15289Q1.79715 -1.95991 3.14331 -3.31963Q4.48947 -4.67936 4.83534 -5.0727Q5.49316 -5.8119 5.75426 -6.32392Q6.01535 -6.83594 6.01535 -7.331Q6.01535 -8.13802 5.44908 -8.64665Q4.88281 -9.15527 3.97407 -9.15527Q3.32981 -9.15527 2.61434 -8.93148Q1.89887 -8.70768 1.08507 -8.25331L1.08507 -9.63677Q1.91243 -9.96908 2.63129 -10.1386Q3.35015 -10.3082 3.94694 -10.3082Q5.52029 -10.3082 6.45616 -9.52148Q7.39204 -8.73481 7.39204 -7.41916Q7.39204 -6.79525 7.15807 -6.23576Q6.9241 -5.67627 6.30697 -4.91672Q6.13742 -4.72005 5.22868 -3.78079Q4.31993 -2.84153 2.6652 -1.15289ZM13.2514 -9.22309Q12.1935 -9.22309 11.6611 -8.1821Q11.1287 -7.14111 11.1287 -5.05235Q11.1287 -2.97038 11.6611 -1.92939Q12.1935 -0.888401 13.2514 -0.888401Q14.3161 -0.888401 14.8485 -1.92939Q15.3809 -2.97038 15.3809 -5.05235Q15.3809 -7.14111 14.8485 -8.1821Q14.3161 -9.22309 13.2514 -9.22309ZM13.2514 -10.3082Q14.9536 -10.3082 15.8522 -8.962Q16.7508 -7.61583 16.7508 -5.05235Q16.7508 -2.49566 15.8522 -1.1495Q14.9536 0.196669 13.2514 0.196669Q11.5492 0.196669 10.6506 -1.1495Q9.75206 -2.49566 9.75206 -5.05235Q9.75206 -7.61583 10.6506 -8.962Q11.5492 -10.3082 13.2514 -10.3082Z" fill="#262626" transform="translate(90.27777777777777,513.8480725623583) translate(-17.67306900024414,0)" />
<rect x="99.99999999999997" y="606.0272108843537" width="21.75000000000003" height="16.972789115646265" fill="#3498DB" />
<rect x="121.75" y="611.6848072562358" width="21.75" height="11.315192743764214" fill="#3498DB" />
<rect x="143.49999999999997" y="600.3696145124717" width="21.75" height="22.630385487528315" fill="#3498DB" />
<rect x="165.25" y="606.0272108843537" width="21.75" height="16.972789115646265" fill="#3498DB" />
<rect x="187" y="555.1088435374149" width="21.75" height="67.89115646258506" fill="#3498DB" />
<rect x="208.75" y="560.7664399092971" width="21.75" height="62.233560090702895" fill="#3498DB" />
<rect x="230.5" y="572.0816326530612" width="21.75" height="50.918367346938794" fill="#3498DB" />
<rect x="252.25" y="543.7936507936508" width="21.75" height="79.20634920634916" fill="#3498DB" />
<rect x="274" y="538.1360544217687" width="21.75" height="84.86394557823132" fill="#3498DB" />
<rect x="295.75" y="560.7664399092971" width="21.75" height="62.233560090702895" fill="#3498DB" />
<rect x="317.5" y="509.8480725623583" width="21.75" height="113.15192743764169" fill="#3498DB" />
<rect x="339.25" y="504.1904761904762" width="21.75" height="118.8095238095238" fill="#3498DB" />
<rect x="361" y="509.8480725623583" width="21.75" height="113.15192743764169" fill="#3498DB" />
<rect x="382.75" y="549.4512471655329" width="21.75" height="73.54875283446711" fill="#3498DB" />
<rect x="404.5" y="572.0816326530612" width="21.75" height="50.918367346938794" fill="#3498DB" />
<rect x="426.25" y="555.1088435374149" width="21.75" height="67.89115646258506" fill="#3498DB" />
<rect x="448" y="583.3968253968254" width="21.75" height="39.60317460317458" fill="#3498DB" />
<rect x="469.75" y="606.0272108843537" width="21.75" height="16.972789115646265" fill="#3498DB" />
<rect x="491.50000000000006" y="589.0544217687075" width="21.749999999999943" height="33.94557823129253" fill="#3498DB" />
<rect x="513.25" y="594.7120181405895" width="21.75" height="28.28798185941048" fill="#3498DB" />
<g class="spine">
<line x1="100" y1="623" x2="535" y2="623" stroke="#262626" stroke-width="0.8" />
</g>
<g class="spine">
<line x1="100" y1="498.25" x2="535" y2="498.25" stroke="#262626" stroke-width="0.8" />
</g>
<g class="spine">
<line x1="100" y1="498.25" x2="100" y2="623" stroke="#262626" stroke-width="0.8" />
</g>
<g class="spine">
<line x1="535" y1="498.25" x2="535" y2="623" stroke="#262626" stroke-width="0.8" />
</g>
<path d="M8.94504 -9.34516L8.94504 -7.90066Q8.25331 -8.54492 7.47003 -8.86366Q6.68674 -9.1824 5.80512 -9.1824Q4.06901 -9.1824 3.1467 -8.12107Q2.22439 -7.05973 2.22439 -5.05235Q2.22439 -3.05176 3.1467 -1.99042Q4.06901 -0.929091 5.80512 -0.929091Q6.68674 -0.929091 7.47003 -1.24783Q8.25331 -1.56657 8.94504 -2.21083L8.94504 -0.779894Q8.22618 -0.291612 7.42255 -0.0474718Q6.61892 0.196669 5.72374 0.196669Q3.42475 0.196669 2.10232 -1.21053Q0.779894 -2.61773 0.779894 -5.05235Q0.779894 -7.49376 2.10232 -8.90096Q3.42475 -10.3082 5.72374 -10.3082Q6.63249 -10.3082 7.43612 -10.0674Q8.23975 -9.82666 8.94504 -9.34516ZM13.9499 -6.72065Q12.9462 -6.72065 12.363 -5.93736Q11.7798 -5.15408 11.7798 -3.79096Q11.7798 -2.42784 12.3596 -1.64456Q12.9395 -0.861274 13.9499 -0.861274Q14.9468 -0.861274 15.5301 -1.64795Q16.1133 -2.43462 16.1133 -3.79096Q16.1133 -5.14052 15.5301 -5.93058Q14.9468 -6.72065 13.9499 -6.72065ZM13.9499 -7.77859Q15.5775 -7.77859 16.5066 -6.72065Q17.4357 -5.66271 17.4357 -3.79096Q17.4357 -1.926 16.5066 -0.864665Q15.5775 0.196669 13.9499 0.196669Q12.3155 0.196669 11.3898 -0.864665Q10.4641 -1.926 10.4641 -3.79096Q10.4641 -5.66271 11.3898 -6.72065Q12.3155 -7.77859 13.9499 -7.77859ZM19.3753 -2.9975L19.3753 -7.59549L20.6231 -7.59549L20.6231 -3.04498Q20.6231 -1.96669 21.0436 -1.42754Q21.464 -0.888401 22.305 -0.888401Q23.3154 -0.888401 23.902 -1.53266Q24.4887 -2.17692 24.4887 -3.28912L24.4887 -7.59549L25.7365 -7.59549L25.7365 0L24.4887 0L24.4887 -1.16645Q24.0343 -0.474718 23.4341 -0.139025Q22.8339 0.196669 22.0405 0.196669Q20.7316 0.196669 20.0534 -0.617133Q19.3753 -1.43094 19.3753 -2.9975ZM34.6205 -4.58442L34.6205 0L33.3727 0L33.3727 -4.54373Q33.3727 -5.62202 32.9522 -6.15777Q32.5317 -6.69352 31.6908 -6.69352Q30.6803 -6.69352 30.0971 -6.04926Q29.5139 -5.405 29.5139 -4.29281L29.5139 0L28.2593 0L28.2593 -7.59549L29.5139 -7.59549L29.5139 -6.41547Q29.9615 -7.10042 30.5684 -7.43951Q31.1754 -7.77859 31.9689 -7.77859Q33.2777 -7.77859 33.9491 -6.96818Q34.6205 -6.15777 34.6205 -4.58442ZM38.3436 -9.75206L38.3436 -7.59549L40.9139 -7.59549L40.9139 -6.62571L38.3436 -6.62571L38.3436 -2.50244Q38.3436 -1.57335 38.598 -1.30887Q38.8523 -1.04438 39.6322 -1.04438L40.9139 -1.04438L40.9139 0L39.6322 0Q38.1877 0 37.6384 -0.539144Q37.089 -1.07829 37.089 -2.50244L37.089 -6.62571L36.1735 -6.62571L36.1735 -7.59549L37.089 -7.59549L37.089 -9.75206L38.3436 -9.75206Z" fill="#262626" transform="translate(60.60470877753364,560.625) rotate(-90) translate(-20.623104095458984,0)" />
</svg>
