<svg xmlns="http://www.w3.org/2000/svg" viewBox="0 0 800 600" width="800" height="600" role="img" aria-labelledby="chart-title">
<title id="chart-title">Damped Oscillation</title>
<rect x="0" y="0" width="800" height="600" fill="#FFFFFF" />
<text x="400" y="25" font-family="sans-serif" font-size="17" text-anchor="middle" font-weight="bold" fill="#000000">Damped Oscillation</text>
<rect x="60" y="70" width="720" height="480" fill="#FFFFFF" />
<line x1="92.72727272727272" y1="70" x2="92.72727272727272" y2="550" stroke="#B0B0B0" stroke-width="0.8" />
<line x1="223.63636363636363" y1="70" x2="223.63636363636363" y2="550" stroke="#B0B0B0" stroke-width="0.8" />
<line x1="354.5454545454545" y1="70" x2="354.5454545454545" y2="550" stroke="#B0B0B0" stroke-width="0.8" />
<line x1="485.4545454545454" y1="70" x2="485.4545454545454" y2="550" stroke="#B0B0B0" stroke-width="0.8" />
<line x1="616.3636363636364" y1="70" x2="616.3636363636364" y2="550" stroke="#B0B0B0" stroke-width="0.8" />
<line x1="747.2727272727273" y1="70" x2="747.2727272727273" y2="550" stroke="#B0B0B0" stroke-width="0.8" />
<line x1="60" y1="528.1818181818181" x2="780" y2="528.1818181818181" stroke="#B0B0B0" stroke-width="0.8" />
<line x1="60" y1="440.9090909090909" x2="780" y2="440.9090909090909" stroke="#B0B0B0" stroke-width="0.8" />
<line x1="60" y1="353.6363636363636" x2="780" y2="353.6363636363636" stroke="#B0B0B0" stroke-width="0.8" />
<line x1="60" y1="266.3636363636364" x2="780" y2="266.3636363636364" stroke="#B0B0B0" stroke-width="0.8" />
<line x1="60" y1="179.09090909090907" x2="780" y2="179.09090909090907" stroke="#B0B0B0" stroke-width="0.8" />
<line x1="60" y1="91.81818181818181" x2="780" y2="91.81818181818181" stroke="#B0B0B0" stroke-width="0.8" />
<line x1="92.72727272727272" y1="549.6" x2="92.72727272727272" y2="553.5" stroke="#000000" stroke-width="0.8" />
<text x="92.72727272727272" y="569.5" font-family="sans-serif" font-size="13" text-anchor="middle" fill="#000000">0</text>
<line x1="223.63636363636363" y1="549.6" x2="223.63636363636363" y2="553.5" stroke="#000000" stroke-width="0.8" />
<text x="223.63636363636363" y="569.5" font-family="sans-serif" font-size="13" text-anchor="middle" fill="#000000">0.2</text>
<line x1="354.5454545454545" y1="549.6" x2="354.5454545454545" y2="553.5" stroke="#000000" stroke-width="0.8" />
<text x="354.5454545454545" y="569.5" font-family="sans-serif" font-size="13" text-anchor="middle" fill="#000000">0.4</text>
<line x1="485.4545454545454" y1="549.6" x2="485.4545454545454" y2="553.5" stroke="#000000" stroke-width="0.8" />
<text x="485.4545454545454" y="569.5" font-family="sans-serif" font-size="13" text-anchor="middle" fill="#000000">0.6</text>
<line x1="616.3636363636364" y1="549.6" x2="616.3636363636364" y2="553.5" stroke="#000000" stroke-width="0.8" />
<text x="616.3636363636364" y="569.5" font-family="sans-serif" font-size="13" text-anchor="middle" fill="#000000">0.8</text>
<line x1="747.2727272727273" y1="549.6" x2="747.2727272727273" y2="553.5" stroke="#000000" stroke-width="0.8" />
<text x="747.2727272727273" y="569.5" font-family="sans-serif" font-size="13" text-anchor="middle" fill="#000000">1</text>
<line x1="66.54545454545453" y1="549.6" x2="66.54545454545453" y2="553.5" stroke="#000000" stroke-width="0.8" />
<line x1="118.9090909090909" y1="549.6" x2="118.9090909090909" y2="553.5" stroke="#000000" stroke-width="0.8" />
<line x1="145.09090909090907" y1="549.6" x2="145.09090909090907" y2="553.5" stroke="#000000" stroke-width="0.8" />
<line x1="171.27272727272725" y1="549.6" x2="171.27272727272725" y2="553.5" stroke="#000000" stroke-width="0.8" />
<line x1="197.45454545454544" y1="549.6" x2="197.45454545454544" y2="553.5" stroke="#000000" stroke-width="0.8" />
<line x1="249.81818181818178" y1="549.6" x2="249.81818181818178" y2="553.5" stroke="#000000" stroke-width="0.8" />
<line x1="276" y1="549.6" x2="276" y2="553.5" stroke="#000000" stroke-width="0.8" />
<line x1="302.18181818181813" y1="549.6" x2="302.18181818181813" y2="553.5" stroke="#000000" stroke-width="0.8" />
<line x1="328.3636363636364" y1="549.6" x2="328.3636363636364" y2="553.5" stroke="#000000" stroke-width="0.8" />
<line x1="380.72727272727275" y1="549.6" x2="380.72727272727275" y2="553.5" stroke="#000000" stroke-width="0.8" />
<line x1="406.9090909090909" y1="549.6" x2="406.9090909090909" y2="553.5" stroke="#000000" stroke-width="0.8" />
<line x1="433.0909090909091" y1="549.6" x2="433.0909090909091" y2="553.5" stroke="#000000" stroke-width="0.8" />
<line x1="459.27272727272725" y1="549.6" x2="459.27272727272725" y2="553.5" stroke="#000000" stroke-width="0.8" />
<line x1="511.6363636363636" y1="549.6" x2="511.6363636363636" y2="553.5" stroke="#000000" stroke-width="0.8" />
<line x1="537.8181818181819" y1="549.6" x2="537.8181818181819" y2="553.5" stroke="#000000" stroke-width="0.8" />
<line x1="564" y1="549.6" x2="564" y2="553.5" stroke="#000000" stroke-width="0.8" />
<line x1="590.1818181818181" y1="549.6" x2="590.1818181818181" y2="553.5" stroke="#000000" stroke-width="0.8" />
<line x1="642.5454545454545" y1="549.6" x2="642.5454545454545" y2="553.5" stroke="#000000" stroke-width="0.8" />
<line x1="668.7272727272727" y1="549.6" x2="668.7272727272727" y2="553.5" stroke="#000000" stroke-width="0.8" />
<line x1="694.9090909090909" y1="549.6" x2="694.9090909090909" y2="553.5" stroke="#000000" stroke-width="0.8" />
<line x1="721.090909090909" y1="549.6" x2="721.090909090909" y2="553.5" stroke="#000000" stroke-width="0.8" />
<line x1="773.4545454545455" y1="549.6" x2="773.4545454545455" y2="553.5" stroke="#000000" stroke-width="0.8" />
<line x1="524.6818181818181" y1="60" x2="528.5818181818181" y2="60" stroke="#000000" stroke-width="0.8" />
<text x="53.5" y="532.1818181818181" font-family="sans-serif" font-size="13" text-anchor="end" fill="#000000">0</text>
<line x1="437.4090909090909" y1="60" x2="441.30909090909086" y2="60" stroke="#000000" stroke-width="0.8" />
<text x="53.5" y="444.9090909090909" font-family="sans-serif" font-size="13" text-anchor="end" fill="#000000">0.2</text>
<line x1="350.1363636363636" y1="60" x2="354.0363636363636" y2="60" stroke="#000000" stroke-width="0.8" />
<text x="53.5" y="357.6363636363636" font-family="sans-serif" font-size="13" text-anchor="end" fill="#000000">0.4</text>
<line x1="262.8636363636364" y1="60" x2="266.76363636363635" y2="60" stroke="#000000" stroke-width="0.8" />
<text x="53.5" y="270.3636363636364" font-family="sans-serif" font-size="13" text-anchor="end" fill="#000000">0.6</text>
<line x1="175.59090909090907" y1="60" x2="179.49090909090907" y2="60" stroke="#000000" stroke-width="0.8" />
<text x="53.5" y="183.09090909090907" font-family="sans-serif" font-size="13" text-anchor="end" fill="#000000">0.8</text>
<line x1="88.31818181818181" y1="60" x2="92.21818181818182" y2="60" stroke="#000000" stroke-width="0.8" />
<text x="53.5" y="95.81818181818181" font-family="sans-serif" font-size="13" text-anchor="end" fill="#000000">1</text>
<line x1="542.1363636363636" y1="60" x2="546.0363636363636" y2="60" stroke="#000000" stroke-width="0.8" />
<line x1="507.2272727272727" y1="60" x2="511.12727272727267" y2="60" stroke="#000000" stroke-width="0.8" />
<line x1="489.77272727272725" y1="60" x2="493.67272727272723" y2="60" stroke="#000000" stroke-width="0.8" />
<line x1="472.31818181818176" y1="60" x2="476.21818181818173" y2="60" stroke="#000000" stroke-width="0.8" />
<line x1="454.8636363636363" y1="60" x2="458.7636363636363" y2="60" stroke="#000000" stroke-width="0.8" />
<line x1="419.95454545454544" y1="60" x2="423.8545454545454" y2="60" stroke="#000000" stroke-width="0.8" />
<line x1="402.49999999999994" y1="60" x2="406.3999999999999" y2="60" stroke="#000000" stroke-width="0.8" />
<line x1="385.0454545454545" y1="60" x2="388.9454545454545" y2="60" stroke="#000000" stroke-width="0.8" />
<line x1="367.59090909090907" y1="60" x2="371.49090909090904" y2="60" stroke="#000000" stroke-width="0.8" />
<line x1="332.68181818181813" y1="60" x2="336.5818181818181" y2="60" stroke="#000000" stroke-width="0.8" />
<line x1="315.22727272727275" y1="60" x2="319.1272727272727" y2="60" stroke="#000000" stroke-width="0.8" />
<line x1="297.77272727272725" y1="60" x2="301.67272727272723" y2="60" stroke="#000000" stroke-width="0.8" />
<line x1="280.31818181818176" y1="60" x2="284.21818181818173" y2="60" stroke="#000000" stroke-width="0.8" />
<line x1="245.40909090909088" y1="60" x2="249.30909090909088" y2="60" stroke="#000000" stroke-width="0.8" />
<line x1="227.95454545454544" y1="60" x2="231.85454545454544" y2="60" stroke="#000000" stroke-width="0.8" />
<line x1="210.5" y1="60" x2="214.4" y2="60" stroke="#000000" stroke-width="0.8" />
<line x1="193.0454545454545" y1="60" x2="196.9454545454545" y2="60" stroke="#000000" stroke-width="0.8" />
<line x1="158.13636363636363" y1="60" x2="162.03636363636363" y2="60" stroke="#000000" stroke-width="0.8" />
<line x1="140.6818181818182" y1="60" x2="144.5818181818182" y2="60" stroke="#000000" stroke-width="0.8" />
<line x1="123.22727272727269" y1="60" x2="127.1272727272727" y2="60" stroke="#000000" stroke-width="0.8" />
<line x1="105.77272727272731" y1="60" x2="109.67272727272731" y2="60" stroke="#000000" stroke-width="0.8" />
<line x1="70.86363636363632" y1="60" x2="74.76363636363632" y2="60" stroke="#000000" stroke-width="0.8" />
<g class="spine">
<line x1="60" y1="550" x2="780" y2="550" stroke="#000000" stroke-width="0.8" />
</g>
<g class="spine">
<line x1="60" y1="70" x2="60" y2="550" stroke="#000000" stroke-width="0.8" />
</g>
</svg>
