<svg xmlns="http://www.w3.org/2000/svg" viewBox="0 0 800 600" width="800" height="600" style="width:100%;height:auto" role="img" aria-labelledby="chart-title">
<title id="chart-title">Damped Oscillation</title>
<rect x="0" y="0" width="800" height="600" fill="#FFFFFF" />
<path d="M5.00505 -10.4992L5.00505 -2.54183L6.21045 -2.54183Q8.27186 -2.54183 9.35935 -3.5638Q10.4468 -4.58577 10.4468 -6.53364Q10.4468 -8.47276 9.36372 -9.486Q8.2806 -10.4992 6.21045 -10.4992L5.00505 -10.4992ZM1.64214 -13.0411L5.18848 -13.0411Q8.15831 -13.0411 9.61266 -12.6174Q11.067 -12.1938 12.1064 -11.1806Q13.0236 -10.2983 13.4691 -9.14535Q13.9145 -7.99235 13.9146 -6.53364Q13.9145 -5.05745 13.4691 -3.90009Q13.0236 -2.74273 12.1064 -1.86051Q11.0583 -0.847276 9.59082 -0.423638Q8.12337 0 5.18848 0L1.64214 0L1.64214 -13.0411ZM20.7364 -4.40234Q19.7581 -4.40234 19.2646 -4.07042Q18.7711 -3.7385 18.7711 -3.09212Q18.7711 -2.49816 19.1685 -2.16187Q19.566 -1.82558 20.2735 -1.82558Q21.1557 -1.82558 21.7584 -2.45885Q22.3611 -3.09212 22.3611 -4.04422L22.3611 -4.40234L20.7364 -4.40234ZM25.5144 -5.58154L25.5144 0L22.3611 0L22.3611 -1.44998Q21.7322 -0.559028 20.9461 -0.152859Q20.1599 0.253309 19.0331 0.253309Q17.5133 0.253309 16.5656 -0.633274Q15.6178 -1.51986 15.6178 -2.9349Q15.6178 -4.65565 16.8014 -5.45926Q17.985 -6.26286 20.5181 -6.26286L22.3611 -6.26286L22.3611 -6.50743Q22.3611 -7.24989 21.7759 -7.59492Q21.1906 -7.93994 19.9503 -7.93994Q18.9458 -7.93994 18.0811 -7.73904Q17.2163 -7.53814 16.4739 -7.13634L16.4739 -9.52094Q17.4784 -9.76552 18.4916 -9.89217Q19.5048 -10.0188 20.5181 -10.0188Q23.1647 -10.0188 24.3395 -8.97502Q25.5144 -7.93121 25.5144 -5.58154ZM37.5073 -8.15831Q38.1012 -9.06673 38.9179 -9.54278Q39.7346 -10.0188 40.7129 -10.0188Q42.3988 -10.0188 43.281 -8.97938Q44.1632 -7.93994 44.1632 -5.95714L44.1632 0L41.0187 0L41.0187 -5.10113Q41.0274 -5.21468 41.0318 -5.33697Q41.0361 -5.45926 41.0361 -5.68636Q41.0361 -6.7258 40.7304 -7.19312Q40.4247 -7.66043 39.7434 -7.66043Q38.8524 -7.66043 38.3676 -6.9267Q37.8829 -6.19298 37.8654 -4.80414L37.8654 0L34.7209 0L34.7209 -5.10113Q34.7209 -6.7258 34.4414 -7.19312Q34.1618 -7.66043 33.4456 -7.66043Q32.5459 -7.66043 32.0568 -6.92234Q31.5676 -6.18424 31.5676 -4.81288L31.5676 0L28.4231 0L28.4231 -9.78299L31.5676 -9.78299L31.5676 -8.35048Q32.1441 -9.18028 32.8909 -9.59956Q33.6378 -10.0188 34.5374 -10.0188Q35.5507 -10.0188 36.3281 -9.52968Q37.1055 -9.04053 37.5073 -8.15831ZM50.2252 -1.41504L50.2252 3.72103L47.0981 3.72103L47.0981 -9.78299L50.2252 -9.78299L50.2252 -8.35048Q50.8715 -9.20649 51.6577 -9.61266Q52.4438 -10.0188 53.4658 -10.0188Q55.2739 -10.0188 56.4356 -8.58195Q57.5973 -7.14507 57.5973 -4.88276Q57.5973 -2.62044 56.4356 -1.18357Q55.2739 0.253309 53.4658 0.253309Q52.4438 0.253309 51.6577 -0.152859Q50.8715 -0.559028 50.2252 -1.41504ZM52.304 -7.74778Q51.2995 -7.74778 50.7623 -7.00968Q50.2252 -6.27159 50.2252 -4.88276Q50.2252 -3.49392 50.7623 -2.75583Q51.2995 -2.01774 52.304 -2.01774Q53.3085 -2.01774 53.837 -2.75146Q54.3655 -3.48519 54.3655 -4.88276Q54.3655 -6.28033 53.837 -7.01405Q53.3085 -7.74778 52.304 -7.74778ZM69.6863 -4.9177L69.6863 -4.02675L62.3753 -4.02675Q62.4888 -2.92616 63.1701 -2.37587Q63.8515 -1.82558 65.0743 -1.82558Q66.0614 -1.82558 67.0964 -2.11819Q68.1315 -2.41081 69.2234 -3.00477L69.2234 -0.593967Q68.114 -0.174696 67.0047 0.0393066Q65.8954 0.253309 64.7861 0.253309Q62.1307 0.253309 60.6589 -1.09622Q59.1871 -2.44575 59.1871 -4.88276Q59.1871 -7.2761 60.6327 -8.64746Q62.0783 -10.0188 64.6114 -10.0188Q66.9174 -10.0188 68.3018 -8.62999Q69.6863 -7.24116 69.6863 -4.9177ZM66.4719 -5.95714Q66.4719 -6.84809 65.9522 -7.39402Q65.4325 -7.93994 64.5939 -7.93994Q63.6855 -7.93994 63.1177 -7.42896Q62.55 -6.91797 62.4102 -5.95714L66.4719 -5.95714ZM78.7006 -8.35048L78.7006 -13.5914L81.8452 -13.5914L81.8452 0L78.7006 0L78.7006 -1.41504Q78.0543 -0.550293 77.2769 -0.148492Q76.4995 0.253309 75.4775 0.253309Q73.6694 0.253309 72.5077 -1.18357Q71.3459 -2.62044 71.3459 -4.88276Q71.3459 -7.14507 72.5077 -8.58195Q73.6694 -10.0188 75.4775 -10.0188Q76.4907 -10.0188 77.2725 -9.61266Q78.0543 -9.20649 78.7006 -8.35048ZM76.6392 -2.01774Q77.6437 -2.01774 78.1722 -2.75146Q78.7006 -3.48519 78.7006 -4.88276Q78.7006 -6.28033 78.1722 -7.01405Q77.6437 -7.74778 76.6392 -7.74778Q75.6434 -7.74778 75.115 -7.01405Q74.5865 -6.28033 74.5865 -4.88276Q74.5865 -3.48519 75.115 -2.75146Q75.6434 -2.01774 76.6392 -2.01774ZM97.1835 -10.8399Q95.6462 -10.8399 94.7989 -9.70437Q93.9516 -8.56885 93.9516 -6.50743Q93.9516 -4.45475 94.7989 -3.31923Q95.6462 -2.1837 97.1835 -2.1837Q98.7296 -2.1837 99.5768 -3.31923Q100.424 -4.45475 100.424 -6.50743Q100.424 -8.56885 99.5768 -9.70437Q98.7296 -10.8399 97.1835 -10.8399ZM97.1835 -13.2769Q100.328 -13.2769 102.11 -11.4775Q103.892 -9.67817 103.892 -6.50743Q103.892 -3.34543 102.11 -1.54606Q100.328 0.253309 97.1835 0.253309Q94.0477 0.253309 92.2614 -1.54606Q90.4752 -3.34543 90.4752 -6.50743Q90.4752 -9.67817 92.2614 -11.4775Q94.0477 -13.2769 97.1835 -13.2769ZM113.928 -9.47727L113.928 -7.1014Q112.924 -7.52067 111.989 -7.73031Q111.054 -7.93994 110.225 -7.93994Q109.334 -7.93994 108.901 -7.7172Q108.469 -7.49447 108.469 -7.03152Q108.469 -6.65592 108.796 -6.45502Q109.124 -6.25412 109.971 -6.15804L110.522 -6.07943Q112.924 -5.77371 113.753 -5.07492Q114.583 -4.37614 114.583 -2.88249Q114.583 -1.31896 113.43 -0.532823Q112.277 0.253309 109.989 0.253309Q109.019 0.253309 107.984 0.10045Q106.949 -0.0524089 105.857 -0.358127L105.857 -2.734Q106.792 -2.27978 107.774 -2.05268Q108.757 -1.82557 109.77 -1.82558Q110.688 -1.82558 111.15 -2.07888Q111.613 -2.33219 111.613 -2.83008Q111.613 -3.24935 111.295 -3.45462Q110.976 -3.65989 110.024 -3.77344L109.473 -3.84332Q107.386 -4.10536 106.547 -4.81288Q105.709 -5.5204 105.709 -6.96164Q105.709 -8.51644 106.774 -9.26763Q107.84 -10.0188 110.041 -10.0188Q110.906 -10.0188 111.858 -9.8878Q112.81 -9.75678 113.928 -9.47727ZM124.847 -9.47727L124.847 -6.9267Q124.209 -7.36344 123.567 -7.57308Q122.925 -7.78271 122.235 -7.78271Q120.925 -7.78271 120.195 -7.01842Q119.466 -6.25412 119.466 -4.88276Q119.466 -3.51139 120.195 -2.7471Q120.925 -1.9828 122.235 -1.9828Q122.969 -1.9828 123.628 -2.20117Q124.288 -2.41954 124.847 -2.84755L124.847 -0.288249C124.357 -0.107729 123.861 0.0276602 123.357 0.11792Q122.602 0.253309 121.842 0.253309Q119.195 0.253309 117.702 -1.10495Q116.208 -2.46322 116.208 -4.88276Q116.208 -7.3023 117.702 -8.66056Q119.195 -10.0188 121.842 -10.0188Q122.611 -10.0188 123.357 -9.88344Q124.104 -9.74805 124.847 -9.47727ZM127.563 -9.78299L130.69 -9.78299L130.69 0L127.563 0L127.563 -9.78299ZM127.563 -13.5914L130.69 -13.5914L130.69 -11.0408L127.563 -11.0408L127.563 -13.5914ZM133.712 -13.5914L136.84 -13.5914L136.84 0L133.712 0L133.712 -13.5914ZM139.862 -13.5914L142.989 -13.5914L142.989 0L139.862 0L139.862 -13.5914ZM150.396 -4.40234Q149.418 -4.40234 148.924 -4.07042Q148.431 -3.7385 148.431 -3.09212Q148.431 -2.49816 148.828 -2.16187Q149.225 -1.82558 149.933 -1.82558Q150.815 -1.82558 151.418 -2.45885Q152.021 -3.09212 152.021 -4.04422L152.021 -4.40234L150.396 -4.40234ZM155.174 -5.58154L155.174 0L152.021 0L152.021 -1.44998Q151.392 -0.559028 150.606 -0.152859Q149.819 0.253309 148.693 0.253309Q147.173 0.253309 146.225 -0.633274Q145.277 -1.51986 145.277 -2.9349Q145.277 -4.65565 146.461 -5.45926Q147.644 -6.26286 150.178 -6.26286L152.021 -6.26286L152.021 -6.50743Q152.021 -7.24989 151.435 -7.59492Q150.85 -7.93994 149.61 -7.93994Q148.605 -7.93994 147.741 -7.73904Q146.876 -7.53814 146.133 -7.13634L146.133 -9.52094Q147.138 -9.76552 148.151 -9.89217Q149.164 -10.0188 150.178 -10.0188Q152.824 -10.0188 153.999 -8.97502Q155.174 -7.93121 155.174 -5.58154ZM161.515 -12.5607L161.515 -9.78299L164.738 -9.78299L164.738 -7.54688L161.515 -7.54688L161.515 -3.39784Q161.515 -2.71653 161.786 -2.47632Q162.057 -2.23611 162.861 -2.23611L164.468 -2.23611L164.468 0L161.786 0Q159.934 0 159.161 -0.773031Q158.388 -1.54606 158.388 -3.39784L158.388 -7.54688L156.833 -7.54688L156.833 -9.78299L158.388 -9.78299L158.388 -12.5607L161.515 -12.5607ZM166.66 -9.78299L169.787 -9.78299L169.787 0L166.66 0L166.66 -9.78299ZM166.66 -13.5914L169.787 -13.5914L169.787 -11.0408L166.66 -11.0408L166.66 -13.5914ZM177.465 -7.78271Q176.426 -7.78271 175.88 -7.03589Q175.334 -6.28906 175.334 -4.88276Q175.334 -3.47645 175.88 -2.72963Q176.426 -1.9828 177.465 -1.9828Q178.487 -1.9828 179.029 -2.72963Q179.57 -3.47645 179.57 -4.88276Q179.57 -6.28906 179.029 -7.03589Q178.487 -7.78271 177.465 -7.78271ZM177.465 -10.0188Q179.989 -10.0188 181.409 -8.6562Q182.828 -7.29357 182.828 -4.88276Q182.828 -2.47195 181.409 -1.10932Q179.989 0.253309 177.465 0.253309Q174.932 0.253309 173.504 -1.10932Q172.076 -2.47195 172.076 -4.88276Q172.076 -7.29357 173.504 -8.6562Q174.932 -10.0188 177.465 -10.0188ZM194.943 -5.95714L194.943 0L191.799 0L191.799 -0.969564L191.799 -4.55957Q191.799 -5.82612 191.742 -6.30653Q191.685 -6.78695 191.546 -7.01405Q191.362 -7.31977 191.048 -7.4901Q190.733 -7.66043 190.331 -7.66043Q189.353 -7.66043 188.794 -6.90487Q188.235 -6.14931 188.235 -4.81288L188.235 0L185.108 0L185.108 -9.78299L188.235 -9.78299L188.235 -8.35048Q188.943 -9.20649 189.738 -9.61266Q190.532 -10.0188 191.493 -10.0188Q193.188 -10.0188 194.066 -8.97938Q194.943 -7.93994 194.943 -5.95714Z" fill="#262626" transform="translate(400,24.099999999999998) translate(-98.17926025390625,0)" />
<rect x="94.82117801242406" y="41.46666666666667" width="685.1788219875759" height="504.47777777777776" fill="#FFFFFF" />
<line x1="125.96566992095023" y1="545.5444444444445" x2="125.96566992095023" y2="550.8055555555555" stroke="#262626" stroke-width="1.1111111111111112" />
<path d="M4.41488 -9.22309Q3.35693 -9.22309 2.82457 -8.1821Q2.29221 -7.14111 2.29221 -5.05235Q2.29221 -2.97038 2.82457 -1.92939Q3.35693 -0.888401 4.41488 -0.888401Q5.4796 -0.888401 6.01196 -1.92939Q6.54433 -2.97038 6.54433 -5.05235Q6.54433 -7.14111 6.01196 -8.1821Q5.4796 -9.22309 4.41488 -9.22309ZM4.41488 -10.3082Q6.11708 -10.3082 7.01565 -8.962Q7.91422 -7.61583 7.91423 -5.05235Q7.91423 -2.49566 7.01565 -1.1495Q6.11708 0.196669 4.41488 0.196669Q2.71267 0.196669 1.8141 -1.1495Q0.915527 -2.49566 0.915527 -5.05235Q0.915527 -7.61583 1.8141 -8.962Q2.71267 -10.3082 4.41488 -10.3082ZM10.3285 -1.72255L11.7594 -1.72255L11.7594 0L10.3285 0L10.3285 -1.72255ZM17.6799 -9.22309Q16.6219 -9.22309 16.0895 -8.1821Q15.5572 -7.14111 15.5572 -5.05235Q15.5572 -2.97038 16.0895 -1.92939Q16.6219 -0.888401 17.6799 -0.888401Q18.7446 -0.888401 19.2769 -1.92939Q19.8093 -2.97038 19.8093 -5.05235Q19.8093 -7.14111 19.2769 -8.1821Q18.7446 -9.22309 17.6799 -9.22309ZM17.6799 -10.3082Q19.3821 -10.3082 20.2806 -8.962Q21.1792 -7.61583 21.1792 -5.05235Q21.1792 -2.49566 20.2806 -1.1495Q19.3821 0.196669 17.6799 0.196669Q15.9776 0.196669 15.0791 -1.1495Q14.1805 -2.49566 14.1805 -5.05235Q14.1805 -7.61583 15.0791 -8.962Q15.9776 -10.3082 17.6799 -10.3082Z" fill="#262626" transform="translate(125.96566992095023,569.5555555555555) translate(-11.054145812988281,0)" />
<line x1="204.21816215342807" y1="545.5444444444445" x2="204.21816215342807" y2="550.8055555555555" stroke="#262626" stroke-width="1.1111111111111112" />
<path d="M2.6652 -1.15289L7.44629 -1.15289L7.44629 0L1.01725 0L1.01725 -1.15289Q1.79715 -1.95991 3.14331 -3.31963Q4.48947 -4.67936 4.83534 -5.0727Q5.49316 -5.8119 5.75426 -6.32392Q6.01535 -6.83594 6.01535 -7.331Q6.01535 -8.13802 5.44908 -8.64665Q4.88281 -9.15527 3.97407 -9.15527Q3.32981 -9.15527 2.61434 -8.93148Q1.89887 -8.70768 1.08507 -8.25331L1.08507 -9.63677Q1.91243 -9.96908 2.63129 -10.1386Q3.35015 -10.3082 3.94694 -10.3082Q5.52029 -10.3082 6.45616 -9.52148Q7.39204 -8.73481 7.39204 -7.41916Q7.39204 -6.79525 7.15807 -6.23576Q6.9241 -5.67627 6.30697 -4.91672Q6.13742 -4.72005 5.22868 -3.78079Q4.31993 -2.84153 2.6652 -1.15289ZM10.3285 -1.72255L11.7594 -1.72255L11.7594 0L10.3285 0L10.3285 -1.72255ZM14.7637 -10.1251L20.1416 -10.1251L20.1416 -8.97217L16.0183 -8.97217L16.0183 -6.49007Q16.3167 -6.5918 16.6151 -6.64266Q16.9135 -6.69352 17.2119 -6.69352Q18.9073 -6.69352 19.8975 -5.76443Q20.8876 -4.83534 20.8876 -3.24843Q20.8876 -1.61404 19.8703 -0.708686Q18.8531 0.196669 17.0017 0.196669Q16.3642 0.196669 15.703 0.0881619C15.2622 0.0158239 14.8067 -0.092683 14.3365 -0.237359L14.3365 -1.61404Q14.9468 -1.28174 15.5979 -1.11898Q16.2489 -0.956217 16.9746 -0.956217Q18.1478 -0.956217 18.8327 -1.57335Q19.5177 -2.19048 19.5177 -3.24843Q19.5177 -4.30637 18.8327 -4.9235Q18.1478 -5.54064 16.9746 -5.54064Q16.4252 -5.54064 15.8793 -5.41857Q15.3334 -5.2965 14.7637 -5.03879L14.7637 -10.1251Z" fill="#262626" transform="translate(204.21816215342807,569.5555555555555) translate(-11.054145812988281,0)" />
<line x1="282.47065438590585" y1="545.5444444444445" x2="282.47065438590585" y2="550.8055555555555" stroke="#262626" stroke-width="1.1111111111111112" />
<path d="M1.49875 -10.1251L6.87663 -10.1251L6.87663 -8.97217L2.75336 -8.97217L2.75336 -6.49007Q3.05176 -6.5918 3.35015 -6.64266Q3.64855 -6.69352 3.94694 -6.69352Q5.64236 -6.69352 6.63249 -5.76443Q7.62261 -4.83534 7.62261 -3.24843Q7.62261 -1.61404 6.60536 -0.708686Q5.58811 0.196669 3.73671 0.196669Q3.09923 0.196669 2.43802 0.0881619C1.99721 0.0158239 1.5417 -0.092683 1.07151 -0.237359L1.07151 -1.61404Q1.68186 -1.28174 2.3329 -1.11898Q2.98394 -0.956217 3.70958 -0.956217Q4.88281 -0.956217 5.56776 -1.57335Q6.25271 -2.19048 6.25271 -3.24843Q6.25271 -4.30637 5.56776 -4.9235Q4.88281 -5.54064 3.70958 -5.54064Q3.16026 -5.54064 2.61434 -5.41857Q2.06841 -5.2965 1.49875 -5.03879L1.49875 -10.1251ZM10.3285 -1.72255L11.7594 -1.72255L11.7594 0L10.3285 0L10.3285 -1.72255ZM17.6799 -9.22309Q16.6219 -9.22309 16.0895 -8.1821Q15.5572 -7.14111 15.5572 -5.05235Q15.5572 -2.97038 16.0895 -1.92939Q16.6219 -0.888401 17.6799 -0.888401Q18.7446 -0.888401 19.2769 -1.92939Q19.8093 -2.97038 19.8093 -5.05235Q19.8093 -7.14111 19.2769 -8.1821Q18.7446 -9.22309 17.6799 -9.22309ZM17.6799 -10.3082Q19.3821 -10.3082 20.2806 -8.962Q21.1792 -7.61583 21.1792 -5.05235Q21.1792 -2.49566 20.2806 -1.1495Q19.3821 0.196669 17.6799 0.196669Q15.9776 0.196669 15.0791 -1.1495Q14.1805 -2.49566 14.1805 -5.05235Q14.1805 -7.61583 15.0791 -8.962Q15.9776 -10.3082 17.6799 -10.3082Z" fill="#262626" transform="translate(282.47065438590585,569.5555555555555) translate(-11.054145812988281,0)" />
<line x1="360.7231466183837" y1="545.5444444444445" x2="360.7231466183837" y2="550.8055555555555" stroke="#262626" stroke-width="1.1111111111111112" />
<path d="M1.13932 -10.1251L7.64974 -10.1251L7.64974 -9.54183L3.97407 0L2.54313 0L6.00179 -8.97217L1.13932 -8.97217L1.13932 -10.1251ZM10.3285 -1.72255L11.7594 -1.72255L11.7594 0L10.3285 0L10.3285 -1.72255ZM14.7637 -10.1251L20.1416 -10.1251L20.1416 -8.97217L16.0183 -8.97217L16.0183 -6.49007Q16.3167 -6.5918 16.6151 -6.64266Q16.9135 -6.69352 17.2119 -6.69352Q18.9073 -6.69352 19.8975 -5.76443Q20.8876 -4.83534 20.8876 -3.24843Q20.8876 -1.61404 19.8703 -0.708686Q18.8531 0.196669 17.0017 0.196669Q16.3642 0.196669 15.703 0.0881619C15.2622 0.0158239 14.8067 -0.092683 14.3365 -0.237359L14.3365 -1.61404Q14.9468 -1.28174 15.5979 -1.11898Q16.2489 -0.956217 16.9746 -0.956217Q18.1478 -0.956217 18.8327 -1.57335Q19.5177 -2.19048 19.5177 -3.24843Q19.5177 -4.30637 18.8327 -4.9235Q18.1478 -5.54064 16.9746 -5.54064Q16.4252 -5.54064 15.8793 -5.41857Q15.3334 -5.2965 14.7637 -5.03879L14.7637 -10.1251Z" fill="#262626" transform="translate(360.7231466183837,569.5555555555555) translate(-11.054145812988281,0)" />
<line x1="438.9756388508615" y1="545.5444444444445" x2="438.9756388508615" y2="550.8055555555555" stroke="#262626" stroke-width="1.1111111111111112" />
<path d="M1.72255 -1.15289L3.9605 -1.15289L3.9605 -8.87722L1.52588 -8.38894L1.52588 -9.63677L3.94694 -10.1251L5.31684 -10.1251L5.31684 -1.15289L7.5548 -1.15289L7.5548 0L1.72255 0L1.72255 -1.15289ZM13.2582 -9.22309Q12.2002 -9.22309 11.6679 -8.1821Q11.1355 -7.14111 11.1355 -5.05235Q11.1355 -2.97038 11.6679 -1.92939Q12.2002 -0.888401 13.2582 -0.888401Q14.3229 -0.888401 14.8553 -1.92939Q15.3876 -2.97038 15.3876 -5.05235Q15.3876 -7.14111 14.8553 -8.1821Q14.3229 -9.22309 13.2582 -9.22309ZM13.2582 -10.3082Q14.9604 -10.3082 15.859 -8.962Q16.7575 -7.61583 16.7575 -5.05235Q16.7575 -2.49566 15.859 -1.1495Q14.9604 0.196669 13.2582 0.196669Q11.556 0.196669 10.6574 -1.1495Q9.75884 -2.49566 9.75884 -5.05235Q9.75884 -7.61583 10.6574 -8.962Q11.556 -10.3082 13.2582 -10.3082ZM19.1718 -1.72255L20.6028 -1.72255L20.6028 0L19.1718 0L19.1718 -1.72255ZM26.5232 -9.22309Q25.4652 -9.22309 24.9329 -8.1821Q24.4005 -7.14111 24.4005 -5.05235Q24.4005 -2.97038 24.9329 -1.92939Q25.4652 -0.888401 26.5232 -0.888401Q27.5879 -0.888401 28.1203 -1.92939Q28.6526 -2.97038 28.6526 -5.05235Q28.6526 -7.14111 28.1203 -8.1821Q27.5879 -9.22309 26.5232 -9.22309ZM26.5232 -10.3082Q28.2254 -10.3082 29.1239 -8.962Q30.0225 -7.61583 30.0225 -5.05235Q30.0225 -2.49566 29.1239 -1.1495Q28.2254 0.196669 26.5232 0.196669Q24.821 0.196669 23.9224 -1.1495Q23.0238 -2.49566 23.0238 -5.05235Q23.0238 -7.61583 23.9224 -8.962Q24.821 -10.3082 26.5232 -10.3082Z" fill="#262626" transform="translate(438.9756388508615,569.5555555555555) translate(-15.47580337524414,0)" />
<line x1="517.2281310833393" y1="545.5444444444445" x2="517.2281310833393" y2="550.8055555555555" stroke="#262626" stroke-width="1.1111111111111112" />
<path d="M1.72255 -1.15289L3.9605 -1.15289L3.9605 -8.87722L1.52588 -8.38894L1.52588 -9.63677L3.94694 -10.1251L5.31684 -10.1251L5.31684 -1.15289L7.5548 -1.15289L7.5548 0L1.72255 0L1.72255 -1.15289ZM11.5085 -1.15289L16.2896 -1.15289L16.2896 0L9.86057 0L9.86057 -1.15289Q10.6405 -1.95991 11.9866 -3.31963Q13.3328 -4.67936 13.6787 -5.0727Q14.3365 -5.8119 14.5976 -6.32392Q14.8587 -6.83594 14.8587 -7.331Q14.8587 -8.13802 14.2924 -8.64665Q13.7261 -9.15527 12.8174 -9.15527Q12.1731 -9.15527 11.4577 -8.93148Q10.7422 -8.70768 9.92839 -8.25331L9.92839 -9.63677Q10.7558 -9.96908 11.4746 -10.1386Q12.1935 -10.3082 12.7903 -10.3082Q14.3636 -10.3082 15.2995 -9.52148Q16.2354 -8.73481 16.2354 -7.41916Q16.2354 -6.79525 16.0014 -6.23576Q15.7674 -5.67627 15.1503 -4.91672Q14.9807 -4.72005 14.072 -3.78079Q13.1632 -2.84153 11.5085 -1.15289ZM19.1718 -1.72255L20.6028 -1.72255L20.6028 0L19.1718 0L19.1718 -1.72255ZM23.607 -10.1251L28.9849 -10.1251L28.9849 -8.97217L24.8617 -8.97217L24.8617 -6.49007Q25.16 -6.5918 25.4584 -6.64266Q25.7568 -6.69352 26.0552 -6.69352Q27.7507 -6.69352 28.7408 -5.76443Q29.7309 -4.83534 29.7309 -3.24843Q29.7309 -1.61404 28.7136 -0.708686Q27.6964 0.196669 25.845 0.196669Q25.2075 0.196669 24.5463 0.0881619C24.1055 0.0158239 23.65 -0.092683 23.1798 -0.237359L23.1798 -1.61404Q23.7901 -1.28174 24.4412 -1.11898Q25.0922 -0.956217 25.8179 -0.956217Q26.9911 -0.956217 27.6761 -1.57335Q28.361 -2.19048 28.361 -3.24843Q28.361 -4.30637 27.6761 -4.9235Q26.9911 -5.54064 25.8179 -5.54064Q25.2686 -5.54064 24.7226 -5.41857Q24.1767 -5.2965 23.607 -5.03879L23.607 -10.1251Z" fill="#262626" transform="translate(517.2281310833393,569.5555555555555) translate(-15.47580337524414,0)" />
<line x1="595.4806233158172" y1="545.5444444444445" x2="595.4806233158172" y2="550.8055555555555" stroke="#262626" stroke-width="1.1111111111111112" />
<path d="M1.72255 -1.15289L3.9605 -1.15289L3.9605 -8.87722L1.52588 -8.38894L1.52588 -9.63677L3.94694 -10.1251L5.31684 -10.1251L5.31684 -1.15289L7.5548 -1.15289L7.5548 0L1.72255 0L1.72255 -1.15289ZM10.3421 -10.1251L15.7199 -10.1251L15.7199 -8.97217L11.5967 -8.97217L11.5967 -6.49007Q11.8951 -6.5918 12.1935 -6.64266Q12.4919 -6.69352 12.7903 -6.69352Q14.4857 -6.69352 15.4758 -5.76443Q16.4659 -4.83534 16.4659 -3.24843Q16.4659 -1.61404 15.4487 -0.708686Q14.4314 0.196669 12.58 0.196669Q11.9425 0.196669 11.2813 0.0881619C10.8405 0.0158239 10.385 -0.092683 9.91482 -0.237359L9.91482 -1.61404Q10.5252 -1.28174 11.1762 -1.11898Q11.8273 -0.956217 12.5529 -0.956217Q13.7261 -0.956217 14.4111 -1.57335Q15.096 -2.19048 15.096 -3.24843Q15.096 -4.30637 14.4111 -4.9235Q13.7261 -5.54064 12.5529 -5.54064Q12.0036 -5.54064 11.4577 -5.41857Q10.9117 -5.2965 10.3421 -5.03879L10.3421 -10.1251ZM19.1718 -1.72255L20.6028 -1.72255L20.6028 0L19.1718 0L19.1718 -1.72255ZM26.5232 -9.22309Q25.4652 -9.22309 24.9329 -8.1821Q24.4005 -7.14111 24.4005 -5.05235Q24.4005 -2.97038 24.9329 -1.92939Q25.4652 -0.888401 26.5232 -0.888401Q27.5879 -0.888401 28.1203 -1.92939Q28.6526 -2.97038 28.6526 -5.05235Q28.6526 -7.14111 28.1203 -8.1821Q27.5879 -9.22309 26.5232 -9.22309ZM26.5232 -10.3082Q28.2254 -10.3082 29.1239 -8.962Q30.0225 -7.61583 30.0225 -5.05235Q30.0225 -2.49566 29.1239 -1.1495Q28.2254 0.196669 26.5232 0.196669Q24.821 0.196669 23.9224 -1.1495Q23.0238 -2.49566 23.0238 -5.05235Q23.0238 -7.61583 23.9224 -8.962Q24.821 -10.3082 26.5232 -10.3082Z" fill="#262626" transform="translate(595.4806233158172,569.5555555555555) translate(-15.47580337524414,0)" />
<line x1="673.733115548295" y1="545.5444444444445" x2="673.733115548295" y2="550.8055555555555" stroke="#262626" stroke-width="1.1111111111111112" />
<path d="M1.72255 -1.15289L3.9605 -1.15289L3.9605 -8.87722L1.52588 -8.38894L1.52588 -9.63677L3.94694 -10.1251L5.31684 -10.1251L5.31684 -1.15289L7.5548 -1.15289L7.5548 0L1.72255 0L1.72255 -1.15289ZM9.98264 -10.1251L16.4931 -10.1251L16.4931 -9.54183L12.8174 0L11.3864 0L14.8451 -8.97217L9.98264 -8.97217L9.98264 -10.1251ZM19.1718 -1.72255L20.6028 -1.72255L20.6028 0L19.1718 0L19.1718 -1.72255ZM23.607 -10.1251L28.9849 -10.1251L28.9849 -8.97217L24.8617 -8.97217L24.8617 -6.49007Q25.16 -6.5918 25.4584 -6.64266Q25.7568 -6.69352 26.0552 -6.69352Q27.7507 -6.69352 28.7408 -5.76443Q29.7309 -4.83534 29.7309 -3.24843Q29.7309 -1.61404 28.7136 -0.708686Q27.6964 0.196669 25.845 0.196669Q25.2075 0.196669 24.5463 0.0881619C24.1055 0.0158239 23.65 -0.092683 23.1798 -0.237359L23.1798 -1.61404Q23.7901 -1.28174 24.4412 -1.11898Q25.0922 -0.956217 25.8179 -0.956217Q26.9911 -0.956217 27.6761 -1.57335Q28.361 -2.19048 28.361 -3.24843Q28.361 -4.30637 27.6761 -4.9235Q26.9911 -5.54064 25.8179 -5.54064Q25.2686 -5.54064 24.7226 -5.41857Q24.1767 -5.2965 23.607 -5.03879L23.607 -10.1251Z" fill="#262626" transform="translate(673.733115548295,569.5555555555555) translate(-15.47580337524414,0)" />
<line x1="751.9856077807729" y1="545.5444444444445" x2="751.9856077807729" y2="550.8055555555555" stroke="#262626" stroke-width="1.1111111111111112" />
<path d="M2.6652 -1.15289L7.44629 -1.15289L7.44629 0L1.01725 0L1.01725 -1.15289Q1.79715 -1.95991 3.14331 -3.31963Q4.48947 -4.67936 4.83534 -5.0727Q5.49316 -5.8119 5.75426 -6.32392Q6.01535 -6.83594 6.01535 -7.331Q6.01535 -8.13802 5.44908 -8.64665Q4.88281 -9.15527 3.97407 -9.15527Q3.32981 -9.15527 2.61434 -8.93148Q1.89887 -8.70768 1.08507 -8.25331L1.08507 -9.63677Q1.91243 -9.96908 2.63129 -10.1386Q3.35015 -10.3082 3.94694 -10.3082Q5.52029 -10.3082 6.45616 -9.52148Q7.39204 -8.73481 7.39204 -7.41916Q7.39204 -6.79525 7.15807 -6.23576Q6.9241 -5.67627 6.30697 -4.91672Q6.13742 -4.72005 5.22868 -3.78079Q4.31993 -2.84153 2.6652 -1.15289ZM13.2582 -9.22309Q12.2002 -9.22309 11.6679 -8.1821Q11.1355 -7.14111 11.1355 -5.05235Q11.1355 -2.97038 11.6679 -1.92939Q12.2002 -0.888401 13.2582 -0.888401Q14.3229 -0.888401 14.8553 -1.92939Q15.3876 -2.97038 15.3876 -5.05235Q15.3876 -7.14111 14.8553 -8.1821Q14.3229 -9.22309 13.2582 -9.22309ZM13.2582 -10.3082Q14.9604 -10.3082 15.859 -8.962Q16.7575 -7.61583 16.7575 -5.05235Q16.7575 -2.49566 15.859 -1.1495Q14.9604 0.196669 13.2582 0.196669Q11.556 0.196669 10.6574 -1.1495Q9.75884 -2.49566 9.75884 -5.05235Q9.75884 -7.61583 10.6574 -8.962Q11.556 -10.3082 13.2582 -10.3082ZM19.1718 -1.72255L20.6028 -1.72255L20.6028 0L19.1718 0L19.1718 -1.72255ZM26.5232 -9.22309Q25.4652 -9.22309 24.9329 -8.1821Q24.4005 -7.14111 24.4005 -5.05235Q24.4005 -2.97038 24.9329 -1.92939Q25.4652 -0.888401 26.5232 -0.888401Q27.5879 -0.888401 28.1203 -1.92939Q28.6526 -2.97038 28.6526 -5.05235Q28.6526 -7.14111 28.1203 -8.1821Q27.5879 -9.22309 26.5232 -9.22309ZM26.5232 -10.3082Q28.2254 -10.3082 29.1239 -8.962Q30.0225 -7.61583 30.0225 -5.05235Q30.0225 -2.49566 29.1239 -1.1495Q28.2254 0.196669 26.5232 0.196669Q24.821 0.196669 23.9224 -1.1495Q23.0238 -2.49566 23.0238 -5.05235Q23.0238 -7.61583 23.9224 -8.962Q24.821 -10.3082 26.5232 -10.3082Z" fill="#262626" transform="translate(751.9856077807729,569.5555555555555) translate(-15.47580337524414,0)" />
<line x1="89.96006690131294" y1="545.9444444444445" x2="95.22117801242406" y2="545.9444444444445" stroke="#262626" stroke-width="1.1111111111111112" />
<path d="M0.678168 -4.36062L4.3335 -4.36062L4.3335 -3.24843L0.678168 -3.24843L0.678168 -4.36062ZM6.74099 -1.15289L8.97895 -1.15289L8.97895 -8.87722L6.54433 -8.38894L6.54433 -9.63677L8.96539 -10.1251L10.3353 -10.1251L10.3353 -1.15289L12.5732 -1.15289L12.5732 0L6.74099 0L6.74099 -1.15289ZM15.347 -1.72255L16.7779 -1.72255L16.7779 0L15.347 0L15.347 -1.72255ZM22.6983 -9.22309Q21.6404 -9.22309 21.108 -8.1821Q20.5756 -7.14111 20.5756 -5.05235Q20.5756 -2.97038 21.108 -1.92939Q21.6404 -0.888401 22.6983 -0.888401Q23.763 -0.888401 24.2954 -1.92939Q24.8277 -2.97038 24.8277 -5.05235Q24.8277 -7.14111 24.2954 -8.1821Q23.763 -9.22309 22.6983 -9.22309ZM22.6983 -10.3082Q24.4005 -10.3082 25.2991 -8.962Q26.1976 -7.61583 26.1976 -5.05235Q26.1976 -2.49566 25.2991 -1.1495Q24.4005 0.196669 22.6983 0.196669Q20.9961 0.196669 20.0975 -1.1495Q19.1989 -2.49566 19.1989 -5.05235Q19.1989 -7.61583 20.0975 -8.962Q20.9961 -10.3082 22.6983 -10.3082ZM31.5416 -9.22309Q30.4837 -9.22309 29.9513 -8.1821Q29.4189 -7.14111 29.4189 -5.05235Q29.4189 -2.97038 29.9513 -1.92939Q30.4837 -0.888401 31.5416 -0.888401Q32.6063 -0.888401 33.1387 -1.92939Q33.6711 -2.97038 33.6711 -5.05235Q33.6711 -7.14111 33.1387 -8.1821Q32.6063 -9.22309 31.5416 -9.22309ZM31.5416 -10.3082Q33.2438 -10.3082 34.1424 -8.962Q35.041 -7.61583 35.041 -5.05235Q35.041 -2.49566 34.1424 -1.1495Q33.2438 0.196669 31.5416 0.196669Q29.8394 0.196669 28.9408 -1.1495Q28.0423 -2.49566 28.0423 -5.05235Q28.0423 -7.61583 28.9408 -8.962Q29.8394 -10.3082 31.5416 -10.3082Z" fill="#262626" transform="translate(85.09895579020183,549.9444444444445) translate(-35.97005081176758,0)" />
<line x1="89.96006690131294" y1="485.58653113834225" x2="95.22117801242406" y2="485.58653113834225" stroke="#262626" stroke-width="1.1111111111111112" />
<path d="M0.678168 -4.36062L4.3335 -4.36062L4.3335 -3.24843L0.678168 -3.24843L0.678168 -4.36062ZM9.43332 -9.22309Q8.37538 -9.22309 7.84302 -8.1821Q7.31066 -7.14111 7.31066 -5.05235Q7.31066 -2.97038 7.84302 -1.92939Q8.37538 -0.888401 9.43332 -0.888401Q10.498 -0.888401 11.0304 -1.92939Q11.5628 -2.97038 11.5628 -5.05235Q11.5628 -7.14111 11.0304 -8.1821Q10.498 -9.22309 9.43332 -9.22309ZM9.43332 -10.3082Q11.1355 -10.3082 12.0341 -8.962Q12.9327 -7.61583 12.9327 -5.05235Q12.9327 -2.49566 12.0341 -1.1495Q11.1355 0.196669 9.43332 0.196669Q7.73112 0.196669 6.83255 -1.1495Q5.93397 -2.49566 5.93397 -5.05235Q5.93397 -7.61583 6.83255 -8.962Q7.73112 -10.3082 9.43332 -10.3082ZM15.347 -1.72255L16.7779 -1.72255L16.7779 0L15.347 0L15.347 -1.72255ZM19.4227 -10.1251L25.9332 -10.1251L25.9332 -9.54183L22.2575 0L20.8266 0L24.2852 -8.97217L19.4227 -8.97217L19.4227 -10.1251ZM28.6255 -10.1251L34.0034 -10.1251L34.0034 -8.97217L29.8801 -8.97217L29.8801 -6.49007Q30.1785 -6.5918 30.4769 -6.64266Q30.7753 -6.69352 31.0737 -6.69352Q32.7691 -6.69352 33.7592 -5.76443Q34.7493 -4.83534 34.7493 -3.24843Q34.7493 -1.61404 33.7321 -0.708686Q32.7148 0.196669 30.8634 0.196669Q30.226 0.196669 29.5648 0.0881619C29.1239 0.0158239 28.6684 -0.092683 28.1982 -0.237359L28.1982 -1.61404Q28.8086 -1.28174 29.4596 -1.11898Q30.1107 -0.956217 30.8363 -0.956217Q32.0095 -0.956217 32.6945 -1.57335Q33.3794 -2.19048 33.3794 -3.24843Q33.3794 -4.30637 32.6945 -4.9235Q32.0095 -5.54064 30.8363 -5.54064Q30.287 -5.54064 29.7411 -5.41857Q29.1951 -5.2965 28.6255 -5.03879L28.6255 -10.1251Z" fill="#262626" transform="translate(85.09895579020183,489.58653113834225) translate(-35.97005081176758,0)" />
<line x1="89.96006690131294" y1="425.22861783224005" x2="95.22117801242406" y2="425.22861783224005" stroke="#262626" stroke-width="1.1111111111111112" />
<path d="M0.678168 -4.36062L4.3335 -4.36062L4.3335 -3.24843L0.678168 -3.24843L0.678168 -4.36062ZM9.43332 -9.22309Q8.37538 -9.22309 7.84302 -8.1821Q7.31066 -7.14111 7.31066 -5.05235Q7.31066 -2.97038 7.84302 -1.92939Q8.37538 -0.888401 9.43332 -0.888401Q10.498 -0.888401 11.0304 -1.92939Q11.5628 -2.97038 11.5628 -5.05235Q11.5628 -7.14111 11.0304 -8.1821Q10.498 -9.22309 9.43332 -9.22309ZM9.43332 -10.3082Q11.1355 -10.3082 12.0341 -8.962Q12.9327 -7.61583 12.9327 -5.05235Q12.9327 -2.49566 12.0341 -1.1495Q11.1355 0.196669 9.43332 0.196669Q7.73112 0.196669 6.83255 -1.1495Q5.93397 -2.49566 5.93397 -5.05235Q5.93397 -7.61583 6.83255 -8.962Q7.73112 -10.3082 9.43332 -10.3082ZM15.347 -1.72255L16.7779 -1.72255L16.7779 0L15.347 0L15.347 -1.72255ZM19.7822 -10.1251L25.16 -10.1251L25.16 -8.97217L21.0368 -8.97217L21.0368 -6.49007Q21.3352 -6.5918 21.6336 -6.64266Q21.932 -6.69352 22.2304 -6.69352Q23.9258 -6.69352 24.9159 -5.76443Q25.906 -4.83534 25.906 -3.24843Q25.906 -1.61404 24.8888 -0.708686Q23.8715 0.196669 22.0201 0.196669Q21.3827 0.196669 20.7214 0.0881619C20.2806 0.0158239 19.8251 -0.092683 19.3549 -0.237359L19.3549 -1.61404Q19.9653 -1.28174 20.6163 -1.11898Q21.2674 -0.956217 21.993 -0.956217Q23.1662 -0.956217 23.8512 -1.57335Q24.5361 -2.19048 24.5361 -3.24843Q24.5361 -4.30637 23.8512 -4.9235Q23.1662 -5.54064 21.993 -5.54064Q21.4437 -5.54064 20.8978 -5.41857Q20.3518 -5.2965 19.7822 -5.03879L19.7822 -10.1251ZM31.5416 -9.22309Q30.4837 -9.22309 29.9513 -8.1821Q29.4189 -7.14111 29.4189 -5.05235Q29.4189 -2.97038 29.9513 -1.92939Q30.4837 -0.888401 31.5416 -0.888401Q32.6063 -0.888401 33.1387 -1.92939Q33.6711 -2.97038 33.6711 -5.05235Q33.6711 -7.14111 33.1387 -8.1821Q32.6063 -9.22309 31.5416 -9.22309ZM31.5416 -10.3082Q33.2438 -10.3082 34.1424 -8.962Q35.041 -7.61583 35.041 -5.05235Q35.041 -2.49566 34.1424 -1.1495Q33.2438 0.196669 31.5416 0.196669Q29.8394 0.196669 28.9408 -1.1495Q28.0423 -2.49566 28.0423 -5.05235Q28.0423 -7.61583 28.9408 -8.962Q29.8394 -10.3082 31.5416 -10.3082Z" fill="#262626" transform="translate(85.09895579020183,429.22861783224005) translate(-35.97005081176758,0)" />
<line x1="89.96006690131294" y1="364.8707045261378" x2="95.22117801242406" y2="364.8707045261378" stroke="#262626" stroke-width="1.1111111111111112" />
<path d="M0.678168 -4.36062L4.3335 -4.36062L4.3335 -3.24843L0.678168 -3.24843L0.678168 -4.36062ZM9.43332 -9.22309Q8.37538 -9.22309 7.84302 -8.1821Q7.31066 -7.14111 7.31066 -5.05235Q7.31066 -2.97038 7.84302 -1.92939Q8.37538 -0.888401 9.43332 -0.888401Q10.498 -0.888401 11.0304 -1.92939Q11.5628 -2.97038 11.5628 -5.05235Q11.5628 -7.14111 11.0304 -8.1821Q10.498 -9.22309 9.43332 -9.22309ZM9.43332 -10.3082Q11.1355 -10.3082 12.0341 -8.962Q12.9327 -7.61583 12.9327 -5.05235Q12.9327 -2.49566 12.0341 -1.1495Q11.1355 0.196669 9.43332 0.196669Q7.73112 0.196669 6.83255 -1.1495Q5.93397 -2.49566 5.93397 -5.05235Q5.93397 -7.61583 6.83255 -8.962Q7.73112 -10.3082 9.43332 -10.3082ZM15.347 -1.72255L16.7779 -1.72255L16.7779 0L15.347 0L15.347 -1.72255ZM20.9486 -1.15289L25.7297 -1.15289L25.7297 0L19.3007 0L19.3007 -1.15289Q20.0806 -1.95991 21.4267 -3.31963Q22.7729 -4.67936 23.1188 -5.0727Q23.7766 -5.8119 24.0377 -6.32392Q24.2988 -6.83594 24.2988 -7.331Q24.2988 -8.13802 23.7325 -8.64665Q23.1662 -9.15527 22.2575 -9.15527Q21.6132 -9.15527 20.8978 -8.93148Q20.1823 -8.70768 19.3685 -8.25331L19.3685 -9.63677Q20.1959 -9.96908 20.9147 -10.1386Q21.6336 -10.3082 22.2304 -10.3082Q23.8037 -10.3082 24.7396 -9.52148Q25.6755 -8.73481 25.6755 -7.41916Q25.6755 -6.79525 25.4415 -6.23576Q25.2075 -5.67627 24.5904 -4.91672Q24.4208 -4.72005 23.5121 -3.78079Q22.6034 -2.84153 20.9486 -1.15289ZM28.6255 -10.1251L34.0034 -10.1251L34.0034 -8.97217L29.8801 -8.97217L29.8801 -6.49007Q30.1785 -6.5918 30.4769 -6.64266Q30.7753 -6.69352 31.0737 -6.69352Q32.7691 -6.69352 33.7592 -5.76443Q34.7493 -4.83534 34.7493 -3.24843Q34.7493 -1.61404 33.7321 -0.708686Q32.7148 0.196669 30.8634 0.196669Q30.226 0.196669 29.5648 0.0881619C29.1239 0.0158239 28.6684 -0.092683 28.1982 -0.237359L28.1982 -1.61404Q28.8086 -1.28174 29.4596 -1.11898Q30.1107 -0.956217 30.8363 -0.956217Q32.0095 -0.956217 32.6945 -1.57335Q33.3794 -2.19048 33.3794 -3.24843Q33.3794 -4.30637 32.6945 -4.9235Q32.0095 -5.54064 30.8363 -5.54064Q30.287 -5.54064 29.7411 -5.41857Q29.1951 -5.2965 28.6255 -5.03879L28.6255 -10.1251Z" fill="#262626" transform="translate(85.09895579020183,368.8707045261378) translate(-35.97005081176758,0)" />
<line x1="89.96006690131294" y1="304.5127912200356" x2="95.22117801242406" y2="304.5127912200356" stroke="#262626" stroke-width="1.1111111111111112" />
<path d="M4.41488 -9.22309Q3.35693 -9.22309 2.82457 -8.1821Q2.29221 -7.14111 2.29221 -5.05235Q2.29221 -2.97038 2.82457 -1.92939Q3.35693 -0.888401 4.41488 -0.888401Q5.4796 -0.888401 6.01196 -1.92939Q6.54433 -2.97038 6.54433 -5.05235Q6.54433 -7.14111 6.01196 -8.1821Q5.4796 -9.22309 4.41488 -9.22309ZM4.41488 -10.3082Q6.11708 -10.3082 7.01565 -8.962Q7.91422 -7.61583 7.91423 -5.05235Q7.91423 -2.49566 7.01565 -1.1495Q6.11708 0.196669 4.41488 0.196669Q2.71267 0.196669 1.8141 -1.1495Q0.915527 -2.49566 0.915527 -5.05235Q0.915527 -7.61583 1.8141 -8.962Q2.71267 -10.3082 4.41488 -10.3082ZM10.3285 -1.72255L11.7594 -1.72255L11.7594 0L10.3285 0L10.3285 -1.72255ZM17.6799 -9.22309Q16.6219 -9.22309 16.0895 -8.1821Q15.5572 -7.14111 15.5572 -5.05235Q15.5572 -2.97038 16.0895 -1.92939Q16.6219 -0.888401 17.6799 -0.888401Q18.7446 -0.888401 19.2769 -1.92939Q19.8093 -2.97038 19.8093 -5.05235Q19.8093 -7.14111 19.2769 -8.1821Q18.7446 -9.22309 17.6799 -9.22309ZM17.6799 -10.3082Q19.3821 -10.3082 20.2806 -8.962Q21.1792 -7.61583 21.1792 -5.05235Q21.1792 -2.49566 20.2806 -1.1495Q19.3821 0.196669 17.6799 0.196669Q15.9776 0.196669 15.0791 -1.1495Q14.1805 -2.49566 14.1805 -5.05235Q14.1805 -7.61583 15.0791 -8.962Q15.9776 -10.3082 17.6799 -10.3082ZM26.5232 -9.22309Q25.4652 -9.22309 24.9329 -8.1821Q24.4005 -7.14111 24.4005 -5.05235Q24.4005 -2.97038 24.9329 -1.92939Q25.4652 -0.888401 26.5232 -0.888401Q27.5879 -0.888401 28.1203 -1.92939Q28.6526 -2.97038 28.6526 -5.05235Q28.6526 -7.14111 28.1203 -8.1821Q27.5879 -9.22309 26.5232 -9.22309ZM26.5232 -10.3082Q28.2254 -10.3082 29.1239 -8.962Q30.0225 -7.61583 30.0225 -5.05235Q30.0225 -2.49566 29.1239 -1.1495Q28.2254 0.196669 26.5232 0.196669Q24.821 0.196669 23.9224 -1.1495Q23.0238 -2.49566 23.0238 -5.05235Q23.0238 -7.61583 23.9224 -8.962Q24.821 -10.3082 26.5232 -10.3082Z" fill="#262626" transform="translate(85.09895579020183,308.5127912200356) translate(-30.95160675048828,0)" />
<line x1="89.96006690131294" y1="244.15487791393338" x2="95.22117801242406" y2="244.15487791393338" stroke="#262626" stroke-width="1.1111111111111112" />
<path d="M4.41488 -9.22309Q3.35693 -9.22309 2.82457 -8.1821Q2.29221 -7.14111 2.29221 -5.05235Q2.29221 -2.97038 2.82457 -1.92939Q3.35693 -0.888401 4.41488 -0.888401Q5.4796 -0.888401 6.01196 -1.92939Q6.54433 -2.97038 6.54433 -5.05235Q6.54433 -7.14111 6.01196 -8.1821Q5.4796 -9.22309 4.41488 -9.22309ZM4.41488 -10.3082Q6.11708 -10.3082 7.01565 -8.962Q7.91422 -7.61583 7.91423 -5.05235Q7.91423 -2.49566 7.01565 -1.1495Q6.11708 0.196669 4.41488 0.196669Q2.71267 0.196669 1.8141 -1.1495Q0.915527 -2.49566 0.915527 -5.05235Q0.915527 -7.61583 1.8141 -8.962Q2.71267 -10.3082 4.41488 -10.3082ZM10.3285 -1.72255L11.7594 -1.72255L11.7594 0L10.3285 0L10.3285 -1.72255ZM15.9302 -1.15289L20.7113 -1.15289L20.7113 0L14.2822 0L14.2822 -1.15289Q15.0621 -1.95991 16.4083 -3.31963Q17.7544 -4.67936 18.1003 -5.0727Q18.7581 -5.8119 19.0192 -6.32392Q19.2803 -6.83594 19.2803 -7.331Q19.2803 -8.13802 18.7141 -8.64665Q18.1478 -9.15527 17.239 -9.15527Q16.5948 -9.15527 15.8793 -8.93148Q15.1638 -8.70768 14.35 -8.25331L14.35 -9.63677Q15.1774 -9.96908 15.8963 -10.1386Q16.6151 -10.3082 17.2119 -10.3082Q18.7853 -10.3082 19.7211 -9.52148Q20.657 -8.73481 20.657 -7.41916Q20.657 -6.79525 20.423 -6.23576Q20.1891 -5.67627 19.5719 -4.91672Q19.4024 -4.72005 18.4937 -3.78079Q17.5849 -2.84153 15.9302 -1.15289ZM23.607 -10.1251L28.9849 -10.1251L28.9849 -8.97217L24.8617 -8.97217L24.8617 -6.49007Q25.16 -6.5918 25.4584 -6.64266Q25.7568 -6.69352 26.0552 -6.69352Q27.7507 -6.69352 28.7408 -5.76443Q29.7309 -4.83534 29.7309 -3.24843Q29.7309 -1.61404 28.7137 -0.708686Q27.6964 0.196669 25.845 0.196669Q25.2075 0.196669 24.5463 0.0881619C24.1055 0.0158239 23.65 -0.092683 23.1798 -0.237359L23.1798 -1.61404Q23.7901 -1.28174 24.4412 -1.11898Q25.0922 -0.956217 25.8179 -0.956217Q26.9911 -0.956217 27.6761 -1.57335Q28.361 -2.19048 28.361 -3.24843Q28.361 -4.30637 27.6761 -4.9235Q26.9911 -5.54064 25.8179 -5.54064Q25.2686 -5.54064 24.7226 -5.41857Q24.1767 -5.2965 23.607 -5.03879L23.607 -10.1251Z" fill="#262626" transform="translate(85.09895579020183,248.15487791393338) translate(-30.95160675048828,0)" />
<line x1="89.96006690131294" y1="183.79696460783114" x2="95.22117801242406" y2="183.79696460783114" stroke="#262626" stroke-width="1.1111111111111112" />
<path d="M4.41488 -9.22309Q3.35693 -9.22309 2.82457 -8.1821Q2.29221 -7.14111 2.29221 -5.05235Q2.29221 -2.97038 2.82457 -1.92939Q3.35693 -0.888401 4.41488 -0.888401Q5.4796 -0.888401 6.01196 -1.92939Q6.54433 -2.97038 6.54433 -5.05235Q6.54433 -7.14111 6.01196 -8.1821Q5.4796 -9.22309 4.41488 -9.22309ZM4.41488 -10.3082Q6.11708 -10.3082 7.01565 -8.962Q7.91422 -7.61583 7.91423 -5.05235Q7.91423 -2.49566 7.01565 -1.1495Q6.11708 0.196669 4.41488 0.196669Q2.71267 0.196669 1.8141 -1.1495Q0.915527 -2.49566 0.915527 -5.05235Q0.915527 -7.61583 1.8141 -8.962Q2.71267 -10.3082 4.41488 -10.3082ZM10.3285 -1.72255L11.7594 -1.72255L11.7594 0L10.3285 0L10.3285 -1.72255ZM14.7637 -10.1251L20.1416 -10.1251L20.1416 -8.97217L16.0183 -8.97217L16.0183 -6.49007Q16.3167 -6.5918 16.6151 -6.64266Q16.9135 -6.69352 17.2119 -6.69352Q18.9073 -6.69352 19.8975 -5.76443Q20.8876 -4.83534 20.8876 -3.24843Q20.8876 -1.61404 19.8703 -0.708686Q18.8531 0.196669 17.0017 0.196669Q16.3642 0.196669 15.703 0.0881619C15.2622 0.0158239 14.8067 -0.092683 14.3365 -0.237359L14.3365 -1.61404Q14.9468 -1.28174 15.5979 -1.11898Q16.2489 -0.956217 16.9746 -0.956217Q18.1478 -0.956217 18.8327 -1.57335Q19.5177 -2.19048 19.5177 -3.24843Q19.5177 -4.30637 18.8327 -4.9235Q18.1478 -5.54064 16.9746 -5.54064Q16.4252 -5.54064 15.8793 -5.41857Q15.3334 -5.2965 14.7637 -5.03879L14.7637 -10.1251ZM26.5232 -9.22309Q25.4652 -9.22309 24.9329 -8.1821Q24.4005 -7.14111 24.4005 -5.05235Q24.4005 -2.97038 24.9329 -1.92939Q25.4652 -0.888401 26.5232 -0.888401Q27.5879 -0.888401 28.1203 -1.92939Q28.6526 -2.97038 28.6526 -5.05235Q28.6526 -7.14111 28.1203 -8.1821Q27.5879 -9.22309 26.5232 -9.22309ZM26.5232 -10.3082Q28.2254 -10.3082 29.1239 -8.962Q30.0225 -7.61583 30.0225 -5.05235Q30.0225 -2.49566 29.1239 -1.1495Q28.2254 0.196669 26.5232 0.196669Q24.821 0.196669 23.9224 -1.1495Q23.0238 -2.49566 23.0238 -5.05235Q23.0238 -7.61583 23.9224 -8.962Q24.821 -10.3082 26.5232 -10.3082Z" fill="#262626" transform="translate(85.09895579020183,187.79696460783114) translate(-30.95160675048828,0)" />
<line x1="89.96006690131294" y1="123.43905130172891" x2="95.22117801242406" y2="123.43905130172891" stroke="#262626" stroke-width="1.1111111111111112" />
<path d="M4.41488 -9.22309Q3.35693 -9.22309 2.82457 -8.1821Q2.29221 -7.14111 2.29221 -5.05235Q2.29221 -2.97038 2.82457 -1.92939Q3.35693 -0.888401 4.41488 -0.888401Q5.4796 -0.888401 6.01196 -1.92939Q6.54433 -2.97038 6.54433 -5.05235Q6.54433 -7.14111 6.01196 -8.1821Q5.4796 -9.22309 4.41488 -9.22309ZM4.41488 -10.3082Q6.11708 -10.3082 7.01565 -8.962Q7.91422 -7.61583 7.91423 -5.05235Q7.91423 -2.49566 7.01565 -1.1495Q6.11708 0.196669 4.41488 0.196669Q2.71267 0.196669 1.8141 -1.1495Q0.915527 -2.49566 0.915527 -5.05235Q0.915527 -7.61583 1.8141 -8.962Q2.71267 -10.3082 4.41488 -10.3082ZM10.3285 -1.72255L11.7594 -1.72255L11.7594 0L10.3285 0L10.3285 -1.72255ZM14.4043 -10.1251L20.9147 -10.1251L20.9147 -9.54183L17.239 0L15.8081 0L19.2668 -8.97217L14.4043 -8.97217L14.4043 -10.1251ZM23.607 -10.1251L28.9849 -10.1251L28.9849 -8.97217L24.8617 -8.97217L24.8617 -6.49007Q25.16 -6.5918 25.4584 -6.64266Q25.7568 -6.69352 26.0552 -6.69352Q27.7507 -6.69352 28.7408 -5.76443Q29.7309 -4.83534 29.7309 -3.24843Q29.7309 -1.61404 28.7137 -0.708686Q27.6964 0.196669 25.845 0.196669Q25.2075 0.196669 24.5463 0.0881619C24.1055 0.0158239 23.65 -0.092683 23.1798 -0.237359L23.1798 -1.61404Q23.7901 -1.28174 24.4412 -1.11898Q25.0922 -0.956217 25.8179 -0.956217Q26.9911 -0.956217 27.6761 -1.57335Q28.361 -2.19048 28.361 -3.24843Q28.361 -4.30637 27.6761 -4.9235Q26.9911 -5.54064 25.8179 -5.54064Q25.2686 -5.54064 24.7226 -5.41857Q24.1767 -5.2965 23.607 -5.03879L23.607 -10.1251Z" fill="#262626" transform="translate(85.09895579020183,127.43905130172891) translate(-30.95160675048828,0)" />
<line x1="89.96006690131294" y1="63.081137995626705" x2="95.22117801242406" y2="63.081137995626705" stroke="#262626" stroke-width="1.1111111111111112" />
<path d="M1.72255 -1.15289L3.9605 -1.15289L3.9605 -8.87722L1.52588 -8.38894L1.52588 -9.63677L3.94694 -10.1251L5.31684 -10.1251L5.31684 -1.15289L7.5548 -1.15289L7.5548 0L1.72255 0L1.72255 -1.15289ZM10.3285 -1.72255L11.7594 -1.72255L11.7594 0L10.3285 0L10.3285 -1.72255ZM17.6799 -9.22309Q16.6219 -9.22309 16.0895 -8.1821Q15.5572 -7.14111 15.5572 -5.05235Q15.5572 -2.97038 16.0895 -1.92939Q16.6219 -0.888401 17.6799 -0.888401Q18.7446 -0.888401 19.2769 -1.92939Q19.8093 -2.97038 19.8093 -5.05235Q19.8093 -7.14111 19.2769 -8.1821Q18.7446 -9.22309 17.6799 -9.22309ZM17.6799 -10.3082Q19.3821 -10.3082 20.2806 -8.962Q21.1792 -7.61583 21.1792 -5.05235Q21.1792 -2.49566 20.2806 -1.1495Q19.3821 0.196669 17.6799 0.196669Q15.9776 0.196669 15.0791 -1.1495Q14.1805 -2.49566 14.1805 -5.05235Q14.1805 -7.61583 15.0791 -8.962Q15.9776 -10.3082 17.6799 -10.3082ZM26.5232 -9.22309Q25.4652 -9.22309 24.9329 -8.1821Q24.4005 -7.14111 24.4005 -5.05235Q24.4005 -2.97038 24.9329 -1.92939Q25.4652 -0.888401 26.5232 -0.888401Q27.5879 -0.888401 28.1203 -1.92939Q28.6526 -2.97038 28.6526 -5.05235Q28.6526 -7.14111 28.1203 -8.1821Q27.5879 -9.22309 26.5232 -9.22309ZM26.5232 -10.3082Q28.2254 -10.3082 29.1239 -8.962Q30.0225 -7.61583 30.0225 -5.05235Q30.0225 -2.49566 29.1239 -1.1495Q28.2254 0.196669 26.5232 0.196669Q24.821 0.196669 23.9224 -1.1495Q23.0238 -2.49566 23.0238 -5.05235Q23.0238 -7.61583 23.9224 -8.962Q24.821 -10.3082 26.5232 -10.3082Z" fill="#262626" transform="translate(85.09895579020183,67.0811379956267) translate(-30.95160675048828,0)" />
<g class="series" aria-label="e^{-0.15t} cos(2t)">
<polyline points="125.96566992095023,63.081137995626705 129.09576961024933,71.4164964267317 132.22586929954846,88.71163631661604 135.35596898884756,114.01868526953388 138.4860686781467,146.10135473531633 141.6161683674458,183.49229116012964 144.74626805674492,224.5578580573425 147.87636774604402,267.5675708164123 151.00646743534313,310.76530441569383 154.13656712464226,352.43940929626456 157.26666681394136,390.9889984419478 160.39676650324049,424.9839008180041 163.5268661925396,453.2161004972991 166.65696588183872,474.740881523748 169.78706557113782,488.9063577397989 172.91716526043692,495.3705645748285 176.04726494973605,494.1058053545833 179.17736463903515,485.3904571601845 182.30746432833428,469.7889304902788 185.43756401763338,448.12092432667663 188.56766370693248,421.4215072420297 191.6977633962316,390.893872275982 194.82786308553074,357.8568480468734 197.95796277482984,323.68939412212876 201.08806246412897,289.7743619290126 204.21816215342807,257.44376407281595 207.34826184272717,227.92766906831528 210.4783615320263,202.30863273781927 213.6084612213254,181.48330237262476 216.73856091062453,166.13249811274486 219.86866059992363,156.70070263991684 222.99876028922273,153.38549117993728 226.12885997852186,156.1370254954078 229.25895966782096,164.6673344177589 232.3890593571201,178.4687251483772 235.5191590464192,196.84032832024948 238.6492587357183,218.92148803505899 241.77935842501742,243.73047583800002 244.90945811431652,270.2068422773389 248.03955780361565,297.2556258687485 251.16965749291475,323.79161853859046 254.29975718221388,348.7819376150878 257.429856871513,371.28527303742675 260.5599565608121,390.48635797805025 263.69005625011124,405.72444263181137 266.8201559394103,416.5148238340661 269.95025562870944,422.5627854276 273.08035531800857,423.76962310044007 276.2104550073077,420.23074968307316 279.3405546966068,412.22618979407423 282.4706543859059,400.2040641764704 285.60075407520503,384.7579231962437 288.7308537645041,366.59900650024304 291.86095345380323,346.5246743918211 294.99105314310236,325.38437086855294 298.12115283240144,304.044535560861 301.25125252170056,283.3538814377584 304.3813522109997,264.11039882523164 307.5114519002988,247.03133789194462 310.6415515895979,232.7272671157402 313.771651278897,221.68111182729174 316.90175096819615,214.23285351923693 320.0318506574952,210.57032692004174 323.16195034679436,210.7262980855995 326.2920500360935,214.5817532770886 329.42214972539256,221.8750851745201 332.5522494146917,232.21663932424008 335.6823491039908,245.10788789018972 338.81244879328995,259.9643366849165 341.942548482589,276.1411504330002 345.07264817188815,292.96040386226775 348.2027478611873,309.7388342916006 351.33284755048635,325.81498480656154 354.4629472397855,340.57468401509664 357.5930469290846,353.4739052228965 360.7231466183837,364.0581796560907 363.8532463076828,371.9778988501345 366.98334599698194,376.99902333117404 370.11344568628107,379.0089104155364 373.24354537558014,378.01717521050296 376.37364506487927,374.1516976022641 379.5037447541784,367.65007639265764 382.6338444434775,358.8470026602979 385.76394413277666,348.15817163982115 388.89404382207573,336.0614708211602 392.02414351137486,323.07626774395663 395.15424320067393,309.74167167730866 398.2843428899731,296.59465806518574 401.4144425792722,284.1489237675248 404.5445422685713,272.87528661010526 407.6746419578704,263.1843577209544 410.8047416471695,255.41210383764349 413.93484133646865,249.8087843900052 417.0649410257678,246.53160054804613 420.19504071506685,245.6412368554513 423.325140404366,247.10231699343436 426.4552400936651,250.78763999452312 429.58533978296424,256.485917868012 432.7154394722633,263.9126055575307 435.84553916156244,272.72330410977565 438.9756388508615,282.52913164692717 442.1057385401607,292.91339690944324 445.2358382294598,303.44887835157346 448.3659379187589,313.7150084556444 451.496037608058,323.31428737253964 454.6261372973571,331.887300409177 457.75623698665623,339.1257875104925 460.88633667595536,344.7833061295422 464.01643636525444,348.68313748224034 467.14653605455356,350.72320539982263 470.27663574385264,350.8779018002431 473.4067354331518,349.1968381048126 476.5368351224509,345.8006627648763 479.66693481175,340.8741967946921 482.7970345010491,334.65723768725354 485.9271341903482,327.4334638217167 489.05723387964736,319.5179337213614 492.1873335689465,311.24371540681756 495.31743325824556,302.94819962726933 498.4475329475447,294.9596468708234 501.57763263684376,287.5844925700914 504.70773232614295,281.09588947531324 507.8378320154421,275.72390314969465 510.96793170474115,271.64769895831904 514.0980313940403,268.98997026765613 517.2281310833393,267.81376167591196 520.3582307726385,268.1217419567485 523.4883304619376,269.8578830314595 526.6184301512367,272.9114075497772 529.7485298405359,277.12278212225334 532.8786295298349,282.29145904360627 536.0087292191341,288.18500907227485 539.1388289084332,294.54924345550256 542.2689285977323,301.11889619436704 545.3990282870313,307.628428095545 548.5291279763305,313.8225223048937 551.6592276656296,319.46586592027364 554.7893273549288,324.35185245876534 557.9194270442279,328.3098933682709 561.0495267335269,331.2110909246005 564.179626422826,332.9720968915882 567.3097261121252,333.55705816541877 570.4398258014243,332.9776290981859 573.5699254907234,331.2911071522258 576.7000251800225,328.5968209814397 579.8301248693216,325.03096524077205 582.9602245586208,320.7601320289506 586.0903242479199,315.97383296019956 589.2204239372189,310.8763370368155 592.3505236265181,305.67816690663284 595.4806233158172,300.58759945659006 598.6107230051164,295.80250629795285 601.7408226944154,291.50284635757515 604.8709223837145,287.84408780735026 608.0010220730136,284.9517916663831 611.1311217623128,282.9175366636729 614.2612214516118,281.7963066684492 617.391321140911,281.60540064608415 620.5214208302101,282.32486319339677 623.6515205195092,283.8993737094625 626.7816202088084,286.2414764800109 629.9117198981074,289.23598447337565 633.0418195874065,292.74534823183967 636.1719192767057,296.615749291354 639.3020189660049,300.6836560572202 642.4321186553038,304.78256954405873 645.562218344603,308.74968694600466 648.6923180339021,312.43222228818286 651.8224177232013,315.69314466037736 654.9525174125004,318.4161246146364 658.0826171017994,320.5095167713404 661.2127167910986,321.9092498252134 664.3428164803977,322.5805421018215 667.4729161696968,322.5184096189557 670.603015858996,321.74698227390746 673.733115548295,320.31769038899813 676.8632152375942,318.30642662362794 679.9933149268932,315.8098256255093 683.1234146161923,312.9408344308508 686.2535143054915,309.8237695218918 689.3836139947906,306.5890709346622 692.5137136840897,303.3679695567849 695.6438133733888,300.2872807957961 698.7739130626879,297.46452650702264 701.9040127519871,295.00356813874043 705.0341124412861,292.99090845460853 708.1642121305853,291.4927881372552 711.2943118198843,290.5531684502494 714.4244115091835,290.1926534461558 717.5545111984826,290.40836652023944 720.6846108877817,291.17475798014897 723.8147105770809,292.4452842209679 726.94481026638,294.1548664268516 730.074909955679,296.2230086544391 733.2050096449782,298.55743266178814 736.3351093342773,301.05807065327434 739.4652090235764,303.6212476691479 742.5953087128755,306.1438828315949 745.7254084021746,308.5275429619721 748.8555080914738,310.68219283486076" fill="none" stroke="#1F77B4" stroke-width="1.2" />
</g>
<g class="spine">
<line x1="94.82117801242406" y1="545.9444444444445" x2="780" y2="545.9444444444445" stroke="#262626" stroke-width="0.8" />
</g>
<g class="spine">
<line x1="94.82117801242406" y1="41.46666666666667" x2="94.82117801242406" y2="545.9444444444445" stroke="#262626" stroke-width="0.8" />
</g>
<g class="legend" aria-label="Chart legend">
<rect x="582.8682674831814" y="51.46666666666667" width="187.13173251681857" height="25.72222222222222" fill="#FFFFFF" fill-opacity="0.8" stroke="#CCCCCC" stroke-width="0.5" />
<line x1="590.8682674831814" y1="64.32777777777778" x2="618.6460452609592" y2="64.32777777777778" stroke="#1F77B4" stroke-width="1.2" />
<path d="M7.80572 -4.1097L7.80572 -3.49935L2.06841 -3.49935Q2.14979 -2.21083 2.84492 -1.53605Q3.54004 -0.861274 4.78109 -0.861274Q5.49995 -0.861274 6.17472 -1.0376Q6.8495 -1.21392 7.51411 -1.56657L7.51411 -0.386556Q6.84272 -0.101725 6.13742 0.0474718Q5.43213 0.196669 4.70649 0.196669Q2.889 0.196669 1.82766 -0.861274Q0.76633 -1.91922 0.76633 -3.72314Q0.76633 -5.58811 1.77341 -6.68335Q2.78049 -7.77859 4.48947 -7.77859Q6.02214 -7.77859 6.91393 -6.79186Q7.80572 -5.80512 7.80572 -4.1097ZM6.55789 -4.47591Q6.54432 -5.49995 5.98484 -6.1103Q5.42535 -6.72065 4.50304 -6.72065Q3.45866 -6.72065 2.83135 -6.13064Q2.20405 -5.54064 2.1091 -4.46913L6.55789 -4.47591ZM15.0282 -10.1251L18.7107 -6.34766L17.3475 -6.34766L14.3636 -9.02642L11.3797 -6.34766L10.0165 -6.34766L13.699 -10.1251L15.0282 -10.1251ZM27.2827 1.28852L27.2827 2.26508L26.8623 2.26508Q25.1736 2.26508 24.6006 1.76324Q24.0275 1.26139 24.0275 -0.237359L24.0275 -1.85818Q24.0275 -2.88222 23.6613 -3.27555Q23.2951 -3.66889 22.3321 -3.66889L21.9184 -3.66889L21.9184 -4.63867L22.3321 -4.63867Q23.3019 -4.63867 23.6647 -5.02862Q24.0275 -5.41857 24.0275 -6.42904L24.0275 -8.05664Q24.0275 -9.55539 24.6006 -10.0538Q25.1736 -10.5523 26.8623 -10.5523L27.2827 -10.5523L27.2827 -9.58252L26.8216 -9.58252Q25.8653 -9.58252 25.5737 -9.28413Q25.2821 -8.98573 25.2821 -8.02951L25.2821 -6.34766Q25.2821 -5.28293 24.9736 -4.80143Q24.665 -4.31993 23.919 -4.15039Q24.6718 -3.96729 24.9769 -3.48579Q25.2821 -3.00429 25.2821 -1.94634L25.2821 -0.264486Q25.2821 0.691732 25.5737 0.990126Q25.8653 1.28852 26.8216 1.28852L27.2827 1.28852ZM29.7038 -4.36062L33.3591 -4.36062L33.3591 -3.24843L29.7038 -3.24843L29.7038 -4.36062ZM38.4589 -9.22309Q37.401 -9.22309 36.8686 -8.1821Q36.3363 -7.14111 36.3363 -5.05235Q36.3363 -2.97038 36.8686 -1.92939Q37.401 -0.888401 38.4589 -0.888401Q39.5237 -0.888401 40.056 -1.92939Q40.5884 -2.97038 40.5884 -5.05235Q40.5884 -7.14111 40.056 -8.1821Q39.5237 -9.22309 38.4589 -9.22309ZM38.4589 -10.3082Q40.1611 -10.3082 41.0597 -8.962Q41.9583 -7.61583 41.9583 -5.05235Q41.9583 -2.49566 41.0597 -1.1495Q40.1611 0.196669 38.4589 0.196669Q36.7567 0.196669 35.8582 -1.1495Q34.9596 -2.49566 34.9596 -5.05235Q34.9596 -7.61583 35.8582 -8.962Q36.7567 -10.3082 38.4589 -10.3082ZM44.3726 -1.72255L45.8035 -1.72255L45.8035 0L44.3726 0L44.3726 -1.72255ZM49.0316 -1.15289L51.2695 -1.15289L51.2695 -8.87722L48.8349 -8.38894L48.8349 -9.63677L51.256 -10.1251L52.6259 -10.1251L52.6259 -1.15289L54.8638 -1.15289L54.8638 0L49.0316 0L49.0316 -1.15289ZM57.6511 -10.1251L63.029 -10.1251L63.029 -8.97217L58.9057 -8.97217L58.9057 -6.49007Q59.2041 -6.5918 59.5025 -6.64266Q59.8009 -6.69352 60.0993 -6.69352Q61.7947 -6.69352 62.7848 -5.76443Q63.775 -4.83534 63.775 -3.24843Q63.775 -1.61404 62.7577 -0.708686Q61.7405 0.196669 59.8891 0.196669Q59.2516 0.196669 58.5904 0.0881619C58.1496 0.0158239 57.694 -0.092683 57.2239 -0.237359L57.2239 -1.61404Q57.8342 -1.28174 58.4852 -1.11898Q59.1363 -0.956217 59.8619 -0.956217Q61.0352 -0.956217 61.7201 -1.57335Q62.4051 -2.19048 62.4051 -3.24843Q62.4051 -4.30637 61.7201 -4.9235Q61.0352 -5.54064 59.8619 -5.54064Q59.3126 -5.54064 58.7667 -5.41857Q58.2208 -5.2965 57.6511 -5.03879L57.6511 -10.1251ZM67.5388 -9.75206L67.5388 -7.59549L70.109 -7.59549L70.109 -6.62571L67.5388 -6.62571L67.5388 -2.50244Q67.5388 -1.57335 67.7931 -1.30887Q68.0474 -1.04438 68.8273 -1.04438L70.109 -1.04438L70.109 0L68.8273 0Q67.3828 0 66.8335 -0.539144Q66.2842 -1.07829 66.2842 -2.50244L66.2842 -6.62571L65.3687 -6.62571L65.3687 -7.59549L66.2842 -7.59549L66.2842 -9.75206L67.5388 -9.75206ZM72.1842 1.28852L72.659 1.28852Q73.6084 1.28852 73.8966 0.996908Q74.1848 0.705295 74.1848 -0.264486L74.1848 -1.94634Q74.1848 -3.00429 74.49 -3.48579Q74.7952 -3.96729 75.548 -4.15039Q74.7952 -4.31993 74.49 -4.80143Q74.1848 -5.28293 74.1848 -6.34766L74.1848 -8.02951Q74.1848 -8.99251 73.8966 -9.28752Q73.6084 -9.58252 72.659 -9.58252L72.1842 -9.58252L72.1842 -10.5523L72.6115 -10.5523Q74.3001 -10.5523 74.8664 -10.0538Q75.4327 -9.55539 75.4327 -8.05664L75.4327 -6.42904Q75.4327 -5.41857 75.7989 -5.02862Q76.1651 -4.63867 77.1281 -4.63867L77.5486 -4.63867L77.5486 -3.66889L77.1281 -3.66889Q76.1651 -3.66889 75.7989 -3.27555Q75.4327 -2.88222 75.4327 -1.85818L75.4327 -0.237359Q75.4327 1.26139 74.8664 1.76324Q74.3001 2.26508 72.6115 2.26508L72.1842 2.26508L72.1842 1.28852ZM90.488 -7.30387L90.488 -6.13742Q89.959 -6.42904 89.4267 -6.57484Q88.8943 -6.72065 88.3518 -6.72065Q87.1379 -6.72065 86.4665 -5.95093Q85.7951 -5.18121 85.7951 -3.79096Q85.7951 -2.40072 86.4665 -1.631Q87.1379 -0.861274 88.3518 -0.861274Q88.8943 -0.861274 89.4267 -1.00708Q89.959 -1.15289 90.488 -1.4445L90.488 -0.291612Q89.9658 -0.0474718 89.4063 0.0745985Q88.8468 0.196669 88.2161 0.196669Q86.5004 0.196669 85.4899 -0.881619Q84.4794 -1.95991 84.4794 -3.79096Q84.4794 -5.64914 85.5001 -6.71387Q86.5207 -7.77859 88.2975 -7.77859Q88.874 -7.77859 89.4233 -7.65991Q89.9726 -7.54123 90.488 -7.30387ZM95.615 -6.72065Q94.6113 -6.72065 94.0281 -5.93736Q93.4448 -5.15408 93.4448 -3.79096Q93.4448 -2.42784 94.0247 -1.64456Q94.6045 -0.861274 95.615 -0.861274Q96.6119 -0.861274 97.1951 -1.64795Q97.7783 -2.43462 97.7783 -3.79096Q97.7783 -5.14052 97.1951 -5.93058Q96.6119 -6.72065 95.615 -6.72065ZM95.615 -7.77859Q97.2426 -7.77859 98.1717 -6.72065Q99.1008 -5.66271 99.1008 -3.79096Q99.1008 -1.926 98.1717 -0.864665Q97.2426 0.196669 95.615 0.196669Q93.9806 0.196669 93.0549 -0.864665Q92.1292 -1.926 92.1292 -3.79096Q92.1292 -5.66271 93.0549 -6.72065Q93.9806 -7.77859 95.615 -7.77859ZM106.005 -7.37169L106.005 -6.19168Q105.476 -6.46294 104.906 -6.59858Q104.336 -6.73421 103.726 -6.73421Q102.797 -6.73421 102.332 -6.44938Q101.868 -6.16455 101.868 -5.59489Q101.868 -5.16086 102.2 -4.91333Q102.532 -4.6658 103.536 -4.442L103.963 -4.34706Q105.292 -4.06223 105.852 -3.54343Q106.411 -3.02463 106.411 -2.09554Q106.411 -1.0376 105.574 -0.420464Q104.736 0.196669 103.271 0.196669Q102.661 0.196669 102 0.0779894Q101.339 -0.0406901 100.606 -0.278049L100.606 -1.56657Q101.298 -1.20714 101.969 -1.02743Q102.641 -0.84771 103.299 -0.847711Q104.18 -0.847711 104.655 -1.1495Q105.13 -1.45128 105.13 -2.0006Q105.13 -2.50922 104.787 -2.78049Q104.445 -3.05176 103.285 -3.30268L102.851 -3.40441Q101.691 -3.64855 101.176 -4.15378Q100.661 -4.65902 100.661 -5.54064Q100.661 -6.61214 101.42 -7.19537Q102.18 -7.77859 103.577 -7.77859Q104.268 -7.77859 104.879 -7.67687Q105.489 -7.57514 106.005 -7.37169ZM111.403 -10.5387Q110.494 -8.97895 110.053 -7.45307Q109.612 -5.92719 109.612 -4.36062Q109.612 -2.79405 110.057 -1.258Q110.501 0.278049 111.403 1.83105L110.318 1.83105Q109.3 0.237359 108.795 -1.30208Q108.29 -2.84153 108.29 -4.36062Q108.29 -5.87294 108.792 -7.4056Q109.294 -8.93826 110.318 -10.5387L111.403 -10.5387ZM115.187 -1.15289L119.968 -1.15289L119.968 0L113.539 0L113.539 -1.15289Q114.319 -1.95991 115.665 -3.31963Q117.011 -4.67936 117.357 -5.0727Q118.015 -5.8119 118.276 -6.32392Q118.537 -6.83594 118.537 -7.331Q118.537 -8.13802 117.971 -8.64665Q117.405 -9.15527 116.496 -9.15527Q115.852 -9.15527 115.136 -8.93148Q114.421 -8.70768 113.607 -8.25331L113.607 -9.63677Q114.434 -9.96908 115.153 -10.1386Q115.872 -10.3082 116.469 -10.3082Q118.042 -10.3082 118.978 -9.52148Q119.914 -8.73481 119.914 -7.41916Q119.914 -6.79525 119.68 -6.23576Q119.446 -5.67627 118.829 -4.91672Q118.659 -4.72005 117.75 -3.78079Q116.842 -2.84153 115.187 -1.15289ZM123.908 -9.75206L123.908 -7.59549L126.478 -7.59549L126.478 -6.62571L123.908 -6.62571L123.908 -2.50244Q123.908 -1.57335 124.162 -1.30887Q124.417 -1.04438 125.197 -1.04438L126.478 -1.04438L126.478 0L125.197 0Q123.752 0 123.203 -0.539144Q122.654 -1.07829 122.654 -2.50244L122.654 -6.62571L121.738 -6.62571L121.738 -7.59549L122.654 -7.59549L122.654 -9.75206L123.908 -9.75206ZM127.93 -10.5387L129.015 -10.5387Q130.032 -8.93826 130.537 -7.4056Q131.042 -5.87294 131.042 -4.36062Q131.042 -2.84153 130.537 -1.30208Q130.032 0.237359 129.015 1.83105L127.93 1.83105Q128.832 0.278049 129.276 -1.258Q129.72 -2.79405 129.72 -4.36062Q129.72 -5.92719 129.276 -7.45307Q128.832 -8.97895 127.93 -10.5387Z" fill="#262626" transform="translate(629.7571563720703,68.1888888888889)" />
</g>
<path d="M2.54313 -9.75206L2.54313 -7.59549L5.11339 -7.59549L5.11339 -6.62571L2.54313 -6.62571L2.54313 -2.50244Q2.54313 -1.57335 2.79744 -1.30887Q3.05176 -1.04438 3.83165 -1.04438L5.11339 -1.04438L5.11339 0L3.83165 0Q2.38715 0 1.83784 -0.539144Q1.28852 -1.07829 1.28852 -2.50244L1.28852 -6.62571L0.372993 -6.62571L0.372993 -7.59549L1.28852 -7.59549L1.28852 -9.75206L2.54313 -9.75206ZM14.1805 -10.5387Q13.2718 -8.97895 12.8309 -7.45307Q12.3901 -5.92719 12.3901 -4.36062Q12.3901 -2.79405 12.8343 -1.258Q13.2785 0.278049 14.1805 1.83105L13.0954 1.83105Q12.0782 0.237359 11.5729 -1.30208Q11.0677 -2.84153 11.0677 -4.36062Q11.0677 -5.87294 11.5696 -7.4056Q12.0714 -8.93826 13.0954 -10.5387L14.1805 -10.5387ZM21.4505 -7.37169L21.4505 -6.19168Q20.9215 -6.46294 20.3518 -6.59858Q19.7822 -6.73421 19.1718 -6.73421Q18.2427 -6.73421 17.7782 -6.44938Q17.3136 -6.16455 17.3136 -5.59489Q17.3136 -5.16086 17.6459 -4.91333Q17.9782 -4.6658 18.9819 -4.442L19.4092 -4.34706Q20.7384 -4.06223 21.2979 -3.54343Q21.8574 -3.02463 21.8574 -2.09554Q21.8574 -1.0376 21.0198 -0.420464Q20.1823 0.196669 18.7174 0.196669Q18.1071 0.196669 17.4459 0.0779894Q16.7847 -0.0406901 16.0522 -0.278049L16.0522 -1.56657Q16.744 -1.20714 17.4154 -1.02743Q18.0868 -0.84771 18.7446 -0.847711Q19.6262 -0.847711 20.1009 -1.1495Q20.5756 -1.45128 20.5756 -2.0006Q20.5756 -2.50922 20.2332 -2.78049Q19.8907 -3.05176 18.731 -3.30268L18.297 -3.40441Q17.1373 -3.64855 16.6219 -4.15378Q16.1065 -4.65902 16.1065 -5.54064Q16.1065 -6.61214 16.866 -7.19537Q17.6256 -7.77859 19.0226 -7.77859Q19.7144 -7.77859 20.3247 -7.67687Q20.9351 -7.57514 21.4505 -7.37169ZM23.6545 -10.5387L24.7396 -10.5387Q25.7568 -8.93826 26.2621 -7.4056Q26.7673 -5.87294 26.7673 -4.36062Q26.7673 -2.84153 26.2621 -1.30208Q25.7568 0.237359 24.7396 1.83105L23.6545 1.83105Q24.5565 0.278049 25.0007 -1.258Q25.4449 -2.79405 25.4449 -4.36062Q25.4449 -5.92719 25.0007 -7.45307Q24.5565 -8.97895 23.6545 -10.5387Z" fill="#262626" transform="translate(437.41058900621204,589.4444444444445) translate(-13.983833312988281,0)" />
<path d="M4.74718 -8.7755L2.889 -3.73671L6.61214 -3.73671L4.74718 -8.7755ZM3.97407 -10.1251L5.52707 -10.1251L9.38585 0L7.9617 0L7.03939 -2.59739L2.47531 -2.59739L1.55301 0L0.108507 0L3.97407 -10.1251ZM16.7169 -6.13742Q17.1848 -6.97835 17.8358 -7.37847Q18.4869 -7.77859 19.3685 -7.77859Q20.5553 -7.77859 21.1995 -6.94784Q21.8438 -6.11708 21.8438 -4.58442L21.8438 0L20.5892 0L20.5892 -4.54373Q20.5892 -5.63558 20.2026 -6.16455Q19.8161 -6.69352 19.0226 -6.69352Q18.0528 -6.69352 17.49 -6.04926Q16.9271 -5.405 16.9271 -4.29281L16.9271 0L15.6725 0L15.6725 -4.54373Q15.6725 -5.64236 15.2859 -6.16794Q14.8994 -6.69352 14.0923 -6.69352Q13.1361 -6.69352 12.5732 -6.04587Q12.0104 -5.39822 12.0104 -4.29281L12.0104 0L10.7558 0L10.7558 -7.59549L12.0104 -7.59549L12.0104 -6.41547Q12.4376 -7.11399 13.0344 -7.44629Q13.6312 -7.77859 14.4518 -7.77859Q15.2791 -7.77859 15.859 -7.35813Q16.4388 -6.93766 16.7169 -6.13742ZM25.5466 -1.13932L25.5466 2.889L24.292 2.889L24.292 -7.59549L25.5466 -7.59549L25.5466 -6.4426Q25.9399 -7.12077 26.5401 -7.44968Q27.1403 -7.77859 27.9744 -7.77859Q29.3579 -7.77859 30.2226 -6.67996Q31.0872 -5.58133 31.0872 -3.79096Q31.0872 -2.0006 30.2226 -0.901964Q29.3579 0.196669 27.9744 0.196669Q27.1403 0.196669 26.5401 -0.132243Q25.9399 -0.461155 25.5466 -1.13932ZM29.7919 -3.79096Q29.7919 -5.16764 29.2257 -5.95093Q28.6594 -6.73421 27.6693 -6.73421Q26.6791 -6.73421 26.1129 -5.95093Q25.5466 -5.16764 25.5466 -3.79096Q25.5466 -2.41428 26.1129 -1.631Q26.6791 -0.847711 27.6693 -0.847711Q28.6594 -0.847711 29.2257 -1.631Q29.7919 -2.41428 29.7919 -3.79096ZM33.1557 -10.5523L34.4035 -10.5523L34.4035 0L33.1557 0L33.1557 -10.5523ZM37.0077 -7.59549L38.2555 -7.59549L38.2555 0L37.0077 0L37.0077 -7.59549ZM37.0077 -10.5523L38.2555 -10.5523L38.2555 -8.97217L37.0077 -8.97217L37.0077 -10.5523ZM42.0939 -9.75206L42.0939 -7.59549L44.6642 -7.59549L44.6642 -6.62571L42.0939 -6.62571L42.0939 -2.50244Q42.0939 -1.57335 42.3482 -1.30887Q42.6025 -1.04438 43.3824 -1.04438L44.6642 -1.04438L44.6642 0L43.3824 0Q41.9379 0 41.3886 -0.539144Q40.8393 -1.07829 40.8393 -2.50244L40.8393 -6.62571L39.9238 -6.62571L39.9238 -7.59549L40.8393 -7.59549L40.8393 -9.75206L42.0939 -9.75206ZM46.1833 -2.9975L46.1833 -7.59549L47.4311 -7.59549L47.4311 -3.04498Q47.4311 -1.96669 47.8516 -1.42754Q48.272 -0.888401 49.113 -0.888401Q50.1234 -0.888401 50.71 -1.53266Q51.2967 -2.17692 51.2967 -3.28912L51.2967 -7.59549L52.5445 -7.59549L52.5445 0L51.2967 0L51.2967 -1.16645Q50.8423 -0.474718 50.2421 -0.139025Q49.6419 0.196669 48.8485 0.196669Q47.5396 0.196669 46.8614 -0.617133Q46.1833 -1.43094 46.1833 -2.9975ZM60.1264 -6.4426L60.1264 -10.5523L61.3742 -10.5523L61.3742 0L60.1264 0L60.1264 -1.13932Q59.7331 -0.461154 59.1329 -0.132243Q58.5327 0.196669 57.6918 0.196669Q56.3151 0.196669 55.4504 -0.901964Q54.5858 -2.0006 54.5858 -3.79096Q54.5858 -5.58133 55.4504 -6.67996Q56.3151 -7.77859 57.6918 -7.77859Q58.5327 -7.77859 59.1329 -7.44968Q59.7331 -7.12077 60.1264 -6.4426ZM55.8743 -3.79096Q55.8743 -2.41428 56.4406 -1.631Q57.0068 -0.847711 57.997 -0.847711Q58.9871 -0.847711 59.5568 -1.631Q60.1264 -2.41428 60.1264 -3.79096Q60.1264 -5.16764 59.5568 -5.95093Q58.9871 -6.73421 57.997 -6.73421Q57.0068 -6.73421 56.4406 -5.95093Q55.8743 -5.16764 55.8743 -3.79096ZM70.4414 -4.1097L70.4414 -3.49935L64.704 -3.49935Q64.7854 -2.21083 65.4806 -1.53605Q66.1757 -0.861274 67.4167 -0.861274Q68.1356 -0.861274 68.8104 -1.0376Q69.4851 -1.21392 70.1497 -1.56657L70.1497 -0.386556Q69.4784 -0.101725 68.7731 0.0474718Q68.0678 0.196669 67.3421 0.196669Q65.5246 0.196669 64.4633 -0.861274Q63.402 -1.91922 63.402 -3.72314Q63.402 -5.58811 64.409 -6.68335Q65.4161 -7.77859 67.1251 -7.77859Q68.6578 -7.77859 69.5496 -6.79186Q70.4414 -5.80512 70.4414 -4.1097ZM69.1935 -4.47591Q69.18 -5.49995 68.6205 -6.1103Q68.061 -6.72065 67.1387 -6.72065Q66.0943 -6.72065 65.467 -6.13064Q64.8397 -5.54064 64.7447 -4.46913L69.1935 -4.47591Z" fill="#262626" transform="translate(37.12890497843426,293.7055555555555) rotate(-90) translate(-35.59027862548828,0)" />
</svg>
