<svg xmlns="http://www.w3.org/2000/svg" viewBox="0 0 800 600" width="800" height="600" role="img" aria-labelledby="chart-title">
<title id="chart-title">Damped Oscillation</title>
<rect x="0" y="0" width="800" height="600" fill="#FFFFFF" />
<path d="M5.00505 -10.4992L5.00505 -2.54183L6.21045 -2.54183Q8.27186 -2.54183 9.35935 -3.5638Q10.4468 -4.58577 10.4468 -6.53364Q10.4468 -8.47276 9.36372 -9.486Q8.2806 -10.4992 6.21045 -10.4992L5.00505 -10.4992ZM1.64214 -13.0411L5.18848 -13.0411Q8.15831 -13.0411 9.61266 -12.6174Q11.067 -12.1938 12.1064 -11.1806Q13.0236 -10.2983 13.4691 -9.14535Q13.9145 -7.99235 13.9146 -6.53364Q13.9145 -5.05745 13.4691 -3.90009Q13.0236 -2.74273 12.1064 -1.86051Q11.0583 -0.847276 9.59082 -0.423638Q8.12337 0 5.18848 0L1.64214 0L1.64214 -13.0411ZM20.7364 -4.40234Q19.7581 -4.40234 19.2646 -4.07042Q18.7711 -3.7385 18.7711 -3.09212Q18.7711 -2.49816 19.1685 -2.16187Q19.566 -1.82558 20.2735 -1.82558Q21.1557 -1.82558 21.7584 -2.45885Q22.3611 -3.09212 22.3611 -4.04422L22.3611 -4.40234L20.7364 -4.40234ZM25.5144 -5.58154L25.5144 0L22.3611 0L22.3611 -1.44998Q21.7322 -0.559028 20.9461 -0.152859Q20.1599 0.253309 19.0331 0.253309Q17.5133 0.253309 16.5656 -0.633274Q15.6178 -1.51986 15.6178 -2.9349Q15.6178 -4.65565 16.8014 -5.45926Q17.985 -6.26286 20.5181 -6.26286L22.3611 -6.26286L22.3611 -6.50743Q22.3611 -7.24989 21.7759 -7.59492Q21.1906 -7.93994 19.9503 -7.93994Q18.9458 -7.93994 18.0811 -7.73904Q17.2163 -7.53814 16.4739 -7.13634L16.4739 -9.52094Q17.4784 -9.76552 18.4916 -9.89217Q19.5048 -10.0188 20.5181 -10.0188Q23.1647 -10.0188 24.3395 -8.97502Q25.5144 -7.93121 25.5144 -5.58154ZM37.4898 -8.15831Q38.0838 -9.06673 38.9005 -9.54278Q39.7172 -10.0188 40.6955 -10.0188Q42.3813 -10.0188 43.2635 -8.97938Q44.1457 -7.93994 44.1457 -5.95714L44.1457 0L41.0012 0L41.0012 -5.10113Q41.0099 -5.21468 41.0143 -5.33697Q41.0187 -5.45926 41.0187 -5.68636Q41.0187 -6.7258 40.7129 -7.19312Q40.4072 -7.66043 39.7259 -7.66043Q38.835 -7.66043 38.3502 -6.9267Q37.8654 -6.19298 37.8479 -4.80414L37.8479 0L34.7034 0L34.7034 -5.10113Q34.7034 -6.7258 34.4239 -7.19312Q34.1444 -7.66043 33.4281 -7.66043Q32.5284 -7.66043 32.0393 -6.92234Q31.5501 -6.18424 31.5501 -4.81288L31.5501 0L28.4056 0L28.4056 -9.78299L31.5501 -9.78299L31.5501 -8.35048Q32.1266 -9.18028 32.8735 -9.59956Q33.6203 -10.0188 34.52 -10.0188Q35.5332 -10.0188 36.3106 -9.52968Q37.088 -9.04053 37.4898 -8.15831ZM50.1902 -1.41504L50.1902 3.72103L47.0632 3.72103L47.0632 -9.78299L50.1902 -9.78299L50.1902 -8.35048Q50.8366 -9.20649 51.6227 -9.61266Q52.4089 -10.0188 53.4308 -10.0188Q55.2389 -10.0188 56.4007 -8.58195Q57.5624 -7.14507 57.5624 -4.88276Q57.5624 -2.62044 56.4007 -1.18357Q55.2389 0.253309 53.4308 0.253309Q52.4089 0.253309 51.6227 -0.152859Q50.8366 -0.559028 50.1902 -1.41504ZM52.2691 -7.74778Q51.2646 -7.74778 50.7274 -7.00968Q50.1902 -6.27159 50.1902 -4.88276Q50.1902 -3.49392 50.7274 -2.75583Q51.2646 -2.01774 52.2691 -2.01774Q53.2736 -2.01774 53.8021 -2.75146Q54.3305 -3.48519 54.3305 -4.88276Q54.3305 -6.28033 53.8021 -7.01405Q53.2736 -7.74778 52.2691 -7.74778ZM69.6339 -4.9177L69.6339 -4.02675L62.3229 -4.02675Q62.4364 -2.92616 63.1177 -2.37587Q63.799 -1.82558 65.0219 -1.82558Q66.0089 -1.82558 67.044 -2.11819Q68.0791 -2.41081 69.171 -3.00477L69.171 -0.593967Q68.0616 -0.174696 66.9523 0.0393066Q65.843 0.253309 64.7337 0.253309Q62.0783 0.253309 60.6065 -1.09622Q59.1347 -2.44575 59.1347 -4.88276Q59.1347 -7.2761 60.5803 -8.64746Q62.0259 -10.0188 64.559 -10.0188Q66.865 -10.0188 68.2494 -8.62999Q69.6339 -7.24116 69.6339 -4.9177ZM66.4195 -5.95714Q66.4195 -6.84809 65.8998 -7.39402Q65.38 -7.93994 64.5415 -7.93994Q63.6331 -7.93994 63.0653 -7.42896Q62.4976 -6.91797 62.3578 -5.95714L66.4195 -5.95714ZM78.657 -8.35048L78.657 -13.5914L81.8015 -13.5914L81.8015 0L78.657 0L78.657 -1.41504Q78.0106 -0.550293 77.2332 -0.148492Q76.4558 0.253309 75.4338 0.253309Q73.6257 0.253309 72.464 -1.18357Q71.3022 -2.62044 71.3022 -4.88276Q71.3022 -7.14507 72.464 -8.58195Q73.6257 -10.0188 75.4338 -10.0188Q76.447 -10.0188 77.2288 -9.61266Q78.0106 -9.20649 78.657 -8.35048ZM76.5955 -2.01774Q77.6 -2.01774 78.1285 -2.75146Q78.657 -3.48519 78.657 -4.88276Q78.657 -6.28033 78.1285 -7.01405Q77.6 -7.74778 76.5955 -7.74778Q75.5998 -7.74778 75.0713 -7.01405Q74.5429 -6.28033 74.5429 -4.88276Q74.5429 -3.48519 75.0713 -2.75146Q75.5998 -2.01774 76.5955 -2.01774ZM97.1311 -10.8399Q95.5938 -10.8399 94.7465 -9.70437Q93.8992 -8.56885 93.8992 -6.50743Q93.8992 -4.45475 94.7465 -3.31923Q95.5938 -2.1837 97.1311 -2.1837Q98.6771 -2.1837 99.5244 -3.31923Q100.372 -4.45475 100.372 -6.50743Q100.372 -8.56885 99.5244 -9.70437Q98.6771 -10.8399 97.1311 -10.8399ZM97.1311 -13.2769Q100.276 -13.2769 102.058 -11.4775Q103.839 -9.67817 103.839 -6.50743Q103.839 -3.34543 102.058 -1.54606Q100.276 0.253309 97.1311 0.253309Q93.9953 0.253309 92.209 -1.54606Q90.4227 -3.34543 90.4227 -6.50743Q90.4227 -9.67817 92.209 -11.4775Q93.9953 -13.2769 97.1311 -13.2769ZM113.884 -9.47727L113.884 -7.1014Q112.88 -7.52067 111.945 -7.73031Q111.011 -7.93994 110.181 -7.93994Q109.29 -7.93994 108.858 -7.7172Q108.425 -7.49447 108.425 -7.03152Q108.425 -6.65592 108.753 -6.45502Q109.08 -6.25412 109.928 -6.15804L110.478 -6.07943Q112.88 -5.77371 113.71 -5.07492Q114.54 -4.37614 114.54 -2.88249Q114.54 -1.31896 113.387 -0.532823Q112.234 0.253309 109.945 0.253309Q108.975 0.253309 107.94 0.10045Q106.905 -0.0524089 105.813 -0.358127L105.813 -2.734Q106.748 -2.27978 107.731 -2.05268Q108.713 -1.82557 109.727 -1.82558Q110.644 -1.82558 111.107 -2.07888Q111.57 -2.33219 111.57 -2.83008Q111.57 -3.24935 111.251 -3.45462Q110.932 -3.65989 109.98 -3.77344L109.43 -3.84332Q107.342 -4.10536 106.504 -4.81288Q105.665 -5.5204 105.665 -6.96164Q105.665 -8.51644 106.731 -9.26763Q107.796 -10.0188 109.997 -10.0188Q110.862 -10.0188 111.814 -9.8878Q112.766 -9.75678 113.884 -9.47727ZM124.794 -9.47727L124.794 -6.9267Q124.157 -7.36344 123.515 -7.57308Q122.873 -7.78271 122.183 -7.78271Q120.872 -7.78271 120.143 -7.01842Q119.414 -6.25412 119.414 -4.88276Q119.414 -3.51139 120.143 -2.7471Q120.872 -1.9828 122.183 -1.9828Q122.916 -1.9828 123.576 -2.20117Q124.235 -2.41954 124.794 -2.84755L124.794 -0.288249C124.305 -0.107729 123.809 0.0276602 123.305 0.11792Q122.549 0.253309 121.789 0.253309Q119.143 0.253309 117.649 -1.10495Q116.155 -2.46322 116.155 -4.88276Q116.155 -7.3023 117.649 -8.66056Q119.143 -10.0188 121.789 -10.0188Q122.558 -10.0188 123.305 -9.88344Q124.052 -9.74805 124.794 -9.47727ZM127.493 -9.78299L130.62 -9.78299L130.62 0L127.493 0L127.493 -9.78299ZM127.493 -13.5914L130.62 -13.5914L130.62 -11.0408L127.493 -11.0408L127.493 -13.5914ZM133.625 -13.5914L136.752 -13.5914L136.752 0L133.625 0L133.625 -13.5914ZM139.757 -13.5914L142.884 -13.5914L142.884 0L139.757 0L139.757 -13.5914ZM150.274 -4.40234Q149.295 -4.40234 148.802 -4.07042Q148.308 -3.7385 148.308 -3.09212Q148.308 -2.49816 148.706 -2.16187Q149.103 -1.82558 149.811 -1.82558Q150.693 -1.82558 151.296 -2.45885Q151.898 -3.09212 151.898 -4.04422L151.898 -4.40234L150.274 -4.40234ZM155.052 -5.58154L155.052 0L151.898 0L151.898 -1.44998Q151.269 -0.559028 150.483 -0.152859Q149.697 0.253309 148.57 0.253309Q147.051 0.253309 146.103 -0.633274Q145.155 -1.51986 145.155 -2.9349Q145.155 -4.65565 146.339 -5.45926Q147.522 -6.26286 150.055 -6.26286L151.898 -6.26286L151.898 -6.50743Q151.898 -7.24989 151.313 -7.59492Q150.728 -7.93994 149.488 -7.93994Q148.483 -7.93994 147.618 -7.73904Q146.754 -7.53814 146.011 -7.13634L146.011 -9.52094Q147.016 -9.76552 148.029 -9.89217Q149.042 -10.0188 150.055 -10.0188Q152.702 -10.0188 153.877 -8.97502Q155.052 -7.93121 155.052 -5.58154ZM161.376 -12.5607L161.376 -9.78299L164.599 -9.78299L164.599 -7.54688L161.376 -7.54688L161.376 -3.39784Q161.376 -2.71653 161.646 -2.47632Q161.917 -2.23611 162.721 -2.23611L164.328 -2.23611L164.328 0L161.646 0Q159.795 0 159.022 -0.773031Q158.249 -1.54606 158.249 -3.39784L158.249 -7.54688L156.694 -7.54688L156.694 -9.78299L158.249 -9.78299L158.249 -12.5607L161.376 -12.5607ZM166.512 -9.78299L169.639 -9.78299L169.639 0L166.512 0L166.512 -9.78299ZM166.512 -13.5914L169.639 -13.5914L169.639 -11.0408L166.512 -11.0408L166.512 -13.5914ZM177.299 -7.78271Q176.26 -7.78271 175.714 -7.03589Q175.168 -6.28906 175.168 -4.88276Q175.168 -3.47645 175.714 -2.72963Q176.26 -1.9828 177.299 -1.9828Q178.321 -1.9828 178.863 -2.72963Q179.404 -3.47645 179.404 -4.88276Q179.404 -6.28906 178.863 -7.03589Q178.321 -7.78271 177.299 -7.78271ZM177.299 -10.0188Q179.824 -10.0188 181.243 -8.6562Q182.662 -7.29357 182.662 -4.88276Q182.662 -2.47195 181.243 -1.10932Q179.824 0.253309 177.299 0.253309Q174.766 0.253309 173.338 -1.10932Q171.91 -2.47195 171.91 -4.88276Q171.91 -7.29357 173.338 -8.6562Q174.766 -10.0188 177.299 -10.0188ZM194.769 -5.95714L194.769 0L191.624 0L191.624 -0.969564L191.624 -4.55957Q191.624 -5.82612 191.567 -6.30653Q191.511 -6.78695 191.371 -7.01405Q191.188 -7.31977 190.873 -7.4901Q190.559 -7.66043 190.157 -7.66043Q189.178 -7.66043 188.619 -6.90487Q188.06 -6.14931 188.06 -4.81288L188.06 0L184.933 0L184.933 -9.78299L188.06 -9.78299L188.06 -8.35048Q188.768 -9.20649 189.563 -9.61266Q190.358 -10.0188 191.319 -10.0188Q193.013 -10.0188 193.891 -8.97938Q194.769 -7.93994 194.769 -5.95714Z" fill="#262626" transform="translate(400,24.099999999999998) translate(-98.08316802978516,0)" />
<rect x="87.38590579562718" y="41.46666666666667" width="692.6140942043728" height="506.87777777777774" fill="#FFFFFF" />
<line x1="87.38590579562718" y1="547.9444444444445" x2="87.38590579562718" y2="553.2055555555555" stroke="#262626" stroke-width="1.1111111111111112" />
<path d="M0.678168 -4.36062L4.3335 -4.36062L4.3335 -3.24843L0.678168 -3.24843L0.678168 -4.36062ZM6.51042 -10.1251L11.8883 -10.1251L11.8883 -8.97217L7.76503 -8.97217L7.76503 -6.49007Q8.06342 -6.5918 8.36182 -6.64266Q8.66021 -6.69352 8.9586 -6.69352Q10.654 -6.69352 11.6442 -5.76443Q12.6343 -4.83534 12.6343 -3.24843Q12.6343 -1.61404 11.617 -0.708686Q10.5998 0.196669 8.74837 0.196669Q8.11089 0.196669 7.44968 0.0881619C7.00887 0.0158239 6.55337 -0.092683 6.08317 -0.237359L6.08317 -1.61404Q6.69352 -1.28174 7.34456 -1.11898Q7.99561 -0.956217 8.72125 -0.956217Q9.89448 -0.956217 10.5794 -1.57335Q11.2644 -2.19048 11.2644 -3.24843Q11.2644 -4.30637 10.5794 -4.9235Q9.89448 -5.54064 8.72125 -5.54064Q8.17193 -5.54064 7.626 -5.41857Q7.08008 -5.2965 6.51042 -5.03879L6.51042 -10.1251Z" fill="#262626" transform="translate(87.38590579562718,571.9555555555555) translate(-6.924099922180176,0)" />
<line x1="202.82158816302265" y1="547.9444444444445" x2="202.82158816302265" y2="553.2055555555555" stroke="#262626" stroke-width="1.1111111111111112" />
<path d="M4.41488 -9.22309Q3.35693 -9.22309 2.82457 -8.1821Q2.29221 -7.14111 2.29221 -5.05235Q2.29221 -2.97038 2.82457 -1.92939Q3.35693 -0.888401 4.41488 -0.888401Q5.4796 -0.888401 6.01196 -1.92939Q6.54433 -2.97038 6.54433 -5.05235Q6.54433 -7.14111 6.01196 -8.1821Q5.4796 -9.22309 4.41488 -9.22309ZM4.41488 -10.3082Q6.11708 -10.3082 7.01565 -8.962Q7.91422 -7.61583 7.91423 -5.05235Q7.91423 -2.49566 7.01565 -1.1495Q6.11708 0.196669 4.41488 0.196669Q2.71267 0.196669 1.8141 -1.1495Q0.915527 -2.49566 0.915527 -5.05235Q0.915527 -7.61583 1.8141 -8.962Q2.71267 -10.3082 4.41488 -10.3082Z" fill="#262626" transform="translate(202.82158816302265,571.9555555555555) translate(-4.418267250061035,0)" />
<line x1="318.2572705304181" y1="547.9444444444445" x2="318.2572705304181" y2="553.2055555555555" stroke="#262626" stroke-width="1.1111111111111112" />
<path d="M1.49875 -10.1251L6.87663 -10.1251L6.87663 -8.97217L2.75336 -8.97217L2.75336 -6.49007Q3.05176 -6.5918 3.35015 -6.64266Q3.64855 -6.69352 3.94694 -6.69352Q5.64236 -6.69352 6.63249 -5.76443Q7.62261 -4.83534 7.62261 -3.24843Q7.62261 -1.61404 6.60536 -0.708686Q5.58811 0.196669 3.73671 0.196669Q3.09923 0.196669 2.43802 0.0881619C1.99721 0.0158239 1.5417 -0.092683 1.07151 -0.237359L1.07151 -1.61404Q1.68186 -1.28174 2.3329 -1.11898Q2.98394 -0.956217 3.70958 -0.956217Q4.88281 -0.956217 5.56776 -1.57335Q6.25271 -2.19048 6.25271 -3.24843Q6.25271 -4.30637 5.56776 -4.9235Q4.88281 -5.54064 3.70958 -5.54064Q3.16026 -5.54064 2.61434 -5.41857Q2.06841 -5.2965 1.49875 -5.03879L1.49875 -10.1251Z" fill="#262626" transform="translate(318.2572705304181,571.9555555555555) translate(-4.418267250061035,0)" />
<line x1="433.6929528978136" y1="547.9444444444445" x2="433.6929528978136" y2="553.2055555555555" stroke="#262626" stroke-width="1.1111111111111112" />
<path d="M1.72255 -1.15289L3.9605 -1.15289L3.9605 -8.87722L1.52588 -8.38894L1.52588 -9.63677L3.94694 -10.1251L5.31684 -10.1251L5.31684 -1.15289L7.5548 -1.15289L7.5548 0L1.72255 0L1.72255 -1.15289ZM13.2514 -9.22309Q12.1935 -9.22309 11.6611 -8.1821Q11.1287 -7.14111 11.1287 -5.05235Q11.1287 -2.97038 11.6611 -1.92939Q12.1935 -0.888401 13.2514 -0.888401Q14.3161 -0.888401 14.8485 -1.92939Q15.3809 -2.97038 15.3809 -5.05235Q15.3809 -7.14111 14.8485 -8.1821Q14.3161 -9.22309 13.2514 -9.22309ZM13.2514 -10.3082Q14.9536 -10.3082 15.8522 -8.962Q16.7508 -7.61583 16.7508 -5.05235Q16.7508 -2.49566 15.8522 -1.1495Q14.9536 0.196669 13.2514 0.196669Q11.5492 0.196669 10.6506 -1.1495Q9.75206 -2.49566 9.75206 -5.05235Q9.75206 -7.61583 10.6506 -8.962Q11.5492 -10.3082 13.2514 -10.3082Z" fill="#262626" transform="translate(433.6929528978136,571.9555555555555) translate(-8.83653450012207,0)" />
<line x1="549.128635265209" y1="547.9444444444445" x2="549.128635265209" y2="553.2055555555555" stroke="#262626" stroke-width="1.1111111111111112" />
<path d="M1.72255 -1.15289L3.9605 -1.15289L3.9605 -8.87722L1.52588 -8.38894L1.52588 -9.63677L3.94694 -10.1251L5.31684 -10.1251L5.31684 -1.15289L7.5548 -1.15289L7.5548 0L1.72255 0L1.72255 -1.15289ZM10.3353 -10.1251L15.7132 -10.1251L15.7132 -8.97217L11.5899 -8.97217L11.5899 -6.49007Q11.8883 -6.5918 12.1867 -6.64266Q12.4851 -6.69352 12.7835 -6.69352Q14.4789 -6.69352 15.469 -5.76443Q16.4591 -4.83534 16.4591 -3.24843Q16.4591 -1.61404 15.4419 -0.708686Q14.4246 0.196669 12.5732 0.196669Q11.9358 0.196669 11.2745 0.0881619C10.8337 0.0158239 10.3782 -0.092683 9.90804 -0.237359L9.90804 -1.61404Q10.5184 -1.28174 11.1694 -1.11898Q11.8205 -0.956217 12.5461 -0.956217Q13.7193 -0.956217 14.4043 -1.57335Q15.0892 -2.19048 15.0892 -3.24843Q15.0892 -4.30637 14.4043 -4.9235Q13.7193 -5.54064 12.5461 -5.54064Q11.9968 -5.54064 11.4509 -5.41857Q10.9049 -5.2965 10.3353 -5.03879L10.3353 -10.1251Z" fill="#262626" transform="translate(549.128635265209,571.9555555555555) translate(-8.83653450012207,0)" />
<line x1="664.5643176326046" y1="547.9444444444445" x2="664.5643176326046" y2="553.2055555555555" stroke="#262626" stroke-width="1.1111111111111112" />
<path d="M2.6652 -1.15289L7.44629 -1.15289L7.44629 0L1.01725 0L1.01725 -1.15289Q1.79715 -1.95991 3.14331 -3.31963Q4.48947 -4.67936 4.83534 -5.0727Q5.49316 -5.8119 5.75426 -6.32392Q6.01535 -6.83594 6.01535 -7.331Q6.01535 -8.13802 5.44908 -8.64665Q4.88281 -9.15527 3.97407 -9.15527Q3.32981 -9.15527 2.61434 -8.93148Q1.89887 -8.70768 1.08507 -8.25331L1.08507 -9.63677Q1.91243 -9.96908 2.63129 -10.1386Q3.35015 -10.3082 3.94694 -10.3082Q5.52029 -10.3082 6.45616 -9.52148Q7.39204 -8.73481 7.39204 -7.41916Q7.39204 -6.79525 7.15807 -6.23576Q6.9241 -5.67627 6.30697 -4.91672Q6.13742 -4.72005 5.22868 -3.78079Q4.31993 -2.84153 2.6652 -1.15289ZM13.2514 -9.22309Q12.1935 -9.22309 11.6611 -8.1821Q11.1287 -7.14111 11.1287 -5.05235Q11.1287 -2.97038 11.6611 -1.92939Q12.1935 -0.888401 13.2514 -0.888401Q14.3161 -0.888401 14.8485 -1.92939Q15.3809 -2.97038 15.3809 -5.05235Q15.3809 -7.14111 14.8485 -8.1821Q14.3161 -9.22309 13.2514 -9.22309ZM13.2514 -10.3082Q14.9536 -10.3082 15.8522 -8.962Q16.7508 -7.61583 16.7508 -5.05235Q16.7508 -2.49566 15.8522 -1.1495Q14.9536 0.196669 13.2514 0.196669Q11.5492 0.196669 10.6506 -1.1495Q9.75206 -2.49566 9.75206 -5.05235Q9.75206 -7.61583 10.6506 -8.962Q11.5492 -10.3082 13.2514 -10.3082Z" fill="#262626" transform="translate(664.5643176326046,571.9555555555555) translate(-8.83653450012207,0)" />
<line x1="780" y1="547.9444444444445" x2="780" y2="553.2055555555555" stroke="#262626" stroke-width="1.1111111111111112" />
<path d="M2.6652 -1.15289L7.44629 -1.15289L7.44629 0L1.01725 0L1.01725 -1.15289Q1.79715 -1.95991 3.14331 -3.31963Q4.48947 -4.67936 4.83534 -5.0727Q5.49316 -5.8119 5.75426 -6.32392Q6.01535 -6.83594 6.01535 -7.331Q6.01535 -8.13802 5.44908 -8.64665Q4.88281 -9.15527 3.97407 -9.15527Q3.32981 -9.15527 2.61434 -8.93148Q1.89887 -8.70768 1.08507 -8.25331L1.08507 -9.63677Q1.91243 -9.96908 2.63129 -10.1386Q3.35015 -10.3082 3.94694 -10.3082Q5.52029 -10.3082 6.45616 -9.52148Q7.39204 -8.73481 7.39204 -7.41916Q7.39204 -6.79525 7.15807 -6.23576Q6.9241 -5.67627 6.30697 -4.91672Q6.13742 -4.72005 5.22868 -3.78079Q4.31993 -2.84153 2.6652 -1.15289ZM10.3353 -10.1251L15.7132 -10.1251L15.7132 -8.97217L11.5899 -8.97217L11.5899 -6.49007Q11.8883 -6.5918 12.1867 -6.64266Q12.4851 -6.69352 12.7835 -6.69352Q14.4789 -6.69352 15.469 -5.76443Q16.4591 -4.83534 16.4591 -3.24843Q16.4591 -1.61404 15.4419 -0.708686Q14.4246 0.196669 12.5732 0.196669Q11.9358 0.196669 11.2745 0.0881619C10.8337 0.0158239 10.3782 -0.092683 9.90804 -0.237359L9.90804 -1.61404Q10.5184 -1.28174 11.1694 -1.11898Q11.8205 -0.956217 12.5461 -0.956217Q13.7193 -0.956217 14.4043 -1.57335Q15.0892 -2.19048 15.0892 -3.24843Q15.0892 -4.30637 14.4043 -4.9235Q13.7193 -5.54064 12.5461 -5.54064Q11.9968 -5.54064 11.4509 -5.41857Q10.9049 -5.2965 10.3353 -5.03879L10.3353 -10.1251Z" fill="#262626" transform="translate(780,571.9555555555555) translate(-8.83653450012207,0)" />
<line x1="82.52479468451607" y1="548.3444444444444" x2="87.78590579562719" y2="548.3444444444444" stroke="#262626" stroke-width="1.1111111111111112" />
<path d="M0.678168 -4.36062L4.3335 -4.36062L4.3335 -3.24843L0.678168 -3.24843L0.678168 -4.36062ZM6.73421 -1.15289L8.97217 -1.15289L8.97217 -8.87722L6.53754 -8.38894L6.53754 -9.63677L8.9586 -10.1251L10.3285 -10.1251L10.3285 -1.15289L12.5665 -1.15289L12.5665 0L6.73421 0L6.73421 -1.15289ZM15.3334 -1.72255L16.7643 -1.72255L16.7643 0L15.3334 0L15.3334 -1.72255ZM22.678 -9.22309Q21.62 -9.22309 21.0876 -8.1821Q20.5553 -7.14111 20.5553 -5.05235Q20.5553 -2.97038 21.0876 -1.92939Q21.62 -0.888401 22.678 -0.888401Q23.7427 -0.888401 24.275 -1.92939Q24.8074 -2.97038 24.8074 -5.05235Q24.8074 -7.14111 24.275 -8.1821Q23.7427 -9.22309 22.678 -9.22309ZM22.678 -10.3082Q24.3802 -10.3082 25.2787 -8.962Q26.1773 -7.61583 26.1773 -5.05235Q26.1773 -2.49566 25.2787 -1.1495Q24.3802 0.196669 22.678 0.196669Q20.9757 0.196669 20.0772 -1.1495Q19.1786 -2.49566 19.1786 -5.05235Q19.1786 -7.61583 20.0772 -8.962Q20.9757 -10.3082 22.678 -10.3082ZM31.5145 -9.22309Q30.4565 -9.22309 29.9242 -8.1821Q29.3918 -7.14111 29.3918 -5.05235Q29.3918 -2.97038 29.9242 -1.92939Q30.4565 -0.888401 31.5145 -0.888401Q32.5792 -0.888401 33.1116 -1.92939Q33.6439 -2.97038 33.6439 -5.05235Q33.6439 -7.14111 33.1116 -8.1821Q32.5792 -9.22309 31.5145 -9.22309ZM31.5145 -10.3082Q33.2167 -10.3082 34.1153 -8.962Q35.0138 -7.61583 35.0138 -5.05235Q35.0138 -2.49566 34.1153 -1.1495Q33.2167 0.196669 31.5145 0.196669Q29.8123 0.196669 28.9137 -1.1495Q28.0151 -2.49566 28.0151 -5.05235Q28.0151 -7.61583 28.9137 -8.962Q29.8123 -10.3082 31.5145 -10.3082Z" fill="#262626" transform="translate(77.66368357340495,552.3444444444444) translate(-35.9361457824707,0)" />
<line x1="82.52479468451607" y1="497.6566666666667" x2="87.78590579562719" y2="497.6566666666667" stroke="#262626" stroke-width="1.1111111111111112" />
<path d="M0.678168 -4.36062L4.3335 -4.36062L4.3335 -3.24843L0.678168 -3.24843L0.678168 -4.36062ZM9.42654 -9.22309Q8.3686 -9.22309 7.83624 -8.1821Q7.30387 -7.14111 7.30387 -5.05235Q7.30387 -2.97038 7.83624 -1.92939Q8.3686 -0.888401 9.42654 -0.888401Q10.4913 -0.888401 11.0236 -1.92939Q11.556 -2.97038 11.556 -5.05235Q11.556 -7.14111 11.0236 -8.1821Q10.4913 -9.22309 9.42654 -9.22309ZM9.42654 -10.3082Q11.1287 -10.3082 12.0273 -8.962Q12.9259 -7.61583 12.9259 -5.05235Q12.9259 -2.49566 12.0273 -1.1495Q11.1287 0.196669 9.42654 0.196669Q7.72434 0.196669 6.82577 -1.1495Q5.92719 -2.49566 5.92719 -5.05235Q5.92719 -7.61583 6.82577 -8.962Q7.72434 -10.3082 9.42654 -10.3082ZM15.3334 -1.72255L16.7643 -1.72255L16.7643 0L15.3334 0L15.3334 -1.72255ZM19.4024 -10.1251L25.9128 -10.1251L25.9128 -9.54183L22.2371 0L20.8062 0L24.2649 -8.97217L19.4024 -8.97217L19.4024 -10.1251ZM28.5984 -10.1251L33.9762 -10.1251L33.9762 -8.97217L29.853 -8.97217L29.853 -6.49007Q30.1514 -6.5918 30.4498 -6.64266Q30.7482 -6.69352 31.0466 -6.69352Q32.742 -6.69352 33.7321 -5.76443Q34.7222 -4.83534 34.7222 -3.24843Q34.7222 -1.61404 33.705 -0.708686Q32.6877 0.196669 30.8363 0.196669Q30.1988 0.196669 29.5376 0.0881619C29.0968 0.0158239 28.6413 -0.092683 28.1711 -0.237359L28.1711 -1.61404Q28.7815 -1.28174 29.4325 -1.11898Q30.0836 -0.956217 30.8092 -0.956217Q31.9824 -0.956217 32.6674 -1.57335Q33.3523 -2.19048 33.3523 -3.24843Q33.3523 -4.30637 32.6674 -4.9235Q31.9824 -5.54064 30.8092 -5.54064Q30.2599 -5.54064 29.714 -5.41857Q29.168 -5.2965 28.5984 -5.03879L28.5984 -10.1251Z" fill="#262626" transform="translate(77.66368357340495,501.6566666666667) translate(-35.9361457824707,0)" />
<line x1="82.52479468451607" y1="446.9688888888889" x2="87.78590579562719" y2="446.9688888888889" stroke="#262626" stroke-width="1.1111111111111112" />
<path d="M0.678168 -4.36062L4.3335 -4.36062L4.3335 -3.24843L0.678168 -3.24843L0.678168 -4.36062ZM9.42654 -9.22309Q8.3686 -9.22309 7.83624 -8.1821Q7.30387 -7.14111 7.30387 -5.05235Q7.30387 -2.97038 7.83624 -1.92939Q8.3686 -0.888401 9.42654 -0.888401Q10.4913 -0.888401 11.0236 -1.92939Q11.556 -2.97038 11.556 -5.05235Q11.556 -7.14111 11.0236 -8.1821Q10.4913 -9.22309 9.42654 -9.22309ZM9.42654 -10.3082Q11.1287 -10.3082 12.0273 -8.962Q12.9259 -7.61583 12.9259 -5.05235Q12.9259 -2.49566 12.0273 -1.1495Q11.1287 0.196669 9.42654 0.196669Q7.72434 0.196669 6.82577 -1.1495Q5.92719 -2.49566 5.92719 -5.05235Q5.92719 -7.61583 6.82577 -8.962Q7.72434 -10.3082 9.42654 -10.3082ZM15.3334 -1.72255L16.7643 -1.72255L16.7643 0L15.3334 0L15.3334 -1.72255ZM19.7618 -10.1251L25.1397 -10.1251L25.1397 -8.97217L21.0164 -8.97217L21.0164 -6.49007Q21.3148 -6.5918 21.6132 -6.64266Q21.9116 -6.69352 22.21 -6.69352Q23.9054 -6.69352 24.8956 -5.76443Q25.8857 -4.83534 25.8857 -3.24843Q25.8857 -1.61404 24.8684 -0.708686Q23.8512 0.196669 21.9998 0.196669Q21.3623 0.196669 20.7011 0.0881619C20.2603 0.0158239 19.8048 -0.092683 19.3346 -0.237359L19.3346 -1.61404Q19.9449 -1.28174 20.596 -1.11898Q21.247 -0.956217 21.9727 -0.956217Q23.1459 -0.956217 23.8308 -1.57335Q24.5158 -2.19048 24.5158 -3.24843Q24.5158 -4.30637 23.8308 -4.9235Q23.1459 -5.54064 21.9727 -5.54064Q21.4233 -5.54064 20.8774 -5.41857Q20.3315 -5.2965 19.7618 -5.03879L19.7618 -10.1251ZM31.5145 -9.22309Q30.4565 -9.22309 29.9242 -8.1821Q29.3918 -7.14111 29.3918 -5.05235Q29.3918 -2.97038 29.9242 -1.92939Q30.4565 -0.888401 31.5145 -0.888401Q32.5792 -0.888401 33.1116 -1.92939Q33.6439 -2.97038 33.6439 -5.05235Q33.6439 -7.14111 33.1116 -8.1821Q32.5792 -9.22309 31.5145 -9.22309ZM31.5145 -10.3082Q33.2167 -10.3082 34.1153 -8.962Q35.0138 -7.61583 35.0138 -5.05235Q35.0138 -2.49566 34.1153 -1.1495Q33.2167 0.196669 31.5145 0.196669Q29.8123 0.196669 28.9137 -1.1495Q28.0151 -2.49566 28.0151 -5.05235Q28.0151 -7.61583 28.9137 -8.962Q29.8123 -10.3082 31.5145 -10.3082Z" fill="#262626" transform="translate(77.66368357340495,450.9688888888889) translate(-35.9361457824707,0)" />
<line x1="82.52479468451607" y1="396.28111111111116" x2="87.78590579562719" y2="396.28111111111116" stroke="#262626" stroke-width="1.1111111111111112" />
<path d="M0.678168 -4.36062L4.3335 -4.36062L4.3335 -3.24843L0.678168 -3.24843L0.678168 -4.36062ZM9.42654 -9.22309Q8.3686 -9.22309 7.83624 -8.1821Q7.30387 -7.14111 7.30387 -5.05235Q7.30387 -2.97038 7.83624 -1.92939Q8.3686 -0.888401 9.42654 -0.888401Q10.4913 -0.888401 11.0236 -1.92939Q11.556 -2.97038 11.556 -5.05235Q11.556 -7.14111 11.0236 -8.1821Q10.4913 -9.22309 9.42654 -9.22309ZM9.42654 -10.3082Q11.1287 -10.3082 12.0273 -8.962Q12.9259 -7.61583 12.9259 -5.05235Q12.9259 -2.49566 12.0273 -1.1495Q11.1287 0.196669 9.42654 0.196669Q7.72434 0.196669 6.82577 -1.1495Q5.92719 -2.49566 5.92719 -5.05235Q5.92719 -7.61583 6.82577 -8.962Q7.72434 -10.3082 9.42654 -10.3082ZM15.3334 -1.72255L16.7643 -1.72255L16.7643 0L15.3334 0L15.3334 -1.72255ZM20.9283 -1.15289L25.7094 -1.15289L25.7094 0L19.2803 0L19.2803 -1.15289Q20.0602 -1.95991 21.4064 -3.31963Q22.7526 -4.67936 23.0984 -5.0727Q23.7562 -5.8119 24.0173 -6.32392Q24.2784 -6.83594 24.2784 -7.331Q24.2784 -8.13802 23.7122 -8.64665Q23.1459 -9.15527 22.2371 -9.15527Q21.5929 -9.15527 20.8774 -8.93148Q20.1619 -8.70768 19.3481 -8.25331L19.3481 -9.63677Q20.1755 -9.96908 20.8944 -10.1386Q21.6132 -10.3082 22.21 -10.3082Q23.7834 -10.3082 24.7192 -9.52148Q25.6551 -8.73481 25.6551 -7.41916Q25.6551 -6.79525 25.4211 -6.23576Q25.1872 -5.67627 24.57 -4.91672Q24.4005 -4.72005 23.4918 -3.78079Q22.583 -2.84153 20.9283 -1.15289ZM28.5984 -10.1251L33.9762 -10.1251L33.9762 -8.97217L29.853 -8.97217L29.853 -6.49007Q30.1514 -6.5918 30.4498 -6.64266Q30.7482 -6.69352 31.0466 -6.69352Q32.742 -6.69352 33.7321 -5.76443Q34.7222 -4.83534 34.7222 -3.24843Q34.7222 -1.61404 33.705 -0.708686Q32.6877 0.196669 30.8363 0.196669Q30.1988 0.196669 29.5376 0.0881619C29.0968 0.0158239 28.6413 -0.092683 28.1711 -0.237359L28.1711 -1.61404Q28.7815 -1.28174 29.4325 -1.11898Q30.0836 -0.956217 30.8092 -0.956217Q31.9824 -0.956217 32.6674 -1.57335Q33.3523 -2.19048 33.3523 -3.24843Q33.3523 -4.30637 32.6674 -4.9235Q31.9824 -5.54064 30.8092 -5.54064Q30.2599 -5.54064 29.714 -5.41857Q29.168 -5.2965 28.5984 -5.03879L28.5984 -10.1251Z" fill="#262626" transform="translate(77.66368357340495,400.28111111111116) translate(-35.9361457824707,0)" />
<line x1="82.52479468451607" y1="345.59333333333336" x2="87.78590579562719" y2="345.59333333333336" stroke="#262626" stroke-width="1.1111111111111112" />
<path d="M4.41488 -9.22309Q3.35693 -9.22309 2.82457 -8.1821Q2.29221 -7.14111 2.29221 -5.05235Q2.29221 -2.97038 2.82457 -1.92939Q3.35693 -0.888401 4.41488 -0.888401Q5.4796 -0.888401 6.01196 -1.92939Q6.54433 -2.97038 6.54433 -5.05235Q6.54433 -7.14111 6.01196 -8.1821Q5.4796 -9.22309 4.41488 -9.22309ZM4.41488 -10.3082Q6.11708 -10.3082 7.01565 -8.962Q7.91422 -7.61583 7.91423 -5.05235Q7.91423 -2.49566 7.01565 -1.1495Q6.11708 0.196669 4.41488 0.196669Q2.71267 0.196669 1.8141 -1.1495Q0.915527 -2.49566 0.915527 -5.05235Q0.915527 -7.61583 1.8141 -8.962Q2.71267 -10.3082 4.41488 -10.3082ZM10.3217 -1.72255L11.7527 -1.72255L11.7527 0L10.3217 0L10.3217 -1.72255ZM17.6663 -9.22309Q16.6083 -9.22309 16.076 -8.1821Q15.5436 -7.14111 15.5436 -5.05235Q15.5436 -2.97038 16.076 -1.92939Q16.6083 -0.888401 17.6663 -0.888401Q18.731 -0.888401 19.2634 -1.92939Q19.7957 -2.97038 19.7957 -5.05235Q19.7957 -7.14111 19.2634 -8.1821Q18.731 -9.22309 17.6663 -9.22309ZM17.6663 -10.3082Q19.3685 -10.3082 20.2671 -8.962Q21.1656 -7.61583 21.1656 -5.05235Q21.1656 -2.49566 20.2671 -1.1495Q19.3685 0.196669 17.6663 0.196669Q15.9641 0.196669 15.0655 -1.1495Q14.1669 -2.49566 14.1669 -5.05235Q14.1669 -7.61583 15.0655 -8.962Q15.9641 -10.3082 17.6663 -10.3082ZM26.5028 -9.22309Q25.4449 -9.22309 24.9125 -8.1821Q24.3802 -7.14111 24.3802 -5.05235Q24.3802 -2.97038 24.9125 -1.92939Q25.4449 -0.888401 26.5028 -0.888401Q27.5675 -0.888401 28.0999 -1.92939Q28.6323 -2.97038 28.6323 -5.05235Q28.6323 -7.14111 28.0999 -8.1821Q27.5675 -9.22309 26.5028 -9.22309ZM26.5028 -10.3082Q28.205 -10.3082 29.1036 -8.962Q30.0022 -7.61583 30.0022 -5.05235Q30.0022 -2.49566 29.1036 -1.1495Q28.205 0.196669 26.5028 0.196669Q24.8006 0.196669 23.902 -1.1495Q23.0035 -2.49566 23.0035 -5.05235Q23.0035 -7.61583 23.902 -8.962Q24.8006 -10.3082 26.5028 -10.3082Z" fill="#262626" transform="translate(77.66368357340495,349.59333333333336) translate(-30.924480438232422,0)" />
<line x1="82.52479468451607" y1="294.90555555555557" x2="87.78590579562719" y2="294.90555555555557" stroke="#262626" stroke-width="1.1111111111111112" />
<path d="M4.41488 -9.22309Q3.35693 -9.22309 2.82457 -8.1821Q2.29221 -7.14111 2.29221 -5.05235Q2.29221 -2.97038 2.82457 -1.92939Q3.35693 -0.888401 4.41488 -0.888401Q5.4796 -0.888401 6.01196 -1.92939Q6.54433 -2.97038 6.54433 -5.05235Q6.54433 -7.14111 6.01196 -8.1821Q5.4796 -9.22309 4.41488 -9.22309ZM4.41488 -10.3082Q6.11708 -10.3082 7.01565 -8.962Q7.91422 -7.61583 7.91423 -5.05235Q7.91423 -2.49566 7.01565 -1.1495Q6.11708 0.196669 4.41488 0.196669Q2.71267 0.196669 1.8141 -1.1495Q0.915527 -2.49566 0.915527 -5.05235Q0.915527 -7.61583 1.8141 -8.962Q2.71267 -10.3082 4.41488 -10.3082ZM10.3217 -1.72255L11.7527 -1.72255L11.7527 0L10.3217 0L10.3217 -1.72255ZM15.9166 -1.15289L20.6977 -1.15289L20.6977 0L14.2687 0L14.2687 -1.15289Q15.0486 -1.95991 16.3947 -3.31963Q17.7409 -4.67936 18.0868 -5.0727Q18.7446 -5.8119 19.0057 -6.32392Q19.2668 -6.83594 19.2668 -7.331Q19.2668 -8.13802 18.7005 -8.64665Q18.1342 -9.15527 17.2255 -9.15527Q16.5812 -9.15527 15.8658 -8.93148Q15.1503 -8.70768 14.3365 -8.25331L14.3365 -9.63677Q15.1638 -9.96908 15.8827 -10.1386Q16.6016 -10.3082 17.1984 -10.3082Q18.7717 -10.3082 19.7076 -9.52148Q20.6434 -8.73481 20.6434 -7.41916Q20.6434 -6.79525 20.4095 -6.23576Q20.1755 -5.67627 19.5584 -4.91672Q19.3888 -4.72005 18.4801 -3.78079Q17.5713 -2.84153 15.9166 -1.15289ZM23.5867 -10.1251L28.9646 -10.1251L28.9646 -8.97217L24.8413 -8.97217L24.8413 -6.49007Q25.1397 -6.5918 25.4381 -6.64266Q25.7365 -6.69352 26.0349 -6.69352Q27.7303 -6.69352 28.7204 -5.76443Q29.7106 -4.83534 29.7106 -3.24843Q29.7106 -1.61404 28.6933 -0.708686Q27.6761 0.196669 25.8247 0.196669Q25.1872 0.196669 24.526 0.0881619C24.0852 0.0158239 23.6296 -0.092683 23.1595 -0.237359L23.1595 -1.61404Q23.7698 -1.28174 24.4208 -1.11898Q25.0719 -0.956217 25.7975 -0.956217Q26.9708 -0.956217 27.6557 -1.57335Q28.3407 -2.19048 28.3407 -3.24843Q28.3407 -4.30637 27.6557 -4.9235Q26.9708 -5.54064 25.7975 -5.54064Q25.2482 -5.54064 24.7023 -5.41857Q24.1564 -5.2965 23.5867 -5.03879L23.5867 -10.1251Z" fill="#262626" transform="translate(77.66368357340495,298.90555555555557) translate(-30.924480438232422,0)" />
<line x1="82.52479468451607" y1="244.21777777777783" x2="87.78590579562719" y2="244.21777777777783" stroke="#262626" stroke-width="1.1111111111111112" />
<path d="M4.41488 -9.22309Q3.35693 -9.22309 2.82457 -8.1821Q2.29221 -7.14111 2.29221 -5.05235Q2.29221 -2.97038 2.82457 -1.92939Q3.35693 -0.888401 4.41488 -0.888401Q5.4796 -0.888401 6.01196 -1.92939Q6.54433 -2.97038 6.54433 -5.05235Q6.54433 -7.14111 6.01196 -8.1821Q5.4796 -9.22309 4.41488 -9.22309ZM4.41488 -10.3082Q6.11708 -10.3082 7.01565 -8.962Q7.91422 -7.61583 7.91423 -5.05235Q7.91423 -2.49566 7.01565 -1.1495Q6.11708 0.196669 4.41488 0.196669Q2.71267 0.196669 1.8141 -1.1495Q0.915527 -2.49566 0.915527 -5.05235Q0.915527 -7.61583 1.8141 -8.962Q2.71267 -10.3082 4.41488 -10.3082ZM10.3217 -1.72255L11.7527 -1.72255L11.7527 0L10.3217 0L10.3217 -1.72255ZM14.7502 -10.1251L20.128 -10.1251L20.128 -8.97217L16.0048 -8.97217L16.0048 -6.49007Q16.3032 -6.5918 16.6016 -6.64266Q16.9 -6.69352 17.1984 -6.69352Q18.8938 -6.69352 19.8839 -5.76443Q20.874 -4.83534 20.874 -3.24843Q20.874 -1.61404 19.8568 -0.708686Q18.8395 0.196669 16.9881 0.196669Q16.3506 0.196669 15.6894 0.0881619C15.2486 0.0158239 14.7931 -0.092683 14.3229 -0.237359L14.3229 -1.61404Q14.9333 -1.28174 15.5843 -1.11898Q16.2354 -0.956217 16.961 -0.956217Q18.1342 -0.956217 18.8192 -1.57335Q19.5041 -2.19048 19.5041 -3.24843Q19.5041 -4.30637 18.8192 -4.9235Q18.1342 -5.54064 16.961 -5.54064Q16.4117 -5.54064 15.8658 -5.41857Q15.3198 -5.2965 14.7502 -5.03879L14.7502 -10.1251ZM26.5028 -9.22309Q25.4449 -9.22309 24.9125 -8.1821Q24.3802 -7.14111 24.3802 -5.05235Q24.3802 -2.97038 24.9125 -1.92939Q25.4449 -0.888401 26.5028 -0.888401Q27.5675 -0.888401 28.0999 -1.92939Q28.6323 -2.97038 28.6323 -5.05235Q28.6323 -7.14111 28.0999 -8.1821Q27.5675 -9.22309 26.5028 -9.22309ZM26.5028 -10.3082Q28.205 -10.3082 29.1036 -8.962Q30.0022 -7.61583 30.0022 -5.05235Q30.0022 -2.49566 29.1036 -1.1495Q28.205 0.196669 26.5028 0.196669Q24.8006 0.196669 23.902 -1.1495Q23.0035 -2.49566 23.0035 -5.05235Q23.0035 -7.61583 23.902 -8.962Q24.8006 -10.3082 26.5028 -10.3082Z" fill="#262626" transform="translate(77.66368357340495,248.21777777777783) translate(-30.924480438232422,0)" />
<line x1="82.52479468451607" y1="193.53000000000003" x2="87.78590579562719" y2="193.53000000000003" stroke="#262626" stroke-width="1.1111111111111112" />
<path d="M4.41488 -9.22309Q3.35693 -9.22309 2.82457 -8.1821Q2.29221 -7.14111 2.29221 -5.05235Q2.29221 -2.97038 2.82457 -1.92939Q3.35693 -0.888401 4.41488 -0.888401Q5.4796 -0.888401 6.01196 -1.92939Q6.54433 -2.97038 6.54433 -5.05235Q6.54433 -7.14111 6.01196 -8.1821Q5.4796 -9.22309 4.41488 -9.22309ZM4.41488 -10.3082Q6.11708 -10.3082 7.01565 -8.962Q7.91422 -7.61583 7.91423 -5.05235Q7.91423 -2.49566 7.01565 -1.1495Q6.11708 0.196669 4.41488 0.196669Q2.71267 0.196669 1.8141 -1.1495Q0.915527 -2.49566 0.915527 -5.05235Q0.915527 -7.61583 1.8141 -8.962Q2.71267 -10.3082 4.41488 -10.3082ZM10.3217 -1.72255L11.7527 -1.72255L11.7527 0L10.3217 0L10.3217 -1.72255ZM14.3907 -10.1251L20.9012 -10.1251L20.9012 -9.54183L17.2255 0L15.7945 0L19.2532 -8.97217L14.3907 -8.97217L14.3907 -10.1251ZM23.5867 -10.1251L28.9646 -10.1251L28.9646 -8.97217L24.8413 -8.97217L24.8413 -6.49007Q25.1397 -6.5918 25.4381 -6.64266Q25.7365 -6.69352 26.0349 -6.69352Q27.7303 -6.69352 28.7204 -5.76443Q29.7106 -4.83534 29.7106 -3.24843Q29.7106 -1.61404 28.6933 -0.708686Q27.6761 0.196669 25.8247 0.196669Q25.1872 0.196669 24.526 0.0881619C24.0852 0.0158239 23.6296 -0.092683 23.1595 -0.237359L23.1595 -1.61404Q23.7698 -1.28174 24.4208 -1.11898Q25.0719 -0.956217 25.7975 -0.956217Q26.9708 -0.956217 27.6557 -1.57335Q28.3407 -2.19048 28.3407 -3.24843Q28.3407 -4.30637 27.6557 -4.9235Q26.9708 -5.54064 25.7975 -5.54064Q25.2482 -5.54064 24.7023 -5.41857Q24.1564 -5.2965 23.5867 -5.03879L23.5867 -10.1251Z" fill="#262626" transform="translate(77.66368357340495,197.53000000000003) translate(-30.924480438232422,0)" />
<line x1="82.52479468451607" y1="142.84222222222226" x2="87.78590579562719" y2="142.84222222222226" stroke="#262626" stroke-width="1.1111111111111112" />
<path d="M1.72255 -1.15289L3.9605 -1.15289L3.9605 -8.87722L1.52588 -8.38894L1.52588 -9.63677L3.94694 -10.1251L5.31684 -10.1251L5.31684 -1.15289L7.5548 -1.15289L7.5548 0L1.72255 0L1.72255 -1.15289ZM10.3217 -1.72255L11.7527 -1.72255L11.7527 0L10.3217 0L10.3217 -1.72255ZM17.6663 -9.22309Q16.6083 -9.22309 16.076 -8.1821Q15.5436 -7.14111 15.5436 -5.05235Q15.5436 -2.97038 16.076 -1.92939Q16.6083 -0.888401 17.6663 -0.888401Q18.731 -0.888401 19.2634 -1.92939Q19.7957 -2.97038 19.7957 -5.05235Q19.7957 -7.14111 19.2634 -8.1821Q18.731 -9.22309 17.6663 -9.22309ZM17.6663 -10.3082Q19.3685 -10.3082 20.2671 -8.962Q21.1656 -7.61583 21.1656 -5.05235Q21.1656 -2.49566 20.2671 -1.1495Q19.3685 0.196669 17.6663 0.196669Q15.9641 0.196669 15.0655 -1.1495Q14.1669 -2.49566 14.1669 -5.05235Q14.1669 -7.61583 15.0655 -8.962Q15.9641 -10.3082 17.6663 -10.3082ZM26.5028 -9.22309Q25.4449 -9.22309 24.9125 -8.1821Q24.3802 -7.14111 24.3802 -5.05235Q24.3802 -2.97038 24.9125 -1.92939Q25.4449 -0.888401 26.5028 -0.888401Q27.5675 -0.888401 28.0999 -1.92939Q28.6323 -2.97038 28.6323 -5.05235Q28.6323 -7.14111 28.0999 -8.1821Q27.5675 -9.22309 26.5028 -9.22309ZM26.5028 -10.3082Q28.205 -10.3082 29.1036 -8.962Q30.0022 -7.61583 30.0022 -5.05235Q30.0022 -2.49566 29.1036 -1.1495Q28.205 0.196669 26.5028 0.196669Q24.8006 0.196669 23.902 -1.1495Q23.0035 -2.49566 23.0035 -5.05235Q23.0035 -7.61583 23.902 -8.962Q24.8006 -10.3082 26.5028 -10.3082Z" fill="#262626" transform="translate(77.66368357340495,146.84222222222226) translate(-30.924480438232422,0)" />
<line x1="82.52479468451607" y1="92.1544444444445" x2="87.78590579562719" y2="92.1544444444445" stroke="#262626" stroke-width="1.1111111111111112" />
<path d="M1.72255 -1.15289L3.9605 -1.15289L3.9605 -8.87722L1.52588 -8.38894L1.52588 -9.63677L3.94694 -10.1251L5.31684 -10.1251L5.31684 -1.15289L7.5548 -1.15289L7.5548 0L1.72255 0L1.72255 -1.15289ZM10.3217 -1.72255L11.7527 -1.72255L11.7527 0L10.3217 0L10.3217 -1.72255ZM15.9166 -1.15289L20.6977 -1.15289L20.6977 0L14.2687 0L14.2687 -1.15289Q15.0486 -1.95991 16.3947 -3.31963Q17.7409 -4.67936 18.0868 -5.0727Q18.7446 -5.8119 19.0057 -6.32392Q19.2668 -6.83594 19.2668 -7.331Q19.2668 -8.13802 18.7005 -8.64665Q18.1342 -9.15527 17.2255 -9.15527Q16.5812 -9.15527 15.8658 -8.93148Q15.1503 -8.70768 14.3365 -8.25331L14.3365 -9.63677Q15.1638 -9.96908 15.8827 -10.1386Q16.6016 -10.3082 17.1984 -10.3082Q18.7717 -10.3082 19.7076 -9.52148Q20.6434 -8.73481 20.6434 -7.41916Q20.6434 -6.79525 20.4095 -6.23576Q20.1755 -5.67627 19.5584 -4.91672Q19.3888 -4.72005 18.4801 -3.78079Q17.5713 -2.84153 15.9166 -1.15289ZM23.5867 -10.1251L28.9646 -10.1251L28.9646 -8.97217L24.8413 -8.97217L24.8413 -6.49007Q25.1397 -6.5918 25.4381 -6.64266Q25.7365 -6.69352 26.0349 -6.69352Q27.7303 -6.69352 28.7204 -5.76443Q29.7106 -4.83534 29.7106 -3.24843Q29.7106 -1.61404 28.6933 -0.708686Q27.6761 0.196669 25.8247 0.196669Q25.1872 0.196669 24.526 0.0881619C24.0852 0.0158239 23.6296 -0.092683 23.1595 -0.237359L23.1595 -1.61404Q23.7698 -1.28174 24.4208 -1.11898Q25.0719 -0.956217 25.7975 -0.956217Q26.9708 -0.956217 27.6557 -1.57335Q28.3407 -2.19048 28.3407 -3.24843Q28.3407 -4.30637 27.6557 -4.9235Q26.9708 -5.54064 25.7975 -5.54064Q25.2482 -5.54064 24.7023 -5.41857Q24.1564 -5.2965 23.5867 -5.03879L23.5867 -10.1251Z" fill="#262626" transform="translate(77.66368357340495,96.1544444444445) translate(-30.924480438232422,0)" />
<line x1="82.52479468451607" y1="41.4666666666667" x2="87.78590579562719" y2="41.4666666666667" stroke="#262626" stroke-width="1.1111111111111112" />
<path d="M1.72255 -1.15289L3.9605 -1.15289L3.9605 -8.87722L1.52588 -8.38894L1.52588 -9.63677L3.94694 -10.1251L5.31684 -10.1251L5.31684 -1.15289L7.5548 -1.15289L7.5548 0L1.72255 0L1.72255 -1.15289ZM10.3217 -1.72255L11.7527 -1.72255L11.7527 0L10.3217 0L10.3217 -1.72255ZM14.7502 -10.1251L20.128 -10.1251L20.128 -8.97217L16.0048 -8.97217L16.0048 -6.49007Q16.3032 -6.5918 16.6016 -6.64266Q16.9 -6.69352 17.1984 -6.69352Q18.8938 -6.69352 19.8839 -5.76443Q20.874 -4.83534 20.874 -3.24843Q20.874 -1.61404 19.8568 -0.708686Q18.8395 0.196669 16.9881 0.196669Q16.3506 0.196669 15.6894 0.0881619C15.2486 0.0158239 14.7931 -0.092683 14.3229 -0.237359L14.3229 -1.61404Q14.9333 -1.28174 15.5843 -1.11898Q16.2354 -0.956217 16.961 -0.956217Q18.1342 -0.956217 18.8192 -1.57335Q19.5041 -2.19048 19.5041 -3.24843Q19.5041 -4.30637 18.8192 -4.9235Q18.1342 -5.54064 16.961 -5.54064Q16.4117 -5.54064 15.8658 -5.41857Q15.3198 -5.2965 14.7502 -5.03879L14.7502 -10.1251ZM26.5028 -9.22309Q25.4449 -9.22309 24.9125 -8.1821Q24.3802 -7.14111 24.3802 -5.05235Q24.3802 -2.97038 24.9125 -1.92939Q25.4449 -0.888401 26.5028 -0.888401Q27.5675 -0.888401 28.0999 -1.92939Q28.6323 -2.97038 28.6323 -5.05235Q28.6323 -7.14111 28.0999 -8.1821Q27.5675 -9.22309 26.5028 -9.22309ZM26.5028 -10.3082Q28.205 -10.3082 29.1036 -8.962Q30.0022 -7.61583 30.0022 -5.05235Q30.0022 -2.49566 29.1036 -1.1495Q28.205 0.196669 26.5028 0.196669Q24.8006 0.196669 23.902 -1.1495Q23.0035 -2.49566 23.0035 -5.05235Q23.0035 -7.61583 23.902 -8.962Q24.8006 -10.3082 26.5028 -10.3082Z" fill="#262626" transform="translate(77.66368357340495,45.4666666666667) translate(-30.924480438232422,0)" />
<g class="series" aria-label="e^{-0.15t} cos(2t)">
<polyline points="202.82158816302265,142.84222222222226 205.13030181037055,149.84214605509706 207.43901545771848,164.36637592580414 209.74772910506638,185.61890112546433 212.05644275241428,212.56150287102648 214.3651563997622,243.96191704360095 216.6738700471101,278.4482373152785 218.98258369445801,314.5672255838371 221.29129734180594,350.84411126872806 223.60001098915384,385.84147369511624 225.90872463650174,418.2149091074944 228.21743828384967,446.7633787750266 230.52615193119757,470.47240688977547 232.83486557854548,488.5486334791672 235.14357922589338,500.4446131647836 237.4522928732413,505.87316862033555 239.7610065205892,504.81104054488225 242.0697201679371,497.49200633153447 244.37843381528504,484.3900504566235 246.68714746263294,466.193545290214 248.99586110998084,443.7717277379832 251.30457475732877,418.1350234107032 253.61328840467667,390.3909671496525 255.92200205202457,361.69759097233487 258.23071569937247,333.2161952287042 260.5394293467204,306.0653864980134 262.8481429940683,281.2781600598084 265.1568566414162,259.76363198433705 267.4655702887641,242.2747948148608 269.77428393611206,229.38339230581664 272.0829975834599,221.46269513811282 274.39171123080786,218.678624374805 276.7004248781558,220.98932652289267 279.00913852550366,228.15296720144167 281.3178521728516,239.7431927089086 283.62656582019946,255.17142221503423 285.9352794675474,273.7148882726444 288.2439931148953,294.5491483019741 290.55270676224325,316.78365087058 292.8614204095911,339.49886179723006 295.17013405693905,361.78343768606726 297.478847704287,382.7699773220755 299.78756135163485,401.6679809585098 302.0962749989828,417.79279828986313 304.4049886463307,430.5895403636273 306.7137022936786,439.65115986898724 309.0224159410265,444.7301580727006 311.3311295883744,445.74364439825564 313.6398432357223,442.7717452795191 315.94855688307024,436.0496216897781 318.2572705304181,425.9535995057239 320.56598417776604,412.98213447910234 322.87469782511397,397.7325162641035 325.1834114724619,380.87435750389784 327.49212511980977,363.1210100396167 329.8008387671577,345.20009842020676 332.1095524145056,327.8243605786758 334.4182660618535,311.6639382428746 336.72697970920143,297.3211686237656 339.0356933565493,285.3087990584885 341.34440700389723,276.0323838563895 343.65312065124516,269.7774349810777 345.96183429859303,266.7016935547015 348.27054794594096,266.83267607789503 350.5792615932889,270.0704363859311 352.88797524063676,276.19528010943355 355.1966888879847,284.8799805887138 357.5054025353326,295.7058807366384 359.8141161826805,308.18213006048495 362.1228298300284,321.76720441944997 364.4315434773763,335.891791130844 366.7402571247242,349.9820952264951 369.04897077207215,363.48263393286 371.3576844194201,375.877634233068 373.66639806676795,386.71022970023535 375.9751117141159,395.5987634652773 378.2838253614638,402.2496389608274 380.5925390088117,406.4663129302994 382.9012526561596,408.1541895368666 385.2099663035075,407.32134342053064 387.5186799508554,404.0751664193854 389.82739359820334,398.6151908666106 392.1361072455513,391.2224859060478 394.44482089289914,382.24614690104494 396.7535345402471,372.0874974488851 399.06224818759495,361.18269554430924 401.3709618349429,349.9844780255079 403.6796754822908,338.94378977253393 405.98838912963873,328.49202661826786 408.2971027769866,319.0245751494841 410.60581642433453,310.88626116400263 412.9145300716824,304.3592250871954 415.22324371903034,299.6536314802827 417.53195736637826,296.90149580793576 419.84067101372614,296.1537801478073 422.14938466107407,297.3807759349881 424.458098308422,300.47566147834954 426.7668119557699,305.2609999161221 429.0755256031178,311.4978340711097 431.3842392504657,318.8969422546266 433.6929528978136,327.1317466059576 436.0016665451615,335.85231531320443 438.31038019250946,344.6998733693012 440.6190938398573,353.32123373200767 442.92780748720526,361.3825812822269 445.23652113455313,368.5820843114864 447.5452347819011,374.66087010015445 449.853948429249,379.4119794548087 452.1626620765969,382.6870062764598 454.4713757239448,384.40022834783196 456.7800893712927,384.5301403401132 459.08880301864065,383.1184052691518 461.3975166659885,380.26634210964465 463.70623031333645,376.1291611063837 466.0149439606843,370.90824102431856 468.32365760803225,364.8418112165765 470.6323712553802,358.19445366653406 472.9410849027281,351.2458744953914 475.249798550076,344.27940999465 477.5585121974239,337.5707289832432 479.8672258447718,331.37717188698537 482.1759394921197,325.9281287749687 484.48465313946764,321.4168056661446 486.79336678681557,317.99366326588535 489.10208043416344,315.76173784157936 491.41079408151137,314.77397341347057 493.7195077288593,315.0326111824042 496.02822137620717,316.49059950846726 498.3369350235551,319.05490903717055 500.645648670903,322.591565736783 502.9543623182509,326.93215229526794 505.26307596559883,331.88147770783434 507.57178961294676,337.22607761980845 509.88050326029463,342.7431851516069 512.1892169076425,348.20980399859917 514.4979305549905,353.41152244147884 516.8066442023384,358.1507278154178 519.1153578496862,362.2539147270044 521.4240714970342,365.57782516504284 523.7327851443821,368.01421252454094 526.04149879173,369.4930820584714 528.350212439078,369.9843248041601 530.6589260864258,369.49772793244694 532.9676397337737,368.0814090948385 535.2763533811217,365.8187831819453 537.5850670284696,362.8242246647558 539.8937806758174,359.2376353857511 542.2024943231654,355.2181646935741 544.5112079705133,350.9373549963062 546.8199216178612,346.5720004308901 549.128635265209,342.297009173953 551.437348912557,338.27855118914977 553.7460625599049,334.667753604538 556.0547762072529,331.5951765358806 558.3634898546007,329.16626446734415 560.6722035019486,327.45792400504587 562.9809171492966,326.5163298755826 565.2896307966445,326.35600952141453 567.5983444439923,326.9602046587227 569.9070580913402,328.28245777808377 572.2157717386882,330.24932472665125 574.5244853860361,332.7640729577851 576.833199033384,335.71119025503646 579.1419126807319,338.96150190548417 581.4506263280798,342.37767623747686 583.7593399754277,345.81988960389225 586.0680536227757,349.1514223603081 588.3767672701235,352.2439668645641 590.6854809174715,354.9824463695483 592.9941945648194,357.26916894252486 595.3029082121673,359.0271720050666 597.6116218595153,360.2026493219034 599.9203355068631,360.7663917025932 602.229049154211,360.71421366475556 604.537762801559,360.06637917718473 606.8464764489069,358.8660787447551 609.1551900962547,357.17704601967455 611.4639037436026,355.0804335017659 613.7726173909506,352.6710926190925 616.0813310382985,350.05342271021163 618.3900446856463,347.33696559321237 620.6987583329943,344.63192723289797 623.0074719803422,342.0448055322591 625.3161856276901,339.67429379198404 627.624899275038,337.6076134834844 629.9336129223859,335.9174084842792 632.2423265697339,334.65930684406385 634.5510402170817,333.87022665089955 636.8597538644296,333.56747091578364 639.1684675117776,333.748623904083 641.4771811591255,334.3922293218792 643.7858948064734,335.4592004649812 646.0946084538214,336.89488500406077 648.4033221011692,338.63168350988644 650.7120357485171,340.59210193461774 653.020749395865,342.69210466619506 655.329463043213,344.8446268438061 657.6381766905608,346.96310250879554 659.9468903379087,348.9648687788381 662.2556039852567,350.7743152617213" fill="none" stroke="#1F77B4" stroke-width="1.2" />
</g>
<g class="spine">
<line x1="87.38590579562718" y1="548.3444444444444" x2="780" y2="548.3444444444444" stroke="#262626" stroke-width="0.8" />
</g>
<g class="spine">
<line x1="87.38590579562718" y1="41.46666666666667" x2="87.38590579562718" y2="548.3444444444444" stroke="#262626" stroke-width="0.8" />
</g>
<rect x="582.9699978298611" y="51.46666666666667" width="187.03000217013889" height="25.72222222222222" fill="#FFFFFF" fill-opacity="0.8" stroke="#CCCCCC" stroke-width="0.5" />
<g class="legend" aria-label="Chart legend">
<line x1="590.9699978298611" y1="64.32777777777778" x2="618.7477756076389" y2="64.32777777777778" stroke="#1F77B4" stroke-width="1.2" />
<path d="M7.80572 -4.1097L7.80572 -3.49935L2.06841 -3.49935Q2.14979 -2.21083 2.84492 -1.53605Q3.54004 -0.861274 4.78109 -0.861274Q5.49995 -0.861274 6.17472 -1.0376Q6.8495 -1.21392 7.51411 -1.56657L7.51411 -0.386556Q6.84272 -0.101725 6.13742 0.0474718Q5.43213 0.196669 4.70649 0.196669Q2.889 0.196669 1.82766 -0.861274Q0.76633 -1.91922 0.76633 -3.72314Q0.76633 -5.58811 1.77341 -6.68335Q2.78049 -7.77859 4.48947 -7.77859Q6.02214 -7.77859 6.91393 -6.79186Q7.80572 -5.80512 7.80572 -4.1097ZM6.55789 -4.47591Q6.54432 -5.49995 5.98484 -6.1103Q5.42535 -6.72065 4.50304 -6.72065Q3.45866 -6.72065 2.83135 -6.13064Q2.20405 -5.54064 2.1091 -4.46913L6.55789 -4.47591ZM15.0282 -10.1251L18.7107 -6.34766L17.3475 -6.34766L14.3636 -9.02642L11.3797 -6.34766L10.0165 -6.34766L13.699 -10.1251L15.0282 -10.1251ZM27.2827 1.28852L27.2827 2.26508L26.8623 2.26508Q25.1736 2.26508 24.6006 1.76324Q24.0275 1.26139 24.0275 -0.237359L24.0275 -1.85818Q24.0275 -2.88222 23.6613 -3.27555Q23.2951 -3.66889 22.3321 -3.66889L21.9184 -3.66889L21.9184 -4.63867L22.3321 -4.63867Q23.3019 -4.63867 23.6647 -5.02862Q24.0275 -5.41857 24.0275 -6.42904L24.0275 -8.05664Q24.0275 -9.55539 24.6006 -10.0538Q25.1736 -10.5523 26.8623 -10.5523L27.2827 -10.5523L27.2827 -9.58252L26.8216 -9.58252Q25.8653 -9.58252 25.5737 -9.28413Q25.2821 -8.98573 25.2821 -8.02951L25.2821 -6.34766Q25.2821 -5.28293 24.9736 -4.80143Q24.665 -4.31993 23.919 -4.15039Q24.6718 -3.96729 24.9769 -3.48579Q25.2821 -3.00429 25.2821 -1.94634L25.2821 -0.264486Q25.2821 0.691732 25.5737 0.990126Q25.8653 1.28852 26.8216 1.28852L27.2827 1.28852ZM29.697 -4.36062L33.3523 -4.36062L33.3523 -3.24843L29.697 -3.24843L29.697 -4.36062ZM38.4454 -9.22309Q37.3874 -9.22309 36.8551 -8.1821Q36.3227 -7.14111 36.3227 -5.05235Q36.3227 -2.97038 36.8551 -1.92939Q37.3874 -0.888401 38.4454 -0.888401Q39.5101 -0.888401 40.0425 -1.92939Q40.5748 -2.97038 40.5748 -5.05235Q40.5748 -7.14111 40.0425 -8.1821Q39.5101 -9.22309 38.4454 -9.22309ZM38.4454 -10.3082Q40.1476 -10.3082 41.0461 -8.962Q41.9447 -7.61583 41.9447 -5.05235Q41.9447 -2.49566 41.0461 -1.1495Q40.1476 0.196669 38.4454 0.196669Q36.7432 0.196669 35.8446 -1.1495Q34.946 -2.49566 34.946 -5.05235Q34.946 -7.61583 35.8446 -8.962Q36.7432 -10.3082 38.4454 -10.3082ZM44.3522 -1.72255L45.7831 -1.72255L45.7831 0L44.3522 0L44.3522 -1.72255ZM49.0045 -1.15289L51.2424 -1.15289L51.2424 -8.87722L48.8078 -8.38894L48.8078 -9.63677L51.2288 -10.1251L52.5987 -10.1251L52.5987 -1.15289L54.8367 -1.15289L54.8367 0L49.0045 0L49.0045 -1.15289ZM57.6172 -10.1251L62.9951 -10.1251L62.9951 -8.97217L58.8718 -8.97217L58.8718 -6.49007Q59.1702 -6.5918 59.4686 -6.64266Q59.767 -6.69352 60.0654 -6.69352Q61.7608 -6.69352 62.7509 -5.76443Q63.7411 -4.83534 63.7411 -3.24843Q63.7411 -1.61404 62.7238 -0.708686Q61.7065 0.196669 59.8551 0.196669Q59.2177 0.196669 58.5565 0.0881619C58.1156 0.0158239 57.6601 -0.092683 57.1899 -0.237359L57.1899 -1.61404Q57.8003 -1.28174 58.4513 -1.11898Q59.1024 -0.956217 59.828 -0.956217Q61.0013 -0.956217 61.6862 -1.57335Q62.3712 -2.19048 62.3712 -3.24843Q62.3712 -4.30637 61.6862 -4.9235Q61.0013 -5.54064 59.828 -5.54064Q59.2787 -5.54064 58.7328 -5.41857Q58.1869 -5.2965 57.6172 -5.03879L57.6172 -10.1251ZM67.4981 -9.75206L67.4981 -7.59549L70.0684 -7.59549L70.0684 -6.62571L67.4981 -6.62571L67.4981 -2.50244Q67.4981 -1.57335 67.7524 -1.30887Q68.0067 -1.04438 68.7866 -1.04438L70.0684 -1.04438L70.0684 0L68.7866 0Q67.3421 0 66.7928 -0.539144Q66.2435 -1.07829 66.2435 -2.50244L66.2435 -6.62571L65.328 -6.62571L65.328 -7.59549L66.2435 -7.59549L66.2435 -9.75206L67.4981 -9.75206ZM72.1368 1.28852L72.6115 1.28852Q73.5609 1.28852 73.8492 0.996908Q74.1374 0.705295 74.1374 -0.264486L74.1374 -1.94634Q74.1374 -3.00429 74.4426 -3.48579Q74.7477 -3.96729 75.5005 -4.15039Q74.7477 -4.31993 74.4426 -4.80143Q74.1374 -5.28293 74.1374 -6.34766L74.1374 -8.02951Q74.1374 -8.99251 73.8492 -9.28752Q73.5609 -9.58252 72.6115 -9.58252L72.1368 -9.58252L72.1368 -10.5523L72.564 -10.5523Q74.2527 -10.5523 74.8189 -10.0538Q75.3852 -9.55539 75.3852 -8.05664L75.3852 -6.42904Q75.3852 -5.41857 75.7514 -5.02862Q76.1176 -4.63867 77.0806 -4.63867L77.5011 -4.63867L77.5011 -3.66889L77.0806 -3.66889Q76.1176 -3.66889 75.7514 -3.27555Q75.3852 -2.88222 75.3852 -1.85818L75.3852 -0.237359Q75.3852 1.26139 74.8189 1.76324Q74.2527 2.26508 72.564 2.26508L72.1368 2.26508L72.1368 1.28852ZM90.427 -7.30387L90.427 -6.13742Q89.898 -6.42904 89.3656 -6.57484Q88.8333 -6.72065 88.2907 -6.72065Q87.0768 -6.72065 86.4054 -5.95093Q85.7341 -5.18121 85.7341 -3.79096Q85.7341 -2.40072 86.4054 -1.631Q87.0768 -0.861274 88.2907 -0.861274Q88.8333 -0.861274 89.3656 -1.00708Q89.898 -1.15289 90.427 -1.4445L90.427 -0.291612Q89.9048 -0.0474718 89.3453 0.0745985Q88.7858 0.196669 88.1551 0.196669Q86.4393 0.196669 85.4289 -0.881619Q84.4184 -1.95991 84.4184 -3.79096Q84.4184 -5.64914 85.439 -6.71387Q86.4597 -7.77859 88.2365 -7.77859Q88.8129 -7.77859 89.3623 -7.65991Q89.9116 -7.54123 90.427 -7.30387ZM95.5404 -6.72065Q94.5367 -6.72065 93.9535 -5.93736Q93.3702 -5.15408 93.3702 -3.79096Q93.3702 -2.42784 93.9501 -1.64456Q94.5299 -0.861274 95.5404 -0.861274Q96.5373 -0.861274 97.1205 -1.64795Q97.7037 -2.43462 97.7037 -3.79096Q97.7037 -5.14052 97.1205 -5.93058Q96.5373 -6.72065 95.5404 -6.72065ZM95.5404 -7.77859Q97.168 -7.77859 98.0971 -6.72065Q99.0262 -5.66271 99.0262 -3.79096Q99.0262 -1.926 98.0971 -0.864665Q97.168 0.196669 95.5404 0.196669Q93.906 0.196669 92.9803 -0.864665Q92.0546 -1.926 92.0546 -3.79096Q92.0546 -5.66271 92.9803 -6.72065Q93.906 -7.77859 95.5404 -7.77859ZM105.937 -7.37169L105.937 -6.19168Q105.408 -6.46294 104.838 -6.59858Q104.268 -6.73421 103.658 -6.73421Q102.729 -6.73421 102.264 -6.44938Q101.8 -6.16455 101.8 -5.59489Q101.8 -5.16086 102.132 -4.91333Q102.464 -4.6658 103.468 -4.442L103.895 -4.34706Q105.225 -4.06223 105.784 -3.54343Q106.344 -3.02463 106.344 -2.09554Q106.344 -1.0376 105.506 -0.420464Q104.669 0.196669 103.204 0.196669Q102.593 0.196669 101.932 0.0779894Q101.271 -0.0406901 100.538 -0.278049L100.538 -1.56657Q101.23 -1.20714 101.902 -1.02743Q102.573 -0.84771 103.231 -0.847711Q104.112 -0.847711 104.587 -1.1495Q105.062 -1.45128 105.062 -2.0006Q105.062 -2.50922 104.719 -2.78049Q104.377 -3.05176 103.217 -3.30268L102.783 -3.40441Q101.624 -3.64855 101.108 -4.15378Q100.593 -4.65902 100.593 -5.54064Q100.593 -6.61214 101.352 -7.19537Q102.112 -7.77859 103.509 -7.77859Q104.201 -7.77859 104.811 -7.67687Q105.421 -7.57514 105.937 -7.37169ZM111.328 -10.5387Q110.419 -8.97895 109.979 -7.45307Q109.538 -5.92719 109.538 -4.36062Q109.538 -2.79405 109.982 -1.258Q110.426 0.278049 111.328 1.83105L110.243 1.83105Q109.226 0.237359 108.721 -1.30208Q108.215 -2.84153 108.215 -4.36062Q108.215 -5.87294 108.717 -7.4056Q109.219 -8.93826 110.243 -10.5387L111.328 -10.5387ZM115.106 -1.15289L119.887 -1.15289L119.887 0L113.458 0L113.458 -1.15289Q114.237 -1.95991 115.584 -3.31963Q116.93 -4.67936 117.276 -5.0727Q117.933 -5.8119 118.195 -6.32392Q118.456 -6.83594 118.456 -7.331Q118.456 -8.13802 117.889 -8.64665Q117.323 -9.15527 116.414 -9.15527Q115.77 -9.15527 115.055 -8.93148Q114.339 -8.70768 113.525 -8.25331L113.525 -9.63677Q114.353 -9.96908 115.072 -10.1386Q115.79 -10.3082 116.387 -10.3082Q117.961 -10.3082 118.896 -9.52148Q119.832 -8.73481 119.832 -7.41916Q119.832 -6.79525 119.598 -6.23576Q119.364 -5.67627 118.747 -4.91672Q118.578 -4.72005 117.669 -3.78079Q116.76 -2.84153 115.106 -1.15289ZM123.82 -9.75206L123.82 -7.59549L126.39 -7.59549L126.39 -6.62571L123.82 -6.62571L123.82 -2.50244Q123.82 -1.57335 124.074 -1.30887Q124.329 -1.04438 125.109 -1.04438L126.39 -1.04438L126.39 0L125.109 0Q123.664 0 123.115 -0.539144Q122.565 -1.07829 122.565 -2.50244L122.565 -6.62571L121.65 -6.62571L121.65 -7.59549L122.565 -7.59549L122.565 -9.75206L123.82 -9.75206ZM127.835 -10.5387L128.92 -10.5387Q129.937 -8.93826 130.442 -7.4056Q130.948 -5.87294 130.948 -4.36062Q130.948 -2.84153 130.442 -1.30208Q129.937 0.237359 128.92 1.83105L127.835 1.83105Q128.737 0.278049 129.181 -1.258Q129.625 -2.79405 129.625 -4.36062Q129.625 -5.92719 129.181 -7.45307Q128.737 -8.97895 127.835 -10.5387Z" fill="#262626" transform="translate(629.85888671875,68.1888888888889)" />
</g>
<path d="M2.54313 -9.75206L2.54313 -7.59549L5.11339 -7.59549L5.11339 -6.62571L2.54313 -6.62571L2.54313 -2.50244Q2.54313 -1.57335 2.79744 -1.30887Q3.05176 -1.04438 3.83165 -1.04438L5.11339 -1.04438L5.11339 0L3.83165 0Q2.38715 0 1.83784 -0.539144Q1.28852 -1.07829 1.28852 -2.50244L1.28852 -6.62571L0.372993 -6.62571L0.372993 -7.59549L1.28852 -7.59549L1.28852 -9.75206L2.54313 -9.75206ZM14.1669 -10.5387Q13.2582 -8.97895 12.8174 -7.45307Q12.3766 -5.92719 12.3766 -4.36062Q12.3766 -2.79405 12.8208 -1.258Q13.265 0.278049 14.1669 1.83105L13.0819 1.83105Q12.0646 0.237359 11.5594 -1.30208Q11.0541 -2.84153 11.0541 -4.36062Q11.0541 -5.87294 11.556 -7.4056Q12.0578 -8.93826 13.0819 -10.5387L14.1669 -10.5387ZM21.4301 -7.37169L21.4301 -6.19168Q20.9012 -6.46294 20.3315 -6.59858Q19.7618 -6.73421 19.1515 -6.73421Q18.2224 -6.73421 17.7578 -6.44938Q17.2933 -6.16455 17.2933 -5.59489Q17.2933 -5.16086 17.6256 -4.91333Q17.9579 -4.6658 18.9616 -4.442L19.3888 -4.34706Q20.718 -4.06223 21.2775 -3.54343Q21.837 -3.02463 21.837 -2.09554Q21.837 -1.0376 20.9995 -0.420464Q20.1619 0.196669 18.6971 0.196669Q18.0868 0.196669 17.4255 0.0779894Q16.7643 -0.0406901 16.0319 -0.278049L16.0319 -1.56657Q16.7236 -1.20714 17.395 -1.02743Q18.0664 -0.84771 18.7242 -0.847711Q19.6058 -0.847711 20.0806 -1.1495Q20.5553 -1.45128 20.5553 -2.0006Q20.5553 -2.50922 20.2128 -2.78049Q19.8703 -3.05176 18.7107 -3.30268L18.2766 -3.40441Q17.117 -3.64855 16.6016 -4.15378Q16.0862 -4.65902 16.0862 -5.54064Q16.0862 -6.61214 16.8457 -7.19537Q17.6053 -7.77859 19.0023 -7.77859Q19.694 -7.77859 20.3044 -7.67687Q20.9147 -7.57514 21.4301 -7.37169ZM23.6274 -10.5387L24.7125 -10.5387Q25.7297 -8.93826 26.2349 -7.4056Q26.7402 -5.87294 26.7402 -4.36062Q26.7402 -2.84153 26.2349 -1.30208Q25.7297 0.237359 24.7125 1.83105L23.6274 1.83105Q24.5294 0.278049 24.9736 -1.258Q25.4178 -2.79405 25.4178 -4.36062Q25.4178 -5.92719 24.9736 -7.45307Q24.5294 -8.97895 23.6274 -10.5387Z" fill="#262626" transform="translate(433.6929528978136,591.8444444444444) translate(-13.966878890991211,0)" />
<path d="M4.74718 -8.7755L2.889 -3.73671L6.61214 -3.73671L4.74718 -8.7755ZM3.97407 -10.1251L5.52707 -10.1251L9.38585 0L7.9617 0L7.03939 -2.59739L2.47531 -2.59739L1.55301 0L0.108507 0L3.97407 -10.1251ZM16.7236 -6.13742Q17.1916 -6.97835 17.8426 -7.37847Q18.4937 -7.77859 19.3753 -7.77859Q20.5621 -7.77859 21.2063 -6.94784Q21.8506 -6.11708 21.8506 -4.58442L21.8506 0L20.596 0L20.596 -4.54373Q20.596 -5.63558 20.2094 -6.16455Q19.8229 -6.69352 19.0294 -6.69352Q18.0596 -6.69352 17.4967 -6.04926Q16.9339 -5.405 16.9339 -4.29281L16.9339 0L15.6793 0L15.6793 -4.54373Q15.6793 -5.64236 15.2927 -6.16794Q14.9061 -6.69352 14.0991 -6.69352Q13.1429 -6.69352 12.58 -6.04587Q12.0171 -5.39822 12.0171 -4.29281L12.0171 0L10.7625 0L10.7625 -7.59549L12.0171 -7.59549L12.0171 -6.41547Q12.4444 -7.11399 13.0412 -7.44629Q13.638 -7.77859 14.4586 -7.77859Q15.2859 -7.77859 15.8658 -7.35813Q16.4456 -6.93766 16.7236 -6.13742ZM25.5466 -1.13932L25.5466 2.889L24.292 2.889L24.292 -7.59549L25.5466 -7.59549L25.5466 -6.4426Q25.9399 -7.12077 26.5401 -7.44968Q27.1403 -7.77859 27.9744 -7.77859Q29.3579 -7.77859 30.2226 -6.67996Q31.0872 -5.58133 31.0872 -3.79096Q31.0872 -2.0006 30.2226 -0.901964Q29.3579 0.196669 27.9744 0.196669Q27.1403 0.196669 26.5401 -0.132243Q25.9399 -0.461155 25.5466 -1.13932ZM29.7919 -3.79096Q29.7919 -5.16764 29.2257 -5.95093Q28.6594 -6.73421 27.6693 -6.73421Q26.6791 -6.73421 26.1129 -5.95093Q25.5466 -5.16764 25.5466 -3.79096Q25.5466 -2.41428 26.1129 -1.631Q26.6791 -0.847711 27.6693 -0.847711Q28.6594 -0.847711 29.2257 -1.631Q29.7919 -2.41428 29.7919 -3.79096ZM33.1557 -10.5523L34.4035 -10.5523L34.4035 0L33.1557 0L33.1557 -10.5523ZM37.0144 -7.59549L38.2623 -7.59549L38.2623 0L37.0144 0L37.0144 -7.59549ZM37.0144 -10.5523L38.2623 -10.5523L38.2623 -8.97217L37.0144 -8.97217L37.0144 -10.5523ZM42.1075 -9.75206L42.1075 -7.59549L44.6777 -7.59549L44.6777 -6.62571L42.1075 -6.62571L42.1075 -2.50244Q42.1075 -1.57335 42.3618 -1.30887Q42.6161 -1.04438 43.396 -1.04438L44.6777 -1.04438L44.6777 0L43.396 0Q41.9515 0 41.4022 -0.539144Q40.8529 -1.07829 40.8529 -2.50244L40.8529 -6.62571L39.9373 -6.62571L39.9373 -7.59549L40.8529 -7.59549L40.8529 -9.75206L42.1075 -9.75206ZM46.1901 -2.9975L46.1901 -7.59549L47.4379 -7.59549L47.4379 -3.04498Q47.4379 -1.96669 47.8584 -1.42754Q48.2788 -0.888401 49.1197 -0.888401Q50.1302 -0.888401 50.7168 -1.53266Q51.3034 -2.17692 51.3034 -3.28912L51.3034 -7.59549L52.5513 -7.59549L52.5513 0L51.3034 0L51.3034 -1.16645Q50.8491 -0.474718 50.2489 -0.139025Q49.6487 0.196669 48.8553 0.196669Q47.5464 0.196669 46.8682 -0.617133Q46.1901 -1.43094 46.1901 -2.9975ZM60.1196 -6.4426L60.1196 -10.5523L61.3675 -10.5523L61.3675 0L60.1196 0L60.1196 -1.13932Q59.7263 -0.461154 59.1261 -0.132243Q58.5259 0.196669 57.685 0.196669Q56.3083 0.196669 55.4437 -0.901964Q54.579 -2.0006 54.579 -3.79096Q54.579 -5.58133 55.4437 -6.67996Q56.3083 -7.77859 57.685 -7.77859Q58.5259 -7.77859 59.1261 -7.44968Q59.7263 -7.12077 60.1196 -6.4426ZM55.8675 -3.79096Q55.8675 -2.41428 56.4338 -1.631Q57.0001 -0.847711 57.9902 -0.847711Q58.9803 -0.847711 59.55 -1.631Q60.1196 -2.41428 60.1196 -3.79096Q60.1196 -5.16764 59.55 -5.95093Q58.9803 -6.73421 57.9902 -6.73421Q57.0001 -6.73421 56.4338 -5.95093Q55.8675 -5.16764 55.8675 -3.79096ZM70.4346 -4.1097L70.4346 -3.49935L64.6973 -3.49935Q64.7787 -2.21083 65.4738 -1.53605Q66.1689 -0.861274 67.41 -0.861274Q68.1288 -0.861274 68.8036 -1.0376Q69.4784 -1.21392 70.143 -1.56657L70.143 -0.386556Q69.4716 -0.101725 68.7663 0.0474718Q68.061 0.196669 67.3354 0.196669Q65.5179 0.196669 64.4565 -0.861274Q63.3952 -1.91922 63.3952 -3.72314Q63.3952 -5.58811 64.4023 -6.68335Q65.4093 -7.77859 67.1183 -7.77859Q68.651 -7.77859 69.5428 -6.79186Q70.4346 -5.80512 70.4346 -4.1097ZM69.1868 -4.47591Q69.1732 -5.49995 68.6137 -6.1103Q68.0542 -6.72065 67.1319 -6.72065Q66.0875 -6.72065 65.4602 -6.13064Q64.8329 -5.54064 64.738 -4.46913L69.1868 -4.47591Z" fill="#262626" transform="translate(29.727537790934257,294.90555555555557) rotate(-90) translate(-35.586891174316406,0)" />
</svg>
