<svg xmlns="http://www.w3.org/2000/svg" viewBox="0 0 800 600" width="800" height="600" role="img" aria-labelledby="chart-title">
<title id="chart-title">Damped Oscillation</title>
<rect x="0" y="0" width="800" height="600" fill="#FFFFFF" />
<text x="400" y="24.099999999999998" font-family="DejaVu Sans, sans-serif" font-size="17.88888888888889" text-anchor="middle" font-weight="bold" fill="#262626">Damped Oscillation</text>
<rect x="60" y="41.46666666666667" width="720" height="508.5333333333333" fill="#FFFFFF" />
<line x1="92.72727272727272" y1="549.6" x2="92.72727272727272" y2="554.8611111111111" stroke="#262626" stroke-width="1.1111111111111112" />
<text x="92.72727272727272" y="573.6111111111111" font-family="DejaVu Sans, sans-serif" font-size="13.88888888888889" text-anchor="middle" fill="#262626">0</text>
<line x1="158.1818181818182" y1="549.6" x2="158.1818181818182" y2="554.8611111111111" stroke="#262626" stroke-width="1.1111111111111112" />
<text x="158.1818181818182" y="573.6111111111111" font-family="DejaVu Sans, sans-serif" font-size="13.88888888888889" text-anchor="middle" fill="#262626">0.1</text>
<line x1="223.63636363636363" y1="549.6" x2="223.63636363636363" y2="554.8611111111111" stroke="#262626" stroke-width="1.1111111111111112" />
<text x="223.63636363636363" y="573.6111111111111" font-family="DejaVu Sans, sans-serif" font-size="13.88888888888889" text-anchor="middle" fill="#262626">0.2</text>
<line x1="289.09090909090907" y1="549.6" x2="289.09090909090907" y2="554.8611111111111" stroke="#262626" stroke-width="1.1111111111111112" />
<text x="289.09090909090907" y="573.6111111111111" font-family="DejaVu Sans, sans-serif" font-size="13.88888888888889" text-anchor="middle" fill="#262626">0.3</text>
<line x1="354.5454545454545" y1="549.6" x2="354.5454545454545" y2="554.8611111111111" stroke="#262626" stroke-width="1.1111111111111112" />
<text x="354.5454545454545" y="573.6111111111111" font-family="DejaVu Sans, sans-serif" font-size="13.88888888888889" text-anchor="middle" fill="#262626">0.4</text>
<line x1="420" y1="549.6" x2="420" y2="554.8611111111111" stroke="#262626" stroke-width="1.1111111111111112" />
<text x="420" y="573.6111111111111" font-family="DejaVu Sans, sans-serif" font-size="13.88888888888889" text-anchor="middle" fill="#262626">0.5</text>
<line x1="485.4545454545454" y1="549.6" x2="485.4545454545454" y2="554.8611111111111" stroke="#262626" stroke-width="1.1111111111111112" />
<text x="485.4545454545454" y="573.6111111111111" font-family="DejaVu Sans, sans-serif" font-size="13.88888888888889" text-anchor="middle" fill="#262626">0.6</text>
<line x1="550.9090909090909" y1="549.6" x2="550.9090909090909" y2="554.8611111111111" stroke="#262626" stroke-width="1.1111111111111112" />
<text x="550.9090909090909" y="573.6111111111111" font-family="DejaVu Sans, sans-serif" font-size="13.88888888888889" text-anchor="middle" fill="#262626">0.7</text>
<line x1="616.3636363636364" y1="549.6" x2="616.3636363636364" y2="554.8611111111111" stroke="#262626" stroke-width="1.1111111111111112" />
<text x="616.3636363636364" y="573.6111111111111" font-family="DejaVu Sans, sans-serif" font-size="13.88888888888889" text-anchor="middle" fill="#262626">0.8</text>
<line x1="681.8181818181819" y1="549.6" x2="681.8181818181819" y2="554.8611111111111" stroke="#262626" stroke-width="1.1111111111111112" />
<text x="681.8181818181819" y="573.6111111111111" font-family="DejaVu Sans, sans-serif" font-size="13.88888888888889" text-anchor="middle" fill="#262626">0.9</text>
<line x1="747.2727272727273" y1="549.6" x2="747.2727272727273" y2="554.8611111111111" stroke="#262626" stroke-width="1.1111111111111112" />
<text x="747.2727272727273" y="573.6111111111111" font-family="DejaVu Sans, sans-serif" font-size="13.88888888888889" text-anchor="middle" fill="#262626">1</text>
<line x1="66.54545454545453" y1="549.6" x2="66.54545454545453" y2="554.8611111111111" stroke="#262626" stroke-width="1.1111111111111112" />
<line x1="79.63636363636363" y1="549.6" x2="79.63636363636363" y2="554.8611111111111" stroke="#262626" stroke-width="1.1111111111111112" />
<line x1="105.81818181818181" y1="549.6" x2="105.81818181818181" y2="554.8611111111111" stroke="#262626" stroke-width="1.1111111111111112" />
<line x1="118.9090909090909" y1="549.6" x2="118.9090909090909" y2="554.8611111111111" stroke="#262626" stroke-width="1.1111111111111112" />
<line x1="132" y1="549.6" x2="132" y2="554.8611111111111" stroke="#262626" stroke-width="1.1111111111111112" />
<line x1="145.09090909090907" y1="549.6" x2="145.09090909090907" y2="554.8611111111111" stroke="#262626" stroke-width="1.1111111111111112" />
<line x1="171.27272727272725" y1="549.6" x2="171.27272727272725" y2="554.8611111111111" stroke="#262626" stroke-width="1.1111111111111112" />
<line x1="184.36363636363637" y1="549.6" x2="184.36363636363637" y2="554.8611111111111" stroke="#262626" stroke-width="1.1111111111111112" />
<line x1="197.45454545454544" y1="549.6" x2="197.45454545454544" y2="554.8611111111111" stroke="#262626" stroke-width="1.1111111111111112" />
<line x1="210.54545454545453" y1="549.6" x2="210.54545454545453" y2="554.8611111111111" stroke="#262626" stroke-width="1.1111111111111112" />
<line x1="236.72727272727272" y1="549.6" x2="236.72727272727272" y2="554.8611111111111" stroke="#262626" stroke-width="1.1111111111111112" />
<line x1="249.81818181818178" y1="549.6" x2="249.81818181818178" y2="554.8611111111111" stroke="#262626" stroke-width="1.1111111111111112" />
<line x1="262.9090909090909" y1="549.6" x2="262.9090909090909" y2="554.8611111111111" stroke="#262626" stroke-width="1.1111111111111112" />
<line x1="276" y1="549.6" x2="276" y2="554.8611111111111" stroke="#262626" stroke-width="1.1111111111111112" />
<line x1="302.18181818181813" y1="549.6" x2="302.18181818181813" y2="554.8611111111111" stroke="#262626" stroke-width="1.1111111111111112" />
<line x1="315.27272727272725" y1="549.6" x2="315.27272727272725" y2="554.8611111111111" stroke="#262626" stroke-width="1.1111111111111112" />
<line x1="328.3636363636364" y1="549.6" x2="328.3636363636364" y2="554.8611111111111" stroke="#262626" stroke-width="1.1111111111111112" />
<line x1="341.45454545454544" y1="549.6" x2="341.45454545454544" y2="554.8611111111111" stroke="#262626" stroke-width="1.1111111111111112" />
<line x1="367.6363636363636" y1="549.6" x2="367.6363636363636" y2="554.8611111111111" stroke="#262626" stroke-width="1.1111111111111112" />
<line x1="380.72727272727275" y1="549.6" x2="380.72727272727275" y2="554.8611111111111" stroke="#262626" stroke-width="1.1111111111111112" />
<line x1="393.81818181818176" y1="549.6" x2="393.81818181818176" y2="554.8611111111111" stroke="#262626" stroke-width="1.1111111111111112" />
<line x1="406.9090909090909" y1="549.6" x2="406.9090909090909" y2="554.8611111111111" stroke="#262626" stroke-width="1.1111111111111112" />
<line x1="433.0909090909091" y1="549.6" x2="433.0909090909091" y2="554.8611111111111" stroke="#262626" stroke-width="1.1111111111111112" />
<line x1="446.18181818181813" y1="549.6" x2="446.18181818181813" y2="554.8611111111111" stroke="#262626" stroke-width="1.1111111111111112" />
<line x1="459.27272727272725" y1="549.6" x2="459.27272727272725" y2="554.8611111111111" stroke="#262626" stroke-width="1.1111111111111112" />
<line x1="472.36363636363626" y1="549.6" x2="472.36363636363626" y2="554.8611111111111" stroke="#262626" stroke-width="1.1111111111111112" />
<line x1="498.5454545454545" y1="549.6" x2="498.5454545454545" y2="554.8611111111111" stroke="#262626" stroke-width="1.1111111111111112" />
<line x1="511.6363636363636" y1="549.6" x2="511.6363636363636" y2="554.8611111111111" stroke="#262626" stroke-width="1.1111111111111112" />
<line x1="524.7272727272727" y1="549.6" x2="524.7272727272727" y2="554.8611111111111" stroke="#262626" stroke-width="1.1111111111111112" />
<line x1="537.8181818181819" y1="549.6" x2="537.8181818181819" y2="554.8611111111111" stroke="#262626" stroke-width="1.1111111111111112" />
<line x1="564" y1="549.6" x2="564" y2="554.8611111111111" stroke="#262626" stroke-width="1.1111111111111112" />
<line x1="577.090909090909" y1="549.6" x2="577.090909090909" y2="554.8611111111111" stroke="#262626" stroke-width="1.1111111111111112" />
<line x1="590.1818181818181" y1="549.6" x2="590.1818181818181" y2="554.8611111111111" stroke="#262626" stroke-width="1.1111111111111112" />
<line x1="603.2727272727273" y1="549.6" x2="603.2727272727273" y2="554.8611111111111" stroke="#262626" stroke-width="1.1111111111111112" />
<line x1="629.4545454545454" y1="549.6" x2="629.4545454545454" y2="554.8611111111111" stroke="#262626" stroke-width="1.1111111111111112" />
<line x1="642.5454545454545" y1="549.6" x2="642.5454545454545" y2="554.8611111111111" stroke="#262626" stroke-width="1.1111111111111112" />
<line x1="655.6363636363636" y1="549.6" x2="655.6363636363636" y2="554.8611111111111" stroke="#262626" stroke-width="1.1111111111111112" />
<line x1="668.7272727272727" y1="549.6" x2="668.7272727272727" y2="554.8611111111111" stroke="#262626" stroke-width="1.1111111111111112" />
<line x1="694.9090909090909" y1="549.6" x2="694.9090909090909" y2="554.8611111111111" stroke="#262626" stroke-width="1.1111111111111112" />
<line x1="708" y1="549.6" x2="708" y2="554.8611111111111" stroke="#262626" stroke-width="1.1111111111111112" />
<line x1="721.090909090909" y1="549.6" x2="721.090909090909" y2="554.8611111111111" stroke="#262626" stroke-width="1.1111111111111112" />
<line x1="734.1818181818181" y1="549.6" x2="734.1818181818181" y2="554.8611111111111" stroke="#262626" stroke-width="1.1111111111111112" />
<line x1="760.3636363636364" y1="549.6" x2="760.3636363636364" y2="554.8611111111111" stroke="#262626" stroke-width="1.1111111111111112" />
<line x1="773.4545454545455" y1="549.6" x2="773.4545454545455" y2="554.8611111111111" stroke="#262626" stroke-width="1.1111111111111112" />
<line x1="55.138888888888886" y1="526.8848484848485" x2="60.4" y2="526.8848484848485" stroke="#262626" stroke-width="1.1111111111111112" />
<text x="50.27777777777777" y="530.8848484848485" font-family="DejaVu Sans, sans-serif" font-size="13.88888888888889" text-anchor="end" fill="#262626">0</text>
<line x1="55.138888888888886" y1="480.6545454545454" x2="60.4" y2="480.6545454545454" stroke="#262626" stroke-width="1.1111111111111112" />
<text x="50.27777777777777" y="484.6545454545454" font-family="DejaVu Sans, sans-serif" font-size="13.88888888888889" text-anchor="end" fill="#262626">0.1</text>
<line x1="55.138888888888886" y1="434.42424242424244" x2="60.4" y2="434.42424242424244" stroke="#262626" stroke-width="1.1111111111111112" />
<text x="50.27777777777777" y="438.42424242424244" font-family="DejaVu Sans, sans-serif" font-size="13.88888888888889" text-anchor="end" fill="#262626">0.2</text>
<line x1="55.138888888888886" y1="388.19393939393944" x2="60.4" y2="388.19393939393944" stroke="#262626" stroke-width="1.1111111111111112" />
<text x="50.27777777777777" y="392.19393939393944" font-family="DejaVu Sans, sans-serif" font-size="13.88888888888889" text-anchor="end" fill="#262626">0.3</text>
<line x1="55.138888888888886" y1="341.9636363636364" x2="60.4" y2="341.9636363636364" stroke="#262626" stroke-width="1.1111111111111112" />
<text x="50.27777777777777" y="345.9636363636364" font-family="DejaVu Sans, sans-serif" font-size="13.88888888888889" text-anchor="end" fill="#262626">0.4</text>
<line x1="55.138888888888886" y1="295.73333333333335" x2="60.4" y2="295.73333333333335" stroke="#262626" stroke-width="1.1111111111111112" />
<text x="50.27777777777777" y="299.73333333333335" font-family="DejaVu Sans, sans-serif" font-size="13.88888888888889" text-anchor="end" fill="#262626">0.5</text>
<line x1="55.138888888888886" y1="249.50303030303036" x2="60.4" y2="249.50303030303036" stroke="#262626" stroke-width="1.1111111111111112" />
<text x="50.27777777777777" y="253.50303030303036" font-family="DejaVu Sans, sans-serif" font-size="13.88888888888889" text-anchor="end" fill="#262626">0.6</text>
<line x1="55.138888888888886" y1="203.2727272727273" x2="60.4" y2="203.2727272727273" stroke="#262626" stroke-width="1.1111111111111112" />
<text x="50.27777777777777" y="207.2727272727273" font-family="DejaVu Sans, sans-serif" font-size="13.88888888888889" text-anchor="end" fill="#262626">0.7</text>
<line x1="55.138888888888886" y1="157.04242424242426" x2="60.4" y2="157.04242424242426" stroke="#262626" stroke-width="1.1111111111111112" />
<text x="50.27777777777777" y="161.04242424242426" font-family="DejaVu Sans, sans-serif" font-size="13.88888888888889" text-anchor="end" fill="#262626">0.8</text>
<line x1="55.138888888888886" y1="110.81212121212121" x2="60.4" y2="110.81212121212121" stroke="#262626" stroke-width="1.1111111111111112" />
<text x="50.27777777777777" y="114.81212121212121" font-family="DejaVu Sans, sans-serif" font-size="13.88888888888889" text-anchor="end" fill="#262626">0.9</text>
<line x1="55.138888888888886" y1="64.58181818181822" x2="60.4" y2="64.58181818181822" stroke="#262626" stroke-width="1.1111111111111112" />
<text x="50.27777777777777" y="68.58181818181822" font-family="DejaVu Sans, sans-serif" font-size="13.88888888888889" text-anchor="end" fill="#262626">1</text>
<line x1="55.138888888888886" y1="545.3769696969697" x2="60.4" y2="545.3769696969697" stroke="#262626" stroke-width="1.1111111111111112" />
<line x1="55.138888888888886" y1="536.1309090909091" x2="60.4" y2="536.1309090909091" stroke="#262626" stroke-width="1.1111111111111112" />
<line x1="55.138888888888886" y1="517.6387878787879" x2="60.4" y2="517.6387878787879" stroke="#262626" stroke-width="1.1111111111111112" />
<line x1="55.138888888888886" y1="508.39272727272726" x2="60.4" y2="508.39272727272726" stroke="#262626" stroke-width="1.1111111111111112" />
<line x1="55.138888888888886" y1="499.14666666666665" x2="60.4" y2="499.14666666666665" stroke="#262626" stroke-width="1.1111111111111112" />
<line x1="55.138888888888886" y1="489.90060606060604" x2="60.4" y2="489.90060606060604" stroke="#262626" stroke-width="1.1111111111111112" />
<line x1="55.138888888888886" y1="471.4084848484848" x2="60.4" y2="471.4084848484848" stroke="#262626" stroke-width="1.1111111111111112" />
<line x1="55.138888888888886" y1="462.1624242424242" x2="60.4" y2="462.1624242424242" stroke="#262626" stroke-width="1.1111111111111112" />
<line x1="55.138888888888886" y1="452.9163636363636" x2="60.4" y2="452.9163636363636" stroke="#262626" stroke-width="1.1111111111111112" />
<line x1="55.138888888888886" y1="443.67030303030305" x2="60.4" y2="443.67030303030305" stroke="#262626" stroke-width="1.1111111111111112" />
<line x1="55.138888888888886" y1="425.1781818181818" x2="60.4" y2="425.1781818181818" stroke="#262626" stroke-width="1.1111111111111112" />
<line x1="55.138888888888886" y1="415.9321212121212" x2="60.4" y2="415.9321212121212" stroke="#262626" stroke-width="1.1111111111111112" />
<line x1="55.138888888888886" y1="406.6860606060606" x2="60.4" y2="406.6860606060606" stroke="#262626" stroke-width="1.1111111111111112" />
<line x1="55.138888888888886" y1="397.44" x2="60.4" y2="397.44" stroke="#262626" stroke-width="1.1111111111111112" />
<line x1="55.138888888888886" y1="378.9478787878788" x2="60.4" y2="378.9478787878788" stroke="#262626" stroke-width="1.1111111111111112" />
<line x1="55.138888888888886" y1="369.70181818181817" x2="60.4" y2="369.70181818181817" stroke="#262626" stroke-width="1.1111111111111112" />
<line x1="55.138888888888886" y1="360.4557575757576" x2="60.4" y2="360.4557575757576" stroke="#262626" stroke-width="1.1111111111111112" />
<line x1="55.138888888888886" y1="351.209696969697" x2="60.4" y2="351.209696969697" stroke="#262626" stroke-width="1.1111111111111112" />
<line x1="55.138888888888886" y1="332.7175757575758" x2="60.4" y2="332.7175757575758" stroke="#262626" stroke-width="1.1111111111111112" />
<line x1="55.138888888888886" y1="323.4715151515152" x2="60.4" y2="323.4715151515152" stroke="#262626" stroke-width="1.1111111111111112" />
<line x1="55.138888888888886" y1="314.22545454545457" x2="60.4" y2="314.22545454545457" stroke="#262626" stroke-width="1.1111111111111112" />
<line x1="55.138888888888886" y1="304.97939393939396" x2="60.4" y2="304.97939393939396" stroke="#262626" stroke-width="1.1111111111111112" />
<line x1="55.138888888888886" y1="286.48727272727274" x2="60.4" y2="286.48727272727274" stroke="#262626" stroke-width="1.1111111111111112" />
<line x1="55.138888888888886" y1="277.24121212121213" x2="60.4" y2="277.24121212121213" stroke="#262626" stroke-width="1.1111111111111112" />
<line x1="55.138888888888886" y1="267.9951515151515" x2="60.4" y2="267.9951515151515" stroke="#262626" stroke-width="1.1111111111111112" />
<line x1="55.138888888888886" y1="258.74909090909097" x2="60.4" y2="258.74909090909097" stroke="#262626" stroke-width="1.1111111111111112" />
<line x1="55.138888888888886" y1="240.25696969696975" x2="60.4" y2="240.25696969696975" stroke="#262626" stroke-width="1.1111111111111112" />
<line x1="55.138888888888886" y1="231.01090909090908" x2="60.4" y2="231.01090909090908" stroke="#262626" stroke-width="1.1111111111111112" />
<line x1="55.138888888888886" y1="221.76484848484847" x2="60.4" y2="221.76484848484847" stroke="#262626" stroke-width="1.1111111111111112" />
<line x1="55.138888888888886" y1="212.51878787878786" x2="60.4" y2="212.51878787878786" stroke="#262626" stroke-width="1.1111111111111112" />
<line x1="55.138888888888886" y1="194.0266666666667" x2="60.4" y2="194.0266666666667" stroke="#262626" stroke-width="1.1111111111111112" />
<line x1="55.138888888888886" y1="184.7806060606061" x2="60.4" y2="184.7806060606061" stroke="#262626" stroke-width="1.1111111111111112" />
<line x1="55.138888888888886" y1="175.53454545454548" x2="60.4" y2="175.53454545454548" stroke="#262626" stroke-width="1.1111111111111112" />
<line x1="55.138888888888886" y1="166.28848484848487" x2="60.4" y2="166.28848484848487" stroke="#262626" stroke-width="1.1111111111111112" />
<line x1="55.138888888888886" y1="147.7963636363637" x2="60.4" y2="147.7963636363637" stroke="#262626" stroke-width="1.1111111111111112" />
<line x1="55.138888888888886" y1="138.5503030303031" x2="60.4" y2="138.5503030303031" stroke="#262626" stroke-width="1.1111111111111112" />
<line x1="55.138888888888886" y1="129.3042424242425" x2="60.4" y2="129.3042424242425" stroke="#262626" stroke-width="1.1111111111111112" />
<line x1="55.138888888888886" y1="120.05818181818182" x2="60.4" y2="120.05818181818182" stroke="#262626" stroke-width="1.1111111111111112" />
<line x1="55.138888888888886" y1="101.5660606060606" x2="60.4" y2="101.5660606060606" stroke="#262626" stroke-width="1.1111111111111112" />
<line x1="55.138888888888886" y1="92.32000000000005" x2="60.4" y2="92.32000000000005" stroke="#262626" stroke-width="1.1111111111111112" />
<line x1="55.138888888888886" y1="83.07393939393944" x2="60.4" y2="83.07393939393944" stroke="#262626" stroke-width="1.1111111111111112" />
<line x1="55.138888888888886" y1="73.82787878787883" x2="60.4" y2="73.82787878787883" stroke="#262626" stroke-width="1.1111111111111112" />
<line x1="55.138888888888886" y1="55.33575757575761" x2="60.4" y2="55.33575757575761" stroke="#262626" stroke-width="1.1111111111111112" />
<line x1="55.138888888888886" y1="46.089696969697" x2="60.4" y2="46.089696969697" stroke="#262626" stroke-width="1.1111111111111112" />
<g class="spine">
<line x1="60" y1="550" x2="780" y2="550" stroke="#262626" stroke-width="0.8" />
</g>
<g class="spine">
<line x1="60" y1="41.46666666666667" x2="60" y2="550" stroke="#262626" stroke-width="0.8" />
</g>
</svg>
