<svg xmlns="http://www.w3.org/2000/svg" viewBox="0 0 600 360" width="600" height="360" role="img" aria-labelledby="chart-title">
<title id="chart-title">Server Metrics — Last 60s</title>
<rect x="0" y="0" width="600" height="360" fill="#FFFFFF" />
<text x="300" y="24.099999999999998" font-family="DejaVu Sans, sans-serif" font-size="17.88888888888889" text-anchor="middle" font-weight="bold" fill="#262626">Server Metrics — Last 60s</text>
<rect x="75" y="43" width="465" height="65.66666666666667" fill="#FFFFFF" />
<line x1="96.13636363636363" y1="108.26666666666667" x2="96.13636363636363" y2="113.52777777777779" stroke="#262626" stroke-width="1.1111111111111112" />
<text x="96.13636363636363" y="132.2777777777778" font-family="DejaVu Sans, sans-serif" font-size="13.88888888888889" text-anchor="middle" fill="#262626">0</text>
<line x1="167.78505392912172" y1="108.26666666666667" x2="167.78505392912172" y2="113.52777777777779" stroke="#262626" stroke-width="1.1111111111111112" />
<text x="167.78505392912172" y="132.2777777777778" font-family="DejaVu Sans, sans-serif" font-size="13.88888888888889" text-anchor="middle" fill="#262626">10</text>
<line x1="239.43374422187978" y1="108.26666666666667" x2="239.43374422187978" y2="113.52777777777779" stroke="#262626" stroke-width="1.1111111111111112" />
<text x="239.43374422187978" y="132.2777777777778" font-family="DejaVu Sans, sans-serif" font-size="13.88888888888889" text-anchor="middle" fill="#262626">20</text>
<line x1="311.08243451463784" y1="108.26666666666667" x2="311.08243451463784" y2="113.52777777777779" stroke="#262626" stroke-width="1.1111111111111112" />
<text x="311.08243451463784" y="132.2777777777778" font-family="DejaVu Sans, sans-serif" font-size="13.88888888888889" text-anchor="middle" fill="#262626">30</text>
<line x1="382.73112480739593" y1="108.26666666666667" x2="382.73112480739593" y2="113.52777777777779" stroke="#262626" stroke-width="1.1111111111111112" />
<text x="382.73112480739593" y="132.2777777777778" font-family="DejaVu Sans, sans-serif" font-size="13.88888888888889" text-anchor="middle" fill="#262626">40</text>
<line x1="454.379815100154" y1="108.26666666666667" x2="454.379815100154" y2="113.52777777777779" stroke="#262626" stroke-width="1.1111111111111112" />
<text x="454.379815100154" y="132.2777777777778" font-family="DejaVu Sans, sans-serif" font-size="13.88888888888889" text-anchor="middle" fill="#262626">50</text>
<line x1="526.0285053929122" y1="108.26666666666667" x2="526.0285053929122" y2="113.52777777777779" stroke="#262626" stroke-width="1.1111111111111112" />
<text x="526.0285053929122" y="132.2777777777778" font-family="DejaVu Sans, sans-serif" font-size="13.88888888888889" text-anchor="middle" fill="#262626">60</text>
<line x1="81.80662557781201" y1="108.26666666666667" x2="81.80662557781201" y2="113.52777777777779" stroke="#262626" stroke-width="1.1111111111111112" />
<line x1="110.46610169491524" y1="108.26666666666667" x2="110.46610169491524" y2="113.52777777777779" stroke="#262626" stroke-width="1.1111111111111112" />
<line x1="124.79583975346685" y1="108.26666666666667" x2="124.79583975346685" y2="113.52777777777779" stroke="#262626" stroke-width="1.1111111111111112" />
<line x1="139.1255778120185" y1="108.26666666666667" x2="139.1255778120185" y2="113.52777777777779" stroke="#262626" stroke-width="1.1111111111111112" />
<line x1="153.45531587057008" y1="108.26666666666667" x2="153.45531587057008" y2="113.52777777777779" stroke="#262626" stroke-width="1.1111111111111112" />
<line x1="182.11479198767333" y1="108.26666666666667" x2="182.11479198767333" y2="113.52777777777779" stroke="#262626" stroke-width="1.1111111111111112" />
<line x1="196.44453004622494" y1="108.26666666666667" x2="196.44453004622494" y2="113.52777777777779" stroke="#262626" stroke-width="1.1111111111111112" />
<line x1="210.77426810477655" y1="108.26666666666667" x2="210.77426810477655" y2="113.52777777777779" stroke="#262626" stroke-width="1.1111111111111112" />
<line x1="225.10400616332817" y1="108.26666666666667" x2="225.10400616332817" y2="113.52777777777779" stroke="#262626" stroke-width="1.1111111111111112" />
<line x1="253.7634822804314" y1="108.26666666666667" x2="253.7634822804314" y2="113.52777777777779" stroke="#262626" stroke-width="1.1111111111111112" />
<line x1="268.09322033898303" y1="108.26666666666667" x2="268.09322033898303" y2="113.52777777777779" stroke="#262626" stroke-width="1.1111111111111112" />
<line x1="282.42295839753467" y1="108.26666666666667" x2="282.42295839753467" y2="113.52777777777779" stroke="#262626" stroke-width="1.1111111111111112" />
<line x1="296.75269645608626" y1="108.26666666666667" x2="296.75269645608626" y2="113.52777777777779" stroke="#262626" stroke-width="1.1111111111111112" />
<line x1="325.4121725731895" y1="108.26666666666667" x2="325.4121725731895" y2="113.52777777777779" stroke="#262626" stroke-width="1.1111111111111112" />
<line x1="339.7419106317411" y1="108.26666666666667" x2="339.7419106317411" y2="113.52777777777779" stroke="#262626" stroke-width="1.1111111111111112" />
<line x1="354.0716486902927" y1="108.26666666666667" x2="354.0716486902927" y2="113.52777777777779" stroke="#262626" stroke-width="1.1111111111111112" />
<line x1="368.40138674884435" y1="108.26666666666667" x2="368.40138674884435" y2="113.52777777777779" stroke="#262626" stroke-width="1.1111111111111112" />
<line x1="397.06086286594757" y1="108.26666666666667" x2="397.06086286594757" y2="113.52777777777779" stroke="#262626" stroke-width="1.1111111111111112" />
<line x1="411.39060092449915" y1="108.26666666666667" x2="411.39060092449915" y2="113.52777777777779" stroke="#262626" stroke-width="1.1111111111111112" />
<line x1="425.7203389830508" y1="108.26666666666667" x2="425.7203389830508" y2="113.52777777777779" stroke="#262626" stroke-width="1.1111111111111112" />
<line x1="440.05007704160244" y1="108.26666666666667" x2="440.05007704160244" y2="113.52777777777779" stroke="#262626" stroke-width="1.1111111111111112" />
<line x1="468.70955315870566" y1="108.26666666666667" x2="468.70955315870566" y2="113.52777777777779" stroke="#262626" stroke-width="1.1111111111111112" />
<line x1="483.03929121725724" y1="108.26666666666667" x2="483.03929121725724" y2="113.52777777777779" stroke="#262626" stroke-width="1.1111111111111112" />
<line x1="497.3690292758089" y1="108.26666666666667" x2="497.3690292758089" y2="113.52777777777779" stroke="#262626" stroke-width="1.1111111111111112" />
<line x1="511.69876733436047" y1="108.26666666666667" x2="511.69876733436047" y2="113.52777777777779" stroke="#262626" stroke-width="1.1111111111111112" />
<line x1="70.13888888888889" y1="105.79109144041938" x2="75.4" y2="105.79109144041938" stroke="#262626" stroke-width="1.1111111111111112" />
<text x="65.27777777777777" y="109.79109144041938" font-family="DejaVu Sans, sans-serif" font-size="13.88888888888889" text-anchor="end" fill="#262626">0</text>
<line x1="70.13888888888889" y1="99.74888876385353" x2="75.4" y2="99.74888876385353" stroke="#262626" stroke-width="1.1111111111111112" />
<text x="65.27777777777777" y="103.74888876385353" font-family="DejaVu Sans, sans-serif" font-size="13.88888888888889" text-anchor="end" fill="#262626">10</text>
<line x1="70.13888888888889" y1="93.7066860872877" x2="75.4" y2="93.7066860872877" stroke="#262626" stroke-width="1.1111111111111112" />
<text x="65.27777777777777" y="97.7066860872877" font-family="DejaVu Sans, sans-serif" font-size="13.88888888888889" text-anchor="end" fill="#262626">20</text>
<line x1="70.13888888888889" y1="87.66448341072184" x2="75.4" y2="87.66448341072184" stroke="#262626" stroke-width="1.1111111111111112" />
<text x="65.27777777777777" y="91.66448341072184" font-family="DejaVu Sans, sans-serif" font-size="13.88888888888889" text-anchor="end" fill="#262626">30</text>
<line x1="70.13888888888889" y1="81.62228073415599" x2="75.4" y2="81.62228073415599" stroke="#262626" stroke-width="1.1111111111111112" />
<text x="65.27777777777777" y="85.62228073415599" font-family="DejaVu Sans, sans-serif" font-size="13.88888888888889" text-anchor="end" fill="#262626">40</text>
<line x1="70.13888888888889" y1="75.58007805759016" x2="75.4" y2="75.58007805759016" stroke="#262626" stroke-width="1.1111111111111112" />
<text x="65.27777777777777" y="79.58007805759016" font-family="DejaVu Sans, sans-serif" font-size="13.88888888888889" text-anchor="end" fill="#262626">50</text>
<line x1="70.13888888888889" y1="69.5378753810243" x2="75.4" y2="69.5378753810243" stroke="#262626" stroke-width="1.1111111111111112" />
<text x="65.27777777777777" y="73.5378753810243" font-family="DejaVu Sans, sans-serif" font-size="13.88888888888889" text-anchor="end" fill="#262626">60</text>
<line x1="70.13888888888889" y1="63.495672704458464" x2="75.4" y2="63.495672704458464" stroke="#262626" stroke-width="1.1111111111111112" />
<text x="65.27777777777777" y="67.49567270445846" font-family="DejaVu Sans, sans-serif" font-size="13.88888888888889" text-anchor="end" fill="#262626">70</text>
<line x1="70.13888888888889" y1="57.453470027892614" x2="75.4" y2="57.453470027892614" stroke="#262626" stroke-width="1.1111111111111112" />
<text x="65.27777777777777" y="61.453470027892614" font-family="DejaVu Sans, sans-serif" font-size="13.88888888888889" text-anchor="end" fill="#262626">80</text>
<line x1="70.13888888888889" y1="51.41126735132677" x2="75.4" y2="51.41126735132677" stroke="#262626" stroke-width="1.1111111111111112" />
<text x="65.27777777777777" y="55.41126735132677" font-family="DejaVu Sans, sans-serif" font-size="13.88888888888889" text-anchor="end" fill="#262626">90</text>
<line x1="70.13888888888889" y1="45.36906467476093" x2="75.4" y2="45.36906467476093" stroke="#262626" stroke-width="1.1111111111111112" />
<text x="65.27777777777777" y="49.36906467476093" font-family="DejaVu Sans, sans-serif" font-size="13.88888888888889" text-anchor="end" fill="#262626">100</text>
<line x1="70.13888888888889" y1="108.20797251104571" x2="75.4" y2="108.20797251104571" stroke="#262626" stroke-width="1.1111111111111112" />
<line x1="70.13888888888889" y1="106.99953197573255" x2="75.4" y2="106.99953197573255" stroke="#262626" stroke-width="1.1111111111111112" />
<line x1="70.13888888888889" y1="104.5826509051062" x2="75.4" y2="104.5826509051062" stroke="#262626" stroke-width="1.1111111111111112" />
<line x1="70.13888888888889" y1="103.37421036979305" x2="75.4" y2="103.37421036979305" stroke="#262626" stroke-width="1.1111111111111112" />
<line x1="70.13888888888889" y1="102.16576983447987" x2="75.4" y2="102.16576983447987" stroke="#262626" stroke-width="1.1111111111111112" />
<line x1="70.13888888888889" y1="100.9573292991667" x2="75.4" y2="100.9573292991667" stroke="#262626" stroke-width="1.1111111111111112" />
<line x1="70.13888888888889" y1="98.54044822854037" x2="75.4" y2="98.54044822854037" stroke="#262626" stroke-width="1.1111111111111112" />
<line x1="70.13888888888889" y1="97.3320076932272" x2="75.4" y2="97.3320076932272" stroke="#262626" stroke-width="1.1111111111111112" />
<line x1="70.13888888888889" y1="96.12356715791402" x2="75.4" y2="96.12356715791402" stroke="#262626" stroke-width="1.1111111111111112" />
<line x1="70.13888888888889" y1="94.91512662260085" x2="75.4" y2="94.91512662260085" stroke="#262626" stroke-width="1.1111111111111112" />
<line x1="70.13888888888889" y1="92.49824555197452" x2="75.4" y2="92.49824555197452" stroke="#262626" stroke-width="1.1111111111111112" />
<line x1="70.13888888888889" y1="91.28980501666135" x2="75.4" y2="91.28980501666135" stroke="#262626" stroke-width="1.1111111111111112" />
<line x1="70.13888888888889" y1="90.08136448134817" x2="75.4" y2="90.08136448134817" stroke="#262626" stroke-width="1.1111111111111112" />
<line x1="70.13888888888889" y1="88.87292394603502" x2="75.4" y2="88.87292394603502" stroke="#262626" stroke-width="1.1111111111111112" />
<line x1="70.13888888888889" y1="86.45604287540867" x2="75.4" y2="86.45604287540867" stroke="#262626" stroke-width="1.1111111111111112" />
<line x1="70.13888888888889" y1="85.24760234009551" x2="75.4" y2="85.24760234009551" stroke="#262626" stroke-width="1.1111111111111112" />
<line x1="70.13888888888889" y1="84.03916180478234" x2="75.4" y2="84.03916180478234" stroke="#262626" stroke-width="1.1111111111111112" />
<line x1="70.13888888888889" y1="82.83072126946917" x2="75.4" y2="82.83072126946917" stroke="#262626" stroke-width="1.1111111111111112" />
<line x1="70.13888888888889" y1="80.41384019884282" x2="75.4" y2="80.41384019884282" stroke="#262626" stroke-width="1.1111111111111112" />
<line x1="70.13888888888889" y1="79.20539966352966" x2="75.4" y2="79.20539966352966" stroke="#262626" stroke-width="1.1111111111111112" />
<line x1="70.13888888888889" y1="77.99695912821649" x2="75.4" y2="77.99695912821649" stroke="#262626" stroke-width="1.1111111111111112" />
<line x1="70.13888888888889" y1="76.78851859290333" x2="75.4" y2="76.78851859290333" stroke="#262626" stroke-width="1.1111111111111112" />
<line x1="70.13888888888889" y1="74.37163752227698" x2="75.4" y2="74.37163752227698" stroke="#262626" stroke-width="1.1111111111111112" />
<line x1="70.13888888888889" y1="73.16319698696381" x2="75.4" y2="73.16319698696381" stroke="#262626" stroke-width="1.1111111111111112" />
<line x1="70.13888888888889" y1="71.95475645165064" x2="75.4" y2="71.95475645165064" stroke="#262626" stroke-width="1.1111111111111112" />
<line x1="70.13888888888889" y1="70.74631591633747" x2="75.4" y2="70.74631591633747" stroke="#262626" stroke-width="1.1111111111111112" />
<line x1="70.13888888888889" y1="68.32943484571113" x2="75.4" y2="68.32943484571113" stroke="#262626" stroke-width="1.1111111111111112" />
<line x1="70.13888888888889" y1="67.12099431039798" x2="75.4" y2="67.12099431039798" stroke="#262626" stroke-width="1.1111111111111112" />
<line x1="70.13888888888889" y1="65.9125537750848" x2="75.4" y2="65.9125537750848" stroke="#262626" stroke-width="1.1111111111111112" />
<line x1="70.13888888888889" y1="64.70411323977163" x2="75.4" y2="64.70411323977163" stroke="#262626" stroke-width="1.1111111111111112" />
<line x1="70.13888888888889" y1="62.28723216914529" x2="75.4" y2="62.28723216914529" stroke="#262626" stroke-width="1.1111111111111112" />
<line x1="70.13888888888889" y1="61.078791633832125" x2="75.4" y2="61.078791633832125" stroke="#262626" stroke-width="1.1111111111111112" />
<line x1="70.13888888888889" y1="59.87035109851895" x2="75.4" y2="59.87035109851895" stroke="#262626" stroke-width="1.1111111111111112" />
<line x1="70.13888888888889" y1="58.66191056320579" x2="75.4" y2="58.66191056320579" stroke="#262626" stroke-width="1.1111111111111112" />
<line x1="70.13888888888889" y1="56.24502949257945" x2="75.4" y2="56.24502949257945" stroke="#262626" stroke-width="1.1111111111111112" />
<line x1="70.13888888888889" y1="55.036588957266275" x2="75.4" y2="55.036588957266275" stroke="#262626" stroke-width="1.1111111111111112" />
<line x1="70.13888888888889" y1="53.82814842195311" x2="75.4" y2="53.82814842195311" stroke="#262626" stroke-width="1.1111111111111112" />
<line x1="70.13888888888889" y1="52.61970788663994" x2="75.4" y2="52.61970788663994" stroke="#262626" stroke-width="1.1111111111111112" />
<line x1="70.13888888888889" y1="50.2028268160136" x2="75.4" y2="50.2028268160136" stroke="#262626" stroke-width="1.1111111111111112" />
<line x1="70.13888888888889" y1="48.99438628070043" x2="75.4" y2="48.99438628070043" stroke="#262626" stroke-width="1.1111111111111112" />
<line x1="70.13888888888889" y1="47.78594574538727" x2="75.4" y2="47.78594574538727" stroke="#262626" stroke-width="1.1111111111111112" />
<line x1="70.13888888888889" y1="46.577505210074094" x2="75.4" y2="46.577505210074094" stroke="#262626" stroke-width="1.1111111111111112" />
<line x1="70.13888888888889" y1="44.160624139447755" x2="75.4" y2="44.160624139447755" stroke="#262626" stroke-width="1.1111111111111112" />
<polyline points="75,96.61293559158311 82.88135593220339,65.98754098129706 90.76271186440678,101.57275390312668 98.64406779661017,45.99137852378035 106.52542372881356,96.80796033382885 114.40677966101694,65.20003655635475 122.28813559322035,95.57110691229742 130.16949152542372,66.12567033145874 138.05084745762713,65.42080353171957 145.9322033898305,51.58649382799195 153.81355932203388,85.11016715300607 161.6949152542373,67.89000324554095 169.5762711864407,80.7863622605328 177.45762711864407,80.30506033071481 185.33898305084745,95.8034797601602 193.22033898305085,56.24521135061888 201.10169491525426,71.9399431895152 208.98305084745763,73.06011269973015 216.864406779661,64.11142629767534 224.74576271186442,81.44577371155751 232.6271186440678,65.2742274189498 240.5084745762712,44.00128265270615 248.38983050847457,62.480547608897666 256.271186440678,93.79279251048663 264.1525423728814,88.09225311753411 272.0338983050848,72.8690672066189 279.91525423728814,54.7530400308161 287.79661016949154,62.67476137304514 295.6779661016949,87.69992554069061 303.5593220338983,69.62191362479584 311.4406779661017,58.834801185591026 319.3220338983051,78.77706345067396 327.2033898305085,43 335.08474576271186,75.43466987983851 342.96610169491527,51.665569314766664 350.8474576271187,106.03823549017676 358.728813559322,81.31479717398551 366.6101694915254,80.86155209042465 374.49152542372883,97.91026780615246 382.37288135593224,71.38629321120459 390.2542372881356,81.78276282694445 398.135593220339,108.66666666666667 406.0169491525424,45.44466610207064 413.8983050847458,78.12747268660712 421.77966101694915,88.25158727170094 429.66101694915255,76.6022917448669 437.54237288135596,61.289785400104975 445.42372881355936,81.26945308986912 453.3050847457627,102.43751913412642 461.1864406779661,96.26471262051845 469.0677966101695,55.81960594070947 476.9491525423729,78.00608396955741 484.8305084745763,48.49205943369464 492.7118644067797,46.33529343483712 500.5932203389831,75.504334857602 508.47457627118644,94.93429074778064 516.3559322033898,45.829631181303064 524.2372881355932,50.10259920154373 532.1186440677966,66.68599265737421 540,66.26153093611362" fill="none" stroke="#1F77B4" stroke-width="1.5" />
<g class="spine">
<line x1="75" y1="108.66666666666667" x2="540" y2="108.66666666666667" stroke="#262626" stroke-width="0.8" />
</g>
<g class="spine">
<line x1="75" y1="43" x2="75" y2="108.66666666666667" stroke="#262626" stroke-width="0.8" />
</g>
<text x="28.27777777777778" y="75.83333333333334" font-family="DejaVu Sans, sans-serif" font-size="13.88888888888889" text-anchor="middle" transform="rotate(-90,28.27777777777778,75.83333333333334)" fill="#262626">CPU %</text>
<rect x="75" y="148.66666666666669" width="465" height="65.66666666666667" fill="#FFFFFF" />
<line x1="96.13636363636363" y1="213.93333333333337" x2="96.13636363636363" y2="219.19444444444449" stroke="#262626" stroke-width="1.1111111111111112" />
<text x="96.13636363636363" y="237.94444444444449" font-family="DejaVu Sans, sans-serif" font-size="13.88888888888889" text-anchor="middle" fill="#262626">0</text>
<line x1="167.78505392912172" y1="213.93333333333337" x2="167.78505392912172" y2="219.19444444444449" stroke="#262626" stroke-width="1.1111111111111112" />
<text x="167.78505392912172" y="237.94444444444449" font-family="DejaVu Sans, sans-serif" font-size="13.88888888888889" text-anchor="middle" fill="#262626">10</text>
<line x1="239.43374422187978" y1="213.93333333333337" x2="239.43374422187978" y2="219.19444444444449" stroke="#262626" stroke-width="1.1111111111111112" />
<text x="239.43374422187978" y="237.94444444444449" font-family="DejaVu Sans, sans-serif" font-size="13.88888888888889" text-anchor="middle" fill="#262626">20</text>
<line x1="311.08243451463784" y1="213.93333333333337" x2="311.08243451463784" y2="219.19444444444449" stroke="#262626" stroke-width="1.1111111111111112" />
<text x="311.08243451463784" y="237.94444444444449" font-family="DejaVu Sans, sans-serif" font-size="13.88888888888889" text-anchor="middle" fill="#262626">30</text>
<line x1="382.73112480739593" y1="213.93333333333337" x2="382.73112480739593" y2="219.19444444444449" stroke="#262626" stroke-width="1.1111111111111112" />
<text x="382.73112480739593" y="237.94444444444449" font-family="DejaVu Sans, sans-serif" font-size="13.88888888888889" text-anchor="middle" fill="#262626">40</text>
<line x1="454.379815100154" y1="213.93333333333337" x2="454.379815100154" y2="219.19444444444449" stroke="#262626" stroke-width="1.1111111111111112" />
<text x="454.379815100154" y="237.94444444444449" font-family="DejaVu Sans, sans-serif" font-size="13.88888888888889" text-anchor="middle" fill="#262626">50</text>
<line x1="526.0285053929122" y1="213.93333333333337" x2="526.0285053929122" y2="219.19444444444449" stroke="#262626" stroke-width="1.1111111111111112" />
<text x="526.0285053929122" y="237.94444444444449" font-family="DejaVu Sans, sans-serif" font-size="13.88888888888889" text-anchor="middle" fill="#262626">60</text>
<line x1="81.80662557781201" y1="213.93333333333337" x2="81.80662557781201" y2="219.19444444444449" stroke="#262626" stroke-width="1.1111111111111112" />
<line x1="110.46610169491524" y1="213.93333333333337" x2="110.46610169491524" y2="219.19444444444449" stroke="#262626" stroke-width="1.1111111111111112" />
<line x1="124.79583975346685" y1="213.93333333333337" x2="124.79583975346685" y2="219.19444444444449" stroke="#262626" stroke-width="1.1111111111111112" />
<line x1="139.1255778120185" y1="213.93333333333337" x2="139.1255778120185" y2="219.19444444444449" stroke="#262626" stroke-width="1.1111111111111112" />
<line x1="153.45531587057008" y1="213.93333333333337" x2="153.45531587057008" y2="219.19444444444449" stroke="#262626" stroke-width="1.1111111111111112" />
<line x1="182.11479198767333" y1="213.93333333333337" x2="182.11479198767333" y2="219.19444444444449" stroke="#262626" stroke-width="1.1111111111111112" />
<line x1="196.44453004622494" y1="213.93333333333337" x2="196.44453004622494" y2="219.19444444444449" stroke="#262626" stroke-width="1.1111111111111112" />
<line x1="210.77426810477655" y1="213.93333333333337" x2="210.77426810477655" y2="219.19444444444449" stroke="#262626" stroke-width="1.1111111111111112" />
<line x1="225.10400616332817" y1="213.93333333333337" x2="225.10400616332817" y2="219.19444444444449" stroke="#262626" stroke-width="1.1111111111111112" />
<line x1="253.7634822804314" y1="213.93333333333337" x2="253.7634822804314" y2="219.19444444444449" stroke="#262626" stroke-width="1.1111111111111112" />
<line x1="268.09322033898303" y1="213.93333333333337" x2="268.09322033898303" y2="219.19444444444449" stroke="#262626" stroke-width="1.1111111111111112" />
<line x1="282.42295839753467" y1="213.93333333333337" x2="282.42295839753467" y2="219.19444444444449" stroke="#262626" stroke-width="1.1111111111111112" />
<line x1="296.75269645608626" y1="213.93333333333337" x2="296.75269645608626" y2="219.19444444444449" stroke="#262626" stroke-width="1.1111111111111112" />
<line x1="325.4121725731895" y1="213.93333333333337" x2="325.4121725731895" y2="219.19444444444449" stroke="#262626" stroke-width="1.1111111111111112" />
<line x1="339.7419106317411" y1="213.93333333333337" x2="339.7419106317411" y2="219.19444444444449" stroke="#262626" stroke-width="1.1111111111111112" />
<line x1="354.0716486902927" y1="213.93333333333337" x2="354.0716486902927" y2="219.19444444444449" stroke="#262626" stroke-width="1.1111111111111112" />
<line x1="368.40138674884435" y1="213.93333333333337" x2="368.40138674884435" y2="219.19444444444449" stroke="#262626" stroke-width="1.1111111111111112" />
<line x1="397.06086286594757" y1="213.93333333333337" x2="397.06086286594757" y2="219.19444444444449" stroke="#262626" stroke-width="1.1111111111111112" />
<line x1="411.39060092449915" y1="213.93333333333337" x2="411.39060092449915" y2="219.19444444444449" stroke="#262626" stroke-width="1.1111111111111112" />
<line x1="425.7203389830508" y1="213.93333333333337" x2="425.7203389830508" y2="219.19444444444449" stroke="#262626" stroke-width="1.1111111111111112" />
<line x1="440.05007704160244" y1="213.93333333333337" x2="440.05007704160244" y2="219.19444444444449" stroke="#262626" stroke-width="1.1111111111111112" />
<line x1="468.70955315870566" y1="213.93333333333337" x2="468.70955315870566" y2="219.19444444444449" stroke="#262626" stroke-width="1.1111111111111112" />
<line x1="483.03929121725724" y1="213.93333333333337" x2="483.03929121725724" y2="219.19444444444449" stroke="#262626" stroke-width="1.1111111111111112" />
<line x1="497.3690292758089" y1="213.93333333333337" x2="497.3690292758089" y2="219.19444444444449" stroke="#262626" stroke-width="1.1111111111111112" />
<line x1="511.69876733436047" y1="213.93333333333337" x2="511.69876733436047" y2="219.19444444444449" stroke="#262626" stroke-width="1.1111111111111112" />
<line x1="70.13888888888889" y1="211.41330809950452" x2="75.4" y2="211.41330809950452" stroke="#262626" stroke-width="1.1111111111111112" />
<text x="65.27777777777777" y="215.41330809950452" font-family="DejaVu Sans, sans-serif" font-size="13.88888888888889" text-anchor="end" fill="#262626">40</text>
<line x1="70.13888888888889" y1="201.10581556576682" x2="75.4" y2="201.10581556576682" stroke="#262626" stroke-width="1.1111111111111112" />
<text x="65.27777777777777" y="205.10581556576682" font-family="DejaVu Sans, sans-serif" font-size="13.88888888888889" text-anchor="end" fill="#262626">45</text>
<line x1="70.13888888888889" y1="190.7983230320291" x2="75.4" y2="190.7983230320291" stroke="#262626" stroke-width="1.1111111111111112" />
<text x="65.27777777777777" y="194.7983230320291" font-family="DejaVu Sans, sans-serif" font-size="13.88888888888889" text-anchor="end" fill="#262626">50</text>
<line x1="70.13888888888889" y1="180.49083049829136" x2="75.4" y2="180.49083049829136" stroke="#262626" stroke-width="1.1111111111111112" />
<text x="65.27777777777777" y="184.49083049829136" font-family="DejaVu Sans, sans-serif" font-size="13.88888888888889" text-anchor="end" fill="#262626">55</text>
<line x1="70.13888888888889" y1="170.18333796455363" x2="75.4" y2="170.18333796455363" stroke="#262626" stroke-width="1.1111111111111112" />
<text x="65.27777777777777" y="174.18333796455363" font-family="DejaVu Sans, sans-serif" font-size="13.88888888888889" text-anchor="end" fill="#262626">60</text>
<line x1="70.13888888888889" y1="159.87584543081593" x2="75.4" y2="159.87584543081593" stroke="#262626" stroke-width="1.1111111111111112" />
<text x="65.27777777777777" y="163.87584543081593" font-family="DejaVu Sans, sans-serif" font-size="13.88888888888889" text-anchor="end" fill="#262626">65</text>
<line x1="70.13888888888889" y1="149.5683528970782" x2="75.4" y2="149.5683528970782" stroke="#262626" stroke-width="1.1111111111111112" />
<text x="65.27777777777777" y="153.5683528970782" font-family="DejaVu Sans, sans-serif" font-size="13.88888888888889" text-anchor="end" fill="#262626">70</text>
<line x1="70.13888888888889" y1="213.47480660625206" x2="75.4" y2="213.47480660625206" stroke="#262626" stroke-width="1.1111111111111112" />
<line x1="70.13888888888889" y1="209.35180959275698" x2="75.4" y2="209.35180959275698" stroke="#262626" stroke-width="1.1111111111111112" />
<line x1="70.13888888888889" y1="207.29031108600944" x2="75.4" y2="207.29031108600944" stroke="#262626" stroke-width="1.1111111111111112" />
<line x1="70.13888888888889" y1="205.2288125792619" x2="75.4" y2="205.2288125792619" stroke="#262626" stroke-width="1.1111111111111112" />
<line x1="70.13888888888889" y1="203.16731407251433" x2="75.4" y2="203.16731407251433" stroke="#262626" stroke-width="1.1111111111111112" />
<line x1="70.13888888888889" y1="199.04431705901925" x2="75.4" y2="199.04431705901925" stroke="#262626" stroke-width="1.1111111111111112" />
<line x1="70.13888888888889" y1="196.9828185522717" x2="75.4" y2="196.9828185522717" stroke="#262626" stroke-width="1.1111111111111112" />
<line x1="70.13888888888889" y1="194.92132004552417" x2="75.4" y2="194.92132004552417" stroke="#262626" stroke-width="1.1111111111111112" />
<line x1="70.13888888888889" y1="192.85982153877663" x2="75.4" y2="192.85982153877663" stroke="#262626" stroke-width="1.1111111111111112" />
<line x1="70.13888888888889" y1="188.73682452528152" x2="75.4" y2="188.73682452528152" stroke="#262626" stroke-width="1.1111111111111112" />
<line x1="70.13888888888889" y1="186.675326018534" x2="75.4" y2="186.675326018534" stroke="#262626" stroke-width="1.1111111111111112" />
<line x1="70.13888888888889" y1="184.61382751178644" x2="75.4" y2="184.61382751178644" stroke="#262626" stroke-width="1.1111111111111112" />
<line x1="70.13888888888889" y1="182.5523290050389" x2="75.4" y2="182.5523290050389" stroke="#262626" stroke-width="1.1111111111111112" />
<line x1="70.13888888888889" y1="178.42933199154382" x2="75.4" y2="178.42933199154382" stroke="#262626" stroke-width="1.1111111111111112" />
<line x1="70.13888888888889" y1="176.36783348479628" x2="75.4" y2="176.36783348479628" stroke="#262626" stroke-width="1.1111111111111112" />
<line x1="70.13888888888889" y1="174.30633497804874" x2="75.4" y2="174.30633497804874" stroke="#262626" stroke-width="1.1111111111111112" />
<line x1="70.13888888888889" y1="172.2448364713012" x2="75.4" y2="172.2448364713012" stroke="#262626" stroke-width="1.1111111111111112" />
<line x1="70.13888888888889" y1="168.12183945780612" x2="75.4" y2="168.12183945780612" stroke="#262626" stroke-width="1.1111111111111112" />
<line x1="70.13888888888889" y1="166.06034095105855" x2="75.4" y2="166.06034095105855" stroke="#262626" stroke-width="1.1111111111111112" />
<line x1="70.13888888888889" y1="163.998842444311" x2="75.4" y2="163.998842444311" stroke="#262626" stroke-width="1.1111111111111112" />
<line x1="70.13888888888889" y1="161.93734393756347" x2="75.4" y2="161.93734393756347" stroke="#262626" stroke-width="1.1111111111111112" />
<line x1="70.13888888888889" y1="157.8143469240684" x2="75.4" y2="157.8143469240684" stroke="#262626" stroke-width="1.1111111111111112" />
<line x1="70.13888888888889" y1="155.75284841732085" x2="75.4" y2="155.75284841732085" stroke="#262626" stroke-width="1.1111111111111112" />
<line x1="70.13888888888889" y1="153.6913499105733" x2="75.4" y2="153.6913499105733" stroke="#262626" stroke-width="1.1111111111111112" />
<line x1="70.13888888888889" y1="151.62985140382574" x2="75.4" y2="151.62985140382574" stroke="#262626" stroke-width="1.1111111111111112" />
<polyline points="75,157.0682097007392 82.88135593220339,180.04623705922987 90.76271186440678,192.32231366545972 98.64406779661017,210.10459338939256 106.52542372881356,206.98563514841413 114.40677966101694,152.85743540239352 122.28813559322035,171.851346768471 130.16949152542372,151.85291201132543 138.05084745762713,175.68913433710438 145.9322033898305,203.92885642560088 153.81355932203388,188.7446686108305 161.6949152542373,205.2729276388243 169.5762711864407,188.9692668837764 177.45762711864407,206.95845011946653 185.33898305084745,214.05971375781053 193.22033898305085,169.99031510983843 201.10169491525426,212.92726402575437 208.98305084745763,198.389231411793 216.864406779661,152.04688786493927 224.74576271186442,158.13573619233702 232.6271186440678,158.22716010718412 240.5084745762712,187.2637688402268 248.38983050847457,173.70547497712772 256.271186440678,205.63815255300383 264.1525423728814,160.50253786545622 272.0338983050848,194.7818756819672 279.91525423728814,177.37339888897841 287.79661016949154,210.99079988243176 295.6779661016949,214.33333333333337 303.5593220338983,170.11694645800085 311.4406779661017,208.0016948699292 319.3220338983051,178.32242810413422 327.2033898305085,160.88457962952083 335.08474576271186,178.76924741840043 342.96610169491527,165.43026620854147 350.8474576271187,153.0935435540873 358.728813559322,168.33448214303348 366.6101694915254,153.87078523444734 374.49152542372883,190.44222458714896 382.37288135593224,186.90350936931804 390.2542372881356,155.98596355133648 398.135593220339,160.3112850479565 406.0169491525424,156.9252481822773 413.8983050847458,150.3520964871652 421.77966101694915,159.21810924653832 429.66101694915255,169.32171888936813 437.54237288135596,208.33434545113036 445.42372881355936,160.13608742979983 453.3050847457627,150.82726632075423 461.1864406779661,156.7231816250582 469.0677966101695,201.7032114730947 476.9491525423729,165.98017815331218 484.8305084745763,148.66666666666669 492.7118644067797,159.551747885819 500.5932203389831,159.0258662484874 508.47457627118644,184.20907976996745 516.3559322033898,152.7159502688882 524.2372881355932,201.08880002191088 532.1186440677966,195.97724371072238 540,158.578947653233" fill="none" stroke="#1F77B4" stroke-width="1.5" />
<g class="spine">
<line x1="75" y1="214.33333333333337" x2="540" y2="214.33333333333337" stroke="#262626" stroke-width="0.8" />
</g>
<g class="spine">
<line x1="75" y1="148.66666666666669" x2="75" y2="214.33333333333337" stroke="#262626" stroke-width="0.8" />
</g>
<text x="36.611111111111114" y="181.50000000000003" font-family="DejaVu Sans, sans-serif" font-size="13.88888888888889" text-anchor="middle" transform="rotate(-90,36.611111111111114,181.50000000000003)" fill="#262626">Memory %</text>
<rect x="75" y="254.33333333333334" width="465" height="65.66666666666667" fill="#FFFFFF" />
<line x1="96.13636363636363" y1="319.6" x2="96.13636363636363" y2="324.8611111111111" stroke="#262626" stroke-width="1.1111111111111112" />
<text x="96.13636363636363" y="343.6111111111111" font-family="DejaVu Sans, sans-serif" font-size="13.88888888888889" text-anchor="middle" fill="#262626">0</text>
<line x1="167.78505392912172" y1="319.6" x2="167.78505392912172" y2="324.8611111111111" stroke="#262626" stroke-width="1.1111111111111112" />
<text x="167.78505392912172" y="343.6111111111111" font-family="DejaVu Sans, sans-serif" font-size="13.88888888888889" text-anchor="middle" fill="#262626">10</text>
<line x1="239.43374422187978" y1="319.6" x2="239.43374422187978" y2="324.8611111111111" stroke="#262626" stroke-width="1.1111111111111112" />
<text x="239.43374422187978" y="343.6111111111111" font-family="DejaVu Sans, sans-serif" font-size="13.88888888888889" text-anchor="middle" fill="#262626">20</text>
<line x1="311.08243451463784" y1="319.6" x2="311.08243451463784" y2="324.8611111111111" stroke="#262626" stroke-width="1.1111111111111112" />
<text x="311.08243451463784" y="343.6111111111111" font-family="DejaVu Sans, sans-serif" font-size="13.88888888888889" text-anchor="middle" fill="#262626">30</text>
<line x1="382.73112480739593" y1="319.6" x2="382.73112480739593" y2="324.8611111111111" stroke="#262626" stroke-width="1.1111111111111112" />
<text x="382.73112480739593" y="343.6111111111111" font-family="DejaVu Sans, sans-serif" font-size="13.88888888888889" text-anchor="middle" fill="#262626">40</text>
<line x1="454.379815100154" y1="319.6" x2="454.379815100154" y2="324.8611111111111" stroke="#262626" stroke-width="1.1111111111111112" />
<text x="454.379815100154" y="343.6111111111111" font-family="DejaVu Sans, sans-serif" font-size="13.88888888888889" text-anchor="middle" fill="#262626">50</text>
<line x1="526.0285053929122" y1="319.6" x2="526.0285053929122" y2="324.8611111111111" stroke="#262626" stroke-width="1.1111111111111112" />
<text x="526.0285053929122" y="343.6111111111111" font-family="DejaVu Sans, sans-serif" font-size="13.88888888888889" text-anchor="middle" fill="#262626">60</text>
<line x1="81.80662557781201" y1="319.6" x2="81.80662557781201" y2="324.8611111111111" stroke="#262626" stroke-width="1.1111111111111112" />
<line x1="110.46610169491524" y1="319.6" x2="110.46610169491524" y2="324.8611111111111" stroke="#262626" stroke-width="1.1111111111111112" />
<line x1="124.79583975346685" y1="319.6" x2="124.79583975346685" y2="324.8611111111111" stroke="#262626" stroke-width="1.1111111111111112" />
<line x1="139.1255778120185" y1="319.6" x2="139.1255778120185" y2="324.8611111111111" stroke="#262626" stroke-width="1.1111111111111112" />
<line x1="153.45531587057008" y1="319.6" x2="153.45531587057008" y2="324.8611111111111" stroke="#262626" stroke-width="1.1111111111111112" />
<line x1="182.11479198767333" y1="319.6" x2="182.11479198767333" y2="324.8611111111111" stroke="#262626" stroke-width="1.1111111111111112" />
<line x1="196.44453004622494" y1="319.6" x2="196.44453004622494" y2="324.8611111111111" stroke="#262626" stroke-width="1.1111111111111112" />
<line x1="210.77426810477655" y1="319.6" x2="210.77426810477655" y2="324.8611111111111" stroke="#262626" stroke-width="1.1111111111111112" />
<line x1="225.10400616332817" y1="319.6" x2="225.10400616332817" y2="324.8611111111111" stroke="#262626" stroke-width="1.1111111111111112" />
<line x1="253.7634822804314" y1="319.6" x2="253.7634822804314" y2="324.8611111111111" stroke="#262626" stroke-width="1.1111111111111112" />
<line x1="268.09322033898303" y1="319.6" x2="268.09322033898303" y2="324.8611111111111" stroke="#262626" stroke-width="1.1111111111111112" />
<line x1="282.42295839753467" y1="319.6" x2="282.42295839753467" y2="324.8611111111111" stroke="#262626" stroke-width="1.1111111111111112" />
<line x1="296.75269645608626" y1="319.6" x2="296.75269645608626" y2="324.8611111111111" stroke="#262626" stroke-width="1.1111111111111112" />
<line x1="325.4121725731895" y1="319.6" x2="325.4121725731895" y2="324.8611111111111" stroke="#262626" stroke-width="1.1111111111111112" />
<line x1="339.7419106317411" y1="319.6" x2="339.7419106317411" y2="324.8611111111111" stroke="#262626" stroke-width="1.1111111111111112" />
<line x1="354.0716486902927" y1="319.6" x2="354.0716486902927" y2="324.8611111111111" stroke="#262626" stroke-width="1.1111111111111112" />
<line x1="368.40138674884435" y1="319.6" x2="368.40138674884435" y2="324.8611111111111" stroke="#262626" stroke-width="1.1111111111111112" />
<line x1="397.06086286594757" y1="319.6" x2="397.06086286594757" y2="324.8611111111111" stroke="#262626" stroke-width="1.1111111111111112" />
<line x1="411.39060092449915" y1="319.6" x2="411.39060092449915" y2="324.8611111111111" stroke="#262626" stroke-width="1.1111111111111112" />
<line x1="425.7203389830508" y1="319.6" x2="425.7203389830508" y2="324.8611111111111" stroke="#262626" stroke-width="1.1111111111111112" />
<line x1="440.05007704160244" y1="319.6" x2="440.05007704160244" y2="324.8611111111111" stroke="#262626" stroke-width="1.1111111111111112" />
<line x1="468.70955315870566" y1="319.6" x2="468.70955315870566" y2="324.8611111111111" stroke="#262626" stroke-width="1.1111111111111112" />
<line x1="483.03929121725724" y1="319.6" x2="483.03929121725724" y2="324.8611111111111" stroke="#262626" stroke-width="1.1111111111111112" />
<line x1="497.3690292758089" y1="319.6" x2="497.3690292758089" y2="324.8611111111111" stroke="#262626" stroke-width="1.1111111111111112" />
<line x1="511.69876733436047" y1="319.6" x2="511.69876733436047" y2="324.8611111111111" stroke="#262626" stroke-width="1.1111111111111112" />
<line x1="70.13888888888889" y1="318.912669374874" x2="75.4" y2="318.912669374874" stroke="#262626" stroke-width="1.1111111111111112" />
<text x="65.27777777777777" y="322.912669374874" font-family="DejaVu Sans, sans-serif" font-size="13.88888888888889" text-anchor="end" fill="#262626">0</text>
<line x1="70.13888888888889" y1="312.7188421619271" x2="75.4" y2="312.7188421619271" stroke="#262626" stroke-width="1.1111111111111112" />
<text x="65.27777777777777" y="316.7188421619271" font-family="DejaVu Sans, sans-serif" font-size="13.88888888888889" text-anchor="end" fill="#262626">50</text>
<line x1="70.13888888888889" y1="306.52501494898024" x2="75.4" y2="306.52501494898024" stroke="#262626" stroke-width="1.1111111111111112" />
<text x="65.27777777777777" y="310.52501494898024" font-family="DejaVu Sans, sans-serif" font-size="13.88888888888889" text-anchor="end" fill="#262626">100</text>
<line x1="70.13888888888889" y1="300.33118773603337" x2="75.4" y2="300.33118773603337" stroke="#262626" stroke-width="1.1111111111111112" />
<text x="65.27777777777777" y="304.33118773603337" font-family="DejaVu Sans, sans-serif" font-size="13.88888888888889" text-anchor="end" fill="#262626">150</text>
<line x1="70.13888888888889" y1="294.1373605230865" x2="75.4" y2="294.1373605230865" stroke="#262626" stroke-width="1.1111111111111112" />
<text x="65.27777777777777" y="298.1373605230865" font-family="DejaVu Sans, sans-serif" font-size="13.88888888888889" text-anchor="end" fill="#262626">200</text>
<line x1="70.13888888888889" y1="287.9435333101396" x2="75.4" y2="287.9435333101396" stroke="#262626" stroke-width="1.1111111111111112" />
<text x="65.27777777777777" y="291.9435333101396" font-family="DejaVu Sans, sans-serif" font-size="13.88888888888889" text-anchor="end" fill="#262626">250</text>
<line x1="70.13888888888889" y1="281.74970609719276" x2="75.4" y2="281.74970609719276" stroke="#262626" stroke-width="1.1111111111111112" />
<text x="65.27777777777777" y="285.74970609719276" font-family="DejaVu Sans, sans-serif" font-size="13.88888888888889" text-anchor="end" fill="#262626">300</text>
<line x1="70.13888888888889" y1="275.5558788842459" x2="75.4" y2="275.5558788842459" stroke="#262626" stroke-width="1.1111111111111112" />
<text x="65.27777777777777" y="279.5558788842459" font-family="DejaVu Sans, sans-serif" font-size="13.88888888888889" text-anchor="end" fill="#262626">350</text>
<line x1="70.13888888888889" y1="269.36205167129896" x2="75.4" y2="269.36205167129896" stroke="#262626" stroke-width="1.1111111111111112" />
<text x="65.27777777777777" y="273.36205167129896" font-family="DejaVu Sans, sans-serif" font-size="13.88888888888889" text-anchor="end" fill="#262626">400</text>
<line x1="70.13888888888889" y1="263.1682244583521" x2="75.4" y2="263.1682244583521" stroke="#262626" stroke-width="1.1111111111111112" />
<text x="65.27777777777777" y="267.1682244583521" font-family="DejaVu Sans, sans-serif" font-size="13.88888888888889" text-anchor="end" fill="#262626">450</text>
<line x1="70.13888888888889" y1="256.9743972454052" x2="75.4" y2="256.9743972454052" stroke="#262626" stroke-width="1.1111111111111112" />
<text x="65.27777777777777" y="260.9743972454052" font-family="DejaVu Sans, sans-serif" font-size="13.88888888888889" text-anchor="end" fill="#262626">500</text>
<line x1="70.13888888888889" y1="317.6739039322846" x2="75.4" y2="317.6739039322846" stroke="#262626" stroke-width="1.1111111111111112" />
<line x1="70.13888888888889" y1="316.43513848969525" x2="75.4" y2="316.43513848969525" stroke="#262626" stroke-width="1.1111111111111112" />
<line x1="70.13888888888889" y1="315.19637304710585" x2="75.4" y2="315.19637304710585" stroke="#262626" stroke-width="1.1111111111111112" />
<line x1="70.13888888888889" y1="313.9576076045165" x2="75.4" y2="313.9576076045165" stroke="#262626" stroke-width="1.1111111111111112" />
<line x1="70.13888888888889" y1="311.4800767193377" x2="75.4" y2="311.4800767193377" stroke="#262626" stroke-width="1.1111111111111112" />
<line x1="70.13888888888889" y1="310.2413112767484" x2="75.4" y2="310.2413112767484" stroke="#262626" stroke-width="1.1111111111111112" />
<line x1="70.13888888888889" y1="309.002545834159" x2="75.4" y2="309.002545834159" stroke="#262626" stroke-width="1.1111111111111112" />
<line x1="70.13888888888889" y1="307.7637803915696" x2="75.4" y2="307.7637803915696" stroke="#262626" stroke-width="1.1111111111111112" />
<line x1="70.13888888888889" y1="305.28624950639085" x2="75.4" y2="305.28624950639085" stroke="#262626" stroke-width="1.1111111111111112" />
<line x1="70.13888888888889" y1="304.0474840638015" x2="75.4" y2="304.0474840638015" stroke="#262626" stroke-width="1.1111111111111112" />
<line x1="70.13888888888889" y1="302.8087186212121" x2="75.4" y2="302.8087186212121" stroke="#262626" stroke-width="1.1111111111111112" />
<line x1="70.13888888888889" y1="301.5699531786227" x2="75.4" y2="301.5699531786227" stroke="#262626" stroke-width="1.1111111111111112" />
<line x1="70.13888888888889" y1="299.092422293444" x2="75.4" y2="299.092422293444" stroke="#262626" stroke-width="1.1111111111111112" />
<line x1="70.13888888888889" y1="297.85365685085463" x2="75.4" y2="297.85365685085463" stroke="#262626" stroke-width="1.1111111111111112" />
<line x1="70.13888888888889" y1="296.61489140826524" x2="75.4" y2="296.61489140826524" stroke="#262626" stroke-width="1.1111111111111112" />
<line x1="70.13888888888889" y1="295.37612596567584" x2="75.4" y2="295.37612596567584" stroke="#262626" stroke-width="1.1111111111111112" />
<line x1="70.13888888888889" y1="292.8985950804971" x2="75.4" y2="292.8985950804971" stroke="#262626" stroke-width="1.1111111111111112" />
<line x1="70.13888888888889" y1="291.6598296379077" x2="75.4" y2="291.6598296379077" stroke="#262626" stroke-width="1.1111111111111112" />
<line x1="70.13888888888889" y1="290.42106419531837" x2="75.4" y2="290.42106419531837" stroke="#262626" stroke-width="1.1111111111111112" />
<line x1="70.13888888888889" y1="289.18229875272897" x2="75.4" y2="289.18229875272897" stroke="#262626" stroke-width="1.1111111111111112" />
<line x1="70.13888888888889" y1="286.70476786755023" x2="75.4" y2="286.70476786755023" stroke="#262626" stroke-width="1.1111111111111112" />
<line x1="70.13888888888889" y1="285.46600242496083" x2="75.4" y2="285.46600242496083" stroke="#262626" stroke-width="1.1111111111111112" />
<line x1="70.13888888888889" y1="284.2272369823715" x2="75.4" y2="284.2272369823715" stroke="#262626" stroke-width="1.1111111111111112" />
<line x1="70.13888888888889" y1="282.9884715397821" x2="75.4" y2="282.9884715397821" stroke="#262626" stroke-width="1.1111111111111112" />
<line x1="70.13888888888889" y1="280.51094065460336" x2="75.4" y2="280.51094065460336" stroke="#262626" stroke-width="1.1111111111111112" />
<line x1="70.13888888888889" y1="279.27217521201396" x2="75.4" y2="279.27217521201396" stroke="#262626" stroke-width="1.1111111111111112" />
<line x1="70.13888888888889" y1="278.0334097694246" x2="75.4" y2="278.0334097694246" stroke="#262626" stroke-width="1.1111111111111112" />
<line x1="70.13888888888889" y1="276.7946443268352" x2="75.4" y2="276.7946443268352" stroke="#262626" stroke-width="1.1111111111111112" />
<line x1="70.13888888888889" y1="274.3171134416565" x2="75.4" y2="274.3171134416565" stroke="#262626" stroke-width="1.1111111111111112" />
<line x1="70.13888888888889" y1="273.0783479990671" x2="75.4" y2="273.0783479990671" stroke="#262626" stroke-width="1.1111111111111112" />
<line x1="70.13888888888889" y1="271.83958255647775" x2="75.4" y2="271.83958255647775" stroke="#262626" stroke-width="1.1111111111111112" />
<line x1="70.13888888888889" y1="270.60081711388835" x2="75.4" y2="270.60081711388835" stroke="#262626" stroke-width="1.1111111111111112" />
<line x1="70.13888888888889" y1="268.1232862287096" x2="75.4" y2="268.1232862287096" stroke="#262626" stroke-width="1.1111111111111112" />
<line x1="70.13888888888889" y1="266.8845207861202" x2="75.4" y2="266.8845207861202" stroke="#262626" stroke-width="1.1111111111111112" />
<line x1="70.13888888888889" y1="265.6457553435308" x2="75.4" y2="265.6457553435308" stroke="#262626" stroke-width="1.1111111111111112" />
<line x1="70.13888888888889" y1="264.4069899009415" x2="75.4" y2="264.4069899009415" stroke="#262626" stroke-width="1.1111111111111112" />
<line x1="70.13888888888889" y1="261.92945901576275" x2="75.4" y2="261.92945901576275" stroke="#262626" stroke-width="1.1111111111111112" />
<line x1="70.13888888888889" y1="260.69069357317335" x2="75.4" y2="260.69069357317335" stroke="#262626" stroke-width="1.1111111111111112" />
<line x1="70.13888888888889" y1="259.45192813058395" x2="75.4" y2="259.45192813058395" stroke="#262626" stroke-width="1.1111111111111112" />
<line x1="70.13888888888889" y1="258.2131626879946" x2="75.4" y2="258.2131626879946" stroke="#262626" stroke-width="1.1111111111111112" />
<line x1="70.13888888888889" y1="255.73563180281585" x2="75.4" y2="255.73563180281585" stroke="#262626" stroke-width="1.1111111111111112" />
<line x1="70.13888888888889" y1="254.49686636022648" x2="75.4" y2="254.49686636022648" stroke="#262626" stroke-width="1.1111111111111112" />
<polyline points="75,297.5343143888261 82.88135593220339,282.88875959687545 90.76271186440678,259.51257255132987 98.64406779661017,259.5357659732538 106.52542372881356,318.008285756411 114.40677966101694,264.3931367726476 122.28813559322035,298.410495226369 130.16949152542372,264.17058042532483 138.05084745762713,295.5460154692012 145.9322033898305,315.0133314485162 153.81355932203388,255.61350173165863 161.6949152542373,313.10075853131724 169.5762711864407,261.9141682475485 177.45762711864407,287.17805350695613 185.33898305084745,256.108186704034 193.22033898305085,320 201.10169491525426,284.3394683008603 208.98305084745763,277.34378635642855 216.864406779661,300.44525611814896 224.74576271186442,313.25478149156515 232.6271186440678,308.5143507577868 240.5084745762712,271.2184908836637 248.38983050847457,314.20948372005734 256.271186440678,311.6522491070023 264.1525423728814,290.45334458818814 272.0338983050848,296.04009265737807 279.91525423728814,283.65567887521195 287.79661016949154,255.29001313684552 295.6779661016949,273.72834196546705 303.5593220338983,303.28012101361793 311.4406779661017,254.33333333333331 319.3220338983051,289.28352926692503 327.2033898305085,279.91727736458813 335.08474576271186,285.8665252587449 342.96610169491527,319.0975993197745 350.8474576271187,302.77895727171625 358.728813559322,262.3548928843193 366.6101694915254,258.940553456381 374.49152542372883,262.01706319033923 382.37288135593224,256.37950338498223 390.2542372881356,300.61309910183826 398.135593220339,305.79240669040155 406.0169491525424,294.27808733764374 413.8983050847458,265.48790430847134 421.77966101694915,262.6604462455539 429.66101694915255,318.35318833000247 437.54237288135596,265.6307440013957 445.42372881355936,291.1593224994715 453.3050847457627,264.99859551522457 461.1864406779661,268.71220642941284 469.0677966101695,261.4618508814891 476.9491525423729,305.04898315562735 484.8305084745763,262.2612528733307 492.7118644067797,312.4645577803473 500.5932203389831,279.75026272759396 508.47457627118644,280.27099380844146 516.3559322033898,290.7665455225128 524.2372881355932,269.9475930900222 532.1186440677966,291.1696910307603 540,275.9233634023119" fill="none" stroke="#1F77B4" stroke-width="1.5" />
<g class="spine">
<line x1="75" y1="320" x2="540" y2="320" stroke="#262626" stroke-width="0.8" />
</g>
<g class="spine">
<line x1="75" y1="254.33333333333334" x2="75" y2="320" stroke="#262626" stroke-width="0.8" />
</g>
<text x="28.27777777777778" y="287.1666666666667" font-family="DejaVu Sans, sans-serif" font-size="13.88888888888889" text-anchor="middle" transform="rotate(-90,28.27777777777778,287.1666666666667)" fill="#262626">Disk I/O</text>
</svg>
