<svg xmlns="http://www.w3.org/2000/svg" viewBox="0 0 600 360" width="600" height="360">
<rect x="0" y="0" width="600" height="360" fill="#FFFFFF" />
<text x="300" y="25" font-family="sans-serif" font-size="17" text-anchor="middle" font-weight="bold" fill="#000000">Server Metrics — Last 60s</text>
<rect x="60" y="70" width="520" height="53.333333333333336" fill="#FFFFFF" />
<line x1="83.63636363636363" y1="70" x2="83.63636363636363" y2="123.33333333333334" stroke="#B0B0B0" stroke-width="0.8" />
<line x1="163.75963020030815" y1="70" x2="163.75963020030815" y2="123.33333333333334" stroke="#B0B0B0" stroke-width="0.8" />
<line x1="243.88289676425265" y1="70" x2="243.88289676425265" y2="123.33333333333334" stroke="#B0B0B0" stroke-width="0.8" />
<line x1="324.0061633281972" y1="70" x2="324.0061633281972" y2="123.33333333333334" stroke="#B0B0B0" stroke-width="0.8" />
<line x1="404.1294298921417" y1="70" x2="404.1294298921417" y2="123.33333333333334" stroke="#B0B0B0" stroke-width="0.8" />
<line x1="484.2526964560862" y1="70" x2="484.2526964560862" y2="123.33333333333334" stroke="#B0B0B0" stroke-width="0.8" />
<line x1="564.3759630200307" y1="70" x2="564.3759630200307" y2="123.33333333333334" stroke="#B0B0B0" stroke-width="0.8" />
<line x1="60" y1="120.9978407637924" x2="580" y2="120.9978407637924" stroke="#B0B0B0" stroke-width="0.8" />
<line x1="60" y1="111.18309529931996" x2="580" y2="111.18309529931996" stroke="#B0B0B0" stroke-width="0.8" />
<line x1="60" y1="101.36834983484752" x2="580" y2="101.36834983484752" stroke="#B0B0B0" stroke-width="0.8" />
<line x1="60" y1="91.55360437037507" x2="580" y2="91.55360437037507" stroke="#B0B0B0" stroke-width="0.8" />
<line x1="60" y1="81.73885890590265" x2="580" y2="81.73885890590265" stroke="#B0B0B0" stroke-width="0.8" />
<line x1="60" y1="71.9241134414302" x2="580" y2="71.9241134414302" stroke="#B0B0B0" stroke-width="0.8" />
<line x1="83.63636363636363" y1="123.33333333333334" x2="83.63636363636363" y2="128.33333333333334" stroke="#000000" stroke-width="1" />
<text x="83.63636363636363" y="138.33333333333334" font-family="sans-serif" font-size="13" text-anchor="middle" fill="#000000">0</text>
<line x1="163.75963020030815" y1="123.33333333333334" x2="163.75963020030815" y2="128.33333333333334" stroke="#000000" stroke-width="1" />
<text x="163.75963020030815" y="138.33333333333334" font-family="sans-serif" font-size="13" text-anchor="middle" fill="#000000">10</text>
<line x1="243.88289676425265" y1="123.33333333333334" x2="243.88289676425265" y2="128.33333333333334" stroke="#000000" stroke-width="1" />
<text x="243.88289676425265" y="138.33333333333334" font-family="sans-serif" font-size="13" text-anchor="middle" fill="#000000">20</text>
<line x1="324.0061633281972" y1="123.33333333333334" x2="324.0061633281972" y2="128.33333333333334" stroke="#000000" stroke-width="1" />
<text x="324.0061633281972" y="138.33333333333334" font-family="sans-serif" font-size="13" text-anchor="middle" fill="#000000">30</text>
<line x1="404.1294298921417" y1="123.33333333333334" x2="404.1294298921417" y2="128.33333333333334" stroke="#000000" stroke-width="1" />
<text x="404.1294298921417" y="138.33333333333334" font-family="sans-serif" font-size="13" text-anchor="middle" fill="#000000">40</text>
<line x1="484.2526964560862" y1="123.33333333333334" x2="484.2526964560862" y2="128.33333333333334" stroke="#000000" stroke-width="1" />
<text x="484.2526964560862" y="138.33333333333334" font-family="sans-serif" font-size="13" text-anchor="middle" fill="#000000">50</text>
<line x1="564.3759630200307" y1="123.33333333333334" x2="564.3759630200307" y2="128.33333333333334" stroke="#000000" stroke-width="1" />
<text x="564.3759630200307" y="138.33333333333334" font-family="sans-serif" font-size="13" text-anchor="middle" fill="#000000">60</text>
<line x1="67.61171032357473" y1="123.33333333333334" x2="67.61171032357473" y2="126.33333333333334" stroke="#000000" stroke-width="0.5" />
<line x1="99.66101694915253" y1="123.33333333333334" x2="99.66101694915253" y2="126.33333333333334" stroke="#000000" stroke-width="0.5" />
<line x1="115.68567026194142" y1="123.33333333333334" x2="115.68567026194142" y2="126.33333333333334" stroke="#000000" stroke-width="0.5" />
<line x1="131.71032357473035" y1="123.33333333333334" x2="131.71032357473035" y2="126.33333333333334" stroke="#000000" stroke-width="0.5" />
<line x1="147.73497688751922" y1="123.33333333333334" x2="147.73497688751922" y2="126.33333333333334" stroke="#000000" stroke-width="0.5" />
<line x1="179.78428351309705" y1="123.33333333333334" x2="179.78428351309705" y2="126.33333333333334" stroke="#000000" stroke-width="0.5" />
<line x1="195.80893682588595" y1="123.33333333333334" x2="195.80893682588595" y2="126.33333333333334" stroke="#000000" stroke-width="0.5" />
<line x1="211.83359013867485" y1="123.33333333333334" x2="211.83359013867485" y2="126.33333333333334" stroke="#000000" stroke-width="0.5" />
<line x1="227.85824345146375" y1="123.33333333333334" x2="227.85824345146375" y2="126.33333333333334" stroke="#000000" stroke-width="0.5" />
<line x1="259.90755007704155" y1="123.33333333333334" x2="259.90755007704155" y2="126.33333333333334" stroke="#000000" stroke-width="0.5" />
<line x1="275.9322033898305" y1="123.33333333333334" x2="275.9322033898305" y2="126.33333333333334" stroke="#000000" stroke-width="0.5" />
<line x1="291.95685670261935" y1="123.33333333333334" x2="291.95685670261935" y2="126.33333333333334" stroke="#000000" stroke-width="0.5" />
<line x1="307.9815100154083" y1="123.33333333333334" x2="307.9815100154083" y2="126.33333333333334" stroke="#000000" stroke-width="0.5" />
<line x1="340.0308166409861" y1="123.33333333333334" x2="340.0308166409861" y2="126.33333333333334" stroke="#000000" stroke-width="0.5" />
<line x1="356.055469953775" y1="123.33333333333334" x2="356.055469953775" y2="126.33333333333334" stroke="#000000" stroke-width="0.5" />
<line x1="372.0801232665639" y1="123.33333333333334" x2="372.0801232665639" y2="126.33333333333334" stroke="#000000" stroke-width="0.5" />
<line x1="388.1047765793528" y1="123.33333333333334" x2="388.1047765793528" y2="126.33333333333334" stroke="#000000" stroke-width="0.5" />
<line x1="420.1540832049306" y1="123.33333333333334" x2="420.1540832049306" y2="126.33333333333334" stroke="#000000" stroke-width="0.5" />
<line x1="436.17873651771947" y1="123.33333333333334" x2="436.17873651771947" y2="126.33333333333334" stroke="#000000" stroke-width="0.5" />
<line x1="452.2033898305084" y1="123.33333333333334" x2="452.2033898305084" y2="126.33333333333334" stroke="#000000" stroke-width="0.5" />
<line x1="468.2280431432973" y1="123.33333333333334" x2="468.2280431432973" y2="126.33333333333334" stroke="#000000" stroke-width="0.5" />
<line x1="500.2773497688751" y1="123.33333333333334" x2="500.2773497688751" y2="126.33333333333334" stroke="#000000" stroke-width="0.5" />
<line x1="516.302003081664" y1="123.33333333333334" x2="516.302003081664" y2="126.33333333333334" stroke="#000000" stroke-width="0.5" />
<line x1="532.3266563944529" y1="123.33333333333334" x2="532.3266563944529" y2="126.33333333333334" stroke="#000000" stroke-width="0.5" />
<line x1="548.3513097072419" y1="123.33333333333334" x2="548.3513097072419" y2="126.33333333333334" stroke="#000000" stroke-width="0.5" />
<line x1="78.63636363636363" y1="120.9978407637924" x2="83.63636363636363" y2="120.9978407637924" stroke="#000000" stroke-width="1" />
<text x="52" y="124.9978407637924" font-family="sans-serif" font-size="13" text-anchor="end" fill="#000000">0</text>
<line x1="78.63636363636363" y1="111.18309529931996" x2="83.63636363636363" y2="111.18309529931996" stroke="#000000" stroke-width="1" />
<text x="52" y="115.18309529931996" font-family="sans-serif" font-size="13" text-anchor="end" fill="#000000">20</text>
<line x1="78.63636363636363" y1="101.36834983484752" x2="83.63636363636363" y2="101.36834983484752" stroke="#000000" stroke-width="1" />
<text x="52" y="105.36834983484752" font-family="sans-serif" font-size="13" text-anchor="end" fill="#000000">40</text>
<line x1="78.63636363636363" y1="91.55360437037507" x2="83.63636363636363" y2="91.55360437037507" stroke="#000000" stroke-width="1" />
<text x="52" y="95.55360437037507" font-family="sans-serif" font-size="13" text-anchor="end" fill="#000000">60</text>
<line x1="78.63636363636363" y1="81.73885890590265" x2="83.63636363636363" y2="81.73885890590265" stroke="#000000" stroke-width="1" />
<text x="52" y="85.73885890590265" font-family="sans-serif" font-size="13" text-anchor="end" fill="#000000">80</text>
<line x1="78.63636363636363" y1="71.9241134414302" x2="83.63636363636363" y2="71.9241134414302" stroke="#000000" stroke-width="1" />
<text x="52" y="75.9241134414302" font-family="sans-serif" font-size="13" text-anchor="end" fill="#000000">100</text>
<line x1="80.63636363636363" y1="122.96078985668689" x2="83.63636363636363" y2="122.96078985668689" stroke="#000000" stroke-width="0.5" />
<line x1="80.63636363636363" y1="119.0348916708979" x2="83.63636363636363" y2="119.0348916708979" stroke="#000000" stroke-width="0.5" />
<line x1="80.63636363636363" y1="117.07194257800342" x2="83.63636363636363" y2="117.07194257800342" stroke="#000000" stroke-width="0.5" />
<line x1="80.63636363636363" y1="115.10899348510893" x2="83.63636363636363" y2="115.10899348510893" stroke="#000000" stroke-width="0.5" />
<line x1="80.63636363636363" y1="113.14604439221445" x2="83.63636363636363" y2="113.14604439221445" stroke="#000000" stroke-width="0.5" />
<line x1="80.63636363636363" y1="109.22014620642547" x2="83.63636363636363" y2="109.22014620642547" stroke="#000000" stroke-width="0.5" />
<line x1="80.63636363636363" y1="107.25719711353098" x2="83.63636363636363" y2="107.25719711353098" stroke="#000000" stroke-width="0.5" />
<line x1="80.63636363636363" y1="105.29424802063649" x2="83.63636363636363" y2="105.29424802063649" stroke="#000000" stroke-width="0.5" />
<line x1="80.63636363636363" y1="103.33129892774201" x2="83.63636363636363" y2="103.33129892774201" stroke="#000000" stroke-width="0.5" />
<line x1="80.63636363636363" y1="99.40540074195303" x2="83.63636363636363" y2="99.40540074195303" stroke="#000000" stroke-width="0.5" />
<line x1="80.63636363636363" y1="97.44245164905854" x2="83.63636363636363" y2="97.44245164905854" stroke="#000000" stroke-width="0.5" />
<line x1="80.63636363636363" y1="95.47950255616405" x2="83.63636363636363" y2="95.47950255616405" stroke="#000000" stroke-width="0.5" />
<line x1="80.63636363636363" y1="93.51655346326956" x2="83.63636363636363" y2="93.51655346326956" stroke="#000000" stroke-width="0.5" />
<line x1="80.63636363636363" y1="89.5906552774806" x2="83.63636363636363" y2="89.5906552774806" stroke="#000000" stroke-width="0.5" />
<line x1="80.63636363636363" y1="87.6277061845861" x2="83.63636363636363" y2="87.6277061845861" stroke="#000000" stroke-width="0.5" />
<line x1="80.63636363636363" y1="85.66475709169161" x2="83.63636363636363" y2="85.66475709169161" stroke="#000000" stroke-width="0.5" />
<line x1="80.63636363636363" y1="83.70180799879714" x2="83.63636363636363" y2="83.70180799879714" stroke="#000000" stroke-width="0.5" />
<line x1="80.63636363636363" y1="79.77590981300816" x2="83.63636363636363" y2="79.77590981300816" stroke="#000000" stroke-width="0.5" />
<line x1="80.63636363636363" y1="77.81296072011367" x2="83.63636363636363" y2="77.81296072011367" stroke="#000000" stroke-width="0.5" />
<line x1="80.63636363636363" y1="75.85001162721917" x2="83.63636363636363" y2="75.85001162721917" stroke="#000000" stroke-width="0.5" />
<line x1="80.63636363636363" y1="73.88706253432468" x2="83.63636363636363" y2="73.88706253432468" stroke="#000000" stroke-width="0.5" />
<polyline points="0,0 0,0 0,0 0,0 0,0 0,0 0,0 0,0 0,0 0,0 0,0 0,0 0,0 0,0 0,0 0,0 0,0 0,0 0,0 0,0 0,0 0,0 0,0 0,0 0,0 0,0 0,0 0,0 0,0 0,0 0,0 0,0 0,0 0,0 0,0 0,0 0,0 0,0 0,0 0,0 0,0 0,0 0,0 0,0 0,0 0,0 0,0 0,0 0,0 0,0 0,0 0,0 0,0 0,0 0,0 0,0 0,0 0,0 0,0 0,0" fill="none" stroke="#1F77B4" stroke-width="1.5" />
<g class="spine">
<line x1="60" y1="123.33333333333334" x2="580" y2="123.33333333333334" stroke="#000000" stroke-width="1" />
</g>
<g class="spine">
<line x1="60" y1="70" x2="60" y2="123.33333333333334" stroke="#000000" stroke-width="1" />
</g>
<text x="15" y="96.66666666666667" font-family="sans-serif" font-size="13" text-anchor="middle" fill="#000000">CPU %</text>
<rect x="60" y="163.33333333333334" width="520" height="53.333333333333336" fill="#FFFFFF" />
<line x1="83.63636363636363" y1="163.33333333333334" x2="83.63636363636363" y2="216.66666666666669" stroke="#B0B0B0" stroke-width="0.8" />
<line x1="163.75963020030815" y1="163.33333333333334" x2="163.75963020030815" y2="216.66666666666669" stroke="#B0B0B0" stroke-width="0.8" />
<line x1="243.88289676425265" y1="163.33333333333334" x2="243.88289676425265" y2="216.66666666666669" stroke="#B0B0B0" stroke-width="0.8" />
<line x1="324.0061633281972" y1="163.33333333333334" x2="324.0061633281972" y2="216.66666666666669" stroke="#B0B0B0" stroke-width="0.8" />
<line x1="404.1294298921417" y1="163.33333333333334" x2="404.1294298921417" y2="216.66666666666669" stroke="#B0B0B0" stroke-width="0.8" />
<line x1="484.2526964560862" y1="163.33333333333334" x2="484.2526964560862" y2="216.66666666666669" stroke="#B0B0B0" stroke-width="0.8" />
<line x1="564.3759630200307" y1="163.33333333333334" x2="564.3759630200307" y2="216.66666666666669" stroke="#B0B0B0" stroke-width="0.8" />
<line x1="60" y1="214.29507256812553" x2="580" y2="214.29507256812553" stroke="#B0B0B0" stroke-width="0.8" />
<line x1="60" y1="205.923505028034" x2="580" y2="205.923505028034" stroke="#B0B0B0" stroke-width="0.8" />
<line x1="60" y1="197.55193748794244" x2="580" y2="197.55193748794244" stroke="#B0B0B0" stroke-width="0.8" />
<line x1="60" y1="189.18036994785086" x2="580" y2="189.18036994785086" stroke="#B0B0B0" stroke-width="0.8" />
<line x1="60" y1="180.80880240775934" x2="580" y2="180.80880240775934" stroke="#B0B0B0" stroke-width="0.8" />
<line x1="60" y1="172.43723486766777" x2="580" y2="172.43723486766777" stroke="#B0B0B0" stroke-width="0.8" />
<line x1="60" y1="164.06566732757625" x2="580" y2="164.06566732757625" stroke="#B0B0B0" stroke-width="0.8" />
<line x1="83.63636363636363" y1="216.66666666666669" x2="83.63636363636363" y2="221.66666666666669" stroke="#000000" stroke-width="1" />
<text x="83.63636363636363" y="231.66666666666669" font-family="sans-serif" font-size="13" text-anchor="middle" fill="#000000">0</text>
<line x1="163.75963020030815" y1="216.66666666666669" x2="163.75963020030815" y2="221.66666666666669" stroke="#000000" stroke-width="1" />
<text x="163.75963020030815" y="231.66666666666669" font-family="sans-serif" font-size="13" text-anchor="middle" fill="#000000">10</text>
<line x1="243.88289676425265" y1="216.66666666666669" x2="243.88289676425265" y2="221.66666666666669" stroke="#000000" stroke-width="1" />
<text x="243.88289676425265" y="231.66666666666669" font-family="sans-serif" font-size="13" text-anchor="middle" fill="#000000">20</text>
<line x1="324.0061633281972" y1="216.66666666666669" x2="324.0061633281972" y2="221.66666666666669" stroke="#000000" stroke-width="1" />
<text x="324.0061633281972" y="231.66666666666669" font-family="sans-serif" font-size="13" text-anchor="middle" fill="#000000">30</text>
<line x1="404.1294298921417" y1="216.66666666666669" x2="404.1294298921417" y2="221.66666666666669" stroke="#000000" stroke-width="1" />
<text x="404.1294298921417" y="231.66666666666669" font-family="sans-serif" font-size="13" text-anchor="middle" fill="#000000">40</text>
<line x1="484.2526964560862" y1="216.66666666666669" x2="484.2526964560862" y2="221.66666666666669" stroke="#000000" stroke-width="1" />
<text x="484.2526964560862" y="231.66666666666669" font-family="sans-serif" font-size="13" text-anchor="middle" fill="#000000">50</text>
<line x1="564.3759630200307" y1="216.66666666666669" x2="564.3759630200307" y2="221.66666666666669" stroke="#000000" stroke-width="1" />
<text x="564.3759630200307" y="231.66666666666669" font-family="sans-serif" font-size="13" text-anchor="middle" fill="#000000">60</text>
<line x1="67.61171032357473" y1="216.66666666666669" x2="67.61171032357473" y2="219.66666666666669" stroke="#000000" stroke-width="0.5" />
<line x1="99.66101694915253" y1="216.66666666666669" x2="99.66101694915253" y2="219.66666666666669" stroke="#000000" stroke-width="0.5" />
<line x1="115.68567026194142" y1="216.66666666666669" x2="115.68567026194142" y2="219.66666666666669" stroke="#000000" stroke-width="0.5" />
<line x1="131.71032357473035" y1="216.66666666666669" x2="131.71032357473035" y2="219.66666666666669" stroke="#000000" stroke-width="0.5" />
<line x1="147.73497688751922" y1="216.66666666666669" x2="147.73497688751922" y2="219.66666666666669" stroke="#000000" stroke-width="0.5" />
<line x1="179.78428351309705" y1="216.66666666666669" x2="179.78428351309705" y2="219.66666666666669" stroke="#000000" stroke-width="0.5" />
<line x1="195.80893682588595" y1="216.66666666666669" x2="195.80893682588595" y2="219.66666666666669" stroke="#000000" stroke-width="0.5" />
<line x1="211.83359013867485" y1="216.66666666666669" x2="211.83359013867485" y2="219.66666666666669" stroke="#000000" stroke-width="0.5" />
<line x1="227.85824345146375" y1="216.66666666666669" x2="227.85824345146375" y2="219.66666666666669" stroke="#000000" stroke-width="0.5" />
<line x1="259.90755007704155" y1="216.66666666666669" x2="259.90755007704155" y2="219.66666666666669" stroke="#000000" stroke-width="0.5" />
<line x1="275.9322033898305" y1="216.66666666666669" x2="275.9322033898305" y2="219.66666666666669" stroke="#000000" stroke-width="0.5" />
<line x1="291.95685670261935" y1="216.66666666666669" x2="291.95685670261935" y2="219.66666666666669" stroke="#000000" stroke-width="0.5" />
<line x1="307.9815100154083" y1="216.66666666666669" x2="307.9815100154083" y2="219.66666666666669" stroke="#000000" stroke-width="0.5" />
<line x1="340.0308166409861" y1="216.66666666666669" x2="340.0308166409861" y2="219.66666666666669" stroke="#000000" stroke-width="0.5" />
<line x1="356.055469953775" y1="216.66666666666669" x2="356.055469953775" y2="219.66666666666669" stroke="#000000" stroke-width="0.5" />
<line x1="372.0801232665639" y1="216.66666666666669" x2="372.0801232665639" y2="219.66666666666669" stroke="#000000" stroke-width="0.5" />
<line x1="388.1047765793528" y1="216.66666666666669" x2="388.1047765793528" y2="219.66666666666669" stroke="#000000" stroke-width="0.5" />
<line x1="420.1540832049306" y1="216.66666666666669" x2="420.1540832049306" y2="219.66666666666669" stroke="#000000" stroke-width="0.5" />
<line x1="436.17873651771947" y1="216.66666666666669" x2="436.17873651771947" y2="219.66666666666669" stroke="#000000" stroke-width="0.5" />
<line x1="452.2033898305084" y1="216.66666666666669" x2="452.2033898305084" y2="219.66666666666669" stroke="#000000" stroke-width="0.5" />
<line x1="468.2280431432973" y1="216.66666666666669" x2="468.2280431432973" y2="219.66666666666669" stroke="#000000" stroke-width="0.5" />
<line x1="500.2773497688751" y1="216.66666666666669" x2="500.2773497688751" y2="219.66666666666669" stroke="#000000" stroke-width="0.5" />
<line x1="516.302003081664" y1="216.66666666666669" x2="516.302003081664" y2="219.66666666666669" stroke="#000000" stroke-width="0.5" />
<line x1="532.3266563944529" y1="216.66666666666669" x2="532.3266563944529" y2="219.66666666666669" stroke="#000000" stroke-width="0.5" />
<line x1="548.3513097072419" y1="216.66666666666669" x2="548.3513097072419" y2="219.66666666666669" stroke="#000000" stroke-width="0.5" />
<line x1="78.63636363636363" y1="214.29507256812553" x2="83.63636363636363" y2="214.29507256812553" stroke="#000000" stroke-width="1" />
<text x="52" y="218.29507256812553" font-family="sans-serif" font-size="13" text-anchor="end" fill="#000000">40</text>
<line x1="78.63636363636363" y1="205.923505028034" x2="83.63636363636363" y2="205.923505028034" stroke="#000000" stroke-width="1" />
<text x="52" y="209.923505028034" font-family="sans-serif" font-size="13" text-anchor="end" fill="#000000">45</text>
<line x1="78.63636363636363" y1="197.55193748794244" x2="83.63636363636363" y2="197.55193748794244" stroke="#000000" stroke-width="1" />
<text x="52" y="201.55193748794244" font-family="sans-serif" font-size="13" text-anchor="end" fill="#000000">50</text>
<line x1="78.63636363636363" y1="189.18036994785086" x2="83.63636363636363" y2="189.18036994785086" stroke="#000000" stroke-width="1" />
<text x="52" y="193.18036994785086" font-family="sans-serif" font-size="13" text-anchor="end" fill="#000000">55</text>
<line x1="78.63636363636363" y1="180.80880240775934" x2="83.63636363636363" y2="180.80880240775934" stroke="#000000" stroke-width="1" />
<text x="52" y="184.80880240775934" font-family="sans-serif" font-size="13" text-anchor="end" fill="#000000">60</text>
<line x1="78.63636363636363" y1="172.43723486766777" x2="83.63636363636363" y2="172.43723486766777" stroke="#000000" stroke-width="1" />
<text x="52" y="176.43723486766777" font-family="sans-serif" font-size="13" text-anchor="end" fill="#000000">65</text>
<line x1="78.63636363636363" y1="164.06566732757625" x2="83.63636363636363" y2="164.06566732757625" stroke="#000000" stroke-width="1" />
<text x="52" y="168.06566732757625" font-family="sans-serif" font-size="13" text-anchor="end" fill="#000000">70</text>
<line x1="80.63636363636363" y1="215.96938607614385" x2="83.63636363636363" y2="215.96938607614385" stroke="#000000" stroke-width="0.5" />
<line x1="80.63636363636363" y1="212.62075906010722" x2="83.63636363636363" y2="212.62075906010722" stroke="#000000" stroke-width="0.5" />
<line x1="80.63636363636363" y1="210.9464455520889" x2="83.63636363636363" y2="210.9464455520889" stroke="#000000" stroke-width="0.5" />
<line x1="80.63636363636363" y1="209.2721320440706" x2="83.63636363636363" y2="209.2721320440706" stroke="#000000" stroke-width="0.5" />
<line x1="80.63636363636363" y1="207.59781853605227" x2="83.63636363636363" y2="207.59781853605227" stroke="#000000" stroke-width="0.5" />
<line x1="80.63636363636363" y1="204.24919152001567" x2="83.63636363636363" y2="204.24919152001567" stroke="#000000" stroke-width="0.5" />
<line x1="80.63636363636363" y1="202.57487801199736" x2="83.63636363636363" y2="202.57487801199736" stroke="#000000" stroke-width="0.5" />
<line x1="80.63636363636363" y1="200.90056450397907" x2="83.63636363636363" y2="200.90056450397907" stroke="#000000" stroke-width="0.5" />
<line x1="80.63636363636363" y1="199.22625099596075" x2="83.63636363636363" y2="199.22625099596075" stroke="#000000" stroke-width="0.5" />
<line x1="80.63636363636363" y1="195.87762397992412" x2="83.63636363636363" y2="195.87762397992412" stroke="#000000" stroke-width="0.5" />
<line x1="80.63636363636363" y1="194.2033104719058" x2="83.63636363636363" y2="194.2033104719058" stroke="#000000" stroke-width="0.5" />
<line x1="80.63636363636363" y1="192.5289969638875" x2="83.63636363636363" y2="192.5289969638875" stroke="#000000" stroke-width="0.5" />
<line x1="80.63636363636363" y1="190.85468345586918" x2="83.63636363636363" y2="190.85468345586918" stroke="#000000" stroke-width="0.5" />
<line x1="80.63636363636363" y1="187.50605643983258" x2="83.63636363636363" y2="187.50605643983258" stroke="#000000" stroke-width="0.5" />
<line x1="80.63636363636363" y1="185.83174293181426" x2="83.63636363636363" y2="185.83174293181426" stroke="#000000" stroke-width="0.5" />
<line x1="80.63636363636363" y1="184.15742942379597" x2="83.63636363636363" y2="184.15742942379597" stroke="#000000" stroke-width="0.5" />
<line x1="80.63636363636363" y1="182.48311591577766" x2="83.63636363636363" y2="182.48311591577766" stroke="#000000" stroke-width="0.5" />
<line x1="80.63636363636363" y1="179.13448889974103" x2="83.63636363636363" y2="179.13448889974103" stroke="#000000" stroke-width="0.5" />
<line x1="80.63636363636363" y1="177.46017539172271" x2="83.63636363636363" y2="177.46017539172271" stroke="#000000" stroke-width="0.5" />
<line x1="80.63636363636363" y1="175.7858618837044" x2="83.63636363636363" y2="175.7858618837044" stroke="#000000" stroke-width="0.5" />
<line x1="80.63636363636363" y1="174.11154837568608" x2="83.63636363636363" y2="174.11154837568608" stroke="#000000" stroke-width="0.5" />
<line x1="80.63636363636363" y1="170.76292135964948" x2="83.63636363636363" y2="170.76292135964948" stroke="#000000" stroke-width="0.5" />
<line x1="80.63636363636363" y1="169.08860785163117" x2="83.63636363636363" y2="169.08860785163117" stroke="#000000" stroke-width="0.5" />
<line x1="80.63636363636363" y1="167.41429434361288" x2="83.63636363636363" y2="167.41429434361288" stroke="#000000" stroke-width="0.5" />
<line x1="80.63636363636363" y1="165.73998083559457" x2="83.63636363636363" y2="165.73998083559457" stroke="#000000" stroke-width="0.5" />
<polyline points="0,0 0,0 0,0 0,0 0,0 0,0 0,0 0,0 0,0 0,0 0,0 0,0 0,0 0,0 0,0 0,0 0,0 0,0 0,0 0,0 0,0 0,0 0,0 0,0 0,0 0,0 0,0 0,0 0,0 0,0 0,0 0,0 0,0 0,0 0,0 0,0 0,0 0,0 0,0 0,0 0,0 0,0 0,0 0,0 0,0 0,0 0,0 0,0 0,0 0,0 0,0 0,0 0,0 0,0 0,0 0,0 0,0 0,0 0,0 0,0" fill="none" stroke="#1F77B4" stroke-width="1.5" />
<g class="spine">
<line x1="60" y1="216.66666666666669" x2="580" y2="216.66666666666669" stroke="#000000" stroke-width="1" />
</g>
<g class="spine">
<line x1="60" y1="163.33333333333334" x2="60" y2="216.66666666666669" stroke="#000000" stroke-width="1" />
</g>
<text x="15" y="190" font-family="sans-serif" font-size="13" text-anchor="middle" fill="#000000">Memory %</text>
<rect x="60" y="256.6666666666667" width="520" height="53.333333333333336" fill="#FFFFFF" />
<line x1="83.63636363636363" y1="256.6666666666667" x2="83.63636363636363" y2="310" stroke="#B0B0B0" stroke-width="0.8" />
<line x1="163.75963020030815" y1="256.6666666666667" x2="163.75963020030815" y2="310" stroke="#B0B0B0" stroke-width="0.8" />
<line x1="243.88289676425265" y1="256.6666666666667" x2="243.88289676425265" y2="310" stroke="#B0B0B0" stroke-width="0.8" />
<line x1="324.0061633281972" y1="256.6666666666667" x2="324.0061633281972" y2="310" stroke="#B0B0B0" stroke-width="0.8" />
<line x1="404.1294298921417" y1="256.6666666666667" x2="404.1294298921417" y2="310" stroke="#B0B0B0" stroke-width="0.8" />
<line x1="484.2526964560862" y1="256.6666666666667" x2="484.2526964560862" y2="310" stroke="#B0B0B0" stroke-width="0.8" />
<line x1="564.3759630200307" y1="256.6666666666667" x2="564.3759630200307" y2="310" stroke="#B0B0B0" stroke-width="0.8" />
<line x1="60" y1="309.116888832385" x2="580" y2="309.116888832385" stroke="#B0B0B0" stroke-width="0.8" />
<line x1="60" y1="299.05584970475553" x2="580" y2="299.05584970475553" stroke="#B0B0B0" stroke-width="0.8" />
<line x1="60" y1="288.9948105771261" x2="580" y2="288.9948105771261" stroke="#B0B0B0" stroke-width="0.8" />
<line x1="60" y1="278.93377144949665" x2="580" y2="278.93377144949665" stroke="#B0B0B0" stroke-width="0.8" />
<line x1="60" y1="268.8727323218672" x2="580" y2="268.8727323218672" stroke="#B0B0B0" stroke-width="0.8" />
<line x1="60" y1="258.81169319423776" x2="580" y2="258.81169319423776" stroke="#B0B0B0" stroke-width="0.8" />
<line x1="83.63636363636363" y1="310" x2="83.63636363636363" y2="315" stroke="#000000" stroke-width="1" />
<text x="83.63636363636363" y="325" font-family="sans-serif" font-size="13" text-anchor="middle" fill="#000000">0</text>
<line x1="163.75963020030815" y1="310" x2="163.75963020030815" y2="315" stroke="#000000" stroke-width="1" />
<text x="163.75963020030815" y="325" font-family="sans-serif" font-size="13" text-anchor="middle" fill="#000000">10</text>
<line x1="243.88289676425265" y1="310" x2="243.88289676425265" y2="315" stroke="#000000" stroke-width="1" />
<text x="243.88289676425265" y="325" font-family="sans-serif" font-size="13" text-anchor="middle" fill="#000000">20</text>
<line x1="324.0061633281972" y1="310" x2="324.0061633281972" y2="315" stroke="#000000" stroke-width="1" />
<text x="324.0061633281972" y="325" font-family="sans-serif" font-size="13" text-anchor="middle" fill="#000000">30</text>
<line x1="404.1294298921417" y1="310" x2="404.1294298921417" y2="315" stroke="#000000" stroke-width="1" />
<text x="404.1294298921417" y="325" font-family="sans-serif" font-size="13" text-anchor="middle" fill="#000000">40</text>
<line x1="484.2526964560862" y1="310" x2="484.2526964560862" y2="315" stroke="#000000" stroke-width="1" />
<text x="484.2526964560862" y="325" font-family="sans-serif" font-size="13" text-anchor="middle" fill="#000000">50</text>
<line x1="564.3759630200307" y1="310" x2="564.3759630200307" y2="315" stroke="#000000" stroke-width="1" />
<text x="564.3759630200307" y="325" font-family="sans-serif" font-size="13" text-anchor="middle" fill="#000000">60</text>
<line x1="67.61171032357473" y1="310" x2="67.61171032357473" y2="313" stroke="#000000" stroke-width="0.5" />
<line x1="99.66101694915253" y1="310" x2="99.66101694915253" y2="313" stroke="#000000" stroke-width="0.5" />
<line x1="115.68567026194142" y1="310" x2="115.68567026194142" y2="313" stroke="#000000" stroke-width="0.5" />
<line x1="131.71032357473035" y1="310" x2="131.71032357473035" y2="313" stroke="#000000" stroke-width="0.5" />
<line x1="147.73497688751922" y1="310" x2="147.73497688751922" y2="313" stroke="#000000" stroke-width="0.5" />
<line x1="179.78428351309705" y1="310" x2="179.78428351309705" y2="313" stroke="#000000" stroke-width="0.5" />
<line x1="195.80893682588595" y1="310" x2="195.80893682588595" y2="313" stroke="#000000" stroke-width="0.5" />
<line x1="211.83359013867485" y1="310" x2="211.83359013867485" y2="313" stroke="#000000" stroke-width="0.5" />
<line x1="227.85824345146375" y1="310" x2="227.85824345146375" y2="313" stroke="#000000" stroke-width="0.5" />
<line x1="259.90755007704155" y1="310" x2="259.90755007704155" y2="313" stroke="#000000" stroke-width="0.5" />
<line x1="275.9322033898305" y1="310" x2="275.9322033898305" y2="313" stroke="#000000" stroke-width="0.5" />
<line x1="291.95685670261935" y1="310" x2="291.95685670261935" y2="313" stroke="#000000" stroke-width="0.5" />
<line x1="307.9815100154083" y1="310" x2="307.9815100154083" y2="313" stroke="#000000" stroke-width="0.5" />
<line x1="340.0308166409861" y1="310" x2="340.0308166409861" y2="313" stroke="#000000" stroke-width="0.5" />
<line x1="356.055469953775" y1="310" x2="356.055469953775" y2="313" stroke="#000000" stroke-width="0.5" />
<line x1="372.0801232665639" y1="310" x2="372.0801232665639" y2="313" stroke="#000000" stroke-width="0.5" />
<line x1="388.1047765793528" y1="310" x2="388.1047765793528" y2="313" stroke="#000000" stroke-width="0.5" />
<line x1="420.1540832049306" y1="310" x2="420.1540832049306" y2="313" stroke="#000000" stroke-width="0.5" />
<line x1="436.17873651771947" y1="310" x2="436.17873651771947" y2="313" stroke="#000000" stroke-width="0.5" />
<line x1="452.2033898305084" y1="310" x2="452.2033898305084" y2="313" stroke="#000000" stroke-width="0.5" />
<line x1="468.2280431432973" y1="310" x2="468.2280431432973" y2="313" stroke="#000000" stroke-width="0.5" />
<line x1="500.2773497688751" y1="310" x2="500.2773497688751" y2="313" stroke="#000000" stroke-width="0.5" />
<line x1="516.302003081664" y1="310" x2="516.302003081664" y2="313" stroke="#000000" stroke-width="0.5" />
<line x1="532.3266563944529" y1="310" x2="532.3266563944529" y2="313" stroke="#000000" stroke-width="0.5" />
<line x1="548.3513097072419" y1="310" x2="548.3513097072419" y2="313" stroke="#000000" stroke-width="0.5" />
<line x1="78.63636363636363" y1="309.116888832385" x2="83.63636363636363" y2="309.116888832385" stroke="#000000" stroke-width="1" />
<text x="52" y="313.116888832385" font-family="sans-serif" font-size="13" text-anchor="end" fill="#000000">0</text>
<line x1="78.63636363636363" y1="299.05584970475553" x2="83.63636363636363" y2="299.05584970475553" stroke="#000000" stroke-width="1" />
<text x="52" y="303.05584970475553" font-family="sans-serif" font-size="13" text-anchor="end" fill="#000000">100</text>
<line x1="78.63636363636363" y1="288.9948105771261" x2="83.63636363636363" y2="288.9948105771261" stroke="#000000" stroke-width="1" />
<text x="52" y="292.9948105771261" font-family="sans-serif" font-size="13" text-anchor="end" fill="#000000">200</text>
<line x1="78.63636363636363" y1="278.93377144949665" x2="83.63636363636363" y2="278.93377144949665" stroke="#000000" stroke-width="1" />
<text x="52" y="282.93377144949665" font-family="sans-serif" font-size="13" text-anchor="end" fill="#000000">300</text>
<line x1="78.63636363636363" y1="268.8727323218672" x2="83.63636363636363" y2="268.8727323218672" stroke="#000000" stroke-width="1" />
<text x="52" y="272.8727323218672" font-family="sans-serif" font-size="13" text-anchor="end" fill="#000000">400</text>
<line x1="78.63636363636363" y1="258.81169319423776" x2="83.63636363636363" y2="258.81169319423776" stroke="#000000" stroke-width="1" />
<text x="52" y="262.81169319423776" font-family="sans-serif" font-size="13" text-anchor="end" fill="#000000">500</text>
<line x1="80.63636363636363" y1="307.1046810068591" x2="83.63636363636363" y2="307.1046810068591" stroke="#000000" stroke-width="0.5" />
<line x1="80.63636363636363" y1="305.0924731813332" x2="83.63636363636363" y2="305.0924731813332" stroke="#000000" stroke-width="0.5" />
<line x1="80.63636363636363" y1="303.0802653558073" x2="83.63636363636363" y2="303.0802653558073" stroke="#000000" stroke-width="0.5" />
<line x1="80.63636363636363" y1="301.0680575302814" x2="83.63636363636363" y2="301.0680575302814" stroke="#000000" stroke-width="0.5" />
<line x1="80.63636363636363" y1="297.04364187922965" x2="83.63636363636363" y2="297.04364187922965" stroke="#000000" stroke-width="0.5" />
<line x1="80.63636363636363" y1="295.0314340537038" x2="83.63636363636363" y2="295.0314340537038" stroke="#000000" stroke-width="0.5" />
<line x1="80.63636363636363" y1="293.01922622817784" x2="83.63636363636363" y2="293.01922622817784" stroke="#000000" stroke-width="0.5" />
<line x1="80.63636363636363" y1="291.00701840265197" x2="83.63636363636363" y2="291.00701840265197" stroke="#000000" stroke-width="0.5" />
<line x1="80.63636363636363" y1="286.9826027516002" x2="83.63636363636363" y2="286.9826027516002" stroke="#000000" stroke-width="0.5" />
<line x1="80.63636363636363" y1="284.97039492607433" x2="83.63636363636363" y2="284.97039492607433" stroke="#000000" stroke-width="0.5" />
<line x1="80.63636363636363" y1="282.9581871005484" x2="83.63636363636363" y2="282.9581871005484" stroke="#000000" stroke-width="0.5" />
<line x1="80.63636363636363" y1="280.9459792750225" x2="83.63636363636363" y2="280.9459792750225" stroke="#000000" stroke-width="0.5" />
<line x1="80.63636363636363" y1="276.92156362397077" x2="83.63636363636363" y2="276.92156362397077" stroke="#000000" stroke-width="0.5" />
<line x1="80.63636363636363" y1="274.9093557984449" x2="83.63636363636363" y2="274.9093557984449" stroke="#000000" stroke-width="0.5" />
<line x1="80.63636363636363" y1="272.89714797291896" x2="83.63636363636363" y2="272.89714797291896" stroke="#000000" stroke-width="0.5" />
<line x1="80.63636363636363" y1="270.8849401473931" x2="83.63636363636363" y2="270.8849401473931" stroke="#000000" stroke-width="0.5" />
<line x1="80.63636363636363" y1="266.8605244963413" x2="83.63636363636363" y2="266.8605244963413" stroke="#000000" stroke-width="0.5" />
<line x1="80.63636363636363" y1="264.84831667081545" x2="83.63636363636363" y2="264.84831667081545" stroke="#000000" stroke-width="0.5" />
<line x1="80.63636363636363" y1="262.8361088452895" x2="83.63636363636363" y2="262.8361088452895" stroke="#000000" stroke-width="0.5" />
<line x1="80.63636363636363" y1="260.82390101976364" x2="83.63636363636363" y2="260.82390101976364" stroke="#000000" stroke-width="0.5" />
<line x1="80.63636363636363" y1="256.7994853687119" x2="83.63636363636363" y2="256.7994853687119" stroke="#000000" stroke-width="0.5" />
<polyline points="0,0 0,0 0,0 0,0 0,0 0,0 0,0 0,0 0,0 0,0 0,0 0,0 0,0 0,0 0,0 0,0 0,0 0,0 0,0 0,0 0,0 0,0 0,0 0,0 0,0 0,0 0,0 0,0 0,0 0,0 0,0 0,0 0,0 0,0 0,0 0,0 0,0 0,0 0,0 0,0 0,0 0,0 0,0 0,0 0,0 0,0 0,0 0,0 0,0 0,0 0,0 0,0 0,0 0,0 0,0 0,0 0,0 0,0 0,0 0,0" fill="none" stroke="#1F77B4" stroke-width="1.5" />
<g class="spine">
<line x1="60" y1="310" x2="580" y2="310" stroke="#000000" stroke-width="1" />
</g>
<g class="spine">
<line x1="60" y1="256.6666666666667" x2="60" y2="310" stroke="#000000" stroke-width="1" />
</g>
<text x="15" y="283.33333333333337" font-family="sans-serif" font-size="13" text-anchor="middle" fill="#000000">Disk I/O</text>
</svg>
