<svg xmlns="http://www.w3.org/2000/svg" viewBox="0 0 600 360" width="600" height="360" style="width:100%;height:auto" role="img" aria-labelledby="chart-title">
<title id="chart-title">Server Metrics — Last 60s</title>
<rect x="0" y="0" width="600" height="360" fill="#FFFFFF" />
<path d="M10.7176 -12.6305L10.7176 -9.87033Q9.64323 -10.3507 8.62126 -10.5953Q7.59928 -10.8399 6.69086 -10.8399Q5.48546 -10.8399 4.90896 -10.508Q4.33247 -10.1761 4.33247 -9.47727Q4.33247 -8.95318 4.72116 -8.66056Q5.10986 -8.36795 6.13184 -8.15831L7.56434 -7.87006Q9.73931 -7.43332 10.6565 -6.54237Q11.5736 -5.65142 11.5736 -4.00928Q11.5736 -1.85178 10.294 -0.799235Q9.01432 0.253309 6.38515 0.253309Q5.1448 0.253309 3.89573 0.0174696Q2.64665 -0.21837 1.39757 -0.681315L1.39757 -3.52013Q2.64665 -2.85628 3.81274 -2.51999Q4.97884 -2.1837 6.06196 -2.1837Q7.16254 -2.1837 7.74778 -2.55056Q8.33301 -2.91743 8.33301 -3.59874Q8.33301 -4.21018 7.93557 -4.5421Q7.53814 -4.87402 6.35021 -5.13607L5.04872 -5.42432Q3.09212 -5.84359 2.18807 -6.76074Q1.28402 -7.6779 1.28402 -9.23269Q1.28402 -11.1806 2.54183 -12.2287Q3.79964 -13.2769 6.15804 -13.2769Q7.23242 -13.2769 8.36795 -13.1153Q9.50347 -12.9537 10.7176 -12.6305ZM24.1517 -4.9177L24.1517 -4.02675L16.8407 -4.02675Q16.9543 -2.92616 17.6356 -2.37587Q18.3169 -1.82558 19.5398 -1.82558Q20.5268 -1.82558 21.5619 -2.11819Q22.597 -2.41081 23.6888 -3.00477L23.6888 -0.593967Q22.5795 -0.174696 21.4702 0.0393066Q20.3608 0.253309 19.2515 0.253309Q16.5961 0.253309 15.1243 -1.09622Q13.6525 -2.44575 13.6525 -4.88276Q13.6525 -7.2761 15.0981 -8.64746Q16.5437 -10.0188 19.0768 -10.0188Q21.3828 -10.0188 22.7673 -8.62999Q24.1517 -7.24116 24.1517 -4.9177ZM20.9373 -5.95714Q20.9373 -6.84809 20.4176 -7.39402Q19.8979 -7.93994 19.0594 -7.93994Q18.1509 -7.93994 17.5832 -7.42896Q17.0154 -6.91797 16.8757 -5.95714L20.9373 -5.95714ZM33.7862 -7.11887Q33.3757 -7.31103 32.9695 -7.40275Q32.5634 -7.49447 32.1528 -7.49447Q30.9474 -7.49447 30.2967 -6.72144Q29.6459 -5.94841 29.6459 -4.50716L29.6459 0L26.5189 0L26.5189 -9.78299L29.6459 -9.78299L29.6459 -8.17578Q30.2486 -9.13661 31.0304 -9.57772Q31.8122 -10.0188 32.904 -10.0188Q33.0613 -10.0188 33.2447 -10.0057Q33.4281 -9.99262 33.7775 -9.94895L33.7862 -7.11887ZM34.1094 -9.78299L37.2365 -9.78299L39.6735 -3.02224L42.1018 -9.78299L45.2376 -9.78299L41.3855 0L37.9527 0L34.1094 -9.78299ZM56.7675 -4.9177L56.7675 -4.02675L49.4565 -4.02675Q49.57 -2.92616 50.2514 -2.37587Q50.9327 -1.82558 52.1556 -1.82558Q53.1426 -1.82558 54.1777 -2.11819Q55.2127 -2.41081 56.3046 -3.00477L56.3046 -0.593967Q55.1953 -0.174696 54.0859 0.0393066Q52.9766 0.253309 51.8673 0.253309Q49.2119 0.253309 47.7401 -1.09622Q46.2683 -2.44575 46.2683 -4.88276Q46.2683 -7.2761 47.7139 -8.64746Q49.1595 -10.0188 51.6926 -10.0188Q53.9986 -10.0188 55.3831 -8.62999Q56.7675 -7.24116 56.7675 -4.9177ZM53.5531 -5.95714Q53.5531 -6.84809 53.0334 -7.39402Q52.5137 -7.93994 51.6751 -7.93994Q50.7667 -7.93994 50.199 -7.42896Q49.6312 -6.91797 49.4914 -5.95714L53.5531 -5.95714ZM66.402 -7.11887Q65.9915 -7.31103 65.5853 -7.40275Q65.1792 -7.49447 64.7686 -7.49447Q63.5632 -7.49447 62.9125 -6.72144Q62.2617 -5.94841 62.2617 -4.50716L62.2617 0L59.1347 0L59.1347 -9.78299L62.2617 -9.78299L62.2617 -8.17578Q62.8644 -9.13661 63.6462 -9.57772Q64.428 -10.0188 65.5198 -10.0188Q65.677 -10.0188 65.8605 -10.0057Q66.0439 -9.99262 66.3933 -9.94895L66.402 -7.11887ZM74.3245 -13.0411L78.6046 -13.0411L81.5744 -6.06196L84.5617 -13.0411L88.833 -13.0411L88.833 0L85.6535 0L85.6535 -9.53841L82.6488 -2.50689L80.5175 -2.50689L77.5127 -9.53841L77.5127 0L74.3245 0L74.3245 -13.0411ZM101.752 -4.9177L101.752 -4.02675L94.4408 -4.02675Q94.5543 -2.92616 95.2356 -2.37587Q95.917 -1.82558 97.1398 -1.82558Q98.1269 -1.82558 99.1619 -2.11819Q100.197 -2.41081 101.289 -3.00477L101.289 -0.593967Q100.18 -0.174696 99.0702 0.0393066Q97.9609 0.253309 96.8516 0.253309Q94.1962 0.253309 92.7244 -1.09622Q91.2526 -2.44575 91.2526 -4.88276Q91.2526 -7.2761 92.6982 -8.64746Q94.1438 -10.0188 96.6769 -10.0188Q98.9829 -10.0188 100.367 -8.62999Q101.752 -7.24116 101.752 -4.9177ZM98.5374 -5.95714Q98.5374 -6.84809 98.0177 -7.39402Q97.498 -7.93994 96.6594 -7.93994Q95.751 -7.93994 95.1832 -7.42896Q94.6155 -6.91797 94.4757 -5.95714L98.5374 -5.95714ZM107.534 -12.5607L107.534 -9.78299L110.757 -9.78299L110.757 -7.54688L107.534 -7.54688L107.534 -3.39784Q107.534 -2.71653 107.805 -2.47632Q108.076 -2.23611 108.879 -2.23611L110.487 -2.23611L110.487 0L107.805 0Q105.953 0 105.18 -0.773031Q104.407 -1.54606 104.407 -3.39784L104.407 -7.54688L102.852 -7.54688L102.852 -9.78299L104.407 -9.78299L104.407 -12.5607L107.534 -12.5607ZM119.938 -7.11887Q119.527 -7.31103 119.121 -7.40275Q118.715 -7.49447 118.304 -7.49447Q117.099 -7.49447 116.448 -6.72144Q115.797 -5.94841 115.797 -4.50716L115.797 0L112.67 0L112.67 -9.78299L115.797 -9.78299L115.797 -8.17578Q116.4 -9.13661 117.182 -9.57772Q117.964 -10.0188 119.055 -10.0188Q119.213 -10.0188 119.396 -10.0057Q119.58 -9.99262 119.929 -9.94895L119.938 -7.11887ZM121.492 -9.78299L124.62 -9.78299L124.62 0L121.492 0L121.492 -9.78299ZM121.492 -13.5914L124.62 -13.5914L124.62 -11.0408L121.492 -11.0408L121.492 -13.5914ZM135.529 -9.47727L135.529 -6.9267Q134.892 -7.36344 134.25 -7.57308Q133.608 -7.78271 132.918 -7.78271Q131.607 -7.78271 130.878 -7.01842Q130.149 -6.25412 130.149 -4.88276Q130.149 -3.51139 130.878 -2.7471Q131.607 -1.9828 132.918 -1.9828Q133.651 -1.9828 134.311 -2.20117Q134.97 -2.41954 135.529 -2.84755L135.529 -0.288249C135.04 -0.107729 134.544 0.0276602 134.04 0.11792Q133.284 0.253309 132.525 0.253309Q129.878 0.253309 128.384 -1.10495Q126.891 -2.46322 126.891 -4.88276Q126.891 -7.3023 128.384 -8.66056Q129.878 -10.0188 132.525 -10.0188Q133.293 -10.0188 134.04 -9.88344Q134.787 -9.74805 135.529 -9.47727ZM145.871 -9.47727L145.871 -7.1014Q144.867 -7.52067 143.932 -7.73031Q142.998 -7.93994 142.168 -7.93994Q141.277 -7.93994 140.844 -7.7172Q140.412 -7.49447 140.412 -7.03152Q140.412 -6.65592 140.74 -6.45502Q141.067 -6.25412 141.914 -6.15804L142.465 -6.07943Q144.867 -5.77371 145.697 -5.07492Q146.526 -4.37614 146.526 -2.88249Q146.526 -1.31896 145.373 -0.532823Q144.22 0.253309 141.932 0.253309Q140.962 0.253309 139.927 0.10045Q138.892 -0.0524089 137.8 -0.358127L137.8 -2.734Q138.735 -2.27978 139.718 -2.05268Q140.7 -1.82557 141.714 -1.82558Q142.631 -1.82558 143.094 -2.07888Q143.557 -2.33219 143.557 -2.83008Q143.557 -3.24935 143.238 -3.45462Q142.919 -3.65989 141.967 -3.77344L141.417 -3.84332Q139.329 -4.10536 138.49 -4.81288Q137.652 -5.5204 137.652 -6.96164Q137.652 -8.51644 138.718 -9.26763Q139.783 -10.0188 141.984 -10.0188Q142.849 -10.0188 143.801 -9.8878Q144.753 -9.75678 145.871 -9.47727ZM154.562 -6.02702L170.53 -6.02702L170.53 -3.77344L154.562 -3.77344L154.562 -6.02702ZM179.361 -13.0411L182.723 -13.0411L182.723 -2.54183L188.628 -2.54183L188.628 0L179.361 0L179.361 -13.0411ZM195.005 -4.40234Q194.026 -4.40234 193.533 -4.07042Q193.039 -3.7385 193.039 -3.09212Q193.039 -2.49816 193.437 -2.16187Q193.834 -1.82558 194.542 -1.82558Q195.424 -1.82558 196.027 -2.45885Q196.629 -3.09212 196.629 -4.04422L196.629 -4.40234L195.005 -4.40234ZM199.783 -5.58154L199.783 0L196.629 0L196.629 -1.44998Q196 -0.559028 195.214 -0.152859Q194.428 0.253309 193.301 0.253309Q191.781 0.253309 190.834 -0.633274Q189.886 -1.51986 189.886 -2.9349Q189.886 -4.65565 191.07 -5.45926Q192.253 -6.26286 194.786 -6.26286L196.629 -6.26286L196.629 -6.50743Q196.629 -7.24989 196.044 -7.59492Q195.459 -7.93994 194.219 -7.93994Q193.214 -7.93994 192.349 -7.73904Q191.484 -7.53814 190.742 -7.13634L190.742 -9.52094Q191.747 -9.76552 192.76 -9.89217Q193.773 -10.0188 194.786 -10.0188Q197.433 -10.0188 198.608 -8.97502Q199.783 -7.93121 199.783 -5.58154ZM210.334 -9.47727L210.334 -7.1014Q209.33 -7.52067 208.395 -7.73031Q207.46 -7.93994 206.631 -7.93994Q205.74 -7.93994 205.307 -7.7172Q204.875 -7.49447 204.875 -7.03152Q204.875 -6.65592 205.203 -6.45502Q205.53 -6.25412 206.377 -6.15804L206.928 -6.07943Q209.33 -5.77371 210.16 -5.07492Q210.989 -4.37614 210.989 -2.88249Q210.989 -1.31896 209.836 -0.532823Q208.683 0.253309 206.395 0.253309Q205.425 0.253309 204.39 0.10045Q203.355 -0.0524089 202.263 -0.358127L202.263 -2.734Q203.198 -2.27978 204.181 -2.05268Q205.163 -1.82557 206.176 -1.82558Q207.094 -1.82558 207.557 -2.07888Q208.02 -2.33219 208.02 -2.83008Q208.02 -3.24935 207.701 -3.45462Q207.382 -3.65989 206.43 -3.77344L205.879 -3.84332Q203.792 -4.10536 202.953 -4.81288Q202.115 -5.5204 202.115 -6.96164Q202.115 -8.51644 203.18 -9.26763Q204.246 -10.0188 206.447 -10.0188Q207.312 -10.0188 208.264 -9.8878Q209.216 -9.75678 210.334 -9.47727ZM216.754 -12.5607L216.754 -9.78299L219.977 -9.78299L219.977 -7.54688L216.754 -7.54688L216.754 -3.39784Q216.754 -2.71653 217.025 -2.47632Q217.296 -2.23611 218.099 -2.23611L219.707 -2.23611L219.707 0L217.025 0Q215.173 0 214.4 -0.773031Q213.627 -1.54606 213.627 -3.39784L213.627 -7.54688L212.072 -7.54688L212.072 -9.78299L213.627 -9.78299L213.627 -12.5607L216.754 -12.5607ZM233.088 -6.43755Q232.206 -6.43755 231.765 -5.86542Q231.324 -5.29329 231.324 -4.14903Q231.324 -3.00477 231.765 -2.43264Q232.206 -1.86051 233.088 -1.86051Q233.979 -1.86051 234.42 -2.43264Q234.862 -3.00477 234.862 -4.14903Q234.862 -5.29329 234.42 -5.86542Q233.979 -6.43755 233.088 -6.43755ZM237.246 -12.7004L237.246 -10.2896Q236.416 -10.6827 235.683 -10.8705Q234.949 -11.0583 234.25 -11.0583Q232.748 -11.0583 231.909 -10.2241Q231.071 -9.38992 230.931 -7.74778Q231.507 -8.17578 232.18 -8.38978Q232.853 -8.60379 233.647 -8.60379Q235.648 -8.60379 236.875 -7.43332Q238.102 -6.26286 238.102 -4.3674Q238.102 -2.27105 236.731 -1.00887Q235.359 0.253309 233.053 0.253309Q230.512 0.253309 229.118 -1.46308Q227.725 -3.17947 227.725 -6.33274Q227.725 -9.56462 229.354 -11.412Q230.983 -13.2594 233.822 -13.2594Q234.722 -13.2594 235.569 -13.1197Q236.416 -12.9799 237.246 -12.7004ZM247.291 -6.53364Q247.291 -8.97938 246.833 -9.97952Q246.374 -10.9797 245.291 -10.9797Q244.208 -10.9797 243.745 -9.97952Q243.282 -8.97938 243.282 -6.53364Q243.282 -4.06169 243.745 -3.04845Q244.208 -2.03521 245.291 -2.03521Q246.365 -2.03521 246.828 -3.04845Q247.291 -4.06169 247.291 -6.53364ZM250.654 -6.50743Q250.654 -3.26682 249.257 -1.50675Q247.859 0.253309 245.291 0.253309Q242.714 0.253309 241.317 -1.50675Q239.919 -3.26682 239.919 -6.50743Q239.919 -9.75678 241.317 -11.5168Q242.714 -13.2769 245.291 -13.2769Q247.859 -13.2769 249.257 -11.5168Q250.654 -9.75678 250.654 -6.50743ZM260.655 -9.47727L260.655 -7.1014Q259.651 -7.52067 258.716 -7.73031Q257.782 -7.93994 256.952 -7.93994Q256.061 -7.93994 255.629 -7.7172Q255.196 -7.49447 255.196 -7.03152Q255.196 -6.65592 255.524 -6.45502Q255.851 -6.25412 256.699 -6.15804L257.249 -6.07943Q259.651 -5.77371 260.481 -5.07492Q261.311 -4.37614 261.311 -2.88249Q261.311 -1.31896 260.158 -0.532823Q259.005 0.253309 256.716 0.253309Q255.746 0.253309 254.711 0.10045Q253.676 -0.0524089 252.584 -0.358127L252.584 -2.734Q253.519 -2.27978 254.502 -2.05268Q255.484 -1.82557 256.498 -1.82558Q257.415 -1.82558 257.878 -2.07888Q258.341 -2.33219 258.341 -2.83008Q258.341 -3.24935 258.022 -3.45462Q257.703 -3.65989 256.751 -3.77344L256.201 -3.84332Q254.113 -4.10536 253.275 -4.81288Q252.436 -5.5204 252.436 -6.96164Q252.436 -8.51644 253.502 -9.26763Q254.567 -10.0188 256.768 -10.0188Q257.633 -10.0188 258.585 -9.8878Q259.537 -9.75678 260.655 -9.47727Z" fill="#262626" transform="translate(300,24.099999999999998) translate(-131.07891845703125,0)" />
<rect x="75" y="43" width="465" height="65.66666666666667" fill="#FFFFFF" />
<line x1="96.13636363636363" y1="108.26666666666667" x2="96.13636363636363" y2="113.52777777777779" stroke="#262626" stroke-width="1.1111111111111112" />
<path d="M4.41488 -9.22309Q3.35693 -9.22309 2.82457 -8.1821Q2.29221 -7.14111 2.29221 -5.05235Q2.29221 -2.97038 2.82457 -1.92939Q3.35693 -0.888401 4.41488 -0.888401Q5.4796 -0.888401 6.01196 -1.92939Q6.54433 -2.97038 6.54433 -5.05235Q6.54433 -7.14111 6.01196 -8.1821Q5.4796 -9.22309 4.41488 -9.22309ZM4.41488 -10.3082Q6.11708 -10.3082 7.01565 -8.962Q7.91422 -7.61583 7.91423 -5.05235Q7.91423 -2.49566 7.01565 -1.1495Q6.11708 0.196669 4.41488 0.196669Q2.71267 0.196669 1.8141 -1.1495Q0.915527 -2.49566 0.915527 -5.05235Q0.915527 -7.61583 1.8141 -8.962Q2.71267 -10.3082 4.41488 -10.3082Z" fill="#262626" transform="translate(96.13636363636363,132.2777777777778) translate(-4.418267250061035,0)" />
<line x1="167.78505392912172" y1="108.26666666666667" x2="167.78505392912172" y2="113.52777777777779" stroke="#262626" stroke-width="1.1111111111111112" />
<path d="M1.72255 -1.15289L3.9605 -1.15289L3.9605 -8.87722L1.52588 -8.38894L1.52588 -9.63677L3.94694 -10.1251L5.31684 -10.1251L5.31684 -1.15289L7.5548 -1.15289L7.5548 0L1.72255 0L1.72255 -1.15289ZM13.2514 -9.22309Q12.1935 -9.22309 11.6611 -8.1821Q11.1287 -7.14111 11.1287 -5.05235Q11.1287 -2.97038 11.6611 -1.92939Q12.1935 -0.888401 13.2514 -0.888401Q14.3161 -0.888401 14.8485 -1.92939Q15.3809 -2.97038 15.3809 -5.05235Q15.3809 -7.14111 14.8485 -8.1821Q14.3161 -9.22309 13.2514 -9.22309ZM13.2514 -10.3082Q14.9536 -10.3082 15.8522 -8.962Q16.7508 -7.61583 16.7508 -5.05235Q16.7508 -2.49566 15.8522 -1.1495Q14.9536 0.196669 13.2514 0.196669Q11.5492 0.196669 10.6506 -1.1495Q9.75206 -2.49566 9.75206 -5.05235Q9.75206 -7.61583 10.6506 -8.962Q11.5492 -10.3082 13.2514 -10.3082Z" fill="#262626" transform="translate(167.78505392912172,132.2777777777778) translate(-8.83653450012207,0)" />
<line x1="239.43374422187978" y1="108.26666666666667" x2="239.43374422187978" y2="113.52777777777779" stroke="#262626" stroke-width="1.1111111111111112" />
<path d="M2.6652 -1.15289L7.44629 -1.15289L7.44629 0L1.01725 0L1.01725 -1.15289Q1.79715 -1.95991 3.14331 -3.31963Q4.48947 -4.67936 4.83534 -5.0727Q5.49316 -5.8119 5.75426 -6.32392Q6.01535 -6.83594 6.01535 -7.331Q6.01535 -8.13802 5.44908 -8.64665Q4.88281 -9.15527 3.97407 -9.15527Q3.32981 -9.15527 2.61434 -8.93148Q1.89887 -8.70768 1.08507 -8.25331L1.08507 -9.63677Q1.91243 -9.96908 2.63129 -10.1386Q3.35015 -10.3082 3.94694 -10.3082Q5.52029 -10.3082 6.45616 -9.52148Q7.39204 -8.73481 7.39204 -7.41916Q7.39204 -6.79525 7.15807 -6.23576Q6.9241 -5.67627 6.30697 -4.91672Q6.13742 -4.72005 5.22868 -3.78079Q4.31993 -2.84153 2.6652 -1.15289ZM13.2514 -9.22309Q12.1935 -9.22309 11.6611 -8.1821Q11.1287 -7.14111 11.1287 -5.05235Q11.1287 -2.97038 11.6611 -1.92939Q12.1935 -0.888401 13.2514 -0.888401Q14.3161 -0.888401 14.8485 -1.92939Q15.3809 -2.97038 15.3809 -5.05235Q15.3809 -7.14111 14.8485 -8.1821Q14.3161 -9.22309 13.2514 -9.22309ZM13.2514 -10.3082Q14.9536 -10.3082 15.8522 -8.962Q16.7508 -7.61583 16.7508 -5.05235Q16.7508 -2.49566 15.8522 -1.1495Q14.9536 0.196669 13.2514 0.196669Q11.5492 0.196669 10.6506 -1.1495Q9.75206 -2.49566 9.75206 -5.05235Q9.75206 -7.61583 10.6506 -8.962Q11.5492 -10.3082 13.2514 -10.3082Z" fill="#262626" transform="translate(239.43374422187978,132.2777777777778) translate(-8.83653450012207,0)" />
<line x1="311.08243451463784" y1="108.26666666666667" x2="311.08243451463784" y2="113.52777777777779" stroke="#262626" stroke-width="1.1111111111111112" />
<path d="M5.63558 -5.45926Q6.61892 -5.24902 7.17163 -4.58442Q7.72434 -3.91981 7.72434 -2.94325Q7.72434 -1.4445 6.69352 -0.623915Q5.66271 0.196669 3.76383 0.196669Q3.12636 0.196669 2.45158 0.0712077Q1.7768 -0.0542535 1.05794 -0.305176L1.05794 -1.6276Q1.6276 -1.2953 2.30577 -1.12576Q2.98394 -0.956217 3.72314 -0.956217Q5.01166 -0.956217 5.68644 -1.46484Q6.36122 -1.97347 6.36122 -2.94325Q6.36122 -3.83843 5.73391 -4.34367Q5.10661 -4.8489 3.98763 -4.8489L2.80762 -4.8489L2.80762 -5.97466L4.04188 -5.97466Q5.05235 -5.97466 5.58811 -6.37817Q6.12386 -6.78168 6.12386 -7.54123Q6.12386 -8.32113 5.57115 -8.7382Q5.01845 -9.15527 3.98763 -9.15527Q3.42475 -9.15527 2.78049 -9.0332Q2.13623 -8.91113 1.36312 -8.65343L1.36312 -9.87413Q2.14301 -10.0911 2.82457 -10.1997Q3.50613 -10.3082 4.1097 -10.3082Q5.66949 -10.3082 6.57823 -9.59947Q7.48698 -8.89079 7.48698 -7.68365Q7.48698 -6.84272 7.00548 -6.26289Q6.52398 -5.68305 5.63558 -5.45926ZM13.2514 -9.22309Q12.1935 -9.22309 11.6611 -8.1821Q11.1287 -7.14111 11.1287 -5.05235Q11.1287 -2.97038 11.6611 -1.92939Q12.1935 -0.888401 13.2514 -0.888401Q14.3161 -0.888401 14.8485 -1.92939Q15.3809 -2.97038 15.3809 -5.05235Q15.3809 -7.14111 14.8485 -8.1821Q14.3161 -9.22309 13.2514 -9.22309ZM13.2514 -10.3082Q14.9536 -10.3082 15.8522 -8.962Q16.7508 -7.61583 16.7508 -5.05235Q16.7508 -2.49566 15.8522 -1.1495Q14.9536 0.196669 13.2514 0.196669Q11.5492 0.196669 10.6506 -1.1495Q9.75206 -2.49566 9.75206 -5.05235Q9.75206 -7.61583 10.6506 -8.962Q11.5492 -10.3082 13.2514 -10.3082Z" fill="#262626" transform="translate(311.08243451463784,132.2777777777778) translate(-8.83653450012207,0)" />
<line x1="382.73112480739593" y1="108.26666666666667" x2="382.73112480739593" y2="113.52777777777779" stroke="#262626" stroke-width="1.1111111111111112" />
<path d="M5.24902 -8.93148L1.79036 -3.52648L5.24902 -3.52648L5.24902 -8.93148ZM4.88959 -10.1251L6.61214 -10.1251L6.61214 -3.52648L8.05664 -3.52648L8.05664 -2.38715L6.61214 -2.38715L6.61214 0L5.24902 0L5.24902 -2.38715L0.678168 -2.38715L0.678168 -3.70958L4.88959 -10.1251ZM13.2514 -9.22309Q12.1935 -9.22309 11.6611 -8.1821Q11.1287 -7.14111 11.1287 -5.05235Q11.1287 -2.97038 11.6611 -1.92939Q12.1935 -0.888401 13.2514 -0.888401Q14.3161 -0.888401 14.8485 -1.92939Q15.3809 -2.97038 15.3809 -5.05235Q15.3809 -7.14111 14.8485 -8.1821Q14.3161 -9.22309 13.2514 -9.22309ZM13.2514 -10.3082Q14.9536 -10.3082 15.8522 -8.962Q16.7508 -7.61583 16.7508 -5.05235Q16.7508 -2.49566 15.8522 -1.1495Q14.9536 0.196669 13.2514 0.196669Q11.5492 0.196669 10.6506 -1.1495Q9.75206 -2.49566 9.75206 -5.05235Q9.75206 -7.61583 10.6506 -8.962Q11.5492 -10.3082 13.2514 -10.3082Z" fill="#262626" transform="translate(382.73112480739593,132.2777777777778) translate(-8.83653450012207,0)" />
<line x1="454.379815100154" y1="108.26666666666667" x2="454.379815100154" y2="113.52777777777779" stroke="#262626" stroke-width="1.1111111111111112" />
<path d="M1.49875 -10.1251L6.87663 -10.1251L6.87663 -8.97217L2.75336 -8.97217L2.75336 -6.49007Q3.05176 -6.5918 3.35015 -6.64266Q3.64855 -6.69352 3.94694 -6.69352Q5.64236 -6.69352 6.63249 -5.76443Q7.62261 -4.83534 7.62261 -3.24843Q7.62261 -1.61404 6.60536 -0.708686Q5.58811 0.196669 3.73671 0.196669Q3.09923 0.196669 2.43802 0.0881619C1.99721 0.0158239 1.5417 -0.092683 1.07151 -0.237359L1.07151 -1.61404Q1.68186 -1.28174 2.3329 -1.11898Q2.98394 -0.956217 3.70958 -0.956217Q4.88281 -0.956217 5.56776 -1.57335Q6.25271 -2.19048 6.25271 -3.24843Q6.25271 -4.30637 5.56776 -4.9235Q4.88281 -5.54064 3.70958 -5.54064Q3.16026 -5.54064 2.61434 -5.41857Q2.06841 -5.2965 1.49875 -5.03879L1.49875 -10.1251ZM13.2514 -9.22309Q12.1935 -9.22309 11.6611 -8.1821Q11.1287 -7.14111 11.1287 -5.05235Q11.1287 -2.97038 11.6611 -1.92939Q12.1935 -0.888401 13.2514 -0.888401Q14.3161 -0.888401 14.8485 -1.92939Q15.3809 -2.97038 15.3809 -5.05235Q15.3809 -7.14111 14.8485 -8.1821Q14.3161 -9.22309 13.2514 -9.22309ZM13.2514 -10.3082Q14.9536 -10.3082 15.8522 -8.962Q16.7508 -7.61583 16.7508 -5.05235Q16.7508 -2.49566 15.8522 -1.1495Q14.9536 0.196669 13.2514 0.196669Q11.5492 0.196669 10.6506 -1.1495Q9.75206 -2.49566 9.75206 -5.05235Q9.75206 -7.61583 10.6506 -8.962Q11.5492 -10.3082 13.2514 -10.3082Z" fill="#262626" transform="translate(454.379815100154,132.2777777777778) translate(-8.83653450012207,0)" />
<line x1="526.0285053929122" y1="108.26666666666667" x2="526.0285053929122" y2="113.52777777777779" stroke="#262626" stroke-width="1.1111111111111112" />
<path d="M4.58442 -5.60845Q3.66211 -5.60845 3.12297 -4.97776Q2.58382 -4.34706 2.58382 -3.24843Q2.58382 -2.15658 3.12297 -1.52249Q3.66211 -0.888401 4.58442 -0.888401Q5.50673 -0.888401 6.04587 -1.52249Q6.58502 -2.15658 6.58502 -3.24843Q6.58502 -4.34706 6.04587 -4.97776Q5.50673 -5.60845 4.58442 -5.60845ZM7.30387 -9.90126L7.30387 -8.65343Q6.78847 -8.89757 6.26289 -9.02642Q5.7373 -9.15527 5.2219 -9.15527Q3.86556 -9.15527 3.15009 -8.23975Q2.43462 -7.32422 2.3329 -5.47282Q2.73302 -6.06282 3.33659 -6.37817Q3.94016 -6.69352 4.6658 -6.69352Q6.19168 -6.69352 7.07669 -5.76782Q7.9617 -4.84212 7.9617 -3.24843Q7.9617 -1.68864 7.03939 -0.745985Q6.11708 0.196669 4.58442 0.196669Q2.82796 0.196669 1.89887 -1.1495Q0.969781 -2.49566 0.969781 -5.05235Q0.969781 -7.45307 2.1091 -8.88062Q3.24843 -10.3082 5.16764 -10.3082Q5.68305 -10.3082 6.20863 -10.2064Q6.73421 -10.1047 7.30387 -9.90126ZM13.2514 -9.22309Q12.1935 -9.22309 11.6611 -8.1821Q11.1287 -7.14111 11.1287 -5.05235Q11.1287 -2.97038 11.6611 -1.92939Q12.1935 -0.888401 13.2514 -0.888401Q14.3161 -0.888401 14.8485 -1.92939Q15.3809 -2.97038 15.3809 -5.05235Q15.3809 -7.14111 14.8485 -8.1821Q14.3161 -9.22309 13.2514 -9.22309ZM13.2514 -10.3082Q14.9536 -10.3082 15.8522 -8.962Q16.7508 -7.61583 16.7508 -5.05235Q16.7508 -2.49566 15.8522 -1.1495Q14.9536 0.196669 13.2514 0.196669Q11.5492 0.196669 10.6506 -1.1495Q9.75206 -2.49566 9.75206 -5.05235Q9.75206 -7.61583 10.6506 -8.962Q11.5492 -10.3082 13.2514 -10.3082Z" fill="#262626" transform="translate(526.0285053929122,132.2777777777778) translate(-8.83653450012207,0)" />
<line x1="70.13888888888889" y1="105.79109144041938" x2="75.4" y2="105.79109144041938" stroke="#262626" stroke-width="1.1111111111111112" />
<path d="M4.41488 -9.22309Q3.35693 -9.22309 2.82457 -8.1821Q2.29221 -7.14111 2.29221 -5.05235Q2.29221 -2.97038 2.82457 -1.92939Q3.35693 -0.888401 4.41488 -0.888401Q5.4796 -0.888401 6.01196 -1.92939Q6.54433 -2.97038 6.54433 -5.05235Q6.54433 -7.14111 6.01196 -8.1821Q5.4796 -9.22309 4.41488 -9.22309ZM4.41488 -10.3082Q6.11708 -10.3082 7.01565 -8.962Q7.91422 -7.61583 7.91423 -5.05235Q7.91423 -2.49566 7.01565 -1.1495Q6.11708 0.196669 4.41488 0.196669Q2.71267 0.196669 1.8141 -1.1495Q0.915527 -2.49566 0.915527 -5.05235Q0.915527 -7.61583 1.8141 -8.962Q2.71267 -10.3082 4.41488 -10.3082Z" fill="#262626" transform="translate(65.27777777777777,109.79109144041938) translate(-8.83653450012207,0)" />
<line x1="70.13888888888889" y1="75.58007805759016" x2="75.4" y2="75.58007805759016" stroke="#262626" stroke-width="1.1111111111111112" />
<path d="M1.49875 -10.1251L6.87663 -10.1251L6.87663 -8.97217L2.75336 -8.97217L2.75336 -6.49007Q3.05176 -6.5918 3.35015 -6.64266Q3.64855 -6.69352 3.94694 -6.69352Q5.64236 -6.69352 6.63249 -5.76443Q7.62261 -4.83534 7.62261 -3.24843Q7.62261 -1.61404 6.60536 -0.708686Q5.58811 0.196669 3.73671 0.196669Q3.09923 0.196669 2.43802 0.0881619C1.99721 0.0158239 1.5417 -0.092683 1.07151 -0.237359L1.07151 -1.61404Q1.68186 -1.28174 2.3329 -1.11898Q2.98394 -0.956217 3.70958 -0.956217Q4.88281 -0.956217 5.56776 -1.57335Q6.25271 -2.19048 6.25271 -3.24843Q6.25271 -4.30637 5.56776 -4.9235Q4.88281 -5.54064 3.70958 -5.54064Q3.16026 -5.54064 2.61434 -5.41857Q2.06841 -5.2965 1.49875 -5.03879L1.49875 -10.1251ZM13.2514 -9.22309Q12.1935 -9.22309 11.6611 -8.1821Q11.1287 -7.14111 11.1287 -5.05235Q11.1287 -2.97038 11.6611 -1.92939Q12.1935 -0.888401 13.2514 -0.888401Q14.3161 -0.888401 14.8485 -1.92939Q15.3809 -2.97038 15.3809 -5.05235Q15.3809 -7.14111 14.8485 -8.1821Q14.3161 -9.22309 13.2514 -9.22309ZM13.2514 -10.3082Q14.9536 -10.3082 15.8522 -8.962Q16.7508 -7.61583 16.7508 -5.05235Q16.7508 -2.49566 15.8522 -1.1495Q14.9536 0.196669 13.2514 0.196669Q11.5492 0.196669 10.6506 -1.1495Q9.75206 -2.49566 9.75206 -5.05235Q9.75206 -7.61583 10.6506 -8.962Q11.5492 -10.3082 13.2514 -10.3082Z" fill="#262626" transform="translate(65.27777777777777,79.58007805759016) translate(-17.67306900024414,0)" />
<line x1="70.13888888888889" y1="45.36906467476093" x2="75.4" y2="45.36906467476093" stroke="#262626" stroke-width="1.1111111111111112" />
<path d="M1.72255 -1.15289L3.9605 -1.15289L3.9605 -8.87722L1.52588 -8.38894L1.52588 -9.63677L3.94694 -10.1251L5.31684 -10.1251L5.31684 -1.15289L7.5548 -1.15289L7.5548 0L1.72255 0L1.72255 -1.15289ZM13.2514 -9.22309Q12.1935 -9.22309 11.6611 -8.1821Q11.1287 -7.14111 11.1287 -5.05235Q11.1287 -2.97038 11.6611 -1.92939Q12.1935 -0.888401 13.2514 -0.888401Q14.3161 -0.888401 14.8485 -1.92939Q15.3809 -2.97038 15.3809 -5.05235Q15.3809 -7.14111 14.8485 -8.1821Q14.3161 -9.22309 13.2514 -9.22309ZM13.2514 -10.3082Q14.9536 -10.3082 15.8522 -8.962Q16.7508 -7.61583 16.7508 -5.05235Q16.7508 -2.49566 15.8522 -1.1495Q14.9536 0.196669 13.2514 0.196669Q11.5492 0.196669 10.6506 -1.1495Q9.75206 -2.49566 9.75206 -5.05235Q9.75206 -7.61583 10.6506 -8.962Q11.5492 -10.3082 13.2514 -10.3082ZM22.0879 -9.22309Q21.03 -9.22309 20.4976 -8.1821Q19.9653 -7.14111 19.9653 -5.05235Q19.9653 -2.97038 20.4976 -1.92939Q21.03 -0.888401 22.0879 -0.888401Q23.1527 -0.888401 23.685 -1.92939Q24.2174 -2.97038 24.2174 -5.05235Q24.2174 -7.14111 23.685 -8.1821Q23.1527 -9.22309 22.0879 -9.22309ZM22.0879 -10.3082Q23.7901 -10.3082 24.6887 -8.962Q25.5873 -7.61583 25.5873 -5.05235Q25.5873 -2.49566 24.6887 -1.1495Q23.7901 0.196669 22.0879 0.196669Q20.3857 0.196669 19.4872 -1.1495Q18.5886 -2.49566 18.5886 -5.05235Q18.5886 -7.61583 19.4872 -8.962Q20.3857 -10.3082 22.0879 -10.3082Z" fill="#262626" transform="translate(65.27777777777777,49.36906467476093) translate(-26.50960350036621,0)" />
<polyline points="75,96.61293559158311 82.88135593220339,65.98754098129706 90.76271186440678,101.57275390312668 98.64406779661017,45.99137852378035 106.52542372881356,96.80796033382885 114.40677966101694,65.20003655635475 122.28813559322035,95.57110691229742 130.16949152542372,66.12567033145874 138.05084745762713,65.42080353171957 145.9322033898305,51.58649382799195 153.81355932203388,85.11016715300607 161.6949152542373,67.89000324554095 169.5762711864407,80.7863622605328 177.45762711864407,80.30506033071481 185.33898305084745,95.8034797601602 193.22033898305085,56.24521135061888 201.10169491525426,71.9399431895152 208.98305084745763,73.06011269973015 216.864406779661,64.11142629767534 224.74576271186442,81.44577371155751 232.6271186440678,65.2742274189498 240.5084745762712,44.00128265270615 248.38983050847457,62.480547608897666 256.271186440678,93.79279251048663 264.1525423728814,88.09225311753411 272.0338983050848,72.8690672066189 279.91525423728814,54.7530400308161 287.79661016949154,62.67476137304514 295.6779661016949,87.69992554069061 303.5593220338983,69.62191362479584 311.4406779661017,58.834801185591026 319.3220338983051,78.77706345067396 327.2033898305085,43 335.08474576271186,75.43466987983851 342.96610169491527,51.665569314766664 350.8474576271187,106.03823549017676 358.728813559322,81.31479717398551 366.6101694915254,80.86155209042465 374.49152542372883,97.91026780615246 382.37288135593224,71.38629321120459 390.2542372881356,81.78276282694445 398.135593220339,108.66666666666667 406.0169491525424,45.44466610207064 413.8983050847458,78.12747268660712 421.77966101694915,88.25158727170094 429.66101694915255,76.6022917448669 437.54237288135596,61.289785400104975 445.42372881355936,81.26945308986912 453.3050847457627,102.43751913412642 461.1864406779661,96.26471262051845 469.0677966101695,55.81960594070947 476.9491525423729,78.00608396955741 484.8305084745763,48.49205943369464 492.7118644067797,46.33529343483712 500.5932203389831,75.504334857602 508.47457627118644,94.93429074778064 516.3559322033898,45.829631181303064 524.2372881355932,50.10259920154373 532.1186440677966,66.68599265737421 540,66.26153093611362" fill="none" stroke="#1F77B4" stroke-width="1.5" />
<g class="spine">
<line x1="75" y1="108.66666666666667" x2="540" y2="108.66666666666667" stroke="#262626" stroke-width="0.8" />
</g>
<g class="spine">
<line x1="75" y1="43" x2="75" y2="108.66666666666667" stroke="#262626" stroke-width="0.8" />
</g>
<path d="M8.94504 -9.34516L8.94504 -7.90066Q8.25331 -8.54492 7.47003 -8.86366Q6.68674 -9.1824 5.80512 -9.1824Q4.06901 -9.1824 3.1467 -8.12107Q2.22439 -7.05973 2.22439 -5.05235Q2.22439 -3.05176 3.1467 -1.99042Q4.06901 -0.929091 5.80512 -0.929091Q6.68674 -0.929091 7.47003 -1.24783Q8.25331 -1.56657 8.94504 -2.21083L8.94504 -0.779894Q8.22618 -0.291612 7.42255 -0.0474718Q6.61892 0.196669 5.72374 0.196669Q3.42475 0.196669 2.10232 -1.21053Q0.779894 -2.61773 0.779894 -5.05235Q0.779894 -7.49376 2.10232 -8.90096Q3.42475 -10.3082 5.72374 -10.3082Q6.63249 -10.3082 7.43612 -10.0674Q8.23975 -9.82666 8.94504 -9.34516ZM12.4308 -8.9993L12.4308 -5.19477L14.1534 -5.19477Q15.1096 -5.19477 15.6318 -5.68983Q16.154 -6.1849 16.154 -7.10042Q16.154 -8.00917 15.6318 -8.50423Q15.1096 -8.9993 14.1534 -8.9993L12.4308 -8.9993ZM11.0609 -10.1251L14.1534 -10.1251Q15.8556 -10.1251 16.727 -9.35533Q17.5985 -8.58561 17.5985 -7.10042Q17.5985 -5.60167 16.727 -4.83534Q15.8556 -4.06901 14.1534 -4.06901L12.4308 -4.06901L12.4308 0L11.0609 0L11.0609 -10.1251ZM19.2803 -10.1251L20.657 -10.1251L20.657 -3.97407Q20.657 -2.34646 21.247 -1.631Q21.837 -0.915527 23.1595 -0.915527Q24.4751 -0.915527 25.0651 -1.631Q25.6551 -2.34646 25.6551 -3.97407L25.6551 -10.1251L27.0318 -10.1251L27.0318 -3.80452Q27.0318 -1.82427 26.0518 -0.813802Q25.0719 0.196669 23.1595 0.196669Q21.2402 0.196669 20.2603 -0.813802Q19.2803 -1.82427 19.2803 -3.80452L19.2803 -10.1251ZM42.7517 -4.45557Q42.1617 -4.45557 41.826 -3.95372Q41.4903 -3.45188 41.4903 -2.55669Q41.4903 -1.67508 41.826 -1.16984Q42.1617 -0.664605 42.7517 -0.664605Q43.3282 -0.664605 43.6639 -1.16984Q43.9996 -1.67508 43.9996 -2.55669Q43.9996 -3.4451 43.6639 -3.95033Q43.3282 -4.45557 42.7517 -4.45557ZM42.7517 -5.31684Q43.8232 -5.31684 44.4539 -4.57086Q45.0846 -3.82487 45.0846 -2.55669Q45.0846 -1.28852 44.4505 -0.545926Q43.8165 0.196669 42.7517 0.196669Q41.6667 0.196669 41.036 -0.545926Q40.4053 -1.28852 40.4053 -2.55669Q40.4053 -3.83165 41.0394 -4.57425Q41.6734 -5.31684 42.7517 -5.31684ZM35.753 -9.44689Q35.1698 -9.44689 34.8341 -8.94165Q34.4984 -8.43641 34.4984 -7.5548Q34.4984 -6.65961 34.8307 -6.15777Q35.163 -5.65592 35.753 -5.65592Q36.343 -5.65592 36.6787 -6.15777Q37.0144 -6.65961 37.0144 -7.5548Q37.0144 -8.42963 36.6753 -8.93826Q36.3363 -9.44689 35.753 -9.44689ZM41.8769 -10.3082L42.962 -10.3082L36.6279 0.196669L35.5428 0.196669L41.8769 -10.3082ZM35.753 -10.3082Q36.8245 -10.3082 37.462 -9.56557Q38.0995 -8.82297 38.0995 -7.5548Q38.0995 -6.27306 37.4654 -5.53385Q36.8313 -4.79465 35.753 -4.79465Q34.6748 -4.79465 34.0474 -5.53725Q33.4201 -6.27984 33.4201 -7.5548Q33.4201 -8.81619 34.0508 -9.56217Q34.6815 -10.3082 35.753 -10.3082Z" fill="#262626" transform="translate(26.768174277411568,75.83333333333334) rotate(-90) translate(-22.92548370361328,0)" />
<rect x="75" y="148.66666666666669" width="465" height="65.66666666666667" fill="#FFFFFF" />
<line x1="96.13636363636363" y1="213.93333333333337" x2="96.13636363636363" y2="219.19444444444449" stroke="#262626" stroke-width="1.1111111111111112" />
<path d="M4.41488 -9.22309Q3.35693 -9.22309 2.82457 -8.1821Q2.29221 -7.14111 2.29221 -5.05235Q2.29221 -2.97038 2.82457 -1.92939Q3.35693 -0.888401 4.41488 -0.888401Q5.4796 -0.888401 6.01196 -1.92939Q6.54433 -2.97038 6.54433 -5.05235Q6.54433 -7.14111 6.01196 -8.1821Q5.4796 -9.22309 4.41488 -9.22309ZM4.41488 -10.3082Q6.11708 -10.3082 7.01565 -8.962Q7.91422 -7.61583 7.91423 -5.05235Q7.91423 -2.49566 7.01565 -1.1495Q6.11708 0.196669 4.41488 0.196669Q2.71267 0.196669 1.8141 -1.1495Q0.915527 -2.49566 0.915527 -5.05235Q0.915527 -7.61583 1.8141 -8.962Q2.71267 -10.3082 4.41488 -10.3082Z" fill="#262626" transform="translate(96.13636363636363,237.94444444444449) translate(-4.418267250061035,0)" />
<line x1="167.78505392912172" y1="213.93333333333337" x2="167.78505392912172" y2="219.19444444444449" stroke="#262626" stroke-width="1.1111111111111112" />
<path d="M1.72255 -1.15289L3.9605 -1.15289L3.9605 -8.87722L1.52588 -8.38894L1.52588 -9.63677L3.94694 -10.1251L5.31684 -10.1251L5.31684 -1.15289L7.5548 -1.15289L7.5548 0L1.72255 0L1.72255 -1.15289ZM13.2514 -9.22309Q12.1935 -9.22309 11.6611 -8.1821Q11.1287 -7.14111 11.1287 -5.05235Q11.1287 -2.97038 11.6611 -1.92939Q12.1935 -0.888401 13.2514 -0.888401Q14.3161 -0.888401 14.8485 -1.92939Q15.3809 -2.97038 15.3809 -5.05235Q15.3809 -7.14111 14.8485 -8.1821Q14.3161 -9.22309 13.2514 -9.22309ZM13.2514 -10.3082Q14.9536 -10.3082 15.8522 -8.962Q16.7508 -7.61583 16.7508 -5.05235Q16.7508 -2.49566 15.8522 -1.1495Q14.9536 0.196669 13.2514 0.196669Q11.5492 0.196669 10.6506 -1.1495Q9.75206 -2.49566 9.75206 -5.05235Q9.75206 -7.61583 10.6506 -8.962Q11.5492 -10.3082 13.2514 -10.3082Z" fill="#262626" transform="translate(167.78505392912172,237.94444444444449) translate(-8.83653450012207,0)" />
<line x1="239.43374422187978" y1="213.93333333333337" x2="239.43374422187978" y2="219.19444444444449" stroke="#262626" stroke-width="1.1111111111111112" />
<path d="M2.6652 -1.15289L7.44629 -1.15289L7.44629 0L1.01725 0L1.01725 -1.15289Q1.79715 -1.95991 3.14331 -3.31963Q4.48947 -4.67936 4.83534 -5.0727Q5.49316 -5.8119 5.75426 -6.32392Q6.01535 -6.83594 6.01535 -7.331Q6.01535 -8.13802 5.44908 -8.64665Q4.88281 -9.15527 3.97407 -9.15527Q3.32981 -9.15527 2.61434 -8.93148Q1.89887 -8.70768 1.08507 -8.25331L1.08507 -9.63677Q1.91243 -9.96908 2.63129 -10.1386Q3.35015 -10.3082 3.94694 -10.3082Q5.52029 -10.3082 6.45616 -9.52148Q7.39204 -8.73481 7.39204 -7.41916Q7.39204 -6.79525 7.15807 -6.23576Q6.9241 -5.67627 6.30697 -4.91672Q6.13742 -4.72005 5.22868 -3.78079Q4.31993 -2.84153 2.6652 -1.15289ZM13.2514 -9.22309Q12.1935 -9.22309 11.6611 -8.1821Q11.1287 -7.14111 11.1287 -5.05235Q11.1287 -2.97038 11.6611 -1.92939Q12.1935 -0.888401 13.2514 -0.888401Q14.3161 -0.888401 14.8485 -1.92939Q15.3809 -2.97038 15.3809 -5.05235Q15.3809 -7.14111 14.8485 -8.1821Q14.3161 -9.22309 13.2514 -9.22309ZM13.2514 -10.3082Q14.9536 -10.3082 15.8522 -8.962Q16.7508 -7.61583 16.7508 -5.05235Q16.7508 -2.49566 15.8522 -1.1495Q14.9536 0.196669 13.2514 0.196669Q11.5492 0.196669 10.6506 -1.1495Q9.75206 -2.49566 9.75206 -5.05235Q9.75206 -7.61583 10.6506 -8.962Q11.5492 -10.3082 13.2514 -10.3082Z" fill="#262626" transform="translate(239.43374422187978,237.94444444444449) translate(-8.83653450012207,0)" />
<line x1="311.08243451463784" y1="213.93333333333337" x2="311.08243451463784" y2="219.19444444444449" stroke="#262626" stroke-width="1.1111111111111112" />
<path d="M5.63558 -5.45926Q6.61892 -5.24902 7.17163 -4.58442Q7.72434 -3.91981 7.72434 -2.94325Q7.72434 -1.4445 6.69352 -0.623915Q5.66271 0.196669 3.76383 0.196669Q3.12636 0.196669 2.45158 0.0712077Q1.7768 -0.0542535 1.05794 -0.305176L1.05794 -1.6276Q1.6276 -1.2953 2.30577 -1.12576Q2.98394 -0.956217 3.72314 -0.956217Q5.01166 -0.956217 5.68644 -1.46484Q6.36122 -1.97347 6.36122 -2.94325Q6.36122 -3.83843 5.73391 -4.34367Q5.10661 -4.8489 3.98763 -4.8489L2.80762 -4.8489L2.80762 -5.97466L4.04188 -5.97466Q5.05235 -5.97466 5.58811 -6.37817Q6.12386 -6.78168 6.12386 -7.54123Q6.12386 -8.32113 5.57115 -8.7382Q5.01845 -9.15527 3.98763 -9.15527Q3.42475 -9.15527 2.78049 -9.0332Q2.13623 -8.91113 1.36312 -8.65343L1.36312 -9.87413Q2.14301 -10.0911 2.82457 -10.1997Q3.50613 -10.3082 4.1097 -10.3082Q5.66949 -10.3082 6.57823 -9.59947Q7.48698 -8.89079 7.48698 -7.68365Q7.48698 -6.84272 7.00548 -6.26289Q6.52398 -5.68305 5.63558 -5.45926ZM13.2514 -9.22309Q12.1935 -9.22309 11.6611 -8.1821Q11.1287 -7.14111 11.1287 -5.05235Q11.1287 -2.97038 11.6611 -1.92939Q12.1935 -0.888401 13.2514 -0.888401Q14.3161 -0.888401 14.8485 -1.92939Q15.3809 -2.97038 15.3809 -5.05235Q15.3809 -7.14111 14.8485 -8.1821Q14.3161 -9.22309 13.2514 -9.22309ZM13.2514 -10.3082Q14.9536 -10.3082 15.8522 -8.962Q16.7508 -7.61583 16.7508 -5.05235Q16.7508 -2.49566 15.8522 -1.1495Q14.9536 0.196669 13.2514 0.196669Q11.5492 0.196669 10.6506 -1.1495Q9.75206 -2.49566 9.75206 -5.05235Q9.75206 -7.61583 10.6506 -8.962Q11.5492 -10.3082 13.2514 -10.3082Z" fill="#262626" transform="translate(311.08243451463784,237.94444444444449) translate(-8.83653450012207,0)" />
<line x1="382.73112480739593" y1="213.93333333333337" x2="382.73112480739593" y2="219.19444444444449" stroke="#262626" stroke-width="1.1111111111111112" />
<path d="M5.24902 -8.93148L1.79036 -3.52648L5.24902 -3.52648L5.24902 -8.93148ZM4.88959 -10.1251L6.61214 -10.1251L6.61214 -3.52648L8.05664 -3.52648L8.05664 -2.38715L6.61214 -2.38715L6.61214 0L5.24902 0L5.24902 -2.38715L0.678168 -2.38715L0.678168 -3.70958L4.88959 -10.1251ZM13.2514 -9.22309Q12.1935 -9.22309 11.6611 -8.1821Q11.1287 -7.14111 11.1287 -5.05235Q11.1287 -2.97038 11.6611 -1.92939Q12.1935 -0.888401 13.2514 -0.888401Q14.3161 -0.888401 14.8485 -1.92939Q15.3809 -2.97038 15.3809 -5.05235Q15.3809 -7.14111 14.8485 -8.1821Q14.3161 -9.22309 13.2514 -9.22309ZM13.2514 -10.3082Q14.9536 -10.3082 15.8522 -8.962Q16.7508 -7.61583 16.7508 -5.05235Q16.7508 -2.49566 15.8522 -1.1495Q14.9536 0.196669 13.2514 0.196669Q11.5492 0.196669 10.6506 -1.1495Q9.75206 -2.49566 9.75206 -5.05235Q9.75206 -7.61583 10.6506 -8.962Q11.5492 -10.3082 13.2514 -10.3082Z" fill="#262626" transform="translate(382.73112480739593,237.94444444444449) translate(-8.83653450012207,0)" />
<line x1="454.379815100154" y1="213.93333333333337" x2="454.379815100154" y2="219.19444444444449" stroke="#262626" stroke-width="1.1111111111111112" />
<path d="M1.49875 -10.1251L6.87663 -10.1251L6.87663 -8.97217L2.75336 -8.97217L2.75336 -6.49007Q3.05176 -6.5918 3.35015 -6.64266Q3.64855 -6.69352 3.94694 -6.69352Q5.64236 -6.69352 6.63249 -5.76443Q7.62261 -4.83534 7.62261 -3.24843Q7.62261 -1.61404 6.60536 -0.708686Q5.58811 0.196669 3.73671 0.196669Q3.09923 0.196669 2.43802 0.0881619C1.99721 0.0158239 1.5417 -0.092683 1.07151 -0.237359L1.07151 -1.61404Q1.68186 -1.28174 2.3329 -1.11898Q2.98394 -0.956217 3.70958 -0.956217Q4.88281 -0.956217 5.56776 -1.57335Q6.25271 -2.19048 6.25271 -3.24843Q6.25271 -4.30637 5.56776 -4.9235Q4.88281 -5.54064 3.70958 -5.54064Q3.16026 -5.54064 2.61434 -5.41857Q2.06841 -5.2965 1.49875 -5.03879L1.49875 -10.1251ZM13.2514 -9.22309Q12.1935 -9.22309 11.6611 -8.1821Q11.1287 -7.14111 11.1287 -5.05235Q11.1287 -2.97038 11.6611 -1.92939Q12.1935 -0.888401 13.2514 -0.888401Q14.3161 -0.888401 14.8485 -1.92939Q15.3809 -2.97038 15.3809 -5.05235Q15.3809 -7.14111 14.8485 -8.1821Q14.3161 -9.22309 13.2514 -9.22309ZM13.2514 -10.3082Q14.9536 -10.3082 15.8522 -8.962Q16.7508 -7.61583 16.7508 -5.05235Q16.7508 -2.49566 15.8522 -1.1495Q14.9536 0.196669 13.2514 0.196669Q11.5492 0.196669 10.6506 -1.1495Q9.75206 -2.49566 9.75206 -5.05235Q9.75206 -7.61583 10.6506 -8.962Q11.5492 -10.3082 13.2514 -10.3082Z" fill="#262626" transform="translate(454.379815100154,237.94444444444449) translate(-8.83653450012207,0)" />
<line x1="526.0285053929122" y1="213.93333333333337" x2="526.0285053929122" y2="219.19444444444449" stroke="#262626" stroke-width="1.1111111111111112" />
<path d="M4.58442 -5.60845Q3.66211 -5.60845 3.12297 -4.97776Q2.58382 -4.34706 2.58382 -3.24843Q2.58382 -2.15658 3.12297 -1.52249Q3.66211 -0.888401 4.58442 -0.888401Q5.50673 -0.888401 6.04587 -1.52249Q6.58502 -2.15658 6.58502 -3.24843Q6.58502 -4.34706 6.04587 -4.97776Q5.50673 -5.60845 4.58442 -5.60845ZM7.30387 -9.90126L7.30387 -8.65343Q6.78847 -8.89757 6.26289 -9.02642Q5.7373 -9.15527 5.2219 -9.15527Q3.86556 -9.15527 3.15009 -8.23975Q2.43462 -7.32422 2.3329 -5.47282Q2.73302 -6.06282 3.33659 -6.37817Q3.94016 -6.69352 4.6658 -6.69352Q6.19168 -6.69352 7.07669 -5.76782Q7.9617 -4.84212 7.9617 -3.24843Q7.9617 -1.68864 7.03939 -0.745985Q6.11708 0.196669 4.58442 0.196669Q2.82796 0.196669 1.89887 -1.1495Q0.969781 -2.49566 0.969781 -5.05235Q0.969781 -7.45307 2.1091 -8.88062Q3.24843 -10.3082 5.16764 -10.3082Q5.68305 -10.3082 6.20863 -10.2064Q6.73421 -10.1047 7.30387 -9.90126ZM13.2514 -9.22309Q12.1935 -9.22309 11.6611 -8.1821Q11.1287 -7.14111 11.1287 -5.05235Q11.1287 -2.97038 11.6611 -1.92939Q12.1935 -0.888401 13.2514 -0.888401Q14.3161 -0.888401 14.8485 -1.92939Q15.3809 -2.97038 15.3809 -5.05235Q15.3809 -7.14111 14.8485 -8.1821Q14.3161 -9.22309 13.2514 -9.22309ZM13.2514 -10.3082Q14.9536 -10.3082 15.8522 -8.962Q16.7508 -7.61583 16.7508 -5.05235Q16.7508 -2.49566 15.8522 -1.1495Q14.9536 0.196669 13.2514 0.196669Q11.5492 0.196669 10.6506 -1.1495Q9.75206 -2.49566 9.75206 -5.05235Q9.75206 -7.61583 10.6506 -8.962Q11.5492 -10.3082 13.2514 -10.3082Z" fill="#262626" transform="translate(526.0285053929122,237.94444444444449) translate(-8.83653450012207,0)" />
<line x1="70.13888888888889" y1="211.41330809950452" x2="75.4" y2="211.41330809950452" stroke="#262626" stroke-width="1.1111111111111112" />
<path d="M5.24902 -8.93148L1.79036 -3.52648L5.24902 -3.52648L5.24902 -8.93148ZM4.88959 -10.1251L6.61214 -10.1251L6.61214 -3.52648L8.05664 -3.52648L8.05664 -2.38715L6.61214 -2.38715L6.61214 0L5.24902 0L5.24902 -2.38715L0.678168 -2.38715L0.678168 -3.70958L4.88959 -10.1251ZM13.2514 -9.22309Q12.1935 -9.22309 11.6611 -8.1821Q11.1287 -7.14111 11.1287 -5.05235Q11.1287 -2.97038 11.6611 -1.92939Q12.1935 -0.888401 13.2514 -0.888401Q14.3161 -0.888401 14.8485 -1.92939Q15.3809 -2.97038 15.3809 -5.05235Q15.3809 -7.14111 14.8485 -8.1821Q14.3161 -9.22309 13.2514 -9.22309ZM13.2514 -10.3082Q14.9536 -10.3082 15.8522 -8.962Q16.7508 -7.61583 16.7508 -5.05235Q16.7508 -2.49566 15.8522 -1.1495Q14.9536 0.196669 13.2514 0.196669Q11.5492 0.196669 10.6506 -1.1495Q9.75206 -2.49566 9.75206 -5.05235Q9.75206 -7.61583 10.6506 -8.962Q11.5492 -10.3082 13.2514 -10.3082Z" fill="#262626" transform="translate(65.27777777777777,215.41330809950452) translate(-17.67306900024414,0)" />
<line x1="70.13888888888889" y1="170.18333796455363" x2="75.4" y2="170.18333796455363" stroke="#262626" stroke-width="1.1111111111111112" />
<path d="M4.58442 -5.60845Q3.66211 -5.60845 3.12297 -4.97776Q2.58382 -4.34706 2.58382 -3.24843Q2.58382 -2.15658 3.12297 -1.52249Q3.66211 -0.888401 4.58442 -0.888401Q5.50673 -0.888401 6.04587 -1.52249Q6.58502 -2.15658 6.58502 -3.24843Q6.58502 -4.34706 6.04587 -4.97776Q5.50673 -5.60845 4.58442 -5.60845ZM7.30387 -9.90126L7.30387 -8.65343Q6.78847 -8.89757 6.26289 -9.02642Q5.7373 -9.15527 5.2219 -9.15527Q3.86556 -9.15527 3.15009 -8.23975Q2.43462 -7.32422 2.3329 -5.47282Q2.73302 -6.06282 3.33659 -6.37817Q3.94016 -6.69352 4.6658 -6.69352Q6.19168 -6.69352 7.07669 -5.76782Q7.9617 -4.84212 7.9617 -3.24843Q7.9617 -1.68864 7.03939 -0.745985Q6.11708 0.196669 4.58442 0.196669Q2.82796 0.196669 1.89887 -1.1495Q0.969781 -2.49566 0.969781 -5.05235Q0.969781 -7.45307 2.1091 -8.88062Q3.24843 -10.3082 5.16764 -10.3082Q5.68305 -10.3082 6.20863 -10.2064Q6.73421 -10.1047 7.30387 -9.90126ZM13.2514 -9.22309Q12.1935 -9.22309 11.6611 -8.1821Q11.1287 -7.14111 11.1287 -5.05235Q11.1287 -2.97038 11.6611 -1.92939Q12.1935 -0.888401 13.2514 -0.888401Q14.3161 -0.888401 14.8485 -1.92939Q15.3809 -2.97038 15.3809 -5.05235Q15.3809 -7.14111 14.8485 -8.1821Q14.3161 -9.22309 13.2514 -9.22309ZM13.2514 -10.3082Q14.9536 -10.3082 15.8522 -8.962Q16.7508 -7.61583 16.7508 -5.05235Q16.7508 -2.49566 15.8522 -1.1495Q14.9536 0.196669 13.2514 0.196669Q11.5492 0.196669 10.6506 -1.1495Q9.75206 -2.49566 9.75206 -5.05235Q9.75206 -7.61583 10.6506 -8.962Q11.5492 -10.3082 13.2514 -10.3082Z" fill="#262626" transform="translate(65.27777777777777,174.18333796455363) translate(-17.67306900024414,0)" />
<polyline points="75,157.0682097007392 82.88135593220339,180.04623705922987 90.76271186440678,192.32231366545972 98.64406779661017,210.10459338939256 106.52542372881356,206.98563514841413 114.40677966101694,152.85743540239352 122.28813559322035,171.851346768471 130.16949152542372,151.85291201132543 138.05084745762713,175.68913433710438 145.9322033898305,203.92885642560088 153.81355932203388,188.7446686108305 161.6949152542373,205.2729276388243 169.5762711864407,188.9692668837764 177.45762711864407,206.95845011946653 185.33898305084745,214.05971375781053 193.22033898305085,169.99031510983843 201.10169491525426,212.92726402575437 208.98305084745763,198.389231411793 216.864406779661,152.04688786493927 224.74576271186442,158.13573619233702 232.6271186440678,158.22716010718412 240.5084745762712,187.2637688402268 248.38983050847457,173.70547497712772 256.271186440678,205.63815255300383 264.1525423728814,160.50253786545622 272.0338983050848,194.7818756819672 279.91525423728814,177.37339888897841 287.79661016949154,210.99079988243176 295.6779661016949,214.33333333333337 303.5593220338983,170.11694645800085 311.4406779661017,208.0016948699292 319.3220338983051,178.32242810413422 327.2033898305085,160.88457962952083 335.08474576271186,178.76924741840043 342.96610169491527,165.43026620854147 350.8474576271187,153.0935435540873 358.728813559322,168.33448214303348 366.6101694915254,153.87078523444734 374.49152542372883,190.44222458714896 382.37288135593224,186.90350936931804 390.2542372881356,155.98596355133648 398.135593220339,160.3112850479565 406.0169491525424,156.9252481822773 413.8983050847458,150.3520964871652 421.77966101694915,159.21810924653832 429.66101694915255,169.32171888936813 437.54237288135596,208.33434545113036 445.42372881355936,160.13608742979983 453.3050847457627,150.82726632075423 461.1864406779661,156.7231816250582 469.0677966101695,201.7032114730947 476.9491525423729,165.98017815331218 484.8305084745763,148.66666666666669 492.7118644067797,159.551747885819 500.5932203389831,159.0258662484874 508.47457627118644,184.20907976996745 516.3559322033898,152.7159502688882 524.2372881355932,201.08880002191088 532.1186440677966,195.97724371072238 540,158.578947653233" fill="none" stroke="#1F77B4" stroke-width="1.5" />
<g class="spine">
<line x1="75" y1="214.33333333333337" x2="540" y2="214.33333333333337" stroke="#262626" stroke-width="0.8" />
</g>
<g class="spine">
<line x1="75" y1="148.66666666666669" x2="75" y2="214.33333333333337" stroke="#262626" stroke-width="0.8" />
</g>
<path d="M1.36312 -10.1251L3.40441 -10.1251L5.98823 -3.23486L8.58561 -10.1251L10.6269 -10.1251L10.6269 0L9.29091 0L9.29091 -8.89079L6.67996 -1.94634L5.30328 -1.94634L2.69233 -8.89079L2.69233 0L1.36312 0L1.36312 -10.1251ZM19.789 -4.1097L19.789 -3.49935L14.0517 -3.49935Q14.133 -2.21083 14.8282 -1.53605Q15.5233 -0.861274 16.7643 -0.861274Q17.4832 -0.861274 18.158 -1.0376Q18.8327 -1.21392 19.4973 -1.56657L19.4973 -0.386556Q18.826 -0.101725 18.1207 0.0474718Q17.4154 0.196669 16.6897 0.196669Q14.8722 0.196669 13.8109 -0.861274Q12.7496 -1.91922 12.7496 -3.72314Q12.7496 -5.58811 13.7566 -6.68335Q14.7637 -7.77859 16.4727 -7.77859Q18.0054 -7.77859 18.8972 -6.79186Q19.789 -5.80512 19.789 -4.1097ZM18.5411 -4.47591Q18.5276 -5.49995 17.9681 -6.1103Q17.4086 -6.72065 16.4863 -6.72065Q15.4419 -6.72065 14.8146 -6.13064Q14.1873 -5.54064 14.0923 -4.46913L18.5411 -4.47591ZM27.7507 -6.13742Q28.2186 -6.97835 28.8696 -7.37847Q29.5207 -7.77859 30.4023 -7.77859Q31.5891 -7.77859 32.2333 -6.94784Q32.8776 -6.11708 32.8776 -4.58442L32.8776 0L31.623 0L31.623 -4.54373Q31.623 -5.63558 31.2364 -6.16455Q30.8499 -6.69352 30.0564 -6.69352Q29.0866 -6.69352 28.5238 -6.04926Q27.9609 -5.405 27.9609 -4.29281L27.9609 0L26.7063 0L26.7063 -4.54373Q26.7063 -5.64236 26.3197 -6.16794Q25.9332 -6.69352 25.1261 -6.69352Q24.1699 -6.69352 23.607 -6.04587Q23.0442 -5.39822 23.0442 -4.29281L23.0442 0L21.7896 0L21.7896 -7.59549L23.0442 -7.59549L23.0442 -6.41547Q23.4714 -7.11399 24.0682 -7.44629Q24.665 -7.77859 25.4856 -7.77859Q26.3129 -7.77859 26.8928 -7.35813Q27.4726 -6.93766 27.7507 -6.13742ZM38.3097 -6.72065Q37.306 -6.72065 36.7228 -5.93736Q36.1396 -5.15408 36.1396 -3.79096Q36.1396 -2.42784 36.7194 -1.64456Q37.2993 -0.861274 38.3097 -0.861274Q39.3066 -0.861274 39.8899 -1.64795Q40.4731 -2.43462 40.4731 -3.79096Q40.4731 -5.14052 39.8899 -5.93058Q39.3066 -6.72065 38.3097 -6.72065ZM38.3097 -7.77859Q39.9373 -7.77859 40.8664 -6.72065Q41.7955 -5.66271 41.7955 -3.79096Q41.7955 -1.926 40.8664 -0.864665Q39.9373 0.196669 38.3097 0.196669Q36.6753 0.196669 35.7496 -0.864665Q34.8239 -1.926 34.8239 -3.79096Q34.8239 -5.66271 35.7496 -6.72065Q36.6753 -7.77859 38.3097 -7.77859ZM48.2652 -6.42904Q48.055 -6.55111 47.8075 -6.60875Q47.56 -6.6664 47.2616 -6.6664Q46.2036 -6.6664 45.6373 -5.97805Q45.0711 -5.28971 45.0711 -4.00119L45.0711 0L43.8165 0L43.8165 -7.59549L45.0711 -7.59549L45.0711 -6.41547Q45.4644 -7.1072 46.0951 -7.4429Q46.7258 -7.77859 47.6278 -7.77859Q47.7566 -7.77859 47.9126 -7.76164Q48.0686 -7.74468 48.2585 -7.71077L48.2652 -6.42904ZM52.7344 0.705295Q52.2054 2.06163 51.7036 2.47531Q51.2017 2.889 50.3608 2.889L49.3639 2.889L49.3639 1.84462L50.0963 1.84462Q50.6117 1.84462 50.8965 1.60048Q51.1814 1.35634 51.5272 0.447591L51.751 -0.12207L48.6789 -7.59549L50.0014 -7.59549L52.3749 -1.65473L54.7485 -7.59549L56.071 -7.59549L52.7344 0.705295ZM70.9975 -4.45557Q70.4074 -4.45557 70.0718 -3.95372Q69.7361 -3.45188 69.7361 -2.55669Q69.7361 -1.67508 70.0718 -1.16984Q70.4074 -0.664605 70.9975 -0.664605Q71.5739 -0.664605 71.9096 -1.16984Q72.2453 -1.67508 72.2453 -2.55669Q72.2453 -3.4451 71.9096 -3.95033Q71.5739 -4.45557 70.9975 -4.45557ZM70.9975 -5.31684Q72.069 -5.31684 72.6997 -4.57086Q73.3304 -3.82487 73.3304 -2.55669Q73.3304 -1.28852 72.6963 -0.545926Q72.0622 0.196669 70.9975 0.196669Q69.9124 0.196669 69.2817 -0.545926Q68.651 -1.28852 68.651 -2.55669Q68.651 -3.83165 69.2851 -4.57425Q69.9192 -5.31684 70.9975 -5.31684ZM63.9988 -9.44689Q63.4155 -9.44689 63.0798 -8.94165Q62.7441 -8.43641 62.7441 -7.5548Q62.7441 -6.65961 63.0764 -6.15777Q63.4087 -5.65592 63.9988 -5.65592Q64.5888 -5.65592 64.9245 -6.15777Q65.2601 -6.65961 65.2601 -7.5548Q65.2601 -8.42963 64.9211 -8.93826Q64.582 -9.44689 63.9988 -9.44689ZM70.1226 -10.3082L71.2077 -10.3082L64.8736 0.196669L63.7885 0.196669L70.1226 -10.3082ZM63.9988 -10.3082Q65.0703 -10.3082 65.7077 -9.56557Q66.3452 -8.82297 66.3452 -7.5548Q66.3452 -6.27306 65.7111 -5.53385Q65.077 -4.79465 63.9988 -4.79465Q62.9205 -4.79465 62.2932 -5.53725Q61.6659 -6.27984 61.6659 -7.5548Q61.6659 -8.81619 62.2966 -9.56217Q62.9272 -10.3082 63.9988 -10.3082Z" fill="#262626" transform="translate(35.60470877753364,181.50000000000003) rotate(-90) translate(-37.04833984375,0)" />
<rect x="75" y="254.33333333333334" width="465" height="65.66666666666667" fill="#FFFFFF" />
<line x1="96.13636363636363" y1="319.6" x2="96.13636363636363" y2="324.8611111111111" stroke="#262626" stroke-width="1.1111111111111112" />
<path d="M4.41488 -9.22309Q3.35693 -9.22309 2.82457 -8.1821Q2.29221 -7.14111 2.29221 -5.05235Q2.29221 -2.97038 2.82457 -1.92939Q3.35693 -0.888401 4.41488 -0.888401Q5.4796 -0.888401 6.01196 -1.92939Q6.54433 -2.97038 6.54433 -5.05235Q6.54433 -7.14111 6.01196 -8.1821Q5.4796 -9.22309 4.41488 -9.22309ZM4.41488 -10.3082Q6.11708 -10.3082 7.01565 -8.962Q7.91422 -7.61583 7.91423 -5.05235Q7.91423 -2.49566 7.01565 -1.1495Q6.11708 0.196669 4.41488 0.196669Q2.71267 0.196669 1.8141 -1.1495Q0.915527 -2.49566 0.915527 -5.05235Q0.915527 -7.61583 1.8141 -8.962Q2.71267 -10.3082 4.41488 -10.3082Z" fill="#262626" transform="translate(96.13636363636363,343.6111111111111) translate(-4.418267250061035,0)" />
<line x1="167.78505392912172" y1="319.6" x2="167.78505392912172" y2="324.8611111111111" stroke="#262626" stroke-width="1.1111111111111112" />
<path d="M1.72255 -1.15289L3.9605 -1.15289L3.9605 -8.87722L1.52588 -8.38894L1.52588 -9.63677L3.94694 -10.1251L5.31684 -10.1251L5.31684 -1.15289L7.5548 -1.15289L7.5548 0L1.72255 0L1.72255 -1.15289ZM13.2514 -9.22309Q12.1935 -9.22309 11.6611 -8.1821Q11.1287 -7.14111 11.1287 -5.05235Q11.1287 -2.97038 11.6611 -1.92939Q12.1935 -0.888401 13.2514 -0.888401Q14.3161 -0.888401 14.8485 -1.92939Q15.3809 -2.97038 15.3809 -5.05235Q15.3809 -7.14111 14.8485 -8.1821Q14.3161 -9.22309 13.2514 -9.22309ZM13.2514 -10.3082Q14.9536 -10.3082 15.8522 -8.962Q16.7508 -7.61583 16.7508 -5.05235Q16.7508 -2.49566 15.8522 -1.1495Q14.9536 0.196669 13.2514 0.196669Q11.5492 0.196669 10.6506 -1.1495Q9.75206 -2.49566 9.75206 -5.05235Q9.75206 -7.61583 10.6506 -8.962Q11.5492 -10.3082 13.2514 -10.3082Z" fill="#262626" transform="translate(167.78505392912172,343.6111111111111) translate(-8.83653450012207,0)" />
<line x1="239.43374422187978" y1="319.6" x2="239.43374422187978" y2="324.8611111111111" stroke="#262626" stroke-width="1.1111111111111112" />
<path d="M2.6652 -1.15289L7.44629 -1.15289L7.44629 0L1.01725 0L1.01725 -1.15289Q1.79715 -1.95991 3.14331 -3.31963Q4.48947 -4.67936 4.83534 -5.0727Q5.49316 -5.8119 5.75426 -6.32392Q6.01535 -6.83594 6.01535 -7.331Q6.01535 -8.13802 5.44908 -8.64665Q4.88281 -9.15527 3.97407 -9.15527Q3.32981 -9.15527 2.61434 -8.93148Q1.89887 -8.70768 1.08507 -8.25331L1.08507 -9.63677Q1.91243 -9.96908 2.63129 -10.1386Q3.35015 -10.3082 3.94694 -10.3082Q5.52029 -10.3082 6.45616 -9.52148Q7.39204 -8.73481 7.39204 -7.41916Q7.39204 -6.79525 7.15807 -6.23576Q6.9241 -5.67627 6.30697 -4.91672Q6.13742 -4.72005 5.22868 -3.78079Q4.31993 -2.84153 2.6652 -1.15289ZM13.2514 -9.22309Q12.1935 -9.22309 11.6611 -8.1821Q11.1287 -7.14111 11.1287 -5.05235Q11.1287 -2.97038 11.6611 -1.92939Q12.1935 -0.888401 13.2514 -0.888401Q14.3161 -0.888401 14.8485 -1.92939Q15.3809 -2.97038 15.3809 -5.05235Q15.3809 -7.14111 14.8485 -8.1821Q14.3161 -9.22309 13.2514 -9.22309ZM13.2514 -10.3082Q14.9536 -10.3082 15.8522 -8.962Q16.7508 -7.61583 16.7508 -5.05235Q16.7508 -2.49566 15.8522 -1.1495Q14.9536 0.196669 13.2514 0.196669Q11.5492 0.196669 10.6506 -1.1495Q9.75206 -2.49566 9.75206 -5.05235Q9.75206 -7.61583 10.6506 -8.962Q11.5492 -10.3082 13.2514 -10.3082Z" fill="#262626" transform="translate(239.43374422187978,343.6111111111111) translate(-8.83653450012207,0)" />
<line x1="311.08243451463784" y1="319.6" x2="311.08243451463784" y2="324.8611111111111" stroke="#262626" stroke-width="1.1111111111111112" />
<path d="M5.63558 -5.45926Q6.61892 -5.24902 7.17163 -4.58442Q7.72434 -3.91981 7.72434 -2.94325Q7.72434 -1.4445 6.69352 -0.623915Q5.66271 0.196669 3.76383 0.196669Q3.12636 0.196669 2.45158 0.0712077Q1.7768 -0.0542535 1.05794 -0.305176L1.05794 -1.6276Q1.6276 -1.2953 2.30577 -1.12576Q2.98394 -0.956217 3.72314 -0.956217Q5.01166 -0.956217 5.68644 -1.46484Q6.36122 -1.97347 6.36122 -2.94325Q6.36122 -3.83843 5.73391 -4.34367Q5.10661 -4.8489 3.98763 -4.8489L2.80762 -4.8489L2.80762 -5.97466L4.04188 -5.97466Q5.05235 -5.97466 5.58811 -6.37817Q6.12386 -6.78168 6.12386 -7.54123Q6.12386 -8.32113 5.57115 -8.7382Q5.01845 -9.15527 3.98763 -9.15527Q3.42475 -9.15527 2.78049 -9.0332Q2.13623 -8.91113 1.36312 -8.65343L1.36312 -9.87413Q2.14301 -10.0911 2.82457 -10.1997Q3.50613 -10.3082 4.1097 -10.3082Q5.66949 -10.3082 6.57823 -9.59947Q7.48698 -8.89079 7.48698 -7.68365Q7.48698 -6.84272 7.00548 -6.26289Q6.52398 -5.68305 5.63558 -5.45926ZM13.2514 -9.22309Q12.1935 -9.22309 11.6611 -8.1821Q11.1287 -7.14111 11.1287 -5.05235Q11.1287 -2.97038 11.6611 -1.92939Q12.1935 -0.888401 13.2514 -0.888401Q14.3161 -0.888401 14.8485 -1.92939Q15.3809 -2.97038 15.3809 -5.05235Q15.3809 -7.14111 14.8485 -8.1821Q14.3161 -9.22309 13.2514 -9.22309ZM13.2514 -10.3082Q14.9536 -10.3082 15.8522 -8.962Q16.7508 -7.61583 16.7508 -5.05235Q16.7508 -2.49566 15.8522 -1.1495Q14.9536 0.196669 13.2514 0.196669Q11.5492 0.196669 10.6506 -1.1495Q9.75206 -2.49566 9.75206 -5.05235Q9.75206 -7.61583 10.6506 -8.962Q11.5492 -10.3082 13.2514 -10.3082Z" fill="#262626" transform="translate(311.08243451463784,343.6111111111111) translate(-8.83653450012207,0)" />
<line x1="382.73112480739593" y1="319.6" x2="382.73112480739593" y2="324.8611111111111" stroke="#262626" stroke-width="1.1111111111111112" />
<path d="M5.24902 -8.93148L1.79036 -3.52648L5.24902 -3.52648L5.24902 -8.93148ZM4.88959 -10.1251L6.61214 -10.1251L6.61214 -3.52648L8.05664 -3.52648L8.05664 -2.38715L6.61214 -2.38715L6.61214 0L5.24902 0L5.24902 -2.38715L0.678168 -2.38715L0.678168 -3.70958L4.88959 -10.1251ZM13.2514 -9.22309Q12.1935 -9.22309 11.6611 -8.1821Q11.1287 -7.14111 11.1287 -5.05235Q11.1287 -2.97038 11.6611 -1.92939Q12.1935 -0.888401 13.2514 -0.888401Q14.3161 -0.888401 14.8485 -1.92939Q15.3809 -2.97038 15.3809 -5.05235Q15.3809 -7.14111 14.8485 -8.1821Q14.3161 -9.22309 13.2514 -9.22309ZM13.2514 -10.3082Q14.9536 -10.3082 15.8522 -8.962Q16.7508 -7.61583 16.7508 -5.05235Q16.7508 -2.49566 15.8522 -1.1495Q14.9536 0.196669 13.2514 0.196669Q11.5492 0.196669 10.6506 -1.1495Q9.75206 -2.49566 9.75206 -5.05235Q9.75206 -7.61583 10.6506 -8.962Q11.5492 -10.3082 13.2514 -10.3082Z" fill="#262626" transform="translate(382.73112480739593,343.6111111111111) translate(-8.83653450012207,0)" />
<line x1="454.379815100154" y1="319.6" x2="454.379815100154" y2="324.8611111111111" stroke="#262626" stroke-width="1.1111111111111112" />
<path d="M1.49875 -10.1251L6.87663 -10.1251L6.87663 -8.97217L2.75336 -8.97217L2.75336 -6.49007Q3.05176 -6.5918 3.35015 -6.64266Q3.64855 -6.69352 3.94694 -6.69352Q5.64236 -6.69352 6.63249 -5.76443Q7.62261 -4.83534 7.62261 -3.24843Q7.62261 -1.61404 6.60536 -0.708686Q5.58811 0.196669 3.73671 0.196669Q3.09923 0.196669 2.43802 0.0881619C1.99721 0.0158239 1.5417 -0.092683 1.07151 -0.237359L1.07151 -1.61404Q1.68186 -1.28174 2.3329 -1.11898Q2.98394 -0.956217 3.70958 -0.956217Q4.88281 -0.956217 5.56776 -1.57335Q6.25271 -2.19048 6.25271 -3.24843Q6.25271 -4.30637 5.56776 -4.9235Q4.88281 -5.54064 3.70958 -5.54064Q3.16026 -5.54064 2.61434 -5.41857Q2.06841 -5.2965 1.49875 -5.03879L1.49875 -10.1251ZM13.2514 -9.22309Q12.1935 -9.22309 11.6611 -8.1821Q11.1287 -7.14111 11.1287 -5.05235Q11.1287 -2.97038 11.6611 -1.92939Q12.1935 -0.888401 13.2514 -0.888401Q14.3161 -0.888401 14.8485 -1.92939Q15.3809 -2.97038 15.3809 -5.05235Q15.3809 -7.14111 14.8485 -8.1821Q14.3161 -9.22309 13.2514 -9.22309ZM13.2514 -10.3082Q14.9536 -10.3082 15.8522 -8.962Q16.7508 -7.61583 16.7508 -5.05235Q16.7508 -2.49566 15.8522 -1.1495Q14.9536 0.196669 13.2514 0.196669Q11.5492 0.196669 10.6506 -1.1495Q9.75206 -2.49566 9.75206 -5.05235Q9.75206 -7.61583 10.6506 -8.962Q11.5492 -10.3082 13.2514 -10.3082Z" fill="#262626" transform="translate(454.379815100154,343.6111111111111) translate(-8.83653450012207,0)" />
<line x1="526.0285053929122" y1="319.6" x2="526.0285053929122" y2="324.8611111111111" stroke="#262626" stroke-width="1.1111111111111112" />
<path d="M4.58442 -5.60845Q3.66211 -5.60845 3.12297 -4.97776Q2.58382 -4.34706 2.58382 -3.24843Q2.58382 -2.15658 3.12297 -1.52249Q3.66211 -0.888401 4.58442 -0.888401Q5.50673 -0.888401 6.04587 -1.52249Q6.58502 -2.15658 6.58502 -3.24843Q6.58502 -4.34706 6.04587 -4.97776Q5.50673 -5.60845 4.58442 -5.60845ZM7.30387 -9.90126L7.30387 -8.65343Q6.78847 -8.89757 6.26289 -9.02642Q5.7373 -9.15527 5.2219 -9.15527Q3.86556 -9.15527 3.15009 -8.23975Q2.43462 -7.32422 2.3329 -5.47282Q2.73302 -6.06282 3.33659 -6.37817Q3.94016 -6.69352 4.6658 -6.69352Q6.19168 -6.69352 7.07669 -5.76782Q7.9617 -4.84212 7.9617 -3.24843Q7.9617 -1.68864 7.03939 -0.745985Q6.11708 0.196669 4.58442 0.196669Q2.82796 0.196669 1.89887 -1.1495Q0.969781 -2.49566 0.969781 -5.05235Q0.969781 -7.45307 2.1091 -8.88062Q3.24843 -10.3082 5.16764 -10.3082Q5.68305 -10.3082 6.20863 -10.2064Q6.73421 -10.1047 7.30387 -9.90126ZM13.2514 -9.22309Q12.1935 -9.22309 11.6611 -8.1821Q11.1287 -7.14111 11.1287 -5.05235Q11.1287 -2.97038 11.6611 -1.92939Q12.1935 -0.888401 13.2514 -0.888401Q14.3161 -0.888401 14.8485 -1.92939Q15.3809 -2.97038 15.3809 -5.05235Q15.3809 -7.14111 14.8485 -8.1821Q14.3161 -9.22309 13.2514 -9.22309ZM13.2514 -10.3082Q14.9536 -10.3082 15.8522 -8.962Q16.7508 -7.61583 16.7508 -5.05235Q16.7508 -2.49566 15.8522 -1.1495Q14.9536 0.196669 13.2514 0.196669Q11.5492 0.196669 10.6506 -1.1495Q9.75206 -2.49566 9.75206 -5.05235Q9.75206 -7.61583 10.6506 -8.962Q11.5492 -10.3082 13.2514 -10.3082Z" fill="#262626" transform="translate(526.0285053929122,343.6111111111111) translate(-8.83653450012207,0)" />
<line x1="70.13888888888889" y1="318.912669374874" x2="75.4" y2="318.912669374874" stroke="#262626" stroke-width="1.1111111111111112" />
<path d="M4.41488 -9.22309Q3.35693 -9.22309 2.82457 -8.1821Q2.29221 -7.14111 2.29221 -5.05235Q2.29221 -2.97038 2.82457 -1.92939Q3.35693 -0.888401 4.41488 -0.888401Q5.4796 -0.888401 6.01196 -1.92939Q6.54433 -2.97038 6.54433 -5.05235Q6.54433 -7.14111 6.01196 -8.1821Q5.4796 -9.22309 4.41488 -9.22309ZM4.41488 -10.3082Q6.11708 -10.3082 7.01565 -8.962Q7.91422 -7.61583 7.91423 -5.05235Q7.91423 -2.49566 7.01565 -1.1495Q6.11708 0.196669 4.41488 0.196669Q2.71267 0.196669 1.8141 -1.1495Q0.915527 -2.49566 0.915527 -5.05235Q0.915527 -7.61583 1.8141 -8.962Q2.71267 -10.3082 4.41488 -10.3082Z" fill="#262626" transform="translate(65.27777777777777,322.912669374874) translate(-8.83653450012207,0)" />
<line x1="70.13888888888889" y1="287.9435333101396" x2="75.4" y2="287.9435333101396" stroke="#262626" stroke-width="1.1111111111111112" />
<path d="M2.6652 -1.15289L7.44629 -1.15289L7.44629 0L1.01725 0L1.01725 -1.15289Q1.79715 -1.95991 3.14331 -3.31963Q4.48947 -4.67936 4.83534 -5.0727Q5.49316 -5.8119 5.75426 -6.32392Q6.01535 -6.83594 6.01535 -7.331Q6.01535 -8.13802 5.44908 -8.64665Q4.88281 -9.15527 3.97407 -9.15527Q3.32981 -9.15527 2.61434 -8.93148Q1.89887 -8.70768 1.08507 -8.25331L1.08507 -9.63677Q1.91243 -9.96908 2.63129 -10.1386Q3.35015 -10.3082 3.94694 -10.3082Q5.52029 -10.3082 6.45616 -9.52148Q7.39204 -8.73481 7.39204 -7.41916Q7.39204 -6.79525 7.15807 -6.23576Q6.9241 -5.67627 6.30697 -4.91672Q6.13742 -4.72005 5.22868 -3.78079Q4.31993 -2.84153 2.6652 -1.15289ZM10.3353 -10.1251L15.7132 -10.1251L15.7132 -8.97217L11.5899 -8.97217L11.5899 -6.49007Q11.8883 -6.5918 12.1867 -6.64266Q12.4851 -6.69352 12.7835 -6.69352Q14.4789 -6.69352 15.469 -5.76443Q16.4591 -4.83534 16.4591 -3.24843Q16.4591 -1.61404 15.4419 -0.708686Q14.4246 0.196669 12.5732 0.196669Q11.9358 0.196669 11.2745 0.0881619C10.8337 0.0158239 10.3782 -0.092683 9.90804 -0.237359L9.90804 -1.61404Q10.5184 -1.28174 11.1694 -1.11898Q11.8205 -0.956217 12.5461 -0.956217Q13.7193 -0.956217 14.4043 -1.57335Q15.0892 -2.19048 15.0892 -3.24843Q15.0892 -4.30637 14.4043 -4.9235Q13.7193 -5.54064 12.5461 -5.54064Q11.9968 -5.54064 11.4509 -5.41857Q10.9049 -5.2965 10.3353 -5.03879L10.3353 -10.1251ZM22.0879 -9.22309Q21.03 -9.22309 20.4976 -8.1821Q19.9653 -7.14111 19.9653 -5.05235Q19.9653 -2.97038 20.4976 -1.92939Q21.03 -0.888401 22.0879 -0.888401Q23.1527 -0.888401 23.685 -1.92939Q24.2174 -2.97038 24.2174 -5.05235Q24.2174 -7.14111 23.685 -8.1821Q23.1527 -9.22309 22.0879 -9.22309ZM22.0879 -10.3082Q23.7901 -10.3082 24.6887 -8.962Q25.5873 -7.61583 25.5873 -5.05235Q25.5873 -2.49566 24.6887 -1.1495Q23.7901 0.196669 22.0879 0.196669Q20.3857 0.196669 19.4872 -1.1495Q18.5886 -2.49566 18.5886 -5.05235Q18.5886 -7.61583 19.4872 -8.962Q20.3857 -10.3082 22.0879 -10.3082Z" fill="#262626" transform="translate(65.27777777777777,291.9435333101396) translate(-26.50960350036621,0)" />
<line x1="70.13888888888889" y1="256.9743972454052" x2="75.4" y2="256.9743972454052" stroke="#262626" stroke-width="1.1111111111111112" />
<path d="M1.49875 -10.1251L6.87663 -10.1251L6.87663 -8.97217L2.75336 -8.97217L2.75336 -6.49007Q3.05176 -6.5918 3.35015 -6.64266Q3.64855 -6.69352 3.94694 -6.69352Q5.64236 -6.69352 6.63249 -5.76443Q7.62261 -4.83534 7.62261 -3.24843Q7.62261 -1.61404 6.60536 -0.708686Q5.58811 0.196669 3.73671 0.196669Q3.09923 0.196669 2.43802 0.0881619C1.99721 0.0158239 1.5417 -0.092683 1.07151 -0.237359L1.07151 -1.61404Q1.68186 -1.28174 2.3329 -1.11898Q2.98394 -0.956217 3.70958 -0.956217Q4.88281 -0.956217 5.56776 -1.57335Q6.25271 -2.19048 6.25271 -3.24843Q6.25271 -4.30637 5.56776 -4.9235Q4.88281 -5.54064 3.70958 -5.54064Q3.16026 -5.54064 2.61434 -5.41857Q2.06841 -5.2965 1.49875 -5.03879L1.49875 -10.1251ZM13.2514 -9.22309Q12.1935 -9.22309 11.6611 -8.1821Q11.1287 -7.14111 11.1287 -5.05235Q11.1287 -2.97038 11.6611 -1.92939Q12.1935 -0.888401 13.2514 -0.888401Q14.3161 -0.888401 14.8485 -1.92939Q15.3809 -2.97038 15.3809 -5.05235Q15.3809 -7.14111 14.8485 -8.1821Q14.3161 -9.22309 13.2514 -9.22309ZM13.2514 -10.3082Q14.9536 -10.3082 15.8522 -8.962Q16.7508 -7.61583 16.7508 -5.05235Q16.7508 -2.49566 15.8522 -1.1495Q14.9536 0.196669 13.2514 0.196669Q11.5492 0.196669 10.6506 -1.1495Q9.75206 -2.49566 9.75206 -5.05235Q9.75206 -7.61583 10.6506 -8.962Q11.5492 -10.3082 13.2514 -10.3082ZM22.0879 -9.22309Q21.03 -9.22309 20.4976 -8.1821Q19.9653 -7.14111 19.9653 -5.05235Q19.9653 -2.97038 20.4976 -1.92939Q21.03 -0.888401 22.0879 -0.888401Q23.1527 -0.888401 23.685 -1.92939Q24.2174 -2.97038 24.2174 -5.05235Q24.2174 -7.14111 23.685 -8.1821Q23.1527 -9.22309 22.0879 -9.22309ZM22.0879 -10.3082Q23.7901 -10.3082 24.6887 -8.962Q25.5873 -7.61583 25.5873 -5.05235Q25.5873 -2.49566 24.6887 -1.1495Q23.7901 0.196669 22.0879 0.196669Q20.3857 0.196669 19.4872 -1.1495Q18.5886 -2.49566 18.5886 -5.05235Q18.5886 -7.61583 19.4872 -8.962Q20.3857 -10.3082 22.0879 -10.3082Z" fill="#262626" transform="translate(65.27777777777777,260.9743972454052) translate(-26.50960350036621,0)" />
<polyline points="75,297.5343143888261 82.88135593220339,282.88875959687545 90.76271186440678,259.51257255132987 98.64406779661017,259.5357659732538 106.52542372881356,318.008285756411 114.40677966101694,264.3931367726476 122.28813559322035,298.410495226369 130.16949152542372,264.17058042532483 138.05084745762713,295.5460154692012 145.9322033898305,315.0133314485162 153.81355932203388,255.61350173165863 161.6949152542373,313.10075853131724 169.5762711864407,261.9141682475485 177.45762711864407,287.17805350695613 185.33898305084745,256.108186704034 193.22033898305085,320 201.10169491525426,284.3394683008603 208.98305084745763,277.34378635642855 216.864406779661,300.44525611814896 224.74576271186442,313.25478149156515 232.6271186440678,308.5143507577868 240.5084745762712,271.2184908836637 248.38983050847457,314.20948372005734 256.271186440678,311.6522491070023 264.1525423728814,290.45334458818814 272.0338983050848,296.04009265737807 279.91525423728814,283.65567887521195 287.79661016949154,255.29001313684552 295.6779661016949,273.72834196546705 303.5593220338983,303.28012101361793 311.4406779661017,254.33333333333331 319.3220338983051,289.28352926692503 327.2033898305085,279.91727736458813 335.08474576271186,285.8665252587449 342.96610169491527,319.0975993197745 350.8474576271187,302.77895727171625 358.728813559322,262.3548928843193 366.6101694915254,258.940553456381 374.49152542372883,262.01706319033923 382.37288135593224,256.37950338498223 390.2542372881356,300.61309910183826 398.135593220339,305.79240669040155 406.0169491525424,294.27808733764374 413.8983050847458,265.48790430847134 421.77966101694915,262.6604462455539 429.66101694915255,318.35318833000247 437.54237288135596,265.6307440013957 445.42372881355936,291.1593224994715 453.3050847457627,264.99859551522457 461.1864406779661,268.71220642941284 469.0677966101695,261.4618508814891 476.9491525423729,305.04898315562735 484.8305084745763,262.2612528733307 492.7118644067797,312.4645577803473 500.5932203389831,279.75026272759396 508.47457627118644,280.27099380844146 516.3559322033898,290.7665455225128 524.2372881355932,269.9475930900222 532.1186440677966,291.1696910307603 540,275.9233634023119" fill="none" stroke="#1F77B4" stroke-width="1.5" />
<g class="spine">
<line x1="75" y1="320" x2="540" y2="320" stroke="#262626" stroke-width="0.8" />
</g>
<g class="spine">
<line x1="75" y1="254.33333333333334" x2="75" y2="320" stroke="#262626" stroke-width="0.8" />
</g>
<path d="M2.73302 -8.9993L2.73302 -1.12576L4.38775 -1.12576Q6.48329 -1.12576 7.45646 -2.0752Q8.42963 -3.02463 8.42963 -5.0727Q8.42963 -7.1072 7.45646 -8.05325Q6.48329 -8.9993 4.38775 -8.9993L2.73302 -8.9993ZM1.36312 -10.1251L4.17752 -10.1251Q7.12077 -10.1251 8.49745 -8.90096Q9.87413 -7.67687 9.87413 -5.0727Q9.87413 -2.45497 8.49067 -1.22748Q7.1072 0 4.17752 0L1.36312 0L1.36312 -10.1251ZM12.0036 -7.59549L13.2514 -7.59549L13.2514 0L12.0036 0L12.0036 -7.59549ZM12.0036 -10.5523L13.2514 -10.5523L13.2514 -8.97217L12.0036 -8.97217L12.0036 -10.5523ZM20.7045 -7.37169L20.7045 -6.19168Q20.1755 -6.46294 19.6059 -6.59858Q19.0362 -6.73421 18.4258 -6.73421Q17.4967 -6.73421 17.0322 -6.44938Q16.5677 -6.16455 16.5677 -5.59489Q16.5677 -5.16086 16.9 -4.91333Q17.2323 -4.6658 18.2359 -4.442L18.6632 -4.34706Q19.9924 -4.06223 20.5519 -3.54343Q21.1114 -3.02463 21.1114 -2.09554Q21.1114 -1.0376 20.2738 -0.420464Q19.4363 0.196669 17.9715 0.196669Q17.3611 0.196669 16.6999 0.0779894Q16.0387 -0.0406901 15.3063 -0.278049L15.3063 -1.56657Q15.998 -1.20714 16.6694 -1.02743Q17.3408 -0.84771 17.9986 -0.847711Q18.8802 -0.847711 19.3549 -1.1495Q19.8296 -1.45128 19.8296 -2.0006Q19.8296 -2.50922 19.4872 -2.78049Q19.1447 -3.05176 17.985 -3.30268L17.551 -3.40441Q16.3913 -3.64855 15.8759 -4.15378Q15.3605 -4.65902 15.3605 -5.54064Q15.3605 -6.61214 16.1201 -7.19537Q16.8796 -7.77859 18.2766 -7.77859Q18.9684 -7.77859 19.5787 -7.67687Q20.1891 -7.57514 20.7045 -7.37169ZM23.0509 -10.5523L24.3056 -10.5523L24.3056 -4.31993L28.0287 -7.59549L29.6224 -7.59549L25.5941 -4.04188L29.7919 0L28.1643 0L24.3056 -3.70958L24.3056 0L23.0509 0L23.0509 -10.5523ZM35.6106 -10.1251L36.9805 -10.1251L36.9805 0L35.6106 0L35.6106 -10.1251ZM41.8701 -10.1251L43.023 -10.1251L39.4965 1.28852L38.3436 1.28852L41.8701 -10.1251ZM48.4958 -9.19596Q47.0039 -9.19596 46.1256 -8.08377Q45.2474 -6.97157 45.2474 -5.05235Q45.2474 -3.13992 46.1256 -2.02772Q47.0039 -0.915527 48.4958 -0.915527Q49.9878 -0.915527 50.8592 -2.02772Q51.7307 -3.13992 51.7307 -5.05235Q51.7307 -6.97157 50.8592 -8.08377Q49.9878 -9.19596 48.4958 -9.19596ZM48.4958 -10.3082Q50.6253 -10.3082 51.9002 -8.88062Q53.1752 -7.45307 53.1752 -5.05235Q53.1752 -2.65842 51.9002 -1.23088Q50.6253 0.196669 48.4958 0.196669Q46.3596 0.196669 45.0812 -1.22748Q43.8029 -2.65164 43.8029 -5.05235Q43.8029 -7.45307 45.0812 -8.88062Q46.3596 -10.3082 48.4958 -10.3082Z" fill="#262626" transform="translate(26.768174277411568,287.1666666666667) rotate(-90) translate(-26.977540969848633,0)" />
</svg>
