<svg xmlns="http://www.w3.org/2000/svg" viewBox="0 0 600 360" width="600" height="360" role="img" aria-labelledby="chart-title">
<title id="chart-title">Server Metrics — Last 60s</title>
<rect x="0" y="0" width="600" height="360" fill="#FFFFFF" />
<text x="300" y="25" font-family="sans-serif" font-size="17" text-anchor="middle" font-weight="bold" fill="#000000">Server Metrics — Last 60s</text>
<rect x="60" y="70" width="520" height="53.333333333333336" fill="#FFFFFF" />
<line x1="83.63636363636363" y1="70" x2="83.63636363636363" y2="123.33333333333334" stroke="#B0B0B0" stroke-width="0.8" />
<line x1="163.75963020030815" y1="70" x2="163.75963020030815" y2="123.33333333333334" stroke="#B0B0B0" stroke-width="0.8" />
<line x1="243.88289676425265" y1="70" x2="243.88289676425265" y2="123.33333333333334" stroke="#B0B0B0" stroke-width="0.8" />
<line x1="324.0061633281972" y1="70" x2="324.0061633281972" y2="123.33333333333334" stroke="#B0B0B0" stroke-width="0.8" />
<line x1="404.1294298921417" y1="70" x2="404.1294298921417" y2="123.33333333333334" stroke="#B0B0B0" stroke-width="0.8" />
<line x1="484.2526964560862" y1="70" x2="484.2526964560862" y2="123.33333333333334" stroke="#B0B0B0" stroke-width="0.8" />
<line x1="564.3759630200307" y1="70" x2="564.3759630200307" y2="123.33333333333334" stroke="#B0B0B0" stroke-width="0.8" />
<line x1="60" y1="120.9978407637924" x2="580" y2="120.9978407637924" stroke="#B0B0B0" stroke-width="0.8" />
<line x1="60" y1="111.18309529931996" x2="580" y2="111.18309529931996" stroke="#B0B0B0" stroke-width="0.8" />
<line x1="60" y1="101.36834983484752" x2="580" y2="101.36834983484752" stroke="#B0B0B0" stroke-width="0.8" />
<line x1="60" y1="91.55360437037507" x2="580" y2="91.55360437037507" stroke="#B0B0B0" stroke-width="0.8" />
<line x1="60" y1="81.73885890590265" x2="580" y2="81.73885890590265" stroke="#B0B0B0" stroke-width="0.8" />
<line x1="60" y1="71.9241134414302" x2="580" y2="71.9241134414302" stroke="#B0B0B0" stroke-width="0.8" />
<line x1="83.63636363636363" y1="122.93333333333334" x2="83.63636363636363" y2="126.83333333333334" stroke="#000000" stroke-width="0.8" />
<text x="83.63636363636363" y="142.83333333333334" font-family="sans-serif" font-size="13" text-anchor="middle" fill="#000000">0</text>
<line x1="163.75963020030815" y1="122.93333333333334" x2="163.75963020030815" y2="126.83333333333334" stroke="#000000" stroke-width="0.8" />
<text x="163.75963020030815" y="142.83333333333334" font-family="sans-serif" font-size="13" text-anchor="middle" fill="#000000">10</text>
<line x1="243.88289676425265" y1="122.93333333333334" x2="243.88289676425265" y2="126.83333333333334" stroke="#000000" stroke-width="0.8" />
<text x="243.88289676425265" y="142.83333333333334" font-family="sans-serif" font-size="13" text-anchor="middle" fill="#000000">20</text>
<line x1="324.0061633281972" y1="122.93333333333334" x2="324.0061633281972" y2="126.83333333333334" stroke="#000000" stroke-width="0.8" />
<text x="324.0061633281972" y="142.83333333333334" font-family="sans-serif" font-size="13" text-anchor="middle" fill="#000000">30</text>
<line x1="404.1294298921417" y1="122.93333333333334" x2="404.1294298921417" y2="126.83333333333334" stroke="#000000" stroke-width="0.8" />
<text x="404.1294298921417" y="142.83333333333334" font-family="sans-serif" font-size="13" text-anchor="middle" fill="#000000">40</text>
<line x1="484.2526964560862" y1="122.93333333333334" x2="484.2526964560862" y2="126.83333333333334" stroke="#000000" stroke-width="0.8" />
<text x="484.2526964560862" y="142.83333333333334" font-family="sans-serif" font-size="13" text-anchor="middle" fill="#000000">50</text>
<line x1="564.3759630200307" y1="122.93333333333334" x2="564.3759630200307" y2="126.83333333333334" stroke="#000000" stroke-width="0.8" />
<text x="564.3759630200307" y="142.83333333333334" font-family="sans-serif" font-size="13" text-anchor="middle" fill="#000000">60</text>
<line x1="67.61171032357473" y1="122.93333333333334" x2="67.61171032357473" y2="126.83333333333334" stroke="#000000" stroke-width="0.8" />
<line x1="99.66101694915253" y1="122.93333333333334" x2="99.66101694915253" y2="126.83333333333334" stroke="#000000" stroke-width="0.8" />
<line x1="115.68567026194142" y1="122.93333333333334" x2="115.68567026194142" y2="126.83333333333334" stroke="#000000" stroke-width="0.8" />
<line x1="131.71032357473035" y1="122.93333333333334" x2="131.71032357473035" y2="126.83333333333334" stroke="#000000" stroke-width="0.8" />
<line x1="147.73497688751922" y1="122.93333333333334" x2="147.73497688751922" y2="126.83333333333334" stroke="#000000" stroke-width="0.8" />
<line x1="179.78428351309705" y1="122.93333333333334" x2="179.78428351309705" y2="126.83333333333334" stroke="#000000" stroke-width="0.8" />
<line x1="195.80893682588595" y1="122.93333333333334" x2="195.80893682588595" y2="126.83333333333334" stroke="#000000" stroke-width="0.8" />
<line x1="211.83359013867485" y1="122.93333333333334" x2="211.83359013867485" y2="126.83333333333334" stroke="#000000" stroke-width="0.8" />
<line x1="227.85824345146375" y1="122.93333333333334" x2="227.85824345146375" y2="126.83333333333334" stroke="#000000" stroke-width="0.8" />
<line x1="259.90755007704155" y1="122.93333333333334" x2="259.90755007704155" y2="126.83333333333334" stroke="#000000" stroke-width="0.8" />
<line x1="275.9322033898305" y1="122.93333333333334" x2="275.9322033898305" y2="126.83333333333334" stroke="#000000" stroke-width="0.8" />
<line x1="291.95685670261935" y1="122.93333333333334" x2="291.95685670261935" y2="126.83333333333334" stroke="#000000" stroke-width="0.8" />
<line x1="307.9815100154083" y1="122.93333333333334" x2="307.9815100154083" y2="126.83333333333334" stroke="#000000" stroke-width="0.8" />
<line x1="340.0308166409861" y1="122.93333333333334" x2="340.0308166409861" y2="126.83333333333334" stroke="#000000" stroke-width="0.8" />
<line x1="356.055469953775" y1="122.93333333333334" x2="356.055469953775" y2="126.83333333333334" stroke="#000000" stroke-width="0.8" />
<line x1="372.0801232665639" y1="122.93333333333334" x2="372.0801232665639" y2="126.83333333333334" stroke="#000000" stroke-width="0.8" />
<line x1="388.1047765793528" y1="122.93333333333334" x2="388.1047765793528" y2="126.83333333333334" stroke="#000000" stroke-width="0.8" />
<line x1="420.1540832049306" y1="122.93333333333334" x2="420.1540832049306" y2="126.83333333333334" stroke="#000000" stroke-width="0.8" />
<line x1="436.17873651771947" y1="122.93333333333334" x2="436.17873651771947" y2="126.83333333333334" stroke="#000000" stroke-width="0.8" />
<line x1="452.2033898305084" y1="122.93333333333334" x2="452.2033898305084" y2="126.83333333333334" stroke="#000000" stroke-width="0.8" />
<line x1="468.2280431432973" y1="122.93333333333334" x2="468.2280431432973" y2="126.83333333333334" stroke="#000000" stroke-width="0.8" />
<line x1="500.2773497688751" y1="122.93333333333334" x2="500.2773497688751" y2="126.83333333333334" stroke="#000000" stroke-width="0.8" />
<line x1="516.302003081664" y1="122.93333333333334" x2="516.302003081664" y2="126.83333333333334" stroke="#000000" stroke-width="0.8" />
<line x1="532.3266563944529" y1="122.93333333333334" x2="532.3266563944529" y2="126.83333333333334" stroke="#000000" stroke-width="0.8" />
<line x1="548.3513097072419" y1="122.93333333333334" x2="548.3513097072419" y2="126.83333333333334" stroke="#000000" stroke-width="0.8" />
<line x1="117.4978407637924" y1="60" x2="121.3978407637924" y2="60" stroke="#000000" stroke-width="0.8" />
<text x="53.5" y="124.9978407637924" font-family="sans-serif" font-size="13" text-anchor="end" fill="#000000">0</text>
<line x1="107.68309529931996" y1="60" x2="111.58309529931996" y2="60" stroke="#000000" stroke-width="0.8" />
<text x="53.5" y="115.18309529931996" font-family="sans-serif" font-size="13" text-anchor="end" fill="#000000">20</text>
<line x1="97.86834983484752" y1="60" x2="101.76834983484753" y2="60" stroke="#000000" stroke-width="0.8" />
<text x="53.5" y="105.36834983484752" font-family="sans-serif" font-size="13" text-anchor="end" fill="#000000">40</text>
<line x1="88.05360437037507" y1="60" x2="91.95360437037507" y2="60" stroke="#000000" stroke-width="0.8" />
<text x="53.5" y="95.55360437037507" font-family="sans-serif" font-size="13" text-anchor="end" fill="#000000">60</text>
<line x1="78.23885890590265" y1="60" x2="82.13885890590265" y2="60" stroke="#000000" stroke-width="0.8" />
<text x="53.5" y="85.73885890590265" font-family="sans-serif" font-size="13" text-anchor="end" fill="#000000">80</text>
<line x1="68.4241134414302" y1="60" x2="72.3241134414302" y2="60" stroke="#000000" stroke-width="0.8" />
<text x="53.5" y="75.9241134414302" font-family="sans-serif" font-size="13" text-anchor="end" fill="#000000">100</text>
<line x1="119.46078985668689" y1="60" x2="123.36078985668689" y2="60" stroke="#000000" stroke-width="0.8" />
<line x1="115.5348916708979" y1="60" x2="119.43489167089791" y2="60" stroke="#000000" stroke-width="0.8" />
<line x1="113.57194257800342" y1="60" x2="117.47194257800342" y2="60" stroke="#000000" stroke-width="0.8" />
<line x1="111.60899348510893" y1="60" x2="115.50899348510893" y2="60" stroke="#000000" stroke-width="0.8" />
<line x1="109.64604439221445" y1="60" x2="113.54604439221445" y2="60" stroke="#000000" stroke-width="0.8" />
<line x1="105.72014620642547" y1="60" x2="109.62014620642547" y2="60" stroke="#000000" stroke-width="0.8" />
<line x1="103.75719711353098" y1="60" x2="107.65719711353098" y2="60" stroke="#000000" stroke-width="0.8" />
<line x1="101.79424802063649" y1="60" x2="105.6942480206365" y2="60" stroke="#000000" stroke-width="0.8" />
<line x1="99.83129892774201" y1="60" x2="103.73129892774202" y2="60" stroke="#000000" stroke-width="0.8" />
<line x1="95.90540074195303" y1="60" x2="99.80540074195304" y2="60" stroke="#000000" stroke-width="0.8" />
<line x1="93.94245164905854" y1="60" x2="97.84245164905855" y2="60" stroke="#000000" stroke-width="0.8" />
<line x1="91.97950255616405" y1="60" x2="95.87950255616406" y2="60" stroke="#000000" stroke-width="0.8" />
<line x1="90.01655346326956" y1="60" x2="93.91655346326957" y2="60" stroke="#000000" stroke-width="0.8" />
<line x1="86.0906552774806" y1="60" x2="89.9906552774806" y2="60" stroke="#000000" stroke-width="0.8" />
<line x1="84.1277061845861" y1="60" x2="88.02770618458611" y2="60" stroke="#000000" stroke-width="0.8" />
<line x1="82.16475709169161" y1="60" x2="86.06475709169162" y2="60" stroke="#000000" stroke-width="0.8" />
<line x1="80.20180799879714" y1="60" x2="84.10180799879714" y2="60" stroke="#000000" stroke-width="0.8" />
<line x1="76.27590981300816" y1="60" x2="80.17590981300816" y2="60" stroke="#000000" stroke-width="0.8" />
<line x1="74.31296072011367" y1="60" x2="78.21296072011367" y2="60" stroke="#000000" stroke-width="0.8" />
<line x1="72.35001162721917" y1="60" x2="76.25001162721918" y2="60" stroke="#000000" stroke-width="0.8" />
<line x1="70.38706253432468" y1="60" x2="74.28706253432469" y2="60" stroke="#000000" stroke-width="0.8" />
<polyline points="60,113.54350098808781 68.8135593220339,88.6700840457235 77.62711864406779,117.57177981979832 86.4406779661017,72.42954600916171 95.25423728813558,113.70189671783055 104.0677966101695,88.03048654323229 112.88135593220339,112.69734571557152 121.69491525423729,88.78227031996649 130.50847457627117,88.20978967043214 139.32203389830508,76.97380209380057 148.135593220339,104.20115098721305 156.94915254237287,90.2152310623683 165.76271186440678,100.6894312775901 174.5762711864407,100.29852615692575 183.38983050847457,112.88607493210982 192.20338983050846,80.75753206141636 201.01694915254237,93.50452238742352 209.83050847457628,94.41430473074531 218.64406779661016,87.14633607933024 227.45762711864407,101.22499387740712 236.27118644067795,88.09074308138057 245.08474576271186,70.81322448950755 253.89830508474574,85.82176455544989 262.7118644067797,111.25302945014143 271.52542372881356,106.62314974012924 280.33898305084745,94.25914087847221 289.1525423728814,79.54561626868313 297.9661016949152,85.9795016227778 306.77966101694915,106.30450805335279 315.59322033898303,91.62185878156006 324.4067796610169,82.86075223195212 333.22033898305085,99.05751346247632 342.03389830508473,70 350.8474576271186,96.34287909022417 359.66101694915255,77.03802583940441 368.47457627118644,121.19856689557504 377.2881355932203,101.11861699409991 386.1016949152542,100.75049915973577 394.91525423728814,114.5971718222558 403.728813559322,93.05485743041997 412.5423728813559,101.4986906208686 421.35593220338984,123.33333333333334 430.1694915254237,71.98551561589494 438.9830508474576,98.52992705511238 447.7966101694915,106.75255819021397 456.6101694915254,97.29120141715079 465.4237288135593,84.8546480406944 474.2372881355932,101.08178931156884 483.0508474576271,118.27412721553415 491.864406779661,113.2606803009287 500.6779661016949,80.41186269296202 509.4915254237288,98.4313372341583 518.3050847457628,74.46055588523424 527.1186440677966,72.70886776433473 535.9322033898304,96.39945978282397 544.7457627118644,112.18013461748681 553.5593220338983,72.29817760918016 562.3728813559321,75.76860848856344 571.1864406779661,89.23735444253744 580,88.89261395826487" fill="none" stroke="#1F77B4" stroke-width="1.5" />
<g class="spine">
<line x1="60" y1="123.33333333333334" x2="580" y2="123.33333333333334" stroke="#000000" stroke-width="0.8" />
</g>
<g class="spine">
<line x1="60" y1="70" x2="60" y2="123.33333333333334" stroke="#000000" stroke-width="0.8" />
</g>
<text x="15" y="96.66666666666667" font-family="sans-serif" font-size="13" text-anchor="middle" transform="rotate(-90,15,96.66666666666667)" fill="#000000">CPU %</text>
<rect x="60" y="163.33333333333334" width="520" height="53.333333333333336" fill="#FFFFFF" />
<line x1="83.63636363636363" y1="163.33333333333334" x2="83.63636363636363" y2="216.66666666666669" stroke="#B0B0B0" stroke-width="0.8" />
<line x1="163.75963020030815" y1="163.33333333333334" x2="163.75963020030815" y2="216.66666666666669" stroke="#B0B0B0" stroke-width="0.8" />
<line x1="243.88289676425265" y1="163.33333333333334" x2="243.88289676425265" y2="216.66666666666669" stroke="#B0B0B0" stroke-width="0.8" />
<line x1="324.0061633281972" y1="163.33333333333334" x2="324.0061633281972" y2="216.66666666666669" stroke="#B0B0B0" stroke-width="0.8" />
<line x1="404.1294298921417" y1="163.33333333333334" x2="404.1294298921417" y2="216.66666666666669" stroke="#B0B0B0" stroke-width="0.8" />
<line x1="484.2526964560862" y1="163.33333333333334" x2="484.2526964560862" y2="216.66666666666669" stroke="#B0B0B0" stroke-width="0.8" />
<line x1="564.3759630200307" y1="163.33333333333334" x2="564.3759630200307" y2="216.66666666666669" stroke="#B0B0B0" stroke-width="0.8" />
<line x1="60" y1="214.29507256812553" x2="580" y2="214.29507256812553" stroke="#B0B0B0" stroke-width="0.8" />
<line x1="60" y1="205.923505028034" x2="580" y2="205.923505028034" stroke="#B0B0B0" stroke-width="0.8" />
<line x1="60" y1="197.55193748794244" x2="580" y2="197.55193748794244" stroke="#B0B0B0" stroke-width="0.8" />
<line x1="60" y1="189.18036994785086" x2="580" y2="189.18036994785086" stroke="#B0B0B0" stroke-width="0.8" />
<line x1="60" y1="180.80880240775934" x2="580" y2="180.80880240775934" stroke="#B0B0B0" stroke-width="0.8" />
<line x1="60" y1="172.43723486766777" x2="580" y2="172.43723486766777" stroke="#B0B0B0" stroke-width="0.8" />
<line x1="60" y1="164.06566732757625" x2="580" y2="164.06566732757625" stroke="#B0B0B0" stroke-width="0.8" />
<line x1="83.63636363636363" y1="216.26666666666668" x2="83.63636363636363" y2="220.16666666666669" stroke="#000000" stroke-width="0.8" />
<text x="83.63636363636363" y="236.16666666666669" font-family="sans-serif" font-size="13" text-anchor="middle" fill="#000000">0</text>
<line x1="163.75963020030815" y1="216.26666666666668" x2="163.75963020030815" y2="220.16666666666669" stroke="#000000" stroke-width="0.8" />
<text x="163.75963020030815" y="236.16666666666669" font-family="sans-serif" font-size="13" text-anchor="middle" fill="#000000">10</text>
<line x1="243.88289676425265" y1="216.26666666666668" x2="243.88289676425265" y2="220.16666666666669" stroke="#000000" stroke-width="0.8" />
<text x="243.88289676425265" y="236.16666666666669" font-family="sans-serif" font-size="13" text-anchor="middle" fill="#000000">20</text>
<line x1="324.0061633281972" y1="216.26666666666668" x2="324.0061633281972" y2="220.16666666666669" stroke="#000000" stroke-width="0.8" />
<text x="324.0061633281972" y="236.16666666666669" font-family="sans-serif" font-size="13" text-anchor="middle" fill="#000000">30</text>
<line x1="404.1294298921417" y1="216.26666666666668" x2="404.1294298921417" y2="220.16666666666669" stroke="#000000" stroke-width="0.8" />
<text x="404.1294298921417" y="236.16666666666669" font-family="sans-serif" font-size="13" text-anchor="middle" fill="#000000">40</text>
<line x1="484.2526964560862" y1="216.26666666666668" x2="484.2526964560862" y2="220.16666666666669" stroke="#000000" stroke-width="0.8" />
<text x="484.2526964560862" y="236.16666666666669" font-family="sans-serif" font-size="13" text-anchor="middle" fill="#000000">50</text>
<line x1="564.3759630200307" y1="216.26666666666668" x2="564.3759630200307" y2="220.16666666666669" stroke="#000000" stroke-width="0.8" />
<text x="564.3759630200307" y="236.16666666666669" font-family="sans-serif" font-size="13" text-anchor="middle" fill="#000000">60</text>
<line x1="67.61171032357473" y1="216.26666666666668" x2="67.61171032357473" y2="220.16666666666669" stroke="#000000" stroke-width="0.8" />
<line x1="99.66101694915253" y1="216.26666666666668" x2="99.66101694915253" y2="220.16666666666669" stroke="#000000" stroke-width="0.8" />
<line x1="115.68567026194142" y1="216.26666666666668" x2="115.68567026194142" y2="220.16666666666669" stroke="#000000" stroke-width="0.8" />
<line x1="131.71032357473035" y1="216.26666666666668" x2="131.71032357473035" y2="220.16666666666669" stroke="#000000" stroke-width="0.8" />
<line x1="147.73497688751922" y1="216.26666666666668" x2="147.73497688751922" y2="220.16666666666669" stroke="#000000" stroke-width="0.8" />
<line x1="179.78428351309705" y1="216.26666666666668" x2="179.78428351309705" y2="220.16666666666669" stroke="#000000" stroke-width="0.8" />
<line x1="195.80893682588595" y1="216.26666666666668" x2="195.80893682588595" y2="220.16666666666669" stroke="#000000" stroke-width="0.8" />
<line x1="211.83359013867485" y1="216.26666666666668" x2="211.83359013867485" y2="220.16666666666669" stroke="#000000" stroke-width="0.8" />
<line x1="227.85824345146375" y1="216.26666666666668" x2="227.85824345146375" y2="220.16666666666669" stroke="#000000" stroke-width="0.8" />
<line x1="259.90755007704155" y1="216.26666666666668" x2="259.90755007704155" y2="220.16666666666669" stroke="#000000" stroke-width="0.8" />
<line x1="275.9322033898305" y1="216.26666666666668" x2="275.9322033898305" y2="220.16666666666669" stroke="#000000" stroke-width="0.8" />
<line x1="291.95685670261935" y1="216.26666666666668" x2="291.95685670261935" y2="220.16666666666669" stroke="#000000" stroke-width="0.8" />
<line x1="307.9815100154083" y1="216.26666666666668" x2="307.9815100154083" y2="220.16666666666669" stroke="#000000" stroke-width="0.8" />
<line x1="340.0308166409861" y1="216.26666666666668" x2="340.0308166409861" y2="220.16666666666669" stroke="#000000" stroke-width="0.8" />
<line x1="356.055469953775" y1="216.26666666666668" x2="356.055469953775" y2="220.16666666666669" stroke="#000000" stroke-width="0.8" />
<line x1="372.0801232665639" y1="216.26666666666668" x2="372.0801232665639" y2="220.16666666666669" stroke="#000000" stroke-width="0.8" />
<line x1="388.1047765793528" y1="216.26666666666668" x2="388.1047765793528" y2="220.16666666666669" stroke="#000000" stroke-width="0.8" />
<line x1="420.1540832049306" y1="216.26666666666668" x2="420.1540832049306" y2="220.16666666666669" stroke="#000000" stroke-width="0.8" />
<line x1="436.17873651771947" y1="216.26666666666668" x2="436.17873651771947" y2="220.16666666666669" stroke="#000000" stroke-width="0.8" />
<line x1="452.2033898305084" y1="216.26666666666668" x2="452.2033898305084" y2="220.16666666666669" stroke="#000000" stroke-width="0.8" />
<line x1="468.2280431432973" y1="216.26666666666668" x2="468.2280431432973" y2="220.16666666666669" stroke="#000000" stroke-width="0.8" />
<line x1="500.2773497688751" y1="216.26666666666668" x2="500.2773497688751" y2="220.16666666666669" stroke="#000000" stroke-width="0.8" />
<line x1="516.302003081664" y1="216.26666666666668" x2="516.302003081664" y2="220.16666666666669" stroke="#000000" stroke-width="0.8" />
<line x1="532.3266563944529" y1="216.26666666666668" x2="532.3266563944529" y2="220.16666666666669" stroke="#000000" stroke-width="0.8" />
<line x1="548.3513097072419" y1="216.26666666666668" x2="548.3513097072419" y2="220.16666666666669" stroke="#000000" stroke-width="0.8" />
<line x1="210.79507256812553" y1="60" x2="214.69507256812554" y2="60" stroke="#000000" stroke-width="0.8" />
<text x="53.5" y="218.29507256812553" font-family="sans-serif" font-size="13" text-anchor="end" fill="#000000">40</text>
<line x1="202.423505028034" y1="60" x2="206.323505028034" y2="60" stroke="#000000" stroke-width="0.8" />
<text x="53.5" y="209.923505028034" font-family="sans-serif" font-size="13" text-anchor="end" fill="#000000">45</text>
<line x1="194.05193748794244" y1="60" x2="197.95193748794244" y2="60" stroke="#000000" stroke-width="0.8" />
<text x="53.5" y="201.55193748794244" font-family="sans-serif" font-size="13" text-anchor="end" fill="#000000">50</text>
<line x1="185.68036994785086" y1="60" x2="189.58036994785087" y2="60" stroke="#000000" stroke-width="0.8" />
<text x="53.5" y="193.18036994785086" font-family="sans-serif" font-size="13" text-anchor="end" fill="#000000">55</text>
<line x1="177.30880240775934" y1="60" x2="181.20880240775935" y2="60" stroke="#000000" stroke-width="0.8" />
<text x="53.5" y="184.80880240775934" font-family="sans-serif" font-size="13" text-anchor="end" fill="#000000">60</text>
<line x1="168.93723486766777" y1="60" x2="172.83723486766777" y2="60" stroke="#000000" stroke-width="0.8" />
<text x="53.5" y="176.43723486766777" font-family="sans-serif" font-size="13" text-anchor="end" fill="#000000">65</text>
<line x1="160.56566732757625" y1="60" x2="164.46566732757626" y2="60" stroke="#000000" stroke-width="0.8" />
<text x="53.5" y="168.06566732757625" font-family="sans-serif" font-size="13" text-anchor="end" fill="#000000">70</text>
<line x1="212.46938607614385" y1="60" x2="216.36938607614385" y2="60" stroke="#000000" stroke-width="0.8" />
<line x1="209.12075906010722" y1="60" x2="213.02075906010722" y2="60" stroke="#000000" stroke-width="0.8" />
<line x1="207.4464455520889" y1="60" x2="211.3464455520889" y2="60" stroke="#000000" stroke-width="0.8" />
<line x1="205.7721320440706" y1="60" x2="209.6721320440706" y2="60" stroke="#000000" stroke-width="0.8" />
<line x1="204.09781853605227" y1="60" x2="207.99781853605228" y2="60" stroke="#000000" stroke-width="0.8" />
<line x1="200.74919152001567" y1="60" x2="204.64919152001568" y2="60" stroke="#000000" stroke-width="0.8" />
<line x1="199.07487801199736" y1="60" x2="202.97487801199736" y2="60" stroke="#000000" stroke-width="0.8" />
<line x1="197.40056450397907" y1="60" x2="201.30056450397907" y2="60" stroke="#000000" stroke-width="0.8" />
<line x1="195.72625099596075" y1="60" x2="199.62625099596076" y2="60" stroke="#000000" stroke-width="0.8" />
<line x1="192.37762397992412" y1="60" x2="196.27762397992413" y2="60" stroke="#000000" stroke-width="0.8" />
<line x1="190.7033104719058" y1="60" x2="194.60331047190581" y2="60" stroke="#000000" stroke-width="0.8" />
<line x1="189.0289969638875" y1="60" x2="192.9289969638875" y2="60" stroke="#000000" stroke-width="0.8" />
<line x1="187.35468345586918" y1="60" x2="191.25468345586918" y2="60" stroke="#000000" stroke-width="0.8" />
<line x1="184.00605643983258" y1="60" x2="187.90605643983258" y2="60" stroke="#000000" stroke-width="0.8" />
<line x1="182.33174293181426" y1="60" x2="186.23174293181427" y2="60" stroke="#000000" stroke-width="0.8" />
<line x1="180.65742942379597" y1="60" x2="184.55742942379598" y2="60" stroke="#000000" stroke-width="0.8" />
<line x1="178.98311591577766" y1="60" x2="182.88311591577767" y2="60" stroke="#000000" stroke-width="0.8" />
<line x1="175.63448889974103" y1="60" x2="179.53448889974104" y2="60" stroke="#000000" stroke-width="0.8" />
<line x1="173.96017539172271" y1="60" x2="177.86017539172272" y2="60" stroke="#000000" stroke-width="0.8" />
<line x1="172.2858618837044" y1="60" x2="176.1858618837044" y2="60" stroke="#000000" stroke-width="0.8" />
<line x1="170.61154837568608" y1="60" x2="174.5115483756861" y2="60" stroke="#000000" stroke-width="0.8" />
<line x1="167.26292135964948" y1="60" x2="171.1629213596495" y2="60" stroke="#000000" stroke-width="0.8" />
<line x1="165.58860785163117" y1="60" x2="169.48860785163117" y2="60" stroke="#000000" stroke-width="0.8" />
<line x1="163.91429434361288" y1="60" x2="167.8142943436129" y2="60" stroke="#000000" stroke-width="0.8" />
<line x1="162.23998083559457" y1="60" x2="166.13998083559457" y2="60" stroke="#000000" stroke-width="0.8" />
<polyline points="60,170.15692158435672 68.8135593220339,188.81927882983135 77.62711864406779,198.78969637803834 86.4406779661017,213.23215706752694 95.25423728813558,210.69899301394042 104.0677966101695,166.73700337250233 112.88135593220339,182.16353037033176 121.69491525423729,165.92114681122877 130.50847457627117,185.2805151976482 139.32203389830508,208.21633009185857 148.135593220339,195.88399481082678 156.94915254237287,209.3079615340705 165.76271186440678,196.0664096517981 174.5762711864407,210.6769138026124 183.38983050847457,216.44443756979535 192.20338983050846,180.65203257651854 201.01694915254237,215.52468144223704 209.83050847457628,203.71714226338514 218.64406779661016,166.07869065172733 227.45762711864407,171.02394817651737 236.27118644067795,171.0982011022815 245.08474576271186,194.6812335758187 253.89830508474574,183.66942130122047 262.7118644067797,209.60459090599295 271.52542372881356,172.946223647071 280.33898305084745,200.787310198552 289.1525423728814,186.64844579815505 297.9661016949152,213.95191868623897 306.77966101694915,216.66666666666669 315.59322033898303,180.7548803719804 324.4067796610169,211.52421918369885 333.22033898305085,187.41923094752016 342.03389830508473,173.25651137423012 350.8474576271186,187.78212988296482 359.66101694915255,176.9484395602367 368.47457627118644,166.928766338345 377.2881355932203,179.30719361870737 386.1016949152542,167.56002861681003 394.91525423728814,197.26272047687223 403.728813559322,194.38863705122276 412.5423728813559,169.27793994017176 421.35593220338984,172.7908914095078 430.1694915254237,170.0408107064181 438.9830508474576,164.70221034490572 447.7966101694915,171.9030328905895 456.6101694915254,180.10901026547663 465.4237288135593,211.79439224457286 474.2372881355932,172.64859892775618 483.0508474576271,165.08813508284607 491.864406779661,169.87669573608787 500.6779661016949,206.40869967357946 509.4915254237288,177.39506855091344 518.3050847457628,163.33333333333334 527.1186440677966,172.1740084351829 535.9322033898304,171.746896445472 544.7457627118644,192.2002678334761 553.5593220338983,166.62209158894473 562.3728813559321,205.90968529698344 571.1864406779661,201.75816748078975 580,171.38391687572224" fill="none" stroke="#1F77B4" stroke-width="1.5" />
<g class="spine">
<line x1="60" y1="216.66666666666669" x2="580" y2="216.66666666666669" stroke="#000000" stroke-width="0.8" />
</g>
<g class="spine">
<line x1="60" y1="163.33333333333334" x2="60" y2="216.66666666666669" stroke="#000000" stroke-width="0.8" />
</g>
<text x="15" y="190" font-family="sans-serif" font-size="13" text-anchor="middle" transform="rotate(-90,15,190)" fill="#000000">Memory %</text>
<rect x="60" y="256.6666666666667" width="520" height="53.333333333333336" fill="#FFFFFF" />
<line x1="83.63636363636363" y1="256.6666666666667" x2="83.63636363636363" y2="310" stroke="#B0B0B0" stroke-width="0.8" />
<line x1="163.75963020030815" y1="256.6666666666667" x2="163.75963020030815" y2="310" stroke="#B0B0B0" stroke-width="0.8" />
<line x1="243.88289676425265" y1="256.6666666666667" x2="243.88289676425265" y2="310" stroke="#B0B0B0" stroke-width="0.8" />
<line x1="324.0061633281972" y1="256.6666666666667" x2="324.0061633281972" y2="310" stroke="#B0B0B0" stroke-width="0.8" />
<line x1="404.1294298921417" y1="256.6666666666667" x2="404.1294298921417" y2="310" stroke="#B0B0B0" stroke-width="0.8" />
<line x1="484.2526964560862" y1="256.6666666666667" x2="484.2526964560862" y2="310" stroke="#B0B0B0" stroke-width="0.8" />
<line x1="564.3759630200307" y1="256.6666666666667" x2="564.3759630200307" y2="310" stroke="#B0B0B0" stroke-width="0.8" />
<line x1="60" y1="309.116888832385" x2="580" y2="309.116888832385" stroke="#B0B0B0" stroke-width="0.8" />
<line x1="60" y1="299.05584970475553" x2="580" y2="299.05584970475553" stroke="#B0B0B0" stroke-width="0.8" />
<line x1="60" y1="288.9948105771261" x2="580" y2="288.9948105771261" stroke="#B0B0B0" stroke-width="0.8" />
<line x1="60" y1="278.93377144949665" x2="580" y2="278.93377144949665" stroke="#B0B0B0" stroke-width="0.8" />
<line x1="60" y1="268.8727323218672" x2="580" y2="268.8727323218672" stroke="#B0B0B0" stroke-width="0.8" />
<line x1="60" y1="258.81169319423776" x2="580" y2="258.81169319423776" stroke="#B0B0B0" stroke-width="0.8" />
<line x1="83.63636363636363" y1="309.6" x2="83.63636363636363" y2="313.5" stroke="#000000" stroke-width="0.8" />
<text x="83.63636363636363" y="329.5" font-family="sans-serif" font-size="13" text-anchor="middle" fill="#000000">0</text>
<line x1="163.75963020030815" y1="309.6" x2="163.75963020030815" y2="313.5" stroke="#000000" stroke-width="0.8" />
<text x="163.75963020030815" y="329.5" font-family="sans-serif" font-size="13" text-anchor="middle" fill="#000000">10</text>
<line x1="243.88289676425265" y1="309.6" x2="243.88289676425265" y2="313.5" stroke="#000000" stroke-width="0.8" />
<text x="243.88289676425265" y="329.5" font-family="sans-serif" font-size="13" text-anchor="middle" fill="#000000">20</text>
<line x1="324.0061633281972" y1="309.6" x2="324.0061633281972" y2="313.5" stroke="#000000" stroke-width="0.8" />
<text x="324.0061633281972" y="329.5" font-family="sans-serif" font-size="13" text-anchor="middle" fill="#000000">30</text>
<line x1="404.1294298921417" y1="309.6" x2="404.1294298921417" y2="313.5" stroke="#000000" stroke-width="0.8" />
<text x="404.1294298921417" y="329.5" font-family="sans-serif" font-size="13" text-anchor="middle" fill="#000000">40</text>
<line x1="484.2526964560862" y1="309.6" x2="484.2526964560862" y2="313.5" stroke="#000000" stroke-width="0.8" />
<text x="484.2526964560862" y="329.5" font-family="sans-serif" font-size="13" text-anchor="middle" fill="#000000">50</text>
<line x1="564.3759630200307" y1="309.6" x2="564.3759630200307" y2="313.5" stroke="#000000" stroke-width="0.8" />
<text x="564.3759630200307" y="329.5" font-family="sans-serif" font-size="13" text-anchor="middle" fill="#000000">60</text>
<line x1="67.61171032357473" y1="309.6" x2="67.61171032357473" y2="313.5" stroke="#000000" stroke-width="0.8" />
<line x1="99.66101694915253" y1="309.6" x2="99.66101694915253" y2="313.5" stroke="#000000" stroke-width="0.8" />
<line x1="115.68567026194142" y1="309.6" x2="115.68567026194142" y2="313.5" stroke="#000000" stroke-width="0.8" />
<line x1="131.71032357473035" y1="309.6" x2="131.71032357473035" y2="313.5" stroke="#000000" stroke-width="0.8" />
<line x1="147.73497688751922" y1="309.6" x2="147.73497688751922" y2="313.5" stroke="#000000" stroke-width="0.8" />
<line x1="179.78428351309705" y1="309.6" x2="179.78428351309705" y2="313.5" stroke="#000000" stroke-width="0.8" />
<line x1="195.80893682588595" y1="309.6" x2="195.80893682588595" y2="313.5" stroke="#000000" stroke-width="0.8" />
<line x1="211.83359013867485" y1="309.6" x2="211.83359013867485" y2="313.5" stroke="#000000" stroke-width="0.8" />
<line x1="227.85824345146375" y1="309.6" x2="227.85824345146375" y2="313.5" stroke="#000000" stroke-width="0.8" />
<line x1="259.90755007704155" y1="309.6" x2="259.90755007704155" y2="313.5" stroke="#000000" stroke-width="0.8" />
<line x1="275.9322033898305" y1="309.6" x2="275.9322033898305" y2="313.5" stroke="#000000" stroke-width="0.8" />
<line x1="291.95685670261935" y1="309.6" x2="291.95685670261935" y2="313.5" stroke="#000000" stroke-width="0.8" />
<line x1="307.9815100154083" y1="309.6" x2="307.9815100154083" y2="313.5" stroke="#000000" stroke-width="0.8" />
<line x1="340.0308166409861" y1="309.6" x2="340.0308166409861" y2="313.5" stroke="#000000" stroke-width="0.8" />
<line x1="356.055469953775" y1="309.6" x2="356.055469953775" y2="313.5" stroke="#000000" stroke-width="0.8" />
<line x1="372.0801232665639" y1="309.6" x2="372.0801232665639" y2="313.5" stroke="#000000" stroke-width="0.8" />
<line x1="388.1047765793528" y1="309.6" x2="388.1047765793528" y2="313.5" stroke="#000000" stroke-width="0.8" />
<line x1="420.1540832049306" y1="309.6" x2="420.1540832049306" y2="313.5" stroke="#000000" stroke-width="0.8" />
<line x1="436.17873651771947" y1="309.6" x2="436.17873651771947" y2="313.5" stroke="#000000" stroke-width="0.8" />
<line x1="452.2033898305084" y1="309.6" x2="452.2033898305084" y2="313.5" stroke="#000000" stroke-width="0.8" />
<line x1="468.2280431432973" y1="309.6" x2="468.2280431432973" y2="313.5" stroke="#000000" stroke-width="0.8" />
<line x1="500.2773497688751" y1="309.6" x2="500.2773497688751" y2="313.5" stroke="#000000" stroke-width="0.8" />
<line x1="516.302003081664" y1="309.6" x2="516.302003081664" y2="313.5" stroke="#000000" stroke-width="0.8" />
<line x1="532.3266563944529" y1="309.6" x2="532.3266563944529" y2="313.5" stroke="#000000" stroke-width="0.8" />
<line x1="548.3513097072419" y1="309.6" x2="548.3513097072419" y2="313.5" stroke="#000000" stroke-width="0.8" />
<line x1="305.616888832385" y1="60" x2="309.51688883238495" y2="60" stroke="#000000" stroke-width="0.8" />
<text x="53.5" y="313.116888832385" font-family="sans-serif" font-size="13" text-anchor="end" fill="#000000">0</text>
<line x1="295.55584970475553" y1="60" x2="299.4558497047555" y2="60" stroke="#000000" stroke-width="0.8" />
<text x="53.5" y="303.05584970475553" font-family="sans-serif" font-size="13" text-anchor="end" fill="#000000">100</text>
<line x1="285.4948105771261" y1="60" x2="289.39481057712607" y2="60" stroke="#000000" stroke-width="0.8" />
<text x="53.5" y="292.9948105771261" font-family="sans-serif" font-size="13" text-anchor="end" fill="#000000">200</text>
<line x1="275.43377144949665" y1="60" x2="279.3337714494966" y2="60" stroke="#000000" stroke-width="0.8" />
<text x="53.5" y="282.93377144949665" font-family="sans-serif" font-size="13" text-anchor="end" fill="#000000">300</text>
<line x1="265.3727323218672" y1="60" x2="269.2727323218672" y2="60" stroke="#000000" stroke-width="0.8" />
<text x="53.5" y="272.8727323218672" font-family="sans-serif" font-size="13" text-anchor="end" fill="#000000">400</text>
<line x1="255.31169319423776" y1="60" x2="259.21169319423774" y2="60" stroke="#000000" stroke-width="0.8" />
<text x="53.5" y="262.81169319423776" font-family="sans-serif" font-size="13" text-anchor="end" fill="#000000">500</text>
<line x1="303.6046810068591" y1="60" x2="307.5046810068591" y2="60" stroke="#000000" stroke-width="0.8" />
<line x1="301.5924731813332" y1="60" x2="305.4924731813332" y2="60" stroke="#000000" stroke-width="0.8" />
<line x1="299.5802653558073" y1="60" x2="303.48026535580726" y2="60" stroke="#000000" stroke-width="0.8" />
<line x1="297.5680575302814" y1="60" x2="301.4680575302814" y2="60" stroke="#000000" stroke-width="0.8" />
<line x1="293.54364187922965" y1="60" x2="297.44364187922963" y2="60" stroke="#000000" stroke-width="0.8" />
<line x1="291.5314340537038" y1="60" x2="295.43143405370375" y2="60" stroke="#000000" stroke-width="0.8" />
<line x1="289.51922622817784" y1="60" x2="293.4192262281778" y2="60" stroke="#000000" stroke-width="0.8" />
<line x1="287.50701840265197" y1="60" x2="291.40701840265194" y2="60" stroke="#000000" stroke-width="0.8" />
<line x1="283.4826027516002" y1="60" x2="287.3826027516002" y2="60" stroke="#000000" stroke-width="0.8" />
<line x1="281.47039492607433" y1="60" x2="285.3703949260743" y2="60" stroke="#000000" stroke-width="0.8" />
<line x1="279.4581871005484" y1="60" x2="283.3581871005484" y2="60" stroke="#000000" stroke-width="0.8" />
<line x1="277.4459792750225" y1="60" x2="281.3459792750225" y2="60" stroke="#000000" stroke-width="0.8" />
<line x1="273.42156362397077" y1="60" x2="277.32156362397075" y2="60" stroke="#000000" stroke-width="0.8" />
<line x1="271.4093557984449" y1="60" x2="275.30935579844487" y2="60" stroke="#000000" stroke-width="0.8" />
<line x1="269.39714797291896" y1="60" x2="273.29714797291894" y2="60" stroke="#000000" stroke-width="0.8" />
<line x1="267.3849401473931" y1="60" x2="271.28494014739306" y2="60" stroke="#000000" stroke-width="0.8" />
<line x1="263.3605244963413" y1="60" x2="267.2605244963413" y2="60" stroke="#000000" stroke-width="0.8" />
<line x1="261.34831667081545" y1="60" x2="265.2483166708154" y2="60" stroke="#000000" stroke-width="0.8" />
<line x1="259.3361088452895" y1="60" x2="263.2361088452895" y2="60" stroke="#000000" stroke-width="0.8" />
<line x1="257.32390101976364" y1="60" x2="261.2239010197636" y2="60" stroke="#000000" stroke-width="0.8" />
<line x1="253.29948536871188" y1="60" x2="257.19948536871186" y2="60" stroke="#000000" stroke-width="0.8" />
<polyline points="60,291.75375787924963 68.8135593220339,279.85889104314754 77.62711864406779,260.87315537163846 86.4406779661017,260.8919926686325 95.25423728813558,308.3823640661206 104.0677966101695,264.83706539910463 112.88135593220339,292.4653768335992 121.69491525423729,264.65630897488313 130.50847457627117,290.1388958125492 139.32203389830508,305.9499138668152 148.135593220339,257.7063973455096 156.94915254237287,304.39655515233886 165.76271186440678,262.82368994724754 174.5762711864407,283.3425815284923 183.38983050847457,258.1081719423626 192.20338983050846,310 201.01694915254237,281.0371316149119 209.83050847457628,275.3553594773024 218.64406779661016,294.11797451220224 227.45762711864407,304.52164994238797 236.27118644067795,300.6715539149538 245.08474576271186,270.38050021008223 253.89830508474574,305.29704261527496 262.7118644067797,303.22010079756535 271.52542372881356,286.00271641680257 280.33898305084745,290.540176777566 289.1525423728814,280.4817696448422 297.9661016949152,257.44366549185423 306.77966101694915,272.4189579414961 315.59322033898303,296.42040285369984 324.4067796610169,256.6666666666667 333.22033898305085,285.0526126025787 342.03389830508473,277.4455044585487 350.8474576271186,282.277380920808 359.66101694915255,309.2670857419488 368.47457627118644,296.0133663120538 377.2881355932203,263.18163889081774 386.1016949152542,260.4085713351318 394.91525423728814,262.90725944393034 403.728813559322,258.3285306680059 412.5423728813559,294.2542936867722 421.35593220338984,298.4608379211383 430.1694915254237,289.1091064671218 438.9830508474576,265.7262166972356 447.7966101694915,263.42980405730265 456.6101694915254,308.66248798375835 465.4237288135593,265.8422286305752 474.2372881355932,286.57609949195654 483.0508474576271,265.3288085402839 491.864406779661,268.34493923201046 500.6779661016949,262.4563255890267 509.4915254237288,297.85704215685473 518.3050847457628,263.1055860900148 527.1186440677966,303.8798438825156 535.9322033898304,277.30985805286815 544.7457627118644,277.7327868494956 553.5593220338983,286.2570928101627 562.3728813559321,269.34829895636324 571.1864406779661,286.58452063412005 580,274.2017164688828" fill="none" stroke="#1F77B4" stroke-width="1.5" />
<g class="spine">
<line x1="60" y1="310" x2="580" y2="310" stroke="#000000" stroke-width="0.8" />
</g>
<g class="spine">
<line x1="60" y1="256.6666666666667" x2="60" y2="310" stroke="#000000" stroke-width="0.8" />
</g>
<text x="15" y="283.33333333333337" font-family="sans-serif" font-size="13" text-anchor="middle" transform="rotate(-90,15,283.33333333333337)" fill="#000000">Disk I/O</text>
</svg>
