<svg xmlns="http://www.w3.org/2000/svg" viewBox="0 0 800 600" width="800" height="600" role="img" aria-labelledby="chart-title">
<title id="chart-title">Symlog Y-Axis — x³</title>
<rect x="0" y="0" width="800" height="600" fill="#FFFFFF" />
<path d="M10.7176 -12.6305L10.7176 -9.87033Q9.64323 -10.3507 8.62126 -10.5953Q7.59928 -10.8399 6.69086 -10.8399Q5.48546 -10.8399 4.90896 -10.508Q4.33247 -10.1761 4.33247 -9.47727Q4.33247 -8.95318 4.72116 -8.66056Q5.10986 -8.36795 6.13184 -8.15831L7.56434 -7.87006Q9.73931 -7.43332 10.6565 -6.54237Q11.5736 -5.65142 11.5736 -4.00928Q11.5736 -1.85178 10.294 -0.799235Q9.01432 0.253309 6.38515 0.253309Q5.1448 0.253309 3.89573 0.0174696Q2.64665 -0.21837 1.39757 -0.681315L1.39757 -3.52013Q2.64665 -2.85628 3.81274 -2.51999Q4.97884 -2.1837 6.06196 -2.1837Q7.16254 -2.1837 7.74778 -2.55056Q8.33301 -2.91743 8.33301 -3.59874Q8.33301 -4.21018 7.93557 -4.5421Q7.53814 -4.87402 6.35021 -5.13607L5.04872 -5.42432Q3.09212 -5.84359 2.18807 -6.76074Q1.28402 -7.6779 1.28402 -9.23269Q1.28402 -11.1806 2.54183 -12.2287Q3.79964 -13.2769 6.15804 -13.2769Q7.23242 -13.2769 8.36795 -13.1153Q9.50347 -12.9537 10.7176 -12.6305ZM13.1022 -9.78299L16.2293 -9.78299L18.8585 -3.14453L21.0946 -9.78299L24.2216 -9.78299L20.1075 0.92589Q19.4874 2.5593 18.6619 3.21004Q17.8365 3.86079 16.4826 3.86079L14.6745 3.86079L14.6745 1.80811L15.6528 1.80811Q16.4476 1.80811 16.8101 1.5548Q17.1726 1.30149 17.3735 0.646376L17.4609 0.375597L13.1022 -9.78299ZM35.1139 -8.15831Q35.7079 -9.06673 36.5246 -9.54278Q37.3413 -10.0188 38.3196 -10.0188Q40.0054 -10.0188 40.8876 -8.97938Q41.7699 -7.93994 41.7699 -5.95714L41.7699 0L38.6253 0L38.6253 -5.10113Q38.6341 -5.21468 38.6384 -5.33697Q38.6428 -5.45926 38.6428 -5.68636Q38.6428 -6.7258 38.3371 -7.19312Q38.0314 -7.66043 37.35 -7.66043Q36.4591 -7.66043 35.9743 -6.9267Q35.4895 -6.19298 35.4721 -4.80414L35.4721 0L32.3275 0L32.3275 -5.10113Q32.3275 -6.7258 32.048 -7.19312Q31.7685 -7.66043 31.0522 -7.66043Q30.1526 -7.66043 29.6634 -6.92234Q29.1743 -6.18424 29.1743 -4.81288L29.1743 0L26.0297 0L26.0297 -9.78299L29.1743 -9.78299L29.1743 -8.35048Q29.7508 -9.18028 30.4976 -9.59956Q31.2444 -10.0188 32.1441 -10.0188Q33.1573 -10.0188 33.9347 -9.52968Q34.7121 -9.04053 35.1139 -8.15831ZM44.6873 -13.5914L47.8143 -13.5914L47.8143 0L44.6873 0L44.6873 -13.5914ZM55.4748 -7.78271Q54.4353 -7.78271 53.8894 -7.03589Q53.3435 -6.28906 53.3435 -4.88276Q53.3435 -3.47645 53.8894 -2.72963Q54.4353 -1.9828 55.4748 -1.9828Q56.4967 -1.9828 57.0383 -2.72963Q57.5799 -3.47645 57.5799 -4.88276Q57.5799 -6.28906 57.0383 -7.03589Q56.4967 -7.78271 55.4748 -7.78271ZM55.4748 -10.0188Q57.9991 -10.0188 59.4185 -8.6562Q60.8379 -7.29357 60.8379 -4.88276Q60.8379 -2.47195 59.4185 -1.10932Q57.9991 0.253309 55.4748 0.253309Q52.9417 0.253309 51.5135 -1.10932Q50.0854 -2.47195 50.0854 -4.88276Q50.0854 -7.29357 51.5135 -8.6562Q52.9417 -10.0188 55.4748 -10.0188ZM69.7649 -1.65961Q69.1185 -0.803602 68.3411 -0.401801Q67.5638 0 66.5418 0Q64.7511 0 63.5807 -1.41067Q62.4102 -2.82134 62.4102 -5.00505Q62.4102 -7.19748 63.5807 -8.59942Q64.7511 -10.0014 66.5418 -10.0014Q67.5638 -10.0014 68.3411 -9.59956Q69.1185 -9.19775 69.7649 -8.33301L69.7649 -9.78299L72.9095 -9.78299L72.9095 -0.987033Q72.9095 1.37137 71.4202 2.61608Q69.9309 3.86079 67.1008 3.86079Q66.1837 3.86079 65.3276 3.72103Q64.4716 3.58127 63.6069 3.29302L63.6069 0.856011Q64.428 1.32769 65.2141 1.55916Q66.0002 1.79064 66.7951 1.79064Q68.3324 1.79064 69.0487 1.11806Q69.7649 0.445475 69.7649 -0.987033L69.7649 -1.65961ZM67.7035 -7.74778Q66.7339 -7.74778 66.1924 -7.03152Q65.6508 -6.31527 65.6508 -5.00505Q65.6508 -3.65988 66.1749 -2.96547Q66.699 -2.27105 67.7035 -2.27105Q68.6818 -2.27105 69.2234 -2.9873Q69.7649 -3.70356 69.7649 -5.00505Q69.7649 -6.31527 69.2234 -7.03152Q68.6818 -7.74778 67.7035 -7.74778ZM80.4651 -13.0411L84.1424 -13.0411L87.1123 -8.39415L90.0821 -13.0411L93.7682 -13.0411L88.7981 -5.49419L88.7981 0L85.4352 0L85.4352 -5.49419L80.4651 -13.0411ZM94.563 -6.42008L100.049 -6.42008L100.049 -3.87826L94.563 -3.87826L94.563 -6.42008ZM110.574 -2.37587L105.316 -2.37587L104.486 0L101.105 0L105.936 -13.0411L109.945 -13.0411L114.775 0L111.395 0L110.574 -2.37587ZM106.154 -4.79541L109.727 -4.79541L107.945 -9.98389L106.154 -4.79541ZM118.837 -5.00505L115.308 -9.78299L118.619 -9.78299L120.619 -6.88303L122.645 -9.78299L125.956 -9.78299L122.427 -5.02252L126.131 0L122.82 0L120.619 -3.09212L118.444 0L115.134 0L118.837 -5.00505ZM127.904 -9.78299L131.031 -9.78299L131.031 0L127.904 0L127.904 -9.78299ZM127.904 -13.5914L131.031 -13.5914L131.031 -11.0408L127.904 -11.0408L127.904 -13.5914ZM141.679 -9.47727L141.679 -7.1014Q140.674 -7.52067 139.739 -7.73031Q138.805 -7.93994 137.975 -7.93994Q137.084 -7.93994 136.652 -7.7172Q136.219 -7.49447 136.219 -7.03152Q136.219 -6.65592 136.547 -6.45502Q136.874 -6.25412 137.722 -6.15804L138.272 -6.07943Q140.674 -5.77371 141.504 -5.07492Q142.334 -4.37614 142.334 -2.88249Q142.334 -1.31896 141.181 -0.532823Q140.028 0.253309 137.739 0.253309Q136.77 0.253309 135.735 0.10045Q134.699 -0.0524089 133.608 -0.358127L133.608 -2.734Q134.542 -2.27978 135.525 -2.05268Q136.508 -1.82557 137.521 -1.82558Q138.438 -1.82558 138.901 -2.07888Q139.364 -2.33219 139.364 -2.83008Q139.364 -3.24935 139.045 -3.45462Q138.726 -3.65989 137.774 -3.77344L137.224 -3.84332Q135.136 -4.10536 134.298 -4.81288Q133.459 -5.5204 133.459 -6.96164Q133.459 -8.51644 134.525 -9.26763Q135.59 -10.0188 137.792 -10.0188Q138.656 -10.0188 139.608 -9.8878Q140.561 -9.75678 141.679 -9.47727ZM150.37 -6.02702L166.337 -6.02702L166.337 -3.77344L150.37 -3.77344L150.37 -6.02702ZM177.5 -5.00505L173.971 -9.78299L177.282 -9.78299L179.282 -6.88303L181.308 -9.78299L184.619 -9.78299L181.09 -5.02252L184.794 0L181.483 0L179.282 -3.09212L177.107 0L173.797 0L177.5 -5.00505ZM190.235 -9.78299Q191.039 -9.62576 191.484 -9.14535Q191.93 -8.66493 191.93 -7.95741Q191.93 -6.83062 191.065 -6.26723Q190.2 -5.70383 188.445 -5.70383Q187.737 -5.70383 187.091 -5.80428Q186.445 -5.90473 185.851 -6.0969L185.851 -7.61675Q186.427 -7.3023 186.986 -7.14071Q187.545 -6.97911 188.069 -6.97911Q188.899 -6.97911 189.353 -7.25863Q189.807 -7.53814 189.807 -8.05349Q189.807 -8.61252 189.34 -8.87893Q188.873 -9.14534 187.877 -9.14535L187.231 -9.14535L187.231 -10.342L187.964 -10.342Q188.82 -10.342 189.213 -10.5473Q189.607 -10.7526 189.607 -11.198Q189.607 -11.5911 189.266 -11.7876Q188.925 -11.9842 188.226 -11.9842Q187.772 -11.9842 187.235 -11.8706Q186.698 -11.7571 186.086 -11.5212L186.086 -12.9712Q186.654 -13.1197 187.314 -13.1983Q187.973 -13.2769 188.733 -13.2769Q190.192 -13.2769 190.965 -12.7878Q191.738 -12.2986 191.738 -11.3815Q191.738 -10.7788 191.345 -10.3595Q190.952 -9.94021 190.235 -9.78299Z" fill="#262626" transform="translate(400,24.099999999999998) translate(-96.44976806640625,0)" />
<rect x="100" y="72" width="620" height="462" fill="#FFFFFF" />
<line x1="100" y1="533.6" x2="100" y2="538.8611111111111" stroke="#262626" stroke-width="1.1111111111111112" />
<path d="M0.678168 -4.36062L4.3335 -4.36062L4.3335 -3.24843L0.678168 -3.24843L0.678168 -4.36062ZM9.59608 -5.60845Q8.67377 -5.60845 8.13463 -4.97776Q7.59549 -4.34706 7.59549 -3.24843Q7.59549 -2.15658 8.13463 -1.52249Q8.67377 -0.888401 9.59608 -0.888401Q10.5184 -0.888401 11.0575 -1.52249Q11.5967 -2.15658 11.5967 -3.24843Q11.5967 -4.34706 11.0575 -4.97776Q10.5184 -5.60845 9.59608 -5.60845ZM12.3155 -9.90126L12.3155 -8.65343Q11.8001 -8.89757 11.2746 -9.02642Q10.749 -9.15527 10.2336 -9.15527Q8.87722 -9.15527 8.16176 -8.23975Q7.44629 -7.32422 7.34456 -5.47282Q7.74468 -6.06282 8.34825 -6.37817Q8.95182 -6.69352 9.67746 -6.69352Q11.2033 -6.69352 12.0884 -5.76782Q12.9734 -4.84212 12.9734 -3.24843Q12.9734 -1.68864 12.0511 -0.745985Q11.1287 0.196669 9.59608 0.196669Q7.83963 0.196669 6.91054 -1.1495Q5.98145 -2.49566 5.98145 -5.05235Q5.98145 -7.45307 7.12077 -8.88062Q8.26009 -10.3082 10.1793 -10.3082Q10.6947 -10.3082 11.2203 -10.2064Q11.7459 -10.1047 12.3155 -9.90126ZM18.2631 -9.22309Q17.2051 -9.22309 16.6728 -8.1821Q16.1404 -7.14111 16.1404 -5.05235Q16.1404 -2.97038 16.6728 -1.92939Q17.2051 -0.888401 18.2631 -0.888401Q19.3278 -0.888401 19.8602 -1.92939Q20.3925 -2.97038 20.3925 -5.05235Q20.3925 -7.14111 19.8602 -8.1821Q19.3278 -9.22309 18.2631 -9.22309ZM18.2631 -10.3082Q19.9653 -10.3082 20.8639 -8.962Q21.7624 -7.61583 21.7624 -5.05235Q21.7624 -2.49566 20.8639 -1.1495Q19.9653 0.196669 18.2631 0.196669Q16.5609 0.196669 15.6623 -1.1495Q14.7637 -2.49566 14.7637 -5.05235Q14.7637 -7.61583 15.6623 -8.962Q16.5609 -10.3082 18.2631 -10.3082Z" fill="#262626" transform="translate(100,557.6111111111111) translate(-11.342367172241211,0)" />
<line x1="203.33333333333331" y1="533.6" x2="203.33333333333331" y2="538.8611111111111" stroke="#262626" stroke-width="1.1111111111111112" />
<path d="M0.678168 -4.36062L4.3335 -4.36062L4.3335 -3.24843L0.678168 -3.24843L0.678168 -4.36062ZM10.2607 -8.93148L6.80203 -3.52648L10.2607 -3.52648L10.2607 -8.93148ZM9.90126 -10.1251L11.6238 -10.1251L11.6238 -3.52648L13.0683 -3.52648L13.0683 -2.38715L11.6238 -2.38715L11.6238 0L10.2607 0L10.2607 -2.38715L5.68983 -2.38715L5.68983 -3.70958L9.90126 -10.1251ZM18.2631 -9.22309Q17.2051 -9.22309 16.6728 -8.1821Q16.1404 -7.14111 16.1404 -5.05235Q16.1404 -2.97038 16.6728 -1.92939Q17.2051 -0.888401 18.2631 -0.888401Q19.3278 -0.888401 19.8602 -1.92939Q20.3925 -2.97038 20.3925 -5.05235Q20.3925 -7.14111 19.8602 -8.1821Q19.3278 -9.22309 18.2631 -9.22309ZM18.2631 -10.3082Q19.9653 -10.3082 20.8639 -8.962Q21.7624 -7.61583 21.7624 -5.05235Q21.7624 -2.49566 20.8639 -1.1495Q19.9653 0.196669 18.2631 0.196669Q16.5609 0.196669 15.6623 -1.1495Q14.7637 -2.49566 14.7637 -5.05235Q14.7637 -7.61583 15.6623 -8.962Q16.5609 -10.3082 18.2631 -10.3082Z" fill="#262626" transform="translate(203.33333333333331,557.6111111111111) translate(-11.342367172241211,0)" />
<line x1="306.66666666666663" y1="533.6" x2="306.66666666666663" y2="538.8611111111111" stroke="#262626" stroke-width="1.1111111111111112" />
<path d="M0.678168 -4.36062L4.3335 -4.36062L4.3335 -3.24843L0.678168 -3.24843L0.678168 -4.36062ZM7.67687 -1.15289L12.458 -1.15289L12.458 0L6.02892 0L6.02892 -1.15289Q6.80881 -1.95991 8.15498 -3.31963Q9.50114 -4.67936 9.84701 -5.0727Q10.5048 -5.8119 10.7659 -6.32392Q11.027 -6.83594 11.027 -7.331Q11.027 -8.13802 10.4607 -8.64665Q9.89448 -9.15527 8.98573 -9.15527Q8.34147 -9.15527 7.626 -8.93148Q6.91054 -8.70768 6.09673 -8.25331L6.09673 -9.63677Q6.9241 -9.96908 7.64296 -10.1386Q8.36182 -10.3082 8.9586 -10.3082Q10.532 -10.3082 11.4678 -9.52148Q12.4037 -8.73481 12.4037 -7.41916Q12.4037 -6.79525 12.1697 -6.23576Q11.9358 -5.67627 11.3186 -4.91672Q11.1491 -4.72005 10.2403 -3.78079Q9.3316 -2.84153 7.67687 -1.15289ZM18.2631 -9.22309Q17.2051 -9.22309 16.6728 -8.1821Q16.1404 -7.14111 16.1404 -5.05235Q16.1404 -2.97038 16.6728 -1.92939Q17.2051 -0.888401 18.2631 -0.888401Q19.3278 -0.888401 19.8602 -1.92939Q20.3925 -2.97038 20.3925 -5.05235Q20.3925 -7.14111 19.8602 -8.1821Q19.3278 -9.22309 18.2631 -9.22309ZM18.2631 -10.3082Q19.9653 -10.3082 20.8639 -8.962Q21.7624 -7.61583 21.7624 -5.05235Q21.7624 -2.49566 20.8639 -1.1495Q19.9653 0.196669 18.2631 0.196669Q16.5609 0.196669 15.6623 -1.1495Q14.7637 -2.49566 14.7637 -5.05235Q14.7637 -7.61583 15.6623 -8.962Q16.5609 -10.3082 18.2631 -10.3082Z" fill="#262626" transform="translate(306.66666666666663,557.6111111111111) translate(-11.342367172241211,0)" />
<line x1="410" y1="533.6" x2="410" y2="538.8611111111111" stroke="#262626" stroke-width="1.1111111111111112" />
<path d="M4.41488 -9.22309Q3.35693 -9.22309 2.82457 -8.1821Q2.29221 -7.14111 2.29221 -5.05235Q2.29221 -2.97038 2.82457 -1.92939Q3.35693 -0.888401 4.41488 -0.888401Q5.4796 -0.888401 6.01196 -1.92939Q6.54433 -2.97038 6.54433 -5.05235Q6.54433 -7.14111 6.01196 -8.1821Q5.4796 -9.22309 4.41488 -9.22309ZM4.41488 -10.3082Q6.11708 -10.3082 7.01565 -8.962Q7.91422 -7.61583 7.91423 -5.05235Q7.91423 -2.49566 7.01565 -1.1495Q6.11708 0.196669 4.41488 0.196669Q2.71267 0.196669 1.8141 -1.1495Q0.915527 -2.49566 0.915527 -5.05235Q0.915527 -7.61583 1.8141 -8.962Q2.71267 -10.3082 4.41488 -10.3082Z" fill="#262626" transform="translate(410,557.6111111111111) translate(-4.418267250061035,0)" />
<line x1="513.3333333333334" y1="533.6" x2="513.3333333333334" y2="538.8611111111111" stroke="#262626" stroke-width="1.1111111111111112" />
<path d="M2.6652 -1.15289L7.44629 -1.15289L7.44629 0L1.01725 0L1.01725 -1.15289Q1.79715 -1.95991 3.14331 -3.31963Q4.48947 -4.67936 4.83534 -5.0727Q5.49316 -5.8119 5.75426 -6.32392Q6.01535 -6.83594 6.01535 -7.331Q6.01535 -8.13802 5.44908 -8.64665Q4.88281 -9.15527 3.97407 -9.15527Q3.32981 -9.15527 2.61434 -8.93148Q1.89887 -8.70768 1.08507 -8.25331L1.08507 -9.63677Q1.91243 -9.96908 2.63129 -10.1386Q3.35015 -10.3082 3.94694 -10.3082Q5.52029 -10.3082 6.45616 -9.52148Q7.39204 -8.73481 7.39204 -7.41916Q7.39204 -6.79525 7.15807 -6.23576Q6.9241 -5.67627 6.30697 -4.91672Q6.13742 -4.72005 5.22868 -3.78079Q4.31993 -2.84153 2.6652 -1.15289ZM13.2514 -9.22309Q12.1935 -9.22309 11.6611 -8.1821Q11.1287 -7.14111 11.1287 -5.05235Q11.1287 -2.97038 11.6611 -1.92939Q12.1935 -0.888401 13.2514 -0.888401Q14.3161 -0.888401 14.8485 -1.92939Q15.3809 -2.97038 15.3809 -5.05235Q15.3809 -7.14111 14.8485 -8.1821Q14.3161 -9.22309 13.2514 -9.22309ZM13.2514 -10.3082Q14.9536 -10.3082 15.8522 -8.962Q16.7508 -7.61583 16.7508 -5.05235Q16.7508 -2.49566 15.8522 -1.1495Q14.9536 0.196669 13.2514 0.196669Q11.5492 0.196669 10.6506 -1.1495Q9.75206 -2.49566 9.75206 -5.05235Q9.75206 -7.61583 10.6506 -8.962Q11.5492 -10.3082 13.2514 -10.3082Z" fill="#262626" transform="translate(513.3333333333334,557.6111111111111) translate(-8.83653450012207,0)" />
<line x1="616.6666666666667" y1="533.6" x2="616.6666666666667" y2="538.8611111111111" stroke="#262626" stroke-width="1.1111111111111112" />
<path d="M5.24902 -8.93148L1.79036 -3.52648L5.24902 -3.52648L5.24902 -8.93148ZM4.88959 -10.1251L6.61214 -10.1251L6.61214 -3.52648L8.05664 -3.52648L8.05664 -2.38715L6.61214 -2.38715L6.61214 0L5.24902 0L5.24902 -2.38715L0.678168 -2.38715L0.678168 -3.70958L4.88959 -10.1251ZM13.2514 -9.22309Q12.1935 -9.22309 11.6611 -8.1821Q11.1287 -7.14111 11.1287 -5.05235Q11.1287 -2.97038 11.6611 -1.92939Q12.1935 -0.888401 13.2514 -0.888401Q14.3161 -0.888401 14.8485 -1.92939Q15.3809 -2.97038 15.3809 -5.05235Q15.3809 -7.14111 14.8485 -8.1821Q14.3161 -9.22309 13.2514 -9.22309ZM13.2514 -10.3082Q14.9536 -10.3082 15.8522 -8.962Q16.7508 -7.61583 16.7508 -5.05235Q16.7508 -2.49566 15.8522 -1.1495Q14.9536 0.196669 13.2514 0.196669Q11.5492 0.196669 10.6506 -1.1495Q9.75206 -2.49566 9.75206 -5.05235Q9.75206 -7.61583 10.6506 -8.962Q11.5492 -10.3082 13.2514 -10.3082Z" fill="#262626" transform="translate(616.6666666666667,557.6111111111111) translate(-8.83653450012207,0)" />
<line x1="720" y1="533.6" x2="720" y2="538.8611111111111" stroke="#262626" stroke-width="1.1111111111111112" />
<path d="M4.58442 -5.60845Q3.66211 -5.60845 3.12297 -4.97776Q2.58382 -4.34706 2.58382 -3.24843Q2.58382 -2.15658 3.12297 -1.52249Q3.66211 -0.888401 4.58442 -0.888401Q5.50673 -0.888401 6.04587 -1.52249Q6.58502 -2.15658 6.58502 -3.24843Q6.58502 -4.34706 6.04587 -4.97776Q5.50673 -5.60845 4.58442 -5.60845ZM7.30387 -9.90126L7.30387 -8.65343Q6.78847 -8.89757 6.26289 -9.02642Q5.7373 -9.15527 5.2219 -9.15527Q3.86556 -9.15527 3.15009 -8.23975Q2.43462 -7.32422 2.3329 -5.47282Q2.73302 -6.06282 3.33659 -6.37817Q3.94016 -6.69352 4.6658 -6.69352Q6.19168 -6.69352 7.07669 -5.76782Q7.9617 -4.84212 7.9617 -3.24843Q7.9617 -1.68864 7.03939 -0.745985Q6.11708 0.196669 4.58442 0.196669Q2.82796 0.196669 1.89887 -1.1495Q0.969781 -2.49566 0.969781 -5.05235Q0.969781 -7.45307 2.1091 -8.88062Q3.24843 -10.3082 5.16764 -10.3082Q5.68305 -10.3082 6.20863 -10.2064Q6.73421 -10.1047 7.30387 -9.90126ZM13.2514 -9.22309Q12.1935 -9.22309 11.6611 -8.1821Q11.1287 -7.14111 11.1287 -5.05235Q11.1287 -2.97038 11.6611 -1.92939Q12.1935 -0.888401 13.2514 -0.888401Q14.3161 -0.888401 14.8485 -1.92939Q15.3809 -2.97038 15.3809 -5.05235Q15.3809 -7.14111 14.8485 -8.1821Q14.3161 -9.22309 13.2514 -9.22309ZM13.2514 -10.3082Q14.9536 -10.3082 15.8522 -8.962Q16.7508 -7.61583 16.7508 -5.05235Q16.7508 -2.49566 15.8522 -1.1495Q14.9536 0.196669 13.2514 0.196669Q11.5492 0.196669 10.6506 -1.1495Q9.75206 -2.49566 9.75206 -5.05235Q9.75206 -7.61583 10.6506 -8.962Q11.5492 -10.3082 13.2514 -10.3082Z" fill="#262626" transform="translate(720,557.6111111111111) translate(-8.83653450012207,0)" />
<line x1="95.13888888888889" y1="526.2799452803278" x2="100.4" y2="526.2799452803278" stroke="#262626" stroke-width="1.1111111111111112" />
<path d="M0.678168 -4.36062L4.3335 -4.36062L4.3335 -3.24843L0.678168 -3.24843L0.678168 -4.36062ZM6.73421 -1.15289L8.97217 -1.15289L8.97217 -8.87722L6.53754 -8.38894L6.53754 -9.63677L8.9586 -10.1251L10.3285 -10.1251L10.3285 -1.15289L12.5665 -1.15289L12.5665 0L6.73421 0L6.73421 -1.15289ZM18.2631 -9.22309Q17.2051 -9.22309 16.6728 -8.1821Q16.1404 -7.14111 16.1404 -5.05235Q16.1404 -2.97038 16.6728 -1.92939Q17.2051 -0.888401 18.2631 -0.888401Q19.3278 -0.888401 19.8602 -1.92939Q20.3925 -2.97038 20.3925 -5.05235Q20.3925 -7.14111 19.8602 -8.1821Q19.3278 -9.22309 18.2631 -9.22309ZM18.2631 -10.3082Q19.9653 -10.3082 20.8639 -8.962Q21.7624 -7.61583 21.7624 -5.05235Q21.7624 -2.49566 20.8639 -1.1495Q19.9653 0.196669 18.2631 0.196669Q16.5609 0.196669 15.6623 -1.1495Q14.7637 -2.49566 14.7637 -5.05235Q14.7637 -7.61583 15.6623 -8.962Q16.5609 -10.3082 18.2631 -10.3082ZM27.0996 -9.22309Q26.0417 -9.22309 25.5093 -8.1821Q24.9769 -7.14111 24.9769 -5.05235Q24.9769 -2.97038 25.5093 -1.92939Q26.0417 -0.888401 27.0996 -0.888401Q28.1643 -0.888401 28.6967 -1.92939Q29.2291 -2.97038 29.2291 -5.05235Q29.2291 -7.14111 28.6967 -8.1821Q28.1643 -9.22309 27.0996 -9.22309ZM27.0996 -10.3082Q28.8018 -10.3082 29.7004 -8.962Q30.599 -7.61583 30.599 -5.05235Q30.599 -2.49566 29.7004 -1.1495Q28.8018 0.196669 27.0996 0.196669Q25.3974 0.196669 24.4988 -1.1495Q23.6003 -2.49566 23.6003 -5.05235Q23.6003 -7.61583 24.4988 -8.962Q25.3974 -10.3082 27.0996 -10.3082ZM35.9361 -9.22309Q34.8782 -9.22309 34.3458 -8.1821Q33.8135 -7.14111 33.8135 -5.05235Q33.8135 -2.97038 34.3458 -1.92939Q34.8782 -0.888401 35.9361 -0.888401Q37.0009 -0.888401 37.5332 -1.92939Q38.0656 -2.97038 38.0656 -5.05235Q38.0656 -7.14111 37.5332 -8.1821Q37.0009 -9.22309 35.9361 -9.22309ZM35.9361 -10.3082Q37.6383 -10.3082 38.5369 -8.962Q39.4355 -7.61583 39.4355 -5.05235Q39.4355 -2.49566 38.5369 -1.1495Q37.6383 0.196669 35.9361 0.196669Q34.2339 0.196669 33.3354 -1.1495Q32.4368 -2.49566 32.4368 -5.05235Q32.4368 -7.61583 33.3354 -8.962Q34.2339 -10.3082 35.9361 -10.3082ZM44.7727 -9.22309Q43.7147 -9.22309 43.1824 -8.1821Q42.65 -7.14111 42.65 -5.05235Q42.65 -2.97038 43.1824 -1.92939Q43.7147 -0.888401 44.7727 -0.888401Q45.8374 -0.888401 46.3698 -1.92939Q46.9021 -2.97038 46.9021 -5.05235Q46.9021 -7.14111 46.3698 -8.1821Q45.8374 -9.22309 44.7727 -9.22309ZM44.7727 -10.3082Q46.4749 -10.3082 47.3735 -8.962Q48.272 -7.61583 48.272 -5.05235Q48.272 -2.49566 47.3735 -1.1495Q46.4749 0.196669 44.7727 0.196669Q43.0705 0.196669 42.1719 -1.1495Q41.2733 -2.49566 41.2733 -5.05235Q41.2733 -7.61583 42.1719 -8.962Q43.0705 -10.3082 44.7727 -10.3082ZM53.6092 -9.22309Q52.5513 -9.22309 52.0189 -8.1821Q51.4865 -7.14111 51.4865 -5.05235Q51.4865 -2.97038 52.0189 -1.92939Q52.5513 -0.888401 53.6092 -0.888401Q54.6739 -0.888401 55.2063 -1.92939Q55.7387 -2.97038 55.7387 -5.05235Q55.7387 -7.14111 55.2063 -8.1821Q54.6739 -9.22309 53.6092 -9.22309ZM53.6092 -10.3082Q55.3114 -10.3082 56.21 -8.962Q57.1086 -7.61583 57.1086 -5.05235Q57.1086 -2.49566 56.21 -1.1495Q55.3114 0.196669 53.6092 0.196669Q51.907 0.196669 51.0084 -1.1495Q50.1099 -2.49566 50.1099 -5.05235Q50.1099 -7.61583 51.0084 -8.962Q51.907 -10.3082 53.6092 -10.3082Z" fill="#262626" transform="translate(90.27777777777777,530.2799452803278) translate(-58.03086853027344,0)" />
<line x1="95.13888888888889" y1="470.4599589602458" x2="100.4" y2="470.4599589602458" stroke="#262626" stroke-width="1.1111111111111112" />
<path d="M0.678168 -4.36062L4.3335 -4.36062L4.3335 -3.24843L0.678168 -3.24843L0.678168 -4.36062ZM6.73421 -1.15289L8.97217 -1.15289L8.97217 -8.87722L6.53754 -8.38894L6.53754 -9.63677L8.9586 -10.1251L10.3285 -10.1251L10.3285 -1.15289L12.5665 -1.15289L12.5665 0L6.73421 0L6.73421 -1.15289ZM18.2631 -9.22309Q17.2051 -9.22309 16.6728 -8.1821Q16.1404 -7.14111 16.1404 -5.05235Q16.1404 -2.97038 16.6728 -1.92939Q17.2051 -0.888401 18.2631 -0.888401Q19.3278 -0.888401 19.8602 -1.92939Q20.3925 -2.97038 20.3925 -5.05235Q20.3925 -7.14111 19.8602 -8.1821Q19.3278 -9.22309 18.2631 -9.22309ZM18.2631 -10.3082Q19.9653 -10.3082 20.8639 -8.962Q21.7624 -7.61583 21.7624 -5.05235Q21.7624 -2.49566 20.8639 -1.1495Q19.9653 0.196669 18.2631 0.196669Q16.5609 0.196669 15.6623 -1.1495Q14.7637 -2.49566 14.7637 -5.05235Q14.7637 -7.61583 15.6623 -8.962Q16.5609 -10.3082 18.2631 -10.3082ZM27.0996 -9.22309Q26.0417 -9.22309 25.5093 -8.1821Q24.9769 -7.14111 24.9769 -5.05235Q24.9769 -2.97038 25.5093 -1.92939Q26.0417 -0.888401 27.0996 -0.888401Q28.1643 -0.888401 28.6967 -1.92939Q29.2291 -2.97038 29.2291 -5.05235Q29.2291 -7.14111 28.6967 -8.1821Q28.1643 -9.22309 27.0996 -9.22309ZM27.0996 -10.3082Q28.8018 -10.3082 29.7004 -8.962Q30.599 -7.61583 30.599 -5.05235Q30.599 -2.49566 29.7004 -1.1495Q28.8018 0.196669 27.0996 0.196669Q25.3974 0.196669 24.4988 -1.1495Q23.6003 -2.49566 23.6003 -5.05235Q23.6003 -7.61583 24.4988 -8.962Q25.3974 -10.3082 27.0996 -10.3082ZM35.9361 -9.22309Q34.8782 -9.22309 34.3458 -8.1821Q33.8135 -7.14111 33.8135 -5.05235Q33.8135 -2.97038 34.3458 -1.92939Q34.8782 -0.888401 35.9361 -0.888401Q37.0009 -0.888401 37.5332 -1.92939Q38.0656 -2.97038 38.0656 -5.05235Q38.0656 -7.14111 37.5332 -8.1821Q37.0009 -9.22309 35.9361 -9.22309ZM35.9361 -10.3082Q37.6383 -10.3082 38.5369 -8.962Q39.4355 -7.61583 39.4355 -5.05235Q39.4355 -2.49566 38.5369 -1.1495Q37.6383 0.196669 35.9361 0.196669Q34.2339 0.196669 33.3354 -1.1495Q32.4368 -2.49566 32.4368 -5.05235Q32.4368 -7.61583 33.3354 -8.962Q34.2339 -10.3082 35.9361 -10.3082ZM44.7727 -9.22309Q43.7147 -9.22309 43.1824 -8.1821Q42.65 -7.14111 42.65 -5.05235Q42.65 -2.97038 43.1824 -1.92939Q43.7147 -0.888401 44.7727 -0.888401Q45.8374 -0.888401 46.3698 -1.92939Q46.9021 -2.97038 46.9021 -5.05235Q46.9021 -7.14111 46.3698 -8.1821Q45.8374 -9.22309 44.7727 -9.22309ZM44.7727 -10.3082Q46.4749 -10.3082 47.3735 -8.962Q48.272 -7.61583 48.272 -5.05235Q48.272 -2.49566 47.3735 -1.1495Q46.4749 0.196669 44.7727 0.196669Q43.0705 0.196669 42.1719 -1.1495Q41.2733 -2.49566 41.2733 -5.05235Q41.2733 -7.61583 42.1719 -8.962Q43.0705 -10.3082 44.7727 -10.3082Z" fill="#262626" transform="translate(90.27777777777777,474.4599589602458) translate(-49.1943359375,0)" />
<line x1="95.13888888888889" y1="414.6399726401639" x2="100.4" y2="414.6399726401639" stroke="#262626" stroke-width="1.1111111111111112" />
<path d="M0.678168 -4.36062L4.3335 -4.36062L4.3335 -3.24843L0.678168 -3.24843L0.678168 -4.36062ZM6.73421 -1.15289L8.97217 -1.15289L8.97217 -8.87722L6.53754 -8.38894L6.53754 -9.63677L8.9586 -10.1251L10.3285 -10.1251L10.3285 -1.15289L12.5665 -1.15289L12.5665 0L6.73421 0L6.73421 -1.15289ZM18.2631 -9.22309Q17.2051 -9.22309 16.6728 -8.1821Q16.1404 -7.14111 16.1404 -5.05235Q16.1404 -2.97038 16.6728 -1.92939Q17.2051 -0.888401 18.2631 -0.888401Q19.3278 -0.888401 19.8602 -1.92939Q20.3925 -2.97038 20.3925 -5.05235Q20.3925 -7.14111 19.8602 -8.1821Q19.3278 -9.22309 18.2631 -9.22309ZM18.2631 -10.3082Q19.9653 -10.3082 20.8639 -8.962Q21.7624 -7.61583 21.7624 -5.05235Q21.7624 -2.49566 20.8639 -1.1495Q19.9653 0.196669 18.2631 0.196669Q16.5609 0.196669 15.6623 -1.1495Q14.7637 -2.49566 14.7637 -5.05235Q14.7637 -7.61583 15.6623 -8.962Q16.5609 -10.3082 18.2631 -10.3082ZM27.0996 -9.22309Q26.0417 -9.22309 25.5093 -8.1821Q24.9769 -7.14111 24.9769 -5.05235Q24.9769 -2.97038 25.5093 -1.92939Q26.0417 -0.888401 27.0996 -0.888401Q28.1643 -0.888401 28.6967 -1.92939Q29.2291 -2.97038 29.2291 -5.05235Q29.2291 -7.14111 28.6967 -8.1821Q28.1643 -9.22309 27.0996 -9.22309ZM27.0996 -10.3082Q28.8018 -10.3082 29.7004 -8.962Q30.599 -7.61583 30.599 -5.05235Q30.599 -2.49566 29.7004 -1.1495Q28.8018 0.196669 27.0996 0.196669Q25.3974 0.196669 24.4988 -1.1495Q23.6003 -2.49566 23.6003 -5.05235Q23.6003 -7.61583 24.4988 -8.962Q25.3974 -10.3082 27.0996 -10.3082ZM35.9361 -9.22309Q34.8782 -9.22309 34.3458 -8.1821Q33.8135 -7.14111 33.8135 -5.05235Q33.8135 -2.97038 34.3458 -1.92939Q34.8782 -0.888401 35.9361 -0.888401Q37.0009 -0.888401 37.5332 -1.92939Q38.0656 -2.97038 38.0656 -5.05235Q38.0656 -7.14111 37.5332 -8.1821Q37.0009 -9.22309 35.9361 -9.22309ZM35.9361 -10.3082Q37.6383 -10.3082 38.5369 -8.962Q39.4355 -7.61583 39.4355 -5.05235Q39.4355 -2.49566 38.5369 -1.1495Q37.6383 0.196669 35.9361 0.196669Q34.2339 0.196669 33.3354 -1.1495Q32.4368 -2.49566 32.4368 -5.05235Q32.4368 -7.61583 33.3354 -8.962Q34.2339 -10.3082 35.9361 -10.3082Z" fill="#262626" transform="translate(90.27777777777777,418.6399726401639) translate(-40.35780334472656,0)" />
<line x1="95.13888888888889" y1="358.81998632008197" x2="100.4" y2="358.81998632008197" stroke="#262626" stroke-width="1.1111111111111112" />
<path d="M0.678168 -4.36062L4.3335 -4.36062L4.3335 -3.24843L0.678168 -3.24843L0.678168 -4.36062ZM6.73421 -1.15289L8.97217 -1.15289L8.97217 -8.87722L6.53754 -8.38894L6.53754 -9.63677L8.9586 -10.1251L10.3285 -10.1251L10.3285 -1.15289L12.5665 -1.15289L12.5665 0L6.73421 0L6.73421 -1.15289ZM18.2631 -9.22309Q17.2051 -9.22309 16.6728 -8.1821Q16.1404 -7.14111 16.1404 -5.05235Q16.1404 -2.97038 16.6728 -1.92939Q17.2051 -0.888401 18.2631 -0.888401Q19.3278 -0.888401 19.8602 -1.92939Q20.3925 -2.97038 20.3925 -5.05235Q20.3925 -7.14111 19.8602 -8.1821Q19.3278 -9.22309 18.2631 -9.22309ZM18.2631 -10.3082Q19.9653 -10.3082 20.8639 -8.962Q21.7624 -7.61583 21.7624 -5.05235Q21.7624 -2.49566 20.8639 -1.1495Q19.9653 0.196669 18.2631 0.196669Q16.5609 0.196669 15.6623 -1.1495Q14.7637 -2.49566 14.7637 -5.05235Q14.7637 -7.61583 15.6623 -8.962Q16.5609 -10.3082 18.2631 -10.3082ZM27.0996 -9.22309Q26.0417 -9.22309 25.5093 -8.1821Q24.9769 -7.14111 24.9769 -5.05235Q24.9769 -2.97038 25.5093 -1.92939Q26.0417 -0.888401 27.0996 -0.888401Q28.1643 -0.888401 28.6967 -1.92939Q29.2291 -2.97038 29.2291 -5.05235Q29.2291 -7.14111 28.6967 -8.1821Q28.1643 -9.22309 27.0996 -9.22309ZM27.0996 -10.3082Q28.8018 -10.3082 29.7004 -8.962Q30.599 -7.61583 30.599 -5.05235Q30.599 -2.49566 29.7004 -1.1495Q28.8018 0.196669 27.0996 0.196669Q25.3974 0.196669 24.4988 -1.1495Q23.6003 -2.49566 23.6003 -5.05235Q23.6003 -7.61583 24.4988 -8.962Q25.3974 -10.3082 27.0996 -10.3082Z" fill="#262626" transform="translate(90.27777777777777,362.81998632008197) translate(-31.521268844604492,0)" />
<line x1="95.13888888888889" y1="303" x2="100.4" y2="303" stroke="#262626" stroke-width="1.1111111111111112" />
<path d="M4.41488 -9.22309Q3.35693 -9.22309 2.82457 -8.1821Q2.29221 -7.14111 2.29221 -5.05235Q2.29221 -2.97038 2.82457 -1.92939Q3.35693 -0.888401 4.41488 -0.888401Q5.4796 -0.888401 6.01196 -1.92939Q6.54433 -2.97038 6.54433 -5.05235Q6.54433 -7.14111 6.01196 -8.1821Q5.4796 -9.22309 4.41488 -9.22309ZM4.41488 -10.3082Q6.11708 -10.3082 7.01565 -8.962Q7.91422 -7.61583 7.91423 -5.05235Q7.91423 -2.49566 7.01565 -1.1495Q6.11708 0.196669 4.41488 0.196669Q2.71267 0.196669 1.8141 -1.1495Q0.915527 -2.49566 0.915527 -5.05235Q0.915527 -7.61583 1.8141 -8.962Q2.71267 -10.3082 4.41488 -10.3082Z" fill="#262626" transform="translate(90.27777777777777,307) translate(-8.83653450012207,0)" />
<line x1="95.13888888888889" y1="247.18001367991806" x2="100.4" y2="247.18001367991806" stroke="#262626" stroke-width="1.1111111111111112" />
<path d="M1.72255 -1.15289L3.9605 -1.15289L3.9605 -8.87722L1.52588 -8.38894L1.52588 -9.63677L3.94694 -10.1251L5.31684 -10.1251L5.31684 -1.15289L7.5548 -1.15289L7.5548 0L1.72255 0L1.72255 -1.15289ZM13.2514 -9.22309Q12.1935 -9.22309 11.6611 -8.1821Q11.1287 -7.14111 11.1287 -5.05235Q11.1287 -2.97038 11.6611 -1.92939Q12.1935 -0.888401 13.2514 -0.888401Q14.3161 -0.888401 14.8485 -1.92939Q15.3809 -2.97038 15.3809 -5.05235Q15.3809 -7.14111 14.8485 -8.1821Q14.3161 -9.22309 13.2514 -9.22309ZM13.2514 -10.3082Q14.9536 -10.3082 15.8522 -8.962Q16.7508 -7.61583 16.7508 -5.05235Q16.7508 -2.49566 15.8522 -1.1495Q14.9536 0.196669 13.2514 0.196669Q11.5492 0.196669 10.6506 -1.1495Q9.75206 -2.49566 9.75206 -5.05235Q9.75206 -7.61583 10.6506 -8.962Q11.5492 -10.3082 13.2514 -10.3082ZM22.0879 -9.22309Q21.03 -9.22309 20.4976 -8.1821Q19.9653 -7.14111 19.9653 -5.05235Q19.9653 -2.97038 20.4976 -1.92939Q21.03 -0.888401 22.0879 -0.888401Q23.1527 -0.888401 23.685 -1.92939Q24.2174 -2.97038 24.2174 -5.05235Q24.2174 -7.14111 23.685 -8.1821Q23.1527 -9.22309 22.0879 -9.22309ZM22.0879 -10.3082Q23.7901 -10.3082 24.6887 -8.962Q25.5873 -7.61583 25.5873 -5.05235Q25.5873 -2.49566 24.6887 -1.1495Q23.7901 0.196669 22.0879 0.196669Q20.3857 0.196669 19.4872 -1.1495Q18.5886 -2.49566 18.5886 -5.05235Q18.5886 -7.61583 19.4872 -8.962Q20.3857 -10.3082 22.0879 -10.3082Z" fill="#262626" transform="translate(90.27777777777777,251.18001367991806) translate(-26.50960350036621,0)" />
<line x1="95.13888888888889" y1="191.36002735983612" x2="100.4" y2="191.36002735983612" stroke="#262626" stroke-width="1.1111111111111112" />
<path d="M1.72255 -1.15289L3.9605 -1.15289L3.9605 -8.87722L1.52588 -8.38894L1.52588 -9.63677L3.94694 -10.1251L5.31684 -10.1251L5.31684 -1.15289L7.5548 -1.15289L7.5548 0L1.72255 0L1.72255 -1.15289ZM13.2514 -9.22309Q12.1935 -9.22309 11.6611 -8.1821Q11.1287 -7.14111 11.1287 -5.05235Q11.1287 -2.97038 11.6611 -1.92939Q12.1935 -0.888401 13.2514 -0.888401Q14.3161 -0.888401 14.8485 -1.92939Q15.3809 -2.97038 15.3809 -5.05235Q15.3809 -7.14111 14.8485 -8.1821Q14.3161 -9.22309 13.2514 -9.22309ZM13.2514 -10.3082Q14.9536 -10.3082 15.8522 -8.962Q16.7508 -7.61583 16.7508 -5.05235Q16.7508 -2.49566 15.8522 -1.1495Q14.9536 0.196669 13.2514 0.196669Q11.5492 0.196669 10.6506 -1.1495Q9.75206 -2.49566 9.75206 -5.05235Q9.75206 -7.61583 10.6506 -8.962Q11.5492 -10.3082 13.2514 -10.3082ZM22.0879 -9.22309Q21.03 -9.22309 20.4976 -8.1821Q19.9653 -7.14111 19.9653 -5.05235Q19.9653 -2.97038 20.4976 -1.92939Q21.03 -0.888401 22.0879 -0.888401Q23.1527 -0.888401 23.685 -1.92939Q24.2174 -2.97038 24.2174 -5.05235Q24.2174 -7.14111 23.685 -8.1821Q23.1527 -9.22309 22.0879 -9.22309ZM22.0879 -10.3082Q23.7901 -10.3082 24.6887 -8.962Q25.5873 -7.61583 25.5873 -5.05235Q25.5873 -2.49566 24.6887 -1.1495Q23.7901 0.196669 22.0879 0.196669Q20.3857 0.196669 19.4872 -1.1495Q18.5886 -2.49566 18.5886 -5.05235Q18.5886 -7.61583 19.4872 -8.962Q20.3857 -10.3082 22.0879 -10.3082ZM30.9245 -9.22309Q29.8665 -9.22309 29.3342 -8.1821Q28.8018 -7.14111 28.8018 -5.05235Q28.8018 -2.97038 29.3342 -1.92939Q29.8665 -0.888401 30.9245 -0.888401Q31.9892 -0.888401 32.5216 -1.92939Q33.0539 -2.97038 33.0539 -5.05235Q33.0539 -7.14111 32.5216 -8.1821Q31.9892 -9.22309 30.9245 -9.22309ZM30.9245 -10.3082Q32.6267 -10.3082 33.5253 -8.962Q34.4238 -7.61583 34.4238 -5.05235Q34.4238 -2.49566 33.5253 -1.1495Q32.6267 0.196669 30.9245 0.196669Q29.2223 0.196669 28.3237 -1.1495Q27.4251 -2.49566 27.4251 -5.05235Q27.4251 -7.61583 28.3237 -8.962Q29.2223 -10.3082 30.9245 -10.3082Z" fill="#262626" transform="translate(90.27777777777777,195.36002735983612) translate(-35.34613800048828,0)" />
<line x1="95.13888888888889" y1="135.5400410397542" x2="100.4" y2="135.5400410397542" stroke="#262626" stroke-width="1.1111111111111112" />
<path d="M1.72255 -1.15289L3.9605 -1.15289L3.9605 -8.87722L1.52588 -8.38894L1.52588 -9.63677L3.94694 -10.1251L5.31684 -10.1251L5.31684 -1.15289L7.5548 -1.15289L7.5548 0L1.72255 0L1.72255 -1.15289ZM13.2514 -9.22309Q12.1935 -9.22309 11.6611 -8.1821Q11.1287 -7.14111 11.1287 -5.05235Q11.1287 -2.97038 11.6611 -1.92939Q12.1935 -0.888401 13.2514 -0.888401Q14.3161 -0.888401 14.8485 -1.92939Q15.3809 -2.97038 15.3809 -5.05235Q15.3809 -7.14111 14.8485 -8.1821Q14.3161 -9.22309 13.2514 -9.22309ZM13.2514 -10.3082Q14.9536 -10.3082 15.8522 -8.962Q16.7508 -7.61583 16.7508 -5.05235Q16.7508 -2.49566 15.8522 -1.1495Q14.9536 0.196669 13.2514 0.196669Q11.5492 0.196669 10.6506 -1.1495Q9.75206 -2.49566 9.75206 -5.05235Q9.75206 -7.61583 10.6506 -8.962Q11.5492 -10.3082 13.2514 -10.3082ZM22.0879 -9.22309Q21.03 -9.22309 20.4976 -8.1821Q19.9653 -7.14111 19.9653 -5.05235Q19.9653 -2.97038 20.4976 -1.92939Q21.03 -0.888401 22.0879 -0.888401Q23.1527 -0.888401 23.685 -1.92939Q24.2174 -2.97038 24.2174 -5.05235Q24.2174 -7.14111 23.685 -8.1821Q23.1527 -9.22309 22.0879 -9.22309ZM22.0879 -10.3082Q23.7901 -10.3082 24.6887 -8.962Q25.5873 -7.61583 25.5873 -5.05235Q25.5873 -2.49566 24.6887 -1.1495Q23.7901 0.196669 22.0879 0.196669Q20.3857 0.196669 19.4872 -1.1495Q18.5886 -2.49566 18.5886 -5.05235Q18.5886 -7.61583 19.4872 -8.962Q20.3857 -10.3082 22.0879 -10.3082ZM30.9245 -9.22309Q29.8665 -9.22309 29.3342 -8.1821Q28.8018 -7.14111 28.8018 -5.05235Q28.8018 -2.97038 29.3342 -1.92939Q29.8665 -0.888401 30.9245 -0.888401Q31.9892 -0.888401 32.5216 -1.92939Q33.0539 -2.97038 33.0539 -5.05235Q33.0539 -7.14111 32.5216 -8.1821Q31.9892 -9.22309 30.9245 -9.22309ZM30.9245 -10.3082Q32.6267 -10.3082 33.5253 -8.962Q34.4238 -7.61583 34.4238 -5.05235Q34.4238 -2.49566 33.5253 -1.1495Q32.6267 0.196669 30.9245 0.196669Q29.2223 0.196669 28.3237 -1.1495Q27.4251 -2.49566 27.4251 -5.05235Q27.4251 -7.61583 28.3237 -8.962Q29.2223 -10.3082 30.9245 -10.3082ZM39.761 -9.22309Q38.7031 -9.22309 38.1707 -8.1821Q37.6383 -7.14111 37.6383 -5.05235Q37.6383 -2.97038 38.1707 -1.92939Q38.7031 -0.888401 39.761 -0.888401Q40.8257 -0.888401 41.3581 -1.92939Q41.8905 -2.97038 41.8905 -5.05235Q41.8905 -7.14111 41.3581 -8.1821Q40.8257 -9.22309 39.761 -9.22309ZM39.761 -10.3082Q41.4632 -10.3082 42.3618 -8.962Q43.2604 -7.61583 43.2604 -5.05235Q43.2604 -2.49566 42.3618 -1.1495Q41.4632 0.196669 39.761 0.196669Q38.0588 0.196669 37.1602 -1.1495Q36.2617 -2.49566 36.2617 -5.05235Q36.2617 -7.61583 37.1602 -8.962Q38.0588 -10.3082 39.761 -10.3082Z" fill="#262626" transform="translate(90.27777777777777,139.5400410397542) translate(-44.18267059326172,0)" />
<line x1="95.13888888888889" y1="79.72005471967225" x2="100.4" y2="79.72005471967225" stroke="#262626" stroke-width="1.1111111111111112" />
<path d="M1.72255 -1.15289L3.9605 -1.15289L3.9605 -8.87722L1.52588 -8.38894L1.52588 -9.63677L3.94694 -10.1251L5.31684 -10.1251L5.31684 -1.15289L7.5548 -1.15289L7.5548 0L1.72255 0L1.72255 -1.15289ZM13.2514 -9.22309Q12.1935 -9.22309 11.6611 -8.1821Q11.1287 -7.14111 11.1287 -5.05235Q11.1287 -2.97038 11.6611 -1.92939Q12.1935 -0.888401 13.2514 -0.888401Q14.3161 -0.888401 14.8485 -1.92939Q15.3809 -2.97038 15.3809 -5.05235Q15.3809 -7.14111 14.8485 -8.1821Q14.3161 -9.22309 13.2514 -9.22309ZM13.2514 -10.3082Q14.9536 -10.3082 15.8522 -8.962Q16.7508 -7.61583 16.7508 -5.05235Q16.7508 -2.49566 15.8522 -1.1495Q14.9536 0.196669 13.2514 0.196669Q11.5492 0.196669 10.6506 -1.1495Q9.75206 -2.49566 9.75206 -5.05235Q9.75206 -7.61583 10.6506 -8.962Q11.5492 -10.3082 13.2514 -10.3082ZM22.0879 -9.22309Q21.03 -9.22309 20.4976 -8.1821Q19.9653 -7.14111 19.9653 -5.05235Q19.9653 -2.97038 20.4976 -1.92939Q21.03 -0.888401 22.0879 -0.888401Q23.1527 -0.888401 23.685 -1.92939Q24.2174 -2.97038 24.2174 -5.05235Q24.2174 -7.14111 23.685 -8.1821Q23.1527 -9.22309 22.0879 -9.22309ZM22.0879 -10.3082Q23.7901 -10.3082 24.6887 -8.962Q25.5873 -7.61583 25.5873 -5.05235Q25.5873 -2.49566 24.6887 -1.1495Q23.7901 0.196669 22.0879 0.196669Q20.3857 0.196669 19.4872 -1.1495Q18.5886 -2.49566 18.5886 -5.05235Q18.5886 -7.61583 19.4872 -8.962Q20.3857 -10.3082 22.0879 -10.3082ZM30.9245 -9.22309Q29.8665 -9.22309 29.3342 -8.1821Q28.8018 -7.14111 28.8018 -5.05235Q28.8018 -2.97038 29.3342 -1.92939Q29.8665 -0.888401 30.9245 -0.888401Q31.9892 -0.888401 32.5216 -1.92939Q33.0539 -2.97038 33.0539 -5.05235Q33.0539 -7.14111 32.5216 -8.1821Q31.9892 -9.22309 30.9245 -9.22309ZM30.9245 -10.3082Q32.6267 -10.3082 33.5253 -8.962Q34.4238 -7.61583 34.4238 -5.05235Q34.4238 -2.49566 33.5253 -1.1495Q32.6267 0.196669 30.9245 0.196669Q29.2223 0.196669 28.3237 -1.1495Q27.4251 -2.49566 27.4251 -5.05235Q27.4251 -7.61583 28.3237 -8.962Q29.2223 -10.3082 30.9245 -10.3082ZM39.761 -9.22309Q38.7031 -9.22309 38.1707 -8.1821Q37.6383 -7.14111 37.6383 -5.05235Q37.6383 -2.97038 38.1707 -1.92939Q38.7031 -0.888401 39.761 -0.888401Q40.8257 -0.888401 41.3581 -1.92939Q41.8905 -2.97038 41.8905 -5.05235Q41.8905 -7.14111 41.3581 -8.1821Q40.8257 -9.22309 39.761 -9.22309ZM39.761 -10.3082Q41.4632 -10.3082 42.3618 -8.962Q43.2604 -7.61583 43.2604 -5.05235Q43.2604 -2.49566 42.3618 -1.1495Q41.4632 0.196669 39.761 0.196669Q38.0588 0.196669 37.1602 -1.1495Q36.2617 -2.49566 36.2617 -5.05235Q36.2617 -7.61583 37.1602 -8.962Q38.0588 -10.3082 39.761 -10.3082ZM48.5975 -9.22309Q47.5396 -9.22309 47.0072 -8.1821Q46.4749 -7.14111 46.4749 -5.05235Q46.4749 -2.97038 47.0072 -1.92939Q47.5396 -0.888401 48.5975 -0.888401Q49.6623 -0.888401 50.1946 -1.92939Q50.727 -2.97038 50.727 -5.05235Q50.727 -7.14111 50.1946 -8.1821Q49.6623 -9.22309 48.5975 -9.22309ZM48.5975 -10.3082Q50.2998 -10.3082 51.1983 -8.962Q52.0969 -7.61583 52.0969 -5.05235Q52.0969 -2.49566 51.1983 -1.1495Q50.2998 0.196669 48.5975 0.196669Q46.8953 0.196669 45.9968 -1.1495Q45.0982 -2.49566 45.0982 -5.05235Q45.0982 -7.61583 45.9968 -8.962Q46.8953 -10.3082 48.5975 -10.3082Z" fill="#262626" transform="translate(90.27777777777777,83.72005471967225) translate(-53.019203186035156,0)" />
<g class="series" aria-label="x³">
<polyline points="151.66666666666663,531.6894608807164 156.83333333333331,530.2201798762613 162,528.7206022931068 167.16666666666666,527.1894523473482 172.33333333333331,525.6253719341418 177.5,524.0269133893019 182.66666666666666,522.3925314374012 187.83333333333331,520.7205742141317 193,519.0092732321987 198.16666666666666,517.256732137952 203.33333333333331,515.4609140795504 208.5,513.6196274756753 213.66666666666666,511.7305099354386 218.83333333333331,509.7910100335638 224,507.79836658813593 229.16666666666666,505.7495850186423 234.33333333333331,503.6414102762958 239.5,501.47029573243026 244.66666666666666,499.23236727838434 249.83333333333331,496.92338172428805 255,494.53867837457955 260.16666666666663,492.07312239162286 265.3333333333333,489.52103821747625 270.5,486.87613088316505 275.66666666666663,484.13139246095284 280.8333333333333,481.27899016102316 286,478.3101315734135 291.16666666666663,475.2149012144485 296.3333333333333,471.9820607177079 301.5,468.59880251250536 306.66666666666663,465.0504433598571 311.8333333333333,461.32003921574534 317,457.3878958684427 322.16666666666663,453.23093955660255 327.3333333333333,448.8218965586911 332.5,444.1282076548863 337.66666666666663,439.11056749778294 342.8333333333333,433.7209217412596 348,427.89966085372026 353.1666666666667,421.5715899980146 358.3333333333333,414.6399726401639 363.5,406.9774251487494 368.6666666666667,398.41142583899784 373.8333333333333,388.7000967780897 379,377.489190134027 384.1666666666667,364.2295019204706 389.3333333333333,338.72479124485244 394.5,318.0713963064221 399.6666666666667,307.46559890560656 404.8333333333333,303.5581998632008 410,303 415.1666666666667,302.4418001367992 420.3333333333333,298.53440109439344 425.5,287.9286036935779 430.6666666666667,267.27520875514756 435.8333333333333,241.77049807952937 441,228.510809865973 446.1666666666667,217.2999032219103 451.3333333333333,207.58857416100216 456.5,199.02257485125062 461.6666666666667,191.36002735983612 466.8333333333333,184.42841000198538 472,178.10033914627974 477.1666666666667,172.2790782587404 482.33333333333337,166.88943250221706 487.5,161.8717923451137 492.6666666666667,157.1781034413089 497.83333333333337,152.76906044339745 503,148.61210413155734 508.1666666666667,144.67996078425466 513.3333333333334,140.94955664014284 518.5,137.40119748749467 523.6666666666666,134.01793928229213 528.8333333333334,130.7850987855515 534,127.68986842658649 539.1666666666667,124.72100983897684 544.3333333333334,121.86860753904716 549.5,119.12386911683492 554.6666666666667,116.47896178252375 559.8333333333334,113.92687760837711 565,111.46132162542045 570.1666666666667,109.07661827571195 575.3333333333334,106.76763272161563 580.5,104.52970426756971 585.6666666666667,102.3585897237042 590.8333333333334,100.25041498135775 596,98.20163341186407 601.1666666666667,96.20898996643623 606.3333333333334,94.26949006456138 611.5,92.38037252432474 616.6666666666667,90.5390859204496 621.8333333333334,88.74326786204807 627,86.99072676780139 632.1666666666667,85.27942578586826 637.3333333333334,83.60746856259885 642.5,81.97308661069809 647.6666666666667,80.37462806585825 652.8333333333334,78.81054765265179 658,77.27939770689323 663.1666666666667,75.77982012373866 668.3333333333334,74.31053911928359" fill="none" stroke="#0000FF" stroke-width="1.5" />
</g>
<g class="spine">
<line x1="100" y1="534" x2="720" y2="534" stroke="#262626" stroke-width="0.8" />
</g>
<g class="spine">
<line x1="100" y1="72" x2="720" y2="72" stroke="#262626" stroke-width="0.8" />
</g>
<g class="spine">
<line x1="100" y1="72" x2="100" y2="534" stroke="#262626" stroke-width="0.8" />
</g>
<g class="spine">
<line x1="720" y1="72" x2="720" y2="534" stroke="#262626" stroke-width="0.8" />
</g>
<rect x="641.3239464230007" y="82" width="68.67605357699924" height="25.72222222222222" fill="#FFFFFF" fill-opacity="0.8" stroke="#CCCCCC" stroke-width="0.5" />
<g class="legend" aria-label="Chart legend">
<line x1="649.3239464230007" y1="94.86111111111111" x2="677.1017242007786" y2="94.86111111111111" stroke="#0000FF" stroke-width="1.5" />
<path d="M7.62261 -7.59549L4.87603 -3.89947L7.76503 0L6.2934 0L4.08257 -2.98394L1.87174 0L0.400119 0L3.35015 -3.97407L0.651042 -7.59549L2.12267 -7.59549L4.13683 -4.88959L6.15099 -7.59549L7.62261 -7.59549ZM11.773 -7.59549Q12.3969 -7.47342 12.7394 -7.10381Q13.0819 -6.73421 13.0819 -6.17811Q13.0819 -5.33719 12.4376 -4.88281Q11.7933 -4.42844 10.593 -4.42844Q10.2064 -4.42844 9.78258 -4.49965Q9.35872 -4.57086 8.88401 -4.70649L8.88401 -5.52707Q9.23665 -5.34397 9.64016 -5.25581Q10.0437 -5.16764 10.498 -5.16764Q11.2373 -5.16764 11.6442 -5.43552Q12.0511 -5.7034 12.0511 -6.17811Q12.0511 -6.67996 11.6747 -6.93766Q11.2983 -7.19537 10.5659 -7.19537L9.98264 -7.19537L9.98264 -7.92779L10.6201 -7.92779Q11.2576 -7.92779 11.5865 -8.14141Q11.9154 -8.35503 11.9154 -8.76194Q11.9154 -9.15527 11.5763 -9.36211Q11.2373 -9.56896 10.593 -9.56896Q10.3217 -9.56896 9.97586 -9.50792Q9.62999 -9.44689 9.08068 -9.29091L9.08068 -10.0708Q9.57574 -10.1861 10.0098 -10.2471Q10.4438 -10.3082 10.8168 -10.3082Q11.7933 -10.3082 12.3664 -9.90804Q12.9395 -9.50792 12.9395 -8.83653Q12.9395 -8.3686 12.6343 -8.04308Q12.3291 -7.71756 11.773 -7.59549Z" fill="#262626" transform="translate(688.2128353118896,98.72222222222223)" />
</g>
</svg>
