<svg xmlns="http://www.w3.org/2000/svg" viewBox="0 0 700 600" width="700" height="600" role="img" aria-labelledby="chart-title">
<title id="chart-title">3D Scatter — Paraboloid with noise</title>
<rect x="0" y="0" width="700" height="600" fill="#FFFFFF" />
<text x="350" y="25" font-family="sans-serif" font-size="17" text-anchor="middle" font-weight="bold" fill="#000000">3D Scatter — Paraboloid with noise</text>
<rect x="60" y="70" width="620" height="480" fill="#FFFFFF" />
<line x1="88.18181818181819" y1="70" x2="88.18181818181819" y2="550" stroke="#B0B0B0" stroke-width="0.8" />
<line x1="200.90909090909093" y1="70" x2="200.90909090909093" y2="550" stroke="#B0B0B0" stroke-width="0.8" />
<line x1="313.6363636363636" y1="70" x2="313.6363636363636" y2="550" stroke="#B0B0B0" stroke-width="0.8" />
<line x1="426.3636363636364" y1="70" x2="426.3636363636364" y2="550" stroke="#B0B0B0" stroke-width="0.8" />
<line x1="539.0909090909091" y1="70" x2="539.0909090909091" y2="550" stroke="#B0B0B0" stroke-width="0.8" />
<line x1="651.8181818181818" y1="70" x2="651.8181818181818" y2="550" stroke="#B0B0B0" stroke-width="0.8" />
<line x1="60" y1="528.1818181818181" x2="680" y2="528.1818181818181" stroke="#B0B0B0" stroke-width="0.8" />
<line x1="60" y1="440.9090909090909" x2="680" y2="440.9090909090909" stroke="#B0B0B0" stroke-width="0.8" />
<line x1="60" y1="353.6363636363636" x2="680" y2="353.6363636363636" stroke="#B0B0B0" stroke-width="0.8" />
<line x1="60" y1="266.3636363636364" x2="680" y2="266.3636363636364" stroke="#B0B0B0" stroke-width="0.8" />
<line x1="60" y1="179.09090909090907" x2="680" y2="179.09090909090907" stroke="#B0B0B0" stroke-width="0.8" />
<line x1="60" y1="91.81818181818181" x2="680" y2="91.81818181818181" stroke="#B0B0B0" stroke-width="0.8" />
<line x1="88.18181818181819" y1="549.6" x2="88.18181818181819" y2="553.5" stroke="#000000" stroke-width="0.8" />
<text x="88.18181818181819" y="569.5" font-family="sans-serif" font-size="13" text-anchor="middle" fill="#000000">0</text>
<line x1="200.90909090909093" y1="549.6" x2="200.90909090909093" y2="553.5" stroke="#000000" stroke-width="0.8" />
<text x="200.90909090909093" y="569.5" font-family="sans-serif" font-size="13" text-anchor="middle" fill="#000000">0.2</text>
<line x1="313.6363636363636" y1="549.6" x2="313.6363636363636" y2="553.5" stroke="#000000" stroke-width="0.8" />
<text x="313.6363636363636" y="569.5" font-family="sans-serif" font-size="13" text-anchor="middle" fill="#000000">0.4</text>
<line x1="426.3636363636364" y1="549.6" x2="426.3636363636364" y2="553.5" stroke="#000000" stroke-width="0.8" />
<text x="426.3636363636364" y="569.5" font-family="sans-serif" font-size="13" text-anchor="middle" fill="#000000">0.6</text>
<line x1="539.0909090909091" y1="549.6" x2="539.0909090909091" y2="553.5" stroke="#000000" stroke-width="0.8" />
<text x="539.0909090909091" y="569.5" font-family="sans-serif" font-size="13" text-anchor="middle" fill="#000000">0.8</text>
<line x1="651.8181818181818" y1="549.6" x2="651.8181818181818" y2="553.5" stroke="#000000" stroke-width="0.8" />
<text x="651.8181818181818" y="569.5" font-family="sans-serif" font-size="13" text-anchor="middle" fill="#000000">1</text>
<line x1="65.63636363636364" y1="549.6" x2="65.63636363636364" y2="553.5" stroke="#000000" stroke-width="0.8" />
<line x1="110.72727272727273" y1="549.6" x2="110.72727272727273" y2="553.5" stroke="#000000" stroke-width="0.8" />
<line x1="133.27272727272728" y1="549.6" x2="133.27272727272728" y2="553.5" stroke="#000000" stroke-width="0.8" />
<line x1="155.8181818181818" y1="549.6" x2="155.8181818181818" y2="553.5" stroke="#000000" stroke-width="0.8" />
<line x1="178.36363636363637" y1="549.6" x2="178.36363636363637" y2="553.5" stroke="#000000" stroke-width="0.8" />
<line x1="223.45454545454544" y1="549.6" x2="223.45454545454544" y2="553.5" stroke="#000000" stroke-width="0.8" />
<line x1="246.00000000000003" y1="549.6" x2="246.00000000000003" y2="553.5" stroke="#000000" stroke-width="0.8" />
<line x1="268.54545454545456" y1="549.6" x2="268.54545454545456" y2="553.5" stroke="#000000" stroke-width="0.8" />
<line x1="291.0909090909091" y1="549.6" x2="291.0909090909091" y2="553.5" stroke="#000000" stroke-width="0.8" />
<line x1="336.1818181818182" y1="549.6" x2="336.1818181818182" y2="553.5" stroke="#000000" stroke-width="0.8" />
<line x1="358.7272727272727" y1="549.6" x2="358.7272727272727" y2="553.5" stroke="#000000" stroke-width="0.8" />
<line x1="381.2727272727273" y1="549.6" x2="381.2727272727273" y2="553.5" stroke="#000000" stroke-width="0.8" />
<line x1="403.81818181818187" y1="549.6" x2="403.81818181818187" y2="553.5" stroke="#000000" stroke-width="0.8" />
<line x1="448.90909090909093" y1="549.6" x2="448.90909090909093" y2="553.5" stroke="#000000" stroke-width="0.8" />
<line x1="471.4545454545455" y1="549.6" x2="471.4545454545455" y2="553.5" stroke="#000000" stroke-width="0.8" />
<line x1="494" y1="549.6" x2="494" y2="553.5" stroke="#000000" stroke-width="0.8" />
<line x1="516.5454545454545" y1="549.6" x2="516.5454545454545" y2="553.5" stroke="#000000" stroke-width="0.8" />
<line x1="561.6363636363636" y1="549.6" x2="561.6363636363636" y2="553.5" stroke="#000000" stroke-width="0.8" />
<line x1="584.1818181818182" y1="549.6" x2="584.1818181818182" y2="553.5" stroke="#000000" stroke-width="0.8" />
<line x1="606.7272727272727" y1="549.6" x2="606.7272727272727" y2="553.5" stroke="#000000" stroke-width="0.8" />
<line x1="629.2727272727273" y1="549.6" x2="629.2727272727273" y2="553.5" stroke="#000000" stroke-width="0.8" />
<line x1="674.3636363636365" y1="549.6" x2="674.3636363636365" y2="553.5" stroke="#000000" stroke-width="0.8" />
<line x1="524.6818181818181" y1="60" x2="528.5818181818181" y2="60" stroke="#000000" stroke-width="0.8" />
<text x="53.5" y="532.1818181818181" font-family="sans-serif" font-size="13" text-anchor="end" fill="#000000">0</text>
<line x1="437.4090909090909" y1="60" x2="441.30909090909086" y2="60" stroke="#000000" stroke-width="0.8" />
<text x="53.5" y="444.9090909090909" font-family="sans-serif" font-size="13" text-anchor="end" fill="#000000">0.2</text>
<line x1="350.1363636363636" y1="60" x2="354.0363636363636" y2="60" stroke="#000000" stroke-width="0.8" />
<text x="53.5" y="357.6363636363636" font-family="sans-serif" font-size="13" text-anchor="end" fill="#000000">0.4</text>
<line x1="262.8636363636364" y1="60" x2="266.76363636363635" y2="60" stroke="#000000" stroke-width="0.8" />
<text x="53.5" y="270.3636363636364" font-family="sans-serif" font-size="13" text-anchor="end" fill="#000000">0.6</text>
<line x1="175.59090909090907" y1="60" x2="179.49090909090907" y2="60" stroke="#000000" stroke-width="0.8" />
<text x="53.5" y="183.09090909090907" font-family="sans-serif" font-size="13" text-anchor="end" fill="#000000">0.8</text>
<line x1="88.31818181818181" y1="60" x2="92.21818181818182" y2="60" stroke="#000000" stroke-width="0.8" />
<text x="53.5" y="95.81818181818181" font-family="sans-serif" font-size="13" text-anchor="end" fill="#000000">1</text>
<line x1="542.1363636363636" y1="60" x2="546.0363636363636" y2="60" stroke="#000000" stroke-width="0.8" />
<line x1="507.2272727272727" y1="60" x2="511.12727272727267" y2="60" stroke="#000000" stroke-width="0.8" />
<line x1="489.77272727272725" y1="60" x2="493.67272727272723" y2="60" stroke="#000000" stroke-width="0.8" />
<line x1="472.31818181818176" y1="60" x2="476.21818181818173" y2="60" stroke="#000000" stroke-width="0.8" />
<line x1="454.8636363636363" y1="60" x2="458.7636363636363" y2="60" stroke="#000000" stroke-width="0.8" />
<line x1="419.95454545454544" y1="60" x2="423.8545454545454" y2="60" stroke="#000000" stroke-width="0.8" />
<line x1="402.49999999999994" y1="60" x2="406.3999999999999" y2="60" stroke="#000000" stroke-width="0.8" />
<line x1="385.0454545454545" y1="60" x2="388.9454545454545" y2="60" stroke="#000000" stroke-width="0.8" />
<line x1="367.59090909090907" y1="60" x2="371.49090909090904" y2="60" stroke="#000000" stroke-width="0.8" />
<line x1="332.68181818181813" y1="60" x2="336.5818181818181" y2="60" stroke="#000000" stroke-width="0.8" />
<line x1="315.22727272727275" y1="60" x2="319.1272727272727" y2="60" stroke="#000000" stroke-width="0.8" />
<line x1="297.77272727272725" y1="60" x2="301.67272727272723" y2="60" stroke="#000000" stroke-width="0.8" />
<line x1="280.31818181818176" y1="60" x2="284.21818181818173" y2="60" stroke="#000000" stroke-width="0.8" />
<line x1="245.40909090909088" y1="60" x2="249.30909090909088" y2="60" stroke="#000000" stroke-width="0.8" />
<line x1="227.95454545454544" y1="60" x2="231.85454545454544" y2="60" stroke="#000000" stroke-width="0.8" />
<line x1="210.5" y1="60" x2="214.4" y2="60" stroke="#000000" stroke-width="0.8" />
<line x1="193.0454545454545" y1="60" x2="196.9454545454545" y2="60" stroke="#000000" stroke-width="0.8" />
<line x1="158.13636363636363" y1="60" x2="162.03636363636363" y2="60" stroke="#000000" stroke-width="0.8" />
<line x1="140.6818181818182" y1="60" x2="144.5818181818182" y2="60" stroke="#000000" stroke-width="0.8" />
<line x1="123.22727272727269" y1="60" x2="127.1272727272727" y2="60" stroke="#000000" stroke-width="0.8" />
<line x1="105.77272727272731" y1="60" x2="109.67272727272731" y2="60" stroke="#000000" stroke-width="0.8" />
<line x1="70.86363636363632" y1="60" x2="74.76363636363632" y2="60" stroke="#000000" stroke-width="0.8" />
<g class="spine">
<line x1="60" y1="550" x2="680" y2="550" stroke="#000000" stroke-width="0.8" />
</g>
<g class="spine">
<line x1="60" y1="70" x2="680" y2="70" stroke="#000000" stroke-width="0.8" />
</g>
<g class="spine">
<line x1="60" y1="70" x2="60" y2="550" stroke="#000000" stroke-width="0.8" />
</g>
<g class="spine">
<line x1="680" y1="70" x2="680" y2="550" stroke="#000000" stroke-width="0.8" />
</g>
<rect x="60" y="70" width="620" height="480" fill="#FFFFFF" />
<line x1="-53.46787517317604" y1="473.9230484541327" x2="256.5321248268241" y2="681.7691453623979" stroke="#666666" stroke-width="0.5" />
<line x1="256.5321248268241" y1="681.7691453623979" x2="793.467875173176" y2="561.7691453623979" stroke="#666666" stroke-width="0.5" />
<line x1="793.467875173176" y1="561.7691453623979" x2="483.4678751731759" y2="353.92304845413264" stroke="#666666" stroke-width="0.5" />
<line x1="483.4678751731759" y1="353.92304845413264" x2="-53.46787517317604" y2="473.9230484541327" stroke="#666666" stroke-width="0.5" />
<line x1="-53.46787517317604" y1="58.23085463760208" x2="256.5321248268241" y2="266.07695154586736" stroke="#666666" stroke-width="0.5" />
<line x1="256.5321248268241" y1="266.07695154586736" x2="793.467875173176" y2="146.0769515458673" stroke="#666666" stroke-width="0.5" />
<line x1="793.467875173176" y1="146.0769515458673" x2="483.4678751731759" y2="-61.76914536239792" stroke="#666666" stroke-width="0.5" />
<line x1="483.4678751731759" y1="-61.76914536239792" x2="-53.46787517317604" y2="58.23085463760208" stroke="#666666" stroke-width="0.5" />
<line x1="-53.46787517317604" y1="473.9230484541327" x2="-53.46787517317604" y2="58.23085463760208" stroke="#666666" stroke-width="0.5" />
<line x1="256.5321248268241" y1="681.7691453623979" x2="256.5321248268241" y2="266.07695154586736" stroke="#666666" stroke-width="0.5" />
<line x1="793.467875173176" y1="561.7691453623979" x2="793.467875173176" y2="146.0769515458673" stroke="#666666" stroke-width="0.5" />
<line x1="483.4678751731759" y1="353.92304845413264" x2="483.4678751731759" y2="-61.76914536239792" stroke="#666666" stroke-width="0.5" />
<circle cx="289.0818959569734" cy="369.3949933170765" r="1.25" fill="#6495ED" />
<circle cx="388.92695887529544" cy="425.9634955202648" r="1.375046785048081" fill="#6495ED" />
<circle cx="282.70286936092066" cy="419.40746174653356" r="1.4449305869974918" fill="#6495ED" />
<circle cx="170.5074281019164" cy="389.7101855310368" r="1.5609197384181224" fill="#6495ED" />
<circle cx="459.622799101691" cy="465.74876061181334" r="1.5991967446966682" fill="#6495ED" />
<circle cx="144.55858689372138" cy="391.98294287953536" r="1.6502245884320177" fill="#6495ED" />
<circle cx="352.91386747255217" cy="486.9919861181378" r="1.655680205795216" fill="#6495ED" />
<circle cx="259.75331734031556" cy="472.3217681819634" r="1.6682016037247798" fill="#6495ED" />
<circle cx="565.8838537790906" cy="440.50834376487484" r="1.6744671403982943" fill="#6495ED" />
<circle cx="643.6687467660634" cy="371.6824958191821" r="1.712133892191488" fill="#6495ED" />
<circle cx="274.6467638814697" cy="470.583252667396" r="1.7150974438062274" fill="#6495ED" />
<circle cx="140.20057887870396" cy="399.9404144889006" r="1.7189353935792622" fill="#6495ED" />
<circle cx="140.774079673418" cy="407.63027679861256" r="1.7380218140781312" fill="#6495ED" />
<circle cx="292.0899836131483" cy="485.12085917086904" r="1.7612903785599228" fill="#6495ED" />
<circle cx="355.9521705969414" cy="507.7552530238338" r="1.763617790060497" fill="#6495ED" />
<circle cx="666.2441926338233" cy="366.21759247043616" r="1.776672461902794" fill="#6495ED" />
<circle cx="725.4612400053646" cy="265.30742690705557" r="1.8484803183841072" fill="#6495ED" />
<circle cx="366.82368382872835" cy="531.3460854818954" r="1.8749886694126277" fill="#6495ED" />
<circle cx="-53.46787517317604" cy="58.23085463760208" r="1.876753140752974" fill="#6495ED" />
<circle cx="658.2324420756679" cy="375.6722989107413" r="1.8822759654022487" fill="#6495ED" />
<circle cx="177.4901238580074" cy="452.59375052959444" r="1.8836208969231736" fill="#6495ED" />
<circle cx="-49.82186999054839" cy="67.95423693510692" r="1.8941305841772276" fill="#6495ED" />
<circle cx="183.56530738692834" cy="452.7830079360725" r="1.8976769687686923" fill="#6495ED" />
<circle cx="661.0253446134546" cy="371.7060846245942" r="1.9069352985745691" fill="#6495ED" />
<circle cx="561.1336693038334" cy="471.5091109593556" r="1.9070912548327967" fill="#6495ED" />
<circle cx="493.4058310070919" cy="498.92320386283535" r="1.9137770276671116" fill="#6495ED" />
<circle cx="495.15914133312583" cy="511.4605579001786" r="1.9163130375351218" fill="#6495ED" />
<circle cx="389.38110834782896" cy="524.3006021121012" r="1.9226172519229183" fill="#6495ED" />
<circle cx="-12.032158952520732" cy="166.00096289903797" r="1.940307005204101" fill="#6495ED" />
<circle cx="511.8885607060469" cy="487.13828628753015" r="1.9550678095377527" fill="#6495ED" />
<circle cx="672.598462711599" cy="328.8233091707064" r="1.9555380347967004" fill="#6495ED" />
<circle cx="307.8480780861529" cy="524.1183505744815" r="1.9678124541538369" fill="#6495ED" />
<circle cx="707.3824213683394" cy="260.6691776949367" r="1.9957884896104872" fill="#6495ED" />
<circle cx="286.56958593692406" cy="518.1890094439939" r="2.001957893150021" fill="#6495ED" />
<circle cx="133.60294313844042" cy="410.38841687193525" r="2.0033286048533743" fill="#6495ED" />
<circle cx="62.02174895827126" cy="271.3865253130575" r="2.0271955752302313" fill="#6495ED" />
<circle cx="40.65813590873359" cy="238.6966767262375" r="2.0546340794563394" fill="#6495ED" />
<circle cx="495.98668142131646" cy="513.6146658086159" r="2.0574059375678235" fill="#6495ED" />
<circle cx="6.356806486182478" cy="141.69243559498244" r="2.0591539207727254" fill="#6495ED" />
<circle cx="96.92704499190309" cy="358.3930629302523" r="2.0621854674173576" fill="#6495ED" />
<circle cx="666.0708758650653" cy="325.5399302264743" r="2.101252763154972" fill="#6495ED" />
<circle cx="33.77829167348798" cy="192.6793369211607" r="2.104911955063578" fill="#6495ED" />
<circle cx="546.1600856304524" cy="461.42372400018576" r="2.1193764936630215" fill="#6495ED" />
<circle cx="675.5118273957053" cy="274.18175416636376" r="2.12255302359185" fill="#6495ED" />
<circle cx="137.25218098534725" cy="395.2049255077347" r="2.1306476391542306" fill="#6495ED" />
<circle cx="129.39857044629088" cy="357.4226409903518" r="2.132441645799272" fill="#6495ED" />
<circle cx="197.91783900878087" cy="454.2638845336151" r="2.135026172947814" fill="#6495ED" />
<circle cx="77.75328986328094" cy="282.99945629448774" r="2.1412231277242406" fill="#6495ED" />
<circle cx="637.830700793184" cy="335.83282599972154" r="2.142860569880812" fill="#6495ED" />
<circle cx="63.26934504940338" cy="210.9854240313179" r="2.147918696773657" fill="#6495ED" />
<circle cx="83.63559731055541" cy="284.80460657215906" r="2.149845178850929" fill="#6495ED" />
<circle cx="491.32052495581127" cy="485.10920599657464" r="2.1528330035252594" fill="#6495ED" />
<circle cx="117.27433873394955" cy="314.09069991607544" r="2.182485429971481" fill="#6495ED" />
<circle cx="75.47006982544013" cy="203.51513002152222" r="2.186025701152698" fill="#6495ED" />
<circle cx="266.85579654019375" cy="491.0917359895435" r="2.189707712150179" fill="#6495ED" />
<circle cx="115.76253004836269" cy="301.15814518843365" r="2.2123559760730855" fill="#6495ED" />
<circle cx="358.8260291390948" cy="530.9310632523275" r="2.22226620227606" fill="#6495ED" />
<circle cx="260.2818026372769" cy="483.01851239200386" r="2.2360508084962065" fill="#6495ED" />
<circle cx="185.4028263356727" cy="391.2884483013333" r="2.2370408156489976" fill="#6495ED" />
<circle cx="310.580953832712" cy="513.5503579299514" r="2.23823058895499" fill="#6495ED" />
<circle cx="540.4995111829301" cy="452.0198607404836" r="2.2416844458191654" fill="#6495ED" />
<circle cx="335.850517744853" cy="500.44941027211956" r="2.2471253120338233" fill="#6495ED" />
<circle cx="405.06655892789695" cy="498.78483624860087" r="2.2512578983644262" fill="#6495ED" />
<circle cx="112.02009356964072" cy="228.14047274920026" r="2.2577031221816175" fill="#6495ED" />
<circle cx="619.918012625236" cy="298.70615436977084" r="2.2630715985115586" fill="#6495ED" />
<circle cx="535.1851540720731" cy="406.27884126125747" r="2.2817822831413688" fill="#6495ED" />
<circle cx="411.2518460796621" cy="519.3897543045482" r="2.2825576585091265" fill="#6495ED" />
<circle cx="219.60155022640058" cy="449.88309010944" r="2.285686909358668" fill="#6495ED" />
<circle cx="337.9131294388032" cy="498.3238542001236" r="2.288751974337174" fill="#6495ED" />
<circle cx="450.71406236712846" cy="505.83129120919625" r="2.2889509416838836" fill="#6495ED" />
<circle cx="523.4825536442672" cy="413.4927312127304" r="2.294458442899784" fill="#6495ED" />
<circle cx="179.31405474992982" cy="339.4730147371299" r="2.308751176732195" fill="#6495ED" />
<circle cx="131.62487875710065" cy="246.36437971791685" r="2.3256738596300037" fill="#6495ED" />
<circle cx="584.9225304228421" cy="259.23871274081824" r="2.327134325871906" fill="#6495ED" />
<circle cx="136.6301614267585" cy="211.40786664685444" r="2.331117943450807" fill="#6495ED" />
<circle cx="559.3108974743836" cy="324.1174526094279" r="2.3549513653979224" fill="#6495ED" />
<circle cx="562.5295864610198" cy="144.02609187544476" r="2.3725584763338112" fill="#6495ED" />
<circle cx="547.7285796312026" cy="296.5068906498858" r="2.38010010626164" fill="#6495ED" />
<circle cx="220.82051152045491" cy="338.51229659267506" r="2.3961483118770426" fill="#6495ED" />
<circle cx="455.2180060094963" cy="402.74910548236795" r="2.40046570144854" fill="#6495ED" />
<circle cx="491.957490083727" cy="-28.763248782203092" r="2.4044037036639625" fill="#6495ED" />
<circle cx="448.7457816880313" cy="397.1341017179348" r="2.410572382031786" fill="#6495ED" />
<circle cx="480.8678361241095" cy="2.6102199799096297" r="2.42018817554432" fill="#6495ED" />
<circle cx="533.3817304006101" cy="290.98386402690346" r="2.4208163530948443" fill="#6495ED" />
<circle cx="298.1366299909094" cy="389.72288202040914" r="2.424484489851078" fill="#6495ED" />
<circle cx="464.38713746927357" cy="30.010449292255394" r="2.4385011589841636" fill="#6495ED" />
<circle cx="496.97591737993713" cy="127.0502217029387" r="2.4401210753763856" fill="#6495ED" />
<circle cx="318.448601534217" cy="366.5622785728886" r="2.444452896083322" fill="#6495ED" />
<circle cx="235.1730431423073" cy="211.83217958806452" r="2.447282744411618" fill="#6495ED" />
<circle cx="249.76762174055702" cy="191.80561528629573" r="2.4475322482891677" fill="#6495ED" />
<circle cx="412.2388687954727" cy="404.52061626462637" r="2.4496904349855386" fill="#6495ED" />
<circle cx="494.43663541079957" cy="135.87319923350321" r="2.4548289318416256" fill="#6495ED" />
<circle cx="486.27411130678024" cy="316.45526160856673" r="2.456469610778772" fill="#6495ED" />
<circle cx="386.10931051193637" cy="77.08757073527529" r="2.4652011337661555" fill="#6495ED" />
<circle cx="449.9258285019707" cy="315.69269456023795" r="2.4668304359814623" fill="#6495ED" />
<circle cx="410.6994818196338" cy="84.22782255496352" r="2.478180754530671" fill="#6495ED" />
<circle cx="444.50068036043484" cy="113.03309714211417" r="2.4886822169054055" fill="#6495ED" />
<circle cx="345.50902228701807" cy="160.7851347352476" r="2.4909059662220097" fill="#6495ED" />
<circle cx="290.5071251592653" cy="251.16799658205596" r="2.4932163725364473" fill="#6495ED" />
<circle cx="320.3289612251478" cy="283.19228659538146" r="2.5" fill="#6495ED" />
</svg>
