<svg xmlns="http://www.w3.org/2000/svg" viewBox="0 0 700 600" width="700" height="600" role="img" aria-labelledby="chart-title">
<title id="chart-title">Line3D — Helix</title>
<rect x="0" y="0" width="700" height="600" fill="#FFFFFF" />
<path d="M1.64214 -13.0411L5.00505 -13.0411L5.00505 -2.54183L10.9098 -2.54183L10.9098 0L1.64214 0L1.64214 -13.0411ZM12.9013 -9.78299L16.0284 -9.78299L16.0284 0L12.9013 0L12.9013 -9.78299ZM12.9013 -13.5914L16.0284 -13.5914L16.0284 -11.0408L12.9013 -11.0408L12.9013 -13.5914ZM28.8685 -5.95714L28.8685 0L25.724 0L25.724 -0.969564L25.724 -4.55957Q25.724 -5.82612 25.6672 -6.30653Q25.6105 -6.78695 25.4707 -7.01405Q25.2873 -7.31977 24.9728 -7.4901Q24.6584 -7.66043 24.2566 -7.66043Q23.2783 -7.66043 22.7192 -6.90487Q22.1602 -6.14931 22.1602 -4.81288L22.1602 0L19.0331 0L19.0331 -9.78299L22.1602 -9.78299L22.1602 -8.35048Q22.8677 -9.20649 23.6626 -9.61266Q24.4575 -10.0188 25.4183 -10.0188Q27.1128 -10.0188 27.9907 -8.97938Q28.8685 -7.93994 28.8685 -5.95714ZM41.534 -4.9177L41.534 -4.02675L34.223 -4.02675Q34.3365 -2.92616 35.0178 -2.37587Q35.6992 -1.82558 36.922 -1.82558Q37.9091 -1.82558 38.9441 -2.11819Q39.9792 -2.41081 41.0711 -3.00477L41.0711 -0.593967Q39.9618 -0.174696 38.8524 0.0393066Q37.7431 0.253309 36.6338 0.253309Q33.9784 0.253309 32.5066 -1.09622Q31.0348 -2.44575 31.0348 -4.88276Q31.0348 -7.2761 32.4804 -8.64746Q33.926 -10.0188 36.4591 -10.0188Q38.7651 -10.0188 40.1496 -8.62999Q41.534 -7.24116 41.534 -4.9177ZM38.3196 -5.95714Q38.3196 -6.84809 37.7999 -7.39402Q37.2802 -7.93994 36.4416 -7.93994Q35.5332 -7.93994 34.9654 -7.42896Q34.3977 -6.91797 34.2579 -5.95714L38.3196 -5.95714ZM50.7318 -7.03152Q52.0507 -6.69086 52.7364 -5.84795Q53.4221 -5.00504 53.4221 -3.70356Q53.4221 -1.76443 51.9372 -0.755561Q50.4523 0.253309 47.6047 0.253309Q46.6002 0.253309 45.5913 0.0917155Q44.5825 -0.0698785 43.5954 -0.393066L43.5954 -2.9873Q44.5388 -2.51563 45.4691 -2.27542Q46.3993 -2.03521 47.299 -2.03521Q48.6354 -2.03521 49.3473 -2.49816Q50.0592 -2.9611 50.0592 -3.82585Q50.0592 -4.7168 49.3298 -5.17537Q48.6005 -5.63395 47.1767 -5.63395L45.8315 -5.63395L45.8315 -7.80018L47.2466 -7.80018Q48.5131 -7.80018 49.1333 -8.19762Q49.7535 -8.59505 49.7535 -9.40739Q49.7535 -10.1586 49.1508 -10.5691Q48.5481 -10.9797 47.4475 -10.9797Q46.6351 -10.9797 45.8053 -10.7962Q44.9755 -10.6128 44.1545 -10.2547L44.1545 -12.7179Q45.1502 -12.9974 46.1285 -13.1372Q47.1068 -13.2769 48.0502 -13.2769Q50.592 -13.2769 51.8542 -12.4427Q53.1164 -11.6086 53.1164 -9.93148Q53.1164 -8.78722 52.5137 -8.05786Q51.911 -7.32851 50.7318 -7.03152ZM59.8509 -10.4992L59.8509 -2.54183L61.0563 -2.54183Q63.1177 -2.54183 64.2052 -3.5638Q65.2927 -4.58577 65.2927 -6.53364Q65.2927 -8.47276 64.2096 -9.486Q63.1265 -10.4992 61.0563 -10.4992L59.8509 -10.4992ZM56.488 -13.0411L60.0343 -13.0411Q63.0042 -13.0411 64.4585 -12.6174Q65.9129 -12.1938 66.9523 -11.1806Q67.8695 -10.2983 68.3149 -9.14535Q68.7604 -7.99235 68.7604 -6.53364Q68.7604 -5.05745 68.3149 -3.90009Q67.8695 -2.74273 66.9523 -1.86051Q65.9041 -0.847276 64.4367 -0.423638Q62.9692 0 60.0343 0L56.488 0L56.488 -13.0411ZM76.8838 -6.02702L92.851 -6.02702L92.851 -3.77344L76.8838 -3.77344L76.8838 -6.02702ZM101.682 -13.0411L105.045 -13.0411L105.045 -8.07096L110.006 -8.07096L110.006 -13.0411L113.369 -13.0411L113.369 0L110.006 0L110.006 -5.52913L105.045 -5.52913L105.045 0L101.682 0L101.682 -13.0411ZM126.279 -4.9177L126.279 -4.02675L118.968 -4.02675Q119.082 -2.92616 119.763 -2.37587Q120.444 -1.82558 121.667 -1.82558Q122.654 -1.82558 123.689 -2.11819Q124.724 -2.41081 125.816 -3.00477L125.816 -0.593967Q124.707 -0.174696 123.598 0.0393066Q122.488 0.253309 121.379 0.253309Q118.724 0.253309 117.252 -1.09622Q115.78 -2.44575 115.78 -4.88276Q115.78 -7.2761 117.226 -8.64746Q118.671 -10.0188 121.204 -10.0188Q123.51 -10.0188 124.895 -8.62999Q126.279 -7.24116 126.279 -4.9177ZM123.065 -5.95714Q123.065 -6.84809 122.545 -7.39402Q122.025 -7.93994 121.187 -7.93994Q120.278 -7.93994 119.711 -7.42896Q119.143 -6.91797 119.003 -5.95714L123.065 -5.95714ZM128.646 -13.5914L131.773 -13.5914L131.773 0L128.646 0L128.646 -13.5914ZM134.778 -9.78299L137.905 -9.78299L137.905 0L134.778 0L134.778 -9.78299ZM134.778 -13.5914L137.905 -13.5914L137.905 -11.0408L134.778 -11.0408L134.778 -13.5914ZM143.382 -5.00505L139.853 -9.78299L143.164 -9.78299L145.164 -6.88303L147.19 -9.78299L150.501 -9.78299L146.972 -5.02252L150.675 0L147.365 0L145.164 -3.09212L142.989 0L139.678 0L143.382 -5.00505Z" fill="#262626" transform="translate(350,24.099999999999998) translate(-75.4731216430664,0)" />
<rect x="88" y="72" width="542" height="462" fill="#FFFFFF" />
<polygon points="136.6497501248408,430.0427228676343 427.6240992883744,512.1033774854671 581.5264576918283,375.3745804453154 307.83787119481076,307.0831863500659" fill="#F5F5F5" />
<polygon points="136.6497501248408,430.0427228676343 307.83787119481076,307.0831863500659 305.85030923020776,93.89662251453282 127.75,200.96229152977327" fill="#F5F5F5" />
<polygon points="307.83787119481076,307.0831863500659 581.5264576918283,375.3745804453154 589.75,153.27199364112303 305.85030923020776,93.89662251453282" fill="#F5F5F5" />
<line x1="136.6497501248408" y1="430.0427228676343" x2="427.6240992883744" y2="512.1033774854671" stroke="#666666" stroke-width="0.5" />
<line x1="427.6240992883744" y1="512.1033774854671" x2="581.5264576918283" y2="375.3745804453154" stroke="#666666" stroke-width="0.5" />
<line x1="581.5264576918283" y1="375.3745804453154" x2="307.83787119481076" y2="307.0831863500659" stroke="#666666" stroke-width="0.5" />
<line x1="307.83787119481076" y1="307.0831863500659" x2="136.6497501248408" y2="430.0427228676343" stroke="#666666" stroke-width="0.5" />
<line x1="589.75" y1="153.27199364112303" x2="305.85030923020776" y2="93.89662251453282" stroke="#666666" stroke-width="0.5" />
<line x1="305.85030923020776" y1="93.89662251453282" x2="127.75" y2="200.96229152977327" stroke="#666666" stroke-width="0.5" />
<line x1="136.6497501248408" y1="430.0427228676343" x2="127.75" y2="200.96229152977327" stroke="#666666" stroke-width="0.5" />
<line x1="581.5264576918283" y1="375.3745804453154" x2="589.75" y2="153.27199364112303" stroke="#666666" stroke-width="0.5" />
<line x1="307.83787119481076" y1="307.0831863500659" x2="305.85030923020776" y2="93.89662251453282" stroke="#666666" stroke-width="0.5" />
<line x1="154.22307083629792" y1="434.99875492178904" x2="324.4430123556113" y2="311.22653866714114" stroke="#B0B0B0" stroke-width="1" />
<line x1="184.6394448344461" y1="443.57678789467514" x2="353.1605158697763" y2="318.39219498850525" stroke="#B0B0B0" stroke-width="1" />
<line x1="215.41968382464657" y1="452.257438158488" x2="382.1917658868086" y2="325.6361380457086" stroke="#B0B0B0" stroke-width="1" />
<line x1="246.57035636212305" y1="461.04255817872183" x2="411.54193229619364" y2="332.95965784124934" stroke="#B0B0B0" stroke-width="1" />
<line x1="278.098190061517" y1="469.93404527884553" x2="441.2162992001067" y2="340.36407287623376" stroke="#B0B0B0" stroke-width="1" />
<line x1="310.0100764407979" y1="478.9338430063831" x2="471.2202680848985" y2="347.8507309417328" stroke="#B0B0B0" stroke-width="1" />
<line x1="342.31307594327427" y1="488.04394254922266" x2="501.5593610988507" y2="355.42100993665474" stroke="#B0B0B0" stroke-width="1" />
<line x1="375.0144231453938" y1="497.2663842043212" x2="532.2392244403788" y2="363.0763187131774" stroke="#B0B0B0" stroke-width="1" />
<line x1="408.1215321583995" y1="506.60325890108123" x2="563.2656318610505" y2="370.8180979508291" stroke="#B0B0B0" stroke-width="1" />
<line x1="148.49107029440353" y1="421.5374408965187" x2="438.3180931261451" y2="502.6026984305038" stroke="#B0B0B0" stroke-width="1" />
<line x1="168.47344417231858" y1="407.18467263671096" x2="456.347978792022" y2="486.5847205161932" stroke="#B0B0B0" stroke-width="1" />
<line x1="188.05847131078502" y1="393.1173071876472" x2="473.9994343697814" y2="470.90294466693786" stroke="#B0B0B0" stroke-width="1" />
<line x1="207.25788681175868" y1="379.3269155608647" x2="491.2842504522088" y2="455.5468959713414" stroke="#B0B0B0" stroke-width="1" />
<line x1="226.08296817479862" y1="365.8053974506285" x2="508.2137328604108" y2="440.50653019528374" stroke="#B0B0B0" stroke-width="1" />
<line x1="244.5445573865972" y1="352.54496536765316" x2="524.7987273046413" y2="425.7722118729315" stroke="#B0B0B0" stroke-width="1" />
<line x1="262.6530817431701" y1="339.53812968311865" x2="541.0496425548641" y2="411.33469372171805" stroke="#B0B0B0" stroke-width="1" />
<line x1="280.4185734887322" y1="326.7776845226267" x2="556.9764722250721" y2="397.1850972888795" stroke="#B0B0B0" stroke-width="1" />
<line x1="297.8506883489784" y1="314.256694454275" x2="572.5888152671653" y2="383.3148947444352" stroke="#B0B0B0" stroke-width="1" />
<line x1="148.49107029440353" y1="421.5374408965187" x2="140.10792926505505" y2="193.53327599282704" stroke="#B0B0B0" stroke-width="1" />
<line x1="168.47344417231858" y1="407.18467263671096" x2="160.94908230127226" y2="181.00453866207152" stroke="#B0B0B0" stroke-width="1" />
<line x1="188.05847131078502" y1="393.1173071876472" x2="181.35997977744782" y2="168.7344510752861" stroke="#B0B0B0" stroke-width="1" />
<line x1="207.25788681175868" y1="379.3269155608647" x2="201.3538091967712" y2="156.71508551545713" stroke="#B0B0B0" stroke-width="1" />
<line x1="226.08296817479862" y1="365.8053974506285" x2="220.94322457669233" y2="144.93883497252455" stroke="#B0B0B0" stroke-width="1" />
<line x1="244.5445573865972" y1="352.54496536765316" x2="240.14037315578648" y2="133.39839708844994" stroke="#B0B0B0" stroke-width="1" />
<line x1="262.6530817431701" y1="339.53812968311865" x2="258.95692051215354" y2="122.08675905719664" stroke="#B0B0B0" stroke-width="1" />
<line x1="280.4185734887322" y1="326.7776845226267" x2="277.4040742024957" y2="110.99718341400927" stroke="#B0B0B0" stroke-width="1" />
<line x1="297.8506883489784" y1="314.256694454275" x2="295.49260602252843" y2="100.12319465348452" stroke="#B0B0B0" stroke-width="1" />
<line x1="136.47834798787522" y1="425.6308152390462" x2="307.7994663176628" y2="302.963866329096" stroke="#B0B0B0" stroke-width="1" />
<line x1="135.09076535641083" y1="389.9143037332278" x2="307.48874309490463" y2="269.6355891012973" stroke="#B0B0B0" stroke-width="1" />
<line x1="133.6861086402707" y1="353.75830363196087" x2="307.17452734336854" y2="235.93270206383417" stroke="#B0B0B0" stroke-width="1" />
<line x1="132.26406074583983" y1="317.15465291483946" x2="306.856759846225" y2="201.84885359967515" stroke="#B0B0B0" stroke-width="1" />
<line x1="130.82429667866467" y1="280.0949861931127" x2="306.53538004031736" y2="167.37754768430804" stroke="#B0B0B0" stroke-width="1" />
<line x1="129.3664832958351" y1="242.57072833596754" x2="306.2103259776816" y2="132.5121397583013" stroke="#B0B0B0" stroke-width="1" />
<line x1="127.89027904899513" y1="204.57308785559172" x2="305.8815342857381" y2="97.24583245748761" stroke="#B0B0B0" stroke-width="1" />
<line x1="324.4430123556113" y1="311.22653866714114" x2="323.04490879077025" y2="97.4927367882513" stroke="#B0B0B0" stroke-width="1" />
<line x1="353.1605158697763" y1="318.39219498850525" x2="352.79099470886274" y2="103.71389499438095" stroke="#B0B0B0" stroke-width="1" />
<line x1="382.1917658868086" y1="325.6361380457086" x2="382.8738601690536" y2="110.00548797360159" stroke="#B0B0B0" stroke-width="1" />
<line x1="411.54193229619364" y1="332.95965784124934" x2="413.2992571639634" y2="116.36871870959936" stroke="#B0B0B0" stroke-width="1" />
<line x1="441.2162992001067" y1="340.36407287623376" x2="444.07306942365733" y2="122.80481773790365" stroke="#B0B0B0" stroke-width="1" />
<line x1="471.2202680848985" y1="347.8507309417328" x2="475.20131620883024" y2="129.315043939201" stroke="#B0B0B0" stroke-width="1" />
<line x1="501.5593610988507" y1="355.42100993665474" x2="506.6901562358131" y2="135.90068536021965" stroke="#B0B0B0" stroke-width="1" />
<line x1="532.2392244403788" y1="363.0763187131774" x2="538.5458917387771" y2="142.563060063307" stroke="#B0B0B0" stroke-width="1" />
<line x1="563.2656318610505" y1="370.8180979508291" x2="570.7749726747643" y2="149.30351700587852" stroke="#B0B0B0" stroke-width="1" />
<line x1="307.7994663176628" y1="302.963866329096" x2="581.6850684081113" y2="371.0907999209165" stroke="#B0B0B0" stroke-width="1" />
<line x1="307.48874309490463" y1="269.6355891012973" x2="582.9687627528338" y2="336.4206025844886" stroke="#B0B0B0" stroke-width="1" />
<line x1="307.17452734336854" y1="235.93270206383417" x2="584.2676446857404" y2="301.3402167311647" stroke="#B0B0B0" stroke-width="1" />
<line x1="306.856759846225" y1="201.84885359967515" x2="585.5819853408357" y2="265.8423195356358" stroke="#B0B0B0" stroke-width="1" />
<line x1="306.53538004031736" y1="167.37754768430804" x2="586.9120623445947" y2="229.9194128230263" stroke="#B0B0B0" stroke-width="1" />
<line x1="306.2103259776816" y1="132.5121397583013" x2="588.2581600114669" y2="193.5638177887177" stroke="#B0B0B0" stroke-width="1" />
<line x1="305.8815342857381" y1="97.24583245748761" x2="589.6205695464859" y2="156.76766952621853" stroke="#B0B0B0" stroke-width="1" />
<path d="M0.874837 -10.1251L2.34646 -10.1251L4.86247 -6.36122L7.39204 -10.1251L8.86366 -10.1251L5.60845 -5.26259L9.08068 0L7.60905 0L4.76074 -4.30637L1.89209 0L0.413683 0L4.02832 -5.405L0.874837 -10.1251Z" fill="#262626" transform="translate(270.73676028165994,511.4962644362327) translate(-4.757351398468018,0)" />
<path d="M-0.0271267 -10.1251L1.4445 -10.1251L4.25212 -5.9611L7.03939 -10.1251L8.51101 -10.1251L4.93028 -4.82178L4.93028 0L3.5536 0L3.5536 -4.82178L-0.0271267 -10.1251Z" fill="#262626" transform="translate(567.5105272209192,468.0848248962562) translate(-4.241943359375,0)" />
<path d="M0.779894 -10.1251L8.73481 -10.1251L8.73481 -9.08068L2.3329 -1.15289L8.89079 -1.15289L8.89079 0L0.623915 0L0.623915 -1.04438L7.02583 -8.97217L0.779894 -8.97217L0.779894 -10.1251Z" fill="#262626" transform="translate(645.5971436248561,266.54331824380756) translate(-4.757351398468018,0)" />
<g class="mpl-3d-scene" data-elevation="25" data-azimuth="-60" data-plot-x="88" data-plot-y="72" data-plot-w="542" data-plot-h="462">
<g class="series" data-series-index="0">
<line x1="376.27771934936334" y1="315.6080389552026" x2="362.6589299956123" y2="314.3274888231144" stroke="#1F77B4" stroke-width="1.5" />
<line x1="362.6589299956123" y1="314.3274888231144" x2="349.04197324867266" y2="313.6327031319586" stroke="#1F77B4" stroke-width="1.5" />
<line x1="389.78027090264914" y1="317.47349900755654" x2="376.27771934936334" y2="315.6080389552026" stroke="#1F77B4" stroke-width="1.5" />
<line x1="349.04197324867266" y1="313.6327031319586" x2="335.54495915349247" y2="313.5202299647347" stroke="#1F77B4" stroke-width="1.5" />
<line x1="403.0490949236937" y1="319.9186899298516" x2="389.78027090264914" y2="317.47349900755654" stroke="#1F77B4" stroke-width="1.5" />
<line x1="335.54495915349247" y1="313.5202299647347" x2="322.2854957749471" y2="313.9823204062309" stroke="#1F77B4" stroke-width="1.5" />
<line x1="415.9678365786218" y1="322.93408203495403" x2="403.0490949236937" y2="319.9186899298516" stroke="#1F77B4" stroke-width="1.5" />
<line x1="322.2854957749471" y1="313.9823204062309" x2="309.3801332167511" y2="315.0069300556661" stroke="#1F77B4" stroke-width="1.5" />
<line x1="428.42185664291037" y1="326.50576287818114" x2="415.9678365786218" y2="322.93408203495403" stroke="#1F77B4" stroke-width="1.5" />
<line x1="309.3801332167511" y1="315.0069300556661" x2="296.9437799168423" y2="316.57771468887955" stroke="#1F77B4" stroke-width="1.5" />
<line x1="440.2988510952331" y1="330.6154024771409" x2="428.42185664291037" y2="326.50576287818114" stroke="#1F77B4" stroke-width="1.5" />
<line x1="296.9437799168423" y1="316.57771468887955" x2="285.08907873680613" y2="318.67402347201516" stroke="#1F77B4" stroke-width="1.5" />
<line x1="451.48952060516774" y1="335.2402205507845" x2="440.2988510952331" y2="330.6154024771409" stroke="#1F77B4" stroke-width="1.5" />
<line x1="285.08907873680613" y1="318.67402347201516" x2="273.9257317171396" y2="321.27089441290565" stroke="#1F77B4" stroke-width="1.5" />
<line x1="461.88829904763077" y1="340.3529617299324" x2="451.48952060516774" y2="335.2402205507845" stroke="#1F77B4" stroke-width="1.5" />
<line x1="374.10807888092444" y1="250.52368420062172" x2="360.33289186094396" y2="249.32555940319315" stroke="#1F77B4" stroke-width="1.5" />
<line x1="387.7859078855926" y1="252.28457465695732" x2="374.10807888092444" y2="250.52368420062172" stroke="#1F77B4" stroke-width="1.5" />
<line x1="360.33289186094396" y1="249.32555940319315" x2="346.5795495028774" y2="248.69022609010392" stroke="#1F77B4" stroke-width="1.5" />
<line x1="401.24766483360366" y1="254.60406624956676" x2="387.7859078855926" y2="252.28457465695732" stroke="#1F77B4" stroke-width="1.5" />
<line x1="346.5795495028774" y1="248.69022609010392" x2="332.9672052273057" y2="248.61358868233674" stroke="#1F77B4" stroke-width="1.5" />
<line x1="414.37567339005875" y1="257.47382997010396" x2="401.24766483360366" y2="254.60406624956676" stroke="#1F77B4" stroke-width="1.5" />
<line x1="332.9672052273057" y1="248.61358868233674" x2="319.6144223393562" y2="249.08743860390823" stroke="#1F77B4" stroke-width="1.5" />
<line x1="273.9257317171396" y1="321.27089441290565" x2="263.5597642293312" y2="324.33905795702225" stroke="#1F77B4" stroke-width="1.5" />
<line x1="471.3941477740003" y1="345.92188588343606" x2="461.88829904763077" y2="340.3529617299324" stroke="#1F77B4" stroke-width="1.5" />
<line x1="427.05386893059847" y1="260.8813397506262" x2="414.37567339005875" y2="257.47382997010396" stroke="#1F77B4" stroke-width="1.5" />
<line x1="319.6144223393562" y1="249.08743860390823" x2="306.6386161136912" y2="250.09945473163987" stroke="#1F77B4" stroke-width="1.5" />
<line x1="439.1684103936623" y1="264.80983612825946" x2="427.05386893059847" y2="260.8813397506262" stroke="#1F77B4" stroke-width="1.5" />
<line x1="306.6386161136912" y1="250.09945473163987" x2="294.155465234171" y2="251.63319811775156" stroke="#1F77B4" stroke-width="1.5" />
<line x1="479.9114194197856" y1="351.9107817737639" x2="471.3941477740003" y2="345.92188588343606" stroke="#1F77B4" stroke-width="1.5" />
<line x1="263.5597642293312" y1="324.33905795702225" x2="254.09272165003995" y2="327.84495576177085" stroke="#1F77B4" stroke-width="1.5" />
<line x1="450.60834158338037" y1="269.23829046400596" x2="439.1684103936623" y2="264.80983612825946" stroke="#1F77B4" stroke-width="1.5" />
<line x1="294.155465234171" y1="251.63319811775156" x2="282.2782799611641" y2="253.66810449282426" stroke="#1F77B4" stroke-width="1.5" />
<line x1="487.3507915209061" y1="358.2790131521331" x2="479.9114194197856" y2="351.9107817737639" stroke="#1F77B4" stroke-width="1.5" />
<line x1="254.09272165003995" y1="327.84495576177085" x2="245.62079463765775" y2="331.75078267665566" stroke="#1F77B4" stroke-width="1.5" />
<line x1="461.2663117151153" y1="274.1413752808453" x2="450.60834158338037" y2="269.23829046400596" stroke="#1F77B4" stroke-width="1.5" />
<line x1="371.8878579045653" y1="184.0257193683625" x2="357.95623808863115" y2="182.90177597468056" stroke="#1F77B4" stroke-width="1.5" />
<line x1="282.2782799611641" y1="253.66810449282426" x2="271.1173158475628" y2="256.1794792918108" stroke="#1F77B4" stroke-width="1.5" />
<line x1="385.7413638110508" y1="185.68895748750464" x2="371.8878579045653" y2="184.0257193683625" stroke="#1F77B4" stroke-width="1.5" />
<line x1="357.95623808863115" y1="182.90177597468056" x2="344.06684387168315" y2="182.31638274499159" stroke="#1F77B4" stroke-width="1.5" />
<line x1="399.3968138509306" y1="187.88828943053335" x2="385.7413638110508" y2="185.68895748750464" stroke="#1F77B4" stroke-width="1.5" />
<line x1="344.06684387168315" y1="182.31638274499159" x2="330.33987741658814" y2="182.26486606668826" stroke="#1F77B4" stroke-width="1.5" />
<line x1="412.7352075668264" y1="190.61654355172485" x2="399.3968138509306" y2="187.88828943053335" stroke="#1F77B4" stroke-width="1.5" />
<line x1="471.03936265711224" y1="279.4894474657436" x2="461.2663117151153" y2="274.1413752808453" stroke="#1F77B4" stroke-width="1.5" />
<line x1="330.33987741658814" y1="182.26486606668826" x2="316.8948631733641" y2="182.73863066298276" stroke="#1F77B4" stroke-width="1.5" />
<line x1="493.63026615584386" y1="364.98160706510896" x2="487.3507915209061" y2="358.2790131521331" stroke="#1F77B4" stroke-width="1.5" />
<line x1="245.62079463765775" y1="331.75078267665566" x2="238.23387262036323" y2="336.0145607680277" stroke="#1F77B4" stroke-width="1.5" />
<line x1="425.63905320648655" y1="193.8625447400247" x2="412.7352075668264" y2="190.61654355172485" stroke="#1F77B4" stroke-width="1.5" />
<line x1="271.1173158475628" y1="256.1794792918108" x2="260.7790237897507" y2="259.1385011169065" stroke="#1F77B4" stroke-width="1.5" />
<line x1="316.8948631733641" y1="182.73863066298276" x2="303.85008764803615" y2="183.72515906644344" stroke="#1F77B4" stroke-width="1.5" />
<line x1="437.9929716204945" y1="197.61107695678487" x2="425.63905320648655" y2="193.8625447400247" stroke="#1F77B4" stroke-width="1.5" />
<line x1="479.8297874283529" y1="285.2485521521687" x2="471.03936265711224" y2="279.4894474657436" stroke="#1F77B4" stroke-width="1.5" />
<line x1="303.85008764803615" y1="183.72515906644344" x2="291.32200549385345" y2="185.2080055424651" stroke="#1F77B4" stroke-width="1.5" />
<line x1="498.67622727054425" y1="371.9693945017919" x2="493.63026615584386" y2="364.98160706510896" stroke="#1F77B4" stroke-width="1.5" />
<line x1="260.7790237897507" y1="259.1385011169065" x2="251.36522971431245" y2="262.512240628057" stroke="#1F77B4" stroke-width="1.5" />
<line x1="238.23387262036323" y1="336.0145607680277" x2="232.01452919911225" y2="340.5902547968213" stroke="#1F77B4" stroke-width="1.5" />
<line x1="449.6843490465409" y1="201.84284498509942" x2="437.9929716204945" y2="197.61107695678487" stroke="#1F77B4" stroke-width="1.5" />
<line x1="291.32200549385345" y1="185.2080055424651" x2="279.42459915936524" y2="187.16678805123166" stroke="#1F77B4" stroke-width="1.5" />
<line x1="487.5460610488212" y1="291.3804560165589" x2="479.8297874283529" y2="285.2485521521687" stroke="#1F77B4" stroke-width="1.5" />
<line x1="460.60404923393685" y1="206.53444056310957" x2="449.6843490465409" y2="201.84284498509942" stroke="#1F77B4" stroke-width="1.5" />
<line x1="251.36522971431245" y1="262.512240628057" x2="242.97224029189414" y2="266.2637027951989" stroke="#1F77B4" stroke-width="1.5" />
<line x1="502.4245423585577" y1="379.18921348732846" x2="498.67622727054425" y2="371.9693945017919" stroke="#1F77B4" stroke-width="1.5" />
<line x1="232.01452919911225" y1="340.5902547968213" x2="227.03694778933482" y2="345.427938818827" stroke="#1F77B4" stroke-width="1.5" />
<line x1="279.42459915936524" y1="187.16678805123166" x2="268.2686808724179" y2="189.57718301973424" stroke="#1F77B4" stroke-width="1.5" />
<line x1="470.64719309032034" y1="211.65831923419978" x2="460.60404923393685" y2="206.53444056310957" stroke="#1F77B4" stroke-width="1.5" />
<line x1="494.10384080800566" y1="297.8427194258655" x2="487.5460610488212" y2="291.3804560165589" stroke="#1F77B4" stroke-width="1.5" />
<line x1="242.97224029189414" y1="266.2637027951989" x2="235.6898747492046" y2="270.3519012066407" stroke="#1F77B4" stroke-width="1.5" />
<line x1="268.2686808724179" y1="189.57718301973424" x2="257.96112781376206" y2="192.41092881426303" stroke="#1F77B4" stroke-width="1.5" />
<line x1="504.8216898908662" y1="386.58418424723226" x2="502.4245423585577" y2="379.18921348732846" stroke="#1F77B4" stroke-width="1.5" />
<line x1="479.71401119932807" y1="217.1827953142522" x2="470.64719309032034" y2="211.65831923419978" stroke="#1F77B4" stroke-width="1.5" />
<line x1="227.03694778933482" y1="345.427938818827" x2="223.36580089084697" y2="350.474023457568" stroke="#1F77B4" stroke-width="1.5" />
<line x1="499.42702845425845" y1="304.5888172965363" x2="494.10384080800566" y2="297.8427194258655" stroke="#1F77B4" stroke-width="1.5" />
<line x1="257.96112781376206" y1="192.41092881426303" x2="248.60404397310418" y2="195.63584482839147" stroke="#1F77B4" stroke-width="1.5" />
<line x1="235.6898747492046" y1="270.3519012066407" x2="229.60042710825934" y2="274.7319736465586" stroke="#1F77B4" stroke-width="1.5" />
<line x1="505.82588850350726" y1="394.0940650555394" x2="504.8216898908662" y2="386.58418424723226" stroke="#1F77B4" stroke-width="1.5" />
<line x1="487.71077114247936" y1="223.07206330583472" x2="479.71401119932807" y2="217.1827953142522" stroke="#1F77B4" stroke-width="1.5" />
<line x1="223.36580089084697" y1="350.474023457568" x2="221.05510175611232" y2="355.67155282720523" stroke="#1F77B4" stroke-width="1.5" />
<line x1="503.4488817847437" y1="311.56831859414183" x2="499.42702845425845" y2="304.5888172965363" stroke="#1F77B4" stroke-width="1.5" />
<line x1="248.60404397310418" y1="195.63584482839147" x2="240.2938454119054" y2="199.21587399240133" stroke="#1F77B4" stroke-width="1.5" />
<line x1="229.60042710825934" y1="274.7319736465586" x2="224.7775679747236" y2="279.3553483649157" stroke="#1F77B4" stroke-width="1.5" />
<line x1="494.5507775580668" y1="229.28625482676273" x2="487.71077114247936" y2="223.07206330583472" stroke="#1F77B4" stroke-width="1.5" />
<line x1="505.40819869966674" y1="401.6556957787559" x2="505.82588850350726" y2="394.0940650555394" stroke="#1F77B4" stroke-width="1.5" />
<line x1="221.05510175611232" y1="355.67155282720523" x2="220.14705273525144" y2="360.9605789904105" stroke="#1F77B4" stroke-width="1.5" />
<line x1="506.11315775501635" y1="318.727134040712" x2="503.4488817847437" y2="311.56831859414183" stroke="#1F77B4" stroke-width="1.5" />
<line x1="240.2938454119054" y1="199.21587399240133" x2="233.12026949351144" y2="203.11115721821056" stroke="#1F77B4" stroke-width="1.5" />
<line x1="500.15543831027657" y1="235.7815406017406" x2="494.5507775580668" y2="229.28625482676273" stroke="#1F77B4" stroke-width="1.5" />
<line x1="224.7775679747236" y1="279.3553483649157" x2="221.2852002370126" y2="284.16997029415813" stroke="#1F77B4" stroke-width="1.5" />
<line x1="503.5535630049072" y1="409.20353389960263" x2="505.40819869966674" y2="401.6556957787559" stroke="#1F77B4" stroke-width="1.5" />
<line x1="507.37526370657906" y1="326.0078407304834" x2="506.11315775501635" y2="318.727134040712" stroke="#1F77B4" stroke-width="1.5" />
<line x1="220.14705273525144" y1="360.9605789904105" x2="220.67091996503154" y2="366.27862017079656" stroke="#1F77B4" stroke-width="1.5" />
<line x1="233.12026949351144" y1="203.11115721821056" x2="227.16531306952874" y2="207.2781487608549" stroke="#1F77B4" stroke-width="1.5" />
<line x1="504.4553850875445" y1="242.51028721920645" x2="500.15543831027657" y2="235.7815406017406" stroke="#1F77B4" stroke-width="1.5" />
<line x1="500.26174647461636" y1="416.6702849444532" x2="503.5535630049072" y2="409.20353389960263" stroke="#1F77B4" stroke-width="1.5" />
<line x1="221.2852002370126" y1="284.16997029415813" x2="219.17628858433622" y2="289.12059584787505" stroke="#1F77B4" stroke-width="1.5" />
<line x1="494.9705219532706" y1="159.26580623536546" x2="487.84429593442906" y2="153.3074615852884" stroke="#1F77B4" stroke-width="1.5" />
<line x1="507.2033878676" y1="333.3500909216657" x2="507.37526370657906" y2="326.0078407304834" stroke="#1F77B4" stroke-width="1.5" />
<line x1="220.67091996503154" y1="366.27862017079656" x2="222.64196903370672" y2="371.5612066709159" stroke="#1F77B4" stroke-width="1.5" />
<line x1="227.16531306952874" y1="207.2781487608549" x2="222.5021095830115" y2="211.66978163778975" stroke="#1F77B4" stroke-width="1.5" />
<line x1="507.3916313132903" y1="249.4212781058051" x2="504.4553850875445" y2="242.51028721920645" stroke="#1F77B4" stroke-width="1.5" />
<line x1="495.5481365664632" y1="423.98762578235136" x2="500.26174647461636" y2="416.6702849444532" stroke="#1F77B4" stroke-width="1.5" />
<line x1="219.17628858433622" y1="289.12059584787505" x2="218.4916884053305" y2="294.14916380289463" stroke="#1F77B4" stroke-width="1.5" />
<line x1="500.860978172141" y1="165.501050405359" x2="494.9705219532706" y2="159.26580623536546" stroke="#1F77B4" stroke-width="1.5" />
<line x1="505.5795752124683" y1="340.6911102292564" x2="507.2033878676" y2="333.3500909216657" stroke="#1F77B4" stroke-width="1.5" />
<line x1="222.64196903370672" y1="371.5612066709159" x2="226.06050044036365" y2="376.74251557687126" stroke="#1F77B4" stroke-width="1.5" />
<line x1="222.5021095830115" y1="211.66978163778975" x2="219.19376046888863" y2="216.23569203097617" stroke="#1F77B4" stroke-width="1.5" />
<line x1="508.91674460432137" y1="256.46000744453596" x2="507.3916313132903" y2="249.4212781058051" stroke="#1F77B4" stroke-width="1.5" />
<line x1="489.4443600378494" y1="431.0870152973786" x2="495.5481365664632" y2="423.98762578235136" stroke="#1F77B4" stroke-width="1.5" />
<line x1="505.44365398486264" y1="171.9684241854077" x2="500.860978172141" y2="165.501050405359" stroke="#1F77B4" stroke-width="1.5" />
<line x1="218.4916884053305" y1="294.14916380289463" x2="219.25900512735518" y2="299.1952480680679" stroke="#1F77B4" stroke-width="1.5" />
<line x1="502.500710416998" y1="347.9662877784995" x2="505.5795752124683" y2="340.6911102292564" stroke="#1F77B4" stroke-width="1.5" />
<line x1="226.06050044036365" y1="376.74251557687126" x2="230.9110266905347" y2="381.75609190227163" stroke="#1F77B4" stroke-width="1.5" />
<line x1="219.19376046888863" y1="216.23569203097617" x2="217.29214194928102" y2="220.9225109349162" stroke="#1F77B4" stroke-width="1.5" />
<line x1="508.99600538351945" y1="263.56905449474084" x2="508.91674460432137" y2="256.46000744453596" stroke="#1F77B4" stroke-width="1.5" />
<line x1="508.6567974960003" y1="178.6196655865624" x2="505.44365398486264" y2="171.9684241854077" stroke="#1F77B4" stroke-width="1.5" />
<line x1="219.25900512735518" y1="299.1952480680679" x2="221.49152007874656" y2="304.1965958537691" stroke="#1F77B4" stroke-width="1.5" />
<line x1="497.9793664003356" y1="355.10985761595543" x2="502.500710416998" y2="347.9662877784995" stroke="#1F77B4" stroke-width="1.5" />
<line x1="230.9110266905347" y1="381.75609190227163" x2="237.16163433624388" y2="386.5356499293408" stroke="#1F77B4" stroke-width="1.5" />
<line x1="507.608517936715" y1="270.688543915171" x2="508.99600538351945" y2="263.56905449474084" stroke="#1F77B4" stroke-width="1.5" />
<line x1="217.29214194928102" y1="220.9225109349162" x2="216.836714122828" y2="225.67423014476503" stroke="#1F77B4" stroke-width="1.5" />
<line x1="510.45010836592445" y1="185.40328438944977" x2="508.6567974960003" y2="178.6196655865624" stroke="#1F77B4" stroke-width="1.5" />
<line x1="492.04447519617264" y1="362.05566688844715" x2="497.9793664003356" y2="355.10985761595543" stroke="#1F77B4" stroke-width="1.5" />
<line x1="221.49152007874656" y1="304.1965958537691" x2="225.18722313189895" y2="309.08975188218744" stroke="#1F77B4" stroke-width="1.5" />
<line x1="237.16163433624388" y1="386.5356499293408" x2="244.7635738109325" y2="391.01594428809494" stroke="#1F77B4" stroke-width="1.5" />
<line x1="504.7482355469788" y1="277.7566952246416" x2="507.608517936715" y2="270.688543915171" stroke="#1F77B4" stroke-width="1.5" />
<line x1="216.836714122828" y1="225.67423014476503" x2="217.85336485515955" y2="230.4326479557496" stroke="#1F77B4" stroke-width="1.5" />
<line x1="484.7417780189709" y1="368.73802211560775" x2="492.04447519617264" y2="362.05566688844715" stroke="#1F77B4" stroke-width="1.5" />
<line x1="510.785923808909" y1="192.26490237320763" x2="510.45010836592445" y2="185.40328438944977" stroke="#1F77B4" stroke-width="1.5" />
<line x1="225.18722313189895" y1="309.08975188218744" x2="230.32799531279687" y2="313.8107658677046" stroke="#1F77B4" stroke-width="1.5" />
<line x1="244.7635738109325" y1="391.01594428809494" x2="253.651117224816" y2="395.1336959730795" stroke="#1F77B4" stroke-width="1.5" />
<line x1="500.4248577320195" y1="284.71046147384754" x2="504.7482355469788" y2="277.7566952246416" stroke="#1F77B4" stroke-width="1.5" />
<line x1="476.13401370180884" y1="375.0926004804186" x2="484.7417780189709" y2="368.73802211560775" stroke="#1F77B4" stroke-width="1.5" />
<line x1="217.85336485515955" y1="230.4326479557496" x2="220.35332605374893" y2="235.13789764581975" stroke="#1F77B4" stroke-width="1.5" />
<line x1="509.6403642968577" y1="199.1476758333357" x2="510.785923808909" y2="192.26490237320763" stroke="#1F77B4" stroke-width="1.5" />
<line x1="253.651117224816" y1="395.1336959730795" x2="263.74171917702864" y2="398.8285542754679" stroke="#1F77B4" stroke-width="1.5" />
<line x1="230.32799531279687" y1="313.8107658677046" x2="236.87898583751087" y2="318.295976645572" stroke="#1F77B4" stroke-width="1.5" />
<line x1="494.6645554593592" y1="291.48625360750685" x2="500.4248577320195" y2="284.71046147384754" stroke="#1F77B4" stroke-width="1.5" />
<line x1="466.3008093979623" y1="381.05740867589" x2="476.13401370180884" y2="375.0926004804186" stroke="#1F77B4" stroke-width="1.5" />
<line x1="263.74171917702864" y1="398.8285542754679" x2="274.9365080560626" y2="402.04407178513503" stroke="#1F77B4" stroke-width="1.5" />
<line x1="220.35332605374893" y1="235.13789764581975" x2="224.33220406674158" y2="239.7290589484611" stroke="#1F77B4" stroke-width="1.5" />
<line x1="507.00440055883223" y1="205.99280403210253" x2="509.6403642968577" y2="199.1476758333357" stroke="#1F77B4" stroke-width="1.5" />
<line x1="236.87898583751087" y1="318.295976645572" x2="244.78822728438954" y2="322.48286218459896" stroke="#1F77B4" stroke-width="1.5" />
<line x1="455.3382446353061" y1="386.5737677474426" x2="466.3008093979623" y2="381.05740867589" stroke="#1F77B4" stroke-width="1.5" />
<line x1="487.5104799138297" y1="298.02074298027" x2="494.6645554593592" y2="291.48625360750685" stroke="#1F77B4" stroke-width="1.5" />
<line x1="274.9365080560626" y1="402.04407178513503" x2="287.1211253665503" y2="404.72866648707463" stroke="#1F77B4" stroke-width="1.5" />
<line x1="443.3580693937797" y1="391.5872988557805" x2="455.3382446353061" y2="386.5737677474426" stroke="#1F77B4" stroke-width="1.5" />
<line x1="224.33220406674158" y1="239.7290589484611" x2="229.7691687649406" y2="244.1448493444367" stroke="#1F77B4" stroke-width="1.5" />
<line x1="502.884799495537" y1="212.74012437330842" x2="507.00440055883223" y2="205.99280403210253" stroke="#1F77B4" stroke-width="1.5" />
<line x1="244.78822728438954" y1="322.48286218459896" x2="253.98652953049282" y2="326.31094048603046" stroke="#1F77B4" stroke-width="1.5" />
<line x1="287.1211253665503" y1="404.72866648707463" x2="300.16691866354626" y2="406.83654282509445" stroke="#1F77B4" stroke-width="1.5" />
<line x1="479.0230122856615" y1="304.2517302190219" x2="487.5104799138297" y2="298.02074298027" stroke="#1F77B4" stroke-width="1.5" />
<line x1="430.48656854801106" y1="396.0488822509942" x2="443.3580693937797" y2="391.5872988557805" stroke="#1F77B4" stroke-width="1.5" />
<line x1="300.16691866354626" y1="406.83654282509445" x2="313.932480219923" y2="408.3285426825628" stroke="#1F77B4" stroke-width="1.5" />
<line x1="416.86307828527913" y1="399.9155602655764" x2="430.48656854801106" y2="396.0488822509942" stroke="#1F77B4" stroke-width="1.5" />
<line x1="253.98652953049282" y1="326.31094048603046" x2="264.3876874858875" y2="329.72270229144584" stroke="#1F77B4" stroke-width="1.5" />
<line x1="229.7691687649406" y1="244.1448493444367" x2="236.62634693190262" y2="248.32438821077832" stroke="#1F77B4" stroke-width="1.5" />
<line x1="497.3049040679866" y1="219.32879170328957" x2="502.884799495537" y2="212.74012437330842" stroke="#1F77B4" stroke-width="1.5" />
<line x1="313.932480219923" y1="408.3285426825628" x2="328.265509302555" y2="409.17289771987174" stroke="#1F77B4" stroke-width="1.5" />
<line x1="469.2797163838714" y1="310.1190643160438" x2="479.0230122856615" y2="304.2517302190219" stroke="#1F77B4" stroke-width="1.5" />
<line x1="402.6381742946783" y1="403.15135501667584" x2="416.86307828527913" y2="399.9155602655764" stroke="#1F77B4" stroke-width="1.5" />
<line x1="328.265509302555" y1="409.17289771987174" x2="343.00496172932714" y2="409.34585650588775" stroke="#1F77B4" stroke-width="1.5" />
<line x1="387.97156580318824" y1="405.7279728883036" x2="402.6381742946783" y2="403.15135501667584" stroke="#1F77B4" stroke-width="1.5" />
<line x1="343.00496172932714" y1="409.34585650588775" x2="357.98343713532495" y2="408.83216337191726" stroke="#1F77B4" stroke-width="1.5" />
<line x1="373.02974300082684" y1="407.6253707701143" x2="387.97156580318824" y2="405.7279728883036" stroke="#1F77B4" stroke-width="1.5" />
<line x1="357.98343713532495" y1="408.83216337191726" x2="373.02974300082684" y2="407.6253707701143" stroke="#1F77B4" stroke-width="1.5" />
<line x1="264.3876874858875" y1="329.72270229144584" x2="275.889029519575" y2="332.6645528742823" stroke="#1F77B4" stroke-width="1.5" />
<line x1="458.37496277083665" y1="315.5655917524527" x2="469.2797163838714" y2="310.1190643160438" stroke="#1F77B4" stroke-width="1.5" />
<line x1="490.30520148461505" y1="225.69803531015924" x2="497.3049040679866" y2="219.32879170328957" stroke="#1F77B4" stroke-width="1.5" />
<line x1="236.62634693190262" y1="248.32438821077832" x2="244.8484645192868" y2="252.2080228149976" stroke="#1F77B4" stroke-width="1.5" />
<line x1="275.889029519575" y1="332.6645528742823" x2="288.37232294457414" y2="335.08773726176616" stroke="#1F77B4" stroke-width="1.5" />
<line x1="446.41920249761046" y1="320.5381118772293" x2="458.37496277083665" y2="315.5655917524527" stroke="#1F77B4" stroke-width="1.5" />
<line x1="481.9436354705741" y1="231.7879830745532" x2="490.30520148461505" y2="225.69803531015924" stroke="#1F77B4" stroke-width="1.5" />
<line x1="244.8484645192868" y1="252.2080228149976" x2="254.36277882387907" y2="255.7382010346296" stroke="#1F77B4" stroke-width="1.5" />
<line x1="288.37232294457414" y1="335.08773726176616" x2="301.70504038238084" y2="336.9492213035965" stroke="#1F77B4" stroke-width="1.5" />
<line x1="433.53788013330245" y1="324.98831199755244" x2="446.41920249761046" y2="320.5381118772293" stroke="#1F77B4" stroke-width="1.5" />
<line x1="301.70504038238084" y1="336.9492213035965" x2="315.7419768295117" y2="338.21250030767277" stroke="#1F77B4" stroke-width="1.5" />
<line x1="419.8699891542263" y1="328.87365394413376" x2="433.53788013330245" y2="324.98831199755244" stroke="#1F77B4" stroke-width="1.5" />
<line x1="472.2956223381834" y1="237.54053802029046" x2="481.9436354705741" y2="231.7879830745532" stroke="#1F77B4" stroke-width="1.5" />
<line x1="254.36277882387907" y1="255.7382010346296" x2="265.07933553513556" y2="258.8603717617622" stroke="#1F77B4" stroke-width="1.5" />
<line x1="315.7419768295117" y1="338.21250030767277" x2="330.327192553027" y2="338.8483076707226" stroke="#1F77B4" stroke-width="1.5" />
<line x1="405.5662872218725" y1="332.1581834847844" x2="419.8699891542263" y2="328.87365394413376" stroke="#1F77B4" stroke-width="1.5" />
<line x1="330.327192553027" y1="338.8483076707226" x2="345.2962424327418" y2="338.83519812005403" stroke="#1F77B4" stroke-width="1.5" />
<line x1="390.78720360580957" y1="334.81323501799153" x2="405.5662872218725" y2="332.1581834847844" stroke="#1F77B4" stroke-width="1.5" />
<line x1="345.2962424327418" y1="338.83519812005403" x2="360.4786389944343" y2="338.15998381990414" stroke="#1F77B4" stroke-width="1.5" />
<line x1="375.7004850706473" y1="336.81800653413006" x2="390.78720360580957" y2="334.81323501799153" stroke="#1F77B4" stroke-width="1.5" />
<line x1="360.4786389944343" y1="338.15998381990414" x2="375.7004850706473" y2="336.81800653413006" stroke="#1F77B4" stroke-width="1.5" />
<line x1="461.4537371366206" y1="242.9002884694712" x2="472.2956223381834" y2="237.54053802029046" stroke="#1F77B4" stroke-width="1.5" />
<line x1="265.07933553513556" y1="258.8603717617622" x2="276.89157688085555" y2="261.5238904929033" stroke="#1F77B4" stroke-width="1.5" />
<line x1="449.5270453164924" y1="247.81542940131436" x2="461.4537371366206" y2="242.9002884694712" stroke="#1F77B4" stroke-width="1.5" />
<line x1="276.89157688085555" y1="261.5238904929033" x2="289.6773159561983" y2="263.6829048890224" stroke="#1F77B4" stroke-width="1.5" />
<line x1="436.6400668718172" y1="252.23866973569895" x2="449.5270453164924" y2="247.81542940131436" stroke="#1F77B4" stroke-width="1.5" />
<line x1="289.6773159561983" y1="263.6829048890224" x2="303.3000791658595" y2="265.2971933855979" stroke="#1F77B4" stroke-width="1.5" />
<line x1="422.9313733724689" y1="256.1280983845045" x2="436.6400668718172" y2="252.23866973569895" stroke="#1F77B4" stroke-width="1.5" />
<line x1="303.3000791658595" y1="265.2971933855979" x2="317.61080416016966" y2="266.33292946138255" stroke="#1F77B4" stroke-width="1.5" />
<line x1="408.55183302040507" y1="259.44798126760094" x2="422.9313733724689" y2="256.1280983845045" stroke="#1F77B4" stroke-width="1.5" />
<line x1="317.61080416016966" y1="266.33292946138255" x2="332.4498655045279" y2="266.7633450902973" stroke="#1F77B4" stroke-width="1.5" />
<line x1="393.66253402461336" y1="262.16946223676257" x2="408.55183302040507" y2="259.44798126760094" stroke="#1F77B4" stroke-width="1.5" />
<line x1="332.4498655045279" y1="266.7633450902973" x2="347.64938551812565" y2="266.56926926289924" stroke="#1F77B4" stroke-width="1.5" />
<line x1="378.43243124680106" y1="264.27114305740304" x2="393.66253402461336" y2="262.16946223676257" stroke="#1F77B4" stroke-width="1.5" />
<line x1="347.64938551812565" y1="266.56926926289924" x2="363.03577423682856" y2="265.7395212229184" stroke="#1F77B4" stroke-width="1.5" />
<line x1="363.03577423682856" y1="265.7395212229184" x2="378.43243124680106" y2="264.27114305740304" stroke="#1F77B4" stroke-width="1.5" />
</g>
</g>
<line x1="184.6394448344461" y1="443.57678789467514" x2="183.31998135933642" y2="448.25540065621243" stroke="#262626" stroke-width="1.1111111111111112" />
<path d="M0.678168 -4.36062L4.3335 -4.36062L4.3335 -3.24843L0.678168 -3.24843L0.678168 -4.36062ZM9.42654 -9.22309Q8.3686 -9.22309 7.83624 -8.1821Q7.30387 -7.14111 7.30387 -5.05235Q7.30387 -2.97038 7.83624 -1.92939Q8.3686 -0.888401 9.42654 -0.888401Q10.4913 -0.888401 11.0236 -1.92939Q11.556 -2.97038 11.556 -5.05235Q11.556 -7.14111 11.0236 -8.1821Q10.4913 -9.22309 9.42654 -9.22309ZM9.42654 -10.3082Q11.1287 -10.3082 12.0273 -8.962Q12.9259 -7.61583 12.9259 -5.05235Q12.9259 -2.49566 12.0273 -1.1495Q11.1287 0.196669 9.42654 0.196669Q7.72434 0.196669 6.82577 -1.1495Q5.92719 -2.49566 5.92719 -5.05235Q5.92719 -7.61583 6.82577 -8.962Q7.72434 -10.3082 9.42654 -10.3082ZM15.3334 -1.72255L16.7643 -1.72255L16.7643 0L15.3334 0L15.3334 -1.72255ZM19.4024 -10.1251L25.9128 -10.1251L25.9128 -9.54183L22.2371 0L20.8062 0L24.2649 -8.97217L19.4024 -8.97217L19.4024 -10.1251ZM28.5984 -10.1251L33.9762 -10.1251L33.9762 -8.97217L29.853 -8.97217L29.853 -6.49007Q30.1514 -6.5918 30.4498 -6.64266Q30.7482 -6.69352 31.0466 -6.69352Q32.742 -6.69352 33.7321 -5.76443Q34.7222 -4.83534 34.7222 -3.24843Q34.7222 -1.61404 33.705 -0.708686Q32.6877 0.196669 30.8363 0.196669Q30.1988 0.196669 29.5376 0.0881619C29.0968 0.0158239 28.6413 -0.092683 28.1711 -0.237359L28.1711 -1.61404Q28.7815 -1.28174 29.4325 -1.11898Q30.0836 -0.956217 30.8092 -0.956217Q31.9824 -0.956217 32.6674 -1.57335Q33.3523 -2.19048 33.3523 -3.24843Q33.3523 -4.30637 32.6674 -4.9235Q31.9824 -5.54064 30.8092 -5.54064Q30.2599 -5.54064 29.714 -5.41857Q29.168 -5.2965 28.5984 -5.03879L28.5984 -10.1251Z" fill="#262626" transform="translate(178.20046307591085,466.408418170977) translate(-17.96807289123535,0)" />
<line x1="215.41968382464657" y1="452.257438158488" x2="214.1002203495369" y2="456.9360509200253" stroke="#262626" stroke-width="1.1111111111111112" />
<path d="M0.678168 -4.36062L4.3335 -4.36062L4.3335 -3.24843L0.678168 -3.24843L0.678168 -4.36062ZM9.42654 -9.22309Q8.3686 -9.22309 7.83624 -8.1821Q7.30387 -7.14111 7.30387 -5.05235Q7.30387 -2.97038 7.83624 -1.92939Q8.3686 -0.888401 9.42654 -0.888401Q10.4913 -0.888401 11.0236 -1.92939Q11.556 -2.97038 11.556 -5.05235Q11.556 -7.14111 11.0236 -8.1821Q10.4913 -9.22309 9.42654 -9.22309ZM9.42654 -10.3082Q11.1287 -10.3082 12.0273 -8.962Q12.9259 -7.61583 12.9259 -5.05235Q12.9259 -2.49566 12.0273 -1.1495Q11.1287 0.196669 9.42654 0.196669Q7.72434 0.196669 6.82577 -1.1495Q5.92719 -2.49566 5.92719 -5.05235Q5.92719 -7.61583 6.82577 -8.962Q7.72434 -10.3082 9.42654 -10.3082ZM15.3334 -1.72255L16.7643 -1.72255L16.7643 0L15.3334 0L15.3334 -1.72255ZM19.7618 -10.1251L25.1397 -10.1251L25.1397 -8.97217L21.0164 -8.97217L21.0164 -6.49007Q21.3148 -6.5918 21.6132 -6.64266Q21.9116 -6.69352 22.21 -6.69352Q23.9054 -6.69352 24.8956 -5.76443Q25.8857 -4.83534 25.8857 -3.24843Q25.8857 -1.61404 24.8684 -0.708686Q23.8512 0.196669 21.9998 0.196669Q21.3623 0.196669 20.7011 0.0881619C20.2603 0.0158239 19.8048 -0.092683 19.3346 -0.237359L19.3346 -1.61404Q19.9449 -1.28174 20.596 -1.11898Q21.247 -0.956217 21.9727 -0.956217Q23.1459 -0.956217 23.8308 -1.57335Q24.5158 -2.19048 24.5158 -3.24843Q24.5158 -4.30637 23.8308 -4.9235Q23.1459 -5.54064 21.9727 -5.54064Q21.4233 -5.54064 20.8774 -5.41857Q20.3315 -5.2965 19.7618 -5.03879L19.7618 -10.1251ZM31.5145 -9.22309Q30.4565 -9.22309 29.9242 -8.1821Q29.3918 -7.14111 29.3918 -5.05235Q29.3918 -2.97038 29.9242 -1.92939Q30.4565 -0.888401 31.5145 -0.888401Q32.5792 -0.888401 33.1116 -1.92939Q33.6439 -2.97038 33.6439 -5.05235Q33.6439 -7.14111 33.1116 -8.1821Q32.5792 -9.22309 31.5145 -9.22309ZM31.5145 -10.3082Q33.2167 -10.3082 34.1153 -8.962Q35.0138 -7.61583 35.0138 -5.05235Q35.0138 -2.49566 34.1153 -1.1495Q33.2167 0.196669 31.5145 0.196669Q29.8123 0.196669 28.9137 -1.1495Q28.0151 -2.49566 28.0151 -5.05235Q28.0151 -7.61583 28.9137 -8.962Q29.8123 -10.3082 31.5145 -10.3082Z" fill="#262626" transform="translate(208.98070206611132,475.08906843478985) translate(-17.96807289123535,0)" />
<line x1="246.57035636212305" y1="461.04255817872183" x2="245.25089288701338" y2="465.7211709402591" stroke="#262626" stroke-width="1.1111111111111112" />
<path d="M0.678168 -4.36062L4.3335 -4.36062L4.3335 -3.24843L0.678168 -3.24843L0.678168 -4.36062ZM9.42654 -9.22309Q8.3686 -9.22309 7.83624 -8.1821Q7.30387 -7.14111 7.30387 -5.05235Q7.30387 -2.97038 7.83624 -1.92939Q8.3686 -0.888401 9.42654 -0.888401Q10.4913 -0.888401 11.0236 -1.92939Q11.556 -2.97038 11.556 -5.05235Q11.556 -7.14111 11.0236 -8.1821Q10.4913 -9.22309 9.42654 -9.22309ZM9.42654 -10.3082Q11.1287 -10.3082 12.0273 -8.962Q12.9259 -7.61583 12.9259 -5.05235Q12.9259 -2.49566 12.0273 -1.1495Q11.1287 0.196669 9.42654 0.196669Q7.72434 0.196669 6.82577 -1.1495Q5.92719 -2.49566 5.92719 -5.05235Q5.92719 -7.61583 6.82577 -8.962Q7.72434 -10.3082 9.42654 -10.3082ZM15.3334 -1.72255L16.7643 -1.72255L16.7643 0L15.3334 0L15.3334 -1.72255ZM20.9283 -1.15289L25.7094 -1.15289L25.7094 0L19.2803 0L19.2803 -1.15289Q20.0602 -1.95991 21.4064 -3.31963Q22.7526 -4.67936 23.0984 -5.0727Q23.7562 -5.8119 24.0173 -6.32392Q24.2784 -6.83594 24.2784 -7.331Q24.2784 -8.13802 23.7122 -8.64665Q23.1459 -9.15527 22.2371 -9.15527Q21.5929 -9.15527 20.8774 -8.93148Q20.1619 -8.70768 19.3481 -8.25331L19.3481 -9.63677Q20.1755 -9.96908 20.8944 -10.1386Q21.6132 -10.3082 22.21 -10.3082Q23.7834 -10.3082 24.7192 -9.52148Q25.6551 -8.73481 25.6551 -7.41916Q25.6551 -6.79525 25.4211 -6.23576Q25.1872 -5.67627 24.57 -4.91672Q24.4005 -4.72005 23.4918 -3.78079Q22.583 -2.84153 20.9283 -1.15289ZM28.5984 -10.1251L33.9762 -10.1251L33.9762 -8.97217L29.853 -8.97217L29.853 -6.49007Q30.1514 -6.5918 30.4498 -6.64266Q30.7482 -6.69352 31.0466 -6.69352Q32.742 -6.69352 33.7321 -5.76443Q34.7222 -4.83534 34.7222 -3.24843Q34.7222 -1.61404 33.705 -0.708686Q32.6877 0.196669 30.8363 0.196669Q30.1988 0.196669 29.5376 0.0881619C29.0968 0.0158239 28.6413 -0.092683 28.1711 -0.237359L28.1711 -1.61404Q28.7815 -1.28174 29.4325 -1.11898Q30.0836 -0.956217 30.8092 -0.956217Q31.9824 -0.956217 32.6674 -1.57335Q33.3523 -2.19048 33.3523 -3.24843Q33.3523 -4.30637 32.6674 -4.9235Q31.9824 -5.54064 30.8092 -5.54064Q30.2599 -5.54064 29.714 -5.41857Q29.168 -5.2965 28.5984 -5.03879L28.5984 -10.1251Z" fill="#262626" transform="translate(240.1313746035878,483.87418845502367) translate(-17.96807289123535,0)" />
<line x1="278.098190061517" y1="469.93404527884553" x2="276.77872658640734" y2="474.6126580403828" stroke="#262626" stroke-width="1.1111111111111112" />
<path d="M4.41488 -9.22309Q3.35693 -9.22309 2.82457 -8.1821Q2.29221 -7.14111 2.29221 -5.05235Q2.29221 -2.97038 2.82457 -1.92939Q3.35693 -0.888401 4.41488 -0.888401Q5.4796 -0.888401 6.01196 -1.92939Q6.54433 -2.97038 6.54433 -5.05235Q6.54433 -7.14111 6.01196 -8.1821Q5.4796 -9.22309 4.41488 -9.22309ZM4.41488 -10.3082Q6.11708 -10.3082 7.01565 -8.962Q7.91422 -7.61583 7.91423 -5.05235Q7.91423 -2.49566 7.01565 -1.1495Q6.11708 0.196669 4.41488 0.196669Q2.71267 0.196669 1.8141 -1.1495Q0.915527 -2.49566 0.915527 -5.05235Q0.915527 -7.61583 1.8141 -8.962Q2.71267 -10.3082 4.41488 -10.3082ZM10.3217 -1.72255L11.7527 -1.72255L11.7527 0L10.3217 0L10.3217 -1.72255ZM17.6663 -9.22309Q16.6083 -9.22309 16.076 -8.1821Q15.5436 -7.14111 15.5436 -5.05235Q15.5436 -2.97038 16.076 -1.92939Q16.6083 -0.888401 17.6663 -0.888401Q18.731 -0.888401 19.2634 -1.92939Q19.7957 -2.97038 19.7957 -5.05235Q19.7957 -7.14111 19.2634 -8.1821Q18.731 -9.22309 17.6663 -9.22309ZM17.6663 -10.3082Q19.3685 -10.3082 20.2671 -8.962Q21.1656 -7.61583 21.1656 -5.05235Q21.1656 -2.49566 20.2671 -1.1495Q19.3685 0.196669 17.6663 0.196669Q15.9641 0.196669 15.0655 -1.1495Q14.1669 -2.49566 14.1669 -5.05235Q14.1669 -7.61583 15.0655 -8.962Q15.9641 -10.3082 17.6663 -10.3082ZM26.5028 -9.22309Q25.4449 -9.22309 24.9125 -8.1821Q24.3802 -7.14111 24.3802 -5.05235Q24.3802 -2.97038 24.9125 -1.92939Q25.4449 -0.888401 26.5028 -0.888401Q27.5675 -0.888401 28.0999 -1.92939Q28.6323 -2.97038 28.6323 -5.05235Q28.6323 -7.14111 28.0999 -8.1821Q27.5675 -9.22309 26.5028 -9.22309ZM26.5028 -10.3082Q28.205 -10.3082 29.1036 -8.962Q30.0022 -7.61583 30.0022 -5.05235Q30.0022 -2.49566 29.1036 -1.1495Q28.205 0.196669 26.5028 0.196669Q24.8006 0.196669 23.902 -1.1495Q23.0035 -2.49566 23.0035 -5.05235Q23.0035 -7.61583 23.902 -8.962Q24.8006 -10.3082 26.5028 -10.3082Z" fill="#262626" transform="translate(271.65920830298177,492.76567555514737) translate(-15.462240219116211,0)" />
<line x1="310.0100764407979" y1="478.9338430063831" x2="308.6906129656882" y2="483.6124557679204" stroke="#262626" stroke-width="1.1111111111111112" />
<path d="M4.41488 -9.22309Q3.35693 -9.22309 2.82457 -8.1821Q2.29221 -7.14111 2.29221 -5.05235Q2.29221 -2.97038 2.82457 -1.92939Q3.35693 -0.888401 4.41488 -0.888401Q5.4796 -0.888401 6.01196 -1.92939Q6.54433 -2.97038 6.54433 -5.05235Q6.54433 -7.14111 6.01196 -8.1821Q5.4796 -9.22309 4.41488 -9.22309ZM4.41488 -10.3082Q6.11708 -10.3082 7.01565 -8.962Q7.91422 -7.61583 7.91423 -5.05235Q7.91423 -2.49566 7.01565 -1.1495Q6.11708 0.196669 4.41488 0.196669Q2.71267 0.196669 1.8141 -1.1495Q0.915527 -2.49566 0.915527 -5.05235Q0.915527 -7.61583 1.8141 -8.962Q2.71267 -10.3082 4.41488 -10.3082ZM10.3217 -1.72255L11.7527 -1.72255L11.7527 0L10.3217 0L10.3217 -1.72255ZM15.9166 -1.15289L20.6977 -1.15289L20.6977 0L14.2687 0L14.2687 -1.15289Q15.0486 -1.95991 16.3947 -3.31963Q17.7409 -4.67936 18.0868 -5.0727Q18.7446 -5.8119 19.0057 -6.32392Q19.2668 -6.83594 19.2668 -7.331Q19.2668 -8.13802 18.7005 -8.64665Q18.1342 -9.15527 17.2255 -9.15527Q16.5812 -9.15527 15.8658 -8.93148Q15.1503 -8.70768 14.3365 -8.25331L14.3365 -9.63677Q15.1638 -9.96908 15.8827 -10.1386Q16.6016 -10.3082 17.1984 -10.3082Q18.7717 -10.3082 19.7076 -9.52148Q20.6434 -8.73481 20.6434 -7.41916Q20.6434 -6.79525 20.4095 -6.23576Q20.1755 -5.67627 19.5584 -4.91672Q19.3888 -4.72005 18.4801 -3.78079Q17.5713 -2.84153 15.9166 -1.15289ZM23.5867 -10.1251L28.9646 -10.1251L28.9646 -8.97217L24.8413 -8.97217L24.8413 -6.49007Q25.1397 -6.5918 25.4381 -6.64266Q25.7365 -6.69352 26.0349 -6.69352Q27.7303 -6.69352 28.7204 -5.76443Q29.7106 -4.83534 29.7106 -3.24843Q29.7106 -1.61404 28.6933 -0.708686Q27.6761 0.196669 25.8247 0.196669Q25.1872 0.196669 24.526 0.0881619C24.0852 0.0158239 23.6296 -0.092683 23.1595 -0.237359L23.1595 -1.61404Q23.7698 -1.28174 24.4208 -1.11898Q25.0719 -0.956217 25.7975 -0.956217Q26.9708 -0.956217 27.6557 -1.57335Q28.3407 -2.19048 28.3407 -3.24843Q28.3407 -4.30637 27.6557 -4.9235Q26.9708 -5.54064 25.7975 -5.54064Q25.2482 -5.54064 24.7023 -5.41857Q24.1564 -5.2965 23.5867 -5.03879L23.5867 -10.1251Z" fill="#262626" transform="translate(303.57109468226264,501.7654732826849) translate(-15.462240219116211,0)" />
<line x1="342.31307594327427" y1="488.04394254922266" x2="340.9936124681646" y2="492.72255531075996" stroke="#262626" stroke-width="1.1111111111111112" />
<path d="M4.41488 -9.22309Q3.35693 -9.22309 2.82457 -8.1821Q2.29221 -7.14111 2.29221 -5.05235Q2.29221 -2.97038 2.82457 -1.92939Q3.35693 -0.888401 4.41488 -0.888401Q5.4796 -0.888401 6.01196 -1.92939Q6.54433 -2.97038 6.54433 -5.05235Q6.54433 -7.14111 6.01196 -8.1821Q5.4796 -9.22309 4.41488 -9.22309ZM4.41488 -10.3082Q6.11708 -10.3082 7.01565 -8.962Q7.91422 -7.61583 7.91423 -5.05235Q7.91423 -2.49566 7.01565 -1.1495Q6.11708 0.196669 4.41488 0.196669Q2.71267 0.196669 1.8141 -1.1495Q0.915527 -2.49566 0.915527 -5.05235Q0.915527 -7.61583 1.8141 -8.962Q2.71267 -10.3082 4.41488 -10.3082ZM10.3217 -1.72255L11.7527 -1.72255L11.7527 0L10.3217 0L10.3217 -1.72255ZM14.7502 -10.1251L20.128 -10.1251L20.128 -8.97217L16.0048 -8.97217L16.0048 -6.49007Q16.3032 -6.5918 16.6016 -6.64266Q16.9 -6.69352 17.1984 -6.69352Q18.8938 -6.69352 19.8839 -5.76443Q20.874 -4.83534 20.874 -3.24843Q20.874 -1.61404 19.8568 -0.708686Q18.8395 0.196669 16.9881 0.196669Q16.3506 0.196669 15.6894 0.0881619C15.2486 0.0158239 14.7931 -0.092683 14.3229 -0.237359L14.3229 -1.61404Q14.9333 -1.28174 15.5843 -1.11898Q16.2354 -0.956217 16.961 -0.956217Q18.1342 -0.956217 18.8192 -1.57335Q19.5041 -2.19048 19.5041 -3.24843Q19.5041 -4.30637 18.8192 -4.9235Q18.1342 -5.54064 16.961 -5.54064Q16.4117 -5.54064 15.8658 -5.41857Q15.3198 -5.2965 14.7502 -5.03879L14.7502 -10.1251ZM26.5028 -9.22309Q25.4449 -9.22309 24.9125 -8.1821Q24.3802 -7.14111 24.3802 -5.05235Q24.3802 -2.97038 24.9125 -1.92939Q25.4449 -0.888401 26.5028 -0.888401Q27.5675 -0.888401 28.0999 -1.92939Q28.6323 -2.97038 28.6323 -5.05235Q28.6323 -7.14111 28.0999 -8.1821Q27.5675 -9.22309 26.5028 -9.22309ZM26.5028 -10.3082Q28.205 -10.3082 29.1036 -8.962Q30.0022 -7.61583 30.0022 -5.05235Q30.0022 -2.49566 29.1036 -1.1495Q28.205 0.196669 26.5028 0.196669Q24.8006 0.196669 23.902 -1.1495Q23.0035 -2.49566 23.0035 -5.05235Q23.0035 -7.61583 23.902 -8.962Q24.8006 -10.3082 26.5028 -10.3082Z" fill="#262626" transform="translate(335.874094184739,510.8755728255245) translate(-15.462240219116211,0)" />
<line x1="375.0144231453938" y1="497.2663842043212" x2="373.6949596702841" y2="501.9449969658585" stroke="#262626" stroke-width="1.1111111111111112" />
<path d="M4.41488 -9.22309Q3.35693 -9.22309 2.82457 -8.1821Q2.29221 -7.14111 2.29221 -5.05235Q2.29221 -2.97038 2.82457 -1.92939Q3.35693 -0.888401 4.41488 -0.888401Q5.4796 -0.888401 6.01196 -1.92939Q6.54433 -2.97038 6.54433 -5.05235Q6.54433 -7.14111 6.01196 -8.1821Q5.4796 -9.22309 4.41488 -9.22309ZM4.41488 -10.3082Q6.11708 -10.3082 7.01565 -8.962Q7.91422 -7.61583 7.91423 -5.05235Q7.91423 -2.49566 7.01565 -1.1495Q6.11708 0.196669 4.41488 0.196669Q2.71267 0.196669 1.8141 -1.1495Q0.915527 -2.49566 0.915527 -5.05235Q0.915527 -7.61583 1.8141 -8.962Q2.71267 -10.3082 4.41488 -10.3082ZM10.3217 -1.72255L11.7527 -1.72255L11.7527 0L10.3217 0L10.3217 -1.72255ZM14.3907 -10.1251L20.9012 -10.1251L20.9012 -9.54183L17.2255 0L15.7945 0L19.2532 -8.97217L14.3907 -8.97217L14.3907 -10.1251ZM23.5867 -10.1251L28.9646 -10.1251L28.9646 -8.97217L24.8413 -8.97217L24.8413 -6.49007Q25.1397 -6.5918 25.4381 -6.64266Q25.7365 -6.69352 26.0349 -6.69352Q27.7303 -6.69352 28.7204 -5.76443Q29.7106 -4.83534 29.7106 -3.24843Q29.7106 -1.61404 28.6933 -0.708686Q27.6761 0.196669 25.8247 0.196669Q25.1872 0.196669 24.526 0.0881619C24.0852 0.0158239 23.6296 -0.092683 23.1595 -0.237359L23.1595 -1.61404Q23.7698 -1.28174 24.4208 -1.11898Q25.0719 -0.956217 25.7975 -0.956217Q26.9708 -0.956217 27.6557 -1.57335Q28.3407 -2.19048 28.3407 -3.24843Q28.3407 -4.30637 27.6557 -4.9235Q26.9708 -5.54064 25.7975 -5.54064Q25.2482 -5.54064 24.7023 -5.41857Q24.1564 -5.2965 23.5867 -5.03879L23.5867 -10.1251Z" fill="#262626" transform="translate(368.57544138685853,520.0980144806231) translate(-15.462240219116211,0)" />
<line x1="408.1215321583995" y1="506.60325890108123" x2="406.8020686832898" y2="511.2818716626185" stroke="#262626" stroke-width="1.1111111111111112" />
<path d="M1.72255 -1.15289L3.9605 -1.15289L3.9605 -8.87722L1.52588 -8.38894L1.52588 -9.63677L3.94694 -10.1251L5.31684 -10.1251L5.31684 -1.15289L7.5548 -1.15289L7.5548 0L1.72255 0L1.72255 -1.15289ZM10.3217 -1.72255L11.7527 -1.72255L11.7527 0L10.3217 0L10.3217 -1.72255ZM17.6663 -9.22309Q16.6083 -9.22309 16.076 -8.1821Q15.5436 -7.14111 15.5436 -5.05235Q15.5436 -2.97038 16.076 -1.92939Q16.6083 -0.888401 17.6663 -0.888401Q18.731 -0.888401 19.2634 -1.92939Q19.7957 -2.97038 19.7957 -5.05235Q19.7957 -7.14111 19.2634 -8.1821Q18.731 -9.22309 17.6663 -9.22309ZM17.6663 -10.3082Q19.3685 -10.3082 20.2671 -8.962Q21.1656 -7.61583 21.1656 -5.05235Q21.1656 -2.49566 20.2671 -1.1495Q19.3685 0.196669 17.6663 0.196669Q15.9641 0.196669 15.0655 -1.1495Q14.1669 -2.49566 14.1669 -5.05235Q14.1669 -7.61583 15.0655 -8.962Q15.9641 -10.3082 17.6663 -10.3082ZM26.5028 -9.22309Q25.4449 -9.22309 24.9125 -8.1821Q24.3802 -7.14111 24.3802 -5.05235Q24.3802 -2.97038 24.9125 -1.92939Q25.4449 -0.888401 26.5028 -0.888401Q27.5675 -0.888401 28.0999 -1.92939Q28.6323 -2.97038 28.6323 -5.05235Q28.6323 -7.14111 28.0999 -8.1821Q27.5675 -9.22309 26.5028 -9.22309ZM26.5028 -10.3082Q28.205 -10.3082 29.1036 -8.962Q30.0022 -7.61583 30.0022 -5.05235Q30.0022 -2.49566 29.1036 -1.1495Q28.205 0.196669 26.5028 0.196669Q24.8006 0.196669 23.902 -1.1495Q23.0035 -2.49566 23.0035 -5.05235Q23.0035 -7.61583 23.902 -8.962Q24.8006 -10.3082 26.5028 -10.3082Z" fill="#262626" transform="translate(401.6825503998642,529.4348891773831) translate(-15.462240219116211,0)" />
<line x1="456.347978792022" y1="486.5847205161932" x2="459.57655824563426" y2="490.2188195718438" stroke="#262626" stroke-width="1.1111111111111112" />
<path d="M0.678168 -4.36062L4.3335 -4.36062L4.3335 -3.24843L0.678168 -3.24843L0.678168 -4.36062ZM9.42654 -9.22309Q8.3686 -9.22309 7.83624 -8.1821Q7.30387 -7.14111 7.30387 -5.05235Q7.30387 -2.97038 7.83624 -1.92939Q8.3686 -0.888401 9.42654 -0.888401Q10.4913 -0.888401 11.0236 -1.92939Q11.556 -2.97038 11.556 -5.05235Q11.556 -7.14111 11.0236 -8.1821Q10.4913 -9.22309 9.42654 -9.22309ZM9.42654 -10.3082Q11.1287 -10.3082 12.0273 -8.962Q12.9259 -7.61583 12.9259 -5.05235Q12.9259 -2.49566 12.0273 -1.1495Q11.1287 0.196669 9.42654 0.196669Q7.72434 0.196669 6.82577 -1.1495Q5.92719 -2.49566 5.92719 -5.05235Q5.92719 -7.61583 6.82577 -8.962Q7.72434 -10.3082 9.42654 -10.3082ZM15.3334 -1.72255L16.7643 -1.72255L16.7643 0L15.3334 0L15.3334 -1.72255ZM19.4024 -10.1251L25.9128 -10.1251L25.9128 -9.54183L22.2371 0L20.8062 0L24.2649 -8.97217L19.4024 -8.97217L19.4024 -10.1251ZM28.5984 -10.1251L33.9762 -10.1251L33.9762 -8.97217L29.853 -8.97217L29.853 -6.49007Q30.1514 -6.5918 30.4498 -6.64266Q30.7482 -6.69352 31.0466 -6.69352Q32.742 -6.69352 33.7321 -5.76443Q34.7222 -4.83534 34.7222 -3.24843Q34.7222 -1.61404 33.705 -0.708686Q32.6877 0.196669 30.8363 0.196669Q30.1988 0.196669 29.5376 0.0881619C29.0968 0.0158239 28.6413 -0.092683 28.1711 -0.237359L28.1711 -1.61404Q28.7815 -1.28174 29.4325 -1.11898Q30.0836 -0.956217 30.8092 -0.956217Q31.9824 -0.956217 32.6674 -1.57335Q33.3523 -2.19048 33.3523 -3.24843Q33.3523 -4.30637 32.6674 -4.9235Q31.9824 -5.54064 30.8092 -5.54064Q30.2599 -5.54064 29.714 -5.41857Q29.168 -5.2965 28.5984 -5.03879L28.5984 -10.1251Z" fill="#262626" transform="translate(472.10344652564976,504.31912390776824) translate(-17.96807289123535,0)" />
<line x1="473.9994343697814" y1="470.90294466693786" x2="477.22801382339367" y2="474.53704372258846" stroke="#262626" stroke-width="1.1111111111111112" />
<path d="M0.678168 -4.36062L4.3335 -4.36062L4.3335 -3.24843L0.678168 -3.24843L0.678168 -4.36062ZM9.42654 -9.22309Q8.3686 -9.22309 7.83624 -8.1821Q7.30387 -7.14111 7.30387 -5.05235Q7.30387 -2.97038 7.83624 -1.92939Q8.3686 -0.888401 9.42654 -0.888401Q10.4913 -0.888401 11.0236 -1.92939Q11.556 -2.97038 11.556 -5.05235Q11.556 -7.14111 11.0236 -8.1821Q10.4913 -9.22309 9.42654 -9.22309ZM9.42654 -10.3082Q11.1287 -10.3082 12.0273 -8.962Q12.9259 -7.61583 12.9259 -5.05235Q12.9259 -2.49566 12.0273 -1.1495Q11.1287 0.196669 9.42654 0.196669Q7.72434 0.196669 6.82577 -1.1495Q5.92719 -2.49566 5.92719 -5.05235Q5.92719 -7.61583 6.82577 -8.962Q7.72434 -10.3082 9.42654 -10.3082ZM15.3334 -1.72255L16.7643 -1.72255L16.7643 0L15.3334 0L15.3334 -1.72255ZM19.7618 -10.1251L25.1397 -10.1251L25.1397 -8.97217L21.0164 -8.97217L21.0164 -6.49007Q21.3148 -6.5918 21.6132 -6.64266Q21.9116 -6.69352 22.21 -6.69352Q23.9054 -6.69352 24.8956 -5.76443Q25.8857 -4.83534 25.8857 -3.24843Q25.8857 -1.61404 24.8684 -0.708686Q23.8512 0.196669 21.9998 0.196669Q21.3623 0.196669 20.7011 0.0881619C20.2603 0.0158239 19.8048 -0.092683 19.3346 -0.237359L19.3346 -1.61404Q19.9449 -1.28174 20.596 -1.11898Q21.247 -0.956217 21.9727 -0.956217Q23.1459 -0.956217 23.8308 -1.57335Q24.5158 -2.19048 24.5158 -3.24843Q24.5158 -4.30637 23.8308 -4.9235Q23.1459 -5.54064 21.9727 -5.54064Q21.4233 -5.54064 20.8774 -5.41857Q20.3315 -5.2965 19.7618 -5.03879L19.7618 -10.1251ZM31.5145 -9.22309Q30.4565 -9.22309 29.9242 -8.1821Q29.3918 -7.14111 29.3918 -5.05235Q29.3918 -2.97038 29.9242 -1.92939Q30.4565 -0.888401 31.5145 -0.888401Q32.5792 -0.888401 33.1116 -1.92939Q33.6439 -2.97038 33.6439 -5.05235Q33.6439 -7.14111 33.1116 -8.1821Q32.5792 -9.22309 31.5145 -9.22309ZM31.5145 -10.3082Q33.2167 -10.3082 34.1153 -8.962Q35.0138 -7.61583 35.0138 -5.05235Q35.0138 -2.49566 34.1153 -1.1495Q33.2167 0.196669 31.5145 0.196669Q29.8123 0.196669 28.9137 -1.1495Q28.0151 -2.49566 28.0151 -5.05235Q28.0151 -7.61583 28.9137 -8.962Q29.8123 -10.3082 31.5145 -10.3082Z" fill="#262626" transform="translate(489.75490210340917,488.6373480585129) translate(-17.96807289123535,0)" />
<line x1="491.2842504522088" y1="455.5468959713414" x2="494.5128299058211" y2="459.18099502699204" stroke="#262626" stroke-width="1.1111111111111112" />
<path d="M0.678168 -4.36062L4.3335 -4.36062L4.3335 -3.24843L0.678168 -3.24843L0.678168 -4.36062ZM9.42654 -9.22309Q8.3686 -9.22309 7.83624 -8.1821Q7.30387 -7.14111 7.30387 -5.05235Q7.30387 -2.97038 7.83624 -1.92939Q8.3686 -0.888401 9.42654 -0.888401Q10.4913 -0.888401 11.0236 -1.92939Q11.556 -2.97038 11.556 -5.05235Q11.556 -7.14111 11.0236 -8.1821Q10.4913 -9.22309 9.42654 -9.22309ZM9.42654 -10.3082Q11.1287 -10.3082 12.0273 -8.962Q12.9259 -7.61583 12.9259 -5.05235Q12.9259 -2.49566 12.0273 -1.1495Q11.1287 0.196669 9.42654 0.196669Q7.72434 0.196669 6.82577 -1.1495Q5.92719 -2.49566 5.92719 -5.05235Q5.92719 -7.61583 6.82577 -8.962Q7.72434 -10.3082 9.42654 -10.3082ZM15.3334 -1.72255L16.7643 -1.72255L16.7643 0L15.3334 0L15.3334 -1.72255ZM20.9283 -1.15289L25.7094 -1.15289L25.7094 0L19.2803 0L19.2803 -1.15289Q20.0602 -1.95991 21.4064 -3.31963Q22.7526 -4.67936 23.0984 -5.0727Q23.7562 -5.8119 24.0173 -6.32392Q24.2784 -6.83594 24.2784 -7.331Q24.2784 -8.13802 23.7122 -8.64665Q23.1459 -9.15527 22.2371 -9.15527Q21.5929 -9.15527 20.8774 -8.93148Q20.1619 -8.70768 19.3481 -8.25331L19.3481 -9.63677Q20.1755 -9.96908 20.8944 -10.1386Q21.6132 -10.3082 22.21 -10.3082Q23.7834 -10.3082 24.7192 -9.52148Q25.6551 -8.73481 25.6551 -7.41916Q25.6551 -6.79525 25.4211 -6.23576Q25.1872 -5.67627 24.57 -4.91672Q24.4005 -4.72005 23.4918 -3.78079Q22.583 -2.84153 20.9283 -1.15289ZM28.5984 -10.1251L33.9762 -10.1251L33.9762 -8.97217L29.853 -8.97217L29.853 -6.49007Q30.1514 -6.5918 30.4498 -6.64266Q30.7482 -6.69352 31.0466 -6.69352Q32.742 -6.69352 33.7321 -5.76443Q34.7222 -4.83534 34.7222 -3.24843Q34.7222 -1.61404 33.705 -0.708686Q32.6877 0.196669 30.8363 0.196669Q30.1988 0.196669 29.5376 0.0881619C29.0968 0.0158239 28.6413 -0.092683 28.1711 -0.237359L28.1711 -1.61404Q28.7815 -1.28174 29.4325 -1.11898Q30.0836 -0.956217 30.8092 -0.956217Q31.9824 -0.956217 32.6674 -1.57335Q33.3523 -2.19048 33.3523 -3.24843Q33.3523 -4.30637 32.6674 -4.9235Q31.9824 -5.54064 30.8092 -5.54064Q30.2599 -5.54064 29.714 -5.41857Q29.168 -5.2965 28.5984 -5.03879L28.5984 -10.1251Z" fill="#262626" transform="translate(507.0397181858366,473.28129936291646) translate(-17.96807289123535,0)" />
<line x1="508.2137328604108" y1="440.50653019528374" x2="511.44231231402307" y2="444.14062925093435" stroke="#262626" stroke-width="1.1111111111111112" />
<path d="M4.41488 -9.22309Q3.35693 -9.22309 2.82457 -8.1821Q2.29221 -7.14111 2.29221 -5.05235Q2.29221 -2.97038 2.82457 -1.92939Q3.35693 -0.888401 4.41488 -0.888401Q5.4796 -0.888401 6.01196 -1.92939Q6.54433 -2.97038 6.54433 -5.05235Q6.54433 -7.14111 6.01196 -8.1821Q5.4796 -9.22309 4.41488 -9.22309ZM4.41488 -10.3082Q6.11708 -10.3082 7.01565 -8.962Q7.91422 -7.61583 7.91423 -5.05235Q7.91423 -2.49566 7.01565 -1.1495Q6.11708 0.196669 4.41488 0.196669Q2.71267 0.196669 1.8141 -1.1495Q0.915527 -2.49566 0.915527 -5.05235Q0.915527 -7.61583 1.8141 -8.962Q2.71267 -10.3082 4.41488 -10.3082ZM10.3217 -1.72255L11.7527 -1.72255L11.7527 0L10.3217 0L10.3217 -1.72255ZM17.6663 -9.22309Q16.6083 -9.22309 16.076 -8.1821Q15.5436 -7.14111 15.5436 -5.05235Q15.5436 -2.97038 16.076 -1.92939Q16.6083 -0.888401 17.6663 -0.888401Q18.731 -0.888401 19.2634 -1.92939Q19.7957 -2.97038 19.7957 -5.05235Q19.7957 -7.14111 19.2634 -8.1821Q18.731 -9.22309 17.6663 -9.22309ZM17.6663 -10.3082Q19.3685 -10.3082 20.2671 -8.962Q21.1656 -7.61583 21.1656 -5.05235Q21.1656 -2.49566 20.2671 -1.1495Q19.3685 0.196669 17.6663 0.196669Q15.9641 0.196669 15.0655 -1.1495Q14.1669 -2.49566 14.1669 -5.05235Q14.1669 -7.61583 15.0655 -8.962Q15.9641 -10.3082 17.6663 -10.3082ZM26.5028 -9.22309Q25.4449 -9.22309 24.9125 -8.1821Q24.3802 -7.14111 24.3802 -5.05235Q24.3802 -2.97038 24.9125 -1.92939Q25.4449 -0.888401 26.5028 -0.888401Q27.5675 -0.888401 28.0999 -1.92939Q28.6323 -2.97038 28.6323 -5.05235Q28.6323 -7.14111 28.0999 -8.1821Q27.5675 -9.22309 26.5028 -9.22309ZM26.5028 -10.3082Q28.205 -10.3082 29.1036 -8.962Q30.0022 -7.61583 30.0022 -5.05235Q30.0022 -2.49566 29.1036 -1.1495Q28.205 0.196669 26.5028 0.196669Q24.8006 0.196669 23.902 -1.1495Q23.0035 -2.49566 23.0035 -5.05235Q23.0035 -7.61583 23.902 -8.962Q24.8006 -10.3082 26.5028 -10.3082Z" fill="#262626" transform="translate(523.9692005940386,458.2409335868588) translate(-15.462240219116211,0)" />
<line x1="524.7987273046413" y1="425.7722118729315" x2="528.0273067582535" y2="429.4063109285821" stroke="#262626" stroke-width="1.1111111111111112" />
<path d="M4.41488 -9.22309Q3.35693 -9.22309 2.82457 -8.1821Q2.29221 -7.14111 2.29221 -5.05235Q2.29221 -2.97038 2.82457 -1.92939Q3.35693 -0.888401 4.41488 -0.888401Q5.4796 -0.888401 6.01196 -1.92939Q6.54433 -2.97038 6.54433 -5.05235Q6.54433 -7.14111 6.01196 -8.1821Q5.4796 -9.22309 4.41488 -9.22309ZM4.41488 -10.3082Q6.11708 -10.3082 7.01565 -8.962Q7.91422 -7.61583 7.91423 -5.05235Q7.91423 -2.49566 7.01565 -1.1495Q6.11708 0.196669 4.41488 0.196669Q2.71267 0.196669 1.8141 -1.1495Q0.915527 -2.49566 0.915527 -5.05235Q0.915527 -7.61583 1.8141 -8.962Q2.71267 -10.3082 4.41488 -10.3082ZM10.3217 -1.72255L11.7527 -1.72255L11.7527 0L10.3217 0L10.3217 -1.72255ZM15.9166 -1.15289L20.6977 -1.15289L20.6977 0L14.2687 0L14.2687 -1.15289Q15.0486 -1.95991 16.3947 -3.31963Q17.7409 -4.67936 18.0868 -5.0727Q18.7446 -5.8119 19.0057 -6.32392Q19.2668 -6.83594 19.2668 -7.331Q19.2668 -8.13802 18.7005 -8.64665Q18.1342 -9.15527 17.2255 -9.15527Q16.5812 -9.15527 15.8658 -8.93148Q15.1503 -8.70768 14.3365 -8.25331L14.3365 -9.63677Q15.1638 -9.96908 15.8827 -10.1386Q16.6016 -10.3082 17.1984 -10.3082Q18.7717 -10.3082 19.7076 -9.52148Q20.6434 -8.73481 20.6434 -7.41916Q20.6434 -6.79525 20.4095 -6.23576Q20.1755 -5.67627 19.5584 -4.91672Q19.3888 -4.72005 18.4801 -3.78079Q17.5713 -2.84153 15.9166 -1.15289ZM23.5867 -10.1251L28.9646 -10.1251L28.9646 -8.97217L24.8413 -8.97217L24.8413 -6.49007Q25.1397 -6.5918 25.4381 -6.64266Q25.7365 -6.69352 26.0349 -6.69352Q27.7303 -6.69352 28.7204 -5.76443Q29.7106 -4.83534 29.7106 -3.24843Q29.7106 -1.61404 28.6933 -0.708686Q27.6761 0.196669 25.8247 0.196669Q25.1872 0.196669 24.526 0.0881619C24.0852 0.0158239 23.6296 -0.092683 23.1595 -0.237359L23.1595 -1.61404Q23.7698 -1.28174 24.4208 -1.11898Q25.0719 -0.956217 25.7975 -0.956217Q26.9708 -0.956217 27.6557 -1.57335Q28.3407 -2.19048 28.3407 -3.24843Q28.3407 -4.30637 27.6557 -4.9235Q26.9708 -5.54064 25.7975 -5.54064Q25.2482 -5.54064 24.7023 -5.41857Q24.1564 -5.2965 23.5867 -5.03879L23.5867 -10.1251Z" fill="#262626" transform="translate(540.5541950382691,443.50661526450654) translate(-15.462240219116211,0)" />
<line x1="541.0496425548641" y1="411.33469372171805" x2="544.2782220084764" y2="414.96879277736866" stroke="#262626" stroke-width="1.1111111111111112" />
<path d="M4.41488 -9.22309Q3.35693 -9.22309 2.82457 -8.1821Q2.29221 -7.14111 2.29221 -5.05235Q2.29221 -2.97038 2.82457 -1.92939Q3.35693 -0.888401 4.41488 -0.888401Q5.4796 -0.888401 6.01196 -1.92939Q6.54433 -2.97038 6.54433 -5.05235Q6.54433 -7.14111 6.01196 -8.1821Q5.4796 -9.22309 4.41488 -9.22309ZM4.41488 -10.3082Q6.11708 -10.3082 7.01565 -8.962Q7.91422 -7.61583 7.91423 -5.05235Q7.91423 -2.49566 7.01565 -1.1495Q6.11708 0.196669 4.41488 0.196669Q2.71267 0.196669 1.8141 -1.1495Q0.915527 -2.49566 0.915527 -5.05235Q0.915527 -7.61583 1.8141 -8.962Q2.71267 -10.3082 4.41488 -10.3082ZM10.3217 -1.72255L11.7527 -1.72255L11.7527 0L10.3217 0L10.3217 -1.72255ZM14.7502 -10.1251L20.128 -10.1251L20.128 -8.97217L16.0048 -8.97217L16.0048 -6.49007Q16.3032 -6.5918 16.6016 -6.64266Q16.9 -6.69352 17.1984 -6.69352Q18.8938 -6.69352 19.8839 -5.76443Q20.874 -4.83534 20.874 -3.24843Q20.874 -1.61404 19.8568 -0.708686Q18.8395 0.196669 16.9881 0.196669Q16.3506 0.196669 15.6894 0.0881619C15.2486 0.0158239 14.7931 -0.092683 14.3229 -0.237359L14.3229 -1.61404Q14.9333 -1.28174 15.5843 -1.11898Q16.2354 -0.956217 16.961 -0.956217Q18.1342 -0.956217 18.8192 -1.57335Q19.5041 -2.19048 19.5041 -3.24843Q19.5041 -4.30637 18.8192 -4.9235Q18.1342 -5.54064 16.961 -5.54064Q16.4117 -5.54064 15.8658 -5.41857Q15.3198 -5.2965 14.7502 -5.03879L14.7502 -10.1251ZM26.5028 -9.22309Q25.4449 -9.22309 24.9125 -8.1821Q24.3802 -7.14111 24.3802 -5.05235Q24.3802 -2.97038 24.9125 -1.92939Q25.4449 -0.888401 26.5028 -0.888401Q27.5675 -0.888401 28.0999 -1.92939Q28.6323 -2.97038 28.6323 -5.05235Q28.6323 -7.14111 28.0999 -8.1821Q27.5675 -9.22309 26.5028 -9.22309ZM26.5028 -10.3082Q28.205 -10.3082 29.1036 -8.962Q30.0022 -7.61583 30.0022 -5.05235Q30.0022 -2.49566 29.1036 -1.1495Q28.205 0.196669 26.5028 0.196669Q24.8006 0.196669 23.902 -1.1495Q23.0035 -2.49566 23.0035 -5.05235Q23.0035 -7.61583 23.902 -8.962Q24.8006 -10.3082 26.5028 -10.3082Z" fill="#262626" transform="translate(556.805110288492,429.0690971132931) translate(-15.462240219116211,0)" />
<line x1="556.9764722250721" y1="397.1850972888795" x2="560.2050516786844" y2="400.8191963445301" stroke="#262626" stroke-width="1.1111111111111112" />
<path d="M4.41488 -9.22309Q3.35693 -9.22309 2.82457 -8.1821Q2.29221 -7.14111 2.29221 -5.05235Q2.29221 -2.97038 2.82457 -1.92939Q3.35693 -0.888401 4.41488 -0.888401Q5.4796 -0.888401 6.01196 -1.92939Q6.54433 -2.97038 6.54433 -5.05235Q6.54433 -7.14111 6.01196 -8.1821Q5.4796 -9.22309 4.41488 -9.22309ZM4.41488 -10.3082Q6.11708 -10.3082 7.01565 -8.962Q7.91422 -7.61583 7.91423 -5.05235Q7.91423 -2.49566 7.01565 -1.1495Q6.11708 0.196669 4.41488 0.196669Q2.71267 0.196669 1.8141 -1.1495Q0.915527 -2.49566 0.915527 -5.05235Q0.915527 -7.61583 1.8141 -8.962Q2.71267 -10.3082 4.41488 -10.3082ZM10.3217 -1.72255L11.7527 -1.72255L11.7527 0L10.3217 0L10.3217 -1.72255ZM14.3907 -10.1251L20.9012 -10.1251L20.9012 -9.54183L17.2255 0L15.7945 0L19.2532 -8.97217L14.3907 -8.97217L14.3907 -10.1251ZM23.5867 -10.1251L28.9646 -10.1251L28.9646 -8.97217L24.8413 -8.97217L24.8413 -6.49007Q25.1397 -6.5918 25.4381 -6.64266Q25.7365 -6.69352 26.0349 -6.69352Q27.7303 -6.69352 28.7204 -5.76443Q29.7106 -4.83534 29.7106 -3.24843Q29.7106 -1.61404 28.6933 -0.708686Q27.6761 0.196669 25.8247 0.196669Q25.1872 0.196669 24.526 0.0881619C24.0852 0.0158239 23.6296 -0.092683 23.1595 -0.237359L23.1595 -1.61404Q23.7698 -1.28174 24.4208 -1.11898Q25.0719 -0.956217 25.7975 -0.956217Q26.9708 -0.956217 27.6557 -1.57335Q28.3407 -2.19048 28.3407 -3.24843Q28.3407 -4.30637 27.6557 -4.9235Q26.9708 -5.54064 25.7975 -5.54064Q25.2482 -5.54064 24.7023 -5.41857Q24.1564 -5.2965 23.5867 -5.03879L23.5867 -10.1251Z" fill="#262626" transform="translate(572.7319399587,414.9195006804545) translate(-15.462240219116211,0)" />
<line x1="572.5888152671653" y1="383.3148947444352" x2="575.8173947207775" y2="386.9489938000858" stroke="#262626" stroke-width="1.1111111111111112" />
<path d="M1.72255 -1.15289L3.9605 -1.15289L3.9605 -8.87722L1.52588 -8.38894L1.52588 -9.63677L3.94694 -10.1251L5.31684 -10.1251L5.31684 -1.15289L7.5548 -1.15289L7.5548 0L1.72255 0L1.72255 -1.15289ZM10.3217 -1.72255L11.7527 -1.72255L11.7527 0L10.3217 0L10.3217 -1.72255ZM17.6663 -9.22309Q16.6083 -9.22309 16.076 -8.1821Q15.5436 -7.14111 15.5436 -5.05235Q15.5436 -2.97038 16.076 -1.92939Q16.6083 -0.888401 17.6663 -0.888401Q18.731 -0.888401 19.2634 -1.92939Q19.7957 -2.97038 19.7957 -5.05235Q19.7957 -7.14111 19.2634 -8.1821Q18.731 -9.22309 17.6663 -9.22309ZM17.6663 -10.3082Q19.3685 -10.3082 20.2671 -8.962Q21.1656 -7.61583 21.1656 -5.05235Q21.1656 -2.49566 20.2671 -1.1495Q19.3685 0.196669 17.6663 0.196669Q15.9641 0.196669 15.0655 -1.1495Q14.1669 -2.49566 14.1669 -5.05235Q14.1669 -7.61583 15.0655 -8.962Q15.9641 -10.3082 17.6663 -10.3082ZM26.5028 -9.22309Q25.4449 -9.22309 24.9125 -8.1821Q24.3802 -7.14111 24.3802 -5.05235Q24.3802 -2.97038 24.9125 -1.92939Q25.4449 -0.888401 26.5028 -0.888401Q27.5675 -0.888401 28.0999 -1.92939Q28.6323 -2.97038 28.6323 -5.05235Q28.6323 -7.14111 28.0999 -8.1821Q27.5675 -9.22309 26.5028 -9.22309ZM26.5028 -10.3082Q28.205 -10.3082 29.1036 -8.962Q30.0022 -7.61583 30.0022 -5.05235Q30.0022 -2.49566 29.1036 -1.1495Q28.205 0.196669 26.5028 0.196669Q24.8006 0.196669 23.902 -1.1495Q23.0035 -2.49566 23.0035 -5.05235Q23.0035 -7.61583 23.902 -8.962Q24.8006 -10.3082 26.5028 -10.3082Z" fill="#262626" transform="translate(588.3442830007931,401.04929813601024) translate(-15.462240219116211,0)" />
<line x1="581.6850684081113" y1="371.0907999209165" x2="586.5428508554793" y2="371.27066355985306" stroke="#262626" stroke-width="1.1111111111111112" />
<path d="M4.41488 -9.22309Q3.35693 -9.22309 2.82457 -8.1821Q2.29221 -7.14111 2.29221 -5.05235Q2.29221 -2.97038 2.82457 -1.92939Q3.35693 -0.888401 4.41488 -0.888401Q5.4796 -0.888401 6.01196 -1.92939Q6.54433 -2.97038 6.54433 -5.05235Q6.54433 -7.14111 6.01196 -8.1821Q5.4796 -9.22309 4.41488 -9.22309ZM4.41488 -10.3082Q6.11708 -10.3082 7.01565 -8.962Q7.91422 -7.61583 7.91423 -5.05235Q7.91423 -2.49566 7.01565 -1.1495Q6.11708 0.196669 4.41488 0.196669Q2.71267 0.196669 1.8141 -1.1495Q0.915527 -2.49566 0.915527 -5.05235Q0.915527 -7.61583 1.8141 -8.962Q2.71267 -10.3082 4.41488 -10.3082ZM10.3217 -1.72255L11.7527 -1.72255L11.7527 0L10.3217 0L10.3217 -1.72255ZM17.6663 -9.22309Q16.6083 -9.22309 16.076 -8.1821Q15.5436 -7.14111 15.5436 -5.05235Q15.5436 -2.97038 16.076 -1.92939Q16.6083 -0.888401 17.6663 -0.888401Q18.731 -0.888401 19.2634 -1.92939Q19.7957 -2.97038 19.7957 -5.05235Q19.7957 -7.14111 19.2634 -8.1821Q18.731 -9.22309 17.6663 -9.22309ZM17.6663 -10.3082Q19.3685 -10.3082 20.2671 -8.962Q21.1656 -7.61583 21.1656 -5.05235Q21.1656 -2.49566 20.2671 -1.1495Q19.3685 0.196669 17.6663 0.196669Q15.9641 0.196669 15.0655 -1.1495Q14.1669 -2.49566 14.1669 -5.05235Q14.1669 -7.61583 15.0655 -8.962Q15.9641 -10.3082 17.6663 -10.3082Z" fill="#262626" transform="translate(605.391046751267,371.96853447892687) translate(-11.043972969055176,0)" />
<line x1="582.9687627528338" y1="336.4206025844886" x2="587.8265452002017" y2="336.6004662234252" stroke="#262626" stroke-width="1.1111111111111112" />
<path d="M4.41488 -9.22309Q3.35693 -9.22309 2.82457 -8.1821Q2.29221 -7.14111 2.29221 -5.05235Q2.29221 -2.97038 2.82457 -1.92939Q3.35693 -0.888401 4.41488 -0.888401Q5.4796 -0.888401 6.01196 -1.92939Q6.54433 -2.97038 6.54433 -5.05235Q6.54433 -7.14111 6.01196 -8.1821Q5.4796 -9.22309 4.41488 -9.22309ZM4.41488 -10.3082Q6.11708 -10.3082 7.01565 -8.962Q7.91422 -7.61583 7.91423 -5.05235Q7.91423 -2.49566 7.01565 -1.1495Q6.11708 0.196669 4.41488 0.196669Q2.71267 0.196669 1.8141 -1.1495Q0.915527 -2.49566 0.915527 -5.05235Q0.915527 -7.61583 1.8141 -8.962Q2.71267 -10.3082 4.41488 -10.3082ZM10.3217 -1.72255L11.7527 -1.72255L11.7527 0L10.3217 0L10.3217 -1.72255ZM14.7502 -10.1251L20.128 -10.1251L20.128 -8.97217L16.0048 -8.97217L16.0048 -6.49007Q16.3032 -6.5918 16.6016 -6.64266Q16.9 -6.69352 17.1984 -6.69352Q18.8938 -6.69352 19.8839 -5.76443Q20.874 -4.83534 20.874 -3.24843Q20.874 -1.61404 19.8568 -0.708686Q18.8395 0.196669 16.9881 0.196669Q16.3506 0.196669 15.6894 0.0881619C15.2486 0.0158239 14.7931 -0.092683 14.3229 -0.237359L14.3229 -1.61404Q14.9333 -1.28174 15.5843 -1.11898Q16.2354 -0.956217 16.961 -0.956217Q18.1342 -0.956217 18.8192 -1.57335Q19.5041 -2.19048 19.5041 -3.24843Q19.5041 -4.30637 18.8192 -4.9235Q18.1342 -5.54064 16.961 -5.54064Q16.4117 -5.54064 15.8658 -5.41857Q15.3198 -5.2965 14.7502 -5.03879L14.7502 -10.1251Z" fill="#262626" transform="translate(606.6747410959895,337.298337142499) translate(-11.043972969055176,0)" />
<line x1="584.2676446857404" y1="301.3402167311647" x2="589.1254271331084" y2="301.52008037010125" stroke="#262626" stroke-width="1.1111111111111112" />
<path d="M1.72255 -1.15289L3.9605 -1.15289L3.9605 -8.87722L1.52588 -8.38894L1.52588 -9.63677L3.94694 -10.1251L5.31684 -10.1251L5.31684 -1.15289L7.5548 -1.15289L7.5548 0L1.72255 0L1.72255 -1.15289ZM10.3217 -1.72255L11.7527 -1.72255L11.7527 0L10.3217 0L10.3217 -1.72255ZM17.6663 -9.22309Q16.6083 -9.22309 16.076 -8.1821Q15.5436 -7.14111 15.5436 -5.05235Q15.5436 -2.97038 16.076 -1.92939Q16.6083 -0.888401 17.6663 -0.888401Q18.731 -0.888401 19.2634 -1.92939Q19.7957 -2.97038 19.7957 -5.05235Q19.7957 -7.14111 19.2634 -8.1821Q18.731 -9.22309 17.6663 -9.22309ZM17.6663 -10.3082Q19.3685 -10.3082 20.2671 -8.962Q21.1656 -7.61583 21.1656 -5.05235Q21.1656 -2.49566 20.2671 -1.1495Q19.3685 0.196669 17.6663 0.196669Q15.9641 0.196669 15.0655 -1.1495Q14.1669 -2.49566 14.1669 -5.05235Q14.1669 -7.61583 15.0655 -8.962Q15.9641 -10.3082 17.6663 -10.3082Z" fill="#262626" transform="translate(607.9736230288961,302.21795128917506) translate(-11.043972969055176,0)" />
<line x1="585.5819853408357" y1="265.8423195356358" x2="590.4397677882037" y2="266.0221831745724" stroke="#262626" stroke-width="1.1111111111111112" />
<path d="M1.72255 -1.15289L3.9605 -1.15289L3.9605 -8.87722L1.52588 -8.38894L1.52588 -9.63677L3.94694 -10.1251L5.31684 -10.1251L5.31684 -1.15289L7.5548 -1.15289L7.5548 0L1.72255 0L1.72255 -1.15289ZM10.3217 -1.72255L11.7527 -1.72255L11.7527 0L10.3217 0L10.3217 -1.72255ZM14.7502 -10.1251L20.128 -10.1251L20.128 -8.97217L16.0048 -8.97217L16.0048 -6.49007Q16.3032 -6.5918 16.6016 -6.64266Q16.9 -6.69352 17.1984 -6.69352Q18.8938 -6.69352 19.8839 -5.76443Q20.874 -4.83534 20.874 -3.24843Q20.874 -1.61404 19.8568 -0.708686Q18.8395 0.196669 16.9881 0.196669Q16.3506 0.196669 15.6894 0.0881619C15.2486 0.0158239 14.7931 -0.092683 14.3229 -0.237359L14.3229 -1.61404Q14.9333 -1.28174 15.5843 -1.11898Q16.2354 -0.956217 16.961 -0.956217Q18.1342 -0.956217 18.8192 -1.57335Q19.5041 -2.19048 19.5041 -3.24843Q19.5041 -4.30637 18.8192 -4.9235Q18.1342 -5.54064 16.961 -5.54064Q16.4117 -5.54064 15.8658 -5.41857Q15.3198 -5.2965 14.7502 -5.03879L14.7502 -10.1251Z" fill="#262626" transform="translate(609.2879636839914,266.7200540936462) translate(-11.043972969055176,0)" />
<line x1="586.9120623445947" y1="229.9194128230263" x2="591.7698447919627" y2="230.09927646196286" stroke="#262626" stroke-width="1.1111111111111112" />
<path d="M2.6652 -1.15289L7.44629 -1.15289L7.44629 0L1.01725 0L1.01725 -1.15289Q1.79715 -1.95991 3.14331 -3.31963Q4.48947 -4.67936 4.83534 -5.0727Q5.49316 -5.8119 5.75426 -6.32392Q6.01535 -6.83594 6.01535 -7.331Q6.01535 -8.13802 5.44908 -8.64665Q4.88281 -9.15527 3.97407 -9.15527Q3.32981 -9.15527 2.61434 -8.93148Q1.89887 -8.70768 1.08507 -8.25331L1.08507 -9.63677Q1.91243 -9.96908 2.63129 -10.1386Q3.35015 -10.3082 3.94694 -10.3082Q5.52029 -10.3082 6.45616 -9.52148Q7.39204 -8.73481 7.39204 -7.41916Q7.39204 -6.79525 7.15807 -6.23576Q6.9241 -5.67627 6.30697 -4.91672Q6.13742 -4.72005 5.22868 -3.78079Q4.31993 -2.84153 2.6652 -1.15289ZM10.3217 -1.72255L11.7527 -1.72255L11.7527 0L10.3217 0L10.3217 -1.72255ZM17.6663 -9.22309Q16.6083 -9.22309 16.076 -8.1821Q15.5436 -7.14111 15.5436 -5.05235Q15.5436 -2.97038 16.076 -1.92939Q16.6083 -0.888401 17.6663 -0.888401Q18.731 -0.888401 19.2634 -1.92939Q19.7957 -2.97038 19.7957 -5.05235Q19.7957 -7.14111 19.2634 -8.1821Q18.731 -9.22309 17.6663 -9.22309ZM17.6663 -10.3082Q19.3685 -10.3082 20.2671 -8.962Q21.1656 -7.61583 21.1656 -5.05235Q21.1656 -2.49566 20.2671 -1.1495Q19.3685 0.196669 17.6663 0.196669Q15.9641 0.196669 15.0655 -1.1495Q14.1669 -2.49566 14.1669 -5.05235Q14.1669 -7.61583 15.0655 -8.962Q15.9641 -10.3082 17.6663 -10.3082Z" fill="#262626" transform="translate(610.6180406877504,230.7971473810367) translate(-11.043972969055176,0)" />
<line x1="588.2581600114669" y1="193.5638177887177" x2="593.1159424588349" y2="193.74368142765425" stroke="#262626" stroke-width="1.1111111111111112" />
<path d="M2.6652 -1.15289L7.44629 -1.15289L7.44629 0L1.01725 0L1.01725 -1.15289Q1.79715 -1.95991 3.14331 -3.31963Q4.48947 -4.67936 4.83534 -5.0727Q5.49316 -5.8119 5.75426 -6.32392Q6.01535 -6.83594 6.01535 -7.331Q6.01535 -8.13802 5.44908 -8.64665Q4.88281 -9.15527 3.97407 -9.15527Q3.32981 -9.15527 2.61434 -8.93148Q1.89887 -8.70768 1.08507 -8.25331L1.08507 -9.63677Q1.91243 -9.96908 2.63129 -10.1386Q3.35015 -10.3082 3.94694 -10.3082Q5.52029 -10.3082 6.45616 -9.52148Q7.39204 -8.73481 7.39204 -7.41916Q7.39204 -6.79525 7.15807 -6.23576Q6.9241 -5.67627 6.30697 -4.91672Q6.13742 -4.72005 5.22868 -3.78079Q4.31993 -2.84153 2.6652 -1.15289ZM10.3217 -1.72255L11.7527 -1.72255L11.7527 0L10.3217 0L10.3217 -1.72255ZM14.7502 -10.1251L20.128 -10.1251L20.128 -8.97217L16.0048 -8.97217L16.0048 -6.49007Q16.3032 -6.5918 16.6016 -6.64266Q16.9 -6.69352 17.1984 -6.69352Q18.8938 -6.69352 19.8839 -5.76443Q20.874 -4.83534 20.874 -3.24843Q20.874 -1.61404 19.8568 -0.708686Q18.8395 0.196669 16.9881 0.196669Q16.3506 0.196669 15.6894 0.0881619C15.2486 0.0158239 14.7931 -0.092683 14.3229 -0.237359L14.3229 -1.61404Q14.9333 -1.28174 15.5843 -1.11898Q16.2354 -0.956217 16.961 -0.956217Q18.1342 -0.956217 18.8192 -1.57335Q19.5041 -2.19048 19.5041 -3.24843Q19.5041 -4.30637 18.8192 -4.9235Q18.1342 -5.54064 16.961 -5.54064Q16.4117 -5.54064 15.8658 -5.41857Q15.3198 -5.2965 14.7502 -5.03879L14.7502 -10.1251Z" fill="#262626" transform="translate(611.9641383546226,194.4415523467281) translate(-11.043972969055176,0)" />
<line x1="589.6205695464859" y1="156.76766952621853" x2="594.4783519938538" y2="156.94753316515508" stroke="#262626" stroke-width="1.1111111111111112" />
<path d="M5.63558 -5.45926Q6.61892 -5.24902 7.17163 -4.58442Q7.72434 -3.91981 7.72434 -2.94325Q7.72434 -1.4445 6.69352 -0.623915Q5.66271 0.196669 3.76383 0.196669Q3.12636 0.196669 2.45158 0.0712077Q1.7768 -0.0542535 1.05794 -0.305176L1.05794 -1.6276Q1.6276 -1.2953 2.30577 -1.12576Q2.98394 -0.956217 3.72314 -0.956217Q5.01166 -0.956217 5.68644 -1.46484Q6.36122 -1.97347 6.36122 -2.94325Q6.36122 -3.83843 5.73391 -4.34367Q5.10661 -4.8489 3.98763 -4.8489L2.80762 -4.8489L2.80762 -5.97466L4.04188 -5.97466Q5.05235 -5.97466 5.58811 -6.37817Q6.12386 -6.78168 6.12386 -7.54123Q6.12386 -8.32113 5.57115 -8.7382Q5.01845 -9.15527 3.98763 -9.15527Q3.42475 -9.15527 2.78049 -9.0332Q2.13623 -8.91113 1.36312 -8.65343L1.36312 -9.87413Q2.14301 -10.0911 2.82457 -10.1997Q3.50613 -10.3082 4.1097 -10.3082Q5.66949 -10.3082 6.57823 -9.59947Q7.48698 -8.89079 7.48698 -7.68365Q7.48698 -6.84272 7.00548 -6.26289Q6.52398 -5.68305 5.63558 -5.45926ZM10.3217 -1.72255L11.7527 -1.72255L11.7527 0L10.3217 0L10.3217 -1.72255ZM17.6663 -9.22309Q16.6083 -9.22309 16.076 -8.1821Q15.5436 -7.14111 15.5436 -5.05235Q15.5436 -2.97038 16.076 -1.92939Q16.6083 -0.888401 17.6663 -0.888401Q18.731 -0.888401 19.2634 -1.92939Q19.7957 -2.97038 19.7957 -5.05235Q19.7957 -7.14111 19.2634 -8.1821Q18.731 -9.22309 17.6663 -9.22309ZM17.6663 -10.3082Q19.3685 -10.3082 20.2671 -8.962Q21.1656 -7.61583 21.1656 -5.05235Q21.1656 -2.49566 20.2671 -1.1495Q19.3685 0.196669 17.6663 0.196669Q15.9641 0.196669 15.0655 -1.1495Q14.1669 -2.49566 14.1669 -5.05235Q14.1669 -7.61583 15.0655 -8.962Q15.9641 -10.3082 17.6663 -10.3082Z" fill="#262626" transform="translate(613.3265478896416,157.64540408422891) translate(-11.043972969055176,0)" />
<script type="text/ecmascript"><![CDATA[
(function() {
    'use strict';
    var scenes = document.querySelectorAll('.mpl-3d-scene');
    scenes.forEach(function(scene) {
        var elevation = parseFloat(scene.getAttribute('data-elevation') || '30');
        var azimuth   = parseFloat(scene.getAttribute('data-azimuth')   || '-60');
        var distance  = scene.hasAttribute('data-distance') ? parseFloat(scene.getAttribute('data-distance')) : null;
        var plotX     = parseFloat(scene.getAttribute('data-plot-x') || '0');
        var plotY     = parseFloat(scene.getAttribute('data-plot-y') || '0');
        var plotW     = parseFloat(scene.getAttribute('data-plot-w') || '400');
        var plotH     = parseFloat(scene.getAttribute('data-plot-h') || '300');

        var initEl = elevation, initAz = azimuth;
        var dragging = false, lastX = 0, lastY = 0;

        function degToRad(d) { return d * Math.PI / 180; }

        function project(nx, ny, nz) {
            var azRad = degToRad(azimuth), elRad = degToRad(elevation);
            var cosAz = Math.cos(azRad), sinAz = Math.sin(azRad);
            var cosEl = Math.cos(elRad), sinEl = Math.sin(elRad);
            var rx = nx * cosAz - ny * sinAz;
            var ry = nx * sinAz + ny * cosAz;
            var rz = nz;
            var pz = ry * sinEl + rz * cosEl;
            if (distance !== null) {
                var viewDepth = ry * cosEl - rz * sinEl;
                var scale = distance / (distance - viewDepth);
                rx *= scale; pz *= scale;
            }
            var px = plotX + plotW * (rx + 1) / 2;
            var py = plotY + plotH * (1 - (pz + 1) / 2);
            return [px, py];
        }

        function reprojectAll() {
            var polys = scene.querySelectorAll('[data-v3d]');
            polys.forEach(function(el) {
                var raw = el.getAttribute('data-v3d');
                var pts = raw.trim().split(' ');
                var points = pts.map(function(p) {
                    var c = p.split(',');
                    return project(parseFloat(c[0]), parseFloat(c[1]), parseFloat(c[2]));
                });
                if (el.tagName === 'polygon' || el.tagName === 'polyline') {
                    el.setAttribute('points', points.map(function(p) { return p[0].toFixed(2) + ',' + p[1].toFixed(2); }).join(' '));
                } else if (el.tagName === 'circle' && points.length > 0) {
                    el.setAttribute('cx', points[0][0].toFixed(2));
                    el.setAttribute('cy', points[0][1].toFixed(2));
                }
            });
        }

        scene.addEventListener('mousedown', function(e) { dragging = true; lastX = e.clientX; lastY = e.clientY; e.preventDefault(); });
        document.addEventListener('mousemove', function(e) {
            if (!dragging) return;
            azimuth   += (e.clientX - lastX) * 0.5;
            elevation -= (e.clientY - lastY) * 0.5;
            elevation = Math.max(-90, Math.min(90, elevation));
            lastX = e.clientX; lastY = e.clientY;
            reprojectAll();
        });
        document.addEventListener('mouseup', function() { dragging = false; });

        scene.setAttribute('style', 'cursor:grab');
        scene.addEventListener('keydown', function(e) {
            switch(e.key) {
                case 'ArrowLeft':  azimuth   -= 5; break;
                case 'ArrowRight': azimuth   += 5; break;
                case 'ArrowUp':    elevation += 5; break;
                case 'ArrowDown':  elevation -= 5; break;
                case '+': if (distance !== null) distance = Math.max(2, distance - 0.5); break;
                case '-': if (distance !== null) distance = distance + 0.5; break;
                case 'Home': elevation = initEl; azimuth = initAz; break;
                default: return;
            }
            elevation = Math.max(-90, Math.min(90, elevation));
            reprojectAll();
            e.preventDefault();
        });
        scene.setAttribute('tabindex', '0');
    });
})();
]]></script>
</svg>
