<svg xmlns="http://www.w3.org/2000/svg" viewBox="0 0 700 600" width="700" height="600" role="img" aria-labelledby="chart-title">
<title id="chart-title">Quiver3D — 3-D vector field</title>
<rect x="0" y="0" width="700" height="600" fill="#FFFFFF" />
<path d="M7.95741 0.23584L7.69537 0.23584Q4.47222 0.23584 2.68159 -1.54606Q0.890951 -3.32796 0.890951 -6.50743Q0.89095 -9.67817 2.67722 -11.4775Q4.46349 -13.2769 7.59928 -13.2769Q10.77 -13.2769 12.5388 -11.495Q14.3076 -9.71311 14.3076 -6.50743Q14.3076 -4.30626 13.3686 -2.71653Q12.4296 -1.12679 10.6652 -0.323188L13.2944 2.61171L10.0887 2.61171L7.95741 0.23584ZM7.59928 -10.8399Q6.06196 -10.8399 5.21468 -9.70437Q4.3674 -8.56885 4.3674 -6.50743Q4.3674 -4.41108 5.19721 -3.29739Q6.02702 -2.1837 7.59928 -2.1837Q9.14534 -2.1837 9.99262 -3.31923Q10.8399 -4.45475 10.8399 -6.50743Q10.8399 -8.56885 9.99262 -9.70437Q9.14534 -10.8399 7.59928 -10.8399ZM16.6049 -3.80838L16.6049 -9.78299L19.7494 -9.78299L19.7494 -8.80469Q19.7494 -8.00982 19.7407 -6.80878Q19.7319 -5.60775 19.7319 -5.20595Q19.7319 -4.02675 19.7931 -3.50703Q19.8542 -2.9873 20.0027 -2.75146Q20.1949 -2.44575 20.505 -2.27979Q20.8151 -2.11382 21.2169 -2.11382Q22.1952 -2.11382 22.7542 -2.86502Q23.3132 -3.61621 23.3132 -4.95264L23.3132 -9.78299L26.4403 -9.78299L26.4403 0L23.3132 0L23.3132 -1.41504Q22.6057 -0.559028 21.8152 -0.152859Q21.0247 0.253309 20.0726 0.253309Q18.378 0.253309 17.4915 -0.786133Q16.6049 -1.82558 16.6049 -3.80838ZM29.445 -9.78299L32.5721 -9.78299L32.5721 0L29.445 0L29.445 -9.78299ZM29.445 -13.5914L32.5721 -13.5914L32.5721 -11.0408L29.445 -11.0408L29.445 -13.5914ZM34.3453 -9.78299L37.4723 -9.78299L39.9093 -3.02224L42.3376 -9.78299L45.4734 -9.78299L41.6214 0L38.1886 0L34.3453 -9.78299ZM57.0034 -4.9177L57.0034 -4.02675L49.6923 -4.02675Q49.8059 -2.92616 50.4872 -2.37587Q51.1685 -1.82558 52.3914 -1.82558Q53.3784 -1.82558 54.4135 -2.11819Q55.4486 -2.41081 56.5404 -3.00477L56.5404 -0.593967Q55.4311 -0.174696 54.3218 0.0393066Q53.2125 0.253309 52.1031 0.253309Q49.4478 0.253309 47.9759 -1.09622Q46.5041 -2.44575 46.5041 -4.88276Q46.5041 -7.2761 47.9497 -8.64746Q49.3953 -10.0188 51.9284 -10.0188Q54.2344 -10.0188 55.6189 -8.62999Q57.0034 -7.24116 57.0034 -4.9177ZM53.789 -5.95714Q53.789 -6.84809 53.2692 -7.39402Q52.7495 -7.93994 51.911 -7.93994Q51.0025 -7.93994 50.4348 -7.42896Q49.867 -6.91797 49.7273 -5.95714L53.789 -5.95714ZM66.6379 -7.11887Q66.2273 -7.31103 65.8212 -7.40275Q65.415 -7.49447 65.0044 -7.49447Q63.799 -7.49447 63.1483 -6.72144Q62.4976 -5.94841 62.4976 -4.50716L62.4976 0L59.3705 0L59.3705 -9.78299L62.4976 -9.78299L62.4976 -8.17578Q63.1003 -9.13661 63.882 -9.57772Q64.6638 -10.0188 65.7556 -10.0188Q65.9129 -10.0188 66.0963 -10.0057Q66.2797 -9.99262 66.6291 -9.94895L66.6379 -7.11887ZM75.0233 -7.03152Q76.3422 -6.69086 77.0279 -5.84795Q77.7136 -5.00504 77.7136 -3.70356Q77.7136 -1.76443 76.2287 -0.755561Q74.7438 0.253309 71.8962 0.253309Q70.8917 0.253309 69.8828 0.0917155Q68.874 -0.0698785 67.8869 -0.393066L67.8869 -2.9873Q68.8303 -2.51563 69.7606 -2.27542Q70.6908 -2.03521 71.5905 -2.03521Q72.9269 -2.03521 73.6388 -2.49816Q74.3507 -2.9611 74.3507 -3.82585Q74.3507 -4.7168 73.6213 -5.17537Q72.892 -5.63395 71.4682 -5.63395L70.123 -5.63395L70.123 -7.80018L71.5381 -7.80018Q72.8046 -7.80018 73.4248 -8.19762Q74.045 -8.59505 74.045 -9.40739Q74.045 -10.1586 73.4423 -10.5691Q72.8396 -10.9797 71.739 -10.9797Q70.9267 -10.9797 70.0968 -10.7962Q69.267 -10.6128 68.446 -10.2547L68.446 -12.7179Q69.4417 -12.9974 70.42 -13.1372Q71.3983 -13.2769 72.3417 -13.2769Q74.8835 -13.2769 76.1457 -12.4427Q77.4079 -11.6086 77.4079 -9.93148Q77.4079 -8.78722 76.8052 -8.05786Q76.2025 -7.32851 75.0233 -7.03152ZM84.1424 -10.4992L84.1424 -2.54183L85.3478 -2.54183Q87.4092 -2.54183 88.4967 -3.5638Q89.5842 -4.58577 89.5842 -6.53364Q89.5842 -8.47276 88.5011 -9.486Q87.418 -10.4992 85.3478 -10.4992L84.1424 -10.4992ZM80.7795 -13.0411L84.3259 -13.0411Q87.2957 -13.0411 88.75 -12.6174Q90.2044 -12.1938 91.2438 -11.1806Q92.161 -10.2983 92.6065 -9.14535Q93.0519 -7.99235 93.0519 -6.53364Q93.0519 -5.05745 92.6065 -3.90009Q92.161 -2.74273 91.2438 -1.86051Q90.1956 -0.847276 88.7282 -0.423638Q87.2607 0 84.3259 0L80.7795 0L80.7795 -13.0411ZM101.175 -6.02702L117.143 -6.02702L117.143 -3.77344L101.175 -3.77344L101.175 -6.02702ZM132.664 -7.03152Q133.983 -6.69086 134.669 -5.84795Q135.355 -5.00504 135.355 -3.70356Q135.355 -1.76443 133.87 -0.755561Q132.385 0.253309 129.537 0.253309Q128.533 0.253309 127.524 0.0917155Q126.515 -0.0698785 125.528 -0.393066L125.528 -2.9873Q126.471 -2.51563 127.402 -2.27542Q128.332 -2.03521 129.232 -2.03521Q130.568 -2.03521 131.28 -2.49816Q131.992 -2.9611 131.992 -3.82585Q131.992 -4.7168 131.262 -5.17537Q130.533 -5.63395 129.109 -5.63395L127.764 -5.63395L127.764 -7.80018L129.179 -7.80018Q130.446 -7.80018 131.066 -8.19762Q131.686 -8.59505 131.686 -9.40739Q131.686 -10.1586 131.083 -10.5691Q130.481 -10.9797 129.38 -10.9797Q128.568 -10.9797 127.738 -10.7962Q126.908 -10.6128 126.087 -10.2547L126.087 -12.7179Q127.083 -12.9974 128.061 -13.1372Q129.039 -13.2769 129.983 -13.2769Q132.525 -13.2769 133.787 -12.4427Q135.049 -11.6086 135.049 -9.93148Q135.049 -8.78722 134.446 -8.05786Q133.843 -7.32851 132.664 -7.03152ZM137.748 -6.42008L143.233 -6.42008L143.233 -3.87826L137.748 -3.87826L137.748 -6.42008ZM149.208 -10.4992L149.208 -2.54183L150.413 -2.54183Q152.475 -2.54183 153.562 -3.5638Q154.65 -4.58577 154.65 -6.53364Q154.65 -8.47276 153.567 -9.486Q152.484 -10.4992 150.413 -10.4992L149.208 -10.4992ZM145.845 -13.0411L149.391 -13.0411Q152.361 -13.0411 153.816 -12.6174Q155.27 -12.1938 156.309 -11.1806Q157.227 -10.2983 157.672 -9.14535Q158.118 -7.99235 158.118 -6.53364Q158.118 -5.05745 157.672 -3.90009Q157.227 -2.74273 156.309 -1.86051Q155.261 -0.847276 153.794 -0.423638Q152.326 0 149.391 0L145.845 0L145.845 -13.0411ZM165.551 -9.78299L168.678 -9.78299L171.115 -3.02224L173.543 -9.78299L176.679 -9.78299L172.827 0L169.394 0L165.551 -9.78299ZM188.209 -4.9177L188.209 -4.02675L180.898 -4.02675Q181.011 -2.92616 181.693 -2.37587Q182.374 -1.82558 183.597 -1.82558Q184.584 -1.82558 185.619 -2.11819Q186.654 -2.41081 187.746 -3.00477L187.746 -0.593967Q186.637 -0.174696 185.527 0.0393066Q184.418 0.253309 183.309 0.253309Q180.653 0.253309 179.182 -1.09622Q177.71 -2.44575 177.71 -4.88276Q177.71 -7.2761 179.155 -8.64746Q180.601 -10.0188 183.134 -10.0188Q185.44 -10.0188 186.824 -8.62999Q188.209 -7.24116 188.209 -4.9177ZM184.995 -5.95714Q184.995 -6.84809 184.475 -7.39402Q183.955 -7.93994 183.117 -7.93994Q182.208 -7.93994 181.64 -7.42896Q181.073 -6.91797 180.933 -5.95714L184.995 -5.95714ZM198.481 -9.47727L198.481 -6.9267Q197.843 -7.36344 197.201 -7.57308Q196.559 -7.78271 195.869 -7.78271Q194.559 -7.78271 193.83 -7.01842Q193.1 -6.25412 193.1 -4.88276Q193.1 -3.51139 193.83 -2.7471Q194.559 -1.9828 195.869 -1.9828Q196.603 -1.9828 197.263 -2.20117Q197.922 -2.41954 198.481 -2.84755L198.481 -0.288249C197.992 -0.107729 197.495 0.0276602 196.992 0.11792Q196.236 0.253309 195.476 0.253309Q192.83 0.253309 191.336 -1.10495Q189.842 -2.46322 189.842 -4.88276Q189.842 -7.3023 191.336 -8.66056Q192.83 -10.0188 195.476 -10.0188Q196.245 -10.0188 196.992 -9.88344Q197.739 -9.74805 198.481 -9.47727ZM204.595 -12.5607L204.595 -9.78299L207.819 -9.78299L207.819 -7.54688L204.595 -7.54688L204.595 -3.39784Q204.595 -2.71653 204.866 -2.47632Q205.137 -2.23611 205.941 -2.23611L207.548 -2.23611L207.548 0L204.866 0Q203.014 0 202.241 -0.773031Q201.468 -1.54606 201.468 -3.39784L201.468 -7.54688L199.914 -7.54688L199.914 -9.78299L201.468 -9.78299L201.468 -12.5607L204.595 -12.5607ZM214.387 -7.78271Q213.348 -7.78271 212.802 -7.03589Q212.256 -6.28906 212.256 -4.88276Q212.256 -3.47645 212.802 -2.72963Q213.348 -1.9828 214.387 -1.9828Q215.409 -1.9828 215.951 -2.72963Q216.492 -3.47645 216.492 -4.88276Q216.492 -6.28906 215.951 -7.03589Q215.409 -7.78271 214.387 -7.78271ZM214.387 -10.0188Q216.912 -10.0188 218.331 -8.6562Q219.75 -7.29357 219.75 -4.88276Q219.75 -2.47195 218.331 -1.10932Q216.912 0.253309 214.387 0.253309Q211.854 0.253309 210.426 -1.10932Q208.998 -2.47195 208.998 -4.88276Q208.998 -7.29357 210.426 -8.6562Q211.854 -10.0188 214.387 -10.0188ZM229.289 -7.11887Q228.878 -7.31103 228.472 -7.40275Q228.066 -7.49447 227.655 -7.49447Q226.45 -7.49447 225.799 -6.72144Q225.148 -5.94841 225.148 -4.50716L225.148 0L222.021 0L222.021 -9.78299L225.148 -9.78299L225.148 -8.17578Q225.751 -9.13661 226.533 -9.57772Q227.315 -10.0188 228.407 -10.0188Q228.564 -10.0188 228.747 -10.0057Q228.931 -9.99262 229.28 -9.94895L229.289 -7.11887ZM243.509 -13.5914L243.509 -11.5387L241.78 -11.5387Q241.116 -11.5387 240.854 -11.2985Q240.592 -11.0583 240.592 -10.4643L240.592 -9.78299L243.264 -9.78299L243.264 -7.54688L240.592 -7.54688L240.592 0L237.465 0L237.465 -7.54688L235.91 -7.54688L235.91 -9.78299L237.465 -9.78299L237.465 -10.4643Q237.465 -12.0628 238.355 -12.8271Q239.246 -13.5914 241.116 -13.5914L243.509 -13.5914ZM244.854 -9.78299L247.981 -9.78299L247.981 0L244.854 0L244.854 -9.78299ZM244.854 -13.5914L247.981 -13.5914L247.981 -11.0408L244.854 -11.0408L244.854 -13.5914ZM260.752 -4.9177L260.752 -4.02675L253.44 -4.02675Q253.554 -2.92616 254.235 -2.37587Q254.917 -1.82558 256.14 -1.82558Q257.127 -1.82558 258.162 -2.11819Q259.197 -2.41081 260.289 -3.00477L260.289 -0.593967Q259.179 -0.174696 258.07 0.0393066Q256.961 0.253309 255.851 0.253309Q253.196 0.253309 251.724 -1.09622Q250.252 -2.44575 250.252 -4.88276Q250.252 -7.2761 251.698 -8.64746Q253.144 -10.0188 255.677 -10.0188Q257.983 -10.0188 259.367 -8.62999Q260.752 -7.24116 260.752 -4.9177ZM257.537 -5.95714Q257.537 -6.84809 257.017 -7.39402Q256.498 -7.93994 255.659 -7.93994Q254.751 -7.93994 254.183 -7.42896Q253.615 -6.91797 253.475 -5.95714L257.537 -5.95714ZM263.119 -13.5914L266.246 -13.5914L266.246 0L263.119 0L263.119 -13.5914ZM275.906 -8.35048L275.906 -13.5914L279.051 -13.5914L279.051 0L275.906 0L275.906 -1.41504Q275.26 -0.550293 274.483 -0.148492Q273.705 0.253309 272.683 0.253309Q270.875 0.253309 269.713 -1.18357Q268.552 -2.62044 268.552 -4.88276Q268.552 -7.14507 269.713 -8.58195Q270.875 -10.0188 272.683 -10.0188Q273.697 -10.0188 274.478 -9.61266Q275.26 -9.20649 275.906 -8.35048ZM273.845 -2.01774Q274.85 -2.01774 275.378 -2.75146Q275.906 -3.48519 275.906 -4.88276Q275.906 -6.28033 275.378 -7.01405Q274.85 -7.74778 273.845 -7.74778Q272.849 -7.74778 272.321 -7.01405Q271.792 -6.28033 271.792 -4.88276Q271.792 -3.48519 272.321 -2.75146Q272.849 -2.01774 273.845 -2.01774Z" fill="#262626" transform="translate(350,24.099999999999998) translate(-140.27667236328125,0)" />
<rect x="88" y="72" width="542" height="462" fill="#FFFFFF" />
<polygon points="136.6497501248409,430.0427228676342 427.6240992883744,512.1033774854671 581.5264576918282,375.37458044531536 307.83787119481076,307.08318635006583" fill="#F5F5F5" />
<polygon points="136.6497501248409,430.0427228676342 307.83787119481076,307.08318635006583 305.85030923020776,93.89662251453288 127.75,200.96229152977324" fill="#F5F5F5" />
<polygon points="307.83787119481076,307.08318635006583 581.5264576918282,375.37458044531536 589.75,153.271993641123 305.85030923020776,93.89662251453288" fill="#F5F5F5" />
<line x1="136.6497501248409" y1="430.0427228676342" x2="427.6240992883744" y2="512.1033774854671" stroke="#666666" stroke-width="0.5" />
<line x1="427.6240992883744" y1="512.1033774854671" x2="581.5264576918282" y2="375.37458044531536" stroke="#666666" stroke-width="0.5" />
<line x1="581.5264576918282" y1="375.37458044531536" x2="307.83787119481076" y2="307.08318635006583" stroke="#666666" stroke-width="0.5" />
<line x1="307.83787119481076" y1="307.08318635006583" x2="136.6497501248409" y2="430.0427228676342" stroke="#666666" stroke-width="0.5" />
<line x1="589.75" y1="153.271993641123" x2="305.85030923020776" y2="93.89662251453288" stroke="#666666" stroke-width="0.5" />
<line x1="305.85030923020776" y1="93.89662251453288" x2="127.75" y2="200.96229152977324" stroke="#666666" stroke-width="0.5" />
<line x1="136.6497501248409" y1="430.0427228676342" x2="127.75" y2="200.96229152977324" stroke="#666666" stroke-width="0.5" />
<line x1="581.5264576918282" y1="375.37458044531536" x2="589.75" y2="153.271993641123" stroke="#666666" stroke-width="0.5" />
<line x1="307.83787119481076" y1="307.08318635006583" x2="305.85030923020776" y2="93.89662251453288" stroke="#666666" stroke-width="0.5" />
<line x1="154.22690564343628" y1="434.9998364150031" x2="324.44663482081614" y2="311.22744255283857" stroke="#B0B0B0" stroke-width="1" />
<line x1="184.64284031099402" y1="443.5777454877724" x2="353.1637200613472" y2="318.39299450562106" stroke="#B0B0B0" stroke-width="1" />
<line x1="215.42262915360845" y1="452.25826880085685" x2="382.1945424241594" y2="325.63683085357775" stroke="#B0B0B0" stroke-width="1" />
<line x1="246.5728404302355" y1="461.043258736197" x2="411.54427156445905" y2="332.96024154074894" stroke="#B0B0B0" stroke-width="1" />
<line x1="278.1002014496142" y1="469.9346125309912" x2="441.2181913431959" y2="340.36454500804984" stroke="#B0B0B0" stroke-width="1" />
<line x1="310.0116034138081" y1="478.93427364367165" x2="471.2217029983066" y2="347.8510889845664" stroke="#B0B0B0" stroke-width="1" />
<line x1="342.3141064398314" y1="488.0442331701048" x2="501.56032842221805" y2="355.4212513053655" stroke="#B0B0B0" stroke-width="1" />
<line x1="375.01494476704636" y1="497.2665313121827" x2="532.2397135497881" y2="363.07644075686153" stroke="#B0B0B0" stroke-width="1" />
<line x1="408.1215321583995" y1="506.6032589010811" x2="563.2656318610503" y2="370.81809795082904" stroke="#B0B0B0" stroke-width="1" />
<line x1="148.49186102024078" y1="421.5368729407408" x2="438.31880699611327" y2="502.60206421941666" stroke="#B0B0B0" stroke-width="1" />
<line x1="168.46990479540625" y1="407.1872148700269" x2="456.34478706713725" y2="486.5875560848517" stroke="#B0B0B0" stroke-width="1" />
<line x1="188.05077300748138" y1="393.1228366589695" x2="473.99249996461003" y2="470.90910527998557" stroke="#B0B0B0" stroke-width="1" />
<line x1="207.24619321570762" y1="379.33531473682194" x2="491.27372871036243" y2="455.5562436195538" stroke="#B0B0B0" stroke-width="1" />
<line x1="226.06743576707578" y1="365.8165539353347" x2="508.19977196733726" y2="440.51893322883916" stroke="#B0B0B0" stroke-width="1" />
<line x1="244.52533586243317" y1="352.55877163930097" x2="524.7814686743063" y2="425.7875446578786" stroke="#B0B0B0" stroke-width="1" />
<line x1="262.6303143568555" y1="339.55448284624384" x2="541.0292211922068" y2="411.3528363179654" stroke="#B0B0B0" stroke-width="1" />
<line x1="280.3923973781854" y1="326.7964860749806" x2="556.9530170659657" y2="397.2059351481707" stroke="#B0B0B0" stroke-width="1" />
<line x1="297.82123484134473" y1="314.2778500673211" x2="572.5624494974741" y2="383.338318426894" stroke="#B0B0B0" stroke-width="1" />
<line x1="148.49186102024078" y1="421.5368729407408" x2="140.10875429683512" y2="193.5327800218775" stroke="#B0B0B0" stroke-width="1" />
<line x1="168.46990479540625" y1="407.1872148700269" x2="160.94539225839014" y2="181.00675694519285" stroke="#B0B0B0" stroke-width="1" />
<line x1="188.05077300748138" y1="393.1228366589695" x2="181.35195992531445" y2="168.73927223948158" stroke="#B0B0B0" stroke-width="1" />
<line x1="207.24619321570762" y1="379.33531473682194" x2="201.34163633026967" y2="156.72240327981953" stroke="#B0B0B0" stroke-width="1" />
<line x1="226.06743576707578" y1="365.8165539353347" x2="220.9270674746283" y2="144.94854787504173" stroke="#B0B0B0" stroke-width="1" />
<line x1="244.52533586243317" y1="352.55877163930097" x2="240.1203930070489" y2="133.41040822981662" stroke="#B0B0B0" stroke-width="1" />
<line x1="262.6303143568555" y1="339.55448284624384" x2="258.9332713155952" y2="122.10097586042471" stroke="#B0B0B0" stroke-width="1" />
<line x1="280.3923973781854" y1="326.7964860749806" x2="277.3769031423818" y2="111.01351739872567" stroke="#B0B0B0" stroke-width="1" />
<line x1="297.82123484134473" y1="314.2778500673211" x2="295.46205382125567" y2="100.1415612238925" stroke="#B0B0B0" stroke-width="1" />
<line x1="136.02000620934214" y1="413.8330534082438" x2="307.6967932702726" y2="291.95112078382715" stroke="#B0B0B0" stroke-width="1" />
<line x1="135.09774548035526" y1="390.0939728005101" x2="307.4903053498905" y2="269.80315709576166" stroke="#B0B0B0" stroke-width="1" />
<line x1="134.16797281075225" y1="366.1615341127851" x2="307.2822808337339" y2="247.490377628869" stroke="#B0B0B0" stroke-width="1" />
<line x1="133.23059604654364" y1="342.03336529244615" x2="307.0727025057016" y2="225.01093577834132" stroke="#B0B0B0" stroke-width="1" />
<line x1="132.28552152019833" y1="317.707055328156" x2="306.86155289154124" y2="202.3629572500143" stroke="#B0B0B0" stroke-width="1" />
<line x1="131.33265401944197" y1="293.18015344674035" x2="306.6488142539928" y2="179.5445395394209" stroke="#B0B0B0" stroke-width="1" />
<line x1="130.37189675528097" y1="268.45016829011564" x2="306.43446858782164" y2="156.55375139903953" stroke="#B0B0B0" stroke-width="1" />
<line x1="129.4031513292285" y1="243.51456707168697" x2="306.21849761473845" y2="133.3886322934232" stroke="#B0B0B0" stroke-width="1" />
<line x1="128.42631769970959" y1="218.3707747116152" x2="306.00088277820345" y2="110.04719184188664" stroke="#B0B0B0" stroke-width="1" />
<line x1="324.44663482081614" y1="311.22744255283857" x2="323.0486602712349" y2="97.49352138066936" stroke="#B0B0B0" stroke-width="1" />
<line x1="353.1637200613472" y1="318.39299450562106" x2="352.7943143131541" y2="103.71458926331891" stroke="#B0B0B0" stroke-width="1" />
<line x1="382.1945424241594" y1="325.63683085357775" x2="382.8767378498921" y2="110.00608981775048" stroke="#B0B0B0" stroke-width="1" />
<line x1="411.54427156445905" y1="332.96024154074894" x2="413.3016826138779" y2="116.36922597323331" stroke="#B0B0B0" stroke-width="1" />
<line x1="441.2181913431959" y1="340.36454500804984" x2="444.0750320669858" y2="122.80522820920672" stroke="#B0B0B0" stroke-width="1" />
<line x1="471.2217029983066" y1="347.8510889845664" x2="475.2028051934303" y2="129.31535534853361" stroke="#B0B0B0" stroke-width="1" />
<line x1="501.56032842221805" y1="355.4212513053655" x2="506.6911604244716" y2="135.9008953783219" stroke="#B0B0B0" stroke-width="1" />
<line x1="532.2397135497881" y1="363.07644075686153" x2="538.5463997003051" y2="142.56316629943626" stroke="#B0B0B0" stroke-width="1" />
<line x1="563.2656318610503" y1="370.81809795082904" x2="570.7749726747643" y2="149.3035170058785" stroke="#B0B0B0" stroke-width="1" />
<line x1="307.6967932702726" y1="291.95112078382715" x2="582.1091602126193" y2="359.6368688418367" stroke="#B0B0B0" stroke-width="1" />
<line x1="307.4903053498905" y1="269.80315709576166" x2="582.9623067252599" y2="336.5949678848535" stroke="#B0B0B0" stroke-width="1" />
<line x1="307.2822808337339" y1="247.490377628869" x2="583.822135226576" y2="313.3725988382999" stroke="#B0B0B0" stroke-width="1" />
<line x1="307.0727025057016" y1="225.01093577834132" x2="584.6887245269047" y2="289.9676331815236" stroke="#B0B0B0" stroke-width="1" />
<line x1="306.86155289154124" y1="202.3629572500143" x2="585.5621546808394" y2="266.3779087887995" stroke="#B0B0B0" stroke-width="1" />
<line x1="306.6488142539928" y1="179.5445395394209" x2="586.4425070118839" y2="242.60122926350616" stroke="#B0B0B0" stroke-width="1" />
<line x1="306.43446858782164" y1="156.55375139903953" x2="587.3298641376931" y2="218.6353632564081" stroke="#B0B0B0" stroke-width="1" />
<line x1="306.21849761473845" y1="133.3886322934232" x2="588.2243099959187" y2="194.47804376760087" stroke="#B0B0B0" stroke-width="1" />
<line x1="306.00088277820345" y1="110.04719184188664" x2="589.1259298706782" y2="170.12696743165884" stroke="#B0B0B0" stroke-width="1" />
<path d="M0.874837 -10.1251L2.34646 -10.1251L4.86247 -6.36122L7.39204 -10.1251L8.86366 -10.1251L5.60845 -5.26259L9.08068 0L7.60905 0L4.76074 -4.30637L1.89209 0L0.413683 0L4.02832 -5.405L0.874837 -10.1251Z" fill="#262626" transform="translate(270.73676028165994,511.49626443623265) translate(-4.757351398468018,0)" />
<path d="M-0.0271267 -10.1251L1.4445 -10.1251L4.25212 -5.9611L7.03939 -10.1251L8.51101 -10.1251L4.93028 -4.82178L4.93028 0L3.5536 0L3.5536 -4.82178L-0.0271267 -10.1251Z" fill="#262626" transform="translate(567.5105272209192,468.08482489625607) translate(-4.241943359375,0)" />
<path d="M0.779894 -10.1251L8.73481 -10.1251L8.73481 -9.08068L2.3329 -1.15289L8.89079 -1.15289L8.89079 0L0.623915 0L0.623915 -1.04438L7.02583 -8.97217L0.779894 -8.97217L0.779894 -10.1251Z" fill="#262626" transform="translate(645.597143624856,266.54331824380756) translate(-4.757351398468018,0)" />
<g class="mpl-3d-scene" data-elevation="25" data-azimuth="-60" data-plot-x="88" data-plot-y="72" data-plot-w="542" data-plot-h="462">
<g class="series" data-series-index="0">
<line x1="314.36415899871787" y1="303.23338905931956" x2="317.9234536747035" y2="320.2381574082915" stroke="#FF0000" stroke-width="1.5" />
<line x1="317.9234536747035" y1="320.2381574082915" x2="319.07820693199307" y2="314.35032717001366" stroke="#FF0000" stroke-width="1.5" />
<line x1="317.9234536747035" y1="320.2381574082915" x2="314.5043071330866" y2="315.30769729518346" stroke="#FF0000" stroke-width="1.5" />
<line x1="313.62241462698165" y1="213.02641030459114" x2="317.14603910998176" y2="218.5839865022326" stroke="#FF0000" stroke-width="1.5" />
<line x1="317.14603910998176" y1="218.5839865022326" x2="316.1601663749678" y2="212.66553611802254" stroke="#FF0000" stroke-width="1.5" />
<line x1="317.14603910998176" y1="218.5839865022326" x2="312.2135385291354" y2="215.1677842219292" stroke="#FF0000" stroke-width="1.5" />
<line x1="431.8738488288578" y1="332.4326513316902" x2="426.80095823390513" y2="347.6249198021593" stroke="#FF0000" stroke-width="1.5" />
<line x1="426.80095823390513" y1="347.6249198021593" x2="430.7675039726503" y2="343.1230851869782" stroke="#FF0000" stroke-width="1.5" />
<line x1="426.80095823390513" y1="347.6249198021593" x2="426.33505878159883" y2="341.6430356758709" stroke="#FF0000" stroke-width="1.5" />
<line x1="312.85788503383003" y1="120.04841492680401" x2="316.34158211331834" y2="113.39376659084928" stroke="#FF0000" stroke-width="1.5" />
<line x1="316.34158211331834" y1="113.39376659084928" x2="311.7084864008976" y2="117.20617057253175" stroke="#FF0000" stroke-width="1.5" />
<line x1="316.34158211331834" y1="113.39376659084928" x2="315.8485244626567" y2="119.3734734526548" stroke="#FF0000" stroke-width="1.5" />
<line x1="432.93308732214814" y1="240.63703327759455" x2="427.9075712540816" y2="244.31569245275583" stroke="#FF0000" stroke-width="1.5" />
<line x1="427.9075712540816" y1="244.31569245275583" x2="433.7469893375182" y2="242.93685364896712" stroke="#FF0000" stroke-width="1.5" />
<line x1="427.9075712540816" y1="244.31569245275583" x2="430.9868145972286" y2="239.16610407758594" stroke="#FF0000" stroke-width="1.5" />
<line x1="242.83123106590784" y1="354.6463067875265" x2="251.90029842304438" y2="368.40055298686144" stroke="#FF0000" stroke-width="1.5" />
<line x1="251.90029842304438" y1="368.40055298686144" x2="250.8088267321073" y2="362.5006640431708" stroke="#FF0000" stroke-width="1.5" />
<line x1="251.90029842304438" y1="368.40055298686144" x2="246.9075415035188" y2="365.0730346409271" stroke="#FF0000" stroke-width="1.5" />
<line x1="554.7375408493896" y1="362.96229677833423" x2="540.2639158611865" y2="376.1650950534594" stroke="#FF0000" stroke-width="1.5" />
<line x1="540.2639158611865" y1="376.1650950534594" x2="545.9214174524081" y2="374.1669269560951" stroke="#FF0000" stroke-width="1.5" />
<line x1="540.2639158611865" y1="376.1650950534594" x2="542.7721371226475" y2="370.71451470788566" stroke="#FF0000" stroke-width="1.5" />
<line x1="434.02561147627057" y1="145.95681668617505" x2="429.0534999832063" y2="137.33609846199593" stroke="#FF0000" stroke-width="1.5" />
<line x1="429.0534999832063" y1="137.33609846199593" x2="429.7905827100441" y2="143.29065210217732" stroke="#FF0000" stroke-width="1.5" />
<line x1="429.0534999832063" y1="137.33609846199593" x2="433.83856578671015" y2="140.95592515068395" stroke="#FF0000" stroke-width="1.5" />
<line x1="240.93476426788544" y1="261.65458293523" x2="249.9238470560466" y2="263.8479080536243" stroke="#FF0000" stroke-width="1.5" />
<line x1="249.9238470560466" y1="263.8479080536243" x2="245.10884607641964" y2="260.2679966627947" stroke="#FF0000" stroke-width="1.5" />
<line x1="249.9238470560466" y1="263.8479080536243" x2="244.00113232693516" y2="264.80783004918754" stroke="#FF0000" stroke-width="1.5" />
<line x1="557.7658554857876" y1="269.5255678787596" x2="543.417067800279" y2="271.1504277808375" stroke="#FF0000" stroke-width="1.5" />
<line x1="543.417067800279" y1="271.1504277808375" x2="549.1712443014017" y2="272.8502668302561" stroke="#FF0000" stroke-width="1.5" />
<line x1="543.417067800279" y1="271.1504277808375" x2="548.6454310710283" y2="268.2069234901865" stroke="#FF0000" stroke-width="1.5" />
<line x1="363.39902310554476" y1="386.2083621203129" x2="363.39902310554476" y2="397.83191524662027" stroke="#FF0000" stroke-width="1.5" />
<line x1="363.39902310554476" y1="397.83191524662027" x2="365.73553315939665" y2="392.30554928260295" stroke="#FF0000" stroke-width="1.5" />
<line x1="363.39902310554476" y1="397.83191524662027" x2="361.06251305169286" y2="392.30554928260295" stroke="#FF0000" stroke-width="1.5" />
<line x1="238.97768322613257" y1="165.69068840197596" x2="247.87606115794654" y2="155.52172534134107" stroke="#FF0000" stroke-width="1.5" />
<line x1="247.87606115794654" y1="155.52172534134107" x2="242.47844257829567" y2="158.14197602946385" stroke="#FF0000" stroke-width="1.5" />
<line x1="247.87606115794654" y1="155.52172534134107" x2="245.9951568698154" y2="161.2192861403927" stroke="#FF0000" stroke-width="1.5" />
<line x1="560.8915699378695" y1="173.08362939378318" x2="546.6846894591988" y2="162.3233849003572" stroke="#FF0000" stroke-width="1.5" />
<line x1="546.6846894591988" y1="162.3233849003572" x2="549.679384354388" y2="167.52259661798593" stroke="#FF0000" stroke-width="1.5" />
<line x1="546.6846894591988" y1="162.3233849003572" x2="552.500799678642" y2="163.79744796389588" stroke="#FF0000" stroke-width="1.5" />
<line x1="363.3990231055448" y1="291.5357111152858" x2="363.3990231055448" y2="291.5357111152858" stroke="#FF0000" stroke-width="1.5" />
<line x1="165.4584224754252" y1="410.25652654812734" x2="180.90777229959494" y2="420.1879920034723" stroke="#FF0000" stroke-width="1.5" />
<line x1="180.90777229959494" y1="420.1879920034723" x2="177.5225388906718" y2="415.23418591450286" stroke="#FF0000" stroke-width="1.5" />
<line x1="180.90777229959494" y1="420.1879920034723" x2="174.99561449983463" y2="419.16505986949" stroke="#FF0000" stroke-width="1.5" />
<line x1="489.6858116434473" y1="419.2675277582041" x2="479.7713516749844" y2="428.54972093356196" stroke="#FF0000" stroke-width="1.5" />
<line x1="479.7713516749844" y1="428.54972093356196" x2="485.4024812264584" y2="426.4783976911597" stroke="#FF0000" stroke-width="1.5" />
<line x1="479.7713516749844" y1="428.54972093356196" x2="482.2087210705405" y2="423.0670910509594" stroke="#FF0000" stroke-width="1.5" />
<line x1="363.3990231055448" y1="193.76476763852435" x2="363.3990231055448" y2="181.317960504128" stroke="#FF0000" stroke-width="1.5" />
<line x1="363.3990231055448" y1="181.317960504128" x2="361.0625130516929" y2="186.8443264681453" stroke="#FF0000" stroke-width="1.5" />
<line x1="363.3990231055448" y1="181.317960504128" x2="365.7355331593967" y2="186.8443264681453" stroke="#FF0000" stroke-width="1.5" />
<line x1="162.21574923015345" y1="314.317749699564" x2="177.5489107808623" y2="312.58141908251883" stroke="#FF0000" stroke-width="1.5" />
<line x1="177.5489107808623" y1="312.58141908251883" x2="171.79473427973969" y2="310.88158003310025" stroke="#FF0000" stroke-width="1.5" />
<line x1="177.5489107808623" y1="312.58141908251883" x2="172.32054751011307" y2="315.5249233731698" stroke="#FF0000" stroke-width="1.5" />
<line x1="491.7680124915896" y1="322.85758626968027" x2="481.9260298301958" y2="320.45615463368887" stroke="#FF0000" stroke-width="1.5" />
<line x1="481.9260298301958" y1="320.45615463368887" x2="486.74103080982275" y2="324.03606602451845" stroke="#FF0000" stroke-width="1.5" />
<line x1="481.9260298301958" y1="320.45615463368887" x2="487.84874455930725" y2="319.4962326381256" stroke="#FF0000" stroke-width="1.5" />
<line x1="289.19905184890354" y1="444.4802328797118" x2="295.11901932381477" y2="451.9017765509585" stroke="#FF0000" stroke-width="1.5" />
<line x1="295.11901932381477" y1="451.9017765509585" x2="293.49943759334286" y2="446.12449734545686" stroke="#FF0000" stroke-width="1.5" />
<line x1="295.11901932381477" y1="451.9017765509585" x2="289.84627943896515" y2="449.03852418577725" stroke="#FF0000" stroke-width="1.5" />
<line x1="158.86506322977093" y1="215.18327262912823" x2="174.06408710925575" y2="200.93944443008542" stroke="#FF0000" stroke-width="1.5" />
<line x1="174.06408710925575" y1="200.93944443008542" x2="168.4339802624103" y2="203.01354589652914" stroke="#FF0000" stroke-width="1.5" />
<line x1="174.06408710925575" y1="200.93944443008542" x2="171.62942321481412" y2="206.42327627662323" stroke="#FF0000" stroke-width="1.5" />
<line x1="493.9200265479659" y1="223.21515771009638" x2="484.1620025652853" y2="208.28428966140288" stroke="#FF0000" stroke-width="1.5" />
<line x1="484.1620025652853" y1="208.28428966140288" x2="485.2294774279015" y2="214.18856755270193" stroke="#FF0000" stroke-width="1.5" />
<line x1="484.1620025652853" y1="208.28428966140288" x2="489.14118917181617" y2="211.63208008754123" stroke="#FF0000" stroke-width="1.5" />
<line x1="287.95367319043794" y1="346.76142822163575" x2="293.83384683238233" y2="342.4571628633116" stroke="#FF0000" stroke-width="1.5" />
<line x1="293.83384683238233" y1="342.4571628633116" x2="287.9944287489457" y2="343.83600166710033" stroke="#FF0000" stroke-width="1.5" />
<line x1="293.83384683238233" y1="342.4571628633116" x2="290.7546034892353" y2="347.6067512384815" stroke="#FF0000" stroke-width="1.5" />
<line x1="419.06061926555606" y1="480.39684466299855" x2="414.51884244555663" y2="485.05630698602056" stroke="#FF0000" stroke-width="1.5" />
<line x1="414.51884244555663" y1="485.05630698602056" x2="420.0494339149867" y2="482.72981649640593" stroke="#FF0000" stroke-width="1.5" />
<line x1="414.51884244555663" y1="485.05630698602056" x2="416.7031205058219" y2="479.4680219758011" stroke="#FF0000" stroke-width="1.5" />
<line x1="286.6657758104574" y1="245.7063863365978" x2="292.49936700481885" y2="228.81356235420859" stroke="#FF0000" stroke-width="1.5" />
<line x1="292.49936700481885" y1="228.81356235420859" x2="288.4869483505159" y2="233.27455961296158" stroke="#FF0000" stroke-width="1.5" />
<line x1="292.49936700481885" y1="228.81356235420859" x2="292.9040115627088" y2="234.7999020356642" stroke="#FF0000" stroke-width="1.5" />
<line x1="420.018352051314" y1="380.83757525931276" x2="415.50330105833905" y2="373.7162886265412" stroke="#FF0000" stroke-width="1.5" />
<line x1="415.50330105833905" y1="373.7162886265412" x2="416.489173793353" y2="379.6347390107513" stroke="#FF0000" stroke-width="1.5" />
<line x1="415.50330105833905" y1="373.7162886265412" x2="420.4358016391854" y2="377.1324909068446" stroke="#FF0000" stroke-width="1.5" />
<line x1="421.0096200220603" y1="277.7922202100236" x2="416.52642135605697" y2="258.00372209222394" stroke="#FF0000" stroke-width="1.5" />
<line x1="416.52642135605697" y1="258.00372209222394" x2="415.4687457532984" y2="263.90976326371344" stroke="#FF0000" stroke-width="1.5" />
<line x1="416.52642135605697" y1="258.00372209222394" x2="420.0262662747736" y2="262.87723063791594" stroke="#FF0000" stroke-width="1.5" />
</g>
</g>
<line x1="154.22690564343628" y1="434.9998364150031" x2="152.90744216832658" y2="439.67844917654037" stroke="#262626" stroke-width="1.1111111111111112" />
<path d="M0.678168 -4.36062L4.3335 -4.36062L4.3335 -3.24843L0.678168 -3.24843L0.678168 -4.36062ZM6.73421 -1.15289L8.97217 -1.15289L8.97217 -8.87722L6.53754 -8.38894L6.53754 -9.63677L8.9586 -10.1251L10.3285 -10.1251L10.3285 -1.15289L12.5665 -1.15289L12.5665 0L6.73421 0L6.73421 -1.15289ZM15.3334 -1.72255L16.7643 -1.72255L16.7643 0L15.3334 0L15.3334 -1.72255ZM22.678 -9.22309Q21.62 -9.22309 21.0876 -8.1821Q20.5553 -7.14111 20.5553 -5.05235Q20.5553 -2.97038 21.0876 -1.92939Q21.62 -0.888401 22.678 -0.888401Q23.7427 -0.888401 24.275 -1.92939Q24.8074 -2.97038 24.8074 -5.05235Q24.8074 -7.14111 24.275 -8.1821Q23.7427 -9.22309 22.678 -9.22309ZM22.678 -10.3082Q24.3802 -10.3082 25.2787 -8.962Q26.1773 -7.61583 26.1773 -5.05235Q26.1773 -2.49566 25.2787 -1.1495Q24.3802 0.196669 22.678 0.196669Q20.9757 0.196669 20.0772 -1.1495Q19.1786 -2.49566 19.1786 -5.05235Q19.1786 -7.61583 20.0772 -8.962Q20.9757 -10.3082 22.678 -10.3082ZM31.5145 -9.22309Q30.4565 -9.22309 29.9242 -8.1821Q29.3918 -7.14111 29.3918 -5.05235Q29.3918 -2.97038 29.9242 -1.92939Q30.4565 -0.888401 31.5145 -0.888401Q32.5792 -0.888401 33.1116 -1.92939Q33.6439 -2.97038 33.6439 -5.05235Q33.6439 -7.14111 33.1116 -8.1821Q32.5792 -9.22309 31.5145 -9.22309ZM31.5145 -10.3082Q33.2167 -10.3082 34.1153 -8.962Q35.0138 -7.61583 35.0138 -5.05235Q35.0138 -2.49566 34.1153 -1.1495Q33.2167 0.196669 31.5145 0.196669Q29.8123 0.196669 28.9137 -1.1495Q28.0151 -2.49566 28.0151 -5.05235Q28.0151 -7.61583 28.9137 -8.962Q29.8123 -10.3082 31.5145 -10.3082Z" fill="#262626" transform="translate(147.787923884901,457.8314666913049) translate(-17.96807289123535,0)" />
<line x1="184.64284031099402" y1="443.5777454877724" x2="183.32337683588432" y2="448.2563582493097" stroke="#262626" stroke-width="1.1111111111111112" />
<path d="M0.678168 -4.36062L4.3335 -4.36062L4.3335 -3.24843L0.678168 -3.24843L0.678168 -4.36062ZM9.42654 -9.22309Q8.3686 -9.22309 7.83624 -8.1821Q7.30387 -7.14111 7.30387 -5.05235Q7.30387 -2.97038 7.83624 -1.92939Q8.3686 -0.888401 9.42654 -0.888401Q10.4913 -0.888401 11.0236 -1.92939Q11.556 -2.97038 11.556 -5.05235Q11.556 -7.14111 11.0236 -8.1821Q10.4913 -9.22309 9.42654 -9.22309ZM9.42654 -10.3082Q11.1287 -10.3082 12.0273 -8.962Q12.9259 -7.61583 12.9259 -5.05235Q12.9259 -2.49566 12.0273 -1.1495Q11.1287 0.196669 9.42654 0.196669Q7.72434 0.196669 6.82577 -1.1495Q5.92719 -2.49566 5.92719 -5.05235Q5.92719 -7.61583 6.82577 -8.962Q7.72434 -10.3082 9.42654 -10.3082ZM15.3334 -1.72255L16.7643 -1.72255L16.7643 0L15.3334 0L15.3334 -1.72255ZM19.4024 -10.1251L25.9128 -10.1251L25.9128 -9.54183L22.2371 0L20.8062 0L24.2649 -8.97217L19.4024 -8.97217L19.4024 -10.1251ZM28.5984 -10.1251L33.9762 -10.1251L33.9762 -8.97217L29.853 -8.97217L29.853 -6.49007Q30.1514 -6.5918 30.4498 -6.64266Q30.7482 -6.69352 31.0466 -6.69352Q32.742 -6.69352 33.7321 -5.76443Q34.7222 -4.83534 34.7222 -3.24843Q34.7222 -1.61404 33.705 -0.708686Q32.6877 0.196669 30.8363 0.196669Q30.1988 0.196669 29.5376 0.0881619C29.0968 0.0158239 28.6413 -0.092683 28.1711 -0.237359L28.1711 -1.61404Q28.7815 -1.28174 29.4325 -1.11898Q30.0836 -0.956217 30.8092 -0.956217Q31.9824 -0.956217 32.6674 -1.57335Q33.3523 -2.19048 33.3523 -3.24843Q33.3523 -4.30637 32.6674 -4.9235Q31.9824 -5.54064 30.8092 -5.54064Q30.2599 -5.54064 29.714 -5.41857Q29.168 -5.2965 28.5984 -5.03879L28.5984 -10.1251Z" fill="#262626" transform="translate(178.20385855245874,466.40937576407424) translate(-17.96807289123535,0)" />
<line x1="215.42262915360845" y1="452.25826880085685" x2="214.10316567849875" y2="456.93688156239415" stroke="#262626" stroke-width="1.1111111111111112" />
<path d="M0.678168 -4.36062L4.3335 -4.36062L4.3335 -3.24843L0.678168 -3.24843L0.678168 -4.36062ZM9.42654 -9.22309Q8.3686 -9.22309 7.83624 -8.1821Q7.30387 -7.14111 7.30387 -5.05235Q7.30387 -2.97038 7.83624 -1.92939Q8.3686 -0.888401 9.42654 -0.888401Q10.4913 -0.888401 11.0236 -1.92939Q11.556 -2.97038 11.556 -5.05235Q11.556 -7.14111 11.0236 -8.1821Q10.4913 -9.22309 9.42654 -9.22309ZM9.42654 -10.3082Q11.1287 -10.3082 12.0273 -8.962Q12.9259 -7.61583 12.9259 -5.05235Q12.9259 -2.49566 12.0273 -1.1495Q11.1287 0.196669 9.42654 0.196669Q7.72434 0.196669 6.82577 -1.1495Q5.92719 -2.49566 5.92719 -5.05235Q5.92719 -7.61583 6.82577 -8.962Q7.72434 -10.3082 9.42654 -10.3082ZM15.3334 -1.72255L16.7643 -1.72255L16.7643 0L15.3334 0L15.3334 -1.72255ZM19.7618 -10.1251L25.1397 -10.1251L25.1397 -8.97217L21.0164 -8.97217L21.0164 -6.49007Q21.3148 -6.5918 21.6132 -6.64266Q21.9116 -6.69352 22.21 -6.69352Q23.9054 -6.69352 24.8956 -5.76443Q25.8857 -4.83534 25.8857 -3.24843Q25.8857 -1.61404 24.8684 -0.708686Q23.8512 0.196669 21.9998 0.196669Q21.3623 0.196669 20.7011 0.0881619C20.2603 0.0158239 19.8048 -0.092683 19.3346 -0.237359L19.3346 -1.61404Q19.9449 -1.28174 20.596 -1.11898Q21.247 -0.956217 21.9727 -0.956217Q23.1459 -0.956217 23.8308 -1.57335Q24.5158 -2.19048 24.5158 -3.24843Q24.5158 -4.30637 23.8308 -4.9235Q23.1459 -5.54064 21.9727 -5.54064Q21.4233 -5.54064 20.8774 -5.41857Q20.3315 -5.2965 19.7618 -5.03879L19.7618 -10.1251ZM31.5145 -9.22309Q30.4565 -9.22309 29.9242 -8.1821Q29.3918 -7.14111 29.3918 -5.05235Q29.3918 -2.97038 29.9242 -1.92939Q30.4565 -0.888401 31.5145 -0.888401Q32.5792 -0.888401 33.1116 -1.92939Q33.6439 -2.97038 33.6439 -5.05235Q33.6439 -7.14111 33.1116 -8.1821Q32.5792 -9.22309 31.5145 -9.22309ZM31.5145 -10.3082Q33.2167 -10.3082 34.1153 -8.962Q35.0138 -7.61583 35.0138 -5.05235Q35.0138 -2.49566 34.1153 -1.1495Q33.2167 0.196669 31.5145 0.196669Q29.8123 0.196669 28.9137 -1.1495Q28.0151 -2.49566 28.0151 -5.05235Q28.0151 -7.61583 28.9137 -8.962Q29.8123 -10.3082 31.5145 -10.3082Z" fill="#262626" transform="translate(208.98364739507318,475.0898990771587) translate(-17.96807289123535,0)" />
<line x1="246.5728404302355" y1="461.043258736197" x2="245.2533769551258" y2="465.7218714977343" stroke="#262626" stroke-width="1.1111111111111112" />
<path d="M0.678168 -4.36062L4.3335 -4.36062L4.3335 -3.24843L0.678168 -3.24843L0.678168 -4.36062ZM9.42654 -9.22309Q8.3686 -9.22309 7.83624 -8.1821Q7.30387 -7.14111 7.30387 -5.05235Q7.30387 -2.97038 7.83624 -1.92939Q8.3686 -0.888401 9.42654 -0.888401Q10.4913 -0.888401 11.0236 -1.92939Q11.556 -2.97038 11.556 -5.05235Q11.556 -7.14111 11.0236 -8.1821Q10.4913 -9.22309 9.42654 -9.22309ZM9.42654 -10.3082Q11.1287 -10.3082 12.0273 -8.962Q12.9259 -7.61583 12.9259 -5.05235Q12.9259 -2.49566 12.0273 -1.1495Q11.1287 0.196669 9.42654 0.196669Q7.72434 0.196669 6.82577 -1.1495Q5.92719 -2.49566 5.92719 -5.05235Q5.92719 -7.61583 6.82577 -8.962Q7.72434 -10.3082 9.42654 -10.3082ZM15.3334 -1.72255L16.7643 -1.72255L16.7643 0L15.3334 0L15.3334 -1.72255ZM20.9283 -1.15289L25.7094 -1.15289L25.7094 0L19.2803 0L19.2803 -1.15289Q20.0602 -1.95991 21.4064 -3.31963Q22.7526 -4.67936 23.0984 -5.0727Q23.7562 -5.8119 24.0173 -6.32392Q24.2784 -6.83594 24.2784 -7.331Q24.2784 -8.13802 23.7122 -8.64665Q23.1459 -9.15527 22.2371 -9.15527Q21.5929 -9.15527 20.8774 -8.93148Q20.1619 -8.70768 19.3481 -8.25331L19.3481 -9.63677Q20.1755 -9.96908 20.8944 -10.1386Q21.6132 -10.3082 22.21 -10.3082Q23.7834 -10.3082 24.7192 -9.52148Q25.6551 -8.73481 25.6551 -7.41916Q25.6551 -6.79525 25.4211 -6.23576Q25.1872 -5.67627 24.57 -4.91672Q24.4005 -4.72005 23.4918 -3.78079Q22.583 -2.84153 20.9283 -1.15289ZM28.5984 -10.1251L33.9762 -10.1251L33.9762 -8.97217L29.853 -8.97217L29.853 -6.49007Q30.1514 -6.5918 30.4498 -6.64266Q30.7482 -6.69352 31.0466 -6.69352Q32.742 -6.69352 33.7321 -5.76443Q34.7222 -4.83534 34.7222 -3.24843Q34.7222 -1.61404 33.705 -0.708686Q32.6877 0.196669 30.8363 0.196669Q30.1988 0.196669 29.5376 0.0881619C29.0968 0.0158239 28.6413 -0.092683 28.1711 -0.237359L28.1711 -1.61404Q28.7815 -1.28174 29.4325 -1.11898Q30.0836 -0.956217 30.8092 -0.956217Q31.9824 -0.956217 32.6674 -1.57335Q33.3523 -2.19048 33.3523 -3.24843Q33.3523 -4.30637 32.6674 -4.9235Q31.9824 -5.54064 30.8092 -5.54064Q30.2599 -5.54064 29.714 -5.41857Q29.168 -5.2965 28.5984 -5.03879L28.5984 -10.1251Z" fill="#262626" transform="translate(240.1338586717002,483.87488901249884) translate(-17.96807289123535,0)" />
<line x1="278.1002014496142" y1="469.9346125309912" x2="276.7807379745045" y2="474.6132252925285" stroke="#262626" stroke-width="1.1111111111111112" />
<path d="M4.41488 -9.22309Q3.35693 -9.22309 2.82457 -8.1821Q2.29221 -7.14111 2.29221 -5.05235Q2.29221 -2.97038 2.82457 -1.92939Q3.35693 -0.888401 4.41488 -0.888401Q5.4796 -0.888401 6.01196 -1.92939Q6.54433 -2.97038 6.54433 -5.05235Q6.54433 -7.14111 6.01196 -8.1821Q5.4796 -9.22309 4.41488 -9.22309ZM4.41488 -10.3082Q6.11708 -10.3082 7.01565 -8.962Q7.91422 -7.61583 7.91423 -5.05235Q7.91423 -2.49566 7.01565 -1.1495Q6.11708 0.196669 4.41488 0.196669Q2.71267 0.196669 1.8141 -1.1495Q0.915527 -2.49566 0.915527 -5.05235Q0.915527 -7.61583 1.8141 -8.962Q2.71267 -10.3082 4.41488 -10.3082ZM10.3217 -1.72255L11.7527 -1.72255L11.7527 0L10.3217 0L10.3217 -1.72255ZM17.6663 -9.22309Q16.6083 -9.22309 16.076 -8.1821Q15.5436 -7.14111 15.5436 -5.05235Q15.5436 -2.97038 16.076 -1.92939Q16.6083 -0.888401 17.6663 -0.888401Q18.731 -0.888401 19.2634 -1.92939Q19.7957 -2.97038 19.7957 -5.05235Q19.7957 -7.14111 19.2634 -8.1821Q18.731 -9.22309 17.6663 -9.22309ZM17.6663 -10.3082Q19.3685 -10.3082 20.2671 -8.962Q21.1656 -7.61583 21.1656 -5.05235Q21.1656 -2.49566 20.2671 -1.1495Q19.3685 0.196669 17.6663 0.196669Q15.9641 0.196669 15.0655 -1.1495Q14.1669 -2.49566 14.1669 -5.05235Q14.1669 -7.61583 15.0655 -8.962Q15.9641 -10.3082 17.6663 -10.3082ZM26.5028 -9.22309Q25.4449 -9.22309 24.9125 -8.1821Q24.3802 -7.14111 24.3802 -5.05235Q24.3802 -2.97038 24.9125 -1.92939Q25.4449 -0.888401 26.5028 -0.888401Q27.5675 -0.888401 28.0999 -1.92939Q28.6323 -2.97038 28.6323 -5.05235Q28.6323 -7.14111 28.0999 -8.1821Q27.5675 -9.22309 26.5028 -9.22309ZM26.5028 -10.3082Q28.205 -10.3082 29.1036 -8.962Q30.0022 -7.61583 30.0022 -5.05235Q30.0022 -2.49566 29.1036 -1.1495Q28.205 0.196669 26.5028 0.196669Q24.8006 0.196669 23.902 -1.1495Q23.0035 -2.49566 23.0035 -5.05235Q23.0035 -7.61583 23.902 -8.962Q24.8006 -10.3082 26.5028 -10.3082Z" fill="#262626" transform="translate(271.66121969107894,492.76624280729305) translate(-15.462240219116211,0)" />
<line x1="310.0116034138081" y1="478.93427364367165" x2="308.6921399386984" y2="483.61288640520894" stroke="#262626" stroke-width="1.1111111111111112" />
<path d="M4.41488 -9.22309Q3.35693 -9.22309 2.82457 -8.1821Q2.29221 -7.14111 2.29221 -5.05235Q2.29221 -2.97038 2.82457 -1.92939Q3.35693 -0.888401 4.41488 -0.888401Q5.4796 -0.888401 6.01196 -1.92939Q6.54433 -2.97038 6.54433 -5.05235Q6.54433 -7.14111 6.01196 -8.1821Q5.4796 -9.22309 4.41488 -9.22309ZM4.41488 -10.3082Q6.11708 -10.3082 7.01565 -8.962Q7.91422 -7.61583 7.91423 -5.05235Q7.91423 -2.49566 7.01565 -1.1495Q6.11708 0.196669 4.41488 0.196669Q2.71267 0.196669 1.8141 -1.1495Q0.915527 -2.49566 0.915527 -5.05235Q0.915527 -7.61583 1.8141 -8.962Q2.71267 -10.3082 4.41488 -10.3082ZM10.3217 -1.72255L11.7527 -1.72255L11.7527 0L10.3217 0L10.3217 -1.72255ZM15.9166 -1.15289L20.6977 -1.15289L20.6977 0L14.2687 0L14.2687 -1.15289Q15.0486 -1.95991 16.3947 -3.31963Q17.7409 -4.67936 18.0868 -5.0727Q18.7446 -5.8119 19.0057 -6.32392Q19.2668 -6.83594 19.2668 -7.331Q19.2668 -8.13802 18.7005 -8.64665Q18.1342 -9.15527 17.2255 -9.15527Q16.5812 -9.15527 15.8658 -8.93148Q15.1503 -8.70768 14.3365 -8.25331L14.3365 -9.63677Q15.1638 -9.96908 15.8827 -10.1386Q16.6016 -10.3082 17.1984 -10.3082Q18.7717 -10.3082 19.7076 -9.52148Q20.6434 -8.73481 20.6434 -7.41916Q20.6434 -6.79525 20.4095 -6.23576Q20.1755 -5.67627 19.5584 -4.91672Q19.3888 -4.72005 18.4801 -3.78079Q17.5713 -2.84153 15.9166 -1.15289ZM23.5867 -10.1251L28.9646 -10.1251L28.9646 -8.97217L24.8413 -8.97217L24.8413 -6.49007Q25.1397 -6.5918 25.4381 -6.64266Q25.7365 -6.69352 26.0349 -6.69352Q27.7303 -6.69352 28.7204 -5.76443Q29.7106 -4.83534 29.7106 -3.24843Q29.7106 -1.61404 28.6933 -0.708686Q27.6761 0.196669 25.8247 0.196669Q25.1872 0.196669 24.526 0.0881619C24.0852 0.0158239 23.6296 -0.092683 23.1595 -0.237359L23.1595 -1.61404Q23.7698 -1.28174 24.4208 -1.11898Q25.0719 -0.956217 25.7975 -0.956217Q26.9708 -0.956217 27.6557 -1.57335Q28.3407 -2.19048 28.3407 -3.24843Q28.3407 -4.30637 27.6557 -4.9235Q26.9708 -5.54064 25.7975 -5.54064Q25.2482 -5.54064 24.7023 -5.41857Q24.1564 -5.2965 23.5867 -5.03879L23.5867 -10.1251Z" fill="#262626" transform="translate(303.5726216552728,501.7659039199735) translate(-15.462240219116211,0)" />
<line x1="342.3141064398314" y1="488.0442331701048" x2="340.9946429647217" y2="492.7228459316421" stroke="#262626" stroke-width="1.1111111111111112" />
<path d="M4.41488 -9.22309Q3.35693 -9.22309 2.82457 -8.1821Q2.29221 -7.14111 2.29221 -5.05235Q2.29221 -2.97038 2.82457 -1.92939Q3.35693 -0.888401 4.41488 -0.888401Q5.4796 -0.888401 6.01196 -1.92939Q6.54433 -2.97038 6.54433 -5.05235Q6.54433 -7.14111 6.01196 -8.1821Q5.4796 -9.22309 4.41488 -9.22309ZM4.41488 -10.3082Q6.11708 -10.3082 7.01565 -8.962Q7.91422 -7.61583 7.91423 -5.05235Q7.91423 -2.49566 7.01565 -1.1495Q6.11708 0.196669 4.41488 0.196669Q2.71267 0.196669 1.8141 -1.1495Q0.915527 -2.49566 0.915527 -5.05235Q0.915527 -7.61583 1.8141 -8.962Q2.71267 -10.3082 4.41488 -10.3082ZM10.3217 -1.72255L11.7527 -1.72255L11.7527 0L10.3217 0L10.3217 -1.72255ZM14.7502 -10.1251L20.128 -10.1251L20.128 -8.97217L16.0048 -8.97217L16.0048 -6.49007Q16.3032 -6.5918 16.6016 -6.64266Q16.9 -6.69352 17.1984 -6.69352Q18.8938 -6.69352 19.8839 -5.76443Q20.874 -4.83534 20.874 -3.24843Q20.874 -1.61404 19.8568 -0.708686Q18.8395 0.196669 16.9881 0.196669Q16.3506 0.196669 15.6894 0.0881619C15.2486 0.0158239 14.7931 -0.092683 14.3229 -0.237359L14.3229 -1.61404Q14.9333 -1.28174 15.5843 -1.11898Q16.2354 -0.956217 16.961 -0.956217Q18.1342 -0.956217 18.8192 -1.57335Q19.5041 -2.19048 19.5041 -3.24843Q19.5041 -4.30637 18.8192 -4.9235Q18.1342 -5.54064 16.961 -5.54064Q16.4117 -5.54064 15.8658 -5.41857Q15.3198 -5.2965 14.7502 -5.03879L14.7502 -10.1251ZM26.5028 -9.22309Q25.4449 -9.22309 24.9125 -8.1821Q24.3802 -7.14111 24.3802 -5.05235Q24.3802 -2.97038 24.9125 -1.92939Q25.4449 -0.888401 26.5028 -0.888401Q27.5675 -0.888401 28.0999 -1.92939Q28.6323 -2.97038 28.6323 -5.05235Q28.6323 -7.14111 28.0999 -8.1821Q27.5675 -9.22309 26.5028 -9.22309ZM26.5028 -10.3082Q28.205 -10.3082 29.1036 -8.962Q30.0022 -7.61583 30.0022 -5.05235Q30.0022 -2.49566 29.1036 -1.1495Q28.205 0.196669 26.5028 0.196669Q24.8006 0.196669 23.902 -1.1495Q23.0035 -2.49566 23.0035 -5.05235Q23.0035 -7.61583 23.902 -8.962Q24.8006 -10.3082 26.5028 -10.3082Z" fill="#262626" transform="translate(335.87512468129614,510.87586344640664) translate(-15.462240219116211,0)" />
<line x1="375.01494476704636" y1="497.2665313121827" x2="373.6954812919367" y2="501.94514407372" stroke="#262626" stroke-width="1.1111111111111112" />
<path d="M4.41488 -9.22309Q3.35693 -9.22309 2.82457 -8.1821Q2.29221 -7.14111 2.29221 -5.05235Q2.29221 -2.97038 2.82457 -1.92939Q3.35693 -0.888401 4.41488 -0.888401Q5.4796 -0.888401 6.01196 -1.92939Q6.54433 -2.97038 6.54433 -5.05235Q6.54433 -7.14111 6.01196 -8.1821Q5.4796 -9.22309 4.41488 -9.22309ZM4.41488 -10.3082Q6.11708 -10.3082 7.01565 -8.962Q7.91422 -7.61583 7.91423 -5.05235Q7.91423 -2.49566 7.01565 -1.1495Q6.11708 0.196669 4.41488 0.196669Q2.71267 0.196669 1.8141 -1.1495Q0.915527 -2.49566 0.915527 -5.05235Q0.915527 -7.61583 1.8141 -8.962Q2.71267 -10.3082 4.41488 -10.3082ZM10.3217 -1.72255L11.7527 -1.72255L11.7527 0L10.3217 0L10.3217 -1.72255ZM14.3907 -10.1251L20.9012 -10.1251L20.9012 -9.54183L17.2255 0L15.7945 0L19.2532 -8.97217L14.3907 -8.97217L14.3907 -10.1251ZM23.5867 -10.1251L28.9646 -10.1251L28.9646 -8.97217L24.8413 -8.97217L24.8413 -6.49007Q25.1397 -6.5918 25.4381 -6.64266Q25.7365 -6.69352 26.0349 -6.69352Q27.7303 -6.69352 28.7204 -5.76443Q29.7106 -4.83534 29.7106 -3.24843Q29.7106 -1.61404 28.6933 -0.708686Q27.6761 0.196669 25.8247 0.196669Q25.1872 0.196669 24.526 0.0881619C24.0852 0.0158239 23.6296 -0.092683 23.1595 -0.237359L23.1595 -1.61404Q23.7698 -1.28174 24.4208 -1.11898Q25.0719 -0.956217 25.7975 -0.956217Q26.9708 -0.956217 27.6557 -1.57335Q28.3407 -2.19048 28.3407 -3.24843Q28.3407 -4.30637 27.6557 -4.9235Q26.9708 -5.54064 25.7975 -5.54064Q25.2482 -5.54064 24.7023 -5.41857Q24.1564 -5.2965 23.5867 -5.03879L23.5867 -10.1251Z" fill="#262626" transform="translate(368.5759630085111,520.0981615884846) translate(-15.462240219116211,0)" />
<line x1="408.1215321583995" y1="506.6032589010811" x2="406.8020686832898" y2="511.2818716626184" stroke="#262626" stroke-width="1.1111111111111112" />
<path d="M1.72255 -1.15289L3.9605 -1.15289L3.9605 -8.87722L1.52588 -8.38894L1.52588 -9.63677L3.94694 -10.1251L5.31684 -10.1251L5.31684 -1.15289L7.5548 -1.15289L7.5548 0L1.72255 0L1.72255 -1.15289ZM10.3217 -1.72255L11.7527 -1.72255L11.7527 0L10.3217 0L10.3217 -1.72255ZM17.6663 -9.22309Q16.6083 -9.22309 16.076 -8.1821Q15.5436 -7.14111 15.5436 -5.05235Q15.5436 -2.97038 16.076 -1.92939Q16.6083 -0.888401 17.6663 -0.888401Q18.731 -0.888401 19.2634 -1.92939Q19.7957 -2.97038 19.7957 -5.05235Q19.7957 -7.14111 19.2634 -8.1821Q18.731 -9.22309 17.6663 -9.22309ZM17.6663 -10.3082Q19.3685 -10.3082 20.2671 -8.962Q21.1656 -7.61583 21.1656 -5.05235Q21.1656 -2.49566 20.2671 -1.1495Q19.3685 0.196669 17.6663 0.196669Q15.9641 0.196669 15.0655 -1.1495Q14.1669 -2.49566 14.1669 -5.05235Q14.1669 -7.61583 15.0655 -8.962Q15.9641 -10.3082 17.6663 -10.3082ZM26.5028 -9.22309Q25.4449 -9.22309 24.9125 -8.1821Q24.3802 -7.14111 24.3802 -5.05235Q24.3802 -2.97038 24.9125 -1.92939Q25.4449 -0.888401 26.5028 -0.888401Q27.5675 -0.888401 28.0999 -1.92939Q28.6323 -2.97038 28.6323 -5.05235Q28.6323 -7.14111 28.0999 -8.1821Q27.5675 -9.22309 26.5028 -9.22309ZM26.5028 -10.3082Q28.205 -10.3082 29.1036 -8.962Q30.0022 -7.61583 30.0022 -5.05235Q30.0022 -2.49566 29.1036 -1.1495Q28.205 0.196669 26.5028 0.196669Q24.8006 0.196669 23.902 -1.1495Q23.0035 -2.49566 23.0035 -5.05235Q23.0035 -7.61583 23.902 -8.962Q24.8006 -10.3082 26.5028 -10.3082Z" fill="#262626" transform="translate(401.6825503998642,529.434889177383) translate(-15.462240219116211,0)" />
<line x1="438.31880699611327" y1="502.60206421941666" x2="441.54738644972554" y2="506.23616327506727" stroke="#262626" stroke-width="1.1111111111111112" />
<path d="M0.678168 -4.36062L4.3335 -4.36062L4.3335 -3.24843L0.678168 -3.24843L0.678168 -4.36062ZM6.73421 -1.15289L8.97217 -1.15289L8.97217 -8.87722L6.53754 -8.38894L6.53754 -9.63677L8.9586 -10.1251L10.3285 -10.1251L10.3285 -1.15289L12.5665 -1.15289L12.5665 0L6.73421 0L6.73421 -1.15289ZM15.3334 -1.72255L16.7643 -1.72255L16.7643 0L15.3334 0L15.3334 -1.72255ZM22.678 -9.22309Q21.62 -9.22309 21.0876 -8.1821Q20.5553 -7.14111 20.5553 -5.05235Q20.5553 -2.97038 21.0876 -1.92939Q21.62 -0.888401 22.678 -0.888401Q23.7427 -0.888401 24.275 -1.92939Q24.8074 -2.97038 24.8074 -5.05235Q24.8074 -7.14111 24.275 -8.1821Q23.7427 -9.22309 22.678 -9.22309ZM22.678 -10.3082Q24.3802 -10.3082 25.2787 -8.962Q26.1773 -7.61583 26.1773 -5.05235Q26.1773 -2.49566 25.2787 -1.1495Q24.3802 0.196669 22.678 0.196669Q20.9757 0.196669 20.0772 -1.1495Q19.1786 -2.49566 19.1786 -5.05235Q19.1786 -7.61583 20.0772 -8.962Q20.9757 -10.3082 22.678 -10.3082ZM31.5145 -9.22309Q30.4565 -9.22309 29.9242 -8.1821Q29.3918 -7.14111 29.3918 -5.05235Q29.3918 -2.97038 29.9242 -1.92939Q30.4565 -0.888401 31.5145 -0.888401Q32.5792 -0.888401 33.1116 -1.92939Q33.6439 -2.97038 33.6439 -5.05235Q33.6439 -7.14111 33.1116 -8.1821Q32.5792 -9.22309 31.5145 -9.22309ZM31.5145 -10.3082Q33.2167 -10.3082 34.1153 -8.962Q35.0138 -7.61583 35.0138 -5.05235Q35.0138 -2.49566 34.1153 -1.1495Q33.2167 0.196669 31.5145 0.196669Q29.8123 0.196669 28.9137 -1.1495Q28.0151 -2.49566 28.0151 -5.05235Q28.0151 -7.61583 28.9137 -8.962Q29.8123 -10.3082 31.5145 -10.3082Z" fill="#262626" transform="translate(454.0742747297411,520.3364676109917) translate(-17.96807289123535,0)" />
<line x1="456.34478706713725" y1="486.5875560848517" x2="459.5733665207495" y2="490.2216551405023" stroke="#262626" stroke-width="1.1111111111111112" />
<path d="M0.678168 -4.36062L4.3335 -4.36062L4.3335 -3.24843L0.678168 -3.24843L0.678168 -4.36062ZM9.42654 -9.22309Q8.3686 -9.22309 7.83624 -8.1821Q7.30387 -7.14111 7.30387 -5.05235Q7.30387 -2.97038 7.83624 -1.92939Q8.3686 -0.888401 9.42654 -0.888401Q10.4913 -0.888401 11.0236 -1.92939Q11.556 -2.97038 11.556 -5.05235Q11.556 -7.14111 11.0236 -8.1821Q10.4913 -9.22309 9.42654 -9.22309ZM9.42654 -10.3082Q11.1287 -10.3082 12.0273 -8.962Q12.9259 -7.61583 12.9259 -5.05235Q12.9259 -2.49566 12.0273 -1.1495Q11.1287 0.196669 9.42654 0.196669Q7.72434 0.196669 6.82577 -1.1495Q5.92719 -2.49566 5.92719 -5.05235Q5.92719 -7.61583 6.82577 -8.962Q7.72434 -10.3082 9.42654 -10.3082ZM15.3334 -1.72255L16.7643 -1.72255L16.7643 0L15.3334 0L15.3334 -1.72255ZM19.4024 -10.1251L25.9128 -10.1251L25.9128 -9.54183L22.2371 0L20.8062 0L24.2649 -8.97217L19.4024 -8.97217L19.4024 -10.1251ZM28.5984 -10.1251L33.9762 -10.1251L33.9762 -8.97217L29.853 -8.97217L29.853 -6.49007Q30.1514 -6.5918 30.4498 -6.64266Q30.7482 -6.69352 31.0466 -6.69352Q32.742 -6.69352 33.7321 -5.76443Q34.7222 -4.83534 34.7222 -3.24843Q34.7222 -1.61404 33.705 -0.708686Q32.6877 0.196669 30.8363 0.196669Q30.1988 0.196669 29.5376 0.0881619C29.0968 0.0158239 28.6413 -0.092683 28.1711 -0.237359L28.1711 -1.61404Q28.7815 -1.28174 29.4325 -1.11898Q30.0836 -0.956217 30.8092 -0.956217Q31.9824 -0.956217 32.6674 -1.57335Q33.3523 -2.19048 33.3523 -3.24843Q33.3523 -4.30637 32.6674 -4.9235Q31.9824 -5.54064 30.8092 -5.54064Q30.2599 -5.54064 29.714 -5.41857Q29.168 -5.2965 28.5984 -5.03879L28.5984 -10.1251Z" fill="#262626" transform="translate(472.1002548007651,504.32195947642674) translate(-17.96807289123535,0)" />
<line x1="473.99249996461003" y1="470.90910527998557" x2="477.2210794182223" y2="474.5432043356362" stroke="#262626" stroke-width="1.1111111111111112" />
<path d="M0.678168 -4.36062L4.3335 -4.36062L4.3335 -3.24843L0.678168 -3.24843L0.678168 -4.36062ZM9.42654 -9.22309Q8.3686 -9.22309 7.83624 -8.1821Q7.30387 -7.14111 7.30387 -5.05235Q7.30387 -2.97038 7.83624 -1.92939Q8.3686 -0.888401 9.42654 -0.888401Q10.4913 -0.888401 11.0236 -1.92939Q11.556 -2.97038 11.556 -5.05235Q11.556 -7.14111 11.0236 -8.1821Q10.4913 -9.22309 9.42654 -9.22309ZM9.42654 -10.3082Q11.1287 -10.3082 12.0273 -8.962Q12.9259 -7.61583 12.9259 -5.05235Q12.9259 -2.49566 12.0273 -1.1495Q11.1287 0.196669 9.42654 0.196669Q7.72434 0.196669 6.82577 -1.1495Q5.92719 -2.49566 5.92719 -5.05235Q5.92719 -7.61583 6.82577 -8.962Q7.72434 -10.3082 9.42654 -10.3082ZM15.3334 -1.72255L16.7643 -1.72255L16.7643 0L15.3334 0L15.3334 -1.72255ZM19.7618 -10.1251L25.1397 -10.1251L25.1397 -8.97217L21.0164 -8.97217L21.0164 -6.49007Q21.3148 -6.5918 21.6132 -6.64266Q21.9116 -6.69352 22.21 -6.69352Q23.9054 -6.69352 24.8956 -5.76443Q25.8857 -4.83534 25.8857 -3.24843Q25.8857 -1.61404 24.8684 -0.708686Q23.8512 0.196669 21.9998 0.196669Q21.3623 0.196669 20.7011 0.0881619C20.2603 0.0158239 19.8048 -0.092683 19.3346 -0.237359L19.3346 -1.61404Q19.9449 -1.28174 20.596 -1.11898Q21.247 -0.956217 21.9727 -0.956217Q23.1459 -0.956217 23.8308 -1.57335Q24.5158 -2.19048 24.5158 -3.24843Q24.5158 -4.30637 23.8308 -4.9235Q23.1459 -5.54064 21.9727 -5.54064Q21.4233 -5.54064 20.8774 -5.41857Q20.3315 -5.2965 19.7618 -5.03879L19.7618 -10.1251ZM31.5145 -9.22309Q30.4565 -9.22309 29.9242 -8.1821Q29.3918 -7.14111 29.3918 -5.05235Q29.3918 -2.97038 29.9242 -1.92939Q30.4565 -0.888401 31.5145 -0.888401Q32.5792 -0.888401 33.1116 -1.92939Q33.6439 -2.97038 33.6439 -5.05235Q33.6439 -7.14111 33.1116 -8.1821Q32.5792 -9.22309 31.5145 -9.22309ZM31.5145 -10.3082Q33.2167 -10.3082 34.1153 -8.962Q35.0138 -7.61583 35.0138 -5.05235Q35.0138 -2.49566 34.1153 -1.1495Q33.2167 0.196669 31.5145 0.196669Q29.8123 0.196669 28.9137 -1.1495Q28.0151 -2.49566 28.0151 -5.05235Q28.0151 -7.61583 28.9137 -8.962Q29.8123 -10.3082 31.5145 -10.3082Z" fill="#262626" transform="translate(489.74796769823786,488.6435086715606) translate(-17.96807289123535,0)" />
<line x1="491.27372871036243" y1="455.5562436195538" x2="494.5023081639747" y2="459.1903426752044" stroke="#262626" stroke-width="1.1111111111111112" />
<path d="M0.678168 -4.36062L4.3335 -4.36062L4.3335 -3.24843L0.678168 -3.24843L0.678168 -4.36062ZM9.42654 -9.22309Q8.3686 -9.22309 7.83624 -8.1821Q7.30387 -7.14111 7.30387 -5.05235Q7.30387 -2.97038 7.83624 -1.92939Q8.3686 -0.888401 9.42654 -0.888401Q10.4913 -0.888401 11.0236 -1.92939Q11.556 -2.97038 11.556 -5.05235Q11.556 -7.14111 11.0236 -8.1821Q10.4913 -9.22309 9.42654 -9.22309ZM9.42654 -10.3082Q11.1287 -10.3082 12.0273 -8.962Q12.9259 -7.61583 12.9259 -5.05235Q12.9259 -2.49566 12.0273 -1.1495Q11.1287 0.196669 9.42654 0.196669Q7.72434 0.196669 6.82577 -1.1495Q5.92719 -2.49566 5.92719 -5.05235Q5.92719 -7.61583 6.82577 -8.962Q7.72434 -10.3082 9.42654 -10.3082ZM15.3334 -1.72255L16.7643 -1.72255L16.7643 0L15.3334 0L15.3334 -1.72255ZM20.9283 -1.15289L25.7094 -1.15289L25.7094 0L19.2803 0L19.2803 -1.15289Q20.0602 -1.95991 21.4064 -3.31963Q22.7526 -4.67936 23.0984 -5.0727Q23.7562 -5.8119 24.0173 -6.32392Q24.2784 -6.83594 24.2784 -7.331Q24.2784 -8.13802 23.7122 -8.64665Q23.1459 -9.15527 22.2371 -9.15527Q21.5929 -9.15527 20.8774 -8.93148Q20.1619 -8.70768 19.3481 -8.25331L19.3481 -9.63677Q20.1755 -9.96908 20.8944 -10.1386Q21.6132 -10.3082 22.21 -10.3082Q23.7834 -10.3082 24.7192 -9.52148Q25.6551 -8.73481 25.6551 -7.41916Q25.6551 -6.79525 25.4211 -6.23576Q25.1872 -5.67627 24.57 -4.91672Q24.4005 -4.72005 23.4918 -3.78079Q22.583 -2.84153 20.9283 -1.15289ZM28.5984 -10.1251L33.9762 -10.1251L33.9762 -8.97217L29.853 -8.97217L29.853 -6.49007Q30.1514 -6.5918 30.4498 -6.64266Q30.7482 -6.69352 31.0466 -6.69352Q32.742 -6.69352 33.7321 -5.76443Q34.7222 -4.83534 34.7222 -3.24843Q34.7222 -1.61404 33.705 -0.708686Q32.6877 0.196669 30.8363 0.196669Q30.1988 0.196669 29.5376 0.0881619C29.0968 0.0158239 28.6413 -0.092683 28.1711 -0.237359L28.1711 -1.61404Q28.7815 -1.28174 29.4325 -1.11898Q30.0836 -0.956217 30.8092 -0.956217Q31.9824 -0.956217 32.6674 -1.57335Q33.3523 -2.19048 33.3523 -3.24843Q33.3523 -4.30637 32.6674 -4.9235Q31.9824 -5.54064 30.8092 -5.54064Q30.2599 -5.54064 29.714 -5.41857Q29.168 -5.2965 28.5984 -5.03879L28.5984 -10.1251Z" fill="#262626" transform="translate(507.02919644399026,473.29064701112884) translate(-17.96807289123535,0)" />
<line x1="508.19977196733726" y1="440.51893322883916" x2="511.4283514209495" y2="444.15303228448977" stroke="#262626" stroke-width="1.1111111111111112" />
<path d="M4.41488 -9.22309Q3.35693 -9.22309 2.82457 -8.1821Q2.29221 -7.14111 2.29221 -5.05235Q2.29221 -2.97038 2.82457 -1.92939Q3.35693 -0.888401 4.41488 -0.888401Q5.4796 -0.888401 6.01196 -1.92939Q6.54433 -2.97038 6.54433 -5.05235Q6.54433 -7.14111 6.01196 -8.1821Q5.4796 -9.22309 4.41488 -9.22309ZM4.41488 -10.3082Q6.11708 -10.3082 7.01565 -8.962Q7.91422 -7.61583 7.91423 -5.05235Q7.91423 -2.49566 7.01565 -1.1495Q6.11708 0.196669 4.41488 0.196669Q2.71267 0.196669 1.8141 -1.1495Q0.915527 -2.49566 0.915527 -5.05235Q0.915527 -7.61583 1.8141 -8.962Q2.71267 -10.3082 4.41488 -10.3082ZM10.3217 -1.72255L11.7527 -1.72255L11.7527 0L10.3217 0L10.3217 -1.72255ZM17.6663 -9.22309Q16.6083 -9.22309 16.076 -8.1821Q15.5436 -7.14111 15.5436 -5.05235Q15.5436 -2.97038 16.076 -1.92939Q16.6083 -0.888401 17.6663 -0.888401Q18.731 -0.888401 19.2634 -1.92939Q19.7957 -2.97038 19.7957 -5.05235Q19.7957 -7.14111 19.2634 -8.1821Q18.731 -9.22309 17.6663 -9.22309ZM17.6663 -10.3082Q19.3685 -10.3082 20.2671 -8.962Q21.1656 -7.61583 21.1656 -5.05235Q21.1656 -2.49566 20.2671 -1.1495Q19.3685 0.196669 17.6663 0.196669Q15.9641 0.196669 15.0655 -1.1495Q14.1669 -2.49566 14.1669 -5.05235Q14.1669 -7.61583 15.0655 -8.962Q15.9641 -10.3082 17.6663 -10.3082ZM26.5028 -9.22309Q25.4449 -9.22309 24.9125 -8.1821Q24.3802 -7.14111 24.3802 -5.05235Q24.3802 -2.97038 24.9125 -1.92939Q25.4449 -0.888401 26.5028 -0.888401Q27.5675 -0.888401 28.0999 -1.92939Q28.6323 -2.97038 28.6323 -5.05235Q28.6323 -7.14111 28.0999 -8.1821Q27.5675 -9.22309 26.5028 -9.22309ZM26.5028 -10.3082Q28.205 -10.3082 29.1036 -8.962Q30.0022 -7.61583 30.0022 -5.05235Q30.0022 -2.49566 29.1036 -1.1495Q28.205 0.196669 26.5028 0.196669Q24.8006 0.196669 23.902 -1.1495Q23.0035 -2.49566 23.0035 -5.05235Q23.0035 -7.61583 23.902 -8.962Q24.8006 -10.3082 26.5028 -10.3082Z" fill="#262626" transform="translate(523.9552397009651,458.2533366204142) translate(-15.462240219116211,0)" />
<line x1="524.7814686743063" y1="425.7875446578786" x2="528.0100481279186" y2="429.4216437135292" stroke="#262626" stroke-width="1.1111111111111112" />
<path d="M4.41488 -9.22309Q3.35693 -9.22309 2.82457 -8.1821Q2.29221 -7.14111 2.29221 -5.05235Q2.29221 -2.97038 2.82457 -1.92939Q3.35693 -0.888401 4.41488 -0.888401Q5.4796 -0.888401 6.01196 -1.92939Q6.54433 -2.97038 6.54433 -5.05235Q6.54433 -7.14111 6.01196 -8.1821Q5.4796 -9.22309 4.41488 -9.22309ZM4.41488 -10.3082Q6.11708 -10.3082 7.01565 -8.962Q7.91422 -7.61583 7.91423 -5.05235Q7.91423 -2.49566 7.01565 -1.1495Q6.11708 0.196669 4.41488 0.196669Q2.71267 0.196669 1.8141 -1.1495Q0.915527 -2.49566 0.915527 -5.05235Q0.915527 -7.61583 1.8141 -8.962Q2.71267 -10.3082 4.41488 -10.3082ZM10.3217 -1.72255L11.7527 -1.72255L11.7527 0L10.3217 0L10.3217 -1.72255ZM15.9166 -1.15289L20.6977 -1.15289L20.6977 0L14.2687 0L14.2687 -1.15289Q15.0486 -1.95991 16.3947 -3.31963Q17.7409 -4.67936 18.0868 -5.0727Q18.7446 -5.8119 19.0057 -6.32392Q19.2668 -6.83594 19.2668 -7.331Q19.2668 -8.13802 18.7005 -8.64665Q18.1342 -9.15527 17.2255 -9.15527Q16.5812 -9.15527 15.8658 -8.93148Q15.1503 -8.70768 14.3365 -8.25331L14.3365 -9.63677Q15.1638 -9.96908 15.8827 -10.1386Q16.6016 -10.3082 17.1984 -10.3082Q18.7717 -10.3082 19.7076 -9.52148Q20.6434 -8.73481 20.6434 -7.41916Q20.6434 -6.79525 20.4095 -6.23576Q20.1755 -5.67627 19.5584 -4.91672Q19.3888 -4.72005 18.4801 -3.78079Q17.5713 -2.84153 15.9166 -1.15289ZM23.5867 -10.1251L28.9646 -10.1251L28.9646 -8.97217L24.8413 -8.97217L24.8413 -6.49007Q25.1397 -6.5918 25.4381 -6.64266Q25.7365 -6.69352 26.0349 -6.69352Q27.7303 -6.69352 28.7204 -5.76443Q29.7106 -4.83534 29.7106 -3.24843Q29.7106 -1.61404 28.6933 -0.708686Q27.6761 0.196669 25.8247 0.196669Q25.1872 0.196669 24.526 0.0881619C24.0852 0.0158239 23.6296 -0.092683 23.1595 -0.237359L23.1595 -1.61404Q23.7698 -1.28174 24.4208 -1.11898Q25.0719 -0.956217 25.7975 -0.956217Q26.9708 -0.956217 27.6557 -1.57335Q28.3407 -2.19048 28.3407 -3.24843Q28.3407 -4.30637 27.6557 -4.9235Q26.9708 -5.54064 25.7975 -5.54064Q25.2482 -5.54064 24.7023 -5.41857Q24.1564 -5.2965 23.5867 -5.03879L23.5867 -10.1251Z" fill="#262626" transform="translate(540.5369364079341,443.5219480494536) translate(-15.462240219116211,0)" />
<line x1="541.0292211922068" y1="411.3528363179654" x2="544.2578006458191" y2="414.986935373616" stroke="#262626" stroke-width="1.1111111111111112" />
<path d="M4.41488 -9.22309Q3.35693 -9.22309 2.82457 -8.1821Q2.29221 -7.14111 2.29221 -5.05235Q2.29221 -2.97038 2.82457 -1.92939Q3.35693 -0.888401 4.41488 -0.888401Q5.4796 -0.888401 6.01196 -1.92939Q6.54433 -2.97038 6.54433 -5.05235Q6.54433 -7.14111 6.01196 -8.1821Q5.4796 -9.22309 4.41488 -9.22309ZM4.41488 -10.3082Q6.11708 -10.3082 7.01565 -8.962Q7.91422 -7.61583 7.91423 -5.05235Q7.91423 -2.49566 7.01565 -1.1495Q6.11708 0.196669 4.41488 0.196669Q2.71267 0.196669 1.8141 -1.1495Q0.915527 -2.49566 0.915527 -5.05235Q0.915527 -7.61583 1.8141 -8.962Q2.71267 -10.3082 4.41488 -10.3082ZM10.3217 -1.72255L11.7527 -1.72255L11.7527 0L10.3217 0L10.3217 -1.72255ZM14.7502 -10.1251L20.128 -10.1251L20.128 -8.97217L16.0048 -8.97217L16.0048 -6.49007Q16.3032 -6.5918 16.6016 -6.64266Q16.9 -6.69352 17.1984 -6.69352Q18.8938 -6.69352 19.8839 -5.76443Q20.874 -4.83534 20.874 -3.24843Q20.874 -1.61404 19.8568 -0.708686Q18.8395 0.196669 16.9881 0.196669Q16.3506 0.196669 15.6894 0.0881619C15.2486 0.0158239 14.7931 -0.092683 14.3229 -0.237359L14.3229 -1.61404Q14.9333 -1.28174 15.5843 -1.11898Q16.2354 -0.956217 16.961 -0.956217Q18.1342 -0.956217 18.8192 -1.57335Q19.5041 -2.19048 19.5041 -3.24843Q19.5041 -4.30637 18.8192 -4.9235Q18.1342 -5.54064 16.961 -5.54064Q16.4117 -5.54064 15.8658 -5.41857Q15.3198 -5.2965 14.7502 -5.03879L14.7502 -10.1251ZM26.5028 -9.22309Q25.4449 -9.22309 24.9125 -8.1821Q24.3802 -7.14111 24.3802 -5.05235Q24.3802 -2.97038 24.9125 -1.92939Q25.4449 -0.888401 26.5028 -0.888401Q27.5675 -0.888401 28.0999 -1.92939Q28.6323 -2.97038 28.6323 -5.05235Q28.6323 -7.14111 28.0999 -8.1821Q27.5675 -9.22309 26.5028 -9.22309ZM26.5028 -10.3082Q28.205 -10.3082 29.1036 -8.962Q30.0022 -7.61583 30.0022 -5.05235Q30.0022 -2.49566 29.1036 -1.1495Q28.205 0.196669 26.5028 0.196669Q24.8006 0.196669 23.902 -1.1495Q23.0035 -2.49566 23.0035 -5.05235Q23.0035 -7.61583 23.902 -8.962Q24.8006 -10.3082 26.5028 -10.3082Z" fill="#262626" transform="translate(556.7846889258346,429.0872397095404) translate(-15.462240219116211,0)" />
<line x1="556.9530170659657" y1="397.2059351481707" x2="560.181596519578" y2="400.8400342038213" stroke="#262626" stroke-width="1.1111111111111112" />
<path d="M4.41488 -9.22309Q3.35693 -9.22309 2.82457 -8.1821Q2.29221 -7.14111 2.29221 -5.05235Q2.29221 -2.97038 2.82457 -1.92939Q3.35693 -0.888401 4.41488 -0.888401Q5.4796 -0.888401 6.01196 -1.92939Q6.54433 -2.97038 6.54433 -5.05235Q6.54433 -7.14111 6.01196 -8.1821Q5.4796 -9.22309 4.41488 -9.22309ZM4.41488 -10.3082Q6.11708 -10.3082 7.01565 -8.962Q7.91422 -7.61583 7.91423 -5.05235Q7.91423 -2.49566 7.01565 -1.1495Q6.11708 0.196669 4.41488 0.196669Q2.71267 0.196669 1.8141 -1.1495Q0.915527 -2.49566 0.915527 -5.05235Q0.915527 -7.61583 1.8141 -8.962Q2.71267 -10.3082 4.41488 -10.3082ZM10.3217 -1.72255L11.7527 -1.72255L11.7527 0L10.3217 0L10.3217 -1.72255ZM14.3907 -10.1251L20.9012 -10.1251L20.9012 -9.54183L17.2255 0L15.7945 0L19.2532 -8.97217L14.3907 -8.97217L14.3907 -10.1251ZM23.5867 -10.1251L28.9646 -10.1251L28.9646 -8.97217L24.8413 -8.97217L24.8413 -6.49007Q25.1397 -6.5918 25.4381 -6.64266Q25.7365 -6.69352 26.0349 -6.69352Q27.7303 -6.69352 28.7204 -5.76443Q29.7106 -4.83534 29.7106 -3.24843Q29.7106 -1.61404 28.6933 -0.708686Q27.6761 0.196669 25.8247 0.196669Q25.1872 0.196669 24.526 0.0881619C24.0852 0.0158239 23.6296 -0.092683 23.1595 -0.237359L23.1595 -1.61404Q23.7698 -1.28174 24.4208 -1.11898Q25.0719 -0.956217 25.7975 -0.956217Q26.9708 -0.956217 27.6557 -1.57335Q28.3407 -2.19048 28.3407 -3.24843Q28.3407 -4.30637 27.6557 -4.9235Q26.9708 -5.54064 25.7975 -5.54064Q25.2482 -5.54064 24.7023 -5.41857Q24.1564 -5.2965 23.5867 -5.03879L23.5867 -10.1251Z" fill="#262626" transform="translate(572.7084847995935,414.9403385397457) translate(-15.462240219116211,0)" />
<line x1="572.5624494974741" y1="383.338318426894" x2="575.7910289510863" y2="386.9724174825446" stroke="#262626" stroke-width="1.1111111111111112" />
<path d="M1.72255 -1.15289L3.9605 -1.15289L3.9605 -8.87722L1.52588 -8.38894L1.52588 -9.63677L3.94694 -10.1251L5.31684 -10.1251L5.31684 -1.15289L7.5548 -1.15289L7.5548 0L1.72255 0L1.72255 -1.15289ZM10.3217 -1.72255L11.7527 -1.72255L11.7527 0L10.3217 0L10.3217 -1.72255ZM17.6663 -9.22309Q16.6083 -9.22309 16.076 -8.1821Q15.5436 -7.14111 15.5436 -5.05235Q15.5436 -2.97038 16.076 -1.92939Q16.6083 -0.888401 17.6663 -0.888401Q18.731 -0.888401 19.2634 -1.92939Q19.7957 -2.97038 19.7957 -5.05235Q19.7957 -7.14111 19.2634 -8.1821Q18.731 -9.22309 17.6663 -9.22309ZM17.6663 -10.3082Q19.3685 -10.3082 20.2671 -8.962Q21.1656 -7.61583 21.1656 -5.05235Q21.1656 -2.49566 20.2671 -1.1495Q19.3685 0.196669 17.6663 0.196669Q15.9641 0.196669 15.0655 -1.1495Q14.1669 -2.49566 14.1669 -5.05235Q14.1669 -7.61583 15.0655 -8.962Q15.9641 -10.3082 17.6663 -10.3082ZM26.5028 -9.22309Q25.4449 -9.22309 24.9125 -8.1821Q24.3802 -7.14111 24.3802 -5.05235Q24.3802 -2.97038 24.9125 -1.92939Q25.4449 -0.888401 26.5028 -0.888401Q27.5675 -0.888401 28.0999 -1.92939Q28.6323 -2.97038 28.6323 -5.05235Q28.6323 -7.14111 28.0999 -8.1821Q27.5675 -9.22309 26.5028 -9.22309ZM26.5028 -10.3082Q28.205 -10.3082 29.1036 -8.962Q30.0022 -7.61583 30.0022 -5.05235Q30.0022 -2.49566 29.1036 -1.1495Q28.205 0.196669 26.5028 0.196669Q24.8006 0.196669 23.902 -1.1495Q23.0035 -2.49566 23.0035 -5.05235Q23.0035 -7.61583 23.902 -8.962Q24.8006 -10.3082 26.5028 -10.3082Z" fill="#262626" transform="translate(588.3179172311019,401.072721818469) translate(-15.462240219116211,0)" />
<line x1="582.1091602126193" y1="359.6368688418367" x2="586.9669426599872" y2="359.8167324807733" stroke="#262626" stroke-width="1.1111111111111112" />
<path d="M0.678168 -4.36062L4.3335 -4.36062L4.3335 -3.24843L0.678168 -3.24843L0.678168 -4.36062ZM6.73421 -1.15289L8.97217 -1.15289L8.97217 -8.87722L6.53754 -8.38894L6.53754 -9.63677L8.9586 -10.1251L10.3285 -10.1251L10.3285 -1.15289L12.5665 -1.15289L12.5665 0L6.73421 0L6.73421 -1.15289ZM15.3334 -1.72255L16.7643 -1.72255L16.7643 0L15.3334 0L15.3334 -1.72255ZM22.678 -9.22309Q21.62 -9.22309 21.0876 -8.1821Q20.5553 -7.14111 20.5553 -5.05235Q20.5553 -2.97038 21.0876 -1.92939Q21.62 -0.888401 22.678 -0.888401Q23.7427 -0.888401 24.275 -1.92939Q24.8074 -2.97038 24.8074 -5.05235Q24.8074 -7.14111 24.275 -8.1821Q23.7427 -9.22309 22.678 -9.22309ZM22.678 -10.3082Q24.3802 -10.3082 25.2787 -8.962Q26.1773 -7.61583 26.1773 -5.05235Q26.1773 -2.49566 25.2787 -1.1495Q24.3802 0.196669 22.678 0.196669Q20.9757 0.196669 20.0772 -1.1495Q19.1786 -2.49566 19.1786 -5.05235Q19.1786 -7.61583 20.0772 -8.962Q20.9757 -10.3082 22.678 -10.3082ZM31.5145 -9.22309Q30.4565 -9.22309 29.9242 -8.1821Q29.3918 -7.14111 29.3918 -5.05235Q29.3918 -2.97038 29.9242 -1.92939Q30.4565 -0.888401 31.5145 -0.888401Q32.5792 -0.888401 33.1116 -1.92939Q33.6439 -2.97038 33.6439 -5.05235Q33.6439 -7.14111 33.1116 -8.1821Q32.5792 -9.22309 31.5145 -9.22309ZM31.5145 -10.3082Q33.2167 -10.3082 34.1153 -8.962Q35.0138 -7.61583 35.0138 -5.05235Q35.0138 -2.49566 34.1153 -1.1495Q33.2167 0.196669 31.5145 0.196669Q29.8123 0.196669 28.9137 -1.1495Q28.0151 -2.49566 28.0151 -5.05235Q28.0151 -7.61583 28.9137 -8.962Q29.8123 -10.3082 31.5145 -10.3082Z" fill="#262626" transform="translate(605.815138555775,360.5146033998471) translate(-17.96807289123535,0)" />
<line x1="582.9623067252599" y1="336.5949678848535" x2="587.8200891726278" y2="336.77483152379006" stroke="#262626" stroke-width="1.1111111111111112" />
<path d="M0.678168 -4.36062L4.3335 -4.36062L4.3335 -3.24843L0.678168 -3.24843L0.678168 -4.36062ZM9.42654 -9.22309Q8.3686 -9.22309 7.83624 -8.1821Q7.30387 -7.14111 7.30387 -5.05235Q7.30387 -2.97038 7.83624 -1.92939Q8.3686 -0.888401 9.42654 -0.888401Q10.4913 -0.888401 11.0236 -1.92939Q11.556 -2.97038 11.556 -5.05235Q11.556 -7.14111 11.0236 -8.1821Q10.4913 -9.22309 9.42654 -9.22309ZM9.42654 -10.3082Q11.1287 -10.3082 12.0273 -8.962Q12.9259 -7.61583 12.9259 -5.05235Q12.9259 -2.49566 12.0273 -1.1495Q11.1287 0.196669 9.42654 0.196669Q7.72434 0.196669 6.82577 -1.1495Q5.92719 -2.49566 5.92719 -5.05235Q5.92719 -7.61583 6.82577 -8.962Q7.72434 -10.3082 9.42654 -10.3082ZM15.3334 -1.72255L16.7643 -1.72255L16.7643 0L15.3334 0L15.3334 -1.72255ZM19.4024 -10.1251L25.9128 -10.1251L25.9128 -9.54183L22.2371 0L20.8062 0L24.2649 -8.97217L19.4024 -8.97217L19.4024 -10.1251ZM28.5984 -10.1251L33.9762 -10.1251L33.9762 -8.97217L29.853 -8.97217L29.853 -6.49007Q30.1514 -6.5918 30.4498 -6.64266Q30.7482 -6.69352 31.0466 -6.69352Q32.742 -6.69352 33.7321 -5.76443Q34.7222 -4.83534 34.7222 -3.24843Q34.7222 -1.61404 33.705 -0.708686Q32.6877 0.196669 30.8363 0.196669Q30.1988 0.196669 29.5376 0.0881619C29.0968 0.0158239 28.6413 -0.092683 28.1711 -0.237359L28.1711 -1.61404Q28.7815 -1.28174 29.4325 -1.11898Q30.0836 -0.956217 30.8092 -0.956217Q31.9824 -0.956217 32.6674 -1.57335Q33.3523 -2.19048 33.3523 -3.24843Q33.3523 -4.30637 32.6674 -4.9235Q31.9824 -5.54064 30.8092 -5.54064Q30.2599 -5.54064 29.714 -5.41857Q29.168 -5.2965 28.5984 -5.03879L28.5984 -10.1251Z" fill="#262626" transform="translate(606.6682850684156,337.47270244286386) translate(-17.96807289123535,0)" />
<line x1="583.822135226576" y1="313.3725988382999" x2="588.679917673944" y2="313.5524624772365" stroke="#262626" stroke-width="1.1111111111111112" />
<path d="M0.678168 -4.36062L4.3335 -4.36062L4.3335 -3.24843L0.678168 -3.24843L0.678168 -4.36062ZM9.42654 -9.22309Q8.3686 -9.22309 7.83624 -8.1821Q7.30387 -7.14111 7.30387 -5.05235Q7.30387 -2.97038 7.83624 -1.92939Q8.3686 -0.888401 9.42654 -0.888401Q10.4913 -0.888401 11.0236 -1.92939Q11.556 -2.97038 11.556 -5.05235Q11.556 -7.14111 11.0236 -8.1821Q10.4913 -9.22309 9.42654 -9.22309ZM9.42654 -10.3082Q11.1287 -10.3082 12.0273 -8.962Q12.9259 -7.61583 12.9259 -5.05235Q12.9259 -2.49566 12.0273 -1.1495Q11.1287 0.196669 9.42654 0.196669Q7.72434 0.196669 6.82577 -1.1495Q5.92719 -2.49566 5.92719 -5.05235Q5.92719 -7.61583 6.82577 -8.962Q7.72434 -10.3082 9.42654 -10.3082ZM15.3334 -1.72255L16.7643 -1.72255L16.7643 0L15.3334 0L15.3334 -1.72255ZM19.7618 -10.1251L25.1397 -10.1251L25.1397 -8.97217L21.0164 -8.97217L21.0164 -6.49007Q21.3148 -6.5918 21.6132 -6.64266Q21.9116 -6.69352 22.21 -6.69352Q23.9054 -6.69352 24.8956 -5.76443Q25.8857 -4.83534 25.8857 -3.24843Q25.8857 -1.61404 24.8684 -0.708686Q23.8512 0.196669 21.9998 0.196669Q21.3623 0.196669 20.7011 0.0881619C20.2603 0.0158239 19.8048 -0.092683 19.3346 -0.237359L19.3346 -1.61404Q19.9449 -1.28174 20.596 -1.11898Q21.247 -0.956217 21.9727 -0.956217Q23.1459 -0.956217 23.8308 -1.57335Q24.5158 -2.19048 24.5158 -3.24843Q24.5158 -4.30637 23.8308 -4.9235Q23.1459 -5.54064 21.9727 -5.54064Q21.4233 -5.54064 20.8774 -5.41857Q20.3315 -5.2965 19.7618 -5.03879L19.7618 -10.1251ZM31.5145 -9.22309Q30.4565 -9.22309 29.9242 -8.1821Q29.3918 -7.14111 29.3918 -5.05235Q29.3918 -2.97038 29.9242 -1.92939Q30.4565 -0.888401 31.5145 -0.888401Q32.5792 -0.888401 33.1116 -1.92939Q33.6439 -2.97038 33.6439 -5.05235Q33.6439 -7.14111 33.1116 -8.1821Q32.5792 -9.22309 31.5145 -9.22309ZM31.5145 -10.3082Q33.2167 -10.3082 34.1153 -8.962Q35.0138 -7.61583 35.0138 -5.05235Q35.0138 -2.49566 34.1153 -1.1495Q33.2167 0.196669 31.5145 0.196669Q29.8123 0.196669 28.9137 -1.1495Q28.0151 -2.49566 28.0151 -5.05235Q28.0151 -7.61583 28.9137 -8.962Q29.8123 -10.3082 31.5145 -10.3082Z" fill="#262626" transform="translate(607.5281135697318,314.2503333963103) translate(-17.96807289123535,0)" />
<line x1="584.6887245269047" y1="289.9676331815236" x2="589.5465069742727" y2="290.14749682046016" stroke="#262626" stroke-width="1.1111111111111112" />
<path d="M0.678168 -4.36062L4.3335 -4.36062L4.3335 -3.24843L0.678168 -3.24843L0.678168 -4.36062ZM9.42654 -9.22309Q8.3686 -9.22309 7.83624 -8.1821Q7.30387 -7.14111 7.30387 -5.05235Q7.30387 -2.97038 7.83624 -1.92939Q8.3686 -0.888401 9.42654 -0.888401Q10.4913 -0.888401 11.0236 -1.92939Q11.556 -2.97038 11.556 -5.05235Q11.556 -7.14111 11.0236 -8.1821Q10.4913 -9.22309 9.42654 -9.22309ZM9.42654 -10.3082Q11.1287 -10.3082 12.0273 -8.962Q12.9259 -7.61583 12.9259 -5.05235Q12.9259 -2.49566 12.0273 -1.1495Q11.1287 0.196669 9.42654 0.196669Q7.72434 0.196669 6.82577 -1.1495Q5.92719 -2.49566 5.92719 -5.05235Q5.92719 -7.61583 6.82577 -8.962Q7.72434 -10.3082 9.42654 -10.3082ZM15.3334 -1.72255L16.7643 -1.72255L16.7643 0L15.3334 0L15.3334 -1.72255ZM20.9283 -1.15289L25.7094 -1.15289L25.7094 0L19.2803 0L19.2803 -1.15289Q20.0602 -1.95991 21.4064 -3.31963Q22.7526 -4.67936 23.0984 -5.0727Q23.7562 -5.8119 24.0173 -6.32392Q24.2784 -6.83594 24.2784 -7.331Q24.2784 -8.13802 23.7122 -8.64665Q23.1459 -9.15527 22.2371 -9.15527Q21.5929 -9.15527 20.8774 -8.93148Q20.1619 -8.70768 19.3481 -8.25331L19.3481 -9.63677Q20.1755 -9.96908 20.8944 -10.1386Q21.6132 -10.3082 22.21 -10.3082Q23.7834 -10.3082 24.7192 -9.52148Q25.6551 -8.73481 25.6551 -7.41916Q25.6551 -6.79525 25.4211 -6.23576Q25.1872 -5.67627 24.57 -4.91672Q24.4005 -4.72005 23.4918 -3.78079Q22.583 -2.84153 20.9283 -1.15289ZM28.5984 -10.1251L33.9762 -10.1251L33.9762 -8.97217L29.853 -8.97217L29.853 -6.49007Q30.1514 -6.5918 30.4498 -6.64266Q30.7482 -6.69352 31.0466 -6.69352Q32.742 -6.69352 33.7321 -5.76443Q34.7222 -4.83534 34.7222 -3.24843Q34.7222 -1.61404 33.705 -0.708686Q32.6877 0.196669 30.8363 0.196669Q30.1988 0.196669 29.5376 0.0881619C29.0968 0.0158239 28.6413 -0.092683 28.1711 -0.237359L28.1711 -1.61404Q28.7815 -1.28174 29.4325 -1.11898Q30.0836 -0.956217 30.8092 -0.956217Q31.9824 -0.956217 32.6674 -1.57335Q33.3523 -2.19048 33.3523 -3.24843Q33.3523 -4.30637 32.6674 -4.9235Q31.9824 -5.54064 30.8092 -5.54064Q30.2599 -5.54064 29.714 -5.41857Q29.168 -5.2965 28.5984 -5.03879L28.5984 -10.1251Z" fill="#262626" transform="translate(608.3947028700604,290.84536773953397) translate(-17.96807289123535,0)" />
<line x1="585.5621546808394" y1="266.3779087887995" x2="590.4199371282074" y2="266.5577724277361" stroke="#262626" stroke-width="1.1111111111111112" />
<path d="M4.41488 -9.22309Q3.35693 -9.22309 2.82457 -8.1821Q2.29221 -7.14111 2.29221 -5.05235Q2.29221 -2.97038 2.82457 -1.92939Q3.35693 -0.888401 4.41488 -0.888401Q5.4796 -0.888401 6.01196 -1.92939Q6.54433 -2.97038 6.54433 -5.05235Q6.54433 -7.14111 6.01196 -8.1821Q5.4796 -9.22309 4.41488 -9.22309ZM4.41488 -10.3082Q6.11708 -10.3082 7.01565 -8.962Q7.91422 -7.61583 7.91423 -5.05235Q7.91423 -2.49566 7.01565 -1.1495Q6.11708 0.196669 4.41488 0.196669Q2.71267 0.196669 1.8141 -1.1495Q0.915527 -2.49566 0.915527 -5.05235Q0.915527 -7.61583 1.8141 -8.962Q2.71267 -10.3082 4.41488 -10.3082ZM10.3217 -1.72255L11.7527 -1.72255L11.7527 0L10.3217 0L10.3217 -1.72255ZM17.6663 -9.22309Q16.6083 -9.22309 16.076 -8.1821Q15.5436 -7.14111 15.5436 -5.05235Q15.5436 -2.97038 16.076 -1.92939Q16.6083 -0.888401 17.6663 -0.888401Q18.731 -0.888401 19.2634 -1.92939Q19.7957 -2.97038 19.7957 -5.05235Q19.7957 -7.14111 19.2634 -8.1821Q18.731 -9.22309 17.6663 -9.22309ZM17.6663 -10.3082Q19.3685 -10.3082 20.2671 -8.962Q21.1656 -7.61583 21.1656 -5.05235Q21.1656 -2.49566 20.2671 -1.1495Q19.3685 0.196669 17.6663 0.196669Q15.9641 0.196669 15.0655 -1.1495Q14.1669 -2.49566 14.1669 -5.05235Q14.1669 -7.61583 15.0655 -8.962Q15.9641 -10.3082 17.6663 -10.3082ZM26.5028 -9.22309Q25.4449 -9.22309 24.9125 -8.1821Q24.3802 -7.14111 24.3802 -5.05235Q24.3802 -2.97038 24.9125 -1.92939Q25.4449 -0.888401 26.5028 -0.888401Q27.5675 -0.888401 28.0999 -1.92939Q28.6323 -2.97038 28.6323 -5.05235Q28.6323 -7.14111 28.0999 -8.1821Q27.5675 -9.22309 26.5028 -9.22309ZM26.5028 -10.3082Q28.205 -10.3082 29.1036 -8.962Q30.0022 -7.61583 30.0022 -5.05235Q30.0022 -2.49566 29.1036 -1.1495Q28.205 0.196669 26.5028 0.196669Q24.8006 0.196669 23.902 -1.1495Q23.0035 -2.49566 23.0035 -5.05235Q23.0035 -7.61583 23.902 -8.962Q24.8006 -10.3082 26.5028 -10.3082Z" fill="#262626" transform="translate(609.2681330239951,267.2556433468099) translate(-15.462240219116211,0)" />
<line x1="586.4425070118839" y1="242.60122926350616" x2="591.3002894592519" y2="242.7810929024427" stroke="#262626" stroke-width="1.1111111111111112" />
<path d="M4.41488 -9.22309Q3.35693 -9.22309 2.82457 -8.1821Q2.29221 -7.14111 2.29221 -5.05235Q2.29221 -2.97038 2.82457 -1.92939Q3.35693 -0.888401 4.41488 -0.888401Q5.4796 -0.888401 6.01196 -1.92939Q6.54433 -2.97038 6.54433 -5.05235Q6.54433 -7.14111 6.01196 -8.1821Q5.4796 -9.22309 4.41488 -9.22309ZM4.41488 -10.3082Q6.11708 -10.3082 7.01565 -8.962Q7.91422 -7.61583 7.91423 -5.05235Q7.91423 -2.49566 7.01565 -1.1495Q6.11708 0.196669 4.41488 0.196669Q2.71267 0.196669 1.8141 -1.1495Q0.915527 -2.49566 0.915527 -5.05235Q0.915527 -7.61583 1.8141 -8.962Q2.71267 -10.3082 4.41488 -10.3082ZM10.3217 -1.72255L11.7527 -1.72255L11.7527 0L10.3217 0L10.3217 -1.72255ZM15.9166 -1.15289L20.6977 -1.15289L20.6977 0L14.2687 0L14.2687 -1.15289Q15.0486 -1.95991 16.3947 -3.31963Q17.7409 -4.67936 18.0868 -5.0727Q18.7446 -5.8119 19.0057 -6.32392Q19.2668 -6.83594 19.2668 -7.331Q19.2668 -8.13802 18.7005 -8.64665Q18.1342 -9.15527 17.2255 -9.15527Q16.5812 -9.15527 15.8658 -8.93148Q15.1503 -8.70768 14.3365 -8.25331L14.3365 -9.63677Q15.1638 -9.96908 15.8827 -10.1386Q16.6016 -10.3082 17.1984 -10.3082Q18.7717 -10.3082 19.7076 -9.52148Q20.6434 -8.73481 20.6434 -7.41916Q20.6434 -6.79525 20.4095 -6.23576Q20.1755 -5.67627 19.5584 -4.91672Q19.3888 -4.72005 18.4801 -3.78079Q17.5713 -2.84153 15.9166 -1.15289ZM23.5867 -10.1251L28.9646 -10.1251L28.9646 -8.97217L24.8413 -8.97217L24.8413 -6.49007Q25.1397 -6.5918 25.4381 -6.64266Q25.7365 -6.69352 26.0349 -6.69352Q27.7303 -6.69352 28.7204 -5.76443Q29.7106 -4.83534 29.7106 -3.24843Q29.7106 -1.61404 28.6933 -0.708686Q27.6761 0.196669 25.8247 0.196669Q25.1872 0.196669 24.526 0.0881619C24.0852 0.0158239 23.6296 -0.092683 23.1595 -0.237359L23.1595 -1.61404Q23.7698 -1.28174 24.4208 -1.11898Q25.0719 -0.956217 25.7975 -0.956217Q26.9708 -0.956217 27.6557 -1.57335Q28.3407 -2.19048 28.3407 -3.24843Q28.3407 -4.30637 27.6557 -4.9235Q26.9708 -5.54064 25.7975 -5.54064Q25.2482 -5.54064 24.7023 -5.41857Q24.1564 -5.2965 23.5867 -5.03879L23.5867 -10.1251Z" fill="#262626" transform="translate(610.1484853550396,243.47896382151657) translate(-15.462240219116211,0)" />
<line x1="587.3298641376931" y1="218.6353632564081" x2="592.1876465850611" y2="218.81522689534467" stroke="#262626" stroke-width="1.1111111111111112" />
<path d="M4.41488 -9.22309Q3.35693 -9.22309 2.82457 -8.1821Q2.29221 -7.14111 2.29221 -5.05235Q2.29221 -2.97038 2.82457 -1.92939Q3.35693 -0.888401 4.41488 -0.888401Q5.4796 -0.888401 6.01196 -1.92939Q6.54433 -2.97038 6.54433 -5.05235Q6.54433 -7.14111 6.01196 -8.1821Q5.4796 -9.22309 4.41488 -9.22309ZM4.41488 -10.3082Q6.11708 -10.3082 7.01565 -8.962Q7.91422 -7.61583 7.91423 -5.05235Q7.91423 -2.49566 7.01565 -1.1495Q6.11708 0.196669 4.41488 0.196669Q2.71267 0.196669 1.8141 -1.1495Q0.915527 -2.49566 0.915527 -5.05235Q0.915527 -7.61583 1.8141 -8.962Q2.71267 -10.3082 4.41488 -10.3082ZM10.3217 -1.72255L11.7527 -1.72255L11.7527 0L10.3217 0L10.3217 -1.72255ZM14.7502 -10.1251L20.128 -10.1251L20.128 -8.97217L16.0048 -8.97217L16.0048 -6.49007Q16.3032 -6.5918 16.6016 -6.64266Q16.9 -6.69352 17.1984 -6.69352Q18.8938 -6.69352 19.8839 -5.76443Q20.874 -4.83534 20.874 -3.24843Q20.874 -1.61404 19.8568 -0.708686Q18.8395 0.196669 16.9881 0.196669Q16.3506 0.196669 15.6894 0.0881619C15.2486 0.0158239 14.7931 -0.092683 14.3229 -0.237359L14.3229 -1.61404Q14.9333 -1.28174 15.5843 -1.11898Q16.2354 -0.956217 16.961 -0.956217Q18.1342 -0.956217 18.8192 -1.57335Q19.5041 -2.19048 19.5041 -3.24843Q19.5041 -4.30637 18.8192 -4.9235Q18.1342 -5.54064 16.961 -5.54064Q16.4117 -5.54064 15.8658 -5.41857Q15.3198 -5.2965 14.7502 -5.03879L14.7502 -10.1251ZM26.5028 -9.22309Q25.4449 -9.22309 24.9125 -8.1821Q24.3802 -7.14111 24.3802 -5.05235Q24.3802 -2.97038 24.9125 -1.92939Q25.4449 -0.888401 26.5028 -0.888401Q27.5675 -0.888401 28.0999 -1.92939Q28.6323 -2.97038 28.6323 -5.05235Q28.6323 -7.14111 28.0999 -8.1821Q27.5675 -9.22309 26.5028 -9.22309ZM26.5028 -10.3082Q28.205 -10.3082 29.1036 -8.962Q30.0022 -7.61583 30.0022 -5.05235Q30.0022 -2.49566 29.1036 -1.1495Q28.205 0.196669 26.5028 0.196669Q24.8006 0.196669 23.902 -1.1495Q23.0035 -2.49566 23.0035 -5.05235Q23.0035 -7.61583 23.902 -8.962Q24.8006 -10.3082 26.5028 -10.3082Z" fill="#262626" transform="translate(611.0358424808488,219.51309781441853) translate(-15.462240219116211,0)" />
<line x1="588.2243099959187" y1="194.47804376760087" x2="593.0820924432867" y2="194.65790740653742" stroke="#262626" stroke-width="1.1111111111111112" />
<path d="M4.41488 -9.22309Q3.35693 -9.22309 2.82457 -8.1821Q2.29221 -7.14111 2.29221 -5.05235Q2.29221 -2.97038 2.82457 -1.92939Q3.35693 -0.888401 4.41488 -0.888401Q5.4796 -0.888401 6.01196 -1.92939Q6.54433 -2.97038 6.54433 -5.05235Q6.54433 -7.14111 6.01196 -8.1821Q5.4796 -9.22309 4.41488 -9.22309ZM4.41488 -10.3082Q6.11708 -10.3082 7.01565 -8.962Q7.91422 -7.61583 7.91423 -5.05235Q7.91423 -2.49566 7.01565 -1.1495Q6.11708 0.196669 4.41488 0.196669Q2.71267 0.196669 1.8141 -1.1495Q0.915527 -2.49566 0.915527 -5.05235Q0.915527 -7.61583 1.8141 -8.962Q2.71267 -10.3082 4.41488 -10.3082ZM10.3217 -1.72255L11.7527 -1.72255L11.7527 0L10.3217 0L10.3217 -1.72255ZM14.3907 -10.1251L20.9012 -10.1251L20.9012 -9.54183L17.2255 0L15.7945 0L19.2532 -8.97217L14.3907 -8.97217L14.3907 -10.1251ZM23.5867 -10.1251L28.9646 -10.1251L28.9646 -8.97217L24.8413 -8.97217L24.8413 -6.49007Q25.1397 -6.5918 25.4381 -6.64266Q25.7365 -6.69352 26.0349 -6.69352Q27.7303 -6.69352 28.7204 -5.76443Q29.7106 -4.83534 29.7106 -3.24843Q29.7106 -1.61404 28.6933 -0.708686Q27.6761 0.196669 25.8247 0.196669Q25.1872 0.196669 24.526 0.0881619C24.0852 0.0158239 23.6296 -0.092683 23.1595 -0.237359L23.1595 -1.61404Q23.7698 -1.28174 24.4208 -1.11898Q25.0719 -0.956217 25.7975 -0.956217Q26.9708 -0.956217 27.6557 -1.57335Q28.3407 -2.19048 28.3407 -3.24843Q28.3407 -4.30637 27.6557 -4.9235Q26.9708 -5.54064 25.7975 -5.54064Q25.2482 -5.54064 24.7023 -5.41857Q24.1564 -5.2965 23.5867 -5.03879L23.5867 -10.1251Z" fill="#262626" transform="translate(611.9302883390744,195.35577832561125) translate(-15.462240219116211,0)" />
<line x1="589.1259298706782" y1="170.12696743165884" x2="593.9837123180462" y2="170.3068310705954" stroke="#262626" stroke-width="1.1111111111111112" />
<path d="M1.72255 -1.15289L3.9605 -1.15289L3.9605 -8.87722L1.52588 -8.38894L1.52588 -9.63677L3.94694 -10.1251L5.31684 -10.1251L5.31684 -1.15289L7.5548 -1.15289L7.5548 0L1.72255 0L1.72255 -1.15289ZM10.3217 -1.72255L11.7527 -1.72255L11.7527 0L10.3217 0L10.3217 -1.72255ZM17.6663 -9.22309Q16.6083 -9.22309 16.076 -8.1821Q15.5436 -7.14111 15.5436 -5.05235Q15.5436 -2.97038 16.076 -1.92939Q16.6083 -0.888401 17.6663 -0.888401Q18.731 -0.888401 19.2634 -1.92939Q19.7957 -2.97038 19.7957 -5.05235Q19.7957 -7.14111 19.2634 -8.1821Q18.731 -9.22309 17.6663 -9.22309ZM17.6663 -10.3082Q19.3685 -10.3082 20.2671 -8.962Q21.1656 -7.61583 21.1656 -5.05235Q21.1656 -2.49566 20.2671 -1.1495Q19.3685 0.196669 17.6663 0.196669Q15.9641 0.196669 15.0655 -1.1495Q14.1669 -2.49566 14.1669 -5.05235Q14.1669 -7.61583 15.0655 -8.962Q15.9641 -10.3082 17.6663 -10.3082ZM26.5028 -9.22309Q25.4449 -9.22309 24.9125 -8.1821Q24.3802 -7.14111 24.3802 -5.05235Q24.3802 -2.97038 24.9125 -1.92939Q25.4449 -0.888401 26.5028 -0.888401Q27.5675 -0.888401 28.0999 -1.92939Q28.6323 -2.97038 28.6323 -5.05235Q28.6323 -7.14111 28.0999 -8.1821Q27.5675 -9.22309 26.5028 -9.22309ZM26.5028 -10.3082Q28.205 -10.3082 29.1036 -8.962Q30.0022 -7.61583 30.0022 -5.05235Q30.0022 -2.49566 29.1036 -1.1495Q28.205 0.196669 26.5028 0.196669Q24.8006 0.196669 23.902 -1.1495Q23.0035 -2.49566 23.0035 -5.05235Q23.0035 -7.61583 23.902 -8.962Q24.8006 -10.3082 26.5028 -10.3082Z" fill="#262626" transform="translate(612.8319082138339,171.00470198966923) translate(-15.462240219116211,0)" />
<script type="text/ecmascript"><![CDATA[
(function() {
    'use strict';
    var scenes = document.querySelectorAll('.mpl-3d-scene');
    scenes.forEach(function(scene) {
        var elevation = parseFloat(scene.getAttribute('data-elevation') || '30');
        var azimuth   = parseFloat(scene.getAttribute('data-azimuth')   || '-60');
        var distance  = scene.hasAttribute('data-distance') ? parseFloat(scene.getAttribute('data-distance')) : null;
        var plotX     = parseFloat(scene.getAttribute('data-plot-x') || '0');
        var plotY     = parseFloat(scene.getAttribute('data-plot-y') || '0');
        var plotW     = parseFloat(scene.getAttribute('data-plot-w') || '400');
        var plotH     = parseFloat(scene.getAttribute('data-plot-h') || '300');

        var initEl = elevation, initAz = azimuth;
        var dragging = false, lastX = 0, lastY = 0;

        function degToRad(d) { return d * Math.PI / 180; }

        function project(nx, ny, nz) {
            var azRad = degToRad(azimuth), elRad = degToRad(elevation);
            var cosAz = Math.cos(azRad), sinAz = Math.sin(azRad);
            var cosEl = Math.cos(elRad), sinEl = Math.sin(elRad);
            var rx = nx * cosAz - ny * sinAz;
            var ry = nx * sinAz + ny * cosAz;
            var rz = nz;
            var pz = ry * sinEl + rz * cosEl;
            if (distance !== null) {
                var viewDepth = ry * cosEl - rz * sinEl;
                var scale = distance / (distance - viewDepth);
                rx *= scale; pz *= scale;
            }
            var px = plotX + plotW * (rx + 1) / 2;
            var py = plotY + plotH * (1 - (pz + 1) / 2);
            return [px, py];
        }

        function reprojectAll() {
            var polys = scene.querySelectorAll('[data-v3d]');
            polys.forEach(function(el) {
                var raw = el.getAttribute('data-v3d');
                var pts = raw.trim().split(' ');
                var points = pts.map(function(p) {
                    var c = p.split(',');
                    return project(parseFloat(c[0]), parseFloat(c[1]), parseFloat(c[2]));
                });
                if (el.tagName === 'polygon' || el.tagName === 'polyline') {
                    el.setAttribute('points', points.map(function(p) { return p[0].toFixed(2) + ',' + p[1].toFixed(2); }).join(' '));
                } else if (el.tagName === 'circle' && points.length > 0) {
                    el.setAttribute('cx', points[0][0].toFixed(2));
                    el.setAttribute('cy', points[0][1].toFixed(2));
                }
            });
        }

        scene.addEventListener('mousedown', function(e) { dragging = true; lastX = e.clientX; lastY = e.clientY; e.preventDefault(); });
        document.addEventListener('mousemove', function(e) {
            if (!dragging) return;
            azimuth   += (e.clientX - lastX) * 0.5;
            elevation -= (e.clientY - lastY) * 0.5;
            elevation = Math.max(-90, Math.min(90, elevation));
            lastX = e.clientX; lastY = e.clientY;
            reprojectAll();
        });
        document.addEventListener('mouseup', function() { dragging = false; });

        scene.setAttribute('style', 'cursor:grab');
        scene.addEventListener('keydown', function(e) {
            switch(e.key) {
                case 'ArrowLeft':  azimuth   -= 5; break;
                case 'ArrowRight': azimuth   += 5; break;
                case 'ArrowUp':    elevation += 5; break;
                case 'ArrowDown':  elevation -= 5; break;
                case '+': if (distance !== null) distance = Math.max(2, distance - 0.5); break;
                case '-': if (distance !== null) distance = distance + 0.5; break;
                case 'Home': elevation = initEl; azimuth = initAz; break;
                default: return;
            }
            elevation = Math.max(-90, Math.min(90, elevation));
            reprojectAll();
            e.preventDefault();
        });
        scene.setAttribute('tabindex', '0');
    });
})();
]]></script>
</svg>
