<svg xmlns="http://www.w3.org/2000/svg" viewBox="0 0 700 600" width="700" height="600" role="img" aria-labelledby="chart-title">
<title id="chart-title">3D Scatter — Paraboloid with noise</title>
<rect x="0" y="0" width="700" height="600" fill="#FFFFFF" />
<text x="350" y="24.099999999999998" font-family="DejaVu Sans, sans-serif" font-size="17.88888888888889" text-anchor="middle" font-weight="bold" fill="#262626">3D Scatter — Paraboloid with noise</text>
<rect x="88" y="72" width="542" height="462" fill="#FFFFFF" />
<line x1="112.63636363636364" y1="533.6" x2="112.63636363636364" y2="538.8611111111111" stroke="#262626" stroke-width="1.1111111111111112" />
<text x="112.63636363636364" y="557.6111111111111" font-family="DejaVu Sans, sans-serif" font-size="13.88888888888889" text-anchor="middle" fill="#262626">0</text>
<line x1="161.9090909090909" y1="533.6" x2="161.9090909090909" y2="538.8611111111111" stroke="#262626" stroke-width="1.1111111111111112" />
<text x="161.9090909090909" y="557.6111111111111" font-family="DejaVu Sans, sans-serif" font-size="13.88888888888889" text-anchor="middle" fill="#262626">0.1</text>
<line x1="211.1818181818182" y1="533.6" x2="211.1818181818182" y2="538.8611111111111" stroke="#262626" stroke-width="1.1111111111111112" />
<text x="211.1818181818182" y="557.6111111111111" font-family="DejaVu Sans, sans-serif" font-size="13.88888888888889" text-anchor="middle" fill="#262626">0.2</text>
<line x1="260.45454545454544" y1="533.6" x2="260.45454545454544" y2="538.8611111111111" stroke="#262626" stroke-width="1.1111111111111112" />
<text x="260.45454545454544" y="557.6111111111111" font-family="DejaVu Sans, sans-serif" font-size="13.88888888888889" text-anchor="middle" fill="#262626">0.3</text>
<line x1="309.72727272727275" y1="533.6" x2="309.72727272727275" y2="538.8611111111111" stroke="#262626" stroke-width="1.1111111111111112" />
<text x="309.72727272727275" y="557.6111111111111" font-family="DejaVu Sans, sans-serif" font-size="13.88888888888889" text-anchor="middle" fill="#262626">0.4</text>
<line x1="359" y1="533.6" x2="359" y2="538.8611111111111" stroke="#262626" stroke-width="1.1111111111111112" />
<text x="359" y="557.6111111111111" font-family="DejaVu Sans, sans-serif" font-size="13.88888888888889" text-anchor="middle" fill="#262626">0.5</text>
<line x1="408.27272727272725" y1="533.6" x2="408.27272727272725" y2="538.8611111111111" stroke="#262626" stroke-width="1.1111111111111112" />
<text x="408.27272727272725" y="557.6111111111111" font-family="DejaVu Sans, sans-serif" font-size="13.88888888888889" text-anchor="middle" fill="#262626">0.6</text>
<line x1="457.5454545454545" y1="533.6" x2="457.5454545454545" y2="538.8611111111111" stroke="#262626" stroke-width="1.1111111111111112" />
<text x="457.5454545454545" y="557.6111111111111" font-family="DejaVu Sans, sans-serif" font-size="13.88888888888889" text-anchor="middle" fill="#262626">0.7</text>
<line x1="506.8181818181818" y1="533.6" x2="506.8181818181818" y2="538.8611111111111" stroke="#262626" stroke-width="1.1111111111111112" />
<text x="506.8181818181818" y="557.6111111111111" font-family="DejaVu Sans, sans-serif" font-size="13.88888888888889" text-anchor="middle" fill="#262626">0.8</text>
<line x1="556.0909090909091" y1="533.6" x2="556.0909090909091" y2="538.8611111111111" stroke="#262626" stroke-width="1.1111111111111112" />
<text x="556.0909090909091" y="557.6111111111111" font-family="DejaVu Sans, sans-serif" font-size="13.88888888888889" text-anchor="middle" fill="#262626">0.9</text>
<line x1="605.3636363636364" y1="533.6" x2="605.3636363636364" y2="538.8611111111111" stroke="#262626" stroke-width="1.1111111111111112" />
<text x="605.3636363636364" y="557.6111111111111" font-family="DejaVu Sans, sans-serif" font-size="13.88888888888889" text-anchor="middle" fill="#262626">1</text>
<line x1="92.92727272727274" y1="533.6" x2="92.92727272727274" y2="538.8611111111111" stroke="#262626" stroke-width="1.1111111111111112" />
<line x1="102.78181818181818" y1="533.6" x2="102.78181818181818" y2="538.8611111111111" stroke="#262626" stroke-width="1.1111111111111112" />
<line x1="122.4909090909091" y1="533.6" x2="122.4909090909091" y2="538.8611111111111" stroke="#262626" stroke-width="1.1111111111111112" />
<line x1="132.34545454545454" y1="533.6" x2="132.34545454545454" y2="538.8611111111111" stroke="#262626" stroke-width="1.1111111111111112" />
<line x1="142.2" y1="533.6" x2="142.2" y2="538.8611111111111" stroke="#262626" stroke-width="1.1111111111111112" />
<line x1="152.05454545454546" y1="533.6" x2="152.05454545454546" y2="538.8611111111111" stroke="#262626" stroke-width="1.1111111111111112" />
<line x1="171.76363636363635" y1="533.6" x2="171.76363636363635" y2="538.8611111111111" stroke="#262626" stroke-width="1.1111111111111112" />
<line x1="181.61818181818182" y1="533.6" x2="181.61818181818182" y2="538.8611111111111" stroke="#262626" stroke-width="1.1111111111111112" />
<line x1="191.47272727272727" y1="533.6" x2="191.47272727272727" y2="538.8611111111111" stroke="#262626" stroke-width="1.1111111111111112" />
<line x1="201.3272727272727" y1="533.6" x2="201.3272727272727" y2="538.8611111111111" stroke="#262626" stroke-width="1.1111111111111112" />
<line x1="221.03636363636363" y1="533.6" x2="221.03636363636363" y2="538.8611111111111" stroke="#262626" stroke-width="1.1111111111111112" />
<line x1="230.89090909090908" y1="533.6" x2="230.89090909090908" y2="538.8611111111111" stroke="#262626" stroke-width="1.1111111111111112" />
<line x1="240.74545454545455" y1="533.6" x2="240.74545454545455" y2="538.8611111111111" stroke="#262626" stroke-width="1.1111111111111112" />
<line x1="250.60000000000002" y1="533.6" x2="250.60000000000002" y2="538.8611111111111" stroke="#262626" stroke-width="1.1111111111111112" />
<line x1="270.3090909090909" y1="533.6" x2="270.3090909090909" y2="538.8611111111111" stroke="#262626" stroke-width="1.1111111111111112" />
<line x1="280.1636363636364" y1="533.6" x2="280.1636363636364" y2="538.8611111111111" stroke="#262626" stroke-width="1.1111111111111112" />
<line x1="290.0181818181818" y1="533.6" x2="290.0181818181818" y2="538.8611111111111" stroke="#262626" stroke-width="1.1111111111111112" />
<line x1="299.8727272727273" y1="533.6" x2="299.8727272727273" y2="538.8611111111111" stroke="#262626" stroke-width="1.1111111111111112" />
<line x1="319.58181818181816" y1="533.6" x2="319.58181818181816" y2="538.8611111111111" stroke="#262626" stroke-width="1.1111111111111112" />
<line x1="329.43636363636364" y1="533.6" x2="329.43636363636364" y2="538.8611111111111" stroke="#262626" stroke-width="1.1111111111111112" />
<line x1="339.2909090909091" y1="533.6" x2="339.2909090909091" y2="538.8611111111111" stroke="#262626" stroke-width="1.1111111111111112" />
<line x1="349.1454545454545" y1="533.6" x2="349.1454545454545" y2="538.8611111111111" stroke="#262626" stroke-width="1.1111111111111112" />
<line x1="368.8545454545454" y1="533.6" x2="368.8545454545454" y2="538.8611111111111" stroke="#262626" stroke-width="1.1111111111111112" />
<line x1="378.7090909090909" y1="533.6" x2="378.7090909090909" y2="538.8611111111111" stroke="#262626" stroke-width="1.1111111111111112" />
<line x1="388.56363636363636" y1="533.6" x2="388.56363636363636" y2="538.8611111111111" stroke="#262626" stroke-width="1.1111111111111112" />
<line x1="398.4181818181818" y1="533.6" x2="398.4181818181818" y2="538.8611111111111" stroke="#262626" stroke-width="1.1111111111111112" />
<line x1="418.12727272727267" y1="533.6" x2="418.12727272727267" y2="538.8611111111111" stroke="#262626" stroke-width="1.1111111111111112" />
<line x1="427.98181818181814" y1="533.6" x2="427.98181818181814" y2="538.8611111111111" stroke="#262626" stroke-width="1.1111111111111112" />
<line x1="437.8363636363636" y1="533.6" x2="437.8363636363636" y2="538.8611111111111" stroke="#262626" stroke-width="1.1111111111111112" />
<line x1="447.6909090909091" y1="533.6" x2="447.6909090909091" y2="538.8611111111111" stroke="#262626" stroke-width="1.1111111111111112" />
<line x1="467.4" y1="533.6" x2="467.4" y2="538.8611111111111" stroke="#262626" stroke-width="1.1111111111111112" />
<line x1="477.2545454545454" y1="533.6" x2="477.2545454545454" y2="538.8611111111111" stroke="#262626" stroke-width="1.1111111111111112" />
<line x1="487.10909090909087" y1="533.6" x2="487.10909090909087" y2="538.8611111111111" stroke="#262626" stroke-width="1.1111111111111112" />
<line x1="496.96363636363634" y1="533.6" x2="496.96363636363634" y2="538.8611111111111" stroke="#262626" stroke-width="1.1111111111111112" />
<line x1="516.6727272727272" y1="533.6" x2="516.6727272727272" y2="538.8611111111111" stroke="#262626" stroke-width="1.1111111111111112" />
<line x1="526.5272727272727" y1="533.6" x2="526.5272727272727" y2="538.8611111111111" stroke="#262626" stroke-width="1.1111111111111112" />
<line x1="536.3818181818182" y1="533.6" x2="536.3818181818182" y2="538.8611111111111" stroke="#262626" stroke-width="1.1111111111111112" />
<line x1="546.2363636363636" y1="533.6" x2="546.2363636363636" y2="538.8611111111111" stroke="#262626" stroke-width="1.1111111111111112" />
<line x1="565.9454545454546" y1="533.6" x2="565.9454545454546" y2="538.8611111111111" stroke="#262626" stroke-width="1.1111111111111112" />
<line x1="575.8" y1="533.6" x2="575.8" y2="538.8611111111111" stroke="#262626" stroke-width="1.1111111111111112" />
<line x1="585.6545454545454" y1="533.6" x2="585.6545454545454" y2="538.8611111111111" stroke="#262626" stroke-width="1.1111111111111112" />
<line x1="595.5090909090909" y1="533.6" x2="595.5090909090909" y2="538.8611111111111" stroke="#262626" stroke-width="1.1111111111111112" />
<line x1="615.2181818181818" y1="533.6" x2="615.2181818181818" y2="538.8611111111111" stroke="#262626" stroke-width="1.1111111111111112" />
<line x1="625.0727272727272" y1="533.6" x2="625.0727272727272" y2="538.8611111111111" stroke="#262626" stroke-width="1.1111111111111112" />
<line x1="83.13888888888889" y1="513" x2="88.4" y2="513" stroke="#262626" stroke-width="1.1111111111111112" />
<text x="78.27777777777777" y="517" font-family="DejaVu Sans, sans-serif" font-size="13.88888888888889" text-anchor="end" fill="#262626">0</text>
<line x1="83.13888888888889" y1="471" x2="88.4" y2="471" stroke="#262626" stroke-width="1.1111111111111112" />
<text x="78.27777777777777" y="475" font-family="DejaVu Sans, sans-serif" font-size="13.88888888888889" text-anchor="end" fill="#262626">0.1</text>
<line x1="83.13888888888889" y1="429" x2="88.4" y2="429" stroke="#262626" stroke-width="1.1111111111111112" />
<text x="78.27777777777777" y="433" font-family="DejaVu Sans, sans-serif" font-size="13.88888888888889" text-anchor="end" fill="#262626">0.2</text>
<line x1="83.13888888888889" y1="387" x2="88.4" y2="387" stroke="#262626" stroke-width="1.1111111111111112" />
<text x="78.27777777777777" y="391" font-family="DejaVu Sans, sans-serif" font-size="13.88888888888889" text-anchor="end" fill="#262626">0.3</text>
<line x1="83.13888888888889" y1="345" x2="88.4" y2="345" stroke="#262626" stroke-width="1.1111111111111112" />
<text x="78.27777777777777" y="349" font-family="DejaVu Sans, sans-serif" font-size="13.88888888888889" text-anchor="end" fill="#262626">0.4</text>
<line x1="83.13888888888889" y1="303" x2="88.4" y2="303" stroke="#262626" stroke-width="1.1111111111111112" />
<text x="78.27777777777777" y="307" font-family="DejaVu Sans, sans-serif" font-size="13.88888888888889" text-anchor="end" fill="#262626">0.5</text>
<line x1="83.13888888888889" y1="261.00000000000006" x2="88.4" y2="261.00000000000006" stroke="#262626" stroke-width="1.1111111111111112" />
<text x="78.27777777777777" y="265.00000000000006" font-family="DejaVu Sans, sans-serif" font-size="13.88888888888889" text-anchor="end" fill="#262626">0.6</text>
<line x1="83.13888888888889" y1="219.00000000000006" x2="88.4" y2="219.00000000000006" stroke="#262626" stroke-width="1.1111111111111112" />
<text x="78.27777777777777" y="223.00000000000006" font-family="DejaVu Sans, sans-serif" font-size="13.88888888888889" text-anchor="end" fill="#262626">0.7</text>
<line x1="83.13888888888889" y1="177" x2="88.4" y2="177" stroke="#262626" stroke-width="1.1111111111111112" />
<text x="78.27777777777777" y="181" font-family="DejaVu Sans, sans-serif" font-size="13.88888888888889" text-anchor="end" fill="#262626">0.8</text>
<line x1="83.13888888888889" y1="135.00000000000006" x2="88.4" y2="135.00000000000006" stroke="#262626" stroke-width="1.1111111111111112" />
<text x="78.27777777777777" y="139.00000000000006" font-family="DejaVu Sans, sans-serif" font-size="13.88888888888889" text-anchor="end" fill="#262626">0.9</text>
<line x1="83.13888888888889" y1="93.00000000000006" x2="88.4" y2="93.00000000000006" stroke="#262626" stroke-width="1.1111111111111112" />
<text x="78.27777777777777" y="97.00000000000006" font-family="DejaVu Sans, sans-serif" font-size="13.88888888888889" text-anchor="end" fill="#262626">1</text>
<line x1="83.13888888888889" y1="529.8" x2="88.4" y2="529.8" stroke="#262626" stroke-width="1.1111111111111112" />
<line x1="83.13888888888889" y1="521.4" x2="88.4" y2="521.4" stroke="#262626" stroke-width="1.1111111111111112" />
<line x1="83.13888888888889" y1="504.6" x2="88.4" y2="504.6" stroke="#262626" stroke-width="1.1111111111111112" />
<line x1="83.13888888888889" y1="496.2" x2="88.4" y2="496.2" stroke="#262626" stroke-width="1.1111111111111112" />
<line x1="83.13888888888889" y1="487.8" x2="88.4" y2="487.8" stroke="#262626" stroke-width="1.1111111111111112" />
<line x1="83.13888888888889" y1="479.4" x2="88.4" y2="479.4" stroke="#262626" stroke-width="1.1111111111111112" />
<line x1="83.13888888888889" y1="462.6" x2="88.4" y2="462.6" stroke="#262626" stroke-width="1.1111111111111112" />
<line x1="83.13888888888889" y1="454.2" x2="88.4" y2="454.2" stroke="#262626" stroke-width="1.1111111111111112" />
<line x1="83.13888888888889" y1="445.8" x2="88.4" y2="445.8" stroke="#262626" stroke-width="1.1111111111111112" />
<line x1="83.13888888888889" y1="437.40000000000003" x2="88.4" y2="437.40000000000003" stroke="#262626" stroke-width="1.1111111111111112" />
<line x1="83.13888888888889" y1="420.6" x2="88.4" y2="420.6" stroke="#262626" stroke-width="1.1111111111111112" />
<line x1="83.13888888888889" y1="412.20000000000005" x2="88.4" y2="412.20000000000005" stroke="#262626" stroke-width="1.1111111111111112" />
<line x1="83.13888888888889" y1="403.8" x2="88.4" y2="403.8" stroke="#262626" stroke-width="1.1111111111111112" />
<line x1="83.13888888888889" y1="395.4" x2="88.4" y2="395.4" stroke="#262626" stroke-width="1.1111111111111112" />
<line x1="83.13888888888889" y1="378.6" x2="88.4" y2="378.6" stroke="#262626" stroke-width="1.1111111111111112" />
<line x1="83.13888888888889" y1="370.20000000000005" x2="88.4" y2="370.20000000000005" stroke="#262626" stroke-width="1.1111111111111112" />
<line x1="83.13888888888889" y1="361.80000000000007" x2="88.4" y2="361.80000000000007" stroke="#262626" stroke-width="1.1111111111111112" />
<line x1="83.13888888888889" y1="353.4" x2="88.4" y2="353.4" stroke="#262626" stroke-width="1.1111111111111112" />
<line x1="83.13888888888889" y1="336.6" x2="88.4" y2="336.6" stroke="#262626" stroke-width="1.1111111111111112" />
<line x1="83.13888888888889" y1="328.20000000000005" x2="88.4" y2="328.20000000000005" stroke="#262626" stroke-width="1.1111111111111112" />
<line x1="83.13888888888889" y1="319.8" x2="88.4" y2="319.8" stroke="#262626" stroke-width="1.1111111111111112" />
<line x1="83.13888888888889" y1="311.40000000000003" x2="88.4" y2="311.40000000000003" stroke="#262626" stroke-width="1.1111111111111112" />
<line x1="83.13888888888889" y1="294.6" x2="88.4" y2="294.6" stroke="#262626" stroke-width="1.1111111111111112" />
<line x1="83.13888888888889" y1="286.20000000000005" x2="88.4" y2="286.20000000000005" stroke="#262626" stroke-width="1.1111111111111112" />
<line x1="83.13888888888889" y1="277.8" x2="88.4" y2="277.8" stroke="#262626" stroke-width="1.1111111111111112" />
<line x1="83.13888888888889" y1="269.4000000000001" x2="88.4" y2="269.4000000000001" stroke="#262626" stroke-width="1.1111111111111112" />
<line x1="83.13888888888889" y1="252.60000000000002" x2="88.4" y2="252.60000000000002" stroke="#262626" stroke-width="1.1111111111111112" />
<line x1="83.13888888888889" y1="244.20000000000005" x2="88.4" y2="244.20000000000005" stroke="#262626" stroke-width="1.1111111111111112" />
<line x1="83.13888888888889" y1="235.8" x2="88.4" y2="235.8" stroke="#262626" stroke-width="1.1111111111111112" />
<line x1="83.13888888888889" y1="227.40000000000003" x2="88.4" y2="227.40000000000003" stroke="#262626" stroke-width="1.1111111111111112" />
<line x1="83.13888888888889" y1="210.60000000000008" x2="88.4" y2="210.60000000000008" stroke="#262626" stroke-width="1.1111111111111112" />
<line x1="83.13888888888889" y1="202.20000000000005" x2="88.4" y2="202.20000000000005" stroke="#262626" stroke-width="1.1111111111111112" />
<line x1="83.13888888888889" y1="193.8" x2="88.4" y2="193.8" stroke="#262626" stroke-width="1.1111111111111112" />
<line x1="83.13888888888889" y1="185.40000000000003" x2="88.4" y2="185.40000000000003" stroke="#262626" stroke-width="1.1111111111111112" />
<line x1="83.13888888888889" y1="168.60000000000008" x2="88.4" y2="168.60000000000008" stroke="#262626" stroke-width="1.1111111111111112" />
<line x1="83.13888888888889" y1="160.20000000000005" x2="88.4" y2="160.20000000000005" stroke="#262626" stroke-width="1.1111111111111112" />
<line x1="83.13888888888889" y1="151.80000000000007" x2="88.4" y2="151.80000000000007" stroke="#262626" stroke-width="1.1111111111111112" />
<line x1="83.13888888888889" y1="143.40000000000003" x2="88.4" y2="143.40000000000003" stroke="#262626" stroke-width="1.1111111111111112" />
<line x1="83.13888888888889" y1="126.60000000000002" x2="88.4" y2="126.60000000000002" stroke="#262626" stroke-width="1.1111111111111112" />
<line x1="83.13888888888889" y1="118.2000000000001" x2="88.4" y2="118.2000000000001" stroke="#262626" stroke-width="1.1111111111111112" />
<line x1="83.13888888888889" y1="109.80000000000007" x2="88.4" y2="109.80000000000007" stroke="#262626" stroke-width="1.1111111111111112" />
<line x1="83.13888888888889" y1="101.40000000000009" x2="88.4" y2="101.40000000000009" stroke="#262626" stroke-width="1.1111111111111112" />
<line x1="83.13888888888889" y1="84.60000000000002" x2="88.4" y2="84.60000000000002" stroke="#262626" stroke-width="1.1111111111111112" />
<line x1="83.13888888888889" y1="76.20000000000005" x2="88.4" y2="76.20000000000005" stroke="#262626" stroke-width="1.1111111111111112" />
<g class="spine">
<line x1="88" y1="534" x2="630" y2="534" stroke="#262626" stroke-width="0.8" />
</g>
<g class="spine">
<line x1="88" y1="72" x2="630" y2="72" stroke="#262626" stroke-width="0.8" />
</g>
<g class="spine">
<line x1="88" y1="72" x2="88" y2="534" stroke="#262626" stroke-width="0.8" />
</g>
<g class="spine">
<line x1="630" y1="72" x2="630" y2="534" stroke="#262626" stroke-width="0.8" />
</g>
<rect x="88" y="72" width="542" height="462" fill="#FFFFFF" />
<line x1="-11.192884425582918" y1="460.77593413710275" x2="259.80711557441714" y2="660.827802411308" stroke="#666666" stroke-width="0.5" />
<line x1="259.80711557441714" y1="660.827802411308" x2="729.192884425583" y2="545.327802411308" stroke="#666666" stroke-width="0.5" />
<line x1="729.192884425583" y1="545.327802411308" x2="458.1928844255828" y2="345.2759341371027" stroke="#666666" stroke-width="0.5" />
<line x1="458.1928844255828" y1="345.2759341371027" x2="-11.192884425582918" y2="460.77593413710275" stroke="#666666" stroke-width="0.5" />
<line x1="-11.192884425582918" y1="60.672197588692" x2="259.80711557441714" y2="260.7240658628973" stroke="#666666" stroke-width="0.5" />
<line x1="259.80711557441714" y1="260.7240658628973" x2="729.192884425583" y2="145.22406586289725" stroke="#666666" stroke-width="0.5" />
<line x1="729.192884425583" y1="145.22406586289725" x2="458.1928844255828" y2="-54.827802411308" stroke="#666666" stroke-width="0.5" />
<line x1="458.1928844255828" y1="-54.827802411308" x2="-11.192884425582918" y2="60.672197588692" stroke="#666666" stroke-width="0.5" />
<line x1="-11.192884425582918" y1="460.77593413710275" x2="-11.192884425582918" y2="60.672197588692" stroke="#666666" stroke-width="0.5" />
<line x1="259.80711557441714" y1="660.827802411308" x2="259.80711557441714" y2="260.7240658628973" stroke="#666666" stroke-width="0.5" />
<line x1="729.192884425583" y1="545.327802411308" x2="729.192884425583" y2="145.22406586289725" stroke="#666666" stroke-width="0.5" />
<line x1="458.1928844255828" y1="345.2759341371027" x2="458.1928844255828" y2="-54.827802411308" stroke="#666666" stroke-width="0.5" />
<circle cx="288.26191549787035" cy="360.16768106768615" r="1.25" fill="#6495ED" />
<circle cx="375.54582533937116" cy="414.6148644382549" r="1.375046785048081" fill="#6495ED" />
<circle cx="282.68541160261134" cy="408.30468193103854" r="1.4449305869974918" fill="#6495ED" />
<circle cx="184.60488069554626" cy="379.72105357362295" r="1.5609197384181224" fill="#6495ED" />
<circle cx="437.34767276309117" cy="452.9081820888704" r="1.5991967446966682" fill="#6495ED" />
<circle cx="161.92057112322095" cy="381.9085825215528" r="1.6502245884320177" fill="#6495ED" />
<circle cx="344.06341317761814" cy="473.35478663870765" r="1.655680205795216" fill="#6495ED" />
<circle cx="262.62306128782427" cy="459.2347018751398" r="1.6682016037247798" fill="#6495ED" />
<circle cx="530.2404012068824" cy="428.61428087369205" r="1.6744671403982943" fill="#6495ED" />
<circle cx="598.2394528180748" cy="362.3694022259628" r="1.712133892191488" fill="#6495ED" />
<circle cx="275.64281616734934" cy="457.56138069236863" r="1.7150974438062274" fill="#6495ED" />
<circle cx="158.11082863267347" cy="389.5676489455669" r="1.7189353935792622" fill="#6495ED" />
<circle cx="158.61217932740732" cy="396.9691414186646" r="1.7380218140781312" fill="#6495ED" />
<circle cx="290.8915663198813" cy="471.55382695196147" r="1.7612903785599228" fill="#6495ED" />
<circle cx="346.7194781670036" cy="493.33943103544004" r="1.763617790060497" fill="#6495ED" />
<circle cx="617.9747619476327" cy="357.1094327527948" r="1.776672461902794" fill="#6495ED" />
<circle cx="669.7419227143671" cy="259.983398398041" r="1.8484803183841072" fill="#6495ED" />
<circle cx="356.22328489543673" cy="516.0456072763244" r="1.8749886694126277" fill="#6495ED" />
<circle cx="-11.192884425582918" cy="60.672197588692" r="1.876753140752974" fill="#6495ED" />
<circle cx="610.9709412984064" cy="366.2095877015885" r="1.8822759654022487" fill="#6495ED" />
<circle cx="190.70910827587096" cy="440.2464848847346" r="1.8836208969231736" fill="#6495ED" />
<circle cx="-8.00557021754392" cy="70.03095305004041" r="1.8941305841772276" fill="#6495ED" />
<circle cx="196.01999452212124" cy="440.4286451384698" r="1.8976769687686923" fill="#6495ED" />
<circle cx="613.4124786782136" cy="362.3921064511719" r="1.9069352985745691" fill="#6495ED" />
<circle cx="526.087820584964" cy="458.45251929837974" r="1.9070912548327967" fill="#6495ED" />
<circle cx="466.88058129974803" cy="484.838583717979" r="1.9137770276671116" fill="#6495ED" />
<circle cx="468.41331387508745" cy="496.9057869789219" r="1.9163130375351218" fill="#6495ED" />
<circle cx="375.9428398782634" cy="509.2643295328973" r="1.9226172519229183" fill="#6495ED" />
<circle cx="25.02995136731252" cy="164.40092679032404" r="1.940307005204101" fill="#6495ED" />
<circle cx="483.03806435915715" cy="473.49560055174777" r="1.9550678095377527" fill="#6495ED" />
<circle cx="623.5296238543333" cy="321.1174350768049" r="1.9555380347967004" fill="#6495ED" />
<circle cx="304.66719084305623" cy="509.08891242793845" r="1.9678124541538369" fill="#6495ED" />
<circle cx="653.9375360994193" cy="255.51908353137662" r="1.9957884896104872" fill="#6495ED" />
<circle cx="286.0656702867949" cy="503.3819215898441" r="2.001957893150021" fill="#6495ED" />
<circle cx="152.34321803392695" cy="399.6238512392377" r="2.0033286048533743" fill="#6495ED" />
<circle cx="89.76739989577906" cy="265.8345306138179" r="2.0271955752302313" fill="#6495ED" />
<circle cx="71.09146719763484" cy="234.37055134900362" r="2.0546340794563394" fill="#6495ED" />
<circle cx="469.13674408121534" cy="498.9791158407927" r="2.0574059375678235" fill="#6495ED" />
<circle cx="41.105466315340166" cy="141.0039692601706" r="2.0591539207727254" fill="#6495ED" />
<circle cx="120.28138449292173" cy="349.57832307036784" r="2.0621854674173576" fill="#6495ED" />
<circle cx="617.8232495465571" cy="317.9571828429815" r="2.101252763154972" fill="#6495ED" />
<circle cx="65.07715175327498" cy="190.0788617866172" r="2.104911955063578" fill="#6495ED" />
<circle cx="512.99801034146" cy="448.7453343501788" r="2.1193764936630215" fill="#6495ED" />
<circle cx="626.0764684652778" cy="268.5249383851251" r="2.12255302359185" fill="#6495ED" />
<circle cx="155.53335821622292" cy="385.00974080119465" r="2.1306476391542306" fill="#6495ED" />
<circle cx="148.66778255143493" cy="348.64429195321355" r="2.132441645799272" fill="#6495ED" />
<circle cx="208.5668850689665" cy="441.85398886360457" r="2.135026172947814" fill="#6495ED" />
<circle cx="103.51981146112624" cy="277.01197668344446" r="2.1412231277242406" fill="#6495ED" />
<circle cx="593.1358706933963" cy="327.8640950247319" r="2.142860569880812" fill="#6495ED" />
<circle cx="90.85804034963972" cy="207.6984706301435" r="2.147918696773657" fill="#6495ED" />
<circle cx="108.66208668116295" cy="278.7494338257031" r="2.149845178850929" fill="#6495ED" />
<circle cx="465.05762020330593" cy="471.5426107717031" r="2.1528330035252594" fill="#6495ED" />
<circle cx="138.0688574093559" cy="306.9372986692226" r="2.182485429971481" fill="#6495ED" />
<circle cx="101.52383523449765" cy="200.50831264571516" r="2.186025701152698" fill="#6495ED" />
<circle cx="268.83200278191134" cy="477.30079588993567" r="2.189707712150179" fill="#6495ED" />
<circle cx="136.7472440100203" cy="294.48971474386735" r="2.2123559760730855" fill="#6495ED" />
<circle cx="349.23178676353126" cy="515.6461483803653" r="2.22226620227606" fill="#6495ED" />
<circle cx="263.08505972484534" cy="469.5303181773037" r="2.2360508084962065" fill="#6495ED" />
<circle cx="197.62634173215258" cy="381.24013149003326" r="2.2370408156489976" fill="#6495ED" />
<circle cx="307.05625318924183" cy="498.91721950757824" r="2.23823058895499" fill="#6495ED" />
<circle cx="508.0495726792711" cy="439.69411596271544" r="2.2416844458191654" fill="#6495ED" />
<circle cx="329.14674293179087" cy="486.3075573869151" r="2.2471253120338233" fill="#6495ED" />
<circle cx="389.65495957890346" cy="484.7054048892783" r="2.2512578983644262" fill="#6495ED" />
<circle cx="133.47563018507302" cy="224.21020502110525" r="2.2577031221816175" fill="#6495ED" />
<circle cx="577.4767142627063" cy="292.12967358090447" r="2.2630715985115586" fill="#6495ED" />
<circle cx="503.40379597913494" cy="395.6683847139603" r="2.2817822831413688" fill="#6495ED" />
<circle cx="395.06209770189815" cy="504.5376385181277" r="2.2825576585091265" fill="#6495ED" />
<circle cx="227.52264552049857" cy="437.637474230336" r="2.285686909358668" fill="#6495ED" />
<circle cx="330.9498647674699" cy="484.261709667619" r="2.288751974337174" fill="#6495ED" />
<circle cx="429.5597125854575" cy="491.4876177888514" r="2.2889509416838836" fill="#6495ED" />
<circle cx="493.1734581857949" cy="402.611753792253" r="2.294458442899784" fill="#6495ED" />
<circle cx="192.30357689429349" cy="331.3677766844875" r="2.308751176732195" fill="#6495ED" />
<circle cx="150.6140069134654" cy="241.75071547849495" r="2.3256738596300037" fill="#6495ED" />
<circle cx="546.8838894986782" cy="254.14226101303757" r="2.327134325871906" fill="#6495ED" />
<circle cx="154.98959273113405" cy="208.1050716475974" r="2.331117943450807" fill="#6495ED" />
<circle cx="524.4943652114773" cy="316.58804813657434" r="2.3549513653979224" fill="#6495ED" />
<circle cx="527.3081223578592" cy="143.25011343011556" r="2.3725584763338112" fill="#6495ED" />
<circle cx="514.3691776775996" cy="290.0128822505151" r="2.38010010626164" fill="#6495ED" />
<circle cx="228.58825361949445" cy="330.4430854704498" r="2.3961483118770426" fill="#6495ED" />
<circle cx="433.4970310599145" cy="392.27101402677914" r="2.40046570144854" fill="#6495ED" />
<circle cx="465.61445100867746" cy="-23.059626952870474" r="2.4044037036639625" fill="#6495ED" />
<circle cx="427.83905431437574" cy="386.86657290351224" r="2.410572382031786" fill="#6495ED" />
<circle cx="455.9199470633344" cy="7.137336730663009" r="2.42018817554432" fill="#6495ED" />
<circle cx="501.82725464053334" cy="284.69696912589455" r="2.4208163530948443" fill="#6495ED" />
<circle cx="296.17750557269824" cy="379.7332739446438" r="2.424484489851078" fill="#6495ED" />
<circle cx="441.512626626365" cy="33.510057443795816" r="2.4385011589841636" fill="#6495ED" />
<circle cx="470.001527774074" cy="126.91083838907849" r="2.4401210753763856" fill="#6495ED" />
<circle cx="313.93410005088003" cy="357.44119312640527" r="2.444452896083322" fill="#6495ED" />
<circle cx="241.13514416633961" cy="208.5134728535121" r="2.447282744411618" fill="#6495ED" />
<circle cx="253.8936306183579" cy="189.23790471305966" r="2.4475322482891677" fill="#6495ED" />
<circle cx="395.92494659217124" cy="393.9760931547029" r="2.4496904349855386" fill="#6495ED" />
<circle cx="467.7817038591183" cy="135.40295426224685" r="2.4548289318416256" fill="#6495ED" />
<circle cx="460.64607794883045" cy="309.2131892982454" r="2.456469610778772" fill="#6495ED" />
<circle cx="373.08265531849923" cy="78.82178683270247" r="2.4652011337661555" fill="#6495ED" />
<circle cx="428.87064362591633" cy="308.47921851422905" r="2.4668304359814623" fill="#6495ED" />
<circle cx="394.5792244294218" cy="85.6942792091524" r="2.478180754530671" fill="#6495ED" />
<circle cx="424.1280141215414" cy="113.4193559992849" r="2.4886822169054055" fill="#6495ED" />
<circle cx="337.59014528961904" cy="159.38069218267583" r="2.4909059662220097" fill="#6495ED" />
<circle cx="289.50784167148674" cy="246.37419671022886" r="2.4932163725364473" fill="#6495ED" />
<circle cx="315.5778983613389" cy="277.1975758480546" r="2.5" fill="#6495ED" />
</svg>
