<svg xmlns="http://www.w3.org/2000/svg" viewBox="0 0 700 600" width="700" height="600" style="width:100%;height:auto" role="img" aria-labelledby="chart-title">
<title id="chart-title">3D Scatter — Paraboloid with noise</title>
<rect x="0" y="0" width="700" height="600" fill="#FFFFFF" />
<path d="M8.33301 -7.03152Q9.65196 -6.69086 10.3376 -5.84795Q11.0233 -5.00504 11.0233 -3.70356Q11.0233 -1.76443 9.53841 -0.755561Q8.05349 0.253309 5.20595 0.253309Q4.20144 0.253309 3.19257 0.0917155Q2.1837 -0.0698785 1.19667 -0.393066L1.19667 -2.9873Q2.14003 -2.51563 3.07029 -2.27542Q4.00054 -2.03521 4.90023 -2.03521Q6.23665 -2.03521 6.94854 -2.49816Q7.66043 -2.9611 7.66043 -3.82585Q7.66043 -4.7168 6.93107 -5.17537Q6.20171 -5.63395 4.77794 -5.63395L3.43278 -5.63395L3.43278 -7.80018L4.84782 -7.80018Q6.11437 -7.80018 6.73454 -8.19762Q7.35471 -8.59505 7.35471 -9.40739Q7.35471 -10.1586 6.75201 -10.5691Q6.14931 -10.9797 5.04872 -10.9797Q4.23638 -10.9797 3.40658 -10.7962Q2.57677 -10.6128 1.7557 -10.2547L1.7557 -12.7179Q2.75146 -12.9974 3.72976 -13.1372Q4.70806 -13.2769 5.65142 -13.2769Q8.19325 -13.2769 9.45543 -12.4427Q10.7176 -11.6086 10.7176 -9.93148Q10.7176 -8.78722 10.1149 -8.05786Q9.51221 -7.32851 8.33301 -7.03152ZM17.4521 -10.4992L17.4521 -2.54183L18.6576 -2.54183Q20.719 -2.54183 21.8065 -3.5638Q22.8939 -4.58577 22.8939 -6.53364Q22.8939 -8.47276 21.8108 -9.486Q20.7277 -10.4992 18.6576 -10.4992L17.4521 -10.4992ZM14.0892 -13.0411L17.6356 -13.0411Q20.6054 -13.0411 22.0598 -12.6174Q23.5141 -12.1938 24.5535 -11.1806Q25.4707 -10.2983 25.9162 -9.14535Q26.3617 -7.99235 26.3617 -6.53364Q26.3617 -5.05745 25.9162 -3.90009Q25.4707 -2.74273 24.5535 -1.86051Q23.5054 -0.847276 22.0379 -0.423638Q20.5705 0 17.6356 0L14.0892 0L14.0892 -13.0411ZM44.2418 -12.6305L44.2418 -9.87033Q43.1674 -10.3507 42.1455 -10.5953Q41.1235 -10.8399 40.2151 -10.8399Q39.0097 -10.8399 38.4332 -10.508Q37.8567 -10.1761 37.8567 -9.47727Q37.8567 -8.95318 38.2454 -8.66056Q38.6341 -8.36795 39.656 -8.15831L41.0885 -7.87006Q43.2635 -7.43332 44.1807 -6.54237Q45.0978 -5.65142 45.0978 -4.00928Q45.0978 -1.85178 43.8182 -0.799235Q42.5385 0.253309 39.9093 0.253309Q38.669 0.253309 37.4199 0.0174696Q36.1708 -0.21837 34.9218 -0.681315L34.9218 -3.52013Q36.1708 -2.85628 37.3369 -2.51999Q38.503 -2.1837 39.5862 -2.1837Q40.6867 -2.1837 41.272 -2.55056Q41.8572 -2.91743 41.8572 -3.59874Q41.8572 -4.21018 41.4598 -4.5421Q41.0623 -4.87402 39.8744 -5.13607L38.5729 -5.42432Q36.6163 -5.84359 35.7123 -6.76074Q34.8082 -7.6779 34.8082 -9.23269Q34.8082 -11.1806 36.066 -12.2287Q37.3238 -13.2769 39.6822 -13.2769Q40.7566 -13.2769 41.8921 -13.1153Q43.0277 -12.9537 44.2418 -12.6305ZM55.8154 -9.47727L55.8154 -6.9267Q55.1778 -7.36344 54.5358 -7.57308Q53.8938 -7.78271 53.2037 -7.78271Q51.8935 -7.78271 51.1641 -7.01842Q50.4348 -6.25412 50.4348 -4.88276Q50.4348 -3.51139 51.1641 -2.7471Q51.8935 -1.9828 53.2037 -1.9828Q53.9374 -1.9828 54.5969 -2.20117Q55.2564 -2.41954 55.8154 -2.84755L55.8154 -0.288249C55.3263 -0.107729 54.8299 0.0276602 54.3261 0.11792Q53.5706 0.253309 52.8107 0.253309Q50.164 0.253309 48.6704 -1.10495Q47.1767 -2.46322 47.1767 -4.88276Q47.1767 -7.3023 48.6704 -8.66056Q50.164 -10.0188 52.8107 -10.0188Q53.5793 -10.0188 54.3261 -9.88344Q55.073 -9.74805 55.8154 -9.47727ZM62.8994 -4.40234Q61.9211 -4.40234 61.4275 -4.07042Q60.934 -3.7385 60.934 -3.09212Q60.934 -2.49816 61.3315 -2.16187Q61.7289 -1.82558 62.4364 -1.82558Q63.3186 -1.82558 63.9213 -2.45885Q64.524 -3.09212 64.524 -4.04422L64.524 -4.40234L62.8994 -4.40234ZM67.6773 -5.58154L67.6773 0L64.524 0L64.524 -1.44998Q63.8951 -0.559028 63.109 -0.152859Q62.3229 0.253309 61.1961 0.253309Q59.6762 0.253309 58.7285 -0.633274Q57.7808 -1.51986 57.7808 -2.9349Q57.7808 -4.65565 58.9643 -5.45926Q60.1479 -6.26286 62.681 -6.26286L64.524 -6.26286L64.524 -6.50743Q64.524 -7.24989 63.9388 -7.59492Q63.3536 -7.93994 62.1132 -7.93994Q61.1087 -7.93994 60.244 -7.73904Q59.3792 -7.53814 58.6368 -7.13634L58.6368 -9.52094Q59.6413 -9.76552 60.6545 -9.89217Q61.6678 -10.0188 62.681 -10.0188Q65.3276 -10.0188 66.5025 -8.97502Q67.6773 -7.93121 67.6773 -5.58154ZM74.0013 -12.5607L74.0013 -9.78299L77.2244 -9.78299L77.2244 -7.54688L74.0013 -7.54688L74.0013 -3.39784Q74.0013 -2.71653 74.2721 -2.47632Q74.5429 -2.23611 75.3465 -2.23611L76.9537 -2.23611L76.9537 0L74.2721 0Q72.4203 0 71.6473 -0.773031Q70.8742 -1.54606 70.8742 -3.39784L70.8742 -7.54688L69.3194 -7.54688L69.3194 -9.78299L70.8742 -9.78299L70.8742 -12.5607L74.0013 -12.5607ZM82.5527 -12.5607L82.5527 -9.78299L85.7758 -9.78299L85.7758 -7.54688L82.5527 -7.54688L82.5527 -3.39784Q82.5527 -2.71653 82.8235 -2.47632Q83.0942 -2.23611 83.8978 -2.23611L85.505 -2.23611L85.505 0L82.8235 0Q80.9717 0 80.1986 -0.773031Q79.4256 -1.54606 79.4256 -3.39784L79.4256 -7.54688L77.8708 -7.54688L77.8708 -9.78299L79.4256 -9.78299L79.4256 -12.5607L82.5527 -12.5607ZM97.4543 -4.9177L97.4543 -4.02675L90.1432 -4.02675Q90.2568 -2.92616 90.9381 -2.37587Q91.6194 -1.82558 92.8423 -1.82558Q93.8293 -1.82558 94.8644 -2.11819Q95.8995 -2.41081 96.9913 -3.00477L96.9913 -0.593967Q95.882 -0.174696 94.7727 0.0393066Q93.6634 0.253309 92.554 0.253309Q89.8987 0.253309 88.4268 -1.09622Q86.955 -2.44575 86.955 -4.88276Q86.955 -7.2761 88.4006 -8.64746Q89.8462 -10.0188 92.3793 -10.0188Q94.6853 -10.0188 96.0698 -8.62999Q97.4543 -7.24116 97.4543 -4.9177ZM94.2399 -5.95714Q94.2399 -6.84809 93.7201 -7.39402Q93.2004 -7.93994 92.3619 -7.93994Q91.4534 -7.93994 90.8857 -7.42896Q90.3179 -6.91797 90.1782 -5.95714L94.2399 -5.95714ZM107.089 -7.11887Q106.678 -7.31103 106.272 -7.40275Q105.866 -7.49447 105.455 -7.49447Q104.25 -7.49447 103.599 -6.72144Q102.948 -5.94841 102.948 -4.50716L102.948 0L99.8214 0L99.8214 -9.78299L102.948 -9.78299L102.948 -8.17578Q103.551 -9.13661 104.333 -9.57772Q105.115 -10.0188 106.207 -10.0188Q106.364 -10.0188 106.547 -10.0057Q106.731 -9.99262 107.08 -9.94895L107.089 -7.11887ZM114.33 -6.02702L130.297 -6.02702L130.297 -3.77344L114.33 -3.77344L114.33 -6.02702ZM139.128 -13.0411L144.71 -13.0411Q147.199 -13.0411 148.531 -11.9361Q149.863 -10.8312 149.863 -8.78722Q149.863 -6.73454 148.531 -5.62958Q147.199 -4.52463 144.71 -4.52463L142.491 -4.52463L142.491 0L139.128 0L139.128 -13.0411ZM142.491 -10.6041L142.491 -6.96164L144.351 -6.96164Q145.33 -6.96164 145.863 -7.43769Q146.395 -7.91374 146.395 -8.78722Q146.395 -9.6607 145.863 -10.1324Q145.33 -10.6041 144.351 -10.6041L142.491 -10.6041ZM156.484 -4.40234Q155.506 -4.40234 155.012 -4.07042Q154.519 -3.7385 154.519 -3.09212Q154.519 -2.49816 154.916 -2.16187Q155.314 -1.82558 156.021 -1.82558Q156.903 -1.82558 157.506 -2.45885Q158.109 -3.09212 158.109 -4.04422L158.109 -4.40234L156.484 -4.40234ZM161.262 -5.58154L161.262 0L158.109 0L158.109 -1.44998Q157.48 -0.559028 156.694 -0.152859Q155.908 0.253309 154.781 0.253309Q153.261 0.253309 152.313 -0.633274Q151.366 -1.51986 151.366 -2.9349Q151.366 -4.65565 152.549 -5.45926Q153.733 -6.26286 156.266 -6.26286L158.109 -6.26286L158.109 -6.50743Q158.109 -7.24989 157.524 -7.59492Q156.938 -7.93994 155.698 -7.93994Q154.693 -7.93994 153.829 -7.73904Q152.964 -7.53814 152.222 -7.13634L152.222 -9.52094Q153.226 -9.76552 154.239 -9.89217Q155.253 -10.0188 156.266 -10.0188Q158.912 -10.0188 160.087 -8.97502Q161.262 -7.93121 161.262 -5.58154ZM171.438 -7.11887Q171.028 -7.31103 170.621 -7.40275Q170.215 -7.49447 169.805 -7.49447Q168.599 -7.49447 167.949 -6.72144Q167.298 -5.94841 167.298 -4.50716L167.298 0L164.171 0L164.171 -9.78299L167.298 -9.78299L167.298 -8.17578Q167.9 -9.13661 168.682 -9.57772Q169.464 -10.0188 170.556 -10.0188Q170.713 -10.0188 170.897 -10.0057Q171.08 -9.99262 171.429 -9.94895L171.438 -7.11887ZM177.378 -4.40234Q176.399 -4.40234 175.906 -4.07042Q175.412 -3.7385 175.412 -3.09212Q175.412 -2.49816 175.81 -2.16187Q176.207 -1.82558 176.915 -1.82558Q177.797 -1.82558 178.4 -2.45885Q179.002 -3.09212 179.002 -4.04422L179.002 -4.40234L177.378 -4.40234ZM182.156 -5.58154L182.156 0L179.002 0L179.002 -1.44998Q178.374 -0.559028 177.587 -0.152859Q176.801 0.253309 175.674 0.253309Q174.155 0.253309 173.207 -0.633274Q172.259 -1.51986 172.259 -2.9349Q172.259 -4.65565 173.443 -5.45926Q174.626 -6.26286 177.159 -6.26286L179.002 -6.26286L179.002 -6.50743Q179.002 -7.24989 178.417 -7.59492Q177.832 -7.93994 176.592 -7.93994Q175.587 -7.93994 174.722 -7.73904Q173.858 -7.53814 173.115 -7.13634L173.115 -9.52094Q174.12 -9.76552 175.133 -9.89217Q176.146 -10.0188 177.159 -10.0188Q179.806 -10.0188 180.981 -8.97502Q182.156 -7.93121 182.156 -5.58154ZM190.27 -2.01774Q191.275 -2.01774 191.803 -2.75146Q192.332 -3.48519 192.332 -4.88276Q192.332 -6.28033 191.803 -7.01405Q191.275 -7.74778 190.27 -7.74778Q189.266 -7.74778 188.729 -7.00968Q188.191 -6.27159 188.191 -4.88276Q188.191 -3.49392 188.729 -2.75583Q189.266 -2.01774 190.27 -2.01774ZM188.191 -8.35048Q188.838 -9.20649 189.624 -9.61266Q190.41 -10.0188 191.432 -10.0188Q193.24 -10.0188 194.402 -8.58195Q195.564 -7.14507 195.564 -4.88276Q195.564 -2.62044 194.402 -1.18357Q193.24 0.253309 191.432 0.253309Q190.41 0.253309 189.624 -0.152859Q188.838 -0.559028 188.191 -1.41504L188.191 0L185.064 0L185.064 -13.5914L188.191 -13.5914L188.191 -8.35048ZM202.525 -7.78271Q201.486 -7.78271 200.94 -7.03589Q200.394 -6.28906 200.394 -4.88276Q200.394 -3.47645 200.94 -2.72963Q201.486 -1.9828 202.525 -1.9828Q203.547 -1.9828 204.089 -2.72963Q204.63 -3.47645 204.63 -4.88276Q204.63 -6.28906 204.089 -7.03589Q203.547 -7.78271 202.525 -7.78271ZM202.525 -10.0188Q205.05 -10.0188 206.469 -8.6562Q207.888 -7.29357 207.888 -4.88276Q207.888 -2.47195 206.469 -1.10932Q205.05 0.253309 202.525 0.253309Q199.992 0.253309 198.564 -1.10932Q197.136 -2.47195 197.136 -4.88276Q197.136 -7.29357 198.564 -8.6562Q199.992 -10.0188 202.525 -10.0188ZM210.16 -13.5914L213.287 -13.5914L213.287 0L210.16 0L210.16 -13.5914ZM220.947 -7.78271Q219.908 -7.78271 219.362 -7.03589Q218.816 -6.28906 218.816 -4.88276Q218.816 -3.47645 219.362 -2.72963Q219.908 -1.9828 220.947 -1.9828Q221.969 -1.9828 222.511 -2.72963Q223.052 -3.47645 223.052 -4.88276Q223.052 -6.28906 222.511 -7.03589Q221.969 -7.78271 220.947 -7.78271ZM220.947 -10.0188Q223.471 -10.0188 224.891 -8.6562Q226.31 -7.29357 226.31 -4.88276Q226.31 -2.47195 224.891 -1.10932Q223.471 0.253309 220.947 0.253309Q218.414 0.253309 216.986 -1.10932Q215.558 -2.47195 215.558 -4.88276Q215.558 -7.29357 216.986 -8.6562Q218.414 -10.0188 220.947 -10.0188ZM228.581 -9.78299L231.708 -9.78299L231.708 0L228.581 0L228.581 -9.78299ZM228.581 -13.5914L231.708 -13.5914L231.708 -11.0408L228.581 -11.0408L228.581 -13.5914ZM241.369 -8.35048L241.369 -13.5914L244.514 -13.5914L244.514 0L241.369 0L241.369 -1.41504Q240.723 -0.550293 239.945 -0.148492Q239.168 0.253309 238.146 0.253309Q236.338 0.253309 235.176 -1.18357Q234.014 -2.62044 234.014 -4.88276Q234.014 -7.14507 235.176 -8.58195Q236.338 -10.0188 238.146 -10.0188Q239.159 -10.0188 239.941 -9.61266Q240.723 -9.20649 241.369 -8.35048ZM239.308 -2.01774Q240.312 -2.01774 240.841 -2.75146Q241.369 -3.48519 241.369 -4.88276Q241.369 -6.28033 240.841 -7.01405Q240.312 -7.74778 239.308 -7.74778Q238.312 -7.74778 237.783 -7.01405Q237.255 -6.28033 237.255 -4.88276Q237.255 -3.48519 237.783 -2.75146Q238.312 -2.01774 239.308 -2.01774ZM252.873 -9.78299L255.912 -9.78299L257.555 -3.03971L259.205 -9.78299L261.817 -9.78299L263.459 -3.10959L265.11 -9.78299L268.15 -9.78299L265.573 0L262.158 0L260.507 -6.7258L258.865 0L255.449 0L252.873 -9.78299ZM270.272 -9.78299L273.4 -9.78299L273.4 0L270.272 0L270.272 -9.78299ZM270.272 -13.5914L273.4 -13.5914L273.4 -11.0408L270.272 -11.0408L270.272 -13.5914ZM279.82 -12.5607L279.82 -9.78299L283.043 -9.78299L283.043 -7.54688L279.82 -7.54688L279.82 -3.39784Q279.82 -2.71653 280.09 -2.47632Q280.361 -2.23611 281.165 -2.23611L282.772 -2.23611L282.772 0L280.09 0Q278.239 0 277.466 -0.773031Q276.693 -1.54606 276.693 -3.39784L276.693 -7.54688L275.138 -7.54688L275.138 -9.78299L276.693 -9.78299L276.693 -12.5607L279.82 -12.5607ZM294.791 -5.95714L294.791 0L291.647 0L291.647 -0.969564L291.647 -4.5421Q291.647 -5.82612 291.59 -6.30653Q291.533 -6.78695 291.393 -7.01405Q291.21 -7.31977 290.895 -7.4901Q290.581 -7.66043 290.179 -7.66043Q289.201 -7.66043 288.642 -6.90487Q288.083 -6.14931 288.083 -4.81288L288.083 0L284.956 0L284.956 -13.5914L288.083 -13.5914L288.083 -8.35048Q288.79 -9.20649 289.585 -9.61266Q290.38 -10.0188 291.341 -10.0188Q293.035 -10.0188 293.913 -8.97938Q294.791 -7.93994 294.791 -5.95714ZM313.754 -5.95714L313.754 0L310.61 0L310.61 -0.969564L310.61 -4.55957Q310.61 -5.82612 310.553 -6.30653Q310.496 -6.78695 310.357 -7.01405Q310.173 -7.31977 309.859 -7.4901Q309.544 -7.66043 309.142 -7.66043Q308.164 -7.66043 307.605 -6.90487Q307.046 -6.14931 307.046 -4.81288L307.046 0L303.919 0L303.919 -9.78299L307.046 -9.78299L307.046 -8.35048Q307.754 -9.20649 308.548 -9.61266Q309.343 -10.0188 310.304 -10.0188Q311.999 -10.0188 312.876 -8.97938Q313.754 -7.93994 313.754 -5.95714ZM321.31 -7.78271Q320.271 -7.78271 319.725 -7.03589Q319.179 -6.28906 319.179 -4.88276Q319.179 -3.47645 319.725 -2.72963Q320.271 -1.9828 321.31 -1.9828Q322.332 -1.9828 322.873 -2.72963Q323.415 -3.47645 323.415 -4.88276Q323.415 -6.28906 322.873 -7.03589Q322.332 -7.78271 321.31 -7.78271ZM321.31 -10.0188Q323.834 -10.0188 325.254 -8.6562Q326.673 -7.29357 326.673 -4.88276Q326.673 -2.47195 325.254 -1.10932Q323.834 0.253309 321.31 0.253309Q318.777 0.253309 317.349 -1.10932Q315.921 -2.47195 315.921 -4.88276Q315.921 -7.29357 317.349 -8.6562Q318.777 -10.0188 321.31 -10.0188ZM328.944 -9.78299L332.071 -9.78299L332.071 0L328.944 0L328.944 -9.78299ZM328.944 -13.5914L332.071 -13.5914L332.071 -11.0408L328.944 -11.0408L328.944 -13.5914ZM342.719 -9.47727L342.719 -7.1014Q341.714 -7.52067 340.78 -7.73031Q339.845 -7.93994 339.015 -7.93994Q338.124 -7.93994 337.692 -7.7172Q337.26 -7.49447 337.26 -7.03152Q337.26 -6.65592 337.587 -6.45502Q337.915 -6.25412 338.762 -6.15804L339.312 -6.07943Q341.714 -5.77371 342.544 -5.07492Q343.374 -4.37614 343.374 -2.88249Q343.374 -1.31896 342.221 -0.532823Q341.068 0.253309 338.78 0.253309Q337.81 0.253309 336.775 0.10045Q335.74 -0.0524089 334.648 -0.358127L334.648 -2.734Q335.583 -2.27978 336.565 -2.05268Q337.548 -1.82557 338.561 -1.82558Q339.478 -1.82558 339.941 -2.07888Q340.404 -2.33219 340.404 -2.83008Q340.404 -3.24935 340.085 -3.45462Q339.767 -3.65989 338.815 -3.77344L338.264 -3.84332Q336.177 -4.10536 335.338 -4.81288Q334.5 -5.5204 334.5 -6.96164Q334.5 -8.51644 335.565 -9.26763Q336.631 -10.0188 338.832 -10.0188Q339.697 -10.0188 340.649 -9.8878Q341.601 -9.75678 342.719 -9.47727ZM355.489 -4.9177L355.489 -4.02675L348.178 -4.02675Q348.292 -2.92616 348.973 -2.37587Q349.654 -1.82558 350.877 -1.82558Q351.864 -1.82558 352.899 -2.11819Q353.934 -2.41081 355.026 -3.00477L355.026 -0.593967Q353.917 -0.174696 352.808 0.0393066Q351.698 0.253309 350.589 0.253309Q347.934 0.253309 346.462 -1.09622Q344.99 -2.44575 344.99 -4.88276Q344.99 -7.2761 346.436 -8.64746Q347.881 -10.0188 350.414 -10.0188Q352.72 -10.0188 354.105 -8.62999Q355.489 -7.24116 355.489 -4.9177ZM352.275 -5.95714Q352.275 -6.84809 351.755 -7.39402Q351.235 -7.93994 350.397 -7.93994Q349.488 -7.93994 348.921 -7.42896Q348.353 -6.91797 348.213 -5.95714L352.275 -5.95714Z" fill="#262626" transform="translate(350,24.099999999999998) translate(-178.17701721191406,0)" />
<rect x="88" y="72" width="542" height="462" fill="#FFFFFF" />
<polygon points="103.59375184121046,482.4450885072116 495.31334049878757,551.7350905339326 615.1768282425453,373.041664619569 255.89448242369036,316.2692002404651" fill="#F5F5F5" class="mpl-pane" />
<polygon points="103.59375184121046,482.4450885072116 255.89448242369036,316.2692002404651 251.88550339463092,54.264909466067394 93.10000000000002,199.05436487375135" fill="#F5F5F5" class="mpl-pane" />
<polygon points="255.89448242369036,316.2692002404651 615.1768282425453,373.041664619569 624.4,103.61051015670338 251.88550339463092,54.264909466067394" fill="#F5F5F5" class="mpl-pane" />
<line x1="103.59375184121046" y1="482.4450885072116" x2="495.31334049878757" y2="551.7350905339326" stroke="#666666" stroke-width="0.5" />
<line x1="495.31334049878757" y1="551.7350905339326" x2="615.1768282425453" y2="373.041664619569" stroke="#666666" stroke-width="0.5" />
<line x1="615.1768282425453" y1="373.041664619569" x2="255.89448242369036" y2="316.2692002404651" stroke="#666666" stroke-width="0.5" />
<line x1="255.89448242369036" y1="316.2692002404651" x2="103.59375184121046" y2="482.4450885072116" stroke="#666666" stroke-width="0.5" />
<line x1="624.4" y1="103.61051015670338" x2="251.88550339463092" y2="54.264909466067394" stroke="#666666" stroke-width="0.5" />
<line x1="251.88550339463092" y1="54.264909466067394" x2="93.10000000000002" y2="199.05436487375135" stroke="#666666" stroke-width="0.5" />
<line x1="103.59375184121046" y1="482.4450885072116" x2="93.10000000000002" y2="199.05436487375135" stroke="#666666" stroke-width="0.5" />
<line x1="615.1768282425453" y1="373.041664619569" x2="624.4" y2="103.61051015670338" stroke="#666666" stroke-width="0.5" />
<line x1="255.89448242369036" y1="316.2692002404651" x2="251.88550339463092" y2="54.264909466067394" stroke="#666666" stroke-width="0.5" />
<line x1="126.58162087125524" y1="486.51133777787084" x2="277.05063398754714" y2="319.6122168819328" stroke="#B0B0B0" stroke-width="1" />
<line x1="170.05546290068975" y1="494.20128408015313" x2="317.03583314617555" y2="325.9305298225557" stroke="#B0B0B0" stroke-width="1" />
<line x1="213.90500869980247" y1="501.9576873984138" x2="357.3340670914393" y2="332.29830735970125" stroke="#B0B0B0" stroke-width="1" />
<line x1="258.1351496891922" y1="509.7814129601088" x2="397.9490262835784" y2="338.7161326462157" stroke="#B0B0B0" stroke-width="1" />
<line x1="302.75086257041085" y1="517.6733410777645" x2="438.8844594222786" y2="345.18459803772646" stroke="#B0B0B0" stroke-width="1" />
<line x1="347.7572111926707" y1="525.6343674791725" x2="480.14417460007365" y2="351.7043052748985" stroke="#B0B0B0" stroke-width="1" />
<line x1="393.15934846879975" y1="533.6654036462978" x2="521.7320404832675" y2="358.2758656700396" stroke="#B0B0B0" stroke-width="1" />
<line x1="438.9625183419664" y1="541.7673771631655" x2="563.6519875211453" y2="364.8999002981751" stroke="#B0B0B0" stroke-width="1" />
<line x1="485.1720578047524" y1="549.9412320730082" x2="605.9080091842684" y2="371.5770401927187" stroke="#B0B0B0" stroke-width="1" />
<line x1="113.79679461803272" y1="471.3125109419068" x2="503.37044390380333" y2="539.7234977003716" stroke="#B0B0B0" stroke-width="1" />
<line x1="131.8585351158288" y1="451.6052793391058" x2="517.6237987524245" y2="518.4744847055377" stroke="#B0B0B0" stroke-width="1" />
<line x1="149.52298089046886" y1="432.3315374725105" x2="531.5518031256263" y2="497.7105067465592" stroke="#B0B0B0" stroke-width="1" />
<line x1="166.8030979669571" y1="413.4771380644676" x2="545.1654711095916" y2="477.415143937528" stroke="#B0B0B0" stroke-width="1" />
<line x1="183.71129423350965" y1="395.0285428224296" x2="558.4753251915446" y2="457.5727092721115" stroke="#B0B0B0" stroke-width="1" />
<line x1="200.25944915381928" y1="376.9727900197932" x2="571.491423384408" y2="438.1682081859028" stroke="#B0B0B0" stroke-width="1" />
<line x1="216.45894160124604" y1="359.2974641259116" x2="584.2233845750934" y2="419.1873007669898" stroke="#B0B0B0" stroke-width="1" />
<line x1="232.32067595198652" y1="341.9906673357412" x2="596.6804122306813" y2="400.61626641459645" stroke="#B0B0B0" stroke-width="1" />
<line x1="247.85510656296069" y1="325.0409928619292" x2="608.8713165852748" y2="382.44197076274895" stroke="#B0B0B0" stroke-width="1" />
<line x1="113.79679461803272" y1="471.3125109419068" x2="103.77424419582775" y2="189.32099519603307" stroke="#B0B0B0" stroke-width="1" />
<line x1="131.8585351158288" y1="451.6052793391058" x2="122.6571339642957" y2="172.1025258291863" stroke="#B0B0B0" stroke-width="1" />
<line x1="149.52298089046886" y1="432.3315374725105" x2="141.10863152411363" y2="155.27742387701028" stroke="#B0B0B0" stroke-width="1" />
<line x1="166.8030979669571" y1="413.4771380644676" x2="159.14335308081567" y2="138.83236147018349" stroke="#B0B0B0" stroke-width="1" />
<line x1="183.71129423350965" y1="395.0285428224296" x2="176.77526192234927" y2="122.75460610596244" stroke="#B0B0B0" stroke-width="1" />
<line x1="200.25944915381928" y1="376.9727900197932" x2="194.01770447435888" y2="107.03198777096796" stroke="#B0B0B0" stroke-width="1" />
<line x1="216.45894160124604" y1="359.2974641259116" x2="210.88344399232412" y2="91.65286821881992" stroke="#B0B0B0" stroke-width="1" />
<line x1="232.32067595198652" y1="341.9906673357412" x2="227.38469206929938" y2="76.6061122396269" stroke="#B0B0B0" stroke-width="1" />
<line x1="247.85510656296069" y1="325.0409928619292" x2="243.533138122717" y2="61.88106077227883" stroke="#B0B0B0" stroke-width="1" />
<line x1="103.54585684973728" y1="481.1516525181212" x2="255.87611737376136" y2="315.0689640090423" stroke="#B0B0B0" stroke-width="1" />
<line x1="102.32100047475984" y1="448.0735942883897" x2="255.4066644666969" y2="284.3881659615031" stroke="#B0B0B0" stroke-width="1" />
<line x1="101.08472255116317" y1="414.68708956809917" x2="254.93324544150084" y2="253.4481647700516" stroke="#B0B0B0" stroke-width="1" />
<line x1="99.83686257501802" y1="380.98780384225836" x2="254.455809824031" y2="222.2456617290283" stroke="#B0B0B0" stroke-width="1" />
<line x1="98.57725702088379" y1="346.97132099796477" x2="253.97430628002883" y2="190.77730192041" stroke="#B0B0B0" stroke-width="1" />
<line x1="97.30573927037233" y1="312.63314139520855" x2="253.48868259671974" y2="159.03967301131206" stroke="#B0B0B0" stroke-width="1" />
<line x1="96.02213953867425" y1="277.96867988268286" x2="252.99888566393912" y2="127.02930402048938" stroke="#B0B0B0" stroke-width="1" />
<line x1="94.7262847989818" y1="242.97326375676317" x2="252.50486145476955" y2="94.74266405289978" stroke="#B0B0B0" stroke-width="1" />
<line x1="93.41799870473608" y1="207.64213066174614" x2="252.0065550056746" y2="62.17616100135993" stroke="#B0B0B0" stroke-width="1" />
<line x1="277.05063398754714" y1="319.6122168819328" x2="273.7947829125789" y2="57.16714969662007" stroke="#B0B0B0" stroke-width="1" />
<line x1="317.03583314617555" y1="325.9305298225557" x2="315.2122866488895" y2="62.65357135161409" stroke="#B0B0B0" stroke-width="1" />
<line x1="357.3340670914393" y1="332.29830735970125" x2="356.9658074090053" y2="68.18450392372156" stroke="#B0B0B0" stroke-width="1" />
<line x1="397.9490262835784" y1="338.7161326462157" x2="399.0594509682701" y2="73.76049128963047" stroke="#B0B0B0" stroke-width="1" />
<line x1="438.8844594222786" y1="345.18459803772646" x2="441.4973902666078" y2="79.3820862230692" stroke="#B0B0B0" stroke-width="1" />
<line x1="480.14417460007365" y1="351.7043052748985" x2="484.28386678755805" y2="85.04985057748243" stroke="#B0B0B0" stroke-width="1" />
<line x1="521.7320404832675" y1="358.2758656700396" x2="527.4231919714277" y2="90.76435547322575" stroke="#B0B0B0" stroke-width="1" />
<line x1="563.6519875211453" y1="364.8999002981751" x2="570.91974866355" y2="96.5261814894113" stroke="#B0B0B0" stroke-width="1" />
<line x1="605.9080091842684" y1="371.5770401927187" x2="614.7779925986712" y2="102.3359188605389" stroke="#B0B0B0" stroke-width="1" />
<line x1="255.87611737376136" y1="315.0689640090423" x2="615.2190263528717" y2="371.8089557553753" stroke="#B0B0B0" stroke-width="1" />
<line x1="255.4066644666969" y1="284.3881659615031" x2="616.2978726691686" y2="340.2932455277162" stroke="#B0B0B0" stroke-width="1" />
<line x1="254.93324544150084" y1="253.4481647700516" x2="617.3861563346214" y2="308.5018475057676" stroke="#B0B0B0" stroke-width="1" />
<line x1="254.455809824031" y1="222.2456617290283" x2="618.4840017248941" y2="276.43112837556623" stroke="#B0B0B0" stroke-width="1" />
<line x1="253.97430628002883" y1="190.77730192041" x2="619.5915354108383" y2="244.07739069641417" stroke="#B0B0B0" stroke-width="1" />
<line x1="253.48868259671974" y1="159.03967301131206" x2="620.7088862071378" y2="211.4368714798404" stroke="#B0B0B0" stroke-width="1" />
<line x1="252.99888566393912" y1="127.02930402048938" x2="621.8361852222532" y2="178.50574073060596" stroke="#B0B0B0" stroke-width="1" />
<line x1="252.50486145476955" y1="94.74266405289978" x2="622.9735659097063" y2="145.2800999485652" stroke="#B0B0B0" stroke-width="1" />
<line x1="252.0065550056746" y1="62.17616100135993" x2="624.1211641207465" y2="111.75598059015127" stroke="#B0B0B0" stroke-width="1" />
<path d="M0.874837 -10.1251L2.34646 -10.1251L4.86247 -6.36122L7.39204 -10.1251L8.86366 -10.1251L5.60845 -5.26259L9.08068 0L7.60905 0L4.76074 -4.30637L1.89209 0L0.413683 0L4.02832 -5.405L0.874837 -10.1251Z" fill="#262626" transform="translate(292.13787125101766,558.4480500660316) translate(-4.757351398468018,0)" />
<path d="M-0.0271267 -10.1251L1.4445 -10.1251L4.25212 -5.9611L7.03939 -10.1251L8.51101 -10.1251L4.93028 -4.82178L4.93028 0L3.5536 0L3.5536 -4.82178L-0.0271267 -10.1251Z" fill="#262626" transform="translate(623.0528895972018,469.00804251843874) translate(-4.241943359375,0)" />
<path d="M0.779894 -10.1251L8.73481 -10.1251L8.73481 -9.08068L2.3329 -1.15289L8.89079 -1.15289L8.89079 0L0.623915 0L0.623915 -1.04438L7.02583 -8.97217L0.779894 -8.97217L0.779894 -10.1251Z" fill="#262626" transform="translate(679.753290059002,240.37880601783857) translate(-4.757351398468018,0)" />
<circle cx="350.26523903595563" cy="177.15140940775382" r="1.25" fill="#6495ED" />
<circle cx="363.8681894289984" cy="266.7102400076339" r="1.262812269782402" fill="#6495ED" />
<circle cx="306.98832901182027" cy="184.65234120693407" r="1.2630042782475794" fill="#6495ED" />
<circle cx="308.31138507640094" cy="178.77185684891063" r="1.2707962163796485" fill="#6495ED" />
<circle cx="392.9309379883705" cy="238.38238608167214" r="1.2737388297449166" fill="#6495ED" />
<circle cx="377.51582167710393" cy="266.6369977228828" r="1.2793071898444486" fill="#6495ED" />
<circle cx="276.2583875367088" cy="89.12276136426095" r="1.2870384764219862" fill="#6495ED" />
<circle cx="426.6819462647715" cy="254.0477722135155" r="1.2887112942195391" fill="#6495ED" />
<circle cx="392.61450705612333" cy="280.06037346365673" r="1.2891469830272566" fill="#6495ED" />
<circle cx="276.23947053707167" cy="109.1144619887387" r="1.2910918387126067" fill="#6495ED" />
<circle cx="275.36300302048943" cy="179.64352962431144" r="1.2918298654137497" fill="#6495ED" />
<circle cx="344.27839504794764" cy="289.2180938143746" r="1.2925574313142079" fill="#6495ED" />
<circle cx="272.6246007153076" cy="127.66035019142367" r="1.2989845010083292" fill="#6495ED" />
<circle cx="327.0977896116779" cy="294.48041081157095" r="1.3268822995271834" fill="#6495ED" />
<circle cx="466.81947907917794" cy="227.78752329608886" r="1.3333538846348583" fill="#6495ED" />
<circle cx="255.85000984426287" cy="167.44703980662132" r="1.336618097145954" fill="#6495ED" />
<circle cx="478.2243582622352" cy="258.0952873844695" r="1.3676188612139082" fill="#6495ED" />
<circle cx="462.09250911735825" cy="269.36639990495087" r="1.3686069198691875" fill="#6495ED" />
<circle cx="245.51571823298264" cy="166.29002484303075" r="1.3751191498548467" fill="#6495ED" />
<circle cx="353.97608313622334" cy="340.22609604336617" r="1.3830648813064523" fill="#6495ED" />
<circle cx="359.59781192096807" cy="342.23497751443" r="1.3842364252188597" fill="#6495ED" />
<circle cx="412.9980243753874" cy="329.1299540443319" r="1.3859816950542745" fill="#6495ED" />
<circle cx="407.71173493910385" cy="335.4066466354677" r="1.3904070124719479" fill="#6495ED" />
<circle cx="334.0112190855974" cy="351.06888183291187" r="1.3954311738994165" fill="#6495ED" />
<circle cx="497.75186001384327" cy="211.50594362748944" r="1.3961373072559322" fill="#6495ED" />
<circle cx="243.1043695727972" cy="221.1696331741415" r="1.4120653442480031" fill="#6495ED" />
<circle cx="432.23522141994886" cy="353.85534514302674" r="1.4173382913403292" fill="#6495ED" />
<circle cx="258.803221642813" cy="296.0850168936842" r="1.4487863196516653" fill="#6495ED" />
<circle cx="505.9265553586898" cy="254.8395410278872" r="1.4774054518859905" fill="#6495ED" />
<circle cx="239.42794518652983" cy="281.7821984083202" r="1.4855291961729273" fill="#6495ED" />
<circle cx="399.2134169328325" cy="400.44636385168485" r="1.4912729576635206" fill="#6495ED" />
<circle cx="531.0362340935113" cy="206.90732937851607" r="1.4937815631859233" fill="#6495ED" />
<circle cx="285.6669909279755" cy="343.5419502296513" r="1.5054483290133625" fill="#6495ED" />
<circle cx="456.82664590497785" cy="355.6853153571583" r="1.5100590988899225" fill="#6495ED" />
<circle cx="519.3405012946405" cy="280.20222234219864" r="1.5351153070156287" fill="#6495ED" />
<circle cx="386.60272392461917" cy="414.6840888114873" r="1.544407520959624" fill="#6495ED" />
<circle cx="285.2489955657071" cy="359.8363249995049" r="1.548103770455791" fill="#6495ED" />
<circle cx="433.74760164460827" cy="379.0083187567649" r="1.5504502495655468" fill="#6495ED" />
<circle cx="523.3035544857994" cy="282.2683262064471" r="1.5586791496076944" fill="#6495ED" />
<circle cx="214.62644579996257" cy="251.91121992867824" r="1.5631434805095477" fill="#6495ED" />
<circle cx="384.2090712474737" cy="403.0004355846262" r="1.5744008542876056" fill="#6495ED" />
<circle cx="212.81130118917548" cy="265.8246749696727" r="1.5828638401439692" fill="#6495ED" />
<circle cx="349.15356864881693" cy="414.4679449109138" r="1.6231823353177393" fill="#6495ED" />
<circle cx="458.1945341230165" cy="393.0452626457923" r="1.6249930479365815" fill="#6495ED" />
<circle cx="542.5096243438031" cy="272.5616980439043" r="1.6329924789847017" fill="#6495ED" />
<circle cx="243.6335449711802" cy="341.30251177838835" r="1.6557477380761252" fill="#6495ED" />
<circle cx="376.5292673850522" cy="429.0450922456465" r="1.6558520523540836" fill="#6495ED" />
<circle cx="355.42489188740086" cy="415.27898516851076" r="1.6593031120071113" fill="#6495ED" />
<circle cx="501.08992811773214" cy="354.41353168234616" r="1.6642023503914256" fill="#6495ED" />
<circle cx="475.8749114317387" cy="372.6550336973267" r="1.6854001452011282" fill="#6495ED" />
<circle cx="348.9380152945302" cy="427.0854861295389" r="1.6977055209273826" fill="#6495ED" />
<circle cx="545.5869410831659" cy="277.41001563600537" r="1.7120347776758484" fill="#6495ED" />
<circle cx="481.1066200142042" cy="389.00822574319113" r="1.7390739708086937" fill="#6495ED" />
<circle cx="477.81866382119415" cy="381.7750100256172" r="1.741696143197018" fill="#6495ED" />
<circle cx="320.0439505336177" cy="417.2763220110128" r="1.7550029369580824" fill="#6495ED" />
<circle cx="286.36042812734865" cy="405.23611067696186" r="1.7590518374884305" fill="#6495ED" />
<circle cx="238.74586104876838" cy="346.41649897574047" r="1.7748847402341306" fill="#6495ED" />
<circle cx="332.2721528913014" cy="420.12611411591297" r="1.7854587030401863" fill="#6495ED" />
<circle cx="185.86581924197358" cy="277.2511287780601" r="1.7920159162257203" fill="#6495ED" />
<circle cx="192.645071832783" cy="298.76474599801196" r="1.8063934062446068" fill="#6495ED" />
<circle cx="264.8827814993982" cy="374.80595529576607" r="1.8314455729176737" fill="#6495ED" />
<circle cx="535.8955968252575" cy="329.6262933550705" r="1.8418676586845495" fill="#6495ED" />
<circle cx="437.7299409533366" cy="414.393442263289" r="1.8598977121793003" fill="#6495ED" />
<circle cx="189.7213167845756" cy="289.03991254371573" r="1.881909634620314" fill="#6495ED" />
<circle cx="301.65507133600477" cy="408.51842091580437" r="1.9061130952198957" fill="#6495ED" />
<circle cx="378.056366766232" cy="429.6085661736416" r="1.9163193360629327" fill="#6495ED" />
<circle cx="394.5231113690377" cy="428.94071859772095" r="1.9194323952633763" fill="#6495ED" />
<circle cx="215.75784794175402" cy="331.2752772714809" r="1.9225454670609812" fill="#6495ED" />
<circle cx="437.6849991005089" cy="421.54956283463423" r="1.9255186268243736" fill="#6495ED" />
<circle cx="224.17010272496555" cy="338.11321578787926" r="1.9462909906856416" fill="#6495ED" />
<circle cx="260.83146128179936" cy="382.8185331190075" r="1.9740056165401172" fill="#6495ED" />
<circle cx="247.91440307916116" cy="361.2161245320019" r="1.9773476854517296" fill="#6495ED" />
<circle cx="177.9635937723665" cy="277.8549536781643" r="1.9795744864103182" fill="#6495ED" />
<circle cx="206.77942976779" cy="324.9585622538047" r="2.0086190556791763" fill="#6495ED" />
<circle cx="204.96827846371124" cy="324.58890543746213" r="2.02225037176654" fill="#6495ED" />
<circle cx="446.254883968248" cy="406.8936885724103" r="2.0250038316146073" fill="#6495ED" />
<circle cx="179.93314347322283" cy="283.2209325646305" r="2.025417650254533" fill="#6495ED" />
<circle cx="509.7826915107263" cy="360.3446159646209" r="2.030261631907001" fill="#6495ED" />
<circle cx="244.38020608730852" cy="365.5656559327782" r="2.072090380533532" fill="#6495ED" />
<circle cx="283.19451983683064" cy="389.9649064853064" r="2.0823801657061365" fill="#6495ED" />
<circle cx="168.37498500543768" cy="275.45197802956466" r="2.0924912782363125" fill="#6495ED" />
<circle cx="412.95896625329345" cy="403.8623161723104" r="2.09929796116164" fill="#6495ED" />
<circle cx="458.51804685279905" cy="392.47121540696594" r="2.112853177374447" fill="#6495ED" />
<circle cx="333.47676750076124" cy="405.300363156893" r="2.113513834691329" fill="#6495ED" />
<circle cx="190.50121263411663" cy="301.1623322010599" r="2.1302188829648516" fill="#6495ED" />
<circle cx="212.69216953545427" cy="317.0655532563319" r="2.1309956943076322" fill="#6495ED" />
<circle cx="333.00221823930514" cy="405.93812870963166" r="2.1319282865227924" fill="#6495ED" />
<circle cx="409.5251359377992" cy="396.93823011349787" r="2.1552093780837738" fill="#6495ED" />
<circle cx="150.16369395656366" cy="247.0691630311572" r="2.155491995968404" fill="#6495ED" />
<circle cx="411.3297788267648" cy="399.5831365867695" r="2.2106048923422033" fill="#6495ED" />
<circle cx="165.74032179598893" cy="261.3220268690981" r="2.2754658849057154" fill="#6495ED" />
<circle cx="329.44750117089654" cy="381.2627502897628" r="2.286785043855975" fill="#6495ED" />
<circle cx="509.01498411819136" cy="342.16003763771687" r="2.2887946551507583" fill="#6495ED" />
<circle cx="330.48424288622186" cy="376.1329833689291" r="2.301888526327251" fill="#6495ED" />
<circle cx="130.71135850021776" cy="204.59334712296624" r="2.3454500191050554" fill="#6495ED" />
<circle cx="342.1063647492458" cy="368.8318459296878" r="2.351032809345139" fill="#6495ED" />
<circle cx="447.48885198508214" cy="357.6607896325559" r="2.3567746312227267" fill="#6495ED" />
<circle cx="129.24085718133574" cy="198.46412961311353" r="2.3625535775320894" fill="#6495ED" />
<circle cx="368.7363005029777" cy="360.8703381094344" r="2.3920061539246436" fill="#6495ED" />
<circle cx="472.6629735143683" cy="320.05013831768946" r="2.5" fill="#6495ED" />
<line x1="170.05546290068975" y1="494.20128408015313" x2="169.20874126654837" y2="498.98808506921097" stroke="#262626" stroke-width="1.1111111111111112" />
<path d="M0.678168 -4.36062L4.3335 -4.36062L4.3335 -3.24843L0.678168 -3.24843L0.678168 -4.36062ZM6.73421 -1.15289L8.97217 -1.15289L8.97217 -8.87722L6.53754 -8.38894L6.53754 -9.63677L8.9586 -10.1251L10.3285 -10.1251L10.3285 -1.15289L12.5665 -1.15289L12.5665 0L6.73421 0L6.73421 -1.15289ZM15.3334 -1.72255L16.7643 -1.72255L16.7643 0L15.3334 0L15.3334 -1.72255ZM19.7618 -10.1251L25.1397 -10.1251L25.1397 -8.97217L21.0164 -8.97217L21.0164 -6.49007Q21.3148 -6.5918 21.6132 -6.64266Q21.9116 -6.69352 22.21 -6.69352Q23.9054 -6.69352 24.8956 -5.76443Q25.8857 -4.83534 25.8857 -3.24843Q25.8857 -1.61404 24.8684 -0.708686Q23.8512 0.196669 21.9998 0.196669Q21.3623 0.196669 20.7011 0.0881619C20.2603 0.0158239 19.8048 -0.092683 19.3346 -0.237359L19.3346 -1.61404Q19.9449 -1.28174 20.596 -1.11898Q21.247 -0.956217 21.9727 -0.956217Q23.1459 -0.956217 23.8308 -1.57335Q24.5158 -2.19048 24.5158 -3.24843Q24.5158 -4.30637 23.8308 -4.9235Q23.1459 -5.54064 21.9727 -5.54064Q21.4233 -5.54064 20.8774 -5.41857Q20.3315 -5.2965 19.7618 -5.03879L19.7618 -10.1251Z" fill="#262626" transform="translate(165.9234613260799,517.5608729067553) translate(-13.549805641174316,0)" />
<line x1="213.90500869980247" y1="501.9576873984138" x2="213.0582870656611" y2="506.7444883874716" stroke="#262626" stroke-width="1.1111111111111112" />
<path d="M0.678168 -4.36062L4.3335 -4.36062L4.3335 -3.24843L0.678168 -3.24843L0.678168 -4.36062ZM6.73421 -1.15289L8.97217 -1.15289L8.97217 -8.87722L6.53754 -8.38894L6.53754 -9.63677L8.9586 -10.1251L10.3285 -10.1251L10.3285 -1.15289L12.5665 -1.15289L12.5665 0L6.73421 0L6.73421 -1.15289ZM15.3334 -1.72255L16.7643 -1.72255L16.7643 0L15.3334 0L15.3334 -1.72255ZM22.678 -9.22309Q21.62 -9.22309 21.0876 -8.1821Q20.5553 -7.14111 20.5553 -5.05235Q20.5553 -2.97038 21.0876 -1.92939Q21.62 -0.888401 22.678 -0.888401Q23.7427 -0.888401 24.275 -1.92939Q24.8074 -2.97038 24.8074 -5.05235Q24.8074 -7.14111 24.275 -8.1821Q23.7427 -9.22309 22.678 -9.22309ZM22.678 -10.3082Q24.3802 -10.3082 25.2787 -8.962Q26.1773 -7.61583 26.1773 -5.05235Q26.1773 -2.49566 25.2787 -1.1495Q24.3802 0.196669 22.678 0.196669Q20.9757 0.196669 20.0772 -1.1495Q19.1786 -2.49566 19.1786 -5.05235Q19.1786 -7.61583 20.0772 -8.962Q20.9757 -10.3082 22.678 -10.3082Z" fill="#262626" transform="translate(209.7730071251926,525.3172762250159) translate(-13.549805641174316,0)" />
<line x1="258.1351496891922" y1="509.7814129601088" x2="257.2884280550508" y2="514.5682139491666" stroke="#262626" stroke-width="1.1111111111111112" />
<path d="M0.678168 -4.36062L4.3335 -4.36062L4.3335 -3.24843L0.678168 -3.24843L0.678168 -4.36062ZM9.42654 -9.22309Q8.3686 -9.22309 7.83624 -8.1821Q7.30387 -7.14111 7.30387 -5.05235Q7.30387 -2.97038 7.83624 -1.92939Q8.3686 -0.888401 9.42654 -0.888401Q10.4913 -0.888401 11.0236 -1.92939Q11.556 -2.97038 11.556 -5.05235Q11.556 -7.14111 11.0236 -8.1821Q10.4913 -9.22309 9.42654 -9.22309ZM9.42654 -10.3082Q11.1287 -10.3082 12.0273 -8.962Q12.9259 -7.61583 12.9259 -5.05235Q12.9259 -2.49566 12.0273 -1.1495Q11.1287 0.196669 9.42654 0.196669Q7.72434 0.196669 6.82577 -1.1495Q5.92719 -2.49566 5.92719 -5.05235Q5.92719 -7.61583 6.82577 -8.962Q7.72434 -10.3082 9.42654 -10.3082ZM15.3334 -1.72255L16.7643 -1.72255L16.7643 0L15.3334 0L15.3334 -1.72255ZM19.7618 -10.1251L25.1397 -10.1251L25.1397 -8.97217L21.0164 -8.97217L21.0164 -6.49007Q21.3148 -6.5918 21.6132 -6.64266Q21.9116 -6.69352 22.21 -6.69352Q23.9054 -6.69352 24.8956 -5.76443Q25.8857 -4.83534 25.8857 -3.24843Q25.8857 -1.61404 24.8684 -0.708686Q23.8512 0.196669 21.9998 0.196669Q21.3623 0.196669 20.7011 0.0881619C20.2603 0.0158239 19.8048 -0.092683 19.3346 -0.237359L19.3346 -1.61404Q19.9449 -1.28174 20.596 -1.11898Q21.247 -0.956217 21.9727 -0.956217Q23.1459 -0.956217 23.8308 -1.57335Q24.5158 -2.19048 24.5158 -3.24843Q24.5158 -4.30637 23.8308 -4.9235Q23.1459 -5.54064 21.9727 -5.54064Q21.4233 -5.54064 20.8774 -5.41857Q20.3315 -5.2965 19.7618 -5.03879L19.7618 -10.1251Z" fill="#262626" transform="translate(254.00314811458233,533.141001786711) translate(-13.549805641174316,0)" />
<line x1="302.75086257041085" y1="517.6733410777645" x2="301.90414093626947" y2="522.4601420668223" stroke="#262626" stroke-width="1.1111111111111112" />
<path d="M4.41488 -9.22309Q3.35693 -9.22309 2.82457 -8.1821Q2.29221 -7.14111 2.29221 -5.05235Q2.29221 -2.97038 2.82457 -1.92939Q3.35693 -0.888401 4.41488 -0.888401Q5.4796 -0.888401 6.01196 -1.92939Q6.54433 -2.97038 6.54433 -5.05235Q6.54433 -7.14111 6.01196 -8.1821Q5.4796 -9.22309 4.41488 -9.22309ZM4.41488 -10.3082Q6.11708 -10.3082 7.01565 -8.962Q7.91422 -7.61583 7.91423 -5.05235Q7.91423 -2.49566 7.01565 -1.1495Q6.11708 0.196669 4.41488 0.196669Q2.71267 0.196669 1.8141 -1.1495Q0.915527 -2.49566 0.915527 -5.05235Q0.915527 -7.61583 1.8141 -8.962Q2.71267 -10.3082 4.41488 -10.3082ZM10.3217 -1.72255L11.7527 -1.72255L11.7527 0L10.3217 0L10.3217 -1.72255ZM17.6663 -9.22309Q16.6083 -9.22309 16.076 -8.1821Q15.5436 -7.14111 15.5436 -5.05235Q15.5436 -2.97038 16.076 -1.92939Q16.6083 -0.888401 17.6663 -0.888401Q18.731 -0.888401 19.2634 -1.92939Q19.7957 -2.97038 19.7957 -5.05235Q19.7957 -7.14111 19.2634 -8.1821Q18.731 -9.22309 17.6663 -9.22309ZM17.6663 -10.3082Q19.3685 -10.3082 20.2671 -8.962Q21.1656 -7.61583 21.1656 -5.05235Q21.1656 -2.49566 20.2671 -1.1495Q19.3685 0.196669 17.6663 0.196669Q15.9641 0.196669 15.0655 -1.1495Q14.1669 -2.49566 14.1669 -5.05235Q14.1669 -7.61583 15.0655 -8.962Q15.9641 -10.3082 17.6663 -10.3082Z" fill="#262626" transform="translate(298.618860995801,541.0329299043666) translate(-11.043972969055176,0)" />
<line x1="347.7572111926707" y1="525.6343674791725" x2="346.9104895585293" y2="530.4211684682303" stroke="#262626" stroke-width="1.1111111111111112" />
<path d="M4.41488 -9.22309Q3.35693 -9.22309 2.82457 -8.1821Q2.29221 -7.14111 2.29221 -5.05235Q2.29221 -2.97038 2.82457 -1.92939Q3.35693 -0.888401 4.41488 -0.888401Q5.4796 -0.888401 6.01196 -1.92939Q6.54433 -2.97038 6.54433 -5.05235Q6.54433 -7.14111 6.01196 -8.1821Q5.4796 -9.22309 4.41488 -9.22309ZM4.41488 -10.3082Q6.11708 -10.3082 7.01565 -8.962Q7.91422 -7.61583 7.91423 -5.05235Q7.91423 -2.49566 7.01565 -1.1495Q6.11708 0.196669 4.41488 0.196669Q2.71267 0.196669 1.8141 -1.1495Q0.915527 -2.49566 0.915527 -5.05235Q0.915527 -7.61583 1.8141 -8.962Q2.71267 -10.3082 4.41488 -10.3082ZM10.3217 -1.72255L11.7527 -1.72255L11.7527 0L10.3217 0L10.3217 -1.72255ZM14.7502 -10.1251L20.128 -10.1251L20.128 -8.97217L16.0048 -8.97217L16.0048 -6.49007Q16.3032 -6.5918 16.6016 -6.64266Q16.9 -6.69352 17.1984 -6.69352Q18.8938 -6.69352 19.8839 -5.76443Q20.874 -4.83534 20.874 -3.24843Q20.874 -1.61404 19.8568 -0.708686Q18.8395 0.196669 16.9881 0.196669Q16.3506 0.196669 15.6894 0.0881619C15.2486 0.0158239 14.7931 -0.092683 14.3229 -0.237359L14.3229 -1.61404Q14.9333 -1.28174 15.5843 -1.11898Q16.2354 -0.956217 16.961 -0.956217Q18.1342 -0.956217 18.8192 -1.57335Q19.5041 -2.19048 19.5041 -3.24843Q19.5041 -4.30637 18.8192 -4.9235Q18.1342 -5.54064 16.961 -5.54064Q16.4117 -5.54064 15.8658 -5.41857Q15.3198 -5.2965 14.7502 -5.03879L14.7502 -10.1251Z" fill="#262626" transform="translate(343.62520961806086,548.9939563057746) translate(-11.043972969055176,0)" />
<line x1="393.15934846879975" y1="533.6654036462978" x2="392.3126268346584" y2="538.4522046353557" stroke="#262626" stroke-width="1.1111111111111112" />
<path d="M1.72255 -1.15289L3.9605 -1.15289L3.9605 -8.87722L1.52588 -8.38894L1.52588 -9.63677L3.94694 -10.1251L5.31684 -10.1251L5.31684 -1.15289L7.5548 -1.15289L7.5548 0L1.72255 0L1.72255 -1.15289ZM10.3217 -1.72255L11.7527 -1.72255L11.7527 0L10.3217 0L10.3217 -1.72255ZM17.6663 -9.22309Q16.6083 -9.22309 16.076 -8.1821Q15.5436 -7.14111 15.5436 -5.05235Q15.5436 -2.97038 16.076 -1.92939Q16.6083 -0.888401 17.6663 -0.888401Q18.731 -0.888401 19.2634 -1.92939Q19.7957 -2.97038 19.7957 -5.05235Q19.7957 -7.14111 19.2634 -8.1821Q18.731 -9.22309 17.6663 -9.22309ZM17.6663 -10.3082Q19.3685 -10.3082 20.2671 -8.962Q21.1656 -7.61583 21.1656 -5.05235Q21.1656 -2.49566 20.2671 -1.1495Q19.3685 0.196669 17.6663 0.196669Q15.9641 0.196669 15.0655 -1.1495Q14.1669 -2.49566 14.1669 -5.05235Q14.1669 -7.61583 15.0655 -8.962Q15.9641 -10.3082 17.6663 -10.3082Z" fill="#262626" transform="translate(389.0273468941899,557.0249924729) translate(-11.043972969055176,0)" />
<line x1="438.9625183419664" y1="541.7673771631655" x2="438.11579670782504" y2="546.5541781522234" stroke="#262626" stroke-width="1.1111111111111112" />
<path d="M1.72255 -1.15289L3.9605 -1.15289L3.9605 -8.87722L1.52588 -8.38894L1.52588 -9.63677L3.94694 -10.1251L5.31684 -10.1251L5.31684 -1.15289L7.5548 -1.15289L7.5548 0L1.72255 0L1.72255 -1.15289ZM10.3217 -1.72255L11.7527 -1.72255L11.7527 0L10.3217 0L10.3217 -1.72255ZM14.7502 -10.1251L20.128 -10.1251L20.128 -8.97217L16.0048 -8.97217L16.0048 -6.49007Q16.3032 -6.5918 16.6016 -6.64266Q16.9 -6.69352 17.1984 -6.69352Q18.8938 -6.69352 19.8839 -5.76443Q20.874 -4.83534 20.874 -3.24843Q20.874 -1.61404 19.8568 -0.708686Q18.8395 0.196669 16.9881 0.196669Q16.3506 0.196669 15.6894 0.0881619C15.2486 0.0158239 14.7931 -0.092683 14.3229 -0.237359L14.3229 -1.61404Q14.9333 -1.28174 15.5843 -1.11898Q16.2354 -0.956217 16.961 -0.956217Q18.1342 -0.956217 18.8192 -1.57335Q19.5041 -2.19048 19.5041 -3.24843Q19.5041 -4.30637 18.8192 -4.9235Q18.1342 -5.54064 16.961 -5.54064Q16.4117 -5.54064 15.8658 -5.41857Q15.3198 -5.2965 14.7502 -5.03879L14.7502 -10.1251Z" fill="#262626" transform="translate(434.8305167673566,565.1269659897677) translate(-11.043972969055176,0)" />
<line x1="485.1720578047524" y1="549.9412320730082" x2="484.325336170611" y2="554.7280330620661" stroke="#262626" stroke-width="1.1111111111111112" />
<path d="M2.6652 -1.15289L7.44629 -1.15289L7.44629 0L1.01725 0L1.01725 -1.15289Q1.79715 -1.95991 3.14331 -3.31963Q4.48947 -4.67936 4.83534 -5.0727Q5.49316 -5.8119 5.75426 -6.32392Q6.01535 -6.83594 6.01535 -7.331Q6.01535 -8.13802 5.44908 -8.64665Q4.88281 -9.15527 3.97407 -9.15527Q3.32981 -9.15527 2.61434 -8.93148Q1.89887 -8.70768 1.08507 -8.25331L1.08507 -9.63677Q1.91243 -9.96908 2.63129 -10.1386Q3.35015 -10.3082 3.94694 -10.3082Q5.52029 -10.3082 6.45616 -9.52148Q7.39204 -8.73481 7.39204 -7.41916Q7.39204 -6.79525 7.15807 -6.23576Q6.9241 -5.67627 6.30697 -4.91672Q6.13742 -4.72005 5.22868 -3.78079Q4.31993 -2.84153 2.6652 -1.15289ZM10.3217 -1.72255L11.7527 -1.72255L11.7527 0L10.3217 0L10.3217 -1.72255ZM17.6663 -9.22309Q16.6083 -9.22309 16.076 -8.1821Q15.5436 -7.14111 15.5436 -5.05235Q15.5436 -2.97038 16.076 -1.92939Q16.6083 -0.888401 17.6663 -0.888401Q18.731 -0.888401 19.2634 -1.92939Q19.7957 -2.97038 19.7957 -5.05235Q19.7957 -7.14111 19.2634 -8.1821Q18.731 -9.22309 17.6663 -9.22309ZM17.6663 -10.3082Q19.3685 -10.3082 20.2671 -8.962Q21.1656 -7.61583 21.1656 -5.05235Q21.1656 -2.49566 20.2671 -1.1495Q19.3685 0.196669 17.6663 0.196669Q15.9641 0.196669 15.0655 -1.1495Q14.1669 -2.49566 14.1669 -5.05235Q14.1669 -7.61583 15.0655 -8.962Q15.9641 -10.3082 17.6663 -10.3082Z" fill="#262626" transform="translate(481.04005623014257,573.3008208996104) translate(-11.043972969055176,0)" />
<line x1="517.6237987524245" y1="518.4744847055377" x2="521.6608123456514" y2="521.1824216476894" stroke="#262626" stroke-width="1.1111111111111112" />
<path d="M0.678168 -4.36062L4.3335 -4.36062L4.3335 -3.24843L0.678168 -3.24843L0.678168 -4.36062ZM6.73421 -1.15289L8.97217 -1.15289L8.97217 -8.87722L6.53754 -8.38894L6.53754 -9.63677L8.9586 -10.1251L10.3285 -10.1251L10.3285 -1.15289L12.5665 -1.15289L12.5665 0L6.73421 0L6.73421 -1.15289ZM15.3334 -1.72255L16.7643 -1.72255L16.7643 0L15.3334 0L15.3334 -1.72255ZM19.7618 -10.1251L25.1397 -10.1251L25.1397 -8.97217L21.0164 -8.97217L21.0164 -6.49007Q21.3148 -6.5918 21.6132 -6.64266Q21.9116 -6.69352 22.21 -6.69352Q23.9054 -6.69352 24.8956 -5.76443Q25.8857 -4.83534 25.8857 -3.24843Q25.8857 -1.61404 24.8684 -0.708686Q23.8512 0.196669 21.9998 0.196669Q21.3623 0.196669 20.7011 0.0881619C20.2603 0.0158239 19.8048 -0.092683 19.3346 -0.237359L19.3346 -1.61404Q19.9449 -1.28174 20.596 -1.11898Q21.247 -0.956217 21.9727 -0.956217Q23.1459 -0.956217 23.8308 -1.57335Q24.5158 -2.19048 24.5158 -3.24843Q24.5158 -4.30637 23.8308 -4.9235Q23.1459 -5.54064 21.9727 -5.54064Q21.4233 -5.54064 20.8774 -5.41857Q20.3315 -5.2965 19.7618 -5.03879L19.7618 -10.1251Z" fill="#262626" transform="translate(537.3244250873717,531.6892169832375) translate(-13.549805641174316,0)" />
<line x1="531.5518031256263" y1="497.7105067465592" x2="535.5888167188532" y2="500.4184436887108" stroke="#262626" stroke-width="1.1111111111111112" />
<path d="M0.678168 -4.36062L4.3335 -4.36062L4.3335 -3.24843L0.678168 -3.24843L0.678168 -4.36062ZM6.73421 -1.15289L8.97217 -1.15289L8.97217 -8.87722L6.53754 -8.38894L6.53754 -9.63677L8.9586 -10.1251L10.3285 -10.1251L10.3285 -1.15289L12.5665 -1.15289L12.5665 0L6.73421 0L6.73421 -1.15289ZM15.3334 -1.72255L16.7643 -1.72255L16.7643 0L15.3334 0L15.3334 -1.72255ZM22.678 -9.22309Q21.62 -9.22309 21.0876 -8.1821Q20.5553 -7.14111 20.5553 -5.05235Q20.5553 -2.97038 21.0876 -1.92939Q21.62 -0.888401 22.678 -0.888401Q23.7427 -0.888401 24.275 -1.92939Q24.8074 -2.97038 24.8074 -5.05235Q24.8074 -7.14111 24.275 -8.1821Q23.7427 -9.22309 22.678 -9.22309ZM22.678 -10.3082Q24.3802 -10.3082 25.2787 -8.962Q26.1773 -7.61583 26.1773 -5.05235Q26.1773 -2.49566 25.2787 -1.1495Q24.3802 0.196669 22.678 0.196669Q20.9757 0.196669 20.0772 -1.1495Q19.1786 -2.49566 19.1786 -5.05235Q19.1786 -7.61583 20.0772 -8.962Q20.9757 -10.3082 22.678 -10.3082Z" fill="#262626" transform="translate(551.2524294605735,510.92523902425893) translate(-13.549805641174316,0)" />
<line x1="545.1654711095916" y1="477.415143937528" x2="549.2024847028185" y2="480.1230808796796" stroke="#262626" stroke-width="1.1111111111111112" />
<path d="M0.678168 -4.36062L4.3335 -4.36062L4.3335 -3.24843L0.678168 -3.24843L0.678168 -4.36062ZM9.42654 -9.22309Q8.3686 -9.22309 7.83624 -8.1821Q7.30387 -7.14111 7.30387 -5.05235Q7.30387 -2.97038 7.83624 -1.92939Q8.3686 -0.888401 9.42654 -0.888401Q10.4913 -0.888401 11.0236 -1.92939Q11.556 -2.97038 11.556 -5.05235Q11.556 -7.14111 11.0236 -8.1821Q10.4913 -9.22309 9.42654 -9.22309ZM9.42654 -10.3082Q11.1287 -10.3082 12.0273 -8.962Q12.9259 -7.61583 12.9259 -5.05235Q12.9259 -2.49566 12.0273 -1.1495Q11.1287 0.196669 9.42654 0.196669Q7.72434 0.196669 6.82577 -1.1495Q5.92719 -2.49566 5.92719 -5.05235Q5.92719 -7.61583 6.82577 -8.962Q7.72434 -10.3082 9.42654 -10.3082ZM15.3334 -1.72255L16.7643 -1.72255L16.7643 0L15.3334 0L15.3334 -1.72255ZM19.7618 -10.1251L25.1397 -10.1251L25.1397 -8.97217L21.0164 -8.97217L21.0164 -6.49007Q21.3148 -6.5918 21.6132 -6.64266Q21.9116 -6.69352 22.21 -6.69352Q23.9054 -6.69352 24.8956 -5.76443Q25.8857 -4.83534 25.8857 -3.24843Q25.8857 -1.61404 24.8684 -0.708686Q23.8512 0.196669 21.9998 0.196669Q21.3623 0.196669 20.7011 0.0881619C20.2603 0.0158239 19.8048 -0.092683 19.3346 -0.237359L19.3346 -1.61404Q19.9449 -1.28174 20.596 -1.11898Q21.247 -0.956217 21.9727 -0.956217Q23.1459 -0.956217 23.8308 -1.57335Q24.5158 -2.19048 24.5158 -3.24843Q24.5158 -4.30637 23.8308 -4.9235Q23.1459 -5.54064 21.9727 -5.54064Q21.4233 -5.54064 20.8774 -5.41857Q20.3315 -5.2965 19.7618 -5.03879L19.7618 -10.1251Z" fill="#262626" transform="translate(564.8660974445388,490.62987621522774) translate(-13.549805641174316,0)" />
<line x1="558.4753251915446" y1="457.5727092721115" x2="562.5123387847715" y2="460.28064621426313" stroke="#262626" stroke-width="1.1111111111111112" />
<path d="M4.41488 -9.22309Q3.35693 -9.22309 2.82457 -8.1821Q2.29221 -7.14111 2.29221 -5.05235Q2.29221 -2.97038 2.82457 -1.92939Q3.35693 -0.888401 4.41488 -0.888401Q5.4796 -0.888401 6.01196 -1.92939Q6.54433 -2.97038 6.54433 -5.05235Q6.54433 -7.14111 6.01196 -8.1821Q5.4796 -9.22309 4.41488 -9.22309ZM4.41488 -10.3082Q6.11708 -10.3082 7.01565 -8.962Q7.91422 -7.61583 7.91423 -5.05235Q7.91423 -2.49566 7.01565 -1.1495Q6.11708 0.196669 4.41488 0.196669Q2.71267 0.196669 1.8141 -1.1495Q0.915527 -2.49566 0.915527 -5.05235Q0.915527 -7.61583 1.8141 -8.962Q2.71267 -10.3082 4.41488 -10.3082ZM10.3217 -1.72255L11.7527 -1.72255L11.7527 0L10.3217 0L10.3217 -1.72255ZM17.6663 -9.22309Q16.6083 -9.22309 16.076 -8.1821Q15.5436 -7.14111 15.5436 -5.05235Q15.5436 -2.97038 16.076 -1.92939Q16.6083 -0.888401 17.6663 -0.888401Q18.731 -0.888401 19.2634 -1.92939Q19.7957 -2.97038 19.7957 -5.05235Q19.7957 -7.14111 19.2634 -8.1821Q18.731 -9.22309 17.6663 -9.22309ZM17.6663 -10.3082Q19.3685 -10.3082 20.2671 -8.962Q21.1656 -7.61583 21.1656 -5.05235Q21.1656 -2.49566 20.2671 -1.1495Q19.3685 0.196669 17.6663 0.196669Q15.9641 0.196669 15.0655 -1.1495Q14.1669 -2.49566 14.1669 -5.05235Q14.1669 -7.61583 15.0655 -8.962Q15.9641 -10.3082 17.6663 -10.3082Z" fill="#262626" transform="translate(578.1759515264918,470.78744154981126) translate(-11.043972969055176,0)" />
<line x1="571.491423384408" y1="438.1682081859028" x2="575.5284369776349" y2="440.8761451280544" stroke="#262626" stroke-width="1.1111111111111112" />
<path d="M4.41488 -9.22309Q3.35693 -9.22309 2.82457 -8.1821Q2.29221 -7.14111 2.29221 -5.05235Q2.29221 -2.97038 2.82457 -1.92939Q3.35693 -0.888401 4.41488 -0.888401Q5.4796 -0.888401 6.01196 -1.92939Q6.54433 -2.97038 6.54433 -5.05235Q6.54433 -7.14111 6.01196 -8.1821Q5.4796 -9.22309 4.41488 -9.22309ZM4.41488 -10.3082Q6.11708 -10.3082 7.01565 -8.962Q7.91422 -7.61583 7.91423 -5.05235Q7.91423 -2.49566 7.01565 -1.1495Q6.11708 0.196669 4.41488 0.196669Q2.71267 0.196669 1.8141 -1.1495Q0.915527 -2.49566 0.915527 -5.05235Q0.915527 -7.61583 1.8141 -8.962Q2.71267 -10.3082 4.41488 -10.3082ZM10.3217 -1.72255L11.7527 -1.72255L11.7527 0L10.3217 0L10.3217 -1.72255ZM14.7502 -10.1251L20.128 -10.1251L20.128 -8.97217L16.0048 -8.97217L16.0048 -6.49007Q16.3032 -6.5918 16.6016 -6.64266Q16.9 -6.69352 17.1984 -6.69352Q18.8938 -6.69352 19.8839 -5.76443Q20.874 -4.83534 20.874 -3.24843Q20.874 -1.61404 19.8568 -0.708686Q18.8395 0.196669 16.9881 0.196669Q16.3506 0.196669 15.6894 0.0881619C15.2486 0.0158239 14.7931 -0.092683 14.3229 -0.237359L14.3229 -1.61404Q14.9333 -1.28174 15.5843 -1.11898Q16.2354 -0.956217 16.961 -0.956217Q18.1342 -0.956217 18.8192 -1.57335Q19.5041 -2.19048 19.5041 -3.24843Q19.5041 -4.30637 18.8192 -4.9235Q18.1342 -5.54064 16.961 -5.54064Q16.4117 -5.54064 15.8658 -5.41857Q15.3198 -5.2965 14.7502 -5.03879L14.7502 -10.1251Z" fill="#262626" transform="translate(591.1920497193552,451.38294046360255) translate(-11.043972969055176,0)" />
<line x1="584.2233845750934" y1="419.1873007669898" x2="588.2603981683203" y2="421.8952377091414" stroke="#262626" stroke-width="1.1111111111111112" />
<path d="M1.72255 -1.15289L3.9605 -1.15289L3.9605 -8.87722L1.52588 -8.38894L1.52588 -9.63677L3.94694 -10.1251L5.31684 -10.1251L5.31684 -1.15289L7.5548 -1.15289L7.5548 0L1.72255 0L1.72255 -1.15289ZM10.3217 -1.72255L11.7527 -1.72255L11.7527 0L10.3217 0L10.3217 -1.72255ZM17.6663 -9.22309Q16.6083 -9.22309 16.076 -8.1821Q15.5436 -7.14111 15.5436 -5.05235Q15.5436 -2.97038 16.076 -1.92939Q16.6083 -0.888401 17.6663 -0.888401Q18.731 -0.888401 19.2634 -1.92939Q19.7957 -2.97038 19.7957 -5.05235Q19.7957 -7.14111 19.2634 -8.1821Q18.731 -9.22309 17.6663 -9.22309ZM17.6663 -10.3082Q19.3685 -10.3082 20.2671 -8.962Q21.1656 -7.61583 21.1656 -5.05235Q21.1656 -2.49566 20.2671 -1.1495Q19.3685 0.196669 17.6663 0.196669Q15.9641 0.196669 15.0655 -1.1495Q14.1669 -2.49566 14.1669 -5.05235Q14.1669 -7.61583 15.0655 -8.962Q15.9641 -10.3082 17.6663 -10.3082Z" fill="#262626" transform="translate(603.9240109100406,432.4020330446895) translate(-11.043972969055176,0)" />
<line x1="596.6804122306813" y1="400.61626641459645" x2="600.7174258239082" y2="403.32420335674806" stroke="#262626" stroke-width="1.1111111111111112" />
<path d="M1.72255 -1.15289L3.9605 -1.15289L3.9605 -8.87722L1.52588 -8.38894L1.52588 -9.63677L3.94694 -10.1251L5.31684 -10.1251L5.31684 -1.15289L7.5548 -1.15289L7.5548 0L1.72255 0L1.72255 -1.15289ZM10.3217 -1.72255L11.7527 -1.72255L11.7527 0L10.3217 0L10.3217 -1.72255ZM14.7502 -10.1251L20.128 -10.1251L20.128 -8.97217L16.0048 -8.97217L16.0048 -6.49007Q16.3032 -6.5918 16.6016 -6.64266Q16.9 -6.69352 17.1984 -6.69352Q18.8938 -6.69352 19.8839 -5.76443Q20.874 -4.83534 20.874 -3.24843Q20.874 -1.61404 19.8568 -0.708686Q18.8395 0.196669 16.9881 0.196669Q16.3506 0.196669 15.6894 0.0881619C15.2486 0.0158239 14.7931 -0.092683 14.3229 -0.237359L14.3229 -1.61404Q14.9333 -1.28174 15.5843 -1.11898Q16.2354 -0.956217 16.961 -0.956217Q18.1342 -0.956217 18.8192 -1.57335Q19.5041 -2.19048 19.5041 -3.24843Q19.5041 -4.30637 18.8192 -4.9235Q18.1342 -5.54064 16.961 -5.54064Q16.4117 -5.54064 15.8658 -5.41857Q15.3198 -5.2965 14.7502 -5.03879L14.7502 -10.1251Z" fill="#262626" transform="translate(616.3810385656285,413.8309986922962) translate(-11.043972969055176,0)" />
<line x1="608.8713165852748" y1="382.44197076274895" x2="612.9083301785017" y2="385.14990770490056" stroke="#262626" stroke-width="1.1111111111111112" />
<path d="M2.6652 -1.15289L7.44629 -1.15289L7.44629 0L1.01725 0L1.01725 -1.15289Q1.79715 -1.95991 3.14331 -3.31963Q4.48947 -4.67936 4.83534 -5.0727Q5.49316 -5.8119 5.75426 -6.32392Q6.01535 -6.83594 6.01535 -7.331Q6.01535 -8.13802 5.44908 -8.64665Q4.88281 -9.15527 3.97407 -9.15527Q3.32981 -9.15527 2.61434 -8.93148Q1.89887 -8.70768 1.08507 -8.25331L1.08507 -9.63677Q1.91243 -9.96908 2.63129 -10.1386Q3.35015 -10.3082 3.94694 -10.3082Q5.52029 -10.3082 6.45616 -9.52148Q7.39204 -8.73481 7.39204 -7.41916Q7.39204 -6.79525 7.15807 -6.23576Q6.9241 -5.67627 6.30697 -4.91672Q6.13742 -4.72005 5.22868 -3.78079Q4.31993 -2.84153 2.6652 -1.15289ZM10.3217 -1.72255L11.7527 -1.72255L11.7527 0L10.3217 0L10.3217 -1.72255ZM17.6663 -9.22309Q16.6083 -9.22309 16.076 -8.1821Q15.5436 -7.14111 15.5436 -5.05235Q15.5436 -2.97038 16.076 -1.92939Q16.6083 -0.888401 17.6663 -0.888401Q18.731 -0.888401 19.2634 -1.92939Q19.7957 -2.97038 19.7957 -5.05235Q19.7957 -7.14111 19.2634 -8.1821Q18.731 -9.22309 17.6663 -9.22309ZM17.6663 -10.3082Q19.3685 -10.3082 20.2671 -8.962Q21.1656 -7.61583 21.1656 -5.05235Q21.1656 -2.49566 20.2671 -1.1495Q19.3685 0.196669 17.6663 0.196669Q15.9641 0.196669 15.0655 -1.1495Q14.1669 -2.49566 14.1669 -5.05235Q14.1669 -7.61583 15.0655 -8.962Q15.9641 -10.3082 17.6663 -10.3082Z" fill="#262626" transform="translate(628.571942920222,395.6567030404487) translate(-11.043972969055176,0)" />
<line x1="616.2978726691686" y1="340.2932455277162" x2="621.1561380807901" y2="340.45955375003" stroke="#262626" stroke-width="1.1111111111111112" />
<path d="M1.72255 -1.15289L3.9605 -1.15289L3.9605 -8.87722L1.52588 -8.38894L1.52588 -9.63677L3.94694 -10.1251L5.31684 -10.1251L5.31684 -1.15289L7.5548 -1.15289L7.5548 0L1.72255 0L1.72255 -1.15289Z" fill="#262626" transform="translate(640.0062078778819,341.10482965260775) translate(-4.418267250061035,0)" />
<line x1="617.3861563346214" y1="308.5018475057676" x2="622.244421746243" y2="308.66815572808144" stroke="#262626" stroke-width="1.1111111111111112" />
<path d="M2.6652 -1.15289L7.44629 -1.15289L7.44629 0L1.01725 0L1.01725 -1.15289Q1.79715 -1.95991 3.14331 -3.31963Q4.48947 -4.67936 4.83534 -5.0727Q5.49316 -5.8119 5.75426 -6.32392Q6.01535 -6.83594 6.01535 -7.331Q6.01535 -8.13802 5.44908 -8.64665Q4.88281 -9.15527 3.97407 -9.15527Q3.32981 -9.15527 2.61434 -8.93148Q1.89887 -8.70768 1.08507 -8.25331L1.08507 -9.63677Q1.91243 -9.96908 2.63129 -10.1386Q3.35015 -10.3082 3.94694 -10.3082Q5.52029 -10.3082 6.45616 -9.52148Q7.39204 -8.73481 7.39204 -7.41916Q7.39204 -6.79525 7.15807 -6.23576Q6.9241 -5.67627 6.30697 -4.91672Q6.13742 -4.72005 5.22868 -3.78079Q4.31993 -2.84153 2.6652 -1.15289Z" fill="#262626" transform="translate(641.0944915433348,309.3134316306592) translate(-4.418267250061035,0)" />
<line x1="618.4840017248941" y1="276.43112837556623" x2="623.3422671365157" y2="276.59743659788006" stroke="#262626" stroke-width="1.1111111111111112" />
<path d="M5.63558 -5.45926Q6.61892 -5.24902 7.17163 -4.58442Q7.72434 -3.91981 7.72434 -2.94325Q7.72434 -1.4445 6.69352 -0.623915Q5.66271 0.196669 3.76383 0.196669Q3.12636 0.196669 2.45158 0.0712077Q1.7768 -0.0542535 1.05794 -0.305176L1.05794 -1.6276Q1.6276 -1.2953 2.30577 -1.12576Q2.98394 -0.956217 3.72314 -0.956217Q5.01166 -0.956217 5.68644 -1.46484Q6.36122 -1.97347 6.36122 -2.94325Q6.36122 -3.83843 5.73391 -4.34367Q5.10661 -4.8489 3.98763 -4.8489L2.80762 -4.8489L2.80762 -5.97466L4.04188 -5.97466Q5.05235 -5.97466 5.58811 -6.37817Q6.12386 -6.78168 6.12386 -7.54123Q6.12386 -8.32113 5.57115 -8.7382Q5.01845 -9.15527 3.98763 -9.15527Q3.42475 -9.15527 2.78049 -9.0332Q2.13623 -8.91113 1.36312 -8.65343L1.36312 -9.87413Q2.14301 -10.0911 2.82457 -10.1997Q3.50613 -10.3082 4.1097 -10.3082Q5.66949 -10.3082 6.57823 -9.59947Q7.48698 -8.89079 7.48698 -7.68365Q7.48698 -6.84272 7.00548 -6.26289Q6.52398 -5.68305 5.63558 -5.45926Z" fill="#262626" transform="translate(642.1923369336075,277.2427125004578) translate(-4.418267250061035,0)" />
<line x1="619.5915354108383" y1="244.07739069641417" x2="624.4498008224599" y2="244.24369891872803" stroke="#262626" stroke-width="1.1111111111111112" />
<path d="M5.24902 -8.93148L1.79036 -3.52648L5.24902 -3.52648L5.24902 -8.93148ZM4.88959 -10.1251L6.61214 -10.1251L6.61214 -3.52648L8.05664 -3.52648L8.05664 -2.38715L6.61214 -2.38715L6.61214 0L5.24902 0L5.24902 -2.38715L0.678168 -2.38715L0.678168 -3.70958L4.88959 -10.1251Z" fill="#262626" transform="translate(643.2998706195517,244.88897482130577) translate(-4.418267250061035,0)" />
<line x1="620.7088862071378" y1="211.4368714798404" x2="625.5671516187593" y2="211.60317970215425" stroke="#262626" stroke-width="1.1111111111111112" />
<path d="M1.49875 -10.1251L6.87663 -10.1251L6.87663 -8.97217L2.75336 -8.97217L2.75336 -6.49007Q3.05176 -6.5918 3.35015 -6.64266Q3.64855 -6.69352 3.94694 -6.69352Q5.64236 -6.69352 6.63249 -5.76443Q7.62261 -4.83534 7.62261 -3.24843Q7.62261 -1.61404 6.60536 -0.708686Q5.58811 0.196669 3.73671 0.196669Q3.09923 0.196669 2.43802 0.0881619C1.99721 0.0158239 1.5417 -0.092683 1.07151 -0.237359L1.07151 -1.61404Q1.68186 -1.28174 2.3329 -1.11898Q2.98394 -0.956217 3.70958 -0.956217Q4.88281 -0.956217 5.56776 -1.57335Q6.25271 -2.19048 6.25271 -3.24843Q6.25271 -4.30637 5.56776 -4.9235Q4.88281 -5.54064 3.70958 -5.54064Q3.16026 -5.54064 2.61434 -5.41857Q2.06841 -5.2965 1.49875 -5.03879L1.49875 -10.1251Z" fill="#262626" transform="translate(644.4172214158511,212.248455604732) translate(-4.418267250061035,0)" />
<line x1="621.8361852222532" y1="178.50574073060596" x2="626.6944506338748" y2="178.67204895291982" stroke="#262626" stroke-width="1.1111111111111112" />
<path d="M4.58442 -5.60845Q3.66211 -5.60845 3.12297 -4.97776Q2.58382 -4.34706 2.58382 -3.24843Q2.58382 -2.15658 3.12297 -1.52249Q3.66211 -0.888401 4.58442 -0.888401Q5.50673 -0.888401 6.04587 -1.52249Q6.58502 -2.15658 6.58502 -3.24843Q6.58502 -4.34706 6.04587 -4.97776Q5.50673 -5.60845 4.58442 -5.60845ZM7.30387 -9.90126L7.30387 -8.65343Q6.78847 -8.89757 6.26289 -9.02642Q5.7373 -9.15527 5.2219 -9.15527Q3.86556 -9.15527 3.15009 -8.23975Q2.43462 -7.32422 2.3329 -5.47282Q2.73302 -6.06282 3.33659 -6.37817Q3.94016 -6.69352 4.6658 -6.69352Q6.19168 -6.69352 7.07669 -5.76782Q7.9617 -4.84212 7.9617 -3.24843Q7.9617 -1.68864 7.03939 -0.745985Q6.11708 0.196669 4.58442 0.196669Q2.82796 0.196669 1.89887 -1.1495Q0.969781 -2.49566 0.969781 -5.05235Q0.969781 -7.45307 2.1091 -8.88062Q3.24843 -10.3082 5.16764 -10.3082Q5.68305 -10.3082 6.20863 -10.2064Q6.73421 -10.1047 7.30387 -9.90126Z" fill="#262626" transform="translate(645.5445204309666,179.31732485549756) translate(-4.418267250061035,0)" />
<line x1="622.9735659097063" y1="145.2800999485652" x2="627.8318313213279" y2="145.44640817087907" stroke="#262626" stroke-width="1.1111111111111112" />
<path d="M1.13932 -10.1251L7.64974 -10.1251L7.64974 -9.54183L3.97407 0L2.54313 0L6.00179 -8.97217L1.13932 -8.97217L1.13932 -10.1251Z" fill="#262626" transform="translate(646.6819011184197,146.0916840734568) translate(-4.418267250061035,0)" />
<line x1="624.1211641207465" y1="111.75598059015127" x2="628.979429532368" y2="111.92228881246511" stroke="#262626" stroke-width="1.1111111111111112" />
<path d="M4.41488 -4.80821Q3.43831 -4.80821 2.87882 -4.28602Q2.31934 -3.76383 2.31934 -2.84831Q2.31934 -1.93278 2.87882 -1.41059Q3.43831 -0.888401 4.41488 -0.888401Q5.39144 -0.888401 5.95432 -1.41398Q6.5172 -1.93956 6.5172 -2.84831Q6.5172 -3.76383 5.95771 -4.28602Q5.39822 -4.80821 4.41488 -4.80821ZM3.04498 -5.39144Q2.16336 -5.60845 1.67169 -6.21202Q1.18001 -6.81559 1.18001 -7.68365Q1.18001 -8.89757 2.04468 -9.60287Q2.90934 -10.3082 4.41488 -10.3082Q5.92719 -10.3082 6.78847 -9.60287Q7.64974 -8.89757 7.64974 -7.68365Q7.64974 -6.81559 7.15807 -6.21202Q6.6664 -5.60845 5.79156 -5.39144Q6.78168 -5.16086 7.33439 -4.48947Q7.8871 -3.81809 7.8871 -2.84831Q7.8871 -1.37668 6.98853 -0.590007Q6.08995 0.196669 4.41488 0.196669Q2.7398 0.196669 1.84123 -0.590007Q0.942654 -1.37668 0.942654 -2.84831Q0.942654 -3.81809 1.49875 -4.48947Q2.05485 -5.16086 3.04498 -5.39144ZM2.54313 -7.5548Q2.54313 -6.76812 3.0348 -6.32731Q3.52648 -5.8865 4.41488 -5.8865Q5.29649 -5.8865 5.79495 -6.32731Q6.2934 -6.76812 6.2934 -7.5548Q6.2934 -8.34147 5.79495 -8.78228Q5.2965 -9.22309 4.41488 -9.22309Q3.52648 -9.22309 3.0348 -8.78228Q2.54313 -8.34147 2.54313 -7.5548Z" fill="#262626" transform="translate(647.8294993294598,112.56756471504285) translate(-4.418267250061035,0)" />
</svg>
