<svg xmlns="http://www.w3.org/2000/svg" viewBox="0 0 700 550" width="700" height="550" role="img" aria-labelledby="chart-title">
<title id="chart-title">3D Bar Chart — Interactive rotation</title>
<rect x="0" y="0" width="700" height="550" fill="#FFFFFF" />
<path d="M8.33301 -7.03152Q9.65196 -6.69086 10.3376 -5.84795Q11.0233 -5.00504 11.0233 -3.70356Q11.0233 -1.76443 9.53841 -0.755561Q8.05349 0.253309 5.20595 0.253309Q4.20144 0.253309 3.19257 0.0917155Q2.1837 -0.0698785 1.19667 -0.393066L1.19667 -2.9873Q2.14003 -2.51563 3.07029 -2.27542Q4.00054 -2.03521 4.90023 -2.03521Q6.23665 -2.03521 6.94854 -2.49816Q7.66043 -2.9611 7.66043 -3.82585Q7.66043 -4.7168 6.93107 -5.17537Q6.20171 -5.63395 4.77794 -5.63395L3.43278 -5.63395L3.43278 -7.80018L4.84782 -7.80018Q6.11437 -7.80018 6.73454 -8.19762Q7.35471 -8.59505 7.35471 -9.40739Q7.35471 -10.1586 6.75201 -10.5691Q6.14931 -10.9797 5.04872 -10.9797Q4.23638 -10.9797 3.40658 -10.7962Q2.57677 -10.6128 1.7557 -10.2547L1.7557 -12.7179Q2.75146 -12.9974 3.72976 -13.1372Q4.70806 -13.2769 5.65142 -13.2769Q8.19325 -13.2769 9.45543 -12.4427Q10.7176 -11.6086 10.7176 -9.93148Q10.7176 -8.78722 10.1149 -8.05786Q9.51221 -7.32851 8.33301 -7.03152ZM17.4521 -10.4992L17.4521 -2.54183L18.6576 -2.54183Q20.719 -2.54183 21.8065 -3.5638Q22.8939 -4.58577 22.8939 -6.53364Q22.8939 -8.47276 21.8108 -9.486Q20.7277 -10.4992 18.6576 -10.4992L17.4521 -10.4992ZM14.0892 -13.0411L17.6356 -13.0411Q20.6054 -13.0411 22.0598 -12.6174Q23.5141 -12.1938 24.5535 -11.1806Q25.4707 -10.2983 25.9162 -9.14535Q26.3617 -7.99235 26.3617 -6.53364Q26.3617 -5.05745 25.9162 -3.90009Q25.4707 -2.74273 24.5535 -1.86051Q23.5054 -0.847276 22.0379 -0.423638Q20.5705 0 17.6356 0L14.0892 0L14.0892 -13.0411ZM40.3898 -7.99235Q41.1846 -7.99235 41.5952 -8.34174Q42.0057 -8.69113 42.0057 -9.37245Q42.0057 -10.045 41.5952 -10.3988Q41.1846 -10.7526 40.3898 -10.7526L38.5292 -10.7526L38.5292 -7.99235L40.3898 -7.99235ZM40.5033 -2.28852Q41.5165 -2.28852 42.0275 -2.71653Q42.5385 -3.14453 42.5385 -4.00928Q42.5385 -4.85655 42.0319 -5.28019Q41.5253 -5.70383 40.5033 -5.70383L38.5292 -5.70383L38.5292 -2.28852L40.5033 -2.28852ZM43.6304 -6.97911Q44.7135 -6.66466 45.3075 -5.81738Q45.9014 -4.97011 45.9014 -3.7385Q45.9014 -1.85178 44.6261 -0.92589Q43.3509 0 40.7479 0L35.1663 0L35.1663 -13.0411L40.2151 -13.0411Q42.9316 -13.0411 44.1501 -12.22Q45.3686 -11.3989 45.3686 -9.59082Q45.3686 -8.63873 44.9231 -7.97051Q44.4777 -7.3023 43.6304 -6.97911ZM53.0465 -4.40234Q52.0682 -4.40234 51.5747 -4.07042Q51.0812 -3.7385 51.0812 -3.09212Q51.0812 -2.49816 51.4786 -2.16187Q51.876 -1.82558 52.5836 -1.82558Q53.4658 -1.82558 54.0685 -2.45885Q54.6712 -3.09212 54.6712 -4.04422L54.6712 -4.40234L53.0465 -4.40234ZM57.8244 -5.58154L57.8244 0L54.6712 0L54.6712 -1.44998Q54.0423 -0.559028 53.2561 -0.152859Q52.47 0.253309 51.3432 0.253309Q49.8234 0.253309 48.8756 -0.633274Q47.9279 -1.51986 47.9279 -2.9349Q47.9279 -4.65565 49.1115 -5.45926Q50.295 -6.26286 52.8281 -6.26286L54.6712 -6.26286L54.6712 -6.50743Q54.6712 -7.24989 54.0859 -7.59492Q53.5007 -7.93994 52.2604 -7.93994Q51.2559 -7.93994 50.3911 -7.73904Q49.5264 -7.53814 48.7839 -7.13634L48.7839 -9.52094Q49.7884 -9.76552 50.8017 -9.89217Q51.8149 -10.0188 52.8281 -10.0188Q55.4748 -10.0188 56.6496 -8.97502Q57.8244 -7.93121 57.8244 -5.58154ZM68.0005 -7.11887Q67.59 -7.31103 67.1838 -7.40275Q66.7776 -7.49447 66.3671 -7.49447Q65.1617 -7.49447 64.5109 -6.72144Q63.8602 -5.94841 63.8602 -4.50716L63.8602 0L60.7331 0L60.7331 -9.78299L63.8602 -9.78299L63.8602 -8.17578Q64.4629 -9.13661 65.2447 -9.57772Q66.0264 -10.0188 67.1183 -10.0188Q67.2755 -10.0188 67.4589 -10.0057Q67.6424 -9.99262 67.9918 -9.94895L68.0005 -7.11887ZM86.265 -0.716254Q85.3391 -0.23584 84.3346 0.00873481Q83.3301 0.253309 82.2382 0.253309Q78.9801 0.253309 77.076 -1.5679Q75.1718 -3.38911 75.1718 -6.50743Q75.1718 -9.63449 77.076 -11.4557Q78.9801 -13.2769 82.2382 -13.2769Q83.3301 -13.2769 84.3346 -13.0323Q85.3391 -12.7878 86.265 -12.3073L86.265 -9.60829Q85.3304 -10.2459 84.4219 -10.5429Q83.5135 -10.8399 82.509 -10.8399Q80.7096 -10.8399 79.6789 -9.6869Q78.6482 -8.53391 78.6482 -6.50743Q78.6482 -4.48969 79.6789 -3.3367Q80.7096 -2.1837 82.509 -2.1837Q83.5135 -2.1837 84.4219 -2.48069Q85.3304 -2.77767 86.265 -3.41531L86.265 -0.716254ZM98.747 -5.95714L98.747 0L95.6025 0L95.6025 -0.969564L95.6025 -4.5421Q95.6025 -5.82612 95.5457 -6.30653Q95.4889 -6.78695 95.3492 -7.01405Q95.1657 -7.31977 94.8513 -7.4901Q94.5368 -7.66043 94.135 -7.66043Q93.1567 -7.66043 92.5977 -6.90487Q92.0387 -6.14931 92.0387 -4.81288L92.0387 0L88.9116 0L88.9116 -13.5914L92.0387 -13.5914L92.0387 -8.35048Q92.7462 -9.20649 93.5411 -9.61266Q94.3359 -10.0188 95.2968 -10.0188Q96.9913 -10.0188 97.8692 -8.97938Q98.747 -7.93994 98.747 -5.95714ZM106.032 -4.40234Q105.054 -4.40234 104.56 -4.07042Q104.067 -3.7385 104.067 -3.09212Q104.067 -2.49816 104.464 -2.16187Q104.861 -1.82558 105.569 -1.82558Q106.451 -1.82558 107.054 -2.45885Q107.657 -3.09212 107.657 -4.04422L107.657 -4.40234L106.032 -4.40234ZM110.81 -5.58154L110.81 0L107.657 0L107.657 -1.44998Q107.028 -0.559028 106.241 -0.152859Q105.455 0.253309 104.329 0.253309Q102.809 0.253309 101.861 -0.633274Q100.913 -1.51986 100.913 -2.9349Q100.913 -4.65565 102.097 -5.45926Q103.28 -6.26286 105.813 -6.26286L107.657 -6.26286L107.657 -6.50743Q107.657 -7.24989 107.071 -7.59492Q106.486 -7.93994 105.246 -7.93994Q104.241 -7.93994 103.376 -7.73904Q102.512 -7.53814 101.769 -7.13634L101.769 -9.52094Q102.774 -9.76552 103.787 -9.89217Q104.8 -10.0188 105.813 -10.0188Q108.46 -10.0188 109.635 -8.97502Q110.81 -7.93121 110.81 -5.58154ZM120.986 -7.11887Q120.575 -7.31103 120.169 -7.40275Q119.763 -7.49447 119.352 -7.49447Q118.147 -7.49447 117.496 -6.72144Q116.846 -5.94841 116.846 -4.50716L116.846 0L113.718 0L113.718 -9.78299L116.846 -9.78299L116.846 -8.17578Q117.448 -9.13661 118.23 -9.57772Q119.012 -10.0188 120.104 -10.0188Q120.261 -10.0188 120.444 -10.0057Q120.628 -9.99262 120.977 -9.94895L120.986 -7.11887ZM125.956 -12.5607L125.956 -9.78299L129.179 -9.78299L129.179 -7.54688L125.956 -7.54688L125.956 -3.39784Q125.956 -2.71653 126.227 -2.47632Q126.498 -2.23611 127.301 -2.23611L128.908 -2.23611L128.908 0L126.227 0Q124.375 0 123.602 -0.773031Q122.829 -1.54606 122.829 -3.39784L122.829 -7.54688L121.274 -7.54688L121.274 -9.78299L122.829 -9.78299L122.829 -12.5607L125.956 -12.5607ZM136.778 -6.02702L152.746 -6.02702L152.746 -3.77344L136.778 -3.77344L136.778 -6.02702ZM161.577 -13.0411L164.939 -13.0411L164.939 0L161.577 0L161.577 -13.0411ZM177.928 -5.95714L177.928 0L174.784 0L174.784 -0.969564L174.784 -4.55957Q174.784 -5.82612 174.727 -6.30653Q174.67 -6.78695 174.53 -7.01405Q174.347 -7.31977 174.032 -7.4901Q173.718 -7.66043 173.316 -7.66043Q172.338 -7.66043 171.779 -6.90487Q171.22 -6.14931 171.22 -4.81288L171.22 0L168.093 0L168.093 -9.78299L171.22 -9.78299L171.22 -8.35048Q171.927 -9.20649 172.722 -9.61266Q173.517 -10.0188 174.478 -10.0188Q176.172 -10.0188 177.05 -8.97938Q177.928 -7.93994 177.928 -5.95714ZM184.243 -12.5607L184.243 -9.78299L187.466 -9.78299L187.466 -7.54688L184.243 -7.54688L184.243 -3.39784Q184.243 -2.71653 184.514 -2.47632Q184.785 -2.23611 185.589 -2.23611L187.196 -2.23611L187.196 0L184.514 0Q182.662 0 181.889 -0.773031Q181.116 -1.54606 181.116 -3.39784L181.116 -7.54688L179.561 -7.54688L179.561 -9.78299L181.116 -9.78299L181.116 -12.5607L184.243 -12.5607ZM199.145 -4.9177L199.145 -4.02675L191.834 -4.02675Q191.947 -2.92616 192.629 -2.37587Q193.31 -1.82558 194.533 -1.82558Q195.52 -1.82558 196.555 -2.11819Q197.59 -2.41081 198.682 -3.00477L198.682 -0.593967Q197.573 -0.174696 196.463 0.0393066Q195.354 0.253309 194.245 0.253309Q191.589 0.253309 190.117 -1.09622Q188.646 -2.44575 188.646 -4.88276Q188.646 -7.2761 190.091 -8.64746Q191.537 -10.0188 194.07 -10.0188Q196.376 -10.0188 197.76 -8.62999Q199.145 -7.24116 199.145 -4.9177ZM195.931 -5.95714Q195.931 -6.84809 195.411 -7.39402Q194.891 -7.93994 194.053 -7.93994Q193.144 -7.93994 192.576 -7.42896Q192.009 -6.91797 191.869 -5.95714L195.931 -5.95714ZM208.779 -7.11887Q208.369 -7.31103 207.963 -7.40275Q207.557 -7.49447 207.146 -7.49447Q205.941 -7.49447 205.29 -6.72144Q204.639 -5.94841 204.639 -4.50716L204.639 0L201.512 0L201.512 -9.78299L204.639 -9.78299L204.639 -8.17578Q205.242 -9.13661 206.024 -9.57772Q206.805 -10.0188 207.897 -10.0188Q208.054 -10.0188 208.238 -10.0057Q208.421 -9.99262 208.771 -9.94895L208.779 -7.11887ZM214.719 -4.40234Q213.741 -4.40234 213.247 -4.07042Q212.754 -3.7385 212.754 -3.09212Q212.754 -2.49816 213.151 -2.16187Q213.549 -1.82558 214.256 -1.82558Q215.138 -1.82558 215.741 -2.45885Q216.344 -3.09212 216.344 -4.04422L216.344 -4.40234L214.719 -4.40234ZM219.497 -5.58154L219.497 0L216.344 0L216.344 -1.44998Q215.715 -0.559028 214.929 -0.152859Q214.143 0.253309 213.016 0.253309Q211.496 0.253309 210.548 -0.633274Q209.6 -1.51986 209.6 -2.9349Q209.6 -4.65565 210.784 -5.45926Q211.968 -6.26286 214.501 -6.26286L216.344 -6.26286L216.344 -6.50743Q216.344 -7.24989 215.759 -7.59492Q215.173 -7.93994 213.933 -7.93994Q212.928 -7.93994 212.064 -7.73904Q211.199 -7.53814 210.456 -7.13634L210.456 -9.52094Q211.461 -9.76552 212.474 -9.89217Q213.487 -10.0188 214.501 -10.0188Q217.147 -10.0188 218.322 -8.97502Q219.497 -7.93121 219.497 -5.58154ZM230.311 -9.47727L230.311 -6.9267Q229.673 -7.36344 229.031 -7.57308Q228.389 -7.78271 227.699 -7.78271Q226.389 -7.78271 225.659 -7.01842Q224.93 -6.25412 224.93 -4.88276Q224.93 -3.51139 225.659 -2.7471Q226.389 -1.9828 227.699 -1.9828Q228.433 -1.9828 229.092 -2.20117Q229.752 -2.41954 230.311 -2.84755L230.311 -0.288249C229.822 -0.107729 229.325 0.0276602 228.821 0.11792Q228.066 0.253309 227.306 0.253309Q224.659 0.253309 223.166 -1.10495Q221.672 -2.46322 221.672 -4.88276Q221.672 -7.3023 223.166 -8.66056Q224.659 -10.0188 227.306 -10.0188Q228.075 -10.0188 228.821 -9.88344Q229.568 -9.74805 230.311 -9.47727ZM236.425 -12.5607L236.425 -9.78299L239.648 -9.78299L239.648 -7.54688L236.425 -7.54688L236.425 -3.39784Q236.425 -2.71653 236.696 -2.47632Q236.967 -2.23611 237.77 -2.23611L239.377 -2.23611L239.377 0L236.696 0Q234.844 0 234.071 -0.773031Q233.298 -1.54606 233.298 -3.39784L233.298 -7.54688L231.743 -7.54688L231.743 -9.78299L233.298 -9.78299L233.298 -12.5607L236.425 -12.5607ZM241.561 -9.78299L244.688 -9.78299L244.688 0L241.561 0L241.561 -9.78299ZM241.561 -13.5914L244.688 -13.5914L244.688 -11.0408L241.561 -11.0408L241.561 -13.5914ZM246.461 -9.78299L249.588 -9.78299L252.025 -3.02224L254.454 -9.78299L257.59 -9.78299L253.737 0L250.305 0L246.461 -9.78299ZM269.119 -4.9177L269.119 -4.02675L261.808 -4.02675Q261.922 -2.92616 262.603 -2.37587Q263.285 -1.82558 264.507 -1.82558Q265.495 -1.82558 266.53 -2.11819Q267.565 -2.41081 268.657 -3.00477L268.657 -0.593967Q267.547 -0.174696 266.438 0.0393066Q265.329 0.253309 264.219 0.253309Q261.564 0.253309 260.092 -1.09622Q258.62 -2.44575 258.62 -4.88276Q258.62 -7.2761 260.066 -8.64746Q261.511 -10.0188 264.045 -10.0188Q266.351 -10.0188 267.735 -8.62999Q269.119 -7.24116 269.119 -4.9177ZM265.905 -5.95714Q265.905 -6.84809 265.385 -7.39402Q264.866 -7.93994 264.027 -7.93994Q263.119 -7.93994 262.551 -7.42896Q261.983 -6.91797 261.843 -5.95714L265.905 -5.95714ZM284.982 -7.11887Q284.571 -7.31103 284.165 -7.40275Q283.759 -7.49447 283.348 -7.49447Q282.143 -7.49447 281.492 -6.72144Q280.842 -5.94841 280.842 -4.50716L280.842 0L277.715 0L277.715 -9.78299L280.842 -9.78299L280.842 -8.17578Q281.444 -9.13661 282.226 -9.57772Q283.008 -10.0188 284.1 -10.0188Q284.257 -10.0188 284.44 -10.0057Q284.624 -9.99262 284.973 -9.94895L284.982 -7.11887ZM291.192 -7.78271Q290.153 -7.78271 289.607 -7.03589Q289.061 -6.28906 289.061 -4.88276Q289.061 -3.47645 289.607 -2.72963Q290.153 -1.9828 291.192 -1.9828Q292.214 -1.9828 292.756 -2.72963Q293.297 -3.47645 293.297 -4.88276Q293.297 -6.28906 292.756 -7.03589Q292.214 -7.78271 291.192 -7.78271ZM291.192 -10.0188Q293.717 -10.0188 295.136 -8.6562Q296.555 -7.29357 296.555 -4.88276Q296.555 -2.47195 295.136 -1.10932Q293.717 0.253309 291.192 0.253309Q288.659 0.253309 287.231 -1.10932Q285.803 -2.47195 285.803 -4.88276Q285.803 -7.29357 287.231 -8.6562Q288.659 -10.0188 291.192 -10.0188ZM302.242 -12.5607L302.242 -9.78299L305.465 -9.78299L305.465 -7.54688L302.242 -7.54688L302.242 -3.39784Q302.242 -2.71653 302.513 -2.47632Q302.783 -2.23611 303.587 -2.23611L305.194 -2.23611L305.194 0L302.513 0Q300.661 0 299.888 -0.773031Q299.115 -1.54606 299.115 -3.39784L299.115 -7.54688L297.56 -7.54688L297.56 -9.78299L299.115 -9.78299L299.115 -12.5607L302.242 -12.5607ZM311.763 -4.40234Q310.785 -4.40234 310.291 -4.07042Q309.797 -3.7385 309.797 -3.09212Q309.797 -2.49816 310.195 -2.16187Q310.592 -1.82558 311.3 -1.82558Q312.182 -1.82558 312.785 -2.45885Q313.387 -3.09212 313.387 -4.04422L313.387 -4.40234L311.763 -4.40234ZM316.541 -5.58154L316.541 0L313.387 0L313.387 -1.44998Q312.759 -0.559028 311.972 -0.152859Q311.186 0.253309 310.06 0.253309Q308.54 0.253309 307.592 -0.633274Q306.644 -1.51986 306.644 -2.9349Q306.644 -4.65565 307.828 -5.45926Q309.011 -6.26286 311.544 -6.26286L313.387 -6.26286L313.387 -6.50743Q313.387 -7.24989 312.802 -7.59492Q312.217 -7.93994 310.977 -7.93994Q309.972 -7.93994 309.107 -7.73904Q308.243 -7.53814 307.5 -7.13634L307.5 -9.52094Q308.505 -9.76552 309.518 -9.89217Q310.531 -10.0188 311.544 -10.0188Q314.191 -10.0188 315.366 -8.97502Q316.541 -7.93121 316.541 -5.58154ZM322.865 -12.5607L322.865 -9.78299L326.088 -9.78299L326.088 -7.54688L322.865 -7.54688L322.865 -3.39784Q322.865 -2.71653 323.136 -2.47632Q323.406 -2.23611 324.21 -2.23611L325.817 -2.23611L325.817 0L323.136 0Q321.284 0 320.511 -0.773031Q319.738 -1.54606 319.738 -3.39784L319.738 -7.54688L318.183 -7.54688L318.183 -9.78299L319.738 -9.78299L319.738 -12.5607L322.865 -12.5607ZM328.001 -9.78299L331.128 -9.78299L331.128 0L328.001 0L328.001 -9.78299ZM328.001 -13.5914L331.128 -13.5914L331.128 -11.0408L328.001 -11.0408L328.001 -13.5914ZM338.788 -7.78271Q337.749 -7.78271 337.203 -7.03589Q336.657 -6.28906 336.657 -4.88276Q336.657 -3.47645 337.203 -2.72963Q337.749 -1.9828 338.788 -1.9828Q339.81 -1.9828 340.352 -2.72963Q340.893 -3.47645 340.893 -4.88276Q340.893 -6.28906 340.352 -7.03589Q339.81 -7.78271 338.788 -7.78271ZM338.788 -10.0188Q341.313 -10.0188 342.732 -8.6562Q344.151 -7.29357 344.151 -4.88276Q344.151 -2.47195 342.732 -1.10932Q341.313 0.253309 338.788 0.253309Q336.255 0.253309 334.827 -1.10932Q333.399 -2.47195 333.399 -4.88276Q333.399 -7.29357 334.827 -8.6562Q336.255 -10.0188 338.788 -10.0188ZM356.258 -5.95714L356.258 0L353.113 0L353.113 -0.969564L353.113 -4.55957Q353.113 -5.82612 353.057 -6.30653Q353 -6.78695 352.86 -7.01405Q352.677 -7.31977 352.362 -7.4901Q352.048 -7.66043 351.646 -7.66043Q350.668 -7.66043 350.109 -6.90487Q349.55 -6.14931 349.55 -4.81288L349.55 0L346.423 0L346.423 -9.78299L349.55 -9.78299L349.55 -8.35048Q350.257 -9.20649 351.052 -9.61266Q351.847 -10.0188 352.808 -10.0188Q354.502 -10.0188 355.38 -8.97938Q356.258 -7.93994 356.258 -5.95714Z" fill="#262626" transform="translate(350,24.099999999999998) translate(-178.8277587890625,0)" />
<rect x="88" y="66" width="542" height="424" fill="#FFFFFF" />
<polygon points="155.15810428110404,394.20582929533145 421.88459101434324,469.42809602834495 562.9617528841759,344.0933654082057 312.0805485952432,281.4929208208937" fill="#F5F5F5" />
<polygon points="155.15810428110404,394.20582929533145 312.0805485952432,281.4929208208937 310.2586167943571,86.07190397165505 146.99999999999997,184.21543390229212" fill="#F5F5F5" />
<polygon points="312.0805485952432,281.4929208208937 562.9617528841759,344.0933654082057 570.5,140.49932750436272 310.2586167943571,86.07190397165505" fill="#F5F5F5" />
<line x1="155.15810428110404" y1="394.20582929533145" x2="421.88459101434324" y2="469.42809602834495" stroke="#666666" stroke-width="0.5" />
<line x1="421.88459101434324" y1="469.42809602834495" x2="562.9617528841759" y2="344.0933654082057" stroke="#666666" stroke-width="0.5" />
<line x1="562.9617528841759" y1="344.0933654082057" x2="312.0805485952432" y2="281.4929208208937" stroke="#666666" stroke-width="0.5" />
<line x1="312.0805485952432" y1="281.4929208208937" x2="155.15810428110404" y2="394.20582929533145" stroke="#666666" stroke-width="0.5" />
<line x1="570.5" y1="140.49932750436272" x2="310.2586167943571" y2="86.07190397165505" stroke="#666666" stroke-width="0.5" />
<line x1="310.2586167943571" y1="86.07190397165505" x2="146.99999999999997" y2="184.21543390229212" stroke="#666666" stroke-width="0.5" />
<line x1="155.15810428110404" y1="394.20582929533145" x2="146.99999999999997" y2="184.21543390229212" stroke="#666666" stroke-width="0.5" />
<line x1="562.9617528841759" y1="344.0933654082057" x2="570.5" y2="140.49932750436272" stroke="#666666" stroke-width="0.5" />
<line x1="312.0805485952432" y1="281.4929208208937" x2="310.2586167943571" y2="86.07190397165505" stroke="#666666" stroke-width="0.5" />
<line x1="171.2704968398165" y1="398.7498500470862" x2="327.3052485857481" y2="285.29182234010204" stroke="#B0B0B0" stroke-width="1" />
<line x1="216.04024807045352" y1="411.3758258543174" x2="369.56138363357337" y2="295.8356685721574" stroke="#B0B0B0" stroke-width="1" />
<line x1="261.67309565027176" y1="424.2452122976258" x2="412.56103671184326" y2="306.56503910204293" stroke="#B0B0B0" stroke-width="1" />
<line x1="308.19424138910875" y1="437.3651167973693" x2="456.3240058615205" y2="317.48487398164406" stroke="#B0B0B0" stroke-width="1" />
<line x1="355.629877907426" y1="450.74292620255153" x2="500.8707983152058" y2="328.6002902219448" stroke="#B0B0B0" stroke-width="1" />
<line x1="404.0072378118663" y1="464.3863206593245" x2="546.2226625392963" y2="339.91658978826" stroke="#B0B0B0" stroke-width="1" />
<line x1="166.0133726018873" y1="386.4088001956792" x2="431.68807307977056" y2="460.7185588677987" stroke="#B0B0B0" stroke-width="1" />
<line x1="185.53439364418674" y1="372.38740849683717" x2="449.30102518152637" y2="445.07098999243544" stroke="#B0B0B0" stroke-width="1" />
<line x1="204.64200029452164" y1="358.6629605444883" x2="466.52028807977683" y2="429.7731795727671" stroke="#B0B0B0" stroke-width="1" />
<line x1="223.3491878246298" y1="345.22612220621863" x2="483.35891564522586" y2="414.81353038535525" stroke="#B0B0B0" stroke-width="1" />
<line x1="241.6684124960139" y1="332.0679465052661" x2="499.82939094052176" y2="400.1809523198406" stroke="#B0B0B0" stroke-width="1" />
<line x1="259.61161921907126" y1="319.1798537537587" x2="515.9436570826101" y2="385.8648349604386" stroke="#B0B0B0" stroke-width="1" />
<line x1="277.19026752634227" y1="306.55361289687164" x2="531.7131461241171" y2="371.8550219273544" stroke="#B0B0B0" stroke-width="1" />
<line x1="294.41535597855756" y1="294.1813239826612" x2="547.1488061005352" y2="358.14178684772173" stroke="#B0B0B0" stroke-width="1" />
<line x1="311.2974451127078" y1="282.05540167912153" x2="562.2611263776907" y2="344.7158108365924" stroke="#B0B0B0" stroke-width="1" />
<line x1="166.0133726018873" y1="386.4088001956792" x2="158.3288581054321" y2="177.4050483533877" stroke="#B0B0B0" stroke-width="1" />
<line x1="185.53439364418674" y1="372.38740849683717" x2="178.6883062354198" y2="165.16588973406903" stroke="#B0B0B0" stroke-width="1" />
<line x1="204.64200029452164" y1="358.6629605444883" x2="198.60013450803018" y2="153.19581947120383" stroke="#B0B0B0" stroke-width="1" />
<line x1="223.3491878246298" y1="345.22612220621863" x2="218.07894436800154" y2="141.48605985151207" stroke="#B0B0B0" stroke-width="1" />
<line x1="241.6684124960139" y1="332.0679465052661" x2="237.13870902195475" y2="130.02821082941492" stroke="#B0B0B0" stroke-width="1" />
<line x1="259.61161921907126" y1="319.1798537537587" x2="255.79280686684265" y2="118.81422993139677" stroke="#B0B0B0" stroke-width="1" />
<line x1="277.19026752634227" y1="306.55361289687164" x2="274.05405280640855" y2="107.83641342999871" stroke="#B0B0B0" stroke-width="1" />
<line x1="294.41535597855756" y1="294.1813239826612" x2="291.9347276097048" y2="97.08737869483525" stroke="#B0B0B0" stroke-width="1" />
<line x1="311.2974451127078" y1="282.05540167912153" x2="309.44660545301326" y2="86.56004763566497" stroke="#B0B0B0" stroke-width="1" />
<line x1="153.86852043453965" y1="361.0118160170534" x2="311.79173513588785" y2="250.51469217395643" stroke="#B0B0B0" stroke-width="1" />
<line x1="152.56283477768403" y1="327.40334058027935" x2="311.4996274616535" y2="219.18312493276167" stroke="#B0B0B0" stroke-width="1" />
<line x1="151.24074384393924" y1="293.3725917253453" x2="311.20416888840094" y2="187.49213913748775" stroke="#B0B0B0" stroke-width="1" />
<line x1="149.90193649269003" y1="258.9115606626374" x2="310.9053014239898" y2="155.4355145316818" stroke="#B0B0B0" stroke-width="1" />
<line x1="148.54609366518613" y1="224.0120347889835" x2="310.60296573033156" y2="123.00688649205307" stroke="#B0B0B0" stroke-width="1" />
<line x1="147.17288813104665" y1="188.66559116264298" x2="310.29710108411416" y2="90.19974181574122" stroke="#B0B0B0" stroke-width="1" />
<line x1="327.3052485857481" y1="285.29182234010204" x2="326.0237719152986" y2="89.36906126561348" stroke="#B0B0B0" stroke-width="1" />
<line x1="369.56138363357337" y1="295.8356685721574" x2="369.79857498771094" y2="98.52421452192846" stroke="#B0B0B0" stroke-width="1" />
<line x1="412.56103671184326" y1="306.56503910204293" x2="414.3717653730444" y2="107.84634415951012" stroke="#B0B0B0" stroke-width="1" />
<line x1="456.3240058615205" y1="317.48487398164406" x2="459.76538618412275" y2="117.34006032076866" stroke="#B0B0B0" stroke-width="1" />
<line x1="500.8707983152058" y1="328.6002902219448" x2="506.00229953839363" y2="127.01014443644297" stroke="#B0B0B0" stroke-width="1" />
<line x1="546.2226625392963" y1="339.91658978826" x2="553.1062249518674" y2="136.8615572553886" stroke="#B0B0B0" stroke-width="1" />
<line x1="311.79173513588785" y1="250.51469217395643" x2="564.1548503380333" y2="311.87002163725094" stroke="#B0B0B0" stroke-width="1" />
<line x1="311.4996274616535" y1="219.18312493276167" x2="565.3622716262183" y2="279.2598177349897" stroke="#B0B0B0" stroke-width="1" />
<line x1="311.20416888840094" y1="187.49213913748775" x2="566.5842762555385" y2="246.25574490508697" stroke="#B0B0B0" stroke-width="1" />
<line x1="310.9053014239898" y1="155.4355145316818" x2="567.82113003958" y2="212.85062401682632" stroke="#B0B0B0" stroke-width="1" />
<line x1="310.60296573033156" y1="123.00688649205307" x2="569.0731052914718" y2="179.0371003989454" stroke="#B0B0B0" stroke-width="1" />
<line x1="310.29710108411416" y1="90.19974181574122" x2="570.340481023761" y2="144.80763844134873" stroke="#B0B0B0" stroke-width="1" />
<path d="M0.874837 -10.1251L2.34646 -10.1251L4.86247 -6.36122L7.39204 -10.1251L8.86366 -10.1251L5.60845 -5.26259L9.08068 0L7.60905 0L4.76074 -4.30637L1.89209 0L0.413683 0L4.02832 -5.405L0.874837 -10.1251ZM10.1929 -4.36062L13.8482 -4.36062L13.8482 -3.24843L10.1929 -3.24843L10.1929 -4.36062ZM19.2871 -3.81809Q17.7748 -3.81809 17.1916 -3.47222Q16.6083 -3.12636 16.6083 -2.29221Q16.6083 -1.6276 17.0458 -1.23766Q17.4832 -0.84771 18.2359 -0.847711Q19.2735 -0.847711 19.9009 -1.58352Q20.5282 -2.31934 20.5282 -3.54004L20.5282 -3.81809L19.2871 -3.81809ZM21.776 -4.3335L21.776 0L20.5282 0L20.5282 -1.15289Q20.1009 -0.461155 19.4634 -0.132243Q18.826 0.196669 17.9036 0.196669Q16.7372 0.196669 16.0489 -0.457764Q15.3605 -1.1122 15.3605 -2.21083Q15.3605 -3.49257 16.2184 -4.14361Q17.0763 -4.79465 18.7785 -4.79465L20.5282 -4.79465L20.5282 -4.91672Q20.5282 -5.77799 19.9619 -6.24932Q19.3956 -6.72065 18.3716 -6.72065Q17.7205 -6.72065 17.1034 -6.56467Q16.4863 -6.40869 15.9166 -6.09673L15.9166 -7.24962Q16.6016 -7.51411 17.2458 -7.64635Q17.8901 -7.77859 18.5004 -7.77859Q20.1484 -7.77859 20.9622 -6.9241Q21.776 -6.06961 21.776 -4.3335ZM30.66 -7.59549L27.9134 -3.89947L30.8024 0L29.3308 0L27.12 -2.98394L24.9091 0L23.4375 0L26.3875 -3.97407L23.6884 -7.59549L25.16 -7.59549L27.1742 -4.88959L29.1884 -7.59549L30.66 -7.59549ZM32.5656 -7.59549L33.8135 -7.59549L33.8135 0L32.5656 0L32.5656 -7.59549ZM32.5656 -10.5523L33.8135 -10.5523L33.8135 -8.97217L32.5656 -8.97217L32.5656 -10.5523ZM41.2665 -7.37169L41.2665 -6.19168Q40.7376 -6.46294 40.1679 -6.59858Q39.5983 -6.73421 38.9879 -6.73421Q38.0588 -6.73421 37.5943 -6.44938Q37.1297 -6.16455 37.1297 -5.59489Q37.1297 -5.16086 37.462 -4.91333Q37.7943 -4.6658 38.798 -4.442L39.2253 -4.34706Q40.5545 -4.06223 41.114 -3.54343Q41.6735 -3.02463 41.6735 -2.09554Q41.6735 -1.0376 40.8359 -0.420464Q39.9984 0.196669 38.5335 0.196669Q37.9232 0.196669 37.262 0.0779894Q36.6007 -0.0406901 35.8683 -0.278049L35.8683 -1.56657Q36.5601 -1.20714 37.2314 -1.02743Q37.9028 -0.84771 38.5607 -0.847711Q39.4423 -0.847711 39.917 -1.1495Q40.3917 -1.45128 40.3917 -2.0006Q40.3917 -2.50922 40.0492 -2.78049Q39.7068 -3.05176 38.5471 -3.30268L38.1131 -3.40441Q36.9534 -3.64855 36.438 -4.15378Q35.9226 -4.65902 35.9226 -5.54064Q35.9226 -6.61214 36.6821 -7.19537Q37.4417 -7.77859 38.8387 -7.77859Q39.5304 -7.77859 40.1408 -7.67687Q40.7511 -7.57514 41.2665 -7.37169Z" fill="#262626" transform="translate(277.121183222776,472.2401769215202) translate(-21.175809860229492,0)" />
<path d="M-0.0271267 -10.1251L1.4445 -10.1251L4.25212 -5.9611L7.03939 -10.1251L8.51101 -10.1251L4.93028 -4.82178L4.93028 0L3.5536 0L3.5536 -4.82178L-0.0271267 -10.1251ZM9.16206 -4.36062L12.8174 -4.36062L12.8174 -3.24843L9.16206 -3.24843L9.16206 -4.36062ZM18.2563 -3.81809Q16.744 -3.81809 16.1608 -3.47222Q15.5775 -3.12636 15.5775 -2.29221Q15.5775 -1.6276 16.0149 -1.23766Q16.4524 -0.84771 17.2051 -0.847711Q18.2427 -0.847711 18.87 -1.58352Q19.4973 -2.31934 19.4973 -3.54004L19.4973 -3.81809L18.2563 -3.81809ZM20.7452 -4.3335L20.7452 0L19.4973 0L19.4973 -1.15289Q19.0701 -0.461155 18.4326 -0.132243Q17.7951 0.196669 16.8728 0.196669Q15.7064 0.196669 15.018 -0.457764Q14.3297 -1.1122 14.3297 -2.21083Q14.3297 -3.49257 15.1876 -4.14361Q16.0455 -4.79465 17.7477 -4.79465L19.4973 -4.79465L19.4973 -4.91672Q19.4973 -5.77799 18.9311 -6.24932Q18.3648 -6.72065 17.3408 -6.72065Q16.6897 -6.72065 16.0726 -6.56467Q15.4555 -6.40869 14.8858 -6.09673L14.8858 -7.24962Q15.5707 -7.51411 16.215 -7.64635Q16.8593 -7.77859 17.4696 -7.77859Q19.1176 -7.77859 19.9314 -6.9241Q20.7452 -6.06961 20.7452 -4.3335ZM29.6292 -7.59549L26.8826 -3.89947L29.7716 0L28.3 0L26.0891 -2.98394L23.8783 0L22.4067 0L25.3567 -3.97407L22.6576 -7.59549L24.1292 -7.59549L26.1434 -4.88959L28.1576 -7.59549L29.6292 -7.59549ZM31.5348 -7.59549L32.7827 -7.59549L32.7827 0L31.5348 0L31.5348 -7.59549ZM31.5348 -10.5523L32.7827 -10.5523L32.7827 -8.97217L31.5348 -8.97217L31.5348 -10.5523ZM40.2357 -7.37169L40.2357 -6.19168Q39.7068 -6.46294 39.1371 -6.59858Q38.5674 -6.73421 37.9571 -6.73421Q37.028 -6.73421 36.5635 -6.44938Q36.0989 -6.16455 36.0989 -5.59489Q36.0989 -5.16086 36.4312 -4.91333Q36.7635 -4.6658 37.7672 -4.442L38.1944 -4.34706Q39.5237 -4.06223 40.0831 -3.54343Q40.6426 -3.02463 40.6426 -2.09554Q40.6426 -1.0376 39.8051 -0.420464Q38.9676 0.196669 37.5027 0.196669Q36.8924 0.196669 36.2312 0.0779894Q35.5699 -0.0406901 34.8375 -0.278049L34.8375 -1.56657Q35.5292 -1.20714 36.2006 -1.02743Q36.872 -0.84771 37.5298 -0.847711Q38.4115 -0.847711 38.8862 -1.1495Q39.3609 -1.45128 39.3609 -2.0006Q39.3609 -2.50922 39.0184 -2.78049Q38.6759 -3.05176 37.5163 -3.30268L37.0823 -3.40441Q35.9226 -3.64855 35.4072 -4.15378Q34.8918 -4.65902 34.8918 -5.54064Q34.8918 -6.61214 35.6513 -7.19537Q36.4109 -7.77859 37.8079 -7.77859Q38.4996 -7.77859 39.11 -7.67687Q39.7203 -7.57514 40.2357 -7.37169Z" fill="#262626" transform="translate(553.4346412000343,432.81568661214203) translate(-20.660402297973633,0)" />
<path d="M0.779894 -10.1251L8.73481 -10.1251L8.73481 -9.08068L2.3329 -1.15289L8.89079 -1.15289L8.89079 0L0.623915 0L0.623915 -1.04438L7.02583 -8.97217L0.779894 -8.97217L0.779894 -10.1251ZM10.1929 -4.36062L13.8482 -4.36062L13.8482 -3.24843L10.1929 -3.24843L10.1929 -4.36062ZM19.2871 -3.81809Q17.7748 -3.81809 17.1916 -3.47222Q16.6083 -3.12636 16.6083 -2.29221Q16.6083 -1.6276 17.0458 -1.23766Q17.4832 -0.84771 18.2359 -0.847711Q19.2735 -0.847711 19.9009 -1.58352Q20.5282 -2.31934 20.5282 -3.54004L20.5282 -3.81809L19.2871 -3.81809ZM21.776 -4.3335L21.776 0L20.5282 0L20.5282 -1.15289Q20.1009 -0.461155 19.4634 -0.132243Q18.826 0.196669 17.9036 0.196669Q16.7372 0.196669 16.0489 -0.457764Q15.3605 -1.1122 15.3605 -2.21083Q15.3605 -3.49257 16.2184 -4.14361Q17.0763 -4.79465 18.7785 -4.79465L20.5282 -4.79465L20.5282 -4.91672Q20.5282 -5.77799 19.9619 -6.24932Q19.3956 -6.72065 18.3716 -6.72065Q17.7205 -6.72065 17.1034 -6.56467Q16.4863 -6.40869 15.9166 -6.09673L15.9166 -7.24962Q16.6016 -7.51411 17.2458 -7.64635Q17.8901 -7.77859 18.5004 -7.77859Q20.1484 -7.77859 20.9622 -6.9241Q21.776 -6.06961 21.776 -4.3335ZM30.66 -7.59549L27.9134 -3.89947L30.8024 0L29.3308 0L27.12 -2.98394L24.9091 0L23.4375 0L26.3875 -3.97407L23.6884 -7.59549L25.16 -7.59549L27.1742 -4.88959L29.1884 -7.59549L30.66 -7.59549ZM32.5656 -7.59549L33.8135 -7.59549L33.8135 0L32.5656 0L32.5656 -7.59549ZM32.5656 -10.5523L33.8135 -10.5523L33.8135 -8.97217L32.5656 -8.97217L32.5656 -10.5523ZM41.2665 -7.37169L41.2665 -6.19168Q40.7376 -6.46294 40.1679 -6.59858Q39.5983 -6.73421 38.9879 -6.73421Q38.0588 -6.73421 37.5943 -6.44938Q37.1297 -6.16455 37.1297 -5.59489Q37.1297 -5.16086 37.462 -4.91333Q37.7943 -4.6658 38.798 -4.442L39.2253 -4.34706Q40.5545 -4.06223 41.114 -3.54343Q41.6735 -3.02463 41.6735 -2.09554Q41.6735 -1.0376 40.8359 -0.420464Q39.9984 0.196669 38.5335 0.196669Q37.9232 0.196669 37.262 0.0779894Q36.6007 -0.0406901 35.8683 -0.278049L35.8683 -1.56657Q36.5601 -1.20714 37.2314 -1.02743Q37.9028 -0.84771 38.5607 -0.847711Q39.4423 -0.847711 39.917 -1.1495Q40.3917 -1.45128 40.3917 -2.0006Q40.3917 -2.50922 40.0492 -2.78049Q39.7068 -3.05176 38.5471 -3.30268L38.1131 -3.40441Q36.9534 -3.64855 36.438 -4.15378Q35.9226 -4.65902 35.9226 -5.54064Q35.9226 -6.61214 36.6821 -7.19537Q37.4417 -7.77859 38.8387 -7.77859Q39.5304 -7.77859 40.1408 -7.67687Q40.7511 -7.57514 41.2665 -7.37169Z" fill="#262626" transform="translate(626.6897912210299,244.51637765687258) translate(-21.175809860229492,0)" />
<g class="mpl-3d-scene" data-elevation="25" data-azimuth="-60" data-plot-x="88" data-plot-y="66" data-plot-w="542" data-plot-h="424">
<g class="series" data-series-index="0">
</g>
<polygon points="360.5878990562535,302.5891218711417 318.1778069220053,291.9286869974383 317.1340889957081,164.99730148110984 360.5309694747234,174.768888328301" fill="#5E251A" stroke="#000000" stroke-width="0.5" />
<polygon points="275.1433681785204,323.22045045833113 318.1778069220053,291.9286869974383 360.5878990562535,302.5891218711417 318.2677650908258,334.43929622421786" fill="#7E3123" stroke="#000000" stroke-width="0.5" />
<polygon points="318.1778069220053,291.9286869974383 275.1433681785204,323.22045045833113 273.0439089024395,193.69135261580215 317.1340889957081,164.99730148110984" fill="#C94E38" stroke="#000000" stroke-width="0.5" />
<polygon points="447.67936472439396,324.48091344923233 403.7483870556654,313.4381803918947 403.98555073767216,281.8200477777357 448.1767138476376,292.6437701629756" fill="#5E251A" stroke="#000000" stroke-width="0.5" />
<polygon points="318.2677650908258,334.43929622421786 360.5878990562535,302.5891218711417 360.5309694747234,174.768888328301 317.1888380621176,203.98723802302536" fill="#823324" stroke="#000000" stroke-width="0.5" />
<polygon points="403.7483870556654,313.4381803918947 362.1751943487183,345.8618484705154 362.1701965071762,313.6038549036193 403.98555073767216,281.8200477777357" fill="#C94E38" stroke="#000000" stroke-width="0.5" />
<polygon points="362.1751943487183,345.8618484705154 403.7483870556654,313.4381803918947 447.67936472439396,324.48091344923233 406.8871782428895,357.4937062380703" fill="#7E3123" stroke="#000000" stroke-width="0.5" />
<polygon points="273.0439089024395,193.69135261580215 317.1888380621176,203.98723802302536 360.5309694747234,174.768888328301 317.1340889957081,164.99730148110984" fill="#CE5039" stroke="#000000" stroke-width="0.5" />
<polygon points="362.1701965071762,313.6038549036193 407.1517665388263,325.0085295696199 448.1767138476376,292.6437701629756 403.98555073767216,281.8200477777357" fill="#CE5039" stroke="#000000" stroke-width="0.5" />
<polygon points="275.1433681785204,323.22045045833113 318.2677650908258,334.43929622421786 317.1888380621176,203.98723802302536 273.0439089024395,193.69135261580215" fill="#ED5C42" stroke="#000000" stroke-width="0.5" />
<polygon points="406.8871782428895,357.4937062380703 447.67936472439396,324.48091344923233 448.1767138476376,292.6437701629756 407.1517665388263,325.0085295696199" fill="#823324" stroke="#000000" stroke-width="0.5" />
<polygon points="362.1751943487183,345.8618484705154 406.8871782428895,357.4937062380703 407.1517665388263,325.0085295696199 362.1701965071762,313.6038549036193" fill="#ED5C42" stroke="#000000" stroke-width="0.5" />
<polygon points="452.42603510118875,369.3406756574217 492.4016497464522,335.7225538911272 537.9368165792009,347.1685247922781 498.8149164355308,381.40877961259844" fill="#7E3123" stroke="#000000" stroke-width="0.5" />
<polygon points="537.9368165792009,347.1685247922781 492.4016497464522,335.7225538911272 497.14382808370146,137.49405174035277 544.4082903280189,147.49530359481378" fill="#5E251A" stroke="#000000" stroke-width="0.5" />
<polygon points="273.69070824232466,367.9880329539173 229.83491785904252,356.1657229324925 227.39874298123524,257.6002711975158 272.0414074250298,268.7136198345335" fill="#5E251A" stroke="#000000" stroke-width="0.5" />
<polygon points="492.4016497464522,335.7225538911272 452.42603510118875,369.3406756574217 455.7938656290684,166.88784060335382 497.14382808370146,137.49405174035277" fill="#C94E38" stroke="#000000" stroke-width="0.5" />
<polygon points="182.06732068380714,390.89912240383956 229.83491785904252,356.1657229324925 273.69070824232466,367.9880329539173 226.6712407438775,403.3749303356161" fill="#7E3123" stroke="#000000" stroke-width="0.5" />
<polygon points="229.83491785904252,356.1657229324925 182.06732068380714,390.89912240383956 178.66582832040052,290.2614718848429 227.39874298123524,257.6002711975158" fill="#C94E38" stroke="#000000" stroke-width="0.5" />
<polygon points="498.8149164355308,381.40877961259844 537.9368165792009,347.1685247922781 544.4082903280189,147.49530359481378 503.9795572667439,177.4535567420284" fill="#823324" stroke="#000000" stroke-width="0.5" />
<polygon points="226.6712407438775,403.3749303356161 273.69070824232466,367.9880329539173 272.0414074250298,268.7136198345335 224.08345329228595,302.00089264601536" fill="#823324" stroke="#000000" stroke-width="0.5" />
<polygon points="452.42603510118875,369.3406756574217 498.8149164355308,381.40877961259844 503.9795572667439,177.4535567420284 455.7938656290684,166.88784060335382" fill="#ED5C42" stroke="#000000" stroke-width="0.5" />
<polygon points="178.66582832040052,290.2614718848429 224.08345329228595,302.00089264601536 272.0414074250298,268.7136198345335 227.39874298123524,257.6002711975158" fill="#CE5039" stroke="#000000" stroke-width="0.5" />
<polygon points="272.1298576423484,416.0897987262363 318.36424281366004,380.03078422665453 363.878608557699,392.3002003642249 318.4679754775838,429.0506653328902" fill="#7E3123" stroke="#000000" stroke-width="0.5" />
<polygon points="455.7938656290684,166.88784060335382 503.9795572667439,177.4535567420284 544.4082903280189,147.49530359481378 497.14382808370146,137.49405174035277" fill="#CE5039" stroke="#000000" stroke-width="0.5" />
<polygon points="363.878608557699,392.3002003642249 318.36424281366004,380.03078422665453 316.95972563125963,211.2791838218838 363.9061476064482,222.299781001876" fill="#5E251A" stroke="#000000" stroke-width="0.5" />
<polygon points="182.06732068380714,390.89912240383956 226.6712407438775,403.3749303356161 224.08345329228595,302.00089264601536 178.66582832040052,290.2614718848429" fill="#ED5C42" stroke="#000000" stroke-width="0.5" />
<polygon points="318.36424281366004,380.03078422665453 272.1298576423484,416.0897987262363 269.1892675191213,243.68660862843555 316.95972563125963,211.2791838218838" fill="#C94E38" stroke="#000000" stroke-width="0.5" />
<polygon points="457.52661021777885,417.545115547293 410.25776978737144,404.80274148362633 410.8524908313587,337.58975140719247 458.72789388343415,349.8412225773508" fill="#5E251A" stroke="#000000" stroke-width="0.5" />
<polygon points="365.7113675073012,442.2647389886273 410.25776978737144,404.80274148362633 457.52661021777885,417.545115547293 413.88682394990997,455.73951297248834" fill="#7E3123" stroke="#000000" stroke-width="0.5" />
<polygon points="318.4679754775838,429.0506653328902 363.878608557699,392.3002003642249 363.9061476064482,222.299781001876 317.01231395965885,255.3487605187673" fill="#823324" stroke="#000000" stroke-width="0.5" />
<polygon points="410.25776978737144,404.80274148362633 365.7113675073012,442.2647389886273 365.7463220314352,373.61695604635645 410.8524908313587,337.58975140719247" fill="#C94E38" stroke="#000000" stroke-width="0.5" />
<polygon points="272.1298576423484,416.0897987262363 318.4679754775838,429.0506653328902 317.01231395965885,255.3487605187673 269.1892675191213,243.68660862843555" fill="#ED5C42" stroke="#000000" stroke-width="0.5" />
<polygon points="413.88682394990997,455.73951297248834 457.52661021777885,417.545115547293 458.72789388343415,349.8412225773508 414.55210112530216,386.58190396302655" fill="#823324" stroke="#000000" stroke-width="0.5" />
<polygon points="269.1892675191213,243.68660862843555 317.01231395965885,255.3487605187673 363.9061476064482,222.299781001876 316.95972563125963,211.2791838218838" fill="#CE5039" stroke="#000000" stroke-width="0.5" />
<polygon points="365.7463220314352,373.61695604635645 414.55210112530216,386.58190396302655 458.72789388343415,349.8412225773508 410.8524908313587,337.58975140719247" fill="#CE5039" stroke="#000000" stroke-width="0.5" />
<polygon points="365.7113675073012,442.2647389886273 413.88682394990997,455.73951297248834 414.55210112530216,386.58190396302655 365.7463220314352,373.61695604635645" fill="#ED5C42" stroke="#000000" stroke-width="0.5" />
</g>
<line x1="171.2704968398165" y1="398.7498500470862" x2="169.95103336470683" y2="403.4284628086235" stroke="#262626" stroke-width="1.1111111111111112" />
<path d="M4.41488 -9.22309Q3.35693 -9.22309 2.82457 -8.1821Q2.29221 -7.14111 2.29221 -5.05235Q2.29221 -2.97038 2.82457 -1.92939Q3.35693 -0.888401 4.41488 -0.888401Q5.4796 -0.888401 6.01196 -1.92939Q6.54433 -2.97038 6.54433 -5.05235Q6.54433 -7.14111 6.01196 -8.1821Q5.4796 -9.22309 4.41488 -9.22309ZM4.41488 -10.3082Q6.11708 -10.3082 7.01565 -8.962Q7.91422 -7.61583 7.91423 -5.05235Q7.91423 -2.49566 7.01565 -1.1495Q6.11708 0.196669 4.41488 0.196669Q2.71267 0.196669 1.8141 -1.1495Q0.915527 -2.49566 0.915527 -5.05235Q0.915527 -7.61583 1.8141 -8.962Q2.71267 -10.3082 4.41488 -10.3082ZM10.3217 -1.72255L11.7527 -1.72255L11.7527 0L10.3217 0L10.3217 -1.72255ZM17.6663 -9.22309Q16.6083 -9.22309 16.076 -8.1821Q15.5436 -7.14111 15.5436 -5.05235Q15.5436 -2.97038 16.076 -1.92939Q16.6083 -0.888401 17.6663 -0.888401Q18.731 -0.888401 19.2634 -1.92939Q19.7957 -2.97038 19.7957 -5.05235Q19.7957 -7.14111 19.2634 -8.1821Q18.731 -9.22309 17.6663 -9.22309ZM17.6663 -10.3082Q19.3685 -10.3082 20.2671 -8.962Q21.1656 -7.61583 21.1656 -5.05235Q21.1656 -2.49566 20.2671 -1.1495Q19.3685 0.196669 17.6663 0.196669Q15.9641 0.196669 15.0655 -1.1495Q14.1669 -2.49566 14.1669 -5.05235Q14.1669 -7.61583 15.0655 -8.962Q15.9641 -10.3082 17.6663 -10.3082Z" fill="#262626" transform="translate(164.83151508128122,421.58148032338806) translate(-11.043972969055176,0)" />
<line x1="216.04024807045352" y1="411.3758258543174" x2="214.72078459534384" y2="416.0544386158547" stroke="#262626" stroke-width="1.1111111111111112" />
<path d="M4.41488 -9.22309Q3.35693 -9.22309 2.82457 -8.1821Q2.29221 -7.14111 2.29221 -5.05235Q2.29221 -2.97038 2.82457 -1.92939Q3.35693 -0.888401 4.41488 -0.888401Q5.4796 -0.888401 6.01196 -1.92939Q6.54433 -2.97038 6.54433 -5.05235Q6.54433 -7.14111 6.01196 -8.1821Q5.4796 -9.22309 4.41488 -9.22309ZM4.41488 -10.3082Q6.11708 -10.3082 7.01565 -8.962Q7.91422 -7.61583 7.91423 -5.05235Q7.91423 -2.49566 7.01565 -1.1495Q6.11708 0.196669 4.41488 0.196669Q2.71267 0.196669 1.8141 -1.1495Q0.915527 -2.49566 0.915527 -5.05235Q0.915527 -7.61583 1.8141 -8.962Q2.71267 -10.3082 4.41488 -10.3082ZM10.3217 -1.72255L11.7527 -1.72255L11.7527 0L10.3217 0L10.3217 -1.72255ZM14.7502 -10.1251L20.128 -10.1251L20.128 -8.97217L16.0048 -8.97217L16.0048 -6.49007Q16.3032 -6.5918 16.6016 -6.64266Q16.9 -6.69352 17.1984 -6.69352Q18.8938 -6.69352 19.8839 -5.76443Q20.874 -4.83534 20.874 -3.24843Q20.874 -1.61404 19.8568 -0.708686Q18.8395 0.196669 16.9881 0.196669Q16.3506 0.196669 15.6894 0.0881619C15.2486 0.0158239 14.7931 -0.092683 14.3229 -0.237359L14.3229 -1.61404Q14.9333 -1.28174 15.5843 -1.11898Q16.2354 -0.956217 16.961 -0.956217Q18.1342 -0.956217 18.8192 -1.57335Q19.5041 -2.19048 19.5041 -3.24843Q19.5041 -4.30637 18.8192 -4.9235Q18.1342 -5.54064 16.961 -5.54064Q16.4117 -5.54064 15.8658 -5.41857Q15.3198 -5.2965 14.7502 -5.03879L14.7502 -10.1251Z" fill="#262626" transform="translate(209.60126631191824,434.2074561306192) translate(-11.043972969055176,0)" />
<line x1="261.67309565027176" y1="424.2452122976258" x2="260.3536321751621" y2="428.9238250591631" stroke="#262626" stroke-width="1.1111111111111112" />
<path d="M1.72255 -1.15289L3.9605 -1.15289L3.9605 -8.87722L1.52588 -8.38894L1.52588 -9.63677L3.94694 -10.1251L5.31684 -10.1251L5.31684 -1.15289L7.5548 -1.15289L7.5548 0L1.72255 0L1.72255 -1.15289ZM10.3217 -1.72255L11.7527 -1.72255L11.7527 0L10.3217 0L10.3217 -1.72255ZM17.6663 -9.22309Q16.6083 -9.22309 16.076 -8.1821Q15.5436 -7.14111 15.5436 -5.05235Q15.5436 -2.97038 16.076 -1.92939Q16.6083 -0.888401 17.6663 -0.888401Q18.731 -0.888401 19.2634 -1.92939Q19.7957 -2.97038 19.7957 -5.05235Q19.7957 -7.14111 19.2634 -8.1821Q18.731 -9.22309 17.6663 -9.22309ZM17.6663 -10.3082Q19.3685 -10.3082 20.2671 -8.962Q21.1656 -7.61583 21.1656 -5.05235Q21.1656 -2.49566 20.2671 -1.1495Q19.3685 0.196669 17.6663 0.196669Q15.9641 0.196669 15.0655 -1.1495Q14.1669 -2.49566 14.1669 -5.05235Q14.1669 -7.61583 15.0655 -8.962Q15.9641 -10.3082 17.6663 -10.3082Z" fill="#262626" transform="translate(255.23411389173648,447.0768425739277) translate(-11.043972969055176,0)" />
<line x1="308.19424138910875" y1="437.3651167973693" x2="306.8747779139991" y2="442.0437295589066" stroke="#262626" stroke-width="1.1111111111111112" />
<path d="M1.72255 -1.15289L3.9605 -1.15289L3.9605 -8.87722L1.52588 -8.38894L1.52588 -9.63677L3.94694 -10.1251L5.31684 -10.1251L5.31684 -1.15289L7.5548 -1.15289L7.5548 0L1.72255 0L1.72255 -1.15289ZM10.3217 -1.72255L11.7527 -1.72255L11.7527 0L10.3217 0L10.3217 -1.72255ZM14.7502 -10.1251L20.128 -10.1251L20.128 -8.97217L16.0048 -8.97217L16.0048 -6.49007Q16.3032 -6.5918 16.6016 -6.64266Q16.9 -6.69352 17.1984 -6.69352Q18.8938 -6.69352 19.8839 -5.76443Q20.874 -4.83534 20.874 -3.24843Q20.874 -1.61404 19.8568 -0.708686Q18.8395 0.196669 16.9881 0.196669Q16.3506 0.196669 15.6894 0.0881619C15.2486 0.0158239 14.7931 -0.092683 14.3229 -0.237359L14.3229 -1.61404Q14.9333 -1.28174 15.5843 -1.11898Q16.2354 -0.956217 16.961 -0.956217Q18.1342 -0.956217 18.8192 -1.57335Q19.5041 -2.19048 19.5041 -3.24843Q19.5041 -4.30637 18.8192 -4.9235Q18.1342 -5.54064 16.961 -5.54064Q16.4117 -5.54064 15.8658 -5.41857Q15.3198 -5.2965 14.7502 -5.03879L14.7502 -10.1251Z" fill="#262626" transform="translate(301.7552596305735,460.1967470736712) translate(-11.043972969055176,0)" />
<line x1="355.629877907426" y1="450.74292620255153" x2="354.31041443231635" y2="455.4215389640888" stroke="#262626" stroke-width="1.1111111111111112" />
<path d="M2.6652 -1.15289L7.44629 -1.15289L7.44629 0L1.01725 0L1.01725 -1.15289Q1.79715 -1.95991 3.14331 -3.31963Q4.48947 -4.67936 4.83534 -5.0727Q5.49316 -5.8119 5.75426 -6.32392Q6.01535 -6.83594 6.01535 -7.331Q6.01535 -8.13802 5.44908 -8.64665Q4.88281 -9.15527 3.97407 -9.15527Q3.32981 -9.15527 2.61434 -8.93148Q1.89887 -8.70768 1.08507 -8.25331L1.08507 -9.63677Q1.91243 -9.96908 2.63129 -10.1386Q3.35015 -10.3082 3.94694 -10.3082Q5.52029 -10.3082 6.45616 -9.52148Q7.39204 -8.73481 7.39204 -7.41916Q7.39204 -6.79525 7.15807 -6.23576Q6.9241 -5.67627 6.30697 -4.91672Q6.13742 -4.72005 5.22868 -3.78079Q4.31993 -2.84153 2.6652 -1.15289ZM10.3217 -1.72255L11.7527 -1.72255L11.7527 0L10.3217 0L10.3217 -1.72255ZM17.6663 -9.22309Q16.6083 -9.22309 16.076 -8.1821Q15.5436 -7.14111 15.5436 -5.05235Q15.5436 -2.97038 16.076 -1.92939Q16.6083 -0.888401 17.6663 -0.888401Q18.731 -0.888401 19.2634 -1.92939Q19.7957 -2.97038 19.7957 -5.05235Q19.7957 -7.14111 19.2634 -8.1821Q18.731 -9.22309 17.6663 -9.22309ZM17.6663 -10.3082Q19.3685 -10.3082 20.2671 -8.962Q21.1656 -7.61583 21.1656 -5.05235Q21.1656 -2.49566 20.2671 -1.1495Q19.3685 0.196669 17.6663 0.196669Q15.9641 0.196669 15.0655 -1.1495Q14.1669 -2.49566 14.1669 -5.05235Q14.1669 -7.61583 15.0655 -8.962Q15.9641 -10.3082 17.6663 -10.3082Z" fill="#262626" transform="translate(349.1908961488908,473.5745564788534) translate(-11.043972969055176,0)" />
<line x1="404.0072378118663" y1="464.3863206593245" x2="402.6877743367566" y2="469.0649334208618" stroke="#262626" stroke-width="1.1111111111111112" />
<path d="M2.6652 -1.15289L7.44629 -1.15289L7.44629 0L1.01725 0L1.01725 -1.15289Q1.79715 -1.95991 3.14331 -3.31963Q4.48947 -4.67936 4.83534 -5.0727Q5.49316 -5.8119 5.75426 -6.32392Q6.01535 -6.83594 6.01535 -7.331Q6.01535 -8.13802 5.44908 -8.64665Q4.88281 -9.15527 3.97407 -9.15527Q3.32981 -9.15527 2.61434 -8.93148Q1.89887 -8.70768 1.08507 -8.25331L1.08507 -9.63677Q1.91243 -9.96908 2.63129 -10.1386Q3.35015 -10.3082 3.94694 -10.3082Q5.52029 -10.3082 6.45616 -9.52148Q7.39204 -8.73481 7.39204 -7.41916Q7.39204 -6.79525 7.15807 -6.23576Q6.9241 -5.67627 6.30697 -4.91672Q6.13742 -4.72005 5.22868 -3.78079Q4.31993 -2.84153 2.6652 -1.15289ZM10.3217 -1.72255L11.7527 -1.72255L11.7527 0L10.3217 0L10.3217 -1.72255ZM14.7502 -10.1251L20.128 -10.1251L20.128 -8.97217L16.0048 -8.97217L16.0048 -6.49007Q16.3032 -6.5918 16.6016 -6.64266Q16.9 -6.69352 17.1984 -6.69352Q18.8938 -6.69352 19.8839 -5.76443Q20.874 -4.83534 20.874 -3.24843Q20.874 -1.61404 19.8568 -0.708686Q18.8395 0.196669 16.9881 0.196669Q16.3506 0.196669 15.6894 0.0881619C15.2486 0.0158239 14.7931 -0.092683 14.3229 -0.237359L14.3229 -1.61404Q14.9333 -1.28174 15.5843 -1.11898Q16.2354 -0.956217 16.961 -0.956217Q18.1342 -0.956217 18.8192 -1.57335Q19.5041 -2.19048 19.5041 -3.24843Q19.5041 -4.30637 18.8192 -4.9235Q18.1342 -5.54064 16.961 -5.54064Q16.4117 -5.54064 15.8658 -5.41857Q15.3198 -5.2965 14.7502 -5.03879L14.7502 -10.1251Z" fill="#262626" transform="translate(397.568256053331,487.2179509356264) translate(-11.043972969055176,0)" />
<line x1="431.68807307977056" y1="460.7185588677987" x2="434.91665253338283" y2="464.3526579234493" stroke="#262626" stroke-width="1.1111111111111112" />
<path d="M4.41488 -9.22309Q3.35693 -9.22309 2.82457 -8.1821Q2.29221 -7.14111 2.29221 -5.05235Q2.29221 -2.97038 2.82457 -1.92939Q3.35693 -0.888401 4.41488 -0.888401Q5.4796 -0.888401 6.01196 -1.92939Q6.54433 -2.97038 6.54433 -5.05235Q6.54433 -7.14111 6.01196 -8.1821Q5.4796 -9.22309 4.41488 -9.22309ZM4.41488 -10.3082Q6.11708 -10.3082 7.01565 -8.962Q7.91422 -7.61583 7.91423 -5.05235Q7.91423 -2.49566 7.01565 -1.1495Q6.11708 0.196669 4.41488 0.196669Q2.71267 0.196669 1.8141 -1.1495Q0.915527 -2.49566 0.915527 -5.05235Q0.915527 -7.61583 1.8141 -8.962Q2.71267 -10.3082 4.41488 -10.3082ZM10.3217 -1.72255L11.7527 -1.72255L11.7527 0L10.3217 0L10.3217 -1.72255ZM17.6663 -9.22309Q16.6083 -9.22309 16.076 -8.1821Q15.5436 -7.14111 15.5436 -5.05235Q15.5436 -2.97038 16.076 -1.92939Q16.6083 -0.888401 17.6663 -0.888401Q18.731 -0.888401 19.2634 -1.92939Q19.7957 -2.97038 19.7957 -5.05235Q19.7957 -7.14111 19.2634 -8.1821Q18.731 -9.22309 17.6663 -9.22309ZM17.6663 -10.3082Q19.3685 -10.3082 20.2671 -8.962Q21.1656 -7.61583 21.1656 -5.05235Q21.1656 -2.49566 20.2671 -1.1495Q19.3685 0.196669 17.6663 0.196669Q15.9641 0.196669 15.0655 -1.1495Q14.1669 -2.49566 14.1669 -5.05235Q14.1669 -7.61583 15.0655 -8.962Q15.9641 -10.3082 17.6663 -10.3082Z" fill="#262626" transform="translate(447.4435408133984,478.4529622593737) translate(-11.043972969055176,0)" />
<line x1="449.30102518152637" y1="445.07098999243544" x2="452.52960463513864" y2="448.70508904808605" stroke="#262626" stroke-width="1.1111111111111112" />
<path d="M4.41488 -9.22309Q3.35693 -9.22309 2.82457 -8.1821Q2.29221 -7.14111 2.29221 -5.05235Q2.29221 -2.97038 2.82457 -1.92939Q3.35693 -0.888401 4.41488 -0.888401Q5.4796 -0.888401 6.01196 -1.92939Q6.54433 -2.97038 6.54433 -5.05235Q6.54433 -7.14111 6.01196 -8.1821Q5.4796 -9.22309 4.41488 -9.22309ZM4.41488 -10.3082Q6.11708 -10.3082 7.01565 -8.962Q7.91422 -7.61583 7.91423 -5.05235Q7.91423 -2.49566 7.01565 -1.1495Q6.11708 0.196669 4.41488 0.196669Q2.71267 0.196669 1.8141 -1.1495Q0.915527 -2.49566 0.915527 -5.05235Q0.915527 -7.61583 1.8141 -8.962Q2.71267 -10.3082 4.41488 -10.3082ZM10.3217 -1.72255L11.7527 -1.72255L11.7527 0L10.3217 0L10.3217 -1.72255ZM15.9166 -1.15289L20.6977 -1.15289L20.6977 0L14.2687 0L14.2687 -1.15289Q15.0486 -1.95991 16.3947 -3.31963Q17.7409 -4.67936 18.0868 -5.0727Q18.7446 -5.8119 19.0057 -6.32392Q19.2668 -6.83594 19.2668 -7.331Q19.2668 -8.13802 18.7005 -8.64665Q18.1342 -9.15527 17.2255 -9.15527Q16.5812 -9.15527 15.8658 -8.93148Q15.1503 -8.70768 14.3365 -8.25331L14.3365 -9.63677Q15.1638 -9.96908 15.8827 -10.1386Q16.6016 -10.3082 17.1984 -10.3082Q18.7717 -10.3082 19.7076 -9.52148Q20.6434 -8.73481 20.6434 -7.41916Q20.6434 -6.79525 20.4095 -6.23576Q20.1755 -5.67627 19.5584 -4.91672Q19.3888 -4.72005 18.4801 -3.78079Q17.5713 -2.84153 15.9166 -1.15289Z" fill="#262626" transform="translate(465.0564929151542,462.8053933840104) translate(-11.043972969055176,0)" />
<line x1="466.52028807977683" y1="429.7731795727671" x2="469.7488675333891" y2="433.4072786284177" stroke="#262626" stroke-width="1.1111111111111112" />
<path d="M4.41488 -9.22309Q3.35693 -9.22309 2.82457 -8.1821Q2.29221 -7.14111 2.29221 -5.05235Q2.29221 -2.97038 2.82457 -1.92939Q3.35693 -0.888401 4.41488 -0.888401Q5.4796 -0.888401 6.01196 -1.92939Q6.54433 -2.97038 6.54433 -5.05235Q6.54433 -7.14111 6.01196 -8.1821Q5.4796 -9.22309 4.41488 -9.22309ZM4.41488 -10.3082Q6.11708 -10.3082 7.01565 -8.962Q7.91422 -7.61583 7.91423 -5.05235Q7.91423 -2.49566 7.01565 -1.1495Q6.11708 0.196669 4.41488 0.196669Q2.71267 0.196669 1.8141 -1.1495Q0.915527 -2.49566 0.915527 -5.05235Q0.915527 -7.61583 1.8141 -8.962Q2.71267 -10.3082 4.41488 -10.3082ZM10.3217 -1.72255L11.7527 -1.72255L11.7527 0L10.3217 0L10.3217 -1.72255ZM18.5004 -8.93148L15.0418 -3.52648L18.5004 -3.52648L18.5004 -8.93148ZM18.141 -10.1251L19.8636 -10.1251L19.8636 -3.52648L21.3081 -3.52648L21.3081 -2.38715L19.8636 -2.38715L19.8636 0L18.5004 0L18.5004 -2.38715L13.9296 -2.38715L13.9296 -3.70958L18.141 -10.1251Z" fill="#262626" transform="translate(482.27575581340466,447.5075829643421) translate(-11.043972969055176,0)" />
<line x1="483.35891564522586" y1="414.81353038535525" x2="486.58749509883813" y2="418.44762944100586" stroke="#262626" stroke-width="1.1111111111111112" />
<path d="M4.41488 -9.22309Q3.35693 -9.22309 2.82457 -8.1821Q2.29221 -7.14111 2.29221 -5.05235Q2.29221 -2.97038 2.82457 -1.92939Q3.35693 -0.888401 4.41488 -0.888401Q5.4796 -0.888401 6.01196 -1.92939Q6.54433 -2.97038 6.54433 -5.05235Q6.54433 -7.14111 6.01196 -8.1821Q5.4796 -9.22309 4.41488 -9.22309ZM4.41488 -10.3082Q6.11708 -10.3082 7.01565 -8.962Q7.91422 -7.61583 7.91423 -5.05235Q7.91423 -2.49566 7.01565 -1.1495Q6.11708 0.196669 4.41488 0.196669Q2.71267 0.196669 1.8141 -1.1495Q0.915527 -2.49566 0.915527 -5.05235Q0.915527 -7.61583 1.8141 -8.962Q2.71267 -10.3082 4.41488 -10.3082ZM10.3217 -1.72255L11.7527 -1.72255L11.7527 0L10.3217 0L10.3217 -1.72255ZM17.8358 -5.60845Q16.9135 -5.60845 16.3744 -4.97776Q15.8352 -4.34706 15.8352 -3.24843Q15.8352 -2.15658 16.3744 -1.52249Q16.9135 -0.888401 17.8358 -0.888401Q18.7581 -0.888401 19.2973 -1.52249Q19.8364 -2.15658 19.8364 -3.24843Q19.8364 -4.34706 19.2973 -4.97776Q18.7581 -5.60845 17.8358 -5.60845ZM20.5553 -9.90126L20.5553 -8.65343Q20.0399 -8.89757 19.5143 -9.02642Q18.9887 -9.15527 18.4733 -9.15527Q17.117 -9.15527 16.4015 -8.23975Q15.686 -7.32422 15.5843 -5.47282Q15.9844 -6.06282 16.588 -6.37817Q17.1916 -6.69352 17.9172 -6.69352Q19.4431 -6.69352 20.3281 -5.76782Q21.2131 -4.84212 21.2131 -3.24843Q21.2131 -1.68864 20.2908 -0.745985Q19.3685 0.196669 17.8358 0.196669Q16.0794 0.196669 15.1503 -1.1495Q14.2212 -2.49566 14.2212 -5.05235Q14.2212 -7.45307 15.3605 -8.88062Q16.4998 -10.3082 18.4191 -10.3082Q18.9345 -10.3082 19.46 -10.2064Q19.9856 -10.1047 20.5553 -9.90126Z" fill="#262626" transform="translate(499.1143833788537,432.5479337769302) translate(-11.043972969055176,0)" />
<line x1="499.82939094052176" y1="400.1809523198406" x2="503.05797039413403" y2="403.81505137549124" stroke="#262626" stroke-width="1.1111111111111112" />
<path d="M4.41488 -9.22309Q3.35693 -9.22309 2.82457 -8.1821Q2.29221 -7.14111 2.29221 -5.05235Q2.29221 -2.97038 2.82457 -1.92939Q3.35693 -0.888401 4.41488 -0.888401Q5.4796 -0.888401 6.01196 -1.92939Q6.54433 -2.97038 6.54433 -5.05235Q6.54433 -7.14111 6.01196 -8.1821Q5.4796 -9.22309 4.41488 -9.22309ZM4.41488 -10.3082Q6.11708 -10.3082 7.01565 -8.962Q7.91422 -7.61583 7.91423 -5.05235Q7.91423 -2.49566 7.01565 -1.1495Q6.11708 0.196669 4.41488 0.196669Q2.71267 0.196669 1.8141 -1.1495Q0.915527 -2.49566 0.915527 -5.05235Q0.915527 -7.61583 1.8141 -8.962Q2.71267 -10.3082 4.41488 -10.3082ZM10.3217 -1.72255L11.7527 -1.72255L11.7527 0L10.3217 0L10.3217 -1.72255ZM17.6663 -4.80821Q16.6897 -4.80821 16.1302 -4.28602Q15.5707 -3.76383 15.5707 -2.84831Q15.5707 -1.93278 16.1302 -1.41059Q16.6897 -0.888401 17.6663 -0.888401Q18.6428 -0.888401 19.2057 -1.41398Q19.7686 -1.93956 19.7686 -2.84831Q19.7686 -3.76383 19.2091 -4.28602Q18.6496 -4.80821 17.6663 -4.80821ZM16.2964 -5.39144Q15.4148 -5.60845 14.9231 -6.21202Q14.4314 -6.81559 14.4314 -7.68365Q14.4314 -8.89757 15.2961 -9.60287Q16.1608 -10.3082 17.6663 -10.3082Q19.1786 -10.3082 20.0399 -9.60287Q20.9012 -8.89757 20.9012 -7.68365Q20.9012 -6.81559 20.4095 -6.21202Q19.9178 -5.60845 19.043 -5.39144Q20.0331 -5.16086 20.5858 -4.48947Q21.1385 -3.81809 21.1385 -2.84831Q21.1385 -1.37668 20.2399 -0.590007Q19.3414 0.196669 17.6663 0.196669Q15.9912 0.196669 15.0926 -0.590007Q14.1941 -1.37668 14.1941 -2.84831Q14.1941 -3.81809 14.7502 -4.48947Q15.3063 -5.16086 16.2964 -5.39144ZM15.7945 -7.5548Q15.7945 -6.76812 16.2862 -6.32731Q16.7779 -5.8865 17.6663 -5.8865Q18.5479 -5.8865 19.0464 -6.32731Q19.5448 -6.76812 19.5448 -7.5548Q19.5448 -8.34147 19.0464 -8.78228Q18.5479 -9.22309 17.6663 -9.22309Q16.7779 -9.22309 16.2862 -8.78228Q15.7945 -8.34147 15.7945 -7.5548Z" fill="#262626" transform="translate(515.5848586741496,417.9153557114156) translate(-11.043972969055176,0)" />
<line x1="515.9436570826101" y1="385.8648349604386" x2="519.1722365362224" y2="389.4989340160892" stroke="#262626" stroke-width="1.1111111111111112" />
<path d="M1.72255 -1.15289L3.9605 -1.15289L3.9605 -8.87722L1.52588 -8.38894L1.52588 -9.63677L3.94694 -10.1251L5.31684 -10.1251L5.31684 -1.15289L7.5548 -1.15289L7.5548 0L1.72255 0L1.72255 -1.15289ZM10.3217 -1.72255L11.7527 -1.72255L11.7527 0L10.3217 0L10.3217 -1.72255ZM17.6663 -9.22309Q16.6083 -9.22309 16.076 -8.1821Q15.5436 -7.14111 15.5436 -5.05235Q15.5436 -2.97038 16.076 -1.92939Q16.6083 -0.888401 17.6663 -0.888401Q18.731 -0.888401 19.2634 -1.92939Q19.7957 -2.97038 19.7957 -5.05235Q19.7957 -7.14111 19.2634 -8.1821Q18.731 -9.22309 17.6663 -9.22309ZM17.6663 -10.3082Q19.3685 -10.3082 20.2671 -8.962Q21.1656 -7.61583 21.1656 -5.05235Q21.1656 -2.49566 20.2671 -1.1495Q19.3685 0.196669 17.6663 0.196669Q15.9641 0.196669 15.0655 -1.1495Q14.1669 -2.49566 14.1669 -5.05235Q14.1669 -7.61583 15.0655 -8.962Q15.9641 -10.3082 17.6663 -10.3082Z" fill="#262626" transform="translate(531.6991248162379,403.5992383520136) translate(-11.043972969055176,0)" />
<line x1="531.7131461241171" y1="371.8550219273544" x2="534.9417255777294" y2="375.489120983005" stroke="#262626" stroke-width="1.1111111111111112" />
<path d="M1.72255 -1.15289L3.9605 -1.15289L3.9605 -8.87722L1.52588 -8.38894L1.52588 -9.63677L3.94694 -10.1251L5.31684 -10.1251L5.31684 -1.15289L7.5548 -1.15289L7.5548 0L1.72255 0L1.72255 -1.15289ZM10.3217 -1.72255L11.7527 -1.72255L11.7527 0L10.3217 0L10.3217 -1.72255ZM15.9166 -1.15289L20.6977 -1.15289L20.6977 0L14.2687 0L14.2687 -1.15289Q15.0486 -1.95991 16.3947 -3.31963Q17.7409 -4.67936 18.0868 -5.0727Q18.7446 -5.8119 19.0057 -6.32392Q19.2668 -6.83594 19.2668 -7.331Q19.2668 -8.13802 18.7005 -8.64665Q18.1342 -9.15527 17.2255 -9.15527Q16.5812 -9.15527 15.8658 -8.93148Q15.1503 -8.70768 14.3365 -8.25331L14.3365 -9.63677Q15.1638 -9.96908 15.8827 -10.1386Q16.6016 -10.3082 17.1984 -10.3082Q18.7717 -10.3082 19.7076 -9.52148Q20.6434 -8.73481 20.6434 -7.41916Q20.6434 -6.79525 20.4095 -6.23576Q20.1755 -5.67627 19.5584 -4.91672Q19.3888 -4.72005 18.4801 -3.78079Q17.5713 -2.84153 15.9166 -1.15289Z" fill="#262626" transform="translate(547.4686138577449,389.5894253189294) translate(-11.043972969055176,0)" />
<line x1="547.1488061005352" y1="358.14178684772173" x2="550.3773855541475" y2="361.77588590337234" stroke="#262626" stroke-width="1.1111111111111112" />
<path d="M1.72255 -1.15289L3.9605 -1.15289L3.9605 -8.87722L1.52588 -8.38894L1.52588 -9.63677L3.94694 -10.1251L5.31684 -10.1251L5.31684 -1.15289L7.5548 -1.15289L7.5548 0L1.72255 0L1.72255 -1.15289ZM10.3217 -1.72255L11.7527 -1.72255L11.7527 0L10.3217 0L10.3217 -1.72255ZM18.5004 -8.93148L15.0418 -3.52648L18.5004 -3.52648L18.5004 -8.93148ZM18.141 -10.1251L19.8636 -10.1251L19.8636 -3.52648L21.3081 -3.52648L21.3081 -2.38715L19.8636 -2.38715L19.8636 0L18.5004 0L18.5004 -2.38715L13.9296 -2.38715L13.9296 -3.70958L18.141 -10.1251Z" fill="#262626" transform="translate(562.9042738341631,375.8761902392967) translate(-11.043972969055176,0)" />
<line x1="562.2611263776907" y1="344.7158108365924" x2="565.489705831303" y2="348.34990989224303" stroke="#262626" stroke-width="1.1111111111111112" />
<path d="M1.72255 -1.15289L3.9605 -1.15289L3.9605 -8.87722L1.52588 -8.38894L1.52588 -9.63677L3.94694 -10.1251L5.31684 -10.1251L5.31684 -1.15289L7.5548 -1.15289L7.5548 0L1.72255 0L1.72255 -1.15289ZM10.3217 -1.72255L11.7527 -1.72255L11.7527 0L10.3217 0L10.3217 -1.72255ZM17.8358 -5.60845Q16.9135 -5.60845 16.3744 -4.97776Q15.8352 -4.34706 15.8352 -3.24843Q15.8352 -2.15658 16.3744 -1.52249Q16.9135 -0.888401 17.8358 -0.888401Q18.7581 -0.888401 19.2973 -1.52249Q19.8364 -2.15658 19.8364 -3.24843Q19.8364 -4.34706 19.2973 -4.97776Q18.7581 -5.60845 17.8358 -5.60845ZM20.5553 -9.90126L20.5553 -8.65343Q20.0399 -8.89757 19.5143 -9.02642Q18.9887 -9.15527 18.4733 -9.15527Q17.117 -9.15527 16.4015 -8.23975Q15.686 -7.32422 15.5843 -5.47282Q15.9844 -6.06282 16.588 -6.37817Q17.1916 -6.69352 17.9172 -6.69352Q19.4431 -6.69352 20.3281 -5.76782Q21.2131 -4.84212 21.2131 -3.24843Q21.2131 -1.68864 20.2908 -0.745985Q19.3685 0.196669 17.8358 0.196669Q16.0794 0.196669 15.1503 -1.1495Q14.2212 -2.49566 14.2212 -5.05235Q14.2212 -7.45307 15.3605 -8.88062Q16.4998 -10.3082 18.4191 -10.3082Q18.9345 -10.3082 19.46 -10.2064Q19.9856 -10.1047 20.5553 -9.90126Z" fill="#262626" transform="translate(578.0165941113186,362.4502142281674) translate(-11.043972969055176,0)" />
<line x1="562.9617528841759" y1="344.0933654082057" x2="567.8195353315439" y2="344.2732290471423" stroke="#262626" stroke-width="1.1111111111111112" />
<path d="M4.41488 -9.22309Q3.35693 -9.22309 2.82457 -8.1821Q2.29221 -7.14111 2.29221 -5.05235Q2.29221 -2.97038 2.82457 -1.92939Q3.35693 -0.888401 4.41488 -0.888401Q5.4796 -0.888401 6.01196 -1.92939Q6.54433 -2.97038 6.54433 -5.05235Q6.54433 -7.14111 6.01196 -8.1821Q5.4796 -9.22309 4.41488 -9.22309ZM4.41488 -10.3082Q6.11708 -10.3082 7.01565 -8.962Q7.91422 -7.61583 7.91423 -5.05235Q7.91423 -2.49566 7.01565 -1.1495Q6.11708 0.196669 4.41488 0.196669Q2.71267 0.196669 1.8141 -1.1495Q0.915527 -2.49566 0.915527 -5.05235Q0.915527 -7.61583 1.8141 -8.962Q2.71267 -10.3082 4.41488 -10.3082Z" fill="#262626" transform="translate(586.6677312273316,344.9710999662161) translate(-4.418267250061035,0)" />
<line x1="564.1548503380333" y1="311.87002163725094" x2="569.0126327854013" y2="312.0498852761875" stroke="#262626" stroke-width="1.1111111111111112" />
<path d="M1.72255 -1.15289L3.9605 -1.15289L3.9605 -8.87722L1.52588 -8.38894L1.52588 -9.63677L3.94694 -10.1251L5.31684 -10.1251L5.31684 -1.15289L7.5548 -1.15289L7.5548 0L1.72255 0L1.72255 -1.15289Z" fill="#262626" transform="translate(587.860828681189,312.74775619526133) translate(-4.418267250061035,0)" />
<line x1="565.3622716262183" y1="279.2598177349897" x2="570.2200540735863" y2="279.4396813739263" stroke="#262626" stroke-width="1.1111111111111112" />
<path d="M2.6652 -1.15289L7.44629 -1.15289L7.44629 0L1.01725 0L1.01725 -1.15289Q1.79715 -1.95991 3.14331 -3.31963Q4.48947 -4.67936 4.83534 -5.0727Q5.49316 -5.8119 5.75426 -6.32392Q6.01535 -6.83594 6.01535 -7.331Q6.01535 -8.13802 5.44908 -8.64665Q4.88281 -9.15527 3.97407 -9.15527Q3.32981 -9.15527 2.61434 -8.93148Q1.89887 -8.70768 1.08507 -8.25331L1.08507 -9.63677Q1.91243 -9.96908 2.63129 -10.1386Q3.35015 -10.3082 3.94694 -10.3082Q5.52029 -10.3082 6.45616 -9.52148Q7.39204 -8.73481 7.39204 -7.41916Q7.39204 -6.79525 7.15807 -6.23576Q6.9241 -5.67627 6.30697 -4.91672Q6.13742 -4.72005 5.22868 -3.78079Q4.31993 -2.84153 2.6652 -1.15289Z" fill="#262626" transform="translate(589.068249969374,280.1375522930001) translate(-4.418267250061035,0)" />
<line x1="566.5842762555385" y1="246.25574490508697" x2="571.4420587029065" y2="246.43560854402352" stroke="#262626" stroke-width="1.1111111111111112" />
<path d="M5.63558 -5.45926Q6.61892 -5.24902 7.17163 -4.58442Q7.72434 -3.91981 7.72434 -2.94325Q7.72434 -1.4445 6.69352 -0.623915Q5.66271 0.196669 3.76383 0.196669Q3.12636 0.196669 2.45158 0.0712077Q1.7768 -0.0542535 1.05794 -0.305176L1.05794 -1.6276Q1.6276 -1.2953 2.30577 -1.12576Q2.98394 -0.956217 3.72314 -0.956217Q5.01166 -0.956217 5.68644 -1.46484Q6.36122 -1.97347 6.36122 -2.94325Q6.36122 -3.83843 5.73391 -4.34367Q5.10661 -4.8489 3.98763 -4.8489L2.80762 -4.8489L2.80762 -5.97466L4.04188 -5.97466Q5.05235 -5.97466 5.58811 -6.37817Q6.12386 -6.78168 6.12386 -7.54123Q6.12386 -8.32113 5.57115 -8.7382Q5.01845 -9.15527 3.98763 -9.15527Q3.42475 -9.15527 2.78049 -9.0332Q2.13623 -8.91113 1.36312 -8.65343L1.36312 -9.87413Q2.14301 -10.0911 2.82457 -10.1997Q3.50613 -10.3082 4.1097 -10.3082Q5.66949 -10.3082 6.57823 -9.59947Q7.48698 -8.89079 7.48698 -7.68365Q7.48698 -6.84272 7.00548 -6.26289Q6.52398 -5.68305 5.63558 -5.45926Z" fill="#262626" transform="translate(590.2902545986942,247.13347946309736) translate(-4.418267250061035,0)" />
<line x1="567.82113003958" y1="212.85062401682632" x2="572.678912486948" y2="213.03048765576287" stroke="#262626" stroke-width="1.1111111111111112" />
<path d="M5.24902 -8.93148L1.79036 -3.52648L5.24902 -3.52648L5.24902 -8.93148ZM4.88959 -10.1251L6.61214 -10.1251L6.61214 -3.52648L8.05664 -3.52648L8.05664 -2.38715L6.61214 -2.38715L6.61214 0L5.24902 0L5.24902 -2.38715L0.678168 -2.38715L0.678168 -3.70958L4.88959 -10.1251Z" fill="#262626" transform="translate(591.5271083827357,213.7283585748367) translate(-4.418267250061035,0)" />
<line x1="569.0731052914718" y1="179.0371003989454" x2="573.9308877388398" y2="179.21696403788195" stroke="#262626" stroke-width="1.1111111111111112" />
<path d="M1.49875 -10.1251L6.87663 -10.1251L6.87663 -8.97217L2.75336 -8.97217L2.75336 -6.49007Q3.05176 -6.5918 3.35015 -6.64266Q3.64855 -6.69352 3.94694 -6.69352Q5.64236 -6.69352 6.63249 -5.76443Q7.62261 -4.83534 7.62261 -3.24843Q7.62261 -1.61404 6.60536 -0.708686Q5.58811 0.196669 3.73671 0.196669Q3.09923 0.196669 2.43802 0.0881619C1.99721 0.0158239 1.5417 -0.092683 1.07151 -0.237359L1.07151 -1.61404Q1.68186 -1.28174 2.3329 -1.11898Q2.98394 -0.956217 3.70958 -0.956217Q4.88281 -0.956217 5.56776 -1.57335Q6.25271 -2.19048 6.25271 -3.24843Q6.25271 -4.30637 5.56776 -4.9235Q4.88281 -5.54064 3.70958 -5.54064Q3.16026 -5.54064 2.61434 -5.41857Q2.06841 -5.2965 1.49875 -5.03879L1.49875 -10.1251Z" fill="#262626" transform="translate(592.7790836346276,179.9148349569558) translate(-4.418267250061035,0)" />
<line x1="570.340481023761" y1="144.80763844134873" x2="575.1982634711289" y2="144.98750208028528" stroke="#262626" stroke-width="1.1111111111111112" />
<path d="M4.58442 -5.60845Q3.66211 -5.60845 3.12297 -4.97776Q2.58382 -4.34706 2.58382 -3.24843Q2.58382 -2.15658 3.12297 -1.52249Q3.66211 -0.888401 4.58442 -0.888401Q5.50673 -0.888401 6.04587 -1.52249Q6.58502 -2.15658 6.58502 -3.24843Q6.58502 -4.34706 6.04587 -4.97776Q5.50673 -5.60845 4.58442 -5.60845ZM7.30387 -9.90126L7.30387 -8.65343Q6.78847 -8.89757 6.26289 -9.02642Q5.7373 -9.15527 5.2219 -9.15527Q3.86556 -9.15527 3.15009 -8.23975Q2.43462 -7.32422 2.3329 -5.47282Q2.73302 -6.06282 3.33659 -6.37817Q3.94016 -6.69352 4.6658 -6.69352Q6.19168 -6.69352 7.07669 -5.76782Q7.9617 -4.84212 7.9617 -3.24843Q7.9617 -1.68864 7.03939 -0.745985Q6.11708 0.196669 4.58442 0.196669Q2.82796 0.196669 1.89887 -1.1495Q0.969781 -2.49566 0.969781 -5.05235Q0.969781 -7.45307 2.1091 -8.88062Q3.24843 -10.3082 5.16764 -10.3082Q5.68305 -10.3082 6.20863 -10.2064Q6.73421 -10.1047 7.30387 -9.90126Z" fill="#262626" transform="translate(594.0464593669167,145.68537299935912) translate(-4.418267250061035,0)" />
<script type="text/ecmascript"><![CDATA[
(function() {
    'use strict';
    var scenes = document.querySelectorAll('.mpl-3d-scene');
    scenes.forEach(function(scene) {
        var elevation = parseFloat(scene.getAttribute('data-elevation') || '30');
        var azimuth   = parseFloat(scene.getAttribute('data-azimuth')   || '-60');
        var distance  = scene.hasAttribute('data-distance') ? parseFloat(scene.getAttribute('data-distance')) : null;
        var plotX     = parseFloat(scene.getAttribute('data-plot-x') || '0');
        var plotY     = parseFloat(scene.getAttribute('data-plot-y') || '0');
        var plotW     = parseFloat(scene.getAttribute('data-plot-w') || '400');
        var plotH     = parseFloat(scene.getAttribute('data-plot-h') || '300');

        var initEl = elevation, initAz = azimuth;
        var dragging = false, lastX = 0, lastY = 0;

        function degToRad(d) { return d * Math.PI / 180; }

        function project(nx, ny, nz) {
            var azRad = degToRad(azimuth), elRad = degToRad(elevation);
            var cosAz = Math.cos(azRad), sinAz = Math.sin(azRad);
            var cosEl = Math.cos(elRad), sinEl = Math.sin(elRad);
            var rx = nx * cosAz - ny * sinAz;
            var ry = nx * sinAz + ny * cosAz;
            var rz = nz;
            var pz = ry * sinEl + rz * cosEl;
            if (distance !== null) {
                var viewDepth = ry * cosEl - rz * sinEl;
                var scale = distance / (distance - viewDepth);
                rx *= scale; pz *= scale;
            }
            var px = plotX + plotW * (rx + 1) / 2;
            var py = plotY + plotH * (1 - (pz + 1) / 2);
            return [px, py];
        }

        function viewZ(nx, ny, nz) {
            var azRad = degToRad(azimuth), elRad = degToRad(elevation);
            var cosAz = Math.cos(azRad), sinAz = Math.sin(azRad);
            var cosEl = Math.cos(elRad), sinEl = Math.sin(elRad);
            var ry = nx * sinAz + ny * cosAz;
            return ry * cosEl - nz * sinEl;
        }

        function avgViewZ(el) {
            var raw = el.getAttribute('data-v3d');
            if (!raw) return 0;
            var pts = raw.trim().split(' ');
            var sum = 0;
            for (var i = 0; i < pts.length; i++) {
                var c = pts[i].split(',');
                sum += viewZ(parseFloat(c[0]), parseFloat(c[1]), parseFloat(c[2]));
            }
            return sum / pts.length;
        }

        function resortDepth() {
            var children = Array.from(scene.children).filter(function(c) { return c.hasAttribute('data-v3d'); });
            children.sort(function(a, b) { return avgViewZ(a) - avgViewZ(b); });
            children.forEach(function(c) { scene.appendChild(c); });
        }

        function reprojectAll() {
            var polys = scene.querySelectorAll('[data-v3d]');
            polys.forEach(function(el) {
                var raw = el.getAttribute('data-v3d');
                var pts = raw.trim().split(' ');
                var points = pts.map(function(p) {
                    var c = p.split(',');
                    return project(parseFloat(c[0]), parseFloat(c[1]), parseFloat(c[2]));
                });
                if (el.tagName === 'polygon' || el.tagName === 'polyline') {
                    el.setAttribute('points', points.map(function(p) { return p[0].toFixed(2) + ',' + p[1].toFixed(2); }).join(' '));
                } else if (el.tagName === 'circle' && points.length > 0) {
                    el.setAttribute('cx', points[0][0].toFixed(2));
                    el.setAttribute('cy', points[0][1].toFixed(2));
                }
            });
            resortDepth();
        }

        scene.addEventListener('mousedown', function(e) { dragging = true; lastX = e.clientX; lastY = e.clientY; e.preventDefault(); });
        document.addEventListener('mousemove', function(e) {
            if (!dragging) return;
            azimuth   += (e.clientX - lastX) * 0.5;
            elevation -= (e.clientY - lastY) * 0.5;
            elevation = Math.max(-90, Math.min(90, elevation));
            lastX = e.clientX; lastY = e.clientY;
            reprojectAll();
        });
        document.addEventListener('mouseup', function() { dragging = false; });

        scene.setAttribute('style', 'cursor:grab');
        scene.addEventListener('keydown', function(e) {
            switch(e.key) {
                case 'ArrowLeft':  azimuth   -= 5; break;
                case 'ArrowRight': azimuth   += 5; break;
                case 'ArrowUp':    elevation += 5; break;
                case 'ArrowDown':  elevation -= 5; break;
                case '+': if (distance !== null) distance = Math.max(2, distance - 0.5); break;
                case '-': if (distance !== null) distance = distance + 0.5; break;
                case 'Home': elevation = initEl; azimuth = initAz; break;
                default: return;
            }
            elevation = Math.max(-90, Math.min(90, elevation));
            reprojectAll();
            e.preventDefault();
        });
        scene.setAttribute('tabindex', '0');
    });
})();
]]></script>
</svg>
