<svg xmlns="http://www.w3.org/2000/svg" viewBox="0 0 700 600" width="700" height="600" role="img" aria-labelledby="chart-title">
<title id="chart-title">3D Scatter — Paraboloid with noise</title>
<rect x="0" y="0" width="700" height="600" fill="#FFFFFF" />
<path d="M8.33301 -7.03152Q9.65196 -6.69086 10.3376 -5.84795Q11.0233 -5.00504 11.0233 -3.70356Q11.0233 -1.76443 9.53841 -0.755561Q8.05349 0.253309 5.20595 0.253309Q4.20144 0.253309 3.19257 0.0917155Q2.1837 -0.0698785 1.19667 -0.393066L1.19667 -2.9873Q2.14003 -2.51563 3.07029 -2.27542Q4.00054 -2.03521 4.90023 -2.03521Q6.23665 -2.03521 6.94854 -2.49816Q7.66043 -2.9611 7.66043 -3.82585Q7.66043 -4.7168 6.93107 -5.17537Q6.20171 -5.63395 4.77794 -5.63395L3.43278 -5.63395L3.43278 -7.80018L4.84782 -7.80018Q6.11437 -7.80018 6.73454 -8.19762Q7.35471 -8.59505 7.35471 -9.40739Q7.35471 -10.1586 6.75201 -10.5691Q6.14931 -10.9797 5.04872 -10.9797Q4.23638 -10.9797 3.40658 -10.7962Q2.57677 -10.6128 1.7557 -10.2547L1.7557 -12.7179Q2.75146 -12.9974 3.72976 -13.1372Q4.70806 -13.2769 5.65142 -13.2769Q8.19325 -13.2769 9.45543 -12.4427Q10.7176 -11.6086 10.7176 -9.93148Q10.7176 -8.78722 10.1149 -8.05786Q9.51221 -7.32851 8.33301 -7.03152ZM17.4521 -10.4992L17.4521 -2.54183L18.6576 -2.54183Q20.719 -2.54183 21.8065 -3.5638Q22.8939 -4.58577 22.8939 -6.53364Q22.8939 -8.47276 21.8108 -9.486Q20.7277 -10.4992 18.6576 -10.4992L17.4521 -10.4992ZM14.0892 -13.0411L17.6356 -13.0411Q20.6054 -13.0411 22.0598 -12.6174Q23.5141 -12.1938 24.5535 -11.1806Q25.4707 -10.2983 25.9162 -9.14535Q26.3617 -7.99235 26.3617 -6.53364Q26.3617 -5.05745 25.9162 -3.90009Q25.4707 -2.74273 24.5535 -1.86051Q23.5054 -0.847276 22.0379 -0.423638Q20.5705 0 17.6356 0L14.0892 0L14.0892 -13.0411ZM44.2418 -12.6305L44.2418 -9.87033Q43.1674 -10.3507 42.1455 -10.5953Q41.1235 -10.8399 40.2151 -10.8399Q39.0097 -10.8399 38.4332 -10.508Q37.8567 -10.1761 37.8567 -9.47727Q37.8567 -8.95318 38.2454 -8.66056Q38.6341 -8.36795 39.656 -8.15831L41.0885 -7.87006Q43.2635 -7.43332 44.1807 -6.54237Q45.0978 -5.65142 45.0978 -4.00928Q45.0978 -1.85178 43.8182 -0.799235Q42.5385 0.253309 39.9093 0.253309Q38.669 0.253309 37.4199 0.0174696Q36.1708 -0.21837 34.9218 -0.681315L34.9218 -3.52013Q36.1708 -2.85628 37.3369 -2.51999Q38.503 -2.1837 39.5862 -2.1837Q40.6867 -2.1837 41.272 -2.55056Q41.8572 -2.91743 41.8572 -3.59874Q41.8572 -4.21018 41.4598 -4.5421Q41.0623 -4.87402 39.8744 -5.13607L38.5729 -5.42432Q36.6163 -5.84359 35.7123 -6.76074Q34.8082 -7.6779 34.8082 -9.23269Q34.8082 -11.1806 36.066 -12.2287Q37.3238 -13.2769 39.6822 -13.2769Q40.7566 -13.2769 41.8921 -13.1153Q43.0277 -12.9537 44.2418 -12.6305ZM55.8154 -9.47727L55.8154 -6.9267Q55.1778 -7.36344 54.5358 -7.57308Q53.8938 -7.78271 53.2037 -7.78271Q51.8935 -7.78271 51.1641 -7.01842Q50.4348 -6.25412 50.4348 -4.88276Q50.4348 -3.51139 51.1641 -2.7471Q51.8935 -1.9828 53.2037 -1.9828Q53.9374 -1.9828 54.5969 -2.20117Q55.2564 -2.41954 55.8154 -2.84755L55.8154 -0.288249C55.3263 -0.107729 54.8299 0.0276602 54.3261 0.11792Q53.5706 0.253309 52.8107 0.253309Q50.164 0.253309 48.6704 -1.10495Q47.1767 -2.46322 47.1767 -4.88276Q47.1767 -7.3023 48.6704 -8.66056Q50.164 -10.0188 52.8107 -10.0188Q53.5793 -10.0188 54.3261 -9.88344Q55.073 -9.74805 55.8154 -9.47727ZM62.8994 -4.40234Q61.9211 -4.40234 61.4275 -4.07042Q60.934 -3.7385 60.934 -3.09212Q60.934 -2.49816 61.3315 -2.16187Q61.7289 -1.82558 62.4364 -1.82558Q63.3186 -1.82558 63.9213 -2.45885Q64.524 -3.09212 64.524 -4.04422L64.524 -4.40234L62.8994 -4.40234ZM67.6773 -5.58154L67.6773 0L64.524 0L64.524 -1.44998Q63.8951 -0.559028 63.109 -0.152859Q62.3229 0.253309 61.1961 0.253309Q59.6762 0.253309 58.7285 -0.633274Q57.7808 -1.51986 57.7808 -2.9349Q57.7808 -4.65565 58.9643 -5.45926Q60.1479 -6.26286 62.681 -6.26286L64.524 -6.26286L64.524 -6.50743Q64.524 -7.24989 63.9388 -7.59492Q63.3536 -7.93994 62.1132 -7.93994Q61.1087 -7.93994 60.244 -7.73904Q59.3792 -7.53814 58.6368 -7.13634L58.6368 -9.52094Q59.6413 -9.76552 60.6545 -9.89217Q61.6678 -10.0188 62.681 -10.0188Q65.3276 -10.0188 66.5025 -8.97502Q67.6773 -7.93121 67.6773 -5.58154ZM74.0013 -12.5607L74.0013 -9.78299L77.2244 -9.78299L77.2244 -7.54688L74.0013 -7.54688L74.0013 -3.39784Q74.0013 -2.71653 74.2721 -2.47632Q74.5429 -2.23611 75.3465 -2.23611L76.9537 -2.23611L76.9537 0L74.2721 0Q72.4203 0 71.6473 -0.773031Q70.8742 -1.54606 70.8742 -3.39784L70.8742 -7.54688L69.3194 -7.54688L69.3194 -9.78299L70.8742 -9.78299L70.8742 -12.5607L74.0013 -12.5607ZM82.5527 -12.5607L82.5527 -9.78299L85.7758 -9.78299L85.7758 -7.54688L82.5527 -7.54688L82.5527 -3.39784Q82.5527 -2.71653 82.8235 -2.47632Q83.0942 -2.23611 83.8978 -2.23611L85.505 -2.23611L85.505 0L82.8235 0Q80.9717 0 80.1986 -0.773031Q79.4256 -1.54606 79.4256 -3.39784L79.4256 -7.54688L77.8708 -7.54688L77.8708 -9.78299L79.4256 -9.78299L79.4256 -12.5607L82.5527 -12.5607ZM97.4543 -4.9177L97.4543 -4.02675L90.1432 -4.02675Q90.2568 -2.92616 90.9381 -2.37587Q91.6194 -1.82558 92.8423 -1.82558Q93.8293 -1.82558 94.8644 -2.11819Q95.8995 -2.41081 96.9913 -3.00477L96.9913 -0.593967Q95.882 -0.174696 94.7727 0.0393066Q93.6634 0.253309 92.554 0.253309Q89.8987 0.253309 88.4268 -1.09622Q86.955 -2.44575 86.955 -4.88276Q86.955 -7.2761 88.4006 -8.64746Q89.8462 -10.0188 92.3793 -10.0188Q94.6853 -10.0188 96.0698 -8.62999Q97.4543 -7.24116 97.4543 -4.9177ZM94.2399 -5.95714Q94.2399 -6.84809 93.7201 -7.39402Q93.2004 -7.93994 92.3619 -7.93994Q91.4534 -7.93994 90.8857 -7.42896Q90.3179 -6.91797 90.1782 -5.95714L94.2399 -5.95714ZM107.089 -7.11887Q106.678 -7.31103 106.272 -7.40275Q105.866 -7.49447 105.455 -7.49447Q104.25 -7.49447 103.599 -6.72144Q102.948 -5.94841 102.948 -4.50716L102.948 0L99.8214 0L99.8214 -9.78299L102.948 -9.78299L102.948 -8.17578Q103.551 -9.13661 104.333 -9.57772Q105.115 -10.0188 106.207 -10.0188Q106.364 -10.0188 106.547 -10.0057Q106.731 -9.99262 107.08 -9.94895L107.089 -7.11887ZM114.33 -6.02702L130.297 -6.02702L130.297 -3.77344L114.33 -3.77344L114.33 -6.02702ZM139.128 -13.0411L144.71 -13.0411Q147.199 -13.0411 148.531 -11.9361Q149.863 -10.8312 149.863 -8.78722Q149.863 -6.73454 148.531 -5.62958Q147.199 -4.52463 144.71 -4.52463L142.491 -4.52463L142.491 0L139.128 0L139.128 -13.0411ZM142.491 -10.6041L142.491 -6.96164L144.351 -6.96164Q145.33 -6.96164 145.863 -7.43769Q146.395 -7.91374 146.395 -8.78722Q146.395 -9.6607 145.863 -10.1324Q145.33 -10.6041 144.351 -10.6041L142.491 -10.6041ZM156.484 -4.40234Q155.506 -4.40234 155.012 -4.07042Q154.519 -3.7385 154.519 -3.09212Q154.519 -2.49816 154.916 -2.16187Q155.314 -1.82558 156.021 -1.82558Q156.903 -1.82558 157.506 -2.45885Q158.109 -3.09212 158.109 -4.04422L158.109 -4.40234L156.484 -4.40234ZM161.262 -5.58154L161.262 0L158.109 0L158.109 -1.44998Q157.48 -0.559028 156.694 -0.152859Q155.908 0.253309 154.781 0.253309Q153.261 0.253309 152.313 -0.633274Q151.366 -1.51986 151.366 -2.9349Q151.366 -4.65565 152.549 -5.45926Q153.733 -6.26286 156.266 -6.26286L158.109 -6.26286L158.109 -6.50743Q158.109 -7.24989 157.524 -7.59492Q156.938 -7.93994 155.698 -7.93994Q154.693 -7.93994 153.829 -7.73904Q152.964 -7.53814 152.222 -7.13634L152.222 -9.52094Q153.226 -9.76552 154.239 -9.89217Q155.253 -10.0188 156.266 -10.0188Q158.912 -10.0188 160.087 -8.97502Q161.262 -7.93121 161.262 -5.58154ZM171.438 -7.11887Q171.028 -7.31103 170.621 -7.40275Q170.215 -7.49447 169.805 -7.49447Q168.599 -7.49447 167.949 -6.72144Q167.298 -5.94841 167.298 -4.50716L167.298 0L164.171 0L164.171 -9.78299L167.298 -9.78299L167.298 -8.17578Q167.9 -9.13661 168.682 -9.57772Q169.464 -10.0188 170.556 -10.0188Q170.713 -10.0188 170.897 -10.0057Q171.08 -9.99262 171.429 -9.94895L171.438 -7.11887ZM177.378 -4.40234Q176.399 -4.40234 175.906 -4.07042Q175.412 -3.7385 175.412 -3.09212Q175.412 -2.49816 175.81 -2.16187Q176.207 -1.82558 176.915 -1.82558Q177.797 -1.82558 178.4 -2.45885Q179.002 -3.09212 179.002 -4.04422L179.002 -4.40234L177.378 -4.40234ZM182.156 -5.58154L182.156 0L179.002 0L179.002 -1.44998Q178.374 -0.559028 177.587 -0.152859Q176.801 0.253309 175.674 0.253309Q174.155 0.253309 173.207 -0.633274Q172.259 -1.51986 172.259 -2.9349Q172.259 -4.65565 173.443 -5.45926Q174.626 -6.26286 177.159 -6.26286L179.002 -6.26286L179.002 -6.50743Q179.002 -7.24989 178.417 -7.59492Q177.832 -7.93994 176.592 -7.93994Q175.587 -7.93994 174.722 -7.73904Q173.858 -7.53814 173.115 -7.13634L173.115 -9.52094Q174.12 -9.76552 175.133 -9.89217Q176.146 -10.0188 177.159 -10.0188Q179.806 -10.0188 180.981 -8.97502Q182.156 -7.93121 182.156 -5.58154ZM190.27 -2.01774Q191.275 -2.01774 191.803 -2.75146Q192.332 -3.48519 192.332 -4.88276Q192.332 -6.28033 191.803 -7.01405Q191.275 -7.74778 190.27 -7.74778Q189.266 -7.74778 188.729 -7.00968Q188.191 -6.27159 188.191 -4.88276Q188.191 -3.49392 188.729 -2.75583Q189.266 -2.01774 190.27 -2.01774ZM188.191 -8.35048Q188.838 -9.20649 189.624 -9.61266Q190.41 -10.0188 191.432 -10.0188Q193.24 -10.0188 194.402 -8.58195Q195.564 -7.14507 195.564 -4.88276Q195.564 -2.62044 194.402 -1.18357Q193.24 0.253309 191.432 0.253309Q190.41 0.253309 189.624 -0.152859Q188.838 -0.559028 188.191 -1.41504L188.191 0L185.064 0L185.064 -13.5914L188.191 -13.5914L188.191 -8.35048ZM202.525 -7.78271Q201.486 -7.78271 200.94 -7.03589Q200.394 -6.28906 200.394 -4.88276Q200.394 -3.47645 200.94 -2.72963Q201.486 -1.9828 202.525 -1.9828Q203.547 -1.9828 204.089 -2.72963Q204.63 -3.47645 204.63 -4.88276Q204.63 -6.28906 204.089 -7.03589Q203.547 -7.78271 202.525 -7.78271ZM202.525 -10.0188Q205.05 -10.0188 206.469 -8.6562Q207.888 -7.29357 207.888 -4.88276Q207.888 -2.47195 206.469 -1.10932Q205.05 0.253309 202.525 0.253309Q199.992 0.253309 198.564 -1.10932Q197.136 -2.47195 197.136 -4.88276Q197.136 -7.29357 198.564 -8.6562Q199.992 -10.0188 202.525 -10.0188ZM210.16 -13.5914L213.287 -13.5914L213.287 0L210.16 0L210.16 -13.5914ZM220.947 -7.78271Q219.908 -7.78271 219.362 -7.03589Q218.816 -6.28906 218.816 -4.88276Q218.816 -3.47645 219.362 -2.72963Q219.908 -1.9828 220.947 -1.9828Q221.969 -1.9828 222.511 -2.72963Q223.052 -3.47645 223.052 -4.88276Q223.052 -6.28906 222.511 -7.03589Q221.969 -7.78271 220.947 -7.78271ZM220.947 -10.0188Q223.471 -10.0188 224.891 -8.6562Q226.31 -7.29357 226.31 -4.88276Q226.31 -2.47195 224.891 -1.10932Q223.471 0.253309 220.947 0.253309Q218.414 0.253309 216.986 -1.10932Q215.558 -2.47195 215.558 -4.88276Q215.558 -7.29357 216.986 -8.6562Q218.414 -10.0188 220.947 -10.0188ZM228.581 -9.78299L231.708 -9.78299L231.708 0L228.581 0L228.581 -9.78299ZM228.581 -13.5914L231.708 -13.5914L231.708 -11.0408L228.581 -11.0408L228.581 -13.5914ZM241.369 -8.35048L241.369 -13.5914L244.514 -13.5914L244.514 0L241.369 0L241.369 -1.41504Q240.723 -0.550293 239.945 -0.148492Q239.168 0.253309 238.146 0.253309Q236.338 0.253309 235.176 -1.18357Q234.014 -2.62044 234.014 -4.88276Q234.014 -7.14507 235.176 -8.58195Q236.338 -10.0188 238.146 -10.0188Q239.159 -10.0188 239.941 -9.61266Q240.723 -9.20649 241.369 -8.35048ZM239.308 -2.01774Q240.312 -2.01774 240.841 -2.75146Q241.369 -3.48519 241.369 -4.88276Q241.369 -6.28033 240.841 -7.01405Q240.312 -7.74778 239.308 -7.74778Q238.312 -7.74778 237.783 -7.01405Q237.255 -6.28033 237.255 -4.88276Q237.255 -3.48519 237.783 -2.75146Q238.312 -2.01774 239.308 -2.01774ZM252.873 -9.78299L255.912 -9.78299L257.555 -3.03971L259.205 -9.78299L261.817 -9.78299L263.459 -3.10959L265.11 -9.78299L268.15 -9.78299L265.573 0L262.158 0L260.507 -6.7258L258.865 0L255.449 0L252.873 -9.78299ZM270.272 -9.78299L273.4 -9.78299L273.4 0L270.272 0L270.272 -9.78299ZM270.272 -13.5914L273.4 -13.5914L273.4 -11.0408L270.272 -11.0408L270.272 -13.5914ZM279.82 -12.5607L279.82 -9.78299L283.043 -9.78299L283.043 -7.54688L279.82 -7.54688L279.82 -3.39784Q279.82 -2.71653 280.09 -2.47632Q280.361 -2.23611 281.165 -2.23611L282.772 -2.23611L282.772 0L280.09 0Q278.239 0 277.466 -0.773031Q276.693 -1.54606 276.693 -3.39784L276.693 -7.54688L275.138 -7.54688L275.138 -9.78299L276.693 -9.78299L276.693 -12.5607L279.82 -12.5607ZM294.791 -5.95714L294.791 0L291.647 0L291.647 -0.969564L291.647 -4.5421Q291.647 -5.82612 291.59 -6.30653Q291.533 -6.78695 291.393 -7.01405Q291.21 -7.31977 290.895 -7.4901Q290.581 -7.66043 290.179 -7.66043Q289.201 -7.66043 288.642 -6.90487Q288.083 -6.14931 288.083 -4.81288L288.083 0L284.956 0L284.956 -13.5914L288.083 -13.5914L288.083 -8.35048Q288.79 -9.20649 289.585 -9.61266Q290.38 -10.0188 291.341 -10.0188Q293.035 -10.0188 293.913 -8.97938Q294.791 -7.93994 294.791 -5.95714ZM313.754 -5.95714L313.754 0L310.61 0L310.61 -0.969564L310.61 -4.55957Q310.61 -5.82612 310.553 -6.30653Q310.496 -6.78695 310.357 -7.01405Q310.173 -7.31977 309.859 -7.4901Q309.544 -7.66043 309.142 -7.66043Q308.164 -7.66043 307.605 -6.90487Q307.046 -6.14931 307.046 -4.81288L307.046 0L303.919 0L303.919 -9.78299L307.046 -9.78299L307.046 -8.35048Q307.754 -9.20649 308.548 -9.61266Q309.343 -10.0188 310.304 -10.0188Q311.999 -10.0188 312.876 -8.97938Q313.754 -7.93994 313.754 -5.95714ZM321.31 -7.78271Q320.271 -7.78271 319.725 -7.03589Q319.179 -6.28906 319.179 -4.88276Q319.179 -3.47645 319.725 -2.72963Q320.271 -1.9828 321.31 -1.9828Q322.332 -1.9828 322.873 -2.72963Q323.415 -3.47645 323.415 -4.88276Q323.415 -6.28906 322.873 -7.03589Q322.332 -7.78271 321.31 -7.78271ZM321.31 -10.0188Q323.834 -10.0188 325.254 -8.6562Q326.673 -7.29357 326.673 -4.88276Q326.673 -2.47195 325.254 -1.10932Q323.834 0.253309 321.31 0.253309Q318.777 0.253309 317.349 -1.10932Q315.921 -2.47195 315.921 -4.88276Q315.921 -7.29357 317.349 -8.6562Q318.777 -10.0188 321.31 -10.0188ZM328.944 -9.78299L332.071 -9.78299L332.071 0L328.944 0L328.944 -9.78299ZM328.944 -13.5914L332.071 -13.5914L332.071 -11.0408L328.944 -11.0408L328.944 -13.5914ZM342.719 -9.47727L342.719 -7.1014Q341.714 -7.52067 340.78 -7.73031Q339.845 -7.93994 339.015 -7.93994Q338.124 -7.93994 337.692 -7.7172Q337.26 -7.49447 337.26 -7.03152Q337.26 -6.65592 337.587 -6.45502Q337.915 -6.25412 338.762 -6.15804L339.312 -6.07943Q341.714 -5.77371 342.544 -5.07492Q343.374 -4.37614 343.374 -2.88249Q343.374 -1.31896 342.221 -0.532823Q341.068 0.253309 338.78 0.253309Q337.81 0.253309 336.775 0.10045Q335.74 -0.0524089 334.648 -0.358127L334.648 -2.734Q335.583 -2.27978 336.565 -2.05268Q337.548 -1.82557 338.561 -1.82558Q339.478 -1.82558 339.941 -2.07888Q340.404 -2.33219 340.404 -2.83008Q340.404 -3.24935 340.085 -3.45462Q339.767 -3.65989 338.815 -3.77344L338.264 -3.84332Q336.177 -4.10536 335.338 -4.81288Q334.5 -5.5204 334.5 -6.96164Q334.5 -8.51644 335.565 -9.26763Q336.631 -10.0188 338.832 -10.0188Q339.697 -10.0188 340.649 -9.8878Q341.601 -9.75678 342.719 -9.47727ZM355.489 -4.9177L355.489 -4.02675L348.178 -4.02675Q348.292 -2.92616 348.973 -2.37587Q349.654 -1.82558 350.877 -1.82558Q351.864 -1.82558 352.899 -2.11819Q353.934 -2.41081 355.026 -3.00477L355.026 -0.593967Q353.917 -0.174696 352.808 0.0393066Q351.698 0.253309 350.589 0.253309Q347.934 0.253309 346.462 -1.09622Q344.99 -2.44575 344.99 -4.88276Q344.99 -7.2761 346.436 -8.64746Q347.881 -10.0188 350.414 -10.0188Q352.72 -10.0188 354.105 -8.62999Q355.489 -7.24116 355.489 -4.9177ZM352.275 -5.95714Q352.275 -6.84809 351.755 -7.39402Q351.235 -7.93994 350.397 -7.93994Q349.488 -7.93994 348.921 -7.42896Q348.353 -6.91797 348.213 -5.95714L352.275 -5.95714Z" fill="#262626" transform="translate(350,24.099999999999998) translate(-178.17701721191406,0)" />
<rect x="88" y="72" width="542" height="462" fill="#FFFFFF" />
<polygon points="136.87500160105253,459.03920739757535 477.5007308685109,519.2913830729849 581.7298506456916,363.9057953213644 269.31041949886117,314.5384349917088" fill="#F5F5F5" />
<polygon points="136.87500160105253,459.03920739757535 269.31041949886117,314.5384349917088 265.8243507779399,86.7086169270151 127.75,212.6124911945664" fill="#F5F5F5" />
<polygon points="269.31041949886117,314.5384349917088 581.7298506456916,363.9057953213644 589.75,129.6178349188725 265.8243507779399,86.7086169270151" fill="#F5F5F5" />
<line x1="136.87500160105253" y1="459.03920739757535" x2="477.5007308685109" y2="519.2913830729849" stroke="#666666" stroke-width="0.5" />
<line x1="477.5007308685109" y1="519.2913830729849" x2="581.7298506456916" y2="363.9057953213644" stroke="#666666" stroke-width="0.5" />
<line x1="581.7298506456916" y1="363.9057953213644" x2="269.31041949886117" y2="314.5384349917088" stroke="#666666" stroke-width="0.5" />
<line x1="269.31041949886117" y1="314.5384349917088" x2="136.87500160105253" y2="459.03920739757535" stroke="#666666" stroke-width="0.5" />
<line x1="589.75" y1="129.6178349188725" x2="265.8243507779399" y2="86.7086169270151" stroke="#666666" stroke-width="0.5" />
<line x1="265.8243507779399" y1="86.7086169270151" x2="127.75" y2="212.6124911945664" stroke="#666666" stroke-width="0.5" />
<line x1="136.87500160105253" y1="459.03920739757535" x2="127.75" y2="212.6124911945664" stroke="#666666" stroke-width="0.5" />
<line x1="581.7298506456916" y1="363.9057953213644" x2="589.75" y2="129.6178349188725" stroke="#666666" stroke-width="0.5" />
<line x1="269.31041949886117" y1="314.5384349917088" x2="265.8243507779399" y2="86.7086169270151" stroke="#666666" stroke-width="0.5" />
<line x1="156.8644529315263" y1="462.57507632858335" x2="287.70707303264965" y2="317.44540598428944" stroke="#B0B0B0" stroke-width="1" />
<line x1="194.66779382668673" y1="469.2619861566549" x2="322.476811431457" y2="322.9395911500484" stroke="#B0B0B0" stroke-width="1" />
<line x1="232.79783365200214" y1="476.00668469427285" x2="357.5187539925559" y2="328.4767890084359" stroke="#B0B0B0" stroke-width="1" />
<line x1="271.2588258166889" y1="482.80992431313814" x2="392.8361098118073" y2="334.05750664888325" stroke="#B0B0B0" stroke-width="1" />
<line x1="310.05509788731376" y1="489.6724705024039" x2="428.43213862806834" y2="339.68225916324036" stroke="#B0B0B0" stroke-width="1" />
<line x1="349.191053211018" y1="496.59510215580224" x2="464.310151826151" y2="345.35156980425955" stroke="#B0B0B0" stroke-width="1" />
<line x1="388.671172581565" y1="503.578611866346" x2="500.47351346371084" y2="351.0659701478605" stroke="#B0B0B0" stroke-width="1" />
<line x1="428.5000159495361" y1="510.6238062288396" x2="536.9256413227351" y2="356.8260002592827" stroke="#B0B0B0" stroke-width="1" />
<line x1="468.6822241780456" y1="517.7315061504419" x2="573.6700079863203" y2="362.63220886323364" stroke="#B0B0B0" stroke-width="1" />
<line x1="145.74721271133276" y1="449.3587051668755" x2="484.50690774243776" y2="508.8465197394535" stroke="#B0B0B0" stroke-width="1" />
<line x1="161.45307401376417" y1="432.221982034005" x2="496.90112934993437" y2="490.36911713525024" stroke="#B0B0B0" stroke-width="1" />
<line x1="176.81346164388594" y1="415.46220649783527" x2="509.01243750054465" y2="472.3134841274428" stroke="#B0B0B0" stroke-width="1" />
<line x1="191.83965040604963" y1="399.06707657779793" x2="520.8504096605144" y2="454.66534255437216" stroke="#B0B0B0" stroke-width="1" />
<line x1="206.54242976826924" y1="383.02481984559097" x2="532.4241958187345" y2="437.4110515409666" stroke="#B0B0B0" stroke-width="1" />
<line x1="220.93212969897328" y1="367.3241652346028" x2="543.7425420733982" y2="420.5375723355677" stroke="#B0B0B0" stroke-width="1" />
<line x1="235.0186448706487" y1="351.95431663122747" x2="554.8138126739942" y2="404.0324354495563" stroke="#B0B0B0" stroke-width="1" />
<line x1="248.81145734955348" y1="336.90492811803585" x2="565.6460106353751" y2="387.88370992573607" stroke="#B0B0B0" stroke-width="1" />
<line x1="262.3196578808354" y1="322.1660807495037" x2="576.2467970306739" y2="372.07997457630347" stroke="#B0B0B0" stroke-width="1" />
<line x1="145.74721271133276" y1="449.3587051668755" x2="137.03195147463282" y2="204.14869147481136" stroke="#B0B0B0" stroke-width="1" />
<line x1="161.45307401376417" y1="432.221982034005" x2="153.45185562112667" y2="189.17610941668374" stroke="#B0B0B0" stroke-width="1" />
<line x1="176.81346164388594" y1="415.46220649783527" x2="169.49663610792487" y2="174.54558598000892" stroke="#B0B0B0" stroke-width="1" />
<line x1="191.83965040604963" y1="399.06707657779793" x2="185.17900267897014" y2="160.24553171320304" stroke="#B0B0B0" stroke-width="1" />
<line x1="206.54242976826924" y1="383.02481984559097" x2="200.51109732378197" y2="146.26487487474992" stroke="#B0B0B0" stroke-width="1" />
<line x1="220.93212969897328" y1="367.3241652346028" x2="215.50452562987726" y2="132.59303284431996" stroke="#B0B0B0" stroke-width="1" />
<line x1="235.0186448706487" y1="351.95431663122747" x2="230.17038608028182" y2="119.2198854076695" stroke="#B0B0B0" stroke-width="1" />
<line x1="248.81145734955348" y1="336.90492811803585" x2="244.51929745156465" y2="106.13574977358857" stroke="#B0B0B0" stroke-width="1" />
<line x1="262.3196578808354" y1="322.1660807495037" x2="258.5614244545365" y2="93.33135719328592" stroke="#B0B0B0" stroke-width="1" />
<line x1="136.83335378238021" y1="457.91448045054017" x2="269.29444989022727" y2="313.4947513122107" stroke="#B0B0B0" stroke-width="1" />
<line x1="135.76826128239983" y1="429.1509515551214" x2="268.8862299710408" y2="286.8157964882635" stroke="#B0B0B0" stroke-width="1" />
<line x1="134.69323700101145" y1="400.1192083200862" x2="268.474561253479" y2="259.9114476261318" stroke="#B0B0B0" stroke-width="1" />
<line x1="133.60814136958084" y1="370.8154816019638" x2="268.05939984698347" y2="232.77883628611156" stroke="#B0B0B0" stroke-width="1" />
<line x1="132.51283219207286" y1="341.235931302578" x2="267.64070111306853" y2="205.4150451481826" stroke="#B0B0B0" stroke-width="1" />
<line x1="131.40716458293247" y1="311.3766446914857" x2="267.2184196493215" y2="177.8171069663583" stroke="#B0B0B0" stroke-width="1" />
<line x1="130.290990903195" y1="281.2336346805938" x2="266.7925092729905" y2="149.9820034960777" stroke="#B0B0B0" stroke-width="1" />
<line x1="129.16416069476676" y1="250.80283804935928" x2="266.36292300414743" y2="121.90666439382588" stroke="#B0B0B0" stroke-width="1" />
<line x1="128.02652061281398" y1="220.08011361890965" x2="265.9296130484127" y2="93.58796608813907" stroke="#B0B0B0" stroke-width="1" />
<line x1="287.70707303264965" y1="317.44540598428944" x2="284.8758981848512" y2="89.23230408401744" stroke="#B0B0B0" stroke-width="1" />
<line x1="322.476811431457" y1="322.9395911500484" x2="320.89111882512134" y2="94.0031055231427" stroke="#B0B0B0" stroke-width="1" />
<line x1="357.5187539925559" y1="328.4767890084359" x2="357.19852818174377" y2="98.81261210758396" stroke="#B0B0B0" stroke-width="1" />
<line x1="392.8361098118073" y1="334.05750664888325" x2="393.8016964941479" y2="103.66129677359169" stroke="#B0B0B0" stroke-width="1" />
<line x1="428.43213862806834" y1="339.68225916324036" x2="430.70425240574593" y2="108.5496401939732" stroke="#B0B0B0" stroke-width="1" />
<line x1="464.310151826151" y1="345.35156980425955" x2="467.909884163094" y2="113.47813093694123" stroke="#B0B0B0" stroke-width="1" />
<line x1="500.47351346371084" y1="351.0659701478605" x2="505.42234084471977" y2="118.44726562889193" stroke="#B0B0B0" stroke-width="1" />
<line x1="536.9256413227351" y1="356.8260002592827" x2="543.2454336204783" y2="123.4575491212272" stroke="#B0B0B0" stroke-width="1" />
<line x1="573.6700079863203" y1="362.63220886323364" x2="581.3830370423228" y2="128.50949466133818" stroke="#B0B0B0" stroke-width="1" />
<line x1="269.29444989022727" y1="313.4947513122107" x2="581.7665446546711" y2="362.8338745698916" stroke="#B0B0B0" stroke-width="1" />
<line x1="268.8862299710408" y1="286.8157964882635" x2="582.7046718862335" y2="335.4289091545358" stroke="#B0B0B0" stroke-width="1" />
<line x1="268.474561253479" y1="259.9114476261318" x2="583.6510055083666" y2="307.7842152224066" stroke="#B0B0B0" stroke-width="1" />
<line x1="268.05939984698347" y1="232.77883628611156" x2="584.605653673821" y2="279.8966333700576" stroke="#B0B0B0" stroke-width="1" />
<line x1="267.64070111306853" y1="205.4150451481826" x2="585.5687264442073" y2="251.76294843166448" stroke="#B0B0B0" stroke-width="1" />
<line x1="267.2184196493215" y1="177.8171069663583" x2="586.5403358322937" y2="223.37988824333945" stroke="#B0B0B0" stroke-width="1" />
<line x1="266.7925092729905" y1="149.9820034960777" x2="587.5205958454376" y2="194.74412237444" stroke="#B0B0B0" stroke-width="1" />
<line x1="266.36292300414743" y1="121.90666439382588" x2="588.5096225301794" y2="165.8522608248393" stroke="#B0B0B0" stroke-width="1" />
<line x1="265.9296130484127" y1="93.58796608813907" x2="589.5075340180404" y2="136.70085268708806" stroke="#B0B0B0" stroke-width="1" />
<circle cx="351.3719469877875" cy="193.56644296326417" r="1.25" fill="#6495ED" />
<circle cx="363.20059950347684" cy="271.4436869631599" r="1.262812269782402" fill="#6495ED" />
<circle cx="313.7398513146263" cy="200.0889923538557" r="1.2630042782475794" fill="#6495ED" />
<circle cx="314.8903348490443" cy="194.97552769470488" r="1.2707962163796485" fill="#6495ED" />
<circle cx="388.4725547724961" cy="246.81077050580186" r="1.2737388297449166" fill="#6495ED" />
<circle cx="375.06810580617736" cy="271.3799980198981" r="1.2793071898444486" fill="#6495ED" />
<circle cx="287.01816307539895" cy="117.01979249066167" r="1.2870384764219862" fill="#6495ED" />
<circle cx="417.82125762154044" cy="260.43284540305694" r="1.2887112942195391" fill="#6495ED" />
<circle cx="388.19739744010724" cy="283.0524986640493" r="1.2891469830272566" fill="#6495ED" />
<circle cx="287.0017135104971" cy="134.40387999020754" r="1.2910918387126067" fill="#6495ED" />
<circle cx="286.23956784390384" cy="195.7335040211404" r="1.2918298654137497" fill="#6495ED" />
<circle cx="346.1659956938675" cy="291.0157337516301" r="1.2925574313142079" fill="#6495ED" />
<circle cx="283.8583484480936" cy="150.53073929689015" r="1.2989845010083292" fill="#6495ED" />
<circle cx="331.2263387927634" cy="295.5916615752791" r="1.3268822995271834" fill="#6495ED" />
<circle cx="452.7234600688504" cy="237.59784634442508" r="1.3333538846348583" fill="#6495ED" />
<circle cx="269.27174769066335" cy="185.12786070140982" r="1.336618097145954" fill="#6495ED" />
<circle cx="462.64074631498715" cy="263.95242381258214" r="1.3676188612139082" fill="#6495ED" />
<circle cx="448.6130514063985" cy="273.7533912216964" r="1.3686069198691875" fill="#6495ED" />
<circle cx="260.2854071591153" cy="184.12176073307023" r="1.3751191498548467" fill="#6495ED" />
<circle cx="354.59876794454203" cy="335.3705182985793" r="1.3830648813064523" fill="#6495ED" />
<circle cx="359.48722775736354" cy="337.11737175167826" r="1.3842364252188597" fill="#6495ED" />
<circle cx="405.92219510903254" cy="325.7216991689843" r="1.3859816950542745" fill="#6495ED" />
<circle cx="401.32542168617726" cy="331.17969272649367" r="1.3904070124719479" fill="#6495ED" />
<circle cx="337.23801659617163" cy="344.79902768079296" r="1.3954311738994165" fill="#6495ED" />
<circle cx="479.6211826207333" cy="223.43995098042558" r="1.3961373072559322" fill="#6495ED" />
<circle cx="258.188582237215" cy="231.84315928186217" r="1.4120653442480031" fill="#6495ED" />
<circle cx="422.650192539086" cy="347.22203925480585" r="1.4173382913403292" fill="#6495ED" />
<circle cx="271.8397579502722" cy="296.98697121189934" r="1.4487863196516653" fill="#6495ED" />
<circle cx="486.7296133553824" cy="261.1213400242497" r="1.4774054518859905" fill="#6495ED" />
<circle cx="254.99169146654765" cy="284.5497377463654" r="1.4855291961729273" fill="#6495ED" />
<circle cx="393.93557994159346" cy="387.73596856668246" r="1.4912729576635206" fill="#6495ED" />
<circle cx="508.5641166030533" cy="219.44115598131827" r="1.4937815631859233" fill="#6495ED" />
<circle cx="295.19955732867436" cy="338.25386976491416" r="1.5054483290133625" fill="#6495ED" />
<circle cx="444.034039917372" cy="348.8133177018768" r="1.5100590988899225" fill="#6495ED" />
<circle cx="498.39391416925264" cy="283.1758455149553" r="1.5351153070156287" fill="#6495ED" />
<circle cx="382.9697599344514" cy="400.1165989665107" r="1.544407520959624" fill="#6495ED" />
<circle cx="294.83608310061487" cy="352.42289130391725" r="1.548103770455791" fill="#6495ED" />
<circle cx="423.9653057779202" cy="369.0941902232738" r="1.5504502495655468" fill="#6495ED" />
<circle cx="501.840047378956" cy="284.9724575708236" r="1.5586791496076944" fill="#6495ED" />
<circle cx="233.42517026083698" cy="258.57497385102454" r="1.5631434805095477" fill="#6495ED" />
<circle cx="380.8883228238901" cy="389.9569005083706" r="1.5744008542876056" fill="#6495ED" />
<circle cx="231.84678364276127" cy="270.67363040841104" r="1.5828638401439692" fill="#6495ED" />
<circle cx="350.40527708592776" cy="399.92864774862073" r="1.6231823353177393" fill="#6495ED" />
<circle cx="445.2235079330578" cy="381.3002283876455" r="1.6249930479365815" fill="#6495ED" />
<circle cx="518.5409776902636" cy="276.53191134252546" r="1.6329924789847017" fill="#6495ED" />
<circle cx="258.648734757548" cy="336.3065319812073" r="1.6557477380761252" fill="#6495ED" />
<circle cx="374.21023250874106" cy="412.6044280396926" r="1.6558520523540836" fill="#6495ED" />
<circle cx="355.8586016412181" cy="400.63390014653106" r="1.6593031120071113" fill="#6495ED" />
<circle cx="482.5238505371584" cy="347.7074188542141" r="1.6642023503914256" fill="#6495ED" />
<circle cx="460.59774907107715" cy="363.5695945194145" r="1.6854001452011282" fill="#6495ED" />
<circle cx="350.217839386548" cy="410.90042272133815" r="1.6977055209273826" fill="#6495ED" />
<circle cx="521.2169052897095" cy="280.74783968348294" r="1.7120347776758484" fill="#6495ED" />
<circle cx="465.14706088191673" cy="377.7897615158184" r="1.7390739708086937" fill="#6495ED" />
<circle cx="462.28796854016883" cy="371.500008717928" r="1.741696143197018" fill="#6495ED" />
<circle cx="325.09256568140665" cy="402.370714792185" r="1.7550029369580824" fill="#6495ED" />
<circle cx="295.8025461976945" cy="391.9009658060538" r="1.7590518374884305" fill="#6495ED" />
<circle cx="254.39857482501597" cy="340.7534773702091" r="1.7748847402341306" fill="#6495ED" />
<circle cx="335.7257851228708" cy="404.84879488340255" r="1.7854587030401863" fill="#6495ED" />
<circle cx="208.41592977562917" cy="280.6096771983131" r="1.7920159162257203" fill="#6495ED" />
<circle cx="214.31093202850695" cy="299.3171704330539" r="1.8063934062446068" fill="#6495ED" />
<circle cx="277.1263317386071" cy="365.43996112675313" r="1.8314455729176737" fill="#6495ED" />
<circle cx="512.7896494132674" cy="326.15329856962654" r="1.8418676586845495" fill="#6495ED" />
<circle cx="427.4282095246405" cy="399.8638628376426" r="1.8598977121793003" fill="#6495ED" />
<circle cx="211.76853633441357" cy="290.86079351627455" r="1.881909634620314" fill="#6495ED" />
<circle cx="309.10223594435195" cy="394.7551486224386" r="1.9061130952198957" fill="#6495ED" />
<circle cx="375.5381450141148" cy="413.094405368384" r="1.9163193360629327" fill="#6495ED" />
<circle cx="389.8570533643806" cy="412.51366834584434" r="1.9194323952633763" fill="#6495ED" />
<circle cx="234.4089982102209" cy="327.5871976273747" r="1.9225454670609812" fill="#6495ED" />
<circle cx="427.3891296526165" cy="406.08657637794283" r="1.9255186268243736" fill="#6495ED" />
<circle cx="241.72400236953524" cy="333.533231119895" r="1.9462909906856416" fill="#6495ED" />
<circle cx="273.603444592869" cy="372.4074201034848" r="1.9740056165401172" fill="#6495ED" />
<circle cx="262.3712200688358" cy="353.6227169843495" r="1.9773476854517296" fill="#6495ED" />
<circle cx="201.5444293672752" cy="281.1347423288385" r="1.9795744864103182" fill="#6495ED" />
<circle cx="226.6016780589478" cy="322.0944019598302" r="2.0086190556791763" fill="#6495ED" />
<circle cx="225.02676388148802" cy="321.77296124996707" r="2.02225037176654" fill="#6495ED" />
<circle cx="434.8412034506505" cy="393.3423378890525" r="2.0250038316146073" fill="#6495ED" />
<circle cx="203.25708128106334" cy="285.80081092576563" r="2.025417650254533" fill="#6495ED" />
<circle cx="490.0827752267186" cy="352.8648834474965" r="2.030261631907001" fill="#6495ED" />
<circle cx="259.29800529331175" cy="357.40491820241584" r="2.072090380533532" fill="#6495ED" />
<circle cx="293.0495824668093" cy="378.6216578133099" r="2.0823801657061365" fill="#6495ED" />
<circle cx="193.20650870038057" cy="279.04519828657794" r="2.0924912782363125" fill="#6495ED" />
<circle cx="405.88823152460304" cy="390.7063618889656" r="2.09929796116164" fill="#6495ED" />
<circle cx="445.50482335026004" cy="380.8010568756225" r="2.112853177374447" fill="#6495ED" />
<circle cx="336.77327608761846" cy="391.9568375277331" r="2.113513834691329" fill="#6495ED" />
<circle cx="212.44670663836226" cy="301.40202800092163" r="2.1302188829648516" fill="#6495ED" />
<circle cx="231.743190900395" cy="315.2309158750712" r="2.1309956943076322" fill="#6495ED" />
<circle cx="336.3606245559175" cy="392.51141626924493" r="2.1319282865227924" fill="#6495ED" />
<circle cx="402.90229211982535" cy="384.68541748999814" r="2.1552093780837738" fill="#6495ED" />
<circle cx="177.37060344049013" cy="254.36448959231058" r="2.155491995968404" fill="#6495ED" />
<circle cx="404.47154680588244" cy="386.98533616240826" r="2.2106048923422033" fill="#6495ED" />
<circle cx="190.9154972139034" cy="266.7582842339983" r="2.2754658849057154" fill="#6495ED" />
<circle cx="333.2695662355622" cy="371.0545654693589" r="2.286785043855975" fill="#6495ED" />
<circle cx="489.415203581036" cy="337.05220664149294" r="2.2887946551507583" fill="#6495ED" />
<circle cx="334.1710807706277" cy="366.5938985816775" r="2.301888526327251" fill="#6495ED" />
<circle cx="160.45552913062411" cy="217.42899749823152" r="2.3454500191050554" fill="#6495ED" />
<circle cx="344.2772736949963" cy="360.2450834171198" r="2.351032809345139" fill="#6495ED" />
<circle cx="435.9142191174627" cy="350.53112141961384" r="2.3567746312227267" fill="#6495ED" />
<circle cx="159.17683233159627" cy="212.09924314183786" r="2.3625535775320894" fill="#6495ED" />
<circle cx="367.43373956780675" cy="353.3220331386386" r="2.3920061539246436" fill="#6495ED" />
<circle cx="457.80475957771154" cy="317.8262072327734" r="2.5" fill="#6495ED" />
<line x1="194.66779382668673" y1="469.2619861566549" x2="193.82107219254536" y2="474.04878714571277" stroke="#262626" stroke-width="1.1111111111111112" />
<path d="M0.678168 -4.36062L4.3335 -4.36062L4.3335 -3.24843L0.678168 -3.24843L0.678168 -4.36062ZM6.73421 -1.15289L8.97217 -1.15289L8.97217 -8.87722L6.53754 -8.38894L6.53754 -9.63677L8.9586 -10.1251L10.3285 -10.1251L10.3285 -1.15289L12.5665 -1.15289L12.5665 0L6.73421 0L6.73421 -1.15289ZM15.3334 -1.72255L16.7643 -1.72255L16.7643 0L15.3334 0L15.3334 -1.72255ZM19.7618 -10.1251L25.1397 -10.1251L25.1397 -8.97217L21.0164 -8.97217L21.0164 -6.49007Q21.3148 -6.5918 21.6132 -6.64266Q21.9116 -6.69352 22.21 -6.69352Q23.9054 -6.69352 24.8956 -5.76443Q25.8857 -4.83534 25.8857 -3.24843Q25.8857 -1.61404 24.8684 -0.708686Q23.8512 0.196669 21.9998 0.196669Q21.3623 0.196669 20.7011 0.0881619C20.2603 0.0158239 19.8048 -0.092683 19.3346 -0.237359L19.3346 -1.61404Q19.9449 -1.28174 20.596 -1.11898Q21.247 -0.956217 21.9727 -0.956217Q23.1459 -0.956217 23.8308 -1.57335Q24.5158 -2.19048 24.5158 -3.24843Q24.5158 -4.30637 23.8308 -4.9235Q23.1459 -5.54064 21.9727 -5.54064Q21.4233 -5.54064 20.8774 -5.41857Q20.3315 -5.2965 19.7618 -5.03879L19.7618 -10.1251Z" fill="#262626" transform="translate(190.53579225207687,492.62157498325706) translate(-13.549805641174316,0)" />
<line x1="232.79783365200214" y1="476.00668469427285" x2="231.95111201786077" y2="480.7934856833307" stroke="#262626" stroke-width="1.1111111111111112" />
<path d="M0.678168 -4.36062L4.3335 -4.36062L4.3335 -3.24843L0.678168 -3.24843L0.678168 -4.36062ZM6.73421 -1.15289L8.97217 -1.15289L8.97217 -8.87722L6.53754 -8.38894L6.53754 -9.63677L8.9586 -10.1251L10.3285 -10.1251L10.3285 -1.15289L12.5665 -1.15289L12.5665 0L6.73421 0L6.73421 -1.15289ZM15.3334 -1.72255L16.7643 -1.72255L16.7643 0L15.3334 0L15.3334 -1.72255ZM22.678 -9.22309Q21.62 -9.22309 21.0876 -8.1821Q20.5553 -7.14111 20.5553 -5.05235Q20.5553 -2.97038 21.0876 -1.92939Q21.62 -0.888401 22.678 -0.888401Q23.7427 -0.888401 24.275 -1.92939Q24.8074 -2.97038 24.8074 -5.05235Q24.8074 -7.14111 24.275 -8.1821Q23.7427 -9.22309 22.678 -9.22309ZM22.678 -10.3082Q24.3802 -10.3082 25.2787 -8.962Q26.1773 -7.61583 26.1773 -5.05235Q26.1773 -2.49566 25.2787 -1.1495Q24.3802 0.196669 22.678 0.196669Q20.9757 0.196669 20.0772 -1.1495Q19.1786 -2.49566 19.1786 -5.05235Q19.1786 -7.61583 20.0772 -8.962Q20.9757 -10.3082 22.678 -10.3082Z" fill="#262626" transform="translate(228.66583207739228,499.366273520875) translate(-13.549805641174316,0)" />
<line x1="271.2588258166889" y1="482.80992431313814" x2="270.4121041825475" y2="487.596725302196" stroke="#262626" stroke-width="1.1111111111111112" />
<path d="M0.678168 -4.36062L4.3335 -4.36062L4.3335 -3.24843L0.678168 -3.24843L0.678168 -4.36062ZM9.42654 -9.22309Q8.3686 -9.22309 7.83624 -8.1821Q7.30387 -7.14111 7.30387 -5.05235Q7.30387 -2.97038 7.83624 -1.92939Q8.3686 -0.888401 9.42654 -0.888401Q10.4913 -0.888401 11.0236 -1.92939Q11.556 -2.97038 11.556 -5.05235Q11.556 -7.14111 11.0236 -8.1821Q10.4913 -9.22309 9.42654 -9.22309ZM9.42654 -10.3082Q11.1287 -10.3082 12.0273 -8.962Q12.9259 -7.61583 12.9259 -5.05235Q12.9259 -2.49566 12.0273 -1.1495Q11.1287 0.196669 9.42654 0.196669Q7.72434 0.196669 6.82577 -1.1495Q5.92719 -2.49566 5.92719 -5.05235Q5.92719 -7.61583 6.82577 -8.962Q7.72434 -10.3082 9.42654 -10.3082ZM15.3334 -1.72255L16.7643 -1.72255L16.7643 0L15.3334 0L15.3334 -1.72255ZM19.7618 -10.1251L25.1397 -10.1251L25.1397 -8.97217L21.0164 -8.97217L21.0164 -6.49007Q21.3148 -6.5918 21.6132 -6.64266Q21.9116 -6.69352 22.21 -6.69352Q23.9054 -6.69352 24.8956 -5.76443Q25.8857 -4.83534 25.8857 -3.24843Q25.8857 -1.61404 24.8684 -0.708686Q23.8512 0.196669 21.9998 0.196669Q21.3623 0.196669 20.7011 0.0881619C20.2603 0.0158239 19.8048 -0.092683 19.3346 -0.237359L19.3346 -1.61404Q19.9449 -1.28174 20.596 -1.11898Q21.247 -0.956217 21.9727 -0.956217Q23.1459 -0.956217 23.8308 -1.57335Q24.5158 -2.19048 24.5158 -3.24843Q24.5158 -4.30637 23.8308 -4.9235Q23.1459 -5.54064 21.9727 -5.54064Q21.4233 -5.54064 20.8774 -5.41857Q20.3315 -5.2965 19.7618 -5.03879L19.7618 -10.1251Z" fill="#262626" transform="translate(267.12682424207907,506.1695131397403) translate(-13.549805641174316,0)" />
<line x1="310.05509788731376" y1="489.6724705024039" x2="309.2083762531724" y2="494.4592714914617" stroke="#262626" stroke-width="1.1111111111111112" />
<path d="M4.41488 -9.22309Q3.35693 -9.22309 2.82457 -8.1821Q2.29221 -7.14111 2.29221 -5.05235Q2.29221 -2.97038 2.82457 -1.92939Q3.35693 -0.888401 4.41488 -0.888401Q5.4796 -0.888401 6.01196 -1.92939Q6.54433 -2.97038 6.54433 -5.05235Q6.54433 -7.14111 6.01196 -8.1821Q5.4796 -9.22309 4.41488 -9.22309ZM4.41488 -10.3082Q6.11708 -10.3082 7.01565 -8.962Q7.91422 -7.61583 7.91423 -5.05235Q7.91423 -2.49566 7.01565 -1.1495Q6.11708 0.196669 4.41488 0.196669Q2.71267 0.196669 1.8141 -1.1495Q0.915527 -2.49566 0.915527 -5.05235Q0.915527 -7.61583 1.8141 -8.962Q2.71267 -10.3082 4.41488 -10.3082ZM10.3217 -1.72255L11.7527 -1.72255L11.7527 0L10.3217 0L10.3217 -1.72255ZM17.6663 -9.22309Q16.6083 -9.22309 16.076 -8.1821Q15.5436 -7.14111 15.5436 -5.05235Q15.5436 -2.97038 16.076 -1.92939Q16.6083 -0.888401 17.6663 -0.888401Q18.731 -0.888401 19.2634 -1.92939Q19.7957 -2.97038 19.7957 -5.05235Q19.7957 -7.14111 19.2634 -8.1821Q18.731 -9.22309 17.6663 -9.22309ZM17.6663 -10.3082Q19.3685 -10.3082 20.2671 -8.962Q21.1656 -7.61583 21.1656 -5.05235Q21.1656 -2.49566 20.2671 -1.1495Q19.3685 0.196669 17.6663 0.196669Q15.9641 0.196669 15.0655 -1.1495Q14.1669 -2.49566 14.1669 -5.05235Q14.1669 -7.61583 15.0655 -8.962Q15.9641 -10.3082 17.6663 -10.3082Z" fill="#262626" transform="translate(305.92309631270393,513.0320593290061) translate(-11.043972969055176,0)" />
<line x1="349.191053211018" y1="496.59510215580224" x2="348.34433157687664" y2="501.3819031448601" stroke="#262626" stroke-width="1.1111111111111112" />
<path d="M4.41488 -9.22309Q3.35693 -9.22309 2.82457 -8.1821Q2.29221 -7.14111 2.29221 -5.05235Q2.29221 -2.97038 2.82457 -1.92939Q3.35693 -0.888401 4.41488 -0.888401Q5.4796 -0.888401 6.01196 -1.92939Q6.54433 -2.97038 6.54433 -5.05235Q6.54433 -7.14111 6.01196 -8.1821Q5.4796 -9.22309 4.41488 -9.22309ZM4.41488 -10.3082Q6.11708 -10.3082 7.01565 -8.962Q7.91422 -7.61583 7.91423 -5.05235Q7.91423 -2.49566 7.01565 -1.1495Q6.11708 0.196669 4.41488 0.196669Q2.71267 0.196669 1.8141 -1.1495Q0.915527 -2.49566 0.915527 -5.05235Q0.915527 -7.61583 1.8141 -8.962Q2.71267 -10.3082 4.41488 -10.3082ZM10.3217 -1.72255L11.7527 -1.72255L11.7527 0L10.3217 0L10.3217 -1.72255ZM14.7502 -10.1251L20.128 -10.1251L20.128 -8.97217L16.0048 -8.97217L16.0048 -6.49007Q16.3032 -6.5918 16.6016 -6.64266Q16.9 -6.69352 17.1984 -6.69352Q18.8938 -6.69352 19.8839 -5.76443Q20.874 -4.83534 20.874 -3.24843Q20.874 -1.61404 19.8568 -0.708686Q18.8395 0.196669 16.9881 0.196669Q16.3506 0.196669 15.6894 0.0881619C15.2486 0.0158239 14.7931 -0.092683 14.3229 -0.237359L14.3229 -1.61404Q14.9333 -1.28174 15.5843 -1.11898Q16.2354 -0.956217 16.961 -0.956217Q18.1342 -0.956217 18.8192 -1.57335Q19.5041 -2.19048 19.5041 -3.24843Q19.5041 -4.30637 18.8192 -4.9235Q18.1342 -5.54064 16.961 -5.54064Q16.4117 -5.54064 15.8658 -5.41857Q15.3198 -5.2965 14.7502 -5.03879L14.7502 -10.1251Z" fill="#262626" transform="translate(345.0590516364082,519.9546909824044) translate(-11.043972969055176,0)" />
<line x1="388.671172581565" y1="503.578611866346" x2="387.8244509474236" y2="508.36541285540386" stroke="#262626" stroke-width="1.1111111111111112" />
<path d="M1.72255 -1.15289L3.9605 -1.15289L3.9605 -8.87722L1.52588 -8.38894L1.52588 -9.63677L3.94694 -10.1251L5.31684 -10.1251L5.31684 -1.15289L7.5548 -1.15289L7.5548 0L1.72255 0L1.72255 -1.15289ZM10.3217 -1.72255L11.7527 -1.72255L11.7527 0L10.3217 0L10.3217 -1.72255ZM17.6663 -9.22309Q16.6083 -9.22309 16.076 -8.1821Q15.5436 -7.14111 15.5436 -5.05235Q15.5436 -2.97038 16.076 -1.92939Q16.6083 -0.888401 17.6663 -0.888401Q18.731 -0.888401 19.2634 -1.92939Q19.7957 -2.97038 19.7957 -5.05235Q19.7957 -7.14111 19.2634 -8.1821Q18.731 -9.22309 17.6663 -9.22309ZM17.6663 -10.3082Q19.3685 -10.3082 20.2671 -8.962Q21.1656 -7.61583 21.1656 -5.05235Q21.1656 -2.49566 20.2671 -1.1495Q19.3685 0.196669 17.6663 0.196669Q15.9641 0.196669 15.0655 -1.1495Q14.1669 -2.49566 14.1669 -5.05235Q14.1669 -7.61583 15.0655 -8.962Q15.9641 -10.3082 17.6663 -10.3082Z" fill="#262626" transform="translate(384.53917100695514,526.9382006929482) translate(-11.043972969055176,0)" />
<line x1="428.5000159495361" y1="510.6238062288396" x2="427.6532943153947" y2="515.4106072178975" stroke="#262626" stroke-width="1.1111111111111112" />
<path d="M1.72255 -1.15289L3.9605 -1.15289L3.9605 -8.87722L1.52588 -8.38894L1.52588 -9.63677L3.94694 -10.1251L5.31684 -10.1251L5.31684 -1.15289L7.5548 -1.15289L7.5548 0L1.72255 0L1.72255 -1.15289ZM10.3217 -1.72255L11.7527 -1.72255L11.7527 0L10.3217 0L10.3217 -1.72255ZM14.7502 -10.1251L20.128 -10.1251L20.128 -8.97217L16.0048 -8.97217L16.0048 -6.49007Q16.3032 -6.5918 16.6016 -6.64266Q16.9 -6.69352 17.1984 -6.69352Q18.8938 -6.69352 19.8839 -5.76443Q20.874 -4.83534 20.874 -3.24843Q20.874 -1.61404 19.8568 -0.708686Q18.8395 0.196669 16.9881 0.196669Q16.3506 0.196669 15.6894 0.0881619C15.2486 0.0158239 14.7931 -0.092683 14.3229 -0.237359L14.3229 -1.61404Q14.9333 -1.28174 15.5843 -1.11898Q16.2354 -0.956217 16.961 -0.956217Q18.1342 -0.956217 18.8192 -1.57335Q19.5041 -2.19048 19.5041 -3.24843Q19.5041 -4.30637 18.8192 -4.9235Q18.1342 -5.54064 16.961 -5.54064Q16.4117 -5.54064 15.8658 -5.41857Q15.3198 -5.2965 14.7502 -5.03879L14.7502 -10.1251Z" fill="#262626" transform="translate(424.36801437492625,533.9833950554417) translate(-11.043972969055176,0)" />
<line x1="468.6822241780456" y1="517.7315061504419" x2="467.8355025439042" y2="522.5183071394997" stroke="#262626" stroke-width="1.1111111111111112" />
<path d="M2.6652 -1.15289L7.44629 -1.15289L7.44629 0L1.01725 0L1.01725 -1.15289Q1.79715 -1.95991 3.14331 -3.31963Q4.48947 -4.67936 4.83534 -5.0727Q5.49316 -5.8119 5.75426 -6.32392Q6.01535 -6.83594 6.01535 -7.331Q6.01535 -8.13802 5.44908 -8.64665Q4.88281 -9.15527 3.97407 -9.15527Q3.32981 -9.15527 2.61434 -8.93148Q1.89887 -8.70768 1.08507 -8.25331L1.08507 -9.63677Q1.91243 -9.96908 2.63129 -10.1386Q3.35015 -10.3082 3.94694 -10.3082Q5.52029 -10.3082 6.45616 -9.52148Q7.39204 -8.73481 7.39204 -7.41916Q7.39204 -6.79525 7.15807 -6.23576Q6.9241 -5.67627 6.30697 -4.91672Q6.13742 -4.72005 5.22868 -3.78079Q4.31993 -2.84153 2.6652 -1.15289ZM10.3217 -1.72255L11.7527 -1.72255L11.7527 0L10.3217 0L10.3217 -1.72255ZM17.6663 -9.22309Q16.6083 -9.22309 16.076 -8.1821Q15.5436 -7.14111 15.5436 -5.05235Q15.5436 -2.97038 16.076 -1.92939Q16.6083 -0.888401 17.6663 -0.888401Q18.731 -0.888401 19.2634 -1.92939Q19.7957 -2.97038 19.7957 -5.05235Q19.7957 -7.14111 19.2634 -8.1821Q18.731 -9.22309 17.6663 -9.22309ZM17.6663 -10.3082Q19.3685 -10.3082 20.2671 -8.962Q21.1656 -7.61583 21.1656 -5.05235Q21.1656 -2.49566 20.2671 -1.1495Q19.3685 0.196669 17.6663 0.196669Q15.9641 0.196669 15.0655 -1.1495Q14.1669 -2.49566 14.1669 -5.05235Q14.1669 -7.61583 15.0655 -8.962Q15.9641 -10.3082 17.6663 -10.3082Z" fill="#262626" transform="translate(464.55022260343577,541.091094977044) translate(-11.043972969055176,0)" />
<line x1="496.90112934993437" y1="490.36911713525024" x2="500.93814294316127" y2="493.07705407740184" stroke="#262626" stroke-width="1.1111111111111112" />
<path d="M0.678168 -4.36062L4.3335 -4.36062L4.3335 -3.24843L0.678168 -3.24843L0.678168 -4.36062ZM6.73421 -1.15289L8.97217 -1.15289L8.97217 -8.87722L6.53754 -8.38894L6.53754 -9.63677L8.9586 -10.1251L10.3285 -10.1251L10.3285 -1.15289L12.5665 -1.15289L12.5665 0L6.73421 0L6.73421 -1.15289ZM15.3334 -1.72255L16.7643 -1.72255L16.7643 0L15.3334 0L15.3334 -1.72255ZM19.7618 -10.1251L25.1397 -10.1251L25.1397 -8.97217L21.0164 -8.97217L21.0164 -6.49007Q21.3148 -6.5918 21.6132 -6.64266Q21.9116 -6.69352 22.21 -6.69352Q23.9054 -6.69352 24.8956 -5.76443Q25.8857 -4.83534 25.8857 -3.24843Q25.8857 -1.61404 24.8684 -0.708686Q23.8512 0.196669 21.9998 0.196669Q21.3623 0.196669 20.7011 0.0881619C20.2603 0.0158239 19.8048 -0.092683 19.3346 -0.237359L19.3346 -1.61404Q19.9449 -1.28174 20.596 -1.11898Q21.247 -0.956217 21.9727 -0.956217Q23.1459 -0.956217 23.8308 -1.57335Q24.5158 -2.19048 24.5158 -3.24843Q24.5158 -4.30637 23.8308 -4.9235Q23.1459 -5.54064 21.9727 -5.54064Q21.4233 -5.54064 20.8774 -5.41857Q20.3315 -5.2965 19.7618 -5.03879L19.7618 -10.1251Z" fill="#262626" transform="translate(516.6017556848815,503.58384941295) translate(-13.549805641174316,0)" />
<line x1="509.01243750054465" y1="472.3134841274428" x2="513.0494510937715" y2="475.0214210695944" stroke="#262626" stroke-width="1.1111111111111112" />
<path d="M0.678168 -4.36062L4.3335 -4.36062L4.3335 -3.24843L0.678168 -3.24843L0.678168 -4.36062ZM6.73421 -1.15289L8.97217 -1.15289L8.97217 -8.87722L6.53754 -8.38894L6.53754 -9.63677L8.9586 -10.1251L10.3285 -10.1251L10.3285 -1.15289L12.5665 -1.15289L12.5665 0L6.73421 0L6.73421 -1.15289ZM15.3334 -1.72255L16.7643 -1.72255L16.7643 0L15.3334 0L15.3334 -1.72255ZM22.678 -9.22309Q21.62 -9.22309 21.0876 -8.1821Q20.5553 -7.14111 20.5553 -5.05235Q20.5553 -2.97038 21.0876 -1.92939Q21.62 -0.888401 22.678 -0.888401Q23.7427 -0.888401 24.275 -1.92939Q24.8074 -2.97038 24.8074 -5.05235Q24.8074 -7.14111 24.275 -8.1821Q23.7427 -9.22309 22.678 -9.22309ZM22.678 -10.3082Q24.3802 -10.3082 25.2787 -8.962Q26.1773 -7.61583 26.1773 -5.05235Q26.1773 -2.49566 25.2787 -1.1495Q24.3802 0.196669 22.678 0.196669Q20.9757 0.196669 20.0772 -1.1495Q19.1786 -2.49566 19.1786 -5.05235Q19.1786 -7.61583 20.0772 -8.962Q20.9757 -10.3082 22.678 -10.3082Z" fill="#262626" transform="translate(528.7130638354918,485.52821640514253) translate(-13.549805641174316,0)" />
<line x1="520.8504096605144" y1="454.66534255437216" x2="524.8874232537413" y2="457.37327949652376" stroke="#262626" stroke-width="1.1111111111111112" />
<path d="M0.678168 -4.36062L4.3335 -4.36062L4.3335 -3.24843L0.678168 -3.24843L0.678168 -4.36062ZM9.42654 -9.22309Q8.3686 -9.22309 7.83624 -8.1821Q7.30387 -7.14111 7.30387 -5.05235Q7.30387 -2.97038 7.83624 -1.92939Q8.3686 -0.888401 9.42654 -0.888401Q10.4913 -0.888401 11.0236 -1.92939Q11.556 -2.97038 11.556 -5.05235Q11.556 -7.14111 11.0236 -8.1821Q10.4913 -9.22309 9.42654 -9.22309ZM9.42654 -10.3082Q11.1287 -10.3082 12.0273 -8.962Q12.9259 -7.61583 12.9259 -5.05235Q12.9259 -2.49566 12.0273 -1.1495Q11.1287 0.196669 9.42654 0.196669Q7.72434 0.196669 6.82577 -1.1495Q5.92719 -2.49566 5.92719 -5.05235Q5.92719 -7.61583 6.82577 -8.962Q7.72434 -10.3082 9.42654 -10.3082ZM15.3334 -1.72255L16.7643 -1.72255L16.7643 0L15.3334 0L15.3334 -1.72255ZM19.7618 -10.1251L25.1397 -10.1251L25.1397 -8.97217L21.0164 -8.97217L21.0164 -6.49007Q21.3148 -6.5918 21.6132 -6.64266Q21.9116 -6.69352 22.21 -6.69352Q23.9054 -6.69352 24.8956 -5.76443Q25.8857 -4.83534 25.8857 -3.24843Q25.8857 -1.61404 24.8684 -0.708686Q23.8512 0.196669 21.9998 0.196669Q21.3623 0.196669 20.7011 0.0881619C20.2603 0.0158239 19.8048 -0.092683 19.3346 -0.237359L19.3346 -1.61404Q19.9449 -1.28174 20.596 -1.11898Q21.247 -0.956217 21.9727 -0.956217Q23.1459 -0.956217 23.8308 -1.57335Q24.5158 -2.19048 24.5158 -3.24843Q24.5158 -4.30637 23.8308 -4.9235Q23.1459 -5.54064 21.9727 -5.54064Q21.4233 -5.54064 20.8774 -5.41857Q20.3315 -5.2965 19.7618 -5.03879L19.7618 -10.1251Z" fill="#262626" transform="translate(540.5510359954616,467.8800748320719) translate(-13.549805641174316,0)" />
<line x1="532.4241958187345" y1="437.4110515409666" x2="536.4612094119614" y2="440.1189884831182" stroke="#262626" stroke-width="1.1111111111111112" />
<path d="M4.41488 -9.22309Q3.35693 -9.22309 2.82457 -8.1821Q2.29221 -7.14111 2.29221 -5.05235Q2.29221 -2.97038 2.82457 -1.92939Q3.35693 -0.888401 4.41488 -0.888401Q5.4796 -0.888401 6.01196 -1.92939Q6.54433 -2.97038 6.54433 -5.05235Q6.54433 -7.14111 6.01196 -8.1821Q5.4796 -9.22309 4.41488 -9.22309ZM4.41488 -10.3082Q6.11708 -10.3082 7.01565 -8.962Q7.91422 -7.61583 7.91423 -5.05235Q7.91423 -2.49566 7.01565 -1.1495Q6.11708 0.196669 4.41488 0.196669Q2.71267 0.196669 1.8141 -1.1495Q0.915527 -2.49566 0.915527 -5.05235Q0.915527 -7.61583 1.8141 -8.962Q2.71267 -10.3082 4.41488 -10.3082ZM10.3217 -1.72255L11.7527 -1.72255L11.7527 0L10.3217 0L10.3217 -1.72255ZM17.6663 -9.22309Q16.6083 -9.22309 16.076 -8.1821Q15.5436 -7.14111 15.5436 -5.05235Q15.5436 -2.97038 16.076 -1.92939Q16.6083 -0.888401 17.6663 -0.888401Q18.731 -0.888401 19.2634 -1.92939Q19.7957 -2.97038 19.7957 -5.05235Q19.7957 -7.14111 19.2634 -8.1821Q18.731 -9.22309 17.6663 -9.22309ZM17.6663 -10.3082Q19.3685 -10.3082 20.2671 -8.962Q21.1656 -7.61583 21.1656 -5.05235Q21.1656 -2.49566 20.2671 -1.1495Q19.3685 0.196669 17.6663 0.196669Q15.9641 0.196669 15.0655 -1.1495Q14.1669 -2.49566 14.1669 -5.05235Q14.1669 -7.61583 15.0655 -8.962Q15.9641 -10.3082 17.6663 -10.3082Z" fill="#262626" transform="translate(552.1248221536816,450.6257838186663) translate(-11.043972969055176,0)" />
<line x1="543.7425420733982" y1="420.5375723355677" x2="547.7795556666251" y2="423.2455092777193" stroke="#262626" stroke-width="1.1111111111111112" />
<path d="M4.41488 -9.22309Q3.35693 -9.22309 2.82457 -8.1821Q2.29221 -7.14111 2.29221 -5.05235Q2.29221 -2.97038 2.82457 -1.92939Q3.35693 -0.888401 4.41488 -0.888401Q5.4796 -0.888401 6.01196 -1.92939Q6.54433 -2.97038 6.54433 -5.05235Q6.54433 -7.14111 6.01196 -8.1821Q5.4796 -9.22309 4.41488 -9.22309ZM4.41488 -10.3082Q6.11708 -10.3082 7.01565 -8.962Q7.91422 -7.61583 7.91423 -5.05235Q7.91423 -2.49566 7.01565 -1.1495Q6.11708 0.196669 4.41488 0.196669Q2.71267 0.196669 1.8141 -1.1495Q0.915527 -2.49566 0.915527 -5.05235Q0.915527 -7.61583 1.8141 -8.962Q2.71267 -10.3082 4.41488 -10.3082ZM10.3217 -1.72255L11.7527 -1.72255L11.7527 0L10.3217 0L10.3217 -1.72255ZM14.7502 -10.1251L20.128 -10.1251L20.128 -8.97217L16.0048 -8.97217L16.0048 -6.49007Q16.3032 -6.5918 16.6016 -6.64266Q16.9 -6.69352 17.1984 -6.69352Q18.8938 -6.69352 19.8839 -5.76443Q20.874 -4.83534 20.874 -3.24843Q20.874 -1.61404 19.8568 -0.708686Q18.8395 0.196669 16.9881 0.196669Q16.3506 0.196669 15.6894 0.0881619C15.2486 0.0158239 14.7931 -0.092683 14.3229 -0.237359L14.3229 -1.61404Q14.9333 -1.28174 15.5843 -1.11898Q16.2354 -0.956217 16.961 -0.956217Q18.1342 -0.956217 18.8192 -1.57335Q19.5041 -2.19048 19.5041 -3.24843Q19.5041 -4.30637 18.8192 -4.9235Q18.1342 -5.54064 16.961 -5.54064Q16.4117 -5.54064 15.8658 -5.41857Q15.3198 -5.2965 14.7502 -5.03879L14.7502 -10.1251Z" fill="#262626" transform="translate(563.4431684083454,433.7523046132674) translate(-11.043972969055176,0)" />
<line x1="554.8138126739942" y1="404.0324354495563" x2="558.8508262672211" y2="406.7403723917079" stroke="#262626" stroke-width="1.1111111111111112" />
<path d="M1.72255 -1.15289L3.9605 -1.15289L3.9605 -8.87722L1.52588 -8.38894L1.52588 -9.63677L3.94694 -10.1251L5.31684 -10.1251L5.31684 -1.15289L7.5548 -1.15289L7.5548 0L1.72255 0L1.72255 -1.15289ZM10.3217 -1.72255L11.7527 -1.72255L11.7527 0L10.3217 0L10.3217 -1.72255ZM17.6663 -9.22309Q16.6083 -9.22309 16.076 -8.1821Q15.5436 -7.14111 15.5436 -5.05235Q15.5436 -2.97038 16.076 -1.92939Q16.6083 -0.888401 17.6663 -0.888401Q18.731 -0.888401 19.2634 -1.92939Q19.7957 -2.97038 19.7957 -5.05235Q19.7957 -7.14111 19.2634 -8.1821Q18.731 -9.22309 17.6663 -9.22309ZM17.6663 -10.3082Q19.3685 -10.3082 20.2671 -8.962Q21.1656 -7.61583 21.1656 -5.05235Q21.1656 -2.49566 20.2671 -1.1495Q19.3685 0.196669 17.6663 0.196669Q15.9641 0.196669 15.0655 -1.1495Q14.1669 -2.49566 14.1669 -5.05235Q14.1669 -7.61583 15.0655 -8.962Q15.9641 -10.3082 17.6663 -10.3082Z" fill="#262626" transform="translate(574.5144390089414,417.24716772725606) translate(-11.043972969055176,0)" />
<line x1="565.6460106353751" y1="387.88370992573607" x2="569.683024228602" y2="390.5916468678877" stroke="#262626" stroke-width="1.1111111111111112" />
<path d="M1.72255 -1.15289L3.9605 -1.15289L3.9605 -8.87722L1.52588 -8.38894L1.52588 -9.63677L3.94694 -10.1251L5.31684 -10.1251L5.31684 -1.15289L7.5548 -1.15289L7.5548 0L1.72255 0L1.72255 -1.15289ZM10.3217 -1.72255L11.7527 -1.72255L11.7527 0L10.3217 0L10.3217 -1.72255ZM14.7502 -10.1251L20.128 -10.1251L20.128 -8.97217L16.0048 -8.97217L16.0048 -6.49007Q16.3032 -6.5918 16.6016 -6.64266Q16.9 -6.69352 17.1984 -6.69352Q18.8938 -6.69352 19.8839 -5.76443Q20.874 -4.83534 20.874 -3.24843Q20.874 -1.61404 19.8568 -0.708686Q18.8395 0.196669 16.9881 0.196669Q16.3506 0.196669 15.6894 0.0881619C15.2486 0.0158239 14.7931 -0.092683 14.3229 -0.237359L14.3229 -1.61404Q14.9333 -1.28174 15.5843 -1.11898Q16.2354 -0.956217 16.961 -0.956217Q18.1342 -0.956217 18.8192 -1.57335Q19.5041 -2.19048 19.5041 -3.24843Q19.5041 -4.30637 18.8192 -4.9235Q18.1342 -5.54064 16.961 -5.54064Q16.4117 -5.54064 15.8658 -5.41857Q15.3198 -5.2965 14.7502 -5.03879L14.7502 -10.1251Z" fill="#262626" transform="translate(585.3466369703223,401.0984422034358) translate(-11.043972969055176,0)" />
<line x1="576.2467970306739" y1="372.07997457630347" x2="580.2838106239008" y2="374.7879115184551" stroke="#262626" stroke-width="1.1111111111111112" />
<path d="M2.6652 -1.15289L7.44629 -1.15289L7.44629 0L1.01725 0L1.01725 -1.15289Q1.79715 -1.95991 3.14331 -3.31963Q4.48947 -4.67936 4.83534 -5.0727Q5.49316 -5.8119 5.75426 -6.32392Q6.01535 -6.83594 6.01535 -7.331Q6.01535 -8.13802 5.44908 -8.64665Q4.88281 -9.15527 3.97407 -9.15527Q3.32981 -9.15527 2.61434 -8.93148Q1.89887 -8.70768 1.08507 -8.25331L1.08507 -9.63677Q1.91243 -9.96908 2.63129 -10.1386Q3.35015 -10.3082 3.94694 -10.3082Q5.52029 -10.3082 6.45616 -9.52148Q7.39204 -8.73481 7.39204 -7.41916Q7.39204 -6.79525 7.15807 -6.23576Q6.9241 -5.67627 6.30697 -4.91672Q6.13742 -4.72005 5.22868 -3.78079Q4.31993 -2.84153 2.6652 -1.15289ZM10.3217 -1.72255L11.7527 -1.72255L11.7527 0L10.3217 0L10.3217 -1.72255ZM17.6663 -9.22309Q16.6083 -9.22309 16.076 -8.1821Q15.5436 -7.14111 15.5436 -5.05235Q15.5436 -2.97038 16.076 -1.92939Q16.6083 -0.888401 17.6663 -0.888401Q18.731 -0.888401 19.2634 -1.92939Q19.7957 -2.97038 19.7957 -5.05235Q19.7957 -7.14111 19.2634 -8.1821Q18.731 -9.22309 17.6663 -9.22309ZM17.6663 -10.3082Q19.3685 -10.3082 20.2671 -8.962Q21.1656 -7.61583 21.1656 -5.05235Q21.1656 -2.49566 20.2671 -1.1495Q19.3685 0.196669 17.6663 0.196669Q15.9641 0.196669 15.0655 -1.1495Q14.1669 -2.49566 14.1669 -5.05235Q14.1669 -7.61583 15.0655 -8.962Q15.9641 -10.3082 17.6663 -10.3082Z" fill="#262626" transform="translate(595.947423365621,385.2947068540032) translate(-11.043972969055176,0)" />
<line x1="582.7046718862335" y1="335.4289091545358" x2="587.5629372978551" y2="335.59521737684963" stroke="#262626" stroke-width="1.1111111111111112" />
<path d="M1.72255 -1.15289L3.9605 -1.15289L3.9605 -8.87722L1.52588 -8.38894L1.52588 -9.63677L3.94694 -10.1251L5.31684 -10.1251L5.31684 -1.15289L7.5548 -1.15289L7.5548 0L1.72255 0L1.72255 -1.15289Z" fill="#262626" transform="translate(606.4130070949469,336.24049327942737) translate(-4.418267250061035,0)" />
<line x1="583.6510055083666" y1="307.7842152224066" x2="588.5092709199881" y2="307.95052344472043" stroke="#262626" stroke-width="1.1111111111111112" />
<path d="M2.6652 -1.15289L7.44629 -1.15289L7.44629 0L1.01725 0L1.01725 -1.15289Q1.79715 -1.95991 3.14331 -3.31963Q4.48947 -4.67936 4.83534 -5.0727Q5.49316 -5.8119 5.75426 -6.32392Q6.01535 -6.83594 6.01535 -7.331Q6.01535 -8.13802 5.44908 -8.64665Q4.88281 -9.15527 3.97407 -9.15527Q3.32981 -9.15527 2.61434 -8.93148Q1.89887 -8.70768 1.08507 -8.25331L1.08507 -9.63677Q1.91243 -9.96908 2.63129 -10.1386Q3.35015 -10.3082 3.94694 -10.3082Q5.52029 -10.3082 6.45616 -9.52148Q7.39204 -8.73481 7.39204 -7.41916Q7.39204 -6.79525 7.15807 -6.23576Q6.9241 -5.67627 6.30697 -4.91672Q6.13742 -4.72005 5.22868 -3.78079Q4.31993 -2.84153 2.6652 -1.15289Z" fill="#262626" transform="translate(607.3593407170799,308.59579934729817) translate(-4.418267250061035,0)" />
<line x1="584.605653673821" y1="279.8966333700576" x2="589.4639190854426" y2="280.06294159237143" stroke="#262626" stroke-width="1.1111111111111112" />
<path d="M5.63558 -5.45926Q6.61892 -5.24902 7.17163 -4.58442Q7.72434 -3.91981 7.72434 -2.94325Q7.72434 -1.4445 6.69352 -0.623915Q5.66271 0.196669 3.76383 0.196669Q3.12636 0.196669 2.45158 0.0712077Q1.7768 -0.0542535 1.05794 -0.305176L1.05794 -1.6276Q1.6276 -1.2953 2.30577 -1.12576Q2.98394 -0.956217 3.72314 -0.956217Q5.01166 -0.956217 5.68644 -1.46484Q6.36122 -1.97347 6.36122 -2.94325Q6.36122 -3.83843 5.73391 -4.34367Q5.10661 -4.8489 3.98763 -4.8489L2.80762 -4.8489L2.80762 -5.97466L4.04188 -5.97466Q5.05235 -5.97466 5.58811 -6.37817Q6.12386 -6.78168 6.12386 -7.54123Q6.12386 -8.32113 5.57115 -8.7382Q5.01845 -9.15527 3.98763 -9.15527Q3.42475 -9.15527 2.78049 -9.0332Q2.13623 -8.91113 1.36312 -8.65343L1.36312 -9.87413Q2.14301 -10.0911 2.82457 -10.1997Q3.50613 -10.3082 4.1097 -10.3082Q5.66949 -10.3082 6.57823 -9.59947Q7.48698 -8.89079 7.48698 -7.68365Q7.48698 -6.84272 7.00548 -6.26289Q6.52398 -5.68305 5.63558 -5.45926Z" fill="#262626" transform="translate(608.3139888825344,280.70821749494917) translate(-4.418267250061035,0)" />
<line x1="585.5687264442073" y1="251.76294843166448" x2="590.4269918558289" y2="251.92925665397834" stroke="#262626" stroke-width="1.1111111111111112" />
<path d="M5.24902 -8.93148L1.79036 -3.52648L5.24902 -3.52648L5.24902 -8.93148ZM4.88959 -10.1251L6.61214 -10.1251L6.61214 -3.52648L8.05664 -3.52648L8.05664 -2.38715L6.61214 -2.38715L6.61214 0L5.24902 0L5.24902 -2.38715L0.678168 -2.38715L0.678168 -3.70958L4.88959 -10.1251Z" fill="#262626" transform="translate(609.2770616529207,252.57453255655605) translate(-4.418267250061035,0)" />
<line x1="586.5403358322937" y1="223.37988824333945" x2="591.3986012439153" y2="223.5461964656533" stroke="#262626" stroke-width="1.1111111111111112" />
<path d="M1.49875 -10.1251L6.87663 -10.1251L6.87663 -8.97217L2.75336 -8.97217L2.75336 -6.49007Q3.05176 -6.5918 3.35015 -6.64266Q3.64855 -6.69352 3.94694 -6.69352Q5.64236 -6.69352 6.63249 -5.76443Q7.62261 -4.83534 7.62261 -3.24843Q7.62261 -1.61404 6.60536 -0.708686Q5.58811 0.196669 3.73671 0.196669Q3.09923 0.196669 2.43802 0.0881619C1.99721 0.0158239 1.5417 -0.092683 1.07151 -0.237359L1.07151 -1.61404Q1.68186 -1.28174 2.3329 -1.11898Q2.98394 -0.956217 3.70958 -0.956217Q4.88281 -0.956217 5.56776 -1.57335Q6.25271 -2.19048 6.25271 -3.24843Q6.25271 -4.30637 5.56776 -4.9235Q4.88281 -5.54064 3.70958 -5.54064Q3.16026 -5.54064 2.61434 -5.41857Q2.06841 -5.2965 1.49875 -5.03879L1.49875 -10.1251Z" fill="#262626" transform="translate(610.2486710410071,224.19147236823102) translate(-4.418267250061035,0)" />
<line x1="587.5205958454376" y1="194.74412237444" x2="592.3788612570592" y2="194.91043059675386" stroke="#262626" stroke-width="1.1111111111111112" />
<path d="M4.58442 -5.60845Q3.66211 -5.60845 3.12297 -4.97776Q2.58382 -4.34706 2.58382 -3.24843Q2.58382 -2.15658 3.12297 -1.52249Q3.66211 -0.888401 4.58442 -0.888401Q5.50673 -0.888401 6.04587 -1.52249Q6.58502 -2.15658 6.58502 -3.24843Q6.58502 -4.34706 6.04587 -4.97776Q5.50673 -5.60845 4.58442 -5.60845ZM7.30387 -9.90126L7.30387 -8.65343Q6.78847 -8.89757 6.26289 -9.02642Q5.7373 -9.15527 5.2219 -9.15527Q3.86556 -9.15527 3.15009 -8.23975Q2.43462 -7.32422 2.3329 -5.47282Q2.73302 -6.06282 3.33659 -6.37817Q3.94016 -6.69352 4.6658 -6.69352Q6.19168 -6.69352 7.07669 -5.76782Q7.9617 -4.84212 7.9617 -3.24843Q7.9617 -1.68864 7.03939 -0.745985Q6.11708 0.196669 4.58442 0.196669Q2.82796 0.196669 1.89887 -1.1495Q0.969781 -2.49566 0.969781 -5.05235Q0.969781 -7.45307 2.1091 -8.88062Q3.24843 -10.3082 5.16764 -10.3082Q5.68305 -10.3082 6.20863 -10.2064Q6.73421 -10.1047 7.30387 -9.90126Z" fill="#262626" transform="translate(611.228931054151,195.55570649933156) translate(-4.418267250061035,0)" />
<line x1="588.5096225301794" y1="165.8522608248393" x2="593.367887941801" y2="166.01856904715316" stroke="#262626" stroke-width="1.1111111111111112" />
<path d="M1.13932 -10.1251L7.64974 -10.1251L7.64974 -9.54183L3.97407 0L2.54313 0L6.00179 -8.97217L1.13932 -8.97217L1.13932 -10.1251Z" fill="#262626" transform="translate(612.2179577388928,166.66384494973087) translate(-4.418267250061035,0)" />
<line x1="589.5075340180404" y1="136.70085268708806" x2="594.3657994296619" y2="136.86716090940192" stroke="#262626" stroke-width="1.1111111111111112" />
<path d="M4.41488 -4.80821Q3.43831 -4.80821 2.87882 -4.28602Q2.31934 -3.76383 2.31934 -2.84831Q2.31934 -1.93278 2.87882 -1.41059Q3.43831 -0.888401 4.41488 -0.888401Q5.39144 -0.888401 5.95432 -1.41398Q6.5172 -1.93956 6.5172 -2.84831Q6.5172 -3.76383 5.95771 -4.28602Q5.39822 -4.80821 4.41488 -4.80821ZM3.04498 -5.39144Q2.16336 -5.60845 1.67169 -6.21202Q1.18001 -6.81559 1.18001 -7.68365Q1.18001 -8.89757 2.04468 -9.60287Q2.90934 -10.3082 4.41488 -10.3082Q5.92719 -10.3082 6.78847 -9.60287Q7.64974 -8.89757 7.64974 -7.68365Q7.64974 -6.81559 7.15807 -6.21202Q6.6664 -5.60845 5.79156 -5.39144Q6.78168 -5.16086 7.33439 -4.48947Q7.8871 -3.81809 7.8871 -2.84831Q7.8871 -1.37668 6.98853 -0.590007Q6.08995 0.196669 4.41488 0.196669Q2.7398 0.196669 1.84123 -0.590007Q0.942654 -1.37668 0.942654 -2.84831Q0.942654 -3.81809 1.49875 -4.48947Q2.05485 -5.16086 3.04498 -5.39144ZM2.54313 -7.5548Q2.54313 -6.76812 3.0348 -6.32731Q3.52648 -5.8865 4.41488 -5.8865Q5.29649 -5.8865 5.79495 -6.32731Q6.2934 -6.76812 6.2934 -7.5548Q6.2934 -8.34147 5.79495 -8.78228Q5.2965 -9.22309 4.41488 -9.22309Q3.52648 -9.22309 3.0348 -8.78228Q2.54313 -8.34147 2.54313 -7.5548Z" fill="#262626" transform="translate(613.2158692267537,137.51243681197963) translate(-4.418267250061035,0)" />
</svg>
