<svg xmlns="http://www.w3.org/2000/svg" viewBox="0 0 800 600" width="800" height="600" role="img" aria-labelledby="chart-title">
<title id="chart-title"></title>
<rect x="0" y="0" width="800" height="600" fill="#FFFFFF" />
<rect x="60" y="40" width="720" height="510" fill="#FFFFFF" />
<line x1="92.72727272727273" y1="40" x2="92.72727272727273" y2="550" stroke="#B0B0B0" stroke-width="0.8" />
<line x1="174.95660118775697" y1="40" x2="174.95660118775697" y2="550" stroke="#B0B0B0" stroke-width="0.8" />
<line x1="257.18592964824126" y1="40" x2="257.18592964824126" y2="550" stroke="#B0B0B0" stroke-width="0.8" />
<line x1="339.4152581087255" y1="40" x2="339.4152581087255" y2="550" stroke="#B0B0B0" stroke-width="0.8" />
<line x1="421.64458656920976" y1="40" x2="421.64458656920976" y2="550" stroke="#B0B0B0" stroke-width="0.8" />
<line x1="503.873915029694" y1="40" x2="503.873915029694" y2="550" stroke="#B0B0B0" stroke-width="0.8" />
<line x1="586.1032434901782" y1="40" x2="586.1032434901782" y2="550" stroke="#B0B0B0" stroke-width="0.8" />
<line x1="668.3325719506626" y1="40" x2="668.3325719506626" y2="550" stroke="#B0B0B0" stroke-width="0.8" />
<line x1="750.5619004111468" y1="40" x2="750.5619004111468" y2="550" stroke="#B0B0B0" stroke-width="0.8" />
<line x1="60" y1="480.07226095867156" x2="780" y2="480.07226095867156" stroke="#B0B0B0" stroke-width="0.8" />
<line x1="60" y1="391.8468607251725" x2="780" y2="391.8468607251725" stroke="#B0B0B0" stroke-width="0.8" />
<line x1="60" y1="303.6214604916735" x2="780" y2="303.6214604916735" stroke="#B0B0B0" stroke-width="0.8" />
<line x1="60" y1="215.39606025817443" x2="780" y2="215.39606025817443" stroke="#B0B0B0" stroke-width="0.8" />
<line x1="60" y1="127.17066002467539" x2="780" y2="127.17066002467539" stroke="#B0B0B0" stroke-width="0.8" />
<line x1="92.72727272727273" y1="549.6" x2="92.72727272727273" y2="553.5" stroke="#000000" stroke-width="0.8" />
<text x="92.72727272727273" y="569.5" font-family="sans-serif" font-size="13" text-anchor="middle" fill="#000000">0</text>
<line x1="174.95660118775697" y1="549.6" x2="174.95660118775697" y2="553.5" stroke="#000000" stroke-width="0.8" />
<text x="174.95660118775697" y="569.5" font-family="sans-serif" font-size="13" text-anchor="middle" fill="#000000">25</text>
<line x1="257.18592964824126" y1="549.6" x2="257.18592964824126" y2="553.5" stroke="#000000" stroke-width="0.8" />
<text x="257.18592964824126" y="569.5" font-family="sans-serif" font-size="13" text-anchor="middle" fill="#000000">50</text>
<line x1="339.4152581087255" y1="549.6" x2="339.4152581087255" y2="553.5" stroke="#000000" stroke-width="0.8" />
<text x="339.4152581087255" y="569.5" font-family="sans-serif" font-size="13" text-anchor="middle" fill="#000000">75</text>
<line x1="421.64458656920976" y1="549.6" x2="421.64458656920976" y2="553.5" stroke="#000000" stroke-width="0.8" />
<text x="421.64458656920976" y="569.5" font-family="sans-serif" font-size="13" text-anchor="middle" fill="#000000">100</text>
<line x1="503.873915029694" y1="549.6" x2="503.873915029694" y2="553.5" stroke="#000000" stroke-width="0.8" />
<text x="503.873915029694" y="569.5" font-family="sans-serif" font-size="13" text-anchor="middle" fill="#000000">125</text>
<line x1="586.1032434901782" y1="549.6" x2="586.1032434901782" y2="553.5" stroke="#000000" stroke-width="0.8" />
<text x="586.1032434901782" y="569.5" font-family="sans-serif" font-size="13" text-anchor="middle" fill="#000000">150</text>
<line x1="668.3325719506626" y1="549.6" x2="668.3325719506626" y2="553.5" stroke="#000000" stroke-width="0.8" />
<text x="668.3325719506626" y="569.5" font-family="sans-serif" font-size="13" text-anchor="middle" fill="#000000">175</text>
<line x1="750.5619004111468" y1="549.6" x2="750.5619004111468" y2="553.5" stroke="#000000" stroke-width="0.8" />
<text x="750.5619004111468" y="569.5" font-family="sans-serif" font-size="13" text-anchor="middle" fill="#000000">200</text>
<line x1="76.28140703517587" y1="549.6" x2="76.28140703517587" y2="553.5" stroke="#000000" stroke-width="0.8" />
<line x1="109.1731384193696" y1="549.6" x2="109.1731384193696" y2="553.5" stroke="#000000" stroke-width="0.8" />
<line x1="125.61900411146644" y1="549.6" x2="125.61900411146644" y2="553.5" stroke="#000000" stroke-width="0.8" />
<line x1="142.06486980356328" y1="549.6" x2="142.06486980356328" y2="553.5" stroke="#000000" stroke-width="0.8" />
<line x1="158.51073549566013" y1="549.6" x2="158.51073549566013" y2="553.5" stroke="#000000" stroke-width="0.8" />
<line x1="191.40246687985382" y1="549.6" x2="191.40246687985382" y2="553.5" stroke="#000000" stroke-width="0.8" />
<line x1="207.8483325719507" y1="549.6" x2="207.8483325719507" y2="553.5" stroke="#000000" stroke-width="0.8" />
<line x1="224.29419826404757" y1="549.6" x2="224.29419826404757" y2="553.5" stroke="#000000" stroke-width="0.8" />
<line x1="240.7400639561444" y1="549.6" x2="240.7400639561444" y2="553.5" stroke="#000000" stroke-width="0.8" />
<line x1="273.6317953403381" y1="549.6" x2="273.6317953403381" y2="553.5" stroke="#000000" stroke-width="0.8" />
<line x1="290.07766103243495" y1="549.6" x2="290.07766103243495" y2="553.5" stroke="#000000" stroke-width="0.8" />
<line x1="306.5235267245318" y1="549.6" x2="306.5235267245318" y2="553.5" stroke="#000000" stroke-width="0.8" />
<line x1="322.96939241662864" y1="549.6" x2="322.96939241662864" y2="553.5" stroke="#000000" stroke-width="0.8" />
<line x1="355.8611238008224" y1="549.6" x2="355.8611238008224" y2="553.5" stroke="#000000" stroke-width="0.8" />
<line x1="372.30698949291923" y1="549.6" x2="372.30698949291923" y2="553.5" stroke="#000000" stroke-width="0.8" />
<line x1="388.7528551850161" y1="549.6" x2="388.7528551850161" y2="553.5" stroke="#000000" stroke-width="0.8" />
<line x1="405.1987208771129" y1="549.6" x2="405.1987208771129" y2="553.5" stroke="#000000" stroke-width="0.8" />
<line x1="438.0904522613066" y1="549.6" x2="438.0904522613066" y2="553.5" stroke="#000000" stroke-width="0.8" />
<line x1="454.53631795340345" y1="549.6" x2="454.53631795340345" y2="553.5" stroke="#000000" stroke-width="0.8" />
<line x1="470.9821836455003" y1="549.6" x2="470.9821836455003" y2="553.5" stroke="#000000" stroke-width="0.8" />
<line x1="487.42804933759714" y1="549.6" x2="487.42804933759714" y2="553.5" stroke="#000000" stroke-width="0.8" />
<line x1="520.3197807217908" y1="549.6" x2="520.3197807217908" y2="553.5" stroke="#000000" stroke-width="0.8" />
<line x1="536.7656464138877" y1="549.6" x2="536.7656464138877" y2="553.5" stroke="#000000" stroke-width="0.8" />
<line x1="553.2115121059845" y1="549.6" x2="553.2115121059845" y2="553.5" stroke="#000000" stroke-width="0.8" />
<line x1="569.6573777980814" y1="549.6" x2="569.6573777980814" y2="553.5" stroke="#000000" stroke-width="0.8" />
<line x1="602.5491091822751" y1="549.6" x2="602.5491091822751" y2="553.5" stroke="#000000" stroke-width="0.8" />
<line x1="618.994974874372" y1="549.6" x2="618.994974874372" y2="553.5" stroke="#000000" stroke-width="0.8" />
<line x1="635.4408405664689" y1="549.6" x2="635.4408405664689" y2="553.5" stroke="#000000" stroke-width="0.8" />
<line x1="651.8867062585657" y1="549.6" x2="651.8867062585657" y2="553.5" stroke="#000000" stroke-width="0.8" />
<line x1="684.7784376427594" y1="549.6" x2="684.7784376427594" y2="553.5" stroke="#000000" stroke-width="0.8" />
<line x1="701.2243033348562" y1="549.6" x2="701.2243033348562" y2="553.5" stroke="#000000" stroke-width="0.8" />
<line x1="717.6701690269531" y1="549.6" x2="717.6701690269531" y2="553.5" stroke="#000000" stroke-width="0.8" />
<line x1="734.1160347190499" y1="549.6" x2="734.1160347190499" y2="553.5" stroke="#000000" stroke-width="0.8" />
<line x1="767.0077661032436" y1="549.6" x2="767.0077661032436" y2="553.5" stroke="#000000" stroke-width="0.8" />
<line x1="476.57226095867156" y1="60" x2="480.47226095867154" y2="60" stroke="#000000" stroke-width="0.8" />
<text x="53.5" y="484.07226095867156" font-family="sans-serif" font-size="13" text-anchor="end" fill="#000000">-50k</text>
<line x1="388.3468607251725" y1="60" x2="392.2468607251725" y2="60" stroke="#000000" stroke-width="0.8" />
<text x="53.5" y="395.8468607251725" font-family="sans-serif" font-size="13" text-anchor="end" fill="#000000">0</text>
<line x1="300.1214604916735" y1="60" x2="304.02146049167345" y2="60" stroke="#000000" stroke-width="0.8" />
<text x="53.5" y="307.6214604916735" font-family="sans-serif" font-size="13" text-anchor="end" fill="#000000">50k</text>
<line x1="211.89606025817443" y1="60" x2="215.79606025817444" y2="60" stroke="#000000" stroke-width="0.8" />
<text x="53.5" y="219.39606025817443" font-family="sans-serif" font-size="13" text-anchor="end" fill="#000000">100k</text>
<line x1="123.67066002467539" y1="60" x2="127.57066002467539" y2="60" stroke="#000000" stroke-width="0.8" />
<text x="53.5" y="131.17066002467539" font-family="sans-serif" font-size="13" text-anchor="end" fill="#000000">150k</text>
<line x1="529.507501098771" y1="60" x2="533.4075010987709" y2="60" stroke="#000000" stroke-width="0.8" />
<line x1="511.8624210520712" y1="60" x2="515.7624210520712" y2="60" stroke="#000000" stroke-width="0.8" />
<line x1="494.2173410053714" y1="60" x2="498.1173410053714" y2="60" stroke="#000000" stroke-width="0.8" />
<line x1="458.92718091197173" y1="60" x2="462.8271809119717" y2="60" stroke="#000000" stroke-width="0.8" />
<line x1="441.28210086527196" y1="60" x2="445.18210086527193" y2="60" stroke="#000000" stroke-width="0.8" />
<line x1="423.6370208185721" y1="60" x2="427.5370208185721" y2="60" stroke="#000000" stroke-width="0.8" />
<line x1="405.99194077187235" y1="60" x2="409.8919407718723" y2="60" stroke="#000000" stroke-width="0.8" />
<line x1="370.7017806784727" y1="60" x2="374.60178067847266" y2="60" stroke="#000000" stroke-width="0.8" />
<line x1="353.0567006317729" y1="60" x2="356.9567006317729" y2="60" stroke="#000000" stroke-width="0.8" />
<line x1="335.4116205850731" y1="60" x2="339.31162058507306" y2="60" stroke="#000000" stroke-width="0.8" />
<line x1="317.7665405383733" y1="60" x2="321.6665405383733" y2="60" stroke="#000000" stroke-width="0.8" />
<line x1="282.47638044497364" y1="60" x2="286.3763804449736" y2="60" stroke="#000000" stroke-width="0.8" />
<line x1="264.83130039827387" y1="60" x2="268.73130039827385" y2="60" stroke="#000000" stroke-width="0.8" />
<line x1="247.18622035157404" y1="60" x2="251.08622035157404" y2="60" stroke="#000000" stroke-width="0.8" />
<line x1="229.54114030487423" y1="60" x2="233.44114030487424" y2="60" stroke="#000000" stroke-width="0.8" />
<line x1="194.25098021147463" y1="60" x2="198.15098021147463" y2="60" stroke="#000000" stroke-width="0.8" />
<line x1="176.60590016477482" y1="60" x2="180.50590016477483" y2="60" stroke="#000000" stroke-width="0.8" />
<line x1="158.960820118075" y1="60" x2="162.860820118075" y2="60" stroke="#000000" stroke-width="0.8" />
<line x1="141.3157400713752" y1="60" x2="145.2157400713752" y2="60" stroke="#000000" stroke-width="0.8" />
<line x1="106.02557997797555" y1="60" x2="109.92557997797556" y2="60" stroke="#000000" stroke-width="0.8" />
<line x1="88.38049993127578" y1="60" x2="92.28049993127578" y2="60" stroke="#000000" stroke-width="0.8" />
<line x1="70.73541988457595" y1="60" x2="74.63541988457595" y2="60" stroke="#000000" stroke-width="0.8" />
<line x1="53.09033983787617" y1="60" x2="56.99033983787617" y2="60" stroke="#000000" stroke-width="0.8" />
<g class="series" aria-label="Signal">
<polyline points="92.72727272727273,391.8468607251725 96.0164458656921,373.3489204421494 99.30561900411148,355.02699027347114 102.59479214253085,337.05532169860146 105.8839652809502,319.6046664989397 109.17313841936958,302.84057066246424 112.46231155778895,286.9217203029429 115.75148469620832,271.9983561207388 119.0406578346277,258.21077224739514 122.32983097304707,245.6879144730483 125.61900411146644,234.54609186271608 128.9081772498858,224.88781463456715 132.19735038830518,216.80076991170628 135.48652352672454,210.35694558142578 138.77569666514393,205.6119110160317 142.06486980356328,202.60426184204474 145.35404294198264,201.35523430545769 148.64321608040203,201.86849308618568 151.93238921882138,204.13009468179547 155.22156235724077,208.10862672637293 158.51073549566013,213.75552185249956 161.79990863407951,221.0055429603335 165.08908177249887,229.77743504514675 168.37825491091826,239.97473707047283 171.66742804933762,251.48674577489777 174.95660118775697,264.18962178245397 178.24577432617636,277.9476269647298 181.53494746459572,292.61448069137873 184.8241206030151,308.03482141782445 188.11329374143446,324.0457590064583 191.40246687985385,340.47850227105 194.6916400182732,357.16004548248566 197.9808131566926,373.9148969848247 201.26998629511195,390.5668326499163 204.5591594335313,406.94065665063613 207.8483325719507,422.8639519596785 211.13750571037005,438.1688030835004 214.42667884878944,452.69347381842675 217.7158519872088,466.2840232653349 221.00502512562818,478.79584395623294 224.29419826404754,490.0951067242784 227.5833714024669,500.0600978805759 230.87254454088628,508.5824353371227 234.16171767930564,515.5681515248064 237.45089081772502,520.9386322862936 240.74006395614438,524.6314023627032 244.02923709456377,526.6007496257425 247.31841023298313,526.8181818181819 250.60758337140248,525.2727112390711 253.89675650982187,521.970964529215 257.18592964824126,516.9371164599693 260.4751027866606,510.2126483869159 263.76427592507997,501.85593378187025 267.05344906349933,491.9416549844464 270.34262220191874,480.5600570008065 273.6317953403381,467.8160458053901 276.92096847875746,453.8281401550947 280.2101416171768,438.7272873890344 283.4993147555962,422.6555550460123 286.7884878940156,405.7647113726348 290.07766103243495,388.2147089051586 293.3668341708543,370.1720862766222 296.65600730927366,351.8083042178752 299.9451804476931,333.298032378632 303.23435358611243,314.8174040860714 306.5235267245318,296.542256478852 309.81269986295115,278.64637360054746 313.1018730013705,261.2997500069287 316.3910461397899,244.6668922365547 319.6802192782093,228.90517511581848 322.96939241662864,214.16326932170242 326.258565555048,200.57965591351805 329.5477386934674,188.2812426759377 332.83691183188677,177.38209609835917 336.1260849703061,167.98230166025004 339.4152581087255,160.16696381011997 342.70443124714484,154.0053556300032 345.99360438556425,149.5502266817218 349.2827775239836,146.83727595070008 352.57195066240297,145.88479515350332 355.8611238008223,146.69348597305185 359.1502969392417,149.24645304763743 362.4394700776611,153.5093727837927 365.72864321608046,159.43083630629081 369.0178163544998,166.94286311863368 372.3069894929192,175.96158034170142 375.5961626313386,186.3880607438357 378.88533576975794,198.1093111890379 382.1745089081773,210.99940162703248 385.46368204659666,224.92072334470367 388.752855185016,239.7253639068687 392.04202832343543,255.25658504843702 395.3312014618548,271.35038875134455 398.62037460027415,287.8371558585386 401.9095477386935,304.543340852528 405.1987208771129,321.29320586482646 408.4878940155323,337.91057659064376 411.77706715395163,354.22060256430234 415.066240292371,370.05150420729467 418.35541343079035,385.2362891930473 421.64458656920976,399.6144209790483 424.9337597076291,413.03342283491367 428.2229328460485,425.3504013394745 431.51210598446784,436.43347412460827 434.8012791228872,446.1630876002657 438.0904522613066,454.4332114944239 441.37962539972597,461.15239827251503 444.6687985381453,466.24469685096307 447.9579716765647,469.65041147530536 451.2471448149841,471.3266981804383 454.53631795340345,471.24799287335395 457.8254910918228,469.40626676110713 461.11466423024217,465.8111065718609 464.4038373686615,460.4896187674673 467.69301050708094,453.48615870466085 470.9821836455003,444.86188745099605 474.27135678391966,434.69416068367747 477.560529922339,423.0757557772039 480.84970306075843,410.1139448025096 484.1388761991778,395.9294226998918 487.42804933759714,380.65510133506336 490.7172224760165,364.43478148772493 494.00639561443586,347.42171604171 497.2955687528553,329.7770787328261 500.58474189127463,311.6683537541651 503.873915029694,293.26766230940814 507.16308816811335,274.75004283465415 510.45226130653276,256.2917020722274 513.7414344449521,238.06825447115244 517.0306075833714,220.25296750563157 520.3197807217908,203.0150304437163 523.6089538602102,186.51786386406772 526.8981269986296,170.91748681155508 530.187300137049,156.36095790653073 533.4764732754684,142.98490598370813 536.7656464138877,130.91416494200826 540.0548195523071,120.26052644550617 543.3439926907264,111.12162293807759 546.6331658291458,103.57995213229194 549.9223389675652,97.70205271953857 553.2115121059845,93.53783953741768 556.5006852444039,91.12010483718218 559.7898583828232,90.46419063440317 563.0790315212427,91.5678354166213 566.3682046596621,94.4111967396323 569.6573777980814,98.95704948662997 572.9465509365008,105.1511578092686 576.2357240749201,112.92281703433129 579.5248972133395,122.18556012145325 582.8140703517589,132.83802161320696 586.1032434901782,144.76495044524538 589.3924166285976,157.83836149684063 592.6815897670169,171.91881437590297 595.9707629054363,186.8568066612869 599.2599360438558,202.4942676815637 602.5491091822751,218.66613790491934 605.8382823206945,235.20201815943483 609.1274554591139,251.92787220528487 612.4166285975332,268.66776564731896 615.7058017359526,285.24562381338046 618.9949748743719,301.4869910342284 622.2841480127913,317.2207737469178 625.5733211512107,332.2809500051227 628.86249428963,346.5082283155477 632.1516674280494,359.75163922587035 635.4408405664688,371.8700437616072 638.7300137048882,382.7335436400928 642.0191868433076,392.2247791711794 645.3083599817269,400.24010187646957 648.5975331201463,406.690610110648 651.8867062585656,411.50303733733625 655.175879396985,414.6204841841057 658.4650525354044,416.00298696219704 661.7542256738237,415.6279169704896 665.0433988122431,413.49020659400173 668.3325719506626,409.60239993782545 671.6217450890819,403.99452749057406 674.9109182275013,396.7138060696678 678.2000913659206,387.8241670465004 681.48926450434,377.40561756531065 684.7784376427594,365.5534411382435 688.0676107811787,352.37724560399187 691.3567839195981,337.9998679625068 694.6459570580174,322.55614702829484 697.9351301964368,306.19157616555884 701.2243033348562,289.060849566595 704.5134764732755,271.3263165985567 707.802649611695,253.1563596622476 711.0918227501143,234.723711770828 714.3809958885337,216.2037306586493 717.6701690269531,197.7726466647363 720.9593421653724,179.6058018974916 724.2485153037918,161.87589827431276 727.5376884422111,144.75127194111928 730.8268615806305,128.39421131322547 734.1160347190499,112.95933554314402 737.4052078574692,98.59204961712007 740.6943809958887,85.4270915165768 743.9835541343081,73.58718596074158 747.2727272727274,63.18181818181826" fill="none" stroke="#1F77B4" stroke-width="1.5" />
</g>
<g class="spine">
<line x1="60" y1="550" x2="780" y2="550" stroke="#000000" stroke-width="0.8" />
</g>
<g class="spine">
<line x1="60" y1="40" x2="780" y2="40" stroke="#000000" stroke-width="0.8" />
</g>
<g class="spine">
<line x1="60" y1="40" x2="60" y2="550" stroke="#000000" stroke-width="0.8" />
</g>
<g class="spine">
<line x1="780" y1="40" x2="780" y2="550" stroke="#000000" stroke-width="0.8" />
</g>
<rect x="698.8199999999999" y="50" width="71.18" height="28" fill="#FFFFFF" fill-opacity="0.8" stroke="#000000" stroke-width="0.5" />
<g class="legend" aria-label="Chart legend">
<rect x="706.8199999999999" y="58" width="12" height="12" fill="#1F77B4" />
<text x="724.8199999999999" y="69" font-family="sans-serif" font-size="13" text-anchor="start" fill="#000000">Signal</text>
</g>
<text x="420" y="32" font-family="sans-serif" font-size="15" text-anchor="middle" font-weight="bold" fill="#000000">Engineering notation + MultipleLocator</text>
<text x="420" y="585" font-family="sans-serif" font-size="13" text-anchor="middle" fill="#000000">Sample index</text>
<text x="15" y="295" font-family="sans-serif" font-size="13" text-anchor="middle" transform="rotate(-90,15,295)" fill="#000000">Amplitude</text>
</svg>
