<svg xmlns="http://www.w3.org/2000/svg" viewBox="0 0 800 600" width="800" height="600" role="img" aria-labelledby="chart-title">
<title id="chart-title"></title>
<rect x="0" y="0" width="800" height="600" fill="#FFFFFF" />
<rect x="100" y="72" width="620" height="462" fill="#FFFFFF" />
<line x1="128.1818181818182" y1="533.6" x2="128.1818181818182" y2="538.8611111111111" stroke="#262626" stroke-width="1.1111111111111112" />
<text x="128.1818181818182" y="557.6111111111111" font-family="DejaVu Sans, sans-serif" font-size="13.88888888888889" text-anchor="middle" fill="#262626">0</text>
<line x1="198.9904065783463" y1="533.6" x2="198.9904065783463" y2="538.8611111111111" stroke="#262626" stroke-width="1.1111111111111112" />
<text x="198.9904065783463" y="557.6111111111111" font-family="DejaVu Sans, sans-serif" font-size="13.88888888888889" text-anchor="middle" fill="#262626">25</text>
<line x1="269.7989949748744" y1="533.6" x2="269.7989949748744" y2="538.8611111111111" stroke="#262626" stroke-width="1.1111111111111112" />
<text x="269.7989949748744" y="557.6111111111111" font-family="DejaVu Sans, sans-serif" font-size="13.88888888888889" text-anchor="middle" fill="#262626">50</text>
<line x1="340.6075833714025" y1="533.6" x2="340.6075833714025" y2="538.8611111111111" stroke="#262626" stroke-width="1.1111111111111112" />
<text x="340.6075833714025" y="557.6111111111111" font-family="DejaVu Sans, sans-serif" font-size="13.88888888888889" text-anchor="middle" fill="#262626">75</text>
<line x1="411.4161717679306" y1="533.6" x2="411.4161717679306" y2="538.8611111111111" stroke="#262626" stroke-width="1.1111111111111112" />
<text x="411.4161717679306" y="557.6111111111111" font-family="DejaVu Sans, sans-serif" font-size="13.88888888888889" text-anchor="middle" fill="#262626">100</text>
<line x1="482.2247601644587" y1="533.6" x2="482.2247601644587" y2="538.8611111111111" stroke="#262626" stroke-width="1.1111111111111112" />
<text x="482.2247601644587" y="557.6111111111111" font-family="DejaVu Sans, sans-serif" font-size="13.88888888888889" text-anchor="middle" fill="#262626">125</text>
<line x1="553.0333485609868" y1="533.6" x2="553.0333485609868" y2="538.8611111111111" stroke="#262626" stroke-width="1.1111111111111112" />
<text x="553.0333485609868" y="557.6111111111111" font-family="DejaVu Sans, sans-serif" font-size="13.88888888888889" text-anchor="middle" fill="#262626">150</text>
<line x1="623.8419369575149" y1="533.6" x2="623.8419369575149" y2="538.8611111111111" stroke="#262626" stroke-width="1.1111111111111112" />
<text x="623.8419369575149" y="557.6111111111111" font-family="DejaVu Sans, sans-serif" font-size="13.88888888888889" text-anchor="middle" fill="#262626">175</text>
<line x1="694.6505253540431" y1="533.6" x2="694.6505253540431" y2="538.8611111111111" stroke="#262626" stroke-width="1.1111111111111112" />
<text x="694.6505253540431" y="557.6111111111111" font-family="DejaVu Sans, sans-serif" font-size="13.88888888888889" text-anchor="middle" fill="#262626">200</text>
<line x1="114.02010050251256" y1="533.6" x2="114.02010050251256" y2="538.8611111111111" stroke="#262626" stroke-width="1.1111111111111112" />
<line x1="142.3435358611238" y1="533.6" x2="142.3435358611238" y2="538.8611111111111" stroke="#262626" stroke-width="1.1111111111111112" />
<line x1="156.50525354042944" y1="533.6" x2="156.50525354042944" y2="538.8611111111111" stroke="#262626" stroke-width="1.1111111111111112" />
<line x1="170.66697121973505" y1="533.6" x2="170.66697121973505" y2="538.8611111111111" stroke="#262626" stroke-width="1.1111111111111112" />
<line x1="184.82868889904069" y1="533.6" x2="184.82868889904069" y2="538.8611111111111" stroke="#262626" stroke-width="1.1111111111111112" />
<line x1="213.1521242576519" y1="533.6" x2="213.1521242576519" y2="538.8611111111111" stroke="#262626" stroke-width="1.1111111111111112" />
<line x1="227.31384193695754" y1="533.6" x2="227.31384193695754" y2="538.8611111111111" stroke="#262626" stroke-width="1.1111111111111112" />
<line x1="241.47555961626315" y1="533.6" x2="241.47555961626315" y2="538.8611111111111" stroke="#262626" stroke-width="1.1111111111111112" />
<line x1="255.63727729556877" y1="533.6" x2="255.63727729556877" y2="538.8611111111111" stroke="#262626" stroke-width="1.1111111111111112" />
<line x1="283.96071265418004" y1="533.6" x2="283.96071265418004" y2="538.8611111111111" stroke="#262626" stroke-width="1.1111111111111112" />
<line x1="298.1224303334856" y1="533.6" x2="298.1224303334856" y2="538.8611111111111" stroke="#262626" stroke-width="1.1111111111111112" />
<line x1="312.28414801279126" y1="533.6" x2="312.28414801279126" y2="538.8611111111111" stroke="#262626" stroke-width="1.1111111111111112" />
<line x1="326.44586569209685" y1="533.6" x2="326.44586569209685" y2="538.8611111111111" stroke="#262626" stroke-width="1.1111111111111112" />
<line x1="354.7693010507081" y1="533.6" x2="354.7693010507081" y2="538.8611111111111" stroke="#262626" stroke-width="1.1111111111111112" />
<line x1="368.93101873001376" y1="533.6" x2="368.93101873001376" y2="538.8611111111111" stroke="#262626" stroke-width="1.1111111111111112" />
<line x1="383.0927364093194" y1="533.6" x2="383.0927364093194" y2="538.8611111111111" stroke="#262626" stroke-width="1.1111111111111112" />
<line x1="397.254454088625" y1="533.6" x2="397.254454088625" y2="538.8611111111111" stroke="#262626" stroke-width="1.1111111111111112" />
<line x1="425.5778894472362" y1="533.6" x2="425.5778894472362" y2="538.8611111111111" stroke="#262626" stroke-width="1.1111111111111112" />
<line x1="439.73960712654184" y1="533.6" x2="439.73960712654184" y2="538.8611111111111" stroke="#262626" stroke-width="1.1111111111111112" />
<line x1="453.9013248058475" y1="533.6" x2="453.9013248058475" y2="538.8611111111111" stroke="#262626" stroke-width="1.1111111111111112" />
<line x1="468.06304248515306" y1="533.6" x2="468.06304248515306" y2="538.8611111111111" stroke="#262626" stroke-width="1.1111111111111112" />
<line x1="496.38647784376434" y1="533.6" x2="496.38647784376434" y2="538.8611111111111" stroke="#262626" stroke-width="1.1111111111111112" />
<line x1="510.54819552307" y1="533.6" x2="510.54819552307" y2="538.8611111111111" stroke="#262626" stroke-width="1.1111111111111112" />
<line x1="524.7099132023756" y1="533.6" x2="524.7099132023756" y2="538.8611111111111" stroke="#262626" stroke-width="1.1111111111111112" />
<line x1="538.8716308816812" y1="533.6" x2="538.8716308816812" y2="538.8611111111111" stroke="#262626" stroke-width="1.1111111111111112" />
<line x1="567.1950662402924" y1="533.6" x2="567.1950662402924" y2="538.8611111111111" stroke="#262626" stroke-width="1.1111111111111112" />
<line x1="581.356783919598" y1="533.6" x2="581.356783919598" y2="538.8611111111111" stroke="#262626" stroke-width="1.1111111111111112" />
<line x1="595.5185015989036" y1="533.6" x2="595.5185015989036" y2="538.8611111111111" stroke="#262626" stroke-width="1.1111111111111112" />
<line x1="609.6802192782093" y1="533.6" x2="609.6802192782093" y2="538.8611111111111" stroke="#262626" stroke-width="1.1111111111111112" />
<line x1="638.0036546368206" y1="533.6" x2="638.0036546368206" y2="538.8611111111111" stroke="#262626" stroke-width="1.1111111111111112" />
<line x1="652.1653723161262" y1="533.6" x2="652.1653723161262" y2="538.8611111111111" stroke="#262626" stroke-width="1.1111111111111112" />
<line x1="666.3270899954318" y1="533.6" x2="666.3270899954318" y2="538.8611111111111" stroke="#262626" stroke-width="1.1111111111111112" />
<line x1="680.4888076747375" y1="533.6" x2="680.4888076747375" y2="538.8611111111111" stroke="#262626" stroke-width="1.1111111111111112" />
<line x1="708.8122430333488" y1="533.6" x2="708.8122430333488" y2="538.8611111111111" stroke="#262626" stroke-width="1.1111111111111112" />
<line x1="95.13888888888889" y1="470.6536952213848" x2="100.4" y2="470.6536952213848" stroke="#262626" stroke-width="1.1111111111111112" />
<text x="90.27777777777777" y="474.6536952213848" font-family="DejaVu Sans, sans-serif" font-size="13.88888888888889" text-anchor="end" fill="#262626">-50 k</text>
<line x1="95.13888888888889" y1="390.73186206868564" x2="100.4" y2="390.73186206868564" stroke="#262626" stroke-width="1.1111111111111112" />
<text x="90.27777777777777" y="394.73186206868564" font-family="DejaVu Sans, sans-serif" font-size="13.88888888888889" text-anchor="end" fill="#262626">0</text>
<line x1="95.13888888888889" y1="310.8100289159865" x2="100.4" y2="310.8100289159865" stroke="#262626" stroke-width="1.1111111111111112" />
<text x="90.27777777777777" y="314.8100289159865" font-family="DejaVu Sans, sans-serif" font-size="13.88888888888889" text-anchor="end" fill="#262626">50 k</text>
<line x1="95.13888888888889" y1="230.88819576328737" x2="100.4" y2="230.88819576328737" stroke="#262626" stroke-width="1.1111111111111112" />
<text x="90.27777777777777" y="234.88819576328737" font-family="DejaVu Sans, sans-serif" font-size="13.88888888888889" text-anchor="end" fill="#262626">100 k</text>
<line x1="95.13888888888889" y1="150.96636261058822" x2="100.4" y2="150.96636261058822" stroke="#262626" stroke-width="1.1111111111111112" />
<text x="90.27777777777777" y="154.96636261058822" font-family="DejaVu Sans, sans-serif" font-size="13.88888888888889" text-anchor="end" fill="#262626">150 k</text>
<line x1="95.13888888888889" y1="518.6067951130043" x2="100.4" y2="518.6067951130043" stroke="#262626" stroke-width="1.1111111111111112" />
<line x1="95.13888888888889" y1="502.62242848246444" x2="100.4" y2="502.62242848246444" stroke="#262626" stroke-width="1.1111111111111112" />
<line x1="95.13888888888889" y1="486.6380618519246" x2="100.4" y2="486.6380618519246" stroke="#262626" stroke-width="1.1111111111111112" />
<line x1="95.13888888888889" y1="454.66932859084494" x2="100.4" y2="454.66932859084494" stroke="#262626" stroke-width="1.1111111111111112" />
<line x1="95.13888888888889" y1="438.68496196030515" x2="100.4" y2="438.68496196030515" stroke="#262626" stroke-width="1.1111111111111112" />
<line x1="95.13888888888889" y1="422.7005953297653" x2="100.4" y2="422.7005953297653" stroke="#262626" stroke-width="1.1111111111111112" />
<line x1="95.13888888888889" y1="406.7162286992255" x2="100.4" y2="406.7162286992255" stroke="#262626" stroke-width="1.1111111111111112" />
<line x1="95.13888888888889" y1="374.7474954381458" x2="100.4" y2="374.7474954381458" stroke="#262626" stroke-width="1.1111111111111112" />
<line x1="95.13888888888889" y1="358.763128807606" x2="100.4" y2="358.763128807606" stroke="#262626" stroke-width="1.1111111111111112" />
<line x1="95.13888888888889" y1="342.77876217706614" x2="100.4" y2="342.77876217706614" stroke="#262626" stroke-width="1.1111111111111112" />
<line x1="95.13888888888889" y1="326.79439554652635" x2="100.4" y2="326.79439554652635" stroke="#262626" stroke-width="1.1111111111111112" />
<line x1="95.13888888888889" y1="294.8256622854467" x2="100.4" y2="294.8256622854467" stroke="#262626" stroke-width="1.1111111111111112" />
<line x1="95.13888888888889" y1="278.84129565490684" x2="100.4" y2="278.84129565490684" stroke="#262626" stroke-width="1.1111111111111112" />
<line x1="95.13888888888889" y1="262.856929024367" x2="100.4" y2="262.856929024367" stroke="#262626" stroke-width="1.1111111111111112" />
<line x1="95.13888888888889" y1="246.8725623938272" x2="100.4" y2="246.8725623938272" stroke="#262626" stroke-width="1.1111111111111112" />
<line x1="95.13888888888889" y1="214.90382913274755" x2="100.4" y2="214.90382913274755" stroke="#262626" stroke-width="1.1111111111111112" />
<line x1="95.13888888888889" y1="198.91946250220772" x2="100.4" y2="198.91946250220772" stroke="#262626" stroke-width="1.1111111111111112" />
<line x1="95.13888888888889" y1="182.9350958716679" x2="100.4" y2="182.9350958716679" stroke="#262626" stroke-width="1.1111111111111112" />
<line x1="95.13888888888889" y1="166.95072924112804" x2="100.4" y2="166.95072924112804" stroke="#262626" stroke-width="1.1111111111111112" />
<line x1="95.13888888888889" y1="134.9819959800484" x2="100.4" y2="134.9819959800484" stroke="#262626" stroke-width="1.1111111111111112" />
<line x1="95.13888888888889" y1="118.9976293495086" x2="100.4" y2="118.9976293495086" stroke="#262626" stroke-width="1.1111111111111112" />
<line x1="95.13888888888889" y1="103.01326271896875" x2="100.4" y2="103.01326271896875" stroke="#262626" stroke-width="1.1111111111111112" />
<line x1="95.13888888888889" y1="87.0288960884289" x2="100.4" y2="87.0288960884289" stroke="#262626" stroke-width="1.1111111111111112" />
<g class="series" aria-label="Signal">
<polyline points="128.1818181818182,390.73186206868564 131.01416171767931,373.97490440053525 133.84650525354044,357.3773911889091 136.67884878940157,341.09717377402717 139.5111923252627,325.2889331813924 142.3435358611238,310.10263460011464 145.17587939698493,295.6820289803129 148.00822293284605,282.16321672113975 150.84056646870718,269.6732878005814 153.6729100045683,258.32905193440837 156.50525354042944,248.23587145210746 159.33759707629056,239.4866085513137 162.16994061215166,232.160697449428 165.0022841480128,226.32335070317387 167.83462768387392,222.02490762628747 170.66697121973505,219.30033131573458 173.49931475559617,218.1688593120028 176.3316582914573,218.63381138395638 179.16400182731843,220.68255635880288 181.99634536317956,224.2866383285966 184.82868889904069,229.40206097226422 187.66103243490178,235.96972715230206 190.4933759707629,243.91602939383876 193.32571950662404,253.15358534619298 196.15806304248517,263.58211087843677 198.9904065783463,275.0894220852818 201.82275011420742,287.55255619157873 204.65509365006855,300.83900015571953 207.48743718592965,314.8080146961468 210.31978072179078,329.3120405117328 213.1521242576519,344.1981726455394 215.98446779351303,359.3096882606046 218.81681132937416,374.4876125627235 221.6491548652353,389.57230722404177 224.48149840109642,404.40506543645853 227.31384193695754,418.82969765759105 230.14618547281867,432.69409220505327 232.97852900867977,445.8517351061042 235.8108725445409,458.1631740168328 238.64321608040203,469.49741158388156 241.47555961626315,479.7332143266992 244.30790315212428,488.760323962404 247.1402466879854,496.48055907009933 249.97259022384654,502.8087960871775 252.80493375970764,507.6738198358188 255.63727729556877,511.0190350815075 258.4696208314299,512.8030320139079 261.301964367291,513 264.13430790315215,511.5999854753938 266.9666514390133,508.6089913970536 269.7989949748744,504.0489172637369 272.63133851073553,497.9573403034414 275.46368204659666,490.38714001416474 278.2960255824578,481.4059698094396 281.1283691183189,471.09558104778944 283.96071265418004,459.5510062001769 286.79305619004117,446.8796093169681 289.62539972590224,433.2000132818311 292.45774326176337,418.64091457109345 295.2900867976245,403.3397973610926 298.1224303334856,387.44155983173187 300.95477386934675,371.09706639176363 303.7871174052079,354.4616402914869 306.619460941069,337.69351168417245 309.45180447693014,320.9522366426764 312.28414801279126,304.3971029279012 315.1164915486524,288.18553843814294 317.9488350845135,272.47153824157067 320.78117862037465,257.40412590840833 323.6135221562358,243.12586451668258 326.4458656920969,229.77143220907152 329.27820922795803,217.46627653342216 332.1105527638191,206.32536101231997 334.9428962996802,196.45201646557237 337.77523983554136,187.9369085628147 340.6075833714025,180.8571319221086 343.4399269072636,175.27543980600285 346.27227044312474,171.23961711167732 349.10461397898587,168.7820029200459 351.936957514847,167.91916737435 354.7693010507081,168.65174611676454 357.60164458656925,170.96443393727148 360.4339881224304,174.82613769825923 363.2663316582915,180.19028700687517 366.09867519415263,186.9952995309975 368.93101873001376,195.16519630954122 371.7633622658749,204.61036090912168 374.595705801736,215.2284348418343 377.42804933759714,226.90534029742938 380.2603928734582,239.51641997108445 383.09273640931934,252.9276825979869 385.92507994518047,266.99714174976054 388.7574234810416,281.57623451592383 391.5897670169027,296.51130589538195 394.42211055276385,311.6451440664077 397.254454088625,326.8185511951957 400.0867976244861,341.8719340879949 402.91914116034724,356.64689879354444 405.75148469620837,370.98783322307867 408.5838282320695,384.74346197487813 411.4161717679306,397.768357828079 414.24851530379175,409.9243948033924 417.0808588396529,421.0821282722298 419.913202375514,431.12208832464506 422.7455459113751,439.9359734731819 425.5778894472362,447.4277327655369 428.41023298309733,453.51452549392536 431.24257651895846,458.12754891204884 434.0749200548196,461.21272568939423 436.9072635906807,462.7312442340441 439.73960712654184,462.6599464852735 442.57195066240297,460.9915593012382 445.4042941982641,457.73476712980334 448.2366377341252,452.9141252364115 451.06898126998635,446.5698143559868 453.9013248058475,438.75723922031403 456.7336683417086,429.5464749722725 459.56601187756974,419.0215669981729 462.39835541343086,407.2796911740381 465.230698949292,394.43018291637253 468.0630424851531,380.59344473882203 470.8953860210142,365.8997432300567 473.7277295568753,350.4879074730784 476.56007309273645,334.503941910913 479.3924166285976,318.0995675184789 482.2247601644587,301.4307058567579 485.05710370031983,284.65592115609843 487.88944723618096,267.9348359948412 490.7217907720421,251.42653640327921 493.5541343079032,235.2879823286309 496.38647784376434,219.6724393431312 499.21882137962547,204.72794726509656 502.0511649154866,190.5958409939969 504.8835084513477,177.40933833885717 507.71585198720885,165.2922089499473 510.54819552307,154.3575376533486 513.380539058931,144.7065945447526 516.2128825947922,136.42782313214082 519.0452261306533,129.59595663748792 521.8775696665144,124.27127128711135 524.7099132023756,120.49898405154302 527.5422567382367,118.30880085250615 530.3746002740978,117.71461975116516 533.206943809959,118.71439208329218 536.0392873458201,121.29014292884332 538.8716308816812,125.40815071141768 541.7039744175423,131.01928413310208 544.5363179534035,138.05949307815888 547.3686614892646,146.45044858061053 550.2010050251257,156.10032546137566 553.0333485609868,166.90471981510458 555.865692096848,178.74769217949085 558.6980356327091,191.50292596405322 561.5303791685702,205.03498956375395 564.3627227044313,219.20068954682824 567.1950662402925,233.85050139622098 570.0274097761536,248.83006350913502 572.8597533120147,263.98171952714034 575.6920968478759,279.1460935863947 578.524440383737,294.16368274859167 581.356783919598,308.8764507015951 584.1891274554591,323.1294068060314 587.0214709913203,336.7721547105229 589.8538145271814,349.6603950623196 592.6861580630425,361.6573672987296 595.5185015989036,372.63521611345584 598.3508451347648,382.47626894455465 601.1831886706259,391.07421171977427 604.015532206487,398.33515111162535 606.8478757423482,404.1785526884693 609.6802192782093,408.53804558793985 612.5125628140704,411.3620856726604 615.3449063499315,412.61447054222555 618.1772498857927,412.2747012556199 621.0095934216538,410.33818714986035 623.8419369575149,406.816291708383 626.674280493376,401.7362190208729 629.5066240292372,395.14074196899315 632.3389675650983,387.08777485388856 635.1713111009594,377.6497947356343 638.0036546368206,366.9131172664088 640.8359981726817,354.9770342530279 643.6683417085428,341.9528215660355 646.5006852444039,327.9626273079847 649.3330287802651,313.13825134997677 652.1653723161262,297.6198284309154 654.9977158519873,281.55442797751596 657.8300593878485,265.09458463521247 660.6624029237096,248.39677419239706 663.4947464595707,231.6198501260705 666.3270899954318,214.92345639040812 669.159433531293,198.4664323071394 671.9917770671541,182.40522549555385 674.8241206030151,166.89232869960213 677.6564641388762,152.0747561308042 680.4888076747374,138.09257455084804 683.3211512105985,125.07750377080282 686.1534947464596,113.15160055031068 688.9858382823207,102.42603904678937 691.8181818181819,93.00000000000001" fill="none" stroke="#1F77B4" stroke-width="1.5" />
</g>
<g class="spine">
<line x1="100" y1="534" x2="720" y2="534" stroke="#262626" stroke-width="0.8" />
</g>
<g class="spine">
<line x1="100" y1="72" x2="720" y2="72" stroke="#262626" stroke-width="0.8" />
</g>
<g class="spine">
<line x1="100" y1="72" x2="100" y2="534" stroke="#262626" stroke-width="0.8" />
</g>
<g class="spine">
<line x1="720" y1="72" x2="720" y2="534" stroke="#262626" stroke-width="0.8" />
</g>
<rect x="615.3888888888889" y="82" width="94.61111111111111" height="25.72222222222222" fill="#FFFFFF" fill-opacity="0.8" stroke="#CCCCCC" stroke-width="0.5" />
<g class="legend" aria-label="Chart legend">
<line x1="623.3888888888889" y1="94.86111111111111" x2="651.1666666666667" y2="94.86111111111111" stroke="#1F77B4" stroke-width="1.5" />
<text x="662.2777777777778" y="98.72222222222223" font-family="DejaVu Sans, sans-serif" font-size="13.88888888888889" text-anchor="start" fill="#262626">Signal</text>
</g>
<text x="410" y="64" font-family="DejaVu Sans, sans-serif" font-size="15.88888888888889" text-anchor="middle" font-weight="bold" fill="#262626">Engineering notation + MultipleLocator</text>
<text x="410" y="569" font-family="DejaVu Sans, sans-serif" font-size="13.88888888888889" text-anchor="middle" fill="#262626">Sample index</text>
<text x="41.333333333333336" y="303" font-family="DejaVu Sans, sans-serif" font-size="13.88888888888889" text-anchor="middle" transform="rotate(-90,41.333333333333336,303)" fill="#262626">Amplitude</text>
</svg>
