<svg xmlns="http://www.w3.org/2000/svg" viewBox="0 0 800 600" width="800" height="600" role="img" aria-labelledby="chart-title">
<title id="chart-title"></title>
<rect x="0" y="0" width="800" height="600" fill="#FFFFFF" />
<rect x="100" y="72" width="620" height="462" fill="#FFFFFF" />
<line x1="128.1818181818182" y1="533.6" x2="128.1818181818182" y2="538.8611111111111" stroke="#262626" stroke-width="1.1111111111111112" />
<path d="M4.41488 -9.22309Q3.35693 -9.22309 2.82457 -8.1821Q2.29221 -7.14111 2.29221 -5.05235Q2.29221 -2.97038 2.82457 -1.92939Q3.35693 -0.888401 4.41488 -0.888401Q5.4796 -0.888401 6.01196 -1.92939Q6.54433 -2.97038 6.54433 -5.05235Q6.54433 -7.14111 6.01196 -8.1821Q5.4796 -9.22309 4.41488 -9.22309ZM4.41488 -10.3082Q6.11708 -10.3082 7.01565 -8.962Q7.91422 -7.61583 7.91423 -5.05235Q7.91423 -2.49566 7.01565 -1.1495Q6.11708 0.196669 4.41488 0.196669Q2.71267 0.196669 1.8141 -1.1495Q0.915527 -2.49566 0.915527 -5.05235Q0.915527 -7.61583 1.8141 -8.962Q2.71267 -10.3082 4.41488 -10.3082Z" fill="#262626" transform="translate(128.1818181818182,557.6111111111111) translate(-4.418267250061035,0)" />
<line x1="198.9904065783463" y1="533.6" x2="198.9904065783463" y2="538.8611111111111" stroke="#262626" stroke-width="1.1111111111111112" />
<path d="M2.6652 -1.15289L7.44629 -1.15289L7.44629 0L1.01725 0L1.01725 -1.15289Q1.79715 -1.95991 3.14331 -3.31963Q4.48947 -4.67936 4.83534 -5.0727Q5.49316 -5.8119 5.75426 -6.32392Q6.01535 -6.83594 6.01535 -7.331Q6.01535 -8.13802 5.44908 -8.64665Q4.88281 -9.15527 3.97407 -9.15527Q3.32981 -9.15527 2.61434 -8.93148Q1.89887 -8.70768 1.08507 -8.25331L1.08507 -9.63677Q1.91243 -9.96908 2.63129 -10.1386Q3.35015 -10.3082 3.94694 -10.3082Q5.52029 -10.3082 6.45616 -9.52148Q7.39204 -8.73481 7.39204 -7.41916Q7.39204 -6.79525 7.15807 -6.23576Q6.9241 -5.67627 6.30697 -4.91672Q6.13742 -4.72005 5.22868 -3.78079Q4.31993 -2.84153 2.6652 -1.15289ZM10.3353 -10.1251L15.7132 -10.1251L15.7132 -8.97217L11.5899 -8.97217L11.5899 -6.49007Q11.8883 -6.5918 12.1867 -6.64266Q12.4851 -6.69352 12.7835 -6.69352Q14.4789 -6.69352 15.469 -5.76443Q16.4591 -4.83534 16.4591 -3.24843Q16.4591 -1.61404 15.4419 -0.708686Q14.4246 0.196669 12.5732 0.196669Q11.9358 0.196669 11.2745 0.0881619C10.8337 0.0158239 10.3782 -0.092683 9.90804 -0.237359L9.90804 -1.61404Q10.5184 -1.28174 11.1694 -1.11898Q11.8205 -0.956217 12.5461 -0.956217Q13.7193 -0.956217 14.4043 -1.57335Q15.0892 -2.19048 15.0892 -3.24843Q15.0892 -4.30637 14.4043 -4.9235Q13.7193 -5.54064 12.5461 -5.54064Q11.9968 -5.54064 11.4509 -5.41857Q10.9049 -5.2965 10.3353 -5.03879L10.3353 -10.1251Z" fill="#262626" transform="translate(198.9904065783463,557.6111111111111) translate(-8.83653450012207,0)" />
<line x1="269.7989949748744" y1="533.6" x2="269.7989949748744" y2="538.8611111111111" stroke="#262626" stroke-width="1.1111111111111112" />
<path d="M1.49875 -10.1251L6.87663 -10.1251L6.87663 -8.97217L2.75336 -8.97217L2.75336 -6.49007Q3.05176 -6.5918 3.35015 -6.64266Q3.64855 -6.69352 3.94694 -6.69352Q5.64236 -6.69352 6.63249 -5.76443Q7.62261 -4.83534 7.62261 -3.24843Q7.62261 -1.61404 6.60536 -0.708686Q5.58811 0.196669 3.73671 0.196669Q3.09923 0.196669 2.43802 0.0881619C1.99721 0.0158239 1.5417 -0.092683 1.07151 -0.237359L1.07151 -1.61404Q1.68186 -1.28174 2.3329 -1.11898Q2.98394 -0.956217 3.70958 -0.956217Q4.88281 -0.956217 5.56776 -1.57335Q6.25271 -2.19048 6.25271 -3.24843Q6.25271 -4.30637 5.56776 -4.9235Q4.88281 -5.54064 3.70958 -5.54064Q3.16026 -5.54064 2.61434 -5.41857Q2.06841 -5.2965 1.49875 -5.03879L1.49875 -10.1251ZM13.2514 -9.22309Q12.1935 -9.22309 11.6611 -8.1821Q11.1287 -7.14111 11.1287 -5.05235Q11.1287 -2.97038 11.6611 -1.92939Q12.1935 -0.888401 13.2514 -0.888401Q14.3161 -0.888401 14.8485 -1.92939Q15.3809 -2.97038 15.3809 -5.05235Q15.3809 -7.14111 14.8485 -8.1821Q14.3161 -9.22309 13.2514 -9.22309ZM13.2514 -10.3082Q14.9536 -10.3082 15.8522 -8.962Q16.7508 -7.61583 16.7508 -5.05235Q16.7508 -2.49566 15.8522 -1.1495Q14.9536 0.196669 13.2514 0.196669Q11.5492 0.196669 10.6506 -1.1495Q9.75206 -2.49566 9.75206 -5.05235Q9.75206 -7.61583 10.6506 -8.962Q11.5492 -10.3082 13.2514 -10.3082Z" fill="#262626" transform="translate(269.7989949748744,557.6111111111111) translate(-8.83653450012207,0)" />
<line x1="340.6075833714025" y1="533.6" x2="340.6075833714025" y2="538.8611111111111" stroke="#262626" stroke-width="1.1111111111111112" />
<path d="M1.13932 -10.1251L7.64974 -10.1251L7.64974 -9.54183L3.97407 0L2.54313 0L6.00179 -8.97217L1.13932 -8.97217L1.13932 -10.1251ZM10.3353 -10.1251L15.7132 -10.1251L15.7132 -8.97217L11.5899 -8.97217L11.5899 -6.49007Q11.8883 -6.5918 12.1867 -6.64266Q12.4851 -6.69352 12.7835 -6.69352Q14.4789 -6.69352 15.469 -5.76443Q16.4591 -4.83534 16.4591 -3.24843Q16.4591 -1.61404 15.4419 -0.708686Q14.4246 0.196669 12.5732 0.196669Q11.9358 0.196669 11.2745 0.0881619C10.8337 0.0158239 10.3782 -0.092683 9.90804 -0.237359L9.90804 -1.61404Q10.5184 -1.28174 11.1694 -1.11898Q11.8205 -0.956217 12.5461 -0.956217Q13.7193 -0.956217 14.4043 -1.57335Q15.0892 -2.19048 15.0892 -3.24843Q15.0892 -4.30637 14.4043 -4.9235Q13.7193 -5.54064 12.5461 -5.54064Q11.9968 -5.54064 11.4509 -5.41857Q10.9049 -5.2965 10.3353 -5.03879L10.3353 -10.1251Z" fill="#262626" transform="translate(340.6075833714025,557.6111111111111) translate(-8.83653450012207,0)" />
<line x1="411.4161717679306" y1="533.6" x2="411.4161717679306" y2="538.8611111111111" stroke="#262626" stroke-width="1.1111111111111112" />
<path d="M1.72255 -1.15289L3.9605 -1.15289L3.9605 -8.87722L1.52588 -8.38894L1.52588 -9.63677L3.94694 -10.1251L5.31684 -10.1251L5.31684 -1.15289L7.5548 -1.15289L7.5548 0L1.72255 0L1.72255 -1.15289ZM13.2514 -9.22309Q12.1935 -9.22309 11.6611 -8.1821Q11.1287 -7.14111 11.1287 -5.05235Q11.1287 -2.97038 11.6611 -1.92939Q12.1935 -0.888401 13.2514 -0.888401Q14.3161 -0.888401 14.8485 -1.92939Q15.3809 -2.97038 15.3809 -5.05235Q15.3809 -7.14111 14.8485 -8.1821Q14.3161 -9.22309 13.2514 -9.22309ZM13.2514 -10.3082Q14.9536 -10.3082 15.8522 -8.962Q16.7508 -7.61583 16.7508 -5.05235Q16.7508 -2.49566 15.8522 -1.1495Q14.9536 0.196669 13.2514 0.196669Q11.5492 0.196669 10.6506 -1.1495Q9.75206 -2.49566 9.75206 -5.05235Q9.75206 -7.61583 10.6506 -8.962Q11.5492 -10.3082 13.2514 -10.3082ZM22.0879 -9.22309Q21.03 -9.22309 20.4976 -8.1821Q19.9653 -7.14111 19.9653 -5.05235Q19.9653 -2.97038 20.4976 -1.92939Q21.03 -0.888401 22.0879 -0.888401Q23.1527 -0.888401 23.685 -1.92939Q24.2174 -2.97038 24.2174 -5.05235Q24.2174 -7.14111 23.685 -8.1821Q23.1527 -9.22309 22.0879 -9.22309ZM22.0879 -10.3082Q23.7901 -10.3082 24.6887 -8.962Q25.5873 -7.61583 25.5873 -5.05235Q25.5873 -2.49566 24.6887 -1.1495Q23.7901 0.196669 22.0879 0.196669Q20.3857 0.196669 19.4872 -1.1495Q18.5886 -2.49566 18.5886 -5.05235Q18.5886 -7.61583 19.4872 -8.962Q20.3857 -10.3082 22.0879 -10.3082Z" fill="#262626" transform="translate(411.4161717679306,557.6111111111111) translate(-13.254801750183105,0)" />
<line x1="482.2247601644587" y1="533.6" x2="482.2247601644587" y2="538.8611111111111" stroke="#262626" stroke-width="1.1111111111111112" />
<path d="M1.72255 -1.15289L3.9605 -1.15289L3.9605 -8.87722L1.52588 -8.38894L1.52588 -9.63677L3.94694 -10.1251L5.31684 -10.1251L5.31684 -1.15289L7.5548 -1.15289L7.5548 0L1.72255 0L1.72255 -1.15289ZM11.5017 -1.15289L16.2828 -1.15289L16.2828 0L9.85379 0L9.85379 -1.15289Q10.6337 -1.95991 11.9798 -3.31963Q13.326 -4.67936 13.6719 -5.0727Q14.3297 -5.8119 14.5908 -6.32392Q14.8519 -6.83594 14.8519 -7.331Q14.8519 -8.13802 14.2856 -8.64665Q13.7193 -9.15527 12.8106 -9.15527Q12.1663 -9.15527 11.4509 -8.93148Q10.7354 -8.70768 9.9216 -8.25331L9.9216 -9.63677Q10.749 -9.96908 11.4678 -10.1386Q12.1867 -10.3082 12.7835 -10.3082Q14.3568 -10.3082 15.2927 -9.52148Q16.2286 -8.73481 16.2286 -7.41916Q16.2286 -6.79525 15.9946 -6.23576Q15.7606 -5.67627 15.1435 -4.91672Q14.974 -4.72005 14.0652 -3.78079Q13.1565 -2.84153 11.5017 -1.15289ZM19.1718 -10.1251L24.5497 -10.1251L24.5497 -8.97217L20.4264 -8.97217L20.4264 -6.49007Q20.7248 -6.5918 21.0232 -6.64266Q21.3216 -6.69352 21.62 -6.69352Q23.3154 -6.69352 24.3056 -5.76443Q25.2957 -4.83534 25.2957 -3.24843Q25.2957 -1.61404 24.2784 -0.708686Q23.2612 0.196669 21.4098 0.196669Q20.7723 0.196669 20.1111 0.0881619C19.6703 0.0158239 19.2148 -0.092683 18.7446 -0.237359L18.7446 -1.61404Q19.3549 -1.28174 20.006 -1.11898Q20.657 -0.956217 21.3827 -0.956217Q22.5559 -0.956217 23.2408 -1.57335Q23.9258 -2.19048 23.9258 -3.24843Q23.9258 -4.30637 23.2408 -4.9235Q22.5559 -5.54064 21.3827 -5.54064Q20.8333 -5.54064 20.2874 -5.41857Q19.7415 -5.2965 19.1718 -5.03879L19.1718 -10.1251Z" fill="#262626" transform="translate(482.2247601644587,557.6111111111111) translate(-13.254801750183105,0)" />
<line x1="553.0333485609868" y1="533.6" x2="553.0333485609868" y2="538.8611111111111" stroke="#262626" stroke-width="1.1111111111111112" />
<path d="M1.72255 -1.15289L3.9605 -1.15289L3.9605 -8.87722L1.52588 -8.38894L1.52588 -9.63677L3.94694 -10.1251L5.31684 -10.1251L5.31684 -1.15289L7.5548 -1.15289L7.5548 0L1.72255 0L1.72255 -1.15289ZM10.3353 -10.1251L15.7132 -10.1251L15.7132 -8.97217L11.5899 -8.97217L11.5899 -6.49007Q11.8883 -6.5918 12.1867 -6.64266Q12.4851 -6.69352 12.7835 -6.69352Q14.4789 -6.69352 15.469 -5.76443Q16.4591 -4.83534 16.4591 -3.24843Q16.4591 -1.61404 15.4419 -0.708686Q14.4246 0.196669 12.5732 0.196669Q11.9358 0.196669 11.2745 0.0881619C10.8337 0.0158239 10.3782 -0.092683 9.90804 -0.237359L9.90804 -1.61404Q10.5184 -1.28174 11.1694 -1.11898Q11.8205 -0.956217 12.5461 -0.956217Q13.7193 -0.956217 14.4043 -1.57335Q15.0892 -2.19048 15.0892 -3.24843Q15.0892 -4.30637 14.4043 -4.9235Q13.7193 -5.54064 12.5461 -5.54064Q11.9968 -5.54064 11.4509 -5.41857Q10.9049 -5.2965 10.3353 -5.03879L10.3353 -10.1251ZM22.0879 -9.22309Q21.03 -9.22309 20.4976 -8.1821Q19.9653 -7.14111 19.9653 -5.05235Q19.9653 -2.97038 20.4976 -1.92939Q21.03 -0.888401 22.0879 -0.888401Q23.1527 -0.888401 23.685 -1.92939Q24.2174 -2.97038 24.2174 -5.05235Q24.2174 -7.14111 23.685 -8.1821Q23.1527 -9.22309 22.0879 -9.22309ZM22.0879 -10.3082Q23.7901 -10.3082 24.6887 -8.962Q25.5873 -7.61583 25.5873 -5.05235Q25.5873 -2.49566 24.6887 -1.1495Q23.7901 0.196669 22.0879 0.196669Q20.3857 0.196669 19.4872 -1.1495Q18.5886 -2.49566 18.5886 -5.05235Q18.5886 -7.61583 19.4872 -8.962Q20.3857 -10.3082 22.0879 -10.3082Z" fill="#262626" transform="translate(553.0333485609868,557.6111111111111) translate(-13.254801750183105,0)" />
<line x1="623.8419369575149" y1="533.6" x2="623.8419369575149" y2="538.8611111111111" stroke="#262626" stroke-width="1.1111111111111112" />
<path d="M1.72255 -1.15289L3.9605 -1.15289L3.9605 -8.87722L1.52588 -8.38894L1.52588 -9.63677L3.94694 -10.1251L5.31684 -10.1251L5.31684 -1.15289L7.5548 -1.15289L7.5548 0L1.72255 0L1.72255 -1.15289ZM9.97586 -10.1251L16.4863 -10.1251L16.4863 -9.54183L12.8106 0L11.3797 0L14.8383 -8.97217L9.97586 -8.97217L9.97586 -10.1251ZM19.1718 -10.1251L24.5497 -10.1251L24.5497 -8.97217L20.4264 -8.97217L20.4264 -6.49007Q20.7248 -6.5918 21.0232 -6.64266Q21.3216 -6.69352 21.62 -6.69352Q23.3154 -6.69352 24.3056 -5.76443Q25.2957 -4.83534 25.2957 -3.24843Q25.2957 -1.61404 24.2784 -0.708686Q23.2612 0.196669 21.4098 0.196669Q20.7723 0.196669 20.1111 0.0881619C19.6703 0.0158239 19.2148 -0.092683 18.7446 -0.237359L18.7446 -1.61404Q19.3549 -1.28174 20.006 -1.11898Q20.657 -0.956217 21.3827 -0.956217Q22.5559 -0.956217 23.2408 -1.57335Q23.9258 -2.19048 23.9258 -3.24843Q23.9258 -4.30637 23.2408 -4.9235Q22.5559 -5.54064 21.3827 -5.54064Q20.8333 -5.54064 20.2874 -5.41857Q19.7415 -5.2965 19.1718 -5.03879L19.1718 -10.1251Z" fill="#262626" transform="translate(623.8419369575149,557.6111111111111) translate(-13.254801750183105,0)" />
<line x1="694.6505253540431" y1="533.6" x2="694.6505253540431" y2="538.8611111111111" stroke="#262626" stroke-width="1.1111111111111112" />
<path d="M2.6652 -1.15289L7.44629 -1.15289L7.44629 0L1.01725 0L1.01725 -1.15289Q1.79715 -1.95991 3.14331 -3.31963Q4.48947 -4.67936 4.83534 -5.0727Q5.49316 -5.8119 5.75426 -6.32392Q6.01535 -6.83594 6.01535 -7.331Q6.01535 -8.13802 5.44908 -8.64665Q4.88281 -9.15527 3.97407 -9.15527Q3.32981 -9.15527 2.61434 -8.93148Q1.89887 -8.70768 1.08507 -8.25331L1.08507 -9.63677Q1.91243 -9.96908 2.63129 -10.1386Q3.35015 -10.3082 3.94694 -10.3082Q5.52029 -10.3082 6.45616 -9.52148Q7.39204 -8.73481 7.39204 -7.41916Q7.39204 -6.79525 7.15807 -6.23576Q6.9241 -5.67627 6.30697 -4.91672Q6.13742 -4.72005 5.22868 -3.78079Q4.31993 -2.84153 2.6652 -1.15289ZM13.2514 -9.22309Q12.1935 -9.22309 11.6611 -8.1821Q11.1287 -7.14111 11.1287 -5.05235Q11.1287 -2.97038 11.6611 -1.92939Q12.1935 -0.888401 13.2514 -0.888401Q14.3161 -0.888401 14.8485 -1.92939Q15.3809 -2.97038 15.3809 -5.05235Q15.3809 -7.14111 14.8485 -8.1821Q14.3161 -9.22309 13.2514 -9.22309ZM13.2514 -10.3082Q14.9536 -10.3082 15.8522 -8.962Q16.7508 -7.61583 16.7508 -5.05235Q16.7508 -2.49566 15.8522 -1.1495Q14.9536 0.196669 13.2514 0.196669Q11.5492 0.196669 10.6506 -1.1495Q9.75206 -2.49566 9.75206 -5.05235Q9.75206 -7.61583 10.6506 -8.962Q11.5492 -10.3082 13.2514 -10.3082ZM22.0879 -9.22309Q21.03 -9.22309 20.4976 -8.1821Q19.9653 -7.14111 19.9653 -5.05235Q19.9653 -2.97038 20.4976 -1.92939Q21.03 -0.888401 22.0879 -0.888401Q23.1527 -0.888401 23.685 -1.92939Q24.2174 -2.97038 24.2174 -5.05235Q24.2174 -7.14111 23.685 -8.1821Q23.1527 -9.22309 22.0879 -9.22309ZM22.0879 -10.3082Q23.7901 -10.3082 24.6887 -8.962Q25.5873 -7.61583 25.5873 -5.05235Q25.5873 -2.49566 24.6887 -1.1495Q23.7901 0.196669 22.0879 0.196669Q20.3857 0.196669 19.4872 -1.1495Q18.5886 -2.49566 18.5886 -5.05235Q18.5886 -7.61583 19.4872 -8.962Q20.3857 -10.3082 22.0879 -10.3082Z" fill="#262626" transform="translate(694.6505253540431,557.6111111111111) translate(-13.254801750183105,0)" />
<line x1="114.02010050251256" y1="533.6" x2="114.02010050251256" y2="536.7777777777778" stroke="#262626" stroke-width="0.8333333333333334" />
<line x1="142.3435358611238" y1="533.6" x2="142.3435358611238" y2="536.7777777777778" stroke="#262626" stroke-width="0.8333333333333334" />
<line x1="156.50525354042944" y1="533.6" x2="156.50525354042944" y2="536.7777777777778" stroke="#262626" stroke-width="0.8333333333333334" />
<line x1="170.66697121973505" y1="533.6" x2="170.66697121973505" y2="536.7777777777778" stroke="#262626" stroke-width="0.8333333333333334" />
<line x1="184.82868889904069" y1="533.6" x2="184.82868889904069" y2="536.7777777777778" stroke="#262626" stroke-width="0.8333333333333334" />
<line x1="213.1521242576519" y1="533.6" x2="213.1521242576519" y2="536.7777777777778" stroke="#262626" stroke-width="0.8333333333333334" />
<line x1="227.31384193695754" y1="533.6" x2="227.31384193695754" y2="536.7777777777778" stroke="#262626" stroke-width="0.8333333333333334" />
<line x1="241.47555961626315" y1="533.6" x2="241.47555961626315" y2="536.7777777777778" stroke="#262626" stroke-width="0.8333333333333334" />
<line x1="255.63727729556877" y1="533.6" x2="255.63727729556877" y2="536.7777777777778" stroke="#262626" stroke-width="0.8333333333333334" />
<line x1="283.96071265418004" y1="533.6" x2="283.96071265418004" y2="536.7777777777778" stroke="#262626" stroke-width="0.8333333333333334" />
<line x1="298.1224303334856" y1="533.6" x2="298.1224303334856" y2="536.7777777777778" stroke="#262626" stroke-width="0.8333333333333334" />
<line x1="312.28414801279126" y1="533.6" x2="312.28414801279126" y2="536.7777777777778" stroke="#262626" stroke-width="0.8333333333333334" />
<line x1="326.44586569209685" y1="533.6" x2="326.44586569209685" y2="536.7777777777778" stroke="#262626" stroke-width="0.8333333333333334" />
<line x1="354.7693010507081" y1="533.6" x2="354.7693010507081" y2="536.7777777777778" stroke="#262626" stroke-width="0.8333333333333334" />
<line x1="368.93101873001376" y1="533.6" x2="368.93101873001376" y2="536.7777777777778" stroke="#262626" stroke-width="0.8333333333333334" />
<line x1="383.0927364093194" y1="533.6" x2="383.0927364093194" y2="536.7777777777778" stroke="#262626" stroke-width="0.8333333333333334" />
<line x1="397.254454088625" y1="533.6" x2="397.254454088625" y2="536.7777777777778" stroke="#262626" stroke-width="0.8333333333333334" />
<line x1="425.5778894472362" y1="533.6" x2="425.5778894472362" y2="536.7777777777778" stroke="#262626" stroke-width="0.8333333333333334" />
<line x1="439.73960712654184" y1="533.6" x2="439.73960712654184" y2="536.7777777777778" stroke="#262626" stroke-width="0.8333333333333334" />
<line x1="453.9013248058475" y1="533.6" x2="453.9013248058475" y2="536.7777777777778" stroke="#262626" stroke-width="0.8333333333333334" />
<line x1="468.06304248515306" y1="533.6" x2="468.06304248515306" y2="536.7777777777778" stroke="#262626" stroke-width="0.8333333333333334" />
<line x1="496.38647784376434" y1="533.6" x2="496.38647784376434" y2="536.7777777777778" stroke="#262626" stroke-width="0.8333333333333334" />
<line x1="510.54819552307" y1="533.6" x2="510.54819552307" y2="536.7777777777778" stroke="#262626" stroke-width="0.8333333333333334" />
<line x1="524.7099132023756" y1="533.6" x2="524.7099132023756" y2="536.7777777777778" stroke="#262626" stroke-width="0.8333333333333334" />
<line x1="538.8716308816812" y1="533.6" x2="538.8716308816812" y2="536.7777777777778" stroke="#262626" stroke-width="0.8333333333333334" />
<line x1="567.1950662402924" y1="533.6" x2="567.1950662402924" y2="536.7777777777778" stroke="#262626" stroke-width="0.8333333333333334" />
<line x1="581.356783919598" y1="533.6" x2="581.356783919598" y2="536.7777777777778" stroke="#262626" stroke-width="0.8333333333333334" />
<line x1="595.5185015989036" y1="533.6" x2="595.5185015989036" y2="536.7777777777778" stroke="#262626" stroke-width="0.8333333333333334" />
<line x1="609.6802192782093" y1="533.6" x2="609.6802192782093" y2="536.7777777777778" stroke="#262626" stroke-width="0.8333333333333334" />
<line x1="638.0036546368206" y1="533.6" x2="638.0036546368206" y2="536.7777777777778" stroke="#262626" stroke-width="0.8333333333333334" />
<line x1="652.1653723161262" y1="533.6" x2="652.1653723161262" y2="536.7777777777778" stroke="#262626" stroke-width="0.8333333333333334" />
<line x1="666.3270899954318" y1="533.6" x2="666.3270899954318" y2="536.7777777777778" stroke="#262626" stroke-width="0.8333333333333334" />
<line x1="680.4888076747375" y1="533.6" x2="680.4888076747375" y2="536.7777777777778" stroke="#262626" stroke-width="0.8333333333333334" />
<line x1="708.8122430333488" y1="533.6" x2="708.8122430333488" y2="536.7777777777778" stroke="#262626" stroke-width="0.8333333333333334" />
<line x1="95.13888888888889" y1="534" x2="100.4" y2="534" stroke="#262626" stroke-width="1.1111111111111112" />
<path d="M0.678168 -4.36062L4.3335 -4.36062L4.3335 -3.24843L0.678168 -3.24843L0.678168 -4.36062ZM6.73421 -1.15289L8.97217 -1.15289L8.97217 -8.87722L6.53754 -8.38894L6.53754 -9.63677L8.9586 -10.1251L10.3285 -10.1251L10.3285 -1.15289L12.5665 -1.15289L12.5665 0L6.73421 0L6.73421 -1.15289ZM18.2631 -9.22309Q17.2051 -9.22309 16.6728 -8.1821Q16.1404 -7.14111 16.1404 -5.05235Q16.1404 -2.97038 16.6728 -1.92939Q17.2051 -0.888401 18.2631 -0.888401Q19.3278 -0.888401 19.8602 -1.92939Q20.3925 -2.97038 20.3925 -5.05235Q20.3925 -7.14111 19.8602 -8.1821Q19.3278 -9.22309 18.2631 -9.22309ZM18.2631 -10.3082Q19.9653 -10.3082 20.8639 -8.962Q21.7624 -7.61583 21.7624 -5.05235Q21.7624 -2.49566 20.8639 -1.1495Q19.9653 0.196669 18.2631 0.196669Q16.5609 0.196669 15.6623 -1.1495Q14.7637 -2.49566 14.7637 -5.05235Q14.7637 -7.61583 15.6623 -8.962Q16.5609 -10.3082 18.2631 -10.3082ZM27.0996 -9.22309Q26.0417 -9.22309 25.5093 -8.1821Q24.9769 -7.14111 24.9769 -5.05235Q24.9769 -2.97038 25.5093 -1.92939Q26.0417 -0.888401 27.0996 -0.888401Q28.1643 -0.888401 28.6967 -1.92939Q29.2291 -2.97038 29.2291 -5.05235Q29.2291 -7.14111 28.6967 -8.1821Q28.1643 -9.22309 27.0996 -9.22309ZM27.0996 -10.3082Q28.8018 -10.3082 29.7004 -8.962Q30.599 -7.61583 30.599 -5.05235Q30.599 -2.49566 29.7004 -1.1495Q28.8018 0.196669 27.0996 0.196669Q25.3974 0.196669 24.4988 -1.1495Q23.6003 -2.49566 23.6003 -5.05235Q23.6003 -7.61583 24.4988 -8.962Q25.3974 -10.3082 27.0996 -10.3082ZM37.1975 -10.5523L38.4522 -10.5523L38.4522 -4.31993L42.1753 -7.59549L43.769 -7.59549L39.7407 -4.04188L43.9385 0L42.3109 0L38.4522 -3.70958L38.4522 0L37.1975 0L37.1975 -10.5523Z" fill="#262626" transform="translate(90.27777777777777,538) translate(-43.979225158691406,0)" />
<line x1="95.13888888888889" y1="457" x2="100.4" y2="457" stroke="#262626" stroke-width="1.1111111111111112" />
<path d="M0.678168 -4.36062L4.3335 -4.36062L4.3335 -3.24843L0.678168 -3.24843L0.678168 -4.36062ZM6.51042 -10.1251L11.8883 -10.1251L11.8883 -8.97217L7.76503 -8.97217L7.76503 -6.49007Q8.06342 -6.5918 8.36182 -6.64266Q8.66021 -6.69352 8.9586 -6.69352Q10.654 -6.69352 11.6442 -5.76443Q12.6343 -4.83534 12.6343 -3.24843Q12.6343 -1.61404 11.617 -0.708686Q10.5998 0.196669 8.74837 0.196669Q8.11089 0.196669 7.44968 0.0881619C7.00887 0.0158239 6.55337 -0.092683 6.08317 -0.237359L6.08317 -1.61404Q6.69352 -1.28174 7.34456 -1.11898Q7.99561 -0.956217 8.72125 -0.956217Q9.89448 -0.956217 10.5794 -1.57335Q11.2644 -2.19048 11.2644 -3.24843Q11.2644 -4.30637 10.5794 -4.9235Q9.89448 -5.54064 8.72125 -5.54064Q8.17193 -5.54064 7.626 -5.41857Q7.08008 -5.2965 6.51042 -5.03879L6.51042 -10.1251ZM18.2631 -9.22309Q17.2051 -9.22309 16.6728 -8.1821Q16.1404 -7.14111 16.1404 -5.05235Q16.1404 -2.97038 16.6728 -1.92939Q17.2051 -0.888401 18.2631 -0.888401Q19.3278 -0.888401 19.8602 -1.92939Q20.3925 -2.97038 20.3925 -5.05235Q20.3925 -7.14111 19.8602 -8.1821Q19.3278 -9.22309 18.2631 -9.22309ZM18.2631 -10.3082Q19.9653 -10.3082 20.8639 -8.962Q21.7624 -7.61583 21.7624 -5.05235Q21.7624 -2.49566 20.8639 -1.1495Q19.9653 0.196669 18.2631 0.196669Q16.5609 0.196669 15.6623 -1.1495Q14.7637 -2.49566 14.7637 -5.05235Q14.7637 -7.61583 15.6623 -8.962Q16.5609 -10.3082 18.2631 -10.3082ZM28.361 -10.5523L29.6156 -10.5523L29.6156 -4.31993L33.3388 -7.59549L34.9325 -7.59549L30.9041 -4.04188L35.102 0L33.4744 0L29.6156 -3.70958L29.6156 0L28.361 0L28.361 -10.5523Z" fill="#262626" transform="translate(90.27777777777777,461) translate(-35.1426887512207,0)" />
<line x1="95.13888888888889" y1="380" x2="100.4" y2="380" stroke="#262626" stroke-width="1.1111111111111112" />
<path d="M4.41488 -9.22309Q3.35693 -9.22309 2.82457 -8.1821Q2.29221 -7.14111 2.29221 -5.05235Q2.29221 -2.97038 2.82457 -1.92939Q3.35693 -0.888401 4.41488 -0.888401Q5.4796 -0.888401 6.01196 -1.92939Q6.54433 -2.97038 6.54433 -5.05235Q6.54433 -7.14111 6.01196 -8.1821Q5.4796 -9.22309 4.41488 -9.22309ZM4.41488 -10.3082Q6.11708 -10.3082 7.01565 -8.962Q7.91422 -7.61583 7.91423 -5.05235Q7.91423 -2.49566 7.01565 -1.1495Q6.11708 0.196669 4.41488 0.196669Q2.71267 0.196669 1.8141 -1.1495Q0.915527 -2.49566 0.915527 -5.05235Q0.915527 -7.61583 1.8141 -8.962Q2.71267 -10.3082 4.41488 -10.3082Z" fill="#262626" transform="translate(90.27777777777777,384) translate(-8.83653450012207,0)" />
<line x1="95.13888888888889" y1="303" x2="100.4" y2="303" stroke="#262626" stroke-width="1.1111111111111112" />
<path d="M1.49875 -10.1251L6.87663 -10.1251L6.87663 -8.97217L2.75336 -8.97217L2.75336 -6.49007Q3.05176 -6.5918 3.35015 -6.64266Q3.64855 -6.69352 3.94694 -6.69352Q5.64236 -6.69352 6.63249 -5.76443Q7.62261 -4.83534 7.62261 -3.24843Q7.62261 -1.61404 6.60536 -0.708686Q5.58811 0.196669 3.73671 0.196669Q3.09923 0.196669 2.43802 0.0881619C1.99721 0.0158239 1.5417 -0.092683 1.07151 -0.237359L1.07151 -1.61404Q1.68186 -1.28174 2.3329 -1.11898Q2.98394 -0.956217 3.70958 -0.956217Q4.88281 -0.956217 5.56776 -1.57335Q6.25271 -2.19048 6.25271 -3.24843Q6.25271 -4.30637 5.56776 -4.9235Q4.88281 -5.54064 3.70958 -5.54064Q3.16026 -5.54064 2.61434 -5.41857Q2.06841 -5.2965 1.49875 -5.03879L1.49875 -10.1251ZM13.2514 -9.22309Q12.1935 -9.22309 11.6611 -8.1821Q11.1287 -7.14111 11.1287 -5.05235Q11.1287 -2.97038 11.6611 -1.92939Q12.1935 -0.888401 13.2514 -0.888401Q14.3161 -0.888401 14.8485 -1.92939Q15.3809 -2.97038 15.3809 -5.05235Q15.3809 -7.14111 14.8485 -8.1821Q14.3161 -9.22309 13.2514 -9.22309ZM13.2514 -10.3082Q14.9536 -10.3082 15.8522 -8.962Q16.7508 -7.61583 16.7508 -5.05235Q16.7508 -2.49566 15.8522 -1.1495Q14.9536 0.196669 13.2514 0.196669Q11.5492 0.196669 10.6506 -1.1495Q9.75206 -2.49566 9.75206 -5.05235Q9.75206 -7.61583 10.6506 -8.962Q11.5492 -10.3082 13.2514 -10.3082ZM23.3493 -10.5523L24.604 -10.5523L24.604 -4.31993L28.3271 -7.59549L29.9208 -7.59549L25.8925 -4.04188L30.0903 0L28.4627 0L24.604 -3.70958L24.604 0L23.3493 0L23.3493 -10.5523Z" fill="#262626" transform="translate(90.27777777777777,307) translate(-30.131023406982422,0)" />
<line x1="95.13888888888889" y1="226" x2="100.4" y2="226" stroke="#262626" stroke-width="1.1111111111111112" />
<path d="M1.72255 -1.15289L3.9605 -1.15289L3.9605 -8.87722L1.52588 -8.38894L1.52588 -9.63677L3.94694 -10.1251L5.31684 -10.1251L5.31684 -1.15289L7.5548 -1.15289L7.5548 0L1.72255 0L1.72255 -1.15289ZM13.2514 -9.22309Q12.1935 -9.22309 11.6611 -8.1821Q11.1287 -7.14111 11.1287 -5.05235Q11.1287 -2.97038 11.6611 -1.92939Q12.1935 -0.888401 13.2514 -0.888401Q14.3161 -0.888401 14.8485 -1.92939Q15.3809 -2.97038 15.3809 -5.05235Q15.3809 -7.14111 14.8485 -8.1821Q14.3161 -9.22309 13.2514 -9.22309ZM13.2514 -10.3082Q14.9536 -10.3082 15.8522 -8.962Q16.7508 -7.61583 16.7508 -5.05235Q16.7508 -2.49566 15.8522 -1.1495Q14.9536 0.196669 13.2514 0.196669Q11.5492 0.196669 10.6506 -1.1495Q9.75206 -2.49566 9.75206 -5.05235Q9.75206 -7.61583 10.6506 -8.962Q11.5492 -10.3082 13.2514 -10.3082ZM22.0879 -9.22309Q21.03 -9.22309 20.4976 -8.1821Q19.9653 -7.14111 19.9653 -5.05235Q19.9653 -2.97038 20.4976 -1.92939Q21.03 -0.888401 22.0879 -0.888401Q23.1527 -0.888401 23.685 -1.92939Q24.2174 -2.97038 24.2174 -5.05235Q24.2174 -7.14111 23.685 -8.1821Q23.1527 -9.22309 22.0879 -9.22309ZM22.0879 -10.3082Q23.7901 -10.3082 24.6887 -8.962Q25.5873 -7.61583 25.5873 -5.05235Q25.5873 -2.49566 24.6887 -1.1495Q23.7901 0.196669 22.0879 0.196669Q20.3857 0.196669 19.4872 -1.1495Q18.5886 -2.49566 18.5886 -5.05235Q18.5886 -7.61583 19.4872 -8.962Q20.3857 -10.3082 22.0879 -10.3082ZM32.1859 -10.5523L33.4405 -10.5523L33.4405 -4.31993L37.1636 -7.59549L38.7573 -7.59549L34.729 -4.04188L38.9269 0L37.2993 0L33.4405 -3.70958L33.4405 0L32.1859 0L32.1859 -10.5523Z" fill="#262626" transform="translate(90.27777777777777,230) translate(-38.967559814453125,0)" />
<line x1="95.13888888888889" y1="149" x2="100.4" y2="149" stroke="#262626" stroke-width="1.1111111111111112" />
<path d="M1.72255 -1.15289L3.9605 -1.15289L3.9605 -8.87722L1.52588 -8.38894L1.52588 -9.63677L3.94694 -10.1251L5.31684 -10.1251L5.31684 -1.15289L7.5548 -1.15289L7.5548 0L1.72255 0L1.72255 -1.15289ZM10.3353 -10.1251L15.7132 -10.1251L15.7132 -8.97217L11.5899 -8.97217L11.5899 -6.49007Q11.8883 -6.5918 12.1867 -6.64266Q12.4851 -6.69352 12.7835 -6.69352Q14.4789 -6.69352 15.469 -5.76443Q16.4591 -4.83534 16.4591 -3.24843Q16.4591 -1.61404 15.4419 -0.708686Q14.4246 0.196669 12.5732 0.196669Q11.9358 0.196669 11.2745 0.0881619C10.8337 0.0158239 10.3782 -0.092683 9.90804 -0.237359L9.90804 -1.61404Q10.5184 -1.28174 11.1694 -1.11898Q11.8205 -0.956217 12.5461 -0.956217Q13.7193 -0.956217 14.4043 -1.57335Q15.0892 -2.19048 15.0892 -3.24843Q15.0892 -4.30637 14.4043 -4.9235Q13.7193 -5.54064 12.5461 -5.54064Q11.9968 -5.54064 11.4509 -5.41857Q10.9049 -5.2965 10.3353 -5.03879L10.3353 -10.1251ZM22.0879 -9.22309Q21.03 -9.22309 20.4976 -8.1821Q19.9653 -7.14111 19.9653 -5.05235Q19.9653 -2.97038 20.4976 -1.92939Q21.03 -0.888401 22.0879 -0.888401Q23.1527 -0.888401 23.685 -1.92939Q24.2174 -2.97038 24.2174 -5.05235Q24.2174 -7.14111 23.685 -8.1821Q23.1527 -9.22309 22.0879 -9.22309ZM22.0879 -10.3082Q23.7901 -10.3082 24.6887 -8.962Q25.5873 -7.61583 25.5873 -5.05235Q25.5873 -2.49566 24.6887 -1.1495Q23.7901 0.196669 22.0879 0.196669Q20.3857 0.196669 19.4872 -1.1495Q18.5886 -2.49566 18.5886 -5.05235Q18.5886 -7.61583 19.4872 -8.962Q20.3857 -10.3082 22.0879 -10.3082ZM32.1859 -10.5523L33.4405 -10.5523L33.4405 -4.31993L37.1636 -7.59549L38.7573 -7.59549L34.729 -4.04188L38.9269 0L37.2993 0L33.4405 -3.70958L33.4405 0L32.1859 0L32.1859 -10.5523Z" fill="#262626" transform="translate(90.27777777777777,153) translate(-38.967559814453125,0)" />
<line x1="95.13888888888889" y1="72" x2="100.4" y2="72" stroke="#262626" stroke-width="1.1111111111111112" />
<path d="M2.6652 -1.15289L7.44629 -1.15289L7.44629 0L1.01725 0L1.01725 -1.15289Q1.79715 -1.95991 3.14331 -3.31963Q4.48947 -4.67936 4.83534 -5.0727Q5.49316 -5.8119 5.75426 -6.32392Q6.01535 -6.83594 6.01535 -7.331Q6.01535 -8.13802 5.44908 -8.64665Q4.88281 -9.15527 3.97407 -9.15527Q3.32981 -9.15527 2.61434 -8.93148Q1.89887 -8.70768 1.08507 -8.25331L1.08507 -9.63677Q1.91243 -9.96908 2.63129 -10.1386Q3.35015 -10.3082 3.94694 -10.3082Q5.52029 -10.3082 6.45616 -9.52148Q7.39204 -8.73481 7.39204 -7.41916Q7.39204 -6.79525 7.15807 -6.23576Q6.9241 -5.67627 6.30697 -4.91672Q6.13742 -4.72005 5.22868 -3.78079Q4.31993 -2.84153 2.6652 -1.15289ZM13.2514 -9.22309Q12.1935 -9.22309 11.6611 -8.1821Q11.1287 -7.14111 11.1287 -5.05235Q11.1287 -2.97038 11.6611 -1.92939Q12.1935 -0.888401 13.2514 -0.888401Q14.3161 -0.888401 14.8485 -1.92939Q15.3809 -2.97038 15.3809 -5.05235Q15.3809 -7.14111 14.8485 -8.1821Q14.3161 -9.22309 13.2514 -9.22309ZM13.2514 -10.3082Q14.9536 -10.3082 15.8522 -8.962Q16.7508 -7.61583 16.7508 -5.05235Q16.7508 -2.49566 15.8522 -1.1495Q14.9536 0.196669 13.2514 0.196669Q11.5492 0.196669 10.6506 -1.1495Q9.75206 -2.49566 9.75206 -5.05235Q9.75206 -7.61583 10.6506 -8.962Q11.5492 -10.3082 13.2514 -10.3082ZM22.0879 -9.22309Q21.03 -9.22309 20.4976 -8.1821Q19.9653 -7.14111 19.9653 -5.05235Q19.9653 -2.97038 20.4976 -1.92939Q21.03 -0.888401 22.0879 -0.888401Q23.1527 -0.888401 23.685 -1.92939Q24.2174 -2.97038 24.2174 -5.05235Q24.2174 -7.14111 23.685 -8.1821Q23.1527 -9.22309 22.0879 -9.22309ZM22.0879 -10.3082Q23.7901 -10.3082 24.6887 -8.962Q25.5873 -7.61583 25.5873 -5.05235Q25.5873 -2.49566 24.6887 -1.1495Q23.7901 0.196669 22.0879 0.196669Q20.3857 0.196669 19.4872 -1.1495Q18.5886 -2.49566 18.5886 -5.05235Q18.5886 -7.61583 19.4872 -8.962Q20.3857 -10.3082 22.0879 -10.3082ZM32.1859 -10.5523L33.4405 -10.5523L33.4405 -4.31993L37.1636 -7.59549L38.7573 -7.59549L34.729 -4.04188L38.9269 0L37.2993 0L33.4405 -3.70958L33.4405 0L32.1859 0L32.1859 -10.5523Z" fill="#262626" transform="translate(90.27777777777777,76) translate(-38.967559814453125,0)" />
<line x1="97.22222222222223" y1="518.6" x2="100.4" y2="518.6" stroke="#262626" stroke-width="0.8333333333333334" />
<line x1="97.22222222222223" y1="503.2" x2="100.4" y2="503.2" stroke="#262626" stroke-width="0.8333333333333334" />
<line x1="97.22222222222223" y1="487.8" x2="100.4" y2="487.8" stroke="#262626" stroke-width="0.8333333333333334" />
<line x1="97.22222222222223" y1="472.4" x2="100.4" y2="472.4" stroke="#262626" stroke-width="0.8333333333333334" />
<line x1="97.22222222222223" y1="441.6" x2="100.4" y2="441.6" stroke="#262626" stroke-width="0.8333333333333334" />
<line x1="97.22222222222223" y1="426.2" x2="100.4" y2="426.2" stroke="#262626" stroke-width="0.8333333333333334" />
<line x1="97.22222222222223" y1="410.8" x2="100.4" y2="410.8" stroke="#262626" stroke-width="0.8333333333333334" />
<line x1="97.22222222222223" y1="395.4" x2="100.4" y2="395.4" stroke="#262626" stroke-width="0.8333333333333334" />
<line x1="97.22222222222223" y1="364.6" x2="100.4" y2="364.6" stroke="#262626" stroke-width="0.8333333333333334" />
<line x1="97.22222222222223" y1="349.2" x2="100.4" y2="349.2" stroke="#262626" stroke-width="0.8333333333333334" />
<line x1="97.22222222222223" y1="333.8" x2="100.4" y2="333.8" stroke="#262626" stroke-width="0.8333333333333334" />
<line x1="97.22222222222223" y1="318.4" x2="100.4" y2="318.4" stroke="#262626" stroke-width="0.8333333333333334" />
<line x1="97.22222222222223" y1="287.6" x2="100.4" y2="287.6" stroke="#262626" stroke-width="0.8333333333333334" />
<line x1="97.22222222222223" y1="272.2" x2="100.4" y2="272.2" stroke="#262626" stroke-width="0.8333333333333334" />
<line x1="97.22222222222223" y1="256.8" x2="100.4" y2="256.8" stroke="#262626" stroke-width="0.8333333333333334" />
<line x1="97.22222222222223" y1="241.4" x2="100.4" y2="241.4" stroke="#262626" stroke-width="0.8333333333333334" />
<line x1="97.22222222222223" y1="210.60000000000002" x2="100.4" y2="210.60000000000002" stroke="#262626" stroke-width="0.8333333333333334" />
<line x1="97.22222222222223" y1="195.20000000000002" x2="100.4" y2="195.20000000000002" stroke="#262626" stroke-width="0.8333333333333334" />
<line x1="97.22222222222223" y1="179.8" x2="100.4" y2="179.8" stroke="#262626" stroke-width="0.8333333333333334" />
<line x1="97.22222222222223" y1="164.4" x2="100.4" y2="164.4" stroke="#262626" stroke-width="0.8333333333333334" />
<line x1="97.22222222222223" y1="133.60000000000002" x2="100.4" y2="133.60000000000002" stroke="#262626" stroke-width="0.8333333333333334" />
<line x1="97.22222222222223" y1="118.19999999999999" x2="100.4" y2="118.19999999999999" stroke="#262626" stroke-width="0.8333333333333334" />
<line x1="97.22222222222223" y1="102.80000000000001" x2="100.4" y2="102.80000000000001" stroke="#262626" stroke-width="0.8333333333333334" />
<line x1="97.22222222222223" y1="87.40000000000003" x2="100.4" y2="87.40000000000003" stroke="#262626" stroke-width="0.8333333333333334" />
<g class="series" aria-label="Signal">
<polyline points="128.1818181818182,380 131.01416171767931,363.85565383638846 133.84650525354044,347.8649230575606 136.67884878940157,332.1798881741537 139.5111923252627,316.9495752844678 142.3435358611238,302.31846705495275 145.17587939698493,288.42505909716454 148.00822293284605,275.40047616539556 150.84056646870718,263.3671620014735 153.6729100045683,252.43765591736755 156.50525354042944,242.71346833958395 159.33759707629056,234.28406655053894 162.16994061215166,227.22598076104714 165.0022841480128,221.6020394457523 167.83462768387392,217.4607415817771 170.66697121973505,214.83577206297562 173.49931475559617,213.7456651316082 176.3316582914573,214.19361919031985 179.16400182731843,216.16746484475794 181.99634536317956,219.63978649613819 184.82868889904069,224.568196268845 187.66103243490178,230.89575753607346 190.4933759707629,238.55155381178315 193.32571950662404,247.45139732478512 196.15806304248517,257.4986701951228 198.9904065783463,268.5852898079907 201.82275011420742,280.59278873949455 204.65509365006855,293.3934984439902 207.48743718592965,306.8518248759907 210.31978072179078,320.8256033010468 213.1521242576519,335.16751875878043 215.98446779351303,349.72657798527325 218.81681132937416,364.3496180878473 221.6491548652353,378.8828368980603 224.48149840109642,393.1733297121321 227.31384193695754,407.07061706420143 230.14618547281867,420.42814826740727 232.97852900867977,433.104765699908 235.8108725445409,444.96611520517877 238.64321608040203,455.885988514332 241.47555961626315,465.7475842774209 244.30790315212428,474.4446751039193 247.1402466879854,481.88266895169255 249.97259022384654,487.97955425941603 252.80493375970764,492.6667193789855 255.63727729556877,495.88963812042493 258.4696208314299,497.6084145595535 261.301964367291,497.7981816648715 264.13430790315215,496.44934976071943 266.9666514390133,493.5677023441472 269.7989949748744,489.1743382981233 272.63133851073553,483.3054610784707 275.46368204659666,476.0120169809036 278.2960255824578,467.35918610248075 281.1283691183189,457.425731083622 283.96071265418004,446.3032101378403 286.79305619004117,434.0950622323374 289.62539972590224,420.9155735600362 292.45774326176337,406.8887356297185 295.2900867976245,392.14700638385636 298.1224303334856,376.8299867226346 300.95477386934675,361.0830256579026 303.7871174052079,345.0557680338944 306.619460941069,328.90065932541 309.45180447693014,312.771422453024 312.28414801279126,296.8215218344764 315.1164915486524,281.2026300189397 317.9488350845135,266.0631122250439 320.78117862037465,251.54654392465423 323.6135221562358,237.79027628421719 326.4458656920969,224.9240637973065 329.27820922795803,213.06876782061502 332.1105527638191,202.33514896723042 334.9428962996802,192.82276042320103 337.77523983554136,184.61895324500946 340.6075833714025,177.79800357669023 343.4399269072636,172.4203705071511 346.27227044312474,168.53209198294198 349.10461397898587,166.16432481231084 351.936957514847,165.33303335667512 354.7693010507081,166.0388300199992 357.60164458656925,168.2669691298567 360.4339881224304,171.98749427131503 363.2663316582915,177.15553760153082 366.09867519415263,183.7117681544048 368.93101873001376,191.5829846559825 371.7633622658749,200.68284692738655 374.595705801736,210.91273856734398 377.42804933759714,222.1627522946687 380.2603928734582,234.31278810548577 383.09273640931934,247.2337532727695 385.92507994518047,260.7888521981998 388.7574234810416,274.83495322856214 391.5897670169027,289.2240187799125 394.42211055276385,303.80458448018294 397.254454088625,318.42327255111866 400.0867976244861,332.92632430833913 402.91914116034724,347.1611364672854 405.75148469620837,360.977785904797 408.5838282320695,374.2305276413995 411.4161717679306,386.77925107696296 414.24851530379175,398.49087992950405 417.0808588396529,409.2407018894057 419.913202375514,418.9136147035917 422.7455459113751,427.40527623919064 425.5778894472362,434.6231470356372 428.41023298309733,440.48741492837235 431.24257651895846,444.93179250560905 434.0749200548196,447.9041794302397 436.9072635906807,449.3671830091821 439.73960712654184,449.2984918088083 442.57195066240297,447.6910985834143 445.4042941982641,444.5533702893028 448.2366377341252,439.9089644849217 451.06898126998635,433.7965929523601 453.9013248058475,426.26963490201797 456.7336683417086,417.395603625181 459.56601187756974,407.25547192353093 462.39835541343086,395.94286305567687 465.230698949292,383.5631152845031 468.0630424851531,370.23222937206697 470.8953860210142,356.0757095383284 473.7277295568753,341.2273094644714 476.56007309273645,325.82769587033334 479.3924166285976,310.0230430190397 482.2247601644587,293.9635721920849 485.05710370031983,277.8020507279447 487.88944723618096,261.69226562132866 490.7217907720421,245.787486934363 493.5541343079032,230.23893637279528 496.38647784376434,215.19427632869733 499.21882137962547,200.7961344866542 502.0511649154866,187.18067873508747 504.8835084513477,174.47625662172322 507.71585198720885,162.8021129473229 510.54819552307,152.26719831105038 513.380539058931,142.96908051209954 516.2128825947922,134.99296968449676 519.0452261306533,128.4108669056079 521.8775696665144,123.28084478517371 524.7099132023756,119.64646722298998 527.5422567382367,117.53635413282066 530.3746002740978,116.96389548168034 533.206943809959,117.92711750170955 536.0392873458201,120.40870241141128 538.8716308816812,124.37616144919883 541.7039744175423,129.7821594903625 544.5363179534035,136.5649880039883 547.3686614892646,144.64918162420128 550.2010050251257,153.9462721751557 553.0333485609868,164.35567261580402 555.865692096848,175.76568207236198 558.6980356327091,188.0546019165151 561.5303791685702,201.09195173788575 564.3627227044313,214.73977306116186 567.1950662402925,228.85400778157933 570.0274097761536,243.2859375458859 572.8597533120147,257.8836696969659 575.6920968478759,272.493654935063 578.524440383737,286.9622215316252 581.356783919598,301.13711076642005 584.1891274554591,314.8689982463374 587.0214709913203,328.0129859053638 589.8538145271814,340.430049778164 592.6861580630425,351.98842908158434 595.5185015989036,362.56494272484497 598.3508451347648,372.046220094282 601.1831886706259,380.329833815041 604.015532206487,387.3253231715517 606.8478757423482,392.9550979610929 609.6802192782093,397.1552137494517 612.5125628140704,399.8760107825731 615.3449063499315,401.0826101704058 618.1772498857927,400.7552623852437 621.0095934216538,398.8895445924774 623.8419369575149,395.49640484209624 626.674280493376,390.6020526793911 629.5066240292372,384.2476972678424 632.3389675650983,376.4891356407795 635.1713111009594,367.3961951958689 638.0036546368206,357.0520360028381 640.8359981726817,345.552319895547 643.6683417085428,333.00425465056776 646.5006852444039,319.52552280251666 649.3330287802651,305.2431057990716 652.1653723161262,290.29201524432034 654.9977158519873,274.81394390743964 657.8300593878485,258.9558499753866 660.6624029237096,242.86848869526858 663.4947464595707,226.70490607775054 666.3270899954318,210.61890971190533 669.159433531293,194.7635319706242 671.9917770671541,179.28950096173563 674.8241206030151,164.34373450257448 677.6564641388762,150.0678721657143 680.4888076747374,136.59686006318145 683.3211512105985,124.0576025095071 686.1534947464596,112.56769403576882 688.9858382823207,102.23424442390578 691.8181818181819,93.15280850118297" fill="none" stroke="#1F77B4" stroke-width="1.5" />
</g>
<g class="spine">
<line x1="100" y1="534" x2="720" y2="534" stroke="#262626" stroke-width="0.8" />
</g>
<g class="spine">
<line x1="100" y1="72" x2="720" y2="72" stroke="#262626" stroke-width="0.8" />
</g>
<g class="spine">
<line x1="100" y1="72" x2="100" y2="534" stroke="#262626" stroke-width="0.8" />
</g>
<g class="spine">
<line x1="720" y1="72" x2="720" y2="534" stroke="#262626" stroke-width="0.8" />
</g>
<rect x="612.4475330776638" y="82" width="97.55246692233615" height="25.72222222222222" fill="#FFFFFF" fill-opacity="0.8" stroke="#CCCCCC" stroke-width="0.5" />
<g class="legend" aria-label="Chart legend">
<line x1="620.4475330776638" y1="94.86111111111111" x2="648.2253108554416" y2="94.86111111111111" stroke="#1F77B4" stroke-width="1.5" />
<path d="M7.43273 -9.79275L7.43273 -8.45676Q6.65283 -8.82975 5.9611 -9.01286Q5.26937 -9.19596 4.62511 -9.19596Q3.50613 -9.19596 2.89917 -8.76194Q2.29221 -8.32791 2.29221 -7.52767Q2.29221 -6.85628 2.69572 -6.51381Q3.09923 -6.17133 4.22499 -5.9611L5.05235 -5.79156Q6.58501 -5.49995 7.31405 -4.76413Q8.04308 -4.02832 8.04308 -2.79405Q8.04308 -1.32243 7.05634 -0.56288Q6.06961 0.196669 4.16395 0.196669Q3.4451 0.196669 2.63468 0.0339084Q1.82427 -0.128852 0.956217 -0.447591L0.956217 -1.85818Q1.79036 -1.39025 2.5906 -1.15289Q3.39084 -0.915527 4.16395 -0.915527Q5.33719 -0.915527 5.97466 -1.37668Q6.61214 -1.83784 6.61214 -2.69233Q6.61214 -3.43831 6.15438 -3.85878Q5.69661 -4.27924 4.65224 -4.48947L3.81809 -4.65224Q2.28543 -4.95741 1.60048 -5.60845Q0.915527 -6.25949 0.915527 -7.41916Q0.915527 -8.76194 1.86157 -9.53505Q2.80762 -10.3082 4.46913 -10.3082Q5.18121 -10.3082 5.92041 -10.1793Q6.65961 -10.0505 7.43273 -9.79275ZM10.1251 -7.59549L11.3729 -7.59549L11.3729 0L10.1251 0L10.1251 -7.59549ZM10.1251 -10.5523L11.3729 -10.5523L11.3729 -8.97217L10.1251 -8.97217L10.1251 -10.5523ZM18.9819 -3.88591Q18.9819 -5.24224 18.4224 -5.98823Q17.863 -6.73421 16.8525 -6.73421Q15.8488 -6.73421 15.2893 -5.98823Q14.7298 -5.24224 14.7298 -3.88591Q14.7298 -2.53635 15.2893 -1.79036Q15.8488 -1.04438 16.8525 -1.04438Q17.863 -1.04438 18.4224 -1.79036Q18.9819 -2.53635 18.9819 -3.88591ZM20.2298 -0.942654Q20.2298 0.996908 19.3685 1.94295Q18.5072 2.889 16.7304 2.889Q16.0726 2.889 15.4894 2.79066Q14.9061 2.69233 14.3568 2.48888L14.3568 1.27496Q14.9061 1.57335 15.4419 1.71577Q15.9776 1.85818 16.5337 1.85818Q17.7612 1.85818 18.3716 1.21731Q18.9819 0.576443 18.9819 -0.718859L18.9819 -1.33599Q18.5954 -0.664605 17.9918 -0.332303C17.5894 -0.110768 17.1079 0 16.5473 0Q15.1503 0 14.2958 -1.06472Q13.4413 -2.12945 13.4413 -3.88591Q13.4413 -5.64914 14.2958 -6.71387Q15.1503 -7.77859 16.5473 -7.77859Q17.3882 -7.77859 17.9918 -7.44629Q18.5954 -7.11399 18.9819 -6.4426L18.9819 -7.59549L20.2298 -7.59549L20.2298 -0.942654ZM29.1138 -4.58442L29.1138 0L27.8659 0L27.8659 -4.54373Q27.8659 -5.62202 27.4455 -6.15777Q27.025 -6.69352 26.1841 -6.69352Q25.1736 -6.69352 24.5904 -6.04926Q24.0072 -5.405 24.0072 -4.29281L24.0072 0L22.7526 0L22.7526 -7.59549L24.0072 -7.59549L24.0072 -6.41547Q24.4548 -7.10042 25.0617 -7.43951Q25.6687 -7.77859 26.4621 -7.77859Q27.771 -7.77859 28.4424 -6.96818Q29.1138 -6.15777 29.1138 -4.58442ZM35.0545 -3.81809Q33.5422 -3.81809 32.959 -3.47222Q32.3758 -3.12636 32.3758 -2.29221Q32.3758 -1.6276 32.8132 -1.23766Q33.2506 -0.84771 34.0034 -0.847711Q35.041 -0.847711 35.6683 -1.58352Q36.2956 -2.31934 36.2956 -3.54004L36.2956 -3.81809L35.0545 -3.81809ZM37.5434 -4.3335L37.5434 0L36.2956 0L36.2956 -1.15289Q35.8683 -0.461155 35.2309 -0.132243Q34.5934 0.196669 33.6711 0.196669Q32.5046 0.196669 31.8163 -0.457764Q31.1279 -1.1122 31.1279 -2.21083Q31.1279 -3.49257 31.9858 -4.14361Q32.8437 -4.79465 34.5459 -4.79465L36.2956 -4.79465L36.2956 -4.91672Q36.2956 -5.77799 35.7293 -6.24932Q35.163 -6.72065 34.139 -6.72065Q33.488 -6.72065 32.8708 -6.56467Q32.2537 -6.40869 31.684 -6.09673L31.684 -7.24962Q32.369 -7.51411 33.0132 -7.64635Q33.6575 -7.77859 34.2679 -7.77859Q35.9158 -7.77859 36.7296 -6.9241Q37.5434 -6.06961 37.5434 -4.3335ZM40.1137 -10.5523L41.3615 -10.5523L41.3615 0L40.1137 0L40.1137 -10.5523Z" fill="#262626" transform="translate(659.3364219665527,98.72222222222223)" />
</g>
<path d="M1.45855 -11.5831L9.51937 -11.5831L9.51937 -9.32541L4.44548 -9.32541L4.44548 -7.16862L9.2168 -7.16862L9.2168 -4.91097L4.44548 -4.91097L4.44548 -2.25765L9.69005 -2.25765L9.69005 0L1.45855 0L1.45855 -11.5831ZM20.924 -5.29112L20.924 0L18.131 0L18.131 -0.861165L18.131 -4.0498Q18.131 -5.17475 18.0806 -5.60145Q18.0302 -6.02816 17.906 -6.22987Q17.7431 -6.50141 17.4638 -6.6527Q17.1845 -6.80398 16.8276 -6.80398Q15.9587 -6.80398 15.4622 -6.13289Q14.9657 -5.46181 14.9657 -4.27479L14.9657 0L12.1882 0L12.1882 -8.68924L14.9657 -8.68924L14.9657 -7.41688Q15.5941 -8.17719 16.3001 -8.53795Q17.0061 -8.89871 17.8595 -8.89871Q19.3646 -8.89871 20.1443 -7.97548Q20.924 -7.05225 20.924 -5.29112ZM29.4115 -1.47407Q28.8374 -0.713759 28.1469 -0.356879Q27.4564 0 26.5487 0Q24.9583 0 23.9187 -1.25296Q22.8791 -2.50591 22.8791 -4.44548Q22.8791 -6.3928 23.9187 -7.63799Q24.9583 -8.88319 26.5487 -8.88319Q27.4564 -8.88319 28.1469 -8.52631Q28.8374 -8.16943 29.4115 -7.40137L29.4115 -8.68924L32.2045 -8.68924L32.2045 -0.876682Q32.2045 1.21804 30.8817 2.32359Q29.5589 3.42915 27.0452 3.42915Q26.2306 3.42915 25.4703 3.30501Q24.71 3.18088 23.9419 2.92486L23.9419 0.760308Q24.6712 1.17925 25.3695 1.38485Q26.0677 1.59044 26.7737 1.59044Q28.1392 1.59044 28.7753 0.993056Q29.4115 0.395671 29.4115 -0.876682L29.4115 -1.47407ZM27.5806 -6.88156Q26.7194 -6.88156 26.2384 -6.24539Q25.7574 -5.60921 25.7574 -4.44548Q25.7574 -3.25071 26.2229 -2.63392Q26.6884 -2.01714 27.5806 -2.01714Q28.4495 -2.01714 28.9305 -2.65332Q29.4115 -3.2895 29.4115 -4.44548Q29.4115 -5.60921 28.9305 -6.24539Q28.4495 -6.88156 27.5806 -6.88156ZM34.8733 -8.68924L37.6508 -8.68924L37.6508 0L34.8733 0L34.8733 -8.68924ZM34.8733 -12.0718L37.6508 -12.0718L37.6508 -9.80642L34.8733 -9.80642L34.8733 -12.0718ZM49.0554 -5.29112L49.0554 0L46.2624 0L46.2624 -0.861165L46.2624 -4.0498Q46.2624 -5.17475 46.212 -5.60145Q46.1616 -6.02816 46.0374 -6.22987Q45.8745 -6.50141 45.5952 -6.6527Q45.3159 -6.80398 44.959 -6.80398Q44.0901 -6.80398 43.5936 -6.13289Q43.0971 -5.46181 43.0971 -4.27479L43.0971 0L40.3196 0L40.3196 -8.68924L43.0971 -8.68924L43.0971 -7.41688Q43.7255 -8.17719 44.4315 -8.53795Q45.1375 -8.89871 45.9909 -8.89871Q47.496 -8.89871 48.2757 -7.97548Q49.0554 -7.05225 49.0554 -5.29112ZM60.3048 -4.36789L60.3048 -3.57655L53.8112 -3.57655Q53.9121 -2.59901 54.5172 -2.11024Q55.1223 -1.62147 56.2085 -1.62147Q57.0852 -1.62147 58.0045 -1.88137Q58.9239 -2.14128 59.8937 -2.66884L59.8937 -0.527561Q58.9084 -0.155165 57.9231 0.0349121Q56.9378 0.224989 55.9525 0.224989Q53.594 0.224989 52.2867 -0.97366Q50.9794 -2.17231 50.9794 -4.33686Q50.9794 -6.46262 52.2634 -7.68066Q53.5474 -8.89871 55.7973 -8.89871Q57.8455 -8.89871 59.0752 -7.66515Q60.3048 -6.43159 60.3048 -4.36789ZM57.4498 -5.29112Q57.4498 -6.08247 56.9882 -6.56736Q56.5266 -7.05225 55.7818 -7.05225Q54.9749 -7.05225 54.4706 -6.59839Q53.9664 -6.14453 53.8422 -5.29112L57.4498 -5.29112ZM71.0811 -4.36789L71.0811 -3.57655L64.5874 -3.57655Q64.6883 -2.59901 65.2934 -2.11024Q65.8985 -1.62147 66.9847 -1.62147Q67.8614 -1.62147 68.7807 -1.88137Q69.7001 -2.14128 70.6699 -2.66884L70.6699 -0.527561Q69.6846 -0.155165 68.6993 0.0349121Q67.714 0.224989 66.7287 0.224989Q64.3702 0.224989 63.0629 -0.97366Q61.7556 -2.17231 61.7556 -4.33686Q61.7556 -6.46262 63.0396 -7.68066Q64.3236 -8.89871 66.5735 -8.89871Q68.6217 -8.89871 69.8514 -7.66515Q71.0811 -6.43159 71.0811 -4.36789ZM68.226 -5.29112Q68.226 -6.08247 67.7644 -6.56736Q67.3028 -7.05225 66.558 -7.05225Q65.7511 -7.05225 65.2468 -6.59839Q64.7426 -6.14453 64.6184 -5.29112L68.226 -5.29112ZM79.6384 -6.32297Q79.2738 -6.49365 78.913 -6.57511Q78.5522 -6.65657 78.1876 -6.65658Q77.117 -6.65657 76.539 -5.96997Q75.961 -5.28337 75.961 -4.00326L75.961 0L73.1835 0L73.1835 -8.68924L75.961 -8.68924L75.961 -7.26172Q76.4963 -8.11513 77.1907 -8.50692Q77.885 -8.89871 78.8548 -8.89871Q78.9945 -8.89871 79.1574 -8.88707Q79.3203 -8.87543 79.6306 -8.83664L79.6384 -6.32297ZM81.0194 -8.68924L83.7968 -8.68924L83.7968 0L81.0194 0L81.0194 -8.68924ZM81.0194 -12.0718L83.7968 -12.0718L83.7968 -9.80642L81.0194 -9.80642L81.0194 -12.0718ZM95.2014 -5.29112L95.2014 0L92.4085 0L92.4085 -0.861165L92.4085 -4.0498Q92.4085 -5.17475 92.358 -5.60145Q92.3076 -6.02816 92.1835 -6.22987Q92.0206 -6.50141 91.7413 -6.6527Q91.462 -6.80398 91.1051 -6.80398Q90.2362 -6.80398 89.7396 -6.13289Q89.2431 -5.46181 89.2431 -4.27479L89.2431 0L86.4657 0L86.4657 -8.68924L89.2431 -8.68924L89.2431 -7.41688Q89.8715 -8.17719 90.5775 -8.53795Q91.2835 -8.89871 92.1369 -8.89871Q93.642 -8.89871 94.4217 -7.97548Q95.2014 -7.05225 95.2014 -5.29112ZM103.689 -1.47407Q103.115 -0.713759 102.424 -0.356879Q101.734 0 100.826 0Q99.2357 0 98.1961 -1.25296Q97.1565 -2.50591 97.1565 -4.44548Q97.1565 -6.3928 98.1961 -7.63799Q99.2357 -8.88319 100.826 -8.88319Q101.734 -8.88319 102.424 -8.52631Q103.115 -8.16943 103.689 -7.40137L103.689 -8.68924L106.482 -8.68924L106.482 -0.876682Q106.482 1.21804 105.159 2.32359Q103.836 3.42915 101.323 3.42915Q100.508 3.42915 99.7478 3.30501Q98.9875 3.18088 98.2194 2.92486L98.2194 0.760308Q98.9487 1.17925 99.6469 1.38485Q100.345 1.59044 101.051 1.59044Q102.417 1.59044 103.053 0.993056Q103.689 0.395671 103.689 -0.876682L103.689 -1.47407ZM101.858 -6.88156Q100.997 -6.88156 100.516 -6.24539Q100.035 -5.60921 100.035 -4.44548Q100.035 -3.25071 100.5 -2.63392Q100.966 -2.01714 101.858 -2.01714Q102.727 -2.01714 103.208 -2.65332Q103.689 -3.2895 103.689 -4.44548Q103.689 -5.60921 103.208 -6.24539Q102.727 -6.88156 101.858 -6.88156ZM123.418 -5.29112L123.418 0L120.625 0L120.625 -0.861165L120.625 -4.0498Q120.625 -5.17475 120.575 -5.60145Q120.524 -6.02816 120.4 -6.22987Q120.237 -6.50141 119.958 -6.6527Q119.679 -6.80398 119.322 -6.80398Q118.453 -6.80398 117.956 -6.13289Q117.46 -5.46181 117.46 -4.27479L117.46 0L114.682 0L114.682 -8.68924L117.46 -8.68924L117.46 -7.41688Q118.088 -8.17719 118.794 -8.53795Q119.5 -8.89871 120.354 -8.89871Q121.859 -8.89871 122.638 -7.97548Q123.418 -7.05225 123.418 -5.29112ZM130.129 -6.9126Q129.206 -6.9126 128.721 -6.24927Q128.236 -5.58594 128.236 -4.33686Q128.236 -3.08778 128.721 -2.42445Q129.206 -1.76112 130.129 -1.76112Q131.037 -1.76112 131.518 -2.42445Q131.999 -3.08778 131.999 -4.33686Q131.999 -5.58594 131.518 -6.24927Q131.037 -6.9126 130.129 -6.9126ZM130.129 -8.89871Q132.371 -8.89871 133.632 -7.68842Q134.893 -6.47814 134.893 -4.33686Q134.893 -2.19558 133.632 -0.985297Q132.371 0.224989 130.129 0.224989Q127.879 0.224989 126.611 -0.985297Q125.342 -2.19558 125.342 -4.33686Q125.342 -6.47814 126.611 -7.68842Q127.879 -8.89871 130.129 -8.89871ZM139.943 -11.1564L139.943 -8.68924L142.806 -8.68924L142.806 -6.70313L139.943 -6.70313L139.943 -3.01796Q139.943 -2.41281 140.184 -2.19946Q140.424 -1.98611 141.138 -1.98611L142.566 -1.98611L142.566 0L140.184 0Q138.539 0 137.852 -0.686605Q137.166 -1.37321 137.166 -3.01796L137.166 -6.70313L135.785 -6.70313L135.785 -8.68924L137.166 -8.68924L137.166 -11.1564L139.943 -11.1564ZM148.4 -3.91016Q147.531 -3.91016 147.092 -3.61534Q146.654 -3.32053 146.654 -2.74642Q146.654 -2.21886 147.007 -1.92017Q147.36 -1.62147 147.989 -1.62147Q148.772 -1.62147 149.307 -2.18395Q149.843 -2.74642 149.843 -3.59207L149.843 -3.91016L148.4 -3.91016ZM152.644 -4.95752L152.644 0L149.843 0L149.843 -1.28787Q149.284 -0.496528 148.586 -0.135769Q147.888 0.224989 146.887 0.224989Q145.537 0.224989 144.695 -0.562473Q143.853 -1.34993 143.853 -2.60677Q143.853 -4.13515 144.905 -4.8489Q145.956 -5.56266 148.206 -5.56266L149.843 -5.56266L149.843 -5.77989Q149.843 -6.43934 149.323 -6.7458Q148.803 -7.05225 147.702 -7.05225Q146.809 -7.05225 146.041 -6.87381Q145.273 -6.69537 144.614 -6.33849L144.614 -8.45649Q145.506 -8.67372 146.406 -8.78621Q147.306 -8.89871 148.206 -8.89871Q150.557 -8.89871 151.6 -7.9716Q152.644 -7.04449 152.644 -4.95752ZM158.26 -11.1564L158.26 -8.68924L161.123 -8.68924L161.123 -6.70313L158.26 -6.70313L158.26 -3.01796Q158.26 -2.41281 158.501 -2.19946Q158.741 -1.98611 159.455 -1.98611L160.883 -1.98611L160.883 0L158.501 0Q156.856 0 156.17 -0.686605Q155.483 -1.37321 155.483 -3.01796L155.483 -6.70313L154.102 -6.70313L154.102 -8.68924L155.483 -8.68924L155.483 -11.1564L158.26 -11.1564ZM162.822 -8.68924L165.6 -8.68924L165.6 0L162.822 0L162.822 -8.68924ZM162.822 -12.0718L165.6 -12.0718L165.6 -9.80642L162.822 -9.80642L162.822 -12.0718ZM172.404 -6.9126Q171.481 -6.9126 170.996 -6.24927Q170.511 -5.58594 170.511 -4.33686Q170.511 -3.08778 170.996 -2.42445Q171.481 -1.76112 172.404 -1.76112Q173.311 -1.76112 173.792 -2.42445Q174.273 -3.08778 174.273 -4.33686Q174.273 -5.58594 173.792 -6.24927Q173.311 -6.9126 172.404 -6.9126ZM172.404 -8.89871Q174.646 -8.89871 175.907 -7.68842Q177.167 -6.47814 177.167 -4.33686Q177.167 -2.19558 175.907 -0.985297Q174.646 0.224989 172.404 0.224989Q170.154 0.224989 168.885 -0.985297Q167.617 -2.19558 167.617 -4.33686Q167.617 -6.47814 168.885 -7.68842Q170.154 -8.89871 172.404 -8.89871ZM187.92 -5.29112L187.92 0L185.127 0L185.127 -0.861165L185.127 -4.0498Q185.127 -5.17475 185.077 -5.60145Q185.026 -6.02816 184.902 -6.22987Q184.739 -6.50141 184.46 -6.6527Q184.181 -6.80398 183.824 -6.80398Q182.955 -6.80398 182.458 -6.13289Q181.962 -5.46181 181.962 -4.27479L181.962 0L179.184 0L179.184 -8.68924L181.962 -8.68924L181.962 -7.41688Q182.59 -8.17719 183.296 -8.53795Q184.002 -8.89871 184.856 -8.89871Q186.361 -8.89871 187.141 -7.97548Q187.92 -7.05225 187.92 -5.29112ZM202.273 -9.96159L202.273 -5.89627L206.323 -5.89627L206.323 -4.06532L202.273 -4.06532L202.273 0L200.427 0L200.427 -4.06532L196.377 -4.06532L196.377 -5.89627L200.427 -5.89627L200.427 -9.96159L202.273 -9.96159ZM214.997 -11.5831L218.798 -11.5831L221.436 -5.38422L224.089 -11.5831L227.883 -11.5831L227.883 0L225.059 0L225.059 -8.47201L222.39 -2.22662L220.497 -2.22662L217.828 -8.47201L217.828 0L214.997 0L214.997 -11.5831ZM230.591 -3.3826L230.591 -8.68924L233.384 -8.68924L233.384 -7.82031Q233.384 -7.11431 233.376 -6.04755Q233.368 -4.98079 233.368 -4.62392Q233.368 -3.57655 233.422 -3.11494Q233.477 -2.65332 233.609 -2.44385Q233.779 -2.17231 234.055 -2.0249Q234.33 -1.8775 234.687 -1.8775Q235.556 -1.8775 236.052 -2.5447Q236.549 -3.21191 236.549 -4.39893L236.549 -8.68924L239.326 -8.68924L239.326 0L236.549 0L236.549 -1.25684Q235.921 -0.496528 235.218 -0.135769Q234.516 0.224989 233.671 0.224989Q232.166 0.224989 231.378 -0.698242Q230.591 -1.62147 230.591 -3.3826ZM241.995 -12.0718L244.773 -12.0718L244.773 0L241.995 0L241.995 -12.0718ZM250.475 -11.1564L250.475 -8.68924L253.338 -8.68924L253.338 -6.70313L250.475 -6.70313L250.475 -3.01796Q250.475 -2.41281 250.715 -2.19946Q250.956 -1.98611 251.67 -1.98611L253.097 -1.98611L253.097 0L250.715 0Q249.071 0 248.384 -0.686605Q247.698 -1.37321 247.698 -3.01796L247.698 -6.70313L246.317 -6.70313L246.317 -8.68924L247.698 -8.68924L247.698 -11.1564L250.475 -11.1564ZM255.037 -8.68924L257.814 -8.68924L257.814 0L255.037 0L255.037 -8.68924ZM255.037 -12.0718L257.814 -12.0718L257.814 -9.80642L255.037 -9.80642L255.037 -12.0718ZM263.261 -1.25684L263.261 3.30501L260.483 3.30501L260.483 -8.68924L263.261 -8.68924L263.261 -7.41688Q263.835 -8.17719 264.533 -8.53795Q265.231 -8.89871 266.139 -8.89871Q267.745 -8.89871 268.777 -7.62248Q269.809 -6.34625 269.809 -4.33686Q269.809 -2.32747 268.777 -1.05124Q267.745 0.224989 266.139 0.224989Q265.231 0.224989 264.533 -0.135769Q263.835 -0.496528 263.261 -1.25684ZM265.107 -6.88156Q264.215 -6.88156 263.738 -6.22599Q263.261 -5.57042 263.261 -4.33686Q263.261 -3.1033 263.738 -2.44773Q264.215 -1.79215 265.107 -1.79216Q265.999 -1.79215 266.469 -2.44385Q266.938 -3.09554 266.938 -4.33686Q266.938 -5.57818 266.469 -6.22987Q265.999 -6.88156 265.107 -6.88156ZM271.857 -12.0718L274.634 -12.0718L274.634 0L271.857 0L271.857 -12.0718ZM285.977 -4.36789L285.977 -3.57655L279.483 -3.57655Q279.584 -2.59901 280.189 -2.11024Q280.794 -1.62147 281.88 -1.62147Q282.757 -1.62147 283.676 -1.88137Q284.596 -2.14128 285.566 -2.66884L285.566 -0.527561Q284.58 -0.155165 283.595 0.0349121Q282.61 0.224989 281.624 0.224989Q279.266 0.224989 277.959 -0.97366Q276.651 -2.17231 276.651 -4.33686Q276.651 -6.46262 277.935 -7.68066Q279.219 -8.89871 281.469 -8.89871Q283.517 -8.89871 284.747 -7.66515Q285.977 -6.43159 285.977 -4.36789ZM283.122 -5.29112Q283.122 -6.08247 282.66 -6.56736Q282.198 -7.05225 281.454 -7.05225Q280.647 -7.05225 280.143 -6.59839Q279.638 -6.14453 279.514 -5.29112L283.122 -5.29112ZM288.203 -11.5831L291.19 -11.5831L291.19 -2.25765L296.435 -2.25765L296.435 0L288.203 0L288.203 -11.5831ZM302.339 -6.9126Q301.416 -6.9126 300.931 -6.24927Q300.446 -5.58594 300.446 -4.33686Q300.446 -3.08778 300.931 -2.42445Q301.416 -1.76112 302.339 -1.76112Q303.247 -1.76112 303.728 -2.42445Q304.209 -3.08778 304.209 -4.33686Q304.209 -5.58594 303.728 -6.24927Q303.247 -6.9126 302.339 -6.9126ZM302.339 -8.89871Q304.581 -8.89871 305.842 -7.68842Q307.102 -6.47814 307.102 -4.33686Q307.102 -2.19558 305.842 -0.985297Q304.581 0.224989 302.339 0.224989Q300.089 0.224989 298.821 -0.985297Q297.552 -2.19558 297.552 -4.33686Q297.552 -6.47814 298.821 -7.68842Q300.089 -8.89871 302.339 -8.89871ZM316.141 -8.4177L316.141 -6.15229Q315.574 -6.5402 315.004 -6.7264Q314.434 -6.9126 313.821 -6.9126Q312.657 -6.9126 312.01 -6.23375Q311.362 -5.5549 311.362 -4.33686Q311.362 -3.11881 312.01 -2.43997Q312.657 -1.76112 313.821 -1.76112Q314.473 -1.76112 315.059 -1.95508Q315.644 -2.14903 316.141 -2.52919L316.141 -0.256022C315.706 -0.095685 315.265 0.0245678 314.818 0.104736Q314.147 0.224989 313.472 0.224989Q311.121 0.224989 309.795 -0.981418Q308.468 -2.18783 308.468 -4.33686Q308.468 -6.48589 309.795 -7.6923Q311.121 -8.89871 313.472 -8.89871Q314.155 -8.89871 314.818 -8.77846Q315.481 -8.6582 316.141 -8.4177ZM322.433 -3.91016Q321.564 -3.91016 321.125 -3.61534Q320.687 -3.32053 320.687 -2.74642Q320.687 -2.21886 321.04 -1.92017Q321.393 -1.62147 322.022 -1.62147Q322.805 -1.62147 323.34 -2.18395Q323.876 -2.74642 323.876 -3.59207L323.876 -3.91016L322.433 -3.91016ZM326.677 -4.95752L326.677 0L323.876 0L323.876 -1.28787Q323.317 -0.496528 322.619 -0.135769Q321.921 0.224989 320.92 0.224989Q319.57 0.224989 318.728 -0.562473Q317.886 -1.34993 317.886 -2.60677Q317.886 -4.13515 318.938 -4.8489Q319.989 -5.56266 322.239 -5.56266L323.876 -5.56266L323.876 -5.77989Q323.876 -6.43934 323.356 -6.7458Q322.836 -7.05225 321.735 -7.05225Q320.842 -7.05225 320.074 -6.87381Q319.306 -6.69537 318.647 -6.33849L318.647 -8.45649Q319.539 -8.67372 320.439 -8.78621Q321.339 -8.89871 322.239 -8.89871Q324.59 -8.89871 325.633 -7.9716Q326.677 -7.04449 326.677 -4.95752ZM332.293 -11.1564L332.293 -8.68924L335.156 -8.68924L335.156 -6.70313L332.293 -6.70313L332.293 -3.01796Q332.293 -2.41281 332.534 -2.19946Q332.775 -1.98611 333.488 -1.98611L334.916 -1.98611L334.916 0L332.534 0Q330.889 0 330.203 -0.686605Q329.516 -1.37321 329.516 -3.01796L329.516 -6.70313L328.135 -6.70313L328.135 -8.68924L329.516 -8.68924L329.516 -11.1564L332.293 -11.1564ZM340.991 -6.9126Q340.067 -6.9126 339.582 -6.24927Q339.097 -5.58594 339.097 -4.33686Q339.097 -3.08778 339.582 -2.42445Q340.067 -1.76112 340.991 -1.76112Q341.898 -1.76112 342.379 -2.42445Q342.86 -3.08778 342.86 -4.33686Q342.86 -5.58594 342.379 -6.24927Q341.898 -6.9126 340.991 -6.9126ZM340.991 -8.89871Q343.233 -8.89871 344.493 -7.68842Q345.754 -6.47814 345.754 -4.33686Q345.754 -2.19558 344.493 -0.985297Q343.233 0.224989 340.991 0.224989Q338.741 0.224989 337.472 -0.985297Q336.204 -2.19558 336.204 -4.33686Q336.204 -6.47814 337.472 -7.68842Q338.741 -8.89871 340.991 -8.89871ZM354.226 -6.32297Q353.861 -6.49365 353.501 -6.57511Q353.14 -6.65657 352.775 -6.65658Q351.705 -6.65657 351.127 -5.96997Q350.549 -5.28337 350.549 -4.00326L350.549 0L347.771 0L347.771 -8.68924L350.549 -8.68924L350.549 -7.26172Q351.084 -8.11513 351.778 -8.50692Q352.473 -8.89871 353.443 -8.89871Q353.582 -8.89871 353.745 -8.88707Q353.908 -8.87543 354.218 -8.83664L354.226 -6.32297Z" fill="#262626" transform="translate(410,64) translate(-177.1363067626953,0)" />
<path d="M7.43273 -9.79275L7.43273 -8.45676Q6.65283 -8.82975 5.9611 -9.01286Q5.26937 -9.19596 4.62511 -9.19596Q3.50613 -9.19596 2.89917 -8.76194Q2.29221 -8.32791 2.29221 -7.52767Q2.29221 -6.85628 2.69572 -6.51381Q3.09923 -6.17133 4.22499 -5.9611L5.05235 -5.79156Q6.58501 -5.49995 7.31405 -4.76413Q8.04308 -4.02832 8.04308 -2.79405Q8.04308 -1.32243 7.05634 -0.56288Q6.06961 0.196669 4.16395 0.196669Q3.4451 0.196669 2.63468 0.0339084Q1.82427 -0.128852 0.956217 -0.447591L0.956217 -1.85818Q1.79036 -1.39025 2.5906 -1.15289Q3.39084 -0.915527 4.16395 -0.915527Q5.33719 -0.915527 5.97466 -1.37668Q6.61214 -1.83784 6.61214 -2.69233Q6.61214 -3.43831 6.15438 -3.85878Q5.69661 -4.27924 4.65224 -4.48947L3.81809 -4.65224Q2.28543 -4.95741 1.60048 -5.60845Q0.915527 -6.25949 0.915527 -7.41916Q0.915527 -8.76194 1.86157 -9.53505Q2.80762 -10.3082 4.46913 -10.3082Q5.18121 -10.3082 5.92041 -10.1793Q6.65961 -10.0505 7.43273 -9.79275ZM13.5769 -3.81809Q12.0646 -3.81809 11.4814 -3.47222Q10.8982 -3.12636 10.8982 -2.29221Q10.8982 -1.6276 11.3356 -1.23766Q11.773 -0.84771 12.5258 -0.847711Q13.5634 -0.847711 14.1907 -1.58352Q14.818 -2.31934 14.818 -3.54004L14.818 -3.81809L13.5769 -3.81809ZM16.0658 -4.3335L16.0658 0L14.818 0L14.818 -1.15289Q14.3907 -0.461155 13.7533 -0.132243Q13.1158 0.196669 12.1935 0.196669Q11.027 0.196669 10.3387 -0.457764Q9.65034 -1.1122 9.65034 -2.21083Q9.65034 -3.49257 10.5082 -4.14361Q11.3661 -4.79465 13.0683 -4.79465L14.818 -4.79465L14.818 -4.91672Q14.818 -5.77799 14.2517 -6.24932Q13.6854 -6.72065 12.6614 -6.72065Q12.0104 -6.72065 11.3932 -6.56467Q10.7761 -6.40869 10.2064 -6.09673L10.2064 -7.24962Q10.8914 -7.51411 11.5356 -7.64635Q12.1799 -7.77859 12.7903 -7.77859Q14.4382 -7.77859 15.252 -6.9241Q16.0658 -6.06961 16.0658 -4.3335ZM24.5497 -6.13742Q25.0176 -6.97835 25.6687 -7.37847Q26.3197 -7.77859 27.2013 -7.77859Q28.3881 -7.77859 29.0324 -6.94784Q29.6767 -6.11708 29.6767 -4.58442L29.6767 0L28.422 0L28.422 -4.54373Q28.422 -5.63558 28.0355 -6.16455Q27.6489 -6.69352 26.8555 -6.69352Q25.8857 -6.69352 25.3228 -6.04926Q24.7599 -5.405 24.7599 -4.29281L24.7599 0L23.5053 0L23.5053 -4.54373Q23.5053 -5.64236 23.1188 -6.16794Q22.7322 -6.69352 21.9252 -6.69352Q20.969 -6.69352 20.4061 -6.04587Q19.8432 -5.39822 19.8432 -4.29281L19.8432 0L18.5886 0L18.5886 -7.59549L19.8432 -7.59549L19.8432 -6.41547Q20.2705 -7.11399 20.8672 -7.44629Q21.464 -7.77859 22.2846 -7.77859Q23.112 -7.77859 23.6918 -7.35813Q24.2716 -6.93766 24.5497 -6.13742ZM33.3727 -1.13932L33.3727 2.889L32.1181 2.889L32.1181 -7.59549L33.3727 -7.59549L33.3727 -6.4426Q33.766 -7.12077 34.3662 -7.44968Q34.9664 -7.77859 35.8005 -7.77859Q37.184 -7.77859 38.0486 -6.67996Q38.9133 -5.58133 38.9133 -3.79096Q38.9133 -2.0006 38.0486 -0.901964Q37.184 0.196669 35.8005 0.196669Q34.9664 0.196669 34.3662 -0.132243Q33.766 -0.461155 33.3727 -1.13932ZM37.618 -3.79096Q37.618 -5.16764 37.0517 -5.95093Q36.4855 -6.73421 35.4953 -6.73421Q34.5052 -6.73421 33.9389 -5.95093Q33.3727 -5.16764 33.3727 -3.79096Q33.3727 -2.41428 33.9389 -1.631Q34.5052 -0.847711 35.4953 -0.847711Q36.4855 -0.847711 37.0517 -1.631Q37.618 -2.41428 37.618 -3.79096ZM40.9817 -10.5523L42.2295 -10.5523L42.2295 0L40.9817 0L40.9817 -10.5523ZM51.3373 -4.1097L51.3373 -3.49935L45.6 -3.49935Q45.6814 -2.21083 46.3765 -1.53605Q47.0717 -0.861274 48.3127 -0.861274Q49.0316 -0.861274 49.7064 -1.0376Q50.3811 -1.21392 51.0457 -1.56657L51.0457 -0.386556Q50.3744 -0.101725 49.6691 0.0474718Q48.9638 0.196669 48.2381 0.196669Q46.4206 0.196669 45.3593 -0.861274Q44.298 -1.91922 44.298 -3.72314Q44.298 -5.58811 45.305 -6.68335Q46.3121 -7.77859 48.0211 -7.77859Q49.5538 -7.77859 50.4456 -6.79186Q51.3373 -5.80512 51.3373 -4.1097ZM50.0895 -4.47591Q50.076 -5.49995 49.5165 -6.1103Q48.957 -6.72065 48.0347 -6.72065Q46.9903 -6.72065 46.363 -6.13064Q45.7357 -5.54064 45.6407 -4.46913L50.0895 -4.47591ZM57.8003 -7.59549L59.0481 -7.59549L59.0481 0L57.8003 0L57.8003 -7.59549ZM57.8003 -10.5523L59.0481 -10.5523L59.0481 -8.97217L57.8003 -8.97217L57.8003 -10.5523ZM67.9728 -4.58442L67.9728 0L66.725 0L66.725 -4.54373Q66.725 -5.62202 66.3045 -6.15777Q65.8841 -6.69352 65.0431 -6.69352Q64.0327 -6.69352 63.4494 -6.04926Q62.8662 -5.405 62.8662 -4.29281L62.8662 0L61.6116 0L61.6116 -7.59549L62.8662 -7.59549L62.8662 -6.41547Q63.3138 -7.10042 63.9208 -7.43951Q64.5277 -7.77859 65.3212 -7.77859Q66.6301 -7.77859 67.3014 -6.96818Q67.9728 -6.15777 67.9728 -4.58442ZM75.4598 -6.4426L75.4598 -10.5523L76.7076 -10.5523L76.7076 0L75.4598 0L75.4598 -1.13932Q75.0665 -0.461154 74.4663 -0.132243Q73.8661 0.196669 73.0252 0.196669Q71.6485 0.196669 70.7838 -0.901964Q69.9192 -2.0006 69.9192 -3.79096Q69.9192 -5.58133 70.7838 -6.67996Q71.6485 -7.77859 73.0252 -7.77859Q73.8661 -7.77859 74.4663 -7.44968Q75.0665 -7.12077 75.4598 -6.4426ZM71.2077 -3.79096Q71.2077 -2.41428 71.774 -1.631Q72.3402 -0.847711 73.3304 -0.847711Q74.3205 -0.847711 74.8901 -1.631Q75.4598 -2.41428 75.4598 -3.79096Q75.4598 -5.16764 74.8901 -5.95093Q74.3205 -6.73421 73.3304 -6.73421Q72.3402 -6.73421 71.774 -5.95093Q71.2077 -5.16764 71.2077 -3.79096ZM85.7747 -4.1097L85.7747 -3.49935L80.0374 -3.49935Q80.1188 -2.21083 80.8139 -1.53605Q81.5091 -0.861274 82.7501 -0.861274Q83.469 -0.861274 84.1437 -1.0376Q84.8185 -1.21392 85.4831 -1.56657L85.4831 -0.386556Q84.8117 -0.101725 84.1064 0.0474718Q83.4012 0.196669 82.6755 0.196669Q80.858 0.196669 79.7967 -0.861274Q78.7354 -1.91922 78.7354 -3.72314Q78.7354 -5.58811 79.7424 -6.68335Q80.7495 -7.77859 82.4585 -7.77859Q83.9912 -7.77859 84.8829 -6.79186Q85.7747 -5.80512 85.7747 -4.1097ZM84.5269 -4.47591Q84.5134 -5.49995 83.9539 -6.1103Q83.3944 -6.72065 82.4721 -6.72065Q81.4277 -6.72065 80.8004 -6.13064Q80.1731 -5.54064 80.0781 -4.46913L84.5269 -4.47591ZM94.1366 -7.59549L91.39 -3.89947L94.279 0L92.8074 0L90.5965 -2.98394L88.3857 0L86.9141 0L89.8641 -3.97407L87.165 -7.59549L88.6366 -7.59549L90.6508 -4.88959L92.6649 -7.59549L94.1366 -7.59549Z" fill="#262626" transform="translate(410,577.5) translate(-47.36667251586914,0)" />
<path d="M4.74718 -8.7755L2.889 -3.73671L6.61214 -3.73671L4.74718 -8.7755ZM3.97407 -10.1251L5.52707 -10.1251L9.38585 0L7.9617 0L7.03939 -2.59739L2.47531 -2.59739L1.55301 0L0.108507 0L3.97407 -10.1251ZM16.7236 -6.13742Q17.1916 -6.97835 17.8426 -7.37847Q18.4937 -7.77859 19.3753 -7.77859Q20.5621 -7.77859 21.2063 -6.94784Q21.8506 -6.11708 21.8506 -4.58442L21.8506 0L20.596 0L20.596 -4.54373Q20.596 -5.63558 20.2094 -6.16455Q19.8229 -6.69352 19.0294 -6.69352Q18.0596 -6.69352 17.4967 -6.04926Q16.9339 -5.405 16.9339 -4.29281L16.9339 0L15.6793 0L15.6793 -4.54373Q15.6793 -5.64236 15.2927 -6.16794Q14.9061 -6.69352 14.0991 -6.69352Q13.1429 -6.69352 12.58 -6.04587Q12.0171 -5.39822 12.0171 -4.29281L12.0171 0L10.7625 0L10.7625 -7.59549L12.0171 -7.59549L12.0171 -6.41547Q12.4444 -7.11399 13.0412 -7.44629Q13.638 -7.77859 14.4586 -7.77859Q15.2859 -7.77859 15.8658 -7.35813Q16.4456 -6.93766 16.7236 -6.13742ZM25.5466 -1.13932L25.5466 2.889L24.292 2.889L24.292 -7.59549L25.5466 -7.59549L25.5466 -6.4426Q25.9399 -7.12077 26.5401 -7.44968Q27.1403 -7.77859 27.9744 -7.77859Q29.3579 -7.77859 30.2226 -6.67996Q31.0872 -5.58133 31.0872 -3.79096Q31.0872 -2.0006 30.2226 -0.901964Q29.3579 0.196669 27.9744 0.196669Q27.1403 0.196669 26.5401 -0.132243Q25.9399 -0.461155 25.5466 -1.13932ZM29.7919 -3.79096Q29.7919 -5.16764 29.2257 -5.95093Q28.6594 -6.73421 27.6693 -6.73421Q26.6791 -6.73421 26.1129 -5.95093Q25.5466 -5.16764 25.5466 -3.79096Q25.5466 -2.41428 26.1129 -1.631Q26.6791 -0.847711 27.6693 -0.847711Q28.6594 -0.847711 29.2257 -1.631Q29.7919 -2.41428 29.7919 -3.79096ZM33.1557 -10.5523L34.4035 -10.5523L34.4035 0L33.1557 0L33.1557 -10.5523ZM37.0144 -7.59549L38.2623 -7.59549L38.2623 0L37.0144 0L37.0144 -7.59549ZM37.0144 -10.5523L38.2623 -10.5523L38.2623 -8.97217L37.0144 -8.97217L37.0144 -10.5523ZM42.1075 -9.75206L42.1075 -7.59549L44.6777 -7.59549L44.6777 -6.62571L42.1075 -6.62571L42.1075 -2.50244Q42.1075 -1.57335 42.3618 -1.30887Q42.6161 -1.04438 43.396 -1.04438L44.6777 -1.04438L44.6777 0L43.396 0Q41.9515 0 41.4022 -0.539144Q40.8529 -1.07829 40.8529 -2.50244L40.8529 -6.62571L39.9373 -6.62571L39.9373 -7.59549L40.8529 -7.59549L40.8529 -9.75206L42.1075 -9.75206ZM46.1901 -2.9975L46.1901 -7.59549L47.4379 -7.59549L47.4379 -3.04498Q47.4379 -1.96669 47.8584 -1.42754Q48.2788 -0.888401 49.1197 -0.888401Q50.1302 -0.888401 50.7168 -1.53266Q51.3034 -2.17692 51.3034 -3.28912L51.3034 -7.59549L52.5513 -7.59549L52.5513 0L51.3034 0L51.3034 -1.16645Q50.8491 -0.474718 50.2489 -0.139025Q49.6487 0.196669 48.8553 0.196669Q47.5464 0.196669 46.8682 -0.617133Q46.1901 -1.43094 46.1901 -2.9975ZM60.1196 -6.4426L60.1196 -10.5523L61.3675 -10.5523L61.3675 0L60.1196 0L60.1196 -1.13932Q59.7263 -0.461154 59.1261 -0.132243Q58.5259 0.196669 57.685 0.196669Q56.3083 0.196669 55.4437 -0.901964Q54.579 -2.0006 54.579 -3.79096Q54.579 -5.58133 55.4437 -6.67996Q56.3083 -7.77859 57.685 -7.77859Q58.5259 -7.77859 59.1261 -7.44968Q59.7263 -7.12077 60.1196 -6.4426ZM55.8675 -3.79096Q55.8675 -2.41428 56.4338 -1.631Q57.0001 -0.847711 57.9902 -0.847711Q58.9803 -0.847711 59.55 -1.631Q60.1196 -2.41428 60.1196 -3.79096Q60.1196 -5.16764 59.55 -5.95093Q58.9803 -6.73421 57.9902 -6.73421Q57.0001 -6.73421 56.4338 -5.95093Q55.8675 -5.16764 55.8675 -3.79096ZM70.4346 -4.1097L70.4346 -3.49935L64.6973 -3.49935Q64.7787 -2.21083 65.4738 -1.53605Q66.1689 -0.861274 67.41 -0.861274Q68.1288 -0.861274 68.8036 -1.0376Q69.4784 -1.21392 70.143 -1.56657L70.143 -0.386556Q69.4716 -0.101725 68.7663 0.0474718Q68.061 0.196669 67.3354 0.196669Q65.5179 0.196669 64.4565 -0.861274Q63.3952 -1.91922 63.3952 -3.72314Q63.3952 -5.58811 64.4023 -6.68335Q65.4093 -7.77859 67.1183 -7.77859Q68.651 -7.77859 69.5428 -6.79186Q70.4346 -5.80512 70.4346 -4.1097ZM69.1868 -4.47591Q69.1732 -5.49995 68.6137 -6.1103Q68.0542 -6.72065 67.1319 -6.72065Q66.0875 -6.72065 65.4602 -6.13064Q64.8329 -5.54064 64.738 -4.46913L69.1868 -4.47591Z" fill="#262626" transform="translate(34.298552619086365,303) rotate(-90) translate(-35.586891174316406,0)" />
</svg>
