<svg xmlns="http://www.w3.org/2000/svg" viewBox="0 0 800 600" width="800" height="600" style="width:100%;height:auto" role="img" aria-labelledby="chart-title">
<title id="chart-title">Violin Plot</title>
<rect x="0" y="0" width="800" height="600" fill="#FFFFFF" />
<path d="M0.0873481 -13.0411L3.46772 -13.0411L6.9267 -3.41531L10.377 -13.0411L13.7573 -13.0411L8.92698 0L4.9177 0L0.0873481 -13.0411ZM15.3471 -9.78299L18.4741 -9.78299L18.4741 0L15.3471 0L15.3471 -9.78299ZM15.3471 -13.5914L18.4741 -13.5914L18.4741 -11.0408L15.3471 -11.0408L15.3471 -13.5914ZM26.1346 -7.78271Q25.0951 -7.78271 24.5492 -7.03589Q24.0033 -6.28906 24.0033 -4.88276Q24.0033 -3.47645 24.5492 -2.72963Q25.0951 -1.9828 26.1346 -1.9828Q27.1565 -1.9828 27.6981 -2.72963Q28.2396 -3.47645 28.2396 -4.88276Q28.2396 -6.28906 27.6981 -7.03589Q27.1565 -7.78271 26.1346 -7.78271ZM26.1346 -10.0188Q28.6589 -10.0188 30.0783 -8.6562Q31.4977 -7.29357 31.4977 -4.88276Q31.4977 -2.47195 30.0783 -1.10932Q28.6589 0.253309 26.1346 0.253309Q23.6015 0.253309 22.1733 -1.10932Q20.7452 -2.47195 20.7452 -4.88276Q20.7452 -7.29357 22.1733 -8.6562Q23.6015 -10.0188 26.1346 -10.0188ZM33.7688 -13.5914L36.8958 -13.5914L36.8958 0L33.7688 0L33.7688 -13.5914ZM39.9006 -9.78299L43.0277 -9.78299L43.0277 0L39.9006 0L39.9006 -9.78299ZM39.9006 -13.5914L43.0277 -13.5914L43.0277 -11.0408L39.9006 -11.0408L39.9006 -13.5914ZM55.8678 -5.95714L55.8678 0L52.7233 0L52.7233 -0.969564L52.7233 -4.55957Q52.7233 -5.82612 52.6665 -6.30653Q52.6098 -6.78695 52.47 -7.01405Q52.2866 -7.31977 51.9721 -7.4901Q51.6577 -7.66043 51.2559 -7.66043Q50.2776 -7.66043 49.7185 -6.90487Q49.1595 -6.14931 49.1595 -4.81288L49.1595 0L46.0324 0L46.0324 -9.78299L49.1595 -9.78299L49.1595 -8.35048Q49.867 -9.20649 50.6619 -9.61266Q51.4568 -10.0188 52.4176 -10.0188Q54.1121 -10.0188 54.99 -8.97938Q55.8678 -7.93994 55.8678 -5.95714ZM65.1355 -13.0411L70.717 -13.0411Q73.2064 -13.0411 74.5385 -11.9361Q75.8706 -10.8312 75.8706 -8.78722Q75.8706 -6.73454 74.5385 -5.62958Q73.2064 -4.52463 70.717 -4.52463L68.4984 -4.52463L68.4984 0L65.1355 0L65.1355 -13.0411ZM68.4984 -10.6041L68.4984 -6.96164L70.3589 -6.96164Q71.3372 -6.96164 71.87 -7.43769Q72.4028 -7.91374 72.4028 -8.78722Q72.4028 -9.6607 71.87 -10.1324Q71.3372 -10.6041 70.3589 -10.6041L68.4984 -10.6041ZM78.1067 -13.5914L81.2337 -13.5914L81.2337 0L78.1067 0L78.1067 -13.5914ZM88.8942 -7.78271Q87.8547 -7.78271 87.3088 -7.03589Q86.7629 -6.28906 86.7629 -4.88276Q86.7629 -3.47645 87.3088 -2.72963Q87.8547 -1.9828 88.8942 -1.9828Q89.9161 -1.9828 90.4577 -2.72963Q90.9992 -3.47645 90.9992 -4.88276Q90.9992 -6.28906 90.4577 -7.03589Q89.9161 -7.78271 88.8942 -7.78271ZM88.8942 -10.0188Q91.4185 -10.0188 92.8379 -8.6562Q94.2573 -7.29357 94.2573 -4.88276Q94.2573 -2.47195 92.8379 -1.10932Q91.4185 0.253309 88.8942 0.253309Q86.3611 0.253309 84.9329 -1.10932Q83.5048 -2.47195 83.5048 -4.88276Q83.5048 -7.29357 84.9329 -8.6562Q86.3611 -10.0188 88.8942 -10.0188ZM99.9437 -12.5607L99.9437 -9.78299L103.167 -9.78299L103.167 -7.54688L99.9437 -7.54688L99.9437 -3.39784Q99.9437 -2.71653 100.214 -2.47632Q100.485 -2.23611 101.289 -2.23611L102.896 -2.23611L102.896 0L100.214 0Q98.3627 0 97.5897 -0.773031Q96.8166 -1.54606 96.8166 -3.39784L96.8166 -7.54688L95.2618 -7.54688L95.2618 -9.78299L96.8166 -9.78299L96.8166 -12.5607L99.9437 -12.5607Z" fill="#262626" transform="translate(400,24.099999999999998) translate(-51.7886848449707,0)" />
<rect x="100" y="72" width="620" height="462" fill="#FFFFFF" />
<line x1="128.18181818181822" y1="533.6" x2="128.18181818181822" y2="538.8611111111111" stroke="#262626" stroke-width="1.1111111111111112" />
<path d="M0.678168 -4.36062L4.3335 -4.36062L4.3335 -3.24843L0.678168 -3.24843L0.678168 -4.36062ZM6.73421 -1.15289L8.97217 -1.15289L8.97217 -8.87722L6.53754 -8.38894L6.53754 -9.63677L8.9586 -10.1251L10.3285 -10.1251L10.3285 -1.15289L12.5665 -1.15289L12.5665 0L6.73421 0L6.73421 -1.15289ZM15.3334 -1.72255L16.7643 -1.72255L16.7643 0L15.3334 0L15.3334 -1.72255ZM22.678 -9.22309Q21.62 -9.22309 21.0876 -8.1821Q20.5553 -7.14111 20.5553 -5.05235Q20.5553 -2.97038 21.0876 -1.92939Q21.62 -0.888401 22.678 -0.888401Q23.7427 -0.888401 24.275 -1.92939Q24.8074 -2.97038 24.8074 -5.05235Q24.8074 -7.14111 24.275 -8.1821Q23.7427 -9.22309 22.678 -9.22309ZM22.678 -10.3082Q24.3802 -10.3082 25.2787 -8.962Q26.1773 -7.61583 26.1773 -5.05235Q26.1773 -2.49566 25.2787 -1.1495Q24.3802 0.196669 22.678 0.196669Q20.9757 0.196669 20.0772 -1.1495Q19.1786 -2.49566 19.1786 -5.05235Q19.1786 -7.61583 20.0772 -8.962Q20.9757 -10.3082 22.678 -10.3082Z" fill="#262626" transform="translate(128.18181818181822,557.6111111111111) translate(-13.549805641174316,0)" />
<line x1="198.63636363636368" y1="533.6" x2="198.63636363636368" y2="538.8611111111111" stroke="#262626" stroke-width="1.1111111111111112" />
<path d="M0.678168 -4.36062L4.3335 -4.36062L4.3335 -3.24843L0.678168 -3.24843L0.678168 -4.36062ZM9.42654 -9.22309Q8.3686 -9.22309 7.83624 -8.1821Q7.30387 -7.14111 7.30387 -5.05235Q7.30387 -2.97038 7.83624 -1.92939Q8.3686 -0.888401 9.42654 -0.888401Q10.4913 -0.888401 11.0236 -1.92939Q11.556 -2.97038 11.556 -5.05235Q11.556 -7.14111 11.0236 -8.1821Q10.4913 -9.22309 9.42654 -9.22309ZM9.42654 -10.3082Q11.1287 -10.3082 12.0273 -8.962Q12.9259 -7.61583 12.9259 -5.05235Q12.9259 -2.49566 12.0273 -1.1495Q11.1287 0.196669 9.42654 0.196669Q7.72434 0.196669 6.82577 -1.1495Q5.92719 -2.49566 5.92719 -5.05235Q5.92719 -7.61583 6.82577 -8.962Q7.72434 -10.3082 9.42654 -10.3082ZM15.3334 -1.72255L16.7643 -1.72255L16.7643 0L15.3334 0L15.3334 -1.72255ZM19.7618 -10.1251L25.1397 -10.1251L25.1397 -8.97217L21.0164 -8.97217L21.0164 -6.49007Q21.3148 -6.5918 21.6132 -6.64266Q21.9116 -6.69352 22.21 -6.69352Q23.9054 -6.69352 24.8956 -5.76443Q25.8857 -4.83534 25.8857 -3.24843Q25.8857 -1.61404 24.8684 -0.708686Q23.8512 0.196669 21.9998 0.196669Q21.3623 0.196669 20.7011 0.0881619C20.2603 0.0158239 19.8048 -0.092683 19.3346 -0.237359L19.3346 -1.61404Q19.9449 -1.28174 20.596 -1.11898Q21.247 -0.956217 21.9727 -0.956217Q23.1459 -0.956217 23.8308 -1.57335Q24.5158 -2.19048 24.5158 -3.24843Q24.5158 -4.30637 23.8308 -4.9235Q23.1459 -5.54064 21.9727 -5.54064Q21.4233 -5.54064 20.8774 -5.41857Q20.3315 -5.2965 19.7618 -5.03879L19.7618 -10.1251Z" fill="#262626" transform="translate(198.63636363636368,557.6111111111111) translate(-13.549805641174316,0)" />
<line x1="269.0909090909091" y1="533.6" x2="269.0909090909091" y2="538.8611111111111" stroke="#262626" stroke-width="1.1111111111111112" />
<path d="M4.41488 -9.22309Q3.35693 -9.22309 2.82457 -8.1821Q2.29221 -7.14111 2.29221 -5.05235Q2.29221 -2.97038 2.82457 -1.92939Q3.35693 -0.888401 4.41488 -0.888401Q5.4796 -0.888401 6.01196 -1.92939Q6.54433 -2.97038 6.54433 -5.05235Q6.54433 -7.14111 6.01196 -8.1821Q5.4796 -9.22309 4.41488 -9.22309ZM4.41488 -10.3082Q6.11708 -10.3082 7.01565 -8.962Q7.91422 -7.61583 7.91423 -5.05235Q7.91423 -2.49566 7.01565 -1.1495Q6.11708 0.196669 4.41488 0.196669Q2.71267 0.196669 1.8141 -1.1495Q0.915527 -2.49566 0.915527 -5.05235Q0.915527 -7.61583 1.8141 -8.962Q2.71267 -10.3082 4.41488 -10.3082ZM10.3217 -1.72255L11.7527 -1.72255L11.7527 0L10.3217 0L10.3217 -1.72255ZM17.6663 -9.22309Q16.6083 -9.22309 16.076 -8.1821Q15.5436 -7.14111 15.5436 -5.05235Q15.5436 -2.97038 16.076 -1.92939Q16.6083 -0.888401 17.6663 -0.888401Q18.731 -0.888401 19.2634 -1.92939Q19.7957 -2.97038 19.7957 -5.05235Q19.7957 -7.14111 19.2634 -8.1821Q18.731 -9.22309 17.6663 -9.22309ZM17.6663 -10.3082Q19.3685 -10.3082 20.2671 -8.962Q21.1656 -7.61583 21.1656 -5.05235Q21.1656 -2.49566 20.2671 -1.1495Q19.3685 0.196669 17.6663 0.196669Q15.9641 0.196669 15.0655 -1.1495Q14.1669 -2.49566 14.1669 -5.05235Q14.1669 -7.61583 15.0655 -8.962Q15.9641 -10.3082 17.6663 -10.3082Z" fill="#262626" transform="translate(269.0909090909091,557.6111111111111) translate(-11.043972969055176,0)" />
<line x1="339.54545454545456" y1="533.6" x2="339.54545454545456" y2="538.8611111111111" stroke="#262626" stroke-width="1.1111111111111112" />
<path d="M4.41488 -9.22309Q3.35693 -9.22309 2.82457 -8.1821Q2.29221 -7.14111 2.29221 -5.05235Q2.29221 -2.97038 2.82457 -1.92939Q3.35693 -0.888401 4.41488 -0.888401Q5.4796 -0.888401 6.01196 -1.92939Q6.54433 -2.97038 6.54433 -5.05235Q6.54433 -7.14111 6.01196 -8.1821Q5.4796 -9.22309 4.41488 -9.22309ZM4.41488 -10.3082Q6.11708 -10.3082 7.01565 -8.962Q7.91422 -7.61583 7.91423 -5.05235Q7.91423 -2.49566 7.01565 -1.1495Q6.11708 0.196669 4.41488 0.196669Q2.71267 0.196669 1.8141 -1.1495Q0.915527 -2.49566 0.915527 -5.05235Q0.915527 -7.61583 1.8141 -8.962Q2.71267 -10.3082 4.41488 -10.3082ZM10.3217 -1.72255L11.7527 -1.72255L11.7527 0L10.3217 0L10.3217 -1.72255ZM14.7502 -10.1251L20.128 -10.1251L20.128 -8.97217L16.0048 -8.97217L16.0048 -6.49007Q16.3032 -6.5918 16.6016 -6.64266Q16.9 -6.69352 17.1984 -6.69352Q18.8938 -6.69352 19.8839 -5.76443Q20.874 -4.83534 20.874 -3.24843Q20.874 -1.61404 19.8568 -0.708686Q18.8395 0.196669 16.9881 0.196669Q16.3506 0.196669 15.6894 0.0881619C15.2486 0.0158239 14.7931 -0.092683 14.3229 -0.237359L14.3229 -1.61404Q14.9333 -1.28174 15.5843 -1.11898Q16.2354 -0.956217 16.961 -0.956217Q18.1342 -0.956217 18.8192 -1.57335Q19.5041 -2.19048 19.5041 -3.24843Q19.5041 -4.30637 18.8192 -4.9235Q18.1342 -5.54064 16.961 -5.54064Q16.4117 -5.54064 15.8658 -5.41857Q15.3198 -5.2965 14.7502 -5.03879L14.7502 -10.1251Z" fill="#262626" transform="translate(339.54545454545456,557.6111111111111) translate(-11.043972969055176,0)" />
<line x1="410" y1="533.6" x2="410" y2="538.8611111111111" stroke="#262626" stroke-width="1.1111111111111112" />
<path d="M1.72255 -1.15289L3.9605 -1.15289L3.9605 -8.87722L1.52588 -8.38894L1.52588 -9.63677L3.94694 -10.1251L5.31684 -10.1251L5.31684 -1.15289L7.5548 -1.15289L7.5548 0L1.72255 0L1.72255 -1.15289ZM10.3217 -1.72255L11.7527 -1.72255L11.7527 0L10.3217 0L10.3217 -1.72255ZM17.6663 -9.22309Q16.6083 -9.22309 16.076 -8.1821Q15.5436 -7.14111 15.5436 -5.05235Q15.5436 -2.97038 16.076 -1.92939Q16.6083 -0.888401 17.6663 -0.888401Q18.731 -0.888401 19.2634 -1.92939Q19.7957 -2.97038 19.7957 -5.05235Q19.7957 -7.14111 19.2634 -8.1821Q18.731 -9.22309 17.6663 -9.22309ZM17.6663 -10.3082Q19.3685 -10.3082 20.2671 -8.962Q21.1656 -7.61583 21.1656 -5.05235Q21.1656 -2.49566 20.2671 -1.1495Q19.3685 0.196669 17.6663 0.196669Q15.9641 0.196669 15.0655 -1.1495Q14.1669 -2.49566 14.1669 -5.05235Q14.1669 -7.61583 15.0655 -8.962Q15.9641 -10.3082 17.6663 -10.3082Z" fill="#262626" transform="translate(410,557.6111111111111) translate(-11.043972969055176,0)" />
<line x1="480.4545454545455" y1="533.6" x2="480.4545454545455" y2="538.8611111111111" stroke="#262626" stroke-width="1.1111111111111112" />
<path d="M1.72255 -1.15289L3.9605 -1.15289L3.9605 -8.87722L1.52588 -8.38894L1.52588 -9.63677L3.94694 -10.1251L5.31684 -10.1251L5.31684 -1.15289L7.5548 -1.15289L7.5548 0L1.72255 0L1.72255 -1.15289ZM10.3217 -1.72255L11.7527 -1.72255L11.7527 0L10.3217 0L10.3217 -1.72255ZM14.7502 -10.1251L20.128 -10.1251L20.128 -8.97217L16.0048 -8.97217L16.0048 -6.49007Q16.3032 -6.5918 16.6016 -6.64266Q16.9 -6.69352 17.1984 -6.69352Q18.8938 -6.69352 19.8839 -5.76443Q20.874 -4.83534 20.874 -3.24843Q20.874 -1.61404 19.8568 -0.708686Q18.8395 0.196669 16.9881 0.196669Q16.3506 0.196669 15.6894 0.0881619C15.2486 0.0158239 14.7931 -0.092683 14.3229 -0.237359L14.3229 -1.61404Q14.9333 -1.28174 15.5843 -1.11898Q16.2354 -0.956217 16.961 -0.956217Q18.1342 -0.956217 18.8192 -1.57335Q19.5041 -2.19048 19.5041 -3.24843Q19.5041 -4.30637 18.8192 -4.9235Q18.1342 -5.54064 16.961 -5.54064Q16.4117 -5.54064 15.8658 -5.41857Q15.3198 -5.2965 14.7502 -5.03879L14.7502 -10.1251Z" fill="#262626" transform="translate(480.4545454545455,557.6111111111111) translate(-11.043972969055176,0)" />
<line x1="550.909090909091" y1="533.6" x2="550.909090909091" y2="538.8611111111111" stroke="#262626" stroke-width="1.1111111111111112" />
<path d="M2.6652 -1.15289L7.44629 -1.15289L7.44629 0L1.01725 0L1.01725 -1.15289Q1.79715 -1.95991 3.14331 -3.31963Q4.48947 -4.67936 4.83534 -5.0727Q5.49316 -5.8119 5.75426 -6.32392Q6.01535 -6.83594 6.01535 -7.331Q6.01535 -8.13802 5.44908 -8.64665Q4.88281 -9.15527 3.97407 -9.15527Q3.32981 -9.15527 2.61434 -8.93148Q1.89887 -8.70768 1.08507 -8.25331L1.08507 -9.63677Q1.91243 -9.96908 2.63129 -10.1386Q3.35015 -10.3082 3.94694 -10.3082Q5.52029 -10.3082 6.45616 -9.52148Q7.39204 -8.73481 7.39204 -7.41916Q7.39204 -6.79525 7.15807 -6.23576Q6.9241 -5.67627 6.30697 -4.91672Q6.13742 -4.72005 5.22868 -3.78079Q4.31993 -2.84153 2.6652 -1.15289ZM10.3217 -1.72255L11.7527 -1.72255L11.7527 0L10.3217 0L10.3217 -1.72255ZM17.6663 -9.22309Q16.6083 -9.22309 16.076 -8.1821Q15.5436 -7.14111 15.5436 -5.05235Q15.5436 -2.97038 16.076 -1.92939Q16.6083 -0.888401 17.6663 -0.888401Q18.731 -0.888401 19.2634 -1.92939Q19.7957 -2.97038 19.7957 -5.05235Q19.7957 -7.14111 19.2634 -8.1821Q18.731 -9.22309 17.6663 -9.22309ZM17.6663 -10.3082Q19.3685 -10.3082 20.2671 -8.962Q21.1656 -7.61583 21.1656 -5.05235Q21.1656 -2.49566 20.2671 -1.1495Q19.3685 0.196669 17.6663 0.196669Q15.9641 0.196669 15.0655 -1.1495Q14.1669 -2.49566 14.1669 -5.05235Q14.1669 -7.61583 15.0655 -8.962Q15.9641 -10.3082 17.6663 -10.3082Z" fill="#262626" transform="translate(550.909090909091,557.6111111111111) translate(-11.043972969055176,0)" />
<line x1="621.3636363636364" y1="533.6" x2="621.3636363636364" y2="538.8611111111111" stroke="#262626" stroke-width="1.1111111111111112" />
<path d="M2.6652 -1.15289L7.44629 -1.15289L7.44629 0L1.01725 0L1.01725 -1.15289Q1.79715 -1.95991 3.14331 -3.31963Q4.48947 -4.67936 4.83534 -5.0727Q5.49316 -5.8119 5.75426 -6.32392Q6.01535 -6.83594 6.01535 -7.331Q6.01535 -8.13802 5.44908 -8.64665Q4.88281 -9.15527 3.97407 -9.15527Q3.32981 -9.15527 2.61434 -8.93148Q1.89887 -8.70768 1.08507 -8.25331L1.08507 -9.63677Q1.91243 -9.96908 2.63129 -10.1386Q3.35015 -10.3082 3.94694 -10.3082Q5.52029 -10.3082 6.45616 -9.52148Q7.39204 -8.73481 7.39204 -7.41916Q7.39204 -6.79525 7.15807 -6.23576Q6.9241 -5.67627 6.30697 -4.91672Q6.13742 -4.72005 5.22868 -3.78079Q4.31993 -2.84153 2.6652 -1.15289ZM10.3217 -1.72255L11.7527 -1.72255L11.7527 0L10.3217 0L10.3217 -1.72255ZM14.7502 -10.1251L20.128 -10.1251L20.128 -8.97217L16.0048 -8.97217L16.0048 -6.49007Q16.3032 -6.5918 16.6016 -6.64266Q16.9 -6.69352 17.1984 -6.69352Q18.8938 -6.69352 19.8839 -5.76443Q20.874 -4.83534 20.874 -3.24843Q20.874 -1.61404 19.8568 -0.708686Q18.8395 0.196669 16.9881 0.196669Q16.3506 0.196669 15.6894 0.0881619C15.2486 0.0158239 14.7931 -0.092683 14.3229 -0.237359L14.3229 -1.61404Q14.9333 -1.28174 15.5843 -1.11898Q16.2354 -0.956217 16.961 -0.956217Q18.1342 -0.956217 18.8192 -1.57335Q19.5041 -2.19048 19.5041 -3.24843Q19.5041 -4.30637 18.8192 -4.9235Q18.1342 -5.54064 16.961 -5.54064Q16.4117 -5.54064 15.8658 -5.41857Q15.3198 -5.2965 14.7502 -5.03879L14.7502 -10.1251Z" fill="#262626" transform="translate(621.3636363636364,557.6111111111111) translate(-11.043972969055176,0)" />
<line x1="691.8181818181819" y1="533.6" x2="691.8181818181819" y2="538.8611111111111" stroke="#262626" stroke-width="1.1111111111111112" />
<path d="M5.63558 -5.45926Q6.61892 -5.24902 7.17163 -4.58442Q7.72434 -3.91981 7.72434 -2.94325Q7.72434 -1.4445 6.69352 -0.623915Q5.66271 0.196669 3.76383 0.196669Q3.12636 0.196669 2.45158 0.0712077Q1.7768 -0.0542535 1.05794 -0.305176L1.05794 -1.6276Q1.6276 -1.2953 2.30577 -1.12576Q2.98394 -0.956217 3.72314 -0.956217Q5.01166 -0.956217 5.68644 -1.46484Q6.36122 -1.97347 6.36122 -2.94325Q6.36122 -3.83843 5.73391 -4.34367Q5.10661 -4.8489 3.98763 -4.8489L2.80762 -4.8489L2.80762 -5.97466L4.04188 -5.97466Q5.05235 -5.97466 5.58811 -6.37817Q6.12386 -6.78168 6.12386 -7.54123Q6.12386 -8.32113 5.57115 -8.7382Q5.01845 -9.15527 3.98763 -9.15527Q3.42475 -9.15527 2.78049 -9.0332Q2.13623 -8.91113 1.36312 -8.65343L1.36312 -9.87413Q2.14301 -10.0911 2.82457 -10.1997Q3.50613 -10.3082 4.1097 -10.3082Q5.66949 -10.3082 6.57823 -9.59947Q7.48698 -8.89079 7.48698 -7.68365Q7.48698 -6.84272 7.00548 -6.26289Q6.52398 -5.68305 5.63558 -5.45926ZM10.3217 -1.72255L11.7527 -1.72255L11.7527 0L10.3217 0L10.3217 -1.72255ZM17.6663 -9.22309Q16.6083 -9.22309 16.076 -8.1821Q15.5436 -7.14111 15.5436 -5.05235Q15.5436 -2.97038 16.076 -1.92939Q16.6083 -0.888401 17.6663 -0.888401Q18.731 -0.888401 19.2634 -1.92939Q19.7957 -2.97038 19.7957 -5.05235Q19.7957 -7.14111 19.2634 -8.1821Q18.731 -9.22309 17.6663 -9.22309ZM17.6663 -10.3082Q19.3685 -10.3082 20.2671 -8.962Q21.1656 -7.61583 21.1656 -5.05235Q21.1656 -2.49566 20.2671 -1.1495Q19.3685 0.196669 17.6663 0.196669Q15.9641 0.196669 15.0655 -1.1495Q14.1669 -2.49566 14.1669 -5.05235Q14.1669 -7.61583 15.0655 -8.962Q15.9641 -10.3082 17.6663 -10.3082Z" fill="#262626" transform="translate(691.8181818181819,557.6111111111111) translate(-11.043972969055176,0)" />
<line x1="95.13888888888889" y1="518.6" x2="100.4" y2="518.6" stroke="#262626" stroke-width="1.1111111111111112" />
<path d="M0.678168 -4.36062L4.3335 -4.36062L4.3335 -3.24843L0.678168 -3.24843L0.678168 -4.36062ZM7.67687 -1.15289L12.458 -1.15289L12.458 0L6.02892 0L6.02892 -1.15289Q6.80881 -1.95991 8.15498 -3.31963Q9.50114 -4.67936 9.84701 -5.0727Q10.5048 -5.8119 10.7659 -6.32392Q11.027 -6.83594 11.027 -7.331Q11.027 -8.13802 10.4607 -8.64665Q9.89448 -9.15527 8.98573 -9.15527Q8.34147 -9.15527 7.626 -8.93148Q6.91054 -8.70768 6.09673 -8.25331L6.09673 -9.63677Q6.9241 -9.96908 7.64296 -10.1386Q8.36182 -10.3082 8.9586 -10.3082Q10.532 -10.3082 11.4678 -9.52148Q12.4037 -8.73481 12.4037 -7.41916Q12.4037 -6.79525 12.1697 -6.23576Q11.9358 -5.67627 11.3186 -4.91672Q11.1491 -4.72005 10.2403 -3.78079Q9.3316 -2.84153 7.67687 -1.15289Z" fill="#262626" transform="translate(90.27777777777777,522.6) translate(-13.848199844360352,0)" />
<line x1="95.13888888888889" y1="457" x2="100.4" y2="457" stroke="#262626" stroke-width="1.1111111111111112" />
<path d="M4.41488 -9.22309Q3.35693 -9.22309 2.82457 -8.1821Q2.29221 -7.14111 2.29221 -5.05235Q2.29221 -2.97038 2.82457 -1.92939Q3.35693 -0.888401 4.41488 -0.888401Q5.4796 -0.888401 6.01196 -1.92939Q6.54433 -2.97038 6.54433 -5.05235Q6.54433 -7.14111 6.01196 -8.1821Q5.4796 -9.22309 4.41488 -9.22309ZM4.41488 -10.3082Q6.11708 -10.3082 7.01565 -8.962Q7.91422 -7.61583 7.91423 -5.05235Q7.91423 -2.49566 7.01565 -1.1495Q6.11708 0.196669 4.41488 0.196669Q2.71267 0.196669 1.8141 -1.1495Q0.915527 -2.49566 0.915527 -5.05235Q0.915527 -7.61583 1.8141 -8.962Q2.71267 -10.3082 4.41488 -10.3082Z" fill="#262626" transform="translate(90.27777777777777,461) translate(-8.83653450012207,0)" />
<line x1="95.13888888888889" y1="395.4" x2="100.4" y2="395.4" stroke="#262626" stroke-width="1.1111111111111112" />
<path d="M2.6652 -1.15289L7.44629 -1.15289L7.44629 0L1.01725 0L1.01725 -1.15289Q1.79715 -1.95991 3.14331 -3.31963Q4.48947 -4.67936 4.83534 -5.0727Q5.49316 -5.8119 5.75426 -6.32392Q6.01535 -6.83594 6.01535 -7.331Q6.01535 -8.13802 5.44908 -8.64665Q4.88281 -9.15527 3.97407 -9.15527Q3.32981 -9.15527 2.61434 -8.93148Q1.89887 -8.70768 1.08507 -8.25331L1.08507 -9.63677Q1.91243 -9.96908 2.63129 -10.1386Q3.35015 -10.3082 3.94694 -10.3082Q5.52029 -10.3082 6.45616 -9.52148Q7.39204 -8.73481 7.39204 -7.41916Q7.39204 -6.79525 7.15807 -6.23576Q6.9241 -5.67627 6.30697 -4.91672Q6.13742 -4.72005 5.22868 -3.78079Q4.31993 -2.84153 2.6652 -1.15289Z" fill="#262626" transform="translate(90.27777777777777,399.4) translate(-8.83653450012207,0)" />
<line x1="95.13888888888889" y1="333.8" x2="100.4" y2="333.8" stroke="#262626" stroke-width="1.1111111111111112" />
<path d="M5.24902 -8.93148L1.79036 -3.52648L5.24902 -3.52648L5.24902 -8.93148ZM4.88959 -10.1251L6.61214 -10.1251L6.61214 -3.52648L8.05664 -3.52648L8.05664 -2.38715L6.61214 -2.38715L6.61214 0L5.24902 0L5.24902 -2.38715L0.678168 -2.38715L0.678168 -3.70958L4.88959 -10.1251Z" fill="#262626" transform="translate(90.27777777777777,337.8) translate(-8.83653450012207,0)" />
<line x1="95.13888888888889" y1="272.2" x2="100.4" y2="272.2" stroke="#262626" stroke-width="1.1111111111111112" />
<path d="M4.58442 -5.60845Q3.66211 -5.60845 3.12297 -4.97776Q2.58382 -4.34706 2.58382 -3.24843Q2.58382 -2.15658 3.12297 -1.52249Q3.66211 -0.888401 4.58442 -0.888401Q5.50673 -0.888401 6.04587 -1.52249Q6.58502 -2.15658 6.58502 -3.24843Q6.58502 -4.34706 6.04587 -4.97776Q5.50673 -5.60845 4.58442 -5.60845ZM7.30387 -9.90126L7.30387 -8.65343Q6.78847 -8.89757 6.26289 -9.02642Q5.7373 -9.15527 5.2219 -9.15527Q3.86556 -9.15527 3.15009 -8.23975Q2.43462 -7.32422 2.3329 -5.47282Q2.73302 -6.06282 3.33659 -6.37817Q3.94016 -6.69352 4.6658 -6.69352Q6.19168 -6.69352 7.07669 -5.76782Q7.9617 -4.84212 7.9617 -3.24843Q7.9617 -1.68864 7.03939 -0.745985Q6.11708 0.196669 4.58442 0.196669Q2.82796 0.196669 1.89887 -1.1495Q0.969781 -2.49566 0.969781 -5.05235Q0.969781 -7.45307 2.1091 -8.88062Q3.24843 -10.3082 5.16764 -10.3082Q5.68305 -10.3082 6.20863 -10.2064Q6.73421 -10.1047 7.30387 -9.90126Z" fill="#262626" transform="translate(90.27777777777777,276.2) translate(-8.83653450012207,0)" />
<line x1="95.13888888888889" y1="210.6" x2="100.4" y2="210.6" stroke="#262626" stroke-width="1.1111111111111112" />
<path d="M4.41488 -4.80821Q3.43831 -4.80821 2.87882 -4.28602Q2.31934 -3.76383 2.31934 -2.84831Q2.31934 -1.93278 2.87882 -1.41059Q3.43831 -0.888401 4.41488 -0.888401Q5.39144 -0.888401 5.95432 -1.41398Q6.5172 -1.93956 6.5172 -2.84831Q6.5172 -3.76383 5.95771 -4.28602Q5.39822 -4.80821 4.41488 -4.80821ZM3.04498 -5.39144Q2.16336 -5.60845 1.67169 -6.21202Q1.18001 -6.81559 1.18001 -7.68365Q1.18001 -8.89757 2.04468 -9.60287Q2.90934 -10.3082 4.41488 -10.3082Q5.92719 -10.3082 6.78847 -9.60287Q7.64974 -8.89757 7.64974 -7.68365Q7.64974 -6.81559 7.15807 -6.21202Q6.6664 -5.60845 5.79156 -5.39144Q6.78168 -5.16086 7.33439 -4.48947Q7.8871 -3.81809 7.8871 -2.84831Q7.8871 -1.37668 6.98853 -0.590007Q6.08995 0.196669 4.41488 0.196669Q2.7398 0.196669 1.84123 -0.590007Q0.942654 -1.37668 0.942654 -2.84831Q0.942654 -3.81809 1.49875 -4.48947Q2.05485 -5.16086 3.04498 -5.39144ZM2.54313 -7.5548Q2.54313 -6.76812 3.0348 -6.32731Q3.52648 -5.8865 4.41488 -5.8865Q5.29649 -5.8865 5.79495 -6.32731Q6.2934 -6.76812 6.2934 -7.5548Q6.2934 -8.34147 5.79495 -8.78228Q5.2965 -9.22309 4.41488 -9.22309Q3.52648 -9.22309 3.0348 -8.78228Q2.54313 -8.34147 2.54313 -7.5548Z" fill="#262626" transform="translate(90.27777777777777,214.6) translate(-8.83653450012207,0)" />
<line x1="95.13888888888889" y1="149" x2="100.4" y2="149" stroke="#262626" stroke-width="1.1111111111111112" />
<path d="M1.72255 -1.15289L3.9605 -1.15289L3.9605 -8.87722L1.52588 -8.38894L1.52588 -9.63677L3.94694 -10.1251L5.31684 -10.1251L5.31684 -1.15289L7.5548 -1.15289L7.5548 0L1.72255 0L1.72255 -1.15289ZM13.2514 -9.22309Q12.1935 -9.22309 11.6611 -8.1821Q11.1287 -7.14111 11.1287 -5.05235Q11.1287 -2.97038 11.6611 -1.92939Q12.1935 -0.888401 13.2514 -0.888401Q14.3161 -0.888401 14.8485 -1.92939Q15.3809 -2.97038 15.3809 -5.05235Q15.3809 -7.14111 14.8485 -8.1821Q14.3161 -9.22309 13.2514 -9.22309ZM13.2514 -10.3082Q14.9536 -10.3082 15.8522 -8.962Q16.7508 -7.61583 16.7508 -5.05235Q16.7508 -2.49566 15.8522 -1.1495Q14.9536 0.196669 13.2514 0.196669Q11.5492 0.196669 10.6506 -1.1495Q9.75206 -2.49566 9.75206 -5.05235Q9.75206 -7.61583 10.6506 -8.962Q11.5492 -10.3082 13.2514 -10.3082Z" fill="#262626" transform="translate(90.27777777777777,153) translate(-17.67306900024414,0)" />
<line x1="95.13888888888889" y1="87.39999999999998" x2="100.4" y2="87.39999999999998" stroke="#262626" stroke-width="1.1111111111111112" />
<path d="M1.72255 -1.15289L3.9605 -1.15289L3.9605 -8.87722L1.52588 -8.38894L1.52588 -9.63677L3.94694 -10.1251L5.31684 -10.1251L5.31684 -1.15289L7.5548 -1.15289L7.5548 0L1.72255 0L1.72255 -1.15289ZM11.5017 -1.15289L16.2828 -1.15289L16.2828 0L9.85379 0L9.85379 -1.15289Q10.6337 -1.95991 11.9798 -3.31963Q13.326 -4.67936 13.6719 -5.0727Q14.3297 -5.8119 14.5908 -6.32392Q14.8519 -6.83594 14.8519 -7.331Q14.8519 -8.13802 14.2856 -8.64665Q13.7193 -9.15527 12.8106 -9.15527Q12.1663 -9.15527 11.4509 -8.93148Q10.7354 -8.70768 9.9216 -8.25331L9.9216 -9.63677Q10.749 -9.96908 11.4678 -10.1386Q12.1867 -10.3082 12.7835 -10.3082Q14.3568 -10.3082 15.2927 -9.52148Q16.2286 -8.73481 16.2286 -7.41916Q16.2286 -6.79525 15.9946 -6.23576Q15.7606 -5.67627 15.1435 -4.91672Q14.974 -4.72005 14.0652 -3.78079Q13.1565 -2.84153 11.5017 -1.15289Z" fill="#262626" transform="translate(90.27777777777777,91.39999999999998) translate(-17.67306900024414,0)" />
<polygon points="260.8712121212121,450.0176971224219 253.82575757575762,435.44396524012274 259.69696969696975,420.87023335782357 264.39393939393943,406.2965014755244 264.39393939393943,391.7227695932252 260.8712121212121,377.14903771092605 259.69696969696975,362.5753058286269 263.219696969697,348.0015739463277 266.74242424242425,333.42784206402854 266.74242424242425,318.85411018172937 264.39393939393943,304.2803782994302 264.39393939393943,289.706646417131 263.219696969697,275.1329145348318 263.219696969697,260.5591826525326 265.56818181818187,245.98545077023348 263.219696969697,231.41171888793428 260.8712121212121,216.83798700563514 264.39393939393943,202.26425512333597 262.04545454545456,187.69052324103677 256.17424242424244,173.11679135873766 262.04545454545456,158.54305947643843 276.1363636363637,158.54305947643843 282.0075757575758,173.11679135873766 276.1363636363637,187.69052324103677 273.7878787878788,202.26425512333597 277.3106060606061,216.83798700563514 274.96212121212125,231.41171888793428 272.6136363636364,245.98545077023348 274.96212121212125,260.5591826525326 274.96212121212125,275.1329145348318 273.7878787878788,289.706646417131 273.7878787878788,304.2803782994302 271.439393939394,318.85411018172937 271.439393939394,333.42784206402854 274.96212121212125,348.0015739463277 278.4848484848485,362.5753058286269 277.3106060606061,377.14903771092605 273.7878787878788,391.7227695932252 273.7878787878788,406.2965014755244 278.4848484848485,420.87023335782357 284.3560606060606,435.44396524012274 277.3106060606061,450.0176971224219" fill="#663399" fill-opacity="0.6" stroke="#663399" stroke-width="1" />
<line x1="269.0909090909091" y1="450.0176971224219" x2="269.0909090909091" y2="158.54305947643843" stroke="#663399" stroke-width="1.5" />
<line x1="247.9545454545455" y1="450.0176971224219" x2="290.22727272727275" y2="450.0176971224219" stroke="#663399" stroke-width="1.5" />
<line x1="247.9545454545455" y1="158.54305947643843" x2="290.22727272727275" y2="158.54305947643843" stroke="#663399" stroke-width="1.5" />
<polygon points="405.30303030303037,393.33501654022143 402.9545454545455,381.52412110509545 405.30303030303037,369.71322566996946 405.30303030303037,357.9023302348435 405.30303030303037,346.0914347997175 404.1287878787879,334.2805393645915 402.9545454545455,322.4696439294655 405.30303030303037,310.65874849433953 404.1287878787879,298.84785305921355 404.1287878787879,287.03695762408756 406.47727272727275,275.2260621889616 404.1287878787879,263.4151667538356 404.1287878787879,251.60427131870958 399.43181818181824,239.79337588358362 399.43181818181824,227.98248044845764 401.78030303030306,216.17158501333162 401.78030303030306,204.3606895782057 402.9545454545455,192.54979414307968 399.43181818181824,180.73889870795364 400.6060606060606,168.92800327282777 405.30303030303037,157.11710783770172 414.69696969696975,157.11710783770172 419.39393939393943,168.92800327282777 420.56818181818187,180.73889870795364 417.0454545454546,192.54979414307968 418.219696969697,204.3606895782057 418.219696969697,216.17158501333162 420.56818181818187,227.98248044845764 420.56818181818187,239.79337588358362 415.8712121212121,251.60427131870958 415.8712121212121,263.4151667538356 413.52272727272725,275.2260621889616 415.8712121212121,287.03695762408756 415.8712121212121,298.84785305921355 414.69696969696975,310.65874849433953 417.0454545454546,322.4696439294655 415.8712121212121,334.2805393645915 414.69696969696975,346.0914347997175 414.69696969696975,357.9023302348435 414.69696969696975,369.71322566996946 417.0454545454546,381.52412110509545 414.69696969696975,393.33501654022143" fill="#663399" fill-opacity="0.6" stroke="#663399" stroke-width="1" />
<line x1="410" y1="393.33501654022143" x2="410" y2="157.11710783770172" stroke="#663399" stroke-width="1.5" />
<line x1="388.8636363636364" y1="393.33501654022143" x2="431.1363636363636" y2="393.33501654022143" stroke="#663399" stroke-width="1.5" />
<line x1="388.8636363636364" y1="157.11710783770172" x2="431.1363636363636" y2="157.11710783770172" stroke="#663399" stroke-width="1.5" />
<polygon points="547.3863636363637,483.70163815128694 545.0378787878788,465.62213720525716 545.0378787878788,447.5426362592274 545.0378787878788,429.46313531319754 543.8636363636364,411.38363436716776 541.5151515151515,393.304133421138 546.2121212121212,375.2246324751082 548.5606060606061,357.1451315290784 542.689393939394,339.0656305830486 539.1666666666667,320.98612963701885 542.689393939394,302.906628690989 546.2121212121212,284.8271277449593 541.5151515151515,266.74762679892945 539.1666666666667,248.66812585289966 543.8636363636364,230.58862490686988 542.689393939394,212.50912396084004 542.689393939394,194.42962301481026 546.2121212121212,176.35012206878054 545.0378787878788,158.27062112275075 546.2121212121212,140.19112017672097 548.5606060606061,122.11161923069113 553.2575757575758,122.11161923069113 555.6060606060606,140.19112017672097 556.780303030303,158.27062112275075 555.6060606060606,176.35012206878054 559.1287878787879,194.42962301481026 559.1287878787879,212.50912396084004 557.9545454545455,230.58862490686988 562.6515151515152,248.66812585289966 560.3030303030304,266.74762679892945 555.6060606060606,284.8271277449593 559.1287878787879,302.906628690989 562.6515151515152,320.98612963701885 559.1287878787879,339.0656305830486 553.2575757575758,357.1451315290784 555.6060606060606,375.2246324751082 560.3030303030304,393.304133421138 557.9545454545455,411.38363436716776 556.780303030303,429.46313531319754 556.780303030303,447.5426362592274 556.780303030303,465.62213720525716 554.4318181818182,483.70163815128694" fill="#663399" fill-opacity="0.6" stroke="#663399" stroke-width="1" />
<line x1="550.909090909091" y1="483.70163815128694" x2="550.909090909091" y2="122.11161923069113" stroke="#663399" stroke-width="1.5" />
<line x1="529.7727272727273" y1="483.70163815128694" x2="572.0454545454545" y2="483.70163815128694" stroke="#663399" stroke-width="1.5" />
<line x1="529.7727272727273" y1="122.11161923069113" x2="572.0454545454545" y2="122.11161923069113" stroke="#663399" stroke-width="1.5" />
<g class="spine">
<line x1="100" y1="534" x2="720" y2="534" stroke="#262626" stroke-width="0.8" />
</g>
<g class="spine">
<line x1="100" y1="72" x2="720" y2="72" stroke="#262626" stroke-width="0.8" />
</g>
<g class="spine">
<line x1="100" y1="72" x2="100" y2="534" stroke="#262626" stroke-width="0.8" />
</g>
<g class="spine">
<line x1="720" y1="72" x2="720" y2="534" stroke="#262626" stroke-width="0.8" />
</g>
</svg>
