<svg xmlns="http://www.w3.org/2000/svg" viewBox="0 0 1100 500" width="1100" height="500" style="width:100%;height:auto" role="img" aria-labelledby="chart-title">
<title id="chart-title">Monthly P&amp;L Waterfall</title>
<rect x="0" y="0" width="1100" height="500" fill="#FFFFFF" />
<path d="M1.64214 -13.0411L5.9222 -13.0411L8.89204 -6.06196L11.8793 -13.0411L16.1507 -13.0411L16.1507 0L12.9712 0L12.9712 -9.53841L9.96642 -2.50689L7.83512 -2.50689L4.83035 -9.53841L4.83035 0L1.64214 0L1.64214 -13.0411ZM23.9596 -7.78271Q22.9201 -7.78271 22.3742 -7.03589Q21.8283 -6.28906 21.8283 -4.88276Q21.8283 -3.47645 22.3742 -2.72963Q22.9201 -1.9828 23.9596 -1.9828Q24.9816 -1.9828 25.5231 -2.72963Q26.0647 -3.47645 26.0647 -4.88276Q26.0647 -6.28906 25.5231 -7.03589Q24.9816 -7.78271 23.9596 -7.78271ZM23.9596 -10.0188Q26.4839 -10.0188 27.9033 -8.6562Q29.3228 -7.29357 29.3228 -4.88276Q29.3228 -2.47195 27.9033 -1.10932Q26.4839 0.253309 23.9596 0.253309Q21.4265 0.253309 19.9983 -1.10932Q18.5702 -2.47195 18.5702 -4.88276Q18.5702 -7.29357 19.9983 -8.6562Q21.4265 -10.0188 23.9596 -10.0188ZM41.4292 -5.95714L41.4292 0L38.2847 0L38.2847 -0.969564L38.2847 -4.55957Q38.2847 -5.82612 38.2279 -6.30653Q38.1711 -6.78695 38.0314 -7.01405Q37.8479 -7.31977 37.5335 -7.4901Q37.219 -7.66043 36.8172 -7.66043Q35.8389 -7.66043 35.2799 -6.90487Q34.7209 -6.14931 34.7209 -4.81288L34.7209 0L31.5938 0L31.5938 -9.78299L34.7209 -9.78299L34.7209 -8.35048Q35.4284 -9.20649 36.2233 -9.61266Q37.0181 -10.0188 37.979 -10.0188Q39.6735 -10.0188 40.5514 -8.97938Q41.4292 -7.93994 41.4292 -5.95714ZM47.7445 -12.5607L47.7445 -9.78299L50.9676 -9.78299L50.9676 -7.54688L47.7445 -7.54688L47.7445 -3.39784Q47.7445 -2.71653 48.0152 -2.47632Q48.286 -2.23611 49.0896 -2.23611L50.6968 -2.23611L50.6968 0L48.0152 0Q46.1635 0 45.3904 -0.773031Q44.6174 -1.54606 44.6174 -3.39784L44.6174 -7.54688L43.0626 -7.54688L43.0626 -9.78299L44.6174 -9.78299L44.6174 -12.5607L47.7445 -12.5607ZM62.7159 -5.95714L62.7159 0L59.5714 0L59.5714 -0.969564L59.5714 -4.5421Q59.5714 -5.82612 59.5146 -6.30653Q59.4578 -6.78695 59.3181 -7.01405Q59.1347 -7.31977 58.8202 -7.4901Q58.5057 -7.66043 58.1039 -7.66043Q57.1256 -7.66043 56.5666 -6.90487Q56.0076 -6.14931 56.0076 -4.81288L56.0076 0L52.8805 0L52.8805 -13.5914L56.0076 -13.5914L56.0076 -8.35048Q56.7151 -9.20649 57.51 -9.61266Q58.3048 -10.0188 59.2657 -10.0188Q60.9602 -10.0188 61.8381 -8.97938Q62.7159 -7.93994 62.7159 -5.95714ZM65.6159 -13.5914L68.7429 -13.5914L68.7429 0L65.6159 0L65.6159 -13.5914ZM70.4637 -9.78299L73.5908 -9.78299L76.2199 -3.14453L78.4561 -9.78299L81.5831 -9.78299L77.469 0.92589Q76.8488 2.5593 76.0234 3.21004Q75.198 3.86079 73.8441 3.86079L72.036 3.86079L72.036 1.80811L73.0143 1.80811Q73.8091 1.80811 74.1716 1.5548Q74.5341 1.30149 74.735 0.646376L74.8224 0.375597L70.4637 -9.78299ZM89.7764 -13.0411L95.3579 -13.0411Q97.8473 -13.0411 99.1794 -11.9361Q100.511 -10.8312 100.511 -8.78722Q100.511 -6.73454 99.1794 -5.62958Q97.8473 -4.52463 95.3579 -4.52463L93.1393 -4.52463L93.1393 0L89.7764 0L89.7764 -13.0411ZM93.1393 -10.6041L93.1393 -6.96164L94.9998 -6.96164Q95.9781 -6.96164 96.5109 -7.43769Q97.0437 -7.91374 97.0437 -8.78722Q97.0437 -9.6607 96.5109 -10.1324Q95.9781 -10.6041 94.9998 -10.6041L93.1393 -10.6041ZM108.224 -8.6562L111.797 -4.72553Q112.26 -5.33697 112.5 -6.0969Q112.74 -6.85683 112.784 -7.81765L115.5 -7.81765Q115.369 -6.22792 114.885 -4.98758Q114.4 -3.74723 113.535 -2.81261L116.094 0L112.391 0L111.535 -0.952094Q110.618 -0.340658 109.604 -0.043674Q108.591 0.253309 107.456 0.253309Q105.158 0.253309 103.739 -0.956462Q102.32 -2.16623 102.32 -4.07916Q102.32 -5.35444 102.944 -6.3371Q103.569 -7.31977 104.984 -8.24566Q104.617 -8.7086 104.442 -9.17155Q104.267 -9.63449 104.267 -10.1411Q104.267 -11.5649 105.377 -12.4209Q106.486 -13.2769 108.329 -13.2769Q109.124 -13.2769 109.984 -13.1503Q110.845 -13.0236 111.779 -12.7703L111.779 -10.342Q110.958 -10.7613 110.225 -10.9622Q109.491 -11.1631 108.792 -11.1631Q108.119 -11.1631 107.748 -10.9054Q107.377 -10.6477 107.377 -10.1761Q107.377 -9.87907 107.591 -9.49911Q107.805 -9.11914 108.224 -8.6562ZM106.486 -6.48996Q105.918 -6.07943 105.63 -5.55971Q105.342 -5.03998 105.342 -4.41981Q105.342 -3.41531 106.084 -2.70779Q106.827 -2.00027 107.866 -2.00027Q108.451 -2.00027 108.958 -2.17933Q109.465 -2.3584 109.901 -2.71653L106.486 -6.48996ZM118.488 -13.0411L121.851 -13.0411L121.851 -2.54183L127.755 -2.54183L127.755 0L118.488 0L118.488 -13.0411ZM135.005 -13.0411L138.228 -13.0411L140.482 -3.5638L142.718 -13.0411L145.959 -13.0411L148.195 -3.5638L150.448 -13.0411L153.645 -13.0411L150.571 0L146.692 0L144.325 -9.91401L141.984 0L138.106 0L135.005 -13.0411ZM160.092 -4.40234Q159.113 -4.40234 158.62 -4.07042Q158.126 -3.7385 158.126 -3.09212Q158.126 -2.49816 158.524 -2.16187Q158.921 -1.82558 159.629 -1.82558Q160.511 -1.82558 161.114 -2.45885Q161.716 -3.09212 161.716 -4.04422L161.716 -4.40234L160.092 -4.40234ZM164.87 -5.58154L164.87 0L161.716 0L161.716 -1.44998Q161.087 -0.559028 160.301 -0.152859Q159.515 0.253309 158.388 0.253309Q156.868 0.253309 155.921 -0.633274Q154.973 -1.51986 154.973 -2.9349Q154.973 -4.65565 156.157 -5.45926Q157.34 -6.26286 159.873 -6.26286L161.716 -6.26286L161.716 -6.50743Q161.716 -7.24989 161.131 -7.59492Q160.546 -7.93994 159.305 -7.93994Q158.301 -7.93994 157.436 -7.73904Q156.571 -7.53814 155.829 -7.13634L155.829 -9.52094Q156.834 -9.76552 157.847 -9.89217Q158.86 -10.0188 159.873 -10.0188Q162.52 -10.0188 163.695 -8.97502Q164.87 -7.93121 164.87 -5.58154ZM171.194 -12.5607L171.194 -9.78299L174.417 -9.78299L174.417 -7.54688L171.194 -7.54688L171.194 -3.39784Q171.194 -2.71653 171.464 -2.47632Q171.735 -2.23611 172.539 -2.23611L174.146 -2.23611L174.146 0L171.464 0Q169.613 0 168.839 -0.773031Q168.066 -1.54606 168.066 -3.39784L168.066 -7.54688L166.512 -7.54688L166.512 -9.78299L168.066 -9.78299L168.066 -12.5607L171.194 -12.5607ZM186.095 -4.9177L186.095 -4.02675L178.784 -4.02675Q178.898 -2.92616 179.579 -2.37587Q180.26 -1.82558 181.483 -1.82558Q182.47 -1.82558 183.505 -2.11819Q184.54 -2.41081 185.632 -3.00477L185.632 -0.593967Q184.523 -0.174696 183.414 0.0393066Q182.304 0.253309 181.195 0.253309Q178.54 0.253309 177.068 -1.09622Q175.596 -2.44575 175.596 -4.88276Q175.596 -7.2761 177.041 -8.64746Q178.487 -10.0188 181.02 -10.0188Q183.326 -10.0188 184.711 -8.62999Q186.095 -7.24116 186.095 -4.9177ZM182.881 -5.95714Q182.881 -6.84809 182.361 -7.39402Q181.841 -7.93994 181.003 -7.93994Q180.094 -7.93994 179.527 -7.42896Q178.959 -6.91797 178.819 -5.95714L182.881 -5.95714ZM195.73 -7.11887Q195.319 -7.31103 194.913 -7.40275Q194.507 -7.49447 194.096 -7.49447Q192.891 -7.49447 192.24 -6.72144Q191.589 -5.94841 191.589 -4.50716L191.589 0L188.462 0L188.462 -9.78299L191.589 -9.78299L191.589 -8.17578Q192.192 -9.13661 192.974 -9.57772Q193.756 -10.0188 194.847 -10.0188Q195.005 -10.0188 195.188 -10.0057Q195.371 -9.99262 195.721 -9.94895L195.73 -7.11887ZM203.722 -13.5914L203.722 -11.5387L201.992 -11.5387Q201.329 -11.5387 201.067 -11.2985Q200.805 -11.0583 200.805 -10.4643L200.805 -9.78299L203.477 -9.78299L203.477 -7.54688L200.805 -7.54688L200.805 0L197.677 0L197.677 -7.54688L196.123 -7.54688L196.123 -9.78299L197.677 -9.78299L197.677 -10.4643Q197.677 -12.0628 198.568 -12.8271Q199.459 -13.5914 201.329 -13.5914L203.722 -13.5914ZM209.452 -4.40234Q208.474 -4.40234 207.98 -4.07042Q207.487 -3.7385 207.487 -3.09212Q207.487 -2.49816 207.884 -2.16187Q208.282 -1.82558 208.989 -1.82558Q209.871 -1.82558 210.474 -2.45885Q211.077 -3.09212 211.077 -4.04422L211.077 -4.40234L209.452 -4.40234ZM214.23 -5.58154L214.23 0L211.077 0L211.077 -1.44998Q210.448 -0.559028 209.662 -0.152859Q208.875 0.253309 207.749 0.253309Q206.229 0.253309 205.281 -0.633274Q204.333 -1.51986 204.333 -2.9349Q204.333 -4.65565 205.517 -5.45926Q206.701 -6.26286 209.234 -6.26286L211.077 -6.26286L211.077 -6.50743Q211.077 -7.24989 210.491 -7.59492Q209.906 -7.93994 208.666 -7.93994Q207.661 -7.93994 206.797 -7.73904Q205.932 -7.53814 205.189 -7.13634L205.189 -9.52094Q206.194 -9.76552 207.207 -9.89217Q208.22 -10.0188 209.234 -10.0188Q211.88 -10.0188 213.055 -8.97502Q214.23 -7.93121 214.23 -5.58154ZM217.139 -13.5914L220.266 -13.5914L220.266 0L217.139 0L217.139 -13.5914ZM223.27 -13.5914L226.398 -13.5914L226.398 0L223.27 0L223.27 -13.5914Z" fill="#262626" transform="translate(550,24.099999999999998) translate(-113.949951171875,0)" />
<rect x="138" y="60" width="852" height="385" fill="#FFFFFF" />
<line x1="170.76923076923077" y1="444.6" x2="170.76923076923077" y2="449.8611111111111" stroke="#262626" stroke-width="1.1111111111111112" />
<path d="M4.41488 -9.22309Q3.35693 -9.22309 2.82457 -8.1821Q2.29221 -7.14111 2.29221 -5.05235Q2.29221 -2.97038 2.82457 -1.92939Q3.35693 -0.888401 4.41488 -0.888401Q5.4796 -0.888401 6.01196 -1.92939Q6.54433 -2.97038 6.54433 -5.05235Q6.54433 -7.14111 6.01196 -8.1821Q5.4796 -9.22309 4.41488 -9.22309ZM4.41488 -10.3082Q6.11708 -10.3082 7.01565 -8.962Q7.91422 -7.61583 7.91423 -5.05235Q7.91423 -2.49566 7.01565 -1.1495Q6.11708 0.196669 4.41488 0.196669Q2.71267 0.196669 1.8141 -1.1495Q0.915527 -2.49566 0.915527 -5.05235Q0.915527 -7.61583 1.8141 -8.962Q2.71267 -10.3082 4.41488 -10.3082Z" fill="#262626" transform="translate(170.76923076923077,468.6111111111111) rotate(-30) translate(-8.83653450012207,0)" />
<line x1="301.8461538461538" y1="444.6" x2="301.8461538461538" y2="449.8611111111111" stroke="#262626" stroke-width="1.1111111111111112" />
<path d="M2.6652 -1.15289L7.44629 -1.15289L7.44629 0L1.01725 0L1.01725 -1.15289Q1.79715 -1.95991 3.14331 -3.31963Q4.48947 -4.67936 4.83534 -5.0727Q5.49316 -5.8119 5.75426 -6.32392Q6.01535 -6.83594 6.01535 -7.331Q6.01535 -8.13802 5.44908 -8.64665Q4.88281 -9.15527 3.97407 -9.15527Q3.32981 -9.15527 2.61434 -8.93148Q1.89887 -8.70768 1.08507 -8.25331L1.08507 -9.63677Q1.91243 -9.96908 2.63129 -10.1386Q3.35015 -10.3082 3.94694 -10.3082Q5.52029 -10.3082 6.45616 -9.52148Q7.39204 -8.73481 7.39204 -7.41916Q7.39204 -6.79525 7.15807 -6.23576Q6.9241 -5.67627 6.30697 -4.91672Q6.13742 -4.72005 5.22868 -3.78079Q4.31993 -2.84153 2.6652 -1.15289Z" fill="#262626" transform="translate(301.8461538461538,468.6111111111111) rotate(-30) translate(-8.83653450012207,0)" />
<line x1="432.9230769230769" y1="444.6" x2="432.9230769230769" y2="449.8611111111111" stroke="#262626" stroke-width="1.1111111111111112" />
<path d="M5.24902 -8.93148L1.79036 -3.52648L5.24902 -3.52648L5.24902 -8.93148ZM4.88959 -10.1251L6.61214 -10.1251L6.61214 -3.52648L8.05664 -3.52648L8.05664 -2.38715L6.61214 -2.38715L6.61214 0L5.24902 0L5.24902 -2.38715L0.678168 -2.38715L0.678168 -3.70958L4.88959 -10.1251Z" fill="#262626" transform="translate(432.9230769230769,468.6111111111111) rotate(-30) translate(-8.83653450012207,0)" />
<line x1="564" y1="444.6" x2="564" y2="449.8611111111111" stroke="#262626" stroke-width="1.1111111111111112" />
<path d="M4.58442 -5.60845Q3.66211 -5.60845 3.12297 -4.97776Q2.58382 -4.34706 2.58382 -3.24843Q2.58382 -2.15658 3.12297 -1.52249Q3.66211 -0.888401 4.58442 -0.888401Q5.50673 -0.888401 6.04587 -1.52249Q6.58502 -2.15658 6.58502 -3.24843Q6.58502 -4.34706 6.04587 -4.97776Q5.50673 -5.60845 4.58442 -5.60845ZM7.30387 -9.90126L7.30387 -8.65343Q6.78847 -8.89757 6.26289 -9.02642Q5.7373 -9.15527 5.2219 -9.15527Q3.86556 -9.15527 3.15009 -8.23975Q2.43462 -7.32422 2.3329 -5.47282Q2.73302 -6.06282 3.33659 -6.37817Q3.94016 -6.69352 4.6658 -6.69352Q6.19168 -6.69352 7.07669 -5.76782Q7.9617 -4.84212 7.9617 -3.24843Q7.9617 -1.68864 7.03939 -0.745985Q6.11708 0.196669 4.58442 0.196669Q2.82796 0.196669 1.89887 -1.1495Q0.969781 -2.49566 0.969781 -5.05235Q0.969781 -7.45307 2.1091 -8.88062Q3.24843 -10.3082 5.16764 -10.3082Q5.68305 -10.3082 6.20863 -10.2064Q6.73421 -10.1047 7.30387 -9.90126Z" fill="#262626" transform="translate(564,468.6111111111111) rotate(-30) translate(-8.83653450012207,0)" />
<line x1="695.0769230769231" y1="444.6" x2="695.0769230769231" y2="449.8611111111111" stroke="#262626" stroke-width="1.1111111111111112" />
<path d="M4.41488 -4.80821Q3.43831 -4.80821 2.87882 -4.28602Q2.31934 -3.76383 2.31934 -2.84831Q2.31934 -1.93278 2.87882 -1.41059Q3.43831 -0.888401 4.41488 -0.888401Q5.39144 -0.888401 5.95432 -1.41398Q6.5172 -1.93956 6.5172 -2.84831Q6.5172 -3.76383 5.95771 -4.28602Q5.39822 -4.80821 4.41488 -4.80821ZM3.04498 -5.39144Q2.16336 -5.60845 1.67169 -6.21202Q1.18001 -6.81559 1.18001 -7.68365Q1.18001 -8.89757 2.04468 -9.60287Q2.90934 -10.3082 4.41488 -10.3082Q5.92719 -10.3082 6.78847 -9.60287Q7.64974 -8.89757 7.64974 -7.68365Q7.64974 -6.81559 7.15807 -6.21202Q6.6664 -5.60845 5.79156 -5.39144Q6.78168 -5.16086 7.33439 -4.48947Q7.8871 -3.81809 7.8871 -2.84831Q7.8871 -1.37668 6.98853 -0.590007Q6.08995 0.196669 4.41488 0.196669Q2.7398 0.196669 1.84123 -0.590007Q0.942654 -1.37668 0.942654 -2.84831Q0.942654 -3.81809 1.49875 -4.48947Q2.05485 -5.16086 3.04498 -5.39144ZM2.54313 -7.5548Q2.54313 -6.76812 3.0348 -6.32731Q3.52648 -5.8865 4.41488 -5.8865Q5.29649 -5.8865 5.79495 -6.32731Q6.2934 -6.76812 6.2934 -7.5548Q6.2934 -8.34147 5.79495 -8.78228Q5.2965 -9.22309 4.41488 -9.22309Q3.52648 -9.22309 3.0348 -8.78228Q2.54313 -8.34147 2.54313 -7.5548Z" fill="#262626" transform="translate(695.0769230769231,468.6111111111111) rotate(-30) translate(-8.83653450012207,0)" />
<line x1="826.1538461538462" y1="444.6" x2="826.1538461538462" y2="449.8611111111111" stroke="#262626" stroke-width="1.1111111111111112" />
<path d="M1.72255 -1.15289L3.9605 -1.15289L3.9605 -8.87722L1.52588 -8.38894L1.52588 -9.63677L3.94694 -10.1251L5.31684 -10.1251L5.31684 -1.15289L7.5548 -1.15289L7.5548 0L1.72255 0L1.72255 -1.15289ZM13.2514 -9.22309Q12.1935 -9.22309 11.6611 -8.1821Q11.1287 -7.14111 11.1287 -5.05235Q11.1287 -2.97038 11.6611 -1.92939Q12.1935 -0.888401 13.2514 -0.888401Q14.3161 -0.888401 14.8485 -1.92939Q15.3809 -2.97038 15.3809 -5.05235Q15.3809 -7.14111 14.8485 -8.1821Q14.3161 -9.22309 13.2514 -9.22309ZM13.2514 -10.3082Q14.9536 -10.3082 15.8522 -8.962Q16.7508 -7.61583 16.7508 -5.05235Q16.7508 -2.49566 15.8522 -1.1495Q14.9536 0.196669 13.2514 0.196669Q11.5492 0.196669 10.6506 -1.1495Q9.75206 -2.49566 9.75206 -5.05235Q9.75206 -7.61583 10.6506 -8.962Q11.5492 -10.3082 13.2514 -10.3082Z" fill="#262626" transform="translate(826.1538461538462,468.6111111111111) rotate(-30) translate(-17.67306900024414,0)" />
<line x1="957.230769230769" y1="444.6" x2="957.230769230769" y2="449.8611111111111" stroke="#262626" stroke-width="1.1111111111111112" />
<path d="M1.72255 -1.15289L3.9605 -1.15289L3.9605 -8.87722L1.52588 -8.38894L1.52588 -9.63677L3.94694 -10.1251L5.31684 -10.1251L5.31684 -1.15289L7.5548 -1.15289L7.5548 0L1.72255 0L1.72255 -1.15289ZM11.5017 -1.15289L16.2828 -1.15289L16.2828 0L9.85379 0L9.85379 -1.15289Q10.6337 -1.95991 11.9798 -3.31963Q13.326 -4.67936 13.6719 -5.0727Q14.3297 -5.8119 14.5908 -6.32392Q14.8519 -6.83594 14.8519 -7.331Q14.8519 -8.13802 14.2856 -8.64665Q13.7193 -9.15527 12.8106 -9.15527Q12.1663 -9.15527 11.4509 -8.93148Q10.7354 -8.70768 9.9216 -8.25331L9.9216 -9.63677Q10.749 -9.96908 11.4678 -10.1386Q12.1867 -10.3082 12.7835 -10.3082Q14.3568 -10.3082 15.2927 -9.52148Q16.2286 -8.73481 16.2286 -7.41916Q16.2286 -6.79525 15.9946 -6.23576Q15.7606 -5.67627 15.1435 -4.91672Q14.974 -4.72005 14.0652 -3.78079Q13.1565 -2.84153 11.5017 -1.15289Z" fill="#262626" transform="translate(957.230769230769,468.6111111111111) rotate(-30) translate(-17.67306900024414,0)" />
<line x1="133.13888888888889" y1="445" x2="138.4" y2="445" stroke="#262626" stroke-width="1.1111111111111112" />
<path d="M4.41488 -9.22309Q3.35693 -9.22309 2.82457 -8.1821Q2.29221 -7.14111 2.29221 -5.05235Q2.29221 -2.97038 2.82457 -1.92939Q3.35693 -0.888401 4.41488 -0.888401Q5.4796 -0.888401 6.01196 -1.92939Q6.54433 -2.97038 6.54433 -5.05235Q6.54433 -7.14111 6.01196 -8.1821Q5.4796 -9.22309 4.41488 -9.22309ZM4.41488 -10.3082Q6.11708 -10.3082 7.01565 -8.962Q7.91422 -7.61583 7.91423 -5.05235Q7.91423 -2.49566 7.01565 -1.1495Q6.11708 0.196669 4.41488 0.196669Q2.71267 0.196669 1.8141 -1.1495Q0.915527 -2.49566 0.915527 -5.05235Q0.915527 -7.61583 1.8141 -8.962Q2.71267 -10.3082 4.41488 -10.3082Z" fill="#262626" transform="translate(128.27777777777777,449) translate(-8.83653450012207,0)" />
<line x1="133.13888888888889" y1="412.26190476190476" x2="138.4" y2="412.26190476190476" stroke="#262626" stroke-width="1.1111111111111112" />
<path d="M1.72255 -1.15289L3.9605 -1.15289L3.9605 -8.87722L1.52588 -8.38894L1.52588 -9.63677L3.94694 -10.1251L5.31684 -10.1251L5.31684 -1.15289L7.5548 -1.15289L7.5548 0L1.72255 0L1.72255 -1.15289ZM13.2514 -9.22309Q12.1935 -9.22309 11.6611 -8.1821Q11.1287 -7.14111 11.1287 -5.05235Q11.1287 -2.97038 11.6611 -1.92939Q12.1935 -0.888401 13.2514 -0.888401Q14.3161 -0.888401 14.8485 -1.92939Q15.3809 -2.97038 15.3809 -5.05235Q15.3809 -7.14111 14.8485 -8.1821Q14.3161 -9.22309 13.2514 -9.22309ZM13.2514 -10.3082Q14.9536 -10.3082 15.8522 -8.962Q16.7508 -7.61583 16.7508 -5.05235Q16.7508 -2.49566 15.8522 -1.1495Q14.9536 0.196669 13.2514 0.196669Q11.5492 0.196669 10.6506 -1.1495Q9.75206 -2.49566 9.75206 -5.05235Q9.75206 -7.61583 10.6506 -8.962Q11.5492 -10.3082 13.2514 -10.3082ZM22.0879 -9.22309Q21.03 -9.22309 20.4976 -8.1821Q19.9653 -7.14111 19.9653 -5.05235Q19.9653 -2.97038 20.4976 -1.92939Q21.03 -0.888401 22.0879 -0.888401Q23.1527 -0.888401 23.685 -1.92939Q24.2174 -2.97038 24.2174 -5.05235Q24.2174 -7.14111 23.685 -8.1821Q23.1527 -9.22309 22.0879 -9.22309ZM22.0879 -10.3082Q23.7901 -10.3082 24.6887 -8.962Q25.5873 -7.61583 25.5873 -5.05235Q25.5873 -2.49566 24.6887 -1.1495Q23.7901 0.196669 22.0879 0.196669Q20.3857 0.196669 19.4872 -1.1495Q18.5886 -2.49566 18.5886 -5.05235Q18.5886 -7.61583 19.4872 -8.962Q20.3857 -10.3082 22.0879 -10.3082Z" fill="#262626" transform="translate(128.27777777777777,416.26190476190476) translate(-26.50960350036621,0)" />
<line x1="133.13888888888889" y1="379.5238095238095" x2="138.4" y2="379.5238095238095" stroke="#262626" stroke-width="1.1111111111111112" />
<path d="M2.6652 -1.15289L7.44629 -1.15289L7.44629 0L1.01725 0L1.01725 -1.15289Q1.79715 -1.95991 3.14331 -3.31963Q4.48947 -4.67936 4.83534 -5.0727Q5.49316 -5.8119 5.75426 -6.32392Q6.01535 -6.83594 6.01535 -7.331Q6.01535 -8.13802 5.44908 -8.64665Q4.88281 -9.15527 3.97407 -9.15527Q3.32981 -9.15527 2.61434 -8.93148Q1.89887 -8.70768 1.08507 -8.25331L1.08507 -9.63677Q1.91243 -9.96908 2.63129 -10.1386Q3.35015 -10.3082 3.94694 -10.3082Q5.52029 -10.3082 6.45616 -9.52148Q7.39204 -8.73481 7.39204 -7.41916Q7.39204 -6.79525 7.15807 -6.23576Q6.9241 -5.67627 6.30697 -4.91672Q6.13742 -4.72005 5.22868 -3.78079Q4.31993 -2.84153 2.6652 -1.15289ZM13.2514 -9.22309Q12.1935 -9.22309 11.6611 -8.1821Q11.1287 -7.14111 11.1287 -5.05235Q11.1287 -2.97038 11.6611 -1.92939Q12.1935 -0.888401 13.2514 -0.888401Q14.3161 -0.888401 14.8485 -1.92939Q15.3809 -2.97038 15.3809 -5.05235Q15.3809 -7.14111 14.8485 -8.1821Q14.3161 -9.22309 13.2514 -9.22309ZM13.2514 -10.3082Q14.9536 -10.3082 15.8522 -8.962Q16.7508 -7.61583 16.7508 -5.05235Q16.7508 -2.49566 15.8522 -1.1495Q14.9536 0.196669 13.2514 0.196669Q11.5492 0.196669 10.6506 -1.1495Q9.75206 -2.49566 9.75206 -5.05235Q9.75206 -7.61583 10.6506 -8.962Q11.5492 -10.3082 13.2514 -10.3082ZM22.0879 -9.22309Q21.03 -9.22309 20.4976 -8.1821Q19.9653 -7.14111 19.9653 -5.05235Q19.9653 -2.97038 20.4976 -1.92939Q21.03 -0.888401 22.0879 -0.888401Q23.1527 -0.888401 23.685 -1.92939Q24.2174 -2.97038 24.2174 -5.05235Q24.2174 -7.14111 23.685 -8.1821Q23.1527 -9.22309 22.0879 -9.22309ZM22.0879 -10.3082Q23.7901 -10.3082 24.6887 -8.962Q25.5873 -7.61583 25.5873 -5.05235Q25.5873 -2.49566 24.6887 -1.1495Q23.7901 0.196669 22.0879 0.196669Q20.3857 0.196669 19.4872 -1.1495Q18.5886 -2.49566 18.5886 -5.05235Q18.5886 -7.61583 19.4872 -8.962Q20.3857 -10.3082 22.0879 -10.3082Z" fill="#262626" transform="translate(128.27777777777777,383.5238095238095) translate(-26.50960350036621,0)" />
<line x1="133.13888888888889" y1="346.7857142857143" x2="138.4" y2="346.7857142857143" stroke="#262626" stroke-width="1.1111111111111112" />
<path d="M5.63558 -5.45926Q6.61892 -5.24902 7.17163 -4.58442Q7.72434 -3.91981 7.72434 -2.94325Q7.72434 -1.4445 6.69352 -0.623915Q5.66271 0.196669 3.76383 0.196669Q3.12636 0.196669 2.45158 0.0712077Q1.7768 -0.0542535 1.05794 -0.305176L1.05794 -1.6276Q1.6276 -1.2953 2.30577 -1.12576Q2.98394 -0.956217 3.72314 -0.956217Q5.01166 -0.956217 5.68644 -1.46484Q6.36122 -1.97347 6.36122 -2.94325Q6.36122 -3.83843 5.73391 -4.34367Q5.10661 -4.8489 3.98763 -4.8489L2.80762 -4.8489L2.80762 -5.97466L4.04188 -5.97466Q5.05235 -5.97466 5.58811 -6.37817Q6.12386 -6.78168 6.12386 -7.54123Q6.12386 -8.32113 5.57115 -8.7382Q5.01845 -9.15527 3.98763 -9.15527Q3.42475 -9.15527 2.78049 -9.0332Q2.13623 -8.91113 1.36312 -8.65343L1.36312 -9.87413Q2.14301 -10.0911 2.82457 -10.1997Q3.50613 -10.3082 4.1097 -10.3082Q5.66949 -10.3082 6.57823 -9.59947Q7.48698 -8.89079 7.48698 -7.68365Q7.48698 -6.84272 7.00548 -6.26289Q6.52398 -5.68305 5.63558 -5.45926ZM13.2514 -9.22309Q12.1935 -9.22309 11.6611 -8.1821Q11.1287 -7.14111 11.1287 -5.05235Q11.1287 -2.97038 11.6611 -1.92939Q12.1935 -0.888401 13.2514 -0.888401Q14.3161 -0.888401 14.8485 -1.92939Q15.3809 -2.97038 15.3809 -5.05235Q15.3809 -7.14111 14.8485 -8.1821Q14.3161 -9.22309 13.2514 -9.22309ZM13.2514 -10.3082Q14.9536 -10.3082 15.8522 -8.962Q16.7508 -7.61583 16.7508 -5.05235Q16.7508 -2.49566 15.8522 -1.1495Q14.9536 0.196669 13.2514 0.196669Q11.5492 0.196669 10.6506 -1.1495Q9.75206 -2.49566 9.75206 -5.05235Q9.75206 -7.61583 10.6506 -8.962Q11.5492 -10.3082 13.2514 -10.3082ZM22.0879 -9.22309Q21.03 -9.22309 20.4976 -8.1821Q19.9653 -7.14111 19.9653 -5.05235Q19.9653 -2.97038 20.4976 -1.92939Q21.03 -0.888401 22.0879 -0.888401Q23.1527 -0.888401 23.685 -1.92939Q24.2174 -2.97038 24.2174 -5.05235Q24.2174 -7.14111 23.685 -8.1821Q23.1527 -9.22309 22.0879 -9.22309ZM22.0879 -10.3082Q23.7901 -10.3082 24.6887 -8.962Q25.5873 -7.61583 25.5873 -5.05235Q25.5873 -2.49566 24.6887 -1.1495Q23.7901 0.196669 22.0879 0.196669Q20.3857 0.196669 19.4872 -1.1495Q18.5886 -2.49566 18.5886 -5.05235Q18.5886 -7.61583 19.4872 -8.962Q20.3857 -10.3082 22.0879 -10.3082Z" fill="#262626" transform="translate(128.27777777777777,350.7857142857143) translate(-26.50960350036621,0)" />
<line x1="133.13888888888889" y1="314.04761904761904" x2="138.4" y2="314.04761904761904" stroke="#262626" stroke-width="1.1111111111111112" />
<path d="M5.24902 -8.93148L1.79036 -3.52648L5.24902 -3.52648L5.24902 -8.93148ZM4.88959 -10.1251L6.61214 -10.1251L6.61214 -3.52648L8.05664 -3.52648L8.05664 -2.38715L6.61214 -2.38715L6.61214 0L5.24902 0L5.24902 -2.38715L0.678168 -2.38715L0.678168 -3.70958L4.88959 -10.1251ZM13.2514 -9.22309Q12.1935 -9.22309 11.6611 -8.1821Q11.1287 -7.14111 11.1287 -5.05235Q11.1287 -2.97038 11.6611 -1.92939Q12.1935 -0.888401 13.2514 -0.888401Q14.3161 -0.888401 14.8485 -1.92939Q15.3809 -2.97038 15.3809 -5.05235Q15.3809 -7.14111 14.8485 -8.1821Q14.3161 -9.22309 13.2514 -9.22309ZM13.2514 -10.3082Q14.9536 -10.3082 15.8522 -8.962Q16.7508 -7.61583 16.7508 -5.05235Q16.7508 -2.49566 15.8522 -1.1495Q14.9536 0.196669 13.2514 0.196669Q11.5492 0.196669 10.6506 -1.1495Q9.75206 -2.49566 9.75206 -5.05235Q9.75206 -7.61583 10.6506 -8.962Q11.5492 -10.3082 13.2514 -10.3082ZM22.0879 -9.22309Q21.03 -9.22309 20.4976 -8.1821Q19.9653 -7.14111 19.9653 -5.05235Q19.9653 -2.97038 20.4976 -1.92939Q21.03 -0.888401 22.0879 -0.888401Q23.1527 -0.888401 23.685 -1.92939Q24.2174 -2.97038 24.2174 -5.05235Q24.2174 -7.14111 23.685 -8.1821Q23.1527 -9.22309 22.0879 -9.22309ZM22.0879 -10.3082Q23.7901 -10.3082 24.6887 -8.962Q25.5873 -7.61583 25.5873 -5.05235Q25.5873 -2.49566 24.6887 -1.1495Q23.7901 0.196669 22.0879 0.196669Q20.3857 0.196669 19.4872 -1.1495Q18.5886 -2.49566 18.5886 -5.05235Q18.5886 -7.61583 19.4872 -8.962Q20.3857 -10.3082 22.0879 -10.3082Z" fill="#262626" transform="translate(128.27777777777777,318.04761904761904) translate(-26.50960350036621,0)" />
<line x1="133.13888888888889" y1="281.3095238095238" x2="138.4" y2="281.3095238095238" stroke="#262626" stroke-width="1.1111111111111112" />
<path d="M1.49875 -10.1251L6.87663 -10.1251L6.87663 -8.97217L2.75336 -8.97217L2.75336 -6.49007Q3.05176 -6.5918 3.35015 -6.64266Q3.64855 -6.69352 3.94694 -6.69352Q5.64236 -6.69352 6.63249 -5.76443Q7.62261 -4.83534 7.62261 -3.24843Q7.62261 -1.61404 6.60536 -0.708686Q5.58811 0.196669 3.73671 0.196669Q3.09923 0.196669 2.43802 0.0881619C1.99721 0.0158239 1.5417 -0.092683 1.07151 -0.237359L1.07151 -1.61404Q1.68186 -1.28174 2.3329 -1.11898Q2.98394 -0.956217 3.70958 -0.956217Q4.88281 -0.956217 5.56776 -1.57335Q6.25271 -2.19048 6.25271 -3.24843Q6.25271 -4.30637 5.56776 -4.9235Q4.88281 -5.54064 3.70958 -5.54064Q3.16026 -5.54064 2.61434 -5.41857Q2.06841 -5.2965 1.49875 -5.03879L1.49875 -10.1251ZM13.2514 -9.22309Q12.1935 -9.22309 11.6611 -8.1821Q11.1287 -7.14111 11.1287 -5.05235Q11.1287 -2.97038 11.6611 -1.92939Q12.1935 -0.888401 13.2514 -0.888401Q14.3161 -0.888401 14.8485 -1.92939Q15.3809 -2.97038 15.3809 -5.05235Q15.3809 -7.14111 14.8485 -8.1821Q14.3161 -9.22309 13.2514 -9.22309ZM13.2514 -10.3082Q14.9536 -10.3082 15.8522 -8.962Q16.7508 -7.61583 16.7508 -5.05235Q16.7508 -2.49566 15.8522 -1.1495Q14.9536 0.196669 13.2514 0.196669Q11.5492 0.196669 10.6506 -1.1495Q9.75206 -2.49566 9.75206 -5.05235Q9.75206 -7.61583 10.6506 -8.962Q11.5492 -10.3082 13.2514 -10.3082ZM22.0879 -9.22309Q21.03 -9.22309 20.4976 -8.1821Q19.9653 -7.14111 19.9653 -5.05235Q19.9653 -2.97038 20.4976 -1.92939Q21.03 -0.888401 22.0879 -0.888401Q23.1527 -0.888401 23.685 -1.92939Q24.2174 -2.97038 24.2174 -5.05235Q24.2174 -7.14111 23.685 -8.1821Q23.1527 -9.22309 22.0879 -9.22309ZM22.0879 -10.3082Q23.7901 -10.3082 24.6887 -8.962Q25.5873 -7.61583 25.5873 -5.05235Q25.5873 -2.49566 24.6887 -1.1495Q23.7901 0.196669 22.0879 0.196669Q20.3857 0.196669 19.4872 -1.1495Q18.5886 -2.49566 18.5886 -5.05235Q18.5886 -7.61583 19.4872 -8.962Q20.3857 -10.3082 22.0879 -10.3082Z" fill="#262626" transform="translate(128.27777777777777,285.3095238095238) translate(-26.50960350036621,0)" />
<line x1="133.13888888888889" y1="248.57142857142858" x2="138.4" y2="248.57142857142858" stroke="#262626" stroke-width="1.1111111111111112" />
<path d="M4.58442 -5.60845Q3.66211 -5.60845 3.12297 -4.97776Q2.58382 -4.34706 2.58382 -3.24843Q2.58382 -2.15658 3.12297 -1.52249Q3.66211 -0.888401 4.58442 -0.888401Q5.50673 -0.888401 6.04587 -1.52249Q6.58502 -2.15658 6.58502 -3.24843Q6.58502 -4.34706 6.04587 -4.97776Q5.50673 -5.60845 4.58442 -5.60845ZM7.30387 -9.90126L7.30387 -8.65343Q6.78847 -8.89757 6.26289 -9.02642Q5.7373 -9.15527 5.2219 -9.15527Q3.86556 -9.15527 3.15009 -8.23975Q2.43462 -7.32422 2.3329 -5.47282Q2.73302 -6.06282 3.33659 -6.37817Q3.94016 -6.69352 4.6658 -6.69352Q6.19168 -6.69352 7.07669 -5.76782Q7.9617 -4.84212 7.9617 -3.24843Q7.9617 -1.68864 7.03939 -0.745985Q6.11708 0.196669 4.58442 0.196669Q2.82796 0.196669 1.89887 -1.1495Q0.969781 -2.49566 0.969781 -5.05235Q0.969781 -7.45307 2.1091 -8.88062Q3.24843 -10.3082 5.16764 -10.3082Q5.68305 -10.3082 6.20863 -10.2064Q6.73421 -10.1047 7.30387 -9.90126ZM13.2514 -9.22309Q12.1935 -9.22309 11.6611 -8.1821Q11.1287 -7.14111 11.1287 -5.05235Q11.1287 -2.97038 11.6611 -1.92939Q12.1935 -0.888401 13.2514 -0.888401Q14.3161 -0.888401 14.8485 -1.92939Q15.3809 -2.97038 15.3809 -5.05235Q15.3809 -7.14111 14.8485 -8.1821Q14.3161 -9.22309 13.2514 -9.22309ZM13.2514 -10.3082Q14.9536 -10.3082 15.8522 -8.962Q16.7508 -7.61583 16.7508 -5.05235Q16.7508 -2.49566 15.8522 -1.1495Q14.9536 0.196669 13.2514 0.196669Q11.5492 0.196669 10.6506 -1.1495Q9.75206 -2.49566 9.75206 -5.05235Q9.75206 -7.61583 10.6506 -8.962Q11.5492 -10.3082 13.2514 -10.3082ZM22.0879 -9.22309Q21.03 -9.22309 20.4976 -8.1821Q19.9653 -7.14111 19.9653 -5.05235Q19.9653 -2.97038 20.4976 -1.92939Q21.03 -0.888401 22.0879 -0.888401Q23.1527 -0.888401 23.685 -1.92939Q24.2174 -2.97038 24.2174 -5.05235Q24.2174 -7.14111 23.685 -8.1821Q23.1527 -9.22309 22.0879 -9.22309ZM22.0879 -10.3082Q23.7901 -10.3082 24.6887 -8.962Q25.5873 -7.61583 25.5873 -5.05235Q25.5873 -2.49566 24.6887 -1.1495Q23.7901 0.196669 22.0879 0.196669Q20.3857 0.196669 19.4872 -1.1495Q18.5886 -2.49566 18.5886 -5.05235Q18.5886 -7.61583 19.4872 -8.962Q20.3857 -10.3082 22.0879 -10.3082Z" fill="#262626" transform="translate(128.27777777777777,252.57142857142858) translate(-26.50960350036621,0)" />
<line x1="133.13888888888889" y1="215.83333333333334" x2="138.4" y2="215.83333333333334" stroke="#262626" stroke-width="1.1111111111111112" />
<path d="M1.13932 -10.1251L7.64974 -10.1251L7.64974 -9.54183L3.97407 0L2.54313 0L6.00179 -8.97217L1.13932 -8.97217L1.13932 -10.1251ZM13.2514 -9.22309Q12.1935 -9.22309 11.6611 -8.1821Q11.1287 -7.14111 11.1287 -5.05235Q11.1287 -2.97038 11.6611 -1.92939Q12.1935 -0.888401 13.2514 -0.888401Q14.3161 -0.888401 14.8485 -1.92939Q15.3809 -2.97038 15.3809 -5.05235Q15.3809 -7.14111 14.8485 -8.1821Q14.3161 -9.22309 13.2514 -9.22309ZM13.2514 -10.3082Q14.9536 -10.3082 15.8522 -8.962Q16.7508 -7.61583 16.7508 -5.05235Q16.7508 -2.49566 15.8522 -1.1495Q14.9536 0.196669 13.2514 0.196669Q11.5492 0.196669 10.6506 -1.1495Q9.75206 -2.49566 9.75206 -5.05235Q9.75206 -7.61583 10.6506 -8.962Q11.5492 -10.3082 13.2514 -10.3082ZM22.0879 -9.22309Q21.03 -9.22309 20.4976 -8.1821Q19.9653 -7.14111 19.9653 -5.05235Q19.9653 -2.97038 20.4976 -1.92939Q21.03 -0.888401 22.0879 -0.888401Q23.1527 -0.888401 23.685 -1.92939Q24.2174 -2.97038 24.2174 -5.05235Q24.2174 -7.14111 23.685 -8.1821Q23.1527 -9.22309 22.0879 -9.22309ZM22.0879 -10.3082Q23.7901 -10.3082 24.6887 -8.962Q25.5873 -7.61583 25.5873 -5.05235Q25.5873 -2.49566 24.6887 -1.1495Q23.7901 0.196669 22.0879 0.196669Q20.3857 0.196669 19.4872 -1.1495Q18.5886 -2.49566 18.5886 -5.05235Q18.5886 -7.61583 19.4872 -8.962Q20.3857 -10.3082 22.0879 -10.3082Z" fill="#262626" transform="translate(128.27777777777777,219.83333333333334) translate(-26.50960350036621,0)" />
<line x1="133.13888888888889" y1="183.09523809523807" x2="138.4" y2="183.09523809523807" stroke="#262626" stroke-width="1.1111111111111112" />
<path d="M4.41488 -4.80821Q3.43831 -4.80821 2.87882 -4.28602Q2.31934 -3.76383 2.31934 -2.84831Q2.31934 -1.93278 2.87882 -1.41059Q3.43831 -0.888401 4.41488 -0.888401Q5.39144 -0.888401 5.95432 -1.41398Q6.5172 -1.93956 6.5172 -2.84831Q6.5172 -3.76383 5.95771 -4.28602Q5.39822 -4.80821 4.41488 -4.80821ZM3.04498 -5.39144Q2.16336 -5.60845 1.67169 -6.21202Q1.18001 -6.81559 1.18001 -7.68365Q1.18001 -8.89757 2.04468 -9.60287Q2.90934 -10.3082 4.41488 -10.3082Q5.92719 -10.3082 6.78847 -9.60287Q7.64974 -8.89757 7.64974 -7.68365Q7.64974 -6.81559 7.15807 -6.21202Q6.6664 -5.60845 5.79156 -5.39144Q6.78168 -5.16086 7.33439 -4.48947Q7.8871 -3.81809 7.8871 -2.84831Q7.8871 -1.37668 6.98853 -0.590007Q6.08995 0.196669 4.41488 0.196669Q2.7398 0.196669 1.84123 -0.590007Q0.942654 -1.37668 0.942654 -2.84831Q0.942654 -3.81809 1.49875 -4.48947Q2.05485 -5.16086 3.04498 -5.39144ZM2.54313 -7.5548Q2.54313 -6.76812 3.0348 -6.32731Q3.52648 -5.8865 4.41488 -5.8865Q5.29649 -5.8865 5.79495 -6.32731Q6.2934 -6.76812 6.2934 -7.5548Q6.2934 -8.34147 5.79495 -8.78228Q5.2965 -9.22309 4.41488 -9.22309Q3.52648 -9.22309 3.0348 -8.78228Q2.54313 -8.34147 2.54313 -7.5548ZM13.2514 -9.22309Q12.1935 -9.22309 11.6611 -8.1821Q11.1287 -7.14111 11.1287 -5.05235Q11.1287 -2.97038 11.6611 -1.92939Q12.1935 -0.888401 13.2514 -0.888401Q14.3161 -0.888401 14.8485 -1.92939Q15.3809 -2.97038 15.3809 -5.05235Q15.3809 -7.14111 14.8485 -8.1821Q14.3161 -9.22309 13.2514 -9.22309ZM13.2514 -10.3082Q14.9536 -10.3082 15.8522 -8.962Q16.7508 -7.61583 16.7508 -5.05235Q16.7508 -2.49566 15.8522 -1.1495Q14.9536 0.196669 13.2514 0.196669Q11.5492 0.196669 10.6506 -1.1495Q9.75206 -2.49566 9.75206 -5.05235Q9.75206 -7.61583 10.6506 -8.962Q11.5492 -10.3082 13.2514 -10.3082ZM22.0879 -9.22309Q21.03 -9.22309 20.4976 -8.1821Q19.9653 -7.14111 19.9653 -5.05235Q19.9653 -2.97038 20.4976 -1.92939Q21.03 -0.888401 22.0879 -0.888401Q23.1527 -0.888401 23.685 -1.92939Q24.2174 -2.97038 24.2174 -5.05235Q24.2174 -7.14111 23.685 -8.1821Q23.1527 -9.22309 22.0879 -9.22309ZM22.0879 -10.3082Q23.7901 -10.3082 24.6887 -8.962Q25.5873 -7.61583 25.5873 -5.05235Q25.5873 -2.49566 24.6887 -1.1495Q23.7901 0.196669 22.0879 0.196669Q20.3857 0.196669 19.4872 -1.1495Q18.5886 -2.49566 18.5886 -5.05235Q18.5886 -7.61583 19.4872 -8.962Q20.3857 -10.3082 22.0879 -10.3082Z" fill="#262626" transform="translate(128.27777777777777,187.09523809523807) translate(-26.50960350036621,0)" />
<line x1="133.13888888888889" y1="150.35714285714283" x2="138.4" y2="150.35714285714283" stroke="#262626" stroke-width="1.1111111111111112" />
<path d="M1.52588 -0.210232L1.52588 -1.45806Q2.04129 -1.21392 2.57026 -1.08507Q3.09923 -0.956217 3.60786 -0.956217Q4.96419 -0.956217 5.67966 -1.86835Q6.39513 -2.78049 6.49685 -4.63867Q6.10352 -4.05545 5.49995 -3.74349Q4.89638 -3.43153 4.16395 -3.43153Q2.64486 -3.43153 1.75985 -4.35045Q0.874837 -5.26937 0.874837 -6.86306Q0.874837 -8.42285 1.79715 -9.36551Q2.71946 -10.3082 4.25212 -10.3082Q6.00857 -10.3082 6.93427 -8.962Q7.85997 -7.61583 7.85997 -5.05235Q7.85997 -2.65842 6.72404 -1.23088Q5.58811 0.196669 3.66889 0.196669Q3.15348 0.196669 2.62451 0.0949436Q2.09554 -0.00678168 1.52588 -0.210232ZM4.25212 -4.50304Q5.17442 -4.50304 5.71357 -5.13374Q6.25271 -5.76443 6.25271 -6.86306Q6.25271 -7.95491 5.71357 -8.589Q5.17443 -9.22309 4.25212 -9.22309Q3.32981 -9.22309 2.79066 -8.589Q2.25152 -7.95492 2.25152 -6.86306Q2.25152 -5.76443 2.79066 -5.13374Q3.32981 -4.50304 4.25212 -4.50304ZM13.2514 -9.22309Q12.1935 -9.22309 11.6611 -8.1821Q11.1287 -7.14111 11.1287 -5.05235Q11.1287 -2.97038 11.6611 -1.92939Q12.1935 -0.888401 13.2514 -0.888401Q14.3161 -0.888401 14.8485 -1.92939Q15.3809 -2.97038 15.3809 -5.05235Q15.3809 -7.14111 14.8485 -8.1821Q14.3161 -9.22309 13.2514 -9.22309ZM13.2514 -10.3082Q14.9536 -10.3082 15.8522 -8.962Q16.7508 -7.61583 16.7508 -5.05235Q16.7508 -2.49566 15.8522 -1.1495Q14.9536 0.196669 13.2514 0.196669Q11.5492 0.196669 10.6506 -1.1495Q9.75206 -2.49566 9.75206 -5.05235Q9.75206 -7.61583 10.6506 -8.962Q11.5492 -10.3082 13.2514 -10.3082ZM22.0879 -9.22309Q21.03 -9.22309 20.4976 -8.1821Q19.9653 -7.14111 19.9653 -5.05235Q19.9653 -2.97038 20.4976 -1.92939Q21.03 -0.888401 22.0879 -0.888401Q23.1527 -0.888401 23.685 -1.92939Q24.2174 -2.97038 24.2174 -5.05235Q24.2174 -7.14111 23.685 -8.1821Q23.1527 -9.22309 22.0879 -9.22309ZM22.0879 -10.3082Q23.7901 -10.3082 24.6887 -8.962Q25.5873 -7.61583 25.5873 -5.05235Q25.5873 -2.49566 24.6887 -1.1495Q23.7901 0.196669 22.0879 0.196669Q20.3857 0.196669 19.4872 -1.1495Q18.5886 -2.49566 18.5886 -5.05235Q18.5886 -7.61583 19.4872 -8.962Q20.3857 -10.3082 22.0879 -10.3082Z" fill="#262626" transform="translate(128.27777777777777,154.35714285714283) translate(-26.50960350036621,0)" />
<line x1="133.13888888888889" y1="117.61904761904759" x2="138.4" y2="117.61904761904759" stroke="#262626" stroke-width="1.1111111111111112" />
<path d="M1.72255 -1.15289L3.9605 -1.15289L3.9605 -8.87722L1.52588 -8.38894L1.52588 -9.63677L3.94694 -10.1251L5.31684 -10.1251L5.31684 -1.15289L7.5548 -1.15289L7.5548 0L1.72255 0L1.72255 -1.15289ZM13.2514 -9.22309Q12.1935 -9.22309 11.6611 -8.1821Q11.1287 -7.14111 11.1287 -5.05235Q11.1287 -2.97038 11.6611 -1.92939Q12.1935 -0.888401 13.2514 -0.888401Q14.3161 -0.888401 14.8485 -1.92939Q15.3809 -2.97038 15.3809 -5.05235Q15.3809 -7.14111 14.8485 -8.1821Q14.3161 -9.22309 13.2514 -9.22309ZM13.2514 -10.3082Q14.9536 -10.3082 15.8522 -8.962Q16.7508 -7.61583 16.7508 -5.05235Q16.7508 -2.49566 15.8522 -1.1495Q14.9536 0.196669 13.2514 0.196669Q11.5492 0.196669 10.6506 -1.1495Q9.75206 -2.49566 9.75206 -5.05235Q9.75206 -7.61583 10.6506 -8.962Q11.5492 -10.3082 13.2514 -10.3082ZM22.0879 -9.22309Q21.03 -9.22309 20.4976 -8.1821Q19.9653 -7.14111 19.9653 -5.05235Q19.9653 -2.97038 20.4976 -1.92939Q21.03 -0.888401 22.0879 -0.888401Q23.1527 -0.888401 23.685 -1.92939Q24.2174 -2.97038 24.2174 -5.05235Q24.2174 -7.14111 23.685 -8.1821Q23.1527 -9.22309 22.0879 -9.22309ZM22.0879 -10.3082Q23.7901 -10.3082 24.6887 -8.962Q25.5873 -7.61583 25.5873 -5.05235Q25.5873 -2.49566 24.6887 -1.1495Q23.7901 0.196669 22.0879 0.196669Q20.3857 0.196669 19.4872 -1.1495Q18.5886 -2.49566 18.5886 -5.05235Q18.5886 -7.61583 19.4872 -8.962Q20.3857 -10.3082 22.0879 -10.3082ZM30.9245 -9.22309Q29.8665 -9.22309 29.3342 -8.1821Q28.8018 -7.14111 28.8018 -5.05235Q28.8018 -2.97038 29.3342 -1.92939Q29.8665 -0.888401 30.9245 -0.888401Q31.9892 -0.888401 32.5216 -1.92939Q33.0539 -2.97038 33.0539 -5.05235Q33.0539 -7.14111 32.5216 -8.1821Q31.9892 -9.22309 30.9245 -9.22309ZM30.9245 -10.3082Q32.6267 -10.3082 33.5253 -8.962Q34.4238 -7.61583 34.4238 -5.05235Q34.4238 -2.49566 33.5253 -1.1495Q32.6267 0.196669 30.9245 0.196669Q29.2223 0.196669 28.3237 -1.1495Q27.4251 -2.49566 27.4251 -5.05235Q27.4251 -7.61583 28.3237 -8.962Q29.2223 -10.3082 30.9245 -10.3082Z" fill="#262626" transform="translate(128.27777777777777,121.61904761904759) translate(-35.34613800048828,0)" />
<line x1="133.13888888888889" y1="84.88095238095235" x2="138.4" y2="84.88095238095235" stroke="#262626" stroke-width="1.1111111111111112" />
<path d="M1.72255 -1.15289L3.9605 -1.15289L3.9605 -8.87722L1.52588 -8.38894L1.52588 -9.63677L3.94694 -10.1251L5.31684 -10.1251L5.31684 -1.15289L7.5548 -1.15289L7.5548 0L1.72255 0L1.72255 -1.15289ZM10.5591 -1.15289L12.797 -1.15289L12.797 -8.87722L10.3624 -8.38894L10.3624 -9.63677L12.7835 -10.1251L14.1534 -10.1251L14.1534 -1.15289L16.3913 -1.15289L16.3913 0L10.5591 0L10.5591 -1.15289ZM22.0879 -9.22309Q21.03 -9.22309 20.4976 -8.1821Q19.9653 -7.14111 19.9653 -5.05235Q19.9653 -2.97038 20.4976 -1.92939Q21.03 -0.888401 22.0879 -0.888401Q23.1527 -0.888401 23.685 -1.92939Q24.2174 -2.97038 24.2174 -5.05235Q24.2174 -7.14111 23.685 -8.1821Q23.1527 -9.22309 22.0879 -9.22309ZM22.0879 -10.3082Q23.7901 -10.3082 24.6887 -8.962Q25.5873 -7.61583 25.5873 -5.05235Q25.5873 -2.49566 24.6887 -1.1495Q23.7901 0.196669 22.0879 0.196669Q20.3857 0.196669 19.4872 -1.1495Q18.5886 -2.49566 18.5886 -5.05235Q18.5886 -7.61583 19.4872 -8.962Q20.3857 -10.3082 22.0879 -10.3082ZM30.9245 -9.22309Q29.8665 -9.22309 29.3342 -8.1821Q28.8018 -7.14111 28.8018 -5.05235Q28.8018 -2.97038 29.3342 -1.92939Q29.8665 -0.888401 30.9245 -0.888401Q31.9892 -0.888401 32.5216 -1.92939Q33.0539 -2.97038 33.0539 -5.05235Q33.0539 -7.14111 32.5216 -8.1821Q31.9892 -9.22309 30.9245 -9.22309ZM30.9245 -10.3082Q32.6267 -10.3082 33.5253 -8.962Q34.4238 -7.61583 34.4238 -5.05235Q34.4238 -2.49566 33.5253 -1.1495Q32.6267 0.196669 30.9245 0.196669Q29.2223 0.196669 28.3237 -1.1495Q27.4251 -2.49566 27.4251 -5.05235Q27.4251 -7.61583 28.3237 -8.962Q29.2223 -10.3082 30.9245 -10.3082Z" fill="#262626" transform="translate(128.27777777777777,88.88095238095235) translate(-35.34613800048828,0)" />
<rect x="151.1076923076923" y="405.7142857142857" width="39.32307692307694" height="39.28571428571428" fill="#2ECC71" />
<line x1="190.43076923076924" y1="405.7142857142857" x2="216.64615384615385" y2="405.7142857142857" stroke="#808080" stroke-width="0.5" stroke-dasharray="5,2" />
<rect x="216.64615384615385" y="405.7142857142857" width="39.32307692307691" height="14.732142857142833" fill="#E74C3C" />
<line x1="255.96923076923076" y1="420.44642857142856" x2="282.18461538461537" y2="420.44642857142856" stroke="#808080" stroke-width="0.5" stroke-dasharray="5,2" />
<rect x="282.18461538461537" y="394.2559523809524" width="39.32307692307694" height="26.190476190476147" fill="#2ECC71" />
<line x1="321.5076923076923" y1="394.2559523809524" x2="347.7230769230769" y2="394.2559523809524" stroke="#808080" stroke-width="0.5" stroke-dasharray="5,2" />
<rect x="347.7230769230769" y="394.2559523809524" width="39.32307692307694" height="9.821428571428555" fill="#E74C3C" />
<line x1="387.04615384615386" y1="404.07738095238096" x2="413.26153846153846" y2="404.07738095238096" stroke="#808080" stroke-width="0.5" stroke-dasharray="5,2" />
<rect x="413.26153846153846" y="372.9761904761905" width="39.32307692307688" height="31.10119047619048" fill="#2ECC71" />
<line x1="452.58461538461535" y1="372.9761904761905" x2="478.8" y2="372.9761904761905" stroke="#808080" stroke-width="0.5" stroke-dasharray="5,2" />
<rect x="478.8" y="353.3333333333333" width="39.32307692307694" height="19.642857142857167" fill="#2ECC71" />
<line x1="518.123076923077" y1="353.3333333333333" x2="544.3384615384615" y2="353.3333333333333" stroke="#808080" stroke-width="0.5" stroke-dasharray="5,2" />
<rect x="544.3384615384615" y="353.3333333333333" width="39.32307692307688" height="6.547619047619094" fill="#E74C3C" />
<line x1="583.6615384615384" y1="359.8809523809524" x2="609.876923076923" y2="359.8809523809524" stroke="#808080" stroke-width="0.5" stroke-dasharray="5,2" />
<rect x="609.876923076923" y="323.8690476190476" width="39.32307692307688" height="36.011904761904816" fill="#2ECC71" />
<line x1="649.1999999999999" y1="323.8690476190476" x2="675.4153846153846" y2="323.8690476190476" stroke="#808080" stroke-width="0.5" stroke-dasharray="5,2" />
<rect x="675.4153846153846" y="323.8690476190476" width="39.32307692307688" height="18.005952380952408" fill="#E74C3C" />
<line x1="714.7384615384615" y1="341.875" x2="740.9538461538461" y2="341.875" stroke="#808080" stroke-width="0.5" stroke-dasharray="5,2" />
<rect x="740.9538461538461" y="317.32142857142856" width="39.323076923077" height="24.553571428571445" fill="#2ECC71" />
<line x1="780.2769230769231" y1="317.32142857142856" x2="806.4923076923076" y2="317.32142857142856" stroke="#808080" stroke-width="0.5" stroke-dasharray="5,2" />
<rect x="806.4923076923076" y="304.2261904761905" width="39.323076923077" height="13.095238095238074" fill="#2ECC71" />
<line x1="845.8153846153846" y1="304.2261904761905" x2="872.0307692307692" y2="304.2261904761905" stroke="#808080" stroke-width="0.5" stroke-dasharray="5,2" />
<rect x="872.0307692307692" y="261.66666666666663" width="39.323076923077" height="42.55952380952385" fill="#2ECC71" />
<line x1="911.3538461538462" y1="261.66666666666663" x2="937.5692307692307" y2="261.66666666666663" stroke="#808080" stroke-width="0.5" stroke-dasharray="5,2" />
<rect x="937.5692307692307" y="78.33333333333331" width="39.323076923077" height="183.33333333333331" fill="#2ECC71" />
<g class="spine">
<line x1="138" y1="445" x2="990" y2="445" stroke="#262626" stroke-width="0.8" />
</g>
<g class="spine">
<line x1="138" y1="60" x2="990" y2="60" stroke="#262626" stroke-width="0.8" />
</g>
<g class="spine">
<line x1="138" y1="60" x2="138" y2="445" stroke="#262626" stroke-width="0.8" />
</g>
<g class="spine">
<line x1="990" y1="60" x2="990" y2="445" stroke="#262626" stroke-width="0.8" />
</g>
<path d="M2.73302 -8.9993L2.73302 -5.19477L4.45557 -5.19477Q5.41178 -5.19477 5.93397 -5.68983Q6.45616 -6.1849 6.45616 -7.10042Q6.45616 -8.00917 5.93397 -8.50423Q5.41178 -8.9993 4.45557 -8.9993L2.73302 -8.9993ZM1.36312 -10.1251L4.45557 -10.1251Q6.15777 -10.1251 7.02922 -9.35533Q7.90066 -8.58561 7.90066 -7.10042Q7.90066 -5.60167 7.02922 -4.83534Q6.15777 -4.06901 4.45557 -4.06901L2.73302 -4.06901L2.73302 0L1.36312 0L1.36312 -10.1251ZM11.7527 -5.44569Q11.1355 -4.89638 10.8473 -4.35045Q10.5591 -3.80452 10.5591 -3.20774Q10.5591 -2.21761 11.2779 -1.55979Q11.9968 -0.901964 13.0819 -0.901964Q13.7261 -0.901964 14.289 -1.11559Q14.8519 -1.32921 15.347 -1.76324L11.7527 -5.44569ZM12.7089 -6.20524L16.154 -2.67877Q16.5541 -3.28234 16.7779 -3.97068Q17.0017 -4.65902 17.0424 -5.43213L18.3038 -5.43213Q18.2224 -4.53695 17.8697 -3.66211Q17.5171 -2.78727 16.8864 -1.93278L18.7785 0L17.0695 0L16.0997 -0.996908Q15.3944 -0.393338 14.6213 -0.0983344Q13.8482 0.196669 12.9598 0.196669Q11.3254 0.196669 10.2878 -0.735813Q9.25022 -1.66829 9.25022 -3.12636Q9.25022 -3.99441 9.70459 -4.75735Q10.159 -5.52029 11.0677 -6.19168Q10.7422 -6.61892 10.5726 -7.04278Q10.4031 -7.46663 10.4031 -7.87354Q10.4031 -8.97217 11.1559 -9.64016Q11.9086 -10.3082 13.1565 -10.3082Q13.7193 -10.3082 14.2788 -10.1861Q14.8383 -10.064 15.4148 -9.81988L15.4148 -8.58561Q14.8248 -8.90435 14.289 -9.0705Q13.7533 -9.23665 13.2921 -9.23665Q12.58 -9.23665 12.1358 -8.86027Q11.6916 -8.48389 11.6916 -7.8871Q11.6916 -7.54123 11.8917 -7.19198Q12.0917 -6.84272 12.7089 -6.20524ZM20.5688 -10.1251L21.9387 -10.1251L21.9387 -1.15289L26.869 -1.15289L26.869 0L20.5688 0L20.5688 -10.1251ZM35.6649 -10.5387Q34.7561 -8.97895 34.3153 -7.45307Q33.8745 -5.92719 33.8745 -4.36062Q33.8745 -2.79405 34.3187 -1.258Q34.7629 0.278049 35.6649 1.83105L34.5798 1.83105Q33.5626 0.237359 33.0573 -1.30208Q32.5521 -2.84153 32.5521 -4.36062Q32.5521 -5.87294 33.0539 -7.4056Q33.5558 -8.93826 34.5798 -10.5387L35.6649 -10.5387ZM44.6913 -9.34516L44.6913 -7.90066Q44.0742 -8.61274 43.5011 -8.91791Q42.9281 -9.22309 42.2363 -9.22309Q41.1716 -9.22309 40.4867 -8.54492Q39.8017 -7.86675 39.5847 -6.59858L43.4977 -6.59858L43.1247 -5.76443L39.4762 -5.76443Q39.4626 -5.60167 39.4592 -5.44569Q39.4558 -5.28971 39.4558 -5.05235Q39.4558 -4.83534 39.4592 -4.67936Q39.4626 -4.52338 39.4762 -4.36062L42.5008 -4.36062L42.121 -3.52648L39.5847 -3.52648Q39.8017 -2.2583 40.4867 -1.57335Q41.1716 -0.888401 42.2363 -0.888401Q42.9281 -0.888401 43.5011 -1.19358Q44.0742 -1.49875 44.6913 -2.21083L44.6913 -0.779894Q44.0877 -0.291612 43.4604 -0.0474718Q42.8331 0.196669 42.1821 0.196669Q40.5748 0.196669 39.5271 -0.786675Q38.4793 -1.77002 38.208 -3.52648L36.7771 -3.52648L37.1501 -4.36062L38.0927 -4.36062Q38.0927 -4.5166 38.0893 -4.67597Q38.0859 -4.83534 38.0859 -5.05235Q38.0859 -5.28971 38.0893 -5.44908Q38.0927 -5.60845 38.0927 -5.76443L36.7771 -5.76443L37.1501 -6.59858L38.208 -6.59858Q38.4793 -8.34147 39.5304 -9.32482Q40.5816 -10.3082 42.1821 -10.3082Q42.8467 -10.3082 43.474 -10.0674Q44.1013 -9.82666 44.6913 -9.34516ZM46.875 -10.5523L48.1296 -10.5523L48.1296 -4.31993L51.8528 -7.59549L53.4465 -7.59549L49.4181 -4.04188L53.616 0L51.9884 0L48.1296 -3.70958L48.1296 0L46.875 0L46.875 -10.5523ZM54.7689 -10.5387L55.854 -10.5387Q56.8712 -8.93826 57.3764 -7.4056Q57.8817 -5.87294 57.8817 -4.36062Q57.8817 -2.84153 57.3764 -1.30208Q56.8712 0.237359 55.854 1.83105L54.7689 1.83105Q55.6708 0.278049 56.115 -1.258Q56.5592 -2.79405 56.5592 -4.36062Q56.5592 -5.92719 56.115 -7.45307Q55.6708 -8.97895 54.7689 -10.5387Z" fill="#262626" transform="translate(80.93163977728949,252.5) rotate(-90) translate(-29.53762435913086,0)" />
</svg>
