<svg xmlns="http://www.w3.org/2000/svg" viewBox="0 0 600 600" width="600" height="600" style="width:100%;height:auto" role="img" aria-labelledby="chart-title">
<title id="chart-title">Wind Rose</title>
<rect x="0" y="0" width="600" height="600" fill="#FFFFFF" />
<path d="M0.532823 -13.0411L3.75597 -13.0411L6.00955 -3.5638L8.24566 -13.0411L11.4863 -13.0411L13.7224 -3.5638L15.976 -13.0411L19.1729 -13.0411L16.0983 0L12.22 0L9.85287 -9.91401L7.51194 0L3.63368 0L0.532823 -13.0411ZM21.2343 -9.78299L24.3614 -9.78299L24.3614 0L21.2343 0L21.2343 -9.78299ZM21.2343 -13.5914L24.3614 -13.5914L24.3614 -11.0408L21.2343 -11.0408L21.2343 -13.5914ZM37.2016 -5.95714L37.2016 0L34.057 0L34.057 -0.969564L34.057 -4.55957Q34.057 -5.82612 34.0002 -6.30653Q33.9435 -6.78695 33.8037 -7.01405Q33.6203 -7.31977 33.3058 -7.4901Q32.9914 -7.66043 32.5896 -7.66043Q31.6113 -7.66043 31.0522 -6.90487Q30.4932 -6.14931 30.4932 -4.81288L30.4932 0L27.3662 0L27.3662 -9.78299L30.4932 -9.78299L30.4932 -8.35048Q31.2007 -9.20649 31.9956 -9.61266Q32.7905 -10.0188 33.7513 -10.0188Q35.4459 -10.0188 36.3237 -8.97938Q37.2016 -7.93994 37.2016 -5.95714ZM46.7574 -8.35048L46.7574 -13.5914L49.902 -13.5914L49.902 0L46.7574 0L46.7574 -1.41504Q46.1111 -0.550293 45.3337 -0.148492Q44.5563 0.253309 43.5343 0.253309Q41.7262 0.253309 40.5645 -1.18357Q39.4027 -2.62044 39.4027 -4.88276Q39.4027 -7.14507 40.5645 -8.58195Q41.7262 -10.0188 43.5343 -10.0188Q44.5475 -10.0188 45.3293 -9.61266Q46.1111 -9.20649 46.7574 -8.35048ZM44.696 -2.01774Q45.7005 -2.01774 46.229 -2.75146Q46.7574 -3.48519 46.7574 -4.88276Q46.7574 -6.28033 46.229 -7.01405Q45.7005 -7.74778 44.696 -7.74778Q43.7002 -7.74778 43.1718 -7.01405Q42.6433 -6.28033 42.6433 -4.88276Q42.6433 -3.48519 43.1718 -2.75146Q43.7002 -2.01774 44.696 -2.01774ZM64.0524 -7.25863Q65.1093 -7.25863 65.5678 -7.65169Q66.0264 -8.04476 66.0264 -8.94444Q66.0264 -9.83539 65.5678 -10.2197Q65.1093 -10.6041 64.0524 -10.6041L62.6373 -10.6041L62.6373 -7.25863L64.0524 -7.25863ZM62.6373 -4.93517L62.6373 0L59.2744 0L59.2744 -13.0411L64.4105 -13.0411Q66.9873 -13.0411 68.1883 -12.1763Q69.3893 -11.3116 69.3893 -9.44233Q69.3893 -8.14958 68.7648 -7.31977Q68.1402 -6.48996 66.8824 -6.0969Q67.5725 -5.93967 68.1184 -5.38501Q68.6643 -4.83035 69.2234 -3.70356L71.0489 0L67.4677 0L65.8779 -3.24061Q65.3975 -4.21891 64.904 -4.57704Q64.4105 -4.93517 63.5894 -4.93517L62.6373 -4.93517ZM77.5651 -7.78271Q76.5257 -7.78271 75.9797 -7.03589Q75.4338 -6.28906 75.4338 -4.88276Q75.4338 -3.47645 75.9797 -2.72963Q76.5257 -1.9828 77.5651 -1.9828Q78.5871 -1.9828 79.1286 -2.72963Q79.6702 -3.47645 79.6702 -4.88276Q79.6702 -6.28906 79.1286 -7.03589Q78.5871 -7.78271 77.5651 -7.78271ZM77.5651 -10.0188Q80.0895 -10.0188 81.5089 -8.6562Q82.9283 -7.29357 82.9283 -4.88276Q82.9283 -2.47195 81.5089 -1.10932Q80.0895 0.253309 77.5651 0.253309Q75.032 0.253309 73.6039 -1.10932Q72.1757 -2.47195 72.1757 -4.88276Q72.1757 -7.29357 73.6039 -8.6562Q75.032 -10.0188 77.5651 -10.0188ZM92.8423 -9.47727L92.8423 -7.1014Q91.8378 -7.52067 90.9032 -7.73031Q89.9685 -7.93994 89.1387 -7.93994Q88.2478 -7.93994 87.8154 -7.7172Q87.383 -7.49447 87.383 -7.03152Q87.383 -6.65592 87.7106 -6.45502Q88.0381 -6.25412 88.8854 -6.15804L89.4357 -6.07943Q91.8378 -5.77371 92.6676 -5.07492Q93.4974 -4.37614 93.4974 -2.88249Q93.4974 -1.31896 92.3444 -0.532823Q91.1914 0.253309 88.9029 0.253309Q87.9333 0.253309 86.8983 0.10045Q85.8632 -0.0524089 84.7713 -0.358127L84.7713 -2.734Q85.7059 -2.27978 86.6886 -2.05268Q87.6713 -1.82557 88.6845 -1.82558Q89.6017 -1.82558 90.0646 -2.07888Q90.5276 -2.33219 90.5276 -2.83008Q90.5276 -3.24935 90.2087 -3.45462Q89.8899 -3.65989 88.9378 -3.77344L88.3875 -3.84332Q86.2999 -4.10536 85.4614 -4.81288Q84.6228 -5.5204 84.6228 -6.96164Q84.6228 -8.51644 85.6885 -9.26763Q86.7541 -10.0188 88.9553 -10.0188Q89.82 -10.0188 90.7721 -9.8878Q91.7242 -9.75678 92.8423 -9.47727ZM105.613 -4.9177L105.613 -4.02675L98.3016 -4.02675Q98.4151 -2.92616 99.0964 -2.37587Q99.7777 -1.82558 101.001 -1.82558Q101.988 -1.82558 103.023 -2.11819Q104.058 -2.41081 105.15 -3.00477L105.15 -0.593967Q104.04 -0.174696 102.931 0.0393066Q101.822 0.253309 100.712 0.253309Q98.057 0.253309 96.5852 -1.09622Q95.1133 -2.44575 95.1133 -4.88276Q95.1133 -7.2761 96.559 -8.64746Q98.0046 -10.0188 100.538 -10.0188Q102.844 -10.0188 104.228 -8.62999Q105.613 -7.24116 105.613 -4.9177ZM102.398 -5.95714Q102.398 -6.84809 101.878 -7.39402Q101.359 -7.93994 100.52 -7.93994Q99.6118 -7.93994 99.044 -7.42896Q98.4762 -6.91797 98.3365 -5.95714L102.398 -5.95714Z" fill="#262626" transform="translate(300,24.099999999999998) translate(-53.23866653442383,0)" />
<rect x="75" y="72" width="465" height="462" fill="#FFFFFF" />
<ellipse cx="307.5" cy="303" rx="39.27" ry="39.27" fill="none" stroke="#CCCCCC" stroke-width="0.5" />
<path d="M1.72255 -1.15289L3.9605 -1.15289L3.9605 -8.87722L1.52588 -8.38894L1.52588 -9.63677L3.94694 -10.1251L5.31684 -10.1251L5.31684 -1.15289L7.5548 -1.15289L7.5548 0L1.72255 0L1.72255 -1.15289ZM10.3217 -1.72255L11.7527 -1.72255L11.7527 0L10.3217 0L10.3217 -1.72255ZM14.7502 -10.1251L20.128 -10.1251L20.128 -8.97217L16.0048 -8.97217L16.0048 -6.49007Q16.3032 -6.5918 16.6016 -6.64266Q16.9 -6.69352 17.1984 -6.69352Q18.8938 -6.69352 19.8839 -5.76443Q20.874 -4.83534 20.874 -3.24843Q20.874 -1.61404 19.8568 -0.708686Q18.8395 0.196669 16.9881 0.196669Q16.3506 0.196669 15.6894 0.0881619C15.2486 0.0158239 14.7931 -0.092683 14.3229 -0.237359L14.3229 -1.61404Q14.9333 -1.28174 15.5843 -1.11898Q16.2354 -0.956217 16.961 -0.956217Q18.1342 -0.956217 18.8192 -1.57335Q19.5041 -2.19048 19.5041 -3.24843Q19.5041 -4.30637 18.8192 -4.9235Q18.1342 -5.54064 16.961 -5.54064Q16.4117 -5.54064 15.8658 -5.41857Q15.3198 -5.2965 14.7502 -5.03879L14.7502 -10.1251ZM26.5028 -4.80821Q25.5263 -4.80821 24.9668 -4.28602Q24.4073 -3.76383 24.4073 -2.84831Q24.4073 -1.93278 24.9668 -1.41059Q25.5263 -0.888401 26.5028 -0.888401Q27.4794 -0.888401 28.0423 -1.41398Q28.6051 -1.93956 28.6051 -2.84831Q28.6051 -3.76383 28.0457 -4.28602Q27.4862 -4.80821 26.5028 -4.80821ZM25.1329 -5.39144Q24.2513 -5.60845 23.7596 -6.21202Q23.268 -6.81559 23.268 -7.68365Q23.268 -8.89757 24.1326 -9.60287Q24.9973 -10.3082 26.5028 -10.3082Q28.0151 -10.3082 28.8764 -9.60287Q29.7377 -8.89757 29.7377 -7.68365Q29.7377 -6.81559 29.246 -6.21202Q28.7543 -5.60845 27.8795 -5.39144Q28.8696 -5.16086 29.4223 -4.48947Q29.975 -3.81809 29.975 -2.84831Q29.975 -1.37668 29.0765 -0.590007Q28.1779 0.196669 26.5028 0.196669Q24.8277 0.196669 23.9292 -0.590007Q23.0306 -1.37668 23.0306 -2.84831Q23.0306 -3.81809 23.5867 -4.48947Q24.1428 -5.16086 25.1329 -5.39144ZM24.6311 -7.5548Q24.6311 -6.76812 25.1227 -6.32731Q25.6144 -5.8865 26.5028 -5.8865Q27.3844 -5.8865 27.8829 -6.32731Q28.3813 -6.76812 28.3813 -7.5548Q28.3813 -8.34147 27.8829 -8.78228Q27.3844 -9.22309 26.5028 -9.22309Q25.6144 -9.22309 25.1227 -8.78228Q24.6311 -8.34147 24.6311 -7.5548ZM36.1735 -8.93148L32.7148 -3.52648L36.1735 -3.52648L36.1735 -8.93148ZM35.8141 -10.1251L37.5366 -10.1251L37.5366 -3.52648L38.9811 -3.52648L38.9811 -2.38715L37.5366 -2.38715L37.5366 0L36.1735 0L36.1735 -2.38715L31.6026 -2.38715L31.6026 -3.70958L35.8141 -10.1251Z" fill="#262626" transform="translate(350.77,307)" />
<ellipse cx="307.5" cy="303" rx="78.54" ry="78.54" fill="none" stroke="#CCCCCC" stroke-width="0.5" />
<path d="M5.63558 -5.45926Q6.61892 -5.24902 7.17163 -4.58442Q7.72434 -3.91981 7.72434 -2.94325Q7.72434 -1.4445 6.69352 -0.623915Q5.66271 0.196669 3.76383 0.196669Q3.12636 0.196669 2.45158 0.0712077Q1.7768 -0.0542535 1.05794 -0.305176L1.05794 -1.6276Q1.6276 -1.2953 2.30577 -1.12576Q2.98394 -0.956217 3.72314 -0.956217Q5.01166 -0.956217 5.68644 -1.46484Q6.36122 -1.97347 6.36122 -2.94325Q6.36122 -3.83843 5.73391 -4.34367Q5.10661 -4.8489 3.98763 -4.8489L2.80762 -4.8489L2.80762 -5.97466L4.04188 -5.97466Q5.05235 -5.97466 5.58811 -6.37817Q6.12386 -6.78168 6.12386 -7.54123Q6.12386 -8.32113 5.57115 -8.7382Q5.01845 -9.15527 3.98763 -9.15527Q3.42475 -9.15527 2.78049 -9.0332Q2.13623 -8.91113 1.36312 -8.65343L1.36312 -9.87413Q2.14301 -10.0911 2.82457 -10.1997Q3.50613 -10.3082 4.1097 -10.3082Q5.66949 -10.3082 6.57823 -9.59947Q7.48698 -8.89079 7.48698 -7.68365Q7.48698 -6.84272 7.00548 -6.26289Q6.52398 -5.68305 5.63558 -5.45926ZM10.3217 -1.72255L11.7527 -1.72255L11.7527 0L10.3217 0L10.3217 -1.72255ZM14.974 -1.15289L17.2119 -1.15289L17.2119 -8.87722L14.7773 -8.38894L14.7773 -9.63677L17.1984 -10.1251L18.5683 -10.1251L18.5683 -1.15289L20.8062 -1.15289L20.8062 0L14.974 0L14.974 -1.15289ZM26.6724 -5.60845Q25.7501 -5.60845 25.2109 -4.97776Q24.6718 -4.34706 24.6718 -3.24843Q24.6718 -2.15658 25.2109 -1.52249Q25.7501 -0.888401 26.6724 -0.888401Q27.5947 -0.888401 28.1338 -1.52249Q28.673 -2.15658 28.673 -3.24843Q28.673 -4.34706 28.1338 -4.97776Q27.5947 -5.60845 26.6724 -5.60845ZM29.3918 -9.90126L29.3918 -8.65343Q28.8764 -8.89757 28.3508 -9.02642Q27.8253 -9.15527 27.3098 -9.15527Q25.9535 -9.15527 25.238 -8.23975Q24.5226 -7.32422 24.4208 -5.47282Q24.821 -6.06282 25.4245 -6.37817Q26.0281 -6.69352 26.7537 -6.69352Q28.2796 -6.69352 29.1646 -5.76782Q30.0496 -4.84212 30.0496 -3.24843Q30.0496 -1.68864 29.1273 -0.745985Q28.205 0.196669 26.6724 0.196669Q24.9159 0.196669 23.9868 -1.1495Q23.0577 -2.49566 23.0577 -5.05235Q23.0577 -7.45307 24.1971 -8.88062Q25.3364 -10.3082 27.2556 -10.3082Q27.771 -10.3082 28.2966 -10.2064Q28.8222 -10.1047 29.3918 -9.90126ZM35.3394 -4.80821Q34.3628 -4.80821 33.8033 -4.28602Q33.2438 -3.76383 33.2438 -2.84831Q33.2438 -1.93278 33.8033 -1.41059Q34.3628 -0.888401 35.3394 -0.888401Q36.3159 -0.888401 36.8788 -1.41398Q37.4417 -1.93956 37.4417 -2.84831Q37.4417 -3.76383 36.8822 -4.28602Q36.3227 -4.80821 35.3394 -4.80821ZM33.9695 -5.39144Q33.0878 -5.60845 32.5962 -6.21202Q32.1045 -6.81559 32.1045 -7.68365Q32.1045 -8.89757 32.9692 -9.60287Q33.8338 -10.3082 35.3394 -10.3082Q36.8517 -10.3082 37.7129 -9.60287Q38.5742 -8.89757 38.5742 -7.68365Q38.5742 -6.81559 38.0826 -6.21202Q37.5909 -5.60845 36.716 -5.39144Q37.7062 -5.16086 38.2589 -4.48947Q38.8116 -3.81809 38.8116 -2.84831Q38.8116 -1.37668 37.913 -0.590007Q37.0144 0.196669 35.3394 0.196669Q33.6643 0.196669 32.7657 -0.590007Q31.8671 -1.37668 31.8671 -2.84831Q31.8671 -3.81809 32.4232 -4.48947Q32.9793 -5.16086 33.9695 -5.39144ZM33.4676 -7.5548Q33.4676 -6.76812 33.9593 -6.32731Q34.451 -5.8865 35.3394 -5.8865Q36.221 -5.8865 36.7194 -6.32731Q37.2179 -6.76812 37.2179 -7.5548Q37.2179 -8.34147 36.7194 -8.78228Q36.221 -9.22309 35.3394 -9.22309Q34.451 -9.22309 33.9593 -8.78228Q33.4676 -8.34147 33.4676 -7.5548Z" fill="#262626" transform="translate(390.04,307)" />
<ellipse cx="307.5" cy="303" rx="117.80999999999999" ry="117.80999999999999" fill="none" stroke="#CCCCCC" stroke-width="0.5" />
<path d="M5.24902 -8.93148L1.79036 -3.52648L5.24902 -3.52648L5.24902 -8.93148ZM4.88959 -10.1251L6.61214 -10.1251L6.61214 -3.52648L8.05664 -3.52648L8.05664 -2.38715L6.61214 -2.38715L6.61214 0L5.24902 0L5.24902 -2.38715L0.678168 -2.38715L0.678168 -3.70958L4.88959 -10.1251ZM10.3217 -1.72255L11.7527 -1.72255L11.7527 0L10.3217 0L10.3217 -1.72255ZM14.3907 -10.1251L20.9012 -10.1251L20.9012 -9.54183L17.2255 0L15.7945 0L19.2532 -8.97217L14.3907 -8.97217L14.3907 -10.1251ZM23.5867 -10.1251L28.9646 -10.1251L28.9646 -8.97217L24.8413 -8.97217L24.8413 -6.49007Q25.1397 -6.5918 25.4381 -6.64266Q25.7365 -6.69352 26.0349 -6.69352Q27.7303 -6.69352 28.7204 -5.76443Q29.7106 -4.83534 29.7106 -3.24843Q29.7106 -1.61404 28.6933 -0.708686Q27.6761 0.196669 25.8247 0.196669Q25.1872 0.196669 24.526 0.0881619C24.0852 0.0158239 23.6296 -0.092683 23.1595 -0.237359L23.1595 -1.61404Q23.7698 -1.28174 24.4208 -1.11898Q25.0719 -0.956217 25.7975 -0.956217Q26.9708 -0.956217 27.6557 -1.57335Q28.3407 -2.19048 28.3407 -3.24843Q28.3407 -4.30637 27.6557 -4.9235Q26.9708 -5.54064 25.7975 -5.54064Q25.2482 -5.54064 24.7023 -5.41857Q24.1564 -5.2965 23.5867 -5.03879L23.5867 -10.1251ZM33.5897 -1.15289L38.3708 -1.15289L38.3708 0L31.9417 0L31.9417 -1.15289Q32.7216 -1.95991 34.0678 -3.31963Q35.414 -4.67936 35.7598 -5.0727Q36.4176 -5.8119 36.6787 -6.32392Q36.9398 -6.83594 36.9398 -7.331Q36.9398 -8.13802 36.3736 -8.64665Q35.8073 -9.15527 34.8985 -9.15527Q34.2543 -9.15527 33.5388 -8.93148Q32.8234 -8.70768 32.0095 -8.25331L32.0095 -9.63677Q32.8369 -9.96908 33.5558 -10.1386Q34.2746 -10.3082 34.8714 -10.3082Q36.4448 -10.3082 37.3806 -9.52148Q38.3165 -8.73481 38.3165 -7.41916Q38.3165 -6.79525 38.0826 -6.23576Q37.8486 -5.67627 37.2314 -4.91672Q37.0619 -4.72005 36.1532 -3.78079Q35.2444 -2.84153 33.5897 -1.15289Z" fill="#262626" transform="translate(429.31,307)" />
<ellipse cx="307.5" cy="303" rx="157.08" ry="157.08" fill="none" stroke="#CCCCCC" stroke-width="0.5" />
<path d="M4.58442 -5.60845Q3.66211 -5.60845 3.12297 -4.97776Q2.58382 -4.34706 2.58382 -3.24843Q2.58382 -2.15658 3.12297 -1.52249Q3.66211 -0.888401 4.58442 -0.888401Q5.50673 -0.888401 6.04587 -1.52249Q6.58502 -2.15658 6.58502 -3.24843Q6.58502 -4.34706 6.04587 -4.97776Q5.50673 -5.60845 4.58442 -5.60845ZM7.30387 -9.90126L7.30387 -8.65343Q6.78847 -8.89757 6.26289 -9.02642Q5.7373 -9.15527 5.2219 -9.15527Q3.86556 -9.15527 3.15009 -8.23975Q2.43462 -7.32422 2.3329 -5.47282Q2.73302 -6.06282 3.33659 -6.37817Q3.94016 -6.69352 4.6658 -6.69352Q6.19168 -6.69352 7.07669 -5.76782Q7.9617 -4.84212 7.9617 -3.24843Q7.9617 -1.68864 7.03939 -0.745985Q6.11708 0.196669 4.58442 0.196669Q2.82796 0.196669 1.89887 -1.1495Q0.969781 -2.49566 0.969781 -5.05235Q0.969781 -7.45307 2.1091 -8.88062Q3.24843 -10.3082 5.16764 -10.3082Q5.68305 -10.3082 6.20863 -10.2064Q6.73421 -10.1047 7.30387 -9.90126ZM10.3217 -1.72255L11.7527 -1.72255L11.7527 0L10.3217 0L10.3217 -1.72255ZM18.887 -5.45926Q19.8703 -5.24902 20.423 -4.58442Q20.9757 -3.91981 20.9757 -2.94325Q20.9757 -1.4445 19.9449 -0.623915Q18.9141 0.196669 17.0152 0.196669Q16.3778 0.196669 15.703 0.0712077Q15.0282 -0.0542535 14.3094 -0.305176L14.3094 -1.6276Q14.879 -1.2953 15.5572 -1.12576Q16.2354 -0.956217 16.9746 -0.956217Q18.2631 -0.956217 18.9379 -1.46484Q19.6126 -1.97347 19.6126 -2.94325Q19.6126 -3.83843 18.9853 -4.34367Q18.358 -4.8489 17.239 -4.8489L16.059 -4.8489L16.059 -5.97466L17.2933 -5.97466Q18.3038 -5.97466 18.8395 -6.37817Q19.3753 -6.78168 19.3753 -7.54123Q19.3753 -8.32113 18.8226 -8.7382Q18.2699 -9.15527 17.239 -9.15527Q16.6762 -9.15527 16.0319 -9.0332Q15.3876 -8.91113 14.6145 -8.65343L14.6145 -9.87413Q15.3944 -10.0911 16.076 -10.1997Q16.7575 -10.3082 17.3611 -10.3082Q18.9209 -10.3082 19.8296 -9.59947Q20.7384 -8.89079 20.7384 -7.68365Q20.7384 -6.84272 20.2569 -6.26289Q19.7754 -5.68305 18.887 -5.45926ZM27.7235 -5.45926Q28.7069 -5.24902 29.2596 -4.58442Q29.8123 -3.91981 29.8123 -2.94325Q29.8123 -1.4445 28.7815 -0.623915Q27.7507 0.196669 25.8518 0.196669Q25.2143 0.196669 24.5395 0.0712077Q23.8647 -0.0542535 23.1459 -0.305176L23.1459 -1.6276Q23.7155 -1.2953 24.3937 -1.12576Q25.0719 -0.956217 25.8111 -0.956217Q27.0996 -0.956217 27.7744 -1.46484Q28.4492 -1.97347 28.4492 -2.94325Q28.4492 -3.83843 27.8219 -4.34367Q27.1946 -4.8489 26.0756 -4.8489L24.8956 -4.8489L24.8956 -5.97466L26.1298 -5.97466Q27.1403 -5.97466 27.6761 -6.37817Q28.2118 -6.78168 28.2118 -7.54123Q28.2118 -8.32113 27.6591 -8.7382Q27.1064 -9.15527 26.0756 -9.15527Q25.5127 -9.15527 24.8684 -9.0332Q24.2242 -8.91113 23.4511 -8.65343L23.4511 -9.87413Q24.231 -10.0911 24.9125 -10.1997Q25.5941 -10.3082 26.1976 -10.3082Q27.7574 -10.3082 28.6662 -9.59947Q29.5749 -8.89079 29.5749 -7.68365Q29.5749 -6.84272 29.0934 -6.26289Q28.6119 -5.68305 27.7235 -5.45926ZM35.5089 -5.60845Q34.5866 -5.60845 34.0474 -4.97776Q33.5083 -4.34706 33.5083 -3.24843Q33.5083 -2.15658 34.0474 -1.52249Q34.5866 -0.888401 35.5089 -0.888401Q36.4312 -0.888401 36.9704 -1.52249Q37.5095 -2.15658 37.5095 -3.24843Q37.5095 -4.34706 36.9704 -4.97776Q36.4312 -5.60845 35.5089 -5.60845ZM38.2284 -9.90126L38.2284 -8.65343Q37.7129 -8.89757 37.1874 -9.02642Q36.6618 -9.15527 36.1464 -9.15527Q34.79 -9.15527 34.0746 -8.23975Q33.3591 -7.32422 33.2574 -5.47282Q33.6575 -6.06282 34.2611 -6.37817Q34.8646 -6.69352 35.5903 -6.69352Q37.1162 -6.69352 38.0012 -5.76782Q38.8862 -4.84212 38.8862 -3.24843Q38.8862 -1.68864 37.9639 -0.745985Q37.0416 0.196669 35.5089 0.196669Q33.7524 0.196669 32.8234 -1.1495Q31.8943 -2.49566 31.8943 -5.05235Q31.8943 -7.45307 33.0336 -8.88062Q34.1729 -10.3082 36.0921 -10.3082Q36.6075 -10.3082 37.1331 -10.2064Q37.6587 -10.1047 38.2284 -9.90126Z" fill="#262626" transform="translate(468.58000000000004,307)" />
<ellipse cx="307.5" cy="303" rx="196.35" ry="196.35" fill="none" stroke="#CCCCCC" stroke-width="0.5" />
<path d="M1.13932 -10.1251L7.64974 -10.1251L7.64974 -9.54183L3.97407 0L2.54313 0L6.00179 -8.97217L1.13932 -8.97217L1.13932 -10.1251ZM10.3217 -1.72255L11.7527 -1.72255L11.7527 0L10.3217 0L10.3217 -1.72255ZM14.7773 -0.210232L14.7773 -1.45806Q15.2927 -1.21392 15.8217 -1.08507Q16.3506 -0.956217 16.8593 -0.956217Q18.2156 -0.956217 18.9311 -1.86835Q19.6465 -2.78049 19.7483 -4.63867Q19.3549 -4.05545 18.7514 -3.74349Q18.1478 -3.43153 17.4154 -3.43153Q15.8963 -3.43153 15.0113 -4.35045Q14.1262 -5.26937 14.1262 -6.86306Q14.1262 -8.42285 15.0486 -9.36551Q15.9709 -10.3082 17.5035 -10.3082Q19.26 -10.3082 20.1857 -8.962Q21.1114 -7.61583 21.1114 -5.05235Q21.1114 -2.65842 19.9755 -1.23088Q18.8395 0.196669 16.9203 0.196669Q16.4049 0.196669 15.8759 0.0949436Q15.347 -0.00678168 14.7773 -0.210232ZM17.5035 -4.50304Q18.4258 -4.50304 18.965 -5.13374Q19.5041 -5.76443 19.5041 -6.86306Q19.5041 -7.95491 18.965 -8.589Q18.4258 -9.22309 17.5035 -9.22309Q16.5812 -9.22309 16.0421 -8.589Q15.5029 -7.95492 15.5029 -6.86306Q15.5029 -5.76443 16.0421 -5.13374Q16.5812 -4.50304 17.5035 -4.50304ZM24.7531 -1.15289L29.5342 -1.15289L29.5342 0L23.1052 0L23.1052 -1.15289Q23.8851 -1.95991 25.2313 -3.31963Q26.5774 -4.67936 26.9233 -5.0727Q27.5811 -5.8119 27.8422 -6.32392Q28.1033 -6.83594 28.1033 -7.331Q28.1033 -8.13802 27.537 -8.64665Q26.9708 -9.15527 26.062 -9.15527Q25.4178 -9.15527 24.7023 -8.93148Q23.9868 -8.70768 23.173 -8.25331L23.173 -9.63677Q24.0004 -9.96908 24.7192 -10.1386Q25.4381 -10.3082 26.0349 -10.3082Q27.6082 -10.3082 28.5441 -9.52148Q29.48 -8.73481 29.48 -7.41916Q29.48 -6.79525 29.246 -6.23576Q29.012 -5.67627 28.3949 -4.91672Q28.2254 -4.72005 27.3166 -3.78079Q26.4079 -2.84153 24.7531 -1.15289ZM35.3394 -9.22309Q34.2814 -9.22309 33.7491 -8.1821Q33.2167 -7.14111 33.2167 -5.05235Q33.2167 -2.97038 33.7491 -1.92939Q34.2814 -0.888401 35.3394 -0.888401Q36.4041 -0.888401 36.9364 -1.92939Q37.4688 -2.97038 37.4688 -5.05235Q37.4688 -7.14111 36.9364 -8.1821Q36.4041 -9.22309 35.3394 -9.22309ZM35.3394 -10.3082Q37.0416 -10.3082 37.9401 -8.962Q38.8387 -7.61583 38.8387 -5.05235Q38.8387 -2.49566 37.9401 -1.1495Q37.0416 0.196669 35.3394 0.196669Q33.6372 0.196669 32.7386 -1.1495Q31.84 -2.49566 31.84 -5.05235Q31.84 -7.61583 32.7386 -8.962Q33.6372 -10.3082 35.3394 -10.3082Z" fill="#262626" transform="translate(507.85,307)" />
<line x1="307.5" y1="303" x2="503.85" y2="303" stroke="#CCCCCC" stroke-width="0.5" />
<path d="M4.41488 -9.22309Q3.35693 -9.22309 2.82457 -8.1821Q2.29221 -7.14111 2.29221 -5.05235Q2.29221 -2.97038 2.82457 -1.92939Q3.35693 -0.888401 4.41488 -0.888401Q5.4796 -0.888401 6.01196 -1.92939Q6.54433 -2.97038 6.54433 -5.05235Q6.54433 -7.14111 6.01196 -8.1821Q5.4796 -9.22309 4.41488 -9.22309ZM4.41488 -10.3082Q6.11708 -10.3082 7.01565 -8.962Q7.91422 -7.61583 7.91423 -5.05235Q7.91423 -2.49566 7.01565 -1.1495Q6.11708 0.196669 4.41488 0.196669Q2.71267 0.196669 1.8141 -1.1495Q0.915527 -2.49566 0.915527 -5.05235Q0.915527 -7.61583 1.8141 -8.962Q2.71267 -10.3082 4.41488 -10.3082ZM12.3088 -9.43332Q11.7662 -9.43332 11.3932 -9.05694Q11.0202 -8.68056 11.0202 -8.13802Q11.0202 -7.60227 11.3932 -7.23267Q11.7662 -6.86306 12.3088 -6.86306Q12.8513 -6.86306 13.2243 -7.23267Q13.5973 -7.60227 13.5973 -8.13802Q13.5973 -8.67377 13.2209 -9.05355Q12.8445 -9.43332 12.3088 -9.43332ZM12.3088 -10.3082Q12.7428 -10.3082 13.1429 -10.142Q13.543 -9.97586 13.8346 -9.6639Q14.1466 -9.35872 14.3026 -8.97217Q14.4586 -8.58561 14.4586 -8.13802Q14.4586 -7.24284 13.8312 -6.62231Q13.2039 -6.00179 12.2952 -6.00179Q11.3797 -6.00179 10.7693 -6.61214Q10.159 -7.22249 10.159 -8.13802Q10.159 -9.04677 10.7829 -9.67746Q11.4068 -10.3082 12.3088 -10.3082Z" fill="#262626" transform="translate(511.85,299)" />
<line x1="307.5" y1="303" x2="477.54408803307456" y2="204.82500000000002" stroke="#CCCCCC" stroke-width="0.5" />
<path d="M5.63558 -5.45926Q6.61892 -5.24902 7.17163 -4.58442Q7.72434 -3.91981 7.72434 -2.94325Q7.72434 -1.4445 6.69352 -0.623915Q5.66271 0.196669 3.76383 0.196669Q3.12636 0.196669 2.45158 0.0712077Q1.7768 -0.0542535 1.05794 -0.305176L1.05794 -1.6276Q1.6276 -1.2953 2.30577 -1.12576Q2.98394 -0.956217 3.72314 -0.956217Q5.01166 -0.956217 5.68644 -1.46484Q6.36122 -1.97347 6.36122 -2.94325Q6.36122 -3.83843 5.73391 -4.34367Q5.10661 -4.8489 3.98763 -4.8489L2.80762 -4.8489L2.80762 -5.97466L4.04188 -5.97466Q5.05235 -5.97466 5.58811 -6.37817Q6.12386 -6.78168 6.12386 -7.54123Q6.12386 -8.32113 5.57115 -8.7382Q5.01845 -9.15527 3.98763 -9.15527Q3.42475 -9.15527 2.78049 -9.0332Q2.13623 -8.91113 1.36312 -8.65343L1.36312 -9.87413Q2.14301 -10.0911 2.82457 -10.1997Q3.50613 -10.3082 4.1097 -10.3082Q5.66949 -10.3082 6.57823 -9.59947Q7.48698 -8.89079 7.48698 -7.68365Q7.48698 -6.84272 7.00548 -6.26289Q6.52398 -5.68305 5.63558 -5.45926ZM13.2514 -9.22309Q12.1935 -9.22309 11.6611 -8.1821Q11.1287 -7.14111 11.1287 -5.05235Q11.1287 -2.97038 11.6611 -1.92939Q12.1935 -0.888401 13.2514 -0.888401Q14.3161 -0.888401 14.8485 -1.92939Q15.3809 -2.97038 15.3809 -5.05235Q15.3809 -7.14111 14.8485 -8.1821Q14.3161 -9.22309 13.2514 -9.22309ZM13.2514 -10.3082Q14.9536 -10.3082 15.8522 -8.962Q16.7508 -7.61583 16.7508 -5.05235Q16.7508 -2.49566 15.8522 -1.1495Q14.9536 0.196669 13.2514 0.196669Q11.5492 0.196669 10.6506 -1.1495Q9.75206 -2.49566 9.75206 -5.05235Q9.75206 -7.61583 10.6506 -8.962Q11.5492 -10.3082 13.2514 -10.3082ZM21.1453 -9.43332Q20.6028 -9.43332 20.2298 -9.05694Q19.8568 -8.68056 19.8568 -8.13802Q19.8568 -7.60227 20.2298 -7.23267Q20.6028 -6.86306 21.1453 -6.86306Q21.6878 -6.86306 22.0608 -7.23267Q22.4338 -7.60227 22.4338 -8.13802Q22.4338 -8.67377 22.0574 -9.05355Q21.681 -9.43332 21.1453 -9.43332ZM21.1453 -10.3082Q21.5793 -10.3082 21.9794 -10.142Q22.3796 -9.97586 22.6712 -9.6639Q22.9831 -9.35872 23.1391 -8.97217Q23.2951 -8.58561 23.2951 -8.13802Q23.2951 -7.24284 22.6678 -6.62231Q22.0405 -6.00179 21.1317 -6.00179Q20.2162 -6.00179 19.6058 -6.61214Q18.9955 -7.22249 18.9955 -8.13802Q18.9955 -9.04677 19.6194 -9.67746Q20.2433 -10.3082 21.1453 -10.3082Z" fill="#262626" transform="translate(485.54408803307456,200.82500000000002)" />
<line x1="307.5" y1="303" x2="405.675" y2="132.9559119669255" stroke="#CCCCCC" stroke-width="0.5" />
<path d="M4.58442 -5.60845Q3.66211 -5.60845 3.12297 -4.97776Q2.58382 -4.34706 2.58382 -3.24843Q2.58382 -2.15658 3.12297 -1.52249Q3.66211 -0.888401 4.58442 -0.888401Q5.50673 -0.888401 6.04587 -1.52249Q6.58502 -2.15658 6.58502 -3.24843Q6.58502 -4.34706 6.04587 -4.97776Q5.50673 -5.60845 4.58442 -5.60845ZM7.30387 -9.90126L7.30387 -8.65343Q6.78847 -8.89757 6.26289 -9.02642Q5.7373 -9.15527 5.2219 -9.15527Q3.86556 -9.15527 3.15009 -8.23975Q2.43462 -7.32422 2.3329 -5.47282Q2.73302 -6.06282 3.33659 -6.37817Q3.94016 -6.69352 4.6658 -6.69352Q6.19168 -6.69352 7.07669 -5.76782Q7.9617 -4.84212 7.9617 -3.24843Q7.9617 -1.68864 7.03939 -0.745985Q6.11708 0.196669 4.58442 0.196669Q2.82796 0.196669 1.89887 -1.1495Q0.969781 -2.49566 0.969781 -5.05235Q0.969781 -7.45307 2.1091 -8.88062Q3.24843 -10.3082 5.16764 -10.3082Q5.68305 -10.3082 6.20863 -10.2064Q6.73421 -10.1047 7.30387 -9.90126ZM13.2514 -9.22309Q12.1935 -9.22309 11.6611 -8.1821Q11.1287 -7.14111 11.1287 -5.05235Q11.1287 -2.97038 11.6611 -1.92939Q12.1935 -0.888401 13.2514 -0.888401Q14.3161 -0.888401 14.8485 -1.92939Q15.3809 -2.97038 15.3809 -5.05235Q15.3809 -7.14111 14.8485 -8.1821Q14.3161 -9.22309 13.2514 -9.22309ZM13.2514 -10.3082Q14.9536 -10.3082 15.8522 -8.962Q16.7508 -7.61583 16.7508 -5.05235Q16.7508 -2.49566 15.8522 -1.1495Q14.9536 0.196669 13.2514 0.196669Q11.5492 0.196669 10.6506 -1.1495Q9.75206 -2.49566 9.75206 -5.05235Q9.75206 -7.61583 10.6506 -8.962Q11.5492 -10.3082 13.2514 -10.3082ZM21.1453 -9.43332Q20.6028 -9.43332 20.2298 -9.05694Q19.8568 -8.68056 19.8568 -8.13802Q19.8568 -7.60227 20.2298 -7.23267Q20.6028 -6.86306 21.1453 -6.86306Q21.6878 -6.86306 22.0608 -7.23267Q22.4338 -7.60227 22.4338 -8.13802Q22.4338 -8.67377 22.0574 -9.05355Q21.681 -9.43332 21.1453 -9.43332ZM21.1453 -10.3082Q21.5793 -10.3082 21.9794 -10.142Q22.3796 -9.97586 22.6712 -9.6639Q22.9831 -9.35872 23.1391 -8.97217Q23.2951 -8.58561 23.2951 -8.13802Q23.2951 -7.24284 22.6678 -6.62231Q22.0405 -6.00179 21.1317 -6.00179Q20.2162 -6.00179 19.6058 -6.61214Q18.9955 -7.22249 18.9955 -8.13802Q18.9955 -9.04677 19.6194 -9.67746Q20.2433 -10.3082 21.1453 -10.3082Z" fill="#262626" transform="translate(413.675,128.9559119669255)" />
<line x1="307.5" y1="303" x2="307.5" y2="106.65" stroke="#CCCCCC" stroke-width="0.5" />
<path d="M1.52588 -0.210232L1.52588 -1.45806Q2.04129 -1.21392 2.57026 -1.08507Q3.09923 -0.956217 3.60786 -0.956217Q4.96419 -0.956217 5.67966 -1.86835Q6.39513 -2.78049 6.49685 -4.63867Q6.10352 -4.05545 5.49995 -3.74349Q4.89638 -3.43153 4.16395 -3.43153Q2.64486 -3.43153 1.75985 -4.35045Q0.874837 -5.26937 0.874837 -6.86306Q0.874837 -8.42285 1.79715 -9.36551Q2.71946 -10.3082 4.25212 -10.3082Q6.00857 -10.3082 6.93427 -8.962Q7.85997 -7.61583 7.85997 -5.05235Q7.85997 -2.65842 6.72404 -1.23088Q5.58811 0.196669 3.66889 0.196669Q3.15348 0.196669 2.62451 0.0949436Q2.09554 -0.00678168 1.52588 -0.210232ZM4.25212 -4.50304Q5.17442 -4.50304 5.71357 -5.13374Q6.25271 -5.76443 6.25271 -6.86306Q6.25271 -7.95491 5.71357 -8.589Q5.17443 -9.22309 4.25212 -9.22309Q3.32981 -9.22309 2.79066 -8.589Q2.25152 -7.95492 2.25152 -6.86306Q2.25152 -5.76443 2.79066 -5.13374Q3.32981 -4.50304 4.25212 -4.50304ZM13.2514 -9.22309Q12.1935 -9.22309 11.6611 -8.1821Q11.1287 -7.14111 11.1287 -5.05235Q11.1287 -2.97038 11.6611 -1.92939Q12.1935 -0.888401 13.2514 -0.888401Q14.3161 -0.888401 14.8485 -1.92939Q15.3809 -2.97038 15.3809 -5.05235Q15.3809 -7.14111 14.8485 -8.1821Q14.3161 -9.22309 13.2514 -9.22309ZM13.2514 -10.3082Q14.9536 -10.3082 15.8522 -8.962Q16.7508 -7.61583 16.7508 -5.05235Q16.7508 -2.49566 15.8522 -1.1495Q14.9536 0.196669 13.2514 0.196669Q11.5492 0.196669 10.6506 -1.1495Q9.75206 -2.49566 9.75206 -5.05235Q9.75206 -7.61583 10.6506 -8.962Q11.5492 -10.3082 13.2514 -10.3082ZM21.1453 -9.43332Q20.6028 -9.43332 20.2298 -9.05694Q19.8568 -8.68056 19.8568 -8.13802Q19.8568 -7.60227 20.2298 -7.23267Q20.6028 -6.86306 21.1453 -6.86306Q21.6878 -6.86306 22.0608 -7.23267Q22.4338 -7.60227 22.4338 -8.13802Q22.4338 -8.67377 22.0574 -9.05355Q21.681 -9.43332 21.1453 -9.43332ZM21.1453 -10.3082Q21.5793 -10.3082 21.9794 -10.142Q22.3796 -9.97586 22.6712 -9.6639Q22.9831 -9.35872 23.1391 -8.97217Q23.2951 -8.58561 23.2951 -8.13802Q23.2951 -7.24284 22.6678 -6.62231Q22.0405 -6.00179 21.1317 -6.00179Q20.2162 -6.00179 19.6058 -6.61214Q18.9955 -7.22249 18.9955 -8.13802Q18.9955 -9.04677 19.6194 -9.67746Q20.2433 -10.3082 21.1453 -10.3082Z" fill="#262626" transform="translate(299.5,102.65)" />
<line x1="307.5" y1="303" x2="209.32500000000005" y2="132.95591196692547" stroke="#CCCCCC" stroke-width="0.5" />
<path d="M1.72255 -1.15289L3.9605 -1.15289L3.9605 -8.87722L1.52588 -8.38894L1.52588 -9.63677L3.94694 -10.1251L5.31684 -10.1251L5.31684 -1.15289L7.5548 -1.15289L7.5548 0L1.72255 0L1.72255 -1.15289ZM11.5017 -1.15289L16.2828 -1.15289L16.2828 0L9.85379 0L9.85379 -1.15289Q10.6337 -1.95991 11.9798 -3.31963Q13.326 -4.67936 13.6719 -5.0727Q14.3297 -5.8119 14.5908 -6.32392Q14.8519 -6.83594 14.8519 -7.331Q14.8519 -8.13802 14.2856 -8.64665Q13.7193 -9.15527 12.8106 -9.15527Q12.1663 -9.15527 11.4509 -8.93148Q10.7354 -8.70768 9.9216 -8.25331L9.9216 -9.63677Q10.749 -9.96908 11.4678 -10.1386Q12.1867 -10.3082 12.7835 -10.3082Q14.3568 -10.3082 15.2927 -9.52148Q16.2286 -8.73481 16.2286 -7.41916Q16.2286 -6.79525 15.9946 -6.23576Q15.7606 -5.67627 15.1435 -4.91672Q14.974 -4.72005 14.0652 -3.78079Q13.1565 -2.84153 11.5017 -1.15289ZM22.0879 -9.22309Q21.03 -9.22309 20.4976 -8.1821Q19.9653 -7.14111 19.9653 -5.05235Q19.9653 -2.97038 20.4976 -1.92939Q21.03 -0.888401 22.0879 -0.888401Q23.1527 -0.888401 23.685 -1.92939Q24.2174 -2.97038 24.2174 -5.05235Q24.2174 -7.14111 23.685 -8.1821Q23.1527 -9.22309 22.0879 -9.22309ZM22.0879 -10.3082Q23.7901 -10.3082 24.6887 -8.962Q25.5873 -7.61583 25.5873 -5.05235Q25.5873 -2.49566 24.6887 -1.1495Q23.7901 0.196669 22.0879 0.196669Q20.3857 0.196669 19.4872 -1.1495Q18.5886 -2.49566 18.5886 -5.05235Q18.5886 -7.61583 19.4872 -8.962Q20.3857 -10.3082 22.0879 -10.3082ZM29.9818 -9.43332Q29.4393 -9.43332 29.0663 -9.05694Q28.6933 -8.68056 28.6933 -8.13802Q28.6933 -7.60227 29.0663 -7.23267Q29.4393 -6.86306 29.9818 -6.86306Q30.5244 -6.86306 30.8974 -7.23267Q31.2703 -7.60227 31.2703 -8.13802Q31.2703 -8.67377 30.894 -9.05355Q30.5176 -9.43332 29.9818 -9.43332ZM29.9818 -10.3082Q30.4159 -10.3082 30.816 -10.142Q31.2161 -9.97586 31.5077 -9.6639Q31.8197 -9.35872 31.9756 -8.97217Q32.1316 -8.58561 32.1316 -8.13802Q32.1316 -7.24284 31.5043 -6.62231Q30.877 -6.00179 29.9683 -6.00179Q29.0527 -6.00179 28.4424 -6.61214Q27.832 -7.22249 27.832 -8.13802Q27.832 -9.04677 28.4559 -9.67746Q29.0799 -10.3082 29.9818 -10.3082Z" fill="#262626" transform="translate(201.32500000000005,128.95591196692547) translate(-33.45404815673828,0)" />
<line x1="307.5" y1="303" x2="137.45591196692547" y2="204.82500000000002" stroke="#CCCCCC" stroke-width="0.5" />
<path d="M1.72255 -1.15289L3.9605 -1.15289L3.9605 -8.87722L1.52588 -8.38894L1.52588 -9.63677L3.94694 -10.1251L5.31684 -10.1251L5.31684 -1.15289L7.5548 -1.15289L7.5548 0L1.72255 0L1.72255 -1.15289ZM10.3353 -10.1251L15.7132 -10.1251L15.7132 -8.97217L11.5899 -8.97217L11.5899 -6.49007Q11.8883 -6.5918 12.1867 -6.64266Q12.4851 -6.69352 12.7835 -6.69352Q14.4789 -6.69352 15.469 -5.76443Q16.4591 -4.83534 16.4591 -3.24843Q16.4591 -1.61404 15.4419 -0.708686Q14.4246 0.196669 12.5732 0.196669Q11.9358 0.196669 11.2745 0.0881619C10.8337 0.0158239 10.3782 -0.092683 9.90804 -0.237359L9.90804 -1.61404Q10.5184 -1.28174 11.1694 -1.11898Q11.8205 -0.956217 12.5461 -0.956217Q13.7193 -0.956217 14.4043 -1.57335Q15.0892 -2.19048 15.0892 -3.24843Q15.0892 -4.30637 14.4043 -4.9235Q13.7193 -5.54064 12.5461 -5.54064Q11.9968 -5.54064 11.4509 -5.41857Q10.9049 -5.2965 10.3353 -5.03879L10.3353 -10.1251ZM22.0879 -9.22309Q21.03 -9.22309 20.4976 -8.1821Q19.9653 -7.14111 19.9653 -5.05235Q19.9653 -2.97038 20.4976 -1.92939Q21.03 -0.888401 22.0879 -0.888401Q23.1527 -0.888401 23.685 -1.92939Q24.2174 -2.97038 24.2174 -5.05235Q24.2174 -7.14111 23.685 -8.1821Q23.1527 -9.22309 22.0879 -9.22309ZM22.0879 -10.3082Q23.7901 -10.3082 24.6887 -8.962Q25.5873 -7.61583 25.5873 -5.05235Q25.5873 -2.49566 24.6887 -1.1495Q23.7901 0.196669 22.0879 0.196669Q20.3857 0.196669 19.4872 -1.1495Q18.5886 -2.49566 18.5886 -5.05235Q18.5886 -7.61583 19.4872 -8.962Q20.3857 -10.3082 22.0879 -10.3082ZM29.9818 -9.43332Q29.4393 -9.43332 29.0663 -9.05694Q28.6933 -8.68056 28.6933 -8.13802Q28.6933 -7.60227 29.0663 -7.23267Q29.4393 -6.86306 29.9818 -6.86306Q30.5244 -6.86306 30.8974 -7.23267Q31.2703 -7.60227 31.2703 -8.13802Q31.2703 -8.67377 30.894 -9.05355Q30.5176 -9.43332 29.9818 -9.43332ZM29.9818 -10.3082Q30.4159 -10.3082 30.816 -10.142Q31.2161 -9.97586 31.5077 -9.6639Q31.8197 -9.35872 31.9756 -8.97217Q32.1316 -8.58561 32.1316 -8.13802Q32.1316 -7.24284 31.5043 -6.62231Q30.877 -6.00179 29.9683 -6.00179Q29.0527 -6.00179 28.4424 -6.61214Q27.832 -7.22249 27.832 -8.13802Q27.832 -9.04677 28.4559 -9.67746Q29.0799 -10.3082 29.9818 -10.3082Z" fill="#262626" transform="translate(129.45591196692547,200.82500000000002) translate(-33.45404815673828,0)" />
<line x1="307.5" y1="303" x2="111.15" y2="303" stroke="#CCCCCC" stroke-width="0.5" />
<path d="M1.72255 -1.15289L3.9605 -1.15289L3.9605 -8.87722L1.52588 -8.38894L1.52588 -9.63677L3.94694 -10.1251L5.31684 -10.1251L5.31684 -1.15289L7.5548 -1.15289L7.5548 0L1.72255 0L1.72255 -1.15289ZM13.2514 -4.80821Q12.2748 -4.80821 11.7154 -4.28602Q11.1559 -3.76383 11.1559 -2.84831Q11.1559 -1.93278 11.7154 -1.41059Q12.2748 -0.888401 13.2514 -0.888401Q14.228 -0.888401 14.7909 -1.41398Q15.3537 -1.93956 15.3537 -2.84831Q15.3537 -3.76383 14.7942 -4.28602Q14.2348 -4.80821 13.2514 -4.80821ZM11.8815 -5.39144Q10.9999 -5.60845 10.5082 -6.21202Q10.0165 -6.81559 10.0165 -7.68365Q10.0165 -8.89757 10.8812 -9.60287Q11.7459 -10.3082 13.2514 -10.3082Q14.7637 -10.3082 15.625 -9.60287Q16.4863 -8.89757 16.4863 -7.68365Q16.4863 -6.81559 15.9946 -6.21202Q15.5029 -5.60845 14.6281 -5.39144Q15.6182 -5.16086 16.1709 -4.48947Q16.7236 -3.81809 16.7236 -2.84831Q16.7236 -1.37668 15.8251 -0.590007Q14.9265 0.196669 13.2514 0.196669Q11.5763 0.196669 10.6778 -0.590007Q9.77919 -1.37668 9.77919 -2.84831Q9.77919 -3.81809 10.3353 -4.48947Q10.8914 -5.16086 11.8815 -5.39144ZM11.3797 -7.5548Q11.3797 -6.76812 11.8713 -6.32731Q12.363 -5.8865 13.2514 -5.8865Q14.133 -5.8865 14.6315 -6.32731Q15.1299 -6.76812 15.1299 -7.5548Q15.1299 -8.34147 14.6315 -8.78228Q14.133 -9.22309 13.2514 -9.22309Q12.363 -9.22309 11.8713 -8.78228Q11.3797 -8.34147 11.3797 -7.5548ZM22.0879 -9.22309Q21.03 -9.22309 20.4976 -8.1821Q19.9653 -7.14111 19.9653 -5.05235Q19.9653 -2.97038 20.4976 -1.92939Q21.03 -0.888401 22.0879 -0.888401Q23.1527 -0.888401 23.685 -1.92939Q24.2174 -2.97038 24.2174 -5.05235Q24.2174 -7.14111 23.685 -8.1821Q23.1527 -9.22309 22.0879 -9.22309ZM22.0879 -10.3082Q23.7901 -10.3082 24.6887 -8.962Q25.5873 -7.61583 25.5873 -5.05235Q25.5873 -2.49566 24.6887 -1.1495Q23.7901 0.196669 22.0879 0.196669Q20.3857 0.196669 19.4872 -1.1495Q18.5886 -2.49566 18.5886 -5.05235Q18.5886 -7.61583 19.4872 -8.962Q20.3857 -10.3082 22.0879 -10.3082ZM29.9818 -9.43332Q29.4393 -9.43332 29.0663 -9.05694Q28.6933 -8.68056 28.6933 -8.13802Q28.6933 -7.60227 29.0663 -7.23267Q29.4393 -6.86306 29.9818 -6.86306Q30.5244 -6.86306 30.8974 -7.23267Q31.2703 -7.60227 31.2703 -8.13802Q31.2703 -8.67377 30.894 -9.05355Q30.5176 -9.43332 29.9818 -9.43332ZM29.9818 -10.3082Q30.4159 -10.3082 30.816 -10.142Q31.2161 -9.97586 31.5077 -9.6639Q31.8197 -9.35872 31.9756 -8.97217Q32.1316 -8.58561 32.1316 -8.13802Q32.1316 -7.24284 31.5043 -6.62231Q30.877 -6.00179 29.9683 -6.00179Q29.0527 -6.00179 28.4424 -6.61214Q27.832 -7.22249 27.832 -8.13802Q27.832 -9.04677 28.4559 -9.67746Q29.0799 -10.3082 29.9818 -10.3082Z" fill="#262626" transform="translate(103.15,299) translate(-33.45404815673828,0)" />
<line x1="307.5" y1="303" x2="137.45591196692544" y2="401.17499999999995" stroke="#CCCCCC" stroke-width="0.5" />
<path d="M2.6652 -1.15289L7.44629 -1.15289L7.44629 0L1.01725 0L1.01725 -1.15289Q1.79715 -1.95991 3.14331 -3.31963Q4.48947 -4.67936 4.83534 -5.0727Q5.49316 -5.8119 5.75426 -6.32392Q6.01535 -6.83594 6.01535 -7.331Q6.01535 -8.13802 5.44908 -8.64665Q4.88281 -9.15527 3.97407 -9.15527Q3.32981 -9.15527 2.61434 -8.93148Q1.89887 -8.70768 1.08507 -8.25331L1.08507 -9.63677Q1.91243 -9.96908 2.63129 -10.1386Q3.35015 -10.3082 3.94694 -10.3082Q5.52029 -10.3082 6.45616 -9.52148Q7.39204 -8.73481 7.39204 -7.41916Q7.39204 -6.79525 7.15807 -6.23576Q6.9241 -5.67627 6.30697 -4.91672Q6.13742 -4.72005 5.22868 -3.78079Q4.31993 -2.84153 2.6652 -1.15289ZM10.5591 -1.15289L12.797 -1.15289L12.797 -8.87722L10.3624 -8.38894L10.3624 -9.63677L12.7835 -10.1251L14.1534 -10.1251L14.1534 -1.15289L16.3913 -1.15289L16.3913 0L10.5591 0L10.5591 -1.15289ZM22.0879 -9.22309Q21.03 -9.22309 20.4976 -8.1821Q19.9653 -7.14111 19.9653 -5.05235Q19.9653 -2.97038 20.4976 -1.92939Q21.03 -0.888401 22.0879 -0.888401Q23.1527 -0.888401 23.685 -1.92939Q24.2174 -2.97038 24.2174 -5.05235Q24.2174 -7.14111 23.685 -8.1821Q23.1527 -9.22309 22.0879 -9.22309ZM22.0879 -10.3082Q23.7901 -10.3082 24.6887 -8.962Q25.5873 -7.61583 25.5873 -5.05235Q25.5873 -2.49566 24.6887 -1.1495Q23.7901 0.196669 22.0879 0.196669Q20.3857 0.196669 19.4872 -1.1495Q18.5886 -2.49566 18.5886 -5.05235Q18.5886 -7.61583 19.4872 -8.962Q20.3857 -10.3082 22.0879 -10.3082ZM29.9818 -9.43332Q29.4393 -9.43332 29.0663 -9.05694Q28.6933 -8.68056 28.6933 -8.13802Q28.6933 -7.60227 29.0663 -7.23267Q29.4393 -6.86306 29.9818 -6.86306Q30.5244 -6.86306 30.8974 -7.23267Q31.2703 -7.60227 31.2703 -8.13802Q31.2703 -8.67377 30.894 -9.05355Q30.5176 -9.43332 29.9818 -9.43332ZM29.9818 -10.3082Q30.4159 -10.3082 30.816 -10.142Q31.2161 -9.97586 31.5077 -9.6639Q31.8197 -9.35872 31.9756 -8.97217Q32.1316 -8.58561 32.1316 -8.13802Q32.1316 -7.24284 31.5043 -6.62231Q30.877 -6.00179 29.9683 -6.00179Q29.0527 -6.00179 28.4424 -6.61214Q27.832 -7.22249 27.832 -8.13802Q27.832 -9.04677 28.4559 -9.67746Q29.0799 -10.3082 29.9818 -10.3082Z" fill="#262626" transform="translate(129.45591196692544,413.17499999999995) translate(-33.45404815673828,0)" />
<line x1="307.5" y1="303" x2="209.32499999999993" y2="473.0440880330745" stroke="#CCCCCC" stroke-width="0.5" />
<path d="M2.6652 -1.15289L7.44629 -1.15289L7.44629 0L1.01725 0L1.01725 -1.15289Q1.79715 -1.95991 3.14331 -3.31963Q4.48947 -4.67936 4.83534 -5.0727Q5.49316 -5.8119 5.75426 -6.32392Q6.01535 -6.83594 6.01535 -7.331Q6.01535 -8.13802 5.44908 -8.64665Q4.88281 -9.15527 3.97407 -9.15527Q3.32981 -9.15527 2.61434 -8.93148Q1.89887 -8.70768 1.08507 -8.25331L1.08507 -9.63677Q1.91243 -9.96908 2.63129 -10.1386Q3.35015 -10.3082 3.94694 -10.3082Q5.52029 -10.3082 6.45616 -9.52148Q7.39204 -8.73481 7.39204 -7.41916Q7.39204 -6.79525 7.15807 -6.23576Q6.9241 -5.67627 6.30697 -4.91672Q6.13742 -4.72005 5.22868 -3.78079Q4.31993 -2.84153 2.6652 -1.15289ZM14.0856 -8.93148L10.6269 -3.52648L14.0856 -3.52648L14.0856 -8.93148ZM13.7261 -10.1251L15.4487 -10.1251L15.4487 -3.52648L16.8932 -3.52648L16.8932 -2.38715L15.4487 -2.38715L15.4487 0L14.0856 0L14.0856 -2.38715L9.5147 -2.38715L9.5147 -3.70958L13.7261 -10.1251ZM22.0879 -9.22309Q21.03 -9.22309 20.4976 -8.1821Q19.9653 -7.14111 19.9653 -5.05235Q19.9653 -2.97038 20.4976 -1.92939Q21.03 -0.888401 22.0879 -0.888401Q23.1527 -0.888401 23.685 -1.92939Q24.2174 -2.97038 24.2174 -5.05235Q24.2174 -7.14111 23.685 -8.1821Q23.1527 -9.22309 22.0879 -9.22309ZM22.0879 -10.3082Q23.7901 -10.3082 24.6887 -8.962Q25.5873 -7.61583 25.5873 -5.05235Q25.5873 -2.49566 24.6887 -1.1495Q23.7901 0.196669 22.0879 0.196669Q20.3857 0.196669 19.4872 -1.1495Q18.5886 -2.49566 18.5886 -5.05235Q18.5886 -7.61583 19.4872 -8.962Q20.3857 -10.3082 22.0879 -10.3082ZM29.9818 -9.43332Q29.4393 -9.43332 29.0663 -9.05694Q28.6933 -8.68056 28.6933 -8.13802Q28.6933 -7.60227 29.0663 -7.23267Q29.4393 -6.86306 29.9818 -6.86306Q30.5244 -6.86306 30.8974 -7.23267Q31.2703 -7.60227 31.2703 -8.13802Q31.2703 -8.67377 30.894 -9.05355Q30.5176 -9.43332 29.9818 -9.43332ZM29.9818 -10.3082Q30.4159 -10.3082 30.816 -10.142Q31.2161 -9.97586 31.5077 -9.6639Q31.8197 -9.35872 31.9756 -8.97217Q32.1316 -8.58561 32.1316 -8.13802Q32.1316 -7.24284 31.5043 -6.62231Q30.877 -6.00179 29.9683 -6.00179Q29.0527 -6.00179 28.4424 -6.61214Q27.832 -7.22249 27.832 -8.13802Q27.832 -9.04677 28.4559 -9.67746Q29.0799 -10.3082 29.9818 -10.3082Z" fill="#262626" transform="translate(201.32499999999993,485.0440880330745) translate(-33.45404815673828,0)" />
<line x1="307.5" y1="303" x2="307.49999999999994" y2="499.35" stroke="#CCCCCC" stroke-width="0.5" />
<path d="M2.6652 -1.15289L7.44629 -1.15289L7.44629 0L1.01725 0L1.01725 -1.15289Q1.79715 -1.95991 3.14331 -3.31963Q4.48947 -4.67936 4.83534 -5.0727Q5.49316 -5.8119 5.75426 -6.32392Q6.01535 -6.83594 6.01535 -7.331Q6.01535 -8.13802 5.44908 -8.64665Q4.88281 -9.15527 3.97407 -9.15527Q3.32981 -9.15527 2.61434 -8.93148Q1.89887 -8.70768 1.08507 -8.25331L1.08507 -9.63677Q1.91243 -9.96908 2.63129 -10.1386Q3.35015 -10.3082 3.94694 -10.3082Q5.52029 -10.3082 6.45616 -9.52148Q7.39204 -8.73481 7.39204 -7.41916Q7.39204 -6.79525 7.15807 -6.23576Q6.9241 -5.67627 6.30697 -4.91672Q6.13742 -4.72005 5.22868 -3.78079Q4.31993 -2.84153 2.6652 -1.15289ZM9.97586 -10.1251L16.4863 -10.1251L16.4863 -9.54183L12.8106 0L11.3797 0L14.8383 -8.97217L9.97586 -8.97217L9.97586 -10.1251ZM22.0879 -9.22309Q21.03 -9.22309 20.4976 -8.1821Q19.9653 -7.14111 19.9653 -5.05235Q19.9653 -2.97038 20.4976 -1.92939Q21.03 -0.888401 22.0879 -0.888401Q23.1527 -0.888401 23.685 -1.92939Q24.2174 -2.97038 24.2174 -5.05235Q24.2174 -7.14111 23.685 -8.1821Q23.1527 -9.22309 22.0879 -9.22309ZM22.0879 -10.3082Q23.7901 -10.3082 24.6887 -8.962Q25.5873 -7.61583 25.5873 -5.05235Q25.5873 -2.49566 24.6887 -1.1495Q23.7901 0.196669 22.0879 0.196669Q20.3857 0.196669 19.4872 -1.1495Q18.5886 -2.49566 18.5886 -5.05235Q18.5886 -7.61583 19.4872 -8.962Q20.3857 -10.3082 22.0879 -10.3082ZM29.9818 -9.43332Q29.4393 -9.43332 29.0663 -9.05694Q28.6933 -8.68056 28.6933 -8.13802Q28.6933 -7.60227 29.0663 -7.23267Q29.4393 -6.86306 29.9818 -6.86306Q30.5244 -6.86306 30.8974 -7.23267Q31.2703 -7.60227 31.2703 -8.13802Q31.2703 -8.67377 30.894 -9.05355Q30.5176 -9.43332 29.9818 -9.43332ZM29.9818 -10.3082Q30.4159 -10.3082 30.816 -10.142Q31.2161 -9.97586 31.5077 -9.6639Q31.8197 -9.35872 31.9756 -8.97217Q32.1316 -8.58561 32.1316 -8.13802Q32.1316 -7.24284 31.5043 -6.62231Q30.877 -6.00179 29.9683 -6.00179Q29.0527 -6.00179 28.4424 -6.61214Q27.832 -7.22249 27.832 -8.13802Q27.832 -9.04677 28.4559 -9.67746Q29.0799 -10.3082 29.9818 -10.3082Z" fill="#262626" transform="translate(299.49999999999994,511.35) translate(-33.45404815673828,0)" />
<line x1="307.5" y1="303" x2="405.675" y2="473.0440880330745" stroke="#CCCCCC" stroke-width="0.5" />
<path d="M5.63558 -5.45926Q6.61892 -5.24902 7.17163 -4.58442Q7.72434 -3.91981 7.72434 -2.94325Q7.72434 -1.4445 6.69352 -0.623915Q5.66271 0.196669 3.76383 0.196669Q3.12636 0.196669 2.45158 0.0712077Q1.7768 -0.0542535 1.05794 -0.305176L1.05794 -1.6276Q1.6276 -1.2953 2.30577 -1.12576Q2.98394 -0.956217 3.72314 -0.956217Q5.01166 -0.956217 5.68644 -1.46484Q6.36122 -1.97347 6.36122 -2.94325Q6.36122 -3.83843 5.73391 -4.34367Q5.10661 -4.8489 3.98763 -4.8489L2.80762 -4.8489L2.80762 -5.97466L4.04188 -5.97466Q5.05235 -5.97466 5.58811 -6.37817Q6.12386 -6.78168 6.12386 -7.54123Q6.12386 -8.32113 5.57115 -8.7382Q5.01845 -9.15527 3.98763 -9.15527Q3.42475 -9.15527 2.78049 -9.0332Q2.13623 -8.91113 1.36312 -8.65343L1.36312 -9.87413Q2.14301 -10.0911 2.82457 -10.1997Q3.50613 -10.3082 4.1097 -10.3082Q5.66949 -10.3082 6.57823 -9.59947Q7.48698 -8.89079 7.48698 -7.68365Q7.48698 -6.84272 7.00548 -6.26289Q6.52398 -5.68305 5.63558 -5.45926ZM13.2514 -9.22309Q12.1935 -9.22309 11.6611 -8.1821Q11.1287 -7.14111 11.1287 -5.05235Q11.1287 -2.97038 11.6611 -1.92939Q12.1935 -0.888401 13.2514 -0.888401Q14.3161 -0.888401 14.8485 -1.92939Q15.3809 -2.97038 15.3809 -5.05235Q15.3809 -7.14111 14.8485 -8.1821Q14.3161 -9.22309 13.2514 -9.22309ZM13.2514 -10.3082Q14.9536 -10.3082 15.8522 -8.962Q16.7508 -7.61583 16.7508 -5.05235Q16.7508 -2.49566 15.8522 -1.1495Q14.9536 0.196669 13.2514 0.196669Q11.5492 0.196669 10.6506 -1.1495Q9.75206 -2.49566 9.75206 -5.05235Q9.75206 -7.61583 10.6506 -8.962Q11.5492 -10.3082 13.2514 -10.3082ZM22.0879 -9.22309Q21.03 -9.22309 20.4976 -8.1821Q19.9653 -7.14111 19.9653 -5.05235Q19.9653 -2.97038 20.4976 -1.92939Q21.03 -0.888401 22.0879 -0.888401Q23.1527 -0.888401 23.685 -1.92939Q24.2174 -2.97038 24.2174 -5.05235Q24.2174 -7.14111 23.685 -8.1821Q23.1527 -9.22309 22.0879 -9.22309ZM22.0879 -10.3082Q23.7901 -10.3082 24.6887 -8.962Q25.5873 -7.61583 25.5873 -5.05235Q25.5873 -2.49566 24.6887 -1.1495Q23.7901 0.196669 22.0879 0.196669Q20.3857 0.196669 19.4872 -1.1495Q18.5886 -2.49566 18.5886 -5.05235Q18.5886 -7.61583 19.4872 -8.962Q20.3857 -10.3082 22.0879 -10.3082ZM29.9818 -9.43332Q29.4393 -9.43332 29.0663 -9.05694Q28.6933 -8.68056 28.6933 -8.13802Q28.6933 -7.60227 29.0663 -7.23267Q29.4393 -6.86306 29.9818 -6.86306Q30.5244 -6.86306 30.8974 -7.23267Q31.2703 -7.60227 31.2703 -8.13802Q31.2703 -8.67377 30.894 -9.05355Q30.5176 -9.43332 29.9818 -9.43332ZM29.9818 -10.3082Q30.4159 -10.3082 30.816 -10.142Q31.2161 -9.97586 31.5077 -9.6639Q31.8197 -9.35872 31.9756 -8.97217Q32.1316 -8.58561 32.1316 -8.13802Q32.1316 -7.24284 31.5043 -6.62231Q30.877 -6.00179 29.9683 -6.00179Q29.0527 -6.00179 28.4424 -6.61214Q27.832 -7.22249 27.832 -8.13802Q27.832 -9.04677 28.4559 -9.67746Q29.0799 -10.3082 29.9818 -10.3082Z" fill="#262626" transform="translate(413.675,485.0440880330745)" />
<line x1="307.5" y1="303" x2="477.54408803307444" y2="401.17500000000007" stroke="#CCCCCC" stroke-width="0.5" />
<path d="M5.63558 -5.45926Q6.61892 -5.24902 7.17163 -4.58442Q7.72434 -3.91981 7.72434 -2.94325Q7.72434 -1.4445 6.69352 -0.623915Q5.66271 0.196669 3.76383 0.196669Q3.12636 0.196669 2.45158 0.0712077Q1.7768 -0.0542535 1.05794 -0.305176L1.05794 -1.6276Q1.6276 -1.2953 2.30577 -1.12576Q2.98394 -0.956217 3.72314 -0.956217Q5.01166 -0.956217 5.68644 -1.46484Q6.36122 -1.97347 6.36122 -2.94325Q6.36122 -3.83843 5.73391 -4.34367Q5.10661 -4.8489 3.98763 -4.8489L2.80762 -4.8489L2.80762 -5.97466L4.04188 -5.97466Q5.05235 -5.97466 5.58811 -6.37817Q6.12386 -6.78168 6.12386 -7.54123Q6.12386 -8.32113 5.57115 -8.7382Q5.01845 -9.15527 3.98763 -9.15527Q3.42475 -9.15527 2.78049 -9.0332Q2.13623 -8.91113 1.36312 -8.65343L1.36312 -9.87413Q2.14301 -10.0911 2.82457 -10.1997Q3.50613 -10.3082 4.1097 -10.3082Q5.66949 -10.3082 6.57823 -9.59947Q7.48698 -8.89079 7.48698 -7.68365Q7.48698 -6.84272 7.00548 -6.26289Q6.52398 -5.68305 5.63558 -5.45926ZM14.4721 -5.45926Q15.4555 -5.24902 16.0082 -4.58442Q16.5609 -3.91981 16.5609 -2.94325Q16.5609 -1.4445 15.5301 -0.623915Q14.4992 0.196669 12.6004 0.196669Q11.9629 0.196669 11.2881 0.0712077Q10.6133 -0.0542535 9.89448 -0.305176L9.89448 -1.6276Q10.4641 -1.2953 11.1423 -1.12576Q11.8205 -0.956217 12.5597 -0.956217Q13.8482 -0.956217 14.523 -1.46484Q15.1978 -1.97347 15.1978 -2.94325Q15.1978 -3.83843 14.5704 -4.34367Q13.9431 -4.8489 12.8242 -4.8489L11.6442 -4.8489L11.6442 -5.97466L12.8784 -5.97466Q13.8889 -5.97466 14.4246 -6.37817Q14.9604 -6.78168 14.9604 -7.54123Q14.9604 -8.32113 14.4077 -8.7382Q13.855 -9.15527 12.8242 -9.15527Q12.2613 -9.15527 11.617 -9.0332Q10.9728 -8.91113 10.1997 -8.65343L10.1997 -9.87413Q10.9795 -10.0911 11.6611 -10.1997Q12.3427 -10.3082 12.9462 -10.3082Q14.506 -10.3082 15.4148 -9.59947Q16.3235 -8.89079 16.3235 -7.68365Q16.3235 -6.84272 15.842 -6.26289Q15.3605 -5.68305 14.4721 -5.45926ZM22.0879 -9.22309Q21.03 -9.22309 20.4976 -8.1821Q19.9653 -7.14111 19.9653 -5.05235Q19.9653 -2.97038 20.4976 -1.92939Q21.03 -0.888401 22.0879 -0.888401Q23.1527 -0.888401 23.685 -1.92939Q24.2174 -2.97038 24.2174 -5.05235Q24.2174 -7.14111 23.685 -8.1821Q23.1527 -9.22309 22.0879 -9.22309ZM22.0879 -10.3082Q23.7901 -10.3082 24.6887 -8.962Q25.5873 -7.61583 25.5873 -5.05235Q25.5873 -2.49566 24.6887 -1.1495Q23.7901 0.196669 22.0879 0.196669Q20.3857 0.196669 19.4872 -1.1495Q18.5886 -2.49566 18.5886 -5.05235Q18.5886 -7.61583 19.4872 -8.962Q20.3857 -10.3082 22.0879 -10.3082ZM29.9818 -9.43332Q29.4393 -9.43332 29.0663 -9.05694Q28.6933 -8.68056 28.6933 -8.13802Q28.6933 -7.60227 29.0663 -7.23267Q29.4393 -6.86306 29.9818 -6.86306Q30.5244 -6.86306 30.8974 -7.23267Q31.2703 -7.60227 31.2703 -8.13802Q31.2703 -8.67377 30.894 -9.05355Q30.5176 -9.43332 29.9818 -9.43332ZM29.9818 -10.3082Q30.4159 -10.3082 30.816 -10.142Q31.2161 -9.97586 31.5077 -9.6639Q31.8197 -9.35872 31.9756 -8.97217Q32.1316 -8.58561 32.1316 -8.13802Q32.1316 -7.24284 31.5043 -6.62231Q30.877 -6.00179 29.9683 -6.00179Q29.0527 -6.00179 28.4424 -6.61214Q27.832 -7.22249 27.832 -8.13802Q27.832 -9.04677 28.4559 -9.67746Q29.0799 -10.3082 29.9818 -10.3082Z" fill="#262626" transform="translate(485.54408803307444,413.17500000000007)" />
<g class="series" aria-label="0–10 kn">
<polygon points="360.1085791354431,420.69385857297 233.42684656674362,197.48850828038826 400.32279920936327,392.461918665892 199.32969537656066,232.86661178784541 427.05315305165493,351.234329474473 180.94585955933005,278.4326134526355 436.41666666666663,303 180.94585955933005,327.5673865473645 427.0531530516548,254.7656705255268 199.32969537656066,373.1333882121546 400.3227992093629,213.5380813341077 233.42684656674322,408.5114917196115 360.1085791354431,185.30614142703 307.5,303 307.5,303 307.5,303 307.5,303 307.5,303 307.5,303 307.5,303 307.5,303 307.5,303 307.5,303 307.5,303 307.5,303 307.5,303" fill="#AED6F1" fill-opacity="0.8509803921568627" stroke="#AED6F1" stroke-width="0.5" />
<polygon points="408.251635814206,316.4530039318132 206.0310266352347,308.99356974834893 405.96727105961594,277.7795328334327 215.64345273663622,346.5229842598275 389.37909816230155,242.7697026559227 238.59938287312764,377.73005013757125 360.89679132170215,216.5092021624591 271.564133175878,398.0814856300991 324.65782127429617,202.81275229278387 309.74909257921,404.62094772534806 285.92642728730493,203.66996227506087 347.6073384623833,396.3984841177393 250.3289095793533,218.95630984932887 307.5,303 307.5,303 307.5,303 307.5,303 307.5,303 307.5,303 307.5,303 307.5,303 307.5,303 307.5,303 307.5,303 307.5,303 307.5,303" fill="#AED6F1" fill-opacity="0.8509803921568627" stroke="#AED6F1" stroke-width="0.5" />
<polygon points="414.2670623202987,172.53492926736587 227.5520131167185,451.4205500295981 357.6986585842987,142.06387927467998 288.8905504761339,470.55306224058234 293.83816709482596,134.97114950268548 352.93238196330003,465.3460469088132 231.96225621422408,152.2870624613393 410.3744969347443,436.5558990018826 181.0593050086381,191.49622908672927 452.8725898864987,388.3648076637535 148.52371001315987,246.90294571193704 474.25319260448236,327.77323220716625 139.08174122203894,310.4585781471749 307.5,303 307.5,303 307.5,303 307.5,303 307.5,303 307.5,303 307.5,303 307.5,303 307.5,303 307.5,303 307.5,303 307.5,303 307.5,303" fill="#AED6F1" fill-opacity="0.8509803921568627" stroke="#AED6F1" stroke-width="0.5" />
<polygon points="279.2292116928927,220.96378820389234 350.8861717377829,378.145310028642 250.5886343892823,237.49981693396322 375.8506446475153,356.454344010849 230.21526349929644,263.55070315737004 390.886188919856,326.9983544182345 221.06862847160343,295.332175466184 393.8086723220481,294.0562536168314 224.47741152903376,328.22751119198426 384.193561489498,262.4133625017087 239.94643718506478,357.45818274942445 363.43759159258144,236.66627280046242 265.2286037097725,378.7780085053418 307.5,303 307.5,303 307.5,303 307.5,303 307.5,303 307.5,303 307.5,303 307.5,303 307.5,303 307.5,303 307.5,303 307.5,303 307.5,303" fill="#AED6F1" fill-opacity="0.8509803921568627" stroke="#AED6F1" stroke-width="0.5" />
<polygon points="188.9813641060619,276.34440246650047 428.9263668520843,306.5812521735869 187.61642024353358,322.62435320724546 421.4468208251763,260.889313020767 203.66631590937368,366.0535802488311 397.4148361451261,221.31456571075296 234.7995695275756,400.3233545617493 360.3214093070421,193.60581984015008 276.49362165456716,420.45549129745973 315.5549018968506,181.78817512527962 322.6918027401605,423.5255037887493 269.6183024337246,187.57831692647602 366.68315277012186,409.0874279178084 307.5,303 307.5,303 307.5,303 307.5,303 307.5,303 307.5,303 307.5,303 307.5,303 307.5,303 307.5,303 307.5,303 307.5,303 307.5,303" fill="#AED6F1" fill-opacity="0.8509803921568627" stroke="#AED6F1" stroke-width="0.5" />
<polygon points="182.68757768387422,430.60920513654594 405.70688418572877,153.94411149326956 239.49813173851842,468.03937685579194 342.8044485024344,128.0261564806358 306.18694957048,481.4951705188954 274.7735264446396,127.52570578962201 373.06650713984874,469.0219357238078 211.49660227757488,152.5154571866271 430.4215726762343,432.4315918576344 162.1655726934955,199.36528458334843 469.92048587650015,377.03942036267995 133.94648967150002,261.2695668288088 485.82545315518973,310.8919425362979 307.5,303 307.5,303 307.5,303 307.5,303 307.5,303 307.5,303 307.5,303 307.5,303 307.5,303 307.5,303 307.5,303 307.5,303 307.5,303" fill="#AED6F1" fill-opacity="0.8509803921568627" stroke="#AED6F1" stroke-width="0.5" />
<polygon points="340.3597595435837,435.33553933127325 250.02351410861652,179.35165857586804 387.4865846198446,413.4291856721471 207.93498419753752,209.8374195526095 422.9941909640066,375.4813812018693 180.30972587345397,253.85640494453847 441.724580560203,327.00459832612665 171.16071106814638,305.01421471488214 440.9568909701836,275.04079722285303 181.81696770187247,355.87943040265225 420.80264031048677,227.13847835672175 210.73051898226322,399.0631371074201 384.18952761850704,190.25615262458285 307.5,303 307.5,303 307.5,303 307.5,303 307.5,303 307.5,303 307.5,303 307.5,303 307.5,303 307.5,303 307.5,303 307.5,303 307.5,303" fill="#AED6F1" fill-opacity="0.8509803921568627" stroke="#AED6F1" stroke-width="0.5" />
<polygon points="397.2261051054044,331.7129958739656 213.94643794229685,291.9121194198383 401.4520947349397,296.0563723918002 216.5929038788172,327.72063802288426 392.030171476934,261.40841215432414 232.44495221583338,359.9381231826349 370.3290071871974,232.80223703482042 259.19984158921164,383.8845150009394 339.5010126833941,214.39331144500608 292.9710338593485,396.0812505949949 304.0244040678161,208.85580048478488 328.85277049566577,394.7565761218446 269.05267648387553,216.99410843499788 307.5,303 307.5,303 307.5,303 307.5,303 307.5,303 307.5,303 307.5,303 307.5,303 307.5,303 307.5,303 307.5,303 307.5,303 307.5,303" fill="#AED6F1" fill-opacity="0.8509803921568627" stroke="#AED6F1" stroke-width="0.5" />
</g>
<g class="series" aria-label="10–20 kn">
<polygon points="354.5442101884251,408.24546968544433 241.26150702603036,208.64837759688564 390.50500313914216,382.9996003454611 210.77078528865522,240.28456631028484 414.4081080173453,346.13262154928833 194.3313936444009,281.0310870297606 422.78125,303 194.3313936444009,324.9689129702394 414.40810801734517,259.86737845071144 210.77078528865522,365.71543368971516 390.5050031391419,223.0003996545386 241.26150702603002,397.3516224031141 354.5442101884251,197.75453031455567 307.5,303 307.5,303 307.5,303 307.5,303 307.5,303 307.5,303 307.5,303 307.5,303 307.5,303 307.5,303 307.5,303 307.5,303 307.5,303" fill="#2E86C1" fill-opacity="0.8509803921568627" stroke="#2E86C1" stroke-width="0.5" />
<polygon points="410.7089927852842,316.7811259789306 203.55617362633797,309.1397543763574 408.36891181716754,277.1643994879067 213.40304914484688,347.58452046128673 391.37614933699183,241.30067101338426 236.91888001637466,379.55273428726815 362.1991520856461,214.39967050788493 270.6876486191921,400.4005462552235 325.07630472001074,200.3691608852908 309.8039484957761,407.0995074259663 285.40024258699526,201.24727842811114 348.58556622975857,398.676495925489 248.93449273982534,216.906463748093 307.5,303 307.5,303 307.5,303 307.5,303 307.5,303 307.5,303 307.5,303 307.5,303 307.5,303 307.5,303 307.5,303 307.5,303 307.5,303" fill="#2E86C1" fill-opacity="0.8509803921568627" stroke="#2E86C1" stroke-width="0.5" />
<polygon points="406.41654303204143,182.12794917417722 233.4305415640186,440.5072742921276 354.00758074721796,153.89741756330642 290.2588923528888,458.23298413465716 294.8427136319711,147.3262120392527 349.59176564246917,453.40883757728284 237.51650208082526,163.36889610388786 402.8101956895425,426.7356123105677 190.35641493447352,199.69503577152858 442.18342886543263,382.08798357083043 160.21314310042752,251.02772911547106 461.99192844238814,325.9516710154628 151.4654367204184,309.910153283412 307.5,303 307.5,303 307.5,303 307.5,303 307.5,303 307.5,303 307.5,303 307.5,303 307.5,303 307.5,303 307.5,303 307.5,303 307.5,303" fill="#2E86C1" fill-opacity="0.8509803921568627" stroke="#2E86C1" stroke-width="0.5" />
<polygon points="282.0562905236034,229.1674093835031 346.5475545640046,370.63077902577777 256.2797709503541,244.0498352405669 369.0155801827638,351.10890960976417 237.94373714936683,267.49563284163304 382.5475700278704,324.59851897641107 229.7117656244431,296.09895791956563 385.1778050898433,294.9506282551483 232.77967037613035,325.7047600727858 376.5242053405482,266.47202625153784 246.70179346655829,352.012364474482 357.8438324333233,243.29964552041616 269.4557433387953,371.2002076548076 307.5,303 307.5,303 307.5,303 307.5,303 307.5,303 307.5,303 307.5,303 307.5,303 307.5,303 307.5,303 307.5,303 307.5,303 307.5,303" fill="#2E86C1" fill-opacity="0.8509803921568627" stroke="#2E86C1" stroke-width="0.5" />
<polygon points="184.1438687634522,275.25641889370456 433.88254509094486,306.7274257316925 182.7232129065349,323.42534721570445 426.0977114711019,259.17050947059425 199.4282063546542,368.62719576919153 401.0848294571721,217.98046635200816 231.83220501849706,404.29573638059617 362.4773851971254,189.140751262197 275.2280551914883,425.2495929830704 315.88367340284447,176.8407537018216 323.31187632139154,428.44491210665745 268.0721106963256,182.8672278214342 369.0987916586983,413.41752701649443 307.5,303 307.5,303 307.5,303 307.5,303 307.5,303 307.5,303 307.5,303 307.5,303 307.5,303 307.5,303 307.5,303 307.5,303 307.5,303" fill="#2E86C1" fill-opacity="0.8509803921568627" stroke="#2E86C1" stroke-width="0.5" />
<polygon points="182.68757768387422,430.60920513654594 405.70688418572877,153.94411149326956 239.49813173851842,468.03937685579194 342.8044485024344,128.0261564806358 306.18694957048,481.4951705188954 274.7735264446396,127.52570578962201 373.06650713984874,469.0219357238078 211.49660227757488,152.5154571866271 430.4215726762343,432.4315918576344 162.1655726934955,199.36528458334843 469.92048587650015,377.03942036267995 133.94648967150002,261.2695668288088 485.82545315518973,310.8919425362979 307.5,303 307.5,303 307.5,303 307.5,303 307.5,303 307.5,303 307.5,303 307.5,303 307.5,303 307.5,303 307.5,303 307.5,303 307.5,303" fill="#2E86C1" fill-opacity="0.8509803921568627" stroke="#2E86C1" stroke-width="0.5" />
<polygon points="336.1776083289458,418.49283432547486 257.3387032220653,195.08872021166667 377.3064738500462,399.3745620411466 220.60689529966908,221.69447524591376 408.2949302958603,366.2564781398132 196.49757894410527,260.1110443152336 424.6414521252681,323.94946763007414 188.51298420492776,304.75786011480625 423.9714684830694,278.59924121267176 197.81298999436143,349.1493210786783 406.3823042709703,236.7935811113208 223.046634748157,386.83691965738484 374.42904228524253,204.6053695632723 307.5,303 307.5,303 307.5,303 307.5,303 307.5,303 307.5,303 307.5,303 307.5,303 307.5,303 307.5,303 307.5,303 307.5,303 307.5,303" fill="#2E86C1" fill-opacity="0.8509803921568627" stroke="#2E86C1" stroke-width="0.5" />
<polygon points="396.0454984592807,331.3351932966766 215.17740586410872,292.0580125853667 400.21588296211155,296.14773591296074 217.7890498804117,327.39536646995157 390.9179323785533,261.95566988913566 233.4325186340461,359.18893735128444 369.502309724208,233.72589181067804 259.8353699893536,382.82024506671655 339.07994672703364,215.55918892599283 293.16220446646236,394.8564972976924 304.07013559323957,210.09453995209034 328.57181298914384,393.54925275182035 269.558562319614,218.12576490295845 307.5,303 307.5,303 307.5,303 307.5,303 307.5,303 307.5,303 307.5,303 307.5,303 307.5,303 307.5,303 307.5,303 307.5,303 307.5,303" fill="#2E86C1" fill-opacity="0.8509803921568627" stroke="#2E86C1" stroke-width="0.5" />
</g>
<g class="series" aria-label="20+ kn">
<polygon points="349.12437030496596,396.120415574218 248.8926698110499,219.51838017788964 380.94221475905664,373.7830565268596 221.91470403420186,247.5098466892843 402.0915057111995,341.1634255182643 207.36925151946994,283.56206778670065 409.5,303 207.36925151946994,322.43793221329935 402.09150571119943,264.8365744817355 221.91470403420186,358.4901533107157 380.94221475905636,232.21694347314016 248.89266981104961,386.4816198221102 349.12437030496596,209.879584425782 307.5,303 307.5,303 307.5,303 307.5,303 307.5,303 307.5,303 307.5,303 307.5,303 307.5,303 307.5,303 307.5,303 307.5,303 307.5,303" fill="#1A252F" fill-opacity="0.8509803921568627" stroke="#1A252F" stroke-width="0.5" />
<polygon points="383.3270151075557,313.12490888247964 231.13310715404424,307.5108399499769 381.6077719473068,284.01874248091104 238.36754631049973,335.75597421645557 369.123293390443,257.6698807445272 255.64448327733646,359.242825190646 347.6871321445563,237.90588037313995 280.45419082226357,374.55958500383764 320.41320346776297,227.59775085449937 309.19269685403964,379.4812707619344 291.2634435333027,228.2428984369796 337.68531396472054,373.29293578199196 264.47228038027987,239.7476060190071 307.5,303 307.5,303 307.5,303 307.5,303 307.5,303 307.5,303 307.5,303 307.5,303 307.5,303 307.5,303 307.5,303 307.5,303 307.5,303" fill="#1A252F" fill-opacity="0.8509803921568627" stroke="#1A252F" stroke-width="0.5" />
<polygon points="404.39783807220385,184.594725721643 234.9421631647529,437.70100338820663 353.05844644625427,156.94032740895327 290.61075169262574,455.0649640502764 295.10102559866556,150.50322812008432 348.7327500171126,450.3392694634607 238.944736732237,166.21851046911468 400.86508965506204,424.210395732801 192.74710034397407,201.80330034761982 439.4347874600156,380.47394308979307 163.21899732286778,252.08838770495126 458.83903194356384,325.4832695661677 154.6498155628589,309.7691297470159 307.5,303 307.5,303 307.5,303 307.5,303 307.5,303 307.5,303 307.5,303 307.5,303 307.5,303 307.5,303 307.5,303 307.5,303 307.5,303" fill="#1A252F" fill-opacity="0.8509803921568627" stroke="#1A252F" stroke-width="0.5" />
<polygon points="288.1143165894121,246.7465976255262 337.2505177630511,354.5282125910687 268.4750635812222,258.08558875471766 354.3690134725819,339.65440732172505 254.5047521138033,275.9490535936252 364.6791009736155,319.45601445821796 248.2327738090995,297.74206317681194 366.6830895922615,296.8671453372558 250.5702250484803,320.2988648173606 360.0898707356557,275.16916285831456 261.17755692690156,340.3427538853196 345.85720566348436,257.5140156346028 278.51389968670117,354.9620629750915 307.5,303 307.5,303 307.5,303 307.5,303 307.5,303 307.5,303 307.5,303 307.5,303 307.5,303 307.5,303 307.5,303 307.5,303 307.5,303" fill="#1A252F" fill-opacity="0.8509803921568627" stroke="#1A252F" stroke-width="0.5" />
<polygon points="216.27865925364532,282.4837383415631 400.9593610756567,305.756415667134 215.22809021659725,318.1044584452268 395.20250932316776,270.58827591102767 227.58136268243337,351.5310355267971 376.7055881700096,240.12841209224135 251.5439835430903,377.90777144111314 348.15554535585744,218.80156395859947 283.63503241051234,393.4030603572285 313.699691255885,209.7057674433639 319.1928161032139,395.76598542341054 278.3432415233332,214.16231973349755 353.052047613155,384.6532972895085 307.5,303 307.5,303 307.5,303 307.5,303 307.5,303 307.5,303 307.5,303 307.5,303 307.5,303 307.5,303 307.5,303 307.5,303 307.5,303" fill="#1A252F" fill-opacity="0.8509803921568627" stroke="#1A252F" stroke-width="0.5" />
<polygon points="182.68757768387422,430.60920513654594 405.70688418572877,153.9441114932696 239.49813173851845,468.0393768557919 342.8044485024344,128.02615648063582 306.18694957048,481.49517051889535 274.7735264446396,127.52570578962204 373.06650713984874,469.02193572380776 211.49660227757488,152.51545718662712 430.4215726762343,432.4315918576344 162.1655726934955,199.36528458334845 469.9204858765001,377.03942036267995 133.94648967150005,261.2695668288088 485.82545315518973,310.8919425362979 307.5,303 307.5,303 307.5,303 307.5,303 307.5,303 307.5,303 307.5,303 307.5,303 307.5,303 307.5,303 307.5,303 307.5,303 307.5,303" fill="#1A252F" fill-opacity="0.8509803921568627" stroke="#1A252F" stroke-width="0.5" />
<polygon points="336.1776083289458,418.4928343254748 257.33870322206536,195.0887202116667 377.3064738500462,399.3745620411466 220.60689529966913,221.6944752459138 408.29493029586024,366.25647813981317 196.49757894410533,260.1110443152336 424.6414521252681,323.94946763007414 188.5129842049278,304.75786011480625 423.9714684830693,278.59924121267176 197.81298999436146,349.14932107867827 406.3823042709702,236.79358111132083 223.04663474815703,386.8369196573848 374.4290422852425,204.60536956327235 307.5,303 307.5,303 307.5,303 307.5,303 307.5,303 307.5,303 307.5,303 307.5,303 307.5,303 307.5,303 307.5,303 307.5,303 307.5,303" fill="#1A252F" fill-opacity="0.8509803921568627" stroke="#1A252F" stroke-width="0.5" />
<polygon points="372.2647074445024,323.7251699541406 239.97261686060523,294.9967177767254 375.3150458237159,297.98805826776555 241.8828479125297,320.84346804659316 368.5142591111704,272.9790042617678 253.324927915188,344.0981941769395 352.85026082684925,252.33093801009596 272.6367277636415,361.38280782022696 330.5984753203446,239.04329247158333 297.0129266954696,370.18646659488354 304.99129917676953,235.04629207924324 322.9125260720595,369.2303105841886 279.74854843948907,240.92055947187816 307.5,303 307.5,303 307.5,303 307.5,303 307.5,303 307.5,303 307.5,303 307.5,303 307.5,303 307.5,303 307.5,303 307.5,303 307.5,303" fill="#1A252F" fill-opacity="0.8509803921568627" stroke="#1A252F" stroke-width="0.5" />
</g>
<g class="legend" aria-label="Chart legend">
<rect x="411.5599483913845" y="82" width="118.44005160861545" height="59.05555555555555" fill="#FFFFFF" fill-opacity="0.8" stroke="#CCCCCC" stroke-width="0.5" />
<rect x="419.5599483913845" y="90" width="27.77777777777778" height="9.722222222222221" fill="#AED6F1" />
<path d="M4.41488 -9.22309Q3.35693 -9.22309 2.82457 -8.1821Q2.29221 -7.14111 2.29221 -5.05235Q2.29221 -2.97038 2.82457 -1.92939Q3.35693 -0.888401 4.41488 -0.888401Q5.4796 -0.888401 6.01196 -1.92939Q6.54433 -2.97038 6.54433 -5.05235Q6.54433 -7.14111 6.01196 -8.1821Q5.4796 -9.22309 4.41488 -9.22309ZM4.41488 -10.3082Q6.11708 -10.3082 7.01565 -8.962Q7.91422 -7.61583 7.91423 -5.05235Q7.91423 -2.49566 7.01565 -1.1495Q6.11708 0.196669 4.41488 0.196669Q2.71267 0.196669 1.8141 -1.1495Q0.915527 -2.49566 0.915527 -5.05235Q0.915527 -7.61583 1.8141 -8.962Q2.71267 -10.3082 4.41488 -10.3082ZM9.5147 -4.29281L15.1028 -4.29281L15.1028 -3.31624L9.5147 -3.31624L9.5147 -4.29281ZM17.5035 -1.15289L19.7415 -1.15289L19.7415 -8.87722L17.3069 -8.38894L17.3069 -9.63677L19.7279 -10.1251L21.0978 -10.1251L21.0978 -1.15289L23.3358 -1.15289L23.3358 0L17.5035 0L17.5035 -1.15289ZM29.0324 -9.22309Q27.9744 -9.22309 27.4421 -8.1821Q26.9097 -7.14111 26.9097 -5.05235Q26.9097 -2.97038 27.4421 -1.92939Q27.9744 -0.888401 29.0324 -0.888401Q30.0971 -0.888401 30.6295 -1.92939Q31.1618 -2.97038 31.1618 -5.05235Q31.1618 -7.14111 30.6295 -8.1821Q30.0971 -9.22309 29.0324 -9.22309ZM29.0324 -10.3082Q30.7346 -10.3082 31.6332 -8.962Q32.5317 -7.61583 32.5317 -5.05235Q32.5317 -2.49566 31.6332 -1.1495Q30.7346 0.196669 29.0324 0.196669Q27.3302 0.196669 26.4316 -1.1495Q25.533 -2.49566 25.533 -5.05235Q25.533 -7.61583 26.4316 -8.962Q27.3302 -10.3082 29.0324 -10.3082ZM39.1303 -10.5523L40.3849 -10.5523L40.3849 -4.31993L44.1081 -7.59549L45.7018 -7.59549L41.6734 -4.04188L45.8713 0L44.2437 0L40.3849 -3.70958L40.3849 0L39.1303 0L39.1303 -10.5523ZM53.5346 -4.58442L53.5346 0L52.2868 0L52.2868 -4.54373Q52.2868 -5.62202 51.8663 -6.15777Q51.4459 -6.69352 50.6049 -6.69352Q49.5945 -6.69352 49.0112 -6.04926Q48.428 -5.405 48.428 -4.29281L48.428 0L47.1734 0L47.1734 -7.59549L48.428 -7.59549L48.428 -6.41547Q48.8756 -7.10042 49.4826 -7.43951Q50.0895 -7.77859 50.883 -7.77859Q52.1918 -7.77859 52.8632 -6.96818Q53.5346 -6.15777 53.5346 -4.58442Z" fill="#262626" transform="translate(458.4488372802734,98.72222222222223)" />
<rect x="419.5599483913845" y="106.66666666666666" width="27.77777777777778" height="9.722222222222221" fill="#2E86C1" />
<path d="M1.72255 -1.15289L3.9605 -1.15289L3.9605 -8.87722L1.52588 -8.38894L1.52588 -9.63677L3.94694 -10.1251L5.31684 -10.1251L5.31684 -1.15289L7.5548 -1.15289L7.5548 0L1.72255 0L1.72255 -1.15289ZM13.2514 -9.22309Q12.1935 -9.22309 11.6611 -8.1821Q11.1287 -7.14111 11.1287 -5.05235Q11.1287 -2.97038 11.6611 -1.92939Q12.1935 -0.888401 13.2514 -0.888401Q14.3161 -0.888401 14.8485 -1.92939Q15.3809 -2.97038 15.3809 -5.05235Q15.3809 -7.14111 14.8485 -8.1821Q14.3161 -9.22309 13.2514 -9.22309ZM13.2514 -10.3082Q14.9536 -10.3082 15.8522 -8.962Q16.7508 -7.61583 16.7508 -5.05235Q16.7508 -2.49566 15.8522 -1.1495Q14.9536 0.196669 13.2514 0.196669Q11.5492 0.196669 10.6506 -1.1495Q9.75206 -2.49566 9.75206 -5.05235Q9.75206 -7.61583 10.6506 -8.962Q11.5492 -10.3082 13.2514 -10.3082ZM18.3512 -4.29281L23.9393 -4.29281L23.9393 -3.31624L18.3512 -3.31624L18.3512 -4.29281ZM27.2827 -1.15289L32.0638 -1.15289L32.0638 0L25.6348 0L25.6348 -1.15289Q26.4147 -1.95991 27.7608 -3.31963Q29.107 -4.67936 29.4529 -5.0727Q30.1107 -5.8119 30.3718 -6.32392Q30.6329 -6.83594 30.6329 -7.331Q30.6329 -8.13802 30.0666 -8.64665Q29.5003 -9.15527 28.5916 -9.15527Q27.9473 -9.15527 27.2319 -8.93148Q26.5164 -8.70768 25.7026 -8.25331L25.7026 -9.63677Q26.5299 -9.96908 27.2488 -10.1386Q27.9677 -10.3082 28.5645 -10.3082Q30.1378 -10.3082 31.0737 -9.52148Q32.0095 -8.73481 32.0095 -7.41916Q32.0095 -6.79525 31.7756 -6.23576Q31.5416 -5.67627 30.9245 -4.91672Q30.7549 -4.72005 29.8462 -3.78079Q28.9374 -2.84153 27.2827 -1.15289ZM37.8689 -9.22309Q36.811 -9.22309 36.2786 -8.1821Q35.7463 -7.14111 35.7463 -5.05235Q35.7463 -2.97038 36.2786 -1.92939Q36.811 -0.888401 37.8689 -0.888401Q38.9336 -0.888401 39.466 -1.92939Q39.9984 -2.97038 39.9984 -5.05235Q39.9984 -7.14111 39.466 -8.1821Q38.9336 -9.22309 37.8689 -9.22309ZM37.8689 -10.3082Q39.5711 -10.3082 40.4697 -8.962Q41.3683 -7.61583 41.3683 -5.05235Q41.3683 -2.49566 40.4697 -1.1495Q39.5711 0.196669 37.8689 0.196669Q36.1667 0.196669 35.2682 -1.1495Q34.3696 -2.49566 34.3696 -5.05235Q34.3696 -7.61583 35.2682 -8.962Q36.1667 -10.3082 37.8689 -10.3082ZM47.9669 -10.5523L49.2215 -10.5523L49.2215 -4.31993L52.9446 -7.59549L54.5383 -7.59549L50.51 -4.04188L54.7078 0L53.0802 0L49.2215 -3.70958L49.2215 0L47.9669 0L47.9669 -10.5523ZM62.3711 -4.58442L62.3711 0L61.1233 0L61.1233 -4.54373Q61.1233 -5.62202 60.7029 -6.15777Q60.2824 -6.69352 59.4415 -6.69352Q58.431 -6.69352 57.8478 -6.04926Q57.2645 -5.405 57.2645 -4.29281L57.2645 0L56.0099 0L56.0099 -7.59549L57.2645 -7.59549L57.2645 -6.41547Q57.7121 -7.10042 58.3191 -7.43951Q58.9261 -7.77859 59.7195 -7.77859Q61.0284 -7.77859 61.6998 -6.96818Q62.3711 -6.15777 62.3711 -4.58442Z" fill="#262626" transform="translate(458.4488372802734,115.38888888888889)" />
<rect x="419.5599483913845" y="123.33333333333333" width="27.77777777777778" height="9.722222222222221" fill="#1A252F" />
<path d="M2.6652 -1.15289L7.44629 -1.15289L7.44629 0L1.01725 0L1.01725 -1.15289Q1.79715 -1.95991 3.14331 -3.31963Q4.48947 -4.67936 4.83534 -5.0727Q5.49316 -5.8119 5.75426 -6.32392Q6.01535 -6.83594 6.01535 -7.331Q6.01535 -8.13802 5.44908 -8.64665Q4.88281 -9.15527 3.97407 -9.15527Q3.32981 -9.15527 2.61434 -8.93148Q1.89887 -8.70768 1.08507 -8.25331L1.08507 -9.63677Q1.91243 -9.96908 2.63129 -10.1386Q3.35015 -10.3082 3.94694 -10.3082Q5.52029 -10.3082 6.45616 -9.52148Q7.39204 -8.73481 7.39204 -7.41916Q7.39204 -6.79525 7.15807 -6.23576Q6.9241 -5.67627 6.30697 -4.91672Q6.13742 -4.72005 5.22868 -3.78079Q4.31993 -2.84153 2.6652 -1.15289ZM13.2514 -9.22309Q12.1935 -9.22309 11.6611 -8.1821Q11.1287 -7.14111 11.1287 -5.05235Q11.1287 -2.97038 11.6611 -1.92939Q12.1935 -0.888401 13.2514 -0.888401Q14.3161 -0.888401 14.8485 -1.92939Q15.3809 -2.97038 15.3809 -5.05235Q15.3809 -7.14111 14.8485 -8.1821Q14.3161 -9.22309 13.2514 -9.22309ZM13.2514 -10.3082Q14.9536 -10.3082 15.8522 -8.962Q16.7508 -7.61583 16.7508 -5.05235Q16.7508 -2.49566 15.8522 -1.1495Q14.9536 0.196669 13.2514 0.196669Q11.5492 0.196669 10.6506 -1.1495Q9.75206 -2.49566 9.75206 -5.05235Q9.75206 -7.61583 10.6506 -8.962Q11.5492 -10.3082 13.2514 -10.3082ZM24.0614 -8.70768L24.0614 -4.93028L27.8388 -4.93028L27.8388 -3.7774L24.0614 -3.7774L24.0614 0L22.9221 0L22.9221 -3.7774L19.1447 -3.7774L19.1447 -4.93028L22.9221 -4.93028L22.9221 -8.70768L24.0614 -8.70768ZM34.9867 -10.5523L36.2413 -10.5523L36.2413 -4.31993L39.9645 -7.59549L41.5582 -7.59549L37.5298 -4.04188L41.7277 0L40.1001 0L36.2413 -3.70958L36.2413 0L34.9867 0L34.9867 -10.5523ZM49.391 -4.58442L49.391 0L48.1432 0L48.1432 -4.54373Q48.1432 -5.62202 47.7227 -6.15777Q47.3022 -6.69352 46.4613 -6.69352Q45.4508 -6.69352 44.8676 -6.04926Q44.2844 -5.405 44.2844 -4.29281L44.2844 0L43.0298 0L43.0298 -7.59549L44.2844 -7.59549L44.2844 -6.41547Q44.732 -7.10042 45.339 -7.43951Q45.9459 -7.77859 46.7394 -7.77859Q48.0482 -7.77859 48.7196 -6.96818Q49.391 -6.15777 49.391 -4.58442Z" fill="#262626" transform="translate(458.4488372802734,132.05555555555554)" />
</g>
</svg>
